<?xml version="1.0" standalone="no"?>
<!DOCTYPE svg PUBLIC "-//W3C//DTD SVG 20010904//EN"
 "http://www.w3.org/TR/2001/REC-SVG-20010904/DTD/svg10.dtd">
<svg version="1.0" xmlns="http://www.w3.org/2000/svg"
 width="700.000000pt" height="700.000000pt" viewBox="0 0 700.000000 700.000000"
 preserveAspectRatio="xMidYMid meet">
<metadata>
Created by potrace 1.11, written by Peter Selinger 2001-2013
</metadata>
<g transform="translate(0.000000,700.000000) scale(0.100000,-0.100000)"
fill="#000000" stroke="none">
<path d="M3290 6994 c-19 -2 -87 -9 -150 -15 -583 -55 -1190 -284 -1675 -633
-224 -161 -522 -442 -681 -641 -429 -538 -673 -1115 -760 -1800 -25 -196 -25
-614 0 -810 70 -546 236 -1015 524 -1473 138 -221 305 -425 518 -632 554 -540
1230 -862 2029 -967 186 -24 609 -24 805 0 681 85 1265 331 1805 761 129 102
409 382 511 511 429 538 673 1115 760 1800 25 196 25 614 0 810 -70 546 -236
1015 -524 1473 -138 221 -305 425 -518 632 -552 538 -1238 866 -2024 965 -118
15 -543 28 -620 19z m-1119 -2160 c52 -15 76 -37 684 -645 347 -346 637 -629
645 -629 8 0 298 283 645 629 740 739 635 665 925 659 l180 -3 32 -33 33 -32
3 -1266 c2 -1129 1 -1269 -13 -1298 -28 -59 -41 -61 -331 -61 l-262 0 -26 24
c-14 14 -30 41 -36 60 -6 22 -10 304 -10 739 0 386 -3 702 -7 702 -4 0 -233
-225 -508 -500 -342 -342 -512 -504 -537 -515 -48 -19 -128 -19 -176 0 -25 11
-194 172 -538 517 -295 294 -506 498 -513 494 -8 -5 -11 -211 -11 -730 0 -714
0 -724 -21 -749 -33 -43 -73 -49 -334 -45 -263 3 -272 5 -300 64 -13 28 -15
192 -15 1284 0 1359 -2 1301 53 1328 40 19 51 20 218 21 124 1 179 -3 220 -15z"/>
</g>
</svg>
