<?xml version="1.0" encoding="UTF-8"?>
<svg width="88px" height="88px" viewBox="0 0 88 88" version="1.1" xmlns="http://www.w3.org/2000/svg" xmlns:xlink="http://www.w3.org/1999/xlink">
    <title>Icon / Time</title>
    <defs>
        <path d="M31,0 C32.1045695,-2.02906125e-16 33,0.8954305 33,2 C33,3.1045695 32.1045695,4 31,4 L29,4 L29,6 L28.9975825,6.072775 C42.9764723,7.09505668 54,18.7601869 54,33 C54,47.9116882 41.9116882,60 27,60 C12.0883118,60 0,47.9116882 0,33 C0,27.7169414 1.51733992,22.7882764 4.13999981,18.6260252 L2.12132034,16.6066017 C0.949747468,15.4350288 0.949747468,13.5355339 2.12132034,12.363961 L6.36396103,8.12132034 C7.53553391,6.94974747 9.43502884,6.94974747 10.6066017,8.12132034 L12.6260252,10.1399998 C16.2589404,7.85087777 20.475727,6.40381364 25.0024175,6.072775 C25.0004441,6.04909309 25,6.02459841 25,6 L25,4 L23,4 C21.8954305,4 21,3.1045695 21,2 C21,0.8954305 21.8954305,2.02906125e-16 23,0 L31,0 Z" id="path-1"></path>
        <circle id="path-3" cx="27" cy="33" r="22"></circle>
    </defs>
    <g id="Icon-/-Time" stroke="none" stroke-width="1" fill="none" fill-rule="evenodd">
        <circle id="Oval" fill-opacity="0.2" fill="#00C08F" cx="44" cy="44" r="44"></circle>
        <g id="Group" transform="translate(17.000000, 14.000000)">
            <mask id="mask-2" fill="white">
                <use xlink:href="#path-1"></use>
            </mask>
            <use id="Combined-Shape" fill="#00C08F" xlink:href="#path-1"></use>
            <path d="M31,0 C32.1045695,-2.02906125e-16 33,0.8954305 33,2 C33,3.1045695 32.1045695,4 31,4 L29,4 L29,6 L28.9975825,6.072775 C42.9764723,7.09505668 54,18.7601869 54,33 C54,47.9116882 41.9116882,60 27,60 C12.0883118,60 0,47.9116882 0,33 C0,27.7169414 1.51733992,22.7882764 4.13999981,18.6260252 L2.12132034,16.6066017 C0.949747468,15.4350288 0.949747468,13.5355339 2.12132034,12.363961 L6.36396103,8.12132034 C7.53553391,6.94974747 9.43502884,6.94974747 10.6066017,8.12132034 L12.6260252,10.1399998 C16.2589404,7.85087777 20.475727,6.40381364 25.0024175,6.072775 C25.0004441,6.04909309 25,6.02459841 25,6 L25,4 L23,4 C21.8954305,4 21,3.1045695 21,2 C21,0.8954305 21.8954305,2.02906125e-16 23,0 L31,0 Z" id="Combined-Shape" fill="#00CEA1" mask="url(#mask-2)"></path>
            <circle id="Oval" fill="#00C08F" mask="url(#mask-2)" cx="27" cy="62" r="41"></circle>
            <path d="M30.2790698,-6 C33.7884943,-6 36.6511628,-3.16863516 36.6511628,0.346153846 C36.6511628,0.774041204 36.6087369,1.19179993 36.527883,1.59555466 L36.46,1.896 L36.543862,1.9235188 C48.9234962,6.09591243 57.7869336,17.6260496 57.9962133,31.1389336 L58,31.6282051 C58,48.964274 43.8090944,63 26.3255814,63 C24.1164424,63 22.3255814,61.209139 22.3255814,59 C22.3255814,56.8578046 24.0095499,55.1089211 26.1259411,55.0048953 L26.3255814,55 C39.4103871,55 50,44.526186 50,31.6282051 C50,19.4762808 40.5603901,9.36449606 28.3607732,8.34134092 C28.1563238,8.3241942 27.9566056,8.2918987 27.7626682,8.24562627 L27.662,8.218 L27.513026,8.2369818 C27.4477716,8.24340703 27.3820566,8.24826414 27.3159194,8.25151495 L27.1162791,8.25641026 C25.3112811,8.25641026 23.7855197,7.06085617 23.2876809,5.41843387 L23.234,5.225 L22.8697163,5.21998579 C22.0746392,5.20067902 21.3692906,5.14782871 20.7295405,5.04786051 L20.4150204,4.99388708 C19.6454698,4.84950637 18.9635297,4.63245075 18.3071315,4.25098723 C16.9750801,3.47687024 16,2.13894109 16,0.346153846 C16,-3.0922267 18.7395575,-5.8765742 22.1441572,-5.99600784 L22.372093,-6 L30.2790698,-6 Z" id="Shape" fill="#00C08F" fill-rule="nonzero" mask="url(#mask-2)"></path>
            <mask id="mask-4" fill="white">
                <use xlink:href="#path-3"></use>
            </mask>
            <use id="Oval" fill="#FFFFFF" xlink:href="#path-3"></use>
            <g id="Group-3" mask="url(#mask-4)" fill="#00C08F">
                <g transform="translate(1.328571, 7.842857)">
                    <path d="M25.6714286,0.157142857 C26.7759981,0.157142857 27.6714286,1.05257336 27.6714286,2.15714286 L27.6714286,6.15714286 C27.6714286,7.26171236 26.7759981,8.15714286 25.6714286,8.15714286 C24.5668591,8.15714286 23.6714286,7.26171236 23.6714286,6.15714286 L23.6714286,2.15714286 C23.6714286,1.05257336 24.5668591,0.157142857 25.6714286,0.157142857 Z" id="Rectangle"></path>
                    <path d="M25.6714286,42.1571429 C26.7759981,42.1571429 27.6714286,43.0525734 27.6714286,44.1571429 L27.6714286,48.1571429 C27.6714286,49.2617124 26.7759981,50.1571429 25.6714286,50.1571429 C24.5668591,50.1571429 23.6714286,49.2617124 23.6714286,48.1571429 L23.6714286,44.1571429 C23.6714286,43.0525734 24.5668591,42.1571429 25.6714286,42.1571429 Z" id="Rectangle-Copy"></path>
                    <path d="M44.6714286,23.1571429 L48.6714286,23.1571429 C49.7759981,23.1571429 50.6714286,24.0525734 50.6714286,25.1571429 C50.6714286,26.2617124 49.7759981,27.1571429 48.6714286,27.1571429 L44.6714286,27.1571429 C43.5668591,27.1571429 42.6714286,26.2617124 42.6714286,25.1571429 C42.6714286,24.0525734 43.5668591,23.1571429 44.6714286,23.1571429 Z" id="Rectangle-Copy-3"></path>
                    <path d="M2.67142857,23.1571429 L6.67142857,23.1571429 C7.77599807,23.1571429 8.67142857,24.0525734 8.67142857,25.1571429 C8.67142857,26.2617124 7.77599807,27.1571429 6.67142857,27.1571429 L2.67142857,27.1571429 C1.56685907,27.1571429 0.671428571,26.2617124 0.671428571,25.1571429 C0.671428571,24.0525734 1.56685907,23.1571429 2.67142857,23.1571429 Z" id="Rectangle-Copy-6"></path>
                    <path d="M25.6714286,15.1571429 C26.7759981,15.1571429 27.6714286,16.0525734 27.6714286,17.1571429 L27.6714286,23.1571429 L31.6714286,23.1571429 C32.7759981,23.1571429 33.6714286,24.0525734 33.6714286,25.1571429 C33.6714286,26.2617124 32.7759981,27.1571429 31.6714286,27.1571429 L25.6714286,27.1571429 C24.5668591,27.1571429 23.6714286,26.2617124 23.6714286,25.1571429 L23.6714286,17.1571429 C23.6714286,16.0525734 24.5668591,15.1571429 25.6714286,15.1571429 Z" id="Path"></path>
                </g>
            </g>
        </g>
    </g>
</svg>