<?xml version="1.0" encoding="UTF-8"?>
<svg width="678px" height="303px" viewBox="0 0 678 303" version="1.1" xmlns="http://www.w3.org/2000/svg" xmlns:xlink="http://www.w3.org/1999/xlink">
    <title>Combined Shape</title>
    <g id="Page-1" stroke="none" stroke-width="1" fill="none" fill-rule="evenodd" fill-opacity="0.2">
        <g id="Group-11-Copy" transform="translate(-762.000000, 0.000000)" fill="#FFFFFF">
            <path d="M1439.68603,101.109036 L1439.68603,303 L1439.68603,303 L1143.99748,303 C1146.18771,299.327246 1148.86083,295.843038 1151.28159,292.405662 C1213.97366,203.38802 1319.05594,134.29599 1439.68603,101.109036 L1439.68603,101.109036 Z M1337.00276,0 C1272.85235,21.2916135 1212.89355,50.3026634 1153.71184,79.8977127 L1148.78176,82.3651657 C1147.13895,83.1879987 1145.49667,84.0111294 1143.85484,84.8344048 L1138.93063,87.3045124 L1138.93063,87.3045124 L1134.00871,89.7745708 C1133.18855,90.1861921 1132.36847,90.5977732 1131.54846,91.0092948 L1126.62914,93.4775589 L1126.62914,93.4775589 L1121.71099,95.9434798 C1117.61291,97.9971826 1113.5156,100.047489 1109.41792,102.092008 C1031.52096,140.962155 950.903374,178.463161 862.067212,196.984355 C845.325674,200.473562 827.962757,203.28912 810.79927,201.531916 C793.637882,199.774713 776.516379,192.742539 768.167652,180.613468 C754.178235,160.293073 768.973765,134.979936 787.140696,116.898883 C789.320979,114.72956 791.567616,112.569865 793.840021,110.408999 L794.978183,109.328419 C795.54815,108.78803 796.119305,108.247455 796.691013,107.706526 L797.83498,106.624145 C798.407145,106.082668 798.97944,105.540725 799.551232,104.998146 L800.693958,103.91209 C815.155225,90.1433825 829.022208,75.8945577 831.984925,58.4223109 C835.864343,35.5585069 819.484336,13.3890167 796,0 L796,0 Z" id="Combined-Shape" style="mix-blend-mode: soft-light;"></path>
        </g>
    </g>
</svg>