<?xml version="1.0" encoding="UTF-8"?>
<svg width="212px" height="124px" viewBox="0 0 212 124" version="1.1" xmlns="http://www.w3.org/2000/svg" xmlns:xlink="http://www.w3.org/1999/xlink">
    <title>Mobile Landing Page Illustration</title>
    <defs>
        <rect id="path-1" x="0" y="0" width="212" height="124"></rect>
        <polygon id="path-3" points="30.6982249 90.2688172 48.6982249 90.2688172 48.6982249 56.2688172 30.6982249 56.2688172"></polygon>
        <path d="M64.6982249,38.241403 C64.6982249,52.5659832 48.7076869,65.2688172 39.6982249,65.2688172 C30.7292973,65.2688172 14.6982249,52.5659832 14.6982249,38.241403 L14.6982249,34.0252728 L21.219964,25.5930125 C21.219964,25.5930125 29.8760896,19.2688172 38.6112683,19.2688172 C47.3842793,19.2688172 56.0025727,25.5930125 56.0025727,25.5930125 L64.6982249,34.0252728 L64.6982249,38.241403 Z" id="path-5"></path>
        <path d="M44.9005326,22.2734577 C41.0922329,18.4292754 34.8432183,30.1823519 31.0349186,30.1823519 C27.2266189,30.1823519 24.1669658,28.4834972 20.3586661,32.3276795 C16.5503664,36.1718618 20.0718991,51.4604618 23.2034144,55.7021442 C25.2910913,58.5299324 27.7893614,60.7188234 30.6982249,62.2688172 L30.6982249,77.2688172 C20.9191281,87.056525 13.9138577,90.6689848 9.68241364,88.1061966 C3.33524751,84.2620142 -1.39745479,76.0691523 1.14141166,70.9435759 C3.68027811,65.8179995 5.81552861,61.0518593 3.27666215,55.9262829 C0.737795701,50.8007064 -1.39745479,43.4427658 1.14141166,34.4730071 C3.68027811,25.5032483 11.8176641,25.4452239 11.8176641,21.6010416 C11.8176641,17.7568593 9.33738304,10.8453915 18.2234156,4.43842093 C27.1094482,-1.96854961 37.9028714,-0.269694866 41.7111711,2.29309335 C45.5194707,4.85588156 48.5791239,9.59300956 52.3874235,10.8744037 C56.1957232,12.1557978 66.930561,13.0487435 69.4694275,19.455714 C72.008294,25.8626845 69.9316288,27.202103 73.7399285,32.3276795 C77.5482282,37.4532559 76.2787949,44.7821843 73.7399285,47.3449725 C71.201062,49.9077607 67.7963783,56.8192285 71.604678,64.5075932 C75.4129777,72.1959578 75.875179,74.3993098 75.875179,79.5248862 C75.875179,84.6504627 73.2777272,91.5329182 69.4694275,90.2515241 C66.930561,89.3972614 60.0068268,85.0696924 48.6982249,77.2688172 L48.6982249,62.2688172 C51.4296044,60.3393501 53.4296044,58.6726834 54.6982249,57.2688172 C58.9171046,52.6001686 61.5022607,49.108686 62.0298364,46.4804375 C62.7953756,42.6667146 62.4282387,37.9491286 60.9284255,32.3276795 C56.4185691,32.6269321 53.7404965,32.349427 52.8942077,31.4951643 C51.6247744,30.2137702 48.7088322,26.11764 44.9005326,22.2734577 Z" id="path-7"></path>
        <path d="M30.6982249,75.2688172 C30.6982249,75.2688172 19.6982249,77.2688172 12.0732249,83.8842018 C4.44822485,90.4995864 7.61907591,92.6534425 5.69822485,103.268817 L73.6982249,103.268817 C71.7745696,92.6534425 80.1982249,93.8842018 66.6982249,84.2688172 C53.1982249,74.6534326 48.6982249,75.2688172 48.6982249,75.2688172 L30.6982249,75.2688172 Z" id="path-9"></path>
        <path d="M52.6982249,76.2688172 C57.0418257,77.0243044 65.2655027,79.6615384 69.5757993,82.1091567 C79.1694586,87.5569526 77.6033502,92.3406362 77.6033502,104.268817 L1.69822485,104.268817 C1.69822485,92.1103341 1.74737181,87.7178142 10.5572197,82.1091567 C13.6794197,80.1214548 17.8031021,78.4068689 26.6982249,76.2688172 C24.6982249,84.9354839 29.0315582,89.2688172 39.6982249,89.2688172 C50.3648915,89.2688172 54.6982249,84.9354839 52.6982249,76.2688172 Z" id="path-11"></path>
        <linearGradient x1="100%" y1="0%" x2="0.142557638%" y2="99.8574424%" id="linearGradient-13">
            <stop stop-color="#F5A623" offset="0%"></stop>
            <stop stop-color="#EBA025" offset="100%"></stop>
        </linearGradient>
        <linearGradient x1="100%" y1="0%" x2="0.142557638%" y2="99.8574424%" id="linearGradient-14">
            <stop stop-color="#F5A623" offset="0%"></stop>
            <stop stop-color="#EBA025" offset="100%"></stop>
        </linearGradient>
        <linearGradient x1="100%" y1="100%" x2="0.211958452%" y2="0.211958452%" id="linearGradient-15">
            <stop stop-color="#A2CFF4" offset="0%"></stop>
            <stop stop-color="#ADD8F7" offset="100%"></stop>
        </linearGradient>
    </defs>
    <g id="Mobile-Landing-Page-Illustration" stroke="none" stroke-width="1" fill="none" fill-rule="evenodd">
        <g id="mobile-landing-page">
            <mask id="mask-2" fill="white">
                <use xlink:href="#path-1"></use>
            </mask>
            <g id="Rectangle"></g>
            <g id="Group-3" mask="url(#mask-2)">
                <g transform="translate(16.301775, 9.000000)">
                    <g id="Group-Copy" stroke-width="1" fill="none" transform="translate(0.000000, 2.731183)">
                        <mask id="mask-4" fill="white">
                            <use xlink:href="#path-3"></use>
                        </mask>
                        <use id="Fill-3" fill="#E0895A" xlink:href="#path-3"></use>
                        <polygon id="Rectangle" fill="#DA7C4E" mask="url(#mask-4)" points="39.6757265 0.268817204 76.6757265 0.268817204 76.6757265 104.268817 39.6757265 104.268817"></polygon>
                        <path d="M39.6982249,69.2688172 C44.4136356,69.2688172 48.3912797,66.6285021 48.6982249,66.2688172 C48.6982249,63.2758861 48.6982249,61.2758861 48.6982249,60.2688172 C48.6982249,59.2617483 42.6982249,58.5950816 30.6982249,58.2688172 L30.6982249,75.2688172 C31.0104394,74.6319439 32.289843,72.8479429 32.6982249,72.2688172 C34.5942687,69.9669716 36.6062508,69.2688172 39.6982249,69.2688172 Z" id="Fill-5" fill-opacity="0.2" fill="#000000" style="mix-blend-mode: multiply;"></path>
                        <mask id="mask-6" fill="white">
                            <use xlink:href="#path-5"></use>
                        </mask>
                        <use id="Fill-6" fill="#E0895A" xlink:href="#path-5"></use>
                        <polygon id="Rectangle" fill="#DA7C4E" mask="url(#mask-6)" points="39.6757265 0.268817204 76.6757265 0.268817204 76.6757265 104.268817 39.6757265 104.268817"></polygon>
                        <mask id="mask-8" fill="white">
                            <use xlink:href="#path-7"></use>
                        </mask>
                        <use id="Path-6" fill="#713B1E" xlink:href="#path-7"></use>
                        <polygon id="Rectangle" fill="#643118" mask="url(#mask-8)" points="39.6757265 0.268817204 76.6757265 0.268817204 76.6757265 104.268817 39.6757265 104.268817"></polygon>
                        <mask id="mask-10" fill="white">
                            <use xlink:href="#path-9"></use>
                        </mask>
                        <use id="Fill-8" fill="#E0895A" xlink:href="#path-9"></use>
                        <polygon id="Rectangle" fill="#DA7C4E" mask="url(#mask-10)" points="39.6757265 0.268817204 76.6757265 0.268817204 76.6757265 104.268817 39.6757265 104.268817"></polygon>
                        <mask id="mask-12" fill="white">
                            <use xlink:href="#path-11"></use>
                        </mask>
                        <use id="Fill-11" fill="#F5A623" xlink:href="#path-11"></use>
                        <polygon id="Rectangle" fill="#F39A1C" mask="url(#mask-12)" points="39.6757265 0.268817204 76.6757265 0.268817204 76.6757265 104.268817 39.6757265 104.268817"></polygon>
                    </g>
                    <g id="Group-14" stroke-width="1" fill="none" transform="translate(56.698225, 42.000000)">
                        <path d="M17,0 L97,0 C102.522847,0 107,4.4771525 107,10 L107,62 L7,62 L7,10 C7,4.4771525 11.4771525,0 17,0 Z" id="Rectangle" fill="#628393"></path>
                        <path d="M57,0 L97,0 C102.522847,0 107,4.4771525 107,10 L107,60 L57,60 L57,0 Z" id="Rectangle" fill="#517182"></path>
                        <path d="M4,57.1290323 L110,57.1290323 C112.209139,57.1290323 114,58.9198933 114,61.1290323 C114,63.3381713 112.209139,65.1290323 110,65.1290323 L4,65.1290323 C1.790861,65.1290323 0,63.3381713 0,61.1290323 C0,58.9198933 1.790861,57.1290323 4,57.1290323 Z" id="Rectangle" fill="#7F929C"></path>
                        <path d="M57,57 L110,57 C112.209139,57 114,58.790861 114,61 C114,63.209139 112.209139,65 110,65 L57,65 L57,57 Z" id="Rectangle" fill="#708692"></path>
                        <path d="M15,4 L99,4 C101.209139,4 103,5.790861 103,8 L103,57 L11,57 L11,8 C11,5.790861 12.790861,4 15,4 Z" id="Rectangle" fill="#FFFFFF"></path>
                        <path d="M57,4 L99,4 C101.209139,4 103,5.790861 103,8 L103,57 L57,57 L57,4 Z" id="Rectangle" fill="#FAFAFA"></path>
                        <g id="Group-2" transform="translate(17.000000, 10.000000)">
                            <path d="M2,0 L7,0 C8.1045695,0 9,0.8954305 9,2 L9,7 C9,8.1045695 8.1045695,9 7,9 L2,9 C0.8954305,9 0,8.1045695 0,7 L0,2 C0,0.8954305 0.8954305,0 2,0 Z" id="Rectangle" fill="url(#linearGradient-13)"></path>
                            <path d="M2,30 L7,30 C8.1045695,30 9,30.8954305 9,32 L9,37 C9,38.1045695 8.1045695,39 7,39 L2,39 C0.8954305,39 0,38.1045695 0,37 L0,32 C0,30.8954305 0.8954305,30 2,30 Z" id="Rectangle-Copy-3" fill="url(#linearGradient-14)"></path>
                            <path d="M73,15 L78,15 C79.1045695,15 80,15.8954305 80,17 L80,22 C80,23.1045695 79.1045695,24 78,24 L73,24 C71.8954305,24 71,23.1045695 71,22 L71,17 C71,15.8954305 71.8954305,15 73,15 Z" id="Rectangle-Copy-12" fill="url(#linearGradient-15)"></path>
                            <path d="M13,0 L33,0 C34.1045695,0 35,0.8954305 35,2 L35,7 C35,8.1045695 34.1045695,9 33,9 L15,9 C13.8954305,9 13,8.1045695 13,7 L13,0 Z" id="Rectangle-Copy-59" fill="#EEEEEE"></path>
                            <path d="M13,30 L51,30 C52.1045695,30 53,30.8954305 53,32 L53,37 C53,38.1045695 52.1045695,39 51,39 L15,39 C13.8954305,39 13,38.1045695 13,37 L13,30 Z" id="Rectangle-Copy-61" fill="#EEEEEE"></path>
                            <path d="M27,15 L67,15 L67,22 C67,23.1045695 66.1045695,24 65,24 L27,24 C25.8954305,24 25,23.1045695 25,22 L25,17 C25,15.8954305 25.8954305,15 27,15 Z" id="Rectangle-Copy-60" fill="#EEEEEE"></path>
                        </g>
                    </g>
                    <path d="M132.698225,0 C139.877927,0 145.698225,5.82029825 145.698225,13 C145.698225,20.1797017 139.877927,26 132.698225,26 L110.698225,26 L106.698225,34 L102.698225,26 L96.6982249,26 C89.5185231,26 83.6982249,20.1797017 83.6982249,13 C83.6982249,5.82029825 89.5185231,0 96.6982249,0 L132.698225,0 Z" id="Path" fill="#1DB07B"></path>
                    <circle id="Oval" fill="#FFFFFF" cx="100.698225" cy="13" r="4"></circle>
                    <circle id="Oval-Copy" fill="#FFFFFF" cx="114.698225" cy="13" r="4"></circle>
                    <circle id="Oval-Copy-2" fill="#FFFFFF" cx="128.698225" cy="13" r="4"></circle>
                    <path d="M173.698049,82 C177.011855,82 179.698225,84.6847577 179.698225,88.0067025 L179.698225,103.993298 C179.698225,107.310708 177.011247,110 173.698049,110 L153.698401,110 C150.384595,110 147.698225,107.315242 147.698225,103.993298 L147.698225,88.0067025 C147.698225,84.6892923 150.385203,82 153.698401,82 L173.698049,82 Z M185.395628,87.9188309 C186.624416,86.8948407 187.629196,87.3162957 187.694816,88.8465449 L187.698225,89.008788 L187.698225,103.991212 C187.698225,105.59897 186.734899,106.107169 185.521965,105.182003 L185.395628,105.081169 L181.698225,102 L181.698225,91 L185.395628,87.9188309 Z" id="Shape" fill="#1DB07B"></path>
                    <g id="Group" stroke-width="1" fill="none" transform="translate(83.698225, 0.000000)"></g>
                </g>
            </g>
        </g>
    </g>
</svg>