<svg height="112" viewBox="0 0 104 112" width="104" xmlns="http://www.w3.org/2000/svg"><g fill="none" fill-rule="evenodd"><path d="m53.5 46c15.7401154 0 28.5 12.7598846 28.5 28.5 0 9.1428751-4.3052314 17.2802095-10.9990208 22.4953299l-.0009792 12.7699531c0 .569004-.2423644 1.111073-.6664103 1.490482-.8231708.736522-2.0875511.666278-2.8240723-.156893l-7.8448172-8.767366c-1.985147.437734-4.0479752.668494-6.1647002.668494h-25c-15.7401154 0-28.5-12.7598846-28.5-28.5s12.7598846-28.5 28.5-28.5z" fill="#ed5564"/><path d="m53.5 46c.897289 0 1.784893.0414663 2.6610003.1225873 11.2039755 4.9034963 21.8389997 17.4046293 21.8389997 27.8774127 0 3.3408075-.670288 6.633336-1.8953822 9.6619961-8.5634538-9.0306147-20.676396-14.6619961-34.1046178-14.6619961-15.7610401 0-29.710111 7.7579625-38.23687033 19.6635452-2.39395213-4.1712979-3.76312967-9.0075273-3.76312967-14.1635452 0-15.7401154 12.7598846-28.5 28.5-28.5z" fill="#f67587"/><path d="m83 0c8.2842712 0 15 6.71572875 15 15v10h2c2.209139 0 4 1.790861 4 4v29c0 2.209139-1.790861 4-4 4h-34c-2.209139 0-4-1.790861-4-4v-29c0-2.209139 1.790861-4 4-4h2v-10c0-8.28427125 6.7157288-15 15-15zm0 8c-3.7854517 0-6.8690987 3.0047834-6.995941 6.7593502l-.004059.2406498v10h14v-10c0-3.8659932-3.1340068-7-7-7z" fill="#ffc35d"/><path d="m98 15v10h2c2.209139 0 4 1.790861 4 4v29c0 2.209139-1.790861 4-4 4h-34c-2.209139 0-4-1.790861-4-4l.0004903-11.3334089c4.7297654-6.4665153 12.3741474-10.6665911 20.9995097-10.6665911 6.740217 0 12.8813974 2.5647804 17.500833 6.771633l-.000833-14.271633h-2.5c-1.8685634 0-3.3951264-1.4642776-3.4948211-3.3079648l-.0051789-.1920352v-10c0-5.78446543-2.999288-11.70504436-6.7501489-14.23213032 5.9562148 1.98657174 10.2501489 7.60790001 10.2501489 14.23213032z" fill="#ffb54e"/><g fill="#fff"><path d="m82 34c2.7614237 0 5 2.2385763 5 5 0 2.050113-1.2338472 3.8120455-2.9994676 4.5837237l-.0005324 5.4162763c0 1.1045695-.8954305 2-2 2s-2-.8954305-2-2l.0004611-5.4158423c-1.7661511-.7714513-3.0004611-2.5336602-3.0004611-4.5841577 0-2.7614237 2.2385763-5 5-5z"/><path d="m28 69c2.209139 0 4 1.790861 4 4s-1.790861 4-4 4-4-1.790861-4-4 1.790861-4 4-4zm14 0c2.209139 0 4 1.790861 4 4s-1.790861 4-4 4-4-1.790861-4-4 1.790861-4 4-4zm14 0c2.209139 0 4 1.790861 4 4s-1.790861 4-4 4-4-1.790861-4-4 1.790861-4 4-4z"/></g></g></svg>