<svg width="450" height="250" viewBox="0 0 450 250" fill="none" xmlns="http://www.w3.org/2000/svg">
<g clip-path="url(#clip0_1807_10117)">
<rect width="450" height="250" rx="24" fill="#393939"/>
<rect width="1280" height="42" transform="translate(-830 86)" fill="#202124"/>
<path d="M424 109L428 113L432 109" stroke="#3D4043" stroke-width="1.5" stroke-linecap="round" stroke-linejoin="round"/>
<rect width="1280" height="36" transform="translate(-830 128)" fill="#35363A"/>
<rect x="-722" y="132" width="1064" height="28" rx="14" fill="#202124"/>
<path fill-rule="evenodd" clip-rule="evenodd" d="M292.442 139.558C292.198 139.314 291.802 139.314 291.558 139.558L289.558 141.558C289.314 141.802 289.314 142.198 289.558 142.442C289.802 142.686 290.198 142.686 290.442 142.442L291.375 141.509V148C291.375 148.345 291.655 148.625 292 148.625C292.345 148.625 292.625 148.345 292.625 148V141.509L293.558 142.442C293.802 142.686 294.198 142.686 294.442 142.442C294.686 142.198 294.686 141.802 294.442 141.558L292.442 139.558ZM287.625 145.5C287.625 145.017 288.017 144.625 288.5 144.625H289.5C289.845 144.625 290.125 144.345 290.125 144C290.125 143.655 289.845 143.375 289.5 143.375H288.5C287.326 143.375 286.375 144.326 286.375 145.5V151.5C286.375 152.674 287.326 153.625 288.5 153.625H295.5C296.674 153.625 297.625 152.674 297.625 151.5V145.5C297.625 144.326 296.674 143.375 295.5 143.375H294.5C294.155 143.375 293.875 143.655 293.875 144C293.875 144.345 294.155 144.625 294.5 144.625H295.5C295.983 144.625 296.375 145.017 296.375 145.5V151.5C296.375 151.983 295.983 152.375 295.5 152.375H288.5C288.017 152.375 287.625 151.983 287.625 151.5V145.5Z" fill="white" fill-opacity="0.3"/>
<path fill-rule="evenodd" clip-rule="evenodd" d="M323.38 139.88C323.575 139.281 324.422 139.281 324.617 139.88L325.912 143.866H330.103C330.733 143.866 330.995 144.672 330.485 145.042L327.094 147.506L328.39 151.492C328.584 152.091 327.899 152.589 327.389 152.219L323.998 149.755L320.607 152.219C320.098 152.589 319.413 152.091 319.607 151.492L320.902 147.506L317.511 145.042C317.002 144.672 317.264 143.866 317.893 143.866H322.085L323.38 139.88ZM323.998 142.022L323.139 144.667C323.052 144.935 322.802 145.116 322.521 145.116H319.74L321.99 146.751C322.218 146.916 322.313 147.21 322.226 147.477L321.367 150.122L323.616 148.488C323.844 148.322 324.153 148.322 324.38 148.488L326.63 150.122L325.771 147.477C325.684 147.21 325.779 146.916 326.007 146.751L328.257 145.116H325.476C325.194 145.116 324.945 144.935 324.858 144.667L323.998 142.022Z" fill="white" fill-opacity="0.3"/>
<path fill-rule="evenodd" clip-rule="evenodd" d="M366.5 141H369C370.105 141 371 141.895 371 143V145.5H372.5C373.328 145.5 374 146.172 374 147C374 147.828 373.328 148.5 372.5 148.5H371V151C371 152.105 370.105 153 369 153H366.5V151.5C366.5 150.672 365.828 150 365 150C364.172 150 363.5 150.672 363.5 151.5V153H361C359.895 153 359 152.105 359 151V148.5H360.5C361.328 148.5 362 147.828 362 147C362 146.172 361.328 145.5 360.5 145.5H359V143C359 141.895 359.895 141 361 141H363.5V140C363.5 139.172 364.172 138.5 365 138.5C365.828 138.5 366.5 139.172 366.5 140V141Z" fill="#606367"/>
<path fill-rule="evenodd" clip-rule="evenodd" d="M405 139H391V153H405V139ZM400 141H393V151H400V141Z" fill="#606367"/>
<path fill-rule="evenodd" clip-rule="evenodd" d="M430 141C430 141.828 429.328 142.5 428.5 142.5C427.672 142.5 427 141.828 427 141C427 140.172 427.672 139.5 428.5 139.5C429.328 139.5 430 140.172 430 141ZM430 146.25C430 147.078 429.328 147.75 428.5 147.75C427.672 147.75 427 147.078 427 146.25C427 145.422 427.672 144.75 428.5 144.75C429.328 144.75 430 145.422 430 146.25ZM428.5 153C429.328 153 430 152.328 430 151.5C430 150.672 429.328 150 428.5 150C427.672 150 427 150.672 427 151.5C427 152.328 427.672 153 428.5 153Z" fill="#606367"/>
<rect width="1280" height="1" transform="translate(-830 164)" fill="#222222"/>
<circle cx="258.5" cy="144.5" r="33" stroke="#666666"/>
<rect width="16" height="16" transform="translate(251 137)" fill="#202124"/>
<rect x="260" y="146" width="7" height="7" rx="1" fill="#CA5040"/>
<path fill-rule="evenodd" clip-rule="evenodd" d="M262.969 149.5L261.734 148.265L262.265 147.734L263.5 148.969L264.734 147.734L265.265 148.265L264.03 149.5L265.265 150.734L264.734 151.265L263.5 150.03L262.265 151.265L261.734 150.734L262.969 149.5Z" fill="white"/>
<path fill-rule="evenodd" clip-rule="evenodd" d="M259 138.5C259.545 138.5 260.067 138.716 260.452 139.101C260.836 139.486 261.053 140.008 261.053 140.553V144.658C261.053 144.773 261.043 144.888 261.024 145H260.251C259.56 145 259.001 145.56 259.001 146.25V146.711H259C258.456 146.711 257.934 146.494 257.549 146.109C257.164 145.724 256.947 145.202 256.947 144.658V140.553C256.947 140.008 257.164 139.486 257.549 139.101C257.934 138.716 258.456 138.5 259 138.5ZM259 148.079H259.001V151.5H258.316V149.399C256.107 149.08 254.382 147.259 254.223 145H255.596C255.675 145.782 256.021 146.517 256.581 147.077C257.223 147.719 258.093 148.079 259 148.079Z" fill="#BDBDBE"/>
<g filter="url(#filter0_d_1807_10117)">
<path d="M268.923 170.03C269.098 170.451 268.93 172.045 268 172.414C267.07 172.784 265.882 172.414 265.882 172.414L263.726 168.102L260 171.828V155L271.414 166.414H267.162C267.37 166.814 268.7 169.495 268.923 170.03Z" fill="#EEEEEE"/>
<path fill-rule="evenodd" clip-rule="evenodd" d="M261 157.414V169.414L264 166.414L266.5 171.414C266.5 171.414 267.176 171.63 267.5 171.414C267.824 171.198 268.146 170.764 268 170.414C267.312 168.764 265.5 165.414 265.5 165.414H269L261 157.414Z" fill="#EEEEEE"/>
</g>
</g>
<defs>
<filter id="filter0_d_1807_10117" x="258.2" y="154.2" width="15.0141" height="21.1781" filterUnits="userSpaceOnUse" color-interpolation-filters="sRGB">
<feFlood flood-opacity="0" result="BackgroundImageFix"/>
<feColorMatrix in="SourceAlpha" type="matrix" values="0 0 0 0 0 0 0 0 0 0 0 0 0 0 0 0 0 0 127 0" result="hardAlpha"/>
<feOffset dy="1"/>
<feGaussianBlur stdDeviation="0.9"/>
<feColorMatrix type="matrix" values="0 0 0 0 0 0 0 0 0 0 0 0 0 0 0 0 0 0 0.65 0"/>
<feBlend mode="normal" in2="BackgroundImageFix" result="effect1_dropShadow_1807_10117"/>
<feBlend mode="normal" in="SourceGraphic" in2="effect1_dropShadow_1807_10117" result="shape"/>
</filter>
<clipPath id="clip0_1807_10117">
<rect width="450" height="250" rx="24" fill="white"/>
</clipPath>
</defs>
</svg>
