<?xml version="1.0" encoding="UTF-8"?>
<svg width="191px" height="249px" viewBox="0 0 191 249" version="1.1" xmlns="http://www.w3.org/2000/svg" xmlns:xlink="http://www.w3.org/1999/xlink">
    <title>Group 2</title>
    <g id="Page-1" stroke="none" stroke-width="1" fill="none" fill-rule="evenodd">
        <g id="Group-2" transform="translate(0.000000, 1.000000)">
            <rect id="Rectangle" stroke="#BF1515" stroke-width="2" stroke-linecap="round" stroke-linejoin="round" x="29" y="26" width="14" height="12" rx="1"></rect>
            <path d="M31,26 L31,23.1429 C31,23.1429 31,18 36,18 C41,18 41,23.1429 41,23.1429 L41,26" id="Path" stroke="#BF1515" stroke-width="2"></path>
            <path d="M12.035,15.0759 C12.5063,8.8808 17.6836,4 24,4 C29.9459,4 34.8824,8.325 35.8342,14 L37.8581,14 C36.8872,7.215 31.053,2 24,2 C16.9469,2 11.1128,7.215 10.1419,14 L10,14 C4.47715,14 3.55271368e-15,18.4772 3.55271368e-15,24 C3.55271368e-15,29.5228 4.47715,34 10,34 L23,34 L23,32 L10,32 C5.58172,32 2,28.4183 2,24 C2,19.5817 5.58172,16 10,16 L11.0379,16 L11.9647,16 L12.035,15.0759 Z" id="Path" fill="#BF1515"></path>
            <rect id="Rectangle" fill="#BF1515" fill-rule="nonzero" x="22" y="32" width="2" height="2" rx="1"></rect>
            <rect id="Rectangle" fill="#BF1515" fill-rule="nonzero" x="35.8447" y="13" width="2" height="2" rx="1"></rect>
            <rect id="Rectangle" fill="#BF1515" fill-rule="nonzero" x="35" y="30" width="2" height="4" rx="1"></rect>
            <path d="M95,38 C95,38 88.75,35.75 84,31 C79.25,26.25 79,18 79,18 L79,6 L95,0 L111,6 L111,18 C111,18 110.75,26.25 106,31 C101.25,35.75 95,38 95,38 Z" id="Path" stroke="#BF1515" stroke-width="2" stroke-linejoin="round"></path>
            <circle id="Oval" stroke="#BF1515" stroke-width="2" cx="95" cy="18" r="10"></circle>
            <line x1="95" y1="28" x2="95" y2="37" id="Path" stroke="#BF1515" stroke-width="2" stroke-linecap="square"></line>
            <line x1="95" y1="1" x2="95" y2="8" id="Path" stroke="#BF1515" stroke-width="2" stroke-linecap="square"></line>
            <polyline id="Path" stroke="#BF1515" stroke-width="2" stroke-linecap="round" stroke-linejoin="round" points="91 21 91 14 95 19 99 14 99 21"></polyline>
            <rect id="Rectangle" fill="#BF1515" fill-rule="nonzero" x="165" y="27" width="2" height="6"></rect>
            <rect id="Rectangle" fill="#BF1515" fill-rule="nonzero" x="158" y="32" width="16" height="2" rx="1"></rect>
            <path d="M182,6 C182.552,6 183,6.44772 183,7 L183,16 L185,16 L185,6 C185,4.89543 184.105,4 183,4 L149,4 C147.895,4 147,4.89543 147,6 L147,30 C147,31.1046 147.895,32 149,32 L177,32 L177,30 L150,30 C149.448,30 149,29.5523 149,29 L149,7 C149,6.44772 149.448,6 150,6 L182,6 Z" id="Path" fill="#BF1515"></path>
            <path d="M189,19 C189,18.4477 188.552,18 188,18 L180,18 C179.448,18 179,18.4477 179,19 L179,35 C179,35.5523 179.448,36 180,36 L188,36 C188.552,36 189,35.5523 189,35 L189,19 Z M179,16 C177.895,16 177,16.8954 177,18 L177,36 C177,37.1046 177.895,38 179,38 L189,38 C190.105,38 191,37.1046 191,36 L191,18 C191,16.8954 190.105,16 189,16 L179,16 Z" id="Shape" fill="#BF1515"></path>
            <rect id="Rectangle" stroke="#BF1515" stroke-width="2" stroke-linecap="round" stroke-linejoin="round" x="10" y="85" width="22" height="20" rx="1"></rect>
            <path d="M13,85 L13,80 C13,80 13,71 21,71 C29,71 29,80 29,80 L29,85" id="Path" stroke="#BF1515" stroke-width="2"></path>
            <circle id="Oval" stroke="#BF1515" stroke-width="2" cx="21" cy="92" r="2"></circle>
            <line x1="21" y1="99" x2="21" y2="95" id="Path" stroke="#BF1515" stroke-width="2" stroke-linecap="round" stroke-linejoin="round"></line>
            <circle id="Oval" stroke="#BF1515" stroke-width="2" cx="4" cy="103" r="2"></circle>
            <circle id="Oval" stroke="#BF1515" stroke-width="2" cx="4" cy="69" r="2"></circle>
            <circle id="Oval" stroke="#BF1515" stroke-width="2" cx="38" cy="103" r="2"></circle>
            <circle id="Oval" stroke="#BF1515" stroke-width="2" cx="38" cy="69" r="2"></circle>
            <polyline id="Path" stroke="#BF1515" stroke-width="2" stroke-linecap="round" stroke-linejoin="round" points="4 72 4 80 13 80"></polyline>
            <polyline id="Path" stroke="#BF1515" stroke-width="2" stroke-linecap="round" stroke-linejoin="round" points="4 100 4 94 10 94"></polyline>
            <polyline id="Path" stroke="#BF1515" stroke-width="2" stroke-linecap="round" stroke-linejoin="round" points="38 100 38 90 32 90"></polyline>
            <polyline id="Path" stroke="#BF1515" stroke-width="2" stroke-linecap="round" stroke-linejoin="round" points="38 72 38 76 29 76"></polyline>
            <path d="M80.307,78 L109.693,78 C111.437,78 112.813,79.4822 112.685,81.2216 L111.277,100.2216 C111.161,101.7882 109.856,103 108.285,103 L81.715,103 C80.144,103 78.839,101.7882 78.723,100.2216 L77.315,81.2216 C77.187,79.4822 78.563,78 80.307,78 Z" id="Path" stroke="#BF1515" stroke-width="2"></path>
            <path d="M98,78 C98,78 96.5,78 95,77 C94.594,76.7295 94.225,76.3858 93.902,76.0283 C92.887,74.9036 91.543,74 90.028,74 L82,74 C79.791,74 78,75.7909 78,78 L78,79" id="Path" stroke="#BF1515" stroke-width="2"></path>
            <path d="M87,96 L87,86 C87,85.4477 86.552,85 86,85 C85.448,85 85,85.4477 85,86 L85,96 C85,96.5523 85.448,97 86,97 C86.552,97 87,96.5523 87,96 Z" id="Path" fill="#BF1515" fill-rule="nonzero"></path>
            <path d="M104.293,91.7071 L100.293,95.7071 C99.902,96.0976 99.269,96.0976 98.879,95.7071 C98.518,95.3466 98.49,94.7794 98.795,94.3871 L98.879,94.2929 L101.172,92.0000049 L92,92.0000049 C91.448,92.0000049 91,91.5523 91,91.0000049 C91,90.4477 91.448,90.0000049 92,90.0000049 L101.172,90.0000049 L98.879,87.7071 C98.518,87.3466 98.49,86.7794 98.795,86.3871 L98.879,86.2929 C99.239,85.9324 99.806,85.9047 100.199,86.2097 L100.293,86.2929 L104.293,90.2929 C104.683,90.6834 104.683,91.3166 104.293,91.7071 Z" id="Path" fill="#BF1515" fill-rule="nonzero"></path>
            <path d="M155.449,91.999 C155.449,91.7338 155.554,91.4794 155.742,91.2919 C155.929,91.1044 156.184,90.999 156.449,90.999 L164.449,90.999 C164.714,90.999 164.968,91.1044 165.156,91.2919 C165.344,91.4794 165.449,91.7338 165.449,91.999 C165.449,92.2642 165.344,92.5186 165.156,92.7061 C164.968,92.8936 164.714,92.999 164.449,92.999 L156.449,92.999 C156.184,92.999 155.929,92.8936 155.742,92.7061 C155.554,92.5186 155.449,92.2642 155.449,91.999 Z M155.449,95.998 C155.449,95.7328 155.554,95.4784 155.742,95.2909 C155.929,95.1034 156.184,94.998 156.449,94.998 L162.449,94.998 C162.714,94.998 162.968,95.1034 163.156,95.2909 C163.344,95.4784 163.449,95.7328 163.449,95.998 C163.449,96.2632 163.344,96.5176 163.156,96.7051 C162.968,96.8926 162.714,96.998 162.449,96.998 L156.449,96.998 C156.184,96.998 155.929,96.8926 155.742,96.7051 C155.554,96.5176 155.449,96.2632 155.449,95.998 Z M160.449,81 C153.269,81 147.449,86.82 147.449,93.998 C147.449,96.073 147.936,98.036 148.802,99.778 L147.106,104.865 C146.595,106.397 148.018,107.872 149.567,107.415 L155.021,105.812 C156.723,106.5948 158.575,106.9991 160.449,106.997 C167.629,106.997 173.449,101.177 173.449,93.998 C173.449,86.82 167.629,81 160.449,81 Z M149.449,93.998 C149.449,87.924 154.374,83 160.449,83 C166.525,83 171.449,87.924 171.449,93.998 C171.449,100.073 166.525,104.997 160.449,104.997 C158.688,104.997 157.026,104.584 155.552,103.85 L155.201,103.675 L149.003,105.497 L150.97,99.598 L150.764,99.218 C149.898,97.6146 149.446,95.8203 149.449,93.998 Z" id="Shape" fill="#BF1515" fill-rule="nonzero"></path>
            <polyline id="Path" stroke="#BF1515" stroke-width="2" stroke-linecap="round" stroke-linejoin="round" points="181 84 188 78.5 188 101.5 181 95.5"></polyline>
            <path d="M155,76 L176,76 C178.209,76 180,77.7909 180,80 L180,100 C180,102.2091 178.209,104 176,104 L173,104 L173,106 L176,106 C179.314,106 182,103.3137 182,100 L182,80 C182,76.6863 179.314,74 176,74 L155,74 C151.686,74 149,76.6863 149,80 L149,82 L151,82 L151,80 C151,77.7909 152.791,76 155,76 Z" id="Path" fill="#BF1515"></path>
            <rect id="Rectangle" fill="#BF1515" fill-rule="nonzero" x="149" y="81" width="2" height="2" rx="1"></rect>
            <rect id="Rectangle" fill="#BF1515" fill-rule="nonzero" x="172" y="104" width="2" height="2" rx="1"></rect>
            <path d="M8.4323,242.25 C4.48784,238.769 2,233.675 2,228 C2,217.507 10.5066,209 21,209 C31.4934,209 40,217.507 40,228 C40,233.675 37.5122,238.769 33.5677,242.25" id="Path" stroke="#BF1515" stroke-width="2" stroke-linecap="round"></path>
            <rect id="Rectangle" fill="#BF1515" fill-rule="nonzero" x="20" y="209" width="2" height="6" rx="1"></rect>
            <rect id="Rectangle" fill="#BF1515" fill-rule="nonzero" transform="translate(9.828427, 216.828214) rotate(-45.000000) translate(-9.828427, -216.828214) " x="8.82842712" y="213.828214" width="2" height="6" rx="1"></rect>
            <rect id="Rectangle" fill="#BF1515" fill-rule="nonzero" x="2" y="227" width="6" height="2" rx="1"></rect>
            <rect id="Rectangle" fill="#BF1515" fill-rule="nonzero" x="34" y="227" width="6" height="2" rx="1"></rect>
            <path d="M28.6929,221 C28.6929,221 25.4629,230.102 23.9289,231.69 C23.5669,232.079 23.1309,232.392 22.6464,232.611 C22.162,232.83 21.6388,232.95 21.1074,232.964 C20.576,232.979 20.0471,232.887 19.5516,232.694 C19.0561,232.502 18.6039,232.213 18.2215,231.843 C17.8391,231.474 17.5341,231.032 17.3244,230.544 C17.1147,230.055 17.0045,229.53 17.0001,228.998 C16.9958,228.467 17.0975,227.94 17.2992,227.448 C17.5009,226.956 17.7986,226.509 18.1749,226.134 C19.7089,224.544 28.6929,221 28.6929,221 Z" id="Path" stroke="#BF1515" stroke-width="2" stroke-linejoin="round"></path>
            <path d="M153.773,242.283 L150.147,216 L181.853,216 L178.227,242.283 C178.121,243.055 177.737,243.682 177.164,244.021 C175.279,245.14 171.339,247 166,247 C160.661,247 156.721,245.14 154.836,244.021 C154.263,243.682 153.879,243.055 153.773,242.283 Z" id="Path" stroke="#BF1515" stroke-width="2" stroke-linejoin="round"></path>
            <path d="M182,215 C182,215.196 181.859,215.593 181.093,216.125 C180.357,216.637 179.226,217.139 177.739,217.576 C174.777,218.447 170.627,219 166,219 C161.373,219 157.223,218.447 154.261,217.576 C152.774,217.139 151.643,216.637 150.907,216.125 C150.141,215.593 150,215.196 150,215 C150,214.804 150.141,214.407 150.907,213.875 C151.643,213.363 152.774,212.861 154.261,212.424 C157.223,211.553 161.373,211 166,211 C170.627,211 174.777,211.553 177.739,212.424 C179.226,212.861 180.357,213.363 181.093,213.875 C181.859,214.407 182,214.804 182,215 Z" id="Path" stroke="#BF1515" stroke-width="2" fill="#FFFFFF" fill-rule="nonzero" stroke-linejoin="round"></path>
            <path d="M182,215 C182,215.196 181.859,215.593 181.093,216.125 C180.357,216.637 179.226,217.139 177.739,217.576 C174.777,218.447 170.627,219 166,219 C161.373,219 157.223,218.447 154.261,217.576 C152.774,217.139 151.643,216.637 150.907,216.125 C150.141,215.593 150,215.196 150,215 C150,214.804 150.141,214.407 150.907,213.875 C151.643,213.363 152.774,212.861 154.261,212.424 C157.223,211.553 161.373,211 166,211 C170.627,211 174.777,211.553 177.739,212.424 C179.226,212.861 180.357,213.363 181.093,213.875 C181.859,214.407 182,214.804 182,215 Z" id="Path" stroke="#BF1515" stroke-width="2" fill="#FFFFFF" fill-rule="nonzero" stroke-linejoin="round"></path>
            <circle id="Oval" stroke="#BF1515" stroke-width="2" stroke-linejoin="round" cx="171" cy="238" r="3"></circle>
            <circle id="Oval" stroke="#BF1515" stroke-width="2" stroke-linejoin="round" cx="166" cy="223" r="1"></circle>
            <rect id="Rectangle" stroke="#BF1515" stroke-width="2" stroke-linejoin="round" x="158" y="228" width="6" height="6" rx="1"></rect>
            <path d="M167,223 C167,223 180.87,227.065 185,225 C187,224 186,221 182,219" id="Path" stroke="#BF1515" stroke-width="2"></path>
            <path d="M110.203,153 C108.104,146.612 102.091,142 95,142 C87.726,142 81.586,146.854 79.642,153.5" id="Path" stroke="#BF1515" stroke-width="2" stroke-linecap="round"></path>
            <polyline id="Path" stroke="#BF1515" stroke-width="2" stroke-linecap="round" stroke-linejoin="round" points="104.5 152 110.5 154.5 112.5 148.5"></polyline>
            <path d="M79.297,162.5 C81.396,168.888 87.409,173.5 94.5,173.5 C101.774,173.5 107.914,168.646 109.858,162" id="Path" stroke="#BF1515" stroke-width="2" stroke-linecap="round"></path>
            <polyline id="Path" stroke="#BF1515" stroke-width="2" stroke-linecap="round" stroke-linejoin="round" points="85 163.5 79 161 77 167"></polyline>
            <path d="M175,142 C177.209,142 179,143.791 179,146 L179,172 C179,174.209 177.209,176 175,176 L161,176 C158.791,176 157,174.209 157,172 L157,146 C157,143.791 158.791,142 161,142 L175,142 Z M175,144 L161,144 C159.946,144 159.082,144.816 159.005,145.851 L159,146 L159,172 C159,173.054 159.816,173.918 160.851,173.995 L161,174 L175,174 C176.054,174 176.918,173.184 176.995,172.149 L177,172 L177,146 C177,144.946 176.184,144.082 175.149,144.005 L175,144 Z M168,171 C168.828,171 169.5,170.328 169.5,169.5 C169.5,168.672 168.828,168 168,168 C167.172,168 166.5,168.672 166.5,169.5 C166.5,170.328 167.172,171 168,171 Z" id="Shape" fill="#BF1515"></path>
            <rect id="Rectangle" stroke="#BF1515" stroke-width="2" x="4" y="143" width="34" height="30" rx="3"></rect>
            <circle id="Oval" stroke="#BF1515" stroke-width="2" cx="21" cy="158" r="7"></circle>
            <circle id="Oval" fill="#BF1515" fill-rule="nonzero" cx="32" cy="149" r="2"></circle>
            <g id="Group" transform="translate(77.000000, 214.000000)" fill="#BF1515" fill-rule="nonzero">
                <path d="M8.4137,28 C3.74572,28 0,23.8564 0,18.8005 C0,14.3054 2.93593,10.5147 6.8711,9.7287 L7.071,9.692 L7.0736,9.5609 C7.1797,6.6223 9.336,4.2303 12.0784,4.1125 L12.2905,4.108 C12.6602,4.108 13.0254,4.1495 13.38,4.23 L13.552,4.274 L13.6095,4.1881 C15.3388,1.6752 18.031,0.107 20.9841,0.0053 L21.2905,0 L21.557,0.004 C26.4266,0.1485 30.3629,4.2413 30.8742,9.4216 L30.897,9.689 L30.9669,9.7006 C34.9088,10.4168 37.8792,14.1075 37.9964,18.5289 L38,18.8005 C38,23.7662 34.3869,27.8517 29.8354,27.9961 L29.5863,28 L8.4137,28 Z M21.2905,2 L21.0188,2.0054 C18.5812,2.102 16.3527,3.4941 14.9943,5.7277 L14.847,5.9794 L14.3888,6.7928 L13.5458,6.3914 C13.1576,6.2065 12.7296,6.108 12.2905,6.108 C10.531,6.108 9.0695,7.731 9.0695,9.788 L9.074,10.1299 L9.084,10.2787 L9.1014,10.3975 L9.3185,11.5381 L8.1584,11.5838 C4.75162,11.718 2,14.8876 2,18.8005 C2,22.7112 4.77835,25.8661 8.1948,25.9958 L8.4137,26 L18,26 L18,15.414 L13.7071,19.7071 C13.3466,20.0676 12.7794,20.0953 12.3871,19.7903 L12.2929,19.7071 C11.9324,19.3466 11.9047,18.7794 12.2097,18.3871 L12.2929,18.2929 L18.2929,12.2929 C18.6534,11.9324 19.2206,11.9047 19.6129,12.2097 L19.7071,12.2929 L25.7071,18.2929 C26.0976,18.6834 26.0976,19.3166 25.7071,19.7071 C25.3466,20.0676 24.7794,20.0953 24.3871,19.7903 L24.2929,19.7071 L20,15.414 L20,26 L29.5863,26 C33.1022,26 36,22.7944 36,18.8005 C36,15.0047 33.3941,11.9001 30.0985,11.599 L29.8778,11.5832 L28.9305,11.5332 L28.9305,10.568 C28.9305,5.9096 25.6118,2.1419 21.5228,2.0039 L21.2905,2 Z" id="Shape"></path>
            </g>
        </g>
    </g>
</svg>