<svg xmlns="http://www.w3.org/2000/svg" xmlns:xlink="http://www.w3.org/1999/xlink" width="4000" height="500"><style><![CDATA[.B{fill:#fff}.C{fill-rule:nonzero}.D{fill:#00c0a6}.E{fill-opacity:.2}.F{fill:#000}.G{mask:url(#BJ)}.H{fill:#f4d1c6}.I{fill:#f1c9bd}.J{fill:#e6e9ed}.K{mask:url(#BX)}.L{fill:#53565b}.M{fill:#ad6e53}.N{fill:#46b4e5}.O{fill:#ed5564}.P{fill:#fafafa}.Q{mask:url(#BN)}.R{fill:#ffa837}.S{fill:#00b69a}.T{mask:url(#Ar)}.U{mask:url(#As)}.V{fill-opacity:.9}.W{fill:#54bbff}.X{fill:#e1e4e9}.Y{fill:#732400}.Z{fill:#661d00}.a{fill:#e0895a}.b{fill:#da7c4e}.c{fill:#00a889}.d{mask:url(#BG)}.e{fill:#00b194}.f{mask:url(#BM)}.g{mask:url(#Be)}.h{fill:#ffb400}.i{fill:#aac8d6}.j{fill:#072545}.k{fill:#398d03}.l{fill:#3c3d3f}.m{stroke-width:2.273}]]></style><defs><path id="A" d="M28.182 72.631h16.364V41.762H28.182z"/><path d="M58.182 25.42c0 14.123-13.505 26.329-21.818 26.329-8.276 0-21.818-12.206-21.818-26.329v-1.816L20 15.433s8.303 1.816 16.364 1.816c8.095 0 15.455-1.816 15.455-1.816l6.364 8.171v1.816z" id="B"/><path d="M72.727 87.157H0V77.17c0-5.44 3.151-7.969 8.182-9.987 1.655-.673 6.201-3.397 13.636-8.171L30 67.183l6.364-1.816 6.364 1.816 8.182-8.171c7.434 4.774 11.979 7.498 13.636 8.171 5.06 2.019 8.182 4.547 8.182 9.987v9.987z" id="C"/><path id="D" d="M42.727 67.183l8.182-8.171-2.727-1.816-11.818 4.539v3.632z"/><path d="M58.182 23.604l-6.364-7.263s-7.475 3.632-15.455 3.632C28.417 19.973 20 16.341 20 16.341l-5.455 7.263C11.441-5.312 51.57.472 51.57.472c-5.953 2.109-3.389 7.698-3.389 7.698s13.128-2.006 10 15.434z" id="E"/><path id="F" d="M258.182 128.492l-5.103 2.617-3.596-4.464-5.728.318-1.468-5.538-5.362-2.036.915-5.656-4.069-4.038 3.139-4.795-2.072-5.342 4.821-3.105.282-5.722 5.669-.879 2.588-5.113 5.537 1.5 4.447-3.619 4.447 3.619 5.537-1.5 2.588 5.113 5.669.879.282 5.722 4.821 3.105-2.072 5.342 3.139 4.795-4.069 4.038.915 5.656-5.362 2.036-1.468 5.538-5.728-.318-3.596 4.464z"/><path d="M30.002 60.829s-9.098 0-17.5 5.901-6.156 8.64-7.955 17.704h63.636c-1.801-9.064.909-12.711-8.182-18.158s-17.273-5.447-17.273-5.447H30.002z" id="G"/><path id="H" d="M29.092 73.539h14.545V42.671H29.092z"/><path d="M49.092 61.737c4.191.708 12.192 2.323 16.364 5.447 7.273 5.447 7.273 14.235 7.273 25.421H.002c0-11.402-.318-20.161 8.182-25.421 3.012-1.864 5.411-3.292 15.455-5.447l12.727 12.711 12.727-12.711z" id="I"/><path d="M57.274 28.145c0 13.571-12.596 26.329-20.909 26.329-8.276 0-20.909-12.758-20.909-26.329v-2.724l5.455-8.171s7.394-6.355 15.455-6.355c8.095 0 16.364 6.355 16.364 6.355l4.545 8.171v2.724z" id="J"/><path d="M36.365 0c-20 0-21.818 19.611-21.818 23.605v36.316l14.545-2.724V51.95s-8.182-4.453-8.182-17.45v-8.171h11.818l3.636-9.987v9.987h8.182l1.818-8.171 1.818 8.171h4.545v7.263c0 13.459-9.091 18.358-9.091 18.358v5.247l14.545 2.724V23.605C58.183 19.611 56.365 0 36.365 0z" id="K"/><path d="M0 51.613V30.352a3.03 3.03 0 0 1 3.03-3.03A3.03 3.03 0 0 1 0 24.291V3.03A3.03 3.03 0 0 1 3.03 0H100a3.03 3.03 0 0 1 3.03 3.03v21.261a3.03 3.03 0 0 1-3.03 3.03 3.03 3.03 0 0 1 3.03 3.03v21.261a3.03 3.03 0 0 1-3.03 3.03 3.03 3.03 0 0 1 3.03 3.03v21.261a3.03 3.03 0 0 1-3.03 3.03H3.03A3.03 3.03 0 0 1 0 78.934V57.673a3.03 3.03 0 0 1 3.03-3.03A3.03 3.03 0 0 1 0 51.613z" id="L"/><path id="M" d="M72.727 101.696H100v36.429H72.727z"/><rect id="N" x="46.97" y="130.536" width="80.303" height="18.214" rx="9.091"/><path d="M153.835 0H18.892C8.528 0 0 8.222 0 18.214v72.857c0 9.992 8.528 18.214 18.892 18.214h134.943c10.364 0 18.892-8.222 18.892-18.214V18.214C172.727 8.222 164.199 0 153.835 0z" id="O"/><path d="M0 83.482h172.727v7.622c0 10.042-8.14 18.182-18.182 18.182H18.182C8.14 109.286 0 101.145 0 91.104v-7.622h0z" id="P"/><rect id="Q" x="79.119" y="1.923" width="11.538" height="23.077" rx="5.769"/><rect id="R" x="65.658" width="38.462" height="11.538" rx="5.769"/><circle id="S" cx="84.889" cy="103.846" r="84.615"/><circle id="T" cx="84.889" cy="103.846" r="65.385"/><rect id="U" x="67.308" width="11.538" height="23.077" rx="5.769"/><rect id="V" x="67.308" y="123.077" width="11.538" height="23.077" rx="5.769"/><path d="M73.077 44.231A5.77 5.77 0 0 1 78.846 50v21.154h9.616a5.77 5.77 0 0 1 5.769 5.769 5.77 5.77 0 0 1-5.769 5.769H73.077h0a5.77 5.77 0 0 1-5.769-5.769V50a5.77 5.77 0 0 1 5.769-5.769z" id="W"/><path d="M56.818 9.125V4.563C56.818 1.271 55.737 0 52.273 0H20.455c-3.464 0-4.545 1.271-4.545 4.563v4.563h-4.545c-3.683 0-6.818.406-6.818 4.563v63.305c0 3.064 1.989 5.133 5.227 5.133h92.348c3.238 0 6.97-3.78 6.97-6.844V13.688c0-3.395-3.135-4.562-6.818-4.562H56.818z" id="X"/><path d="M17.235 59.313c-1.609 0-3.598-1.968-3.598-3.422V25.094c0-3.744 3.052-6.844 7.197-6.844h71.97c4.432 0 7.197 2.84 7.197 6.844v30.797c0 1.713-1.704 3.422-3.598 3.422H17.235z" id="Y"/><path d="M15.772 82.125c-5.762 0-9.957-4.928-10.48-10.712L.052 10.712C-.541 4.138 3.98 0 10.532 0h92.572c6.551 0 11.073 4.138 10.48 10.712l-5.24 60.701c-.523 5.784-4.717 10.712-10.48 10.712H15.772z" id="Z"/><path d="M63.636 26.931c0 7.17-4.157 14.188-9.545 19.01 0 2.112 1.591 5.281 4.773 9.505 1.591 1.584 0 1.584-1.591 1.584-6.364 0-11.136-1.584-14.318-4.753-3.594 1.201-7.039 1.584-11.136 1.584C14.31 53.863 0 41.79 0 26.931S14.31 0 31.818 0s31.818 12.072 31.818 26.931z" id="a"/><path d="M198.884 22.337c-16.828 0-32.754 6.442-44.844 18.14-11.224 10.859-18.028 25.163-19.394 40.587l-9.321-9.321a2.5 2.5 0 0 0-3.535 3.535l13.326 13.326c.488.488 1.128.732 1.768.732s1.28-.244 1.768-.732l13.327-13.326a2.5 2.5 0 0 0-3.535-3.535l-8.705 8.705c3.176-30.105 28.371-53.111 59.146-53.111 32.808 0 59.499 26.691 59.499 59.5s-26.691 59.5-59.499 59.5a2.5 2.5 0 1 0 0 5c35.564 0 64.499-28.935 64.499-64.5s-28.936-64.5-64.5-64.5z" id="b"/><circle id="c" cx="40" cy="40" r="40"/><path d="M47.147 7.159V2.864C47.147 1.432 45.718 0 44.29 0H17.147c-1.429 0-2.857 1.432-2.857 2.864v4.295h-4.286c-4.286 0-5.714 1.432-5.714 4.295v54.409c0 2.864 1.429 4.295 4.286 4.295h78.571c2.857 0 5.714-2.864 5.714-5.727V11.455c0-2.864-2.857-4.295-5.714-4.295h-40z" id="d"/><path d="M14.29 50.114c-1.365 0-2.857-1.632-2.857-2.864V21.477c0-2.864 2.857-5.727 5.714-5.727h61.429c4.286 0 5.714 1.432 5.714 5.727V47.25c0 1.451-1.25 2.864-2.857 2.864H14.29z" id="e"/><path d="M12.861 70.159c-4.887 0-7.926-4.514-8.369-9.412L.048 9.344C-.455 3.777 3.019 0 8.575 0h78.571c5.555 0 9.688 3.777 9.185 9.344l-4.444 51.403c-.443 4.898-4.14 9.412-9.027 9.412h-70z" id="f"/><path d="M67.46 28.508c0 7.59-4.407 15.019-10.119 20.123 0 2.236 1.687 5.59 5.06 10.062 1.687 1.677 0 1.677-1.687 1.677-6.746 0-11.806-1.677-15.179-5.031-3.81 1.271-7.462 1.677-11.806 1.677C15.17 57.015 0 44.236 0 28.508S15.17 0 33.73 0s33.73 12.778 33.73 28.508z" id="g"/><path id="h" d="M31.429 88.773h17.143V51.546H31.429z"/><path d="M64.286 30.068c0 17.182-14.286 31.5-24.286 31.5s-24.286-14.318-24.286-31.5v-1.432l7.143-10.023S31.028 21.478 40 21.478c9.011 0 17.143-2.864 17.143-2.864l7.143 10.023v1.432z" id="i"/><path d="M80 103.091H0V91.637c0-6.365 3.355-9.708 8.889-12.068 1.821-.788 6.953-3.924 15.397-9.409l8.571 10.023L40 77.318l7.143 2.864 8.571-10.023c8.442 5.485 13.574 8.621 15.397 9.409C76.677 81.931 80 85.272 80 91.637v11.455z" id="j"/><path id="k" d="M47.143 80.182l8.571-10.023-2.857-2.864L40 73.023v4.295z"/><path d="M64.286 28.637l-7.143-10.023S48.778 22.909 40 22.909c-8.741 0-17.143-4.295-17.143-4.295l-7.143 10.023C13.179-9.421 57.143 1.432 57.143 1.432c-6.548 2.495-4.286 8.592-4.286 8.592s14.869-2.015 11.429 18.614z" id="l"/><path d="M258.333 0c30.478 0 55.265 24.393 55.938 54.74 7.835 4.531 13.109 13.008 13.109 22.718l-.008.636c3.538-1.333 7.372-2.061 11.376-2.061 14.565 0 26.882 9.638 30.951 22.892.472-.043.946-.074 1.428-.074 8.712 0 15.777 7.073 15.777 15.804 0 6.121-3.474 11.423-8.552 14.045h0H.411C.143 127.377 0 126.008 0 124.604c0-9.153 5.99-16.889 14.253-19.522-.148-1.271-.234-2.568-.234-3.885 0-18.422 14.907-33.357 33.296-33.357a33.22 33.22 0 0 1 9.836 1.48c.526-30.476 25.371-55.02 55.943-55.02 30.223 0 54.849 23.987 55.916 53.979a31.33 31.33 0 0 1 17.217-5.121c6.496 0 12.533 1.967 17.551 5.339-.916-4.016-1.398-8.196-1.398-12.489C202.381 25.076 227.432 0 258.333 0zM217.77 94.587l.002.173a31.71 31.71 0 0 1-.04 1.497c.709.105 1.409.235 2.101.39a53.85 53.85 0 0 1-2.063-2.06z" id="m"/><path d="M11.905 0h94.048c6.575 0 11.905 5.335 11.905 11.917V71.5c0 6.581-5.33 11.917-11.905 11.917H11.905C5.33 83.417 0 78.081 0 71.5V11.917C0 5.335 5.33 0 11.905 0z" id="n"/><path d="M29.968 25.046c3.8-3.762 10.006-3.84 13.906-.235l.246.235 59.452 58.37H11.905C5.33 83.417 0 78.081 0 71.5V54.817l29.968-29.77z" id="o"/><path d="M74.377 47.618c3.813-3.804 10.042-3.881 13.954-.233l.241.233 29.091 26.034c-1.012 5.554-5.87 9.764-11.711 9.764H34.524l39.853-35.799z" id="p"/><path d="M9.524 0h71.429a9.53 9.53 0 0 1 9.524 9.533v107.25a9.53 9.53 0 0 1-9.524 9.533H9.524A9.53 9.53 0 0 1 0 116.783V9.533A9.53 9.53 0 0 1 9.524 0z" id="q"/><path d="M7.071 5.108l9.107-.001V2.383C16.178 1.067 17.244 0 18.559 0h14.386c1.315 0 2.381 1.067 2.381 2.383v2.724h72.867c1.255 0 2.284.972 2.374 2.205l.006.245h0l-2.234 79.501c-.036 1.29-1.091 2.316-2.38 2.316H9.371c-1.289 0-2.344-1.027-2.38-2.316L4.757 7.557c-.036-1.316 1-2.412 2.314-2.449z" id="r"/><path d="M9.451 10.725h96.429c1.315 0 2.381 1.067 2.381 2.383v20.258c0 1.316-1.066 2.383-2.381 2.383H9.451c-1.315 0-2.381-1.067-2.381-2.383V13.108c0-1.316 1.066-2.383 2.381-2.383z" id="s"/><path d="M7.07 14.3h101.19c1.315 0 2.381 1.067 2.381 2.383v20.258c0 1.316-1.066 2.383-2.381 2.383H7.07c-1.315 0-2.381-1.067-2.381-2.383V16.683c0-1.316 1.066-2.383 2.381-2.383z" id="t"/><path d="M2.309 19.068l109.45-.001c1.255 0 2.284.972 2.374 2.205l.006.214h0l-2.411 79.878c-.039 1.288-1.093 2.311-2.38 2.311H4.791c-1.287 0-2.341-1.024-2.38-2.311L0 21.522c-.039-1.316.995-2.414 2.309-2.454z" id="u"/><path d="M47.238 18.683L31.626 2.793c-3.659-3.725-9.592-3.725-13.251 0L2.763 18.683c-5.895 5.974-1.736 16.271 6.619 16.271h6.245v31.779c0 5.263 4.196 9.534 9.367 9.534s9.367-4.271 9.367-9.534V34.954h6.245c8.368 0 12.527-10.296 6.632-16.271z" id="v"/><path d="M4.297 0h154.125a4.3 4.3 0 0 1 4.297 4.297v103.13h0H0V4.297A4.3 4.3 0 0 1 4.297 0z" id="w"/><path id="x" d="M0 5.371h162.719v95.61H0z"/><path d="M87.828 1.611c.296 0 .536.24.536.537s-.24.537-.536.537h-9.704c-.296 0-.536-.24-.536-.537s.24-.537.536-.537h9.704zm-11.857 0a.54.54 0 0 1 .539.537.54.54 0 0 1-.539.537.54.54 0 0 1-.539-.537.54.54 0 0 1 .539-.537z" id="y"/><path id="z" d="M24.657 63.841h14.317V36.708H24.657z"/><path d="M50.904 22.344c0 12.414-11.816 23.143-19.089 23.143-7.241 0-19.089-10.729-19.089-23.143v-1.596l4.772-7.182s7.265 1.596 14.317 1.596c7.083 0 13.521-1.596 13.521-1.596l5.568 7.182v1.596z" id="AA"/><path d="M63.63 76.61H0v-8.778c0-4.782 2.756-7.005 7.158-8.778 1.448-.592 5.425-2.986 11.931-7.182l7.158 7.182 5.568-1.596 5.568 1.596 7.158-7.182c6.504 4.196 10.481 6.59 11.931 7.182 4.427 1.775 7.158 3.997 7.158 8.778v8.778z" id="AB"/><path id="AC" d="M37.383 59.053l7.158-7.182-2.386-1.596-10.34 3.99v3.192z"/><path d="M50.904 20.748l-5.568-6.384s-6.54 3.192-13.521 3.192c-6.952 0-14.317-3.192-14.317-3.192l-4.772 6.384C10.01-4.669 45.12.415 45.12.415c-5.208 1.854-2.965 6.766-2.965 6.766s11.486-1.764 8.749 13.567z" id="AD"/><circle id="AE" cx="42.045" cy="42.045" r="42.045"/><path id="AF" d="M21.296 61.325h12.286V37.302H21.296z"/><path d="M44.23 23.353c0 11.108-10.341 20.149-17.2 20.149S10.648 34.46 10.648 23.353v-.775l4.914-6.2s5.313 1.55 11.467 1.55c6.181 0 12.286-1.55 12.286-1.55l4.914 6.2v.775z" id="AG"/><path d="M3.564 51.251h46.93c1.968 0 3.564 1.596 3.564 3.564v14.26h0H0v-14.26c0-1.968 1.596-3.564 3.564-3.564z" id="AH"/><path d="M3.564 51.251h14.455 0c2.184 2.067 5.324 3.1 9.419 3.1s7.235-1.033 9.419-3.1h13.636c1.968 0 3.564 1.596 3.564 3.564v14.26h0H0v-14.26c0-1.968 1.596-3.564 3.564-3.564z" id="AI"/><circle id="AJ" cx="27.273" cy="27.273" r="27.273"/><path id="AK" d="M13.43 40.355h7.748V24.546H13.43z"/><path d="M27.893 15.367c0 7.309-6.521 13.259-10.847 13.259S6.715 22.677 6.715 15.367v-.51l3.099-4.08a27.83 27.83 0 0 0 7.231 1.02c3.898 0 7.748-1.02 7.748-1.02l3.099 4.08v.51z" id="AL"/><path d="M2.25 33.726h29.591a2.25 2.25 0 0 1 2.25 2.25v9.479h0H0v-9.479a2.25 2.25 0 0 1 2.25-2.25z" id="AM"/><path d="M2.25 33.726h9.114 0c1.377 1.36 3.357 2.04 5.94 2.04s4.563-.68 5.94-2.04h8.597a2.25 2.25 0 0 1 2.25 2.25v9.479h0H0v-9.479a2.25 2.25 0 0 1 2.25-2.25z" id="AN"/><circle id="AO" cx="20.455" cy="20.455" r="20.455"/><path id="AP" d="M9.848 30.266h5.682V18.41H9.848z"/><path d="M20.455 11.525c0 5.482-4.782 9.944-7.955 9.944s-7.576-4.462-7.576-9.944v-.382l2.273-3.06s2.457.765 5.303.765c2.859 0 5.682-.765 5.682-.765l2.273 3.06v.382z" id="AQ"/><path d="M1.575 25.294h21.85c.87 0 1.575.705 1.575 1.575v7.222h0H0v-7.222c0-.87.705-1.575 1.575-1.575z" id="AR"/><path d="M1.575 25.294h6.758 0c1.01 1.02 2.462 1.53 4.356 1.53s3.346-.51 4.356-1.53h6.38c.87 0 1.575.705 1.575 1.575v7.222h0H0v-7.222c0-.87.705-1.575 1.575-1.575z" id="AS"/><path id="AT" d="M0 0h400v129H0z"/><path id="AU" d="M44.545 23.606a2.71 2.71 0 0 1-2.727 2.723c-1.558 0-2.727-1.167-2.727-2.723a2.69 2.69 0 0 1 2.727-2.724 2.71 2.71 0 0 1 2.727 2.724z"/><path id="AV" d="M48.182 34.5c0-3.303-1.818-7.263-6.364-7.263s-6.364 3.96-6.364 7.263h12.727z"/><path id="AW" d="M305.303 50.089v1.518h-1.515v-1.518h1.515zm0-3.036v1.518h-1.515v-1.518h1.515zm0-3.036v1.518h-1.515v-1.518h1.515zm-.125-11.898l.077.081 3.636 4.337a.84.84 0 0 1-.142 1.219c-.362.276-.877.246-1.201-.055l-.077-.081-2.169-2.571v7.45h-1.515l-.001-7.451-2.168 2.572a.94.94 0 0 1-1.184.198l-.093-.063a.84.84 0 0 1-.208-1.13l.066-.089 3.636-4.337a.94.94 0 0 1 1.343-.081z"/><path id="AX" d="M335.537 72.535c3.017 0 5.455 2.641 5.455 5.877v.01c2.49.128 4.463 2.343 4.463 5.046 0 2.779-2.097 5.036-4.68 5.036h-13.366c-2.584 0-4.68-2.257-4.68-5.036 0-2.725 1.994-4.95 4.494-5.046-.031-.16-.031-.319-.031-.489 0-1.587 1.188-2.874 2.665-2.874a2.53 2.53 0 0 1 1.064.234c.962-1.661 2.676-2.757 4.618-2.757"/><path id="AY" d="M352.883 48.682c3.034 0 5.486 2.841 5.486 6.323v.011c2.504.137 4.489 2.521 4.489 5.429 0 2.99-2.109 5.419-4.707 5.419h-13.443c-2.599 0-4.707-2.429-4.707-5.419 0-2.932 2.006-5.326 4.52-5.429-.031-.172-.031-.344-.031-.526 0-1.707 1.194-3.093 2.68-3.093.384 0 .749.092 1.07.251.967-1.787 2.691-2.966 4.644-2.966"/><path id="AZ" d="M272.893 29.752h0c-.51-3.05-2.925-5.441-6.005-5.946h0c3.081-.505 5.495-2.896 6.005-5.946h0c.51 3.05 2.925 5.441 6.005 5.946h0c-3.081.505-5.495 2.896-6.005 5.946z"/><path id="Aa" d="M64.539 0C28.894 0 0 28.829 0 64.393s28.894 64.393 64.539 64.393 64.539-28.829 64.539-64.393S100.184 0 64.539 0z"/><path id="Ab" d="M98.041 87.164c0 1.105-.893 1.996-2 1.996h-8.429c-1.107 0-2-.891-2-1.996V61.257c0-.214-.25-.321-.429-.178L67.325 78.897c-1.536 1.532-4.072 1.532-5.607 0L43.86 61.079c-.143-.143-.429-.036-.429.178v25.907c0 1.105-.893 1.996-2 1.996h-8.429c-1.107 0-2-.891-2-1.996V41.622c0-1.105.893-1.996 2-1.996h5.786a4.04 4.04 0 0 1 2.822 1.176l22.216 22.165a.97.97 0 0 0 1.393 0l22.216-22.165c.75-.748 1.75-1.176 2.822-1.176h5.786c1.107 0 2 .891 2 1.996v45.542z"/><path id="Ac" d="M279.301 49.782v-6.949c0-1.105-.893-1.996-2-1.996h-38.216c-1.107 0-2 .891-2 1.996v45.578c0 1.105.893 1.996 2 1.996h38.216c1.107 0 2-.891 2-1.996v-6.913c0-1.105-.893-1.996-2-1.996h-27.323c-.286 0-.5-.214-.5-.499v-7.911c0-.285.214-.499.5-.499h27.323c1.107 0 2-.891 2-1.996v-5.951c0-1.105-.893-1.996-2-1.996h-27.323c-.286 0-.5-.214-.5-.499v-7.911c0-.285.214-.499.5-.499h27.323c1.143.036 2-.855 2-1.96z"/><path id="Ad" d="M385.557 90.407h8.679c1.107 0 1.822-1.14 1.357-2.138l-21.966-45.186c-.679-1.354-2.036-2.245-3.572-2.245h-4.965c-1.536 0-2.893.855-3.572 2.245l-21.966 45.186c-.464.998.25 2.138 1.357 2.138h8.679a2.96 2.96 0 0 0 2.679-1.675l4.215-8.659c.179-.356.5-.57.893-.57h20.43c.393 0 .714.214.893.57l4.215 8.659c.464 1.033 1.5 1.675 2.643 1.675zm-24.18-20.526l5.715-11.76a.51.51 0 0 1 .893 0l5.715 11.76c.143.321-.071.713-.464.713h-11.429c-.321 0-.571-.392-.429-.713z"/><path id="Ae" d="M216.547 42.014l-22.216 22.165a.97.97 0 0 1-1.393 0l-22.251-22.165c-.75-.748-1.75-1.176-2.822-1.176h-5.786c-1.107 0-2 .891-2 1.996v45.578c0 1.105.893 1.996 2 1.996h8.429c1.107 0 2-.891 2-1.996V62.504c0-.214.25-.321.429-.178l17.858 17.818c1.536 1.532 4.072 1.532 5.607 0l17.858-17.818c.143-.143.429-.036.429.178v25.907c0 1.105.893 1.996 2 1.996h8.429c1.107 0 2-.891 2-1.996V42.833c0-1.105-.893-1.996-2-1.996h-5.786c-1.036.036-2.036.428-2.786 1.176z"/><path id="Af" d="M334.661 61.186h-19.608c-1.107 0-2 .891-2 1.996v4.953c0 1.105.893 1.996 2 1.996h11.251c.357 0 .571.356.464.677-2.143 5.666-7.715 9.693-14.215 9.479-7.572-.249-13.786-6.343-14.144-13.898-.393-8.374 6.322-15.288 14.644-15.288 3.393 0 6.536 1.176 9.036 3.1.786.606 1.929.57 2.643-.143l5.286-5.274c.821-.82.75-2.174-.143-2.922a26.17 26.17 0 0 0-17.072-6.165c-14.322.107-25.966 11.938-25.823 26.264.143 14.254 11.751 25.764 26.073 25.764 14.394 0 26.073-11.653 26.073-26.014v-.036c0-2.53-2-4.49-4.465-4.49z"/></defs><g fill="none" fill-rule="evenodd"><g transform="translate(2.727 2.724)"><g opacity=".4" class="C N"><path d="M324.26 58.213c-1.238-10.58-7.189-21.176-17.496-28.75-16.062-11.802-40.36-14.776-61.655-12.048-8.918 1.143-17.764 3.167-26.896 2.529-13.318-.928-25.053-7.3-37.18-11.966-16.517-6.357-35.442-9.774-52.992-7.01-19.898 3.135-36.215 14.98-38.163 30.696-.883 7.12 8.081 19.665 5.251 26.414-2.871 6.846-23.82 27.811-23.302 43.758.514 15.888 5.337 20.828 12.158 28.903h5.451 205.374 11.821c4.245-8.181 7.572-14.726 2.603-25.47-3.972-8.584 6.821-15.653 10.993-23.646 3.713-7.108 4.937-15.661 4.031-23.407z" opacity=".47"/><path d="M293.727 120.518c2.159-9.234-1.304-17.108-2.164-26.158-.815-8.571 2.721-15.776 4.686-23.939 1.747-7.263 1.163-15.492-1.028-22.63-2.992-9.748-9.892-18.775-19.824-24.277-15.478-8.575-36.127-7.563-53.226-1.667-7.162 2.469-14.098 5.756-21.771 6.589-11.187 1.211-22.074-2.936-32.976-5.425-14.835-3.388-31.12-3.637-45.118 1.71-15.872 6.064-27.154 19.748-25.836 34.819.598 6.831 3.653 13.568 2.571 20.352-1.096 6.881-5.849 12.637-8.366 19.117-3.432 8.844-3.748 21.843 1.775 30.82h197.56c1.702-2.936 2.961-6.079 3.717-9.311z" opacity=".43"/><path d="M262.581 91.554c-.631-5.583-3.67-11.178-8.937-15.174-8.206-6.226-20.614-7.798-31.492-6.359-4.555.604-9.073 1.673-13.741 1.333-6.805-.491-12.797-3.852-18.99-6.316-8.433-3.353-18.096-5.158-27.065-3.7-10.166 1.653-18.5 7.907-19.493 16.2-.449 3.758 4.128 10.379 2.681 13.942-1.465 3.614-12.167 14.679-11.904 23.093.263 8.386 2.726 10.995 6.21 15.256h2.785 104.901 6.038c2.168-4.32 3.87-7.77 1.329-13.443-2.028-4.53 3.484-8.262 5.616-12.48 1.901-3.747 2.522-8.262 2.06-12.351z" opacity=".47"/><path d="M345.647 131.645H50.717c-.395 0-.717-.408-.717-.908h0c0-.5.322-.908.717-.908h294.93c.395 0 .717.408.717.908h0c0 .506-.322.908-.717.908z"/></g><rect y="108.04" width="45.455" height="13.618" rx="6.809" class="R"/><g class="B"><rect x="9.091" y="111.672" width="27.273" height="1" rx=".455"/><rect x="9.091" y="114.395" width="16.364" height="1" rx=".455"/><rect x="27.273" y="114.395" width="9.091" height="1" rx=".455"/><rect x="9.091" y="117.119" width="22.727" height="1" rx=".455"/></g><rect x="255.455" y="9.987" width="52.727" height="13.618" rx="6.809" class="N"/><g class="B"><rect x="264.546" y="13.619" width="34.545" height="1" rx=".455"/><rect x="264.546" y="16.342" width="17.273" height="1" rx=".455"/><rect x="283.637" y="16.342" width="15.455" height="1" rx=".455"/><rect x="264.546" y="19.066" width="27.273" height="1" rx=".455"/></g><path d="M37.715 18.158h54.571c5.265 0 9.533 4.268 9.533 9.533s-4.268 9.533-9.533 9.533h-4.103 0v4.539l-5.455-4.539H37.715c-5.265 0-9.533-4.268-9.533-9.533s4.268-9.533 9.533-9.533z" class="N"/><g class="B"><rect x="56.364" y="22.697" width="34.545" height="1" rx=".455"/><rect x="56.364" y="27.237" width="17.273" height="1" rx=".455"/><rect x="75.455" y="27.237" width="15.455" height="1" rx=".455"/><rect x="56.364" y="31.776" width="27.273" height="1" rx=".455"/></g><g transform="matrix(-1 0 0 1 394.545455 70.815947)"><path d="M9.533 0h54.571c5.265 0 9.533 4.268 9.533 9.533s-4.268 9.533-9.533 9.533H60h0v4.539l-5.455-4.539H9.533C4.268 19.066 0 14.798 0 9.533S4.268 0 9.533 0z" class="R"/><g class="B"><rect x="28.182" y="4.539" width="34.545" height="1" rx=".455"/><rect x="28.182" y="9.079" width="17.273" height="1" rx=".455"/><rect x="47.273" y="9.079" width="15.455" height="1" rx=".455"/><rect x="28.182" y="13.618" width="27.273" height="1" rx=".455"/></g></g><g class="R"><use xlink:href="#AU"/><use xlink:href="#AV"/></g><path d="M45.808 30.683L43.626 28.2a.97.97 0 0 0-1.497 0c-.414.471-.414 1.234 0 1.704l2.93 3.335c.207.236.478.353.749.353s.542-.118.749-.353l5.86-6.668c.414-.471.414-1.234 0-1.704a.97.97 0 0 0-1.497 0l-5.111 5.817z" class="B"/><g class="N"><use xlink:href="#AU" x="339.091" y="52.658"/><use xlink:href="#AV" x="339.091" y="52.658"/></g><g class="B"><path d="M385.455 79.895h1.818v7.263h-1.818z"/><path d="M390 82.619v1.816h-7.273v-1.816z"/></g><g transform="translate(188.182 44.488)"><mask id="Ag" class="B"><use xlink:href="#A"/></mask><use xlink:href="#A" class="H"/><path mask="url(#Ag)" d="M36.364-3.633h40v94.421h-40z" class="I"/><path d="M36.364 54.473c4.184 0 7.909-3.366 8.182-3.632V47.21c0-.743-5.455-1.349-16.364-1.816V59.92c.277-.47.577-.93.94-1.358 1.927-2.306 4.499-4.09 7.242-4.09z" style="mix-blend-mode:multiply" class="E F"/><mask id="Ah" class="B"><use xlink:href="#B"/></mask><use xlink:href="#B" class="H"/><path mask="url(#Ah)" d="M36.364-3.633h40v94.421h-40z" class="I"/><mask id="Ai" class="B"><use xlink:href="#C"/></mask><use xlink:href="#C" class="D"/><path mask="url(#Ai)" d="M36.364-3.633h40v94.421h-40z" class="S"/><path d="M30 67.183l-8.182-8.171 2.424-1.568 12.121 4.292v3.632L30 67.183z" class="J"/><mask id="Aj" class="B"><use xlink:href="#D"/></mask><use xlink:href="#D" class="J"/><path mask="url(#Aj)" d="M36.364-3.633h40v94.421h-40z" class="X"/><mask id="Ak" class="B"><use xlink:href="#E"/></mask><use xlink:href="#E" class="Y"/><path mask="url(#Ak)" d="M36.364-3.633h40v94.421h-40z" class="Z"/></g><mask id="Al" class="B"><use xlink:href="#F"/></mask><use xlink:href="#F" class="O"/><path fill="#e94957" mask="url(#Al)" d="M258.182 78.079H290v53.566h-31.818z"/><path d="M252.976 106.817c.56 0 1.099-.106 1.616-.318s.972-.515 1.362-.909.702-.871.935-1.43.35-1.186.35-1.881c0-.712-.106-1.356-.318-1.932s-.509-1.063-.891-1.462-.834-.705-1.355-.922-1.088-.324-1.699-.324a4.35 4.35 0 0 0-1.693.324c-.518.216-.965.523-1.343.922s-.672.885-.885 1.462-.318 1.22-.318 1.932c0 .695.106 1.322.318 1.881a4.18 4.18 0 0 0 .885 1.43c.378.394.825.697 1.343.909s1.082.318 1.693.318zm-.942 9.393a1.13 1.13 0 0 0 .566-.133c.157-.089.286-.201.388-.337h0l13.669-17.909h-2.278c-.272 0-.484.051-.636.153s-.28.216-.382.343h0l-13.669 17.884h2.342zm.942-11.427a1.97 1.97 0 0 1-.713-.127c-.221-.085-.412-.225-.573-.419s-.286-.451-.375-.769-.134-.714-.134-1.188c0-.491.045-.902.134-1.233s.214-.597.375-.801a1.39 1.39 0 0 1 .573-.439c.221-.089.458-.133.713-.133s.494.044.719.133.42.235.585.439.295.47.388.801.14.741.14 1.233c0 .475-.047.871-.14 1.188s-.223.574-.388.769-.361.335-.585.419a2.02 2.02 0 0 1-.719.127zm10.385 11.656c.56 0 1.099-.108 1.616-.324s.972-.521 1.362-.915.702-.871.935-1.43.35-1.186.35-1.881c0-.712-.106-1.356-.318-1.932s-.509-1.063-.891-1.462-.834-.705-1.355-.922-1.088-.324-1.699-.324a4.35 4.35 0 0 0-1.693.324c-.518.216-.965.523-1.343.922s-.672.885-.885 1.462-.318 1.22-.318 1.932c0 .695.106 1.322.318 1.881a4.18 4.18 0 0 0 .885 1.43 3.94 3.94 0 0 0 1.343.915 4.35 4.35 0 0 0 1.693.324zm0-2.034a1.97 1.97 0 0 1-.713-.127c-.221-.085-.409-.225-.566-.419s-.282-.453-.375-.775-.14-.72-.14-1.195c0-.491.047-.902.14-1.233s.218-.597.375-.801.346-.35.566-.439.458-.133.713-.133.494.044.719.133.42.235.585.439.297.47.395.801.146.741.146 1.233c0 .475-.049.873-.146 1.195s-.229.58-.395.775-.361.335-.585.419a2.02 2.02 0 0 1-.719.127z" mask="url(#Al)" class="B C"/><path d="M208.176 44.529c.718.197 1.295-.573 1.271-1.21-.054-2.219-.443-4.52-1.326-6.542-.128-.282-.357-.569-.683-.583-.173-.007-.381-.05-.523.053l-.142.104c-.25.18-.418.494-.386.827l.359 2.52c-5.057-6.266-14-9.01-21.73-9.06-4.282-.033-8.582.773-12.647 2.187-2.016.693-3.973 1.573-5.86 2.591-1.954 1.051-4.074 2.257-5.32 4.168-.407.627.057 1.457.825 1.211 1.853-.589 3.483-1.769 5.19-2.713a37.05 37.05 0 0 1 5.633-2.528c3.791-1.34 7.722-2.021 11.709-2.136 4.249-.12 8.674.542 12.64 2.029 3.813 1.437 6.954 3.758 9.867 6.524 0 0 .004.013 0 .021-.918-.258-1.832-.546-2.781-.691-1.305-.184-2.881-.589-4.01.252-.45.32-.567 1.082-.092 1.441 1.08.8 2.385.517 3.689.658 1.461.161 2.899.46 4.314.875" class="O"/><path d="M251.909 40.833h0c-.583-3.47-3.343-6.19-6.864-6.765h0c3.521-.575 6.281-3.295 6.864-6.765h0c.583 3.47 3.343 6.19 6.864 6.765h0c-3.521.575-6.281 3.295-6.864 6.765zM183.268 78.04h0c-.583-3.47-3.343-6.19-6.864-6.765h0c3.521-.575 6.281-3.295 6.864-6.765h0c.583 3.47 3.343 6.19 6.864 6.765h0c-3.521.575-6.28 3.295-6.864 6.765zm85.801-15.221h-5.148v-5.074h-3.432v5.074h-5.148v3.383h5.148v5.074h3.432v-5.074h5.148z" fill="#fdb62f" class="C"/><g transform="translate(110.908 39.039)"><mask id="Am" class="B"><use xlink:href="#G"/></mask><use xlink:href="#G" class="a"/><path mask="url(#Am)" d="M36.365-1.816h40v94.421h-40z" class="b"/><mask id="An" class="B"><use xlink:href="#H"/></mask><use xlink:href="#H" class="a"/><path mask="url(#An)" d="M36.365-1.816h40v94.421h-40z" class="b"/><mask id="Ao" class="B"><use xlink:href="#I"/></mask><use fill="#4995e9" xlink:href="#I"/><path fill="#3e88e4" mask="url(#Ao)" d="M36.365-1.816h40v94.421h-40z"/><path d="M36.365 56.289c4.184 0 7.273-1.645 7.273-3.632v-3.632c0-.901-4.848-1.506-14.545-1.816v13.618c.277-.569.547-1.298.909-1.816 1.927-2.794 3.62-2.724 6.364-2.724z" style="mix-blend-mode:multiply" class="E F"/><mask id="Ap" class="B"><use xlink:href="#J"/></mask><use xlink:href="#J" class="a"/><path mask="url(#Ap)" d="M36.365-1.816h40v94.421h-40z" class="b"/><mask id="Aq" class="B"><use xlink:href="#K"/></mask><use xlink:href="#K" class="F"/><path fill="#1a1a1a" mask="url(#Aq)" d="M-3.635-1.816h40v94.421h-40z"/></g></g><g transform="translate(443.939 12.143)"><g transform="translate(0 62.232)"><mask id="Ar" class="B"><use xlink:href="#L"/></mask><use fill="#0b6c9b" xlink:href="#L"/><path fill="#075988" d="M51.515-6.071h57.576v94.107H51.515z" class="T"/><g class="B"><rect x="28.788" y="12.143" width="45.455" height="3.036" rx="1.515" class="T"/><rect x="28.788" y="39.464" width="45.455" height="3.036" rx="1.515" class="T"/><rect x="28.788" y="66.786" width="45.455" height="3.036" rx="1.515" class="T"/><ellipse cx="77.273" cy="13.661" rx="1.515" ry="1.518"/><ellipse cx="77.273" cy="40.982" rx="1.515" ry="1.518"/><ellipse cx="77.273" cy="68.304" rx="1.515" ry="1.518"/><ellipse cx="81.818" cy="13.661" rx="1.515" ry="1.518"/><ellipse cx="81.818" cy="40.982" rx="1.515" ry="1.518"/><ellipse cx="81.818" cy="68.304" rx="1.515" ry="1.518"/></g></g><g transform="translate(209.091 62.232)"><mask id="As" class="B"><use xlink:href="#M" href="#L"/></mask><use fill="#0b6c9b" xlink:href="#M" href="#L"/><path fill="#075988" d="M51.515-6.071h51.515v94.107H51.515z" class="U"/><g class="B"><rect x="28.788" y="12.143" width="45.455" height="3.036" rx="1.515" class="U"/><rect x="28.788" y="39.464" width="45.455" height="3.036" rx="1.515" class="U"/><rect x="28.788" y="66.786" width="45.455" height="3.036" rx="1.515" class="U"/><ellipse cx="21.212" cy="13.661" rx="1.515" ry="1.518"/><ellipse cx="21.212" cy="40.982" rx="1.515" ry="1.518"/><ellipse cx="21.212" cy="68.304" rx="1.515" ry="1.518"/><ellipse cx="25.758" cy="13.661" rx="1.515" ry="1.518"/><ellipse cx="25.758" cy="40.982" rx="1.515" ry="1.518"/><ellipse cx="25.758" cy="68.304" rx="1.515" ry="1.518"/></g></g><g transform="translate(69.697)"><mask id="At" class="B"><use xlink:href="#M"/></mask><use fill="#579cd3" xlink:href="#M"/><path fill="#4589c8" mask="url(#At)" d="M86.364 103.214h15.152v33.393H86.364z"/><mask id="Au" class="B"><use xlink:href="#N"/></mask><use fill="#5ca6e1" xlink:href="#N"/><path fill="#4a94d9" mask="url(#Au)" d="M86.364 129.018h40.909v21.25H86.364z"/><mask id="Av" class="B"><use xlink:href="#O"/></mask><use fill="#daf0fa" xlink:href="#O" class="C"/><path fill="#d0ebf8" mask="url(#Av)" d="M86.364 0h87.879v109.286H86.364z"/><mask id="Aw" class="B"><use xlink:href="#P"/></mask><use fill="#58b5ff" xlink:href="#P" class="C"/><path fill="#46a5ff" mask="url(#Aw)" d="M86.364 0h87.879v109.286H86.364z"/><g class="C"><path d="M102.216 22.285c-.872 0-1.578.68-1.578 1.518v5.545c-8.126-7.566-21.09-7.364-28.957.451-3.707 3.683-5.776 8.611-5.765 13.737 0 .838.707 1.518 1.578 1.518s1.578-.68 1.578-1.518c.002-9.221 7.776-16.695 17.365-16.693 4.87.001 9.515 1.969 12.803 5.423l-6.992 2.242c-.828.265-1.276 1.125-1.001 1.922s1.17 1.227 1.998.962l9.47-3.036c.646-.207 1.082-.79 1.08-1.445v-9.107c0-.838-.707-1.518-1.578-1.518z" fill="#00e0c2"/><path d="M105.246 42.017c-.872 0-1.578.68-1.578 1.518-.002 9.221-7.776 16.695-17.365 16.693-4.87-.001-9.515-1.969-12.803-5.423l6.992-2.242c.828-.265 1.276-1.125 1.001-1.922s-1.17-1.227-1.998-.962l-9.47 3.036c-.646.207-1.082.79-1.08 1.445v9.107c0 .838.707 1.518 1.578 1.518s1.578-.68 1.578-1.518v-5.545c8.126 7.566 21.09 7.364 28.957-.451 3.707-3.683 5.776-8.611 5.765-13.737 0-.838-.706-1.518-1.578-1.518z" fill="#2cbeff"/></g></g><g class="R"><use xlink:href="#AW"/><path d="M296.212 18.214v1.518h-1.515v-1.518h1.515zm0-3.036v1.518h-1.515v-1.518h1.515zm0-3.036v1.518h-1.515v-1.518h1.515zM296.087.245l.077.081 3.636 4.337a.84.84 0 0 1-.142 1.219c-.362.276-.877.246-1.201-.055l-.077-.081-2.169-2.571v7.45h-1.515l-.001-7.451-2.168 2.572a.94.94 0 0 1-1.184.198l-.093-.063a.84.84 0 0 1-.208-1.13l.066-.089 3.636-4.337a.94.94 0 0 1 1.343-.081z"/><use xlink:href="#AW" x="-21.212" y="-21.25"/><path d="M18.939 45.536v1.518h-1.515v-1.518h1.515zm0-3.036v1.518h-1.515V42.5h1.515zm0-3.036v1.518h-1.515v-1.518h1.515zm-.125-11.898l.077.081 3.636 4.337a.84.84 0 0 1-.142 1.219c-.362.276-.877.246-1.201-.055l-.077-.081-2.169-2.571v7.45h-1.515l-.001-7.451-2.168 2.572a.94.94 0 0 1-1.184.198l-.093-.063a.84.84 0 0 1-.208-1.13l.066-.089 3.636-4.337a.94.94 0 0 1 1.343-.081zM5.303 31.875v1.518H3.788v-1.518h1.515zm0-3.036v1.518H3.788v-1.518h1.515zm0-3.036v1.518H3.788v-1.518h1.515zm-.125-11.898l.077.081 3.636 4.337a.84.84 0 0 1-.142 1.219c-.362.276-.877.246-1.201-.055l-.077-.081-2.169-2.571v7.45H3.788l-.001-7.451-2.168 2.572a.94.94 0 0 1-1.184.198l-.093-.063a.84.84 0 0 1-.208-1.13l.066-.089 3.636-4.337a.94.94 0 0 1 1.343-.081z"/></g></g><g transform="translate(803.846 3.846)"><rect fill="#ffd34d" y="51.923" width="269.231" height="103.846" rx="15.385"/><path d="M15.822 126.923c.75 0 1.433-.202 2.048-.606s1.01-1.067 1.183-1.99h0l1.673-9.173h5.913l-1.702 8.827-.043.274c-.01.087-.014.178-.014.274 0 .673.212 1.24.635 1.702s.923.692 1.5.692h0 3.26l2.221-11.769h6.26l.346-2.25c.058-.346.087-.654.087-.923 0-.712-.159-1.216-.476-1.514s-.784-.447-1.399-.447h0-4.096l1.471-7.962h2.885c1.019 0 1.764-.178 2.236-.534s.774-.899.909-1.63h0l.548-2.971h-5.856l1.788-9.231a2.39 2.39 0 0 0 .029-.433c0-.596-.212-1.087-.635-1.471s-.971-.577-1.644-.577h0-3.173l-2.221 11.712h-5.885l2.192-11.712H22.63c-.75 0-1.404.212-1.962.635s-.913 1.019-1.067 1.788h0l-1.788 9.288h-3.202c-1.038 0-1.788.178-2.25.534s-.76.899-.894 1.63h0l-.548 2.971h6.173l-1.5 7.962h-5.481l-.375 2.279c-.058.346-.087.654-.087.923 0 .692.163 1.188.49 1.486s.798.447 1.413.447h0 3.317l-2.192 11.769h3.144zm11.538-16.904h-5.913l1.5-7.962h5.885l-1.471 7.962zm22.471-16.846a4.47 4.47 0 0 0 1.788-.361c.558-.24 1.043-.562 1.457-.966s.745-.875.995-1.413a4.06 4.06 0 0 0 .375-1.731 4.32 4.32 0 0 0-.375-1.788c-.25-.558-.582-1.038-.995-1.442s-.899-.726-1.457-.966a4.47 4.47 0 0 0-1.788-.361c-.615 0-1.197.12-1.745.361s-1.024.563-1.428.966-.726.885-.966 1.442a4.47 4.47 0 0 0-.361 1.788c0 .615.12 1.192.361 1.731s.563 1.01.966 1.413.88.726 1.428.966 1.13.361 1.745.361zm-5.885 44.135c1.731 0 3.197-.245 4.399-.736s2.173-1.163 2.913-2.019 1.279-1.851 1.615-2.986.505-2.346.505-3.635h0V97.327h-7.125v30.606c0 .769-.062 1.413-.187 1.933s-.337.938-.635 1.255-.692.548-1.183.692-1.091.216-1.803.216-1.192.053-1.442.159-.404.351-.462.736h0l-.231 3.837a11.09 11.09 0 0 0 1.76.418c.577.087 1.202.13 1.875.13zm20.856-9.923c2.269 0 4.26-.356 5.971-1.067s3.139-1.731 4.284-3.058 2.005-2.933 2.582-4.817.865-4 .865-6.346h0V85.212h-7.76v27.058c0 1.577-.144 2.918-.433 4.024s-.716 2.005-1.284 2.697a4.93 4.93 0 0 1-2.12 1.514c-.846.317-1.817.476-2.913.476-.808 0-1.476-.067-2.005-.202s-.957-.202-1.284-.202c-.538 0-.947.13-1.226.389s-.437.601-.476 1.024h0l-.404 4.615c1.096.269 2.144.466 3.144.591a24.63 24.63 0 0 0 3.058.188zm51.404-.462v-6.202H94.572l21.404-30.231c.5-.731.75-1.538.75-2.423h0v-2.856H85.861v6.173h20.827L85.226 121.76a4.66 4.66 0 0 0-.519.995 3.11 3.11 0 0 0-.202 1.111h0v3.058h31.702zm24.865.462c1.712 0 3.308-.091 4.788-.274a28.06 28.06 0 0 0 4.168-.822 21.09 21.09 0 0 0 3.663-1.399c1.144-.567 2.245-1.236 3.303-2.005h0V106.01H143.12v4.385a1.37 1.37 0 0 0 .433 1.024c.288.279.683.418 1.183.418h0 5.221v7.587a19.26 19.26 0 0 1-3.707 1.313c-1.298.317-2.822.476-4.572.476-1.981 0-3.808-.341-5.481-1.024a12.18 12.18 0 0 1-4.327-2.957c-1.212-1.288-2.154-2.87-2.827-4.745s-1.01-4.014-1.01-6.418c0-2.231.317-4.25.952-6.058s1.538-3.356 2.712-4.644 2.591-2.279 4.255-2.971 3.524-1.038 5.582-1.038c1.269 0 2.389.087 3.361.26s1.846.394 2.625.663 1.49.587 2.135.952l1.889 1.096c.481.308.952.462 1.413.462.731 0 1.317-.356 1.76-1.067h0l2.25-3.519c-1.731-1.615-3.841-2.928-6.332-3.937s-5.437-1.514-8.841-1.514c-3.327 0-6.327.519-9 1.558s-4.947 2.5-6.822 4.385-3.322 4.135-4.341 6.75-1.529 5.49-1.529 8.625c0 3.096.524 5.952 1.572 8.567s2.505 4.865 4.37 6.75 4.077 3.356 6.635 4.413 5.356 1.587 8.394 1.587zm31.183-.462v-16.298h3.317c.769 0 1.351.106 1.745.317s.755.567 1.082 1.067h0l8.769 13.356c.327.5.726.885 1.197 1.154s1.043.404 1.716.404h0 6.981l-10.442-15.404c-.712-1.038-1.558-1.837-2.538-2.394 1.462-.462 2.764-1.077 3.909-1.846s2.106-1.663 2.885-2.683a11.52 11.52 0 0 0 1.788-3.404c.413-1.25.62-2.577.62-3.981 0-1.769-.303-3.389-.909-4.861s-1.558-2.736-2.856-3.793-2.962-1.88-4.99-2.466-4.466-.88-7.312-.88h0-12.721v41.712h7.76zm4.846-21.865h-4.846V91.212h4.962c2.865 0 4.995.567 6.389 1.702s2.091 2.76 2.091 4.875c0 1.058-.173 2.029-.519 2.913a6.08 6.08 0 0 1-1.572 2.293c-.702.644-1.596 1.149-2.683 1.514s-2.361.548-3.822.548h0zm31.644 22.327c1.058 0 2.019-.087 2.885-.26s1.683-.433 2.452-.779a13.4 13.4 0 0 0 2.236-1.284c.721-.51 1.457-1.101 2.207-1.774h0l.635 2.106c.192.615.481 1.024.865 1.226s.913.303 1.587.303h0 3.202v-18.692c0-1.673-.245-3.212-.736-4.615s-1.207-2.611-2.149-3.62-2.091-1.798-3.447-2.365-2.899-.851-4.63-.851c-4.808 0-8.913 1.558-12.317 4.673h0l1.298 2.279a2.95 2.95 0 0 0 .837.923c.346.25.76.375 1.24.375a3.19 3.19 0 0 0 1.587-.404l1.572-.909c.567-.337 1.236-.639 2.005-.909s1.731-.404 2.885-.404c1.596 0 2.813.476 3.649 1.428s1.255 2.418 1.255 4.399h0v1.731c-3.365.077-6.183.404-8.452.981s-4.087 1.303-5.452 2.178-2.341 1.856-2.928 2.942-.88 2.188-.88 3.303c0 1.327.212 2.49.635 3.49s1.014 1.837 1.774 2.51 1.668 1.178 2.726 1.514 2.212.505 3.462.505zm2.221-4.904c-1.192 0-2.159-.269-2.899-.808s-1.111-1.433-1.111-2.683c0-.635.178-1.221.534-1.76s.957-1.01 1.803-1.413 1.966-.736 3.361-.995 3.13-.437 5.207-.534h0v4.99c-.519.538-1.034 1.005-1.543 1.399s-1.038.726-1.587.995a7.65 7.65 0 0 1-1.745.606c-.615.135-1.288.202-2.019.202z" class="B C"/><g transform="translate(222.804)"><path d="M35.355 25.193l10.879 10.879a11.54 11.54 0 0 1 0 16.318L35.355 63.268a11.54 11.54 0 0 1-16.318 0L8.159 52.39a11.54 11.54 0 0 1 0-16.318l10.879-10.879a11.54 11.54 0 0 1 16.318 0z" class="D"/><mask id="Ax" class="B"><use xlink:href="#Q"/></mask><use xlink:href="#Q" class="D"/><path fill="#00a888" mask="url(#Ax)" d="M84.889-3.846h84.615v200H84.889z"/><mask id="Ay" class="B"><use xlink:href="#R"/></mask><use fill="#89e6e8" xlink:href="#R"/><path fill="#69dadd" mask="url(#Ay)" d="M84.889-3.846h84.615v200H84.889z"/><mask id="Az" class="B"><use xlink:href="#S"/></mask><use fill="#89e6e8" xlink:href="#S"/><path fill="#69dadd" mask="url(#Az)" d="M84.889-3.846h84.615v200H84.889z"/><mask id="BA" class="B"><use xlink:href="#T"/></mask><use fill="#f5fcfc" xlink:href="#T"/><path fill="#ebfbfe" mask="url(#BA)" d="M84.889-3.846h84.615v200H84.889z"/><g mask="url(#BA)"><g transform="translate(11.812 30.769)"><mask id="BB" class="B"><use xlink:href="#U"/></mask><use xlink:href="#U" class="D"/><path fill="#00a888" mask="url(#BB)" d="M73.077-34.615h84.615v200H73.077z"/><mask id="BC" class="B"><use xlink:href="#V"/></mask><use xlink:href="#V" class="D"/><path mask="url(#BC)" d="M73.077-34.615h84.615v200H73.077z" class="c"/><rect y="67.308" width="23.077" height="11.538" rx="5.769" class="D"/><rect x="123.077" y="67.308" width="23.077" height="11.538" rx="5.769" class="c"/><mask id="BD" class="B"><use xlink:href="#W"/></mask><use xlink:href="#W" class="D"/><path mask="url(#BD)" d="M73.077-34.615h84.615v200H73.077z" class="c"/></g></g></g></g><g transform="translate(1222.727 11.872)"><g transform="translate(115.909 17.785)"><mask id="BE" class="B"><use xlink:href="#X"/></mask><use xlink:href="#X" class="D"/><path mask="url(#BE)" d="M56.818 4.563h59.091v36.5H56.818z" class="S"/><mask id="BF" class="B"><use xlink:href="#Y"/></mask><use fill="#f8f9fb" xlink:href="#Y"/><path fill="#f6f7fa" mask="url(#BF)" d="M56.818 13.688h52.273v29.656H56.818z"/><g transform="translate(0 27.375)"><mask id="BG" class="B"><use xlink:href="#Z"/></mask><use xlink:href="#Z" class="D"/><path fill="#00c4ab" d="M-6.818-2.281h141.113v89.266H-6.818z" class="d"/><path fill="#00ba9f" d="M56.818 0h56.818v86.688H56.818z" class="d"/><path d="M61.824 28.109c.714-.875 2.002-1.006 2.878-.292h0l12.9 10.521c.107.087.205.185.292.292.714.875.583 2.164-.292 2.878h0l-12.9 10.521c-.365.298-.822.46-1.293.46-1.13 0-2.045-.916-2.045-2.045h0v-7.099l-26.123.001c-1.89 0-3.422-1.532-3.422-3.422S33.35 36.5 35.24 36.5l26.123-.001v-7.098c0-.412.124-.813.355-1.152z" class="B d"/></g></g><g transform="translate(209.091 58.847)"><mask id="BH" class="B"><use xlink:href="#a"/></mask><g class="B"><use xlink:href="#a"/><path d="M60.093 38.632c5.162 8.628 3.163-8.166 3.163-12.362C63.255 11.775 49.031 0 31.628 0S0 11.775 0 26.27c0 4.197 1.059 8.844 3.163 12.362 5.16-8.631 16.102-15.453 28.465-15.453s23.302 6.825 28.465 15.453z" mask="url(#BH)"/></g><path d="M53.977 45.955c5.452-4.809 9.659-11.807 9.659-18.958C63.636 12.179 49.156.141 31.439.141c-2.081 0-4.469-.317-6.439 0C39.806 2.519 50.758 13.92 50.758 26.997c0 7.15-4.207 14.149-9.659 18.958 0 0 3.22 4.739 4.83 6.319s5.598 4.424 8.049 4.739h4.83c1.164.15 2.34-.677 1.61-1.58-1.094-1.352-3.24-4.511-6.439-9.479z" fill="#edf1f7" mask="url(#BH)"/></g><path d="M37.81 49.722c3.017 0 5.455 2.641 5.455 5.877v.01c2.49.128 4.463 2.343 4.463 5.046 0 2.779-2.097 5.036-4.68 5.036H29.68c-2.584 0-4.68-2.257-4.68-5.036 0-2.725 1.994-4.95 4.494-5.046-.031-.16-.031-.319-.031-.489 0-1.587 1.188-2.874 2.665-2.874a2.53 2.53 0 0 1 1.064.234c.962-1.661 2.676-2.757 4.618-2.757" class="B V"/><g class="D"><ellipse cx="223.864" cy="87.363" rx="3.409" ry="3.422"/><ellipse cx="235.227" cy="87.363" rx="3.409" ry="3.422"/><ellipse cx="246.591" cy="87.363" rx="3.409" ry="3.422"/></g><path d="M12.81 33.753c3.017 0 5.455 2.641 5.455 5.877v.01c2.49.128 4.463 2.343 4.463 5.046 0 2.779-2.097 5.036-4.68 5.036H4.68c-2.584 0-4.68-2.257-4.68-5.036 0-2.725 1.994-4.95 4.494-5.046-.031-.16-.031-.319-.031-.489 0-1.587 1.188-2.874 2.665-2.874a2.53 2.53 0 0 1 1.064.234c.962-1.661 2.676-2.757 4.618-2.757" class="B V"/><g transform="matrix(.71934 -.694658 .694658 .71934 68.562594 44.288357)"><path d="M34.072 29.675c8.42 8.451 10.105 20.46 2.105 28.49l-3.778 3.794c-8 8.029-2.46-11.233-10.879-19.684s-27.61-2.89-19.61-10.92l3.779-3.793c8-8.03 19.965-6.338 28.384 2.113" class="O"/><path d="M19.896 43.904c3.169 3.18 3.169 8.336 0 11.517S7.493 62.715 4.324 59.535s.93-12.451 4.098-15.631 8.306-3.18 11.474 0" fill="#ffd49c"/><path d="M14.159 42.655a6.94 6.94 0 0 1 4.932 2.051 7 7 0 0 1 0 9.913c-1.679 1.686-5.176 3.632-8.434 4.493-2.178.575-4.361.792-5.528-.379s-.953-3.367-.379-5.557c.858-3.272 2.797-6.783 4.477-8.469a6.94 6.94 0 0 1 4.932-2.051z" stroke="#ffa837" class="m"/><path d="M62.567 1.076c2.587 2.598 1.451 19.066-14.449 35.036-10.354 10.399-16.893 14.036-16.893 14.036-6.925 4.671-10.274 1.482-14.631-2.896-4.389-4.408-7.599-7.744-2.883-14.696 0 0 3.67-6.617 13.975-16.968C43.571-.367 59.972-1.531 62.567 1.076z" class="B"/><path d="M56.184 1.247c2.758-.287 4.845-.105 5.578.631s.915 2.835.628 5.616c-.272 2.64-1.062 5.917-2.566 9.565-2.288 5.549-6.226 11.939-12.511 18.252-10.203 10.248-16.64 13.845-16.64 13.845-2.753 1.852-4.821 2.415-6.64 2.055-2.439-.483-4.373-2.489-6.634-4.76-2.28-2.29-4.298-4.234-4.779-6.684-.358-1.823.214-3.893 2.031-6.572.139-.239 3.801-6.72 13.84-16.804 6.284-6.312 12.647-10.268 18.173-12.567 3.63-1.51 6.892-2.304 9.519-2.577z" stroke="#fff" class="m"/><path d="M62.567 1.076c1.521 1.528 1.755 7.854-1.545 16.055-2.92-.777-5.895-2.477-8.435-5.023-2.918-2.925-4.722-6.428-5.296-9.761C55.106-.671 61.085-.412 62.567 1.076zM24.221 44.171c-6.127 6.151-9.827 7.801-11.094 6.529s.376-4.986 6.504-11.137 10.592-8.569 11.86-7.296-1.142 5.755-7.27 11.904z" class="O"/><g class="C"><ellipse fill="#365d6e" cx="41.364" cy="22.356" rx="6.364" ry="6.388"/><ellipse fill="#d3edf9" cx="41.364" cy="22.356" rx="3.182" ry="3.194"/></g></g><g class="B V"><use xlink:href="#AX"/><use xlink:href="#AX" x="31.818" y="13.687"/></g></g><g transform="translate(1600)"><g class="C"><rect x="32" y="58" width="56" height="54" rx="4" class="W"/><path d="M58.139 74.002c.469-.003.925.171 1.287.491.364.287.577.743.574 1.227-.009.264-.068.524-.172.764L51.9 94.774c-.167.383-.442.7-.787.905-.699.427-1.557.427-2.256 0a1.95 1.95 0 0 1-.788-.905l-7.897-18.288A2.03 2.03 0 0 1 40 75.75c-.007-.497.212-.966.587-1.258a2.02 2.02 0 0 1 1.331-.491 1.66 1.66 0 0 1 .901.261 1.71 1.71 0 0 1 .645.782l6.576 15.681 6.582-15.681c.249-.656.857-1.074 1.517-1.043zM78 94.359c0 1.093-.603 1.64-1.808 1.641H66.018c-1.226 0-1.838-.547-1.838-1.641 0-1.054.613-1.581 1.838-1.581h3.132V78.65l-2.894 1.828a1.52 1.52 0 0 1-.75.248 1.32 1.32 0 0 1-1.069-.558 1.96 1.96 0 0 1-.437-1.24 1.56 1.56 0 0 1 .782-1.395l4.668-2.974a3.28 3.28 0 0 1 1.716-.558c.503-.023.993.167 1.355.527.356.394.541.919.511 1.456v16.793h3.162c1.204 0 1.806.527 1.805 1.581z" class="B"/><rect fill="#6dc9f7" x="312" y="58" width="56" height="54" rx="4"/><rect x="312" y="58" width="56" height="54" rx="4" class="W"/><path d="M338.14 74.001c.469-.003.924.171 1.287.491.364.287.577.743.573 1.227a2.12 2.12 0 0 1-.172.764l-7.925 18.291c-.167.383-.443.7-.788.905-.699.427-1.556.427-2.255 0a1.96 1.96 0 0 1-.787-.905l-7.901-18.287a2.07 2.07 0 0 1-.172-.737c-.005-.498.216-.967.594-1.258.378-.323.848-.496 1.33-.491a1.66 1.66 0 0 1 .901.261 1.7 1.7 0 0 1 .643.782l6.581 15.68 6.58-15.68c.249-.654.853-1.071 1.511-1.042zM360 94.366c0 1.087-.631 1.631-1.894 1.632h-11.997a1.74 1.74 0 0 1-1.294-.478 1.61 1.61 0 0 1-.474-1.185c.005-.626.266-1.224.726-1.661l7.203-7.546a12.16 12.16 0 0 0 1.942-2.603 5.09 5.09 0 0 0 .616-2.357c.056-.825-.255-1.633-.853-2.219a3.51 3.51 0 0 0-2.432-.767 6.81 6.81 0 0 0-2.509.478 12.63 12.63 0 0 0-2.447 1.309 3.93 3.93 0 0 1-.631.355c-.198.089-.413.136-.631.138-.374-.008-.721-.191-.931-.493a1.81 1.81 0 0 1-.393-1.171c-.007-.276.053-.55.174-.8a2.06 2.06 0 0 1 .553-.648 11.06 11.06 0 0 1 3.252-1.709c1.196-.414 2.456-.627 3.725-.631a7.92 7.92 0 0 1 5.194 1.601 5.3 5.3 0 0 1 1.941 4.313 7.82 7.82 0 0 1-.82 3.527 15.7 15.7 0 0 1-2.779 3.681l-5.461 5.669h8.322c1.266-.005 1.899.516 1.899 1.564z" class="B"/><path d="M198.966 151.337H35.802c-2.44 0-4.418-1.119-4.418-2.5s1.977-2.5 4.418-2.5h163.164c2.44 0 4.418 1.119 4.418 2.5s-1.977 2.5-4.418 2.5z" class="D"/><path d="M342.884 151.337H250.55a2.5 2.5 0 1 1 0-5h92.334a2.5 2.5 0 1 1 0 5z" class="e"/></g><mask id="BI" class="B"><use xlink:href="#b"/></mask><use xlink:href="#b" class="C D"/><g class="e"><path mask="url(#BI)" d="M200 10h66v150h-66z"/><path d="M367.218 147.069l-13.327-13.327a2.5 2.5 0 0 0-3.535 3.535l9.059 9.06H318.55a2.5 2.5 0 1 0 0 5h40.865l-9.059 9.059a2.5 2.5 0 0 0 0 3.535c.488.488 1.128.732 1.768.732s1.279-.244 1.768-.732l13.327-13.326a2.5 2.5 0 0 0 .732-1.768c0-.663-.265-1.299-.733-1.768z" class="C"/></g><g transform="translate(160 46)"><mask id="BJ" class="B"><use xlink:href="#c"/></mask><use fill="#8dd2ff" xlink:href="#c"/><path d="M40 0h40v80H40z" class="G W"/><circle cx="40" cy="40" r="34" class="B G"/><g class="W G"><circle cx="40" cy="12" r="2"/><circle cx="40" cy="68" r="2"/><circle cx="12" cy="40" r="2"/><circle cx="68" cy="40" r="2"/></g><path d="M40 24a2 2 0 0 1 1.987 1.767L42 26v15.17l9.414 9.416a2 2 0 0 1 .166 2.64l-.166.188a2 2 0 0 1-2.64.166l-.188-.166-10-10a2 2 0 0 1-.568-1.151L38 42V26a2 2 0 0 1 2-2z" fill="#0c4870" class="C G"/></g></g><g transform="translate(2001.429 11.454)"><g transform="translate(154.282 10.023)"><mask id="BK" class="B"><use xlink:href="#d"/></mask><use xlink:href="#d" class="D"/><path mask="url(#BK)" d="M48.575 4.295h50v30.068h-50z" class="S"/><mask id="BL" class="B"><use xlink:href="#e"/></mask><use fill="#f8f9fb" xlink:href="#e"/><path fill="#f6f7fa" mask="url(#BL)" d="M48.575 11.455h42.857v24.341H48.575z"/><g transform="translate(0 22.909)"><mask id="BM" class="B"><use xlink:href="#f"/></mask><use xlink:href="#f" class="D"/><path fill="#00c4ab" d="M-5.71 0l110-1.432v73.023h-110z" class="f"/><path fill="#00ba9f" d="M48.575 0h47.143v70.159H48.575z" class="f"/><path d="M53.209 21.045c.576-.766 1.663-.92 2.429-.344h0l12.521 9.412c.13.098.246.214.344.344.576.766.422 1.853-.344 2.429h0l-12.521 9.412c-.301.226-.666.348-1.042.348-.958 0-1.735-.777-1.735-1.735h0v-6.549h0-21.429a2.86 2.86 0 0 1 0-5.727h21.429v-6.549c0-.376.122-.742.348-1.042z" class="B f"/></g></g><g transform="translate(230.227 34.875)"><mask id="BN" class="B"><use xlink:href="#g"/></mask><g class="P"><use xlink:href="#g"/><path d="M63.704 40.893c5.473 9.133 3.353-8.644 3.353-13.086C67.056 12.465 51.977 0 33.528 0S0 12.465 0 27.807c0 4.443 1.123 9.361 3.353 13.086 5.47-9.136 17.069-16.357 30.175-16.357s24.703 7.224 30.175 16.357z" class="Q"/></g><path d="M57.221 48.645c5.78-5.09 10.24-12.498 10.24-20.067C67.46 12.892 52.109.149 33.329.149c-2.206 0-4.738-.336-6.826 0 15.696 2.518 27.305 14.586 27.305 28.428 0 7.569-4.46 14.977-10.24 20.067 0 0 3.413 5.017 5.12 6.689s5.934 4.682 8.533 5.017h5.12c1.234.159 2.481-.716 1.707-1.672-1.159-1.431-3.435-4.775-6.826-10.034z" fill="#eee" class="Q"/><g class="D Q"><ellipse cx="14.232" cy="28.753" rx="3.614" ry="3.622"/><ellipse cx="26.278" cy="28.753" rx="3.614" ry="3.622"/><ellipse cx="38.325" cy="28.753" rx="3.614" ry="3.622"/></g></g><g fill="#daf0f8"><path d="M38.597 25.773c3.034 0 5.486 2.841 5.486 6.323v.011c2.504.137 4.489 2.521 4.489 5.429 0 2.99-2.109 5.419-4.707 5.419H30.421c-2.599 0-4.707-2.429-4.707-5.419 0-2.932 2.006-5.326 4.52-5.429-.031-.172-.031-.344-.031-.526 0-1.707 1.194-3.093 2.68-3.093a2.41 2.41 0 0 1 1.07.251c.967-1.787 2.691-2.966 4.644-2.966M12.883 8.591c3.034 0 5.486 2.841 5.486 6.323v.011c2.504.137 4.489 2.521 4.489 5.429 0 2.99-2.109 5.419-4.707 5.419H4.707C2.109 25.773 0 23.344 0 20.355c0-2.932 2.006-5.326 4.52-5.429-.031-.172-.031-.344-.031-.526 0-1.707 1.194-3.093 2.68-3.093a2.41 2.41 0 0 1 1.07.251c.967-1.787 2.691-2.966 4.644-2.966"/><use xlink:href="#AY"/><use xlink:href="#AY" x="34.286" y="15.75"/></g><g transform="translate(98.571)"><mask id="BO" class="B"><use xlink:href="#h"/></mask><use xlink:href="#h" class="H"/><path mask="url(#BO)" d="M40-5.727h45.714v114.545H40z" class="I"/><path d="M40 65.864c4.931 0 8.25-3.981 8.571-4.295v-4.295c0-.881-5.714-1.836-17.143-2.864v17.182c.326-.557.681-1.103 1.108-1.61 2.272-2.734 4.231-4.118 7.464-4.118z" fill="#c3a79e"/><mask id="BP" class="B"><use xlink:href="#i"/></mask><use xlink:href="#i" class="H"/><path mask="url(#BP)" d="M40-5.727h45.714v114.545H40z" class="I"/><mask id="BQ" class="B"><use xlink:href="#j"/></mask><use xlink:href="#j" class="O"/><path fill="#e94957" mask="url(#BQ)" d="M40-5.727h45.714v114.545H40z"/><path d="M32.857 80.182l-8.571-10.023 2.857-2.864L40 73.023v4.295l-7.143 2.864z" class="J"/><mask id="BR" class="B"><use xlink:href="#k"/></mask><use xlink:href="#k" class="J"/><path mask="url(#BR)" d="M40-5.727h45.714v114.545H40z" class="X"/><mask id="BS" class="B"><use xlink:href="#l"/></mask><use xlink:href="#l" class="Y"/><path mask="url(#BS)" d="M40-5.727h45.714v114.545H40z" class="Z"/></g></g><g transform="translate(2407.143 7.15)"><mask id="BT" class="B"><use xlink:href="#m"/></mask><use fill="#ddf1fb" xlink:href="#m"/><path fill="#ceeaf9" mask="url(#BT)" d="M192.857 0h194.048v128.7H192.857z"/><g transform="translate(201.19 44.092)"><mask id="BU" class="B"><use xlink:href="#n"/></mask><use fill="#fafdff" xlink:href="#n"/><path fill="#f6fafe" mask="url(#BU)" d="M58.333 0h59.524v83.417H58.333z"/><mask id="BV" class="B"><use xlink:href="#o"/></mask><use fill="#388e3c" xlink:href="#o"/><path fill="#2a7a2e" mask="url(#BV)" d="M58.333 0h59.524v83.417H58.333z"/><mask id="BW" class="B"><use xlink:href="#p"/></mask><use fill="#4caf50" xlink:href="#p"/><path fill="#3c9e3f" mask="url(#BW)" d="M58.333 0h59.524v83.417H58.333z"/><path d="M100 22.642c0 7.239-5.863 13.108-13.095 13.108S73.81 29.88 73.81 22.642 79.672 9.533 86.905 9.533 100 15.403 100 22.642z" fill="#ffb204" class="C"/></g><g transform="translate(66.667 2.383)"><mask id="BX" class="B"><use xlink:href="#q"/></mask><use fill="#71e9bf" xlink:href="#q"/><path fill="#5de2b0" d="M42.857 0h47.619v126.317H42.857z" class="K"/><path d="M14.286 96.525H76.19v7.15H14.286z" class="B K"/><path d="M42.857 96.525H76.19v7.15H42.857z" class="K P"/><path d="M14.286 72.692H26.19v19.067H14.286zm16.666-14.3h11.905v33.367H30.952z" class="B K"/><path d="M47.619 23.833h11.905v67.925H47.619z" class="K P"/><path fill="#f6f5f5" d="M64.286 38.133H76.19v53.625H64.286z" class="K"/></g><g transform="translate(126.263 25.025)"><mask id="BY" class="B"><use xlink:href="#r"/></mask><use fill="#faab3e" xlink:href="#r"/><path fill="#f89c32" mask="url(#BY)" d="M57.07 3.575h57.143v29.792H57.07z"/><mask id="BZ" class="B"><use xlink:href="#s"/></mask><use xlink:href="#s" class="P"/><path fill="#f7f7f7" mask="url(#BZ)" d="M57.07 10.725h51.19v5.958H57.07z"/><path d="M105.699 10.725c1.415 0 2.562 1.149 2.562 2.567v19.892c0 1.418-1.147 2.567-2.562 2.567H9.632c-1.415 0-2.562-1.149-2.562-2.567V13.292c0-1.418 1.147-2.567 2.562-2.567h96.067zm0 .642H9.632c-1.023 0-1.86.801-1.918 1.812l-.003.113v19.892c0 1.025.8 1.863 1.808 1.922l.113.003h96.067c1.023 0 1.86-.801 1.918-1.812l.003-.113V13.292c0-1.025-.8-1.863-1.808-1.922l-.113-.003z" fill="#eee" class="C"/><mask id="Ba" class="B"><use xlink:href="#t"/></mask><use xlink:href="#t" class="P"/><path fill="#f7f7f7" mask="url(#Ba)" d="M57.07 14.3h53.571v5.958H57.07z"/><path d="M108.088 14.3a2.56 2.56 0 0 1 2.553 2.567v19.892a2.56 2.56 0 0 1-2.553 2.567H7.242a2.56 2.56 0 0 1-2.553-2.567V16.867A2.56 2.56 0 0 1 7.242 14.3h100.846zm0 .642H7.242a1.92 1.92 0 0 0-1.912 1.812l-.003.113v19.892a1.92 1.92 0 0 0 1.802 1.922l.113.003h100.846A1.92 1.92 0 0 0 110 36.871l.003-.113V16.867a1.92 1.92 0 0 0-1.802-1.922l-.113-.003z" fill="#eee" class="C"/><mask id="Bb" class="B"><use xlink:href="#u"/></mask><use fill="#ffd666" xlink:href="#u"/><path fill="#ffc447" mask="url(#Bb)" d="M57.07 19.067h58.333v89.375H57.07z"/></g><g transform="translate(158.333)"><mask id="Bc" class="B"><use xlink:href="#v"/></mask><use fill="#2196f3" xlink:href="#v" class="C"/><path fill="#1883ef" mask="url(#Bc)" d="M25-2.383h25v78.65H25z"/></g></g><g transform="translate(2836.484 9.464)"><g opacity=".4" class="C N"><path d="M310.785 52.304c-.9-9.287-5.226-18.587-12.718-25.235-11.676-10.359-29.338-12.97-44.818-10.575-6.483 1.003-12.913 2.779-19.551 2.219-9.681-.814-18.212-6.408-27.026-10.503-5.594-2.6-57.405 10.052-82.685 2.684C72.289-4.175 65.181.762 58.367 2.057 43.903 4.809 32.042 15.206 30.626 29c-.642 6.25 5.874 17.261 3.817 23.184-2.087 6.009-17.315 24.411-16.938 38.407.374 13.945 3.88 18.281 8.838 25.369h3.962 259.072 8.593c3.086-7.181 5.504-12.925 1.892-22.356-2.888-7.534 4.958-13.739 7.991-20.755 2.699-6.239 3.589-13.746 2.931-20.545z" opacity=".47"/><path d="M294.893 106.978c1.57-8.116-.948-15.038-1.573-22.993-.592-7.534 1.978-13.867 3.406-21.042 1.27-6.384.846-13.617-.747-19.892-2.176-8.568-7.191-16.503-14.413-21.34-11.253-7.538-26.264-6.648-38.696-1.465-5.207 2.17-10.249 5.059-15.828 5.792-8.133 1.065-132.079-2.581-140.005-4.768-10.786-2.978-22.624-3.197-32.801 1.503-11.539 5.33-19.741 17.359-18.783 30.606.434 6.004 2.656 11.926 1.869 17.889-.796 6.049-4.252 11.108-6.082 16.804-2.495 7.774-2.725 19.2 1.29 27.09h259.659a33.84 33.84 0 0 0 2.702-8.185z" opacity=".43"/><path d="M326.902 116.758H.793c-.436 0-.793-.359-.793-.798h0c0-.439.356-.798.793-.798h326.11c.436 0 .793.359.793.798h0c0 .444-.356.798-.793.798z"/></g><g transform="translate(82.488)"><mask id="Bd" class="B"><use xlink:href="#w"/></mask><use fill="#3b7696" xlink:href="#w"/><path d="M158.408-2.149H4.31C.74-2.149-2.155.737-2.155 4.297v97.586c0 4.248 3.435 7.692 7.673 7.692h151.683c4.238 0 7.673-3.444 7.673-7.692V4.297c0-3.56-2.895-6.446-6.466-6.446zm0 2.149c2.381 0 4.31 1.924 4.31 4.297v95.437c0 4.248-3.435 7.692-7.673 7.692H7.673c-4.238 0-7.673-3.444-7.673-7.692V4.297C0 1.924 1.93 0 4.31 0h154.098z" fill="#286480" mask="url(#Bd)" class="C"/><path fill="#2d6283" mask="url(#Bd)" d="M81.359-2.686h96.985V114.41H81.359z"/><mask id="Be" class="B"><use xlink:href="#x"/></mask><use fill="#333" xlink:href="#x" class="C"/><path d="M56.039 78.422c.593 0 1.074.482 1.074 1.077v13.96c0 .595-.481 1.077-1.074 1.077H42.023c-.593 0-1.074-.482-1.074-1.077v-13.96c0-.595.481-1.077 1.074-1.077h14.016zm43.104 0c.593 0 1.074.482 1.074 1.077v13.96c0 .595-.481 1.077-1.074 1.077H85.128c-.593 0-1.074-.482-1.074-1.077v-13.96c0-.595.481-1.077 1.074-1.077h14.016zm-21.552 0c.593 0 1.074.482 1.074 1.077v13.96c0 .595-.481 1.077-1.074 1.077H63.575c-.593 0-1.074-.482-1.074-1.077v-13.96c0-.595.481-1.077 1.074-1.077h14.016zm43.104 0c.593 0 1.074.482 1.074 1.077v13.96c0 .595-.481 1.077-1.074 1.077H106.68c-.593 0-1.074-.482-1.074-1.077v-13.96c0-.595.481-1.077 1.074-1.077h14.016zm21.552 0c.593 0 1.074.482 1.074 1.077v13.96c0 .595-.481 1.077-1.074 1.077h-14.016c-.593 0-1.074-.482-1.074-1.077v-13.96c0-.595.481-1.077 1.074-1.077h14.016zM56.039 56.936c.593 0 1.074.482 1.074 1.077v13.96c0 .595-.481 1.077-1.074 1.077H42.023c-.593 0-1.074-.482-1.074-1.077v-13.96c0-.595.481-1.077 1.074-1.077h14.016zm43.104 0c.593 0 1.074.482 1.074 1.077v13.96c0 .595-.481 1.077-1.074 1.077H85.128c-.593 0-1.074-.482-1.074-1.077v-13.96c0-.595.481-1.077 1.074-1.077h14.016zm-21.552 0c.593 0 1.074.482 1.074 1.077v13.96c0 .595-.481 1.077-1.074 1.077H63.575c-.593 0-1.074-.482-1.074-1.077v-13.96c0-.595.481-1.077 1.074-1.077h14.016zm43.104 0c.593 0 1.074.482 1.074 1.077v13.96c0 .595-.481 1.077-1.074 1.077H106.68c-.593 0-1.074-.482-1.074-1.077v-13.96c0-.595.481-1.077 1.074-1.077h14.016zm21.552 0c.593 0 1.074.482 1.074 1.077v13.96c0 .595-.481 1.077-1.074 1.077h-14.016c-.593 0-1.074-.482-1.074-1.077v-13.96c0-.595.481-1.077 1.074-1.077h14.016zM56.039 35.451c.593 0 1.074.482 1.074 1.077v13.96c0 .595-.481 1.077-1.074 1.077H42.023c-.593 0-1.074-.482-1.074-1.077v-13.96c0-.595.481-1.077 1.074-1.077h14.016zm43.104 0c.593 0 1.074.482 1.074 1.077v13.96c0 .595-.481 1.077-1.074 1.077H85.128c-.593 0-1.074-.482-1.074-1.077v-13.96c0-.595.481-1.077 1.074-1.077h14.016zm-21.552 0c.593 0 1.074.482 1.074 1.077v13.96c0 .595-.481 1.077-1.074 1.077H63.575c-.593 0-1.074-.482-1.074-1.077v-13.96c0-.595.481-1.077 1.074-1.077h14.016zm43.104 0c.593 0 1.074.482 1.074 1.077v13.96c0 .595-.481 1.077-1.074 1.077H106.68c-.593 0-1.074-.482-1.074-1.077v-13.96c0-.595.481-1.077 1.074-1.077h14.016zm21.552 0c.593 0 1.074.482 1.074 1.077v13.96c0 .595-.481 1.077-1.074 1.077h-14.016c-.593 0-1.074-.482-1.074-1.077v-13.96c0-.595.481-1.077 1.074-1.077h14.016zM56.039 13.966c.593 0 1.074.482 1.074 1.077v13.96c0 .595-.481 1.077-1.074 1.077H42.023c-.593 0-1.074-.482-1.074-1.077v-13.96c0-.595.481-1.077 1.074-1.077h14.016zm43.104 0c.593 0 1.074.482 1.074 1.077v13.96c0 .595-.481 1.077-1.074 1.077H85.128c-.593 0-1.074-.482-1.074-1.077v-13.96c0-.595.481-1.077 1.074-1.077h14.016zm-21.552 0c.593 0 1.074.482 1.074 1.077v13.96c0 .595-.481 1.077-1.074 1.077H63.575c-.593 0-1.074-.482-1.074-1.077v-13.96c0-.595.481-1.077 1.074-1.077h14.016zm43.104 0c.593 0 1.074.482 1.074 1.077v13.96c0 .595-.481 1.077-1.074 1.077H106.68c-.593 0-1.074-.482-1.074-1.077v-13.96c0-.595.481-1.077 1.074-1.077h14.016zm21.552 0c.593 0 1.074.482 1.074 1.077v13.96c0 .595-.481 1.077-1.074 1.077h-14.016c-.593 0-1.074-.482-1.074-1.077v-13.96c0-.595.481-1.077 1.074-1.077h14.016z" opacity=".4" class="B g"/><path d="M51.728 91.313c.296 0 .536.24.536.537s-.24.537-.536.537h-5.394c-.296 0-.536-.24-.536-.537s.24-.537.536-.537h5.394zm43.104 0c.296 0 .536.24.536.537s-.24.537-.536.537h-5.394c-.296 0-.536-.24-.536-.537s.24-.537.536-.537h5.394zm-21.552 0c.296 0 .536.24.536.537s-.24.537-.536.537h-5.394c-.296 0-.536-.24-.536-.537s.24-.537.536-.537h5.394zm43.104 0c.296 0 .536.24.536.537s-.24.537-.536.537h-5.394c-.296 0-.536-.24-.536-.537s.24-.537.536-.537h5.394zm21.552 0c.296 0 .536.24.536.537s-.24.537-.536.537h-5.394c-.296 0-.536-.24-.536-.537s.24-.537.536-.537h5.394zM51.728 69.828c.296 0 .536.24.536.537s-.24.537-.536.537h-5.394c-.296 0-.536-.24-.536-.537s.24-.537.536-.537h5.394zm43.104 0c.296 0 .536.24.536.537s-.24.537-.536.537h-5.394c-.296 0-.536-.24-.536-.537s.24-.537.536-.537h5.394zm-21.552 0c.296 0 .536.24.536.537s-.24.537-.536.537h-5.394c-.296 0-.536-.24-.536-.537s.24-.537.536-.537h5.394zm43.104 0c.296 0 .536.24.536.537s-.24.537-.536.537h-5.394c-.296 0-.536-.24-.536-.537s.24-.537.536-.537h5.394zm21.552 0c.296 0 .536.24.536.537s-.24.537-.536.537h-5.394c-.296 0-.536-.24-.536-.537s.24-.537.536-.537h5.394zM51.728 48.342c.296 0 .536.24.536.537s-.24.537-.536.537h-5.394c-.296 0-.536-.24-.536-.537s.24-.537.536-.537h5.394zm43.104 0c.296 0 .536.24.536.537s-.24.537-.536.537h-5.394c-.296 0-.536-.24-.536-.537s.24-.537.536-.537h5.394zm-21.552 0c.296 0 .536.24.536.537s-.24.537-.536.537h-5.394c-.296 0-.536-.24-.536-.537s.24-.537.536-.537h5.394zm43.104 0c.296 0 .536.24.536.537s-.24.537-.536.537h-5.394c-.296 0-.536-.24-.536-.537s.24-.537.536-.537h5.394zm21.552 0c.296 0 .536.24.536.537s-.24.537-.536.537h-5.394c-.296 0-.536-.24-.536-.537s.24-.537.536-.537h5.394zM51.728 26.857c.296 0 .536.24.536.537s-.24.537-.536.537h-5.394c-.296 0-.536-.24-.536-.537s.24-.537.536-.537h5.394zm43.104 0c.296 0 .536.24.536.537s-.24.537-.536.537h-5.394c-.296 0-.536-.24-.536-.537s.24-.537.536-.537h5.394zm-21.552 0c.296 0 .536.24.536.537s-.24.537-.536.537h-5.394c-.296 0-.536-.24-.536-.537s.24-.537.536-.537h5.394zm43.104 0c.296 0 .536.24.536.537s-.24.537-.536.537h-5.394c-.296 0-.536-.24-.536-.537s.24-.537.536-.537h5.394zm21.552 0c.296 0 .536.24.536.537s-.24.537-.536.537h-5.394c-.296 0-.536-.24-.536-.537s.24-.537.536-.537h5.394z" class="D g"/><path fill="#222" d="M81.359-2.686h96.985V114.41H81.359z" class="E g"/><mask id="Bf" class="B"><use xlink:href="#y"/></mask><use fill="#a4beca" xlink:href="#y"/><path fill="#7eb2cb" mask="url(#Bf)" d="M81.359-2.686h96.985V114.41H81.359z"/><path fill="#444" d="M0 10.743h35.022v90.239H0z"/><path d="M0 5.371h35.022v5.371H0z" class="D"/><g class="e"><path d="M121.766 8.057h17.248c.296 0 .536.24.536.537s-.24.537-.536.537h-17.248c-.296 0-.536-.24-.536-.537s.24-.537.536-.537zm21.553 0h8.627c.296 0 .536.24.536.537s-.24.537-.536.537h-8.627c-.296 0-.536-.24-.536-.537s.24-.537.536-.537z"/><ellipse cx="115.304" cy="8.594" rx="2.155" ry="2.149"/></g></g><g transform="translate(219.524 40.148)"><mask id="Bg" class="B"><use xlink:href="#z"/></mask><use xlink:href="#z" class="H"/><path mask="url(#Bg)" d="M31.815-3.193h34.997v82.995H31.815z" class="I"/><path d="M31.815 47.881c3.66 0 6.92-2.959 7.158-3.192v-3.192c0-.653-4.772-1.185-14.317-1.596v12.768c.242-.413.505-.818.822-1.193 1.686-2.027 3.936-3.595 6.336-3.595z" style="mix-blend-mode:multiply" class="E F"/><mask id="Bh" class="B"><use xlink:href="#AA"/></mask><use xlink:href="#AA" class="H"/><path mask="url(#Bh)" d="M31.815-3.193h34.997v82.995H31.815z" class="I"/><mask id="Bi" class="B"><use xlink:href="#AB"/></mask><use xlink:href="#AB" class="D"/><path mask="url(#Bi)" d="M31.815-3.193h34.997v82.995H31.815z" class="S"/><path d="M26.247 59.053l-7.158-7.182 2.121-1.378 10.605 3.773v3.192l-5.568 1.596z" class="J"/><mask id="Bj" class="B"><use xlink:href="#AC"/></mask><use xlink:href="#AC" class="J"/><path mask="url(#Bj)" d="M31.815-3.193h34.997v82.995H31.815z" class="X"/><mask id="Bk" class="B"><use xlink:href="#AD"/></mask><use xlink:href="#AD" class="Y"/><path mask="url(#Bk)" d="M31.815-3.193h34.997v82.995H31.815z" class="Z"/></g><path d="M73.97 14.61c13.617 0 24.657 11.067 24.657 24.719v61.488c0 13.652-11.039 24.719-24.657 24.719s-24.657-11.067-24.657-24.719V39.329c0-13.652 11.039-24.719 24.657-24.719z" fill="#333"/><path d="M73.687 16.766h.197c12.464 0 22.567 10.129 22.567 22.624v61.123c0 12.495-10.104 22.624-22.567 22.624h-.197c-12.464 0-22.567-10.129-22.567-22.624V39.39c0-12.495 10.104-22.624 22.567-22.624z" fill="#222"/><path d="M77.478 108.011l-3.314 5.398c-.08.13-.25.171-.38.091-.036-.022-.066-.052-.088-.087l-3.407-5.339a11.66 11.66 0 0 0 3.497.533c1.29 0 2.532-.21 3.692-.596zm-8.915-.635l-6.157 1.472c-.149.036-.298-.056-.333-.205-.01-.041-.01-.083-.001-.124l1.363-6.189a11.73 11.73 0 0 0 5.129 5.045zm15.667-5.225l1.471 6.163c.035.149-.056.298-.205.333-.041.01-.083.01-.124.001l-6.183-1.364a11.73 11.73 0 0 0 5.041-5.133zM73.786 87.401a9.52 9.52 0 1 1 0 19.042 9.52 9.52 0 1 1 0-19.042zm-11.675 9.521c0 1.291.209 2.534.596 3.695L57.313 97.3c-.13-.08-.171-.25-.091-.38.022-.036.051-.066.087-.088l5.335-3.412a11.69 11.69 0 0 0-.534 3.502zm22.754-3.694l5.393 3.316c.13.08.171.25.091.38-.022.036-.051.066-.087.088l-5.335 3.411a11.69 11.69 0 0 0 .533-3.501c0-1.291-.209-2.533-.596-3.694zm-22.666-8.031l6.183 1.364a11.73 11.73 0 0 0-5.041 5.134l-1.471-6.164c-.035-.149.056-.298.205-.333.041-.01.083-.01.124-.001zm23.3.004c.01.041.01.083.001.124l-1.363 6.189a11.73 11.73 0 0 0-5.13-5.046l6.158-1.472c.149-.036.298.056.333.205zm-11.711-4.857c.036.022.066.052.088.087l3.409 5.34a11.66 11.66 0 0 0-3.499-.534c-1.29 0-2.531.209-3.691.596l3.313-5.398c.08-.13.25-.171.38-.091z" fill="#5a5c5c" opacity=".702"/><ellipse fill="#ff4560" cx="73.786" cy="39.452" rx="18.133" ry="18.149"/><g class="C"><path d="M79.922 46.045c-6.619 0-11.983-5.37-11.983-11.995a11.95 11.95 0 0 1 2.805-7.705c-5.403 1.736-9.315 6.801-9.315 12.785 0 7.418 6.007 13.43 13.418 13.43 5.979 0 11.039-3.916 12.773-9.323-2.083 1.751-4.767 2.809-7.699 2.809z" class="B"/><use xlink:href="#AZ" class="h"/><use xlink:href="#AZ" x="-164.643" y="66.237" fill="#d2d2d2"/><g class="h"><use xlink:href="#AZ" x="-60.055" y="32.705"/><path d="M28.667 47.373h0c-.676-4.039-3.872-7.204-7.952-7.873h0c4.079-.669 7.276-3.834 7.952-7.873h0c.676 4.039 3.872 7.204 7.952 7.873h0c-4.079.669-7.275 3.834-7.952 7.873z"/></g><path d="M38.666 31.604h0c-.453-2.71-2.599-4.834-5.336-5.283h0c2.737-.449 4.882-2.573 5.336-5.283h0c.453 2.71 2.599 4.834 5.336 5.283h0c-2.737.449-4.882 2.573-5.336 5.283z" fill="#d2d2d2"/><path d="M287.907 49.078h-4.504v-4.46H280.4v4.46h-4.504v2.973h4.504v4.46h3.003v-4.46h4.504z" class="h"/></g></g><g transform="translate(3200)"><g transform="translate(75 27.273)"><path d="M4.545 0h252.273c2.51 0 4.545 2.035 4.545 4.545v136.364c0 2.51-2.035 4.545-4.545 4.545H4.545c-2.51 0-4.545-2.035-4.545-4.545V4.545C0 2.035 2.035 0 4.545 0z" class="L"/><path d="M9.091 9.091h243.182v127.273H9.091z" class="B"/><g transform="translate(93.182 31.818)"><mask id="Bl" class="B"><use xlink:href="#AE"/></mask><use xlink:href="#AE" class="i"/><g mask="url(#Bl)"><g transform="translate(15.016 18.019)"><use xlink:href="#AF" class="M"/><path d="M27.029 46.601c3.382 0 6.332-2.896 6.553-3.1v-3.1c0-.57-4.095-1.086-12.286-1.55v11.624c.224-.36.73-.928 1.023-1.256 1.558-1.768 2.493-2.619 4.71-2.619z" style="mix-blend-mode:multiply" class="E F"/><g class="M"><use xlink:href="#AG"/><use xlink:href="#AH"/></g><mask id="Bm" class="B"><use xlink:href="#AI"/></mask><use xlink:href="#AI" class="B"/><g class="j"><path mask="url(#Bm)" d="M0 51.251h17.2v17.824H0zm37.677 0h16.381v17.824H37.677z"/><path d="M37.268 17.541c3.686 1.162 6.962 10.251 6.962 6.2s3.293-11.328-2.457-15.886S30.863-2.16 27.029.879 18.75 5.361 13.638 5.361s-6.389 2.026-5.75 4.558 1.917 4.558 0 6.584-1.917 3.545 0 5.571c1.278 1.351 2.334 2.939 3.17 4.766 1.365-6.975 4.778-9.945 10.238-8.912 8.191 1.55 12.286-1.55 15.972-.387z"/></g></g></g></g><circle cx="160.227" cy="39.772" r="10.227" class="B"/><circle cx="160.227" cy="39.772" r="6.818" class="k"/><path d="M256.818 0c2.51 0 4.545 2.035 4.545 4.545v136.364c0 2.51-2.035 4.545-4.545 4.545H134.091V0h122.727z" class="E L"/><path d="M259.364 0a2 2 0 0 1 2 2v141.455a2 2 0 0 1-2 2H134.091v-9.092l118.182.001V9.091L134.091 9.09V0h125.273z" class="l"/></g><g transform="translate(18.182 9.091)"><path d="M4.545 0h104.545c2.51 0 4.545 2.035 4.545 4.545v140.909c0 2.51-2.035 4.545-4.545 4.545H4.545C2.035 150 0 147.965 0 145.455V4.545C0 2.035 2.035 0 4.545 0z" class="L"/><path d="M6.818 11.364h100v131.818h-100z" class="B"/><g transform="translate(29.545 47.727)"><mask id="Bn" class="B"><use xlink:href="#AJ"/></mask><use xlink:href="#AJ" class="i"/><g mask="url(#Bn)"><g transform="translate(9.091 11.364)"><use xlink:href="#AK" class="M"/><path d="M17.045 30.666c2.133 0 3.993-1.906 4.132-2.04v-2.04c0-.375-2.583-.715-7.748-1.02v7.649c.141-.237.46-.611.645-.826.983-1.163 1.572-1.723 2.971-1.723z" style="mix-blend-mode:multiply" class="E F"/><g class="M"><use xlink:href="#AL"/><use xlink:href="#AM"/></g><mask id="Bo" class="B"><use xlink:href="#AN"/></mask><use xlink:href="#AN" class="B"/><g class="j"><path mask="url(#Bo)" d="M0 33.726h10.847v11.729H0zm23.76 0h10.331v11.729H23.76z"/><path d="M23.502 11.543c2.324.765 4.39 6.746 4.39 4.08s2.077-7.455-1.55-10.454-6.88-6.589-9.298-4.59-5.221 2.949-8.445 2.949-4.029 1.333-3.626 2.999 1.209 2.999 0 4.333-1.209 2.333 0 3.666c.806.889 1.472 1.934 1.999 3.136.861-4.59 3.013-6.544 6.457-5.864 5.165 1.02 7.748-1.02 10.072-.255z"/></g></g></g></g><circle cx="75" cy="52.273" r="6.818" class="B"/><circle cx="75" cy="52.273" r="4.545" class="k"/><path d="M109.091 0c2.51 0 4.545 2.035 4.545 4.545v140.909c0 2.51-2.035 4.545-4.545 4.545H56.818V0h52.273z" class="E L"/><path d="M109.091 0c2.51 0 4.545 2.035 4.545 4.545v140.909c0 2.51-2.035 4.545-4.545 4.545H56.818l-.001-6.819 50.001.001V11.364l-50.001-.001L56.818 0h52.273z" class="l"/></g><g transform="translate(309.091 68.182)"><path d="M4.545 0h63.636c2.51 0 4.545 2.035 4.545 4.545v113.636c0 2.51-2.035 4.545-4.545 4.545H4.545c-2.51 0-4.545-2.035-4.545-4.545V4.545C0 2.035 2.035 0 4.545 0z" class="L"/><path d="M6.818 6.818h59.091v109.091H6.818z" class="B"/><g transform="translate(15.909 31.818)"><mask id="Bp" class="B"><use xlink:href="#AO"/></mask><use xlink:href="#AO" class="i"/><g mask="url(#Bp)"><g transform="translate(6.818 9.091)"><use xlink:href="#AP" class="M"/><path d="M12.5 22.999c1.564 0 2.928-1.429 3.03-1.53v-1.53c0-.281-1.894-.536-5.682-.765v5.737c.104-.178.338-.458.473-.62.721-.872 1.153-1.293 2.178-1.293z" style="mix-blend-mode:multiply" class="E F"/><g class="M"><use xlink:href="#AQ"/><use xlink:href="#AR"/></g><mask id="Bq" class="B"><use xlink:href="#AS"/></mask><use xlink:href="#AS" class="B"/><g class="j"><path mask="url(#Bq)" d="M0 25.294h7.955v8.797H0zm17.424 0H25v8.797h-7.576z"/><path d="M17.235 8.657c1.705.574 3.22 5.059 3.22 3.06s1.523-5.591-1.136-7.841S14.273-1.066 12.5.434 8.671 2.646 6.307 2.646s-2.955 1-2.659 2.25.886 2.25 0 3.249-.886 1.75 0 2.75c.591.667 1.08 1.451 1.466 2.352.631-3.442 2.21-4.908 4.735-4.398 3.788.765 5.682-.765 7.386-.191z"/></g></g></g></g><circle cx="50" cy="34.09" r="4.545" class="B"/><circle cx="50" cy="34.09" r="3.03" class="k"/><path d="M68.182 0c2.51 0 4.545 2.035 4.545 4.545v113.636c0 2.51-2.035 4.545-4.545 4.545H36.364V0h31.818z" class="E L"/><path d="M68.182 0c2.51 0 4.545 2.035 4.545 4.545v113.636c0 2.51-2.035 4.545-4.545 4.545H36.364v-6.818h29.545V6.818H36.364V0h31.818z" class="l"/></g></g><g transform="translate(3600)"><mask id="Br" class="B"><use xlink:href="#AT"/></mask><g mask="url(#Br)" class="C"><g transform="translate(1.036 .107)"><use xlink:href="#Aa" fill="#d9272e"/><use xlink:href="#Ab" class="B"/><g fill="#232422"><use xlink:href="#Ac"/><use xlink:href="#Ad"/><use xlink:href="#Ae"/><use xlink:href="#Af"/></g></g></g></g><g transform="translate(0 250)"><mask id="Bs" class="B"><use xlink:href="#AV" href="#AT"/></mask><g mask="url(#Bs)" class="C"><g transform="translate(1.036 .107)"><use xlink:href="#Aa" fill="#d9272e"/><g class="B"><use xlink:href="#Ab"/><use xlink:href="#Ac"/><use xlink:href="#Ad"/><use xlink:href="#Ae"/><use xlink:href="#Af"/></g></g></g></g></g></svg>