<?xml version="1.0" encoding="utf-8"?><svg width="160" height="160" viewBox="0 0 112 112" xmlns="http://www.w3.org/2000/svg" xmlns:xlink="http://www.w3.org/1999/xlink"><view id="icon-aftereffects-24" viewBox="0 0 16 16"/><svg width="16" height="16" fill="none" viewBox="0 0 16 16" xmlns="http://www.w3.org/2000/svg"><path d="M5.673 8.429h1.113a2.644 2.644 0 01-.04-.17c-.018-.081-.038-.17-.059-.235a96.435 96.435 0 01-.12-.377l-.126-.401a13.89 13.89 0 01-.117-.388 39.435 39.435 0 01-.095-.342h-.007c-.04.19-.089.379-.148.564-.066.211-.133.427-.2.648-.03.095-.059.203-.088.31-.038.143-.076.283-.113.39z" fill="url(#aapaint0_linear_2567_3690)"/><path d="M9.627 8.234h.923c.113 0 .196-.001.25-.003a.496.496 0 00.103-.011v-.042a1.19 1.19 0 00-.015-.252.576.576 0 00-.571-.402.612.612 0 00-.581.331 1.48 1.48 0 00-.109.38z" fill="url(#aapaint1_linear_2567_3690)"/><path fill-rule="evenodd" clip-rule="evenodd" d="M4 1.333a2 2 0 00-2 2v9.334a2 2 0 002 2h8a2 2 0 002-2V3.333a2 2 0 00-2-2H4zM7.047 9.18H5.419l-.331 1.073a.083.083 0 01-.085.063h-.825c-.047 0-.063-.025-.049-.077l1.41-4.003c.014-.042.028-.09.042-.144a1.505 1.505 0 00.03-.306.044.044 0 01.048-.03h1.12c.033 0 .052.013.056.036l1.6 4.454c.014.047 0 .07-.042.07h-.916a.065.065 0 01-.07-.049l-.36-1.087zm3.973-.385H9.63c.02.143.069.28.143.404.08.117.19.21.321.264.18.08.375.122.572.121a1.924 1.924 0 00.806-.154c.023-.019.035-.007.035.035v.67a.104.104 0 01-.01.053.102.102 0 01-.032.031c-.146.07-.3.12-.458.152a2.83 2.83 0 01-.571.022 2.01 2.01 0 01-.839-.155 1.496 1.496 0 01-.55-.416 1.63 1.63 0 01-.303-.574 2.262 2.262 0 01.018-1.332c.07-.219.182-.422.328-.599.144-.175.324-.317.528-.416.23-.106.48-.158.733-.151.246-.004.49.044.717.141.18.082.34.207.461.363.116.149.204.317.261.497.056.173.084.354.085.536 0 .103-.004.197-.01.281-.007.05-.016.1-.028.15a.064.064 0 01-.063.056 1.63 1.63 0 00-.145.01c-.045.006-.113.006-.182.006l-.108.001c-.101.003-.208.004-.32.004z" fill="url(#aapaint2_linear_2567_3690)"/><defs><linearGradient id="aapaint0_linear_2567_3690" x1="8" y1="1.333" x2="8" y2="14.667" gradientUnits="userSpaceOnUse"><stop stop-color="#ED73CC"/><stop offset="1" stop-color="#E248C2"/></linearGradient><linearGradient id="aapaint1_linear_2567_3690" x1="8" y1="1.333" x2="8" y2="14.667" gradientUnits="userSpaceOnUse"><stop stop-color="#ED73CC"/><stop offset="1" stop-color="#E248C2"/></linearGradient><linearGradient id="aapaint2_linear_2567_3690" x1="8" y1="1.333" x2="8" y2="14.667" gradientUnits="userSpaceOnUse"><stop stop-color="#ED73CC"/><stop offset="1" stop-color="#E248C2"/></linearGradient></defs></svg><view id="icon-audio-24" viewBox="16 0 16 16"/><svg width="16" height="16" fill="none" viewBox="0 0 16 16" x="16" xmlns="http://www.w3.org/2000/svg"><path fill-rule="evenodd" clip-rule="evenodd" d="M4 1.333a2 2 0 00-2 2v9.334a2 2 0 002 2h8a2 2 0 002-2V3.333a2 2 0 00-2-2H4zm2.923 6.063L8.25 7.08l1.362-.304a.334.334 0 01.406.325v1.097a.667.667 0 01-.47.638l-.21.064a.963.963 0 00-.68.92v.227a.712.712 0 00.904.686l.098-.027a1.371 1.371 0 001.002-1.32v-3.72a.998.998 0 00-1.184-.982l-1.228.23-1.714.362a.667.667 0 00-.529.652v3.14c0 .141-.088.267-.22.314l-.47.17a1 1 0 00-.66.94v.243a.667.667 0 00.877.632l.22-.073c.545-.18.913-.69.913-1.265v-2.31c0-.153.106-.288.256-.323z" fill="url(#abpaint0_linear_2567_3688)"/><defs><linearGradient id="abpaint0_linear_2567_3688" x1="8" y1="1.333" x2="8" y2="14.667" gradientUnits="userSpaceOnUse"><stop stop-color="#69A3FB"/><stop offset="1" stop-color="#477EF7"/></linearGradient></defs></svg><view id="icon-bucket-24" viewBox="0 16 16 16"/><svg width="16" height="16" viewBox="0 0 24 24" fill="none" y="16" xmlns="http://www.w3.org/2000/svg"><path fill-rule="evenodd" clip-rule="evenodd" d="M20.994 4.594A.708.708 0 0021 4.5C21 3.12 16.97 2 12 2S3 3.12 3 4.5c0 .032.002.063.006.094L4 19.5c0 1.38 3.582 2.5 8 2.5s8-1.12 8-2.5l.994-14.906zM8.5 8.5a2.5 2.5 0 100 5 2.5 2.5 0 000-5zm5 1.5a.5.5 0 01.5-.5h3.5a.5.5 0 01.5.5v3.5a.5.5 0 01-.5.5H14a.5.5 0 01-.5-.5V10zm-2 4.5a.5.5 0 01.407.21l2.5 3.5A.5.5 0 0114 19H9a.5.5 0 01-.407-.79l2.5-3.5a.5.5 0 01.407-.21zm8.244-10.137a.162.162 0 010 .274c-.333.219-.881.454-1.648.667C16.577 5.726 14.421 6 12 6c-2.421 0-4.577-.274-6.096-.696-.767-.213-1.315-.448-1.648-.667a.161.161 0 010-.274c.333-.219.881-.454 1.648-.667C7.423 3.274 9.579 3 12 3c2.421 0 4.577.274 6.096.696.767.213 1.315.448 1.648.667z" fill="url(#acpaint0_linear_8121_24)"/><defs><linearGradient id="acpaint0_linear_8121_24" x1="12" y1="2" x2="12" y2="22" gradientUnits="userSpaceOnUse"><stop stop-color="#888D95"/><stop offset="1" stop-color="#6E747D"/></linearGradient></defs></svg><view id="icon-bucket-share-24" viewBox="16 16 16 16"/><svg width="16" height="16" viewBox="0 0 24 24" fill="none" x="16" y="16" xmlns="http://www.w3.org/2000/svg"><path fill-rule="evenodd" clip-rule="evenodd" d="M20.994 4.594A.708.708 0 0021 4.5C21 3.12 16.97 2 12 2S3 3.12 3 4.5c0 .032.002.063.006.094L4 19.5c0 1.38 3.582 2.5 8 2.5s8-1.12 8-2.5l.994-14.906zM11 14a2 2 0 100-4 2 2 0 000 4zm3.403 4c.3 0 .535-.265.456-.555a4.002 4.002 0 00-7.719 0c-.079.29.156.555.457.555h6.806zm-1.523-4.353A2.49 2.49 0 0013.5 12a2.49 2.49 0 00-.62-1.647c-.117-.134-.058-.353.12-.353a2 2 0 010 4c-.178 0-.237-.22-.12-.353zM15.916 18a.54.54 0 01-.517-.437 4.484 4.484 0 00-1.738-2.693c-.14-.103-.07-.33.101-.297a4.005 4.005 0 013.097 2.872c.08.29-.156.555-.456.555h-.487zm3.828-13.637a.162.162 0 010 .274c-.333.219-.881.454-1.648.667C16.577 5.726 14.421 6 12 6c-2.421 0-4.577-.274-6.096-.696-.767-.213-1.315-.448-1.648-.667a.161.161 0 010-.274c.333-.219.881-.454 1.648-.667C7.423 3.274 9.579 3 12 3c2.421 0 4.577.274 6.096.696.767.213 1.315.448 1.648.667z" fill="url(#adpaint0_linear_8121_130)"/><defs><linearGradient id="adpaint0_linear_8121_130" x1="12" y1="2" x2="12" y2="22" gradientUnits="userSpaceOnUse"><stop stop-color="#888D95"/><stop offset="1" stop-color="#6E747D"/></linearGradient></defs></svg><view id="icon-cad-24" viewBox="32 0 16 16"/><svg width="16" height="16" fill="none" viewBox="0 0 16 16" x="32" xmlns="http://www.w3.org/2000/svg"><path d="M6 6.833c0-.092.075-.166.167-.166h1c.092 0 .166.074.166.166v1A.167.167 0 017.167 8h-1A.167.167 0 016 7.833v-1z" fill="url(#aepaint0_linear_2567_3682)"/><path fill-rule="evenodd" clip-rule="evenodd" d="M4 1.333a2 2 0 00-2 2v9.334a2 2 0 002 2h8a2 2 0 002-2V3.333a2 2 0 00-2-2H4zM6.333 2H7v4h.333c.369 0 .667.298.667.667V7h5.333v.667H8V8a.667.667 0 01-.667.667H7V14h-.667V8.667H6A.667.667 0 015.333 8v-.333H2.667V7h2.666v-.333C5.333 6.298 5.632 6 6 6h.333V2z" fill="url(#aepaint1_linear_2567_3682)"/><defs><linearGradient id="aepaint0_linear_2567_3682" x1="8" y1="1.333" x2="8" y2="14.667" gradientUnits="userSpaceOnUse"><stop stop-color="#FB6361"/><stop offset="1" stop-color="#F23433"/></linearGradient><linearGradient id="aepaint1_linear_2567_3682" x1="8" y1="1.333" x2="8" y2="14.667" gradientUnits="userSpaceOnUse"><stop stop-color="#FB6361"/><stop offset="1" stop-color="#F23433"/></linearGradient></defs></svg><view id="icon-compressed-24" viewBox="32 16 16 16"/><svg width="16" height="16" fill="none" viewBox="0 0 16 16" x="32" y="16" xmlns="http://www.w3.org/2000/svg"><path fill-rule="evenodd" clip-rule="evenodd" d="M4 1.333a2 2 0 00-2 2v9.334a2 2 0 002 2h8a2 2 0 002-2V3.333a2 2 0 00-2-2H4zm3.333 1.334h1.334v.666H7.333v-.666zm0 1.333h1.334v.667H7.333V4zm1.334 1.333H7.333V6h1.334v-.667zM7.333 6.667h1.334v.666H7.333v-.666zM8.667 8H7.333v.667h1.334V8zM7.333 9.333h1.334v1.334a.667.667 0 11-1.334 0V9.333z" fill="url(#afpaint0_linear_2567_3684)"/><defs><linearGradient id="afpaint0_linear_2567_3684" x1="8" y1="1.333" x2="8" y2="14.667" gradientUnits="userSpaceOnUse"><stop stop-color="#888D95"/><stop offset="1" stop-color="#6E747D"/></linearGradient></defs></svg><view id="icon-dmg-24" viewBox="0 32 16 16"/><svg width="16" height="16" fill="none" viewBox="0 0 16 16" y="32" xmlns="http://www.w3.org/2000/svg"><path d="M9.667 11.333a.333.333 0 000 .667h.666a.333.333 0 100-.667h-.666z" fill="url(#agpaint0_linear_2567_3685)"/><path d="M11.333 11.667a.333.333 0 11.667 0 .333.333 0 01-.667 0z" fill="url(#agpaint1_linear_2567_3685)"/><path fill-rule="evenodd" clip-rule="evenodd" d="M2.012 11.425A2.333 2.333 0 004.332 14h7.335a2.333 2.333 0 002.32-2.588c-.085-1.273-1.104-6.78-1.104-6.78a2.333 2.333 0 00-2.304-1.965H5.42A2.333 2.333 0 003.117 4.63s-.983 5.31-1.105 6.794zm1.321.242a1 1 0 011-1h7.334a1 1 0 110 2H4.333a1 1 0 01-1-1z" fill="url(#agpaint2_linear_2567_3685)"/><defs><linearGradient id="agpaint0_linear_2567_3685" x1="8" y1="2.667" x2="8" y2="14" gradientUnits="userSpaceOnUse"><stop stop-color="#888D95"/><stop offset="1" stop-color="#6E747D"/></linearGradient><linearGradient id="agpaint1_linear_2567_3685" x1="8" y1="2.667" x2="8" y2="14" gradientUnits="userSpaceOnUse"><stop stop-color="#888D95"/><stop offset="1" stop-color="#6E747D"/></linearGradient><linearGradient id="agpaint2_linear_2567_3685" x1="8" y1="2.667" x2="8" y2="14" gradientUnits="userSpaceOnUse"><stop stop-color="#888D95"/><stop offset="1" stop-color="#6E747D"/></linearGradient></defs></svg><view id="icon-excel-24" viewBox="16 32 16 16"/><svg width="16" height="16" fill="none" viewBox="0 0 16 16" x="16" y="32" xmlns="http://www.w3.org/2000/svg"><path fill-rule="evenodd" clip-rule="evenodd" d="M4 1.333a2 2 0 00-2 2v9.334a2 2 0 002 2h8a2 2 0 002-2V3.333a2 2 0 00-2-2H4zm4 5.778L6.667 5.333H5.333l2 2.667-2 2.667h1.334L8 8.889l1.333 1.778h1.334L8.667 8l2-2.667H9.333L8 7.111z" fill="url(#ahpaint0_linear_2567_3683)"/><defs><linearGradient id="ahpaint0_linear_2567_3683" x1="8" y1="1.333" x2="8" y2="14.667" gradientUnits="userSpaceOnUse"><stop stop-color="#29DD74"/><stop offset="1" stop-color="#09BF5B"/></linearGradient></defs></svg><view id="icon-executable-24" viewBox="32 32 16 16"/><svg width="16" height="16" fill="none" viewBox="0 0 16 16" x="32" y="32" xmlns="http://www.w3.org/2000/svg"><path fill-rule="evenodd" clip-rule="evenodd" d="M6.333 8a1.667 1.667 0 113.334 0 1.667 1.667 0 01-3.334 0zM8 7.333a.667.667 0 100 1.334.667.667 0 000-1.334z" fill="url(#aipaint0_linear_2567_3686)"/><path fill-rule="evenodd" clip-rule="evenodd" d="M4 1.333a2 2 0 00-2 2v9.334a2 2 0 002 2h8a2 2 0 002-2V3.333a2 2 0 00-2-2H4zm6.69 7.758a.6.6 0 00.12.662l.023.022a.728.728 0 11-1.03 1.029l-.021-.022a.6.6 0 00-.662-.12.6.6 0 00-.364.549v.062a.727.727 0 11-1.454 0v-.033a.6.6 0 00-.393-.55.6.6 0 00-.662.12l-.022.023a.726.726 0 01-1.242-.515.727.727 0 01.213-.514l.022-.022a.6.6 0 00.12-.662.6.6 0 00-.549-.364h-.062a.727.727 0 110-1.454h.033a.6.6 0 00.55-.393.6.6 0 00-.12-.662l-.023-.022a.727.727 0 111.03-1.029l.021.022a.6.6 0 00.662.12h.03a.6.6 0 00.363-.549v-.062a.727.727 0 111.454 0v.033a.6.6 0 00.364.55.6.6 0 00.662-.12l.022-.023a.727.727 0 111.029 1.03l-.022.021a.6.6 0 00-.12.662v.03a.6.6 0 00.549.363h.062a.727.727 0 110 1.454h-.033a.6.6 0 00-.55.364z" fill="url(#aipaint1_linear_2567_3686)"/><defs><linearGradient id="aipaint0_linear_2567_3686" x1="8" y1="1.333" x2="8" y2="14.667" gradientUnits="userSpaceOnUse"><stop stop-color="#888D95"/><stop offset="1" stop-color="#6E747D"/></linearGradient><linearGradient id="aipaint1_linear_2567_3686" x1="8" y1="1.333" x2="8" y2="14.667" gradientUnits="userSpaceOnUse"><stop stop-color="#888D95"/><stop offset="1" stop-color="#6E747D"/></linearGradient></defs></svg><view id="icon-experiencedesign-24" viewBox="48 0 16 16"/><svg width="16" height="16" fill="none" viewBox="0 0 16 16" x="48" xmlns="http://www.w3.org/2000/svg"><path d="M10.722 9.586V7.662a1.397 1.397 0 00-.28-.028 1.088 1.088 0 00-.493.112.907.907 0 00-.515.881c-.003.154.022.307.074.451.043.117.11.223.197.31.084.081.185.142.296.177.118.038.24.057.363.056.066 0 .127-.002.184-.007a.955.955 0 00.174-.028z" fill="url(#ajpaint0_linear_2567_3687)"/><path fill-rule="evenodd" clip-rule="evenodd" d="M4 1.333a2 2 0 00-2 2v9.334a2 2 0 002 2h8a2 2 0 002-2V3.333a2 2 0 00-2-2H4zm6.273 9.127a2.183 2.183 0 01-.941-.198 1.496 1.496 0 01-.66-.595 1.905 1.905 0 01-.239-.997 1.84 1.84 0 01.24-.924 1.76 1.76 0 01.698-.676 2.252 2.252 0 011.243-.248l.124.008V5.583a.113.113 0 01.096-.127h.682a.128.128 0 01.127.127V9.6c0 .08.004.167.01.26.008.095.014.18.018.254a.073.073 0 01-.042.07 3.237 3.237 0 01-.68.212c-.223.042-.45.063-.676.064zM8.322 5.832L7.01 7.942l1.402 2.284a.073.073 0 01.007.053c-.005.016-.02.027-.05.031h-1a.158.158 0 01-.148-.07c-.05-.098-.1-.192-.151-.286a20.834 20.834 0 01-.13-.247c-.095-.18-.195-.365-.3-.553-.106-.188-.21-.378-.314-.57H6.32c-.094.187-.191.375-.292.563-.102.188-.201.375-.3.56-.069.13-.14.253-.21.378l-.093.162a.1.1 0 01-.099.063h-.965a.03.03 0 01-.012 0 .03.03 0 01-.02-.027.07.07 0 01.01-.05l1.36-2.22-1.324-2.188c-.014-.019-.016-.034-.007-.046a.051.051 0 01.042-.018h.994a.147.147 0 01.063.011c.017.01.032.023.043.039.054.122.113.22.176.327.034.057.07.117.105.183.104.188.208.373.314.557.106.183.203.368.293.556h.007c.094-.192.189-.38.285-.563.096-.184.195-.368.296-.554.046-.085.092-.158.137-.23a3.73 3.73 0 00.156-.27.107.107 0 01.028-.045.102.102 0 01.056-.01h.923a.04.04 0 01.036.07z" fill="url(#ajpaint1_linear_2567_3687)"/><defs><linearGradient id="ajpaint0_linear_2567_3687" x1="8" y1="1.333" x2="8" y2="14.667" gradientUnits="userSpaceOnUse"><stop stop-color="#ED73CC"/><stop offset="1" stop-color="#E248C2"/></linearGradient><linearGradient id="ajpaint1_linear_2567_3687" x1="8" y1="1.333" x2="8" y2="14.667" gradientUnits="userSpaceOnUse"><stop stop-color="#ED73CC"/><stop offset="1" stop-color="#E248C2"/></linearGradient></defs></svg><view id="icon-folder-24" viewBox="48 16 16 16"/><svg width="16" height="16" fill="none" viewBox="0 0 16 16" x="48" y="16" xmlns="http://www.w3.org/2000/svg"><path d="M2 4c0-.736.597-1.333 1.333-1.333h3.724c.177 0 .347.07.472.195l.942.943A.667.667 0 008.943 4h3.724C13.403 4 14 4.597 14 5.333V12c0 .736-.597 1.333-1.333 1.333H3.333A1.333 1.333 0 012 12V4z" fill="url(#akpaint0_linear_2567_3670)"/><defs><linearGradient id="akpaint0_linear_2567_3670" x1="8" y1="2.667" x2="8" y2="13.333" gradientUnits="userSpaceOnUse"><stop stop-color="#FDC121"/><stop offset="1" stop-color="#F7A308"/></linearGradient></defs></svg><view id="icon-folder-backup-24" viewBox="48 32 16 16"/><svg width="16" height="16" fill="none" viewBox="0 0 16 16" x="48" y="32" xmlns="http://www.w3.org/2000/svg"><path d="M8.333 10.667V9.47l.529.529a.333.333 0 10.471-.471L8.236 8.43a.333.333 0 00-.472 0L6.667 9.529a.333.333 0 10.471.471l.529-.529v1.196h.666z" fill="url(#alpaint0_linear_2567_3672)"/><path fill-rule="evenodd" clip-rule="evenodd" d="M3.333 2.667C2.597 2.667 2 3.264 2 4v8c0 .736.597 1.333 1.333 1.333h9.334c.736 0 1.333-.597 1.333-1.333V5.333C14 4.597 13.403 4 12.667 4H8.943a.667.667 0 01-.472-.195l-.942-.943a.667.667 0 00-.472-.195H3.333zm5 8h1.16A1.47 1.47 0 0010.948 9.2c0-.81-.66-1.467-1.474-1.467h-.022A1.81 1.81 0 007.8 6.667 1.804 1.804 0 005.993 8.54c-.53.065-.94.515-.94 1.059 0 .59.48 1.067 1.072 1.067h1.542v1a.333.333 0 00.666 0v-1z" fill="url(#alpaint1_linear_2567_3672)"/><defs><linearGradient id="alpaint0_linear_2567_3672" x1="8" y1="2.667" x2="8" y2="13.333" gradientUnits="userSpaceOnUse"><stop stop-color="#FDC121"/><stop offset="1" stop-color="#F7A308"/></linearGradient><linearGradient id="alpaint1_linear_2567_3672" x1="8" y1="2.667" x2="8" y2="13.333" gradientUnits="userSpaceOnUse"><stop stop-color="#FDC121"/><stop offset="1" stop-color="#F7A308"/></linearGradient></defs></svg><view id="icon-folder-camera-uploads-24" viewBox="0 48 16 16"/><svg width="16" height="16" fill="none" viewBox="0 0 16 16" y="48" xmlns="http://www.w3.org/2000/svg"><path fill-rule="evenodd" clip-rule="evenodd" d="M8 10.667a2 2 0 100-4 2 2 0 000 4zM8 10a1.333 1.333 0 100-2.667A1.333 1.333 0 008 10z" fill="url(#ampaint0_linear_2567_3673)"/><path fill-rule="evenodd" clip-rule="evenodd" d="M3.333 2.667C2.597 2.667 2 3.264 2 4v8c0 .736.597 1.333 1.333 1.333h9.334c.736 0 1.333-.597 1.333-1.333V5.333C14 4.597 13.403 4 12.667 4H8.943a.667.667 0 01-.472-.195l-.942-.943a.667.667 0 00-.472-.195H3.333zm1.334 4c0-.369.298-.667.666-.667h5.334c.368 0 .666.298.666.667v4a.667.667 0 01-.666.666H5.333a.667.667 0 01-.666-.666v-4z" fill="url(#ampaint1_linear_2567_3673)"/><defs><linearGradient id="ampaint0_linear_2567_3673" x1="8" y1="2.667" x2="8" y2="13.333" gradientUnits="userSpaceOnUse"><stop stop-color="#FDC121"/><stop offset="1" stop-color="#F7A308"/></linearGradient><linearGradient id="ampaint1_linear_2567_3673" x1="8" y1="2.667" x2="8" y2="13.333" gradientUnits="userSpaceOnUse"><stop stop-color="#FDC121"/><stop offset="1" stop-color="#F7A308"/></linearGradient></defs></svg><view id="icon-folder-chat-24" viewBox="16 48 16 16"/><svg width="16" height="16" fill="none" viewBox="0 0 16 16" x="16" y="48" xmlns="http://www.w3.org/2000/svg"><path fill-rule="evenodd" clip-rule="evenodd" d="M3.333 2.667C2.597 2.667 2 3.264 2 4v8c0 .736.597 1.333 1.333 1.333h9.334c.736 0 1.333-.597 1.333-1.333V5.333C14 4.597 13.403 4 12.667 4H8.943a.667.667 0 01-.472-.195l-.942-.943a.667.667 0 00-.472-.195H3.333zM8 6c1.664 0 3 1.202 3 2.667 0 1.464-1.336 2.666-3 2.666a3.298 3.298 0 01-1.207-.225.463.463 0 00-.257-.029l-1.26.25a.232.232 0 01-.22-.076.226.226 0 01-.041-.228l.314-.83a.481.481 0 00-.045-.394A2.417 2.417 0 015 8.667C5 7.202 6.336 6 8 6z" fill="url(#anpaint0_linear_2567_3674)"/><defs><linearGradient id="anpaint0_linear_2567_3674" x1="8" y1="2.667" x2="8" y2="13.333" gradientUnits="userSpaceOnUse"><stop stop-color="#FDC121"/><stop offset="1" stop-color="#F7A308"/></linearGradient></defs></svg><view id="icon-folder-incoming-24" viewBox="32 48 16 16"/><svg width="16" height="16" fill="none" viewBox="0 0 16 16" x="32" y="48" xmlns="http://www.w3.org/2000/svg"><path fill-rule="evenodd" clip-rule="evenodd" d="M3.333 2.667C2.597 2.667 2 3.264 2 4v8c0 .736.597 1.333 1.333 1.333h9.334c.736 0 1.333-.597 1.333-1.333V5.333C14 4.597 13.403 4 12.667 4H8.943a.667.667 0 01-.472-.195l-.942-.943a.667.667 0 00-.472-.195H3.333zm2 4.333A.333.333 0 016 7v3.333a.333.333 0 11-.667 0V7zm3.098 3.569a.333.333 0 10.471-.471L7.805 9H11a.333.333 0 100-.667H7.805l1.097-1.097a.333.333 0 00-.471-.472L6.766 8.43a.332.332 0 00-.024.45l1.689 1.69z" fill="url(#aopaint0_linear_2567_3676)"/><defs><linearGradient id="aopaint0_linear_2567_3676" x1="8" y1="2.667" x2="8" y2="13.333" gradientUnits="userSpaceOnUse"><stop stop-color="#FDC121"/><stop offset="1" stop-color="#F7A308"/></linearGradient></defs></svg><view id="icon-folder-outgoing-24" viewBox="48 48 16 16"/><svg width="16" height="16" fill="none" viewBox="0 0 16 16" x="48" y="48" xmlns="http://www.w3.org/2000/svg"><path fill-rule="evenodd" clip-rule="evenodd" d="M3.333 2.667C2.597 2.667 2 3.264 2 4v8c0 .736.597 1.333 1.333 1.333h9.334c.736 0 1.333-.597 1.333-1.333V5.333C14 4.597 13.403 4 12.667 4H8.943a.667.667 0 01-.472-.195l-.942-.943a.667.667 0 00-.472-.195H3.333zM6 7a.333.333 0 10-.667 0v3.333a.333.333 0 10.667 0V7zm3.569-.236a.333.333 0 00-.471.472l1.097 1.097H7A.333.333 0 007 9h3.195l-1.097 1.098a.333.333 0 00.471.471l1.665-1.665a.332.332 0 00.024-.449l-1.689-1.69z" fill="url(#appaint0_linear_2567_3677)"/><defs><linearGradient id="appaint0_linear_2567_3677" x1="8" y1="2.667" x2="8" y2="13.333" gradientUnits="userSpaceOnUse"><stop stop-color="#FDC121"/><stop offset="1" stop-color="#F7A308"/></linearGradient></defs></svg><view id="icon-folder-public-24" viewBox="64 0 16 16"/><svg width="16" height="16" fill="none" viewBox="0 0 16 16" x="64" xmlns="http://www.w3.org/2000/svg"><path d="M2 4c0-.736.597-1.333 1.333-1.333h3.724c.177 0 .347.07.472.195l.942.943A.667.667 0 008.943 4h3.724C13.403 4 14 4.597 14 5.333V12c0 .736-.597 1.333-1.333 1.333h-5A.333.333 0 017.333 13V9a1 1 0 00-1-1h-4A.333.333 0 012 7.667V4z" fill="url(#aqpaint0_linear_2567_3675)"/><path d="M6.569 8.764A.332.332 0 016.667 9v4A.333.333 0 016 13V9.805l-3.431 3.43a.333.333 0 11-.471-.47l3.43-3.432H2.334a.333.333 0 010-.666h4a.333.333 0 01.236.097z" fill="url(#aqpaint1_linear_2567_3675)"/><defs><linearGradient id="aqpaint0_linear_2567_3675" x1="8" y1="2.667" x2="8" y2="13.333" gradientUnits="userSpaceOnUse"><stop stop-color="#FDC121"/><stop offset="1" stop-color="#F7A308"/></linearGradient><linearGradient id="aqpaint1_linear_2567_3675" x1="8" y1="2.667" x2="8" y2="13.333" gradientUnits="userSpaceOnUse"><stop stop-color="#FDC121"/><stop offset="1" stop-color="#F7A308"/></linearGradient></defs></svg><view id="icon-folder-sync-24" viewBox="64 16 16 16"/><svg width="16" height="16" fill="none" viewBox="0 0 16 16" x="64" y="16" xmlns="http://www.w3.org/2000/svg"><path fill-rule="evenodd" clip-rule="evenodd" d="M3.333 2.667C2.597 2.667 2 3.264 2 4v8c0 .736.597 1.333 1.333 1.333h9.334c.736 0 1.333-.597 1.333-1.333V5.333C14 4.597 13.403 4 12.667 4H8.943a.667.667 0 01-.472-.195l-.942-.943a.667.667 0 00-.472-.195H3.333zm6.937 6.18c.018-.117.12-.196.229-.178.108.019.182.128.165.244-.209 1.402-1.326 2.42-2.655 2.42-.883 0-1.696-.462-2.194-1.213l-.087.478a.203.203 0 01-.195.173.176.176 0 01-.038-.004c-.108-.023-.179-.135-.158-.25l.189-1.035c.02-.116.125-.192.233-.169l.968.202c.108.022.178.134.157.25-.02.115-.125.19-.233.168l-.545-.114c.42.672 1.13 1.088 1.903 1.088 1.132 0 2.083-.867 2.261-2.06zm.003-2.11c.021-.115.126-.19.234-.168.107.023.177.135.156.251l-.191 1.038a.22.22 0 01-.085.136.19.19 0 01-.149.031l-.964-.205c-.108-.023-.178-.135-.157-.25.021-.117.126-.192.234-.169l.529.113c-.42-.67-1.127-1.086-1.895-1.086-1.128 0-2.076.866-2.256 2.059a.204.204 0 01-.197.18.212.212 0 01-.031-.003c-.109-.02-.182-.129-.165-.245C5.548 7.017 6.66 6 7.985 6c.885 0 1.7.47 2.197 1.232l.09-.495z" fill="url(#arpaint0_linear_2567_3679)"/><defs><linearGradient id="arpaint0_linear_2567_3679" x1="8" y1="2.667" x2="8" y2="13.333" gradientUnits="userSpaceOnUse"><stop stop-color="#FDC121"/><stop offset="1" stop-color="#F7A308"/></linearGradient></defs></svg><view id="icon-folder-upload-24" viewBox="64 32 16 16"/><svg width="16" height="16" fill="none" viewBox="0 0 16 16" x="64" y="32" xmlns="http://www.w3.org/2000/svg"><path fill-rule="evenodd" clip-rule="evenodd" d="M3.333 2.667C2.597 2.667 2 3.264 2 4v8c0 .736.597 1.333 1.333 1.333h9.334c.736 0 1.333-.597 1.333-1.333V5.333C14 4.597 13.403 4 12.667 4H8.943a.667.667 0 01-.472-.195l-.942-.943a.667.667 0 00-.472-.195H3.333zm4.431 3.43c.13-.13.342-.13.472 0l1.666 1.667a.333.333 0 01-.471.472L8.333 7.138v2.529a.333.333 0 01-.666 0V7.138L6.569 8.236a.333.333 0 11-.471-.472l1.666-1.666zm-1.43 4.57a.333.333 0 100 .666h3.333a.333.333 0 100-.666H6.333z" fill="url(#aspaint0_linear_2567_3671)"/><defs><linearGradient id="aspaint0_linear_2567_3671" x1="8" y1="2.667" x2="8" y2="13.333" gradientUnits="userSpaceOnUse"><stop stop-color="#FDC121"/><stop offset="1" stop-color="#F7A308"/></linearGradient></defs></svg><view id="icon-folder-users-24" viewBox="64 48 16 16"/><svg width="16" height="16" fill="none" viewBox="0 0 16 16" x="64" y="48" xmlns="http://www.w3.org/2000/svg"><path fill-rule="evenodd" clip-rule="evenodd" d="M3.333 2.667C2.597 2.667 2 3.264 2 4v8c0 .736.597 1.333 1.333 1.333h9.334c.736 0 1.333-.597 1.333-1.333V5.333C14 4.597 13.403 4 12.667 4H8.943a.667.667 0 01-.472-.195l-.942-.943a.667.667 0 00-.472-.195H3.333zm4 6a1.333 1.333 0 100-2.667 1.333 1.333 0 000 2.667zm2.269 2.666c.2 0 .357-.176.304-.37a2.668 2.668 0 00-5.146 0c-.052.194.104.37.305.37h4.537zM8.587 8.431A1.66 1.66 0 009 7.333c0-.42-.156-.805-.413-1.098-.078-.089-.039-.235.08-.235a1.333 1.333 0 010 2.667c-.119 0-.158-.146-.08-.236zm2.024 2.902a.36.36 0 01-.345-.29 2.99 2.99 0 00-1.159-1.796c-.093-.07-.046-.22.068-.199 1 .193 1.8.944 2.064 1.915.053.194-.103.37-.304.37h-.325z" fill="url(#atpaint0_linear_2567_3680)"/><defs><linearGradient id="atpaint0_linear_2567_3680" x1="8" y1="2.667" x2="8" y2="13.333" gradientUnits="userSpaceOnUse"><stop stop-color="#FDC121"/><stop offset="1" stop-color="#F7A308"/></linearGradient></defs></svg><view id="icon-font-24" viewBox="0 64 16 16"/><svg width="16" height="16" fill="none" viewBox="0 0 16 16" y="64" xmlns="http://www.w3.org/2000/svg"><path d="M7.653 6.161L8.76 8.795h-2.24l1.134-2.634z" fill="url(#aupaint0_linear_2567_3661)"/><path fill-rule="evenodd" clip-rule="evenodd" d="M4 1.333a2 2 0 00-2 2v9.334a2 2 0 002 2h8a2 2 0 002-2V3.333a2 2 0 00-2-2H4zm2.37 7.818h2.523l.395.937c.128.305.192.528.192.669a.335.335 0 01-.137.269c-.091.073-.267.117-.526.13v.177h2.571v-.178c-.266-.015-.473-.088-.622-.218-.15-.13-.315-.413-.498-.849L8 4.667h-.168L5.538 10.03c-.198.47-.38.783-.543.937-.08.077-.256.14-.528.188v.177h2.052v-.178c-.314-.022-.518-.07-.613-.146-.094-.075-.142-.163-.142-.262 0-.125.055-.314.164-.567L6.37 9.15z" fill="url(#aupaint1_linear_2567_3661)"/><defs><linearGradient id="aupaint0_linear_2567_3661" x1="8" y1="1.333" x2="8" y2="14.667" gradientUnits="userSpaceOnUse"><stop stop-color="#888D95"/><stop offset="1" stop-color="#6E747D"/></linearGradient><linearGradient id="aupaint1_linear_2567_3661" x1="8" y1="1.333" x2="8" y2="14.667" gradientUnits="userSpaceOnUse"><stop stop-color="#888D95"/><stop offset="1" stop-color="#6E747D"/></linearGradient></defs></svg><view id="icon-generic-24" viewBox="16 64 16 16"/><svg width="16" height="16" fill="none" viewBox="0 0 16 16" x="16" y="64" xmlns="http://www.w3.org/2000/svg"><path fill-rule="evenodd" clip-rule="evenodd" d="M4 1.333a2 2 0 00-2 2v9.334a2 2 0 002 2h8a2 2 0 002-2V4.886c0-.354-.14-.693-.39-.943l-2.22-2.22c-.25-.25-.589-.39-.942-.39H4zm6.951.952a.167.167 0 00-.284.117V4.5c0 .092.074.167.166.167h2.098c.148 0 .223-.18.118-.285L10.95 2.285z" fill="url(#avpaint0_linear_2567_3662)"/><defs><linearGradient id="avpaint0_linear_2567_3662" x1="8" y1="1.333" x2="8" y2="14.667" gradientUnits="userSpaceOnUse"><stop stop-color="#888D95"/><stop offset="1" stop-color="#6E747D"/></linearGradient></defs></svg><view id="icon-illustrator-24" viewBox="32 64 16 16"/><svg width="16" height="16" fill="none" viewBox="0 0 16 16" x="32" y="64" xmlns="http://www.w3.org/2000/svg"><path d="M6.484 8.41h1.193c-.014-.047-.045-.124-.078-.205a3.806 3.806 0 01-.085-.223c-.018-.056-.039-.107-.06-.16a2.122 2.122 0 01-.071-.185l-.127-.402a13.275 13.275 0 01-.116-.388 35.967 35.967 0 01-.096-.341h-.007c-.04.19-.089.378-.148.563-.066.212-.133.428-.2.649-.028.09-.057.191-.085.291-.04.146-.081.29-.12.401z" fill="url(#awpaint0_linear_2567_3664)"/><path fill-rule="evenodd" clip-rule="evenodd" d="M4 1.333a2 2 0 00-2 2v9.334a2 2 0 002 2h8a2 2 0 002-2V3.333a2 2 0 00-2-2H4zm6.208 5.142a.511.511 0 01-.502-.34.558.558 0 01-.034-.217.517.517 0 01.34-.506.544.544 0 01.21-.036.524.524 0 01.398.151.543.543 0 01.145.391.552.552 0 01-.152.402.54.54 0 01-.405.155zm-.457 3.766V7.019c0-.043.02-.064.057-.064h.8c.038 0 .057.021.057.064v3.222c0 .047-.019.07-.056.07h-.794c-.042 0-.064-.023-.064-.07zM7.867 9.16H6.24l-.332 1.087a.083.083 0 01-.085.063h-.824c-.047 0-.064-.026-.05-.078l1.406-4.059a2.19 2.19 0 00.042-.144.981.981 0 00.03-.261.044.044 0 01.048-.03h1.12c.033 0 .052.012.056.036l1.604 4.465c.015.047 0 .071-.042.07h-.916a.065.065 0 01-.07-.048L7.866 9.16z" fill="url(#awpaint1_linear_2567_3664)"/><defs><linearGradient id="awpaint0_linear_2567_3664" x1="8" y1="1.333" x2="8" y2="14.667" gradientUnits="userSpaceOnUse"><stop stop-color="#FD853A"/><stop offset="1" stop-color="#FB6514"/></linearGradient><linearGradient id="awpaint1_linear_2567_3664" x1="8" y1="1.333" x2="8" y2="14.667" gradientUnits="userSpaceOnUse"><stop stop-color="#FD853A"/><stop offset="1" stop-color="#FB6514"/></linearGradient></defs></svg><view id="icon-image-24" viewBox="48 64 16 16"/><svg width="16" height="16" fill="none" viewBox="0 0 16 16" x="48" y="64" xmlns="http://www.w3.org/2000/svg"><path fill-rule="evenodd" clip-rule="evenodd" d="M4 1.333a2 2 0 00-2 2v9.334a2 2 0 002 2h8a2 2 0 002-2V3.333a2 2 0 00-2-2H4zM4.667 6a1.333 1.333 0 112.666 0 1.333 1.333 0 01-2.666 0zm4.626.707l-5.414 5.414a.71.71 0 00.502 1.212h7.286a1 1 0 001-1V9.081a1 1 0 00-.293-.707l-1.667-1.667a1 1 0 00-1.414 0z" fill="url(#axpaint0_linear_2567_3665)"/><defs><linearGradient id="axpaint0_linear_2567_3665" x1="8" y1="1.333" x2="8" y2="14.667" gradientUnits="userSpaceOnUse"><stop stop-color="#31D0FE"/><stop offset="1" stop-color="#05BAF1"/></linearGradient></defs></svg><view id="icon-indesign-24" viewBox="64 64 16 16"/><svg width="16" height="16" fill="none" viewBox="0 0 16 16" x="64" y="64" xmlns="http://www.w3.org/2000/svg"><path d="M9.54 9.531V7.607a1.31 1.31 0 00-.154-.02 1.396 1.396 0 00-.144-.008 1.088 1.088 0 00-.493.113.907.907 0 00-.515.88c-.003.155.022.307.074.452.043.116.11.222.197.31.084.08.185.141.296.176.118.038.24.057.363.057.066 0 .127-.003.184-.007.065-.004.13-.014.192-.029z" fill="url(#aypaint0_linear_2567_3667)"/><path fill-rule="evenodd" clip-rule="evenodd" d="M4 1.333a2 2 0 00-2 2v9.334a2 2 0 002 2h8a2 2 0 002-2V3.333a2 2 0 00-2-2H4zm5.073 9.072a2.185 2.185 0 01-.941-.197 1.495 1.495 0 01-.659-.596 1.905 1.905 0 01-.24-.997 1.84 1.84 0 01.24-.923c.164-.287.406-.521.698-.677a2.252 2.252 0 011.245-.247l.124.008V5.442c0-.033.015-.05.043-.05h.817a.037.037 0 01.04.025.037.037 0 01.002.018v4.11c0 .08.004.167.01.261.008.094.014.179.018.254a.073.073 0 01-.042.07 3.225 3.225 0 01-.679.212 3.82 3.82 0 01-.676.063zM6.456 5.823v4.416c0 .047-.021.07-.064.07h-.806c-.038 0-.056-.023-.056-.07V5.822c0-.037.02-.056.063-.056h.806a.05.05 0 01.057.056z" fill="url(#aypaint1_linear_2567_3667)"/><defs><linearGradient id="aypaint0_linear_2567_3667" x1="8" y1="1.333" x2="8" y2="14.667" gradientUnits="userSpaceOnUse"><stop stop-color="#FD6F90"/><stop offset="1" stop-color="#F63D6B"/></linearGradient><linearGradient id="aypaint1_linear_2567_3667" x1="8" y1="1.333" x2="8" y2="14.667" gradientUnits="userSpaceOnUse"><stop stop-color="#FD6F90"/><stop offset="1" stop-color="#F63D6B"/></linearGradient></defs></svg><view id="icon-keynote-24" viewBox="80 0 16 16"/><svg width="16" height="16" fill="none" viewBox="0 0 16 16" x="80" xmlns="http://www.w3.org/2000/svg"><path fill-rule="evenodd" clip-rule="evenodd" d="M4 1.333a2 2 0 00-2 2v9.334a2 2 0 002 2h8a2 2 0 002-2V3.333a2 2 0 00-2-2H4zM11.333 9v-.333H4.667V9a.34.34 0 00.34.333h2.657v1.345a.662.662 0 01-.582.656h-.755a.334.334 0 000 .666h3.346c.175 0 .327-.15.327-.333l-.005-.059a.333.333 0 00-.322-.275h-.76a.666.666 0 01-.58-.655l-.001-1.345h2.662c.188 0 .34-.149.34-.333zM8 4.333A.333.333 0 007.667 4H6l-.078.004a.667.667 0 00-.589.663v.667a.359.359 0 00-.349.326l-.136 2.013a.302.302 0 00.31.327h5.684a.302.302 0 00.31-.327l-.136-2.013a.36.36 0 00-.362-.327H5.667v-.666l.005-.06A.333.333 0 016 4.333h.667c0 .184.149.334.333.334h.667c.184 0 .333-.15.333-.334z" fill="url(#azpaint0_linear_2567_3669)"/><defs><linearGradient id="azpaint0_linear_2567_3669" x1="8" y1="1.333" x2="8" y2="14.667" gradientUnits="userSpaceOnUse"><stop stop-color="#69A3FB"/><stop offset="1" stop-color="#477EF7"/></linearGradient></defs></svg><view id="icon-numbers-24" viewBox="80 16 16 16"/><svg width="16" height="16" fill="none" viewBox="0 0 16 16" x="80" y="16" xmlns="http://www.w3.org/2000/svg"><path fill-rule="evenodd" clip-rule="evenodd" d="M4 1.333a2 2 0 00-2 2v9.334a2 2 0 002 2h8a2 2 0 002-2V3.333a2 2 0 00-2-2H4zm5.333 3.334H8v6h1.333v-6zM6 8h1.333v2.667H6V8zm-.667 1.333H4v1.334h1.333V9.333zm6 2H4V12h7.333v-.667zM10 6.667h1.333v4H10v-4z" fill="url(#bapaint0_linear_2567_3658)"/><defs><linearGradient id="bapaint0_linear_2567_3658" x1="8" y1="1.333" x2="8" y2="14.667" gradientUnits="userSpaceOnUse"><stop stop-color="#29DD74"/><stop offset="1" stop-color="#09BF5B"/></linearGradient></defs></svg><view id="icon-open-office-24" viewBox="80 32 16 16"/><svg width="16" height="16" fill="none" viewBox="0 0 16 16" x="80" y="32" xmlns="http://www.w3.org/2000/svg"><path fill-rule="evenodd" clip-rule="evenodd" d="M4 1.333a2 2 0 00-2 2v3.604a4.452 4.452 0 00-.615.272l-.015.008-.007.004a.079.079 0 00.047.14H1.423c.002-.002.003-.002.005-.002A4.38 4.38 0 012 7.29v5.378a2 2 0 002 2h8a2 2 0 002-2V3.333a2 2 0 00-2-2H4zM2 7.29c.22-.013.444-.009.67.013 1.192.116 2.23.49 2.96 1.335.038.04.071.038.11-.002.917-1.085 2.323-1.514 3.834-1.368a4.06 4.06 0 01.286.037l.063.009c.05.006.077-.035.077-.078a.073.073 0 00-.041-.07l-.056-.029-.031-.016a4.427 4.427 0 00-1.528-.434 4.393 4.393 0 00-2.668.595A4.406 4.406 0 002 6.937v.353zm8.644-2.957a.772.772 0 00-.03-.02l-.017-.01a2.048 2.048 0 00-.822-.29 2.006 2.006 0 00-1.437.397 2.07 2.07 0 00-.964-.383 1.988 1.988 0 00-1.346.334l-.009.006-.003.003A.058.058 0 006 4.41c0 .03.018.053.041.053a.018.018 0 00.004 0h.003l.003-.001c.215-.05.44-.065.668-.038.642.077 1.202.327 1.594.89.02.027.039.025.06-.001.494-.724 1.25-1.01 2.064-.912a1.799 1.799 0 01.188.03c.027.005.042-.023.042-.052 0-.02-.007-.036-.023-.046z" fill="url(#bbpaint0_linear_2567_3659)"/><defs><linearGradient id="bbpaint0_linear_2567_3659" x1="7.667" y1="1.333" x2="7.667" y2="14.667" gradientUnits="userSpaceOnUse"><stop stop-color="#69A3FB"/><stop offset="1" stop-color="#477EF7"/></linearGradient></defs></svg><view id="icon-pages-24" viewBox="80 48 16 16"/><svg width="16" height="16" fill="none" viewBox="0 0 16 16" x="80" y="48" xmlns="http://www.w3.org/2000/svg"><path fill-rule="evenodd" clip-rule="evenodd" d="M4 1.333a2 2 0 00-2 2v9.334a2 2 0 002 2h8a2 2 0 002-2V3.333a2 2 0 00-2-2H4zm9.333 10.334a.333.333 0 00-.333-.334H5A.333.333 0 005 12h8c.184 0 .333-.15.333-.333zm-6.84-1.303L5.827 9.7a2.19 2.19 0 00-.174.28l-.262.524c-.164.327-.032.46.296.297l.525-.263c.085-.042.186-.106.283-.175zm4.294-4.25l-.712-.707L6.042 9.44c-.029.029-.06.063-.092.101l.7.7c.038-.031.072-.062.102-.091l4.035-4.037zm.623-1.333l-.056-.05-.061-.038a.498.498 0 00-.59.086l-.487.486.71.71.487-.486a.505.505 0 00-.002-.708z" fill="url(#bcpaint0_linear_2567_3660)"/><defs><linearGradient id="bcpaint0_linear_2567_3660" x1="8" y1="1.333" x2="8" y2="14.667" gradientUnits="userSpaceOnUse"><stop stop-color="#FDC121"/><stop offset="1" stop-color="#F7A308"/></linearGradient></defs></svg><view id="icon-pdf-24" viewBox="80 64 16 16"/><svg width="16" height="16" fill="none" viewBox="0 0 16 16" x="80" y="64" xmlns="http://www.w3.org/2000/svg"><path d="M10.338 9.54c.324.082.506-.06.527-.202.04-.202-.122-.303-.284-.344-.425-.08-1.011-.02-1.275.02.304.244.648.426 1.033.527z" fill="url(#bdpaint0_linear_2567_3650)"/><path d="M7.647 5.069c-.06 0-.121.04-.162.101-.1.182-.162.749.142 1.558.142-.405.223-.83.243-1.254 0-.183-.04-.405-.223-.405z" fill="url(#bdpaint1_linear_2567_3650)"/><path d="M7.91 7.962c-.08.243-.303.81-.465 1.134.29-.097.63-.18.858-.234.153-.037.255-.062.255-.07a5.16 5.16 0 01-.648-.83z" fill="url(#bdpaint2_linear_2567_3650)"/><path d="M5.037 11.16c.263 0 .749-.486 1.214-1.255-.81.364-1.336.749-1.396 1.032-.02.081 0 .142.06.182.04.02.081.04.122.04z" fill="url(#bdpaint3_linear_2567_3650)"/><path fill-rule="evenodd" clip-rule="evenodd" d="M4 1.333a2 2 0 00-2 2v9.334a2 2 0 002 2h8a2 2 0 002-2V3.333a2 2 0 00-2-2H4zm5.142 7.368c.445-.056 1.736-.218 2.229.293.141.162.202.385.1.587-.06.182-.242.385-.728.385-.364 0-1.052-.101-1.841-.79-.668.122-1.336.324-1.76.466-.507.87-1.235 1.902-1.984 1.902a.777.777 0 01-.506-.182.54.54 0 01-.162-.506c.102-.607 1.336-1.174 1.923-1.416.532-1.007.743-1.603.95-2.192l.041-.115c-.384-.87-.485-1.72-.242-2.145a.588.588 0 01.485-.283c.567 0 .77.546.77 1.052a5.884 5.884 0 01-.325 1.68l.013.02c.132.22.47.785.959 1.254l.078-.01z" fill="url(#bdpaint4_linear_2567_3650)"/><defs><linearGradient id="bdpaint0_linear_2567_3650" x1="8" y1="1.333" x2="8" y2="14.667" gradientUnits="userSpaceOnUse"><stop stop-color="#FB6361"/><stop offset="1" stop-color="#F23433"/></linearGradient><linearGradient id="bdpaint1_linear_2567_3650" x1="8" y1="1.333" x2="8" y2="14.667" gradientUnits="userSpaceOnUse"><stop stop-color="#FB6361"/><stop offset="1" stop-color="#F23433"/></linearGradient><linearGradient id="bdpaint2_linear_2567_3650" x1="8" y1="1.333" x2="8" y2="14.667" gradientUnits="userSpaceOnUse"><stop stop-color="#FB6361"/><stop offset="1" stop-color="#F23433"/></linearGradient><linearGradient id="bdpaint3_linear_2567_3650" x1="8" y1="1.333" x2="8" y2="14.667" gradientUnits="userSpaceOnUse"><stop stop-color="#FB6361"/><stop offset="1" stop-color="#F23433"/></linearGradient><linearGradient id="bdpaint4_linear_2567_3650" x1="8" y1="1.333" x2="8" y2="14.667" gradientUnits="userSpaceOnUse"><stop stop-color="#FB6361"/><stop offset="1" stop-color="#F23433"/></linearGradient></defs></svg><view id="icon-photoshop-24" viewBox="0 80 16 16"/><svg width="16" height="16" fill="none" viewBox="0 0 16 16" y="80" xmlns="http://www.w3.org/2000/svg"><path d="M6.02 6.541V8c.062.005.118.007.17.007h.232c.171.003.341-.021.504-.07a.76.76 0 00.36-.233.677.677 0 00.137-.451.712.712 0 00-.102-.388.657.657 0 00-.306-.25 1.306 1.306 0 00-.515-.088c-.113 0-.213.001-.3.004a1.902 1.902 0 00-.18.01z" fill="url(#bepaint0_linear_2567_3651)"/><path fill-rule="evenodd" clip-rule="evenodd" d="M4 1.333a2 2 0 00-2 2v9.334a2 2 0 002 2h8a2 2 0 002-2V3.333a2 2 0 00-2-2H4zm1.048 8.915V5.745c0-.033.014-.05.042-.05.076 0 .165 0 .268-.003a121.48 121.48 0 011.114-.018c.306-.008.611.038.902.134.22.075.421.198.588.36.142.14.251.31.321.497.066.181.1.373.099.567.013.33-.078.655-.261.93-.175.245-.421.431-.705.532-.316.114-.65.17-.987.166-.103 0-.176-.001-.218-.004a3.822 3.822 0 00-.19-.003v1.388a.056.056 0 01-.038.061.057.057 0 01-.026.003h-.86c-.032 0-.049-.02-.049-.057zm6.077-2.53a2.486 2.486 0 00-.508-.148 2.226 2.226 0 00-.49-.056.913.913 0 00-.264.031.237.237 0 00-.137.089.222.222 0 00-.035.12c.001.04.016.08.042.112a.48.48 0 00.148.116c.1.055.204.103.31.145.237.08.463.187.673.32.143.091.262.216.345.364.07.14.106.294.103.45.004.207-.055.41-.17.582-.122.175-.292.31-.49.391a1.973 1.973 0 01-.792.141c-.2.002-.4-.017-.596-.056a2.187 2.187 0 01-.476-.141.09.09 0 01-.049-.085v-.761a.042.042 0 01.018-.039.034.034 0 01.039.004c.178.1.37.172.57.215.169.042.342.064.515.067a.79.79 0 00.363-.064.199.199 0 00.116-.183.234.234 0 00-.105-.176 1.75 1.75 0 00-.43-.205 2.592 2.592 0 01-.624-.317 1.074 1.074 0 01-.331-.37.97.97 0 01-.103-.447 1.01 1.01 0 01.607-.93c.218-.12.464-.181.713-.179.198-.01.396-.007.594.01a2.028 2.028 0 01.491.169.064.064 0 01.017.024.193.193 0 01.007.053v.712a.047.047 0 01-.021.042.046.046 0 01-.05 0z" fill="url(#bepaint1_linear_2567_3651)"/><defs><linearGradient id="bepaint0_linear_2567_3651" x1="8" y1="1.333" x2="8" y2="14.667" gradientUnits="userSpaceOnUse"><stop stop-color="#31D0FE"/><stop offset="1" stop-color="#05BAF1"/></linearGradient><linearGradient id="bepaint1_linear_2567_3651" x1="8" y1="1.333" x2="8" y2="14.667" gradientUnits="userSpaceOnUse"><stop stop-color="#31D0FE"/><stop offset="1" stop-color="#05BAF1"/></linearGradient></defs></svg><view id="icon-powerpoint-24" viewBox="16 80 16 16"/><svg width="16" height="16" fill="none" viewBox="0 0 16 16" x="16" y="80" xmlns="http://www.w3.org/2000/svg"><path d="M7.233 7.918V6.256h.485c.656 0 .984.274.984.822 0 .56-.328.84-.984.84h-.485z" fill="url(#bfpaint0_linear_2567_3652)"/><path fill-rule="evenodd" clip-rule="evenodd" d="M4 1.333a2 2 0 00-2 2v9.334a2 2 0 002 2h8a2 2 0 002-2V3.333a2 2 0 00-2-2H4zm3.233 9.334V8.829h.588c.661 0 1.19-.165 1.585-.496.396-.331.594-.764.594-1.3 0-1.133-.69-1.7-2.069-1.7H6v5.334h1.233z" fill="url(#bfpaint1_linear_2567_3652)"/><defs><linearGradient id="bfpaint0_linear_2567_3652" x1="8" y1="1.333" x2="8" y2="14.667" gradientUnits="userSpaceOnUse"><stop stop-color="#FB6361"/><stop offset="1" stop-color="#F23433"/></linearGradient><linearGradient id="bfpaint1_linear_2567_3652" x1="8" y1="1.333" x2="8" y2="14.667" gradientUnits="userSpaceOnUse"><stop stop-color="#FB6361"/><stop offset="1" stop-color="#F23433"/></linearGradient></defs></svg><view id="icon-premiere-24" viewBox="32 80 16 16"/><svg width="16" height="16" fill="none" viewBox="0 0 16 16" x="32" y="80" xmlns="http://www.w3.org/2000/svg"><path d="M6.096 6.502v1.466c.029 0 .086.01.143.02.057.009.114.019.143.019h.228c.172 0 .343-.02.496-.077a.736.736 0 00.362-.228.65.65 0 00.133-.457.867.867 0 00-.095-.381.633.633 0 00-.305-.248 1.633 1.633 0 00-.514-.095h-.305c-.073.014-.192-.005-.251-.014a.381.381 0 00-.035-.005z" fill="url(#bgpaint0_linear_2567_3653)"/><path fill-rule="evenodd" clip-rule="evenodd" d="M4 1.333a2 2 0 00-2 2v9.334a2 2 0 002 2h8a2 2 0 002-2V3.333a2 2 0 00-2-2H4zm1.182 8.883V5.721c0-.038.019-.057.038-.057h.99c.067 0 .143.01.22.019.076.01.152.019.218.019.305 0 .61.038.896.133a1.46 1.46 0 01.914.857c.057.19.095.381.095.572.02.323-.076.647-.266.933a1.403 1.403 0 01-.705.533 2.929 2.929 0 01-.99.172h-.21a.871.871 0 01-.092-.013c-.068-.011-.155-.025-.213-.025v1.39c0 .038-.019.057-.057.057h-.8a.507.507 0 00-.015-.027.125.125 0 01-.023-.068zm3.98-3.41h.763c.038 0 .076.039.095.077l.015.027c.013.022.023.04.023.068.02.038.02.095.02.133v.153c.132-.153.285-.286.475-.381.19-.115.4-.172.61-.153.038 0 .057.02.057.038v.877c0 .038-.02.057-.076.057-.153-.02-.286 0-.42.038-.133.019-.247.057-.361.114a.879.879 0 00-.286.172v2.228c0 .038-.019.057-.057.057h-.8c-.038 0-.057-.019-.076-.057V7.492c0-.114 0-.228-.02-.343 0-.047-.004-.095-.009-.142-.005-.048-.01-.096-.01-.143 0-.008 0-.013.002-.017.002-.006.007-.01.018-.021 0-.02.019-.02.038-.02z" fill="url(#bgpaint1_linear_2567_3653)"/><defs><linearGradient id="bgpaint0_linear_2567_3653" x1="8" y1="1.333" x2="8" y2="14.667" gradientUnits="userSpaceOnUse"><stop stop-color="#69A3FB"/><stop offset="1" stop-color="#477EF7"/></linearGradient><linearGradient id="bgpaint1_linear_2567_3653" x1="8" y1="1.333" x2="8" y2="14.667" gradientUnits="userSpaceOnUse"><stop stop-color="#69A3FB"/><stop offset="1" stop-color="#477EF7"/></linearGradient></defs></svg><view id="icon-raw-24" viewBox="48 80 16 16"/><svg width="16" height="16" fill="none" viewBox="0 0 16 16" x="48" y="80" xmlns="http://www.w3.org/2000/svg"><path fill-rule="evenodd" clip-rule="evenodd" d="M4 1.333a2 2 0 00-2 2v9.334a2 2 0 002 2h8a2 2 0 002-2V3.333a2 2 0 00-2-2H4zM11.667 8c0-1.41-.797-2.636-1.965-3.249l.032.074a3.497 3.497 0 01-1.364 4.3 3.16 3.16 0 001.13.208c.821 0 1.569-.312 2.132-.824A3.71 3.71 0 0011.667 8zm-.145 1.024a3.484 3.484 0 01-2.022.643A3.49 3.49 0 017 8.617v.05c0 1.29.772 2.4 1.88 2.894a3.673 3.673 0 002.642-2.537zm-3.185 2.627a3.498 3.498 0 01-1.416-4.296A3.17 3.17 0 004.863 9.9a3.665 3.665 0 003.474 1.752zm.097-4.791a3.163 3.163 0 00-3.162-1.31A3.653 3.653 0 004.333 8c0 .504.102.985.287 1.422A3.502 3.502 0 018.434 6.86zm.784-2.32A3.661 3.661 0 008 4.333c-.886 0-1.699.315-2.332.838a3.5 3.5 0 013.554 2.616 3.152 3.152 0 00.445-1.62c0-.595-.164-1.151-.45-1.627z" fill="url(#bhpaint0_linear_2567_3654)"/><defs><linearGradient id="bhpaint0_linear_2567_3654" x1="8" y1="1.333" x2="8" y2="14.667" gradientUnits="userSpaceOnUse"><stop stop-color="#31D0FE"/><stop offset="1" stop-color="#05BAF1"/></linearGradient></defs></svg><view id="icon-spreadsheet-24" viewBox="64 80 16 16"/><svg width="16" height="16" fill="none" viewBox="0 0 16 16" x="64" y="80" xmlns="http://www.w3.org/2000/svg"><path d="M5.333 10h1.334v1.333H5.333V10z" fill="url(#bipaint0_linear_2567_3655)"/><path d="M9.333 10h1.334v1.333H9.333V10z" fill="url(#bipaint1_linear_2567_3655)"/><path d="M7.333 10h1.334v1.333H7.333V10z" fill="url(#bipaint2_linear_2567_3655)"/><path d="M5.333 8h1.334v1.333H5.333V8z" fill="url(#bipaint3_linear_2567_3655)"/><path d="M7.333 8h1.334v1.333H7.333V8z" fill="url(#bipaint4_linear_2567_3655)"/><path d="M9.333 8h1.334v1.333H9.333V8z" fill="url(#bipaint5_linear_2567_3655)"/><path d="M5.333 6h1.334v1.333H5.333V6z" fill="url(#bipaint6_linear_2567_3655)"/><path d="M7.333 6h1.334v1.333H7.333V6z" fill="url(#bipaint7_linear_2567_3655)"/><path d="M9.333 6h1.334v1.333H9.333V6z" fill="url(#bipaint8_linear_2567_3655)"/><path d="M5.333 4.667h1.334v.666H5.333v-.666z" fill="url(#bipaint9_linear_2567_3655)"/><path d="M9.333 4.667h1.334v.666H9.333v-.666z" fill="url(#bipaint10_linear_2567_3655)"/><path d="M7.333 4.667h1.334v.666H7.333v-.666z" fill="url(#bipaint11_linear_2567_3655)"/><path fill-rule="evenodd" clip-rule="evenodd" d="M4 1.333a2 2 0 00-2 2v9.334a2 2 0 002 2h8a2 2 0 002-2V3.333a2 2 0 00-2-2H4zM4.667 12h6.666V4H4.667v8z" fill="url(#bipaint12_linear_2567_3655)"/><defs><linearGradient id="bipaint0_linear_2567_3655" x1="8" y1="1.333" x2="8" y2="14.667" gradientUnits="userSpaceOnUse"><stop stop-color="#29DD74"/><stop offset="1" stop-color="#09BF5B"/></linearGradient><linearGradient id="bipaint1_linear_2567_3655" x1="8" y1="1.333" x2="8" y2="14.667" gradientUnits="userSpaceOnUse"><stop stop-color="#29DD74"/><stop offset="1" stop-color="#09BF5B"/></linearGradient><linearGradient id="bipaint2_linear_2567_3655" x1="8" y1="1.333" x2="8" y2="14.667" gradientUnits="userSpaceOnUse"><stop stop-color="#29DD74"/><stop offset="1" stop-color="#09BF5B"/></linearGradient><linearGradient id="bipaint3_linear_2567_3655" x1="8" y1="1.333" x2="8" y2="14.667" gradientUnits="userSpaceOnUse"><stop stop-color="#29DD74"/><stop offset="1" stop-color="#09BF5B"/></linearGradient><linearGradient id="bipaint4_linear_2567_3655" x1="8" y1="1.333" x2="8" y2="14.667" gradientUnits="userSpaceOnUse"><stop stop-color="#29DD74"/><stop offset="1" stop-color="#09BF5B"/></linearGradient><linearGradient id="bipaint5_linear_2567_3655" x1="8" y1="1.333" x2="8" y2="14.667" gradientUnits="userSpaceOnUse"><stop stop-color="#29DD74"/><stop offset="1" stop-color="#09BF5B"/></linearGradient><linearGradient id="bipaint6_linear_2567_3655" x1="8" y1="1.333" x2="8" y2="14.667" gradientUnits="userSpaceOnUse"><stop stop-color="#29DD74"/><stop offset="1" stop-color="#09BF5B"/></linearGradient><linearGradient id="bipaint7_linear_2567_3655" x1="8" y1="1.333" x2="8" y2="14.667" gradientUnits="userSpaceOnUse"><stop stop-color="#29DD74"/><stop offset="1" stop-color="#09BF5B"/></linearGradient><linearGradient id="bipaint8_linear_2567_3655" x1="8" y1="1.333" x2="8" y2="14.667" gradientUnits="userSpaceOnUse"><stop stop-color="#29DD74"/><stop offset="1" stop-color="#09BF5B"/></linearGradient><linearGradient id="bipaint9_linear_2567_3655" x1="8" y1="1.333" x2="8" y2="14.667" gradientUnits="userSpaceOnUse"><stop stop-color="#29DD74"/><stop offset="1" stop-color="#09BF5B"/></linearGradient><linearGradient id="bipaint10_linear_2567_3655" x1="8" y1="1.333" x2="8" y2="14.667" gradientUnits="userSpaceOnUse"><stop stop-color="#29DD74"/><stop offset="1" stop-color="#09BF5B"/></linearGradient><linearGradient id="bipaint11_linear_2567_3655" x1="8" y1="1.333" x2="8" y2="14.667" gradientUnits="userSpaceOnUse"><stop stop-color="#29DD74"/><stop offset="1" stop-color="#09BF5B"/></linearGradient><linearGradient id="bipaint12_linear_2567_3655" x1="8" y1="1.333" x2="8" y2="14.667" gradientUnits="userSpaceOnUse"><stop stop-color="#29DD74"/><stop offset="1" stop-color="#09BF5B"/></linearGradient></defs></svg><view id="icon-takedown-24" viewBox="80 80 16 16"/><svg width="16" height="16" fill="none" viewBox="0 0 16 16" x="80" y="80" xmlns="http://www.w3.org/2000/svg"><path d="M8.375 7a.375.375 0 00-.75 0v1.25a.375.375 0 10.75 0V7z" fill="url(#bjpaint0_linear_2567_3668)"/><path d="M8 9.25A.375.375 0 108 10h.003a.375.375 0 100-.75H8z" fill="url(#bjpaint1_linear_2567_3668)"/><path fill-rule="evenodd" clip-rule="evenodd" d="M2 3.333a2 2 0 012-2h8a2 2 0 012 2v9.334a2 2 0 01-2 2H4a2 2 0 01-2-2V3.333zm5.489 1.392a1.042 1.042 0 011.402.367v.002l2.827 4.718a1.041 1.041 0 01-.89 1.563H5.172a1.042 1.042 0 01-.891-1.563l.003-.005 2.824-4.715c.093-.153.224-.28.38-.367z" fill="url(#bjpaint2_linear_2567_3668)"/><defs><linearGradient id="bjpaint0_linear_2567_3668" x1="8" y1="1.333" x2="8" y2="14.667" gradientUnits="userSpaceOnUse"><stop stop-color="#F63D6B"/><stop offset="1" stop-color="#E31B57"/></linearGradient><linearGradient id="bjpaint1_linear_2567_3668" x1="8" y1="1.333" x2="8" y2="14.667" gradientUnits="userSpaceOnUse"><stop stop-color="#F63D6B"/><stop offset="1" stop-color="#E31B57"/></linearGradient><linearGradient id="bjpaint2_linear_2567_3668" x1="8" y1="1.333" x2="8" y2="14.667" gradientUnits="userSpaceOnUse"><stop stop-color="#F63D6B"/><stop offset="1" stop-color="#E31B57"/></linearGradient></defs></svg><view id="icon-text-24" viewBox="96 0 16 16"/><svg width="16" height="16" fill="none" viewBox="0 0 16 16" x="96" xmlns="http://www.w3.org/2000/svg"><path fill-rule="evenodd" clip-rule="evenodd" d="M4 1.333a2 2 0 00-2 2v9.334a2 2 0 002 2h8a2 2 0 002-2V3.333a2 2 0 00-2-2H4zM6 4h.667v.667h4.666v.666H6.667v1.334h4.666v.666H6.667v1.334h4.666v.666H6.667v1.334h4.666v.666H6.667V12H6v-.667H4.667v-.666H6V9.333H4.667v-.666H6V7.333H4.667v-.666H6V5.333H4.667v-.666H6V4z" fill="url(#bkpaint0_linear_2567_3656)"/><defs><linearGradient id="bkpaint0_linear_2567_3656" x1="8" y1="1.333" x2="8" y2="14.667" gradientUnits="userSpaceOnUse"><stop stop-color="#888D95"/><stop offset="1" stop-color="#6E747D"/></linearGradient></defs></svg><view id="icon-threed-24" viewBox="96 16 16 16"/><svg width="16" height="16" fill="none" viewBox="0 0 16 16" x="96" y="16" xmlns="http://www.w3.org/2000/svg"><path fill-rule="evenodd" clip-rule="evenodd" d="M4 1.333a2 2 0 00-2 2v9.334a2 2 0 002 2h8a2 2 0 002-2V3.333a2 2 0 00-2-2H4zm6.819 4.358a.133.133 0 010 .229L8.17 7.508a.333.333 0 01-.342 0L5.18 5.92a.133.133 0 010-.229l2.647-1.588a.333.333 0 01.343 0L10.82 5.69zm-6.152.933c0-.103.113-.167.202-.114l2.636 1.582c.1.06.162.168.162.285v3.188a.133.133 0 01-.202.114l-2.636-1.582a.333.333 0 01-.162-.286V6.624zm3.666 4.94c0 .104.113.168.202.115l2.636-1.582c.1-.06.162-.169.162-.286V6.624a.133.133 0 00-.202-.114L8.495 8.092a.333.333 0 00-.162.285v3.188z" fill="url(#blpaint0_linear_2567_3689)"/><defs><linearGradient id="blpaint0_linear_2567_3689" x1="8" y1="1.333" x2="8" y2="14.667" gradientUnits="userSpaceOnUse"><stop stop-color="#69A3FB"/><stop offset="1" stop-color="#477EF7"/></linearGradient></defs></svg><view id="icon-torrent-24" viewBox="96 32 16 16"/><svg width="16" height="16" fill="none" viewBox="0 0 16 16" x="96" y="32" xmlns="http://www.w3.org/2000/svg"><path fill-rule="evenodd" clip-rule="evenodd" d="M4 1.333a2 2 0 00-2 2v9.334a2 2 0 002 2h8a2 2 0 002-2V3.333a2 2 0 00-2-2H4zM6.329 5L4.898 6.431a.334.334 0 000 .471l.028.029c.13.13.342.13.472 0l.597-.598v3a.333.333 0 00.667 0v-3l.598.598c.13.13.341.13.471 0l.029-.029a.333.333 0 000-.471L6.329 5zm3.333 6L8.231 9.569a.334.334 0 010-.471l.029-.029c.13-.13.341-.13.471 0l.598.598v-3a.333.333 0 01.666 0v3l.598-.598c.13-.13.341-.13.471 0l.029.029c.13.13.13.34 0 .471L9.662 11z" fill="url(#bmpaint0_linear_2567_3657)"/><defs><linearGradient id="bmpaint0_linear_2567_3657" x1="8" y1="1.333" x2="8" y2="14.667" gradientUnits="userSpaceOnUse"><stop stop-color="#29DD74"/><stop offset="1" stop-color="#09BF5B"/></linearGradient></defs></svg><view id="icon-undecrypted-24" viewBox="96 48 16 16"/><svg width="16" height="16" fill="none" viewBox="0 0 16 16" x="96" y="48" xmlns="http://www.w3.org/2000/svg"><path fill-rule="evenodd" clip-rule="evenodd" d="M4 1.333a2 2 0 00-2 2v9.334a2 2 0 002 2h8a2 2 0 002-2V3.333a2 2 0 00-2-2H4zm2.456 5.983c.173.06.364-.03.425-.204a1.165 1.165 0 012.265.388c0 .297-.194.526-.407.704-.384.32-.864.48-.864.48a.332.332 0 10.211.632s.6-.2 1.08-.6c.361-.302.647-.712.647-1.215a1.833 1.833 0 00-3.56-.61c-.062.173.03.363.203.425zM8 10.333A.333.333 0 008 11h.007a.333.333 0 100-.667H8z" fill="url(#bnpaint0_linear_2567_3645)"/><defs><linearGradient id="bnpaint0_linear_2567_3645" x1="8" y1="1.333" x2="8" y2="14.667" gradientUnits="userSpaceOnUse"><stop stop-color="#FDC121"/><stop offset="1" stop-color="#F7A308"/></linearGradient></defs></svg><view id="icon-url-24" viewBox="96 64 16 16"/><svg width="16" height="16" fill="none" viewBox="0 0 16 16" x="96" y="64" xmlns="http://www.w3.org/2000/svg"><path fill-rule="evenodd" clip-rule="evenodd" d="M4 1.333a2 2 0 00-2 2v9.334a2 2 0 002 2h8a2 2 0 002-2V3.333a2 2 0 00-2-2H4zM5.333 8c0-.736.597-1.333 1.334-1.333H7A.333.333 0 007 6h-.333a2 2 0 100 4H7a.333.333 0 000-.667h-.333A1.333 1.333 0 015.333 8zm1.334-.333a.333.333 0 100 .666h2.666a.333.333 0 100-.666H6.667zm2-1.334C8.667 6.15 8.816 6 9 6h.333a2 2 0 010 4H9a.333.333 0 010-.667h.333a1.333 1.333 0 000-2.666H9a.333.333 0 01-.333-.334z" fill="url(#bopaint0_linear_2567_3646)"/><defs><linearGradient id="bopaint0_linear_2567_3646" x1="8" y1="1.333" x2="8" y2="14.667" gradientUnits="userSpaceOnUse"><stop stop-color="#69A3FB"/><stop offset="1" stop-color="#477EF7"/></linearGradient></defs></svg><view id="icon-vector-24" viewBox="96 80 16 16"/><svg width="16" height="16" fill="none" viewBox="0 0 16 16" x="96" y="80" xmlns="http://www.w3.org/2000/svg"><path d="M8 7.333a.667.667 0 10-1.333 0 .667.667 0 001.333 0z" fill="url(#bppaint0_linear_2567_3642)"/><path fill-rule="evenodd" clip-rule="evenodd" d="M4 1.333a2 2 0 00-2 2v9.334a2 2 0 002 2h8a2 2 0 002-2V3.333a2 2 0 00-2-2H4zm4.4 5.2a9.286 9.286 0 014.933-1.843v.669a8.624 8.624 0 00-4.676 1.816 1.333 1.333 0 01-1.482 1.482A8.63 8.63 0 005.333 14h-.666c0-2.101.694-4.04 1.866-5.6l-.017-.013-1.85 1.849-.022-.023a.333.333 0 11-.19-.19L4.43 10 6.28 8.15a1.333 1.333 0 011.87-1.87L10 4.431l.022.022a.333.333 0 11.191.191l.023.023-1.85 1.849.014.017z" fill="url(#bppaint1_linear_2567_3642)"/><defs><linearGradient id="bppaint0_linear_2567_3642" x1="8" y1="1.333" x2="8" y2="14.667" gradientUnits="userSpaceOnUse"><stop stop-color="#FDC121"/><stop offset="1" stop-color="#F7A308"/></linearGradient><linearGradient id="bppaint1_linear_2567_3642" x1="8" y1="1.333" x2="8" y2="14.667" gradientUnits="userSpaceOnUse"><stop stop-color="#FDC121"/><stop offset="1" stop-color="#F7A308"/></linearGradient></defs></svg><view id="icon-video-24" viewBox="0 96 16 16"/><svg width="16" height="16" fill="none" viewBox="0 0 16 16" y="96" xmlns="http://www.w3.org/2000/svg"><path fill-rule="evenodd" clip-rule="evenodd" d="M4 1.333a2 2 0 00-2 2v9.334a2 2 0 002 2h8a2 2 0 002-2V3.333a2 2 0 00-2-2H4zm1.333 10v1.334H4v-1.334h1.333zm6.667 0v1.334h-1.333v-1.334H12zm-6.667-2v1.334H4V9.333h1.333zm6.667 0v1.334h-1.333V9.333H12zm-6.667-2v1.334H4V7.333h1.333zm6.667 0v1.334h-1.333V7.333H12zm-6.667-2v1.334H4V5.333h1.333zm6.667 0v1.334h-1.333V5.333H12zm-6.667-2v1.334H4V3.333h1.333zm6.667 0v1.334h-1.333V3.333H12zM6.667 6.335c0-.369.235-.485.522-.262l1.955 1.52c.289.225.287.59 0 .813L7.19 9.926c-.288.225-.522.115-.522-.261v-3.33z" fill="url(#bqpaint0_linear_2567_3643)"/><defs><linearGradient id="bqpaint0_linear_2567_3643" x1="8" y1="1.333" x2="8" y2="14.667" gradientUnits="userSpaceOnUse"><stop stop-color="#FD6F90"/><stop offset="1" stop-color="#F63D6B"/></linearGradient></defs></svg><view id="icon-web-data-24" viewBox="16 96 16 16"/><svg width="16" height="16" fill="none" viewBox="0 0 16 16" x="16" y="96" xmlns="http://www.w3.org/2000/svg"><path fill-rule="evenodd" clip-rule="evenodd" d="M4 1.333a2 2 0 00-2 2v9.334a2 2 0 002 2h8a2 2 0 002-2V3.333a2 2 0 00-2-2H4zm0 6.334a.333.333 0 000 .666h.334a1 1 0 011 1v.334c0 .92.746 1.666 1.666 1.666v-.666a1 1 0 01-1-1v-.334C6 8.788 5.738 8.304 5.333 8 5.739 7.696 6 7.212 6 6.667v-.334a1 1 0 011-1v-.666c-.92 0-1.667.746-1.667 1.666v.334a1 1 0 01-.999 1H4zm5-3c.92 0 1.667.746 1.667 1.666v.334a1 1 0 001 1H12a.333.333 0 010 .666h-.334a1 1 0 00-1 1v.334c0 .92-.746 1.666-1.666 1.666v-.666a1 1 0 001-1v-.334c0-.545.262-1.029.666-1.333A1.664 1.664 0 0110 6.667v-.334a1 1 0 00-1-1v-.666z" fill="url(#brpaint0_linear_2567_3647)"/><defs><linearGradient id="brpaint0_linear_2567_3647" x1="8" y1="1.333" x2="8" y2="14.667" gradientUnits="userSpaceOnUse"><stop stop-color="#69A3FB"/><stop offset="1" stop-color="#477EF7"/></linearGradient></defs></svg><view id="icon-web-lang-24" viewBox="32 96 16 16"/><svg width="16" height="16" fill="none" viewBox="0 0 16 16" x="32" y="96" xmlns="http://www.w3.org/2000/svg"><path fill-rule="evenodd" clip-rule="evenodd" d="M2 3.333a2 2 0 012-2h8a2 2 0 012 2v9.334a2 2 0 01-2 2H4a2 2 0 01-2-2V3.333zm4.431 2.431a.333.333 0 01.51.426l-.039.046L5.138 8l1.764 1.764a.333.333 0 01.039.426l-.039.046a.333.333 0 01-.425.038l-.046-.038L4.195 8l2.236-2.236zm2.529 0c.13-.13.34-.13.471 0L11.667 8 9.43 10.236l-.046.038a.333.333 0 01-.425-.038l-.039-.046a.333.333 0 01.039-.426L10.724 8 8.96 6.236 8.92 6.19a.333.333 0 01.039-.426z" fill="url(#bspaint0_linear_2567_3648)"/><defs><linearGradient id="bspaint0_linear_2567_3648" x1="8" y1="1.333" x2="8" y2="14.667" gradientUnits="userSpaceOnUse"><stop stop-color="#FD853A"/><stop offset="1" stop-color="#FB6514"/></linearGradient></defs></svg><view id="icon-word-24" viewBox="48 96 16 16"/><svg width="16" height="16" fill="none" viewBox="0 0 16 16" x="48" y="96" xmlns="http://www.w3.org/2000/svg"><path fill-rule="evenodd" clip-rule="evenodd" d="M4 1.333a2 2 0 00-2 2v9.334a2 2 0 002 2h8a2 2 0 002-2V3.333a2 2 0 00-2-2H4zm6.292 9.334l1.375-5.334h-1.183l-.718 3.56c-.04.2-.066.399-.076.595h-.014a4.488 4.488 0 00-.084-.573L8.74 5.333H7.485L6.542 8.87a3.02 3.02 0 00-.105.625h-.022a4.344 4.344 0 00-.069-.61l-.732-3.552h-1.28L5.7 10.667h1.352l.885-3.422c.041-.156.073-.356.095-.599h.014c.01.22.038.42.084.599l.863 3.422h1.298z" fill="url(#btpaint0_linear_2567_3649)"/><defs><linearGradient id="btpaint0_linear_2567_3649" x1="8" y1="1.333" x2="8" y2="14.667" gradientUnits="userSpaceOnUse"><stop stop-color="#69A3FB"/><stop offset="1" stop-color="#477EF7"/></linearGradient></defs></svg></svg>