<?xml version="1.0" encoding="UTF-8"?><svg width="160" height="160" viewBox="0 0 128 112" xmlns="http://www.w3.org/2000/svg" xmlns:xlink="http://www.w3.org/1999/xlink"><view id="icon-aftereffects-24" viewBox="0 0 16 16"/><svg width="16" height="16" viewBox="0 0 16 16" xmlns="http://www.w3.org/2000/svg"><defs><linearGradient x1="50%" y1="0%" x2="50%" y2="95.436%" id="aac"><stop stop-color="#12002C" stop-opacity=".9" offset="0%"/><stop stop-color="#12002C" offset="100%"/></linearGradient><path id="aaa" d="M0 0h16v16H0z"/></defs><g fill="none" fill-rule="evenodd"><mask id="aab" fill="#fff"><use xlink:href="#aaa"/></mask><g mask="url(#aab)"><path d="M4 2h8c.736 0 1.333.597 1.333 1.333v9.334c0 .736-.597 1.333-1.333 1.333H4a1.333 1.333 0 01-1.333-1.333V3.333C2.667 2.597 3.264 2 4 2z" fill="#D8A1FF"/><path d="M4 2.667h8c.368 0 .667.298.667.666v9.334a.667.667 0 01-.667.666H4a.667.667 0 01-.667-.666V3.333c0-.368.299-.666.667-.666z" fill="url(#aac)"/><path d="M10.416 8.17c.244 0 .33 0 .354-.01 0-.033.01-.057.01-.081 0-.258-.125-.737-.622-.737-.46 0-.655.402-.703.828h.961zm-.97.655c.009.646.315 1.081 1.042 1.081.282 0 .526-.038.78-.148.033-.014.057-.01.057.033v.598c0 .048-.014.072-.048.096-.253.124-.569.182-.961.182-1.263 0-1.737-.933-1.737-1.971 0-1.129.584-2.052 1.612-2.052 1.043 0 1.407.875 1.407 1.588 0 .23-.015.416-.039.507-.01.038-.023.053-.062.062a6.925 6.925 0 01-.799.034H9.445v-.01zM6.88 8.337c-.134-.53-.459-1.688-.578-2.248h-.01c-.1.56-.364 1.507-.56 2.248h1.148zm-1.344.775l-.378 1.43c-.01.039-.024.053-.071.053h-.703c-.048 0-.058-.014-.048-.072l1.358-4.75c.024-.086.038-.153.048-.392 0-.033.014-.048.038-.048h1.005c.033 0 .048.01.057.048l1.521 5.152c.01.038 0 .062-.038.062h-.79c-.038 0-.062-.014-.071-.048l-.392-1.435H5.537z" fill="#D8A1FF" fill-rule="nonzero"/></g></g></svg><view id="icon-audio-24" viewBox="16 0 16 16"/><svg width="16" height="16" viewBox="0 0 16 16" x="16" xmlns="http://www.w3.org/2000/svg"><defs><linearGradient x1="50%" y1="0%" x2="50%" y2="100%" id="abc"><stop stop-color="#C7E7F7" offset="0%"/><stop stop-color="#E1D1FE" offset="100%"/></linearGradient><linearGradient x1="50%" y1="0%" x2="50%" y2="100%" id="abf"><stop stop-color="#FFF" offset="0%"/><stop stop-color="#FAFAFA" offset="100%"/></linearGradient><linearGradient x1="50%" y1="-45.345%" x2="50%" y2="138.901%" id="abg"><stop stop-color="#2BA6DE" offset="0%"/><stop stop-color="#9052FD" offset="100%"/></linearGradient><path id="aba" d="M0 0h16v16H0z"/><path d="M4 2.667h8c.368 0 .667.298.667.666v9.334a.667.667 0 01-.667.666H4a.667.667 0 01-.667-.666V3.333c0-.368.299-.666.667-.666z" id="abe"/><filter x="-21.4%" y="-9.4%" width="142.9%" height="137.5%" filterUnits="objectBoundingBox" id="abd"><feOffset dy="1" in="SourceAlpha" result="shadowOffsetOuter1"/><feGaussianBlur stdDeviation=".5" in="shadowOffsetOuter1" result="shadowBlurOuter1"/><feColorMatrix values="0 0 0 0 0 0 0 0 0 0 0 0 0 0 0 0 0 0 0.1 0" in="shadowBlurOuter1"/></filter></defs><g fill="none" fill-rule="evenodd"><mask id="abb" fill="#fff"><use xlink:href="#aba"/></mask><g mask="url(#abb)"><path d="M4 2h8c.736 0 1.333.597 1.333 1.333v9.334c0 .736-.597 1.333-1.333 1.333H4a1.333 1.333 0 01-1.333-1.333V3.333C2.667 2.597 3.264 2 4 2z" fill="url(#abc)"/><use fill="#000" filter="url(#abd)" xlink:href="#abe"/><use fill="url(#abf)" xlink:href="#abe"/><path d="M8.25 7.08l-1.327.316a.333.333 0 00-.256.324v2.309c0 .574-.368 1.084-.913 1.265l-.22.073a.667.667 0 01-.877-.632v-.242a1 1 0 01.66-.94l.47-.17a.333.333 0 00.22-.314V5.928c0-.315.22-.587.53-.652l1.713-.362 1.228-.23a1 1 0 011.184.983v3.718c0 .615-.41 1.155-1.002 1.32l-.098.028a.712.712 0 01-.904-.686V9.82c0-.423.276-.796.68-.92l.21-.064a.667.667 0 00.47-.638V7.102a.333.333 0 00-.406-.326L8.25 7.08z" fill="url(#abg)" opacity=".7"/></g></g></svg><view id="icon-backup-24" viewBox="0 16 16 16"/><svg width="16" height="16" viewBox="0 0 16 16" y="16" xmlns="http://www.w3.org/2000/svg"><defs><linearGradient x1="50%" y1="0%" x2="50%" y2="100%" id="acc"><stop stop-color="#FAFAFA" offset="0%"/><stop stop-color="#F9F9F9" offset="100%"/></linearGradient><path id="aca" d="M0 0h16v16H0z"/></defs><g fill="none" fill-rule="evenodd"><mask id="acb" fill="#fff"><use xlink:href="#aca"/></mask><g mask="url(#acb)" fill-rule="nonzero"><path d="M8.904 2.67c1.666.067 3.024 1.399 3.322 3.127l.026.177.094.024c1.304.37 2.261 1.639 2.318 3.143l.003.141c0 1.812-1.312 3.308-2.974 3.382l-.129.003H4.436c-1.723 0-3.103-1.526-3.103-3.385 0-1.578.987-2.922 2.342-3.291l.054-.014.01-.082c.15-1.002.923-1.786 1.89-1.843l.112-.003c.096 0 .19.007.284.021l.028.005.07-.091c.623-.783 1.521-1.27 2.5-1.314l.148-.003.133.002z" fill="url(#acc)"/><path d="M8.771 2.667l.133.002c1.666.068 3.024 1.4 3.322 3.128l.026.177.094.024c1.304.37 2.261 1.639 2.318 3.143l.003.141c0 1.812-1.312 3.308-2.974 3.382l-.129.003H4.436c-1.723 0-3.103-1.526-3.103-3.385 0-1.578.987-2.922 2.342-3.291l.054-.014.01-.082c.15-1.002.923-1.786 1.89-1.843l.112-.003c.096 0 .19.007.284.021l.028.005.07-.091c.623-.783 1.521-1.27 2.5-1.314l.148-.003zm.001.666l-.118.003c-.721.033-1.4.369-1.897.93l-.104.123-.317.413-.41-.072a1.356 1.356 0 00-.117-.013l-.049-.001-.092.002c-.595.035-1.103.506-1.246 1.148l-.021.115-.07.527-.481.126C2.78 6.926 2 8.013 2 9.282c0 1.463 1.034 2.642 2.311 2.714l.125.004h7.114l.113-.002c1.25-.056 2.27-1.172 2.334-2.563l.003-.14-.002-.13c-.044-1.162-.746-2.151-1.7-2.484l-.122-.038-.52-.137-.087-.596c-.242-1.402-1.297-2.447-2.544-2.565l-.135-.01-.118-.002z" fill="#777"/><path d="M8.19 6.392l.046.039 2 2a.333.333 0 01-.426.51l-.046-.039-1.43-1.43v2.861a.333.333 0 11-.667 0V7.471L6.236 8.902a.333.333 0 01-.426.039l-.046-.039a.333.333 0 01-.038-.425l.038-.046 2-2a.333.333 0 01.426-.039z" fill="#777"/></g></g></svg><view id="icon-bucket-24" viewBox="16 16 16 16"/><svg width="16" height="16" viewBox="0 0 16 16" x="16" y="16" xmlns="http://www.w3.org/2000/svg"><defs><linearGradient x1="50%" y1="0%" x2="50%" y2="99.264%" id="adc"><stop stop-color="#FFF" offset="0%"/><stop stop-color="#FFF" stop-opacity=".9" offset="100%"/></linearGradient><path id="ada" d="M0 0h16v16H0z"/></defs><g fill="none" fill-rule="evenodd"><mask id="adb" fill="#fff"><use xlink:href="#ada"/></mask><g mask="url(#adb)"><path d="M8.143 2c.254.002.505.007.743.015l.234.01.358.02.346.026.297.027.253.029.245.031.136.02c.835.125 1.536.314 2.102.568.3.135.481.416.476.737l-.006.089-1.046 8.743a1.552 1.552 0 01-1.094 1.312c-.847.249-1.911.373-3.19.373-1.277 0-2.337-.124-3.185-.373a1.548 1.548 0 01-1.076-1.196l-.018-.116-1.046-8.743a.807.807 0 01.48-.836c.615-.275 1.397-.473 2.344-.594l.262-.031.294-.03.304-.025.234-.015c.193-.012.39-.021.594-.028l.31-.008L7.926 2h.216z" fill-opacity=".65" fill="#2BA6DE" fill-rule="nonzero"/><path d="M12.582 4.194l-.963 8.042-.015.088a.88.88 0 01-.605.663c-.778.23-1.781.346-3.002.346-1.218 0-2.217-.117-2.997-.346a.885.885 0 01-.62-.75l-.962-8.043c1.101.29 2.745.473 4.582.473 1.837 0 3.481-.184 4.582-.473zM7.333 6H4.667v2.667h2.666V6zm2 6a1.333 1.333 0 100-2.667 1.333 1.333 0 000 2.667z" fill="url(#adc)" fill-rule="nonzero"/><ellipse fill-opacity=".8" fill="#FFF" cx="8" cy="3.333" rx="4.667" ry=".82"/></g></g></svg><view id="icon-bucket-share-24" viewBox="32 0 16 16"/><svg width="16" height="16" fill="none" viewBox="0 0 16 16" x="32" xmlns="http://www.w3.org/2000/svg"><path d="M8.152 2c.27.002.537.007.79.015l.247.01.38.02.369.026.316.027.268.029.26.031.146.02c.886.125 1.631.314 2.233.568.319.135.51.416.506.737l-.007.089-1.111 8.743a1.58 1.58 0 01-1.163 1.312c-.9.249-2.03.373-3.389.373-1.357 0-2.483-.124-3.384-.373a1.586 1.586 0 01-1.143-1.196l-.02-.116-1.11-8.743c-.046-.357.16-.689.51-.836.652-.275 1.483-.473 2.49-.594l.278-.031.312-.03.323-.025.249-.015c.204-.012.415-.021.631-.028l.329-.008.46-.005h.23z" fill="#2BA6DE" fill-opacity=".65"/><path d="M12.912 4.175l-1.034 8.061-.016.088a.907.907 0 01-.648.664c-.835.228-1.91.345-3.217.345-1.306 0-2.376-.117-3.211-.345a.903.903 0 01-.664-.752l-1.033-8.06c1.161.3 2.93.49 4.911.49 1.981 0 3.75-.19 4.912-.49z" fill="url(#aepaint0_linear_393_5418)"/><path d="M8 4c2.761 0 5-.298 5-.667 0-.368-2.239-.666-5-.666s-5 .298-5 .666C3 3.702 5.239 4 8 4z" fill="#fff" fill-opacity=".8"/><path d="M10.667 14.667a4 4 0 100-8 4 4 0 000 8z" fill="#2BA6DE"/><path d="M9.333 9a.333.333 0 00-.666 0v3.333a.333.333 0 00.666 0V9zM12.333 10.333h-2a.333.333 0 100 .667h2a.333.333 0 100-.667z" fill="#fff"/><path d="M11.431 9.098a.333.333 0 01.425-.039l.046.039 1.334 1.333a.333.333 0 01.038.425l-.038.046-1.334 1.334a.333.333 0 01-.51-.426l.039-.046 1.098-1.097-1.098-1.098a.333.333 0 01-.039-.425l.039-.046z" fill="#fff"/><defs><linearGradient id="aepaint0_linear_393_5418" x1="8" y1="4.175" x2="8" y2="13.266" gradientUnits="userSpaceOnUse"><stop stop-color="#fff"/><stop offset="1" stop-color="#fff" stop-opacity=".9"/></linearGradient></defs></svg><view id="icon-cad-24" viewBox="32 16 16 16"/><svg width="16" height="16" viewBox="0 0 16 16" x="32" y="16" xmlns="http://www.w3.org/2000/svg"><defs><linearGradient x1="50%" y1="0%" x2="50%" y2="100%" id="afc"><stop stop-color="#FFF" offset="0%"/><stop stop-color="#FAFAFA" offset="100%"/></linearGradient><path id="afa" d="M0 0h16v16H0z"/></defs><g fill="none" fill-rule="evenodd"><mask id="afb" fill="#fff"><use xlink:href="#afa"/></mask><g mask="url(#afb)"><path d="M4 2h8c.736 0 1.333.597 1.333 1.333v9.334c0 .736-.597 1.333-1.333 1.333H4a1.333 1.333 0 01-1.333-1.333V3.333C2.667 2.597 3.264 2 4 2z" fill="#FDCDCD"/><path d="M4 2.667h8c.368 0 .667.298.667.666v9.334a.667.667 0 01-.667.666H4a.667.667 0 01-.667-.666V3.333c0-.368.299-.666.667-.666z" fill="url(#afc)"/><path d="M6.333 7h6.334v5.667a.667.667 0 01-.667.666H6.333V7z" fill-opacity=".1" fill="#F0373A"/><path fill="#F0373A" opacity=".2" d="M6.333 2.667H7v4h-.667zM3.333 7H6v.667H3.333z"/><path fill-opacity=".3" fill="#F0373A" d="M6.333 7.333H7v6h-.667z"/><path fill="#F0373A" opacity=".3" d="M6.667 7h6v.667h-6z"/><path d="M6 6h1.333c.369 0 .667.298.667.667V8a.667.667 0 01-.667.667H6A.667.667 0 015.333 8V6.667C5.333 6.298 5.632 6 6 6z" fill="#F0373A"/><path fill="#FFF" d="M6 6.667h1.333V8H6z"/></g></g></svg><view id="icon-compressed-24" viewBox="0 32 16 16"/><svg width="16" height="16" viewBox="0 0 16 16" y="32" xmlns="http://www.w3.org/2000/svg"><defs><linearGradient x1="50%" y1="0%" x2="50%" y2="100%" id="agc"><stop stop-color="#FFF" offset="0%"/><stop stop-color="#FAFAFA" offset="100%"/></linearGradient><linearGradient x1="50%" y1="0%" x2="50%" y2="100%" id="agd"><stop stop-color="#AAA" offset="0%"/><stop stop-color="#777" offset="100%"/></linearGradient><path id="aga" d="M0 0h16v16H0z"/></defs><g fill="none" fill-rule="evenodd"><mask id="agb" fill="#fff"><use xlink:href="#aga"/></mask><g mask="url(#agb)"><path d="M4 2h8c.736 0 1.333.597 1.333 1.333v9.334c0 .736-.597 1.333-1.333 1.333H4a1.333 1.333 0 01-1.333-1.333V3.333C2.667 2.597 3.264 2 4 2z" fill="#CCC"/><path d="M4 2.667h8c.368 0 .667.298.667.666v9.334a.667.667 0 01-.667.666H4a.667.667 0 01-.667-.666V3.333c0-.368.299-.666.667-.666z" fill="url(#agc)"/><path d="M6.667 2.667h2.666v8a1.333 1.333 0 01-2.666 0v-8z" fill="url(#agd)"/><path fill="#FFF" d="M7.333 2.667h1.334v.666H7.333zM7.333 4h1.334v.667H7.333zM7.333 5.333h1.334V6H7.333zM7.333 6.667h1.334v.666H7.333zM7.333 8h1.334v.667H7.333z"/><path d="M7.333 9.333h1.334v1.334a.667.667 0 01-1.334 0V9.333z" fill="#FFF" opacity=".8"/></g></g></svg><view id="icon-dmg-24" viewBox="16 32 16 16"/><svg width="16" height="16" viewBox="0 0 16 16" x="16" y="32" xmlns="http://www.w3.org/2000/svg"><defs><linearGradient x1="50%" y1="0%" x2="50%" y2="97.351%" id="ahc"><stop stop-color="#FFF" stop-opacity=".5" offset="0%"/><stop stop-color="#FFF" stop-opacity="0" offset="100%"/></linearGradient><path id="aha" d="M0 0h16v16H0z"/></defs><g fill="none" fill-rule="evenodd"><mask id="ahb" fill="#fff"><use xlink:href="#aha"/></mask><g mask="url(#ahb)"><path d="M4.595 2h6.81c.708 0 1.292.553 1.332 1.26l.518 9.333a1.333 1.333 0 01-1.158 1.396l-.136.01L4.076 14a1.333 1.333 0 01-1.33-1.234l-.003-.136.52-9.37C3.303 2.552 3.887 2 4.595 2z" fill="#CCC"/><path d="M4.626 2.667h6.748c.352 0 .643.273.665.625l.583 9.333a.667.667 0 01-.623.707l-.042.001H4.043a.667.667 0 01-.667-.666l.002-.042.583-9.333a.667.667 0 01.665-.625z" fill="url(#ahc)"/><path d="M3.333 10c0-.368.299-.667.667-.667h8c.368 0 .667.299.667.667v1.333a.667.667 0 00-.59-.662L12 10.667H4a.667.667 0 00-.662.589l-.005.077V10z" fill="#BFBFBF"/><path d="M3.333 10.667c0-.369.299-.667.667-.667h8c.368 0 .667.298.667.667V12a.667.667 0 00-.59-.662L12 11.333H4a.667.667 0 00-.662.59L3.333 12v-1.333z" fill="#FFF" opacity=".8"/><path d="M4 11.333h8c.368 0 .667.299.667.667v.667a.667.667 0 01-.667.666H4a.667.667 0 01-.667-.666V12c0-.368.299-.667.667-.667z" fill="#DDD"/><path d="M4.333 12h7.334a.333.333 0 110 .667H4.333a.333.333 0 010-.667z" fill="#333" opacity=".4"/></g></g></svg><view id="icon-ex-drive-24" viewBox="32 32 16 16"/><svg width="16" height="16" viewBox="0 0 16 16" x="32" y="32" xmlns="http://www.w3.org/2000/svg"><defs><linearGradient x1="50%" y1="0%" x2="50%" y2="100%" id="aic"><stop stop-color="#FAFAFA" offset="0%"/><stop stop-color="#F9F9F9" offset="100%"/></linearGradient><linearGradient x1="50%" y1="0%" x2="50%" y2="195.43%" id="aid"><stop stop-color="#F9F9F9" offset="0%"/><stop stop-color="#E2E2E2" offset="100%"/></linearGradient><path id="aia" d="M0 0h16v16H0z"/></defs><g fill="none" fill-rule="evenodd"><mask id="aib" fill="#fff"><use xlink:href="#aia"/></mask><g mask="url(#aib)"><path d="M4 2h8c.736 0 1.333.597 1.333 1.333v9.334c0 .736-.597 1.333-1.333 1.333H4a1.333 1.333 0 01-1.333-1.333V3.333C2.667 2.597 3.264 2 4 2z" fill="url(#aic)"/><path d="M11.556 10.667c.981 0 1.777.746 1.777 1.666 0 .92-.796 1.667-1.777 1.667H4.444c-.981 0-1.777-.746-1.777-1.667 0-.92.796-1.666 1.777-1.666h7.112zm.177.666H4.267c-.516 0-.934.448-.934 1 0 .513.36.936.825.994l.109.006h7.466c.516 0 .934-.447.934-1 0-.513-.36-.935-.825-.993l-.109-.007z" fill="#777" fill-rule="nonzero"/><path d="M12 2c.736 0 1.333.597 1.333 1.333v9.334c0 .736-.597 1.333-1.333 1.333H4a1.333 1.333 0 01-1.333-1.333V3.333C2.667 2.597 3.264 2 4 2h8zm0 .667H4a.667.667 0 00-.662.589l-.005.077v9.334c0 .342.258.623.59.662l.077.004h8a.667.667 0 00.662-.589l.005-.077V3.333a.667.667 0 00-.59-.662L12 2.667z" fill="#777" fill-rule="nonzero"/><path d="M11.733 11.333H4.267c-.516 0-.934.448-.934 1 0 .513.36.936.825.994l.109.006h7.466c.516 0 .934-.447.934-1 0-.513-.36-.935-.825-.993l-.109-.007z" fill="url(#aid)" fill-rule="nonzero"/><path d="M9 12h2a.333.333 0 110 .667H9A.333.333 0 019 12z" fill="#777" fill-rule="nonzero"/><path d="M8 3.333l1 2h-.833v2.355l1.666-1.111V6h-.5V4.667h1.334V6h-.501v.756l-2 1.333.001.599a.667.667 0 01.495.568l.005.077a.667.667 0 11-.833-.645V8.12l-2-.667v-.807a.667.667 0 11.333 0v.567l1.666.555V5.333H7l1-2z" fill="#777"/></g></g></svg><view id="icon-excel-24" viewBox="48 0 16 16"/><svg width="16" height="16" viewBox="0 0 16 16" x="48" xmlns="http://www.w3.org/2000/svg"><defs><path id="aja" d="M0 0h16v16H0z"/><path d="M4 2.667h8c.368 0 .667.298.667.666v9.334a.667.667 0 01-.667.666H4a.667.667 0 01-.667-.666V3.333c0-.368.299-.666.667-.666z" id="ajd"/><linearGradient x1="50%" y1="0%" x2="50%" y2="100%" id="aje"><stop stop-color="#FFF" offset="0%"/><stop stop-color="#FAFAFA" offset="100%"/></linearGradient><filter x="-21.4%" y="-9.4%" width="142.9%" height="137.5%" filterUnits="objectBoundingBox" id="ajc"><feOffset dy="1" in="SourceAlpha" result="shadowOffsetOuter1"/><feGaussianBlur stdDeviation=".5" in="shadowOffsetOuter1" result="shadowBlurOuter1"/><feColorMatrix values="0 0 0 0 0 0 0 0 0 0 0 0 0 0 0 0 0 0 0.1 0" in="shadowBlurOuter1"/></filter></defs><g fill="none" fill-rule="evenodd"><mask id="ajb" fill="#fff"><use xlink:href="#aja"/></mask><g mask="url(#ajb)"><path d="M4 2h8c.736 0 1.333.597 1.333 1.333v9.334c0 .736-.597 1.333-1.333 1.333H4a1.333 1.333 0 01-1.333-1.333V3.333C2.667 2.597 3.264 2 4 2z" fill="#BBD9CA"/><use fill="#000" filter="url(#ajc)" xlink:href="#ajd"/><use fill="url(#aje)" xlink:href="#ajd"/><path fill="#348E62" d="M6.667 5.333L8 7.111l1.333-1.778h1.334L8.667 8l2 2.667H9.333L8 8.889l-1.333 1.778H5.333l2-2.667-2-2.667z"/></g></g></svg><view id="icon-executable-24" viewBox="48 16 16 16"/><svg width="16" height="16" viewBox="0 0 16 16" x="48" y="16" xmlns="http://www.w3.org/2000/svg"><defs><linearGradient x1="50%" y1="0%" x2="50%" y2="100%" id="akc"><stop stop-color="#FFF" offset="0%"/><stop stop-color="#FAFAFA" offset="100%"/></linearGradient><linearGradient x1="50%" y1="0%" x2="50%" y2="100%" id="akd"><stop stop-color="#CCC" offset="0%"/><stop stop-color="#AAA" offset="100%"/></linearGradient><path id="aka" d="M0 0h16v16H0z"/></defs><g fill="none" fill-rule="evenodd"><mask id="akb" fill="#fff"><use xlink:href="#aka"/></mask><g mask="url(#akb)"><path d="M4 2h8c.736 0 1.333.597 1.333 1.333v9.334c0 .736-.597 1.333-1.333 1.333H4a1.333 1.333 0 01-1.333-1.333V3.333C2.667 2.597 3.264 2 4 2z" fill="#CCC"/><path d="M4 2.667h8c.368 0 .667.298.667.666v9.334a.667.667 0 01-.667.666H4a.667.667 0 01-.667-.666V3.333c0-.368.299-.666.667-.666z" fill="url(#akc)"/><path d="M8 4c.368 0 .667.298.667.667v.75c.245.063.476.16.688.286l.53-.531a.667.667 0 11.943.942l-.53.531c.125.213.222.444.285.688h.75a.667.667 0 110 1.334h-.75a2.65 2.65 0 01-.286.688l.531.53a.667.667 0 11-.942.943l-.531-.53a2.65 2.65 0 01-.688.285v.75a.667.667 0 11-1.334 0v-.75a2.65 2.65 0 01-.688-.286l-.53.531a.667.667 0 11-.943-.942l.53-.531a2.65 2.65 0 01-.285-.688h-.75a.667.667 0 010-1.334h.75a2.65 2.65 0 01.286-.688l-.531-.53a.667.667 0 11.942-.943l.531.53a2.65 2.65 0 01.688-.285v-.75C7.333 4.298 7.632 4 8 4zm0 3.333a.667.667 0 100 1.334.667.667 0 000-1.334z" fill="url(#akd)"/><path d="M8 6.667a1.333 1.333 0 110 2.666 1.333 1.333 0 010-2.666zm0 .666a.667.667 0 100 1.334.667.667 0 000-1.334z" fill-opacity=".3" fill="#000"/></g></g></svg><view id="icon-experiencedesign-24" viewBox="48 32 16 16"/><svg width="16" height="16" viewBox="0 0 16 16" x="48" y="32" xmlns="http://www.w3.org/2000/svg"><defs><linearGradient x1="50%" y1="0%" x2="50%" y2="95.436%" id="alc"><stop stop-color="#2E001E" stop-opacity=".9" offset="0%"/><stop stop-color="#2E001E" offset="100%"/></linearGradient><path id="ala" d="M0 0h16v16H0z"/></defs><g fill="none" fill-rule="evenodd"><mask id="alb" fill="#fff"><use xlink:href="#ala"/></mask><g mask="url(#alb)"><path d="M4 2h8c.736 0 1.333.597 1.333 1.333v9.334c0 .736-.597 1.333-1.333 1.333H4a1.333 1.333 0 01-1.333-1.333V3.333C2.667 2.597 3.264 2 4 2z" fill="#FF2BC2"/><path d="M4 2.667h8c.368 0 .667.298.667.666v9.334a.667.667 0 01-.667.666H4a.667.667 0 01-.667-.666V3.333c0-.368.299-.666.667-.666z" fill="url(#alc)"/><path d="M10.65 7.428a.672.672 0 00-.284-.05c-.616 0-1.027.475-1.027 1.263 0 .9.42 1.262.968 1.262a.923.923 0 00.338-.053V7.428h.005zM8.458 8.68c0-1.14.734-2.03 1.937-2.03.103 0 .157 0 .255.01V5.386c0-.03.024-.049.049-.049h.788c.039 0 .048.015.048.04V9.85c0 .132 0 .298.025.48 0 .033 0 .038-.03.053a2.915 2.915 0 01-1.252.284c-1.062 0-1.82-.656-1.82-1.987zm-1.669-.793l1.37 2.657c.025.04.01.079-.029.079h-.851c-.054 0-.079-.015-.103-.064a211.52 211.52 0 01-.96-2.011h-.009c-.294.656-.616 1.37-.93 2.016-.024.04-.049.054-.088.054h-.812c-.049 0-.054-.04-.03-.069l1.341-2.578-1.296-2.564c-.03-.04 0-.074.034-.074h.842c.049 0 .073.01.088.054.308.65.621 1.292.915 1.948h.01c.283-.646.596-1.297.895-1.938.024-.04.039-.064.088-.064h.788c.039 0 .054.03.029.074l-1.292 2.48z" fill="#FF2BC2" fill-rule="nonzero"/></g></g></svg><view id="icon-folder-24" viewBox="0 48 16 16"/><svg width="16" height="16" viewBox="0 0 16 16" y="48" xmlns="http://www.w3.org/2000/svg"><defs><path id="ama" d="M0 0h16v16H0z"/></defs><g fill="none" fill-rule="evenodd"><mask id="amb" fill="#fff"><use xlink:href="#ama"/></mask><g mask="url(#amb)"><path d="M2 5.333h12v7.334a.667.667 0 01-.667.666H2.667A.667.667 0 012 12.667V5.333z" fill="#F8E9B1"/><path d="M2.667 2.667H6.78c.354 0 .693.14.943.39l.552.552c.25.25.59.391.943.391h4.114c.369 0 .667.298.667.667v.666H2v-2c0-.368.298-.666.667-.666z" fill="#F5DF8E"/><path d="M6.781 2.667c.354 0 .693.14.943.39l.552.552c.25.25.59.391.943.391h4.114c.369 0 .667.298.667.667v8a.667.667 0 01-.667.666H2.667A.667.667 0 012 12.667V3.333c0-.368.298-.666.667-.666H6.78zm0 .666H2.667v9.334h10.666v-8H9.22a2 2 0 01-1.318-.496l-.096-.09-.553-.552a.667.667 0 00-.471-.196z" fill="#EBC01E" fill-rule="nonzero"/><path fill="#EBC01E" d="M2.667 5.333h10.666V6H2.667z"/></g></g></svg><view id="icon-folder-backup-24" viewBox="16 48 16 16"/><svg width="16" height="16" fill="none" viewBox="0 0 16 16" x="16" y="48" xmlns="http://www.w3.org/2000/svg"><path fill-rule="evenodd" clip-rule="evenodd" d="M2 5.333h12v7.334a.667.667 0 01-.667.666H2.667A.667.667 0 012 12.667V5.333z" fill="#F8E9B1"/><path fill-rule="evenodd" clip-rule="evenodd" d="M2.667 2.667H6.78c.354 0 .693.14.943.39l.552.553c.25.25.59.39.943.39h4.114c.368 0 .667.298.667.667v.666H2v-2c0-.368.298-.666.667-.666z" fill="#F5DF8E"/><path fill-rule="evenodd" clip-rule="evenodd" d="M7.724 3.057c-.25-.25-.59-.39-.943-.39H2.667A.667.667 0 002 3.333v9.334c0 .368.298.666.667.666h10.666a.667.667 0 00.667-.666v-8A.667.667 0 0013.333 4H9.22c-.354 0-.693-.14-.943-.39l-.552-.553zm-5.057.276H6.78c.177 0 .346.07.471.196l.553.552.096.09a2 2 0 001.318.496h4.114v8H2.667V3.333z" fill="#EBC01E"/><path fill-rule="evenodd" clip-rule="evenodd" d="M2.667 5.333h10.666V6H2.667v-.667z" fill="#EBC01E"/><path fill-rule="evenodd" clip-rule="evenodd" d="M10.071 8.354A1.767 1.767 0 006.806 7.5h-.058a.832.832 0 00-.832.822v.03a1.557 1.557 0 00.312 3.084h3.637a1.557 1.557 0 00.206-3.083zm-.95.953a.257.257 0 01-.34.034l-.02-.017-.512-.464v1.554a.256.256 0 11-.512 0V8.86l-.512.464a.256.256 0 01-.34 0l-.02-.019a.258.258 0 010-.34l.02-.02.937-.852a.256.256 0 01.324-.017l.02.017.939.852a.256.256 0 01.017.362z" fill="#DC9A0B"/></svg><view id="icon-folder-camera-uploads-24" viewBox="32 48 16 16"/><svg width="16" height="16" viewBox="0 0 16 16" x="32" y="48" xmlns="http://www.w3.org/2000/svg"><defs><path id="aoa" d="M0 0h16v16H0z"/></defs><g fill="none" fill-rule="evenodd"><mask id="aob" fill="#fff"><use xlink:href="#aoa"/></mask><g mask="url(#aob)"><path d="M2 5.333h12v7.334a.667.667 0 01-.667.666H2.667A.667.667 0 012 12.667V5.333z" fill="#F8E9B1"/><path d="M8.667 6.667c.142 0 .287.167.416.341l.158.215c.016.022.032.042.048.06l.044.05h1.334c.458 0 .643.152.664.578l.002.089v3.333c0 .464-.156.644-.578.665l-.088.002H5.333c-.458 0-.643-.151-.664-.578l-.002-.089V8c0-.464.156-.644.578-.665l.088-.002h1.334c.028-.029.06-.067.092-.11l.158-.215c.11-.149.233-.293.355-.332l.061-.01h1.334zM8 8a1.666 1.666 0 100 3.333A1.666 1.666 0 008 8zm0 .667a1 1 0 110 2 1 1 0 010-2z" fill="#DC9A0B"/><path d="M2.667 2.667H6.78c.354 0 .693.14.943.39l.552.552c.25.25.59.391.943.391h4.114c.369 0 .667.298.667.667v.666H2v-2c0-.368.298-.666.667-.666z" fill="#F5DF8E"/><path d="M6.781 2.667c.354 0 .693.14.943.39l.552.552c.25.25.59.391.943.391h4.114c.369 0 .667.298.667.667v8a.667.667 0 01-.667.666H2.667A.667.667 0 012 12.667V3.333c0-.368.298-.666.667-.666H6.78zm0 .666H2.667v9.334h10.666v-8H9.22a2 2 0 01-1.318-.496l-.096-.09-.553-.552a.667.667 0 00-.471-.196z" fill="#EBC01E" fill-rule="nonzero"/><path fill="#EBC01E" d="M2.667 5.333h10.666V6H2.667z"/></g></g></svg><view id="icon-folder-chat-24" viewBox="48 48 16 16"/><svg width="16" height="16" viewBox="0 0 16 16" x="48" y="48" xmlns="http://www.w3.org/2000/svg"><defs><path id="apa" d="M0 0h16v16H0z"/></defs><g fill="none" fill-rule="evenodd"><mask id="apb" fill="#fff"><use xlink:href="#apa"/></mask><g mask="url(#apb)"><path d="M2 5.333h12v7.334a.667.667 0 01-.667.666H2.667A.667.667 0 012 12.667V5.333z" fill="#F8E9B1"/><path d="M2.667 2.667H6.78c.354 0 .693.14.943.39l.552.552c.25.25.59.391.943.391h4.114c.369 0 .667.298.667.667v.666H2v-2c0-.368.298-.666.667-.666z" fill="#F5DF8E"/><path d="M6.781 2.667c.354 0 .693.14.943.39l.552.552c.25.25.59.391.943.391h4.114c.369 0 .667.298.667.667v8a.667.667 0 01-.667.666H2.667A.667.667 0 012 12.667V3.333c0-.368.298-.666.667-.666H6.78zm0 .666H2.667v9.334h10.666v-8H9.22a2 2 0 01-1.318-.496l-.096-.09-.553-.552a.667.667 0 00-.471-.196z" fill="#EBC01E" fill-rule="nonzero"/><path fill="#EBC01E" d="M2.667 5.333h10.666V6H2.667z"/><path d="M11.333 10.167c0 .418-.14.804-.376 1.113l.001.005a.423.423 0 00-.083.257c0 .242.188.44.427.457V12c-.35 0-.67-.087-.912-.231a1.825 1.825 0 01-1.975-.124 2.996 2.996 0 001.522-3.26c.8.196 1.396.92 1.396 1.782z" fill="#DC9A0B" opacity=".7"/><path d="M7 6.667a2.333 2.333 0 11-1.107 4.387 2.699 2.699 0 01-1.226.28l.009-.02a.666.666 0 00.333-1.101A2.333 2.333 0 017 6.667z" fill="#DC9A0B"/></g></g></svg><view id="icon-folder-incoming-24" viewBox="64 0 16 16"/><svg width="16" height="16" viewBox="0 0 16 16" x="64" xmlns="http://www.w3.org/2000/svg"><defs><path id="aqa" d="M0 0h16v16H0z"/></defs><g fill="none" fill-rule="evenodd"><mask id="aqb" fill="#fff"><use xlink:href="#aqa"/></mask><g mask="url(#aqb)"><path d="M2 5.333h12v7.334a.667.667 0 01-.667.666H2.667A.667.667 0 012 12.667V5.333z" fill="#FAEBB6"/><path d="M2.667 2.667H6.78c.354 0 .693.14.943.39l.552.552c.25.25.59.391.943.391h4.114c.369 0 .667.298.667.667v.666H2v-2c0-.368.298-.666.667-.666z" fill="#F5DF8E"/><path d="M6.781 2.667c.354 0 .693.14.943.39l.552.552c.25.25.59.391.943.391h4.114c.369 0 .667.298.667.667v8a.667.667 0 01-.667.666H2.667A.667.667 0 012 12.667V3.333c0-.368.298-.666.667-.666H6.78zm0 .666H2.667v9.334h10.666v-8H9.22a2 2 0 01-1.318-.496l-.096-.09-.553-.552a.667.667 0 00-.471-.196z" fill="#EBC01E" fill-rule="nonzero"/><path fill="#EBC01E" d="M2.667 5.333h10.666V6H2.667z"/><path d="M10.667 11a.333.333 0 10.666 0V7.667a.333.333 0 10-.666 0V11zM4.236 9.569l1.333 1.333a.333.333 0 00.5-.44l-.029-.031-.763-.764H9A.333.333 0 009 9H5.275l.765-.764c.12-.12.13-.31.028-.44l-.028-.032a.333.333 0 00-.44-.027l-.031.027-1.333 1.334a.333.333 0 000 .471z" fill="#DC9A0B" fill-rule="nonzero"/></g></g></svg><view id="icon-folder-outgoing-24" viewBox="64 16 16 16"/><svg width="16" height="16" viewBox="0 0 16 16" x="64" y="16" xmlns="http://www.w3.org/2000/svg"><defs><path id="ara" d="M0 0h16v16H0z"/></defs><g fill="none" fill-rule="evenodd"><mask id="arb" fill="#fff"><use xlink:href="#ara"/></mask><g mask="url(#arb)"><path d="M2 5.333h12v7.334a.667.667 0 01-.667.666H2.667A.667.667 0 012 12.667V5.333z" fill="#F8E9B1"/><path d="M2.667 2.667H6.78c.354 0 .693.14.943.39l.552.552c.25.25.59.391.943.391h4.114c.369 0 .667.298.667.667v.666H2v-2c0-.368.298-.666.667-.666z" fill="#F5DF8E"/><path d="M6.781 2.667c.354 0 .693.14.943.39l.552.552c.25.25.59.391.943.391h4.114c.369 0 .667.298.667.667v8a.667.667 0 01-.667.666H2.667A.667.667 0 012 12.667V3.333c0-.368.298-.666.667-.666H6.78zm0 .666H2.667v9.334h10.666v-8H9.22a2 2 0 01-1.318-.496l-.096-.09-.553-.552a.667.667 0 00-.471-.196z" fill="#EBC01E" fill-rule="nonzero"/><path fill="#EBC01E" d="M2.667 5.333h10.666V6H2.667z"/><path d="M5.333 11a.333.333 0 01-.666 0V7.667a.333.333 0 11.666 0V11zm6.431-1.431l-1.333 1.333a.333.333 0 01-.5-.44l.029-.031.764-.764H7A.333.333 0 017 9h3.724l-.764-.764a.333.333 0 01-.028-.44l.028-.032c.12-.12.309-.13.44-.027l.031.027 1.333 1.334c.13.13.13.34 0 .471z" fill="#DC9A0B" fill-rule="nonzero"/></g></g></svg><view id="icon-folder-public-24" viewBox="64 32 16 16"/><svg width="16" height="16" fill="none" viewBox="0 0 16 16" x="64" y="32" xmlns="http://www.w3.org/2000/svg"><path fill-rule="evenodd" clip-rule="evenodd" d="M2 5.333h12v7.334a.667.667 0 01-.667.666H2.667A.667.667 0 012 12.667V5.333z" fill="#FAEBB6"/><path fill-rule="evenodd" clip-rule="evenodd" d="M2.667 2.667H6.78c.354 0 .693.14.943.39l.552.553c.25.25.59.39.943.39h4.114c.368 0 .667.298.667.667v.666H2v-2c0-.368.298-.666.667-.666z" fill="#F5DF8E"/><path fill-rule="evenodd" clip-rule="evenodd" d="M7.724 3.057c-.25-.25-.59-.39-.943-.39H2.667A.667.667 0 002 3.333v9.334c0 .368.298.666.667.666h10.666a.667.667 0 00.667-.666v-8A.667.667 0 0013.333 4H9.22c-.354 0-.693-.14-.943-.39l-.552-.553zm-5.057.276H6.78c.177 0 .346.07.471.196l.553.552.096.09a2 2 0 001.318.496h4.114v8H2.667V3.333z" fill="#EBC01E"/><path fill-rule="evenodd" clip-rule="evenodd" d="M2.667 5.333h10.666V6H2.667v-.667z" fill="#EBC01E"/><path d="M7.236 8.098a.332.332 0 01.097.235v3.334a.333.333 0 11-.666 0V9.138l-2.765 2.764a.333.333 0 01-.471-.471l2.764-2.764H3.667a.333.333 0 110-.667H7a.333.333 0 01.236.098z" fill="#DC9A0B"/></svg><view id="icon-folder-sync-24" viewBox="64 48 16 16"/><svg width="16" height="16" viewBox="0 0 16 16" x="64" y="48" xmlns="http://www.w3.org/2000/svg"><defs><path id="ata" d="M0 0h16v16H0z"/></defs><g fill="none" fill-rule="evenodd"><mask id="atb" fill="#fff"><use xlink:href="#ata"/></mask><g mask="url(#atb)"><path d="M2 5.333h12v7.334a.667.667 0 01-.667.666H2.667A.667.667 0 012 12.667V5.333z" fill="#FAEBB6"/><path d="M2.667 2.667H6.78c.354 0 .693.14.943.39l.552.552c.25.25.59.391.943.391h4.114c.369 0 .667.298.667.667v.666H2v-2c0-.368.298-.666.667-.666z" fill="#F5DF8E"/><path d="M6.781 2.667c.354 0 .693.14.943.39l.552.552c.25.25.59.391.943.391h4.114c.369 0 .667.298.667.667v8a.667.667 0 01-.667.666H2.667A.667.667 0 012 12.667V3.333c0-.368.298-.666.667-.666H6.78zm0 .666H2.667v9.334h10.666v-8H9.22a2 2 0 01-1.318-.496l-.096-.09-.553-.552a.667.667 0 00-.471-.196z" fill="#EBC01E" fill-rule="nonzero"/><path fill="#EBC01E" d="M2.667 5.333h10.666V6H2.667z"/><path d="M9.995 9.465a.29.29 0 01.217.34c-.208 1.077-1.13 1.862-2.209 1.862a2.24 2.24 0 01-1.922-1.108l-.216.103a.139.139 0 01-.192-.168l.268-.84a.139.139 0 01.175-.09l.022.01.715.373a.139.139 0 01-.005.248l-.257.122c.31.473.834.771 1.412.771.815 0 1.51-.591 1.666-1.397a.278.278 0 01.326-.226zM7.931 7a2.24 2.24 0 011.937 1.132l.267-.127a.139.139 0 01.192.167l-.268.84a.139.139 0 01-.197.082l-.715-.374a.139.139 0 01.005-.248l.206-.1A1.689 1.689 0 007.93 7.58c-.815 0-1.51.59-1.665 1.396a.278.278 0 01-.327.227.29.29 0 01-.216-.341C5.93 7.785 6.853 7 7.93 7z" fill="#DC9A0B" fill-rule="nonzero"/></g></g></svg><view id="icon-font-24" viewBox="0 64 16 16"/><svg width="16" height="16" viewBox="0 0 16 16" y="64" xmlns="http://www.w3.org/2000/svg"><defs><linearGradient x1="50%" y1="0%" x2="50%" y2="100%" id="auc"><stop stop-color="#FFF" offset="0%"/><stop stop-color="#FAFAFA" offset="100%"/></linearGradient><path id="aua" d="M0 0h16v16H0z"/></defs><g fill="none" fill-rule="evenodd"><mask id="aub" fill="#fff"><use xlink:href="#aua"/></mask><g mask="url(#aub)"><path d="M4 2h8c.736 0 1.333.597 1.333 1.333v9.334c0 .736-.597 1.333-1.333 1.333H4a1.333 1.333 0 01-1.333-1.333V3.333C2.667 2.597 3.264 2 4 2z" fill="#CCC"/><path d="M4 2.667h8c.368 0 .667.298.667.666v9.334a.667.667 0 01-.667.666H4a.667.667 0 01-.667-.666V3.333c0-.368.299-.666.667-.666z" fill="url(#auc)"/><path d="M8.893 9.151H6.37l-.442 1.029c-.11.253-.164.442-.164.567 0 .1.048.187.142.262.095.075.299.124.613.146v.178H4.467v-.178c.272-.048.448-.11.528-.187.164-.154.345-.466.544-.937L7.83 4.667H8l2.27 5.421c.182.436.348.719.497.849.149.13.356.202.622.218v.178H8.817v-.178c.26-.012.435-.056.526-.13a.335.335 0 00.137-.268c0-.141-.064-.364-.192-.669l-.395-.937zm-.134-.356L7.653 6.161 6.52 8.795h2.24z" fill="#333"/></g></g></svg><view id="icon-generic-24" viewBox="16 64 16 16"/><svg width="16" height="16" viewBox="0 0 16 16" x="16" y="64" xmlns="http://www.w3.org/2000/svg"><defs><linearGradient x1="50%" y1="0%" x2="50%" y2="100%" id="avc"><stop stop-color="#FFF" offset="0%"/><stop stop-color="#FAFAFA" offset="100%"/></linearGradient><path id="ava" d="M0 0h16v16H0z"/></defs><g fill="none" fill-rule="evenodd"><mask id="avb" fill="#fff"><use xlink:href="#ava"/></mask><g mask="url(#avb)"><path d="M4 2h6.114c.354 0 .693.14.943.39l1.886 1.886c.25.25.39.59.39.943v7.448c0 .736-.597 1.333-1.333 1.333H4a1.333 1.333 0 01-1.333-1.333V3.333C2.667 2.597 3.264 2 4 2z" fill="#DDD"/><path d="M4 2.667h5.724c.177 0 .346.07.471.195l2.276 2.276a.667.667 0 01.196.471v7.058a.667.667 0 01-.667.666H4a.667.667 0 01-.667-.666V3.333c0-.368.299-.666.667-.666z" fill="url(#avc)"/><path fill-opacity=".1" fill="#000" d="M9.333 2.667H10l2.667 2.666V6H9.333z"/><path fill="#FFF" d="M10 2.667l2.667 2.666H10z"/></g></g></svg><view id="icon-illustrator-24" viewBox="32 64 16 16"/><svg width="16" height="16" viewBox="0 0 16 16" x="32" y="64" xmlns="http://www.w3.org/2000/svg"><defs><linearGradient x1="50%" y1="0%" x2="50%" y2="98.311%" id="awc"><stop stop-color="#1C0A00" stop-opacity=".9" offset="0%"/><stop stop-color="#1C0A00" offset="100%"/></linearGradient><path id="awa" d="M0 0h16v16H0z"/></defs><g fill="none" fill-rule="evenodd"><mask id="awb" fill="#fff"><use xlink:href="#awa"/></mask><g mask="url(#awb)"><path d="M4 2h8c.736 0 1.333.597 1.333 1.333v9.334c0 .736-.597 1.333-1.333 1.333H4a1.333 1.333 0 01-1.333-1.333V3.333C2.667 2.597 3.264 2 4 2z" fill="#FF7F18"/><path d="M4 2.667h8c.368 0 .667.298.667.666v9.334a.667.667 0 01-.667.666H4a.667.667 0 01-.667-.666V3.333c0-.368.299-.666.667-.666z" fill="url(#awc)"/><path d="M9.756 6.886c0-.038.014-.057.056-.057h.741c.038 0 .057.015.057.057v3.724c0 .038-.01.057-.057.057h-.731c-.047 0-.061-.024-.061-.062V6.886h-.005zm-.052-1.071c0-.302.212-.482.481-.482.288 0 .482.194.482.482 0 .311-.203.481-.491.481-.274 0-.472-.17-.472-.481zM7.58 8.439c-.132-.524-.444-1.666-.562-2.218h-.01c-.098.552-.348 1.486-.547 2.218H7.58zm-1.312.765l-.373 1.415c-.01.038-.024.048-.07.048H5.13c-.047 0-.056-.015-.047-.071l1.34-4.692c.024-.085.038-.16.048-.391 0-.033.014-.048.038-.048h.99c.034 0 .048.01.057.048l1.501 5.092c.01.038 0 .062-.037.062h-.784c-.038 0-.061-.01-.07-.043l-.388-1.42h-1.51z" fill="#FF7F18" fill-rule="nonzero"/></g></g></svg><view id="icon-image-24" viewBox="48 64 16 16"/><svg width="16" height="16" viewBox="0 0 16 16" x="48" y="64" xmlns="http://www.w3.org/2000/svg"><defs><linearGradient x1="50%" y1="0%" x2="50%" y2="100%" id="axc"><stop stop-color="#FFF" offset="0%"/><stop stop-color="#FAFAFA" offset="100%"/></linearGradient><linearGradient x1="50%" y1="0%" x2="50%" y2="97.5%" id="axe"><stop stop-color="#2BA6DE" stop-opacity=".4" offset="0%"/><stop stop-color="#2BA6DE" stop-opacity=".5" offset="100%"/></linearGradient><path id="axa" d="M0 0h16v16H0z"/><path d="M.667 0h6.666C7.702 0 8 .298 8 .667v6.666A.667.667 0 017.333 8H.667A.667.667 0 010 7.333V.667C0 .298.298 0 .667 0z" id="axd"/></defs><g fill="none" fill-rule="evenodd"><mask id="axb" fill="#fff"><use xlink:href="#axa"/></mask><g mask="url(#axb)"><path d="M4 2h8c.736 0 1.333.597 1.333 1.333v9.334c0 .736-.597 1.333-1.333 1.333H4a1.333 1.333 0 01-1.333-1.333V3.333C2.667 2.597 3.264 2 4 2z" fill="#C4E5F4"/><path d="M4 2.667h8c.368 0 .667.298.667.666v9.334a.667.667 0 01-.667.666H4a.667.667 0 01-.667-.666V3.333c0-.368.299-.666.667-.666z" fill="url(#axc)"/><g transform="translate(4 3.333)"><mask id="axf" fill="#fff"><use xlink:href="#axd"/></mask><use fill="url(#axe)" xlink:href="#axd"/><path d="M8 6L6.333 4.333 4.667 6l2 2h.666A.667.667 0 008 7.333V6z" fill="#CAE6F3" mask="url(#axf)"/><path d="M2 2.667l-2 2v2.666C0 7.702.298 8 .667 8h6L2 2.667z" fill="#E9F3F7" mask="url(#axf)"/><circle fill="#FFF" mask="url(#axf)" cx="5" cy="2.333" r="1"/><path d="M7.333 0C7.702 0 8 .298 8 .667v6.666A.667.667 0 017.333 8H.667A.667.667 0 010 7.333V.667C0 .298.298 0 .667 0h6.666zm0 .667H.667v6.666h6.666V.667z" fill-opacity=".1" fill="#2BA6DE" fill-rule="nonzero" mask="url(#axf)"/></g></g></g></svg><view id="icon-indesign-24" viewBox="64 64 16 16"/><svg width="16" height="16" viewBox="0 0 16 16" x="64" y="64" xmlns="http://www.w3.org/2000/svg"><defs><linearGradient x1="50%" y1="0%" x2="50%" y2="95.436%" id="ayc"><stop stop-color="#250012" stop-opacity=".9" offset="0%"/><stop stop-color="#250012" offset="100%"/></linearGradient><path id="aya" d="M0 0h16v16H0z"/></defs><g fill="none" fill-rule="evenodd"><mask id="ayb" fill="#fff"><use xlink:href="#aya"/></mask><g mask="url(#ayb)"><path d="M4 2h8c.736 0 1.333.597 1.333 1.333v9.334c0 .736-.597 1.333-1.333 1.333H4a1.333 1.333 0 01-1.333-1.333V3.333C2.667 2.597 3.264 2 4 2z" fill="#FF408C"/><path d="M4 2.667h8c.368 0 .667.298.667.666v9.334a.667.667 0 01-.667.666H4a.667.667 0 01-.667-.666V3.333c0-.368.299-.666.667-.666z" fill="url(#ayc)"/><path d="M9.589 7.424a.68.68 0 00-.282-.048c-.617 0-1.048.473-1.048 1.263 0 .899.44 1.262.99 1.262a.86.86 0 00.34-.057v-2.42zm-.254-.78c.1 0 .158 0 .254.01V5.38c0-.033.024-.048.048-.048h.775c.038 0 .047.015.047.039v4.472c0 .134 0 .301.024.483 0 .034-.01.038-.043.057a2.924 2.924 0 01-1.253.283c-1.057 0-1.813-.656-1.813-1.99-.005-1.143.751-2.033 1.961-2.033zm-2.807 3.889c0 .048-.01.062-.063.062H5.73c-.048 0-.062-.024-.062-.062V5.396c0-.048.024-.063.062-.063h.741c.039 0 .058.015.058.058v5.142z" fill="#FF408C" fill-rule="nonzero"/></g></g></svg><view id="icon-keynote-24" viewBox="80 0 16 16"/><svg width="16" height="16" viewBox="0 0 16 16" x="80" xmlns="http://www.w3.org/2000/svg"><defs><linearGradient x1="50%" y1="0%" x2="50%" y2="100%" id="azc"><stop stop-color="#A1E5FD" offset="0%"/><stop stop-color="#A2C6F9" offset="100%"/></linearGradient><linearGradient x1="50%" y1="0%" x2="50%" y2="100%" id="azd"><stop stop-color="#FFF" offset="0%"/><stop stop-color="#FAFAFA" offset="100%"/></linearGradient><linearGradient x1="50%" y1="-53.345%" x2="50%" y2="154.374%" id="aze"><stop stop-color="#37D4F6" offset="0%"/><stop stop-color="#1B63F2" offset="100%"/></linearGradient><path id="aza" d="M0 0h16v16H0z"/></defs><g fill="none" fill-rule="evenodd"><mask id="azb" fill="#fff"><use xlink:href="#aza"/></mask><g mask="url(#azb)"><path d="M4 2h8c.736 0 1.333.597 1.333 1.333v9.334c0 .736-.597 1.333-1.333 1.333H4a1.333 1.333 0 01-1.333-1.333V3.333C2.667 2.597 3.264 2 4 2z" fill="url(#azc)"/><path d="M4 2.667h8c.368 0 .667.298.667.666v9.334a.667.667 0 01-.667.666H4a.667.667 0 01-.667-.666V3.333c0-.368.299-.666.667-.666z" fill="url(#azd)"/><path d="M11.333 8.667V9a.336.336 0 01-.34.333H8.333v1.345c0 .338.259.616.58.656h.76c.161 0 .295.122.323.274l.005.059a.334.334 0 01-.327.333H6.327a.334.334 0 010-.667h.755a.662.662 0 00.582-.655V9.333H5.006A.34.34 0 014.666 9v-.333h6.667zM7.667 4a.333.333 0 010 .667H7a.333.333 0 01-.333-.334H6c-.164 0-.3.118-.328.274l-.005.06v.666h4.987a.36.36 0 01.362.327l.136 2.013a.302.302 0 01-.31.327H5.158a.302.302 0 01-.31-.327l.136-2.013a.359.359 0 01.35-.326v-.667c0-.342.257-.624.588-.663L6 4h1.667z" fill="url(#aze)" opacity=".8"/></g></g></svg><view id="icon-mobile-24" viewBox="80 16 16 16"/><svg width="16" height="16" viewBox="0 0 16 16" x="80" y="16" xmlns="http://www.w3.org/2000/svg"><defs><linearGradient x1="50%" y1="0%" x2="50%" y2="99.486%" id="bac"><stop stop-color="#FAFAFA" offset="0%"/><stop stop-color="#F9F9F9" offset="100%"/></linearGradient><path id="baa" d="M0 0h16v16H0z"/></defs><g fill="none" fill-rule="evenodd"><mask id="bab" fill="#fff"><use xlink:href="#baa"/></mask><g mask="url(#bab)"><path d="M5.333 2h5.334C11.403 2 12 2.597 12 3.333v9.334c0 .736-.597 1.333-1.333 1.333H5.333A1.333 1.333 0 014 12.667V3.333C4 2.597 4.597 2 5.333 2z" fill="url(#bac)"/><path d="M10.667 2C11.403 2 12 2.597 12 3.333v9.334c0 .736-.597 1.333-1.333 1.333H5.333A1.333 1.333 0 014 12.667V3.333C4 2.597 4.597 2 5.333 2h5.334zm0 .667H5.333a.667.667 0 00-.662.589l-.004.077v9.334c0 .342.257.623.589.662l.077.004h5.334a.667.667 0 00.662-.589l.004-.077V3.333a.667.667 0 00-.589-.662l-.077-.004z" fill="#777" fill-rule="nonzero"/><path d="M8 11.333a.667.667 0 110 1.334.667.667 0 010-1.334zM7 3.333h2A.333.333 0 019 4H7a.333.333 0 110-.667z" fill="#777"/></g></g></svg><view id="icon-mobile-android-24" viewBox="80 32 16 16"/><svg width="16" height="16" viewBox="0 0 16 16" x="80" y="32" xmlns="http://www.w3.org/2000/svg"><defs><linearGradient x1="50%" y1="0%" x2="50%" y2="99.486%" id="bbc"><stop stop-color="#FAFAFA" offset="0%"/><stop stop-color="#F9F9F9" offset="100%"/></linearGradient><path id="bba" d="M0 0h16v16H0z"/></defs><g fill="none" fill-rule="evenodd"><mask id="bbb" fill="#fff"><use xlink:href="#bba"/></mask><g mask="url(#bbb)"><path d="M5.333 2h5.334C11.403 2 12 2.597 12 3.333v9.334c0 .736-.597 1.333-1.333 1.333H5.333A1.333 1.333 0 014 12.667V3.333C4 2.597 4.597 2 5.333 2z" fill="url(#bbc)"/><path d="M10.667 2C11.403 2 12 2.597 12 3.333v9.334c0 .736-.597 1.333-1.333 1.333H5.333A1.333 1.333 0 014 12.667V3.333C4 2.597 4.597 2 5.333 2h5.334zm0 .667H5.333a.667.667 0 00-.662.589l-.004.077v9.334c0 .342.257.623.589.662l.077.004h5.334a.667.667 0 00.662-.589l.004-.077V3.333a.667.667 0 00-.589-.662l-.077-.004z" fill="#777" fill-rule="nonzero"/><path d="M7 3.333h2A.333.333 0 019 4H7a.333.333 0 110-.667zM9.725 7.433v2.388c0 .123-.155.283-.284.283h-.405v.842a.379.379 0 01-.371.387.377.377 0 01-.369-.387v-.842h-.592v.842a.377.377 0 01-.369.387.377.377 0 01-.369-.387v-.842H6.56c-.129 0-.285-.16-.285-.283V7.433h3.451zm.628-.132c.173 0 .314.174.314.387v1.465c0 .214-.14.387-.314.387-.173 0-.314-.173-.314-.387V7.688c0-.187.108-.343.25-.379l.064-.008zm-4.706 0c.173 0 .314.173.314.386v1.465c0 .213-.14.386-.314.386-.173 0-.314-.173-.314-.386V7.687c0-.187.108-.343.25-.379l.064-.008zm3.434-1.967l.023.004c.027.015.013.04.013.04l-.296.486c.539.25.904.738.904 1.27h-3.45c0-.532.365-1.02.904-1.27l-.296-.486s-.013-.026.014-.04c.026-.015.043.01.043.01l.301.49c.23-.096.487-.15.759-.15s.53.054.759.15l.3-.49s.019-.025.045-.01zm-.297.974a.232.232 0 00-.235.227.23.23 0 00.235.223.23.23 0 00.236-.223.232.232 0 00-.236-.227zm-1.568 0a.232.232 0 00-.236.227.23.23 0 00.236.223.23.23 0 00.235-.223.232.232 0 00-.235-.227z" fill="#777"/></g></g></svg><view id="icon-mobile-ios-24" viewBox="80 48 16 16"/><svg width="16" height="16" viewBox="0 0 16 16" x="80" y="48" xmlns="http://www.w3.org/2000/svg"><defs><linearGradient x1="50%" y1="0%" x2="50%" y2="99.486%" id="bcc"><stop stop-color="#FAFAFA" offset="0%"/><stop stop-color="#F9F9F9" offset="100%"/></linearGradient><path id="bca" d="M0 0h16v16H0z"/></defs><g fill="none" fill-rule="evenodd"><mask id="bcb" fill="#fff"><use xlink:href="#bca"/></mask><g mask="url(#bcb)"><path d="M5.333 2h5.334C11.403 2 12 2.597 12 3.333v9.334c0 .736-.597 1.333-1.333 1.333H5.333A1.333 1.333 0 014 12.667V3.333C4 2.597 4.597 2 5.333 2z" fill="url(#bcc)"/><path d="M10.667 2C11.403 2 12 2.597 12 3.333v9.334c0 .736-.597 1.333-1.333 1.333H5.333A1.333 1.333 0 014 12.667V3.333C4 2.597 4.597 2 5.333 2h5.334zm0 .667H5.333a.667.667 0 00-.662.589l-.004.077v9.334c0 .342.257.623.589.662l.077.004h5.334a.667.667 0 00.662-.589l.004-.077V3.333a.667.667 0 00-.589-.662l-.077-.004z" fill="#777" fill-rule="nonzero"/><path d="M7 3.333h2A.333.333 0 019 4H7a.333.333 0 110-.667zM8.909 6.657l.154.002c.395.012.76.203.986.516a1.175 1.175 0 00-.582.992c0 .458.285.872.721 1.05-.084.265-.21.514-.375.74-.22.32-.452.631-.82.637-.357.008-.478-.203-.887-.203-.414 0-.542.197-.885.211-.35.013-.617-.341-.846-.658-.458-.646-.815-1.822-.337-2.622a1.32 1.32 0 011.105-.652c.35-.007.676.23.892.23.211 0 .613-.283 1.028-.24zM9.068 5.4c.024.302-.075.601-.276.834-.194.234-.489.369-.8.366-.02-.294.082-.583.283-.804.203-.223.486-.365.793-.396z" fill="#777"/></g></g></svg><view id="icon-numbers-24" viewBox="80 64 16 16"/><svg width="16" height="16" viewBox="0 0 16 16" x="80" y="64" xmlns="http://www.w3.org/2000/svg"><defs><linearGradient x1="50%" y1="0%" x2="50%" y2="100%" id="bdc"><stop stop-color="#A9F5A4" offset="0%"/><stop stop-color="#85E88C" offset="100%"/></linearGradient><linearGradient x1="50%" y1="0%" x2="50%" y2="100%" id="bdd"><stop stop-color="#FFF" offset="0%"/><stop stop-color="#FAFAFA" offset="100%"/></linearGradient><linearGradient x1="50%" y1="-41.262%" x2="50%" y2="120.954%" id="bde"><stop stop-color="#7EFA68" offset="0%"/><stop stop-color="#0BD319" offset="100%"/></linearGradient><path id="bda" d="M0 0h16v16H0z"/></defs><g fill="none" fill-rule="evenodd"><mask id="bdb" fill="#fff"><use xlink:href="#bda"/></mask><g mask="url(#bdb)"><path d="M4 2h8c.736 0 1.333.597 1.333 1.333v9.334c0 .736-.597 1.333-1.333 1.333H4a1.333 1.333 0 01-1.333-1.333V3.333C2.667 2.597 3.264 2 4 2z" fill="url(#bdc)"/><path d="M4 2.667h8c.368 0 .667.298.667.666v9.334a.667.667 0 01-.667.666H4a.667.667 0 01-.667-.666V3.333c0-.368.299-.666.667-.666z" fill="url(#bdd)"/><path d="M11.333 11.333V12H4v-.667h7.333zM7.333 8v2.667H6V8h1.333zm2-3.333v6H8v-6h1.333zm2 2v4H10v-4h1.333zm-6 2.666v1.334H4V9.333h1.333z" fill="url(#bde)" opacity=".7"/></g></g></svg><view id="icon-open-office-24" viewBox="0 80 16 16"/><svg width="16" height="16" viewBox="0 0 16 16" y="80" xmlns="http://www.w3.org/2000/svg"><defs><linearGradient x1="50%" y1="0%" x2="50%" y2="100%" id="bec"><stop stop-color="#FFF" offset="0%"/><stop stop-color="#FAFAFA" offset="100%"/></linearGradient><path id="bea" d="M0 0h16v16H0z"/></defs><g fill="none" fill-rule="evenodd"><mask id="beb" fill="#fff"><use xlink:href="#bea"/></mask><g mask="url(#beb)"><path d="M4 2h8c.736 0 1.333.597 1.333 1.333v9.334c0 .736-.597 1.333-1.333 1.333H4a1.333 1.333 0 01-1.333-1.333V3.333C2.667 2.597 3.264 2 4 2z" fill="#9ECEEB"/><path d="M4 2.667h8c.368 0 .667.298.667.666v9.334a.667.667 0 01-.667.666H4a.667.667 0 01-.667-.666V3.333c0-.368.299-.666.667-.666z" fill="url(#bec)"/><path d="M4 2.667h2v10.666H4a.667.667 0 01-.667-.666V3.333c0-.368.299-.666.667-.666z" fill="#0E85CD" opacity=".2"/><g fill="#0E85CD" fill-rule="nonzero"><path d="M10.644 4.333l-.047-.03a2.048 2.048 0 00-.822-.29 2.006 2.006 0 00-1.437.397 2.07 2.07 0 00-.964-.383 1.988 1.988 0 00-1.346.334l-.012.009A.058.058 0 006 4.41c0 .03.018.053.041.053h.007l.003-.001c.215-.05.44-.065.668-.038.642.077 1.202.327 1.594.89.02.027.039.025.06-.001.494-.724 1.25-1.01 2.064-.912.045.005.09.012.135.021l.053.01c.027.004.042-.024.042-.053 0-.02-.007-.036-.023-.046zM9.958 7.166c-.028-.016-.058-.03-.086-.045a4.427 4.427 0 00-1.528-.434 4.393 4.393 0 00-2.669.595 4.406 4.406 0 00-4.29-.073l-.022.012a.079.079 0 00.047.14h.013l.005-.001c.4-.076.817-.098 1.241-.057 1.193.116 2.231.49 2.96 1.335.039.04.072.038.11-.002.918-1.085 2.324-1.514 3.835-1.368.084.008.167.019.25.032l.099.014c.05.006.077-.035.077-.078a.073.073 0 00-.042-.07z"/></g></g></g></svg><view id="icon-pages-24" viewBox="16 80 16 16"/><svg width="16" height="16" viewBox="0 0 16 16" x="16" y="80" xmlns="http://www.w3.org/2000/svg"><defs><linearGradient x1="50%" y1="0%" x2="50%" y2="100%" id="bfc"><stop stop-color="#FFE199" offset="0%"/><stop stop-color="#FFCD99" offset="100%"/></linearGradient><linearGradient x1="50%" y1="0%" x2="50%" y2="100%" id="bfd"><stop stop-color="#FFF" offset="0%"/><stop stop-color="#FAFAFA" offset="100%"/></linearGradient><linearGradient x1="50%" y1="-25.393%" x2="50%" y2="144.804%" id="bfe"><stop stop-color="#FEB800" offset="0%"/><stop stop-color="#FE8601" offset="100%"/></linearGradient><path id="bfa" d="M0 0h16v16H0z"/></defs><g fill="none" fill-rule="evenodd"><mask id="bfb" fill="#fff"><use xlink:href="#bfa"/></mask><g mask="url(#bfb)"><path d="M4 2h8c.736 0 1.333.597 1.333 1.333v9.334c0 .736-.597 1.333-1.333 1.333H4a1.333 1.333 0 01-1.333-1.333V3.333C2.667 2.597 3.264 2 4 2z" fill="url(#bfc)"/><path d="M4 2.667h8c.368 0 .667.298.667.666v9.334a.667.667 0 01-.667.666H4a.667.667 0 01-.667-.666V3.333c0-.368.299-.666.667-.666z" fill="url(#bfd)"/><path d="M12.667 11.333V12h-8v-.667h8zm-6.84-1.632l.667.663a2.18 2.18 0 01-.283.175l-.525.263c-.328.164-.46.03-.296-.297l.262-.525a2.19 2.19 0 01.174-.28zm4.248-4.294l.712.706-4.035 4.037c-.03.029-.064.06-.102.092l-.7-.7c.032-.039.063-.073.092-.102l4.033-4.033zm1.279-.675l.056.049a.505.505 0 01.003.708l-.488.486-.709-.71.487-.486c.16-.16.4-.189.59-.086l.06.039z" fill="url(#bfe)" opacity=".7"/></g></g></svg><view id="icon-pc-24" viewBox="32 80 16 16"/><svg width="16" height="16" viewBox="0 0 16 16" x="32" y="80" xmlns="http://www.w3.org/2000/svg"><defs><linearGradient x1="50%" y1="0%" x2="50%" y2="99.22%" id="bgc"><stop stop-color="#FAFAFA" offset="0%"/><stop stop-color="#F9F9F9" offset="100%"/></linearGradient><path id="bga" d="M0 0h16v16H0z"/></defs><g fill="none" fill-rule="evenodd"><mask id="bgb" fill="#fff"><use xlink:href="#bga"/></mask><g mask="url(#bgb)"><path d="M1.333 0H12c.368 0 .667.298.667.667v6.666h-12V.667C.667.298.965 0 1.333 0z" fill="url(#bgc)" transform="translate(1.333 4)"/><path d="M13.333 4c.369 0 .667.298.667.667V12H2V4.667C2 4.298 2.298 4 2.667 4h10.666zm0 .667H2.667v6.666h10.666V4.667z" fill="#777" fill-rule="nonzero"/><path d="M1.333 11.333h13.334A.667.667 0 0114 12H2a.667.667 0 01-.662-.589l-.005-.078z" fill="#777"/></g></g></svg><view id="icon-pc-linux-24" viewBox="48 80 16 16"/><svg width="16" height="16" viewBox="0 0 16 16" x="48" y="80" xmlns="http://www.w3.org/2000/svg"><defs><linearGradient x1="50%" y1="0%" x2="50%" y2="100%" id="bhc"><stop stop-color="#FAFAFA" offset="0%"/><stop stop-color="#F9F9F9" offset="100%"/></linearGradient><path id="bha" d="M0 0h16v16H0z"/></defs><g fill="none" fill-rule="evenodd"><mask id="bhb" fill="#fff"><use xlink:href="#bha"/></mask><g mask="url(#bhb)"><path d="M1.333 0H12c.368 0 .667.298.667.667v6.666h-12V.667C.667.298.965 0 1.333 0z" fill="url(#bhc)" transform="translate(1.333 4)"/><path d="M13.333 4c.369 0 .667.298.667.667V12H2V4.667C2 4.298 2.298 4 2.667 4h10.666zm0 .667H2.667v6.666h10.666V4.667z" fill="#777" fill-rule="nonzero"/><path d="M1.333 11.333h13.334A.667.667 0 0114 12H2a.667.667 0 01-.662-.589l-.005-.078zM7.165 6.347c-.106-1.14 1.216-1.324 1.574-.523.283.636-.162 1.104.497 1.726.438.415.596.927.474 1.535l.013-.073a.595.595 0 01.192.035c.139.059.173.255.173.374 0 .12.199.114.242.373.043.259-.321.292-.593.435-.271.143-.33.383-.662.43-.283.041-.526-.099-.591-.255-.449-.092-.811-.075-1.088.05l.102-.038c-.118.234-.501.34-.835.161-.481-.255-.621-.171-.765-.171-.145 0-.231-.146-.231-.26 0-.115.09-.461.045-.582-.045-.121.183-.318.35-.347.1-.017.14-.132.19-.218-.013-.133.036-.366.147-.697.25-.749.883-.707.766-1.955zM6.75 9.175c-.08-.125-.26-.134-.354-.107-.095.027-.11.233-.232.254-.136.023-.321.184-.284.282.036.098-.037.38-.037.472 0 .093.07.212.187.212.117 0 .231-.068.622.14.39.207.863-.06.658-.429-.206-.368-.223-.273-.31-.395-.086-.122-.169-.304-.25-.429zm2.128-.039l-.01.008c-.054.06-.081.147-.081.264 0 .306-.144.474-.144.803 0 .147.224.307.494.27.27-.039.317-.23.538-.344.22-.114.517-.14.481-.347-.035-.207-.196-.202-.196-.298 0-.095-.028-.252-.14-.298a.68.68 0 00-.25-.03l-.026.032c-.076.084-.198.167-.328.167-.183 0-.267-.082-.321-.185l-.017-.042zM8.425 6.99L8.41 7a.762.762 0 01-.164.086c-.083.026-.21.137-.307.153-.134.02-.337 0-.555-.153a.782.782 0 01-.021-.016l.007-.025a2.957 2.957 0 01-.305.962c-.222.412-.313.72-.267.871.045.152.572.466.572.713 0 .113-.022.177-.067.193.042.053.095.137.168.267.21.094.65.2 1.05-.12.052-.2.122-.373.122-.615 0-.213.07-.35.212-.41a.57.57 0 00-.002.06l.005-.085c.011-.084.042-.16.1-.191a.307.307 0 01.07-.028l.06-.01-.06-.077c-.2-.537-.35-.9-.453-1.093a1.272 1.272 0 01-.151-.492zm.572 1.813c-.082.046-.072.24-.04.305.033.064.084.115.194.115s.21-.102.236-.163c.027-.062.017-.128-.083-.196s-.21-.116-.307-.061zm-1.366-2.15c-.07.03-.178.11-.242.147-.065.036-.107.115.068.217.174.102.337.116.443.102.079-.01.18-.085.246-.102.066-.018.213-.09.213-.128 0-.038-.006-.096-.213-.158-.207-.063-.239-.091-.275-.091-.036 0-.17-.019-.24.013zm.254-.133h.018c.024 0 .046.012.1.037L8 6.612c-.005-.122.04-.178.136-.166.124.015.108.13.07.194l.04.016c.042.015.078.03.107.044.073-.11.121-.562-.186-.605-.191-.027-.285.114-.282.424zm-.408-.376c-.147 0-.268.305-.095.554l.067-.05.024.038c-.075-.096-.075-.17 0-.222.058-.04.098-.014.121.08a.244.244 0 01.086-.027c-.034-.248-.102-.373-.203-.373z" fill="#777"/></g></g></svg><view id="icon-pc-mac-24" viewBox="64 80 16 16"/><svg width="16" height="16" viewBox="0 0 16 16" x="64" y="80" xmlns="http://www.w3.org/2000/svg"><defs><linearGradient x1="50%" y1="0%" x2="50%" y2="100%" id="bic"><stop stop-color="#FAFAFA" offset="0%"/><stop stop-color="#F9F9F9" offset="100%"/></linearGradient><path id="bia" d="M0 0h16v16H0z"/></defs><g fill="none" fill-rule="evenodd"><mask id="bib" fill="#fff"><use xlink:href="#bia"/></mask><g mask="url(#bib)"><path d="M1.333 0H12c.368 0 .667.298.667.667v6.666h-12V.667C.667.298.965 0 1.333 0z" fill="url(#bic)" transform="translate(1.333 4)"/><path d="M13.333 4c.369 0 .667.298.667.667V12H2V4.667C2 4.298 2.298 4 2.667 4h10.666zm0 .667H2.667v6.666h10.666V4.667z" fill="#777" fill-rule="nonzero"/><path d="M1.333 11.333h13.334A.667.667 0 0114 12H2a.667.667 0 01-.662-.589l-.005-.078zM8.909 6.657l.154.002c.395.012.76.203.986.516a1.175 1.175 0 00-.582.992c0 .458.285.872.721 1.05-.084.265-.21.514-.375.74-.22.32-.452.631-.82.637-.357.008-.478-.203-.887-.203-.414 0-.542.197-.885.211-.35.013-.617-.341-.846-.658-.458-.646-.815-1.822-.337-2.622a1.32 1.32 0 011.105-.652c.35-.007.676.23.892.23.211 0 .613-.283 1.028-.24zM9.068 5.4c.024.302-.075.601-.276.834-.194.234-.489.369-.8.366-.02-.294.082-.583.283-.804.203-.223.486-.365.793-.396z" fill="#777"/></g></g></svg><view id="icon-pc-win-24" viewBox="80 80 16 16"/><svg width="16" height="16" viewBox="0 0 16 16" x="80" y="80" xmlns="http://www.w3.org/2000/svg"><defs><linearGradient x1="50%" y1="0%" x2="50%" y2="100%" id="bjc"><stop stop-color="#FAFAFA" offset="0%"/><stop stop-color="#F9F9F9" offset="100%"/></linearGradient><path id="bja" d="M0 0h16v16H0z"/></defs><g fill="none" fill-rule="evenodd"><mask id="bjb" fill="#fff"><use xlink:href="#bja"/></mask><g mask="url(#bjb)"><path d="M1.333 0H12c.368 0 .667.298.667.667v6.666h-12V.667C.667.298.965 0 1.333 0z" fill="url(#bjc)" transform="translate(1.333 4)"/><path d="M13.333 4c.369 0 .667.298.667.667V12H2V4.667C2 4.298 2.298 4 2.667 4h10.666zm0 .667H2.667v6.666h10.666V4.667z" fill="#777" fill-rule="nonzero"/><path d="M1.333 11.333h13.334A.667.667 0 0114 12H2a.667.667 0 01-.662-.589l-.005-.078zM7.667 8.333v2h-2v-2h2zm2.666 0v2h-2v-2h2zM7.667 5.667v2h-2v-2h2zm2.666 0v2h-2v-2h2z" fill="#777"/></g></g></svg><view id="icon-pdf-24" viewBox="96 0 16 16"/><svg width="16" height="16" viewBox="0 0 16 16" x="96" xmlns="http://www.w3.org/2000/svg"><defs><linearGradient x1="50%" y1="0%" x2="50%" y2="100%" id="bkc"><stop stop-color="#FFF" offset="0%"/><stop stop-color="#FAFAFA" offset="100%"/></linearGradient><path id="bka" d="M0 0h16v16H0z"/></defs><g fill="none" fill-rule="evenodd"><mask id="bkb" fill="#fff"><use xlink:href="#bka"/></mask><g mask="url(#bkb)"><path d="M4 2h8c.736 0 1.333.597 1.333 1.333v9.334c0 .736-.597 1.333-1.333 1.333H4a1.333 1.333 0 01-1.333-1.333V3.333C2.667 2.597 3.264 2 4 2z" fill="#FDCDCD"/><path d="M4 2.667h8c.368 0 .667.298.667.666v9.334a.667.667 0 01-.667.666H4a.667.667 0 01-.667-.666V3.333c0-.368.299-.666.667-.666z" fill="url(#bkc)"/><path d="M5.348 11.349c-.324 0-.515-.23-.592-.363-.076-.134-.248-.554.268-1.069.21-.21.592-.611 1.584-.955.134-.267.268-.553.401-.859.153-.343.287-.63.382-.897-.4-.65-.477-1.127-.458-1.68.019-.63.44-.86.706-.86.191 0 .688.172.707.993.019.325-.038.707-.325 1.49.21.286.478.63.821 1.012.115.133.23.248.325.343 1.069-.038 1.603.191 1.794.306.44.267.401.706.325.897-.057.153-.267.42-.706.42-.096 0-.21-.02-.325-.038-.344-.096-.592-.23-1.336-1.012-.344.019-.707.076-1.089.153a7.702 7.702 0 00-.84.21c-.82 1.622-1.222 1.794-1.355 1.852a.697.697 0 01-.287.057zm.84-1.585c-.42.21-.63.42-.763.554-.23.229-.191.363-.191.363l.038.057s.019.038.057.038c.02 0 .038 0 .077-.019.057-.02.286-.134.782-.993zm3.551-.706c.382.363.516.42.688.458.057.02.114.02.172.02.133 0 .171-.058.171-.058.02-.077 0-.153-.095-.21-.057-.038-.325-.172-.936-.21zm-2.348-.344l-.019.038c.134-.038.248-.057.382-.076.248-.038.477-.095.706-.115l-.019-.019a10.696 10.696 0 01-.649-.763l-.019.019v-.02c-.076.172-.153.344-.23.554-.056.134-.114.268-.152.382zM7.64 5.24c-.076.02-.114.134-.114.287 0 .286 0 .573.153.935.133-.42.133-.63.133-.782-.019-.287-.114-.401-.172-.44z" fill="#F94646" fill-rule="nonzero"/></g></g></svg><view id="icon-photoshop-24" viewBox="96 16 16 16"/><svg width="16" height="16" viewBox="0 0 16 16" x="96" y="16" xmlns="http://www.w3.org/2000/svg"><defs><linearGradient x1="50%" y1="0%" x2="50%" y2="100%" id="blc"><stop stop-color="#0C0824" stop-opacity=".9" offset="0%"/><stop stop-color="#0C0824" offset="100%"/></linearGradient><path id="bla" d="M0 0h16v16H0z"/></defs><g fill="none" fill-rule="evenodd"><mask id="blb" fill="#fff"><use xlink:href="#bla"/></mask><g mask="url(#blb)"><path d="M4 2h8c.736 0 1.333.597 1.333 1.333v9.334c0 .736-.597 1.333-1.333 1.333H4a1.333 1.333 0 01-1.333-1.333V3.333C2.667 2.597 3.264 2 4 2z" fill="#31C5F0"/><path d="M4 2.667h8c.368 0 .667.298.667.666v9.334a.667.667 0 01-.667.666H4a.667.667 0 01-.667-.666V3.333c0-.368.299-.666.667-.666z" fill="url(#blc)"/><path d="M9.943 7.376c-.376 0-.505.19-.505.348 0 .171.086.29.59.552.748.362.982.71.982 1.22 0 .761-.581 1.17-1.367 1.17-.414 0-.772-.085-.976-.204-.034-.014-.038-.038-.038-.076v-.7c0-.048.023-.062.057-.038.3.195.643.28.957.28.376 0 .533-.157.533-.37 0-.172-.11-.325-.59-.572-.676-.324-.957-.653-.957-1.2 0-.615.48-1.124 1.314-1.124.41 0 .695.062.852.133.038.024.048.062.048.095v.653c0 .038-.024.062-.072.047-.21-.133-.519-.214-.828-.214zm-4.095.567c.11.01.195.01.385.01.558 0 1.081-.196 1.081-.953 0-.605-.376-.91-1.01-.91-.19 0-.37.01-.456.015v1.838zM5 5.414c0-.033.067-.057.105-.057.305-.014.757-.024 1.228-.024 1.32 0 1.834.724 1.834 1.648 0 1.21-.877 1.729-1.953 1.729-.18 0-.243-.01-.371-.01v1.829c0 .038-.014.057-.057.057h-.729c-.038 0-.057-.015-.057-.057V5.414z" fill="#31C5F0" fill-rule="nonzero"/></g></g></svg><view id="icon-powerpoint-24" viewBox="96 32 16 16"/><svg width="16" height="16" viewBox="0 0 16 16" x="96" y="32" xmlns="http://www.w3.org/2000/svg"><defs><linearGradient x1="50%" y1="0%" x2="50%" y2="100%" id="bmc"><stop stop-color="#FFF" offset="0%"/><stop stop-color="#FAFAFA" offset="100%"/></linearGradient><path id="bma" d="M0 0h16v16H0z"/></defs><g fill="none" fill-rule="evenodd"><mask id="bmb" fill="#fff"><use xlink:href="#bma"/></mask><g mask="url(#bmb)"><path d="M4 2h8c.736 0 1.333.597 1.333 1.333v9.334c0 .736-.597 1.333-1.333 1.333H4a1.333 1.333 0 01-1.333-1.333V3.333C2.667 2.597 3.264 2 4 2z" fill="#F3CDC1"/><path d="M4 2.667h8c.368 0 .667.298.667.666v9.334a.667.667 0 01-.667.666H4a.667.667 0 01-.667-.666V3.333c0-.368.299-.666.667-.666z" fill="url(#bmc)"/><path d="M7.233 8.83v1.837H6V5.333h1.931c1.38 0 2.069.567 2.069 1.7 0 .536-.198.969-.594 1.3-.395.33-.924.496-1.585.496h-.588zm0-2.574v1.662h.485c.656 0 .984-.28.984-.84 0-.548-.328-.822-.984-.822h-.485z" fill="#DB6947"/></g></g></svg><view id="icon-premiere-24" viewBox="96 48 16 16"/><svg width="16" height="16" viewBox="0 0 16 16" x="96" y="48" xmlns="http://www.w3.org/2000/svg"><defs><linearGradient x1="50%" y1="0%" x2="50%" y2="95.436%" id="bnc"><stop stop-color="#180024" stop-opacity=".9" offset="0%"/><stop stop-color="#180024" offset="100%"/></linearGradient><path id="bna" d="M0 0h16v16H0z"/></defs><g fill="none" fill-rule="evenodd"><mask id="bnb" fill="#fff"><use xlink:href="#bna"/></mask><g mask="url(#bnb)"><path d="M4 2h8c.736 0 1.333.597 1.333 1.333v9.334c0 .736-.597 1.333-1.333 1.333H4a1.333 1.333 0 01-1.333-1.333V3.333C2.667 2.597 3.264 2 4 2z" fill="#E579FF"/><path d="M4 2.667h8c.368 0 .667.298.667.666v9.334a.667.667 0 01-.667.666H4a.667.667 0 01-.667-.666V3.333c0-.368.299-.666.667-.666z" fill="url(#bnc)"/><path d="M9.281 7.54c0-.059 0-.199-.024-.47 0-.038.005-.047.039-.062.294-.12.985-.333 1.766-.333.04 0 .058.01.058.048v.7c0 .039-.014.048-.053.048-.304-.014-.743.025-.912.097v3.04c0 .04-.014.059-.058.059H9.34c-.038 0-.058-.015-.058-.058v-3.07zm-3.089.438c.111.01.198.01.391.01.565 0 1.096-.198 1.096-.965 0-.613-.376-.922-1.023-.922-.193 0-.377.01-.464.014v1.863zm-.854-2.563c0-.033.01-.058.048-.058.31-.014.763-.024 1.24-.024 1.338 0 1.922.734 1.922 1.675 0 1.226-.888 1.752-1.979 1.752-.183 0-.246-.01-.377-.01v1.854c0 .039-.014.058-.057.058H5.39c-.038 0-.058-.015-.058-.058V5.415h.005z" fill="#E579FF" fill-rule="nonzero"/></g></g></svg><view id="icon-raw-24" viewBox="96 64 16 16"/><svg width="16" height="16" viewBox="0 0 16 16" x="96" y="64" xmlns="http://www.w3.org/2000/svg"><defs><linearGradient x1="50%" y1="0%" x2="50%" y2="100%" id="boc"><stop stop-color="#B8E5F7" offset="0%"/><stop stop-color="#B9E8DD" offset="100%"/></linearGradient><linearGradient x1="50%" y1="0%" x2="50%" y2="100%" id="bod"><stop stop-color="#FFF" offset="0%"/><stop stop-color="#FAFAFA" offset="100%"/></linearGradient><linearGradient x1="50%" y1="-38.806%" x2="50%" y2="137.144%" id="boe"><stop stop-color="#4FC0EE" offset="0%"/><stop stop-color="#50C7A8" offset="100%"/></linearGradient><path id="boa" d="M0 0h16v16H0z"/></defs><g fill="none" fill-rule="evenodd"><mask id="bob" fill="#fff"><use xlink:href="#boa"/></mask><g mask="url(#bob)"><path d="M4 2h8c.736 0 1.333.597 1.333 1.333v9.334c0 .736-.597 1.333-1.333 1.333H4a1.333 1.333 0 01-1.333-1.333V3.333C2.667 2.597 3.264 2 4 2z" fill="url(#boc)"/><path d="M4 2.667h8c.368 0 .667.298.667.666v9.334a.667.667 0 01-.667.666H4a.667.667 0 01-.667-.666V3.333c0-.368.299-.666.667-.666z" fill="url(#bod)"/><path d="M10.252 4.694a3.996 3.996 0 011.627 4.288A3.782 3.782 0 019.8 9.6c-.478 0-.935-.088-1.356-.249a4.197 4.197 0 001.832-4.57zM9.8 10c.68 0 1.32-.16 1.888-.447a4.006 4.006 0 01-3.187 2.416A3.8 3.8 0 016.8 8.74a4.189 4.189 0 003 1.26zM6.4 8.8a4.19 4.19 0 001.477 3.198 3.998 3.998 0 01-3.344-2 3.81 3.81 0 012.053-2.44c-.12.392-.186.81-.186 1.242zM5.4 5c1.375 0 2.58.73 3.247 1.825a4.202 4.202 0 00-4.364 2.657A3.995 3.995 0 014 8a3.99 3.99 0 011.353-3zM8 4c.62 0 1.207.141 1.73.393.175.435.27.91.27 1.407 0 .71-.195 1.376-.535 1.945a4.202 4.202 0 00-3.611-3.12A3.978 3.978 0 018 4z" fill="url(#boe)"/><circle fill="#FFF" opacity=".3" cx="8" cy="8" r="3.333"/></g></g></svg><view id="icon-sketch-24" viewBox="96 80 16 16"/><svg width="16" height="16" viewBox="0 0 16 16" x="96" y="80" xmlns="http://www.w3.org/2000/svg"><defs><linearGradient x1="50%" y1="0%" x2="50%" y2="100%" id="bpc"><stop stop-color="#FFF" offset="0%"/><stop stop-color="#FAFAFA" offset="100%"/></linearGradient><path id="bpa" d="M0 0h16v16H0z"/></defs><g fill="none" fill-rule="evenodd"><mask id="bpb" fill="#fff"><use xlink:href="#bpa"/></mask><g mask="url(#bpb)"><path d="M4 2h8c.736 0 1.333.597 1.333 1.333v9.334c0 .736-.597 1.333-1.333 1.333H4a1.333 1.333 0 01-1.333-1.333V3.333C2.667 2.597 3.264 2 4 2z" fill="#FDE7B9"/><path d="M4 2.667h8c.368 0 .667.298.667.666v9.334a.667.667 0 01-.667.666H4a.667.667 0 01-.667-.666V3.333c0-.368.299-.666.667-.666z" fill="url(#bpc)"/><path fill="#FFAE00" d="M5.778 7.333l2.222 4 2.222-4z"/><path fill="#FFEFB4" d="M5.778 7.333L8 4.667l2.222 2.666z"/><path fill="#FED305" d="M10.222 5.111L8 4.667l2.222 2.666z"/><path fill="#FFAE00" d="M10.222 5.111L12 7.333h-1.778z"/><path fill="#FED305" d="M5.778 5.111L8 4.667 5.778 7.333z"/><path fill="#FFAE00" d="M5.778 5.111L4 7.333h1.778z"/><path fill="#EC6C00" d="M4 7.333l4 4-2.222-4zM10.222 7.333l-2.222 4 4-4z"/></g></g></svg><view id="icon-spreadsheet-24" viewBox="0 96 16 16"/><svg width="16" height="16" viewBox="0 0 16 16" y="96" xmlns="http://www.w3.org/2000/svg"><defs><linearGradient x1="50%" y1="0%" x2="50%" y2="100%" id="bqc"><stop stop-color="#FFF" offset="0%"/><stop stop-color="#FAFAFA" offset="100%"/></linearGradient><path id="bqa" d="M0 0h16v16H0z"/></defs><g fill="none" fill-rule="evenodd"><mask id="bqb" fill="#fff"><use xlink:href="#bqa"/></mask><g mask="url(#bqb)"><path d="M4 2h8c.736 0 1.333.597 1.333 1.333v9.334c0 .736-.597 1.333-1.333 1.333H4a1.333 1.333 0 01-1.333-1.333V3.333C2.667 2.597 3.264 2 4 2z" fill="#9BD5B9"/><path d="M4 2.667h8c.368 0 .667.298.667.666v9.334a.667.667 0 01-.667.666H4a.667.667 0 01-.667-.666V3.333c0-.368.299-.666.667-.666z" fill="url(#bqc)"/><path d="M11.333 12H4.667V4h6.666v8zm-4.666-2H5.333v1.333h1.334V10zm4 0H9.333v1.333h1.334V10zm-2 0H7.333v1.333h1.334V10zm-2-2H5.333v1.333h1.334V8zm2 0H7.333v1.333h1.334V8zm2 0H9.333v1.333h1.334V8zm-4-2H5.333v1.333h1.334V6zm2 0H7.333v1.333h1.334V6zm2 0H9.333v1.333h1.334V6zm-4-1.333H5.333v.666h1.334v-.666zm4 0H9.333v.666h1.334v-.666zm-2 0H7.333v.666h1.334v-.666z" fill="#059750"/><path fill="#059750" opacity=".2" d="M6.667 4v.667h4v.666h-4V12H5.333V4z"/></g></g></svg><view id="icon-text-24" viewBox="16 96 16 16"/><svg width="16" height="16" viewBox="0 0 16 16" x="16" y="96" xmlns="http://www.w3.org/2000/svg"><defs><linearGradient x1="50%" y1="0%" x2="50%" y2="100%" id="brc"><stop stop-color="#FFF" offset="0%"/><stop stop-color="#FAFAFA" offset="100%"/></linearGradient><path id="bra" d="M0 0h16v16H0z"/></defs><g fill="none" fill-rule="evenodd"><mask id="brb" fill="#fff"><use xlink:href="#bra"/></mask><g mask="url(#brb)"><path d="M4 2h8c.736 0 1.333.597 1.333 1.333v9.334c0 .736-.597 1.333-1.333 1.333H4a1.333 1.333 0 01-1.333-1.333V3.333C2.667 2.597 3.264 2 4 2z" fill="#C1CBDC"/><path d="M4 2.667h8c.368 0 .667.298.667.666v9.334a.667.667 0 01-.667.666H4a.667.667 0 01-.667-.666V3.333c0-.368.299-.666.667-.666z" fill="url(#brc)"/><path fill="#B2C3DF" d="M4.667 4.667h6.666v.666H4.667zM4.667 6.667h6.666v.666H4.667zM4.667 8.667h6.666v.666H4.667zM4.667 10.667h6.666v.666H4.667z"/><path fill="#F2C3C8" d="M6 4h.667v8H6z"/></g></g></svg><view id="icon-threed-24" viewBox="32 96 16 16"/><svg width="16" height="16" viewBox="0 0 16 16" x="32" y="96" xmlns="http://www.w3.org/2000/svg"><defs><linearGradient x1="50%" y1="0%" x2="50%" y2="100%" id="bsc"><stop stop-color="#FFF" offset="0%"/><stop stop-color="#FAFAFA" offset="100%"/></linearGradient><linearGradient x1="50%" y1="100%" x2="50%" y2="0%" id="bsd"><stop stop-color="#2BA6DE" stop-opacity=".5" offset="0%"/><stop stop-color="#2BA6DE" stop-opacity=".7" offset="100%"/></linearGradient><linearGradient x1="50%" y1="0%" x2="50%" y2="100%" id="bse"><stop stop-color="#2BA6DE" stop-opacity=".6" offset="0%"/><stop stop-color="#2BA6DE" stop-opacity=".8" offset="100%"/></linearGradient><linearGradient x1="50%" y1="0%" x2="50%" y2="100%" id="bsf"><stop stop-color="#2BA6DE" stop-opacity=".2" offset="0%"/><stop stop-color="#2BA6DE" stop-opacity=".5" offset="100%"/></linearGradient><path id="bsa" d="M0 0h16v16H0z"/></defs><g fill="none" fill-rule="evenodd"><mask id="bsb" fill="#fff"><use xlink:href="#bsa"/></mask><g mask="url(#bsb)"><path d="M4 2h8c.736 0 1.333.597 1.333 1.333v9.334c0 .736-.597 1.333-1.333 1.333H4a1.333 1.333 0 01-1.333-1.333V3.333C2.667 2.597 3.264 2 4 2z" fill="#C4E5F4"/><path d="M4 2.667h8c.368 0 .667.298.667.666v9.334a.667.667 0 01-.667.666H4a.667.667 0 01-.667-.666V3.333c0-.368.299-.666.667-.666z" fill="url(#bsc)"/><path fill="url(#bsd)" opacity=".8" d="M8 4l3.333 2L8 8 4.667 6z"/><path fill="url(#bse)" opacity=".9" d="M8 8l3.333-2v4L8 12z"/><path fill="url(#bsf)" d="M8 8v4l-3.333-2V6z"/></g></g></svg><view id="icon-torrent-24" viewBox="48 96 16 16"/><svg width="16" height="16" viewBox="0 0 16 16" x="48" y="96" xmlns="http://www.w3.org/2000/svg"><defs><linearGradient x1="50%" y1="0%" x2="50%" y2="100%" id="btc"><stop stop-color="#FFF" offset="0%"/><stop stop-color="#FAFAFA" offset="100%"/></linearGradient><path id="bta" d="M0 0h16v16H0z"/></defs><g fill="none" fill-rule="evenodd"><mask id="btb" fill="#fff"><use xlink:href="#bta"/></mask><g mask="url(#btb)"><path d="M4 2h8c.736 0 1.333.597 1.333 1.333v9.334c0 .736-.597 1.333-1.333 1.333H4a1.333 1.333 0 01-1.333-1.333V3.333C2.667 2.597 3.264 2 4 2z" fill="#9BD5B9"/><path d="M4 2.667h8c.368 0 .667.298.667.666v9.334a.667.667 0 01-.667.666H4a.667.667 0 01-.667-.666V3.333c0-.368.299-.666.667-.666z" fill="url(#btc)"/><path d="M6.329 5L4.898 6.431a.334.334 0 000 .471l.028.029c.13.13.342.13.472 0l.597-.598v3a.333.333 0 00.667 0v-3l.598.598c.13.13.341.13.471 0l.029-.029a.333.333 0 000-.471L6.329 5zM9.662 11L8.231 9.569a.334.334 0 010-.471l.029-.029c.13-.13.341-.13.471 0l.598.598v-3a.333.333 0 01.666 0v3l.598-.598c.13-.13.341-.13.471 0l.029.029c.13.13.13.34 0 .471L9.662 11z" fill="#059750"/></g></g></svg><view id="icon-url-24" viewBox="64 96 16 16"/><svg width="16" height="16" viewBox="0 0 16 16" x="64" y="96" xmlns="http://www.w3.org/2000/svg"><defs><linearGradient x1="50%" y1="0%" x2="50%" y2="100%" id="buc"><stop stop-color="#FFF" offset="0%"/><stop stop-color="#FAFAFA" offset="100%"/></linearGradient><path id="bua" d="M0 0h16v16H0z"/></defs><g fill="none" fill-rule="evenodd"><mask id="bub" fill="#fff"><use xlink:href="#bua"/></mask><g mask="url(#bub)"><path d="M4 2h8c.736 0 1.333.597 1.333 1.333v9.334c0 .736-.597 1.333-1.333 1.333H4a1.333 1.333 0 01-1.333-1.333V3.333C2.667 2.597 3.264 2 4 2z" fill="#9ECEEB"/><path d="M4 2.667h8c.368 0 .667.298.667.666v9.334a.667.667 0 01-.667.666H4a.667.667 0 01-.667-.666V3.333c0-.368.299-.666.667-.666z" fill="url(#buc)"/><path d="M7.333 5.333V6L6.667 6A2 2 0 004.67 7.882L4.667 8a2 2 0 001.882 1.997l.118.003h.666v.667h-.666a2.667 2.667 0 010-5.334h.666zm2 0a2.667 2.667 0 110 5.334h-.666v-.668l.666.001a2 2 0 001.997-1.882L11.333 8a2 2 0 00-1.882-1.997L9.333 6h-.666v-.667h.666zm0 2v1.334H6.667V7.333h2.666z" fill="#379AD6" fill-rule="nonzero"/></g></g></svg><view id="icon-vector-24" viewBox="80 96 16 16"/><svg width="16" height="16" viewBox="0 0 16 16" x="80" y="96" xmlns="http://www.w3.org/2000/svg"><defs><path id="bva" d="M0 0h16v16H0z"/><path d="M4 2.667h8c.368 0 .667.298.667.666v9.334a.667.667 0 01-.667.666H4a.667.667 0 01-.667-.666V3.333c0-.368.299-.666.667-.666z" id="bvd"/><linearGradient x1="50%" y1="0%" x2="50%" y2="100%" id="bvc"><stop stop-color="#FFF" offset="0%"/><stop stop-color="#FAFAFA" offset="100%"/></linearGradient></defs><g fill="none" fill-rule="evenodd"><mask id="bvb" fill="#fff"><use xlink:href="#bva"/></mask><g mask="url(#bvb)"><path d="M4 2h8c.736 0 1.333.597 1.333 1.333v9.334c0 .736-.597 1.333-1.333 1.333H4a1.333 1.333 0 01-1.333-1.333V3.333C2.667 2.597 3.264 2 4 2z" fill="#FDE7B9"/><path d="M4 2.667h8c.368 0 .667.298.667.666v9.334a.667.667 0 01-.667.666H4a.667.667 0 01-.667-.666V3.333c0-.368.299-.666.667-.666z" fill="url(#bvc)"/><mask id="bve" fill="#fff"><use xlink:href="#bvd"/></mask><circle fill="#FFF5DD" mask="url(#bve)" cx="14" cy="14" r="8.667"/><path d="M10.333 4a.333.333 0 11-.12.644l.023.023-1.849 1.85.014.017A9.333 9.333 0 114.667 14c0-2.102.694-4.041 1.867-5.601a.11.11 0 01-.018-.012l-1.85 1.849-.022-.024a.332.332 0 01-.31.455.333.333 0 11.12-.645L4.43 10 6.28 8.15a1.333 1.333 0 011.87-1.87L10 4.43l.022.023A.333.333 0 0110.333 4zM14 5.333a8.63 8.63 0 00-5.344 1.844 1.333 1.333 0 01-1.48 1.48A8.667 8.667 0 1014 5.334z" fill="#FFAE00" fill-rule="nonzero" opacity=".703" mask="url(#bve)"/><path d="M7.333 6.667a.667.667 0 110 1.333.667.667 0 010-1.333z" fill="#FFF" mask="url(#bve)"/></g></g></svg><view id="icon-video-24" viewBox="96 96 16 16"/><svg width="16" height="16" viewBox="0 0 16 16" x="96" y="96" xmlns="http://www.w3.org/2000/svg"><defs><linearGradient x1="50%" y1="0%" x2="50%" y2="100%" id="bwc"><stop stop-color="#F8C2D4" offset="0%"/><stop stop-color="#E1CFFB" offset="100%"/></linearGradient><linearGradient x1="50%" y1="0%" x2="50%" y2="100%" id="bwd"><stop stop-color="#FFF" offset="0%"/><stop stop-color="#FAFAFA" offset="100%"/></linearGradient><linearGradient x1="50%" y1="177.944%" x2="50%" y2="-79.067%" id="bwe"><stop stop-color="#9052FD" offset="0%"/><stop stop-color="#EC1A59" offset="100%"/></linearGradient><linearGradient x1="50%" y1="0%" x2="50%" y2="100%" id="bwf"><stop stop-color="#EB1C5C" offset="0%"/><stop stop-color="#9251F9" offset="100%"/></linearGradient><path id="bwa" d="M0 0h16v16H0z"/></defs><g fill="none" fill-rule="evenodd"><mask id="bwb" fill="#fff"><use xlink:href="#bwa"/></mask><g mask="url(#bwb)"><path d="M4 2h8c.736 0 1.333.597 1.333 1.333v9.334c0 .736-.597 1.333-1.333 1.333H4a1.333 1.333 0 01-1.333-1.333V3.333C2.667 2.597 3.264 2 4 2z" fill="url(#bwc)"/><path d="M4 2.667h8c.368 0 .667.298.667.666v9.334a.667.667 0 01-.667.666H4a.667.667 0 01-.667-.666V3.333c0-.368.299-.666.667-.666z" fill="url(#bwd)"/><path d="M6.667 6.335c0-.369.235-.485.522-.262l1.955 1.52c.289.225.287.59 0 .813L7.19 9.926c-.288.225-.522.115-.522-.261v-3.33z" fill="url(#bwe)" opacity=".7"/><path d="M5.333 11.333v1.334H4v-1.334h1.333zm6.667 0v1.334h-1.333v-1.334H12zm-6.667-2v1.334H4V9.333h1.333zm6.667 0v1.334h-1.333V9.333H12zm-6.667-2v1.334H4V7.333h1.333zm6.667 0v1.334h-1.333V7.333H12zm-6.667-2v1.334H4V5.333h1.333zm6.667 0v1.334h-1.333V5.333H12zm-6.667-2v1.334H4V3.333h1.333zm6.667 0v1.334h-1.333V3.333H12z" fill="url(#bwf)" opacity=".1"/></g></g></svg><view id="icon-web-data-24" viewBox="112 0 16 16"/><svg width="16" height="16" viewBox="0 0 16 16" x="112" xmlns="http://www.w3.org/2000/svg"><defs><linearGradient x1="50%" y1="0%" x2="50%" y2="100%" id="bxc"><stop stop-color="#FFF" offset="0%"/><stop stop-color="#FAFAFA" offset="100%"/></linearGradient><path id="bxa" d="M0 0h16v16H0z"/></defs><g fill="none" fill-rule="evenodd"><mask id="bxb" fill="#fff"><use xlink:href="#bxa"/></mask><g mask="url(#bxb)"><path d="M4 2h8c.736 0 1.333.597 1.333 1.333v9.334c0 .736-.597 1.333-1.333 1.333H4a1.333 1.333 0 01-1.333-1.333V3.333C2.667 2.597 3.264 2 4 2z" fill="#9ECEEB"/><path d="M4 2.667h8c.368 0 .667.298.667.666v9.334a.667.667 0 01-.667.666H4a.667.667 0 01-.667-.666V3.333c0-.368.299-.666.667-.666z" fill="url(#bxc)"/><path d="M12 8h-.333c-.737 0-1.334.597-1.334 1.333v.334C10.333 10.403 9.736 11 9 11h0" stroke="#379AD6" stroke-width=".667" stroke-linecap="round"/><path d="M12 8h-.333a1.333 1.333 0 01-1.334-1.333v-.334C10.333 5.597 9.736 5 9 5h0M4 8h.333c.737 0 1.334.597 1.334 1.333v.334C5.667 10.403 6.264 11 7 11h0M4 8h.333c.737 0 1.334-.597 1.334-1.333v-.334C5.667 5.597 6.264 5 7 5h0" stroke="#379AD6" stroke-width=".667" stroke-linecap="round"/></g></g></svg><view id="icon-web-lang-24" viewBox="112 16 16 16"/><svg width="16" height="16" viewBox="0 0 16 16" x="112" y="16" xmlns="http://www.w3.org/2000/svg"><defs><linearGradient x1="50%" y1="0%" x2="50%" y2="100%" id="byc"><stop stop-color="#FFF" offset="0%"/><stop stop-color="#FAFAFA" offset="100%"/></linearGradient><path id="bya" d="M0 0h16v16H0z"/></defs><g fill="none" fill-rule="evenodd"><mask id="byb" fill="#fff"><use xlink:href="#bya"/></mask><g mask="url(#byb)"><path d="M4 2h8c.736 0 1.333.597 1.333 1.333v9.334c0 .736-.597 1.333-1.333 1.333H4a1.333 1.333 0 01-1.333-1.333V3.333C2.667 2.597 3.264 2 4 2z" fill="#FFDB99"/><path d="M4 2.667h8c.368 0 .667.298.667.666v9.334a.667.667 0 01-.667.666H4a.667.667 0 01-.667-.666V3.333c0-.368.299-.666.667-.666z" fill="url(#byc)"/><path d="M6.431 5.764a.333.333 0 01.51.426l-.039.046L5.138 8l1.764 1.764a.333.333 0 01.039.426l-.039.046a.333.333 0 01-.425.038l-.046-.038L4.195 8l2.236-2.236zM9.431 5.764a.333.333 0 00-.51.426l.039.046L10.724 8 8.96 9.764a.333.333 0 00-.039.426l.039.046a.333.333 0 00.425.038l.046-.038L11.667 8 9.43 5.764z" fill="orange" fill-rule="nonzero"/><path d="M8.35 5.895a.333.333 0 01.647.152l-.014.058-1.333 4a.333.333 0 01-.647-.152l.014-.058 1.333-4z" fill="orange" fill-rule="nonzero"/></g></g></svg><view id="icon-word-24" viewBox="112 32 16 16"/><svg width="16" height="16" viewBox="0 0 16 16" x="112" y="32" xmlns="http://www.w3.org/2000/svg"><defs><linearGradient x1="50%" y1="0%" x2="50%" y2="100%" id="bzc"><stop stop-color="#FFF" offset="0%"/><stop stop-color="#FAFAFA" offset="100%"/></linearGradient><path id="bza" d="M0 0h16v16H0z"/></defs><g fill="none" fill-rule="evenodd"><mask id="bzb" fill="#fff"><use xlink:href="#bza"/></mask><g mask="url(#bzb)"><path d="M4 2h8c.736 0 1.333.597 1.333 1.333v9.334c0 .736-.597 1.333-1.333 1.333H4a1.333 1.333 0 01-1.333-1.333V3.333C2.667 2.597 3.264 2 4 2z" fill="#C2CFE1"/><path d="M4 2.667h8c.368 0 .667.298.667.666v9.334a.667.667 0 01-.667.666H4a.667.667 0 01-.667-.666V3.333c0-.368.299-.666.667-.666z" fill="url(#bzc)"/><path d="M11.667 5.333l-1.375 5.334H8.994L8.13 7.245a2.921 2.921 0 01-.084-.599h-.014a3.723 3.723 0 01-.095.599l-.885 3.422H5.701L4.333 5.333h1.28l.733 3.552c.032.151.055.355.07.61h.02c.01-.19.046-.4.106-.625l.943-3.537H8.74l.852 3.582c.032.131.06.322.084.573h.014c.01-.196.035-.395.076-.595l.718-3.56h1.183z" fill="#5376AB"/></g></g></svg></svg>