<?xml version="1.0" encoding="utf-8"?><svg width="160" height="160" viewBox="0 0 112 112" xmlns="http://www.w3.org/2000/svg" xmlns:xlink="http://www.w3.org/1999/xlink"><view id="icon-aftereffects-90" viewBox="0 0 16 16"/><svg width="16" height="16" fill="none" viewBox="0 0 16 16" xmlns="http://www.w3.org/2000/svg"><path d="M5.673 8.429h1.113c-.012-.042-.026-.104-.04-.17-.018-.081-.038-.17-.059-.235a95.897 95.897 0 0 1-.363-1.166 39.34 39.34 0 0 1-.095-.342h-.007c-.04.19-.089.379-.148.564-.066.211-.133.427-.2.648a9.3 9.3 0 0 0-.088.31 6.044 6.044 0 0 1-.113.39Z" fill="url(#aaa)"/><path d="M9.627 8.234h.923c.113 0 .196-.001.25-.003a.495.495 0 0 0 .103-.011v-.042c.004-.085-.001-.17-.015-.252a.576.576 0 0 0-.57-.402.612.612 0 0 0-.582.331 1.48 1.48 0 0 0-.109.38Z" fill="url(#aab)"/><path fill-rule="evenodd" clip-rule="evenodd" d="M3.667 2h8.666a1 1 0 0 1 1 1v10a1 1 0 0 1-1 1H3.667a1 1 0 0 1-1-1V3a1 1 0 0 1 1-1Zm3.38 7.179H5.419l-.331 1.073a.083.083 0 0 1-.085.063h-.825c-.046 0-.063-.025-.049-.077l1.41-4.003c.014-.042.028-.09.042-.144a1.505 1.505 0 0 0 .03-.306.044.044 0 0 1 .048-.03h1.12c.033 0 .052.013.056.036l1.6 4.454c.014.047 0 .07-.042.07h-.916a.065.065 0 0 1-.07-.049l-.36-1.087Zm3.973-.385H9.63c.02.143.069.28.143.404.08.117.19.21.321.264.18.08.375.122.572.121a1.925 1.925 0 0 0 .806-.154c.023-.019.035-.007.035.035v.67a.104.104 0 0 1-.01.053.101.101 0 0 1-.032.031c-.146.07-.3.12-.458.152a2.83 2.83 0 0 1-.571.022 2.01 2.01 0 0 1-.839-.155 1.494 1.494 0 0 1-.55-.416 1.63 1.63 0 0 1-.303-.574 2.262 2.262 0 0 1 .018-1.332c.07-.219.182-.422.328-.599.144-.175.324-.317.528-.416.23-.106.48-.158.733-.151.246-.004.49.044.717.141.18.082.34.207.461.363.116.15.204.317.261.497.056.173.084.354.085.536 0 .103-.004.197-.01.281-.007.05-.016.1-.028.15a.063.063 0 0 1-.063.056c-.028 0-.077.004-.145.01a2.202 2.202 0 0 1-.182.006c-.037 0-.073 0-.108.002-.101.002-.208.003-.32.003Z" fill="url(#aac)"/><defs><linearGradient id="aaa" x1="8" y1="2" x2="8" y2="14" gradientUnits="userSpaceOnUse"><stop stop-color="#ED73CC"/><stop offset="1" stop-color="#E248C2"/></linearGradient><linearGradient id="aab" x1="8" y1="2" x2="8" y2="14" gradientUnits="userSpaceOnUse"><stop stop-color="#ED73CC"/><stop offset="1" stop-color="#E248C2"/></linearGradient><linearGradient id="aac" x1="8" y1="2" x2="8" y2="14" gradientUnits="userSpaceOnUse"><stop stop-color="#ED73CC"/><stop offset="1" stop-color="#E248C2"/></linearGradient></defs></svg><view id="icon-audio-90" viewBox="16 0 16 16"/><svg width="16" height="16" fill="none" viewBox="0 0 16 16" x="16" xmlns="http://www.w3.org/2000/svg"><path fill-rule="evenodd" clip-rule="evenodd" d="M3.667 2h8.666a1 1 0 0 1 1 1v10a1 1 0 0 1-1 1H3.667a1 1 0 0 1-1-1V3a1 1 0 0 1 1-1ZM8.5 9.76c0-.412.275-.774.673-.884l.583-.162A.333.333 0 0 0 10 8.392V6.44c0-.108-.1-.187-.205-.163l-1.212.286-1.327.316A.333.333 0 0 0 7 7.203v2.552c0 .601-.402 1.128-.982 1.286l-.078.021a.612.612 0 0 1-.773-.59c0-.413.275-.775.672-.886l.584-.162a.333.333 0 0 0 .244-.32V5.987c0-.318.225-.592.538-.654l1.378-.27v-.001l1.157-.22a.5.5 0 0 1 .593.49v3.711c0 .601-.402 1.128-.982 1.287l-.077.02a.612.612 0 0 1-.774-.59Z" fill="url(#aba)"/><defs><linearGradient id="aba" x1="8" y1="2" x2="8" y2="14" gradientUnits="userSpaceOnUse"><stop stop-color="#69A3FB"/><stop offset="1" stop-color="#477EF7"/></linearGradient></defs></svg><view id="icon-bucket-90" viewBox="0 16 16 16"/><svg width="16" height="16" viewBox="0 0 48 48" fill="none" y="16" xmlns="http://www.w3.org/2000/svg"><path fill-rule="evenodd" clip-rule="evenodd" d="M41.987 9.189C41.996 9.126 42 9.063 42 9c0-2.761-8.059-5-18-5S6 6.239 6 9c0 .063.004.126.013.189L8 39c0 2.761 7.163 5 16 5s16-2.239 16-5l1.987-29.811ZM17 17a5 5 0 1 0 0 10 5 5 0 0 0 0-10Zm10 3a1 1 0 0 1 1-1h7a1 1 0 0 1 1 1v7a1 1 0 0 1-1 1h-7a1 1 0 0 1-1-1v-7Zm-4 9a1 1 0 0 1 .814.419l5 7A1 1 0 0 1 28 38H18a1 1 0 0 1-.814-1.581l5-7A1 1 0 0 1 23 29ZM39.487 8.725a.323.323 0 0 1 0 .55c-.665.437-1.761.908-3.294 1.333C33.154 11.454 28.843 12 24 12s-9.154-.547-12.193-1.392c-1.533-.425-2.629-.896-3.295-1.333a.323.323 0 0 1 0-.55c.666-.437 1.762-.908 3.295-1.333C14.846 6.547 19.157 6 24 6s9.154.548 12.193 1.391c1.533.426 2.629.897 3.294 1.334Z" fill="url(#aca)"/><defs><linearGradient id="aca" x1="24" y1="4" x2="24" y2="44" gradientUnits="userSpaceOnUse"><stop stop-color="#888D95"/><stop offset="1" stop-color="#6E747D"/></linearGradient></defs></svg><view id="icon-bucket-share-90" viewBox="16 16 16 16"/><svg width="16" height="16" viewBox="0 0 48 48" fill="none" x="16" y="16" xmlns="http://www.w3.org/2000/svg"><path fill-rule="evenodd" clip-rule="evenodd" d="M41.987 9.189C41.996 9.126 42 9.063 42 9c0-2.761-8.059-5-18-5S6 6.239 6 9c0 .063.004.126.013.189L8 39c0 2.761 7.163 5 16 5s16-2.239 16-5l1.987-29.811ZM22 28a4 4 0 1 0 0-8 4 4 0 0 0 0 8Zm6.806 8c.6 0 1.07-.53.913-1.11a8.003 8.003 0 0 0-15.438 0c-.158.58.312 1.11.913 1.11h13.612Zm-3.045-8.706A4.98 4.98 0 0 0 27 24a4.98 4.98 0 0 0-1.239-3.294c-.234-.268-.116-.706.239-.706a4 4 0 0 1 0 8c-.355 0-.473-.438-.239-.706ZM31.831 36c-.505 0-.925-.38-1.032-.873a8.968 8.968 0 0 0-3.477-5.387c-.281-.206-.14-.66.203-.595a8.011 8.011 0 0 1 6.194 5.745c.158.58-.312 1.11-.913 1.11h-.974Zm7.656-27.275a.323.323 0 0 1 0 .55c-.665.437-1.761.908-3.294 1.333C33.154 11.454 28.843 12 24 12s-9.154-.547-12.193-1.392c-1.533-.425-2.629-.896-3.295-1.333a.323.323 0 0 1 0-.55c.666-.437 1.762-.908 3.295-1.333C14.846 6.547 19.157 6 24 6s9.154.548 12.193 1.391c1.533.426 2.629.897 3.294 1.334Z" fill="url(#ada)"/><defs><linearGradient id="ada" x1="24" y1="4" x2="24" y2="44" gradientUnits="userSpaceOnUse"><stop stop-color="#888D95"/><stop offset="1" stop-color="#6E747D"/></linearGradient></defs></svg><view id="icon-cad-90" viewBox="32 0 16 16"/><svg width="16" height="16" fill="none" viewBox="0 0 16 16" x="32" xmlns="http://www.w3.org/2000/svg"><path d="M6.167 6.667A.167.167 0 0 0 6 6.833V7.5c0 .092.075.167.167.167h.666A.167.167 0 0 0 7 7.5v-.667a.167.167 0 0 0-.167-.166h-.666Z" fill="url(#aea)"/><path fill-rule="evenodd" clip-rule="evenodd" d="M3.667 2h8.666a1 1 0 0 1 1 1v10a1 1 0 0 1-1 1H3.667a1 1 0 0 1-1-1V3a1 1 0 0 1 1-1Zm3 .333h-.334v4h-.166a.5.5 0 0 0-.5.5V7H3v.333h2.667V7.5a.5.5 0 0 0 .5.5h.166v5.667h.334V8h.166a.5.5 0 0 0 .5-.5v-.167H13V7H7.333v-.167a.5.5 0 0 0-.5-.5h-.166v-4Z" fill="url(#aeb)"/><defs><linearGradient id="aea" x1="8" y1="2" x2="8" y2="14" gradientUnits="userSpaceOnUse"><stop stop-color="#FB6361"/><stop offset="1" stop-color="#F23433"/></linearGradient><linearGradient id="aeb" x1="8" y1="2" x2="8" y2="14" gradientUnits="userSpaceOnUse"><stop stop-color="#FB6361"/><stop offset="1" stop-color="#F23433"/></linearGradient></defs></svg><view id="icon-compressed-90" viewBox="32 16 16 16"/><svg width="16" height="16" fill="none" viewBox="0 0 16 16" x="32" y="16" xmlns="http://www.w3.org/2000/svg"><path d="M8 9.667A.333.333 0 1 0 8 9a.333.333 0 0 0 0 .667Z" fill="url(#afa)"/><path fill-rule="evenodd" clip-rule="evenodd" d="M3.667 2h8.666a1 1 0 0 1 1 1v10a1 1 0 0 1-1 1H3.667a1 1 0 0 1-1-1V3a1 1 0 0 1 1-1Zm3.666.833c0-.092.075-.166.167-.166h1A.167.167 0 1 1 8.5 3h-1a.167.167 0 0 1-.167-.167Zm0 .667c0-.092.075-.167.167-.167h1a.167.167 0 1 1 0 .334h-1a.167.167 0 0 1-.167-.167ZM7.5 4a.167.167 0 1 0 0 .333h1A.167.167 0 1 0 8.5 4h-1Zm-.167.833c0-.092.075-.166.167-.166h1A.167.167 0 1 1 8.5 5h-1a.167.167 0 0 1-.167-.167Zm.167.5a.167.167 0 1 0 0 .334h1a.167.167 0 1 0 0-.334h-1Zm-.167.834c0-.092.075-.167.167-.167h1a.167.167 0 1 1 0 .333h-1a.167.167 0 0 1-.167-.166Zm.167.5A.167.167 0 1 0 7.5 7h1a.167.167 0 1 0 0-.333h-1Zm-.167.833c0-.092.075-.167.167-.167h1a.167.167 0 1 1 0 .334h-1a.167.167 0 0 1-.167-.167ZM7.5 8a.167.167 0 1 0 0 .333h1A.167.167 0 1 0 8.5 8h-1Zm.167.667A.333.333 0 0 0 7.333 9v1.333a.667.667 0 1 0 1.334 0V9a.333.333 0 0 0-.334-.333h-.666Z" fill="url(#afb)"/><defs><linearGradient id="afa" x1="8" y1="2" x2="8" y2="14" gradientUnits="userSpaceOnUse"><stop stop-color="#888D95"/><stop offset="1" stop-color="#6E747D"/></linearGradient><linearGradient id="afb" x1="8" y1="2" x2="8" y2="14" gradientUnits="userSpaceOnUse"><stop stop-color="#888D95"/><stop offset="1" stop-color="#6E747D"/></linearGradient></defs></svg><view id="icon-dmg-90" viewBox="0 32 16 16"/><svg width="16" height="16" fill="none" viewBox="0 0 16 16" y="32" xmlns="http://www.w3.org/2000/svg"><path d="M9.333 11.333c0-.184.15-.333.334-.333h.666a.333.333 0 0 1 0 .667h-.666a.333.333 0 0 1-.334-.334Z" fill="url(#aga)"/><path d="M11.667 11a.333.333 0 1 0 0 .667.333.333 0 0 0 0-.667Z" fill="url(#agb)"/><path fill-rule="evenodd" clip-rule="evenodd" d="M10.579 3c.819 0 1.516.595 1.646 1.403l1.025 6.407A1.667 1.667 0 0 1 11.667 13H4.333a1.667 1.667 0 0 1-1.583-2.19l1.025-6.407A1.667 1.667 0 0 1 5.421 3h5.158Zm1.088 7.333H4.333a1 1 0 0 0-.096 1.996l.096.004h7.334a1 1 0 0 0 .096-1.995l-.096-.005Z" fill="url(#agc)"/><defs><linearGradient id="aga" x1="8" y1="3" x2="8" y2="13" gradientUnits="userSpaceOnUse"><stop stop-color="#888D95"/><stop offset="1" stop-color="#6E747D"/></linearGradient><linearGradient id="agb" x1="8" y1="3" x2="8" y2="13" gradientUnits="userSpaceOnUse"><stop stop-color="#888D95"/><stop offset="1" stop-color="#6E747D"/></linearGradient><linearGradient id="agc" x1="8" y1="3" x2="8" y2="13" gradientUnits="userSpaceOnUse"><stop stop-color="#888D95"/><stop offset="1" stop-color="#6E747D"/></linearGradient></defs></svg><view id="icon-excel-90" viewBox="16 32 16 16"/><svg width="16" height="16" fill="none" viewBox="0 0 16 16" x="16" y="32" xmlns="http://www.w3.org/2000/svg"><path fill-rule="evenodd" clip-rule="evenodd" d="M3.667 2h8.666a1 1 0 0 1 1 1v10a1 1 0 0 1-1 1H3.667a1 1 0 0 1-1-1V3a1 1 0 0 1 1-1Zm5.18 8H10L8.67 7.983 9.964 6H8.88l-.686 1.188c-.066.155-.111.27-.135.349h-.012a1.975 1.975 0 0 0-.13-.338L7.3 6H6.117l1.258 2L6 10h1.159l.746-1.291c.052-.125.085-.218.1-.28h.012c.03.13.059.22.087.268L8.847 10Z" fill="url(#aha)"/><defs><linearGradient id="aha" x1="8" y1="2" x2="8" y2="14" gradientUnits="userSpaceOnUse"><stop stop-color="#29DD74"/><stop offset="1" stop-color="#09BF5B"/></linearGradient></defs></svg><view id="icon-executable-90" viewBox="32 32 16 16"/><svg width="16" height="16" fill="none" viewBox="0 0 16 16" x="32" y="32" xmlns="http://www.w3.org/2000/svg"><path fill-rule="evenodd" clip-rule="evenodd" d="M6.667 8a1.333 1.333 0 1 1 2.666 0 1.333 1.333 0 0 1-2.666 0ZM8 7.333a.667.667 0 1 0 0 1.334.667.667 0 0 0 0-1.334Z" fill="url(#aia)"/><path fill-rule="evenodd" clip-rule="evenodd" d="M3.667 2h8.666a1 1 0 0 1 1 1v10a1 1 0 0 1-1 1H3.667a1 1 0 0 1-1-1V3a1 1 0 0 1 1-1Zm6.8 7a.55.55 0 0 0 .11.607l.02.02a.667.667 0 1 1-.944.943l-.02-.02a.55.55 0 0 0-.606-.11.55.55 0 0 0-.334.503V11a.667.667 0 1 1-1.333 0v-.03a.55.55 0 0 0-.36-.503.55.55 0 0 0-.607.11l-.02.02a.667.667 0 1 1-.943-.944l.02-.02a.55.55 0 0 0 .11-.606.55.55 0 0 0-.503-.334H5A.667.667 0 1 1 5 7.36h.03A.55.55 0 0 0 5.533 7a.55.55 0 0 0-.11-.607l-.02-.02a.667.667 0 1 1 .944-.943l.02.02a.55.55 0 0 0 .606.11H7a.55.55 0 0 0 .333-.503V5a.667.667 0 1 1 1.334 0v.03A.55.55 0 0 0 9 5.533a.55.55 0 0 0 .607-.11l.02-.02a.667.667 0 1 1 .943.944l-.02.02a.55.55 0 0 0-.11.606V7a.55.55 0 0 0 .503.333H11a.667.667 0 1 1 0 1.334h-.03a.55.55 0 0 0-.503.333Z" fill="url(#aib)"/><defs><linearGradient id="aia" x1="8" y1="2" x2="8" y2="14" gradientUnits="userSpaceOnUse"><stop stop-color="#888D95"/><stop offset="1" stop-color="#6E747D"/></linearGradient><linearGradient id="aib" x1="8" y1="2" x2="8" y2="14" gradientUnits="userSpaceOnUse"><stop stop-color="#888D95"/><stop offset="1" stop-color="#6E747D"/></linearGradient></defs></svg><view id="icon-experiencedesign-90" viewBox="48 0 16 16"/><svg width="16" height="16" fill="none" viewBox="0 0 16 16" x="48" xmlns="http://www.w3.org/2000/svg"><path d="M10.722 9.586V7.662a1.4 1.4 0 0 0-.28-.028 1.088 1.088 0 0 0-.493.112.907.907 0 0 0-.515.881c-.003.154.022.307.074.451.043.117.11.223.198.31.083.081.184.142.296.177.117.038.24.057.362.056.066 0 .127-.002.184-.007a.956.956 0 0 0 .174-.028Z" fill="url(#aja)"/><path fill-rule="evenodd" clip-rule="evenodd" d="M3.667 2h8.666a1 1 0 0 1 1 1v10a1 1 0 0 1-1 1H3.667a1 1 0 0 1-1-1V3a1 1 0 0 1 1-1Zm6.606 8.46a2.183 2.183 0 0 1-.941-.198 1.496 1.496 0 0 1-.66-.595 1.905 1.905 0 0 1-.239-.997 1.84 1.84 0 0 1 .24-.924 1.76 1.76 0 0 1 .698-.676 2.252 2.252 0 0 1 1.198-.25l.045.002.124.008V5.583a.113.113 0 0 1 .096-.127h.682a.128.128 0 0 1 .127.127V9.6c0 .08.004.167.01.26.008.095.014.18.018.254a.072.072 0 0 1-.042.07 3.24 3.24 0 0 1-.68.212 3.83 3.83 0 0 1-.676.064ZM8.322 5.832 7.01 7.942l1.402 2.284a.073.073 0 0 1 .007.053c-.005.016-.02.027-.05.031h-1a.158.158 0 0 1-.148-.07c-.05-.098-.1-.192-.151-.286a20.758 20.758 0 0 1-.13-.247c-.095-.18-.195-.365-.3-.553-.106-.188-.21-.378-.314-.57H6.32c-.094.187-.191.375-.292.563-.102.188-.201.375-.3.56-.069.13-.14.253-.21.378l-.093.162a.1.1 0 0 1-.099.063h-.965a.03.03 0 0 1-.012 0 .03.03 0 0 1-.02-.027.07.07 0 0 1 .01-.05l1.36-2.22-1.324-2.188c-.014-.019-.016-.034-.007-.046a.052.052 0 0 1 .042-.018h.994a.147.147 0 0 1 .063.011c.017.01.032.023.043.039.054.122.113.22.176.327.034.057.07.117.106.183.103.188.207.373.313.557.106.183.203.368.293.556h.007c.094-.192.189-.38.285-.563.096-.184.195-.368.296-.554.046-.085.092-.158.137-.23.053-.086.105-.17.156-.27a.107.107 0 0 1 .028-.045.102.102 0 0 1 .056-.01h.923a.04.04 0 0 1 .036.07Z" fill="url(#ajb)"/><defs><linearGradient id="aja" x1="8" y1="2" x2="8" y2="14" gradientUnits="userSpaceOnUse"><stop stop-color="#ED73CC"/><stop offset="1" stop-color="#E248C2"/></linearGradient><linearGradient id="ajb" x1="8" y1="2" x2="8" y2="14" gradientUnits="userSpaceOnUse"><stop stop-color="#ED73CC"/><stop offset="1" stop-color="#E248C2"/></linearGradient></defs></svg><view id="icon-folder-90" viewBox="48 16 16 16"/><svg width="16" height="16" fill="none" viewBox="0 0 16 16" x="48" y="16" xmlns="http://www.w3.org/2000/svg"><path d="M2 3.333c0-.368.298-.666.667-.666h4.447c.354 0 .693.14.943.39l.22.22c.25.25.588.39.942.39H13a1 1 0 0 1 1 1v7.666a1 1 0 0 1-1 1H3a1 1 0 0 1-1-1v-9Z" fill="url(#aka)"/><defs><linearGradient id="aka" x1="8" y1="2.667" x2="8" y2="13.333" gradientUnits="userSpaceOnUse"><stop stop-color="#FDC121"/><stop offset="1" stop-color="#F7A308"/></linearGradient></defs></svg><view id="icon-folder-backup-90" viewBox="48 32 16 16"/><svg width="16" height="16" fill="none" viewBox="0 0 16 16" x="48" y="32" xmlns="http://www.w3.org/2000/svg"><path d="M7.764 8.43a.332.332 0 0 1 .472 0l1 1a.333.333 0 1 1-.472.472l-.43-.43v1.195h-.667V9.47l-.431.431a.333.333 0 0 1-.472-.471l1-1Z" fill="url(#ala)"/><path fill-rule="evenodd" clip-rule="evenodd" d="M2.667 2.667A.667.667 0 0 0 2 3.333v9a1 1 0 0 0 1 1h10a1 1 0 0 0 1-1V4.667a1 1 0 0 0-1-1H9.219c-.354 0-.693-.14-.943-.39l-.219-.22c-.25-.25-.589-.39-.943-.39H2.667Zm5 8h-2a1.333 1.333 0 0 1-.165-2.657A2.25 2.25 0 0 1 9.806 7h.027a1.833 1.833 0 1 1 0 3.667h-1.5V12a.333.333 0 0 1-.666 0v-1.333Z" fill="url(#alb)"/><defs><linearGradient id="ala" x1="8" y1="2.667" x2="8" y2="13.333" gradientUnits="userSpaceOnUse"><stop stop-color="#FDC121"/><stop offset="1" stop-color="#F7A308"/></linearGradient><linearGradient id="alb" x1="8" y1="2.667" x2="8" y2="13.333" gradientUnits="userSpaceOnUse"><stop stop-color="#FDC121"/><stop offset="1" stop-color="#F7A308"/></linearGradient></defs></svg><view id="icon-folder-camera-uploads-90" viewBox="0 48 16 16"/><svg width="16" height="16" fill="none" viewBox="0 0 16 16" y="48" xmlns="http://www.w3.org/2000/svg"><path fill-rule="evenodd" clip-rule="evenodd" d="M8 10.333A1.667 1.667 0 1 0 8 7a1.667 1.667 0 0 0 0 3.333ZM8 10a1.333 1.333 0 1 0 0-2.667A1.333 1.333 0 0 0 8 10Z" fill="url(#ama)"/><path fill-rule="evenodd" clip-rule="evenodd" d="M2.667 2.667A.667.667 0 0 0 2 3.333v9a1 1 0 0 0 1 1h10a1 1 0 0 0 1-1V4.667a1 1 0 0 0-1-1H9.219c-.354 0-.693-.14-.943-.39l-.219-.22c-.25-.25-.589-.39-.943-.39H2.667Zm2 4c0-.369.298-.667.666-.667h5.334c.368 0 .666.298.666.667v4a.667.667 0 0 1-.666.666H5.333a.667.667 0 0 1-.666-.666v-4Z" fill="url(#amb)"/><defs><linearGradient id="ama" x1="8" y1="2.667" x2="8" y2="13.333" gradientUnits="userSpaceOnUse"><stop stop-color="#FDC121"/><stop offset="1" stop-color="#F7A308"/></linearGradient><linearGradient id="amb" x1="8" y1="2.667" x2="8" y2="13.333" gradientUnits="userSpaceOnUse"><stop stop-color="#FDC121"/><stop offset="1" stop-color="#F7A308"/></linearGradient></defs></svg><view id="icon-folder-chat-90" viewBox="16 48 16 16"/><svg width="16" height="16" fill="none" viewBox="0 0 16 16" x="16" y="48" xmlns="http://www.w3.org/2000/svg"><path fill-rule="evenodd" clip-rule="evenodd" d="M2.667 2.667A.667.667 0 0 0 2 3.333v9a1 1 0 0 0 1 1h10a1 1 0 0 0 1-1V4.667a1 1 0 0 0-1-1H9.219c-.354 0-.693-.14-.943-.39l-.219-.22c-.25-.25-.589-.39-.943-.39H2.667ZM8 6c1.664 0 3 1.202 3 2.667 0 1.464-1.336 2.666-3 2.666a3.298 3.298 0 0 1-1.207-.225.462.462 0 0 0-.257-.029l-1.26.25a.232.232 0 0 1-.22-.076.226.226 0 0 1-.041-.228l.314-.83a.481.481 0 0 0-.045-.394A2.417 2.417 0 0 1 5 8.667C5 7.202 6.336 6 8 6Z" fill="url(#ana)"/><defs><linearGradient id="ana" x1="8" y1="2.667" x2="8" y2="13.333" gradientUnits="userSpaceOnUse"><stop stop-color="#FDC121"/><stop offset="1" stop-color="#F7A308"/></linearGradient></defs></svg><view id="icon-folder-incoming-90" viewBox="32 48 16 16"/><svg width="16" height="16" fill="none" viewBox="0 0 16 16" x="32" y="48" xmlns="http://www.w3.org/2000/svg"><path fill-rule="evenodd" clip-rule="evenodd" d="M2.667 2.667A.667.667 0 0 0 2 3.333v9a1 1 0 0 0 1 1h10a1 1 0 0 0 1-1V4.667a1 1 0 0 0-1-1H9.219c-.354 0-.693-.14-.943-.39l-.219-.22c-.25-.25-.589-.39-.943-.39H2.667ZM5 10.333a.333.333 0 1 0 .667 0V7A.333.333 0 1 0 5 7v3.333ZM8.04 7.57l-.764.764h3.39a.333.333 0 0 1 0 .667h-3.39l.764.764c.12.12.13.31.028.44l-.028.032c-.12.12-.309.13-.44.027l-.031-.027-1.333-1.334a.333.333 0 0 1 0-.471l1.333-1.333a.333.333 0 0 1 .5.44l-.029.031Z" fill="url(#aoa)"/><defs><linearGradient id="aoa" x1="8" y1="2.667" x2="8" y2="13.333" gradientUnits="userSpaceOnUse"><stop stop-color="#FDC121"/><stop offset="1" stop-color="#F7A308"/></linearGradient></defs></svg><view id="icon-folder-outgoing-90" viewBox="48 48 16 16"/><svg width="16" height="16" fill="none" viewBox="0 0 16 16" x="48" y="48" xmlns="http://www.w3.org/2000/svg"><path fill-rule="evenodd" clip-rule="evenodd" d="M2.667 2.667A.667.667 0 0 0 2 3.333v9a1 1 0 0 0 1 1h10a1 1 0 0 0 1-1V4.667a1 1 0 0 0-1-1H9.219c-.354 0-.693-.14-.943-.39l-.219-.22c-.25-.25-.589-.39-.943-.39H2.667Zm3 7.666a.333.333 0 1 1-.667 0V7a.333.333 0 0 1 .667 0v3.333ZM9.293 7.57l.764.764h-3.39a.333.333 0 1 0 0 .667h3.39l-.764.764c-.12.12-.13.31-.028.44l.028.032c.12.12.31.13.44.027l.031-.027.862-.862a1 1 0 0 0 0-1.414l-.862-.862a.333.333 0 0 0-.499.44l.028.031Z" fill="url(#apa)"/><defs><linearGradient id="apa" x1="8" y1="2.667" x2="8" y2="13.333" gradientUnits="userSpaceOnUse"><stop stop-color="#FDC121"/><stop offset="1" stop-color="#F7A308"/></linearGradient></defs></svg><view id="icon-folder-public-90" viewBox="64 0 16 16"/><svg width="16" height="16" fill="none" viewBox="0 0 16 16" x="64" xmlns="http://www.w3.org/2000/svg"><path d="M2 3.333c0-.368.298-.666.667-.666h4.447c.354 0 .693.14.943.39l.22.22c.25.25.588.39.942.39H13a1 1 0 0 1 1 1v7.666a1 1 0 0 1-1 1H7.667A.333.333 0 0 1 7.333 13V9a1 1 0 0 0-1-1h-4A.333.333 0 0 1 2 7.667V3.333Z" fill="url(#aqa)"/><path d="M2 9c0-.184.15-.333.333-.333h4c.184 0 .334.149.334.333v4A.333.333 0 0 1 6 13V9.805l-3.431 3.43a.333.333 0 1 1-.471-.47l3.43-3.432H2.334A.333.333 0 0 1 2 9Z" fill="url(#aqb)"/><defs><linearGradient id="aqa" x1="8" y1="2.667" x2="8" y2="13.333" gradientUnits="userSpaceOnUse"><stop stop-color="#FDC121"/><stop offset="1" stop-color="#F7A308"/></linearGradient><linearGradient id="aqb" x1="8" y1="2.667" x2="8" y2="13.333" gradientUnits="userSpaceOnUse"><stop stop-color="#FDC121"/><stop offset="1" stop-color="#F7A308"/></linearGradient></defs></svg><view id="icon-folder-sync-90" viewBox="64 16 16 16"/><svg width="16" height="16" fill="none" viewBox="0 0 16 16" x="64" y="16" xmlns="http://www.w3.org/2000/svg"><path fill-rule="evenodd" clip-rule="evenodd" d="M2.667 2.667A.667.667 0 0 0 2 3.333v9a1 1 0 0 0 1 1h10a1 1 0 0 0 1-1V4.667a1 1 0 0 0-1-1H9.219c-.354 0-.693-.14-.943-.39l-.219-.22c-.25-.25-.589-.39-.943-.39H2.667Zm3.44 5.649a.333.333 0 0 1-.204-.426 2.334 2.334 0 0 1 3.916-.806l.062-.32a.333.333 0 0 1 .35-.27l.041.006c.167.032.28.184.27.349l-.006.041-.225 1.157a.333.333 0 0 1-.35.27l-.04-.006-1.158-.225a.333.333 0 0 1 .086-.66l.041.005.417.082a1.667 1.667 0 0 0-2.775.6.333.333 0 0 1-.425.203Zm4.198 1.127a.333.333 0 0 0-.628-.222 1.667 1.667 0 0 1-2.775.6l.416.08.042.006a.333.333 0 0 0 .085-.66L6.29 9.024l-.042-.006a.333.333 0 0 0-.35.27l-.224 1.156-.006.042a.333.333 0 0 0 .27.349l.041.005a.334.334 0 0 0 .35-.269l.061-.32a2.334 2.334 0 0 0 3.916-.806Z" fill="url(#ara)"/><defs><linearGradient id="ara" x1="8" y1="2.667" x2="8" y2="13.333" gradientUnits="userSpaceOnUse"><stop stop-color="#FDC121"/><stop offset="1" stop-color="#F7A308"/></linearGradient></defs></svg><view id="icon-folder-upload-90" viewBox="64 32 16 16"/><svg width="16" height="16" fill="none" viewBox="0 0 16 16" x="64" y="32" xmlns="http://www.w3.org/2000/svg"><path fill-rule="evenodd" clip-rule="evenodd" d="M2.667 2.667A.667.667 0 0 0 2 3.333v9a1 1 0 0 0 1 1h10a1 1 0 0 0 1-1V4.667a1 1 0 0 0-1-1H9.219c-.354 0-.693-.14-.943-.39l-.219-.22c-.25-.25-.589-.39-.943-.39H2.667ZM8.204 6.07l.032.028L9.569 7.43a.333.333 0 0 1-.44.5l-.031-.029-.765-.764v2.529a.333.333 0 0 1-.666 0V7.138l-.765.764c-.12.12-.309.13-.44.028l-.031-.028a.333.333 0 0 1-.028-.44l.028-.031 1.333-1.333c.12-.12.31-.13.44-.028Zm1.51 4.597c.158 0 .286.149.286.333 0 .184-.128.333-.286.333H6.286C6.128 11.333 6 11.184 6 11c0-.184.128-.333.286-.333h3.428Z" fill="url(#asa)"/><defs><linearGradient id="asa" x1="8" y1="2.667" x2="8" y2="13.333" gradientUnits="userSpaceOnUse"><stop stop-color="#FDC121"/><stop offset="1" stop-color="#F7A308"/></linearGradient></defs></svg><view id="icon-folder-users-90" viewBox="64 48 16 16"/><svg width="16" height="16" fill="none" viewBox="0 0 16 16" x="64" y="48" xmlns="http://www.w3.org/2000/svg"><path fill-rule="evenodd" clip-rule="evenodd" d="M2.667 2.667A.667.667 0 0 0 2 3.333v9a1 1 0 0 0 1 1h10a1 1 0 0 0 1-1V4.667a1 1 0 0 0-1-1H9.219c-.354 0-.693-.14-.943-.39l-.219-.22c-.25-.25-.589-.39-.943-.39H2.667Zm4.666 6a1.333 1.333 0 1 0 0-2.667 1.333 1.333 0 0 0 0 2.667Zm2.269 2.666c.2 0 .357-.176.304-.37a2.668 2.668 0 0 0-5.146 0c-.052.194.104.37.305.37h4.537ZM8.587 8.431A1.66 1.66 0 0 0 9 7.333c0-.42-.156-.805-.413-1.098C8.51 6.146 8.548 6 8.667 6a1.333 1.333 0 0 1 0 2.667c-.119 0-.158-.146-.08-.236Zm2.024 2.902a.36.36 0 0 1-.345-.29 2.99 2.99 0 0 0-1.159-1.796c-.093-.07-.046-.22.068-.199 1 .193 1.8.944 2.065 1.915.052.194-.104.37-.305.37h-.325Z" fill="url(#ata)"/><defs><linearGradient id="ata" x1="8" y1="2.667" x2="8" y2="13.333" gradientUnits="userSpaceOnUse"><stop stop-color="#FDC121"/><stop offset="1" stop-color="#F7A308"/></linearGradient></defs></svg><view id="icon-font-90" viewBox="0 64 16 16"/><svg width="16" height="16" fill="none" viewBox="0 0 16 16" y="64" xmlns="http://www.w3.org/2000/svg"><path d="m7.535 6.345.995 2.37H6.514l1.02-2.37Z" fill="url(#aua)"/><path d="M11.167 10.333a.5.5 0 1 0 0-1 .5.5 0 0 0 0 1Z" fill="url(#aub)"/><path fill-rule="evenodd" clip-rule="evenodd" d="M3.667 2h8.666a1 1 0 0 1 1 1v10a1 1 0 0 1-1 1H3.667a1 1 0 0 1-1-1V3a1 1 0 0 1 1-1ZM6.38 9.036h2.27l.356.844c.115.274.173.474.173.6a.301.301 0 0 1-.124.243c-.082.066-.24.105-.473.117V11h2.314v-.16c-.24-.014-.426-.08-.56-.197-.134-.117-.284-.371-.448-.763L7.846 5h-.151L5.63 9.828c-.178.424-.341.705-.488.843-.073.07-.231.126-.476.169V11h1.847v-.16c-.283-.02-.467-.064-.552-.132-.085-.068-.127-.146-.127-.236 0-.112.049-.282.147-.51l.398-.926Zm5.953 2.297H3.667v.334h8.666v-.334Zm-1.166-.666a.833.833 0 1 0 0-1.667.833.833 0 0 0 0 1.667Z" fill="url(#auc)"/><defs><linearGradient id="aua" x1="8" y1="2" x2="8" y2="14" gradientUnits="userSpaceOnUse"><stop stop-color="#888D95"/><stop offset="1" stop-color="#6E747D"/></linearGradient><linearGradient id="aub" x1="8" y1="2" x2="8" y2="14" gradientUnits="userSpaceOnUse"><stop stop-color="#888D95"/><stop offset="1" stop-color="#6E747D"/></linearGradient><linearGradient id="auc" x1="8" y1="2" x2="8" y2="14" gradientUnits="userSpaceOnUse"><stop stop-color="#888D95"/><stop offset="1" stop-color="#6E747D"/></linearGradient></defs></svg><view id="icon-generic-90" viewBox="16 64 16 16"/><svg width="16" height="16" fill="none" viewBox="0 0 16 16" x="16" y="64" xmlns="http://www.w3.org/2000/svg"><path fill-rule="evenodd" clip-rule="evenodd" d="M3.667 2a1 1 0 0 0-1 1v10a1 1 0 0 0 1 1h8.666a1 1 0 0 0 1-1V6.162a2 2 0 0 0-.585-1.414l-2.162-2.162A2 2 0 0 0 9.172 2H3.667Zm6.617.785a.167.167 0 0 0-.284.117V5c0 .184.15.333.333.333h2.098c.149 0 .223-.18.118-.284l-2.264-2.264Z" fill="url(#ava)"/><defs><linearGradient id="ava" x1="8" y1="2" x2="8" y2="14" gradientUnits="userSpaceOnUse"><stop stop-color="#888D95"/><stop offset="1" stop-color="#6E747D"/></linearGradient></defs></svg><view id="icon-illustrator-90" viewBox="32 64 16 16"/><svg width="16" height="16" fill="none" viewBox="0 0 16 16" x="32" y="64" xmlns="http://www.w3.org/2000/svg"><path d="M6.484 8.41h1.193c-.014-.047-.045-.124-.078-.205-.032-.08-.066-.165-.085-.223-.018-.056-.039-.107-.06-.16a2.122 2.122 0 0 1-.071-.185l-.127-.402a13.275 13.275 0 0 1-.116-.388 36.05 36.05 0 0 1-.096-.341h-.007c-.04.19-.089.378-.148.563-.066.212-.133.428-.2.649-.028.09-.057.19-.085.291-.04.146-.081.29-.12.401Z" fill="url(#awa)"/><path fill-rule="evenodd" clip-rule="evenodd" d="M3.667 2h8.666a1 1 0 0 1 1 1v10a1 1 0 0 1-1 1H3.667a1 1 0 0 1-1-1V3a1 1 0 0 1 1-1Zm6.54 4.475a.512.512 0 0 1-.501-.34.558.558 0 0 1-.034-.217.517.517 0 0 1 .34-.506.544.544 0 0 1 .21-.036.524.524 0 0 1 .398.151.543.543 0 0 1 .145.391.552.552 0 0 1-.152.402.54.54 0 0 1-.405.155Zm-.456 3.766V7.019c0-.043.02-.064.057-.064h.8c.038 0 .057.021.057.064v3.222c0 .047-.019.07-.056.07h-.794c-.042 0-.064-.023-.064-.07ZM7.867 9.16H6.24l-.332 1.087a.083.083 0 0 1-.085.063h-.824c-.047 0-.064-.026-.05-.078l1.406-4.059a2.19 2.19 0 0 0 .042-.144.981.981 0 0 0 .03-.261.044.044 0 0 1 .048-.03h1.12c.033 0 .052.012.056.036l1.604 4.465c.015.047 0 .071-.042.07h-.916a.065.065 0 0 1-.07-.048L7.866 9.16Z" fill="url(#awb)"/><defs><linearGradient id="awa" x1="8" y1="2" x2="8" y2="14" gradientUnits="userSpaceOnUse"><stop stop-color="#FD853A"/><stop offset="1" stop-color="#FB6514"/></linearGradient><linearGradient id="awb" x1="8" y1="2" x2="8" y2="14" gradientUnits="userSpaceOnUse"><stop stop-color="#FD853A"/><stop offset="1" stop-color="#FB6514"/></linearGradient></defs></svg><view id="icon-image-90" viewBox="48 64 16 16"/><svg width="16" height="16" fill="none" viewBox="0 0 16 16" x="48" y="64" xmlns="http://www.w3.org/2000/svg"><path fill-rule="evenodd" clip-rule="evenodd" d="M3.667 2h8.666a1 1 0 0 1 1 1v10a1 1 0 0 1-1 1H3.667a1 1 0 0 1-1-1V3a1 1 0 0 1 1-1Zm1 4.667a1.333 1.333 0 1 1 2.666 0 1.333 1.333 0 0 1-2.666 0Zm4.626.235a1 1 0 0 1 1.414 0l1.667 1.667a1 1 0 0 1 .293.707V13c0 .184-.15.333-.334.333H3.667a.333.333 0 0 1-.236-.569l5.862-5.862Z" fill="url(#axa)"/><defs><linearGradient id="axa" x1="8" y1="2" x2="8" y2="14" gradientUnits="userSpaceOnUse"><stop stop-color="#31D0FE"/><stop offset="1" stop-color="#05BAF1"/></linearGradient></defs></svg><view id="icon-indesign-90" viewBox="64 64 16 16"/><svg width="16" height="16" fill="none" viewBox="0 0 16 16" x="64" y="64" xmlns="http://www.w3.org/2000/svg"><path d="M9.54 9.531V7.607a1.307 1.307 0 0 0-.154-.02 1.396 1.396 0 0 0-.144-.008 1.088 1.088 0 0 0-.493.113.907.907 0 0 0-.515.88c-.003.155.022.307.074.452.043.116.11.222.197.31.084.08.185.141.296.176.118.038.24.057.363.057.066 0 .127-.003.184-.007.065-.005.13-.014.192-.029Z" fill="url(#aya)"/><path fill-rule="evenodd" clip-rule="evenodd" d="M3.667 2h8.666a1 1 0 0 1 1 1v10a1 1 0 0 1-1 1H3.667a1 1 0 0 1-1-1V3a1 1 0 0 1 1-1Zm5.406 8.405a2.183 2.183 0 0 1-.941-.197 1.495 1.495 0 0 1-.659-.596 1.905 1.905 0 0 1-.24-.997 1.84 1.84 0 0 1 .24-.923c.164-.287.406-.521.698-.677a2.252 2.252 0 0 1 1.245-.247l.124.008V5.442c0-.033.015-.05.043-.05h.817a.037.037 0 0 1 .042.043v4.11c0 .08.004.167.01.261.008.094.014.179.018.254a.072.072 0 0 1-.042.07 3.225 3.225 0 0 1-.679.212 3.82 3.82 0 0 1-.676.063ZM6.456 5.822v4.417c0 .047-.021.07-.064.07h-.806c-.038 0-.056-.023-.056-.07V5.822c0-.037.02-.056.063-.056h.806a.05.05 0 0 1 .057.056Z" fill="url(#ayb)"/><defs><linearGradient id="aya" x1="8" y1="2" x2="8" y2="14" gradientUnits="userSpaceOnUse"><stop stop-color="#FD6F90"/><stop offset="1" stop-color="#F63D6B"/></linearGradient><linearGradient id="ayb" x1="8" y1="2" x2="8" y2="14" gradientUnits="userSpaceOnUse"><stop stop-color="#FD6F90"/><stop offset="1" stop-color="#F63D6B"/></linearGradient></defs></svg><view id="icon-keynote-90" viewBox="80 0 16 16"/><svg width="16" height="16" fill="none" viewBox="0 0 16 16" x="80" xmlns="http://www.w3.org/2000/svg"><path opacity=".8" fill-rule="evenodd" clip-rule="evenodd" d="M3.667 2h8.666a1 1 0 0 1 1 1v10a1 1 0 0 1-1 1H3.667a1 1 0 0 1-1-1V3a1 1 0 0 1 1-1Zm1.666 3h-.012a.333.333 0 0 0-.333.313l-.141 2.334A.333.333 0 0 0 5.18 8h5.64a.333.333 0 0 0 .333-.353l-.14-2.334A.333.333 0 0 0 10.68 5H5.667v-.333c0-.184.149-.334.333-.334h.667c0 .184.149.334.333.334h.667a.333.333 0 0 0 0-.667H6a.667.667 0 0 0-.667.667V5Zm-.666 3.333c0 .184.149.334.333.334h6c.184 0 .333-.15.333-.334H4.667ZM7.665 9h.667v2.339c0 .163.118.3.273.328H9.5a.167.167 0 1 1 0 .333h-3a.167.167 0 1 1 0-.333h.891a.333.333 0 0 0 .274-.328V9Z" fill="url(#aza)"/><defs><linearGradient id="aza" x1="8" y1="2" x2="8" y2="14" gradientUnits="userSpaceOnUse"><stop stop-color="#69A3FB"/><stop offset="1" stop-color="#477EF7"/></linearGradient></defs></svg><view id="icon-numbers-90" viewBox="80 16 16 16"/><svg width="16" height="16" fill="none" viewBox="0 0 16 16" x="80" y="16" xmlns="http://www.w3.org/2000/svg"><path fill-rule="evenodd" clip-rule="evenodd" d="M3.667 2h8.666a1 1 0 0 1 1 1v10a1 1 0 0 1-1 1H3.667a1 1 0 0 1-1-1V3a1 1 0 0 1 1-1Zm4.666 3A.333.333 0 0 0 8 5.333v6c0 .184.15.334.333.334h1c.184 0 .334-.15.334-.334v-6A.333.333 0 0 0 9.333 5h-1ZM6 9c0-.184.15-.333.333-.333h1c.184 0 .334.149.334.333v2.333c0 .184-.15.334-.334.334h-1A.333.333 0 0 1 6 11.333V9Zm-1.667 1.333a.333.333 0 0 0-.333.334v.666c0 .184.15.334.333.334h1c.184 0 .334-.15.334-.334v-.666a.333.333 0 0 0-.334-.334h-1ZM4.167 12a.167.167 0 1 0 0 .333H11.5a.167.167 0 1 0 0-.333H4.167ZM10 7.333c0-.184.15-.333.333-.333h1c.184 0 .334.15.334.333v4c0 .184-.15.334-.334.334h-1a.333.333 0 0 1-.333-.334v-4Z" fill="url(#baa)"/><defs><linearGradient id="baa" x1="8" y1="2" x2="8" y2="14" gradientUnits="userSpaceOnUse"><stop stop-color="#29DD74"/><stop offset="1" stop-color="#09BF5B"/></linearGradient></defs></svg><view id="icon-open-office-90" viewBox="80 32 16 16"/><svg width="16" height="16" fill="none" viewBox="0 0 16 16" x="80" y="32" xmlns="http://www.w3.org/2000/svg"><path fill-rule="evenodd" clip-rule="evenodd" d="M3.667 2h8.666a1 1 0 0 1 1 1v10a1 1 0 0 1-1 1H3.667a1 1 0 0 1-1-1V6.967l.03.003c1.218.115 2.278.49 3.023 1.334.038.04.073.038.112-.002.937-1.085 2.372-1.513 3.915-1.368a4.226 4.226 0 0 1 .292.038l.064.009c.05.006.079-.035.079-.079a.073.073 0 0 0-.043-.07 1.654 1.654 0 0 0-.088-.044 4.591 4.591 0 0 0-4.284.16 4.565 4.565 0 0 0-1.828-.573 4.572 4.572 0 0 0-1.272.056V3a1 1 0 0 1 1-1Zm6.963 2.263-.03-.016a1.367 1.367 0 0 1-.012-.006l-.005-.002a2.414 2.414 0 0 0-2.252.084 2.4 2.4 0 0 0-.96-.301 2.397 2.397 0 0 0-1.343.263l-.009.005-.003.001a.041.041 0 0 0 .029.074h.006c.214-.04.438-.052.666-.03.64.06 1.198.257 1.59.701.02.021.038.02.058 0 .493-.571 1.247-.796 2.058-.72.045.004.09.01.134.017l.02.003a.888.888 0 0 0 .034.004c.026.003.041-.018.041-.04a.039.039 0 0 0-.022-.037Z" fill="url(#bba)"/><path d="M2.667 6.431a4.571 4.571 0 0 0-1.28.444l-.017.009-.006.004a.078.078 0 0 0 .048.14h.007l.006-.001h.005a4.569 4.569 0 0 1 1.237-.06v-.536Z" fill="url(#bbb)"/><defs><linearGradient id="bba" x1="7.333" y1="2" x2="7.333" y2="14" gradientUnits="userSpaceOnUse"><stop stop-color="#69A3FB"/><stop offset="1" stop-color="#477EF7"/></linearGradient><linearGradient id="bbb" x1="7.333" y1="2" x2="7.333" y2="14" gradientUnits="userSpaceOnUse"><stop stop-color="#69A3FB"/><stop offset="1" stop-color="#477EF7"/></linearGradient></defs></svg><view id="icon-pages-90" viewBox="80 48 16 16"/><svg width="16" height="16" fill="none" viewBox="0 0 16 16" x="80" y="48" xmlns="http://www.w3.org/2000/svg"><path fill-rule="evenodd" clip-rule="evenodd" d="M3.667 2h8.666a1 1 0 0 1 1 1v10a1 1 0 0 1-1 1H3.667a1 1 0 0 1-1-1V3a1 1 0 0 1 1-1Zm1.731 7.88 4.395-4.395.576.572-4.397 4.397a.335.335 0 0 1-.061.048l-1.152.706c-.075.046-.16-.04-.115-.115l.706-1.152a.334.334 0 0 1 .048-.061Zm5.74-4.593-.558.56-.574-.575.559-.559a.406.406 0 1 1 .574.574ZM4.5 11.667a.167.167 0 1 0 0 .333h8.333a.167.167 0 0 0 0-.333H4.5Z" fill="url(#bca)"/><defs><linearGradient id="bca" x1="8" y1="2" x2="8" y2="14" gradientUnits="userSpaceOnUse"><stop stop-color="#FDC121"/><stop offset="1" stop-color="#F7A308"/></linearGradient></defs></svg><view id="icon-pdf-90" viewBox="80 64 16 16"/><svg width="16" height="16" fill="none" viewBox="0 0 16 16" x="80" y="64" xmlns="http://www.w3.org/2000/svg"><path d="M10.338 9.54c.324.082.506-.06.527-.202.04-.202-.122-.303-.284-.344-.425-.08-1.011-.02-1.275.02.304.244.648.426 1.033.527Z" fill="url(#bda)"/><path d="M7.647 5.069c-.06 0-.121.04-.162.101-.1.182-.162.749.142 1.558.142-.405.223-.83.243-1.254 0-.183-.04-.405-.223-.405Z" fill="url(#bdb)"/><path d="M7.91 7.962a11.3 11.3 0 0 1-.465 1.134c.29-.097.63-.18.858-.234.153-.037.255-.062.255-.07a5.16 5.16 0 0 1-.648-.83Z" fill="url(#bdc)"/><path d="M5.037 11.16c.263 0 .749-.486 1.214-1.255-.81.364-1.336.749-1.396 1.032-.02.081 0 .142.06.182.04.02.081.04.122.04Z" fill="url(#bdd)"/><path fill-rule="evenodd" clip-rule="evenodd" d="M3.667 2h8.666a1 1 0 0 1 1 1v10a1 1 0 0 1-1 1H3.667a1 1 0 0 1-1-1V3a1 1 0 0 1 1-1Zm5.475 6.701c.445-.056 1.736-.218 2.228.293.142.162.203.385.102.587-.061.182-.243.385-.729.385-.364 0-1.052-.101-1.841-.79-.668.122-1.336.324-1.76.466-.507.87-1.235 1.902-1.984 1.902a.777.777 0 0 1-.506-.182.54.54 0 0 1-.162-.506c.102-.607 1.336-1.174 1.923-1.416.532-1.007.742-1.603.95-2.192l.041-.115c-.384-.87-.485-1.72-.242-2.145a.588.588 0 0 1 .485-.283c.567 0 .77.546.77 1.052a5.884 5.884 0 0 1-.325 1.68l.013.02c.132.22.47.785.959 1.254l.078-.01Z" fill="url(#bde)"/><defs><linearGradient id="bda" x1="8" y1="2" x2="8" y2="14" gradientUnits="userSpaceOnUse"><stop stop-color="#FB6361"/><stop offset="1" stop-color="#F23433"/></linearGradient><linearGradient id="bdb" x1="8" y1="2" x2="8" y2="14" gradientUnits="userSpaceOnUse"><stop stop-color="#FB6361"/><stop offset="1" stop-color="#F23433"/></linearGradient><linearGradient id="bdc" x1="8" y1="2" x2="8" y2="14" gradientUnits="userSpaceOnUse"><stop stop-color="#FB6361"/><stop offset="1" stop-color="#F23433"/></linearGradient><linearGradient id="bdd" x1="8" y1="2" x2="8" y2="14" gradientUnits="userSpaceOnUse"><stop stop-color="#FB6361"/><stop offset="1" stop-color="#F23433"/></linearGradient><linearGradient id="bde" x1="8" y1="2" x2="8" y2="14" gradientUnits="userSpaceOnUse"><stop stop-color="#FB6361"/><stop offset="1" stop-color="#F23433"/></linearGradient></defs></svg><view id="icon-photoshop-90" viewBox="0 80 16 16"/><svg width="16" height="16" fill="none" viewBox="0 0 16 16" y="80" xmlns="http://www.w3.org/2000/svg"><path d="M6.02 6.541V8c.062.005.118.007.17.007h.232c.171.003.34-.021.504-.07a.76.76 0 0 0 .36-.233.677.677 0 0 0 .137-.451.712.712 0 0 0-.102-.388.657.657 0 0 0-.307-.25 1.306 1.306 0 0 0-.514-.088c-.113 0-.213.001-.3.004a1.906 1.906 0 0 0-.18.01Z" fill="url(#bea)"/><path fill-rule="evenodd" clip-rule="evenodd" d="M3.667 2h8.666a1 1 0 0 1 1 1v10a1 1 0 0 1-1 1H3.667a1 1 0 0 1-1-1V3a1 1 0 0 1 1-1Zm1.381 8.248V5.745c0-.033.014-.05.042-.05.076 0 .165 0 .268-.003a117.904 117.904 0 0 1 1.114-.018c.306-.008.611.038.902.134.22.075.421.198.588.36.142.14.251.31.321.497.066.181.1.373.099.567.013.33-.078.655-.261.93-.175.245-.421.431-.705.532-.316.114-.65.17-.987.166-.103 0-.176-.001-.218-.004a3.807 3.807 0 0 0-.19-.003v1.388a.056.056 0 0 1-.038.061.057.057 0 0 1-.026.003h-.86c-.032 0-.049-.02-.049-.057Zm6.077-2.53a2.486 2.486 0 0 0-.508-.148 2.227 2.227 0 0 0-.49-.056.912.912 0 0 0-.264.031.237.237 0 0 0-.137.089.222.222 0 0 0-.035.12c0 .04.016.08.042.112a.48.48 0 0 0 .148.116c.1.055.204.103.31.145.236.08.462.187.673.32.143.091.262.216.345.364.07.14.106.294.103.45.004.207-.055.41-.17.582-.122.175-.292.31-.49.391a1.973 1.973 0 0 1-.792.141c-.2.002-.4-.017-.596-.056a2.182 2.182 0 0 1-.476-.141.09.09 0 0 1-.049-.085v-.761a.041.041 0 0 1 .018-.039.034.034 0 0 1 .038.004c.18.1.371.172.571.215.169.042.341.064.515.067a.79.79 0 0 0 .363-.064.199.199 0 0 0 .116-.183.232.232 0 0 0-.105-.176 1.753 1.753 0 0 0-.43-.205 2.592 2.592 0 0 1-.624-.317 1.074 1.074 0 0 1-.331-.37.97.97 0 0 1-.103-.447 1.01 1.01 0 0 1 .607-.93c.218-.12.464-.181.713-.179.198-.01.396-.007.594.01a2.027 2.027 0 0 1 .491.169.063.063 0 0 1 .016.024.192.192 0 0 1 .008.053v.712a.047.047 0 0 1-.021.042.046.046 0 0 1-.05 0Z" fill="url(#beb)"/><defs><linearGradient id="bea" x1="8" y1="2" x2="8" y2="14" gradientUnits="userSpaceOnUse"><stop stop-color="#31D0FE"/><stop offset="1" stop-color="#05BAF1"/></linearGradient><linearGradient id="beb" x1="8" y1="2" x2="8" y2="14" gradientUnits="userSpaceOnUse"><stop stop-color="#31D0FE"/><stop offset="1" stop-color="#05BAF1"/></linearGradient></defs></svg><view id="icon-powerpoint-90" viewBox="16 80 16 16"/><svg width="16" height="16" fill="none" viewBox="0 0 16 16" x="16" y="80" xmlns="http://www.w3.org/2000/svg"><path d="M7.568 7.939V6.692h.354c.48 0 .72.205.72.616 0 .42-.24.63-.72.63h-.354Z" fill="url(#bfa)"/><path fill-rule="evenodd" clip-rule="evenodd" d="M3.667 2h8.666a1 1 0 0 1 1 1v10a1 1 0 0 1-1 1H3.667a1 1 0 0 1-1-1V3a1 1 0 0 1 1-1Zm3.9 8V8.622h.43c.484 0 .87-.124 1.16-.372.288-.249.433-.574.433-.975C9.59 6.425 9.086 6 8.078 6H6.667v4h.9Z" fill="url(#bfb)"/><defs><linearGradient id="bfa" x1="8" y1="2" x2="8" y2="14" gradientUnits="userSpaceOnUse"><stop stop-color="#FB6361"/><stop offset="1" stop-color="#F23433"/></linearGradient><linearGradient id="bfb" x1="8" y1="2" x2="8" y2="14" gradientUnits="userSpaceOnUse"><stop stop-color="#FB6361"/><stop offset="1" stop-color="#F23433"/></linearGradient></defs></svg><view id="icon-premiere-90" viewBox="32 80 16 16"/><svg width="16" height="16" fill="none" viewBox="0 0 16 16" x="32" y="80" xmlns="http://www.w3.org/2000/svg"><path d="M6.096 6.502v1.466c.029 0 .086.01.143.02.057.009.114.019.143.019h.228c.172 0 .343-.02.496-.077a.736.736 0 0 0 .362-.228.65.65 0 0 0 .133-.457.867.867 0 0 0-.095-.381.633.633 0 0 0-.305-.248 1.633 1.633 0 0 0-.514-.095h-.305c-.073.014-.192-.005-.251-.014a.381.381 0 0 0-.035-.005Z" fill="url(#bga)"/><path fill-rule="evenodd" clip-rule="evenodd" d="M3.667 2h8.666a1 1 0 0 1 1 1v10a1 1 0 0 1-1 1H3.667a1 1 0 0 1-1-1V3a1 1 0 0 1 1-1Zm1.515 8.216V5.721c0-.038.019-.057.038-.057h.99c.067 0 .143.01.22.019.076.01.152.019.219.019.304 0 .61.038.895.133a1.46 1.46 0 0 1 .914.857c.057.19.095.381.095.572.02.324-.076.647-.266.933a1.403 1.403 0 0 1-.705.533 2.929 2.929 0 0 1-.99.172h-.21a.87.87 0 0 1-.092-.013c-.068-.011-.155-.025-.213-.025v1.39c0 .038-.019.057-.057.057h-.8l-.015-.027c-.013-.022-.023-.04-.023-.068Zm3.98-3.41h.763c.038 0 .076.039.095.077l.015.027c.013.022.023.04.023.068.02.038.02.095.02.133v.153a1.56 1.56 0 0 1 .475-.381c.19-.115.4-.172.61-.153.038 0 .057.02.057.038v.877c0 .038-.02.057-.076.057-.153-.02-.286 0-.42.038-.133.019-.247.057-.361.114a.88.88 0 0 0-.286.172v2.228c0 .038-.019.057-.057.057h-.8c-.038 0-.057-.019-.076-.057V7.492c0-.114 0-.228-.02-.343 0-.047-.004-.095-.009-.142-.005-.048-.01-.096-.01-.143 0-.008 0-.013.002-.017.002-.006.007-.01.018-.021 0-.02.019-.02.038-.02Z" fill="url(#bgb)"/><defs><linearGradient id="bga" x1="8" y1="2" x2="8" y2="14" gradientUnits="userSpaceOnUse"><stop stop-color="#69A3FB"/><stop offset="1" stop-color="#477EF7"/></linearGradient><linearGradient id="bgb" x1="8" y1="2" x2="8" y2="14" gradientUnits="userSpaceOnUse"><stop stop-color="#69A3FB"/><stop offset="1" stop-color="#477EF7"/></linearGradient></defs></svg><view id="icon-raw-90" viewBox="48 80 16 16"/><svg width="16" height="16" fill="none" viewBox="0 0 16 16" x="48" y="80" xmlns="http://www.w3.org/2000/svg"><path fill-rule="evenodd" clip-rule="evenodd" d="M3.667 2h8.666a1 1 0 0 1 1 1v10a1 1 0 0 1-1 1H3.667a1 1 0 0 1-1-1V3a1 1 0 0 1 1-1Zm8 6c0-1.41-.797-2.636-1.965-3.249l.032.074a3.497 3.497 0 0 1-1.364 4.3 3.16 3.16 0 0 0 1.13.208c.82 0 1.569-.312 2.132-.824.023-.167.035-.336.035-.509Zm-.146 1.024a3.484 3.484 0 0 1-2.021.643A3.49 3.49 0 0 1 7 8.617v.05c0 1.29.772 2.4 1.88 2.894a3.673 3.673 0 0 0 2.641-2.537Zm-3.184 2.627a3.498 3.498 0 0 1-1.416-4.296A3.17 3.17 0 0 0 4.863 9.9a3.665 3.665 0 0 0 3.474 1.752Zm.097-4.791a3.163 3.163 0 0 0-3.162-1.31A3.653 3.653 0 0 0 4.333 8c0 .504.102.985.287 1.422A3.502 3.502 0 0 1 8.434 6.86Zm.784-2.32A3.661 3.661 0 0 0 8 4.333c-.886 0-1.699.315-2.332.838a3.5 3.5 0 0 1 3.554 2.616 3.152 3.152 0 0 0 .445-1.62c0-.595-.164-1.151-.45-1.627Z" fill="url(#bha)"/><defs><linearGradient id="bha" x1="8" y1="2" x2="8" y2="14" gradientUnits="userSpaceOnUse"><stop stop-color="#31D0FE"/><stop offset="1" stop-color="#05BAF1"/></linearGradient></defs></svg><view id="icon-spreadsheet-90" viewBox="64 80 16 16"/><svg width="16" height="16" fill="none" viewBox="0 0 16 16" x="64" y="80" xmlns="http://www.w3.org/2000/svg"><path fill-rule="evenodd" clip-rule="evenodd" d="M3.667 2h8.666a1 1 0 0 1 1 1v10a1 1 0 0 1-1 1H3.667a1 1 0 0 1-1-1V3a1 1 0 0 1 1-1ZM6 4H4.667v1.333H6V4Zm2.667 0H6.333v1.333h2.334V4ZM9 4h2.333v1.333H9V4Zm-.333 1.667H6.333V7h2.334V5.667Zm-4 0H6V7H4.667V5.667Zm4 1.666H6.333v1.334h2.334V7.333ZM9 5.667h2.333V7H9V5.667ZM8.667 9H6.333v1.333h2.334V9Zm-4-1.667H6v1.334H4.667V7.333Zm4 3.334H6.333V12h2.334v-1.333ZM9 7.333h2.333v1.334H9V7.333ZM6 9H4.667v1.333H6V9Zm3 0h2.333v1.333H9V9Zm-3 1.667H4.667V12H6v-1.333Zm3 0h2.333V12H9v-1.333Z" fill="url(#bia)"/><defs><linearGradient id="bia" x1="8" y1="2" x2="8" y2="14" gradientUnits="userSpaceOnUse"><stop stop-color="#29DD74"/><stop offset="1" stop-color="#09BF5B"/></linearGradient></defs></svg><view id="icon-takedown-90" viewBox="80 80 16 16"/><svg width="16" height="16" fill="none" viewBox="0 0 16 16" x="80" y="80" xmlns="http://www.w3.org/2000/svg"><path d="M8.312 7.167a.313.313 0 0 0-.625 0v1.041a.312.312 0 1 0 .625 0V7.167Z" fill="url(#bja)"/><path d="M8 9.042a.312.312 0 1 0 0 .625h.003a.312.312 0 1 0 0-.625H8Z" fill="url(#bjb)"/><path fill-rule="evenodd" clip-rule="evenodd" d="M12.333 2H3.667a1 1 0 0 0-1 1v10a1 1 0 0 0 1 1h8.666a1 1 0 0 0 1-1V3a1 1 0 0 0-1-1ZM7.574 5.27a.868.868 0 0 1 1.168.307l.001.001 2.355 3.932a.868.868 0 0 1-.742 1.303H5.643a.868.868 0 0 1-.741-1.303l.002-.004 2.354-3.93a.868.868 0 0 1 .316-.305Z" fill="url(#bjc)"/><defs><linearGradient id="bja" x1="8" y1="2" x2="8" y2="14" gradientUnits="userSpaceOnUse"><stop stop-color="#F63D6B"/><stop offset="1" stop-color="#E31B57"/></linearGradient><linearGradient id="bjb" x1="8" y1="2" x2="8" y2="14" gradientUnits="userSpaceOnUse"><stop stop-color="#F63D6B"/><stop offset="1" stop-color="#E31B57"/></linearGradient><linearGradient id="bjc" x1="8" y1="2" x2="8" y2="14" gradientUnits="userSpaceOnUse"><stop stop-color="#F63D6B"/><stop offset="1" stop-color="#E31B57"/></linearGradient></defs></svg><view id="icon-text-90" viewBox="96 0 16 16"/><svg width="16" height="16" fill="none" viewBox="0 0 16 16" x="96" xmlns="http://www.w3.org/2000/svg"><path fill-rule="evenodd" clip-rule="evenodd" d="M3.667 2h8.666a1 1 0 0 1 1 1v10a1 1 0 0 1-1 1H3.667a1 1 0 0 1-1-1V3a1 1 0 0 1 1-1Zm1.666 2h.334v.667h6V5h-6v1h6v.333h-6v1h6v.334h-6v1h6V9h-6v1h6v.333h-6v1h6v.334h-6v.666h-.334v-.666h-1v-.334h1v-1h-1V10h1V9h-1v-.333h1v-1h-1v-.334h1v-1h-1V6h1V5h-1v-.333h1V4Z" fill="url(#bka)"/><defs><linearGradient id="bka" x1="8" y1="2" x2="8" y2="14" gradientUnits="userSpaceOnUse"><stop stop-color="#888D95"/><stop offset="1" stop-color="#6E747D"/></linearGradient></defs></svg><view id="icon-threed-90" viewBox="96 16 16 16"/><svg width="16" height="16" fill="none" viewBox="0 0 16 16" x="96" y="16" xmlns="http://www.w3.org/2000/svg"><path fill-rule="evenodd" clip-rule="evenodd" d="M4 2h8c.736 0 1.333.597 1.333 1.333v9.334c0 .736-.597 1.333-1.333 1.333H4a1.333 1.333 0 0 1-1.333-1.333V3.333C2.667 2.597 3.264 2 4 2Zm4.167.333h-.334V4.1L4.806 5.917 8 7.833l3.194-1.916L8.167 4.1V2.333Zm3.166 7.5 1.667 1v.334l-1.806-1.084L8.167 11.9V8.067l3.166-1.9v3.666Zm-6.527.25L3 11.167v-.334l1.667-1V6.167l3.166 1.9V11.9l-3.027-1.817Z" fill="url(#bla)"/><defs><linearGradient id="bla" x1="8" y1="2" x2="8" y2="14" gradientUnits="userSpaceOnUse"><stop stop-color="#69A3FB"/><stop offset="1" stop-color="#477EF7"/></linearGradient></defs></svg><view id="icon-torrent-90" viewBox="96 32 16 16"/><svg width="16" height="16" fill="none" viewBox="0 0 16 16" x="96" y="32" xmlns="http://www.w3.org/2000/svg"><path fill-rule="evenodd" clip-rule="evenodd" d="M3.667 2h8.666a1 1 0 0 1 1 1v10a1 1 0 0 1-1 1H3.667a1 1 0 0 1-1-1V3a1 1 0 0 1 1-1Zm6.331 8.333-1.43-1.43a.334.334 0 0 1 0-.472l.028-.029c.13-.13.341-.13.471 0L9.665 9V6a.333.333 0 0 1 .667 0v3l.597-.598c.13-.13.342-.13.472 0l.028.029c.13.13.13.341 0 .471L10 10.333Zm-4-4.666-1.43 1.43a.334.334 0 0 0 0 .472l.028.029c.13.13.341.13.471 0L5.665 7v3a.333.333 0 0 0 .667 0V7l.597.598c.13.13.342.13.472 0l.028-.029a.333.333 0 0 0 0-.471L6 5.667Z" fill="url(#bma)"/><defs><linearGradient id="bma" x1="8" y1="2" x2="8" y2="14" gradientUnits="userSpaceOnUse"><stop stop-color="#29DD74"/><stop offset="1" stop-color="#09BF5B"/></linearGradient></defs></svg><view id="icon-undecrypted-90" viewBox="96 48 16 16"/><svg width="16" height="16" fill="none" viewBox="0 0 16 16" x="96" y="48" xmlns="http://www.w3.org/2000/svg"><path fill-rule="evenodd" clip-rule="evenodd" d="M3.667 2h8.666a1 1 0 0 1 1 1v10a1 1 0 0 1-1 1H3.667a1 1 0 0 1-1-1V3a1 1 0 0 1 1-1Zm2.79 5.316c.172.06.363-.03.424-.204a1.165 1.165 0 0 1 2.265.388c0 .297-.194.526-.407.704-.384.32-.864.48-.864.48a.332.332 0 1 0 .211.632s.6-.2 1.08-.6c.361-.301.647-.712.647-1.215a1.833 1.833 0 0 0-3.56-.61c-.062.173.03.364.203.425ZM8 10.333A.333.333 0 0 0 8 11h.007a.333.333 0 1 0 0-.667H8Z" fill="url(#bna)"/><defs><linearGradient id="bna" x1="8" y1="2" x2="8" y2="14" gradientUnits="userSpaceOnUse"><stop stop-color="#FDC121"/><stop offset="1" stop-color="#F7A308"/></linearGradient></defs></svg><view id="icon-url-90" viewBox="96 64 16 16"/><svg width="16" height="16" fill="none" viewBox="0 0 16 16" x="96" y="64" xmlns="http://www.w3.org/2000/svg"><path fill-rule="evenodd" clip-rule="evenodd" d="M3.667 2h8.666a1 1 0 0 1 1 1v10a1 1 0 0 1-1 1H3.667a1 1 0 0 1-1-1V3a1 1 0 0 1 1-1Zm3.666 5a.333.333 0 1 0 0-.667h-.666a1.667 1.667 0 0 0 0 3.334h.666a.333.333 0 1 0 0-.667h-.666a1 1 0 1 1 0-2h.666Zm1-.333c0 .184.15.333.334.333h.666a1 1 0 1 1 0 2h-.666a.333.333 0 1 0 0 .667h.666a1.667 1.667 0 0 0 0-3.334h-.666a.333.333 0 0 0-.334.334ZM7 7.667a.333.333 0 0 0 0 .666h2a.333.333 0 0 0 0-.666H7Z" fill="url(#boa)"/><defs><linearGradient id="boa" x1="8" y1="2" x2="8" y2="14" gradientUnits="userSpaceOnUse"><stop stop-color="#69A3FB"/><stop offset="1" stop-color="#477EF7"/></linearGradient></defs></svg><view id="icon-vector-90" viewBox="96 80 16 16"/><svg width="16" height="16" fill="none" viewBox="0 0 16 16" x="96" y="80" xmlns="http://www.w3.org/2000/svg"><path d="M7.167 8a.5.5 0 1 0 0-1 .5.5 0 0 0 0 1Z" fill="url(#bpa)"/><path fill-rule="evenodd" clip-rule="evenodd" d="M3.667 2h8.666a1 1 0 0 1 1 1v10a1 1 0 0 1-1 1H3.667a1 1 0 0 1-1-1V3a1 1 0 0 1 1-1Zm5.155 4.08A8.948 8.948 0 0 1 13 4.692v.334A8.631 8.631 0 0 0 7.932 7.17.833.833 0 0 1 6.876 8.28 8.63 8.63 0 0 0 5 13.667h-.333c0-1.784.519-3.447 1.414-4.845l-1.426 1.425a.334.334 0 1 1-.235-.236L6.47 7.96a.833.833 0 0 1 1.155-1.155l2.052-2.052a.334.334 0 1 1 .236.236L8.822 6.08Z" fill="url(#bpb)"/><defs><linearGradient id="bpa" x1="8" y1="2" x2="8" y2="14" gradientUnits="userSpaceOnUse"><stop stop-color="#FDC121"/><stop offset="1" stop-color="#F7A308"/></linearGradient><linearGradient id="bpb" x1="8" y1="2" x2="8" y2="14" gradientUnits="userSpaceOnUse"><stop stop-color="#FDC121"/><stop offset="1" stop-color="#F7A308"/></linearGradient></defs></svg><view id="icon-video-90" viewBox="0 96 16 16"/><svg width="16" height="16" fill="none" viewBox="0 0 16 16" y="96" xmlns="http://www.w3.org/2000/svg"><path fill-rule="evenodd" clip-rule="evenodd" d="M12.333 2H3.667a1 1 0 0 0-1 1v10a1 1 0 0 0 1 1h8.666a1 1 0 0 0 1-1V3a1 1 0 0 0-1-1ZM3.667 3.333C3.667 3.15 3.816 3 4 3h1a.333.333 0 1 1 0 .667H4a.333.333 0 0 1-.333-.334ZM4 4a.333.333 0 0 0-.333.333V5c0 .184.149.333.333.333h1c.184 0 .333-.149.333-.333v-.667A.333.333 0 0 0 5 4H4Zm7 0a.333.333 0 0 0-.333.333V5c0 .184.149.333.333.333h1c.184 0 .333-.149.333-.333v-.667A.333.333 0 0 0 12 4h-1Zm0-1a.333.333 0 0 0 0 .667h1A.333.333 0 1 0 12 3h-1Zm-7.333 9.667c0-.184.149-.334.333-.334h1A.333.333 0 0 1 5 13H4a.333.333 0 0 1-.333-.333ZM11 12.333A.333.333 0 0 0 11 13h1a.333.333 0 1 0 0-.667h-1ZM3.667 6c0-.184.149-.333.333-.333h1c.184 0 .333.149.333.333v.667C5.333 6.85 5.184 7 5 7H4a.333.333 0 0 1-.333-.333V6ZM11 5.667a.333.333 0 0 0-.333.333v.667c0 .184.149.333.333.333h1c.184 0 .333-.15.333-.333V6A.333.333 0 0 0 12 5.667h-1Zm-7.333 2c0-.184.149-.334.333-.334h1c.184 0 .333.15.333.334v.666c0 .184-.149.334-.333.334H4a.333.333 0 0 1-.333-.334v-.666ZM11 7.333a.333.333 0 0 0-.333.334v.666c0 .184.149.334.333.334h1c.184 0 .333-.15.333-.334v-.666A.333.333 0 0 0 12 7.333h-1Zm-7.333 2C3.667 9.15 3.816 9 4 9h1c.184 0 .333.15.333.333V10c0 .184-.149.333-.333.333H4A.333.333 0 0 1 3.667 10v-.667ZM11 9a.333.333 0 0 0-.333.333V10c0 .184.149.333.333.333h1c.184 0 .333-.149.333-.333v-.667A.333.333 0 0 0 12 9h-1Zm-7.333 2c0-.184.149-.333.333-.333h1c.184 0 .333.149.333.333v.667c0 .184-.149.333-.333.333H4a.333.333 0 0 1-.333-.333V11ZM11 10.667a.333.333 0 0 0-.333.333v.667c0 .184.149.333.333.333h1c.184 0 .333-.15.333-.333V11a.333.333 0 0 0-.333-.333h-1ZM7.205 6.085a.333.333 0 0 0-.538.263v3.304c0 .277.319.433.538.263l2.123-1.652a.333.333 0 0 0 0-.526L7.205 6.085Z" fill="url(#bqa)"/><defs><linearGradient id="bqa" x1="8" y1="2" x2="8" y2="14" gradientUnits="userSpaceOnUse"><stop stop-color="#FD6F90"/><stop offset="1" stop-color="#F63D6B"/></linearGradient></defs></svg><view id="icon-web-data-90" viewBox="16 96 16 16"/><svg width="16" height="16" fill="none" viewBox="0 0 16 16" x="16" y="96" xmlns="http://www.w3.org/2000/svg"><path fill-rule="evenodd" clip-rule="evenodd" d="M3.667 2h8.666a1 1 0 0 1 1 1v10a1 1 0 0 1-1 1H3.667a1 1 0 0 1-1-1V3a1 1 0 0 1 1-1Zm6 4.667a.333.333 0 0 0-.334-.334v-.666a1 1 0 0 1 1 1v.666c0 .184.15.334.334.334v.666a.333.333 0 0 0-.334.334v.666a1 1 0 0 1-1 1v-.666c.184 0 .334-.15.334-.334v-.666c0-.256.096-.49.254-.667a.996.996 0 0 1-.254-.667v-.666Zm-3-.334a.333.333 0 0 0-.334.334v.666c0 .256-.096.49-.254.667.158.177.254.41.254.667v.666c0 .184.15.334.334.334v.666a1 1 0 0 1-1-1v-.666a.333.333 0 0 0-.334-.334v-.666c.184 0 .334-.15.334-.334v-.666a1 1 0 0 1 1-1v.666Z" fill="url(#bra)"/><defs><linearGradient id="bra" x1="8" y1="2" x2="8" y2="14" gradientUnits="userSpaceOnUse"><stop stop-color="#69A3FB"/><stop offset="1" stop-color="#477EF7"/></linearGradient></defs></svg><view id="icon-web-lang-90" viewBox="32 96 16 16"/><svg width="16" height="16" fill="none" viewBox="0 0 16 16" x="32" y="96" xmlns="http://www.w3.org/2000/svg"><path fill-rule="evenodd" clip-rule="evenodd" d="M12.333 2H3.667a1 1 0 0 0-1 1v10a1 1 0 0 0 1 1h8.666a1 1 0 0 0 1-1V3a1 1 0 0 0-1-1ZM6.57 6.431c.13.13.13.341 0 .471L5.471 8 6.57 9.098a.333.333 0 1 1-.471.471L4.528 8l1.57-1.569c.13-.13.34-.13.471 0Zm2.862.471a.333.333 0 1 1 .471-.471L11.472 8l-1.57 1.569a.333.333 0 0 1-.471-.471L10.529 8 9.43 6.902Z" fill="url(#bsa)"/><defs><linearGradient id="bsa" x1="8" y1="2" x2="8" y2="14" gradientUnits="userSpaceOnUse"><stop stop-color="#FD853A"/><stop offset="1" stop-color="#FB6514"/></linearGradient></defs></svg><view id="icon-word-90" viewBox="48 96 16 16"/><svg width="16" height="16" fill="none" viewBox="0 0 16 16" x="48" y="96" xmlns="http://www.w3.org/2000/svg"><path fill-rule="evenodd" clip-rule="evenodd" d="M3.667 2h8.666a1 1 0 0 1 1 1v10a1 1 0 0 1-1 1H3.667a1 1 0 0 1-1-1V3a1 1 0 0 1 1-1Zm6.052 8 1.031-4h-.887l-.538 2.67c-.031.15-.05.299-.057.446h-.011a3.367 3.367 0 0 0-.063-.43L8.554 6h-.94l-.707 2.653c-.046.169-.072.325-.08.468h-.016a3.256 3.256 0 0 0-.051-.457L6.21 6h-.96l1.025 4H7.29l.664-2.566c.03-.117.054-.267.07-.45h.011c.008.166.028.316.063.45L8.745 10h.974Z" fill="url(#bta)"/><defs><linearGradient id="bta" x1="8" y1="2" x2="8" y2="14" gradientUnits="userSpaceOnUse"><stop stop-color="#69A3FB"/><stop offset="1" stop-color="#477EF7"/></linearGradient></defs></svg></svg>