<?xml version="1.0" encoding="UTF-8"?><svg width="160" height="160" viewBox="0 0 128 112" xmlns="http://www.w3.org/2000/svg" xmlns:xlink="http://www.w3.org/1999/xlink"><view id="icon-aftereffects-90" viewBox="0 0 16 16"/><svg width="16" height="16" viewBox="0 0 16 16" xmlns="http://www.w3.org/2000/svg"><defs><linearGradient x1="50%" y1="0%" x2="50%" y2="95.436%" id="aac"><stop stop-color="#12002C" stop-opacity=".9" offset="0%"/><stop stop-color="#12002C" offset="100%"/></linearGradient><path id="aaa" d="M0 0h16v16H0z"/></defs><g fill="none" fill-rule="evenodd"><mask id="aab" fill="#fff"><use xlink:href="#aaa"/></mask><g mask="url(#aab)"><path d="M3 2h10c.184 0 .333.15.333.333v11.334c0 .184-.149.333-.333.333H3a.333.333 0 01-.333-.333V2.333C2.667 2.15 2.816 2 3 2z" fill="#D8A1FF"/><path d="M3.333 2.5h9.334c.092 0 .166.075.166.167v10.666a.167.167 0 01-.166.167H3.333a.167.167 0 01-.166-.167V2.667c0-.092.074-.167.166-.167z" fill="url(#aac)"/><path d="M9.812 8.127c.183 0 .248 0 .266-.007 0-.025.007-.043.007-.06 0-.195-.093-.553-.467-.553-.344 0-.491.301-.527.62h.721zm-.728.492c.007.484.237.81.782.81.212 0 .395-.028.585-.11.025-.011.043-.008.043.024v.449c0 .036-.011.054-.036.072-.19.093-.427.136-.721.136-.947 0-1.302-.7-1.302-1.478 0-.847.437-1.539 1.209-1.539.782 0 1.054.656 1.054 1.191 0 .172-.01.312-.028.38-.008.029-.018.04-.047.047-.072.01-.283.025-.6.025h-.94v-.007zM7.16 8.253c-.1-.398-.344-1.266-.434-1.686H6.72c-.076.42-.273 1.13-.42 1.686h.861zm-1.008.581L5.87 9.907c-.008.028-.018.04-.054.04h-.528c-.035 0-.043-.012-.035-.055L6.27 6.33a1.1 1.1 0 00.036-.294c0-.025.011-.036.029-.036h.753c.025 0 .036.007.043.036L8.273 9.9c.007.028 0 .046-.029.046h-.591c-.03 0-.047-.01-.054-.036l-.294-1.076H6.153z" fill="#D8A1FF" fill-rule="nonzero"/></g></g></svg><view id="icon-audio-90" viewBox="16 0 16 16"/><svg width="16" height="16" viewBox="0 0 16 16" x="16" xmlns="http://www.w3.org/2000/svg"><defs><linearGradient x1="50%" y1="0%" x2="50%" y2="100%" id="abc"><stop stop-color="#C6E7F6" offset="0%"/><stop stop-color="#E1D1FE" offset="100%"/></linearGradient><linearGradient x1="50%" y1="0%" x2="50%" y2="100%" id="abd"><stop stop-color="#FFF" offset="0%"/><stop stop-color="#FFF" stop-opacity=".9" offset="100%"/></linearGradient><linearGradient x1="50%" y1="-45.345%" x2="50%" y2="138.901%" id="abe"><stop stop-color="#2BA6DE" offset="0%"/><stop stop-color="#9052FD" offset="100%"/></linearGradient><path id="aba" d="M0 0h16v16H0z"/></defs><g fill="none" fill-rule="evenodd"><mask id="abb" fill="#fff"><use xlink:href="#aba"/></mask><g mask="url(#abb)"><path d="M2.667 2.667v10.666c0 .369.298.667.666.667h9.334a.667.667 0 00.666-.667V2.667A.667.667 0 0012.667 2H3.333a.667.667 0 00-.666.667z" fill="url(#abc)"/><path d="M2.833 2.667v10.666a.5.5 0 00.5.5h9.334a.5.5 0 00.5-.5V2.667a.5.5 0 00-.5-.5H3.333a.5.5 0 00-.5.5z" fill="url(#abd)"/><path d="M7.424 6.94a.333.333 0 00-.257.324v2.62c0 .56-.376 1.052-.917 1.2l-.193.052a.573.573 0 01-.724-.553c0-.443.296-.832.723-.95l.533-.149a.333.333 0 00.244-.32V6.051c0-.32.228-.595.542-.655l2.365-.45a.5.5 0 01.593.49v3.78c0 .56-.375 1.052-.916 1.2l-.193.052a.573.573 0 01-.724-.552c0-.444.296-.832.723-.951l.533-.148A.333.333 0 0010 8.497V6.544a.167.167 0 00-.205-.162l-2.371.558z" fill="url(#abe)" opacity=".7"/></g></g></svg><view id="icon-backup-90" viewBox="0 16 16 16"/><svg width="16" height="16" viewBox="0 0 16 16" y="16" xmlns="http://www.w3.org/2000/svg"><defs><linearGradient x1="50%" y1="0%" x2="50%" y2="100%" id="acc"><stop stop-color="#FAFAFA" offset="0%"/><stop stop-color="#F9F9F9" offset="100%"/></linearGradient><path id="aca" d="M0 0h16v16H0z"/></defs><g fill="none" fill-rule="evenodd"><mask id="acb" fill="#fff"><use xlink:href="#aca"/></mask><g mask="url(#acb)" fill-rule="nonzero"><path d="M8.904 2.67c1.666.067 3.024 1.399 3.322 3.127l.026.177.094.024c1.304.37 2.261 1.639 2.318 3.143l.003.141c0 1.812-1.312 3.308-2.974 3.382l-.129.003H4.436c-1.723 0-3.103-1.526-3.103-3.385 0-1.578.987-2.922 2.342-3.291l.054-.014.01-.082c.15-1.002.923-1.786 1.89-1.843l.112-.003c.096 0 .19.007.284.021l.028.005.07-.091c.623-.783 1.521-1.27 2.5-1.314l.148-.003.133.002z" fill="url(#acc)"/><path d="M8.771 2.667l.133.002c1.666.068 3.024 1.4 3.322 3.128l.026.177.094.024c1.304.37 2.261 1.639 2.318 3.143l.003.141c0 1.812-1.312 3.308-2.974 3.382l-.129.003H4.436c-1.723 0-3.103-1.526-3.103-3.385 0-1.578.987-2.922 2.342-3.291l.054-.014.01-.082c.15-1.002.923-1.786 1.89-1.843l.112-.003c.096 0 .19.007.284.021l.028.005.07-.091c.623-.783 1.521-1.27 2.5-1.314l.148-.003zm0 .166l-.14.004c-.896.04-1.733.473-2.33 1.192l-.045.056-.132.172L6 4.235a1.76 1.76 0 00-.192-.018l-.062-.001-.108.003c-.857.05-1.567.736-1.725 1.646l-.008.051-.025.194-.162.042C2.425 6.505 1.5 7.793 1.5 9.282c0 1.758 1.287 3.186 2.882 3.217l.054.001h7.125l.125-.003c1.55-.068 2.786-1.455 2.814-3.153v-.059l-.003-.138c-.052-1.4-.926-2.598-2.136-2.97l-.057-.017-.201-.053-.042-.282C11.776 4.17 10.493 2.93 8.96 2.84L8.9 2.836l-.129-.003z" fill="#777"/><path d="M8.102 6.535l.016.014 2.167 2.166a.167.167 0 01-.22.25l-.016-.014L8.167 7.07v3.598a.167.167 0 01-.334 0V7.069L5.951 8.951a.167.167 0 01-.22.014l-.016-.014a.167.167 0 01-.013-.22l.013-.016L7.882 6.55a.167.167 0 01.22-.014z" fill="#777"/></g></g></svg><view id="icon-bucket-90" viewBox="16 16 16 16"/><svg width="16" height="16" viewBox="0 0 16 16" x="16" y="16" xmlns="http://www.w3.org/2000/svg"><defs><linearGradient x1="50%" y1="7.582%" x2="50%" y2="100%" id="adc"><stop stop-color="#FFF" offset="0%"/><stop stop-color="#FFF" stop-opacity=".9" offset="100%"/></linearGradient><path id="ada" d="M0 0h16v16H0z"/></defs><g fill="none" fill-rule="evenodd"><mask id="adb" fill="#fff"><use xlink:href="#ada"/></mask><g mask="url(#adb)"><g transform="translate(1.917 1.917)"><path d="M5.736 0c.355.002.704.01 1.023.025l.168.008c.139.008.276.016.41.026l.16.013.157.013.154.015c.179.018.352.038.521.06l.143.02c.874.127 1.608.32 2.202.577a.793.793 0 01.492.836l-.103.848c.558.288.934.718.934 1.16 0 .584-.452.959-1.218 1.137l-.709 5.72a1.588 1.588 0 01-1.145 1.33c-.888.253-2.003.379-3.342.379-1.337 0-2.448-.126-3.336-.379a1.588 1.588 0 01-1.145-1.33L.006 1.593A.814.814 0 01.51.746C1.211.442 2.122.23 3.239.112L3.39.097l.155-.015.158-.013.16-.012.081-.005.164-.01c.303-.019.618-.03.946-.037l.18-.003L5.51 0zm5.282 2.797l-.196 1.584c.54-.152.842-.417.842-.78 0-.269-.251-.573-.646-.804z" fill-opacity=".65" fill="#2BA6DE" fill-rule="nonzero"/><path d="M11.001 1.553v.02l-.351 2.851a4.206 4.206 0 01-.475.074l-.117.01a6.85 6.85 0 01-.573.02l-.138-.002c-1.119-.024-2.387-.275-3.282-.635a.507.507 0 00.018-.141.667.667 0 10-.167.441c.938.381 2.257.643 3.424.668l.139.002h.135l.133-.003.13-.004c.191-.01.373-.025.543-.05l.111-.017.074-.013-.7 5.664a1.421 1.421 0 01-1.026 1.19c-.87.248-1.97.372-3.296.372-1.323 0-2.419-.124-3.29-.372a1.421 1.421 0 01-1.026-1.19L.17 1.573.17 1.557c.61.542 2.803.943 5.414.943 2.617 0 4.813-.403 5.418-.947zM7.083 7.75a1.167 1.167 0 100 2.333 1.167 1.167 0 000-2.333zM4.417 5.583H2.083v2.334h2.334V5.583z" fill="url(#adc)" fill-rule="nonzero"/><ellipse fill-opacity=".8" fill="#FFF" cx="5.583" cy="1.25" rx="5.25" ry="1.083"/></g></g></g></svg><view id="icon-bucket-share-90" viewBox="32 0 16 16"/><svg width="16" height="16" fill="none" viewBox="0 0 16 16" x="32" xmlns="http://www.w3.org/2000/svg"><path d="M7.426 1.917h.226c.356.002.705.01 1.023.025l.168.008c.14.007.276.016.41.026l.16.012.157.014.155.015c.178.017.352.038.521.06l.143.02c.874.127 1.608.319 2.202.577a.793.793 0 01.492.836l-.105.847c.559.289.936.719.936 1.161 0 .585-.453.959-1.22 1.137l-.707 5.72a1.588 1.588 0 01-1.146 1.33c-.887.252-2.002.378-3.341.378-1.338 0-2.448-.125-3.336-.378a1.588 1.588 0 01-1.146-1.33L1.923 3.51a.814.814 0 01.503-.847c.701-.304 1.613-.516 2.729-.634l.153-.016L5.463 2l.158-.013.16-.012.081-.006.164-.01c.303-.018.618-.03.946-.036l.18-.003.274-.002zm5.508 2.796l-.196 1.585c.54-.152.843-.418.843-.78 0-.269-.252-.573-.647-.805z" fill="#2BA6DE" fill-opacity=".65"/><path d="M12.917 3.49l-.352 2.851a4.209 4.209 0 01-.473.074l-.117.01c-.179.014-.37.02-.574.02l-.137-.002c-1.118-.024-2.385-.275-3.28-.634a.667.667 0 10-.15.298c.938.382 2.257.644 3.423.67l.138.001h.136l.132-.003.13-.004c.192-.01.373-.026.543-.05l.112-.017.074-.013-.7 5.664a1.421 1.421 0 01-1.026 1.19c-.871.247-1.971.372-3.296.372-1.323 0-2.419-.124-3.29-.372a1.421 1.421 0 01-1.026-1.19L2.088 3.49l-.001-.016c.611.542 2.803.943 5.413.943 2.618 0 4.816-.404 5.42-.948a.302.302 0 01-.003.02z" fill="url(#aepaint0_linear_393_5697)"/><path d="M7.5 4.25c2.9 0 5.25-.485 5.25-1.083S10.4 2.084 7.5 2.084s-5.25.485-5.25 1.083S4.6 4.25 7.5 4.25z" fill="#fff" fill-opacity=".8"/><path d="M11.333 14.667a3 3 0 100-6 3 3 0 000 6z" fill="#2BA6DE"/><rect x="9.667" y="10.333" width=".333" height="2.667" rx=".167" fill="#fff"/><rect x="13" y="11.5" width=".333" height="2.5" rx=".167" transform="rotate(90 13 11.5)" fill="#fff"/><path fill-rule="evenodd" clip-rule="evenodd" d="M11.882 10.549a.167.167 0 01.236 0l1 1a.167.167 0 010 .236l-1 1a.167.167 0 11-.236-.236l.882-.882-.882-.883a.167.167 0 010-.235z" fill="#fff"/><defs><linearGradient id="aepaint0_linear_393_5697" x1="7.503" y1="4.261" x2="7.503" y2="13.917" gradientUnits="userSpaceOnUse"><stop stop-color="#fff"/><stop offset="1" stop-color="#fff" stop-opacity=".9"/></linearGradient></defs></svg><view id="icon-cad-90" viewBox="32 16 16 16"/><svg width="16" height="16" viewBox="0 0 16 16" x="32" y="16" xmlns="http://www.w3.org/2000/svg"><defs><linearGradient x1="50%" y1="0%" x2="50%" y2="100%" id="afc"><stop stop-color="#FFF" offset="0%"/><stop stop-color="#FFF" stop-opacity=".9" offset="100%"/></linearGradient><path id="afa" d="M0 0h16v16H0z"/></defs><g fill="none" fill-rule="evenodd"><mask id="afb" fill="#fff"><use xlink:href="#afa"/></mask><g mask="url(#afb)"><path d="M2.667 2.667v10.666c0 .369.298.667.666.667h9.334a.667.667 0 00.666-.667V2.667A.667.667 0 0012.667 2H3.333a.667.667 0 00-.666.667z" fill="#FDCDCD"/><path d="M2.833 2.667v10.666a.5.5 0 00.5.5h9.334a.5.5 0 00.5-.5V2.667a.5.5 0 00-.5-.5H3.333a.5.5 0 00-.5.5z" fill="url(#afc)"/><path d="M6.5 7.167h6.667v6.166a.5.5 0 01-.5.5H6.5V7.167z" fill-opacity=".1" fill="#F0373A"/><path fill-opacity=".3" fill="#F0373A" d="M6.5 7.833h.167v6H6.5z"/><path fill="#F0373A" opacity=".2" d="M6.5 2.167h.167v4.5H6.5zM2.833 7.167H6v.166H2.833z"/><path d="M6.333 6.667h.5c.184 0 .334.149.334.333v.5c0 .184-.15.333-.334.333h-.5A.333.333 0 016 7.5V7c0-.184.15-.333.333-.333z" fill="#F0373A"/><path d="M6.333 6.833h.5c.092 0 .167.075.167.167v.5a.167.167 0 01-.167.167h-.5a.167.167 0 01-.166-.167V7c0-.092.074-.167.166-.167z" fill="#FFF"/><path fill="#F0373A" opacity=".3" d="M7.167 7.167h6v.166h-6z"/></g></g></svg><view id="icon-compressed-90" viewBox="0 32 16 16"/><svg width="16" height="16" viewBox="0 0 16 16" y="32" xmlns="http://www.w3.org/2000/svg"><defs><linearGradient x1="50%" y1="0%" x2="50%" y2="100%" id="agc"><stop stop-color="#FFF" offset="0%"/><stop stop-color="#FFF" stop-opacity=".9" offset="100%"/></linearGradient><linearGradient x1="50%" y1="0%" x2="50%" y2="100%" id="agd"><stop stop-color="#AAA" offset="0%"/><stop stop-color="#777" offset="100%"/></linearGradient><path id="aga" d="M0 0h16v16H0z"/></defs><g fill="none" fill-rule="evenodd"><mask id="agb" fill="#fff"><use xlink:href="#aga"/></mask><g mask="url(#agb)"><path d="M2.667 2.667v10.666c0 .369.298.667.666.667h9.334a.667.667 0 00.666-.667V2.667A.667.667 0 0012.667 2H3.333a.667.667 0 00-.666.667z" fill="#CCC"/><path d="M2.833 2.667v10.666a.5.5 0 00.5.5h9.334a.5.5 0 00.5-.5V2.667a.5.5 0 00-.5-.5H3.333a.5.5 0 00-.5.5z" fill="url(#agc)"/><path d="M7.167 2.167h1.666v8.166a.833.833 0 11-1.666 0V2.167z" fill="url(#agd)"/><path fill="#FFF" d="M7.333 2.167h1.334V2.5H7.333zM7.333 2.667h1.334V3H7.333zM7.333 3.167h1.334V3.5H7.333zM7.333 3.667h1.334V4H7.333zM7.333 4.167h1.334V4.5H7.333zM7.333 4.667h1.334V5H7.333zM7.333 5.167h1.334V5.5H7.333zM7.333 5.667h1.334V6H7.333zM7.333 6.167h1.334V6.5H7.333zM7.333 6.667h1.334V7H7.333zM7.333 7.167h1.334V7.5H7.333zM7.333 7.667h1.334V8H7.333zM7.333 8.167h1.334V8.5H7.333z"/><path d="M8.5 8.667c.092 0 .167.074.167.166v1.5a.667.667 0 11-1.334 0v-1.5c0-.092.075-.166.167-.166h1zm-.167.166h-.666a.167.167 0 00-.166.148L7.5 9v.167c0 .085.064.156.147.165l.02.001h.666a.167.167 0 00.166-.147l.001-.02V9a.167.167 0 00-.147-.166h-.02z" fill="#FFF" opacity=".8"/></g></g></svg><view id="icon-dmg-90" viewBox="16 32 16 16"/><svg width="16" height="16" viewBox="0 0 16 16" x="16" y="32" xmlns="http://www.w3.org/2000/svg"><defs><linearGradient x1="50%" y1="100%" x2="50%" y2="2.407%" id="ahc"><stop stop-color="#FFF" stop-opacity="0" offset="0%"/><stop stop-color="#FFF" stop-opacity=".5" offset="100%"/></linearGradient><linearGradient x1="0%" y1="50%" x2="98.239%" y2="50%" id="ahd"><stop offset="0%"/><stop stop-opacity="0" offset="10.409%"/><stop stop-opacity="0" offset="91.795%"/><stop offset="100%"/></linearGradient><path id="aha" d="M0 0h16v16H0z"/></defs><g fill="none" fill-rule="evenodd"><mask id="ahb" fill="#fff"><use xlink:href="#aha"/></mask><g mask="url(#ahb)"><path d="M4.385 2.5h7.23a1 1 0 01.993.878l.88 7.188c.008.067.012.135.012.202V12.5a1 1 0 01-1 1h-9a1 1 0 01-1-1v-1.732c0-.067.004-.135.012-.202l.88-7.188a1 1 0 01.993-.878z" fill="#CCC"/><path d="M4.402 2.667h7.196c.42 0 .774.313.827.73l.908 7.27V12.5c0 .46-.373.833-.833.833h-9a.833.833 0 01-.833-.833v-1.833l.908-7.27a.833.833 0 01.827-.73z" fill="url(#ahc)"/><path d="M13.328 12.596l-.002.011a.838.838 0 00.007-.07V11.166a.833.833 0 00-.797-.833H3.5a.833.833 0 00-.833.797v.036-.5l.075-.604a.833.833 0 01.827-.73h8.862c.42 0 .775.313.827.73l.075.604V12.5a.842.842 0 01-.005.096z" fill="#FFF" opacity=".8"/><path d="M4.402 2.667h7.196c.42 0 .774.313.827.73l.908 7.27V12.5c0 .46-.373.833-.833.833h-9a.833.833 0 01-.833-.833v-1.833l.908-7.27a.833.833 0 01.827-.73z" fill="url(#ahd)" opacity=".15"/><path d="M3.5 10.5h9c.46 0 .833.373.833.833V12.5c0 .46-.373.833-.833.833h-9a.833.833 0 01-.833-.833v-1.167c0-.46.373-.833.833-.833z" fill="#EDEDED"/><path d="M4.25 11.667h7.5a.25.25 0 110 .5h-7.5a.25.25 0 110-.5z" fill-opacity=".4" fill="#333"/></g></g></svg><view id="icon-ex-drive-90" viewBox="32 32 16 16"/><svg width="16" height="16" viewBox="0 0 16 16" x="32" y="32" xmlns="http://www.w3.org/2000/svg"><defs><linearGradient x1="50%" y1="0%" x2="50%" y2="100%" id="aic"><stop stop-color="#FAFAFA" offset="0%"/><stop stop-color="#F9F9F9" offset="100%"/></linearGradient><linearGradient x1="50%" y1="0%" x2="50%" y2="138.898%" id="aid"><stop stop-color="#F9F9F9" offset="0%"/><stop stop-color="#E2E2E2" offset="100%"/></linearGradient><path id="aia" d="M0 0h16v16H0z"/></defs><g fill="none" fill-rule="evenodd"><mask id="aib" fill="#fff"><use xlink:href="#aia"/></mask><g mask="url(#aib)"><path d="M4 2h8c.736 0 1.333.597 1.333 1.333v9.334c0 .736-.597 1.333-1.333 1.333H4a1.333 1.333 0 01-1.333-1.333V3.333C2.667 2.597 3.264 2 4 2z" fill="url(#aic)"/><path d="M12 11c.736 0 1.333.597 1.333 1.333v.334c0 .736-.597 1.333-1.333 1.333H4a1.333 1.333 0 01-1.333-1.333v-.334C2.667 11.597 3.264 11 4 11h8zm0 .167H4c-.63 0-1.145.5-1.166 1.126v.374c0 .63.5 1.145 1.126 1.166H12c.63 0 1.145-.5 1.166-1.126v-.374c0-.63-.5-1.145-1.126-1.166H12z" fill="#777" fill-rule="nonzero"/><path d="M12 2c.736 0 1.333.597 1.333 1.333v9.334c0 .736-.597 1.333-1.333 1.333H4a1.333 1.333 0 01-1.333-1.333V3.333C2.667 2.597 3.264 2 4 2h8zm0 .167H4c-.63 0-1.145.5-1.166 1.126V12.667c0 .63.5 1.145 1.126 1.166H12c.63 0 1.145-.5 1.166-1.126V3.333c0-.63-.5-1.145-1.126-1.166H12z" fill="#777" fill-rule="nonzero"/><path d="M12 11.167H4c-.63 0-1.145.5-1.166 1.126v.374c0 .63.5 1.145 1.126 1.166H12c.63 0 1.145-.5 1.166-1.126v-.374c0-.63-.5-1.145-1.126-1.166H12z" fill="url(#aid)" fill-rule="nonzero"/><path d="M7.833 3.667L8.667 5H8v2.205l1.333-.8V6H9V5h1v1h-.333v.594L8 7.594v1.101a.5.5 0 01.332.442l.001.03a.5.5 0 11-.666-.472V8.26l-1.334-.833v-.788a.5.5 0 11.334 0v.603l1 .625V5H7l.833-1.333zM9.833 12.333H11.5a.167.167 0 110 .334H9.833a.167.167 0 010-.334z" fill="#777"/></g></g></svg><view id="icon-excel-90" viewBox="48 0 16 16"/><svg width="16" height="16" viewBox="0 0 16 16" x="48" xmlns="http://www.w3.org/2000/svg"><defs><linearGradient x1="50%" y1="0%" x2="50%" y2="100%" id="ajc"><stop stop-color="#FFF" offset="0%"/><stop stop-color="#FFF" stop-opacity=".9" offset="100%"/></linearGradient><path id="aja" d="M0 0h16v16H0z"/></defs><g fill="none" fill-rule="evenodd"><mask id="ajb" fill="#fff"><use xlink:href="#aja"/></mask><g mask="url(#ajb)"><path d="M2.667 2.667v10.666c0 .369.298.667.666.667h9.334a.667.667 0 00.666-.667V2.667A.667.667 0 0012.667 2H3.333a.667.667 0 00-.666.667z" fill="#BBD9CA"/><path d="M2.833 2.667v10.666a.5.5 0 00.5.5h9.334a.5.5 0 00.5-.5V2.667a.5.5 0 00-.5-.5H3.333a.5.5 0 00-.5.5z" fill="url(#ajc)"/><path d="M4.833 10.667H6.5c.092 0 .167.074.167.166v1A.167.167 0 016.5 12H4.833a.167.167 0 01-.166-.167v-1c0-.092.074-.166.166-.166zM7.167 10.667h1.666c.092 0 .167.074.167.166v1a.167.167 0 01-.167.167H7.167A.167.167 0 017 11.833v-1c0-.092.075-.166.167-.166zM9.5 10.667h1.667c.092 0 .166.074.166.166v1a.167.167 0 01-.166.167H9.5a.167.167 0 01-.167-.167v-1c0-.092.075-.166.167-.166zM4.833 9H6.5c.092 0 .167.075.167.167v1a.167.167 0 01-.167.166H4.833a.167.167 0 01-.166-.166v-1c0-.092.074-.167.166-.167zM7.167 9h1.666c.092 0 .167.075.167.167v1a.167.167 0 01-.167.166H7.167A.167.167 0 017 10.167v-1C7 9.075 7.075 9 7.167 9zM9.5 9h1.667c.092 0 .166.075.166.167v1a.167.167 0 01-.166.166H9.5a.167.167 0 01-.167-.166v-1c0-.092.075-.167.167-.167zM4.833 7.333H6.5c.092 0 .167.075.167.167v1a.167.167 0 01-.167.167H4.833a.167.167 0 01-.166-.167v-1c0-.092.074-.167.166-.167zM7.167 7.333h1.666c.092 0 .167.075.167.167v1a.167.167 0 01-.167.167H7.167A.167.167 0 017 8.5v-1c0-.092.075-.167.167-.167zM9.5 7.333h1.667c.092 0 .166.075.166.167v1a.167.167 0 01-.166.167H9.5a.167.167 0 01-.167-.167v-1c0-.092.075-.167.167-.167zM4.833 5.667H6.5c.092 0 .167.074.167.166v1A.167.167 0 016.5 7H4.833a.167.167 0 01-.166-.167v-1c0-.092.074-.166.166-.166zM7.167 5.667h1.666c.092 0 .167.074.167.166v1A.167.167 0 018.833 7H7.167A.167.167 0 017 6.833v-1c0-.092.075-.166.167-.166zM9.5 5.667h1.667c.092 0 .166.074.166.166v1a.167.167 0 01-.166.167H9.5a.167.167 0 01-.167-.167v-1c0-.092.075-.166.167-.166zM4.833 4H6.5c.092 0 .167.075.167.167v1a.167.167 0 01-.167.166H4.833a.167.167 0 01-.166-.166v-1c0-.092.074-.167.166-.167zM7.167 4h1.666c.092 0 .167.075.167.167v1a.167.167 0 01-.167.166H7.167A.167.167 0 017 5.167v-1C7 4.075 7.075 4 7.167 4zM9.5 4h1.667c.092 0 .166.075.166.167v1a.167.167 0 01-.166.166H9.5a.167.167 0 01-.167-.166v-1c0-.092.075-.167.167-.167zM1.667 4H4c.184 0 .333.15.333.333v2.334C4.333 6.85 4.184 7 4 7H1.667a.333.333 0 01-.334-.333V4.333c0-.184.15-.333.334-.333z" fill="#348E62"/><path d="M3.833 6.5h-.576l-.372-.651a.542.542 0 01-.043-.134h-.006a.962.962 0 01-.05.14l-.373.645h-.58l.688-1-.629-1h.591l.309.6a.988.988 0 01.065.168h.006a1.94 1.94 0 01.067-.174l.344-.594h.541l-.647.992.665 1.008z" fill="#FFF"/></g></g></svg><view id="icon-executable-90" viewBox="48 16 16 16"/><svg width="16" height="16" viewBox="0 0 16 16" x="48" y="16" xmlns="http://www.w3.org/2000/svg"><defs><linearGradient x1="50%" y1="0%" x2="50%" y2="100%" id="akc"><stop stop-color="#FFF" offset="0%"/><stop stop-color="#FFF" stop-opacity=".9" offset="100%"/></linearGradient><linearGradient x1="50%" y1="0%" x2="50%" y2="100%" id="akd"><stop stop-color="#BBB" offset="0%"/><stop stop-color="#AAA" offset="100%"/></linearGradient><path id="aka" d="M0 0h16v16H0z"/></defs><g fill="none" fill-rule="evenodd"><mask id="akb" fill="#fff"><use xlink:href="#aka"/></mask><g mask="url(#akb)"><path d="M2.667 2.667v10.666c0 .369.298.667.666.667h9.334a.667.667 0 00.666-.667V2.667A.667.667 0 0012.667 2H3.333a.667.667 0 00-.666.667z" fill="#CCC"/><path d="M2.833 2.667v10.666a.5.5 0 00.5.5h9.334a.5.5 0 00.5-.5V2.667a.5.5 0 00-.5-.5H3.333a.5.5 0 00-.5.5z" fill="url(#akc)"/><path d="M8 8.833a.834.834 0 110-1.667.834.834 0 010 1.667zm3.333-1.003a.499.499 0 00-.49-.497h-.492a2.527 2.527 0 00-.218-.524l.348-.348a.5.5 0 00-.003-.699l-.24-.24a.5.5 0 00-.7-.003l-.347.348a2.527 2.527 0 00-.524-.218v-.491a.5.5 0 00-.497-.491h-.34a.499.499 0 00-.497.49v.492c-.184.053-.36.127-.524.218l-.348-.348a.5.5 0 00-.699.003l-.24.24a.5.5 0 00-.003.7l.348.347c-.091.164-.165.34-.218.524h-.491a.5.5 0 00-.491.497v.34c0 .274.227.497.49.497h.492c.053.184.127.36.218.524l-.348.348a.5.5 0 00.003.699l.24.24a.5.5 0 00.7.003l.347-.348c.164.091.34.165.524.218v.491a.5.5 0 00.497.491h.34a.499.499 0 00.497-.49v-.492c.184-.053.36-.127.524-.218l.348.348a.5.5 0 00.699-.003l.24-.24a.5.5 0 00.003-.7l-.348-.347c.091-.164.165-.34.218-.524h.491a.5.5 0 00.491-.497v-.34z" fill="url(#akd)"/><path d="M8 6.5a1.5 1.5 0 110 3 1.5 1.5 0 010-3zm0 .667a.833.833 0 100 1.666.833.833 0 000-1.666z" fill-opacity=".3" fill="#000"/></g></g></svg><view id="icon-experiencedesign-90" viewBox="48 32 16 16"/><svg width="16" height="16" viewBox="0 0 16 16" x="48" y="32" xmlns="http://www.w3.org/2000/svg"><defs><linearGradient x1="50%" y1="0%" x2="50%" y2="95.436%" id="alc"><stop stop-color="#2E001E" stop-opacity=".9" offset="0%"/><stop stop-color="#2E001E" offset="100%"/></linearGradient><path id="ala" d="M0 0h16v16H0z"/></defs><g fill="none" fill-rule="evenodd"><mask id="alb" fill="#fff"><use xlink:href="#ala"/></mask><g mask="url(#alb)"><path d="M3 2h10c.184 0 .333.15.333.333v11.334c0 .184-.149.333-.333.333H3a.333.333 0 01-.333-.333V2.333C2.667 2.15 2.816 2 3 2z" fill="#FF2BC2"/><path d="M3.333 2.5h9.334c.092 0 .166.075.166.167v10.666a.167.167 0 01-.166.167H3.333a.167.167 0 01-.166-.167V2.667c0-.092.074-.167.166-.167z" fill="url(#alc)"/><path d="M10.07 7.57a.504.504 0 00-.212-.036c-.463 0-.77.356-.77.947 0 .675.315.947.726.947a.692.692 0 00.253-.04V7.57h.004zm-1.643.94c0-.855.55-1.523 1.453-1.523.077 0 .117 0 .19.007V6.04c0-.022.02-.036.037-.036h.591c.03 0 .037.01.037.029v3.354c0 .1 0 .224.018.36 0 .025 0 .03-.022.04a2.186 2.186 0 01-.94.213c-.796 0-1.364-.492-1.364-1.49zm-1.252-.594l1.028 1.992c.018.03.007.059-.022.059h-.639c-.04 0-.058-.011-.077-.048a158.64 158.64 0 01-.72-1.508H6.74c-.22.492-.463 1.028-.698 1.512-.018.03-.036.04-.066.04h-.609c-.037 0-.04-.029-.022-.051L6.35 7.978l-.973-1.923c-.022-.03 0-.055.026-.055h.631c.037 0 .055.007.066.04.231.488.466.97.686 1.46h.008c.212-.483.447-.972.671-1.452.019-.03.03-.048.066-.048h.591c.03 0 .04.022.022.055l-.969 1.86z" fill="#FF2BC2" fill-rule="nonzero"/></g></g></svg><view id="icon-folder-90" viewBox="0 48 16 16"/><svg width="16" height="16" viewBox="0 0 16 16" y="48" xmlns="http://www.w3.org/2000/svg"><defs><path id="ama" d="M0 0h16v16H0z"/></defs><g fill="none" fill-rule="evenodd"><mask id="amb" fill="#fff"><use xlink:href="#ama"/></mask><g mask="url(#amb)"><path d="M2 4.667h12v8a.667.667 0 01-.667.666H2.667A.667.667 0 012 12.667v-8z" fill="#F8E9B1"/><path d="M2.667 2.667H6.72c.39 0 .76.17 1.012.465l.202.236c.254.295.623.465 1.013.465h4.386c.369 0 .667.299.667.667V5H2V3.333c0-.368.298-.666.667-.666z" fill="#F5DF8E"/><path d="M6.781 2.667c.354 0 .693.14.943.39l.219.22c.25.25.589.39.943.39h4.447c.369 0 .667.298.667.666v8.334a.667.667 0 01-.667.666H2.667A.667.667 0 012 12.667V3.333c0-.368.298-.666.667-.666H6.78zm0 .166H2.667a.5.5 0 00-.5.471v9.363a.5.5 0 00.47.499h10.696a.5.5 0 00.5-.47V4.333a.5.5 0 00-.47-.499H8.886a1.5 1.5 0 01-1.024-.404l-.037-.036-.219-.219a1.167 1.167 0 00-.774-.34l-.051-.002z" fill="#EBC01E" fill-rule="nonzero"/><path fill="#EBC01E" d="M2 4.833h12V5H2z"/></g></g></svg><view id="icon-folder-backup-90" viewBox="16 48 16 16"/><svg width="16" height="16" fill="none" viewBox="0 0 16 16" x="16" y="48" xmlns="http://www.w3.org/2000/svg"><path fill-rule="evenodd" clip-rule="evenodd" d="M2 4.667h12v8a.667.667 0 01-.667.666H2.667A.667.667 0 012 12.667v-8z" fill="#F8E9B1"/><path fill-rule="evenodd" clip-rule="evenodd" d="M2.667 2.667H6.75c.372 0 .727.155.98.429l.207.225c.253.273.608.429.98.429h4.416c.368 0 .667.298.667.667v.416H2v-1.5c0-.368.298-.666.667-.666z" fill="#F5DF8E"/><path fill-rule="evenodd" clip-rule="evenodd" d="M7.724 3.057c-.25-.25-.59-.39-.943-.39H2.667A.667.667 0 002 3.333v9.334c0 .368.298.666.667.666h10.666a.667.667 0 00.667-.666V4.333a.667.667 0 00-.667-.666H8.886c-.354 0-.693-.14-.943-.39l-.22-.22zm-5.057-.224H6.78l.051.001c.291.013.567.134.774.341l.219.219.037.036a1.5 1.5 0 001.024.403h4.447l.03.001a.5.5 0 01.47.5v8.363a.5.5 0 01-.5.47H2.667l-.03-.001a.5.5 0 01-.47-.5V3.305a.5.5 0 01.5-.47z" fill="#EBC01E"/><path fill-rule="evenodd" clip-rule="evenodd" d="M2 4.667h12v.166H2v-.166z" fill="#EBC01E"/><path fill-rule="evenodd" clip-rule="evenodd" d="M10.116 8.316a1.727 1.727 0 00-3.192-.834h-.056a.813.813 0 00-.814.804v.03a1.522 1.522 0 00.305 3.013H9.914a1.522 1.522 0 00.202-3.013zm-.928.931a.252.252 0 01-.334.034l-.02-.017-.5-.453v1.518a.25.25 0 11-.5 0V8.811l-.5.453a.25.25 0 01-.333 0l-.018-.018a.252.252 0 010-.334L7 8.894l.917-.833a.25.25 0 01.316-.017l.02.017.917.833a.25.25 0 01.017.353z" fill="#DC9A0B"/></svg><view id="icon-folder-camera-uploads-90" viewBox="32 48 16 16"/><svg width="16" height="16" viewBox="0 0 16 16" x="32" y="48" xmlns="http://www.w3.org/2000/svg"><defs><path id="aoa" d="M0 0h16v16H0z"/></defs><g fill="none" fill-rule="evenodd"><mask id="aob" fill="#fff"><use xlink:href="#aoa"/></mask><g mask="url(#aob)"><path d="M2 4.667h12v8a.667.667 0 01-.667.666H2.667A.667.667 0 012 12.667v-8z" fill="#F8E9B1"/><path d="M2.667 2.667H6.75c.372 0 .727.155.98.429l.207.225c.253.273.608.429.98.429h4.416c.369 0 .667.298.667.667v.416H2v-1.5c0-.368.298-.666.667-.666z" fill="#F5DF8E"/><path d="M6.781 2.667c.354 0 .693.14.943.39l.219.22c.25.25.589.39.943.39h4.447c.369 0 .667.298.667.666v8.334a.667.667 0 01-.667.666H2.667A.667.667 0 012 12.667V3.333c0-.368.298-.666.667-.666H6.78zm0 .166H2.667a.5.5 0 00-.5.471v9.363a.5.5 0 00.47.499h10.696a.5.5 0 00.5-.47V4.333a.5.5 0 00-.47-.499H8.886a1.5 1.5 0 01-1.024-.404l-.037-.036-.219-.219a1.167 1.167 0 00-.774-.34l-.051-.002z" fill="#EBC01E" fill-rule="nonzero"/><path fill="#EBC01E" d="M2 4.667h12v.166H2z"/><path d="M8.6 6.5c.22 0 .445.446.6.604h1.2c.44 0 .6.156.6.604v3.021c0 .448-.16.604-.6.604H5.6c-.44 0-.6-.156-.6-.604V7.71c0-.449.16-.605.6-.605h1.2c.155-.158.38-.604.6-.604zM8 7.708c-.829 0-1.5.676-1.5 1.51 0 .835.671 1.511 1.5 1.511s1.5-.676 1.5-1.51c0-.835-.671-1.51-1.5-1.51zm0 .604c.497 0 .9.407.9.907s-.403.906-.9.906a.903.903 0 01-.9-.906c0-.5.403-.906.9-.906z" fill="#DC9A0B"/></g></g></svg><view id="icon-folder-chat-90" viewBox="48 48 16 16"/><svg width="16" height="16" viewBox="0 0 16 16" x="48" y="48" xmlns="http://www.w3.org/2000/svg"><defs><path id="apa" d="M0 0h16v16H0z"/></defs><g fill="none" fill-rule="evenodd"><mask id="apb" fill="#fff"><use xlink:href="#apa"/></mask><g mask="url(#apb)"><path d="M2 4.667h12v8a.667.667 0 01-.667.666H2.667A.667.667 0 012 12.667v-8z" fill="#F8E9B1"/><path d="M2.667 2.667H6.75c.372 0 .727.155.98.429l.207.225c.253.273.608.429.98.429h4.416c.369 0 .667.298.667.667v.416H2v-1.5c0-.368.298-.666.667-.666z" fill="#F5DF8E"/><path d="M6.781 2.667c.354 0 .693.14.943.39l.219.22c.25.25.589.39.943.39h4.447c.369 0 .667.298.667.666v8.334a.667.667 0 01-.667.666H2.667A.667.667 0 012 12.667V3.333c0-.368.298-.666.667-.666H6.78zm0 .166H2.667a.5.5 0 00-.5.471v9.363a.5.5 0 00.47.499h10.696a.5.5 0 00.5-.47V4.333a.5.5 0 00-.47-.499H8.886a1.5 1.5 0 01-1.024-.404l-.037-.036-.219-.219a1.167 1.167 0 00-.774-.34l-.051-.002z" fill="#EBC01E" fill-rule="nonzero"/><path fill="#EBC01E" d="M2 4.667h12v.166H2z"/><path d="M11.167 9.833c0 .42-.14.805-.377 1.114a.02.02 0 00.002.005.423.423 0 00-.084.256c0 .243.189.441.427.458h.001c-.35 0-.67-.087-.913-.23a1.825 1.825 0 01-1.975-.124 2.996 2.996 0 001.522-3.26c.801.196 1.397.919 1.397 1.781z" fill="#DC9A0B" opacity=".7"/><path d="M7 6.333a2.333 2.333 0 11-1.107 4.388A2.699 2.699 0 014.667 11l.009-.019a.666.666 0 00.333-1.102A2.333 2.333 0 017 6.333z" fill="#DC9A0B"/></g></g></svg><view id="icon-folder-incoming-90" viewBox="64 0 16 16"/><svg width="16" height="16" viewBox="0 0 16 16" x="64" xmlns="http://www.w3.org/2000/svg"><defs><path id="aqa" d="M0 0h16v16H0z"/></defs><g fill="none" fill-rule="evenodd"><mask id="aqb" fill="#fff"><use xlink:href="#aqa"/></mask><g mask="url(#aqb)"><path d="M2 4.667h12v8a.667.667 0 01-.667.666H2.667A.667.667 0 012 12.667v-8z" fill="#FAEBB6"/><path d="M2.667 2.667H6.75c.372 0 .727.155.98.429l.207.225c.253.273.608.429.98.429h4.416c.369 0 .667.298.667.667v.416H2v-1.5c0-.368.298-.666.667-.666z" fill="#F5DF8E"/><path d="M6.781 2.667c.354 0 .693.14.943.39l.219.22c.25.25.589.39.943.39h4.447c.369 0 .667.298.667.666v8.334a.667.667 0 01-.667.666H2.667A.667.667 0 012 12.667V3.333c0-.368.298-.666.667-.666H6.78zm0 .166H2.667a.5.5 0 00-.5.471v9.363a.5.5 0 00.47.499h10.696a.5.5 0 00.5-.47V4.333a.5.5 0 00-.47-.499H8.886a1.5 1.5 0 01-1.024-.404l-.037-.036-.219-.219a1.167 1.167 0 00-.774-.34l-.051-.002z" fill="#EBC01E" fill-rule="nonzero"/><path fill="#EBC01E" d="M2 4.667h12v.166H2z"/><path d="M11.917 6.833a.25.25 0 01.25.25v3.834a.25.25 0 11-.5 0V7.083a.25.25 0 01.25-.25zm-6.256.31a.25.25 0 01.046.331l-.016.02-.987 1.173h5.713a.25.25 0 110 .5H4.704l.987 1.172a.25.25 0 01-.011.335l-.019.017a.25.25 0 01-.335-.011l-.017-.019-1.334-1.583a.25.25 0 01-.014-.303l.014-.02L5.31 7.173a.25.25 0 01.352-.03z" fill="#DC9A0B" fill-rule="nonzero"/></g></g></svg><view id="icon-folder-outgoing-90" viewBox="64 16 16 16"/><svg width="16" height="16" viewBox="0 0 16 16" x="64" y="16" xmlns="http://www.w3.org/2000/svg"><defs><path id="ara" d="M0 0h16v16H0z"/></defs><g fill="none" fill-rule="evenodd"><mask id="arb" fill="#fff"><use xlink:href="#ara"/></mask><g mask="url(#arb)"><path d="M2 4.667h12v8a.667.667 0 01-.667.666H2.667A.667.667 0 012 12.667v-8z" fill="#F8E9B1"/><path d="M2.667 2.667H6.75c.372 0 .727.155.98.429l.207.225c.253.273.608.429.98.429h4.416c.369 0 .667.298.667.667v.416H2v-1.5c0-.368.298-.666.667-.666z" fill="#F5DF8E"/><path d="M6.781 2.667c.354 0 .693.14.943.39l.219.22c.25.25.589.39.943.39h4.447c.369 0 .667.298.667.666v8.334a.667.667 0 01-.667.666H2.667A.667.667 0 012 12.667V3.333c0-.368.298-.666.667-.666H6.78zm0 .166H2.667a.5.5 0 00-.5.471v9.363a.5.5 0 00.47.499h10.696a.5.5 0 00.5-.47V4.333a.5.5 0 00-.47-.499H8.886a1.5 1.5 0 01-1.024-.404l-.037-.036-.219-.219a1.167 1.167 0 00-.774-.34l-.051-.002z" fill="#EBC01E" fill-rule="nonzero"/><path fill="#EBC01E" d="M2 4.667h12v.166H2z"/><path d="M4.083 11.167a.25.25 0 01-.25-.25V7.083a.25.25 0 01.5 0v3.834a.25.25 0 01-.25.25zm6.34-.31a.25.25 0 01-.046-.331l.015-.02.987-1.173H5.667a.25.25 0 110-.5h5.712l-.987-1.172a.25.25 0 01.012-.335l.018-.017a.25.25 0 01.335.011l.018.019 1.333 1.583a.25.25 0 01.015.303l-.015.02-1.333 1.583a.25.25 0 01-.353.03z" fill="#DC9A0B" fill-rule="nonzero"/></g></g></svg><view id="icon-folder-public-90" viewBox="64 32 16 16"/><svg width="16" height="16" fill="none" viewBox="0 0 16 16" x="64" y="32" xmlns="http://www.w3.org/2000/svg"><path fill-rule="evenodd" clip-rule="evenodd" d="M2 4.667h12v8a.667.667 0 01-.667.666H2.667A.667.667 0 012 12.667v-8z" fill="#FAEBB6"/><path d="M3.333 8.25a.25.25 0 01.25-.25h3.5a.25.25 0 01.25.25v3.5a.25.25 0 11-.5 0V8.854L3.76 11.927a.25.25 0 01-.353-.354L6.48 8.5H3.583a.25.25 0 01-.25-.25z" fill="#DC9A0B"/><path fill-rule="evenodd" clip-rule="evenodd" d="M2.667 2.667H6.75c.372 0 .727.155.98.429l.207.225c.253.273.608.429.98.429h4.416c.368 0 .667.298.667.667v.416H2v-1.5c0-.368.298-.666.667-.666z" fill="#F5DF8E"/><path fill-rule="evenodd" clip-rule="evenodd" d="M7.724 3.057c-.25-.25-.59-.39-.943-.39H2.667A.667.667 0 002 3.333v9.334c0 .368.298.666.667.666h10.666a.667.667 0 00.667-.666V4.333a.667.667 0 00-.667-.666H8.886c-.354 0-.693-.14-.943-.39l-.22-.22zm-5.057-.224H6.78l.051.001c.291.013.567.134.774.341l.219.219.037.036a1.5 1.5 0 001.024.403h4.447l.03.001a.5.5 0 01.47.5v8.363a.5.5 0 01-.5.47H2.667l-.03-.001a.5.5 0 01-.47-.5V3.305a.5.5 0 01.5-.47z" fill="#EBC01E"/><path fill-rule="evenodd" clip-rule="evenodd" d="M2 4.667h12v.166H2v-.166z" fill="#EBC01E"/></svg><view id="icon-folder-sync-90" viewBox="64 48 16 16"/><svg width="16" height="16" viewBox="0 0 16 16" x="64" y="48" xmlns="http://www.w3.org/2000/svg"><defs><path id="ata" d="M0 0h16v16H0z"/></defs><g fill="none" fill-rule="evenodd"><mask id="atb" fill="#fff"><use xlink:href="#ata"/></mask><g mask="url(#atb)"><path d="M2 4.667h12v8a.667.667 0 01-.667.666H2.667A.667.667 0 012 12.667v-8z" fill="#F8E9B1"/><path d="M2.667 2.667H6.72c.39 0 .76.17 1.012.465l.202.236c.254.295.623.465 1.013.465h4.386c.369 0 .667.299.667.667V5H2V3.333c0-.368.298-.666.667-.666z" fill="#F5DF8E"/><path d="M6.781 2.667c.354 0 .693.14.943.39l.219.22c.25.25.589.39.943.39h4.447c.369 0 .667.298.667.666v8.334a.667.667 0 01-.667.666H2.667A.667.667 0 012 12.667V3.333c0-.368.298-.666.667-.666H6.78zm0 .166H2.667a.5.5 0 00-.5.471v9.363a.5.5 0 00.47.499h10.696a.5.5 0 00.5-.47V4.333a.5.5 0 00-.47-.499H8.886a1.5 1.5 0 01-1.024-.404l-.037-.036-.219-.219a1.167 1.167 0 00-.774-.34l-.051-.002z" fill="#EBC01E" fill-rule="nonzero"/><path fill="#EBC01E" d="M2 4.833h12V5H2z"/><path d="M10.51 9.09l.024.001a.25.25 0 01.214.282c-.186 1.355-1.362 2.377-2.758 2.377a2.778 2.778 0 01-2.706-2.106.25.25 0 01.486-.118 2.278 2.278 0 002.22 1.724c1.146 0 2.11-.837 2.262-1.945a.25.25 0 01.234-.216h.024zm-4.973.005l.013.007.624.37a.167.167 0 01-.037.304l-.94.282a.167.167 0 01-.199-.232l.316-.654a.167.167 0 01.223-.077zM7.99 6.25c1.065 0 2.011.597 2.478 1.496l.24-.081a.167.167 0 01.205.225l-.23.52a.251.251 0 01-.04.092l-.023.052a.167.167 0 01-.22.085l-.013-.007-.636-.349a.167.167 0 01.026-.304l.21-.07A2.29 2.29 0 007.99 6.75a2.275 2.275 0 00-2.244 1.835.25.25 0 11-.492-.093A2.775 2.775 0 017.99 6.25z" fill="#DC9A0B" fill-rule="nonzero"/></g></g></svg><view id="icon-font-90" viewBox="0 64 16 16"/><svg width="16" height="16" viewBox="0 0 16 16" y="64" xmlns="http://www.w3.org/2000/svg"><defs><linearGradient x1="50%" y1="0%" x2="50%" y2="100%" id="auc"><stop stop-color="#FFF" offset="0%"/><stop stop-color="#FFF" stop-opacity=".9" offset="100%"/></linearGradient><path id="aua" d="M0 0h16v16H0z"/></defs><g fill="none" fill-rule="evenodd"><mask id="aub" fill="#fff"><use xlink:href="#aua"/></mask><g mask="url(#aub)"><path d="M2.667 2.667v10.666c0 .369.298.667.666.667h9.334a.667.667 0 00.666-.667V2.667A.667.667 0 0012.667 2H3.333a.667.667 0 00-.666.667z" fill="#CCC"/><path d="M2.833 2.667v10.666a.5.5 0 00.5.5h9.334a.5.5 0 00.5-.5V2.667a.5.5 0 00-.5-.5H3.333a.5.5 0 00-.5.5z" fill="url(#auc)"/><path d="M8.968 9H6.723l-.408.962c-.098.228-.147.398-.147.51 0 .09.043.168.128.236.085.068.269.112.551.132V11H5v-.16c.245-.043.404-.1.476-.169.147-.138.31-.42.489-.843L8.028 5h.152l2.041 4.88c.165.392.314.646.448.763.134.117.32.183.56.197V11H8.915v-.16c.234-.012.391-.05.474-.117a.301.301 0 00.123-.242c0-.127-.058-.327-.173-.601L8.968 9zm-.122-.333l-.978-2.322-1.006 2.322h1.984z" fill="#333"/><path fill="#333" opacity=".2" d="M3.667 10.833h8.666V11H3.667z"/><path d="M4.833 9.333a.833.833 0 110 1.667.833.833 0 010-1.667zm0 .167a.667.667 0 100 1.333.667.667 0 000-1.333zM11.333 9.333a.833.833 0 110 1.667.833.833 0 010-1.667zm0 .167a.667.667 0 100 1.333.667.667 0 000-1.333zM7.077 3.97l2.667 6.666-.155.062L6.923 4.03zM7.744 3.97l2.667 6.666-.155.062L7.589 4.03z" fill-opacity=".2" fill="#333" fill-rule="nonzero"/></g></g></svg><view id="icon-generic-90" viewBox="16 64 16 16"/><svg width="16" height="16" viewBox="0 0 16 16" x="16" y="64" xmlns="http://www.w3.org/2000/svg"><defs><linearGradient x1="50%" y1="0%" x2="50%" y2="100%" id="avc"><stop stop-color="#FFF" offset="0%"/><stop stop-color="#FAFAFA" offset="100%"/></linearGradient><path id="ava" d="M0 0h16v16H0z"/></defs><g fill="none" fill-rule="evenodd"><mask id="avb" fill="#fff"><use xlink:href="#ava"/></mask><g mask="url(#avb)"><path d="M2.667 2.667v10.666c0 .369.298.667.666.667h9.334a.667.667 0 00.666-.667V5.081a1 1 0 00-.293-.707l-2.08-2.081A1 1 0 0010.252 2H3.333a.667.667 0 00-.666.667z" fill="#DDD"/><path d="M7.333.167c.184 0 .334.149.334.333v2.167c0 .184.149.333.333.333h2.167c.184 0 .333.15.333.333v8a.5.5 0 01-.5.5H.667a.5.5 0 01-.5-.5V.667a.5.5 0 01.5-.5zm.525.142a.083.083 0 01.118 0l2.382 2.382a.083.083 0 01-.06.142H8a.167.167 0 01-.167-.166v-2.3c0-.021.01-.042.025-.058z" fill="url(#avc)" transform="translate(2.667 2)"/></g></g></svg><view id="icon-illustrator-90" viewBox="32 64 16 16"/><svg width="16" height="16" viewBox="0 0 16 16" x="32" y="64" xmlns="http://www.w3.org/2000/svg"><defs><linearGradient x1="50%" y1="0%" x2="50%" y2="98.311%" id="awc"><stop stop-color="#1C0A00" stop-opacity=".9" offset="0%"/><stop stop-color="#1C0A00" offset="100%"/></linearGradient><path id="awa" d="M0 0h16v16H0z"/></defs><g fill="none" fill-rule="evenodd"><mask id="awb" fill="#fff"><use xlink:href="#awa"/></mask><g mask="url(#awb)"><path d="M3 2h10c.184 0 .333.15.333.333v11.334c0 .184-.149.333-.333.333H3a.333.333 0 01-.333-.333V2.333C2.667 2.15 2.816 2 3 2z" fill="#FF7F18"/><path d="M3.333 2.5h9.334c.092 0 .166.075.166.167v10.666a.167.167 0 01-.166.167H3.333a.167.167 0 01-.166-.167V2.667c0-.092.074-.167.166-.167z" fill="url(#awc)"/><path d="M9.34 7.165c0-.029.01-.043.043-.043h.555c.029 0 .043.01.043.043v2.793c0 .028-.007.042-.043.042H9.39c-.036 0-.046-.018-.046-.046v-2.79H9.34zm-.039-.804c0-.226.16-.361.361-.361.216 0 .361.145.361.361 0 .234-.152.361-.368.361-.205 0-.354-.127-.354-.36zM7.708 8.33c-.099-.393-.332-1.25-.42-1.664H7.28c-.074.415-.262 1.116-.41 1.664h.838zm-.984.574l-.28 1.062c-.006.028-.017.035-.052.035h-.52c-.036 0-.043-.01-.036-.053L6.84 6.428c.018-.063.028-.12.036-.293 0-.025.01-.036.028-.036h.743c.025 0 .036.007.043.036l1.125 3.819c.007.028 0 .046-.028.046H8.2c-.028 0-.046-.007-.053-.032l-.29-1.065H6.724z" fill="#FF7F18" fill-rule="nonzero"/></g></g></svg><view id="icon-image-90" viewBox="48 64 16 16"/><svg width="16" height="16" viewBox="0 0 16 16" x="48" y="64" xmlns="http://www.w3.org/2000/svg"><defs><linearGradient x1="50%" y1="0%" x2="50%" y2="100%" id="axc"><stop stop-color="#FFF" offset="0%"/><stop stop-color="#FFF" stop-opacity=".9" offset="100%"/></linearGradient><linearGradient x1="50%" y1="0%" x2="50%" y2="97.5%" id="axe"><stop stop-color="#2BA6DE" stop-opacity=".4" offset="0%"/><stop stop-color="#2BA6DE" stop-opacity=".5" offset="100%"/></linearGradient><path id="axa" d="M0 0h16v16H0z"/><path d="M.333 0H9c.184 0 .333.15.333.333V9c0 .184-.149.333-.333.333H.333A.333.333 0 010 9V.333C0 .15.15 0 .333 0z" id="axd"/></defs><g fill="none" fill-rule="evenodd"><mask id="axb" fill="#fff"><use xlink:href="#axa"/></mask><g mask="url(#axb)"><path d="M2.667 2.667v10.666c0 .369.298.667.666.667h9.334a.667.667 0 00.666-.667V2.667A.667.667 0 0012.667 2H3.333a.667.667 0 00-.666.667z" fill="#C4E5F4"/><path d="M2.833 2.667v10.666a.5.5 0 00.5.5h9.334a.5.5 0 00.5-.5V2.667a.5.5 0 00-.5-.5H3.333a.5.5 0 00-.5.5z" fill="url(#axc)"/><g transform="translate(3.333 2.667)"><mask id="axf" fill="#fff"><use xlink:href="#axd"/></mask><use fill="url(#axe)" xlink:href="#axd"/><path d="M9.333 8l-2.5-2.5-1.334 1 2.834 2.833H9c.184 0 .333-.149.333-.333V8z" fill="#CAE6F3" mask="url(#axf)"/><path d="M2.5 3.5L0 6v3c0 .184.15.333.333.333h8L2.5 3.5z" fill="#E9F3F7" mask="url(#axf)"/><circle fill="#FFF" mask="url(#axf)" cx="5.833" cy="2.167" r="1"/><path d="M9 0c.184 0 .333.15.333.333V9c0 .184-.149.333-.333.333H.333A.333.333 0 010 9V.333C0 .15.15 0 .333 0H9zm0 .167H.333a.167.167 0 00-.165.147l-.001.02V9c0 .085.064.156.147.166H9a.167.167 0 00.166-.147V.333A.167.167 0 009.02.168L9 .167z" fill-opacity=".1" fill="#2BA6DE" fill-rule="nonzero" mask="url(#axf)"/></g></g></g></svg><view id="icon-indesign-90" viewBox="64 64 16 16"/><svg width="16" height="16" viewBox="0 0 16 16" x="64" y="64" xmlns="http://www.w3.org/2000/svg"><defs><linearGradient x1="50%" y1="0%" x2="50%" y2="95.436%" id="ayc"><stop stop-color="#250012" stop-opacity=".9" offset="0%"/><stop stop-color="#250012" offset="100%"/></linearGradient><path id="aya" d="M0 0h16v16H0z"/></defs><g fill="none" fill-rule="evenodd"><mask id="ayb" fill="#fff"><use xlink:href="#aya"/></mask><g mask="url(#ayb)"><path d="M3 2h10c.184 0 .333.15.333.333v11.334c0 .184-.149.333-.333.333H3a.333.333 0 01-.333-.333V2.333C2.667 2.15 2.816 2 3 2z" fill="#FF408C"/><path d="M3.333 2.5h9.334c.092 0 .166.075.166.167v10.666a.167.167 0 01-.166.167H3.333a.167.167 0 01-.166-.167V2.667c0-.092.074-.167.166-.167z" fill="url(#ayc)"/><path d="M9.108 7.568a.51.51 0 00-.211-.036c-.463 0-.786.355-.786.947 0 .674.33.947.743.947.09 0 .183-.01.254-.043V7.568zm-.19-.585c.076 0 .119 0 .19.007v-.954c0-.025.018-.036.036-.036h.581c.03 0 .036.01.036.029v3.354c0 .1 0 .226.018.362 0 .025-.007.029-.032.043a2.193 2.193 0 01-.94.212c-.793 0-1.36-.491-1.36-1.492-.003-.858.564-1.525 1.471-1.525zM6.812 9.9c0 .035-.007.046-.046.046h-.553c-.036 0-.046-.018-.046-.046V6.047c0-.036.018-.047.046-.047h.556c.03 0 .043.01.043.043V9.9z" fill="#FF408C" fill-rule="nonzero"/></g></g></svg><view id="icon-keynote-90" viewBox="80 0 16 16"/><svg width="16" height="16" viewBox="0 0 16 16" x="80" xmlns="http://www.w3.org/2000/svg"><defs><linearGradient x1="50%" y1="0%" x2="50%" y2="100%" id="azc"><stop stop-color="#A1E5FD" offset="0%"/><stop stop-color="#A2C6F9" offset="100%"/></linearGradient><linearGradient x1="50%" y1="0%" x2="50%" y2="100%" id="azd"><stop stop-color="#FFF" offset="0%"/><stop stop-color="#FFF" stop-opacity=".9" offset="100%"/></linearGradient><linearGradient x1="50%" y1="-53.345%" x2="50%" y2="154.374%" id="aze"><stop stop-color="#37D4F6" offset="0%"/><stop stop-color="#1B63F2" offset="100%"/></linearGradient><path id="aza" d="M0 0h16v16H0z"/></defs><g fill="none" fill-rule="evenodd"><mask id="azb" fill="#fff"><use xlink:href="#aza"/></mask><g mask="url(#azb)"><path d="M2.667 2.667v10.666c0 .369.298.667.666.667h9.334a.667.667 0 00.666-.667V2.667A.667.667 0 0012.667 2H3.333a.667.667 0 00-.666.667z" fill="url(#azc)"/><path d="M2.833 2.667v10.666a.5.5 0 00.5.5h9.334a.5.5 0 00.5-.5V2.667a.5.5 0 00-.5-.5H3.333a.5.5 0 00-.5.5z" fill="url(#azd)"/><path d="M8.166 8.667v2.672c0 .164.117.3.275.328h1.143c.046 0 .083.035.083.084v.165a.084.084 0 01-.083.084H6.416a.082.082 0 01-.083-.084v-.165c0-.047.038-.084.083-.084h1.141a.333.333 0 00.274-.328V8.667h.335zm3.167-.5v.166a.167.167 0 01-.168.167h-6.33a.167.167 0 01-.168-.167v-.166h6.666zM7.75 4a.25.25 0 110 .5h-.833a.25.25 0 01-.236-.167h-.848a.167.167 0 00-.165.148l-.001.019V5h5.16c.092 0 .17.074.176.166l.161 2.668a.155.155 0 01-.156.166H4.992a.155.155 0 01-.156-.166l.16-2.668A.18.18 0 015.174 5H5.5v-.5c0-.176.136-.32.308-.332l.025-.001h.848A.25.25 0 016.917 4h.833z" fill="url(#aze)" opacity=".8"/></g></g></svg><view id="icon-mobile-90" viewBox="80 16 16 16"/><svg width="16" height="16" viewBox="0 0 16 16" x="80" y="16" xmlns="http://www.w3.org/2000/svg"><defs><linearGradient x1="50%" y1="0%" x2="50%" y2="99.467%" id="bac"><stop stop-color="#FAFAFA" offset="0%"/><stop stop-color="#F9F9F9" offset="100%"/></linearGradient><linearGradient x1="50%" y1="0%" x2="50%" y2="125.893%" id="bad"><stop stop-color="#F9F9F9" offset="0%"/><stop stop-color="#E2E2E2" offset="100%"/></linearGradient><path id="baa" d="M0 0h16v16H0z"/></defs><g fill="none" fill-rule="evenodd"><mask id="bab" fill="#fff"><use xlink:href="#baa"/></mask><g mask="url(#bab)"><path d="M5.333 2h5.334C11.403 2 12 2.597 12 3.333v9.334c0 .736-.597 1.333-1.333 1.333H5.333A1.333 1.333 0 014 12.667V3.333C4 2.597 4.597 2 5.333 2z" fill="url(#bac)"/><path d="M4.167 11.833h7.666v.834c0 .644-.522 1.166-1.166 1.166H5.333a1.167 1.167 0 01-1.166-1.166v-.834z" fill="url(#bad)"/><path d="M10.667 2C11.403 2 12 2.597 12 3.333v9.334c0 .736-.597 1.333-1.333 1.333H5.333A1.333 1.333 0 014 12.667V3.333C4 2.597 4.597 2 5.333 2h5.334zm0 .167H5.333c-.63 0-1.145.5-1.166 1.126V12.667c0 .63.5 1.145 1.126 1.166h5.374c.63 0 1.145-.5 1.166-1.126V3.333c0-.63-.5-1.145-1.126-1.166h-.04z" fill="#777" fill-rule="nonzero"/><path d="M8 12.5a.333.333 0 110 .667.333.333 0 010-.667zM4 11.667h8v.166H4zM7 2.667h1.667a.167.167 0 010 .333H7a.167.167 0 010-.333z" fill="#777"/></g></g></svg><view id="icon-mobile-android-90" viewBox="80 32 16 16"/><svg width="16" height="16" viewBox="0 0 16 16" x="80" y="32" xmlns="http://www.w3.org/2000/svg"><defs><linearGradient x1="50%" y1="0%" x2="50%" y2="99.467%" id="bbc"><stop stop-color="#FAFAFA" offset="0%"/><stop stop-color="#F9F9F9" offset="100%"/></linearGradient><linearGradient x1="50%" y1="0%" x2="50%" y2="125.893%" id="bbd"><stop stop-color="#F9F9F9" offset="0%"/><stop stop-color="#E2E2E2" offset="100%"/></linearGradient><path id="bba" d="M0 0h16v16H0z"/></defs><g fill="none" fill-rule="evenodd"><mask id="bbb" fill="#fff"><use xlink:href="#bba"/></mask><g mask="url(#bbb)"><path d="M5.333 2h5.334C11.403 2 12 2.597 12 3.333v9.334c0 .736-.597 1.333-1.333 1.333H5.333A1.333 1.333 0 014 12.667V3.333C4 2.597 4.597 2 5.333 2z" fill="url(#bbc)"/><path d="M4.167 11.833h7.666v.834c0 .644-.522 1.166-1.166 1.166H5.333a1.167 1.167 0 01-1.166-1.166v-.834z" fill="url(#bbd)"/><path d="M10.667 2C11.403 2 12 2.597 12 3.333v9.334c0 .736-.597 1.333-1.333 1.333H5.333A1.333 1.333 0 014 12.667V3.333C4 2.597 4.597 2 5.333 2h5.334zm0 .167H5.333c-.63 0-1.145.5-1.166 1.126V12.667c0 .63.5 1.145 1.126 1.166h5.374c.63 0 1.145-.5 1.166-1.126V3.333c0-.63-.5-1.145-1.126-1.166h-.04z" fill="#777" fill-rule="nonzero"/><path d="M8 12.5a.333.333 0 110 .667.333.333 0 010-.667zM4 11.667h8v.166H4zM7 2.667h1.667a.167.167 0 010 .333H7a.167.167 0 010-.333zM9.51 6.258v2.19c0 .112-.136.259-.25.259h-.354v.772c0 .196-.145.354-.324.354-.18 0-.323-.158-.323-.354v-.772h-.518v.772c0 .196-.144.354-.323.354-.179 0-.322-.158-.322-.354v-.772h-.357c-.112 0-.249-.147-.249-.26V6.258h3.02zm.549-.12c.152 0 .274.158.274.354v1.343c0 .196-.122.355-.274.355-.152 0-.275-.16-.275-.355V6.492c0-.168.09-.309.212-.345l.063-.01zM5.94 6.136c.152 0 .275.158.275.354v1.342c0 .196-.123.355-.275.355-.152 0-.274-.159-.274-.355V6.491c0-.168.09-.308.211-.345l.063-.01zm3.005-1.803l.02.003c.024.014.011.038.011.038l-.259.445c.472.229.792.677.792 1.163H6.49c0-.486.32-.934.792-1.163l-.26-.445s-.011-.024.013-.038c.023-.013.038.01.038.01l.263.45a1.65 1.65 0 011.328 0l.263-.45s.016-.023.04-.01zm-.26.893a.207.207 0 00-.206.208c0 .114.093.205.206.205.114 0 .206-.091.206-.205a.207.207 0 00-.206-.208zm-1.372 0a.207.207 0 00-.206.208c0 .114.092.205.206.205.113 0 .206-.091.206-.205a.207.207 0 00-.206-.208z" fill="#777"/></g></g></svg><view id="icon-mobile-ios-90" viewBox="80 48 16 16"/><svg width="16" height="16" viewBox="0 0 16 16" x="80" y="48" xmlns="http://www.w3.org/2000/svg"><defs><linearGradient x1="50%" y1="0%" x2="50%" y2="99.467%" id="bcc"><stop stop-color="#FAFAFA" offset="0%"/><stop stop-color="#F9F9F9" offset="100%"/></linearGradient><linearGradient x1="50%" y1="0%" x2="50%" y2="125.893%" id="bcd"><stop stop-color="#F9F9F9" offset="0%"/><stop stop-color="#E2E2E2" offset="100%"/></linearGradient><path id="bca" d="M0 0h16v16H0z"/></defs><g fill="none" fill-rule="evenodd"><mask id="bcb" fill="#fff"><use xlink:href="#bca"/></mask><g mask="url(#bcb)"><path d="M5.333 2h5.334C11.403 2 12 2.597 12 3.333v9.334c0 .736-.597 1.333-1.333 1.333H5.333A1.333 1.333 0 014 12.667V3.333C4 2.597 4.597 2 5.333 2z" fill="url(#bcc)"/><path d="M4.167 11.833h7.666v.834c0 .644-.522 1.166-1.166 1.166H5.333a1.167 1.167 0 01-1.166-1.166v-.834z" fill="url(#bcd)"/><path d="M10.667 2C11.403 2 12 2.597 12 3.333v9.334c0 .736-.597 1.333-1.333 1.333H5.333A1.333 1.333 0 014 12.667V3.333C4 2.597 4.597 2 5.333 2h5.334zm0 .167H5.333c-.63 0-1.145.5-1.166 1.126V12.667c0 .63.5 1.145 1.126 1.166h5.374c.63 0 1.145-.5 1.166-1.126V3.333c0-.63-.5-1.145-1.126-1.166h-.04z" fill="#777" fill-rule="nonzero"/><path d="M8 12.5a.333.333 0 110 .667.333.333 0 010-.667zM4 11.667h8v.166H4zM7 2.667h1.667a.167.167 0 010 .333H7a.167.167 0 010-.333zM8.782 5.351c.186-.225.312-.539.277-.851-.268.01-.591.179-.783.404-.173.2-.324.52-.283.825.299.023.604-.152.79-.378m.27.438c.171.012.659.064.975.53-.026.015-.582.34-.575 1.014.007.807.706 1.077.714 1.08-.006.018-.112.382-.369.758-.222.325-.451.649-.814.655-.357.007-.471-.211-.879-.211-.407 0-.535.205-.872.218-.35.013-.616-.351-.84-.675-.457-.662-.806-1.871-.337-2.687.233-.405.65-.662 1.1-.669.345-.007.669.232.88.232.207 0 .579-.278 1.017-.245" fill="#777"/></g></g></svg><view id="icon-numbers-90" viewBox="80 64 16 16"/><svg width="16" height="16" viewBox="0 0 16 16" x="80" y="64" xmlns="http://www.w3.org/2000/svg"><defs><linearGradient x1="50%" y1="0%" x2="50%" y2="100%" id="bdc"><stop stop-color="#AAF5A5" offset="0%"/><stop stop-color="#85E88C" offset="100%"/></linearGradient><linearGradient x1="50%" y1="0%" x2="50%" y2="100%" id="bdd"><stop stop-color="#FFF" offset="0%"/><stop stop-color="#FFF" stop-opacity=".9" offset="100%"/></linearGradient><linearGradient x1="50%" y1="-41.262%" x2="50%" y2="120.954%" id="bde"><stop stop-color="#7EFA68" offset="0%"/><stop stop-color="#0BD319" offset="100%"/></linearGradient><path id="bda" d="M0 0h16v16H0z"/></defs><g fill="none" fill-rule="evenodd"><mask id="bdb" fill="#fff"><use xlink:href="#bda"/></mask><g mask="url(#bdb)"><path d="M2.667 2.667v10.666c0 .369.298.667.666.667h9.334a.667.667 0 00.666-.667V2.667A.667.667 0 0012.667 2H3.333a.667.667 0 00-.666.667z" fill="url(#bdc)"/><path d="M2.833 2.667v10.666a.5.5 0 00.5.5h9.334a.5.5 0 00.5-.5V2.667a.5.5 0 00-.5-.5H3.333a.5.5 0 00-.5.5z" fill="url(#bdd)"/><path d="M11.5 12c.085 0 .156.064.166.147v.02a.168.168 0 01-.167.166H4.167a.167.167 0 110-.333H11.5zm-6-1.667c.092 0 .167.076.167.167v1a.167.167 0 01-.166.167H4.166A.167.167 0 014 11.5v-1c0-.092.076-.167.166-.167H5.5zm2-1.666c.092 0 .167.074.167.165v2.67a.167.167 0 01-.166.165H6.166A.166.166 0 016 11.5V8.832c0-.091.076-.165.166-.165H7.5zM9.5 5c.092 0 .167.075.167.168v6.33a.168.168 0 01-.166.169H8.166A.167.167 0 018 11.499v-6.33C8 5.074 8.076 5 8.166 5H9.5zm2 2c.092 0 .167.073.167.166v4.335a.167.167 0 01-.166.166h-1.335A.165.165 0 0110 11.5V7.166c0-.092.076-.166.166-.166H11.5z" fill="url(#bde)" opacity=".7"/></g></g></svg><view id="icon-open-office-90" viewBox="0 80 16 16"/><svg width="16" height="16" viewBox="0 0 16 16" y="80" xmlns="http://www.w3.org/2000/svg"><defs><linearGradient x1="50%" y1="0%" x2="50%" y2="100%" id="bec"><stop stop-color="#FFF" offset="0%"/><stop stop-color="#FFF" stop-opacity=".9" offset="100%"/></linearGradient><path id="bea" d="M0 0h16v16H0z"/></defs><g fill="none" fill-rule="evenodd"><mask id="beb" fill="#fff"><use xlink:href="#bea"/></mask><g mask="url(#beb)"><path d="M2.667 2.667v10.666c0 .369.298.667.666.667h9.334a.667.667 0 00.666-.667V2.667A.667.667 0 0012.667 2H3.333a.667.667 0 00-.666.667z" fill="#9ECEEB"/><path d="M2.833 2.667v10.666a.5.5 0 00.5.5h9.334a.5.5 0 00.5-.5V2.667a.5.5 0 00-.5-.5H3.333a.5.5 0 00-.5.5z" fill="url(#bec)"/><path d="M3.333 2.167H5.5v11.666H3.333a.5.5 0 01-.5-.5V2.667a.5.5 0 01.5-.5z" fill="#0E85CD" opacity=".2"/><path d="M10.463 4.263c-.015-.009-.031-.016-.047-.024a2.414 2.414 0 00-2.252.084 2.4 2.4 0 00-.96-.301 2.397 2.397 0 00-1.343.263l-.012.006a.041.041 0 00.026.074H5.884c.215-.04.439-.052.667-.03.64.06 1.197.257 1.588.701.02.021.039.02.06 0 .492-.571 1.247-.796 2.058-.72.045.004.09.01.134.017l.053.007c.027.003.041-.018.041-.04a.039.039 0 00-.022-.037zM9.973 6.833l-.09-.045a4.592 4.592 0 00-4.283.16 4.565 4.565 0 00-1.827-.573 4.56 4.56 0 00-2.553.5l-.023.013a.078.078 0 00.048.14l.013-.001h.005a4.57 4.57 0 011.268-.057c1.217.115 2.277.49 3.022 1.334.039.04.073.038.112-.002.937-1.085 2.372-1.513 3.915-1.368.086.009.171.02.255.033l.101.014c.051.006.079-.035.079-.079a.073.073 0 00-.042-.07z" fill="#0E85CD" fill-rule="nonzero"/></g></g></svg><view id="icon-pages-90" viewBox="16 80 16 16"/><svg width="16" height="16" viewBox="0 0 16 16" x="16" y="80" xmlns="http://www.w3.org/2000/svg"><defs><linearGradient x1="50%" y1="0%" x2="50%" y2="100%" id="bfc"><stop stop-color="#FFE199" offset="0%"/><stop stop-color="#FFCD99" offset="100%"/></linearGradient><linearGradient x1="50%" y1="0%" x2="50%" y2="100%" id="bfd"><stop stop-color="#FFF" offset="0%"/><stop stop-color="#FFF" stop-opacity=".9" offset="100%"/></linearGradient><linearGradient x1="50%" y1="-25.393%" x2="50%" y2="144.804%" id="bfe"><stop stop-color="#FEB800" offset="0%"/><stop stop-color="#FE8601" offset="100%"/></linearGradient><path id="bfa" d="M0 0h16v16H0z"/></defs><g fill="none" fill-rule="evenodd"><mask id="bfb" fill="#fff"><use xlink:href="#bfa"/></mask><g mask="url(#bfb)"><path d="M2.667 2.667v10.666c0 .369.298.667.666.667h9.334a.667.667 0 00.666-.667V2.667A.667.667 0 0012.667 2H3.333a.667.667 0 00-.666.667z" fill="url(#bfc)"/><path d="M2.833 2.667v10.666a.5.5 0 00.5.5h9.334a.5.5 0 00.5-.5V2.667a.5.5 0 00-.5-.5H3.333a.5.5 0 00-.5.5z" fill="url(#bfd)"/><path d="M13.167 11.5v.333H4.665a.167.167 0 010-.333h8.502zm-8.239-.871l.296.294-.192.118-.025.015-.048.026c-.248.13-.32.033-.163-.237l.132-.216zm4.897-5.177l.576.573-4.221 4.221c-.13.13-.362.313-.521.41l-.254.156-.365-.365.155-.254c.097-.158.28-.39.41-.521l4.22-4.22zm1.299-.752l.014.013.014.015a.417.417 0 01-.02.567l-.586.585-.574-.574.585-.585a.417.417 0 01.543-.04l.024.019z" fill="url(#bfe)" opacity=".7"/></g></g></svg><view id="icon-pc-90" viewBox="32 80 16 16"/><svg width="16" height="16" viewBox="0 0 16 16" x="32" y="80" xmlns="http://www.w3.org/2000/svg"><defs><linearGradient x1="50%" y1="0%" x2="50%" y2="97.688%" id="bgc"><stop stop-color="#FAFAFA" offset="0%"/><stop stop-color="#F9F9F9" offset="100%"/></linearGradient><linearGradient x1="50%" y1="0%" x2="50%" y2="96.137%" id="bgd"><stop stop-color="#F9F9F9" offset="0%"/><stop stop-color="#E2E2E2" offset="100%"/></linearGradient><path id="bga" d="M0 0h16v16H0z"/></defs><g fill="none" fill-rule="evenodd"><mask id="bgb" fill="#fff"><use xlink:href="#bga"/></mask><g mask="url(#bgb)"><path d="M2 .083h9.333a1 1 0 011 1V8.75H1V1.083a1 1 0 011-1z" fill="url(#bgc)" fill-rule="nonzero" transform="translate(1.333 3.083)"/><path d="M12.667 3.083H3.333c-.598 0-1.083.485-1.083 1.084v7.75h11.5v-7.75c0-.599-.485-1.084-1.083-1.084zm0 .167h.037c.489.02.88.423.88.917v7.583H2.416V4.167c0-.507.41-.917.916-.917h9.334z" fill="#777" fill-rule="nonzero"/><path d="M0 8.417h13.333c0 .736-.597 1.333-1.333 1.333H1.333c-.722 0-1.31-.575-1.332-1.292L0 8.417z" fill="url(#bgd)" transform="translate(1.333 3.083)"/><path d="M14.667 11.5c0 .736-.597 1.333-1.334 1.333H2.667A1.333 1.333 0 011.333 11.5h13.334zm-.179.167H9.311a.167.167 0 01-.144.25H6.833a.167.167 0 01-.144-.25H1.512l.005.03c.091.538.55.95 1.11.969h10.706c.578 0 1.057-.419 1.15-.97l.005-.03z" fill="#777" fill-rule="nonzero"/></g></g></svg><view id="icon-pc-linux-90" viewBox="48 80 16 16"/><svg width="16" height="16" viewBox="0 0 16 16" x="48" y="80" xmlns="http://www.w3.org/2000/svg"><defs><linearGradient x1="50%" y1="0%" x2="50%" y2="100%" id="bhc"><stop stop-color="#FAFAFA" offset="0%"/><stop stop-color="#F9F9F9" offset="100%"/></linearGradient><linearGradient x1="50%" y1="0%" x2="50%" y2="98.659%" id="bhd"><stop stop-color="#F9F9F9" offset="0%"/><stop stop-color="#E2E2E2" offset="100%"/></linearGradient><path id="bha" d="M0 0h16v16H0z"/></defs><g fill="none" fill-rule="evenodd"><mask id="bhb" fill="#fff"><use xlink:href="#bha"/></mask><g mask="url(#bhb)"><path d="M3.333 3.167h9.334a1 1 0 011 1v7.666H2.333V4.167a1 1 0 011-1z" fill="url(#bhc)" fill-rule="nonzero"/><path d="M12.667 3.083H3.333c-.598 0-1.083.485-1.083 1.084v7.75h11.5v-7.75c0-.599-.485-1.084-1.083-1.084zm0 .167h.037c.489.02.88.423.88.917v7.583H2.416V4.167c0-.507.41-.917.916-.917h9.334z" fill="#777" fill-rule="nonzero"/><path d="M1.333 11.5h13.334c0 .736-.597 1.333-1.334 1.333H2.667c-.723 0-1.311-.574-1.333-1.291V11.5z" fill="url(#bhd)"/><path d="M14.667 11.5c0 .736-.597 1.333-1.334 1.333H2.667A1.333 1.333 0 011.333 11.5h13.334zm-.179.167H9.311a.167.167 0 01-.144.25H6.833a.167.167 0 01-.144-.25H1.512l.005.03c.091.538.55.95 1.11.969h10.706c.578 0 1.057-.419 1.15-.97l.005-.03z" fill="#777" fill-rule="nonzero"/><path d="M7.17 5.909l-.005-.062c-.106-1.14 1.216-1.324 1.574-.523.082.184.103.353.107.517l.001.075-.001.222v.036l.003.073c.012.244.073.489.344.762l.043.041c.42.398.583.886.487 1.462a.595.595 0 01.192.035c.139.059.173.255.173.374 0 .044.026.07.061.1l.043.035c.056.045.116.109.138.238.026.155-.095.23-.254.295l-.198.076-.057.024a.894.894 0 00-.276.18l-.103.1a.624.624 0 01-.367.19c-.283.041-.526-.099-.591-.255-.395-.08-.723-.078-.985.01-.115.235-.5.342-.836.163-.24-.127-.396-.17-.51-.181l-.04-.003h-.037l-.034.001-.047.004-.057.006-.027.002h-.013c-.145 0-.231-.146-.231-.26a.92.92 0 01.013-.123l.026-.166a.92.92 0 00.013-.268l-.007-.025c-.045-.121.183-.318.35-.347.068-.012.11-.07.145-.133l.034-.063a.995.995 0 01.01-.02c-.012-.135.037-.368.148-.699.078-.235.195-.392.314-.536l.09-.107.04-.048.036-.046.036-.047a1.74 1.74 0 00.018-.025l.034-.05c.144-.22.244-.508.204-1.034zm-.42 2.766c-.081-.125-.26-.134-.355-.107-.034.01-.058.042-.08.08l-.025.05c-.031.057-.065.113-.127.124-.13.022-.304.169-.288.268l.004.014c.014.04.011.108.003.182l-.01.075-.023.14a.584.584 0 00-.007.075c0 .093.07.212.187.212h.012l.037-.003.053-.005.03-.002h.032l.035.001c.093.008.22.041.423.149.39.207.863-.06.658-.429l-.037-.064-.032-.053-.029-.045a1.39 1.39 0 00-.013-.02l-.024-.034-.02-.027-.02-.022-.016-.017-.016-.014-.02-.017-.021-.016A.295.295 0 017 9.104a1.928 1.928 0 01-.11-.18l-.07-.13a2.063 2.063 0 00-.07-.119zm2.126-.04l-.014.014a.36.36 0 00-.075.222l-.001.037c0 .13-.027.237-.057.34l-.03.105a1.24 1.24 0 00-.057.358c0 .147.224.307.494.27a.5.5 0 00.287-.144l.073-.069a.775.775 0 01.254-.166l.052-.021.127-.048.048-.02c.115-.05.198-.109.178-.223a.289.289 0 00-.111-.19l-.042-.034c-.025-.021-.043-.042-.043-.074 0-.095-.028-.252-.14-.298a.603.603 0 00-.213-.03H9.57l-.007.01c-.073.09-.206.19-.347.19-.183 0-.267-.083-.321-.186a.21.21 0 01-.01-.023l-.008-.02zM8.425 6.49l-.014.01a.762.762 0 01-.164.085.489.489 0 00-.095.048l-.071.043a.433.433 0 01-.141.062c-.134.02-.337 0-.555-.153l-.019-.014.005-.027a3.015 3.015 0 01-.272.897l-.084.162c-.185.363-.258.635-.216.774.01.035.046.079.096.128l.053.052.122.111.063.06c.126.12.238.248.238.362 0 .112-.022.176-.066.192l.013.018.028.04.015.023.033.053.037.062.043.075c.026.011.056.023.089.034l.052.016a.987.987 0 00.906-.173l.013-.049.042-.145c.032-.112.06-.226.066-.361l.002-.06c0-.213.07-.35.212-.41l-.001.018.002-.03c.01-.089.04-.17.102-.204a.306.306 0 01.11-.036l.018-.002-.057-.077-.073-.193-.046-.12-.065-.166-.06-.15-.039-.091-.035-.084-.05-.113-.031-.066-.029-.058-.026-.052a1.273 1.273 0 01-.151-.49zm.572 1.812c-.082.046-.072.24-.04.305.033.064.084.115.194.115s.21-.102.236-.163c.027-.062.017-.128-.083-.196s-.21-.116-.307-.061zm-1.366-2.15a.862.862 0 00-.105.06l-.073.047a2.09 2.09 0 01-.034.022l-.03.018c-.065.036-.107.115.068.217.174.102.337.116.443.102a.336.336 0 00.095-.032l.096-.048a.333.333 0 01.055-.022c.066-.018.213-.09.213-.128v-.012l-.002-.013c-.008-.034-.04-.077-.181-.124l-.093-.029-.073-.025-.106-.04-.014-.004-.013-.002-.034-.002-.042-.002a.415.415 0 00-.17.017zm.254-.17v.037h.018c.013 0 .027.004.045.012l.054.025c.01-.083.054-.12.134-.11.124.015.108.13.07.194l.04.016c.042.015.077.03.106.044.075-.117.12-.562-.185-.605-.183-.026-.278.103-.282.387zm-.408-.339c-.147 0-.268.305-.094.555l.064-.05c-.048-.078-.039-.14.026-.185.058-.04.098-.014.122.08l.008-.005a.236.236 0 01.077-.022v.003c-.034-.25-.102-.376-.203-.376z" fill="#777"/></g></g></svg><view id="icon-pc-mac-90" viewBox="64 80 16 16"/><svg width="16" height="16" viewBox="0 0 16 16" x="64" y="80" xmlns="http://www.w3.org/2000/svg"><defs><linearGradient x1="50%" y1="0%" x2="50%" y2="100%" id="bic"><stop stop-color="#FAFAFA" offset="0%"/><stop stop-color="#F9F9F9" offset="100%"/></linearGradient><linearGradient x1="50%" y1="0%" x2="50%" y2="98.659%" id="bid"><stop stop-color="#F9F9F9" offset="0%"/><stop stop-color="#E2E2E2" offset="100%"/></linearGradient><path id="bia" d="M0 0h16v15H0z"/></defs><g fill="none" fill-rule="evenodd"><mask id="bib" fill="#fff"><use xlink:href="#bia"/></mask><g mask="url(#bib)"><path d="M3.333 3.167h9.334a1 1 0 011 1v7.666H2.333V4.167a1 1 0 011-1z" fill="url(#bic)" fill-rule="nonzero"/><path d="M12.667 3.083H3.333c-.598 0-1.083.485-1.083 1.084v7.75h11.5v-7.75c0-.599-.485-1.084-1.083-1.084zm0 .167h.037c.489.02.88.423.88.917v7.583H2.416V4.167c0-.507.41-.917.916-.917h9.334z" fill="#777" fill-rule="nonzero"/><path d="M1.333 11.5h13.334c0 .736-.597 1.333-1.334 1.333H2.667c-.723 0-1.311-.574-1.333-1.291V11.5z" fill="url(#bid)"/><path d="M14.667 11.5c0 .736-.597 1.333-1.334 1.333H2.667A1.333 1.333 0 011.333 11.5h13.334zm-.179.167H9.311a.167.167 0 01-.144.25H6.833a.167.167 0 01-.144-.25H1.512l.005.03c.091.538.55.95 1.11.969h10.706c.578 0 1.057-.419 1.15-.97l.005-.03z" fill="#777" fill-rule="nonzero"/><path d="M8.035 6.296a.625.625 0 00.191-.043l.077-.029.126-.047c.189-.072.41-.144.634-.121.395.012.76.203.986.515a1.175 1.175 0 00-.582.992c0 .459.285.873.721 1.051a2.581 2.581 0 01-.327.67l-.12.171-.048.067c-.188.253-.398.464-.7.469a.848.848 0 01-.349-.068l-.113-.046a1.106 1.106 0 00-.856-.004l-.113.046a.976.976 0 01-.34.08c-.263.01-.48-.187-.668-.42l-.053-.067-.051-.068-.075-.103c-.458-.647-.815-1.822-.337-2.622a1.32 1.32 0 011.105-.652 1.28 1.28 0 01.47.102l.156.06c.1.038.19.067.266.067zm1.033-1.5c.024.303-.075.602-.276.835-.194.234-.489.368-.8.365-.02-.293.082-.582.283-.803.203-.224.486-.365.793-.396z" fill="#777"/></g></g></svg><view id="icon-pc-win-90" viewBox="80 80 16 16"/><svg width="16" height="16" viewBox="0 0 16 16" x="80" y="80" xmlns="http://www.w3.org/2000/svg"><defs><linearGradient x1="50%" y1="0%" x2="50%" y2="100%" id="bjc"><stop stop-color="#FAFAFA" offset="0%"/><stop stop-color="#F9F9F9" offset="100%"/></linearGradient><linearGradient x1="50%" y1="0%" x2="50%" y2="98.659%" id="bjd"><stop stop-color="#F9F9F9" offset="0%"/><stop stop-color="#E2E2E2" offset="100%"/></linearGradient><path id="bja" d="M0 0h16v16H0z"/></defs><g fill="none" fill-rule="evenodd"><mask id="bjb" fill="#fff"><use xlink:href="#bja"/></mask><g mask="url(#bjb)"><path d="M3.333 3.167h9.334a1 1 0 011 1v7.666H2.333V4.167a1 1 0 011-1z" fill="url(#bjc)" fill-rule="nonzero"/><path d="M12.667 3.083H3.333c-.598 0-1.083.485-1.083 1.084v7.75h11.5v-7.75c0-.599-.485-1.084-1.083-1.084zm0 .167h.037c.489.02.88.423.88.917v7.583H2.416V4.167c0-.507.41-.917.916-.917h9.334z" fill="#777" fill-rule="nonzero"/><path d="M1.333 11.5h13.334c0 .736-.597 1.333-1.334 1.333H2.667c-.723 0-1.311-.574-1.333-1.291V11.5z" fill="url(#bjd)"/><path d="M14.667 11.5c0 .736-.597 1.333-1.334 1.333H2.667A1.333 1.333 0 011.333 11.5h13.334zm-.179.167H9.311a.167.167 0 01-.144.25H6.833a.167.167 0 01-.144-.25H1.512l.005.03c.091.538.55.95 1.11.969h10.706c.578 0 1.057-.419 1.15-.97l.005-.03z" fill="#777" fill-rule="nonzero"/><path d="M7.833 7.667v2h-2v-2h2zm2.334 0v2h-2v-2h2zM7.833 5.333v2h-2v-2h2zm2.334 0v2h-2v-2h2z" fill="#777"/></g></g></svg><view id="icon-pdf-90" viewBox="96 0 16 16"/><svg width="16" height="16" viewBox="0 0 16 16" x="96" xmlns="http://www.w3.org/2000/svg"><defs><linearGradient x1="50%" y1="0%" x2="50%" y2="100%" id="bkc"><stop stop-color="#FFF" offset="0%"/><stop stop-color="#FAFAFA" offset="100%"/></linearGradient><path id="bka" d="M0 0h16v16H0z"/></defs><g fill="none" fill-rule="evenodd"><mask id="bkb" fill="#fff"><use xlink:href="#bka"/></mask><g mask="url(#bkb)"><path d="M2.667 2.667v10.666c0 .369.298.667.666.667h9.334a.667.667 0 00.666-.667V2.667A.667.667 0 0012.667 2H3.333a.667.667 0 00-.666.667z" fill="#FDCDCD"/><path d="M2.833 2.667v10.666a.5.5 0 00.5.5h9.334a.5.5 0 00.5-.5V2.667a.5.5 0 00-.5-.5H3.333a.5.5 0 00-.5.5z" fill="url(#bkc)"/><path d="M5.613 11.014c-.292 0-.463-.206-.532-.326-.069-.12-.224-.499.24-.963.19-.189.533-.55 1.427-.859.12-.24.24-.498.36-.773.138-.31.258-.567.344-.808-.36-.584-.43-1.013-.412-1.512.017-.567.395-.773.635-.773.172 0 .619.155.636.894.017.292-.034.635-.292 1.34.19.258.43.567.739.91.103.12.206.224.292.31.962-.035 1.443.172 1.615.275.395.24.361.635.292.807-.051.138-.24.378-.635.378-.086 0-.19-.017-.293-.034-.309-.086-.532-.206-1.202-.91-.31.016-.636.068-.98.137-.275.051-.532.12-.756.189-.739 1.46-1.1 1.615-1.22 1.666a.628.628 0 01-.258.052zm.757-1.426c-.378.189-.568.378-.688.498-.206.206-.172.327-.172.327l.035.051s.017.035.051.035c.017 0 .035 0 .069-.018.052-.017.258-.12.705-.893zm3.196-.636c.343.327.463.378.618.412.052.018.103.018.155.018.12 0 .154-.052.154-.052.018-.069 0-.137-.086-.189-.051-.034-.292-.155-.841-.189zm-2.114-.31l-.017.035c.12-.034.223-.051.344-.069.223-.034.43-.086.635-.103l-.017-.017a9.627 9.627 0 01-.584-.687l-.017.017v-.017c-.069.154-.138.31-.206.498-.052.12-.104.24-.138.344zm.223-3.127c-.068.018-.103.12-.103.258 0 .258 0 .516.138.842.12-.378.12-.567.12-.704-.017-.258-.103-.361-.155-.396z" fill="#F94646" fill-rule="nonzero"/></g></g></svg><view id="icon-photoshop-90" viewBox="96 16 16 16"/><svg width="16" height="16" viewBox="0 0 16 16" x="96" y="16" xmlns="http://www.w3.org/2000/svg"><defs><linearGradient x1="50%" y1="0%" x2="50%" y2="100%" id="blc"><stop stop-color="#0C0824" stop-opacity=".9" offset="0%"/><stop stop-color="#0C0824" offset="100%"/></linearGradient><path id="bla" d="M0 0h16v16H0z"/></defs><g fill="none" fill-rule="evenodd"><mask id="blb" fill="#fff"><use xlink:href="#bla"/></mask><g mask="url(#blb)"><path d="M3 2h10c.184 0 .333.15.333.333v11.334c0 .184-.149.333-.333.333H3a.333.333 0 01-.333-.333V2.333C2.667 2.15 2.816 2 3 2z" fill="#31C5F0"/><path d="M3.333 2.5h9.334c.092 0 .166.075.166.167v10.666a.167.167 0 01-.166.167H3.333a.167.167 0 01-.166-.167V2.667c0-.092.074-.167.166-.167z" fill="url(#blc)"/><path d="M9.54 7.532c-.282 0-.378.143-.378.26 0 .13.064.219.443.415.56.272.735.532.735.914 0 .572-.435.879-1.025.879-.31 0-.578-.064-.732-.154-.025-.01-.028-.028-.028-.057v-.525c0-.035.018-.046.043-.028.225.146.482.21.717.21.283 0 .4-.117.4-.278 0-.129-.082-.243-.442-.429-.508-.243-.718-.489-.718-.9 0-.46.36-.843.985-.843.308 0 .522.047.64.1.028.018.035.047.035.072v.49c0 .028-.017.046-.053.035-.157-.1-.39-.16-.622-.16zm-3.071.425c.082.007.146.007.29.007.417 0 .81-.146.81-.714 0-.454-.282-.682-.757-.682-.143 0-.279.007-.343.01v1.38zm-.636-1.896c0-.025.05-.043.079-.043.228-.01.568-.018.921-.018.99 0 1.375.543 1.375 1.236 0 .907-.657 1.296-1.464 1.296-.136 0-.182-.007-.279-.007v1.371c0 .029-.01.043-.042.043h-.547c-.028 0-.043-.01-.043-.043V6.061z" fill="#31C5F0" fill-rule="nonzero"/></g></g></svg><view id="icon-powerpoint-90" viewBox="96 32 16 16"/><svg width="16" height="16" viewBox="0 0 16 16" x="96" y="32" xmlns="http://www.w3.org/2000/svg"><defs><linearGradient x1="50%" y1="0%" x2="50%" y2="100%" id="bmc"><stop stop-color="#FFF" offset="0%"/><stop stop-color="#FFF" stop-opacity=".9" offset="100%"/></linearGradient><path id="bma" d="M0 0h16v16H0z"/></defs><g fill="none" fill-rule="evenodd"><mask id="bmb" fill="#fff"><use xlink:href="#bma"/></mask><g mask="url(#bmb)"><path d="M2.667 2.667v10.666c0 .369.298.667.666.667h9.334a.667.667 0 00.666-.667V2.667A.667.667 0 0012.667 2H3.333a.667.667 0 00-.666.667z" fill="#F3CDC1"/><path d="M2.833 2.667v10.666a.5.5 0 00.5.5h9.334a.5.5 0 00.5-.5V2.667a.5.5 0 00-.5-.5H3.333a.5.5 0 00-.5.5z" fill="url(#bmc)"/><path d="M5 11.333h6A.333.333 0 0111 12H5a.333.333 0 110-.667zM5 10h6a.333.333 0 110 .667H5A.333.333 0 015 10zM1.667 4H4c.184 0 .333.15.333.333v2.334C4.333 6.85 4.184 7 4 7H1.667a.333.333 0 01-.334-.333V4.333c0-.184.15-.333.334-.333zM10.167 7A2.333 2.333 0 117.78 4.667h.052V7h2.334z" fill="#DB6947"/><path d="M8.167 4.333a2.333 2.333 0 012.332 2.282l.001.052H8.167V4.333z" fill="#DB6947"/><path d="M2.617 5.811V6.5h-.45v-2h.705c.504 0 .756.212.756.637 0 .201-.072.364-.217.488-.144.124-.337.186-.58.186h-.214zm0-.965v.623h.177c.24 0 .36-.105.36-.315 0-.205-.12-.308-.36-.308h-.177z" fill="#FFF"/></g></g></svg><view id="icon-premiere-90" viewBox="96 48 16 16"/><svg width="16" height="16" viewBox="0 0 16 16" x="96" y="48" xmlns="http://www.w3.org/2000/svg"><defs><linearGradient x1="50%" y1="0%" x2="50%" y2="95.436%" id="bnc"><stop stop-color="#180024" stop-opacity=".9" offset="0%"/><stop stop-color="#180024" offset="100%"/></linearGradient><path id="bna" d="M0 0h16v16H0z"/></defs><g fill="none" fill-rule="evenodd"><mask id="bnb" fill="#fff"><use xlink:href="#bna"/></mask><g mask="url(#bnb)"><path d="M3 2h10c.184 0 .333.15.333.333v11.334c0 .184-.149.333-.333.333H3a.333.333 0 01-.333-.333V2.333C2.667 2.15 2.816 2 3 2z" fill="#E579FF"/><path d="M3.333 2.5h9.334c.092 0 .166.075.166.167v10.666a.167.167 0 01-.166.167H3.333a.167.167 0 01-.166-.167V2.667c0-.092.074-.167.166-.167z" fill="url(#bnc)"/><path d="M8.794 7.654c0-.043 0-.148-.018-.35 0-.03.004-.037.03-.048.22-.09.738-.25 1.324-.25.03 0 .044.008.044.037v.524c0 .03-.011.037-.04.037-.228-.011-.558.018-.684.072v2.28c0 .03-.011.044-.044.044h-.568c-.03 0-.044-.01-.044-.043V7.654zm-2.316.33c.083.007.148.007.293.007.423 0 .822-.148.822-.724 0-.46-.283-.691-.768-.691-.145 0-.282.007-.347.01v1.398zm-.641-1.922c0-.026.007-.044.036-.044.232-.01.572-.018.93-.018 1.003 0 1.441.55 1.441 1.256 0 .92-.666 1.314-1.484 1.314-.138 0-.185-.007-.282-.007v1.39c0 .029-.011.043-.044.043h-.557c-.03 0-.044-.01-.044-.043V6.062h.004z" fill="#E579FF" fill-rule="nonzero"/></g></g></svg><view id="icon-raw-90" viewBox="96 64 16 16"/><svg width="16" height="16" viewBox="0 0 16 16" x="96" y="64" xmlns="http://www.w3.org/2000/svg"><defs><linearGradient x1="50%" y1="0%" x2="50%" y2="100%" id="boc"><stop stop-color="#B8E5F7" offset="0%"/><stop stop-color="#B9E8DC" offset="100%"/></linearGradient><linearGradient x1="50%" y1="0%" x2="50%" y2="100%" id="bod"><stop stop-color="#FFF" offset="0%"/><stop stop-color="#FFF" stop-opacity=".9" offset="100%"/></linearGradient><linearGradient x1="50%" y1="-38.806%" x2="50%" y2="137.144%" id="boe"><stop stop-color="#4FC0EE" offset="0%"/><stop stop-color="#50C7A8" offset="100%"/></linearGradient><path id="boa" d="M0 0h16v16H0z"/></defs><g fill="none" fill-rule="evenodd"><mask id="bob" fill="#fff"><use xlink:href="#boa"/></mask><g mask="url(#bob)"><path d="M2.667 2.667v10.666c0 .369.298.667.666.667h9.334a.667.667 0 00.666-.667V2.667A.667.667 0 0012.667 2H3.333a.667.667 0 00-.666.667z" fill="url(#boc)"/><path d="M2.833 2.667v10.666a.5.5 0 00.5.5h9.334a.5.5 0 00.5-.5V2.667a.5.5 0 00-.5-.5H3.333a.5.5 0 00-.5.5z" fill="url(#bod)"/><path d="M9.663 5.11a3.332 3.332 0 011.57 3.709 3.156 3.156 0 01-1.733.514c-.47 0-.918-.102-1.32-.287a3.333 3.333 0 001.483-3.933zM9.5 9.5c.605 0 1.173-.161 1.663-.444a3.337 3.337 0 01-2.744 2.251 3.162 3.162 0 01-1.407-2.92A3.33 3.33 0 009.5 9.5zm-2.667-.833c0 1.087.521 2.053 1.327 2.662l-.16.004A3.334 3.334 0 014.974 9.4a3.17 3.17 0 012.158-2.113c-.192.42-.299.888-.299 1.38zm-1-3.167c1.156 0 2.168.62 2.72 1.545a3.335 3.335 0 00-3.677 2.122A3.323 3.323 0 014.667 8c0-.995.437-1.888 1.128-2.499zM8 4.667a3.32 3.32 0 011.442.327c.145.363.225.759.225 1.173 0 .675-.211 1.3-.571 1.814a3.334 3.334 0 00-3.1-2.644A3.315 3.315 0 018 4.667z" fill="url(#boe)"/><circle fill-opacity=".3" fill="#FFF" cx="8" cy="8" r="2.667"/></g></g></svg><view id="icon-sketch-90" viewBox="96 80 16 16"/><svg width="16" height="16" viewBox="0 0 16 16" x="96" y="80" xmlns="http://www.w3.org/2000/svg"><defs><linearGradient x1="50%" y1="0%" x2="50%" y2="100%" id="bpc"><stop stop-color="#FFF" offset="0%"/><stop stop-color="#FFF" stop-opacity=".9" offset="100%"/></linearGradient><path id="bpa" d="M0 0h16v16H0z"/></defs><g fill="none" fill-rule="evenodd"><mask id="bpb" fill="#fff"><use xlink:href="#bpa"/></mask><g mask="url(#bpb)"><path d="M2.667 2.667v10.666c0 .369.298.667.666.667h9.334a.667.667 0 00.666-.667V2.667A.667.667 0 0012.667 2H3.333a.667.667 0 00-.666.667z" fill="#FDE7B9"/><path d="M2.833 2.667v10.666a.5.5 0 00.5.5h9.334a.5.5 0 00.5-.5V2.667a.5.5 0 00-.5-.5H3.333a.5.5 0 00-.5.5z" fill="url(#bpc)"/><path fill="#FFAE00" d="M6.333 7.5L8 10.5l1.667-3z"/><path fill="#FFEFB4" d="M6.333 7.5L8 5.667 9.667 7.5z"/><path fill="#FED305" d="M9.667 5.833L8 5.667 9.667 7.5z"/><path fill="#FFAE00" d="M9.667 5.833L11 7.5H9.667z"/><path fill="#FED305" d="M6.333 5.833L8 5.667 6.333 7.5z"/><path fill="#FFAE00" d="M6.333 5.833L5 7.5h1.333z"/><path fill="#EC6C00" d="M5 7.5l3 3-1.667-3zM9.667 7.5L8 10.5l3-3z"/></g></g></svg><view id="icon-spreadsheet-90" viewBox="0 96 16 16"/><svg width="16" height="16" viewBox="0 0 16 16" y="96" xmlns="http://www.w3.org/2000/svg"><defs><linearGradient x1="50%" y1="0%" x2="50%" y2="100%" id="bqc"><stop stop-color="#FFF" offset="0%"/><stop stop-color="#FFF" stop-opacity=".9" offset="100%"/></linearGradient><path id="bqa" d="M0 0h16v16H0z"/></defs><g fill="none" fill-rule="evenodd"><mask id="bqb" fill="#fff"><use xlink:href="#bqa"/></mask><g mask="url(#bqb)"><path d="M2.667 2.667v10.666c0 .369.298.667.666.667h9.334a.667.667 0 00.666-.667V2.667A.667.667 0 0012.667 2H3.333a.667.667 0 00-.666.667z" fill="#9BD5B9"/><path d="M2.833 2.667v10.666a.5.5 0 00.5.5h9.334a.5.5 0 00.5-.5V2.667a.5.5 0 00-.5-.5H3.333a.5.5 0 00-.5.5z" fill="url(#bqc)"/><path d="M4.167 12.167V4h7.666v8.167H4.167zm1-1h-.834V12h.834v-.833zm2.166 0h-2V12h2v-.833zm4.334 0h-2V12h2v-.833zm-2.167 0h-2V12h2v-.833zm-4.333-1h-.834V11h.834v-.833zm2.166 0h-2V11h2v-.833zm4.334 0h-2V11h2v-.833zm-2.167 0h-2V11h2v-.833zm-4.333-1h-.834V10h.834v-.833zm2.166 0h-2V10h2v-.833zm4.334 0h-2V10h2v-.833zm-2.167 0h-2V10h2v-.833zm-4.333-1h-.834V9h.834v-.833zm2.166 0h-2V9h2v-.833zm4.334 0h-2V9h2v-.833zm-2.167 0h-2V9h2v-.833zm-4.333-1h-.834V8h.834v-.833zm2.166 0h-2V8h2v-.833zm4.334 0h-2V8h2v-.833zm-2.167 0h-2V8h2v-.833zm-4.333-1h-.834V7h.834v-.833zm2.166 0h-2V7h2v-.833zm4.334 0h-2V7h2v-.833zm-2.167 0h-2V7h2v-.833zm-4.333-1h-.834V6h.834v-.833zm2.166 0h-2V6h2v-.833zm4.334 0h-2V6h2v-.833zm-2.167 0h-2V6h2v-.833zm-4.333-1h-.834V5h.834v-.833zm2.166 0h-2V5h2v-.833zm4.334 0h-2V5h2v-.833zm-2.167 0h-2V5h2v-.833z" fill="#059750" fill-rule="nonzero"/><path fill-opacity=".2" fill="#059750" d="M11.667 4.167V5h-6.5v7.167h-.834v-8z"/></g></g></svg><view id="icon-text-90" viewBox="16 96 16 16"/><svg width="16" height="16" viewBox="0 0 16 16" x="16" y="96" xmlns="http://www.w3.org/2000/svg"><defs><linearGradient x1="50%" y1="0%" x2="50%" y2="100%" id="brc"><stop stop-color="#FFF" offset="0%"/><stop stop-color="#FFF" stop-opacity=".9" offset="100%"/></linearGradient><path id="bra" d="M0 0h16v16H0z"/></defs><g fill="none" fill-rule="evenodd"><mask id="brb" fill="#fff"><use xlink:href="#bra"/></mask><g mask="url(#brb)"><path d="M2.667 2.667v10.666c0 .369.298.667.666.667h9.334a.667.667 0 00.666-.667V2.667A.667.667 0 0012.667 2H3.333a.667.667 0 00-.666.667z" fill="#C1CBDC"/><path d="M2.833 2.667v10.666a.5.5 0 00.5.5h9.334a.5.5 0 00.5-.5V2.667a.5.5 0 00-.5-.5H3.333a.5.5 0 00-.5.5z" fill="url(#brc)"/><path fill="#B2C3DF" d="M4.167 7.5h7.666v.167H4.167zM4.167 6.5h7.666v.167H4.167zM4.167 5.5h7.666v.167H4.167zM4.167 10.5h7.666v.167H4.167zM4.167 11.5h7.666v.167H4.167zM4.167 9.5h7.666v.167H4.167zM4.167 8.5h7.666v.167H4.167zM4.167 4.5h7.666v.167H4.167z"/><path fill="#F2C3C8" d="M5.333 4H5.5v8.167h-.167z"/></g></g></svg><view id="icon-threed-90" viewBox="32 96 16 16"/><svg width="16" height="16" viewBox="0 0 16 16" x="32" y="96" xmlns="http://www.w3.org/2000/svg"><defs><linearGradient x1="50%" y1="0%" x2="50%" y2="100%" id="bsc"><stop stop-color="#FFF" offset="0%"/><stop stop-color="#FFF" stop-opacity=".9" offset="100%"/></linearGradient><linearGradient x1="50%" y1="100%" x2="50%" y2="0%" id="bsd"><stop stop-color="#2BA6DE" stop-opacity=".5" offset="0%"/><stop stop-color="#2BA6DE" stop-opacity=".7" offset="100%"/></linearGradient><linearGradient x1="50%" y1="0%" x2="50%" y2="100%" id="bse"><stop stop-color="#2BA6DE" stop-opacity=".6" offset="0%"/><stop stop-color="#2BA6DE" stop-opacity=".8" offset="100%"/></linearGradient><linearGradient x1="50%" y1="0%" x2="50%" y2="100%" id="bsf"><stop stop-color="#2BA6DE" stop-opacity=".2" offset="0%"/><stop stop-color="#2BA6DE" stop-opacity=".5" offset="100%"/></linearGradient><path id="bsa" d="M0 0h16v16H0z"/></defs><g fill="none" fill-rule="evenodd"><mask id="bsb" fill="#fff"><use xlink:href="#bsa"/></mask><g mask="url(#bsb)"><path d="M2.667 2.667v10.666c0 .369.298.667.666.667h9.334a.667.667 0 00.666-.667V2.667A.667.667 0 0012.667 2H3.333a.667.667 0 00-.666.667z" fill="#C4E5F4"/><path d="M2.833 2.667v10.666a.5.5 0 00.5.5h9.334a.5.5 0 00.5-.5V2.667a.5.5 0 00-.5-.5H3.333a.5.5 0 00-.5.5z" fill="url(#bsc)"/><path d="M11.333 9.835l1.837 1.104v.333l-1.977-1.188.14-.084v-.165zm-6.666 0V10l.14.084L2.83 11.27v-.334l1.836-1.101zm3.5-7.668V4.1L8 4l-.167.1V2.167h.334z" fill="#2BA6DE" fill-opacity=".1"/><path fill="url(#bsd)" opacity=".8" d="M8 4l3.333 2L8 8 4.667 6z"/><path fill="url(#bse)" opacity=".9" d="M8 8l3.333-2v4L8 12z"/><path fill="url(#bsf)" d="M8 8v4l-3.333-2V6z"/></g></g></svg><view id="icon-torrent-90" viewBox="48 96 16 16"/><svg width="16" height="16" viewBox="0 0 16 16" x="48" y="96" xmlns="http://www.w3.org/2000/svg"><defs><linearGradient x1="50%" y1="0%" x2="50%" y2="100%" id="btc"><stop stop-color="#FFF" offset="0%"/><stop stop-color="#FFF" stop-opacity=".9" offset="100%"/></linearGradient><path id="bta" d="M0 0h16v16H0z"/></defs><g fill="none" fill-rule="evenodd"><mask id="btb" fill="#fff"><use xlink:href="#bta"/></mask><g mask="url(#btb)"><path d="M2.667 2.667v10.666c0 .369.298.667.666.667h9.334a.667.667 0 00.666-.667V2.667A.667.667 0 0012.667 2H3.333a.667.667 0 00-.666.667z" fill="#9BD5B9"/><path d="M2.833 2.667v10.666a.5.5 0 00.5.5h9.334a.5.5 0 00.5-.5V2.667a.5.5 0 00-.5-.5H3.333a.5.5 0 00-.5.5z" fill="url(#btc)"/><g fill="#059750"><path d="M6.166 6.167l1.382 1.382a.167.167 0 010 .236l-.014.014a.166.166 0 01-.236 0l-.965-.966V10a.167.167 0 01-.334 0V6.833l-.965.966a.166.166 0 01-.236 0l-.014-.014a.166.166 0 010-.236l1.382-1.382zM9.833 10.167L8.45 8.785a.167.167 0 010-.236l.015-.014a.166.166 0 01.235 0l.966.965V6.333a.167.167 0 01.333 0V9.5l.966-.965a.166.166 0 01.235 0l.015.014a.166.166 0 010 .236l-1.382 1.382z"/></g></g></g></svg><view id="icon-url-90" viewBox="64 96 16 16"/><svg width="16" height="16" viewBox="0 0 16 16" x="64" y="96" xmlns="http://www.w3.org/2000/svg"><defs><linearGradient x1="50%" y1="0%" x2="50%" y2="100%" id="buc"><stop stop-color="#FFF" offset="0%"/><stop stop-color="#FFF" stop-opacity=".9" offset="100%"/></linearGradient><path id="bua" d="M0 0h16v16H0z"/></defs><g fill="none" fill-rule="evenodd"><mask id="bub" fill="#fff"><use xlink:href="#bua"/></mask><g mask="url(#bub)"><path d="M2.667 2.667v10.666c0 .369.298.667.666.667h9.334a.667.667 0 00.666-.667V2.667A.667.667 0 0012.667 2H3.333a.667.667 0 00-.666.667z" fill="#9ECEEB"/><path d="M2.833 2.667v10.666a.5.5 0 00.5.5h9.334a.5.5 0 00.5-.5V2.667a.5.5 0 00-.5-.5H3.333a.5.5 0 00-.5.5z" fill="url(#buc)"/><path d="M9.333 6.333a1.5 1.5 0 110 3H8.5A.167.167 0 118.5 9h.833a1.167 1.167 0 100-2.333H8.5a.167.167 0 010-.334h.833zm-1.833 0a.167.167 0 01.02.333h-.853A1.167 1.167 0 006.627 9l.04.001H7.5a.167.167 0 01.02.332l-.02.001h-.833a1.5 1.5 0 01-.045-2.999H7.5zm1.667 1.334c.085 0 .156.063.165.147l.001.02A.166.166 0 019.167 8H6.833a.166.166 0 110-.333h2.334z" fill="#379AD6" fill-rule="nonzero"/></g></g></svg><view id="icon-vector-90" viewBox="80 96 16 16"/><svg width="16" height="16" viewBox="0 0 16 16" x="80" y="96" xmlns="http://www.w3.org/2000/svg"><defs><path id="bva" d="M0 0h16v16H0z"/><path d="M.167 0h10c.092 0 .166.075.166.167V11.5a.167.167 0 01-.166.167h-10A.167.167 0 010 11.5V.167C0 .075.075 0 .167 0z" id="bvd"/><linearGradient x1="50%" y1="0%" x2="50%" y2="100%" id="bvc"><stop stop-color="#FFF" offset="0%"/><stop stop-color="#FFF" stop-opacity=".9" offset="100%"/></linearGradient></defs><g fill="none" fill-rule="evenodd"><mask id="bvb" fill="#fff"><use xlink:href="#bva"/></mask><g mask="url(#bvb)"><path d="M2.667 2.667v10.666c0 .369.298.667.666.667h9.334a.667.667 0 00.666-.667V2.667A.667.667 0 0012.667 2H3.333a.667.667 0 00-.666.667z" fill="#FDE7B9"/><path d="M2.833 2.667v10.666a.5.5 0 00.5.5h9.334a.5.5 0 00.5-.5V2.667a.5.5 0 00-.5-.5H3.333a.5.5 0 00-.5.5z" fill="url(#bvc)"/><g transform="translate(2.833 2.167)"><mask id="bve" fill="#fff"><use xlink:href="#bvd"/></mask><circle fill="#FFF5DD" mask="url(#bve)" cx="10.833" cy="11.667" r="8.833"/><path d="M7.25 2.333a.25.25 0 11-.076.489L4.73 5.196l.01.014a9 9 0 11-.687.704.409.409 0 01-.035-.026L1.657 8.18a.25.25 0 11-.164-.17l2.381-2.313A.498.498 0 014.334 5c.075 0 .147.017.21.047L7.01 2.652a.25.25 0 01.24-.319zM10.833 3c-2.325 0-4.44.898-6.018 2.367a.5.5 0 01-.602.618A8.833 8.833 0 1010.833 3z" fill="#FFAE00" fill-rule="nonzero" opacity=".703" mask="url(#bve)"/></g><path d="M7.167 7.333a.333.333 0 110 .667.333.333 0 010-.667z" fill="#FFF" fill-rule="nonzero"/></g></g></svg><view id="icon-video-90" viewBox="96 96 16 16"/><svg width="16" height="16" viewBox="0 0 16 16" x="96" y="96" xmlns="http://www.w3.org/2000/svg"><defs><linearGradient x1="50%" y1="0%" x2="50%" y2="100%" id="bwc"><stop stop-color="#F9C1D3" offset="0%"/><stop stop-color="#E1D0FD" offset="100%"/></linearGradient><linearGradient x1="50%" y1="0%" x2="50%" y2="100%" id="bwd"><stop stop-color="#FFF" offset="0%"/><stop stop-color="#FFF" stop-opacity=".9" offset="100%"/></linearGradient><linearGradient x1="50%" y1="0%" x2="50%" y2="100%" id="bwe"><stop stop-color="#EB1B5B" offset="0%"/><stop stop-color="#9151FA" offset="100%"/></linearGradient><linearGradient x1="50%" y1="177.944%" x2="50%" y2="-79.067%" id="bwf"><stop stop-color="#9052FD" offset="0%"/><stop stop-color="#EC1A59" offset="100%"/></linearGradient><path id="bwa" d="M0 0h16v16H0z"/></defs><g fill="none" fill-rule="evenodd"><mask id="bwb" fill="#fff"><use xlink:href="#bwa"/></mask><g mask="url(#bwb)"><path d="M2.667 2.667v10.666c0 .369.298.667.666.667h9.334a.667.667 0 00.666-.667V2.667A.667.667 0 0012.667 2H3.333a.667.667 0 00-.666.667z" fill="url(#bwc)"/><path d="M2.833 2.667v10.666a.5.5 0 00.5.5h9.334a.5.5 0 00.5-.5V2.667a.5.5 0 00-.5-.5H3.333a.5.5 0 00-.5.5z" fill="url(#bwd)"/><path d="M4.833 12.333c.092 0 .167.075.167.167v.667a.167.167 0 01-.167.166H3.5a.167.167 0 01-.167-.166V12.5c0-.092.075-.167.167-.167h1.333zm7.667 0c.092 0 .167.075.167.167v.667a.167.167 0 01-.167.166h-1.333a.167.167 0 01-.167-.166V12.5c0-.092.075-.167.167-.167H12.5zm-7.667-1.666c.092 0 .167.074.167.166v1a.167.167 0 01-.167.167H3.5a.167.167 0 01-.167-.167v-1c0-.092.075-.166.167-.166h1.333zm7.667 0c.092 0 .167.074.167.166v1A.167.167 0 0112.5 12h-1.333a.167.167 0 01-.167-.167v-1c0-.092.075-.166.167-.166H12.5zM4.833 9c.092 0 .167.075.167.167v1a.167.167 0 01-.167.166H3.5a.167.167 0 01-.167-.166v-1c0-.092.075-.167.167-.167h1.333zM12.5 9c.092 0 .167.075.167.167v1a.167.167 0 01-.167.166h-1.333a.167.167 0 01-.167-.166v-1c0-.092.075-.167.167-.167H12.5zM4.833 7.333c.092 0 .167.075.167.167v1a.167.167 0 01-.167.167H3.5a.167.167 0 01-.167-.167v-1c0-.092.075-.167.167-.167h1.333zm7.667 0c.092 0 .167.075.167.167v1a.167.167 0 01-.167.167h-1.333A.167.167 0 0111 8.5v-1c0-.092.075-.167.167-.167H12.5zM4.833 5.667c.092 0 .167.074.167.166v1A.167.167 0 014.833 7H3.5a.167.167 0 01-.167-.167v-1c0-.092.075-.166.167-.166h1.333zm7.667 0c.092 0 .167.074.167.166v1A.167.167 0 0112.5 7h-1.333A.167.167 0 0111 6.833v-1c0-.092.075-.166.167-.166H12.5zM4.833 4c.092 0 .167.075.167.167v1a.167.167 0 01-.167.166H3.5a.167.167 0 01-.167-.166v-1c0-.092.075-.167.167-.167h1.333zM12.5 4c.092 0 .167.075.167.167v1a.167.167 0 01-.167.166h-1.333A.167.167 0 0111 5.167v-1c0-.092.075-.167.167-.167H12.5zM4.833 2.667c.092 0 .167.074.167.166V3.5a.167.167 0 01-.167.167H3.5a.167.167 0 01-.167-.167v-.667c0-.092.075-.166.167-.166h1.333zm7.667 0c.092 0 .167.074.167.166V3.5a.167.167 0 01-.167.167h-1.333A.167.167 0 0111 3.5v-.667c0-.092.075-.166.167-.166H12.5z" fill="url(#bwe)" opacity=".1"/><path d="M6.667 5.999c0-.184.117-.24.263-.127l2.473 1.923c.146.113.146.296 0 .41L6.93 10.128c-.145.114-.263.055-.263-.127V6z" fill="url(#bwf)" opacity=".7"/></g></g></svg><view id="icon-web-data-90" viewBox="112 0 16 16"/><svg width="16" height="16" viewBox="0 0 16 16" x="112" xmlns="http://www.w3.org/2000/svg"><defs><linearGradient x1="50%" y1="0%" x2="50%" y2="100%" id="bxc"><stop stop-color="#FFF" offset="0%"/><stop stop-color="#FFF" stop-opacity=".9" offset="100%"/></linearGradient><path id="bxa" d="M0 0h16v16H0z"/></defs><g fill="none" fill-rule="evenodd"><mask id="bxb" fill="#fff"><use xlink:href="#bxa"/></mask><g mask="url(#bxb)"><path d="M2.667 2.667v10.666c0 .369.298.667.666.667h9.334a.667.667 0 00.666-.667V2.667A.667.667 0 0012.667 2H3.333a.667.667 0 00-.666.667z" fill="#9ECEEB"/><path d="M2.833 2.667v10.666a.5.5 0 00.5.5h9.334a.5.5 0 00.5-.5V2.667a.5.5 0 00-.5-.5H3.333a.5.5 0 00-.5.5z" fill="url(#bxc)"/><path d="M9.667 5.833c.448 0 .813.354.832.798l.001.036v.666a.5.5 0 00.47.5H11a.167.167 0 110 .334.833.833 0 01-.833-.798V6.667a.5.5 0 00-.5-.5.167.167 0 010-.334z" fill="#379AD6" fill-rule="nonzero"/><path d="M11 7.833a.833.833 0 00-.833.798V9.333a.5.5 0 01-.471.5h-.03a.167.167 0 000 .334.833.833 0 00.833-.798l.001-.036v-.666a.5.5 0 01.5-.5.167.167 0 100-.334zM6.333 5.833a.833.833 0 00-.832.798l-.001.036v.666a.5.5 0 01-.47.5H5a.167.167 0 000 .334.833.833 0 00.833-.798V6.667a.5.5 0 01.5-.5.167.167 0 000-.334z" fill="#379AD6" fill-rule="nonzero"/><path d="M5 7.833c.448 0 .814.354.833.798V9.333a.5.5 0 00.471.5h.03a.167.167 0 010 .334.833.833 0 01-.833-.798L5.5 9.333v-.666a.5.5 0 00-.5-.5.167.167 0 010-.334zM8 8.833A.333.333 0 118 9.5a.333.333 0 010-.667zM8 9a.167.167 0 100 .333A.167.167 0 008 9zM9 8.833A.333.333 0 119 9.5a.333.333 0 010-.667zM9 9a.167.167 0 100 .333A.167.167 0 009 9zM7 8.833A.333.333 0 117 9.5a.333.333 0 010-.667zM7 9a.167.167 0 100 .333A.167.167 0 007 9z" fill="#379AD6" fill-rule="nonzero"/></g></g></svg><view id="icon-web-lang-90" viewBox="112 16 16 16"/><svg width="16" height="16" viewBox="0 0 16 16" x="112" y="16" xmlns="http://www.w3.org/2000/svg"><defs><linearGradient x1="50%" y1="0%" x2="50%" y2="100%" id="byc"><stop stop-color="#FFF" offset="0%"/><stop stop-color="#FFF" stop-opacity=".9" offset="100%"/></linearGradient><path id="bya" d="M0 0h16v16H0z"/></defs><g fill="none" fill-rule="evenodd"><mask id="byb" fill="#fff"><use xlink:href="#bya"/></mask><g mask="url(#byb)"><path d="M2.667 2.667v10.666c0 .369.298.667.666.667h9.334a.667.667 0 00.666-.667V2.667A.667.667 0 0012.667 2H3.333a.667.667 0 00-.666.667z" fill="#FFDB99"/><path d="M2.833 2.667v10.666a.5.5 0 00.5.5h9.334a.5.5 0 00.5-.5V2.667a.5.5 0 00-.5-.5H3.333a.5.5 0 00-.5.5z" fill="url(#byc)"/><path d="M6.215 6.549a.167.167 0 01.25.22l-.014.016L5.236 8 6.45 9.215c.06.06.065.155.014.22l-.014.016a.167.167 0 01-.22.014l-.016-.014L4.765 8l1.45-1.451zM9.715 6.549a.167.167 0 00-.25.22l.015.016L10.695 8 9.48 9.215a.167.167 0 00-.014.22l.014.016c.06.06.154.065.22.014l.015-.014L11.167 8 9.715 6.549zM8.518 6.592a.167.167 0 01.305.131l-.007.018-1.334 2.667a.167.167 0 01-.305-.131l.007-.018 1.334-2.667z" fill="orange" fill-rule="nonzero"/></g></g></svg><view id="icon-word-90" viewBox="112 32 16 16"/><svg width="16" height="16" viewBox="0 0 16 16" x="112" y="32" xmlns="http://www.w3.org/2000/svg"><defs><linearGradient x1="50%" y1="0%" x2="50%" y2="100%" id="bzc"><stop stop-color="#FFF" offset="0%"/><stop stop-color="#FFF" stop-opacity=".9" offset="100%"/></linearGradient><path id="bza" d="M0 0h16v16H0z"/></defs><g fill="none" fill-rule="evenodd"><mask id="bzb" fill="#fff"><use xlink:href="#bza"/></mask><g mask="url(#bzb)"><path d="M2.667 2.667v10.666c0 .369.298.667.666.667h9.334a.667.667 0 00.666-.667V2.667A.667.667 0 0012.667 2H3.333a.667.667 0 00-.666.667z" fill="#C2CFE1"/><path d="M2.833 2.667v10.666a.5.5 0 00.5.5h9.334a.5.5 0 00.5-.5V2.667a.5.5 0 00-.5-.5H3.333a.5.5 0 00-.5.5z" fill="url(#bzc)"/><path d="M1.667 4H4c.184 0 .333.15.333.333v2.334C4.333 6.85 4.184 7 4 7H1.667a.333.333 0 01-.334-.333V4.333c0-.184.15-.333.334-.333zM4.833 12h6.334a.167.167 0 010 .333H4.833a.167.167 0 110-.333zM4.833 9.333h6.334a.167.167 0 010 .334H4.833a.167.167 0 010-.334zM4.833 6.667h6.334a.167.167 0 010 .333H4.833a.167.167 0 010-.333zM4.833 4h6.334a.167.167 0 010 .333H4.833a.167.167 0 010-.333zM4.833 10.667h6.334a.167.167 0 010 .333H4.833a.167.167 0 010-.333zM4.833 8h6.334a.167.167 0 010 .333H4.833a.167.167 0 010-.333zM4.833 5.333h6.334a.167.167 0 010 .334H4.833a.167.167 0 010-.334z" fill="#5376AB"/><path d="M4 4.5l-.437 2H3.15l-.275-1.283a1.28 1.28 0 01-.027-.225h-.004a1.627 1.627 0 01-.03.225L2.532 6.5h-.43l-.435-2h.407l.233 1.332c.01.057.017.133.022.229h.007c.003-.072.014-.15.033-.235l.3-1.326h.4l.27 1.343c.01.05.02.121.027.215h.005c.003-.074.011-.148.024-.223L3.624 4.5H4z" fill="#FFF"/></g></g></svg></svg>