<?xml version="1.0" encoding="utf-8"?><svg width="160" height="160" viewBox="0 0 112 112" xmlns="http://www.w3.org/2000/svg" xmlns:xlink="http://www.w3.org/1999/xlink"><view id="icon-aftereffects-24" viewBox="0 0 16 16"/><svg width="16" height="16" fill="none" viewBox="0 0 16 16" xmlns="http://www.w3.org/2000/svg"><path d="M5.673 8.429h1.113a2.644 2.644 0 0 1-.04-.17c-.018-.081-.038-.17-.059-.235a96.435 96.435 0 0 1-.12-.377l-.126-.401a13.89 13.89 0 0 1-.117-.388 39.435 39.435 0 0 1-.095-.342h-.007c-.04.19-.089.379-.148.564-.066.211-.133.427-.2.648-.03.095-.059.203-.088.31-.038.143-.076.283-.113.39Z" fill="url(#aaa)"/><path d="M9.627 8.234h.923c.113 0 .196-.001.25-.003a.496.496 0 0 0 .103-.011v-.042a1.19 1.19 0 0 0-.015-.252.576.576 0 0 0-.571-.402.612.612 0 0 0-.581.331 1.48 1.48 0 0 0-.109.38Z" fill="url(#aab)"/><path fill-rule="evenodd" clip-rule="evenodd" d="M4 1.333a2 2 0 0 0-2 2v9.334a2 2 0 0 0 2 2h8a2 2 0 0 0 2-2V3.333a2 2 0 0 0-2-2H4ZM7.047 9.18H5.419l-.331 1.073a.083.083 0 0 1-.085.063h-.825c-.047 0-.063-.025-.049-.077l1.41-4.003c.014-.042.028-.09.042-.144a1.505 1.505 0 0 0 .03-.306.044.044 0 0 1 .048-.03h1.12c.033 0 .052.013.056.036l1.6 4.454c.014.047 0 .07-.042.07h-.916a.065.065 0 0 1-.07-.049l-.36-1.087Zm3.973-.385H9.63c.02.143.069.28.143.404.08.117.19.21.321.264.18.08.375.122.572.121a1.924 1.924 0 0 0 .806-.154c.023-.019.035-.007.035.035v.67a.104.104 0 0 1-.01.053.102.102 0 0 1-.032.031c-.146.07-.3.12-.458.152a2.83 2.83 0 0 1-.571.022 2.01 2.01 0 0 1-.839-.155 1.496 1.496 0 0 1-.55-.416 1.63 1.63 0 0 1-.303-.574 2.262 2.262 0 0 1 .018-1.332c.07-.219.182-.422.328-.599.144-.175.324-.317.528-.416.23-.106.48-.158.733-.151.246-.004.49.044.717.141.18.082.34.207.461.363.116.149.204.317.261.497.056.173.084.354.085.536 0 .103-.004.197-.01.281-.007.05-.016.1-.028.15a.064.064 0 0 1-.063.056 1.63 1.63 0 0 0-.145.01c-.045.006-.113.006-.182.006l-.108.001c-.101.003-.208.004-.32.004Z" fill="url(#aac)"/><defs><linearGradient id="aaa" x1="8" y1="1.333" x2="8" y2="14.667" gradientUnits="userSpaceOnUse"><stop stop-color="#ED73CC"/><stop offset="1" stop-color="#E248C2"/></linearGradient><linearGradient id="aab" x1="8" y1="1.333" x2="8" y2="14.667" gradientUnits="userSpaceOnUse"><stop stop-color="#ED73CC"/><stop offset="1" stop-color="#E248C2"/></linearGradient><linearGradient id="aac" x1="8" y1="1.333" x2="8" y2="14.667" gradientUnits="userSpaceOnUse"><stop stop-color="#ED73CC"/><stop offset="1" stop-color="#E248C2"/></linearGradient></defs></svg><view id="icon-album-24" viewBox="16 0 16 16"/><svg width="16" height="16" fill="none" viewBox="0 0 16 16" x="16" xmlns="http://www.w3.org/2000/svg"><g clip-path="url(#aba)" fill="#777"><path fill-rule="evenodd" clip-rule="evenodd" d="M4.67 4.75h6.66c.535 0 .98 0 1.345.03.38.03.736.098 1.073.27a2.75 2.75 0 0 1 1.202 1.202c.172.337.24.693.27 1.073.03.365.03.81.03 1.345v2.66c0 .535 0 .98-.03 1.345-.03.38-.098.736-.27 1.073a2.751 2.751 0 0 1-1.201 1.202c-.338.172-.694.24-1.074.27-.365.03-.81.03-1.345.03H4.67c-.535 0-.98 0-1.345-.03-.38-.03-.736-.098-1.073-.27A2.75 2.75 0 0 1 1.05 13.75c-.172-.338-.24-.694-.27-1.074-.03-.365-.03-.81-.03-1.345V8.67c0-.535 0-.98.03-1.345.03-.38.098-.736.27-1.073A2.75 2.75 0 0 1 2.252 5.05c.337-.172.693-.24 1.073-.27.365-.03.81-.03 1.345-.03Z"/><path d="M8.33.75h-.66c-.534 0-.98 0-1.344.03-.38.03-.737.098-1.074.27A2.75 2.75 0 0 0 4.195 2h7.61a2.75 2.75 0 0 0-1.056-.95C10.41.878 10.055.81 9.675.78 9.31.75 8.865.75 8.33.75ZM6.17 2.75h3.66c.535 0 .98 0 1.345.03.38.03.736.098 1.074.27.43.22.794.548 1.056.95H2.695a2.75 2.75 0 0 1 1.057-.95c.337-.172.694-.24 1.074-.27.364-.03.81-.03 1.344-.03Z"/></g><defs><clipPath id="aba"><path fill="#fff" d="M0 0h16v16H0z"/></clipPath></defs></svg><view id="icon-audio-24" viewBox="0 16 16 16"/><svg width="16" height="16" fill="none" viewBox="0 0 16 16" y="16" xmlns="http://www.w3.org/2000/svg"><path fill-rule="evenodd" clip-rule="evenodd" d="M4 1.333a2 2 0 0 0-2 2v9.334a2 2 0 0 0 2 2h8a2 2 0 0 0 2-2V3.333a2 2 0 0 0-2-2H4Zm2.923 6.063L8.25 7.08l1.362-.304a.334.334 0 0 1 .406.325v1.097a.667.667 0 0 1-.47.638l-.21.064a.963.963 0 0 0-.68.92v.227a.712.712 0 0 0 .904.686l.098-.027a1.371 1.371 0 0 0 1.002-1.32v-3.72a.998.998 0 0 0-1.184-.982l-1.228.23-1.714.362a.667.667 0 0 0-.529.652v3.14c0 .141-.088.267-.22.314l-.47.17a1 1 0 0 0-.66.94v.243a.667.667 0 0 0 .877.632l.22-.073c.545-.18.913-.69.913-1.265v-2.31c0-.153.106-.288.256-.323Z" fill="url(#aca)"/><defs><linearGradient id="aca" x1="8" y1="1.333" x2="8" y2="14.667" gradientUnits="userSpaceOnUse"><stop stop-color="#69A3FB"/><stop offset="1" stop-color="#477EF7"/></linearGradient></defs></svg><view id="icon-bucket-24" viewBox="16 16 16 16"/><svg width="16" height="16" viewBox="0 0 24 24" fill="none" x="16" y="16" xmlns="http://www.w3.org/2000/svg"><path fill-rule="evenodd" clip-rule="evenodd" d="M20.994 4.594A.708.708 0 0 0 21 4.5C21 3.12 16.97 2 12 2S3 3.12 3 4.5c0 .032.002.063.006.094L4 19.5c0 1.38 3.582 2.5 8 2.5s8-1.12 8-2.5l.994-14.906ZM8.5 8.5a2.5 2.5 0 1 0 0 5 2.5 2.5 0 0 0 0-5Zm5 1.5a.5.5 0 0 1 .5-.5h3.5a.5.5 0 0 1 .5.5v3.5a.5.5 0 0 1-.5.5H14a.5.5 0 0 1-.5-.5V10Zm-2 4.5a.5.5 0 0 1 .407.21l2.5 3.5A.5.5 0 0 1 14 19H9a.5.5 0 0 1-.407-.79l2.5-3.5a.5.5 0 0 1 .407-.21Zm8.244-10.137a.162.162 0 0 1 0 .274c-.333.219-.881.454-1.648.667C16.577 5.726 14.421 6 12 6c-2.421 0-4.577-.274-6.096-.696-.767-.213-1.315-.448-1.648-.667a.161.161 0 0 1 0-.274c.333-.219.881-.454 1.648-.667C7.423 3.274 9.579 3 12 3c2.421 0 4.577.274 6.096.696.767.213 1.315.448 1.648.667Z" fill="url(#ada)"/><defs><linearGradient id="ada" x1="12" y1="2" x2="12" y2="22" gradientUnits="userSpaceOnUse"><stop stop-color="#888D95"/><stop offset="1" stop-color="#6E747D"/></linearGradient></defs></svg><view id="icon-bucket-share-24" viewBox="32 0 16 16"/><svg width="16" height="16" viewBox="0 0 24 24" fill="none" x="32" xmlns="http://www.w3.org/2000/svg"><path fill-rule="evenodd" clip-rule="evenodd" d="M20.994 4.594A.708.708 0 0 0 21 4.5C21 3.12 16.97 2 12 2S3 3.12 3 4.5c0 .032.002.063.006.094L4 19.5c0 1.38 3.582 2.5 8 2.5s8-1.12 8-2.5l.994-14.906ZM11 14a2 2 0 1 0 0-4 2 2 0 0 0 0 4Zm3.403 4c.3 0 .535-.265.456-.555a4.002 4.002 0 0 0-7.719 0c-.079.29.156.555.457.555h6.806Zm-1.523-4.353A2.49 2.49 0 0 0 13.5 12a2.49 2.49 0 0 0-.62-1.647c-.117-.134-.058-.353.12-.353a2 2 0 0 1 0 4c-.178 0-.237-.22-.12-.353ZM15.916 18a.54.54 0 0 1-.517-.437 4.484 4.484 0 0 0-1.738-2.693c-.14-.103-.07-.33.101-.297a4.005 4.005 0 0 1 3.097 2.872c.08.29-.156.555-.456.555h-.487Zm3.828-13.637a.162.162 0 0 1 0 .274c-.333.219-.881.454-1.648.667C16.577 5.726 14.421 6 12 6c-2.421 0-4.577-.274-6.096-.696-.767-.213-1.315-.448-1.648-.667a.161.161 0 0 1 0-.274c.333-.219.881-.454 1.648-.667C7.423 3.274 9.579 3 12 3c2.421 0 4.577.274 6.096.696.767.213 1.315.448 1.648.667Z" fill="url(#aea)"/><defs><linearGradient id="aea" x1="12" y1="2" x2="12" y2="22" gradientUnits="userSpaceOnUse"><stop stop-color="#888D95"/><stop offset="1" stop-color="#6E747D"/></linearGradient></defs></svg><view id="icon-cad-24" viewBox="32 16 16 16"/><svg width="16" height="16" fill="none" viewBox="0 0 16 16" x="32" y="16" xmlns="http://www.w3.org/2000/svg"><path d="M6 6.833c0-.092.075-.166.167-.166h1c.092 0 .166.074.166.166v1A.167.167 0 0 1 7.167 8h-1A.167.167 0 0 1 6 7.833v-1Z" fill="url(#afa)"/><path fill-rule="evenodd" clip-rule="evenodd" d="M4 1.333a2 2 0 0 0-2 2v9.334a2 2 0 0 0 2 2h8a2 2 0 0 0 2-2V3.333a2 2 0 0 0-2-2H4ZM6.333 2H7v4h.333c.369 0 .667.298.667.667V7h5.333v.667H8V8a.667.667 0 0 1-.667.667H7V14h-.667V8.667H6A.667.667 0 0 1 5.333 8v-.333H2.667V7h2.666v-.333C5.333 6.298 5.632 6 6 6h.333V2Z" fill="url(#afb)"/><defs><linearGradient id="afa" x1="8" y1="1.333" x2="8" y2="14.667" gradientUnits="userSpaceOnUse"><stop stop-color="#FB6361"/><stop offset="1" stop-color="#F23433"/></linearGradient><linearGradient id="afb" x1="8" y1="1.333" x2="8" y2="14.667" gradientUnits="userSpaceOnUse"><stop stop-color="#FB6361"/><stop offset="1" stop-color="#F23433"/></linearGradient></defs></svg><view id="icon-compressed-24" viewBox="0 32 16 16"/><svg width="16" height="16" fill="none" viewBox="0 0 16 16" y="32" xmlns="http://www.w3.org/2000/svg"><path fill-rule="evenodd" clip-rule="evenodd" d="M4 1.333a2 2 0 0 0-2 2v9.334a2 2 0 0 0 2 2h8a2 2 0 0 0 2-2V3.333a2 2 0 0 0-2-2H4Zm3.333 1.334h1.334v.666H7.333v-.666Zm0 1.333h1.334v.667H7.333V4Zm1.334 1.333H7.333V6h1.334v-.667ZM7.333 6.667h1.334v.666H7.333v-.666ZM8.667 8H7.333v.667h1.334V8ZM7.333 9.333h1.334v1.334a.667.667 0 1 1-1.334 0V9.333Z" fill="url(#aga)"/><defs><linearGradient id="aga" x1="8" y1="1.333" x2="8" y2="14.667" gradientUnits="userSpaceOnUse"><stop stop-color="#888D95"/><stop offset="1" stop-color="#6E747D"/></linearGradient></defs></svg><view id="icon-dmg-24" viewBox="16 32 16 16"/><svg width="16" height="16" fill="none" viewBox="0 0 16 16" x="16" y="32" xmlns="http://www.w3.org/2000/svg"><path d="M9.667 11.333a.333.333 0 0 0 0 .667h.666a.333.333 0 1 0 0-.667h-.666Z" fill="url(#aha)"/><path d="M11.333 11.667a.333.333 0 1 1 .667 0 .333.333 0 0 1-.667 0Z" fill="url(#ahb)"/><path fill-rule="evenodd" clip-rule="evenodd" d="M2.012 11.425A2.333 2.333 0 0 0 4.332 14h7.335a2.333 2.333 0 0 0 2.32-2.588c-.085-1.273-1.104-6.78-1.104-6.78a2.333 2.333 0 0 0-2.304-1.965H5.42A2.333 2.333 0 0 0 3.117 4.63s-.983 5.31-1.105 6.794Zm1.321.242a1 1 0 0 1 1-1h7.334a1 1 0 1 1 0 2H4.333a1 1 0 0 1-1-1Z" fill="url(#ahc)"/><defs><linearGradient id="aha" x1="8" y1="2.667" x2="8" y2="14" gradientUnits="userSpaceOnUse"><stop stop-color="#888D95"/><stop offset="1" stop-color="#6E747D"/></linearGradient><linearGradient id="ahb" x1="8" y1="2.667" x2="8" y2="14" gradientUnits="userSpaceOnUse"><stop stop-color="#888D95"/><stop offset="1" stop-color="#6E747D"/></linearGradient><linearGradient id="ahc" x1="8" y1="2.667" x2="8" y2="14" gradientUnits="userSpaceOnUse"><stop stop-color="#888D95"/><stop offset="1" stop-color="#6E747D"/></linearGradient></defs></svg><view id="icon-excel-24" viewBox="32 32 16 16"/><svg width="16" height="16" fill="none" viewBox="0 0 16 16" x="32" y="32" xmlns="http://www.w3.org/2000/svg"><path fill-rule="evenodd" clip-rule="evenodd" d="M4 1.333a2 2 0 0 0-2 2v9.334a2 2 0 0 0 2 2h8a2 2 0 0 0 2-2V3.333a2 2 0 0 0-2-2H4Zm4 5.778L6.667 5.333H5.333l2 2.667-2 2.667h1.334L8 8.889l1.333 1.778h1.334L8.667 8l2-2.667H9.333L8 7.111Z" fill="url(#aia)"/><defs><linearGradient id="aia" x1="8" y1="1.333" x2="8" y2="14.667" gradientUnits="userSpaceOnUse"><stop stop-color="#29DD74"/><stop offset="1" stop-color="#09BF5B"/></linearGradient></defs></svg><view id="icon-executable-24" viewBox="48 0 16 16"/><svg width="16" height="16" fill="none" viewBox="0 0 16 16" x="48" xmlns="http://www.w3.org/2000/svg"><path fill-rule="evenodd" clip-rule="evenodd" d="M6.333 8a1.667 1.667 0 1 1 3.334 0 1.667 1.667 0 0 1-3.334 0ZM8 7.333a.667.667 0 1 0 0 1.334.667.667 0 0 0 0-1.334Z" fill="url(#aja)"/><path fill-rule="evenodd" clip-rule="evenodd" d="M4 1.333a2 2 0 0 0-2 2v9.334a2 2 0 0 0 2 2h8a2 2 0 0 0 2-2V3.333a2 2 0 0 0-2-2H4Zm6.69 7.758a.6.6 0 0 0 .12.662l.023.022a.728.728 0 1 1-1.03 1.029l-.021-.022a.6.6 0 0 0-.662-.12.6.6 0 0 0-.364.549v.062a.727.727 0 1 1-1.454 0v-.033a.6.6 0 0 0-.393-.55.6.6 0 0 0-.662.12l-.022.023a.726.726 0 0 1-1.242-.515.727.727 0 0 1 .213-.514l.022-.022a.6.6 0 0 0 .12-.662.6.6 0 0 0-.549-.364h-.062a.727.727 0 1 1 0-1.454h.033a.6.6 0 0 0 .55-.393.6.6 0 0 0-.12-.662l-.023-.022a.727.727 0 1 1 1.03-1.029l.021.022a.6.6 0 0 0 .662.12h.03a.6.6 0 0 0 .363-.549v-.062a.727.727 0 1 1 1.454 0v.033a.6.6 0 0 0 .364.55.6.6 0 0 0 .662-.12l.022-.023a.727.727 0 1 1 1.029 1.03l-.022.021a.6.6 0 0 0-.12.662v.03a.6.6 0 0 0 .549.363h.062a.727.727 0 1 1 0 1.454h-.033a.6.6 0 0 0-.55.364Z" fill="url(#ajb)"/><defs><linearGradient id="aja" x1="8" y1="1.333" x2="8" y2="14.667" gradientUnits="userSpaceOnUse"><stop stop-color="#888D95"/><stop offset="1" stop-color="#6E747D"/></linearGradient><linearGradient id="ajb" x1="8" y1="1.333" x2="8" y2="14.667" gradientUnits="userSpaceOnUse"><stop stop-color="#888D95"/><stop offset="1" stop-color="#6E747D"/></linearGradient></defs></svg><view id="icon-experiencedesign-24" viewBox="48 16 16 16"/><svg width="16" height="16" fill="none" viewBox="0 0 16 16" x="48" y="16" xmlns="http://www.w3.org/2000/svg"><path d="M10.722 9.586V7.662a1.397 1.397 0 0 0-.28-.028 1.088 1.088 0 0 0-.493.112.907.907 0 0 0-.515.881c-.003.154.022.307.074.451.043.117.11.223.197.31.084.081.185.142.296.177.118.038.24.057.363.056.066 0 .127-.002.184-.007a.955.955 0 0 0 .174-.028Z" fill="url(#aka)"/><path fill-rule="evenodd" clip-rule="evenodd" d="M4 1.333a2 2 0 0 0-2 2v9.334a2 2 0 0 0 2 2h8a2 2 0 0 0 2-2V3.333a2 2 0 0 0-2-2H4Zm6.273 9.127a2.183 2.183 0 0 1-.941-.198 1.496 1.496 0 0 1-.66-.595 1.905 1.905 0 0 1-.239-.997 1.84 1.84 0 0 1 .24-.924 1.76 1.76 0 0 1 .698-.676 2.252 2.252 0 0 1 1.243-.248l.124.008V5.583a.113.113 0 0 1 .096-.127h.682a.128.128 0 0 1 .127.127V9.6c0 .08.004.167.01.26.008.095.014.18.018.254a.073.073 0 0 1-.042.07 3.237 3.237 0 0 1-.68.212c-.223.042-.45.063-.676.064ZM8.322 5.832 7.01 7.942l1.402 2.284a.073.073 0 0 1 .007.053c-.005.016-.02.027-.05.031h-1a.158.158 0 0 1-.148-.07c-.05-.098-.1-.192-.151-.286a20.834 20.834 0 0 1-.13-.247c-.095-.18-.195-.365-.3-.553-.106-.188-.21-.378-.314-.57H6.32c-.094.187-.191.375-.292.563-.102.188-.201.375-.3.56-.069.13-.14.253-.21.378l-.093.162a.1.1 0 0 1-.099.063h-.965a.03.03 0 0 1-.012 0 .03.03 0 0 1-.02-.027.07.07 0 0 1 .01-.05l1.36-2.22-1.324-2.188c-.014-.019-.016-.034-.007-.046a.051.051 0 0 1 .042-.018h.994a.147.147 0 0 1 .063.011c.017.01.032.023.043.039.054.122.113.22.176.327.034.057.07.117.105.183.104.188.208.373.314.557.106.183.203.368.293.556h.007c.094-.192.189-.38.285-.563.096-.184.195-.368.296-.554.046-.085.092-.158.137-.23a3.73 3.73 0 0 0 .156-.27.107.107 0 0 1 .028-.045.102.102 0 0 1 .056-.01h.923a.04.04 0 0 1 .036.07Z" fill="url(#akb)"/><defs><linearGradient id="aka" x1="8" y1="1.333" x2="8" y2="14.667" gradientUnits="userSpaceOnUse"><stop stop-color="#ED73CC"/><stop offset="1" stop-color="#E248C2"/></linearGradient><linearGradient id="akb" x1="8" y1="1.333" x2="8" y2="14.667" gradientUnits="userSpaceOnUse"><stop stop-color="#ED73CC"/><stop offset="1" stop-color="#E248C2"/></linearGradient></defs></svg><view id="icon-folder-24" viewBox="48 32 16 16"/><svg width="16" height="16" fill="none" viewBox="0 0 16 16" x="48" y="32" xmlns="http://www.w3.org/2000/svg"><path d="M2 4c0-.736.597-1.333 1.333-1.333h3.724c.177 0 .347.07.472.195l.942.943A.667.667 0 0 0 8.943 4h3.724C13.403 4 14 4.597 14 5.333V12c0 .736-.597 1.333-1.333 1.333H3.333A1.333 1.333 0 0 1 2 12V4Z" fill="url(#ala)"/><defs><linearGradient id="ala" x1="8" y1="2.667" x2="8" y2="13.333" gradientUnits="userSpaceOnUse"><stop stop-color="#FDC121"/><stop offset="1" stop-color="#F7A308"/></linearGradient></defs></svg><view id="icon-folder-backup-24" viewBox="0 48 16 16"/><svg width="16" height="16" fill="none" viewBox="0 0 16 16" y="48" xmlns="http://www.w3.org/2000/svg"><path d="M8.333 10.667V9.47l.529.529a.333.333 0 1 0 .471-.471L8.236 8.43a.333.333 0 0 0-.472 0L6.667 9.529a.333.333 0 1 0 .471.471l.529-.529v1.196h.666Z" fill="url(#ama)"/><path fill-rule="evenodd" clip-rule="evenodd" d="M3.333 2.667C2.597 2.667 2 3.264 2 4v8c0 .736.597 1.333 1.333 1.333h9.334c.736 0 1.333-.597 1.333-1.333V5.333C14 4.597 13.403 4 12.667 4H8.943a.667.667 0 0 1-.472-.195l-.942-.943a.667.667 0 0 0-.472-.195H3.333Zm5 8h1.16A1.47 1.47 0 0 0 10.948 9.2c0-.81-.66-1.467-1.474-1.467h-.022A1.81 1.81 0 0 0 7.8 6.667 1.804 1.804 0 0 0 5.993 8.54c-.53.065-.94.515-.94 1.059 0 .59.48 1.067 1.072 1.067h1.542v1a.333.333 0 0 0 .666 0v-1Z" fill="url(#amb)"/><defs><linearGradient id="ama" x1="8" y1="2.667" x2="8" y2="13.333" gradientUnits="userSpaceOnUse"><stop stop-color="#FDC121"/><stop offset="1" stop-color="#F7A308"/></linearGradient><linearGradient id="amb" x1="8" y1="2.667" x2="8" y2="13.333" gradientUnits="userSpaceOnUse"><stop stop-color="#FDC121"/><stop offset="1" stop-color="#F7A308"/></linearGradient></defs></svg><view id="icon-folder-camera-uploads-24" viewBox="16 48 16 16"/><svg width="16" height="16" fill="none" viewBox="0 0 16 16" x="16" y="48" xmlns="http://www.w3.org/2000/svg"><path fill-rule="evenodd" clip-rule="evenodd" d="M8 10.667a2 2 0 1 0 0-4 2 2 0 0 0 0 4ZM8 10a1.333 1.333 0 1 0 0-2.667A1.333 1.333 0 0 0 8 10Z" fill="url(#ana)"/><path fill-rule="evenodd" clip-rule="evenodd" d="M3.333 2.667C2.597 2.667 2 3.264 2 4v8c0 .736.597 1.333 1.333 1.333h9.334c.736 0 1.333-.597 1.333-1.333V5.333C14 4.597 13.403 4 12.667 4H8.943a.667.667 0 0 1-.472-.195l-.942-.943a.667.667 0 0 0-.472-.195H3.333Zm1.334 4c0-.369.298-.667.666-.667h5.334c.368 0 .666.298.666.667v4a.667.667 0 0 1-.666.666H5.333a.667.667 0 0 1-.666-.666v-4Z" fill="url(#anb)"/><defs><linearGradient id="ana" x1="8" y1="2.667" x2="8" y2="13.333" gradientUnits="userSpaceOnUse"><stop stop-color="#FDC121"/><stop offset="1" stop-color="#F7A308"/></linearGradient><linearGradient id="anb" x1="8" y1="2.667" x2="8" y2="13.333" gradientUnits="userSpaceOnUse"><stop stop-color="#FDC121"/><stop offset="1" stop-color="#F7A308"/></linearGradient></defs></svg><view id="icon-folder-chat-24" viewBox="32 48 16 16"/><svg width="16" height="16" fill="none" viewBox="0 0 16 16" x="32" y="48" xmlns="http://www.w3.org/2000/svg"><path fill-rule="evenodd" clip-rule="evenodd" d="M3.333 2.667C2.597 2.667 2 3.264 2 4v8c0 .736.597 1.333 1.333 1.333h9.334c.736 0 1.333-.597 1.333-1.333V5.333C14 4.597 13.403 4 12.667 4H8.943a.667.667 0 0 1-.472-.195l-.942-.943a.667.667 0 0 0-.472-.195H3.333ZM8 6c1.664 0 3 1.202 3 2.667 0 1.464-1.336 2.666-3 2.666a3.298 3.298 0 0 1-1.207-.225.463.463 0 0 0-.257-.029l-1.26.25a.232.232 0 0 1-.22-.076.226.226 0 0 1-.041-.228l.314-.83a.481.481 0 0 0-.045-.394A2.417 2.417 0 0 1 5 8.667C5 7.202 6.336 6 8 6Z" fill="url(#aoa)"/><defs><linearGradient id="aoa" x1="8" y1="2.667" x2="8" y2="13.333" gradientUnits="userSpaceOnUse"><stop stop-color="#FDC121"/><stop offset="1" stop-color="#F7A308"/></linearGradient></defs></svg><view id="icon-folder-incoming-24" viewBox="48 48 16 16"/><svg width="16" height="16" fill="none" viewBox="0 0 16 16" x="48" y="48" xmlns="http://www.w3.org/2000/svg"><path fill-rule="evenodd" clip-rule="evenodd" d="M3.333 2.667C2.597 2.667 2 3.264 2 4v8c0 .736.597 1.333 1.333 1.333h9.334c.736 0 1.333-.597 1.333-1.333V5.333C14 4.597 13.403 4 12.667 4H8.943a.667.667 0 0 1-.472-.195l-.942-.943a.667.667 0 0 0-.472-.195H3.333Zm2 4.333A.333.333 0 0 1 6 7v3.333a.333.333 0 1 1-.667 0V7Zm3.098 3.569a.333.333 0 1 0 .471-.471L7.805 9H11a.333.333 0 1 0 0-.667H7.805l1.097-1.097a.333.333 0 0 0-.471-.472L6.766 8.43a.332.332 0 0 0-.024.45l1.689 1.69Z" fill="url(#apa)"/><defs><linearGradient id="apa" x1="8" y1="2.667" x2="8" y2="13.333" gradientUnits="userSpaceOnUse"><stop stop-color="#FDC121"/><stop offset="1" stop-color="#F7A308"/></linearGradient></defs></svg><view id="icon-folder-outgoing-24" viewBox="64 0 16 16"/><svg width="16" height="16" fill="none" viewBox="0 0 16 16" x="64" xmlns="http://www.w3.org/2000/svg"><path fill-rule="evenodd" clip-rule="evenodd" d="M3.333 2.667C2.597 2.667 2 3.264 2 4v8c0 .736.597 1.333 1.333 1.333h9.334c.736 0 1.333-.597 1.333-1.333V5.333C14 4.597 13.403 4 12.667 4H8.943a.667.667 0 0 1-.472-.195l-.942-.943a.667.667 0 0 0-.472-.195H3.333ZM6 7a.333.333 0 1 0-.667 0v3.333a.333.333 0 1 0 .667 0V7Zm3.569-.236a.333.333 0 0 0-.471.472l1.097 1.097H7A.333.333 0 0 0 7 9h3.195l-1.097 1.098a.333.333 0 0 0 .471.471l1.665-1.665a.332.332 0 0 0 .024-.449l-1.689-1.69Z" fill="url(#aqa)"/><defs><linearGradient id="aqa" x1="8" y1="2.667" x2="8" y2="13.333" gradientUnits="userSpaceOnUse"><stop stop-color="#FDC121"/><stop offset="1" stop-color="#F7A308"/></linearGradient></defs></svg><view id="icon-folder-public-24" viewBox="64 16 16 16"/><svg width="16" height="16" fill="none" viewBox="0 0 16 16" x="64" y="16" xmlns="http://www.w3.org/2000/svg"><path d="M2 4c0-.736.597-1.333 1.333-1.333h3.724c.177 0 .347.07.472.195l.942.943A.667.667 0 0 0 8.943 4h3.724C13.403 4 14 4.597 14 5.333V12c0 .736-.597 1.333-1.333 1.333h-5A.333.333 0 0 1 7.333 13V9a1 1 0 0 0-1-1h-4A.333.333 0 0 1 2 7.667V4Z" fill="url(#ara)"/><path d="M6.569 8.764A.332.332 0 0 1 6.667 9v4A.333.333 0 0 1 6 13V9.805l-3.431 3.43a.333.333 0 1 1-.471-.47l3.43-3.432H2.334a.333.333 0 0 1 0-.666h4a.333.333 0 0 1 .236.097Z" fill="url(#arb)"/><defs><linearGradient id="ara" x1="8" y1="2.667" x2="8" y2="13.333" gradientUnits="userSpaceOnUse"><stop stop-color="#FDC121"/><stop offset="1" stop-color="#F7A308"/></linearGradient><linearGradient id="arb" x1="8" y1="2.667" x2="8" y2="13.333" gradientUnits="userSpaceOnUse"><stop stop-color="#FDC121"/><stop offset="1" stop-color="#F7A308"/></linearGradient></defs></svg><view id="icon-folder-sync-24" viewBox="64 32 16 16"/><svg width="16" height="16" fill="none" viewBox="0 0 16 16" x="64" y="32" xmlns="http://www.w3.org/2000/svg"><path fill-rule="evenodd" clip-rule="evenodd" d="M3.333 2.667C2.597 2.667 2 3.264 2 4v8c0 .736.597 1.333 1.333 1.333h9.334c.736 0 1.333-.597 1.333-1.333V5.333C14 4.597 13.403 4 12.667 4H8.943a.667.667 0 0 1-.472-.195l-.942-.943a.667.667 0 0 0-.472-.195H3.333Zm6.937 6.18c.018-.117.12-.196.229-.178.108.019.182.128.165.244-.209 1.402-1.326 2.42-2.655 2.42-.883 0-1.696-.462-2.194-1.213l-.087.478a.203.203 0 0 1-.195.173.176.176 0 0 1-.038-.004c-.108-.023-.179-.135-.158-.25l.189-1.035c.02-.116.125-.192.233-.169l.968.202c.108.022.178.134.157.25-.02.115-.125.19-.233.168l-.545-.114c.42.672 1.13 1.088 1.903 1.088 1.132 0 2.083-.867 2.261-2.06Zm.003-2.11c.021-.115.126-.19.234-.168.107.023.177.135.156.251l-.191 1.038a.22.22 0 0 1-.085.136.19.19 0 0 1-.149.031l-.964-.205c-.108-.023-.178-.135-.157-.25.021-.117.126-.192.234-.169l.529.113c-.42-.67-1.127-1.086-1.895-1.086-1.128 0-2.076.866-2.256 2.059a.204.204 0 0 1-.197.18.212.212 0 0 1-.031-.003c-.109-.02-.182-.129-.165-.245C5.548 7.017 6.66 6 7.985 6c.885 0 1.7.47 2.197 1.232l.09-.495Z" fill="url(#asa)"/><defs><linearGradient id="asa" x1="8" y1="2.667" x2="8" y2="13.333" gradientUnits="userSpaceOnUse"><stop stop-color="#FDC121"/><stop offset="1" stop-color="#F7A308"/></linearGradient></defs></svg><view id="icon-folder-upload-24" viewBox="64 48 16 16"/><svg width="16" height="16" fill="none" viewBox="0 0 16 16" x="64" y="48" xmlns="http://www.w3.org/2000/svg"><path fill-rule="evenodd" clip-rule="evenodd" d="M3.333 2.667C2.597 2.667 2 3.264 2 4v8c0 .736.597 1.333 1.333 1.333h9.334c.736 0 1.333-.597 1.333-1.333V5.333C14 4.597 13.403 4 12.667 4H8.943a.667.667 0 0 1-.472-.195l-.942-.943a.667.667 0 0 0-.472-.195H3.333Zm4.431 3.43c.13-.13.342-.13.472 0l1.666 1.667a.333.333 0 0 1-.471.472L8.333 7.138v2.529a.333.333 0 0 1-.666 0V7.138L6.569 8.236a.333.333 0 1 1-.471-.472l1.666-1.666Zm-1.43 4.57a.333.333 0 1 0 0 .666h3.333a.333.333 0 1 0 0-.666H6.333Z" fill="url(#ata)"/><defs><linearGradient id="ata" x1="8" y1="2.667" x2="8" y2="13.333" gradientUnits="userSpaceOnUse"><stop stop-color="#FDC121"/><stop offset="1" stop-color="#F7A308"/></linearGradient></defs></svg><view id="icon-folder-users-24" viewBox="0 64 16 16"/><svg width="16" height="16" fill="none" viewBox="0 0 16 16" y="64" xmlns="http://www.w3.org/2000/svg"><path fill-rule="evenodd" clip-rule="evenodd" d="M3.333 2.667C2.597 2.667 2 3.264 2 4v8c0 .736.597 1.333 1.333 1.333h9.334c.736 0 1.333-.597 1.333-1.333V5.333C14 4.597 13.403 4 12.667 4H8.943a.667.667 0 0 1-.472-.195l-.942-.943a.667.667 0 0 0-.472-.195H3.333Zm4 6a1.333 1.333 0 1 0 0-2.667 1.333 1.333 0 0 0 0 2.667Zm2.269 2.666c.2 0 .357-.176.304-.37a2.668 2.668 0 0 0-5.146 0c-.052.194.104.37.305.37h4.537ZM8.587 8.431A1.66 1.66 0 0 0 9 7.333c0-.42-.156-.805-.413-1.098-.078-.089-.039-.235.08-.235a1.333 1.333 0 0 1 0 2.667c-.119 0-.158-.146-.08-.236Zm2.024 2.902a.36.36 0 0 1-.345-.29 2.99 2.99 0 0 0-1.159-1.796c-.093-.07-.046-.22.068-.199 1 .193 1.8.944 2.064 1.915.053.194-.103.37-.304.37h-.325Z" fill="url(#aua)"/><defs><linearGradient id="aua" x1="8" y1="2.667" x2="8" y2="13.333" gradientUnits="userSpaceOnUse"><stop stop-color="#FDC121"/><stop offset="1" stop-color="#F7A308"/></linearGradient></defs></svg><view id="icon-font-24" viewBox="16 64 16 16"/><svg width="16" height="16" fill="none" viewBox="0 0 16 16" x="16" y="64" xmlns="http://www.w3.org/2000/svg"><path d="M7.653 6.161 8.76 8.795h-2.24l1.134-2.634Z" fill="url(#ava)"/><path fill-rule="evenodd" clip-rule="evenodd" d="M4 1.333a2 2 0 0 0-2 2v9.334a2 2 0 0 0 2 2h8a2 2 0 0 0 2-2V3.333a2 2 0 0 0-2-2H4Zm2.37 7.818h2.523l.395.937c.128.305.192.528.192.669a.335.335 0 0 1-.137.269c-.091.073-.267.117-.526.13v.177h2.571v-.178c-.266-.015-.473-.088-.622-.218-.15-.13-.315-.413-.498-.849L8 4.667h-.168L5.538 10.03c-.198.47-.38.783-.543.937-.08.077-.256.14-.528.188v.177h2.052v-.178c-.314-.022-.518-.07-.613-.146-.094-.075-.142-.163-.142-.262 0-.125.055-.314.164-.567L6.37 9.15Z" fill="url(#avb)"/><defs><linearGradient id="ava" x1="8" y1="1.333" x2="8" y2="14.667" gradientUnits="userSpaceOnUse"><stop stop-color="#888D95"/><stop offset="1" stop-color="#6E747D"/></linearGradient><linearGradient id="avb" x1="8" y1="1.333" x2="8" y2="14.667" gradientUnits="userSpaceOnUse"><stop stop-color="#888D95"/><stop offset="1" stop-color="#6E747D"/></linearGradient></defs></svg><view id="icon-generic-24" viewBox="32 64 16 16"/><svg width="16" height="16" fill="none" viewBox="0 0 16 16" x="32" y="64" xmlns="http://www.w3.org/2000/svg"><path fill-rule="evenodd" clip-rule="evenodd" d="M4 1.333a2 2 0 0 0-2 2v9.334a2 2 0 0 0 2 2h8a2 2 0 0 0 2-2V4.886c0-.354-.14-.693-.39-.943l-2.22-2.22c-.25-.25-.589-.39-.942-.39H4Zm6.951.952a.167.167 0 0 0-.284.117V4.5c0 .092.074.167.166.167h2.098c.148 0 .223-.18.118-.285L10.95 2.285Z" fill="url(#awa)"/><defs><linearGradient id="awa" x1="8" y1="1.333" x2="8" y2="14.667" gradientUnits="userSpaceOnUse"><stop stop-color="#888D95"/><stop offset="1" stop-color="#6E747D"/></linearGradient></defs></svg><view id="icon-illustrator-24" viewBox="48 64 16 16"/><svg width="16" height="16" fill="none" viewBox="0 0 16 16" x="48" y="64" xmlns="http://www.w3.org/2000/svg"><path d="M6.484 8.41h1.193c-.014-.047-.045-.124-.078-.205a3.806 3.806 0 0 1-.085-.223c-.018-.056-.039-.107-.06-.16a2.122 2.122 0 0 1-.071-.185l-.127-.402a13.275 13.275 0 0 1-.116-.388 35.967 35.967 0 0 1-.096-.341h-.007c-.04.19-.089.378-.148.563-.066.212-.133.428-.2.649-.028.09-.057.191-.085.291-.04.146-.081.29-.12.401Z" fill="url(#axa)"/><path fill-rule="evenodd" clip-rule="evenodd" d="M4 1.333a2 2 0 0 0-2 2v9.334a2 2 0 0 0 2 2h8a2 2 0 0 0 2-2V3.333a2 2 0 0 0-2-2H4Zm6.208 5.142a.511.511 0 0 1-.502-.34.558.558 0 0 1-.034-.217.517.517 0 0 1 .34-.506.544.544 0 0 1 .21-.036.524.524 0 0 1 .398.151.543.543 0 0 1 .145.391.552.552 0 0 1-.152.402.54.54 0 0 1-.405.155Zm-.457 3.766V7.019c0-.043.02-.064.057-.064h.8c.038 0 .057.021.057.064v3.222c0 .047-.019.07-.056.07h-.794c-.042 0-.064-.023-.064-.07ZM7.867 9.16H6.24l-.332 1.087a.083.083 0 0 1-.085.063h-.824c-.047 0-.064-.026-.05-.078l1.406-4.059a2.19 2.19 0 0 0 .042-.144.981.981 0 0 0 .03-.261.044.044 0 0 1 .048-.03h1.12c.033 0 .052.012.056.036l1.604 4.465c.015.047 0 .071-.042.07h-.916a.065.065 0 0 1-.07-.048L7.866 9.16Z" fill="url(#axb)"/><defs><linearGradient id="axa" x1="8" y1="1.333" x2="8" y2="14.667" gradientUnits="userSpaceOnUse"><stop stop-color="#FD853A"/><stop offset="1" stop-color="#FB6514"/></linearGradient><linearGradient id="axb" x1="8" y1="1.333" x2="8" y2="14.667" gradientUnits="userSpaceOnUse"><stop stop-color="#FD853A"/><stop offset="1" stop-color="#FB6514"/></linearGradient></defs></svg><view id="icon-image-24" viewBox="64 64 16 16"/><svg width="16" height="16" fill="none" viewBox="0 0 16 16" x="64" y="64" xmlns="http://www.w3.org/2000/svg"><path fill-rule="evenodd" clip-rule="evenodd" d="M4 1.333a2 2 0 0 0-2 2v9.334a2 2 0 0 0 2 2h8a2 2 0 0 0 2-2V3.333a2 2 0 0 0-2-2H4ZM4.667 6a1.333 1.333 0 1 1 2.666 0 1.333 1.333 0 0 1-2.666 0Zm4.626.707-5.414 5.414a.71.71 0 0 0 .502 1.212h7.286a1 1 0 0 0 1-1V9.081a1 1 0 0 0-.293-.707l-1.667-1.667a1 1 0 0 0-1.414 0Z" fill="url(#aya)"/><defs><linearGradient id="aya" x1="8" y1="1.333" x2="8" y2="14.667" gradientUnits="userSpaceOnUse"><stop stop-color="#31D0FE"/><stop offset="1" stop-color="#05BAF1"/></linearGradient></defs></svg><view id="icon-indesign-24" viewBox="80 0 16 16"/><svg width="16" height="16" fill="none" viewBox="0 0 16 16" x="80" xmlns="http://www.w3.org/2000/svg"><path d="M9.54 9.531V7.607a1.31 1.31 0 0 0-.154-.02 1.396 1.396 0 0 0-.144-.008 1.088 1.088 0 0 0-.493.113.907.907 0 0 0-.515.88c-.003.155.022.307.074.452.043.116.11.222.197.31.084.08.185.141.296.176.118.038.24.057.363.057.066 0 .127-.003.184-.007.065-.004.13-.014.192-.029Z" fill="url(#aza)"/><path fill-rule="evenodd" clip-rule="evenodd" d="M4 1.333a2 2 0 0 0-2 2v9.334a2 2 0 0 0 2 2h8a2 2 0 0 0 2-2V3.333a2 2 0 0 0-2-2H4Zm5.073 9.072a2.185 2.185 0 0 1-.941-.197 1.495 1.495 0 0 1-.659-.596 1.905 1.905 0 0 1-.24-.997 1.84 1.84 0 0 1 .24-.923c.164-.287.406-.521.698-.677a2.252 2.252 0 0 1 1.245-.247l.124.008V5.442c0-.033.015-.05.043-.05h.817a.037.037 0 0 1 .04.025.037.037 0 0 1 .002.018v4.11c0 .08.004.167.01.261.008.094.014.179.018.254a.073.073 0 0 1-.042.07 3.225 3.225 0 0 1-.679.212 3.82 3.82 0 0 1-.676.063ZM6.456 5.823v4.416c0 .047-.021.07-.064.07h-.806c-.038 0-.056-.023-.056-.07V5.822c0-.037.02-.056.063-.056h.806a.05.05 0 0 1 .057.056Z" fill="url(#azb)"/><defs><linearGradient id="aza" x1="8" y1="1.333" x2="8" y2="14.667" gradientUnits="userSpaceOnUse"><stop stop-color="#FD6F90"/><stop offset="1" stop-color="#F63D6B"/></linearGradient><linearGradient id="azb" x1="8" y1="1.333" x2="8" y2="14.667" gradientUnits="userSpaceOnUse"><stop stop-color="#FD6F90"/><stop offset="1" stop-color="#F63D6B"/></linearGradient></defs></svg><view id="icon-keynote-24" viewBox="80 16 16 16"/><svg width="16" height="16" fill="none" viewBox="0 0 16 16" x="80" y="16" xmlns="http://www.w3.org/2000/svg"><path fill-rule="evenodd" clip-rule="evenodd" d="M4 1.333a2 2 0 0 0-2 2v9.334a2 2 0 0 0 2 2h8a2 2 0 0 0 2-2V3.333a2 2 0 0 0-2-2H4ZM11.333 9v-.333H4.667V9a.34.34 0 0 0 .34.333h2.657v1.345a.662.662 0 0 1-.582.656h-.755a.334.334 0 0 0 0 .666h3.346c.175 0 .327-.15.327-.333l-.005-.059a.333.333 0 0 0-.322-.275h-.76a.666.666 0 0 1-.58-.655l-.001-1.345h2.662c.188 0 .34-.149.34-.333ZM8 4.333A.333.333 0 0 0 7.667 4H6l-.078.004a.667.667 0 0 0-.589.663v.667a.359.359 0 0 0-.349.326l-.136 2.013a.302.302 0 0 0 .31.327h5.684a.302.302 0 0 0 .31-.327l-.136-2.013a.36.36 0 0 0-.362-.327H5.667v-.666l.005-.06A.333.333 0 0 1 6 4.333h.667c0 .184.149.334.333.334h.667c.184 0 .333-.15.333-.334Z" fill="url(#baa)"/><defs><linearGradient id="baa" x1="8" y1="1.333" x2="8" y2="14.667" gradientUnits="userSpaceOnUse"><stop stop-color="#69A3FB"/><stop offset="1" stop-color="#477EF7"/></linearGradient></defs></svg><view id="icon-numbers-24" viewBox="80 32 16 16"/><svg width="16" height="16" fill="none" viewBox="0 0 16 16" x="80" y="32" xmlns="http://www.w3.org/2000/svg"><path fill-rule="evenodd" clip-rule="evenodd" d="M4 1.333a2 2 0 0 0-2 2v9.334a2 2 0 0 0 2 2h8a2 2 0 0 0 2-2V3.333a2 2 0 0 0-2-2H4Zm5.333 3.334H8v6h1.333v-6ZM6 8h1.333v2.667H6V8Zm-.667 1.333H4v1.334h1.333V9.333Zm6 2H4V12h7.333v-.667ZM10 6.667h1.333v4H10v-4Z" fill="url(#bba)"/><defs><linearGradient id="bba" x1="8" y1="1.333" x2="8" y2="14.667" gradientUnits="userSpaceOnUse"><stop stop-color="#29DD74"/><stop offset="1" stop-color="#09BF5B"/></linearGradient></defs></svg><view id="icon-open-office-24" viewBox="80 48 16 16"/><svg width="16" height="16" fill="none" viewBox="0 0 16 16" x="80" y="48" xmlns="http://www.w3.org/2000/svg"><path fill-rule="evenodd" clip-rule="evenodd" d="M4 1.333a2 2 0 0 0-2 2v3.604a4.452 4.452 0 0 0-.615.272l-.015.008-.007.004a.079.079 0 0 0 .047.14H1.423c.002-.002.003-.002.005-.002A4.38 4.38 0 0 1 2 7.29v5.378a2 2 0 0 0 2 2h8a2 2 0 0 0 2-2V3.333a2 2 0 0 0-2-2H4ZM2 7.29c.22-.013.444-.009.67.013 1.192.116 2.23.49 2.96 1.335.038.04.071.038.11-.002.917-1.085 2.323-1.514 3.834-1.368a4.06 4.06 0 0 1 .286.037l.063.009c.05.006.077-.035.077-.078a.073.073 0 0 0-.041-.07l-.056-.029-.031-.016a4.427 4.427 0 0 0-1.528-.434 4.393 4.393 0 0 0-2.668.595A4.406 4.406 0 0 0 2 6.937v.353Zm8.644-2.957a.772.772 0 0 0-.03-.02l-.017-.01a2.048 2.048 0 0 0-.822-.29 2.006 2.006 0 0 0-1.437.397 2.07 2.07 0 0 0-.964-.383 1.988 1.988 0 0 0-1.346.334l-.009.006-.003.003A.058.058 0 0 0 6 4.41c0 .03.018.053.041.053a.018.018 0 0 0 .004 0h.003l.003-.001c.215-.05.44-.065.668-.038.642.077 1.202.327 1.594.89.02.027.039.025.06-.001.494-.724 1.25-1.01 2.064-.912a1.799 1.799 0 0 1 .188.03c.027.005.042-.023.042-.052 0-.02-.007-.036-.023-.046Z" fill="url(#bca)"/><defs><linearGradient id="bca" x1="7.667" y1="1.333" x2="7.667" y2="14.667" gradientUnits="userSpaceOnUse"><stop stop-color="#69A3FB"/><stop offset="1" stop-color="#477EF7"/></linearGradient></defs></svg><view id="icon-pages-24" viewBox="80 64 16 16"/><svg width="16" height="16" fill="none" viewBox="0 0 16 16" x="80" y="64" xmlns="http://www.w3.org/2000/svg"><path fill-rule="evenodd" clip-rule="evenodd" d="M4 1.333a2 2 0 0 0-2 2v9.334a2 2 0 0 0 2 2h8a2 2 0 0 0 2-2V3.333a2 2 0 0 0-2-2H4Zm9.333 10.334a.333.333 0 0 0-.333-.334H5A.333.333 0 0 0 5 12h8c.184 0 .333-.15.333-.333Zm-6.84-1.303L5.827 9.7a2.19 2.19 0 0 0-.174.28l-.262.524c-.164.327-.032.46.296.297l.525-.263c.085-.042.186-.106.283-.175Zm4.294-4.25-.712-.707L6.042 9.44c-.029.029-.06.063-.092.101l.7.7c.038-.031.072-.062.102-.091l4.035-4.037Zm.623-1.333-.056-.05-.061-.038a.498.498 0 0 0-.59.086l-.487.486.71.71.487-.486a.505.505 0 0 0-.002-.708Z" fill="url(#bda)"/><defs><linearGradient id="bda" x1="8" y1="1.333" x2="8" y2="14.667" gradientUnits="userSpaceOnUse"><stop stop-color="#FDC121"/><stop offset="1" stop-color="#F7A308"/></linearGradient></defs></svg><view id="icon-pdf-24" viewBox="0 80 16 16"/><svg width="16" height="16" fill="none" viewBox="0 0 16 16" y="80" xmlns="http://www.w3.org/2000/svg"><path d="M10.338 9.54c.324.082.506-.06.527-.202.04-.202-.122-.303-.284-.344-.425-.08-1.011-.02-1.275.02.304.244.648.426 1.033.527Z" fill="url(#bea)"/><path d="M7.647 5.069c-.06 0-.121.04-.162.101-.1.182-.162.749.142 1.558.142-.405.223-.83.243-1.254 0-.183-.04-.405-.223-.405Z" fill="url(#beb)"/><path d="M7.91 7.962c-.08.243-.303.81-.465 1.134.29-.097.63-.18.858-.234.153-.037.255-.062.255-.07a5.16 5.16 0 0 1-.648-.83Z" fill="url(#bec)"/><path d="M5.037 11.16c.263 0 .749-.486 1.214-1.255-.81.364-1.336.749-1.396 1.032-.02.081 0 .142.06.182.04.02.081.04.122.04Z" fill="url(#bed)"/><path fill-rule="evenodd" clip-rule="evenodd" d="M4 1.333a2 2 0 0 0-2 2v9.334a2 2 0 0 0 2 2h8a2 2 0 0 0 2-2V3.333a2 2 0 0 0-2-2H4Zm5.142 7.368c.445-.056 1.736-.218 2.229.293.141.162.202.385.1.587-.06.182-.242.385-.728.385-.364 0-1.052-.101-1.841-.79-.668.122-1.336.324-1.76.466-.507.87-1.235 1.902-1.984 1.902a.777.777 0 0 1-.506-.182.54.54 0 0 1-.162-.506c.102-.607 1.336-1.174 1.923-1.416.532-1.007.743-1.603.95-2.192l.041-.115c-.384-.87-.485-1.72-.242-2.145a.588.588 0 0 1 .485-.283c.567 0 .77.546.77 1.052a5.884 5.884 0 0 1-.325 1.68l.013.02c.132.22.47.785.959 1.254l.078-.01Z" fill="url(#bee)"/><defs><linearGradient id="bea" x1="8" y1="1.333" x2="8" y2="14.667" gradientUnits="userSpaceOnUse"><stop stop-color="#FB6361"/><stop offset="1" stop-color="#F23433"/></linearGradient><linearGradient id="beb" x1="8" y1="1.333" x2="8" y2="14.667" gradientUnits="userSpaceOnUse"><stop stop-color="#FB6361"/><stop offset="1" stop-color="#F23433"/></linearGradient><linearGradient id="bec" x1="8" y1="1.333" x2="8" y2="14.667" gradientUnits="userSpaceOnUse"><stop stop-color="#FB6361"/><stop offset="1" stop-color="#F23433"/></linearGradient><linearGradient id="bed" x1="8" y1="1.333" x2="8" y2="14.667" gradientUnits="userSpaceOnUse"><stop stop-color="#FB6361"/><stop offset="1" stop-color="#F23433"/></linearGradient><linearGradient id="bee" x1="8" y1="1.333" x2="8" y2="14.667" gradientUnits="userSpaceOnUse"><stop stop-color="#FB6361"/><stop offset="1" stop-color="#F23433"/></linearGradient></defs></svg><view id="icon-photoshop-24" viewBox="16 80 16 16"/><svg width="16" height="16" fill="none" viewBox="0 0 16 16" x="16" y="80" xmlns="http://www.w3.org/2000/svg"><path d="M6.02 6.541V8c.062.005.118.007.17.007h.232c.171.003.341-.021.504-.07a.76.76 0 0 0 .36-.233.677.677 0 0 0 .137-.451.712.712 0 0 0-.102-.388.657.657 0 0 0-.306-.25 1.306 1.306 0 0 0-.515-.088c-.113 0-.213.001-.3.004a1.902 1.902 0 0 0-.18.01Z" fill="url(#bfa)"/><path fill-rule="evenodd" clip-rule="evenodd" d="M4 1.333a2 2 0 0 0-2 2v9.334a2 2 0 0 0 2 2h8a2 2 0 0 0 2-2V3.333a2 2 0 0 0-2-2H4Zm1.048 8.915V5.745c0-.033.014-.05.042-.05.076 0 .165 0 .268-.003a121.48 121.48 0 0 1 1.114-.018c.306-.008.611.038.902.134.22.075.421.198.588.36.142.14.251.31.321.497.066.181.1.373.099.567.013.33-.078.655-.261.93-.175.245-.421.431-.705.532-.316.114-.65.17-.987.166-.103 0-.176-.001-.218-.004a3.822 3.822 0 0 0-.19-.003v1.388a.056.056 0 0 1-.038.061.057.057 0 0 1-.026.003h-.86c-.032 0-.049-.02-.049-.057Zm6.077-2.53a2.486 2.486 0 0 0-.508-.148 2.226 2.226 0 0 0-.49-.056.913.913 0 0 0-.264.031.237.237 0 0 0-.137.089.222.222 0 0 0-.035.12c.001.04.016.08.042.112a.48.48 0 0 0 .148.116c.1.055.204.103.31.145.237.08.463.187.673.32.143.091.262.216.345.364.07.14.106.294.103.45.004.207-.055.41-.17.582-.122.175-.292.31-.49.391a1.973 1.973 0 0 1-.792.141c-.2.002-.4-.017-.596-.056a2.187 2.187 0 0 1-.476-.141.09.09 0 0 1-.049-.085v-.761a.042.042 0 0 1 .018-.039.034.034 0 0 1 .039.004c.178.1.37.172.57.215.169.042.342.064.515.067a.79.79 0 0 0 .363-.064.199.199 0 0 0 .116-.183.234.234 0 0 0-.105-.176 1.75 1.75 0 0 0-.43-.205 2.592 2.592 0 0 1-.624-.317 1.074 1.074 0 0 1-.331-.37.97.97 0 0 1-.103-.447 1.01 1.01 0 0 1 .607-.93c.218-.12.464-.181.713-.179.198-.01.396-.007.594.01a2.028 2.028 0 0 1 .491.169.064.064 0 0 1 .017.024.193.193 0 0 1 .007.053v.712a.047.047 0 0 1-.021.042.046.046 0 0 1-.05 0Z" fill="url(#bfb)"/><defs><linearGradient id="bfa" x1="8" y1="1.333" x2="8" y2="14.667" gradientUnits="userSpaceOnUse"><stop stop-color="#31D0FE"/><stop offset="1" stop-color="#05BAF1"/></linearGradient><linearGradient id="bfb" x1="8" y1="1.333" x2="8" y2="14.667" gradientUnits="userSpaceOnUse"><stop stop-color="#31D0FE"/><stop offset="1" stop-color="#05BAF1"/></linearGradient></defs></svg><view id="icon-powerpoint-24" viewBox="32 80 16 16"/><svg width="16" height="16" fill="none" viewBox="0 0 16 16" x="32" y="80" xmlns="http://www.w3.org/2000/svg"><path d="M7.233 7.918V6.256h.485c.656 0 .984.274.984.822 0 .56-.328.84-.984.84h-.485Z" fill="url(#bga)"/><path fill-rule="evenodd" clip-rule="evenodd" d="M4 1.333a2 2 0 0 0-2 2v9.334a2 2 0 0 0 2 2h8a2 2 0 0 0 2-2V3.333a2 2 0 0 0-2-2H4Zm3.233 9.334V8.829h.588c.661 0 1.19-.165 1.585-.496.396-.331.594-.764.594-1.3 0-1.133-.69-1.7-2.069-1.7H6v5.334h1.233Z" fill="url(#bgb)"/><defs><linearGradient id="bga" x1="8" y1="1.333" x2="8" y2="14.667" gradientUnits="userSpaceOnUse"><stop stop-color="#FB6361"/><stop offset="1" stop-color="#F23433"/></linearGradient><linearGradient id="bgb" x1="8" y1="1.333" x2="8" y2="14.667" gradientUnits="userSpaceOnUse"><stop stop-color="#FB6361"/><stop offset="1" stop-color="#F23433"/></linearGradient></defs></svg><view id="icon-premiere-24" viewBox="48 80 16 16"/><svg width="16" height="16" fill="none" viewBox="0 0 16 16" x="48" y="80" xmlns="http://www.w3.org/2000/svg"><path d="M6.096 6.502v1.466c.029 0 .086.01.143.02.057.009.114.019.143.019h.228c.172 0 .343-.02.496-.077a.736.736 0 0 0 .362-.228.65.65 0 0 0 .133-.457.867.867 0 0 0-.095-.381.633.633 0 0 0-.305-.248 1.633 1.633 0 0 0-.514-.095h-.305c-.073.014-.192-.005-.251-.014a.381.381 0 0 0-.035-.005Z" fill="url(#bha)"/><path fill-rule="evenodd" clip-rule="evenodd" d="M4 1.333a2 2 0 0 0-2 2v9.334a2 2 0 0 0 2 2h8a2 2 0 0 0 2-2V3.333a2 2 0 0 0-2-2H4Zm1.182 8.883V5.721c0-.038.019-.057.038-.057h.99c.067 0 .143.01.22.019.076.01.152.019.218.019.305 0 .61.038.896.133a1.46 1.46 0 0 1 .914.857c.057.19.095.381.095.572.02.323-.076.647-.266.933a1.403 1.403 0 0 1-.705.533 2.929 2.929 0 0 1-.99.172h-.21a.871.871 0 0 1-.092-.013c-.068-.011-.155-.025-.213-.025v1.39c0 .038-.019.057-.057.057h-.8a.507.507 0 0 0-.015-.027.125.125 0 0 1-.023-.068Zm3.98-3.41h.763c.038 0 .076.039.095.077l.015.027c.013.022.023.04.023.068.02.038.02.095.02.133v.153c.132-.153.285-.286.475-.381.19-.115.4-.172.61-.153.038 0 .057.02.057.038v.877c0 .038-.02.057-.076.057-.153-.02-.286 0-.42.038-.133.019-.247.057-.361.114a.879.879 0 0 0-.286.172v2.228c0 .038-.019.057-.057.057h-.8c-.038 0-.057-.019-.076-.057V7.492c0-.114 0-.228-.02-.343 0-.047-.004-.095-.009-.142-.005-.048-.01-.096-.01-.143 0-.008 0-.013.002-.017.002-.006.007-.01.018-.021 0-.02.019-.02.038-.02Z" fill="url(#bhb)"/><defs><linearGradient id="bha" x1="8" y1="1.333" x2="8" y2="14.667" gradientUnits="userSpaceOnUse"><stop stop-color="#69A3FB"/><stop offset="1" stop-color="#477EF7"/></linearGradient><linearGradient id="bhb" x1="8" y1="1.333" x2="8" y2="14.667" gradientUnits="userSpaceOnUse"><stop stop-color="#69A3FB"/><stop offset="1" stop-color="#477EF7"/></linearGradient></defs></svg><view id="icon-raw-24" viewBox="64 80 16 16"/><svg width="16" height="16" fill="none" viewBox="0 0 16 16" x="64" y="80" xmlns="http://www.w3.org/2000/svg"><path fill-rule="evenodd" clip-rule="evenodd" d="M4 1.333a2 2 0 0 0-2 2v9.334a2 2 0 0 0 2 2h8a2 2 0 0 0 2-2V3.333a2 2 0 0 0-2-2H4ZM11.667 8c0-1.41-.797-2.636-1.965-3.249l.032.074a3.497 3.497 0 0 1-1.364 4.3 3.16 3.16 0 0 0 1.13.208c.821 0 1.569-.312 2.132-.824A3.71 3.71 0 0 0 11.667 8Zm-.145 1.024a3.484 3.484 0 0 1-2.022.643A3.49 3.49 0 0 1 7 8.617v.05c0 1.29.772 2.4 1.88 2.894a3.673 3.673 0 0 0 2.642-2.537Zm-3.185 2.627a3.498 3.498 0 0 1-1.416-4.296A3.17 3.17 0 0 0 4.863 9.9a3.665 3.665 0 0 0 3.474 1.752Zm.097-4.791a3.163 3.163 0 0 0-3.162-1.31A3.653 3.653 0 0 0 4.333 8c0 .504.102.985.287 1.422A3.502 3.502 0 0 1 8.434 6.86Zm.784-2.32A3.661 3.661 0 0 0 8 4.333c-.886 0-1.699.315-2.332.838a3.5 3.5 0 0 1 3.554 2.616 3.152 3.152 0 0 0 .445-1.62c0-.595-.164-1.151-.45-1.627Z" fill="url(#bia)"/><defs><linearGradient id="bia" x1="8" y1="1.333" x2="8" y2="14.667" gradientUnits="userSpaceOnUse"><stop stop-color="#31D0FE"/><stop offset="1" stop-color="#05BAF1"/></linearGradient></defs></svg><view id="icon-spreadsheet-24" viewBox="80 80 16 16"/><svg width="16" height="16" fill="none" viewBox="0 0 16 16" x="80" y="80" xmlns="http://www.w3.org/2000/svg"><path d="M5.333 10h1.334v1.333H5.333V10Z" fill="url(#bja)"/><path d="M9.333 10h1.334v1.333H9.333V10Z" fill="url(#bjb)"/><path d="M7.333 10h1.334v1.333H7.333V10Z" fill="url(#bjc)"/><path d="M5.333 8h1.334v1.333H5.333V8Z" fill="url(#bjd)"/><path d="M7.333 8h1.334v1.333H7.333V8Z" fill="url(#bje)"/><path d="M9.333 8h1.334v1.333H9.333V8Z" fill="url(#bjf)"/><path d="M5.333 6h1.334v1.333H5.333V6Z" fill="url(#bjg)"/><path d="M7.333 6h1.334v1.333H7.333V6Z" fill="url(#bjh)"/><path d="M9.333 6h1.334v1.333H9.333V6Z" fill="url(#bji)"/><path d="M5.333 4.667h1.334v.666H5.333v-.666Z" fill="url(#bjj)"/><path d="M9.333 4.667h1.334v.666H9.333v-.666Z" fill="url(#bjk)"/><path d="M7.333 4.667h1.334v.666H7.333v-.666Z" fill="url(#bjl)"/><path fill-rule="evenodd" clip-rule="evenodd" d="M4 1.333a2 2 0 0 0-2 2v9.334a2 2 0 0 0 2 2h8a2 2 0 0 0 2-2V3.333a2 2 0 0 0-2-2H4ZM4.667 12h6.666V4H4.667v8Z" fill="url(#bjm)"/><defs><linearGradient id="bja" x1="8" y1="1.333" x2="8" y2="14.667" gradientUnits="userSpaceOnUse"><stop stop-color="#29DD74"/><stop offset="1" stop-color="#09BF5B"/></linearGradient><linearGradient id="bjb" x1="8" y1="1.333" x2="8" y2="14.667" gradientUnits="userSpaceOnUse"><stop stop-color="#29DD74"/><stop offset="1" stop-color="#09BF5B"/></linearGradient><linearGradient id="bjc" x1="8" y1="1.333" x2="8" y2="14.667" gradientUnits="userSpaceOnUse"><stop stop-color="#29DD74"/><stop offset="1" stop-color="#09BF5B"/></linearGradient><linearGradient id="bjd" x1="8" y1="1.333" x2="8" y2="14.667" gradientUnits="userSpaceOnUse"><stop stop-color="#29DD74"/><stop offset="1" stop-color="#09BF5B"/></linearGradient><linearGradient id="bje" x1="8" y1="1.333" x2="8" y2="14.667" gradientUnits="userSpaceOnUse"><stop stop-color="#29DD74"/><stop offset="1" stop-color="#09BF5B"/></linearGradient><linearGradient id="bjf" x1="8" y1="1.333" x2="8" y2="14.667" gradientUnits="userSpaceOnUse"><stop stop-color="#29DD74"/><stop offset="1" stop-color="#09BF5B"/></linearGradient><linearGradient id="bjg" x1="8" y1="1.333" x2="8" y2="14.667" gradientUnits="userSpaceOnUse"><stop stop-color="#29DD74"/><stop offset="1" stop-color="#09BF5B"/></linearGradient><linearGradient id="bjh" x1="8" y1="1.333" x2="8" y2="14.667" gradientUnits="userSpaceOnUse"><stop stop-color="#29DD74"/><stop offset="1" stop-color="#09BF5B"/></linearGradient><linearGradient id="bji" x1="8" y1="1.333" x2="8" y2="14.667" gradientUnits="userSpaceOnUse"><stop stop-color="#29DD74"/><stop offset="1" stop-color="#09BF5B"/></linearGradient><linearGradient id="bjj" x1="8" y1="1.333" x2="8" y2="14.667" gradientUnits="userSpaceOnUse"><stop stop-color="#29DD74"/><stop offset="1" stop-color="#09BF5B"/></linearGradient><linearGradient id="bjk" x1="8" y1="1.333" x2="8" y2="14.667" gradientUnits="userSpaceOnUse"><stop stop-color="#29DD74"/><stop offset="1" stop-color="#09BF5B"/></linearGradient><linearGradient id="bjl" x1="8" y1="1.333" x2="8" y2="14.667" gradientUnits="userSpaceOnUse"><stop stop-color="#29DD74"/><stop offset="1" stop-color="#09BF5B"/></linearGradient><linearGradient id="bjm" x1="8" y1="1.333" x2="8" y2="14.667" gradientUnits="userSpaceOnUse"><stop stop-color="#29DD74"/><stop offset="1" stop-color="#09BF5B"/></linearGradient></defs></svg><view id="icon-takedown-24" viewBox="96 0 16 16"/><svg width="16" height="16" fill="none" viewBox="0 0 16 16" x="96" xmlns="http://www.w3.org/2000/svg"><path d="M8.375 7a.375.375 0 0 0-.75 0v1.25a.375.375 0 1 0 .75 0V7Z" fill="url(#bka)"/><path d="M8 9.25A.375.375 0 1 0 8 10h.003a.375.375 0 1 0 0-.75H8Z" fill="url(#bkb)"/><path fill-rule="evenodd" clip-rule="evenodd" d="M2 3.333a2 2 0 0 1 2-2h8a2 2 0 0 1 2 2v9.334a2 2 0 0 1-2 2H4a2 2 0 0 1-2-2V3.333Zm5.489 1.392a1.042 1.042 0 0 1 1.402.367v.002l2.827 4.718a1.041 1.041 0 0 1-.89 1.563H5.172a1.042 1.042 0 0 1-.891-1.563l.003-.005 2.824-4.715c.093-.153.224-.28.38-.367Z" fill="url(#bkc)"/><defs><linearGradient id="bka" x1="8" y1="1.333" x2="8" y2="14.667" gradientUnits="userSpaceOnUse"><stop stop-color="#F63D6B"/><stop offset="1" stop-color="#E31B57"/></linearGradient><linearGradient id="bkb" x1="8" y1="1.333" x2="8" y2="14.667" gradientUnits="userSpaceOnUse"><stop stop-color="#F63D6B"/><stop offset="1" stop-color="#E31B57"/></linearGradient><linearGradient id="bkc" x1="8" y1="1.333" x2="8" y2="14.667" gradientUnits="userSpaceOnUse"><stop stop-color="#F63D6B"/><stop offset="1" stop-color="#E31B57"/></linearGradient></defs></svg><view id="icon-text-24" viewBox="96 16 16 16"/><svg width="16" height="16" fill="none" viewBox="0 0 16 16" x="96" y="16" xmlns="http://www.w3.org/2000/svg"><path fill-rule="evenodd" clip-rule="evenodd" d="M4 1.333a2 2 0 0 0-2 2v9.334a2 2 0 0 0 2 2h8a2 2 0 0 0 2-2V3.333a2 2 0 0 0-2-2H4ZM6 4h.667v.667h4.666v.666H6.667v1.334h4.666v.666H6.667v1.334h4.666v.666H6.667v1.334h4.666v.666H6.667V12H6v-.667H4.667v-.666H6V9.333H4.667v-.666H6V7.333H4.667v-.666H6V5.333H4.667v-.666H6V4Z" fill="url(#bla)"/><defs><linearGradient id="bla" x1="8" y1="1.333" x2="8" y2="14.667" gradientUnits="userSpaceOnUse"><stop stop-color="#888D95"/><stop offset="1" stop-color="#6E747D"/></linearGradient></defs></svg><view id="icon-threed-24" viewBox="96 32 16 16"/><svg width="16" height="16" fill="none" viewBox="0 0 16 16" x="96" y="32" xmlns="http://www.w3.org/2000/svg"><path fill-rule="evenodd" clip-rule="evenodd" d="M4 1.333a2 2 0 0 0-2 2v9.334a2 2 0 0 0 2 2h8a2 2 0 0 0 2-2V3.333a2 2 0 0 0-2-2H4Zm6.819 4.358a.133.133 0 0 1 0 .229L8.17 7.508a.333.333 0 0 1-.342 0L5.18 5.92a.133.133 0 0 1 0-.229l2.647-1.588a.333.333 0 0 1 .343 0L10.82 5.69Zm-6.152.933c0-.103.113-.167.202-.114l2.636 1.582c.1.06.162.168.162.285v3.188a.133.133 0 0 1-.202.114l-2.636-1.582a.333.333 0 0 1-.162-.286V6.624Zm3.666 4.94c0 .104.113.168.202.115l2.636-1.582c.1-.06.162-.169.162-.286V6.624a.133.133 0 0 0-.202-.114L8.495 8.092a.333.333 0 0 0-.162.285v3.188Z" fill="url(#bma)"/><defs><linearGradient id="bma" x1="8" y1="1.333" x2="8" y2="14.667" gradientUnits="userSpaceOnUse"><stop stop-color="#69A3FB"/><stop offset="1" stop-color="#477EF7"/></linearGradient></defs></svg><view id="icon-torrent-24" viewBox="96 48 16 16"/><svg width="16" height="16" fill="none" viewBox="0 0 16 16" x="96" y="48" xmlns="http://www.w3.org/2000/svg"><path fill-rule="evenodd" clip-rule="evenodd" d="M4 1.333a2 2 0 0 0-2 2v9.334a2 2 0 0 0 2 2h8a2 2 0 0 0 2-2V3.333a2 2 0 0 0-2-2H4ZM6.329 5 4.898 6.431a.334.334 0 0 0 0 .471l.028.029c.13.13.342.13.472 0l.597-.598v3a.333.333 0 0 0 .667 0v-3l.598.598c.13.13.341.13.471 0l.029-.029a.333.333 0 0 0 0-.471L6.329 5Zm3.333 6L8.231 9.569a.334.334 0 0 1 0-.471l.029-.029c.13-.13.341-.13.471 0l.598.598v-3a.333.333 0 0 1 .666 0v3l.598-.598c.13-.13.341-.13.471 0l.029.029c.13.13.13.34 0 .471L9.662 11Z" fill="url(#bna)"/><defs><linearGradient id="bna" x1="8" y1="1.333" x2="8" y2="14.667" gradientUnits="userSpaceOnUse"><stop stop-color="#29DD74"/><stop offset="1" stop-color="#09BF5B"/></linearGradient></defs></svg><view id="icon-undecrypted-24" viewBox="96 64 16 16"/><svg width="16" height="16" fill="none" viewBox="0 0 16 16" x="96" y="64" xmlns="http://www.w3.org/2000/svg"><path fill-rule="evenodd" clip-rule="evenodd" d="M4 1.333a2 2 0 0 0-2 2v9.334a2 2 0 0 0 2 2h8a2 2 0 0 0 2-2V3.333a2 2 0 0 0-2-2H4Zm2.456 5.983c.173.06.364-.03.425-.204a1.165 1.165 0 0 1 2.265.388c0 .297-.194.526-.407.704-.384.32-.864.48-.864.48a.332.332 0 1 0 .211.632s.6-.2 1.08-.6c.361-.302.647-.712.647-1.215a1.833 1.833 0 0 0-3.56-.61c-.062.173.03.363.203.425ZM8 10.333A.333.333 0 0 0 8 11h.007a.333.333 0 1 0 0-.667H8Z" fill="url(#boa)"/><defs><linearGradient id="boa" x1="8" y1="1.333" x2="8" y2="14.667" gradientUnits="userSpaceOnUse"><stop stop-color="#FDC121"/><stop offset="1" stop-color="#F7A308"/></linearGradient></defs></svg><view id="icon-url-24" viewBox="96 80 16 16"/><svg width="16" height="16" fill="none" viewBox="0 0 16 16" x="96" y="80" xmlns="http://www.w3.org/2000/svg"><path fill-rule="evenodd" clip-rule="evenodd" d="M4 1.333a2 2 0 0 0-2 2v9.334a2 2 0 0 0 2 2h8a2 2 0 0 0 2-2V3.333a2 2 0 0 0-2-2H4ZM5.333 8c0-.736.597-1.333 1.334-1.333H7A.333.333 0 0 0 7 6h-.333a2 2 0 1 0 0 4H7a.333.333 0 0 0 0-.667h-.333A1.333 1.333 0 0 1 5.333 8Zm1.334-.333a.333.333 0 1 0 0 .666h2.666a.333.333 0 1 0 0-.666H6.667Zm2-1.334C8.667 6.15 8.816 6 9 6h.333a2 2 0 0 1 0 4H9a.333.333 0 0 1 0-.667h.333a1.333 1.333 0 0 0 0-2.666H9a.333.333 0 0 1-.333-.334Z" fill="url(#bpa)"/><defs><linearGradient id="bpa" x1="8" y1="1.333" x2="8" y2="14.667" gradientUnits="userSpaceOnUse"><stop stop-color="#69A3FB"/><stop offset="1" stop-color="#477EF7"/></linearGradient></defs></svg><view id="icon-vector-24" viewBox="0 96 16 16"/><svg width="16" height="16" fill="none" viewBox="0 0 16 16" y="96" xmlns="http://www.w3.org/2000/svg"><path d="M8 7.333a.667.667 0 1 0-1.333 0 .667.667 0 0 0 1.333 0Z" fill="url(#bqa)"/><path fill-rule="evenodd" clip-rule="evenodd" d="M4 1.333a2 2 0 0 0-2 2v9.334a2 2 0 0 0 2 2h8a2 2 0 0 0 2-2V3.333a2 2 0 0 0-2-2H4Zm4.4 5.2a9.286 9.286 0 0 1 4.933-1.843v.669a8.624 8.624 0 0 0-4.676 1.816 1.333 1.333 0 0 1-1.482 1.482A8.63 8.63 0 0 0 5.333 14h-.666c0-2.101.694-4.04 1.866-5.6l-.017-.013-1.85 1.849-.022-.023a.333.333 0 1 1-.19-.19L4.43 10 6.28 8.15a1.333 1.333 0 0 1 1.87-1.87L10 4.431l.022.022a.333.333 0 1 1 .191.191l.023.023-1.85 1.849.014.017Z" fill="url(#bqb)"/><defs><linearGradient id="bqa" x1="8" y1="1.333" x2="8" y2="14.667" gradientUnits="userSpaceOnUse"><stop stop-color="#FDC121"/><stop offset="1" stop-color="#F7A308"/></linearGradient><linearGradient id="bqb" x1="8" y1="1.333" x2="8" y2="14.667" gradientUnits="userSpaceOnUse"><stop stop-color="#FDC121"/><stop offset="1" stop-color="#F7A308"/></linearGradient></defs></svg><view id="icon-video-24" viewBox="16 96 16 16"/><svg width="16" height="16" fill="none" viewBox="0 0 16 16" x="16" y="96" xmlns="http://www.w3.org/2000/svg"><path fill-rule="evenodd" clip-rule="evenodd" d="M4 1.333a2 2 0 0 0-2 2v9.334a2 2 0 0 0 2 2h8a2 2 0 0 0 2-2V3.333a2 2 0 0 0-2-2H4Zm1.333 10v1.334H4v-1.334h1.333Zm6.667 0v1.334h-1.333v-1.334H12Zm-6.667-2v1.334H4V9.333h1.333Zm6.667 0v1.334h-1.333V9.333H12Zm-6.667-2v1.334H4V7.333h1.333Zm6.667 0v1.334h-1.333V7.333H12Zm-6.667-2v1.334H4V5.333h1.333Zm6.667 0v1.334h-1.333V5.333H12Zm-6.667-2v1.334H4V3.333h1.333Zm6.667 0v1.334h-1.333V3.333H12ZM6.667 6.335c0-.369.235-.485.522-.262l1.955 1.52c.289.225.287.59 0 .813L7.19 9.926c-.288.225-.522.115-.522-.261v-3.33Z" fill="url(#bra)"/><defs><linearGradient id="bra" x1="8" y1="1.333" x2="8" y2="14.667" gradientUnits="userSpaceOnUse"><stop stop-color="#FD6F90"/><stop offset="1" stop-color="#F63D6B"/></linearGradient></defs></svg><view id="icon-web-data-24" viewBox="32 96 16 16"/><svg width="16" height="16" fill="none" viewBox="0 0 16 16" x="32" y="96" xmlns="http://www.w3.org/2000/svg"><path fill-rule="evenodd" clip-rule="evenodd" d="M4 1.333a2 2 0 0 0-2 2v9.334a2 2 0 0 0 2 2h8a2 2 0 0 0 2-2V3.333a2 2 0 0 0-2-2H4Zm0 6.334a.333.333 0 0 0 0 .666h.334a1 1 0 0 1 1 1v.334c0 .92.746 1.666 1.666 1.666v-.666a1 1 0 0 1-1-1v-.334C6 8.788 5.738 8.304 5.333 8 5.739 7.696 6 7.212 6 6.667v-.334a1 1 0 0 1 1-1v-.666c-.92 0-1.667.746-1.667 1.666v.334a1 1 0 0 1-.999 1H4Zm5-3c.92 0 1.667.746 1.667 1.666v.334a1 1 0 0 0 1 1H12a.333.333 0 0 1 0 .666h-.334a1 1 0 0 0-1 1v.334c0 .92-.746 1.666-1.666 1.666v-.666a1 1 0 0 0 1-1v-.334c0-.545.262-1.029.666-1.333A1.664 1.664 0 0 1 10 6.667v-.334a1 1 0 0 0-1-1v-.666Z" fill="url(#bsa)"/><defs><linearGradient id="bsa" x1="8" y1="1.333" x2="8" y2="14.667" gradientUnits="userSpaceOnUse"><stop stop-color="#69A3FB"/><stop offset="1" stop-color="#477EF7"/></linearGradient></defs></svg><view id="icon-web-lang-24" viewBox="48 96 16 16"/><svg width="16" height="16" fill="none" viewBox="0 0 16 16" x="48" y="96" xmlns="http://www.w3.org/2000/svg"><path fill-rule="evenodd" clip-rule="evenodd" d="M2 3.333a2 2 0 0 1 2-2h8a2 2 0 0 1 2 2v9.334a2 2 0 0 1-2 2H4a2 2 0 0 1-2-2V3.333Zm4.431 2.431a.333.333 0 0 1 .51.426l-.039.046L5.138 8l1.764 1.764a.333.333 0 0 1 .039.426l-.039.046a.333.333 0 0 1-.425.038l-.046-.038L4.195 8l2.236-2.236Zm2.529 0c.13-.13.34-.13.471 0L11.667 8 9.43 10.236l-.046.038a.333.333 0 0 1-.425-.038l-.039-.046a.333.333 0 0 1 .039-.426L10.724 8 8.96 6.236 8.92 6.19a.333.333 0 0 1 .039-.426Z" fill="url(#bta)"/><defs><linearGradient id="bta" x1="8" y1="1.333" x2="8" y2="14.667" gradientUnits="userSpaceOnUse"><stop stop-color="#FD853A"/><stop offset="1" stop-color="#FB6514"/></linearGradient></defs></svg><view id="icon-word-24" viewBox="64 96 16 16"/><svg width="16" height="16" fill="none" viewBox="0 0 16 16" x="64" y="96" xmlns="http://www.w3.org/2000/svg"><path fill-rule="evenodd" clip-rule="evenodd" d="M4 1.333a2 2 0 0 0-2 2v9.334a2 2 0 0 0 2 2h8a2 2 0 0 0 2-2V3.333a2 2 0 0 0-2-2H4Zm6.292 9.334 1.375-5.334h-1.183l-.718 3.56c-.04.2-.066.399-.076.595h-.014a4.488 4.488 0 0 0-.084-.573L8.74 5.333H7.485L6.542 8.87a3.02 3.02 0 0 0-.105.625h-.022a4.344 4.344 0 0 0-.069-.61l-.732-3.552h-1.28L5.7 10.667h1.352l.885-3.422c.041-.156.073-.356.095-.599h.014c.01.22.038.42.084.599l.863 3.422h1.298Z" fill="url(#bua)"/><defs><linearGradient id="bua" x1="8" y1="1.333" x2="8" y2="14.667" gradientUnits="userSpaceOnUse"><stop stop-color="#69A3FB"/><stop offset="1" stop-color="#477EF7"/></linearGradient></defs></svg></svg>