<?xml version="1.0" encoding="UTF-8"?><svg width="160" height="160" viewBox="0 0 96 96" xmlns="http://www.w3.org/2000/svg" xmlns:xlink="http://www.w3.org/1999/xlink"><view id="icon-bucket" viewBox="0 0 16 16"/><svg width="16" height="16" viewBox="0 0 16 16" xmlns="http://www.w3.org/2000/svg"><defs><linearGradient x1="108.184%" y1=".382%" x2="0%" y2="99.618%" id="aac"><stop stop-color="#55D2F0" offset="0%"/><stop stop-color="#2BA6DE" offset="100%"/></linearGradient><linearGradient x1="50%" y1="18.982%" x2="50%" y2="100%" id="aad"><stop stop-color="#FFF" offset="0%"/><stop stop-color="#FFF" stop-opacity=".8" offset="100%"/></linearGradient><path id="aaa" d="M0 0h16v16H0z"/></defs><g fill="none" fill-rule="evenodd"><mask id="aab" fill="#fff"><use xlink:href="#aaa"/></mask><g mask="url(#aab)"><path d="M7.5 2c2.205 0 3.87.247 4.994.74a.75.75 0 01.443.777l-.078.637.142.06c.65.3 1.103.782 1.103 1.294 0 .704-.592 1.117-1.564 1.272l-.682 5.585a1.5 1.5 0 01-1.075 1.26c-.87.25-1.965.375-3.283.375-1.318 0-2.412-.125-3.283-.375a1.5 1.5 0 01-1.075-1.26L2.063 3.517a.75.75 0 01.443-.777C3.631 2.247 5.296 2 7.5 2zm5.297 2.672l-.193 1.587c.64-.13 1-.392 1-.75 0-.274-.32-.61-.807-.837z" fill="url(#aac)" fill-rule="nonzero"/><path d="M3.333 4.12l.125.035.13.032.068.016.14.03.144.028.15.027.156.025.161.023.167.022.171.02.176.019.181.016.186.016.19.014.195.012.2.01.202.01.207.008.319.009.326.005.222.002.226.001c1.27 0 2.523-.086 3.481-.235l.172-.027.163-.028.154-.028.074-.014.142-.03.134-.03.126-.032c.237-.064.428-.136.573-.225l-.304 2.478-.063.006a5.999 5.999 0 01-.077.005l-.08.004-.162.006a7.92 7.92 0 01-.346 0c-1.052-.023-2.238-.247-3.115-.57l.003-.03a.75.75 0 10-.185.493c.934.349 2.177.583 3.287.607l.175.002c.058 0 .115 0 .17-.002l.167-.005.165-.008-.667 5.467-.008.052a1 1 0 01-.71.789c-.82.235-1.87.355-3.144.355-1.275 0-2.324-.12-3.145-.355a1 1 0 01-.717-.84L2.6 3.802c.181.124.429.229.733.317zM8.75 10a1.25 1.25 0 100 2.5 1.25 1.25 0 000-2.5zM6.5 7H4v2.5h2.5V7z" fill="url(#aad)" fill-rule="nonzero"/><path d="M7.375 4c2.58 0 4.875-.36 4.875-.75S9.955 2.5 7.375 2.5s-4.625.36-4.625.75S4.795 4 7.375 4z" fill-opacity=".8" fill="#FFF"/></g></g></svg><view id="icon-camera-disabled" viewBox="16 0 16 16"/><svg width="16" height="16" fill="none" viewBox="0 0 16 16" x="16" xmlns="http://www.w3.org/2000/svg"><rect x="9" y="9" width="7" height="7" rx="1" fill="#FD3E38"/><path fill-rule="evenodd" clip-rule="evenodd" d="M11.97 12.5l-1.235-1.235.53-.53L12.5 11.97l1.235-1.235.53.53L13.03 12.5l1.235 1.235-.53.53L12.5 13.03l-1.235 1.235-.53-.53L11.97 12.5z" fill="#fff"/><path fill-rule="evenodd" clip-rule="evenodd" d="M2 4.75A.75.75 0 012.75 4h8a.75.75 0 01.75.75V7L14 4.5V8H9.25C8.56 8 8 8.56 8 9.25V12H2.75a.75.75 0 01-.75-.75v-6.5z" fill="#333" fill-opacity=".7"/></svg><view id="icon-checkbox-minimize" viewBox="0 16 16 16"/><svg width="16" height="16" fill="none" viewBox="0 0 16 16" y="16" xmlns="http://www.w3.org/2000/svg"><g clip-path="url(#acclip0_401_109)"><rect width="16" height="16" rx="3" fill="url(#acpaint0_linear_401_109)"/><rect x=".5" y=".5" width="15" height="15" rx="2.5" stroke="#000" stroke-opacity=".05"/><rect x="3" y="7" width="10" height="2" rx="1" fill="#fff"/><rect x="2.5" y="6.5" width="11" height="3" rx="1.5" stroke="#000" stroke-opacity=".05"/></g><defs><linearGradient id="acpaint0_linear_401_109" x1="0" y1="0" x2="0" y2="16" gradientUnits="userSpaceOnUse"><stop stop-color="#3ED8B2"/><stop offset="1" stop-color="#1DB07B"/></linearGradient><clipPath id="acclip0_401_109"><path fill="#fff" d="M0 0h16v16H0z"/></clipPath></defs></svg><view id="icon-dlocal" viewBox="16 16 16 16"/><svg width="16" height="16" fill="none" viewBox="0 0 16 16" x="16" y="16" xmlns="http://www.w3.org/2000/svg"><path d="M10.114 8.533a.34.34 0 01-.297.17c-.195 0-.398-.15-.398-.435 0-.28.203-.427.398-.427a.333.333 0 01.297.159l.004-.004.317-.268a.79.79 0 00-.626-.289c-.415 0-.846.28-.846.833 0 .557.427.834.842.83a.818.818 0 00.63-.289l-.321-.28zm2.89-.07V6.667h-.451v1.796c0 .565.292.687.78.598l-.016-.341c-.215.036-.313-.013-.313-.257zm-.886.143v-.553c0-.455-.342-.614-.744-.614-.211 0-.468.049-.663.163l.155.305a.94.94 0 01.447-.106c.159 0 .366.045.366.236v.089a.781.781 0 00-.419-.102c-.35 0-.63.183-.614.57.008.304.277.495.573.495.204 0 .452-.077.545-.272 0 .28.26.293.5.244l-.004-.256c-.146.012-.142-.065-.142-.2zm-.447-.11c-.016.167-.208.24-.358.24-.106 0-.207-.057-.215-.171-.017-.154.101-.236.243-.244.114 0 .236.029.326.094v.08h.004zM7.882 7.439c-.415.004-.83.28-.83.83 0 .552.424.829.842.829.415 0 .83-.277.83-.83.004-.557-.42-.833-.842-.829zm.004 1.256c-.19 0-.378-.142-.378-.427 0-.284.191-.427.386-.427.191 0 .378.143.378.427 0 .289-.19.431-.386.427zm-1.309-.232V6.667h-.451v1.796c0 .565.293.687.78.598L6.89 8.72c-.215.036-.313-.013-.313-.257zm-2.337.074V6.67h-.46v.874c-.548-.273-1.113.105-1.113.727 0 .443.252.838.727.826a.516.516 0 00.476-.305v.04c.008.273.293.277.52.224l-.004-.297c-.142.016-.146-.069-.146-.223zm-.443-.204c0 .191-.126.358-.325.358-.244 0-.346-.195-.346-.423 0-.394.346-.532.675-.341v.406h-.004z" fill="#000"/><path d="M5.435 7.927H4.98v.455h.455v-.455z" fill="#482683"/></svg><view id="icon-emoji" viewBox="32 0 16 16"/><svg width="16" height="16" viewBox="0 0 16 16" x="32" xmlns="http://www.w3.org/2000/svg"><defs><linearGradient x1="50%" y1="0%" x2="50%" y2="96.88%" id="aec"><stop stop-color="#E8E8E8" offset="0%"/><stop stop-color="#E1E1E1" offset="100%"/></linearGradient><path id="aea" d="M0 0h16v16H0z"/></defs><g fill="none" fill-rule="evenodd"><mask id="aeb" fill="#fff"><use xlink:href="#aea"/></mask><g mask="url(#aeb)"><path d="M6.667 0a6.665 6.665 0 016.666 6.667 6.665 6.665 0 01-6.666 6.666A6.665 6.665 0 010 6.667 6.665 6.665 0 016.667 0" fill="url(#aec)" transform="translate(1.333 1.333)"/><path d="M11.58 9.384c.34.14.503.53.363.87C11.495 11.34 9.849 12 8 12c-1.85 0-3.495-.66-3.943-1.746a.667.667 0 011.2-.578l.033.07c.189.459 1.341.92 2.71.92 1.314 0 2.428-.425 2.683-.865l.027-.055c.14-.34.53-.502.87-.362zM11 6c.553 0 1 .447 1 1 0 .553-.447 1-1 1-.553 0-1-.447-1-1 0-.553.447-1 1-1zM5 6c.553 0 1 .447 1 1 0 .553-.447 1-1 1-.553 0-1-.447-1-1 0-.553.447-1 1-1z" fill="#9D9D9D" fill-rule="nonzero"/><path d="M8 1.333A6.665 6.665 0 0114.667 8 6.665 6.665 0 018 14.667 6.665 6.665 0 011.333 8 6.665 6.665 0 018 1.333zM8 2C4.685 2 2 4.685 2 8s2.685 6 6 6 6-2.685 6-6-2.685-6-6-6z" fill="#9D9D9D" fill-rule="nonzero"/></g></g></svg><view id="icon-emoji-active" viewBox="32 16 16 16"/><svg width="16" height="16" viewBox="0 0 16 16" x="32" y="16" xmlns="http://www.w3.org/2000/svg"><defs><linearGradient x1="50%" y1="0%" x2="50%" y2="97.5%" id="afc"><stop stop-color="#F8E9B1" offset="0%"/><stop stop-color="#F5DF8E" offset="100%"/></linearGradient><path id="afa" d="M0 0h16v16H0z"/></defs><g fill="none" fill-rule="evenodd"><mask id="afb" fill="#fff"><use xlink:href="#afa"/></mask><g mask="url(#afb)"><path d="M6.667 0a6.665 6.665 0 016.666 6.667 6.665 6.665 0 01-6.666 6.666A6.665 6.665 0 010 6.667 6.665 6.665 0 016.667 0" fill="url(#afc)" transform="translate(1.333 1.333)"/><path d="M8 1.333A6.665 6.665 0 0114.667 8 6.665 6.665 0 018 14.667 6.665 6.665 0 011.333 8 6.665 6.665 0 018 1.333zM8 2C4.685 2 2 4.685 2 8s2.685 6 6 6 6-2.685 6-6-2.685-6-6-6z" fill="#EBC01E" fill-rule="nonzero"/><path d="M11.332 8c.364 0 .668.295.668.66-.404 1.972-1.955 3.34-4 3.34s-3.596-1.368-4-3.333C4 8.302 4.3 8 4.668 8zm-.999-2.667c.554 0 1 .447 1 1 0 .554-.446 1-1 1-.553 0-1-.446-1-1 0-.553.447-1 1-1zm-4.666 0c.553 0 1 .447 1 1 0 .554-.447 1-1 1-.554 0-1-.446-1-1 0-.553.446-1 1-1z" fill="#EBC01E"/></g></g></svg><view id="icon-emoji-reactions" viewBox="0 32 16 16"/><svg width="16" height="16" viewBox="0 0 16 16" y="32" xmlns="http://www.w3.org/2000/svg"><defs><path id="aga" d="M0 0h16v16H0z"/></defs><g fill="none" fill-rule="evenodd"><mask id="agb" fill="#fff"><use xlink:href="#aga"/></mask><g mask="url(#agb)" fill="#9D9D9D" fill-rule="nonzero"><path d="M8 4c.24 0 .477.018.708.053a.997.997 0 00.044.686A3.999 3.999 0 004 8.667c0 2.21 1.79 4 4 4a3.999 3.999 0 003.412-6.09.994.994 0 00.488-.473 4.665 4.665 0 01-3.9 7.23 4.665 4.665 0 01-4.667-4.667A4.665 4.665 0 018 4zm2.742 4.667a.27.27 0 01.25.209l.008.062v.395c-.283 1.376-1.333 2.334-3 2.334-1.597 0-2.628-.88-2.96-2.164L5 9.333v-.395c0-.122.085-.234.199-.264l.059-.007h5.484zm-.742-2A.666.666 0 1110 8a.666.666 0 110-1.333zm-4 0A.666.666 0 116 8a.666.666 0 110-1.333zm5-4c.184 0 .333.149.333.333v1h1a.333.333 0 010 .667h-1v1a.333.333 0 11-.666 0v-1h-1a.333.333 0 010-.667h1V3c0-.184.149-.333.333-.333z"/></g></g></svg><view id="icon-emoji-reactions-active" viewBox="16 32 16 16"/><svg width="16" height="16" viewBox="0 0 16 16" x="16" y="32" xmlns="http://www.w3.org/2000/svg"><defs><linearGradient x1="50%" y1="0%" x2="50%" y2="100%" id="ahc"><stop stop-color="#F8E9B1" offset="0%"/><stop stop-color="#F5DF8E" offset="100%"/></linearGradient><path id="aha" d="M0 0h16v16H0z"/></defs><g fill="none" fill-rule="evenodd"><mask id="ahb" fill="#fff"><use xlink:href="#aha"/></mask><g mask="url(#ahb)"><path d="M4.667 1.333c.24 0 .477.019.708.054a1 1 0 00.958 1.28h.334V3a1 1 0 001.9.437 4.667 4.667 0 11-3.9-2.104z" fill="url(#ahc)" transform="translate(3.333 2.667)"/><path d="M8 4c.24 0 .477.018.708.053a.997.997 0 00.044.686A3.999 3.999 0 004 8.667c0 2.21 1.79 4 4 4a3.999 3.999 0 003.412-6.09.994.994 0 00.488-.473 4.665 4.665 0 01-3.9 7.23 4.665 4.665 0 01-4.667-4.667A4.665 4.665 0 018 4z" fill="#EBC01E" fill-rule="nonzero"/><path d="M11 2.667c.184 0 .333.149.333.333v1h1a.333.333 0 010 .667h-1v1a.333.333 0 11-.666 0v-1h-1a.333.333 0 010-.667h1V3c0-.184.149-.333.333-.333z" fill="#9D9D9D" fill-rule="nonzero"/><path d="M10.742 8.667c.133 0 .258.121.258.27v.396c-.283 1.376-1.333 2.334-3 2.334s-2.717-.958-3-2.334v-.395c0-.143.115-.271.258-.271zm-.742-2A.666.666 0 1110 8a.666.666 0 110-1.333zm-4 0A.666.666 0 116 8a.666.666 0 110-1.333z" fill="#EBC01E"/></g></g></svg><view id="icon-empty-state-backup" viewBox="32 32 16 16"/><svg width="16" height="16" viewBox="0 0 16 16" x="32" y="32" xmlns="http://www.w3.org/2000/svg"><defs><linearGradient x1="100%" y1="17.762%" x2="0%" y2="82.238%" id="aia"><stop stop-color="#55D2F0" offset="0%"/><stop stop-color="#2BA6DE" offset="100%"/></linearGradient><linearGradient x1="58.833%" y1="-109.852%" x2="58.833%" y2="100%" id="aib"><stop stop-color="#55D2F0" offset="0%"/><stop stop-color="#2BA6DE" offset="100%"/></linearGradient><linearGradient x1="50%" y1="0%" x2="50%" y2="100%" id="aic"><stop stop-color="#FFF" offset="0%"/><stop stop-color="#FFF" stop-opacity=".9" offset="100%"/></linearGradient><linearGradient x1="100%" y1="0%" x2="0%" y2="100%" id="aid"><stop stop-color="#55D2F0" offset="0%"/><stop stop-color="#2BA6DE" offset="100%"/></linearGradient></defs><g fill="none" fill-rule="evenodd"><circle fill-opacity=".05" fill="#111" cx="8" cy="8" r="6.4"/><path d="M4.678 12.117l.189.188.188-.188a.067.067 0 11.095.094l-.19.188.19.19a.067.067 0 11-.095.094l-.188-.19-.189.19a.067.067 0 11-.094-.094l.189-.19-.19-.188a.067.067 0 11.095-.094zM10.8 11.6a.267.267 0 110 .533.267.267 0 010-.533zM2.333 4.667a.333.333 0 110 .666.333.333 0 010-.666zm0 .133a.2.2 0 100 .4.2.2 0 000-.4zm11.4-1.467c.037 0 .067.03.067.067v.133h.133a.067.067 0 110 .134H13.8V3.8a.067.067 0 01-.133 0l-.001-.134h-.133a.067.067 0 010-.133h.133V3.4c0-.037.03-.067.067-.067zm-7.266-.266c.036 0 .066.03.066.066v.134h.134a.067.067 0 110 .133h-.134v.133a.067.067 0 11-.133 0L6.399 3.4h-.132a.067.067 0 110-.133h.132l.001-.134c0-.036.03-.066.067-.066z" fill="url(#aia)"/><rect fill="url(#aib)" x="3.467" y="4.8" width="9.067" height="5.733" rx=".8"/><rect fill="url(#aic)" x="3.733" y="5.067" width="8.533" height="5.2" rx=".533"/><circle fill="url(#aid)" cx="8" cy="7.667" r="1.6"/><path d="M8.697 6.712c-.038 0-.069.03-.069.067v.243a.928.928 0 00-1.274.02.847.847 0 00-.254.603c0 .037.031.067.07.067.038 0 .07-.03.07-.067 0-.405.341-.733.763-.733.214 0 .419.087.564.238l-.308.099a.066.066 0 00-.044.084.07.07 0 00.088.043l.416-.134a.067.067 0 00.048-.063v-.4a.068.068 0 00-.07-.067zM8.83 7.579c-.038 0-.069.03-.069.066 0 .405-.342.734-.764.734a.779.779 0 01-.563-.239l.308-.098a.066.066 0 00.044-.084.07.07 0 00-.088-.043l-.417.134a.067.067 0 00-.047.063v.4c0 .037.03.067.069.067.038 0 .07-.03.07-.067V8.27a.928.928 0 001.274-.02.847.847 0 00.253-.604.068.068 0 00-.07-.066z" fill="#FFF" fill-rule="nonzero"/><path fill="#2CA7DF" d="M7.4 10.667h1.2v1H7.4z"/><rect fill="#1893CC" x="6.267" y="11.733" width="3.467" height="1" rx=".4"/></g></svg><view id="icon-empty-state-bucket-upload" viewBox="48 0 16 16"/><svg width="16" height="16" viewBox="0 0 16 16" x="48" xmlns="http://www.w3.org/2000/svg"><defs><linearGradient x1="117.482%" y1="0%" x2="-12.252%" y2="100%" id="ajc"><stop stop-color="#55D2F0" offset="0%"/><stop stop-color="#2BA6DE" offset="100%"/></linearGradient><linearGradient x1="50%" y1="0%" x2="50%" y2="100%" id="ajd"><stop stop-color="#FFF" offset="0%"/><stop stop-color="#FFF" stop-opacity=".8" offset="100%"/></linearGradient><linearGradient x1="100%" y1="0%" x2="0%" y2="100%" id="aje"><stop stop-color="#55D2F0" offset="0%"/><stop stop-color="#2BA6DE" offset="100%"/></linearGradient><linearGradient x1="85.865%" y1="0%" x2="14.135%" y2="100%" id="ajg"><stop stop-color="#55D2F0" offset="0%"/><stop stop-color="#2BA6DE" offset="100%"/></linearGradient><path id="aja" d="M0 0h16v16H0z"/><path d="M.714.02l.58.58a.133.133 0 01-.176.2L1.106.789.799.482l.001.957a.133.133 0 11-.267 0V.482L.228.789a.133.133 0 01-.176.01L.039.79A.133.133 0 01.028.613L.039.6.62.02a.067.067 0 01.095 0z" id="ajf"/></defs><g fill="none" fill-rule="evenodd"><mask id="ajb" fill="#fff"><use xlink:href="#aja"/></mask><g mask="url(#ajb)"><circle fill-opacity=".05" fill="#111" cx="8" cy="8" r="6.4"/><g fill-rule="nonzero"><path d="M3.88 0c.283 0 .553.006.81.018l.118.006c.098.005.193.011.287.018l.112.009.11.01.108.01c.125.012.246.027.364.043l.1.014c.612.09 1.123.225 1.533.405a.518.518 0 01.307.546l-.063.513.093.041c.432.208.73.531.73.867 0 .463-.39.743-1.036.855l-.49 4.016a1.066 1.066 0 01-.763.896c-.619.177-1.384.266-2.32.266-.936 0-1.724-.089-2.343-.266a1.066 1.066 0 01-.763-.896l-.77-6.304A.52.52 0 01.323.526C.81.312 1.446.163 2.223.08l.108-.011.108-.01.11-.01.113-.008.057-.004.115-.008c.212-.012.433-.02.662-.025l.127-.002L3.686 0 3.88 0zm3.755 1.87l-.149 1.205.032-.006.045-.01.086-.023.04-.012c.343-.109.532-.287.532-.524 0-.213-.233-.463-.586-.63z" fill="url(#ajc)" transform="translate(4 3.733)"/><path d="M7.447 1.203l-.235 1.915-.047.006-.055.005-.057.004-.058.004-.06.003-.06.002h-.03l-.062.002h-.128l-.066-.001a7.285 7.285 0 01-2.197-.4l.008-.076a.533.533 0 10-.108.322 7.5 7.5 0 002.36.422h.134l.066-.002.065-.002.063-.002.063-.004.061-.004.03-.002.045-.006-.48 3.95-.003.02a.8.8 0 01-.57.651c-.594.171-1.336.257-2.246.257-.916 0-1.68-.087-2.269-.257a.8.8 0 01-.572-.672l-.75-6.133c.46.344 1.888.595 3.578.595 1.693 0 3.123-.252 3.58-.597z" fill="url(#ajd)" transform="translate(4 3.733)"/><path d="M7.775 5.267c1.883 0 3.558-.304 3.558-.634 0-.329-1.675-.633-3.558-.633-1.882 0-3.375.304-3.375.633 0 .33 1.493.634 3.375.634z" fill-opacity=".8" fill="#FFF"/></g><g transform="translate(8.267 8.867)"><circle fill="url(#aje)" cx="1.867" cy="1.867" r="1.867"/><use fill="#FFF" xlink:href="#ajf" transform="translate(1.2 1.154)"/></g><path d="M12.8 4.4c.037 0 .067.03.067.067V4.6H13a.067.067 0 110 .133h-.134v.134a.067.067 0 01-.133 0v-.134H12.6a.067.067 0 110-.133h.132l.001-.133c0-.037.03-.067.067-.067zM5.4 1.467c.037 0 .067.03.067.066v.134H5.6a.067.067 0 110 .133h-.134v.133a.067.067 0 01-.133 0V1.8H5.2a.067.067 0 010-.133h.132l.001-.134c0-.036.03-.066.067-.066zM6.483 13.85a.067.067 0 010 .095l-.189.188.189.189a.067.067 0 11-.094.094l-.189-.19-.189.19a.067.067 0 11-.094-.094l.189-.19-.189-.187a.067.067 0 11.094-.095l.189.189.189-.189a.067.067 0 01.094 0zm-4.15-8.117a.333.333 0 110 .667.333.333 0 010-.667zm0 .134a.2.2 0 100 .4.2.2 0 000-.4zm7.8 8.133a.267.267 0 110 .533.267.267 0 010-.533zm0 .133a.133.133 0 100 .267.133.133 0 000-.267z" fill="url(#ajg)"/></g></g></svg><view id="icon-empty-state-favourite" viewBox="48 16 16 16"/><svg width="16" height="16" viewBox="0 0 16 16" x="48" y="16" xmlns="http://www.w3.org/2000/svg"><defs><linearGradient x1="100%" y1="11.719%" x2="0%" y2="88.281%" id="akc"><stop stop-color="#FF626C" offset="0%"/><stop stop-color="#FF333A" offset="100%"/></linearGradient><linearGradient x1="50%" y1="0%" x2="50%" y2="100%" id="akd"><stop stop-color="#FFF" offset="0%"/><stop stop-color="#FFF" stop-opacity=".9" offset="100%"/></linearGradient><linearGradient x1="100%" y1="7.896%" x2="0%" y2="92.104%" id="ake"><stop stop-color="#FF626C" offset="0%"/><stop stop-color="#FF333A" offset="100%"/></linearGradient><path id="aka" d="M0 0h16v16H0z"/></defs><g fill="none" fill-rule="evenodd"><mask id="akb" fill="#fff"><use xlink:href="#aka"/></mask><g mask="url(#akb)"><circle fill-opacity=".05" fill="#111" cx="8" cy="8" r="6.4"/><path d="M9.883 4.534a2.88 2.88 0 00-1.877.741L8 5.28l-.006-.005a2.878 2.878 0 00-1.914-.742c-1.46 0-2.613 1.115-2.613 2.54 0 .773.305 1.483.964 2.294l.055.067.056.067.059.068.06.069.03.034.062.07.032.034.065.07c.01.012.021.024.033.035l.067.071.034.036.07.072.07.073.074.073.074.074.038.037.236.228.25.234.26.239.412.369 1.003.884a.812.812 0 001.058 0l.266-.235.874-.772.272-.245.26-.238.25-.233.092-.088.03-.029.23-.225.073-.074.072-.073.07-.072.068-.072.067-.071.065-.07.063-.071c.074-.081.143-.162.21-.24l.056-.069.054-.067.053-.067c.6-.766.88-1.448.88-2.188 0-1.424-1.153-2.539-2.614-2.539h-.037z" fill="url(#akc)" fill-rule="nonzero"/><path d="M9.92 4.8c1.314 0 2.347.996 2.347 2.272 0 1.015-.615 1.91-1.651 2.944l-.229.223-.118.114-.247.231-.259.237-.27.243-.874.772-.266.235a.545.545 0 01-.706 0l-1-.883-.41-.367-.259-.237-.247-.231-.234-.226C4.393 9.046 3.733 8.123 3.733 7.072 3.733 5.796 4.766 4.8 6.08 4.8c.65 0 1.278.257 1.736.673l-.891 1.261a.467.467 0 00.096.64l1.113.857a.2.2 0 01.055.25l-.62 1.19a.267.267 0 00.07.333l.758.6c.022.018.03.047.022.073l-.442 1.358a.024.024 0 00.023.032c.02 0 .038-.013.044-.032l.459-1.346a.133.133 0 00-.044-.147l-.77-.606a.133.133 0 01-.035-.168l.708-1.308a.267.267 0 00-.066-.333l-1.054-.863a.333.333 0 01-.06-.451L8 5.667l-.007-.016L8 5.66A2.601 2.601 0 019.92 4.8z" fill="url(#akd)" fill-rule="nonzero"/><path d="M3.867 10.667c.036 0 .066.03.066.066v.134h.134a.067.067 0 110 .133h-.134v.133a.067.067 0 11-.133 0L3.799 11h-.132a.067.067 0 010-.133h.132l.001-.134c0-.036.03-.066.067-.066zm4-7.6c.036 0 .066.03.066.066v.134h.134a.067.067 0 110 .133h-.134v.133a.067.067 0 11-.133 0L7.799 3.4h-.132a.067.067 0 110-.133h.132l.001-.134c0-.036.03-.066.067-.066zm4.75.117a.067.067 0 010 .094l-.19.188.19.19a.067.067 0 11-.095.094l-.189-.19-.188.19a.067.067 0 11-.095-.095l.19-.189-.19-.188a.067.067 0 01.095-.094l.188.188.189-.188a.067.067 0 01.094 0zm.983 4.95a.333.333 0 110 .666.333.333 0 010-.667zm0 .133a.2.2 0 100 .4.2.2 0 000-.4zm-4.8 4.666a.267.267 0 110 .534.267.267 0 010-.534zm0 .134a.133.133 0 100 .266.133.133 0 000-.266zM2.8 4.2a.2.2 0 100 .4.2.2 0 000-.4z" fill="url(#ake)"/></g></g></svg><view id="icon-empty-state-groups" viewBox="48 32 16 16"/><svg width="16" height="16" viewBox="0 0 16 16" x="48" y="32" xmlns="http://www.w3.org/2000/svg"><defs><linearGradient x1="89.176%" y1="0%" x2="10.824%" y2="100%" id="alc"><stop stop-color="#55D2F0" offset=".065%"/><stop stop-color="#2BA6DE" offset="99.971%"/></linearGradient><linearGradient x1="50%" y1="0%" x2="50%" y2="100%" id="ald"><stop stop-color="#77DCF4" offset="0%"/><stop stop-color="#55D2F0" offset="100%"/></linearGradient><linearGradient x1="50%" y1="0%" x2="50%" y2="100%" id="ale"><stop stop-color="#FFF" offset="0%"/><stop stop-color="#FFF" stop-opacity=".9" offset="100%"/></linearGradient><linearGradient x1="50%" y1="0%" x2="50%" y2="100%" id="alf"><stop stop-color="#FFF" offset="0%"/><stop stop-color="#FFF" stop-opacity=".9" offset="100%"/></linearGradient><linearGradient x1="50%" y1="0%" x2="50%" y2="99.826%" id="alg"><stop stop-color="#55D2F0" offset="0%"/><stop stop-color="#2BA6DE" offset="100%"/></linearGradient><linearGradient x1="50%" y1="0%" x2="50%" y2="100%" id="alh"><stop stop-color="#FFF" offset="0%"/><stop stop-color="#FFF" stop-opacity=".9" offset="100%"/></linearGradient><linearGradient x1="50%" y1="0%" x2="50%" y2="100%" id="ali"><stop stop-color="#FFF" offset="0%"/><stop stop-color="#FFF" stop-opacity=".9" offset="100%"/></linearGradient><path id="ala" d="M0 0h16v16H0z"/></defs><g fill="none" fill-rule="evenodd"><mask id="alb" fill="#fff"><use xlink:href="#ala"/></mask><g mask="url(#alb)"><circle fill-opacity=".05" fill="#111" cx="8" cy="8" r="6.4"/><path d="M12.467 4.267c.036 0 .066.03.066.066v.134h.134a.067.067 0 010 .133h-.134v.133a.067.067 0 11-.133 0l-.001-.133h-.132a.067.067 0 110-.133h.132l.001-.134c0-.036.03-.066.067-.066zm-5.8-2.934c.036 0 .066.03.066.067v.133h.134a.067.067 0 010 .134h-.134V1.8a.067.067 0 11-.133 0l-.001-.134h-.132a.067.067 0 010-.133h.132L6.6 1.4c0-.037.03-.067.067-.067zM5.617 13.25a.067.067 0 010 .095l-.19.188.19.189a.067.067 0 11-.095.094l-.189-.19-.188.19a.067.067 0 11-.095-.094l.19-.19-.19-.187a.067.067 0 11.095-.095l.188.189.189-.189a.067.067 0 01.094 0zM2 5.6a.333.333 0 110 .667.333.333 0 010-.667zm0 .133a.2.2 0 100 .4.2.2 0 000-.4zm8.333 6.534a.267.267 0 110 .533.267.267 0 010-.533zm0 .133a.133.133 0 100 .267.133.133 0 000-.267z" fill="url(#alc)"/><g fill-rule="nonzero"><path d="M2.133 2.4c1.104 0 2.012.823 2.132 1.893a.215.215 0 01-.212.24H.213a.215.215 0 01-.212-.24 2.137 2.137 0 012.1-1.893h.032zm0-2.4a1.067 1.067 0 01.021 2.133h-.02A1.067 1.067 0 012.111 0h.021z" fill="url(#ald)" transform="translate(9.2 5.333)"/><path d="M2.133 2.667c-.932 0-1.713.672-1.855 1.572l-.005.028h3.72a1.87 1.87 0 00-1.83-1.6h-.03z" fill="url(#ale)" transform="translate(9.2 5.333)"/><path d="M2.133.267a.8.8 0 100 1.6.8.8 0 000-1.6z" fill="url(#alf)" transform="translate(9.2 5.333)"/></g><g fill-rule="nonzero"><path d="M2.133 2.4c1.104 0 2.012.823 2.132 1.893a.215.215 0 01-.212.24H.213a.215.215 0 01-.212-.24 2.137 2.137 0 012.1-1.893h.032zm0-2.4a1.067 1.067 0 01.021 2.133h-.02A1.067 1.067 0 012.111 0h.021z" fill="url(#ald)" transform="translate(2.533 5.333)"/><path d="M2.133 2.667c-.932 0-1.713.672-1.855 1.572l-.005.028h3.72a1.87 1.87 0 00-1.83-1.6h-.03z" fill="url(#ale)" transform="translate(2.533 5.333)"/><path d="M2.133.267a.8.8 0 100 1.6.8.8 0 000-1.6z" fill="url(#alf)" transform="translate(2.533 5.333)"/></g><g fill-rule="nonzero"><path d="M3.333 3.733A3.334 3.334 0 016.665 6.69c.022.2-.13.377-.332.377h-6a.336.336 0 01-.33-.377 3.333 3.333 0 013.279-2.956h.051zm0-3.733a1.667 1.667 0 01.028 3.333h-.028A1.667 1.667 0 013.306 0h.027z" fill="url(#alg)" transform="translate(4.667 4.467)"/><path d="M3.333 4A3.067 3.067 0 00.267 6.719c-.004.042.023.076.059.08l.007.001h6c.04 0 .071-.036.067-.08A3.068 3.068 0 003.333 4z" fill="url(#alh)" transform="translate(4.667 4.467)"/><path d="M3.333.267a1.4 1.4 0 100 2.8 1.4 1.4 0 000-2.8z" fill="url(#ali)" transform="translate(4.667 4.467)"/></g></g></g></svg><view id="icon-empty-state-keys" viewBox="0 48 16 16"/><svg width="16" height="16" viewBox="0 0 16 16" y="48" xmlns="http://www.w3.org/2000/svg"><defs><linearGradient x1="100%" y1="17.05%" x2="0%" y2="82.95%" id="amc"><stop stop-color="#55D2F0" offset="0%"/><stop stop-color="#2BA6DE" offset="100%"/></linearGradient><linearGradient x1="50%" y1="0%" x2="50%" y2="100%" id="amd"><stop stop-color="#77DCF4" offset="0%"/><stop stop-color="#86E3F1" offset="100%"/></linearGradient><linearGradient x1="50%" y1="0%" x2="50%" y2="99.477%" id="ame"><stop stop-color="#FFF" stop-opacity=".9" offset="0%"/><stop stop-color="#FFF" offset="100%"/></linearGradient><linearGradient x1="50%" y1=".248%" x2="50%" y2="99.635%" id="amf"><stop stop-color="#55D2F0" offset="0%"/><stop stop-color="#77DCF4" offset="100%"/></linearGradient><linearGradient x1="50%" y1="0%" x2="50%" y2="100%" id="amg"><stop stop-color="#2BA6DE" offset="0%"/><stop stop-color="#55D2F0" offset="100%"/></linearGradient><linearGradient x1="50%" y1="0%" x2="50%" y2="99.477%" id="amh"><stop stop-color="#FFF" stop-opacity=".9" offset="0%"/><stop stop-color="#FFF" offset="100%"/></linearGradient><path id="ama" d="M0 0h16v16H0z"/></defs><g fill="none" fill-rule="evenodd"><mask id="amb" fill="#fff"><use xlink:href="#ama"/></mask><g mask="url(#amb)"><circle fill-opacity=".05" fill="#111" cx="8" cy="8" r="6.4"/><path d="M8.101 3.073a.067.067 0 010-.094l.095-.094-.095-.094a.067.067 0 01.095-.095l.094.095.094-.095a.067.067 0 11.094.095l-.093.095.093.093a.067.067 0 11-.094.094l-.094-.092-.094.092a.067.067 0 01-.095 0zm-.968 10.394c0-.037.03-.067.067-.067h.266v-.267a.067.067 0 01.134 0v.268l.267-.001a.067.067 0 010 .133h-.268l.001.267a.067.067 0 11-.133 0v-.266H7.2a.067.067 0 01-.067-.067zM.4 6.667a.333.333 0 110 .666.333.333 0 010-.666zm0 .133a.2.2 0 100 .4.2.2 0 000-.4zm11.688-1.365a.267.267 0 11.377-.377.267.267 0 01-.377.377zm.094-.094a.133.133 0 10.188-.188.133.133 0 00-.188.188zm1.328 3.262a.2.2 0 10.282-.283.2.2 0 00-.282.283z" fill="url(#amc)"/><g fill-rule="nonzero"><path d="M2.333 0a2.333 2.333 0 011.001 4.442v1.392l.317.604c.022.04.02.09-.003.13l-.006.009-.347.492.293.44a.267.267 0 01-.01.31l-.01.012-1.044 1.208a.4.4 0 01-.53.068l-.612-.424a.267.267 0 01-.115-.22V4.41A2.333 2.333 0 012.333 0z" fill="url(#amd)" transform="rotate(-60 8.279 .016)"/><path d="M2.333.267a2.067 2.067 0 01.734 3.999V5.88a.133.133 0 00.015.049l.295.56-.353.5a.133.133 0 00-.002.152l.344.515-1.044 1.209a.133.133 0 01-.176.022l-.613-.424V4.24a2.067 2.067 0 01.8-3.972z" fill="url(#ame)" transform="rotate(-60 8.279 .016)"/><path d="M2.333 0a2.333 2.333 0 011.001 4.442v1.392l.317.604c.022.04.02.09-.003.13l-.006.009-.347.492.293.44a.267.267 0 01-.01.31l-.01.012-1.044 1.208a.4.4 0 01-.53.068l-.612-.424a.267.267 0 01-.115-.22V4.41A2.333 2.333 0 012.333 0z" fill="url(#amf)" transform="rotate(-30 11.776 -3.814)"/><path d="M2.333.267a2.067 2.067 0 01.734 3.999V5.88a.133.133 0 00.015.049l.295.56-.353.5a.133.133 0 00-.002.152l.344.515-1.044 1.209a.133.133 0 01-.176.022l-.613-.424V4.24a2.067 2.067 0 01.8-3.972z" fill="url(#ame)" transform="rotate(-30 11.776 -3.814)"/><g><path d="M2.333 0c.148 0 .267.12.267.267l.001.277a2.334 2.334 0 01.733 4.427v1.392l.317.604c.022.04.02.09-.003.13l-.006.009-.347.492.293.44a.267.267 0 01-.01.31l-.01.012-1.044 1.208a.4.4 0 01-.53.068l-.612-.424a.267.267 0 01-.115-.22V4.939a2.333 2.333 0 01.8-4.394V.267c0-.148.12-.267.266-.267z" fill="url(#amg)" transform="translate(3.467 3.333)"/><path d="M2.6.813a2.067 2.067 0 01.467 3.982v1.614a.133.133 0 00.015.049l.295.56-.353.5a.133.133 0 00-.002.152l.344.515-1.044 1.209a.133.133 0 01-.176.022l-.613-.423V4.768A2.067 2.067 0 012.066.813v1.12H1.8a.267.267 0 000 .534h1.067a.267.267 0 000-.534h-.268z" fill="url(#amh)" transform="translate(3.467 3.333)"/></g></g></g></g></svg><view id="icon-empty-state-policy" viewBox="16 48 16 16"/><svg width="16" height="16" viewBox="0 0 16 16" x="16" y="48" xmlns="http://www.w3.org/2000/svg"><defs><linearGradient x1="100%" y1="10.797%" x2="0%" y2="89.203%" id="anc"><stop stop-color="#55D2F0" offset="0%"/><stop stop-color="#2BA6DE" offset="100%"/></linearGradient><linearGradient x1="102.101%" y1="1.81%" x2="9.44%" y2="100%" id="and"><stop stop-color="#55D2F0" offset="0%"/><stop stop-color="#2BA6DE" offset="100%"/></linearGradient><linearGradient x1="50%" y1="0%" x2="50%" y2="100%" id="ane"><stop stop-color="#FFF" offset="0%"/><stop stop-color="#FFF" stop-opacity=".9" offset="100%"/></linearGradient><path id="ana" d="M0 0h16v16H0z"/></defs><g fill="none" fill-rule="evenodd"><mask id="anb" fill="#fff"><use xlink:href="#ana"/></mask><g mask="url(#anb)"><circle fill-opacity=".05" fill="#111" cx="8" cy="8" r="6.4"/><path d="M.522 7.899a.067.067 0 010-.094l.094-.094-.094-.095a.067.067 0 01.094-.094l.094.095.095-.095a.067.067 0 01.094.094l-.094.095.094.094a.067.067 0 01-.094.094L.71 7.805.616 7.9a.067.067 0 01-.094 0zM13.533 7.6c0-.037.03-.067.067-.067l.266.001v-.267a.067.067 0 11.134 0v.267h.267a.067.067 0 010 .133h-.268l.001.266a.067.067 0 01-.133 0v-.266H13.6a.067.067 0 01-.067-.067zm-3-6.267a.333.333 0 110 .667.333.333 0 010-.667zm0 .134a.2.2 0 100 .4.2.2 0 000-.4zM5.688 13.502a.267.267 0 11.377-.377.267.267 0 01-.377.377zm.094-.094a.133.133 0 10.188-.189.133.133 0 00-.188.189zM4.976 3.27a.2.2 0 10.283-.283.2.2 0 00-.283.283z" fill="url(#anc)"/><g fill-rule="nonzero"><path d="M4.022.17a.851.851 0 011.085.053C5.909.96 6.863 1.308 8.15 1.316h.05c.445 0 .845.344.857.8v.02l-.002.74.009.508.003.505C9.048 7.034 8.012 8.97 4.8 10.024a.852.852 0 01-.533 0C1.087 8.981.039 7.073 0 3.98L0 3.886v-.223l.01-.653.002-.216-.002-.657c0-.46.393-.81.837-.82h.02C2.162 1.316 3.123.978 3.93.25l.03-.028.063-.053z" fill="url(#and)" transform="translate(3.467 2.933)"/><path d="M4.198.372a.585.585 0 01.728.047c.867.797 1.902 1.164 3.273 1.164.322 0 .591.25.591.554l-.001.738.008.514.003.502v.096c-.041 3.15-1.165 4.826-4.084 5.784a.586.586 0 01-.366 0C1.402 8.804.286 7.103.267 3.885v-.222l.01-.65.001-.216-.002-.661V2.12c.01-.295.276-.537.591-.537h.05c1.33-.009 2.342-.368 3.192-1.136l.026-.024.051-.043zm2.32 3.169a.267.267 0 00-.377.008L3.965 5.816l-.974-1.002-.01-.01a.267.267 0 00-.372.382l1.166 1.2.011.01a.267.267 0 00.373-.011l2.367-2.467.01-.01a.267.267 0 00-.018-.367z" fill="url(#ane)" transform="translate(3.467 2.933)"/></g></g></g></svg><view id="icon-empty-state-restricted-folder" viewBox="32 48 16 16"/><svg width="16" height="16" viewBox="0 0 16 16" x="32" y="48" xmlns="http://www.w3.org/2000/svg"><defs><linearGradient x1="100%" y1="23.211%" x2="11.327%" y2="88.117%" id="aoa"><stop stop-color="#55D2F0" offset="0%"/><stop stop-color="#2BA6DE" offset="100%"/></linearGradient><linearGradient x1="58.833%" y1="-93.261%" x2="58.833%" y2="104%" id="aob"><stop stop-color="#55D2F0" offset="0%"/><stop stop-color="#2BA6DE" offset="100%"/></linearGradient><linearGradient x1="50%" y1="0%" x2="50%" y2="100%" id="aoc"><stop stop-color="#FFF" offset="0%"/><stop stop-color="#FFF" stop-opacity=".9" offset="100%"/></linearGradient></defs><g fill="none" fill-rule="evenodd"><path d="M0 0h16v16H0z"/><path d="M8 14.4A6.4 6.4 0 108 1.6a6.4 6.4 0 000 12.8z" fill-opacity=".05" fill="#111" fill-rule="nonzero"/><path d="M12.133 1.733c.037 0 .067.03.067.067v.133h.133a.067.067 0 010 .134H12.2V2.2a.067.067 0 01-.133 0v-.133h-.134a.067.067 0 010-.134h.134V1.8c0-.037.03-.067.066-.067zm-7.266-.266c.036 0 .066.03.066.066v.134h.134a.067.067 0 010 .133h-.134v.133a.067.067 0 11-.133 0V1.8h-.133a.067.067 0 110-.133H4.8v-.134c0-.036.03-.066.067-.066zm-1.317 9.05a.067.067 0 010 .094l-.19.189.19.189a.067.067 0 01-.095.094l-.188-.189-.189.189a.067.067 0 01-.094-.094l.188-.19-.188-.188a.067.067 0 01.094-.094l.189.189.188-.189a.067.067 0 01.095 0zM.733 3.067a.333.333 0 110 .666.333.333 0 010-.666zm0 .133a.2.2 0 100 .4.2.2 0 000-.4zm9.267 8a.267.267 0 110 .533.267.267 0 010-.533zm0 .133a.133.133 0 100 .267.133.133 0 000-.267zm1.659-3.074l.282.282A.2.2 0 0111.6 8.4a.2.2 0 01.059-.141z" fill="url(#aoa)" transform="translate(1.6 1.6)"/><path d="M10.4 4.526c0-.364-.298-.66-.747-.66h-3.78a.267.267 0 01-.22-.113l-.307-.44a.267.267 0 00-.218-.113H2.933a.533.533 0 00-.533.533v5.474c0 .364.298.66.747.66h6.506c.45 0 .747-.296.747-.66v-4.68z" fill="url(#aob)" fill-rule="nonzero" transform="translate(1.6 1.6)"/><path d="M2.667 4.6c0-.258.209-.467.466-.467h6.534c.257 0 .466.21.466.467v4.533a.467.467 0 01-.466.467H3.133a.467.467 0 01-.466-.467V4.6zm3.733 1a.533.533 0 00-.533.533V6.6h1.066v-.467A.533.533 0 006.4 5.6zm.933 1h.4c.148 0 .267.12.267.267v1.466c0 .148-.12.267-.267.267H5.067a.267.267 0 01-.267-.267V6.867c0-.148.12-.267.267-.267h.4v-.467a.933.933 0 111.866 0V6.6zM6.2 7.333a.2.2 0 11.4 0v.534a.2.2 0 11-.4 0v-.534z" fill="url(#aoc)" transform="translate(1.6 1.6)"/></g></svg><view id="icon-empty-state-users" viewBox="48 48 16 16"/><svg width="16" height="16" viewBox="0 0 16 16" x="48" y="48" xmlns="http://www.w3.org/2000/svg"><defs><linearGradient x1="100%" y1="2.898%" x2="0%" y2="97.102%" id="apc"><stop stop-color="#55D2F0" offset="0%"/><stop stop-color="#2BA6DE" offset="100%"/></linearGradient><linearGradient x1="50%" y1="0%" x2="50%" y2="100%" id="apd"><stop stop-color="#55D2F0" offset="0%"/><stop stop-color="#2BA6DE" offset="100%"/></linearGradient><linearGradient x1="50%" y1="0%" x2="50%" y2="100%" id="ape"><stop stop-color="#FFF" offset="0%"/><stop stop-color="#FFF" stop-opacity=".9" offset="100%"/></linearGradient><linearGradient x1="50%" y1="0%" x2="50%" y2="98.487%" id="apf"><stop stop-color="#FFF" offset="0%"/><stop stop-color="#FFF" stop-opacity=".9" offset="100%"/></linearGradient><path id="apa" d="M0 0h16v16H0z"/></defs><g fill="none" fill-rule="evenodd"><mask id="apb" fill="#fff"><use xlink:href="#apa"/></mask><g mask="url(#apb)"><circle fill-opacity=".05" fill="#111" cx="8" cy="8" r="6.4"/><path d="M3.533 10.667c.037 0 .067.03.067.066v.134h.133a.067.067 0 110 .133H3.6v.133a.067.067 0 11-.133 0L3.466 11h-.133a.067.067 0 010-.133h.133v-.134c0-.036.03-.066.067-.066zm4.334-8.2c.036 0 .066.03.066.066v.134h.134a.067.067 0 110 .133h-.134v.133a.067.067 0 11-.133 0L7.799 2.8h-.132a.067.067 0 110-.133h.132l.001-.134c0-.036.03-.066.067-.066zm4.75.717a.067.067 0 010 .094l-.19.188.19.19a.067.067 0 11-.095.094l-.189-.19-.188.19a.067.067 0 11-.095-.095l.19-.189-.19-.188a.067.067 0 01.095-.094l.188.188.189-.188a.067.067 0 01.094 0zm.983 4.95a.333.333 0 110 .666.333.333 0 010-.667zm0 .133a.2.2 0 100 .4.2.2 0 000-.4zm-4.8 4.666a.267.267 0 110 .534.267.267 0 010-.534zm0 .134a.133.133 0 100 .266.133.133 0 000-.266zM2.8 4.2a.2.2 0 100 .4.2.2 0 000-.4z" fill="url(#apc)"/><g fill-rule="nonzero"><path d="M4 0a2 2 0 110 4 2 2 0 010-4zm0 4.533a4.007 4.007 0 013.998 3.55.402.402 0 01-.398.45H.4a.402.402 0 01-.397-.45A4.007 4.007 0 014 4.532z" fill="url(#apd)" transform="translate(4 3.467)"/><path d="M4 .267a1.733 1.733 0 100 3.466A1.733 1.733 0 004 .267z" fill="url(#ape)" transform="translate(4 3.467)"/><path d="M4 4.8A3.74 3.74 0 00.268 8.112a.136.136 0 00.122.154H7.6c.08 0 .142-.07.133-.154A3.74 3.74 0 004 4.8z" fill="url(#apf)" transform="translate(4 3.467)"/></g></g></g></svg><view id="icon-gallery-photos" viewBox="64 0 16 16"/><svg width="16" height="16" viewBox="0 0 16 16" x="64" xmlns="http://www.w3.org/2000/svg"><defs><linearGradient x1="50%" y1="0%" x2="50%" y2="100%" id="aqc"><stop stop-color="#272727" stop-opacity=".05" offset="0%"/><stop stop-color="#111" stop-opacity=".05" offset="100%"/></linearGradient><linearGradient x1="99.445%" y1="0%" x2=".555%" y2="100%" id="aqd"><stop stop-color="#55D2F0" offset="0%"/><stop stop-color="#2BA6DE" offset="100%"/></linearGradient><linearGradient x1="100%" y1="48.204%" x2="0%" y2="51.796%" id="aqe"><stop stop-color="#55D2F0" offset="0%"/><stop stop-color="#2BA6DE" offset="100%"/></linearGradient><linearGradient x1="100%" y1="48.837%" x2="0%" y2="51.163%" id="aqf"><stop stop-color="#55D2F0" offset="0%"/><stop stop-color="#2BA6DE" offset="100%"/></linearGradient><linearGradient x1="100%" y1="49.186%" x2="0%" y2="50.814%" id="aqg"><stop stop-color="#55D2F0" offset="0%"/><stop stop-color="#2BA6DE" offset="100%"/></linearGradient><linearGradient x1="100%" y1="18%" x2="0%" y2="82%" id="aqh"><stop stop-color="#55D2F0" offset="0%"/><stop stop-color="#2BA6DE" offset="100%"/></linearGradient><linearGradient x1="50%" y1="-65.532%" x2="50%" y2="100%" id="aqi"><stop stop-color="#FFF" offset="0%"/><stop stop-color="#EFEFEF" offset="100%"/></linearGradient><linearGradient x1="50%" y1="-65.532%" x2="50%" y2="100%" id="aqj"><stop stop-color="#FFF" offset="0%"/><stop stop-color="#EFEFEF" offset="100%"/></linearGradient><path id="aqa" d="M0 0h16v16H0z"/></defs><g fill="none" fill-rule="evenodd"><mask id="aqb" fill="#fff"><use xlink:href="#aqa"/></mask><g mask="url(#aqb)"><g transform="translate(.32 .32)"><circle fill="url(#aqc)" cx="7.68" cy="7.68" r="7.68"/><path d="M5.14 13.66a.08.08 0 010 .114L4.912 14l.226.226a.08.08 0 01-.113.113l-.226-.226-.226.226a.08.08 0 01-.113-.113L4.687 14l-.226-.226a.08.08 0 01.113-.113l.226.226.226-.226a.08.08 0 01.113 0zm5.18-.3a.4.4 0 110 .8.4.4 0 010-.8zm0 .16a.24.24 0 100 .48.24.24 0 000-.48zm3.877-4.843l.566.566a.399.399 0 01-.683-.283c0-.11.045-.21.117-.283zM.88 3.68a.4.4 0 110 .8.4.4 0 010-.8zm0 .16a.24.24 0 100 .48.24.24 0 000-.48zm9.52-2.48a.08.08 0 01.08.08v.16h.16a.08.08 0 110 .16h-.16v.16a.08.08 0 11-.16 0v-.16h-.16a.08.08 0 110-.16h.16v-.16a.08.08 0 01.08-.08zM3.6 0a.08.08 0 01.08.08v.16h.16a.08.08 0 110 .16h-.16v.16a.08.08 0 11-.16 0V.4h-.16a.08.08 0 110-.16h.16V.08A.08.08 0 013.6 0z" fill="url(#aqd)"/><g opacity=".25"><path d="M9.6 2.56c.52 0 .966.31 1.167.753a1.274 1.274 0 00-.527-.113H5.12c-.187 0-.366.04-.526.113.2-.444.647-.753 1.166-.753H9.6z" fill="#FFF"/><path d="M5.006.32c.286 0 .543.125.719.323L5.646.64H.526a1.3 1.3 0 00-.078.002.957.957 0 01.718-.322h3.84z" fill="url(#aqe)" transform="translate(4.594 2.56)"/></g><g opacity=".5"><path d="M10.24 3.2c.52 0 .966.31 1.167.753a1.274 1.274 0 00-.527-.113h-6.4c-.187 0-.366.04-.526.113.2-.444.647-.753 1.166-.753h5.12z" fill="#FFF"/><path d="M6.286.32c.286 0 .543.125.719.323L6.926.64h-6.4a1.3 1.3 0 00-.078.002.957.957 0 01.718-.322h5.12z" fill="url(#aqf)" transform="translate(3.954 3.2)"/></g><g opacity=".75"><path d="M10.88 3.84c.52 0 .966.31 1.167.753a1.274 1.274 0 00-.527-.113H3.84c-.187 0-.366.04-.526.113.2-.444.647-.753 1.166-.753h6.4z" fill="#FFF"/><path d="M7.566.32c.286 0 .543.125.719.323L8.206.64H.526a1.3 1.3 0 00-.078.002.957.957 0 01.718-.322h6.4z" fill="url(#aqg)" transform="translate(3.314 3.84)"/></g><g transform="translate(2.56 4.48)"><path d="M1.28 0h7.68c.707 0 1.28.573 1.28 1.28v5.76a1.28 1.28 0 01-1.28 1.28H1.28A1.28 1.28 0 010 7.04V1.28C0 .573.573 0 1.28 0z" fill="#FFF"/><rect fill="url(#aqh)" x=".32" y=".32" width="9.6" height="7.68" rx=".96"/><path d="M6.4 5.44l1.081-1.081a.32.32 0 01.422-.028L9.448 5.52a.8.8 0 01.312.634v.886a.8.8 0 01-.8.8H8.8l-2.4-2.4z" fill="url(#aqi)" opacity=".5"/><path d="M.48 7.04V5.931a.8.8 0 01.234-.565l2.58-2.58a.32.32 0 01.452 0L8.8 7.84H1.28a.8.8 0 01-.8-.8z" fill="url(#aqj)"/><circle fill="#FFF" cx="5.92" cy="2.08" r="1"/></g></g></g></g></svg><view id="icon-gallery-videos" viewBox="64 16 16 16"/><svg width="16" height="16" fill="none" viewBox="0 0 16 16" x="64" y="16" xmlns="http://www.w3.org/2000/svg"><path d="M8 14.398a6.4 6.4 0 100-12.8 6.4 6.4 0 000 12.8z" fill="#111" fill-opacity=".05"/><path fill-rule="evenodd" clip-rule="evenodd" d="M11.733 3.332c.037 0 .067.03.067.066v.134h.133a.067.067 0 110 .133H11.8v.133a.067.067 0 11-.133 0v-.133h-.134a.067.067 0 010-.133h.134v-.134c0-.036.03-.066.066-.066zM6.467.398c.036 0 .066.03.066.067v.133h.134a.067.067 0 010 .134h-.134v.133a.067.067 0 11-.133 0V.732h-.133a.067.067 0 110-.134H6.4V.465c0-.037.03-.067.067-.067zm.016 12.384a.067.067 0 010 .095l-.189.188.189.189a.067.067 0 11-.094.094l-.189-.189-.189.189a.067.067 0 11-.094-.094l.189-.189-.189-.188a.067.067 0 11.094-.095l.189.189.189-.189a.067.067 0 01.094 0zm-4.15-8.117a.333.333 0 110 .667.333.333 0 010-.667zm0 .133a.2.2 0 100 .4.2.2 0 000-.4zm7.8 8.134a.267.267 0 110 .533.267.267 0 010-.533zm0 .133a.133.133 0 100 .267.133.133 0 000-.267zm3.126-3.208l.282.283a.2.2 0 11-.283-.283z" fill="url(#arpaint0_linear_13_378)"/><g opacity=".25" fill-rule="evenodd" clip-rule="evenodd"><path opacity=".25" d="M9.6 3.73c.433 0 .805.258.972.628a1.063 1.063 0 00-.439-.094H5.867c-.157 0-.305.034-.44.094.168-.37.54-.628.973-.628h3.2z" fill="#fff"/><path opacity=".25" d="M9.6 3.996c.238 0 .452.104.598.269a1.07 1.07 0 00-.065-.002H5.867c-.022 0-.044 0-.065.002a.798.798 0 01.598-.269h3.2z" fill="url(#arpaint1_linear_13_378)"/></g><g opacity=".5" fill-rule="evenodd" clip-rule="evenodd"><path opacity=".5" d="M10.133 4.266c.433 0 .805.257.973.627a1.062 1.062 0 00-.44-.094H5.334c-.156 0-.305.034-.439.094.168-.37.54-.627.973-.627h4.266z" fill="#fff"/><path opacity=".5" d="M10.133 4.531c.238 0 .452.104.598.269a1.068 1.068 0 00-.064-.002H5.333c-.021 0-.043 0-.064.002a.798.798 0 01.598-.269h4.266z" fill="url(#arpaint2_linear_13_378)"/></g><g opacity=".75" fill-rule="evenodd" clip-rule="evenodd"><path opacity=".75" d="M10.667 4.797c.432 0 .805.257.972.628a1.063 1.063 0 00-.439-.095H4.8c-.157 0-.305.034-.439.094.167-.37.54-.627.972-.627h5.334z" fill="#fff"/><path opacity=".75" d="M10.667 5.063c.238 0 .451.103.598.268a1.065 1.065 0 00-.065-.002H4.8c-.022 0-.043 0-.065.002a.798.798 0 01.598-.269h5.334z" fill="url(#arpaint3_linear_13_378)"/></g><path fill-rule="evenodd" clip-rule="evenodd" d="M4.8 5.332h6.4c.589 0 1.067.478 1.067 1.067v4.8c0 .589-.478 1.066-1.067 1.066H4.8c-.59 0-1.067-.477-1.067-1.066v-4.8c0-.59.478-1.067 1.067-1.067z" fill="#fff"/><path d="M11.2 5.598H4.8a.8.8 0 00-.8.8v4.8a.8.8 0 00.8.8h6.4a.8.8 0 00.8-.8v-4.8a.8.8 0 00-.8-.8z" fill="url(#arpaint4_linear_13_378)"/><path fill-rule="evenodd" clip-rule="evenodd" d="M4.4 6.2c0-.11.09-.2.2-.2h.8a.2.2 0 010 .4h-.8a.2.2 0 01-.2-.2zm0 .9c0-.24.194-.433.433-.433h.334a.433.433 0 010 .866h-.334A.433.433 0 014.4 7.1zm2.467.476c0-.271.21-.357.465-.193l1.742 1.118c.257.164.256.433 0 .597l-1.742 1.117c-.257.165-.465.084-.465-.193V7.576zm3.966-.91a.433.433 0 000 .867h.334a.433.433 0 000-.866h-.334zM4.4 8.234c0-.239.194-.433.433-.433h.334a.433.433 0 010 .867h-.334a.433.433 0 01-.433-.434zm6.433-.433a.433.433 0 000 .867h.334a.433.433 0 000-.867h-.334zM4.4 9.367c0-.24.194-.434.433-.434h.334a.433.433 0 010 .867h-.334a.433.433 0 01-.433-.433zm6.433-.434a.433.433 0 000 .867h.334a.433.433 0 000-.867h-.334zM4.4 10.5c0-.24.194-.433.433-.433h.334a.433.433 0 110 .866h-.334A.433.433 0 014.4 10.5zm6.433-.433a.433.433 0 000 .866h.334a.433.433 0 000-.866h-.334zM4.4 11.4c0-.11.09-.2.2-.2h.8a.2.2 0 010 .4h-.8a.2.2 0 01-.2-.2zm6.2-.2a.2.2 0 000 .4h.8a.2.2 0 100-.4h-.8zm0-5.2a.2.2 0 100 .4h.8a.2.2 0 100-.4h-.8z" fill="#fff"/><defs><linearGradient id="arpaint0_linear_13_378" x1="12.273" y1=".398" x2="1.843" y2="12.206" gradientUnits="userSpaceOnUse"><stop stop-color="#55D2F0"/><stop offset="1" stop-color="#2BA6DE"/></linearGradient><linearGradient id="arpaint1_linear_13_378" x1="10.198" y1="4.13" x2="5.818" y2="4.398" gradientUnits="userSpaceOnUse"><stop stop-color="#55D2F0"/><stop offset="1" stop-color="#2BA6DE"/></linearGradient><linearGradient id="arpaint2_linear_13_378" x1="10.731" y1="4.665" x2="5.282" y2="4.933" gradientUnits="userSpaceOnUse"><stop stop-color="#55D2F0"/><stop offset="1" stop-color="#2BA6DE"/></linearGradient><linearGradient id="arpaint3_linear_13_378" x1="11.265" y1="5.197" x2="4.746" y2="5.465" gradientUnits="userSpaceOnUse"><stop stop-color="#55D2F0"/><stop offset="1" stop-color="#2BA6DE"/></linearGradient><linearGradient id="arpaint4_linear_13_378" x1="12" y1="6.75" x2="5.124" y2="12.251" gradientUnits="userSpaceOnUse"><stop stop-color="#55D2F0"/><stop offset="1" stop-color="#2BA6DE"/></linearGradient></defs></svg><view id="icon-gif-rest" viewBox="64 32 16 16"/><svg width="16" height="16" viewBox="0 0 16 16" x="64" y="32" xmlns="http://www.w3.org/2000/svg"><defs><path id="asa" d="M0 0h16v16H0z"/><path d="M6.896 6.612l-.622.617a1.254 1.254 0 00-.867-.33c-.617 0-1.018.368-1.018 1.11 0 .486.255 1.087 1.018 1.087.2 0 .515-.038.731-.195v-.487H5.18v-.839h1.852v1.683c-.239.482-.9.742-1.63.742-1.5 0-2.069-1.001-2.069-1.992 0-.99.65-2.008 2.074-2.008.525 0 .991.108 1.49.612zm1.951 3.285H7.781V6.108h1.066v3.79zm1.973 0H9.76V6.108h2.908v.899H10.82v.709h1.733v.877H10.82v1.304z" id="asc"/></defs><g fill="none" fill-rule="evenodd"><mask id="asb" fill="#fff"><use xlink:href="#asa"/></mask><g mask="url(#asb)"><path d="M2.667 1.333h10.666c.737 0 1.334.597 1.334 1.334v10.666c0 .737-.597 1.334-1.334 1.334H2.667a1.333 1.333 0 01-1.334-1.334V2.667c0-.737.597-1.334 1.334-1.334z" fill="#707070"/><use fill="#FFF" xlink:href="#asc"/></g></g></svg><view id="icon-handset" viewBox="64 48 16 16"/><svg width="16" height="16" viewBox="0 0 16 16" x="64" y="48" xmlns="http://www.w3.org/2000/svg"><defs><path id="ata" d="M0 0h16v16H0z"/><path d="M5.518 10.482c-1.305-1.305-2.22-2.857-3.105-4.47-.832-1.522-.382-2.894 1.132-3.802.533-.322.975-.285 1.373.188.187.232.885 1.072 1.065 1.312.57.735.577 1.185-.465 2.213-.435.427-.33.974 0 1.304l3.255 3.255c.33.33.877.435 1.304 0 1.028-1.042 1.478-1.035 2.213-.465.24.18 1.08.878 1.312 1.065.473.398.51.84.188 1.373-.908 1.514-2.28 1.964-3.803 1.132-1.612-.885-3.164-1.8-4.47-3.105z" id="atc"/></defs><g fill="none" fill-rule="evenodd"><mask id="atb" fill="#fff"><use xlink:href="#ata"/></mask><g mask="url(#atb)"><use fill-opacity=".7" fill="#333" xlink:href="#atc"/></g></g></svg><view id="icon-handset-cancelled" viewBox="0 64 16 16"/><svg width="16" height="16" viewBox="0 0 16 16" y="64" xmlns="http://www.w3.org/2000/svg"><defs><path id="aua" d="M0 0h16v16H0z"/></defs><g fill="none" fill-rule="evenodd"><mask id="aub" fill="#fff"><use xlink:href="#aua"/></mask><g mask="url(#aub)" fill-rule="nonzero"><path d="M7.752 9.461l1.02 1.021c.33.33.878.435 1.305 0 .997-1.01 1.45-1.034 2.147-.515l.19.147.589.477.6.491c.472.398.51.84.187 1.373-.908 1.514-2.28 1.964-3.803 1.132-1.36-.747-2.677-1.515-3.84-2.52l1.605-1.606zM4.918 2.398l.75.917.218.27.097.125c.57.735.577 1.185-.465 2.213-.435.427-.33.974 0 1.304l.52.52-1.555 1.556c-.793-1.021-1.439-2.14-2.07-3.29-.832-1.523-.382-2.895 1.132-3.803.533-.322.975-.285 1.373.188z" fill-opacity=".7" fill="#333"/><path d="M12.107 3.354a.5.5 0 010 .707L2.56 13.607a.5.5 0 11-.707-.708l9.545-9.545a.5.5 0 01.708 0z" fill="#FD3E38"/></g></g></svg><view id="icon-handset-ended" viewBox="16 64 16 16"/><svg width="16" height="16" viewBox="0 0 16 16" x="16" y="64" xmlns="http://www.w3.org/2000/svg"><defs><path id="ava" d="M0 0h16v16H0z"/><path d="M8 5.49c1.628 0 3.178.35 4.733.786l.623.179c1.665.488 2.317 1.776 1.888 3.489-.149.605-.488.89-1.103.838l-1.18-.118-.344-.037-.24-.031-.154-.026c-.742-.146-1.008-.526-.999-1.856.005-.61-.456-.923-.923-.923H5.7c-.467 0-.928.313-.923.923.01 1.33-.257 1.71-.999 1.856l-.154.026-.152.02-.433.048-1.179.118c-.615.053-.954-.233-1.103-.838-.43-1.713.223-3.001 1.888-3.49l.623-.178c1.451-.406 2.898-.74 4.408-.782L8 5.49z" id="avc"/></defs><g fill="none" fill-rule="evenodd"><mask id="avb" fill="#fff"><use xlink:href="#ava"/></mask><g mask="url(#avb)"><use fill-opacity=".7" fill="#333" xlink:href="#avc"/></g></g></svg><view id="icon-handset-failed" viewBox="32 64 16 16"/><svg width="16" height="16" viewBox="0 0 16 16" x="32" y="64" xmlns="http://www.w3.org/2000/svg"><defs><path id="awa" d="M0 0h16v16H0z"/></defs><g fill="none" fill-rule="evenodd"><mask id="awb" fill="#fff"><use xlink:href="#awa"/></mask><g mask="url(#awb)" fill-rule="nonzero"><path d="M12.694 2.605a.5.5 0 01.66.749L12.207 4.5l1.147 1.146a.5.5 0 01-.66.75l-.048-.042L11.5 5.207l-1.146 1.147-.048.041a.5.5 0 01-.66-.749L10.793 4.5 9.646 3.354a.5.5 0 01.66-.75l.048.042L11.5 3.793l1.146-1.147z" fill="#FD3E38"/><path d="M5.518 10.482c-1.305-1.305-2.22-2.857-3.105-4.47-.832-1.522-.382-2.894 1.132-3.802.533-.322.975-.285 1.373.188.187.232.885 1.072 1.065 1.312.57.735.577 1.185-.465 2.213-.435.427-.33.974 0 1.304l3.255 3.255c.33.33.877.435 1.304 0 1.028-1.042 1.478-1.035 2.213-.465.24.18 1.08.878 1.312 1.065.473.398.51.84.188 1.373-.908 1.514-2.28 1.964-3.803 1.132-1.612-.885-3.164-1.8-4.47-3.105z" fill-opacity=".7" fill="#333"/></g></g></svg><view id="icon-handset-incoming" viewBox="48 64 16 16"/><svg width="16" height="16" viewBox="0 0 16 16" x="48" y="64" xmlns="http://www.w3.org/2000/svg"><defs><path id="axa" d="M0 0h16v16H0z"/></defs><g fill="none" fill-rule="evenodd"><mask id="axb" fill="#fff"><use xlink:href="#axa"/></mask><g mask="url(#axb)" fill-rule="nonzero"><path d="M9.055 7.194a.5.5 0 01-.5-.5V4.867a.5.5 0 01.5-.5h.061a.5.5 0 01.5.5v.56l2.121-2.12a.5.5 0 01.708.706l-2.122 2.122h.561a.5.5 0 01.5.5v.06a.5.5 0 01-.5.5H9.055z" fill="#1DB07B"/><path d="M5.518 10.482c-1.305-1.305-2.22-2.857-3.105-4.47-.832-1.522-.382-2.894 1.132-3.802.533-.322.975-.285 1.373.188.187.232.885 1.072 1.065 1.312.57.735.577 1.185-.465 2.213-.435.427-.33.974 0 1.304l3.255 3.255c.33.33.877.435 1.304 0 1.028-1.042 1.478-1.035 2.213-.465.24.18 1.08.878 1.312 1.065.473.398.51.84.188 1.373-.908 1.514-2.28 1.964-3.803 1.132-1.612-.885-3.164-1.8-4.47-3.105z" fill-opacity=".7" fill="#333"/></g></g></svg><view id="icon-handset-missed" viewBox="64 64 16 16"/><svg width="16" height="16" viewBox="0 0 16 16" x="64" y="64" xmlns="http://www.w3.org/2000/svg"><defs><path id="aya" d="M0 0h16v16H0z"/></defs><g fill="none" fill-rule="evenodd"><mask id="ayb" fill="#fff"><use xlink:href="#aya"/></mask><g mask="url(#ayb)"><path d="M8 8.49c1.628 0 3.178.35 4.733.786l.623.179c1.665.488 2.317 1.776 1.888 3.489-.149.605-.488.89-1.103.838l-1.18-.118-.344-.037-.24-.031-.154-.026c-.742-.146-1.008-.526-.999-1.856.005-.61-.456-.923-.923-.923H5.7c-.467 0-.928.313-.923.923.01 1.33-.257 1.71-.999 1.856l-.154.026-.152.02-.433.048-1.179.118c-.615.053-.954-.233-1.103-.838-.43-1.713.223-3.001 1.888-3.49l.623-.178c1.451-.406 2.898-.74 4.408-.782L8 8.49z" fill-opacity=".7" fill="#333"/><path d="M9.5 2.5h2l.038.001.062.01.056.014.056.022.048.026.049.033.045.04a.505.505 0 01.048.056l.036.056.026.056.018.053.015.074L12 3v2a.5.5 0 11-1 0v-.793L8.354 6.854a.5.5 0 01-.66.041l-.048-.041-2.5-2.5a.5.5 0 01.66-.75l.048.042L8 5.793 10.292 3.5H9.5a.5.5 0 010-1z" fill="orange"/></g></g></svg><view id="icon-handset-outgoing" viewBox="80 0 16 16"/><svg width="16" height="16" viewBox="0 0 16 16" x="80" xmlns="http://www.w3.org/2000/svg"><defs><path id="aza" d="M0 0h16v16H0z"/></defs><g fill="none" fill-rule="evenodd"><mask id="azb" fill="#fff"><use xlink:href="#aza"/></mask><g mask="url(#azb)" fill-rule="nonzero"><path d="M12.945 3.805a.5.5 0 00-.5-.5h-1.829a.5.5 0 00-.5.5v.061a.5.5 0 00.5.5h.56l-2.12 2.121a.5.5 0 00.707.707l2.12-2.12v.56a.5.5 0 00.5.5h.062a.5.5 0 00.5-.5v-1.83z" fill="#2BA6DE"/><path d="M5.518 10.482c-1.305-1.305-2.22-2.857-3.105-4.47-.832-1.522-.382-2.894 1.132-3.802.533-.322.975-.285 1.373.188.187.232.885 1.072 1.065 1.312.57.735.577 1.185-.465 2.213-.435.427-.33.974 0 1.304l3.255 3.255c.33.33.877.435 1.304 0 1.028-1.042 1.478-1.035 2.213-.465.24.18 1.08.878 1.312 1.065.473.398.51.84.188 1.373-.908 1.514-2.28 1.964-3.803 1.132-1.612-.885-3.164-1.8-4.47-3.105z" fill-opacity=".7" fill="#333"/></g></g></svg><view id="icon-handset-rejected" viewBox="80 16 16 16"/><svg width="16" height="16" viewBox="0 0 16 16" x="80" y="16" xmlns="http://www.w3.org/2000/svg"><defs><path id="baa" d="M0 0h16v16H0z"/></defs><g fill="none" fill-rule="evenodd"><mask id="bab" fill="#fff"><use xlink:href="#baa"/></mask><g mask="url(#bab)" fill-rule="nonzero"><path d="M11.5 2a2.5 2.5 0 110 5 2.5 2.5 0 010-5zm1.354 1.853l-2 2a1.5 1.5 0 002-2zM11.5 3a1.5 1.5 0 00-1.354 2.147l2-2A1.494 1.494 0 0011.5 3z" fill="#FD3E38"/><path d="M5.518 10.482c-1.305-1.305-2.22-2.857-3.105-4.47-.832-1.522-.382-2.894 1.132-3.802.533-.322.975-.285 1.373.188.187.232.885 1.072 1.065 1.312.57.735.577 1.185-.465 2.213-.435.427-.33.974 0 1.304l3.255 3.255c.33.33.877.435 1.304 0 1.028-1.042 1.478-1.035 2.213-.465.24.18 1.08.878 1.312 1.065.473.398.51.84.188 1.373-.908 1.514-2.28 1.964-3.803 1.132-1.612-.885-3.164-1.8-4.47-3.105z" fill-opacity=".7" fill="#333"/></g></g></svg><view id="icon-image-zoom-in" viewBox="80 32 16 16"/><svg width="16" height="16" viewBox="0 0 16 16" x="80" y="32" xmlns="http://www.w3.org/2000/svg"><defs><linearGradient x1="50%" y1=".281%" x2="50%" y2="99.784%" id="bbc"><stop stop-color="#D9D9D9" offset="0%"/><stop stop-color="#DDD" offset="100%"/></linearGradient><linearGradient x1="50%" y1="0%" x2="50%" y2="97.5%" id="bbe"><stop stop-color="#FFF" offset="0%"/><stop stop-color="#FAFAFA" offset="100%"/></linearGradient><path id="bba" d="M0 0h16v16H0z"/><path d="M.667 0h8c.368 0 .666.298.666.667V8a.667.667 0 01-.666.667h-8A.667.667 0 010 8V.667C0 .298.298 0 .667 0z" id="bbd"/></defs><g fill="none" fill-rule="evenodd"><mask id="bbb" fill="#fff"><use xlink:href="#bba"/></mask><g mask="url(#bbb)"><path d="M.667 0H10c.368 0 .667.298.667.667v10.666A.667.667 0 0110 12H.667A.667.667 0 010 11.333V.667C0 .298.298 0 .667 0z" fill="url(#bbc)" transform="translate(2.667 2)"/><g transform="translate(3.333 2.667)"><mask id="bbf" fill="#fff"><use xlink:href="#bbd"/></mask><use fill="url(#bbe)" xlink:href="#bbd"/><path d="M4.667 6.667L7 4.333 9.333 6 6.667 8.667H5.333A.667.667 0 014.667 8V6.667z" fill-opacity=".5" fill="#9D9D9D" mask="url(#bbf)" transform="matrix(-1 0 0 1 14 0)"/><path d="M5.333 2.667l2 2.666V8a.667.667 0 01-.666.667H0l5.333-6z" fill-opacity=".8" fill="#9D9D9D" mask="url(#bbf)" transform="matrix(-1 0 0 1 7.333 0)"/><circle fill="#9D9D9D" mask="url(#bbf)" cx="6" cy="2" r="1.333"/></g></g></g></svg><view id="icon-image-zoom-out" viewBox="80 48 16 16"/><svg width="16" height="16" viewBox="0 0 16 16" x="80" y="48" xmlns="http://www.w3.org/2000/svg"><defs><linearGradient x1="50%" y1="0%" x2="50%" y2="100%" id="bcc"><stop stop-color="#D9D9D9" offset="0%"/><stop stop-color="#DDD" offset="100%"/></linearGradient><linearGradient x1="50%" y1="0%" x2="50%" y2="97.5%" id="bce"><stop stop-color="#FFF" offset="0%"/><stop stop-color="#FAFAFA" offset="100%"/></linearGradient><path id="bca" d="M0 0h16v16H0z"/><path d="M.667 0H6c.368 0 .667.298.667.667V6A.667.667 0 016 6.667H.667A.667.667 0 010 6V.667C0 .298.298 0 .667 0z" id="bcd"/></defs><g fill="none" fill-rule="evenodd"><mask id="bcb" fill="#fff"><use xlink:href="#bca"/></mask><g mask="url(#bcb)"><path d="M.667 0h6.666C7.702 0 8 .298 8 .667v8a.667.667 0 01-.667.666H.667A.667.667 0 010 8.667v-8C0 .298.298 0 .667 0z" fill="url(#bcc)" transform="translate(4 3.333)"/><g transform="translate(4.667 4)"><mask id="bcf" fill="#fff"><use xlink:href="#bcd"/></mask><use fill="url(#bce)" xlink:href="#bcd"/><path d="M4 5.333l1.667-1.666 1.666 1.666-2 2h-.666A.667.667 0 014 6.667V5.333z" fill-opacity=".5" fill="#9D9D9D" mask="url(#bcf)" transform="matrix(-1 0 0 1 11.333 0)"/><path d="M4 2l2 2v2.667a.667.667 0 01-.667.666h-6L4 2z" fill-opacity=".8" fill="#9D9D9D" mask="url(#bcf)" transform="matrix(-1 0 0 1 5.333 0)"/><circle fill="#9D9D9D" mask="url(#bcf)" cx="4.333" cy="1.667" r="1"/></g></g></g></svg><view id="icon-loading-spinner" viewBox="80 64 16 16"/><svg width="16" height="16" viewBox="0 0 16 16" x="80" y="64" xmlns="http://www.w3.org/2000/svg"><defs><path id="bda" d="M0 0h16v16H0z"/></defs><g fill="none" fill-rule="evenodd"><mask id="bdb" fill="#fff"><use xlink:href="#bda"/></mask><g mask="url(#bdb)" fill="#333"><rect fill-opacity=".5" x="7.333" y="1.333" width="1.333" height="4" rx=".667"/><rect fill-opacity=".7" transform="rotate(45 11.3 4.7)" x="10.633" y="2.7" width="1.333" height="4" rx=".667"/><rect fill-opacity=".9" transform="rotate(90 12.667 8)" x="12" y="6" width="1.333" height="4" rx=".667"/><rect fill-opacity=".2" transform="rotate(135 11.3 11.3)" x="10.633" y="9.3" width="1.333" height="4" rx=".667"/><rect fill-opacity=".2" transform="rotate(180 8 12.667)" x="7.333" y="10.667" width="1.333" height="4" rx=".667"/><rect fill-opacity=".2" transform="rotate(-135 4.7 11.3)" x="4.034" y="9.3" width="1.333" height="4" rx=".667"/><rect fill-opacity=".2" transform="rotate(-90 3.333 8)" x="2.667" y="6" width="1.333" height="4" rx=".667"/><rect fill-opacity=".2" transform="rotate(-45 4.7 4.7)" x="4.034" y="2.7" width="1.333" height="4" rx=".667"/></g></g></svg><view id="icon-mic-disabled" viewBox="0 80 16 16"/><svg width="16" height="16" fill="none" viewBox="0 0 16 16" y="80" xmlns="http://www.w3.org/2000/svg"><rect x="9" y="9" width="7" height="7" rx="1" fill="#FD3E38"/><path fill-rule="evenodd" clip-rule="evenodd" d="M11.97 12.5l-1.235-1.235.53-.53L12.5 11.97l1.235-1.235.53.53L13.03 12.5l1.235 1.235-.53.53L12.5 13.03l-1.235 1.235-.53-.53L11.97 12.5z" fill="#fff"/><path fill-rule="evenodd" clip-rule="evenodd" d="M8 1.5a2.053 2.053 0 012.052 2.053v4.105c0 .115-.01.23-.029.342H9.25C8.56 8 8 8.56 8 9.25v.46a2.053 2.053 0 01-2.053-2.052V3.553A2.053 2.053 0 017.999 1.5zm0 9.579V14.5h-.685v-2.1A4.794 4.794 0 013.222 8h1.374a3.42 3.42 0 003.403 3.079z" fill="#333" fill-opacity=".7"/></svg><view id="icon-notifications" viewBox="16 80 16 16"/><svg width="16" height="16" viewBox="0 0 16 16" x="16" y="80" xmlns="http://www.w3.org/2000/svg"><defs><linearGradient x1="50%" y1="0%" x2="50%" y2="100%" id="bfa"><stop stop-color="#F8E9B1" offset="0%"/><stop stop-color="#F5DF8E" offset="100%"/></linearGradient></defs><g fill="none" fill-rule="evenodd"><g fill-rule="nonzero"><circle fill="#EBC01E" cx="8" cy="12" r="2"/><circle fill="#EBC01E" cx="8" cy="2" r="1"/><path d="M2.39 9.61L4 8V6a4 4 0 118 0v2l1.61 1.61c.25.25.39.589.39.942v.781c0 .737-.597 1.334-1.333 1.334H3.333A1.333 1.333 0 012 11.333v-.78c0-.354.14-.693.39-.944z" fill="url(#bfa)"/><path fill-opacity=".6" fill="#F8E9B1" style="mix-blend-mode:screen" d="M2.667 10L4 8.667h8L13.333 10z"/><path d="M8 2a4 4 0 014 4v2l1.61 1.61c.25.25.39.589.39.942v.781c0 .737-.597 1.334-1.333 1.334H3.333A1.333 1.333 0 012 11.333v-.78c0-.354.14-.693.39-.944L4 8V6a4 4 0 014-4zm0 .667a3.333 3.333 0 00-3.33 3.188L4.667 6v2.276l-1.805 1.805a.667.667 0 00-.19.384l-.005.087v.781c0 .342.257.624.589.663l.077.004h9.334a.667.667 0 00.662-.589l.004-.078v-.78a.667.667 0 00-.137-.406l-.058-.066-1.805-1.805V6A3.333 3.333 0 008 2.667z" fill="#EBC01E"/><path fill-opacity=".3" fill="#EBC01E" d="M2.667 10h10.666v.667H2.667zM4 8h8v.667H4z"/></g><path d="M0 0h16v16H0z"/></g></svg><view id="icon-notifications-muted" viewBox="32 80 16 16"/><svg width="16" height="16" viewBox="0 0 16 16" x="32" y="80" xmlns="http://www.w3.org/2000/svg"><defs><linearGradient x1="50%" y1="0%" x2="50%" y2="100%" id="bga"><stop stop-color="#F8E9B1" offset="0%"/><stop stop-color="#F5DF8E" offset="100%"/></linearGradient></defs><g fill="none" fill-rule="evenodd"><g fill-rule="nonzero"><circle fill="#EBC01E" cx="8" cy="12" r="2"/><circle fill="#EBC01E" cx="8" cy="2" r="1"/><path d="M2.39 9.61L4 8V6a4 4 0 118 0v2l1.61 1.61c.25.25.39.589.39.942v.781c0 .737-.597 1.334-1.333 1.334H3.333A1.333 1.333 0 012 11.333v-.78c0-.354.14-.693.39-.944z" fill="url(#bga)"/><path fill-opacity=".6" fill="#F8E9B1" style="mix-blend-mode:screen" d="M2.667 10L4 8.667h8L13.333 10z"/><path d="M8 2a4 4 0 014 4v2l1.61 1.61c.25.25.39.589.39.942v.781c0 .737-.597 1.334-1.333 1.334H3.333A1.333 1.333 0 012 11.333v-.78c0-.354.14-.693.39-.944L4 8V6a4 4 0 014-4zm0 .667a3.333 3.333 0 00-3.33 3.188L4.667 6v2.276l-1.805 1.805a.667.667 0 00-.19.384l-.005.087v.781c0 .342.257.624.589.663l.077.004h9.334a.667.667 0 00.662-.589l.004-.078v-.78a.667.667 0 00-.137-.406l-.058-.066-1.805-1.805V6A3.333 3.333 0 008 2.667z" fill="#EBC01E"/><path fill-opacity=".3" fill="#EBC01E" d="M2.667 10h10.666v.667H2.667zM4 8h8v.667H4z"/><path fill="#EBC01E" d="M4 12.667h2l6-6v-2z"/><path d="M14.128 1.872c.26.26.26.682 0 .943L2.815 14.128a.667.667 0 01-.943-.943L13.185 1.872c.26-.26.683-.26.943 0z" fill-opacity=".7" fill="#F0373A"/></g><path d="M0 0h16v16H0z"/></g></svg><view id="icon-question-grey" viewBox="48 80 16 16"/><svg width="16" height="16" viewBox="0 0 16 16" x="48" y="80" xmlns="http://www.w3.org/2000/svg"><g fill="none" fill-rule="evenodd"><g><circle fill="#EEE" cx="8" cy="8" r="8"/><path d="M6 4.797c.123-.109.257-.212.404-.31a2.898 2.898 0 011.027-.425C7.63 4.021 7.845 4 8.076 4c.314 0 .6.043.859.13.258.087.48.21.664.371.184.161.327.355.428.583.101.228.152.482.152.764 0 .275-.04.512-.12.713-.079.2-.178.375-.297.523-.12.148-.25.276-.393.385l-.404.306a3.17 3.17 0 00-.328.282.557.557 0 00-.165.312l-.125.79H7.43l-.092-.883a.718.718 0 01.073-.447 1.36 1.36 0 01.282-.352c.117-.107.248-.21.393-.309.144-.1.28-.208.406-.325.127-.118.232-.25.317-.396.085-.146.128-.32.128-.523a.79.79 0 00-.276-.615.911.911 0 00-.312-.17 1.253 1.253 0 00-.393-.06 1.75 1.75 0 00-.887.22c-.099.055-.183.106-.252.15a.346.346 0 01-.184.069.296.296 0 01-.282-.163L6 4.797zm1.024 6.39a.834.834 0 01.233-.58.82.82 0 01.586-.238c.115 0 .223.021.322.065a.798.798 0 01.436.434.803.803 0 01.066.319.797.797 0 01-.242.58.823.823 0 01-.582.233.848.848 0 01-.325-.062.785.785 0 01-.494-.751z" fill="#666" fill-rule="nonzero"/></g><path d="M0 0h16v16H0z"/></g></svg><view id="icon-settings" viewBox="64 80 16 16"/><svg width="16" height="16" viewBox="0 0 16 16" x="64" y="80" xmlns="http://www.w3.org/2000/svg"><defs><linearGradient x1="50%" y1="97.5%" x2="50%" y2="0%" id="bia"><stop stop-color="#555" offset="0%"/><stop stop-color="#666" offset="100%"/></linearGradient></defs><g fill="none" fill-rule="evenodd"><path d="M5 6.667a1.667 1.667 0 11.11-.004L5 6.667zM10 5c0-.552-.45-1-1-1h-.473a3.79 3.79 0 00-.327-.786l.336-.336a.998.998 0 00.07-1.338l-.07-.077a1.002 1.002 0 00-1.414.001l-.336.336A3.79 3.79 0 006 1.473V1a.997.997 0 00-.903-.994L5 0c-.552 0-1 .45-1 1v.473c-.277.08-.54.19-.786.327l-.336-.336a.998.998 0 00-1.338-.07l-.077.07a1.002 1.002 0 00.001 1.414l.336.336A3.79 3.79 0 001.473 4H1a.997.997 0 00-.994.903L0 5c0 .552.45 1 1 1h.473c.08.277.19.54.327.786l-.336.336a.998.998 0 00-.07 1.338l.07.077c.39.39 1.025.388 1.414-.001l.336-.336c.246.137.51.247.786.327V9c0 .52.393.946.903.994L5 10c.552 0 1-.45 1-1v-.473c.277-.08.54-.19.786-.327l.336.336a.998.998 0 001.338.07l.077-.07c.39-.39.388-1.025-.001-1.414L8.2 6.786A3.79 3.79 0 008.527 6H9c.52 0 .946-.393.994-.903L10 5z" fill="url(#bia)" transform="translate(2.667 2.667)"/><path d="M0 0h16v16H0z"/></g></svg><view id="icon-stripe" viewBox="80 80 16 16"/><svg width="16" height="16" viewBox="0 0 16 16" x="80" y="80" xmlns="http://www.w3.org/2000/svg"><defs><path id="bja" d="M0 0h16v16H0z"/></defs><g fill="none" fill-rule="evenodd"><mask id="bjb" fill="#fff"><use xlink:href="#bja"/></mask><g mask="url(#bjb)" fill="#635BFF"><path d="M9.988 6.318c.519 0 1.008.492 1.01 1.395 0 .988-.482 1.437-1.013 1.437a.811.811 0 01-.524-.197l-.003.882-.741.165V6.368h.652l.038.193c.104-.1.29-.243.581-.243zM5.42 5.695l-.003.676h.563v.663h-.563V8.14c0 .461.468.318.563.277v.633c-.098.056-.275.103-.518.103-.439 0-.768-.34-.768-.801l.003-2.495.723-.162zm-1.75.623c.245 0 .488.04.734.143v.732c-.225-.128-.51-.2-.735-.2-.157 0-.252.047-.252.169 0 .349 1.13.184 1.132 1.112 0 .558-.424.879-1.04.879-.255 0-.533-.053-.809-.178v-.741c.25.143.563.249.81.249.165 0 .284-.047.284-.19 0-.37-1.126-.234-1.126-1.094 0-.551.4-.881 1.001-.881zm8.595 0c.702 0 1.07.629 1.07 1.427 0 .074-.007.236-.007.277H11.88c.032.367.287.473.574.473.294 0 .525-.065.726-.171v.623a1.588 1.588 0 01-.82.203c-.723 0-1.227-.474-1.227-1.412 0-.791.427-1.42 1.132-1.42zM8.44 6.37v2.726h-.743V6.37h.743zm-1.54.23c.175-.336.521-.268.616-.23v.716c-.092-.034-.388-.078-.563.162v1.848h-.74V6.37h.64zm2.91.408a.431.431 0 00-.353.153l.003 1.156a.433.433 0 00.35.146c.272 0 .456-.311.456-.729 0-.408-.187-.726-.457-.726zm2.45-.059c-.187 0-.391.147-.391.499h.764c0-.352-.193-.499-.373-.499zM8.44 5.333v.633l-.743.168v-.636l.743-.165z"/></g></g></svg></svg>