<?xml version="1.0" encoding="UTF-8"?><svg width="64" height="64" viewBox="0 0 64 64" xmlns="http://www.w3.org/2000/svg" xmlns:xlink="http://www.w3.org/1999/xlink"><svg width="16" height="16" viewBox="0 0 16 16" id="icon-emoji" xmlns="http://www.w3.org/2000/svg"><defs><linearGradient x1="50%" y1="0%" x2="50%" y2="96.88%" id="ac"><stop stop-color="#E8E8E8" offset="0%"/><stop stop-color="#E1E1E1" offset="100%"/></linearGradient><path id="aa" d="M0 0h16v16H0z"/></defs><g fill="none" fill-rule="evenodd"><mask id="ab" fill="#fff"><use xlink:href="#aa"/></mask><g mask="url(#ab)"><path d="M6.667 0a6.665 6.665 0 016.666 6.667 6.665 6.665 0 01-6.666 6.666A6.665 6.665 0 010 6.667 6.665 6.665 0 016.667 0" fill="url(#ac)" transform="translate(1.333 1.333)"/><path d="M11.58 9.384c.34.14.503.53.363.87C11.495 11.34 9.849 12 8 12c-1.85 0-3.495-.66-3.943-1.746a.667.667 0 011.2-.578l.033.07c.189.459 1.341.92 2.71.92 1.314 0 2.428-.425 2.683-.865l.027-.055c.14-.34.53-.502.87-.362zM11 6c.553 0 1 .447 1 1 0 .553-.447 1-1 1-.553 0-1-.447-1-1 0-.553.447-1 1-1zM5 6c.553 0 1 .447 1 1 0 .553-.447 1-1 1-.553 0-1-.447-1-1 0-.553.447-1 1-1z" fill="#9D9D9D" fill-rule="nonzero"/><path d="M8 1.333A6.665 6.665 0 0114.667 8 6.665 6.665 0 018 14.667 6.665 6.665 0 011.333 8 6.665 6.665 0 018 1.333zM8 2C4.685 2 2 4.685 2 8s2.685 6 6 6 6-2.685 6-6-2.685-6-6-6z" fill="#9D9D9D" fill-rule="nonzero"/></g></g></svg><svg width="16" height="16" viewBox="0 0 16 16" id="icon-emoji-active" x="16" xmlns="http://www.w3.org/2000/svg"><defs><linearGradient x1="50%" y1="0%" x2="50%" y2="97.5%" id="bc"><stop stop-color="#F8E9B1" offset="0%"/><stop stop-color="#F5DF8E" offset="100%"/></linearGradient><path id="ba" d="M0 0h16v16H0z"/></defs><g fill="none" fill-rule="evenodd"><mask id="bb" fill="#fff"><use xlink:href="#ba"/></mask><g mask="url(#bb)"><path d="M6.667 0a6.665 6.665 0 016.666 6.667 6.665 6.665 0 01-6.666 6.666A6.665 6.665 0 010 6.667 6.665 6.665 0 016.667 0" fill="url(#bc)" transform="translate(1.333 1.333)"/><path d="M8 1.333A6.665 6.665 0 0114.667 8 6.665 6.665 0 018 14.667 6.665 6.665 0 011.333 8 6.665 6.665 0 018 1.333zM8 2C4.685 2 2 4.685 2 8s2.685 6 6 6 6-2.685 6-6-2.685-6-6-6z" fill="#EBC01E" fill-rule="nonzero"/><path d="M11.332 8c.364 0 .668.295.668.66-.404 1.972-1.955 3.34-4 3.34s-3.596-1.368-4-3.333C4 8.302 4.3 8 4.668 8zm-.999-2.667c.554 0 1 .447 1 1 0 .554-.446 1-1 1-.553 0-1-.446-1-1 0-.553.447-1 1-1zm-4.666 0c.553 0 1 .447 1 1 0 .554-.447 1-1 1-.554 0-1-.446-1-1 0-.553.446-1 1-1z" fill="#EBC01E"/></g></g></svg><svg width="16" height="16" viewBox="0 0 16 16" id="icon-emoji-reactions" y="16" xmlns="http://www.w3.org/2000/svg"><defs><path id="ca" d="M0 0h16v16H0z"/></defs><g fill="none" fill-rule="evenodd"><mask id="cb" fill="#fff"><use xlink:href="#ca"/></mask><g mask="url(#cb)" fill="#9D9D9D" fill-rule="nonzero"><path d="M8 4c.24 0 .477.018.708.053a.997.997 0 00.044.686A3.999 3.999 0 004 8.667c0 2.21 1.79 4 4 4a3.999 3.999 0 003.412-6.09.994.994 0 00.488-.473 4.665 4.665 0 01-3.9 7.23 4.665 4.665 0 01-4.667-4.667A4.665 4.665 0 018 4zm2.742 4.667a.27.27 0 01.25.209l.008.062v.395c-.283 1.376-1.333 2.334-3 2.334-1.597 0-2.628-.88-2.96-2.164L5 9.333v-.395c0-.122.085-.234.199-.264l.059-.007h5.484zm-.742-2A.666.666 0 1110 8a.666.666 0 110-1.333zm-4 0A.666.666 0 116 8a.666.666 0 110-1.333zm5-4c.184 0 .333.149.333.333v1h1a.333.333 0 010 .667h-1v1a.333.333 0 11-.666 0v-1h-1a.333.333 0 010-.667h1V3c0-.184.149-.333.333-.333z"/></g></g></svg><svg width="16" height="16" viewBox="0 0 16 16" id="icon-emoji-reactions-active" x="16" y="16" xmlns="http://www.w3.org/2000/svg"><defs><linearGradient x1="50%" y1="0%" x2="50%" y2="100%" id="dc"><stop stop-color="#F8E9B1" offset="0%"/><stop stop-color="#F5DF8E" offset="100%"/></linearGradient><path id="da" d="M0 0h16v16H0z"/></defs><g fill="none" fill-rule="evenodd"><mask id="db" fill="#fff"><use xlink:href="#da"/></mask><g mask="url(#db)"><path d="M4.667 1.333c.24 0 .477.019.708.054a1 1 0 00.958 1.28h.334V3a1 1 0 001.9.437 4.667 4.667 0 11-3.9-2.104z" fill="url(#dc)" transform="translate(3.333 2.667)"/><path d="M8 4c.24 0 .477.018.708.053a.997.997 0 00.044.686A3.999 3.999 0 004 8.667c0 2.21 1.79 4 4 4a3.999 3.999 0 003.412-6.09.994.994 0 00.488-.473 4.665 4.665 0 01-3.9 7.23 4.665 4.665 0 01-4.667-4.667A4.665 4.665 0 018 4z" fill="#EBC01E" fill-rule="nonzero"/><path d="M11 2.667c.184 0 .333.149.333.333v1h1a.333.333 0 010 .667h-1v1a.333.333 0 11-.666 0v-1h-1a.333.333 0 010-.667h1V3c0-.184.149-.333.333-.333z" fill="#9D9D9D" fill-rule="nonzero"/><path d="M10.742 8.667c.133 0 .258.121.258.27v.396c-.283 1.376-1.333 2.334-3 2.334s-2.717-.958-3-2.334v-.395c0-.143.115-.271.258-.271zm-.742-2A.666.666 0 1110 8a.666.666 0 110-1.333zm-4 0A.666.666 0 116 8a.666.666 0 110-1.333z" fill="#EBC01E"/></g></g></svg><svg width="16" height="16" viewBox="0 0 16 16" id="icon-gif-rest" x="32" xmlns="http://www.w3.org/2000/svg"><defs><path id="ea" d="M0 0h16v16H0z"/><path d="M6.896 6.612l-.622.617a1.254 1.254 0 00-.867-.33c-.617 0-1.018.368-1.018 1.11 0 .486.255 1.087 1.018 1.087.2 0 .515-.038.731-.195v-.487H5.18v-.839h1.852v1.683c-.239.482-.9.742-1.63.742-1.5 0-2.069-1.001-2.069-1.992 0-.99.65-2.008 2.074-2.008.525 0 .991.108 1.49.612zm1.951 3.285H7.781V6.108h1.066v3.79zm1.973 0H9.76V6.108h2.908v.899H10.82v.709h1.733v.877H10.82v1.304z" id="ec"/></defs><g fill="none" fill-rule="evenodd"><mask id="eb" fill="#fff"><use xlink:href="#ea"/></mask><g mask="url(#eb)"><path d="M2.667 1.333h10.666c.737 0 1.334.597 1.334 1.334v10.666c0 .737-.597 1.334-1.334 1.334H2.667a1.333 1.333 0 01-1.334-1.334V2.667c0-.737.597-1.334 1.334-1.334z" fill="#707070"/><use fill="#FFF" xlink:href="#ec"/></g></g></svg><svg width="16" height="16" viewBox="0 0 16 16" id="icon-image-zoom-in" x="32" y="16" xmlns="http://www.w3.org/2000/svg"><defs><linearGradient x1="50%" y1=".281%" x2="50%" y2="99.784%" id="fc"><stop stop-color="#E6E6E6" offset="0%"/><stop stop-color="#DDD" offset="100%"/></linearGradient><linearGradient x1="50%" y1="0%" x2="50%" y2="97.5%" id="fe"><stop stop-color="#FFF" offset="0%"/><stop stop-color="#FAFAFA" offset="100%"/></linearGradient><path id="fa" d="M0 0h16v16H0z"/><path d="M.667 0h8c.368 0 .666.298.666.667V8a.667.667 0 01-.666.667h-8A.667.667 0 010 8V.667C0 .298.298 0 .667 0z" id="fd"/></defs><g fill="none" fill-rule="evenodd"><mask id="fb" fill="#fff"><use xlink:href="#fa"/></mask><g mask="url(#fb)" opacity=".8"><path d="M.667 0H10c.368 0 .667.298.667.667v10.666A.667.667 0 0110 12H.667A.667.667 0 010 11.333V.667C0 .298.298 0 .667 0z" fill="url(#fc)" transform="translate(2.667 2)"/><g transform="translate(3.333 2.667)"><mask id="ff" fill="#fff"><use xlink:href="#fd"/></mask><use fill="url(#fe)" xlink:href="#fd"/><path d="M4.667 6.667L7 4.333 9.333 6 6.667 8.667H5.333A.667.667 0 014.667 8V6.667z" fill-opacity=".5" fill="#9D9D9D" mask="url(#ff)" transform="matrix(-1 0 0 1 14 0)"/><path d="M5.333 2.667l2 2.666V8a.667.667 0 01-.666.667H0l5.333-6z" fill-opacity=".8" fill="#9D9D9D" mask="url(#ff)" transform="matrix(-1 0 0 1 7.333 0)"/><circle fill="#9D9D9D" mask="url(#ff)" cx="6" cy="2" r="1.333"/></g></g></g></svg><svg width="16" height="16" viewBox="0 0 16 16" id="icon-image-zoom-out" y="32" xmlns="http://www.w3.org/2000/svg"><defs><linearGradient x1="50%" y1="0%" x2="50%" y2="100%" id="gc"><stop stop-color="#E6E6E6" offset="0%"/><stop stop-color="#DDD" offset="100%"/></linearGradient><linearGradient x1="50%" y1="0%" x2="50%" y2="97.5%" id="ge"><stop stop-color="#FFF" offset="0%"/><stop stop-color="#FAFAFA" offset="100%"/></linearGradient><path id="ga" d="M0 0h16v16H0z"/><path d="M.667 0H6c.368 0 .667.298.667.667V6A.667.667 0 016 6.667H.667A.667.667 0 010 6V.667C0 .298.298 0 .667 0z" id="gd"/></defs><g fill="none" fill-rule="evenodd"><mask id="gb" fill="#fff"><use xlink:href="#ga"/></mask><g mask="url(#gb)" opacity=".8"><path d="M.667 0h6.666C7.702 0 8 .298 8 .667v8a.667.667 0 01-.667.666H.667A.667.667 0 010 8.667v-8C0 .298.298 0 .667 0z" fill="url(#gc)" transform="translate(4 3.333)"/><g transform="translate(4.667 4)"><mask id="gf" fill="#fff"><use xlink:href="#gd"/></mask><use fill="url(#ge)" xlink:href="#gd"/><path d="M4 5.333l1.667-1.666 1.666 1.666-2 2h-.666A.667.667 0 014 6.667V5.333z" fill-opacity=".5" fill="#9D9D9D" mask="url(#gf)" transform="matrix(-1 0 0 1 11.333 0)"/><path d="M4 2l2 2v2.667a.667.667 0 01-.667.666h-6L4 2z" fill-opacity=".8" fill="#9D9D9D" mask="url(#gf)" transform="matrix(-1 0 0 1 5.333 0)"/><circle fill="#9D9D9D" mask="url(#gf)" cx="4.333" cy="1.667" r="1"/></g></g></g></svg><svg width="16" height="16" viewBox="0 0 16 16" id="icon-loading-spinner" x="16" y="32" xmlns="http://www.w3.org/2000/svg"><defs><path id="ha" d="M0 0h16v16H0z"/></defs><g fill="none" fill-rule="evenodd"><mask id="hb" fill="#fff"><use xlink:href="#ha"/></mask><g mask="url(#hb)" fill="#333"><rect fill-opacity=".5" x="7.333" y="1.333" width="1.333" height="4" rx=".667"/><rect fill-opacity=".7" transform="rotate(45 11.3 4.7)" x="10.633" y="2.7" width="1.333" height="4" rx=".667"/><rect fill-opacity=".9" transform="rotate(90 12.667 8)" x="12" y="6" width="1.333" height="4" rx=".667"/><rect fill-opacity=".2" transform="rotate(135 11.3 11.3)" x="10.633" y="9.3" width="1.333" height="4" rx=".667"/><rect fill-opacity=".2" transform="rotate(180 8 12.667)" x="7.333" y="10.667" width="1.333" height="4" rx=".667"/><rect fill-opacity=".2" transform="rotate(-135 4.7 11.3)" x="4.034" y="9.3" width="1.333" height="4" rx=".667"/><rect fill-opacity=".2" transform="rotate(-90 3.333 8)" x="2.667" y="6" width="1.333" height="4" rx=".667"/><rect fill-opacity=".2" transform="rotate(-45 4.7 4.7)" x="4.034" y="2.7" width="1.333" height="4" rx=".667"/></g></g></svg><svg width="16" height="16" viewBox="0 0 16 16" id="icon-notifications" x="32" y="32" xmlns="http://www.w3.org/2000/svg"><defs><linearGradient x1="50%" y1="0%" x2="50%" y2="100%" id="ia"><stop stop-color="#F8E9B1" offset="0%"/><stop stop-color="#F5DF8E" offset="100%"/></linearGradient></defs><g fill="none" fill-rule="evenodd"><g fill-rule="nonzero"><circle fill="#EBC01E" cx="8" cy="12" r="2"/><circle fill="#EBC01E" cx="8" cy="2" r="1"/><path d="M2.39 9.61L4 8V6a4 4 0 118 0v2l1.61 1.61c.25.25.39.589.39.942v.781c0 .737-.597 1.334-1.333 1.334H3.333A1.333 1.333 0 012 11.333v-.78c0-.354.14-.693.39-.944z" fill="url(#ia)"/><path fill-opacity=".6" fill="#F8E9B1" style="mix-blend-mode:screen" d="M2.667 10L4 8.667h8L13.333 10z"/><path d="M8 2a4 4 0 014 4v2l1.61 1.61c.25.25.39.589.39.942v.781c0 .737-.597 1.334-1.333 1.334H3.333A1.333 1.333 0 012 11.333v-.78c0-.354.14-.693.39-.944L4 8V6a4 4 0 014-4zm0 .667a3.333 3.333 0 00-3.33 3.188L4.667 6v2.276l-1.805 1.805a.667.667 0 00-.19.384l-.005.087v.781c0 .342.257.624.589.663l.077.004h9.334a.667.667 0 00.662-.589l.004-.078v-.78a.667.667 0 00-.137-.406l-.058-.066-1.805-1.805V6A3.333 3.333 0 008 2.667z" fill="#EBC01E"/><path fill-opacity=".3" fill="#EBC01E" d="M2.667 10h10.666v.667H2.667zM4 8h8v.667H4z"/></g><path d="M0 0h16v16H0z"/></g></svg><svg width="16" height="16" viewBox="0 0 16 16" id="icon-notifications-muted" x="48" xmlns="http://www.w3.org/2000/svg"><defs><linearGradient x1="50%" y1="0%" x2="50%" y2="100%" id="ja"><stop stop-color="#F8E9B1" offset="0%"/><stop stop-color="#F5DF8E" offset="100%"/></linearGradient></defs><g fill="none" fill-rule="evenodd"><g fill-rule="nonzero"><circle fill="#EBC01E" cx="8" cy="12" r="2"/><circle fill="#EBC01E" cx="8" cy="2" r="1"/><path d="M2.39 9.61L4 8V6a4 4 0 118 0v2l1.61 1.61c.25.25.39.589.39.942v.781c0 .737-.597 1.334-1.333 1.334H3.333A1.333 1.333 0 012 11.333v-.78c0-.354.14-.693.39-.944z" fill="url(#ja)"/><path fill-opacity=".6" fill="#F8E9B1" style="mix-blend-mode:screen" d="M2.667 10L4 8.667h8L13.333 10z"/><path d="M8 2a4 4 0 014 4v2l1.61 1.61c.25.25.39.589.39.942v.781c0 .737-.597 1.334-1.333 1.334H3.333A1.333 1.333 0 012 11.333v-.78c0-.354.14-.693.39-.944L4 8V6a4 4 0 014-4zm0 .667a3.333 3.333 0 00-3.33 3.188L4.667 6v2.276l-1.805 1.805a.667.667 0 00-.19.384l-.005.087v.781c0 .342.257.624.589.663l.077.004h9.334a.667.667 0 00.662-.589l.004-.078v-.78a.667.667 0 00-.137-.406l-.058-.066-1.805-1.805V6A3.333 3.333 0 008 2.667z" fill="#EBC01E"/><path fill-opacity=".3" fill="#EBC01E" d="M2.667 10h10.666v.667H2.667zM4 8h8v.667H4z"/><path fill="#EBC01E" d="M4 12.667h2l6-6v-2z"/><path d="M14.128 1.872c.26.26.26.682 0 .943L2.815 14.128a.667.667 0 01-.943-.943L13.185 1.872c.26-.26.683-.26.943 0z" fill-opacity=".7" fill="#F0373A"/></g><path d="M0 0h16v16H0z"/></g></svg><svg width="16" height="16" viewBox="0 0 16 16" id="icon-question-grey" x="48" y="16" xmlns="http://www.w3.org/2000/svg"><g fill="none" fill-rule="evenodd"><g><circle fill="#EEE" cx="8" cy="8" r="8"/><path d="M6 4.797c.123-.109.257-.212.404-.31a2.898 2.898 0 011.027-.425C7.63 4.021 7.845 4 8.076 4c.314 0 .6.043.859.13.258.087.48.21.664.371.184.161.327.355.428.583.101.228.152.482.152.764 0 .275-.04.512-.12.713-.079.2-.178.375-.297.523-.12.148-.25.276-.393.385l-.404.306a3.17 3.17 0 00-.328.282.557.557 0 00-.165.312l-.125.79H7.43l-.092-.883a.718.718 0 01.073-.447 1.36 1.36 0 01.282-.352c.117-.107.248-.21.393-.309.144-.1.28-.208.406-.325.127-.118.232-.25.317-.396.085-.146.128-.32.128-.523a.79.79 0 00-.276-.615.911.911 0 00-.312-.17 1.253 1.253 0 00-.393-.06 1.75 1.75 0 00-.887.22c-.099.055-.183.106-.252.15a.346.346 0 01-.184.069.296.296 0 01-.282-.163L6 4.797zm1.024 6.39a.834.834 0 01.233-.58.82.82 0 01.586-.238c.115 0 .223.021.322.065a.798.798 0 01.436.434.803.803 0 01.066.319.797.797 0 01-.242.58.823.823 0 01-.582.233.848.848 0 01-.325-.062.785.785 0 01-.494-.751z" fill="#666" fill-rule="nonzero"/></g><path d="M0 0h16v16H0z"/></g></svg><svg width="16" height="16" viewBox="0 0 16 16" id="icon-settings" x="48" y="32" xmlns="http://www.w3.org/2000/svg"><defs><linearGradient x1="50%" y1="97.5%" x2="50%" y2="0%" id="la"><stop stop-color="#555" offset="0%"/><stop stop-color="#666" offset="100%"/></linearGradient></defs><g fill="none" fill-rule="evenodd"><path d="M5 6.667a1.667 1.667 0 11.11-.004L5 6.667zM10 5c0-.552-.45-1-1-1h-.473a3.79 3.79 0 00-.327-.786l.336-.336a.998.998 0 00.07-1.338l-.07-.077a1.002 1.002 0 00-1.414.001l-.336.336A3.79 3.79 0 006 1.473V1a.997.997 0 00-.903-.994L5 0c-.552 0-1 .45-1 1v.473c-.277.08-.54.19-.786.327l-.336-.336a.998.998 0 00-1.338-.07l-.077.07a1.002 1.002 0 00.001 1.414l.336.336A3.79 3.79 0 001.473 4H1a.997.997 0 00-.994.903L0 5c0 .552.45 1 1 1h.473c.08.277.19.54.327.786l-.336.336a.998.998 0 00-.07 1.338l.07.077c.39.39 1.025.388 1.414-.001l.336-.336c.246.137.51.247.786.327V9c0 .52.393.946.903.994L5 10c.552 0 1-.45 1-1v-.473c.277-.08.54-.19.786-.327l.336.336a.998.998 0 001.338.07l.077-.07c.39-.39.388-1.025-.001-1.414L8.2 6.786A3.79 3.79 0 008.527 6H9c.52 0 .946-.393.994-.903L10 5z" fill="url(#la)" transform="translate(2.667 2.667)"/><path d="M0 0h16v16H0z"/></g></svg><svg width="16" height="16" viewBox="0 0 16 16" id="icon-stripe" y="48" xmlns="http://www.w3.org/2000/svg"><defs><path id="ma" d="M0 0h16v16H0z"/></defs><g fill="none" fill-rule="evenodd"><mask id="mb" fill="#fff"><use xlink:href="#ma"/></mask><g mask="url(#mb)" fill="#635BFF"><path d="M9.988 6.318c.519 0 1.008.492 1.01 1.395 0 .988-.482 1.437-1.013 1.437a.811.811 0 01-.524-.197l-.003.882-.741.165V6.368h.652l.038.193c.104-.1.29-.243.581-.243zM5.42 5.695l-.003.676h.563v.663h-.563V8.14c0 .461.468.318.563.277v.633c-.098.056-.275.103-.518.103-.439 0-.768-.34-.768-.801l.003-2.495.723-.162zm-1.75.623c.245 0 .488.04.734.143v.732c-.225-.128-.51-.2-.735-.2-.157 0-.252.047-.252.169 0 .349 1.13.184 1.132 1.112 0 .558-.424.879-1.04.879-.255 0-.533-.053-.809-.178v-.741c.25.143.563.249.81.249.165 0 .284-.047.284-.19 0-.37-1.126-.234-1.126-1.094 0-.551.4-.881 1.001-.881zm8.595 0c.702 0 1.07.629 1.07 1.427 0 .074-.007.236-.007.277H11.88c.032.367.287.473.574.473.294 0 .525-.065.726-.171v.623a1.588 1.588 0 01-.82.203c-.723 0-1.227-.474-1.227-1.412 0-.791.427-1.42 1.132-1.42zM8.44 6.37v2.726h-.743V6.37h.743zm-1.54.23c.175-.336.521-.268.616-.23v.716c-.092-.034-.388-.078-.563.162v1.848h-.74V6.37h.64zm2.91.408a.431.431 0 00-.353.153l.003 1.156a.433.433 0 00.35.146c.272 0 .456-.311.456-.729 0-.408-.187-.726-.457-.726zm2.45-.059c-.187 0-.391.147-.391.499h.764c0-.352-.193-.499-.373-.499zM8.44 5.333v.633l-.743.168v-.636l.743-.165z"/></g></g></svg></svg>