<?xml version="1.0" encoding="UTF-8"?><svg width="160" height="160" viewBox="0 0 96 96" xmlns="http://www.w3.org/2000/svg" xmlns:xlink="http://www.w3.org/1999/xlink"><view id="icon-bucket" viewBox="0 0 16 16"/><svg width="16" height="16" viewBox="0 0 16 16" xmlns="http://www.w3.org/2000/svg"><defs><linearGradient x1="108.184%" y1=".382%" x2="0%" y2="99.618%" id="aac"><stop stop-color="#4592A6" offset="0%"/><stop stop-color="#3181A3" offset="100%"/></linearGradient><linearGradient x1="50%" y1="18.982%" x2="50%" y2="100%" id="aad"><stop stop-color="#FFF" offset="0%"/><stop stop-color="#FFF" stop-opacity=".8" offset="100%"/></linearGradient><path id="aaa" d="M0 0h16v16H0z"/></defs><g fill="none" fill-rule="evenodd"><mask id="aab" fill="#fff"><use xlink:href="#aaa"/></mask><g mask="url(#aab)"><path d="M7.5 2c2.205 0 3.87.247 4.994.74a.75.75 0 0 1 .443.777l-.078.637.142.06c.65.3 1.103.782 1.103 1.294 0 .704-.592 1.117-1.564 1.272l-.682 5.585a1.5 1.5 0 0 1-1.075 1.26c-.87.25-1.965.375-3.283.375-1.318 0-2.412-.125-3.283-.375a1.5 1.5 0 0 1-1.075-1.26L2.063 3.517a.75.75 0 0 1 .443-.777C3.631 2.247 5.296 2 7.5 2Zm5.297 2.672-.193 1.587c.64-.13 1-.392 1-.75 0-.274-.32-.61-.807-.837Z" fill="url(#aac)" fill-rule="nonzero"/><path d="m3.333 4.12.125.035.13.032.068.016.14.03.144.028.15.027.156.025.161.023.167.022.171.02.176.019.181.016.186.016.19.014.195.012.2.01.202.01.207.008.319.009.326.005.222.002.226.001c1.27 0 2.523-.086 3.481-.235l.172-.027.163-.028.154-.028.074-.014.142-.03.134-.03.126-.032c.237-.064.428-.136.573-.225l-.304 2.478-.063.006a5.999 5.999 0 0 1-.077.005l-.08.004-.162.006a7.92 7.92 0 0 1-.346 0c-1.052-.023-2.238-.247-3.115-.57l.003-.03a.75.75 0 1 0-.185.493c.934.349 2.177.583 3.287.607l.175.002c.058 0 .115 0 .17-.002l.167-.005.165-.008-.667 5.467-.008.052a1 1 0 0 1-.71.789c-.82.235-1.87.355-3.144.355-1.275 0-2.324-.12-3.145-.355a1 1 0 0 1-.717-.84L2.6 3.802c.181.124.429.229.733.317ZM8.75 10a1.25 1.25 0 1 0 0 2.5 1.25 1.25 0 0 0 0-2.5ZM6.5 7H4v2.5h2.5V7Z" fill="url(#aad)" fill-rule="nonzero"/><path d="M7.375 4c2.58 0 4.875-.36 4.875-.75S9.955 2.5 7.375 2.5s-4.625.36-4.625.75S4.795 4 7.375 4Z" fill-opacity=".8" fill="#FFF"/></g></g></svg><view id="icon-camera-disabled" viewBox="16 0 16 16"/><svg width="16" height="16" fill="none" viewBox="0 0 16 16" x="16" xmlns="http://www.w3.org/2000/svg"><rect x="9" y="9" width="7" height="7" rx="1" fill="#CA5040"/><path fill-rule="evenodd" clip-rule="evenodd" d="m11.97 12.5-1.235-1.235.53-.53L12.5 11.97l1.235-1.235.53.53L13.03 12.5l1.235 1.235-.53.53L12.5 13.03l-1.235 1.235-.53-.53L11.97 12.5Z" fill="#fff"/><path fill-rule="evenodd" clip-rule="evenodd" d="M2 4.75A.75.75 0 0 1 2.75 4h8a.75.75 0 0 1 .75.75V7L14 4.5V8H9.25C8.56 8 8 8.56 8 9.25V12H2.75a.75.75 0 0 1-.75-.75v-6.5Z" fill="#BDBDBE"/></svg><view id="icon-checkbox-minimize" viewBox="0 16 16 16"/><svg width="16" height="16" fill="none" viewBox="0 0 16 16" y="16" xmlns="http://www.w3.org/2000/svg"><g clip-path="url(#aca)"><rect width="16" height="16" rx="3" fill="url(#acb)"/><rect x=".5" y=".5" width="15" height="15" rx="2.5" stroke="#000" stroke-opacity=".05"/><rect x="3" y="7" width="10" height="2" rx="1" fill="#fff"/><rect x="2.5" y="6.5" width="11" height="3" rx="1.5" stroke="#000" stroke-opacity=".05"/></g><defs><linearGradient id="acb" x1="0" y1="0" x2="0" y2="16" gradientUnits="userSpaceOnUse"><stop stop-color="#11E2C1"/><stop offset="1" stop-color="#07C18C"/></linearGradient><clipPath id="aca"><path fill="#fff" d="M0 0h16v16H0z"/></clipPath></defs></svg><view id="icon-dlocal" viewBox="16 16 16 16"/><svg width="16" height="16" fill="none" viewBox="0 0 16 16" x="16" y="16" xmlns="http://www.w3.org/2000/svg"><path d="M10.114 8.533a.34.34 0 0 1-.297.17c-.195 0-.398-.15-.398-.435 0-.28.203-.427.398-.427a.333.333 0 0 1 .297.159l.004-.004.317-.268a.79.79 0 0 0-.626-.289c-.415 0-.846.28-.846.833 0 .557.427.834.842.83a.818.818 0 0 0 .63-.289l-.321-.28Zm2.89-.07V6.667h-.451v1.796c0 .565.292.687.78.598l-.016-.341c-.215.036-.313-.013-.313-.257Zm-.886.143v-.553c0-.455-.342-.614-.744-.614-.211 0-.468.049-.663.163l.155.305a.94.94 0 0 1 .447-.106c.159 0 .366.045.366.236v.089a.78.78 0 0 0-.419-.102c-.35 0-.63.183-.614.57.008.304.277.495.573.495.204 0 .452-.077.545-.272 0 .28.26.293.5.244l-.004-.256c-.146.012-.142-.065-.142-.2Zm-.447-.11c-.016.167-.208.24-.358.24-.106 0-.207-.057-.215-.171-.017-.154.101-.236.243-.244.114 0 .236.029.326.094v.08h.004ZM7.882 7.439c-.414.004-.83.28-.83.83 0 .552.424.829.842.829.415 0 .83-.277.83-.83.004-.557-.42-.833-.842-.829Zm.004 1.256c-.19 0-.378-.142-.378-.427 0-.284.191-.427.386-.427.191 0 .378.143.378.427 0 .289-.19.431-.386.427Zm-1.309-.232V6.667h-.451v1.796c0 .565.293.687.78.598L6.89 8.72c-.215.036-.313-.013-.313-.257Zm-2.337.074V6.67h-.46v.874c-.548-.273-1.113.105-1.113.727 0 .443.252.838.727.826a.516.516 0 0 0 .476-.305v.04c.008.273.293.277.52.224l-.004-.297c-.142.016-.146-.069-.146-.223Zm-.443-.204c0 .191-.126.358-.325.358-.244 0-.346-.195-.346-.423 0-.394.346-.532.675-.341v.406h-.004ZM5.435 7.927H4.98v.455h.455v-.455Z" fill="#fff"/></svg><view id="icon-emoji" viewBox="32 0 16 16"/><svg width="16" height="16" viewBox="0 0 16 16" x="32" xmlns="http://www.w3.org/2000/svg"><defs><linearGradient x1="50%" y1="0%" x2="50%" y2="96.88%" id="ahc"><stop stop-color="#B3B3B3" offset="0%"/><stop stop-color="#A8A8A8" offset="100%"/></linearGradient><path id="aha" d="M0 0h16v16H0z"/></defs><g fill="none" fill-rule="evenodd"><mask id="ahb" fill="#fff"><use xlink:href="#aha"/></mask><g mask="url(#ahb)"><path d="M6.667 0a6.665 6.665 0 0 1 6.666 6.667 6.665 6.665 0 0 1-6.666 6.666A6.665 6.665 0 0 1 0 6.667 6.665 6.665 0 0 1 6.667 0" fill="url(#ahc)" transform="translate(1.333 1.333)"/><path d="M11.58 9.384c.34.14.503.53.363.87C11.495 11.34 9.849 12 8 12c-1.85 0-3.495-.66-3.943-1.746a.667.667 0 0 1 1.2-.578l.033.07c.189.459 1.341.92 2.71.92 1.314 0 2.428-.425 2.683-.865l.027-.055c.14-.34.53-.502.87-.362ZM11 6c.553 0 1 .447 1 1 0 .553-.447 1-1 1-.553 0-1-.447-1-1 0-.553.447-1 1-1ZM5 6c.553 0 1 .447 1 1 0 .553-.447 1-1 1-.553 0-1-.447-1-1 0-.553.447-1 1-1Z" fill="#757575" fill-rule="nonzero"/><path d="M8 1.333A6.665 6.665 0 0 1 14.667 8 6.665 6.665 0 0 1 8 14.667 6.665 6.665 0 0 1 1.333 8 6.665 6.665 0 0 1 8 1.333ZM8 2C4.685 2 2 4.685 2 8s2.685 6 6 6 6-2.685 6-6-2.685-6-6-6Z" fill="#757575" fill-rule="nonzero"/></g></g></svg><view id="icon-emoji-active" viewBox="32 16 16 16"/><svg width="16" height="16" viewBox="0 0 16 16" x="32" y="16" xmlns="http://www.w3.org/2000/svg"><defs><linearGradient x1="50%" y1="0%" x2="50%" y2="97.5%" id="aec"><stop stop-color="#F6E8B2" offset="0%"/><stop stop-color="#FCE592" offset="100%"/></linearGradient><path id="aea" d="M0 0h16v16H0z"/></defs><g fill="none" fill-rule="evenodd"><mask id="aeb" fill="#fff"><use xlink:href="#aea"/></mask><g mask="url(#aeb)"><path d="M6.667 0a6.665 6.665 0 0 1 6.666 6.667 6.665 6.665 0 0 1-6.666 6.666A6.665 6.665 0 0 1 0 6.667 6.665 6.665 0 0 1 6.667 0" fill="url(#aec)" transform="translate(1.333 1.333)"/><path d="M8 1.333A6.665 6.665 0 0 1 14.667 8 6.665 6.665 0 0 1 8 14.667 6.665 6.665 0 0 1 1.333 8 6.665 6.665 0 0 1 8 1.333ZM8 2C4.685 2 2 4.685 2 8s2.685 6 6 6 6-2.685 6-6-2.685-6-6-6Z" fill="#ECBC09" fill-rule="nonzero"/><path d="M11.332 8c.364 0 .668.295.668.66-.404 1.972-1.955 3.34-4 3.34s-3.596-1.368-4-3.333C4 8.302 4.3 8 4.668 8Zm-.999-2.667c.554 0 1 .447 1 1 0 .554-.446 1-1 1-.553 0-1-.446-1-1 0-.553.447-1 1-1Zm-4.666 0c.553 0 1 .447 1 1 0 .554-.447 1-1 1-.554 0-1-.446-1-1 0-.553.446-1 1-1Z" fill="#ECBC09"/></g></g></svg><view id="icon-emoji-reactions" viewBox="0 32 16 16"/><svg width="16" height="16" viewBox="0 0 16 16" y="32" xmlns="http://www.w3.org/2000/svg"><defs><path id="aga" d="M0 0h16v16H0z"/></defs><g fill="none" fill-rule="evenodd"><mask id="agb" fill="#fff"><use xlink:href="#aga"/></mask><g mask="url(#agb)" fill="#CCC" fill-rule="nonzero"><path d="M8 4c.24 0 .477.018.708.053a.997.997 0 0 0 .044.686A3.999 3.999 0 0 0 4 8.667c0 2.21 1.79 4 4 4a3.999 3.999 0 0 0 3.412-6.09.994.994 0 0 0 .488-.473 4.665 4.665 0 0 1-3.9 7.23 4.665 4.665 0 0 1-4.667-4.667A4.665 4.665 0 0 1 8 4Zm2.742 4.667a.27.27 0 0 1 .25.209l.008.062v.395c-.283 1.376-1.333 2.334-3 2.334-1.597 0-2.628-.88-2.96-2.164L5 9.333v-.395c0-.122.085-.234.199-.264l.059-.007h5.484Zm-.742-2A.666.666 0 1 1 10 8a.666.666 0 1 1 0-1.333Zm-4 0A.666.666 0 1 1 6 8a.666.666 0 1 1 0-1.333Zm5-4c.184 0 .333.149.333.333v1h1a.333.333 0 0 1 0 .667h-1v1a.333.333 0 1 1-.666 0v-1h-1a.333.333 0 0 1 0-.667h1V3c0-.184.149-.333.333-.333Z"/></g></g></svg><view id="icon-emoji-reactions-active" viewBox="16 32 16 16"/><svg width="16" height="16" viewBox="0 0 16 16" x="16" y="32" xmlns="http://www.w3.org/2000/svg"><defs><linearGradient x1="50%" y1="0%" x2="50%" y2="100%" id="afc"><stop stop-color="#F6E8B2" offset="0%"/><stop stop-color="#FCE592" offset="100%"/></linearGradient><path id="afa" d="M0 0h16v16H0z"/></defs><g fill="none" fill-rule="evenodd"><mask id="afb" fill="#fff"><use xlink:href="#afa"/></mask><g mask="url(#afb)"><path d="M4.667 1.333c.24 0 .477.019.708.054a1 1 0 0 0 .958 1.28h.334V3a1 1 0 0 0 1.9.437 4.667 4.667 0 1 1-3.9-2.104Z" fill="url(#afc)" transform="translate(3.333 2.667)"/><path d="M8 4c.24 0 .477.018.708.053a.997.997 0 0 0 .044.686A3.999 3.999 0 0 0 4 8.667c0 2.21 1.79 4 4 4a3.999 3.999 0 0 0 3.412-6.09.994.994 0 0 0 .488-.473 4.665 4.665 0 0 1-3.9 7.23 4.665 4.665 0 0 1-4.667-4.667A4.665 4.665 0 0 1 8 4Z" fill="#ECBC09" fill-rule="nonzero"/><path d="M11 2.667c.184 0 .333.149.333.333v1h1a.333.333 0 0 1 0 .667h-1v1a.333.333 0 1 1-.666 0v-1h-1a.333.333 0 0 1 0-.667h1V3c0-.184.149-.333.333-.333Z" fill="#CCC" fill-rule="nonzero"/><path d="M10.742 8.667c.133 0 .258.121.258.27v.396c-.283 1.376-1.333 2.334-3 2.334s-2.717-.958-3-2.334v-.395c0-.143.115-.271.258-.271Zm-.742-2A.666.666 0 1 1 10 8a.666.666 0 1 1 0-1.333Zm-4 0A.666.666 0 1 1 6 8a.666.666 0 1 1 0-1.333Z" fill="#ECBC09"/></g></g></svg><view id="icon-empty-state-backup" viewBox="32 32 16 16"/><svg width="16" height="16" viewBox="0 0 16 16" x="32" y="32" xmlns="http://www.w3.org/2000/svg"><defs><linearGradient x1="100%" y1="29.214%" x2="13.925%" y2="84.712%" id="aia"><stop stop-color="#55D2F0" offset="0%"/><stop stop-color="#2BA6DE" offset="100%"/></linearGradient><linearGradient x1="50%" y1="0%" x2="50%" y2="100%" id="aib"><stop stop-color="#EAF6FB" offset="0%"/><stop stop-color="#D7EEF8" offset="100%"/></linearGradient><linearGradient x1="100%" y1="0%" x2="0%" y2="100%" id="aic"><stop stop-color="#55D2F0" offset="0%"/><stop stop-color="#2BA6DE" offset="100%"/></linearGradient></defs><g fill="none" fill-rule="evenodd"><path d="M0 0h16v16H0z"/><path d="M8 14.4A6.4 6.4 0 1 0 8 1.6a6.4 6.4 0 0 0 0 12.8Z" fill-opacity=".1" fill="#000" fill-rule="nonzero"/><path d="M12.133 1.733c.037 0 .067.03.067.067v.133h.133a.067.067 0 0 1 0 .134H12.2V2.2a.067.067 0 0 1-.133 0v-.133h-.134a.067.067 0 0 1 0-.134h.134V1.8c0-.037.03-.067.066-.067Zm-7.266-.266c.036 0 .066.03.066.066v.134h.134a.067.067 0 0 1 0 .133h-.134v.133a.067.067 0 1 1-.133 0V1.8h-.133a.067.067 0 1 1 0-.133H4.8v-.134c0-.036.03-.066.067-.066Zm-1.317 9.05a.067.067 0 0 1 0 .094l-.19.189.19.189a.067.067 0 0 1-.095.094l-.188-.189-.189.189a.067.067 0 0 1-.094-.094l.188-.19-.188-.188a.067.067 0 0 1 .094-.094l.189.189.188-.189a.067.067 0 0 1 .095 0ZM.733 3.067a.333.333 0 1 1 0 .666.333.333 0 0 1 0-.666Zm0 .133a.2.2 0 1 0 0 .4.2.2 0 0 0 0-.4ZM9.2 10a.267.267 0 1 1 0 .533.267.267 0 0 1 0-.533Zm0 .133a.133.133 0 1 0 0 .267.133.133 0 0 0 0-.267Zm2.459-1.874.282.282A.2.2 0 0 1 11.6 8.4a.2.2 0 0 1 .059-.141Z" fill="url(#aia)" transform="translate(1.6 1.6)"/><path d="M10 3.467H2.8a.667.667 0 0 0-.667.666V8c0 .368.299.667.667.667H10A.667.667 0 0 0 10.667 8V4.133A.667.667 0 0 0 10 3.467Z" fill="url(#aib)" fill-rule="nonzero" transform="translate(1.6 1.6)"/><path d="M6.4 7.667a1.6 1.6 0 1 0 0-3.2 1.6 1.6 0 0 0 0 3.2Z" fill="url(#aic)" fill-rule="nonzero" transform="translate(1.6 1.6)"/><path d="M8.697 6.712c-.038 0-.069.03-.069.067v.243a.928.928 0 0 0-1.274.02.847.847 0 0 0-.254.603c0 .037.031.067.07.067.038 0 .07-.03.07-.067 0-.405.341-.733.763-.733.214 0 .419.087.564.238l-.308.099a.066.066 0 0 0-.044.084.07.07 0 0 0 .088.043l.416-.134a.067.067 0 0 0 .048-.063v-.4a.068.068 0 0 0-.07-.067ZM8.83 7.579c-.038 0-.069.03-.069.066 0 .405-.342.734-.764.734a.779.779 0 0 1-.563-.239l.308-.098a.066.066 0 0 0 .044-.084.07.07 0 0 0-.088-.043l-.417.134a.067.067 0 0 0-.047.063v.4c0 .037.03.067.07.067.037 0 .068-.03.068-.067V8.27a.928.928 0 0 0 1.275-.02.847.847 0 0 0 .253-.604.068.068 0 0 0-.07-.066Z" fill="#000" fill-rule="nonzero"/><path fill="#2CA7DF" fill-rule="nonzero" d="M8.6 10.533H7.4V11.6h1.2z"/><path d="M9.6 11.733H6.4a.133.133 0 1 0 0 .267h3.2a.133.133 0 1 0 0-.267Z" fill="#1893CC" fill-rule="nonzero"/></g></svg><view id="icon-empty-state-bucket-upload" viewBox="48 0 16 16"/><svg width="16" height="16" viewBox="0 0 16 16" x="48" xmlns="http://www.w3.org/2000/svg"><defs><linearGradient x1="50%" y1="0%" x2="50%" y2="98.397%" id="ajc"><stop stop-color="#EAF6FB" offset="0%"/><stop stop-color="#D7EEF8" offset="100%"/></linearGradient><linearGradient x1="100%" y1="0%" x2="0%" y2="100%" id="ajd"><stop stop-color="#55D2F0" offset="0%"/><stop stop-color="#2BA6DE" offset="100%"/></linearGradient><linearGradient x1="85.865%" y1="0%" x2="14.135%" y2="100%" id="ajf"><stop stop-color="#55D2F0" offset="0%"/><stop stop-color="#2BA6DE" offset="100%"/></linearGradient><path id="aja" d="M0 0h16v16H0z"/><path d="m.714.02.58.58a.133.133 0 0 1-.176.2L1.106.789.799.482l.001.957a.133.133 0 1 1-.267 0V.482L.228.789a.133.133 0 0 1-.176.01L.039.79A.133.133 0 0 1 .028.613L.039.6.62.02a.067.067 0 0 1 .095 0Z" id="aje"/></defs><g fill="none" fill-rule="evenodd"><mask id="ajb" fill="#fff"><use xlink:href="#aja"/></mask><g mask="url(#ajb)"><circle fill-opacity=".1" fill="#000" cx="8" cy="8" r="6.4"/><g fill-rule="nonzero"><path d="M7.88 3.733c.283 0 .553.006.81.018l.118.006c.098.005.193.011.287.018l.112.01.11.009.108.01c.125.013.246.027.364.043l.1.014c.612.09 1.123.226 1.533.406a.518.518 0 0 1 .307.545l-.063.513.093.042c.432.207.73.53.73.866 0 .463-.39.743-1.036.855l-.49 4.016A1.066 1.066 0 0 1 10.2 12c-.619.178-1.384.267-2.32.267-.936 0-1.724-.09-2.343-.267a1.066 1.066 0 0 1-.763-.896L4.004 4.8a.52.52 0 0 1 .319-.54c.488-.215 1.123-.364 1.9-.447l.108-.011.108-.01.11-.01.113-.008.057-.004.115-.007c.212-.013.433-.022.662-.026l.127-.002h.063l.194-.002Zm3.755 1.87-.149 1.205.032-.005.045-.01c.03-.008.058-.015.086-.024l.04-.012c.343-.108.532-.287.532-.524 0-.213-.233-.462-.586-.63Z" fill-opacity=".3" fill="#000"/><path d="m7.447 1.203-.235 1.915-.047.006-.055.005-.057.004-.058.004-.06.003-.06.002h-.03l-.062.002h-.128l-.066-.001a7.285 7.285 0 0 1-2.197-.4l.008-.076a.533.533 0 1 0-.108.322 7.5 7.5 0 0 0 2.36.422h.134l.066-.002.065-.002.063-.002.063-.004.061-.004.03-.002.045-.006-.48 3.95-.003.02a.8.8 0 0 1-.57.651c-.594.171-1.336.257-2.246.257-.916 0-1.68-.087-2.269-.257a.8.8 0 0 1-.572-.672l-.75-6.133c.46.344 1.888.595 3.578.595 1.693 0 3.123-.252 3.58-.597Z" fill="url(#ajc)" transform="translate(4 3.733)"/><path d="M7.775 5.267c1.883 0 3.558-.304 3.558-.634 0-.329-1.675-.633-3.558-.633-1.882 0-3.375.304-3.375.633 0 .33 1.493.634 3.375.634Z" fill-opacity=".9" fill="#D7EEF8"/></g><g transform="translate(8.267 8.867)"><circle fill="url(#ajd)" cx="1.867" cy="1.867" r="1.867"/><use fill="#222" xlink:href="#aje" transform="translate(1.2 1.154)"/></g><path d="M12.8 4.4c.037 0 .067.03.067.067V4.6H13a.067.067 0 1 1 0 .133h-.134v.134a.067.067 0 0 1-.133 0v-.134H12.6a.067.067 0 1 1 0-.133h.132l.001-.133c0-.037.03-.067.067-.067ZM5.4 1.467c.037 0 .067.03.067.066v.134H5.6a.067.067 0 1 1 0 .133h-.134v.133a.067.067 0 0 1-.133 0V1.8H5.2a.067.067 0 0 1 0-.133h.132l.001-.134c0-.036.03-.066.067-.066ZM6.483 13.85a.067.067 0 0 1 0 .095l-.189.188.189.189a.067.067 0 1 1-.094.094l-.189-.19-.189.19a.067.067 0 1 1-.094-.094l.189-.19-.189-.187a.067.067 0 1 1 .094-.095l.189.189.189-.189a.067.067 0 0 1 .094 0Zm-4.15-8.117a.333.333 0 1 1 0 .667.333.333 0 0 1 0-.667Zm0 .134a.2.2 0 1 0 0 .4.2.2 0 0 0 0-.4Zm7.8 8.133a.267.267 0 1 1 0 .533.267.267 0 0 1 0-.533Zm0 .133a.133.133 0 1 0 0 .267.133.133 0 0 0 0-.267Z" fill="url(#ajf)"/></g></g></svg><view id="icon-empty-state-favourite" viewBox="48 16 16 16"/><svg width="16" height="16" viewBox="0 0 16 16" x="48" y="16" xmlns="http://www.w3.org/2000/svg"><defs><linearGradient x1="100%" y1="12.399%" x2="0%" y2="87.601%" id="akc"><stop stop-color="#FF888E" offset="0%"/><stop stop-color="#FF696F" offset="100%"/></linearGradient><linearGradient x1="100%" y1="7.896%" x2="0%" y2="92.104%" id="akd"><stop stop-color="#FF626C" offset="0%"/><stop stop-color="#FF333A" offset="100%"/></linearGradient><path id="aka" d="M0 0h16v16H0z"/></defs><g fill="none" fill-rule="evenodd"><mask id="akb" fill="#fff"><use xlink:href="#aka"/></mask><g mask="url(#akb)"><circle fill-opacity=".1" fill="#000" cx="8" cy="8" r="6.4"/><path d="M9.883 4.534a2.88 2.88 0 0 0-1.877.741L8 5.28l-.006-.005a2.878 2.878 0 0 0-1.914-.742c-1.46 0-2.613 1.115-2.613 2.54 0 .773.305 1.483.964 2.294l.055.067.056.067.059.068.06.069.03.034.062.07.032.034.065.07c.01.012.021.024.033.035l.067.071.034.036.07.072.07.073.074.073.074.074.038.037.236.228.25.234.26.239.412.369 1.003.884a.812.812 0 0 0 1.058 0l.266-.235.874-.772.272-.245.26-.238.25-.233.092-.088.03-.029.23-.225.073-.074.072-.073.07-.072.068-.072.067-.071.065-.07.063-.071c.074-.081.143-.162.21-.24l.056-.069.054-.067.053-.067c.6-.766.88-1.448.88-2.188 0-1.424-1.153-2.539-2.614-2.539h-.037Z" fill="#000" fill-rule="nonzero" opacity=".3"/><path d="M9.92 4.8c1.314 0 2.347.996 2.347 2.272 0 1.015-.615 1.91-1.651 2.944l-.229.223-.118.114-.247.231-.259.237-.27.243-.874.772-.266.235a.545.545 0 0 1-.706 0l-1-.883-.41-.367-.259-.237-.247-.231-.234-.226C4.393 9.046 3.733 8.123 3.733 7.072 3.733 5.796 4.766 4.8 6.08 4.8c.65 0 1.278.257 1.736.673l-.891 1.261a.467.467 0 0 0 .096.64l1.113.857a.2.2 0 0 1 .055.25l-.62 1.19a.267.267 0 0 0 .07.333l.758.6c.022.018.03.047.022.073l-.442 1.358a.024.024 0 0 0 .023.032c.02 0 .038-.013.044-.032l.459-1.346a.133.133 0 0 0-.044-.147l-.77-.606a.133.133 0 0 1-.035-.168l.708-1.308a.267.267 0 0 0-.066-.333l-1.054-.863a.333.333 0 0 1-.06-.451L8 5.667l-.007-.016L8 5.66A2.601 2.601 0 0 1 9.92 4.8Z" fill="url(#akc)" fill-rule="nonzero"/><path d="M3.867 10.667c.036 0 .066.03.066.066v.134h.134a.067.067 0 1 1 0 .133h-.134v.133a.067.067 0 1 1-.133 0L3.799 11h-.132a.067.067 0 0 1 0-.133h.132l.001-.134c0-.036.03-.066.067-.066Zm4-7.6c.036 0 .066.03.066.066v.134h.134a.067.067 0 1 1 0 .133h-.134v.133a.067.067 0 1 1-.133 0L7.799 3.4h-.132a.067.067 0 1 1 0-.133h.132l.001-.134c0-.036.03-.066.067-.066Zm4.75.117a.067.067 0 0 1 0 .094l-.19.188.19.19a.067.067 0 1 1-.095.094l-.189-.19-.188.19a.067.067 0 1 1-.095-.095l.19-.189-.19-.188a.067.067 0 0 1 .095-.094l.188.188.189-.188a.067.067 0 0 1 .094 0Zm.983 4.95a.333.333 0 1 1 0 .666.333.333 0 0 1 0-.667Zm0 .133a.2.2 0 1 0 0 .4.2.2 0 0 0 0-.4Zm-4.8 4.666a.267.267 0 1 1 0 .534.267.267 0 0 1 0-.534Zm0 .134a.133.133 0 1 0 0 .266.133.133 0 0 0 0-.266ZM2.8 4.2a.2.2 0 1 0 0 .4.2.2 0 0 0 0-.4Z" fill="url(#akd)"/></g></g></svg><view id="icon-empty-state-groups" viewBox="48 32 16 16"/><svg width="16" height="16" viewBox="0 0 16 16" x="48" y="32" xmlns="http://www.w3.org/2000/svg"><defs><linearGradient x1="89.176%" y1="0%" x2="10.824%" y2="100%" id="alc"><stop stop-color="#55D2F0" offset=".065%"/><stop stop-color="#2BA6DE" offset="99.971%"/></linearGradient><linearGradient x1="50%" y1="0%" x2="50%" y2="99.749%" id="ald"><stop stop-color="#D7EEF8" offset="0%"/><stop stop-color="#BEE1F0" offset="100%"/></linearGradient><linearGradient x1="50%" y1="0%" x2="50%" y2="100%" id="ale"><stop stop-color="#D7EEF8" offset="0%"/><stop stop-color="#BEE1F0" offset="99.749%"/></linearGradient><linearGradient x1="50%" y1="1.833%" x2="50%" y2="100%" id="alf"><stop stop-color="#D7EEF8" offset="0%"/><stop stop-color="#BEE1F0" offset="100%"/></linearGradient><linearGradient x1="50%" y1=".196%" x2="50%" y2="100%" id="alg"><stop stop-color="#D7EEF8" offset="1.197%"/><stop stop-color="#BEE1F0" offset="100%"/></linearGradient><linearGradient x1="50%" y1=".245%" x2="50%" y2="100%" id="alh"><stop stop-color="#EAF6FB" offset="0%"/><stop stop-color="#D7EEF8" offset="100%"/></linearGradient><linearGradient x1="50%" y1="0%" x2="50%" y2="100%" id="ali"><stop stop-color="#EAF6FB" offset="0%"/><stop stop-color="#D7EEF8" offset="100%"/></linearGradient><path id="ala" d="M0 0h16v16H0z"/></defs><g fill="none" fill-rule="evenodd"><mask id="alb" fill="#fff"><use xlink:href="#ala"/></mask><g mask="url(#alb)"><circle fill-opacity=".1" fill="#000" cx="8" cy="8" r="6.4"/><path d="M12.467 4.267c.036 0 .066.03.066.066v.134h.134a.067.067 0 0 1 0 .133h-.134v.133a.067.067 0 1 1-.133 0l-.001-.133h-.132a.067.067 0 1 1 0-.133h.132l.001-.134c0-.036.03-.066.067-.066Zm-5.8-2.934c.036 0 .066.03.066.067v.133h.134a.067.067 0 0 1 0 .134h-.134V1.8a.067.067 0 1 1-.133 0l-.001-.134h-.132a.067.067 0 0 1 0-.133h.132L6.6 1.4c0-.037.03-.067.067-.067ZM5.617 13.25a.067.067 0 0 1 0 .095l-.19.188.19.189a.067.067 0 1 1-.095.094l-.189-.19-.188.19a.067.067 0 1 1-.095-.094l.19-.19-.19-.187a.067.067 0 1 1 .095-.095l.188.189.189-.189a.067.067 0 0 1 .094 0ZM2 5.6a.333.333 0 1 1 0 .667.333.333 0 0 1 0-.667Zm0 .133a.2.2 0 1 0 0 .4.2.2 0 0 0 0-.4Zm8.333 6.534a.267.267 0 1 1 0 .533.267.267 0 0 1 0-.533Zm0 .133a.133.133 0 1 0 0 .267.133.133 0 0 0 0-.267Z" fill="url(#alc)"/><g fill-rule="nonzero"><path d="M11.333 7.733c1.104 0 2.012.824 2.132 1.893a.215.215 0 0 1-.212.24h-2.345a3.336 3.336 0 0 0-1.304-1.264c.383-.519 1-.858 1.696-.868h.033Zm0-2.4a1.067 1.067 0 0 1 .021 2.133h-.02a1.067 1.067 0 0 1-.022-2.132h.021Z" fill-opacity=".3" fill="#000"/><path d="M1.758 2.667a1.87 1.87 0 0 1 1.83 1.6H1.132a3.338 3.338 0 0 0-.9-.861l.07-.087c.345-.401.858-.652 1.428-.652Z" fill="url(#ald)" transform="translate(9.604 5.333)"/><path d="M1.729.267a.8.8 0 1 0 0 1.6.8.8 0 0 0 0-1.6Z" fill="url(#ale)" transform="translate(9.604 5.333)"/></g><g fill-rule="nonzero"><path d="M4.667 7.733c.71 0 1.339.341 1.73.869a3.337 3.337 0 0 0-1.304 1.264H2.747a.215.215 0 0 1-.212-.24 2.137 2.137 0 0 1 2.099-1.892h.033Zm0-2.4a1.067 1.067 0 0 1 .02 2.133h-.02a1.067 1.067 0 0 1-.021-2.132h.02Z" fill-opacity=".3" fill="#000"/><path d="M2.162 2.667a1.88 1.88 0 0 1 1.47.74c-.353.227-.658.52-.901.86H.273l.005-.028c.142-.9.923-1.572 1.855-1.572Z" fill="url(#alf)" transform="translate(2.533 5.333)"/><path d="M2.133.267a.8.8 0 1 0 0 1.6.8.8 0 0 0 0-1.6Z" fill="url(#alg)" transform="translate(2.533 5.333)"/></g><g fill-rule="nonzero"><path d="M8 8.2a3.334 3.334 0 0 1 3.331 2.956c.022.2-.13.377-.331.377H5a.336.336 0 0 1-.331-.377A3.333 3.333 0 0 1 7.949 8.2H8Zm0-3.733A1.667 1.667 0 0 1 8.028 7.8H8a1.667 1.667 0 0 1-.028-3.333H8Z" fill-opacity=".3" fill="#000"/><path d="M3.333 4A3.067 3.067 0 0 0 .267 6.719c-.004.042.023.076.059.08l.007.001h6c.04 0 .071-.036.067-.08A3.068 3.068 0 0 0 3.333 4Z" fill="url(#alh)" transform="translate(4.667 4.467)"/><path d="M3.333.267a1.4 1.4 0 1 0 0 2.8 1.4 1.4 0 0 0 0-2.8Z" fill="url(#ali)" transform="translate(4.667 4.467)"/></g></g></g></svg><view id="icon-empty-state-keys" viewBox="0 48 16 16"/><svg width="16" height="16" viewBox="0 0 16 16" y="48" xmlns="http://www.w3.org/2000/svg"><defs><linearGradient x1="100%" y1="17.05%" x2="0%" y2="82.95%" id="amc"><stop stop-color="#55D2F0" offset="0%"/><stop stop-color="#2BA6DE" offset="100%"/></linearGradient><linearGradient x1="50%" y1="0%" x2="50%" y2="98.778%" id="amd"><stop stop-color="#BEE1F0" stop-opacity=".9" offset="0%"/><stop stop-color="#98CADF" offset="100%"/></linearGradient><linearGradient x1="50%" y1="0%" x2="50%" y2="99.477%" id="ame"><stop stop-color="#D7EEF8" stop-opacity=".9" offset="0%"/><stop stop-color="#BEE1F0" offset="100%"/></linearGradient><linearGradient x1="50%" y1=".762%" x2="50%" y2="99.477%" id="amf"><stop stop-color="#EAF6FB" offset="0%"/><stop stop-color="#D7EEF8" offset="100%"/></linearGradient><path id="ama" d="M0 0h16v16H0z"/></defs><g fill="none" fill-rule="evenodd"><mask id="amb" fill="#fff"><use xlink:href="#ama"/></mask><g mask="url(#amb)"><circle fill-opacity=".1" fill="#000" cx="8" cy="8" r="6.4"/><path d="M8.101 3.073a.067.067 0 0 1 0-.094l.095-.094-.095-.094a.067.067 0 0 1 .095-.095l.094.095.094-.095a.067.067 0 1 1 .094.095l-.094.094.094.094a.067.067 0 1 1-.094.094L8.29 2.98l-.093.093a.067.067 0 0 1-.095 0Zm-.968 10.394c0-.037.03-.067.067-.067h.266v-.267a.067.067 0 0 1 .134 0v.268l.267-.001a.067.067 0 0 1 0 .133h-.268l.001.267a.067.067 0 1 1-.133 0v-.266H7.2a.067.067 0 0 1-.067-.067ZM.4 6.667a.333.333 0 1 1 0 .666.333.333 0 0 1 0-.666Zm0 .133a.2.2 0 1 0 0 .4.2.2 0 0 0 0-.4Zm11.688-1.365a.267.267 0 1 1 .377-.377.267.267 0 0 1-.377.377Zm.094-.094a.133.133 0 1 0 .188-.188.133.133 0 0 0-.188.188Zm1.328 3.262a.2.2 0 1 0 .282-.283.2.2 0 0 0-.282.283Z" fill="url(#amc)"/><g fill-rule="nonzero"><path d="M5.8 3.333c.147 0 .267.12.267.267v.278c.09.01.177.025.262.045.335-.05.675-.025.994.068A2.334 2.334 0 0 1 9.64 6.51l1.206.697.682.026c.03.002.06.013.082.033l.029.034.005.01.252.547.527-.034a.267.267 0 0 1 .231.107l.033.058.005.014.525 1.508a.4.4 0 0 1-.142.455l-.065.038-.673.318a.267.267 0 0 1-.188.016l-.06-.026-2.858-1.65.058.1.578.365a.133.133 0 0 1 .055.07l.007.043v.012l-.055.6.473.234c.083.04.136.12.147.207v.067l-.003.015-.3 1.568a.4.4 0 0 1-.35.323h-.075l-.742-.06a.267.267 0 0 1-.17-.08l-.04-.053-2.003-3.47-.008-.002L6.8 9.696l.318.604a.133.133 0 0 1 .013.088l-.016.042-.006.01-.347.491.293.44a.267.267 0 0 1 .023.253l-.034.057-.01.012-1.043 1.209a.4.4 0 0 1-.455.108l-.076-.041-.612-.424a.267.267 0 0 1-.107-.155l-.008-.064V8.27a2.333 2.333 0 0 1 .8-4.394V3.6c0-.147.12-.267.267-.267Z" fill-opacity=".3" fill="#000"/><path d="m4.706 1.11.031.015a2.067 2.067 0 0 1 1.15 2.196l1.386.8.012.007a.133.133 0 0 0 .05.011l.633.025.257.556c.023.05.074.08.13.077l.618-.04.525 1.508a.133.133 0 0 1-.07.165l-.672.318-3.259-1.88-.37-.645c.462-.67.553-1.558.185-2.329l-.086-.163a2.329 2.329 0 0 0-.52-.62Z" fill="url(#amd)" transform="translate(3.467 3.333)"/><path d="M4.995 1.865a2.067 2.067 0 0 1-.188 2.34l.8 1.386.007.011c.01.014.023.026.038.035l.536.339-.056.609a.133.133 0 0 0 .074.132l.555.274-.3 1.569a.133.133 0 0 1-.141.108l-.742-.061-2.113-3.658-.106.01A2.333 2.333 0 0 0 3.523.855a2.067 2.067 0 0 1 1.472 1.01Z" fill="url(#ame)" transform="translate(3.467 3.333)"/><path d="M2.6.813a2.067 2.067 0 0 1 .467 3.982v1.614a.133.133 0 0 0 .015.049l.295.56-.353.5a.133.133 0 0 0-.002.152l.344.515-1.044 1.209a.133.133 0 0 1-.176.022l-.613-.423V4.768A2.067 2.067 0 0 1 2.066.813v1.12H1.8a.267.267 0 0 0 0 .534h1.067a.267.267 0 0 0 0-.534h-.268Z" fill="url(#amf)" transform="translate(3.467 3.333)"/></g></g></g></svg><view id="icon-empty-state-policy" viewBox="16 48 16 16"/><svg width="16" height="16" viewBox="0 0 16 16" x="16" y="48" xmlns="http://www.w3.org/2000/svg"><defs><linearGradient x1="100%" y1="10.797%" x2="0%" y2="89.203%" id="anc"><stop stop-color="#55D2F0" offset="0%"/><stop stop-color="#2BA6DE" offset="100%"/></linearGradient><linearGradient x1="50%" y1="0%" x2="50%" y2="100%" id="and"><stop stop-color="#EAF6FB" offset="0%"/><stop stop-color="#D7EEF8" offset="100%"/></linearGradient><path id="ana" d="M0 0h16v16H0z"/></defs><g fill="none" fill-rule="evenodd"><mask id="anb" fill="#fff"><use xlink:href="#ana"/></mask><g mask="url(#anb)"><circle fill-opacity=".1" fill="#000" cx="8" cy="8" r="6.4"/><path d="M.522 7.899a.067.067 0 0 1 0-.094l.094-.094-.094-.095a.067.067 0 0 1 .094-.094l.094.095.095-.095a.067.067 0 0 1 .094.094l-.094.095.094.094a.067.067 0 0 1-.094.094L.71 7.806.616 7.9a.067.067 0 0 1-.094 0ZM13.533 7.6c0-.037.03-.067.067-.067l.266.001v-.267a.067.067 0 1 1 .134 0v.267h.267a.067.067 0 0 1 0 .133h-.268l.001.266a.067.067 0 0 1-.133 0v-.266H13.6a.067.067 0 0 1-.067-.067Zm-3-6.267a.333.333 0 1 1 0 .667.333.333 0 0 1 0-.667Zm0 .134a.2.2 0 1 0 0 .4.2.2 0 0 0 0-.4ZM5.688 13.502a.267.267 0 1 1 .377-.377.267.267 0 0 1-.377.377Zm.094-.094a.133.133 0 1 0 .188-.189.133.133 0 0 0-.188.189ZM4.976 3.27a.2.2 0 1 0 .283-.283.2.2 0 0 0-.283.283Z" fill="url(#anc)"/><g fill-rule="nonzero"><path d="M7.489 3.104a.851.851 0 0 1 1.085.052c.802.738 1.756 1.085 3.042 1.094h.05c.446 0 .846.344.857.8v.02l-.001.739.008.508.003.505c-.018 3.145-1.055 5.081-4.267 6.135a.852.852 0 0 1-.532 0c-3.18-1.043-4.228-2.951-4.266-6.043l-.001-.094v-.224l.01-.653.001-.216-.002-.657c0-.459.394-.81.838-.82h.02c1.295 0 2.255-.338 3.061-1.066l.031-.028.063-.052Z" fill-opacity=".3" fill="#000"/><path d="M4.198.372a.585.585 0 0 1 .728.047c.867.797 1.902 1.164 3.273 1.164.322 0 .591.25.591.554l-.001.738.008.514.003.502v.096c-.041 3.15-1.165 4.826-4.084 5.784a.586.586 0 0 1-.366 0C1.402 8.804.286 7.103.267 3.885v-.222l.01-.65.001-.216-.002-.661V2.12c.01-.295.276-.537.591-.537h.05c1.33-.009 2.342-.368 3.192-1.136l.026-.024.051-.043Zm2.32 3.169a.267.267 0 0 0-.377.008L3.965 5.816l-.974-1.002-.01-.01a.267.267 0 0 0-.372.382l1.166 1.2.011.01a.267.267 0 0 0 .373-.011l2.367-2.467.01-.01a.267.267 0 0 0-.018-.367Z" fill="url(#and)" transform="translate(3.467 2.933)"/></g></g></g></svg><view id="icon-empty-state-restricted-folder" viewBox="32 48 16 16"/><svg width="16" height="16" viewBox="0 0 16 16" x="32" y="48" xmlns="http://www.w3.org/2000/svg"><defs><linearGradient x1="100%" y1="23.211%" x2="11.327%" y2="88.117%" id="aoa"><stop stop-color="#55D2F0" offset="0%"/><stop stop-color="#2BA6DE" offset="100%"/></linearGradient><linearGradient x1="100%" y1="29.214%" x2="13.925%" y2="84.712%" id="aob"><stop stop-color="#55D2F0" offset="0%"/><stop stop-color="#2BA6DE" offset="100%"/></linearGradient><linearGradient x1="58.833%" y1="-93.261%" x2="58.833%" y2="104%" id="aoc"><stop stop-color="#EAF6FB" offset="0%"/><stop stop-color="#D7EEF8" offset="100%"/></linearGradient><linearGradient x1="106.286%" y1="7.843%" x2="1.096%" y2="100%" id="aod"><stop stop-color="#55D2F0" offset="0%"/><stop stop-color="#2BA6DE" offset="100%"/></linearGradient></defs><g fill="none" fill-rule="evenodd"><path d="M0 0h16v16H0z"/><g transform="translate(1.6 1.6)"><path d="M6.4 12.8A6.4 6.4 0 1 0 6.4 0a6.4 6.4 0 0 0 0 12.8Z" fill-opacity=".1" fill="#000" fill-rule="nonzero"/><path d="M12.133 1.733c.037 0 .067.03.067.067v.133h.133a.067.067 0 0 1 0 .134H12.2V2.2a.067.067 0 0 1-.133 0v-.133h-.134a.067.067 0 0 1 0-.134h.134V1.8c0-.037.03-.067.066-.067Zm-7.266-.266c.036 0 .066.03.066.066v.134h.134a.067.067 0 0 1 0 .133h-.134v.133a.067.067 0 1 1-.133 0V1.8h-.133a.067.067 0 1 1 0-.133H4.8v-.134c0-.036.03-.066.067-.066Zm-1.317 9.05a.067.067 0 0 1 0 .094l-.19.189.19.189a.067.067 0 0 1-.095.094l-.188-.189-.189.189a.067.067 0 0 1-.094-.094l.188-.19-.188-.188a.067.067 0 0 1 .094-.094l.189.189.188-.189a.067.067 0 0 1 .095 0ZM.733 3.067a.333.333 0 1 1 0 .666.333.333 0 0 1 0-.666Zm0 .133a.2.2 0 1 0 0 .4.2.2 0 0 0 0-.4Zm9.267 8a.267.267 0 1 1 0 .533.267.267 0 0 1 0-.533Zm0 .133a.133.133 0 1 0 0 .267.133.133 0 0 0 0-.267Zm1.659-3.074.282.282A.2.2 0 0 1 11.6 8.4a.2.2 0 0 1 .059-.141Z" fill="url(#aoa)"/><path d="M12.133 1.733c.037 0 .067.03.067.067v.133h.133a.067.067 0 0 1 0 .134H12.2V2.2a.067.067 0 0 1-.133 0v-.133h-.134a.067.067 0 0 1 0-.134h.134V1.8c0-.037.03-.067.066-.067Zm-7.266-.266c.036 0 .066.03.066.066v.134h.134a.067.067 0 0 1 0 .133h-.134v.133a.067.067 0 1 1-.133 0V1.8h-.133a.067.067 0 1 1 0-.133H4.8v-.134c0-.036.03-.066.067-.066Zm-1.317 9.05a.067.067 0 0 1 0 .094l-.19.189.19.189a.067.067 0 0 1-.095.094l-.188-.189-.189.189a.067.067 0 0 1-.094-.094l.188-.19-.188-.188a.067.067 0 0 1 .094-.094l.189.189.188-.189a.067.067 0 0 1 .095 0ZM.733 3.067a.333.333 0 1 1 0 .666.333.333 0 0 1 0-.666Zm0 .133a.2.2 0 1 0 0 .4.2.2 0 0 0 0-.4ZM11.66 8.259l.282.282A.2.2 0 0 1 11.6 8.4a.2.2 0 0 1 .059-.141Z" fill="url(#aob)"/><path d="M10.4 4.526c0-.364-.298-.66-.747-.66h-3.78a.267.267 0 0 1-.22-.113l-.307-.44a.267.267 0 0 0-.218-.113H2.933a.533.533 0 0 0-.533.533v5.474c0 .364.298.66.747.66h6.506c.45 0 .747-.296.747-.66v-4.68Z" fill="url(#aoc)" fill-rule="nonzero"/><path d="M5.867 6.133a.533.533 0 0 1 1.066 0V6.6H5.867v-.467Zm-.4.467h-.4a.267.267 0 0 0-.267.267v1.466c0 .148.12.267.267.267h2.666c.148 0 .267-.12.267-.267V6.867a.267.267 0 0 0-.267-.267h-.4v-.467a.933.933 0 1 0-1.866 0V6.6Z" fill="url(#aod)"/><rect fill="#000" fill-rule="nonzero" x="6.2" y="7.133" width="1" height="1" rx=".2"/></g></g></svg><view id="icon-empty-state-users" viewBox="48 48 16 16"/><svg width="16" height="16" viewBox="0 0 16 16" x="48" y="48" xmlns="http://www.w3.org/2000/svg"><defs><linearGradient x1="100%" y1="2.898%" x2="0%" y2="97.102%" id="apc"><stop stop-color="#55D2F0" offset="0%"/><stop stop-color="#2BA6DE" offset="100%"/></linearGradient><linearGradient x1="50%" y1=".225%" x2="50%" y2="100%" id="apd"><stop stop-color="#EAF6FB" offset="0%"/><stop stop-color="#D7EEF8" offset="100%"/></linearGradient><linearGradient x1="50%" y1="1.036%" x2="50%" y2="98.487%" id="ape"><stop stop-color="#EAF6FB" offset="0%"/><stop stop-color="#D7EEF8" offset="100%"/></linearGradient><path id="apa" d="M0 0h16v16H0z"/></defs><g fill="none" fill-rule="evenodd"><mask id="apb" fill="#fff"><use xlink:href="#apa"/></mask><g mask="url(#apb)"><circle fill-opacity=".1" fill="#000" cx="8" cy="8" r="6.4"/><path d="M3.533 10.667c.037 0 .067.03.067.066v.134h.133a.067.067 0 1 1 0 .133H3.6v.133a.067.067 0 1 1-.133 0L3.466 11h-.133a.067.067 0 0 1 0-.133h.133v-.134c0-.036.03-.066.067-.066Zm4.334-8.2c.036 0 .066.03.066.066v.134h.134a.067.067 0 1 1 0 .133h-.134v.133a.067.067 0 1 1-.133 0L7.799 2.8h-.132a.067.067 0 1 1 0-.133h.132l.001-.134c0-.036.03-.066.067-.066Zm4.75.717a.067.067 0 0 1 0 .094l-.19.188.19.19a.067.067 0 1 1-.095.094l-.189-.19-.188.19a.067.067 0 1 1-.095-.095l.19-.189-.19-.188a.067.067 0 0 1 .095-.094l.188.188.189-.188a.067.067 0 0 1 .094 0Zm.983 4.95a.333.333 0 1 1 0 .666.333.333 0 0 1 0-.667Zm0 .133a.2.2 0 1 0 0 .4.2.2 0 0 0 0-.4Zm-4.8 4.666a.267.267 0 1 1 0 .534.267.267 0 0 1 0-.534Zm0 .134a.133.133 0 1 0 0 .266.133.133 0 0 0 0-.266ZM2.8 4.2a.2.2 0 1 0 0 .4.2.2 0 0 0 0-.4Z" fill="url(#apc)"/><g fill-rule="nonzero"><path d="M8 3.467a2 2 0 1 1 0 4 2 2 0 0 1 0-4ZM8 8a4.007 4.007 0 0 1 3.997 3.549.402.402 0 0 1-.397.451H4.4a.402.402 0 0 1-.397-.451A4.007 4.007 0 0 1 8 8Z" fill-opacity=".3" fill="#000"/><path d="M4 .267a1.733 1.733 0 1 0 0 3.466A1.733 1.733 0 0 0 4 .267Z" fill="url(#apd)" transform="translate(4 3.467)"/><path d="M4 4.8A3.74 3.74 0 0 0 .268 8.112a.136.136 0 0 0 .122.154H7.6c.08 0 .142-.07.133-.154A3.74 3.74 0 0 0 4 4.8Z" fill="url(#ape)" transform="translate(4 3.467)"/></g></g></g></svg><view id="icon-gallery-photos" viewBox="64 0 16 16"/><svg width="16" height="16" viewBox="0 0 16 16" x="64" xmlns="http://www.w3.org/2000/svg"><defs><linearGradient x1="99.445%" y1="0%" x2=".555%" y2="100%" id="aqc"><stop stop-color="#55D2F0" offset="0%"/><stop stop-color="#2BA6DE" offset="100%"/></linearGradient><linearGradient x1="100%" y1="48.204%" x2="0%" y2="51.796%" id="aqd"><stop stop-color="#55D2F0" offset="0%"/><stop stop-color="#2BA6DE" offset="100%"/></linearGradient><linearGradient x1="100%" y1="48.837%" x2="0%" y2="51.163%" id="aqe"><stop stop-color="#55D2F0" offset="0%"/><stop stop-color="#2BA6DE" offset="100%"/></linearGradient><linearGradient x1="100%" y1="49.186%" x2="0%" y2="50.814%" id="aqf"><stop stop-color="#55D2F0" offset="0%"/><stop stop-color="#2BA6DE" offset="100%"/></linearGradient><linearGradient x1="100%" y1="18%" x2="0%" y2="82%" id="aqg"><stop stop-color="#55D2F0" offset="0%"/><stop stop-color="#2BA6DE" offset="100%"/></linearGradient><linearGradient x1="50%" y1="-65.532%" x2="50%" y2="100%" id="aqh"><stop stop-color="#FFF" offset="0%"/><stop stop-color="#EFEFEF" offset="100%"/></linearGradient><linearGradient x1="50%" y1="-65.532%" x2="50%" y2="100%" id="aqi"><stop stop-color="#FFF" offset="0%"/><stop stop-color="#EFEFEF" offset="100%"/></linearGradient><path id="aqa" d="M0 0h16v16H0z"/></defs><g fill="none" fill-rule="evenodd"><mask id="aqb" fill="#fff"><use xlink:href="#aqa"/></mask><g mask="url(#aqb)"><g transform="translate(.32 .32)"><circle fill-opacity=".1" fill="#000" cx="7.68" cy="7.68" r="7.68"/><path d="M5.14 13.66a.08.08 0 0 1 0 .114L4.912 14l.226.226a.08.08 0 0 1-.113.113l-.225-.227-.227.227a.08.08 0 0 1-.113-.113L4.688 14l-.227-.225a.08.08 0 0 1 .113-.113l.227.225.225-.225a.08.08 0 0 1 .113 0Zm5.18-.3a.4.4 0 1 1 0 .8.4.4 0 0 1 0-.8Zm0 .16a.24.24 0 1 0 0 .48.24.24 0 0 0 0-.48Zm3.877-4.843.566.566a.399.399 0 0 1-.683-.283c0-.11.045-.21.117-.283ZM.88 3.68a.4.4 0 1 1 0 .8.4.4 0 0 1 0-.8Zm0 .16a.24.24 0 1 0 0 .48.24.24 0 0 0 0-.48Zm9.52-2.48a.08.08 0 0 1 .08.08v.16h.16a.08.08 0 1 1 0 .16h-.16v.16a.08.08 0 1 1-.16 0v-.16h-.16a.08.08 0 1 1 0-.16h.16v-.16a.08.08 0 0 1 .08-.08ZM3.6 0a.08.08 0 0 1 .08.08v.16h.16a.08.08 0 1 1 0 .16h-.16v.16a.08.08 0 1 1-.16 0V.4h-.16a.08.08 0 1 1 0-.16h.16V.08A.08.08 0 0 1 3.6 0Z" fill="url(#aqc)"/><g opacity=".25"><path d="M9.6 2.56c.52 0 .966.31 1.167.753a1.274 1.274 0 0 0-.527-.113H5.12c-.187 0-.366.04-.526.113.2-.444.647-.753 1.166-.753H9.6Z" fill="#000" opacity=".3"/><path d="M5.006.32c.286 0 .543.125.719.323L5.646.64H.526a1.3 1.3 0 0 0-.078.002.957.957 0 0 1 .718-.322h3.84Z" fill="url(#aqd)" transform="translate(4.594 2.56)"/></g><g opacity=".5"><path d="M10.24 3.2c.52 0 .966.31 1.167.753a1.274 1.274 0 0 0-.527-.113h-6.4c-.187 0-.366.04-.526.113.2-.444.647-.753 1.166-.753h5.12Z" fill="#000" opacity=".3"/><path d="M6.286.32c.286 0 .543.125.719.323L6.926.64h-6.4a1.3 1.3 0 0 0-.078.002.957.957 0 0 1 .718-.322h5.12Z" fill="url(#aqe)" transform="translate(3.954 3.2)"/></g><g opacity=".75"><path d="M10.88 3.84c.52 0 .966.31 1.167.753a1.274 1.274 0 0 0-.527-.113H3.84c-.187 0-.366.04-.526.113.2-.444.647-.753 1.166-.753h6.4Z" fill="#000" opacity=".3"/><path d="M7.566.32c.286 0 .543.125.719.323L8.206.64H.526a1.3 1.3 0 0 0-.078.002.957.957 0 0 1 .718-.322h6.4Z" fill="url(#aqf)" transform="translate(3.314 3.84)"/></g><g transform="translate(2.56 4.48)"><path d="M1.28 0h7.68c.707 0 1.28.573 1.28 1.28v5.76a1.28 1.28 0 0 1-1.28 1.28H1.28A1.28 1.28 0 0 1 0 7.04V1.28C0 .573.573 0 1.28 0Z" fill="#000" opacity=".3"/><rect fill="url(#aqg)" x=".32" y=".32" width="9.6" height="7.68" rx=".96"/><path d="m6.4 5.44 1.08-1.08a.32.32 0 0 1 .423-.025L9.614 5.68a.8.8 0 0 1 .306.629v.731c0 .53-.43.96-.96.96L6.4 5.44Z" fill="url(#aqh)" opacity=".5"/><path d="M.32 7.04v-.949a.8.8 0 0 1 .234-.565l2.74-2.74a.32.32 0 0 1 .452 0L8.96 8H1.28a.96.96 0 0 1-.96-.96Z" fill="url(#aqi)"/><circle fill="#FFF" cx="5.92" cy="2.08" r="1"/></g></g></g></g></svg><view id="icon-gif-rest" viewBox="64 16 16 16"/><svg width="16" height="16" viewBox="0 0 16 16" x="64" y="16" xmlns="http://www.w3.org/2000/svg"><defs><path id="ara" d="M0 0h16v16H0z"/><path d="m6.896 6.612-.622.617a1.254 1.254 0 0 0-.867-.33c-.617 0-1.018.368-1.018 1.11 0 .486.255 1.087 1.018 1.087.2 0 .515-.038.731-.195v-.487H5.18v-.839h1.852v1.683c-.239.482-.9.742-1.63.742-1.5 0-2.069-1.001-2.069-1.992 0-.99.65-2.008 2.074-2.008.525 0 .991.108 1.49.612Zm1.951 3.285H7.781V6.108h1.066v3.79Zm1.973 0H9.76V6.108h2.908v.899H10.82v.709h1.733v.877H10.82v1.304Z" id="arc"/></defs><g fill="none" fill-rule="evenodd"><mask id="arb" fill="#fff"><use xlink:href="#ara"/></mask><g mask="url(#arb)"><path d="M2.667 1.333h10.666c.737 0 1.334.597 1.334 1.334v10.666c0 .737-.597 1.334-1.334 1.334H2.667a1.333 1.333 0 0 1-1.334-1.334V2.667c0-.737.597-1.334 1.334-1.334Z" fill="#CCC"/><use fill="#FFF" xlink:href="#arc"/></g></g></svg><view id="icon-handset" viewBox="64 32 16 16"/><svg width="16" height="16" viewBox="0 0 16 16" x="64" y="32" xmlns="http://www.w3.org/2000/svg"><defs><path id="aza" d="M0 0h16v16H0z"/><path d="M5.518 10.482c-1.305-1.305-2.22-2.857-3.105-4.47-.832-1.522-.382-2.894 1.132-3.802.533-.322.975-.285 1.373.188.187.232.885 1.072 1.065 1.312.57.735.577 1.185-.465 2.213-.435.427-.33.974 0 1.304l3.255 3.255c.33.33.877.435 1.304 0 1.028-1.042 1.478-1.035 2.213-.465.24.18 1.08.878 1.312 1.065.473.398.51.84.188 1.373-.908 1.514-2.28 1.964-3.803 1.132-1.612-.885-3.164-1.8-4.47-3.105Z" id="azc"/></defs><g fill="none" fill-rule="evenodd"><mask id="azb" fill="#fff"><use xlink:href="#aza"/></mask><g mask="url(#azb)"><use fill="#CCC" xlink:href="#azc"/></g></g></svg><view id="icon-handset-cancelled" viewBox="64 48 16 16"/><svg width="16" height="16" viewBox="0 0 16 16" x="64" y="48" xmlns="http://www.w3.org/2000/svg"><defs><path id="asa" d="M0 0h16v16H0z"/></defs><g fill="none" fill-rule="evenodd"><mask id="asb" fill="#fff"><use xlink:href="#asa"/></mask><g mask="url(#asb)" fill-rule="nonzero"><path d="m7.752 9.461 1.02 1.021c.33.33.878.435 1.305 0 .997-1.01 1.45-1.034 2.147-.515l.19.147.589.477.6.491c.472.398.51.84.187 1.373-.908 1.514-2.28 1.964-3.803 1.132-1.36-.747-2.677-1.515-3.84-2.52l1.605-1.606ZM4.918 2.398l.75.917.218.27.097.125c.57.735.577 1.185-.465 2.213-.435.427-.33.974 0 1.304l.52.52-1.555 1.556c-.793-1.021-1.439-2.14-2.07-3.29-.832-1.523-.382-2.895 1.132-3.803.533-.322.975-.285 1.373.188Z" fill="#CCC"/><path d="M12.107 3.354a.5.5 0 0 1 0 .707L2.56 13.607a.5.5 0 1 1-.707-.708l9.545-9.545a.5.5 0 0 1 .708 0Z" fill="#FF6560"/></g></g></svg><view id="icon-handset-ended" viewBox="0 64 16 16"/><svg width="16" height="16" viewBox="0 0 16 16" y="64" xmlns="http://www.w3.org/2000/svg"><defs><path id="ata" d="M0 0h16v16H0z"/><path d="M8 5.49c1.628 0 3.178.35 4.733.786l.623.179c1.665.488 2.317 1.776 1.888 3.489-.149.605-.488.89-1.103.838l-1.18-.118-.344-.037-.24-.031-.154-.026c-.742-.146-1.008-.526-.999-1.856.005-.61-.456-.923-.923-.923H5.7c-.467 0-.928.313-.923.923.01 1.33-.257 1.71-.999 1.856l-.154.026-.152.02-.433.048-1.179.118c-.615.053-.954-.233-1.103-.838-.43-1.713.223-3.001 1.888-3.49l.623-.178c1.451-.406 2.898-.74 4.408-.782L8 5.49Z" id="atc"/></defs><g fill="none" fill-rule="evenodd"><mask id="atb" fill="#fff"><use xlink:href="#ata"/></mask><g mask="url(#atb)"><use fill="#CCC" xlink:href="#atc"/></g></g></svg><view id="icon-handset-failed" viewBox="16 64 16 16"/><svg width="16" height="16" viewBox="0 0 16 16" x="16" y="64" xmlns="http://www.w3.org/2000/svg"><defs><path id="aua" d="M0 0h16v16H0z"/></defs><g fill="none" fill-rule="evenodd"><mask id="aub" fill="#fff"><use xlink:href="#aua"/></mask><g mask="url(#aub)" fill-rule="nonzero"><path d="M12.694 2.605a.5.5 0 0 1 .66.749L12.207 4.5l1.147 1.146a.5.5 0 0 1-.66.75l-.048-.042L11.5 5.207l-1.146 1.147-.048.041a.5.5 0 0 1-.66-.749L10.793 4.5 9.646 3.354a.5.5 0 0 1 .66-.75l.048.042L11.5 3.793l1.146-1.147Z" fill="#FF6560"/><path d="M5.518 10.482c-1.305-1.305-2.22-2.857-3.105-4.47-.832-1.522-.382-2.894 1.132-3.802.533-.322.975-.285 1.373.188.187.232.885 1.072 1.065 1.312.57.735.577 1.185-.465 2.213-.435.427-.33.974 0 1.304l3.255 3.255c.33.33.877.435 1.304 0 1.028-1.042 1.478-1.035 2.213-.465.24.18 1.08.878 1.312 1.065.473.398.51.84.188 1.373-.908 1.514-2.28 1.964-3.803 1.132-1.612-.885-3.164-1.8-4.47-3.105Z" fill="#CCC"/></g></g></svg><view id="icon-handset-incoming" viewBox="32 64 16 16"/><svg width="16" height="16" viewBox="0 0 16 16" x="32" y="64" xmlns="http://www.w3.org/2000/svg"><defs><path id="ava" d="M0 0h16v16H0z"/></defs><g fill="none" fill-rule="evenodd"><mask id="avb" fill="#fff"><use xlink:href="#ava"/></mask><g mask="url(#avb)" fill-rule="nonzero"><path d="M9.055 7.194a.5.5 0 0 1-.5-.5V4.867a.5.5 0 0 1 .5-.5h.061a.5.5 0 0 1 .5.5v.56l2.121-2.12a.5.5 0 0 1 .708.706l-2.122 2.122h.561a.5.5 0 0 1 .5.5v.06a.5.5 0 0 1-.5.5H9.055Z" fill="#81CFB3"/><path d="M5.518 10.482c-1.305-1.305-2.22-2.857-3.105-4.47-.832-1.522-.382-2.894 1.132-3.802.533-.322.975-.285 1.373.188.187.232.885 1.072 1.065 1.312.57.735.577 1.185-.465 2.213-.435.427-.33.974 0 1.304l3.255 3.255c.33.33.877.435 1.304 0 1.028-1.042 1.478-1.035 2.213-.465.24.18 1.08.878 1.312 1.065.473.398.51.84.188 1.373-.908 1.514-2.28 1.964-3.803 1.132-1.612-.885-3.164-1.8-4.47-3.105Z" fill="#CCC"/></g></g></svg><view id="icon-handset-missed" viewBox="48 64 16 16"/><svg width="16" height="16" viewBox="0 0 16 16" x="48" y="64" xmlns="http://www.w3.org/2000/svg"><defs><path id="awa" d="M0 0h16v16H0z"/></defs><g fill="none" fill-rule="evenodd"><mask id="awb" fill="#fff"><use xlink:href="#awa"/></mask><g mask="url(#awb)"><path d="M8 8.49c1.628 0 3.178.35 4.733.786l.623.179c1.665.488 2.317 1.776 1.888 3.489-.149.605-.488.89-1.103.838l-1.18-.118-.344-.037-.24-.031-.154-.026c-.742-.146-1.008-.526-.999-1.856.005-.61-.456-.923-.923-.923H5.7c-.467 0-.928.313-.923.923.01 1.33-.257 1.71-.999 1.856l-.154.026-.152.02-.433.048-1.179.118c-.615.053-.954-.233-1.103-.838-.43-1.713.223-3.001 1.888-3.49l.623-.178c1.451-.406 2.898-.74 4.408-.782L8 8.49Z" fill="#CCC"/><path d="M9.5 2.5h2l.038.001.062.01.056.014.056.022.048.026.049.033.045.04a.505.505 0 0 1 .048.056l.036.056.026.056.018.053.015.074L12 3v2a.5.5 0 1 1-1 0v-.793L8.354 6.854a.5.5 0 0 1-.66.041l-.048-.041-2.5-2.5a.5.5 0 0 1 .66-.75l.048.042L8 5.793 10.292 3.5H9.5a.5.5 0 0 1 0-1Z" fill="#FFBE00"/></g></g></svg><view id="icon-handset-outgoing" viewBox="64 64 16 16"/><svg width="16" height="16" viewBox="0 0 16 16" x="64" y="64" xmlns="http://www.w3.org/2000/svg"><defs><path id="axa" d="M0 0h16v16H0z"/></defs><g fill="none" fill-rule="evenodd"><mask id="axb" fill="#fff"><use xlink:href="#axa"/></mask><g mask="url(#axb)" fill-rule="nonzero"><path d="M12.945 3.805a.5.5 0 0 0-.5-.5h-1.829a.5.5 0 0 0-.5.5v.061a.5.5 0 0 0 .5.5h.56l-2.12 2.121a.5.5 0 0 0 .707.707l2.12-2.12v.56a.5.5 0 0 0 .5.5h.062a.5.5 0 0 0 .5-.5v-1.83Z" fill="#6FD7FF"/><path d="M5.518 10.482c-1.305-1.305-2.22-2.857-3.105-4.47-.832-1.522-.382-2.894 1.132-3.802.533-.322.975-.285 1.373.188.187.232.885 1.072 1.065 1.312.57.735.577 1.185-.465 2.213-.435.427-.33.974 0 1.304l3.255 3.255c.33.33.877.435 1.304 0 1.028-1.042 1.478-1.035 2.213-.465.24.18 1.08.878 1.312 1.065.473.398.51.84.188 1.373-.908 1.514-2.28 1.964-3.803 1.132-1.612-.885-3.164-1.8-4.47-3.105Z" fill="#CCC"/></g></g></svg><view id="icon-handset-rejected" viewBox="80 0 16 16"/><svg width="16" height="16" viewBox="0 0 16 16" x="80" xmlns="http://www.w3.org/2000/svg"><defs><path id="aya" d="M0 0h16v16H0z"/></defs><g fill="none" fill-rule="evenodd"><mask id="ayb" fill="#fff"><use xlink:href="#aya"/></mask><g mask="url(#ayb)" fill-rule="nonzero"><path d="M11.5 2a2.5 2.5 0 1 1 0 5 2.5 2.5 0 0 1 0-5Zm1.354 1.853-2 2a1.5 1.5 0 0 0 2-2ZM11.5 3a1.5 1.5 0 0 0-1.354 2.147l2-2A1.494 1.494 0 0 0 11.5 3Z" fill="#FF6560"/><path d="M5.518 10.482c-1.305-1.305-2.22-2.857-3.105-4.47-.832-1.522-.382-2.894 1.132-3.802.533-.322.975-.285 1.373.188.187.232.885 1.072 1.065 1.312.57.735.577 1.185-.465 2.213-.435.427-.33.974 0 1.304l3.255 3.255c.33.33.877.435 1.304 0 1.028-1.042 1.478-1.035 2.213-.465.24.18 1.08.878 1.312 1.065.473.398.51.84.188 1.373-.908 1.514-2.28 1.964-3.803 1.132-1.612-.885-3.164-1.8-4.47-3.105Z" fill="#CCC"/></g></g></svg><view id="icon-image-zoom-in" viewBox="80 16 16 16"/><svg width="16" height="16" viewBox="0 0 16 16" x="80" y="16" xmlns="http://www.w3.org/2000/svg"><defs><linearGradient x1="50%" y1="0%" x2="50%" y2="100%" id="bac"><stop stop-color="#FFF" offset="0%"/><stop stop-color="#FAFAFA" offset="100%"/></linearGradient><linearGradient x1="50%" y1="0%" x2="50%" y2="97.5%" id="bae"><stop stop-color="#333" offset="0%"/><stop stop-color="#2F2F2F" offset="100%"/></linearGradient><path id="baa" d="M0 0h16v16H0z"/><path d="M.667 0h8c.368 0 .666.298.666.667V8a.667.667 0 0 1-.666.667h-8A.667.667 0 0 1 0 8V.667C0 .298.298 0 .667 0Z" id="bad"/></defs><g fill="none" fill-rule="evenodd"><mask id="bab" fill="#fff"><use xlink:href="#baa"/></mask><g mask="url(#bab)" opacity=".8"><path d="M12.667 2c.368 0 .666.298.666.667v10.666a.667.667 0 0 1-.666.667H3.333a.667.667 0 0 1-.666-.667V2.667c0-.369.298-.667.666-.667h9.334Zm0 .333H3.333c-.163 0-.3.118-.328.274L3 2.667v10.666c0 .164.118.3.273.328l.06.006h9.334c.163 0 .3-.118.328-.274l.005-.06V2.667c0-.164-.118-.3-.273-.328l-.06-.006Z" fill-opacity=".05" fill="#000" fill-rule="nonzero"/><path d="M.667 0H10c.368 0 .667.298.667.667v10.666A.667.667 0 0 1 10 12H.667A.667.667 0 0 1 0 11.333V.667C0 .298.298 0 .667 0Z" fill="url(#bac)" transform="translate(2.667 2)"/><g transform="translate(3.333 2.667)"><mask id="baf" fill="#fff"><use xlink:href="#bad"/></mask><use fill="url(#bae)" xlink:href="#bad"/><path d="M4.667 6.667 7 4.333 9.333 6 6.667 8.667H5.333A.667.667 0 0 1 4.667 8V6.667Z" fill-opacity=".5" fill="#FFF" mask="url(#baf)" transform="matrix(-1 0 0 1 14 0)"/><path d="m5.333 2.667 2 2.666V8a.667.667 0 0 1-.666.667H0l5.333-6Z" fill-opacity=".8" fill="#FFF" mask="url(#baf)" transform="matrix(-1 0 0 1 7.333 0)"/><circle fill="#FFF" mask="url(#baf)" cx="6" cy="2" r="1.333"/></g></g></g></svg><view id="icon-image-zoom-out" viewBox="80 32 16 16"/><svg width="16" height="16" viewBox="0 0 16 16" x="80" y="32" xmlns="http://www.w3.org/2000/svg"><defs><linearGradient x1="50%" y1="0%" x2="50%" y2="100%" id="bbc"><stop stop-color="#FFF" offset="0%"/><stop stop-color="#FAFAFA" offset="100%"/></linearGradient><linearGradient x1="50%" y1="0%" x2="50%" y2="97.5%" id="bbe"><stop stop-color="#333" offset="0%"/><stop stop-color="#2F2F2F" offset="100%"/></linearGradient><path id="bba" d="M0 0h16v16H0z"/><path d="M.667 0H6c.368 0 .667.298.667.667V6A.667.667 0 0 1 6 6.667H.667A.667.667 0 0 1 0 6V.667C0 .298.298 0 .667 0Z" id="bbd"/></defs><g fill="none" fill-rule="evenodd"><mask id="bbb" fill="#fff"><use xlink:href="#bba"/></mask><g mask="url(#bbb)" opacity=".8"><path d="m7.333.25.417 8.417-7.083.416L.25.667 7.333.25Z" stroke-opacity=".05" stroke="#000" stroke-width=".5" fill="url(#bbc)" transform="translate(4 3.333)"/><path d="M.667 0h6.666C7.702 0 8 .298 8 .667v8a.667.667 0 0 1-.667.666H.667A.667.667 0 0 1 0 8.667v-8C0 .298.298 0 .667 0Z" fill="url(#bbc)" transform="translate(4 3.333)"/><g transform="translate(4.667 4)"><mask id="bbf" fill="#fff"><use xlink:href="#bbd"/></mask><use fill="url(#bbe)" xlink:href="#bbd"/><path d="m4 5.333 1.667-1.666 1.666 1.666-2 2h-.666A.667.667 0 0 1 4 6.667V5.333Z" fill-opacity=".5" fill="#FFF" mask="url(#bbf)" transform="matrix(-1 0 0 1 11.333 0)"/><path d="m4 2 2 2v2.667a.667.667 0 0 1-.667.666h-6L4 2Z" fill-opacity=".8" fill="#FFF" mask="url(#bbf)" transform="matrix(-1 0 0 1 5.333 0)"/><circle fill="#FFF" mask="url(#bbf)" cx="4.333" cy="1.667" r="1"/></g></g></g></svg><view id="icon-loading-spinner" viewBox="80 48 16 16"/><svg width="16" height="16" viewBox="0 0 16 16" x="80" y="48" xmlns="http://www.w3.org/2000/svg"><defs><path id="bca" d="M0 0h16v16H0z"/></defs><g fill="none" fill-rule="evenodd"><mask id="bcb" fill="#fff"><use xlink:href="#bca"/></mask><g mask="url(#bcb)" fill="#FFF"><rect fill-opacity=".5" x="7.333" y="1.333" width="1.333" height="4" rx=".667"/><rect fill-opacity=".7" transform="rotate(45 11.3 4.7)" x="10.633" y="2.7" width="1.333" height="4" rx=".667"/><rect fill-opacity=".9" transform="rotate(90 12.667 8)" x="12" y="6" width="1.333" height="4" rx=".667"/><rect fill-opacity=".2" transform="rotate(135 11.3 11.3)" x="10.633" y="9.3" width="1.333" height="4" rx=".667"/><rect fill-opacity=".2" transform="rotate(180 8 12.667)" x="7.333" y="10.667" width="1.333" height="4" rx=".667"/><rect fill-opacity=".2" transform="rotate(-135 4.7 11.3)" x="4.034" y="9.3" width="1.333" height="4" rx=".667"/><rect fill-opacity=".2" transform="rotate(-90 3.333 8)" x="2.667" y="6" width="1.333" height="4" rx=".667"/><rect fill-opacity=".2" transform="rotate(-45 4.7 4.7)" x="4.034" y="2.7" width="1.333" height="4" rx=".667"/></g></g></svg><view id="icon-mic-disabled" viewBox="80 64 16 16"/><svg width="16" height="16" viewBox="0 0 13 15" fill="none" x="80" y="64" xmlns="http://www.w3.org/2000/svg"><rect x="6" y="8" width="7" height="7" rx="1" fill="#CA5040"/><path fill-rule="evenodd" clip-rule="evenodd" d="m8.97 11.5-1.235-1.235.53-.53L9.5 10.97l1.235-1.235.53.53L10.03 11.5l1.235 1.235-.53.53L9.5 12.03l-1.235 1.235-.53-.53L8.97 11.5Z" fill="#fff"/><path fill-rule="evenodd" clip-rule="evenodd" d="M5 .5a2.053 2.053 0 0 1 2.052 2.053v4.105c0 .115-.01.23-.029.342H6.25C5.56 7 5 7.56 5 8.25v.46a2.053 2.053 0 0 1-2.053-2.052V2.553A2.053 2.053 0 0 1 4.999.5Zm0 9.579V13.5h-.685v-2.1A4.794 4.794 0 0 1 .222 7h1.374a3.421 3.421 0 0 0 3.403 3.079Z" fill="#BDBDBE"/></svg><view id="icon-notifications" viewBox="0 80 16 16"/><svg width="16" height="16" viewBox="0 0 16 16" y="80" xmlns="http://www.w3.org/2000/svg"><defs><linearGradient x1="50%" y1="0%" x2="50%" y2="97.5%" id="bfa"><stop stop-color="#F9EB9E" offset="0%"/><stop stop-color="#F7E380" offset="100%"/></linearGradient></defs><g fill="none" fill-rule="evenodd"><g transform="translate(2 1.333)" fill-rule="nonzero"><circle fill="#EFC717" cx="6" cy="10.667" r="2"/><circle fill="#EFC717" cx="6" cy=".667" r="1"/><path d="M.39 8.276 2 6.666v-2a4 4 0 1 1 8 0v2l1.61 1.61c.25.25.39.59.39.943V10c0 .736-.597 1.333-1.333 1.333H1.333A1.333 1.333 0 0 1 0 10v-.781c0-.354.14-.693.39-.943Z" fill="url(#bfa)"/><path fill-opacity=".3" fill="#EBC01E" d="M2 6.667h8v.666H2zM.667 8.667h10.666v.666H.667z"/><path d="M6 .667a4 4 0 0 1 4 4v2l1.61 1.61c.25.25.39.588.39.942V10c0 .736-.597 1.333-1.333 1.333H1.333A1.333 1.333 0 0 1 0 10v-.781c0-.354.14-.693.39-.943L2 6.666v-2a4 4 0 0 1 4-4Zm0 .666a3.333 3.333 0 0 0-3.33 3.19l-.003.144v2.276L.862 8.748a.667.667 0 0 0-.19.383l-.005.088V10c0 .342.257.624.589.662l.077.005h9.334a.667.667 0 0 0 .662-.59l.004-.077v-.781a.667.667 0 0 0-.137-.405l-.058-.066-1.805-1.805V4.667A3.333 3.333 0 0 0 6 1.333Z" fill="#FDF8CC"/><path fill-opacity=".5" fill="#FCF3B8" style="mix-blend-mode:screen" d="M.667 8.667 2 7.333h8l1.333 1.334z"/></g><path d="M0 0h16v16H0z"/></g></svg><view id="icon-notifications-muted" viewBox="16 80 16 16"/><svg width="16" height="16" viewBox="0 0 16 16" x="16" y="80" xmlns="http://www.w3.org/2000/svg"><defs><linearGradient x1="50%" y1="0%" x2="50%" y2="97.5%" id="bea"><stop stop-color="#F9EB9E" offset="0%"/><stop stop-color="#F7E380" offset="100%"/></linearGradient></defs><g fill="none" fill-rule="evenodd"><g fill-rule="nonzero"><g transform="translate(2 1.333)"><circle fill="#EFC717" cx="6" cy="10.667" r="2"/><circle fill="#EFC717" cx="6" cy=".667" r="1"/><path d="M.39 8.276 2 6.666v-2a4 4 0 1 1 8 0v2l1.61 1.61c.25.25.39.59.39.943V10c0 .736-.597 1.333-1.333 1.333H1.333A1.333 1.333 0 0 1 0 10v-.781c0-.354.14-.693.39-.943Z" fill="url(#bea)"/><path fill-opacity=".3" fill="#EBC01E" d="M.667 8.667h10.666v.666H.667zM2 6.667h8v.666H2z"/><path d="M6 .667a4 4 0 0 1 4 4v2l1.61 1.61c.25.25.39.588.39.942V10c0 .736-.597 1.333-1.333 1.333H1.333A1.333 1.333 0 0 1 0 10v-.781c0-.354.14-.693.39-.943L2 6.666v-2a4 4 0 0 1 4-4Zm0 .666a3.333 3.333 0 0 0-3.33 3.19l-.003.144v2.276L.862 8.748a.667.667 0 0 0-.19.383l-.005.088V10c0 .342.257.624.589.662l.077.005h9.334a.667.667 0 0 0 .662-.59l.004-.077v-.781a.667.667 0 0 0-.137-.405l-.058-.066-1.805-1.805V4.667A3.333 3.333 0 0 0 6 1.333Z" fill="#FDF8CC"/><path fill-opacity=".5" fill="#FCF3B8" style="mix-blend-mode:screen" d="M.667 8.667 2 7.333h8l1.333 1.334z"/></g><path fill="#EFC717" d="M4 12.667h2l6-6v-2z"/><path d="M14.128 1.872c.26.26.26.682 0 .943L2.815 14.128a.667.667 0 0 1-.943-.943L13.185 1.872c.26-.26.683-.26.943 0Z" fill-opacity=".7" fill="#F0373A"/></g><path d="M0 0h16v16H0z"/></g></svg><view id="icon-question-grey" viewBox="32 80 16 16"/><svg width="16" height="16" viewBox="0 0 16 16" x="32" y="80" xmlns="http://www.w3.org/2000/svg"><g fill="none" fill-rule="evenodd"><g><circle fill="#444" cx="8" cy="8" r="8"/><path d="M6 4.797c.123-.109.257-.212.404-.31a2.898 2.898 0 0 1 1.027-.425C7.63 4.021 7.845 4 8.076 4c.314 0 .6.043.859.13.258.087.48.21.664.371.184.161.327.355.428.583.101.228.152.482.152.764 0 .275-.04.512-.12.713-.079.2-.178.375-.297.523-.12.148-.25.276-.393.385l-.404.306a3.17 3.17 0 0 0-.328.282.557.557 0 0 0-.165.312l-.125.79H7.43l-.092-.883a.718.718 0 0 1 .073-.447 1.36 1.36 0 0 1 .282-.352c.117-.107.248-.21.393-.309.144-.1.28-.208.406-.325.127-.118.232-.25.317-.396.085-.146.128-.32.128-.523a.79.79 0 0 0-.276-.615.911.911 0 0 0-.312-.17 1.253 1.253 0 0 0-.393-.06 1.75 1.75 0 0 0-.887.22c-.099.055-.183.106-.252.15a.346.346 0 0 1-.184.069.296.296 0 0 1-.282-.163L6 4.797Zm1.024 6.39a.834.834 0 0 1 .233-.58.82.82 0 0 1 .586-.238c.115 0 .223.021.322.065a.798.798 0 0 1 .436.434.803.803 0 0 1 .066.319.797.797 0 0 1-.242.58.823.823 0 0 1-.582.233.848.848 0 0 1-.325-.062.785.785 0 0 1-.494-.751Z" fill="#E6E6E6" fill-rule="nonzero"/></g><path d="M0 0h16v16H0z"/></g></svg><view id="icon-settings" viewBox="48 80 16 16"/><svg width="16" height="16" viewBox="0 0 16 16" x="48" y="80" xmlns="http://www.w3.org/2000/svg"><defs><linearGradient x1="50%" y1="96.654%" x2="50%" y2="0%" id="bha"><stop stop-color="#A8A8A8" offset="0%"/><stop stop-color="#B3B3B3" offset="100%"/></linearGradient></defs><g fill="none" fill-rule="evenodd"><path d="M7.667 9.333a1.667 1.667 0 1 1 .11-.003l-.11.003Zm5-1.666c0-.553-.45-1-1-1h-.474a3.79 3.79 0 0 0-.326-.787l.336-.336a.998.998 0 0 0 .07-1.338l-.07-.076a1.002 1.002 0 0 0-1.414 0l-.336.337a3.79 3.79 0 0 0-.786-.327v-.474a.997.997 0 0 0-.903-.995l-.097-.004c-.553 0-1 .45-1 .999v.474c-.277.08-.54.19-.787.327l-.336-.336a.998.998 0 0 0-1.338-.07l-.076.069a1.002 1.002 0 0 0 0 1.414l.337.336a3.79 3.79 0 0 0-.327.787h-.474a.997.997 0 0 0-.995.903l-.004.097c0 .552.45 1 .999 1h.474c.08.276.19.54.327.786l-.336.336a.998.998 0 0 0-.07 1.338l.069.076c.39.39 1.025.388 1.414 0l.336-.336c.247.136.51.246.787.326v.475c0 .519.393.946.903.994l.097.005c.552 0 1-.45 1-1v-.474c.276-.08.54-.19.786-.326l.336.336a.998.998 0 0 0 1.338.07l.076-.07c.39-.39.389-1.025 0-1.414l-.336-.336a3.79 3.79 0 0 0 .326-.786h.475c.519 0 .946-.394.994-.903l.005-.097Z" fill="url(#bha)"/><path d="M0 0h16v16H0z"/></g></svg><view id="icon-stripe" viewBox="64 80 16 16"/><svg width="16" height="16" viewBox="0 0 16 16" x="64" y="80" xmlns="http://www.w3.org/2000/svg"><g fill="none" fill-rule="evenodd"><path d="M0 0h16v16H0z"/><path d="M9.988 6.318c.519 0 1.008.492 1.01 1.395 0 .988-.482 1.437-1.013 1.437a.811.811 0 0 1-.524-.197l-.003.882-.741.165V6.368h.652l.038.193c.104-.1.29-.243.581-.243ZM5.42 5.695l-.003.676h.563v.663h-.563V8.14c0 .461.468.318.563.277v.633c-.098.056-.275.103-.518.103-.439 0-.768-.34-.768-.801l.003-2.495.723-.162Zm-1.75.623c.245 0 .488.04.734.143v.732c-.225-.128-.51-.2-.735-.2-.157 0-.252.047-.252.169 0 .349 1.13.184 1.132 1.112 0 .558-.424.879-1.04.879-.255 0-.533-.053-.809-.178v-.741c.25.143.563.249.81.249.165 0 .284-.047.284-.19 0-.37-1.126-.234-1.126-1.094 0-.551.4-.881 1.001-.881Zm8.595 0c.702 0 1.07.629 1.07 1.427 0 .074-.007.236-.007.277H11.88c.032.367.287.473.574.473.294 0 .525-.065.726-.171v.623a1.588 1.588 0 0 1-.82.203c-.723 0-1.227-.474-1.227-1.412 0-.791.427-1.42 1.132-1.42ZM8.44 6.37v2.726h-.743V6.37h.743Zm-1.54.23c.175-.336.521-.268.616-.23v.716c-.092-.034-.388-.078-.563.162v1.848h-.74V6.37h.64Zm2.91.408a.431.431 0 0 0-.353.153l.003 1.156a.433.433 0 0 0 .35.146c.272 0 .456-.311.456-.729 0-.408-.187-.726-.457-.726Zm2.45-.059c-.187 0-.391.147-.391.499h.764c0-.352-.193-.499-.373-.499ZM8.44 5.333v.633l-.743.168v-.636l.743-.165Z" fill="#FFF"/></g></svg></svg>