<?xml version="1.0" encoding="UTF-8"?><svg width="80" height="80" viewBox="0 0 80 80" xmlns="http://www.w3.org/2000/svg" xmlns:xlink="http://www.w3.org/1999/xlink"><svg width="16" height="16" viewBox="0 0 16 16" id="icon-emoji" xmlns="http://www.w3.org/2000/svg"><defs><linearGradient x1="50%" y1="0%" x2="50%" y2="96.88%" id="ac"><stop stop-color="#B3B3B3" offset="0%"/><stop stop-color="#A8A8A8" offset="100%"/></linearGradient><path id="aa" d="M0 0h16v16H0z"/></defs><g fill="none" fill-rule="evenodd"><mask id="ab" fill="#fff"><use xlink:href="#aa"/></mask><g mask="url(#ab)"><path d="M6.667 0a6.665 6.665 0 016.666 6.667 6.665 6.665 0 01-6.666 6.666A6.665 6.665 0 010 6.667 6.665 6.665 0 016.667 0" fill="url(#ac)" transform="translate(1.333 1.333)"/><path d="M11.58 9.384c.34.14.503.53.363.87C11.495 11.34 9.849 12 8 12c-1.85 0-3.495-.66-3.943-1.746a.667.667 0 011.2-.578l.033.07c.189.459 1.341.92 2.71.92 1.314 0 2.428-.425 2.683-.865l.027-.055c.14-.34.53-.502.87-.362zM11 6c.553 0 1 .447 1 1 0 .553-.447 1-1 1-.553 0-1-.447-1-1 0-.553.447-1 1-1zM5 6c.553 0 1 .447 1 1 0 .553-.447 1-1 1-.553 0-1-.447-1-1 0-.553.447-1 1-1z" fill="#757575" fill-rule="nonzero"/><path d="M8 1.333A6.665 6.665 0 0114.667 8 6.665 6.665 0 018 14.667 6.665 6.665 0 011.333 8 6.665 6.665 0 018 1.333zM8 2C4.685 2 2 4.685 2 8s2.685 6 6 6 6-2.685 6-6-2.685-6-6-6z" fill="#757575" fill-rule="nonzero"/></g></g></svg><svg width="16" height="16" viewBox="0 0 16 16" id="icon-emoji-active" x="16" xmlns="http://www.w3.org/2000/svg"><defs><linearGradient x1="50%" y1="0%" x2="50%" y2="97.5%" id="bc"><stop stop-color="#F6E8B2" offset="0%"/><stop stop-color="#FCE592" offset="100%"/></linearGradient><path id="ba" d="M0 0h16v16H0z"/></defs><g fill="none" fill-rule="evenodd"><mask id="bb" fill="#fff"><use xlink:href="#ba"/></mask><g mask="url(#bb)"><path d="M6.667 0a6.665 6.665 0 016.666 6.667 6.665 6.665 0 01-6.666 6.666A6.665 6.665 0 010 6.667 6.665 6.665 0 016.667 0" fill="url(#bc)" transform="translate(1.333 1.333)"/><path d="M8 1.333A6.665 6.665 0 0114.667 8 6.665 6.665 0 018 14.667 6.665 6.665 0 011.333 8 6.665 6.665 0 018 1.333zM8 2C4.685 2 2 4.685 2 8s2.685 6 6 6 6-2.685 6-6-2.685-6-6-6z" fill="#ECBC09" fill-rule="nonzero"/><path d="M11.332 8c.364 0 .668.295.668.66-.404 1.972-1.955 3.34-4 3.34s-3.596-1.368-4-3.333C4 8.302 4.3 8 4.668 8zm-.999-2.667c.554 0 1 .447 1 1 0 .554-.446 1-1 1-.553 0-1-.446-1-1 0-.553.447-1 1-1zm-4.666 0c.553 0 1 .447 1 1 0 .554-.447 1-1 1-.554 0-1-.446-1-1 0-.553.446-1 1-1z" fill="#ECBC09"/></g></g></svg><svg width="16" height="16" viewBox="0 0 16 16" id="icon-emoji-reactions" y="16" xmlns="http://www.w3.org/2000/svg"><defs><path id="ca" d="M0 0h16v16H0z"/></defs><g fill="none" fill-rule="evenodd"><mask id="cb" fill="#fff"><use xlink:href="#ca"/></mask><g mask="url(#cb)" fill="#CCC" fill-rule="nonzero"><path d="M8 4c.24 0 .477.018.708.053a.997.997 0 00.044.686A3.999 3.999 0 004 8.667c0 2.21 1.79 4 4 4a3.999 3.999 0 003.412-6.09.994.994 0 00.488-.473 4.665 4.665 0 01-3.9 7.23 4.665 4.665 0 01-4.667-4.667A4.665 4.665 0 018 4zm2.742 4.667a.27.27 0 01.25.209l.008.062v.395c-.283 1.376-1.333 2.334-3 2.334-1.597 0-2.628-.88-2.96-2.164L5 9.333v-.395c0-.122.085-.234.199-.264l.059-.007h5.484zm-.742-2A.666.666 0 1110 8a.666.666 0 110-1.333zm-4 0A.666.666 0 116 8a.666.666 0 110-1.333zm5-4c.184 0 .333.149.333.333v1h1a.333.333 0 010 .667h-1v1a.333.333 0 11-.666 0v-1h-1a.333.333 0 010-.667h1V3c0-.184.149-.333.333-.333z"/></g></g></svg><svg width="16" height="16" viewBox="0 0 16 16" id="icon-emoji-reactions-active" x="16" y="16" xmlns="http://www.w3.org/2000/svg"><defs><linearGradient x1="50%" y1="0%" x2="50%" y2="100%" id="dc"><stop stop-color="#F6E8B2" offset="0%"/><stop stop-color="#FCE592" offset="100%"/></linearGradient><path id="da" d="M0 0h16v16H0z"/></defs><g fill="none" fill-rule="evenodd"><mask id="db" fill="#fff"><use xlink:href="#da"/></mask><g mask="url(#db)"><path d="M4.667 1.333c.24 0 .477.019.708.054a1 1 0 00.958 1.28h.334V3a1 1 0 001.9.437 4.667 4.667 0 11-3.9-2.104z" fill="url(#dc)" transform="translate(3.333 2.667)"/><path d="M8 4c.24 0 .477.018.708.053a.997.997 0 00.044.686A3.999 3.999 0 004 8.667c0 2.21 1.79 4 4 4a3.999 3.999 0 003.412-6.09.994.994 0 00.488-.473 4.665 4.665 0 01-3.9 7.23 4.665 4.665 0 01-4.667-4.667A4.665 4.665 0 018 4z" fill="#ECBC09" fill-rule="nonzero"/><path d="M11 2.667c.184 0 .333.149.333.333v1h1a.333.333 0 010 .667h-1v1a.333.333 0 11-.666 0v-1h-1a.333.333 0 010-.667h1V3c0-.184.149-.333.333-.333z" fill="#CCC" fill-rule="nonzero"/><path d="M10.742 8.667c.133 0 .258.121.258.27v.396c-.283 1.376-1.333 2.334-3 2.334s-2.717-.958-3-2.334v-.395c0-.143.115-.271.258-.271zm-.742-2A.666.666 0 1110 8a.666.666 0 110-1.333zm-4 0A.666.666 0 116 8a.666.666 0 110-1.333z" fill="#ECBC09"/></g></g></svg><svg width="16" height="16" viewBox="0 0 16 16" id="icon-gallery-photos" x="32" xmlns="http://www.w3.org/2000/svg"><defs><linearGradient x1="99.445%" y1="0%" x2=".555%" y2="100%" id="ec"><stop stop-color="#55D2F0" offset="0%"/><stop stop-color="#2BA6DE" offset="100%"/></linearGradient><linearGradient x1="100%" y1="48.204%" x2="0%" y2="51.796%" id="ed"><stop stop-color="#55D2F0" offset="0%"/><stop stop-color="#2BA6DE" offset="100%"/></linearGradient><linearGradient x1="100%" y1="48.837%" x2="0%" y2="51.163%" id="ee"><stop stop-color="#55D2F0" offset="0%"/><stop stop-color="#2BA6DE" offset="100%"/></linearGradient><linearGradient x1="100%" y1="49.186%" x2="0%" y2="50.814%" id="ef"><stop stop-color="#55D2F0" offset="0%"/><stop stop-color="#2BA6DE" offset="100%"/></linearGradient><linearGradient x1="100%" y1="18%" x2="0%" y2="82%" id="eg"><stop stop-color="#55D2F0" offset="0%"/><stop stop-color="#2BA6DE" offset="100%"/></linearGradient><linearGradient x1="50%" y1="-65.532%" x2="50%" y2="100%" id="eh"><stop stop-color="#FFF" offset="0%"/><stop stop-color="#EFEFEF" offset="100%"/></linearGradient><linearGradient x1="50%" y1="-65.532%" x2="50%" y2="100%" id="ei"><stop stop-color="#FFF" offset="0%"/><stop stop-color="#EFEFEF" offset="100%"/></linearGradient><path id="ea" d="M0 0h16v16H0z"/></defs><g fill="none" fill-rule="evenodd"><mask id="eb" fill="#fff"><use xlink:href="#ea"/></mask><g mask="url(#eb)"><g transform="translate(.32 .32)"><circle fill-opacity=".1" fill="#000" cx="7.68" cy="7.68" r="7.68"/><path d="M5.14 13.66a.08.08 0 010 .114L4.912 14l.226.226a.08.08 0 01-.113.113l-.225-.227-.227.227a.08.08 0 01-.113-.113L4.688 14l-.227-.225a.08.08 0 01.113-.113l.227.225.225-.225a.08.08 0 01.113 0zm5.18-.3a.4.4 0 110 .8.4.4 0 010-.8zm0 .16a.24.24 0 100 .48.24.24 0 000-.48zm3.877-4.843l.566.566a.399.399 0 01-.683-.283c0-.11.045-.21.117-.283zM.88 3.68a.4.4 0 110 .8.4.4 0 010-.8zm0 .16a.24.24 0 100 .48.24.24 0 000-.48zm9.52-2.48a.08.08 0 01.08.08v.16h.16a.08.08 0 110 .16h-.16v.16a.08.08 0 11-.16 0v-.16h-.16a.08.08 0 110-.16h.16v-.16a.08.08 0 01.08-.08zM3.6 0a.08.08 0 01.08.08v.16h.16a.08.08 0 110 .16h-.16v.16a.08.08 0 11-.16 0V.4h-.16a.08.08 0 110-.16h.16V.08A.08.08 0 013.6 0z" fill="url(#ec)"/><g opacity=".25"><path d="M9.6 2.56c.52 0 .966.31 1.167.753a1.274 1.274 0 00-.527-.113H5.12c-.187 0-.366.04-.526.113.2-.444.647-.753 1.166-.753H9.6z" fill="#000" opacity=".3"/><path d="M5.006.32c.286 0 .543.125.719.323L5.646.64H.526a1.3 1.3 0 00-.078.002.957.957 0 01.718-.322h3.84z" fill="url(#ed)" transform="translate(4.594 2.56)"/></g><g opacity=".5"><path d="M10.24 3.2c.52 0 .966.31 1.167.753a1.274 1.274 0 00-.527-.113h-6.4c-.187 0-.366.04-.526.113.2-.444.647-.753 1.166-.753h5.12z" fill="#000" opacity=".3"/><path d="M6.286.32c.286 0 .543.125.719.323L6.926.64h-6.4a1.3 1.3 0 00-.078.002.957.957 0 01.718-.322h5.12z" fill="url(#ee)" transform="translate(3.954 3.2)"/></g><g opacity=".75"><path d="M10.88 3.84c.52 0 .966.31 1.167.753a1.274 1.274 0 00-.527-.113H3.84c-.187 0-.366.04-.526.113.2-.444.647-.753 1.166-.753h6.4z" fill="#000" opacity=".3"/><path d="M7.566.32c.286 0 .543.125.719.323L8.206.64H.526a1.3 1.3 0 00-.078.002.957.957 0 01.718-.322h6.4z" fill="url(#ef)" transform="translate(3.314 3.84)"/></g><g transform="translate(2.56 4.48)"><path d="M1.28 0h7.68c.707 0 1.28.573 1.28 1.28v5.76a1.28 1.28 0 01-1.28 1.28H1.28A1.28 1.28 0 010 7.04V1.28C0 .573.573 0 1.28 0z" fill="#000" opacity=".3"/><rect fill="url(#eg)" x=".32" y=".32" width="9.6" height="7.68" rx=".96"/><path d="M6.4 5.44l1.08-1.08a.32.32 0 01.423-.025L9.614 5.68a.8.8 0 01.306.629v.731c0 .53-.43.96-.96.96L6.4 5.44z" fill="url(#eh)" opacity=".5"/><path d="M.32 7.04v-.949a.8.8 0 01.234-.565l2.74-2.74a.32.32 0 01.452 0L8.96 8H1.28a.96.96 0 01-.96-.96z" fill="url(#ei)"/><circle fill="#FFF" cx="5.92" cy="2.08" r="1"/></g></g></g></g></svg><svg width="16" height="16" viewBox="0 0 16 16" id="icon-gif-rest" x="32" y="16" xmlns="http://www.w3.org/2000/svg"><defs><path id="fa" d="M0 0h16v16H0z"/><path d="M6.896 6.612l-.622.617a1.254 1.254 0 00-.867-.33c-.617 0-1.018.368-1.018 1.11 0 .486.255 1.087 1.018 1.087.2 0 .515-.038.731-.195v-.487H5.18v-.839h1.852v1.683c-.239.482-.9.742-1.63.742-1.5 0-2.069-1.001-2.069-1.992 0-.99.65-2.008 2.074-2.008.525 0 .991.108 1.49.612zm1.951 3.285H7.781V6.108h1.066v3.79zm1.973 0H9.76V6.108h2.908v.899H10.82v.709h1.733v.877H10.82v1.304z" id="fc"/></defs><g fill="none" fill-rule="evenodd"><mask id="fb" fill="#fff"><use xlink:href="#fa"/></mask><g mask="url(#fb)"><path d="M2.667 1.333h10.666c.737 0 1.334.597 1.334 1.334v10.666c0 .737-.597 1.334-1.334 1.334H2.667a1.333 1.333 0 01-1.334-1.334V2.667c0-.737.597-1.334 1.334-1.334z" fill="#CCC"/><use fill="#FFF" xlink:href="#fc"/></g></g></svg><svg width="16" height="16" viewBox="0 0 16 16" id="icon-handset" y="32" xmlns="http://www.w3.org/2000/svg"><defs><path id="ga" d="M0 0h16v16H0z"/><path d="M5.518 10.482c-1.305-1.305-2.22-2.857-3.105-4.47-.832-1.522-.382-2.894 1.132-3.802.533-.322.975-.285 1.373.188.187.232.885 1.072 1.065 1.312.57.735.577 1.185-.465 2.213-.435.427-.33.974 0 1.304l3.255 3.255c.33.33.877.435 1.304 0 1.028-1.042 1.478-1.035 2.213-.465.24.18 1.08.878 1.312 1.065.473.398.51.84.188 1.373-.908 1.514-2.28 1.964-3.803 1.132-1.612-.885-3.164-1.8-4.47-3.105z" id="gc"/></defs><g fill="none" fill-rule="evenodd"><mask id="gb" fill="#fff"><use xlink:href="#ga"/></mask><g mask="url(#gb)"><use fill="#CCC" xlink:href="#gc"/></g></g></svg><svg width="16" height="16" viewBox="0 0 16 16" id="icon-handset-cancelled" x="16" y="32" xmlns="http://www.w3.org/2000/svg"><defs><path id="ha" d="M0 0h16v16H0z"/></defs><g fill="none" fill-rule="evenodd"><mask id="hb" fill="#fff"><use xlink:href="#ha"/></mask><g mask="url(#hb)" fill-rule="nonzero"><path d="M7.752 9.461l1.02 1.021c.33.33.878.435 1.305 0 .997-1.01 1.45-1.034 2.147-.515l.19.147.589.477.6.491c.472.398.51.84.187 1.373-.908 1.514-2.28 1.964-3.803 1.132-1.36-.747-2.677-1.515-3.84-2.52l1.605-1.606zM4.918 2.398l.75.917.218.27.097.125c.57.735.577 1.185-.465 2.213-.435.427-.33.974 0 1.304l.52.52-1.555 1.556c-.793-1.021-1.439-2.14-2.07-3.29-.832-1.523-.382-2.895 1.132-3.803.533-.322.975-.285 1.373.188z" fill="#CCC"/><path d="M12.107 3.354a.5.5 0 010 .707L2.56 13.607a.5.5 0 11-.707-.708l9.545-9.545a.5.5 0 01.708 0z" fill="#FF6560"/></g></g></svg><svg width="16" height="16" viewBox="0 0 16 16" id="icon-handset-ended" x="32" y="32" xmlns="http://www.w3.org/2000/svg"><defs><path id="ia" d="M0 0h16v16H0z"/><path d="M8 5.49c1.628 0 3.178.35 4.733.786l.623.179c1.665.488 2.317 1.776 1.888 3.489-.149.605-.488.89-1.103.838l-1.18-.118-.344-.037-.24-.031-.154-.026c-.742-.146-1.008-.526-.999-1.856.005-.61-.456-.923-.923-.923H5.7c-.467 0-.928.313-.923.923.01 1.33-.257 1.71-.999 1.856l-.154.026-.152.02-.433.048-1.179.118c-.615.053-.954-.233-1.103-.838-.43-1.713.223-3.001 1.888-3.49l.623-.178c1.451-.406 2.898-.74 4.408-.782L8 5.49z" id="ic"/></defs><g fill="none" fill-rule="evenodd"><mask id="ib" fill="#fff"><use xlink:href="#ia"/></mask><g mask="url(#ib)"><use fill="#CCC" xlink:href="#ic"/></g></g></svg><svg width="16" height="16" viewBox="0 0 16 16" id="icon-handset-failed" x="48" xmlns="http://www.w3.org/2000/svg"><defs><path id="ja" d="M0 0h16v16H0z"/></defs><g fill="none" fill-rule="evenodd"><mask id="jb" fill="#fff"><use xlink:href="#ja"/></mask><g mask="url(#jb)" fill-rule="nonzero"><path d="M12.694 2.605a.5.5 0 01.66.749L12.207 4.5l1.147 1.146a.5.5 0 01-.66.75l-.048-.042L11.5 5.207l-1.146 1.147-.048.041a.5.5 0 01-.66-.749L10.793 4.5 9.646 3.354a.5.5 0 01.66-.75l.048.042L11.5 3.793l1.146-1.147z" fill="#FF6560"/><path d="M5.518 10.482c-1.305-1.305-2.22-2.857-3.105-4.47-.832-1.522-.382-2.894 1.132-3.802.533-.322.975-.285 1.373.188.187.232.885 1.072 1.065 1.312.57.735.577 1.185-.465 2.213-.435.427-.33.974 0 1.304l3.255 3.255c.33.33.877.435 1.304 0 1.028-1.042 1.478-1.035 2.213-.465.24.18 1.08.878 1.312 1.065.473.398.51.84.188 1.373-.908 1.514-2.28 1.964-3.803 1.132-1.612-.885-3.164-1.8-4.47-3.105z" fill="#CCC"/></g></g></svg><svg width="16" height="16" viewBox="0 0 16 16" id="icon-handset-incoming" x="48" y="16" xmlns="http://www.w3.org/2000/svg"><defs><path id="ka" d="M0 0h16v16H0z"/></defs><g fill="none" fill-rule="evenodd"><mask id="kb" fill="#fff"><use xlink:href="#ka"/></mask><g mask="url(#kb)" fill-rule="nonzero"><path d="M9.055 7.194a.5.5 0 01-.5-.5V4.867a.5.5 0 01.5-.5h.061a.5.5 0 01.5.5v.56l2.121-2.12a.5.5 0 01.708.706l-2.122 2.122h.561a.5.5 0 01.5.5v.06a.5.5 0 01-.5.5H9.055z" fill="#81CFB3"/><path d="M5.518 10.482c-1.305-1.305-2.22-2.857-3.105-4.47-.832-1.522-.382-2.894 1.132-3.802.533-.322.975-.285 1.373.188.187.232.885 1.072 1.065 1.312.57.735.577 1.185-.465 2.213-.435.427-.33.974 0 1.304l3.255 3.255c.33.33.877.435 1.304 0 1.028-1.042 1.478-1.035 2.213-.465.24.18 1.08.878 1.312 1.065.473.398.51.84.188 1.373-.908 1.514-2.28 1.964-3.803 1.132-1.612-.885-3.164-1.8-4.47-3.105z" fill="#CCC"/></g></g></svg><svg width="16" height="16" viewBox="0 0 16 16" id="icon-handset-missed" x="48" y="32" xmlns="http://www.w3.org/2000/svg"><defs><path id="la" d="M0 0h16v16H0z"/></defs><g fill="none" fill-rule="evenodd"><mask id="lb" fill="#fff"><use xlink:href="#la"/></mask><g mask="url(#lb)"><path d="M8 8.49c1.628 0 3.178.35 4.733.786l.623.179c1.665.488 2.317 1.776 1.888 3.489-.149.605-.488.89-1.103.838l-1.18-.118-.344-.037-.24-.031-.154-.026c-.742-.146-1.008-.526-.999-1.856.005-.61-.456-.923-.923-.923H5.7c-.467 0-.928.313-.923.923.01 1.33-.257 1.71-.999 1.856l-.154.026-.152.02-.433.048-1.179.118c-.615.053-.954-.233-1.103-.838-.43-1.713.223-3.001 1.888-3.49l.623-.178c1.451-.406 2.898-.74 4.408-.782L8 8.49z" fill="#CCC"/><path d="M9.5 2.5h2l.038.001.062.01.056.014.056.022.048.026.049.033.045.04a.505.505 0 01.048.056l.036.056.026.056.018.053.015.074L12 3v2a.5.5 0 11-1 0v-.793L8.354 6.854a.5.5 0 01-.66.041l-.048-.041-2.5-2.5a.5.5 0 01.66-.75l.048.042L8 5.793 10.292 3.5H9.5a.5.5 0 010-1z" fill="#FFBE00"/></g></g></svg><svg width="16" height="16" viewBox="0 0 16 16" id="icon-handset-outgoing" y="48" xmlns="http://www.w3.org/2000/svg"><defs><path id="ma" d="M0 0h16v16H0z"/></defs><g fill="none" fill-rule="evenodd"><mask id="mb" fill="#fff"><use xlink:href="#ma"/></mask><g mask="url(#mb)" fill-rule="nonzero"><path d="M12.945 3.805a.5.5 0 00-.5-.5h-1.829a.5.5 0 00-.5.5v.061a.5.5 0 00.5.5h.56l-2.12 2.121a.5.5 0 00.707.707l2.12-2.12v.56a.5.5 0 00.5.5h.062a.5.5 0 00.5-.5v-1.83z" fill="#6FD7FF"/><path d="M5.518 10.482c-1.305-1.305-2.22-2.857-3.105-4.47-.832-1.522-.382-2.894 1.132-3.802.533-.322.975-.285 1.373.188.187.232.885 1.072 1.065 1.312.57.735.577 1.185-.465 2.213-.435.427-.33.974 0 1.304l3.255 3.255c.33.33.877.435 1.304 0 1.028-1.042 1.478-1.035 2.213-.465.24.18 1.08.878 1.312 1.065.473.398.51.84.188 1.373-.908 1.514-2.28 1.964-3.803 1.132-1.612-.885-3.164-1.8-4.47-3.105z" fill="#CCC"/></g></g></svg><svg width="16" height="16" viewBox="0 0 16 16" id="icon-handset-rejected" x="16" y="48" xmlns="http://www.w3.org/2000/svg"><defs><path id="na" d="M0 0h16v16H0z"/></defs><g fill="none" fill-rule="evenodd"><mask id="nb" fill="#fff"><use xlink:href="#na"/></mask><g mask="url(#nb)" fill-rule="nonzero"><path d="M11.5 2a2.5 2.5 0 110 5 2.5 2.5 0 010-5zm1.354 1.853l-2 2a1.5 1.5 0 002-2zM11.5 3a1.5 1.5 0 00-1.354 2.147l2-2A1.494 1.494 0 0011.5 3z" fill="#FF6560"/><path d="M5.518 10.482c-1.305-1.305-2.22-2.857-3.105-4.47-.832-1.522-.382-2.894 1.132-3.802.533-.322.975-.285 1.373.188.187.232.885 1.072 1.065 1.312.57.735.577 1.185-.465 2.213-.435.427-.33.974 0 1.304l3.255 3.255c.33.33.877.435 1.304 0 1.028-1.042 1.478-1.035 2.213-.465.24.18 1.08.878 1.312 1.065.473.398.51.84.188 1.373-.908 1.514-2.28 1.964-3.803 1.132-1.612-.885-3.164-1.8-4.47-3.105z" fill="#CCC"/></g></g></svg><svg width="16" height="16" viewBox="0 0 16 16" id="icon-image-zoom-in" x="32" y="48" xmlns="http://www.w3.org/2000/svg"><defs><linearGradient x1="50%" y1="0%" x2="50%" y2="100%" id="oc"><stop stop-color="#FFF" offset="0%"/><stop stop-color="#FAFAFA" offset="100%"/></linearGradient><linearGradient x1="50%" y1="0%" x2="50%" y2="97.5%" id="oe"><stop stop-color="#333" offset="0%"/><stop stop-color="#2F2F2F" offset="100%"/></linearGradient><path id="oa" d="M0 0h16v16H0z"/><path d="M.667 0h8c.368 0 .666.298.666.667V8a.667.667 0 01-.666.667h-8A.667.667 0 010 8V.667C0 .298.298 0 .667 0z" id="od"/></defs><g fill="none" fill-rule="evenodd"><mask id="ob" fill="#fff"><use xlink:href="#oa"/></mask><g mask="url(#ob)" opacity=".8"><path d="M12.667 2c.368 0 .666.298.666.667v10.666a.667.667 0 01-.666.667H3.333a.667.667 0 01-.666-.667V2.667c0-.369.298-.667.666-.667h9.334zm0 .333H3.333c-.163 0-.3.118-.328.274L3 2.667v10.666c0 .164.118.3.273.328l.06.006h9.334c.163 0 .3-.118.328-.274l.005-.06V2.667c0-.164-.118-.3-.273-.328l-.06-.006z" fill-opacity=".05" fill="#000" fill-rule="nonzero"/><path d="M.667 0H10c.368 0 .667.298.667.667v10.666A.667.667 0 0110 12H.667A.667.667 0 010 11.333V.667C0 .298.298 0 .667 0z" fill="url(#oc)" transform="translate(2.667 2)"/><g transform="translate(3.333 2.667)"><mask id="of" fill="#fff"><use xlink:href="#od"/></mask><use fill="url(#oe)" xlink:href="#od"/><path d="M4.667 6.667L7 4.333 9.333 6 6.667 8.667H5.333A.667.667 0 014.667 8V6.667z" fill-opacity=".5" fill="#FFF" mask="url(#of)" transform="matrix(-1 0 0 1 14 0)"/><path d="M5.333 2.667l2 2.666V8a.667.667 0 01-.666.667H0l5.333-6z" fill-opacity=".8" fill="#FFF" mask="url(#of)" transform="matrix(-1 0 0 1 7.333 0)"/><circle fill="#FFF" mask="url(#of)" cx="6" cy="2" r="1.333"/></g></g></g></svg><svg width="16" height="16" viewBox="0 0 16 16" id="icon-image-zoom-out" x="48" y="48" xmlns="http://www.w3.org/2000/svg"><defs><linearGradient x1="50%" y1="0%" x2="50%" y2="100%" id="pc"><stop stop-color="#FFF" offset="0%"/><stop stop-color="#FAFAFA" offset="100%"/></linearGradient><linearGradient x1="50%" y1="0%" x2="50%" y2="97.5%" id="pe"><stop stop-color="#333" offset="0%"/><stop stop-color="#2F2F2F" offset="100%"/></linearGradient><path id="pa" d="M0 0h16v16H0z"/><path d="M.667 0H6c.368 0 .667.298.667.667V6A.667.667 0 016 6.667H.667A.667.667 0 010 6V.667C0 .298.298 0 .667 0z" id="pd"/></defs><g fill="none" fill-rule="evenodd"><mask id="pb" fill="#fff"><use xlink:href="#pa"/></mask><g mask="url(#pb)" opacity=".8"><path d="M7.333.25l.417 8.417-7.083.416L.25.667 7.333.25z" stroke-opacity=".05" stroke="#000" stroke-width=".5" fill="url(#pc)" transform="translate(4 3.333)"/><path d="M.667 0h6.666C7.702 0 8 .298 8 .667v8a.667.667 0 01-.667.666H.667A.667.667 0 010 8.667v-8C0 .298.298 0 .667 0z" fill="url(#pc)" transform="translate(4 3.333)"/><g transform="translate(4.667 4)"><mask id="pf" fill="#fff"><use xlink:href="#pd"/></mask><use fill="url(#pe)" xlink:href="#pd"/><path d="M4 5.333l1.667-1.666 1.666 1.666-2 2h-.666A.667.667 0 014 6.667V5.333z" fill-opacity=".5" fill="#FFF" mask="url(#pf)" transform="matrix(-1 0 0 1 11.333 0)"/><path d="M4 2l2 2v2.667a.667.667 0 01-.667.666h-6L4 2z" fill-opacity=".8" fill="#FFF" mask="url(#pf)" transform="matrix(-1 0 0 1 5.333 0)"/><circle fill="#FFF" mask="url(#pf)" cx="4.333" cy="1.667" r="1"/></g></g></g></svg><svg width="16" height="16" viewBox="0 0 16 16" id="icon-loading-spinner" x="64" xmlns="http://www.w3.org/2000/svg"><defs><path id="qa" d="M0 0h16v16H0z"/></defs><g fill="none" fill-rule="evenodd"><mask id="qb" fill="#fff"><use xlink:href="#qa"/></mask><g mask="url(#qb)" fill="#FFF"><rect fill-opacity=".5" x="7.333" y="1.333" width="1.333" height="4" rx=".667"/><rect fill-opacity=".7" transform="rotate(45 11.3 4.7)" x="10.633" y="2.7" width="1.333" height="4" rx=".667"/><rect fill-opacity=".9" transform="rotate(90 12.667 8)" x="12" y="6" width="1.333" height="4" rx=".667"/><rect fill-opacity=".2" transform="rotate(135 11.3 11.3)" x="10.633" y="9.3" width="1.333" height="4" rx=".667"/><rect fill-opacity=".2" transform="rotate(180 8 12.667)" x="7.333" y="10.667" width="1.333" height="4" rx=".667"/><rect fill-opacity=".2" transform="rotate(-135 4.7 11.3)" x="4.034" y="9.3" width="1.333" height="4" rx=".667"/><rect fill-opacity=".2" transform="rotate(-90 3.333 8)" x="2.667" y="6" width="1.333" height="4" rx=".667"/><rect fill-opacity=".2" transform="rotate(-45 4.7 4.7)" x="4.034" y="2.7" width="1.333" height="4" rx=".667"/></g></g></svg><svg width="16" height="16" viewBox="0 0 16 16" id="icon-notifications" x="64" y="16" xmlns="http://www.w3.org/2000/svg"><defs><linearGradient x1="50%" y1="0%" x2="50%" y2="97.5%" id="ra"><stop stop-color="#F9EB9E" offset="0%"/><stop stop-color="#F7E380" offset="100%"/></linearGradient></defs><g fill="none" fill-rule="evenodd"><g transform="translate(2 1.333)" fill-rule="nonzero"><circle fill="#EFC717" cx="6" cy="10.667" r="2"/><circle fill="#EFC717" cx="6" cy=".667" r="1"/><path d="M.39 8.276L2 6.666v-2a4 4 0 118 0v2l1.61 1.61c.25.25.39.59.39.943V10c0 .736-.597 1.333-1.333 1.333H1.333A1.333 1.333 0 010 10v-.781c0-.354.14-.693.39-.943z" fill="url(#ra)"/><path fill-opacity=".3" fill="#EBC01E" d="M2 6.667h8v.666H2zM.667 8.667h10.666v.666H.667z"/><path d="M6 .667a4 4 0 014 4v2l1.61 1.61c.25.25.39.588.39.942V10c0 .736-.597 1.333-1.333 1.333H1.333A1.333 1.333 0 010 10v-.781c0-.354.14-.693.39-.943L2 6.666v-2a4 4 0 014-4zm0 .666a3.333 3.333 0 00-3.33 3.19l-.003.144v2.276L.862 8.748a.667.667 0 00-.19.383l-.005.088V10c0 .342.257.624.589.662l.077.005h9.334a.667.667 0 00.662-.59l.004-.077v-.781a.667.667 0 00-.137-.405l-.058-.066-1.805-1.805V4.667A3.333 3.333 0 006 1.333z" fill="#FDF8CC"/><path fill-opacity=".5" fill="#FCF3B8" style="mix-blend-mode:screen" d="M.667 8.667L2 7.333h8l1.333 1.334z"/></g><path d="M0 0h16v16H0z"/></g></svg><svg width="16" height="16" viewBox="0 0 16 16" id="icon-notifications-muted" x="64" y="32" xmlns="http://www.w3.org/2000/svg"><defs><linearGradient x1="50%" y1="0%" x2="50%" y2="97.5%" id="sa"><stop stop-color="#F9EB9E" offset="0%"/><stop stop-color="#F7E380" offset="100%"/></linearGradient></defs><g fill="none" fill-rule="evenodd"><g fill-rule="nonzero"><g transform="translate(2 1.333)"><circle fill="#EFC717" cx="6" cy="10.667" r="2"/><circle fill="#EFC717" cx="6" cy=".667" r="1"/><path d="M.39 8.276L2 6.666v-2a4 4 0 118 0v2l1.61 1.61c.25.25.39.59.39.943V10c0 .736-.597 1.333-1.333 1.333H1.333A1.333 1.333 0 010 10v-.781c0-.354.14-.693.39-.943z" fill="url(#sa)"/><path fill-opacity=".3" fill="#EBC01E" d="M.667 8.667h10.666v.666H.667zM2 6.667h8v.666H2z"/><path d="M6 .667a4 4 0 014 4v2l1.61 1.61c.25.25.39.588.39.942V10c0 .736-.597 1.333-1.333 1.333H1.333A1.333 1.333 0 010 10v-.781c0-.354.14-.693.39-.943L2 6.666v-2a4 4 0 014-4zm0 .666a3.333 3.333 0 00-3.33 3.19l-.003.144v2.276L.862 8.748a.667.667 0 00-.19.383l-.005.088V10c0 .342.257.624.589.662l.077.005h9.334a.667.667 0 00.662-.59l.004-.077v-.781a.667.667 0 00-.137-.405l-.058-.066-1.805-1.805V4.667A3.333 3.333 0 006 1.333z" fill="#FDF8CC"/><path fill-opacity=".5" fill="#FCF3B8" style="mix-blend-mode:screen" d="M.667 8.667L2 7.333h8l1.333 1.334z"/></g><path fill="#EFC717" d="M4 12.667h2l6-6v-2z"/><path d="M14.128 1.872c.26.26.26.682 0 .943L2.815 14.128a.667.667 0 01-.943-.943L13.185 1.872c.26-.26.683-.26.943 0z" fill-opacity=".7" fill="#F0373A"/></g><path d="M0 0h16v16H0z"/></g></svg><svg width="16" height="16" viewBox="0 0 16 16" id="icon-question-grey" x="64" y="48" xmlns="http://www.w3.org/2000/svg"><g fill="none" fill-rule="evenodd"><g><circle fill="#444" cx="8" cy="8" r="8"/><path d="M6 4.797c.123-.109.257-.212.404-.31a2.898 2.898 0 011.027-.425C7.63 4.021 7.845 4 8.076 4c.314 0 .6.043.859.13.258.087.48.21.664.371.184.161.327.355.428.583.101.228.152.482.152.764 0 .275-.04.512-.12.713-.079.2-.178.375-.297.523-.12.148-.25.276-.393.385l-.404.306a3.17 3.17 0 00-.328.282.557.557 0 00-.165.312l-.125.79H7.43l-.092-.883a.718.718 0 01.073-.447 1.36 1.36 0 01.282-.352c.117-.107.248-.21.393-.309.144-.1.28-.208.406-.325.127-.118.232-.25.317-.396.085-.146.128-.32.128-.523a.79.79 0 00-.276-.615.911.911 0 00-.312-.17 1.253 1.253 0 00-.393-.06 1.75 1.75 0 00-.887.22c-.099.055-.183.106-.252.15a.346.346 0 01-.184.069.296.296 0 01-.282-.163L6 4.797zm1.024 6.39a.834.834 0 01.233-.58.82.82 0 01.586-.238c.115 0 .223.021.322.065a.798.798 0 01.436.434.803.803 0 01.066.319.797.797 0 01-.242.58.823.823 0 01-.582.233.848.848 0 01-.325-.062.785.785 0 01-.494-.751z" fill="#E6E6E6" fill-rule="nonzero"/></g><path d="M0 0h16v16H0z"/></g></svg><svg width="16" height="16" viewBox="0 0 16 16" id="icon-settings" y="64" xmlns="http://www.w3.org/2000/svg"><defs><linearGradient x1="50%" y1="96.654%" x2="50%" y2="0%" id="ua"><stop stop-color="#A8A8A8" offset="0%"/><stop stop-color="#B3B3B3" offset="100%"/></linearGradient></defs><g fill="none" fill-rule="evenodd"><path d="M7.667 9.333a1.667 1.667 0 11.11-.003l-.11.003zm5-1.666c0-.553-.45-1-1-1h-.474a3.79 3.79 0 00-.326-.787l.336-.336a.998.998 0 00.07-1.338l-.07-.076a1.002 1.002 0 00-1.414 0l-.336.337a3.79 3.79 0 00-.786-.327v-.474a.997.997 0 00-.903-.995l-.097-.004c-.553 0-1 .45-1 .999v.474c-.277.08-.54.19-.787.327l-.336-.336a.998.998 0 00-1.338-.07l-.076.069a1.002 1.002 0 000 1.414l.337.336a3.79 3.79 0 00-.327.787h-.474a.997.997 0 00-.995.903l-.004.097c0 .552.45 1 .999 1h.474c.08.276.19.54.327.786l-.336.336a.998.998 0 00-.07 1.338l.069.076c.39.39 1.025.388 1.414 0l.336-.336c.247.136.51.246.787.326v.475c0 .519.393.946.903.994l.097.005c.552 0 1-.45 1-1v-.474c.276-.08.54-.19.786-.326l.336.336a.998.998 0 001.338.07l.076-.07c.39-.39.389-1.025 0-1.414l-.336-.336a3.79 3.79 0 00.326-.786h.475c.519 0 .946-.394.994-.903l.005-.097z" fill="url(#ua)"/><path d="M0 0h16v16H0z"/></g></svg><svg width="16" height="16" viewBox="0 0 16 16" id="icon-stripe" x="16" y="64" xmlns="http://www.w3.org/2000/svg"><g fill="none" fill-rule="evenodd"><path d="M0 0h16v16H0z"/><path d="M9.988 6.318c.519 0 1.008.492 1.01 1.395 0 .988-.482 1.437-1.013 1.437a.811.811 0 01-.524-.197l-.003.882-.741.165V6.368h.652l.038.193c.104-.1.29-.243.581-.243zM5.42 5.695l-.003.676h.563v.663h-.563V8.14c0 .461.468.318.563.277v.633c-.098.056-.275.103-.518.103-.439 0-.768-.34-.768-.801l.003-2.495.723-.162zm-1.75.623c.245 0 .488.04.734.143v.732c-.225-.128-.51-.2-.735-.2-.157 0-.252.047-.252.169 0 .349 1.13.184 1.132 1.112 0 .558-.424.879-1.04.879-.255 0-.533-.053-.809-.178v-.741c.25.143.563.249.81.249.165 0 .284-.047.284-.19 0-.37-1.126-.234-1.126-1.094 0-.551.4-.881 1.001-.881zm8.595 0c.702 0 1.07.629 1.07 1.427 0 .074-.007.236-.007.277H11.88c.032.367.287.473.574.473.294 0 .525-.065.726-.171v.623a1.588 1.588 0 01-.82.203c-.723 0-1.227-.474-1.227-1.412 0-.791.427-1.42 1.132-1.42zM8.44 6.37v2.726h-.743V6.37h.743zm-1.54.23c.175-.336.521-.268.616-.23v.716c-.092-.034-.388-.078-.563.162v1.848h-.74V6.37h.64zm2.91.408a.431.431 0 00-.353.153l.003 1.156a.433.433 0 00.35.146c.272 0 .456-.311.456-.729 0-.408-.187-.726-.457-.726zm2.45-.059c-.187 0-.391.147-.391.499h.764c0-.352-.193-.499-.373-.499zM8.44 5.333v.633l-.743.168v-.636l.743-.165z" fill="#FFF"/></g></svg></svg>