<?xml version="1.0" encoding="UTF-8"?><svg width="32" height="32" viewBox="0 0 32 32" xmlns="http://www.w3.org/2000/svg" xmlns:xlink="http://www.w3.org/1999/xlink"><svg width="16" height="16" viewBox="0 0 16 16" id="icon-notifications" xmlns="http://www.w3.org/2000/svg"><defs><linearGradient x1="50%" y1="0%" x2="50%" y2="97.5%" id="aa"><stop stop-color="#F9EB9E" offset="0%"/><stop stop-color="#F7E380" offset="100%"/></linearGradient></defs><g transform="translate(2 1.833)" fill-rule="nonzero" fill="none"><circle fill="#EFC717" cx="6" cy="10.667" r="2"/><circle fill="#EFC717" cx="6" cy=".667" r="1"/><path d="M.39 8.276L2 6.666v-2a4 4 0 118 0v2l1.61 1.61c.25.25.39.59.39.943V10c0 .736-.597 1.333-1.333 1.333H1.333A1.333 1.333 0 010 10v-.781c0-.354.14-.693.39-.943z" fill="url(#aa)"/><path fill-opacity=".3" fill="#EBC01E" d="M2 6.667h8v.666H2zM.667 8.667h10.666v.666H.667z"/><path d="M6 .667a4 4 0 014 4v2l1.61 1.61c.25.25.39.588.39.942V10c0 .736-.597 1.333-1.333 1.333H1.333A1.333 1.333 0 010 10v-.781c0-.354.14-.693.39-.943L2 6.666v-2a4 4 0 014-4zm0 .666a3.333 3.333 0 00-3.33 3.19l-.003.144v2.276L.862 8.748a.667.667 0 00-.19.383l-.005.088V10c0 .342.257.624.589.662l.077.005h9.334a.667.667 0 00.662-.59l.004-.077v-.781a.667.667 0 00-.137-.405l-.058-.066-1.805-1.805V4.667A3.333 3.333 0 006 1.333z" fill="#FDF8CC"/><path fill-opacity=".5" fill="#FCF3B8" style="mix-blend-mode:screen" d="M.667 8.667L2 7.333h8l1.333 1.334z"/></g></svg><svg width="16" height="16" viewBox="0 0 16 16" id="icon-notifications-muted" x="16" xmlns="http://www.w3.org/2000/svg"><defs><linearGradient x1="50%" y1="0%" x2="50%" y2="97.5%" id="ba"><stop stop-color="#F9EB9E" offset="0%"/><stop stop-color="#F7E380" offset="100%"/></linearGradient></defs><g fill-rule="nonzero" fill="none"><g transform="translate(2 1.333)"><circle fill="#EFC717" cx="6" cy="10.667" r="2"/><circle fill="#EFC717" cx="6" cy=".667" r="1"/><path d="M.39 8.276L2 6.666v-2a4 4 0 118 0v2l1.61 1.61c.25.25.39.59.39.943V10c0 .736-.597 1.333-1.333 1.333H1.333A1.333 1.333 0 010 10v-.781c0-.354.14-.693.39-.943z" fill="url(#ba)"/><path fill-opacity=".3" fill="#EBC01E" d="M.667 8.667h10.666v.666H.667zM2 6.667h8v.666H2z"/><path d="M6 .667a4 4 0 014 4v2l1.61 1.61c.25.25.39.588.39.942V10c0 .736-.597 1.333-1.333 1.333H1.333A1.333 1.333 0 010 10v-.781c0-.354.14-.693.39-.943L2 6.666v-2a4 4 0 014-4zm0 .666a3.333 3.333 0 00-3.33 3.19l-.003.144v2.276L.862 8.748a.667.667 0 00-.19.383l-.005.088V10c0 .342.257.624.589.662l.077.005h9.334a.667.667 0 00.662-.59l.004-.077v-.781a.667.667 0 00-.137-.405l-.058-.066-1.805-1.805V4.667A3.333 3.333 0 006 1.333z" fill="#FDF8CC"/><path fill-opacity=".5" fill="#FCF3B8" style="mix-blend-mode:screen" d="M.667 8.667L2 7.333h8l1.333 1.334z"/></g><path fill="#EFC717" d="M4 12.667h2l6-6v-2z"/><path d="M14.128 1.872c.26.26.26.682 0 .943L2.815 14.128a.667.667 0 01-.943-.943L13.185 1.872c.26-.26.683-.26.943 0z" fill-opacity=".7" fill="#F0373A"/></g></svg><svg width="16" height="16" viewBox="0 0 16 16" id="icon-settings" y="16" xmlns="http://www.w3.org/2000/svg"><defs><linearGradient x1="50%" y1="97.5%" x2="50%" y2="0%" id="ca"><stop stop-color="#A8A8A8" offset="0%"/><stop stop-color="#B3B3B3" offset="100%"/></linearGradient></defs><path d="M7.667 9.333a1.667 1.667 0 11.11-.003l-.11.003zm5-1.666c0-.553-.45-1-1-1h-.474a3.79 3.79 0 00-.326-.787l.336-.336a.998.998 0 00.07-1.338l-.07-.076a1.002 1.002 0 00-1.414 0l-.336.337a3.79 3.79 0 00-.786-.327v-.474a.997.997 0 00-.903-.995l-.097-.004c-.553 0-1 .45-1 .999v.474c-.277.08-.54.19-.787.327l-.336-.336a.998.998 0 00-1.338-.07l-.076.069a1.002 1.002 0 000 1.414l.337.336a3.79 3.79 0 00-.327.787h-.474a.997.997 0 00-.995.903l-.004.097c0 .552.45 1 .999 1h.474c.08.276.19.54.327.786l-.336.336a.998.998 0 00-.07 1.338l.069.076c.39.39 1.025.388 1.414 0l.336-.336c.247.136.51.246.787.326v.475c0 .519.393.946.903.994l.097.005c.552 0 1-.45 1-1v-.474c.276-.08.54-.19.786-.326l.336.336a.998.998 0 001.338.07l.076-.07c.39-.39.389-1.025 0-1.414l-.336-.336a3.79 3.79 0 00.326-.786h.475c.519 0 .946-.394.994-.903l.005-.097z" transform="translate(.5 .5)" fill="url(#ca)" fill-rule="evenodd"/></svg></svg>