<?xml version="1.0" encoding="UTF-8"?><svg width="32" height="32" viewBox="0 0 32 32" xmlns="http://www.w3.org/2000/svg" xmlns:xlink="http://www.w3.org/1999/xlink"><svg width="16" height="16" viewBox="0 0 16 16" id="icon-notifications" xmlns="http://www.w3.org/2000/svg"><defs><linearGradient x1="50%" y1="0%" x2="50%" y2="100%" id="aa"><stop stop-color="#F8E9B1" offset="0%"/><stop stop-color="#F5DF8E" offset="100%"/></linearGradient></defs><g transform="translate(0 .5)" fill-rule="nonzero" fill="none"><circle fill="#EBC01E" cx="8" cy="12" r="2"/><circle fill="#EBC01E" cx="8" cy="2" r="1"/><path d="M2.39 9.61L4 8V6a4 4 0 118 0v2l1.61 1.61c.25.25.39.589.39.942v.781c0 .737-.597 1.334-1.333 1.334H3.333A1.333 1.333 0 012 11.333v-.78c0-.354.14-.693.39-.944z" fill="url(#aa)"/><path fill-opacity=".6" fill="#F8E9B1" style="mix-blend-mode:screen" d="M2.667 10L4 8.667h8L13.333 10z"/><path d="M8 2a4 4 0 014 4v2l1.61 1.61c.25.25.39.589.39.942v.781c0 .737-.597 1.334-1.333 1.334H3.333A1.333 1.333 0 012 11.333v-.78c0-.354.14-.693.39-.944L4 8V6a4 4 0 014-4zm0 .667a3.333 3.333 0 00-3.33 3.188L4.667 6v2.276l-1.805 1.805a.667.667 0 00-.19.384l-.005.087v.781c0 .342.257.624.589.663l.077.004h9.334a.667.667 0 00.662-.589l.004-.078v-.78a.667.667 0 00-.137-.406l-.058-.066-1.805-1.805V6A3.333 3.333 0 008 2.667z" fill="#EBC01E"/><path fill-opacity=".3" fill="#EBC01E" d="M2.667 10h10.666v.667H2.667zM4 8h8v.667H4z"/></g></svg><svg width="16" height="16" viewBox="0 0 16 16" id="icon-notifications-muted" x="16" xmlns="http://www.w3.org/2000/svg"><defs><linearGradient x1="50%" y1="0%" x2="50%" y2="100%" id="ba"><stop stop-color="#F8E9B1" offset="0%"/><stop stop-color="#F5DF8E" offset="100%"/></linearGradient></defs><g fill-rule="nonzero" fill="none"><circle fill="#EBC01E" cx="8" cy="12" r="2"/><circle fill="#EBC01E" cx="8" cy="2" r="1"/><path d="M2.39 9.61L4 8V6a4 4 0 118 0v2l1.61 1.61c.25.25.39.589.39.942v.781c0 .737-.597 1.334-1.333 1.334H3.333A1.333 1.333 0 012 11.333v-.78c0-.354.14-.693.39-.944z" fill="url(#ba)"/><path fill-opacity=".6" fill="#F8E9B1" style="mix-blend-mode:screen" d="M2.667 10L4 8.667h8L13.333 10z"/><path d="M8 2a4 4 0 014 4v2l1.61 1.61c.25.25.39.589.39.942v.781c0 .737-.597 1.334-1.333 1.334H3.333A1.333 1.333 0 012 11.333v-.78c0-.354.14-.693.39-.944L4 8V6a4 4 0 014-4zm0 .667a3.333 3.333 0 00-3.33 3.188L4.667 6v2.276l-1.805 1.805a.667.667 0 00-.19.384l-.005.087v.781c0 .342.257.624.589.663l.077.004h9.334a.667.667 0 00.662-.589l.004-.078v-.78a.667.667 0 00-.137-.406l-.058-.066-1.805-1.805V6A3.333 3.333 0 008 2.667z" fill="#EBC01E"/><path fill-opacity=".3" fill="#EBC01E" d="M2.667 10h10.666v.667H2.667zM4 8h8v.667H4z"/><path fill="#EBC01E" d="M4 12.667h2l6-6v-2z"/><path d="M14.128 1.872c.26.26.26.682 0 .943L2.815 14.128a.667.667 0 01-.943-.943L13.185 1.872c.26-.26.683-.26.943 0z" fill-opacity=".7" fill="#F0373A"/></g></svg><svg width="16" height="16" viewBox="0 0 16 16" id="icon-settings" y="16" xmlns="http://www.w3.org/2000/svg"><defs><linearGradient x1="50%" y1="97.5%" x2="50%" y2="0%" id="ca"><stop stop-color="#555" offset="0%"/><stop stop-color="#666" offset="100%"/></linearGradient></defs><path d="M5 6.667a1.667 1.667 0 11.11-.004L5 6.667zM10 5c0-.552-.45-1-1-1h-.473a3.79 3.79 0 00-.327-.786l.336-.336a.998.998 0 00.07-1.338l-.07-.077a1.002 1.002 0 00-1.414.001l-.336.336A3.79 3.79 0 006 1.473V1a.997.997 0 00-.903-.994L5 0c-.552 0-1 .45-1 1v.473c-.277.08-.54.19-.786.327l-.336-.336a.998.998 0 00-1.338-.07l-.077.07a1.002 1.002 0 00.001 1.414l.336.336A3.79 3.79 0 001.473 4H1a.997.997 0 00-.994.903L0 5c0 .552.45 1 1 1h.473c.08.277.19.54.327.786l-.336.336a.998.998 0 00-.07 1.338l.07.077c.39.39 1.025.388 1.414-.001l.336-.336c.246.137.51.247.786.327V9c0 .52.393.946.903.994L5 10c.552 0 1-.45 1-1v-.473c.277-.08.54-.19.786-.327l.336.336a.998.998 0 001.338.07l.077-.07c.39-.39.388-1.025-.001-1.414L8.2 6.786A3.79 3.79 0 008.527 6H9c.52 0 .946-.393.994-.903L10 5z" transform="translate(3.167 3.167)" fill="url(#ca)" fill-rule="evenodd"/></svg></svg>