<?xml version="1.0" encoding="utf-8"?><svg width="160" height="160" viewBox="0 0 48 32" xmlns="http://www.w3.org/2000/svg" xmlns:xlink="http://www.w3.org/1999/xlink"><view id="icon-authy" viewBox="0 0 16 16"/><svg width="16" height="16" viewBox="0 0 16 16" xmlns="http://www.w3.org/2000/svg"><g fill-rule="nonzero" fill="none"><path d="M16 8A8 8 0 1 1 0 8a8 8 0 1 1 16 0Z" fill="#EC1C24"/><path d="m7.314 6.306 1.918 1.917a.71.71 0 0 0 1.004-1.003L8.318 5.3a3.586 3.586 0 0 0-5.03-.035l-.018.018-.018.017a3.586 3.586 0 0 0 .036 5.03l1.918 1.92a.71.71 0 0 0 1.004-1.005L4.292 9.328a2.164 2.164 0 0 1-.017-3.04 2.164 2.164 0 0 1 3.04.018ZM9.79 3.75a.709.709 0 0 0 0 1.004l1.918 1.918c.837.837.842 2.196.017 3.04a2.164 2.164 0 0 1-3.04-.018L6.769 7.777a.71.71 0 0 0-1.004 1.004L7.68 10.7a3.586 3.586 0 0 0 4.993.07l.038-.035.017-.018.019-.018a3.586 3.586 0 0 0-.035-5.03L10.793 3.75a.71.71 0 0 0-1.004 0Z" fill="#FFF"/></g></svg><view id="icon-duo-auth" viewBox="16 0 16 16"/><svg width="16" height="16" viewBox="0 0 16 16" x="16" xmlns="http://www.w3.org/2000/svg"><g fill="none" fill-rule="evenodd"><path d="M5.157 8.256H0V10.9h2.581c1.382 0 2.51-1.17 2.576-2.645Z" opacity=".85" fill="#6DBE50" fill-rule="nonzero"/><path d="M2.581 5.333H0V7.98h5.16c-.07-1.475-1.197-2.646-2.579-2.646ZM13.421 5.333c-1.381 0-2.512 1.174-2.578 2.646h5.154c-.064-1.475-1.194-2.646-2.576-2.646Z" fill="#6DBE50" fill-rule="nonzero"/><path d="M16 8.256h-5.157c.066 1.474 1.194 2.645 2.578 2.645 1.382 0 2.512-1.17 2.579-2.645Z" opacity=".85" fill="#6DBE50" fill-rule="nonzero"/><path d="M5.419 5.333v2.784c0 1.491 1.085 2.71 2.453 2.782V5.333H5.419Z" fill="#6DBE50" fill-rule="nonzero"/><path d="M10.581 5.333h-2.45v5.568h2.45V8.117z" opacity=".85" fill="#6DBE50" fill-rule="nonzero"/><path d="M0 0h16v16H0z"/></g></svg><view id="icon-google-auth" viewBox="0 16 16 16"/><svg width="16" height="16" viewBox="0 0 16 16" y="16" xmlns="http://www.w3.org/2000/svg"><g fill="none" fill-rule="evenodd"><path d="M7.212 6.435H5.705l-2.2-3.81a1.305 1.305 0 1 1 2.26-1.305l2.2 3.81-.753 1.305Z" fill="#FCBC05" fill-rule="nonzero"/><path d="M11.948 14.638a1.306 1.306 0 0 1-1.783-.478l-2.2-3.81-2.2 3.81a1.305 1.305 0 1 1-2.26-1.306l2.2-3.81h4.521l2.2 3.81c.36.625.146 1.423-.478 1.784Z" fill="#E94335" fill-rule="nonzero"/><path d="M15.93 7.74c0 .72-.584 1.305-1.305 1.305h-4.399L9.472 7.74 8.72 6.435l-.754-1.306 2.2-3.81a1.305 1.305 0 0 1 2.261 1.305l-2.2 3.81h4.4c.72 0 1.305.585 1.305 1.306Z" fill="#1973E8" fill-rule="nonzero"/><path d="M7.212 6.435 6.458 7.74l-.753 1.305h-4.4a1.305 1.305 0 0 1 0-2.61h5.907Z" fill="#34A853" fill-rule="nonzero"/><path fill="#174FA7" fill-rule="nonzero" d="M10.226 9.045H5.705l.753-1.306.754-1.304.753-1.306.754 1.306.753 1.304z"/><path d="M0 0h16v16H0z"/></g></svg><view id="icon-mega-logo-rounded-square" viewBox="16 16 16 16"/><svg width="16" height="16" fill="none" viewBox="0 0 16 16" x="16" y="16" xmlns="http://www.w3.org/2000/svg"><g clip-path="url(#ada)"><mask id="adb" style="mask-type:luminance" maskUnits="userSpaceOnUse" x="0" y="0" width="16" height="16"><path d="M12.438 0H3.562A3.563 3.563 0 0 0 0 3.563v8.874A3.563 3.563 0 0 0 3.563 16h8.874A3.563 3.563 0 0 0 16 12.437V3.563A3.563 3.563 0 0 0 12.437 0Z" fill="#fff"/></mask><g mask="url(#adb)"><path d="M12.438 0H3.562A3.563 3.563 0 0 0 0 3.563v8.874A3.563 3.563 0 0 0 3.563 16h8.874A3.563 3.563 0 0 0 16 12.437V3.563A3.563 3.563 0 0 0 12.437 0Z" fill="#fff"/><g opacity=".5"><mask id="adc" style="mask-type:luminance" maskUnits="userSpaceOnUse" x="0" y="0" width="16" height="16"><path d="M12.438 0H3.562A3.563 3.563 0 0 0 0 3.563v8.874A3.563 3.563 0 0 0 3.563 16h8.874A3.563 3.563 0 0 0 16 12.437V3.563A3.563 3.563 0 0 0 12.437 0Z" fill="#fff"/></mask><g mask="url(#adc)" stroke="#007AFF"><path d="M0 10.984h16M0 8h16M0 5.016h16M10.984 16V0M8 16V0M5.016 16V0M16 16 0 0M0 16 16 0M14.953 1.047H1.047v13.906h13.906V1.047Z"/><path d="M8 10.984a2.984 2.984 0 1 0 0-5.968 2.984 2.984 0 0 0 0 5.968Z"/><path d="M8 12.203a4.203 4.203 0 1 0 0-8.406 4.203 4.203 0 0 0 0 8.406Z"/><path d="M8 14.953A6.953 6.953 0 1 0 8 1.047a6.953 6.953 0 0 0 0 13.906Z"/></g><path d="M12.438.008H3.562A3.555 3.555 0 0 0 .009 3.562v8.876a3.555 3.555 0 0 0 3.554 3.554h8.876a3.555 3.555 0 0 0 3.554-3.555V3.563A3.555 3.555 0 0 0 12.437.007Z" stroke="#FF3B30"/></g><path fill-rule="evenodd" clip-rule="evenodd" d="M0 0v16h16V0H0Z" fill="url(#add)"/><path fill-rule="evenodd" clip-rule="evenodd" d="M11.033 10.375h-.814a.186.186 0 0 1-.19-.188V7.7a.024.024 0 0 0-.04-.017L8.27 9.404a.381.381 0 0 1-.54 0L6.01 7.682c-.015-.015-.04-.016-.04.005v2.5a.186.186 0 0 1-.19.188H4.97a.185.185 0 0 1-.188-.188V5.782c0-.105.082-.187.188-.187h.562c.102 0 .193.055.265.126l2.136 2.14a.095.095 0 0 0 .136 0l2.136-2.14a.398.398 0 0 1 .27-.126h.559c.105 0 .186.113.186.218v4.375c0 .106-.08.188-.186.188Z" fill="#fff"/></g></g><defs><radialGradient id="add" cx="0" cy="0" r="1" gradientUnits="userSpaceOnUse" gradientTransform="matrix(0 -23.8028 29.3477 0 8 18.184)"><stop stop-color="#D90007"/><stop offset="1" stop-color="#FF333A"/></radialGradient><clipPath id="ada"><path fill="#fff" d="M0 0h16v16H0z"/></clipPath></defs></svg><view id="icon-microsoft-auth" viewBox="32 0 16 16"/><svg width="16" height="16" viewBox="0 0 16 16" x="32" xmlns="http://www.w3.org/2000/svg"><g fill-rule="nonzero" fill="none"><path d="M15.019 16H.98A.981.981 0 0 1 0 15.019V.98C0 .438.44 0 .981 0H15.02c.543 0 .981.44.981.981V15.02a.98.98 0 0 1-.981.981Z" fill="#0078D7"/><path d="M11.005 4.998c0 .047 0 .09-.003.138-.362-.079-.74-.141-1.131-.191a1.87 1.87 0 0 0-3.739 0c-.39.05-.768.112-1.131.19-.003-.046-.003-.093-.003-.14a3.006 3.006 0 0 1 3.007-3.007c1.653.006 3 1.35 3 3.01Zm-2.991 9.014c5.307-2.231 4.498-7.914 4.498-7.914-1.238-.462-2.8-.737-4.504-.737-1.704 0-3.266.275-4.504.737 0 0-.81 5.683 4.498 7.914h.012Z" fill="#FFF"/><path d="M9.477 10.433c0 .066-.003.128-.013.191H6.548a1.47 1.47 0 0 1 1.028-1.597 1.121 1.121 0 1 1 1.55-1.038c0 .469-.287.869-.693 1.038a1.467 1.467 0 0 1 1.044 1.406Z" fill="#0078D7"/></g></svg></svg>