<?xml version="1.0" encoding="utf-8"?><svg width="160" height="160" viewBox="0 0 16 16" xmlns="http://www.w3.org/2000/svg" xmlns:xlink="http://www.w3.org/1999/xlink"><view id="icon-loader-throbber-thin-outline" viewBox="0 0 16 16"/><svg width="16" height="16" fill="none" viewBox="0 0 16 16" xmlns="http://www.w3.org/2000/svg"><path fill-rule="evenodd" clip-rule="evenodd" d="M8 1a.5.5 0 0 1 .5.5v1a.5.5 0 0 1-1 0v-1A.5.5 0 0 1 8 1Z" fill="#303233"/><path opacity=".6" fill-rule="evenodd" clip-rule="evenodd" d="M8 13a.5.5 0 0 1 .5.5v1a.5.5 0 0 1-1 0v-1A.5.5 0 0 1 8 13Z" fill="#303233"/><path opacity=".8" fill-rule="evenodd" clip-rule="evenodd" d="M1 8a.5.5 0 0 1 .5-.5h1a.5.5 0 0 1 0 1h-1A.5.5 0 0 1 1 8Z" fill="#303233"/><path opacity=".4" fill-rule="evenodd" clip-rule="evenodd" d="M15 8a.5.5 0 0 1-.5.5h-1a.5.5 0 0 1 0-1h1a.5.5 0 0 1 .5.5Z" fill="#303233"/><path opacity=".3" fill-rule="evenodd" clip-rule="evenodd" d="M12.95 3.05a.5.5 0 0 1 0 .707l-.707.707a.5.5 0 1 1-.707-.707l.707-.707a.5.5 0 0 1 .707 0Z" fill="#303233"/><path opacity=".7" fill-rule="evenodd" clip-rule="evenodd" d="M4.465 11.536a.5.5 0 0 1 0 .707l-.707.707a.5.5 0 1 1-.707-.707l.707-.707a.5.5 0 0 1 .707 0Z" fill="#303233"/><path opacity=".9" fill-rule="evenodd" clip-rule="evenodd" d="M4.465 4.464a.5.5 0 0 1-.707 0l-.707-.707a.5.5 0 0 1 .707-.707l.707.707a.5.5 0 0 1 0 .707Z" fill="#303233"/><path opacity=".5" fill-rule="evenodd" clip-rule="evenodd" d="M12.95 12.95a.5.5 0 0 1-.707 0l-.707-.707a.5.5 0 0 1 .707-.707l.707.707a.5.5 0 0 1 0 .707Z" fill="#303233"/></svg></svg>