<?xml version="1.0" encoding="utf-8"?><svg width="160" height="160" viewBox="0 0 32 32" xmlns="http://www.w3.org/2000/svg" xmlns:xlink="http://www.w3.org/1999/xlink"><view id="icon-loader-throbber-light-outline" viewBox="0 0 16 16"/><svg width="16" height="16" fill="none" viewBox="0 0 16 16" xmlns="http://www.w3.org/2000/svg"><g clip-path="url(#aaa)" stroke="#303233" stroke-linecap="round"><path d="M8 1.333v1.334"/><path opacity=".8" d="M1.333 8h1.334"/><path opacity=".3" d="M13.334 8h1.333"/><path opacity=".6" d="M8 13.333v1.334"/><path opacity=".9" d="m3.286 3.286.942.943"/><path opacity=".7" d="m3.286 12.714.942-.943"/><path opacity=".3" d="m11.771 4.229.943-.943"/><path opacity=".5" d="m11.771 11.771.943.943"/></g><defs><clipPath id="aaa"><path fill="#fff" d="M0 0h16v16H0z"/></clipPath></defs></svg><view id="icon-pwm-extension" viewBox="16 0 16 16"/><svg width="16" height="16" viewBox="0 0 16 16" x="16" xmlns="http://www.w3.org/2000/svg"><path style="stroke:none;fill-rule:nonzero;fill:#fff;fill-opacity:1" d="M15 8c0 3.867-3.133 7-7 7s-7-3.133-7-7 3.133-7 7-7 7 3.133 7 7Zm0 0"/><path style="stroke:none;fill-rule:nonzero;fill:#fb6361;fill-opacity:1" d="M10.043 6.543c0 1.125-.914 2.039-2.043 2.039A2.041 2.041 0 1 1 8 4.5c1.129 0 2.043.914 2.043 2.043Zm0 0"/><path style="stroke:none;fill-rule:nonzero;fill:#f23433;fill-opacity:1" d="M7.887 4.59c.027-.121.199-.121.226 0l1.59 6.695a.177.177 0 0 1-.172.215H6.47a.177.177 0 0 1-.172-.215Zm0 0"/><path style="stroke:none;fill-rule:nonzero;fill:#b61714;fill-opacity:1" d="m7 8.324.887-3.734c.027-.121.199-.121.226 0L9 8.324a2.059 2.059 0 0 1-2 0Zm0 0"/></svg><view id="icon-pwm-extension-disabled" viewBox="0 16 16 16"/><svg width="16" height="16" viewBox="0 0 16 16" y="16" xmlns="http://www.w3.org/2000/svg"><path style="stroke:none;fill-rule:nonzero;fill:#bdc0c4;fill-opacity:1" d="M15 8c0 3.867-3.133 7-7 7s-7-3.133-7-7 3.133-7 7-7 7 3.133 7 7Zm0 0"/><path style="stroke:none;fill-rule:nonzero;fill:#6e747d;fill-opacity:1" d="M10.043 6.543c0 1.125-.914 2.039-2.043 2.039A2.041 2.041 0 1 1 8 4.5c1.129 0 2.043.914 2.043 2.043Zm0 0"/><path style="stroke:none;fill-rule:nonzero;fill:#535b65;fill-opacity:1" d="M7.844 4.59c.027-.121.199-.121.226 0l1.586 6.695a.173.173 0 0 1-.168.215H6.426a.177.177 0 0 1-.172-.215Zm0 0"/><path style="stroke:none;fill-rule:nonzero;fill:#39424e;fill-opacity:1" d="m7 8.324.887-3.734c.027-.121.199-.121.226 0L9 8.324a2.059 2.059 0 0 1-2 0Zm0 0"/></svg></svg>