<?xml version="1.0" encoding="UTF-8"?>
<svg width="148px" height="32px" viewBox="0 0 148 32" version="1.1" xmlns="http://www.w3.org/2000/svg" xmlns:xlink="http://www.w3.org/1999/xlink">
    <title>Group</title>
    <g id="Page-1" stroke="none" stroke-width="1" fill="none" fill-rule="evenodd">
        <g id="Group">
            <path d="M130.462,22.0307 C130.462,21.9998 130.462,21.9843 130.462,21.9713 C130.476,21.3304 130.992,20.8142 131.633,20.8002 C131.646,20.7999 131.661,20.7999 131.692,20.7999 C131.723,20.7999 131.739,20.7999 131.752,20.8002 C132.393,20.8142 132.909,21.3304 132.923,21.9713 C132.923,21.9843 132.923,21.9998 132.923,22.0307 C132.923,22.0616 132.923,22.077 132.923,22.0901 C132.909,22.731 132.393,23.2472 131.752,23.2612 C131.739,23.2614 131.723,23.2614 131.692,23.2614 C131.661,23.2614 131.646,23.2614 131.633,23.2612 C130.992,23.2472 130.476,22.731 130.462,22.0901 C130.462,22.077 130.462,22.0616 130.462,22.0307 Z" id="Path" fill="#1875FF" fill-rule="nonzero"></path>
            <path d="M143.262,8.86157 C143.726,8.86157 143.958,8.86157 144.102,9.0058 C144.246,9.14999 144.246,9.38203 144.246,9.84618 L144.246,11.5693 C144.246,11.6853 144.246,11.7433 144.282,11.7794 C144.318,11.8154 144.376,11.8154 144.492,11.8154 L145.723,11.8154 C146.187,11.8154 146.419,11.8154 146.564,11.9596 C146.708,12.1038 146.708,12.3359 146.708,12.8 L146.708,13.2923 C146.708,13.7565 146.708,13.9885 146.564,14.1327 C146.419,14.2769 146.187,14.277 145.723,14.277 L144.492,14.277 C144.376,14.277 144.318,14.277 144.282,14.313 C144.246,14.3491 144.246,14.4073 144.246,14.5236 C144.247,16.2161 144.257,17.4047 144.379,18.3114 C144.505,19.2474 144.729,19.697 145.039,20.007 L145.08,20.0461 C145.41,20.3566 145.895,20.5696 146.891,20.6858 C147.369,20.7416 147.608,20.7695 147.733,20.9173 C147.859,21.0652 147.848,21.2919 147.827,21.7452 L147.804,22.2369 C147.782,22.7075 147.771,22.9428 147.611,23.0812 C147.45,23.2195 147.225,23.1964 146.776,23.1505 C145.427,23.0126 144.265,22.6814 143.352,21.8 L143.299,21.7476 C142.455,20.9041 142.102,19.8484 141.94,18.6395 C141.793,17.5462 141.785,16.1782 141.785,14.5233 C141.785,14.4072 141.785,14.349 141.749,14.313 C141.713,14.277 141.655,14.277 141.539,14.277 L140.8,14.277 C140.336,14.277 140.104,14.2769 139.96,14.1327 C139.815,13.9885 139.815,13.7565 139.815,13.2923 L139.815,12.8 C139.815,12.3359 139.815,12.1038 139.96,11.9596 C140.104,11.8154 140.336,11.8154 140.8,11.8154 L141.539,11.8154 C141.655,11.8154 141.713,11.8154 141.749,11.7794 C141.785,11.7433 141.785,11.6853 141.785,11.5693 L141.785,9.84618 C141.785,9.38203 141.785,9.14999 141.929,9.0058 C142.073,8.86157 142.305,8.86157 142.769,8.86157 L143.262,8.86157 Z" id="Path" fill="#080A0D" fill-rule="nonzero"></path>
            <path d="M136.862,11.8154 C137.326,11.8154 137.558,11.8154 137.702,11.9596 C137.846,12.1038 137.846,12.3359 137.846,12.8 L137.846,22.1539 C137.846,22.618 137.846,22.8501 137.702,22.9943 C137.558,23.1385 137.326,23.1385 136.862,23.1385 L136.369,23.1385 C135.905,23.1385 135.673,23.1385 135.529,22.9943 C135.385,22.8501 135.385,22.618 135.385,22.1539 L135.385,12.8 C135.385,12.3359 135.385,12.1038 135.529,11.9596 C135.673,11.8154 135.905,11.8154 136.369,11.8154 L136.862,11.8154 Z" id="Path" fill="#080A0D" fill-rule="nonzero"></path>
            <path d="M136.687,7.385 C137.456,7.40179 138.075,8.02122 138.092,8.79029 C138.092,8.80596 138.092,8.8245 138.092,8.86157 C138.092,8.89863 138.092,8.91717 138.092,8.93284 C138.075,9.70191 137.456,10.3213 136.687,10.3381 C136.671,10.3385 136.653,10.3385 136.615,10.3385 C136.578,10.3385 136.56,10.3385 136.544,10.3381 C135.775,10.3213 135.156,9.70191 135.139,8.93284 C135.139,8.91717 135.139,8.89863 135.139,8.86157 C135.139,8.8245 135.139,8.80596 135.139,8.79029 C135.156,8.02122 135.775,7.40179 136.544,7.385 C136.56,7.38464 136.578,7.38464 136.615,7.38464 C136.653,7.38464 136.671,7.38464 136.687,7.385 Z" id="Path" fill="#080A0D" fill-rule="nonzero"></path>
            <path d="M94.0508,11.7074 C95.2465,11.445 96.5015,11.5868 97.5878,11.874 C98.3406,12.073 99.0592,12.3542 99.6866,12.6677 C100.085,12.8671 100.285,12.9668 100.342,13.1806 C100.4,13.3944 100.268,13.5935 100.006,13.9917 L99.7284,14.4119 C99.4831,14.7836 99.3605,14.9696 99.1846,15.0195 C99.0088,15.0695 98.7861,14.9661 98.3409,14.7594 C97.917,14.5627 97.4386,14.3833 96.9399,14.2515 C96.0828,14.0249 95.263,13.9639 94.5962,14.1097 L94.5321,14.1245 C93.9334,14.2695 93.6992,14.6471 93.6565,14.9149 C93.6343,15.0546 93.6599,15.1698 93.708,15.2549 C93.7517,15.3322 93.843,15.4372 94.053,15.5175 L94.3146,15.6167 C95.5983,16.0995 96.537,16.3893 97.8125,16.7469 L97.9082,16.7747 C98.8894,17.0694 99.672,17.612 100.143,18.364 C100.632,19.1448 100.717,20.0507 100.448,20.8722 C99.9082,22.5157 98.1249,23.5373 95.9309,23.3657 L95.8261,23.3566 C94.0987,23.1925 93.126,22.8804 91.6682,22.2692 C91.238,22.0888 91.0228,21.9986 90.9465,21.806 C90.8703,21.6133 90.9663,21.3981 91.1583,20.9679 L91.3615,20.5128 C91.5477,20.0954 91.6408,19.8866 91.8273,19.8127 C92.0138,19.7388 92.2272,19.8283 92.654,20.007 C93.9819,20.5634 94.6902,20.7757 96.066,20.9063 L96.1307,20.912 C97.4753,21.0191 97.9745,20.4052 98.0699,20.1147 C98.1227,19.9539 98.1059,19.8003 98.0158,19.6563 C97.9257,19.5125 97.7002,19.2856 97.1797,19.1295 L97.1284,19.1146 C95.8031,18.743 94.7936,18.4318 93.4267,17.9177 L93.1483,17.8122 C91.6437,17.2367 90.9769,15.8557 91.1877,14.5331 C91.3938,13.2398 92.4051,12.1049 93.9351,11.7341 L94.0508,11.7074 Z" id="Path" fill="#080A0D" fill-rule="nonzero"></path>
            <path d="M69.5385,11.6920986 C69.6463,11.6920986 69.72,11.6920986 69.7851,11.6935 L69.9267,11.6983 C72.8908,11.836 75.2567,14.2475 75.3218,17.2301 L75.3231,17.3375 C75.3231,17.3775 75.3231,17.4229 75.3231,17.4768 L75.3231,22.1537 C75.3231,22.6178 75.3231,22.8499 75.1789,22.9941 C75.0347,23.1382 74.8026,23.1383 74.3385,23.1383 L73.563,23.1383 C73.3684,23.1383 73.271,23.1383 73.1927,23.1111 C73.0502,23.0617 72.9381,22.9497 72.8887,22.8072 C72.8616,22.7289 72.8616,22.6315 72.8616,22.4369 C72.8616,22.3936 72.8616,22.3719 72.8553,22.3591 C72.8437,22.3353 72.8191,22.3219 72.7928,22.325 C72.7787,22.3266 72.76,22.3386 72.7229,22.3626 C71.91,22.8861 70.9544,23.2075 69.9267,23.2552 L69.7851,23.2601 C69.72,23.2614016 69.6463,23.2614016 69.5385,23.2614016 C69.4846,23.2614016 69.4392,23.2614016 69.3992,23.2614016 L69.2919,23.2601 C66.3092,23.1949 63.8977,20.829 63.76,17.865 L63.7552,17.7234 C63.7538984,17.6583 63.7538984,17.5845 63.7538984,17.4768 C63.7538984,17.369 63.7538984,17.2952 63.7552,17.2301 L63.76,17.0885 C63.8977,14.1245 66.3092,11.7586 69.2919,11.6935 L69.3992,11.6923 C69.4392,11.6920986 69.4846,11.6920986 69.5385,11.6920986 Z M69.3456,14.1544 C67.6597,14.1912 66.2967,15.5285 66.2189,17.2038 L66.2161,17.2838 C66.2154,17.3154 66.2154,17.356 66.2154,17.4768 C66.2154,17.5975 66.2154,17.6382 66.2161,17.6697 L66.2189,17.7497 C66.2968,19.425 67.6598,20.7623 69.3456,20.7991 L69.5385,20.7998 C69.6593,20.7998 69.6999,20.7998 69.7314,20.7991 L69.8114,20.7963 C71.4868,20.7185 72.824,19.3555 72.8608,17.6697 L72.8616,17.4768 L72.8608,17.2838 C72.824,15.598 71.4868,14.235 69.8114,14.1572 L69.7314,14.1544 C69.6999,14.1537 69.6593,14.1537 69.5385,14.1537 L69.3456,14.1544 Z" id="Shape" fill="#080A0D"></path>
            <path d="M115.646,11.6923 C115.65,11.6923 115.666,11.6923 115.685,11.693 C115.687,11.6931 115.69,11.6933 115.693,11.6935 L115.693,11.6935 L115.694,11.6936 C115.695,11.6936 115.695,11.6936 115.695,11.6936 C118.815,11.763 120.919,14.2961 120.983,17.2301 L120.985,17.3375 C120.985,17.3775 120.985,17.4229 120.985,17.4768 L120.985,17.6161 L120.983,17.7234 C120.98,17.8759 120.978,17.9521 120.949,18.0401 C120.891,18.2138 120.721,18.38 120.546,18.434 C120.458,18.4613 120.366,18.4614 120.182,18.4614 L112.811,18.4614 C112.66,18.4614 112.585,18.4614 112.548,18.5151 C112.511,18.5688 112.538,18.6355 112.59,18.7687 C113.049,19.9375 114.174,20.7702 115.499,20.7991 L115.692,20.7998 L115.759,20.7998 C115.761,20.7998 115.764,20.7996 115.765,20.7996 C115.774,20.7994 115.784,20.7992 115.793,20.799 L115.929,20.795 C116.867,20.7574 117.654,20.5005 118.262,20.1187 C118.716,19.8332 118.944,19.6904 119.107,19.7042 C119.271,19.7179 119.431,19.8598 119.749,20.1437 L120.117,20.4712 C120.472,20.7877 120.649,20.946 120.643,21.1746 C120.637,21.4032 120.47,21.5362 120.137,21.8022 C119.007,22.7052 117.508,23.2313 115.836,23.2602 C115.834,23.2602 115.832,23.2603 115.831,23.2603 C115.826,23.2605 115.822,23.2607 115.818,23.2608 C115.803,23.2612 115.79,23.2612 115.785,23.2614 C115.779,23.2614 115.772,23.2614 115.765,23.2614 L115.692,23.2614 C115.638,23.2614 115.593,23.2614 115.553,23.2614 L115.446,23.2601 C112.463,23.1949 110.052,20.829 109.914,17.865 L109.909,17.7234 C109.908,17.6583 109.908,17.5845 109.908,17.4768 C109.908,17.369 109.908,17.2952 109.909,17.2301 L109.914,17.0885 C110.052,14.1253 112.462,11.76 115.443,11.6936 C115.444,11.6936 115.444,11.6935 115.445,11.6935 C115.444,11.6935 115.444,11.6936 115.444,11.6936 C115.445,11.6936 115.445,11.6935 115.446,11.6935 C115.446,11.6935 115.445,11.6935 115.445,11.6935 C115.448,11.6933 115.451,11.6931 115.454,11.693 C115.473,11.6923 115.489,11.6923 115.492,11.6923 C115.499,11.6921 115.505,11.6921 115.511,11.6921 L115.628,11.6921 C115.633,11.6921 115.64,11.6921 115.646,11.6923 Z M115.499,14.1544 C114.174,14.1833 113.049,15.0159 112.59,16.1847 C112.538,16.3179 112.511,16.3847 112.548,16.4384 C112.585,16.4921 112.66,16.4921 112.811,16.4921 L118.113,16.4921 C118.258,16.4921 118.331,16.4921 118.368,16.4411 C118.405,16.39 118.383,16.3243 118.339,16.193 C117.944,15.0031 116.951,14.2141 115.715,14.157 L115.639,14.1544 L115.612,14.1537 L115.527,14.1537 L115.499,14.1544 Z" id="Shape" fill="#080A0D"></path>
            <path d="M49.7231,8.86137 C50.1872,8.86137 50.4193,8.86137 50.5635,9.00548 C50.7077,9.14968 50.7077,9.38184 50.7077,9.84599 L50.7077,11.5691 C50.7077,11.6851 50.7077,11.7431 50.7438,11.7792 C50.7798,11.8152 50.8378,11.8152 50.9539,11.8152 L52.6769,11.8152 C53.1411,11.8152 53.3731,11.8152 53.5173,11.9593 C53.6615,12.1035 53.6616,12.3357 53.6616,12.7998 L53.6616,13.2921 C53.6616,13.7563 53.6615,13.9883 53.5173,14.1325 C53.3731,14.2767 53.1411,14.2768 52.6769,14.2768 L50.954,14.2768 C50.838,14.2768 50.7799,14.2768 50.7439,14.3128 C50.7078,14.3489 50.7079,14.407 50.708,14.5233 C50.7088,16.2158 50.719,17.4045 50.8409,18.3113 C50.9667,19.2472 51.1908,19.6968 51.5007,20.0068 L51.5411,20.0459 C51.8719,20.3564 52.3569,20.5694 53.3526,20.6857 C53.8302,20.7414 54.0691,20.7693 54.1946,20.9171 C54.3201,21.065 54.3095,21.2916 54.2884,21.7449 L54.2655,22.2367 C54.2436,22.7073 54.2326,22.9426 54.072,23.081 C53.9115,23.2193 53.6868,23.1962 53.2376,23.1503 C51.8888,23.0124 50.7265,22.6812 49.8136,21.7998 L49.7602,21.7474 C48.9167,20.9039 48.5639,19.8482 48.4013,18.6393 C48.2544,17.546 48.2466,16.178 48.2462,14.5232 C48.2462,14.407 48.2461,14.3489 48.2101,14.3128 C48.1741,14.2768 48.1161,14.2768 48,14.2768 L47.7539,14.2768 C47.2897,14.2768 47.0577,14.2767 46.9135,14.1325 C46.7693,13.9883 46.7693,13.7563 46.7693,13.2921 L46.7693,12.7998 C46.7693,12.3357 46.7693,12.1035 46.9135,11.9593 C47.0577,11.8152 47.2898,11.8152 47.7539,11.8152 L48,11.8152 C48.1161,11.8152 48.1741,11.8152 48.2101,11.7792 C48.2462,11.7431 48.2462,11.6851 48.2462,11.5691 L48.2462,9.84599 C48.2462,9.38184 48.2462,9.14968 48.3904,9.00548 C48.5346,8.86137 48.7667,8.86137 49.2308,8.86137 L49.7231,8.86137 Z" id="Path" fill="#080A0D" fill-rule="nonzero"></path>
            <path d="M61.4838,11.8031 C61.933,11.7571 62.1576,11.7342 62.3182,11.8726 C62.4787,12.0109 62.4897,12.2462 62.5117,12.7168 L62.5345,13.2085 C62.5557,13.6618 62.5663,13.8885 62.4408,14.0364 C62.3152,14.1842 62.0764,14.2121 61.5987,14.2679 C60.6031,14.3841 60.1181,14.597 59.7873,14.9075 L59.7469,14.9467 C59.4369,15.2567 59.2129,15.7063 59.087,16.6423 C58.9565,17.6137 58.9539,18.9085 58.9539,20.7998 L58.9539,22.1537 C58.9539,22.6178 58.9538,22.8499 58.8096,22.9941 C58.6654,23.1383 58.4334,23.1383 57.9693,23.1383 L57.477,23.1383 C57.0128,23.1383 56.7808,23.1383 56.6366,22.9941 C56.4924,22.8499 56.4922974,22.6178 56.4922974,22.1537 L56.4922974,20.7998 C56.4922974,18.9781 56.4897,17.4878 56.6475,16.3143 C56.81,15.1053 57.1628,14.0496 58.0064,13.2061 L58.0598,13.1537 C58.9727,12.2723 60.135,11.941 61.4838,11.8031 Z" id="Path" fill="#080A0D" fill-rule="nonzero"></path>
            <path d="M83.4462,11.6920983 C83.6608,11.6920983 83.8012,11.6919 83.9072,11.6959 C84.0425,11.7009 84.1366,11.7132 84.2235,11.7235 L84.3447,11.7395 C86.8799,12.1071 88.6234,14.472 88.8385,17.1027 L88.8464,17.2155 C88.8624,17.4846 88.8616066,17.8005 88.8616066,18.2611 L88.8616066,22.1537 C88.8616066,22.6178 88.8616066,22.8499 88.7173,22.9941 C88.5731,23.1383 88.3411,23.1383 87.877,23.1383 L87.3846,23.1383 C86.9205,23.1383 86.6885,23.1383 86.5443,22.9941 C86.4001,22.8499 86.4,22.6178 86.4,22.1537 L86.4,18.2611 C86.4,17.7579 86.3993,17.5316 86.3898,17.3694 L86.3851,17.3032 C86.2376,15.4986 85.1085,14.3398 83.9868,14.1751 L83.9333,14.168 C83.8277,14.1555 83.8341,14.1564 83.8158,14.1557 C83.7681,14.154 83.6887,14.1537 83.4462,14.1537 C83.2037,14.1537 83.1243,14.154 83.0766,14.1557 C83.0674,14.1561 83.0644,14.156 83.0505,14.1574 L82.959,14.168 C81.8378,14.301 80.6934,15.4337 80.5149,17.2177 L80.5072,17.3032 C80.4934,17.4725 80.4923,17.686 80.4923,18.2611 L80.4923,22.1537 C80.4923,22.6178 80.4923,22.8499 80.3481,22.9941 C80.2039,23.1383 79.9719,23.1383 79.5077,23.1383 L79.0154,23.1383 C78.5513,23.1383 78.3192,23.1383 78.175,22.9941 C78.0307941,22.8499 78.0307941,22.6178 78.0307941,22.1537 L78.0307941,18.2611 C78.0307941,17.7347 78.0298,17.3974 78.0539,17.1027 L78.0653,16.9776 C78.3287,14.3558 80.1089,12.0273 82.669,11.7235 L82.8089,11.7078 C82.8602,11.7028 82.9175,11.6984 82.9851,11.6959 C83.0911,11.6919 83.2315,11.6920983 83.4462,11.6920983 Z" id="Path" fill="#080A0D" fill-rule="nonzero"></path>
            <path d="M108.499,5.89503 C108.948,5.84909 109.173,5.82617 109.334,5.9645 C109.494,6.10283 109.505,6.33818 109.527,6.80873 L109.55,7.30044 C109.571,7.75375 109.582,7.98047 109.456,8.12832 C109.331,8.27616 109.092,8.30406 108.614,8.35981 C107.618,8.47601 107.133,8.68891 106.803,8.99947 L106.762,9.03866 C106.452,9.34864 106.228,9.79823 106.102,10.7342 C106.069,10.9853 106.044,11.258 106.025,11.557 C106.017,11.6774 106.014,11.7376 106.05,11.7764 C106.087,11.8152 106.147,11.8152 106.269,11.8152 L107.938,11.8152 C108.403,11.8152 108.635,11.8152 108.779,11.9593 C108.923,12.1035 108.923,12.3357 108.923,12.7998 L108.923,13.2921 C108.923,13.7563 108.923,13.9883 108.779,14.1325 C108.635,14.2767 108.403,14.2768 107.938,14.2768 L106.215,14.2768 C106.1,14.2768 106.042,14.2767 106.006,14.3127 C105.97,14.3487 105.969,14.4067 105.969,14.5226 C105.969,14.643 105.969,14.7661 105.969,14.8918 L105.969,22.1537 C105.969,22.6178 105.969,22.8499 105.825,22.9941 C105.681,23.1383 105.449,23.1383 104.985,23.1383 L104.492,23.1383 C104.028,23.1383 103.796,23.1383 103.652,22.9941 C103.508,22.8499 103.508,22.6178 103.508,22.1537 L103.508,14.8918 C103.508,14.7674 103.508,14.6445 103.508,14.5232 C103.508,14.407 103.508,14.3489 103.472,14.3128 C103.436,14.2768 103.378,14.2768 103.262,14.2768 L103.015,14.2768 C102.551,14.2768 102.319,14.2767 102.175,14.1325 C102.031,13.9883 102.031,13.7563 102.031,13.2921 L102.031,12.7998 C102.031,12.3357 102.031,12.1035 102.175,11.9593 C102.319,11.8152 102.551,11.8152 103.015,11.8152 L103.311,11.8152 C103.422,11.8152 103.478,11.8152 103.513,11.7814 C103.549,11.7477 103.552,11.6918 103.558,11.58 C103.581,11.1585 103.614,10.7673 103.663,10.4062 C103.825,9.19724 104.178,8.1416 105.022,7.29803 L105.075,7.24563 C105.988,6.36422 107.15,6.03296 108.499,5.89503 Z" id="Path" fill="#080A0D" fill-rule="nonzero"></path>
            <path d="M128.192,11.8031 C128.641,11.7571 128.865,11.7342 129.026,11.8726 C129.186,12.0109 129.197,12.2462 129.219,12.7168 L129.242,13.2085 C129.263,13.6618 129.274,13.8885 129.148,14.0364 C129.023,14.1842 128.784,14.2121 128.306,14.2679 C127.311,14.3841 126.826,14.597 126.495,14.9075 L126.455,14.9467 C126.145,15.2567 125.921,15.7063 125.795,16.6423 C125.664,17.6137 125.662,18.9085 125.662,20.7998 L125.662,22.1537 C125.662,22.6178 125.662,22.8499 125.517,22.9941 C125.373,23.1383 125.141,23.1383 124.677,23.1383 L124.185,23.1383 C123.721,23.1383 123.488,23.1383 123.344,22.9941 C123.199996,22.8499 123.199996,22.6178 123.199996,22.1537 L123.199996,20.7998 C123.199996,18.9781 123.197,17.4878 123.355,16.3143 C123.518,15.1053 123.871,14.0496 124.714,13.2061 L124.767,13.1537 C125.68,12.2723 126.843,11.941 128.192,11.8031 Z" id="Path" fill="#080A0D" fill-rule="nonzero"></path>
            <path d="M29.5385,16 C29.5385,8.52291 23.4771,2.46154 16,2.46154 C8.52291,2.46154 2.46154,8.52291 2.46154,16 C2.46154,23.4771 8.52291,29.5385 16,29.5385 C17.1346,29.5385 18.235,29.3991 19.2857,29.1373 L19.3476,29.1236 C19.9866,28.9983 20.6184,29.395 20.7776,30.0339 C20.942,30.6934 20.5406,31.3613 19.881,31.5257 L19.6471,31.5822 C18.4745,31.8557 17.2533,32 16,32 C7.16344,32 0,24.8366 0,16 C0,7.16344 7.16344,0 16,0 C24.8366,0 32,7.16344 32,16 C32,17.5137 31.7893,18.9802 31.3952,20.3709 C31.3927,20.3805 31.3905,20.3901 31.3877,20.3996 C30.2735,24.2994 26.7631,27.4462 22.3975,27.4462 C18.162,27.4462 14.7692,23.952 14.7692,19.6923 L14.7692,12.8175 L10.7165,16.8703 C10.2358,17.351 9.45649,17.351 8.97584,16.8703 C8.4952,16.3897 8.4952,15.6103 8.97584,15.1297 L15.1297,8.97584 L15.1756,8.93221 C15.6587,8.49567 16.4047,8.51021 16.8703,8.97584 L23.0242,15.1297 L23.0678,15.1756 C23.5043,15.6587 23.4898,16.4047 23.0242,16.8703 C22.5585,17.3359 21.8126,17.3505 21.3294,16.9139 L21.2835,16.8703 L17.2308,12.8175 L17.2308,19.6923 C17.2308,22.6379 19.5664,24.9846 22.3975,24.9846 C25.5112,24.9846 28.1577,22.7228 29.0168,19.737 C29.018,19.7326 29.0189,19.7282 29.0202,19.7238 C29.3574,18.5422 29.5385,17.2932 29.5385,16 Z" id="Path" fill="#1875FF" fill-rule="nonzero"></path>
        </g>
    </g>
</svg>