<?xml version="1.0" encoding="UTF-8"?>
<svg width="148px" height="32px" viewBox="0 0 148 32" version="1.1" xmlns="http://www.w3.org/2000/svg" xmlns:xlink="http://www.w3.org/1999/xlink">
    <title>Group</title>
    <g id="Page-1" stroke="none" stroke-width="1" fill="none" fill-rule="evenodd">
        <g id="Group">
            <path d="M130.462,22.0308 C130.462,21.9999 130.462,21.9845 130.462,21.9714 C130.476,21.3305 130.992,20.8143 131.633,20.8003 C131.646,20.8 131.661,20.8 131.692,20.8 C131.723,20.8 131.739,20.8 131.752,20.8003 C132.393,20.8143 132.909,21.3305 132.923,21.9714 C132.923,21.9845 132.923,21.9999 132.923,22.0308 C132.923,22.0617 132.923,22.0771 132.923,22.0902 C132.909,22.7311 132.393,23.2473 131.752,23.2613 C131.739,23.2616 131.723,23.2616 131.692,23.2616 C131.661,23.2616 131.646,23.2616 131.633,23.2613 C130.992,23.2473 130.476,22.7311 130.462,22.0902 C130.462,22.0771 130.462,22.0617 130.462,22.0308 Z" id="Path" fill="#1D81FF" fill-rule="nonzero"></path>
            <path d="M143.262,8.86157 C143.726,8.86157 143.958,8.86157 144.102,9.0058 C144.246,9.14999 144.246,9.38203 144.246,9.84618 L144.246,11.5693 C144.246,11.6853 144.246,11.7433 144.282,11.7794 C144.318,11.8154 144.376,11.8154 144.492,11.8154 L145.723,11.8154 C146.187,11.8154 146.419,11.8154 146.564,11.9596 C146.708,12.1038 146.708,12.3359 146.708,12.8 L146.708,13.2923 C146.708,13.7565 146.708,13.9885 146.564,14.1327 C146.419,14.2769 146.187,14.277 145.723,14.277 L144.493,14.277 C144.376,14.277 144.318,14.277 144.282,14.313 C144.246,14.3491 144.246,14.4073 144.246,14.5236 C144.247,16.2161 144.257,17.4047 144.379,18.3114 C144.505,19.2474 144.729,19.697 145.039,20.007 L145.08,20.0461 C145.41,20.3566 145.895,20.5696 146.891,20.6858 C147.369,20.7416 147.608,20.7695 147.733,20.9173 C147.859,21.0652 147.848,21.2919 147.827,21.7452 L147.804,22.2369 C147.782,22.7075 147.771,22.9428 147.611,23.0812 C147.45,23.2195 147.225,23.1964 146.776,23.1505 C145.427,23.0126 144.265,22.6814 143.352,21.8 L143.299,21.7476 C142.455,20.9041 142.102,19.8484 141.94,18.6395 C141.793,17.5462 141.785,16.1782 141.785,14.5233 C141.785,14.4072 141.785,14.349 141.749,14.313 C141.713,14.277 141.655,14.277 141.539,14.277 L140.8,14.277 C140.336,14.277 140.104,14.2769 139.96,14.1327 C139.816,13.9885 139.815,13.7565 139.815,13.2923 L139.815,12.8 C139.815,12.3359 139.816,12.1038 139.96,11.9596 C140.104,11.8154 140.336,11.8154 140.8,11.8154 L141.539,11.8154 C141.655,11.8154 141.713,11.8154 141.749,11.7794 C141.785,11.7433 141.785,11.6853 141.785,11.5693 L141.785,9.84618 C141.785,9.38203 141.785,9.14999 141.929,9.0058 C142.073,8.86157 142.305,8.86157 142.769,8.86157 L143.262,8.86157 Z" id="Path" fill="#FAFAFB" fill-rule="nonzero"></path>
            <path d="M136.862,11.8154 C137.326,11.8154 137.558,11.8154 137.702,11.9596 C137.846,12.1038 137.846,12.3359 137.846,12.8 L137.846,22.1539 C137.846,22.618 137.846,22.8501 137.702,22.9943 C137.558,23.1385 137.326,23.1385 136.862,23.1385 L136.369,23.1385 C135.905,23.1385 135.673,23.1385 135.529,22.9943 C135.385,22.8501 135.385,22.618 135.385,22.1539 L135.385,12.8 C135.385,12.3359 135.385,12.1038 135.529,11.9596 C135.673,11.8154 135.905,11.8154 136.369,11.8154 L136.862,11.8154 Z" id="Path" fill="#FAFAFB" fill-rule="nonzero"></path>
            <path d="M136.687,7.385 C137.456,7.40179 138.075,8.02122 138.092,8.79029 C138.092,8.80596 138.092,8.8245 138.092,8.86157 C138.092,8.89863 138.092,8.91717 138.092,8.93284 C138.075,9.70191 137.456,10.3213 136.687,10.3381 C136.671,10.3385 136.653,10.3385 136.615,10.3385 C136.578,10.3385 136.56,10.3385 136.544,10.3381 C135.775,10.3213 135.156,9.70191 135.139,8.93284 C135.139,8.91717 135.139,8.89863 135.139,8.86157 C135.139,8.8245 135.139,8.80596 135.139,8.79029 C135.156,8.02122 135.775,7.40179 136.544,7.385 C136.56,7.38464 136.578,7.38464 136.615,7.38464 C136.653,7.38464 136.671,7.38464 136.687,7.385 Z" id="Path" fill="#FAFAFB" fill-rule="nonzero"></path>
            <path d="M94.0507,11.7076 C95.2465,11.4452 96.5015,11.587 97.5878,11.8742 C98.3406,12.0732 99.0592,12.3544 99.6865,12.668 C100.085,12.8673 100.285,12.967 100.342,13.1808 C100.4,13.3946 100.268,13.5937 100.006,13.9919 L99.7284,14.4121 C99.4831,14.7839 99.3605,14.9698 99.1846,15.0198 C99.0088,15.0697 98.7861,14.9663 98.3409,14.7597 C97.917,14.5629 97.4386,14.3836 96.9399,14.2517 C96.0827,14.0251 95.2629,13.9641 94.5962,14.1099 L94.5321,14.1247 C93.9334,14.2698 93.6992,14.6473 93.6565,14.9151 C93.6342,15.0548 93.6599,15.1701 93.7079,15.2551 C93.7517,15.3324 93.843,15.4374 94.053,15.5177 L94.3146,15.6169 C95.5982,16.0997 96.537,16.3895 97.8125,16.7472 L97.9082,16.7749 C98.8893,17.0696 99.6719,17.6122 100.143,18.3642 C100.632,19.145 100.717,20.0509 100.448,20.8724 C99.9082,22.5159 98.1249,23.5375 95.9309,23.3659 L95.8261,23.3568 C94.0987,23.1927 93.126,22.8806 91.6682,22.2694 C91.2379,22.089 91.0228,21.9988 90.9465,21.8062 C90.8702,21.6135 90.9663,21.3983 91.1583,20.9681 L91.3614,20.513 C91.5477,20.0956 91.6408,19.8868 91.8273,19.8129 C92.0138,19.739 92.2272,19.8285 92.654,20.0073 C93.9818,20.5636 94.6902,20.7759 96.066,20.9065 L96.1307,20.9122 C97.4752,21.0193 97.9745,20.4054 98.0698,20.115 C98.1226,19.9541 98.1059,19.8006 98.0158,19.6565 C97.9257,19.5127 97.7002,19.2858 97.1797,19.1297 L97.1284,19.1148 C95.8031,18.7432 94.7936,18.432 93.4267,17.918 L93.1483,17.8124 C91.6436,17.2369 90.9769,15.8559 91.1876,14.5333 C91.3938,13.24 92.4051,12.1051 93.9351,11.7343 L94.0507,11.7076 Z" id="Path" fill="#FAFAFB" fill-rule="nonzero"></path>
            <path d="M69.5385,11.692375 C69.6463,11.692375 69.72,11.692375 69.7851,11.6937 L69.9267,11.6985 C72.8908,11.8362 75.2567,14.2477 75.3218,17.2303 L75.3231,17.3377 C75.3231,17.3777 75.3231,17.4231 75.3231,17.477 L75.3231,22.1539 C75.3231,22.618 75.3231,22.8501 75.1789,22.9943 C75.0347,23.1385 74.8026,23.1385 74.3385,23.1385 L73.563,23.1385 C73.3684,23.1385 73.271,23.1385 73.1927,23.1114 C73.0501,23.062 72.9381,22.9499 72.8887,22.8074 C72.8616,22.7291 72.8615,22.6317 72.8615,22.4371 C72.8615,22.3938 72.8615,22.3721 72.8553,22.3593 C72.8437,22.3355 72.8191,22.3221 72.7928,22.3252 C72.7787,22.3268 72.76,22.3389 72.7228,22.3628 C71.91,22.8863 70.9544,23.2077 69.9267,23.2555 L69.7851,23.2603 C69.72,23.2616016 69.6463,23.2616016 69.5385,23.2616016 C69.4846,23.2616016 69.4392,23.2616016 69.3992,23.2616016 L69.2918,23.2603 C66.3092,23.1952 63.8977,20.8293 63.76,17.8652 L63.7552,17.7236 C63.7538984,17.6585 63.7538984,17.5847 63.7538984,17.477 C63.7538984,17.3692 63.7538984,17.2955 63.7552,17.2303 L63.76,17.0888 C63.8977,14.1247 66.3092,11.7588 69.2918,11.6937 L69.3992,11.6925 C69.4392,11.692375 69.4846,11.692375 69.5385,11.692375 Z M69.3456,14.1546 C67.6597,14.1914 66.2967,15.5287 66.2189,17.204 L66.2161,17.2841 C66.2154,17.3156 66.2154,17.3562 66.2154,17.477 C66.2154,17.5977 66.2154,17.6384 66.2161,17.6699 L66.2189,17.7499 C66.2967,19.4253 67.6597,20.7625 69.3456,20.7993 L69.5385,20.8001 C69.6592,20.8001 69.6999,20.8 69.7314,20.7993 L69.8114,20.7966 C71.4868,20.7187 72.824,19.3557 72.8608,17.6699 L72.8615,17.477 L72.8608,17.2841 C72.824,15.5982 71.4868,14.2352 69.8114,14.1574 L69.7314,14.1546 C69.6999,14.1539 69.6592,14.1539 69.5385,14.1539 L69.3456,14.1546 Z" id="Shape" fill="#FAFAFB"></path>
            <path d="M115.646,11.6924 C115.65,11.6924 115.666,11.6926 115.685,11.6932 C115.687,11.6933 115.69,11.6935 115.693,11.6937 L115.693,11.6937 L115.694,11.6938 C115.695,11.6938 115.695,11.6938 115.695,11.6938 C118.815,11.7632 120.919,14.2963 120.983,17.2303 L120.985,17.3377 C120.985,17.3777 120.985,17.4231 120.985,17.477 L120.985,17.6163 L120.983,17.7236 C120.98,17.8761 120.978,17.9523 120.949,18.0403 C120.891,18.214 120.721,18.3803 120.546,18.4342 C120.458,18.4615 120.366,18.4616 120.182,18.4616 L112.811,18.4616 C112.66,18.4616 112.585,18.4616 112.548,18.5153 C112.511,18.5691 112.538,18.6357 112.59,18.7689 C113.049,19.9377 114.174,20.7704 115.499,20.7993 L115.692,20.8001 L115.759,20.8001 C115.761,20.8 115.763,20.7999 115.765,20.7998 C115.774,20.7996 115.784,20.7994 115.793,20.7992 L115.929,20.7952 C116.867,20.7576 117.654,20.5007 118.262,20.1189 C118.716,19.8334 118.944,19.6907 119.107,19.7044 C119.271,19.7181 119.431,19.86 119.749,20.1439 L120.117,20.4714 C120.472,20.7879 120.649,20.9462 120.643,21.1748 C120.637,21.4034 120.47,21.5364 120.137,21.8025 C119.007,22.7054 117.508,23.2315 115.836,23.2604 C115.834,23.2604 115.832,23.2605 115.831,23.2605 C115.826,23.2607 115.822,23.2609 115.818,23.261 C115.803,23.2614 115.79,23.2614 115.785,23.2616 C115.779,23.2616 115.772,23.2616 115.765,23.2616 L115.692,23.2616 C115.638,23.2616 115.593,23.2616 115.553,23.2616 L115.446,23.2603 C112.463,23.1952 110.052,20.8293 109.914,17.8652 L109.909,17.7236 C109.908,17.6585 109.908,17.5847 109.908,17.477 C109.908,17.3692 109.908,17.2955 109.909,17.2303 L109.914,17.0888 C110.052,14.1256 112.462,11.7603 115.443,11.6938 C115.444,11.6938 115.444,11.6937 115.444,11.6937 C115.444,11.6937 115.444,11.6938 115.444,11.6938 C115.445,11.6938 115.445,11.6937 115.446,11.6937 C115.446,11.6937 115.445,11.6937 115.445,11.6937 C115.448,11.6935 115.451,11.6933 115.454,11.6932 C115.473,11.6926 115.489,11.6924 115.492,11.6924 C115.499,11.6924 115.505,11.6924 115.511,11.6924 L115.628,11.6924 C115.633,11.6924 115.64,11.6924 115.646,11.6924 Z M115.499,14.1546 C114.174,14.1835 113.049,15.0162 112.59,16.1849 C112.537,16.3182 112.511,16.3849 112.548,16.4386 C112.585,16.4924 112.66,16.4924 112.811,16.4924 L118.113,16.4924 C118.258,16.4924 118.331,16.4923 118.368,16.4413 C118.405,16.3902 118.383,16.3246 118.339,16.1932 C117.944,15.0033 116.951,14.2144 115.715,14.1573 L115.639,14.1546 L115.612,14.1539 L115.527,14.1539 L115.499,14.1546 Z" id="Shape" fill="#FAFAFB"></path>
            <path d="M49.7231,8.86159 C50.1872,8.86159 50.4193,8.86159 50.5635,9.0057 C50.7077,9.14989 50.7077,9.38205 50.7077,9.84621 L50.7077,11.5693 C50.7077,11.6853 50.7077,11.7433 50.7438,11.7794 C50.7798,11.8154 50.8378,11.8154 50.9539,11.8154 L52.6769,11.8154 C53.141,11.8154 53.3731,11.8154 53.5173,11.9595 C53.6615,12.1037 53.6615,12.3359 53.6615,12.8001 L53.6615,13.2924 C53.6615,13.7565 53.6615,13.9886 53.5173,14.1327 C53.3731,14.2769 53.1411,14.277 52.6769,14.277 L50.954,14.277 C50.8379,14.277 50.7799,14.277 50.7439,14.313 C50.7078,14.3491 50.7079,14.4072 50.7079,14.5235 C50.7088,16.2161 50.719,17.4047 50.8409,18.3115 C50.9667,19.2475 51.1908,19.697 51.5007,20.007 L51.5411,20.0461 C51.8719,20.3567 52.3569,20.5696 53.3525,20.6859 C53.8302,20.7416 54.0691,20.7695 54.1946,20.9174 C54.3201,21.0652 54.3095,21.2919 54.2884,21.7451 L54.2655,22.237 C54.2436,22.7075 54.2326,22.9428 54.072,23.0812 C53.9114,23.2195 53.6868,23.1965 53.2376,23.1505 C51.8888,23.0126 50.7265,22.6814 49.8136,21.8001 L49.7602,21.7476 C48.9167,20.9041 48.5639,19.8484 48.4013,18.6395 C48.2544,17.5462 48.2465,16.1782 48.2462,14.5234 C48.2461,14.4072 48.2461,14.3491 48.2101,14.313 C48.1741,14.277 48.116,14.277 48,14.277 L47.7539,14.277 C47.2897,14.277 47.0577,14.2769 46.9135,14.1327 C46.7693,13.9886 46.7692,13.7565 46.7692,13.2924 L46.7692,12.8001 C46.7692,12.3359 46.7693,12.1037 46.9135,11.9595 C47.0577,11.8154 47.2898,11.8154 47.7539,11.8154 L48,11.8154 C48.116,11.8154 48.1741,11.8154 48.2101,11.7794 C48.2462,11.7433 48.2462,11.6853 48.2462,11.5693 L48.2462,9.84621 C48.2462,9.38205 48.2462,9.14989 48.3904,9.0057 C48.5346,8.86159 48.7667,8.86159 49.2308,8.86159 L49.7231,8.86159 Z" id="Path" fill="#FAFAFB" fill-rule="nonzero"></path>
            <path d="M61.4838,11.8033 C61.933,11.7574 62.1576,11.7344 62.3182,11.8728 C62.4787,12.0111 62.4897,12.2465 62.5117,12.717 L62.5345,13.2087 C62.5556,13.662 62.5663,13.8887 62.4408,14.0366 C62.3152,14.1844 62.0763,14.2123 61.5987,14.2681 C60.603,14.3843 60.1181,14.5972 59.7873,14.9077 L59.7469,14.9469 C59.4369,15.2569 59.2129,15.7065 59.087,16.6425 C58.9564,17.6139 58.9539,18.9087 58.9539,20.8001 L58.9539,22.1539 C58.9539,22.618 58.9538,22.8501 58.8096,22.9943 C58.6654,23.1385 58.4334,23.1385 57.9692,23.1385 L57.4769,23.1385 C57.0128,23.1385 56.7807,23.1385 56.6365,22.9943 C56.4924,22.8501 56.4922974,22.618 56.4922974,22.1539 L56.4922974,20.8001 C56.4922974,18.9783 56.4897,17.488 56.6475,16.3145 C56.81,15.1055 57.1628,14.0499 58.0064,13.2063 L58.0597,13.1539 C58.9726,12.2725 60.1349,11.9412 61.4838,11.8033 Z" id="Path" fill="#FAFAFB" fill-rule="nonzero"></path>
            <path d="M83.4462,11.6923949 C83.6608,11.6923949 83.8012,11.6921 83.9072,11.6961 C84.0425,11.7011 84.1365,11.7134 84.2234,11.7237 L84.3447,11.7397 C86.8799,12.1073 88.6234,14.4722 88.8385,17.1029 L88.8464,17.2157 C88.8623,17.4848 88.8615067,17.8007 88.8615067,18.2613 L88.8615067,22.1539 C88.8615067,22.618 88.8615067,22.8501 88.7173,22.9943 C88.5731,23.1385 88.3411,23.1385 87.8769,23.1385 L87.3846,23.1385 C86.9205,23.1385 86.6884,23.1385 86.5442,22.9943 C86.4001,22.8501 86.4,22.618 86.4,22.1539 L86.4,18.2613 C86.4,17.7581 86.3993,17.5318 86.3898,17.3696 L86.3851,17.3034 C86.2376,15.4988 85.1085,14.34 83.9868,14.1753 L83.9333,14.1682 C83.8277,14.1557 83.8341,14.1566 83.8158,14.1559 C83.7681,14.1542 83.6887,14.1539 83.4462,14.1539 C83.2037,14.1539 83.1242,14.1542 83.0766,14.1559 C83.0674,14.1563 83.0644,14.1562 83.0505,14.1576 L82.959,14.1682 C81.8378,14.3013 80.6934,15.4339 80.5149,17.218 L80.5072,17.3034 C80.4934,17.4727 80.4923,17.6862 80.4923,18.2613 L80.4923,22.1539 C80.4923,22.618 80.4923,22.8501 80.3481,22.9943 C80.2039,23.1385 79.9718,23.1385 79.5077,23.1385 L79.0154,23.1385 C78.5513,23.1385 78.3192,23.1385 78.175,22.9943 C78.0307941,22.8501 78.0307941,22.618 78.0307941,22.1539 L78.0307941,18.2613 C78.0307941,17.7349 78.0298,17.3976 78.0539,17.1029 L78.0653,16.9778 C78.3287,14.356 80.1089,12.0275 82.669,11.7237 L82.8089,11.708 C82.8602,11.703 82.9175,11.6986 82.9851,11.6961 C83.0911,11.6921 83.2315,11.6923949 83.4462,11.6923949 Z" id="Path" fill="#FAFAFB" fill-rule="nonzero"></path>
            <path d="M108.499,5.89524 C108.948,5.84931 109.173,5.82639 109.334,5.96472 C109.494,6.10305 109.505,6.3384 109.527,6.80895 L109.55,7.30065 C109.571,7.75397 109.582,7.98069 109.456,8.12854 C109.331,8.27638 109.092,8.30428 108.614,8.36003 C107.618,8.47623 107.133,8.68913 106.803,8.99969 L106.762,9.03887 C106.452,9.34885 106.228,9.79845 106.102,10.7344 C106.069,10.9855 106.044,11.2582 106.025,11.5573 C106.017,11.6776 106.014,11.7378 106.05,11.7766 C106.087,11.8154 106.147,11.8154 106.269,11.8154 L107.938,11.8154 C108.403,11.8154 108.635,11.8154 108.779,11.9595 C108.923,12.1037 108.923,12.3359 108.923,12.8001 L108.923,13.2924 C108.923,13.7565 108.923,13.9886 108.779,14.1327 C108.635,14.2769 108.403,14.277 107.938,14.277 L106.215,14.277 C106.1,14.277 106.042,14.2769 106.006,14.3129 C105.969,14.3489 105.969,14.4069 105.969,14.5228 C105.969,14.6432 105.969,14.7663 105.969,14.892 L105.969,22.1539 C105.969,22.618 105.969,22.8501 105.825,22.9943 C105.681,23.1385 105.449,23.1385 104.985,23.1385 L104.492,23.1385 C104.028,23.1385 103.796,23.1385 103.652,22.9943 C103.508,22.8501 103.508,22.618 103.508,22.1539 L103.508,14.892 C103.508,14.7676 103.508,14.6447 103.508,14.5234 C103.508,14.4072 103.508,14.3491 103.472,14.313 C103.436,14.277 103.378,14.277 103.262,14.277 L103.015,14.277 C102.551,14.277 102.319,14.2769 102.175,14.1327 C102.031,13.9886 102.031,13.7565 102.031,13.2924 L102.031,12.8001 C102.031,12.3359 102.031,12.1037 102.175,11.9595 C102.319,11.8154 102.551,11.8154 103.015,11.8154 L103.311,11.8154 C103.422,11.8154 103.478,11.8154 103.513,11.7817 C103.549,11.7479 103.552,11.692 103.558,11.5802 C103.581,11.1587 103.614,10.7676 103.663,10.4064 C103.825,9.19745 104.178,8.14181 105.022,7.29825 L105.075,7.24585 C105.988,6.36444 107.15,6.03318 108.499,5.89524 Z" id="Path" fill="#FAFAFB" fill-rule="nonzero"></path>
            <path d="M128.191,11.8033 C128.641,11.7574 128.865,11.7344 129.026,11.8728 C129.186,12.0111 129.197,12.2465 129.219,12.717 L129.242,13.2087 C129.263,13.662 129.274,13.8887 129.148,14.0366 C129.023,14.1844 128.784,14.2123 128.306,14.2681 C127.311,14.3843 126.826,14.5972 126.495,14.9077 L126.455,14.9469 C126.145,15.2569 125.921,15.7065 125.795,16.6425 C125.664,17.6139 125.662,18.9087 125.662,20.8001 L125.662,22.1539 C125.662,22.618 125.662,22.8501 125.517,22.9943 C125.373,23.1385 125.141,23.1385 124.677,23.1385 L124.185,23.1385 C123.72,23.1385 123.488,23.1385 123.344,22.9943 C123.199996,22.8501 123.199996,22.618 123.199996,22.1539 L123.199996,20.8001 C123.199996,18.9783 123.197,17.488 123.355,16.3145 C123.518,15.1055 123.871,14.0499 124.714,13.2063 L124.767,13.1539 C125.68,12.2725 126.843,11.9412 128.191,11.8033 Z" id="Path" fill="#FAFAFB" fill-rule="nonzero"></path>
            <path d="M29.5385,16 C29.5385,8.52291 23.4771,2.46154 16,2.46154 C8.52291,2.46154 2.46154,8.52291 2.46154,16 C2.46154,23.4771 8.52291,29.5385 16,29.5385 C17.1346,29.5385 18.235,29.3991 19.2857,29.1373 L19.3476,29.1236 C19.9866,28.9983 20.6184,29.395 20.7776,30.0339 C20.942,30.6934 20.5406,31.3613 19.881,31.5257 L19.6471,31.5822 C18.4745,31.8557 17.2533,32 16,32 C7.16344,32 0,24.8366 0,16 C0,7.16344 7.16344,0 16,0 C24.8366,0 32,7.16344 32,16 C32,17.5137 31.7893,18.9802 31.3952,20.3709 C31.3927,20.3805 31.3905,20.3901 31.3877,20.3996 C30.2735,24.2994 26.7631,27.4462 22.3975,27.4462 C18.162,27.4462 14.7692,23.952 14.7692,19.6923 L14.7692,12.8175 L10.7165,16.8703 C10.2358,17.351 9.45649,17.351 8.97584,16.8703 C8.4952,16.3897 8.4952,15.6103 8.97584,15.1297 L15.1297,8.97584 L15.1756,8.93221 C15.6587,8.49567 16.4047,8.51021 16.8703,8.97584 L23.0242,15.1297 L23.0678,15.1756 C23.5043,15.6587 23.4898,16.4047 23.0242,16.8703 C22.5585,17.3359 21.8126,17.3505 21.3294,16.9139 L21.2835,16.8703 L17.2308,12.8175 L17.2308,19.6923 C17.2308,22.6379 19.5664,24.9846 22.3975,24.9846 C25.5112,24.9846 28.1577,22.7228 29.0168,19.737 C29.018,19.7326 29.0189,19.7282 29.0202,19.7238 C29.3574,18.5422 29.5385,17.2932 29.5385,16 Z" id="Path" fill="#1D81FF" fill-rule="nonzero"></path>
        </g>
    </g>
</svg>