<?xml version="1.0" encoding="UTF-8"?>
<svg width="44px" height="44px" viewBox="0 0 44 44" version="1.1" xmlns="http://www.w3.org/2000/svg" xmlns:xlink="http://www.w3.org/1999/xlink">
    <title>logo</title>
    <g id="Page-1" stroke="none" stroke-width="1" fill="none" fill-rule="evenodd">
        <g id="logo" fill-rule="nonzero">
            <rect id="Rectangle" x="0" y="0" width="44" height="44"></rect>
            <path d="M38.9231,22 C38.9231,12.6536 31.3464,5.07692 22,5.07692 C12.6536,5.07692 5.07692,12.6536 5.07692,22 C5.07692,31.3464 12.6536,38.9231 22,38.9231 C23.4183,38.9231 24.7938,38.7489 26.1071,38.4216 L26.1845,38.4044 C26.9832,38.2479 27.773,38.7437 27.9721,39.5424 C28.1775,40.3668 27.6757,41.2017 26.8513,41.4072 L26.5589,41.4778 C25.0931,41.8196 23.5667,42 22,42 C10.9543,42 2,33.0457 2,22 C2,10.9543 10.9543,2 22,2 C33.0457,2 42,10.9543 42,22 C42,23.8921 41.7367,25.7252 41.244,27.4636 C41.2409,27.4756 41.2381,27.4876 41.2347,27.4995 C39.8419,32.3742 35.4538,36.3077 29.9968,36.3077 C24.7025,36.3077 20.4615,31.94 20.4615,26.6154 L20.4615,18.0219 L15.3956,23.0879 C14.7948,23.6887 13.8206,23.6887 13.2198,23.0879 C12.619,22.4871 12.619,21.5129 13.2198,20.9121 L20.9121,13.2198 L20.9695,13.1653 C21.5734,12.6196 22.5059,12.6378 23.0879,13.2198 L30.7802,20.9121 L30.8347,20.9695 C31.3804,21.5734 31.3622,22.5059 30.7802,23.0879 C30.1982,23.6699 29.2657,23.6881 28.6618,23.1424 L28.6044,23.0879 L23.5385,18.0219 L23.5385,26.6154 C23.5385,30.2974 26.458,33.2308 29.9968,33.2308 C33.889,33.2308 37.1971,30.4035 38.271,26.6713 C38.2725,26.6658 38.2737,26.6602 38.2752,26.6547 C38.6968,25.1777 38.9231,23.6165 38.9231,22 Z" id="Path" fill="#000000"></path>
        </g>
    </g>
</svg>