<svg width="54" height="54" viewBox="0 0 54 54" fill="none" xmlns="http://www.w3.org/2000/svg">
<path opacity="0.6" fill-rule="evenodd" clip-rule="evenodd" d="M27 0.600098C29.2091 0.600098 31 2.39096 31 4.6001V49.4001C31 51.6092 29.2091 53.4001 27 53.4001C24.7909 53.4001 23 51.6092 23 49.4001V4.6001C23 2.39096 24.7909 0.600098 27 0.600098Z" fill="#1D81FF"/>
<path opacity="0.6" fill-rule="evenodd" clip-rule="evenodd" d="M24.1716 1.77167C25.7337 0.209573 28.2663 0.209573 29.8284 1.77167L52.2284 24.1717C53.7905 25.7338 53.7905 28.2664 52.2284 29.8285C50.6663 31.3906 48.1337 31.3906 46.5716 29.8285L24.1716 7.42852C22.6095 5.86643 22.6095 3.33377 24.1716 1.77167Z" fill="#1D81FF"/>
<path opacity="0.6" fill-rule="evenodd" clip-rule="evenodd" d="M29.8284 1.77167C28.2663 0.209573 25.7337 0.209573 24.1716 1.77167L1.77158 24.1717C0.20948 25.7338 0.20948 28.2664 1.77158 29.8285C3.33367 31.3906 5.86633 31.3906 7.42843 29.8285L29.8284 7.42852C31.3905 5.86643 31.3905 3.33377 29.8284 1.77167Z" fill="#1D81FF"/>
<path d="M52.2285 24.1716C53.7905 25.7337 53.7905 28.2663 52.2285 29.8284C50.6664 31.3905 48.1337 31.3905 46.5716 29.8284C45.0095 28.2663 45.0095 25.7337 46.5716 24.1716C48.1337 22.6095 50.6664 22.6095 52.2285 24.1716Z" fill="#1D81FF"/>
<path d="M7.4284 24.1716C8.9905 25.7337 8.9905 28.2663 7.4284 29.8284C5.86631 31.3905 3.33365 31.3905 1.77155 29.8284C0.209451 28.2663 0.209451 25.7337 1.77155 24.1716C3.33365 22.6095 5.86631 22.6095 7.4284 24.1716Z" fill="#1D81FF"/>
<path d="M29.8284 1.77167C31.3905 3.33377 31.3905 5.86643 29.8284 7.42852C28.2663 8.99062 25.7337 8.99062 24.1716 7.42852C22.6095 5.86643 22.6095 3.33377 24.1716 1.77167C25.7337 0.209573 28.2663 0.209573 29.8284 1.77167Z" fill="#1D81FF"/>
<path d="M29.8284 46.5715C31.3905 48.1336 31.3905 50.6662 29.8284 52.2283C28.2663 53.7904 25.7337 53.7904 24.1716 52.2283C22.6095 50.6662 22.6095 48.1336 24.1716 46.5715C25.7337 45.0094 28.2663 45.0094 29.8284 46.5715Z" fill="#1D81FF"/>
</svg>
