<svg height="112" viewBox="0 0 112 112" width="112" xmlns="http://www.w3.org/2000/svg" xmlns:xlink="http://www.w3.org/1999/xlink"><defs><path id="a" d="m96.5517241 68c8.3798129 0 15.1606879-6.4077602 15.4482759-15 0-10.1177186-7.516547-19-17.3793103-19 0-10.1180211-7.5177156-19-17.3793104-19-3.0731631 0-7.1308824.5982659-9.6551724 2-4.1422673-9.13714008-12.8300436-15.47990915-23.1724138-16-15.3769215-.7727237-27.9164123 12.2057575-28 28s0 3.0009805 0 5c-9.30336924.6320359-16.4137931 9.2958731-16.4137931 19 .28788071 8.5922398 7.068463 15 15.4482759 15z"/><path id="b" d="m70.6796114 43.0000303h-24.3347838c-1.4931803 0-2.5496336 1.4970508-2.8965517 2.9999697-.9405078 4.0771027-4.7873372 6.9369081-8.6896552 8-1.6489573.448-2.8953827 2.233427-2.8965517 4v22c0 11.9210378 6.0227399 18.1583135 15.4482758 25l10.6206897 8 11.5862069-8c9.4243668-6.8416865 14.4827586-13.0789622 14.4827586-25v-22c0-1.7356973-.3121804-3.5468541-1.9310345-4-3.8669539-1.0842811-7.7558695-3.9489297-8.6896552-8-.3457491-1.5017081-1.4065863-2.9999697-2.8965517-2.9999697"/><mask id="c" fill="#fff"><use fill="#fff" fill-rule="evenodd" xlink:href="#a"/></mask><mask id="d" fill="#fff"><use fill="#fff" fill-rule="evenodd" xlink:href="#b"/></mask></defs><g fill="none" fill-rule="evenodd"><g transform="translate(0 -1)"><use fill="#ddebfd" xlink:href="#a"/><path d="m-20.276 1h151.586v73h-151.586z" fill="#fff" fill-opacity=".48" mask="url(#c)"/><ellipse cx="56.966" cy="85" fill="#ddebfd" mask="url(#c)" rx="51.172" ry="53"/><path d="m44.4083302-8.00008572.1927586.00479226c9.669372.48624752 18.6356474 8.60611729 24.5312468 19.38708136l.3337334.6202121.2493987-.0683475c2.2038625-.5865426 4.6704202-.9026999 7.0510374-.9399284l.4748742-.0037241c10.5537887 0 19.1471301 8.3235125 20.9099643 18.9610461l.0572081.3659539.2264947.0430932c9.8828726 1.9435765 17.2596916 11.2984115 17.4242146 22.2557489l.002808.3741579-.002319.1385812c-.354811 10.6006633-8.632575 18.6840656-18.9666064 18.8585393l-.3414195.0028795h-81.1034482c-2.1329618 0-3.862069-1.790861-3.862069-4 0-2.1421954 1.6259006-3.8910789 3.6693128-3.9951047l.1927562-.0048953h81.1034482c6.2944059 0 6.4037909-3.8066252 6.7586209-10v-1c-.154617-7.9543107-4.3664156-14.8268594-11.5862071-15l-.293436-.0035157c-2.1329618 0-3.862069-1.790861-3.862069-4 0-8.2071508-2.8756414-14.9964843-10.3272536-14.9964843-2.8201034 0-5.9220328.5654774-7.6172669 1.4131386l-.2130012.1121415c-1.9508902 1.0833261-4.3799781.2500654-5.320794-1.8252152-4.6588089-10.27654329-12.6015288-18.33956974-19.8638198-18.70477144-2.1304521-.10713488-3.7736696-1.98273868-3.670229-4.18927833.100306-2.13967481 1.8061831-3.8048344 3.8520618-3.80610085z" fill="#ddebfd" fill-rule="nonzero" mask="url(#c)"/><use fill="#00c0a6" xlink:href="#b"/><path d="m11.586 38h81.103v76h-81.103z" fill="#fff" fill-opacity=".28" mask="url(#d)"/><ellipse cx="56.483" cy="121.261" fill="#00c0a6" mask="url(#d)" rx="45.862" ry="47.5"/><path d="m57.9310345 113 11.5862069-8c9.4243668-6.8416865 14.4827586-13.0789622 14.4827586-25v-22c0-1.7356973-.3121804-3.5468541-1.9310345-4-3.8669539-1.0842811-8.7213867-7.9489297-9.6551724-12" mask="url(#d)" stroke="#00c0a6" stroke-linecap="round" stroke-linejoin="round" stroke-width="8"/></g><path d="m8.88797763 12.4064c.00587605-1.3156055-.0048967-2.92512593 0-4 .01469012-3.22546394 1.35985197-5.00841718 3.86206897-5.00002967 2.502217.00928857 3.8767591 1.77456573 3.862069 5.00002967-.0048967 1.04962253.0048967 2.8594719 0 4zm3.86206897-12.00027224c4.5482578.01778574 7.7241379 3.30847537 7.7241379 7.00027224v5h2.8965518c1.1368418.0041699 1.9363759.9358466 1.9310344 2-.0115731 5.1506357.0222561 10.8518662 0 16-.0044512 1.0658213-.7933023 2.0041699-1.9310344 2-3.0562085-.0116757-6.3178563.0074325-9.3740647-.0042431-3.7096477-.0133436-8.15766694.0184207-11.86731466.0042431-1.13684188-.0041699-1.9354857-.9350127-1.93124692-2v-15c.00466366-1.0649873.79529528-3.0041699 1.93124692-3h2.89655173v-5c0-3.69179687 3.17588014-7.0175135 7.72413793-7.00027224zm0 18.00027224c-1.0664809 0-1.9310345.8954305-1.9310345 2 0 .7401308.3881708 1.3863616.9651628 1.7322232l.0003545 2.3022596c0 .5332404.4322768.9655172.9655172.9655172s.9655172-.4322768.9655172-.9655172l.0003545-2.3022596c.576992-.3458616.9651628-.9920924.9651628-1.7322232 0-1.1045695-.8645536-2-1.9310345-2z" fill="#fff" transform="translate(44.215471 56.5936)"/></g></svg>