<?xml version="1.0" encoding="UTF-8"?><svg width="160" height="160" viewBox="0 0 144 144" xmlns="http://www.w3.org/2000/svg" xmlns:xlink="http://www.w3.org/1999/xlink"><view id="aftereffects" viewBox="0 0 24 24"/><svg width="24" height="24" viewBox="0 0 24 24" xmlns="http://www.w3.org/2000/svg"><g fill="none" fill-rule="evenodd"><path d="M0 0h24v24H0z"/><path d="M15.905 1.228c.552.229.985.662 1.852 1.53l3.486 3.485c.867.867 1.3 1.3 1.529 1.852.212.512.227 1.077.228 2.137v7.396c-.005 2.415-.068 3.682-.879 4.493-.845.845-2.185.878-4.8.879H7c-2.828 0-4.243 0-5.121-.879-.845-.845-.878-2.185-.879-4.8V7c0-2.828 0-4.243.879-5.121C2.656 1.1 3.852 1.012 6.076 1h7.928c.91.004 1.429.032 1.901.227zM16 2.5a.5.5 0 00-.5.5v3.5l.005.15A2 2 0 0017.5 8.5H21l.09-.008A.5.5 0 0021 7.5h-3.5l-.117-.007A1 1 0 0116.5 6.5V3l-.008-.09A.5.5 0 0016 2.5z" fill="#FFF" fill-rule="nonzero"/></g></svg><view id="audio" viewBox="24 0 24 24"/><svg width="24" height="24" viewBox="0 0 24 24" x="24" xmlns="http://www.w3.org/2000/svg"><g fill="none" fill-rule="evenodd"><path d="M0 0h24v24H0z"/><path d="M15.343 5.914l.122.485-.122-.485zM10.01 7.247l-.121-.485.121.486zm6.49 7.003c0 .69-.56 1.25-1.25 1.25v1a2.25 2.25 0 002.25-2.25h-1zm-1.25 1.25c-.69 0-1.25-.56-1.25-1.25h-1a2.25 2.25 0 002.25 2.25v-1zM14 14.25c0-.69.56-1.25 1.25-1.25v-1A2.25 2.25 0 0013 14.25h1zM15.25 13c.69 0 1.25.56 1.25 1.25h1A2.25 2.25 0 0015.25 12v1zM8.5 16.25c0 .69-.56 1.25-1.25 1.25v1a2.25 2.25 0 002.25-2.25h-1zM7.25 17.5c-.69 0-1.25-.56-1.25-1.25H5a2.25 2.25 0 002.25 2.25v-1zM6 16.25c0-.69.56-1.25 1.25-1.25v-1A2.25 2.25 0 005 16.25h1zM7.25 15c.69 0 1.25.56 1.25 1.25h1A2.25 2.25 0 007.25 14v1zm2.25 1.25V8.541h-1v7.709h1zm.631-8.517l5.334-1.334-.243-.97-5.333 1.333.242.97zm6.369-.525v7.042h1V7.208h-1zm-1.035-.809a.833.833 0 011.035.809h1a1.833 1.833 0 00-2.278-1.779l.243.97zM9.5 8.541c0-.382.26-.716.631-.808l-.242-.97A1.833 1.833 0 008.5 8.54h1z" fill="#FFF" fill-rule="nonzero"/></g></svg><view id="cad" viewBox="0 24 24 24"/><svg width="24" height="24" viewBox="0 0 24 24" y="24" xmlns="http://www.w3.org/2000/svg"><g fill="none" fill-rule="evenodd"><path d="M0 0h24v24H0z"/><rect stroke="#FFF" x="6.5" y="6.5" width="3" height="3" rx="1"/><path d="M8 9a.5.5 0 01.492.41l.008.09v13a.5.5 0 01-.992.09L7.5 22.5v-13A.5.5 0 018 9zM8 1a.5.5 0 01.492.41l.008.09v5a.5.5 0 01-.992.09L7.5 6.5v-5A.5.5 0 018 1zM22.541 7.566a.5.5 0 01.09.992l-.09.008h-13a.5.5 0 01-.09-.992l.09-.008h13zM6.541 7.566a.5.5 0 01.09.992l-.09.008h-5a.5.5 0 01-.09-.992l.09-.008h5z" fill="#FFF" fill-rule="nonzero"/></g></svg><view id="compressed" viewBox="24 24 24 24"/><svg width="24" height="24" viewBox="0 0 24 24" x="24" y="24" xmlns="http://www.w3.org/2000/svg"><g fill="none" fill-rule="evenodd"><path d="M0 0h24v24H0z"/><path d="M1.879 1.879C1 2.757 1 4.172 1 7v10c0 2.828 0 4.243.879 5.121C2.757 23 4.172 23 7 23h10c2.828 0 4.243 0 5.121-.879C23 21.243 23 19.828 23 17V7c0-2.828 0-4.243-.879-5.121C21.243 1 19.828 1 17 1H7c-2.828 0-4.243 0-5.121.879zM10.5 2a.5.5 0 000 1h3a.5.5 0 000-1h-3zM10 4.5a.5.5 0 01.5-.5h3a.5.5 0 010 1h-3a.5.5 0 01-.5-.5zm0 2a.5.5 0 01.5-.5h3a.5.5 0 010 1h-3a.5.5 0 01-.5-.5zm0 2a.5.5 0 01.5-.5h3a.5.5 0 010 1h-3a.5.5 0 01-.5-.5zm0 2a.5.5 0 01.5-.5h3a.5.5 0 010 1h-3a.5.5 0 01-.5-.5zm1 1.5a1 1 0 00-1 1v4a2 2 0 104 0v-4a1 1 0 00-1-1h-2zm2 5a1 1 0 11-2 0 1 1 0 012 0z" fill="#FFF"/></g></svg><view id="dmg" viewBox="48 0 24 24"/><svg width="24" height="24" viewBox="0 0 24 24" x="48" xmlns="http://www.w3.org/2000/svg"><g fill="none" fill-rule="evenodd"><path d="M0 0h24v24H0z"/><path d="M15.905 1.228c.552.229.985.662 1.852 1.53l3.486 3.485c.867.867 1.3 1.3 1.529 1.852.212.512.227 1.077.228 2.137v7.396c-.005 2.415-.068 3.682-.879 4.493-.845.845-2.185.878-4.8.879H7c-2.828 0-4.243 0-5.121-.879-.845-.845-.878-2.185-.879-4.8V7c0-2.828 0-4.243.879-5.121C2.656 1.1 3.852 1.012 6.076 1h7.928c.91.004 1.429.032 1.901.227zM16 2.5a.5.5 0 00-.5.5v3.5l.005.15A2 2 0 0017.5 8.5H21l.09-.008A.5.5 0 0021 7.5h-3.5l-.117-.007A1 1 0 0116.5 6.5V3l-.008-.09A.5.5 0 0016 2.5z" fill="#FFF" fill-rule="nonzero"/></g></svg><view id="ex-drive" viewBox="48 24 24 24"/><svg width="24" height="24" viewBox="0 0 24 24" x="48" y="24" xmlns="http://www.w3.org/2000/svg"><g fill="none" fill-rule="evenodd"><path d="M0 0h24v24H0z"/><path d="M15.905 1.228c.552.229.985.662 1.852 1.53l3.486 3.485c.867.867 1.3 1.3 1.529 1.852.212.512.227 1.077.228 2.137v7.396c-.005 2.415-.068 3.682-.879 4.493-.845.845-2.185.878-4.8.879H7c-2.828 0-4.243 0-5.121-.879-.845-.845-.878-2.185-.879-4.8V7c0-2.828 0-4.243.879-5.121C2.656 1.1 3.852 1.012 6.076 1h7.928c.91.004 1.429.032 1.901.227zM16 2.5a.5.5 0 00-.5.5v3.5l.005.15A2 2 0 0017.5 8.5H21l.09-.008A.5.5 0 0021 7.5h-3.5l-.117-.007A1 1 0 0116.5 6.5V3l-.008-.09A.5.5 0 0016 2.5z" fill="#FFF" fill-rule="nonzero"/></g></svg><view id="excel" viewBox="0 48 24 24"/><svg width="24" height="24" viewBox="0 0 24 24" y="48" xmlns="http://www.w3.org/2000/svg"><g fill="none" fill-rule="evenodd"><path d="M0 0h24v24H0z"/><path d="M14.542 18H18l-3.991-6.05L17.892 6h-3.25l-2.06 3.565a11.61 11.61 0 00-.406 1.046h-.036a5.926 5.926 0 00-.388-1.013L9.9 6H6.352l3.774 6L6 18h3.476l2.24-3.874c.156-.374.255-.653.298-.837h.036c.09.39.177.658.261.803L14.542 18z" fill="#FFF"/></g></svg><view id="executable" viewBox="24 48 24 24"/><svg width="24" height="24" viewBox="0 0 24 24" x="24" y="48" xmlns="http://www.w3.org/2000/svg"><g fill="none" fill-rule="evenodd"><path d="M0 0h24v24H0z"/><path d="M15.905 1.228c.552.229.985.662 1.852 1.53l3.486 3.485c.867.867 1.3 1.3 1.529 1.852.212.512.227 1.077.228 2.137v7.396c-.005 2.415-.068 3.682-.879 4.493-.845.845-2.185.878-4.8.879H7c-2.828 0-4.243 0-5.121-.879-.845-.845-.878-2.185-.879-4.8V7c0-2.828 0-4.243.879-5.121C2.656 1.1 3.852 1.012 6.076 1h7.928c.91.004 1.429.032 1.901.227zM16 2.5a.5.5 0 00-.5.5v3.5l.005.15A2 2 0 0017.5 8.5H21l.09-.008A.5.5 0 0021 7.5h-3.5l-.117-.007A1 1 0 0116.5 6.5V3l-.008-.09A.5.5 0 0016 2.5z" fill="#FFF" fill-rule="nonzero"/></g></svg><view id="experiencedesign" viewBox="48 48 24 24"/><svg width="24" height="24" viewBox="0 0 24 24" x="48" y="48" xmlns="http://www.w3.org/2000/svg"><g fill="none" fill-rule="evenodd"><path d="M0 0h24v24H0z"/><path d="M15.905 1.228c.552.229.985.662 1.852 1.53l3.486 3.485c.867.867 1.3 1.3 1.529 1.852.212.512.227 1.077.228 2.137v7.396c-.005 2.415-.068 3.682-.879 4.493-.845.845-2.185.878-4.8.879H7c-2.828 0-4.243 0-5.121-.879-.845-.845-.878-2.185-.879-4.8V7c0-2.828 0-4.243.879-5.121C2.656 1.1 3.852 1.012 6.076 1h7.928c.91.004 1.429.032 1.901.227zM16 2.5a.5.5 0 00-.5.5v3.5l.005.15A2 2 0 0017.5 8.5H21l.09-.008A.5.5 0 0021 7.5h-3.5l-.117-.007A1 1 0 0116.5 6.5V3l-.008-.09A.5.5 0 0016 2.5z" fill="#FFF" fill-rule="nonzero"/></g></svg><view id="font" viewBox="72 0 24 24"/><svg width="24" height="24" viewBox="0 0 24 24" x="72" xmlns="http://www.w3.org/2000/svg"><g fill="none" fill-rule="evenodd"><path d="M0 0h24v24H0z"/><path d="M15.905 1.228c.552.229.985.662 1.852 1.53l3.486 3.485c.867.867 1.3 1.3 1.529 1.852.212.512.227 1.077.228 2.137v7.396c-.005 2.415-.068 3.682-.879 4.493-.845.845-2.185.878-4.8.879H7c-2.828 0-4.243 0-5.121-.879-.845-.845-.878-2.185-.879-4.8V7c0-2.828 0-4.243.879-5.121C2.656 1.1 3.852 1.012 6.076 1h7.928c.91.004 1.429.032 1.901.227zM16 2.5a.5.5 0 00-.5.5v3.5l.005.15A2 2 0 0017.5 8.5H21l.09-.008A.5.5 0 0021 7.5h-3.5l-.117-.007A1 1 0 0116.5 6.5V3l-.008-.09A.5.5 0 0016 2.5z" fill="#FFF" fill-rule="nonzero"/></g></svg><view id="generic" viewBox="72 24 24 24"/><svg width="24" height="24" viewBox="0 0 24 24" x="72" y="24" xmlns="http://www.w3.org/2000/svg"><g fill="none" fill-rule="evenodd"><path d="M0 0h24v24H0z"/><path d="M15.905 1.228c.552.229.985.662 1.852 1.53l3.486 3.485c.867.867 1.3 1.3 1.529 1.852.212.512.227 1.077.228 2.137v7.396c-.005 2.415-.068 3.682-.879 4.493-.845.845-2.185.878-4.8.879H7c-2.828 0-4.243 0-5.121-.879-.845-.845-.878-2.185-.879-4.8V7c0-2.828 0-4.243.879-5.121C2.656 1.1 3.852 1.012 6.076 1h7.928c.91.004 1.429.032 1.901.227zM16 2.5a.5.5 0 00-.5.5v3.5l.005.15A2 2 0 0017.5 8.5H21l.09-.008A.5.5 0 0021 7.5h-3.5l-.117-.007A1 1 0 0116.5 6.5V3l-.008-.09A.5.5 0 0016 2.5z" fill="#FFF" fill-rule="nonzero"/></g></svg><view id="illustrator" viewBox="72 48 24 24"/><svg width="24" height="24" viewBox="0 0 24 24" x="72" y="48" xmlns="http://www.w3.org/2000/svg"><g fill="none" fill-rule="evenodd"><path d="M0 0h24v24H0z"/><path d="M15.905 1.228c.552.229.985.662 1.852 1.53l3.486 3.485c.867.867 1.3 1.3 1.529 1.852.212.512.227 1.077.228 2.137v7.396c-.005 2.415-.068 3.682-.879 4.493-.845.845-2.185.878-4.8.879H7c-2.828 0-4.243 0-5.121-.879-.845-.845-.878-2.185-.879-4.8V7c0-2.828 0-4.243.879-5.121C2.656 1.1 3.852 1.012 6.076 1h7.928c.91.004 1.429.032 1.901.227zM16 2.5a.5.5 0 00-.5.5v3.5l.005.15A2 2 0 0017.5 8.5H21l.09-.008A.5.5 0 0021 7.5h-3.5l-.117-.007A1 1 0 0116.5 6.5V3l-.008-.09A.5.5 0 0016 2.5z" fill="#FFF" fill-rule="nonzero"/></g></svg><view id="image" viewBox="0 72 24 24"/><svg width="24" height="24" viewBox="0 0 24 24" y="72" xmlns="http://www.w3.org/2000/svg"><g fill="none" fill-rule="evenodd"><path d="M0 0h24v24H0z"/><path d="M7.94 11.354l-4.586 4.585c-.945.945-.276 2.561 1.06 2.561h9.172c1.336 0 2.005-1.616 1.06-2.56l-4.585-4.586a1.5 1.5 0 00-2.122 0zm1.414.707l4.585 4.585a.5.5 0 01-.353.854H4.414a.5.5 0 01-.353-.854l4.585-4.585a.5.5 0 01.708 0z" fill="#FFF" fill-rule="nonzero"/><path d="M14.94 12.354l-1.586 1.585a1.5 1.5 0 000 2.122l1.853 1.853a2 2 0 001.414.586h2.965c1.336 0 2.005-1.616 1.06-2.56l-3.585-3.586a1.5 1.5 0 00-2.122 0zm1.414.707l3.585 3.585a.5.5 0 01-.353.854H16.62a1 1 0 01-.707-.293l-1.853-1.853a.5.5 0 010-.708l1.585-1.585a.5.5 0 01.708 0zM13.5 5.5a2 2 0 100 4 2 2 0 000-4zm0 1a1 1 0 110 2 1 1 0 010-2z" fill="#FFF" fill-rule="nonzero"/><path fill="#FFF" fill-rule="nonzero" d="M17 17.5v1h-4v-1z"/></g></svg><view id="indesign" viewBox="24 72 24 24"/><svg width="24" height="24" viewBox="0 0 24 24" x="24" y="72" xmlns="http://www.w3.org/2000/svg"><g fill="none" fill-rule="evenodd"><path d="M0 0h24v24H0z"/><path d="M15.905 1.228c.552.229.985.662 1.852 1.53l3.486 3.485c.867.867 1.3 1.3 1.529 1.852.212.512.227 1.077.228 2.137v7.396c-.005 2.415-.068 3.682-.879 4.493-.845.845-2.185.878-4.8.879H7c-2.828 0-4.243 0-5.121-.879-.845-.845-.878-2.185-.879-4.8V7c0-2.828 0-4.243.879-5.121C2.656 1.1 3.852 1.012 6.076 1h7.928c.91.004 1.429.032 1.901.227zM16 2.5a.5.5 0 00-.5.5v3.5l.005.15A2 2 0 0017.5 8.5H21l.09-.008A.5.5 0 0021 7.5h-3.5l-.117-.007A1 1 0 0116.5 6.5V3l-.008-.09A.5.5 0 0016 2.5z" fill="#FFF" fill-rule="nonzero"/></g></svg><view id="keynote" viewBox="48 72 24 24"/><svg width="24" height="24" viewBox="0 0 24 24" x="48" y="72" xmlns="http://www.w3.org/2000/svg"><g fill="none" fill-rule="evenodd"><path d="M0 0h24v24H0z"/><path d="M12 11v8m0 0H9m3 0h3M7.847 5h8.306a1 1 0 01.986.836l.667 4A1 1 0 0116.82 11H7.18a1 1 0 01-.986-1.164l.667-4A1 1 0 017.847 5z" stroke="#FFF" stroke-linecap="round" stroke-linejoin="round"/></g></svg><view id="numbers" viewBox="72 72 24 24"/><svg width="24" height="24" viewBox="0 0 24 24" x="72" y="72" xmlns="http://www.w3.org/2000/svg"><g fill="none" fill-rule="evenodd"><path d="M0 0h24v24H0z"/><path d="M14.5 4.5H14a1 1 0 00-1 1v13a1 1 0 001 1h.5a1 1 0 001-1v-13a1 1 0 00-1-1zm-.5 1h.5v13H14v-13zM19 8.5h-.5a1 1 0 00-1 1v9a1 1 0 001 1h.5a1 1 0 001-1v-9a1 1 0 00-1-1zm-.5 1h.5v9h-.5v-9zM10 11.5h-.5a1 1 0 00-1 1v6a1 1 0 001 1h.5a1 1 0 001-1v-6a1 1 0 00-1-1zm-.5 1h.5v6h-.5v-6zM5.5 15.5H5a1 1 0 00-1 1v2a1 1 0 001 1h.5a1 1 0 001-1v-2a1 1 0 00-1-1zm-.5 1h.5v2H5v-2z" fill="#FFF" fill-rule="nonzero"/></g></svg><view id="open-office" viewBox="96 0 24 24"/><svg width="24" height="24" viewBox="0 0 24 24" x="96" xmlns="http://www.w3.org/2000/svg"><g fill="none" fill-rule="evenodd"><path d="M0 0h24v24H0z"/><path d="M15.905 1.228c.552.229.985.662 1.852 1.53l3.486 3.485c.867.867 1.3 1.3 1.529 1.852.212.512.227 1.077.228 2.137v7.396c-.005 2.415-.068 3.682-.879 4.493-.845.845-2.185.878-4.8.879H7c-2.828 0-4.243 0-5.121-.879-.845-.845-.878-2.185-.879-4.8V7c0-2.828 0-4.243.879-5.121C2.656 1.1 3.852 1.012 6.076 1h7.928c.91.004 1.429.032 1.901.227zM16 2.5a.5.5 0 00-.5.5v3.5l.005.15A2 2 0 0017.5 8.5H21l.09-.008A.5.5 0 0021 7.5h-3.5l-.117-.007A1 1 0 0116.5 6.5V3l-.008-.09A.5.5 0 0016 2.5z" fill="#FFF" fill-rule="nonzero"/></g></svg><view id="pages" viewBox="96 24 24 24"/><svg width="24" height="24" viewBox="0 0 24 24" x="96" y="24" xmlns="http://www.w3.org/2000/svg"><g fill="none" fill-rule="evenodd"><path d="M0 0h24v24H0z"/><path d="M18.5 18.5a.5.5 0 01.09.992l-.09.008h-8a.5.5 0 01-.09-.992l.09-.008h8zm-.146-12.854c.706.706.745 1.827.117 2.579l-.117.129-8.683 8.682a6.5 6.5 0 01-1.754 1.25l-.282.129-2.208.946a.6.6 0 01-.818-.7l.03-.088.946-2.208a6.5 6.5 0 011.165-1.811l.213-.225 8.683-8.683a1.914 1.914 0 012.708 0zM11 11.707l-3.33 3.33a5.501 5.501 0 00-1.04 1.45l-.126.272-.552 1.288 1.289-.551a5.5 5.5 0 001.505-.96l.218-.207L12.293 13 11 11.707zm5.447-5.435l-.093.082L11.707 11 13 12.293l4.646-4.647a.914.914 0 00-1.199-1.374z" fill="#FFF" fill-rule="nonzero"/></g></svg><view id="pdf" viewBox="96 48 24 24"/><svg width="24" height="24" viewBox="0 0 24 24" x="96" y="48" xmlns="http://www.w3.org/2000/svg"><g fill="none" fill-rule="evenodd"><path d="M0 0h24v24H0z"/><path d="M9.955 5.105c.74-1.242 1.835-.596 2.302 1.179.35 1.327.206 2.874-.335 4.595l-.046.14.24.354c.338.48.716.948 1.12 1.386l.3.315c1.648-.058 3.274.133 4.163.439 1.478.508 2.222 1.44 1.596 2.275-.508.678-1.767.795-3.156.317-.859-.295-1.867-.965-2.844-1.87l-.147-.14-.386.028a14.12 14.12 0 00-1.935.301l-.463.116-.06.019a27.091 27.091 0 01-1.082 1.79l-.182.273-.273.393-.048.065c-1.116 1.53-2.591 2.31-3.552 1.93-1.21-.48-.76-1.956.845-3.344.961-.831 2.11-1.454 3.395-1.881l.215-.069.27-.52a19.9 19.9 0 00.698-1.554l.187-.497a9.72 9.72 0 01-.964-2.118c-.452-1.48-.369-3.066.142-3.922zM8.848 15.07l-.132.058a8.453 8.453 0 00-2.05 1.295c-.648.561-1.027 1.06-1.137 1.423-.056.183-.043.215.007.235.416.165 1.387-.328 2.237-1.407l.236-.318.288-.42.226-.345.137-.215.188-.306zm5.788-.998l.215.167c.581.438 1.138.758 1.613.921 1.026.353 1.845.277 2.031.03.014-.02.013-.033-.06-.125-.16-.2-.52-.42-1.06-.605-.516-.177-1.37-.316-2.342-.37l-.397-.018zm-3.179-1.904l-.017.047-.003-.006-.074.184-.204.467-.197.422.023-.008-.056.105.032-.006c.146-.03.293-.057.44-.082l.446-.07.359-.044-.04-.04.063-.003-.048-.054-.309-.37-.296-.378-.119-.164zm-.603-6.644v.013l-.02.046-.02.036c-.352.588-.42 1.888-.044 3.117.057.187.123.376.2.567l.121.288.096.205.049-.203c.207-.928.265-1.778.158-2.533l-.048-.278-.056-.243c-.115-.435-.243-.739-.351-.907l-.045-.063-.04-.045z" fill="#FFF" fill-rule="nonzero"/></g></svg><view id="photoshop" viewBox="96 72 24 24"/><svg width="24" height="24" viewBox="0 0 24 24" x="96" y="72" xmlns="http://www.w3.org/2000/svg"><g fill="none" fill-rule="evenodd"><path d="M0 0h24v24H0z"/><path d="M15.905 1.228c.552.229.985.662 1.852 1.53l3.486 3.485c.867.867 1.3 1.3 1.529 1.852.212.512.227 1.077.228 2.137v7.396c-.005 2.415-.068 3.682-.879 4.493-.845.845-2.185.878-4.8.879H7c-2.828 0-4.243 0-5.121-.879-.845-.845-.878-2.185-.879-4.8V7c0-2.828 0-4.243.879-5.121C2.656 1.1 3.852 1.012 6.076 1h7.928c.91.004 1.429.032 1.901.227zM16 2.5a.5.5 0 00-.5.5v3.5l.005.15A2 2 0 0017.5 8.5H21l.09-.008A.5.5 0 0021 7.5h-3.5l-.117-.007A1 1 0 0116.5 6.5V3l-.008-.09A.5.5 0 0016 2.5z" fill="#FFF" fill-rule="nonzero"/></g></svg><view id="powerpoint" viewBox="0 96 24 24"/><svg width="24" height="24" viewBox="0 0 24 24" y="96" xmlns="http://www.w3.org/2000/svg"><g fill="none" fill-rule="evenodd"><path d="M0 0h24v24H0z"/><path d="M10.934 13.866V18H8.23V6h4.234c3.024 0 4.536 1.275 4.536 3.824 0 1.205-.434 2.18-1.302 2.925-.867.745-2.026 1.117-3.476 1.117h-1.29zm0-5.79v3.74h1.063c1.439 0 2.159-.63 2.159-1.891 0-1.233-.72-1.85-2.16-1.85h-1.062z" fill="#FFF"/></g></svg><view id="premiere" viewBox="24 96 24 24"/><svg width="24" height="24" viewBox="0 0 24 24" x="24" y="96" xmlns="http://www.w3.org/2000/svg"><g fill="none" fill-rule="evenodd"><path d="M0 0h24v24H0z"/><path d="M15.905 1.228c.552.229.985.662 1.852 1.53l3.486 3.485c.867.867 1.3 1.3 1.529 1.852.212.512.227 1.077.228 2.137v7.396c-.005 2.415-.068 3.682-.879 4.493-.845.845-2.185.878-4.8.879H7c-2.828 0-4.243 0-5.121-.879-.845-.845-.878-2.185-.879-4.8V7c0-2.828 0-4.243.879-5.121C2.656 1.1 3.852 1.012 6.076 1h7.928c.91.004 1.429.032 1.901.227zM16 2.5a.5.5 0 00-.5.5v3.5l.005.15A2 2 0 0017.5 8.5H21l.09-.008A.5.5 0 0021 7.5h-3.5l-.117-.007A1 1 0 0116.5 6.5V3l-.008-.09A.5.5 0 0016 2.5z" fill="#FFF" fill-rule="nonzero"/></g></svg><view id="raw" viewBox="48 96 24 24"/><svg width="24" height="24" viewBox="0 0 24 24" x="48" y="96" xmlns="http://www.w3.org/2000/svg"><g fill="none" fill-rule="evenodd"><path d="M0 0h24v24H0z"/><path d="M15.84 4.787l-.001 8.563 3.95-2.28.376.65-7.416 4.279 3.953 2.282-.376.65-7.416-4.283v4.565h-.75V10.65l-3.95 2.282-.375-.65L11.25 8 7.299 5.719l.375-.65 7.415 4.282V4.787h.75zm-3.841 3.645L8.91 10.216v3.566L12 15.567l3.089-1.784v-3.567l-3.09-1.784z" fill="#FFF" fill-rule="nonzero"/><path d="M12 3.5a8.5 8.5 0 100 17 8.5 8.5 0 000-17zm0 1a7.5 7.5 0 110 15 7.5 7.5 0 010-15z" fill="#FFF" fill-rule="nonzero"/></g></svg><view id="sketch" viewBox="72 96 24 24"/><svg width="24" height="24" viewBox="0 0 24 24" x="72" y="96" xmlns="http://www.w3.org/2000/svg"><g fill="none" fill-rule="evenodd"><path d="M0 0h24v24H0z"/><path d="M15.905 1.228c.552.229.985.662 1.852 1.53l3.486 3.485c.867.867 1.3 1.3 1.529 1.852.212.512.227 1.077.228 2.137v7.396c-.005 2.415-.068 3.682-.879 4.493-.845.845-2.185.878-4.8.879H7c-2.828 0-4.243 0-5.121-.879-.845-.845-.878-2.185-.879-4.8V7c0-2.828 0-4.243.879-5.121C2.656 1.1 3.852 1.012 6.076 1h7.928c.91.004 1.429.032 1.901.227zM16 2.5a.5.5 0 00-.5.5v3.5l.005.15A2 2 0 0017.5 8.5H21l.09-.008A.5.5 0 0021 7.5h-3.5l-.117-.007A1 1 0 0116.5 6.5V3l-.008-.09A.5.5 0 0016 2.5z" fill="#FFF" fill-rule="nonzero"/></g></svg><view id="spreadsheet" viewBox="96 96 24 24"/><svg width="24" height="24" viewBox="0 0 24 24" x="96" y="96" xmlns="http://www.w3.org/2000/svg"><g fill="none" fill-rule="evenodd"><path d="M0 0h24v24H0z"/><path d="M15.905 1.228c.552.229.985.662 1.852 1.53l3.486 3.485c.867.867 1.3 1.3 1.529 1.852.212.512.227 1.077.228 2.137v7.396c-.005 2.415-.068 3.682-.879 4.493-.845.845-2.185.878-4.8.879H7c-2.828 0-4.243 0-5.121-.879-.845-.845-.878-2.185-.879-4.8V7c0-2.828 0-4.243.879-5.121C2.656 1.1 3.852 1.012 6.076 1h7.928c.91.004 1.429.032 1.901.227zM16 2.5a.5.5 0 00-.5.5v3.5l.005.15A2 2 0 0017.5 8.5H21l.09-.008A.5.5 0 0021 7.5h-3.5l-.117-.007A1 1 0 0116.5 6.5V3l-.008-.09A.5.5 0 0016 2.5z" fill="#FFF" fill-rule="nonzero"/></g></svg><view id="text" viewBox="120 0 24 24"/><svg width="24" height="24" viewBox="0 0 24 24" x="120" xmlns="http://www.w3.org/2000/svg"><g fill="none" fill-rule="evenodd"><path d="M0 0h24v24H0z"/><path d="M1.879 1.879C1 2.757 1 4.172 1 7v10c0 2.828 0 4.243.879 5.121C2.757 23 4.172 23 7 23h10c2.828 0 4.243 0 5.121-.879C23 21.243 23 19.828 23 17V7c0-2.828 0-4.243-.879-5.121C21.243 1 19.828 1 17 1H7c-2.828 0-4.243 0-5.121.879zM4.5 6a.5.5 0 000 1h15a.5.5 0 000-1h-15zm0 6a.5.5 0 000 1h15a.5.5 0 000-1h-15zM4 9.5a.5.5 0 01.5-.5h15a.5.5 0 010 1h-15a.5.5 0 01-.5-.5zm.5 8.5a.5.5 0 000 1h7a.5.5 0 000-1h-7zM4 15.5a.5.5 0 01.5-.5h15a.5.5 0 010 1h-15a.5.5 0 01-.5-.5z" fill="#FFF"/></g></svg><view id="threed" viewBox="120 24 24 24"/><svg width="24" height="24" viewBox="0 0 24 24" x="120" y="24" xmlns="http://www.w3.org/2000/svg"><g fill="none" fill-rule="evenodd"><path d="M0 0h24v24H0z"/><path d="M15.905 1.228c.552.229.985.662 1.852 1.53l3.486 3.485c.867.867 1.3 1.3 1.529 1.852.212.512.227 1.077.228 2.137v7.396c-.005 2.415-.068 3.682-.879 4.493-.845.845-2.185.878-4.8.879H7c-2.828 0-4.243 0-5.121-.879-.845-.845-.878-2.185-.879-4.8V7c0-2.828 0-4.243.879-5.121C2.656 1.1 3.852 1.012 6.076 1h7.928c.91.004 1.429.032 1.901.227zM16 2.5a.5.5 0 00-.5.5v3.5l.005.15A2 2 0 0017.5 8.5H21l.09-.008A.5.5 0 0021 7.5h-3.5l-.117-.007A1 1 0 0116.5 6.5V3l-.008-.09A.5.5 0 0016 2.5z" fill="#FFF" fill-rule="nonzero"/></g></svg><view id="torrent" viewBox="120 48 24 24"/><svg width="24" height="24" viewBox="0 0 24 24" x="120" y="48" xmlns="http://www.w3.org/2000/svg"><g fill="none" fill-rule="evenodd"><path d="M0 0h24v24H0z"/><path d="M15.905 1.228c.552.229.985.662 1.852 1.53l3.486 3.485c.867.867 1.3 1.3 1.529 1.852.212.512.227 1.077.228 2.137v7.396c-.005 2.415-.068 3.682-.879 4.493-.845.845-2.185.878-4.8.879H7c-2.828 0-4.243 0-5.121-.879-.845-.845-.878-2.185-.879-4.8V7c0-2.828 0-4.243.879-5.121C2.656 1.1 3.852 1.012 6.076 1h7.928c.91.004 1.429.032 1.901.227zM16 2.5a.5.5 0 00-.5.5v3.5l.005.15A2 2 0 0017.5 8.5H21l.09-.008A.5.5 0 0021 7.5h-3.5l-.117-.007A1 1 0 0116.5 6.5V3l-.008-.09A.5.5 0 0016 2.5z" fill="#FFF" fill-rule="nonzero"/></g></svg><view id="url" viewBox="120 72 24 24"/><svg width="24" height="24" viewBox="0 0 24 24" x="120" y="72" xmlns="http://www.w3.org/2000/svg"><g fill="none" fill-rule="evenodd"><path d="M0 0h24v24H0z"/><path d="M15.905 1.228c.552.229.985.662 1.852 1.53l3.486 3.485c.867.867 1.3 1.3 1.529 1.852.212.512.227 1.077.228 2.137v7.396c-.005 2.415-.068 3.682-.879 4.493-.845.845-2.185.878-4.8.879H7c-2.828 0-4.243 0-5.121-.879-.845-.845-.878-2.185-.879-4.8V7c0-2.828 0-4.243.879-5.121C2.656 1.1 3.852 1.012 6.076 1h7.928c.91.004 1.429.032 1.901.227zM16 2.5a.5.5 0 00-.5.5v3.5l.005.15A2 2 0 0017.5 8.5H21l.09-.008A.5.5 0 0021 7.5h-3.5l-.117-.007A1 1 0 0116.5 6.5V3l-.008-.09A.5.5 0 0016 2.5z" fill="#FFF" fill-rule="nonzero"/></g></svg><view id="vector" viewBox="120 96 24 24"/><svg width="24" height="24" viewBox="0 0 24 24" x="120" y="96" xmlns="http://www.w3.org/2000/svg"><g fill="none" fill-rule="evenodd"><path d="M0 0h24v24H0z"/><path d="M24 5.5v1c-4.136 0-8.048 1.44-11.16 4.02a1.75 1.75 0 01-2.32 2.32 17.422 17.422 0 00-4.015 10.733L6.5 24h-1c0-4.38 1.529-8.526 4.267-11.82a1.75 1.75 0 012.414-2.412l.356-.29A18.422 18.422 0 0124 5.5zm-12.75 5a.75.75 0 00-.572 1.235l.074.076a.75.75 0 001.125-.972l-.066-.087a.747.747 0 00-.561-.252z" fill="#FFF" fill-rule="nonzero"/><path d="M17.735 4.235a.375.375 0 01.584.462l-.054.068-5.5 5.5a.375.375 0 01-.584-.462l.054-.068 5.5-5.5zM9.735 12.235a.375.375 0 01.584.462l-.054.068-5.5 5.5a.375.375 0 01-.584-.462l.054-.068 5.5-5.5z" fill="#FFF" fill-rule="nonzero"/><path d="M3.5 17.625a1.375 1.375 0 100 2.75 1.375 1.375 0 000-2.75zm0 .75a.625.625 0 110 1.25.625.625 0 010-1.25zM19 2.125a1.375 1.375 0 100 2.75 1.375 1.375 0 000-2.75zm0 .75a.625.625 0 110 1.25.625.625 0 010-1.25z" fill="#FFF" fill-rule="nonzero"/></g></svg><view id="video" viewBox="0 120 24 24"/><svg width="24" height="24" viewBox="0 0 24 24" y="120" xmlns="http://www.w3.org/2000/svg"><g fill="none" fill-rule="evenodd"><path d="M0 0h24v24H0z"/><path d="M9.812 6l.875.007.511.01.459.015.41.022c1.358.091 1.908.325 2.481.898.512.512.76 1.143.87 2.167l.859-.684.362-.28.329-.245.297-.21.27-.18c.857-.54 1.309-.562 1.896-.283.646.308.905.717 1.007 1.972l.024.364.017.41.015.705.006 1.131-.006 1.493-.015.706-.017.409-.024.364c-.102 1.255-.361 1.664-1.007 1.971-.587.28-1.039.259-1.896-.283l-.27-.178-.297-.211-.329-.245-.362-.28-.858-.684c-.11 1.024-.36 1.655-.87 2.167-.529.528-1.038.768-2.177.874l-.361.027-.403.021-.449.015-.767.012L9.5 18l-1.16-.006-.73-.016-.425-.017-.381-.025c-1.144-.087-1.69-.29-2.194-.738l-.158-.15c-.546-.546-.784-1.07-.884-2.292l-.026-.388a19.253 19.253 0 01-.01-.211l-.021-.708-.01-.83V11.38l.01-.83.021-.708.022-.41c.091-1.358.325-1.908.898-2.481.546-.546 1.07-.784 2.292-.884l.388-.026.211-.01.708-.021.83-.01h.93zM13.84 7.66c-.301-.301-.642-.468-1.36-.56l-.288-.03-.327-.024-.37-.018-.646-.017L10.084 7H8.916l-.524.005-.685.014-.393.016-.349.02-.307.028c-.767.081-1.135.236-1.442.52l-.057.055c-.301.301-.468.641-.56 1.36l-.03.288-.024.327-.018.37-.017.646-.009.766v1.168l.005.524.014.685.016.393.02.349.028.307c.081.767.236 1.135.52 1.442l.055.057c.301.301.642.468 1.36.56l.288.03.327.024.37.018.646.017.766.009h1.168l.524-.005.685-.014.393-.016.349-.02.307-.028c.815-.086 1.18-.255 1.499-.575.402-.402.575-.995.632-2.222l.02-.643.006-.858-.002-1.8-.014-.683c-.045-1.401-.214-2.048-.642-2.476zm2.786 1.775l-1.139.918.01.666-.001 2.117-.008.514.954.771.523.412.443.336.255.185.226.155.199.127.09.053.165.088c.025.013.05.025.074.035l.136.053c.19.063.326.053.447-.004.121-.058.214-.157.286-.345l.044-.138.038-.167a3.33 3.33 0 00.017-.096l.03-.217.025-.253.02-.294.015-.336.015-.59.009-1.243-.006-1.382-.012-.628-.014-.359-.017-.314-.035-.395-.03-.217a3.33 3.33 0 00-.017-.096l-.038-.167-.044-.138a.772.772 0 00-.109-.202l-.065-.07a.482.482 0 00-.112-.073c-.121-.057-.257-.067-.447-.004l-.136.053-.074.034-.165.089-.187.113-.212.141-.24.17-.27.2-.304.232-.34.266z" fill="#FFF" fill-rule="nonzero"/></g></svg><view id="web-data" viewBox="24 120 24 24"/><svg width="24" height="24" viewBox="0 0 24 24" x="24" y="120" xmlns="http://www.w3.org/2000/svg"><g fill="none" fill-rule="evenodd"><path d="M0 0h24v24H0z"/><path d="M15.905 1.228c.552.229.985.662 1.852 1.53l3.486 3.485c.867.867 1.3 1.3 1.529 1.852.212.512.227 1.077.228 2.137v7.396c-.005 2.415-.068 3.682-.879 4.493-.845.845-2.185.878-4.8.879H7c-2.828 0-4.243 0-5.121-.879-.845-.845-.878-2.185-.879-4.8V7c0-2.828 0-4.243.879-5.121C2.656 1.1 3.852 1.012 6.076 1h7.928c.91.004 1.429.032 1.901.227zM16 2.5a.5.5 0 00-.5.5v3.5l.005.15A2 2 0 0017.5 8.5H21l.09-.008A.5.5 0 0021 7.5h-3.5l-.117-.007A1 1 0 0116.5 6.5V3l-.008-.09A.5.5 0 0016 2.5z" fill="#FFF" fill-rule="nonzero"/></g></svg><view id="web-lang" viewBox="48 120 24 24"/><svg width="24" height="24" viewBox="0 0 24 24" x="48" y="120" xmlns="http://www.w3.org/2000/svg"><g fill="none" fill-rule="evenodd"><path d="M0 0h24v24H0z"/><path d="M15.905 1.228c.552.229.985.662 1.852 1.53l3.486 3.485c.867.867 1.3 1.3 1.529 1.852.212.512.227 1.077.228 2.137v7.396c-.005 2.415-.068 3.682-.879 4.493-.845.845-2.185.878-4.8.879H7c-2.828 0-4.243 0-5.121-.879-.845-.845-.878-2.185-.879-4.8V7c0-2.828 0-4.243.879-5.121C2.656 1.1 3.852 1.012 6.076 1h7.928c.91.004 1.429.032 1.901.227zM16 2.5a.5.5 0 00-.5.5v3.5l.005.15A2 2 0 0017.5 8.5H21l.09-.008A.5.5 0 0021 7.5h-3.5l-.117-.007A1 1 0 0116.5 6.5V3l-.008-.09A.5.5 0 0016 2.5z" fill="#FFF" fill-rule="nonzero"/></g></svg><view id="word" viewBox="72 120 24 24"/><svg width="24" height="24" viewBox="0 0 24 24" x="72" y="120" xmlns="http://www.w3.org/2000/svg"><g fill="none" fill-rule="evenodd"><path d="M0 0h24v24H0z"/><path d="M17.157 18L20.25 6h-2.66l-1.616 8.008c-.092.452-.15.899-.171 1.34h-.033a10.086 10.086 0 00-.188-1.29L13.665 6H10.84L8.72 13.958a6.796 6.796 0 00-.237 1.406h-.049a9.774 9.774 0 00-.155-1.372L6.63 6H3.75l3.076 12H9.87l1.991-7.699c.093-.351.163-.8.212-1.347h.033c.022.496.084.946.188 1.347L14.236 18h2.921z" fill="#FFF"/></g></svg></svg>