<?xml version="1.0" encoding="UTF-8"?><svg width="160" height="160" viewBox="0 0 576 576" xmlns="http://www.w3.org/2000/svg" xmlns:xlink="http://www.w3.org/1999/xlink"><view id="aftereffects" viewBox="0 0 96 96"/><svg width="96" height="96" viewBox="0 0 96 96" xmlns="http://www.w3.org/2000/svg"><g fill="none" fill-rule="evenodd"><path d="M0 0h96v96H0z"/><path d="M5.172 5.172C4 6.343 4 8.229 4 12v72c0 3.771 0 5.657 1.172 6.828C6.343 92 8.229 92 12 92h72c3.771 0 5.657 0 6.828-1.172C92 89.657 92 87.771 92 84V34.627c0-3.27 0-4.905-.609-6.375-.609-1.47-1.765-2.626-4.077-4.938L72.686 8.686c-2.312-2.312-3.468-3.468-4.938-4.077C66.278 4 64.643 4 61.373 4H12C8.229 4 6.343 4 5.172 5.172zM68 9a1 1 0 10-2 0v14a7 7 0 007 7h14a1 1 0 100-2H73a5 5 0 01-5-5V9z" fill="#FFF"/></g></svg><view id="audio" viewBox="96 0 96 96"/><svg width="96" height="96" viewBox="0 0 96 96" x="96" xmlns="http://www.w3.org/2000/svg"><g fill="none" fill-rule="evenodd"><path d="M0 0h96v96H0z"/><path d="M58.03 29.742l.485 1.94-.485-1.94zm-16 4l-.485-1.94.485 1.94zM61 54.75A3.25 3.25 0 0157.75 58v4A7.25 7.25 0 0065 54.75h-4zM57.75 58a3.25 3.25 0 01-3.25-3.25h-4A7.25 7.25 0 0057.75 62v-4zm-3.25-3.25a3.25 3.25 0 013.25-3.25v-4a7.25 7.25 0 00-7.25 7.25h4zm3.25-3.25A3.25 3.25 0 0161 54.75h4a7.25 7.25 0 00-7.25-7.25v4zM37 60.75A3.25 3.25 0 0133.75 64v4A7.25 7.25 0 0041 60.75h-4zM33.75 64a3.25 3.25 0 01-3.25-3.25h-4A7.25 7.25 0 0033.75 68v-4zm-3.25-3.25a3.25 3.25 0 013.25-3.25v-4a7.25 7.25 0 00-7.25 7.25h4zm3.25-3.25A3.25 3.25 0 0137 60.75h4a7.25 7.25 0 00-7.25-7.25v4zM41 60.75V37.623h-4V60.75h4zm1.515-25.067l16-4-.97-3.88-16 4 .97 3.88zM61 33.623V54.75h4V33.623h-4zm-2.485-1.94A2 2 0 0161 33.623h4c0-3.903-3.668-6.767-7.455-5.82l.97 3.88zM41 37.623a2 2 0 011.515-1.94l-.97-3.88A6 6 0 0037 37.622h4z" fill="#FFF" fill-rule="nonzero"/></g></svg><view id="cad" viewBox="0 96 96 96"/><svg width="96" height="96" viewBox="0 0 96 96" y="96" xmlns="http://www.w3.org/2000/svg"><g fill="none" fill-rule="evenodd"><path d="M0 0h96v96H0z"/><path d="M33 22.5h-6a4.5 4.5 0 00-4.5 4.5v6a4.5 4.5 0 004.5 4.5h6a4.5 4.5 0 004.5-4.5v-6a4.5 4.5 0 00-4.5-4.5zm-6 3h6a1.5 1.5 0 011.5 1.5v6a1.5 1.5 0 01-1.5 1.5h-6a1.5 1.5 0 01-1.5-1.5v-6a1.5 1.5 0 011.5-1.5z" fill="#FFF" fill-rule="nonzero"/><path d="M30 2a1 1 0 01.993.883L31 3v21a1 1 0 01-1.993.117L29 24V3a1 1 0 011-1zm0 33a1 1 0 01.993.883L31 36v57a1 1 0 01-1.993.117L29 93V36a1 1 0 011-1zm-6-6a1 1 0 01.117 1.993L24 31H3a1 1 0 01-.117-1.993L3 29h21zm69 0a1 1 0 01.117 1.993L93 31H36a1 1 0 01-.117-1.993L36 29h57z" fill="#FFF" fill-rule="nonzero"/></g></svg><view id="compressed" viewBox="96 96 96 96"/><svg width="96" height="96" viewBox="0 0 96 96" x="96" y="96" xmlns="http://www.w3.org/2000/svg"><g fill="none" fill-rule="evenodd"><path d="M5.172 5.172C4 6.343 4 8.229 4 12v72c0 3.771 0 5.657 1.172 6.828C6.343 92 8.229 92 12 92h72c3.771 0 5.657 0 6.828-1.172C92 89.657 92 87.771 92 84V12c0-3.771 0-5.657-1.172-6.828C89.657 4 87.771 4 84 4H12C8.229 4 6.343 4 5.172 5.172zM43.5 7a1.5 1.5 0 000 3h9a1.5 1.5 0 000-3h-9zM42 14.5a1.5 1.5 0 011.5-1.5h9a1.5 1.5 0 010 3h-9a1.5 1.5 0 01-1.5-1.5zm0 6a1.5 1.5 0 011.5-1.5h9a1.5 1.5 0 010 3h-9a1.5 1.5 0 01-1.5-1.5zm0 6a1.5 1.5 0 011.5-1.5h9a1.5 1.5 0 010 3h-9a1.5 1.5 0 01-1.5-1.5zm0 6a1.5 1.5 0 011.5-1.5h9a1.5 1.5 0 010 3h-9a1.5 1.5 0 01-1.5-1.5zm0 6a1.5 1.5 0 011.5-1.5h9a1.5 1.5 0 010 3h-9a1.5 1.5 0 01-1.5-1.5zm0 6a1.5 1.5 0 011.5-1.5h9a1.5 1.5 0 010 3h-9a1.5 1.5 0 01-1.5-1.5zm0 6a1.5 1.5 0 011.5-1.5h9a1.5 1.5 0 010 3h-9a1.5 1.5 0 01-1.5-1.5zm3 4.5a3 3 0 00-3 3v12a6 6 0 0012 0V58a3 3 0 00-3-3h-6zm6 15a3 3 0 11-6 0 3 3 0 016 0z" fill="#FFF"/><path d="M0 0h96v96H0z"/></g></svg><view id="dmg" viewBox="192 0 96 96"/><svg width="96" height="96" viewBox="0 0 96 96" x="192" xmlns="http://www.w3.org/2000/svg"><g fill="none" fill-rule="evenodd"><path d="M0 0h96v96H0z"/><path d="M5.172 5.172C4 6.343 4 8.229 4 12v72c0 3.771 0 5.657 1.172 6.828C6.343 92 8.229 92 12 92h72c3.771 0 5.657 0 6.828-1.172C92 89.657 92 87.771 92 84V34.627c0-3.27 0-4.905-.609-6.375-.609-1.47-1.765-2.626-4.077-4.938L72.686 8.686c-2.312-2.312-3.468-3.468-4.938-4.077C66.278 4 64.643 4 61.373 4H12C8.229 4 6.343 4 5.172 5.172zM68 9a1 1 0 10-2 0v14a7 7 0 007 7h14a1 1 0 100-2H73a5 5 0 01-5-5V9z" fill="#FFF"/></g></svg><view id="ex-drive" viewBox="192 96 96 96"/><svg width="96" height="96" viewBox="0 0 96 96" x="192" y="96" xmlns="http://www.w3.org/2000/svg"><g fill="none" fill-rule="evenodd"><path d="M0 0h96v96H0z"/><path d="M5.172 5.172C4 6.343 4 8.229 4 12v72c0 3.771 0 5.657 1.172 6.828C6.343 92 8.229 92 12 92h72c3.771 0 5.657 0 6.828-1.172C92 89.657 92 87.771 92 84V34.627c0-3.27 0-4.905-.609-6.375-.609-1.47-1.765-2.626-4.077-4.938L72.686 8.686c-2.312-2.312-3.468-3.468-4.938-4.077C66.278 4 64.643 4 61.373 4H12C8.229 4 6.343 4 5.172 5.172zM68 9a1 1 0 10-2 0v14a7 7 0 007 7h14a1 1 0 100-2H73a5 5 0 01-5-5V9z" fill="#FFF"/></g></svg><view id="excel" viewBox="0 192 96 96"/><svg width="96" height="96" viewBox="0 0 96 96" y="192" xmlns="http://www.w3.org/2000/svg"><g fill="none" fill-rule="evenodd"><path d="M0 0h96v96H0z"/><path d="M18.343 30.343C16 32.686 16 36.458 16 44v8c0 7.542 0 11.314 2.343 13.657S24.457 68 32 68h8c7.542 0 11.314 0 13.657-2.343S56 59.543 56 52v-8c0-7.542 0-11.314-2.343-13.657S47.543 28 40 28h-8c-7.543 0-11.314 0-13.657 2.343zM46 58h-5.764l-3.717-6.513c-.14-.242-.286-.688-.436-1.34h-.06c-.07.308-.236.773-.497 1.395L31.794 58H26l6.877-10-6.29-10H32.5l3.085 5.997c.24.474.457 1.037.647 1.688h.06c.12-.39.347-.972.678-1.744L40.4 38h5.418l-6.47 9.916L46 58zm26-21a2 2 0 012-2h4a2 2 0 110 4h-4a2 2 0 01-2-2zm2 9a2 2 0 100 4h4a2 2 0 100-4h-4zm-2 13a2 2 0 012-2h4a2 2 0 110 4h-4a2 2 0 01-2-2zM62 35a2 2 0 100 4h4a2 2 0 100-4h-4zm-2 13a2 2 0 012-2h4a2 2 0 110 4h-4a2 2 0 01-2-2zm2 9a2 2 0 100 4h4a2 2 0 100-4h-4z" fill="#FFF"/></g></svg><view id="executable" viewBox="96 192 96 96"/><svg width="96" height="96" viewBox="0 0 96 96" x="96" y="192" xmlns="http://www.w3.org/2000/svg"><g fill="none" fill-rule="evenodd"><path d="M0 0h96v96H0z"/><path d="M5.172 5.172C4 6.343 4 8.229 4 12v72c0 3.771 0 5.657 1.172 6.828C6.343 92 8.229 92 12 92h72c3.771 0 5.657 0 6.828-1.172C92 89.657 92 87.771 92 84V34.627c0-3.27 0-4.905-.609-6.375-.609-1.47-1.765-2.626-4.077-4.938L72.686 8.686c-2.312-2.312-3.468-3.468-4.938-4.077C66.278 4 64.643 4 61.373 4H12C8.229 4 6.343 4 5.172 5.172zM68 9a1 1 0 10-2 0v14a7 7 0 007 7h14a1 1 0 100-2H73a5 5 0 01-5-5V9z" fill="#FFF"/></g></svg><view id="experiencedesign" viewBox="192 192 96 96"/><svg width="96" height="96" viewBox="0 0 96 96" x="192" y="192" xmlns="http://www.w3.org/2000/svg"><g fill="none" fill-rule="evenodd"><path d="M0 0h96v96H0z"/><path d="M5.172 5.172C4 6.343 4 8.229 4 12v72c0 3.771 0 5.657 1.172 6.828C6.343 92 8.229 92 12 92h72c3.771 0 5.657 0 6.828-1.172C92 89.657 92 87.771 92 84V34.627c0-3.27 0-4.905-.609-6.375-.609-1.47-1.765-2.626-4.077-4.938L72.686 8.686c-2.312-2.312-3.468-3.468-4.938-4.077C66.278 4 64.643 4 61.373 4H12C8.229 4 6.343 4 5.172 5.172zM68 9a1 1 0 10-2 0v14a7 7 0 007 7h14a1 1 0 100-2H73a5 5 0 01-5-5V9z" fill="#FFF"/></g></svg><view id="font" viewBox="288 0 96 96"/><svg width="96" height="96" viewBox="0 0 96 96" x="288" xmlns="http://www.w3.org/2000/svg"><g fill="none" fill-rule="evenodd"><path d="M0 0h96v96H0z"/><path d="M5.172 5.172C4 6.343 4 8.229 4 12v72c0 3.771 0 5.657 1.172 6.828C6.343 92 8.229 92 12 92h72c3.771 0 5.657 0 6.828-1.172C92 89.657 92 87.771 92 84V34.627c0-3.27 0-4.905-.609-6.375-.609-1.47-1.765-2.626-4.077-4.938L72.686 8.686c-2.312-2.312-3.468-3.468-4.938-4.077C66.278 4 64.643 4 61.373 4H12C8.229 4 6.343 4 5.172 5.172zM68 9a1 1 0 10-2 0v14a7 7 0 007 7h14a1 1 0 100-2H73a5 5 0 01-5-5V9z" fill="#FFF"/></g></svg><view id="generic" viewBox="288 96 96 96"/><svg width="96" height="96" viewBox="0 0 96 96" x="288" y="96" xmlns="http://www.w3.org/2000/svg"><g fill="none" fill-rule="evenodd"><path d="M0 0h96v96H0z"/><path d="M5.172 5.172C4 6.343 4 8.229 4 12v72c0 3.771 0 5.657 1.172 6.828C6.343 92 8.229 92 12 92h72c3.771 0 5.657 0 6.828-1.172C92 89.657 92 87.771 92 84V34.627c0-3.27 0-4.905-.609-6.375-.609-1.47-1.765-2.626-4.077-4.938L72.686 8.686c-2.312-2.312-3.468-3.468-4.938-4.077C66.278 4 64.643 4 61.373 4H12C8.229 4 6.343 4 5.172 5.172zM68 9a1 1 0 10-2 0v14a7 7 0 007 7h14a1 1 0 100-2H73a5 5 0 01-5-5V9z" fill="#FFF"/></g></svg><view id="illustrator" viewBox="288 192 96 96"/><svg width="96" height="96" viewBox="0 0 96 96" x="288" y="192" xmlns="http://www.w3.org/2000/svg"><g fill="none" fill-rule="evenodd"><path d="M0 0h96v96H0z"/><path d="M5.172 5.172C4 6.343 4 8.229 4 12v72c0 3.771 0 5.657 1.172 6.828C6.343 92 8.229 92 12 92h72c3.771 0 5.657 0 6.828-1.172C92 89.657 92 87.771 92 84V34.627c0-3.27 0-4.905-.609-6.375-.609-1.47-1.765-2.626-4.077-4.938L72.686 8.686c-2.312-2.312-3.468-3.468-4.938-4.077C66.278 4 64.643 4 61.373 4H12C8.229 4 6.343 4 5.172 5.172zM68 9a1 1 0 10-2 0v14a7 7 0 007 7h14a1 1 0 100-2H73a5 5 0 01-5-5V9z" fill="#FFF"/></g></svg><view id="image" viewBox="0 288 96 96"/><svg width="96" height="96" viewBox="0 0 96 96" y="288" xmlns="http://www.w3.org/2000/svg"><g fill="none" fill-rule="evenodd"><path d="M0 0h96v96H0z"/><path d="M33.464 43.707L13.28 63.891C10.288 66.884 12.407 72 16.64 72h40.72c4.233 0 6.352-5.116 3.36-8.109L40.536 43.707a5 5 0 00-7.072 0zm4.243 2.829L57.891 66.72a.75.75 0 01-.53 1.28H16.639a.75.75 0 01-.53-1.28l20.184-20.184a1 1 0 011.414 0z" fill="#FFF" fill-rule="nonzero"/><path d="M60.464 48.707l-6.757 6.757a5 5 0 000 7.072l7.414 7.414a7 7 0 004.95 2.05h13.29c4.232 0 6.351-5.116 3.359-8.109L67.536 48.707a5 5 0 00-7.072 0zm4.243 2.829L79.891 66.72a.75.75 0 01-.53 1.28H66.07a3 3 0 01-2.121-.879l-7.414-7.414a1 1 0 010-1.414l6.757-6.757a1 1 0 011.414 0zM53 24a7 7 0 100 14 7 7 0 000-14zm0 4a3 3 0 110 6 3 3 0 010-6z" fill="#FFF" fill-rule="nonzero"/><path fill="#FFF" fill-rule="nonzero" d="M67 68v4H55v-4z"/></g></svg><view id="indesign" viewBox="96 288 96 96"/><svg width="96" height="96" viewBox="0 0 96 96" x="96" y="288" xmlns="http://www.w3.org/2000/svg"><g fill="none" fill-rule="evenodd"><path d="M0 0h96v96H0z"/><path d="M5.172 5.172C4 6.343 4 8.229 4 12v72c0 3.771 0 5.657 1.172 6.828C6.343 92 8.229 92 12 92h72c3.771 0 5.657 0 6.828-1.172C92 89.657 92 87.771 92 84V34.627c0-3.27 0-4.905-.609-6.375-.609-1.47-1.765-2.626-4.077-4.938L72.686 8.686c-2.312-2.312-3.468-3.468-4.938-4.077C66.278 4 64.643 4 61.373 4H12C8.229 4 6.343 4 5.172 5.172zM68 9a1 1 0 10-2 0v14a7 7 0 007 7h14a1 1 0 100-2H73a5 5 0 01-5-5V9z" fill="#FFF"/></g></svg><view id="keynote" viewBox="192 288 96 96"/><svg width="96" height="96" viewBox="0 0 96 96" x="192" y="288" xmlns="http://www.w3.org/2000/svg"><g fill="none" fill-rule="evenodd"><path d="M0 0h96v96H0z"/><path d="M63.818 20H32.182a4.5 4.5 0 00-4.458 3.892l-2.319 17A4.5 4.5 0 0029.864 46h36.272a4.5 4.5 0 004.459-5.108l-2.319-17A4.5 4.5 0 0063.818 20zm-31.636 4h31.636a.5.5 0 01.495.432l2.318 17a.5.5 0 01-.495.568H29.864a.5.5 0 01-.495-.568l2.318-17a.5.5 0 01.495-.432z" fill="#FFF" fill-rule="nonzero"/><path d="M37 76a2 2 0 01-.15-3.995L37 72h9V44a2 2 0 013.995-.15L50 44v28h9a2 2 0 01.15 3.995L59 76H37z" fill="#FFF" fill-rule="nonzero"/></g></svg><view id="numbers" viewBox="288 288 96 96"/><svg width="96" height="96" viewBox="0 0 96 96" x="288" y="288" xmlns="http://www.w3.org/2000/svg"><g fill="none" fill-rule="evenodd"><path d="M0 0h96v96H0z"/><path d="M56 20h-2a4 4 0 00-4 4v48a4 4 0 004 4h2a4 4 0 004-4V24a4 4 0 00-4-4zm-2 4h2v48h-2V24zM70 34h-2a4 4 0 00-4 4v34a4 4 0 004 4h2a4 4 0 004-4V38a4 4 0 00-4-4zm-2 4h2v34h-2V38zM42 46h-2a4 4 0 00-4 4v22a4 4 0 004 4h2a4 4 0 004-4V50a4 4 0 00-4-4zm-2 4h2v22h-2V50zM28 60h-2a4 4 0 00-4 4v8a4 4 0 004 4h2a4 4 0 004-4v-8a4 4 0 00-4-4zm-2 4h2v8h-2v-8z" fill="#FFF" fill-rule="nonzero"/></g></svg><view id="open-office" viewBox="384 0 96 96"/><svg width="96" height="96" viewBox="0 0 96 96" x="384" xmlns="http://www.w3.org/2000/svg"><g fill="none" fill-rule="evenodd"><path d="M0 0h96v96H0z"/><path d="M5.172 5.172C4 6.343 4 8.229 4 12v72c0 3.771 0 5.657 1.172 6.828C6.343 92 8.229 92 12 92h72c3.771 0 5.657 0 6.828-1.172C92 89.657 92 87.771 92 84V34.627c0-3.27 0-4.905-.609-6.375-.609-1.47-1.765-2.626-4.077-4.938L72.686 8.686c-2.312-2.312-3.468-3.468-4.938-4.077C66.278 4 64.643 4 61.373 4H12C8.229 4 6.343 4 5.172 5.172zM68 9a1 1 0 10-2 0v14a7 7 0 007 7h14a1 1 0 100-2H73a5 5 0 01-5-5V9z" fill="#FFF"/></g></svg><view id="pages" viewBox="384 96 96 96"/><svg width="96" height="96" viewBox="0 0 96 96" x="384" y="96" xmlns="http://www.w3.org/2000/svg"><g fill="none" fill-rule="evenodd"><path d="M0 0h96v96H0z"/><path d="M73.414 23.586a6.243 6.243 0 01.178 8.643l-.178.185-36.14 36.14a23 23 0 01-6.702 4.655l-.501.222-5.634 2.415c-2.027.869-4.077-1.115-3.339-3.141l.056-.142 2.415-5.634a23 23 0 014.493-6.81l.383-.393 36.14-36.14a6.243 6.243 0 018.83 0zM73 72a2 2 0 01.15 3.995L73 76H40a2 2 0 01-.15-3.995L40 72h33zM44.999 48.828L31.274 62.555a19 19 0 00-3.833 5.508l-.196.442-.937 2.186 2.187-.936a19 19 0 005.605-3.692l.345-.337L48.171 52l-3.172-3.172zm22.544-22.533l-.129.12L47.83 46 51 49.171l19.586-19.585a2.243 2.243 0 00-3.043-3.29z" fill="#FFF" fill-rule="nonzero"/></g></svg><view id="pdf" viewBox="384 192 96 96"/><svg width="96" height="96" viewBox="0 0 96 96" x="384" y="192" xmlns="http://www.w3.org/2000/svg"><g fill="none" fill-rule="evenodd"><path d="M41.435 27.06c1.09-1.828 2.945-2.687 4.783-1.601 1.372.81 2.33 2.583 3.036 5.265 1.09 4.14.625 8.942-1.072 14.26a39.677 39.677 0 004.628 5.732c4.933-.153 9.751.422 12.45 1.35 4.705 1.617 7.183 4.722 5.025 7.599-1.686 2.249-5.681 2.618-10.03 1.123-2.736-.94-5.93-3.09-9.002-5.992l.525-.033c-3.185.178-6.297.676-9.198 1.52l.668-.185a81.769 81.769 0 01-3.17 5.233l-.463.695-.431.63-.418.595-.211.292-.212.285c-3.442 4.56-7.95 6.886-11.026 5.666-1.975-.784-2.743-2.798-2.08-4.978.555-1.82 2.073-3.82 4.473-5.897 2.872-2.483 6.29-4.356 10.133-5.665l.681-.225c1.246-2.362 2.324-4.72 3.177-7.019l.079-.221c-1.234-2.098-2.19-4.206-2.819-6.261-1.394-4.564-1.138-9.47.474-12.169zM37.224 58.38l-.375.194a24.15 24.15 0 00-4.522 3.07c-1.88 1.626-2.963 3.053-3.263 4.037l-.037.133.089.001c.34-.01.854-.133 1.467-.411l.208-.098.195-.1c1.346-.713 2.765-1.958 4.089-3.688l.353-.477.28-.393.386-.559.421-.623.425-.645.284-.441zm20.284-3.589l.121.086c1.419.996 2.764 1.728 3.926 2.128 2.426.833 4.389.824 5.196.488l.091-.042.017-.011-.03-.034c-.394-.43-1.175-.912-2.316-1.356l-.27-.102-.283-.1c-1.35-.464-3.504-.838-6-1.026l-.452-.031zm-10.953-5.204l-.09.255-.071-.114-.276.637-.353.781.195-.058-.19.351.25-.046c.259-.045.519-.087.78-.128l.742-.109-.19-.186.299-.015-.195-.233-.47-.583-.431-.552zm-1.928-19.993l-.018.045c-.74 1.827-.805 5.202.178 8.419.097.32.205.641.322.966l.183.488.108.271.03-.15c.489-2.626.548-5.015.135-7.113l-.09-.416-.089-.363c-.233-.884-.485-1.591-.74-2.112l-.019-.035z" fill="#FFF" fill-rule="nonzero"/><path d="M0 0h96v96H0z"/></g></svg><view id="photoshop" viewBox="384 288 96 96"/><svg width="96" height="96" viewBox="0 0 96 96" x="384" y="288" xmlns="http://www.w3.org/2000/svg"><g fill="none" fill-rule="evenodd"><path d="M0 0h96v96H0z"/><path d="M5.172 5.172C4 6.343 4 8.229 4 12v72c0 3.771 0 5.657 1.172 6.828C6.343 92 8.229 92 12 92h72c3.771 0 5.657 0 6.828-1.172C92 89.657 92 87.771 92 84V34.627c0-3.27 0-4.905-.609-6.375-.609-1.47-1.765-2.626-4.077-4.938L72.686 8.686c-2.312-2.312-3.468-3.468-4.938-4.077C66.278 4 64.643 4 61.373 4H12C8.229 4 6.343 4 5.172 5.172zM68 9a1 1 0 10-2 0v14a7 7 0 007 7h14a1 1 0 100-2H73a5 5 0 01-5-5V9z" fill="#FFF"/></g></svg><view id="powerpoint" viewBox="0 384 96 96"/><svg width="96" height="96" viewBox="0 0 96 96" y="384" xmlns="http://www.w3.org/2000/svg"><g fill="none" fill-rule="evenodd"><path d="M16 44c0-7.542 0-11.314 2.343-13.657S24.457 28 32 28h8c7.542 0 11.314 0 13.657 2.343S56 36.458 56 44v8c0 7.542 0 11.314-2.343 13.657S47.543 68 40 68h-8c-7.543 0-11.314 0-13.657-2.343S16 59.543 16 52v-8zm17.505 7.11V58H29V38h7.057c5.04 0 7.56 2.125 7.56 6.374 0 2.008-.723 3.633-2.17 4.874-1.445 1.242-3.377 1.862-5.794 1.862h-2.148zm0-9.651v6.234h1.771c2.399 0 3.598-1.05 3.598-3.152 0-2.055-1.199-3.082-3.598-3.082h-1.771zM71 46a7 7 0 00-7-7v-8c8.284 0 15 6.716 15 15h-8zm-9-7c-.514 0-1.017.043-1.504.125l-.992-5.918A15.072 15.072 0 0162 33v6zm0 18a9 9 0 009-9h6c0 8.284-6.716 15-15 15-.848 0-1.683-.07-2.496-.207l.992-5.918c.487.082.99.125 1.504.125z" fill="#FFF"/><path d="M0 0h96v96H0z"/></g></svg><view id="premiere" viewBox="96 384 96 96"/><svg width="96" height="96" viewBox="0 0 96 96" x="96" y="384" xmlns="http://www.w3.org/2000/svg"><g fill="none" fill-rule="evenodd"><path d="M0 0h96v96H0z"/><path d="M5.172 5.172C4 6.343 4 8.229 4 12v72c0 3.771 0 5.657 1.172 6.828C6.343 92 8.229 92 12 92h72c3.771 0 5.657 0 6.828-1.172C92 89.657 92 87.771 92 84V34.627c0-3.27 0-4.905-.609-6.375-.609-1.47-1.765-2.626-4.077-4.938L72.686 8.686c-2.312-2.312-3.468-3.468-4.938-4.077C66.278 4 64.643 4 61.373 4H12C8.229 4 6.343 4 5.172 5.172zM68 9a1 1 0 10-2 0v14a7 7 0 007 7h14a1 1 0 100-2H73a5 5 0 01-5-5V9z" fill="#FFF"/></g></svg><view id="raw" viewBox="192 384 96 96"/><svg width="96" height="96" viewBox="0 0 96 96" x="192" y="384" xmlns="http://www.w3.org/2000/svg"><g fill="none" fill-rule="evenodd"><path d="M0 0h96v96H0z"/><path d="M48 22c-14.36 0-26 11.64-26 26s11.64 26 26 26 26-11.64 26-26-11.64-26-26-26zm0 4c12.15 0 22 9.85 22 22s-9.85 22-22 22-22-9.85-22-22 9.85-22 22-22z" fill="#FFF" fill-rule="nonzero"/><path d="M59.392 26.36v25.907l12.04-6.95 1 1.732-22.431 12.95 12.041 6.952-1 1.732L38.607 55.73v13.91h-2V43.731l-12.04 6.951-1-1.732L46 36l-12.04-6.951 1-1.732 22.432 12.951V26.36h2zM48.001 37.154l-9.394 5.423v10.844l9.394 5.423 9.391-5.422V42.576l-9.391-5.422z" fill="#FFF" fill-rule="nonzero"/></g></svg><view id="sketch" viewBox="288 384 96 96"/><svg width="96" height="96" viewBox="0 0 96 96" x="288" y="384" xmlns="http://www.w3.org/2000/svg"><g fill="none" fill-rule="evenodd"><path d="M0 0h96v96H0z"/><path d="M5.172 5.172C4 6.343 4 8.229 4 12v72c0 3.771 0 5.657 1.172 6.828C6.343 92 8.229 92 12 92h72c3.771 0 5.657 0 6.828-1.172C92 89.657 92 87.771 92 84V34.627c0-3.27 0-4.905-.609-6.375-.609-1.47-1.765-2.626-4.077-4.938L72.686 8.686c-2.312-2.312-3.468-3.468-4.938-4.077C66.278 4 64.643 4 61.373 4H12C8.229 4 6.343 4 5.172 5.172zM68 9a1 1 0 10-2 0v14a7 7 0 007 7h14a1 1 0 100-2H73a5 5 0 01-5-5V9z" fill="#FFF"/></g></svg><view id="spreadsheet" viewBox="384 384 96 96"/><svg width="96" height="96" viewBox="0 0 96 96" x="384" y="384" xmlns="http://www.w3.org/2000/svg"><g fill="none" fill-rule="evenodd"><path d="M0 0h96v96H0z"/><path d="M5.172 5.172C4 6.343 4 8.229 4 12v72c0 3.771 0 5.657 1.172 6.828C6.343 92 8.229 92 12 92h72c3.771 0 5.657 0 6.828-1.172C92 89.657 92 87.771 92 84V34.627c0-3.27 0-4.905-.609-6.375-.609-1.47-1.765-2.626-4.077-4.938L72.686 8.686c-2.312-2.312-3.468-3.468-4.938-4.077C66.278 4 64.643 4 61.373 4H12C8.229 4 6.343 4 5.172 5.172zM68 9a1 1 0 10-2 0v14a7 7 0 007 7h14a1 1 0 100-2H73a5 5 0 01-5-5V9z" fill="#FFF"/></g></svg><view id="text" viewBox="480 0 96 96"/><svg width="96" height="96" viewBox="0 0 96 96" x="480" xmlns="http://www.w3.org/2000/svg"><g fill="none" fill-rule="evenodd"><path d="M0 0h96v96H0z"/><path d="M5.172 5.172C4 6.343 4 8.229 4 12v72c0 3.771 0 5.657 1.172 6.828C6.343 92 8.229 92 12 92h72c3.771 0 5.657 0 6.828-1.172C92 89.657 92 87.771 92 84V12c0-3.771 0-5.657-1.172-6.828C89.657 4 87.771 4 84 4H12C8.229 4 6.343 4 5.172 5.172zM22 17a1 1 0 01.894.553l3.5 7 1.5 3a1 1 0 11-1.788.894L24.881 26h-5.764l-1.224 2.447a1 1 0 11-1.788-.894l1.5-3 3.5-7A1 1 0 0122 17zm1.882 7L22 20.236 20.118 24h3.764zM32 18a1 1 0 011-1h46a1 1 0 110 2H33a1 1 0 01-1-1zm1 9a1 1 0 100 2h46a1 1 0 100-2H33zM16 38a1 1 0 011-1h62a1 1 0 110 2H17a1 1 0 01-1-1zm1 9a1 1 0 100 2h62a1 1 0 100-2H17zm-1 11a1 1 0 011-1h62a1 1 0 110 2H17a1 1 0 01-1-1zm1 9a1 1 0 100 2h62a1 1 0 100-2H17zm-1 11a1 1 0 011-1h30a1 1 0 110 2H17a1 1 0 01-1-1z" fill="#FFF"/></g></svg><view id="threed" viewBox="480 96 96 96"/><svg width="96" height="96" viewBox="0 0 96 96" x="480" y="96" xmlns="http://www.w3.org/2000/svg"><g fill="none" fill-rule="evenodd"><path d="M0 0h96v96H0z"/><path d="M5.172 5.172C4 6.343 4 8.229 4 12v72c0 3.771 0 5.657 1.172 6.828C6.343 92 8.229 92 12 92h72c3.771 0 5.657 0 6.828-1.172C92 89.657 92 87.771 92 84V34.627c0-3.27 0-4.905-.609-6.375-.609-1.47-1.765-2.626-4.077-4.938L72.686 8.686c-2.312-2.312-3.468-3.468-4.938-4.077C66.278 4 64.643 4 61.373 4H12C8.229 4 6.343 4 5.172 5.172zM68 9a1 1 0 10-2 0v14a7 7 0 007 7h14a1 1 0 100-2H73a5 5 0 01-5-5V9z" fill="#FFF"/></g></svg><view id="torrent" viewBox="480 192 96 96"/><svg width="96" height="96" viewBox="0 0 96 96" x="480" y="192" xmlns="http://www.w3.org/2000/svg"><g fill="none" fill-rule="evenodd"><path d="M0 0h96v96H0z"/><path d="M5.172 5.172C4 6.343 4 8.229 4 12v72c0 3.771 0 5.657 1.172 6.828C6.343 92 8.229 92 12 92h72c3.771 0 5.657 0 6.828-1.172C92 89.657 92 87.771 92 84V34.627c0-3.27 0-4.905-.609-6.375-.609-1.47-1.765-2.626-4.077-4.938L72.686 8.686c-2.312-2.312-3.468-3.468-4.938-4.077C66.278 4 64.643 4 61.373 4H12C8.229 4 6.343 4 5.172 5.172zM68 9a1 1 0 10-2 0v14a7 7 0 007 7h14a1 1 0 100-2H73a5 5 0 01-5-5V9z" fill="#FFF"/></g></svg><view id="url" viewBox="480 288 96 96"/><svg width="96" height="96" viewBox="0 0 96 96" x="480" y="288" xmlns="http://www.w3.org/2000/svg"><g fill="none" fill-rule="evenodd"><path d="M0 0h96v96H0z"/><path d="M5.172 5.172C4 6.343 4 8.229 4 12v72c0 3.771 0 5.657 1.172 6.828C6.343 92 8.229 92 12 92h72c3.771 0 5.657 0 6.828-1.172C92 89.657 92 87.771 92 84V34.627c0-3.27 0-4.905-.609-6.375-.609-1.47-1.765-2.626-4.077-4.938L72.686 8.686c-2.312-2.312-3.468-3.468-4.938-4.077C66.278 4 64.643 4 61.373 4H12C8.229 4 6.343 4 5.172 5.172zM68 9a1 1 0 10-2 0v14a7 7 0 007 7h14a1 1 0 100-2H73a5 5 0 01-5-5V9z" fill="#FFF"/></g></svg><view id="vector" viewBox="480 384 96 96"/><svg width="96" height="96" viewBox="0 0 96 96" x="480" y="384" xmlns="http://www.w3.org/2000/svg"><g fill="none" fill-rule="evenodd"><path d="M0 0h96v96H0z"/><path d="M96 22.5v3c-16.796 0-32.674 5.892-45.262 16.446a6.5 6.5 0 01-8.793 8.793C31.544 63.145 25.67 78.752 25.505 95.282L25.5 96h-3c0-17.533 6.163-34.115 17.194-47.246a6.5 6.5 0 019.06-9.061C61.886 28.663 78.468 22.5 96 22.5zm-51 19a3.5 3.5 0 00-2.478 5.972l.155.146a3.5 3.5 0 005.077-4.778l-.136-.163A3.487 3.487 0 0045 41.5z" fill="#FFF" fill-rule="nonzero"/><path d="M71.793 16.793a1 1 0 011.497 1.32l-.083.094-23.5 23.5a1 1 0 01-1.497-1.32l.083-.094 23.5-23.5zM40.293 48.293a1 1 0 011.497 1.32l-.083.094-23.5 23.5a1 1 0 01-1.497-1.32l.083-.094 23.5-23.5z" fill="#FFF" fill-rule="nonzero"/><path d="M16 71a3 3 0 100 6 3 3 0 000-6zm0 2a1 1 0 110 2 1 1 0 010-2zM74 13a3 3 0 100 6 3 3 0 000-6zm0 2a1 1 0 110 2 1 1 0 010-2z" fill="#FFF" fill-rule="nonzero"/></g></svg><view id="video" viewBox="0 480 96 96"/><svg width="96" height="96" viewBox="0 0 96 96" y="480" xmlns="http://www.w3.org/2000/svg"><g fill="none" fill-rule="evenodd"><path d="M0 0h96v96H0z"/><path d="M38.657 30h2.69l1.746.01 1.199.017 1.11.028 1.025.04.64.034.606.04.575.049.545.055.515.063c2.259.303 3.693.86 4.947 1.86l.276.229c.182.158.362.326.54.504 1.641 1.641 2.383 3.304 2.703 6.72l2.26-1.826 1.106-.876.924-.713.485-.362.588-.423.408-.28.52-.34.384-.237.13-.078c2.274-1.356 4.166-1.734 6-.861l.148.073.285.15c1.566.882 2.325 2.18 2.684 4.842l.06.484.026.253.048.529.04.56.034.592.028.626.023.66.024 1.059.01.752.01 1.622v4.292l-.01 1.622-.017 1.114-.028 1.03-.025.643-.03.61-.038.575-.044.544-.025.26-.055.5c-.346 2.823-1.103 4.172-2.715 5.078l-.285.151a7.776 7.776 0 01-.148.073c-1.76.838-3.575.523-5.73-.703l-.397-.234-.502-.313-.514-.34-.547-.382-.763-.563-.701-.537-1.025-.806-2.389-1.925-.237-.192c-.32 3.415-1.061 5.078-2.703 6.72l-.129.126-.259.244a9.507 9.507 0 01-.262.23l-.266.215a7.608 7.608 0 01-.837.567l-.297.165a8.313 8.313 0 01-1.502.6l-.38.105-.197.05-.41.09c-.21.043-.428.083-.656.12l-.467.07-.244.032-.506.058-.264.026-.55.048-.58.04-.61.035-.645.03-.68.023-1.087.027-1.175.017-1.266.008h-3.605l-1.266-.008-.792-.01-1.116-.024-1.033-.034-.644-.029-.612-.035-.58-.04-.549-.048-.52-.054-.25-.03-.48-.066a16.383 16.383 0 01-.887-.156l-.41-.09a11.826 11.826 0 01-.197-.05l-.38-.105c-1.417-.42-2.432-1.06-3.423-2.02l-.129-.128a10.319 10.319 0 01-.504-.54l-.23-.276c-.814-1.021-1.335-2.163-1.663-3.773l-.085-.451a18.191 18.191 0 01-.076-.476l-.067-.502a24.58 24.58 0 01-.031-.261l-.055-.545-.048-.574-.04-.607-.035-.64-.028-.675-.023-.711-.024-1.14-.01-.81-.01-1.746.002-3.143.008-1.293.017-1.2.028-1.109.04-1.026.034-.64.041-.606.048-.575.055-.544.03-.261.068-.502c.024-.163.049-.322.076-.476l.085-.45c.209-1.025.496-1.86.887-2.595l.174-.31c.24-.404.516-.78.832-1.145l.244-.271.128-.135.132-.134c.09-.09.179-.176.269-.26l.271-.244c1.276-1.106 2.696-1.72 4.976-2.054l.502-.068.262-.03.544-.055.575-.048.606-.04.64-.035.675-.028.712-.023 1.139-.024.81-.01 1.747-.01zm3.09 4.002h-3.492l-1.864.015-1 .019-.62.017-.864.033-.534.028-.501.032-.471.036-.442.042-.413.047-.197.026-.374.055-.35.06-.326.068-.304.073-.285.08-.265.086-.126.046-.24.097-.224.104-.21.112a4.108 4.108 0 00-.197.12l-.186.127-.176.136-.168.144-.081.075-.08.078a4.535 4.535 0 00-.152.16l-.144.167-.136.176-.128.186c-.04.064-.08.13-.12.198l-.11.21-.105.224-.097.24-.09.256-.042.135-.08.284c-.025.098-.05.2-.073.305l-.067.326-.061.35-.055.374-.05.4-.044.427-.04.456-.05.74-.027.534-.033.863-.024.944-.012.676-.015 1.864v3.492l.015 1.865.019 1 .017.62.033.864.028.533.032.502.037.47.041.442.047.413.026.197.055.374.06.35.068.326c.011.053.023.104.036.155l.076.295.04.14.087.265.046.126.097.24.104.223.112.21.059.1.123.192c.043.062.086.122.132.181l.14.172.073.082.153.16.079.078.163.149.17.14.089.066.184.127.196.12c.167.096.348.184.546.264l.245.093c.042.015.085.03.13.044l.271.083.144.04.302.072.16.034.336.064.36.058.385.052.413.047.442.042.47.037.504.032.535.027.869.034.624.017.662.014 1.068.015 1.99.009 2.638-.002 1.528-.011.702-.01.662-.015.923-.027.57-.024.79-.043.488-.034.456-.04.427-.044.203-.024.386-.052.36-.058.336-.064c.054-.01.107-.022.16-.034l.302-.073a7.64 7.64 0 00.143-.039l.272-.083.13-.044.245-.093c.158-.064.305-.133.444-.208l.201-.115.096-.06.185-.128.088-.067.17-.14.164-.148.156-.156.149-.164c.024-.027.047-.055.07-.084l.136-.175.127-.184.061-.096.115-.201c.075-.139.144-.286.208-.444l.093-.245.044-.13.083-.272a7.64 7.64 0 00.04-.143l.072-.303.034-.16.064-.335.058-.36.052-.386.047-.413.042-.441.037-.471.032-.503.027-.536.034-.868.017-.624.014-.663.015-1.067.009-1.99-.002-2.639-.011-1.527-.01-.702-.015-.663-.027-.922-.024-.57-.043-.792-.034-.486-.04-.457-.044-.426a19.564 19.564 0 00-.024-.203l-.052-.386-.058-.36-.064-.336a9.923 9.923 0 00-.034-.16l-.073-.302a7.64 7.64 0 00-.039-.144l-.083-.272a6.058 6.058 0 00-.044-.13l-.093-.245a4.548 4.548 0 00-.264-.546l-.12-.195-.127-.184-.135-.175a4.213 4.213 0 00-.071-.084l-.149-.163-.157-.157-.163-.148-.172-.14a4.006 4.006 0 00-.18-.132l-.192-.123a4.208 4.208 0 00-.204-.116l-.217-.108a4.833 4.833 0 00-.114-.051l-.24-.097-.256-.09a6.655 6.655 0 00-.135-.042l-.284-.08-.305-.073-.326-.067-.35-.061-.373-.055-.4-.05-.428-.044-.455-.04-.74-.05-.814-.039-.584-.021-.944-.024-.676-.012-1.863-.015zm27.113 3.263l-.046-.02-.095-.033-.103-.021-.11-.01-.119.002a1.412 1.412 0 00-.129.015l-.139.028a2.157 2.157 0 00-.074.02l-.156.05-.17.065-.183.08-.198.097-.214.114-.113.064-.238.14-.392.247-.436.29-.481.337-.532.385-.584.435-.64.489-.698.543-1.304 1.034-1.49 1.202-1.856 1.512-.36.295v6.749l1.57 1.283 1.854 1.501 1.586 1.26 1.131.875.603.453.72.524.326.23.45.306.276.178.257.16.238.14.327.178.198.097.093.042.177.073.163.057.076.023.145.036.068.012.129.015.119.002.11-.01a.897.897 0 00.052-.009l.1-.027.092-.038c.155-.074.293-.204.414-.415l.071-.136.067-.156c.01-.027.022-.056.032-.086l.061-.188.057-.212.054-.235.05-.26.045-.288.043-.314.039-.342.051-.57.044-.64.025-.468.022-.501.027-.818.019-.901.015-1.336.004-1.671V45.86l-.01-1.416-.015-.958-.021-.873-.019-.537-.034-.74-.027-.45-.03-.42-.051-.57-.04-.342-.042-.314-.046-.287-.05-.26-.053-.236-.057-.212-.061-.188a3.016 3.016 0 00-.032-.086l-.067-.156-.07-.136-.075-.117a.914.914 0 00-.294-.274l-.046-.024z" fill="#FFF" fill-rule="nonzero"/></g></svg><view id="web-data" viewBox="96 480 96 96"/><svg width="96" height="96" viewBox="0 0 96 96" x="96" y="480" xmlns="http://www.w3.org/2000/svg"><g fill="none" fill-rule="evenodd"><path d="M0 0h96v96H0z"/><path d="M5.172 5.172C4 6.343 4 8.229 4 12v72c0 3.771 0 5.657 1.172 6.828C6.343 92 8.229 92 12 92h72c3.771 0 5.657 0 6.828-1.172C92 89.657 92 87.771 92 84V34.627c0-3.27 0-4.905-.609-6.375-.609-1.47-1.765-2.626-4.077-4.938L72.686 8.686c-2.312-2.312-3.468-3.468-4.938-4.077C66.278 4 64.643 4 61.373 4H12C8.229 4 6.343 4 5.172 5.172zM68 9a1 1 0 10-2 0v14a7 7 0 007 7h14a1 1 0 100-2H73a5 5 0 01-5-5V9z" fill="#FFF"/></g></svg><view id="web-lang" viewBox="192 480 96 96"/><svg width="96" height="96" viewBox="0 0 96 96" x="192" y="480" xmlns="http://www.w3.org/2000/svg"><g fill="none" fill-rule="evenodd"><path d="M0 0h96v96H0z"/><path d="M5.172 5.172C4 6.343 4 8.229 4 12v72c0 3.771 0 5.657 1.172 6.828C6.343 92 8.229 92 12 92h72c3.771 0 5.657 0 6.828-1.172C92 89.657 92 87.771 92 84V34.627c0-3.27 0-4.905-.609-6.375-.609-1.47-1.765-2.626-4.077-4.938L72.686 8.686c-2.312-2.312-3.468-3.468-4.938-4.077C66.278 4 64.643 4 61.373 4H12C8.229 4 6.343 4 5.172 5.172zM68 9a1 1 0 10-2 0v14a7 7 0 007 7h14a1 1 0 100-2H73a5 5 0 01-5-5V9z" fill="#FFF"/></g></svg><view id="word" viewBox="288 480 96 96"/><svg width="96" height="96" viewBox="0 0 96 96" x="288" y="480" xmlns="http://www.w3.org/2000/svg"><g fill="none" fill-rule="evenodd"><path d="M0 0h96v96H0z"/><path d="M16 44c0-7.542 0-11.314 2.343-13.657S24.457 28 32 28h8c7.542 0 11.314 0 13.657 2.343S56 36.458 56 44v8c0 7.542 0 11.314-2.343 13.657S47.543 68 40 68h-8c-7.543 0-11.314 0-13.657-2.343S16 59.543 16 52v-8zm28.595 14l5.155-20h-4.434l-2.693 13.347c-.154.753-.249 1.497-.285 2.232h-.055c-.09-.94-.195-1.655-.312-2.148L38.775 38h-4.706l-3.536 13.264a11.335 11.335 0 00-.395 2.343h-.081c-.055-.958-.14-1.72-.259-2.288L27.051 38H22.25l5.127 20h5.073l3.319-12.831c.154-.586.272-1.334.353-2.246h.055c.036.828.14 1.576.313 2.246L39.726 58h4.87zM62 35a2 2 0 100 4h16a2 2 0 100-4H62zm0 11a2 2 0 100 4h16a2 2 0 100-4H62zm-2 13a2 2 0 012-2h16a2 2 0 110 4H62a2 2 0 01-2-2z" fill="#FFF"/></g></svg></svg>