<svg width="148" height="24" viewBox="0 0 148 24" fill="none" xmlns="http://www.w3.org/2000/svg">
<path d="M12 0C5.37244 0 0 5.37244 0 12C0 18.6276 5.37244 24 12 24C18.6276 24 24 18.6276 24 12C24 5.37244 18.6276 0 12 0Z" fill="#D9272E"/>
<path d="M18.2285 16.2436C18.2285 16.4495 18.0625 16.6155 17.8566 16.6155H16.2894C16.0835 16.6155 15.9175 16.4495 15.9175 16.2436V11.4158C15.9175 11.3759 15.871 11.356 15.8378 11.3826L12.5174 14.703C12.2319 14.9885 11.7604 14.9885 11.4748 14.703L8.15437 11.3826C8.12781 11.356 8.07468 11.3759 8.07468 11.4158V16.2436C8.07468 16.4495 7.90866 16.6155 7.7028 16.6155H6.13556C5.92969 16.6155 5.76367 16.4495 5.76367 16.2436V7.75665C5.76367 7.55079 5.92969 7.38477 6.13556 7.38477H7.21138C7.40396 7.38477 7.59654 7.46446 7.736 7.60391L11.8666 11.7345C11.9397 11.8076 12.0525 11.8076 12.1256 11.7345L16.2562 7.60391C16.3957 7.46446 16.5816 7.38477 16.7808 7.38477H17.8566C18.0625 7.38477 18.2285 7.55079 18.2285 7.75665V16.2436Z" fill="white"/>
<path d="M53.14 4.96V19H49.72V10.58L46.58 19H43.82L40.66 10.56V19H37.24V4.96H41.28L45.22 14.68L49.12 4.96H53.14ZM59.0194 7.7V10.54H63.5994V13.18H59.0194V16.26H64.1994V19H55.5994V4.96H64.1994V7.7H59.0194ZM75.7397 9.4C75.4864 8.93333 75.1197 8.58 74.6397 8.34C74.173 8.08667 73.6197 7.96 72.9797 7.96C71.873 7.96 70.9864 8.32667 70.3197 9.06C69.653 9.78 69.3197 10.7467 69.3197 11.96C69.3197 13.2533 69.6664 14.2667 70.3597 15C71.0664 15.72 72.033 16.08 73.2597 16.08C74.0997 16.08 74.8064 15.8667 75.3797 15.44C75.9664 15.0133 76.393 14.4 76.6597 13.6H72.3197V11.08H79.7597V14.26C79.5064 15.1133 79.073 15.9067 78.4597 16.64C77.8597 17.3733 77.093 17.9667 76.1597 18.42C75.2264 18.8733 74.173 19.1 72.9997 19.1C71.613 19.1 70.373 18.8 69.2797 18.2C68.1997 17.5867 67.353 16.74 66.7397 15.66C66.1397 14.58 65.8397 13.3467 65.8397 11.96C65.8397 10.5733 66.1397 9.34 66.7397 8.26C67.353 7.16667 68.1997 6.32 69.2797 5.72C70.3597 5.10667 71.593 4.8 72.9797 4.8C74.6597 4.8 76.073 5.20667 77.2197 6.02C78.3797 6.83333 79.1464 7.96 79.5197 9.4H75.7397ZM90.3941 16.52H85.1541L84.3141 19H80.7341L85.8141 4.96H89.7741L94.8541 19H91.2341L90.3941 16.52ZM89.5141 13.88L87.7741 8.74L86.0541 13.88H89.5141ZM111.338 9.48C111.338 10.2933 111.152 11.04 110.778 11.72C110.405 12.3867 109.832 12.9267 109.058 13.34C108.285 13.7533 107.325 13.96 106.178 13.96H104.058V19H100.638V4.96H106.178C107.298 4.96 108.245 5.15333 109.018 5.54C109.792 5.92667 110.372 6.46 110.758 7.14C111.145 7.82 111.338 8.6 111.338 9.48ZM105.918 11.24C106.572 11.24 107.058 11.0867 107.378 10.78C107.698 10.4733 107.858 10.04 107.858 9.48C107.858 8.92 107.698 8.48667 107.378 8.18C107.058 7.87333 106.572 7.72 105.918 7.72H104.058V11.24H105.918ZM112.439 13.4C112.439 12.2533 112.652 11.2467 113.079 10.38C113.519 9.51333 114.112 8.84667 114.859 8.38C115.606 7.91333 116.439 7.68 117.359 7.68C118.146 7.68 118.832 7.84 119.419 8.16C120.019 8.48 120.479 8.9 120.799 9.42V7.84H124.219V19H120.799V17.42C120.466 17.94 119.999 18.36 119.399 18.68C118.812 19 118.126 19.16 117.339 19.16C116.432 19.16 115.606 18.9267 114.859 18.46C114.112 17.98 113.519 17.3067 113.079 16.44C112.652 15.56 112.439 14.5467 112.439 13.4ZM120.799 13.42C120.799 12.5667 120.559 11.8933 120.079 11.4C119.612 10.9067 119.039 10.66 118.359 10.66C117.679 10.66 117.099 10.9067 116.619 11.4C116.152 11.88 115.919 12.5467 115.919 13.4C115.919 14.2533 116.152 14.9333 116.619 15.44C117.099 15.9333 117.679 16.18 118.359 16.18C119.039 16.18 119.612 15.9333 120.079 15.44C120.559 14.9467 120.799 14.2733 120.799 13.42ZM131.233 19.16C130.26 19.16 129.393 18.9933 128.633 18.66C127.873 18.3267 127.273 17.8733 126.833 17.3C126.393 16.7133 126.146 16.06 126.093 15.34H129.473C129.513 15.7267 129.693 16.04 130.013 16.28C130.333 16.52 130.726 16.64 131.193 16.64C131.62 16.64 131.946 16.56 132.173 16.4C132.413 16.2267 132.533 16.0067 132.533 15.74C132.533 15.42 132.366 15.1867 132.033 15.04C131.7 14.88 131.16 14.7067 130.413 14.52C129.613 14.3333 128.946 14.14 128.413 13.94C127.88 13.7267 127.42 13.4 127.033 12.96C126.646 12.5067 126.453 11.9 126.453 11.14C126.453 10.5 126.626 9.92 126.973 9.4C127.333 8.86667 127.853 8.44667 128.533 8.14C129.226 7.83333 130.046 7.68 130.993 7.68C132.393 7.68 133.493 8.02667 134.293 8.72C135.106 9.41333 135.573 10.3333 135.693 11.48H132.533C132.48 11.0933 132.306 10.7867 132.013 10.56C131.733 10.3333 131.36 10.22 130.893 10.22C130.493 10.22 130.186 10.3 129.973 10.46C129.76 10.6067 129.653 10.8133 129.653 11.08C129.653 11.4 129.82 11.64 130.153 11.8C130.5 11.96 131.033 12.12 131.753 12.28C132.58 12.4933 133.253 12.7067 133.773 12.92C134.293 13.12 134.746 13.4533 135.133 13.92C135.533 14.3733 135.74 14.9867 135.753 15.76C135.753 16.4133 135.566 17 135.193 17.52C134.833 18.0267 134.306 18.4267 133.613 18.72C132.933 19.0133 132.14 19.16 131.233 19.16ZM142.385 19.16C141.412 19.16 140.545 18.9933 139.785 18.66C139.025 18.3267 138.425 17.8733 137.985 17.3C137.545 16.7133 137.299 16.06 137.245 15.34H140.625C140.665 15.7267 140.845 16.04 141.165 16.28C141.485 16.52 141.879 16.64 142.345 16.64C142.772 16.64 143.099 16.56 143.325 16.4C143.565 16.2267 143.685 16.0067 143.685 15.74C143.685 15.42 143.519 15.1867 143.185 15.04C142.852 14.88 142.312 14.7067 141.565 14.52C140.765 14.3333 140.099 14.14 139.565 13.94C139.032 13.7267 138.572 13.4 138.185 12.96C137.799 12.5067 137.605 11.9 137.605 11.14C137.605 10.5 137.779 9.92 138.125 9.4C138.485 8.86667 139.005 8.44667 139.685 8.14C140.379 7.83333 141.199 7.68 142.145 7.68C143.545 7.68 144.645 8.02667 145.445 8.72C146.259 9.41333 146.725 10.3333 146.845 11.48H143.685C143.632 11.0933 143.459 10.7867 143.165 10.56C142.885 10.3333 142.512 10.22 142.045 10.22C141.645 10.22 141.339 10.3 141.125 10.46C140.912 10.6067 140.805 10.8133 140.805 11.08C140.805 11.4 140.972 11.64 141.305 11.8C141.652 11.96 142.185 12.12 142.905 12.28C143.732 12.4933 144.405 12.7067 144.925 12.92C145.445 13.12 145.899 13.4533 146.285 13.92C146.685 14.3733 146.892 14.9867 146.905 15.76C146.905 16.4133 146.719 17 146.345 17.52C145.985 18.0267 145.459 18.4267 144.765 18.72C144.085 19.0133 143.292 19.16 142.385 19.16Z" fill="#303233"/>
</svg>
