<svg width="20" height="20" viewBox="0 0 20 20" fill="none" xmlns="http://www.w3.org/2000/svg">
<rect x="0.25" y="3.25" width="19.5" height="13.413" rx="2.25" fill="#1F72CD" stroke="#D9D9D9" stroke-width="0.5"/>
<path fill-rule="evenodd" clip-rule="evenodd" d="M3.60387 7.88727L1.73926 12.1965H3.97146L4.24819 11.5094H4.88073L5.15745 12.1965H7.61448V11.6721L7.83342 12.1965H9.10439L9.32332 11.661V12.1965H14.4333L15.0546 11.5273L15.6364 12.1965L18.261 12.2021L16.3905 10.0539L18.261 7.88727H15.6771L15.0723 8.54413L14.5088 7.88727H8.94984L8.47249 8.99952L7.98395 7.88727H5.75641V8.39382L5.50861 7.88727H3.60387ZM11.2345 8.49918H14.1689L15.0663 9.51161L15.9928 8.49918H16.8903L15.5266 10.0533L16.8903 11.5895H15.9521L15.0546 10.5653L14.1234 11.5895H11.2345V8.49918ZM11.9592 9.7039V9.13943V9.13889H13.7902L14.5891 10.0416L13.7548 10.9493H11.9592V10.3331H13.56V9.7039H11.9592ZM4.03573 8.49918H5.12381L6.3606 11.4213V8.49918H7.55255L8.50783 10.5943L9.38824 8.49918H10.5742V11.5914H9.85258L9.84669 9.16835L8.79459 11.5914H8.14904L7.09106 9.16835V11.5914H5.60646L5.32501 10.8981H3.80443L3.52356 11.5907H2.72813L4.03573 8.49918ZM4.06407 10.2573L4.56505 9.02234L5.06543 10.2573H4.06407Z" fill="white"/>
</svg>
