<?xml version="1.0" encoding="UTF-8"?>
<svg width="266px" height="32px" viewBox="0 0 266 32" version="1.1" xmlns="http://www.w3.org/2000/svg" xmlns:xlink="http://www.w3.org/1999/xlink">
    <!-- Generator: Sketch 60.1 (88133) - https://sketch.com -->
    <title>horizontal-sprite</title>
    <desc>Created with Sketch.</desc>
    <defs>
        <linearGradient x1="100%" y1="0%" x2="0%" y2="100%" id="linearGradient-1">
            <stop stop-color="#CBCBCB" offset="0%"></stop>
            <stop stop-color="#BABABA" offset="100%"></stop>
        </linearGradient>
        <rect id="path-2" x="0" y="0" width="24" height="24" rx="4"></rect>
        <linearGradient x1="50%" y1="0%" x2="50%" y2="97.4589445%" id="linearGradient-4">
            <stop stop-color="#FFFFFF" offset="0%"></stop>
            <stop stop-color="#EFEFEF" offset="100%"></stop>
        </linearGradient>
        <path d="M12.0004023,16 C16.1380763,16 19.5452414,19.1064 19.9949711,23.1016 C20.0480697,23.5784 19.6739654,24 19.1904457,24 L4.80955432,24 C4.32603456,24 3.95193025,23.5784 4.00502893,23.1016 C4.45475862,19.1064 7.86192365,16 12.0004023,16 Z M12,6 C14.7608333,6 17,8.23916667 17,11 C17,13.7608333 14.7608333,16 12,16 C9.23916667,16 7,13.7608333 7,11 C7,8.23916667 9.23916667,6 12,6 Z" id="path-5"></path>
        <filter x="-21.9%" y="-13.9%" width="143.8%" height="138.9%" filterUnits="objectBoundingBox" id="filter-6">
            <feOffset dx="0" dy="1" in="SourceAlpha" result="shadowOffsetOuter1"></feOffset>
            <feGaussianBlur stdDeviation="1" in="shadowOffsetOuter1" result="shadowBlurOuter1"></feGaussianBlur>
            <feColorMatrix values="0 0 0 0 0   0 0 0 0 0   0 0 0 0 0  0 0 0 0.15 0" type="matrix" in="shadowBlurOuter1"></feColorMatrix>
        </filter>
    </defs>
    <g id="Page-1" stroke="none" stroke-width="1" fill="none" fill-rule="evenodd">
        <g id="horizontal-sprite" transform="translate(32.000000, 0.000000)">
            <rect id="Rectangle" x="0" y="0" width="234" height="32"></rect>
        </g>
        <g id="Group">
            <g id="Group-2">
                <g id="avatar_default" transform="translate(0.000000, 4.000000)">
                    <mask id="mask-3" fill="white">
                        <use xlink:href="#path-2"></use>
                    </mask>
                    <use id="Rectangle-13" fill="url(#linearGradient-1)" opacity="0.6" xlink:href="#path-2"></use>
                    <g id="Combined-Shape" mask="url(#mask-3)">
                        <use fill="black" fill-opacity="1" filter="url(#filter-6)" xlink:href="#path-5"></use>
                        <use fill="url(#linearGradient-4)" fill-rule="evenodd" xlink:href="#path-5"></use>
                    </g>
                </g>
                <g id="list_default_4" transform="translate(35.000000, 0.000000)">
                    <rect id="Rectangle" fill-opacity="0.1" fill="#000000" x="0" y="11" width="96" height="10" rx="2"></rect>
                    <rect id="Rectangle" x="0" y="0" width="182" height="32"></rect>
                </g>
            </g>
        </g>
    </g>
</svg>