<?xml version="1.0" encoding="UTF-8" standalone="no"?>
<svg width="46px" height="20px" viewBox="0 0 46 20" version="1.1" xmlns="http://www.w3.org/2000/svg" xmlns:xlink="http://www.w3.org/1999/xlink" xmlns:sketch="http://www.bohemiancoding.com/sketch/ns">
    <!-- Generator: Sketch 3.2.2 (9983) - http://www.bohemiancoding.com/sketch -->
    <title>beta</title>
    <desc>Created with Sketch.</desc>
    <defs></defs>
    <g id="Page-1" stroke="none" stroke-width="1" fill="none" fill-rule="evenodd" sketch:type="MSPage">
        <g id="beta" sketch:type="MSArtboardGroup">
            <rect id="Rectangle-33" fill="#D90007" sketch:type="MSShapeGroup" x="0" y="0" width="46" height="20" rx="10"></rect>
            <path d="M6,15 L9.79520295,15 C12.0221402,15 13.7785978,14.095092 13.7785978,12.0552147 C13.7785978,10.7208589 13.0101476,9.96932515 11.5516605,9.70858896 L11.5516605,9.64723926 C12.7435424,9.3404908 13.2767528,8.37423313 13.2767528,7.48466258 C13.2767528,5.56748466 11.6300738,5 9.49723247,5 L6,5 L6,15 Z M8.32103321,9.03374233 L8.32103321,6.74846626 L9.41881919,6.74846626 C10.4852399,6.74846626 11.0184502,7.05521472 11.0184502,7.80674847 C11.0184502,8.55828221 10.5166052,9.03374233 9.38745387,9.03374233 L8.32103321,9.03374233 Z M8.32103321,13.2515337 L8.32103321,10.6288344 L9.60701107,10.6288344 C10.8773063,10.6288344 11.5202952,11.0122699 11.5202952,11.8865031 C11.5202952,12.791411 10.8616236,13.2515337 9.60701107,13.2515337 L8.32103321,13.2515337 Z M15.4723247,15 L22.0433579,15 L22.0433579,13.0981595 L17.7933579,13.0981595 L17.7933579,10.797546 L21.2749077,10.797546 L21.2749077,8.91104294 L17.7933579,8.91104294 L17.7933579,6.90184049 L21.8865314,6.90184049 L21.8865314,5 L15.4723247,5 L15.4723247,15 Z M26.0424354,15 L28.347786,15 L28.347786,6.90184049 L31.1549815,6.90184049 L31.1549815,5 L23.2195572,5 L23.2195572,6.90184049 L26.0424354,6.90184049 L26.0424354,15 Z M34.2601476,10.8588957 L34.5110701,9.93865031 C34.7933579,8.94171779 35.0756458,7.77607362 35.3108856,6.71779141 L35.3736162,6.71779141 C35.6559041,7.7607362 35.9225092,8.94171779 36.204797,9.93865031 L36.4557196,10.8588957 L34.2601476,10.8588957 Z M37.5535055,15 L40,15 L36.7850554,5 L34.0249077,5 L30.8099631,15 L33.1623616,15 L33.7896679,12.6226994 L36.9261993,12.6226994 L37.5535055,15 Z" id="BETA" fill="#FFFFFF" sketch:type="MSShapeGroup"></path>
        </g>
    </g>
</svg>