<?xml version="1.0" encoding="utf-8"?>
<!-- Generator: Adobe Illustrator 16.0.0, SVG Export Plug-In . SVG Version: 6.00 Build 0)  -->
<!DOCTYPE svg PUBLIC "-//W3C//DTD SVG 1.1//EN" "http://www.w3.org/Graphics/SVG/1.1/DTD/svg11.dtd">
<svg version="1.1" id="Layer_1" xmlns="http://www.w3.org/2000/svg" xmlns:xlink="http://www.w3.org/1999/xlink" x="0px" y="0px"
	 width="40px" height="1000px" viewBox="0 0 40 1000" enable-background="new 0 0 40 1000" xml:space="preserve">
<path fill-rule="evenodd" clip-rule="evenodd" fill="#D91F26" d="M23.5,10h1V7h-1V10z M13.5,10h1V7h-1V10z M25.5,9v2h-3V9h-7v2h-3V9
	h-1v14h15V9H25.5z M12.5,12h13v10h-13V12z M22.5,15h2v-2h-2V15z M19.5,15h2v-2h-2V15z M16.5,15h2v-2h-2V15z M22.5,18h2v-2h-2V18z
	 M19.5,18h2v-2h-2V18z M16.5,18h2v-2h-2V18z M13.5,18h2v-2h-2V18z M19.5,21h2v-2h-2V21z M16.5,21h2v-2h-2V21z M13.5,21h2v-2h-2V21z"
	/>
<path fill-rule="evenodd" clip-rule="evenodd" fill="#676767" d="M23.5,70h1v-3h-1V70z M13.5,70h1v-3h-1V70z M25.5,69v2h-3v-2h-7v2
	h-3v-2h-1v14h15V69H25.5z M12.5,72h13v10h-13V72z M22.5,75h2v-2h-2V75z M19.5,75h2v-2h-2V75z M16.5,75h2v-2h-2V75z M22.5,78h2v-2h-2
	V78z M19.5,78h2v-2h-2V78z M16.5,78h2v-2h-2V78z M13.5,78h2v-2h-2V78z M19.5,81h2v-2h-2V81z M16.5,81h2v-2h-2V81z M13.5,81h2v-2h-2
	V81z"/>
<path fill-rule="evenodd" clip-rule="evenodd" fill="#D02727" d="M31,314c0-1.66,1.34-3,3-3s3,1.34,3,3s-1.34,3-3,3
	S31,315.66,31,314z"/>
<g>
	<g>
		<path opacity="0.08" fill="#211D1E" d="M7,266c-2.21,0-4-1.79-4-4v-28c0-2.21,1.79-4,4-4h17.17c1.07,0,2.08,0.42,2.83,1.17
			l6.83,6.83c0.75,0.75,1.17,1.76,1.17,2.83V262c0,2.21-1.79,4-4,4H7z"/>
	</g>
	<path fill="#FFFFFF" d="M5,234v28c0,1.109,0.9,2,2,2h24c1.109,0,2-0.891,2-2v-20c0-1.109-0.891-2-2-2h-5c-0.55,0-1-0.45-1-1v-5
		c0-1.109-0.891-2-2-2H7C5.9,232,5,232.891,5,234z"/>
	<g>
		<defs>
			<rect id="SVGID_1_" x="6" y="233" width="15" height="8"/>
		</defs>
		<clipPath id="SVGID_2_">
			<use xlink:href="#SVGID_1_"  overflow="visible"/>
		</clipPath>
		<path clip-path="url(#SVGID_2_)" fill="#D62328" d="M20,241H7c-0.55,0-1-0.45-1-1v-6c0-0.55,0.45-1,1-1h13c0.55,0,1,0.45,1,1v6
			C21,240.55,20.55,241,20,241z"/>
	</g>
	<path fill-rule="evenodd" clip-rule="evenodd" fill="#D62328" d="M16.71,253.25c-0.34,0.62-0.67,1.2-0.97,1.721
		c1.68-0.681,3.48-1.121,5.199-1.431c-0.229-0.16-0.449-0.33-0.66-0.5c-0.949-0.79-1.67-1.761-2.199-2.79
		C17.75,251.12,17.359,252.05,16.71,253.25z M16.07,252.93c0.49-0.93,1.039-1.979,1.479-3.039l0.181-0.42
		c-0.58-2.15-0.931-3.881-0.621-5C17.2,244.18,17.54,244,17.91,244h0.23h0.039c0.5,0,0.74,0.62,0.771,0.87
		c0.04,0.409-0.15,1.101-0.15,1.101c0-0.281,0.011-0.73-0.17-1.121c-0.21-0.449-0.409-0.72-0.59-0.76
		c-0.09,0.061-0.17,0.18-0.2,0.42c-0.07,0.33-0.09,0.74-0.09,0.961c0,0.75,0.16,1.76,0.46,2.789c0.06-0.16,0.101-0.31,0.14-0.46
		l0.461-1.729c0,0-0.101,2-0.24,2.609l-0.1,0.381c0.5,1.35,1.299,2.56,2.25,3.43c0.369,0.34,0.85,0.619,1.299,0.869
		c0.98-0.139,1.881-0.199,2.631-0.189c1,0.01,1.729,0.15,2.029,0.439c0.141,0.141,0.2,0.311,0.221,0.49
		c0,0.08-0.03,0.25-0.041,0.291c0.011-0.051,0.011-0.311-0.789-0.561c-0.631-0.189-1.82-0.189-3.23-0.04
		c1.641,0.78,3.23,1.17,3.74,0.94c0.12-0.061,0.27-0.26,0.27-0.26s-0.09,0.399-0.149,0.489c-0.08,0.11-0.24,0.229-0.39,0.271
		c-0.801,0.209-2.881-0.28-4.701-1.291c-2.02,0.291-4.25,0.83-6.029,1.4c-1.76,3.01-3.07,4.391-4.15,3.86l-0.39-0.19
		c-0.16-0.09-0.19-0.31-0.15-0.49c0.13-0.6,0.89-1.5,2.43-2.399c0.17-0.091,0.91-0.479,0.91-0.479s-0.55,0.52-0.68,0.619
		c-1.23,0.99-2.13,2.23-2.11,2.711v0.039C12.49,258.87,14.05,256.79,16.07,252.93z"/>
	<rect x="8" y="235" fill="#FFFFFF" width="1" height="4"/>
	<rect x="9" y="235" fill="#FFFFFF" width="1" height="1"/>
	<rect x="10" y="236" fill="#FFFFFF" width="1" height="1"/>
	<rect x="9" y="237" fill="#FFFFFF" width="1" height="1"/>
	<rect x="12" y="235" fill="#FFFFFF" width="1" height="4"/>
	<rect x="14" y="236" fill="#FFFFFF" width="1" height="2"/>
	<rect x="13" y="235" fill="#FFFFFF" width="1" height="1"/>
	<rect x="13" y="238" fill="#FFFFFF" width="1" height="1"/>
	<rect x="16" y="235" fill="#FFFFFF" width="1" height="4"/>
	<rect x="17" y="237" fill="#FFFFFF" width="1" height="1"/>
	<rect x="17" y="235" fill="#FFFFFF" width="2" height="1"/>
</g>
<path fill-rule="evenodd" clip-rule="evenodd" fill="#FFFFFF" d="M17.28,182.99c-0.42,0.76-0.83,1.48-1.21,2.13
	c2.09-0.851,4.35-1.399,6.491-1.79c-0.281-0.189-0.561-0.4-0.83-0.609c-1.181-0.98-2.081-2.191-2.73-3.471
	C18.58,180.34,18.09,181.49,17.28,182.99z M16.48,182.59c0.61-1.16,1.3-2.47,1.85-3.779l0.22-0.521c-0.72-2.67-1.15-4.819-0.77-6.21
	c0.11-0.359,0.54-0.58,1-0.58h0.28h0.05c0.63,0,0.93,0.77,0.97,1.08c0.05,0.5-0.19,1.359-0.19,1.359c0-0.35,0.01-0.899-0.21-1.39
	c-0.26-0.55-0.51-0.89-0.73-0.94c-0.12,0.07-0.23,0.23-0.26,0.521c-0.08,0.41-0.11,0.92-0.11,1.19c0,0.939,0.2,2.18,0.57,3.459
	c0.07-0.189,0.13-0.379,0.18-0.559l0.57-2.15c0,0-0.12,2.479-0.3,3.229l-0.12,0.479c0.62,1.681,1.62,3.181,2.799,4.261
	c0.471,0.42,1.061,0.76,1.631,1.08c1.22-0.17,2.34-0.25,3.279-0.24c1.25,0.011,2.16,0.19,2.531,0.55
	c0.18,0.17,0.26,0.381,0.279,0.61c0,0.09-0.04,0.3-0.05,0.36c0.01-0.07,0.01-0.391-0.99-0.7c-0.79-0.24-2.26-0.229-4.03-0.05
	c2.051,0.97,4.041,1.449,4.67,1.16c0.15-0.07,0.34-0.32,0.34-0.32s-0.109,0.49-0.189,0.619c-0.1,0.131-0.3,0.281-0.49,0.32
	c-1,0.26-3.6-0.34-5.859-1.59c-2.53,0.36-5.311,1.03-7.53,1.74c-2.19,3.72-3.84,5.439-5.18,4.779l-0.49-0.239
	c-0.2-0.11-0.23-0.38-0.18-0.601c0.16-0.74,1.11-1.859,3.03-2.97c0.21-0.12,1.13-0.6,1.13-0.6s-0.68,0.64-0.84,0.771
	c-1.53,1.219-2.67,2.76-2.64,3.35l0.01,0.06C12.01,189.95,13.97,187.37,16.48,182.59z"/>
<g opacity="0.3">
	<rect x="29" y="129.5" fill-rule="evenodd" clip-rule="evenodd" fill="#010101" width="4" height="4"/>
	<polygon fill-rule="evenodd" clip-rule="evenodd" fill="#010101" points="26,133.5 36,133.5 31,138.5 	"/>
</g>
</svg>
