<?xml version="1.0" encoding="utf-8"?>
<!-- Generator: Adobe Illustrator 16.0.0, SVG Export Plug-In . SVG Version: 6.00 Build 0)  -->
<!DOCTYPE svg PUBLIC "-//W3C//DTD SVG 1.1//EN" "http://www.w3.org/Graphics/SVG/1.1/DTD/svg11.dtd">
<svg version="1.1" id="Layer_1" xmlns:sketch="http://www.bohemiancoding.com/sketch/ns"
	 xmlns="http://www.w3.org/2000/svg" xmlns:xlink="http://www.w3.org/1999/xlink" x="0px" y="0px" width="230px" height="987px"
	 viewBox="0 0 230 987" enable-background="new 0 0 230 987" xml:space="preserve">
<title>Slice 1</title>
<desc>Created with Sketch.</desc>
<linearGradient id="Shape_26_" gradientUnits="userSpaceOnUse" x1="3.4385" y1="1094.8682" x2="4.3731" y2="1095.8029" gradientTransform="matrix(64 0 0 -64 -222.5 70114)">
	<stop  offset="0" style="stop-color:#DA1F26"/>
	<stop  offset="1" style="stop-color:#EE2353"/>
</linearGradient>
<path id="Shape" sketch:type="MSShapeGroup" fill="url(#Shape_26_)" d="M0,16L16,0h48L0,64V16z"/>
<linearGradient id="Shape_27_" gradientUnits="userSpaceOnUse" x1="4.5107" y1="1094.8975" x2="3.502" y2="1095.7439" gradientTransform="matrix(64 0 0 -64 -56.5 70114.1797)">
	<stop  offset="0" style="stop-color:#EE2447"/>
	<stop  offset="0.0284" style="stop-color:#EE2343"/>
	<stop  offset="0.2625" style="stop-color:#ED1C26"/>
	<stop  offset="0.5008" style="stop-color:#E31E26"/>
	<stop  offset="0.7442" style="stop-color:#DC1F26"/>
	<stop  offset="1" style="stop-color:#DA1F26"/>
</linearGradient>
<path id="Shape_1_" sketch:type="MSShapeGroup" fill="url(#Shape_27_)" d="M230,64.159l-64-64h48l16,16V64.159z"/>
<g id="Group" transform="translate(35.000000, 186.000000)" sketch:type="MSShapeGroup">
	<circle id="Oval" fill="#CE2028" cx="26.42" cy="26.179" r="26"/>
	<path id="Shape_2_" fill="#FFFFFF" d="M39.92,35.379c0,0.44-0.36,0.8-0.8,0.8h-3.4c-0.44,0-0.8-0.36-0.8-0.8v-10.46
		c0-0.09-0.11-0.14-0.17-0.07l-7.2,7.2c-0.62,0.62-1.63,0.62-2.26,0l-7.2-7.2c-0.06-0.07-0.17-0.02-0.17,0.07v10.46
		c0,0.44-0.36,0.8-0.8,0.8h-3.4c-0.44,0-0.8-0.36-0.8-0.8v-18.4c0-0.44,0.36-0.8,0.8-0.8h2.34c0.42,0,0.83,0.17,1.13,0.47
		l8.95,8.939c0.15,0.16,0.41,0.16,0.57,0l8.94-8.939c0.3-0.3,0.71-0.47,1.14-0.47h2.33c0.44,0,0.8,0.36,0.8,0.8V35.379L39.92,35.379
		z"/>
	<path id="Shape_3_" fill="#FFFFFF" d="M111.92,19.779v-2.8c0-0.44-0.359-0.8-0.8-0.8H95.721c-0.441,0-0.801,0.36-0.801,0.8v18.399
		c0,0.44,0.359,0.8,0.801,0.8h15.399c0.44,0,0.8-0.36,0.8-0.8v-2.8c0-0.45-0.359-0.8-0.8-0.8h-11c-0.11,0-0.2-0.09-0.2-0.2v-3.2
		c0-0.109,0.09-0.2,0.2-0.2h11c0.44,0,0.8-0.36,0.8-0.8v-2.399c0-0.44-0.359-0.8-0.8-0.8h-11c-0.11,0-0.2-0.09-0.2-0.2v-3.2
		c0-0.11,0.09-0.2,0.2-0.2h11C111.561,20.579,111.92,20.219,111.92,19.779L111.92,19.779z"/>
	<path id="Shape_4_" fill="#FFFFFF" d="M144.84,27.889l2.301-4.74c0.069-0.16,0.289-0.16,0.359,0l2.3,4.74
		c0.07,0.13-0.03,0.29-0.18,0.29h-4.601C144.87,28.179,144.779,28.019,144.84,27.889L144.84,27.889z M154.57,36.179h3.59
		c0.449,0,0.74-0.47,0.54-0.87l-8.841-18.23c-0.271-0.55-0.83-0.9-1.439-0.9h-2.199c-0.611,0-1.171,0.35-1.441,0.9l-8.84,18.23
		c-0.188,0.4,0.104,0.87,0.541,0.87h3.59c0.459,0,0.883-0.27,1.08-0.68l1.699-3.5c0.062-0.14,0.2-0.22,0.36-0.22h8.229
		c0.147,0,0.291,0.08,0.357,0.22l1.689,3.5C153.689,35.909,154.109,36.179,154.57,36.179L154.57,36.179z"/>
	<path id="Shape_5_" fill="#FFFFFF" d="M87.65,16.649l-8.95,8.939c-0.15,0.16-0.41,0.16-0.56,0l-8.95-8.939
		c-0.3-0.3-0.71-0.47-1.13-0.47h-2.34c-0.44,0-0.8,0.36-0.8,0.8v18.399c0,0.44,0.36,0.8,0.8,0.8h3.4c0.44,0,0.8-0.36,0.8-0.8v-10.46
		c0-0.09,0.11-0.14,0.17-0.07l7.2,7.19c0.63,0.63,1.64,0.63,2.26,0l7.2-7.19c0.061-0.07,0.17-0.02,0.17,0.07v10.46
		c0,0.44,0.359,0.8,0.801,0.8h3.399c0.44,0,0.8-0.36,0.8-0.8V16.979c0-0.44-0.359-0.8-0.8-0.8h-2.341
		C88.359,16.179,87.95,16.349,87.65,16.649L87.65,16.649z"/>
	<path id="Shape_6_" fill="#FFFFFF" d="M134.12,24.379h-7.899c-0.441,0-0.801,0.351-0.801,0.8v2c0,0.44,0.359,0.8,0.801,0.8h4.539
		c0.141,0,0.24,0.14,0.19,0.27c-0.86,2.29-3.11,3.91-5.72,3.82c-3.062-0.09-5.562-2.56-5.701-5.61
		c-0.159-3.39,2.541-6.18,5.891-6.18c1.37,0,2.641,0.47,3.641,1.25c0.319,0.25,0.779,0.23,1.062-0.06l2.143-2.13
		c0.327-0.33,0.301-0.87-0.053-1.18c-1.857-1.57-4.26-2.51-6.88-2.48c-5.778,0.05-10.46,4.82-10.41,10.6
		c0.062,5.75,4.74,10.4,10.5,10.4c5.804,0,10.5-4.7,10.5-10.5v-0.02C135.92,25.169,135.109,24.379,134.12,24.379L134.12,24.379z"/>
</g>
<g id="Group_1_" transform="translate(2.000000, 327.000000)" sketch:type="MSShapeGroup">
	<g id="Shape_7_" transform="translate(25.000000, 35.000000)">
		<path fill="#FFFFFF" d="M99.35,0.159H30c-16.51,0-30,13.5-30,30v60c0,2.819,0.53,5.51,1.26,8.1L99.35,0.159L99.35,0.159z"/>
		<path fill="#FFFFFF" d="M40.68,120.159H110c16.5,0,30-13.5,30-30v-60c0-2.82-0.52-5.49-1.25-8.09L40.68,120.159L40.68,120.159z"/>
		<path fill="#FFFFFF" d="M150,50.159v20l50,40v-100L150,50.159z"/>
	</g>
	<path id="Shape_8_" fill="#EE2754" d="M186.6,20.069c4.53-4.52,4.53-11.971,0-16.51c-4.55-4.53-11.99-4.53-16.52,0L3.4,170.269
		c-4.53,4.529-4.53,11.988,0,16.521c2.34,2.22,5.23,3.37,8.26,3.37c3.02,0,5.92-1.15,8.26-3.37L186.6,20.069L186.6,20.069z"/>
</g>
<g id="Group_2_" transform="translate(6.000000, 8.000000)" sketch:type="MSShapeGroup">
	<path id="Shape_9_" fill="#FFFFFF" d="M7.06,23.929l-2.13-2.12l0.98-0.97c0.48-0.49,0.94-0.76,1.36-0.85
		c0.4-0.08,0.79,0.04,1.12,0.37c0.39,0.39,0.54,0.81,0.47,1.24c-0.08,0.43-0.36,0.88-0.83,1.36L7.06,23.929L7.06,23.929z
		 M4.23,21.099l-2.12-2.12l0.85-0.85c0.42-0.42,0.8-0.65,1.17-0.71c0.35-0.04,0.72,0.1,1.07,0.46c0.36,0.36,0.54,0.74,0.54,1.14
		c0,0.39-0.24,0.81-0.69,1.27L4.23,21.099L4.23,21.099z M6.61,25.789l2.25-2.24c0.35-0.36,0.64-0.71,0.87-1.1
		c0.24-0.37,0.39-0.76,0.45-1.14c0.07-0.37,0.05-0.73-0.06-1.1c-0.11-0.35-0.32-0.7-0.64-1.02c-0.42-0.42-0.9-0.63-1.39-0.63
		c-0.49,0.01-1.02,0.21-1.58,0.59l-0.04-0.05c0.29-0.46,0.4-0.92,0.31-1.37c-0.08-0.43-0.27-0.81-0.57-1.12
		c-0.29-0.29-0.61-0.48-0.92-0.57c-0.32-0.07-0.64-0.06-0.96,0.01c-0.32,0.08-0.65,0.24-1,0.47c-0.34,0.23-0.67,0.5-1,0.83
		l-2.08,2.07L6.61,25.789L6.61,25.789z"/>
	<path id="Shape_10_" fill="#FFFFFF" d="M12.27,20.129l4-4l-0.71-0.71l-2.85,2.86l-2.12-2.13l2.33-2.33l-0.7-0.7l-2.34,2.33
		l-2.12-2.12l2.75-2.76l-0.7-0.7l-3.9,3.9L12.27,20.129z"/>
	<path id="Shape_11_" fill="#FFFFFF" d="M18.54,13.869l1.14-1.15l-5.65-5.66l1.85-1.86l-0.7-0.7l-4.89,4.88l0.71,0.71l1.88-1.88
		L18.54,13.869z"/>
	<path id="Shape_12_" fill="#FFFFFF" d="M26.391,6.009l1.219-1.21l-8.48-4.26l-1.35,1.35l4.25,8.49l1.18-1.189L22.3,7.27l2.17-2.16
		L26.391,6.009L26.391,6.009z M21.85,6.309l-0.67-1.14c-0.3-0.5-0.6-0.99-0.93-1.5c-0.32-0.5-0.64-1.02-0.96-1.54l0.03-0.03
		c0.51,0.33,1.02,0.64,1.54,0.96l1.51,0.92l1.14,0.67L21.85,6.309L21.85,6.309z"/>
</g>
<g id="Group_3_" transform="translate(0.000000, 92.000000)" sketch:type="MSShapeGroup" opacity="0.7">
	<path id="Shape_13_" fill="#FFFFFF" d="M29.88,0.159c-16.5,0-29.88,13.43-29.88,30c0,16.57,13.38,30,29.88,30
		c16.51,0,29.89-13.43,29.89-30C59.77,13.589,46.39,0.159,29.88,0.159L29.88,0.159z M45.4,40.779c0,0.5-0.41,0.92-0.92,0.92h-3.91
		c-0.5,0-0.92-0.42-0.92-0.92v-12.07c0-0.1-0.12-0.159-0.19-0.079l-8.28,8.299c-0.71,0.721-1.88,0.721-2.6,0l-8.27-8.299
		c-0.07-0.08-0.2-0.021-0.2,0.079v12.07c0,0.5-0.41,0.92-0.91,0.92h-3.91c-0.51,0-0.92-0.42-0.92-0.92v-21.24
		c0-0.5,0.41-0.92,0.92-0.92h2.68c0.49,0,0.96,0.2,1.31,0.54l10.28,10.33c0.18,0.18,0.47,0.18,0.65,0l10.28-10.33
		c0.35-0.34,0.82-0.54,1.31-0.54h2.68c0.51,0,0.92,0.42,0.92,0.92V40.779L45.4,40.779z"/>
	<path id="Shape_14_" fill="#FFFFFF" d="M128.16,22.768v-3.229c0-0.5-0.41-0.92-0.92-0.92h-17.7c-0.511,0-0.92,0.42-0.92,0.92v21.24
		c0,0.5,0.409,0.92,0.92,0.92h17.7c0.51,0,0.92-0.42,0.92-0.92V37.55c0-0.521-0.41-0.931-0.92-0.931H114.6
		c-0.129,0-0.229-0.101-0.229-0.229V32.7c0-0.13,0.101-0.229,0.229-0.229h12.641c0.51,0,0.92-0.42,0.92-0.931v-2.76
		c0-0.511-0.41-0.931-0.92-0.931H114.6c-0.129,0-0.229-0.1-0.229-0.229v-3.69c0-0.129,0.101-0.229,0.229-0.229h12.641
		C127.75,23.699,128.16,23.289,128.16,22.768L128.16,22.768z"/>
	<path id="Shape_15_" fill="#FFFFFF" d="M166,32.139l2.641-5.48c0.08-0.17,0.33-0.17,0.409,0l2.65,5.48
		c0.069,0.149-0.04,0.33-0.21,0.33h-5.29C166.029,32.47,165.92,32.289,166,32.139L166,32.139z M177.18,41.699h4.131
		c0.51,0,0.84-0.54,0.619-1l-10.17-21.04c-0.3-0.63-0.949-1.04-1.65-1.04h-2.52c-0.71,0-1.35,0.41-1.66,1.04l-10.17,21.04
		c-0.22,0.46,0.12,1,0.631,1h4.119c0.53,0,1.01-0.3,1.24-0.78l1.95-4.039c0.079-0.16,0.239-0.261,0.42-0.261h9.46
		c0.17,0,0.33,0.101,0.41,0.261l1.949,4.039C176.17,41.399,176.65,41.699,177.18,41.699L177.18,41.699z"/>
	<path id="Shape_16_" fill="#FFFFFF" d="M100.26,19.159l-10.28,10.33c-0.181,0.18-0.471,0.18-0.65,0l-10.29-10.33
		c-0.34-0.34-0.81-0.54-1.3-0.54h-2.68c-0.51,0-0.92,0.42-0.92,0.92v21.229c0,0.511,0.41,0.931,0.92,0.931h3.9
		c0.51,0,0.92-0.42,0.92-0.931v-12.06c0-0.1,0.13-0.159,0.2-0.079l8.27,8.299c0.721,0.721,1.881,0.721,2.601,0l8.28-8.299
		c0.069-0.08,0.189-0.021,0.189,0.079v12.06c0,0.511,0.42,0.931,0.92,0.931h3.91c0.51,0,0.92-0.42,0.92-0.931V19.539
		c0-0.5-0.41-0.92-0.92-0.92h-2.689C101.08,18.619,100.609,18.819,100.26,19.159L100.26,19.159z"/>
	<path id="Shape_17_" fill="#FFFFFF" d="M153.67,28.079h-9.07c-0.51,0-0.92,0.42-0.92,0.93v2.301c0,0.51,0.41,0.93,0.92,0.93h5.211
		c0.16,0,0.271,0.16,0.219,0.311c-0.987,2.649-3.577,4.51-6.577,4.409c-3.513-0.11-6.392-2.95-6.552-6.479
		c-0.18-3.9,2.92-7.131,6.779-7.131c1.57,0,3.03,0.541,4.18,1.451c0.371,0.289,0.893,0.27,1.223-0.07l2.447-2.461
		c0.383-0.379,0.361-1.01-0.059-1.359c-2.121-1.811-4.891-2.891-7.9-2.87c-6.641,0.06-12.021,5.57-11.961,12.24
		c0.062,6.63,5.44,12,12.07,12c6.66,0,12.062-5.431,12.062-12.12v-0.02C155.74,28.999,154.811,28.079,153.67,28.079L153.67,28.079z"
		/>
</g>
<g id="Group_4_" transform="translate(195.000000, 7.000000)" sketch:type="MSShapeGroup">
	<path id="Shape_18_" fill="#FFFFFF" d="M2.23,7.219l2.119-2.13l0.971,0.98c0.49,0.48,0.76,0.94,0.85,1.36
		c0.08,0.4-0.04,0.79-0.37,1.12c-0.39,0.39-0.81,0.54-1.239,0.47c-0.431-0.08-0.891-0.36-1.358-0.83L2.23,7.219L2.23,7.219z
		 M5.061,4.389l2.119-2.12l0.85,0.85c0.423,0.42,0.65,0.8,0.701,1.17c0.049,0.35-0.09,0.72-0.451,1.07
		c-0.357,0.36-0.737,0.54-1.139,0.54c-0.391,0-0.811-0.24-1.271-0.69L5.061,4.389L5.061,4.389z M0.37,6.769l2.239,2.25
		c0.361,0.35,0.711,0.64,1.101,0.87c0.37,0.24,0.761,0.39,1.14,0.45c0.371,0.07,0.73,0.05,1.103-0.06
		c0.35-0.11,0.698-0.32,1.021-0.64c0.42-0.42,0.629-0.9,0.629-1.39c-0.011-0.49-0.209-1.02-0.59-1.58l0.051-0.04
		c0.459,0.29,0.92,0.4,1.369,0.311c0.43-0.08,0.812-0.271,1.119-0.57c0.29-0.29,0.479-0.61,0.57-0.92
		c0.068-0.32,0.061-0.64-0.021-0.96c-0.07-0.32-0.229-0.65-0.459-1c-0.229-0.34-0.5-0.67-0.83-1L6.742,0.41L0.37,6.769L0.37,6.769z"
		/>
	<path id="Shape_19_" fill="#FFFFFF" d="M6.029,12.429l4,4l0.701-0.71l-2.851-2.85l2.13-2.12l2.33,2.33l0.7-0.7l-2.33-2.34
		l2.12-2.12l2.76,2.75l0.7-0.7l-3.899-3.9L6.029,12.429z"/>
	<path id="Shape_20_" fill="#FFFFFF" d="M12.29,18.699l1.149,1.14l5.66-5.65l1.851,1.85l0.71-0.7l-4.881-4.89l-0.709,0.71l1.88,1.88
		L12.29,18.699z"/>
	<path id="Shape_21_" fill="#FFFFFF" d="M20.15,26.549l1.209,1.22l4.261-8.48l-1.351-1.35l-8.49,4.25l1.191,1.18l1.92-0.91
		l2.157,2.17L20.15,26.549L20.15,26.549z M19.85,22.009l1.143-0.67c0.5-0.3,0.988-0.6,1.5-0.93c0.5-0.32,1.021-0.64,1.537-0.96
		l0.031,0.03c-0.33,0.51-0.641,1.02-0.961,1.54l-0.92,1.51l-0.67,1.14L19.85,22.009L19.85,22.009z"/>
</g>
<g id="Group_5_" transform="translate(72.000000, 614.000000)" sketch:type="MSShapeGroup">
	<path id="Shape_22_" fill="#FFFFFF" d="M44.82,0.319H13.689c-7.41,0-13.469,6.04-13.469,13.42v26.84c0,1.26,0.239,2.471,0.569,3.62
		L44.82,0.319L44.82,0.319z"/>
	<path id="Shape_23_" fill="#FFFFFF" d="M18.48,53.999H49.6c7.41,0,13.471-6.04,13.471-13.42v-26.84c0-1.261-0.238-2.46-0.561-3.62
		L18.48,53.999L18.48,53.999z"/>
	<path id="Shape_24_" fill="#FFFFFF" d="M67.561,22.688v8.942L90,49.529V4.789L67.561,22.688z"/>
</g>
<path id="Shape_25_" sketch:type="MSShapeGroup" fill="#EE2353" d="M144.76,607.569c2.04-2.021,2.04-5.36,0-7.393
	c-2.039-2.027-5.38-2.027-7.41,0l-74.82,74.58c-2.039,2.03-2.039,5.371,0,7.393c1.041,0.989,2.341,1.51,3.711,1.51
	c1.35,0,2.65-0.521,3.699-1.51L144.76,607.569L144.76,607.569z"/>
<path id="Imported-Layers-6" sketch:type="MSShapeGroup" opacity="0.3" fill="#FFFFFF" enable-background="new    " d="
	M113.5,752.159c7.109,0,13.859,1.8,20.7,3.84c6.45,1.92,8.938,7.051,7.319,13.801c-0.598,2.431-1.891,3.569-4.289,3.329
	c-1.11-0.12-5.342-0.51-6.48-0.659c-3.566-0.479-4.827-1.351-4.77-7.141c0-2.4-1.801-3.66-3.567-3.66H104.59
	c-1.77,0-3.569,1.26-3.569,3.66c0.06,5.79-1.2,6.66-4.771,7.141c-1.14,0.149-5.37,0.539-6.479,0.659
	c-2.4,0.24-3.69-0.898-4.29-3.329c-1.62-6.75,0.869-11.881,7.319-13.801C99.64,753.959,106.39,752.159,113.5,752.159"/>
<path id="Fill-9" sketch:type="MSShapeGroup" opacity="0.3" fill="#FFFFFF" enable-background="new    " d="M85,962.624
	c-1.196-0.691-2-1.984-2-3.465v-10c0-17.646,14.355-32,32-32c17.645,0,32,14.354,32,32v10c0,2.209-1.791,4-4,4s-4-1.791-4-4v-10
	c0-13.234-10.766-24-24-24c-13.234,0-24,10.766-24,24v10c0,1.479-0.804,2.772-2,3.465v7.535c0,5.514,4.486,10,10,10h4.184
	c0.413-1.163,1.512-2,2.816-2h4c1.657,0,3,1.343,3,3v2c0,1.657-1.343,3-3,3h-4c-1.304,0-2.403-0.838-2.816-2H99
	c-7.72,0-14-6.28-14-14V962.624L85,962.624z M129,952.159v18c0,2.209,1.791,4,4,4s4-1.791,4-4v-18c0-2.209-1.791-4-4-4
	S129,949.95,129,952.159L129,952.159z M101,952.159c0-2.209-1.791-4-4-4s-4,1.791-4,4v18c0,2.209,1.791,4,4,4s4-1.791,4-4V952.159
	L101,952.159z"/>
<path id="Imported-Layers-2" sketch:type="MSShapeGroup" opacity="0.3" fill="#FFFFFF" enable-background="new    " d="M83,850.159
	c0,17.68,14.32,32,32,32c17.68,0,32-14.32,32-32c0-17.681-14.32-32-32-32C97.32,818.159,83,832.479,83,850.159L83,850.159
	L83,850.159z M121,834.159h4c1.105,0,2,0.895,2,2v28c0,1.104-0.895,2-2,2h-4c-1.105,0-2-0.896-2-2v-28
	C119,835.054,119.895,834.159,121,834.159L121,834.159L121,834.159z M105,834.159h4c1.105,0,2,0.895,2,2v28c0,1.104-0.895,2-2,2h-4
	c-1.105,0-2-0.896-2-2v-28C103,835.054,103.895,834.159,105,834.159L105,834.159L105,834.159z"/>
</svg>
