<?xml version="1.0" encoding="utf-8"?>
<!-- Generator: Adobe Illustrator 16.0.0, SVG Export Plug-In . SVG Version: 6.00 Build 0)  -->
<!DOCTYPE svg PUBLIC "-//W3C//DTD SVG 1.1//EN" "http://www.w3.org/Graphics/SVG/1.1/DTD/svg11.dtd">
<svg version="1.1" id="Layer_1" xmlns="http://www.w3.org/2000/svg" xmlns:xlink="http://www.w3.org/1999/xlink" x="0px" y="0px"
	 width="230px" height="700px" viewBox="0 0 230 700" enable-background="new 0 0 230 700" xml:space="preserve">
<linearGradient id="SVGID_1_" gradientUnits="userSpaceOnUse" x1="-12" y1="51.8418" x2="52.0001" y2="-12.1583">
	<stop  offset="0" style="stop-color:#DA1F26"/>
	<stop  offset="1" style="stop-color:#EE2353"/>
</linearGradient>
<polygon fill-rule="evenodd" clip-rule="evenodd" fill="url(#SVGID_1_)" points="0,15.841 16,-0.159 64,-0.159 0,63.841 "/>
<rect x="14.49" y="3.041" transform="matrix(-0.7071 0.7071 -0.7071 -0.7071 77.4883 21.5063)" fill-rule="evenodd" clip-rule="evenodd" fill="none" width="39.599" height="47.52"/>
<text transform="matrix(0.7071 -0.7071 0.7071 0.7071 12.9126 33.4253)" fill="#FFFFFF" font-family="'MyriadPro-Regular'" font-size="14">BETA</text>
<g>
	<circle fill="#CD2027" cx="61.42" cy="212.02" r="26"/>
	<path fill="#FFFFFF" d="M74.92,221.22c0,0.44-0.36,0.8-0.8,0.8h-3.4c-0.44,0-0.8-0.36-0.8-0.8v-10.46c0-0.09-0.11-0.14-0.17-0.07
		l-7.2,7.2c-0.62,0.62-1.63,0.62-2.26,0l-7.2-7.2c-0.06-0.07-0.17-0.02-0.17,0.07v10.46c0,0.44-0.36,0.8-0.8,0.8h-3.4
		c-0.44,0-0.8-0.36-0.8-0.8V202.82c0-0.44,0.36-0.8,0.8-0.8h2.34c0.42,0,0.83,0.17,1.13,0.47l8.95,8.939c0.15,0.16,0.41,0.16,0.57,0
		l8.94-8.939c0.3-0.3,0.71-0.47,1.14-0.47h2.33c0.44,0,0.8,0.36,0.8,0.8V221.22z"/>
	<path fill="#FFFFFF" d="M146.92,205.62v-2.8c0-0.44-0.359-0.8-0.8-0.8h-15.399c-0.441,0-0.801,0.36-0.801,0.8v18.399
		c0,0.44,0.359,0.8,0.801,0.8h15.399c0.44,0,0.8-0.36,0.8-0.8v-2.8c0-0.45-0.359-0.8-0.8-0.8h-11c-0.11,0-0.2-0.09-0.2-0.2v-3.2
		c0-0.109,0.09-0.2,0.2-0.2h11c0.44,0,0.8-0.36,0.8-0.8v-2.399c0-0.44-0.359-0.8-0.8-0.8h-11c-0.11,0-0.2-0.09-0.2-0.2v-3.2
		c0-0.11,0.09-0.2,0.2-0.2h11C146.561,206.42,146.92,206.06,146.92,205.62z"/>
	<path fill-rule="evenodd" clip-rule="evenodd" fill="#FFFFFF" d="M179.84,213.73l2.301-4.74c0.069-0.16,0.289-0.16,0.359,0
		l2.3,4.74c0.07,0.13-0.03,0.29-0.18,0.29h-4.601C179.87,214.02,179.779,213.86,179.84,213.73z M189.57,222.02h3.59
		c0.449,0,0.74-0.47,0.54-0.87l-8.841-18.23c-0.27-0.55-0.83-0.9-1.439-0.9h-2.199c-0.611,0-1.171,0.35-1.441,0.9l-8.84,18.23
		c-0.189,0.4,0.101,0.87,0.541,0.87h3.59c0.459,0,0.88-0.27,1.08-0.68l1.699-3.5c0.061-0.14,0.2-0.22,0.36-0.22h8.229
		c0.15,0,0.291,0.08,0.36,0.22l1.69,3.5C188.689,221.75,189.109,222.02,189.57,222.02z"/>
	<path fill="#FFFFFF" d="M122.65,202.49l-8.95,8.939c-0.15,0.16-0.41,0.16-0.56,0l-8.95-8.939c-0.3-0.3-0.71-0.47-1.13-0.47h-2.34
		c-0.44,0-0.8,0.36-0.8,0.8v18.399c0,0.44,0.36,0.8,0.8,0.8h3.4c0.44,0,0.8-0.36,0.8-0.8v-10.46c0-0.09,0.11-0.14,0.17-0.07
		l7.2,7.19c0.63,0.63,1.64,0.63,2.26,0l7.2-7.19c0.061-0.07,0.17-0.02,0.17,0.07v10.46c0,0.44,0.359,0.8,0.801,0.8h3.399
		c0.44,0,0.8-0.36,0.8-0.8V202.82c0-0.44-0.359-0.8-0.8-0.8h-2.341C123.359,202.02,122.95,202.19,122.65,202.49z"/>
	<path fill="#FFFFFF" d="M169.12,210.22h-7.899c-0.441,0-0.801,0.351-0.801,0.8v2c0,0.44,0.359,0.8,0.801,0.8h4.539
		c0.141,0,0.24,0.14,0.19,0.27c-0.86,2.29-3.11,3.91-5.72,3.82c-3.061-0.09-5.561-2.56-5.701-5.61
		c-0.159-3.39,2.541-6.18,5.891-6.18c1.37,0,2.641,0.47,3.641,1.25c0.319,0.25,0.779,0.23,1.06-0.06l2.14-2.13
		c0.33-0.33,0.301-0.87-0.05-1.18c-1.86-1.57-4.26-2.51-6.88-2.48c-5.78,0.05-10.46,4.82-10.41,10.6c0.061,5.75,4.74,10.4,10.5,10.4
		c5.801,0,10.5-4.7,10.5-10.5V212C170.92,211.01,170.109,210.22,169.12,210.22z"/>
</g>
<g>
	<g>
		<g>
			<path fill="#FFFFFF" d="M126.35,362H57c-16.51,0-30,13.5-30,30v60c0,2.82,0.53,5.51,1.26,8.1L126.35,362z"/>
			<path fill="#FFFFFF" d="M67.68,482H137c16.5,0,30-13.5,30-30v-60c0-2.82-0.52-5.49-1.25-8.09L67.68,482z"/>
			<polygon fill="#FFFFFF" points="177,412 177,432 227,472 227,372 			"/>
		</g>
	</g>
	<path fill="#EE2353" d="M188.6,346.91c4.53-4.52,4.53-11.971,0-16.51c-4.55-4.53-11.99-4.53-16.52,0L5.4,497.109
		c-4.53,4.531-4.53,11.99,0,16.521c2.34,2.22,5.23,3.37,8.26,3.37c3.02,0,5.92-1.15,8.26-3.37L188.6,346.91z"/>
</g>
</svg>
