<?xml version="1.0" encoding="utf-8"?>
<!-- Generator: Adobe Illustrator 16.0.0, SVG Export Plug-In . SVG Version: 6.00 Build 0)  -->
<!DOCTYPE svg PUBLIC "-//W3C//DTD SVG 1.1//EN" "http://www.w3.org/Graphics/SVG/1.1/DTD/svg11.dtd">
<svg version="1.1" id="Layer_1" xmlns="http://www.w3.org/2000/svg" xmlns:xlink="http://www.w3.org/1999/xlink" x="0px" y="0px"
	 width="230px" height="700px" viewBox="0 0 230 700" enable-background="new 0 0 230 700" xml:space="preserve">
<linearGradient id="SVGID_1_" gradientUnits="userSpaceOnUse" x1="188.5098" y1="612.668" x2="248.3273" y2="672.4855" gradientTransform="matrix(1 0 0 -1 -191 655)">
	<stop  offset="0" style="stop-color:#DC0000"/>
	<stop  offset="1" style="stop-color:#FF0F4F"/>
</linearGradient>
<polygon fill="url(#SVGID_1_)" points="0,15.841 16,-0.159 64,-0.159 0,63.841 "/>
<g>
	<circle fill="#CD2027" cx="61.42" cy="212.02" r="26"/>
	<path fill="#FFFFFF" d="M74.92,221.22c0,0.44-0.36,0.8-0.8,0.8h-3.4c-0.44,0-0.8-0.36-0.8-0.8v-10.46c0-0.09-0.11-0.14-0.17-0.07
		l-7.2,7.2c-0.62,0.62-1.63,0.62-2.26,0l-7.2-7.2c-0.06-0.07-0.17-0.02-0.17,0.07v10.46c0,0.44-0.36,0.8-0.8,0.8h-3.4
		c-0.44,0-0.8-0.36-0.8-0.8v-18.4c0-0.44,0.36-0.8,0.8-0.8h2.34c0.42,0,0.83,0.17,1.13,0.47l8.95,8.939c0.15,0.16,0.41,0.16,0.57,0
		l8.94-8.939c0.3-0.3,0.71-0.47,1.14-0.47h2.33c0.44,0,0.8,0.36,0.8,0.8V221.22z"/>
	<path fill="#FFFFFF" d="M146.92,205.62v-2.8c0-0.44-0.359-0.8-0.8-0.8h-15.399c-0.441,0-0.801,0.36-0.801,0.8v18.399
		c0,0.44,0.359,0.8,0.801,0.8h15.399c0.44,0,0.8-0.36,0.8-0.8v-2.8c0-0.45-0.359-0.8-0.8-0.8h-11c-0.11,0-0.2-0.09-0.2-0.2v-3.2
		c0-0.109,0.09-0.2,0.2-0.2h11c0.44,0,0.8-0.36,0.8-0.8v-2.399c0-0.44-0.359-0.8-0.8-0.8h-11c-0.11,0-0.2-0.09-0.2-0.2v-3.2
		c0-0.11,0.09-0.2,0.2-0.2h11C146.561,206.42,146.92,206.06,146.92,205.62z"/>
	<path fill="#FFFFFF" d="M179.84,213.73l2.301-4.74c0.069-0.16,0.289-0.16,0.359,0l2.3,4.74c0.07,0.13-0.03,0.29-0.18,0.29h-4.601
		C179.87,214.02,179.779,213.86,179.84,213.73z M189.57,222.02h3.59c0.449,0,0.74-0.47,0.54-0.87l-8.841-18.23
		c-0.271-0.55-0.83-0.9-1.439-0.9h-2.199c-0.611,0-1.171,0.35-1.441,0.9l-8.84,18.23c-0.188,0.4,0.102,0.87,0.541,0.87h3.59
		c0.459,0,0.881-0.27,1.08-0.68l1.699-3.5c0.062-0.14,0.2-0.22,0.36-0.22h8.229c0.149,0,0.291,0.08,0.359,0.22l1.69,3.5
		C188.689,221.75,189.109,222.02,189.57,222.02z"/>
	<path fill="#FFFFFF" d="M122.65,202.49l-8.95,8.939c-0.15,0.16-0.41,0.16-0.56,0l-8.95-8.939c-0.3-0.3-0.71-0.47-1.13-0.47h-2.34
		c-0.44,0-0.8,0.36-0.8,0.8v18.399c0,0.44,0.36,0.8,0.8,0.8h3.4c0.44,0,0.8-0.36,0.8-0.8v-10.46c0-0.09,0.11-0.14,0.17-0.07
		l7.2,7.19c0.63,0.63,1.64,0.63,2.26,0l7.2-7.19c0.061-0.07,0.17-0.02,0.17,0.07v10.46c0,0.44,0.359,0.8,0.801,0.8h3.399
		c0.44,0,0.8-0.36,0.8-0.8V202.82c0-0.44-0.359-0.8-0.8-0.8h-2.341C123.359,202.02,122.95,202.19,122.65,202.49z"/>
	<path fill="#FFFFFF" d="M169.12,210.22h-7.899c-0.441,0-0.801,0.351-0.801,0.8v2c0,0.44,0.359,0.8,0.801,0.8h4.539
		c0.141,0,0.24,0.14,0.19,0.27c-0.86,2.29-3.11,3.91-5.72,3.82c-3.062-0.09-5.562-2.56-5.701-5.61
		c-0.159-3.39,2.541-6.18,5.891-6.18c1.37,0,2.641,0.47,3.641,1.25c0.319,0.25,0.779,0.23,1.061-0.06l2.141-2.13
		c0.329-0.33,0.301-0.87-0.051-1.18c-1.859-1.57-4.26-2.51-6.88-2.48c-5.78,0.05-10.46,4.82-10.41,10.6
		c0.062,5.75,4.74,10.4,10.5,10.4c5.802,0,10.5-4.7,10.5-10.5V212C170.92,211.01,170.109,210.22,169.12,210.22z"/>
</g>
<g>
	<g>
		<g>
			<path fill="#FFFFFF" d="M126.35,362H57c-16.51,0-30,13.5-30,30v60c0,2.82,0.53,5.51,1.26,8.1L126.35,362z"/>
			<path fill="#FFFFFF" d="M67.68,482H137c16.5,0,30-13.5,30-30v-60c0-2.82-0.52-5.49-1.25-8.09L67.68,482z"/>
			<polygon fill="#FFFFFF" points="177,412 177,432 227,472 227,372 			"/>
		</g>
	</g>
	<path fill="#EE2353" d="M188.6,346.91c4.53-4.52,4.53-11.971,0-16.51c-4.55-4.53-11.99-4.53-16.52,0L5.4,497.109
		c-4.53,4.53-4.53,11.989,0,16.521c2.34,2.22,5.23,3.37,8.26,3.37c3.02,0,5.92-1.15,8.26-3.37L188.6,346.91z"/>
</g>
<g>
	<path fill-rule="evenodd" clip-rule="evenodd" fill="#FFFFFF" d="M13.06,31.77l-2.13-2.12l0.98-0.97c0.48-0.49,0.94-0.76,1.36-0.85
		c0.4-0.08,0.79,0.04,1.12,0.37c0.39,0.39,0.54,0.81,0.47,1.24c-0.08,0.43-0.36,0.88-0.83,1.36L13.06,31.77z M10.23,28.94
		l-2.12-2.12l0.85-0.85c0.42-0.42,0.8-0.65,1.17-0.71c0.35-0.04,0.72,0.1,1.07,0.46c0.36,0.36,0.54,0.74,0.54,1.14
		c0,0.39-0.24,0.81-0.69,1.27L10.23,28.94z M12.61,33.63l2.25-2.24c0.35-0.36,0.64-0.71,0.87-1.1c0.24-0.37,0.39-0.76,0.45-1.14
		c0.07-0.37,0.05-0.73-0.06-1.1c-0.11-0.35-0.32-0.7-0.64-1.02c-0.42-0.42-0.9-0.63-1.39-0.63c-0.49,0.01-1.02,0.21-1.58,0.59
		l-0.04-0.05c0.29-0.46,0.4-0.92,0.31-1.37c-0.08-0.43-0.27-0.81-0.57-1.12c-0.29-0.29-0.61-0.48-0.92-0.57
		c-0.32-0.07-0.64-0.06-0.96,0.01c-0.32,0.08-0.65,0.24-1,0.47c-0.34,0.23-0.67,0.5-1,0.83l-2.08,2.07L12.61,33.63z"/>
	<polygon fill-rule="evenodd" clip-rule="evenodd" fill="#FFFFFF" points="18.27,27.97 22.27,23.97 21.56,23.26 18.71,26.12 
		16.59,23.99 18.92,21.66 18.22,20.96 15.88,23.29 13.76,21.17 16.51,18.41 15.81,17.71 11.91,21.61 	"/>
	<polygon fill-rule="evenodd" clip-rule="evenodd" fill="#FFFFFF" points="24.54,21.71 25.68,20.56 20.03,14.9 21.88,13.04 
		21.18,12.34 16.29,17.22 17,17.93 18.88,16.05 	"/>
	<path fill-rule="evenodd" clip-rule="evenodd" fill="#FFFFFF" d="M32.391,13.85l1.219-1.21L25.13,8.38l-1.35,1.35l4.25,8.49
		l1.18-1.19l-0.91-1.92l2.17-2.16L32.391,13.85z M27.85,14.15l-0.67-1.14c-0.3-0.5-0.6-0.99-0.93-1.5c-0.32-0.5-0.64-1.02-0.96-1.54
		l0.03-0.03c0.51,0.33,1.02,0.64,1.54,0.96l1.51,0.92l1.14,0.67L27.85,14.15z"/>
</g>
</svg>
