<?xml version="1.0" encoding="utf-8"?>
<!-- Generator: Adobe Illustrator 16.0.0, SVG Export Plug-In . SVG Version: 6.00 Build 0)  -->
<!DOCTYPE svg PUBLIC "-//W3C//DTD SVG 1.1//EN" "http://www.w3.org/Graphics/SVG/1.1/DTD/svg11.dtd">
<svg version="1.1" id="Layer_1" xmlns="http://www.w3.org/2000/svg" xmlns:xlink="http://www.w3.org/1999/xlink" x="0px" y="0px"
	 width="230px" height="700px" enable-background="new 0 0 230 700" xml:space="preserve">
<g>
	
		<linearGradient id="SVGID_1_" gradientUnits="userSpaceOnUse" x1="188.5098" y1="612.668" x2="248.3273" y2="672.4855" gradientTransform="matrix(1 0 0 -1 -191 655)">
		<stop  offset="0" style="stop-color:#DC0000"/>
		<stop  offset="1" style="stop-color:#FF0F4F"/>
	</linearGradient>
	<polygon fill="url(#SVGID_1_)" points="0,15.841 16,-0.159 64,-0.159 0,63.841 	"/>
</g>
<g>
	
		<linearGradient id="SVGID_2_" gradientUnits="userSpaceOnUse" x1="142.8105" y1="614.4502" x2="207.3672" y2="668.6196" gradientTransform="matrix(-1 0 0 -1 375 655)">
		<stop  offset="0" style="stop-color:#FF0F41"/>
		<stop  offset="0.0284" style="stop-color:#FD0E3D"/>
		<stop  offset="0.2625" style="stop-color:#EF0822"/>
		<stop  offset="0.5008" style="stop-color:#E4040F"/>
		<stop  offset="0.7442" style="stop-color:#DE0104"/>
		<stop  offset="1" style="stop-color:#DC0000"/>
	</linearGradient>
	<polygon fill="url(#SVGID_2_)" points="230,64 166,0 214,0 230,16 	"/>
</g>
<g>
	<circle fill="#CD2027" cx="61.42" cy="212.02" r="26"/>
	<path fill="#FFFFFF" d="M74.92,221.22c0,0.44-0.36,0.8-0.8,0.8h-3.4c-0.44,0-0.8-0.36-0.8-0.8v-10.46c0-0.09-0.11-0.14-0.17-0.07
		l-7.2,7.2c-0.62,0.62-1.63,0.62-2.26,0l-7.2-7.2c-0.06-0.07-0.17-0.02-0.17,0.07v10.46c0,0.44-0.36,0.8-0.8,0.8h-3.4
		c-0.44,0-0.8-0.36-0.8-0.8v-18.4c0-0.44,0.36-0.8,0.8-0.8h2.34c0.42,0,0.83,0.17,1.13,0.47l8.95,8.939c0.15,0.16,0.41,0.16,0.57,0
		l8.94-8.939c0.3-0.3,0.71-0.47,1.14-0.47h2.33c0.44,0,0.8,0.36,0.8,0.8V221.22z"/>
	<path fill="#FFFFFF" d="M146.92,205.62v-2.8c0-0.44-0.359-0.8-0.8-0.8h-15.399c-0.441,0-0.801,0.36-0.801,0.8v18.399
		c0,0.44,0.359,0.8,0.801,0.8h15.399c0.44,0,0.8-0.36,0.8-0.8v-2.8c0-0.45-0.359-0.8-0.8-0.8h-11c-0.11,0-0.2-0.09-0.2-0.2v-3.2
		c0-0.109,0.09-0.2,0.2-0.2h11c0.44,0,0.8-0.36,0.8-0.8v-2.399c0-0.44-0.359-0.8-0.8-0.8h-11c-0.11,0-0.2-0.09-0.2-0.2v-3.2
		c0-0.11,0.09-0.2,0.2-0.2h11C146.561,206.42,146.92,206.06,146.92,205.62z"/>
	<path fill="#FFFFFF" d="M179.84,213.73l2.301-4.74c0.069-0.16,0.289-0.16,0.359,0l2.3,4.74c0.07,0.13-0.03,0.29-0.18,0.29h-4.601
		C179.87,214.02,179.779,213.86,179.84,213.73z M189.57,222.02h3.59c0.449,0,0.74-0.47,0.54-0.87l-8.841-18.23
		c-0.271-0.55-0.83-0.9-1.439-0.9h-2.199c-0.611,0-1.171,0.35-1.441,0.9l-8.84,18.23c-0.188,0.4,0.102,0.87,0.541,0.87h3.59
		c0.459,0,0.881-0.27,1.08-0.68l1.699-3.5c0.062-0.14,0.2-0.22,0.36-0.22h8.229c0.149,0,0.291,0.08,0.359,0.22l1.69,3.5
		C188.689,221.75,189.109,222.02,189.57,222.02z"/>
	<path fill="#FFFFFF" d="M122.65,202.49l-8.95,8.939c-0.15,0.16-0.41,0.16-0.56,0l-8.95-8.939c-0.3-0.3-0.71-0.47-1.13-0.47h-2.34
		c-0.44,0-0.8,0.36-0.8,0.8v18.399c0,0.44,0.36,0.8,0.8,0.8h3.4c0.44,0,0.8-0.36,0.8-0.8v-10.46c0-0.09,0.11-0.14,0.17-0.07
		l7.2,7.19c0.63,0.63,1.64,0.63,2.26,0l7.2-7.19c0.061-0.07,0.17-0.02,0.17,0.07v10.46c0,0.44,0.359,0.8,0.801,0.8h3.399
		c0.44,0,0.8-0.36,0.8-0.8V202.82c0-0.44-0.359-0.8-0.8-0.8h-2.341C123.359,202.02,122.95,202.19,122.65,202.49z"/>
	<path fill="#FFFFFF" d="M169.12,210.22h-7.899c-0.441,0-0.801,0.351-0.801,0.8v2c0,0.44,0.359,0.8,0.801,0.8h4.539
		c0.141,0,0.24,0.14,0.19,0.27c-0.86,2.29-3.11,3.91-5.72,3.82c-3.062-0.09-5.562-2.56-5.701-5.61
		c-0.159-3.39,2.541-6.18,5.891-6.18c1.37,0,2.641,0.47,3.641,1.25c0.319,0.25,0.779,0.23,1.061-0.06l2.141-2.13
		c0.329-0.33,0.301-0.87-0.051-1.18c-1.859-1.57-4.26-2.51-6.88-2.48c-5.78,0.05-10.46,4.82-10.41,10.6
		c0.062,5.75,4.74,10.4,10.5,10.4c5.802,0,10.5-4.7,10.5-10.5V212C170.92,211.01,170.109,210.22,169.12,210.22z"/>
</g>
<g>
	<g>
		<g>
			<path fill="#FFFFFF" d="M126.35,362H57c-16.51,0-30,13.5-30,30v60c0,2.82,0.53,5.51,1.26,8.1L126.35,362z"/>
			<path fill="#FFFFFF" d="M67.68,482H137c16.5,0,30-13.5,30-30v-60c0-2.82-0.52-5.49-1.25-8.09L67.68,482z"/>
			<polygon fill="#FFFFFF" points="177,412 177,432 227,472 227,372 			"/>
		</g>
	</g>
	<path fill="#EE2353" d="M188.6,346.91c4.53-4.52,4.53-11.971,0-16.51c-4.55-4.53-11.99-4.53-16.52,0L5.4,497.109
		c-4.53,4.53-4.53,11.989,0,16.521c2.34,2.22,5.23,3.37,8.26,3.37c3.02,0,5.92-1.15,8.26-3.37L188.6,346.91z"/>
</g>
<g>
	<path fill-rule="evenodd" clip-rule="evenodd" fill="#FFFFFF" d="M13.06,31.77l-2.13-2.12l0.98-0.97c0.48-0.49,0.94-0.76,1.36-0.85
		c0.4-0.08,0.79,0.04,1.12,0.37c0.39,0.39,0.54,0.81,0.47,1.24c-0.08,0.43-0.36,0.88-0.83,1.36L13.06,31.77z M10.23,28.94
		l-2.12-2.12l0.85-0.85c0.42-0.42,0.8-0.65,1.17-0.71c0.35-0.04,0.72,0.1,1.07,0.46c0.36,0.36,0.54,0.74,0.54,1.14
		c0,0.39-0.24,0.81-0.69,1.27L10.23,28.94z M12.61,33.63l2.25-2.24c0.35-0.36,0.64-0.71,0.87-1.1c0.24-0.37,0.39-0.76,0.45-1.14
		c0.07-0.37,0.05-0.73-0.06-1.1c-0.11-0.35-0.32-0.7-0.64-1.02c-0.42-0.42-0.9-0.63-1.39-0.63c-0.49,0.01-1.02,0.21-1.58,0.59
		l-0.04-0.05c0.29-0.46,0.4-0.92,0.31-1.37c-0.08-0.43-0.27-0.81-0.57-1.12c-0.29-0.29-0.61-0.48-0.92-0.57
		c-0.32-0.07-0.64-0.06-0.96,0.01c-0.32,0.08-0.65,0.24-1,0.47c-0.34,0.23-0.67,0.5-1,0.83l-2.08,2.07L12.61,33.63z"/>
	<polygon fill-rule="evenodd" clip-rule="evenodd" fill="#FFFFFF" points="18.27,27.97 22.27,23.97 21.56,23.26 18.71,26.12 
		16.59,23.99 18.92,21.66 18.22,20.96 15.88,23.29 13.76,21.17 16.51,18.41 15.81,17.71 11.91,21.61 	"/>
	<polygon fill-rule="evenodd" clip-rule="evenodd" fill="#FFFFFF" points="24.54,21.71 25.68,20.56 20.03,14.9 21.88,13.04 
		21.18,12.34 16.29,17.22 17,17.93 18.88,16.05 	"/>
	<path fill-rule="evenodd" clip-rule="evenodd" fill="#FFFFFF" d="M32.391,13.85l1.219-1.21L25.13,8.38l-1.35,1.35l4.25,8.49
		l1.18-1.19l-0.91-1.92l2.17-2.16L32.391,13.85z M27.85,14.15l-0.67-1.14c-0.3-0.5-0.6-0.99-0.93-1.5c-0.32-0.5-0.64-1.02-0.96-1.54
		l0.03-0.03c0.51,0.33,1.02,0.64,1.54,0.96l1.51,0.92l1.14,0.67L27.85,14.15z"/>
</g>
<g opacity="0.7">
	<path fill-rule="evenodd" clip-rule="evenodd" fill="#FFFFFF" d="M29.88,92C13.38,92,0,105.43,0,122s13.38,30,29.88,30
		c16.51,0,29.89-13.43,29.89-30S46.39,92,29.88,92z M45.4,132.62c0,0.5-0.41,0.92-0.92,0.92h-3.91c-0.5,0-0.92-0.42-0.92-0.92
		v-12.07c0-0.1-0.12-0.159-0.19-0.079l-8.28,8.299c-0.71,0.721-1.88,0.721-2.6,0l-8.27-8.299c-0.07-0.08-0.2-0.021-0.2,0.079v12.07
		c0,0.5-0.41,0.92-0.91,0.92h-3.91c-0.51,0-0.92-0.42-0.92-0.92v-21.24c0-0.5,0.41-0.92,0.92-0.92h2.68c0.49,0,0.96,0.2,1.31,0.54
		l10.28,10.33c0.18,0.18,0.47,0.18,0.65,0L40.49,111c0.35-0.34,0.82-0.54,1.31-0.54h2.68c0.51,0,0.92,0.42,0.92,0.92V132.62z"/>
	<path fill="#FFFFFF" d="M128.16,114.609v-3.229c0-0.5-0.41-0.92-0.92-0.92h-17.7c-0.511,0-0.92,0.42-0.92,0.92v21.24
		c0,0.5,0.409,0.92,0.92,0.92h17.7c0.51,0,0.92-0.42,0.92-0.92v-3.229c0-0.521-0.41-0.931-0.92-0.931H114.6
		c-0.129,0-0.229-0.101-0.229-0.229v-3.69c0-0.13,0.101-0.229,0.229-0.229h12.641c0.51,0,0.92-0.42,0.92-0.931v-2.76
		c0-0.511-0.41-0.931-0.92-0.931H114.6c-0.129,0-0.229-0.1-0.229-0.229v-3.69c0-0.129,0.101-0.229,0.229-0.229h12.641
		C127.75,115.54,128.16,115.13,128.16,114.609z"/>
	<path fill-rule="evenodd" clip-rule="evenodd" fill="#FFFFFF" d="M166,123.98l2.641-5.48c0.08-0.17,0.33-0.17,0.409,0l2.65,5.48
		c0.069,0.149-0.04,0.33-0.21,0.33h-5.29C166.029,124.311,165.92,124.13,166,123.98z M177.18,133.54h4.131c0.51,0,0.84-0.54,0.619-1
		l-10.17-21.04c-0.3-0.63-0.949-1.04-1.65-1.04h-2.52c-0.71,0-1.35,0.41-1.66,1.04l-10.17,21.04c-0.22,0.46,0.12,1,0.631,1h4.119
		c0.53,0,1.01-0.3,1.24-0.78l1.95-4.039c0.079-0.16,0.239-0.261,0.42-0.261h9.46c0.17,0,0.33,0.101,0.41,0.261l1.949,4.039
		C176.17,133.24,176.65,133.54,177.18,133.54z"/>
	<path fill="#FFFFFF" d="M100.26,111L89.98,121.33c-0.181,0.18-0.471,0.18-0.65,0L79.04,111c-0.34-0.34-0.81-0.54-1.3-0.54h-2.68
		c-0.51,0-0.92,0.42-0.92,0.92v21.229c0,0.511,0.41,0.931,0.92,0.931h3.9c0.51,0,0.92-0.42,0.92-0.931v-12.06
		c0-0.1,0.13-0.159,0.2-0.079l8.27,8.299c0.721,0.721,1.881,0.721,2.601,0l8.28-8.299c0.069-0.08,0.189-0.021,0.189,0.079v12.06
		c0,0.511,0.42,0.931,0.92,0.931h3.91c0.51,0,0.92-0.42,0.92-0.931V111.38c0-0.5-0.41-0.92-0.92-0.92h-2.689
		C101.08,110.46,100.609,110.66,100.26,111z"/>
	<path fill="#FFFFFF" d="M153.67,119.92h-9.07c-0.51,0-0.92,0.42-0.92,0.93v2.301c0,0.51,0.41,0.93,0.92,0.93h5.211
		c0.16,0,0.27,0.16,0.219,0.311c-0.989,2.649-3.579,4.51-6.579,4.409c-3.511-0.11-6.39-2.95-6.55-6.479
		c-0.18-3.9,2.92-7.131,6.779-7.131c1.57,0,3.03,0.541,4.18,1.451c0.371,0.289,0.891,0.27,1.221-0.07l2.449-2.461
		c0.381-0.379,0.361-1.01-0.059-1.359c-2.121-1.811-4.891-2.891-7.9-2.87c-6.641,0.06-12.021,5.57-11.961,12.24
		c0.061,6.63,5.44,12,12.07,12c6.66,0,12.061-5.431,12.061-12.12v-0.02C155.74,120.84,154.811,119.92,153.67,119.92z"/>
</g>
<g>
	<path fill-rule="evenodd" clip-rule="evenodd" fill="#FFFFFF" d="M197.23,14.06l2.119-2.13l0.971,0.98
		c0.49,0.48,0.76,0.94,0.85,1.36c0.08,0.4-0.04,0.79-0.37,1.12c-0.39,0.39-0.81,0.54-1.239,0.47c-0.431-0.08-0.891-0.36-1.36-0.83
		L197.23,14.06z M200.061,11.23l2.119-2.12l0.85,0.85c0.421,0.42,0.65,0.8,0.701,1.17c0.049,0.35-0.09,0.72-0.451,1.07
		c-0.359,0.36-0.739,0.54-1.139,0.54c-0.391,0-0.811-0.24-1.271-0.69L200.061,11.23z M195.37,13.61l2.239,2.25
		c0.361,0.35,0.711,0.64,1.101,0.87c0.37,0.24,0.761,0.39,1.14,0.45c0.371,0.07,0.73,0.05,1.101-0.06c0.35-0.11,0.7-0.32,1.021-0.64
		c0.42-0.42,0.629-0.9,0.629-1.39c-0.01-0.49-0.209-1.02-0.59-1.58l0.051-0.04c0.459,0.29,0.92,0.4,1.369,0.31
		c0.43-0.08,0.811-0.27,1.12-0.57c0.29-0.29,0.479-0.61,0.57-0.92c0.069-0.32,0.06-0.64-0.021-0.96c-0.07-0.32-0.229-0.65-0.459-1
		c-0.23-0.34-0.5-0.67-0.83-1l-2.07-2.08L195.37,13.61z"/>
	<polygon fill-rule="evenodd" clip-rule="evenodd" fill="#FFFFFF" points="201.029,19.27 205.029,23.27 205.73,22.56 202.88,19.71 
		205.01,17.59 207.34,19.92 208.04,19.22 205.71,16.88 207.83,14.76 210.59,17.51 211.29,16.81 207.391,12.91 	"/>
	<polygon fill-rule="evenodd" clip-rule="evenodd" fill="#FFFFFF" points="207.29,25.54 208.439,26.68 214.1,21.03 215.95,22.88 
		216.66,22.18 211.779,17.29 211.07,18 212.95,19.88 	"/>
	<path fill-rule="evenodd" clip-rule="evenodd" fill="#FFFFFF" d="M215.15,33.39l1.209,1.22l4.261-8.48l-1.351-1.35l-8.49,4.25
		l1.191,1.18l1.92-0.91l2.159,2.17L215.15,33.39z M214.85,28.85l1.141-0.67c0.5-0.3,0.99-0.6,1.5-0.93
		c0.5-0.32,1.02-0.64,1.539-0.96l0.031,0.03c-0.33,0.51-0.641,1.02-0.961,1.54l-0.92,1.51l-0.67,1.14L214.85,28.85z"/>
</g>
<g>
	<g>
		<path fill="#FFFFFF" d="M116.82,614.16H85.689c-7.41,0-13.469,6.04-13.469,13.42v26.84c0,1.26,0.239,2.471,0.569,3.62
			L116.82,614.16z"/>
		<path fill="#FFFFFF" d="M90.48,667.84H121.6c7.41,0,13.471-6.04,13.471-13.42v-26.84c0-1.26-0.24-2.46-0.561-3.62L90.48,667.84z"
			/>
		<polygon fill="#FFFFFF" points="139.561,636.529 139.561,645.471 162,663.37 162,618.63 		"/>
	</g>
</g>
<path fill="#FF0F4F" d="M144.76,607.41c2.04-2.02,2.04-5.36,0-7.391c-2.039-2.029-5.38-2.029-7.41,0l-74.82,74.58
	c-2.039,2.03-2.039,5.371,0,7.391c1.041,0.99,2.341,1.51,3.711,1.51c1.35,0,2.65-0.52,3.699-1.51L144.76,607.41z"/>
</svg>
