<?xml version="1.0" encoding="utf-8"?>
<!-- Generator: Adobe Illustrator 19.0.0, SVG Export Plug-In . SVG Version: 6.00 Build 0)  -->
<svg version="1.1" id="Layer_1" xmlns:sketch="http://www.bohemiancoding.com/sketch/ns"
	 xmlns="http://www.w3.org/2000/svg" xmlns:xlink="http://www.w3.org/1999/xlink" x="0px" y="0px" width="160px" height="6175px"
	 viewBox="-225 -2691 160 6175" style="enable-background:new -225 -2691 160 6175;" xml:space="preserve">
<style type="text/css">
	.st0{fill:#FFFFFF;}
	.st1{fill:#090909;}
	.st2{opacity:5.000000e-02;}
	.st3{opacity:0.3;fill:#090909;enable-background:new    ;}
	.st4{opacity:0.3;}
	.st5{fill:#59AD46;}
	.st6{opacity:0.5;fill:#C8C5C5;enable-background:new    ;}
	.st7{fill:#C8C5C5;}
	.st8{fill:#9CCF81;}
	.st9{opacity:0.3;fill:#050505;enable-background:new    ;}
	.st10{fill:#DD4F37;}
	.st11{fill:#7CB244;}
	.st12{fill:#494949;}
	.st13{fill:#FAB718;}
	.st14{fill:#C6C4C4;}
	.st15{fill:url(#Rectangle-path_1_);}
	.st16{fill:url(#Rectangle-path_2_);}
	.st17{fill:#EDC11E;}
	.st18{opacity:0.3;fill:#686969;enable-background:new    ;}
	.st19{opacity:0.5;fill:#FFFFFF;enable-background:new    ;}
	.st20{fill:#030303;}
	.st21{fill:#474747;}
	.st22{fill:#040505;}
	.st23{fill:#010101;}
	.st24{opacity:0.3;fill:#010101;enable-background:new    ;}
	.st25{fill:#333333;}
	.st26{fill:#ABABAB;}
	.st27{fill:#989898;}
	.st28{fill:#F1F0F0;}
	.st29{opacity:0.1;}
	.st30{fill:#0D0D0D;}
	.st31{opacity:0.1;fill:#0D0D0D;enable-background:new    ;}
	.st32{fill:#787878;}
	.st33{fill:#EE2A57;}
	.st34{opacity:0.8;fill:#0D0D0D;enable-background:new    ;}
	.st35{fill:#FED307;}
	.st36{opacity:0.2;fill:#FFFFFF;enable-background:new    ;}
	.st37{opacity:0.5;fill:#010101;enable-background:new    ;}
	.st38{fill:#59BA47;}
	.st39{fill:#222222;}
	.st40{opacity:0.3;enable-background:new    ;}
	.st41{fill:#777777;}
	.st42{fill:#666666;}
	.st43{fill:#FFA500;}
	.st44{opacity:0.5;enable-background:new    ;}
	.st45{fill:#0B0B0A;}
	.st46{fill:#F1D364;}
	.st47{fill:#ECC01E;}
	.st48{fill:none;stroke:#000000;}
	.st49{fill:none;stroke:#FFFFFF;}
	.st50{opacity:0.55;}
	.st51{fill:none;stroke:#000000;stroke-miterlimit:10;}
	.st52{opacity:0.55;fill:none;stroke:#000000;stroke-miterlimit:10;enable-background:new    ;}
	.st53{fill:none;stroke:#F5A623;stroke-miterlimit:10;}
</style>
<title>Slice 1</title>
<desc>Created with Sketch.</desc>
<path id="Shape_3_" sketch:type="MSShapeGroup" class="st0" d="M-121.2-2358.3c-0.3-0.3-3-1.6-3.6-1.8c0-0.1-0.1-0.5-0.2-0.6
	s-0.6-0.3-0.6-0.3s-0.1-0.1-0.1-0.2c0-0.1,0.1-0.2,0.1-0.2c0.1-0.1,0.3-0.4,0.4-0.6s0.1-0.8,0.1-0.8c0-0.1,0.2-0.2,0.3-0.2
	c0.2-0.1,0.4-1.3,0.4-1.3c0-0.4-0.2-0.2-0.2-0.5v-1.1c0-1.3-1-2.1-2.3-2.1h-0.1c-1.3,0-2.4,0.8-2.4,2.1v1.1c0,0.3-0.2,0.1-0.2,0.5
	c0,0,0.2,1.2,0.4,1.3c0.1,0.1,0.3,0.1,0.3,0.2c0,0,0.1,0.6,0.1,0.8c0.1,0.2,0.3,0.5,0.4,0.6c0,0,0.1,0.1,0.1,0.2
	c0,0.1-0.1,0.2-0.1,0.2s-0.5,0.2-0.6,0.3s-0.2,0.5-0.2,0.6c-0.5,0.2-3.3,1.4-3.6,1.8c-0.2,0.2-0.2,1.6-0.2,1.6v0.2
	c0,0.3,0.3,0.6,0.6,0.6h10.9c0.3,0,0.6-0.3,0.6-0.6v-0.2C-121-2356.7-121-2358.1-121.2-2358.3L-121.2-2358.3L-121.2-2358.3z"/>
<g id="Group_4_" transform="translate(90.000000, 136.000000)" sketch:type="MSShapeGroup">
	<path id="Shape_11_" class="st1" d="M-213-2680v1c0,1.1-0.9,2-2,2h-6c-1.1,0-2-0.9-2-2v-6c0-1.1,0.9-2,2-2h1v-2h-1
		c-2.2,0-4,1.8-4,4v6c0,2.2,1.8,4,4,4h6c2.2,0,4-1.8,4-4v-1H-213L-213-2680z"/>
	<path id="Shape_12_" class="st1" d="M-209-2691h-1l-5.5,4.5l-2.5-2.5v7h7l-2.5-2.5l4.5-5.5V-2691L-209-2691z"/>
</g>
<g id="Group_5_" transform="translate(30.000000, 0.000000)" sketch:type="MSShapeGroup" class="st2">
	<path id="Shape_13_" class="st1" d="M-162.8-2651.7c0-0.6-0.3-2.5-1-2.8s-3-1.4-3-1.4c0-0.2-0.3-0.6-0.3-1.1c0-0.6,0.3-1.1,0.3-1.1
		c0.3-0.6,1.4-2,1.7-3.1s0.6-3.9,0.6-3.9c0-0.6,0.9-0.9,1.5-1.2c1-0.5,2.1-6.5,2.1-6.5c0-1.9-0.5-1.1-0.5-2.5v-5.2
		c0-6.4-5.9-10.5-12.5-10.5h-0.3c-6.6,0-12.5,4.1-12.5,10.5v5.2c0,1.4-0.5,0.6-0.5,2.5c0,0,1,6,2,6.5c0.6,0.3,1.6,0.6,1.6,1.2
		c0,0,0.4,2.8,0.7,3.9c0.3,1.1,1.4,2.5,1.8,3.1c0,0,0.3,0.5,0.3,1.1c0,0.5-0.3,1-0.3,1.1c0,0-2.3,1.1-3,1.4c-0.7,0.3-1,2.2-1,2.8
		c-2.6,0.8-16.4,7.1-18,8.7c-1.1,1.1-1.1,7.9-1.1,7.9v0.9c0,1.5,1.6,3.3,3.2,3.3h54.2c1.6,0,3.2-1.7,3.2-3.3v-0.9c0,0,0-6.7-1.1-7.9
		C-146.4-2644.6-160.2-2650.9-162.8-2651.7L-162.8-2651.7L-162.8-2651.7z M-124.3-2645.1c-1.2-1.2-11.6-5.9-13.5-6.5
		c0-0.4-0.2-1.8-0.8-2.1c-0.5-0.2-2.2-1-2.2-1c0-0.1-0.2-0.5-0.2-0.9s0.2-0.8,0.2-0.8c0.2-0.5,1.1-1.5,1.3-2.3s0.5-2.9,0.5-2.9
		c0-0.4,0.7-0.6,1.1-0.9c0.7-0.3,1.9-4.8,1.9-4.8c0-1.5-0.1-0.8-0.1-1.9v-3.9c0-4.8-5.1-7.9-10-7.9h-0.2c-4.9,0-10,3.1-10,7.9v3.9
		c0,1.1-0.1,0.4-0.1,1.9c0,0,0.9,4.5,1.6,4.8c0.4,0.2,1.2,0.4,1.2,0.9c0,0,0.3,2.1,0.6,2.9s1.1,1.9,1.3,2.3c0,0,0.2,0.4,0.2,0.8
		c0,0.4-0.2,0.7-0.2,0.9c0,0-1.7,0.8-2.2,1c-0.6,0.2-0.8,1.7-0.8,2.1c-0.2,0.1-0.5,0.2-0.9,0.3c5,2.2,11.1,5.2,12.4,6.6
		c0.4,0.4,1.6,1.6,1.8,8.1h15c1.2,0,2.8-0.8,2.8-2v-0.6C-123.5-2639.2-123.5-2644.2-124.3-2645.1L-124.3-2645.1L-124.3-2645.1z
		 M-193.4-2651.6c0-0.4-0.2-1.8-0.8-2.1c-0.5-0.2-2.2-1-2.2-1c0-0.1-0.2-0.5-0.2-0.9s0.2-0.8,0.2-0.8c0.2-0.5,1.1-1.5,1.3-2.3
		s0.5-2.9,0.5-2.9c0-0.4,0.7-0.6,1.1-0.9c0.8-0.3,1.9-4.8,1.9-4.8c0-1.5-0.1-0.8-0.1-1.9v-3.9c0-4.8-5.1-7.9-10-7.9h-0.2
		c-4.9,0-10,3.1-10,7.9v3.9c0,1.1-0.1,0.4-0.1,1.9c0,0,0.9,4.5,1.6,4.8c0.4,0.2,1.2,0.4,1.2,0.9c0,0,0.3,2.1,0.5,2.9
		c0.2,0.8,1.1,1.9,1.3,2.3c0,0,0.2,0.4,0.2,0.8c0,0.4-0.2,0.7-0.2,0.9c0,0-1.7,0.8-2.2,1c-0.6,0.2-0.8,1.7-0.8,2.1
		c-1.9,0.6-12.3,5.4-13.5,6.5c-0.8,0.9-0.8,5.9-0.8,5.9v0.6c0,1.2,1.6,1.9,2.8,1.9h15c0.1-6.6,1.3-7.7,1.7-8.1
		c1.4-1.4,7.5-4.3,12.5-6.6C-192.9-2651.4-193.2-2651.5-193.4-2651.6L-193.4-2651.6L-193.4-2651.6z"/>
</g>
<path id="Shape_14_" sketch:type="MSShapeGroup" class="st3" d="M-121.2-2588.3c-0.3-0.3-3-1.6-3.6-1.8c0-0.1-0.1-0.5-0.2-0.6
	s-0.6-0.3-0.6-0.3s-0.1-0.1-0.1-0.2c0-0.1,0.1-0.2,0.1-0.2c0.1-0.1,0.3-0.4,0.4-0.6c0.1-0.2,0.1-0.8,0.1-0.8c0-0.1,0.2-0.2,0.3-0.2
	c0.2-0.1,0.4-1.3,0.4-1.3c0-0.4-0.2-0.2-0.2-0.5v-1c0-1.3-1-2.1-2.3-2.1h-0.1c-1.3,0-2.4,0.8-2.4,2.1v1c0,0.3-0.2,0.1-0.2,0.5
	c0,0,0.2,1.2,0.4,1.3c0.1,0.1,0.3,0.1,0.3,0.2c0,0,0.1,0.6,0.1,0.8c0.1,0.2,0.3,0.5,0.4,0.6c0,0,0.1,0.1,0.1,0.2
	c0,0.1-0.1,0.2-0.1,0.2s-0.5,0.2-0.6,0.3s-0.2,0.5-0.2,0.6c-0.5,0.2-3.3,1.4-3.6,1.8c-0.2,0.2-0.2,1.6-0.2,1.6v0.2
	c0,0.3,0.3,0.6,0.6,0.6h10.9c0.3,0,0.6-0.3,0.6-0.6v-0.2C-121-2586.7-121-2588.1-121.2-2588.3L-121.2-2588.3L-121.2-2588.3z"/>
<path id="Shape_15_" sketch:type="MSShapeGroup" class="st1" d="M-126.4-2219.2c-0.4,0.4-1,0.4-1.4,0c-0.4-0.4-0.4-1,0-1.4l1.4-1.4
	l-1.4-1.4c-0.4-0.4-0.4-1,0-1.4c0.4-0.4,1-0.4,1.4,0l1.4,1.4l1.4-1.4c0.4-0.4,1-0.4,1.4,0s0.4,1,0,1.4l-1.4,1.4l1.4,1.4
	c0.4,0.4,0.4,1,0,1.4s-1,0.4-1.4,0l-1.4-1.4L-126.4-2219.2L-126.4-2219.2z"/>
<g id="Group_6_" transform="translate(74.000000, 537.000000)" sketch:type="MSShapeGroup" class="st4">
	<path id="Shape_16_" class="st1" d="M-218-2685l5.8-5.8c-0.2-0.1-0.5-0.2-0.8-0.2h-10c-0.3,0-0.6,0.1-0.8,0.2L-218-2685L-218-2685z
		"/>
	<path id="Shape_17_" class="st1" d="M-218-2683l-6.8-6.8c-0.1,0.2-0.2,0.5-0.2,0.8v6c0,1.1,0.9,2,2,2h10c1.1,0,2-0.9,2-2v-6
		c0-0.3-0.1-0.6-0.2-0.8L-218-2683L-218-2683z"/>
</g>
<g id="Group_7_" transform="translate(66.000000, 576.000000)" sketch:type="MSShapeGroup" class="st4">
	<path id="Shape_18_" class="st1" d="M-211-2676l-13.3-13.3c-0.4,0.6-0.7,1.4-0.7,2.3v12c0,2.2,1.8,4,4,4h20c2.2,0,4-1.8,4-4v-12
		c0-0.9-0.3-1.6-0.7-2.3L-211-2676L-211-2676z"/>
	<path id="Shape_19_" class="st1" d="M-211-2678l12.3-12.3c-0.6-0.5-1.4-0.7-2.3-0.7h-20c-0.9,0-1.6,0.3-2.3,0.7L-211-2678
		L-211-2678z"/>
</g>
<g id="Group_8_" transform="translate(72.000000, 677.000000)" sketch:type="MSShapeGroup">
	<path id="Shape_20_" class="st0" d="M-212.3-2677.2c-0.7-0.5-2-1.6-2-2.3c0-0.8,0.2-1.2,1.5-2.1c1.3-1,2.2-2.3,2.2-3.9
		c0-1.9-0.9-3.7-2.5-4.3h2.4l1.7-1.2h-7.7c-3.4,0-6.7,2.5-6.7,5.4c0,3,2.3,5.4,5.8,5.4c0.2,0,0.5,0,0.7,0c-0.2,0.4-0.4,0.9-0.4,1.4
		c0,0.8,0.5,1.5,1,2h-1.3c-4.3,0-7.5,2.6-7.5,5.4c0,2.7,3.6,4.4,7.9,4.4c4.9,0,7.5-2.7,7.5-5.4
		C-209.6-2674.5-210.3-2675.8-212.3-2677.2L-212.3-2677.2L-212.3-2677.2z M-216.4-2680.9c-2-0.1-3.9-2.1-4.2-4.7
		c-0.3-2.5,1-4.4,3-4.4c2,0.1,3.9,2.1,4.2,4.6C-213.1-2682.8-214.4-2680.9-216.4-2680.9L-216.4-2680.9L-216.4-2680.9z
		 M-217.2-2668.2c-2.9,0-5.1-1.8-5.1-4c0-2.1,2.6-3.9,5.6-3.9c0.7,0,1.3,0.1,1.9,0.3c1.6,1.1,2.8,1.7,3.1,2.9
		c0.1,0.2,0.1,0.5,0.1,0.8C-211.6-2669.9-213-2668.2-217.2-2668.2L-217.2-2668.2L-217.2-2668.2z"/>
	<path id="Shape_21_" class="st0" d="M-212.3-2677.2c-0.7-0.5-2-1.6-2-2.3c0-0.8,0.2-1.2,1.5-2.1c1.3-1,2.2-2.3,2.2-3.9
		c0-1.9-0.9-3.7-2.5-4.3h2.4l1.7-1.2h-7.7c-3.4,0-6.7,2.5-6.7,5.4c0,3,2.3,5.4,5.8,5.4c0.2,0,0.5,0,0.7,0c-0.2,0.4-0.4,0.9-0.4,1.4
		c0,0.8,0.5,1.5,1,2h-1.3c-4.3,0-7.5,2.6-7.5,5.4c0,2.7,3.6,4.4,7.9,4.4c4.9,0,7.5-2.7,7.5-5.4
		C-209.6-2674.5-210.3-2675.8-212.3-2677.2L-212.3-2677.2L-212.3-2677.2z M-216.4-2680.9c-2-0.1-3.9-2.1-4.2-4.7
		c-0.3-2.5,1-4.4,3-4.4c2,0.1,3.9,2.1,4.2,4.6C-213.1-2682.8-214.4-2680.9-216.4-2680.9L-216.4-2680.9L-216.4-2680.9z
		 M-217.2-2668.2c-2.9,0-5.1-1.8-5.1-4c0-2.1,2.6-3.9,5.6-3.9c0.7,0,1.3,0.1,1.9,0.3c1.6,1.1,2.8,1.7,3.1,2.9
		c0.1,0.2,0.1,0.5,0.1,0.8C-211.6-2669.9-213-2668.2-217.2-2668.2L-217.2-2668.2L-217.2-2668.2z"/>
</g>
<g id="Group_9_" transform="translate(76.000000, 630.000000)" sketch:type="MSShapeGroup">
	<path id="Shape_22_" class="st0" d="M-218.6-2683.1c-0.3-0.2-1-0.8-1-1.2s0.1-0.6,0.7-1.1c0.6-0.5,1.1-1.2,1.1-1.9
		c0-0.9-0.4-1.9-1.2-2.2h1.2l0.9-0.6h-3.8c-1.7,0-3.3,1.3-3.3,2.7c0,1.5,1.2,2.7,2.9,2.7h0.4c-0.1,0.2-0.2,0.4-0.2,0.7
		c0,0.4,0.2,0.8,0.5,1h-0.7c-2.1,0-3.8,1.3-3.8,2.7c0,1.3,1.8,2.2,3.9,2.2c2.4,0,3.8-1.3,3.8-2.7
		C-217.3-2681.8-217.6-2682.4-218.6-2683.1L-218.6-2683.1L-218.6-2683.1z M-220.7-2685c-1,0-1.9-1.1-2.1-2.3
		c-0.2-1.3,0.5-2.2,1.5-2.2s1.9,1,2.1,2.3C-219.1-2685.9-219.7-2684.9-220.7-2685L-220.7-2685L-220.7-2685z M-221.1-2678.6
		c-1.5,0-2.5-0.9-2.5-2s1.3-1.9,2.8-1.9c0.4,0,0.7,0,1,0.1c0.8,0.5,1.4,0.9,1.5,1.5c0,0.1,0.1,0.2,0.1,0.4
		C-218.3-2679.4-219-2678.6-221.1-2678.6L-221.1-2678.6L-221.1-2678.6z"/>
	<path id="Shape_23_" class="st0" d="M-218.6-2683.1c-0.3-0.2-1-0.8-1-1.2s0.1-0.6,0.7-1.1c0.6-0.5,1.1-1.2,1.1-1.9
		c0-0.9-0.4-1.9-1.2-2.2h1.2l0.9-0.6h-3.8c-1.7,0-3.3,1.3-3.3,2.7c0,1.5,1.2,2.7,2.9,2.7h0.4c-0.1,0.2-0.2,0.4-0.2,0.7
		c0,0.4,0.2,0.8,0.5,1h-0.7c-2.1,0-3.8,1.3-3.8,2.7c0,1.3,1.8,2.2,3.9,2.2c2.4,0,3.8-1.3,3.8-2.7
		C-217.3-2681.8-217.6-2682.4-218.6-2683.1L-218.6-2683.1L-218.6-2683.1z M-220.7-2685c-1,0-1.9-1.1-2.1-2.3
		c-0.2-1.3,0.5-2.2,1.5-2.2s1.9,1,2.1,2.3C-219.1-2685.9-219.7-2684.9-220.7-2685L-220.7-2685L-220.7-2685z M-221.1-2678.6
		c-1.5,0-2.5-0.9-2.5-2s1.3-1.9,2.8-1.9c0.4,0,0.7,0,1,0.1c0.8,0.5,1.4,0.9,1.5,1.5c0,0.1,0.1,0.2,0.1,0.4
		C-218.3-2679.4-219-2678.6-221.1-2678.6L-221.1-2678.6L-221.1-2678.6z"/>
</g>
<path id="Shape_24_" sketch:type="MSShapeGroup" class="st5" d="M-91-1917.5l3-3l3,3l7-7l3,3l-10,10L-91-1917.5L-91-1917.5z"/>
<path id="Shape_25_" sketch:type="MSShapeGroup" class="st1" d="M-123.1-1855l2.3-2.3c0.4-0.4,0.4-1,0-1.4s-1-0.4-1.4,0l-2.3,2.3
	l-2.3-2.3c-0.4-0.4-1-0.4-1.4,0s-0.4,1,0,1.4l2.3,2.3l-2.3,2.3c-0.4,0.4-0.4,1,0,1.4c0.2,0.2,0.4,0.3,0.7,0.3s0.5-0.1,0.7-0.3
	l2.3-2.3l2.3,2.3c0.2,0.2,0.4,0.3,0.7,0.3s0.5-0.1,0.7-0.3c0.4-0.4,0.4-1,0-1.4L-123.1-1855L-123.1-1855z"/>
<g id="Group_14_" transform="translate(1.000000, 1624.000000)" sketch:type="MSShapeGroup">
	<path id="Shape_38_" class="st6" d="M-156.5-2643.3c4-2.2,6.9-5.5,7-9.9c0.2-9.5-9.2-16.4-18.6-18.3l-0.4-0.1
		c0.6,6-0.9,11.7-4.4,16.2c-3.6,4.6-9,7.6-15.4,9c3.1,3.7,8.1,6,14,6.4c2.8,0.2,5.8,0,8.7-0.4c3.1,2.4,7.7,2.6,11.5,2.3
		c1.2-0.1,1-0.6,0.1-0.8c-1.8-0.4-3.2-1.7-3.2-3.5C-157.1-2642.8-156.8-2643.1-156.5-2643.3L-156.5-2643.3L-156.5-2643.3z"/>
	<path id="Shape_39_" class="st7" d="M-171.2-2674.4c-3-13.2-16.4-17.6-29.6-14.8c-12,2.6-24,11.6-23.7,24
		c0.2,5.7,3.8,10.1,8.9,12.9c0.3,0.2,0.8,0.6,0.8,1.2c0.1,2.4-1.7,4-4,4.6c-1.2,0.3-1.5,0.9,0.1,1.1c4.9,0.3,10.7,0.1,14.7-3
		c3.7,0.5,7.4,0.8,11.1,0.5C-177.9-2649.1-167.9-2659.9-171.2-2674.4L-171.2-2674.4L-171.2-2674.4z"/>
</g>
<g id="Group_15_" transform="translate(1.000000, 1723.000000)" sketch:type="MSShapeGroup">
	<path id="Shape_40_" class="st8" d="M-176.9-2658.1l15-9.2l6.7,13.2c1.6,7.2-7.3,9.9-14.4,9.4L-176.9-2658.1L-176.9-2658.1z"/>
	<path id="Shape_41_" class="st8" d="M-180.3-2648.6l-7.9,14.2l7.9,14.4l0.2-5.8h7.2c2.6,0.2,6-1.5,7.3-4.1l9.2-17.3
		c-3.1,3.1-7,3.9-11.5,3.9H-180L-180.3-2648.6L-180.3-2648.6z"/>
	<path id="Shape_42_" class="st8" d="M-197.9-2666.2l-15.1-8.9l8.1-12.4c5.4-5,12,1.7,15.1,8.3L-197.9-2666.2L-197.9-2666.2z"/>
	<path id="Shape_43_" class="st8" d="M-188.2-2667.7l16,0.1l8.5-14l-5,2.6l-3.5-6.4c-1.1-2.5-4.2-4.7-7-4.6l-19.3,0.1
		c4.1,1.2,6.7,4.4,8.9,8.4l5.9,10.9L-188.2-2667.7L-188.2-2667.7z"/>
	<path id="Shape_44_" class="st8" d="M-224.6-2666.9l4.7,3.6l-4.4,8.4c-2.2,3.9,1.6,7.7,4,9s6.1,1.5,9.5,1.4l6.2-10.1l4.7,2.5
		l-8.1-15.1L-224.6-2666.9L-224.6-2666.9z"/>
	<path id="Shape_45_" class="st8" d="M-223.9-2647.4l10.1,18.6c2,2.6,5.8,3.2,9.8,3.1h10.6v-17.6l-20.1-0.1
		C-216.7-2643.2-220.8-2643.9-223.9-2647.4L-223.9-2647.4L-223.9-2647.4z"/>
</g>
<path id="Shape_46_" sketch:type="MSShapeGroup" class="st9" d="M-216-838.4l3.1,5.4h-6.2L-216-838.4L-216-838.4z M-216-843.5
	l-7.5,13h15L-216-843.5L-216-843.5z"/>
<g id="Group_17_" transform="translate(11.000000, 2077.000000)" sketch:type="MSShapeGroup">
	<circle id="Oval" class="st10" cx="-217" cy="-2683" r="8"/>
	<g id="Shape_49_" transform="translate(4.000000, 2.000000)">
		<path id="Shape_26_" class="st0" d="M-218.6-2684.1c-0.3-0.2-1-0.8-1-1.2s0.1-0.6,0.7-1.1c0.6-0.5,1.1-1.2,1.1-1.9
			c0-0.9-0.4-1.9-1.2-2.1h1.2l0.9-0.6h-3.8c-1.7,0-3.3,1.3-3.3,2.7c0,1.5,1.2,2.7,2.9,2.7h0.4c-0.1,0.2-0.2,0.4-0.2,0.7
			c0,0.4,0.2,0.8,0.5,1h-0.7c-2.1,0-3.8,1.3-3.8,2.7s1.8,2.2,3.9,2.2c2.4,0,3.8-1.3,3.8-2.7
			C-217.3-2682.8-217.6-2683.4-218.6-2684.1L-218.6-2684.1L-218.6-2684.1z M-220.7-2685.9c-1,0-1.9-1.1-2.1-2.3
			c-0.2-1.3,0.5-2.2,1.5-2.2s1.9,1,2.1,2.3C-219.1-2686.9-219.7-2685.9-220.7-2685.9L-220.7-2685.9L-220.7-2685.9z M-221.1-2679.6
			c-1.5,0-2.5-0.9-2.5-2s1.3-1.9,2.8-1.9c0.4,0,0.7,0.1,1,0.1c0.8,0.5,1.4,0.9,1.5,1.5c0,0.1,0.1,0.2,0.1,0.4
			C-218.3-2680.4-219-2679.6-221.1-2679.6L-221.1-2679.6L-221.1-2679.6z"/>
		<path id="Shape_27_" class="st0" d="M-218.6-2684.1c-0.3-0.2-1-0.8-1-1.2s0.1-0.6,0.7-1.1c0.6-0.5,1.1-1.2,1.1-1.9
			c0-0.9-0.4-1.9-1.2-2.1h1.2l0.9-0.6h-3.8c-1.7,0-3.3,1.3-3.3,2.7c0,1.5,1.2,2.7,2.9,2.7h0.4c-0.1,0.2-0.2,0.4-0.2,0.7
			c0,0.4,0.2,0.8,0.5,1h-0.7c-2.1,0-3.8,1.3-3.8,2.7s1.8,2.2,3.9,2.2c2.4,0,3.8-1.3,3.8-2.7
			C-217.3-2682.8-217.6-2683.4-218.6-2684.1L-218.6-2684.1L-218.6-2684.1z M-220.7-2685.9c-1,0-1.9-1.1-2.1-2.3
			c-0.2-1.3,0.5-2.2,1.5-2.2s1.9,1,2.1,2.3C-219.1-2686.9-219.7-2685.9-220.7-2685.9L-220.7-2685.9L-220.7-2685.9z M-221.1-2679.6
			c-1.5,0-2.5-0.9-2.5-2s1.3-1.9,2.8-1.9c0.4,0,0.7,0.1,1,0.1c0.8,0.5,1.4,0.9,1.5,1.5c0,0.1,0.1,0.2,0.1,0.4
			C-218.3-2680.4-219-2679.6-221.1-2679.6L-221.1-2679.6L-221.1-2679.6z"/>
	</g>
</g>
<path id="Shape_50_" sketch:type="MSShapeGroup" class="st11" d="M-88-506l1.7-1.8l2.2,2.2l4.4-4.4l1.7,1.8l-6.1,6.2L-88-506
	L-88-506z"/>
<path id="Shape_51_" sketch:type="MSShapeGroup" class="st12" d="M-86.6-651c2.8,0,5.6-1.1,7.6-3.1l12.9-12.9L-79-679.9
	c-2-2-4.7-3.1-7.6-3.1h-5.2v32H-86.6L-86.6-651z"/>
<path id="Shape_52_" sketch:type="MSShapeGroup" class="st13" d="M-188-432.6l12.3,20.6h-24.7L-188-432.6L-188-432.6z M-188-452
	l-30,50h60L-188-452L-188-452z"/>
<path id="Shape_53_" sketch:type="MSShapeGroup" class="st14" d="M-223-321c0,19.3,15.7,35,35,35s35-15.7,35-35s-15.7-35-35-35
	S-223-340.3-223-321L-223-321L-223-321z M-218-321c0-16.6,13.4-30,30-30s30,13.4,30,30s-13.4,30-30,30S-218-304.4-218-321L-218-321
	L-218-321z"/>
<path id="Shape_54_" sketch:type="MSShapeGroup" class="st14" d="M-180.1-337.8c0,1.2-0.5,2.3-1.4,3.2c-0.9,0.9-2.1,1.3-3.4,1.3
	c-1.3,0-2.5-0.4-3.4-1.3s-1.4-1.9-1.4-3.2c0-1.2,0.5-2.3,1.4-3.2c0.9-0.9,2.1-1.3,3.4-1.3c1.3,0,2.4,0.4,3.4,1.3
	C-180.6-340.1-180.1-339-180.1-337.8L-180.1-337.8L-180.1-337.8z M-180.6-308l-0.5,2.2c-1.6,0.6-2.9,1.1-3.9,1.4s-2.1,0.5-3.3,0.5
	c-2,0-3.5-0.5-4.6-1.4c-1.1-1-1.6-2.2-1.6-3.6c0-0.6,0-1.2,0.1-1.8c0.1-0.6,0.2-1.3,0.4-2l2-7.1c0.2-0.7,0.3-1.3,0.4-1.9
	c0.1-0.6,0.2-1.2,0.2-1.7c0-0.9-0.2-1.5-0.6-1.9c-0.4-0.4-1.1-0.5-2.1-0.5c-0.5,0-1.1,0.1-1.6,0.2c-0.5,0.2-1,0.3-1.4,0.5l0.5-2.2
	c1.3-0.5,2.6-1,3.8-1.4s2.4-0.6,3.4-0.6c1.9,0,3.4,0.5,4.5,1.4c1,0.9,1.6,2.2,1.6,3.6c0,0.3,0,0.9-0.1,1.6c-0.1,0.8-0.2,1.5-0.4,2.1
	l-2,7.1c-0.2,0.6-0.3,1.2-0.4,2c-0.1,0.7-0.2,1.3-0.2,1.7c0,0.9,0.2,1.6,0.6,1.9c0.4,0.4,1.2,0.5,2.2,0.5c0.5,0,1-0.1,1.7-0.3
	C-181.3-307.7-180.9-307.9-180.6-308L-180.6-308L-180.6-308z"/>
<path id="Shape_55_" sketch:type="MSShapeGroup" class="st14" d="M-223-211c0,19.3,15.7,35,35,35s35-15.7,35-35s-15.7-35-35-35
	S-223-230.3-223-211L-223-211L-223-211z M-218-211c0-16.6,13.4-30,30-30s30,13.4,30,30s-13.4,30-30,30S-218-194.4-218-211L-218-211
	L-218-211z"/>
<path id="Shape_56_" sketch:type="MSShapeGroup" class="st14" d="M-185-197.8c0,1.2-0.5,2.3-1.4,3.2s-2,1.3-3.3,1.3
	s-2.4-0.4-3.3-1.3c-0.9-0.9-1.4-1.9-1.4-3.2c0-1.2,0.5-2.3,1.4-3.2s2-1.4,3.3-1.4c1.2,0,2.4,0.4,3.3,1.4
	C-185.4-200.1-185-199-185-197.8L-185-197.8L-185-197.8z M-176.2-219.3c0,3.3-1.1,5.9-3.4,8c-2.2,2-5.2,3.2-9,3.5l-0.1,3.3h-2.2
	v-9.5c2.4-0.2,4.2-0.9,5.5-2.2s2-3.1,2-5.3c0-1.8-0.5-3.2-1.4-4.3s-2.2-1.6-3.8-1.6c-0.7,0-1.3,0.1-1.8,0.2c-0.5,0.1-1,0.4-1.5,0.6
	c0.2,0.5,0.4,1.2,0.6,2c0.2,0.8,0.3,1.6,0.3,2.3c0,1.1-0.4,2-1.1,2.6c-0.7,0.6-1.8,0.9-3.1,0.9c-1.2,0-2.2-0.4-2.9-1.2
	s-1.1-1.8-1.1-2.9c0-1.9,1.1-3.4,3.2-4.8c2.1-1.3,4.7-1.9,7.7-1.9c3.6,0,6.4,0.9,8.7,2.8C-177.3-224.8-176.2-222.4-176.2-219.3
	L-176.2-219.3L-176.2-219.3z"/>
<path id="Shape_57_" sketch:type="MSShapeGroup" class="st14" d="M-223-101c0,19.3,15.7,35,35,35s35-15.7,35-35s-15.7-35-35-35
	S-223-120.3-223-101L-223-101L-223-101z M-218-101c0-16.6,13.4-30,30-30s30,13.4,30,30s-13.4,30-30,30S-218-84.4-218-101L-218-101
	L-218-101z"/>
<path id="Shape_58_" sketch:type="MSShapeGroup" class="st14" d="M-183.6-88.1c0,1.2-0.5,2.3-1.4,3.2c-0.9,0.9-2,1.3-3.3,1.3
	s-2.4-0.4-3.3-1.3c-0.9-0.9-1.4-1.9-1.4-3.2c0-1.2,0.5-2.3,1.4-3.2c0.9-0.9,2-1.4,3.3-1.4c1.2,0,2.3,0.5,3.3,1.4
	C-184-90.4-183.6-89.4-183.6-88.1L-183.6-88.1L-183.6-88.1z M-183.5-115.1c0,0.7-0.1,1.6-0.4,2.6c-0.2,1.1-0.5,2.4-0.9,3.9
	c-0.3,1.4-0.7,3.1-1.2,5.2c-0.4,2.1-0.9,4.7-1.4,7.8h-1.9c-0.5-3.1-1-5.7-1.4-7.8c-0.4-2.1-0.8-3.8-1.2-5.2
	c-0.3-1.3-0.6-2.5-0.9-3.8c-0.3-1.2-0.4-2.1-0.4-2.8c0-1.2,0.5-2.3,1.4-3.2c0.9-0.9,2-1.3,3.3-1.3s2.4,0.4,3.3,1.3
	C-184-117.4-183.5-116.4-183.5-115.1L-183.5-115.1L-183.5-115.1z"/>
<linearGradient id="Rectangle-path_1_" gradientUnits="userSpaceOnUse" x1="-889.5531" y1="5197.5625" x2="-889.5531" y2="5198.5625" gradientTransform="matrix(160 0 0 -16 142183.5 83256)">
	<stop  offset="0" style="stop-color:#FFFFFF;stop-opacity:0"/>
	<stop  offset="1" style="stop-color:#FFFFFF"/>
</linearGradient>
<rect id="Rectangle-path_10_" x="-225" y="79" sketch:type="MSShapeGroup" class="st15" width="160" height="16">
</rect>
<linearGradient id="Rectangle-path_2_" gradientUnits="userSpaceOnUse" x1="-889.5531" y1="5197.5625" x2="-889.5531" y2="5198.5625" gradientTransform="matrix(160 0 0 -16 142183.5 83316)">
	<stop  offset="0" style="stop-color:#FFFFFF"/>
	<stop  offset="1" style="stop-color:#FFFFFF;stop-opacity:0"/>
</linearGradient>
<rect id="Rectangle-path_11_" x="-225" y="139" sketch:type="MSShapeGroup" class="st16" width="160" height="16">
</rect>
<g id="Group_20_" transform="translate(11.000000, 2686.000000)" sketch:type="MSShapeGroup">
	<path id="Shape_59_" class="st17" d="M-175-2685c0-1.2-0.8-2-2-2h-20l-4-4h-21c-1.2,0-2,0.8-2,2v6h49V-2685L-175-2685z M-225-2681
		v31.8c0,1.2,1,2.2,2.2,2.2h47.7c1.2,0,2.2-1,2.2-2.2v-31.8H-225L-225-2681z"/>
	<path id="Shape_60_" class="st0" d="M-198.1-2674.3l-3.3,3.3c1.2-0.1,2.4,0.1,3.6,0.6l1.8-1.8c1.1-1.2,3-1.2,4.2,0
		c1.2,1.1,1.2,3,0,4.2l-4.2,4.2c-1.2,1.1-3,1.1-4.2,0c-0.4-0.4-1-0.4-1.4,0l-0.7,0.7c-0.4,0.4-0.4,1,0,1.4c2.3,2.3,6.1,2.3,8.4,0
		l4.2-4.2c2.3-2.3,2.3-6.1,0-8.4C-192-2676.6-195.8-2676.6-198.1-2674.3L-198.1-2674.3L-198.1-2674.3z"/>
	<path id="Shape_61_" class="st0" d="M-205.1-2667.3l-4.2,4.2c-2.3,2.3-2.3,6.1,0,8.4c2.3,2.3,6.1,2.3,8.4,0l3.3-3.3
		c-1.2,0.1-2.4-0.1-3.6-0.6l-1.8,1.8c-1.2,1.1-3,1.1-4.2,0s-1.1-3,0-4.2l4.2-4.2c1-1,2.5-1.1,3.7-0.4l0,0c0.2,0.1,0.3,0.2,0.5,0.4
		c0.4,0.4,1,0.4,1.4,0l0.7-0.7c0.4-0.4,0.4-1,0-1.4C-199-2669.6-202.8-2669.6-205.1-2667.3L-205.1-2667.3L-205.1-2667.3z"/>
</g>
<path id="Shape_62_" sketch:type="MSShapeGroup" class="st18" d="M-165,244.9l24.7,41.1h-49.4L-165,244.9L-165,244.9z M-165,206
	l-60,100h120L-165,206L-165,206z"/>
<g id="Group_21_" transform="translate(17.000000, 3094.000000)" sketch:type="MSShapeGroup">
	<path id="Shape_63_" class="st19" d="M-185.4-2668.5c-0.6-0.6-5.8-3-6.7-3.3c0-0.2-0.1-0.9-0.4-1.1c-0.3-0.1-1.1-0.5-1.1-0.5
		c0-0.1-0.1-0.2-0.1-0.4s0.1-0.4,0.1-0.4c0.1-0.2,0.5-0.8,0.6-1.2s0.2-1.5,0.2-1.5c0-0.2,0.3-0.3,0.5-0.4c0.4-0.2,0.7-2.4,0.7-2.4
		c0-0.8-0.3-0.4-0.3-1v-2c0-2.4-2.1-3.8-4.5-3.8h-0.1c-2.5,0-4.3,1.3-4.3,3.8v2c0,0.5-0.3,0.2-0.3,1c0,0,0.3,2.3,0.7,2.4
		c0.2,0.1,0.5,0.2,0.5,0.4c0,0,0.1,1.1,0.2,1.5c0.1,0.4,0.5,0.9,0.7,1.2c0,0,0.1,0.2,0.1,0.4s-0.1,0.4-0.1,0.4s-0.9,0.4-1.1,0.5
		c-0.3,0.1-0.4,0.9-0.4,1.1c-0.2,0.1-0.6,0.2-1,0.4c2.5,1.1,5.6,2.6,6.3,3.4c0.2,0.2,0.8,0.9,0.9,3.9h8.3c0.6,0,1.1-0.5,1.1-1.1
		v-0.3C-185-2665.5-185-2668.1-185.4-2668.5L-185.4-2668.5L-185.4-2668.5z"/>
	<path id="Shape_64_" class="st0" d="M-196.2-2667.2c-0.8-0.8-7.5-3.9-8.7-4.3c0-0.3-0.1-1.2-0.5-1.4c-0.3-0.1-1.5-0.7-1.5-0.7
		c0-0.1-0.1-0.3-0.1-0.6s0.1-0.5,0.1-0.5c0.2-0.3,0.7-1,0.8-1.5c0.2-0.6,0.3-1.9,0.3-1.9c0-0.3,0.4-0.4,0.7-0.6
		c0.5-0.2,0.9-3.2,0.9-3.2c0-1-0.4-0.6-0.4-1.2v-2.6c0-3.2-2.7-4.9-5.9-4.9h-0.1c-3.2,0-5.6,1.7-5.6,4.9v2.6c0,0.7-0.4,0.3-0.4,1.2
		c0,0,0.4,2.9,0.9,3.2c0.3,0.1,0.7,0.3,0.7,0.6c0,0,0.2,1.4,0.3,1.9s0.7,1.2,0.8,1.5c0,0,0.1,0.3,0.1,0.5c0,0.3-0.1,0.5-0.1,0.6
		c0,0-1.1,0.5-1.4,0.7c-0.4,0.2-0.5,1.1-0.5,1.4c-1.3,0.4-8,3.5-8.7,4.3c-0.5,0.6-0.5,3.9-0.5,3.9v0.4c0,0.8,0.6,1.4,1.4,1.4h26.6
		c0.8,0,1.4-0.6,1.4-1.4v-0.4C-195.7-2663.3-195.7-2666.6-196.2-2667.2L-196.2-2667.2L-196.2-2667.2z"/>
</g>
<path id="Shape_65_" sketch:type="MSShapeGroup" class="st20" d="M-211.6,497l2.3-2.3c0.4-0.4,0.4-1,0-1.4s-1-0.4-1.4,0l-2.3,2.3
	l-2.3-2.3c-0.4-0.4-1-0.4-1.4,0s-0.4,1,0,1.4l2.3,2.3l-2.3,2.3c-0.4,0.4-0.4,1,0,1.4c0.2,0.2,0.5,0.3,0.7,0.3s0.5-0.1,0.7-0.3
	l2.3-2.3l2.3,2.3c0.2,0.2,0.5,0.3,0.7,0.3s0.5-0.1,0.7-0.3c0.4-0.4,0.4-1,0-1.4L-211.6,497L-211.6,497z"/>
<path id="Shape_66_" sketch:type="MSShapeGroup" class="st21" d="M-217.7-574c-0.6-0.6-1.5-1-2.3-1h16c-0.9,0-1.7,0.4-2.3,1
	l-4.5,4.5c-0.6,0.7-1.7,0.7-2.3,0L-217.7-574L-217.7-574z"/>
<circle id="Oval_1_" sketch:type="MSShapeGroup" class="st0" cx="-219" cy="-545" r="1">
</circle>
<path id="Shape_67_" sketch:type="MSShapeGroup" class="st0" d="M-219.9-547c-0.1-0.3,0-0.5,0-0.7c0.1-0.2,0.2-0.4,0.3-0.6
	c0.1-0.2,0.2-0.3,0.4-0.4l0.4-0.4c0.1-0.1,0.2-0.2,0.3-0.4c0.1-0.1,0.1-0.3,0.1-0.4c0-0.2-0.1-0.4-0.2-0.6c-0.2-0.1-0.4-0.2-0.6-0.2
	c-0.2,0-0.5,0-0.6,0.2c-0.2,0.1-0.4,0.2-0.6,0.4l-1-0.9c0.3-0.3,0.6-0.6,1-0.8s0.8-0.3,1.3-0.3c0.3,0,0.7,0,0.9,0.1
	c0.3,0.1,0.6,0.2,0.8,0.4s0.4,0.4,0.5,0.6c0.1,0.2,0.2,0.5,0.2,0.8s-0.1,0.5-0.1,0.7c-0.1,0.2-0.2,0.4-0.4,0.5
	c-0.1,0.2-0.3,0.3-0.4,0.4c-0.2,0.1-0.3,0.3-0.4,0.4c-0.1,0.1-0.2,0.3-0.3,0.5s-0.1,0.4-0.1,0.6L-219.9-547L-219.9-547L-219.9-547
	L-219.9-547z"/>
<g id="Group_22_" transform="translate(5.000000, 499.000000)" sketch:type="MSShapeGroup">
	<rect id="Rectangle-path_12_" x="-225" y="-2688" class="st0" width="2" height="5"/>
	<rect id="Rectangle-path_13_" x="-225" y="-2691" class="st0" width="2" height="2"/>
</g>
<g id="Group_23_" transform="translate(131.000000, 3182.000000)" sketch:type="MSShapeGroup">
	<path id="Shape_68_" class="st0" d="M-210.2-2681.9c-0.2-0.3-2.5-1.3-3-1.5c0-0.1-0.1-0.4-0.2-0.5c-0.1,0-0.5-0.2-0.5-0.2
		s0-0.1-0.1-0.2c0-0.1,0.1-0.2,0.1-0.2c0.1-0.1,0.2-0.3,0.3-0.5s0.1-0.7,0.1-0.7c0-0.1,0.1-0.1,0.2-0.2c0.2-0.1,0.3-1.1,0.3-1.1
		c0-0.3-0.1-0.2-0.1-0.4v-0.9c0-1.1-0.9-1.8-2-1.8l0,0c-1.1,0-2,0.7-2,1.8v0.9c0,0.2-0.1,0.1-0.1,0.4c0,0,0.1,1,0.3,1.1
		c0.1,0.1,0.2,0.1,0.2,0.2c0,0,0.1,0.5,0.1,0.7s0.2,0.4,0.3,0.5c0,0,0.1,0.1,0.1,0.2c0,0.1-0.1,0.2-0.1,0.2s-0.4,0.2-0.5,0.2
		c-0.1,0.1-0.2,0.4-0.2,0.5c-0.4,0.1-2.7,1.2-3,1.5c-0.2,0.2-0.2,1.3-0.2,1.3v0.1c0,0.3,0.2,0.5,0.5,0.5h9.1c0.3,0,0.5-0.2,0.5-0.5
		v-0.1C-210-2680.6-210-2681.7-210.2-2681.9L-210.2-2681.9L-210.2-2681.9z"/>
	<g id="Shape_69_" transform="translate(0.000000, 2.000000)">
		<path id="Shape_28_" class="st0" d="M-220.5-2684.6c0.3-0.3,1.2-0.7,2-1.1c0-0.1-0.1-0.3-0.1-0.4c-0.1,0-0.4-0.2-0.4-0.2v-0.1
			c0-0.1,0-0.1,0-0.1c0-0.1,0.2-0.3,0.2-0.4c0-0.1,0.1-0.5,0.1-0.5c0-0.1,0.1-0.1,0.2-0.1c0.1-0.1,0.2-0.9,0.2-0.9
			c0-0.3-0.1-0.1-0.1-0.3v-0.7c0-0.9-0.7-1.4-1.6-1.4l0,0c-0.9,0-1.6,0.6-1.6,1.4v0.7c0,0.2-0.1,0.1-0.1,0.3c0,0,0.1,0.8,0.2,0.9
			c0.1,0,0.2,0.1,0.2,0.1s0.1,0.4,0.1,0.5s0.2,0.3,0.2,0.4v0.1c0,0.1,0,0.1,0,0.1s-0.3,0.1-0.4,0.2c-0.1,0.1-0.1,0.3-0.1,0.4
			c-0.4,0.1-2.2,1-2.4,1.2c-0.1,0.2-0.1,1.1-0.1,1.1v0.1c0,0.2,0.2,0.4,0.4,0.4h2.6C-220.9-2684.2-220.7-2684.5-220.5-2684.6
			L-220.5-2684.6L-220.5-2684.6z"/>
		<path id="Shape_29_" class="st0" d="M-206.1-2684.6c-0.2-0.2-2-1.1-2.4-1.2c0-0.1,0-0.3-0.1-0.4c-0.1,0-0.4-0.2-0.4-0.2v-0.1
			c0-0.1,0-0.1,0-0.1c0-0.1,0.2-0.3,0.2-0.4c0-0.1,0.1-0.5,0.1-0.5c0-0.1,0.1-0.1,0.2-0.1c0.1-0.1,0.2-0.9,0.2-0.9
			c0-0.3-0.1-0.1-0.1-0.3v-0.7c0-0.9-0.7-1.4-1.6-1.4l0,0c-0.9,0-1.6,0.6-1.6,1.4v0.7c0,0.2-0.1,0.1-0.1,0.3c0,0,0.1,0.8,0.2,0.9
			c0.1,0,0.2,0.1,0.2,0.1s0.1,0.4,0.1,0.5s0.2,0.3,0.2,0.4v0.1c0,0.1,0,0.1,0,0.1s-0.3,0.1-0.4,0.2c-0.1,0-0.1,0.2-0.1,0.3
			c0.8,0.4,1.7,0.9,2,1.1c0.1,0.1,0.4,0.4,0.5,1.6h2.6c0.2,0,0.4-0.2,0.4-0.4v-0.1C-206-2683.5-206-2684.4-206.1-2684.6
			L-206.1-2684.6L-206.1-2684.6z"/>
	</g>
</g>
<g id="Group_24_" transform="translate(10.000000, 3219.000000)" sketch:type="MSShapeGroup">
	<path id="Shape_70_" class="st20" d="M-225-2688v9h16v-9H-225L-225-2688z M-221.1-2681h-1.6c-0.1,0-0.3-0.1-0.3-0.2v-0.1
		c0,0,0-0.6,0.1-0.6c0.1-0.1,1.2-0.6,1.5-0.7c0,0,0-0.2,0.1-0.2l0.2-0.1v-0.1v-0.1c0-0.1-0.1-0.2-0.1-0.2c0-0.1-0.1-0.3-0.1-0.3
		c0-0.1-0.1-0.1-0.1-0.1c-0.1,0-0.2-0.5-0.2-0.5c0-0.2,0-0.1,0-0.2v-0.4c0-0.5,0.6-0.9,1.1-0.9l0,0c0.5,0,1.1,0.3,1.1,0.9v0.4v0.2
		c0,0-0.1,0.5-0.2,0.5c-0.1,0-0.1,0-0.1,0.1c0,0,0,0.2-0.1,0.3c0,0.1-0.1,0.2-0.1,0.2v0.1v0.1l0.2,0.1c0.1,0,0.1,0.2,0.1,0.2h0.1
		c-0.5,0.2-1.2,0.6-1.3,0.7C-220.9-2681.8-221.1-2681.7-221.1-2681L-221.1-2681L-221.1-2681z M-213.7-2680.9c0,0.1-0.2,0.9-0.3,0.9
		h-5.9c-0.2,0-0.3-0.7-0.3-0.9v-0.1c0,0,0-0.7,0.1-0.9c0.2-0.2,1.7-0.9,1.9-0.9c0-0.1,0-0.3,0.1-0.3s0.3-0.1,0.3-0.1v-0.1
		c0-0.1,0-0.1,0-0.1c0-0.1-0.2-0.2-0.2-0.3s-0.1-0.4-0.1-0.4c0-0.1-0.1-0.1-0.2-0.1c-0.1-0.1-0.2-0.7-0.2-0.7c0-0.2,0.1-0.1,0.1-0.3
		v-0.6c0-0.7,0.6-1.1,1.4-1.1l0,0c0.7,0,1.3,0.4,1.3,1.1v0.6c0,0.1,0.1,0.1,0.1,0.3c0,0-0.1,0.6-0.2,0.7c-0.1,0-0.2,0.1-0.2,0.1
		s0,0.3-0.1,0.4c0,0.1-0.2,0.3-0.2,0.3v0.1c0,0.1,0,0.1,0,0.1s0.2,0.1,0.3,0.1s0.1,0.2,0.1,0.3c0.3,0.1,1.8,0.8,1.9,0.9
		c0.1,0.1,0.1,0.9,0.1,0.9L-213.7-2680.9L-213.7-2680.9z M-211-2681.2c0,0.1-0.2,0.2-0.3,0.2h-1.6c0-0.7-0.1-0.8-0.2-0.9
		c-0.1-0.1-0.8-0.5-1.3-0.7h0.1c0,0,0-0.2,0.1-0.2l0.2-0.1v-0.1v-0.1c0-0.1-0.1-0.2-0.1-0.2c0-0.1-0.1-0.3-0.1-0.3
		c0-0.1-0.1-0.1-0.1-0.1c-0.1,0-0.2-0.5-0.2-0.5v-0.2v-0.4c0-0.5,0.6-0.9,1.1-0.9l0,0c0.5,0,1.1,0.3,1.1,0.9v0.4c0,0.1,0,0,0,0.2
		c0,0-0.1,0.5-0.2,0.5c0,0-0.1,0-0.1,0.1c0,0,0,0.2-0.1,0.3c0,0.1-0.1,0.2-0.1,0.2v0.1v0.1l0.2,0.1c0.1,0,0.1,0.2,0.1,0.2
		c0.2,0.1,1.3,0.6,1.5,0.7C-211-2681.8-211-2681.3-211-2681.2L-211-2681.2L-211-2681.2L-211-2681.2z"/>
	<path id="Shape_71_" class="st20" d="M-210-2690h-7v-1h-8v2h15V-2690L-210-2690z"/>
</g>
<g id="Group_25_" transform="translate(10.000000, 3259.000000)" sketch:type="MSShapeGroup">
	<path id="Shape_72_" class="st0" d="M-225-2688v9h16v-9H-225L-225-2688z M-221.1-2681h-1.6c-0.1,0-0.3-0.1-0.3-0.2v-0.1
		c0,0,0-0.6,0.1-0.6c0.1-0.1,1.2-0.6,1.5-0.7c0,0,0-0.2,0.1-0.2l0.2-0.1v-0.1v-0.1c0-0.1-0.1-0.2-0.1-0.2c0-0.1-0.1-0.3-0.1-0.3
		c0-0.1-0.1-0.1-0.1-0.1c-0.1,0-0.2-0.5-0.2-0.5c0-0.2,0-0.1,0-0.2v-0.4c0-0.5,0.6-0.9,1.1-0.9l0,0c0.5,0,1.1,0.3,1.1,0.9v0.4v0.2
		c0,0-0.1,0.5-0.2,0.5c-0.1,0-0.1,0-0.1,0.1c0,0,0,0.2-0.1,0.3c0,0.1-0.1,0.2-0.1,0.2v0.1v0.1l0.2,0.1c0.1,0,0.1,0.2,0.1,0.2h0.1
		c-0.5,0.2-1.2,0.6-1.3,0.7C-220.9-2681.8-221.1-2681.7-221.1-2681L-221.1-2681L-221.1-2681z M-213.7-2680.9c0,0.1-0.2,0.9-0.3,0.9
		h-5.9c-0.2,0-0.3-0.7-0.3-0.9v-0.1c0,0,0-0.7,0.1-0.9c0.2-0.2,1.7-0.9,1.9-0.9c0-0.1,0-0.3,0.1-0.3s0.3-0.1,0.3-0.1v-0.1
		c0-0.1,0-0.1,0-0.1c0-0.1-0.2-0.2-0.2-0.3s-0.1-0.4-0.1-0.4c0-0.1-0.1-0.1-0.2-0.1c-0.1-0.1-0.2-0.7-0.2-0.7c0-0.2,0.1-0.1,0.1-0.3
		v-0.6c0-0.7,0.6-1.1,1.4-1.1l0,0c0.7,0,1.3,0.4,1.3,1.1v0.6c0,0.1,0.1,0.1,0.1,0.3c0,0-0.1,0.6-0.2,0.7c-0.1,0-0.2,0.1-0.2,0.1
		s0,0.3-0.1,0.4c0,0.1-0.2,0.3-0.2,0.3v0.1c0,0.1,0,0.1,0,0.1s0.2,0.1,0.3,0.1s0.1,0.2,0.1,0.3c0.3,0.1,1.8,0.8,1.9,0.9
		c0.1,0.1,0.1,0.9,0.1,0.9L-213.7-2680.9L-213.7-2680.9z M-211-2681.2c0,0.1-0.2,0.2-0.3,0.2h-1.6c0-0.7-0.1-0.8-0.2-0.9
		c-0.1-0.1-0.8-0.5-1.3-0.7h0.1c0,0,0-0.2,0.1-0.2l0.2-0.1v-0.1v-0.1c0-0.1-0.1-0.2-0.1-0.2c0-0.1-0.1-0.3-0.1-0.3
		c0-0.1-0.1-0.1-0.1-0.1c-0.1,0-0.2-0.5-0.2-0.5v-0.2v-0.4c0-0.5,0.6-0.9,1.1-0.9l0,0c0.5,0,1.1,0.3,1.1,0.9v0.4c0,0.1,0,0,0,0.2
		c0,0-0.1,0.5-0.2,0.5c0,0-0.1,0-0.1,0.1c0,0,0,0.2-0.1,0.3c0,0.1-0.1,0.2-0.1,0.2v0.1v0.1l0.2,0.1c0.1,0,0.1,0.2,0.1,0.2
		c0.2,0.1,1.3,0.6,1.5,0.7C-211-2681.8-211-2681.3-211-2681.2L-211-2681.2L-211-2681.2L-211-2681.2z"/>
	<path id="Shape_73_" class="st0" d="M-210-2690h-7v-1h-8v2h15V-2690L-210-2690z"/>
</g>
<g id="Group_26_" transform="translate(9.000000, 3294.000000)" sketch:type="MSShapeGroup" class="st2">
	<path id="Shape_74_" class="st22" d="M-84.2-2561.1l-8.9-5.9c-6-4-9.6-10.7-9.6-17.9c-0.1-16.4,0.1-6.4,0.1-26.9
		c0-23.4-12.5-54.6-36-62.8c-0.2-7.9-6.5-16.4-14.4-16.4s-14.2,8.6-14.4,16.4c-23.5,8.2-36,39.3-36,62.8c0,20.5,0.2,10.5,0.1,26.9
		c0,7.2-3.7,13.9-9.6,17.9l-8.9,5.9c-2,1.3-3.2,3.6-3.2,6v5.7c0,2.7,2.1,4.8,4.8,4.8h134.4c2.6,0,4.8-2.1,4.8-4.8v-5.7
		C-81-2557.6-82.2-2559.8-84.2-2561.1L-84.2-2561.1L-84.2-2561.1z"/>
	<path id="Shape_75_" class="st22" d="M-136.4-2542.2h-33.2c-1.5,0-2.6,1.3-2.4,2.8c1.3,9.3,9.3,16.4,19,16.4s17.7-7.1,19-16.4
		C-133.8-2540.9-134.9-2542.2-136.4-2542.2L-136.4-2542.2L-136.4-2542.2z"/>
</g>
<g id="Group_27_" transform="translate(13.000000, 3535.000000)" sketch:type="MSShapeGroup" class="st4">
	<path id="Shape_76_" class="st23" d="M-211.7-2686.7c-0.7-3.3-3.9-4.4-7.1-3.7c-2.9,0.6-5.7,2.9-5.6,6c0,1.4,0.9,2.5,2.1,3.2
		c0.1,0.1,0.2,0.2,0.2,0.3c0,0.6-0.4,1-1,1.1c-0.3,0.1-0.3,0.2,0,0.3c1.2,0.1,2.5,0,3.5-0.7c0.9,0.1,1.8,0.2,2.6,0.1
		C-213.3-2680.3-210.9-2683-211.7-2686.7L-211.7-2686.7L-211.7-2686.7z"/>
</g>
<path id="Shape_77_" sketch:type="MSShapeGroup" class="st0" d="M-198.7,918.3c-0.7-3.3-3.9-4.4-7.1-3.7c-2.9,0.6-5.7,2.9-5.6,6
	c0,1.4,0.9,2.5,2.1,3.2c0.1,0.1,0.2,0.2,0.2,0.3c0,0.6-0.4,1-1,1.1c-0.3,0.1-0.3,0.2,0,0.3c1.2,0.1,2.5,0,3.5-0.7
	c0.9,0.1,1.8,0.2,2.6,0.1C-200.3,924.7-197.9,922-198.7,918.3L-198.7,918.3L-198.7,918.3z"/>
<path id="Shape_79_" sketch:type="MSShapeGroup" class="st24" d="M-83,1034h8l-4,4L-83,1034L-83,1034z"/>
<path id="Shape_80_" sketch:type="MSShapeGroup" class="st0" d="M-214,1075.5l1.6,2.6h-3.3L-214,1075.5L-214,1075.5z M-214,1072
	l-5,8h10L-214,1072L-214,1072z"/>
<path id="Shape_81_" sketch:type="MSShapeGroup" class="st25" d="M-221.7,1140c-0.6-0.6-1.5-1-2.3-1h16c-0.9,0-1.7,0.4-2.3,1
	l-4.5,4.5c-0.6,0.7-1.7,0.7-2.3,0L-221.7,1140L-221.7,1140z"/>
<g id="Imported-Layers-9-_x2B_-Path_1_" transform="translate(9.000000, 1897.000000)" sketch:type="MSShapeGroup">
	<g id="Imported-Layers-9_1_">
		<path id="Fill-1_22_" class="st26" d="M-207-2676c0,0.6-0.4,1-1,1h-16c-0.6,0-1-0.4-1-1v-11h18V-2676"/>
		<path id="Fill-2_22_" class="st27" d="M-224-2691h6.1c0.3,0,0.5,0.1,0.7,0.3l0.9,0.9c0.6,0.7,1,0.8,1.3,0.8h7c0.6,0,1,0.4,1,1v1
			h-18v-3C-225-2690.6-224.6-2691-224-2691"/>
	</g>
</g>
<g id="Imported-Layers-9-_x2B_-Path_2_" transform="translate(9.000000, 1937.000000)" sketch:type="MSShapeGroup">
	<g id="Imported-Layers-9_2_">
		<path id="Fill-1_1_" class="st28" d="M-207-2676c0,0.6-0.4,1-1,1h-16c-0.6,0-1-0.4-1-1v-11h18V-2676"/>
		<path id="Fill-2_1_" class="st0" d="M-224-2691h6.1c0.3,0,0.5,0.1,0.7,0.3l0.9,0.9c0.6,0.7,1,0.8,1.3,0.8h7c0.6,0,1,0.4,1,1v1h-18
			v-3C-225-2690.6-224.6-2691-224-2691"/>
	</g>
</g>
<g id="Imported-Layers-9-_x2B_-Path_4_" transform="translate(9.000000, 1977.000000)" sketch:type="MSShapeGroup">
	<g id="Imported-Layers-9_4_">
		<path id="Fill-1_3_" class="st26" d="M-207-2676c0,0.6-0.4,1-1,1h-16c-0.6,0-1-0.4-1-1v-11h18V-2676"/>
		<path id="Fill-2_3_" class="st27" d="M-224-2691h6.1c0.3,0,0.5,0.1,0.7,0.3l0.9,0.9c0.6,0.7,1,0.8,1.3,0.8h7c0.6,0,1,0.4,1,1v1
			h-18v-3C-225-2690.6-224.6-2691-224-2691"/>
	</g>
</g>
<g id="Imported-Layers-9-_x2B_-Path_3_" transform="translate(9.000000, 2017.000000)" sketch:type="MSShapeGroup">
	<g id="Imported-Layers-9_3_">
		<path id="Fill-1_2_" class="st28" d="M-207-2676c0,0.6-0.4,1-1,1h-16c-0.6,0-1-0.4-1-1v-11h18V-2676"/>
		<path id="Fill-2_2_" class="st0" d="M-224-2691h6.1c0.3,0,0.5,0.1,0.7,0.3l0.9,0.9c0.6,0.7,1,0.8,1.3,0.8h7c0.6,0,1,0.4,1,1v1h-18
			v-3C-225-2690.6-224.6-2691-224-2691"/>
	</g>
</g>
<g id="Page-1_1_" transform="translate(9.000000, 1233.000000)" sketch:type="MSShapeGroup" class="st29">
	<g id="Imported-Layers-2_1_">
		<path id="Fill-1_6_" class="st30" d="M-95.3-2598.7c7.4-4.2,12.6-10.8,12.9-19.2c0.4-18.4-16.8-31.9-34.1-35.7
			c-2-0.4-4.1-0.8-6.1-1c-0.2-1.6-0.5-3.3-0.8-5c-5.6-25.9-31.1-34.5-55.9-29c-22.7,5-45.4,22.8-44.8,47
			c0.3,11.1,7.2,19.7,16.9,25.3c0.6,0.5,1.4,1.3,1.5,2.3c0.2,4.7-3.2,7.8-7.6,9c-2.3,0.6-2.8,1.8,0.1,2.1c9.3,0.6,20.2,0.3,27.8-5.9
			c7.1,1,14.1,1.5,21,1c2.8-0.2,5.5-0.6,8.1-1.1c5.1,9.6,15.6,15.9,28.7,16.8c5.2,0.4,10.6,0,15.9-0.7c5.8,4.7,14.1,5,21.2,4.5
			c2.2-0.2,1.8-1.1,0.1-1.6c-3.3-0.9-6-3.3-5.8-6.9C-96.4-2597.7-95.8-2598.3-95.3-2598.7"/>
		<path id="Fill-2_6_" class="st0" d="M-96.7-2600.5l0.1-0.1l0.1-0.1c9.5-5.4,11.6-12.5,11.8-17.4c0.4-17.2-16-29.9-32.4-33.5
			c-2.2-0.5-4.4-0.8-6.6-1c0.8,10-1.7,19.1-7.3,26.6s-13.9,12.8-23.9,15.3c0.7,1.3,1.5,2.6,2.4,3.9c5.4,7.2,14.1,11.5,24.7,12.3
			c1.3,0.1,2.7,0.2,4.1,0.2c3.4,0,7-0.3,11.3-0.9l1-0.1l0.7,0.6c3.3,2.7,8.1,4.1,14.4,4.2c-1.8-1.7-2.7-4-2.6-6.5
			C-98.6-2598.3-97.9-2599.6-96.7-2600.5"/>
		<path id="Fill-3_1_" class="st0" d="M-207.4-2605c-0.3,0-0.6,0-1,0c3.1-2.2,4.9-5.5,4.7-9.2c-0.1-1.5-0.9-2.9-2.3-4l-0.1-0.1
			l-0.1-0.1c-9.9-5.7-15.6-14-15.8-23.4c-0.5-23,21.2-39.9,43.1-44.7c4.6-1,9.2-1.5,13.7-1.5c20.9,0,35.7,10.8,39.6,28.8
			c2.7,12.4,0.6,23.6-6.1,32.6c-7.2,9.6-18.9,15.4-33,16.4c-1.8,0.1-3.6,0.2-5.5,0.2l0,0c-4.5,0-9.2-0.4-15-1.2l-1-0.1l-0.7,0.6
			C-191.7-2606.8-198.3-2605-207.4-2605"/>
	</g>
</g>
<g id="empty-cloud" transform="translate(4.000000, 899.000000)" sketch:type="MSShapeGroup">
	<path id="Fill-1_5_" class="st31" d="M-224.7-2618.5c0,18.4,14.1,33.4,31.4,33.4h89.9c17.3,0,31.4-15,31.4-33.4
		c0-17.9-13.3-32.6-30-33.4v-0.1c0-21.5-16.4-39-36.7-39c-13.1,0-24.6,7.3-31.1,18.3c-2.2-1-4.6-1.6-7.1-1.6c-9.9,0-18,8.6-18,19.1
		c0,1.1,0.1,2.2,0.2,3.2C-211.3-2651.3-224.7-2636.6-224.7-2618.5"/>
	<path id="Fill-2_5_" class="st0" d="M-193.2-2587.3c-16.2,0-29.3-14-29.3-31.2c0-16.9,12.4-30.6,28.2-31.2l2.4-0.1l-0.4-2.4
		c-0.1-0.8-0.2-1.8-0.2-2.9c0-9.4,7.1-17,15.8-17c2.1,0,4.2,0.5,6.2,1.4l1.8,0.8l1-1.7c6.3-10.8,17.3-17.2,29.3-17.2
		c19,0,34.5,16.5,34.5,36.8v2.1l2,0.1c15.7,0.8,27.9,14.5,27.9,31.2c0,17.2-13.1,31.2-29.3,31.2L-193.2-2587.3"/>
</g>
<g id="Fill-1-_x2B_-Fill-3" transform="translate(16.000000, 1070.000000)" sketch:type="MSShapeGroup">
	<path id="Fill-1_4_" class="st31" d="M-217.6-2584.3c-4,0-7.2-3.2-7.2-7.2v-76.9c0-0.9,0.4-1.8,1.1-2.4c-0.1-0.2-0.1-0.5-0.1-0.7
		v-12.3c0-4,3.2-7.2,7.2-7.2h49.8c0.8,0,1.6,0.3,2.2,0.9l7.8,7.8h46.8c0.1,0,0.2,0,0.3,0c3.8,0,6.9,3.2,6.9,7.2v3.6h2.1
		c1.7,0,3.1,1.4,3.1,3.1v76.9c0,4-3.2,7.2-7.2,7.2L-217.6-2584.3"/>
	<path id="Fill-2_4_" class="st0" d="M-99.7-2591.5c0,2.8-2.3,5.1-5.1,5.1h-112.8c-2.8,0-5.1-2.3-5.1-5.1v-76.9c0-0.6,0.5-1,1-1h121
		c0.6,0,1,0.5,1,1L-99.7-2591.5L-99.7-2591.5z M-221.7-2683.8c0-2.8,2.3-5.1,5.1-5.1h49.8c0.3,0,0.5,0.1,0.7,0.3l8.1,8.1
		c0.2,0.2,0.5,0.3,0.7,0.3h47.3c2.8-0.2,5.1,2.3,5.1,5.1v3.6c0,0.6-0.5,1-1,1h-114.8c-0.6,0-1-0.5-1-1L-221.7-2683.8L-221.7-2683.8z
		"/>
</g>
<path id="Fill-1_7_" sketch:type="MSShapeGroup" class="st31" d="M-150.4-1229.2c1.1,0,1.9,0.9,1.9,1.9v29c0,1.1-0.9,1.9-1.9,1.9
	h-17.5c-0.4,0-0.8,0-1.2,0c-7.9,0-13.3-1.9-16.4-5.8c-0.1-0.1-15.7-29.7-16.6-31.3c-0.9-1.6-1.7-3.4-2-5.6c-0.3-2.7-0.2-5.6,1.1-8
	l6.5-12.5l-7.8-6.1c-1.7-1.3-1.3-2.4,0.8-2.4l29.1-0.3c0.5,0,1.2,0.4,1.4,0.8l14.7,27.3c1,1.9,0.3,2.6-1.6,1.6l-8.4-4.5l-8.5,13.9
	L-150.4-1229.2L-150.4-1229.2z M-96.8-1267.7c-0.5-0.9-1.6-1.3-2.5-0.7l-24.7,15.1c-0.9,0.6-1.2,1.8-0.7,2.7l11.6,21.5h-13.3
	l-0.5-9.9c-0.1-2.1-1-2.3-2.1-0.5l-14.4,26c-0.3,0.5-0.3,1.2,0,1.7l14.6,26.6c1,1.9,1.9,1.7,2-0.5l0.4-10.8h9.9c0.3,0,0.6,0,0.9,0
	c5.2,0,10.7-3.4,13-7.8c0,0,13.1-24.8,15.3-29.1c2.2-4.3,3.2-9.4,2-12.1L-96.8-1267.7L-96.8-1267.7z M-98.1-1292
	c1.1-1.8,0.5-2.5-1.4-1.5l-9.3,4.9l-4.8-8.9c-2.1-4.7-7.9-8.6-13-8.6c-0.1,0-0.2,0-0.4,0c0,0-27.4,0.2-31.8,0.2
	c-4.3,0-9.6,0.8-12.1,4.4c-2.5,3.7-13.5,20.7-13.5,20.7c-0.6,0.9-0.3,2.1,0.6,2.6l24.9,14.8c0.9,0.5,2.1,0.2,2.7-0.7l12.7-20.8
	l6.4,11.9l-8,5.2c-1.8,1.1-1.5,2.1,0.6,2.1l29.1,0.3c0.5,0,1.2-0.4,1.5-0.8L-98.1-1292L-98.1-1292z"/>
<path id="Fill-2_7_" sketch:type="MSShapeGroup" class="st0" d="M-123.2-1251.6l12,22.3c11.8,0.7,26.4-3.7,23.7-15.6l-11.1-21.8
	L-123.2-1251.6L-123.2-1251.6z M-128.8-1236.1l-13,23.4l13,23.8l0.3-9.5h11.9c4.3,0.4,9.9-2.5,12-6.7l15.2-28.5
	c-5,5.1-11.5,6.4-18.9,6.4h-20L-128.8-1236.1L-128.8-1236.1z M-157.8-1265l13.2-21.6c-5.1-10.9-17.3-22.3-24.8-13.6l-13.3,20.5
	L-157.8-1265L-157.8-1265z M-141.8-1267.5l26.3,0.2l14-23.1l-8.3,4.3l-5.8-10.6c-1.8-4.1-7-7.7-11.6-7.5l-31.8,0.2
	c6.8,2,11,7.2,14.7,13.8l9.7,17.9L-141.8-1267.5L-141.8-1267.5z M-201.7-1266.2l7.7,6l-7.3,13.9c-3.6,6.4,2.6,12.7,6.6,14.8
	c3.9,2.1,10,2.4,15.6,2.3l10.2-16.7l7.7,4.2l-13.4-24.8L-201.7-1266.2L-201.7-1266.2z M-200.6-1234l16.6,30.6
	c3.3,4.2,9.6,5.2,16.1,5.1h17.5v-29l-33.1-0.2C-188.7-1227.2-195.4-1228.3-200.6-1234L-200.6-1234L-200.6-1234z"/>
<g id="Page-1" transform="translate(6.000000, 3670.000000)" sketch:type="MSShapeGroup">
	<path id="Fill-54" class="st32" d="M-224.6-2687c-0.8-1.5-0.4-2.9,1.1-3.8c0.5-0.3,1-0.3,1.4,0.2c0.2,0.2,0.9,1.1,1.1,1.3
		c0.6,0.7,0.6,1.2-0.5,2.2c-0.4,0.4-0.3,1,0,1.3l3.3,3.3c0.3,0.3,0.9,0.4,1.3,0c1-1,1.5-1,2.2-0.5c0.2,0.2,1.1,0.9,1.3,1.1
		c0.5,0.4,0.5,0.8,0.2,1.4c-0.9,1.5-2.3,2-3.8,1.1c-1.6-0.9-3.2-1.8-4.5-3.1S-223.7-2685.4-224.6-2687L-224.6-2687z"/>
</g>
<path id="Fill-2-Copy-2" sketch:type="MSShapeGroup" class="st33" d="M-167-1128.2l-3.8,2.2l1.1-4.1l-3.3-2.5l4.3-0.5l1.7-3.9
	l1.7,3.9l4.3,0.5l-3.3,2.5l1.1,4.1L-167-1128.2"/>
<path id="Imported-Layers-Copy-27" sketch:type="MSShapeGroup" class="st34" d="M-128-1131.4l7.3-7.3c0.4-0.4,1-0.4,1.4,0
	s0.4,1,0,1.4l-6.3,6.3l6.3,6.3c0.4,0.4,0.4,1,0,1.4c-0.2,0.2-0.4,0.3-0.7,0.3c-0.3,0-0.5-0.1-0.7-0.3l-7.3-7.3L-128-1131.4"/>
<path id="Shape_30_" class="st35" d="M-195.5,1200.5l-17.6,10.8l4.8-20.1l-15.7-13.4l20.6-1.6l7.9-19.1l7.9,19.1l20.6,1.6
	l-15.7,13.4l4.8,20.1L-195.5,1200.5z"/>
<path id="Shape_31_" class="st36" d="M-195.5,1280.5l-17.6,10.8l4.8-20.1l-15.7-13.4l20.6-1.6l7.9-19.1l7.9,19.1l20.6,1.6
	l-15.7,13.4l4.8,20.1L-195.5,1280.5z"/>
<path id="Shape_32_" class="st37" d="M-219,1371h8c2.2,0,4,1.8,4,4v8c0,2.2-1.8,4-4,4h-8c-2.2,0-4-1.8-4-4v-8
	C-223,1372.8-221.2,1371-219,1371L-219,1371z"/>
<path id="Shape_33_" class="st38" d="M-211,1423h-8c-2.2,0-4,1.8-4,4v8c0,2.2,1.8,4,4,4h8c2.2,0,4-1.8,4-4v-8
	C-207,1424.8-208.8,1423-211,1423L-211,1423z M-216.1,1435l-3.9-4l1.7-1.8l2.2,2.2l4.3-4.4l1.7,1.8L-216.1,1435L-216.1,1435z"/>
<path id="Shape_34_" class="st39" d="M-216.3,1333.4h2c-0.3-2.6,2.8-3.5,2.8-6c0-2.2-1.5-3.3-3.7-3.3c-1.5,0-2.6,0.7-3.5,1.7
	l1.3,1.2c0.6-0.6,1.2-1,2.1-1c1,0,1.6,0.6,1.6,1.6C-213.6,1329.3-216.7,1330.5-216.3,1333.4L-216.3,1333.4z M-216.7,1336.4
	c0,0.9,0.6,1.6,1.5,1.6c0.8,0,1.5-0.7,1.5-1.6s-0.7-1.6-1.5-1.6C-216.1,1334.8-216.7,1335.5-216.7,1336.4L-216.7,1336.4z"/>
<path id="Shape_35_" class="st0" d="M-217.2,1476.8c-1.6-1.6-4.6-2.8-6.8-2.8l0,0h24c-2.2,0-5.3,1.3-6.8,2.8l-3.8,3.8
	c-0.8,0.8-2,0.8-2.8,0L-217.2,1476.8L-217.2,1476.8z"/>
<path id="Rectangle-17-Copy-4" sketch:type="MSShapeGroup" class="st40" d="M-122,1771h12l-6,6L-122,1771z"/>
<path id="Rectangle-17-Copy-5" sketch:type="MSShapeGroup" class="st40" d="M-122,1817h12l-6-6L-122,1817z"/>
<path id="Fill-1-Copy-8" sketch:type="MSShapeGroup" class="st41" d="M-179.9,1738.9c1.4,1.4,4.4,1.5,5.9,0.1l2.9-2.9
	c1.6-1.6,1.5-4.2-0.1-5.9c-1.6-1.7-4.3-1.7-5.9-0.1l-2.3,2.3c0.8,0,1.7,0.1,2.5,0.5l1.2-1.2c0.8-0.8,2.1-0.8,2.9,0.1
	c0.8,0.8,0.8,2.1,0.1,2.9l-2.9,2.9c-0.8,0.8-2.4,0.5-3.4,0.5L-179.9,1738.9z M-176.1,1735.1c-1.4-1.4-4.5-1.5-5.9-0.1l-2.9,2.9
	c-1.6,1.6-1.5,4.2,0.1,5.9c1.6,1.7,4.3,1.7,5.9,0.1l2.3-2.3c-0.8,0-1.7-0.1-2.5-0.5l-1.2,1.2c-0.8,0.8-2.1,0.8-2.9-0.1
	c-0.8-0.8-0.8-2.1-0.1-2.9l2.9-2.9c0.6-0.6,1.5-0.5,3.4-0.5l0,0L-176.1,1735.1z"/>
<path id="Fill-1-Copy-6" sketch:type="MSShapeGroup" class="st41" d="M-172,1702v-1c0-3.3-2.7-6-6-6s-6,2.7-6,6v1h2v-1
	c0-2.2,1.8-4,4-4s4,1.8,4,4v1H-172z M-184,1703c-0.6,0-1,0.5-1,1v6c0,0.5,0.4,1,1,1h12c0.6,0,1-0.5,1-1v-6c0-0.5-0.4-1-1-1H-184z
	 M-179,1705h2v4h-2V1705z"/>
<path id="Fill-1-Copy-7" sketch:type="MSShapeGroup" class="st41" d="M-178,1665c-4.4,0-8,3.6-8,8s3.6,8,8,8s8-3.6,8-8
	S-173.6,1665-178,1665z M-176.6,1668.6l0.2-0.1L-176.6,1668.6h0.3l-0.1,0.2l0.1,0.5h-0.1v0.2l-0.2,0.1h-0.1l0.3-0.2h0.1l0,0h-0.2
	v-0.2h0.2v-0.2h-0.2L-176.6,1668.6L-176.6,1668.6L-176.6,1668.6z M-177,1669.2h0.1v-0.1h0.2l0.1,0.1l-0.1,0.1l0.1,0.1l-0.3,0.2
	l-0.1-0.1l0.1-0.2L-177,1669.2L-177,1669.2L-177,1669.2z M-179.8,1665.9h0.1l0.4,0.1l-0.2,0.1l-0.1,0.1l-0.3,0.1h-0.1h-0.2v0.1
	l-0.2,0.2l-0.3-0.1v-0.1h0.2l0.2-0.2l0.4-0.1l-0.2-0.1v-0.2L-179.8,1665.9L-179.8,1665.9z M-180.6,1666.2l0.3-0.1l-0.2,0.2l-0.2,0.1
	L-180.6,1666.2L-180.6,1666.2z M-180.8,1666.4L-180.8,1666.4l0.2,0.2l-0.1,0.1l-0.2-0.1L-180.8,1666.4L-180.8,1666.4z
	 M-181.2,1666.6l-0.1,0.1h0.3l-0.2,0.2l-0.4-0.1L-181.2,1666.6L-181.2,1666.6z M-181.8,1667.2l0.3-0.2l0.2,0.1l-0.1,0.2l0.2-0.1
	l0.2,0.2l0.1,0.3l-0.2,0.2l0.2,0.1l0.1,0.2l-0.3,0.2l-0.1-0.2l-0.2,0.1l0.1,0.3l-0.1,0.2l-0.1-0.2h-0.2l0.1,0.1v0.1l-0.2-0.2
	l-0.1-0.2h-0.2l0.3-0.1h0.5v-0.2v-0.2l-0.2-0.5l-0.2,0.1l-0.3-0.1L-181.8,1667.2L-181.8,1667.2z M-182.8,1667.2
	c0.2-0.2,0.5-0.4,0.7-0.5l-0.2,0.2h0.2l-0.3,0.2l-0.1,0.2l-0.2,0.1l-0.2-0.1L-182.8,1667.2L-182.8,1667.2z M-179.6,1678l-0.1,0.2
	h-0.1l0.1,0.4l-0.1,0.4h-0.2l-0.3,0.2l0.1,0.4l-0.1,0.6h-0.2h0.2l0,0h-0.2v0.1h0.2l0.1,0.2l0.4,0.2c-0.2-0.1-0.4-0.1-0.6-0.2
	l-0.3-0.1l-0.5-0.4l-0.7-0.8l-0.4-0.6l-0.4-0.2l-1-1.1v-0.2l-0.1-0.1l0.1-0.4l-0.1-0.5l0.3-0.3l0.3-0.1v-0.1l-0.3-0.1l-0.2,0.1
	l-0.2-0.1h-0.1l-0.2-0.2l-0.1-0.2l-0.2-0.2l-0.4-0.5h-0.1l-0.3-0.4l-0.1-0.9l0,0c0-2.2,1-4.2,2.6-5.6l-0.1,0.1l0.1,0.1l0.1-0.1
	l0.2,0.1l0.2-0.1l0.2-0.1v-0.1l0.3-0.2l-0.2,0.2l-0.1,0.1l-0.1,0.1v0.2l0.3-0.2v-0.1l0.2,0.2l-0.3,0.3h-0.2l-0.2,0.1l-0.2,0.1
	l-0.2,0.1l-0.2,0.1l-0.5,0.4l0.1,0.1l-0.1,0.2l0.2,0.1l0.1,0.3l0.2,0.1l-0.1,0.4l0.1,0.2l0.2-0.1l0.1-0.4l0.2-0.1l0.1-0.2v-0.2
	l0.2-0.2l0.1-0.4h0.1h0.1l0.1,0.1l0.1,0.2h0.1l-0.1,0.3l0.1,0.1l0.2-0.1l0.2-0.2l0.1,0.4l-0.1,0.1l0.1,0.2l0.3,0.1l-0.4,0.1h0.3
	l0.1,0.1v0.2l-0.3,0.1l-0.2,0.1l-0.7-0.1l-0.5,0.4l0.5-0.2h0.2l-0.2,0.1l0.1,0.3l0.3,0.1l-0.5,0.2c0,0,0.2-0.2,0.1-0.2
	c-0.1,0-0.5,0.1-0.5,0.1l-0.1,0.2l-0.1,0.1l-0.3,0.1v0.2h-0.1v0.2v0.3l-0.3,0.2l-0.4,0.2v0.4v0.5l-0.2-0.3v-0.2l-0.2-0.1l-0.4-0.1
	v0.1l-0.3-0.1l-0.2,0.2l-0.1,0.7l0.1,0.5l0.3,0.1l0.4-0.1v-0.2l0,0l-0.3,0.6l0.3,0.1v0.6l0.3,0.3h0.2l0.2,0.2l0.1,0.3h0.1v-0.2h0.1
	l0.4,0.2h0.3l0.2,0.1l-0.1,0.1h0.2l0.3,0.3l0.5,0.1l0.4,0.5l-0.2,0.2l0.3,0.1l0.2-0.1l0.4,0.2v0.1l0.2-0.2h0.2h0.2l0.3,0.3l0.2,0.1
	l0.2,0.3L-179.6,1678L-179.6,1678z M-182.4,1668.1v0.2h-0.2l-0.1-0.1l0.2-0.2L-182.4,1668.1L-182.4,1668.1z M-180.9,1670.6l-0.1,0.2
	l-0.5-0.1l0.4-0.4L-180.9,1670.6L-180.9,1670.6z M-182.6,1674.5h-0.2v-0.1L-182.6,1674.5L-182.6,1674.5L-182.6,1674.5z
	 M-182.9,1674.4h-0.3l-0.1-0.2h0.2L-182.9,1674.4L-182.9,1674.4z M-183.4,1674.1h-0.4l-0.4-0.4l-0.1,0.1v-0.1h0.2L-183.4,1674.1
	L-183.4,1674.1z M-178.2,1667h0.2H-178.2l-0.2,0.3h-0.1l-0.1,0.3l-0.3,0.2l-0.1-0.1l-0.3,0.3l0.1,0.1l-0.2,0.3v0.2l-0.1,0.2
	l-0.2,0.1l-0.1-0.2l-0.2,0.1l-0.2-0.2l-0.1-0.3h0.2l-0.1-0.1l-0.1,0.1v-0.3l0.2-0.1l0.2-0.4v-0.2l-0.2,0.1l0.1-0.2l0.1-0.4l-0.2-0.1
	l0.1-0.1l0.1-0.1l0.3-0.1l0.2-0.2h0.3h0.2h0.3l-0.1,0.2l0.2,0.2v0.2h-0.2l0.2,0.1h0.2L-178.2,1667l-0.4,0L-178.2,1667L-178.2,1667z
	 M-180.2,1667.3l0.2-0.1v0.2L-180.2,1667.3L-180.2,1667.3L-180.2,1667.3z M-170.7,1673.2l-0.3,0.6l-0.1-0.1l-0.2-0.6l-0.5-0.9v-0.1
	l-0.1,0.1l-0.2-0.2l0.3,0.7l0.4,0.9l0.2,0.2l0.1,0.3l0.3-0.2l-0.1,0.7l-0.4,0.7l-0.5,0.8l-0.1,0.5l-0.2,0.5l-0.6,0.4v0.1l-0.2,0.3
	l-0.4,0.2v0.1l-0.8,0.7l-0.4,0.1v-0.1l0.2-0.2l-0.1-0.4l0.1-0.4l-0.1-0.4l0.2-0.4v-0.4v-0.2l-0.3-0.5l0.2-0.2l0.1-0.3l-0.1-0.2
	l-0.4,0.1v-0.1l-0.2-0.1l-0.5,0.2h-0.4l-0.6,0.1l-0.7-0.4v-0.2l-0.3-0.2h-0.1l-0.2-0.3l0.1-0.2l0.1-0.5l-0.1-0.2l0.9-0.9l0.5-0.2
	v-0.2l0.3-0.5h0.3l0.4-0.2l1-0.2l0.1,0.1l-0.1,0.4h0.4l0.7,0.3l0.1-0.3l0.8,0.1l0.4-0.1l-0.1-0.7l-0.2,0.1l-0.2-0.1v0.2l-0.3-0.2
	l-0.1-0.3h-0.2l-0.2,0.1l0.1,0.2l0.2,0.1l-0.1,0.2h-0.2l-0.1-0.2l-0.2-0.2v-0.2l-0.4-0.2l-0.3-0.1v-0.1l-0.1,0.1v0.1l0.3,0.3h0.2
	l0.1,0.1l0.2,0.1v0.1l-0.1-0.1h-0.1l0.1,0.1l-0.2,0.1v0.2l-0.3-0.2h0.3l0.1-0.1l-0.1-0.2l-0.5-0.2l-0.3-0.3h-0.1l-0.1,0.2h-0.1
	l-0.1-0.1h-0.1v0.2l-0.2,0.1l-0.1,0.2v-0.1l-0.2,0.2h-0.2l-0.2,0.2h-0.2l-0.2,0.1v-0.2h-0.1l-0.1-0.1l0.1-0.2v-0.2l-0.1-0.1h0.1
	l0.1-0.1h0.7l0.1-0.3l-0.2-0.2h-0.2v-0.2l0.3,0.2v0.1h0.1l0.3-0.4l0.2-0.4l0.3-0.2l-0.2-0.2l0.2-0.1v0.1v0.2h0.2h0.3l0.2-0.1h0.2
	l0.1-0.4l-0.1-0.5h0.1l0.1,0.3l0,0l-0.2-0.2l0.2-0.2h0.1h0.1h-0.2l-0.2,0.2l-0.4-0.4l0.1-0.3l-0.3-0.1v0.1l0.1,0.2l-0.2,0.2l0.3,0.2
	l0.3,0.1v0.2h-0.2v0.2l-0.1,0.1l-0.2,0.1l-0.1-0.2l-0.3-0.3l-0.2,0.2l-0.2-0.1l-0.2-0.5l0.2-0.2l0.1-0.2l0.1-0.5l0.3-0.2l0.5,0.2
	l0.4,0.1l0.2,0.2l-0.1,0.1l-0.3-0.1l0.2,0.2l0.3,0.4l-0.1,0.1h0.2l-0.1-0.5l0.1-0.2l-0.1-0.4l0.1-0.1l-0.1-0.2l0.1-0.1v-0.1
	c1.9,1.2,3.2,3.1,3.5,5.4h-0.2l-0.1-0.2l-0.1,0.1l-0.3-0.4l-0.1,0.1l0.4,0.7l0.4-0.1v-0.2v0.2L-170.7,1673.2L-170.7,1673.2z"/>
<path id="Fill-1-Copy-5" sketch:type="MSShapeGroup" class="st41" d="M-146,1612c-6.7,0-13.3-2.5-18.4-7.6
	c-10.1-10.1-10.1-26.6,0-36.8c10.1-10.1,26.6-10.1,36.8,0c0.8,0.8,0.8,2,0,2.8s-2,0.8-2.8,0c-8.6-8.6-22.5-8.6-31.1,0
	s-8.6,22.5,0,31.1s22.5,8.6,31.1,0c0.8-0.8,2-0.8,2.8,0s0.8,2,0,2.8C-132.7,1609.5-139.3,1612-146,1612 M-146,1542
	c24.3,0,44,19.7,44,44s-19.7,44-44,44s-44-19.7-44-44S-170.3,1542-146,1542 M-146,1538c-26.5,0-48,21.5-48,48s21.5,48,48,48
	s48-21.5,48-48S-119.5,1538-146,1538"/>
<path id="Imported-Layers-4" sketch:type="MSShapeGroup" class="st42" d="M-106,1494.2c-0.2-0.3-0.6-0.3-0.8,0
	c-0.2,0.3-0.2,0.8,0,1.1l3.5,4.7l-3.5,4.7c-0.2,0.3-0.2,0.8,0,1.1c0.1,0.1,0.2,0.2,0.4,0.2c0.1,0,0.3-0.1,0.4-0.2l4-5.5v-0.6
	L-106,1494.2z"/>
<path id="Imported-Layers-4-Copy" sketch:type="MSShapeGroup" class="st42" d="M-183,1505.8c0.2,0.3,0.6,0.3,0.8,0s0.2-0.8,0-1.1
	l-3.5-4.7l3.5-4.7c0.2-0.3,0.2-0.8,0-1.1c-0.1-0.1-0.2-0.2-0.4-0.2c-0.1,0-0.3,0.1-0.4,0.2l-4,5.5v0.6L-183,1505.8z"/>
<path id="Fill-7-Copy-3" sketch:type="MSShapeGroup" class="st43" d="M-151,2068h-2v2h2v2h2v-2h2v-2h-2v-2h-2V2068z M-150.3,2077.9
	c-0.4-0.4-4.1-2.1-4.7-2.4c0-0.1-0.1-0.7-0.3-0.8s-0.8-0.4-0.8-0.4s-0.1-0.2-0.1-0.3c0-0.2,0.1-0.3,0.1-0.3c0.1-0.2,0.4-0.5,0.5-0.8
	s0.2-1.1,0.2-1.1c0-0.2,0.2-0.2,0.4-0.3c0.3-0.1,0.5-1.8,0.5-1.8c0-0.5-0.2-0.3-0.2-0.7v-1.4c0-1.7-1.5-2.7-3.2-2.7h-0.1
	c-1.7,0-3.1,0.9-3.1,2.7v1.4c0,0.4-0.2,0.2-0.2,0.7c0,0,0.2,1.6,0.5,1.8c0.1,0.1,0.4,0.2,0.4,0.3c0,0,0.1,0.8,0.2,1.1
	c0.1,0.3,0.4,0.7,0.5,0.8c0,0,0.1,0.1,0.1,0.3c0,0.1-0.1,0.3-0.1,0.3s-0.6,0.3-0.8,0.4c-0.2,0.1-0.3,0.6-0.3,0.8
	c-0.7,0.2-4.3,1.9-4.8,2.4c-0.3,0.3-0.3,2.1-0.3,2.1v0.2c0,0.4,0.3,0.8,0.7,0.8h14.5c0.4,0,0.8-0.4,0.8-0.8v-0.2
	C-150,2080-150,2078.2-150.3,2077.9z"/>
<path id="Fill-7-Copy-4" sketch:type="MSShapeGroup" class="st44" d="M-151,2027h-2v2h2v2h2v-2h2v-2h-2v-2h-2V2027z M-150.3,2036.9
	c-0.4-0.4-4.1-2.1-4.7-2.4c0-0.1-0.1-0.7-0.3-0.8c-0.2-0.1-0.8-0.4-0.8-0.4s-0.1-0.2-0.1-0.3c0-0.2,0.1-0.3,0.1-0.3
	c0.1-0.2,0.4-0.5,0.5-0.8s0.2-1.1,0.2-1.1c0-0.2,0.2-0.2,0.4-0.3c0.3-0.1,0.5-1.8,0.5-1.8c0-0.5-0.2-0.3-0.2-0.7v-1.4
	c0-1.7-1.5-2.7-3.2-2.7h-0.1c-1.7,0-3.1,0.9-3.1,2.7v1.4c0,0.4-0.2,0.2-0.2,0.7c0,0,0.2,1.6,0.5,1.8c0.1,0.1,0.4,0.2,0.4,0.3
	c0,0,0.1,0.8,0.2,1.1c0.1,0.3,0.4,0.7,0.5,0.8c0,0,0.1,0.1,0.1,0.3c0,0.1-0.1,0.3-0.1,0.3s-0.6,0.3-0.8,0.4s-0.3,0.6-0.3,0.8
	c-0.7,0.2-4.3,1.9-4.8,2.4c-0.3,0.3-0.3,2.1-0.3,2.1v0.2c0,0.4,0.3,0.8,0.7,0.8h14.5c0.4,0,0.8-0.4,0.8-0.8v-0.2
	C-150,2039-150,2037.2-150.3,2036.9z"/>
<g id="Rectangle-120-Copy-2" sketch:type="MSShapeGroup">
	<polygon class="st0" points="-152,2247 -152,2240 -154,2240 -154,2247 -161,2247 -161,2249 -154,2249 -154,2256 -152,2256 
		-152,2249 -145,2249 -145,2247 	"/>
</g>
<path id="Imported-Layers-Copy-7" sketch:type="MSShapeGroup" class="st45" d="M-152.3,2144.7c0.4-0.4,0.4-1,0-1.4s-1-0.4-1.4,0
	l-3.3,3.3l-3.3-3.3c-0.4-0.4-1-0.4-1.4,0s-0.4,1,0,1.4l3.3,3.3l-3.3,3.3c-0.4,0.4-0.4,1,0,1.4c0.2,0.2,0.4,0.3,0.7,0.3
	s0.5-0.1,0.7-0.3l3.3-3.3l3.3,3.3c0.2,0.2,0.4,0.3,0.7,0.3s0.5-0.1,0.7-0.3c0.4-0.4,0.4-1,0-1.4l-3.3-3.3L-152.3,2144.7z"/>
<g id="folder-copy" transform="translate(23.000000, 363.000000)" sketch:type="MSLayerGroup">
	<g id="Imported-Layers" sketch:type="MSShapeGroup">
		<path id="Fill-1" class="st46" d="M-136,1543.8c0,1.8-1.4,3.2-3.2,3.2h-51.6c-1.8,0-3.2-1.5-3.2-3.2V1505h58L-136,1543.8"/>
		<path id="Fill-2" class="st47" d="M-190.8,1495h19.6c0.8,0,1.7,0.3,2.3,0.9l3,3.4c0.6,0.6,2,1.7,3.9,1.7h23c1.8,0,3,1.3,3,3v1h-58
			v-6.8C-194,1496.4-192.6,1495-190.8,1495"/>
	</g>
	
		<g id="Fill-4-Copy-_x2B_-Fill-4-Copy-2-_x2B_-Rectangle-601-Copy" transform="translate(9.000000, 23.000000)" sketch:type="MSShapeGroup">
		<path id="Fill-4-Copy" class="st0" d="M-157.6,1504H-171v-2h13.4l-5.4-5.8l1.5-1.2l7.5,8l-7.5,8l-1.5-1.2L-157.6,1504z"/>
		<path id="Fill-4-Copy-2" class="st0" d="M-190.4,1502h13.4v2h-13.4l5.4,5.8l-1.5,1.2l-7.5-8l7.5-8l1.5,1.2L-190.4,1502z"/>
		<rect id="Rectangle-601-Copy" x="-175" y="1502" class="st0" width="2" height="2"/>
	</g>
</g>
<path id="Rectangle-11" sketch:type="MSShapeGroup" class="st42" d="M-128.5,1960.4l4.3,4.4l10.7-10.9l1.5,1.6l-12.2,12.4l-5.8-6
	L-128.5,1960.4z"/>
<path id="Imported-Layers-Copy-14" sketch:type="MSShapeGroup" class="st19" d="M-143.4,2411.4c0.5-0.5,0.5-1.4,0-2s-1.4-0.5-2,0
	l-4.6,4.6l-4.6-4.6c-0.5-0.5-1.4-0.5-2,0c-0.5,0.5-0.5,1.4,0,2l4.6,4.6l-4.6,4.6c-0.5,0.5-0.5,1.4,0,2c0.3,0.3,0.6,0.4,1,0.4
	s0.7-0.1,1-0.4l4.6-4.6l4.6,4.6c0.3,0.3,0.6,0.4,1,0.4s0.7-0.1,1-0.4c0.5-0.5,0.5-1.4,0-2l-4.6-4.6L-143.4,2411.4z"/>
<g id="Page-1_2_" sketch:type="MSPage">
	<path id="Fill-1-Copy-4" sketch:type="MSShapeGroup" class="st0" d="M-208.9,2604.9c2.1,2.1,6.7,2.3,8.8,0.2l4.3-4.3
		c2.4-2.4,2.3-6.3-0.2-8.8s-6.4-2.6-8.8-0.2l-3.4,3.4c1.3-0.1,2.6,0.2,3.8,0.7l1.9-1.9c1.2-1.2,3.2-1.2,4.4,0.1
		c1.2,1.2,1.3,3.2,0.1,4.4l-4.3,4.3c-1.2,1.2-3.6,0.7-5.1,0.7L-208.9,2604.9z M-203.1,2599.1c-2.2-2.2-6.7-2.3-8.8-0.2l-4.3,4.3
		c-2.4,2.4-2.3,6.3,0.2,8.8s6.4,2.6,8.8,0.2l3.4-3.4c-1.3,0.1-2.6-0.2-3.8-0.7l-1.9,1.9c-1.2,1.2-3.2,1.2-4.4-0.1s-1.3-3.2-0.1-4.4
		l4.3-4.3c0.9-0.9,2.2-0.7,5.1-0.7l0,0L-203.1,2599.1z"/>
</g>
<g id="Imported-Layers-Copy-16" transform="translate(29.000000, 980.000000)" sketch:type="MSLayerGroup">
	<path id="Fill-1_9_" sketch:type="MSShapeGroup" class="st48" d="M-157-3378c-2.2,0-4-1.8-4-4s1.8-4,4-4s4,1.8,4,4
		S-154.8-3378-157-3378L-157-3378z M-157-3388c-5,0-8.2,4.3-10,6c1.8,1.7,5,6,10,6s8.2-4.3,10-6C-148.8-3383.7-152-3388-157-3388
		L-157-3388z"/>
	<path id="Fill-2_9_" sketch:type="MSShapeGroup" class="st45" d="M-155-3382c0,1.1-0.9,2-2,2s-2-0.9-2-2s0.9-2,2-2
		S-155-3383.1-155-3382"/>
</g>
<g id="Path-_x2B_-Oval-12-Copy" transform="translate(32.000000, 1042.000000)" sketch:type="MSLayerGroup">
	<path id="Path" sketch:type="MSShapeGroup" class="st48" d="M-163-3366l2,2l4-4l2,2l-6,6l-4-4L-163-3366z"/>
	<circle id="Oval-12" sketch:type="MSShapeGroup" class="st48" cx="-160" cy="-3364" r="8">
	</circle>
</g>
<g id="Group-Copy" transform="translate(30.000000, 1009.000000)" sketch:type="MSLayerGroup">
	<path id="Rectangle-67" sketch:type="MSShapeGroup" class="st48" d="M-165-3290l9.6-9.6c0.8-0.8,2.1-0.8,2.8,0l0.2,0.2
		c0.8,0.8,0.8,2.1,0,2.8l-9.6,9.6l-5,2L-165-3290z"/>
	<path id="Path-280" sketch:type="MSShapeGroup" class="st48" d="M-157-3298l3.1,3"/>
	<path id="Path-280-Copy" sketch:type="MSShapeGroup" class="st48" d="M-164-3291l3.1,3"/>
	
		<g id="Rectangle-68-Copy-_x2B_-Rectangle-68-Copy-2-_x2B_-Rectangle-68-Copy-3" transform="translate(5.000000, 15.000000)" sketch:type="MSShapeGroup">
		<rect id="Rectangle-68-Copy" x="-163" y="-3301" width="4" height="1"/>
		<rect id="Rectangle-68-Copy-2" x="-157" y="-3301" width="2" height="1"/>
		<rect id="Rectangle-68-Copy-3" x="-167" y="-3301" width="2" height="1"/>
	</g>
</g>
<g id="Imported-Layers-Copy-15" transform="translate(33.000000, 813.000000)" sketch:type="MSLayerGroup">
	<path id="Fill-1_8_" sketch:type="MSShapeGroup" class="st49" d="M-161-3247c-2.2,0-4-1.8-4-4s1.8-4,4-4s4,1.8,4,4
		S-158.8-3247-161-3247L-161-3247z M-161-3257c-5,0-8.2,4.3-10,6c1.8,1.7,5,6,10,6s8.2-4.3,10-6C-152.8-3252.7-156-3257-161-3257
		L-161-3257z"/>
	<path id="Fill-2_8_" sketch:type="MSShapeGroup" class="st0" d="M-159-3251c0,1.1-0.9,2-2,2s-2-0.9-2-2s0.9-2,2-2
		S-159-3252.1-159-3251"/>
</g>
<g id="Path-_x2B_-Oval-12" transform="translate(35.000000, 879.000000)" sketch:type="MSLayerGroup">
	<path id="Path_1_" sketch:type="MSShapeGroup" class="st49" d="M-166-3383l2,2l4-4l2,2l-6,6l-4-4L-166-3383z"/>
	<circle id="Oval-12_1_" sketch:type="MSShapeGroup" class="st49" cx="-163" cy="-3381" r="8">
	</circle>
</g>
<g id="Group-Copy-5" transform="translate(35.000000, 845.000000)" sketch:type="MSLayerGroup">
	<path id="Rectangle-67_1_" sketch:type="MSShapeGroup" class="st49" d="M-168-3314l9.6-9.6c0.8-0.8,2.1-0.8,2.8,0l0.2,0.2
		c0.8,0.8,0.8,2.1,0,2.8l-9.6,9.6l-5,2L-168-3314z"/>
	<path id="Path-280_1_" sketch:type="MSShapeGroup" class="st49" d="M-160-3322l3.1,3"/>
	<path id="Path-280-Copy_1_" sketch:type="MSShapeGroup" class="st49" d="M-167-3315l3.1,3"/>
	
		<g id="Rectangle-68-Copy-_x2B_-Rectangle-68-Copy-2-_x2B_-Rectangle-68-Copy-3_1_" transform="translate(5.000000, 15.000000)" sketch:type="MSShapeGroup">
		<rect id="Rectangle-68-Copy_1_" x="-166" y="-3325" class="st0" width="4" height="1"/>
		<rect id="Rectangle-68-Copy-2_1_" x="-160" y="-3325" class="st0" width="2" height="1"/>
		<rect id="Rectangle-68-Copy-3_1_" x="-170" y="-3325" class="st0" width="2" height="1"/>
	</g>
</g>
<g id="Page-1_3_" sketch:type="MSPage">
	<path id="_x3F_-copy" sketch:type="MSShapeGroup" class="st0" d="M-146,2513.1h1.8c-0.2-2.2,2.5-3,2.5-5.2c0-1.9-1.3-2.9-3.2-2.9
		c-1.3,0-2.3,0.6-3,1.5l1.1,1c0.5-0.6,1.1-0.9,1.8-0.9c0.9,0,1.4,0.6,1.4,1.4C-143.7,2509.6-146.3,2510.6-146,2513.1L-146,2513.1z
		 M-146.4,2515.7c0,0.8,0.6,1.4,1.3,1.4s1.3-0.6,1.3-1.4c0-0.8-0.6-1.4-1.3-1.4C-145.8,2514.3-146.4,2514.9-146.4,2515.7
		L-146.4,2515.7z"/>
</g>
<g id="Page-1_4_" sketch:type="MSPage">
	<path id="Rectangle-29-Copy-2" sketch:type="MSShapeGroup" class="st25" d="M-150.2,2338.8c-1.6-1.6-4.6-2.8-6.8-2.8l0,0h24l0,0
		c-2.2,0-5.3,1.3-6.8,2.8l-3.8,3.8c-0.8,0.8-2,0.8-2.8,0L-150.2,2338.8z"/>
</g>
<g class="st50">
	<path class="st51" d="M-215,2669.1c0-2.1,1.7-3.7,3.8-3.7h8.4c2.1,0,3.8,1.7,3.8,3.8v5.8c0,2.1-1.7,3.8-3.8,3.8h-8.4
		c-2.1-0.2-3.8-1.8-3.8-3.9V2669.1z"/>
	<path class="st51" d="M-206,2672.2c-0.1,0.1-0.2,0.2-0.1,0.3l0.3,1.7c0.1,0.7-0.3,1.2-1,1.2h-0.4c-0.7,0-1.1-0.5-1-1.2l0.3-1.5
		c0-0.2-0.1-0.3-0.2-0.5c-0.5-0.4-0.7-1-0.5-1.7c0.1-0.6,0.6-1,1.2-1.2c1.1-0.3,2.1,0.6,2.1,1.6
		C-205.3,2671.5-205.6,2671.9-206,2672.2z"/>
	<path class="st51" d="M-212,2665.5v-0.9c0,0,0-5.6,5-5.6s5,5,5,5v1.8"/>
</g>
<g class="st50">
	<path class="st51" d="M-199.4,2716c-0.5,1.5-1.9,2.7-3.6,2.7h-8.4c-2.1,0-3.8-1.7-3.8-3.8v-5.8c0-2.1,1.7-3.8,3.8-3.8h8.4
		c1,0,2,0.4,2.7,1.1"/>
	<path class="st51" d="M-206.2,2712.2c-0.1,0.1-0.2,0.2-0.1,0.3l0.3,1.7c0.1,0.7-0.3,1.2-1,1.2h-0.3c-0.7,0-1.1-0.5-1-1.2l0.3-1.5
		c0-0.2-0.1-0.3-0.2-0.5c-0.5-0.4-0.7-1-0.5-1.7c0.1-0.6,0.6-1,1.2-1.2c0.8-0.2,1.6,0.2,1.9,0.8"/>
	<path class="st51" d="M-211.9,2702.6c0.5-1.6,1.7-3.6,4.7-3.6c5,0,5,5,5,5v1.8"/>
	<path class="st51" d="M-208.5,2712.2h5.2c0.4,2.2,2.4,3.8,4.7,3.8c2.6,0,4.8-2.1,4.8-4.7c0-2.6-2.1-4.8-4.8-4.8
		c-2.3,0-4.2,1.6-4.6,3.7h-5"/>
	<circle class="st51" cx="-197.2" cy="2711.5" r="1.3"/>
</g>
<path class="st52" d="M-200.7,2823.7c-2.3,0-4.2,1.8-4.6,3.8h-12.2v2h2v2h-2v3h2v-1h2v1h2v-3h-2v-1.8v-0.2h8.1
	c0.4,2,2.4,3.7,4.7,3.7c2.6,0,4.8-2.1,4.8-4.8S-198.1,2823.7-200.7,2823.7z"/>
<circle class="st52" cx="-199.2" cy="2828.5" r="1.3"/>
<g>
	<path class="st53" d="M-215,2749.1c0-2.1,1.7-3.8,3.8-3.8h8.4c2.1,0,3.8,1.7,3.8,3.8v5.8c0,2.1-1.7,3.8-3.8,3.8h-8.4
		c-2.1,0-3.8-1.7-3.8-3.8V2749.1z"/>
	<path class="st53" d="M-206,2752.2c-0.1,0.1-0.2,0.2-0.1,0.3l0.3,1.7c0.1,0.7-0.3,1.2-1,1.2h-0.3c-0.7,0-1.1-0.5-1-1.2l0.3-1.5
		c0-0.2-0.1-0.3-0.2-0.5c-0.5-0.4-0.7-1-0.5-1.7c0.1-0.6,0.6-1,1.2-1.2c1.1-0.3,2.1,0.6,2.1,1.6
		C-205.3,2751.5-205.6,2751.9-206,2752.2z"/>
	<path class="st53" d="M-212,2745.5v-0.9c0,0,0-5.6,5-5.6s5,5,5,5v1.8"/>
</g>
<g>
	<path class="st53" d="M-199.2,2796c-0.5,1.5-1.9,2.7-3.6,2.7h-8.4c-2.1,0-3.8-1.7-3.8-3.8v-5.8c0-2.1,1.7-3.8,3.8-3.8h8.4
		c1,0,2,0.4,2.7,1.1"/>
	<path class="st53" d="M-206,2792.2c-0.1,0.1-0.2,0.2-0.1,0.3l0.3,1.7c0.1,0.7-0.3,1.2-1,1.2h-0.3c-0.7,0-1.1-0.5-1-1.2l0.3-1.5
		c0-0.2-0.1-0.3-0.2-0.5c-0.5-0.4-0.7-1-0.5-1.7c0.1-0.6,0.6-1,1.2-1.2c0.8-0.2,1.6,0.2,1.9,0.8"/>
	<path class="st53" d="M-211.7,2782.6c0.5-1.6,1.7-3.6,4.6-3.6c5,0,5,5,5,5v1.8"/>
	<path class="st53" d="M-208.3,2792.2h5.2c0.4,2.2,2.4,3.8,4.7,3.8c2.6,0,4.8-2.1,4.8-4.7c0-2.6-2.1-4.8-4.8-4.8
		c-2.3,0-4.2,1.6-4.6,3.7h-5"/>
	<circle class="st53" cx="-197" cy="2791.5" r="1.3"/>
</g>
<path class="st53" d="M-200.7,2863.7c-2.3,0-4.2,1.8-4.6,3.8h-12.2v2h2v2h-2v3h2v-1h2v1h2v-3h-2v-1.8v-0.2h8.1
	c0.4,2,2.4,3.7,4.7,3.7c2.6,0,4.8-2.1,4.8-4.8S-198.1,2863.7-200.7,2863.7z"/>
<circle class="st53" cx="-199.2" cy="2868.5" r="1.3"/>
<path id="Imported-Layers-Copy-7_1_" sketch:type="MSShapeGroup" class="st0" d="M-152.3,2194.7c0.4-0.4,0.4-1,0-1.4s-1-0.4-1.4,0
	l-3.3,3.3l-3.3-3.3c-0.4-0.4-1-0.4-1.4,0s-0.4,1,0,1.4l3.3,3.3l-3.3,3.3c-0.4,0.4-0.4,1,0,1.4c0.2,0.2,0.4,0.3,0.7,0.3
	s0.5-0.1,0.7-0.3l3.3-3.3l3.3,3.3c0.2,0.2,0.4,0.3,0.7,0.3s0.5-0.1,0.7-0.3c0.4-0.4,0.4-1,0-1.4l-3.3-3.3L-152.3,2194.7z"/>
</svg>
