<?xml version="1.0" encoding="utf-8"?>
<!-- Generator: Adobe Illustrator 16.0.0, SVG Export Plug-In . SVG Version: 6.00 Build 0)  -->
<!DOCTYPE svg PUBLIC "-//W3C//DTD SVG 1.1//EN" "http://www.w3.org/Graphics/SVG/1.1/DTD/svg11.dtd">
<svg version="1.1" id="Layer_1" xmlns="http://www.w3.org/2000/svg" xmlns:xlink="http://www.w3.org/1999/xlink" x="0px" y="0px"
	 width="121px" height="1000px" viewBox="0 0 121 1000" enable-background="new 0 0 121 1000" xml:space="preserve">
<path fill-rule="evenodd" clip-rule="evenodd" fill="#010101" d="M97.5,362.55L95.09,361l-1.32,2.54l-2.859-0.13l0.13,2.859
	l-2.54,1.32l1.55,2.41l-1.55,2.41l2.54,1.32l-0.13,2.859l2.859-0.13l1.32,2.54l2.41-1.55l2.41,1.55l1.32-2.54l2.859,0.13
	l-0.13-2.859l2.54-1.32l-1.55-2.41l1.55-2.41l-2.54-1.32l0.13-2.859l-2.859,0.13L99.91,361L97.5,362.55z M92.5,370l1.74-1.779
	l2.17,2.219l4.35-4.439l1.74,1.779L96.41,374L92.5,370z"/>
<g>
	<polygon fill="#010101" points="91.5,410 89.5,415 94.5,413 	"/>
	
		<rect x="95.879" y="400.843" transform="matrix(0.7071 0.7071 -0.7071 0.7071 316.1425 49.7646)" fill="#010101" width="4.243" height="11.314"/>
	<polygon fill-rule="evenodd" clip-rule="evenodd" fill="#010101" points="96.5,414 105.5,415 93.5,415 	"/>
</g>
<path fill="#FFFFFF" d="M103.279,333.68c-0.309-0.32-3.049-1.59-3.569-1.76c0-0.109-0.06-0.5-0.2-0.57c-0.14-0.05-0.6-0.27-0.6-0.27
	c0-0.03-0.051-0.13-0.061-0.23c0-0.109,0.061-0.22,0.061-0.22c0.061-0.12,0.29-0.409,0.35-0.63c0.061-0.221,0.131-0.79,0.131-0.79
	c0-0.12,0.18-0.17,0.289-0.229c0.19-0.09,0.36-1.301,0.36-1.301c0-0.4-0.17-0.229-0.17-0.51v-1.05c0-1.3-1.04-2.12-2.341-2.12
	h-0.059c-1.301,0-2.341,0.82-2.341,2.12v1.05c0,0.28-0.17,0.109-0.17,0.51c0,0,0.17,1.211,0.36,1.301
	c0.109,0.06,0.289,0.109,0.289,0.229c0,0,0.07,0.569,0.131,0.79c0.06,0.221,0.289,0.51,0.35,0.63c0,0,0.061,0.11,0.061,0.22
	c-0.01,0.101-0.061,0.2-0.061,0.23c0,0-0.46,0.22-0.6,0.27c-0.141,0.07-0.2,0.461-0.2,0.57c-0.521,0.17-3.261,1.439-3.569,1.76
	c-0.221,0.23-0.221,1.58-0.221,1.58v0.17c0,0.311,0.26,0.57,0.57,0.57h10.859c0.311,0,0.57-0.26,0.57-0.57v-0.17
	C103.5,335.26,103.5,333.91,103.279,333.68z"/>
<g>
	<path fill-rule="evenodd" clip-rule="evenodd" fill="#010101" d="M97.5,294c-2.21,0-4-1.79-4-4s1.79-4,4-4s4,1.79,4,4
		S99.71,294,97.5,294z M97.5,284c-5,0-8.18,4.29-10,6c1.82,1.71,5,6,10,6s8.18-4.29,10-6C105.68,288.29,102.5,284,97.5,284z"/>
	<path fill="#010101" d="M99.5,290c0,1.1-0.9,2-2,2s-2-0.9-2-2s0.9-2,2-2S99.5,288.9,99.5,290z"/>
</g>
<path fill-rule="evenodd" clip-rule="evenodd" fill="#FFFFFF" d="M97.5,182.55L95.09,181l-1.32,2.54l-2.859-0.13l0.13,2.86
	l-2.54,1.32l1.55,2.41l-1.55,2.41l2.54,1.32l-0.13,2.86l2.859-0.13l1.32,2.54l2.41-1.55l2.41,1.55l1.32-2.54l2.859,0.13l-0.13-2.86
	l2.54-1.32l-1.55-2.41l1.55-2.41l-2.54-1.32l0.13-2.86l-2.859,0.13L99.91,181L97.5,182.55z M92.5,190l1.74-1.78l2.17,2.22l4.35-4.44
	l1.74,1.78L96.41,194L92.5,190z"/>
<g>
	<polygon fill="#FFFFFF" points="91.5,224 89.5,229 94.5,227 	"/>
	
		<rect x="95.879" y="214.843" transform="matrix(0.7071 0.7071 -0.7071 0.7071 184.6206 -4.7135)" fill="#FFFFFF" width="4.243" height="11.314"/>
	<polygon fill-rule="evenodd" clip-rule="evenodd" fill="#FFFFFF" points="96.5,228 105.5,229 93.5,229 	"/>
</g>
<g>
	<path fill-rule="evenodd" clip-rule="evenodd" fill="#FFFFFF" d="M97.5,258c-2.21,0-4-1.79-4-4s1.79-4,4-4s4,1.79,4,4
		S99.71,258,97.5,258z M97.5,248c-5,0-8.18,4.29-10,6c1.82,1.71,5,6,10,6s8.18-4.29,10-6C105.68,252.29,102.5,248,97.5,248z"/>
	<path fill="#FFFFFF" d="M99.5,254c0,1.1-0.9,2-2,2s-2-0.9-2-2s0.9-2,2-2S99.5,252.9,99.5,254z"/>
</g>
<g>
	<path fill="#010101" d="M102.5,148v1c0,1.1-0.9,2-2,2h-6c-1.1,0-2-0.9-2-2v-6c0-1.1,0.9-2,2-2h1v-2h-1c-2.2,0-4,1.8-4,4v6
		c0,2.2,1.8,4,4,4h6c2.2,0,4-1.8,4-4v-1H102.5z"/>
	<polygon fill="#010101" points="106.5,137 105.5,137 100,141.5 97.5,139 97.5,146 104.5,146 102,143.5 106.5,138 	"/>
</g>
<g opacity="0.05">
	<path fill-rule="evenodd" clip-rule="evenodd" fill="#010101" d="M71.17,40.3c0-0.56-0.311-2.47-1.04-2.81
		c-0.7-0.26-2.989-1.36-2.989-1.36c0-0.17-0.261-0.65-0.301-1.15c0-0.56,0.301-1.11,0.301-1.11c0.31-0.6,1.43-2,1.729-3.1
		c0.31-1.11,0.649-3.91,0.649-3.91c0-0.601,0.91-0.86,1.48-1.15c0.99-0.47,2.13-6.47,2.13-6.47c0-1.95-0.51-1.11-0.51-2.51v-5.22
		C72.62,5.08,66.71,1,60.13,1h-0.26c-6.58,0-12.49,4.08-12.49,10.51v5.22c0,1.4-0.51,0.56-0.51,2.51c0,0,0.98,6,1.98,6.47
		c0.56,0.29,1.55,0.55,1.55,1.15c0,0,0.38,2.8,0.69,3.91c0.3,1.1,1.44,2.5,1.75,3.1c0,0,0.31,0.55,0.31,1.11
		c-0.04,0.5-0.3,0.98-0.3,1.15c0,0-2.29,1.1-2.98,1.36c-0.74,0.34-1.04,2.25-1.04,2.81c-2.6,0.84-16.44,7.14-18.01,8.71
		c-1.12,1.15-1.12,7.87-1.12,7.87v0.85c0,1.53,1.62,3.27,3.18,3.27h54.24c1.56,0,3.18-1.74,3.18-3.27v-0.85c0,0,0-6.72-1.12-7.87
		C87.609,47.44,73.76,41.14,71.17,40.3z M109.66,46.93c-1.17-1.18-11.561-5.9-13.51-6.54c0-0.41-0.23-1.85-0.78-2.1
		c-0.521-0.2-2.24-1.02-2.24-1.02c0-0.13-0.19-0.49-0.22-0.86c0-0.42,0.22-0.83,0.22-0.83c0.229-0.45,1.08-1.5,1.3-2.33
		c0.23-0.83,0.49-2.94,0.49-2.94c0-0.45,0.68-0.63,1.1-0.86c0.74-0.35,1.92-4.85,1.92-4.85c0-1.46-0.06-0.83-0.06-1.88V18.8
		c0-4.81-5.069-7.88-10.01-7.88h-0.19c-4.939,0-10.01,3.07-10.01,7.88v3.92c0,1.05-0.061,0.42-0.061,1.88c0,0,0.9,4.5,1.641,4.85
		c0.42,0.23,1.25,0.41,1.25,0.86c0,0,0.32,2.11,0.55,2.94s1.101,1.88,1.33,2.33c0,0,0.25,0.41,0.25,0.83
		c-0.03,0.37-0.22,0.73-0.22,0.86c0,0-1.71,0.82-2.23,1.02c-0.56,0.25-0.779,1.69-0.779,2.1c-0.2,0.07-0.51,0.18-0.86,0.33
		c4.989,2.24,11.11,5.21,12.44,6.56c0.439,0.45,1.609,1.57,1.75,8.14h14.959c1.17,0,2.811-0.8,2.811-1.95v-0.64
		C110.5,52.83,110.5,47.79,109.66,46.93z M40.6,40.39c0-0.41-0.23-1.85-0.78-2.1c-0.52-0.2-2.24-1.02-2.24-1.02
		c0-0.13-0.2-0.49-0.22-0.86c0-0.42,0.22-0.83,0.22-0.83c0.23-0.45,1.08-1.5,1.3-2.33c0.23-0.83,0.49-2.94,0.49-2.94
		c0-0.45,0.68-0.63,1.1-0.86c0.75-0.35,1.92-4.85,1.92-4.85c0-1.46-0.07-0.83-0.07-1.88V18.8c0-4.81-5.06-7.88-10-7.88h-0.19
		c-4.94,0-10.01,3.07-10.01,7.88v3.92c0,1.05-0.06,0.42-0.06,1.88c0,0,0.9,4.5,1.64,4.85c0.42,0.23,1.25,0.41,1.25,0.86
		c0,0,0.32,2.11,0.55,2.94s1.1,1.88,1.33,2.33c0,0,0.25,0.41,0.25,0.83c-0.03,0.37-0.22,0.73-0.22,0.86c0,0-1.71,0.82-2.23,1.02
		c-0.56,0.25-0.78,1.69-0.78,2.1c-1.95,0.64-12.34,5.36-13.51,6.54c-0.84,0.86-0.84,5.9-0.84,5.9v0.64c0,1.15,1.64,1.95,2.81,1.95
		h14.96c0.14-6.57,1.31-7.69,1.73-8.13c1.35-1.35,7.47-4.33,12.46-6.57C41.11,40.58,40.8,40.46,40.6,40.39z"/>
</g>
<path opacity="0.3" fill="#010101" d="M104.279,103.68c-0.309-0.32-3.049-1.59-3.569-1.76c0-0.11-0.06-0.5-0.2-0.57
	c-0.14-0.05-0.6-0.27-0.6-0.27c0-0.03-0.051-0.13-0.061-0.23c0-0.11,0.061-0.22,0.061-0.22c0.061-0.12,0.29-0.41,0.35-0.63
	c0.061-0.22,0.131-0.79,0.131-0.79c0-0.12,0.18-0.17,0.289-0.23c0.19-0.09,0.36-1.3,0.36-1.3c0-0.4-0.17-0.23-0.17-0.51v-1.05
	c0-1.3-1.04-2.12-2.341-2.12h-0.059c-1.301,0-2.341,0.82-2.341,2.12v1.05c0,0.28-0.17,0.11-0.17,0.51c0,0,0.17,1.21,0.36,1.3
	c0.109,0.06,0.289,0.11,0.289,0.23c0,0,0.07,0.57,0.131,0.79c0.06,0.22,0.289,0.51,0.35,0.63c0,0,0.061,0.11,0.061,0.22
	c-0.01,0.1-0.061,0.2-0.061,0.23c0,0-0.46,0.22-0.6,0.27c-0.141,0.07-0.2,0.46-0.2,0.57c-0.521,0.17-3.261,1.44-3.569,1.76
	c-0.221,0.23-0.221,1.58-0.221,1.58v0.17c0,0.31,0.26,0.57,0.57,0.57h10.859c0.311,0,0.57-0.26,0.57-0.57v-0.17
	C104.5,105.26,104.5,103.91,104.279,103.68z"/>
<path fill-rule="evenodd" clip-rule="evenodd" fill="#010101" d="M98.59,472.834c-0.39,0.392-1.029,0.392-1.42,0
	c-0.391-0.391-0.391-1.031,0-1.422L98.58,470l-1.41-1.412c-0.391-0.391-0.391-1.032,0-1.422s1.03-0.391,1.42,0l1.41,1.413
	l1.41-1.413c0.39-0.391,1.029-0.391,1.42,0s0.391,1.032,0,1.422L101.42,470l1.41,1.422c0.391,0.381,0.391,1.021,0,1.412
	c-0.391,0.392-1.03,0.392-1.42,0l-1.41-1.412L98.59,472.834z"/>
</svg>
