<?xml version="1.0" encoding="utf-8"?>
<!-- Generator: Adobe Illustrator 16.0.0, SVG Export Plug-In . SVG Version: 6.00 Build 0)  -->
<!DOCTYPE svg PUBLIC "-//W3C//DTD SVG 1.1//EN" "http://www.w3.org/Graphics/SVG/1.1/DTD/svg11.dtd">
<svg version="1.1" id="Layer_1" xmlns:sketch="http://www.bohemiancoding.com/sketch/ns"
	 xmlns="http://www.w3.org/2000/svg" xmlns:xlink="http://www.w3.org/1999/xlink" x="0px" y="0px" width="160px" height="6175px"
	 viewBox="0 0 160 6175" enable-background="new 0 0 160 6175" xml:space="preserve">
<title>Slice 1</title>
<desc>Created with Sketch.</desc>
<path id="Shape_3_" sketch:type="MSShapeGroup" fill="#FFFFFF" d="M103.79,333.68c-0.31-0.315-3.049-1.59-3.567-1.76
	c0-0.109-0.062-0.5-0.199-0.57c-0.142-0.05-0.602-0.27-0.602-0.27c0-0.03-0.052-0.13-0.062-0.23c0-0.107,0.062-0.22,0.062-0.22
	c0.062-0.12,0.29-0.409,0.352-0.63c0.062-0.221,0.131-0.79,0.131-0.79c0-0.12,0.188-0.17,0.289-0.229
	c0.188-0.09,0.358-1.301,0.358-1.301c0-0.396-0.17-0.229-0.17-0.51v-1.05c0-1.3-1.04-2.12-2.342-2.12h-0.06
	c-1.312,0-2.354,0.82-2.354,2.12v1.05c0,0.28-0.17,0.109-0.17,0.51c0,0,0.17,1.211,0.354,1.301c0.104,0.062,0.287,0.109,0.287,0.229
	c0,0,0.062,0.569,0.133,0.79c0.062,0.221,0.289,0.51,0.354,0.63c0,0,0.062,0.11,0.062,0.22c-0.02,0.103-0.062,0.2-0.062,0.23
	c0,0-0.46,0.22-0.604,0.27c-0.146,0.07-0.189,0.461-0.189,0.57c-0.521,0.17-3.271,1.439-3.562,1.76C92,333.91,92,335.26,92,335.26
	v0.17c0,0.312,0.262,0.57,0.562,0.57h10.854c0.312,0,0.562-0.26,0.562-0.57v-0.17C104.012,335.26,104.012,333.91,103.79,333.68
	L103.79,333.68L103.79,333.68z"/>
<g id="Group_4_" transform="translate(90.000000, 136.000000)" sketch:type="MSShapeGroup">
	<path id="Shape_11_" fill="#090909" d="M12,12v1c0,1.1-0.9,2-2,2H4c-1.1,0-2-0.9-2-2V7c0-1.1,0.9-2,2-2h1V3H4C1.8,3,0,4.8,0,7v6
		c0,2.2,1.8,4,4,4h6c2.2,0,4-1.8,4-4v-1H12L12,12z"/>
	<path id="Shape_12_" fill="#090909" d="M16,1h-1L9.5,5.5L7,3v7h7l-2.5-2.5L16,2V1L16,1z"/>
</g>
<g id="Group_5_" transform="translate(30.000000, 0.000000)" sketch:type="MSShapeGroup" opacity="0.05">
	<path id="Shape_13_" fill="#090909" d="M62.167,40.3c0-0.56-0.312-2.47-1.04-2.81c-0.7-0.26-2.988-1.36-2.988-1.36
		c0-0.17-0.262-0.65-0.302-1.15c0-0.56,0.302-1.11,0.302-1.11c0.312-0.6,1.43-2,1.729-3.1c0.31-1.11,0.647-3.91,0.647-3.91
		c0-0.604,0.902-0.86,1.479-1.15c0.986-0.47,2.13-6.47,2.13-6.47c0-1.95-0.511-1.11-0.511-2.51v-5.22C63.617,5.08,57.707,1,51.127,1
		h-0.26c-6.58,0-12.49,4.08-12.49,10.51v5.22c0,1.4-0.51,0.56-0.51,2.51c0,0,0.979,6,1.979,6.47c0.561,0.29,1.551,0.55,1.551,1.15
		c0,0,0.379,2.8,0.689,3.91c0.301,1.1,1.439,2.5,1.75,3.1c0,0,0.311,0.55,0.311,1.11c-0.041,0.5-0.301,0.98-0.301,1.15
		c0,0-2.289,1.1-2.979,1.36c-0.74,0.34-1.04,2.25-1.04,2.81c-2.6,0.84-16.439,7.14-18.01,8.71c-1.12,1.15-1.12,7.87-1.12,7.87v0.85
		c0,1.53,1.62,3.27,3.18,3.27h54.24c1.56,0,3.18-1.74,3.18-3.27v-0.85c0,0,0-6.72-1.12-7.87C78.605,47.44,64.757,41.14,62.167,40.3
		L62.167,40.3L62.167,40.3z M100.657,46.93c-1.171-1.18-11.562-5.896-13.511-6.54c0-0.41-0.229-1.85-0.779-2.1
		c-0.521-0.2-2.24-1.02-2.24-1.02c0-0.13-0.189-0.49-0.22-0.86c0-0.42,0.22-0.83,0.22-0.83c0.229-0.45,1.08-1.5,1.3-2.33
		c0.23-0.83,0.49-2.94,0.49-2.94c0-0.45,0.681-0.63,1.101-0.86c0.739-0.35,1.92-4.85,1.92-4.85c0-1.46-0.061-0.83-0.061-1.88V18.8
		c0-4.81-5.068-7.88-10.01-7.88h-0.19c-4.938,0-10.01,3.07-10.01,7.88v3.92c0,1.05-0.062,0.42-0.062,1.88c0,0,0.896,4.5,1.642,4.85
		c0.42,0.229,1.25,0.41,1.25,0.86c0,0,0.319,2.11,0.55,2.94s1.102,1.88,1.33,2.33c0,0,0.25,0.41,0.25,0.83
		c-0.029,0.37-0.22,0.729-0.22,0.86c0,0-1.71,0.82-2.23,1.02c-0.56,0.25-0.778,1.69-0.778,2.1c-0.188,0.07-0.51,0.185-0.854,0.33
		c4.98,2.24,11.104,5.21,12.438,6.562c0.438,0.45,1.606,1.57,1.75,8.14h14.959c1.17,0,2.812-0.8,2.812-1.95v-0.64
		C101.497,52.83,101.497,47.79,100.657,46.93L100.657,46.93L100.657,46.93z M31.597,40.39c0-0.41-0.229-1.85-0.779-2.1
		c-0.521-0.2-2.24-1.02-2.24-1.02c0-0.13-0.2-0.49-0.221-0.86c0-0.42,0.221-0.83,0.221-0.83c0.23-0.45,1.08-1.5,1.3-2.33
		c0.229-0.83,0.49-2.94,0.49-2.94c0-0.45,0.68-0.63,1.101-0.86c0.75-0.35,1.92-4.85,1.92-4.85c0-1.46-0.07-0.83-0.07-1.88V18.8
		c0-4.81-5.061-7.88-10-7.88h-0.19c-4.94,0-10.01,3.07-10.01,7.88v3.92c0,1.05-0.06,0.42-0.06,1.88c0,0,0.9,4.5,1.64,4.85
		c0.42,0.229,1.25,0.41,1.25,0.86c0,0,0.32,2.11,0.55,2.94s1.1,1.88,1.33,2.33c0,0,0.25,0.41,0.25,0.83
		c-0.03,0.37-0.22,0.729-0.22,0.86c0,0-1.71,0.82-2.23,1.02c-0.56,0.25-0.78,1.69-0.78,2.1c-1.95,0.645-12.34,5.36-13.51,6.54
		c-0.842,0.86-0.842,5.9-0.842,5.9v0.64c0,1.15,1.64,1.95,2.81,1.95h14.96c0.14-6.57,1.31-7.69,1.73-8.13
		c1.35-1.35,7.471-4.33,12.46-6.57C32.106,40.58,31.797,40.46,31.597,40.39L31.597,40.39L31.597,40.39z"/>
</g>
<path id="Shape_14_" sketch:type="MSShapeGroup" opacity="0.3" fill="#090909" enable-background="new    " d="M103.79,103.68
	c-0.31-0.317-3.049-1.59-3.569-1.76c0-0.108-0.06-0.5-0.199-0.57c-0.141-0.05-0.601-0.27-0.601-0.27c0-0.03-0.051-0.13-0.062-0.23
	c0-0.11,0.062-0.22,0.062-0.22c0.062-0.12,0.29-0.41,0.351-0.63c0.062-0.22,0.131-0.79,0.131-0.79c0-0.12,0.188-0.17,0.289-0.229
	c0.189-0.09,0.359-1.3,0.359-1.3c0-0.397-0.17-0.229-0.17-0.51v-1.05c0-1.3-1.04-2.12-2.341-2.12h-0.06
	c-1.312,0-2.354,0.82-2.354,2.12v1.05c0,0.28-0.17,0.11-0.17,0.51c0,0,0.17,1.21,0.354,1.3c0.104,0.06,0.289,0.11,0.289,0.229
	c0,0,0.062,0.57,0.133,0.79c0.062,0.22,0.289,0.51,0.354,0.63c0,0,0.062,0.11,0.062,0.22c-0.021,0.1-0.062,0.2-0.062,0.23
	c0,0-0.46,0.22-0.604,0.27c-0.146,0.07-0.19,0.46-0.19,0.57c-0.521,0.17-3.271,1.44-3.562,1.76c-0.229,0.23-0.229,1.58-0.229,1.58
	v0.17c0,0.312,0.261,0.57,0.562,0.57h10.858c0.312,0,0.567-0.26,0.567-0.57v-0.17C104.012,105.26,104.012,103.91,103.79,103.68
	L103.79,103.68L103.79,103.68z"/>
<path id="Shape_15_" sketch:type="MSShapeGroup" fill="#090909" d="M98.59,472.834c-0.39,0.393-1.029,0.393-1.42,0
	c-0.391-0.391-0.391-1.031,0-1.422L98.58,470l-1.41-1.412c-0.391-0.391-0.391-1.031,0-1.422s1.03-0.391,1.42,0l1.41,1.413
	l1.41-1.413c0.39-0.391,1.029-0.391,1.42,0s0.391,1.032,0,1.422L101.42,470l1.41,1.422c0.391,0.381,0.391,1.021,0,1.412
	c-0.391,0.393-1.03,0.393-1.42,0l-1.41-1.412L98.59,472.834L98.59,472.834z"/>
<g id="Group_6_" transform="translate(74.000000, 537.000000)" sketch:type="MSShapeGroup" opacity="0.3">
	<path id="Shape_16_" fill="#090909" d="M7,7l5.82-5.82C12.57,1.076,12.29,1,12,1H2C1.71,1,1.43,1.07,1.18,1.18L7,7L7,7z"/>
	<path id="Shape_17_" fill="#090909" d="M7,9L0.18,2.18C0.07,2.43,0,2.71,0,3v6c0,1.1,0.9,2,2,2h10c1.1,0,2-0.9,2-2V3
		c0-0.29-0.07-0.57-0.18-0.82L7,9L7,9z"/>
</g>
<g id="Group_7_" transform="translate(66.000000, 576.000000)" sketch:type="MSShapeGroup" opacity="0.3">
	<path id="Shape_18_" fill="#090909" d="M14,16L0.72,2.721C0.27,3.37,0,4.15,0,5v12c0,2.2,1.8,4,4,4h20c2.2,0,4-1.8,4-4V5
		c0-0.85-0.27-1.63-0.721-2.279L14,16L14,16z"/>
	<path id="Shape_19_" fill="#090909" d="M14,14L26.279,1.721C25.63,1.27,24.85,1,24,1H4C3.15,1,2.37,1.27,1.72,1.721L14,14L14,14z"
		/>
</g>
<g id="Group_8_" transform="translate(72.000000, 677.000000)" sketch:type="MSShapeGroup">
	<path id="Shape_20_" fill="#FFFFFF" d="M12.708,14.82c-0.7-0.48-2.021-1.646-2.021-2.32c0-0.79,0.229-1.189,1.471-2.12
		c1.27-0.96,2.16-2.31,2.16-3.88c0-1.87-0.854-3.7-2.471-4.3h2.43L15.998,1h-7.67c-3.44,0-6.67,2.52-6.67,5.45
		c0,2.989,2.34,5.396,5.84,5.396c0.24,0,0.48-0.01,0.71-0.02c-0.23,0.42-0.39,0.891-0.39,1.391c0,0.829,0.459,1.5,1.04,2.049
		l-1.312,0.021c-4.26,0-7.54,2.631-7.54,5.354c0,2.688,3.59,4.358,7.85,4.358c4.86,0,7.542-2.67,7.542-5.354
		C15.389,17.49,14.729,16.2,12.708,14.82L12.708,14.82L12.708,14.82z M8.607,11.09c-1.979-0.061-3.854-2.14-4.199-4.66
		c-0.34-2.51,0.99-4.438,2.96-4.38c1.979,0.062,3.86,2.08,4.2,4.591C11.908,9.16,10.578,11.15,8.607,11.09L8.607,11.09L8.607,11.09z
		 M7.838,23.811c-2.95,0-5.07-1.801-5.07-3.971c0-2.13,2.63-3.896,5.58-3.869c0.679,0.017,1.32,0.119,1.9,0.299
		c1.6,1.08,2.75,1.688,3.07,2.91c0.06,0.25,0.1,0.517,0.1,0.771C13.418,22.12,11.969,23.811,7.838,23.811L7.838,23.811L7.838,23.811
		z"/>
	<path id="Shape_21_" fill="#FFFFFF" d="M12.708,14.82c-0.7-0.48-2.021-1.646-2.021-2.32c0-0.79,0.229-1.189,1.471-2.12
		c1.27-0.96,2.16-2.31,2.16-3.88c0-1.87-0.854-3.7-2.471-4.3h2.43L15.998,1h-7.67c-3.44,0-6.67,2.52-6.67,5.45
		c0,2.989,2.34,5.396,5.84,5.396c0.24,0,0.48-0.01,0.71-0.02c-0.23,0.42-0.39,0.891-0.39,1.391c0,0.829,0.459,1.5,1.04,2.049
		l-1.312,0.021c-4.26,0-7.54,2.631-7.54,5.354c0,2.688,3.59,4.358,7.85,4.358c4.86,0,7.542-2.67,7.542-5.354
		C15.389,17.49,14.729,16.2,12.708,14.82L12.708,14.82L12.708,14.82z M8.607,11.09c-1.979-0.061-3.854-2.14-4.199-4.66
		c-0.34-2.51,0.99-4.438,2.96-4.38c1.979,0.062,3.86,2.08,4.2,4.591C11.908,9.16,10.578,11.15,8.607,11.09L8.607,11.09L8.607,11.09z
		 M7.838,23.811c-2.95,0-5.07-1.801-5.07-3.971c0-2.13,2.63-3.896,5.58-3.869c0.679,0.017,1.32,0.119,1.9,0.299
		c1.6,1.08,2.75,1.688,3.07,2.91c0.06,0.25,0.1,0.517,0.1,0.771C13.418,22.12,11.969,23.811,7.838,23.811L7.838,23.811L7.838,23.811
		z"/>
</g>
<g id="Group_9_" transform="translate(76.000000, 630.000000)" sketch:type="MSShapeGroup">
	<path id="Shape_22_" fill="#FFFFFF" d="M6.35,8.906c-0.34-0.24-1.01-0.82-1.01-1.16c0-0.4,0.12-0.59,0.74-1.062
		C6.71,6.205,7.16,5.53,7.16,4.746c0-0.939-0.43-1.85-1.23-2.15h1.211L8,1.996H4.17c-1.72,0-3.34,1.26-3.34,2.721
		c0,1.5,1.17,2.699,2.92,2.699l0.359-0.01C3.99,7.616,3.91,7.855,3.91,8.105c0,0.396,0.23,0.75,0.52,1.021L3.77,9.137
		C1.641,9.137,0,10.456,0,11.825c0,1.34,1.8,2.18,3.93,2.18c2.419,0,3.759-1.33,3.759-2.68C7.689,10.246,7.37,9.595,6.35,8.906
		L6.35,8.906L6.35,8.906z M4.3,7.045c-0.979-0.03-1.92-1.079-2.09-2.329C2.04,3.455,2.7,2.495,3.689,2.528
		c0.98,0.021,1.92,1.021,2.09,2.291C5.95,6.076,5.29,7.066,4.3,7.045L4.3,7.045L4.3,7.045z M3.92,13.406
		c-1.47,0-2.54-0.91-2.54-1.99c0-1.061,1.32-1.949,2.79-1.93c0.35,0,0.67,0.05,0.96,0.14c0.8,0.54,1.37,0.854,1.53,1.46
		c0.029,0.131,0.05,0.25,0.05,0.381C6.71,12.556,5.99,13.406,3.92,13.406L3.92,13.406L3.92,13.406z"/>
	<path id="Shape_23_" fill="#FFFFFF" d="M6.35,8.906c-0.34-0.24-1.01-0.82-1.01-1.16c0-0.4,0.12-0.59,0.74-1.062
		C6.71,6.205,7.16,5.53,7.16,4.746c0-0.939-0.43-1.85-1.23-2.15h1.211L8,1.996H4.17c-1.72,0-3.34,1.26-3.34,2.721
		c0,1.5,1.17,2.699,2.92,2.699l0.359-0.01C3.99,7.616,3.91,7.855,3.91,8.105c0,0.396,0.23,0.75,0.52,1.021L3.77,9.137
		C1.641,9.137,0,10.456,0,11.825c0,1.34,1.8,2.18,3.93,2.18c2.419,0,3.759-1.33,3.759-2.68C7.689,10.246,7.37,9.595,6.35,8.906
		L6.35,8.906L6.35,8.906z M4.3,7.045c-0.979-0.03-1.92-1.079-2.09-2.329C2.04,3.455,2.7,2.495,3.689,2.528
		c0.98,0.021,1.92,1.021,2.09,2.291C5.95,6.076,5.29,7.066,4.3,7.045L4.3,7.045L4.3,7.045z M3.92,13.406
		c-1.47,0-2.54-0.91-2.54-1.99c0-1.061,1.32-1.949,2.79-1.93c0.35,0,0.67,0.05,0.96,0.14c0.8,0.54,1.37,0.854,1.53,1.46
		c0.029,0.131,0.05,0.25,0.05,0.381C6.71,12.556,5.99,13.406,3.92,13.406L3.92,13.406L3.92,13.406z"/>
</g>
<path id="Shape_24_" sketch:type="MSShapeGroup" fill="#59AD46" d="M134,774.5l3-3l3,3l7-7l3,3l-10,10L134,774.5L134,774.5z"/>
<path id="Shape_25_" sketch:type="MSShapeGroup" fill="#090909" d="M101.91,837.001l2.3-2.29c0.39-0.39,0.39-1.029,0-1.42
	s-1.03-0.391-1.42,0l-2.29,2.3l-2.29-2.3c-0.39-0.391-1.03-0.391-1.42,0s-0.39,1.03,0,1.42l2.3,2.29l-2.3,2.29
	c-0.39,0.391-0.39,1.03,0,1.42c0.2,0.189,0.45,0.29,0.71,0.29s0.51-0.101,0.71-0.29l2.29-2.3l2.29,2.3
	c0.2,0.189,0.45,0.29,0.71,0.29s0.51-0.101,0.71-0.29c0.39-0.391,0.39-1.029,0-1.42L101.91,837.001L101.91,837.001z"/>
<g id="Group_14_" transform="translate(1.000000, 1624.000000)" sketch:type="MSShapeGroup">
	<path id="Shape_38_" opacity="0.5" fill="#C8C5C5" enable-background="new    " d="M68.486,48.675c4.02-2.18,6.88-5.521,7.01-9.869
		c0.23-9.461-9.16-16.354-18.55-18.313l-0.36-0.066c0.61,6.029-0.91,11.688-4.449,16.188c-3.601,4.562-8.961,7.646-15.361,8.959
		c3.09,3.679,8.05,6.021,14.031,6.429c2.85,0.209,5.75,0,8.68-0.388c3.15,2.437,7.68,2.562,11.5,2.312
		c1.189-0.104,0.98-0.58,0.05-0.812c-1.819-0.442-3.25-1.688-3.16-3.521C67.896,49.175,68.227,48.866,68.486,48.675L68.486,48.675
		L68.486,48.675z"/>
	<path id="Shape_39_" fill="#C8C5C5" d="M53.775,17.605C50.816,4.376,37.326-0.004,24.196,2.803c-12,2.562-24,11.604-23.69,23.959
		c0.16,5.688,3.81,10.062,8.95,12.899c0.33,0.24,0.75,0.646,0.78,1.188c0.11,2.388-1.72,4-4.04,4.6c-1.19,0.3-1.46,0.92,0.06,1.062
		c4.89,0.316,10.67,0.146,14.7-3.037c3.74,0.5,7.44,0.771,11.09,0.5C47.057,42.946,57.066,32.125,53.775,17.605L53.775,17.605
		L53.775,17.605z"/>
</g>
<g id="Group_15_" transform="translate(1.000000, 1723.000000)" sketch:type="MSShapeGroup">
	<path id="Shape_40_" fill="#9CCF81" d="M48.092,33.9l15-9.16l6.72,13.24c1.62,7.22-7.27,9.879-14.42,9.438L48.092,33.9L48.092,33.9
		z"/>
	<path id="Shape_41_" fill="#9CCF81" d="M44.682,43.35l-7.88,14.229l7.88,14.43l0.2-5.771h7.2c2.63,0.229,6.04-1.528,7.31-4.078
		l9.25-17.312c-3.05,3.079-6.98,3.896-11.49,3.896h-12.17L44.682,43.35L44.682,43.35z"/>
	<path id="Shape_42_" fill="#9CCF81" d="M27.062,25.811l-15.11-8.938l8.06-12.438c5.4-4.964,11.99,1.693,15.09,8.286L27.062,25.811
		L27.062,25.811z"/>
	<path id="Shape_43_" fill="#9CCF81" d="M36.802,24.26l16.01,0.146l8.51-14.041l-5.03,2.617l-3.5-6.438
		c-1.07-2.46-4.23-4.659-7.03-4.55l-19.31,0.141c4.12,1.229,6.71,4.354,8.9,8.381l5.91,10.894L36.802,24.26L36.802,24.26z"/>
	<path id="Shape_44_" fill="#9CCF81" d="M0.392,25.07l4.68,3.646l-4.41,8.449c-2.2,3.891,1.59,7.68,4,9
		c2.37,1.301,6.06,1.46,9.5,1.41l6.2-10.13l4.68,2.521l-8.13-15.051L0.392,25.07L0.392,25.07z"/>
	<path id="Shape_45_" fill="#9CCF81" d="M1.082,44.62l10.05,18.58c2.02,2.562,5.83,3.18,9.78,3.09h10.6V48.7l-20.11-0.146
		C8.282,48.75,4.202,48.09,1.082,44.62L1.082,44.62L1.082,44.62z"/>
</g>
<path id="Shape_46_" sketch:type="MSShapeGroup" opacity="0.3" fill="#050505" enable-background="new    " d="M9,1853.55
	l3.08,5.354H5.92L9,1853.55L9,1853.55z M9,1848.5l-7.5,13h15L9,1848.5L9,1848.5z"/>
<g id="Group_17_" transform="translate(11.000000, 2077.000000)" sketch:type="MSShapeGroup">
	<circle id="Oval" fill="#DD4F37" cx="8" cy="9" r="8"/>
	<g id="Shape_49_" transform="translate(4.000000, 2.000000)">
		<path id="Shape_26_" fill="#FFFFFF" d="M6.35,7.91C6.01,7.67,5.34,7.09,5.34,6.75c0-0.4,0.12-0.59,0.74-1.061
			C6.71,5.21,7.16,4.529,7.16,3.75c0-0.939-0.43-1.85-1.23-2.15h1.21L8,1H4.17C2.45,1,0.83,2.26,0.83,3.721
			c0,1.5,1.17,2.699,2.92,2.699l0.36-0.01c-0.12,0.21-0.2,0.449-0.2,0.699c0,0.396,0.23,0.75,0.52,1.021L3.77,8.141
			C1.64,8.141,0,9.46,0,10.821c0,1.354,1.8,2.188,3.93,2.188c2.42,0,3.76-1.33,3.76-2.688C7.69,9.25,7.37,8.6,6.35,7.91L6.35,7.91
			L6.35,7.91z M4.3,6.05C3.32,6.02,2.38,4.971,2.21,3.721C2.04,2.46,2.7,1.5,3.69,1.533C4.67,1.554,5.61,2.56,5.78,3.824
			C5.95,5.08,5.29,6.07,4.3,6.05L4.3,6.05L4.3,6.05z M3.92,12.41c-1.47,0-2.54-0.91-2.54-1.99c0-1.061,1.32-1.949,2.79-1.93
			c0.35,0,0.67,0.05,0.96,0.14c0.8,0.54,1.37,0.854,1.53,1.46c0.03,0.131,0.05,0.25,0.05,0.381C6.71,11.561,5.99,12.41,3.92,12.41
			L3.92,12.41L3.92,12.41z"/>
		<path id="Shape_27_" fill="#FFFFFF" d="M6.35,7.91C6.01,7.67,5.34,7.09,5.34,6.75c0-0.4,0.12-0.59,0.74-1.061
			C6.71,5.21,7.16,4.529,7.16,3.75c0-0.939-0.43-1.85-1.23-2.15h1.21L8,1H4.17C2.45,1,0.83,2.26,0.83,3.721
			c0,1.5,1.17,2.699,2.92,2.699l0.36-0.01c-0.12,0.21-0.2,0.449-0.2,0.699c0,0.396,0.23,0.75,0.52,1.021L3.77,8.141
			C1.64,8.141,0,9.46,0,10.821c0,1.354,1.8,2.188,3.93,2.188c2.42,0,3.76-1.33,3.76-2.688C7.69,9.25,7.37,8.6,6.35,7.91L6.35,7.91
			L6.35,7.91z M4.3,6.05C3.32,6.02,2.38,4.971,2.21,3.721C2.04,2.46,2.7,1.5,3.69,1.533C4.67,1.554,5.61,2.56,5.78,3.824
			C5.95,5.08,5.29,6.07,4.3,6.05L4.3,6.05L4.3,6.05z M3.92,12.41c-1.47,0-2.54-0.91-2.54-1.99c0-1.061,1.32-1.949,2.79-1.93
			c0.35,0,0.67,0.05,0.96,0.14c0.8,0.54,1.37,0.854,1.53,1.46c0.03,0.131,0.05,0.25,0.05,0.381C6.71,11.561,5.99,12.41,3.92,12.41
			L3.92,12.41L3.92,12.41z"/>
	</g>
</g>
<path id="Shape_50_" sketch:type="MSShapeGroup" fill="#7CB244" d="M137,2186l1.74-1.779l2.17,2.219l4.35-4.438l1.74,1.779
	l-6.09,6.221L137,2186L137,2186z"/>
<path id="Shape_51_" sketch:type="MSShapeGroup" fill="#494949" d="M138.361,2041c2.841,0,5.562-1.12,7.57-3.12L158.84,2025
	l-12.908-12.88c-2.012-2-4.729-3.12-7.57-3.12h-5.197v32H138.361L138.361,2041z"/>
<path id="Shape_52_" sketch:type="MSShapeGroup" fill="#FAB718" d="M37,2259.439L49.34,2280H24.66L37,2259.439L37,2259.439z
	 M37,2240l-30,50h60L37,2240L37,2240z"/>
<path id="Shape_53_" sketch:type="MSShapeGroup" fill="#C6C4C4" d="M2,2371c0,19.33,15.67,35,35,35s35-15.67,35-35s-15.67-35-35-35
	S2,2351.67,2,2371L2,2371L2,2371z M7,2371c0-16.57,13.43-30,30-30s30,13.43,30,30s-13.43,30-30,30S7,2387.57,7,2371L7,2371L7,2371z"
	/>
<path id="Shape_54_" sketch:type="MSShapeGroup" fill="#C6C4C4" d="M44.92,2354.2c0,1.239-0.47,2.29-1.4,3.159
	c-0.939,0.871-2.069,1.311-3.39,1.311c-1.31,0-2.45-0.439-3.39-1.311c-0.94-0.869-1.41-1.92-1.41-3.159c0-1.24,0.47-2.3,1.41-3.171
	c0.939-0.879,2.08-1.319,3.39-1.319c1.32,0,2.45,0.44,3.39,1.319C44.45,2351.9,44.92,2352.96,44.92,2354.2L44.92,2354.2
	L44.92,2354.2z M44.41,2384.01l-0.54,2.2c-1.61,0.63-2.899,1.12-3.86,1.45c-0.96,0.33-2.07,0.5-3.34,0.5
	c-1.96,0-3.47-0.48-4.55-1.43c-1.09-0.951-1.63-2.16-1.63-3.621c0-0.569,0.04-1.159,0.12-1.75c0.08-0.604,0.21-1.271,0.39-2.021
	l2.02-7.129c0.18-0.688,0.33-1.33,0.45-1.938c0.12-0.606,0.19-1.17,0.19-1.688c0-0.907-0.19-1.539-0.57-1.896
	c-0.37-0.356-1.09-0.541-2.15-0.541c-0.52,0-1.06,0.08-1.61,0.25c-0.54,0.153-1.01,0.312-1.4,0.461l0.54-2.196
	c1.32-0.527,2.58-0.988,3.78-1.38c1.21-0.381,2.35-0.566,3.43-0.566c1.94,0,3.429,0.479,4.48,1.396
	c1.05,0.938,1.58,2.152,1.58,3.646c0,0.312-0.04,0.855-0.11,1.646c-0.08,0.772-0.21,1.5-0.409,2.146l-2,7.104
	c-0.171,0.563-0.311,1.22-0.441,1.96c-0.129,0.729-0.199,1.274-0.199,1.656c0,0.938,0.21,1.58,0.63,1.924
	c0.431,0.35,1.16,0.521,2.2,0.521c0.49,0,1.04-0.091,1.66-0.261C43.68,2384.29,44.13,2384.141,44.41,2384.01L44.41,2384.01
	L44.41,2384.01z"/>
<path id="Shape_55_" sketch:type="MSShapeGroup" fill="#C6C4C4" d="M2,2481c0,19.33,15.67,35,35,35s35-15.67,35-35s-15.67-35-35-35
	S2,2461.67,2,2481L2,2481L2,2481z M7,2481c0-16.57,13.43-30,30-30s30,13.43,30,30s-13.43,30-30,30S7,2497.57,7,2481L7,2481L7,2481z"
	/>
<path id="Shape_56_" sketch:type="MSShapeGroup" fill="#C6C4C4" d="M40.02,2494.189c0,1.229-0.47,2.301-1.41,3.188
	c-0.93,0.88-2.029,1.33-3.279,1.33c-1.27,0-2.37-0.45-3.31-1.33c-0.94-0.89-1.4-1.95-1.4-3.188c0-1.229,0.46-2.312,1.4-3.209
	c0.94-0.9,2.04-1.354,3.31-1.354c1.25,0,2.35,0.45,3.279,1.354C39.55,2491.88,40.02,2492.96,40.02,2494.189L40.02,2494.189
	L40.02,2494.189z M48.8,2472.68c0,3.271-1.12,5.935-3.36,7.961c-2.25,2.039-5.25,3.199-8.989,3.489l-0.15,3.32h-2.17v-9.49
	c2.36-0.2,4.21-0.94,5.54-2.239c1.34-1.291,2.01-3.051,2.01-5.281c0-1.771-0.47-3.188-1.41-4.26c-0.93-1.065-2.189-1.6-3.77-1.6
	c-0.67,0-1.26,0.07-1.78,0.21c-0.52,0.13-1.03,0.351-1.52,0.64c0.17,0.521,0.36,1.189,0.58,2.021c0.22,0.812,0.33,1.562,0.33,2.271
	c0,1.146-0.37,2.021-1.11,2.646c-0.74,0.621-1.77,0.938-3.09,0.938c-1.24,0-2.21-0.394-2.92-1.17c-0.71-0.791-1.06-1.75-1.06-2.894
	c0-1.866,1.06-3.446,3.2-4.771c2.13-1.302,4.7-1.939,7.71-1.939c3.57,0,6.45,0.937,8.66,2.771
	C47.7,2467.189,48.8,2469.641,48.8,2472.68L48.8,2472.68L48.8,2472.68z"/>
<path id="Shape_57_" sketch:type="MSShapeGroup" fill="#C6C4C4" d="M2,2591c0,19.33,15.67,35,35,35s35-15.67,35-35s-15.67-35-35-35
	S2,2571.67,2,2591L2,2591L2,2591z M7,2591c0-16.57,13.43-30,30-30s30,13.43,30,30s-13.43,30-30,30S7,2607.57,7,2591L7,2591L7,2591z"
	/>
<path id="Shape_58_" sketch:type="MSShapeGroup" fill="#C6C4C4" d="M41.45,2603.859c0,1.229-0.47,2.301-1.41,3.181
	c-0.931,0.89-2.03,1.34-3.28,1.34c-1.27,0-2.37-0.45-3.31-1.34c-0.94-0.88-1.4-1.94-1.4-3.181c0-1.239,0.46-2.312,1.4-3.209
	c0.94-0.9,2.04-1.36,3.31-1.36c1.25,0,2.35,0.46,3.28,1.36C40.98,2601.55,41.45,2602.62,41.45,2603.859L41.45,2603.859
	L41.45,2603.859z M41.49,2576.88c0,0.67-0.11,1.55-0.35,2.649c-0.24,1.101-0.531,2.391-0.891,3.871
	c-0.34,1.396-0.73,3.14-1.17,5.229c-0.439,2.096-0.91,4.67-1.391,7.75H35.81c-0.49-3.104-0.96-5.695-1.4-7.771
	c-0.44-2.062-0.83-3.809-1.17-5.19c-0.31-1.279-0.59-2.54-0.85-3.771c-0.26-1.229-0.39-2.146-0.39-2.771
	c0-1.25,0.46-2.319,1.39-3.21c0.93-0.896,2.04-1.33,3.34-1.33c1.289,0,2.399,0.438,3.35,1.33
	C41.02,2574.561,41.49,2575.63,41.49,2576.88L41.49,2576.88L41.49,2576.88z"/>
<linearGradient id="Rectangle-path_1_" gradientUnits="userSpaceOnUse" x1="6.228" y1="5029.1875" x2="6.228" y2="5030.1875" gradientTransform="matrix(160 0 0 -16 -916.5 83254)">
	<stop  offset="0" style="stop-color:#FFFFFF;stop-opacity:0"/>
	<stop  offset="1" style="stop-color:#FFFFFF"/>
</linearGradient>
<rect id="Rectangle-path_10_" y="2771" sketch:type="MSShapeGroup" fill="url(#Rectangle-path_1_)" width="160" height="16">
</rect>
<linearGradient id="Rectangle-path_2_" gradientUnits="userSpaceOnUse" x1="6.228" y1="5029.1875" x2="6.228" y2="5030.1875" gradientTransform="matrix(160 0 0 -16 -916.5 83314)">
	<stop  offset="0" style="stop-color:#FFFFFF"/>
	<stop  offset="1" style="stop-color:#FFFFFF;stop-opacity:0"/>
</linearGradient>
<rect id="Rectangle-path_11_" y="2831" sketch:type="MSShapeGroup" fill="url(#Rectangle-path_2_)" width="160" height="16">
</rect>
<g id="Group_20_" transform="translate(11.000000, 2686.000000)" sketch:type="MSShapeGroup">
	<path id="Shape_59_" fill="#EDC11E" d="M50,7c0-1.189-0.811-2-2-2H28l-4-4H3C1.8,1,1,1.8,1,3v6h49V7L50,7z M0,11v31.83
		C0,44.029,0.98,45,2.17,45h47.66c1.199,0,2.17-0.971,2.17-2.17V11H0L0,11z"/>
	<path id="Shape_60_" fill="#FFFFFF" d="M26.9,17.73l-3.311,3.31c1.21-0.08,2.45,0.11,3.59,0.59l1.811-1.81
		c1.15-1.15,3.039-1.15,4.189,0c1.15,1.146,1.15,3.039,0,4.188l-4.189,4.19c-1.15,1.146-3.04,1.146-4.19,0
		c-0.38-0.396-1.01-0.396-1.39,0l-0.7,0.698c-0.39,0.379-0.39,1.012,0,1.392c2.3,2.31,6.069,2.31,8.37,0l4.189-4.19
		c2.311-2.3,2.311-6.062,0-8.354C32.971,15.42,29.2,15.42,26.9,17.73L26.9,17.73L26.9,17.73z"/>
	<path id="Shape_61_" fill="#FFFFFF" d="M19.92,24.71l-4.19,4.19c-2.31,2.3-2.31,6.062,0,8.354c2.3,2.312,6.07,2.312,8.37,0
		l3.3-3.299c-1.211,0.079-2.44-0.121-3.581-0.604l-1.81,1.812c-1.15,1.146-3.04,1.146-4.19,0c-1.15-1.146-1.15-3.039,0-4.188
		l4.19-4.188c0.99-0.989,2.53-1.12,3.68-0.396l0.021,0.021c0.17,0.104,0.34,0.229,0.49,0.39c0.38,0.396,1.01,0.396,1.39,0l0.7-0.699
		c0.39-0.38,0.39-1.011,0-1.391C25.99,22.4,22.22,22.4,19.92,24.71L19.92,24.71L19.92,24.71z"/>
</g>
<path id="Shape_62_" sketch:type="MSShapeGroup" opacity="0.3" fill="#686969" enable-background="new    " d="M60,2936.87
	L84.68,2978H35.32L60,2936.87L60,2936.87z M60,2898L0,2998h120L60,2898L60,2898z"/>
<g id="Group_21_" transform="translate(17.000000, 3094.000000)" sketch:type="MSShapeGroup">
	<path id="Shape_63_" opacity="0.5" fill="#FFFFFF" enable-background="new    " d="M39.57,23.48c-0.57-0.604-5.76-2.99-6.721-3.32
		c0-0.2-0.119-0.93-0.39-1.062c-0.271-0.1-1.12-0.52-1.12-0.52c0-0.062-0.1-0.24-0.109-0.432c0-0.229,0.109-0.425,0.109-0.425
		c0.11-0.229,0.53-0.771,0.641-1.188c0.119-0.42,0.25-1.487,0.25-1.487c0-0.223,0.34-0.33,0.539-0.438
		c0.381-0.17,0.69-2.45,0.69-2.45c0-0.75-0.31-0.433-0.31-0.96V9.216c0-2.438-2.08-3.771-4.541-3.771h-0.09
		c-2.459,0-4.34,1.328-4.34,3.771v1.987c0,0.529-0.31,0.21-0.31,0.96c0,0,0.31,2.28,0.68,2.45c0.22,0.104,0.55,0.22,0.55,0.438
		c0,0,0.141,1.067,0.25,1.487c0.11,0.41,0.53,0.95,0.65,1.188c0,0,0.109,0.189,0.109,0.423c-0.02,0.188-0.109,0.356-0.109,0.434
		c0,0-0.87,0.42-1.12,0.52c-0.28,0.139-0.39,0.86-0.39,1.062c-0.19,0.068-0.551,0.21-1,0.41c2.46,1.104,5.59,2.646,6.26,3.354
		c0.2,0.2,0.8,0.854,0.9,3.935h8.27c0.59,0,1.08-0.479,1.08-1.062V26.48C40,26.48,40,23.92,39.57,23.48L39.57,23.48L39.57,23.48z"/>
	<path id="Shape_64_" fill="#FFFFFF" d="M28.779,24.83c-0.75-0.78-7.459-3.87-8.709-4.301c0-0.263-0.141-1.209-0.5-1.369
		c-0.34-0.131-1.45-0.67-1.45-0.67c0-0.08-0.13-0.312-0.14-0.57c0-0.27,0.14-0.54,0.14-0.54c0.15-0.29,0.69-0.979,0.84-1.521
		c0.15-0.552,0.32-1.937,0.32-1.937c0-0.289,0.43-0.42,0.701-0.563c0.49-0.226,0.89-3.17,0.89-3.17c0-0.976-0.399-0.562-0.399-1.239
		V6.38c0-3.17-2.691-4.88-5.881-4.88h-0.12c-3.18,0-5.61,1.71-5.61,4.88v2.57c0,0.68-0.4,0.271-0.4,1.239c0,0,0.4,2.944,0.88,3.17
		c0.28,0.146,0.72,0.274,0.72,0.563c0,0,0.17,1.385,0.32,1.937c0.14,0.541,0.69,1.229,0.83,1.521c0,0,0.15,0.271,0.15,0.54
		c-0.03,0.26-0.15,0.49-0.15,0.57c0,0-1.11,0.539-1.45,0.67c-0.35,0.16-0.5,1.106-0.5,1.369c-1.26,0.431-7.96,3.521-8.72,4.301
		c-0.54,0.57-0.54,3.88-0.54,3.88v0.41c0,0.75,0.62,1.38,1.38,1.38h26.56c0.761,0,1.391-0.63,1.391-1.38v-0.41
		C29.33,28.71,29.33,25.4,28.779,24.83L28.779,24.83L28.779,24.83z"/>
</g>
<path id="Shape_65_" sketch:type="MSShapeGroup" fill="#030303" d="M13.41,3189.002l2.3-2.291c0.39-0.389,0.39-1.029,0-1.42
	c-0.39-0.389-1.03-0.389-1.42,0l-2.29,2.301l-2.29-2.301c-0.39-0.389-1.03-0.389-1.42,0c-0.39,0.391-0.39,1.031,0,1.42l2.3,2.291
	l-2.3,2.289c-0.39,0.391-0.39,1.031,0,1.42c0.2,0.191,0.45,0.291,0.71,0.291s0.51-0.1,0.71-0.291l2.29-2.299l2.29,2.299
	c0.2,0.191,0.45,0.291,0.71,0.291s0.51-0.1,0.71-0.291c0.39-0.389,0.39-1.029,0-1.42L13.41,3189.002L13.41,3189.002z"/>
<path id="Shape_66_" sketch:type="MSShapeGroup" fill="#474747" d="M7.34,2117.979C6.721,2117.347,5.88,2117,5,2117h16
	c-0.88,0-1.721,0.354-2.34,0.979l-4.49,4.521c-0.65,0.67-1.689,0.67-2.34,0L7.34,2117.979L7.34,2117.979z"/>
<circle id="Oval_1_" sketch:type="MSShapeGroup" fill="#FFFFFF" cx="6.005" cy="2147.002" r="1">
</circle>
<path id="Shape_67_" sketch:type="MSShapeGroup" fill="#FFFFFF" d="M5.065,2145.002c-0.05-0.26-0.04-0.49,0.03-0.7
	c0.07-0.2,0.16-0.39,0.28-0.55c0.11-0.17,0.25-0.32,0.399-0.45l0.431-0.38c0.13-0.13,0.239-0.25,0.34-0.38
	c0.09-0.12,0.14-0.261,0.14-0.409c0-0.25-0.09-0.431-0.25-0.551c-0.16-0.13-0.369-0.188-0.619-0.188c-0.24,0-0.46,0.049-0.641,0.154
	c-0.19,0.104-0.37,0.229-0.55,0.379l-0.96-0.879c0.28-0.312,0.61-0.562,0.99-0.771c0.38-0.188,0.81-0.29,1.28-0.29
	c0.33,0,0.65,0.04,0.94,0.12c0.29,0.079,0.55,0.188,0.76,0.354c0.22,0.152,0.39,0.354,0.511,0.604
	c0.129,0.238,0.189,0.521,0.189,0.845c0,0.267-0.051,0.479-0.141,0.67c-0.1,0.188-0.209,0.354-0.35,0.517
	c-0.14,0.154-0.29,0.303-0.449,0.438c-0.16,0.135-0.301,0.271-0.431,0.41c-0.13,0.145-0.239,0.301-0.319,0.471
	s-0.101,0.355-0.08,0.594h-1.5V2145.002L5.065,2145.002L5.065,2145.002z"/>
<g id="Group_22_" transform="translate(5.000000, 499.000000)" sketch:type="MSShapeGroup">
	<rect id="Rectangle-path_12_" y="4" fill="#FFFFFF" width="2" height="5"/>
	<rect id="Rectangle-path_13_" y="1" fill="#FFFFFF" width="2" height="2"/>
</g>
<g id="Group_23_" transform="translate(131.000000, 3182.000000)" sketch:type="MSShapeGroup">
	<path id="Shape_68_" fill="#FFFFFF" d="M14.811,10.059c-0.25-0.262-2.541-1.312-2.972-1.461c0-0.091-0.05-0.396-0.17-0.471
		c-0.108-0.04-0.489-0.229-0.489-0.229c0-0.03-0.039-0.11-0.051-0.19c0-0.101,0.051-0.188,0.051-0.188
		c0.051-0.104,0.229-0.327,0.279-0.521c0.05-0.188,0.109-0.657,0.109-0.657c0-0.103,0.146-0.143,0.24-0.188
		c0.17-0.08,0.299-1.09,0.299-1.09c0-0.32-0.129-0.188-0.129-0.423V3.759c0-1.062-0.871-1.764-1.961-1.764H9.979
		c-1.09,0-1.961,0.688-1.961,1.764v0.886c0,0.232-0.129,0.104-0.129,0.423c0,0,0.129,1.013,0.299,1.093
		c0.09,0.05,0.239,0.09,0.239,0.188c0,0,0.062,0.479,0.104,0.657C8.58,7.188,8.76,7.419,8.805,7.52c0,0,0.055,0.097,0.055,0.188
		c-0.017,0.08-0.055,0.16-0.055,0.19c0,0-0.383,0.188-0.484,0.229c-0.113,0.062-0.172,0.38-0.172,0.471
		c-0.436,0.146-2.727,1.199-2.977,1.461c-0.188,0.198-0.188,1.33-0.188,1.33v0.146c0,0.261,0.213,0.471,0.476,0.471h9.062
		c0.271,0,0.479-0.21,0.479-0.471v-0.146C14.999,11.388,14.999,10.257,14.811,10.059L14.811,10.059L14.811,10.059z"/>
	<g id="Shape_69_" transform="translate(0.000000, 2.000000)">
		<path id="Shape_28_" fill="#FFFFFF" d="M4.471,7.367c0.26-0.271,1.18-0.74,2-1.12c-0.012-0.104-0.052-0.3-0.132-0.354
			c-0.09-0.024-0.399-0.188-0.399-0.188c0-0.021-0.021-0.093-0.039-0.146c0-0.075,0.039-0.146,0.039-0.146
			c0.041-0.08,0.189-0.271,0.229-0.42c0.04-0.146,0.09-0.529,0.09-0.529c0-0.08,0.12-0.104,0.19-0.146
			c0.13-0.062,0.238-0.867,0.238-0.867c0-0.27-0.108-0.148-0.108-0.345V2.413c0-0.859-0.688-1.409-1.562-1.409H4.979
			c-0.871,0-1.562,0.552-1.562,1.409V3.11c0,0.188-0.104,0.079-0.104,0.344c0,0,0.104,0.812,0.234,0.867
			C3.616,4.36,3.734,4.39,3.734,4.467c0,0,0.053,0.379,0.093,0.529s0.188,0.34,0.229,0.42c0,0,0.039,0.07,0.039,0.146
			C4.08,5.624,4.057,5.691,4.057,5.708c0,0-0.312,0.146-0.396,0.187C3.564,5.947,3.523,6.206,3.523,6.273
			C3.17,6.378,1.34,7.234,1.145,7.443C0.998,7.598,0.998,8.505,0.998,8.505v0.109c0,0.209,0.17,0.379,0.38,0.379h2.631
			C4.061,7.809,4.329,7.507,4.471,7.367L4.471,7.367L4.471,7.367z"/>
		<path id="Shape_29_" fill="#FFFFFF" d="M18.85,7.447c-0.199-0.21-2.029-1.062-2.379-1.172c0-0.068-0.041-0.328-0.132-0.379
			c-0.09-0.029-0.399-0.187-0.399-0.187c0-0.021-0.021-0.098-0.039-0.146c0-0.079,0.039-0.148,0.039-0.148
			c0.041-0.08,0.189-0.271,0.229-0.42c0.04-0.146,0.09-0.521,0.09-0.521c0-0.077,0.12-0.105,0.19-0.146
			c0.13-0.062,0.238-0.868,0.238-0.868c0-0.263-0.108-0.146-0.108-0.343v-0.7c0-0.855-0.688-1.406-1.562-1.406h-0.039
			c-0.871,0-1.562,0.554-1.562,1.406v0.698c0,0.188-0.105,0.08-0.105,0.343c0,0,0.105,0.812,0.235,0.868
			c0.07,0.039,0.188,0.065,0.188,0.146c0,0,0.052,0.384,0.092,0.522c0.04,0.146,0.188,0.347,0.229,0.42c0,0,0.039,0.069,0.039,0.149
			c-0.011,0.062-0.039,0.13-0.039,0.146c0,0-0.312,0.146-0.396,0.183c-0.08,0.039-0.12,0.25-0.138,0.345
			c0.812,0.38,1.729,0.851,2,1.13c0.146,0.14,0.41,0.438,0.467,1.63h2.631c0.21,0,0.38-0.17,0.38-0.38v-0.11
			C18.999,8.507,18.999,7.605,18.85,7.447L18.85,7.447L18.85,7.447z"/>
	</g>
</g>
<g id="Group_24_" transform="translate(10.000000, 3219.000000)" sketch:type="MSShapeGroup">
	<path id="Shape_70_" fill="#030303" d="M0,4v9h16V4H0L0,4z M3.91,11H2.3C2.18,11,2,10.91,2,10.79v-0.069c0,0,0-0.551,0.09-0.641
		c0.13-0.13,1.25-0.646,1.46-0.71c0-0.04,0.02-0.2,0.08-0.229l0.24-0.104c0-0.017,0.02-0.053,0.02-0.094
		c0-0.039-0.02-0.093-0.02-0.093C3.84,8.8,3.75,8.689,3.72,8.6C3.7,8.51,3.66,8.28,3.66,8.28c0-0.05-0.08-0.068-0.13-0.091
		C3.45,8.15,3.35,7.661,3.35,7.661c0-0.16,0.01-0.09,0.01-0.199V7.03c0-0.521,0.55-0.854,1.08-0.854h0.02
		c0.53,0,1.08,0.33,1.08,0.854v0.432v0.199c0,0-0.12,0.489-0.2,0.528C5.29,8.211,5.22,8.23,5.22,8.28c0,0-0.03,0.229-0.05,0.316
		c-0.03,0.093-0.12,0.197-0.14,0.25C5.03,8.85,5,8.9,5,8.939C5.01,8.98,5.03,9.02,5.03,9.03L5.27,9.14
		c0.06,0.03,0.08,0.19,0.08,0.23l0.09,0.04C4.91,9.65,4.25,9.971,4.1,10.12C4.06,10.17,3.93,10.29,3.91,11L3.91,11L3.91,11z
		 M11.3,11.15c0,0.147-0.18,0.85-0.34,0.85H5.11c-0.17,0-0.34-0.689-0.34-0.85v-0.104c0,0,0-0.72,0.12-0.853
		c0.17-0.177,1.66-0.854,1.94-0.938c0-0.062,0.03-0.271,0.11-0.312c0.08-0.027,0.32-0.147,0.32-0.147c0-0.01,0.03-0.062,0.04-0.12
		c0-0.062-0.04-0.119-0.04-0.119C7.23,8.496,7.1,8.336,7.07,8.217C7.04,8.105,7,7.796,7,7.796c0-0.062-0.11-0.09-0.17-0.12
		c-0.11-0.05-0.21-0.699-0.21-0.699c0-0.221,0.05-0.118,0.05-0.271V6.137c0-0.701,0.64-1.145,1.35-1.145h0.03
		c0.71,0,1.341,0.438,1.341,1.145v0.569c0,0.146,0.06,0.05,0.06,0.271c0,0-0.12,0.649-0.229,0.699c-0.061,0.03-0.16,0.062-0.16,0.12
		c0,0-0.041,0.312-0.07,0.421c-0.03,0.119-0.15,0.279-0.19,0.34c0,0-0.03,0.062-0.03,0.119c0.01,0.062,0.03,0.11,0.03,0.12
		c0,0,0.25,0.12,0.32,0.147c0.08,0.039,0.12,0.25,0.12,0.312c0.279,0.09,1.77,0.771,1.939,0.938c0.12,0.129,0.12,0.853,0.12,0.853
		L11.3,11.15L11.3,11.15z M14,10.79c0,0.12-0.18,0.21-0.3,0.21h-1.62c-0.01-0.71-0.141-0.83-0.18-0.88
		c-0.15-0.149-0.811-0.47-1.34-0.71l0.09-0.04c0-0.04,0.02-0.2,0.08-0.229l0.24-0.104c0-0.014,0.02-0.051,0.029-0.092
		c0-0.039-0.029-0.099-0.029-0.099c-0.021-0.052-0.121-0.151-0.141-0.25c-0.03-0.092-0.061-0.312-0.061-0.312
		c0-0.053-0.09-0.066-0.14-0.094c-0.08-0.038-0.17-0.525-0.17-0.525V7.468V7.031c0-0.521,0.55-0.854,1.08-0.854h0.021
		c0.529,0,1.08,0.33,1.08,0.854v0.437c0,0.104,0.01,0.039,0.01,0.197c0,0-0.131,0.487-0.211,0.526
		c-0.049,0.021-0.119,0.041-0.119,0.093c0,0-0.03,0.229-0.051,0.312c-0.029,0.098-0.119,0.197-0.14,0.25c0,0-0.03,0.059-0.03,0.098
		c0.01,0.041,0.03,0.079,0.03,0.092l0.24,0.104c0.06,0.029,0.08,0.189,0.08,0.229c0.21,0.068,1.329,0.58,1.46,0.71
		c0.09,0.09,0.09,0.641,0.09,0.641v0.069L14,10.79L14,10.79z"/>
	<path id="Shape_71_" fill="#030303" d="M15,2H8V1H0v2h15V2L15,2z"/>
</g>
<g id="Group_25_" transform="translate(10.000000, 3259.000000)" sketch:type="MSShapeGroup">
	<path id="Shape_72_" fill="#FFFFFF" d="M0,4v9h16V4H0L0,4z M3.91,11H2.3C2.18,11,2,10.91,2,10.79v-0.069c0,0,0-0.551,0.09-0.641
		c0.13-0.13,1.25-0.646,1.46-0.71c0-0.04,0.02-0.2,0.08-0.229l0.24-0.104c0-0.017,0.02-0.053,0.02-0.094
		c0-0.039-0.02-0.093-0.02-0.093C3.84,8.8,3.75,8.689,3.72,8.6C3.7,8.51,3.66,8.28,3.66,8.28c0-0.05-0.08-0.068-0.13-0.091
		C3.45,8.15,3.35,7.661,3.35,7.661c0-0.16,0.01-0.09,0.01-0.199V7.03c0-0.521,0.55-0.854,1.08-0.854h0.02
		c0.53,0,1.08,0.33,1.08,0.854v0.432v0.199c0,0-0.12,0.489-0.2,0.528C5.29,8.211,5.22,8.23,5.22,8.28c0,0-0.03,0.229-0.05,0.316
		c-0.03,0.093-0.12,0.197-0.14,0.25C5.03,8.85,5,8.9,5,8.939C5.01,8.98,5.03,9.02,5.03,9.03L5.27,9.14
		c0.06,0.03,0.08,0.19,0.08,0.23l0.09,0.04C4.91,9.65,4.25,9.971,4.1,10.12C4.06,10.17,3.93,10.29,3.91,11L3.91,11L3.91,11z
		 M11.3,11.15c0,0.147-0.18,0.85-0.34,0.85H5.11c-0.17,0-0.34-0.689-0.34-0.85v-0.104c0,0,0-0.72,0.12-0.853
		c0.17-0.177,1.66-0.854,1.94-0.938c0-0.062,0.03-0.271,0.11-0.312c0.08-0.027,0.32-0.147,0.32-0.147c0-0.01,0.03-0.062,0.04-0.12
		c0-0.062-0.04-0.119-0.04-0.119C7.23,8.496,7.1,8.336,7.07,8.217C7.04,8.105,7,7.796,7,7.796c0-0.062-0.11-0.09-0.17-0.12
		c-0.11-0.05-0.21-0.699-0.21-0.699c0-0.221,0.05-0.118,0.05-0.271V6.137c0-0.701,0.64-1.145,1.35-1.145h0.03
		c0.71,0,1.341,0.438,1.341,1.145v0.569c0,0.146,0.06,0.05,0.06,0.271c0,0-0.12,0.649-0.229,0.699c-0.061,0.03-0.16,0.062-0.16,0.12
		c0,0-0.041,0.312-0.07,0.421c-0.03,0.119-0.15,0.279-0.19,0.34c0,0-0.03,0.062-0.03,0.119c0.01,0.062,0.03,0.11,0.03,0.12
		c0,0,0.25,0.12,0.32,0.147c0.08,0.039,0.12,0.25,0.12,0.312c0.279,0.09,1.77,0.771,1.939,0.938c0.12,0.129,0.12,0.853,0.12,0.853
		L11.3,11.15L11.3,11.15z M14,10.79c0,0.12-0.18,0.21-0.3,0.21h-1.62c-0.01-0.71-0.141-0.83-0.18-0.88
		c-0.15-0.149-0.811-0.47-1.34-0.71l0.09-0.04c0-0.04,0.02-0.2,0.08-0.229l0.24-0.104c0-0.014,0.02-0.051,0.029-0.092
		c0-0.039-0.029-0.099-0.029-0.099c-0.021-0.052-0.121-0.151-0.141-0.25c-0.03-0.092-0.061-0.312-0.061-0.312
		c0-0.053-0.09-0.066-0.14-0.094c-0.08-0.038-0.17-0.525-0.17-0.525V7.468V7.031c0-0.521,0.55-0.854,1.08-0.854h0.021
		c0.529,0,1.08,0.33,1.08,0.854v0.437c0,0.104,0.01,0.039,0.01,0.197c0,0-0.131,0.487-0.211,0.526
		c-0.049,0.021-0.119,0.041-0.119,0.093c0,0-0.03,0.229-0.051,0.312c-0.029,0.098-0.119,0.197-0.14,0.25c0,0-0.03,0.059-0.03,0.098
		c0.01,0.041,0.03,0.079,0.03,0.092l0.24,0.104c0.06,0.029,0.08,0.189,0.08,0.229c0.21,0.068,1.329,0.58,1.46,0.71
		c0.09,0.09,0.09,0.641,0.09,0.641v0.069L14,10.79L14,10.79z"/>
	<path id="Shape_73_" fill="#FFFFFF" d="M15,2H8V1H0v2h15V2L15,2z"/>
</g>
<g id="Group_26_" transform="translate(9.000000, 3294.000000)" sketch:type="MSShapeGroup" opacity="0.05">
	<path id="Shape_74_" fill="#040505" d="M140.79,130.859l-8.87-5.896c-5.98-3.979-9.59-10.681-9.63-17.854
		c-0.11-16.42,0.11-6.396,0.11-26.909c0-23.434-12.53-54.591-36.021-62.75C86.2,9.59,79.84,1,72,1S57.8,9.59,57.62,17.45
		C34.13,25.609,21.6,56.77,21.6,80.2c0,20.521,0.22,10.489,0.11,26.909c-0.04,7.181-3.65,13.881-9.63,17.854l-8.87,5.896
		C1.2,132.2,0,134.45,0,136.859v5.729c0,2.65,2.15,4.812,4.8,4.812h134.4c2.649,0,4.8-2.15,4.8-4.812v-5.729
		C144,134.45,142.8,132.2,140.79,130.859L140.79,130.859L140.79,130.859z"/>
	<path id="Shape_75_" fill="#040505" d="M88.62,149.8H55.38c-1.47,0-2.59,1.3-2.39,2.75C54.33,161.85,62.33,169,72,169
		s17.67-7.15,19.01-16.45C91.21,151.1,90.08,149.8,88.62,149.8L88.62,149.8L88.62,149.8z"/>
</g>
<g id="Group_27_" transform="translate(13.000000, 3535.000000)" sketch:type="MSShapeGroup" opacity="0.3">
	<path id="Shape_76_" fill="#010101" d="M13.282,5.332c-0.71-3.311-3.931-4.4-7.06-3.7c-2.86,0.649-5.73,2.909-5.65,5.989
		c0.04,1.41,0.91,2.511,2.14,3.221c0.08,0.062,0.17,0.16,0.18,0.301c0.03,0.58-0.42,0.989-0.97,1.146
		c-0.28,0.08-0.34,0.234,0.02,0.26c1.17,0.08,2.54,0.041,3.5-0.731c0.9,0.104,1.78,0.182,2.649,0.114
		C11.681,11.652,14.062,8.951,13.282,5.332L13.282,5.332L13.282,5.332z"/>
</g>
<path id="Shape_77_" sketch:type="MSShapeGroup" fill="#FFFFFF" d="M26.282,3610.332c-0.71-3.311-3.931-4.4-7.06-3.7
	c-2.86,0.649-5.73,2.909-5.65,5.989c0.04,1.41,0.91,2.511,2.14,3.221c0.08,0.062,0.17,0.16,0.18,0.301
	c0.03,0.58-0.42,0.989-0.97,1.146c-0.28,0.08-0.34,0.236,0.02,0.26c1.17,0.08,2.54,0.041,3.5-0.732
	c0.9,0.104,1.78,0.183,2.649,0.115C24.681,3616.652,27.062,3613.951,26.282,3610.332L26.282,3610.332L26.282,3610.332z"/>
<path id="Shape_79_" sketch:type="MSShapeGroup" opacity="0.3" fill="#010101" enable-background="new    " d="M142,3726h8l-4,4
	L142,3726L142,3726z"/>
<path id="Shape_80_" sketch:type="MSShapeGroup" fill="#FFFFFF" d="M11,3767.52l1.641,2.64H9.359L11,3767.52L11,3767.52z M11,3764
	l-5,8h10L11,3764L11,3764z"/>
<path id="Shape_81_" sketch:type="MSShapeGroup" fill="#333333" d="M3.34,3831.979C2.72,3831.348,1.88,3831,1,3831h16
	c-0.88,0-1.721,0.352-2.34,0.979l-4.49,4.521c-0.65,0.67-1.689,0.67-2.34,0L3.34,3831.979L3.34,3831.979z"/>
<g id="Imported-Layers-9-_x2B_-Path_1_" transform="translate(9.000000, 1897.000000)" sketch:type="MSShapeGroup">
	<g id="Imported-Layers-9_1_">
		<path id="Fill-1_22_" fill="#ABABAB" d="M18,15.998c0,0.55-0.45,1-1,1H1c-0.55,0-1-0.45-1-1V5.002h18V15.998"/>
		<path id="Fill-2_22_" fill="#989898" d="M1,1.002L7.092,1.02c0.262,0,0.512,0.104,0.699,0.287l0.917,0.904
			C9.344,2.877,9.736,3.002,10,3.002h7c0.55,0,1,0.45,1,1v1H0V2.001C0,1.447,0.447,1.001,1,1.002"/>
	</g>
</g>
<g id="Imported-Layers-9-_x2B_-Path_2_" transform="translate(9.000000, 1937.000000)" sketch:type="MSShapeGroup">
	<g id="Imported-Layers-9_2_">
		<path id="Fill-1_1_" fill="#F1F0F0" d="M18,15.998c0,0.55-0.45,1-1,1H1c-0.55,0-1-0.45-1-1V5.002h18V15.998"/>
		<path id="Fill-2_1_" fill="#FFFFFF" d="M1,1.002L7.092,1.02c0.262,0,0.512,0.104,0.699,0.287l0.917,0.904
			C9.344,2.877,9.736,3.002,10,3.002h7c0.55,0,1,0.45,1,1v1H0V2.001C0,1.447,0.447,1.001,1,1.002"/>
	</g>
</g>
<g id="Imported-Layers-9-_x2B_-Path_4_" transform="translate(9.000000, 1977.000000)" sketch:type="MSShapeGroup">
	<g id="Imported-Layers-9_4_">
		<path id="Fill-1_3_" fill="#ABABAB" d="M18,15.998c0,0.55-0.45,1-1,1H1c-0.55,0-1-0.45-1-1V5.002h18V15.998"/>
		<path id="Fill-2_3_" fill="#989898" d="M1,1.002L7.092,1.02c0.262,0,0.512,0.104,0.699,0.287l0.917,0.904
			C9.344,2.877,9.736,3.002,10,3.002h7c0.55,0,1,0.45,1,1v1H0V2.001C0,1.447,0.447,1.001,1,1.002"/>
	</g>
</g>
<g id="Imported-Layers-9-_x2B_-Path_3_" transform="translate(9.000000, 2017.000000)" sketch:type="MSShapeGroup">
	<g id="Imported-Layers-9_3_">
		<path id="Fill-1_2_" fill="#F1F0F0" d="M18,15.998c0,0.55-0.45,1-1,1H1c-0.55,0-1-0.45-1-1V5.002h18V15.998"/>
		<path id="Fill-2_2_" fill="#FFFFFF" d="M1,1.002L7.092,1.02c0.262,0,0.512,0.104,0.699,0.287l0.917,0.904
			C9.344,2.877,9.736,3.002,10,3.002h7c0.55,0,1,0.45,1,1v1H0V2.001C0,1.447,0.447,1.001,1,1.002"/>
	</g>
</g>
<g id="Page-1_1_" transform="translate(9.000000, 1233.000000)" sketch:type="MSShapeGroup" opacity="0.1">
	<g id="Imported-Layers-2_1_">
		<path id="Fill-1_6_" fill="#0D0D0D" d="M129.652,93.292c7.396-4.24,12.644-10.769,12.885-19.245
			c0.438-18.428-16.827-31.902-34.085-35.736c-2.045-0.449-4.097-0.771-6.132-0.975c-0.195-1.639-0.475-3.308-0.844-5.001
			C95.889,6.41,70.372-2.177,45.542,3.328C22.857,8.37,0.167,26.079,0.743,50.299C1.058,61.442,7.95,70.02,17.677,75.593
			c0.627,0.477,1.414,1.271,1.463,2.326c0.209,4.663-3.241,7.849-7.628,9.013c-2.255,0.582-2.769,1.795,0.101,2.071
			c9.256,0.638,20.181,0.267,27.807-5.949c7.064,0.964,14.065,1.502,20.969,0.964c2.801-0.192,5.511-0.587,8.113-1.146
			c5.146,9.619,15.576,15.906,28.654,16.832c5.248,0.409,10.576,0,15.949-0.733c5.81,4.729,14.115,5.018,21.16,4.528
			c2.183-0.211,1.785-1.134,0.074-1.576c-3.34-0.887-5.966-3.31-5.807-6.858C128.577,94.258,129.174,93.651,129.652,93.292"/>
		<path id="Fill-2_6_" fill="#FFFFFF" d="M128.32,91.521l0.113-0.082l0.111-0.069c9.479-5.429,11.639-12.451,11.771-17.375
			c0.406-17.197-15.967-29.881-32.354-33.523c-2.189-0.479-4.382-0.812-6.551-0.998c0.781,9.986-1.691,19.068-7.309,26.567
			c-5.619,7.506-13.926,12.762-23.93,15.298c0.688,1.344,1.49,2.634,2.413,3.864c5.368,7.176,14.147,11.541,24.729,12.291
			c1.326,0.104,2.718,0.157,4.143,0.157c3.361,0,6.969-0.279,11.344-0.876l0.955-0.129l0.744,0.604
			c3.34,2.718,8.066,4.095,14.438,4.193c-1.771-1.699-2.729-3.978-2.616-6.487C126.387,93.664,127.093,92.442,128.32,91.521"/>
		<path id="Fill-3_1_" fill="#FFFFFF" d="M17.622,87.012c-0.323,0-0.65-0.001-0.979-0.007c3.118-2.167,4.879-5.461,4.711-9.185
			c-0.07-1.521-0.882-2.898-2.345-3.997L18.9,73.74l-0.12-0.068C8.845,67.979,3.226,59.657,2.959,50.236
			C2.412,27.266,24.209,10.34,46.023,5.492c4.599-1.021,9.206-1.537,13.688-1.537c20.898,0,35.704,10.784,39.6,28.847
			c2.703,12.382,0.604,23.646-6.082,32.576c-7.185,9.599-18.896,15.431-32.996,16.431c-1.776,0.143-3.621,0.207-5.507,0.207l0,0
			c-4.454,0-9.221-0.361-15.006-1.151l-0.953-0.13l-0.746,0.604C33.335,85.155,26.662,87.012,17.622,87.012"/>
	</g>
</g>
<g id="empty-cloud" transform="translate(4.000000, 899.000000)" sketch:type="MSShapeGroup">
	<path id="Fill-1_5_" opacity="0.1" fill="#0D0D0D" enable-background="new    " d="M0.329,73.485
		c0,18.396,14.106,33.385,31.445,33.385h89.924c17.34,0,31.446-14.988,31.446-33.385c0-17.932-13.285-32.562-29.979-33.39v-0.059
		c0-21.512-16.396-38.968-36.679-38.968c-13.105,0-24.625,7.289-31.089,18.272c-2.175-0.999-4.585-1.586-7.113-1.586
		c-9.933,0-17.984,8.582-17.984,19.104c0,1.115,0.058,2.175,0.235,3.229C13.729,40.747,0.329,55.441,0.329,73.485"/>
	<path id="Fill-2_5_" fill="#FFFFFF" d="M31.774,104.733c-16.162,0-29.307-14.021-29.307-31.248
		c0-16.915,12.366-30.646,28.153-31.248l2.426-0.1l-0.399-2.393c-0.141-0.843-0.207-1.759-0.207-2.881
		c0-9.354,7.109-16.964,15.848-16.964c2.117,0,4.21,0.468,6.22,1.39l1.756,0.808l0.978-1.66C63.588,9.652,74.522,3.21,86.493,3.21
		c19.045,0,34.54,16.522,34.54,36.83v2.094l2.031,0.104c15.666,0.771,27.938,14.499,27.938,31.25
		c0,17.229-13.146,31.248-29.312,31.248L31.774,104.733"/>
</g>
<g id="Fill-1-_x2B_-Fill-3" transform="translate(16.000000, 1070.000000)" sketch:type="MSShapeGroup">
	<path id="Fill-1_4_" opacity="0.1" fill="#0D0D0D" enable-background="new    " d="M7.413,107.688
		c-3.958,0-7.176-3.221-7.176-7.178V23.614c0-0.948,0.431-1.798,1.108-2.363c-0.055-0.229-0.083-0.468-0.083-0.712V8.236
		c0-3.959,3.217-7.181,7.176-7.181H58.25c0.823,0,1.596,0.317,2.179,0.899l7.812,7.812h46.771c0.111-0.008,0.221-0.011,0.328-0.011
		c3.809,0,6.902,3.229,6.902,7.188v3.589h2.052c1.697,0,3.076,1.379,3.076,3.075v76.896c0,3.958-3.22,7.182-7.177,7.182H7.413"/>
	<path id="Fill-2_4_" fill="#FFFFFF" d="M125.318,100.51c0,2.819-2.307,5.126-5.125,5.126H7.413c-2.819,0-5.126-2.307-5.126-5.126
		V23.614c0-0.568,0.46-1.024,1.025-1.024h120.982c0.565,0,1.024,0.457,1.024,1.024V100.51L125.318,100.51z M3.312,8.236
		c0-2.831,2.297-5.127,5.126-5.127H58.25c0.271,0,0.533,0.104,0.729,0.302l8.11,8.11c0.193,0.19,0.455,0.303,0.728,0.303h47.25
		c2.824-0.169,5.127,2.297,5.127,5.126v3.589c0,0.569-0.463,1.025-1.021,1.025H4.337c-0.564,0-1.025-0.456-1.025-1.025V8.236
		L3.312,8.236z"/>
</g>
<path id="Fill-1_7_" sketch:type="MSShapeGroup" opacity="0.1" fill="#0D0D0D" enable-background="new    " d="M74.55,1462.82
	c1.06,0.007,1.919,0.873,1.919,1.93v28.957c0,1.059-0.858,1.917-1.92,1.917H57.09c-0.38,0.009-0.804,0.015-1.227,0.015
	c-7.949,0-13.309-1.912-16.386-5.849c-0.099-0.127-15.662-29.669-16.574-31.302c-0.913-1.633-1.703-3.418-1.969-5.62
	c-0.333-2.743-0.225-5.62,1.135-8.039l6.498-12.454l-7.759-6.061c-1.671-1.311-1.305-2.379,0.819-2.396l29.069-0.252
	c0.53-0.005,1.162,0.366,1.414,0.833l14.703,27.253c1.009,1.87,0.312,2.565-1.555,1.559l-8.389-4.543l-8.482,13.875L74.55,1462.82
	L74.55,1462.82z M128.188,1424.281c-0.479-0.946-1.602-1.271-2.504-0.713l-24.744,15.103c-0.899,0.552-1.229,1.758-0.726,2.69
	l11.601,21.486H98.542l-0.534-9.861c-0.115-2.118-1.044-2.328-2.07-0.479l-14.41,25.992c-0.256,0.464-0.258,1.218-0.004,1.68
	l14.562,26.631c1.021,1.861,1.898,1.654,1.979-0.471l0.361-10.814h9.936c0.281,0.021,0.565,0.034,0.854,0.034
	c5.173,0,10.729-3.354,12.951-7.799c0,0,13.071-24.797,15.315-29.053c2.244-4.255,3.188-9.449,2.012-12.059L128.188,1424.281
	L128.188,1424.281z M126.861,1399.993c1.1-1.814,0.465-2.487-1.414-1.505l-9.305,4.854l-4.822-8.87
	c-2.112-4.729-7.916-8.562-12.981-8.562c-0.124,0-0.247,0.002-0.37,0.007c0,0-27.42,0.199-31.758,0.229
	c-4.338,0.026-9.591,0.771-12.07,4.438c-2.478,3.668-13.458,20.729-13.458,20.729c-0.574,0.892-0.298,2.053,0.611,2.592
	l24.933,14.771c0.91,0.54,2.1,0.245,2.654-0.66l12.738-20.762l6.445,11.867l-8.01,5.161c-1.781,1.146-1.507,2.094,0.616,2.107
	l29.062,0.258c0.529,0.005,1.183-0.359,1.459-0.815L126.861,1399.993L126.861,1399.993z"/>
<path id="Fill-2_7_" sketch:type="MSShapeGroup" fill="#FFFFFF" d="M101.837,1440.36l12.024,22.275
	c11.759,0.713,26.402-3.655,23.729-15.562l-11.062-21.785L101.837,1440.36L101.837,1440.36z M96.223,1455.922l-12.988,23.429
	l12.988,23.755l0.32-9.5h11.868c4.327,0.384,9.937-2.512,12.021-6.719l15.235-28.506c-5.024,5.076-11.483,6.396-18.919,6.396H96.701
	L96.223,1455.922L96.223,1455.922z M67.209,1427.042l13.227-21.56c-5.101-10.851-17.305-22.263-24.835-13.646l-13.275,20.455
	L67.209,1427.042L67.209,1427.042z M83.25,1424.501l26.348,0.229l14.025-23.14l-8.285,4.327l-5.764-10.6
	c-1.772-4.059-6.975-7.66-11.586-7.483l-31.783,0.229c6.785,2.021,11.041,7.152,14.652,13.799l9.727,17.9L83.25,1424.501
	L83.25,1424.501z M23.281,1425.822l7.708,6.021l-7.252,13.899c-3.63,6.412,2.604,12.656,6.576,14.826
	c3.909,2.143,9.976,2.396,15.647,2.314l10.202-16.686l7.708,4.174l-13.375-24.792L23.281,1425.822L23.281,1425.822z
	 M24.415,1458.021l16.555,30.586c3.324,4.25,9.601,5.248,16.099,5.095h17.458v-28.961l-33.106-0.23
	C36.282,1464.821,29.554,1463.741,24.415,1458.021L24.415,1458.021L24.415,1458.021z"/>
<g id="Page-1" transform="translate(6.000000, 3670.000000)" sketch:type="MSShapeGroup">
	<path id="Fill-54" fill="#787878" d="M0.413,5.013c-0.832-1.521-0.382-2.894,1.132-3.802C2.078,0.887,2.52,0.926,2.918,1.399
		c0.187,0.229,0.885,1.069,1.065,1.312c0.57,0.734,0.577,1.184-0.465,2.212c-0.435,0.427-0.33,0.979,0,1.306l3.255,3.257
		c0.33,0.327,0.877,0.438,1.306,0C9.105,8.44,9.557,8.45,10.29,9.018c0.239,0.184,1.08,0.877,1.312,1.064
		c0.474,0.396,0.512,0.84,0.188,1.373c-0.906,1.514-2.278,1.964-3.802,1.131c-1.612-0.885-3.165-1.799-4.47-3.104
		C2.213,8.177,1.297,6.625,0.413,5.013L0.413,5.013z"/>
</g>
<path id="Fill-2-Copy-2" sketch:type="MSShapeGroup" fill="#EE2A57" d="M58,1563.82l-3.75,2.18l1.05-4.07L52,1559.4l4.33-0.53
	L58,1555l1.67,3.87l4.33,0.53l-3.3,2.526l1.05,4.07L58,1563.82"/>
<path id="Imported-Layers-Copy-27" sketch:type="MSShapeGroup" opacity="0.8" fill="#0D0D0D" enable-background="new    " d="
	M96.998,1560.592l7.289-7.3c0.391-0.39,1.029-0.39,1.42,0s0.391,1.03,0,1.42l-6.299,6.29l6.299,6.291
	c0.391,0.391,0.391,1.029,0,1.42c-0.199,0.189-0.449,0.289-0.709,0.289c-0.262,0-0.512-0.1-0.711-0.289l-7.289-7.3V1560.592"/>
<path id="Shape_30_" fill="#FED307" d="M29.531,3892.5l-17.633,10.771l4.794-20.102L1,3869.729l20.597-1.648l7.934-19.08
	l7.936,19.078l20.596,1.648l-15.692,13.443l4.795,20.102L29.531,3892.5z"/>
<path id="Shape_31_" opacity="0.2" fill="#FFFFFF" enable-background="new    " d="M29.531,3972.5l-17.633,10.771l4.794-20.102
	L1,3949.729l20.597-1.648l7.934-19.08l7.936,19.078l20.595,1.648l-15.691,13.443l4.795,20.102L29.531,3972.5z"/>
<path id="Shape_32_" opacity="0.5" fill="#010101" enable-background="new    " d="M6,4063h8c2.209,0,4,1.791,4,4v8
	c0,2.209-1.791,4-4,4H6c-2.209,0-4-1.791-4-4v-8C2,4064.791,3.791,4063,6,4063L6,4063z"/>
<path id="Shape_33_" fill="#59BA47" d="M14.004,4115H5.996c-2.207,0-3.996,1.789-3.996,3.996v8.008c0,2.207,1.789,3.996,3.996,3.996
	h8.008c2.207,0,3.996-1.789,3.996-3.996v-8.008C18,4116.789,16.211,4115,14.004,4115L14.004,4115z M8.91,4127L5,4123l1.74-1.779
	l2.17,2.221l4.35-4.438l1.74,1.778L8.91,4127L8.91,4127z"/>
<path id="Shape_34_" fill="#222222" d="M8.739,4025.4h2.02c-0.279-2.58,2.841-3.48,2.841-6.021c0-2.182-1.54-3.32-3.7-3.32
	c-1.46,0-2.641,0.723-3.5,1.74l1.279,1.18c0.58-0.641,1.24-1.041,2.061-1.041c1.02,0,1.62,0.643,1.62,1.604
	C11.359,4021.34,8.319,4022.48,8.739,4025.4L8.739,4025.4z M8.279,4028.381c0,0.898,0.64,1.561,1.479,1.561
	c0.841,0,1.5-0.658,1.5-1.561s-0.659-1.562-1.5-1.562C8.919,4026.82,8.279,4027.48,8.279,4028.381L8.279,4028.381z"/>
<path id="Shape_35_" fill="#FFFFFF" d="M7.832,4168.832c-1.564-1.564-4.621-2.832-6.829-2.832H1h24
	c-2.209,0-5.268,1.268-6.832,2.832l-3.756,3.756c-0.779,0.779-2.04,0.784-2.824,0L7.832,4168.832L7.832,4168.832z"/>
<path id="Rectangle-17-Copy-4" sketch:type="MSShapeGroup" opacity="0.3" enable-background="new    " d="M103,4463h12l-6,6
	L103,4463z"/>
<path id="Rectangle-17-Copy-5" sketch:type="MSShapeGroup" opacity="0.3" enable-background="new    " d="M103,4509h12l-6-6
	L103,4509z"/>
<path id="Fill-1-Copy-8" sketch:type="MSShapeGroup" fill="#777777" d="M45.078,4430.922c1.394,1.393,4.44,1.542,5.874,0.107
	l2.886-2.886c1.591-1.584,1.542-4.229-0.109-5.873c-1.643-1.651-4.289-1.7-5.873-0.108l-2.28,2.278
	c0.848-0.039,1.721,0.108,2.527,0.462l1.247-1.247c0.792-0.792,2.118-0.769,2.94,0.054c0.822,0.822,0.846,2.147,0.054,2.94
	l-2.886,2.886c-0.792,0.793-2.373,0.496-3.424,0.455L45.078,4430.922z M48.922,4427.078c-1.444-1.443-4.478-1.504-5.874-0.107
	l-2.886,2.886c-1.591,1.584-1.542,4.229,0.109,5.873c1.643,1.651,4.289,1.7,5.873,0.108l2.273-2.272
	c-0.848,0.041-1.714-0.115-2.52-0.468l-1.247,1.247c-0.792,0.792-2.118,0.769-2.94-0.054c-0.822-0.824-0.846-2.147-0.054-2.94
	l2.886-2.886c0.575-0.576,1.476-0.492,3.432-0.455c0.02,0,0.028-0.012,0.028-0.012L48.922,4427.078z"/>
<path id="Fill-1-Copy-6" sketch:type="MSShapeGroup" fill="#777777" d="M53,4394v-1c0-3.3-2.7-6-6-6s-6,2.7-6,6v1h2v-1
	c0-2.206,1.794-4,4-4s4,1.794,4,4v1H53z M41,4395c-0.55,0-1,0.45-1,1v6c0,0.55,0.45,1,1,1h12c0.55,0,1-0.45,1-1v-6
	c0-0.55-0.45-1-1-1H41z M46,4397h2v4h-2V4397z"/>
<path id="Fill-1-Copy-7" sketch:type="MSShapeGroup" fill="#777777" d="M47,4357c-4.419,0-8,3.582-8,8s3.581,8,8,8
	c4.418,0,8-3.582,8-8S51.418,4357,47,4357z M48.396,4360.634l0.167-0.112l-0.09,0.084h0.233l-0.064,0.242l0.143,0.479l-0.087,0.009
	v0.223l-0.208,0.117l-0.119,0.047l0.294-0.227h0.118l0.025-0.021l-0.245-0.006l-0.024-0.154l0.167-0.021l-0.041-0.179l-0.166,0.026
	l-0.142-0.285L48.396,4360.634L48.396,4360.634z M47.996,4361.218l0.142-0.024v-0.104l0.219,0.015l0.066,0.092l-0.066,0.078
	l0.09,0.115l-0.348,0.195l-0.115-0.078l0.127-0.17l-0.142-0.038L47.996,4361.218L47.996,4361.218z M45.184,4357.939l0.13-0.043
	l0.435,0.08l-0.166,0.078l-0.091,0.125l-0.335,0.107l-0.128,0.018l-0.207,0.025l-0.011,0.104l-0.21,0.185l-0.32-0.065l0.024-0.117
	l0.193-0.015l0.182-0.153l0.361-0.08l-0.155-0.086l-0.012-0.162H45.184L45.184,4357.939z M44.422,4358.188l0.309-0.062l-0.244,0.181
	l-0.233,0.053L44.422,4358.188L44.422,4358.188z M44.177,4358.449l-0.026,0.13l0.193,0.065l-0.142,0.051l-0.217-0.064
	L44.177,4358.449L44.177,4358.449z M43.842,4358.592l-0.078,0.131h0.298l-0.17,0.247l-0.412-0.144L43.842,4358.592L43.842,4358.592z
	 M43.184,4359.152l0.335-0.197l0.179,0.066l-0.115,0.232l0.155-0.062l0.194,0.153l0.142,0.299l-0.167,0.155l0.167,0.129l0.103,0.158
	l-0.322,0.222l-0.066-0.233l-0.154,0.076l0.09,0.312l-0.09,0.182l-0.077-0.154l-0.155-0.025l0.052,0.144l0.014,0.144l-0.246-0.182
	l-0.104-0.248l-0.22-0.039l0.258-0.091l0.541,0.024v-0.155l0.025-0.207l-0.152-0.47l-0.228,0.144l-0.298-0.144L43.184,4359.152
	L43.184,4359.152z M42.235,4359.229c0.223-0.185,0.457-0.356,0.702-0.515l-0.192,0.177l0.18,0.025l-0.336,0.235l-0.076,0.169
	l-0.206,0.116l-0.154-0.054L42.235,4359.229L42.235,4359.229z M45.44,4369.982l-0.063,0.168l-0.078,0.026l0.052,0.429l-0.092,0.353
	l-0.241,0.026l-0.313,0.192l0.065,0.356l-0.102,0.578h-0.232l0.18-0.045l0.012-0.004l-0.18-0.03l0.039,0.144l0.155,0.041
	l0.141,0.164l0.398,0.162c-0.218-0.055-0.436-0.123-0.649-0.196l-0.291-0.142l-0.491-0.402l-0.734-0.831l-0.414-0.573l-0.437-0.234
	l-0.954-1.051l0.037-0.17l-0.116-0.078l0.065-0.402l-0.141-0.521l0.335-0.299l0.307-0.076v-0.117l-0.295-0.054l-0.168,0.118
	l-0.186-0.079l-0.114-0.013l-0.216-0.248l-0.098-0.182l-0.22-0.234l-0.429-0.455l-0.092-0.039l-0.297-0.364l-0.089-0.908
	l-0.035,0.039c0.032-2.237,1.018-4.243,2.564-5.621l-0.064,0.095l0.076,0.076l0.103-0.062l0.155,0.143l0.22-0.078l0.194-0.131
	l-0.028-0.127l0.298-0.158l-0.167,0.222l-0.052,0.104l-0.09,0.144l-0.027,0.167l0.31-0.221l0.038-0.076l0.17,0.154l-0.337,0.271
	l-0.245,0.039l-0.167,0.131l-0.221,0.131l-0.167,0.051l-0.154,0.131l-0.464,0.362l0.063,0.131l-0.13,0.169l0.155,0.066l0.106,0.285
	l0.179,0.065l-0.128,0.415l0.052,0.169l0.192-0.078l0.091-0.376l0.231-0.105l0.143-0.209l-0.014-0.207l0.194-0.194l0.13-0.353
	l0.103,0.027l0.09,0.012l0.143,0.051l0.052,0.158l0.103,0.013l-0.118,0.312l0.103,0.105l0.155-0.055l0.208-0.192l0.128,0.429
	l-0.116,0.064l0.128,0.207l0.297,0.104l-0.373,0.146l0.284-0.027l0.13,0.08l-0.014,0.166l-0.273,0.055l-0.154,0.13l-0.734-0.054
	l-0.503,0.416l0.464-0.207l0.206,0.025l-0.194,0.078l0.103,0.258l0.325,0.131l-0.532,0.221c0,0,0.195-0.233,0.131-0.233
	c-0.065,0-0.478,0.146-0.478,0.146l-0.143,0.181l-0.051,0.146l-0.334,0.051l-0.014,0.154l-0.085,0.016l-0.007,0.195v0.283
	l-0.276,0.195l-0.397,0.248l-0.036,0.377l0.039,0.494l-0.239-0.336l0.036-0.248l-0.155-0.119l-0.374-0.129l0.011,0.129l-0.272-0.115
	l-0.155,0.168l-0.089,0.662l0.128,0.496l0.338,0.143l0.441-0.078v-0.248l0.036,0.027l-0.252,0.637l0.299,0.064l0.047,0.572
	l0.255,0.262l0.158-0.039l0.191,0.182l0.062,0.324l0.064,0.025l-0.038-0.195l0.115-0.023l0.414,0.154l0.284,0.014l0.232,0.145
	l-0.08,0.091l0.235,0.026l0.269,0.258l0.451,0.065l0.415,0.481l-0.157,0.222l0.297,0.103l0.156-0.129l0.362,0.156l0.012,0.076
	l0.155-0.152l0.167-0.014h0.233l0.285,0.285l0.166,0.084l0.155,0.283L45.44,4369.982L45.44,4369.982z M42.628,4360.141l-0.024,0.231
	l-0.194,0.04l-0.129-0.078l0.18-0.193H42.628L42.628,4360.141z M44.086,4362.609l-0.142,0.193l-0.475-0.104l0.412-0.441
	L44.086,4362.609L44.086,4362.609z M42.396,4366.499h-0.192l0.011-0.106h0.169L42.396,4366.499L42.396,4366.499z M42.101,4366.408
	h-0.337l-0.103-0.209l0.219-0.012L42.101,4366.408L42.101,4366.408z M41.558,4366.107l-0.361-0.014l-0.414-0.363l-0.14,0.051v-0.076
	l0.192-0.039L41.558,4366.107L41.558,4366.107z M46.795,4358.995l0.234-0.024l-0.078,0.143l-0.271,0.223l-0.118,0.012l-0.102,0.26
	l-0.271,0.154l-0.064-0.103l-0.258,0.271l0.066,0.107l-0.247,0.259l0.026,0.168l-0.117,0.248l-0.23,0.051l-0.106-0.181l-0.218,0.09
	l-0.23-0.222l-0.106-0.301l0.195-0.037l-0.053-0.117l-0.127,0.079l-0.027-0.275l0.207-0.113l0.244-0.402l0.04-0.223l-0.181,0.064
	l0.141-0.17l0.13-0.402l-0.168-0.052l0.065-0.079l0.128-0.064l0.325-0.129l0.228-0.156l0.337,0.015l0.233,0.026h0.27l-0.064,0.154
	l0.18,0.195l-0.026,0.184l-0.181,0.037l0.181,0.059l0.207,0.022l0.091,0.116l-0.375-0.016L46.795,4358.995L46.795,4358.995z
	 M44.847,4359.334l0.171-0.105l0.011,0.156l-0.167,0.039L44.847,4359.334L44.847,4359.334z M54.342,4365.197l-0.349,0.61
	l-0.115-0.063l-0.166-0.64l-0.503-0.884l-0.04-0.131l-0.091,0.066l-0.155-0.182l0.298,0.676l0.36,0.947l0.207,0.182l0.067,0.312
	l0.333-0.221l-0.143,0.664l-0.36,0.675l-0.516,0.833l-0.051,0.494l-0.168,0.506l-0.555,0.43l-0.027,0.104l-0.25,0.3l-0.42,0.155
	v0.129l-0.795,0.703l-0.441,0.092l-0.021-0.078l0.171-0.248l-0.058-0.416l0.096-0.365l-0.113-0.44l0.204-0.403l-0.043-0.402v-0.246
	l-0.281-0.508l0.184-0.17l0.066-0.324l-0.105-0.156l-0.367,0.105l-0.009-0.131l-0.18-0.118l-0.475,0.224l-0.36-0.035l-0.621,0.14
	l-0.657-0.405l-0.029-0.178l-0.295-0.25l-0.115-0.012l-0.167-0.339l0.103-0.157l0.076-0.467l-0.128-0.182l0.86-0.873l0.5-0.17
	v-0.209l0.262-0.531l0.26,0.037l0.369-0.205l1.001-0.185l0.13,0.146l-0.111,0.352l0.435,0.014l0.657,0.312l0.075-0.324l0.839,0.104
	l0.425-0.092l-0.051-0.717l-0.219,0.092l-0.195-0.051l-0.039,0.154l-0.31-0.246l-0.103-0.3l-0.179-0.039l-0.181,0.079l0.052,0.154
	l0.155,0.145l-0.066,0.193l-0.154-0.039l-0.104-0.232l-0.193-0.17l-0.038-0.182l-0.401-0.183l-0.269-0.146l-0.04-0.115l-0.13,0.063
	l0.015,0.104l0.333,0.324l0.169-0.039l0.077,0.131l0.233,0.09l-0.027,0.066l-0.128-0.078l-0.09,0.012l0.104,0.144l-0.169,0.146
	l0.013,0.182l-0.296-0.156l0.283-0.024l0.088-0.091l-0.114-0.17l-0.476-0.208l-0.285-0.272l-0.13-0.013l-0.127,0.167l-0.143,0.027
	l-0.104-0.053l-0.115,0.024l-0.026,0.183l-0.18,0.078l-0.142,0.222l0.025-0.065l-0.206,0.153h-0.194l-0.232,0.249l-0.206-0.037
	l-0.193,0.062l0.012-0.174l-0.079-0.017l-0.051-0.071l0.066-0.182l0.012-0.193l-0.063-0.104l0.076-0.038l0.078-0.079l0.657,0.04
	l0.052-0.261l-0.167-0.248l-0.227-0.024v-0.157l0.267,0.182l0.013,0.051h0.14l0.272-0.375l0.167-0.357l0.336-0.225l-0.169-0.242
	l0.156-0.141l0.039,0.086l0.049,0.219l0.207,0.025l0.26,0.012l0.155-0.129l0.219,0.037l0.091-0.403l-0.117-0.506h0.088l0.092,0.299
	l0.012,0.019l-0.178-0.16l0.155-0.156h0.102l0.103,0.001l-0.219,0.006l-0.207,0.19l-0.374-0.353l0.063-0.319l-0.27-0.127
	l-0.026,0.08l0.129,0.168l-0.154,0.235l0.253,0.21l0.346,0.104v0.154l-0.242,0.039l0.022,0.169l-0.1,0.144l-0.186,0.119
	l-0.112-0.184l-0.286-0.287l-0.209,0.208l-0.246-0.078l-0.182-0.454l0.245-0.232l0.091-0.222l0.064-0.533l0.31-0.235l0.502,0.17
	l0.414,0.078l0.218,0.154l-0.101,0.093l-0.287-0.065l0.196,0.232l0.309,0.385l-0.104,0.148h0.155l-0.115-0.461l0.076-0.205
	l-0.104-0.396l0.066-0.086l-0.091-0.16l0.104-0.075l-0.036-0.055c1.853,1.178,3.16,3.133,3.468,5.418l-0.156,0.025l-0.09-0.198
	l-0.064,0.067l-0.257-0.379l-0.092,0.09l0.45,0.689l0.37-0.062v-0.223l-0.046,0.246L54.342,4365.197L54.342,4365.197z"/>
<path id="Fill-1-Copy-5" sketch:type="MSShapeGroup" fill="#777777" d="M79,4303.988c-6.658,0-13.316-2.535-18.385-7.604
	c-10.136-10.138-10.136-26.633,0-36.771c10.137-10.139,26.633-10.139,36.77,0c0.781,0.781,0.781,2.049,0,2.828
	c-0.781,0.781-2.047,0.781-2.828,0c-8.578-8.576-22.536-8.576-31.114,0c-8.577,8.578-8.577,22.535,0,31.113
	c8.579,8.577,22.536,8.576,31.114,0c0.781-0.781,2.047-0.781,2.828,0c0.781,0.779,0.781,2.047,0,2.828
	C92.316,4301.454,85.658,4303.988,79,4303.988 M79,4234c24.262,0,44,19.738,44,44s-19.738,44-44,44c-24.262,0-44-19.738-44-44
	S54.738,4234,79,4234 M79,4230c-26.51,0-48,21.49-48,48s21.49,48,48,48s48-21.49,48-48S105.51,4230,79,4230"/>
<path id="Imported-Layers-4" sketch:type="MSShapeGroup" fill="#666666" d="M118.951,4186.219c-0.217-0.291-0.572-0.291-0.789,0
	c-0.217,0.293-0.217,0.773,0,1.065l3.5,4.717l-3.5,4.717c-0.217,0.292-0.217,0.772,0,1.063c0.111,0.144,0.25,0.219,0.395,0.219
	c0.146,0,0.283-0.076,0.396-0.219l4.049-5.474v-0.615L118.951,4186.219z"/>
<path id="Imported-Layers-4-Copy" sketch:type="MSShapeGroup" fill="#666666" d="M42.049,4197.781c0.217,0.291,0.572,0.291,0.789,0
	c0.217-0.293,0.217-0.773,0-1.065l-3.499-4.717l3.499-4.717c0.217-0.292,0.217-0.772,0-1.063c-0.111-0.144-0.25-0.219-0.394-0.219
	c-0.145,0-0.283,0.076-0.395,0.219L38,4191.691v0.615L42.049,4197.781z"/>
<path id="Fill-7-Copy-3" sketch:type="MSShapeGroup" fill="#FFA500" d="M74,4760h-2v2h2v2h2v-2h2v-2h-2v-2h-2V4760z
	 M74.694,4769.873c-0.4-0.43-4.065-2.139-4.749-2.371c0-0.146-0.073-0.669-0.269-0.756c-0.189-0.073-0.792-0.371-0.792-0.371
	c0-0.044-0.073-0.175-0.08-0.312c0-0.152,0.08-0.299,0.08-0.299c0.08-0.16,0.377-0.545,0.459-0.844
	c0.079-0.298,0.174-1.062,0.174-1.062c0-0.16,0.24-0.232,0.385-0.312c0.262-0.123,0.48-1.752,0.48-1.752
	c0-0.531-0.218-0.307-0.218-0.684v-1.418c0-1.746-1.469-2.691-3.2-2.691h-0.066c-1.737,0-3.061,0.945-3.061,2.691v1.418
	c0,0.377-0.218,0.151-0.218,0.684c0,0,0.218,1.629,0.48,1.752c0.146,0.08,0.385,0.152,0.385,0.312c0,0,0.095,0.765,0.174,1.062
	c0.082,0.299,0.379,0.684,0.459,0.844c0,0,0.08,0.146,0.08,0.299c-0.014,0.139-0.08,0.27-0.08,0.312c0,0-0.611,0.298-0.792,0.371
	c-0.196,0.087-0.269,0.609-0.269,0.756c-0.691,0.232-4.341,1.941-4.756,2.371c-0.3,0.312-0.3,2.139-0.3,2.139v0.226
	c0,0.414,0.343,0.765,0.749,0.765h14.495c0.407,0,0.756-0.351,0.756-0.765v-0.226C75,4772.012,75,4770.186,74.694,4769.873z"/>
<path id="Fill-7-Copy-4" sketch:type="MSShapeGroup" opacity="0.5" enable-background="new    " d="M74,4719h-2v2h2v2h2v-2h2v-2h-2
	v-2h-2V4719z M74.694,4728.873c-0.4-0.43-4.065-2.139-4.749-2.371c0-0.146-0.073-0.669-0.269-0.756
	c-0.189-0.073-0.792-0.371-0.792-0.371c0-0.044-0.073-0.175-0.08-0.312c0-0.152,0.08-0.299,0.08-0.299
	c0.08-0.16,0.377-0.545,0.459-0.844c0.079-0.298,0.174-1.062,0.174-1.062c0-0.16,0.24-0.232,0.385-0.312
	c0.262-0.123,0.48-1.752,0.48-1.752c0-0.531-0.218-0.307-0.218-0.684v-1.418c0-1.746-1.469-2.691-3.2-2.691h-0.066
	c-1.737,0-3.061,0.945-3.061,2.691v1.418c0,0.377-0.218,0.151-0.218,0.684c0,0,0.218,1.629,0.48,1.752
	c0.146,0.08,0.385,0.152,0.385,0.312c0,0,0.095,0.765,0.174,1.062c0.082,0.299,0.379,0.684,0.459,0.844c0,0,0.08,0.146,0.08,0.299
	c-0.014,0.139-0.08,0.27-0.08,0.312c0,0-0.611,0.298-0.792,0.371c-0.196,0.087-0.269,0.609-0.269,0.756
	c-0.691,0.232-4.341,1.941-4.756,2.371c-0.3,0.312-0.3,2.139-0.3,2.139v0.226c0,0.414,0.343,0.765,0.749,0.765h14.495
	c0.407,0,0.756-0.351,0.756-0.765v-0.226C75,4731.012,75,4729.186,74.694,4728.873z"/>
<g id="Rectangle-120-Copy-2" sketch:type="MSShapeGroup">
	<polygon fill="#FFFFFF" points="73,4939 73,4932 71,4932 71,4939 64,4939 64,4941 71,4941 71,4948 73,4948 73,4941 80,4941 
		80,4939 	"/>
</g>
<path id="Imported-Layers-Copy-7" sketch:type="MSShapeGroup" fill="#0B0B0A" d="M72.712,4836.713c0.39-0.391,0.39-1.029,0-1.42
	s-1.03-0.391-1.42,0l-3.29,3.3l-3.29-3.3c-0.39-0.391-1.03-0.391-1.42,0s-0.39,1.029,0,1.42l3.3,3.289l-3.3,3.291
	c-0.39,0.391-0.39,1.029,0,1.42c0.2,0.189,0.45,0.289,0.71,0.289c0.26,0,0.51-0.1,0.71-0.289l3.29-3.301l3.29,3.301
	c0.2,0.189,0.45,0.289,0.71,0.289c0.26,0,0.51-0.1,0.71-0.289c0.39-0.391,0.39-1.029,0-1.42l-3.3-3.291L72.712,4836.713z"/>
<g id="folder-copy" transform="translate(23.000000, 363.000000)" sketch:type="MSLayerGroup">
	<g id="Imported-Layers" sketch:type="MSShapeGroup">
		<path id="Fill-1" fill="#F1D364" d="M89,4235.77c0,1.772-1.45,3.224-3.223,3.224H34.222c-1.772,0-3.222-1.45-3.222-3.224V4197h58
			V4235.77"/>
		<path id="Fill-2" fill="#ECC01E" d="M34.23,4187h19.621c0.843,0.002,1.652,0.335,2.253,0.927l2.955,3.417
			c0.604,0.594,1.983,1.656,3.941,1.656h23c1.771,0,3,1.256,3,3.028V4197H31v-6.777C31,4188.439,32.448,4186.996,34.23,4187"/>
	</g>
	
		<g id="Fill-4-Copy-_x2B_-Fill-4-Copy-2-_x2B_-Rectangle-601-Copy" transform="translate(9.000000, 23.000000)" sketch:type="MSShapeGroup">
		<path id="Fill-4-Copy" fill="#FFFFFF" d="M67.432,4196H54v-2h13.432l-5.422-5.784l1.491-1.216l7.499,8l-7.499,8l-1.491-1.216
			L67.432,4196z"/>
		<path id="Fill-4-Copy-2" fill="#FFFFFF" d="M34.568,4194H48v2H34.568l5.421,5.784l-1.49,1.216L31,4195l7.499-8l1.491,1.216
			L34.568,4194z"/>
		<rect id="Rectangle-601-Copy" x="50" y="4194" fill="#FFFFFF" width="2" height="2"/>
	</g>
</g>
<path id="Rectangle-11" sketch:type="MSShapeGroup" fill="#666666" d="M96.48,4652.439l4.34,4.439L111.52,4646l1.48,1.561
	L100.82,4660l-5.82-6L96.48,4652.439z"/>
<path id="Imported-Layers-Copy-14" sketch:type="MSShapeGroup" opacity="0.5" fill="#FFFFFF" enable-background="new    " d="
	M81.591,5103.396c0.546-0.547,0.546-1.441,0-1.987s-1.441-0.546-1.987,0L75,5106.027l-4.604-4.619c-0.546-0.545-1.441-0.545-1.987,0
	c-0.545,0.547-0.545,1.441,0,1.987l4.618,4.604l-4.618,4.604c-0.545,0.546-0.545,1.441,0,1.986c0.28,0.267,0.63,0.405,0.994,0.405
	c0.364,0,0.713-0.14,0.994-0.405l4.604-4.617l4.604,4.617c0.28,0.267,0.63,0.405,0.995,0.405c0.362,0,0.713-0.14,0.992-0.405
	c0.547-0.545,0.547-1.44,0-1.986L76.973,5108L81.591,5103.396z"/>
<g id="Page-1_2_" sketch:type="MSPage">
	<path id="Fill-1-Copy-4" sketch:type="MSShapeGroup" fill="#FFFFFF" d="M16.117,5296.883c2.091,2.09,6.66,2.312,8.811,0.162
		l4.329-4.329c2.387-2.376,2.313-6.345-0.163-8.81c-2.465-2.478-6.434-2.551-8.81-0.164l-3.42,3.42
		c1.272-0.06,2.582,0.164,3.791,0.691l1.871-1.87c1.188-1.188,3.177-1.151,4.41,0.08c1.232,1.233,1.269,3.224,0.08,4.41
		l-4.328,4.329c-1.188,1.188-3.56,0.743-5.137,0.684L16.117,5296.883z M21.883,5291.117c-2.166-2.165-6.717-2.256-8.811-0.162
		l-4.329,4.329c-2.387,2.376-2.313,6.345,0.163,8.81c2.465,2.478,6.434,2.551,8.81,0.164l3.409-3.41
		c-1.271,0.061-2.57-0.174-3.779-0.701l-1.871,1.869c-1.188,1.188-3.177,1.152-4.41-0.08s-1.269-3.223-0.081-4.41l4.329-4.328
		c0.862-0.864,2.214-0.737,5.148-0.683c0.03,0,0.042-0.019,0.042-0.019L21.883,5291.117z"/>
</g>
<g id="Imported-Layers-Copy-16" transform="translate(29.000000, 980.000000)" sketch:type="MSLayerGroup">
	<path id="Fill-1_9_" sketch:type="MSShapeGroup" fill="none" stroke="#000000" d="M68-686c-2.21,0-4-1.79-4-4s1.79-4,4-4
		s4,1.79,4,4S70.21-686,68-686L68-686z M68-696c-5,0-8.18,4.29-10,6c1.82,1.71,5,6,10,6s8.18-4.29,10-6C76.18-691.71,73-696,68-696
		L68-696z"/>
	<path id="Fill-2_9_" sketch:type="MSShapeGroup" fill="#0B0B0A" d="M70-690c0,1.1-0.9,2-2,2s-2-0.9-2-2s0.9-2,2-2S70-691.1,70-690"
		/>
</g>
<g id="Path-_x2B_-Oval-12-Copy" transform="translate(32.000000, 1042.000000)" sketch:type="MSLayerGroup">
	<path id="Path" sketch:type="MSShapeGroup" fill="none" stroke="#000000" d="M62-674l2,2l4-4l2,2l-6,6l-4-4L62-674z"/>
	<circle id="Oval-12" sketch:type="MSShapeGroup" fill="none" stroke="#000000" cx="65" cy="-672" r="8">
	</circle>
</g>
<g id="Group-Copy" transform="translate(30.000000, 1009.000000)" sketch:type="MSLayerGroup">
	<path id="Rectangle-67" sketch:type="MSShapeGroup" fill="none" stroke="#000000" d="M60-598l9.584-9.584
		c0.782-0.782,2.053-0.779,2.828-0.004l0.176,0.176c0.779,0.78,0.773,2.051-0.004,2.828L63-595l-5,2L60-598z"/>
	<path id="Path-280" sketch:type="MSShapeGroup" fill="none" stroke="#000000" d="M67.971-606.031l3.062,3"/>
	<path id="Path-280-Copy" sketch:type="MSShapeGroup" fill="none" stroke="#000000" d="M60.971-599.031l3.062,3"/>
	
		<g id="Rectangle-68-Copy-_x2B_-Rectangle-68-Copy-2-_x2B_-Rectangle-68-Copy-3" transform="translate(5.000000, 15.000000)" sketch:type="MSShapeGroup">
		<rect id="Rectangle-68-Copy" x="62" y="-609" width="4" height="1"/>
		<rect id="Rectangle-68-Copy-2" x="68" y="-609" width="2" height="1"/>
		<rect id="Rectangle-68-Copy-3" x="58" y="-609" width="2" height="1"/>
	</g>
</g>
<g id="Imported-Layers-Copy-15" transform="translate(33.000000, 813.000000)" sketch:type="MSLayerGroup">
	<path id="Fill-1_8_" sketch:type="MSShapeGroup" fill="none" stroke="#FFFFFF" d="M64-555c-2.21,0-4-1.79-4-4s1.79-4,4-4
		s4,1.79,4,4S66.21-555,64-555L64-555z M64-565c-5,0-8.18,4.29-10,6c1.82,1.71,5,6,10,6s8.18-4.29,10-6C72.18-560.71,69-565,64-565
		L64-565z"/>
	<path id="Fill-2_8_" sketch:type="MSShapeGroup" fill="#FFFFFF" d="M66-559c0,1.1-0.9,2-2,2s-2-0.9-2-2s0.9-2,2-2S66-560.1,66-559"
		/>
</g>
<g id="Path-_x2B_-Oval-12" transform="translate(35.000000, 879.000000)" sketch:type="MSLayerGroup">
	<path id="Path_1_" sketch:type="MSShapeGroup" fill="none" stroke="#FFFFFF" d="M59-691l2,2l4-4l2,2l-6,6l-4-4L59-691z"/>
	<circle id="Oval-12_1_" sketch:type="MSShapeGroup" fill="none" stroke="#FFFFFF" cx="62" cy="-689" r="8">
	</circle>
</g>
<g id="Group-Copy-5" transform="translate(35.000000, 845.000000)" sketch:type="MSLayerGroup">
	<path id="Rectangle-67_1_" sketch:type="MSShapeGroup" fill="none" stroke="#FFFFFF" d="M57-622l9.584-9.584
		c0.782-0.782,2.053-0.779,2.828-0.004l0.176,0.176c0.779,0.779,0.773,2.051-0.004,2.828L60-619l-5,2L57-622z"/>
	<path id="Path-280_1_" sketch:type="MSShapeGroup" fill="none" stroke="#FFFFFF" d="M64.971-630.031l3.062,3"/>
	<path id="Path-280-Copy_1_" sketch:type="MSShapeGroup" fill="none" stroke="#FFFFFF" d="M57.971-623.031l3.062,3"/>
	
		<g id="Rectangle-68-Copy-_x2B_-Rectangle-68-Copy-2-_x2B_-Rectangle-68-Copy-3_1_" transform="translate(5.000000, 15.000000)" sketch:type="MSShapeGroup">
		<rect id="Rectangle-68-Copy_1_" x="59" y="-633" fill="#FFFFFF" width="4" height="1"/>
		<rect id="Rectangle-68-Copy-2_1_" x="65" y="-633" fill="#FFFFFF" width="2" height="1"/>
		<rect id="Rectangle-68-Copy-3_1_" x="55" y="-633" fill="#FFFFFF" width="2" height="1"/>
	</g>
</g>
<g id="Page-1_3_" sketch:type="MSPage">
	<path id="_x3F_-copy" sketch:type="MSShapeGroup" fill="#FFFFFF" d="M79.027,5205.092h1.75c-0.242-2.235,2.461-3.016,2.461-5.216
		c0-1.889-1.335-2.876-3.206-2.876c-1.265,0-2.287,0.624-3.032,1.508l1.109,1.021c0.502-0.554,1.074-0.9,1.785-0.9
		c0.884,0,1.403,0.555,1.403,1.386C81.297,5201.574,78.664,5202.562,79.027,5205.092L79.027,5205.092z M78.629,5207.674
		c0,0.779,0.554,1.351,1.282,1.351c0.728,0,1.3-0.571,1.3-1.351c0-0.78-0.572-1.352-1.3-1.352
		C79.183,5206.322,78.629,5206.894,78.629,5207.674L78.629,5207.674z"/>
</g>
<g id="Page-1_4_" sketch:type="MSPage">
	<path id="Rectangle-29-Copy-2" sketch:type="MSShapeGroup" fill="#333333" d="M74.832,5030.832
		c-1.564-1.564-4.622-2.832-6.829-2.832H68h24l0,0c-2.209,0-5.268,1.268-6.832,2.832l-3.756,3.756c-0.779,0.78-2.04,0.784-2.824,0
		L74.832,5030.832z"/>
</g>
</svg>
