<?xml version="1.0" encoding="utf-8"?>
<!-- Generator: Adobe Illustrator 19.2.1, SVG Export Plug-In . SVG Version: 6.00 Build 0)  -->
<!DOCTYPE svg PUBLIC "-//W3C//DTD SVG 1.1//EN" "http://www.w3.org/Graphics/SVG/1.1/DTD/svg11.dtd">
<svg version="1.1" id="Layer_1" xmlns:sketch="http://www.bohemiancoding.com/sketch/ns"
	 xmlns="http://www.w3.org/2000/svg" xmlns:xlink="http://www.w3.org/1999/xlink" x="0px" y="0px" width="160px" height="6175px"
	 viewBox="0 0 160 6175" style="enable-background:new 0 0 160 6175;" xml:space="preserve">
<style type="text/css">
	.st0{fill:#FFFFFF;}
	.st1{fill:#090909;}
	.st2{opacity:5.000000e-02;}
	.st3{opacity:0.3;fill:#090909;enable-background:new    ;}
	.st4{opacity:0.3;}
	.st5{fill:#59AD46;}
	.st6{opacity:0.5;fill:#C8C5C5;enable-background:new    ;}
	.st7{fill:#C8C5C5;}
	.st8{fill:#9CCF81;}
	.st9{opacity:0.3;fill:#050505;enable-background:new    ;}
	.st10{fill:#DD4F37;}
	.st11{fill:#7CB244;}
	.st12{fill:#494949;}
	.st13{fill:#FAB718;}
	.st14{fill:#C6C4C4;}
	.st15{fill:url(#Rectangle-path_1_);}
	.st16{fill:url(#Rectangle-path_2_);}
	.st17{fill:#EDC11E;}
	.st18{opacity:0.3;fill:#686969;enable-background:new    ;}
	.st19{opacity:0.5;fill:#FFFFFF;enable-background:new    ;}
	.st20{fill:#030303;}
	.st21{fill:#474747;}
	.st22{fill:#040505;}
	.st23{fill:#010101;}
	.st24{opacity:0.3;fill:#010101;enable-background:new    ;}
	.st25{fill:#333333;}
	.st26{fill:#ABABAB;}
	.st27{fill:#989898;}
	.st28{fill:#F1F0F0;}
	.st29{opacity:0.1;}
	.st30{fill:#0D0D0D;}
	.st31{opacity:0.1;fill:#0D0D0D;enable-background:new    ;}
	.st32{fill:#787878;}
	.st33{fill:#EE2A57;}
	.st34{opacity:0.8;fill:#0D0D0D;enable-background:new    ;}
	.st35{fill:#FED307;}
	.st36{opacity:0.2;fill:#FFFFFF;enable-background:new    ;}
	.st37{opacity:0.5;fill:#010101;enable-background:new    ;}
	.st38{fill:#59BA47;}
	.st39{fill:#222222;}
	.st40{opacity:0.3;enable-background:new    ;}
	.st41{fill:#777777;}
	.st42{fill:#666666;}
	.st43{fill:#FFA500;}
	.st44{opacity:0.5;enable-background:new    ;}
	.st45{fill:#0B0B0A;}
	.st46{fill:#F1D364;}
	.st47{fill:#ECC01E;}
	.st48{fill:none;stroke:#000000;}
	.st49{fill:none;stroke:#FFFFFF;}
	.st50{opacity:0.55;enable-background:new    ;}
	.st51{fill:#F5A623;}
	.st52{fill:none;stroke:#464646;}
	.st53{clip-path:url(#SVGID_2_);enable-background:new    ;}
	.st54{clip-path:url(#SVGID_4_);}
	.st55{clip-path:url(#SVGID_6_);fill:none;stroke:#FFA500;stroke-width:2;stroke-miterlimit:10;}
	.st56{clip-path:url(#SVGID_8_);enable-background:new    ;}
	.st57{clip-path:url(#SVGID_10_);}
	.st58{clip-path:url(#SVGID_12_);fill:none;stroke:#FFA500;stroke-width:2;stroke-miterlimit:10;}
	.st59{fill:none;stroke:#FFA500;stroke-miterlimit:10;}
	.st60{clip-path:url(#SVGID_14_);enable-background:new    ;}
	.st61{clip-path:url(#SVGID_16_);}
	.st62{clip-path:url(#SVGID_18_);fill:none;stroke:#FFA500;stroke-width:2;stroke-miterlimit:10;}
	.st63{clip-path:url(#SVGID_20_);enable-background:new    ;}
	.st64{clip-path:url(#SVGID_22_);}
	.st65{clip-path:url(#SVGID_24_);fill:none;stroke:#FFA500;stroke-width:2;stroke-miterlimit:10;}
	.st66{clip-path:url(#SVGID_26_);fill:#FFFFFF;}
	.st67{clip-path:url(#SVGID_28_);enable-background:new    ;}
	.st68{clip-path:url(#SVGID_30_);}
	.st69{clip-path:url(#SVGID_32_);fill:none;stroke:#464646;stroke-width:2;stroke-miterlimit:10;}
	.st70{clip-path:url(#SVGID_34_);enable-background:new    ;}
	.st71{clip-path:url(#SVGID_36_);}
	.st72{clip-path:url(#SVGID_38_);fill:none;stroke:#464646;stroke-width:2;stroke-miterlimit:10;}
	.st73{fill:none;stroke:#464646;stroke-miterlimit:10;}
	.st74{clip-path:url(#SVGID_40_);enable-background:new    ;}
	.st75{clip-path:url(#SVGID_42_);}
	.st76{clip-path:url(#SVGID_44_);fill:none;stroke:#FFA500;stroke-width:2;stroke-miterlimit:10;}
	.st77{clip-path:url(#SVGID_46_);enable-background:new    ;}
	.st78{clip-path:url(#SVGID_48_);}
	.st79{clip-path:url(#SVGID_50_);}
	.st80{clip-path:url(#SVGID_52_);fill:#FFFFFF;}
	.st81{clip-path:url(#SVGID_54_);fill:none;stroke:#FFA500;stroke-miterlimit:10;}
	.st82{clip-path:url(#SVGID_56_);enable-background:new    ;}
	.st83{clip-path:url(#SVGID_58_);}
	.st84{clip-path:url(#SVGID_60_);fill:none;stroke:#666666;stroke-width:2;stroke-miterlimit:10;}
	.st85{clip-path:url(#SVGID_62_);enable-background:new    ;}
	.st86{clip-path:url(#SVGID_64_);}
	.st87{clip-path:url(#SVGID_66_);fill:none;stroke:#666666;stroke-width:2;stroke-miterlimit:10;}
	.st88{fill:none;stroke:#666666;stroke-miterlimit:10;}
	.st89{clip-path:url(#SVGID_68_);enable-background:new    ;}
	.st90{clip-path:url(#SVGID_70_);}
	.st91{clip-path:url(#SVGID_72_);}
	.st92{clip-path:url(#SVGID_74_);fill:#FFFFFF;}
	.st93{clip-path:url(#SVGID_76_);fill:none;stroke:#666666;stroke-miterlimit:10;}
	.st94{opacity:0.6;}
</style>
<path id="Shape_3_" sketch:type="MSShapeGroup" class="st0" d="M103.8,333.7c-0.3-0.3-3-1.6-3.6-1.8c0-0.1-0.1-0.5-0.2-0.6
	s-0.6-0.3-0.6-0.3s-0.1-0.1-0.1-0.2c0-0.1,0.1-0.2,0.1-0.2c0.1-0.1,0.3-0.4,0.4-0.6c0.1-0.2,0.1-0.8,0.1-0.8c0-0.1,0.2-0.2,0.3-0.2
	c0.2-0.1,0.4-1.3,0.4-1.3c0-0.4-0.2-0.2-0.2-0.5v-1.1c0-1.3-1-2.1-2.3-2.1H98c-1.3,0-2.4,0.8-2.4,2.1v1.1c0,0.3-0.2,0.1-0.2,0.5
	c0,0,0.2,1.2,0.4,1.3c0.1,0.1,0.3,0.1,0.3,0.2c0,0,0.1,0.6,0.1,0.8c0.1,0.2,0.3,0.5,0.4,0.6c0,0,0.1,0.1,0.1,0.2
	c0,0.1-0.1,0.2-0.1,0.2s-0.5,0.2-0.6,0.3s-0.2,0.5-0.2,0.6c-0.5,0.2-3.3,1.4-3.6,1.8c-0.2,0.2-0.2,1.6-0.2,1.6v0.2
	c0,0.3,0.3,0.6,0.6,0.6h10.9c0.3,0,0.6-0.3,0.6-0.6v-0.2C104,335.3,104,333.9,103.8,333.7L103.8,333.7L103.8,333.7z"/>
<g id="Group_4_" transform="translate(90.000000, 136.000000)" sketch:type="MSShapeGroup">
	<path id="Shape_11_" class="st1" d="M12,12v1c0,1.1-0.9,2-2,2H4c-1.1,0-2-0.9-2-2V7c0-1.1,0.9-2,2-2h1V3H4C1.8,3,0,4.8,0,7v6
		c0,2.2,1.8,4,4,4h6c2.2,0,4-1.8,4-4v-1H12L12,12z"/>
	<path id="Shape_12_" class="st1" d="M16,1h-1L9.5,5.5L7,3v7h7l-2.5-2.5L16,2V1L16,1z"/>
</g>
<g id="Group_5_" transform="translate(30.000000, 0.000000)" sketch:type="MSShapeGroup" class="st2">
	<path id="Shape_13_" class="st1" d="M62.2,40.3c0-0.6-0.3-2.5-1-2.8s-3-1.4-3-1.4c0-0.2-0.3-0.6-0.3-1.1c0-0.6,0.3-1.1,0.3-1.1
		c0.3-0.6,1.4-2,1.7-3.1s0.6-3.9,0.6-3.9c0-0.6,0.9-0.9,1.5-1.2c1-0.5,2.1-6.5,2.1-6.5c0-1.9-0.5-1.1-0.5-2.5v-5.2
		C63.6,5.1,57.7,1,51.1,1h-0.3c-6.6,0-12.5,4.1-12.5,10.5v5.2c0,1.4-0.5,0.6-0.5,2.5c0,0,1,6,2,6.5c0.6,0.3,1.6,0.6,1.6,1.2
		c0,0,0.4,2.8,0.7,3.9c0.3,1.1,1.4,2.5,1.8,3.1c0,0,0.3,0.5,0.3,1.1c0,0.5-0.3,1-0.3,1.1c0,0-2.3,1.1-3,1.4c-0.7,0.3-1,2.2-1,2.8
		c-2.6,0.8-16.4,7.1-18,8.7c-1.1,1.1-1.1,7.9-1.1,7.9v0.9c0,1.5,1.6,3.3,3.2,3.3h54.2c1.6,0,3.2-1.7,3.2-3.3v-0.9c0,0,0-6.7-1.1-7.9
		C78.6,47.4,64.8,41.1,62.2,40.3L62.2,40.3L62.2,40.3z M100.7,46.9c-1.2-1.2-11.6-5.9-13.5-6.5c0-0.4-0.2-1.8-0.8-2.1
		c-0.5-0.2-2.2-1-2.2-1c0-0.1-0.2-0.5-0.2-0.9s0.2-0.8,0.2-0.8c0.2-0.5,1.1-1.5,1.3-2.3s0.5-2.9,0.5-2.9c0-0.4,0.7-0.6,1.1-0.9
		c0.7-0.3,1.9-4.8,1.9-4.8c0-1.5-0.1-0.8-0.1-1.9v-3.9c0-4.8-5.1-7.9-10-7.9h-0.2c-4.9,0-10,3.1-10,7.9v3.9c0,1.1-0.1,0.4-0.1,1.9
		c0,0,0.9,4.5,1.6,4.8c0.4,0.2,1.2,0.4,1.2,0.9c0,0,0.3,2.1,0.6,2.9s1.1,1.9,1.3,2.3c0,0,0.2,0.4,0.2,0.8c0,0.4-0.2,0.7-0.2,0.9
		c0,0-1.7,0.8-2.2,1c-0.6,0.2-0.8,1.7-0.8,2.1c-0.2,0.1-0.5,0.2-0.9,0.3c5,2.2,11.1,5.2,12.4,6.6c0.4,0.4,1.6,1.6,1.8,8.1h15
		c1.2,0,2.8-0.8,2.8-2v-0.6C101.5,52.8,101.5,47.8,100.7,46.9L100.7,46.9L100.7,46.9z M31.6,40.4c0-0.4-0.2-1.8-0.8-2.1
		c-0.5-0.2-2.2-1-2.2-1c0-0.1-0.2-0.5-0.2-0.9s0.2-0.8,0.2-0.8c0.2-0.5,1.1-1.5,1.3-2.3s0.5-2.9,0.5-2.9c0-0.4,0.7-0.6,1.1-0.9
		c0.8-0.3,1.9-4.8,1.9-4.8c0-1.5-0.1-0.8-0.1-1.9v-3.9c0-4.8-5.1-7.9-10-7.9h-0.2c-4.9,0-10,3.1-10,7.9v3.9c0,1.1-0.1,0.4-0.1,1.9
		c0,0,0.9,4.5,1.6,4.8c0.4,0.2,1.2,0.4,1.2,0.9c0,0,0.3,2.1,0.5,2.9c0.2,0.8,1.1,1.9,1.3,2.3c0,0,0.2,0.4,0.2,0.8
		c0,0.4-0.2,0.7-0.2,0.9c0,0-1.7,0.8-2.2,1c-0.6,0.2-0.8,1.7-0.8,2.1C12.7,41,2.3,45.8,1.1,46.9c-0.8,0.9-0.8,5.9-0.8,5.9v0.6
		c0,1.2,1.6,1.9,2.8,1.9h15c0.1-6.6,1.3-7.7,1.7-8.1c1.4-1.4,7.5-4.3,12.5-6.6C32.1,40.6,31.8,40.5,31.6,40.4L31.6,40.4L31.6,40.4z"
		/>
</g>
<path id="Shape_14_" sketch:type="MSShapeGroup" class="st3" d="M103.8,103.7c-0.3-0.3-3-1.6-3.6-1.8c0-0.1-0.1-0.5-0.2-0.6
	s-0.6-0.3-0.6-0.3s-0.1-0.1-0.1-0.2c0-0.1,0.1-0.2,0.1-0.2c0.1-0.1,0.3-0.4,0.4-0.6c0.1-0.2,0.1-0.8,0.1-0.8c0-0.1,0.2-0.2,0.3-0.2
	c0.2-0.1,0.4-1.3,0.4-1.3c0-0.4-0.2-0.2-0.2-0.5v-1c0-1.3-1-2.1-2.3-2.1H98c-1.3,0-2.4,0.8-2.4,2.1v1c0,0.3-0.2,0.1-0.2,0.5
	c0,0,0.2,1.2,0.4,1.3c0.1,0.1,0.3,0.1,0.3,0.2c0,0,0.1,0.6,0.1,0.8c0.1,0.2,0.3,0.5,0.4,0.6c0,0,0.1,0.1,0.1,0.2
	c0,0.1-0.1,0.2-0.1,0.2s-0.5,0.2-0.6,0.3s-0.2,0.5-0.2,0.6c-0.5,0.2-3.3,1.4-3.6,1.8c-0.2,0.2-0.2,1.6-0.2,1.6v0.2
	c0,0.3,0.3,0.6,0.6,0.6h10.9c0.3,0,0.6-0.3,0.6-0.6v-0.2C104,105.3,104,103.9,103.8,103.7L103.8,103.7L103.8,103.7z"/>
<path id="Shape_15_" sketch:type="MSShapeGroup" class="st1" d="M98.6,472.8c-0.4,0.4-1,0.4-1.4,0s-0.4-1,0-1.4l1.4-1.4l-1.4-1.4
	c-0.4-0.4-0.4-1,0-1.4s1-0.4,1.4,0l1.4,1.4l1.4-1.4c0.4-0.4,1-0.4,1.4,0s0.4,1,0,1.4l-1.4,1.4l1.4,1.4c0.4,0.4,0.4,1,0,1.4
	s-1,0.4-1.4,0l-1.4-1.4L98.6,472.8L98.6,472.8z"/>
<g id="Group_6_" transform="translate(74.000000, 537.000000)" sketch:type="MSShapeGroup" class="st4">
	<path id="Shape_16_" class="st1" d="M7,7l5.8-5.8C12.6,1.1,12.3,1,12,1H2C1.7,1,1.4,1.1,1.2,1.2L7,7L7,7z"/>
	<path id="Shape_17_" class="st1" d="M7,9L0.2,2.2C0.1,2.4,0,2.7,0,3v6c0,1.1,0.9,2,2,2h10c1.1,0,2-0.9,2-2V3c0-0.3-0.1-0.6-0.2-0.8
		L7,9L7,9z"/>
</g>
<g id="Group_7_" transform="translate(66.000000, 576.000000)" sketch:type="MSShapeGroup" class="st4">
	<path id="Shape_18_" class="st1" d="M14,16L0.7,2.7C0.3,3.3,0,4.1,0,5v12c0,2.2,1.8,4,4,4h20c2.2,0,4-1.8,4-4V5
		c0-0.9-0.3-1.6-0.7-2.3L14,16L14,16z"/>
	<path id="Shape_19_" class="st1" d="M14,14L26.3,1.7C25.7,1.2,24.9,1,24,1H4C3.1,1,2.4,1.3,1.7,1.7L14,14L14,14z"/>
</g>
<g id="Group_8_" transform="translate(72.000000, 677.000000)" sketch:type="MSShapeGroup">
	<path id="Shape_20_" class="st0" d="M12.7,14.8c-0.7-0.5-2-1.6-2-2.3c0-0.8,0.2-1.2,1.5-2.1c1.3-1,2.2-2.3,2.2-3.9
		c0-1.9-0.9-3.7-2.5-4.3h2.4L16,1H8.3C4.9,1,1.6,3.5,1.6,6.4c0,3,2.3,5.4,5.8,5.4c0.2,0,0.5,0,0.7,0c-0.2,0.4-0.4,0.9-0.4,1.4
		c0,0.8,0.5,1.5,1,2H7.4c-4.3,0-7.5,2.6-7.5,5.4c0,2.7,3.6,4.4,7.9,4.4c4.9,0,7.5-2.7,7.5-5.4C15.4,17.5,14.7,16.2,12.7,14.8
		L12.7,14.8L12.7,14.8z M8.6,11.1C6.6,11,4.7,9,4.4,6.4C4.1,3.9,5.4,2,7.4,2c2,0.1,3.9,2.1,4.2,4.6C11.9,9.2,10.6,11.1,8.6,11.1
		L8.6,11.1L8.6,11.1z M7.8,23.8c-2.9,0-5.1-1.8-5.1-4c0-2.1,2.6-3.9,5.6-3.9c0.7,0,1.3,0.1,1.9,0.3c1.6,1.1,2.8,1.7,3.1,2.9
		c0.1,0.2,0.1,0.5,0.1,0.8C13.4,22.1,12,23.8,7.8,23.8L7.8,23.8L7.8,23.8z"/>
	<path id="Shape_21_" class="st0" d="M12.7,14.8c-0.7-0.5-2-1.6-2-2.3c0-0.8,0.2-1.2,1.5-2.1c1.3-1,2.2-2.3,2.2-3.9
		c0-1.9-0.9-3.7-2.5-4.3h2.4L16,1H8.3C4.9,1,1.6,3.5,1.6,6.4c0,3,2.3,5.4,5.8,5.4c0.2,0,0.5,0,0.7,0c-0.2,0.4-0.4,0.9-0.4,1.4
		c0,0.8,0.5,1.5,1,2H7.4c-4.3,0-7.5,2.6-7.5,5.4c0,2.7,3.6,4.4,7.9,4.4c4.9,0,7.5-2.7,7.5-5.4C15.4,17.5,14.7,16.2,12.7,14.8
		L12.7,14.8L12.7,14.8z M8.6,11.1C6.6,11,4.7,9,4.4,6.4C4.1,3.9,5.4,2,7.4,2c2,0.1,3.9,2.1,4.2,4.6C11.9,9.2,10.6,11.1,8.6,11.1
		L8.6,11.1L8.6,11.1z M7.8,23.8c-2.9,0-5.1-1.8-5.1-4c0-2.1,2.6-3.9,5.6-3.9c0.7,0,1.3,0.1,1.9,0.3c1.6,1.1,2.8,1.7,3.1,2.9
		c0.1,0.2,0.1,0.5,0.1,0.8C13.4,22.1,12,23.8,7.8,23.8L7.8,23.8L7.8,23.8z"/>
</g>
<g id="Group_9_" transform="translate(76.000000, 630.000000)" sketch:type="MSShapeGroup">
	<path id="Shape_22_" class="st0" d="M6.4,8.9c-0.3-0.2-1-0.8-1-1.2s0.1-0.6,0.7-1.1c0.6-0.5,1.1-1.2,1.1-1.9c0-0.9-0.4-1.9-1.2-2.2
		h1.2l0.9-0.6H4.3C2.6,1.9,1,3.2,1,4.6c0,1.5,1.2,2.7,2.9,2.7h0.4C4.2,7.5,4.1,7.7,4.1,8c0,0.4,0.2,0.8,0.5,1H3.9
		c-2.1,0-3.8,1.3-3.8,2.7c0,1.3,1.8,2.2,3.9,2.2c2.4,0,3.8-1.3,3.8-2.7C7.7,10.2,7.4,9.6,6.4,8.9L6.4,8.9L6.4,8.9z M4.3,7
		c-1,0-1.9-1.1-2.1-2.3C2,3.4,2.7,2.5,3.7,2.5s1.9,1,2.1,2.3C5.9,6.1,5.3,7.1,4.3,7L4.3,7L4.3,7z M3.9,13.4c-1.5,0-2.5-0.9-2.5-2
		s1.3-1.9,2.8-1.9c0.4,0,0.7,0,1,0.1c0.8,0.5,1.4,0.9,1.5,1.5c0,0.1,0.1,0.2,0.1,0.4C6.7,12.6,6,13.4,3.9,13.4L3.9,13.4L3.9,13.4z"
		/>
	<path id="Shape_23_" class="st0" d="M6.4,8.9c-0.3-0.2-1-0.8-1-1.2s0.1-0.6,0.7-1.1c0.6-0.5,1.1-1.2,1.1-1.9c0-0.9-0.4-1.9-1.2-2.2
		h1.2l0.9-0.6H4.3C2.6,1.9,1,3.2,1,4.6c0,1.5,1.2,2.7,2.9,2.7h0.4C4.2,7.5,4.1,7.7,4.1,8c0,0.4,0.2,0.8,0.5,1H3.9
		c-2.1,0-3.8,1.3-3.8,2.7c0,1.3,1.8,2.2,3.9,2.2c2.4,0,3.8-1.3,3.8-2.7C7.7,10.2,7.4,9.6,6.4,8.9L6.4,8.9L6.4,8.9z M4.3,7
		c-1,0-1.9-1.1-2.1-2.3C2,3.4,2.7,2.5,3.7,2.5s1.9,1,2.1,2.3C5.9,6.1,5.3,7.1,4.3,7L4.3,7L4.3,7z M3.9,13.4c-1.5,0-2.5-0.9-2.5-2
		s1.3-1.9,2.8-1.9c0.4,0,0.7,0,1,0.1c0.8,0.5,1.4,0.9,1.5,1.5c0,0.1,0.1,0.2,0.1,0.4C6.7,12.6,6,13.4,3.9,13.4L3.9,13.4L3.9,13.4z"
		/>
</g>
<path id="Shape_24_" sketch:type="MSShapeGroup" class="st5" d="M134,774.5l3-3l3,3l7-7l3,3l-10,10L134,774.5L134,774.5z"/>
<path id="Shape_25_" sketch:type="MSShapeGroup" class="st1" d="M101.9,837l2.3-2.3c0.4-0.4,0.4-1,0-1.4s-1-0.4-1.4,0l-2.3,2.3
	l-2.3-2.3c-0.4-0.4-1-0.4-1.4,0s-0.4,1,0,1.4l2.3,2.3l-2.3,2.3c-0.4,0.4-0.4,1,0,1.4c0.2,0.2,0.4,0.3,0.7,0.3s0.5-0.1,0.7-0.3
	l2.3-2.3l2.3,2.3c0.2,0.2,0.4,0.3,0.7,0.3s0.5-0.1,0.7-0.3c0.4-0.4,0.4-1,0-1.4L101.9,837L101.9,837z"/>
<g id="Group_14_" transform="translate(1.000000, 1624.000000)" sketch:type="MSShapeGroup">
	<path id="Shape_38_" class="st6" d="M68.5,48.7c4-2.2,6.9-5.5,7-9.9c0.2-9.5-9.2-16.4-18.6-18.3l-0.4-0.1c0.6,6-0.9,11.7-4.4,16.2
		c-3.6,4.6-9,7.6-15.4,9c3.1,3.7,8.1,6,14,6.4c2.8,0.2,5.8,0,8.7-0.4c3.1,2.4,7.7,2.6,11.5,2.3c1.2-0.1,1-0.6,0.1-0.8
		c-1.8-0.4-3.2-1.7-3.2-3.5C67.9,49.2,68.2,48.9,68.5,48.7L68.5,48.7L68.5,48.7z"/>
	<path id="Shape_39_" class="st7" d="M53.8,17.6C50.8,4.4,37.4,0,24.2,2.8c-12,2.6-24,11.6-23.7,24c0.2,5.7,3.8,10.1,8.9,12.9
		c0.3,0.2,0.8,0.6,0.8,1.2c0.1,2.4-1.7,4-4,4.6c-1.2,0.3-1.5,0.9,0.1,1.1c4.9,0.3,10.7,0.1,14.7-3c3.7,0.5,7.4,0.8,11.1,0.5
		C47.1,42.9,57.1,32.1,53.8,17.6L53.8,17.6L53.8,17.6z"/>
</g>
<g id="Group_15_" transform="translate(1.000000, 1723.000000)" sketch:type="MSShapeGroup">
	<path id="Shape_40_" class="st8" d="M48.1,33.9l15-9.2l6.7,13.2c1.6,7.2-7.3,9.9-14.4,9.4L48.1,33.9L48.1,33.9z"/>
	<path id="Shape_41_" class="st8" d="M44.7,43.4l-7.9,14.2L44.7,72l0.2-5.8h7.2c2.6,0.2,6-1.5,7.3-4.1l9.2-17.3
		c-3.1,3.1-7,3.9-11.5,3.9H45L44.7,43.4L44.7,43.4z"/>
	<path id="Shape_42_" class="st8" d="M27.1,25.8L12,16.9l8.1-12.4c5.4-5,12,1.7,15.1,8.3L27.1,25.8L27.1,25.8z"/>
	<path id="Shape_43_" class="st8" d="M36.8,24.3l16,0.1l8.5-14l-5,2.6l-3.5-6.4c-1.1-2.5-4.2-4.7-7-4.6L26.5,2.1
		c4.1,1.2,6.7,4.4,8.9,8.4l5.9,10.9L36.8,24.3L36.8,24.3z"/>
	<path id="Shape_44_" class="st8" d="M0.4,25.1l4.7,3.6l-4.4,8.4c-2.2,3.9,1.6,7.7,4,9s6.1,1.5,9.5,1.4l6.2-10.1l4.7,2.5L17,24.8
		L0.4,25.1L0.4,25.1z"/>
	<path id="Shape_45_" class="st8" d="M1.1,44.6l10.1,18.6c2,2.6,5.8,3.2,9.8,3.1h10.6V48.7l-20.1-0.1C8.3,48.8,4.2,48.1,1.1,44.6
		L1.1,44.6L1.1,44.6z"/>
</g>
<path id="Shape_46_" sketch:type="MSShapeGroup" class="st9" d="M9,1853.6l3.1,5.4H5.9L9,1853.6L9,1853.6z M9,1848.5l-7.5,13h15
	L9,1848.5L9,1848.5z"/>
<g id="Group_17_" transform="translate(11.000000, 2077.000000)" sketch:type="MSShapeGroup">
	<circle id="Oval" class="st10" cx="8" cy="9" r="8"/>
	<g id="Shape_49_" transform="translate(4.000000, 2.000000)">
		<path id="Shape_26_" class="st0" d="M6.4,7.9c-0.3-0.2-1-0.8-1-1.2s0.1-0.6,0.7-1.1c0.6-0.5,1.1-1.2,1.1-1.9
			c0-0.9-0.4-1.9-1.2-2.1h1.2L8.1,1H4.3C2.6,1,1,2.3,1,3.7c0,1.5,1.2,2.7,2.9,2.7h0.4C4.2,6.6,4.1,6.8,4.1,7.1c0,0.4,0.2,0.8,0.5,1
			H3.9c-2.1,0-3.8,1.3-3.8,2.7S1.9,13,4,13c2.4,0,3.8-1.3,3.8-2.7C7.7,9.2,7.4,8.6,6.4,7.9L6.4,7.9L6.4,7.9z M4.3,6.1
			c-1,0-1.9-1.1-2.1-2.3C2,2.5,2.7,1.6,3.7,1.6s1.9,1,2.1,2.3C5.9,5.1,5.3,6.1,4.3,6.1L4.3,6.1L4.3,6.1z M3.9,12.4
			c-1.5,0-2.5-0.9-2.5-2s1.3-1.9,2.8-1.9c0.4,0,0.7,0.1,1,0.1C6,9.1,6.6,9.5,6.7,10.1c0,0.1,0.1,0.2,0.1,0.4
			C6.7,11.6,6,12.4,3.9,12.4L3.9,12.4L3.9,12.4z"/>
		<path id="Shape_27_" class="st0" d="M6.4,7.9c-0.3-0.2-1-0.8-1-1.2s0.1-0.6,0.7-1.1c0.6-0.5,1.1-1.2,1.1-1.9
			c0-0.9-0.4-1.9-1.2-2.1h1.2L8.1,1H4.3C2.6,1,1,2.3,1,3.7c0,1.5,1.2,2.7,2.9,2.7h0.4C4.2,6.6,4.1,6.8,4.1,7.1c0,0.4,0.2,0.8,0.5,1
			H3.9c-2.1,0-3.8,1.3-3.8,2.7S1.9,13,4,13c2.4,0,3.8-1.3,3.8-2.7C7.7,9.2,7.4,8.6,6.4,7.9L6.4,7.9L6.4,7.9z M4.3,6.1
			c-1,0-1.9-1.1-2.1-2.3C2,2.5,2.7,1.6,3.7,1.6s1.9,1,2.1,2.3C5.9,5.1,5.3,6.1,4.3,6.1L4.3,6.1L4.3,6.1z M3.9,12.4
			c-1.5,0-2.5-0.9-2.5-2s1.3-1.9,2.8-1.9c0.4,0,0.7,0.1,1,0.1C6,9.1,6.6,9.5,6.7,10.1c0,0.1,0.1,0.2,0.1,0.4
			C6.7,11.6,6,12.4,3.9,12.4L3.9,12.4L3.9,12.4z"/>
	</g>
</g>
<path id="Shape_50_" sketch:type="MSShapeGroup" class="st11" d="M137,2186l1.7-1.8l2.2,2.2l4.4-4.4l1.7,1.8l-6.1,6.2L137,2186
	L137,2186z"/>
<path id="Shape_51_" sketch:type="MSShapeGroup" class="st12" d="M138.4,2041c2.8,0,5.6-1.1,7.6-3.1l12.9-12.9l-12.9-12.9
	c-2-2-4.7-3.1-7.6-3.1h-5.2v32H138.4L138.4,2041z"/>
<path id="Shape_52_" sketch:type="MSShapeGroup" class="st13" d="M37,2259.4l12.3,20.6H24.6L37,2259.4L37,2259.4z M37,2240l-30,50
	h60L37,2240L37,2240z"/>
<path id="Shape_53_" sketch:type="MSShapeGroup" class="st14" d="M2,2371c0,19.3,15.7,35,35,35s35-15.7,35-35s-15.7-35-35-35
	S2,2351.7,2,2371L2,2371L2,2371z M7,2371c0-16.6,13.4-30,30-30s30,13.4,30,30s-13.4,30-30,30S7,2387.6,7,2371L7,2371L7,2371z"/>
<path id="Shape_54_" sketch:type="MSShapeGroup" class="st14" d="M44.9,2354.2c0,1.2-0.5,2.3-1.4,3.2c-0.9,0.9-2.1,1.3-3.4,1.3
	c-1.3,0-2.5-0.4-3.4-1.3c-0.9-0.9-1.4-1.9-1.4-3.2c0-1.2,0.5-2.3,1.4-3.2s2.1-1.3,3.4-1.3c1.3,0,2.4,0.4,3.4,1.3
	C44.4,2351.9,44.9,2353,44.9,2354.2L44.9,2354.2L44.9,2354.2z M44.4,2384l-0.5,2.2c-1.6,0.6-2.9,1.1-3.9,1.4c-1,0.3-2.1,0.5-3.3,0.5
	c-2,0-3.5-0.5-4.6-1.4c-1.1-1-1.6-2.2-1.6-3.6c0-0.6,0-1.2,0.1-1.8s0.2-1.3,0.4-2l2-7.1c0.2-0.7,0.3-1.3,0.4-1.9
	c0.1-0.6,0.2-1.2,0.2-1.7c0-0.9-0.2-1.5-0.6-1.9c-0.4-0.4-1.1-0.5-2.1-0.5c-0.5,0-1.1,0.1-1.6,0.2c-0.5,0.2-1,0.3-1.4,0.5l0.5-2.2
	c1.3-0.5,2.6-1,3.8-1.4c1.2-0.4,2.4-0.6,3.4-0.6c1.9,0,3.4,0.5,4.5,1.4c1,0.9,1.6,2.2,1.6,3.6c0,0.3,0,0.9-0.1,1.6
	c-0.1,0.8-0.2,1.5-0.4,2.1l-2,7.1c-0.2,0.6-0.3,1.2-0.4,2c-0.1,0.7-0.2,1.3-0.2,1.7c0,0.9,0.2,1.6,0.6,1.9c0.4,0.4,1.2,0.5,2.2,0.5
	c0.5,0,1-0.1,1.7-0.3C43.7,2384.3,44.1,2384.1,44.4,2384L44.4,2384L44.4,2384z"/>
<path id="Shape_55_" sketch:type="MSShapeGroup" class="st14" d="M2,2481c0,19.3,15.7,35,35,35s35-15.7,35-35s-15.7-35-35-35
	S2,2461.7,2,2481L2,2481L2,2481z M7,2481c0-16.6,13.4-30,30-30s30,13.4,30,30s-13.4,30-30,30S7,2497.6,7,2481L7,2481L7,2481z"/>
<path id="Shape_56_" sketch:type="MSShapeGroup" class="st14" d="M40,2494.2c0,1.2-0.5,2.3-1.4,3.2c-0.9,0.9-2,1.3-3.3,1.3
	s-2.4-0.4-3.3-1.3c-0.9-0.9-1.4-1.9-1.4-3.2c0-1.2,0.5-2.3,1.4-3.2s2-1.4,3.3-1.4c1.2,0,2.4,0.4,3.3,1.4
	C39.6,2491.9,40,2493,40,2494.2L40,2494.2L40,2494.2z M48.8,2472.7c0,3.3-1.1,5.9-3.4,8c-2.2,2-5.2,3.2-9,3.5l-0.1,3.3h-2.2v-9.5
	c2.4-0.2,4.2-0.9,5.5-2.2s2-3.1,2-5.3c0-1.8-0.5-3.2-1.4-4.3c-0.9-1.1-2.2-1.6-3.8-1.6c-0.7,0-1.3,0.1-1.8,0.2
	c-0.5,0.1-1,0.4-1.5,0.6c0.2,0.5,0.4,1.2,0.6,2c0.2,0.8,0.3,1.6,0.3,2.3c0,1.1-0.4,2-1.1,2.6c-0.7,0.6-1.8,0.9-3.1,0.9
	c-1.2,0-2.2-0.4-2.9-1.2s-1.1-1.8-1.1-2.9c0-1.9,1.1-3.4,3.2-4.8c2.1-1.3,4.7-1.9,7.7-1.9c3.6,0,6.4,0.9,8.7,2.8
	C47.7,2467.2,48.8,2469.6,48.8,2472.7L48.8,2472.7L48.8,2472.7z"/>
<path id="Shape_57_" sketch:type="MSShapeGroup" class="st14" d="M2,2591c0,19.3,15.7,35,35,35s35-15.7,35-35s-15.7-35-35-35
	S2,2571.7,2,2591L2,2591L2,2591z M7,2591c0-16.6,13.4-30,30-30s30,13.4,30,30s-13.4,30-30,30S7,2607.6,7,2591L7,2591L7,2591z"/>
<path id="Shape_58_" sketch:type="MSShapeGroup" class="st14" d="M41.4,2603.9c0,1.2-0.5,2.3-1.4,3.2c-0.9,0.9-2,1.3-3.3,1.3
	s-2.4-0.4-3.3-1.3c-0.9-0.9-1.4-1.9-1.4-3.2c0-1.2,0.5-2.3,1.4-3.2c0.9-0.9,2-1.4,3.3-1.4c1.2,0,2.3,0.5,3.3,1.4
	C41,2601.6,41.4,2602.6,41.4,2603.9L41.4,2603.9L41.4,2603.9z M41.5,2576.9c0,0.7-0.1,1.6-0.4,2.6c-0.2,1.1-0.5,2.4-0.9,3.9
	c-0.3,1.4-0.7,3.1-1.2,5.2c-0.4,2.1-0.9,4.7-1.4,7.8h-1.9c-0.5-3.1-1-5.7-1.4-7.8c-0.4-2.1-0.8-3.8-1.2-5.2
	c-0.3-1.3-0.6-2.5-0.9-3.8c-0.3-1.2-0.4-2.1-0.4-2.8c0-1.2,0.5-2.3,1.4-3.2c0.9-0.9,2-1.3,3.3-1.3s2.4,0.4,3.3,1.3
	C41,2574.6,41.5,2575.6,41.5,2576.9L41.5,2576.9L41.5,2576.9z"/>
<linearGradient id="Rectangle-path_1_" gradientUnits="userSpaceOnUse" x1="-3814.7407" y1="8923.75" x2="-3814.7407" y2="8924.75" gradientTransform="matrix(160 0 0 -16 610438.5 145567)">
	<stop  offset="0" style="stop-color:#FFFFFF;stop-opacity:0"/>
	<stop  offset="1" style="stop-color:#FFFFFF"/>
</linearGradient>
<rect id="Rectangle-path_10_" y="2771" sketch:type="MSShapeGroup" class="st15" width="160" height="16">
</rect>
<linearGradient id="Rectangle-path_2_" gradientUnits="userSpaceOnUse" x1="-3814.7407" y1="8923.75" x2="-3814.7407" y2="8924.75" gradientTransform="matrix(160 0 0 -16 610438.5 145627)">
	<stop  offset="0" style="stop-color:#FFFFFF"/>
	<stop  offset="1" style="stop-color:#FFFFFF;stop-opacity:0"/>
</linearGradient>
<rect id="Rectangle-path_11_" y="2831" sketch:type="MSShapeGroup" class="st16" width="160" height="16">
</rect>
<g id="Group_20_" transform="translate(11.000000, 2686.000000)" sketch:type="MSShapeGroup">
	<path id="Shape_59_" class="st17" d="M50,7c0-1.2-0.8-2-2-2H28l-4-4H3C1.8,1,1,1.8,1,3v6h49V7L50,7z M0,11v31.8C0,44,1,45,2.2,45
		h47.7c1.2,0,2.2-1,2.2-2.2V11H0L0,11z"/>
	<path id="Shape_60_" class="st0" d="M26.9,17.7L23.6,21c1.2-0.1,2.4,0.1,3.6,0.6l1.8-1.8c1.1-1.2,3-1.2,4.2,0c1.2,1.1,1.2,3,0,4.2
		L29,28.2c-1.2,1.1-3,1.1-4.2,0c-0.4-0.4-1-0.4-1.4,0l-0.7,0.7c-0.4,0.4-0.4,1,0,1.4c2.3,2.3,6.1,2.3,8.4,0l4.2-4.2
		c2.3-2.3,2.3-6.1,0-8.4C33,15.4,29.2,15.4,26.9,17.7L26.9,17.7L26.9,17.7z"/>
	<path id="Shape_61_" class="st0" d="M19.9,24.7l-4.2,4.2c-2.3,2.3-2.3,6.1,0,8.4c2.3,2.3,6.1,2.3,8.4,0l3.3-3.3
		c-1.2,0.1-2.4-0.1-3.6-0.6L22,35.2c-1.2,1.1-3,1.1-4.2,0s-1.1-3,0-4.2l4.2-4.2c1-1,2.5-1.1,3.7-0.4l0,0c0.2,0.1,0.3,0.2,0.5,0.4
		c0.4,0.4,1,0.4,1.4,0l0.7-0.7c0.4-0.4,0.4-1,0-1.4C26,22.4,22.2,22.4,19.9,24.7L19.9,24.7L19.9,24.7z"/>
</g>
<path id="Shape_62_" sketch:type="MSShapeGroup" class="st18" d="M60,2936.9l24.7,41.1H35.3L60,2936.9L60,2936.9z M60,2898L0,2998
	h120L60,2898L60,2898z"/>
<g id="Group_21_" transform="translate(17.000000, 3094.000000)" sketch:type="MSShapeGroup">
	<path id="Shape_63_" class="st19" d="M39.6,23.5c-0.6-0.6-5.8-3-6.7-3.3c0-0.2-0.1-0.9-0.4-1.1c-0.3-0.1-1.1-0.5-1.1-0.5
		c0-0.1-0.1-0.2-0.1-0.4s0.1-0.4,0.1-0.4c0.1-0.2,0.5-0.8,0.6-1.2s0.2-1.5,0.2-1.5c0-0.2,0.3-0.3,0.5-0.4c0.4-0.2,0.7-2.4,0.7-2.4
		c0-0.8-0.3-0.4-0.3-1v-2c0-2.4-2.1-3.8-4.5-3.8h-0.1c-2.5,0-4.3,1.3-4.3,3.8v2c0,0.5-0.3,0.2-0.3,1c0,0,0.3,2.3,0.7,2.4
		c0.2,0.1,0.5,0.2,0.5,0.4c0,0,0.1,1.1,0.2,1.5c0.1,0.4,0.5,0.9,0.7,1.2c0,0,0.1,0.2,0.1,0.4S26,18.6,26,18.6s-0.9,0.4-1.1,0.5
		c-0.3,0.1-0.4,0.9-0.4,1.1c-0.2,0.1-0.6,0.2-1,0.4c2.5,1.1,5.6,2.6,6.3,3.4c0.2,0.2,0.8,0.9,0.9,3.9H39c0.6,0,1.1-0.5,1.1-1.1v-0.3
		C40,26.5,40,23.9,39.6,23.5L39.6,23.5L39.6,23.5z"/>
	<path id="Shape_64_" class="st0" d="M28.8,24.8c-0.8-0.8-7.5-3.9-8.7-4.3c0-0.3-0.1-1.2-0.5-1.4c-0.3-0.1-1.5-0.7-1.5-0.7
		c0-0.1-0.1-0.3-0.1-0.6s0.1-0.5,0.1-0.5c0.2-0.3,0.7-1,0.8-1.5c0.2-0.6,0.3-1.9,0.3-1.9c0-0.3,0.4-0.4,0.7-0.6
		c0.5-0.2,0.9-3.2,0.9-3.2c0-1-0.4-0.6-0.4-1.2V6.3c0-3.2-2.7-4.9-5.9-4.9h-0.1c-3.2,0-5.6,1.7-5.6,4.9v2.6c0,0.7-0.4,0.3-0.4,1.2
		c0,0,0.4,2.9,0.9,3.2c0.3,0.1,0.7,0.3,0.7,0.6c0,0,0.2,1.4,0.3,1.9s0.7,1.2,0.8,1.5c0,0,0.1,0.3,0.1,0.5c0,0.3-0.1,0.5-0.1,0.6
		c0,0-1.1,0.5-1.4,0.7c-0.4,0.2-0.5,1.1-0.5,1.4c-1.3,0.4-8,3.5-8.7,4.3C0,25.4,0,28.7,0,28.7v0.4c0,0.8,0.6,1.4,1.4,1.4H28
		c0.8,0,1.4-0.6,1.4-1.4v-0.4C29.3,28.7,29.3,25.4,28.8,24.8L28.8,24.8L28.8,24.8z"/>
</g>
<path id="Shape_65_" sketch:type="MSShapeGroup" class="st20" d="M13.4,3189l2.3-2.3c0.4-0.4,0.4-1,0-1.4c-0.4-0.4-1-0.4-1.4,0
	l-2.3,2.3l-2.3-2.3c-0.4-0.4-1-0.4-1.4,0c-0.4,0.4-0.4,1,0,1.4l2.3,2.3l-2.3,2.3c-0.4,0.4-0.4,1,0,1.4c0.2,0.2,0.5,0.3,0.7,0.3
	s0.5-0.1,0.7-0.3l2.3-2.3l2.3,2.3c0.2,0.2,0.5,0.3,0.7,0.3s0.5-0.1,0.7-0.3c0.4-0.4,0.4-1,0-1.4L13.4,3189L13.4,3189z"/>
<path id="Shape_66_" sketch:type="MSShapeGroup" class="st21" d="M7.3,2118c-0.6-0.6-1.5-1-2.3-1h16c-0.9,0-1.7,0.4-2.3,1l-4.5,4.5
	c-0.6,0.7-1.7,0.7-2.3,0L7.3,2118L7.3,2118z"/>
<circle id="Oval_1_" sketch:type="MSShapeGroup" class="st0" cx="6" cy="2147" r="1">
</circle>
<path id="Shape_67_" sketch:type="MSShapeGroup" class="st0" d="M5.1,2145c-0.1-0.3,0-0.5,0-0.7c0.1-0.2,0.2-0.4,0.3-0.6
	s0.2-0.3,0.4-0.4l0.4-0.4c0.1-0.1,0.2-0.2,0.3-0.4c0.1-0.1,0.1-0.3,0.1-0.4c0-0.2-0.1-0.4-0.2-0.6c-0.2-0.1-0.4-0.2-0.6-0.2
	s-0.5,0-0.6,0.2c-0.2,0.1-0.4,0.2-0.6,0.4l-1-0.9c0.3-0.3,0.6-0.6,1-0.8s0.8-0.3,1.3-0.3c0.3,0,0.7,0,0.9,0.1
	c0.3,0.1,0.6,0.2,0.8,0.4c0.2,0.2,0.4,0.4,0.5,0.6s0.2,0.5,0.2,0.8c0,0.3-0.1,0.5-0.1,0.7c-0.1,0.2-0.2,0.4-0.4,0.5
	c-0.1,0.2-0.3,0.3-0.4,0.4c-0.2,0.1-0.3,0.3-0.4,0.4c-0.1,0.1-0.2,0.3-0.3,0.5s-0.1,0.4-0.1,0.6L5.1,2145L5.1,2145L5.1,2145
	L5.1,2145z"/>
<g id="Group_22_" transform="translate(5.000000, 499.000000)" sketch:type="MSShapeGroup">
	<rect id="Rectangle-path_12_" y="4" class="st0" width="2" height="5"/>
	<rect id="Rectangle-path_13_" y="1" class="st0" width="2" height="2"/>
</g>
<g id="Group_23_" transform="translate(131.000000, 3182.000000)" sketch:type="MSShapeGroup">
	<path id="Shape_68_" class="st0" d="M14.8,10.1c-0.2-0.3-2.5-1.3-3-1.5c0-0.1-0.1-0.4-0.2-0.5c-0.1,0-0.5-0.2-0.5-0.2
		s0-0.1-0.1-0.2c0-0.1,0.1-0.2,0.1-0.2c0.1-0.1,0.2-0.3,0.3-0.5s0.1-0.7,0.1-0.7c0-0.1,0.1-0.1,0.2-0.2C11.9,6,12,5,12,5
		c0-0.3-0.1-0.2-0.1-0.4V3.7c0-1.1-0.9-1.8-2-1.8l0,0c-1.1,0-2,0.7-2,1.8v0.9c0,0.2-0.1,0.1-0.1,0.4c0,0,0.1,1,0.3,1.1
		c0.1,0.1,0.2,0.1,0.2,0.2c0,0,0.1,0.5,0.1,0.7s0.2,0.4,0.3,0.5c0,0,0.1,0.1,0.1,0.2c0,0.1-0.1,0.2-0.1,0.2S8.3,8.1,8.2,8.1
		C8.1,8.2,8,8.5,8,8.6c-0.4,0.1-2.7,1.2-3,1.5c-0.2,0.2-0.2,1.3-0.2,1.3v0.1C4.8,11.8,5,12,5.3,12h9.1c0.3,0,0.5-0.2,0.5-0.5v-0.1
		C15,11.4,15,10.3,14.8,10.1L14.8,10.1L14.8,10.1z"/>
	<g id="Shape_69_" transform="translate(0.000000, 2.000000)">
		<path id="Shape_28_" class="st0" d="M4.5,7.4c0.3-0.3,1.2-0.7,2-1.1c0-0.1-0.1-0.3-0.1-0.4C6.3,5.9,6,5.7,6,5.7V5.6
			c0-0.1,0-0.1,0-0.1c0-0.1,0.2-0.3,0.2-0.4c0-0.1,0.1-0.5,0.1-0.5c0-0.1,0.1-0.1,0.2-0.1c0.1-0.1,0.2-0.9,0.2-0.9
			c0-0.3-0.1-0.1-0.1-0.3V2.6c0-0.9-0.7-1.4-1.6-1.4l0,0c-0.9,0-1.6,0.6-1.6,1.4v0.7c0,0.2-0.1,0.1-0.1,0.3c0,0,0.1,0.8,0.2,0.9
			c0.1,0,0.2,0.1,0.2,0.1S3.8,5,3.8,5.1S4,5.4,4,5.5v0.1c0,0.1,0,0.1,0,0.1S3.7,5.8,3.6,5.9C3.5,6,3.5,6.2,3.5,6.3
			c-0.4,0.1-2.2,1-2.4,1.2C1,7.7,1,8.6,1,8.6v0.1c0,0.2,0.2,0.4,0.4,0.4H4C4.1,7.8,4.3,7.5,4.5,7.4L4.5,7.4L4.5,7.4z"/>
		<path id="Shape_29_" class="st0" d="M18.9,7.4c-0.2-0.2-2-1.1-2.4-1.2c0-0.1,0-0.3-0.1-0.4c-0.1,0-0.4-0.2-0.4-0.2V5.5
			c0-0.1,0-0.1,0-0.1c0-0.1,0.2-0.3,0.2-0.4c0-0.1,0.1-0.5,0.1-0.5c0-0.1,0.1-0.1,0.2-0.1c0.1-0.1,0.2-0.9,0.2-0.9
			c0-0.3-0.1-0.1-0.1-0.3V2.5c0-0.9-0.7-1.4-1.6-1.4l0,0c-0.9,0-1.6,0.6-1.6,1.4v0.7c0,0.2-0.1,0.1-0.1,0.3c0,0,0.1,0.8,0.2,0.9
			c0.1,0,0.2,0.1,0.2,0.1s0.1,0.4,0.1,0.5S14,5.3,14,5.4v0.1c0,0.1,0,0.1,0,0.1s-0.3,0.1-0.4,0.2c-0.1,0-0.1,0.2-0.1,0.3
			c0.8,0.4,1.7,0.9,2,1.1c0.1,0.1,0.4,0.4,0.5,1.6h2.6c0.2,0,0.4-0.2,0.4-0.4V8.3C19,8.5,19,7.6,18.9,7.4L18.9,7.4L18.9,7.4z"/>
	</g>
</g>
<g id="Group_24_" transform="translate(10.000000, 3219.000000)" sketch:type="MSShapeGroup">
	<path id="Shape_70_" class="st20" d="M0,4v9h16V4H0L0,4z M3.9,11H2.3C2.2,11,2,10.9,2,10.8v-0.1c0,0,0-0.6,0.1-0.6
		C2.2,10,3.3,9.5,3.6,9.4c0,0,0-0.2,0.1-0.2l0.2-0.1V9V8.9c0-0.1-0.1-0.2-0.1-0.2c0-0.1-0.1-0.3-0.1-0.3c0-0.1-0.1-0.1-0.1-0.1
		c-0.1,0-0.2-0.5-0.2-0.5c0-0.2,0-0.1,0-0.2V7.2c0-0.5,0.6-0.9,1.1-0.9l0,0c0.5,0,1.1,0.3,1.1,0.9v0.4v0.2c0,0-0.1,0.5-0.2,0.5
		c-0.1,0-0.1,0-0.1,0.1c0,0,0,0.2-0.1,0.3c0,0.1-0.1,0.2-0.1,0.2V9v0.1l0.2,0.1c0.1,0,0.1,0.2,0.1,0.2h0.1C5,9.6,4.3,10,4.2,10.1
		C4.1,10.2,3.9,10.3,3.9,11L3.9,11L3.9,11z M11.3,11.1c0,0.1-0.2,0.9-0.3,0.9H5.1c-0.2,0-0.3-0.7-0.3-0.9V11c0,0,0-0.7,0.1-0.9
		c0.2-0.2,1.7-0.9,1.9-0.9c0-0.1,0-0.3,0.1-0.3s0.3-0.1,0.3-0.1V8.7c0-0.1,0-0.1,0-0.1C7.2,8.5,7,8.4,7,8.3S6.9,7.9,6.9,7.9
		c0-0.1-0.1-0.1-0.2-0.1C6.6,7.7,6.5,7.1,6.5,7.1c0-0.2,0.1-0.1,0.1-0.3V6.2c0-0.7,0.6-1.1,1.4-1.1l0,0c0.7,0,1.3,0.4,1.3,1.1v0.6
		c0,0.1,0.1,0.1,0.1,0.3c0,0-0.1,0.6-0.2,0.7C9.1,7.8,9,7.9,9,7.9s0,0.3-0.1,0.4c0,0.1-0.2,0.3-0.2,0.3v0.1c0,0.1,0,0.1,0,0.1
		S8.9,8.9,9,8.9s0.1,0.2,0.1,0.3c0.3,0.1,1.8,0.8,1.9,0.9c0.1,0.1,0.1,0.9,0.1,0.9L11.3,11.1L11.3,11.1z M14,10.8
		c0,0.1-0.2,0.2-0.3,0.2h-1.6c0-0.7-0.1-0.8-0.2-0.9c-0.1-0.1-0.8-0.5-1.3-0.7h0.1c0,0,0-0.2,0.1-0.2L11,9.1V9V8.9
		c0-0.1-0.1-0.2-0.1-0.2c0-0.1-0.1-0.3-0.1-0.3c0-0.1-0.1-0.1-0.1-0.1c-0.1,0-0.2-0.5-0.2-0.5V7.6V7.2c0-0.5,0.6-0.9,1.1-0.9l0,0
		c0.5,0,1.1,0.3,1.1,0.9v0.4c0,0.1,0,0,0,0.2c0,0-0.1,0.5-0.2,0.5c0,0-0.1,0-0.1,0.1c0,0,0,0.2-0.1,0.3c0,0.1-0.1,0.2-0.1,0.2V9v0.1
		l0.2,0.1c0.1,0,0.1,0.2,0.1,0.2c0.2,0.1,1.3,0.6,1.5,0.7C14,10.2,14,10.7,14,10.8L14,10.8L14,10.8L14,10.8z"/>
	<path id="Shape_71_" class="st20" d="M15,2H8V1H0v2h15V2L15,2z"/>
</g>
<g id="Group_25_" transform="translate(10.000000, 3259.000000)" sketch:type="MSShapeGroup">
	<path id="Shape_72_" class="st0" d="M0,4v9h16V4H0L0,4z M3.9,11H2.3C2.2,11,2,10.9,2,10.8v-0.1c0,0,0-0.6,0.1-0.6
		C2.2,10,3.3,9.5,3.6,9.4c0,0,0-0.2,0.1-0.2l0.2-0.1V9V8.9c0-0.1-0.1-0.2-0.1-0.2c0-0.1-0.1-0.3-0.1-0.3c0-0.1-0.1-0.1-0.1-0.1
		c-0.1,0-0.2-0.5-0.2-0.5c0-0.2,0-0.1,0-0.2V7.2c0-0.5,0.6-0.9,1.1-0.9l0,0c0.5,0,1.1,0.3,1.1,0.9v0.4v0.2c0,0-0.1,0.5-0.2,0.5
		c-0.1,0-0.1,0-0.1,0.1c0,0,0,0.2-0.1,0.3c0,0.1-0.1,0.2-0.1,0.2V9v0.1l0.2,0.1c0.1,0,0.1,0.2,0.1,0.2h0.1C5,9.6,4.3,10,4.2,10.1
		C4.1,10.2,3.9,10.3,3.9,11L3.9,11L3.9,11z M11.3,11.1c0,0.1-0.2,0.9-0.3,0.9H5.1c-0.2,0-0.3-0.7-0.3-0.9V11c0,0,0-0.7,0.1-0.9
		c0.2-0.2,1.7-0.9,1.9-0.9c0-0.1,0-0.3,0.1-0.3s0.3-0.1,0.3-0.1V8.7c0-0.1,0-0.1,0-0.1C7.2,8.5,7,8.4,7,8.3S6.9,7.9,6.9,7.9
		c0-0.1-0.1-0.1-0.2-0.1C6.6,7.7,6.5,7.1,6.5,7.1c0-0.2,0.1-0.1,0.1-0.3V6.2c0-0.7,0.6-1.1,1.4-1.1l0,0c0.7,0,1.3,0.4,1.3,1.1v0.6
		c0,0.1,0.1,0.1,0.1,0.3c0,0-0.1,0.6-0.2,0.7C9.1,7.8,9,7.9,9,7.9s0,0.3-0.1,0.4c0,0.1-0.2,0.3-0.2,0.3v0.1c0,0.1,0,0.1,0,0.1
		S8.9,8.9,9,8.9s0.1,0.2,0.1,0.3c0.3,0.1,1.8,0.8,1.9,0.9c0.1,0.1,0.1,0.9,0.1,0.9L11.3,11.1L11.3,11.1z M14,10.8
		c0,0.1-0.2,0.2-0.3,0.2h-1.6c0-0.7-0.1-0.8-0.2-0.9c-0.1-0.1-0.8-0.5-1.3-0.7h0.1c0,0,0-0.2,0.1-0.2L11,9.1V9V8.9
		c0-0.1-0.1-0.2-0.1-0.2c0-0.1-0.1-0.3-0.1-0.3c0-0.1-0.1-0.1-0.1-0.1c-0.1,0-0.2-0.5-0.2-0.5V7.6V7.2c0-0.5,0.6-0.9,1.1-0.9l0,0
		c0.5,0,1.1,0.3,1.1,0.9v0.4c0,0.1,0,0,0,0.2c0,0-0.1,0.5-0.2,0.5c0,0-0.1,0-0.1,0.1c0,0,0,0.2-0.1,0.3c0,0.1-0.1,0.2-0.1,0.2V9v0.1
		l0.2,0.1c0.1,0,0.1,0.2,0.1,0.2c0.2,0.1,1.3,0.6,1.5,0.7C14,10.2,14,10.7,14,10.8L14,10.8L14,10.8L14,10.8z"/>
	<path id="Shape_73_" class="st0" d="M15,2H8V1H0v2h15V2L15,2z"/>
</g>
<g id="Group_26_" transform="translate(9.000000, 3294.000000)" sketch:type="MSShapeGroup" class="st2">
	<path id="Shape_74_" class="st22" d="M140.8,130.9l-8.9-5.9c-6-4-9.6-10.7-9.6-17.9c-0.1-16.4,0.1-6.4,0.1-26.9
		c0-23.4-12.5-54.6-36-62.8C86.2,9.5,79.9,1,72,1S57.8,9.6,57.6,17.4c-23.5,8.2-36,39.3-36,62.8c0,20.5,0.2,10.5,0.1,26.9
		c0,7.2-3.7,13.9-9.6,17.9l-8.9,5.9c-2,1.3-3.2,3.6-3.2,6v5.7c0,2.7,2.1,4.8,4.8,4.8h134.4c2.6,0,4.8-2.1,4.8-4.8v-5.7
		C144,134.4,142.8,132.2,140.8,130.9L140.8,130.9L140.8,130.9z"/>
	<path id="Shape_75_" class="st22" d="M88.6,149.8H55.4c-1.5,0-2.6,1.3-2.4,2.8c1.3,9.3,9.3,16.4,19,16.4s17.7-7.1,19-16.4
		C91.2,151.1,90.1,149.8,88.6,149.8L88.6,149.8L88.6,149.8z"/>
</g>
<g id="Group_27_" transform="translate(13.000000, 3535.000000)" sketch:type="MSShapeGroup" class="st4">
	<path id="Shape_76_" class="st23" d="M13.3,5.3C12.6,2,9.4,0.9,6.2,1.6c-2.9,0.6-5.7,2.9-5.6,6c0,1.4,0.9,2.5,2.1,3.2
		c0.1,0.1,0.2,0.2,0.2,0.3c0,0.6-0.4,1-1,1.1c-0.3,0.1-0.3,0.2,0,0.3c1.2,0.1,2.5,0,3.5-0.7C6.3,11.9,7.2,12,8,11.9
		C11.7,11.7,14.1,9,13.3,5.3L13.3,5.3L13.3,5.3z"/>
</g>
<path id="Shape_77_" sketch:type="MSShapeGroup" class="st0" d="M26.3,3610.3c-0.7-3.3-3.9-4.4-7.1-3.7c-2.9,0.6-5.7,2.9-5.6,6
	c0,1.4,0.9,2.5,2.1,3.2c0.1,0.1,0.2,0.2,0.2,0.3c0,0.6-0.4,1-1,1.1c-0.3,0.1-0.3,0.2,0,0.3c1.2,0.1,2.5,0,3.5-0.7
	c0.9,0.1,1.8,0.2,2.6,0.1C24.7,3616.7,27.1,3614,26.3,3610.3L26.3,3610.3L26.3,3610.3z"/>
<path id="Shape_79_" sketch:type="MSShapeGroup" class="st24" d="M142,3726h8l-4,4L142,3726L142,3726z"/>
<path id="Shape_80_" sketch:type="MSShapeGroup" class="st0" d="M11,3767.5l1.6,2.6H9.3L11,3767.5L11,3767.5z M11,3764l-5,8h10
	L11,3764L11,3764z"/>
<path id="Shape_81_" sketch:type="MSShapeGroup" class="st25" d="M3.3,3832c-0.6-0.6-1.5-1-2.3-1h16c-0.9,0-1.7,0.4-2.3,1l-4.5,4.5
	c-0.6,0.7-1.7,0.7-2.3,0L3.3,3832L3.3,3832z"/>
<g id="Imported-Layers-9-_x2B_-Path_1_" transform="translate(9.000000, 1897.000000)" sketch:type="MSShapeGroup">
	<g id="Imported-Layers-9_1_">
		<path id="Fill-1_22_" class="st26" d="M18,16c0,0.6-0.4,1-1,1H1c-0.6,0-1-0.4-1-1V5h18V16"/>
		<path id="Fill-2_22_" class="st27" d="M1,1h6.1c0.3,0,0.5,0.1,0.7,0.3l0.9,0.9C9.3,2.9,9.7,3,10,3h7c0.6,0,1,0.4,1,1v1H0V2
			C0,1.4,0.4,1,1,1"/>
	</g>
</g>
<g id="Imported-Layers-9-_x2B_-Path_2_" transform="translate(9.000000, 1937.000000)" sketch:type="MSShapeGroup">
	<g id="Imported-Layers-9_2_">
		<path id="Fill-1_1_" class="st28" d="M18,16c0,0.6-0.4,1-1,1H1c-0.6,0-1-0.4-1-1V5h18V16"/>
		<path id="Fill-2_1_" class="st0" d="M1,1h6.1c0.3,0,0.5,0.1,0.7,0.3l0.9,0.9C9.3,2.9,9.7,3,10,3h7c0.6,0,1,0.4,1,1v1H0V2
			C0,1.4,0.4,1,1,1"/>
	</g>
</g>
<g id="Imported-Layers-9-_x2B_-Path_4_" transform="translate(9.000000, 1977.000000)" sketch:type="MSShapeGroup">
	<g id="Imported-Layers-9_4_">
		<path id="Fill-1_3_" class="st26" d="M18,16c0,0.6-0.4,1-1,1H1c-0.6,0-1-0.4-1-1V5h18V16"/>
		<path id="Fill-2_3_" class="st27" d="M1,1h6.1c0.3,0,0.5,0.1,0.7,0.3l0.9,0.9C9.3,2.9,9.7,3,10,3h7c0.6,0,1,0.4,1,1v1H0V2
			C0,1.4,0.4,1,1,1"/>
	</g>
</g>
<g id="Imported-Layers-9-_x2B_-Path_3_" transform="translate(9.000000, 2017.000000)" sketch:type="MSShapeGroup">
	<g id="Imported-Layers-9_3_">
		<path id="Fill-1_2_" class="st28" d="M18,16c0,0.6-0.4,1-1,1H1c-0.6,0-1-0.4-1-1V5h18V16"/>
		<path id="Fill-2_2_" class="st0" d="M1,1h6.1c0.3,0,0.5,0.1,0.7,0.3l0.9,0.9C9.3,2.9,9.7,3,10,3h7c0.6,0,1,0.4,1,1v1H0V2
			C0,1.4,0.4,1,1,1"/>
	</g>
</g>
<g id="Page-1_1_" transform="translate(9.000000, 1233.000000)" sketch:type="MSShapeGroup" class="st29">
	<g id="Imported-Layers-2_1_">
		<path id="Fill-1_6_" class="st30" d="M129.7,93.3c7.4-4.2,12.6-10.8,12.9-19.2c0.4-18.4-16.8-31.9-34.1-35.7c-2-0.4-4.1-0.8-6.1-1
			c-0.2-1.6-0.5-3.3-0.8-5C96,6.5,70.5-2.1,45.7,3.4C23,8.4,0.3,26.2,0.9,50.4c0.3,11.1,7.2,19.7,16.9,25.3c0.6,0.5,1.4,1.3,1.5,2.3
			c0.2,4.7-3.2,7.8-7.6,9c-2.3,0.6-2.8,1.8,0.1,2.1c9.3,0.6,20.2,0.3,27.8-5.9c7.1,1,14.1,1.5,21,1c2.8-0.2,5.5-0.6,8.1-1.1
			c5.1,9.6,15.6,15.9,28.7,16.8c5.2,0.4,10.6,0,15.9-0.7c5.8,4.7,14.1,5,21.2,4.5c2.2-0.2,1.8-1.1,0.1-1.6c-3.3-0.9-6-3.3-5.8-6.9
			C128.6,94.3,129.2,93.7,129.7,93.3"/>
		<path id="Fill-2_6_" class="st0" d="M128.3,91.5l0.1-0.1l0.1-0.1c9.5-5.4,11.6-12.5,11.8-17.4c0.4-17.2-16-29.9-32.4-33.5
			c-2.2-0.5-4.4-0.8-6.6-1c0.8,10-1.7,19.1-7.3,26.6S80.1,78.8,70.1,81.3c0.7,1.3,1.5,2.6,2.4,3.9c5.4,7.2,14.1,11.5,24.7,12.3
			c1.3,0.1,2.7,0.2,4.1,0.2c3.4,0,7-0.3,11.3-0.9l1-0.1l0.7,0.6c3.3,2.7,8.1,4.1,14.4,4.2c-1.8-1.7-2.7-4-2.6-6.5
			C126.4,93.7,127.1,92.4,128.3,91.5"/>
		<path id="Fill-3_1_" class="st0" d="M17.6,87c-0.3,0-0.6,0-1,0c3.1-2.2,4.9-5.5,4.7-9.2c-0.1-1.5-0.9-2.9-2.3-4l-0.1-0.1l-0.1-0.1
			C8.9,67.9,3.2,59.6,3,50.2c-0.5-23,21.2-39.9,43.1-44.7c4.6-1,9.2-1.5,13.7-1.5c20.9,0,35.7,10.8,39.6,28.8
			c2.7,12.4,0.6,23.6-6.1,32.6c-7.2,9.6-18.9,15.4-33,16.4c-1.8,0.1-3.6,0.2-5.5,0.2l0,0c-4.5,0-9.2-0.4-15-1.2l-1-0.1l-0.7,0.6
			C33.3,85.2,26.7,87,17.6,87"/>
	</g>
</g>
<g id="empty-cloud" transform="translate(4.000000, 899.000000)" sketch:type="MSShapeGroup">
	<path id="Fill-1_5_" class="st31" d="M0.3,73.5c0,18.4,14.1,33.4,31.4,33.4h89.9c17.3,0,31.4-15,31.4-33.4
		c0-17.9-13.3-32.6-30-33.4V40c0-21.5-16.4-39-36.7-39C73.2,1,61.7,8.3,55.2,19.3c-2.2-1-4.6-1.6-7.1-1.6c-9.9,0-18,8.6-18,19.1
		c0,1.1,0.1,2.2,0.2,3.2C13.7,40.7,0.3,55.4,0.3,73.5"/>
	<path id="Fill-2_5_" class="st0" d="M31.8,104.7c-16.2,0-29.3-14-29.3-31.2c0-16.9,12.4-30.6,28.2-31.2l2.4-0.1l-0.4-2.4
		c-0.1-0.8-0.2-1.8-0.2-2.9c0-9.4,7.1-17,15.8-17c2.1,0,4.2,0.5,6.2,1.4l1.8,0.8l1-1.7C63.6,9.6,74.6,3.2,86.6,3.2
		c19,0,34.5,16.5,34.5,36.8v2.1l2,0.1C138.8,43,151,56.7,151,73.4c0,17.2-13.1,31.2-29.3,31.2L31.8,104.7"/>
</g>
<g id="Fill-1-_x2B_-Fill-3" transform="translate(16.000000, 1070.000000)" sketch:type="MSShapeGroup">
	<path id="Fill-1_4_" class="st31" d="M7.4,107.7c-4,0-7.2-3.2-7.2-7.2V23.6c0-0.9,0.4-1.8,1.1-2.4c-0.1-0.2-0.1-0.5-0.1-0.7V8.2
		c0-4,3.2-7.2,7.2-7.2h49.8c0.8,0,1.6,0.3,2.2,0.9l7.8,7.8H115c0.1,0,0.2,0,0.3,0c3.8,0,6.9,3.2,6.9,7.2v3.6h2.1
		c1.7,0,3.1,1.4,3.1,3.1v76.9c0,4-3.2,7.2-7.2,7.2L7.4,107.7"/>
	<path id="Fill-2_4_" class="st0" d="M125.3,100.5c0,2.8-2.3,5.1-5.1,5.1H7.4c-2.8,0-5.1-2.3-5.1-5.1V23.6c0-0.6,0.5-1,1-1h121
		c0.6,0,1,0.5,1,1V100.5L125.3,100.5z M3.3,8.2c0-2.8,2.3-5.1,5.1-5.1h49.8c0.3,0,0.5,0.1,0.7,0.3l8.1,8.1c0.2,0.2,0.5,0.3,0.7,0.3
		H115c2.8-0.2,5.1,2.3,5.1,5.1v3.6c0,0.6-0.5,1-1,1H4.3c-0.6,0-1-0.5-1-1L3.3,8.2L3.3,8.2z"/>
</g>
<path id="Fill-1_7_" sketch:type="MSShapeGroup" class="st31" d="M74.6,1462.8c1.1,0,1.9,0.9,1.9,1.9v29c0,1.1-0.9,1.9-1.9,1.9H57.1
	c-0.4,0-0.8,0-1.2,0c-7.9,0-13.3-1.9-16.4-5.8c-0.1-0.1-15.7-29.7-16.6-31.3c-0.9-1.6-1.7-3.4-2-5.6c-0.3-2.7-0.2-5.6,1.1-8
	l6.5-12.5l-7.8-6.1c-1.7-1.3-1.3-2.4,0.8-2.4l29.1-0.3c0.5,0,1.2,0.4,1.4,0.8l14.7,27.3c1,1.9,0.3,2.6-1.6,1.6l-8.4-4.5l-8.5,13.9
	L74.6,1462.8L74.6,1462.8z M128.2,1424.3c-0.5-0.9-1.6-1.3-2.5-0.7l-24.7,15.1c-0.9,0.6-1.2,1.8-0.7,2.7l11.6,21.5H98.6l-0.5-9.9
	c-0.1-2.1-1-2.3-2.1-0.5l-14.4,26c-0.3,0.5-0.3,1.2,0,1.7l14.6,26.6c1,1.9,1.9,1.7,2-0.5l0.4-10.8h9.9c0.3,0,0.6,0,0.9,0
	c5.2,0,10.7-3.4,13-7.8c0,0,13.1-24.8,15.3-29.1c2.2-4.3,3.2-9.4,2-12.1L128.2,1424.3L128.2,1424.3z M126.9,1400
	c1.1-1.8,0.5-2.5-1.4-1.5l-9.3,4.9l-4.8-8.9c-2.1-4.7-7.9-8.6-13-8.6c-0.1,0-0.2,0-0.4,0c0,0-27.4,0.2-31.8,0.2
	c-4.3,0-9.6,0.8-12.1,4.4c-2.5,3.7-13.5,20.7-13.5,20.7c-0.6,0.9-0.3,2.1,0.6,2.6l24.9,14.8c0.9,0.5,2.1,0.2,2.7-0.7l12.7-20.8
	l6.4,11.9l-8,5.2c-1.8,1.1-1.5,2.1,0.6,2.1l29.1,0.3c0.5,0,1.2-0.4,1.5-0.8L126.9,1400L126.9,1400z"/>
<path id="Fill-2_7_" sketch:type="MSShapeGroup" class="st0" d="M101.8,1440.4l12,22.3c11.8,0.7,26.4-3.7,23.7-15.6l-11.1-21.8
	L101.8,1440.4L101.8,1440.4z M96.2,1455.9l-13,23.4l13,23.8l0.3-9.5h11.9c4.3,0.4,9.9-2.5,12-6.7l15.2-28.5
	c-5,5.1-11.5,6.4-18.9,6.4h-20L96.2,1455.9L96.2,1455.9z M67.2,1427l13.2-21.6c-5.1-10.9-17.3-22.3-24.8-13.6l-13.3,20.5L67.2,1427
	L67.2,1427z M83.2,1424.5l26.3,0.2l14-23.1l-8.3,4.3l-5.8-10.6c-1.8-4.1-7-7.7-11.6-7.5L66,1388c6.8,2,11,7.2,14.7,13.8l9.7,17.9
	L83.2,1424.5L83.2,1424.5z M23.3,1425.8l7.7,6l-7.3,13.9c-3.6,6.4,2.6,12.7,6.6,14.8c3.9,2.1,10,2.4,15.6,2.3l10.2-16.7l7.7,4.2
	l-13.4-24.8L23.3,1425.8L23.3,1425.8z M24.4,1458l16.6,30.6c3.3,4.2,9.6,5.2,16.1,5.1h17.5v-29l-33.1-0.2
	C36.3,1464.8,29.6,1463.7,24.4,1458L24.4,1458L24.4,1458z"/>
<g id="Page-1" transform="translate(6.000000, 3670.000000)" sketch:type="MSShapeGroup">
	<path id="Fill-54" class="st32" d="M0.4,5C-0.4,3.5,0,2.1,1.5,1.2c0.5-0.3,1-0.3,1.4,0.2C3.1,1.6,3.8,2.5,4,2.7
		c0.6,0.7,0.6,1.2-0.5,2.2c-0.4,0.4-0.3,1,0,1.3l3.3,3.3c0.3,0.3,0.9,0.4,1.3,0c1-1,1.5-1,2.2-0.5c0.2,0.2,1.1,0.9,1.3,1.1
		c0.5,0.4,0.5,0.8,0.2,1.4c-0.9,1.5-2.3,2-3.8,1.1c-1.6-0.9-3.2-1.8-4.5-3.1S1.3,6.6,0.4,5L0.4,5z"/>
</g>
<path id="Fill-2-Copy-2" sketch:type="MSShapeGroup" class="st33" d="M58,1563.8l-3.8,2.2l1.1-4.1l-3.3-2.5l4.3-0.5l1.7-3.9l1.7,3.9
	l4.3,0.5l-3.3,2.5l1.1,4.1L58,1563.8"/>
<path id="Imported-Layers-Copy-27" sketch:type="MSShapeGroup" class="st34" d="M97,1560.6l7.3-7.3c0.4-0.4,1-0.4,1.4,0s0.4,1,0,1.4
	l-6.3,6.3l6.3,6.3c0.4,0.4,0.4,1,0,1.4c-0.2,0.2-0.4,0.3-0.7,0.3s-0.5-0.1-0.7-0.3l-7.3-7.3V1560.6"/>
<path id="Shape_30_" class="st35" d="M29.5,3892.5l-17.6,10.8l4.8-20.1L1,3869.8l20.6-1.6l7.9-19.1l7.9,19.1l20.6,1.6l-15.7,13.4
	l4.8,20.1L29.5,3892.5z"/>
<path id="Shape_31_" class="st36" d="M29.5,3972.5l-17.6,10.8l4.8-20.1L1,3949.8l20.6-1.6l7.9-19.1l7.9,19.1l20.6,1.6l-15.7,13.4
	l4.8,20.1L29.5,3972.5z"/>
<path id="Shape_32_" class="st37" d="M6,4063h8c2.2,0,4,1.8,4,4v8c0,2.2-1.8,4-4,4H6c-2.2,0-4-1.8-4-4v-8C2,4064.8,3.8,4063,6,4063
	L6,4063z"/>
<path id="Shape_33_" class="st38" d="M14,4115H6c-2.2,0-4,1.8-4,4v8c0,2.2,1.8,4,4,4h8c2.2,0,4-1.8,4-4v-8
	C18,4116.8,16.2,4115,14,4115L14,4115z M8.9,4127l-3.9-4l1.7-1.8l2.2,2.2l4.3-4.4l1.7,1.8L8.9,4127L8.9,4127z"/>
<path id="Shape_34_" class="st39" d="M8.7,4025.4h2c-0.3-2.6,2.8-3.5,2.8-6c0-2.2-1.5-3.3-3.7-3.3c-1.5,0-2.6,0.7-3.5,1.7l1.3,1.2
	c0.6-0.6,1.2-1,2.1-1c1,0,1.6,0.6,1.6,1.6C11.4,4021.3,8.3,4022.5,8.7,4025.4L8.7,4025.4z M8.3,4028.4c0,0.9,0.6,1.6,1.5,1.6
	c0.8,0,1.5-0.7,1.5-1.6c0-0.9-0.7-1.6-1.5-1.6C8.9,4026.8,8.3,4027.5,8.3,4028.4L8.3,4028.4z"/>
<path id="Shape_35_" class="st0" d="M7.8,4168.8c-1.6-1.6-4.6-2.8-6.8-2.8l0,0h24c-2.2,0-5.3,1.3-6.8,2.8l-3.8,3.8
	c-0.8,0.8-2,0.8-2.8,0L7.8,4168.8L7.8,4168.8z"/>
<path id="Rectangle-17-Copy-4" sketch:type="MSShapeGroup" class="st40" d="M103,4463h12l-6,6L103,4463z"/>
<path id="Rectangle-17-Copy-5" sketch:type="MSShapeGroup" class="st40" d="M103,4509h12l-6-6L103,4509z"/>
<path id="Fill-1-Copy-8" sketch:type="MSShapeGroup" class="st41" d="M45.1,4430.9c1.4,1.4,4.4,1.5,5.9,0.1l2.9-2.9
	c1.6-1.6,1.5-4.2-0.1-5.9c-1.6-1.7-4.3-1.7-5.9-0.1l-2.3,2.3c0.8,0,1.7,0.1,2.5,0.5l1.2-1.2c0.8-0.8,2.1-0.8,2.9,0.1
	c0.8,0.8,0.8,2.1,0.1,2.9l-2.9,2.9c-0.8,0.8-2.4,0.5-3.4,0.5L45.1,4430.9z M48.9,4427.1c-1.4-1.4-4.5-1.5-5.9-0.1l-2.9,2.9
	c-1.6,1.6-1.5,4.2,0.1,5.9c1.6,1.7,4.3,1.7,5.9,0.1l2.3-2.3c-0.8,0-1.7-0.1-2.5-0.5l-1.2,1.2c-0.8,0.8-2.1,0.8-2.9-0.1
	c-0.8-0.8-0.8-2.1-0.1-2.9l2.9-2.9c0.6-0.6,1.5-0.5,3.4-0.5l0,0L48.9,4427.1z"/>
<path id="Fill-1-Copy-6" sketch:type="MSShapeGroup" class="st41" d="M53,4394v-1c0-3.3-2.7-6-6-6s-6,2.7-6,6v1h2v-1
	c0-2.2,1.8-4,4-4s4,1.8,4,4v1H53z M41,4395c-0.6,0-1,0.5-1,1v6c0,0.5,0.4,1,1,1h12c0.6,0,1-0.5,1-1v-6c0-0.5-0.4-1-1-1H41z M46,4397
	h2v4h-2V4397z"/>
<path id="Fill-1-Copy-7" sketch:type="MSShapeGroup" class="st41" d="M47,4357c-4.4,0-8,3.6-8,8s3.6,8,8,8s8-3.6,8-8
	S51.4,4357,47,4357z M48.4,4360.6l0.2-0.1L48.4,4360.6h0.3l-0.1,0.2l0.1,0.5h-0.1v0.2l-0.2,0.1h-0.1l0.3-0.2h0.1l0,0h-0.2v-0.2h0.2
	v-0.2h-0.2L48.4,4360.6L48.4,4360.6L48.4,4360.6z M48,4361.2L48,4361.2L48,4361.2l0.3-0.1l0.1,0.1l-0.1,0.1l0.1,0.1l-0.3,0.2
	l-0.1-0.1V4361.2L48,4361.2L48,4361.2L48,4361.2z M45.2,4357.9L45.2,4357.9l0.5,0.1l-0.2,0.1l-0.1,0.1l-0.3,0.1H45h-0.2v0.1
	l-0.2,0.2l-0.3-0.1v-0.1h0.2l0.2-0.2l0.4-0.1l-0.2-0.1v-0.2L45.2,4357.9L45.2,4357.9z M44.4,4358.2l0.3-0.1L44.4,4358.2l-0.1,0.2
	L44.4,4358.2L44.4,4358.2z M44.2,4358.4L44.2,4358.4l0.2,0.2l-0.1,0.1l-0.2-0.1L44.2,4358.4L44.2,4358.4z M43.8,4358.6L43.8,4358.6
	l0.2,0.1l-0.2,0.2l-0.4-0.1L43.8,4358.6L43.8,4358.6z M43.2,4359.2l0.3-0.2l0.2,0.1l-0.1,0.2l0.2-0.1l0.2,0.2l0.1,0.3l-0.2,0.2
	l0.2,0.1l0.1,0.2l-0.3,0.2l-0.1-0.2l-0.2,0.1l0.1,0.3l-0.1,0.2l-0.1-0.2h-0.2l0.1,0.1v0.1l-0.2-0.2l-0.1-0.2h-0.2l0.3-0.1h0.5v-0.2
	v-0.2l-0.2-0.5l-0.2,0.1l-0.3-0.1L43.2,4359.2L43.2,4359.2z M42.2,4359.2c0.2-0.2,0.5-0.4,0.7-0.5l-0.2,0.2h0.2l-0.3,0.2l-0.1,0.2
	l-0.2,0.1L42.2,4359.2L42.2,4359.2L42.2,4359.2z M45.4,4370l-0.1,0.2h-0.1l0.1,0.4l-0.1,0.4H45l-0.3,0.2l0.1,0.4l-0.1,0.6h-0.2h0.2
	l0,0h-0.2v0.1h0.2l0.1,0.2l0.4,0.2c-0.2-0.1-0.4-0.1-0.6-0.2l-0.3-0.1l-0.5-0.4l-0.7-0.8l-0.4-0.6l-0.4-0.2l-1-1.1v-0.2l-0.1-0.1
	l0.1-0.4l-0.1-0.5l0.3-0.3l0.3-0.1v-0.1l-0.3-0.1l-0.2,0.1l-0.2-0.1H41l-0.2-0.2l-0.1-0.2l-0.2-0.2l-0.4-0.5H40l-0.3-0.4l-0.1-0.9
	l0,0c0-2.2,1-4.2,2.6-5.6l-0.1,0.1l0.1,0.1l0.1-0.1l0.2,0.1l0.2-0.1l0.2-0.1v-0.1l0.3-0.2l-0.2,0.2l-0.1,0.1l-0.1,0.1v0.2l0.3-0.2
	v-0.1l0.2,0.2L43,4360h-0.2l-0.2,0.1l-0.2,0.1l-0.2,0.1l-0.2,0.1l-0.5,0.4l0.1,0.1l-0.1,0.2l0.2,0.1l0.1,0.3l0.2,0.1l-0.1,0.4
	l0.1,0.2l0.2-0.1l0.1-0.4l0.2-0.1l0.1-0.2v-0.2l0.2-0.2l0.1-0.4H43h0.1l0.1,0.1l0.1,0.2h0.1l-0.1,0.3l0.1,0.1l0.2-0.1l0.2-0.2
	l0.1,0.4l-0.1,0.1l0.1,0.2l0.3,0.1l-0.4,0.1h0.3l0.1,0.1v0.2l-0.3,0.1l-0.2,0.1l-0.7-0.1l-0.5,0.4l0.5-0.2h0.2l-0.2,0.1l0.1,0.3
	l0.3,0.1l-0.5,0.2c0,0,0.2-0.2,0.1-0.2c-0.1,0-0.5,0.1-0.5,0.1l-0.1,0.2l-0.1,0.1l-0.3,0.1v0.2h-0.1v0.2v0.3l-0.3,0.2l-0.4,0.2v0.4
	v0.5l-0.2-0.3v-0.2l-0.2-0.1l-0.4-0.1v0.1l-0.3-0.1l-0.2,0.2l-0.1,0.7l0.1,0.5l0.3,0.1l0.4-0.1v-0.2l0,0l-0.3,0.6l0.3,0.1v0.6
	l0.3,0.3h0.2l0.2,0.2l0.1,0.3h0.1v-0.2h0.1l0.4,0.2h0.3l0.2,0.1l-0.1,0.1h0.2l0.3,0.3l0.5,0.1l0.4,0.5l-0.2,0.2l0.3,0.1l0.2-0.1
	l0.4,0.2v0.1l0.2-0.2h0.2h0.2l0.3,0.3l0.2,0.1l0.2,0.3L45.4,4370L45.4,4370z M42.6,4360.1v0.2h-0.2l-0.1-0.1L42.6,4360.1
	L42.6,4360.1L42.6,4360.1z M44.1,4362.6l-0.1,0.2l-0.5-0.1l0.4-0.4L44.1,4362.6L44.1,4362.6z M42.4,4366.5h-0.2v-0.1L42.4,4366.5
	L42.4,4366.5L42.4,4366.5z M42.1,4366.4h-0.3l-0.1-0.2h0.2L42.1,4366.4L42.1,4366.4z M41.6,4366.1h-0.4l-0.4-0.4l-0.1,0.1v-0.1h0.2
	L41.6,4366.1L41.6,4366.1z M46.8,4359H47H46.8l-0.2,0.3h-0.1l-0.1,0.3l-0.3,0.2l-0.1-0.1l-0.3,0.3l0.1,0.1l-0.2,0.3v0.2l-0.1,0.2
	l-0.2,0.1l-0.1-0.2l-0.2,0.1l-0.2-0.2l-0.1-0.3h0.2l-0.1-0.1l-0.1,0.1v-0.3l0.2-0.1l0.2-0.4v-0.2l-0.2,0.1l0.1-0.2l0.1-0.4l-0.2-0.1
	l0.1-0.1l0.1-0.1l0.3-0.1l0.2-0.2h0.3h0.2h0.3l-0.1,0.2l0.2,0.2v0.2h-0.2l0.2,0.1L46.8,4359L46.8,4359h-0.4H46.8L46.8,4359z
	 M44.8,4359.3l0.2-0.1v0.2L44.8,4359.3L44.8,4359.3L44.8,4359.3z M54.3,4365.2l-0.3,0.6l-0.1-0.1l-0.2-0.6l-0.5-0.9v-0.1l-0.1,0.1
	l-0.2-0.2l0.3,0.7l0.4,0.9l0.2,0.2l0.1,0.3l0.3-0.2l-0.1,0.7l-0.4,0.7l-0.5,0.8l-0.1,0.5l-0.2,0.5l-0.6,0.4v0.1l-0.2,0.3l-0.4,0.2
	v0.1l-0.8,0.7l-0.4,0.1v-0.1l0.2-0.2l-0.1-0.4l0.1-0.4l-0.1-0.4l0.2-0.4v-0.4v-0.2l-0.3-0.5l0.2-0.2l0.1-0.3l-0.1-0.2l-0.4,0.1v-0.1
	l-0.2-0.1l-0.5,0.2h-0.4l-0.6,0.1l-0.7-0.4v-0.2l-0.3-0.2h-0.1l-0.2-0.3l0.1-0.2l0.1-0.5l-0.1-0.2l0.9-0.9l0.5-0.2v-0.2l0.3-0.5h0.3
	l0.4-0.2l1-0.2l0.1,0.1l-0.1,0.4h0.4l0.7,0.3l0.1-0.3l0.8,0.1l0.4-0.1l-0.1-0.7l-0.2,0.1l-0.2-0.1v0.2l-0.3-0.2l-0.1-0.3h-0.2
	l-0.2,0.1l0.1,0.2l0.2,0.1l-0.1,0.2h-0.2l-0.1-0.2l-0.2-0.2v-0.2l-0.4-0.2l-0.3-0.1v-0.1l-0.1,0.1v0.1l0.3,0.3h0.2l0.1,0.1l0.2,0.1
	v0.1l-0.1-0.1h-0.1l0.1,0.1l-0.2,0.1v0.2l-0.3-0.2h0.3l0.1-0.1l-0.1-0.2l-0.5-0.2l-0.3-0.3h-0.1l-0.1,0.2h-0.1l-0.1-0.1H50v0.2
	l-0.2,0.1l-0.1,0.2v-0.1l-0.2,0.2h-0.2l-0.2,0.2h-0.2l-0.2,0.1v-0.2h-0.1l-0.1-0.1l0.1-0.2v-0.2l-0.1-0.1h0.1l0.1-0.1h0.7l0.1-0.3
	l-0.2-0.2h-0.2v-0.2l0.3,0.2v0.1h0.1l0.3-0.4l0.2-0.4l0.3-0.2l-0.2-0.2l0.2-0.1v0.1v0.2h0.2h0.3l0.2-0.1h0.2l0.1-0.4l-0.1-0.5h0.1
	l0.1,0.3l0,0l-0.2-0.2l0.2-0.2h0.1h0.1h-0.2l-0.2,0.2l-0.4-0.4l0.1-0.3l-0.3-0.1v0.1l0.1,0.2l-0.2,0.2l0.3,0.2l0.3,0.1v0.2h-0.2v0.2
	l-0.1,0.1l-0.2,0.1l-0.1-0.2l-0.3-0.3l-0.2,0.2l-0.2-0.1l-0.2-0.5l0.2-0.2l0.1-0.2l0.1-0.5l0.3-0.2l0.5,0.2l0.4,0.1l0.2,0.2
	l-0.1,0.1l-0.3-0.1l0.2,0.2l0.3,0.4l-0.1,0.1h0.2l-0.1-0.5l0.1-0.2l-0.1-0.4l0.1-0.1l-0.1-0.2l0.1-0.1v-0.1c1.9,1.2,3.2,3.1,3.5,5.4
	h-0.2l-0.1-0.2l-0.1,0.1l-0.3-0.4l-0.1,0.1l0.4,0.7l0.4-0.1v-0.2v0.2L54.3,4365.2L54.3,4365.2z"/>
<path id="Fill-1-Copy-5" sketch:type="MSShapeGroup" class="st41" d="M79,4304c-6.7,0-13.3-2.5-18.4-7.6
	c-10.1-10.1-10.1-26.6,0-36.8c10.1-10.1,26.6-10.1,36.8,0c0.8,0.8,0.8,2,0,2.8c-0.8,0.8-2,0.8-2.8,0c-8.6-8.6-22.5-8.6-31.1,0
	s-8.6,22.5,0,31.1s22.5,8.6,31.1,0c0.8-0.8,2-0.8,2.8,0s0.8,2,0,2.8C92.3,4301.5,85.7,4304,79,4304 M79,4234c24.3,0,44,19.7,44,44
	s-19.7,44-44,44s-44-19.7-44-44S54.7,4234,79,4234 M79,4230c-26.5,0-48,21.5-48,48s21.5,48,48,48s48-21.5,48-48S105.5,4230,79,4230"
	/>
<path id="Imported-Layers-4" sketch:type="MSShapeGroup" class="st42" d="M119,4186.2c-0.2-0.3-0.6-0.3-0.8,0
	c-0.2,0.3-0.2,0.8,0,1.1l3.5,4.7l-3.5,4.7c-0.2,0.3-0.2,0.8,0,1.1c0.1,0.1,0.2,0.2,0.4,0.2c0.1,0,0.3-0.1,0.4-0.2l4-5.5v-0.6
	L119,4186.2z"/>
<path id="Imported-Layers-4-Copy" sketch:type="MSShapeGroup" class="st42" d="M42,4197.8c0.2,0.3,0.6,0.3,0.8,0
	c0.2-0.3,0.2-0.8,0-1.1l-3.5-4.7l3.5-4.7c0.2-0.3,0.2-0.8,0-1.1c-0.1-0.1-0.2-0.2-0.4-0.2c-0.1,0-0.3,0.1-0.4,0.2l-4,5.5v0.6
	L42,4197.8z"/>
<path id="Fill-7-Copy-3" sketch:type="MSShapeGroup" class="st43" d="M74,4760h-2v2h2v2h2v-2h2v-2h-2v-2h-2V4760z M74.7,4769.9
	c-0.4-0.4-4.1-2.1-4.7-2.4c0-0.1-0.1-0.7-0.3-0.8c-0.2-0.1-0.8-0.4-0.8-0.4s-0.1-0.2-0.1-0.3c0-0.2,0.1-0.3,0.1-0.3
	c0.1-0.2,0.4-0.5,0.5-0.8c0.1-0.3,0.2-1.1,0.2-1.1c0-0.2,0.2-0.2,0.4-0.3c0.3-0.1,0.5-1.8,0.5-1.8c0-0.5-0.2-0.3-0.2-0.7v-1.4
	c0-1.7-1.5-2.7-3.2-2.7H67c-1.7,0-3.1,0.9-3.1,2.7v1.4c0,0.4-0.2,0.2-0.2,0.7c0,0,0.2,1.6,0.5,1.8c0.1,0.1,0.4,0.2,0.4,0.3
	c0,0,0.1,0.8,0.2,1.1c0.1,0.3,0.4,0.7,0.5,0.8c0,0,0.1,0.1,0.1,0.3c0,0.1-0.1,0.3-0.1,0.3s-0.6,0.3-0.8,0.4
	c-0.2,0.1-0.3,0.6-0.3,0.8c-0.7,0.2-4.3,1.9-4.8,2.4c-0.3,0.3-0.3,2.1-0.3,2.1v0.2c0,0.4,0.3,0.8,0.7,0.8h14.5
	c0.4,0,0.8-0.4,0.8-0.8v-0.2C75,4772,75,4770.2,74.7,4769.9z"/>
<path id="Fill-7-Copy-4" sketch:type="MSShapeGroup" class="st44" d="M74,4719h-2v2h2v2h2v-2h2v-2h-2v-2h-2V4719z M74.7,4728.9
	c-0.4-0.4-4.1-2.1-4.7-2.4c0-0.1-0.1-0.7-0.3-0.8c-0.2-0.1-0.8-0.4-0.8-0.4s-0.1-0.2-0.1-0.3c0-0.2,0.1-0.3,0.1-0.3
	c0.1-0.2,0.4-0.5,0.5-0.8c0.1-0.3,0.2-1.1,0.2-1.1c0-0.2,0.2-0.2,0.4-0.3c0.3-0.1,0.5-1.8,0.5-1.8c0-0.5-0.2-0.3-0.2-0.7v-1.4
	c0-1.7-1.5-2.7-3.2-2.7H67c-1.7,0-3.1,0.9-3.1,2.7v1.4c0,0.4-0.2,0.2-0.2,0.7c0,0,0.2,1.6,0.5,1.8c0.1,0.1,0.4,0.2,0.4,0.3
	c0,0,0.1,0.8,0.2,1.1c0.1,0.3,0.4,0.7,0.5,0.8c0,0,0.1,0.1,0.1,0.3c0,0.1-0.1,0.3-0.1,0.3s-0.6,0.3-0.8,0.4
	c-0.2,0.1-0.3,0.6-0.3,0.8c-0.7,0.2-4.3,1.9-4.8,2.4c-0.3,0.3-0.3,2.1-0.3,2.1v0.2c0,0.4,0.3,0.8,0.7,0.8h14.5
	c0.4,0,0.8-0.4,0.8-0.8v-0.2C75,4731,75,4729.2,74.7,4728.9z"/>
<g id="Rectangle-120-Copy-2" sketch:type="MSShapeGroup">
	<polygon class="st0" points="73,4939 73,4932 71,4932 71,4939 64,4939 64,4941 71,4941 71,4948 73,4948 73,4941 80,4941 80,4939 	
		"/>
</g>
<path id="Imported-Layers-Copy-7" sketch:type="MSShapeGroup" class="st45" d="M72.7,4835.7c0.4-0.4,0.4-1,0-1.4
	c-0.4-0.4-1-0.4-1.4,0l-3.3,3.3l-3.3-3.3c-0.4-0.4-1-0.4-1.4,0c-0.4,0.4-0.4,1,0,1.4l3.3,3.3l-3.3,3.3c-0.4,0.4-0.4,1,0,1.4
	c0.2,0.2,0.4,0.3,0.7,0.3s0.5-0.1,0.7-0.3l3.3-3.3l3.3,3.3c0.2,0.2,0.4,0.3,0.7,0.3s0.5-0.1,0.7-0.3c0.4-0.4,0.4-1,0-1.4l-3.3-3.3
	L72.7,4835.7z"/>
<g id="folder-copy" transform="translate(23.000000, 363.000000)" sketch:type="MSLayerGroup">
	<g id="Imported-Layers" sketch:type="MSShapeGroup">
		<path id="Fill-1" class="st46" d="M89,4235.8c0,1.8-1.4,3.2-3.2,3.2H34.2c-1.8,0-3.2-1.5-3.2-3.2V4197h58V4235.8"/>
		<path id="Fill-2" class="st47" d="M34.2,4187h19.6c0.8,0,1.7,0.3,2.3,0.9l3,3.4c0.6,0.6,2,1.7,3.9,1.7h23c1.8,0,3,1.3,3,3v1H31
			v-6.8C31,4188.4,32.4,4187,34.2,4187"/>
	</g>
	
		<g id="Fill-4-Copy-_x2B_-Fill-4-Copy-2-_x2B_-Rectangle-601-Copy" transform="translate(9.000000, 23.000000)" sketch:type="MSShapeGroup">
		<path id="Fill-4-Copy" class="st0" d="M67.4,4196H54v-2h13.4l-5.4-5.8l1.5-1.2l7.5,8l-7.5,8l-1.5-1.2L67.4,4196z"/>
		<path id="Fill-4-Copy-2" class="st0" d="M34.6,4194H48v2H34.6l5.4,5.8l-1.5,1.2l-7.5-8l7.5-8l1.5,1.2L34.6,4194z"/>
		<rect id="Rectangle-601-Copy" x="50" y="4194" class="st0" width="2" height="2"/>
	</g>
</g>
<path id="Rectangle-11" sketch:type="MSShapeGroup" class="st42" d="M96.5,4652.4l4.3,4.4l10.7-10.9l1.5,1.6l-12.2,12.4l-5.8-6
	L96.5,4652.4z"/>
<path id="Imported-Layers-Copy-14" sketch:type="MSShapeGroup" class="st19" d="M81.6,5103.4c0.5-0.5,0.5-1.4,0-2s-1.4-0.5-2,0
	L75,5106l-4.6-4.6c-0.5-0.5-1.4-0.5-2,0c-0.5,0.5-0.5,1.4,0,2l4.6,4.6l-4.6,4.6c-0.5,0.5-0.5,1.4,0,2c0.3,0.3,0.6,0.4,1,0.4
	s0.7-0.1,1-0.4l4.6-4.6l4.6,4.6c0.3,0.3,0.6,0.4,1,0.4s0.7-0.1,1-0.4c0.5-0.5,0.5-1.4,0-2L77,5108L81.6,5103.4z"/>
<g id="Page-1_2_" sketch:type="MSPage">
	<path id="Fill-1-Copy-4" sketch:type="MSShapeGroup" class="st0" d="M16.1,5296.9c2.1,2.1,6.7,2.3,8.8,0.2l4.3-4.3
		c2.4-2.4,2.3-6.3-0.2-8.8s-6.4-2.6-8.8-0.2l-3.4,3.4c1.3-0.1,2.6,0.2,3.8,0.7l1.9-1.9c1.2-1.2,3.2-1.2,4.4,0.1
		c1.2,1.2,1.3,3.2,0.1,4.4l-4.3,4.3c-1.2,1.2-3.6,0.7-5.1,0.7L16.1,5296.9z M21.9,5291.1c-2.2-2.2-6.7-2.3-8.8-0.2l-4.3,4.3
		c-2.4,2.4-2.3,6.3,0.2,8.8s6.4,2.6,8.8,0.2l3.4-3.4c-1.3,0.1-2.6-0.2-3.8-0.7l-1.9,1.9c-1.2,1.2-3.2,1.2-4.4-0.1
		c-1.2-1.3-1.3-3.2-0.1-4.4l4.3-4.3c0.9-0.9,2.2-0.7,5.1-0.7l0,0L21.9,5291.1z"/>
</g>
<g id="Imported-Layers-Copy-16" transform="translate(29.000000, 980.000000)" sketch:type="MSLayerGroup">
	<path id="Fill-1_9_" sketch:type="MSShapeGroup" class="st48" d="M68-686c-2.2,0-4-1.8-4-4s1.8-4,4-4s4,1.8,4,4S70.2-686,68-686
		L68-686z M68-696c-5,0-8.2,4.3-10,6c1.8,1.7,5,6,10,6s8.2-4.3,10-6C76.2-691.7,73-696,68-696L68-696z"/>
	<path id="Fill-2_9_" sketch:type="MSShapeGroup" class="st45" d="M70-690c0,1.1-0.9,2-2,2s-2-0.9-2-2s0.9-2,2-2S70-691.1,70-690"/>
</g>
<g id="Path-_x2B_-Oval-12-Copy" transform="translate(32.000000, 1042.000000)" sketch:type="MSLayerGroup">
	<path id="Path" sketch:type="MSShapeGroup" class="st48" d="M62-674l2,2l4-4l2,2l-6,6l-4-4L62-674z"/>
	<circle id="Oval-12" sketch:type="MSShapeGroup" class="st48" cx="65" cy="-672" r="8">
	</circle>
</g>
<g id="Group-Copy" transform="translate(30.000000, 1009.000000)" sketch:type="MSLayerGroup">
	<path id="Rectangle-67" sketch:type="MSShapeGroup" class="st48" d="M60-598l9.6-9.6c0.8-0.8,2.1-0.8,2.8,0l0.2,0.2
		c0.8,0.8,0.8,2.1,0,2.8L63-595l-5,2L60-598z"/>
	<path id="Path-280" sketch:type="MSShapeGroup" class="st48" d="M68-606l3.1,3"/>
	<path id="Path-280-Copy" sketch:type="MSShapeGroup" class="st48" d="M61-599l3.1,3"/>
	
		<g id="Rectangle-68-Copy-_x2B_-Rectangle-68-Copy-2-_x2B_-Rectangle-68-Copy-3" transform="translate(5.000000, 15.000000)" sketch:type="MSShapeGroup">
		<rect id="Rectangle-68-Copy" x="62" y="-609" width="4" height="1"/>
		<rect id="Rectangle-68-Copy-2" x="68" y="-609" width="2" height="1"/>
		<rect id="Rectangle-68-Copy-3" x="58" y="-609" width="2" height="1"/>
	</g>
</g>
<g id="Imported-Layers-Copy-15" transform="translate(33.000000, 813.000000)" sketch:type="MSLayerGroup">
	<path id="Fill-1_8_" sketch:type="MSShapeGroup" class="st49" d="M64-555c-2.2,0-4-1.8-4-4s1.8-4,4-4s4,1.8,4,4S66.2-555,64-555
		L64-555z M64-565c-5,0-8.2,4.3-10,6c1.8,1.7,5,6,10,6s8.2-4.3,10-6C72.2-560.7,69-565,64-565L64-565z"/>
	<path id="Fill-2_8_" sketch:type="MSShapeGroup" class="st0" d="M66-559c0,1.1-0.9,2-2,2s-2-0.9-2-2s0.9-2,2-2S66-560.1,66-559"/>
</g>
<g id="Path-_x2B_-Oval-12" transform="translate(35.000000, 879.000000)" sketch:type="MSLayerGroup">
	<path id="Path_1_" sketch:type="MSShapeGroup" class="st49" d="M59-691l2,2l4-4l2,2l-6,6l-4-4L59-691z"/>
	<circle id="Oval-12_1_" sketch:type="MSShapeGroup" class="st49" cx="62" cy="-689" r="8">
	</circle>
</g>
<g id="Group-Copy-5" transform="translate(35.000000, 845.000000)" sketch:type="MSLayerGroup">
	<path id="Rectangle-67_1_" sketch:type="MSShapeGroup" class="st49" d="M57-622l9.6-9.6c0.8-0.8,2.1-0.8,2.8,0l0.2,0.2
		c0.8,0.8,0.8,2.1,0,2.8L60-619l-5,2L57-622z"/>
	<path id="Path-280_1_" sketch:type="MSShapeGroup" class="st49" d="M65-630l3.1,3"/>
	<path id="Path-280-Copy_1_" sketch:type="MSShapeGroup" class="st49" d="M58-623l3.1,3"/>
	
		<g id="Rectangle-68-Copy-_x2B_-Rectangle-68-Copy-2-_x2B_-Rectangle-68-Copy-3_1_" transform="translate(5.000000, 15.000000)" sketch:type="MSShapeGroup">
		<rect id="Rectangle-68-Copy_1_" x="59" y="-633" class="st0" width="4" height="1"/>
		<rect id="Rectangle-68-Copy-2_1_" x="65" y="-633" class="st0" width="2" height="1"/>
		<rect id="Rectangle-68-Copy-3_1_" x="55" y="-633" class="st0" width="2" height="1"/>
	</g>
</g>
<g id="Page-1_3_" sketch:type="MSPage">
	<path id="_x3F_-copy" sketch:type="MSShapeGroup" class="st0" d="M79,5205.1h1.8c-0.2-2.2,2.5-3,2.5-5.2c0-1.9-1.3-2.9-3.2-2.9
		c-1.3,0-2.3,0.6-3,1.5l1.1,1c0.5-0.6,1.1-0.9,1.8-0.9c0.9,0,1.4,0.6,1.4,1.4C81.3,5201.6,78.7,5202.6,79,5205.1L79,5205.1z
		 M78.6,5207.7c0,0.8,0.6,1.4,1.3,1.4s1.3-0.6,1.3-1.4c0-0.8-0.6-1.4-1.3-1.4C79.2,5206.3,78.6,5206.9,78.6,5207.7L78.6,5207.7z"/>
</g>
<g id="Page-1_4_" sketch:type="MSPage">
	<path id="Rectangle-29-Copy-2" sketch:type="MSShapeGroup" class="st25" d="M74.8,5030.8c-1.6-1.6-4.6-2.8-6.8-2.8l0,0h24l0,0
		c-2.2,0-5.3,1.3-6.8,2.8l-3.8,3.8c-0.8,0.8-2,0.8-2.8,0L74.8,5030.8z"/>
</g>
<path id="Imported-Layers-Copy-7_1_" sketch:type="MSShapeGroup" class="st0" d="M72.7,4885.7c0.4-0.4,0.4-1,0-1.4
	c-0.4-0.4-1-0.4-1.4,0l-3.3,3.3l-3.3-3.3c-0.4-0.4-1-0.4-1.4,0c-0.4,0.4-0.4,1,0,1.4l3.3,3.3l-3.3,3.3c-0.4,0.4-0.4,1,0,1.4
	c0.2,0.2,0.4,0.3,0.7,0.3s0.5-0.1,0.7-0.3l3.3-3.3l3.3,3.3c0.2,0.2,0.4,0.3,0.7,0.3s0.5-0.1,0.7-0.3c0.4-0.4,0.4-1,0-1.4l-3.3-3.3
	L72.7,4885.7z"/>
<path class="st50" d="M146.2,5523.2v-6.2h-1v5.8l-2.6-2.6l-0.7,0.7l2.8,2.8c0,0.1,0,0.2,0,0.2c0,0.6,0.4,1,1,1s1-0.4,1-1
	C146.7,5523.6,146.5,5523.3,146.2,5523.2z"/>
<path class="st50" d="M152.8,5519.3l0.7-0.7c0.4-0.4,0.4-1,0-1.4l-1.4-1.4c-0.4-0.4-1-0.4-1.4,0l-0.7,0.7l0.7,0.7l-0.1,0.1
	c-1.1-0.9-2.4-1.5-3.8-1.7v-0.6h2v-1c0-0.6-0.4-1-1-1h-1h-2h-1c-0.6,0-1,0.4-1,1v1h2v0.6c-3.7,0.5-6.5,3.6-6.5,7.4
	c0,4.1,3.4,7.5,7.5,7.5s7.5-3.4,7.5-7.5c0-1.6-0.5-3-1.3-4.3l0.2-0.2L152.8,5519.3z M145.7,5529.5c-3.6,0-6.5-2.9-6.5-6.5
	s2.9-6.5,6.5-6.5s6.5,2.9,6.5,6.5S149.3,5529.5,145.7,5529.5z"/>
<path class="st51" d="M146.2,5486.2v-6.2h-1v5.8l-2.6-2.6l-0.7,0.7l2.8,2.8c0,0.1,0,0.2,0,0.2c0,0.6,0.4,1,1,1s1-0.4,1-1
	C146.7,5486.6,146.5,5486.3,146.2,5486.2z"/>
<path class="st51" d="M152.8,5482.3l0.7-0.7c0.4-0.4,0.4-1,0-1.4l-1.4-1.4c-0.4-0.4-1-0.4-1.4,0l-0.7,0.7l0.7,0.7l-0.1,0.1
	c-1.1-0.9-2.4-1.5-3.8-1.7v-0.6h2v-1c0-0.6-0.4-1-1-1h-1h-2h-1c-0.6,0-1,0.4-1,1v1h2v0.6c-3.7,0.5-6.5,3.6-6.5,7.4
	c0,4.1,3.4,7.5,7.5,7.5s7.5-3.4,7.5-7.5c0-1.6-0.5-3-1.3-4.3l0.2-0.2L152.8,5482.3z M145.7,5492.5c-3.6,0-6.5-2.9-6.5-6.5
	s2.9-6.5,6.5-6.5s6.5,2.9,6.5,6.5S149.3,5492.5,145.7,5492.5z"/>
<g id="set-expiry_1_">
	<g id="_x30_1-get-link---switch-off_1_" transform="translate(-374.000000, -443.000000)">
		<g id="key-only" transform="translate(374.000000, 443.000000)">
			<path id="Imported-Layers-Copy-9" class="st52" d="M17.4,5518.7c0.7-1.6,2.3-2.7,4.1-2.7c2.5,0,4.5,2,4.5,4.5s-2,4.5-4.5,4.5
				c-1.8,0-3.4-1.1-4.1-2.7h-1.3l-1.5-1.2l-1.5,1.2l-1.5-0.9l-0.7,0.9h-0.7l-2.2-2.7l0.7-0.9H17.4z M24.1,5520.5
				c0-0.7-0.6-1.3-1.3-1.3s-1.3,0.6-1.3,1.3s0.6,1.3,1.3,1.3S24.1,5521.2,24.1,5520.5L24.1,5520.5z"/>
		</g>
	</g>
</g>
<g>
	<g>
		<defs>
			<path id="SVGID_1_" d="M9,5441c0-2.2,1.8-4,4-4h9c2.2,0,4,1.8,4,4v6c0,2.2-1.8,4-4,4h-9c-2.2,0-4-1.8-4-4V5441z"/>
		</defs>
		<clipPath id="SVGID_2_">
			<use xlink:href="#SVGID_1_"  style="overflow:visible;"/>
		</clipPath>
		<g class="st53">
			<g>
				<defs>
					<rect id="SVGID_3_" x="9" y="5437" width="17" height="14"/>
				</defs>
				<clipPath id="SVGID_4_">
					<use xlink:href="#SVGID_3_"  style="overflow:visible;"/>
				</clipPath>
				<g class="st54">
					<defs>
						<rect id="SVGID_5_" x="9" y="5437" width="17" height="14"/>
					</defs>
					<clipPath id="SVGID_6_">
						<use xlink:href="#SVGID_5_"  style="overflow:visible;"/>
					</clipPath>
					<path class="st55" d="M9,5441c0-2.2,1.8-4,4-4h9c2.2,0,4,1.8,4,4v6c0,2.2-1.8,4-4,4h-9c-2.2,0-4-1.8-4-4V5441z"/>
				</g>
			</g>
		</g>
	</g>
	<g>
		<defs>
			<path id="SVGID_7_" d="M18.5,5444.3l0.4,2.3c0.1,0.8-0.4,1.5-1.3,1.5h-0.4c-0.8,0-1.4-0.7-1.3-1.5l0.4-2.3
				c-0.6-0.4-1.1-1.1-1.1-1.9c0-1.2,1-2.1,2.1-2.1s2.1,1,2.1,2.1C19.6,5443.3,19.2,5444,18.5,5444.3z"/>
		</defs>
		<clipPath id="SVGID_8_">
			<use xlink:href="#SVGID_7_"  style="overflow:visible;"/>
		</clipPath>
		<g class="st56">
			<g>
				<defs>
					<rect id="SVGID_9_" x="15" y="5440" width="5" height="9"/>
				</defs>
				<clipPath id="SVGID_10_">
					<use xlink:href="#SVGID_9_"  style="overflow:visible;"/>
				</clipPath>
				<g class="st57">
					<defs>
						<rect id="SVGID_11_" x="15" y="5440" width="5" height="9"/>
					</defs>
					<clipPath id="SVGID_12_">
						<use xlink:href="#SVGID_11_"  style="overflow:visible;"/>
					</clipPath>
					<path class="st58" d="M18.5,5444.3l0.4,2.3c0.1,0.8-0.4,1.5-1.3,1.5h-0.4c-0.8,0-1.4-0.7-1.3-1.5l0.4-2.3
						c-0.6-0.4-1.1-1.1-1.1-1.9c0-1.2,1-2.1,2.1-2.1s2.1,1,2.1,2.1C19.6,5443.3,19.2,5444,18.5,5444.3z"/>
				</g>
			</g>
		</g>
	</g>
	<path class="st59" d="M12.5,5438v-0.9c0,0,0-5.6,5-5.6s5,5,5,5l0,0.8"/>
</g>
<g>
	<g>
		<defs>
			<path id="SVGID_13_" d="M18.5,5484.3l0.4,2.3c0.1,0.8-0.4,1.5-1.3,1.5h-0.4c-0.8,0-1.4-0.7-1.3-1.5l0.4-2.3
				c-0.6-0.4-1.1-1.1-1.1-1.9c0-1.2,1-2.1,2.1-2.1s2.1,1,2.1,2.1C19.6,5483.3,19.2,5484,18.5,5484.3z"/>
		</defs>
		<clipPath id="SVGID_14_">
			<use xlink:href="#SVGID_13_"  style="overflow:visible;"/>
		</clipPath>
		<g class="st60">
			<g>
				<defs>
					<rect id="SVGID_15_" x="15" y="5480" width="5" height="9"/>
				</defs>
				<clipPath id="SVGID_16_">
					<use xlink:href="#SVGID_15_"  style="overflow:visible;"/>
				</clipPath>
				<g class="st61">
					<defs>
						<rect id="SVGID_17_" x="15" y="5480" width="5" height="9"/>
					</defs>
					<clipPath id="SVGID_18_">
						<use xlink:href="#SVGID_17_"  style="overflow:visible;"/>
					</clipPath>
					<path class="st62" d="M18.5,5484.3l0.4,2.3c0.1,0.8-0.4,1.5-1.3,1.5h-0.4c-0.8,0-1.4-0.7-1.3-1.5l0.4-2.3
						c-0.6-0.4-1.1-1.1-1.1-1.9c0-1.2,1-2.1,2.1-2.1s2.1,1,2.1,2.1C19.6,5483.3,19.2,5484,18.5,5484.3z"/>
				</g>
			</g>
		</g>
	</g>
	<g>
		<defs>
			<path id="SVGID_19_" d="M9,5481c0-2.2,1.8-4,4-4h9c2.2,0,4,1.8,4,4v6c0,2.2-1.8,4-4,4h-9c-2.2,0-4-1.8-4-4V5481z"/>
		</defs>
		<clipPath id="SVGID_20_">
			<use xlink:href="#SVGID_19_"  style="overflow:visible;"/>
		</clipPath>
		<g class="st63">
			<g>
				<defs>
					<rect id="SVGID_21_" x="9" y="5477" width="17" height="14"/>
				</defs>
				<clipPath id="SVGID_22_">
					<use xlink:href="#SVGID_21_"  style="overflow:visible;"/>
				</clipPath>
				<g class="st64">
					<defs>
						<rect id="SVGID_23_" x="9" y="5477" width="17" height="14"/>
					</defs>
					<clipPath id="SVGID_24_">
						<use xlink:href="#SVGID_23_"  style="overflow:visible;"/>
					</clipPath>
					<path class="st65" d="M9,5481c0-2.2,1.8-4,4-4h9c2.2,0,4,1.8,4,4v6c0,2.2-1.8,4-4,4h-9c-2.2,0-4-1.8-4-4V5481z"/>
				</g>
			</g>
		</g>
	</g>
	<path class="st59" d="M22.5,5478v-1.9c0,0,0-5.6-5-5.6s-5,5-5,5"/>
	<g>
		<defs>
			<path id="SVGID_25_" d="M28.6,5483c0-0.7-0.6-1.3-1.3-1.3c-0.7,0-1.3,0.6-1.3,1.3s0.6,1.3,1.3,1.3
				C28,5484.3,28.6,5483.7,28.6,5483z M21.9,5481.2c0.7-1.6,2.3-2.7,4.1-2.7c2.5,0,4.5,2,4.5,4.5s-2,4.5-4.5,4.5
				c-1.8,0-3.4-1.1-4.1-2.7h-1.3l-1.5-1.2l-1.5,1.2l-1.5-0.9l-0.7,0.9h-0.7l-2.2-2.7l0.7-0.9H21.9z"/>
		</defs>
		<clipPath id="SVGID_26_">
			<use xlink:href="#SVGID_25_"  style="overflow:visible;"/>
		</clipPath>
		<rect x="7.5" y="5473.5" class="st66" width="28" height="19"/>
	</g>
	<path class="st59" d="M28.6,5483c0-0.7-0.6-1.3-1.3-1.3s-1.3,0.6-1.3,1.3s0.6,1.3,1.3,1.3S28.6,5483.7,28.6,5483z"/>
</g>
<g>
	<path class="st59" d="M24.1,5561.5c0-0.7-0.6-1.3-1.3-1.3s-1.3,0.6-1.3,1.3s0.6,1.3,1.3,1.3S24.1,5562.2,24.1,5561.5z M17.4,5559.7
		c0.7-1.6,2.3-2.7,4.1-2.7c2.5,0,4.5,2,4.5,4.5s-2,4.5-4.5,4.5c-1.8,0-3.4-1.1-4.1-2.7h-1.3l-1.5-1.2l-1.5,1.2l-1.5-0.9l-0.7,0.9
		h-0.7l-2.2-2.7l0.7-0.9H17.4z"/>
</g>
<g>
	<g>
		<defs>
			<path id="SVGID_27_" d="M9,5361c0-2.2,1.8-4,4-4h9c2.2,0,4,1.8,4,4v6c0,2.2-1.8,4-4,4h-9c-2.2,0-4-1.8-4-4V5361z"/>
		</defs>
		<clipPath id="SVGID_28_">
			<use xlink:href="#SVGID_27_"  style="overflow:visible;"/>
		</clipPath>
		<g class="st67">
			<g>
				<defs>
					<rect id="SVGID_29_" x="9" y="5357" width="17" height="14"/>
				</defs>
				<clipPath id="SVGID_30_">
					<use xlink:href="#SVGID_29_"  style="overflow:visible;"/>
				</clipPath>
				<g class="st68">
					<defs>
						<rect id="SVGID_31_" x="9" y="5357" width="17" height="14"/>
					</defs>
					<clipPath id="SVGID_32_">
						<use xlink:href="#SVGID_31_"  style="overflow:visible;"/>
					</clipPath>
					<path class="st69" d="M9,5361c0-2.2,1.8-4,4-4h9c2.2,0,4,1.8,4,4v6c0,2.2-1.8,4-4,4h-9c-2.2,0-4-1.8-4-4V5361z"/>
				</g>
			</g>
		</g>
	</g>
	<g>
		<defs>
			<path id="SVGID_33_" d="M18.5,5364.3l0.4,2.3c0.1,0.8-0.4,1.5-1.3,1.5h-0.4c-0.8,0-1.4-0.7-1.3-1.5l0.4-2.3
				c-0.6-0.4-1.1-1.1-1.1-1.9c0-1.2,1-2.1,2.1-2.1s2.1,1,2.1,2.1C19.6,5363.3,19.2,5364,18.5,5364.3z"/>
		</defs>
		<clipPath id="SVGID_34_">
			<use xlink:href="#SVGID_33_"  style="overflow:visible;"/>
		</clipPath>
		<g class="st70">
			<g>
				<defs>
					<rect id="SVGID_35_" x="15" y="5360" width="5" height="9"/>
				</defs>
				<clipPath id="SVGID_36_">
					<use xlink:href="#SVGID_35_"  style="overflow:visible;"/>
				</clipPath>
				<g class="st71">
					<defs>
						<rect id="SVGID_37_" x="15" y="5360" width="5" height="9"/>
					</defs>
					<clipPath id="SVGID_38_">
						<use xlink:href="#SVGID_37_"  style="overflow:visible;"/>
					</clipPath>
					<path class="st72" d="M18.5,5364.3l0.4,2.3c0.1,0.8-0.4,1.5-1.3,1.5h-0.4c-0.8,0-1.4-0.7-1.3-1.5l0.4-2.3
						c-0.6-0.4-1.1-1.1-1.1-1.9c0-1.2,1-2.1,2.1-2.1s2.1,1,2.1,2.1C19.6,5363.3,19.2,5364,18.5,5364.3z"/>
				</g>
			</g>
		</g>
	</g>
	<path class="st73" d="M12.5,5358v-0.9c0,0,0-5.6,5-5.6s5,5,5,5l0,0.8"/>
</g>
<g>
	<defs>
		<path id="SVGID_39_" d="M18.5,5484.3l0.4,2.3c0.1,0.8-0.4,1.5-1.3,1.5h-0.4c-0.8,0-1.4-0.7-1.3-1.5l0.4-2.3
			c-0.6-0.4-1.1-1.1-1.1-1.9c0-1.2,1-2.1,2.1-2.1s2.1,1,2.1,2.1C19.6,5483.3,19.2,5484,18.5,5484.3z"/>
	</defs>
	<clipPath id="SVGID_40_">
		<use xlink:href="#SVGID_39_"  style="overflow:visible;"/>
	</clipPath>
	<g class="st74">
		<g>
			<defs>
				<rect id="SVGID_41_" x="15" y="5480" width="5" height="9"/>
			</defs>
			<clipPath id="SVGID_42_">
				<use xlink:href="#SVGID_41_"  style="overflow:visible;"/>
			</clipPath>
			<g class="st75">
				<defs>
					<rect id="SVGID_43_" x="15" y="5480" width="5" height="9"/>
				</defs>
				<clipPath id="SVGID_44_">
					<use xlink:href="#SVGID_43_"  style="overflow:visible;"/>
				</clipPath>
				<path class="st76" d="M18.5,5484.3l0.4,2.3c0.1,0.8-0.4,1.5-1.3,1.5h-0.4c-0.8,0-1.4-0.7-1.3-1.5l0.4-2.3
					c-0.6-0.4-1.1-1.1-1.1-1.9c0-1.2,1-2.1,2.1-2.1s2.1,1,2.1,2.1C19.6,5483.3,19.2,5484,18.5,5484.3z"/>
			</g>
		</g>
	</g>
</g>
<path class="st59" d="M22.5,5478v-1.9c0,0,0-5.6-5-5.6s-5,5-5,5"/>
<g>
	<defs>
		<rect id="SVGID_45_" x="17.5" y="5473.5" width="16" height="19"/>
	</defs>
	<clipPath id="SVGID_46_">
		<use xlink:href="#SVGID_45_"  style="overflow:visible;"/>
	</clipPath>
	<g class="st77">
		<g>
			<defs>
				<rect id="SVGID_47_" x="17" y="5473" width="14" height="18"/>
			</defs>
			<clipPath id="SVGID_48_">
				<use xlink:href="#SVGID_47_"  style="overflow:visible;"/>
			</clipPath>
			<g class="st78">
				<defs>
					<path id="SVGID_49_" d="M28.6,5483c0-0.7-0.6-1.3-1.3-1.3c-0.7,0-1.3,0.6-1.3,1.3s0.6,1.3,1.3,1.3
						C28,5484.3,28.6,5483.7,28.6,5483z M21.9,5481.2c0.7-1.6,2.3-2.7,4.1-2.7c2.5,0,4.5,2,4.5,4.5s-2,4.5-4.5,4.5
						c-1.8,0-3.4-1.1-4.1-2.7h-1.3l-1.5-1.2l-1.5,1.2l-1.5-0.9l-0.7,0.9h-0.7l-2.2-2.7l0.7-0.9H21.9z"/>
				</defs>
				<clipPath id="SVGID_50_">
					<use xlink:href="#SVGID_49_"  style="overflow:visible;"/>
				</clipPath>
				<g class="st79">
					<defs>
						<rect id="SVGID_51_" x="17" y="5473" width="14" height="18"/>
					</defs>
					<clipPath id="SVGID_52_">
						<use xlink:href="#SVGID_51_"  style="overflow:visible;"/>
					</clipPath>
					<rect x="7.5" y="5473.5" class="st80" width="28" height="19"/>
				</g>
			</g>
			<g class="st78">
				<defs>
					<rect id="SVGID_53_" x="17" y="5473" width="14" height="18"/>
				</defs>
				<clipPath id="SVGID_54_">
					<use xlink:href="#SVGID_53_"  style="overflow:visible;"/>
				</clipPath>
				<path class="st81" d="M28.6,5483c0-0.7-0.6-1.3-1.3-1.3s-1.3,0.6-1.3,1.3s0.6,1.3,1.3,1.3S28.6,5483.7,28.6,5483z M21.9,5481.2
					c0.7-1.6,2.3-2.7,4.1-2.7c2.5,0,4.5,2,4.5,4.5s-2,4.5-4.5,4.5c-1.8,0-3.4-1.1-4.1-2.7h-1.3l-1.5-1.2l-1.5,1.2l-1.5-0.9l-0.7,0.9
					h-0.7l-2.2-2.7l0.7-0.9H21.9z"/>
			</g>
		</g>
	</g>
</g>
<g>
	<g>
		<defs>
			<path id="SVGID_55_" d="M18.5,5404.3l0.4,2.3c0.1,0.8-0.4,1.5-1.3,1.5h-0.4c-0.8,0-1.4-0.7-1.3-1.5l0.4-2.3
				c-0.6-0.4-1.1-1.1-1.1-1.9c0-1.2,1-2.1,2.1-2.1s2.1,1,2.1,2.1C19.6,5403.3,19.2,5404,18.5,5404.3z"/>
		</defs>
		<clipPath id="SVGID_56_">
			<use xlink:href="#SVGID_55_"  style="overflow:visible;"/>
		</clipPath>
		<g class="st82">
			<g>
				<defs>
					<rect id="SVGID_57_" x="15" y="5400" width="5" height="9"/>
				</defs>
				<clipPath id="SVGID_58_">
					<use xlink:href="#SVGID_57_"  style="overflow:visible;"/>
				</clipPath>
				<g class="st83">
					<defs>
						<rect id="SVGID_59_" x="15" y="5400" width="5" height="9"/>
					</defs>
					<clipPath id="SVGID_60_">
						<use xlink:href="#SVGID_59_"  style="overflow:visible;"/>
					</clipPath>
					<path class="st84" d="M18.5,5404.3l0.4,2.3c0.1,0.8-0.4,1.5-1.3,1.5h-0.4c-0.8,0-1.4-0.7-1.3-1.5l0.4-2.3
						c-0.6-0.4-1.1-1.1-1.1-1.9c0-1.2,1-2.1,2.1-2.1s2.1,1,2.1,2.1C19.6,5403.3,19.2,5404,18.5,5404.3z"/>
				</g>
			</g>
		</g>
	</g>
	<g>
		<defs>
			<path id="SVGID_61_" d="M9,5401c0-2.2,1.8-4,4-4h9c2.2,0,4,1.8,4,4v6c0,2.2-1.8,4-4,4h-9c-2.2,0-4-1.8-4-4V5401z"/>
		</defs>
		<clipPath id="SVGID_62_">
			<use xlink:href="#SVGID_61_"  style="overflow:visible;"/>
		</clipPath>
		<g class="st85">
			<g>
				<defs>
					<rect id="SVGID_63_" x="9" y="5397" width="17" height="14"/>
				</defs>
				<clipPath id="SVGID_64_">
					<use xlink:href="#SVGID_63_"  style="overflow:visible;"/>
				</clipPath>
				<g class="st86">
					<defs>
						<rect id="SVGID_65_" x="9" y="5397" width="17" height="14"/>
					</defs>
					<clipPath id="SVGID_66_">
						<use xlink:href="#SVGID_65_"  style="overflow:visible;"/>
					</clipPath>
					<path class="st87" d="M9,5401c0-2.2,1.8-4,4-4h9c2.2,0,4,1.8,4,4v6c0,2.2-1.8,4-4,4h-9c-2.2,0-4-1.8-4-4V5401z"/>
				</g>
			</g>
		</g>
	</g>
	<path class="st88" d="M22.5,5398v-1.9c0,0,0-5.6-5-5.6s-5,5-5,5"/>
	<g>
		<defs>
			<rect id="SVGID_67_" x="17.5" y="5393.5" width="16" height="19"/>
		</defs>
		<clipPath id="SVGID_68_">
			<use xlink:href="#SVGID_67_"  style="overflow:visible;"/>
		</clipPath>
		<g class="st89">
			<g>
				<defs>
					<rect id="SVGID_69_" x="17" y="5393" width="14" height="18"/>
				</defs>
				<clipPath id="SVGID_70_">
					<use xlink:href="#SVGID_69_"  style="overflow:visible;"/>
				</clipPath>
				<g class="st90">
					<defs>
						<path id="SVGID_71_" d="M28.6,5403c0-0.7-0.6-1.3-1.3-1.3c-0.7,0-1.3,0.6-1.3,1.3s0.6,1.3,1.3,1.3
							C28,5404.3,28.6,5403.7,28.6,5403z M21.9,5401.2c0.7-1.6,2.3-2.7,4.1-2.7c2.5,0,4.5,2,4.5,4.5s-2,4.5-4.5,4.5
							c-1.8,0-3.4-1.1-4.1-2.7h-1.3l-1.5-1.2l-1.5,1.2l-1.5-0.9l-0.7,0.9h-0.7l-2.2-2.7l0.7-0.9H21.9z"/>
					</defs>
					<clipPath id="SVGID_72_">
						<use xlink:href="#SVGID_71_"  style="overflow:visible;"/>
					</clipPath>
					<g class="st91">
						<defs>
							<rect id="SVGID_73_" x="17" y="5393" width="14" height="18"/>
						</defs>
						<clipPath id="SVGID_74_">
							<use xlink:href="#SVGID_73_"  style="overflow:visible;"/>
						</clipPath>
						<rect x="7.5" y="5393.5" class="st92" width="28" height="19"/>
					</g>
				</g>
				<g class="st90">
					<defs>
						<rect id="SVGID_75_" x="17" y="5393" width="14" height="18"/>
					</defs>
					<clipPath id="SVGID_76_">
						<use xlink:href="#SVGID_75_"  style="overflow:visible;"/>
					</clipPath>
					<path class="st93" d="M28.6,5403c0-0.7-0.6-1.3-1.3-1.3s-1.3,0.6-1.3,1.3s0.6,1.3,1.3,1.3S28.6,5403.7,28.6,5403z M21.9,5401.2
						c0.7-1.6,2.3-2.7,4.1-2.7c2.5,0,4.5,2,4.5,4.5s-2,4.5-4.5,4.5c-1.8,0-3.4-1.1-4.1-2.7h-1.3l-1.5-1.2l-1.5,1.2l-1.5-0.9
						l-0.7,0.9h-0.7l-2.2-2.7l0.7-0.9H21.9z"/>
				</g>
			</g>
		</g>
	</g>
</g>
<g id="set-expiry" class="st94">
	<g id="_x30_3-Get-link-dialog---date-component" transform="translate(-425.000000, -549.000000)">
		<g id="arrow_right" transform="translate(425.000000, 549.000000)">
			<path id="Imported-Layers-4_1_" class="st42" d="M144,5437.2c-0.2-0.3-0.6-0.3-0.8,0c-0.2,0.3-0.2,0.8,0,1.1l3.5,4.7l-3.5,4.7
				c-0.2,0.3-0.2,0.8,0,1.1c0.1,0.1,0.2,0.2,0.4,0.2c0.1,0,0.3-0.1,0.4-0.2l4-5.5v-0.6L144,5437.2z"/>
		</g>
	</g>
</g>
<g id="set-expiry_2_" class="st94">
	<g id="_x30_3-Get-link-dialog---date-component_1_" transform="translate(-425.000000, -549.000000)">
		<g id="arrow_right_1_" transform="translate(425.000000, 549.000000)">
			<path id="Imported-Layers-4_2_" class="st42" d="M143.3,5403.5v0.6l4,5.5c0.1,0.1,0.2,0.2,0.4,0.2c0.1,0,0.3-0.1,0.4-0.2
				c0.2-0.3,0.2-0.8,0-1.1l-3.5-4.7l3.5-4.7c0.2-0.3,0.2-0.8,0-1.1c-0.2-0.3-0.6-0.3-0.8,0L143.3,5403.5z"/>
		</g>
	</g>
</g>
<g id="set-expiry_3_" class="st4">
	<g id="_x30_3-Get-link-dialog---date-component_2_" transform="translate(-511.000000, -548.000000)">
		<g id="close-ico" transform="translate(511.000000, 548.000000)">
			<path id="Imported-Layers-Copy" class="st45" d="M151.7,5358.5c0.4-0.4,0.4-1,0-1.4c-0.4-0.4-1-0.4-1.4,0l-3.3,3.3l-3.3-3.3
				c-0.4-0.4-1-0.4-1.4,0s-0.4,1,0,1.4l3.3,3.3l-3.3,3.3c-0.4,0.4-0.4,1,0,1.4c0.2,0.2,0.4,0.3,0.7,0.3c0.3,0,0.5-0.1,0.7-0.3
				l3.3-3.3l3.3,3.3c0.2,0.2,0.4,0.3,0.7,0.3c0.3,0,0.5-0.1,0.7-0.3c0.4-0.4,0.4-1,0-1.4l-3.3-3.3L151.7,5358.5z"/>
		</g>
	</g>
</g>
</svg>
