<?xml version="1.0" encoding="utf-8"?>
<!-- Generator: Adobe Illustrator 16.0.0, SVG Export Plug-In . SVG Version: 6.00 Build 0)  -->
<!DOCTYPE svg PUBLIC "-//W3C//DTD SVG 1.1//EN" "http://www.w3.org/Graphics/SVG/1.1/DTD/svg11.dtd">
<svg version="1.1" id="Layer_1" xmlns="http://www.w3.org/2000/svg" xmlns:xlink="http://www.w3.org/1999/xlink" x="0px" y="0px"
	 width="160px" height="4000px" viewBox="0 0 160 4000" enable-background="new 0 0 160 4000" xml:space="preserve">
<path fill="#070707" d="M97,362.55L94.59,361l-1.32,2.54l-2.854-0.13l0.13,2.859l-2.54,1.32l1.553,2.41l-1.553,2.41l2.54,1.32
	l-0.13,2.859l2.854-0.13l1.32,2.54l2.41-1.55l2.41,1.55l1.32-2.54l2.854,0.13l-0.13-2.859l2.54-1.32l-1.553-2.41l1.553-2.41
	l-2.54-1.32l0.13-2.859l-2.854,0.13L99.41,361L97,362.55z M92,370l1.74-1.779l2.17,2.219l4.35-4.439l1.74,1.779L95.91,374L92,370z"
	/>
<g>
	<polygon fill="#070707" points="91,409.998 89,414.998 94,412.998 	"/>
	
		<rect x="95.386" y="400.849" transform="matrix(0.7071 0.7071 -0.7071 0.7071 316.0011 50.1146)" fill="#070707" width="4.243" height="11.31"/>
	<polygon fill="#070707" points="96,413.998 105,414.998 93,414.998 	"/>
</g>
<path fill="#FFFFFF" d="M103.79,333.68c-0.31-0.32-3.049-1.59-3.567-1.76c0-0.109-0.062-0.5-0.199-0.57
	c-0.142-0.05-0.602-0.27-0.602-0.27c0-0.03-0.052-0.13-0.062-0.23c0-0.109,0.062-0.22,0.062-0.22c0.062-0.12,0.29-0.409,0.352-0.63
	s0.131-0.79,0.131-0.79c0-0.12,0.188-0.17,0.289-0.229c0.188-0.09,0.358-1.301,0.358-1.301c0-0.396-0.17-0.229-0.17-0.51v-1.05
	c0-1.3-1.04-2.12-2.342-2.12h-0.06c-1.312,0-2.353,0.82-2.353,2.12v1.05c0,0.28-0.17,0.109-0.17,0.51c0,0,0.17,1.211,0.354,1.301
	c0.105,0.06,0.287,0.109,0.287,0.229c0,0,0.068,0.569,0.133,0.79c0.062,0.221,0.289,0.51,0.354,0.63c0,0,0.062,0.11,0.062,0.22
	c-0.012,0.101-0.062,0.2-0.062,0.23c0,0-0.46,0.22-0.604,0.27c-0.144,0.07-0.19,0.461-0.19,0.57c-0.521,0.17-3.271,1.439-3.562,1.76
	c-0.229,0.23-0.229,1.58-0.229,1.58v0.17c0,0.312,0.261,0.57,0.562,0.57h10.857c0.312,0,0.566-0.26,0.566-0.57v-0.17
	C104.012,335.26,104.012,333.91,103.79,333.68z"/>
<g>
	<path fill="#070707" d="M97,294c-2.21,0-4-1.79-4-4s1.79-4,4-4s4,1.79,4,4S99.21,294,97,294z M97,284c-5,0-8.18,4.29-10,6
		c1.82,1.71,5,6,10,6s8.18-4.29,10-6C105.18,288.29,102,284,97,284z"/>
	<path fill="#070707" d="M99,290c0,1.1-0.9,2-2,2s-2-0.9-2-2s0.9-2,2-2S99,288.9,99,290z"/>
</g>
<path fill="#FFFFFF" d="M97,182.55L94.59,181l-1.32,2.54l-2.854-0.13l0.13,2.86l-2.54,1.32l1.553,2.41l-1.553,2.41l2.54,1.32
	l-0.13,2.86l2.854-0.13l1.32,2.54l2.41-1.55l2.41,1.55l1.32-2.54l2.854,0.13l-0.13-2.86l2.54-1.32l-1.553-2.41l1.553-2.41
	l-2.54-1.32l0.13-2.86l-2.854,0.13L99.41,181L97,182.55z M92,190l1.74-1.78l2.17,2.22l4.35-4.44l1.74,1.78L95.91,194L92,190z"/>
<g>
	<polygon fill="#FFFFFF" points="91,223.996 89,228.996 94,226.996 	"/>
	
		<rect x="95.408" y="214.852" transform="matrix(0.7072 0.707 -0.707 0.7072 184.4516 -4.3925)" fill="#FFFFFF" width="4.243" height="11.312"/>
	<polygon fill="#FFFFFF" points="96,227.996 105,228.996 93,228.996 	"/>
</g>
<g>
	<path fill="#FFFFFF" d="M97,258c-2.21,0-4-1.79-4-4s1.79-4,4-4s4,1.79,4,4S99.21,258,97,258z M97,248c-5,0-8.18,4.29-10,6
		c1.82,1.71,5,6,10,6s8.18-4.29,10-6C105.18,252.29,102,248,97,248z"/>
	<path fill="#FFFFFF" d="M99,254c0,1.1-0.9,2-2,2s-2-0.9-2-2s0.9-2,2-2S99,252.9,99,254z"/>
</g>
<g>
	<path fill="#070707" d="M102,148v1c0,1.1-0.9,2-2,2h-6c-1.1,0-2-0.9-2-2v-6c0-1.1,0.9-2,2-2h1v-2h-1c-2.2,0-4,1.8-4,4v6
		c0,2.2,1.8,4,4,4h6c2.2,0,4-1.8,4-4v-1H102z"/>
	<polygon fill="#070707" points="106,137 105,137 99.5,141.5 97,139 97,146 104,146 101.5,143.5 106,138 	"/>
</g>
<g opacity="0.05">
	<path fill="#070707" d="M92.167,40.3c0-0.56-0.312-2.47-1.04-2.81c-0.7-0.26-2.988-1.36-2.988-1.36c0-0.17-0.262-0.65-0.302-1.15
		c0-0.56,0.302-1.11,0.302-1.11c0.312-0.6,1.43-2,1.729-3.1c0.31-1.11,0.648-3.91,0.648-3.91c0-0.603,0.91-0.86,1.479-1.15
		c0.987-0.47,2.13-6.47,2.13-6.47c0-1.95-0.51-1.11-0.51-2.51v-5.22C93.617,5.08,87.707,1,81.127,1h-0.26
		c-6.58,0-12.49,4.08-12.49,10.51v5.22c0,1.4-0.51,0.56-0.51,2.51c0,0,0.979,6,1.979,6.47c0.561,0.29,1.551,0.55,1.551,1.15
		c0,0,0.379,2.8,0.689,3.91c0.301,1.1,1.439,2.5,1.75,3.1c0,0,0.311,0.55,0.311,1.11c-0.041,0.5-0.301,0.98-0.301,1.15
		c0,0-2.289,1.1-2.979,1.36c-0.74,0.34-1.04,2.25-1.04,2.81c-2.6,0.84-16.439,7.14-18.01,8.71c-1.12,1.15-1.12,7.87-1.12,7.87v0.85
		c0,1.53,1.62,3.27,3.18,3.27h54.24c1.56,0,3.18-1.74,3.18-3.27v-0.85c0,0,0-6.72-1.12-7.87C108.605,47.44,94.757,41.14,92.167,40.3
		z M130.657,46.93c-1.171-1.18-11.562-5.898-13.511-6.54c0-0.41-0.229-1.85-0.779-2.1c-0.521-0.2-2.24-1.02-2.24-1.02
		c0-0.13-0.189-0.49-0.22-0.86c0-0.42,0.22-0.83,0.22-0.83c0.229-0.45,1.08-1.5,1.3-2.33c0.23-0.83,0.49-2.94,0.49-2.94
		c0-0.45,0.681-0.63,1.101-0.86c0.739-0.35,1.92-4.85,1.92-4.85c0-1.46-0.061-0.83-0.061-1.88V18.8c0-4.81-5.068-7.88-10.01-7.88
		h-0.19c-4.938,0-10.01,3.07-10.01,7.88v3.92c0,1.05-0.062,0.42-0.062,1.88c0,0,0.896,4.5,1.642,4.85
		c0.42,0.229,1.25,0.41,1.25,0.86c0,0,0.319,2.11,0.55,2.94s1.102,1.88,1.33,2.33c0,0,0.25,0.41,0.25,0.83
		c-0.029,0.37-0.22,0.729-0.22,0.86c0,0-1.71,0.82-2.23,1.02c-0.56,0.25-0.778,1.69-0.778,2.1c-0.188,0.07-0.51,0.182-0.854,0.33
		c4.981,2.24,11.104,5.21,12.438,6.562c0.438,0.45,1.606,1.57,1.75,8.14h14.959c1.17,0,2.812-0.8,2.812-1.95v-0.64
		C131.497,52.83,131.497,47.79,130.657,46.93z M61.597,40.39c0-0.41-0.229-1.85-0.779-2.1c-0.521-0.2-2.24-1.02-2.24-1.02
		c0-0.13-0.2-0.49-0.221-0.86c0-0.42,0.221-0.83,0.221-0.83c0.23-0.45,1.08-1.5,1.3-2.33c0.229-0.83,0.49-2.94,0.49-2.94
		c0-0.45,0.68-0.63,1.101-0.86c0.75-0.35,1.92-4.85,1.92-4.85c0-1.46-0.07-0.83-0.07-1.88V18.8c0-4.81-5.061-7.88-10-7.88h-0.19
		c-4.94,0-10.01,3.07-10.01,7.88v3.92c0,1.05-0.06,0.42-0.06,1.88c0,0,0.9,4.5,1.64,4.85c0.42,0.229,1.25,0.41,1.25,0.86
		c0,0,0.32,2.11,0.55,2.94s1.1,1.88,1.33,2.33c0,0,0.25,0.41,0.25,0.83c-0.03,0.37-0.22,0.729-0.22,0.86c0,0-1.71,0.82-2.23,1.02
		c-0.56,0.25-0.78,1.69-0.78,2.1c-1.95,0.642-12.34,5.36-13.51,6.54c-0.842,0.86-0.842,5.9-0.842,5.9v0.64
		c0,1.15,1.64,1.95,2.81,1.95h14.96c0.14-6.57,1.31-7.69,1.73-8.13c1.35-1.35,7.471-4.33,12.46-6.57
		C62.106,40.58,61.797,40.46,61.597,40.39z"/>
</g>
<path opacity="0.3" fill="#070707" enable-background="new    " d="M103.79,103.68c-0.31-0.32-3.049-1.59-3.569-1.76
	c0-0.108-0.06-0.5-0.199-0.57c-0.141-0.05-0.601-0.27-0.601-0.27c0-0.03-0.051-0.13-0.062-0.23c0-0.11,0.062-0.22,0.062-0.22
	c0.062-0.12,0.29-0.41,0.351-0.63s0.131-0.79,0.131-0.79c0-0.12,0.18-0.17,0.289-0.229c0.189-0.09,0.359-1.3,0.359-1.3
	c0-0.4-0.17-0.23-0.17-0.51v-1.05c0-1.3-1.04-2.12-2.341-2.12h-0.06c-1.312,0-2.354,0.82-2.354,2.12v1.05
	c0,0.28-0.17,0.11-0.17,0.51c0,0,0.17,1.21,0.354,1.3c0.107,0.06,0.289,0.11,0.289,0.229c0,0,0.068,0.57,0.133,0.79
	c0.062,0.22,0.289,0.51,0.354,0.63c0,0,0.062,0.11,0.062,0.22c-0.014,0.1-0.062,0.2-0.062,0.23c0,0-0.46,0.22-0.604,0.27
	c-0.145,0.07-0.19,0.46-0.19,0.57c-0.521,0.17-3.271,1.44-3.562,1.76c-0.229,0.23-0.229,1.58-0.229,1.58v0.17
	c0,0.31,0.261,0.57,0.562,0.57h10.858c0.312,0,0.568-0.26,0.568-0.57v-0.17C104.012,105.26,104.012,103.91,103.79,103.68z"/>
<path fill="#070707" d="M98.59,472.834c-0.39,0.393-1.029,0.393-1.42,0c-0.391-0.391-0.391-1.031,0-1.422L98.58,470l-1.41-1.412
	c-0.391-0.391-0.391-1.031,0-1.422s1.03-0.391,1.42,0l1.41,1.413l1.41-1.413c0.39-0.391,1.029-0.391,1.42,0s0.391,1.032,0,1.422
	L101.42,470l1.41,1.422c0.391,0.381,0.391,1.021,0,1.412c-0.391,0.393-1.03,0.393-1.42,0l-1.41-1.412L98.59,472.834z"/>
<g opacity="0.3">
	<path fill="#070707" d="M81,544l5.82-5.82C86.57,538.076,86.29,538,86,538H76c-0.29,0-0.57,0.07-0.82,0.18L81,544z"/>
	<path fill="#070707" d="M81,546l-6.82-6.82C74.07,539.43,74,539.71,74,540v6c0,1.1,0.9,2,2,2h10c1.1,0,2-0.9,2-2v-6
		c0-0.29-0.07-0.57-0.18-0.82L81,546z"/>
</g>
<g opacity="0.3">
	<path fill="#070707" d="M80,592l-13.28-13.279C66.27,579.37,66,580.15,66,581v12c0,2.2,1.8,4,4,4h20c2.2,0,4-1.8,4-4v-12
		c0-0.85-0.27-1.63-0.721-2.279L80,592z"/>
	<path fill="#070707" d="M80,590l12.279-12.279C91.63,577.27,90.85,577,90,577H70c-0.85,0-1.63,0.27-2.28,0.721L80,590z"/>
</g>
<g>
	<g>
		<path fill="#FFFFFF" d="M84.708,691.82c-0.7-0.48-2.021-1.646-2.021-2.32c0-0.79,0.229-1.189,1.471-2.12
			c1.27-0.96,2.16-2.31,2.16-3.88c0-1.87-0.851-3.7-2.471-4.3h2.43l1.721-1.2h-7.67c-3.44,0-6.67,2.52-6.67,5.45
			c0,2.989,2.34,5.396,5.84,5.396c0.24,0,0.48-0.01,0.71-0.02c-0.23,0.42-0.39,0.891-0.39,1.391c0,0.829,0.459,1.5,1.04,2.049
			l-1.314,0.021c-4.26,0-7.54,2.631-7.54,5.354c0,2.688,3.59,4.358,7.85,4.358c4.86,0,7.542-2.67,7.542-5.354
			C87.389,694.49,86.729,693.2,84.708,691.82z M80.607,688.09c-1.979-0.061-3.854-2.14-4.199-4.66c-0.34-2.51,0.99-4.438,2.96-4.38
			c1.979,0.062,3.86,2.08,4.2,4.591C83.908,686.16,82.578,688.15,80.607,688.09z M79.838,700.811c-2.95,0-5.07-1.801-5.07-3.971
			c0-2.13,2.63-3.9,5.58-3.869c0.679,0.01,1.32,0.119,1.9,0.299c1.6,1.08,2.75,1.688,3.07,2.91c0.06,0.25,0.1,0.51,0.1,0.771
			C85.418,699.12,83.969,700.811,79.838,700.811z"/>
		<path fill="#FFFFFF" d="M84.708,691.82c-0.7-0.48-2.021-1.646-2.021-2.32c0-0.79,0.229-1.189,1.471-2.12
			c1.27-0.96,2.16-2.31,2.16-3.88c0-1.87-0.851-3.7-2.471-4.3h2.43l1.721-1.2h-7.67c-3.44,0-6.67,2.52-6.67,5.45
			c0,2.989,2.34,5.396,5.84,5.396c0.24,0,0.48-0.01,0.71-0.02c-0.23,0.42-0.39,0.891-0.39,1.391c0,0.829,0.459,1.5,1.04,2.049
			l-1.314,0.021c-4.26,0-7.54,2.631-7.54,5.354c0,2.688,3.59,4.358,7.85,4.358c4.86,0,7.542-2.67,7.542-5.354
			C87.389,694.49,86.729,693.2,84.708,691.82z M80.607,688.09c-1.979-0.061-3.854-2.14-4.199-4.66c-0.34-2.51,0.99-4.438,2.96-4.38
			c1.979,0.062,3.86,2.08,4.2,4.591C83.908,686.16,82.578,688.15,80.607,688.09z M79.838,700.811c-2.95,0-5.07-1.801-5.07-3.971
			c0-2.13,2.63-3.9,5.58-3.869c0.679,0.01,1.32,0.119,1.9,0.299c1.6,1.08,2.75,1.688,3.07,2.91c0.06,0.25,0.1,0.51,0.1,0.771
			C85.418,699.12,83.969,700.811,79.838,700.811z"/>
	</g>
</g>
<g>
	<g>
		<path fill="#FFFFFF" d="M82.35,638.906c-0.34-0.24-1.01-0.82-1.01-1.16c0-0.4,0.12-0.59,0.74-1.061
			c0.63-0.479,1.08-1.16,1.08-1.939c0-0.939-0.43-1.85-1.23-2.15h1.211l0.859-0.6h-3.83c-1.72,0-3.34,1.26-3.34,2.721
			c0,1.5,1.17,2.699,2.92,2.699l0.359-0.01c-0.119,0.21-0.199,0.449-0.199,0.699c0,0.396,0.23,0.75,0.52,1.021l-0.66,0.011
			c-2.129,0-3.77,1.319-3.77,2.688c0,1.34,1.8,2.18,3.93,2.18c2.419,0,3.759-1.33,3.759-2.68
			C83.689,640.246,83.37,639.595,82.35,638.906z M80.3,637.045c-0.979-0.03-1.92-1.079-2.09-2.329
			c-0.17-1.261,0.49-2.221,1.479-2.188c0.98,0.021,1.92,1.024,2.09,2.291C81.95,636.076,81.29,637.066,80.3,637.045z M79.92,643.406
			c-1.47,0-2.54-0.91-2.54-1.99c0-1.061,1.32-1.949,2.79-1.93c0.35,0,0.67,0.05,0.96,0.14c0.8,0.54,1.37,0.854,1.53,1.46
			c0.029,0.131,0.05,0.25,0.05,0.381C82.71,642.556,81.99,643.406,79.92,643.406z"/>
		<path fill="#FFFFFF" d="M82.35,638.906c-0.34-0.24-1.01-0.82-1.01-1.16c0-0.4,0.12-0.59,0.74-1.061
			c0.63-0.479,1.08-1.16,1.08-1.939c0-0.939-0.43-1.85-1.23-2.15h1.211l0.859-0.6h-3.83c-1.72,0-3.34,1.26-3.34,2.721
			c0,1.5,1.17,2.699,2.92,2.699l0.359-0.01c-0.119,0.21-0.199,0.449-0.199,0.699c0,0.396,0.23,0.75,0.52,1.021l-0.66,0.011
			c-2.129,0-3.77,1.319-3.77,2.688c0,1.34,1.8,2.18,3.93,2.18c2.419,0,3.759-1.33,3.759-2.68
			C83.689,640.246,83.37,639.595,82.35,638.906z M80.3,637.045c-0.979-0.03-1.92-1.079-2.09-2.329
			c-0.17-1.261,0.49-2.221,1.479-2.188c0.98,0.021,1.92,1.024,2.09,2.291C81.95,636.076,81.29,637.066,80.3,637.045z M79.92,643.406
			c-1.47,0-2.54-0.91-2.54-1.99c0-1.061,1.32-1.949,2.79-1.93c0.35,0,0.67,0.05,0.96,0.14c0.8,0.54,1.37,0.854,1.53,1.46
			c0.029,0.131,0.05,0.25,0.05,0.381C82.71,642.556,81.99,643.406,79.92,643.406z"/>
	</g>
</g>
<polygon fill="#59AD46" points="134,774.5 137,771.5 140,774.5 147,767.5 150,770.5 140,780.5 "/>
<path fill="#070707" d="M101.91,837.001l2.3-2.29c0.39-0.39,0.39-1.03,0-1.42s-1.03-0.39-1.42,0l-2.29,2.3l-2.29-2.3
	c-0.39-0.39-1.03-0.39-1.42,0s-0.39,1.03,0,1.42l2.3,2.29l-2.3,2.29c-0.39,0.39-0.39,1.03,0,1.42c0.2,0.19,0.45,0.29,0.71,0.29
	s0.51-0.1,0.71-0.29l2.29-2.3l2.29,2.3c0.2,0.19,0.45,0.29,0.71,0.29s0.51-0.1,0.71-0.29c0.39-0.39,0.39-1.03,0-1.42L101.91,837.001
	z"/>
<g opacity="0.1">
	<path fill="#050505" d="M57.04,1307c-0.39,0-0.76-0.08-1.11-0.25c-0.62-0.3-1.08-0.82-1.3-1.46c-0.21-0.63-0.17-1.3,0.13-1.899
		C59.53,1293.9,69.2,1288,80,1288s20.471,5.9,25.24,15.4c0.3,0.59,0.34,1.26,0.13,1.89c-0.22,0.64-0.681,1.16-1.3,1.46
		c-0.35,0.16-0.721,0.25-1.11,0.25c-0.979,0-1.86-0.54-2.29-1.4c-3.9-7.77-11.82-12.6-20.67-12.6c-8.85,0-16.77,4.83-20.67,12.6
		C58.9,1306.471,58.02,1307,57.04,1307z"/>
	<path fill="#050505" d="M30,1281c0,27.609,22.39,50,50,50c27.609,0,50-22.391,50-50s-22.391-50-50-50
		C52.39,1231,30,1253.391,30,1281z M35,1281c0-24.85,20.15-45,45-45c24.85,0,45,20.15,45,45s-20.15,45-45,45
		C55.15,1326,35,1305.85,35,1281z"/>
	<path fill="#050505" d="M102.02,1273.5c0,3.87,3.146,7,7.01,7c3.894,0,7.021-3.13,7.021-7s-3.14-7-7.021-7
		C105.16,1266.5,102.02,1269.63,102.02,1273.5z M106,1273.5c0-1.66,1.34-3,3-3s3,1.34,3,3s-1.34,3-3,3S106,1275.16,106,1273.5z"/>
	<path fill="#050505" d="M44.02,1273.5c0,3.87,3.14,7,7.01,7c3.88,0,7.02-3.13,7.02-7s-3.14-7-7.02-7
		C47.16,1266.5,44.02,1269.63,44.02,1273.5z M48,1273.5c0-1.66,1.34-3,3-3s3,1.34,3,3s-1.34,3-3,3S48,1275.16,48,1273.5z"/>
	<path fill="#050505" d="M105.5,1285c-0.01-0.1-0.02-0.21-0.04-0.311c-0.271-1.699-2.01-4.75-2.46-5.189
		c-0.45,0.439-2.189,3.49-2.46,5.189c-0.021,0.101-0.03,0.211-0.04,0.311v0.09c0,1.33,1.12,2.41,2.5,2.41s2.5-1.08,2.5-2.41V1285z"
		/>
</g>
<g opacity="0.1">
	<g>
		<path fill="#0B0B0B" d="M57.04,1157c-0.38,0-0.76-0.08-1.12-0.25c-0.61-0.3-1.08-0.82-1.29-1.46c-0.21-0.63-0.17-1.3,0.13-1.89
			c4.77-9.5,14.44-15.4,25.24-15.4s20.471,5.9,25.24,15.4c0.3,0.59,0.34,1.26,0.13,1.89c-0.21,0.64-0.681,1.16-1.3,1.46
			c-0.34,0.17-0.73,0.25-1.11,0.25c-0.979,0-1.86-0.54-2.29-1.4c-3.9-7.77-11.83-12.6-20.67-12.6s-16.77,4.83-20.67,12.6
			C58.9,1156.46,58.02,1157,57.04,1157z"/>
		<path fill="#0B0B0B" d="M106,1123.5c0-1.66,1.34-3,3-3s3,1.34,3,3s-1.34,3-3,3S106,1125.16,106,1123.5z M102.02,1123.5
			c0,3.87,3.146,7,7.021,7c3.87,0,7-3.13,7-7s-3.13-7-7-7C105.16,1116.5,102.02,1119.63,102.02,1123.5z"/>
		<path fill="#0B0B0B" d="M48,1123.5c0-1.66,1.34-3,3-3s3,1.34,3,3s-1.34,3-3,3S48,1125.16,48,1123.5z M44.02,1123.5
			c0,3.87,3.14,7,7.02,7c3.87,0,7-3.13,7-7s-3.13-7-7-7C47.16,1116.5,44.02,1119.63,44.02,1123.5z"/>
		<path fill="#0B0B0B" d="M105.5,1135c0-0.1-0.02-0.21-0.04-0.311c-0.26-1.699-2.01-4.739-2.46-5.189
			c-0.45,0.45-2.2,3.49-2.46,5.189c-0.03,0.101-0.04,0.211-0.04,0.311v0.09c0,1.33,1.12,2.41,2.5,2.41s2.5-1.08,2.5-2.41V1135z"/>
	</g>
	<path fill="#0B0C0C" d="M140,1171c0,2.75-2.25,5-5,5H25c-2.75,0-5-2.25-5-5v-75c0-0.55,0.45-1,1-1h118c0.55,0,1,0.45,1,1V1171z
		 M21,1081c0-2.76,2.24-5,5-5h48.59c0.26,0,0.52,0.109,0.7,0.29l7.92,7.92c0.181,0.181,0.44,0.29,0.7,0.29H130c2.75-0.17,5,2.24,5,5
		v3.5c0,0.551-0.45,1-1,1H22c-0.55,0-1-0.449-1-1V1081z M140,1090.08v-0.58c0-5.52-4.37-10.01-9.73-10.01l-0.39,0.01H85.57
		l-6.74-6.74c-1.13-1.14-2.64-1.76-4.24-1.76H26c-5.51,0-10,4.49-10,10v11.689c-0.63,0.938-1,2.09-1,3.311v75c0,5.51,4.49,10,10,10
		h110c5.51,0,10-4.49,10-10v-75C145,1093.029,142.83,1090.561,140,1090.08z"/>
</g>
<g opacity="0.1">
	<path fill="#0B0B0B" d="M122.35,1005.95H38.37h-0.72c-16.33,0-29.62-14.15-29.62-31.521c0-17.039,12.62-30.924,28.46-31.521
		c-0.17-1-0.22-2-0.22-3.059c0-9.938,7.58-18.039,16.94-18.039c2.38,0,4.65,0.556,6.69,1.5c6.09-10.386,16.94-17.266,29.29-17.266
		c19.104,0,34.541,16.479,34.541,36.805v0.058c15.729,0.771,28.24,14.601,28.24,31.521C151.971,991.8,138.68,1005.95,122.35,1005.95
		z M128.55,938.4c-2.11-20.99-18.96-37.4-39.36-37.4c-12.458,0-23.91,6.02-31.354,16.29c-1.52-0.351-3.06-0.53-4.62-0.53
		c-11.67,0-21.24,9.604-21.94,21.67C15.07,941.55,3,956.45,3,974.43C3,994.59,18.54,1011,37.65,1011h84.7
		c19.11,0,34.65-16.41,34.65-36.57C157,956.48,144.83,941.49,128.55,938.4z"/>
	<path fill="#0B0B0B" d="M109.141,961.05c-1.66,0-3.021-1.354-3.021-3.03c0-1.67,1.36-3.021,3.021-3.021
		c1.67,0,3.021,1.354,3.021,3.021C112.162,959.689,110.811,961.05,109.141,961.05z M109.18,950.95c-3.9,0-7.06,3.17-7.06,7.062
		c0,3.897,3.159,7.062,7.06,7.062c3.901,0,7.062-3.16,7.062-7.062C116.24,954.12,113.08,950.95,109.18,950.95z"/>
	<path fill="#0B0B0B" d="M50.77,961.05c-1.67,0-3.02-1.354-3.02-3.03c0-1.67,1.35-3.021,3.02-3.021c1.66,0,3.01,1.354,3.01,3.021
		C53.78,959.689,52.43,961.05,50.77,961.05z M50.8,950.95c-3.9,0-7.06,3.17-7.06,7.062c0,3.897,3.16,7.062,7.06,7.062
		c3.9,0,7.06-3.16,7.06-7.062C57.86,954.12,54.7,950.95,50.8,950.95z"/>
	<path fill="#0B0B0B" d="M111.21,985.66c-0.181,0-0.36-0.01-0.54-0.051c-20.83-4.521-40.32-4.521-61.34,0
		c-1.36,0.291-2.7-0.58-2.99-1.939s0.57-2.699,1.93-3c21.45-4.609,42.21-4.609,63.46,0.01c1.354,0.291,2.229,1.631,1.93,2.99
		C113.41,984.859,112.359,985.66,111.21,985.66z"/>
</g>
<g opacity="0.1">
	<path fill="#040404" d="M21.72,1459.068l17.26,31.84c3.459,4.42,9.991,5.25,16.79,5.08h19.18v-30H39.91
		C34.53,1466.338,27.07,1465.027,21.72,1459.068z M21.01,1446.277c-0.64,1.16-0.9,2.271-1.01,3.391l5.45,6.062
		c4.17,4.629,9.87,5.312,12.92,5.312l1.22-0.05h6.51l8.7-14.229l8.04,4.326l-13.93-25.8l-28.37,0.24l8.03,6.274L21.01,1446.277z
		 M79.939,1426.008h30.042l15.148-25.67l-8.641,4.5l-6.021-11.029c-1.841-4.229-7.261-7.979-12.061-7.801l-33.131,0.23
		c7.07,2.119,11.511,7.459,15.284,14.38l10.146,18.64L79.939,1426.008z M78.42,1407.158l-2.279-4.16
		c-3.771-6.95-7.431-10.529-12.291-11.96l-7.72-2.29c-0.64,0.38-1.28,0.85-1.909,1.43l-13.841,21.28l25.95,15.36L78.42,1407.158z
		 M94.96,1456.008l-15.021,24.98l15.021,25.01v-10.01h15.021c4.521,0.41,9.649-2.5,11.83-6.881l15.879-29.67
		c-5.25,5.291-11.979,6.648-19.719,6.648l-23.011-0.104V1456.008z M117.971,1461.088c7.719,0,12.559-1.54,16.159-5.17l5.87-5.93
		c-0.04-0.73-0.13-1.5-0.32-2.32l-11.529-22.67l-25.739,15.688l11.021,20.396L117.971,1461.088L117.971,1461.088z"/>
</g>
<g>
	<path opacity="0.5" fill="#C8C5C5" enable-background="new    " d="M69.486,1672.675c4.02-2.18,6.88-5.521,7.01-9.869
		c0.23-9.461-9.16-16.359-18.55-18.322l-0.36-0.066c0.61,6.029-0.91,11.688-4.449,16.185c-3.601,4.565-8.961,7.646-15.361,8.959
		c3.09,3.679,8.05,6.021,14.031,6.429c2.85,0.209,5.75,0,8.68-0.388c3.15,2.437,7.68,2.565,11.5,2.315
		c1.189-0.104,0.98-0.58,0.05-0.812c-1.819-0.443-3.25-1.688-3.16-3.516C68.896,1673.175,69.227,1672.866,69.486,1672.675z"/>
	<path fill="#C8C5C5" d="M54.775,1641.605c-2.959-13.229-16.449-17.609-29.579-14.8c-12,2.562-24,11.604-23.69,23.959
		c0.16,5.688,3.81,10.062,8.95,12.899c0.33,0.24,0.75,0.646,0.78,1.189c0.11,2.381-1.72,4-4.04,4.591
		c-1.19,0.3-1.46,0.92,0.06,1.062c4.89,0.316,10.67,0.146,14.7-3.037c3.74,0.5,7.44,0.771,11.09,0.5
		C48.057,1666.946,58.066,1656.125,54.775,1641.605z"/>
</g>
<g>
	<path fill="#9CCF80" d="M49.092,1756.9l15-9.16l6.72,13.24c1.62,7.22-7.27,9.879-14.42,9.438L49.092,1756.9z"/>
	<path fill="#9CCF80" d="M45.682,1766.35l-7.88,14.229l7.88,14.43l0.2-5.771h7.2c2.63,0.229,6.04-1.528,7.31-4.078l9.25-17.312
		c-3.05,3.079-6.98,3.887-11.49,3.887h-12.17L45.682,1766.35z"/>
	<path fill="#9CCF80" d="M28.062,1748.811l-15.11-8.939l8.06-12.438c5.4-4.959,11.99,1.699,15.09,8.291L28.062,1748.811z"/>
	<path fill="#9CCF80" d="M37.802,1747.26l16.01,0.146l8.51-14.041l-5.03,2.617l-3.5-6.438c-1.07-2.46-4.23-4.659-7.03-4.55
		l-19.31,0.141c4.12,1.229,6.71,4.354,8.9,8.381l5.91,10.887L37.802,1747.26z"/>
	<path fill="#9CCF80" d="M1.392,1748.07l4.68,3.646l-4.41,8.449c-2.2,3.891,1.59,7.68,4,9c2.37,1.301,6.06,1.46,9.5,1.41l6.2-10.13
		l4.68,2.521l-8.13-15.051L1.392,1748.07z"/>
	<path fill="#9CCF80" d="M2.082,1767.62l10.05,18.58c2.02,2.562,5.83,3.18,9.78,3.09h10.6v-17.59l-20.11-0.146
		C9.282,1771.75,5.202,1771.09,2.082,1767.62z"/>
</g>
<path opacity="0.3" fill="#040404" enable-background="new    " d="M9,1853.55l3.08,5.354H5.92L9,1853.55z M9,1848.5l-7.5,13h15
	L9,1848.5z"/>
<g opacity="0.3">
	<polygon fill="#090909" points="14.5,1902 11.5,1902 11.5,1911 	"/>
	<polygon fill="#090909" points="15.5,1903 28.5,1903 25.5,1912 12.5,1912 	"/>
	<rect x="11.5" y="1901" fill="#090909" width="15" height="1"/>
	<rect x="11.5" y="1900" fill="#090909" width="8" height="1"/>
</g>
<g>
	<polygon fill="#FFFFFF" points="14.5,1942 11.5,1942 11.5,1951 	"/>
	<polygon fill="#FFFFFF" points="15.5,1943 28.5,1943 25.5,1952 12.5,1952 	"/>
	<rect x="11.5" y="1941" fill="#FFFFFF" width="15" height="1"/>
	<rect x="11.5" y="1940" fill="#FFFFFF" width="8" height="1"/>
</g>
<g>
	<circle fill="#DD4E37" cx="19" cy="2086" r="8"/>
	<g>
		<g>
			<path fill="#FFFFFF" d="M21.35,2086.91c-0.34-0.24-1.01-0.82-1.01-1.16c0-0.4,0.12-0.59,0.74-1.061
				c0.63-0.479,1.08-1.16,1.08-1.939c0-0.939-0.43-1.85-1.23-2.15h1.21L23,2080h-3.83c-1.72,0-3.34,1.26-3.34,2.721
				c0,1.5,1.17,2.699,2.92,2.699l0.36-0.01c-0.12,0.21-0.2,0.449-0.2,0.699c0,0.398,0.23,0.75,0.52,1.021l-0.66,0.011
				c-2.13,0-3.77,1.319-3.77,2.68c0,1.352,1.8,2.188,3.93,2.188c2.42,0,3.76-1.33,3.76-2.688
				C22.69,2088.25,22.37,2087.6,21.35,2086.91z M19.3,2085.05c-0.98-0.03-1.92-1.079-2.09-2.329c-0.17-1.261,0.49-2.221,1.48-2.188
				c0.98,0.021,1.92,1.027,2.09,2.291C20.95,2084.08,20.29,2085.07,19.3,2085.05z M18.92,2091.41c-1.47,0-2.54-0.91-2.54-1.99
				c0-1.061,1.32-1.949,2.79-1.93c0.35,0,0.67,0.05,0.96,0.14c0.8,0.54,1.37,0.851,1.53,1.46c0.03,0.131,0.05,0.25,0.05,0.381
				C21.71,2090.561,20.99,2091.41,18.92,2091.41z"/>
			<path fill="#FFFFFF" d="M21.35,2086.91c-0.34-0.24-1.01-0.82-1.01-1.16c0-0.4,0.12-0.59,0.74-1.061
				c0.63-0.479,1.08-1.16,1.08-1.939c0-0.939-0.43-1.85-1.23-2.15h1.21L23,2080h-3.83c-1.72,0-3.34,1.26-3.34,2.721
				c0,1.5,1.17,2.699,2.92,2.699l0.36-0.01c-0.12,0.21-0.2,0.449-0.2,0.699c0,0.398,0.23,0.75,0.52,1.021l-0.66,0.011
				c-2.13,0-3.77,1.319-3.77,2.68c0,1.352,1.8,2.188,3.93,2.188c2.42,0,3.76-1.33,3.76-2.688
				C22.69,2088.25,22.37,2087.6,21.35,2086.91z M19.3,2085.05c-0.98-0.03-1.92-1.079-2.09-2.329c-0.17-1.261,0.49-2.221,1.48-2.188
				c0.98,0.021,1.92,1.027,2.09,2.291C20.95,2084.08,20.29,2085.07,19.3,2085.05z M18.92,2091.41c-1.47,0-2.54-0.91-2.54-1.99
				c0-1.061,1.32-1.949,2.79-1.93c0.35,0,0.67,0.05,0.96,0.14c0.8,0.54,1.37,0.851,1.53,1.46c0.03,0.131,0.05,0.25,0.05,0.381
				C21.71,2090.561,20.99,2091.41,18.92,2091.41z"/>
		</g>
	</g>
</g>
<polygon fill="#7BB245" points="137,2186 138.74,2184.221 140.91,2186.439 145.26,2182 147,2183.779 140.91,2190 "/>
<path fill="#484848" d="M138.361,2041c2.841,0,5.562-1.12,7.57-3.12l12.91-12.88l-12.91-12.88c-2.01-2-4.729-3.12-7.57-3.12h-5.204
	v32H138.361z"/>
<g opacity="0.3">
	<rect x="11" y="1983" fill="#030303" width="16" height="9"/>
	<rect x="11" y="1981" fill="#030303" width="15" height="1"/>
	<rect x="11" y="1980" fill="#030303" width="8" height="1"/>
</g>
<g>
	<rect x="11" y="2023" fill="#FFFFFF" width="16" height="9"/>
	<rect x="11" y="2021" fill="#FFFFFF" width="15" height="1"/>
	<rect x="11" y="2020" fill="#FFFFFF" width="8" height="1"/>
</g>
<path fill="#FBB718" d="M37,2259.439L49.34,2280H24.66L37,2259.439z M37,2240l-30,50h60L37,2240z"/>
<path fill="#C6C4C4" d="M2,2371c0,19.33,15.67,35,35,35s35-15.67,35-35s-15.67-35-35-35S2,2351.67,2,2371z M7,2371
	c0-16.57,13.43-30,30-30s30,13.43,30,30s-13.43,30-30,30S7,2387.57,7,2371z"/>
<g>
	<path fill="#C6C4C4" d="M44.92,2354.2c0,1.239-0.47,2.29-1.4,3.159c-0.939,0.871-2.069,1.311-3.39,1.311
		c-1.31,0-2.45-0.439-3.39-1.311c-0.94-0.869-1.41-1.92-1.41-3.159c0-1.24,0.47-2.3,1.41-3.171c0.939-0.879,2.08-1.319,3.39-1.319
		c1.32,0,2.45,0.44,3.39,1.319C44.45,2351.9,44.92,2352.96,44.92,2354.2z M44.41,2384.01l-0.54,2.2c-1.61,0.63-2.899,1.12-3.86,1.45
		c-0.96,0.33-2.07,0.5-3.34,0.5c-1.96,0-3.47-0.48-4.55-1.43c-1.09-0.951-1.63-2.16-1.63-3.621c0-0.569,0.04-1.159,0.12-1.75
		c0.08-0.6,0.21-1.271,0.39-2.02l2.02-7.129c0.18-0.688,0.33-1.33,0.45-1.938c0.12-0.607,0.19-1.17,0.19-1.684
		c0-0.907-0.19-1.539-0.57-1.896c-0.37-0.359-1.09-0.541-2.15-0.541c-0.52,0-1.06,0.08-1.61,0.25c-0.54,0.159-1.01,0.312-1.4,0.461
		l0.54-2.199c1.32-0.527,2.58-0.988,3.78-1.38c1.21-0.38,2.35-0.566,3.43-0.566c1.94,0,3.429,0.476,4.48,1.396
		c1.05,0.938,1.58,2.157,1.58,3.646c0,0.312-0.04,0.855-0.11,1.646c-0.08,0.778-0.21,1.5-0.409,2.146l-2,7.104
		c-0.171,0.569-0.311,1.22-0.441,1.96c-0.129,0.729-0.199,1.279-0.199,1.658c0,0.938,0.21,1.58,0.63,1.922
		c0.431,0.35,1.16,0.521,2.2,0.521c0.49,0,1.04-0.091,1.66-0.261C43.68,2384.29,44.13,2384.141,44.41,2384.01z"/>
</g>
<path fill="#C6C4C4" d="M2,2481c0,19.33,15.67,35,35,35s35-15.67,35-35s-15.67-35-35-35S2,2461.67,2,2481z M7,2481
	c0-16.57,13.43-30,30-30s30,13.43,30,30s-13.43,30-30,30S7,2497.57,7,2481z"/>
<g>
	<path fill="#C6C4C4" d="M40.02,2494.189c0,1.23-0.47,2.301-1.41,3.188c-0.93,0.88-2.029,1.33-3.279,1.33
		c-1.27,0-2.37-0.45-3.31-1.33c-0.94-0.89-1.4-1.95-1.4-3.188c0-1.229,0.46-2.312,1.4-3.209c0.94-0.9,2.04-1.354,3.31-1.354
		c1.25,0,2.35,0.45,3.279,1.354C39.55,2491.88,40.02,2492.96,40.02,2494.189z M48.8,2472.68c0,3.271-1.12,5.93-3.36,7.961
		c-2.25,2.039-5.25,3.199-8.989,3.489l-0.15,3.32h-2.17v-9.49c2.36-0.2,4.21-0.94,5.54-2.239c1.34-1.291,2.01-3.051,2.01-5.281
		c0-1.771-0.47-3.189-1.41-4.26c-0.93-1.07-2.189-1.6-3.77-1.6c-0.67,0-1.26,0.07-1.78,0.21c-0.52,0.13-1.03,0.351-1.52,0.64
		c0.17,0.521,0.36,1.189,0.58,2.021c0.22,0.812,0.33,1.569,0.33,2.271c0,1.146-0.37,2.021-1.11,2.646
		c-0.74,0.621-1.77,0.938-3.09,0.938c-1.24,0-2.21-0.394-2.92-1.17c-0.71-0.791-1.06-1.75-1.06-2.894c0-1.866,1.06-3.446,3.2-4.765
		c2.13-1.302,4.7-1.944,7.71-1.944c3.57,0,6.45,0.933,8.66,2.774C47.7,2467.189,48.8,2469.641,48.8,2472.68z"/>
</g>
<path fill="#C6C4C4" d="M2,2591c0,19.33,15.67,35,35,35s35-15.67,35-35s-15.67-35-35-35S2,2571.67,2,2591z M7,2591
	c0-16.57,13.43-30,30-30s30,13.43,30,30s-13.43,30-30,30S7,2607.57,7,2591z"/>
<g>
	<path fill="#C6C4C4" d="M41.45,2603.859c0,1.23-0.47,2.301-1.41,3.181c-0.931,0.89-2.03,1.34-3.28,1.34
		c-1.27,0-2.37-0.45-3.31-1.34c-0.94-0.88-1.4-1.94-1.4-3.181c0-1.239,0.46-2.312,1.4-3.209c0.94-0.9,2.04-1.36,3.31-1.36
		c1.25,0,2.35,0.46,3.28,1.36C40.98,2601.55,41.45,2602.62,41.45,2603.859z M41.49,2576.88c0,0.67-0.11,1.55-0.35,2.649
		c-0.24,1.101-0.531,2.391-0.891,3.871c-0.34,1.396-0.73,3.14-1.17,5.23c-0.439,2.096-0.91,4.67-1.391,7.75H35.81
		c-0.49-3.104-0.96-5.695-1.4-7.771c-0.44-2.062-0.83-3.808-1.17-5.198c-0.31-1.279-0.59-2.54-0.85-3.771
		c-0.26-1.229-0.39-2.146-0.39-2.771c0-1.25,0.46-2.319,1.39-3.21c0.93-0.896,2.04-1.33,3.34-1.33c1.289,0,2.399,0.438,3.35,1.33
		C41.02,2574.561,41.49,2575.63,41.49,2576.88z"/>
</g>
<linearGradient id="SVGID_1_" gradientUnits="userSpaceOnUse" x1="2255.5" y1="13931.5" x2="2255.5" y2="13947.5" gradientTransform="matrix(1 0 0 -1 -2175.5 16718.5)">
	<stop  offset="0" style="stop-color:#FFFFFF;stop-opacity:0"/>
	<stop  offset="1" style="stop-color:#FFFFFF"/>
</linearGradient>
<rect y="2771" fill="url(#SVGID_1_)" width="160" height="16"/>
<linearGradient id="SVGID_2_" gradientUnits="userSpaceOnUse" x1="2255.5" y1="13871.5" x2="2255.5" y2="13887.5" gradientTransform="matrix(1 0 0 -1 -2175.5 16718.5)">
	<stop  offset="0" style="stop-color:#FFFFFF"/>
	<stop  offset="1" style="stop-color:#FFFFFF;stop-opacity:0"/>
</linearGradient>
<rect y="2831" fill="url(#SVGID_2_)" width="160" height="16"/>
<g>
	<g>
		<path fill="#EDC11F" d="M61,2693c0-1.189-0.811-2-2-2H39l-4-4H14c-1.2,0-2,0.8-2,2v6h49V2693z M11,2697v31.83
			c0,1.199,0.98,2.17,2.17,2.17h47.66c1.199,0,2.17-0.971,2.17-2.17V2697H11z"/>
	</g>
	<path fill="#FFFFFF" d="M37.9,2703.73l-3.311,3.31c1.21-0.08,2.45,0.11,3.59,0.59l1.811-1.81c1.15-1.15,3.039-1.15,4.189,0
		c1.15,1.146,1.15,3.039,0,4.188l-4.189,4.19c-1.15,1.146-3.04,1.146-4.19,0c-0.38-0.396-1.01-0.396-1.39,0l-0.7,0.698
		c-0.39,0.379-0.39,1.012,0,1.392c2.3,2.31,6.069,2.31,8.37,0l4.189-4.19c2.311-2.3,2.311-6.062,0-8.36
		C43.971,2701.42,40.2,2701.42,37.9,2703.73z"/>
	<path fill="#FFFFFF" d="M30.92,2710.71l-4.19,4.19c-2.31,2.3-2.31,6.062,0,8.36c2.3,2.312,6.07,2.312,8.37,0l3.3-3.299
		c-1.211,0.079-2.44-0.121-3.581-0.604l-1.81,1.812c-1.15,1.146-3.04,1.146-4.19,0s-1.15-3.039,0-4.188l4.19-4.188
		c0.99-0.989,2.53-1.12,3.68-0.396l0.021,0.015c0.17,0.104,0.34,0.235,0.49,0.39c0.38,0.39,1.01,0.39,1.39,0l0.7-0.7
		c0.39-0.379,0.39-1.01,0-1.39C36.99,2708.4,33.22,2708.4,30.92,2710.71z"/>
</g>
<path opacity="0.3" fill="#676868" enable-background="new    " d="M60,2936.87L84.68,2978H35.32L60,2936.87z M60,2898L0,2998h120
	L60,2898z"/>
<g>
	<path opacity="0.5" fill="#FFFFFF" enable-background="new    " d="M56.57,3117.48c-0.57-0.604-5.76-2.99-6.721-3.32
		c0-0.2-0.119-0.93-0.39-1.062c-0.271-0.1-1.12-0.52-1.12-0.52c0-0.062-0.1-0.24-0.109-0.432c0-0.227,0.109-0.42,0.109-0.42
		c0.11-0.229,0.53-0.771,0.641-1.187c0.119-0.42,0.25-1.487,0.25-1.487c0-0.223,0.34-0.33,0.539-0.438
		c0.381-0.17,0.69-2.45,0.69-2.45c0-0.75-0.31-0.43-0.31-0.96v-1.987c0-2.438-2.08-3.771-4.541-3.771h-0.09
		c-2.459,0-4.34,1.329-4.34,3.771v1.987c0,0.53-0.31,0.21-0.31,0.96c0,0,0.31,2.28,0.68,2.45c0.22,0.107,0.55,0.22,0.55,0.438
		c0,0,0.141,1.067,0.25,1.487c0.11,0.41,0.53,0.95,0.65,1.187c0,0,0.109,0.193,0.109,0.42c-0.02,0.188-0.109,0.363-0.109,0.432
		c0,0-0.87,0.42-1.12,0.52c-0.28,0.133-0.39,0.86-0.39,1.062c-0.19,0.07-0.551,0.21-1,0.41c2.46,1.111,5.59,2.652,6.26,3.354
		c0.2,0.2,0.8,0.854,0.9,3.93h8.27c0.59,0,1.08-0.482,1.08-1.062v-0.312C57,3120.48,57,3117.92,56.57,3117.48z"/>
	<path fill="#FFFFFF" d="M45.779,3118.83c-0.75-0.78-7.459-3.87-8.709-4.301c0-0.26-0.141-1.209-0.5-1.369
		c-0.34-0.131-1.45-0.67-1.45-0.67c0-0.08-0.13-0.311-0.14-0.57c0-0.27,0.14-0.54,0.14-0.54c0.15-0.29,0.69-0.979,0.84-1.521
		c0.15-0.549,0.32-1.93,0.32-1.93c0-0.289,0.43-0.42,0.701-0.57c0.49-0.219,0.89-3.17,0.89-3.17c0-0.969-0.399-0.562-0.399-1.239
		v-2.57c0-3.17-2.691-4.88-5.881-4.88h-0.12c-3.18,0-5.61,1.71-5.61,4.88v2.57c0,0.68-0.4,0.271-0.4,1.239c0,0,0.4,2.951,0.88,3.17
		c0.28,0.146,0.72,0.281,0.72,0.57c0,0,0.17,1.381,0.32,1.93c0.14,0.541,0.69,1.229,0.83,1.521c0,0,0.15,0.271,0.15,0.54
		c-0.03,0.26-0.15,0.49-0.15,0.57c0,0-1.11,0.539-1.45,0.67c-0.35,0.16-0.5,1.109-0.5,1.369c-1.26,0.431-7.96,3.521-8.72,4.301
		c-0.54,0.57-0.54,3.88-0.54,3.88v0.41c0,0.75,0.62,1.38,1.38,1.38h26.56c0.761,0,1.391-0.63,1.391-1.38v-0.41
		C46.33,3122.71,46.33,3119.4,45.779,3118.83z"/>
</g>
<path fill="#020202" d="M13.41,3189.002l2.3-2.291c0.39-0.389,0.39-1.029,0-1.42c-0.39-0.389-1.03-0.389-1.42,0l-2.29,2.301
	l-2.29-2.301c-0.39-0.389-1.03-0.389-1.42,0c-0.39,0.391-0.39,1.031,0,1.42l2.3,2.291l-2.3,2.289c-0.39,0.391-0.39,1.031,0,1.42
	c0.2,0.191,0.45,0.291,0.71,0.291s0.51-0.1,0.71-0.291l2.29-2.299l2.29,2.299c0.2,0.191,0.45,0.291,0.71,0.291s0.51-0.1,0.71-0.291
	c0.39-0.389,0.39-1.029,0-1.42L13.41,3189.002z"/>
<g>
	<path fill="#464646" d="M7.34,2117.979c-0.619-0.632-1.46-0.979-2.34-0.979h16c-0.88,0-1.721,0.353-2.34,0.979l-4.49,4.521
		c-0.65,0.67-1.689,0.67-2.34,0L7.34,2117.979z"/>
</g>
<circle fill="#FFFFFF" cx="6.005" cy="2147.002" r="1"/>
<g>
	<path fill="#FFFFFF" d="M5.065,2145.002c-0.05-0.26-0.04-0.49,0.03-0.7c0.07-0.2,0.16-0.39,0.28-0.55
		c0.11-0.17,0.25-0.32,0.399-0.45l0.431-0.38c0.13-0.13,0.239-0.25,0.34-0.38c0.09-0.12,0.14-0.261,0.14-0.409
		c0-0.25-0.09-0.431-0.25-0.551c-0.16-0.13-0.369-0.188-0.619-0.188c-0.24,0-0.46,0.049-0.641,0.158
		c-0.19,0.102-0.37,0.229-0.55,0.379l-0.96-0.879c0.28-0.312,0.61-0.562,0.99-0.766c0.38-0.188,0.81-0.29,1.28-0.29
		c0.33,0,0.65,0.04,0.94,0.12s0.55,0.19,0.76,0.354c0.22,0.155,0.39,0.354,0.511,0.6c0.129,0.24,0.189,0.521,0.189,0.845
		c0,0.262-0.051,0.479-0.141,0.67c-0.1,0.182-0.209,0.354-0.35,0.512c-0.14,0.158-0.29,0.301-0.449,0.438
		c-0.16,0.135-0.301,0.271-0.431,0.41c-0.13,0.145-0.239,0.301-0.319,0.471s-0.101,0.359-0.08,0.594h-1.5V2145.002z"/>
</g>
<g>
	<rect x="5" y="503" fill="#FFFFFF" width="2" height="5"/>
	<rect x="5" y="500" fill="#FFFFFF" width="2" height="2"/>
</g>
<g>
	<path fill="#FFFFFF" d="M145.811,3192.059c-0.25-0.262-2.541-1.315-2.972-1.461c0-0.091-0.05-0.405-0.17-0.471
		c-0.108-0.04-0.489-0.229-0.489-0.229c0-0.03-0.039-0.11-0.051-0.19c0-0.101,0.051-0.188,0.051-0.188
		c0.051-0.104,0.229-0.33,0.279-0.521c0.05-0.188,0.109-0.657,0.109-0.657c0-0.103,0.15-0.143,0.24-0.188
		c0.17-0.08,0.299-1.09,0.299-1.09c0-0.32-0.129-0.187-0.129-0.42v-0.884c0-1.067-0.871-1.763-1.961-1.763h-0.039
		c-1.09,0-1.961,0.689-1.961,1.763v0.884c0,0.235-0.129,0.1-0.129,0.42c0,0,0.129,1.01,0.299,1.09c0.09,0.05,0.24,0.09,0.24,0.188
		c0,0,0.062,0.474,0.105,0.657c0.049,0.189,0.229,0.42,0.275,0.521c0,0,0.055,0.09,0.055,0.188c-0.016,0.08-0.055,0.16-0.055,0.19
		c0,0-0.382,0.188-0.485,0.229c-0.12,0.062-0.171,0.38-0.171,0.471c-0.435,0.146-2.726,1.199-2.976,1.461
		c-0.188,0.198-0.188,1.33-0.188,1.33v0.144c0,0.261,0.211,0.471,0.474,0.471h9.06c0.264,0,0.474-0.21,0.474-0.471v-0.144
		C145.999,3193.388,145.999,3192.257,145.811,3192.059z"/>
	<g>
		<path fill="#FFFFFF" d="M135.471,3191.367c0.26-0.271,1.18-0.74,2-1.12c-0.012-0.101-0.052-0.3-0.132-0.351
			c-0.09-0.029-0.399-0.185-0.399-0.185c0-0.021-0.024-0.091-0.039-0.146c0-0.08,0.039-0.149,0.039-0.149
			c0.041-0.08,0.189-0.271,0.229-0.42c0.04-0.146,0.09-0.529,0.09-0.529c0-0.08,0.12-0.105,0.19-0.146
			c0.13-0.062,0.238-0.869,0.238-0.869c0-0.263-0.108-0.148-0.108-0.343v-0.698c0-0.859-0.688-1.409-1.562-1.409h-0.039
			c-0.871,0-1.562,0.552-1.562,1.409v0.698c0,0.188-0.106,0.08-0.106,0.343c0,0,0.106,0.812,0.236,0.869
			c0.07,0.039,0.188,0.069,0.188,0.146c0,0,0.053,0.379,0.093,0.529s0.188,0.34,0.229,0.42c0,0,0.039,0.07,0.039,0.149
			c-0.011,0.061-0.039,0.129-0.039,0.146c0,0-0.312,0.146-0.396,0.185c-0.096,0.051-0.137,0.311-0.137,0.379
			c-0.35,0.106-2.18,0.961-2.379,1.17c-0.146,0.155-0.146,1.062-0.146,1.062v0.11c0,0.209,0.17,0.379,0.38,0.379h2.631
			C135.061,3191.809,135.329,3191.507,135.471,3191.367z"/>
		<path fill="#FFFFFF" d="M149.85,3191.447c-0.199-0.21-2.029-1.062-2.379-1.171c0-0.069-0.041-0.329-0.132-0.379
			c-0.09-0.03-0.399-0.181-0.399-0.181c0-0.021-0.024-0.096-0.039-0.149c0-0.08,0.039-0.149,0.039-0.149
			c0.041-0.08,0.189-0.271,0.229-0.42c0.04-0.146,0.09-0.524,0.09-0.524c0-0.08,0.12-0.111,0.19-0.149
			c0.13-0.062,0.238-0.868,0.238-0.868c0-0.263-0.108-0.147-0.108-0.343v-0.698c0-0.857-0.688-1.406-1.562-1.406h-0.039
			c-0.871,0-1.562,0.55-1.562,1.406v0.698c0,0.188-0.106,0.08-0.106,0.343c0,0,0.106,0.812,0.236,0.868
			c0.07,0.039,0.189,0.069,0.189,0.149c0,0,0.051,0.379,0.091,0.524c0.04,0.149,0.188,0.345,0.229,0.42c0,0,0.039,0.069,0.039,0.149
			c-0.011,0.062-0.039,0.13-0.039,0.149c0,0-0.312,0.146-0.396,0.181c-0.08,0.039-0.12,0.25-0.137,0.34c0.82,0.38,1.73,0.851,2,1.13
			c0.146,0.14,0.41,0.439,0.467,1.63h2.63c0.21,0,0.38-0.17,0.38-0.38v-0.11C149.999,3192.507,149.999,3191.605,149.85,3191.447z"/>
	</g>
</g>
<g opacity="0.3">
	<path fill="#020202" d="M10,3223v9h16v-9H10z M13.91,3230H12.3c-0.12,0-0.3-0.09-0.3-0.21v-0.069c0,0,0-0.551,0.09-0.641
		c0.13-0.13,1.25-0.645,1.46-0.71c0-0.04,0.02-0.2,0.08-0.229l0.24-0.111c0-0.01,0.02-0.049,0.02-0.09c0-0.039-0.02-0.09-0.02-0.09
		c-0.03-0.05-0.12-0.16-0.15-0.25c-0.02-0.09-0.06-0.32-0.06-0.32c0-0.049-0.08-0.068-0.13-0.09c-0.08-0.039-0.18-0.529-0.18-0.529
		c0-0.16,0.01-0.09,0.01-0.199v-0.432c0-0.52,0.55-0.85,1.08-0.85h0.02c0.53,0,1.08,0.33,1.08,0.85v0.432c0,0.109,0,0.039,0,0.199
		c0,0-0.12,0.49-0.2,0.529c-0.05,0.021-0.12,0.041-0.12,0.09c0,0-0.03,0.23-0.05,0.32c-0.03,0.09-0.12,0.2-0.14,0.25
		c0,0-0.03,0.051-0.03,0.09c0.01,0.041,0.03,0.08,0.03,0.09l0.24,0.111c0.06,0.029,0.08,0.189,0.08,0.229l0.09,0.04
		c-0.53,0.24-1.19,0.561-1.34,0.71C14.06,3229.17,13.93,3229.29,13.91,3230z M21.3,3230.15c0,0.156-0.18,0.85-0.34,0.85h-5.85
		c-0.17,0-0.34-0.689-0.34-0.85v-0.104c0,0,0-0.72,0.12-0.853c0.17-0.172,1.66-0.852,1.94-0.938c0-0.062,0.03-0.271,0.11-0.312
		c0.08-0.027,0.32-0.147,0.32-0.147c0-0.01,0.03-0.062,0.04-0.12c0-0.062-0.04-0.119-0.04-0.119c-0.03-0.061-0.16-0.221-0.19-0.34
		c-0.03-0.111-0.07-0.421-0.07-0.421c0-0.062-0.11-0.09-0.17-0.12c-0.11-0.05-0.21-0.699-0.21-0.699c0-0.221,0.05-0.121,0.05-0.271
		v-0.569c0-0.701,0.64-1.145,1.35-1.145h0.03c0.71,0,1.341,0.439,1.341,1.145v0.569c0,0.146,0.06,0.05,0.06,0.271
		c0,0-0.12,0.649-0.229,0.699c-0.061,0.03-0.16,0.062-0.16,0.12c0,0-0.041,0.312-0.07,0.421c-0.03,0.119-0.15,0.279-0.19,0.34
		c0,0-0.03,0.062-0.03,0.119c0.01,0.062,0.03,0.11,0.03,0.12c0,0,0.25,0.12,0.32,0.147c0.08,0.039,0.12,0.25,0.12,0.312
		c0.279,0.09,1.77,0.771,1.939,0.938c0.12,0.129,0.12,0.853,0.12,0.853L21.3,3230.15L21.3,3230.15z M24,3229.79
		c0,0.12-0.18,0.21-0.3,0.21h-1.62c-0.01-0.71-0.141-0.83-0.18-0.88c-0.15-0.149-0.811-0.47-1.34-0.71l0.09-0.04
		c0-0.04,0.02-0.2,0.08-0.229l0.24-0.107c0-0.012,0.02-0.051,0.029-0.092c0-0.039-0.029-0.092-0.029-0.092
		c-0.021-0.05-0.121-0.158-0.141-0.25c-0.03-0.09-0.061-0.318-0.061-0.318c0-0.051-0.09-0.067-0.14-0.092
		c-0.08-0.039-0.17-0.527-0.17-0.527c0-0.158,0-0.092,0-0.198v-0.435c0-0.52,0.55-0.85,1.08-0.85h0.021c0.529,0,1.08,0.33,1.08,0.85
		v0.435c0,0.106,0.01,0.04,0.01,0.198c0,0-0.131,0.488-0.211,0.527c-0.049,0.021-0.119,0.041-0.119,0.092
		c0,0-0.03,0.229-0.051,0.318c-0.029,0.092-0.119,0.2-0.14,0.25c0,0-0.03,0.053-0.03,0.092c0.01,0.041,0.03,0.08,0.03,0.092
		l0.24,0.107c0.06,0.029,0.08,0.189,0.08,0.229c0.21,0.069,1.329,0.58,1.46,0.71c0.09,0.09,0.09,0.641,0.09,0.641v0.069H24
		L24,3229.79z"/>
	<polygon fill="#020202" points="25,3221 18,3221 18,3220 10,3220 10,3222 25,3222 	"/>
</g>
<g>
	<path fill="#FFFFFF" d="M10,3263v9h16v-9H10z M13.91,3270H12.3c-0.12,0-0.3-0.09-0.3-0.21v-0.069c0,0,0-0.551,0.09-0.641
		c0.13-0.13,1.25-0.645,1.46-0.71c0-0.04,0.02-0.2,0.08-0.229l0.24-0.111c0-0.01,0.02-0.049,0.02-0.09c0-0.039-0.02-0.09-0.02-0.09
		c-0.03-0.05-0.12-0.16-0.15-0.25c-0.02-0.09-0.06-0.32-0.06-0.32c0-0.049-0.08-0.068-0.13-0.09c-0.08-0.039-0.18-0.529-0.18-0.529
		c0-0.16,0.01-0.09,0.01-0.199v-0.432c0-0.52,0.55-0.85,1.08-0.85h0.02c0.53,0,1.08,0.33,1.08,0.85v0.432c0,0.109,0,0.039,0,0.199
		c0,0-0.12,0.49-0.2,0.529c-0.05,0.021-0.12,0.041-0.12,0.09c0,0-0.03,0.23-0.05,0.32c-0.03,0.09-0.12,0.2-0.14,0.25
		c0,0-0.03,0.051-0.03,0.09c0.01,0.041,0.03,0.08,0.03,0.09l0.24,0.111c0.06,0.029,0.08,0.189,0.08,0.229l0.09,0.04
		c-0.53,0.24-1.19,0.561-1.34,0.71C14.06,3269.17,13.93,3269.29,13.91,3270z M21.3,3270.15c0,0.156-0.18,0.85-0.34,0.85h-5.85
		c-0.17,0-0.34-0.689-0.34-0.85v-0.104c0,0,0-0.72,0.12-0.853c0.17-0.172,1.66-0.852,1.94-0.938c0-0.062,0.03-0.271,0.11-0.312
		c0.08-0.027,0.32-0.147,0.32-0.147c0-0.01,0.03-0.062,0.04-0.12c0-0.062-0.04-0.119-0.04-0.119c-0.03-0.061-0.16-0.221-0.19-0.34
		c-0.03-0.111-0.07-0.421-0.07-0.421c0-0.062-0.11-0.09-0.17-0.12c-0.11-0.05-0.21-0.699-0.21-0.699c0-0.221,0.05-0.121,0.05-0.271
		v-0.569c0-0.701,0.64-1.145,1.35-1.145h0.03c0.71,0,1.341,0.439,1.341,1.145v0.569c0,0.146,0.06,0.05,0.06,0.271
		c0,0-0.12,0.649-0.229,0.699c-0.061,0.03-0.16,0.062-0.16,0.12c0,0-0.041,0.312-0.07,0.421c-0.03,0.119-0.15,0.279-0.19,0.34
		c0,0-0.03,0.062-0.03,0.119c0.01,0.062,0.03,0.11,0.03,0.12c0,0,0.25,0.12,0.32,0.147c0.08,0.039,0.12,0.25,0.12,0.312
		c0.279,0.09,1.77,0.771,1.939,0.938c0.12,0.129,0.12,0.853,0.12,0.853L21.3,3270.15L21.3,3270.15z M24,3269.79
		c0,0.12-0.18,0.21-0.3,0.21h-1.62c-0.01-0.71-0.141-0.83-0.18-0.88c-0.15-0.149-0.811-0.47-1.34-0.71l0.09-0.04
		c0-0.04,0.02-0.2,0.08-0.229l0.24-0.107c0-0.012,0.02-0.051,0.029-0.092c0-0.039-0.029-0.092-0.029-0.092
		c-0.021-0.05-0.121-0.158-0.141-0.25c-0.03-0.09-0.061-0.318-0.061-0.318c0-0.051-0.09-0.067-0.14-0.092
		c-0.08-0.039-0.17-0.527-0.17-0.527c0-0.158,0-0.092,0-0.198v-0.435c0-0.52,0.55-0.85,1.08-0.85h0.021c0.529,0,1.08,0.33,1.08,0.85
		v0.435c0,0.106,0.01,0.04,0.01,0.198c0,0-0.131,0.488-0.211,0.527c-0.049,0.021-0.119,0.041-0.119,0.092
		c0,0-0.03,0.229-0.051,0.318c-0.029,0.092-0.119,0.2-0.14,0.25c0,0-0.03,0.053-0.03,0.092c0.01,0.041,0.03,0.08,0.03,0.092
		l0.24,0.107c0.06,0.029,0.08,0.189,0.08,0.229c0.21,0.069,1.329,0.58,1.46,0.71c0.09,0.09,0.09,0.641,0.09,0.641v0.069H24
		L24,3269.79z"/>
	<polygon fill="#FFFFFF" points="25,3261 18,3261 18,3260 10,3260 10,3262 25,3262 	"/>
</g>
<g opacity="0.05">
	<path fill="#020303" d="M149.79,3424.859l-8.87-5.892c-5.98-3.979-9.59-10.681-9.63-17.858c-0.11-16.42,0.11-6.392,0.11-26.909
		c0-23.431-12.53-54.591-36.021-62.75C95.2,3303.59,88.84,3295,81,3295s-14.2,8.59-14.38,16.45
		c-23.49,8.159-36.02,39.319-36.02,62.75c0,20.521,0.22,10.489,0.11,26.909c-0.04,7.181-3.65,13.881-9.63,17.858l-8.87,5.892
		c-2.01,1.341-3.21,3.591-3.21,6v5.737c0,2.65,2.15,4.804,4.8,4.804h134.4c2.649,0,4.8-2.15,4.8-4.804v-5.737
		C153,3428.45,151.8,3426.2,149.79,3424.859z"/>
	<path fill="#020303" d="M97.62,3443.8H64.38c-1.47,0-2.59,1.3-2.39,2.75c1.34,9.3,9.34,16.45,19.01,16.45s17.67-7.15,19.01-16.45
		C100.21,3445.1,99.08,3443.8,97.62,3443.8z"/>
</g>
<g opacity="0.3">
	<path d="M26.282,3540.332c-0.71-3.311-3.931-4.4-7.06-3.7c-2.86,0.649-5.73,2.909-5.65,5.989c0.04,1.41,0.91,2.511,2.14,3.221
		c0.08,0.062,0.17,0.16,0.18,0.301c0.03,0.58-0.42,0.989-0.97,1.141c-0.28,0.08-0.34,0.238,0.02,0.26
		c1.17,0.08,2.54,0.041,3.5-0.739c0.9,0.11,1.78,0.181,2.649,0.12C24.681,3546.652,27.062,3543.951,26.282,3540.332z"/>
</g>
<g>
	<path fill="#FFFFFF" d="M26.282,3610.332c-0.71-3.311-3.931-4.4-7.06-3.7c-2.86,0.649-5.73,2.909-5.65,5.989
		c0.04,1.41,0.91,2.511,2.14,3.221c0.08,0.062,0.17,0.16,0.18,0.301c0.03,0.58-0.42,0.989-0.97,1.141
		c-0.28,0.08-0.34,0.238,0.02,0.26c1.17,0.08,2.54,0.041,3.5-0.739c0.9,0.11,1.78,0.181,2.649,0.12
		C24.681,3616.652,27.062,3613.951,26.282,3610.332z"/>
</g>
<path fill="#FFFFFF" d="M8,3669c-2.21,0-4,1.79-4,4v8c0,2.21,1.79,4,4,4h8c2.21,0,4-1.79,4-4v-8c0-2.21-1.79-4-4-4H8z
	 M17.859,3675.5c0.73,3.25-1.5,5.68-4.84,5.91c-0.81,0.061-1.64,0-2.47-0.11c-0.9,0.71-2.18,0.75-3.27,0.671
	c-0.34-0.021-0.28-0.16-0.02-0.23c0.52-0.131,0.93-0.5,0.9-1.028c0-0.12-0.09-0.21-0.17-0.271c-1.14-0.629-1.96-1.618-1.99-2.89
	c-0.07-2.76,2.61-4.79,5.28-5.37C14.2,3671.55,17.2,3672.529,17.859,3675.5z"/>
<polygon opacity="0.3" fill-rule="evenodd" clip-rule="evenodd" points="142,3726 150,3726 146,3730 "/>
<path fill-rule="evenodd" clip-rule="evenodd" fill="#FFFFFF" d="M11,3767.52l1.641,2.631H9.359L11,3767.52z M11,3764l-5,8h10
	L11,3764z"/>
<path fill="#333333" d="M3.34,3831.98C2.72,3831.35,1.88,3831,1,3831h16c-0.88,0-1.721,0.35-2.34,0.98l-4.49,4.52
	c-0.65,0.67-1.689,0.67-2.34,0L3.34,3831.98z"/>
</svg>
