<?xml version="1.0" encoding="utf-8"?>
<!-- Generator: Adobe Illustrator 16.0.0, SVG Export Plug-In . SVG Version: 6.00 Build 0)  -->
<!DOCTYPE svg PUBLIC "-//W3C//DTD SVG 1.1//EN" "http://www.w3.org/Graphics/SVG/1.1/DTD/svg11.dtd">
<svg version="1.1" id="Layer_1" xmlns="http://www.w3.org/2000/svg" xmlns:xlink="http://www.w3.org/1999/xlink" x="0px" y="0px"
	 width="160px" height="3200px" viewBox="0 0 160 3200" enable-background="new 0 0 160 3200" xml:space="preserve">
<path fill="#040404" d="M97,362.55L94.59,361l-1.32,2.54l-2.855-0.13l0.13,2.859l-2.54,1.32l1.551,2.41l-1.551,2.41l2.54,1.32
	l-0.13,2.859l2.855-0.13l1.32,2.54l2.41-1.55l2.41,1.55l1.32-2.54l2.855,0.13l-0.13-2.859l2.54-1.32l-1.551-2.41l1.551-2.41
	l-2.54-1.32l0.13-2.859l-2.855,0.13L99.41,361L97,362.55z M92,370l1.74-1.779l2.17,2.219l4.35-4.439l1.74,1.779L95.91,374L92,370z"
	/>
<g>
	<polygon fill="#040404" points="91,410 89,415 94,413 	"/>
	
		<rect x="95.385" y="400.849" transform="matrix(0.7072 0.707 -0.707 0.7072 315.9445 50.0797)" fill="#040404" width="4.243" height="11.314"/>
	<polygon fill="#040404" points="96,414 105,415 93,415 	"/>
</g>
<path fill="#FFFFFF" d="M103.779,333.18c-0.309-0.32-3.049-1.59-3.568-1.76c0-0.109-0.061-0.5-0.199-0.57
	c-0.141-0.05-0.601-0.27-0.601-0.27c0-0.03-0.052-0.13-0.062-0.23c0-0.109,0.062-0.22,0.062-0.22c0.062-0.12,0.29-0.409,0.351-0.63
	c0.062-0.221,0.131-0.79,0.131-0.79c0-0.12,0.181-0.17,0.289-0.229c0.189-0.09,0.359-1.301,0.359-1.301
	c0-0.398-0.17-0.229-0.17-0.51v-1.05c0-1.3-1.04-2.12-2.342-2.12h-0.059c-1.304,0-2.344,0.82-2.344,2.12v1.05
	c0,0.28-0.17,0.109-0.17,0.51c0,0,0.17,1.211,0.357,1.301c0.108,0.06,0.289,0.109,0.289,0.229c0,0,0.069,0.569,0.131,0.79
	c0.062,0.221,0.289,0.51,0.353,0.63c0,0,0.062,0.11,0.062,0.22c-0.01,0.101-0.062,0.2-0.062,0.23c0,0-0.46,0.22-0.603,0.27
	c-0.141,0.07-0.197,0.461-0.197,0.57c-0.521,0.17-3.264,1.439-3.566,1.76c-0.224,0.23-0.224,1.58-0.224,1.58v0.17
	c0,0.312,0.26,0.57,0.567,0.57h10.858c0.312,0,0.57-0.26,0.57-0.57v-0.17C104.001,334.76,104.001,333.41,103.779,333.18z"/>
<g>
	<path fill="#040404" d="M97,294c-2.21,0-4-1.79-4-4s1.79-4,4-4s4,1.79,4,4S99.21,294,97,294z M97,284c-5,0-8.18,4.29-10,6
		c1.82,1.71,5,6,10,6s8.18-4.29,10-6C105.18,288.29,102,284,97,284z"/>
	<path fill="#040404" d="M99,290c0,1.1-0.9,2-2,2s-2-0.9-2-2s0.9-2,2-2S99,288.9,99,290z"/>
</g>
<path fill="#FFFFFF" d="M97,182.55L94.59,181l-1.32,2.54l-2.855-0.13l0.13,2.86l-2.54,1.32l1.551,2.41l-1.551,2.41l2.54,1.32
	l-0.13,2.86l2.855-0.13l1.32,2.54l2.41-1.55l2.41,1.55l1.32-2.54l2.855,0.13l-0.13-2.86l2.54-1.32l-1.551-2.41l1.551-2.41
	l-2.54-1.32l0.13-2.86l-2.855,0.13L99.41,181L97,182.55z M92,190l1.74-1.78l2.17,2.22l4.35-4.44l1.74,1.78L95.91,194L92,190z"/>
<g>
	<polygon fill="#FFFFFF" points="91,224 89,229 94,227 	"/>
	
		<rect x="95.383" y="214.846" transform="matrix(0.7072 0.707 -0.707 0.7072 184.459 -4.3694)" fill="#FFFFFF" width="4.244" height="11.313"/>
	<polygon fill="#FFFFFF" points="96,228 105,229 93,229 	"/>
</g>
<g>
	<path fill="#FFFFFF" d="M97,258c-2.21,0-4-1.79-4-4s1.79-4,4-4s4,1.79,4,4S99.21,258,97,258z M97,248c-5,0-8.18,4.29-10,6
		c1.82,1.71,5,6,10,6s8.18-4.29,10-6C105.18,252.29,102,248,97,248z"/>
	<path fill="#FFFFFF" d="M99,254c0,1.1-0.9,2-2,2s-2-0.9-2-2s0.9-2,2-2S99,252.9,99,254z"/>
</g>
<g>
	<path fill="#040404" d="M102,148v1c0,1.1-0.9,2-2,2h-6c-1.1,0-2-0.9-2-2v-6c0-1.1,0.9-2,2-2h1v-2h-1c-2.2,0-4,1.8-4,4v6
		c0,2.2,1.8,4,4,4h6c2.2,0,4-1.8,4-4v-1H102z"/>
	<polygon fill="#040404" points="106,137 105,137 99.5,141.5 97,139 97,146 104,146 101.5,143.5 106,138 	"/>
</g>
<g opacity="0.05">
	<path fill="#040404" d="M91.67,40.3c0-0.56-0.311-2.47-1.04-2.81c-0.7-0.26-2.989-1.36-2.989-1.36c0-0.17-0.261-0.65-0.301-1.15
		c0-0.56,0.301-1.11,0.301-1.11c0.312-0.6,1.43-2,1.729-3.1c0.31-1.11,0.649-3.91,0.649-3.91c0-0.601,0.91-0.86,1.479-1.15
		c0.988-0.47,2.13-6.47,2.13-6.47c0-1.95-0.51-1.11-0.51-2.51v-5.22C93.12,5.08,87.21,1,80.63,1h-0.26
		c-6.58,0-12.49,4.08-12.49,10.51v5.22c0,1.4-0.51,0.56-0.51,2.51c0,0,0.979,6,1.979,6.47C69.91,26,70.9,26.26,70.9,26.86
		c0,0,0.379,2.8,0.689,3.91c0.301,1.1,1.439,2.5,1.75,3.1c0,0,0.311,0.55,0.311,1.11c-0.041,0.5-0.301,0.98-0.301,1.15
		c0,0-2.289,1.1-2.979,1.36c-0.74,0.34-1.04,2.25-1.04,2.81c-2.6,0.84-16.439,7.14-18.01,8.71c-1.12,1.15-1.12,7.87-1.12,7.87v0.85
		c0,1.53,1.62,3.27,3.18,3.27h54.24c1.56,0,3.18-1.74,3.18-3.27v-0.85c0,0,0-6.72-1.12-7.87C108.109,47.44,94.26,41.14,91.67,40.3z
		 M130.16,46.93c-1.17-1.18-11.561-5.9-13.51-6.54c0-0.41-0.23-1.85-0.78-2.1c-0.521-0.2-2.24-1.02-2.24-1.02
		c0-0.13-0.19-0.49-0.22-0.86c0-0.42,0.22-0.83,0.22-0.83c0.229-0.45,1.08-1.5,1.3-2.33c0.23-0.83,0.49-2.94,0.49-2.94
		c0-0.45,0.68-0.63,1.1-0.86c0.74-0.35,1.92-4.85,1.92-4.85c0-1.46-0.06-0.83-0.06-1.88V18.8c0-4.81-5.069-7.88-10.01-7.88h-0.19
		c-4.938,0-10.01,3.07-10.01,7.88v3.92c0,1.05-0.061,0.42-0.061,1.88c0,0,0.896,4.5,1.641,4.85c0.42,0.23,1.25,0.41,1.25,0.86
		c0,0,0.32,2.11,0.55,2.94s1.101,1.88,1.33,2.33c0,0,0.25,0.41,0.25,0.83c-0.03,0.37-0.22,0.73-0.22,0.86c0,0-1.71,0.82-2.23,1.02
		c-0.56,0.25-0.779,1.69-0.779,2.1c-0.196,0.07-0.51,0.18-0.856,0.33c4.985,2.24,11.106,5.21,12.438,6.562
		c0.438,0.45,1.608,1.57,1.75,8.14h14.959c1.17,0,2.812-0.8,2.812-1.95v-0.64C131,52.83,131,47.79,130.16,46.93z M61.1,40.39
		c0-0.41-0.229-1.85-0.779-2.1c-0.521-0.2-2.24-1.02-2.24-1.02c0-0.13-0.2-0.49-0.221-0.86c0-0.42,0.221-0.83,0.221-0.83
		c0.23-0.45,1.08-1.5,1.3-2.33c0.229-0.83,0.49-2.94,0.49-2.94c0-0.45,0.68-0.63,1.101-0.86c0.75-0.35,1.92-4.85,1.92-4.85
		c0-1.46-0.07-0.83-0.07-1.88V18.8c0-4.81-5.061-7.88-10-7.88h-0.19c-4.94,0-10.01,3.07-10.01,7.88v3.92c0,1.05-0.06,0.42-0.06,1.88
		c0,0,0.9,4.5,1.64,4.85c0.42,0.23,1.25,0.41,1.25,0.86c0,0,0.32,2.11,0.55,2.94s1.1,1.88,1.33,2.33c0,0,0.25,0.41,0.25,0.83
		c-0.03,0.37-0.22,0.73-0.22,0.86c0,0-1.71,0.82-2.23,1.02c-0.56,0.25-0.78,1.69-0.78,2.1c-1.95,0.64-12.34,5.36-13.51,6.54
		C30,47.79,30,52.83,30,52.83v0.64c0,1.15,1.64,1.95,2.81,1.95h14.96c0.14-6.57,1.31-7.69,1.73-8.13
		c1.35-1.35,7.471-4.33,12.46-6.57C61.609,40.58,61.3,40.46,61.1,40.39z"/>
</g>
<path opacity="0.3" fill="#040404" enable-background="new    " d="M103.779,103.48c-0.309-0.32-3.049-1.59-3.569-1.76
	c0-0.11-0.06-0.5-0.2-0.57c-0.14-0.05-0.6-0.27-0.6-0.27c0-0.03-0.051-0.13-0.061-0.23c0-0.11,0.061-0.22,0.061-0.22
	c0.061-0.12,0.29-0.41,0.35-0.63c0.061-0.22,0.131-0.79,0.131-0.79c0-0.12,0.18-0.17,0.289-0.229c0.19-0.09,0.36-1.3,0.36-1.3
	c0-0.4-0.17-0.23-0.17-0.51v-1.05c0-1.3-1.04-2.12-2.341-2.12h-0.059c-1.305,0-2.345,0.82-2.345,2.12v1.05
	c0,0.28-0.17,0.11-0.17,0.51c0,0,0.17,1.21,0.356,1.3c0.109,0.06,0.289,0.11,0.289,0.229c0,0,0.07,0.57,0.131,0.79
	c0.062,0.22,0.289,0.51,0.354,0.63c0,0,0.062,0.11,0.062,0.22c-0.01,0.1-0.062,0.2-0.062,0.23c0,0-0.46,0.22-0.604,0.27
	c-0.141,0.07-0.196,0.46-0.196,0.57c-0.521,0.17-3.265,1.44-3.565,1.76c-0.225,0.23-0.225,1.58-0.225,1.58v0.17
	c0,0.31,0.26,0.57,0.566,0.57h10.859c0.311,0,0.57-0.26,0.57-0.57v-0.17C104,105.06,104,103.71,103.779,103.48z"/>
<path fill="#040404" d="M98.09,472.834c-0.39,0.392-1.029,0.392-1.42,0c-0.391-0.391-0.391-1.031,0-1.422L98.08,470l-1.41-1.412
	c-0.391-0.391-0.391-1.032,0-1.422s1.03-0.391,1.42,0l1.41,1.413l1.41-1.413c0.39-0.391,1.029-0.391,1.42,0s0.391,1.032,0,1.422
	L100.92,470l1.41,1.422c0.391,0.381,0.391,1.021,0,1.412c-0.391,0.392-1.03,0.392-1.42,0l-1.41-1.412L98.09,472.834z"/>
<g opacity="0.3">
	<path fill="#040404" d="M80.5,544l5.82-5.82c-0.25-0.106-0.53-0.18-0.82-0.18h-10c-0.29,0-0.57,0.07-0.82,0.18L80.5,544z"/>
	<path fill="#040404" d="M80.5,546l-6.82-6.82c-0.11,0.25-0.18,0.53-0.18,0.82v6c0,1.1,0.9,2,2,2h10c1.1,0,2-0.9,2-2v-6
		c0-0.29-0.07-0.57-0.18-0.82L80.5,546z"/>
</g>
<g opacity="0.3">
	<path fill="#040404" d="M80,591.5l-13.28-13.279C66.27,578.87,66,579.65,66,580.5v12c0,2.2,1.8,4,4,4h20c2.2,0,4-1.8,4-4v-12
		c0-0.85-0.27-1.63-0.721-2.279L80,591.5z"/>
	<path fill="#040404" d="M80,589.5l12.279-12.279C91.63,576.77,90.85,576.5,90,576.5H70c-0.85,0-1.63,0.27-2.28,0.721L80,589.5z"/>
</g>
<g>
	<g>
		<path fill="#FFFFFF" d="M84.21,691.82c-0.7-0.48-2.021-1.645-2.021-2.32c0-0.79,0.229-1.189,1.471-2.12
			c1.27-0.96,2.16-2.31,2.16-3.88c0-1.87-0.85-3.7-2.471-4.3h2.43L87.5,678h-7.67c-3.44,0-6.67,2.52-6.67,5.45
			c0,2.989,2.34,5.396,5.84,5.396c0.24,0,0.48-0.01,0.71-0.02c-0.23,0.42-0.39,0.891-0.39,1.391c0,0.829,0.459,1.5,1.04,2.049
			l-1.317,0.014c-4.26,0-7.54,2.631-7.54,5.357c0,2.684,3.59,4.359,7.85,4.359c4.86,0,7.542-2.67,7.542-5.35
			C86.891,694.49,86.23,693.2,84.21,691.82z M80.109,688.09c-1.979-0.061-3.852-2.14-4.199-4.66c-0.34-2.51,0.99-4.438,2.96-4.38
			c1.979,0.062,3.86,2.08,4.2,4.591C83.41,686.16,82.08,688.15,80.109,688.09z M79.34,700.811c-2.95,0-5.07-1.801-5.07-3.971
			c0-2.13,2.63-3.9,5.58-3.869c0.679,0.01,1.32,0.119,1.9,0.299c1.6,1.08,2.75,1.685,3.07,2.91c0.06,0.25,0.1,0.51,0.1,0.771
			C84.92,699.12,83.471,700.811,79.34,700.811z"/>
		<path fill="#FFFFFF" d="M84.21,691.82c-0.7-0.48-2.021-1.645-2.021-2.32c0-0.79,0.229-1.189,1.471-2.12
			c1.27-0.96,2.16-2.31,2.16-3.88c0-1.87-0.85-3.7-2.471-4.3h2.43L87.5,678h-7.67c-3.44,0-6.67,2.52-6.67,5.45
			c0,2.989,2.34,5.396,5.84,5.396c0.24,0,0.48-0.01,0.71-0.02c-0.23,0.42-0.39,0.891-0.39,1.391c0,0.829,0.459,1.5,1.04,2.049
			l-1.317,0.014c-4.26,0-7.54,2.631-7.54,5.357c0,2.684,3.59,4.359,7.85,4.359c4.86,0,7.542-2.67,7.542-5.35
			C86.891,694.49,86.23,693.2,84.21,691.82z M80.109,688.09c-1.979-0.061-3.852-2.14-4.199-4.66c-0.34-2.51,0.99-4.438,2.96-4.38
			c1.979,0.062,3.86,2.08,4.2,4.591C83.41,686.16,82.08,688.15,80.109,688.09z M79.34,700.811c-2.95,0-5.07-1.801-5.07-3.971
			c0-2.13,2.63-3.9,5.58-3.869c0.679,0.01,1.32,0.119,1.9,0.299c1.6,1.08,2.75,1.685,3.07,2.91c0.06,0.25,0.1,0.51,0.1,0.771
			C84.92,699.12,83.471,700.811,79.34,700.811z"/>
	</g>
</g>
<g>
	<g>
		<path fill="#FFFFFF" d="M81.85,638.91c-0.34-0.24-1.01-0.82-1.01-1.16c0-0.4,0.12-0.59,0.74-1.061
			c0.63-0.479,1.08-1.16,1.08-1.939c0-0.939-0.43-1.85-1.23-2.15h1.211L83.5,632h-3.83c-1.72,0-3.34,1.26-3.34,2.721
			c0,1.5,1.17,2.699,2.92,2.699l0.359-0.01c-0.119,0.21-0.199,0.449-0.199,0.699c0,0.406,0.23,0.75,0.52,1.021l-0.66,0.011
			c-2.129,0-3.77,1.319-3.77,2.684c0,1.34,1.8,2.18,3.93,2.18c2.419,0,3.759-1.33,3.759-2.68
			C83.189,640.25,82.87,639.6,81.85,638.91z M79.8,637.05c-0.979-0.03-1.92-1.079-2.09-2.329c-0.17-1.261,0.49-2.221,1.479-2.188
			c0.98,0.021,1.92,1.027,2.09,2.291C81.45,636.08,80.79,637.07,79.8,637.05z M79.42,643.41c-1.47,0-2.54-0.91-2.54-1.99
			c0-1.061,1.32-1.949,2.79-1.93c0.35,0,0.67,0.05,0.96,0.14c0.8,0.54,1.37,0.854,1.53,1.46c0.029,0.131,0.05,0.25,0.05,0.381
			C82.21,642.561,81.49,643.41,79.42,643.41z"/>
		<path fill="#FFFFFF" d="M81.85,638.91c-0.34-0.24-1.01-0.82-1.01-1.16c0-0.4,0.12-0.59,0.74-1.061
			c0.63-0.479,1.08-1.16,1.08-1.939c0-0.939-0.43-1.85-1.23-2.15h1.211L83.5,632h-3.83c-1.72,0-3.34,1.26-3.34,2.721
			c0,1.5,1.17,2.699,2.92,2.699l0.359-0.01c-0.119,0.21-0.199,0.449-0.199,0.699c0,0.406,0.23,0.75,0.52,1.021l-0.66,0.011
			c-2.129,0-3.77,1.319-3.77,2.684c0,1.34,1.8,2.18,3.93,2.18c2.419,0,3.759-1.33,3.759-2.68
			C83.189,640.25,82.87,639.6,81.85,638.91z M79.8,637.05c-0.979-0.03-1.92-1.079-2.09-2.329c-0.17-1.261,0.49-2.221,1.479-2.188
			c0.98,0.021,1.92,1.027,2.09,2.291C81.45,636.08,80.79,637.07,79.8,637.05z M79.42,643.41c-1.47,0-2.54-0.91-2.54-1.99
			c0-1.061,1.32-1.949,2.79-1.93c0.35,0,0.67,0.05,0.96,0.14c0.8,0.54,1.37,0.854,1.53,1.46c0.029,0.131,0.05,0.25,0.05,0.381
			C82.21,642.561,81.49,643.41,79.42,643.41z"/>
	</g>
</g>
<polygon fill="#59AD46" points="134,774.5 137,771.5 140,774.5 147,767.5 150,770.5 140,780.5 "/>
<path fill="#040404" d="M101.91,836.5l2.3-2.29c0.39-0.39,0.39-1.03,0-1.42s-1.03-0.39-1.42,0l-2.29,2.3l-2.29-2.3
	c-0.39-0.39-1.03-0.39-1.42,0s-0.39,1.03,0,1.42l2.3,2.29l-2.3,2.29c-0.39,0.39-0.39,1.03,0,1.42c0.2,0.19,0.45,0.29,0.71,0.29
	s0.51-0.1,0.71-0.29l2.29-2.3l2.29,2.3c0.2,0.19,0.45,0.29,0.71,0.29s0.51-0.1,0.71-0.29c0.39-0.39,0.39-1.03,0-1.42L101.91,836.5z"
	/>
<g opacity="0.1">
	<path fill="#030303" d="M57.04,1307c-0.39,0-0.76-0.08-1.11-0.25c-0.62-0.3-1.08-0.82-1.3-1.46c-0.21-0.63-0.17-1.3,0.13-1.899
		C59.53,1293.9,69.2,1288,80,1288s20.471,5.9,25.24,15.4c0.3,0.59,0.34,1.26,0.13,1.89c-0.22,0.64-0.681,1.16-1.3,1.46
		c-0.35,0.16-0.721,0.25-1.11,0.25c-0.979,0-1.86-0.54-2.29-1.4c-3.9-7.77-11.82-12.6-20.67-12.6c-8.85,0-16.77,4.83-20.67,12.6
		C58.9,1306.471,58.02,1307,57.04,1307z"/>
	<path fill="#030303" d="M30,1281c0,27.609,22.39,50,50,50c27.609,0,50-22.391,50-50s-22.391-50-50-50
		C52.39,1231,30,1253.391,30,1281z M35,1281c0-24.85,20.15-45,45-45c24.85,0,45,20.15,45,45s-20.15,45-45,45
		C55.15,1326,35,1305.85,35,1281z"/>
	<path fill="#030303" d="M102.02,1273.5c0,3.87,3.144,7,7.01,7c3.884,0,7.021-3.13,7.021-7s-3.14-7-7.021-7
		C105.16,1266.5,102.02,1269.63,102.02,1273.5z M106,1273.5c0-1.66,1.34-3,3-3s3,1.34,3,3s-1.34,3-3,3S106,1275.16,106,1273.5z"/>
	<path fill="#030303" d="M44.02,1273.5c0,3.87,3.14,7,7.01,7c3.88,0,7.02-3.13,7.02-7s-3.14-7-7.02-7
		C47.16,1266.5,44.02,1269.63,44.02,1273.5z M48,1273.5c0-1.66,1.34-3,3-3s3,1.34,3,3s-1.34,3-3,3S48,1275.16,48,1273.5z"/>
	<path fill="#030303" d="M105.5,1285c-0.01-0.1-0.02-0.21-0.04-0.311c-0.271-1.699-2.01-4.75-2.46-5.189
		c-0.45,0.439-2.189,3.49-2.46,5.189c-0.021,0.101-0.03,0.211-0.04,0.311v0.09c0,1.33,1.12,2.41,2.5,2.41s2.5-1.08,2.5-2.41V1285z"
		/>
</g>
<g opacity="0.1">
	<g>
		<path fill="#060707" d="M57.04,1157c-0.38,0-0.76-0.08-1.12-0.25c-0.61-0.3-1.08-0.82-1.29-1.46c-0.21-0.63-0.17-1.3,0.13-1.89
			c4.77-9.5,14.44-15.4,25.24-15.4s20.471,5.9,25.24,15.4c0.3,0.59,0.34,1.26,0.13,1.89c-0.21,0.64-0.681,1.16-1.3,1.46
			c-0.34,0.17-0.73,0.25-1.11,0.25c-0.979,0-1.86-0.54-2.29-1.4c-3.9-7.77-11.83-12.6-20.67-12.6s-16.77,4.83-20.67,12.6
			C58.9,1156.46,58.02,1157,57.04,1157z"/>
		<path fill="#060707" d="M106,1123.5c0-1.66,1.34-3,3-3s3,1.34,3,3s-1.34,3-3,3S106,1125.16,106,1123.5z M102.02,1123.5
			c0,3.87,3.144,7,7.021,7c3.87,0,7-3.13,7-7s-3.13-7-7-7C105.16,1116.5,102.02,1119.63,102.02,1123.5z"/>
		<path fill="#060707" d="M48,1123.5c0-1.66,1.34-3,3-3s3,1.34,3,3s-1.34,3-3,3S48,1125.16,48,1123.5z M44.02,1123.5
			c0,3.87,3.14,7,7.02,7c3.87,0,7-3.13,7-7s-3.13-7-7-7C47.16,1116.5,44.02,1119.63,44.02,1123.5z"/>
		<path fill="#060707" d="M105.5,1135c0-0.1-0.02-0.21-0.04-0.311c-0.26-1.699-2.01-4.739-2.46-5.189
			c-0.45,0.45-2.2,3.49-2.46,5.189c-0.03,0.101-0.04,0.211-0.04,0.311v0.09c0,1.33,1.12,2.41,2.5,2.41s2.5-1.08,2.5-2.41V1135z"/>
	</g>
	<path fill="#070808" d="M140,1171c0,2.75-2.25,5-5,5H25c-2.75,0-5-2.25-5-5v-75c0-0.55,0.45-1,1-1h118c0.55,0,1,0.45,1,1V1171z
		 M21,1081c0-2.76,2.24-5,5-5h48.59c0.26,0,0.52,0.109,0.7,0.29l7.92,7.92c0.181,0.181,0.44,0.29,0.7,0.29H130c2.75-0.17,5,2.24,5,5
		v3.5c0,0.55-0.45,1-1,1H22c-0.55,0-1-0.45-1-1V1081z M140,1090.08v-0.58c0-5.52-4.37-10.01-9.73-10.01l-0.39,0.01H85.57l-6.74-6.74
		c-1.13-1.14-2.64-1.76-4.24-1.76H26c-5.51,0-10,4.49-10,10v11.689c-0.63,0.948-1,2.09-1,3.311v75c0,5.51,4.49,10,10,10h110
		c5.51,0,10-4.49,10-10v-75C145,1093.029,142.83,1090.561,140,1090.08z"/>
</g>
<g opacity="0.1">
	<path fill="#060707" d="M122.35,1005.95H38.37h-0.72c-16.33,0-29.62-14.15-29.62-31.521c0-17.039,12.62-30.92,28.46-31.526
		c-0.17-1-0.22-2-0.22-3.054c0-9.938,7.58-18.038,16.94-18.038c2.38,0,4.65,0.551,6.69,1.5c6.09-10.382,16.94-17.262,29.29-17.262
		c19.104,0,34.541,16.479,34.541,36.8v0.054c15.729,0.776,28.24,14.6,28.24,31.526C151.971,991.8,138.68,1005.95,122.35,1005.95z
		 M128.55,938.4c-2.11-20.99-18.96-37.4-39.36-37.4c-12.458,0-23.91,6.02-31.356,16.29c-1.52-0.351-3.06-0.53-4.62-0.53
		c-11.67,0-21.24,9.603-21.94,21.67C15.07,941.55,3,956.45,3,974.43C3,994.59,18.54,1011,37.65,1011h84.7
		c19.11,0,34.65-16.41,34.65-36.57C157,956.48,144.83,941.49,128.55,938.4z"/>
	<path fill="#060707" d="M109.141,961.05c-1.66,0-3.021-1.357-3.021-3.03c0-1.67,1.36-3.026,3.021-3.026
		c1.67,0,3.021,1.356,3.021,3.026C112.162,959.69,110.811,961.05,109.141,961.05z M109.18,950.95c-3.9,0-7.06,3.17-7.06,7.066
		c0,3.9,3.159,7.062,7.06,7.062c3.901,0,7.062-3.16,7.062-7.062C116.24,954.12,113.08,950.95,109.18,950.95z"/>
	<path fill="#060707" d="M50.77,961.05c-1.67,0-3.02-1.357-3.02-3.03c0-1.67,1.35-3.026,3.02-3.026c1.66,0,3.01,1.356,3.01,3.026
		C53.78,959.69,52.43,961.05,50.77,961.05z M50.8,950.95c-3.9,0-7.06,3.17-7.06,7.066c0,3.9,3.16,7.062,7.06,7.062
		c3.9,0,7.06-3.16,7.06-7.062C57.86,954.12,54.7,950.95,50.8,950.95z"/>
	<path fill="#060707" d="M111.21,985.66c-0.181,0-0.36-0.01-0.54-0.051c-20.83-4.521-40.32-4.521-61.34,0
		c-1.36,0.291-2.7-0.58-2.99-1.939s0.57-2.699,1.93-3c21.45-4.609,42.21-4.609,63.46,0.01c1.356,0.291,2.229,1.631,1.93,2.99
		C113.41,984.859,112.359,985.66,111.21,985.66z"/>
</g>
<g opacity="0.1">
	<path fill="#020202" d="M21.72,1459.07l17.26,31.84c3.459,4.42,9.991,5.25,16.79,5.08h19.18v-30H39.91
		C34.53,1466.34,27.07,1465.029,21.72,1459.07z M21.01,1446.279c-0.64,1.16-0.9,2.271-1.01,3.391l5.45,6.062
		c4.17,4.629,9.87,5.317,12.92,5.317l1.22-0.05h6.51l8.7-14.23l8.04,4.33l-13.93-25.8l-28.37,0.24l8.03,6.28L21.01,1446.279z
		 M79.939,1426.01h30.042l15.148-25.67l-8.641,4.5l-6.021-11.029c-1.841-4.229-7.261-7.979-12.061-7.801l-33.131,0.23
		c7.07,2.119,11.511,7.46,15.283,14.38l10.14,18.64L79.939,1426.01z M78.42,1407.16l-2.279-4.16
		c-3.771-6.95-7.431-10.529-12.291-11.96l-7.72-2.29c-0.64,0.38-1.28,0.85-1.909,1.43l-13.841,21.28l25.95,15.36L78.42,1407.16z
		 M94.96,1456.01l-15.021,24.98L94.96,1506v-10.01h15.021c4.521,0.41,9.649-2.5,11.83-6.881l15.879-29.67
		c-5.25,5.291-11.979,6.658-19.719,6.658l-23.011-0.107V1456.01z M117.971,1461.09c7.719,0,12.559-1.54,16.159-5.17l5.87-5.93
		c-0.04-0.73-0.13-1.5-0.32-2.32L128.15,1425l-25.74,15.689l11.02,20.398L117.971,1461.09L117.971,1461.09z"/>
</g>
<g>
	<path opacity="0.5" fill="#C7C5C5" enable-background="new    " d="M68.986,1672.68c4.02-2.18,6.88-5.527,7.01-9.869
		c0.23-9.461-9.16-16.369-18.55-18.328l-0.36-0.07c0.61,6.029-0.91,11.688-4.449,16.18c-3.601,4.57-8.961,7.65-15.361,8.96
		c3.09,3.673,8.05,6.021,14.031,6.423c2.85,0.209,5.75,0,8.68-0.383c3.15,2.432,7.68,2.57,11.5,2.32c1.189-0.1,0.98-0.58,0.05-0.812
		c-1.819-0.447-3.25-1.688-3.16-3.51C68.396,1673.18,68.727,1672.87,68.986,1672.68z"/>
	<path fill="#C7C5C5" d="M54.275,1641.609c-2.959-13.229-16.449-17.609-29.579-14.799c-12,2.567-24,11.607-23.69,23.959
		c0.16,5.688,3.81,10.061,8.95,12.908c0.33,0.24,0.75,0.643,0.78,1.19c0.11,2.38-1.72,4-4.04,4.59c-1.19,0.3-1.46,0.92,0.06,1.062
		c4.89,0.318,10.67,0.141,14.7-3.039c3.74,0.5,7.44,0.77,11.09,0.5C47.557,1666.95,57.566,1656.13,54.275,1641.609z"/>
</g>
<g>
	<path fill="#9CCF7E" d="M49.092,1756.9l15-9.16l6.72,13.24c1.62,7.22-7.27,9.879-14.42,9.447L49.092,1756.9z"/>
	<path fill="#9CCF7E" d="M45.682,1766.35l-7.88,14.223l7.88,14.43l0.2-5.771h7.2c2.63,0.229,6.04-1.529,7.31-4.079l9.25-17.312
		c-3.05,3.08-6.98,3.881-11.49,3.881h-12.17L45.682,1766.35z"/>
	<path fill="#9CCF7E" d="M28.062,1748.811l-15.11-8.949l8.06-12.432c5.4-4.959,11.99,1.7,15.09,8.291L28.062,1748.811z"/>
	<path fill="#9CCF7E" d="M37.802,1747.26l16.01,0.143l8.51-14.041l-5.03,2.619l-3.5-6.431c-1.07-2.46-4.23-4.659-7.03-4.55
		l-19.31,0.141c4.12,1.229,6.71,4.352,8.9,8.379l5.91,10.881L37.802,1747.26z"/>
	<path fill="#9CCF7E" d="M1.392,1748.07l4.68,3.648l-4.41,8.449c-2.2,3.891,1.59,7.68,4,9c2.37,1.301,6.06,1.46,9.5,1.41l6.2-10.13
		l4.68,2.528l-8.13-15.051L1.392,1748.07z"/>
	<path fill="#9CCF7E" d="M2.082,1767.62l10.05,18.58c2.02,2.567,5.83,3.18,9.78,3.09h10.6v-17.59l-20.11-0.142
		C9.282,1771.75,5.202,1771.09,2.082,1767.62z"/>
</g>
<path opacity="0.3" fill="#020202" enable-background="new    " d="M8.5,1853.05l3.08,5.353H5.42L8.5,1853.05z M8.5,1848L1,1861h15
	L8.5,1848z"/>
<g opacity="0.3">
	<polygon fill="#050505" points="14,1902 11,1902 11,1911 	"/>
	<polygon fill="#050505" points="15,1903 27,1903 24,1912 12,1912 	"/>
	<rect x="11" y="1901" fill="#050505" width="14" height="1"/>
	<rect x="11" y="1900" fill="#050505" width="7" height="1"/>
</g>
<g>
	<polygon fill="#FFFFFF" points="14,1942 11,1942 11,1951 	"/>
	<polygon fill="#FFFFFF" points="15,1943 27,1943 24,1952 12,1952 	"/>
	<rect x="11" y="1941" fill="#FFFFFF" width="14" height="1"/>
	<rect x="11" y="1940" fill="#FFFFFF" width="7" height="1"/>
</g>
<g>
	<circle fill="#DD4C37" cx="19" cy="2086" r="8"/>
	<g>
		<g>
			<path fill="#FFFFFF" d="M21.35,2086.91c-0.34-0.24-1.01-0.82-1.01-1.16c0-0.4,0.12-0.59,0.74-1.061
				c0.63-0.479,1.08-1.16,1.08-1.939c0-0.939-0.43-1.85-1.23-2.15h1.21L23,2080h-3.83c-1.72,0-3.34,1.26-3.34,2.721
				c0,1.5,1.17,2.699,2.92,2.699l0.36-0.01c-0.12,0.21-0.2,0.449-0.2,0.699c0,0.408,0.23,0.75,0.52,1.021l-0.66,0.011
				c-2.13,0-3.77,1.319-3.77,2.68c0,1.342,1.8,2.182,3.93,2.182c2.42,0,3.76-1.33,3.76-2.682
				C22.69,2088.25,22.37,2087.6,21.35,2086.91z M19.3,2085.05c-0.98-0.03-1.92-1.079-2.09-2.329c-0.17-1.261,0.49-2.221,1.48-2.189
				c0.98,0.021,1.92,1.029,2.09,2.291C20.95,2084.08,20.29,2085.07,19.3,2085.05z M18.92,2091.41c-1.47,0-2.54-0.91-2.54-1.99
				c0-1.061,1.32-1.949,2.79-1.93c0.35,0,0.67,0.05,0.96,0.14c0.8,0.54,1.37,0.851,1.53,1.46c0.03,0.131,0.05,0.25,0.05,0.381
				C21.71,2090.561,20.99,2091.41,18.92,2091.41z"/>
			<path fill="#FFFFFF" d="M21.35,2086.91c-0.34-0.24-1.01-0.82-1.01-1.16c0-0.4,0.12-0.59,0.74-1.061
				c0.63-0.479,1.08-1.16,1.08-1.939c0-0.939-0.43-1.85-1.23-2.15h1.21L23,2080h-3.83c-1.72,0-3.34,1.26-3.34,2.721
				c0,1.5,1.17,2.699,2.92,2.699l0.36-0.01c-0.12,0.21-0.2,0.449-0.2,0.699c0,0.408,0.23,0.75,0.52,1.021l-0.66,0.011
				c-2.13,0-3.77,1.319-3.77,2.68c0,1.342,1.8,2.182,3.93,2.182c2.42,0,3.76-1.33,3.76-2.682
				C22.69,2088.25,22.37,2087.6,21.35,2086.91z M19.3,2085.05c-0.98-0.03-1.92-1.079-2.09-2.329c-0.17-1.261,0.49-2.221,1.48-2.189
				c0.98,0.021,1.92,1.029,2.09,2.291C20.95,2084.08,20.29,2085.07,19.3,2085.05z M18.92,2091.41c-1.47,0-2.54-0.91-2.54-1.99
				c0-1.061,1.32-1.949,2.79-1.93c0.35,0,0.67,0.05,0.96,0.14c0.8,0.54,1.37,0.851,1.53,1.46c0.03,0.131,0.05,0.25,0.05,0.381
				C21.71,2090.561,20.99,2091.41,18.92,2091.41z"/>
		</g>
	</g>
</g>
<polygon fill="#7AB247" points="15,2186 16.74,2184.221 18.91,2186.439 23.26,2182 25,2183.779 18.91,2190 "/>
<path fill="#020202" d="M26,2144c0,3.87-3.13,7-7,7s-7-3.13-7-7s3.13-7,7-7S26,2140.13,26,2144z"/>
<circle fill="#FFFFFF" cx="19" cy="2147" r="1"/>
<g>
	<path fill="#FFFFFF" d="M18.06,2145c-0.05-0.26-0.04-0.49,0.03-0.7c0.07-0.2,0.16-0.39,0.28-0.55c0.11-0.17,0.25-0.32,0.4-0.45
		l0.43-0.38c0.13-0.13,0.24-0.25,0.34-0.38c0.09-0.12,0.14-0.261,0.14-0.409c0-0.25-0.09-0.431-0.25-0.551
		c-0.16-0.13-0.37-0.188-0.62-0.188c-0.24,0-0.46,0.049-0.64,0.158c-0.19,0.102-0.37,0.229-0.55,0.379l-0.96-0.879
		c0.28-0.311,0.61-0.561,0.99-0.761c0.38-0.188,0.81-0.29,1.28-0.29c0.33,0,0.65,0.04,0.94,0.12s0.55,0.19,0.76,0.353
		c0.22,0.158,0.39,0.357,0.51,0.6c0.13,0.24,0.19,0.521,0.19,0.842c0,0.26-0.05,0.479-0.14,0.67c-0.1,0.18-0.21,0.357-0.35,0.51
		c-0.14,0.16-0.29,0.301-0.45,0.438c-0.16,0.133-0.3,0.271-0.43,0.41c-0.13,0.143-0.24,0.301-0.32,0.471s-0.1,0.359-0.08,0.592h-1.5
		V2145z"/>
</g>
<path fill="#464646" d="M138.52,2041c2.84,0,5.562-1.12,7.57-3.12L159,2025l-12.91-12.88c-2.01-2-4.73-3.12-7.57-3.12h-5.205v32
	H138.52z"/>
<g opacity="0.3">
	<rect x="10.5" y="1983" fill="#010101" width="15" height="9"/>
	<rect x="10.5" y="1981" fill="#010101" width="14" height="1"/>
	<rect x="10.5" y="1980" fill="#010101" width="7" height="1"/>
</g>
<g>
	<rect x="10.5" y="2023" fill="#FFFFFF" width="15" height="9"/>
	<rect x="10.5" y="2021" fill="#FFFFFF" width="14" height="1"/>
	<rect x="10.5" y="2020" fill="#FFFFFF" width="7" height="1"/>
</g>
<path fill-rule="evenodd" clip-rule="evenodd" fill="#FDB814" d="M37,2259.439L49.34,2280H24.66L37,2259.439z M37,2240l-30,50h60
	L37,2240z"/>
<path fill-rule="evenodd" clip-rule="evenodd" fill="#C6C4C4" d="M2,2371c0,19.33,15.67,35,35,35s35-15.67,35-35s-15.67-35-35-35
	S2,2351.67,2,2371z M7,2371c0-16.57,13.43-30,30-30c16.57,0,30,13.43,30,30s-13.43,30-30,30C20.43,2401,7,2387.57,7,2371z"/>
<g>
	<path fill-rule="evenodd" clip-rule="evenodd" fill="#C6C4C4" d="M44.92,2354.2c0,1.239-0.47,2.29-1.4,3.159
		c-0.939,0.871-2.069,1.311-3.39,1.311c-1.31,0-2.45-0.439-3.39-1.311c-0.94-0.869-1.41-1.92-1.41-3.159c0-1.24,0.47-2.3,1.41-3.171
		c0.939-0.879,2.08-1.319,3.39-1.319c1.32,0,2.45,0.44,3.39,1.319C44.45,2351.9,44.92,2352.96,44.92,2354.2z M44.41,2384.01
		l-0.54,2.2c-1.61,0.63-2.899,1.12-3.86,1.45c-0.96,0.33-2.07,0.5-3.34,0.5c-1.96,0-3.47-0.48-4.55-1.43
		c-1.09-0.951-1.63-2.16-1.63-3.621c0-0.569,0.04-1.159,0.12-1.75c0.08-0.59,0.21-1.27,0.39-2.01l2.02-7.129
		c0.18-0.691,0.33-1.33,0.45-1.941c0.12-0.609,0.19-1.17,0.19-1.68c0-0.91-0.19-1.539-0.57-1.899c-0.37-0.36-1.09-0.54-2.15-0.54
		c-0.52,0-1.06,0.08-1.61,0.25c-0.54,0.16-1.01,0.311-1.4,0.46l0.54-2.2c1.32-0.529,2.58-0.99,3.78-1.38
		c1.21-0.38,2.35-0.569,3.43-0.569c1.94,0,3.429,0.469,4.48,1.399c1.05,0.94,1.58,2.159,1.58,3.649c0,0.311-0.04,0.86-0.11,1.641
		c-0.08,0.779-0.21,1.5-0.409,2.15l-2,7.1c-0.171,0.57-0.311,1.22-0.441,1.96c-0.129,0.729-0.199,1.28-0.199,1.659
		c0,0.941,0.21,1.58,0.63,1.921c0.431,0.35,1.16,0.521,2.2,0.521c0.49,0,1.04-0.091,1.66-0.261
		C43.68,2384.29,44.13,2384.141,44.41,2384.01z"/>
</g>
<path fill-rule="evenodd" clip-rule="evenodd" fill="#C6C4C4" d="M2,2481c0,19.33,15.67,35,35,35s35-15.67,35-35s-15.67-35-35-35
	S2,2461.67,2,2481z M7,2481c0-16.57,13.43-30,30-30c16.57,0,30,13.43,30,30s-13.43,30-30,30C20.43,2511,7,2497.57,7,2481z"/>
<g>
	<path fill-rule="evenodd" clip-rule="evenodd" fill="#C6C4C4" d="M40.02,2494.189c0,1.24-0.47,2.301-1.41,3.19
		c-0.93,0.88-2.029,1.33-3.279,1.33c-1.27,0-2.37-0.45-3.31-1.33c-0.94-0.89-1.4-1.95-1.4-3.19c0-1.229,0.46-2.31,1.4-3.209
		c0.94-0.9,2.04-1.351,3.31-1.351c1.25,0,2.35,0.45,3.279,1.351C39.55,2491.88,40.02,2492.96,40.02,2494.189z M48.8,2472.68
		c0,3.271-1.12,5.93-3.36,7.961c-2.25,2.039-5.25,3.199-8.989,3.489l-0.15,3.32h-2.17v-9.49c2.36-0.2,4.21-0.94,5.54-2.239
		c1.34-1.291,2.01-3.051,2.01-5.281c0-1.779-0.47-3.199-1.41-4.26c-0.93-1.07-2.189-1.6-3.77-1.6c-0.67,0-1.26,0.07-1.78,0.21
		c-0.52,0.13-1.03,0.351-1.52,0.64c0.17,0.521,0.36,1.19,0.58,2.021c0.22,0.819,0.33,1.579,0.33,2.28c0,1.14-0.37,2.02-1.11,2.649
		c-0.74,0.62-1.77,0.94-3.09,0.94c-1.24,0-2.21-0.391-2.92-1.17c-0.71-0.791-1.06-1.75-1.06-2.891c0-1.869,1.06-3.449,3.2-4.76
		c2.13-1.3,4.7-1.95,7.71-1.95c3.57,0,6.45,0.931,8.66,2.78C47.7,2467.189,48.8,2469.641,48.8,2472.68z"/>
</g>
<path fill-rule="evenodd" clip-rule="evenodd" fill="#C6C4C4" d="M2,2591c0,19.33,15.67,35,35,35s35-15.67,35-35s-15.67-35-35-35
	S2,2571.67,2,2591z M7,2591c0-16.57,13.43-30,30-30c16.57,0,30,13.43,30,30s-13.43,30-30,30C20.43,2621,7,2607.57,7,2591z"/>
<g>
	<path fill-rule="evenodd" clip-rule="evenodd" fill="#C6C4C4" d="M41.45,2603.859c0,1.24-0.47,2.301-1.41,3.181
		c-0.931,0.89-2.03,1.34-3.28,1.34c-1.27,0-2.37-0.45-3.31-1.34c-0.94-0.88-1.4-1.94-1.4-3.181c0-1.239,0.46-2.31,1.4-3.209
		c0.94-0.9,2.04-1.36,3.31-1.36c1.25,0,2.35,0.46,3.28,1.36C40.98,2601.55,41.45,2602.62,41.45,2603.859z M41.49,2576.88
		c0,0.67-0.11,1.55-0.35,2.649c-0.24,1.101-0.531,2.391-0.891,3.871c-0.34,1.399-0.73,3.14-1.17,5.24
		c-0.439,2.09-0.91,4.67-1.391,7.75H35.81c-0.49-3.111-0.96-5.701-1.4-7.771c-0.44-2.06-0.83-3.8-1.17-5.2
		c-0.31-1.279-0.59-2.54-0.85-3.77c-0.26-1.23-0.39-2.15-0.39-2.771c0-1.25,0.46-2.319,1.39-3.21c0.93-0.891,2.04-1.33,3.34-1.33
		c1.289,0,2.399,0.439,3.35,1.33C41.02,2574.561,41.49,2575.63,41.49,2576.88z"/>
</g>
</svg>
