<?xml version="1.0" encoding="utf-8"?>
<!-- Generator: Adobe Illustrator 19.0.0, SVG Export Plug-In . SVG Version: 6.00 Build 0)  -->
<svg version="1.1" id="Layer_1" xmlns:sketch="http://www.bohemiancoding.com/sketch/ns"
	 xmlns="http://www.w3.org/2000/svg" xmlns:xlink="http://www.w3.org/1999/xlink" x="0px" y="0px" width="160px" height="6175px"
	 viewBox="-217 -2667.1 160 6175" style="enable-background:new -217 -2667.1 160 6175;" xml:space="preserve">
<style type="text/css">
	.st0{fill:#FFFFFF;}
	.st1{fill:#090909;}
	.st2{opacity:5.000000e-02;}
	.st3{opacity:0.3;fill:#090909;enable-background:new    ;}
	.st4{opacity:0.3;}
	.st5{opacity:0.5;fill:#C8C5C5;enable-background:new    ;}
	.st6{fill:#C8C5C5;}
	.st7{fill:#9CCF81;}
	.st8{opacity:0.3;fill:#050505;enable-background:new    ;}
	.st9{fill:#DD4F37;}
	.st10{fill:#494949;}
	.st11{fill:#FAB718;}
	.st12{fill:#C6C4C4;}
	.st13{fill:url(#Rectangle-path_1_);}
	.st14{fill:url(#Rectangle-path_2_);}
	.st15{fill:#EDC11E;}
	.st16{opacity:0.3;fill:#686969;enable-background:new    ;}
	.st17{opacity:0.5;fill:#FFFFFF;enable-background:new    ;}
	.st18{fill:#030303;}
	.st19{fill:#474747;}
	.st20{fill:#040505;}
	.st21{fill:#010101;}
	.st22{opacity:0.3;fill:#010101;enable-background:new    ;}
	.st23{fill:#333333;}
	.st24{fill:#ABABAB;}
	.st25{fill:#989898;}
	.st26{fill:#F1F0F0;}
	.st27{opacity:0.1;}
	.st28{fill:#0D0D0D;}
	.st29{opacity:0.1;fill:#0D0D0D;enable-background:new    ;}
	.st30{fill:#787878;}
	.st31{fill:#EE2A57;}
	.st32{opacity:0.8;fill:#0D0D0D;enable-background:new    ;}
	.st33{fill:#FED307;}
	.st34{opacity:0.2;fill:#FFFFFF;enable-background:new    ;}
	.st35{fill:#222222;}
	.st36{opacity:0.3;enable-background:new    ;}
	.st37{fill:#777777;}
	.st38{fill:#666666;}
	.st39{fill:#FFA500;}
	.st40{opacity:0.5;enable-background:new    ;}
	.st41{fill:#0B0B0A;}
	.st42{fill:#F1D364;}
	.st43{fill:#ECC01E;}
	.st44{fill:none;stroke:#000000;}
	.st45{fill:none;stroke:#FFFFFF;}
	.st46{fill:#464646;enable-background:new    ;}
	.st47{fill:#F5A623;}
	.st48{fill:#59AD46;}
	.st49{fill:#59BA47;}
	.st50{opacity:0.5;fill:#010101;}
	.st51{fill:#464646;}
	.st52{opacity:0.6;}
	.st53{fill:#7CB244;}
	.st54{opacity:0.8;fill:#FF6600;enable-background:new    ;}
	.st55{opacity:0.7;fill:#FF7B00;enable-background:new    ;}
	.st56{opacity:0.6;fill:#FF9100;enable-background:new    ;}
	.st57{fill:#FF3B00;}
	.st58{opacity:0.9;fill:#FF5100;enable-background:new    ;}
	.st59{opacity:0.5;fill:#FFA500;enable-background:new    ;}
</style>
<path id="Shape_3_" sketch:type="MSShapeGroup" class="st0" d="M-113.2-2333.4c-0.3-0.3-3-1.6-3.6-1.8c0-0.1-0.1-0.5-0.2-0.6
	c-0.1-0.1-0.6-0.3-0.6-0.3s-0.1-0.1-0.1-0.2c0-0.1,0.1-0.2,0.1-0.2c0.1-0.1,0.3-0.4,0.4-0.6s0.1-0.8,0.1-0.8c0-0.1,0.2-0.2,0.3-0.2
	c0.2-0.1,0.4-1.3,0.4-1.3c0-0.4-0.2-0.2-0.2-0.5v-1.1c0-1.3-1-2.1-2.3-2.1h-0.1c-1.3,0-2.4,0.8-2.4,2.1v1.1c0,0.3-0.2,0.1-0.2,0.5
	c0,0,0.2,1.2,0.4,1.3c0.1,0.1,0.3,0.1,0.3,0.2c0,0,0.1,0.6,0.1,0.8c0.1,0.2,0.3,0.5,0.4,0.6c0,0,0.1,0.1,0.1,0.2
	c0,0.1-0.1,0.2-0.1,0.2s-0.5,0.2-0.6,0.3c-0.1,0.1-0.2,0.5-0.2,0.6c-0.5,0.2-3.3,1.4-3.6,1.8c-0.2,0.2-0.2,1.6-0.2,1.6v0.2
	c0,0.3,0.3,0.6,0.6,0.6h10.9c0.3,0,0.6-0.3,0.6-0.6v-0.2C-113-2331.8-113-2333.2-113.2-2333.4L-113.2-2333.4L-113.2-2333.4z"/>
<g id="Group_4_" transform="translate(90.000000, 136.000000)" sketch:type="MSShapeGroup">
	<path id="Shape_11_" class="st1" d="M-205-2655.1v1c0,1.1-0.9,2-2,2h-6c-1.1,0-2-0.9-2-2v-6c0-1.1,0.9-2,2-2h1v-2h-1
		c-2.2,0-4,1.8-4,4v6c0,2.2,1.8,4,4,4h6c2.2,0,4-1.8,4-4v-1H-205L-205-2655.1z"/>
	<path id="Shape_12_" class="st1" d="M-201-2666.1h-1l-5.5,4.5l-2.5-2.5v7h7l-2.5-2.5l4.5-5.5V-2666.1L-201-2666.1z"/>
</g>
<g id="Group_5_" transform="translate(30.000000, 0.000000)" sketch:type="MSShapeGroup" class="st2">
	<path id="Shape_13_" class="st1" d="M-154.8-2626.8c0-0.6-0.3-2.5-1-2.8s-3-1.4-3-1.4c0-0.2-0.3-0.6-0.3-1.1c0-0.6,0.3-1.1,0.3-1.1
		c0.3-0.6,1.4-2,1.7-3.1c0.3-1.1,0.6-3.9,0.6-3.9c0-0.6,0.9-0.9,1.5-1.2c1-0.5,2.1-6.5,2.1-6.5c0-1.9-0.5-1.1-0.5-2.5v-5.2
		c0-6.4-5.9-10.5-12.5-10.5h-0.3c-6.6,0-12.5,4.1-12.5,10.5v5.2c0,1.4-0.5,0.6-0.5,2.5c0,0,1,6,2,6.5c0.6,0.3,1.6,0.6,1.6,1.2
		c0,0,0.4,2.8,0.7,3.9c0.3,1.1,1.4,2.5,1.8,3.1c0,0,0.3,0.5,0.3,1.1c0,0.5-0.3,1-0.3,1.1c0,0-2.3,1.1-3,1.4c-0.7,0.3-1,2.2-1,2.8
		c-2.6,0.8-16.4,7.1-18,8.7c-1.1,1.1-1.1,7.9-1.1,7.9v0.9c0,1.5,1.6,3.3,3.2,3.3h54.2c1.6,0,3.2-1.7,3.2-3.3v-0.9c0,0,0-6.7-1.1-7.9
		C-138.4-2619.7-152.2-2626-154.8-2626.8L-154.8-2626.8L-154.8-2626.8z M-116.3-2620.2c-1.2-1.2-11.6-5.9-13.5-6.5
		c0-0.4-0.2-1.8-0.8-2.1c-0.5-0.2-2.2-1-2.2-1c0-0.1-0.2-0.5-0.2-0.9c0-0.4,0.2-0.8,0.2-0.8c0.2-0.5,1.1-1.5,1.3-2.3
		s0.5-2.9,0.5-2.9c0-0.4,0.7-0.6,1.1-0.9c0.7-0.3,1.9-4.8,1.9-4.8c0-1.5-0.1-0.8-0.1-1.9v-3.9c0-4.8-5.1-7.9-10-7.9h-0.2
		c-4.9,0-10,3.1-10,7.9v3.9c0,1.1-0.1,0.4-0.1,1.9c0,0,0.9,4.5,1.6,4.8c0.4,0.2,1.2,0.4,1.2,0.9c0,0,0.3,2.1,0.6,2.9
		s1.1,1.9,1.3,2.3c0,0,0.2,0.4,0.2,0.8c0,0.4-0.2,0.7-0.2,0.9c0,0-1.7,0.8-2.2,1c-0.6,0.2-0.8,1.7-0.8,2.1c-0.2,0.1-0.5,0.2-0.9,0.3
		c5,2.2,11.1,5.2,12.4,6.6c0.4,0.4,1.6,1.6,1.8,8.1h15c1.2,0,2.8-0.8,2.8-2v-0.6C-115.5-2614.3-115.5-2619.3-116.3-2620.2
		L-116.3-2620.2L-116.3-2620.2z M-185.4-2626.7c0-0.4-0.2-1.8-0.8-2.1c-0.5-0.2-2.2-1-2.2-1c0-0.1-0.2-0.5-0.2-0.9
		c0-0.4,0.2-0.8,0.2-0.8c0.2-0.5,1.1-1.5,1.3-2.3c0.2-0.8,0.5-2.9,0.5-2.9c0-0.4,0.7-0.6,1.1-0.9c0.8-0.3,1.9-4.8,1.9-4.8
		c0-1.5-0.1-0.8-0.1-1.9v-3.9c0-4.8-5.1-7.9-10-7.9h-0.2c-4.9,0-10,3.1-10,7.9v3.9c0,1.1-0.1,0.4-0.1,1.9c0,0,0.9,4.5,1.6,4.8
		c0.4,0.2,1.2,0.4,1.2,0.9c0,0,0.3,2.1,0.5,2.9s1.1,1.9,1.3,2.3c0,0,0.2,0.4,0.2,0.8c0,0.4-0.2,0.7-0.2,0.9c0,0-1.7,0.8-2.2,1
		c-0.6,0.2-0.8,1.7-0.8,2.1c-1.9,0.6-12.3,5.4-13.5,6.5c-0.8,0.9-0.8,5.9-0.8,5.9v0.6c0,1.2,1.6,1.9,2.8,1.9h15
		c0.1-6.6,1.3-7.7,1.7-8.1c1.4-1.4,7.5-4.3,12.5-6.6C-184.9-2626.5-185.2-2626.6-185.4-2626.7L-185.4-2626.7L-185.4-2626.7z"/>
</g>
<path id="Shape_14_" sketch:type="MSShapeGroup" class="st3" d="M-113.2-2563.4c-0.3-0.3-3-1.6-3.6-1.8c0-0.1-0.1-0.5-0.2-0.6
	c-0.1-0.1-0.6-0.3-0.6-0.3s-0.1-0.1-0.1-0.2c0-0.1,0.1-0.2,0.1-0.2c0.1-0.1,0.3-0.4,0.4-0.6s0.1-0.8,0.1-0.8c0-0.1,0.2-0.2,0.3-0.2
	c0.2-0.1,0.4-1.3,0.4-1.3c0-0.4-0.2-0.2-0.2-0.5v-1c0-1.3-1-2.1-2.3-2.1h-0.1c-1.3,0-2.4,0.8-2.4,2.1v1c0,0.3-0.2,0.1-0.2,0.5
	c0,0,0.2,1.2,0.4,1.3c0.1,0.1,0.3,0.1,0.3,0.2c0,0,0.1,0.6,0.1,0.8c0.1,0.2,0.3,0.5,0.4,0.6c0,0,0.1,0.1,0.1,0.2
	c0,0.1-0.1,0.2-0.1,0.2s-0.5,0.2-0.6,0.3c-0.1,0.1-0.2,0.5-0.2,0.6c-0.5,0.2-3.3,1.4-3.6,1.8c-0.2,0.2-0.2,1.6-0.2,1.6v0.2
	c0,0.3,0.3,0.6,0.6,0.6h10.9c0.3,0,0.6-0.3,0.6-0.6v-0.2C-113-2561.8-113-2563.2-113.2-2563.4L-113.2-2563.4L-113.2-2563.4z"/>
<path id="Shape_15_" sketch:type="MSShapeGroup" class="st1" d="M-118.4-2194.3c-0.4,0.4-1,0.4-1.4,0c-0.4-0.4-0.4-1,0-1.4l1.4-1.4
	l-1.4-1.4c-0.4-0.4-0.4-1,0-1.4c0.4-0.4,1-0.4,1.4,0l1.4,1.4l1.4-1.4c0.4-0.4,1-0.4,1.4,0c0.4,0.4,0.4,1,0,1.4l-1.4,1.4l1.4,1.4
	c0.4,0.4,0.4,1,0,1.4c-0.4,0.4-1,0.4-1.4,0l-1.4-1.4L-118.4-2194.3L-118.4-2194.3z"/>
<g id="Group_6_" transform="translate(74.000000, 537.000000)" sketch:type="MSShapeGroup" class="st4">
	<path id="Shape_16_" class="st1" d="M-210-2660.1l5.8-5.8c-0.2-0.1-0.5-0.2-0.8-0.2h-10c-0.3,0-0.6,0.1-0.8,0.2L-210-2660.1
		L-210-2660.1z"/>
	<path id="Shape_17_" class="st1" d="M-210-2658.1l-6.8-6.8c-0.1,0.2-0.2,0.5-0.2,0.8v6c0,1.1,0.9,2,2,2h10c1.1,0,2-0.9,2-2v-6
		c0-0.3-0.1-0.6-0.2-0.8L-210-2658.1L-210-2658.1z"/>
</g>
<g id="Group_7_" transform="translate(66.000000, 576.000000)" sketch:type="MSShapeGroup" class="st4">
	<path id="Shape_18_" class="st1" d="M-203-2651.1l-13.3-13.3c-0.4,0.6-0.7,1.4-0.7,2.3v12c0,2.2,1.8,4,4,4h20c2.2,0,4-1.8,4-4v-12
		c0-0.9-0.3-1.6-0.7-2.3L-203-2651.1L-203-2651.1z"/>
	<path id="Shape_19_" class="st1" d="M-203-2653.1l12.3-12.3c-0.6-0.5-1.4-0.7-2.3-0.7h-20c-0.9,0-1.6,0.3-2.3,0.7L-203-2653.1
		L-203-2653.1z"/>
</g>
<g id="Group_8_" transform="translate(72.000000, 677.000000)" sketch:type="MSShapeGroup">
	<path id="Shape_20_" class="st0" d="M-204.3-2652.3c-0.7-0.5-2-1.6-2-2.3c0-0.8,0.2-1.2,1.5-2.1c1.3-1,2.2-2.3,2.2-3.9
		c0-1.9-0.9-3.7-2.5-4.3h2.4l1.7-1.2h-7.7c-3.4,0-6.7,2.5-6.7,5.4c0,3,2.3,5.4,5.8,5.4c0.2,0,0.5,0,0.7,0c-0.2,0.4-0.4,0.9-0.4,1.4
		c0,0.8,0.5,1.5,1,2h-1.3c-4.3,0-7.5,2.6-7.5,5.4c0,2.7,3.6,4.4,7.9,4.4c4.9,0,7.5-2.7,7.5-5.4
		C-201.6-2649.6-202.3-2650.9-204.3-2652.3L-204.3-2652.3L-204.3-2652.3z M-208.4-2656c-2-0.1-3.9-2.1-4.2-4.7c-0.3-2.5,1-4.4,3-4.4
		c2,0.1,3.9,2.1,4.2,4.6C-205.1-2657.9-206.4-2656-208.4-2656L-208.4-2656L-208.4-2656z M-209.2-2643.3c-2.9,0-5.1-1.8-5.1-4
		c0-2.1,2.6-3.9,5.6-3.9c0.7,0,1.3,0.1,1.9,0.3c1.6,1.1,2.8,1.7,3.1,2.9c0.1,0.2,0.1,0.5,0.1,0.8
		C-203.6-2645-205-2643.3-209.2-2643.3L-209.2-2643.3L-209.2-2643.3z"/>
	<path id="Shape_21_" class="st0" d="M-204.3-2652.3c-0.7-0.5-2-1.6-2-2.3c0-0.8,0.2-1.2,1.5-2.1c1.3-1,2.2-2.3,2.2-3.9
		c0-1.9-0.9-3.7-2.5-4.3h2.4l1.7-1.2h-7.7c-3.4,0-6.7,2.5-6.7,5.4c0,3,2.3,5.4,5.8,5.4c0.2,0,0.5,0,0.7,0c-0.2,0.4-0.4,0.9-0.4,1.4
		c0,0.8,0.5,1.5,1,2h-1.3c-4.3,0-7.5,2.6-7.5,5.4c0,2.7,3.6,4.4,7.9,4.4c4.9,0,7.5-2.7,7.5-5.4
		C-201.6-2649.6-202.3-2650.9-204.3-2652.3L-204.3-2652.3L-204.3-2652.3z M-208.4-2656c-2-0.1-3.9-2.1-4.2-4.7c-0.3-2.5,1-4.4,3-4.4
		c2,0.1,3.9,2.1,4.2,4.6C-205.1-2657.9-206.4-2656-208.4-2656L-208.4-2656L-208.4-2656z M-209.2-2643.3c-2.9,0-5.1-1.8-5.1-4
		c0-2.1,2.6-3.9,5.6-3.9c0.7,0,1.3,0.1,1.9,0.3c1.6,1.1,2.8,1.7,3.1,2.9c0.1,0.2,0.1,0.5,0.1,0.8
		C-203.6-2645-205-2643.3-209.2-2643.3L-209.2-2643.3L-209.2-2643.3z"/>
</g>
<g id="Group_9_" transform="translate(76.000000, 630.000000)" sketch:type="MSShapeGroup">
	<path id="Shape_22_" class="st0" d="M-210.6-2658.2c-0.3-0.2-1-0.8-1-1.2c0-0.4,0.1-0.6,0.7-1.1c0.6-0.5,1.1-1.2,1.1-1.9
		c0-0.9-0.4-1.9-1.2-2.2h1.2l0.9-0.6h-3.8c-1.7,0-3.3,1.3-3.3,2.7c0,1.5,1.2,2.7,2.9,2.7h0.4c-0.1,0.2-0.2,0.4-0.2,0.7
		c0,0.4,0.2,0.8,0.5,1h-0.7c-2.1,0-3.8,1.3-3.8,2.7c0,1.3,1.8,2.2,3.9,2.2c2.4,0,3.8-1.3,3.8-2.7
		C-209.3-2656.9-209.6-2657.5-210.6-2658.2L-210.6-2658.2L-210.6-2658.2z M-212.7-2660.1c-1,0-1.9-1.1-2.1-2.3
		c-0.2-1.3,0.5-2.2,1.5-2.2s1.9,1,2.1,2.3C-211.1-2661-211.7-2660-212.7-2660.1L-212.7-2660.1L-212.7-2660.1z M-213.1-2653.7
		c-1.5,0-2.5-0.9-2.5-2c0-1.1,1.3-1.9,2.8-1.9c0.4,0,0.7,0,1,0.1c0.8,0.5,1.4,0.9,1.5,1.5c0,0.1,0.1,0.2,0.1,0.4
		C-210.3-2654.5-211-2653.7-213.1-2653.7L-213.1-2653.7L-213.1-2653.7z"/>
	<path id="Shape_23_" class="st0" d="M-210.6-2658.2c-0.3-0.2-1-0.8-1-1.2c0-0.4,0.1-0.6,0.7-1.1c0.6-0.5,1.1-1.2,1.1-1.9
		c0-0.9-0.4-1.9-1.2-2.2h1.2l0.9-0.6h-3.8c-1.7,0-3.3,1.3-3.3,2.7c0,1.5,1.2,2.7,2.9,2.7h0.4c-0.1,0.2-0.2,0.4-0.2,0.7
		c0,0.4,0.2,0.8,0.5,1h-0.7c-2.1,0-3.8,1.3-3.8,2.7c0,1.3,1.8,2.2,3.9,2.2c2.4,0,3.8-1.3,3.8-2.7
		C-209.3-2656.9-209.6-2657.5-210.6-2658.2L-210.6-2658.2L-210.6-2658.2z M-212.7-2660.1c-1,0-1.9-1.1-2.1-2.3
		c-0.2-1.3,0.5-2.2,1.5-2.2s1.9,1,2.1,2.3C-211.1-2661-211.7-2660-212.7-2660.1L-212.7-2660.1L-212.7-2660.1z M-213.1-2653.7
		c-1.5,0-2.5-0.9-2.5-2c0-1.1,1.3-1.9,2.8-1.9c0.4,0,0.7,0,1,0.1c0.8,0.5,1.4,0.9,1.5,1.5c0,0.1,0.1,0.2,0.1,0.4
		C-210.3-2654.5-211-2653.7-213.1-2653.7L-213.1-2653.7L-213.1-2653.7z"/>
</g>
<path id="Shape_25_" sketch:type="MSShapeGroup" class="st1" d="M-115.1-1830.1l2.3-2.3c0.4-0.4,0.4-1,0-1.4s-1-0.4-1.4,0l-2.3,2.3
	l-2.3-2.3c-0.4-0.4-1-0.4-1.4,0s-0.4,1,0,1.4l2.3,2.3l-2.3,2.3c-0.4,0.4-0.4,1,0,1.4c0.2,0.2,0.4,0.3,0.7,0.3s0.5-0.1,0.7-0.3
	l2.3-2.3l2.3,2.3c0.2,0.2,0.4,0.3,0.7,0.3s0.5-0.1,0.7-0.3c0.4-0.4,0.4-1,0-1.4L-115.1-1830.1L-115.1-1830.1z"/>
<g id="Group_14_" transform="translate(1.000000, 1624.000000)" sketch:type="MSShapeGroup">
	<path id="Shape_38_" class="st5" d="M-148.5-2618.4c4-2.2,6.9-5.5,7-9.9c0.2-9.5-9.2-16.4-18.6-18.3l-0.4-0.1
		c0.6,6-0.9,11.7-4.4,16.2c-3.6,4.6-9,7.6-15.4,9c3.1,3.7,8.1,6,14,6.4c2.8,0.2,5.8,0,8.7-0.4c3.1,2.4,7.7,2.6,11.5,2.3
		c1.2-0.1,1-0.6,0.1-0.8c-1.8-0.4-3.2-1.7-3.2-3.5C-149.1-2617.9-148.8-2618.2-148.5-2618.4L-148.5-2618.4L-148.5-2618.4z"/>
	<path id="Shape_39_" class="st6" d="M-163.2-2649.5c-3-13.2-16.4-17.6-29.6-14.8c-12,2.6-24,11.6-23.7,24
		c0.2,5.7,3.8,10.1,8.9,12.9c0.3,0.2,0.8,0.6,0.8,1.2c0.1,2.4-1.7,4-4,4.6c-1.2,0.3-1.5,0.9,0.1,1.1c4.9,0.3,10.7,0.1,14.7-3
		c3.7,0.5,7.4,0.8,11.1,0.5C-169.9-2624.2-159.9-2635-163.2-2649.5L-163.2-2649.5L-163.2-2649.5z"/>
</g>
<g id="Group_15_" transform="translate(1.000000, 1723.000000)" sketch:type="MSShapeGroup">
	<path id="Shape_40_" class="st7" d="M-168.9-2633.2l15-9.2l6.7,13.2c1.6,7.2-7.3,9.9-14.4,9.4L-168.9-2633.2L-168.9-2633.2z"/>
	<path id="Shape_41_" class="st7" d="M-172.3-2623.7l-7.9,14.2l7.9,14.4l0.2-5.8h7.2c2.6,0.2,6-1.5,7.3-4.1l9.2-17.3
		c-3.1,3.1-7,3.9-11.5,3.9H-172L-172.3-2623.7L-172.3-2623.7z"/>
	<path id="Shape_42_" class="st7" d="M-189.9-2641.3l-15.1-8.9l8.1-12.4c5.4-5,12,1.7,15.1,8.3L-189.9-2641.3L-189.9-2641.3z"/>
	<path id="Shape_43_" class="st7" d="M-180.2-2642.8l16,0.1l8.5-14l-5,2.6l-3.5-6.4c-1.1-2.5-4.2-4.7-7-4.6l-19.3,0.1
		c4.1,1.2,6.7,4.4,8.9,8.4l5.9,10.9L-180.2-2642.8L-180.2-2642.8z"/>
	<path id="Shape_44_" class="st7" d="M-216.6-2642l4.7,3.6l-4.4,8.4c-2.2,3.9,1.6,7.7,4,9c2.4,1.3,6.1,1.5,9.5,1.4l6.2-10.1l4.7,2.5
		l-8.1-15.1L-216.6-2642L-216.6-2642z"/>
	<path id="Shape_45_" class="st7" d="M-215.9-2622.5l10.1,18.6c2,2.6,5.8,3.2,9.8,3.1h10.6v-17.6l-20.1-0.1
		C-208.7-2618.3-212.8-2619-215.9-2622.5L-215.9-2622.5L-215.9-2622.5z"/>
</g>
<path id="Shape_46_" sketch:type="MSShapeGroup" class="st8" d="M-208-813.5l3.1,5.4h-6.2L-208-813.5L-208-813.5z M-208-818.6
	l-7.5,13h15L-208-818.6L-208-818.6z"/>
<g id="Group_17_" transform="translate(11.000000, 2077.000000)" sketch:type="MSShapeGroup">
	<circle id="Oval" class="st9" cx="-209" cy="-2658.1" r="8"/>
	<g id="Shape_49_" transform="translate(4.000000, 2.000000)">
		<path id="Shape_26_" class="st0" d="M-210.6-2659.2c-0.3-0.2-1-0.8-1-1.2c0-0.4,0.1-0.6,0.7-1.1c0.6-0.5,1.1-1.2,1.1-1.9
			c0-0.9-0.4-1.9-1.2-2.1h1.2l0.9-0.6h-3.8c-1.7,0-3.3,1.3-3.3,2.7c0,1.5,1.2,2.7,2.9,2.7h0.4c-0.1,0.2-0.2,0.4-0.2,0.7
			c0,0.4,0.2,0.8,0.5,1h-0.7c-2.1,0-3.8,1.3-3.8,2.7c0,1.4,1.8,2.2,3.9,2.2c2.4,0,3.8-1.3,3.8-2.7
			C-209.3-2657.9-209.6-2658.5-210.6-2659.2L-210.6-2659.2L-210.6-2659.2z M-212.7-2661c-1,0-1.9-1.1-2.1-2.3
			c-0.2-1.3,0.5-2.2,1.5-2.2s1.9,1,2.1,2.3C-211.1-2662-211.7-2661-212.7-2661L-212.7-2661L-212.7-2661z M-213.1-2654.7
			c-1.5,0-2.5-0.9-2.5-2c0-1.1,1.3-1.9,2.8-1.9c0.4,0,0.7,0.1,1,0.1c0.8,0.5,1.4,0.9,1.5,1.5c0,0.1,0.1,0.2,0.1,0.4
			C-210.3-2655.5-211-2654.7-213.1-2654.7L-213.1-2654.7L-213.1-2654.7z"/>
		<path id="Shape_27_" class="st0" d="M-210.6-2659.2c-0.3-0.2-1-0.8-1-1.2c0-0.4,0.1-0.6,0.7-1.1c0.6-0.5,1.1-1.2,1.1-1.9
			c0-0.9-0.4-1.9-1.2-2.1h1.2l0.9-0.6h-3.8c-1.7,0-3.3,1.3-3.3,2.7c0,1.5,1.2,2.7,2.9,2.7h0.4c-0.1,0.2-0.2,0.4-0.2,0.7
			c0,0.4,0.2,0.8,0.5,1h-0.7c-2.1,0-3.8,1.3-3.8,2.7c0,1.4,1.8,2.2,3.9,2.2c2.4,0,3.8-1.3,3.8-2.7
			C-209.3-2657.9-209.6-2658.5-210.6-2659.2L-210.6-2659.2L-210.6-2659.2z M-212.7-2661c-1,0-1.9-1.1-2.1-2.3
			c-0.2-1.3,0.5-2.2,1.5-2.2s1.9,1,2.1,2.3C-211.1-2662-211.7-2661-212.7-2661L-212.7-2661L-212.7-2661z M-213.1-2654.7
			c-1.5,0-2.5-0.9-2.5-2c0-1.1,1.3-1.9,2.8-1.9c0.4,0,0.7,0.1,1,0.1c0.8,0.5,1.4,0.9,1.5,1.5c0,0.1,0.1,0.2,0.1,0.4
			C-210.3-2655.5-211-2654.7-213.1-2654.7L-213.1-2654.7L-213.1-2654.7z"/>
	</g>
</g>
<path id="Shape_51_" sketch:type="MSShapeGroup" class="st10" d="M-78.6-626.1c2.8,0,5.6-1.1,7.6-3.1l12.9-12.9L-71-655
	c-2-2-4.7-3.1-7.6-3.1h-5.2v32H-78.6L-78.6-626.1z"/>
<path id="Shape_52_" sketch:type="MSShapeGroup" class="st11" d="M-180-407.7l12.3,20.6h-24.7L-180-407.7L-180-407.7z M-180-427.1
	l-30,50h60L-180-427.1L-180-427.1z"/>
<path id="Shape_53_" sketch:type="MSShapeGroup" class="st12" d="M-215-296.1c0,19.3,15.7,35,35,35s35-15.7,35-35s-15.7-35-35-35
	S-215-315.4-215-296.1L-215-296.1L-215-296.1z M-210-296.1c0-16.6,13.4-30,30-30s30,13.4,30,30s-13.4,30-30,30S-210-279.5-210-296.1
	L-210-296.1L-210-296.1z"/>
<path id="Shape_54_" sketch:type="MSShapeGroup" class="st12" d="M-172.1-312.9c0,1.2-0.5,2.3-1.4,3.2s-2.1,1.3-3.4,1.3
	c-1.3,0-2.5-0.4-3.4-1.3c-0.9-0.9-1.4-1.9-1.4-3.2c0-1.2,0.5-2.3,1.4-3.2s2.1-1.3,3.4-1.3c1.3,0,2.4,0.4,3.4,1.3
	C-172.6-315.2-172.1-314.1-172.1-312.9L-172.1-312.9L-172.1-312.9z M-172.6-283.1l-0.5,2.2c-1.6,0.6-2.9,1.1-3.9,1.4
	c-1,0.3-2.1,0.5-3.3,0.5c-2,0-3.5-0.5-4.6-1.4c-1.1-1-1.6-2.2-1.6-3.6c0-0.6,0-1.2,0.1-1.8c0.1-0.6,0.2-1.3,0.4-2l2-7.1
	c0.2-0.7,0.3-1.3,0.4-1.9c0.1-0.6,0.2-1.2,0.2-1.7c0-0.9-0.2-1.5-0.6-1.9s-1.1-0.5-2.1-0.5c-0.5,0-1.1,0.1-1.6,0.2
	c-0.5,0.2-1,0.3-1.4,0.5l0.5-2.2c1.3-0.5,2.6-1,3.8-1.4c1.2-0.4,2.4-0.6,3.4-0.6c1.9,0,3.4,0.5,4.5,1.4c1,0.9,1.6,2.2,1.6,3.6
	c0,0.3,0,0.9-0.1,1.6c-0.1,0.8-0.2,1.5-0.4,2.1l-2,7.1c-0.2,0.6-0.3,1.2-0.4,2c-0.1,0.7-0.2,1.3-0.2,1.7c0,0.9,0.2,1.6,0.6,1.9
	c0.4,0.4,1.2,0.5,2.2,0.5c0.5,0,1-0.1,1.7-0.3C-173.3-282.8-172.9-283-172.6-283.1L-172.6-283.1L-172.6-283.1z"/>
<path id="Shape_55_" sketch:type="MSShapeGroup" class="st12" d="M-215-186.1c0,19.3,15.7,35,35,35s35-15.7,35-35s-15.7-35-35-35
	S-215-205.4-215-186.1L-215-186.1L-215-186.1z M-210-186.1c0-16.6,13.4-30,30-30s30,13.4,30,30s-13.4,30-30,30S-210-169.5-210-186.1
	L-210-186.1L-210-186.1z"/>
<path id="Shape_56_" sketch:type="MSShapeGroup" class="st12" d="M-177-172.9c0,1.2-0.5,2.3-1.4,3.2c-0.9,0.9-2,1.3-3.3,1.3
	s-2.4-0.4-3.3-1.3c-0.9-0.9-1.4-1.9-1.4-3.2c0-1.2,0.5-2.3,1.4-3.2s2-1.4,3.3-1.4c1.2,0,2.4,0.4,3.3,1.4
	C-177.4-175.2-177-174.1-177-172.9L-177-172.9L-177-172.9z M-168.2-194.4c0,3.3-1.1,5.9-3.4,8c-2.2,2-5.2,3.2-9,3.5l-0.1,3.3h-2.2
	v-9.5c2.4-0.2,4.2-0.9,5.5-2.2c1.3-1.3,2-3.1,2-5.3c0-1.8-0.5-3.2-1.4-4.3s-2.2-1.6-3.8-1.6c-0.7,0-1.3,0.1-1.8,0.2
	c-0.5,0.1-1,0.4-1.5,0.6c0.2,0.5,0.4,1.2,0.6,2s0.3,1.6,0.3,2.3c0,1.1-0.4,2-1.1,2.6s-1.8,0.9-3.1,0.9c-1.2,0-2.2-0.4-2.9-1.2
	s-1.1-1.8-1.1-2.9c0-1.9,1.1-3.4,3.2-4.8c2.1-1.3,4.7-1.9,7.7-1.9c3.6,0,6.4,0.9,8.7,2.8C-169.3-199.9-168.2-197.5-168.2-194.4
	L-168.2-194.4L-168.2-194.4z"/>
<path id="Shape_57_" sketch:type="MSShapeGroup" class="st12" d="M-215-76.1c0,19.3,15.7,35,35,35s35-15.7,35-35s-15.7-35-35-35
	S-215-95.4-215-76.1L-215-76.1L-215-76.1z M-210-76.1c0-16.6,13.4-30,30-30s30,13.4,30,30s-13.4,30-30,30S-210-59.5-210-76.1
	L-210-76.1L-210-76.1z"/>
<path id="Shape_58_" sketch:type="MSShapeGroup" class="st12" d="M-175.6-63.2c0,1.2-0.5,2.3-1.4,3.2s-2,1.3-3.3,1.3
	s-2.4-0.4-3.3-1.3c-0.9-0.9-1.4-1.9-1.4-3.2c0-1.2,0.5-2.3,1.4-3.2c0.9-0.9,2-1.4,3.3-1.4c1.2,0,2.3,0.5,3.3,1.4
	C-176-65.5-175.6-64.5-175.6-63.2L-175.6-63.2L-175.6-63.2z M-175.5-90.2c0,0.7-0.1,1.6-0.4,2.6c-0.2,1.1-0.5,2.4-0.9,3.9
	c-0.3,1.4-0.7,3.1-1.2,5.2c-0.4,2.1-0.9,4.7-1.4,7.8h-1.9c-0.5-3.1-1-5.7-1.4-7.8c-0.4-2.1-0.8-3.8-1.2-5.2
	c-0.3-1.3-0.6-2.5-0.9-3.8c-0.3-1.2-0.4-2.1-0.4-2.8c0-1.2,0.5-2.3,1.4-3.2c0.9-0.9,2-1.3,3.3-1.3s2.4,0.4,3.3,1.3
	C-176-92.5-175.5-91.5-175.5-90.2L-175.5-90.2L-175.5-90.2z"/>
<linearGradient id="Rectangle-path_1_" gradientUnits="userSpaceOnUse" x1="-4247.3843" y1="-8249.5947" x2="-4247.3843" y2="-8250.5947" gradientTransform="matrix(160 0 0 16 679444.5 132113.4062)">
	<stop  offset="0" style="stop-color:#FFFFFF;stop-opacity:0"/>
	<stop  offset="1" style="stop-color:#FFFFFF"/>
</linearGradient>
<rect id="Rectangle-path_10_" x="-217" y="103.9" sketch:type="MSShapeGroup" class="st13" width="160" height="16">
</rect>
<linearGradient id="Rectangle-path_2_" gradientUnits="userSpaceOnUse" x1="-4247.3843" y1="-8249.5947" x2="-4247.3843" y2="-8250.5947" gradientTransform="matrix(160 0 0 16 679444.5 132173.4062)">
	<stop  offset="0" style="stop-color:#FFFFFF"/>
	<stop  offset="1" style="stop-color:#FFFFFF;stop-opacity:0"/>
</linearGradient>
<rect id="Rectangle-path_11_" x="-217" y="163.9" sketch:type="MSShapeGroup" class="st14" width="160" height="16">
</rect>
<g id="Group_20_" transform="translate(11.000000, 2686.000000)" sketch:type="MSShapeGroup">
	<path id="Shape_59_" class="st15" d="M-167-2660.1c0-1.2-0.8-2-2-2h-20l-4-4h-21c-1.2,0-2,0.8-2,2v6h49V-2660.1L-167-2660.1z
		 M-217-2656.1v31.8c0,1.2,1,2.2,2.2,2.2h47.7c1.2,0,2.2-1,2.2-2.2v-31.8H-217L-217-2656.1z"/>
	<path id="Shape_60_" class="st0" d="M-190.1-2649.4l-3.3,3.3c1.2-0.1,2.4,0.1,3.6,0.6l1.8-1.8c1.1-1.2,3-1.2,4.2,0
		c1.2,1.1,1.2,3,0,4.2l-4.2,4.2c-1.2,1.1-3,1.1-4.2,0c-0.4-0.4-1-0.4-1.4,0l-0.7,0.7c-0.4,0.4-0.4,1,0,1.4c2.3,2.3,6.1,2.3,8.4,0
		l4.2-4.2c2.3-2.3,2.3-6.1,0-8.4S-187.8-2651.7-190.1-2649.4L-190.1-2649.4L-190.1-2649.4z"/>
	<path id="Shape_61_" class="st0" d="M-197.1-2642.4l-4.2,4.2c-2.3,2.3-2.3,6.1,0,8.4s6.1,2.3,8.4,0l3.3-3.3
		c-1.2,0.1-2.4-0.1-3.6-0.6l-1.8,1.8c-1.2,1.1-3,1.1-4.2,0c-1.2-1.1-1.1-3,0-4.2l4.2-4.2c1-1,2.5-1.1,3.7-0.4l0,0
		c0.2,0.1,0.3,0.2,0.5,0.4c0.4,0.4,1,0.4,1.4,0l0.7-0.7c0.4-0.4,0.4-1,0-1.4C-191-2644.7-194.8-2644.7-197.1-2642.4L-197.1-2642.4
		L-197.1-2642.4z"/>
</g>
<path id="Shape_62_" sketch:type="MSShapeGroup" class="st16" d="M-157,269.8l24.7,41.1h-49.4L-157,269.8L-157,269.8z M-157,230.9
	l-60,100h120L-157,230.9L-157,230.9z"/>
<g id="Group_21_" transform="translate(17.000000, 3094.000000)" sketch:type="MSShapeGroup">
	<path id="Shape_63_" class="st17" d="M-177.4-2643.6c-0.6-0.6-5.8-3-6.7-3.3c0-0.2-0.1-0.9-0.4-1.1c-0.3-0.1-1.1-0.5-1.1-0.5
		c0-0.1-0.1-0.2-0.1-0.4s0.1-0.4,0.1-0.4c0.1-0.2,0.5-0.8,0.6-1.2c0.1-0.4,0.2-1.5,0.2-1.5c0-0.2,0.3-0.3,0.5-0.4
		c0.4-0.2,0.7-2.4,0.7-2.4c0-0.8-0.3-0.4-0.3-1v-2c0-2.4-2.1-3.8-4.5-3.8h-0.1c-2.5,0-4.3,1.3-4.3,3.8v2c0,0.5-0.3,0.2-0.3,1
		c0,0,0.3,2.3,0.7,2.4c0.2,0.1,0.5,0.2,0.5,0.4c0,0,0.1,1.1,0.2,1.5c0.1,0.4,0.5,0.9,0.7,1.2c0,0,0.1,0.2,0.1,0.4s-0.1,0.4-0.1,0.4
		s-0.9,0.4-1.1,0.5c-0.3,0.1-0.4,0.9-0.4,1.1c-0.2,0.1-0.6,0.2-1,0.4c2.5,1.1,5.6,2.6,6.3,3.4c0.2,0.2,0.8,0.9,0.9,3.9h8.3
		c0.6,0,1.1-0.5,1.1-1.1v-0.3C-177-2640.6-177-2643.2-177.4-2643.6L-177.4-2643.6L-177.4-2643.6z"/>
	<path id="Shape_64_" class="st0" d="M-188.2-2642.3c-0.8-0.8-7.5-3.9-8.7-4.3c0-0.3-0.1-1.2-0.5-1.4c-0.3-0.1-1.5-0.7-1.5-0.7
		c0-0.1-0.1-0.3-0.1-0.6s0.1-0.5,0.1-0.5c0.2-0.3,0.7-1,0.8-1.5c0.2-0.6,0.3-1.9,0.3-1.9c0-0.3,0.4-0.4,0.7-0.6
		c0.5-0.2,0.9-3.2,0.9-3.2c0-1-0.4-0.6-0.4-1.2v-2.6c0-3.2-2.7-4.9-5.9-4.9h-0.1c-3.2,0-5.6,1.7-5.6,4.9v2.6c0,0.7-0.4,0.3-0.4,1.2
		c0,0,0.4,2.9,0.9,3.2c0.3,0.1,0.7,0.3,0.7,0.6c0,0,0.2,1.4,0.3,1.9c0.1,0.5,0.7,1.2,0.8,1.5c0,0,0.1,0.3,0.1,0.5
		c0,0.3-0.1,0.5-0.1,0.6c0,0-1.1,0.5-1.4,0.7c-0.4,0.2-0.5,1.1-0.5,1.4c-1.3,0.4-8,3.5-8.7,4.3c-0.5,0.6-0.5,3.9-0.5,3.9v0.4
		c0,0.8,0.6,1.4,1.4,1.4h26.6c0.8,0,1.4-0.6,1.4-1.4v-0.4C-187.7-2638.4-187.7-2641.7-188.2-2642.3L-188.2-2642.3L-188.2-2642.3z"/>
</g>
<path id="Shape_65_" sketch:type="MSShapeGroup" class="st18" d="M-203.6,521.9l2.3-2.3c0.4-0.4,0.4-1,0-1.4c-0.4-0.4-1-0.4-1.4,0
	l-2.3,2.3l-2.3-2.3c-0.4-0.4-1-0.4-1.4,0c-0.4,0.4-0.4,1,0,1.4l2.3,2.3l-2.3,2.3c-0.4,0.4-0.4,1,0,1.4c0.2,0.2,0.5,0.3,0.7,0.3
	s0.5-0.1,0.7-0.3l2.3-2.3l2.3,2.3c0.2,0.2,0.5,0.3,0.7,0.3s0.5-0.1,0.7-0.3c0.4-0.4,0.4-1,0-1.4L-203.6,521.9L-203.6,521.9z"/>
<path id="Shape_66_" sketch:type="MSShapeGroup" class="st19" d="M-209.7-549.1c-0.6-0.6-1.5-1-2.3-1h16c-0.9,0-1.7,0.4-2.3,1
	l-4.5,4.5c-0.6,0.7-1.7,0.7-2.3,0L-209.7-549.1L-209.7-549.1z"/>
<circle id="Oval_1_" sketch:type="MSShapeGroup" class="st0" cx="-211" cy="-520.1" r="1">
</circle>
<path id="Shape_67_" sketch:type="MSShapeGroup" class="st0" d="M-211.9-522.1c-0.1-0.3,0-0.5,0-0.7c0.1-0.2,0.2-0.4,0.3-0.6
	c0.1-0.2,0.2-0.3,0.4-0.4l0.4-0.4c0.1-0.1,0.2-0.2,0.3-0.4c0.1-0.1,0.1-0.3,0.1-0.4c0-0.2-0.1-0.4-0.2-0.6c-0.2-0.1-0.4-0.2-0.6-0.2
	s-0.5,0-0.6,0.2c-0.2,0.1-0.4,0.2-0.6,0.4l-1-0.9c0.3-0.3,0.6-0.6,1-0.8c0.4-0.2,0.8-0.3,1.3-0.3c0.3,0,0.7,0,0.9,0.1
	c0.3,0.1,0.6,0.2,0.8,0.4c0.2,0.2,0.4,0.4,0.5,0.6c0.1,0.2,0.2,0.5,0.2,0.8s-0.1,0.5-0.1,0.7c-0.1,0.2-0.2,0.4-0.4,0.5
	c-0.1,0.2-0.3,0.3-0.4,0.4c-0.2,0.1-0.3,0.3-0.4,0.4c-0.1,0.1-0.2,0.3-0.3,0.5c-0.1,0.2-0.1,0.4-0.1,0.6L-211.9-522.1L-211.9-522.1
	L-211.9-522.1L-211.9-522.1z"/>
<g id="Group_22_" transform="translate(5.000000, 499.000000)" sketch:type="MSShapeGroup">
	<rect id="Rectangle-path_12_" x="-217" y="-2663.1" class="st0" width="2" height="5"/>
	<rect id="Rectangle-path_13_" x="-217" y="-2666.1" class="st0" width="2" height="2"/>
</g>
<g id="Group_23_" transform="translate(131.000000, 3182.000000)" sketch:type="MSShapeGroup">
	<path id="Shape_68_" class="st0" d="M-202.2-2657c-0.2-0.3-2.5-1.3-3-1.5c0-0.1-0.1-0.4-0.2-0.5c-0.1,0-0.5-0.2-0.5-0.2
		s0-0.1-0.1-0.2c0-0.1,0.1-0.2,0.1-0.2c0.1-0.1,0.2-0.3,0.3-0.5c0.1-0.2,0.1-0.7,0.1-0.7c0-0.1,0.1-0.1,0.2-0.2
		c0.2-0.1,0.3-1.1,0.3-1.1c0-0.3-0.1-0.2-0.1-0.4v-0.9c0-1.1-0.9-1.8-2-1.8l0,0c-1.1,0-2,0.7-2,1.8v0.9c0,0.2-0.1,0.1-0.1,0.4
		c0,0,0.1,1,0.3,1.1c0.1,0.1,0.2,0.1,0.2,0.2c0,0,0.1,0.5,0.1,0.7s0.2,0.4,0.3,0.5c0,0,0.1,0.1,0.1,0.2c0,0.1-0.1,0.2-0.1,0.2
		s-0.4,0.2-0.5,0.2c-0.1,0.1-0.2,0.4-0.2,0.5c-0.4,0.1-2.7,1.2-3,1.5c-0.2,0.2-0.2,1.3-0.2,1.3v0.1c0,0.3,0.2,0.5,0.5,0.5h9.1
		c0.3,0,0.5-0.2,0.5-0.5v-0.1C-202-2655.7-202-2656.8-202.2-2657L-202.2-2657L-202.2-2657z"/>
	<g id="Shape_69_" transform="translate(0.000000, 2.000000)">
		<path id="Shape_28_" class="st0" d="M-212.5-2659.7c0.3-0.3,1.2-0.7,2-1.1c0-0.1-0.1-0.3-0.1-0.4c-0.1,0-0.4-0.2-0.4-0.2v-0.1
			c0-0.1,0-0.1,0-0.1c0-0.1,0.2-0.3,0.2-0.4c0-0.1,0.1-0.5,0.1-0.5c0-0.1,0.1-0.1,0.2-0.1c0.1-0.1,0.2-0.9,0.2-0.9
			c0-0.3-0.1-0.1-0.1-0.3v-0.7c0-0.9-0.7-1.4-1.6-1.4l0,0c-0.9,0-1.6,0.6-1.6,1.4v0.7c0,0.2-0.1,0.1-0.1,0.3c0,0,0.1,0.8,0.2,0.9
			c0.1,0,0.2,0.1,0.2,0.1s0.1,0.4,0.1,0.5c0,0.1,0.2,0.3,0.2,0.4v0.1c0,0.1,0,0.1,0,0.1s-0.3,0.1-0.4,0.2c-0.1,0.1-0.1,0.3-0.1,0.4
			c-0.4,0.1-2.2,1-2.4,1.2c-0.1,0.2-0.1,1.1-0.1,1.1v0.1c0,0.2,0.2,0.4,0.4,0.4h2.6C-212.9-2659.3-212.7-2659.6-212.5-2659.7
			L-212.5-2659.7L-212.5-2659.7z"/>
		<path id="Shape_29_" class="st0" d="M-198.1-2659.7c-0.2-0.2-2-1.1-2.4-1.2c0-0.1,0-0.3-0.1-0.4c-0.1,0-0.4-0.2-0.4-0.2v-0.1
			c0-0.1,0-0.1,0-0.1c0-0.1,0.2-0.3,0.2-0.4s0.1-0.5,0.1-0.5c0-0.1,0.1-0.1,0.2-0.1c0.1-0.1,0.2-0.9,0.2-0.9c0-0.3-0.1-0.1-0.1-0.3
			v-0.7c0-0.9-0.7-1.4-1.6-1.4l0,0c-0.9,0-1.6,0.6-1.6,1.4v0.7c0,0.2-0.1,0.1-0.1,0.3c0,0,0.1,0.8,0.2,0.9c0.1,0,0.2,0.1,0.2,0.1
			s0.1,0.4,0.1,0.5s0.2,0.3,0.2,0.4v0.1c0,0.1,0,0.1,0,0.1s-0.3,0.1-0.4,0.2c-0.1,0-0.1,0.2-0.1,0.3c0.8,0.4,1.7,0.9,2,1.1
			c0.1,0.1,0.4,0.4,0.5,1.6h2.6c0.2,0,0.4-0.2,0.4-0.4v-0.1C-198-2658.6-198-2659.5-198.1-2659.7L-198.1-2659.7L-198.1-2659.7z"/>
	</g>
</g>
<g id="Group_24_" transform="translate(10.000000, 3219.000000)" sketch:type="MSShapeGroup">
	<path id="Shape_70_" class="st18" d="M-217-2663.1v9h16v-9H-217L-217-2663.1z M-213.1-2656.1h-1.6c-0.1,0-0.3-0.1-0.3-0.2v-0.1
		c0,0,0-0.6,0.1-0.6c0.1-0.1,1.2-0.6,1.5-0.7c0,0,0-0.2,0.1-0.2l0.2-0.1v-0.1v-0.1c0-0.1-0.1-0.2-0.1-0.2c0-0.1-0.1-0.3-0.1-0.3
		c0-0.1-0.1-0.1-0.1-0.1c-0.1,0-0.2-0.5-0.2-0.5c0-0.2,0-0.1,0-0.2v-0.4c0-0.5,0.6-0.9,1.1-0.9l0,0c0.5,0,1.1,0.3,1.1,0.9v0.4v0.2
		c0,0-0.1,0.5-0.2,0.5c-0.1,0-0.1,0-0.1,0.1c0,0,0,0.2-0.1,0.3c0,0.1-0.1,0.2-0.1,0.2v0.1v0.1l0.2,0.1c0.1,0,0.1,0.2,0.1,0.2h0.1
		c-0.5,0.2-1.2,0.6-1.3,0.7C-212.9-2656.9-213.1-2656.8-213.1-2656.1L-213.1-2656.1L-213.1-2656.1z M-205.7-2656
		c0,0.1-0.2,0.9-0.3,0.9h-5.9c-0.2,0-0.3-0.7-0.3-0.9v-0.1c0,0,0-0.7,0.1-0.9c0.2-0.2,1.7-0.9,1.9-0.9c0-0.1,0-0.3,0.1-0.3
		c0.1,0,0.3-0.1,0.3-0.1v-0.1c0-0.1,0-0.1,0-0.1c0-0.1-0.2-0.2-0.2-0.3c0-0.1-0.1-0.4-0.1-0.4c0-0.1-0.1-0.1-0.2-0.1
		c-0.1-0.1-0.2-0.7-0.2-0.7c0-0.2,0.1-0.1,0.1-0.3v-0.6c0-0.7,0.6-1.1,1.4-1.1l0,0c0.7,0,1.3,0.4,1.3,1.1v0.6c0,0.1,0.1,0.1,0.1,0.3
		c0,0-0.1,0.6-0.2,0.7c-0.1,0-0.2,0.1-0.2,0.1s0,0.3-0.1,0.4c0,0.1-0.2,0.3-0.2,0.3v0.1c0,0.1,0,0.1,0,0.1s0.2,0.1,0.3,0.1
		s0.1,0.2,0.1,0.3c0.3,0.1,1.8,0.8,1.9,0.9c0.1,0.1,0.1,0.9,0.1,0.9L-205.7-2656L-205.7-2656z M-203-2656.3c0,0.1-0.2,0.2-0.3,0.2
		h-1.6c0-0.7-0.1-0.8-0.2-0.9c-0.1-0.1-0.8-0.5-1.3-0.7h0.1c0,0,0-0.2,0.1-0.2l0.2-0.1v-0.1v-0.1c0-0.1-0.1-0.2-0.1-0.2
		c0-0.1-0.1-0.3-0.1-0.3c0-0.1-0.1-0.1-0.1-0.1c-0.1,0-0.2-0.5-0.2-0.5v-0.2v-0.4c0-0.5,0.6-0.9,1.1-0.9l0,0c0.5,0,1.1,0.3,1.1,0.9
		v0.4c0,0.1,0,0,0,0.2c0,0-0.1,0.5-0.2,0.5c0,0-0.1,0-0.1,0.1c0,0,0,0.2-0.1,0.3c0,0.1-0.1,0.2-0.1,0.2v0.1v0.1l0.2,0.1
		c0.1,0,0.1,0.2,0.1,0.2c0.2,0.1,1.3,0.6,1.5,0.7C-203-2656.9-203-2656.4-203-2656.3L-203-2656.3L-203-2656.3L-203-2656.3z"/>
	<path id="Shape_71_" class="st18" d="M-202-2665.1h-7v-1h-8v2h15V-2665.1L-202-2665.1z"/>
</g>
<g id="Group_25_" transform="translate(10.000000, 3259.000000)" sketch:type="MSShapeGroup">
	<path id="Shape_72_" class="st0" d="M-217-2663.1v9h16v-9H-217L-217-2663.1z M-213.1-2656.1h-1.6c-0.1,0-0.3-0.1-0.3-0.2v-0.1
		c0,0,0-0.6,0.1-0.6c0.1-0.1,1.2-0.6,1.5-0.7c0,0,0-0.2,0.1-0.2l0.2-0.1v-0.1v-0.1c0-0.1-0.1-0.2-0.1-0.2c0-0.1-0.1-0.3-0.1-0.3
		c0-0.1-0.1-0.1-0.1-0.1c-0.1,0-0.2-0.5-0.2-0.5c0-0.2,0-0.1,0-0.2v-0.4c0-0.5,0.6-0.9,1.1-0.9l0,0c0.5,0,1.1,0.3,1.1,0.9v0.4v0.2
		c0,0-0.1,0.5-0.2,0.5c-0.1,0-0.1,0-0.1,0.1c0,0,0,0.2-0.1,0.3c0,0.1-0.1,0.2-0.1,0.2v0.1v0.1l0.2,0.1c0.1,0,0.1,0.2,0.1,0.2h0.1
		c-0.5,0.2-1.2,0.6-1.3,0.7C-212.9-2656.9-213.1-2656.8-213.1-2656.1L-213.1-2656.1L-213.1-2656.1z M-205.7-2656
		c0,0.1-0.2,0.9-0.3,0.9h-5.9c-0.2,0-0.3-0.7-0.3-0.9v-0.1c0,0,0-0.7,0.1-0.9c0.2-0.2,1.7-0.9,1.9-0.9c0-0.1,0-0.3,0.1-0.3
		c0.1,0,0.3-0.1,0.3-0.1v-0.1c0-0.1,0-0.1,0-0.1c0-0.1-0.2-0.2-0.2-0.3c0-0.1-0.1-0.4-0.1-0.4c0-0.1-0.1-0.1-0.2-0.1
		c-0.1-0.1-0.2-0.7-0.2-0.7c0-0.2,0.1-0.1,0.1-0.3v-0.6c0-0.7,0.6-1.1,1.4-1.1l0,0c0.7,0,1.3,0.4,1.3,1.1v0.6c0,0.1,0.1,0.1,0.1,0.3
		c0,0-0.1,0.6-0.2,0.7c-0.1,0-0.2,0.1-0.2,0.1s0,0.3-0.1,0.4c0,0.1-0.2,0.3-0.2,0.3v0.1c0,0.1,0,0.1,0,0.1s0.2,0.1,0.3,0.1
		s0.1,0.2,0.1,0.3c0.3,0.1,1.8,0.8,1.9,0.9c0.1,0.1,0.1,0.9,0.1,0.9L-205.7-2656L-205.7-2656z M-203-2656.3c0,0.1-0.2,0.2-0.3,0.2
		h-1.6c0-0.7-0.1-0.8-0.2-0.9c-0.1-0.1-0.8-0.5-1.3-0.7h0.1c0,0,0-0.2,0.1-0.2l0.2-0.1v-0.1v-0.1c0-0.1-0.1-0.2-0.1-0.2
		c0-0.1-0.1-0.3-0.1-0.3c0-0.1-0.1-0.1-0.1-0.1c-0.1,0-0.2-0.5-0.2-0.5v-0.2v-0.4c0-0.5,0.6-0.9,1.1-0.9l0,0c0.5,0,1.1,0.3,1.1,0.9
		v0.4c0,0.1,0,0,0,0.2c0,0-0.1,0.5-0.2,0.5c0,0-0.1,0-0.1,0.1c0,0,0,0.2-0.1,0.3c0,0.1-0.1,0.2-0.1,0.2v0.1v0.1l0.2,0.1
		c0.1,0,0.1,0.2,0.1,0.2c0.2,0.1,1.3,0.6,1.5,0.7C-203-2656.9-203-2656.4-203-2656.3L-203-2656.3L-203-2656.3L-203-2656.3z"/>
	<path id="Shape_73_" class="st0" d="M-202-2665.1h-7v-1h-8v2h15V-2665.1L-202-2665.1z"/>
</g>
<g id="Group_26_" transform="translate(9.000000, 3294.000000)" sketch:type="MSShapeGroup" class="st2">
	<path id="Shape_74_" class="st20" d="M-76.2-2536.2l-8.9-5.9c-6-4-9.6-10.7-9.6-17.9c-0.1-16.4,0.1-6.4,0.1-26.9
		c0-23.4-12.5-54.6-36-62.8c-0.2-7.9-6.5-16.4-14.4-16.4s-14.2,8.6-14.4,16.4c-23.5,8.2-36,39.3-36,62.8c0,20.5,0.2,10.5,0.1,26.9
		c0,7.2-3.7,13.9-9.6,17.9l-8.9,5.9c-2,1.3-3.2,3.6-3.2,6v5.7c0,2.7,2.1,4.8,4.8,4.8h134.4c2.6,0,4.8-2.1,4.8-4.8v-5.7
		C-73-2532.7-74.2-2534.9-76.2-2536.2L-76.2-2536.2L-76.2-2536.2z"/>
	<path id="Shape_75_" class="st20" d="M-128.4-2517.3h-33.2c-1.5,0-2.6,1.3-2.4,2.8c1.3,9.3,9.3,16.4,19,16.4s17.7-7.1,19-16.4
		C-125.8-2516-126.9-2517.3-128.4-2517.3L-128.4-2517.3L-128.4-2517.3z"/>
</g>
<g id="Group_27_" transform="translate(13.000000, 3535.000000)" sketch:type="MSShapeGroup" class="st4">
	<path id="Shape_76_" class="st21" d="M-203.7-2661.8c-0.7-3.3-3.9-4.4-7.1-3.7c-2.9,0.6-5.7,2.9-5.6,6c0,1.4,0.9,2.5,2.1,3.2
		c0.1,0.1,0.2,0.2,0.2,0.3c0,0.6-0.4,1-1,1.1c-0.3,0.1-0.3,0.2,0,0.3c1.2,0.1,2.5,0,3.5-0.7c0.9,0.1,1.8,0.2,2.6,0.1
		C-205.3-2655.4-202.9-2658.1-203.7-2661.8L-203.7-2661.8L-203.7-2661.8z"/>
</g>
<path id="Shape_77_" sketch:type="MSShapeGroup" class="st0" d="M-190.7,943.2c-0.7-3.3-3.9-4.4-7.1-3.7c-2.9,0.6-5.7,2.9-5.6,6
	c0,1.4,0.9,2.5,2.1,3.2c0.1,0.1,0.2,0.2,0.2,0.3c0,0.6-0.4,1-1,1.1c-0.3,0.1-0.3,0.2,0,0.3c1.2,0.1,2.5,0,3.5-0.7
	c0.9,0.1,1.8,0.2,2.6,0.1C-192.3,949.6-189.9,946.9-190.7,943.2L-190.7,943.2L-190.7,943.2z"/>
<path id="Shape_79_" sketch:type="MSShapeGroup" class="st22" d="M-75,1058.9h8l-4,4L-75,1058.9L-75,1058.9z"/>
<path id="Shape_80_" sketch:type="MSShapeGroup" class="st0" d="M-206,1100.4l1.6,2.6h-3.3L-206,1100.4L-206,1100.4z M-206,1096.9
	l-5,8h10L-206,1096.9L-206,1096.9z"/>
<path id="Shape_81_" sketch:type="MSShapeGroup" class="st23" d="M-213.7,1164.9c-0.6-0.6-1.5-1-2.3-1h16c-0.9,0-1.7,0.4-2.3,1
	l-4.5,4.5c-0.6,0.7-1.7,0.7-2.3,0L-213.7,1164.9L-213.7,1164.9z"/>
<g id="Imported-Layers-9-_x2B_-Path_1_" transform="translate(9.000000, 1897.000000)" sketch:type="MSShapeGroup">
	<g id="Imported-Layers-9_1_">
		<path id="Fill-1_22_" class="st24" d="M-199-2651.1c0,0.6-0.4,1-1,1h-16c-0.6,0-1-0.4-1-1v-11h18V-2651.1"/>
		<path id="Fill-2_22_" class="st25" d="M-216-2666.1h6.1c0.3,0,0.5,0.1,0.7,0.3l0.9,0.9c0.6,0.7,1,0.8,1.3,0.8h7c0.6,0,1,0.4,1,1v1
			h-18v-3C-217-2665.7-216.6-2666.1-216-2666.1"/>
	</g>
</g>
<g id="Imported-Layers-9-_x2B_-Path_2_" transform="translate(9.000000, 1937.000000)" sketch:type="MSShapeGroup">
	<g id="Imported-Layers-9_2_">
		<path id="Fill-1_1_" class="st26" d="M-199-2651.1c0,0.6-0.4,1-1,1h-16c-0.6,0-1-0.4-1-1v-11h18V-2651.1"/>
		<path id="Fill-2_1_" class="st0" d="M-216-2666.1h6.1c0.3,0,0.5,0.1,0.7,0.3l0.9,0.9c0.6,0.7,1,0.8,1.3,0.8h7c0.6,0,1,0.4,1,1v1
			h-18v-3C-217-2665.7-216.6-2666.1-216-2666.1"/>
	</g>
</g>
<g id="Imported-Layers-9-_x2B_-Path_4_" transform="translate(9.000000, 1977.000000)" sketch:type="MSShapeGroup">
	<g id="Imported-Layers-9_4_">
		<path id="Fill-1_3_" class="st24" d="M-199-2651.1c0,0.6-0.4,1-1,1h-16c-0.6,0-1-0.4-1-1v-11h18V-2651.1"/>
		<path id="Fill-2_3_" class="st25" d="M-216-2666.1h6.1c0.3,0,0.5,0.1,0.7,0.3l0.9,0.9c0.6,0.7,1,0.8,1.3,0.8h7c0.6,0,1,0.4,1,1v1
			h-18v-3C-217-2665.7-216.6-2666.1-216-2666.1"/>
	</g>
</g>
<g id="Imported-Layers-9-_x2B_-Path_3_" transform="translate(9.000000, 2017.000000)" sketch:type="MSShapeGroup">
	<g id="Imported-Layers-9_3_">
		<path id="Fill-1_2_" class="st26" d="M-199-2651.1c0,0.6-0.4,1-1,1h-16c-0.6,0-1-0.4-1-1v-11h18V-2651.1"/>
		<path id="Fill-2_2_" class="st0" d="M-216-2666.1h6.1c0.3,0,0.5,0.1,0.7,0.3l0.9,0.9c0.6,0.7,1,0.8,1.3,0.8h7c0.6,0,1,0.4,1,1v1
			h-18v-3C-217-2665.7-216.6-2666.1-216-2666.1"/>
	</g>
</g>
<g id="Page-1_1_" transform="translate(9.000000, 1233.000000)" sketch:type="MSShapeGroup" class="st27">
	<g id="Imported-Layers-2_1_">
		<path id="Fill-1_6_" class="st28" d="M-87.3-2573.8c7.4-4.2,12.6-10.8,12.9-19.2c0.4-18.4-16.8-31.9-34.1-35.7
			c-2-0.4-4.1-0.8-6.1-1c-0.2-1.6-0.5-3.3-0.8-5c-5.6-25.9-31.1-34.5-55.9-29c-22.7,5-45.4,22.8-44.8,47
			c0.3,11.1,7.2,19.7,16.9,25.3c0.6,0.5,1.4,1.3,1.5,2.3c0.2,4.7-3.2,7.8-7.6,9c-2.3,0.6-2.8,1.8,0.1,2.1c9.3,0.6,20.2,0.3,27.8-5.9
			c7.1,1,14.1,1.5,21,1c2.8-0.2,5.5-0.6,8.1-1.1c5.1,9.6,15.6,15.9,28.7,16.8c5.2,0.4,10.6,0,15.9-0.7c5.8,4.7,14.1,5,21.2,4.5
			c2.2-0.2,1.8-1.1,0.1-1.6c-3.3-0.9-6-3.3-5.8-6.9C-88.4-2572.8-87.8-2573.4-87.3-2573.8"/>
		<path id="Fill-2_6_" class="st0" d="M-88.7-2575.6l0.1-0.1l0.1-0.1c9.5-5.4,11.6-12.5,11.8-17.4c0.4-17.2-16-29.9-32.4-33.5
			c-2.2-0.5-4.4-0.8-6.6-1c0.8,10-1.7,19.1-7.3,26.6s-13.9,12.8-23.9,15.3c0.7,1.3,1.5,2.6,2.4,3.9c5.4,7.2,14.1,11.5,24.7,12.3
			c1.3,0.1,2.7,0.2,4.1,0.2c3.4,0,7-0.3,11.3-0.9l1-0.1l0.7,0.6c3.3,2.7,8.1,4.1,14.4,4.2c-1.8-1.7-2.7-4-2.6-6.5
			C-90.6-2573.4-89.9-2574.7-88.7-2575.6"/>
		<path id="Fill-3_1_" class="st0" d="M-199.4-2580.1c-0.3,0-0.6,0-1,0c3.1-2.2,4.9-5.5,4.7-9.2c-0.1-1.5-0.9-2.9-2.3-4l-0.1-0.1
			l-0.1-0.1c-9.9-5.7-15.6-14-15.8-23.4c-0.5-23,21.2-39.9,43.1-44.7c4.6-1,9.2-1.5,13.7-1.5c20.9,0,35.7,10.8,39.6,28.8
			c2.7,12.4,0.6,23.6-6.1,32.6c-7.2,9.6-18.9,15.4-33,16.4c-1.8,0.1-3.6,0.2-5.5,0.2l0,0c-4.5,0-9.2-0.4-15-1.2l-1-0.1l-0.7,0.6
			C-183.7-2581.9-190.3-2580.1-199.4-2580.1"/>
	</g>
</g>
<g id="empty-cloud" transform="translate(4.000000, 899.000000)" sketch:type="MSShapeGroup">
	<path id="Fill-1_5_" class="st29" d="M-216.7-2593.6c0,18.4,14.1,33.4,31.4,33.4h89.9c17.3,0,31.4-15,31.4-33.4
		c0-17.9-13.3-32.6-30-33.4v-0.1c0-21.5-16.4-39-36.7-39c-13.1,0-24.6,7.3-31.1,18.3c-2.2-1-4.6-1.6-7.1-1.6c-9.9,0-18,8.6-18,19.1
		c0,1.1,0.1,2.2,0.2,3.2C-203.3-2626.4-216.7-2611.7-216.7-2593.6"/>
	<path id="Fill-2_5_" class="st0" d="M-185.2-2562.4c-16.2,0-29.3-14-29.3-31.2c0-16.9,12.4-30.6,28.2-31.2l2.4-0.1l-0.4-2.4
		c-0.1-0.8-0.2-1.8-0.2-2.9c0-9.4,7.1-17,15.8-17c2.1,0,4.2,0.5,6.2,1.4l1.8,0.8l1-1.7c6.3-10.8,17.3-17.2,29.3-17.2
		c19,0,34.5,16.5,34.5,36.8v2.1l2,0.1c15.7,0.8,27.9,14.5,27.9,31.2c0,17.2-13.1,31.2-29.3,31.2L-185.2-2562.4"/>
</g>
<g id="Fill-1-_x2B_-Fill-3" transform="translate(16.000000, 1070.000000)" sketch:type="MSShapeGroup">
	<path id="Fill-1_4_" class="st29" d="M-209.6-2559.4c-4,0-7.2-3.2-7.2-7.2v-76.9c0-0.9,0.4-1.8,1.1-2.4c-0.1-0.2-0.1-0.5-0.1-0.7
		v-12.3c0-4,3.2-7.2,7.2-7.2h49.8c0.8,0,1.6,0.3,2.2,0.9l7.8,7.8h46.8c0.1,0,0.2,0,0.3,0c3.8,0,6.9,3.2,6.9,7.2v3.6h2.1
		c1.7,0,3.1,1.4,3.1,3.1v76.9c0,4-3.2,7.2-7.2,7.2H-209.6"/>
	<path id="Fill-2_4_" class="st0" d="M-91.7-2566.6c0,2.8-2.3,5.1-5.1,5.1h-112.8c-2.8,0-5.1-2.3-5.1-5.1v-76.9c0-0.6,0.5-1,1-1h121
		c0.6,0,1,0.5,1,1V-2566.6L-91.7-2566.6z M-213.7-2658.9c0-2.8,2.3-5.1,5.1-5.1h49.8c0.3,0,0.5,0.1,0.7,0.3l8.1,8.1
		c0.2,0.2,0.5,0.3,0.7,0.3h47.3c2.8-0.2,5.1,2.3,5.1,5.1v3.6c0,0.6-0.5,1-1,1h-114.8c-0.6,0-1-0.5-1-1V-2658.9L-213.7-2658.9z"/>
</g>
<path id="Fill-1_7_" sketch:type="MSShapeGroup" class="st29" d="M-142.4-1204.3c1.1,0,1.9,0.9,1.9,1.9v29c0,1.1-0.9,1.9-1.9,1.9
	h-17.5c-0.4,0-0.8,0-1.2,0c-7.9,0-13.3-1.9-16.4-5.8c-0.1-0.1-15.7-29.7-16.6-31.3c-0.9-1.6-1.7-3.4-2-5.6c-0.3-2.7-0.2-5.6,1.1-8
	l6.5-12.5l-7.8-6.1c-1.7-1.3-1.3-2.4,0.8-2.4l29.1-0.3c0.5,0,1.2,0.4,1.4,0.8l14.7,27.3c1,1.9,0.3,2.6-1.6,1.6l-8.4-4.5l-8.5,13.9
	L-142.4-1204.3L-142.4-1204.3z M-88.8-1242.8c-0.5-0.9-1.6-1.3-2.5-0.7l-24.7,15.1c-0.9,0.6-1.2,1.8-0.7,2.7l11.6,21.5h-13.3
	l-0.5-9.9c-0.1-2.1-1-2.3-2.1-0.5l-14.4,26c-0.3,0.5-0.3,1.2,0,1.7l14.6,26.6c1,1.9,1.9,1.7,2-0.5l0.4-10.8h9.9c0.3,0,0.6,0,0.9,0
	c5.2,0,10.7-3.4,13-7.8c0,0,13.1-24.8,15.3-29.1c2.2-4.3,3.2-9.4,2-12.1L-88.8-1242.8L-88.8-1242.8z M-90.1-1267.1
	c1.1-1.8,0.5-2.5-1.4-1.5l-9.3,4.9l-4.8-8.9c-2.1-4.7-7.9-8.6-13-8.6c-0.1,0-0.2,0-0.4,0c0,0-27.4,0.2-31.8,0.2
	c-4.3,0-9.6,0.8-12.1,4.4c-2.5,3.7-13.5,20.7-13.5,20.7c-0.6,0.9-0.3,2.1,0.6,2.6l24.9,14.8c0.9,0.5,2.1,0.2,2.7-0.7l12.7-20.8
	l6.4,11.9l-8,5.2c-1.8,1.1-1.5,2.1,0.6,2.1l29.1,0.3c0.5,0,1.2-0.4,1.5-0.8L-90.1-1267.1L-90.1-1267.1z"/>
<path id="Fill-2_7_" sketch:type="MSShapeGroup" class="st0" d="M-115.2-1226.7l12,22.3c11.8,0.7,26.4-3.7,23.7-15.6l-11.1-21.8
	L-115.2-1226.7L-115.2-1226.7z M-120.8-1211.2l-13,23.4l13,23.8l0.3-9.5h11.9c4.3,0.4,9.9-2.5,12-6.7l15.2-28.5
	c-5,5.1-11.5,6.4-18.9,6.4h-20L-120.8-1211.2L-120.8-1211.2z M-149.8-1240.1l13.2-21.6c-5.1-10.9-17.3-22.3-24.8-13.6l-13.3,20.5
	L-149.8-1240.1L-149.8-1240.1z M-133.8-1242.6l26.3,0.2l14-23.1l-8.3,4.3l-5.8-10.6c-1.8-4.1-7-7.7-11.6-7.5l-31.8,0.2
	c6.8,2,11,7.2,14.7,13.8l9.7,17.9L-133.8-1242.6L-133.8-1242.6z M-193.7-1241.3l7.7,6l-7.3,13.9c-3.6,6.4,2.6,12.7,6.6,14.8
	c3.9,2.1,10,2.4,15.6,2.3l10.2-16.7l7.7,4.2l-13.4-24.8L-193.7-1241.3L-193.7-1241.3z M-192.6-1209.1l16.6,30.6
	c3.3,4.2,9.6,5.2,16.1,5.1h17.5v-29l-33.1-0.2C-180.7-1202.3-187.4-1203.4-192.6-1209.1L-192.6-1209.1L-192.6-1209.1z"/>
<g id="Page-1" transform="translate(6.000000, 3670.000000)" sketch:type="MSShapeGroup">
	<path id="Fill-54" class="st30" d="M-216.6-2662.1c-0.8-1.5-0.4-2.9,1.1-3.8c0.5-0.3,1-0.3,1.4,0.2c0.2,0.2,0.9,1.1,1.1,1.3
		c0.6,0.7,0.6,1.2-0.5,2.2c-0.4,0.4-0.3,1,0,1.3l3.3,3.3c0.3,0.3,0.9,0.4,1.3,0c1-1,1.5-1,2.2-0.5c0.2,0.2,1.1,0.9,1.3,1.1
		c0.5,0.4,0.5,0.8,0.2,1.4c-0.9,1.5-2.3,2-3.8,1.1c-1.6-0.9-3.2-1.8-4.5-3.1S-215.7-2660.5-216.6-2662.1L-216.6-2662.1z"/>
</g>
<path id="Fill-2-Copy-2" sketch:type="MSShapeGroup" class="st31" d="M-159-1103.3l-3.8,2.2l1.1-4.1l-3.3-2.5l4.3-0.5l1.7-3.9
	l1.7,3.9l4.3,0.5l-3.3,2.5l1.1,4.1L-159-1103.3"/>
<path id="Imported-Layers-Copy-27" sketch:type="MSShapeGroup" class="st32" d="M-120-1106.5l7.3-7.3c0.4-0.4,1-0.4,1.4,0
	s0.4,1,0,1.4l-6.3,6.3l6.3,6.3c0.4,0.4,0.4,1,0,1.4c-0.2,0.2-0.4,0.3-0.7,0.3s-0.5-0.1-0.7-0.3l-7.3-7.3L-120-1106.5"/>
<path id="Shape_30_" class="st33" d="M-187.5,1225.4l-17.6,10.8l4.8-20.1l-15.7-13.4l20.6-1.6l7.9-19.1l7.9,19.1l20.6,1.6
	l-15.7,13.4l4.8,20.1L-187.5,1225.4z"/>
<path id="Shape_31_" class="st34" d="M-187.5,1305.4l-17.6,10.8l4.8-20.1l-15.7-13.4l20.6-1.6l7.9-19.1l7.9,19.1l20.6,1.6
	l-15.7,13.4l4.8,20.1L-187.5,1305.4z"/>
<path id="Shape_34_" class="st35" d="M-208.3,1358.3h2c-0.3-2.6,2.8-3.5,2.8-6c0-2.2-1.5-3.3-3.7-3.3c-1.5,0-2.6,0.7-3.5,1.7
	l1.3,1.2c0.6-0.6,1.2-1,2.1-1c1,0,1.6,0.6,1.6,1.6C-205.6,1354.2-208.7,1355.4-208.3,1358.3L-208.3,1358.3z M-208.7,1361.3
	c0,0.9,0.6,1.6,1.5,1.6c0.8,0,1.5-0.7,1.5-1.6c0-0.9-0.7-1.6-1.5-1.6C-208.1,1359.7-208.7,1360.4-208.7,1361.3L-208.7,1361.3z"/>
<path id="Shape_35_" class="st0" d="M-209.2,1501.7c-1.6-1.6-4.6-2.8-6.8-2.8l0,0h24c-2.2,0-5.3,1.3-6.8,2.8l-3.8,3.8
	c-0.8,0.8-2,0.8-2.8,0L-209.2,1501.7L-209.2,1501.7z"/>
<path id="Rectangle-17-Copy-4" sketch:type="MSShapeGroup" class="st36" d="M-114,1795.9h12l-6,6L-114,1795.9z"/>
<path id="Rectangle-17-Copy-5" sketch:type="MSShapeGroup" class="st36" d="M-114,1841.9h12l-6-6L-114,1841.9z"/>
<path id="Fill-1-Copy-8" sketch:type="MSShapeGroup" class="st37" d="M-171.9,1763.8c1.4,1.4,4.4,1.5,5.9,0.1l2.9-2.9
	c1.6-1.6,1.5-4.2-0.1-5.9c-1.6-1.7-4.3-1.7-5.9-0.1l-2.3,2.3c0.8,0,1.7,0.1,2.5,0.5l1.2-1.2c0.8-0.8,2.1-0.8,2.9,0.1
	c0.8,0.8,0.8,2.1,0.1,2.9l-2.9,2.9c-0.8,0.8-2.4,0.5-3.4,0.5L-171.9,1763.8z M-168.1,1760c-1.4-1.4-4.5-1.5-5.9-0.1l-2.9,2.9
	c-1.6,1.6-1.5,4.2,0.1,5.9c1.6,1.7,4.3,1.7,5.9,0.1l2.3-2.3c-0.8,0-1.7-0.1-2.5-0.5l-1.2,1.2c-0.8,0.8-2.1,0.8-2.9-0.1
	c-0.8-0.8-0.8-2.1-0.1-2.9l2.9-2.9c0.6-0.6,1.5-0.5,3.4-0.5l0,0L-168.1,1760z"/>
<path id="Fill-1-Copy-6" sketch:type="MSShapeGroup" class="st37" d="M-164,1726.9v-1c0-3.3-2.7-6-6-6s-6,2.7-6,6v1h2v-1
	c0-2.2,1.8-4,4-4s4,1.8,4,4v1H-164z M-176,1727.9c-0.6,0-1,0.5-1,1v6c0,0.5,0.4,1,1,1h12c0.6,0,1-0.5,1-1v-6c0-0.5-0.4-1-1-1H-176z
	 M-171,1729.9h2v4h-2V1729.9z"/>
<path id="Fill-1-Copy-7" sketch:type="MSShapeGroup" class="st37" d="M-170,1689.9c-4.4,0-8,3.6-8,8s3.6,8,8,8s8-3.6,8-8
	S-165.6,1689.9-170,1689.9z M-168.6,1693.5l0.2-0.1L-168.6,1693.5h0.3l-0.1,0.2l0.1,0.5h-0.1v0.2l-0.2,0.1h-0.1l0.3-0.2h0.1l0,0
	h-0.2v-0.2h0.2v-0.2h-0.2L-168.6,1693.5L-168.6,1693.5L-168.6,1693.5z M-169,1694.1L-169,1694.1L-169,1694.1l0.3-0.1l0.1,0.1
	l-0.1,0.1l0.1,0.1l-0.3,0.2l-0.1-0.1V1694.1L-169,1694.1L-169,1694.1L-169,1694.1z M-171.8,1690.8L-171.8,1690.8l0.5,0.1l-0.2,0.1
	l-0.1,0.1l-0.3,0.1h-0.1h-0.2v0.1l-0.2,0.2l-0.3-0.1v-0.1h0.2l0.2-0.2l0.4-0.1l-0.2-0.1v-0.2L-171.8,1690.8L-171.8,1690.8z
	 M-172.6,1691.1l0.3-0.1L-172.6,1691.1l-0.1,0.2L-172.6,1691.1L-172.6,1691.1z M-172.8,1691.3L-172.8,1691.3l0.2,0.2l-0.1,0.1
	l-0.2-0.1L-172.8,1691.3L-172.8,1691.3z M-173.2,1691.5L-173.2,1691.5l0.2,0.1l-0.2,0.2l-0.4-0.1L-173.2,1691.5L-173.2,1691.5z
	 M-173.8,1692.1l0.3-0.2l0.2,0.1l-0.1,0.2l0.2-0.1l0.2,0.2l0.1,0.3l-0.2,0.2l0.2,0.1l0.1,0.2l-0.3,0.2l-0.1-0.2l-0.2,0.1l0.1,0.3
	l-0.1,0.2l-0.1-0.2h-0.2l0.1,0.1v0.1l-0.2-0.2l-0.1-0.2h-0.2l0.3-0.1h0.5v-0.2v-0.2l-0.2-0.5l-0.2,0.1l-0.3-0.1L-173.8,1692.1
	L-173.8,1692.1z M-174.8,1692.1c0.2-0.2,0.5-0.4,0.7-0.5l-0.2,0.2h0.2l-0.3,0.2l-0.1,0.2l-0.2,0.1L-174.8,1692.1L-174.8,1692.1
	L-174.8,1692.1z M-171.6,1702.9l-0.1,0.2h-0.1l0.1,0.4l-0.1,0.4h-0.2l-0.3,0.2l0.1,0.4l-0.1,0.6h-0.2h0.2l0,0h-0.2v0.1h0.2l0.1,0.2
	l0.4,0.2c-0.2-0.1-0.4-0.1-0.6-0.2l-0.3-0.1l-0.5-0.4l-0.7-0.8l-0.4-0.6l-0.4-0.2l-1-1.1v-0.2l-0.1-0.1l0.1-0.4l-0.1-0.5l0.3-0.3
	l0.3-0.1v-0.1l-0.3-0.1l-0.2,0.1l-0.2-0.1h-0.1l-0.2-0.2l-0.1-0.2l-0.2-0.2l-0.4-0.5h-0.1l-0.3-0.4l-0.1-0.9l0,0
	c0-2.2,1-4.2,2.6-5.6l-0.1,0.1l0.1,0.1l0.1-0.1l0.2,0.1l0.2-0.1l0.2-0.1v-0.1l0.3-0.2l-0.2,0.2l-0.1,0.1l-0.1,0.1v0.2l0.3-0.2v-0.1
	l0.2,0.2l-0.3,0.3h-0.2l-0.2,0.1l-0.2,0.1l-0.2,0.1l-0.2,0.1l-0.5,0.4l0.1,0.1l-0.1,0.2l0.2,0.1l0.1,0.3l0.2,0.1l-0.1,0.4l0.1,0.2
	l0.2-0.1l0.1-0.4l0.2-0.1l0.1-0.2v-0.2l0.2-0.2l0.1-0.4h0.1h0.1l0.1,0.1l0.1,0.2h0.1l-0.1,0.3l0.1,0.1l0.2-0.1l0.2-0.2l0.1,0.4
	l-0.1,0.1l0.1,0.2l0.3,0.1l-0.4,0.1h0.3l0.1,0.1v0.2l-0.3,0.1l-0.2,0.1l-0.7-0.1l-0.5,0.4l0.5-0.2h0.2l-0.2,0.1l0.1,0.3l0.3,0.1
	l-0.5,0.2c0,0,0.2-0.2,0.1-0.2c-0.1,0-0.5,0.1-0.5,0.1l-0.1,0.2l-0.1,0.1l-0.3,0.1v0.2h-0.1v0.2v0.3l-0.3,0.2l-0.4,0.2v0.4v0.5
	l-0.2-0.3v-0.2l-0.2-0.1l-0.4-0.1v0.1l-0.3-0.1l-0.2,0.2l-0.1,0.7l0.1,0.5l0.3,0.1l0.4-0.1v-0.2l0,0l-0.3,0.6l0.3,0.1v0.6l0.3,0.3
	h0.2l0.2,0.2l0.1,0.3h0.1v-0.2h0.1l0.4,0.2h0.3l0.2,0.1l-0.1,0.1h0.2l0.3,0.3l0.5,0.1l0.4,0.5l-0.2,0.2l0.3,0.1l0.2-0.1l0.4,0.2v0.1
	l0.2-0.2h0.2h0.2l0.3,0.3l0.2,0.1l0.2,0.3L-171.6,1702.9L-171.6,1702.9z M-174.4,1693v0.2h-0.2l-0.1-0.1L-174.4,1693L-174.4,1693
	L-174.4,1693z M-172.9,1695.5l-0.1,0.2l-0.5-0.1l0.4-0.4L-172.9,1695.5L-172.9,1695.5z M-174.6,1699.4h-0.2v-0.1L-174.6,1699.4
	L-174.6,1699.4L-174.6,1699.4z M-174.9,1699.3h-0.3l-0.1-0.2h0.2L-174.9,1699.3L-174.9,1699.3z M-175.4,1699h-0.4l-0.4-0.4l-0.1,0.1
	v-0.1h0.2L-175.4,1699L-175.4,1699z M-170.2,1691.9h0.2H-170.2l-0.2,0.3h-0.1l-0.1,0.3l-0.3,0.2l-0.1-0.1l-0.3,0.3l0.1,0.1l-0.2,0.3
	v0.2l-0.1,0.2l-0.2,0.1l-0.1-0.2l-0.2,0.1l-0.2-0.2l-0.1-0.3h0.2l-0.1-0.1l-0.1,0.1v-0.3l0.2-0.1l0.2-0.4v-0.2l-0.2,0.1l0.1-0.2
	l0.1-0.4l-0.2-0.1l0.1-0.1l0.1-0.1l0.3-0.1l0.2-0.2h0.3h0.2h0.3l-0.1,0.2l0.2,0.2v0.2h-0.2l0.2,0.1L-170.2,1691.9L-170.2,1691.9
	h-0.4H-170.2L-170.2,1691.9z M-172.2,1692.2l0.2-0.1v0.2L-172.2,1692.2L-172.2,1692.2L-172.2,1692.2z M-162.7,1698.1l-0.3,0.6
	l-0.1-0.1l-0.2-0.6l-0.5-0.9v-0.1l-0.1,0.1l-0.2-0.2l0.3,0.7l0.4,0.9l0.2,0.2l0.1,0.3l0.3-0.2l-0.1,0.7l-0.4,0.7l-0.5,0.8l-0.1,0.5
	l-0.2,0.5l-0.6,0.4v0.1l-0.2,0.3l-0.4,0.2v0.1l-0.8,0.7l-0.4,0.1v-0.1l0.2-0.2l-0.1-0.4l0.1-0.4l-0.1-0.4l0.2-0.4v-0.4v-0.2
	l-0.3-0.5l0.2-0.2l0.1-0.3l-0.1-0.2l-0.4,0.1v-0.1l-0.2-0.1l-0.5,0.2h-0.4l-0.6,0.1l-0.7-0.4v-0.2l-0.3-0.2h-0.1l-0.2-0.3l0.1-0.2
	l0.1-0.5l-0.1-0.2l0.9-0.9l0.5-0.2v-0.2l0.3-0.5h0.3l0.4-0.2l1-0.2l0.1,0.1l-0.1,0.4h0.4l0.7,0.3l0.1-0.3l0.8,0.1l0.4-0.1l-0.1-0.7
	l-0.2,0.1l-0.2-0.1v0.2l-0.3-0.2l-0.1-0.3h-0.2l-0.2,0.1l0.1,0.2l0.2,0.1l-0.1,0.2h-0.2l-0.1-0.2l-0.2-0.2v-0.2l-0.4-0.2l-0.3-0.1
	v-0.1l-0.1,0.1v0.1l0.3,0.3h0.2l0.1,0.1l0.2,0.1v0.1l-0.1-0.1h-0.1l0.1,0.1l-0.2,0.1v0.2l-0.3-0.2h0.3l0.1-0.1l-0.1-0.2l-0.5-0.2
	l-0.3-0.3h-0.1l-0.1,0.2h-0.1l-0.1-0.1h-0.1v0.2l-0.2,0.1l-0.1,0.2v-0.1l-0.2,0.2h-0.2l-0.2,0.2h-0.2l-0.2,0.1v-0.2h-0.1l-0.1-0.1
	l0.1-0.2v-0.2l-0.1-0.1h0.1l0.1-0.1h0.7l0.1-0.3l-0.2-0.2h-0.2v-0.2l0.3,0.2v0.1h0.1l0.3-0.4l0.2-0.4l0.3-0.2l-0.2-0.2l0.2-0.1v0.1
	v0.2h0.2h0.3l0.2-0.1h0.2l0.1-0.4l-0.1-0.5h0.1l0.1,0.3l0,0l-0.2-0.2l0.2-0.2h0.1h0.1h-0.2l-0.2,0.2l-0.4-0.4l0.1-0.3l-0.3-0.1v0.1
	l0.1,0.2l-0.2,0.2l0.3,0.2l0.3,0.1v0.2h-0.2v0.2l-0.1,0.1l-0.2,0.1l-0.1-0.2l-0.3-0.3l-0.2,0.2l-0.2-0.1l-0.2-0.5l0.2-0.2l0.1-0.2
	l0.1-0.5l0.3-0.2l0.5,0.2l0.4,0.1l0.2,0.2l-0.1,0.1l-0.3-0.1l0.2,0.2l0.3,0.4l-0.1,0.1h0.2l-0.1-0.5l0.1-0.2l-0.1-0.4l0.1-0.1
	l-0.1-0.2l0.1-0.1v-0.1c1.9,1.2,3.2,3.1,3.5,5.4h-0.2l-0.1-0.2l-0.1,0.1l-0.3-0.4l-0.1,0.1l0.4,0.7l0.4-0.1v-0.2v0.2L-162.7,1698.1
	L-162.7,1698.1z"/>
<path id="Fill-1-Copy-5" sketch:type="MSShapeGroup" class="st37" d="M-138,1636.9c-6.7,0-13.3-2.5-18.4-7.6
	c-10.1-10.1-10.1-26.6,0-36.8c10.1-10.1,26.6-10.1,36.8,0c0.8,0.8,0.8,2,0,2.8s-2,0.8-2.8,0c-8.6-8.6-22.5-8.6-31.1,0
	c-8.6,8.6-8.6,22.5,0,31.1c8.6,8.6,22.5,8.6,31.1,0c0.8-0.8,2-0.8,2.8,0s0.8,2,0,2.8C-124.7,1634.4-131.3,1636.9-138,1636.9
	 M-138,1566.9c24.3,0,44,19.7,44,44s-19.7,44-44,44s-44-19.7-44-44S-162.3,1566.9-138,1566.9 M-138,1562.9c-26.5,0-48,21.5-48,48
	s21.5,48,48,48s48-21.5,48-48S-111.5,1562.9-138,1562.9"/>
<path id="Imported-Layers-4" sketch:type="MSShapeGroup" class="st38" d="M-98,1519.1c-0.2-0.3-0.6-0.3-0.8,0
	c-0.2,0.3-0.2,0.8,0,1.1l3.5,4.7l-3.5,4.7c-0.2,0.3-0.2,0.8,0,1.1c0.1,0.1,0.2,0.2,0.4,0.2c0.1,0,0.3-0.1,0.4-0.2l4-5.5v-0.6
	L-98,1519.1z"/>
<path id="Imported-Layers-4-Copy" sketch:type="MSShapeGroup" class="st38" d="M-175,1530.7c0.2,0.3,0.6,0.3,0.8,0s0.2-0.8,0-1.1
	l-3.5-4.7l3.5-4.7c0.2-0.3,0.2-0.8,0-1.1c-0.1-0.1-0.2-0.2-0.4-0.2c-0.1,0-0.3,0.1-0.4,0.2l-4,5.5v0.6L-175,1530.7z"/>
<path id="Fill-7-Copy-3" sketch:type="MSShapeGroup" class="st39" d="M-143,2092.9h-2v2h2v2h2v-2h2v-2h-2v-2h-2V2092.9z
	 M-142.3,2102.8c-0.4-0.4-4.1-2.1-4.7-2.4c0-0.1-0.1-0.7-0.3-0.8c-0.2-0.1-0.8-0.4-0.8-0.4s-0.1-0.2-0.1-0.3c0-0.2,0.1-0.3,0.1-0.3
	c0.1-0.2,0.4-0.5,0.5-0.8s0.2-1.1,0.2-1.1c0-0.2,0.2-0.2,0.4-0.3c0.3-0.1,0.5-1.8,0.5-1.8c0-0.5-0.2-0.3-0.2-0.7v-1.4
	c0-1.7-1.5-2.7-3.2-2.7h-0.1c-1.7,0-3.1,0.9-3.1,2.7v1.4c0,0.4-0.2,0.2-0.2,0.7c0,0,0.2,1.6,0.5,1.8c0.1,0.1,0.4,0.2,0.4,0.3
	c0,0,0.1,0.8,0.2,1.1c0.1,0.3,0.4,0.7,0.5,0.8c0,0,0.1,0.1,0.1,0.3c0,0.1-0.1,0.3-0.1,0.3s-0.6,0.3-0.8,0.4
	c-0.2,0.1-0.3,0.6-0.3,0.8c-0.7,0.2-4.3,1.9-4.8,2.4c-0.3,0.3-0.3,2.1-0.3,2.1v0.2c0,0.4,0.3,0.8,0.7,0.8h14.5
	c0.4,0,0.8-0.4,0.8-0.8v-0.2C-142,2104.9-142,2103.1-142.3,2102.8z"/>
<path id="Fill-7-Copy-4" sketch:type="MSShapeGroup" class="st40" d="M-143,2051.9h-2v2h2v2h2v-2h2v-2h-2v-2h-2V2051.9z
	 M-142.3,2061.8c-0.4-0.4-4.1-2.1-4.7-2.4c0-0.1-0.1-0.7-0.3-0.8c-0.2-0.1-0.8-0.4-0.8-0.4s-0.1-0.2-0.1-0.3c0-0.2,0.1-0.3,0.1-0.3
	c0.1-0.2,0.4-0.5,0.5-0.8s0.2-1.1,0.2-1.1c0-0.2,0.2-0.2,0.4-0.3c0.3-0.1,0.5-1.8,0.5-1.8c0-0.5-0.2-0.3-0.2-0.7v-1.4
	c0-1.7-1.5-2.7-3.2-2.7h-0.1c-1.7,0-3.1,0.9-3.1,2.7v1.4c0,0.4-0.2,0.2-0.2,0.7c0,0,0.2,1.6,0.5,1.8c0.1,0.1,0.4,0.2,0.4,0.3
	c0,0,0.1,0.8,0.2,1.1c0.1,0.3,0.4,0.7,0.5,0.8c0,0,0.1,0.1,0.1,0.3c0,0.1-0.1,0.3-0.1,0.3s-0.6,0.3-0.8,0.4
	c-0.2,0.1-0.3,0.6-0.3,0.8c-0.7,0.2-4.3,1.9-4.8,2.4c-0.3,0.3-0.3,2.1-0.3,2.1v0.2c0,0.4,0.3,0.8,0.7,0.8h14.5
	c0.4,0,0.8-0.4,0.8-0.8v-0.2C-142,2063.9-142,2062.1-142.3,2061.8z"/>
<g id="Rectangle-120-Copy-2" sketch:type="MSShapeGroup">
	<polygon class="st0" points="-144,2271.9 -144,2264.9 -146,2264.9 -146,2271.9 -153,2271.9 -153,2273.9 -146,2273.9 -146,2280.9 
		-144,2280.9 -144,2273.9 -137,2273.9 -137,2271.9 	"/>
</g>
<path id="Imported-Layers-Copy-7" sketch:type="MSShapeGroup" class="st41" d="M-144.3,2168.6c0.4-0.4,0.4-1,0-1.4s-1-0.4-1.4,0
	l-3.3,3.3l-3.3-3.3c-0.4-0.4-1-0.4-1.4,0s-0.4,1,0,1.4l3.3,3.3l-3.3,3.3c-0.4,0.4-0.4,1,0,1.4c0.2,0.2,0.4,0.3,0.7,0.3
	c0.3,0,0.5-0.1,0.7-0.3l3.3-3.3l3.3,3.3c0.2,0.2,0.4,0.3,0.7,0.3c0.3,0,0.5-0.1,0.7-0.3c0.4-0.4,0.4-1,0-1.4l-3.3-3.3L-144.3,2168.6
	z"/>
<g id="folder-copy" transform="translate(23.000000, 363.000000)" sketch:type="MSLayerGroup">
	<g id="Imported-Layers" sketch:type="MSShapeGroup">
		<path id="Fill-1" class="st42" d="M-128,1568.7c0,1.8-1.4,3.2-3.2,3.2h-51.6c-1.8,0-3.2-1.5-3.2-3.2v-38.8h58V1568.7"/>
		<path id="Fill-2" class="st43" d="M-182.8,1519.9h19.6c0.8,0,1.7,0.3,2.3,0.9l3,3.4c0.6,0.6,2,1.7,3.9,1.7h23c1.8,0,3,1.3,3,3v1
			h-58v-6.8C-186,1521.3-184.6,1519.9-182.8,1519.9"/>
	</g>
	
		<g id="Fill-4-Copy-_x2B_-Fill-4-Copy-2-_x2B_-Rectangle-601-Copy" transform="translate(9.000000, 23.000000)" sketch:type="MSShapeGroup">
		<path id="Fill-4-Copy" class="st0" d="M-149.6,1528.9H-163v-2h13.4l-5.4-5.8l1.5-1.2l7.5,8l-7.5,8l-1.5-1.2L-149.6,1528.9z"/>
		<path id="Fill-4-Copy-2" class="st0" d="M-182.4,1526.9h13.4v2h-13.4l5.4,5.8l-1.5,1.2l-7.5-8l7.5-8l1.5,1.2L-182.4,1526.9z"/>
		<rect id="Rectangle-601-Copy" x="-167" y="1526.9" class="st0" width="2" height="2"/>
	</g>
</g>
<path id="Rectangle-11" sketch:type="MSShapeGroup" class="st38" d="M-120.5,1985.3l4.3,4.4l10.7-10.9l1.5,1.6l-12.2,12.4l-5.8-6
	L-120.5,1985.3z"/>
<path id="Imported-Layers-Copy-14" sketch:type="MSShapeGroup" class="st17" d="M-135.4,2436.3c0.5-0.5,0.5-1.4,0-2s-1.4-0.5-2,0
	l-4.6,4.6l-4.6-4.6c-0.5-0.5-1.4-0.5-2,0c-0.5,0.5-0.5,1.4,0,2l4.6,4.6l-4.6,4.6c-0.5,0.5-0.5,1.4,0,2c0.3,0.3,0.6,0.4,1,0.4
	c0.4,0,0.7-0.1,1-0.4l4.6-4.6l4.6,4.6c0.3,0.3,0.6,0.4,1,0.4c0.4,0,0.7-0.1,1-0.4c0.5-0.5,0.5-1.4,0-2l-4.6-4.6L-135.4,2436.3z"/>
<g id="Page-1_2_" sketch:type="MSPage">
	<path id="Fill-1-Copy-4" sketch:type="MSShapeGroup" class="st0" d="M-200.9,2629.8c2.1,2.1,6.7,2.3,8.8,0.2l4.3-4.3
		c2.4-2.4,2.3-6.3-0.2-8.8s-6.4-2.6-8.8-0.2l-3.4,3.4c1.3-0.1,2.6,0.2,3.8,0.7l1.9-1.9c1.2-1.2,3.2-1.2,4.4,0.1
		c1.2,1.2,1.3,3.2,0.1,4.4l-4.3,4.3c-1.2,1.2-3.6,0.7-5.1,0.7L-200.9,2629.8z M-195.1,2624c-2.2-2.2-6.7-2.3-8.8-0.2l-4.3,4.3
		c-2.4,2.4-2.3,6.3,0.2,8.8s6.4,2.6,8.8,0.2l3.4-3.4c-1.3,0.1-2.6-0.2-3.8-0.7l-1.9,1.9c-1.2,1.2-3.2,1.2-4.4-0.1
		c-1.2-1.3-1.3-3.2-0.1-4.4l4.3-4.3c0.9-0.9,2.2-0.7,5.1-0.7l0,0L-195.1,2624z"/>
</g>
<g id="Imported-Layers-Copy-16" transform="translate(29.000000, 980.000000)" sketch:type="MSLayerGroup">
	<path id="Fill-1_9_" sketch:type="MSShapeGroup" class="st44" d="M-149-3353.1c-2.2,0-4-1.8-4-4s1.8-4,4-4s4,1.8,4,4
		S-146.8-3353.1-149-3353.1L-149-3353.1z M-149-3363.1c-5,0-8.2,4.3-10,6c1.8,1.7,5,6,10,6s8.2-4.3,10-6
		C-140.8-3358.8-144-3363.1-149-3363.1L-149-3363.1z"/>
	<path id="Fill-2_9_" sketch:type="MSShapeGroup" class="st41" d="M-147-3357.1c0,1.1-0.9,2-2,2s-2-0.9-2-2c0-1.1,0.9-2,2-2
		S-147-3358.2-147-3357.1"/>
</g>
<g id="Path-_x2B_-Oval-12-Copy" transform="translate(32.000000, 1042.000000)" sketch:type="MSLayerGroup">
	<path id="Path" sketch:type="MSShapeGroup" class="st44" d="M-155-3341.1l2,2l4-4l2,2l-6,6l-4-4L-155-3341.1z"/>
	<circle id="Oval-12" sketch:type="MSShapeGroup" class="st44" cx="-152" cy="-3339.1" r="8">
	</circle>
</g>
<g id="Group-Copy" transform="translate(30.000000, 1009.000000)" sketch:type="MSLayerGroup">
	<path id="Rectangle-67" sketch:type="MSShapeGroup" class="st44" d="M-157-3265.1l9.6-9.6c0.8-0.8,2.1-0.8,2.8,0l0.2,0.2
		c0.8,0.8,0.8,2.1,0,2.8l-9.6,9.6l-5,2L-157-3265.1z"/>
	<path id="Path-280" sketch:type="MSShapeGroup" class="st44" d="M-149-3273.1l3.1,3"/>
	<path id="Path-280-Copy" sketch:type="MSShapeGroup" class="st44" d="M-156-3266.1l3.1,3"/>
	
		<g id="Rectangle-68-Copy-_x2B_-Rectangle-68-Copy-2-_x2B_-Rectangle-68-Copy-3" transform="translate(5.000000, 15.000000)" sketch:type="MSShapeGroup">
		<rect id="Rectangle-68-Copy" x="-155" y="-3276.1" width="4" height="1"/>
		<rect id="Rectangle-68-Copy-2" x="-149" y="-3276.1" width="2" height="1"/>
		<rect id="Rectangle-68-Copy-3" x="-159" y="-3276.1" width="2" height="1"/>
	</g>
</g>
<g id="Imported-Layers-Copy-15" transform="translate(33.000000, 813.000000)" sketch:type="MSLayerGroup">
	<path id="Fill-1_8_" sketch:type="MSShapeGroup" class="st45" d="M-153-3222.1c-2.2,0-4-1.8-4-4s1.8-4,4-4s4,1.8,4,4
		S-150.8-3222.1-153-3222.1L-153-3222.1z M-153-3232.1c-5,0-8.2,4.3-10,6c1.8,1.7,5,6,10,6s8.2-4.3,10-6
		C-144.8-3227.8-148-3232.1-153-3232.1L-153-3232.1z"/>
	<path id="Fill-2_8_" sketch:type="MSShapeGroup" class="st0" d="M-151-3226.1c0,1.1-0.9,2-2,2s-2-0.9-2-2c0-1.1,0.9-2,2-2
		S-151-3227.2-151-3226.1"/>
</g>
<g id="Path-_x2B_-Oval-12" transform="translate(35.000000, 879.000000)" sketch:type="MSLayerGroup">
	<path id="Path_1_" sketch:type="MSShapeGroup" class="st45" d="M-158-3358.1l2,2l4-4l2,2l-6,6l-4-4L-158-3358.1z"/>
	<circle id="Oval-12_1_" sketch:type="MSShapeGroup" class="st45" cx="-155" cy="-3356.1" r="8">
	</circle>
</g>
<g id="Group-Copy-5" transform="translate(35.000000, 845.000000)" sketch:type="MSLayerGroup">
	<path id="Rectangle-67_1_" sketch:type="MSShapeGroup" class="st45" d="M-160-3289.1l9.6-9.6c0.8-0.8,2.1-0.8,2.8,0l0.2,0.2
		c0.8,0.8,0.8,2.1,0,2.8l-9.6,9.6l-5,2L-160-3289.1z"/>
	<path id="Path-280_1_" sketch:type="MSShapeGroup" class="st45" d="M-152-3297.1l3.1,3"/>
	<path id="Path-280-Copy_1_" sketch:type="MSShapeGroup" class="st45" d="M-159-3290.1l3.1,3"/>
	
		<g id="Rectangle-68-Copy-_x2B_-Rectangle-68-Copy-2-_x2B_-Rectangle-68-Copy-3_1_" transform="translate(5.000000, 15.000000)" sketch:type="MSShapeGroup">
		<rect id="Rectangle-68-Copy_1_" x="-158" y="-3300.1" class="st0" width="4" height="1"/>
		<rect id="Rectangle-68-Copy-2_1_" x="-152" y="-3300.1" class="st0" width="2" height="1"/>
		<rect id="Rectangle-68-Copy-3_1_" x="-162" y="-3300.1" class="st0" width="2" height="1"/>
	</g>
</g>
<g id="Page-1_3_" sketch:type="MSPage">
	<path id="_x3F_-copy" sketch:type="MSShapeGroup" class="st0" d="M-138,2538h1.8c-0.2-2.2,2.5-3,2.5-5.2c0-1.9-1.3-2.9-3.2-2.9
		c-1.3,0-2.3,0.6-3,1.5l1.1,1c0.5-0.6,1.1-0.9,1.8-0.9c0.9,0,1.4,0.6,1.4,1.4C-135.7,2534.5-138.3,2535.5-138,2538L-138,2538z
		 M-138.4,2540.6c0,0.8,0.6,1.4,1.3,1.4c0.7,0,1.3-0.6,1.3-1.4s-0.6-1.4-1.3-1.4C-137.8,2539.2-138.4,2539.8-138.4,2540.6
		L-138.4,2540.6z"/>
</g>
<g id="Page-1_4_" sketch:type="MSPage">
	<path id="Rectangle-29-Copy-2" sketch:type="MSShapeGroup" class="st23" d="M-142.2,2363.7c-1.6-1.6-4.6-2.8-6.8-2.8l0,0h24l0,0
		c-2.2,0-5.3,1.3-6.8,2.8l-3.8,3.8c-0.8,0.8-2,0.8-2.8,0L-142.2,2363.7z"/>
</g>
<path id="Imported-Layers-Copy-7_1_" sketch:type="MSShapeGroup" class="st0" d="M-144.3,2218.6c0.4-0.4,0.4-1,0-1.4s-1-0.4-1.4,0
	l-3.3,3.3l-3.3-3.3c-0.4-0.4-1-0.4-1.4,0s-0.4,1,0,1.4l3.3,3.3l-3.3,3.3c-0.4,0.4-0.4,1,0,1.4c0.2,0.2,0.4,0.3,0.7,0.3
	c0.3,0,0.5-0.1,0.7-0.3l3.3-3.3l3.3,3.3c0.2,0.2,0.4,0.3,0.7,0.3c0.3,0,0.5-0.1,0.7-0.3c0.4-0.4,0.4-1,0-1.4l-3.3-3.3L-144.3,2218.6
	z"/>
<path class="st46" d="M-70.8,2856.1v-6.2h-1v5.8l-2.6-2.6l-0.7,0.7l2.8,2.8c0,0.1,0,0.2,0,0.2c0,0.6,0.4,1,1,1s1-0.4,1-1
	C-70.3,2856.5-70.5,2856.2-70.8,2856.1z"/>
<path class="st46" d="M-64.2,2852.2l0.7-0.7c0.4-0.4,0.4-1,0-1.4l-1.4-1.4c-0.4-0.4-1-0.4-1.4,0l-0.7,0.7l0.7,0.7l-0.1,0.1
	c-1.1-0.9-2.4-1.5-3.8-1.7v-0.6h2v-1c0-0.6-0.4-1-1-1h-1h-2h-1c-0.6,0-1,0.4-1,1v1h2v0.6c-3.7,0.5-6.5,3.6-6.5,7.4
	c0,4.1,3.4,7.5,7.5,7.5s7.5-3.4,7.5-7.5c0-1.6-0.5-3-1.3-4.3l0.2-0.2L-64.2,2852.2z M-71.3,2862.4c-3.6,0-6.5-2.9-6.5-6.5
	s2.9-6.5,6.5-6.5s6.5,2.9,6.5,6.5S-67.7,2862.4-71.3,2862.4z"/>
<path class="st47" d="M-70.8,2819.1v-6.2h-1v5.8l-2.6-2.6l-0.7,0.7l2.8,2.8c0,0.1,0,0.2,0,0.2c0,0.6,0.4,1,1,1s1-0.4,1-1
	C-70.3,2819.5-70.5,2819.2-70.8,2819.1z"/>
<path class="st47" d="M-64.2,2815.2l0.7-0.7c0.4-0.4,0.4-1,0-1.4l-1.4-1.4c-0.4-0.4-1-0.4-1.4,0l-0.7,0.7l0.7,0.7l-0.1,0.1
	c-1.1-0.9-2.4-1.5-3.8-1.7v-0.6h2v-1c0-0.6-0.4-1-1-1h-1h-2h-1c-0.6,0-1,0.4-1,1v1h2v0.6c-3.7,0.5-6.5,3.6-6.5,7.4
	c0,4.1,3.4,7.5,7.5,7.5s7.5-3.4,7.5-7.5c0-1.6-0.5-3-1.3-4.3l0.2-0.2L-64.2,2815.2z M-71.3,2825.4c-3.6,0-6.5-2.9-6.5-6.5
	s2.9-6.5,6.5-6.5s6.5,2.9,6.5,6.5S-67.7,2825.4-71.3,2825.4z"/>
<g id="Page-1_5_">
	<polygon id="check" class="st48" points="-81.1,-1894.4 -77,-1891.7 -68.9,-1898.5 -67.5,-1897.1 -77.2,-1887.7 -82.5,-1893.1 	"/>
</g>
<path class="st49" d="M-202,1447.9h-10c-1.7,0-3,1.3-3,3v10c0,1.7,1.3,3,3,3h10c1.7,0,3-1.3,3-3v-10
	C-199,1449.2-200.3,1447.9-202,1447.9z M-208.1,1459.8l-3.9-3.9l1-1l3,2l6-5l1,1L-208.1,1459.8z"/>
<path class="st50" d="M-202,1395.9h-10c-1.7,0-3,1.3-3,3v10c0,1.7,1.3,3,3,3h10c1.7,0,3-1.3,3-3v-10
	C-199,1397.2-200.3,1395.9-202,1395.9z"/>
<g id="set-expiry_7_" transform="translate(8.000000, 5515.000000)">
	<g id="_x30_1-get-link---switch-off_2_">
		<g id="key-only_1_">
			<path class="st51" d="M-203.3-2656.6c-1.9,0-3.6-1-4.4-2.7h-1.2l-1.3-1.1l-1.5,1.2l-1.4-0.9l-0.6,0.7h-1.2l-2.6-3.2l1.1-1.4h8.6
				c0.9-1.7,2.6-2.7,4.4-2.7c2.8,0,5,2.2,5,5S-200.5-2656.6-203.3-2656.6z M-208.5-2660.3h1.5l0.1,0.3c0.6,1.5,2.1,2.4,3.6,2.4
				c2.2,0,4-1.8,4-4s-1.8-4-4-4c-1.6,0-3,0.9-3.6,2.4l-0.1,0.3h-8.8l-0.3,0.4l1.8,2.2h0.2l0.8-1.1l1.6,1l1.5-1.2L-208.5-2660.3z
				 M-202-2659.8c-1,0-1.8-0.8-1.8-1.8c0-1,0.8-1.8,1.8-1.8s1.8,0.8,1.8,1.8C-200.2-2660.6-201-2659.8-202-2659.8z M-202-2662.4
				c-0.4,0-0.8,0.4-0.8,0.8c0,0.4,0.4,0.8,0.8,0.8s0.8-0.4,0.8-0.8C-201.2-2662-201.6-2662.4-202-2662.4z"/>
		</g>
	</g>
</g>
<path class="st39" d="M-195.3,2899.4c-1.9,0-3.6-1-4.4-2.7h-1.2l-1.3-1.1l-1.5,1.2l-1.4-0.9l-0.6,0.7h-1.2l-2.6-3.2l1.1-1.4h8.6
	c0.9-1.7,2.6-2.7,4.4-2.7c2.8,0,5,2.2,5,5S-192.5,2899.4-195.3,2899.4z M-200.5,2895.7h1.5l0.1,0.3c0.6,1.5,2.1,2.4,3.6,2.4
	c2.2,0,4-1.8,4-4s-1.8-4-4-4c-1.6,0-3,0.9-3.6,2.4l-0.1,0.3h-8.8l-0.3,0.4l1.8,2.2h0.2l0.8-1.1l1.6,1l1.5-1.2L-200.5,2895.7z
	 M-194,2896.2c-1,0-1.8-0.8-1.8-1.8s0.8-1.8,1.8-1.8s1.8,0.8,1.8,1.8S-193,2896.2-194,2896.2z M-194,2893.6c-0.4,0-0.8,0.4-0.8,0.8
	s0.4,0.8,0.8,0.8s0.8-0.4,0.8-0.8S-193.6,2893.6-194,2893.6z"/>
<g id="set-expiry_6_" transform="translate(143.000000, 5435.000000)" class="st52">
	<g id="_x30_3-Get-link-dialog---date-component_5_">
		<g id="arrow_right_3_">
			<path id="Imported-Layers-4_4_" class="st38" d="M-215.8-2664.9c-0.2-0.3-0.6-0.3-0.8,0s-0.2,0.8,0,1.1l3.5,4.7l-3.5,4.7
				c-0.2,0.3-0.2,0.8,0,1.1c0.1,0.1,0.2,0.2,0.4,0.2c0.1,0,0.3-0.1,0.4-0.2l4-5.5v-0.6L-215.8-2664.9L-215.8-2664.9z"/>
		</g>
	</g>
</g>
<g id="set-expiry_5_" transform="translate(143.000000, 5396.000000)" class="st52">
	<g id="_x30_3-Get-link-dialog---date-component_4_">
		<g id="arrow_right_2_">
			<path id="Imported-Layers-4_3_" class="st38" d="M-216.5-2659.6v0.6l4,5.5c0.1,0.1,0.2,0.2,0.4,0.2c0.1,0,0.3-0.1,0.4-0.2
				c0.2-0.3,0.2-0.8,0-1.1l-3.5-4.7l3.5-4.7c0.2-0.3,0.2-0.8,0-1.1s-0.6-0.3-0.8,0L-216.5-2659.6L-216.5-2659.6z"/>
		</g>
	</g>
</g>
<g id="set-expiry_4_" transform="translate(142.000000, 5355.000000)" class="st4">
	<g id="_x30_3-Get-link-dialog---date-component_3_">
		<g id="close-ico_1_">
			<path id="Imported-Layers-Copy_1_" class="st41" d="M-207.1-2663.6c0.4-0.4,0.4-1,0-1.4c-0.4-0.4-1-0.4-1.4,0l-3.3,3.3l-3.3-3.3
				c-0.4-0.4-1-0.4-1.4,0c-0.4,0.4-0.4,1,0,1.4l3.3,3.3l-3.3,3.3c-0.4,0.4-0.4,1,0,1.4c0.2,0.2,0.4,0.3,0.7,0.3
				c0.3,0,0.5-0.1,0.7-0.3l3.3-3.3l3.3,3.3c0.2,0.2,0.4,0.3,0.7,0.3c0.3,0,0.5-0.1,0.7-0.3c0.4-0.4,0.4-1,0-1.4l-3.3-3.3
				L-207.1-2663.6L-207.1-2663.6z"/>
		</g>
	</g>
</g>
<g>
	<path class="st51" d="M-197.8,2706.2h-8.4c-2.5-0.2-4.3-2.1-4.3-4.4v-5.8c0-2.4,1.9-4.2,4.3-4.2h8.4c2.4,0,4.3,1.9,4.3,4.3v5.8
		C-193.5,2704.3-195.4,2706.2-197.8,2706.2z M-206.2,2692.8c-1.9,0-3.3,1.4-3.3,3.2v5.8c0,1.8,1.4,3.2,3.3,3.4l8.4,0
		c1.8,0,3.3-1.5,3.3-3.3v-5.8c0-1.8-1.5-3.3-3.3-3.3H-206.2z"/>
	<path class="st51" d="M-201.8,2702.8h-0.4c-0.5,0-0.9-0.2-1.2-0.5c-0.3-0.3-0.4-0.8-0.3-1.3l0.3-1.5c0,0.1,0,0-0.1,0c0,0,0,0,0-0.1
		c-0.6-0.5-0.8-1.3-0.6-2.2c0.1-0.7,0.7-1.3,1.5-1.5c0.7-0.2,1.3,0,1.9,0.4c0.5,0.4,0.9,1.1,0.9,1.7c0,0.6-0.3,1.2-0.8,1.6l0.3,1.6
		c0.1,0.5,0,1-0.3,1.3C-200.9,2702.6-201.3,2702.8-201.8,2702.8z M-202,2696.6c-0.1,0-0.2,0-0.3,0c-0.3,0.1-0.8,0.3-0.8,0.8
		c-0.2,0.5,0,0.9,0.3,1.2l0.1,0.2l0.1,0.1c0.1,0.1,0.2,0.3,0.2,0.6l-0.3,1.6c0,0.2,0,0.3,0.1,0.5c0.1,0.1,0.3,0.1,0.4,0.1h0.4
		c0.1,0,0.3,0,0.4-0.1c0.1-0.1,0.1-0.3,0.1-0.5l-0.3-1.6c-0.1-0.2-0.1-0.4,0-0.6c0.1-0.1,0.1-0.2,0.2-0.3l0.1,0
		c0.3-0.3,0.5-0.5,0.5-0.9c0-0.3-0.2-0.7-0.5-0.9C-201.4,2696.8-201.6,2696.6-202,2696.6z"/>
	<path class="st51" d="M-196.5,2692.7h-1v-1.8c0-0.2-0.1-4.5-4.5-4.5c-4.4,0-4.5,4.9-4.5,5.1v0.9h-1v-0.9c0-2.1,1.1-6.1,5.5-6.1
		c5.4,0,5.5,5.4,5.5,5.5V2692.7z"/>
</g>
<g>
	<path class="st39" d="M-197.8,2786.1h-8.4c-2.4,0-4.3-1.9-4.3-4.3v-5.8c0-2.4,1.9-4.3,4.3-4.3h8.4c2.4,0,4.3,1.9,4.3,4.3v5.8
		C-193.5,2784.2-195.4,2786.1-197.8,2786.1z M-206.2,2772.7c-1.8,0-3.3,1.5-3.3,3.3v5.8c0,1.8,1.5,3.3,3.3,3.3h8.4
		c1.8,0,3.3-1.5,3.3-3.3v-5.8c0-1.8-1.5-3.3-3.3-3.3H-206.2z"/>
	<path class="st39" d="M-201.8,2782.8h-0.3c-0.5,0-0.9-0.2-1.2-0.5c-0.3-0.3-0.4-0.8-0.3-1.3l0.3-1.5c0,0.1,0,0-0.1,0c0,0,0,0,0-0.1
		c-0.6-0.5-0.8-1.3-0.6-2.2c0.1-0.7,0.7-1.3,1.5-1.5c0.7-0.2,1.3,0,1.9,0.4c0.5,0.4,0.9,1.1,0.9,1.7c-0.1,0.7-0.4,1.2-0.9,1.6
		l0.3,1.6c0.1,0.5,0,1-0.3,1.3C-200.9,2782.6-201.3,2782.8-201.8,2782.8z M-201.9,2776.6c-0.1,0-0.2,0-0.3,0
		c-0.3,0.1-0.8,0.3-0.8,0.8c-0.2,0.5,0,0.9,0.3,1.2l0.1,0.2l0.1,0.1c0.1,0.1,0.2,0.3,0.2,0.6l-0.3,1.6c0,0.2,0,0.3,0.1,0.5
		c0.1,0.1,0.3,0.1,0.4,0.1h0.3c0.1,0,0.3,0,0.4-0.1c0.1-0.1,0.1-0.3,0.1-0.5l-0.3-1.6c-0.1-0.2-0.1-0.4,0-0.6
		c0.1-0.1,0.1-0.2,0.2-0.3l0.1,0c0.4-0.3,0.5-0.6,0.6-1c0-0.3-0.2-0.6-0.5-0.8C-201.3,2776.8-201.5,2776.6-201.9,2776.6z"/>
	<path class="st39" d="M-196.5,2772.7h-1v-1.8c0-0.2-0.1-4.5-4.5-4.5c-4.4,0-4.5,4.9-4.5,5.1v0.9h-1v-0.9c0-2.1,1.1-6.1,5.5-6.1
		c5.4,0,5.5,5.4,5.5,5.5V2772.7z"/>
</g>
<g>
	<path class="st39" d="M-193.7,2813.1c-0.3,0-0.7,0-1,0.1l0,0c-0.5-0.6-1.2-1.1-2-1.3v-1c0-0.1-0.1-5.5-5.5-5.5
		c-3.3,0-4.6,2.1-5.2,4l1,0.3c0.7-2.2,2.1-3.2,4.2-3.2c4.4,0,4.5,4.3,4.5,4.5v0.8c-0.1,0-0.2,0-0.3,0h-8.4c-2.4,0-4.3,1.9-4.3,4.3
		v5.8c0,2.4,1.9,4.3,4.3,4.3h8.4c1.8,0,3.4-1.2,4-3c0.1,0,0.2,0,0.2,0c2.8,0,5-2.2,5-5S-191,2813.1-193.7,2813.1z M-198,2825.1h-8.4
		c-1.8,0-3.3-1.5-3.3-3.3v-5.8c0-1.8,1.5-3.3,3.3-3.3h8.4c0.8,0,1.7,0.3,2.3,0.9c-1,0.5-1.9,1.2-2.4,2.3h-3c-0.5-0.2-1-0.3-1.5-0.1
		c-0.9,0.3-1.4,0.9-1.5,1.5c-0.2,0.8,0,1.6,0.6,2.2c0,0,0,0,0,0.1c0,0,0,0.1,0.1,0l-0.3,1.5c-0.1,0.5,0,0.9,0.3,1.3
		c0.3,0.3,0.7,0.5,1.2,0.5h0.3c0.5,0,0.9-0.2,1.2-0.5c0.3-0.3,0.4-0.8,0.3-1.3l-0.3-1.6l0.2,0l1.3,1.1h1.2c0.7,1.3,1.8,2.2,3.2,2.5
		C-195.5,2824.2-196.7,2825.1-198,2825.1z M-193.7,2822.1c-1.6,0-3-0.9-3.6-2.4l-0.1-0.3h-1.5l-1.7-1.3l-0.8,0l-0.3,0.9
		c0,0.1,0,0.1-0.1,0.2l0,0.1h0c0,0.1,0,0.3,0.1,0.4l0.3,1.6c0,0.2,0,0.4-0.1,0.5c-0.1,0.1-0.3,0.1-0.4,0.1h-0.3
		c-0.1,0-0.3,0-0.4-0.1c-0.1-0.1-0.1-0.3-0.1-0.5l0.3-1.6c0-0.3-0.1-0.5-0.2-0.6l-0.1-0.1l-0.1-0.2c-0.4-0.3-0.5-0.7-0.3-1.2
		c0.1-0.5,0.6-0.7,0.8-0.8c0.6-0.1,1.4,0.1,1.4,0.1l0.1,0l0,0l3.3,0l0.1-0.3c0.6-1.5,2.1-2.4,3.6-2.4c2.2,0,4,1.8,4,4
		S-191.5,2822.1-193.7,2822.1z"/>
	<path class="st39" d="M-192.4,2816.3c-1,0-1.8,0.8-1.8,1.8c0,1,0.8,1.8,1.8,1.8s1.8-0.8,1.8-1.8
		C-190.6,2817.2-191.4,2816.3-192.4,2816.3z M-192.4,2818.9c-0.4,0-0.8-0.4-0.8-0.8c0-0.4,0.4-0.8,0.8-0.8s0.8,0.4,0.8,0.8
		C-191.6,2818.6-192,2818.9-192.4,2818.9z"/>
</g>
<g>
	<path class="st51" d="M-193.7,2733.1c-0.3,0-0.7,0-1,0.1l0,0c-0.5-0.6-1.2-1.1-2-1.3v-1c0-0.1-0.1-5.5-5.5-5.5
		c-3.3,0-4.6,2.1-5.2,4l1,0.3c0.7-2.2,2.1-3.2,4.2-3.2c4.4,0,4.5,4.3,4.5,4.5v0.8c-0.1,0-0.2,0-0.3,0h-8.4c-2.4,0-4.3,1.9-4.3,4.3
		v5.8c0,2.4,1.9,4.3,4.3,4.3h8.4c1.8,0,3.4-1.2,4-3c0.1,0,0.2,0,0.2,0c2.8,0,5-2.2,5-5S-191,2733.1-193.7,2733.1z M-198,2745.1h-8.4
		c-1.8,0-3.3-1.5-3.3-3.3v-5.8c0-1.8,1.5-3.3,3.3-3.3h8.4c0.8,0,1.7,0.3,2.3,0.9c-1,0.5-1.9,1.2-2.4,2.3h-3c-0.5-0.2-1-0.3-1.5-0.1
		c-0.9,0.3-1.4,0.9-1.5,1.5c-0.2,0.8,0,1.6,0.6,2.2c0,0,0,0,0,0.1c0,0,0,0.1,0.1,0l-0.3,1.5c-0.1,0.5,0,0.9,0.3,1.3
		c0.3,0.3,0.7,0.5,1.2,0.5h0.3c0.5,0,0.9-0.2,1.2-0.5c0.3-0.3,0.4-0.8,0.3-1.3l-0.3-1.6l0.2,0l1.3,1.1h1.2c0.7,1.3,1.8,2.2,3.2,2.5
		C-195.5,2744.2-196.7,2745.1-198,2745.1z M-193.7,2742.1c-1.6,0-3-0.9-3.6-2.4l-0.1-0.3h-1.5l-1.7-1.3l-0.8,0l-0.3,0.9
		c0,0.1,0,0.1-0.1,0.2l0,0.1h0c0,0.1,0,0.3,0.1,0.4l0.3,1.6c0,0.2,0,0.4-0.1,0.5c-0.1,0.1-0.3,0.1-0.4,0.1h-0.3
		c-0.1,0-0.3,0-0.4-0.1c-0.1-0.1-0.1-0.3-0.1-0.5l0.3-1.6c0-0.3-0.1-0.5-0.2-0.6l-0.1-0.1l-0.1-0.2c-0.4-0.3-0.5-0.7-0.3-1.2
		c0.1-0.5,0.6-0.7,0.8-0.8c0.6-0.1,1.4,0.1,1.4,0.1l0.1,0l0,0l3.3,0l0.1-0.3c0.6-1.5,2.1-2.4,3.6-2.4c2.2,0,4,1.8,4,4
		S-191.5,2742.1-193.7,2742.1z"/>
	<path class="st51" d="M-192.4,2736.3c-1,0-1.8,0.8-1.8,1.8c0,1,0.8,1.8,1.8,1.8s1.8-0.8,1.8-1.8
		C-190.6,2737.2-191.4,2736.3-192.4,2736.3z M-192.4,2738.9c-0.4,0-0.8-0.4-0.8-0.8c0-0.4,0.4-0.8,0.8-0.8s0.8,0.4,0.8,0.8
		C-191.6,2738.6-192,2738.9-192.4,2738.9z"/>
</g>
<g id="Page-1_6_">
	<polygon id="check_1_" class="st53" points="-79.5,-482.1 -76.5,-480.1 -70.5,-485.1 -69.5,-484.1 -76.6,-477.2 -80.5,-481.1 	"/>
</g>
<g id="Page-1_7_">
	<path id="Fill-1_10_" class="st38" d="M-137,3015.3c-2.2,0-4-1.8-4-4c0-2.2,1.8-4,4-4c2.2,0,4,1.8,4,4
		C-133,3013.5-134.8,3015.3-137,3015.3 M-137,2971.3c-22.1,0-40,17.9-40,40s17.9,40,40,40s40-17.9,40-40S-114.9,2971.3-137,2971.3
		 M-137,3055.3c-24.3,0-44-19.7-44-44c0-24.3,19.7-44,44-44s44,19.7,44,44C-93,3035.6-112.7,3055.3-137,3055.3 M-113.4,3036.5
		l-16.5-21.7c0.5-1.1,0.8-2.2,0.8-3.5c0-4.4-3.6-8-8-8c-4.4,0-8,3.6-8,8s3.6,8,8,8c1,0,2-0.2,2.9-0.6l19.7,18.8c0.3,0.3,0.7,0.3,1,0
		C-113.2,3037.3-113.1,3036.8-113.4,3036.5"/>
	<path id="Fill-5" class="st54" d="M-115.2,2987.7l3-2.9c-6.1-5.7-14.9-9.2-22.9-9.5v4.1C-127,2979.7-120.5,2982.8-115.2,2987.7"/>
	<path id="Fill-7" class="st55" d="M-139,2979.4v-4.1c-8,0.3-16.6,3.9-22.7,9.5l2.8,2.9C-153.6,2982.8-147,2979.7-139,2979.4"/>
	<path id="Fill-11" class="st56" d="M-160.6,2989.5l-2.9-3c-5.6,6.1-9.2,14.9-9.5,22.9h4.1C-168.6,3001.3-165.5,2994.8-160.6,2989.5
		"/>
	<path id="Fill-13" class="st57" d="M-113.4,3033.1l2.9,3c5.6-6.1,9.2-14.9,9.5-22.9h-4.1C-105.4,3021.3-108.5,3027.8-113.4,3033.1"
		/>
	<path id="Fill-9" class="st58" d="M-105.1,3009.3h4.1c-0.3-8-3.9-16.6-9.5-22.7l-2.9,2.8C-108.5,2994.7-105.4,3001.3-105.1,3009.3"
		/>
	<path id="Fill-15" class="st59" d="M-173,3013.3c0.3,8,3.9,16.6,9.5,22.7l2.9-2.7c-4.9-5.4-8-12-8.3-20H-173z"/>
</g>
</svg>
