<?xml version="1.0" encoding="utf-8"?>
<!-- Generator: Adobe Illustrator 19.0.0, SVG Export Plug-In . SVG Version: 6.00 Build 0)  -->
<svg version="1.1" id="Layer_1" xmlns:sketch="http://www.bohemiancoding.com/sketch/ns"
	 xmlns="http://www.w3.org/2000/svg" xmlns:xlink="http://www.w3.org/1999/xlink" x="0px" y="0px" width="160px" height="6175px"
	 viewBox="-225 -2691 160 6175" style="enable-background:new -225 -2691 160 6175;" xml:space="preserve">
<style type="text/css">
	.st0{fill:#FFFFFF;}
	.st1{fill:#090909;}
	.st2{opacity:5.000000e-02;}
	.st3{opacity:0.3;fill:#090909;enable-background:new    ;}
	.st4{opacity:0.3;}
	.st5{fill:#59AD46;}
	.st6{opacity:0.5;fill:#C8C5C5;enable-background:new    ;}
	.st7{fill:#C8C5C5;}
	.st8{fill:#9CCF81;}
	.st9{opacity:0.3;fill:#050505;enable-background:new    ;}
	.st10{fill:#DD4F37;}
	.st11{fill:#7CB244;}
	.st12{fill:#494949;}
	.st13{fill:#FAB718;}
	.st14{fill:#C6C4C4;}
	.st15{fill:url(#Rectangle-path_1_);}
	.st16{fill:url(#Rectangle-path_2_);}
	.st17{fill:#EDC11E;}
	.st18{opacity:0.3;fill:#686969;enable-background:new    ;}
	.st19{opacity:0.5;fill:#FFFFFF;enable-background:new    ;}
	.st20{fill:#030303;}
	.st21{fill:#474747;}
	.st22{fill:#040505;}
	.st23{fill:#010101;}
	.st24{opacity:0.3;fill:#010101;enable-background:new    ;}
	.st25{fill:#333333;}
	.st26{fill:#ABABAB;}
	.st27{fill:#989898;}
	.st28{fill:#F1F0F0;}
	.st29{opacity:0.1;}
	.st30{fill:#0D0D0D;}
	.st31{opacity:0.1;fill:#0D0D0D;enable-background:new    ;}
	.st32{fill:#787878;}
	.st33{fill:#EE2A57;}
	.st34{opacity:0.8;fill:#0D0D0D;enable-background:new    ;}
	.st35{fill:#FED307;}
	.st36{opacity:0.2;fill:#FFFFFF;enable-background:new    ;}
	.st37{opacity:0.5;fill:#010101;enable-background:new    ;}
	.st38{fill:#59BA47;}
	.st39{fill:#222222;}
	.st40{opacity:0.3;enable-background:new    ;}
	.st41{fill:#777777;}
	.st42{fill:#666666;}
	.st43{fill:#FFA500;}
	.st44{opacity:0.5;enable-background:new    ;}
	.st45{fill:#0B0B0A;}
	.st46{fill:#F1D364;}
	.st47{fill:#ECC01E;}
	.st48{fill:none;stroke:#000000;}
	.st49{fill:none;stroke:#FFFFFF;}
	.st50{opacity:0.55;}
	.st51{fill:none;stroke:#000000;stroke-miterlimit:10;}
	.st52{opacity:0.55;fill:none;stroke:#000000;stroke-miterlimit:10;}
	.st53{fill:none;stroke:#F5A623;stroke-miterlimit:10;}
</style>
<title>Slice 1</title>
<desc>Created with Sketch.</desc>
<path id="Shape_3_" sketch:type="MSShapeGroup" class="st0" d="M-121.2-2357.3c-0.3-0.3-3-1.6-3.6-1.8c0-0.1-0.1-0.5-0.2-0.6
	c-0.1-0.1-0.6-0.3-0.6-0.3c0,0-0.1-0.1-0.1-0.2c0-0.1,0.1-0.2,0.1-0.2c0.1-0.1,0.3-0.4,0.4-0.6s0.1-0.8,0.1-0.8
	c0-0.1,0.2-0.2,0.3-0.2c0.2-0.1,0.4-1.3,0.4-1.3c0-0.4-0.2-0.2-0.2-0.5v-1.1c0-1.3-1-2.1-2.3-2.1h-0.1c-1.3,0-2.4,0.8-2.4,2.1v1.1
	c0,0.3-0.2,0.1-0.2,0.5c0,0,0.2,1.2,0.4,1.3c0.1,0.1,0.3,0.1,0.3,0.2c0,0,0.1,0.6,0.1,0.8c0.1,0.2,0.3,0.5,0.4,0.6
	c0,0,0.1,0.1,0.1,0.2c0,0.1-0.1,0.2-0.1,0.2c0,0-0.5,0.2-0.6,0.3c-0.1,0.1-0.2,0.5-0.2,0.6c-0.5,0.2-3.3,1.4-3.6,1.8
	c-0.2,0.2-0.2,1.6-0.2,1.6v0.2c0,0.3,0.3,0.6,0.6,0.6h10.9c0.3,0,0.6-0.3,0.6-0.6v-0.2C-121-2355.7-121-2357.1-121.2-2357.3
	L-121.2-2357.3L-121.2-2357.3z"/>
<g id="Group_4_" transform="translate(90.000000, 136.000000)" sketch:type="MSShapeGroup">
	<path id="Shape_11_" class="st1" d="M-213-2679v1c0,1.1-0.9,2-2,2h-6c-1.1,0-2-0.9-2-2v-6c0-1.1,0.9-2,2-2h1v-2h-1
		c-2.2,0-4,1.8-4,4v6c0,2.2,1.8,4,4,4h6c2.2,0,4-1.8,4-4v-1H-213L-213-2679z"/>
	<path id="Shape_12_" class="st1" d="M-209-2690h-1l-5.5,4.5l-2.5-2.5v7h7l-2.5-2.5l4.5-5.5V-2690L-209-2690z"/>
</g>
<g id="Group_5_" transform="translate(30.000000, 0.000000)" sketch:type="MSShapeGroup" class="st2">
	<path id="Shape_13_" class="st1" d="M-162.8-2650.7c0-0.6-0.3-2.5-1-2.8c-0.7-0.3-3-1.4-3-1.4c0-0.2-0.3-0.6-0.3-1.1
		c0-0.6,0.3-1.1,0.3-1.1c0.3-0.6,1.4-2,1.7-3.1c0.3-1.1,0.6-3.9,0.6-3.9c0-0.6,0.9-0.9,1.5-1.2c1-0.5,2.1-6.5,2.1-6.5
		c0-1.9-0.5-1.1-0.5-2.5v-5.2c0-6.4-5.9-10.5-12.5-10.5h-0.3c-6.6,0-12.5,4.1-12.5,10.5v5.2c0,1.4-0.5,0.6-0.5,2.5c0,0,1,6,2,6.5
		c0.6,0.3,1.6,0.6,1.6,1.2c0,0,0.4,2.8,0.7,3.9c0.3,1.1,1.4,2.5,1.8,3.1c0,0,0.3,0.5,0.3,1.1c0,0.5-0.3,1-0.3,1.1c0,0-2.3,1.1-3,1.4
		c-0.7,0.3-1,2.2-1,2.8c-2.6,0.8-16.4,7.1-18,8.7c-1.1,1.1-1.1,7.9-1.1,7.9v0.9c0,1.5,1.6,3.3,3.2,3.3h54.2c1.6,0,3.2-1.7,3.2-3.3
		v-0.9c0,0,0-6.7-1.1-7.9C-146.4-2643.6-160.2-2649.9-162.8-2650.7L-162.8-2650.7L-162.8-2650.7z M-124.3-2644.1
		c-1.2-1.2-11.6-5.9-13.5-6.5c0-0.4-0.2-1.8-0.8-2.1c-0.5-0.2-2.2-1-2.2-1c0-0.1-0.2-0.5-0.2-0.9c0-0.4,0.2-0.8,0.2-0.8
		c0.2-0.5,1.1-1.5,1.3-2.3c0.2-0.8,0.5-2.9,0.5-2.9c0-0.4,0.7-0.6,1.1-0.9c0.7-0.3,1.9-4.8,1.9-4.8c0-1.5-0.1-0.8-0.1-1.9v-3.9
		c0-4.8-5.1-7.9-10-7.9h-0.2c-4.9,0-10,3.1-10,7.9v3.9c0,1.1-0.1,0.4-0.1,1.9c0,0,0.9,4.5,1.6,4.8c0.4,0.2,1.2,0.4,1.2,0.9
		c0,0,0.3,2.1,0.6,2.9s1.1,1.9,1.3,2.3c0,0,0.2,0.4,0.2,0.8c0,0.4-0.2,0.7-0.2,0.9c0,0-1.7,0.8-2.2,1c-0.6,0.2-0.8,1.7-0.8,2.1
		c-0.2,0.1-0.5,0.2-0.9,0.3c5,2.2,11.1,5.2,12.4,6.6c0.4,0.4,1.6,1.6,1.8,8.1h15c1.2,0,2.8-0.8,2.8-2v-0.6
		C-123.5-2638.2-123.5-2643.2-124.3-2644.1L-124.3-2644.1L-124.3-2644.1z M-193.4-2650.6c0-0.4-0.2-1.8-0.8-2.1
		c-0.5-0.2-2.2-1-2.2-1c0-0.1-0.2-0.5-0.2-0.9c0-0.4,0.2-0.8,0.2-0.8c0.2-0.5,1.1-1.5,1.3-2.3c0.2-0.8,0.5-2.9,0.5-2.9
		c0-0.4,0.7-0.6,1.1-0.9c0.8-0.3,1.9-4.8,1.9-4.8c0-1.5-0.1-0.8-0.1-1.9v-3.9c0-4.8-5.1-7.9-10-7.9h-0.2c-4.9,0-10,3.1-10,7.9v3.9
		c0,1.1-0.1,0.4-0.1,1.9c0,0,0.9,4.5,1.6,4.8c0.4,0.2,1.2,0.4,1.2,0.9c0,0,0.3,2.1,0.5,2.9c0.2,0.8,1.1,1.9,1.3,2.3
		c0,0,0.2,0.4,0.2,0.8c0,0.4-0.2,0.7-0.2,0.9c0,0-1.7,0.8-2.2,1c-0.6,0.2-0.8,1.7-0.8,2.1c-1.9,0.6-12.3,5.4-13.5,6.5
		c-0.8,0.9-0.8,5.9-0.8,5.9v0.6c0,1.2,1.6,1.9,2.8,1.9h15c0.1-6.6,1.3-7.7,1.7-8.1c1.4-1.4,7.5-4.3,12.5-6.6
		C-192.9-2650.4-193.2-2650.5-193.4-2650.6L-193.4-2650.6L-193.4-2650.6z"/>
</g>
<path id="Shape_14_" sketch:type="MSShapeGroup" class="st3" d="M-121.2-2587.3c-0.3-0.3-3-1.6-3.6-1.8c0-0.1-0.1-0.5-0.2-0.6
	c-0.1-0.1-0.6-0.3-0.6-0.3c0,0-0.1-0.1-0.1-0.2c0-0.1,0.1-0.2,0.1-0.2c0.1-0.1,0.3-0.4,0.4-0.6c0.1-0.2,0.1-0.8,0.1-0.8
	c0-0.1,0.2-0.2,0.3-0.2c0.2-0.1,0.4-1.3,0.4-1.3c0-0.4-0.2-0.2-0.2-0.5v-1c0-1.3-1-2.1-2.3-2.1h-0.1c-1.3,0-2.4,0.8-2.4,2.1v1
	c0,0.3-0.2,0.1-0.2,0.5c0,0,0.2,1.2,0.4,1.3c0.1,0.1,0.3,0.1,0.3,0.2c0,0,0.1,0.6,0.1,0.8c0.1,0.2,0.3,0.5,0.4,0.6
	c0,0,0.1,0.1,0.1,0.2c0,0.1-0.1,0.2-0.1,0.2c0,0-0.5,0.2-0.6,0.3c-0.1,0.1-0.2,0.5-0.2,0.6c-0.5,0.2-3.3,1.4-3.6,1.8
	c-0.2,0.2-0.2,1.6-0.2,1.6v0.2c0,0.3,0.3,0.6,0.6,0.6h10.9c0.3,0,0.6-0.3,0.6-0.6v-0.2C-121-2585.7-121-2587.1-121.2-2587.3
	L-121.2-2587.3L-121.2-2587.3z"/>
<path id="Shape_15_" sketch:type="MSShapeGroup" class="st1" d="M-126.4-2218.2c-0.4,0.4-1,0.4-1.4,0c-0.4-0.4-0.4-1,0-1.4l1.4-1.4
	l-1.4-1.4c-0.4-0.4-0.4-1,0-1.4c0.4-0.4,1-0.4,1.4,0l1.4,1.4l1.4-1.4c0.4-0.4,1-0.4,1.4,0s0.4,1,0,1.4l-1.4,1.4l1.4,1.4
	c0.4,0.4,0.4,1,0,1.4c-0.4,0.4-1,0.4-1.4,0l-1.4-1.4L-126.4-2218.2L-126.4-2218.2z"/>
<g id="Group_6_" transform="translate(74.000000, 537.000000)" sketch:type="MSShapeGroup" class="st4">
	<path id="Shape_16_" class="st1" d="M-218-2684l5.8-5.8c-0.2-0.1-0.5-0.2-0.8-0.2h-10c-0.3,0-0.6,0.1-0.8,0.2L-218-2684L-218-2684z
		"/>
	<path id="Shape_17_" class="st1" d="M-218-2682l-6.8-6.8c-0.1,0.2-0.2,0.5-0.2,0.8v6c0,1.1,0.9,2,2,2h10c1.1,0,2-0.9,2-2v-6
		c0-0.3-0.1-0.6-0.2-0.8L-218-2682L-218-2682z"/>
</g>
<g id="Group_7_" transform="translate(66.000000, 576.000000)" sketch:type="MSShapeGroup" class="st4">
	<path id="Shape_18_" class="st1" d="M-211-2675l-13.3-13.3c-0.4,0.6-0.7,1.4-0.7,2.3v12c0,2.2,1.8,4,4,4h20c2.2,0,4-1.8,4-4v-12
		c0-0.9-0.3-1.6-0.7-2.3L-211-2675L-211-2675z"/>
	<path id="Shape_19_" class="st1" d="M-211-2677l12.3-12.3c-0.6-0.5-1.4-0.7-2.3-0.7h-20c-0.9,0-1.6,0.3-2.3,0.7L-211-2677
		L-211-2677z"/>
</g>
<g id="Group_8_" transform="translate(72.000000, 677.000000)" sketch:type="MSShapeGroup">
	<path id="Shape_20_" class="st0" d="M-212.3-2676.2c-0.7-0.5-2-1.6-2-2.3c0-0.8,0.2-1.2,1.5-2.1c1.3-1,2.2-2.3,2.2-3.9
		c0-1.9-0.9-3.7-2.5-4.3h2.4l1.7-1.2h-7.7c-3.4,0-6.7,2.5-6.7,5.4c0,3,2.3,5.4,5.8,5.4c0.2,0,0.5,0,0.7,0c-0.2,0.4-0.4,0.9-0.4,1.4
		c0,0.8,0.5,1.5,1,2l-1.3,0c-4.3,0-7.5,2.6-7.5,5.4c0,2.7,3.6,4.4,7.9,4.4c4.9,0,7.5-2.7,7.5-5.4
		C-209.6-2673.5-210.3-2674.8-212.3-2676.2L-212.3-2676.2L-212.3-2676.2z M-216.4-2679.9c-2-0.1-3.9-2.1-4.2-4.7
		c-0.3-2.5,1-4.4,3-4.4c2,0.1,3.9,2.1,4.2,4.6C-213.1-2681.8-214.4-2679.9-216.4-2679.9L-216.4-2679.9L-216.4-2679.9z
		 M-217.2-2667.2c-2.9,0-5.1-1.8-5.1-4c0-2.1,2.6-3.9,5.6-3.9c0.7,0,1.3,0.1,1.9,0.3c1.6,1.1,2.8,1.7,3.1,2.9
		c0.1,0.2,0.1,0.5,0.1,0.8C-211.6-2668.9-213-2667.2-217.2-2667.2L-217.2-2667.2L-217.2-2667.2z"/>
	<path id="Shape_21_" class="st0" d="M-212.3-2676.2c-0.7-0.5-2-1.6-2-2.3c0-0.8,0.2-1.2,1.5-2.1c1.3-1,2.2-2.3,2.2-3.9
		c0-1.9-0.9-3.7-2.5-4.3h2.4l1.7-1.2h-7.7c-3.4,0-6.7,2.5-6.7,5.4c0,3,2.3,5.4,5.8,5.4c0.2,0,0.5,0,0.7,0c-0.2,0.4-0.4,0.9-0.4,1.4
		c0,0.8,0.5,1.5,1,2l-1.3,0c-4.3,0-7.5,2.6-7.5,5.4c0,2.7,3.6,4.4,7.9,4.4c4.9,0,7.5-2.7,7.5-5.4
		C-209.6-2673.5-210.3-2674.8-212.3-2676.2L-212.3-2676.2L-212.3-2676.2z M-216.4-2679.9c-2-0.1-3.9-2.1-4.2-4.7
		c-0.3-2.5,1-4.4,3-4.4c2,0.1,3.9,2.1,4.2,4.6C-213.1-2681.8-214.4-2679.9-216.4-2679.9L-216.4-2679.9L-216.4-2679.9z
		 M-217.2-2667.2c-2.9,0-5.1-1.8-5.1-4c0-2.1,2.6-3.9,5.6-3.9c0.7,0,1.3,0.1,1.9,0.3c1.6,1.1,2.8,1.7,3.1,2.9
		c0.1,0.2,0.1,0.5,0.1,0.8C-211.6-2668.9-213-2667.2-217.2-2667.2L-217.2-2667.2L-217.2-2667.2z"/>
</g>
<g id="Group_9_" transform="translate(76.000000, 630.000000)" sketch:type="MSShapeGroup">
	<path id="Shape_22_" class="st0" d="M-218.6-2682.1c-0.3-0.2-1-0.8-1-1.2c0-0.4,0.1-0.6,0.7-1.1c0.6-0.5,1.1-1.2,1.1-1.9
		c0-0.9-0.4-1.9-1.2-2.2h1.2l0.9-0.6h-3.8c-1.7,0-3.3,1.3-3.3,2.7c0,1.5,1.2,2.7,2.9,2.7l0.4,0c-0.1,0.2-0.2,0.4-0.2,0.7
		c0,0.4,0.2,0.8,0.5,1l-0.7,0c-2.1,0-3.8,1.3-3.8,2.7c0,1.3,1.8,2.2,3.9,2.2c2.4,0,3.8-1.3,3.8-2.7
		C-217.3-2680.8-217.6-2681.4-218.6-2682.1L-218.6-2682.1L-218.6-2682.1z M-220.7-2684c-1,0-1.9-1.1-2.1-2.3
		c-0.2-1.3,0.5-2.2,1.5-2.2c1,0,1.9,1,2.1,2.3C-219.1-2684.9-219.7-2683.9-220.7-2684L-220.7-2684L-220.7-2684z M-221.1-2677.6
		c-1.5,0-2.5-0.9-2.5-2c0-1.1,1.3-1.9,2.8-1.9c0.4,0,0.7,0,1,0.1c0.8,0.5,1.4,0.9,1.5,1.5c0,0.1,0.1,0.2,0.1,0.4
		C-218.3-2678.4-219-2677.6-221.1-2677.6L-221.1-2677.6L-221.1-2677.6z"/>
	<path id="Shape_23_" class="st0" d="M-218.6-2682.1c-0.3-0.2-1-0.8-1-1.2c0-0.4,0.1-0.6,0.7-1.1c0.6-0.5,1.1-1.2,1.1-1.9
		c0-0.9-0.4-1.9-1.2-2.2h1.2l0.9-0.6h-3.8c-1.7,0-3.3,1.3-3.3,2.7c0,1.5,1.2,2.7,2.9,2.7l0.4,0c-0.1,0.2-0.2,0.4-0.2,0.7
		c0,0.4,0.2,0.8,0.5,1l-0.7,0c-2.1,0-3.8,1.3-3.8,2.7c0,1.3,1.8,2.2,3.9,2.2c2.4,0,3.8-1.3,3.8-2.7
		C-217.3-2680.8-217.6-2681.4-218.6-2682.1L-218.6-2682.1L-218.6-2682.1z M-220.7-2684c-1,0-1.9-1.1-2.1-2.3
		c-0.2-1.3,0.5-2.2,1.5-2.2c1,0,1.9,1,2.1,2.3C-219.1-2684.9-219.7-2683.9-220.7-2684L-220.7-2684L-220.7-2684z M-221.1-2677.6
		c-1.5,0-2.5-0.9-2.5-2c0-1.1,1.3-1.9,2.8-1.9c0.4,0,0.7,0,1,0.1c0.8,0.5,1.4,0.9,1.5,1.5c0,0.1,0.1,0.2,0.1,0.4
		C-218.3-2678.4-219-2677.6-221.1-2677.6L-221.1-2677.6L-221.1-2677.6z"/>
</g>
<path id="Shape_24_" sketch:type="MSShapeGroup" class="st5" d="M-91-1916.5l3-3l3,3l7-7l3,3l-10,10L-91-1916.5L-91-1916.5z"/>
<path id="Shape_25_" sketch:type="MSShapeGroup" class="st1" d="M-123.1-1854l2.3-2.3c0.4-0.4,0.4-1,0-1.4s-1-0.4-1.4,0l-2.3,2.3
	l-2.3-2.3c-0.4-0.4-1-0.4-1.4,0s-0.4,1,0,1.4l2.3,2.3l-2.3,2.3c-0.4,0.4-0.4,1,0,1.4c0.2,0.2,0.4,0.3,0.7,0.3s0.5-0.1,0.7-0.3
	l2.3-2.3l2.3,2.3c0.2,0.2,0.4,0.3,0.7,0.3s0.5-0.1,0.7-0.3c0.4-0.4,0.4-1,0-1.4L-123.1-1854L-123.1-1854z"/>
<g id="Group_14_" transform="translate(1.000000, 1624.000000)" sketch:type="MSShapeGroup">
	<path id="Shape_38_" class="st6" d="M-156.5-2642.3c4-2.2,6.9-5.5,7-9.9c0.2-9.5-9.2-16.4-18.6-18.3l-0.4-0.1
		c0.6,6-0.9,11.7-4.4,16.2c-3.6,4.6-9,7.6-15.4,9c3.1,3.7,8.1,6,14,6.4c2.8,0.2,5.8,0,8.7-0.4c3.1,2.4,7.7,2.6,11.5,2.3
		c1.2-0.1,1-0.6,0.1-0.8c-1.8-0.4-3.2-1.7-3.2-3.5C-157.1-2641.8-156.8-2642.1-156.5-2642.3L-156.5-2642.3L-156.5-2642.3z"/>
	<path id="Shape_39_" class="st7" d="M-171.2-2673.4c-3-13.2-16.4-17.6-29.6-14.8c-12,2.6-24,11.6-23.7,24
		c0.2,5.7,3.8,10.1,8.9,12.9c0.3,0.2,0.8,0.6,0.8,1.2c0.1,2.4-1.7,4-4,4.6c-1.2,0.3-1.5,0.9,0.1,1.1c4.9,0.3,10.7,0.1,14.7-3
		c3.7,0.5,7.4,0.8,11.1,0.5C-177.9-2648.1-167.9-2658.9-171.2-2673.4L-171.2-2673.4L-171.2-2673.4z"/>
</g>
<g id="Group_15_" transform="translate(1.000000, 1723.000000)" sketch:type="MSShapeGroup">
	<path id="Shape_40_" class="st8" d="M-176.9-2657.1l15-9.2l6.7,13.2c1.6,7.2-7.3,9.9-14.4,9.4L-176.9-2657.1L-176.9-2657.1z"/>
	<path id="Shape_41_" class="st8" d="M-180.3-2647.6l-7.9,14.2l7.9,14.4l0.2-5.8h7.2c2.6,0.2,6-1.5,7.3-4.1l9.2-17.3
		c-3.1,3.1-7,3.9-11.5,3.9H-180L-180.3-2647.6L-180.3-2647.6z"/>
	<path id="Shape_42_" class="st8" d="M-197.9-2665.2l-15.1-8.9l8.1-12.4c5.4-5,12,1.7,15.1,8.3L-197.9-2665.2L-197.9-2665.2z"/>
	<path id="Shape_43_" class="st8" d="M-188.2-2666.7l16,0.1l8.5-14l-5,2.6l-3.5-6.4c-1.1-2.5-4.2-4.7-7-4.6l-19.3,0.1
		c4.1,1.2,6.7,4.4,8.9,8.4l5.9,10.9L-188.2-2666.7L-188.2-2666.7z"/>
	<path id="Shape_44_" class="st8" d="M-224.6-2665.9l4.7,3.6l-4.4,8.4c-2.2,3.9,1.6,7.7,4,9c2.4,1.3,6.1,1.5,9.5,1.4l6.2-10.1
		l4.7,2.5l-8.1-15.1L-224.6-2665.9L-224.6-2665.9z"/>
	<path id="Shape_45_" class="st8" d="M-223.9-2646.4l10.1,18.6c2,2.6,5.8,3.2,9.8,3.1h10.6v-17.6l-20.1-0.1
		C-216.7-2642.2-220.8-2642.9-223.9-2646.4L-223.9-2646.4L-223.9-2646.4z"/>
</g>
<path id="Shape_46_" sketch:type="MSShapeGroup" class="st9" d="M-216-837.4l3.1,5.4h-6.2L-216-837.4L-216-837.4z M-216-842.5
	l-7.5,13h15L-216-842.5L-216-842.5z"/>
<g id="Group_17_" transform="translate(11.000000, 2077.000000)" sketch:type="MSShapeGroup">
	<circle id="Oval" class="st10" cx="-217" cy="-2682" r="8"/>
	<g id="Shape_49_" transform="translate(4.000000, 2.000000)">
		<path id="Shape_26_" class="st0" d="M-218.6-2683.1c-0.3-0.2-1-0.8-1-1.2c0-0.4,0.1-0.6,0.7-1.1c0.6-0.5,1.1-1.2,1.1-1.9
			c0-0.9-0.4-1.9-1.2-2.1h1.2l0.9-0.6h-3.8c-1.7,0-3.3,1.3-3.3,2.7c0,1.5,1.2,2.7,2.9,2.7l0.4,0c-0.1,0.2-0.2,0.4-0.2,0.7
			c0,0.4,0.2,0.8,0.5,1l-0.7,0c-2.1,0-3.8,1.3-3.8,2.7c0,1.4,1.8,2.2,3.9,2.2c2.4,0,3.8-1.3,3.8-2.7
			C-217.3-2681.8-217.6-2682.4-218.6-2683.1L-218.6-2683.1L-218.6-2683.1z M-220.7-2684.9c-1,0-1.9-1.1-2.1-2.3
			c-0.2-1.3,0.5-2.2,1.5-2.2c1,0,1.9,1,2.1,2.3C-219.1-2685.9-219.7-2684.9-220.7-2684.9L-220.7-2684.9L-220.7-2684.9z
			 M-221.1-2678.6c-1.5,0-2.5-0.9-2.5-2c0-1.1,1.3-1.9,2.8-1.9c0.4,0,0.7,0.1,1,0.1c0.8,0.5,1.4,0.9,1.5,1.5c0,0.1,0.1,0.2,0.1,0.4
			C-218.3-2679.4-219-2678.6-221.1-2678.6L-221.1-2678.6L-221.1-2678.6z"/>
		<path id="Shape_27_" class="st0" d="M-218.6-2683.1c-0.3-0.2-1-0.8-1-1.2c0-0.4,0.1-0.6,0.7-1.1c0.6-0.5,1.1-1.2,1.1-1.9
			c0-0.9-0.4-1.9-1.2-2.1h1.2l0.9-0.6h-3.8c-1.7,0-3.3,1.3-3.3,2.7c0,1.5,1.2,2.7,2.9,2.7l0.4,0c-0.1,0.2-0.2,0.4-0.2,0.7
			c0,0.4,0.2,0.8,0.5,1l-0.7,0c-2.1,0-3.8,1.3-3.8,2.7c0,1.4,1.8,2.2,3.9,2.2c2.4,0,3.8-1.3,3.8-2.7
			C-217.3-2681.8-217.6-2682.4-218.6-2683.1L-218.6-2683.1L-218.6-2683.1z M-220.7-2684.9c-1,0-1.9-1.1-2.1-2.3
			c-0.2-1.3,0.5-2.2,1.5-2.2c1,0,1.9,1,2.1,2.3C-219.1-2685.9-219.7-2684.9-220.7-2684.9L-220.7-2684.9L-220.7-2684.9z
			 M-221.1-2678.6c-1.5,0-2.5-0.9-2.5-2c0-1.1,1.3-1.9,2.8-1.9c0.4,0,0.7,0.1,1,0.1c0.8,0.5,1.4,0.9,1.5,1.5c0,0.1,0.1,0.2,0.1,0.4
			C-218.3-2679.4-219-2678.6-221.1-2678.6L-221.1-2678.6L-221.1-2678.6z"/>
	</g>
</g>
<path id="Shape_50_" sketch:type="MSShapeGroup" class="st11" d="M-88-505l1.7-1.8l2.2,2.2l4.4-4.4l1.7,1.8l-6.1,6.2L-88-505
	L-88-505z"/>
<path id="Shape_51_" sketch:type="MSShapeGroup" class="st12" d="M-86.6-650c2.8,0,5.6-1.1,7.6-3.1l12.9-12.9l-12.9-12.9
	c-2-2-4.7-3.1-7.6-3.1h-5.2v32H-86.6L-86.6-650z"/>
<path id="Shape_52_" sketch:type="MSShapeGroup" class="st13" d="M-188-431.6l12.3,20.6h-24.7L-188-431.6L-188-431.6z M-188-451
	l-30,50h60L-188-451L-188-451z"/>
<path id="Shape_53_" sketch:type="MSShapeGroup" class="st14" d="M-223-320c0,19.3,15.7,35,35,35s35-15.7,35-35s-15.7-35-35-35
	S-223-339.3-223-320L-223-320L-223-320z M-218-320c0-16.6,13.4-30,30-30s30,13.4,30,30s-13.4,30-30,30S-218-303.4-218-320L-218-320
	L-218-320z"/>
<path id="Shape_54_" sketch:type="MSShapeGroup" class="st14" d="M-180.1-336.8c0,1.2-0.5,2.3-1.4,3.2c-0.9,0.9-2.1,1.3-3.4,1.3
	c-1.3,0-2.5-0.4-3.4-1.3c-0.9-0.9-1.4-1.9-1.4-3.2c0-1.2,0.5-2.3,1.4-3.2c0.9-0.9,2.1-1.3,3.4-1.3c1.3,0,2.4,0.4,3.4,1.3
	C-180.6-339.1-180.1-338-180.1-336.8L-180.1-336.8L-180.1-336.8z M-180.6-307l-0.5,2.2c-1.6,0.6-2.9,1.1-3.9,1.4
	c-1,0.3-2.1,0.5-3.3,0.5c-2,0-3.5-0.5-4.6-1.4c-1.1-1-1.6-2.2-1.6-3.6c0-0.6,0-1.2,0.1-1.8c0.1-0.6,0.2-1.3,0.4-2l2-7.1
	c0.2-0.7,0.3-1.3,0.4-1.9c0.1-0.6,0.2-1.2,0.2-1.7c0-0.9-0.2-1.5-0.6-1.9c-0.4-0.4-1.1-0.5-2.1-0.5c-0.5,0-1.1,0.1-1.6,0.2
	c-0.5,0.2-1,0.3-1.4,0.5l0.5-2.2c1.3-0.5,2.6-1,3.8-1.4c1.2-0.4,2.4-0.6,3.4-0.6c1.9,0,3.4,0.5,4.5,1.4c1,0.9,1.6,2.2,1.6,3.6
	c0,0.3,0,0.9-0.1,1.6c-0.1,0.8-0.2,1.5-0.4,2.1l-2,7.1c-0.2,0.6-0.3,1.2-0.4,2c-0.1,0.7-0.2,1.3-0.2,1.7c0,0.9,0.2,1.6,0.6,1.9
	c0.4,0.4,1.2,0.5,2.2,0.5c0.5,0,1-0.1,1.7-0.3C-181.3-306.7-180.9-306.9-180.6-307L-180.6-307L-180.6-307z"/>
<path id="Shape_55_" sketch:type="MSShapeGroup" class="st14" d="M-223-210c0,19.3,15.7,35,35,35s35-15.7,35-35s-15.7-35-35-35
	S-223-229.3-223-210L-223-210L-223-210z M-218-210c0-16.6,13.4-30,30-30s30,13.4,30,30s-13.4,30-30,30S-218-193.4-218-210L-218-210
	L-218-210z"/>
<path id="Shape_56_" sketch:type="MSShapeGroup" class="st14" d="M-185-196.8c0,1.2-0.5,2.3-1.4,3.2c-0.9,0.9-2,1.3-3.3,1.3
	c-1.3,0-2.4-0.4-3.3-1.3c-0.9-0.9-1.4-1.9-1.4-3.2c0-1.2,0.5-2.3,1.4-3.2c0.9-0.9,2-1.4,3.3-1.4c1.2,0,2.4,0.4,3.3,1.4
	C-185.4-199.1-185-198-185-196.8L-185-196.8L-185-196.8z M-176.2-218.3c0,3.3-1.1,5.9-3.4,8c-2.2,2-5.2,3.2-9,3.5l-0.1,3.3h-2.2
	v-9.5c2.4-0.2,4.2-0.9,5.5-2.2c1.3-1.3,2-3.1,2-5.3c0-1.8-0.5-3.2-1.4-4.3c-0.9-1.1-2.2-1.6-3.8-1.6c-0.7,0-1.3,0.1-1.8,0.2
	c-0.5,0.1-1,0.4-1.5,0.6c0.2,0.5,0.4,1.2,0.6,2c0.2,0.8,0.3,1.6,0.3,2.3c0,1.1-0.4,2-1.1,2.6c-0.7,0.6-1.8,0.9-3.1,0.9
	c-1.2,0-2.2-0.4-2.9-1.2c-0.7-0.8-1.1-1.8-1.1-2.9c0-1.9,1.1-3.4,3.2-4.8c2.1-1.3,4.7-1.9,7.7-1.9c3.6,0,6.4,0.9,8.7,2.8
	C-177.3-223.8-176.2-221.4-176.2-218.3L-176.2-218.3L-176.2-218.3z"/>
<path id="Shape_57_" sketch:type="MSShapeGroup" class="st14" d="M-223-100c0,19.3,15.7,35,35,35s35-15.7,35-35s-15.7-35-35-35
	S-223-119.3-223-100L-223-100L-223-100z M-218-100c0-16.6,13.4-30,30-30s30,13.4,30,30s-13.4,30-30,30S-218-83.4-218-100L-218-100
	L-218-100z"/>
<path id="Shape_58_" sketch:type="MSShapeGroup" class="st14" d="M-183.6-87.1c0,1.2-0.5,2.3-1.4,3.2c-0.9,0.9-2,1.3-3.3,1.3
	c-1.3,0-2.4-0.4-3.3-1.3c-0.9-0.9-1.4-1.9-1.4-3.2c0-1.2,0.5-2.3,1.4-3.2c0.9-0.9,2-1.4,3.3-1.4c1.2,0,2.3,0.5,3.3,1.4
	C-184-89.4-183.6-88.4-183.6-87.1L-183.6-87.1L-183.6-87.1z M-183.5-114.1c0,0.7-0.1,1.6-0.4,2.6c-0.2,1.1-0.5,2.4-0.9,3.9
	c-0.3,1.4-0.7,3.1-1.2,5.2c-0.4,2.1-0.9,4.7-1.4,7.8h-1.9c-0.5-3.1-1-5.7-1.4-7.8c-0.4-2.1-0.8-3.8-1.2-5.2
	c-0.3-1.3-0.6-2.5-0.9-3.8c-0.3-1.2-0.4-2.1-0.4-2.8c0-1.2,0.5-2.3,1.4-3.2c0.9-0.9,2-1.3,3.3-1.3c1.3,0,2.4,0.4,3.3,1.3
	C-184-116.4-183.5-115.4-183.5-114.1L-183.5-114.1L-183.5-114.1z"/>
<linearGradient id="Rectangle-path_1_" gradientUnits="userSpaceOnUse" x1="-442.3656" y1="-4404.4375" x2="-442.3656" y2="-4405.4375" gradientTransform="matrix(160 0 0 16 70633.5 70567)">
	<stop  offset="0" style="stop-color:#FFFFFF;stop-opacity:0"/>
	<stop  offset="1" style="stop-color:#FFFFFF"/>
</linearGradient>
<rect id="Rectangle-path_10_" x="-225" y="80" sketch:type="MSShapeGroup" class="st15" width="160" height="16">
</rect>
<linearGradient id="Rectangle-path_2_" gradientUnits="userSpaceOnUse" x1="-442.3656" y1="-4404.4375" x2="-442.3656" y2="-4405.4375" gradientTransform="matrix(160 0 0 16 70633.5 70627)">
	<stop  offset="0" style="stop-color:#FFFFFF"/>
	<stop  offset="1" style="stop-color:#FFFFFF;stop-opacity:0"/>
</linearGradient>
<rect id="Rectangle-path_11_" x="-225" y="140" sketch:type="MSShapeGroup" class="st16" width="160" height="16">
</rect>
<g id="Group_20_" transform="translate(11.000000, 2686.000000)" sketch:type="MSShapeGroup">
	<path id="Shape_59_" class="st17" d="M-175-2684c0-1.2-0.8-2-2-2h-20l-4-4h-21c-1.2,0-2,0.8-2,2v6h49V-2684L-175-2684z M-225-2680
		v31.8c0,1.2,1,2.2,2.2,2.2h47.7c1.2,0,2.2-1,2.2-2.2v-31.8H-225L-225-2680z"/>
	<path id="Shape_60_" class="st0" d="M-198.1-2673.3l-3.3,3.3c1.2-0.1,2.4,0.1,3.6,0.6l1.8-1.8c1.1-1.2,3-1.2,4.2,0
		c1.2,1.1,1.2,3,0,4.2l-4.2,4.2c-1.2,1.1-3,1.1-4.2,0c-0.4-0.4-1-0.4-1.4,0l-0.7,0.7c-0.4,0.4-0.4,1,0,1.4c2.3,2.3,6.1,2.3,8.4,0
		l4.2-4.2c2.3-2.3,2.3-6.1,0-8.4C-192-2675.6-195.8-2675.6-198.1-2673.3L-198.1-2673.3L-198.1-2673.3z"/>
	<path id="Shape_61_" class="st0" d="M-205.1-2666.3l-4.2,4.2c-2.3,2.3-2.3,6.1,0,8.4c2.3,2.3,6.1,2.3,8.4,0l3.3-3.3
		c-1.2,0.1-2.4-0.1-3.6-0.6l-1.8,1.8c-1.2,1.1-3,1.1-4.2,0s-1.1-3,0-4.2l4.2-4.2c1-1,2.5-1.1,3.7-0.4l0,0c0.2,0.1,0.3,0.2,0.5,0.4
		c0.4,0.4,1,0.4,1.4,0l0.7-0.7c0.4-0.4,0.4-1,0-1.4C-199-2668.6-202.8-2668.6-205.1-2666.3L-205.1-2666.3L-205.1-2666.3z"/>
</g>
<path id="Shape_62_" sketch:type="MSShapeGroup" class="st18" d="M-165,245.9l24.7,41.1h-49.4L-165,245.9L-165,245.9z M-165,207
	l-60,100h120L-165,207L-165,207z"/>
<g id="Group_21_" transform="translate(17.000000, 3094.000000)" sketch:type="MSShapeGroup">
	<path id="Shape_63_" class="st19" d="M-185.4-2667.5c-0.6-0.6-5.8-3-6.7-3.3c0-0.2-0.1-0.9-0.4-1.1c-0.3-0.1-1.1-0.5-1.1-0.5
		c0-0.1-0.1-0.2-0.1-0.4c0-0.2,0.1-0.4,0.1-0.4c0.1-0.2,0.5-0.8,0.6-1.2c0.1-0.4,0.2-1.5,0.2-1.5c0-0.2,0.3-0.3,0.5-0.4
		c0.4-0.2,0.7-2.4,0.7-2.4c0-0.8-0.3-0.4-0.3-1v-2c0-2.4-2.1-3.8-4.5-3.8h-0.1c-2.5,0-4.3,1.3-4.3,3.8v2c0,0.5-0.3,0.2-0.3,1
		c0,0,0.3,2.3,0.7,2.4c0.2,0.1,0.5,0.2,0.5,0.4c0,0,0.1,1.1,0.2,1.5c0.1,0.4,0.5,0.9,0.7,1.2c0,0,0.1,0.2,0.1,0.4
		c0,0.2-0.1,0.4-0.1,0.4c0,0-0.9,0.4-1.1,0.5c-0.3,0.1-0.4,0.9-0.4,1.1c-0.2,0.1-0.6,0.2-1,0.4c2.5,1.1,5.6,2.6,6.3,3.4
		c0.2,0.2,0.8,0.9,0.9,3.9h8.3c0.6,0,1.1-0.5,1.1-1.1v-0.3C-185-2664.5-185-2667.1-185.4-2667.5L-185.4-2667.5L-185.4-2667.5z"/>
	<path id="Shape_64_" class="st0" d="M-196.2-2666.2c-0.8-0.8-7.5-3.9-8.7-4.3c0-0.3-0.1-1.2-0.5-1.4c-0.3-0.1-1.5-0.7-1.5-0.7
		c0-0.1-0.1-0.3-0.1-0.6c0-0.3,0.1-0.5,0.1-0.5c0.2-0.3,0.7-1,0.8-1.5c0.2-0.6,0.3-1.9,0.3-1.9c0-0.3,0.4-0.4,0.7-0.6
		c0.5-0.2,0.9-3.2,0.9-3.2c0-1-0.4-0.6-0.4-1.2v-2.6c0-3.2-2.7-4.9-5.9-4.9h-0.1c-3.2,0-5.6,1.7-5.6,4.9v2.6c0,0.7-0.4,0.3-0.4,1.2
		c0,0,0.4,2.9,0.9,3.2c0.3,0.1,0.7,0.3,0.7,0.6c0,0,0.2,1.4,0.3,1.9c0.1,0.5,0.7,1.2,0.8,1.5c0,0,0.1,0.3,0.1,0.5
		c0,0.3-0.1,0.5-0.1,0.6c0,0-1.1,0.5-1.4,0.7c-0.4,0.2-0.5,1.1-0.5,1.4c-1.3,0.4-8,3.5-8.7,4.3c-0.5,0.6-0.5,3.9-0.5,3.9v0.4
		c0,0.8,0.6,1.4,1.4,1.4h26.6c0.8,0,1.4-0.6,1.4-1.4v-0.4C-195.7-2662.3-195.7-2665.6-196.2-2666.2L-196.2-2666.2L-196.2-2666.2z"/>
</g>
<path id="Shape_65_" sketch:type="MSShapeGroup" class="st20" d="M-211.6,498l2.3-2.3c0.4-0.4,0.4-1,0-1.4c-0.4-0.4-1-0.4-1.4,0
	l-2.3,2.3l-2.3-2.3c-0.4-0.4-1-0.4-1.4,0c-0.4,0.4-0.4,1,0,1.4l2.3,2.3l-2.3,2.3c-0.4,0.4-0.4,1,0,1.4c0.2,0.2,0.5,0.3,0.7,0.3
	s0.5-0.1,0.7-0.3l2.3-2.3l2.3,2.3c0.2,0.2,0.5,0.3,0.7,0.3s0.5-0.1,0.7-0.3c0.4-0.4,0.4-1,0-1.4L-211.6,498L-211.6,498z"/>
<path id="Shape_66_" sketch:type="MSShapeGroup" class="st21" d="M-217.7-573c-0.6-0.6-1.5-1-2.3-1h16c-0.9,0-1.7,0.4-2.3,1
	l-4.5,4.5c-0.6,0.7-1.7,0.7-2.3,0L-217.7-573L-217.7-573z"/>
<circle id="Oval_1_" sketch:type="MSShapeGroup" class="st0" cx="-219" cy="-544" r="1">
</circle>
<path id="Shape_67_" sketch:type="MSShapeGroup" class="st0" d="M-219.9-546c-0.1-0.3,0-0.5,0-0.7c0.1-0.2,0.2-0.4,0.3-0.6
	c0.1-0.2,0.2-0.3,0.4-0.4l0.4-0.4c0.1-0.1,0.2-0.2,0.3-0.4c0.1-0.1,0.1-0.3,0.1-0.4c0-0.2-0.1-0.4-0.2-0.6c-0.2-0.1-0.4-0.2-0.6-0.2
	c-0.2,0-0.5,0-0.6,0.2c-0.2,0.1-0.4,0.2-0.6,0.4l-1-0.9c0.3-0.3,0.6-0.6,1-0.8c0.4-0.2,0.8-0.3,1.3-0.3c0.3,0,0.7,0,0.9,0.1
	c0.3,0.1,0.6,0.2,0.8,0.4c0.2,0.2,0.4,0.4,0.5,0.6c0.1,0.2,0.2,0.5,0.2,0.8c0,0.3-0.1,0.5-0.1,0.7c-0.1,0.2-0.2,0.4-0.4,0.5
	c-0.1,0.2-0.3,0.3-0.4,0.4c-0.2,0.1-0.3,0.3-0.4,0.4c-0.1,0.1-0.2,0.3-0.3,0.5s-0.1,0.4-0.1,0.6L-219.9-546L-219.9-546L-219.9-546
	L-219.9-546z"/>
<g id="Group_22_" transform="translate(5.000000, 499.000000)" sketch:type="MSShapeGroup">
	<rect id="Rectangle-path_12_" x="-225" y="-2687" class="st0" width="2" height="5"/>
	<rect id="Rectangle-path_13_" x="-225" y="-2690" class="st0" width="2" height="2"/>
</g>
<g id="Group_23_" transform="translate(131.000000, 3182.000000)" sketch:type="MSShapeGroup">
	<path id="Shape_68_" class="st0" d="M-210.2-2680.9c-0.2-0.3-2.5-1.3-3-1.5c0-0.1-0.1-0.4-0.2-0.5c-0.1,0-0.5-0.2-0.5-0.2
		c0,0,0-0.1-0.1-0.2c0-0.1,0.1-0.2,0.1-0.2c0.1-0.1,0.2-0.3,0.3-0.5c0.1-0.2,0.1-0.7,0.1-0.7c0-0.1,0.1-0.1,0.2-0.2
		c0.2-0.1,0.3-1.1,0.3-1.1c0-0.3-0.1-0.2-0.1-0.4v-0.9c0-1.1-0.9-1.8-2-1.8h0c-1.1,0-2,0.7-2,1.8v0.9c0,0.2-0.1,0.1-0.1,0.4
		c0,0,0.1,1,0.3,1.1c0.1,0.1,0.2,0.1,0.2,0.2c0,0,0.1,0.5,0.1,0.7c0,0.2,0.2,0.4,0.3,0.5c0,0,0.1,0.1,0.1,0.2c0,0.1-0.1,0.2-0.1,0.2
		c0,0-0.4,0.2-0.5,0.2c-0.1,0.1-0.2,0.4-0.2,0.5c-0.4,0.1-2.7,1.2-3,1.5c-0.2,0.2-0.2,1.3-0.2,1.3v0.1c0,0.3,0.2,0.5,0.5,0.5h9.1
		c0.3,0,0.5-0.2,0.5-0.5v-0.1C-210-2679.6-210-2680.7-210.2-2680.9L-210.2-2680.9L-210.2-2680.9z"/>
	<g id="Shape_69_" transform="translate(0.000000, 2.000000)">
		<path id="Shape_28_" class="st0" d="M-220.5-2683.6c0.3-0.3,1.2-0.7,2-1.1c0-0.1-0.1-0.3-0.1-0.4c-0.1,0-0.4-0.2-0.4-0.2
			c0,0,0-0.1,0-0.1c0-0.1,0-0.1,0-0.1c0-0.1,0.2-0.3,0.2-0.4c0-0.1,0.1-0.5,0.1-0.5c0-0.1,0.1-0.1,0.2-0.1c0.1-0.1,0.2-0.9,0.2-0.9
			c0-0.3-0.1-0.1-0.1-0.3v-0.7c0-0.9-0.7-1.4-1.6-1.4h0c-0.9,0-1.6,0.6-1.6,1.4v0.7c0,0.2-0.1,0.1-0.1,0.3c0,0,0.1,0.8,0.2,0.9
			c0.1,0,0.2,0.1,0.2,0.1c0,0,0.1,0.4,0.1,0.5c0,0.1,0.2,0.3,0.2,0.4c0,0,0,0.1,0,0.1c0,0.1,0,0.1,0,0.1c0,0-0.3,0.1-0.4,0.2
			c-0.1,0.1-0.1,0.3-0.1,0.4c-0.4,0.1-2.2,1-2.4,1.2c-0.1,0.2-0.1,1.1-0.1,1.1v0.1c0,0.2,0.2,0.4,0.4,0.4h2.6
			C-220.9-2683.2-220.7-2683.5-220.5-2683.6L-220.5-2683.6L-220.5-2683.6z"/>
		<path id="Shape_29_" class="st0" d="M-206.1-2683.6c-0.2-0.2-2-1.1-2.4-1.2c0-0.1,0-0.3-0.1-0.4c-0.1,0-0.4-0.2-0.4-0.2
			c0,0,0-0.1,0-0.1c0-0.1,0-0.1,0-0.1c0-0.1,0.2-0.3,0.2-0.4c0-0.1,0.1-0.5,0.1-0.5c0-0.1,0.1-0.1,0.2-0.1c0.1-0.1,0.2-0.9,0.2-0.9
			c0-0.3-0.1-0.1-0.1-0.3v-0.7c0-0.9-0.7-1.4-1.6-1.4h0c-0.9,0-1.6,0.6-1.6,1.4v0.7c0,0.2-0.1,0.1-0.1,0.3c0,0,0.1,0.8,0.2,0.9
			c0.1,0,0.2,0.1,0.2,0.1c0,0,0.1,0.4,0.1,0.5c0,0.1,0.2,0.3,0.2,0.4c0,0,0,0.1,0,0.1c0,0.1,0,0.1,0,0.1c0,0-0.3,0.1-0.4,0.2
			c-0.1,0-0.1,0.2-0.1,0.3c0.8,0.4,1.7,0.9,2,1.1c0.1,0.1,0.4,0.4,0.5,1.6h2.6c0.2,0,0.4-0.2,0.4-0.4v-0.1
			C-206-2682.5-206-2683.4-206.1-2683.6L-206.1-2683.6L-206.1-2683.6z"/>
	</g>
</g>
<g id="Group_24_" transform="translate(10.000000, 3219.000000)" sketch:type="MSShapeGroup">
	<path id="Shape_70_" class="st20" d="M-225-2687v9h16v-9H-225L-225-2687z M-221.1-2680h-1.6c-0.1,0-0.3-0.1-0.3-0.2v-0.1
		c0,0,0-0.6,0.1-0.6c0.1-0.1,1.2-0.6,1.5-0.7c0,0,0-0.2,0.1-0.2l0.2-0.1c0,0,0-0.1,0-0.1c0,0,0-0.1,0-0.1c0-0.1-0.1-0.2-0.1-0.2
		c0-0.1-0.1-0.3-0.1-0.3c0-0.1-0.1-0.1-0.1-0.1c-0.1,0-0.2-0.5-0.2-0.5c0-0.2,0-0.1,0-0.2v-0.4c0-0.5,0.6-0.9,1.1-0.9h0
		c0.5,0,1.1,0.3,1.1,0.9v0.4v0.2c0,0-0.1,0.5-0.2,0.5c-0.1,0-0.1,0-0.1,0.1c0,0,0,0.2-0.1,0.3c0,0.1-0.1,0.2-0.1,0.2
		c0,0,0,0.1,0,0.1c0,0,0,0.1,0,0.1l0.2,0.1c0.1,0,0.1,0.2,0.1,0.2l0.1,0c-0.5,0.2-1.2,0.6-1.3,0.7
		C-220.9-2680.8-221.1-2680.7-221.1-2680L-221.1-2680L-221.1-2680z M-213.7-2679.9c0,0.1-0.2,0.9-0.3,0.9h-5.9
		c-0.2,0-0.3-0.7-0.3-0.9v-0.1c0,0,0-0.7,0.1-0.9c0.2-0.2,1.7-0.9,1.9-0.9c0-0.1,0-0.3,0.1-0.3c0.1,0,0.3-0.1,0.3-0.1
		c0,0,0-0.1,0-0.1c0-0.1,0-0.1,0-0.1c0-0.1-0.2-0.2-0.2-0.3c0-0.1-0.1-0.4-0.1-0.4c0-0.1-0.1-0.1-0.2-0.1c-0.1-0.1-0.2-0.7-0.2-0.7
		c0-0.2,0.1-0.1,0.1-0.3v-0.6c0-0.7,0.6-1.1,1.4-1.1h0c0.7,0,1.3,0.4,1.3,1.1v0.6c0,0.1,0.1,0.1,0.1,0.3c0,0-0.1,0.6-0.2,0.7
		c-0.1,0-0.2,0.1-0.2,0.1c0,0,0,0.3-0.1,0.4c0,0.1-0.2,0.3-0.2,0.3c0,0,0,0.1,0,0.1c0,0.1,0,0.1,0,0.1c0,0,0.2,0.1,0.3,0.1
		c0.1,0,0.1,0.2,0.1,0.3c0.3,0.1,1.8,0.8,1.9,0.9c0.1,0.1,0.1,0.9,0.1,0.9L-213.7-2679.9L-213.7-2679.9z M-211-2680.2
		c0,0.1-0.2,0.2-0.3,0.2h-1.6c0-0.7-0.1-0.8-0.2-0.9c-0.1-0.1-0.8-0.5-1.3-0.7l0.1,0c0,0,0-0.2,0.1-0.2l0.2-0.1c0,0,0-0.1,0-0.1
		c0,0,0-0.1,0-0.1c0-0.1-0.1-0.2-0.1-0.2c0-0.1-0.1-0.3-0.1-0.3c0-0.1-0.1-0.1-0.1-0.1c-0.1,0-0.2-0.5-0.2-0.5v-0.2v-0.4
		c0-0.5,0.6-0.9,1.1-0.9h0c0.5,0,1.1,0.3,1.1,0.9v0.4c0,0.1,0,0,0,0.2c0,0-0.1,0.5-0.2,0.5c0,0-0.1,0-0.1,0.1c0,0,0,0.2-0.1,0.3
		c0,0.1-0.1,0.2-0.1,0.2c0,0,0,0.1,0,0.1c0,0,0,0.1,0,0.1l0.2,0.1c0.1,0,0.1,0.2,0.1,0.2c0.2,0.1,1.3,0.6,1.5,0.7
		C-211-2680.8-211-2680.3-211-2680.2L-211-2680.2L-211-2680.2L-211-2680.2z"/>
	<path id="Shape_71_" class="st20" d="M-210-2689h-7v-1h-8v2h15V-2689L-210-2689z"/>
</g>
<g id="Group_25_" transform="translate(10.000000, 3259.000000)" sketch:type="MSShapeGroup">
	<path id="Shape_72_" class="st0" d="M-225-2687v9h16v-9H-225L-225-2687z M-221.1-2680h-1.6c-0.1,0-0.3-0.1-0.3-0.2v-0.1
		c0,0,0-0.6,0.1-0.6c0.1-0.1,1.2-0.6,1.5-0.7c0,0,0-0.2,0.1-0.2l0.2-0.1c0,0,0-0.1,0-0.1c0,0,0-0.1,0-0.1c0-0.1-0.1-0.2-0.1-0.2
		c0-0.1-0.1-0.3-0.1-0.3c0-0.1-0.1-0.1-0.1-0.1c-0.1,0-0.2-0.5-0.2-0.5c0-0.2,0-0.1,0-0.2v-0.4c0-0.5,0.6-0.9,1.1-0.9h0
		c0.5,0,1.1,0.3,1.1,0.9v0.4v0.2c0,0-0.1,0.5-0.2,0.5c-0.1,0-0.1,0-0.1,0.1c0,0,0,0.2-0.1,0.3c0,0.1-0.1,0.2-0.1,0.2
		c0,0,0,0.1,0,0.1c0,0,0,0.1,0,0.1l0.2,0.1c0.1,0,0.1,0.2,0.1,0.2l0.1,0c-0.5,0.2-1.2,0.6-1.3,0.7
		C-220.9-2680.8-221.1-2680.7-221.1-2680L-221.1-2680L-221.1-2680z M-213.7-2679.9c0,0.1-0.2,0.9-0.3,0.9h-5.9
		c-0.2,0-0.3-0.7-0.3-0.9v-0.1c0,0,0-0.7,0.1-0.9c0.2-0.2,1.7-0.9,1.9-0.9c0-0.1,0-0.3,0.1-0.3c0.1,0,0.3-0.1,0.3-0.1
		c0,0,0-0.1,0-0.1c0-0.1,0-0.1,0-0.1c0-0.1-0.2-0.2-0.2-0.3c0-0.1-0.1-0.4-0.1-0.4c0-0.1-0.1-0.1-0.2-0.1c-0.1-0.1-0.2-0.7-0.2-0.7
		c0-0.2,0.1-0.1,0.1-0.3v-0.6c0-0.7,0.6-1.1,1.4-1.1h0c0.7,0,1.3,0.4,1.3,1.1v0.6c0,0.1,0.1,0.1,0.1,0.3c0,0-0.1,0.6-0.2,0.7
		c-0.1,0-0.2,0.1-0.2,0.1c0,0,0,0.3-0.1,0.4c0,0.1-0.2,0.3-0.2,0.3c0,0,0,0.1,0,0.1c0,0.1,0,0.1,0,0.1c0,0,0.2,0.1,0.3,0.1
		c0.1,0,0.1,0.2,0.1,0.3c0.3,0.1,1.8,0.8,1.9,0.9c0.1,0.1,0.1,0.9,0.1,0.9L-213.7-2679.9L-213.7-2679.9z M-211-2680.2
		c0,0.1-0.2,0.2-0.3,0.2h-1.6c0-0.7-0.1-0.8-0.2-0.9c-0.1-0.1-0.8-0.5-1.3-0.7l0.1,0c0,0,0-0.2,0.1-0.2l0.2-0.1c0,0,0-0.1,0-0.1
		c0,0,0-0.1,0-0.1c0-0.1-0.1-0.2-0.1-0.2c0-0.1-0.1-0.3-0.1-0.3c0-0.1-0.1-0.1-0.1-0.1c-0.1,0-0.2-0.5-0.2-0.5v-0.2v-0.4
		c0-0.5,0.6-0.9,1.1-0.9h0c0.5,0,1.1,0.3,1.1,0.9v0.4c0,0.1,0,0,0,0.2c0,0-0.1,0.5-0.2,0.5c0,0-0.1,0-0.1,0.1c0,0,0,0.2-0.1,0.3
		c0,0.1-0.1,0.2-0.1,0.2c0,0,0,0.1,0,0.1c0,0,0,0.1,0,0.1l0.2,0.1c0.1,0,0.1,0.2,0.1,0.2c0.2,0.1,1.3,0.6,1.5,0.7
		C-211-2680.8-211-2680.3-211-2680.2L-211-2680.2L-211-2680.2L-211-2680.2z"/>
	<path id="Shape_73_" class="st0" d="M-210-2689h-7v-1h-8v2h15V-2689L-210-2689z"/>
</g>
<g id="Group_26_" transform="translate(9.000000, 3294.000000)" sketch:type="MSShapeGroup" class="st2">
	<path id="Shape_74_" class="st22" d="M-84.2-2560.1l-8.9-5.9c-6-4-9.6-10.7-9.6-17.9c-0.1-16.4,0.1-6.4,0.1-26.9
		c0-23.4-12.5-54.6-36-62.8c-0.2-7.9-6.5-16.4-14.4-16.4s-14.2,8.6-14.4,16.4c-23.5,8.2-36,39.3-36,62.8c0,20.5,0.2,10.5,0.1,26.9
		c0,7.2-3.7,13.9-9.6,17.9l-8.9,5.9c-2,1.3-3.2,3.6-3.2,6v5.7c0,2.7,2.1,4.8,4.8,4.8h134.4c2.6,0,4.8-2.1,4.8-4.8v-5.7
		C-81-2556.6-82.2-2558.8-84.2-2560.1L-84.2-2560.1L-84.2-2560.1z"/>
	<path id="Shape_75_" class="st22" d="M-136.4-2541.2h-33.2c-1.5,0-2.6,1.3-2.4,2.8c1.3,9.3,9.3,16.4,19,16.4s17.7-7.1,19-16.4
		C-133.8-2539.9-134.9-2541.2-136.4-2541.2L-136.4-2541.2L-136.4-2541.2z"/>
</g>
<g id="Group_27_" transform="translate(13.000000, 3535.000000)" sketch:type="MSShapeGroup" class="st4">
	<path id="Shape_76_" class="st23" d="M-211.7-2685.7c-0.7-3.3-3.9-4.4-7.1-3.7c-2.9,0.6-5.7,2.9-5.6,6c0,1.4,0.9,2.5,2.1,3.2
		c0.1,0.1,0.2,0.2,0.2,0.3c0,0.6-0.4,1-1,1.1c-0.3,0.1-0.3,0.2,0,0.3c1.2,0.1,2.5,0,3.5-0.7c0.9,0.1,1.8,0.2,2.6,0.1
		C-213.3-2679.3-210.9-2682-211.7-2685.7L-211.7-2685.7L-211.7-2685.7z"/>
</g>
<path id="Shape_77_" sketch:type="MSShapeGroup" class="st0" d="M-198.7,919.3c-0.7-3.3-3.9-4.4-7.1-3.7c-2.9,0.6-5.7,2.9-5.6,6
	c0,1.4,0.9,2.5,2.1,3.2c0.1,0.1,0.2,0.2,0.2,0.3c0,0.6-0.4,1-1,1.1c-0.3,0.1-0.3,0.2,0,0.3c1.2,0.1,2.5,0,3.5-0.7
	c0.9,0.1,1.8,0.2,2.6,0.1C-200.3,925.7-197.9,923-198.7,919.3L-198.7,919.3L-198.7,919.3z"/>
<path id="Shape_79_" sketch:type="MSShapeGroup" class="st24" d="M-83,1035h8l-4,4L-83,1035L-83,1035z"/>
<path id="Shape_80_" sketch:type="MSShapeGroup" class="st0" d="M-214,1076.5l1.6,2.6h-3.3L-214,1076.5L-214,1076.5z M-214,1073
	l-5,8h10L-214,1073L-214,1073z"/>
<path id="Shape_81_" sketch:type="MSShapeGroup" class="st25" d="M-221.7,1141c-0.6-0.6-1.5-1-2.3-1h16c-0.9,0-1.7,0.4-2.3,1
	l-4.5,4.5c-0.6,0.7-1.7,0.7-2.3,0L-221.7,1141L-221.7,1141z"/>
<g id="Imported-Layers-9-_x2B_-Path_1_" transform="translate(9.000000, 1897.000000)" sketch:type="MSShapeGroup">
	<g id="Imported-Layers-9_1_">
		<path id="Fill-1_22_" class="st26" d="M-207-2675c0,0.6-0.4,1-1,1h-16c-0.6,0-1-0.4-1-1v-11h18V-2675"/>
		<path id="Fill-2_22_" class="st27" d="M-224-2690l6.1,0c0.3,0,0.5,0.1,0.7,0.3l0.9,0.9c0.6,0.7,1,0.8,1.3,0.8h7c0.6,0,1,0.4,1,1v1
			h-18v-3C-225-2689.6-224.6-2690-224-2690"/>
	</g>
</g>
<g id="Imported-Layers-9-_x2B_-Path_2_" transform="translate(9.000000, 1937.000000)" sketch:type="MSShapeGroup">
	<g id="Imported-Layers-9_2_">
		<path id="Fill-1_1_" class="st28" d="M-207-2675c0,0.6-0.4,1-1,1h-16c-0.6,0-1-0.4-1-1v-11h18V-2675"/>
		<path id="Fill-2_1_" class="st0" d="M-224-2690l6.1,0c0.3,0,0.5,0.1,0.7,0.3l0.9,0.9c0.6,0.7,1,0.8,1.3,0.8h7c0.6,0,1,0.4,1,1v1
			h-18v-3C-225-2689.6-224.6-2690-224-2690"/>
	</g>
</g>
<g id="Imported-Layers-9-_x2B_-Path_4_" transform="translate(9.000000, 1977.000000)" sketch:type="MSShapeGroup">
	<g id="Imported-Layers-9_4_">
		<path id="Fill-1_3_" class="st26" d="M-207-2675c0,0.6-0.4,1-1,1h-16c-0.6,0-1-0.4-1-1v-11h18V-2675"/>
		<path id="Fill-2_3_" class="st27" d="M-224-2690l6.1,0c0.3,0,0.5,0.1,0.7,0.3l0.9,0.9c0.6,0.7,1,0.8,1.3,0.8h7c0.6,0,1,0.4,1,1v1
			h-18v-3C-225-2689.6-224.6-2690-224-2690"/>
	</g>
</g>
<g id="Imported-Layers-9-_x2B_-Path_3_" transform="translate(9.000000, 2017.000000)" sketch:type="MSShapeGroup">
	<g id="Imported-Layers-9_3_">
		<path id="Fill-1_2_" class="st28" d="M-207-2675c0,0.6-0.4,1-1,1h-16c-0.6,0-1-0.4-1-1v-11h18V-2675"/>
		<path id="Fill-2_2_" class="st0" d="M-224-2690l6.1,0c0.3,0,0.5,0.1,0.7,0.3l0.9,0.9c0.6,0.7,1,0.8,1.3,0.8h7c0.6,0,1,0.4,1,1v1
			h-18v-3C-225-2689.6-224.6-2690-224-2690"/>
	</g>
</g>
<g id="Page-1_1_" transform="translate(9.000000, 1233.000000)" sketch:type="MSShapeGroup" class="st29">
	<g id="Imported-Layers-2_1_">
		<path id="Fill-1_6_" class="st30" d="M-95.3-2597.7c7.4-4.2,12.6-10.8,12.9-19.2c0.4-18.4-16.8-31.9-34.1-35.7
			c-2-0.4-4.1-0.8-6.1-1c-0.2-1.6-0.5-3.3-0.8-5c-5.6-25.9-31.1-34.5-55.9-29c-22.7,5-45.4,22.8-44.8,47
			c0.3,11.1,7.2,19.7,16.9,25.3c0.6,0.5,1.4,1.3,1.5,2.3c0.2,4.7-3.2,7.8-7.6,9c-2.3,0.6-2.8,1.8,0.1,2.1c9.3,0.6,20.2,0.3,27.8-5.9
			c7.1,1,14.1,1.5,21,1c2.8-0.2,5.5-0.6,8.1-1.1c5.1,9.6,15.6,15.9,28.7,16.8c5.2,0.4,10.6,0,15.9-0.7c5.8,4.7,14.1,5,21.2,4.5
			c2.2-0.2,1.8-1.1,0.1-1.6c-3.3-0.9-6-3.3-5.8-6.9C-96.4-2596.7-95.8-2597.3-95.3-2597.7"/>
		<path id="Fill-2_6_" class="st0" d="M-96.7-2599.5l0.1-0.1l0.1-0.1c9.5-5.4,11.6-12.5,11.8-17.4c0.4-17.2-16-29.9-32.4-33.5
			c-2.2-0.5-4.4-0.8-6.6-1c0.8,10-1.7,19.1-7.3,26.6c-5.6,7.5-13.9,12.8-23.9,15.3c0.7,1.3,1.5,2.6,2.4,3.9
			c5.4,7.2,14.1,11.5,24.7,12.3c1.3,0.1,2.7,0.2,4.1,0.2c3.4,0,7-0.3,11.3-0.9l1-0.1l0.7,0.6c3.3,2.7,8.1,4.1,14.4,4.2
			c-1.8-1.7-2.7-4-2.6-6.5C-98.6-2597.3-97.9-2598.6-96.7-2599.5"/>
		<path id="Fill-3_1_" class="st0" d="M-207.4-2604c-0.3,0-0.6,0-1,0c3.1-2.2,4.9-5.5,4.7-9.2c-0.1-1.5-0.9-2.9-2.3-4l-0.1-0.1
			l-0.1-0.1c-9.9-5.7-15.6-14-15.8-23.4c-0.5-23,21.2-39.9,43.1-44.7c4.6-1,9.2-1.5,13.7-1.5c20.9,0,35.7,10.8,39.6,28.8
			c2.7,12.4,0.6,23.6-6.1,32.6c-7.2,9.6-18.9,15.4-33,16.4c-1.8,0.1-3.6,0.2-5.5,0.2l0,0c-4.5,0-9.2-0.4-15-1.2l-1-0.1l-0.7,0.6
			C-191.7-2605.8-198.3-2604-207.4-2604"/>
	</g>
</g>
<g id="empty-cloud" transform="translate(4.000000, 899.000000)" sketch:type="MSShapeGroup">
	<path id="Fill-1_5_" class="st31" d="M-224.7-2617.5c0,18.4,14.1,33.4,31.4,33.4h89.9c17.3,0,31.4-15,31.4-33.4
		c0-17.9-13.3-32.6-30-33.4v-0.1c0-21.5-16.4-39-36.7-39c-13.1,0-24.6,7.3-31.1,18.3c-2.2-1-4.6-1.6-7.1-1.6c-9.9,0-18,8.6-18,19.1
		c0,1.1,0.1,2.2,0.2,3.2C-211.3-2650.3-224.7-2635.6-224.7-2617.5"/>
	<path id="Fill-2_5_" class="st0" d="M-193.2-2586.3c-16.2,0-29.3-14-29.3-31.2c0-16.9,12.4-30.6,28.2-31.2l2.4-0.1l-0.4-2.4
		c-0.1-0.8-0.2-1.8-0.2-2.9c0-9.4,7.1-17,15.8-17c2.1,0,4.2,0.5,6.2,1.4l1.8,0.8l1-1.7c6.3-10.8,17.3-17.2,29.3-17.2
		c19,0,34.5,16.5,34.5,36.8v2.1l2,0.1c15.7,0.8,27.9,14.5,27.9,31.2c0,17.2-13.1,31.2-29.3,31.2L-193.2-2586.3"/>
</g>
<g id="Fill-1-_x2B_-Fill-3" transform="translate(16.000000, 1070.000000)" sketch:type="MSShapeGroup">
	<path id="Fill-1_4_" class="st31" d="M-217.6-2583.3c-4,0-7.2-3.2-7.2-7.2v-76.9c0-0.9,0.4-1.8,1.1-2.4c-0.1-0.2-0.1-0.5-0.1-0.7
		v-12.3c0-4,3.2-7.2,7.2-7.2h49.8c0.8,0,1.6,0.3,2.2,0.9l7.8,7.8h46.8c0.1,0,0.2,0,0.3,0c3.8,0,6.9,3.2,6.9,7.2v3.6h2.1
		c1.7,0,3.1,1.4,3.1,3.1v76.9c0,4-3.2,7.2-7.2,7.2L-217.6-2583.3"/>
	<path id="Fill-2_4_" class="st0" d="M-99.7-2590.5c0,2.8-2.3,5.1-5.1,5.1h-112.8c-2.8,0-5.1-2.3-5.1-5.1v-76.9c0-0.6,0.5-1,1-1h121
		c0.6,0,1,0.5,1,1L-99.7-2590.5L-99.7-2590.5z M-221.7-2682.8c0-2.8,2.3-5.1,5.1-5.1h49.8c0.3,0,0.5,0.1,0.7,0.3l8.1,8.1
		c0.2,0.2,0.5,0.3,0.7,0.3h47.3c2.8-0.2,5.1,2.3,5.1,5.1v3.6c0,0.6-0.5,1-1,1h-114.8c-0.6,0-1-0.5-1-1V-2682.8L-221.7-2682.8z"/>
</g>
<path id="Fill-1_7_" sketch:type="MSShapeGroup" class="st31" d="M-150.4-1228.2c1.1,0,1.9,0.9,1.9,1.9v29c0,1.1-0.9,1.9-1.9,1.9
	h-17.5c-0.4,0-0.8,0-1.2,0c-7.9,0-13.3-1.9-16.4-5.8c-0.1-0.1-15.7-29.7-16.6-31.3c-0.9-1.6-1.7-3.4-2-5.6c-0.3-2.7-0.2-5.6,1.1-8
	l6.5-12.5l-7.8-6.1c-1.7-1.3-1.3-2.4,0.8-2.4l29.1-0.3c0.5,0,1.2,0.4,1.4,0.8l14.7,27.3c1,1.9,0.3,2.6-1.6,1.6l-8.4-4.5l-8.5,13.9
	L-150.4-1228.2L-150.4-1228.2z M-96.8-1266.7c-0.5-0.9-1.6-1.3-2.5-0.7l-24.7,15.1c-0.9,0.6-1.2,1.8-0.7,2.7l11.6,21.5h-13.3
	l-0.5-9.9c-0.1-2.1-1-2.3-2.1-0.5l-14.4,26c-0.3,0.5-0.3,1.2,0,1.7l14.6,26.6c1,1.9,1.9,1.7,2-0.5l0.4-10.8h9.9c0.3,0,0.6,0,0.9,0
	c5.2,0,10.7-3.4,13-7.8c0,0,13.1-24.8,15.3-29.1c2.2-4.3,3.2-9.4,2-12.1L-96.8-1266.7L-96.8-1266.7z M-98.1-1291
	c1.1-1.8,0.5-2.5-1.4-1.5l-9.3,4.9l-4.8-8.9c-2.1-4.7-7.9-8.6-13-8.6c-0.1,0-0.2,0-0.4,0c0,0-27.4,0.2-31.8,0.2
	c-4.3,0-9.6,0.8-12.1,4.4c-2.5,3.7-13.5,20.7-13.5,20.7c-0.6,0.9-0.3,2.1,0.6,2.6l24.9,14.8c0.9,0.5,2.1,0.2,2.7-0.7l12.7-20.8
	l6.4,11.9l-8,5.2c-1.8,1.1-1.5,2.1,0.6,2.1l29.1,0.3c0.5,0,1.2-0.4,1.5-0.8L-98.1-1291L-98.1-1291z"/>
<path id="Fill-2_7_" sketch:type="MSShapeGroup" class="st0" d="M-123.2-1250.6l12,22.3c11.8,0.7,26.4-3.7,23.7-15.6l-11.1-21.8
	L-123.2-1250.6L-123.2-1250.6z M-128.8-1235.1l-13,23.4l13,23.8l0.3-9.5h11.9c4.3,0.4,9.9-2.5,12-6.7l15.2-28.5
	c-5,5.1-11.5,6.4-18.9,6.4h-20L-128.8-1235.1L-128.8-1235.1z M-157.8-1264l13.2-21.6c-5.1-10.9-17.3-22.3-24.8-13.6l-13.3,20.5
	L-157.8-1264L-157.8-1264z M-141.8-1266.5l26.3,0.2l14-23.1l-8.3,4.3l-5.8-10.6c-1.8-4.1-7-7.7-11.6-7.5l-31.8,0.2
	c6.8,2,11,7.2,14.7,13.8l9.7,17.9L-141.8-1266.5L-141.8-1266.5z M-201.7-1265.2l7.7,6l-7.3,13.9c-3.6,6.4,2.6,12.7,6.6,14.8
	c3.9,2.1,10,2.4,15.6,2.3l10.2-16.7l7.7,4.2l-13.4-24.8L-201.7-1265.2L-201.7-1265.2z M-200.6-1233l16.6,30.6
	c3.3,4.2,9.6,5.2,16.1,5.1h17.5v-29l-33.1-0.2C-188.7-1226.2-195.4-1227.3-200.6-1233L-200.6-1233L-200.6-1233z"/>
<g id="Page-1" transform="translate(6.000000, 3670.000000)" sketch:type="MSShapeGroup">
	<path id="Fill-54" class="st32" d="M-224.6-2686c-0.8-1.5-0.4-2.9,1.1-3.8c0.5-0.3,1-0.3,1.4,0.2c0.2,0.2,0.9,1.1,1.1,1.3
		c0.6,0.7,0.6,1.2-0.5,2.2c-0.4,0.4-0.3,1,0,1.3l3.3,3.3c0.3,0.3,0.9,0.4,1.3,0c1-1,1.5-1,2.2-0.5c0.2,0.2,1.1,0.9,1.3,1.1
		c0.5,0.4,0.5,0.8,0.2,1.4c-0.9,1.5-2.3,2-3.8,1.1c-1.6-0.9-3.2-1.8-4.5-3.1C-222.8-2682.8-223.7-2684.4-224.6-2686L-224.6-2686z"/>
</g>
<path id="Fill-2-Copy-2" sketch:type="MSShapeGroup" class="st33" d="M-167-1127.2l-3.8,2.2l1.1-4.1l-3.3-2.5l4.3-0.5l1.7-3.9
	l1.7,3.9l4.3,0.5l-3.3,2.5l1.1,4.1L-167-1127.2"/>
<path id="Imported-Layers-Copy-27" sketch:type="MSShapeGroup" class="st34" d="M-128-1130.4l7.3-7.3c0.4-0.4,1-0.4,1.4,0
	s0.4,1,0,1.4l-6.3,6.3l6.3,6.3c0.4,0.4,0.4,1,0,1.4c-0.2,0.2-0.4,0.3-0.7,0.3c-0.3,0-0.5-0.1-0.7-0.3l-7.3-7.3V-1130.4"/>
<path id="Shape_30_" class="st35" d="M-195.5,1201.5l-17.6,10.8l4.8-20.1l-15.7-13.4l20.6-1.6l7.9-19.1l7.9,19.1l20.6,1.6
	l-15.7,13.4l4.8,20.1L-195.5,1201.5z"/>
<path id="Shape_31_" class="st36" d="M-195.5,1281.5l-17.6,10.8l4.8-20.1l-15.7-13.4l20.6-1.6l7.9-19.1l7.9,19.1l20.6,1.6
	l-15.7,13.4l4.8,20.1L-195.5,1281.5z"/>
<path id="Shape_32_" class="st37" d="M-219,1372h8c2.2,0,4,1.8,4,4v8c0,2.2-1.8,4-4,4h-8c-2.2,0-4-1.8-4-4v-8
	C-223,1373.8-221.2,1372-219,1372L-219,1372z"/>
<path id="Shape_33_" class="st38" d="M-211,1424h-8c-2.2,0-4,1.8-4,4v8c0,2.2,1.8,4,4,4h8c2.2,0,4-1.8,4-4v-8
	C-207,1425.8-208.8,1424-211,1424L-211,1424z M-216.1,1436l-3.9-4l1.7-1.8l2.2,2.2l4.3-4.4l1.7,1.8L-216.1,1436L-216.1,1436z"/>
<path id="Shape_34_" class="st39" d="M-216.3,1334.4h2c-0.3-2.6,2.8-3.5,2.8-6c0-2.2-1.5-3.3-3.7-3.3c-1.5,0-2.6,0.7-3.5,1.7
	l1.3,1.2c0.6-0.6,1.2-1,2.1-1c1,0,1.6,0.6,1.6,1.6C-213.6,1330.3-216.7,1331.5-216.3,1334.4L-216.3,1334.4z M-216.7,1337.4
	c0,0.9,0.6,1.6,1.5,1.6c0.8,0,1.5-0.7,1.5-1.6s-0.7-1.6-1.5-1.6C-216.1,1335.8-216.7,1336.5-216.7,1337.4L-216.7,1337.4z"/>
<path id="Shape_35_" class="st0" d="M-217.2,1477.8c-1.6-1.6-4.6-2.8-6.8-2.8h0h24c-2.2,0-5.3,1.3-6.8,2.8l-3.8,3.8
	c-0.8,0.8-2,0.8-2.8,0L-217.2,1477.8L-217.2,1477.8z"/>
<path id="Rectangle-17-Copy-4" sketch:type="MSShapeGroup" class="st40" d="M-122,1772h12l-6,6L-122,1772z"/>
<path id="Rectangle-17-Copy-5" sketch:type="MSShapeGroup" class="st40" d="M-122,1818h12l-6-6L-122,1818z"/>
<path id="Fill-1-Copy-8" sketch:type="MSShapeGroup" class="st41" d="M-179.9,1739.9c1.4,1.4,4.4,1.5,5.9,0.1l2.9-2.9
	c1.6-1.6,1.5-4.2-0.1-5.9c-1.6-1.7-4.3-1.7-5.9-0.1l-2.3,2.3c0.8,0,1.7,0.1,2.5,0.5l1.2-1.2c0.8-0.8,2.1-0.8,2.9,0.1
	c0.8,0.8,0.8,2.1,0.1,2.9l-2.9,2.9c-0.8,0.8-2.4,0.5-3.4,0.5L-179.9,1739.9z M-176.1,1736.1c-1.4-1.4-4.5-1.5-5.9-0.1l-2.9,2.9
	c-1.6,1.6-1.5,4.2,0.1,5.9c1.6,1.7,4.3,1.7,5.9,0.1l2.3-2.3c-0.8,0-1.7-0.1-2.5-0.5l-1.2,1.2c-0.8,0.8-2.1,0.8-2.9-0.1
	c-0.8-0.8-0.8-2.1-0.1-2.9l2.9-2.9c0.6-0.6,1.5-0.5,3.4-0.5c0,0,0,0,0,0L-176.1,1736.1z"/>
<path id="Fill-1-Copy-6" sketch:type="MSShapeGroup" class="st41" d="M-172,1703v-1c0-3.3-2.7-6-6-6s-6,2.7-6,6v1h2v-1
	c0-2.2,1.8-4,4-4s4,1.8,4,4v1H-172z M-184,1704c-0.6,0-1,0.5-1,1v6c0,0.5,0.4,1,1,1h12c0.6,0,1-0.5,1-1v-6c0-0.5-0.4-1-1-1H-184z
	 M-179,1706h2v4h-2V1706z"/>
<path id="Fill-1-Copy-7" sketch:type="MSShapeGroup" class="st41" d="M-178,1666c-4.4,0-8,3.6-8,8s3.6,8,8,8c4.4,0,8-3.6,8-8
	S-173.6,1666-178,1666z M-176.6,1669.6l0.2-0.1L-176.6,1669.6l0.3,0l-0.1,0.2l0.1,0.5l-0.1,0v0.2l-0.2,0.1l-0.1,0l0.3-0.2h0.1l0,0
	l-0.2,0l0-0.2l0.2,0l0-0.2l-0.2,0l-0.1-0.3L-176.6,1669.6L-176.6,1669.6z M-177,1670.2l0.1,0v-0.1l0.2,0l0.1,0.1l-0.1,0.1l0.1,0.1
	l-0.3,0.2l-0.1-0.1l0.1-0.2L-177,1670.2L-177,1670.2L-177,1670.2z M-179.8,1666.9l0.1,0l0.4,0.1l-0.2,0.1l-0.1,0.1l-0.3,0.1l-0.1,0
	l-0.2,0l0,0.1l-0.2,0.2l-0.3-0.1l0-0.1l0.2,0l0.2-0.2l0.4-0.1l-0.2-0.1l0-0.2L-179.8,1666.9L-179.8,1666.9z M-180.6,1667.2l0.3-0.1
	l-0.2,0.2l-0.2,0.1L-180.6,1667.2L-180.6,1667.2z M-180.8,1667.4l0,0.1l0.2,0.1l-0.1,0.1l-0.2-0.1L-180.8,1667.4L-180.8,1667.4z
	 M-181.2,1667.6l-0.1,0.1h0.3l-0.2,0.2l-0.4-0.1L-181.2,1667.6L-181.2,1667.6z M-181.8,1668.2l0.3-0.2l0.2,0.1l-0.1,0.2l0.2-0.1
	l0.2,0.2l0.1,0.3l-0.2,0.2l0.2,0.1l0.1,0.2l-0.3,0.2l-0.1-0.2l-0.2,0.1l0.1,0.3l-0.1,0.2l-0.1-0.2l-0.2,0l0.1,0.1l0,0.1l-0.2-0.2
	l-0.1-0.2l-0.2,0l0.3-0.1l0.5,0v-0.2l0-0.2l-0.2-0.5l-0.2,0.1l-0.3-0.1L-181.8,1668.2L-181.8,1668.2z M-182.8,1668.2
	c0.2-0.2,0.5-0.4,0.7-0.5l-0.2,0.2l0.2,0l-0.3,0.2l-0.1,0.2l-0.2,0.1l-0.2-0.1L-182.8,1668.2L-182.8,1668.2z M-179.6,1679l-0.1,0.2
	l-0.1,0l0.1,0.4l-0.1,0.4l-0.2,0l-0.3,0.2l0.1,0.4l-0.1,0.6h-0.2l0.2,0l0,0l-0.2,0l0,0.1l0.2,0l0.1,0.2l0.4,0.2
	c-0.2-0.1-0.4-0.1-0.6-0.2l-0.3-0.1l-0.5-0.4l-0.7-0.8l-0.4-0.6l-0.4-0.2l-1-1.1l0-0.2l-0.1-0.1l0.1-0.4l-0.1-0.5l0.3-0.3l0.3-0.1
	v-0.1l-0.3-0.1l-0.2,0.1l-0.2-0.1l-0.1,0l-0.2-0.2l-0.1-0.2l-0.2-0.2l-0.4-0.5l-0.1,0l-0.3-0.4l-0.1-0.9l0,0c0-2.2,1-4.2,2.6-5.6
	l-0.1,0.1l0.1,0.1l0.1-0.1l0.2,0.1l0.2-0.1l0.2-0.1l0-0.1l0.3-0.2l-0.2,0.2l-0.1,0.1l-0.1,0.1l0,0.2l0.3-0.2l0-0.1l0.2,0.2l-0.3,0.3
	l-0.2,0l-0.2,0.1l-0.2,0.1l-0.2,0.1l-0.2,0.1l-0.5,0.4l0.1,0.1l-0.1,0.2l0.2,0.1l0.1,0.3l0.2,0.1l-0.1,0.4l0.1,0.2l0.2-0.1l0.1-0.4
	l0.2-0.1l0.1-0.2l0-0.2l0.2-0.2l0.1-0.4l0.1,0l0.1,0l0.1,0.1l0.1,0.2l0.1,0l-0.1,0.3l0.1,0.1l0.2-0.1l0.2-0.2l0.1,0.4l-0.1,0.1
	l0.1,0.2l0.3,0.1l-0.4,0.1l0.3,0l0.1,0.1l0,0.2l-0.3,0.1l-0.2,0.1l-0.7-0.1l-0.5,0.4l0.5-0.2l0.2,0l-0.2,0.1l0.1,0.3l0.3,0.1
	l-0.5,0.2c0,0,0.2-0.2,0.1-0.2c-0.1,0-0.5,0.1-0.5,0.1l-0.1,0.2l-0.1,0.1l-0.3,0.1l0,0.2l-0.1,0l0,0.2v0.3l-0.3,0.2l-0.4,0.2l0,0.4
	l0,0.5l-0.2-0.3l0-0.2l-0.2-0.1l-0.4-0.1l0,0.1l-0.3-0.1l-0.2,0.2l-0.1,0.7l0.1,0.5l0.3,0.1l0.4-0.1v-0.2l0,0l-0.3,0.6l0.3,0.1
	l0,0.6l0.3,0.3l0.2,0l0.2,0.2l0.1,0.3l0.1,0l0-0.2l0.1,0l0.4,0.2l0.3,0l0.2,0.1l-0.1,0.1l0.2,0l0.3,0.3l0.5,0.1l0.4,0.5l-0.2,0.2
	l0.3,0.1l0.2-0.1l0.4,0.2l0,0.1l0.2-0.2l0.2,0h0.2l0.3,0.3l0.2,0.1l0.2,0.3L-179.6,1679L-179.6,1679z M-182.4,1669.1l0,0.2l-0.2,0
	l-0.1-0.1l0.2-0.2H-182.4L-182.4,1669.1z M-180.9,1671.6l-0.1,0.2l-0.5-0.1l0.4-0.4L-180.9,1671.6L-180.9,1671.6z M-182.6,1675.5
	h-0.2l0-0.1h0.2L-182.6,1675.5L-182.6,1675.5z M-182.9,1675.4h-0.3l-0.1-0.2l0.2,0L-182.9,1675.4L-182.9,1675.4z M-183.4,1675.1
	l-0.4,0l-0.4-0.4l-0.1,0.1v-0.1l0.2,0L-183.4,1675.1L-183.4,1675.1z M-178.2,1668l0.2,0l-0.1,0.1l-0.3,0.2l-0.1,0l-0.1,0.3l-0.3,0.2
	l-0.1-0.1l-0.3,0.3l0.1,0.1l-0.2,0.3l0,0.2l-0.1,0.2l-0.2,0.1l-0.1-0.2l-0.2,0.1l-0.2-0.2l-0.1-0.3l0.2,0l-0.1-0.1l-0.1,0.1l0-0.3
	l0.2-0.1l0.2-0.4l0-0.2l-0.2,0.1l0.1-0.2l0.1-0.4l-0.2-0.1l0.1-0.1l0.1-0.1l0.3-0.1l0.2-0.2l0.3,0l0.2,0h0.3l-0.1,0.2l0.2,0.2l0,0.2
	l-0.2,0l0.2,0.1l0.2,0l0.1,0.1l-0.4,0L-178.2,1668L-178.2,1668z M-180.2,1668.3l0.2-0.1l0,0.2L-180.2,1668.3L-180.2,1668.3
	L-180.2,1668.3z M-170.7,1674.2l-0.3,0.6l-0.1-0.1l-0.2-0.6l-0.5-0.9l0-0.1l-0.1,0.1l-0.2-0.2l0.3,0.7l0.4,0.9l0.2,0.2l0.1,0.3
	l0.3-0.2l-0.1,0.7l-0.4,0.7l-0.5,0.8l-0.1,0.5l-0.2,0.5l-0.6,0.4l0,0.1l-0.2,0.3l-0.4,0.2v0.1l-0.8,0.7l-0.4,0.1l0-0.1l0.2-0.2
	l-0.1-0.4l0.1-0.4l-0.1-0.4l0.2-0.4l0-0.4v-0.2l-0.3-0.5l0.2-0.2l0.1-0.3l-0.1-0.2l-0.4,0.1l0-0.1l-0.2-0.1l-0.5,0.2l-0.4,0
	l-0.6,0.1l-0.7-0.4l0-0.2l-0.3-0.2l-0.1,0l-0.2-0.3l0.1-0.2l0.1-0.5l-0.1-0.2l0.9-0.9l0.5-0.2v-0.2l0.3-0.5l0.3,0l0.4-0.2l1-0.2
	l0.1,0.1l-0.1,0.4l0.4,0l0.7,0.3l0.1-0.3l0.8,0.1l0.4-0.1l-0.1-0.7l-0.2,0.1l-0.2-0.1l0,0.2l-0.3-0.2l-0.1-0.3l-0.2,0l-0.2,0.1
	l0.1,0.2l0.2,0.1l-0.1,0.2l-0.2,0l-0.1-0.2l-0.2-0.2l0-0.2l-0.4-0.2l-0.3-0.1l0-0.1l-0.1,0.1l0,0.1l0.3,0.3l0.2,0l0.1,0.1l0.2,0.1
	l0,0.1l-0.1-0.1l-0.1,0l0.1,0.1l-0.2,0.1l0,0.2l-0.3-0.2l0.3,0l0.1-0.1l-0.1-0.2l-0.5-0.2l-0.3-0.3l-0.1,0l-0.1,0.2l-0.1,0l-0.1-0.1
	l-0.1,0l0,0.2l-0.2,0.1l-0.1,0.2l0-0.1l-0.2,0.2h-0.2l-0.2,0.2l-0.2,0l-0.2,0.1l0-0.2l-0.1,0l-0.1-0.1l0.1-0.2l0-0.2l-0.1-0.1l0.1,0
	l0.1-0.1l0.7,0l0.1-0.3l-0.2-0.2l-0.2,0v-0.2l0.3,0.2l0,0.1h0.1l0.3-0.4l0.2-0.4l0.3-0.2l-0.2-0.2l0.2-0.1l0,0.1l0,0.2l0.2,0l0.3,0
	l0.2-0.1l0.2,0l0.1-0.4l-0.1-0.5h0.1l0.1,0.3l0,0l-0.2-0.2l0.2-0.2h0.1l0.1,0l-0.2,0l-0.2,0.2l-0.4-0.4l0.1-0.3l-0.3-0.1l0,0.1
	l0.1,0.2l-0.2,0.2l0.3,0.2l0.3,0.1v0.2l-0.2,0l0,0.2l-0.1,0.1l-0.2,0.1l-0.1-0.2l-0.3-0.3l-0.2,0.2l-0.2-0.1l-0.2-0.5l0.2-0.2
	l0.1-0.2l0.1-0.5l0.3-0.2l0.5,0.2l0.4,0.1l0.2,0.2l-0.1,0.1l-0.3-0.1l0.2,0.2l0.3,0.4l-0.1,0.1h0.2l-0.1-0.5l0.1-0.2l-0.1-0.4
	l0.1-0.1l-0.1-0.2l0.1-0.1l0-0.1c1.9,1.2,3.2,3.1,3.5,5.4l-0.2,0l-0.1-0.2l-0.1,0.1l-0.3-0.4l-0.1,0.1l0.4,0.7l0.4-0.1v-0.2l0,0.2
	L-170.7,1674.2L-170.7,1674.2z"/>
<path id="Fill-1-Copy-5" sketch:type="MSShapeGroup" class="st41" d="M-146,1613c-6.7,0-13.3-2.5-18.4-7.6
	c-10.1-10.1-10.1-26.6,0-36.8c10.1-10.1,26.6-10.1,36.8,0c0.8,0.8,0.8,2,0,2.8c-0.8,0.8-2,0.8-2.8,0c-8.6-8.6-22.5-8.6-31.1,0
	c-8.6,8.6-8.6,22.5,0,31.1c8.6,8.6,22.5,8.6,31.1,0c0.8-0.8,2-0.8,2.8,0c0.8,0.8,0.8,2,0,2.8C-132.7,1610.5-139.3,1613-146,1613
	 M-146,1543c24.3,0,44,19.7,44,44s-19.7,44-44,44s-44-19.7-44-44S-170.3,1543-146,1543 M-146,1539c-26.5,0-48,21.5-48,48
	s21.5,48,48,48s48-21.5,48-48S-119.5,1539-146,1539"/>
<path id="Imported-Layers-4" sketch:type="MSShapeGroup" class="st42" d="M-106,1495.2c-0.2-0.3-0.6-0.3-0.8,0
	c-0.2,0.3-0.2,0.8,0,1.1l3.5,4.7l-3.5,4.7c-0.2,0.3-0.2,0.8,0,1.1c0.1,0.1,0.2,0.2,0.4,0.2c0.1,0,0.3-0.1,0.4-0.2l4-5.5v-0.6
	L-106,1495.2z"/>
<path id="Imported-Layers-4-Copy" sketch:type="MSShapeGroup" class="st42" d="M-183,1506.8c0.2,0.3,0.6,0.3,0.8,0
	c0.2-0.3,0.2-0.8,0-1.1l-3.5-4.7l3.5-4.7c0.2-0.3,0.2-0.8,0-1.1c-0.1-0.1-0.2-0.2-0.4-0.2c-0.1,0-0.3,0.1-0.4,0.2l-4,5.5v0.6
	L-183,1506.8z"/>
<path id="Fill-7-Copy-3" sketch:type="MSShapeGroup" class="st43" d="M-151,2069h-2v2h2v2h2v-2h2v-2h-2v-2h-2V2069z M-150.3,2078.9
	c-0.4-0.4-4.1-2.1-4.7-2.4c0-0.1-0.1-0.7-0.3-0.8c-0.2-0.1-0.8-0.4-0.8-0.4c0,0-0.1-0.2-0.1-0.3c0-0.2,0.1-0.3,0.1-0.3
	c0.1-0.2,0.4-0.5,0.5-0.8c0.1-0.3,0.2-1.1,0.2-1.1c0-0.2,0.2-0.2,0.4-0.3c0.3-0.1,0.5-1.8,0.5-1.8c0-0.5-0.2-0.3-0.2-0.7v-1.4
	c0-1.7-1.5-2.7-3.2-2.7h-0.1c-1.7,0-3.1,0.9-3.1,2.7v1.4c0,0.4-0.2,0.2-0.2,0.7c0,0,0.2,1.6,0.5,1.8c0.1,0.1,0.4,0.2,0.4,0.3
	c0,0,0.1,0.8,0.2,1.1c0.1,0.3,0.4,0.7,0.5,0.8c0,0,0.1,0.1,0.1,0.3c0,0.1-0.1,0.3-0.1,0.3c0,0-0.6,0.3-0.8,0.4
	c-0.2,0.1-0.3,0.6-0.3,0.8c-0.7,0.2-4.3,1.9-4.8,2.4c-0.3,0.3-0.3,2.1-0.3,2.1v0.2c0,0.4,0.3,0.8,0.7,0.8h14.5
	c0.4,0,0.8-0.4,0.8-0.8v-0.2C-150,2081-150,2079.2-150.3,2078.9z"/>
<path id="Fill-7-Copy-4" sketch:type="MSShapeGroup" class="st44" d="M-151,2028h-2v2h2v2h2v-2h2v-2h-2v-2h-2V2028z M-150.3,2037.9
	c-0.4-0.4-4.1-2.1-4.7-2.4c0-0.1-0.1-0.7-0.3-0.8c-0.2-0.1-0.8-0.4-0.8-0.4c0,0-0.1-0.2-0.1-0.3c0-0.2,0.1-0.3,0.1-0.3
	c0.1-0.2,0.4-0.5,0.5-0.8c0.1-0.3,0.2-1.1,0.2-1.1c0-0.2,0.2-0.2,0.4-0.3c0.3-0.1,0.5-1.8,0.5-1.8c0-0.5-0.2-0.3-0.2-0.7v-1.4
	c0-1.7-1.5-2.7-3.2-2.7h-0.1c-1.7,0-3.1,0.9-3.1,2.7v1.4c0,0.4-0.2,0.2-0.2,0.7c0,0,0.2,1.6,0.5,1.8c0.1,0.1,0.4,0.2,0.4,0.3
	c0,0,0.1,0.8,0.2,1.1c0.1,0.3,0.4,0.7,0.5,0.8c0,0,0.1,0.1,0.1,0.3c0,0.1-0.1,0.3-0.1,0.3c0,0-0.6,0.3-0.8,0.4
	c-0.2,0.1-0.3,0.6-0.3,0.8c-0.7,0.2-4.3,1.9-4.8,2.4c-0.3,0.3-0.3,2.1-0.3,2.1v0.2c0,0.4,0.3,0.8,0.7,0.8h14.5
	c0.4,0,0.8-0.4,0.8-0.8v-0.2C-150,2040-150,2038.2-150.3,2037.9z"/>
<g id="Rectangle-120-Copy-2" sketch:type="MSShapeGroup">
	<polygon class="st0" points="-152,2248 -152,2241 -154,2241 -154,2248 -161,2248 -161,2250 -154,2250 -154,2257 -152,2257 
		-152,2250 -145,2250 -145,2248 	"/>
</g>
<path id="Imported-Layers-Copy-7" sketch:type="MSShapeGroup" class="st45" d="M-152.3,2145.7c0.4-0.4,0.4-1,0-1.4
	c-0.4-0.4-1-0.4-1.4,0l-3.3,3.3l-3.3-3.3c-0.4-0.4-1-0.4-1.4,0c-0.4,0.4-0.4,1,0,1.4l3.3,3.3l-3.3,3.3c-0.4,0.4-0.4,1,0,1.4
	c0.2,0.2,0.4,0.3,0.7,0.3c0.3,0,0.5-0.1,0.7-0.3l3.3-3.3l3.3,3.3c0.2,0.2,0.4,0.3,0.7,0.3c0.3,0,0.5-0.1,0.7-0.3
	c0.4-0.4,0.4-1,0-1.4l-3.3-3.3L-152.3,2145.7z"/>
<g id="folder-copy" transform="translate(23.000000, 363.000000)" sketch:type="MSLayerGroup">
	<g id="Imported-Layers" sketch:type="MSShapeGroup">
		<path id="Fill-1" class="st46" d="M-136,1544.8c0,1.8-1.4,3.2-3.2,3.2h-51.6c-1.8,0-3.2-1.5-3.2-3.2V1506h58V1544.8"/>
		<path id="Fill-2" class="st47" d="M-190.8,1496h19.6c0.8,0,1.7,0.3,2.3,0.9l3,3.4c0.6,0.6,2,1.7,3.9,1.7h23c1.8,0,3,1.3,3,3v1h-58
			v-6.8C-194,1497.4-192.6,1496-190.8,1496"/>
	</g>
	
		<g id="Fill-4-Copy-_x2B_-Fill-4-Copy-2-_x2B_-Rectangle-601-Copy" transform="translate(9.000000, 23.000000)" sketch:type="MSShapeGroup">
		<path id="Fill-4-Copy" class="st0" d="M-157.6,1505H-171v-2h13.4l-5.4-5.8l1.5-1.2l7.5,8l-7.5,8l-1.5-1.2L-157.6,1505z"/>
		<path id="Fill-4-Copy-2" class="st0" d="M-190.4,1503h13.4v2h-13.4l5.4,5.8l-1.5,1.2l-7.5-8l7.5-8l1.5,1.2L-190.4,1503z"/>
		<rect id="Rectangle-601-Copy" x="-175" y="1503" class="st0" width="2" height="2"/>
	</g>
</g>
<path id="Rectangle-11" sketch:type="MSShapeGroup" class="st42" d="M-128.5,1961.4l4.3,4.4l10.7-10.9l1.5,1.6l-12.2,12.4l-5.8-6
	L-128.5,1961.4z"/>
<path id="Imported-Layers-Copy-14" sketch:type="MSShapeGroup" class="st19" d="M-143.4,2412.4c0.5-0.5,0.5-1.4,0-2s-1.4-0.5-2,0
	l-4.6,4.6l-4.6-4.6c-0.5-0.5-1.4-0.5-2,0c-0.5,0.5-0.5,1.4,0,2l4.6,4.6l-4.6,4.6c-0.5,0.5-0.5,1.4,0,2c0.3,0.3,0.6,0.4,1,0.4
	s0.7-0.1,1-0.4l4.6-4.6l4.6,4.6c0.3,0.3,0.6,0.4,1,0.4c0.4,0,0.7-0.1,1-0.4c0.5-0.5,0.5-1.4,0-2l-4.6-4.6L-143.4,2412.4z"/>
<g id="Page-1_2_" sketch:type="MSPage">
	<path id="Fill-1-Copy-4" sketch:type="MSShapeGroup" class="st0" d="M-208.9,2605.9c2.1,2.1,6.7,2.3,8.8,0.2l4.3-4.3
		c2.4-2.4,2.3-6.3-0.2-8.8c-2.5-2.5-6.4-2.6-8.8-0.2l-3.4,3.4c1.3-0.1,2.6,0.2,3.8,0.7l1.9-1.9c1.2-1.2,3.2-1.2,4.4,0.1
		c1.2,1.2,1.3,3.2,0.1,4.4l-4.3,4.3c-1.2,1.2-3.6,0.7-5.1,0.7L-208.9,2605.9z M-203.1,2600.1c-2.2-2.2-6.7-2.3-8.8-0.2l-4.3,4.3
		c-2.4,2.4-2.3,6.3,0.2,8.8c2.5,2.5,6.4,2.6,8.8,0.2l3.4-3.4c-1.3,0.1-2.6-0.2-3.8-0.7l-1.9,1.9c-1.2,1.2-3.2,1.2-4.4-0.1
		s-1.3-3.2-0.1-4.4l4.3-4.3c0.9-0.9,2.2-0.7,5.1-0.7c0,0,0,0,0,0L-203.1,2600.1z"/>
</g>
<g id="Imported-Layers-Copy-16" transform="translate(29.000000, 980.000000)" sketch:type="MSLayerGroup">
	<path id="Fill-1_9_" sketch:type="MSShapeGroup" class="st48" d="M-157-3377c-2.2,0-4-1.8-4-4s1.8-4,4-4s4,1.8,4,4
		S-154.8-3377-157-3377L-157-3377z M-157-3387c-5,0-8.2,4.3-10,6c1.8,1.7,5,6,10,6s8.2-4.3,10-6C-148.8-3382.7-152-3387-157-3387
		L-157-3387z"/>
	<path id="Fill-2_9_" sketch:type="MSShapeGroup" class="st45" d="M-155-3381c0,1.1-0.9,2-2,2s-2-0.9-2-2s0.9-2,2-2
		S-155-3382.1-155-3381"/>
</g>
<g id="Path-_x2B_-Oval-12-Copy" transform="translate(32.000000, 1042.000000)" sketch:type="MSLayerGroup">
	<path id="Path" sketch:type="MSShapeGroup" class="st48" d="M-163-3365l2,2l4-4l2,2l-6,6l-4-4L-163-3365z"/>
	<circle id="Oval-12" sketch:type="MSShapeGroup" class="st48" cx="-160" cy="-3363" r="8">
	</circle>
</g>
<g id="Group-Copy" transform="translate(30.000000, 1009.000000)" sketch:type="MSLayerGroup">
	<path id="Rectangle-67" sketch:type="MSShapeGroup" class="st48" d="M-165-3289l9.6-9.6c0.8-0.8,2.1-0.8,2.8,0l0.2,0.2
		c0.8,0.8,0.8,2.1,0,2.8l-9.6,9.6l-5,2L-165-3289z"/>
	<path id="Path-280" sketch:type="MSShapeGroup" class="st48" d="M-157-3297l3.1,3"/>
	<path id="Path-280-Copy" sketch:type="MSShapeGroup" class="st48" d="M-164-3290l3.1,3"/>
	
		<g id="Rectangle-68-Copy-_x2B_-Rectangle-68-Copy-2-_x2B_-Rectangle-68-Copy-3" transform="translate(5.000000, 15.000000)" sketch:type="MSShapeGroup">
		<rect id="Rectangle-68-Copy" x="-163" y="-3300" width="4" height="1"/>
		<rect id="Rectangle-68-Copy-2" x="-157" y="-3300" width="2" height="1"/>
		<rect id="Rectangle-68-Copy-3" x="-167" y="-3300" width="2" height="1"/>
	</g>
</g>
<g id="Imported-Layers-Copy-15" transform="translate(33.000000, 813.000000)" sketch:type="MSLayerGroup">
	<path id="Fill-1_8_" sketch:type="MSShapeGroup" class="st49" d="M-161-3246c-2.2,0-4-1.8-4-4s1.8-4,4-4s4,1.8,4,4
		S-158.8-3246-161-3246L-161-3246z M-161-3256c-5,0-8.2,4.3-10,6c1.8,1.7,5,6,10,6s8.2-4.3,10-6C-152.8-3251.7-156-3256-161-3256
		L-161-3256z"/>
	<path id="Fill-2_8_" sketch:type="MSShapeGroup" class="st0" d="M-159-3250c0,1.1-0.9,2-2,2s-2-0.9-2-2s0.9-2,2-2
		S-159-3251.1-159-3250"/>
</g>
<g id="Path-_x2B_-Oval-12" transform="translate(35.000000, 879.000000)" sketch:type="MSLayerGroup">
	<path id="Path_1_" sketch:type="MSShapeGroup" class="st49" d="M-166-3382l2,2l4-4l2,2l-6,6l-4-4L-166-3382z"/>
	<circle id="Oval-12_1_" sketch:type="MSShapeGroup" class="st49" cx="-163" cy="-3380" r="8">
	</circle>
</g>
<g id="Group-Copy-5" transform="translate(35.000000, 845.000000)" sketch:type="MSLayerGroup">
	<path id="Rectangle-67_1_" sketch:type="MSShapeGroup" class="st49" d="M-168-3313l9.6-9.6c0.8-0.8,2.1-0.8,2.8,0l0.2,0.2
		c0.8,0.8,0.8,2.1,0,2.8l-9.6,9.6l-5,2L-168-3313z"/>
	<path id="Path-280_1_" sketch:type="MSShapeGroup" class="st49" d="M-160-3321l3.1,3"/>
	<path id="Path-280-Copy_1_" sketch:type="MSShapeGroup" class="st49" d="M-167-3314l3.1,3"/>
	
		<g id="Rectangle-68-Copy-_x2B_-Rectangle-68-Copy-2-_x2B_-Rectangle-68-Copy-3_1_" transform="translate(5.000000, 15.000000)" sketch:type="MSShapeGroup">
		<rect id="Rectangle-68-Copy_1_" x="-166" y="-3324" class="st0" width="4" height="1"/>
		<rect id="Rectangle-68-Copy-2_1_" x="-160" y="-3324" class="st0" width="2" height="1"/>
		<rect id="Rectangle-68-Copy-3_1_" x="-170" y="-3324" class="st0" width="2" height="1"/>
	</g>
</g>
<g id="Page-1_3_" sketch:type="MSPage">
	<path id="_x3F_-copy" sketch:type="MSShapeGroup" class="st0" d="M-146,2514.1h1.8c-0.2-2.2,2.5-3,2.5-5.2c0-1.9-1.3-2.9-3.2-2.9
		c-1.3,0-2.3,0.6-3,1.5l1.1,1c0.5-0.6,1.1-0.9,1.8-0.9c0.9,0,1.4,0.6,1.4,1.4C-143.7,2510.6-146.3,2511.6-146,2514.1L-146,2514.1z
		 M-146.4,2516.7c0,0.8,0.6,1.4,1.3,1.4s1.3-0.6,1.3-1.4c0-0.8-0.6-1.4-1.3-1.4C-145.8,2515.3-146.4,2515.9-146.4,2516.7
		L-146.4,2516.7z"/>
</g>
<g id="Page-1_4_" sketch:type="MSPage">
	<path id="Rectangle-29-Copy-2" sketch:type="MSShapeGroup" class="st25" d="M-150.2,2339.8c-1.6-1.6-4.6-2.8-6.8-2.8h0h24l0,0
		c-2.2,0-5.3,1.3-6.8,2.8l-3.8,3.8c-0.8,0.8-2,0.8-2.8,0L-150.2,2339.8z"/>
</g>
<g class="st50">
	<path class="st51" d="M-215,2670.1c0-2.1,1.7-3.7,3.8-3.7h8.4c2.1,0,3.8,1.7,3.8,3.8v5.8c0,2.1-1.7,3.8-3.8,3.8h-8.4
		c-2.1-0.2-3.8-1.8-3.8-3.9V2670.1z"/>
	<path class="st51" d="M-206,2673.2c-0.1,0.1-0.2,0.2-0.1,0.3l0.3,1.7c0.1,0.7-0.3,1.2-1,1.2h-0.4c-0.7,0-1.1-0.5-1-1.2l0.3-1.5
		c0-0.2-0.1-0.3-0.2-0.5c-0.5-0.4-0.7-1-0.5-1.7c0.1-0.6,0.6-1,1.2-1.2c1.1-0.3,2.1,0.6,2.1,1.6
		C-205.3,2672.5-205.6,2672.9-206,2673.2z"/>
	<path class="st51" d="M-212,2666.5v-0.9c0,0,0-5.6,5-5.6s5,5,5,5v1.8"/>
</g>
<g class="st50">
	<path class="st51" d="M-199.4,2717c-0.5,1.5-1.9,2.7-3.6,2.7h-8.4c-2.1,0-3.8-1.7-3.8-3.8v-5.8c0-2.1,1.7-3.8,3.8-3.8h8.4
		c1,0,2,0.4,2.7,1.1"/>
	<path class="st51" d="M-206.2,2713.2c-0.1,0.1-0.2,0.2-0.1,0.3l0.3,1.7c0.1,0.7-0.3,1.2-1,1.2h-0.3c-0.7,0-1.1-0.5-1-1.2l0.3-1.5
		c0-0.2-0.1-0.3-0.2-0.5c-0.5-0.4-0.7-1-0.5-1.7c0.1-0.6,0.6-1,1.2-1.2c0.8-0.2,1.6,0.2,1.9,0.8"/>
	<path class="st51" d="M-211.9,2703.6c0.5-1.6,1.7-3.6,4.7-3.6c5,0,5,5,5,5v1.8"/>
	<path class="st51" d="M-208.5,2713.2h5.2c0.4,2.2,2.4,3.8,4.7,3.8c2.6,0,4.8-2.1,4.8-4.7c0-2.6-2.1-4.8-4.8-4.8
		c-2.3,0-4.2,1.6-4.6,3.7h-5"/>
	<circle class="st51" cx="-197.2" cy="2712.5" r="1.3"/>
</g>
<path class="st52" d="M-200.7,2824.7c-2.3,0-4.2,1.8-4.6,3.8h-12.2v2h2v2h-2v3h2v-1h2v1h2v-3h-2v-1.8v-0.2h8.1
	c0.4,2,2.4,3.7,4.7,3.7c2.6,0,4.8-2.1,4.8-4.8C-195.9,2826.7-198.1,2824.7-200.7,2824.7z"/>
<circle class="st52" cx="-199.2" cy="2829.5" r="1.3"/>
<g>
	<path class="st53" d="M-215,2750.1c0-2.1,1.7-3.8,3.8-3.8h8.4c2.1,0,3.8,1.7,3.8,3.8v5.8c0,2.1-1.7,3.8-3.8,3.8h-8.4
		c-2.1,0-3.8-1.7-3.8-3.8V2750.1z"/>
	<path class="st53" d="M-206,2753.2c-0.1,0.1-0.2,0.2-0.1,0.3l0.3,1.7c0.1,0.7-0.3,1.2-1,1.2h-0.3c-0.7,0-1.1-0.5-1-1.2l0.3-1.5
		c0-0.2-0.1-0.3-0.2-0.5c-0.5-0.4-0.7-1-0.5-1.7c0.1-0.6,0.6-1,1.2-1.2c1.1-0.3,2.1,0.6,2.1,1.6
		C-205.3,2752.5-205.6,2752.9-206,2753.2z"/>
	<path class="st53" d="M-212,2746.5v-0.9c0,0,0-5.6,5-5.6s5,5,5,5v1.8"/>
</g>
<g>
	<path class="st53" d="M-199.2,2797c-0.5,1.5-1.9,2.7-3.6,2.7h-8.4c-2.1,0-3.8-1.7-3.8-3.8v-5.8c0-2.1,1.7-3.8,3.8-3.8h8.4
		c1,0,2,0.4,2.7,1.1"/>
	<path class="st53" d="M-206,2793.2c-0.1,0.1-0.2,0.2-0.1,0.3l0.3,1.7c0.1,0.7-0.3,1.2-1,1.2h-0.3c-0.7,0-1.1-0.5-1-1.2l0.3-1.5
		c0-0.2-0.1-0.3-0.2-0.5c-0.5-0.4-0.7-1-0.5-1.7c0.1-0.6,0.6-1,1.2-1.2c0.8-0.2,1.6,0.2,1.9,0.8"/>
	<path class="st53" d="M-211.7,2783.6c0.5-1.6,1.7-3.6,4.6-3.6c5,0,5,5,5,5v1.8"/>
	<path class="st53" d="M-208.3,2793.2h5.2c0.4,2.2,2.4,3.8,4.7,3.8c2.6,0,4.8-2.1,4.8-4.7c0-2.6-2.1-4.8-4.8-4.8
		c-2.3,0-4.2,1.6-4.6,3.7h-5"/>
	<circle class="st53" cx="-197" cy="2792.5" r="1.3"/>
</g>
<path class="st53" d="M-200.7,2864.7c-2.3,0-4.2,1.8-4.6,3.8h-12.2v2h2v2h-2v3h2v-1h2v1h2v-3h-2v-1.8v-0.2h8.1
	c0.4,2,2.4,3.7,4.7,3.7c2.6,0,4.8-2.1,4.8-4.8C-195.9,2866.7-198.1,2864.7-200.7,2864.7z"/>
<circle class="st53" cx="-199.2" cy="2869.5" r="1.3"/>
</svg>
