<svg width="20" height="20" viewBox="0 0 20 20" fill="none" xmlns="http://www.w3.org/2000/svg">
<rect x="0.25" y="3.25" width="19.5" height="13.413" rx="2.25" fill="white" stroke="#D9D9D9" stroke-width="0.5"/>
<path d="M8.13037 16.0725L19.1449 12.7391V14.5225C19.1449 15.3785 18.4509 16.0725 17.5949 16.0725H8.13037Z" fill="#FD6020"/>
<path fill-rule="evenodd" clip-rule="evenodd" d="M17.0397 8.28168C17.6457 8.28168 17.979 8.562 17.979 9.09148C18.0093 9.49638 17.7366 9.83899 17.373 9.90128L18.1911 11.0537H17.5548L16.8579 9.93242H16.7973V11.0537H16.2823V8.28168H17.0397ZM16.7973 9.55868H16.9488C17.2821 9.55868 17.4336 9.40295 17.4336 9.12264C17.4336 8.87347 17.2821 8.71774 16.9488 8.71774H16.7973V9.55868ZM14.4946 11.0537H15.949V10.5865H15.0097V9.83899H15.9187V9.3718H15.0097V8.74887H15.949V8.28168H14.4946V11.0537ZM12.9797 10.1504L12.2828 8.28168H11.7375L12.8585 11.116H13.1312L14.2522 8.28168H13.7069L12.9797 10.1504ZM6.82914 9.68322C6.82914 10.4619 7.43511 11.1159 8.19257 11.1159C8.43495 11.1159 8.64704 11.0536 8.85913 10.9602V10.3373C8.70764 10.5242 8.49555 10.6487 8.25316 10.6487C7.76839 10.6487 7.37451 10.275 7.37451 9.77666V9.71436C7.34421 9.21603 7.73809 8.77998 8.22286 8.74884C8.46525 8.74884 8.70764 8.87342 8.85913 9.0603V8.43738C8.67734 8.31279 8.43495 8.28165 8.22286 8.28165C7.43511 8.21935 6.82914 8.87342 6.82914 9.68322ZM5.8899 9.34063C5.58691 9.21605 5.49602 9.15376 5.49602 8.99803C5.52632 8.81115 5.67781 8.65542 5.8596 8.68657C6.01109 8.68657 6.16258 8.78 6.28378 8.90459L6.55646 8.53084C6.34437 8.34396 6.07169 8.21937 5.799 8.21937C5.37482 8.18823 5.01124 8.53084 4.98094 8.96688V8.99803C4.98094 9.37178 5.13244 9.5898 5.61721 9.74553C5.7384 9.77668 5.8596 9.83897 5.98079 9.90126C6.07169 9.96355 6.13228 10.057 6.13228 10.1816C6.13228 10.3996 5.95049 10.5865 5.7687 10.5865H5.7384C5.49602 10.5865 5.28393 10.4307 5.19303 10.2127L4.85975 10.5553C5.04154 10.8979 5.40512 11.0848 5.7687 11.0848C6.25348 11.116 6.64736 10.7422 6.67765 10.2439V10.1504C6.64736 9.77668 6.49586 9.5898 5.8899 9.34063ZM4.13258 11.0537H4.64765V8.28168H4.13258V11.0537ZM1.73901 8.2817H2.49647H2.64797C3.37513 8.31284 3.9508 8.93577 3.9205 9.68327C3.9205 10.0882 3.73871 10.4619 3.43572 10.7422C3.16304 10.9603 2.82976 11.0848 2.49647 11.0537H1.73901V8.2817ZM2.40559 10.5865C2.64798 10.6177 2.92066 10.5242 3.10245 10.3685C3.28424 10.1816 3.37514 9.93245 3.37514 9.65213C3.37514 9.40296 3.28424 9.15379 3.10245 8.96692C2.92066 8.81119 2.64798 8.71775 2.40559 8.7489H2.2541V10.5865H2.40559Z" fill="black"/>
<path fill-rule="evenodd" clip-rule="evenodd" d="M10.4045 8.21741C9.64701 8.21741 9.01074 8.84033 9.01074 9.65013C9.01074 10.4288 9.61671 11.0828 10.4045 11.114C11.1922 11.1451 11.7982 10.4911 11.8285 9.68127C11.7982 8.87147 11.1922 8.21741 10.4045 8.21741V8.21741Z" fill="#FD6020"/>
</svg>
