<?xml version="1.0" encoding="utf-8"?>
<!-- Generator: Adobe Illustrator 16.0.0, SVG Export Plug-In . SVG Version: 6.00 Build 0)  -->
<!DOCTYPE svg PUBLIC "-//W3C//DTD SVG 1.1//EN" "http://www.w3.org/Graphics/SVG/1.1/DTD/svg11.dtd">
<svg version="1.1" id="Layer_1" xmlns:sketch="http://www.bohemiancoding.com/sketch/ns"
	 xmlns="http://www.w3.org/2000/svg" xmlns:xlink="http://www.w3.org/1999/xlink" x="0px" y="0px" width="203px" height="370px"
	 viewBox="0 0 203 370" enable-background="new 0 0 203 370" xml:space="preserve">
<title>Slice 1</title>
<desc>Created with Sketch.</desc>
<g id="Page-1" sketch:type="MSPage">
	<g id="Fill-1-_x2B_-Fill-7" transform="translate(0.000000, 203.000000)" sketch:type="MSLayerGroup">
		<path id="Fill-1" sketch:type="MSShapeGroup" fill="#FFFFFF" fill-opacity="0.5" d="M17.5,155.967v-2.516H20v-30.188h2.5v-2.516h5
			v-5.031H30c0.375-2.286,2.672-6.607,5-7.547l2.5-17.608L40,108.17c2.333,0.922,4.643,5.154,5,7.547h2.5v5.031h5v2.516H55v17.609
			l0,0h7.5l0,0V83.015H90v42.765h6.111l0,0L97.5,75.468c0,0-5-5.031-5-7.547v-7.547l-5-2.516v-2.427l2.5-0.089v-2.516h2.5l5-10.062
			L100,0l2.5,42.766l5,10.062h2.5v2.516h2.5v2.629l-5,2.402v7.547c0,2.516-5,7.547-5,7.547l2.5,90.562h-8.75H87.5h-25v-1.258v1.258
			H15H0v-22.641h17.5V155.967z M171.25,166.029H190v-42.766h-20v17.609h-2.5v25.156H171.25L171.25,166.029z M143.75,166.029h23.75
			v-62.891h-25v32.703H140v30.188H143.75L143.75,166.029z M130,90.562v-7.547h-7.5c-0.564-2.806-2.047-5.031-5-5.031
			s-4.436,2.226-5,5.031H105v83.015h35V90.562H130z M175,120.748h10v2.516h-10V120.748z M190,148.42h12.5v17.609H190V148.42z"/>
		<path id="Fill-7" sketch:type="MSShapeGroup" fill="#FFFFFF" d="M157.208,103.563h9.992v62.89h-12.5v-62.846l-2.497,0.043
			l-0.045-2.515l7.521-0.131l0.044,2.515L157.208,103.563L157.208,103.563z M100.95,166.453H99.7V0.424l2.5,43.424l5,10.217h2.5
			v2.555h2.5v2.669l-5,2.438v7.664c0,2.554-5,7.662-5,7.662v59.213h5v30.188H100.95L100.95,166.453z M54.7,148.844v-25.156h-2.5
			v-2.515h-5v-5.031h-2.5c-0.358-2.393-2.667-6.626-5-7.547l-2.5-17.609v25.156l0,0h-2.5v7.546h1.25H29.7v42.766h10v-1.258v-16.352
			H54.7L54.7,148.844z M139.7,141.297V90.985h-17.5v75.468h11.25h-6.25v-25.156H139.7L139.7,141.297z M117.2,83.438h12.5v7.547
			h-12.5V83.438z M179.7,123.688h10v42.766h-10V123.688z M74.7,83.438h15v83.015h-15V83.438z M7.2,143.812h10v10.062h-10V143.812z
			 M7.2,153.875h5v12.578h-5V153.875z M194.7,148.844h7.5v17.609h-7.5V148.844z M52.2,148.844h15v17.609h-15V148.844z M72.2,80.924
			h7.5v2.515h-7.5V80.924z M134.7,143.812h15v22.641h-15V143.812z M132.2,138.781h7.5v2.516h-7.5V138.781z"/>
	</g>
	<g id="Group" transform="translate(31.000000, 0.000000)" sketch:type="MSLayerGroup">
		<path id="Fill-1_1_" sketch:type="MSShapeGroup" fill="#666666" d="M8.688,67.026c2.11,0,3.789,1.034,4.844,2.203l-1.271,1.441
			c-0.947-1.007-2.084-1.661-3.544-1.661c-3.383,0-5.629,2.775-5.629,7.208c0,4.486,2.137,7.316,5.521,7.316
			c1.678,0,2.921-0.708,4.059-1.986l1.272,1.386c-1.38,1.632-3.141,2.584-5.385,2.584c-4.465,0-7.794-3.426-7.794-9.246
			C0.76,70.534,4.143,67.026,8.688,67.026"/>
		<path id="Fill-2" sketch:type="MSShapeGroup" fill="#666666" d="M21.954,67.352h2.273v7.48h8.254v-7.48h2.245v17.842h-2.245
			v-8.404h-8.254v8.404h-2.273V67.352"/>
		<path id="Fill-3" sketch:type="MSShapeGroup" fill="#666666" d="M53.005,79.755h-6.467l-1.704,5.438h-2.301l6.008-17.842h2.544
			l6.007,17.842H54.71L53.005,79.755L53.005,79.755z M52.437,77.932l-0.839-2.719c-0.623-1.986-1.19-3.943-1.759-6.012h-0.108
			c-0.568,2.069-1.137,4.026-1.759,6.012l-0.866,2.719H52.437L52.437,77.932z"/>
		<path id="Fill-4" sketch:type="MSShapeGroup" fill="#666666" d="M64.868,67.352h2.327l6.441,11.206l1.921,3.697h0.108
			c-0.108-1.793-0.298-3.806-0.298-5.682v-9.221h2.138v17.842h-2.327l-6.414-11.232l-1.921-3.671h-0.108
			c0.108,1.793,0.27,3.698,0.27,5.574v9.329h-2.138V67.352"/>
		<path id="Fill-5" sketch:type="MSShapeGroup" fill="#666666" d="M94.838,67.026c2.408,0,4.031,1.113,5.088,2.203l-1.299,1.441
			c-0.895-0.951-2.004-1.661-3.762-1.661c-3.6,0-5.9,2.775-5.9,7.208c0,4.486,2.111,7.316,5.9,7.316
			c1.271,0,2.516-0.409,3.219-1.061v-4.65h-3.761v-1.877h5.817v7.506c-1.163,1.143-3.138,2.067-5.52,2.067
			c-4.654,0-7.982-3.426-7.982-9.246C86.639,70.534,90.075,67.026,94.838,67.026"/>
		<path id="Fill-6" sketch:type="MSShapeGroup" fill="#666666" d="M109.65,67.352h10.23v1.904h-7.957v5.603h6.711v1.931h-6.711
			v6.474h8.227v1.931h-10.5V67.352"/>
		<path id="Fill-7_1_" sketch:type="MSShapeGroup" fill="#666666" d="M128.707,81.306c1.271,1.33,3.031,2.229,4.898,2.229
			c2.328,0,3.708-1.169,3.708-2.91c0-1.822-1.3-2.394-2.978-3.155l-2.543-1.117c-1.651-0.706-3.6-1.983-3.6-4.594
			c0-2.72,2.381-4.732,5.601-4.732c2.112,0,3.979,0.896,5.224,2.203l-1.191,1.468c-1.082-1.033-2.408-1.687-4.032-1.687
			c-2.001,0-3.327,1.008-3.327,2.611c0,1.714,1.569,2.368,2.949,2.965l2.543,1.087c2.057,0.898,3.653,2.121,3.653,4.761
			c0,2.828-2.327,5.085-6.062,5.085c-2.488,0-4.653-1.035-6.197-2.638L128.707,81.306"/>
		<path id="Fill-8" sketch:type="MSShapeGroup" fill="#666666" d="M1.333,102.492H6.89c3.988,0,6.657,1.355,6.657,5.335
			c0,3.815-2.725,5.611-6.657,5.611H3.644v7.187h-2.31V102.492L1.333,102.492z M6.587,111.559c3.164,0,4.676-1.162,4.676-3.731
			c0-2.627-1.567-3.483-4.676-3.483H3.644v7.214H6.587L6.587,111.559z"/>
		<path id="Fill-9" sketch:type="MSShapeGroup" fill="#666666" d="M29.429,115.097h-6.574l-1.733,5.529h-2.337l6.106-18.133h2.585
			l6.106,18.133H31.16L29.429,115.097L29.429,115.097z M28.85,113.245l-0.853-2.763c-0.632-2.02-1.209-4.009-1.788-6.109h-0.109
			c-0.578,2.101-1.155,4.09-1.789,6.109l-0.88,2.763H28.85L28.85,113.245z"/>
		<path id="Fill-10" sketch:type="MSShapeGroup" fill="#666666" d="M43.576,113.604l-5.445-11.112h2.476l2.311,5.114
			c0.576,1.327,1.127,2.597,1.76,3.953h0.109c0.605-1.355,1.238-2.626,1.788-3.953l2.337-5.114h2.366l-5.418,11.112v7.021h-2.284
			V113.604"/>
		<path id="Fill-11" sketch:type="MSShapeGroup" fill="#666666" d="M59.098,102.492h2.725l3.492,9.73l1.293,3.703h0.11l1.266-3.703
			l3.464-9.73h2.696v18.133h-2.173v-9.978c0-1.605,0.192-3.761,0.302-5.364h-0.109l-1.431,4.036l-3.466,9.483h-1.319l-3.467-9.483
			l-1.43-4.036h-0.109c0.109,1.603,0.274,3.759,0.274,5.364v9.978h-2.119V102.492"/>
		<path id="Fill-12" sketch:type="MSShapeGroup" fill="#666666" d="M84.473,102.492h10.396v1.934h-8.086v5.694h6.822v1.963h-6.822
			v6.58h8.361v1.963H84.473V102.492"/>
		<path id="Fill-13" sketch:type="MSShapeGroup" fill="#666666" d="M104.342,102.492h2.365l6.546,11.39l1.953,3.758h0.109
			c-0.109-1.825-0.302-3.872-0.302-5.778v-9.371h2.174v18.133h-2.367l-6.518-11.417l-1.953-3.732h-0.11
			c0.11,1.826,0.274,3.759,0.274,5.667v9.481h-2.172V102.492"/>
		<path id="Fill-14" sketch:type="MSShapeGroup" fill="#666666" d="M131.282,104.426h-5.474v-1.934h13.23v1.934h-5.475v16.199
			h-2.282V104.426"/>
		<path id="Fill-15" sketch:type="MSShapeGroup" fill="#666666" d="M2.185,152.947c1.337,1.4,3.188,2.346,5.151,2.346
			c2.45,0,3.901-1.229,3.901-3.061c0-1.918-1.368-2.519-3.131-3.32l-2.676-1.174c-1.737-0.744-3.787-2.088-3.787-4.835
			c0-2.861,2.505-4.979,5.893-4.979c2.22,0,4.185,0.943,5.495,2.318l-1.253,1.544c-1.138-1.087-2.534-1.775-4.242-1.775
			c-2.106,0-3.501,1.06-3.501,2.747c0,1.803,1.651,2.49,3.103,3.12l2.676,1.144c2.164,0.946,3.843,2.232,3.843,5.009
			c0,2.976-2.448,5.349-6.377,5.349c-2.619,0-4.896-1.088-6.52-2.775L2.185,152.947"/>
		<path id="Fill-16" sketch:type="MSShapeGroup" fill="#666666" d="M25.166,149.769l-5.637-11.501h2.562l2.393,5.293
			c0.597,1.375,1.167,2.69,1.822,4.093h0.113c0.625-1.402,1.281-2.718,1.85-4.093l2.42-5.293h2.449l-5.608,11.501v7.269h-2.364
			V149.769"/>
		<path id="Fill-17" sketch:type="MSShapeGroup" fill="#666666" d="M40.865,152.947c1.337,1.4,3.188,2.346,5.151,2.346
			c2.449,0,3.901-1.229,3.901-3.061c0-1.918-1.368-2.519-3.131-3.32l-2.676-1.174c-1.737-0.744-3.787-2.088-3.787-4.835
			c0-2.861,2.505-4.979,5.893-4.979c2.221,0,4.186,0.943,5.496,2.318l-1.253,1.544c-1.138-1.087-2.534-1.775-4.243-1.775
			c-2.105,0-3.501,1.06-3.501,2.747c0,1.803,1.651,2.49,3.103,3.12l2.676,1.144c2.164,0.946,3.843,2.232,3.843,5.009
			c0,2.976-2.448,5.349-6.377,5.349c-2.619,0-4.896-1.088-6.52-2.775L40.865,152.947"/>
		<path id="Fill-18" sketch:type="MSShapeGroup" fill="#666666" d="M64.875,140.271h-5.666v-2.003h13.695v2.003h-5.665v16.768
			h-2.364V140.271"/>
		<path id="Fill-19" sketch:type="MSShapeGroup" fill="#666666" d="M81.798,138.268H92.56v2.003h-8.37v5.895h7.061v2.032h-7.061
			v6.81h8.654v2.031H81.798V138.268"/>
		<path id="Fill-20" sketch:type="MSShapeGroup" fill="#666666" d="M102.364,138.268h2.818l3.616,10.071l1.336,3.835h0.115
			l1.311-3.835l3.587-10.071h2.79v18.771h-2.25v-10.33c0-1.658,0.199-3.891,0.312-5.549h-0.113l-1.48,4.177l-3.587,9.813h-1.366
			l-3.588-9.813l-1.48-4.177h-0.113c0.113,1.658,0.284,3.891,0.284,5.549v10.33h-2.191V138.268"/>
		<path id="Fill-21" sketch:type="MSShapeGroup" fill="#666666" d="M128.139,152.947c1.338,1.4,3.189,2.346,5.152,2.346
			c2.451,0,3.9-1.229,3.9-3.061c0-1.918-1.365-2.519-3.13-3.32l-2.677-1.174c-1.736-0.744-3.786-2.088-3.786-4.835
			c0-2.861,2.505-4.979,5.893-4.979c2.22,0,4.185,0.943,5.495,2.318l-1.253,1.544c-1.138-1.087-2.534-1.775-4.242-1.775
			c-2.106,0-3.501,1.06-3.501,2.747c0,1.803,1.65,2.49,3.104,3.12l2.676,1.144c2.164,0.946,3.843,2.232,3.843,5.009
			c0,2.976-2.448,5.349-6.377,5.349c-2.618,0-4.896-1.088-6.52-2.775L128.139,152.947"/>
		<g transform="translate(1.147541, 0.000000)" sketch:type="MSShapeGroup">
			<path id="Fill-22" fill="#2F2F2D" d="M69.862,6.446V2.363c0-0.645-0.52-1.167-1.161-1.167H46.356c-0.64,0-1.16,0.522-1.16,1.167
				v26.831c0,0.644,0.52,1.166,1.16,1.166h22.345c0.642,0,1.161-0.522,1.161-1.166V25.11c0-0.644-0.52-1.166-1.161-1.166h-15.96
				c-0.161,0-0.291-0.13-0.291-0.292v-4.667c0-0.161,0.13-0.292,0.291-0.292h15.96c0.642,0,1.161-0.522,1.161-1.166v-3.5
				c0-0.645-0.52-1.167-1.161-1.167h-15.96c-0.161,0-0.291-0.13-0.291-0.291V7.905c0-0.162,0.13-0.292,0.291-0.292h15.96
				C69.343,7.613,69.862,7.09,69.862,6.446"/>
			<path id="Fill-23" fill="#2F2F2D" d="M131.954,30.36h5.066c0.643,0,1.062-0.676,0.782-1.256L124.97,2.511
				c-0.389-0.804-1.199-1.315-2.089-1.315h-2.896c-0.889,0-1.7,0.511-2.09,1.315l-12.832,26.594c-0.28,0.58,0.141,1.256,0.783,1.256
				h5.064c0.666,0,1.275-0.383,1.566-0.986l2.463-5.101c0.096-0.201,0.299-0.329,0.521-0.329h11.943
				c0.221,0,0.424,0.128,0.521,0.329l2.461,5.101C130.68,29.978,131.288,30.36,131.954,30.36L131.954,30.36z M117.834,18.276
				l3.339-6.917c0.105-0.219,0.416-0.219,0.521,0l3.338,6.917c0.094,0.193-0.047,0.418-0.262,0.418h-6.676
				C117.88,18.695,117.74,18.47,117.834,18.276L117.834,18.276z"/>
			<path id="Fill-24" fill="#2F2F2D" d="M33.168,1.88L20.184,14.928c-0.226,0.228-0.593,0.228-0.82,0L6.38,1.88
				C5.944,1.441,5.353,1.196,4.738,1.196H1.347c-0.641,0-1.161,0.522-1.161,1.167v26.831c0,0.644,0.52,1.166,1.161,1.166h4.934
				c0.64,0,1.16-0.522,1.16-1.166V13.943c0-0.13,0.156-0.195,0.248-0.104l10.444,10.497c0.907,0.911,2.376,0.911,3.283,0
				l10.444-10.497c0.092-0.091,0.248-0.026,0.248,0.104v15.251c0,0.644,0.52,1.166,1.162,1.166h4.933c0.64,0,1.16-0.522,1.16-1.166
				V2.363c0-0.645-0.52-1.167-1.16-1.167h-3.392C34.194,1.196,33.603,1.441,33.168,1.88"/>
			<path id="Fill-25" fill="#2F2F2D" d="M102.212,13.153H90.756c-0.642,0-1.161,0.522-1.161,1.167v2.917
				c0,0.644,0.52,1.166,1.161,1.166h6.583c0.203,0,0.345,0.204,0.273,0.396c-1.248,3.345-4.508,5.702-8.299,5.579
				c-4.435-0.143-8.065-3.738-8.27-8.192c-0.227-4.936,3.688-9.01,8.551-9.01c1.992,0,3.826,0.684,5.281,1.831
				c0.464,0.367,1.125,0.333,1.544-0.086l3.093-3.108c0.482-0.484,0.445-1.278-0.074-1.721c-2.688-2.287-6.172-3.656-9.977-3.624
				C81.083,0.54,74.282,7.504,74.36,15.926c0.078,8.388,6.869,15.165,15.234,15.165c8.414,0,15.235-6.855,15.235-15.312v-0.027
				C104.827,14.311,103.645,13.153,102.212,13.153"/>
		</g>
	</g>
</g>
</svg>
