<?xml version="1.0" encoding="UTF-8"?>
<svg width="24px" height="24px" viewBox="0 0 24 24" version="1.1" xmlns="http://www.w3.org/2000/svg" xmlns:xlink="http://www.w3.org/1999/xlink">
    <!-- Generator: Sketch 61.2 (89653) - https://sketch.com -->
    <title>edit_ico_black</title>
    <desc>Created with Sketch.</desc>
    <g id="files" stroke="none" stroke-width="1" fill="none" fill-rule="evenodd">
        <g id="01-context-menu-components_cloud-drive" transform="translate(-1315.000000, -211.000000)" fill="#696969">
            <g id="Group-10" transform="translate(1315.000000, 211.000000)">
                <path d="M13.086,2 C13.484,2 13.865,2.158 14.147,2.439 L16.69,4.982 L13.672,7.999 L13,8 L13,4 L5.021,4 L5.021,19 L16.979,19 L16.995,10.332 L18.999,8.328 L19,18.998 C19,20.104 18.104,21 16.998,21 L5.002,21 C3.896,21 3,20.104 3,18.998 L3,4.002 C3,2.896 3.896,2 5.002,2 L13.086,2 Z M22.0104076,2.48959236 C22.4009319,2.88011665 22.4009319,3.51328163 22.0104076,3.90380592 L11.4038059,14.5104076 L9.5,15 L9.98959236,13.0961941 L20.5961941,2.48959236 C20.9867184,2.09906807 21.6198833,2.09906807 22.0104076,2.48959236 Z" id="Combined-Shape-Copy-3"></path>
            </g>
        </g>
    </g>
</svg>