<?xml version="1.0" encoding="utf-8"?>
<!-- Generator: Adobe Illustrator 16.0.0, SVG Export Plug-In . SVG Version: 6.00 Build 0)  -->
<!DOCTYPE svg PUBLIC "-//W3C//DTD SVG 1.1//EN" "http://www.w3.org/Graphics/SVG/1.1/DTD/svg11.dtd">
<svg version="1.1" id="Layer_1" xmlns:sketch="http://www.bohemiancoding.com/sketch/ns"
	 xmlns="http://www.w3.org/2000/svg" xmlns:xlink="http://www.w3.org/1999/xlink" x="0px" y="0px" width="308px" height="2086px"
	 viewBox="0 0 308 2086" enable-background="new 0 0 308 2086" xml:space="preserve">
<title>Slice 1</title>
<desc>Created with Sketch.</desc>
<g id="Group" transform="translate(54.000000, 1509.000000)" sketch:type="MSShapeGroup" opacity="0.1">
	<path id="Shape" d="M54.09,152c-0.78,0-1.53-0.17-2.24-0.51c-1.23-0.604-2.16-1.631-2.59-2.92c-0.43-1.25-0.33-2.604,0.27-3.78
		C59.06,125.8,78.4,114,100,114c21.6,0,40.939,11.8,50.471,30.79c0.6,1.181,0.699,2.53,0.271,3.78
		c-0.432,1.289-1.36,2.316-2.602,2.92c-0.688,0.34-1.451,0.51-2.229,0.51c-1.95,0-3.7-1.07-4.562-2.79
		c-7.812-15.55-23.66-25.21-41.352-25.21c-17.69,0-33.54,9.66-41.35,25.21C57.79,150.93,56.04,152,54.09,152L54.09,152z"/>
	<path id="Shape_1_" d="M0,100c0,55.23,44.77,100,100,100c55.23,0,100-44.77,100-100S155.23,0,100,0C44.77,0,0,44.77,0,100L0,100z
		 M10,100c0-49.71,40.29-90,90-90s90,40.29,90,90s-40.29,90-90,90S10,149.71,10,100L10,100z"/>
	<path id="Shape_2_" d="M144.04,85c0,7.73,6.28,14,14.03,14c7.74,0,14.02-6.27,14.02-14s-6.279-14-14.02-14
		C150.32,71,144.04,77.27,144.04,85L144.04,85z M152,85c0-3.311,2.689-6,6-6s6,2.689,6,6s-2.689,6-6,6S152,88.311,152,85L152,85z"/>
	<path id="Shape_3_" d="M28.04,85c0,7.73,6.28,14,14.03,14c7.74,0,14.02-6.27,14.02-14s-6.28-14-14.02-14
		C34.32,71,28.04,77.27,28.04,85L28.04,85z M36,85c0-3.311,2.69-6,6-6s6,2.689,6,6s-2.69,6-6,6S36,88.311,36,85L36,85z"/>
	<path id="Shape_4_" d="M151,108.01c-0.01-0.22-0.04-0.42-0.07-0.63c-0.539-3.398-4.029-9.489-4.93-10.38
		c-0.9,0.891-4.391,6.98-4.93,10.38c-0.041,0.21-0.062,0.41-0.07,0.63v0.184c0,2.656,2.24,4.811,5,4.811s5-2.146,5-4.811V108.01
		L151,108.01z"/>
</g>
<g id="Group_1_" transform="translate(54.000000, 1154.000000)" sketch:type="MSShapeGroup" opacity="0.1">
	<path id="Shape_5_" fill="#000101" d="M145.91,121c0.779,0,1.529,0.17,2.24,0.51c1.229,0.603,2.16,1.63,2.59,2.92
		c0.43,1.25,0.33,2.603-0.27,3.78C140.939,147.2,121.6,159,100,159c-21.6,0-40.94-11.8-50.47-30.79c-0.6-1.18-0.7-2.53-0.27-3.78
		c0.43-1.29,1.36-2.317,2.6-2.92c0.69-0.34,1.45-0.51,2.23-0.51c1.95,0,3.7,1.07,4.56,2.79C66.46,139.34,82.31,149,100,149
		c17.689,0,33.54-9.66,41.35-25.21C142.21,122.07,143.96,121,145.91,121L145.91,121z"/>
	<path id="Shape_6_" fill="#000101" d="M10,100c0-49.71,40.29-90,90-90s90,40.29,90,90s-40.29,90-90,90S10,149.71,10,100L10,100z
		 M0,100c0,55.23,44.77,100,100,100c55.23,0,100-44.77,100-100S155.23,0,100,0C44.77,0,0,44.77,0,100L0,100z"/>
	<path id="Shape_7_" fill="#000101" d="M152,85c0-3.311,2.689-6,6-6s6,2.689,6,6s-2.689,6-6,6S152,88.311,152,85L152,85z M144.04,85
		c0,7.73,6.28,14,14.03,14c7.74,0,14.02-6.27,14.02-14s-6.279-14-14.02-14C150.32,71,144.04,77.27,144.04,85L144.04,85z"/>
	<path id="Shape_8_" fill="#000101" d="M36,85c0-3.311,2.69-6,6-6s6,2.689,6,6s-2.69,6-6,6S36,88.311,36,85L36,85z M28.04,85
		c0,7.73,6.28,14,14.03,14c7.74,0,14.02-6.27,14.02-14s-6.28-14-14.02-14C34.32,71,28.04,77.27,28.04,85L28.04,85z"/>
</g>
<g id="Group_2_" transform="translate(0.000000, 285.000000)" sketch:type="MSShapeGroup" opacity="0.1">
	<path id="Shape_9_" fill="#000101" d="M238.7,209.9H70.74H69.3c-32.66,0-59.24-28.303-59.24-63.04
		c0-34.08,25.24-61.84,56.92-63.062c-0.34-2-0.44-4-0.44-6.1c0-19.88,15.16-36.08,33.88-36.08c4.76,0,9.3,1.1,13.38,3
		c12.18-20.76,33.88-34.52,58.58-34.52c38.2,0,69.08,32.96,69.08,73.6v0.1c31.46,1.56,56.479,29.2,56.479,63.062
		C297.939,181.6,271.359,209.9,238.7,209.9L238.7,209.9z M251.1,74.8C246.88,32.821,213.18,0,172.38,0
		c-24.92,0-47.82,12.04-62.72,32.58c-3.04-0.7-6.12-1.06-9.24-1.06c-23.34,0-42.48,19.2-43.88,43.34C24.14,81.1,0,110.9,0,146.86
		C0,187.18,31.08,220,69.3,220h169.4c38.22,0,69.3-32.82,69.3-73.14C308,110.96,283.66,80.98,251.1,74.8L251.1,74.8z"/>
	<path id="Shape_10_" fill="#000101" d="M212.279,120.1c-3.319,0-6.039-2.72-6.039-6.06s2.72-6.06,6.039-6.06
		c3.341,0,6.041,2.72,6.041,6.06S215.62,120.1,212.279,120.1L212.279,120.1z M212.359,99.9c-7.799,0-14.119,6.34-14.119,14.14
		s6.32,14.12,14.119,14.12c7.801,0,14.121-6.32,14.121-14.12S220.16,99.9,212.359,99.9L212.359,99.9z"/>
	<path id="Shape_11_" fill="#000101" d="M95.54,120.1c-3.34,0-6.04-2.72-6.04-6.06s2.7-6.06,6.04-6.06c3.32,0,6.02,2.72,6.02,6.06
		S98.86,120.1,95.54,120.1L95.54,120.1z M109.72,114.04c0-7.8-6.32-14.14-14.12-14.14c-7.8,0-14.12,6.34-14.12,14.14
		s6.32,14.12,14.12,14.12C103.4,128.16,109.72,121.84,109.72,114.04L109.72,114.04z"/>
	<path id="Shape_12_" fill="#000101" d="M201.95,150.45c-0.71-0.34-1.46-0.511-2.24-0.511c-1.95,0-3.7,1.068-4.56,2.791
		c-7.812,15.55-23.66,25.209-41.354,25.209c-17.691,0-33.54-9.659-41.35-25.209c-0.86-1.723-2.61-2.791-4.56-2.791
		c-0.78,0-1.54,0.171-2.23,0.511c-1.24,0.6-2.17,1.63-2.6,2.92c-0.43,1.25-0.33,2.6,0.27,3.78c9.53,18.987,28.87,30.79,50.47,30.79
		c21.604,0,40.939-11.803,50.473-30.79c0.601-1.183,0.701-2.53,0.271-3.78C204.109,152.08,203.18,151.05,201.95,150.45
		L201.95,150.45z"/>
</g>
<g id="Group_3_" transform="translate(23.000000, 866.000000)" sketch:type="MSShapeGroup" opacity="0.1">
	<path id="Shape_13_" fill="#010202" d="M250,200c0,5.5-4.5,10-10,10H20c-5.5,0-10-4.5-10-10V50c0-1.11,0.9-2,2-2h236
		c1.1,0,2,0.89,2,2V200L250,200z M12,20c0-5.52,4.48-10,10-10h97.17c0.53,0,1.04,0.21,1.42,0.59l15.82,15.82
		c0.38,0.38,0.89,0.59,1.42,0.59H230c5.51-0.33,10,4.48,10,10v7c0,1.11-0.9,2-2,2H14c-1.1,0-2-0.89-2-2V20L12,20z M250,38.17V37
		c0-11.04-8.73-20.02-19.471-20.02c-0.25,0-0.51,0.01-0.771,0.02h-88.617L127.661,3.51c-2.27-2.26-5.28-3.51-8.49-3.51H22
		C10.97,0,2,8.97,2,20v23.37C0.74,45.268,0,47.55,0,50v150c0,11.03,8.97,20,20,20h220c11.029,0,20-8.97,20-20V50
		C260,44.061,255.67,39.12,250,38.17L250,38.17z"/>
	<g id="Shape_14_" transform="translate(79.000000, 139.000000)">
		<path fill="#000101" d="M99.95,1.45c-0.71-0.34-1.46-0.511-2.24-0.511c-1.95,0-3.7,1.068-4.56,2.791
			c-7.812,15.55-23.66,25.209-41.354,25.209c-17.69,0-33.54-9.659-41.35-25.209c-0.86-1.723-2.61-2.791-4.56-2.791
			c-0.78,0-1.54,0.17-2.23,0.511c-1.24,0.6-2.17,1.63-2.6,2.92c-0.43,1.25-0.33,2.6,0.27,3.78
			c9.53,18.987,28.87,30.789,50.47,30.789c21.604,0,40.939-11.802,50.473-30.789c0.601-1.183,0.701-2.53,0.271-3.78
			C102.109,3.08,101.18,2.05,99.95,1.45L99.95,1.45z"/>
	</g>
</g>
<g id="Group_4_" transform="translate(23.000000, 1866.000000)" sketch:type="MSShapeGroup" opacity="0.1">
	<path id="Shape_15_" fill="#020303" d="M174.04,105c0,7.73,6.28,14,14.03,14c7.74,0,14.02-6.27,14.02-14s-6.279-14-14.02-14
		C180.32,91,174.04,97.27,174.04,105L174.04,105z M182,105c0-3.311,2.689-6,6-6s6,2.689,6,6s-2.689,6-6,6S182,108.311,182,105
		L182,105z"/>
	<path id="Shape_16_" fill="#020303" d="M58.04,105c0,7.73,6.28,14,14.03,14c7.74,0,14.02-6.27,14.02-14s-6.28-14-14.02-14
		C64.32,91,58.04,97.27,58.04,105L58.04,105z M66,105c0-3.311,2.69-6,6-6s6,2.689,6,6s-2.69,6-6,6S66,108.311,66,105L66,105z"/>
	<path id="Shape_17_" fill="#030404" d="M250,38.17V37c0-11.04-8.73-20.02-19.471-20.02c-0.25,0-0.51,0.01-0.771,0.02h-88.617
		L127.66,3.51C125.39,1.25,122.38,0,119.17,0H22C10.97,0,2,8.971,2,20v23.37C0.74,45.269,0,47.55,0,50v150c0,11.029,8.97,20,20,20
		h220c11.029,0,20-8.971,20-20V50C260,44.061,255.67,39.12,250,38.17L250,38.17z M12,20c0-5.52,4.48-10,10-10h97.17
		c0.53,0,1.04,0.21,1.42,0.59l15.82,15.82c0.38,0.38,0.89,0.59,1.42,0.59H230c5.51-0.33,10,4.479,10,10v7c0,1.109-0.9,2-2,2H14
		c-1.1,0-2-0.891-2-2V20L12,20z M250,200c0,5.5-4.5,10-10,10H20c-5.5,0-10-4.5-10-10V50c0-1.109,0.9-2,2-2h236c1.1,0,2,0.891,2,2
		V200L250,200z"/>
	<path id="Shape_18_" fill="#020303" d="M82.67,144.33h94c2.76,0,5,2.24,5,5s-2.24,5-5,5h-94c-2.76,0-5-2.24-5-5
		S79.91,144.33,82.67,144.33L82.67,144.33z"/>
</g>
<path id="Shape_19_" sketch:type="MSShapeGroup" opacity="0.1" enable-background="new    " d="M183,1818c0-17.67,14.33-32,32-32
	s32,14.33,32,32s-14.33,32-32,32S183,1835.67,183,1818L183,1818z"/>
<circle id="Oval" sketch:type="MSShapeGroup" opacity="0.1" enable-background="new    " cx="175" cy="1858" r="12">
</circle>
<path id="Shape_20_" sketch:type="MSShapeGroup" fill="#FFFFFF" d="M211.529,1835.311c0.531,0.471,1.201,0.689,2.021,0.689
	c0.89,0,1.591-0.25,2.091-0.779c0.5-0.531,0.75-1.271,0.75-2.201c0-0.97-0.25-1.72-0.75-2.238c-0.5-0.512-1.188-0.779-2.091-0.779
	c-1.88,0-2.819,1.02-2.819,3.02C210.73,1834.08,211,1834.84,211.529,1835.311L211.529,1835.311z M214.92,1826v-0.73
	c0-1.408,0.25-2.537,0.78-3.379c0.521-0.841,1.579-1.891,3.21-3.17c2.01-1.631,3.32-2.811,3.93-3.551
	c0.61-0.73,1.08-1.51,1.391-2.34c0.319-0.812,0.472-1.771,0.472-2.85c0-2.53-0.843-4.5-2.53-5.893c-1.688-1.39-4.062-2.09-7.09-2.09
	c-3.28,0-6.438,0.891-9.438,2.67l1.42,3.352c1.527-0.75,2.91-1.289,4.107-1.58c1.21-0.279,2.438-0.439,3.71-0.439
	c1.96,0,3.46,0.41,4.513,1.189c1.049,0.791,1.58,1.92,1.58,3.391c0,1.17-0.303,2.17-0.861,3c-0.562,0.83-1.939,2.061-4.109,3.699
	c-1.58,1.221-2.66,2.359-3.23,3.439c-0.58,1.079-0.857,2.449-0.857,4.119v1.16L214.92,1826L214.92,1826z"/>
<g id="Group_5_" transform="translate(22.000000, 576.000000)" sketch:type="MSShapeGroup" opacity="0.1">
	<path id="Shape_21_" fill="#020303" d="M84.92,172.17c-0.78,0-1.53-0.17-2.24-0.51c-1.23-0.602-2.16-1.63-2.59-2.92
		c-0.43-1.25-0.33-2.602,0.27-3.78c9.53-18.99,28.87-30.79,50.47-30.79c21.6,0,40.939,11.8,50.47,30.79
		c0.601,1.18,0.7,2.53,0.271,3.78c-0.43,1.29-1.358,2.318-2.6,2.92c-0.691,0.34-1.451,0.51-2.229,0.51c-1.95,0-3.7-1.07-4.562-2.79
		c-7.81-15.55-23.66-25.21-41.35-25.21c-17.69,0-33.54,9.66-41.35,25.21C88.62,171.1,86.87,172.17,84.92,172.17L84.92,172.17z"/>
	<path id="Shape_22_" fill="#020303" d="M174.87,105.17c0,7.73,6.28,14,14.03,14c7.74,0,14.02-6.27,14.02-14
		c0-7.729-6.279-14-14.02-14C181.15,91.17,174.87,97.44,174.87,105.17L174.87,105.17z M182.83,105.17c0-3.31,2.689-6,6-6s6,2.69,6,6
		c0,3.312-2.689,6-6,6S182.83,108.48,182.83,105.17L182.83,105.17z"/>
	<path id="Shape_23_" fill="#020303" d="M58.87,105.17c0,7.73,6.28,14,14.03,14c7.74,0,14.02-6.27,14.02-14
		c0-7.729-6.28-14-14.02-14C65.15,91.17,58.87,97.44,58.87,105.17L58.87,105.17z M66.83,105.17c0-3.31,2.69-6,6-6s6,2.69,6,6
		c0,3.312-2.69,6-6,6S66.83,108.48,66.83,105.17L66.83,105.17z"/>
	<path id="Shape_24_" fill="#020303" d="M181.83,128.18c-0.01-0.22-0.04-0.42-0.07-0.63c-0.539-3.398-4.029-9.49-4.93-10.38
		c-0.9,0.89-4.391,6.98-4.93,10.38c-0.041,0.21-0.062,0.41-0.07,0.63v0.182c0,2.658,2.24,4.81,5,4.81s5-2.149,5-4.81V128.18
		L181.83,128.18z"/>
	<path id="Shape_25_" fill="#030404" d="M250.83,38.34v-1.17c0-11.04-8.73-20.02-19.471-20.02c-0.25,0-0.51,0.01-0.771,0.02h-88.617
		L128.49,3.68c-2.27-2.26-5.28-3.51-8.49-3.51H22.83c-11.03,0-20,8.97-20,20v23.37c-1.26,1.9-2,4.18-2,6.63v150
		c0,11.03,8.97,20,20,20h220c11.029,0,20-8.97,20-20v-150C260.83,44.23,256.5,39.29,250.83,38.34L250.83,38.34z M12.83,20.17
		c0-5.52,4.48-10,10-10H120c0.529,0,1.04,0.21,1.42,0.59l15.82,15.82c0.38,0.38,0.89,0.59,1.42,0.59h92.17c5.51-0.33,10,4.48,10,10
		v7c0,1.11-0.9,2-2,2h-224c-1.1,0-2-0.89-2-2V20.17L12.83,20.17L12.83,20.17z M250.83,200.17c0,5.5-4.5,10-10,10h-220
		c-5.5,0-10-4.5-10-10v-150c0-1.11,0.9-2,2-2h236c1.1,0,2,0.89,2,2V200.17L250.83,200.17z"/>
</g>
<path id="Shape_26_" sketch:type="MSShapeGroup" opacity="0.1" fill="#020303" enable-background="new    " d="M196.87,971.17
	c0,7.73,6.28,14,14.03,14c7.74,0,14.02-6.27,14.02-14c0-7.729-6.279-14-14.02-14C203.15,957.17,196.87,963.44,196.87,971.17
	L196.87,971.17z M204.83,971.17c0-3.31,2.689-6,6-6s6,2.69,6,6c0,3.312-2.689,6-6,6S204.83,974.48,204.83,971.17L204.83,971.17z"/>
<path id="Shape_27_" sketch:type="MSShapeGroup" opacity="0.1" fill="#020303" enable-background="new    " d="M80.87,971.17
	c0,7.73,6.28,14,14.03,14c7.74,0,14.02-6.27,14.02-14c0-7.729-6.28-14-14.02-14C87.15,957.17,80.87,963.44,80.87,971.17
	L80.87,971.17z M88.83,971.17c0-3.31,2.69-6,6-6s6,2.69,6,6c0,3.312-2.69,6-6,6S88.83,974.48,88.83,971.17L88.83,971.17z"/>
<g id="Page-1" transform="translate(25.000000, 0.000000)" sketch:type="MSShapeGroup" opacity="0.1">
	<g id="Imported-Layers-2">
		<path id="Fill-1" fill="#0B0B0A" d="M232.727,165.273c13.359-7.655,22.825-19.441,23.258-34.742
			c0.791-33.266-30.373-57.59-61.529-64.513c-3.691-0.819-7.395-1.396-11.071-1.756c-0.354-2.961-0.854-5.971-1.522-9.03
			c-10.09-46.8-56.149-62.3-100.969-52.36c-40.95,9.1-81.91,41.07-80.87,84.79c0.569,20.109,13.009,35.6,30.569,45.66
			c1.131,0.85,2.551,2.289,2.641,4.199c0.379,8.42-5.851,14.17-13.77,16.271c-4.07,1.05-5,3.239,0.18,3.739
			c16.71,1.15,36.429,0.479,50.199-10.739c12.75,1.739,25.391,2.71,37.851,1.739c5.059-0.358,9.948-1.059,14.646-2.072
			c9.296,17.365,28.12,28.714,51.727,30.386c9.48,0.739,19.099,0,28.799-1.323c10.478,8.537,25.48,9.047,38.195,8.172
			c3.941-0.381,3.233-2.045,0.137-2.846c-6.024-1.598-10.766-5.973-10.477-12.38C230.785,167.016,231.865,165.92,232.727,165.273"/>
		<path id="Fill-2" fill="#FFFFFF" d="M230.323,162.075l0.198-0.148l0.215-0.124c17.105-9.802,20.998-22.478,21.25-31.365
			c0.738-31.045-28.82-53.941-58.399-60.515c-3.954-0.877-7.909-1.479-11.823-1.804c1.412,18.027-3.059,34.423-13.19,47.962
			c-10.142,13.55-25.134,23.038-43.197,27.614c1.238,2.426,2.687,4.755,4.349,6.975c9.694,12.955,25.543,20.834,44.649,22.186
			c2.392,0.188,4.901,0.283,7.467,0.283c6.072,0,12.579-0.503,20.479-1.58l1.723-0.235l1.348,1.098
			c6.024,4.909,14.562,7.392,26.064,7.568c-3.199-3.066-4.938-7.167-4.732-11.709C226.831,165.941,228.109,163.738,230.323,162.075"
			/>
		<path id="Fill-3" fill="#FFFFFF" d="M30.489,153.936c-0.583,0-1.172-0.004-1.768-0.014c5.628-3.911,8.808-9.859,8.505-16.581
			c-0.129-2.739-1.593-5.231-4.233-7.216l-0.199-0.148l-0.216-0.125C14.643,119.577,4.5,104.553,4.018,87.549
			C3.032,46.088,42.379,15.527,81.757,6.777c8.304-1.842,16.618-2.776,24.711-2.776c37.729,0,64.451,19.467,71.481,52.074
			c4.885,22.354,1.088,42.685-10.979,58.808c-12.966,17.323-34.117,27.856-59.563,29.658c-3.203,0.25-6.537,0.375-9.938,0.375
			h-0.001c-8.042,0-16.649-0.663-27.088-2.087l-1.721-0.235l-1.346,1.098C58.854,150.584,46.808,153.936,30.489,153.936"/>
	</g>
</g>
</svg>
