<?xml version="1.0" encoding="utf-8"?>
<!-- Generator: Adobe Illustrator 16.0.0, SVG Export Plug-In . SVG Version: 6.00 Build 0)  -->
<!DOCTYPE svg PUBLIC "-//W3C//DTD SVG 1.1//EN" "http://www.w3.org/Graphics/SVG/1.1/DTD/svg11.dtd">
<svg version="1.1" id="Layer_1" xmlns="http://www.w3.org/2000/svg" xmlns:xlink="http://www.w3.org/1999/xlink" x="0px" y="0px"
	 width="350px" height="3000px" viewBox="0 0 350 3000" enable-background="new 0 0 350 3000" xml:space="preserve">
<path opacity="0.04" fill="#010101" enable-background="new    " d="M296.939,199.51c16.101-9.02,27.521-22.86,28.041-40.82
	c0.946-39.09-36.61-67.67-74.16-75.79c-0.49-0.11-0.98-0.17-1.471-0.27c2.447,24.93-3.619,48.32-17.779,66.9
	c-14.391,18.89-35.86,31.62-61.46,37.05c12.38,15.16,32.201,24.87,56.121,26.52c11.433,0.86,23.029,0,34.709-1.56
	c12.644,10.03,30.724,10.63,46.044,9.6c4.76-0.43,3.896-2.42,0.17-3.34c-7.271-1.88-12.98-7.02-12.634-14.55
	C294.609,201.55,295.9,200.27,296.939,199.51z"/>
<path opacity="0.05" fill="#010101" enable-background="new    " d="M238.12,71.03c-11.83-54.68-65.8-72.8-118.33-61.169
	C71.8,20.49,23.8,57.84,25.02,108.93c0.67,23.5,15.25,41.59,35.83,53.35c1.32,0.99,2.99,2.68,3.1,4.91
	c0.43,9.84-6.87,16.56-16.15,19.02c-4.76,1.21-5.86,3.78,0.22,4.37c19.57,1.33,42.68,0.55,58.83-12.56
	c14.93,2.03,29.75,3.17,44.35,2.03C211.25,175.82,251.27,131.08,238.12,71.03z"/>
<g opacity="0.1">
	<path d="M130.09,1668c-0.78,0-1.53-0.17-2.24-0.51c-1.23-0.601-2.16-1.631-2.59-2.92c-0.43-1.25-0.33-2.601,0.27-3.78
		C135.06,1641.8,154.4,1630,176,1630c21.6,0,40.939,11.8,50.471,30.79c0.6,1.181,0.699,2.53,0.271,3.78
		c-0.431,1.289-1.36,2.319-2.601,2.92c-0.689,0.34-1.451,0.51-2.229,0.51c-1.95,0-3.7-1.07-4.562-2.79
		c-7.81-15.55-23.66-25.21-41.35-25.21c-17.69,0-33.54,9.66-41.35,25.21C133.79,1666.93,132.04,1668,130.09,1668z"/>
	<path d="M76,1616c0,55.23,44.77,100,100,100c55.23,0,100-44.77,100-100s-44.77-100-100-100C120.77,1516,76,1560.77,76,1616z
		 M86,1616c0-49.71,40.29-90,90-90s90,40.29,90,90s-40.29,90-90,90S86,1665.71,86,1616z"/>
	<path d="M220.04,1601c0,7.73,6.28,14,14.03,14c7.74,0,14.02-6.27,14.02-14s-6.279-14-14.02-14
		C226.32,1587,220.04,1593.27,220.04,1601z M228,1601c0-3.311,2.689-6,6-6s6,2.689,6,6s-2.689,6-6,6S228,1604.311,228,1601z"/>
	<path d="M104.04,1601c0,7.73,6.28,14,14.03,14c7.74,0,14.02-6.27,14.02-14s-6.28-14-14.02-14
		C110.32,1587,104.04,1593.27,104.04,1601z M112,1601c0-3.311,2.69-6,6-6s6,2.689,6,6s-2.69,6-6,6S112,1604.311,112,1601z"/>
	<path d="M227,1624.01c-0.01-0.22-0.04-0.42-0.07-0.63c-0.539-3.399-4.029-9.489-4.93-10.38c-0.9,0.891-4.391,6.98-4.93,10.38
		c-0.041,0.21-0.062,0.41-0.07,0.63v0.181c0,2.659,2.24,4.811,5,4.811s5-2.149,5-4.811V1624.01z"/>
</g>
<g opacity="0.1">
	<path fill="#000101" d="M221.91,1282c0.779,0,1.529,0.17,2.24,0.51c1.229,0.6,2.16,1.63,2.59,2.92c0.43,1.25,0.33,2.6-0.27,3.78
		C216.939,1308.2,197.6,1320,176,1320c-21.6,0-40.94-11.8-50.47-30.79c-0.6-1.18-0.7-2.53-0.27-3.78c0.43-1.29,1.36-2.32,2.6-2.92
		c0.69-0.34,1.45-0.51,2.23-0.51c1.95,0,3.7,1.07,4.56,2.79c7.81,15.55,23.66,25.21,41.35,25.21c17.689,0,33.54-9.66,41.35-25.21
		C218.21,1283.07,219.96,1282,221.91,1282z"/>
	<path fill-rule="evenodd" clip-rule="evenodd" fill="#000101" d="M86,1261c0-49.71,40.29-90,90-90s90,40.29,90,90s-40.29,90-90,90
		S86,1310.71,86,1261z M76,1261c0,55.23,44.77,100,100,100c55.23,0,100-44.77,100-100s-44.77-100-100-100
		C120.77,1161,76,1205.77,76,1261z"/>
	<path fill-rule="evenodd" clip-rule="evenodd" fill="#000101" d="M228,1246c0-3.31,2.689-6,6-6s6,2.69,6,6s-2.689,6-6,6
		S228,1249.31,228,1246z M220.04,1246c0,7.73,6.28,14,14.03,14c7.74,0,14.02-6.27,14.02-14s-6.279-14-14.02-14
		C226.32,1232,220.04,1238.27,220.04,1246z"/>
	<path fill-rule="evenodd" clip-rule="evenodd" fill="#000101" d="M112,1246c0-3.31,2.69-6,6-6s6,2.69,6,6s-2.69,6-6,6
		S112,1249.31,112,1246z M104.04,1246c0,7.73,6.28,14,14.03,14c7.74,0,14.02-6.27,14.02-14s-6.28-14-14.02-14
		C110.32,1232,104.04,1238.27,104.04,1246z"/>
</g>
<g opacity="0.1">
	<path fill-rule="evenodd" clip-rule="evenodd" fill="#000101" d="M260.7,501.9H92.74H91.3c-32.66,0-59.24-28.3-59.24-63.04
		c0-34.08,25.24-61.84,56.92-63.06c-0.34-2-0.44-4-0.44-6.1c0-19.88,15.16-36.08,33.88-36.08c4.76,0,9.3,1.1,13.38,3
		c12.18-20.76,33.88-34.52,58.58-34.52c38.2,0,69.08,32.96,69.08,73.6v0.1c31.46,1.56,56.479,29.2,56.479,63.06
		C319.939,473.6,293.359,501.9,260.7,501.9z M273.1,366.8c-4.22-41.979-37.92-74.8-78.72-74.8c-24.92,0-47.82,12.04-62.72,32.58
		c-3.04-0.7-6.12-1.06-9.24-1.06c-23.34,0-42.48,19.2-43.88,43.34C46.14,373.1,22,402.9,22,438.86C22,479.18,53.08,512,91.3,512
		h169.4c38.22,0,69.3-32.82,69.3-73.14C330,402.96,305.66,372.98,273.1,366.8z"/>
	<path fill-rule="evenodd" clip-rule="evenodd" fill="#000101" d="M234.279,412.1c-3.319,0-6.039-2.72-6.039-6.06
		s2.72-6.06,6.039-6.06c3.341,0,6.041,2.72,6.041,6.06S237.62,412.1,234.279,412.1z M234.359,391.9
		c-7.799,0-14.119,6.34-14.119,14.14s6.32,14.12,14.119,14.12c7.801,0,14.121-6.32,14.121-14.12S242.16,391.9,234.359,391.9z"/>
	<path fill-rule="evenodd" clip-rule="evenodd" fill="#000101" d="M117.54,412.1c-3.34,0-6.04-2.72-6.04-6.06s2.7-6.06,6.04-6.06
		c3.32,0,6.02,2.72,6.02,6.06S120.86,412.1,117.54,412.1z M131.72,406.04c0-7.8-6.32-14.14-14.12-14.14
		c-7.8,0-14.12,6.34-14.12,14.14s6.32,14.12,14.12,14.12C125.4,420.16,131.72,413.84,131.72,406.04z"/>
	<path fill="#000101" d="M223.95,442.45c-0.71-0.34-1.46-0.51-2.24-0.51c-1.95,0-3.7,1.07-4.56,2.79
		c-7.811,15.55-23.66,25.21-41.351,25.21s-33.54-9.66-41.35-25.21c-0.86-1.72-2.61-2.79-4.56-2.79c-0.78,0-1.54,0.17-2.23,0.51
		c-1.24,0.6-2.17,1.63-2.6,2.92c-0.43,1.25-0.33,2.6,0.27,3.78c9.53,18.99,28.87,30.79,50.47,30.79c21.601,0,40.94-11.8,50.47-30.79
		c0.601-1.18,0.701-2.53,0.271-3.78C226.109,444.08,225.18,443.05,223.95,442.45z"/>
</g>
<g opacity="0.1">
	<path fill-rule="evenodd" clip-rule="evenodd" fill="#010202" d="M296,783c0,5.5-4.5,10-10,10H66c-5.5,0-10-4.5-10-10V633
		c0-1.11,0.9-2,2-2h236c1.1,0,2,0.89,2,2V783z M58,603c0-5.52,4.48-10,10-10h97.17c0.53,0,1.04,0.21,1.42,0.59l15.82,15.82
		c0.38,0.38,0.89,0.59,1.42,0.59H276c5.51-0.33,10,4.48,10,10v7c0,1.11-0.9,2-2,2H60c-1.1,0-2-0.89-2-2V603z M296,621.17V620
		c0-11.04-8.73-20.02-19.471-20.02c-0.25,0-0.51,0.01-0.77,0.02h-88.619l-13.48-13.49c-2.27-2.26-5.28-3.51-8.49-3.51H68
		c-11.03,0-20,8.97-20,20v23.37c-1.26,1.9-2,4.18-2,6.63v150c0,11.03,8.97,20,20,20h220c11.029,0,20-8.97,20-20V633
		C306,627.06,301.67,622.12,296,621.17z"/>
	<g>
		<path fill-rule="evenodd" clip-rule="evenodd" fill="#000101" d="M235.279,693.1c-3.319,0-6.039-2.72-6.039-6.06
			s2.72-6.06,6.039-6.06c3.341,0,6.041,2.72,6.041,6.06S238.62,693.1,235.279,693.1z M235.359,672.9
			c-7.799,0-14.119,6.34-14.119,14.14s6.32,14.12,14.119,14.12c7.801,0,14.121-6.32,14.121-14.12S243.16,672.9,235.359,672.9z"/>
		<path fill-rule="evenodd" clip-rule="evenodd" fill="#000101" d="M118.54,693.1c-3.34,0-6.04-2.72-6.04-6.06s2.7-6.06,6.04-6.06
			c3.32,0,6.02,2.72,6.02,6.06S121.86,693.1,118.54,693.1z M132.72,687.04c0-7.8-6.32-14.14-14.12-14.14
			c-7.8,0-14.12,6.34-14.12,14.14s6.32,14.12,14.12,14.12C126.4,701.16,132.72,694.84,132.72,687.04z"/>
		<path fill="#000101" d="M224.95,723.45c-0.71-0.34-1.46-0.51-2.24-0.51c-1.95,0-3.7,1.07-4.56,2.79
			c-7.811,15.55-23.66,25.21-41.351,25.21c-17.69,0-33.54-9.66-41.35-25.21c-0.86-1.72-2.61-2.79-4.56-2.79
			c-0.78,0-1.54,0.17-2.23,0.51c-1.24,0.6-2.17,1.63-2.6,2.92c-0.43,1.25-0.33,2.6,0.27,3.78c9.53,18.99,28.87,30.79,50.47,30.79
			c21.601,0,40.94-11.8,50.47-30.79c0.601-1.18,0.701-2.53,0.271-3.78C227.109,725.08,226.18,724.05,224.95,723.45z"/>
	</g>
</g>
<g opacity="0.1">
	<path fill-rule="evenodd" clip-rule="evenodd" fill="#010202" d="M295,1073c0,5.5-4.5,10-10,10H65c-5.5,0-10-4.5-10-10V923
		c0-1.11,0.9-2,2-2h236c1.1,0,2,0.89,2,2V1073z M57,893c0-5.52,4.48-10,10-10h97.17c0.53,0,1.04,0.21,1.42,0.59l15.82,15.82
		c0.38,0.38,0.89,0.59,1.42,0.59H275c5.51-0.33,10,4.48,10,10v7c0,1.11-0.9,2-2,2H59c-1.1,0-2-0.89-2-2V893z M295,911.17V910
		c0-11.04-8.73-20.02-19.471-20.02c-0.25,0-0.51,0.01-0.77,0.02h-88.619l-13.48-13.49c-2.27-2.26-5.28-3.51-8.49-3.51H67
		c-11.03,0-20,8.97-20,20v23.37c-1.26,1.9-2,4.18-2,6.63v150c0,11.03,8.97,20,20,20h220c11.029,0,20-8.97,20-20V923
		C305,917.06,300.67,912.12,295,911.17z"/>
	<g>
		<path fill-rule="evenodd" clip-rule="evenodd" fill="#000101" d="M234.279,983.1c-3.319,0-6.039-2.72-6.039-6.06
			s2.72-6.06,6.039-6.06c3.341,0,6.041,2.72,6.041,6.06S237.62,983.1,234.279,983.1z M234.359,962.9
			c-7.799,0-14.119,6.34-14.119,14.14s6.32,14.12,14.119,14.12c7.801,0,14.121-6.32,14.121-14.12S242.16,962.9,234.359,962.9z"/>
		<path fill-rule="evenodd" clip-rule="evenodd" fill="#000101" d="M117.54,983.1c-3.34,0-6.04-2.72-6.04-6.06s2.7-6.06,6.04-6.06
			c3.32,0,6.02,2.72,6.02,6.06S120.86,983.1,117.54,983.1z M131.72,977.04c0-7.8-6.32-14.14-14.12-14.14
			c-7.8,0-14.12,6.34-14.12,14.14s6.32,14.12,14.12,14.12C125.4,991.16,131.72,984.84,131.72,977.04z"/>
		<path fill="#000101" d="M223.95,1013.45c-0.71-0.34-1.46-0.51-2.24-0.51c-1.95,0-3.7,1.07-4.56,2.79
			c-7.811,15.55-23.66,25.21-41.351,25.21c-17.69,0-33.54-9.66-41.35-25.21c-0.86-1.72-2.61-2.79-4.56-2.79
			c-0.78,0-1.54,0.17-2.23,0.51c-1.24,0.6-2.17,1.63-2.6,2.92c-0.43,1.25-0.33,2.6,0.27,3.78c9.53,18.99,28.87,30.79,50.47,30.79
			c21.601,0,40.94-11.8,50.47-30.79c0.601-1.18,0.701-2.53,0.271-3.78C226.109,1015.08,225.18,1014.05,223.95,1013.45z"/>
	</g>
</g>
</svg>
