<?xml version="1.0" encoding="utf-8"?>
<!-- Generator: Adobe Illustrator 16.0.0, SVG Export Plug-In . SVG Version: 6.00 Build 0)  -->
<!DOCTYPE svg PUBLIC "-//W3C//DTD SVG 1.1//EN" "http://www.w3.org/Graphics/SVG/1.1/DTD/svg11.dtd">
<svg version="1.1" id="Layer_1" xmlns="http://www.w3.org/2000/svg" xmlns:xlink="http://www.w3.org/1999/xlink" x="0px" y="0px"
	 width="350px" height="3000px" enable-background="new 0 0 350 3000" xml:space="preserve">
<path opacity="0.05" fill="#010101" enable-background="new    " d="M31,439.02c0,34.433,26.4,62.48,58.85,62.48h1.43H258.15
	c32.449,0,58.85-28.05,58.85-62.48c0-33.549-24.859-60.938-56.1-62.479v-0.11c0-40.26-30.69-72.93-68.643-72.93
	c-24.53,0-46.09,13.641-58.19,34.21c-4.07-1.87-8.58-2.97-13.31-2.97c-18.59,0-33.66,16.06-33.66,35.75c0,2.09,0.11,4.07,0.44,6.05
	C56.08,377.75,31,405.25,31,439.02z"/>
<g>
	<path opacity="0.04" fill="#010101" enable-background="new    " d="M296.939,199.51c16.101-9.02,27.521-22.86,28.041-40.82
		c0.947-39.09-36.61-67.67-74.16-75.79c-0.49-0.11-0.98-0.17-1.471-0.27c2.448,24.93-3.619,48.32-17.779,66.9
		c-14.391,18.89-35.86,31.62-61.46,37.05c12.38,15.16,32.201,24.87,56.121,26.52c11.432,0.86,23.029,0,34.709-1.56
		c12.643,10.03,30.723,10.63,46.043,9.6c4.76-0.43,3.897-2.42,0.17-3.34c-7.271-1.88-12.98-7.02-12.633-14.55
		C294.609,201.55,295.9,200.27,296.939,199.51z"/>
	<path opacity="0.05" fill="#010101" enable-background="new    " d="M238.12,71.03c-11.83-54.68-65.8-72.8-118.33-61.169
		C71.8,20.49,23.8,57.84,25.02,108.93c0.67,23.5,15.25,41.59,35.83,53.35c1.32,0.99,2.99,2.68,3.1,4.91
		c0.43,9.84-6.87,16.56-16.15,19.02c-4.76,1.21-5.86,3.78,0.22,4.37c19.57,1.33,42.68,0.55,58.83-12.56
		c14.93,2.03,29.75,3.17,44.35,2.03C211.25,175.82,251.27,131.08,238.12,71.03z"/>
</g>
<g opacity="0.05">
	<path fill="#010101" d="M274,1047.58c0,2.38-2.04,4.42-4.42,4.42H240c-0.17-15.811-3.15-18.96-4.59-20.49
		c-3.061-3.05-15.051-9.09-24.99-13.68c0.25-0.85,0.68-1.79,1.189-2.04c1.111-0.42,4.591-2.12,4.591-2.12
		c0-0.26,0.42-1.02,0.51-1.79c0-0.85-0.51-1.78-0.51-1.78c-0.421-0.938-2.12-3.148-2.63-4.85s-1.03-6.12-1.03-6.12
		c0-0.938-1.36-1.358-2.29-1.78c-1.529-0.77-4.17-10.198-4.17-10.198c0-3.07-0.08-1.71-0.08-3.91v-8.25
		c0-10.11,10.87-16.49,21.08-16.49h0.34c10.21,0,21.08,6.38,21.08,16.49v8.25c0,2.2-0.08,0.84-0.08,3.91c0,0-1.96,9.43-3.49,10.198
		c-0.93,0.42-2.64,0.842-2.64,1.78c0,0-0.681,4.42-1.19,6.12c-0.42,1.7-2.3,3.91-2.709,4.85c0,0-0.561,0.932-0.561,1.78
		c0.09,0.771,0.48,1.53,0.48,1.79c0,0,3.479,1.7,4.59,2.12c1.1,0.51,1.6,3.57,1.6,4.42c4.01,1.36,25.33,11.22,27.8,13.69
		c1.7,1.778,1.7,12.318,1.7,12.318V1047.58z M231.5,1054.89c0,3.062-2.55,5.61-5.609,5.61H118.11c-3.06,0-5.61-2.55-5.61-5.61
		v-1.698c0,0,0-13.432,2.21-15.722c3.06-3.148,30.26-15.729,35.36-17.43c0-1.1,0.6-4.93,2.04-5.61c1.36-0.51,5.87-2.72,5.87-2.72
		c0-0.34,0.51-1.27,0.59-2.29c0-1.108-0.59-2.21-0.59-2.21c-0.6-1.2-2.81-4-3.4-6.21c-0.6-2.21-1.28-7.82-1.28-7.82
		c0-1.188-1.79-1.698-2.89-2.3c-1.96-0.93-4.55-12.91-4.55-12.91c0-3.908,0.64-2.21,0.64-5.02v-10.46
		c0-12.83,12.33-20.99,25.25-20.99h0.5c12.92,0,25.25,8.16,25.25,20.99v10.46c0,2.81,0.641,1.11,0.641,5.02
		c0,0-2.101,11.98-4.061,12.91c-1.1,0.602-3.141,1.11-3.141,2.3c0,0-0.789,5.61-1.392,7.82c-0.601,2.21-2.868,5.01-3.46,6.21
		c0,0-0.63,1.102-0.63,2.21c0.08,1.021,0.58,1.95,0.58,2.29c0,0,4.5,2.21,5.858,2.72c1.449,0.682,2.039,4.512,2.039,5.61
		c5.103,1.7,32.291,14.28,35.353,17.43c2.21,2.29,2.21,15.722,2.21,15.722L231.5,1054.89L231.5,1054.89z M104,1052H74.42
		c-2.38,0-4.42-2.04-4.42-4.42v-1.36c0,0,0-10.54,1.7-12.318c2.47-2.472,23.8-12.33,27.8-13.69c0-0.85,0.5-3.91,1.61-4.42
		c1.11-0.42,4.59-2.12,4.59-2.12c0-0.26,0.42-1.02,0.51-1.79c0-0.85-0.51-1.78-0.51-1.78c-0.43-0.938-2.21-3.148-2.63-4.85
		c-0.51-1.7-1.02-6.12-1.02-6.12c0-0.938-1.37-1.358-2.3-1.78c-1.53-0.77-4.17-10.198-4.17-10.198c0-3.07-0.08-1.71-0.08-3.91v-8.25
		c0-10.11,10.88-16.49,21.08-16.49h0.34c10.2,0,21.08,6.38,21.08,16.49v8.25c0,2.2-0.08,0.84-0.08,3.91c0,0-1.96,9.43-3.49,10.198
		c-0.93,0.421-2.63,0.842-2.63,1.78c0,0-0.69,4.42-1.2,6.12c-0.51,1.7-2.29,3.91-2.71,4.85c0,0-0.56,0.932-0.56,1.78
		c0.09,0.771,0.48,1.53,0.48,1.79c0,0,3.48,1.7,4.59,2.12c0.51,0.25,0.93,1.19,1.19,2.04c-9.95,4.59-21.94,10.63-25,13.68
		C107.15,1033.04,104.17,1036.189,104,1052z M44.5,924.5v153c0,4.689,3.81,8.5,8.5,8.5h238c4.689,0,8.5-3.811,8.5-8.5v-153H44.5z"/>
	<path fill="#010101" d="M282.5,907.5c0-4.69-3.811-8.5-8.5-8.5h-85l-17-17H53c-4.69,0-8.5,3.81-8.5,8.5v8.5v17h238V907.5z"/>
</g>
<g opacity="0.05">
	<path fill="#010101" d="M44.5,634.5v153c0,4.69,3.81,8.5,8.5,8.5h238c4.689,0,8.5-3.81,8.5-8.5v-153H44.5z"/>
	<path fill="#010101" d="M282.5,617.5c0-4.69-3.811-8.5-8.5-8.5h-85l-17-17H53c-4.69,0-8.5,3.81-8.5,8.5v8.5v17h238V617.5z"/>
</g>
<g>
	<path opacity="0.05" enable-background="new    " d="M232.66,1316.16c-4.641-4.76-45.78-23.79-53.49-26.36
		c0-1.68-0.9-7.45-3.09-8.489c-2.06-0.771-8.86-4.109-8.86-4.109c0-0.511-0.78-1.94-0.9-3.47c0-1.682,0.9-3.341,0.9-3.341
		c0.9-1.811,4.24-6.051,5.13-9.391c0.91-3.34,1.94-11.82,1.94-11.82c0-1.81,2.7-2.579,4.37-3.47c2.949-1.42,5.4-19.55,5.4-19.55
		c0-5.91-2.451-3.35-2.451-7.59v-15.801c0-19.42-15.679-31.771-35.229-31.771h-0.76c-19.55,0-35.23,12.351-35.23,31.771v15.801
		c0,4.24-2.45,1.68-2.45,7.59c0,0,2.45,18.13,5.4,19.55c1.67,0.891,4.37,1.66,4.37,3.47c0,0,1.03,8.48,1.94,11.82
		c0.89,3.34,4.23,7.58,5.13,9.391c0,0,0.9,1.659,0.9,3.341c-0.12,1.528-0.9,2.959-0.9,3.47c0,0-6.8,3.34-8.86,4.109
		c-2.19,1.039-3.09,6.811-3.09,8.489c-7.71,2.57-48.86,21.602-53.49,26.36c-3.34,3.47-3.34,23.79-3.34,23.79v2.569
		c0,4.62,3.85,8.479,8.49,8.479h163.02c4.631,0,8.49-3.859,8.49-8.479v-2.569C236,1339.95,236,1319.63,232.66,1316.16z"/>
	<path opacity="0.04" enable-background="new    " d="M293.4,1316.9c-3.602-3.7-35.602-18.511-41.602-20.5
		c0-1.302-0.71-5.791-2.408-6.602c-1.58-0.6-6.9-3.199-6.9-3.199c0-0.391-0.59-1.511-0.69-2.689c0-1.32,0.69-2.61,0.69-2.61
		c0.71-1.398,3.3-4.699,4-7.3c0.71-2.6,1.51-9.2,1.51-9.2c0-1.409,2.1-2,3.4-2.689c2.3-1.109,4.35-15.209,4.35-15.209
		c0-4.59-1.75-2.61-1.75-5.9v-12.3c0-15.101-12.5-24.7-27.689-24.7h-0.609c-15.2,0-27.7,9.601-27.7,24.7v12.3
		c0,3.29-1.75,1.312-1.75,5.9c0,0,1.979,14.1,4.278,15.209c1.291,0.689,3.432,1.281,3.432,2.689c0,0,0.818,6.602,1.53,9.2
		c0.698,2.6,3.31,5.9,4.01,7.3c0,0,0.7,1.29,0.7,2.61c-0.102,1.18-0.689,2.3-0.689,2.689c0,0-5.32,2.601-6.9,3.199
		c-1.449,0.69-2.17,4.04-2.35,5.83c14.329,6.61,31.239,15.04,34.551,18.44c3.778,3.93,4.188,19.409,4.188,25.88v2.568
		c0,0.5-0.04,0.99-0.108,1.48h50.51c3.609,0,6.6-2.99,6.6-6.6v-1.99C296,1335.41,296,1319.609,293.4,1316.9z"/>
</g>
<g opacity="0.1">
	<path d="M129.09,1668c-0.78,0-1.53-0.17-2.24-0.51c-1.23-0.6-2.16-1.631-2.59-2.92c-0.43-1.25-0.33-2.6,0.27-3.78
		C134.06,1641.8,153.4,1630,175,1630s40.939,11.8,50.471,30.79c0.6,1.181,0.699,2.53,0.27,3.78c-0.43,1.289-1.36,2.32-2.6,2.92
		c-0.69,0.34-1.451,0.51-2.23,0.51c-1.95,0-3.7-1.07-4.561-2.79c-7.81-15.55-23.66-25.21-41.35-25.21s-33.54,9.66-41.35,25.21
		C132.79,1666.93,131.04,1668,129.09,1668z"/>
	<path fill-rule="evenodd" clip-rule="evenodd" d="M75,1616c0,55.23,44.77,100,100,100c55.23,0,100-44.77,100-100
		s-44.77-100-100-100C119.77,1516,75,1560.77,75,1616z M85,1616c0-49.71,40.29-90,90-90s90,40.29,90,90s-40.29,90-90,90
		S85,1665.71,85,1616z"/>
	<path fill-rule="evenodd" clip-rule="evenodd" d="M219.04,1601c0,7.73,6.28,14,14.03,14c7.74,0,14.02-6.27,14.02-14
		s-6.279-14-14.02-14C225.32,1587,219.04,1593.27,219.04,1601z M227,1601c0-3.311,2.689-6,6-6s6,2.689,6,6s-2.689,6-6,6
		S227,1604.311,227,1601z"/>
	<path fill-rule="evenodd" clip-rule="evenodd" d="M103.04,1601c0,7.73,6.28,14,14.03,14c7.74,0,14.02-6.27,14.02-14
		s-6.28-14-14.02-14C109.32,1587,103.04,1593.27,103.04,1601z M111,1601c0-3.311,2.69-6,6-6s6,2.689,6,6s-2.69,6-6,6
		S111,1604.311,111,1601z"/>
	<path fill-rule="evenodd" clip-rule="evenodd" d="M226,1624.01c-0.01-0.22-0.04-0.42-0.07-0.63
		c-0.539-3.399-4.029-9.489-4.93-10.38c-0.9,0.891-4.391,6.98-4.93,10.38c-0.041,0.21-0.061,0.41-0.07,0.63v0.18
		c0,2.66,2.24,4.811,5,4.811s5-2.15,5-4.811V1624.01z"/>
</g>
<g opacity="0.1">
	<path d="M226.311,1984c0.869,0,1.709,0.17,2.5,0.51c1.379,0.6,2.41,1.641,2.899,2.92c0.47,1.25,0.37,2.6-0.3,3.78
		C220.76,2010.2,199.141,2022,175,2022s-45.76-11.8-56.41-30.79c-0.67-1.181-0.77-2.53-0.3-3.78c0.49-1.279,1.52-2.32,2.9-2.92
		c0.79-0.34,1.63-0.51,2.5-0.51c2.19,0,4.14,1.07,5.1,2.79c8.729,15.55,26.44,25.21,46.21,25.21s37.48-9.66,46.21-25.21
		C222.17,1985.07,224.13,1984,226.311,1984z"/>
	<path fill-rule="evenodd" clip-rule="evenodd" d="M75,1956c0,55.23,44.77,100,100,100c55.23,0,100-44.77,100-100
		s-44.77-100-100-100C119.77,1856,75,1900.77,75,1956z M85,1956c0-49.71,40.29-90,90-90s90,40.29,90,90s-40.29,90-90,90
		S85,2005.71,85,1956z"/>
	<path fill-rule="evenodd" clip-rule="evenodd" d="M219.04,1951c0,7.73,6.28,14,14.03,14c7.74,0,14.02-6.27,14.02-14
		s-6.279-14-14.02-14C225.32,1937,219.04,1943.27,219.04,1951z M227,1951c0-3.311,2.689-6,6-6s6,2.689,6,6s-2.689,6-6,6
		S227,1954.311,227,1951z"/>
	<path fill-rule="evenodd" clip-rule="evenodd" d="M103.04,1951c0,7.73,6.28,14,14.03,14c7.74,0,14.02-6.27,14.02-14
		s-6.28-14-14.02-14C109.32,1937,103.04,1943.27,103.04,1951z M111,1951c0-3.311,2.69-6,6-6s6,2.689,6,6s-2.69,6-6,6
		S111,1954.311,111,1951z"/>
</g>
</svg>
