<?xml version="1.0" encoding="utf-8"?>
<!-- Generator: Adobe Illustrator 16.0.0, SVG Export Plug-In . SVG Version: 6.00 Build 0)  -->
<!DOCTYPE svg PUBLIC "-//W3C//DTD SVG 1.1//EN" "http://www.w3.org/Graphics/SVG/1.1/DTD/svg11.dtd">
<svg version="1.1" id="Layer_1" xmlns:sketch="http://www.bohemiancoding.com/sketch/ns"
	 xmlns="http://www.w3.org/2000/svg" xmlns:xlink="http://www.w3.org/1999/xlink" x="0px" y="0px" width="308px" height="2086px"
	 viewBox="0 0 308 2086" enable-background="new 0 0 308 2086" xml:space="preserve">
<title>Slice 1</title>
<desc>Created with Sketch.</desc>
<path id="Shape_19_" sketch:type="MSShapeGroup" opacity="0.1" enable-background="new    " d="M203,1828c0-17.67,14.33-32,32-32
	s32,14.33,32,32s-14.33,32-32,32S203,1845.67,203,1828L203,1828z"/>
<circle id="Oval" sketch:type="MSShapeGroup" opacity="0.1" enable-background="new    " cx="188" cy="1865" r="12">
</circle>
<path id="Shape_20_" sketch:type="MSShapeGroup" fill="#FFFFFF" d="M231.529,1845.311c0.531,0.473,1.201,0.689,2.021,0.689
	c0.89,0,1.591-0.25,2.091-0.779c0.5-0.531,0.75-1.271,0.75-2.201c0-0.97-0.25-1.72-0.75-2.236c-0.5-0.514-1.188-0.779-2.091-0.779
	c-1.88,0-2.819,1.02-2.819,3.02C230.73,1844.08,231,1844.84,231.529,1845.311L231.529,1845.311z M234.92,1836v-0.73
	c0-1.406,0.25-2.535,0.78-3.379c0.521-0.841,1.579-1.891,3.21-3.17c2.01-1.631,3.32-2.811,3.93-3.551
	c0.61-0.73,1.08-1.51,1.391-2.34c0.319-0.812,0.474-1.771,0.474-2.85c0-2.53-0.845-4.5-2.53-5.895c-1.688-1.39-4.062-2.09-7.09-2.09
	c-3.279,0-6.438,0.891-9.438,2.67l1.42,3.354c1.526-0.75,2.91-1.289,4.106-1.58c1.21-0.279,2.438-0.439,3.71-0.439
	c1.96,0,3.46,0.41,4.514,1.189c1.049,0.791,1.58,1.92,1.58,3.391c0,1.17-0.304,2.17-0.86,3c-0.562,0.83-1.938,2.062-4.109,3.699
	c-1.579,1.221-2.659,2.358-3.229,3.438c-0.579,1.079-0.856,2.449-0.856,4.119v1.16L234.92,1836L234.92,1836z"/>
<g id="Page-1" transform="translate(25.000000, 0.000000)" sketch:type="MSShapeGroup" opacity="0.1">
	<g id="Imported-Layers-2">
		<path id="Fill-1" fill="#0B0B0A" d="M232.727,165.273c13.359-7.655,22.825-19.441,23.258-34.742
			c0.791-33.266-30.373-57.59-61.527-64.513c-3.689-0.819-7.396-1.396-11.07-1.756c-0.354-2.961-0.854-5.971-1.521-9.03
			c-10.09-46.8-56.149-62.3-100.969-52.36c-40.95,9.1-81.91,41.07-80.87,84.79c0.569,20.109,13.009,35.6,30.569,45.66
			c1.131,0.85,2.551,2.289,2.641,4.199c0.379,8.42-5.851,14.17-13.77,16.271c-4.07,1.05-5,3.239,0.18,3.739
			c16.71,1.15,36.429,0.479,50.199-10.739c12.75,1.739,25.391,2.71,37.851,1.739c5.059-0.358,9.948-1.059,14.646-2.072
			c9.297,17.365,28.12,28.714,51.727,30.386c9.48,0.739,19.101,0,28.801-1.323c10.479,8.537,25.479,9.047,38.193,8.172
			c3.941-0.381,3.233-2.045,0.138-2.846c-6.023-1.598-10.767-5.973-10.478-12.38C230.785,167.016,231.865,165.92,232.727,165.273"/>
		<path id="Fill-2" fill="#FFFFFF" d="M230.323,162.075l0.198-0.148l0.215-0.124c17.104-9.802,20.998-22.478,21.25-31.365
			c0.738-31.045-28.82-53.941-58.399-60.515c-3.954-0.877-7.909-1.479-11.823-1.804c1.412,18.027-3.059,34.423-13.188,47.962
			c-10.144,13.55-25.136,23.038-43.197,27.614c1.238,2.426,2.687,4.755,4.351,6.975c9.692,12.955,25.543,20.834,44.647,22.186
			c2.394,0.188,4.899,0.283,7.467,0.283c6.072,0,12.579-0.503,20.479-1.58l1.724-0.235l1.349,1.098
			c6.023,4.909,14.562,7.392,26.063,7.568c-3.199-3.066-4.938-7.167-4.731-11.709C226.831,165.941,228.109,163.738,230.323,162.075"
			/>
		<path id="Fill-3" fill="#FFFFFF" d="M30.489,153.936c-0.583,0-1.172-0.004-1.768-0.014c5.628-3.911,8.808-9.859,8.505-16.581
			c-0.129-2.739-1.593-5.231-4.233-7.216l-0.199-0.148l-0.216-0.125C14.643,119.577,4.5,104.553,4.018,87.549
			C3.032,46.088,42.379,15.527,81.757,6.777c8.304-1.842,16.618-2.776,24.711-2.776c37.729,0,64.451,19.467,71.481,52.074
			c4.885,22.354,1.088,42.685-10.979,58.808c-12.968,17.323-34.117,27.856-59.563,29.658c-3.203,0.25-6.537,0.375-9.938,0.375
			h-0.001c-8.042,0-16.649-0.663-27.088-2.087l-1.721-0.235l-1.346,1.098C58.854,150.584,46.808,153.936,30.489,153.936"/>
	</g>
</g>
<g id="empty-cloud" sketch:type="MSLayerGroup">
	<path id="Fill-1_3_" sketch:type="MSShapeGroup" opacity="0.1" fill="#0B0B0A" enable-background="new    " d="M11,423.519
		C11,457.95,37.4,486,69.85,486h168.3C270.6,486,297,457.95,297,423.519c0-33.548-24.859-60.938-56.1-62.479v-0.11
		c0-40.26-30.69-72.93-68.642-72.93c-24.529,0-46.09,13.64-58.189,34.21c-4.07-1.87-8.58-2.97-13.311-2.97
		c-18.59,0-33.66,16.06-33.66,35.75c0,2.09,0.11,4.069,0.44,6.05C36.08,362.25,11,389.75,11,423.519"/>
	<path id="Fill-2_2_" sketch:type="MSShapeGroup" fill="#FFFFFF" d="M69.85,482C39.605,482,15,455.766,15,423.519
		c0-31.656,23.146-57.346,52.693-58.481l4.539-0.175l-0.748-4.48c-0.262-1.577-0.385-3.291-0.385-5.392
		c0-17.507,13.305-31.75,29.66-31.75c3.963,0,7.879,0.877,11.639,2.604l3.287,1.51l1.832-3.116
		C129.393,304.052,149.855,292,172.26,292c35.643,0,64.641,30.922,64.641,68.93v3.918l3.804,0.188
		C270.027,366.481,293,392.17,293,423.519C293,455.766,268.395,482,238.15,482H69.85"/>
</g>
<g id="Fill-1-_x2B_-Fill-3" transform="translate(19.000000, 252.000000)" sketch:type="MSLayerGroup">
	<path id="Fill-1_2_" sketch:type="MSShapeGroup" opacity="0.1" fill="#0B0B0A" enable-background="new    " d="M25,539
		c-7.721,0-14-6.28-14-14V375c0-1.85,0.842-3.508,2.163-4.609C13.057,369.944,13,369.478,13,369v-24c0-7.72,6.279-14,14-14h97.17
		c1.604,0,3.112,0.626,4.248,1.761L143.657,348h91.235c0.215-0.011,0.43-0.016,0.643-0.016c7.425,0,13.465,6.287,13.465,14.016v7h4
		c3.309,0,6,2.691,6,6v150c0,7.72-6.279,14-14,14H25"/>
	<path id="Fill-2_1_" sketch:type="MSShapeGroup" fill="#FFFFFF" d="M255,525c0,5.5-4.5,10-10,10H25c-5.5,0-10-4.5-10-10V375
		c0-1.11,0.9-2,2-2h236c1.1,0,2,0.89,2,2V525L255,525z M17,345c0-5.52,4.48-10,10-10h97.17c0.53,0,1.04,0.21,1.42,0.59l15.82,15.82
		c0.38,0.38,0.89,0.59,1.42,0.59H235c5.51-0.33,10,4.48,10,10v7c0,1.11-0.9,2-2,2H19c-1.1,0-2-0.89-2-2V345L17,345z"/>
</g>
<g id="Imported-Layers-7" transform="translate(19.000000, 543.000000)" sketch:type="MSLayerGroup">
	<path id="Fill-1_1_" sketch:type="MSShapeGroup" opacity="0.1" enable-background="new    " d="M255.27,773.114
		c-4.055-4.164-31.287-16.766-40.78-20.591c-0.46-2.533-1.595-6.019-4.384-7.34l-0.143-0.066l-0.061-0.059
		c-0.793-0.301-2.902-1.368-4.902-2.291v-0.006c0-0.186,0.047-0.453,0.146-0.652c0.123-0.242,0.5-0.889,0.838-1.405
		c1.17-1.799,2.754-4.263,3.397-6.649c0.609-2.228,1.22-6.658,1.485-8.726c0.117-0.056,0.246-0.11,0.35-0.157
		c0.359-0.164,0.736-0.326,1.053-0.49c1.388-0.674,4.238-2.239,6.566-18.199l0.163-0.287v-0.29c0-3.092-0.937-4.673-2-5.944v-12.256
		C217,671.072,203.673,659,185.312,659h-0.614C166.331,659,153,671.072,153,687.704v12.256c-1.064,1.271-2,2.853-2,5.944v0.278
		l0.162,0.277c2.24,15.953,5.167,17.543,6.566,18.22c0.322,0.169,0.685,0.336,1.057,0.505c0.102,0.048,0.221,0.104,0.341,0.157
		c0.272,2.068,0.894,6.487,1.499,8.7c0.645,2.385,2.241,4.835,3.407,6.623c0.345,0.528,0.772,1.185,0.892,1.424l0.055,0.103
		c0.027,0.055,0.147,0.357,0.196,0.576c-1.917,0.922-4.198,1.99-4.991,2.291l-0.146,0.059l-0.145,0.066
		c-2.522,1.196-3.699,4.149-4.248,6.688c-5.608-2.551-10.547-4.692-13.763-5.957c-0.479-3.053-1.75-7.642-5.09-9.218l-0.144-0.068
		l-0.149-0.056c-1.138-0.432-4.368-1.953-6.963-3.207c-0.091-0.272-0.171-0.548-0.211-0.784c0.047-0.412,0.261-0.994,0.407-1.275
		l0.065-0.129c0.185-0.369,0.704-1.17,1.207-1.943c1.451-2.237,3.438-5.305,4.209-8.188c0.822-3.042,1.668-9.421,1.951-11.667
		c0.322-0.168,0.729-0.356,1.02-0.489c0.444-0.204,0.871-0.405,1.26-0.608c1.502-0.728,4.854-2.634,7.549-22.584L147,685.43v-0.269
		c0-3.953-0.707-5.75-2.217-7.296c-0.004-0.077,0.217-0.174,0.217-0.292V661.77c0-20.727-16.891-35.77-39.623-35.77h-0.754
		C81.891,626,65,641.043,65,661.77v15.804c0,0.119,0.221,0.215,0.217,0.292C63.707,679.41,63,681.207,63,685.16v0.269l0.008,0.268
		c2.693,19.95,6.031,21.856,7.533,22.584c0.391,0.204,0.822,0.404,1.27,0.609c0.287,0.132,0.696,0.32,1.021,0.489
		c0.284,2.246,1.13,8.622,1.95,11.652c0.773,2.897,2.762,5.965,4.214,8.203c0.502,0.772,1.021,1.573,1.206,1.942l0.049,0.099
		c0.162,0.31,0.377,0.895,0.425,1.307c-0.041,0.236-0.12,0.512-0.211,0.784c-2.56,1.234-5.839,2.78-6.963,3.207l-0.149,0.056
		l-0.144,0.068c-3.34,1.577-4.61,6.165-5.091,9.218c-5.42,2.132-15.715,6.744-25.916,11.637
		c-15.311,7.345-24.303,12.329-26.743,14.836C11.579,776.421,11,790.761,11,798.949v2.565C11,808.399,16.604,814,23.488,814h163.024
		c4.914,0,9.164-2.862,11.2-7h50.687c5.846,0,10.602-4.756,10.602-10.602v-1.993C259,786.464,258.355,776.328,255.27,773.114"/>
	<path id="Fill-2_3_" sketch:type="MSShapeGroup" fill="#FFFFFF" d="M191.659,775.16c-4.634-4.758-45.777-23.795-53.488-26.355
		c0-1.682-0.903-7.459-3.087-8.488c-2.061-0.78-8.863-4.114-8.863-4.114c0-0.51-0.781-1.939-0.904-3.469
		c0-1.683,0.904-3.341,0.904-3.341c0.902-1.811,4.242-6.053,5.133-9.393c0.904-3.34,1.935-11.824,1.935-11.824
		c0-1.811,2.697-2.578,4.369-3.469c2.951-1.418,5.398-19.547,5.398-19.547c0-5.912-2.447-3.353-2.447-7.588V661.77
		c0-19.424-15.684-31.77-35.231-31.77h-0.754c-19.549,0-35.232,12.346-35.232,31.77v15.804c0,4.235-2.447,1.676-2.447,7.588
		c0,0,2.447,18.129,5.399,19.547c1.671,0.891,4.369,1.658,4.369,3.469c0,0,1.03,8.484,1.935,11.824
		c0.891,3.34,4.23,7.582,5.133,9.393c0,0,0.904,1.658,0.904,3.341c-0.123,1.528-0.904,2.959-0.904,3.469
		c0,0-6.803,3.334-8.863,4.114c-2.184,1.029-3.087,6.808-3.087,8.488c-7.711,2.562-48.854,21.599-53.488,26.355
		C15,778.635,15,798.949,15,798.949v2.565c0,4.628,3.855,8.484,8.488,8.484h163.023c4.634,0,8.488-3.856,8.488-8.484v-2.565
		C195,798.949,195,778.635,191.659,775.16"/>
	<path id="Fill-3_1_" sketch:type="MSShapeGroup" fill="#FFFFFF" d="M252.404,775.904c-3.607-3.704-35.604-18.513-41.603-20.504
		c0-1.304-0.709-5.795-2.409-6.603c-1.586-0.604-6.904-3.199-6.904-3.199c0-0.388-0.584-1.507-0.689-2.692
		c0-1.312,0.689-2.605,0.689-2.605c0.71-1.398,3.306-4.705,4.007-7.301c0.71-2.596,1.507-9.197,1.507-9.197
		c0-1.41,2.1-2.002,3.402-2.692c2.295-1.108,4.351-15.205,4.351-15.205c0-4.6-1.755-2.616-1.755-5.901v-12.299
		C213,672.596,200.497,663,185.312,663h-0.614C169.503,663,157,672.596,157,687.704v12.299c0,3.285-1.755,1.303-1.755,5.901
		c0,0,1.981,14.097,4.284,15.205c1.294,0.69,3.432,1.282,3.432,2.692c0,0,0.814,6.603,1.525,9.197
		c0.701,2.596,3.314,5.901,4.016,7.301c0,0,0.693,1.294,0.693,2.605c-0.096,1.187-0.688,2.306-0.688,2.692
		c0,0-5.316,2.597-6.9,3.199c-1.272,0.604-2.947,4.313-3.463,6.422c14.467,6.672,31.803,15.316,34.945,18.544
		c3.628,3.772,3.909,20.23,3.909,25.186v2.565c0,0.506-0.048,0.998-0.118,1.484h51.518c3.605,0,6.602-2.994,6.602-6.602v-1.993
		C255,794.405,255,778.607,252.404,775.904"/>
</g>
<path id="Fill-1_4_" sketch:type="MSShapeGroup" opacity="0.1" fill="#0B0B0A" enable-background="new    " d="M142.901,1607.938
	c2.207,0.016,3.996,1.818,3.996,4.019v60.291c0,2.204-1.786,3.99-3.998,3.99h-36.351c-0.791,0.02-1.674,0.03-2.554,0.03
	c-16.551,0-27.71-3.982-34.117-12.177c-0.207-0.265-32.609-61.774-34.509-65.174c-1.9-3.399-3.545-7.116-4.1-11.7
	c-0.692-5.712-0.468-11.701,2.364-16.738l13.529-25.931l-16.154-12.62c-3.479-2.718-2.717-4.951,1.706-4.989l60.524-0.524
	c1.103-0.01,2.419,0.764,2.943,1.735l30.614,56.745c2.099,3.893,0.647,5.34-3.238,3.234l-17.466-9.457l-17.661,28.886
	L142.901,1607.938z M254.577,1527.696c-0.995-1.97-3.332-2.634-5.212-1.485l-51.52,31.445c-1.884,1.148-2.559,3.66-1.51,5.602
	l24.152,44.749h-27.633l-1.113-20.544c-0.24-4.409-2.174-4.846-4.312-0.985l-30,54.118c-0.535,0.966-0.537,2.535-0.012,3.498
	l30.312,55.443c2.121,3.88,3.961,3.449,4.11-0.975l0.763-22.525h20.679c0.584,0.046,1.184,0.069,1.786,0.069
	c10.767,0,22.346-6.973,26.965-16.228c0,0,27.224-51.629,31.896-60.49c4.674-8.859,6.639-19.675,4.182-25.107L254.577,1527.696z
	 M251.82,1477.126c2.289-3.776,0.966-5.178-2.946-3.134l-19.371,10.117l-10.043-18.472c-4.397-9.843-16.479-17.825-27.028-17.825
	c-0.259,0-0.515,0.005-0.771,0.015c0,0-57.09,0.414-66.121,0.479c-9.031,0.065-19.971,1.61-25.131,9.247
	c-5.16,7.639-28.021,43.151-28.021,43.151c-1.195,1.854-0.621,4.271,1.272,5.395l51.911,30.761c1.897,1.124,4.372,0.511,5.528-1.374
	l26.521-43.229l13.422,24.708l-16.676,10.745c-3.71,2.391-3.138,4.361,1.283,4.399l60.512,0.528
	c1.104,0.011,2.461-0.748,3.038-1.698L251.82,1477.126z"/>
<path id="Fill-2_4_" sketch:type="MSShapeGroup" fill="#FFFFFF" d="M199.715,1561.176l25.039,46.392
	c24.48,1.48,54.973-7.62,49.41-32.41l-23.04-45.358L199.715,1561.176L199.715,1561.176z M188.023,1593.576l-27.039,48.78
	l27.039,49.46l0.67-19.779h24.711c9.01,0.789,20.688-5.23,25.029-13.989l31.721-59.352c-10.461,10.569-23.91,13.311-39.391,13.311
	h-41.74L188.023,1593.576L188.023,1593.576z M127.615,1533.446l27.539-44.891c-10.619-22.579-36.029-46.341-51.709-28.399
	l-27.64,42.59L127.615,1533.446L127.615,1533.446z M161.016,1528.156l54.858,0.479l29.201-48.17l-17.25,9.01l-12-22.069
	c-3.69-8.439-14.521-15.948-24.121-15.58l-66.179,0.479c14.13,4.21,22.989,14.901,30.51,28.73l20.25,37.279L161.016,1528.156
	L161.016,1528.156z M36.155,1530.906l16.049,12.54l-15.1,28.939c-7.559,13.351,5.421,26.351,13.691,30.87
	c8.139,4.46,20.77,4.99,32.579,4.829l21.241-34.74l16.049,8.691l-27.849-51.62L36.155,1530.906L36.155,1530.906z M38.515,1597.946
	l34.47,63.682c6.92,8.849,19.989,10.929,33.52,10.608h36.349v-60.301l-68.929-0.479
	C63.224,1612.105,49.215,1609.855,38.515,1597.946L38.515,1597.946z"/>
<g id="Fill-1-_x2B_-Fill-3_1_" transform="translate(19.000000, 252.000000)" sketch:type="MSLayerGroup">
	<path id="Fill-1_5_" sketch:type="MSShapeGroup" opacity="0.1" fill="#0B0B0A" enable-background="new    " d="M25,1825
		c-7.721,0-14-6.28-14-14v-150c0-1.85,0.842-3.508,2.163-4.609C13.057,1655.943,13,1655.479,13,1655v-24c0-7.72,6.279-14,14-14
		h97.17c1.604,0,3.112,0.626,4.248,1.761L143.657,1634h91.235c0.215-0.011,0.43-0.016,0.643-0.016
		c7.425,0,13.465,6.287,13.465,14.016v7h4c3.309,0,6,2.691,6,6v150c0,7.72-6.279,14-14,14H25"/>
	<path id="Fill-2_5_" sketch:type="MSShapeGroup" fill="#FFFFFF" d="M255,1811c0,5.5-4.5,10-10,10H25c-5.5,0-10-4.5-10-10v-150
		c0-1.109,0.9-2,2-2h236c1.1,0,2,0.891,2,2V1811L255,1811z M17,1631c0-5.52,4.48-10,10-10h97.17c0.53,0,1.04,0.21,1.42,0.59
		l15.82,15.82c0.38,0.38,0.89,0.59,1.42,0.59H235c5.51-0.33,10,4.479,10,10v7c0,1.109-0.9,2-2,2H19c-1.1,0-2-0.891-2-2V1631L17,1631
		z"/>
</g>
<g id="Page-1_1_" sketch:type="MSPage">
	<g id="Oval-3-_x2B_-Oval-1" sketch:type="MSLayerGroup">
		<circle id="Oval-3" sketch:type="MSShapeGroup" opacity="0.1" enable-background="new    " cx="153" cy="984" r="125">
		</circle>
		<path id="Oval-1" sketch:type="MSShapeGroup" fill="#FFFFFF" d="M153,1105c66.826,0,121-54.174,121-121
			c0-66.827-54.174-121-121-121c-66.827,0-121,54.173-121,121C32,1050.826,86.173,1105,153,1105z M96,975.002
			c0-1.106-0.895-2.002-1.998-2.002H69.998c-2.76,0-3.503-1.661-1.654-3.716l44.819-49.799c0.738-0.82,1.936-0.82,2.674,0
			l44.819,49.799c1.847,2.052,1.114,3.716-1.654,3.716h-24.004c-1.104,0-1.998,0.9-1.998,2.002v26.003
			c0,2.758-2.231,4.994-5.009,4.994h-26.981c-2.767,0-5.009-2.242-5.009-4.994V975.002z M204.99,951c2.768,0,5.01,2.243,5.01,5.004
			v36.991c0,1.107,0.895,2.005,1.998,2.005h24.004c2.76,0,3.503,1.661,1.654,3.716l-44.819,49.799c-0.738,0.82-1.937,0.819-2.674,0
			l-44.819-49.799c-1.847-2.052-1.115-3.716,1.654-3.716h24.004c1.104,0,1.998-0.898,1.998-2.005v-36.991
			c0-2.764,2.23-5.004,5.01-5.004H204.99z"/>
	</g>
</g>
</svg>
