<svg width="139" height="102" viewBox="0 0 139 102" fill="none" xmlns="http://www.w3.org/2000/svg">
<mask id="mask0_811_101" style="mask-type:alpha" maskUnits="userSpaceOnUse" x="61" y="0" width="77" height="101">
<path d="M126.548 62.0305C133.033 55.5562 137.019 46.7661 137.019 37.0848C137.019 17.1841 119.065 0.0359802 97.0538 0.0359802C73.6829 0.0359802 61.8049 17.1841 61.8049 37.0848C61.8049 47.0345 66.0141 56.0427 72.8195 62.5633L62.5981 84.3001C59.2837 91.3475 63.5951 99.3485 71.3649 99.5377L126.365 100.538C135.667 100.765 139.977 91.5642 136.117 83.0754L126.548 62.0305Z" fill="white"/>
</mask>
<g mask="url(#mask0_811_101)">
<path d="M126.548 62.0305C133.033 55.5562 137.019 46.7661 137.019 37.0848C137.019 17.1841 119.065 0.0359802 97.0538 0.0359802C73.6829 0.0359802 61.8049 17.1841 61.8049 37.0848C61.8049 47.0345 66.0141 56.0427 72.8195 62.5633L62.5981 84.3001C59.2837 91.3475 63.5951 99.3485 71.3649 99.5377L126.365 100.538C135.667 100.765 139.977 91.5642 136.117 83.0754L126.548 62.0305Z" fill="#5AB0AB"/>
</g>
<mask id="mask1_811_101" style="mask-type:alpha" maskUnits="userSpaceOnUse" x="61" y="0" width="79" height="102">
<path d="M97.0538 0.035979C119.053 -0.916409 137.019 17.1841 137.019 37.0848C137.019 46.5868 133.179 55.2303 126.906 61.6684L126.548 62.0305L136.349 83.5888L136.696 84.3727L136.924 84.9033L137.149 85.4393L137.367 85.98C137.403 86.0704 137.439 86.161 137.474 86.2517L137.682 86.7977L137.88 87.3461C137.976 87.6208 138.068 87.8962 138.155 88.1717L138.323 88.7227C138.377 88.9063 138.428 89.0899 138.476 89.2733L138.612 89.8226C140.188 96.5862 137.683 102.868 118.166 101.594L117.365 101.538L72.0404 99.139C64.3599 98.952 59.3987 91.5212 62.487 84.5433L62.5981 84.3001L72.8195 62.5633C66.0141 56.0427 61.8049 47.0345 61.8049 37.0848L61.8098 34.7178L61.8247 32.9716L61.843 31.8222L61.87 30.6852C62.3411 13.913 66.1807 1.37253 97.0538 0.035979ZM133.684 37.0848C133.684 18.5883 116.804 2.51908 97.1981 3.36786L95.9662 3.42791C95.7634 3.43893 95.5618 3.45045 95.3614 3.46248L94.1741 3.54071C93.9786 3.55476 93.7844 3.56931 93.5914 3.58437L92.4479 3.68074C92.2598 3.69781 92.0728 3.71539 91.887 3.73346L90.7868 3.84795C90.2438 3.9082 89.7115 3.97298 89.1897 4.04226L88.1601 4.18684C78.3416 5.64252 72.4099 8.7814 69.1794 13.5352C68.4357 14.6297 67.8213 15.7612 67.316 17.0114L67.1196 17.518C67.0561 17.6891 66.9944 17.8625 66.9346 18.0384L66.7606 18.5738C66.4516 19.5697 66.1968 20.647 65.9882 21.8379L65.879 22.4989L65.7786 23.1836L65.6868 23.8931C65.6722 24.0135 65.6579 24.135 65.644 24.2575L65.5646 25.0065L65.4929 25.7832L65.4289 26.5888L65.3721 27.4245L65.3223 28.2914C65.3146 28.4386 65.3071 28.5871 65.2999 28.7369L65.2601 29.6528L65.2119 31.0911L65.1871 32.0945L65.1679 33.1349L65.1539 34.2135L65.1421 35.9056L65.1399 37.0848C65.1399 45.678 68.6278 53.7445 74.7628 59.8013L75.1268 60.1553L76.8574 61.8135L65.616 85.7194C63.3962 90.4394 66.5781 95.5138 71.9627 95.7989L72.2167 95.8087L117.611 98.2118C117.954 98.2372 118.29 98.2603 118.622 98.2812L119.599 98.3372L120.544 98.3802L121.457 98.4104C121.607 98.4144 121.755 98.4178 121.902 98.4207L122.767 98.432C123.759 98.438 124.686 98.4189 125.552 98.3763L126.278 98.3341L126.975 98.2805C131.862 97.8569 134.465 96.5801 135.297 94.8165C135.964 93.4051 135.765 91.3797 134.688 88.3531L134.452 87.7125L134.192 87.0426L133.906 86.3425C133.856 86.2233 133.805 86.1028 133.753 85.981L133.43 85.2344L133.081 84.4558L122.555 61.3049L124.192 59.6704C130.251 53.6209 133.684 45.6106 133.684 37.0848Z" fill="white"/>
</mask>
<g mask="url(#mask1_811_101)">
<path d="M97.0538 0.035979C119.053 -0.916409 137.019 17.1841 137.019 37.0848C137.019 46.5868 133.179 55.2303 126.906 61.6684L126.548 62.0305L136.349 83.5888L136.696 84.3727L136.924 84.9033L137.149 85.4393L137.367 85.98C137.403 86.0704 137.439 86.161 137.474 86.2517L137.682 86.7977L137.88 87.3461C137.976 87.6208 138.068 87.8962 138.155 88.1717L138.323 88.7227C138.377 88.9063 138.428 89.0899 138.476 89.2733L138.612 89.8226C140.188 96.5862 137.683 102.868 118.166 101.594L117.365 101.538L72.0404 99.139C64.3599 98.952 59.3987 91.5212 62.487 84.5433L62.5981 84.3001L72.8195 62.5633C66.0141 56.0427 61.8049 47.0345 61.8049 37.0848L61.8098 34.7178L61.8247 32.9716L61.843 31.8222L61.87 30.6852C62.3411 13.913 66.1807 1.37253 97.0538 0.035979ZM133.684 37.0848C133.684 18.5883 116.804 2.51908 97.1981 3.36786L95.9662 3.42791C95.7634 3.43893 95.5618 3.45045 95.3614 3.46248L94.1741 3.54071C93.9786 3.55476 93.7844 3.56931 93.5914 3.58437L92.4479 3.68074C92.2598 3.69781 92.0728 3.71539 91.887 3.73346L90.7868 3.84795C90.2438 3.9082 89.7115 3.97298 89.1897 4.04226L88.1601 4.18684C78.3416 5.64252 72.4099 8.7814 69.1794 13.5352C68.4357 14.6297 67.8213 15.7612 67.316 17.0114L67.1196 17.518C67.0561 17.6891 66.9944 17.8625 66.9346 18.0384L66.7606 18.5738C66.4516 19.5697 66.1968 20.647 65.9882 21.8379L65.879 22.4989L65.7786 23.1836L65.6868 23.8931C65.6722 24.0135 65.6579 24.135 65.644 24.2575L65.5646 25.0065L65.4929 25.7832L65.4289 26.5888L65.3721 27.4245L65.3223 28.2914C65.3146 28.4386 65.3071 28.5871 65.2999 28.7369L65.2601 29.6528L65.2119 31.0911L65.1871 32.0945L65.1679 33.1349L65.1539 34.2135L65.1421 35.9056L65.1399 37.0848C65.1399 45.678 68.6278 53.7445 74.7628 59.8013L75.1268 60.1553L76.8574 61.8135L65.616 85.7194C63.3962 90.4394 66.5781 95.5138 71.9627 95.7989L72.2167 95.8087L117.611 98.2118C117.954 98.2372 118.29 98.2603 118.622 98.2812L119.599 98.3372L120.544 98.3802L121.457 98.4104C121.607 98.4144 121.755 98.4178 121.902 98.4207L122.767 98.432C123.759 98.438 124.686 98.4189 125.552 98.3763L126.278 98.3341L126.975 98.2805C131.862 97.8569 134.465 96.5801 135.297 94.8165C135.964 93.4051 135.765 91.3797 134.688 88.3531L134.452 87.7125L134.192 87.0426L133.906 86.3425C133.856 86.2233 133.805 86.1028 133.753 85.981L133.43 85.2344L133.081 84.4558L122.555 61.3049L124.192 59.6704C130.251 53.6209 133.684 45.6106 133.684 37.0848Z" fill="#5AB0AB"/>
</g>
<mask id="mask2_811_101" style="mask-type:alpha" maskUnits="userSpaceOnUse" x="52" y="1" width="77" height="101">
<path d="M117.377 62.0305C123.862 55.5562 127.847 46.7661 127.847 37.0848C127.847 17.1841 111.01 1.05196 90.2407 1.05196C69.4706 1.05196 52.6339 17.1841 52.6339 37.0848C52.6339 47.0345 56.843 56.0427 63.6484 62.5633L53.427 84.3001C50.1127 91.3475 52.3649 101.538 62.3649 101.538H115.365C124.667 101.765 130.806 91.5642 126.946 83.0754L117.377 62.0305Z" fill="white"/>
</mask>
<g mask="url(#mask2_811_101)">
<path d="M117.377 62.0305C123.862 55.5562 127.847 46.7661 127.847 37.0848C127.847 17.1841 111.01 1.05196 90.2407 1.05196C69.4706 1.05196 52.6339 17.1841 52.6339 37.0848C52.6339 47.0345 56.843 56.0427 63.6484 62.5633L53.427 84.3001C50.1127 91.3475 52.3649 101.538 62.3649 101.538H115.365C124.667 101.765 130.806 91.5642 126.946 83.0754L117.377 62.0305Z" fill="#89E6E8"/>
<path d="M90.2407 1.05196C111.01 1.05196 127.847 17.1841 127.847 37.0848C127.847 46.5868 124.008 55.2303 117.735 61.6685L117.377 62.0305L126.946 83.0754C129.493 88.678 127.686 95.0262 123.487 98.63L123.099 98.95C121.06 100.563 118.507 101.547 115.643 101.541L115.365 101.538H62.3649C54.683 101.35 50.2138 91.5709 53.3182 84.5387L53.427 84.3001L63.6484 62.5633C56.843 56.0427 52.6339 47.0345 52.6339 37.0848C52.6339 17.1841 69.4705 1.05196 90.2407 1.05196ZM90.2407 2.18896C70.0879 2.18896 53.7709 17.8231 53.7709 37.0848C53.7709 46.2854 57.5086 54.9201 64.0677 61.3854L64.435 61.7424L65.025 62.3077L54.4559 84.7839C51.3966 91.289 55.6297 100.03 62.1317 100.391L62.3649 100.401L115.393 100.401C123.666 100.603 129.345 91.5612 126.021 83.796L125.911 83.546L116.016 61.7831L116.574 61.2259C123.04 54.7705 126.71 46.2037 126.71 37.0848C126.71 17.8233 110.393 2.18896 90.2407 2.18896Z" fill="#89E6E8"/>
</g>
<path fill-rule="evenodd" clip-rule="evenodd" d="M107.233 59.4639C114.349 53.9351 118.728 45.0343 117.984 35.151C116.952 21.4267 105.835 10.3536 92.1416 9.40072C75.8196 8.26329 62.227 21.2019 62.227 37.3232C62.227 46.4395 66.5733 54.5384 73.3017 59.6491L61.8428 86.5926C60.8596 88.9044 61.3648 91.5377 65.3648 91.5377H116.365C120.365 91.5377 120.246 89.15 119.339 87.0811L107.233 59.4639Z" fill="#7ECFD6"/>
<path fill-rule="evenodd" clip-rule="evenodd" d="M107.143 59.5909C113.934 55.0164 117.966 46.0326 117.966 36.7385C117.966 22.4236 107.243 10.8191 94.0167 10.8191C80.7902 10.8191 70.0675 22.4236 70.0675 36.7385C70.0675 46.4225 74.9747 54.8663 82.2446 59.3161L67.3649 91.5377H116.365C118.734 91.5169 121.365 90.5377 119.365 86.5377L107.143 59.5909Z" fill="#17173C"/>
<mask id="mask3_811_101" style="mask-type:alpha" maskUnits="userSpaceOnUse" x="52" y="0" width="88" height="102">
<path d="M97.7126 0.013106C119.411 -0.55422 137.019 17.3831 137.019 37.0848C137.019 46.7661 133.033 55.5562 126.548 62.0305L136.117 83.0754C139.977 91.5642 144.365 103.538 117.365 101.538L116.668 101.501C116.421 101.521 116.171 101.534 115.919 101.539L115.643 101.541L115.365 101.538H62.3649L62.045 101.534C52.3171 101.319 50.1483 91.2717 53.427 84.3001L63.6484 62.5633C56.843 56.0427 52.6339 47.0345 52.6339 37.0848C52.6339 19.1591 66.2944 4.29117 84.1855 1.51656C86.059 1.12496 88.0918 0.802348 90.2949 0.551819C92.4294 0.212521 94.6825 0.035979 97.0538 0.035979L97.7126 0.013106Z" fill="white"/>
</mask>
<g mask="url(#mask3_811_101)">
<path d="M139.365 0H92.3651V102H139.365V0Z" fill="black" fill-opacity="0.05"/>
</g>
<mask id="mask4_811_101" style="mask-type:alpha" maskUnits="userSpaceOnUse" x="67" y="10" width="53" height="82">
<path d="M81.9816 58.6577L67.614 90.0248L115.752 91.205C118.142 91.1842 119.769 88.784 118.893 86.57L107.407 59.4871C114.259 54.9052 118.026 45.3529 118.026 36.0439C118.026 21.706 107.206 10.0835 93.8598 10.0835C80.5141 10.0835 69.6947 21.706 69.6947 36.0439C69.6947 45.7441 74.6462 54.2008 81.9816 58.6577Z" fill="white"/>
</mask>
<g mask="url(#mask4_811_101)">
<path fill-rule="evenodd" clip-rule="evenodd" d="M22.7374 69C18.6827 69 15.3649 65.6931 15.3649 61.6511V46.3489C15.3649 42.3069 18.6827 39 22.7374 39H117.992C122.047 39 125.365 42.3069 125.365 46.3489V61.6511C125.365 65.6931 122.047 69 117.992 69H22.7374Z" fill="#FFD34D"/>
<path fill-rule="evenodd" clip-rule="evenodd" d="M105.748 66.6111V60.2306C105.748 59.7648 105.776 59.3111 105.833 58.8742C105.89 58.4313 105.993 58.0112 106.135 57.614C105.873 57.9433 105.571 58.2323 105.223 58.4884C104.869 58.7432 104.498 58.9986 104.099 59.2547L98.5609 62.4614L96.4965 58.9764L102.069 55.769C102.491 55.5136 102.902 55.3039 103.313 55.1392C103.722 54.9745 104.145 54.8609 104.59 54.793C104.145 54.7413 103.722 54.6277 103.313 54.4409C102.902 54.2533 102.491 54.0376 102.069 53.7768L96.4965 50.5358L98.5272 47.0501L104.099 50.3254C104.498 50.5808 104.875 50.8423 105.24 51.1091C105.599 51.3813 105.913 51.6764 106.17 51.9997C106.004 51.6085 105.89 51.1884 105.833 50.7455C105.776 50.3025 105.748 49.8489 105.748 49.3831V42.9346H109.883V49.3152C109.883 49.8031 109.854 50.2743 109.797 50.7287C109.734 51.1824 109.626 51.6085 109.461 51.9997C109.717 51.6764 110.025 51.3813 110.373 51.1091C110.721 50.8423 111.108 50.5808 111.531 50.3254L117.063 47.118L119.133 50.6037L113.561 53.7768C113.139 54.0376 112.729 54.2473 112.318 54.424C111.907 54.5995 111.479 54.7191 111.04 54.793C111.833 54.9288 112.671 55.2582 113.561 55.769L119.133 59.01L117.103 62.4957L111.531 59.2547C111.108 58.9986 110.721 58.7432 110.373 58.4884C110.025 58.2323 109.706 57.9433 109.426 57.614C109.729 58.3574 109.883 59.2204 109.883 60.197V66.6111H105.748Z" fill="white"/>
</g>
<mask id="mask5_811_101" style="mask-type:alpha" maskUnits="userSpaceOnUse" x="67" y="10" width="53" height="82">
<path d="M69.6947 36.0439C69.6947 45.7441 74.6462 54.2008 81.9816 58.6577L67.614 90.0248L115.752 91.205C118.142 91.1842 119.769 88.784 118.893 86.57L106.613 58.0992C113.465 53.5173 118.026 45.3529 118.026 36.0439C118.026 21.706 107.206 10.0835 93.8598 10.0835C80.5141 10.0835 69.6947 21.706 69.6947 36.0439Z" fill="white"/>
</mask>
<g mask="url(#mask5_811_101)">
</g>
<path fill-rule="evenodd" clip-rule="evenodd" d="M87.7248 69H7.00546C3.35311 69 0.365112 65.862 0.365112 62.0277V45.9723C0.365112 42.1374 3.35311 39 7.00546 39H87.7248C91.3771 39 94.3651 42.1374 94.3651 45.9723V62.0277C94.3651 65.862 91.3771 69 87.7248 69Z" fill="#FFD34D"/>
<path fill-rule="evenodd" clip-rule="evenodd" d="M18.1645 66.8501V60.4335C18.1645 59.9651 18.1926 59.5089 18.2494 59.0695C18.3056 58.6241 18.4072 58.2016 18.5483 57.8021C18.2888 58.1333 17.9893 58.424 17.6449 58.6815C17.2945 58.9377 16.9273 59.1945 16.5321 59.4521L11.0487 62.6769L9.00378 59.1722L14.522 55.9467C14.9399 55.6899 15.3465 55.479 15.7531 55.3134C16.1597 55.1478 16.5776 55.0335 17.0183 54.9653C16.5776 54.9132 16.1597 54.799 15.7531 54.6111C15.3465 54.4225 14.9399 54.2055 14.522 53.9433L9.00378 50.684L11.0146 47.1786L16.5321 50.4724C16.9273 50.7293 17.3005 50.9922 17.6623 51.2605C18.0173 51.5343 18.3283 51.831 18.5824 52.1561C18.4186 51.7627 18.3056 51.3403 18.2494 50.8949C18.1926 50.4494 18.1645 49.9932 18.1645 49.5247V43.0399H22.259V49.4565C22.259 49.9472 22.2309 50.421 22.1747 50.878C22.1119 51.3342 22.0049 51.7627 21.841 52.1561C22.0952 51.831 22.4001 51.5343 22.7445 51.2605C23.0895 50.9922 23.4734 50.7293 23.8913 50.4724L29.3694 47.2469L31.4197 50.7522L25.9015 53.9433C25.4835 54.2055 25.0769 54.4164 24.6704 54.5942C24.2638 54.7706 23.8405 54.8909 23.4052 54.9653C24.1902 55.1018 25.0208 55.433 25.9015 55.9467L31.4197 59.206L29.4089 62.7114L23.8913 59.4521C23.4734 59.1945 23.0895 58.9377 22.7445 58.6815C22.4001 58.424 22.0838 58.1333 21.8069 57.8021C22.1065 58.5497 22.259 59.4176 22.259 60.3997V66.8501H18.1645Z" fill="white"/>
<path fill-rule="evenodd" clip-rule="evenodd" d="M47.5655 66.8501V60.4335C47.5655 59.9651 47.5936 59.5089 47.6505 59.0695C47.7066 58.6241 47.8083 58.2016 47.95 57.8021C47.6899 58.1333 47.3903 58.424 47.0459 58.6815C46.6962 58.9377 46.3291 59.1945 45.9339 59.4521L40.4498 62.6769L38.4055 59.1722L43.9231 55.9467C44.341 55.6899 44.7476 55.479 45.1542 55.3134C45.5607 55.1478 45.9787 55.0335 46.4194 54.9653C45.9787 54.9132 45.5607 54.799 45.1542 54.6111C44.7476 54.4225 44.341 54.2055 43.9231 53.9433L38.4055 50.684L40.4157 47.1786L45.9339 50.4724C46.3291 50.7293 46.7016 50.9922 47.0633 51.2605C47.4191 51.5343 47.7294 51.831 47.9835 52.1561C47.8196 51.7627 47.7066 51.3403 47.6505 50.8949C47.5936 50.4494 47.5655 49.9932 47.5655 49.5247V43.0399H51.66V49.4565C51.66 49.9472 51.632 50.421 51.5758 50.878C51.5136 51.3342 51.4059 51.7627 51.2421 52.1561C51.4962 51.831 51.8011 51.5343 52.1462 51.2605C52.4906 50.9922 52.8744 50.7293 53.2924 50.4724L58.7705 47.2469L60.8207 50.7522L55.3025 53.9433C54.8846 54.2055 54.478 54.4164 54.0714 54.5942C53.6648 54.7706 53.2416 54.8909 52.8062 54.9653C53.592 55.1018 54.4218 55.433 55.3025 55.9467L60.8207 59.206L58.8099 62.7114L53.2924 59.4521C52.8744 59.1945 52.4906 58.9377 52.1462 58.6815C51.8011 58.424 51.4848 58.1333 51.2087 57.8021C51.5076 58.5497 51.66 59.4176 51.66 60.3997V66.8501H47.5655Z" fill="white"/>
<path fill-rule="evenodd" clip-rule="evenodd" d="M76.0959 66.8501V60.4335C76.0959 59.9651 76.124 59.5089 76.1809 59.0695C76.237 58.6241 76.3387 58.2016 76.4798 57.8021C76.2203 58.1333 75.9207 58.424 75.5763 58.6815C75.2266 58.9377 74.8588 59.1945 74.4643 59.4521L68.9802 62.6769L66.9359 59.1722L72.4535 55.9467C72.8714 55.6899 73.278 55.479 73.6846 55.3134C74.0911 55.1478 74.5091 55.0335 74.9498 54.9653C74.5091 54.9132 74.0911 54.799 73.6846 54.6111C73.278 54.4225 72.8714 54.2055 72.4535 53.9433L66.9359 50.684L68.9461 47.1786L74.4643 50.4724C74.8588 50.7293 75.232 50.9922 75.5937 51.2605C75.9495 51.5343 76.2598 51.831 76.5139 52.1561C76.35 51.7627 76.237 51.3403 76.1809 50.8949C76.124 50.4494 76.0959 49.9932 76.0959 49.5247V43.0399H80.1905V49.4565C80.1905 49.9472 80.1624 50.421 80.1062 50.878C80.0433 51.3342 79.9363 51.7627 79.7725 52.1561C80.0266 51.831 80.3315 51.5343 80.6766 51.2605C81.021 50.9922 81.4048 50.7293 81.8228 50.4724L87.3009 47.2469L89.3511 50.7522L83.8329 53.9433C83.415 54.2055 83.0084 54.4164 82.6018 54.5942C82.1952 54.7706 81.772 54.8909 81.3366 54.9653C82.1217 55.1018 82.9522 55.433 83.8329 55.9467L89.3511 59.206L87.3403 62.7114L81.8228 59.4521C81.4048 59.1945 81.021 58.9377 80.6766 58.6815C80.3315 58.424 80.0153 58.1333 79.7384 57.8021C80.038 58.5497 80.1905 59.4176 80.1905 60.3997V66.8501H76.0959Z" fill="white"/>
<path fill-rule="evenodd" clip-rule="evenodd" d="M95.3649 74C95.9172 74 96.3649 74.4477 96.3649 75V77H98.3649C98.9172 77 99.3649 77.4477 99.3649 78C99.3649 78.5523 98.9172 79 98.3649 79H96.3649V81C96.3649 81.5523 95.9172 82 95.3649 82C94.8126 82 94.3649 81.5523 94.3649 81V79H92.3649C91.8126 79 91.3649 78.5523 91.3649 78C91.3649 77.4477 91.8126 77 92.3649 77L94.3649 76.999V75C94.3649 74.4477 94.8126 74 95.3649 74Z" fill="white" fill-opacity="0.2"/>
<path fill-rule="evenodd" clip-rule="evenodd" d="M78.8649 82C79.141 82 79.3649 82.2239 79.3649 82.5V84H80.8649C81.141 84 81.3649 84.2239 81.3649 84.5C81.3649 84.7761 81.141 85 80.8649 85H79.3649V86.5C79.3649 86.7761 79.141 87 78.8649 87C78.5887 87 78.3649 86.7761 78.3649 86.5V84.999L76.8649 85C76.5887 85 76.3649 84.7761 76.3649 84.5C76.3649 84.2239 76.5887 84 76.8649 84L78.3649 83.999V82.5C78.3649 82.2239 78.5887 82 78.8649 82Z" fill="white" fill-opacity="0.2"/>
<path fill-rule="evenodd" clip-rule="evenodd" d="M91.8649 32C92.141 32 92.3649 32.2239 92.3649 32.5V34H93.8649C94.141 34 94.3649 34.2239 94.3649 34.5C94.3649 34.7761 94.141 35 93.8649 35H92.3649V36.5C92.3649 36.7761 92.141 37 91.8649 37C91.5887 37 91.3649 36.7761 91.3649 36.5V34.999L89.8649 35C89.5887 35 89.3649 34.7761 89.3649 34.5C89.3649 34.2239 89.5887 34 89.8649 34L91.3649 33.999V32.5C91.3649 32.2239 91.5887 32 91.8649 32Z" fill="white" fill-opacity="0.2"/>
<path fill-rule="evenodd" clip-rule="evenodd" d="M105.865 26C106.141 26 106.365 26.2239 106.365 26.5V28H107.865C108.141 28 108.365 28.2239 108.365 28.5C108.365 28.7761 108.141 29 107.865 29H106.365V30.5C106.365 30.7761 106.141 31 105.865 31C105.589 31 105.365 30.7761 105.365 30.5V28.999L103.865 29C103.589 29 103.365 28.7761 103.365 28.5C103.365 28.2239 103.589 28 103.865 28L105.365 27.999V26.5C105.365 26.2239 105.589 26 105.865 26Z" fill="white" fill-opacity="0.2"/>
<path fill-rule="evenodd" clip-rule="evenodd" d="M77.3649 27C77.9172 27 78.3649 27.4477 78.3649 28V30H80.3649C80.9172 30 81.3649 30.4477 81.3649 31C81.3649 31.5523 80.9172 32 80.3649 32H78.3649V34C78.3649 34.5523 77.9172 35 77.3649 35C76.8126 35 76.3649 34.5523 76.3649 34V32H74.3649C73.8126 32 73.3649 31.5523 73.3649 31C73.3649 30.4477 73.8126 30 74.3649 30L76.3649 29.999V28C76.3649 27.4477 76.8126 27 77.3649 27Z" fill="white" fill-opacity="0.2"/>
<path fill-rule="evenodd" clip-rule="evenodd" d="M107.365 84C107.641 84 107.865 84.2239 107.865 84.5V85.5H108.865C109.141 85.5 109.365 85.7239 109.365 86C109.365 86.2761 109.141 86.5 108.865 86.5H107.865V87.5C107.865 87.7761 107.641 88 107.365 88C107.089 88 106.865 87.7761 106.865 87.5V86.5H105.865C105.589 86.5 105.365 86.2761 105.365 86C105.365 85.7239 105.589 85.5 105.865 85.5L106.865 85.499V84.5C106.865 84.2239 107.089 84 107.365 84Z" fill="white" fill-opacity="0.2"/>
<path fill-rule="evenodd" clip-rule="evenodd" d="M91.3649 17C91.9172 17 92.3649 17.4477 92.3649 18V20H94.3649C94.9172 20 95.3649 20.4477 95.3649 21C95.3649 21.5523 94.9172 22 94.3649 22H92.3649V24C92.3649 24.5523 91.9172 25 91.3649 25C90.8126 25 90.3649 24.5523 90.3649 24V22H88.3649C87.8126 22 87.3649 21.5523 87.3649 21C87.3649 20.4477 87.8126 20 88.3649 20L90.3649 19.999V18C90.3649 17.4477 90.8126 17 91.3649 17Z" fill="white" fill-opacity="0.2"/>
</svg>
