<?xml version="1.0" encoding="UTF-8" standalone="no"?>
<svg width="80px" height="80px" viewBox="0 0 80 80" version="1.1" xmlns="http://www.w3.org/2000/svg" xmlns:xlink="http://www.w3.org/1999/xlink">
    <!-- Generator: sketchtool 3.7.2 (28276) - http://www.bohemiancoding.com/sketch -->
    <title>8A497C73-F630-4C1B-96D7-A7B81466CEF1</title>
    <desc>Created with sketchtool.</desc>
    <defs>
        <polygon id="path-1" points="0 0.0458853131 0 30.3005482 32.9977713 30.3005482 32.9977713 0.0458853131 0 0.0458853131"></polygon>
        <polygon id="path-3" points="37.73976 28.3054616 37.73976 0.00700310119 0.112236 0.00700310119 0.112236 28.3054616"></polygon>
        <polygon id="path-5" points="0.0201284187 36 28.7619593 36 28.7619593 0.003588 0.0201284187 0.003588"></polygon>
    </defs>
    <g id="IMCD" stroke="none" stroke-width="1" fill="none" fill-rule="evenodd">
        <g id="02-banner-rollovers" transform="translate(-108.000000, -812.000000)">
            <g id="IMCD-logo-big" transform="translate(108.000000, 812.000000)">
                <g id="Page-1" transform="translate(6.000000, 4.000000)">
                    <g id="Group-3" transform="translate(0.000000, 10.560000)">
                        <mask id="mask-2" fill="white">
                            <use xlink:href="#path-1"></use>
                        </mask>
                        <g id="Clip-2"></g>
                        <path d="M31.552236,25.443588 C40.382796,-1.266372 6.072156,-3.507132 1.102716,3.337908 C-3.866604,10.182948 8.251476,42.363828 31.552236,25.443588" id="Fill-1" fill="#CCE6FF" mask="url(#mask-2)"></path>
                    </g>
                    <g id="Group-6" transform="translate(31.440000, 21.720000)">
                        <mask id="mask-4" fill="white">
                            <use xlink:href="#path-3"></use>
                        </mask>
                        <g id="Clip-5"></g>
                        <path d="M0.112236,14.283588 C8.659956,41.085348 37.740396,22.739508 37.739796,14.280828 C37.739196,5.822148 9.025596,-13.098372 0.112236,14.283588" id="Fill-4" fill="#CCE6FF" mask="url(#mask-4)"></path>
                    </g>
                    <path d="M31.552236,36.003588 C59.683596,36.158508 51.224436,2.831508 43.179756,0.217668 C35.135076,-2.396172 8.266116,19.063308 31.552236,36.003588" id="Fill-7" fill="#CCE6FF"></path>
                    <g id="Group-11" transform="translate(22.440000, 36.000000)">
                        <mask id="mask-6" fill="white">
                            <use xlink:href="#path-5"></use>
                        </mask>
                        <g id="Clip-10"></g>
                        <path d="M9.112236,0.003588 C-13.733484,16.419228 12.704676,38.402508 20.748756,35.786628 C28.792836,33.170748 37.908396,0.014028 9.112236,0.003588" id="Fill-9" fill="#CCE6FF" mask="url(#mask-6)"></path>
                    </g>
                    <path d="M31.552236,36.003588 C8.877636,19.352388 -3.854724,51.291828 1.119996,58.133028 C6.094716,64.974228 40.445196,63.392148 31.552236,36.003588" id="Fill-12" fill="#CCE6FF"></path>
                    <g id="Group-24" opacity="0.300000012" transform="translate(6.960000, 12.600000)" fill="#FFFFFF">
                        <path d="M11.7915,28.783128 C7.67358,28.783128 3.75786,27.140088 0.4677,23.981448 L0.0399,23.584008 L0.4629,23.175048 C3.86106,19.836048 7.88874,18.074448 12.11058,18.074448 C16.22622,18.074448 20.54034,19.711728 24.93306,22.937688 L25.56882,23.405328 L24.93066,23.842728 C20.3925,27.138048 15.97146,28.783128 11.79162,28.783128 L11.7915,28.783128 Z" id="Fill-14"></path>
                        <path d="M24.787356,23.983128 L24.787236,23.983128 L23.800356,23.976768 L24.044436,23.226048 C27.992316,11.098128 35.483436,8.551968 41.072436,8.551968 C41.947836,8.551968 42.852156,8.615328 43.760436,8.740728 L44.347836,8.821608 L44.249796,9.407928 C43.336956,14.850408 39.592236,23.983128 24.787356,23.983128" id="Fill-16"></path>
                        <path d="M24.25326,23.869404 C19.3869,20.329164 16.34814,16.350444 15.22134,12.043524 C14.25066,8.333124 14.70366,4.499364 16.56822,0.648804 L16.82682,0.114924 L17.3529,0.389004 C22.27662,2.954364 29.83554,9.378924 25.1391,23.584404 L24.89142,24.333564 L24.25326,23.869404 Z" id="Fill-18"></path>
                        <path d="M40.972872,38.023128 C37.252512,38.023128 33.962712,36.928608 31.195032,34.791768 C28.044432,32.359248 25.638312,28.584888 24.043512,23.584128 L23.803872,22.830048 L24.592272,22.828968 C30.612552,22.831128 35.411472,24.263088 38.855592,27.086328 C41.822472,29.518488 43.709472,32.887608 44.463792,37.101048 L44.568192,37.684608 L43.981872,37.783008 C42.962832,37.935048 41.950632,38.023128 40.973112,38.023128 L40.972872,38.023128 Z" id="Fill-20"></path>
                        <path d="M16.92276,46.285308 C14.4444,41.313828 12.10128,31.669428 24.25608,22.935828 L24.89652,22.475628 L25.14,23.225748 C26.99928,28.951548 27.12048,33.958068 25.50048,38.106228 C24.10488,41.679828 21.48384,44.515908 17.71008,46.535988 L17.18736,46.815828 L16.92276,46.285308 Z" id="Fill-22"></path>
                    </g>
                    <path d="M7.826628,36.192528 C13.245828,41.395248 21.320748,43.433328 31.552188,36.003528 C21.433788,28.573008 13.295388,30.818928 7.826628,36.192528" id="Fill-25" fill="#B7DAFA"></path>
                    <path d="M50.641716,21.911088 C43.199076,20.884368 35.466516,23.978928 31.552236,36.003648 C44.106876,36.072768 49.373316,29.473128 50.641716,21.911088" id="Fill-27" fill="#B7DAFA"></path>
                    <path d="M24.046776,13.49976 C20.773536,20.25936 21.329616,28.56684 31.552176,36.0036 C35.491896,24.08712 30.844416,17.04144 24.046776,13.49976" id="Fill-29" fill="#B7DAFA"></path>
                    <path d="M50.85672,49.802256 C49.53252,42.406176 44.19888,36.008256 31.5522,36.003576 C35.36724,47.965776 43.27248,50.934096 50.85672,49.802256" id="Fill-31" fill="#B7DAFA"></path>
                    <path d="M24.398232,58.628292 C31.022472,55.082292 35.457792,48.031932 31.552272,36.003612 C21.355872,43.330092 20.977032,51.765612 24.398232,58.628292" id="Fill-33" fill="#B7DAFA"></path>
                    <path d="M41.89386,36.20238 C41.89242,34.11666 40.66506,32.31894 38.8941,31.48806 C38.54466,31.32402 38.30166,30.98982 38.25342,30.6069 C38.00922,28.66602 36.67758,26.94414 34.69386,26.29962 C32.71218,25.6557 30.62502,26.26422 29.28642,27.68778 C29.0223,27.9687 28.62954,28.09578 28.25094,28.02306 C26.3319,27.65442 24.28422,28.38486 23.05614,30.0681 C21.82626,31.75398 21.75714,33.93078 22.69842,35.6469 C22.88418,35.98554 22.88334,36.39894 22.69626,36.73674 C21.74802,38.44902 21.80838,40.62618 23.03142,42.31686 C24.25518,44.0085 26.30562,44.74698 28.22946,44.38086 C28.60902,44.30862 29.00226,44.43714 29.2659,44.71962 C30.6021,46.15134 32.69298,46.76646 34.67958,46.1241 C36.66846,45.48102 38.0043,43.75506 38.24718,41.80926 C38.29506,41.42538 38.53866,41.09034 38.88906,40.92642 C40.66518,40.09554 41.8953,38.29266 41.89386,36.20238" id="Fill-35" fill="#FFFFFF"></path>
                    <path d="M34.295136,36.894816 C33.801216,38.415096 32.168256,39.247176 30.647976,38.753136 C29.127696,38.259216 28.295616,36.626256 28.789656,35.105976 C29.283576,33.585696 30.916536,32.753616 32.436816,33.247656 C33.957096,33.741576 34.789056,35.374536 34.295136,36.894816" id="Fill-37" fill="#666666"></path>
                    <path d="M35.671524,37.342032 C34.930524,39.622512 32.481204,40.870512 30.200724,40.129512 C27.920244,39.388512 26.672244,36.939192 27.413244,34.658712 C28.154244,32.378232 30.603564,31.130232 32.884044,31.871232 C35.164524,32.612232 36.412524,35.061552 35.671524,37.342032" id="Fill-39" fill="#405B80"></path>
                </g>
            </g>
        </g>
    </g>
</svg>