<?xml version="1.0" encoding="utf-8"?>
<!-- Generator: Adobe Illustrator 19.1.0, SVG Export Plug-In . SVG Version: 6.00 Build 0)  -->
<!DOCTYPE svg PUBLIC "-//W3C//DTD SVG 1.1//EN" "http://www.w3.org/Graphics/SVG/1.1/DTD/svg11.dtd">
<svg version="1.1" id="Layer_1" xmlns="http://www.w3.org/2000/svg" xmlns:xlink="http://www.w3.org/1999/xlink" x="0px" y="0px"
	 width="204px" height="22.2px" viewBox="0 0 204 22.2" style="enable-background:new 0 0 204 22.2;" xml:space="preserve">
<style type="text/css">
	.st0{fill:none;stroke:#000000;stroke-miterlimit:10;}
	.st1{fill:none;stroke:#F5A623;stroke-miterlimit:10;}
</style>
<g>
	<g>
		<path class="st0" d="M1,11.1C1,9,2.7,7.4,4.8,7.4h8.4c2.1,0,3.8,1.7,3.8,3.8v5.8c0,2.1-1.7,3.8-3.8,3.8H4.8C2.7,20.6,1,19,1,16.9
			V11.1z"/>
		<path class="st0" d="M10,14.2c-0.1,0.1-0.2,0.2-0.1,0.3l0.3,1.7c0.1,0.7-0.3,1.2-1,1.2H8.8c-0.7,0-1.1-0.5-1-1.2l0.3-1.5
			c0-0.2-0.1-0.3-0.2-0.5c-0.5-0.4-0.7-1-0.5-1.7c0.1-0.6,0.6-1,1.2-1.2c1.1-0.3,2.1,0.6,2.1,1.6C10.7,13.5,10.4,13.9,10,14.2z"/>
		<path class="st0" d="M4,7.5V6.6c0,0,0-5.6,5-5.6s5,5,5,5l0,1.8"/>
	</g>
	<g>
		<path class="st0" d="M87.6,18c-0.5,1.5-1.9,2.7-3.6,2.7h-8.4c-2.1,0-3.8-1.7-3.8-3.8v-5.8c0-2.1,1.7-3.8,3.8-3.8H84
			c1,0,2,0.4,2.7,1.1"/>
		<path class="st0" d="M80.8,14.2c-0.1,0.1-0.2,0.2-0.1,0.3l0.3,1.7c0.1,0.7-0.3,1.2-1,1.2h-0.3c-0.7,0-1.1-0.5-1-1.2l0.3-1.5
			c0-0.2-0.1-0.3-0.2-0.5c-0.5-0.4-0.7-1-0.5-1.7c0.1-0.6,0.6-1,1.2-1.2c0.8-0.2,1.6,0.2,1.9,0.8"/>
		<path class="st0" d="M75.1,4.6C75.6,3,76.8,1,79.8,1c5,0,5,5,5,5l0,1.8"/>
		<path class="st0" d="M78.5,14.2l5.2,0c0.4,2.2,2.4,3.8,4.7,3.8c2.6,0,4.8-2.1,4.8-4.7s-2.1-4.8-4.8-4.8c-2.3,0-4.2,1.6-4.6,3.7
			l-5,0"/>
		<circle class="st0" cx="89.8" cy="13.5" r="1.3"/>
	</g>
	<path class="st0" d="M49.3,7.7c-2.3,0-4.2,1.8-4.6,3.8H32.5v2h2v2h-2v3h2v-1h2v1h2v-3h-2v-1.8v-0.2h8.1c0.4,2,2.4,3.7,4.7,3.7
		c2.6,0,4.8-2.1,4.8-4.8S51.9,7.7,49.3,7.7z"/>
	<circle class="st0" cx="50.8" cy="12.5" r="1.3"/>
</g>
<g>
	<g>
		<path class="st1" d="M111,11.1c0-2.1,1.7-3.8,3.8-3.8h8.4c2.1,0,3.8,1.7,3.8,3.8v5.8c0,2.1-1.7,3.8-3.8,3.8h-8.4
			c-2.1,0-3.8-1.7-3.8-3.8V11.1z"/>
		<path class="st1" d="M120,14.2c-0.1,0.1-0.2,0.2-0.1,0.3l0.3,1.7c0.1,0.7-0.3,1.2-1,1.2h-0.3c-0.7,0-1.1-0.5-1-1.2l0.3-1.5
			c0-0.2-0.1-0.3-0.2-0.5c-0.5-0.4-0.7-1-0.5-1.7c0.1-0.6,0.6-1,1.2-1.2c1.1-0.3,2.1,0.6,2.1,1.6C120.7,13.5,120.4,13.9,120,14.2z"
			/>
		<path class="st1" d="M114,7.5V6.6c0,0,0-5.6,5-5.6s5,5,5,5l0,1.8"/>
	</g>
	<g>
		<path class="st1" d="M197.6,18c-0.5,1.5-1.9,2.7-3.6,2.7h-8.4c-2.1,0-3.8-1.7-3.8-3.8v-5.8c0-2.1,1.7-3.8,3.8-3.8h8.4
			c1,0,2,0.4,2.7,1.1"/>
		<path class="st1" d="M190.8,14.2c-0.1,0.1-0.2,0.2-0.1,0.3l0.3,1.7c0.1,0.7-0.3,1.2-1,1.2h-0.3c-0.7,0-1.1-0.5-1-1.2l0.3-1.5
			c0-0.2-0.1-0.3-0.2-0.5c-0.5-0.4-0.7-1-0.5-1.7c0.1-0.6,0.6-1,1.2-1.2c0.8-0.2,1.6,0.2,1.9,0.8"/>
		<path class="st1" d="M185.1,4.6c0.5-1.6,1.7-3.6,4.6-3.6c5,0,5,5,5,5l0,1.8"/>
		<path class="st1" d="M188.5,14.2l5.2,0c0.4,2.2,2.4,3.8,4.7,3.8c2.6,0,4.8-2.1,4.8-4.7s-2.1-4.8-4.8-4.8c-2.3,0-4.2,1.6-4.6,3.7
			l-5,0"/>
		<circle class="st1" cx="199.8" cy="13.5" r="1.3"/>
	</g>
	<path class="st1" d="M159.3,7.7c-2.3,0-4.2,1.8-4.6,3.8h-12.2v2h2v2h-2v3h2v-1h2v1h2v-3h-2v-1.8v-0.2h8.1c0.4,2,2.4,3.7,4.7,3.7
		c2.6,0,4.8-2.1,4.8-4.8S161.9,7.7,159.3,7.7z"/>
	<circle class="st1" cx="160.8" cy="12.5" r="1.3"/>
</g>
</svg>
