<svg width="64" height="64" viewBox="0 0 64 64" fill="none" xmlns="http://www.w3.org/2000/svg">
<g clip-path="url(#clip0_1043_22756)">
<path d="M43.7429 42.2988H20.3279L10.3013 59.9581C11.5075 60.5765 12.8773 60.973 13.7632 60.973C22.9741 60.973 41.7721 60.8355 51.1036 60.8355C52.0632 60.8355 52.9613 60.5057 53.7669 59.989L43.7429 42.2988Z" fill="#4185F3"/>
<path d="M10.3015 59.9581L20.3281 42.2988H0.0104311C0.000208907 43.526 0.43295 44.6488 1.11102 45.9296C3.00009 49.4931 6.19624 55.1894 8.07372 58.1647C8.53645 58.8978 10.3737 59.9952 10.3015 59.9581Z" fill="#1767D1"/>
<path d="M43.7432 42.2983L53.7705 59.9857C55.0701 59.1529 56.1291 57.8336 56.8167 56.6187C58.3691 53.8791 60.9942 49.3173 62.8049 46.2286C63.6465 44.7925 63.9736 43.5028 63.9532 42.2969L43.7432 42.2983Z" fill="#E94235"/>
<path d="M20.33 42.3001L32.0255 21.7988L21.573 4.22754C20.4424 4.9772 19.4754 5.99484 19.0365 6.76992C14.474 14.8382 5.28284 31.374 0.661027 39.5467C0.187437 40.383 -0.0393102 41.3382 0.00748582 42.3001H20.33Z" fill="#30A753"/>
<path d="M43.7421 42.2997L32.0254 21.7984L42.1911 4.24707C43.3216 4.99742 44.5626 5.99444 45.0015 6.77021C49.564 14.8378 58.7551 31.3736 63.379 39.5463C63.856 40.3867 63.9998 41.3377 63.9535 42.2997H43.7421Z" fill="#F9BC00"/>
<path d="M21.5718 4.22982L32.0257 21.7984L42.1914 4.247C41.1419 3.62858 39.6556 3.26234 38.2163 3.2163C34.2119 3.08162 27.7201 3.02734 24.2262 3.18057C23.3648 3.21836 21.5827 4.22226 21.5718 4.22982Z" fill="#0F8038"/>
</g>
<defs>
<clipPath id="clip0_1043_22756">
<rect width="64" height="58" fill="white" transform="translate(0 3)"/>
</clipPath>
</defs>
</svg>
