<?xml version="1.0" encoding="UTF-8"?>
<svg width="24px" height="24px" viewBox="0 0 24 24" version="1.1" xmlns="http://www.w3.org/2000/svg" xmlns:xlink="http://www.w3.org/1999/xlink">
    <title>icon-payment-outline</title>
    <defs>
        <rect id="path-1" x="0" y="0" width="24" height="24"></rect>
    </defs>
    <g id="Stripe-Card-Change" stroke="none" stroke-width="1" fill="none" fill-rule="evenodd">
        <g id="icon-payment-outline">
            <mask id="mask-2" fill="white">
                <use xlink:href="#path-1"></use>
            </mask>
            <g id="Rectangle"></g>
            <g id="icon-payment" mask="url(#mask-2)">
                <g transform="translate(1.333333, 4.444444)">
                    <path d="M5.25883224,3.69555312 L5.12490222,3.70016225 C4.37294135,3.75610273 3.77061298,4.35737329 3.70235276,5.09913768 L3.69590643,5.23976608 L3.69555312,13.4546181 L3.70016225,13.5885481 C3.75610273,14.3405089 4.35737329,14.9428373 5.09913768,15.0110975 L5.23976608,15.0175439 L19.6300566,15.0178972 L19.7639867,15.013288 C20.5159475,14.9573476 21.1182759,14.356077 21.1865361,13.6143126 L21.1929825,13.4736842 L21.1933358,5.25883224 L21.1887266,5.12490222 C21.1327862,4.37294135 20.5315156,3.77061298 19.7897512,3.70235276 L19.6491228,3.69590643 L5.25883224,3.69555312 Z" id="Combined-Shape-Copy" stroke="#0FB6A0" stroke-width="0.888888889" fill="#FFFFFF" fill-rule="nonzero"></path>
                    <path d="M16.9824561,0 C18.2715144,0 19.355288,0.96135888 19.5317189,2.23336835 L19.5495283,2.40099087 L19.5555556,2.57309942 L19.5555556,10.8070175 C19.5555556,12.0960758 18.5941967,13.1798494 17.3221872,13.3562803 L17.1545647,13.3740897 L16.9824561,13.380117 L2.57309942,13.380117 C1.28404113,13.380117 0.20026751,12.4187581 0.0238366806,11.1467486 L0.00602727696,10.9791261 L0,10.8070175 L0,2.57309942 C0,1.28404113 0.96135888,0.20026751 2.23336835,0.0238366806 L2.40099087,0.00602727696 L2.57309942,0 L16.9824561,0 Z M9.77777778,4.11695906 C8.35345648,4.11695906 7.20467836,5.26573718 7.20467836,6.69005848 C7.20467836,8.11437978 8.35345648,9.26315789 9.77777778,9.26315789 C11.2020991,9.26315789 12.3508772,8.11437978 12.3508772,6.69005848 C12.3508772,5.26573718 11.2020991,4.11695906 9.77777778,4.11695906 Z" id="Combined-Shape" stroke="none" fill="#0FB6A0" fill-rule="evenodd"></path>
                    <path d="M16.9824561,1.02923977 L17.1230845,1.03568609 C17.8648489,1.10394631 18.4661195,1.70627468 18.52206,2.45823555 L18.52206,2.45823555 L18.5266691,2.59216557 L18.5263158,10.8070175 L18.5198695,10.9476459 C18.4516092,11.6894103 17.8492809,12.2906809 17.09732,12.3466214 L17.09732,12.3466214 L16.96339,12.3512305 L2.57309942,12.3508772 L2.43247102,12.3444309 C1.69070662,12.2761706 1.08943607,11.6738423 1.03349559,10.9218814 L1.03349559,10.9218814 L1.02888645,10.7879514 L1.02923977,2.57309942 L1.03568609,2.43247102 C1.10394631,1.69070662 1.70627468,1.08943607 2.45823555,1.03349559 L2.45823555,1.03349559 L2.59216557,1.02888645 L16.9824561,1.02923977 Z M9.77777778,4.11695906 C8.35345648,4.11695906 7.20467836,5.26573718 7.20467836,6.69005848 C7.20467836,8.11437978 8.35345648,9.26315789 9.77777778,9.26315789 C11.2020991,9.26315789 12.3508772,8.11437978 12.3508772,6.69005848 C12.3508772,5.26573718 11.2020991,4.11695906 9.77777778,4.11695906 Z" id="Combined-Shape" stroke="none" fill="#FFFFFF" fill-rule="nonzero"></path>
                    <path d="M9.77777778,3.0877193 C11.7705325,3.0877193 13.380117,4.69730375 13.380117,6.69005848 C13.380117,8.6828132 11.7705325,10.2923977 9.77777778,10.2923977 C7.78502305,10.2923977 6.1754386,8.6828132 6.1754386,6.69005848 C6.1754386,4.69730375 7.78502305,3.0877193 9.77777778,3.0877193 Z" id="Combined-Shape" stroke="none" fill="#0FB6A0" fill-rule="nonzero"></path>
                    <path d="M9.77777778,4.11695906 C8.35345648,4.11695906 7.20467836,5.26573718 7.20467836,6.69005848 C7.20467836,8.11437978 8.35345648,9.26315789 9.77777778,9.26315789 C11.2020991,9.26315789 12.3508772,8.11437978 12.3508772,6.69005848 C12.3508772,5.26573718 11.2020991,4.11695906 9.77777778,4.11695906 Z" id="Path" stroke="none" fill="#FFFFFF" fill-rule="nonzero"></path>
                </g>
            </g>
        </g>
    </g>
</svg>