<?xml version="1.0" encoding="UTF-8"?>
<svg width="16px" height="16px" viewBox="0 0 16 16" version="1.1" xmlns="http://www.w3.org/2000/svg" xmlns:xlink="http://www.w3.org/1999/xlink">
    <title>icon-visa</title>
    <defs>
        <rect id="path-1" x="0" y="0" width="16" height="16"></rect>
    </defs>
    <g id="icon-Sprite" stroke="none" stroke-width="1" fill="none" fill-rule="evenodd">
        <g id="Uni_icon_reference" transform="translate(-336.000000, -160.000000)">
            <g id="icon-visa" transform="translate(336.000000, 160.000000)">
                <mask id="mask-2" fill="white">
                    <use xlink:href="#path-1"></use>
                </mask>
                <g id="Rectangle"></g>
                <g id="Group" mask="url(#mask-2)" fill-rule="nonzero">
                    <g id="VisaBlue" transform="translate(1.333333, 4.000000)">
                        <path d="M13.3333333,8.15574964 C13.3333333,8.43959243 13.1129477,8.66666667 12.8374656,8.66666667 L0.495867769,8.66666667 C0.220385675,8.66666667 0,8.43959243 0,8.15574964 L0,0.510917031 C0,0.227074236 0.220385675,0 0.495867769,0 L12.8374656,0 C13.1129477,0 13.3333333,0.227074236 13.3333333,0.510917031 L13.3333333,8.15574964 L13.3333333,8.15574964 Z" id="Path" fill="#1A1F71"></path>
                        <path d="M5.06887052,2.51673945 L3.58126722,6.16885007 L2.60789715,6.16885007 L1.87327824,3.25473071 C1.83654729,3.08442504 1.78145087,3.00873362 1.65289256,2.93304221 C1.43250689,2.81950509 1.06519743,2.68704512 0.752984389,2.63027656 L0.771349862,2.51673945 L2.33241506,2.51673945 C2.53443526,2.51673945 2.71808999,2.64919942 2.75482094,2.89519651 L3.14049587,5.01455604 L4.09550046,2.5356623 L5.06887052,2.5356623 L5.06887052,2.51673945 Z M8.87052342,4.97671033 C8.87052342,4.01164483 7.58494031,3.95487627 7.58494031,3.53857351 C7.58494031,3.40611354 7.71349862,3.27365357 7.97061524,3.23580786 C8.09917355,3.21688501 8.46648301,3.19796215 8.87052342,3.40611354 L9.03581267,2.63027656 C8.815427,2.55458515 8.5399449,2.45997089 8.17263545,2.45997089 C7.27272727,2.45997089 6.62993572,2.95196507 6.62993572,3.67103348 C6.62993572,4.20087336 7.08907254,4.48471616 7.43801653,4.65502183 C7.78696051,4.82532751 7.91551882,4.93886463 7.91551882,5.10917031 C7.91551882,5.35516739 7.64003673,5.46870451 7.36455464,5.46870451 C6.90541781,5.46870451 6.62993572,5.33624454 6.42791552,5.24163028 L6.26262626,6.0363901 C6.48301194,6.13100437 6.86868687,6.22561863 7.27272727,6.22561863 C8.22773186,6.22561863 8.85215794,5.73362445 8.87052342,4.97671033 M11.2580349,6.16885007 L12.1028466,6.16885007 L11.3682277,2.51673945 L10.5785124,2.51673945 C10.3948577,2.51673945 10.2479339,2.63027656 10.1928375,2.78165939 L8.815427,6.16885007 L9.77043159,6.16885007 L9.95408632,5.62008734 L11.1294766,5.62008734 L11.2580349,6.16885007 Z M10.2295684,4.88209607 L10.7070707,3.51965066 L10.9825528,4.88209607 L10.2295684,4.88209607 Z M6.3728191,2.51673945 L5.61983471,6.16885007 L4.70156107,6.16885007 L5.45454545,2.51673945 L6.3728191,2.51673945 Z" id="Shape" fill="#FFFFFF"></path>
                    </g>
                </g>
            </g>
        </g>
    </g>
</svg>