<?xml version="1.0" encoding="utf-8"?>
<!-- Generator: Adobe Illustrator 16.0.0, SVG Export Plug-In . SVG Version: 6.00 Build 0)  -->
<!DOCTYPE svg PUBLIC "-//W3C//DTD SVG 1.1//EN" "http://www.w3.org/Graphics/SVG/1.1/DTD/svg11.dtd">
<svg version="1.1" id="Layer_1" xmlns="http://www.w3.org/2000/svg" xmlns:xlink="http://www.w3.org/1999/xlink" x="0px" y="0px"
	 width="346px" height="346px" enable-background="new 0 0 346 346" xml:space="preserve">
  <path opacity="0"  fill-rule="evenodd" clip-rule="evenodd" fill="#010101" d="M-1,174c0,95.55,77.45,173,173,173s173-77.45,173-173
	S267.55,1,172,1S-1,78.45-1,174z M1,174C1,79.56,77.56,3,172,3c94.439,0,171,76.56,171,171c0,94.439-76.561,171-171,171
	C77.56,345,1,268.439,1,174z">
    <animate id="animation1"
             attributeName="opacity"
             from="0" to="0.03" dur="0.3s"
			 fill="freeze"
             begin="animation3.end" />
    <animate id="animation2"
             attributeName="opacity"
             from="0.03" to="0" dur="0.3s"
			 fill="freeze" 
             begin="animation1.end" />
  </path>
  <path opacity="0"  fill-rule="evenodd" clip-rule="evenodd" fill="#010101" d="M49,174c0,67.93,55.07,123,123,123
	c67.93,0,123-55.07,123-123c0-67.93-55.07-123-123-123C104.07,51,49,106.07,49,174z M51,174c0-66.83,54.17-121,121-121
	s121,54.17,121,121s-54.17,121-121,121S51,240.83,51,174z">
    <animate id="animation3"
             attributeName="opacity"
             from="0" to="0.03" dur="0.3s"
			 fill="freeze"
             begin="animation5.end" />
    <animate id="animation4"
             attributeName="opacity"
             from="0.03" to="0" dur="0.3s"
			 fill="freeze" 
             begin="animation1.end" />
  </path>
  <g>
    <path opacity="0"  fill-rule="evenodd" clip-rule="evenodd" fill="#010101" d="M74,174c0,54.12,43.88,98,98,98s98-43.88,98-98s-43.88-98-98-98
		S74,119.88,74,174z M78,174c0-51.92,42.08-94,94-94s94,42.08,94,94s-42.08,94-94,94S78,225.92,78,174z">
      <animate id="animation5"
             attributeName="opacity"
             from="0" to="0.04" dur="0.3s"
			 fill="freeze"
             begin="animation7.end" />
      <animate id="animation6"
             attributeName="opacity"
             from="0.04" to="0" dur="0.3s"
			 fill="freeze" 
             begin="animation1.end" />
    </path>
  </g>
  <circle opacity="0" id="myRect" fill-rule="evenodd" clip-rule="evenodd" cx="173" cy="173" r="78">
      <animate id="animation7"
             attributeName="opacity"
             from="0" to="0.05" dur="0.3s"
			 fill="freeze"
             begin="1s;animation2.end" />
      <animate id="animation8"
             attributeName="opacity"
             from="0.05" to="0" dur="0.3s"
			 fill="freeze" 
             begin="animation1.end" />
  </circle>
</svg>
