<?xml version="1.0" encoding="UTF-8" standalone="no"?>
<svg width="20px" height="20px" viewBox="0 0 20 20" version="1.1" xmlns="http://www.w3.org/2000/svg" xmlns:xlink="http://www.w3.org/1999/xlink">
    <!-- Generator: sketchtool 3.7.2 (28276) - http://www.bohemiancoding.com/sketch -->
    <title>BFD62A03-7B5B-4B7D-90AD-3A4F212DA687</title>
    <desc>Created with sketchtool.</desc>
    <defs></defs>
    <g id="IMCD" stroke="none" stroke-width="1" fill="none" fill-rule="evenodd">
        <g id="01-banner-IMDC" transform="translate(-1133.000000, -841.000000)" fill="#3F5C80">
            <g id="info" transform="translate(1133.000000, 841.000000)">
                <path d="M10,0 C4.477,0 0,4.477 0,10 C0,15.523 4.477,20 10,20 C15.523,20 20,15.523 20,10 C20,4.477 15.523,0 10,0 L10,0 Z M10,2 C5.5816,2 2,5.5816 2,10 C2,14.4184 5.5816,18 10,18 C14.4184,18 18,14.4184 18,10 C18,5.5816 14.4184,2 10,2 L10,2 Z M9,15 L11,15 L11,9 L9,9 L9,15 Z M9,7 L11,7 L11,5 L9,5 L9,7 Z" id="Page-1-Copy"></path>
            </g>
        </g>
    </g>
</svg>