<svg xmlns="http://www.w3.org/2000/svg" width="20" height="20" fill="none" xmlns:v="https://vecta.io/nano"><rect x=".25" y="3.25" width="19.5" height="13.31" rx="2.25" fill="#fff" stroke="#d9d9d9" stroke-width=".5"/><g fill-rule="evenodd"><path d="M13.238 9.943h.008.016.016.016.016.016.016.016.016.016.016.016.016.016.016.016.016.016.016.016.016.016.016.016.016.016.016.016.016.016.016.016.016.016.016.016.016.016.016.016.016.016.016.016.016.016.016.016.016.016.016.016.016.016.016.016.016.016.016.016.014.003l.032.002.032.003.033.004.016.003.033.009.033.012.032.015.033.018.032.022.016.013.016.014.016.016.016.017.016.019.016.022.016.026.016.03c.006.012.011.025.016.038s.012.036.016.055a.46.46 0 0 1 .011.103c0 .036-.004.07-.011.103a.44.44 0 0 1-.016.055c-.005.013-.01.026-.016.038l-.016.03-.016.025-.016.022-.016.02-.016.017-.016.016-.016.014-.016.013-.032.022-.033.018-.032.015-.033.012-.033.009-.006.002-.026.004-.033.004-.032.002-.025.001h-.008-.016-.016-.016-.016-.016-.016-.016-.016-.016-.016-.016-.016-.016-.016-.016-.016-.016-.016-.016-.016-.016-.016-.016-.016-.016-.016-.016-.016-.016-.016-.016-.016-.016-.016-.016-.016-.016-.016-.016-.016-.016-.016-.016-.016-.016-.016-.016-.016-.016-.016-.016-.016-.016-.016-.016-.016-.016-.016-.016-.008v-.882zm1.308-.998a.43.43 0 0 1 .01.094.43.43 0 0 1-.01.094.4.4 0 0 1-.016.055.38.38 0 0 1-.016.037l-.016.029-.016.024-.016.021-.016.018-.016.016-.016.014-.016.013-.016.012-.032.02-.032.016-.032.013-.033.01-.033.007h-.004l-.029.004-.032.003-.032.001h-.003-.014-.016-.016-.016-.016-.016-.016-.016-.016-.016-.016-.016-.016-.016-.016-.016-.016-.016-.016-.016-.016-.016-.016-.016-.016-.016-.016-.016-.016-.016-.016-.016-.016-.016-.016-.016-.016-.016-.016-.016-.016-.016-.016-.016-.016-.016-.016-.016-.016-.016-.016-.016-.016-.016-.008v-.814h.008.016.016.016.016.016.016.016.016.016.016.016.016.016.016.016.016.016.016.016.016.016.016.016.016.016.016.016.016.016.016.016.016.016.016.016.016.016.016.016.016.016.016.016.016.016.016.016.016.016.016.016.016.016.016.007.009l.032.002.033.003.016.002.033.007.033.01.032.013.032.016.032.02.016.012.016.013.016.014.016.016.016.018.016.021.016.024.016.029a.38.38 0 0 1 .016.037.4.4 0 0 1 .016.055zm2.014-4.219h.007v8.356l-.007.148-.016.127-.016.084-.016.067-.016.057-.016.051-.016.045-.016.042-.016.039-.016.036-.016.034-.016.032-.016.031-.016.029-.016.028-.016.027-.016.026-.016.025-.016.024-.016.023-.016.022-.016.021-.016.021-.016.02-.016.019-.016.019-.016.018-.016.018-.016.017-.016.017-.016.016-.016.016-.016.016-.016.015-.016.015-.016.014-.016.014-.016.014-.016.013-.016.013-.016.013-.016.012-.016.012-.016.012-.033.022-.033.021-.032.02-.033.019-.032.018-.032.018-.033.016-.032.016-.016.008-.016.007-.033.014-.032.013-.033.012-.016.006-.033.011-.033.011-.032.01-.033.009-.032.008-.016.004-.016.004-.033.007-.016.003-.016.003-.033.006-.016.003-.016.002-.016.002-.032.004-.033.003-.033.003-.032.002-.033.002-.016.001h-.016-.032-.003-.013-.016-.016-.016-.016-.016-.016-.016-.016-.016-.016-.016-.016-.016-.016-.016-.016-.016-.016-.016-.016-.016-.016-.016-.016-.016-.016-.016-.016-.016-.016-.016-.016-.016-.016-.016-.016-.016-.016-.016-.016-.016-.016-.016-.016-.016-.016-.016-.016-.016-.016-.016-.016-.016-.016-.016-.016-.016-.016-.016-.016-.016-.016-.016-.016-.016-.016-.016-.016-.016-.016-.016-.016-.016-.016-.016-.016-.016-.016-.016-.016-.016-.016-.016-.016-.016-.016-.016-.016-.016-.016-.016-.016-.016-.016-.016-.016-.016-.016-.016-.016-.016-.016-.016-.016-.016-.016-.016-.016-.016-.016-.016-.016-.016-.016-.016-.016-.016-.016-.016-.016-.016-.016-.016-.016-.016-.016-.016-.016-.016-.016-.016-.016-.016-.016-.016-.016-.016-.016-.016-.016-.016-.016-.016-.016-.016-.016-.016-.016-.016-.035v-3.407h.035.016.016.016.016.016.016.016.016.016.016.016.016.016.016.016.016.016.016.016.016.016.016.016.016.016.016.016.016.016.016.016.016.016.016.016.016.016.016.016.016.016.016.016.016.016.016.016.016.016.016.016.016.016.016.016.016.016.016.016.016.016.016.016.016.016.016.016.016.016.016.016.016.016.016.016.016.016.016.016.016.016.016.016.016.016.016.016.016.016.016.016.016.016.016.016.016.016.016.016.016.016.016.016.016.016.016.016.016.016.016.016.016.016.016.016.016.016.016.016.016.016.016.016.016.016.016.016.016.016.016.016.016.016.016.016.016.016.016.016.016.016.016.016.016.016.016.016.016.016.016.016.016.016.016.016.016H15h.016.009.008.016.016l.033-.001.016-.001.016-.001.016-.001.016-.001.016-.002.033-.003.016-.002.033-.005.033-.005.016-.003.033-.006.016-.004.032-.008.033-.008.033-.009.016-.005.033-.011.032-.012.033-.013.033-.014.032-.015.033-.017.032-.018.032-.02.033-.022.016-.012.016-.012.016-.013.016-.014.016-.014.016-.015.016-.016.016-.017.016-.018.016-.019.016-.02.016-.022.016-.024.016-.026.016-.028.016-.032.016-.036.016-.043.016-.055a.74.74 0 0 0 .016-.084c.005-.035.007-.071.007-.108a.76.76 0 0 0-.007-.104.69.69 0 0 0-.016-.081l-.016-.053-.016-.042-.016-.035-.016-.031-.016-.027-.016-.025-.016-.023-.016-.021-.016-.02-.016-.018-.016-.017-.016-.016-.016-.015-.016-.014-.016-.014-.016-.013-.016-.012-.016-.012-.033-.022-.032-.02-.033-.019-.033-.017-.032-.016-.032-.014-.032-.013-.033-.012-.033-.011-.032-.01-.016-.005-.032-.009-.033-.008-.032-.007-.033-.006-.016-.003-.033-.005-.033-.005-.016-.002-.016-.002-.016-.002-.016-.001-.016-.001-.015-.001v-.019l.015-.002.016-.003.033-.006.032-.007.033-.008.033-.009.032-.01.033-.011.032-.012.033-.013.033-.015.032-.016.033-.018.033-.02.032-.022.016-.012.016-.012.016-.013.016-.014.016-.015.016-.015.016-.016.016-.018.016-.019.016-.02.016-.022.016-.023.016-.026.016-.028.016-.032.016-.037.016-.044.016-.057a.74.74 0 0 0 .016-.096l.004-.078-.004-.081c-.003-.034-.009-.066-.016-.097l-.016-.057-.016-.044-.016-.036-.016-.031-.016-.028-.016-.025-.016-.023-.016-.021-.016-.019-.016-.018-.016-.017-.016-.016-.016-.015-.016-.014-.016-.013-.016-.013-.016-.012-.033-.022-.033-.02-.032-.018-.033-.017-.033-.015-.032-.014-.033-.013-.032-.011-.033-.01-.033-.009-.032-.008-.033-.008-.016-.003-.033-.006-.016-.003-.033-.005-.016-.002-.016-.002-.016-.002-.016-.002-.016-.002-.016-.001L15 8.142l-.016-.001-.016-.001h-.006l-.01-.001-.016-.001-.016-.001-.016-.001h-.016l-.016-.001-.016-.001h-.016-.016-.016-.009-.007-.016-.016-.016-.016-.016-.016-.016-.016-.016-.016-.016-.016-.016-.016-.016-.016-.016-.016-.016-.016-.016-.016-.016-.016-.016-.016-.016-.016-.016-.016-.016-.016-.016-.016-.016-.016-.016-.016-.016-.016-.016-.016-.016-.016-.016-.016-.016-.016-.016-.016-.016-.016-.016-.016-.016-.016-.016-.016-.016-.016-.016-.016-.016-.016-.016-.016-.016-.016-.016-.016-.016-.016-.016-.016-.016-.016-.016-.016-.016-.016-.016-.016-.016-.016-.016-.016-.016-.016-.016-.016-.016-.016-.016-.016-.016-.016-.016-.016-.016-.016-.016-.016-.016-.016-.016-.016-.016-.016-.016-.016-.016-.016-.016-.016-.016-.016-.016-.016-.016-.016-.016-.016-.016-.016-.016-.016-.016-.016-.016-.016-.016-.016-.016-.016-.016-.016-.016-.016-.016-.016-.016-.016-.016-.016-.035V6.398a1.67 1.67 0 0 1 .035-.341l.016-.07.016-.059.016-.052.016-.047.016-.043.016-.04.016-.037.016-.035.016-.033.016-.031.016-.029.016-.028.016-.027.016-.026.016-.025.016-.024.016-.023.016-.022.016-.022.016-.021.016-.02.016-.02.016-.019.016-.018.016-.018.016-.017.016-.017.016-.016.016-.016.016-.016.016-.015.016-.015.016-.014.016-.014.016-.014.016-.013.016-.013.016-.013.016-.012.016-.012.016-.012.016-.011.032-.022.016-.011.033-.02.032-.019.032-.018.033-.018.032-.017.033-.016.033-.015.032-.014.033-.013.016-.006.016-.006.033-.012.033-.011.016-.005.032-.01.032-.009.033-.009.032-.008.033-.007.016-.003.033-.006.033-.005.032-.005.033-.004.016-.002.033-.003.016-.001.016-.001.033-.002.033-.001.032-.001h.02.012.016.016.016.016.016.016.016.016.016.016.016.016.016.016.016.016.016.016.016.016.016.016.016.016.016.016.016.016.016.016.016.016.016.016.016.016.016.016.016.016.016.016.016.016.016.016.016.016.016.016.016.016.016.016H15h.016.016.016.016.016.016.016.016.016.016.016.016.016.016.016.016.016.016.016.016.016.016.016.016.016.016.016.016.016.016.016.016.016.016.016.016.016.016.016.016.016.016.016.016.016.016.016.016.016.016.016.016.016.016.016.016.016.016.016.016.016.016.016.016.016.016.016.016.016.016.016.016.016.016.016.016.016.016.016.016.016.016.016.016.016.016.016.016.016.016.016.016.016.016.016.016 0z" fill="#54b230"/><path d="M3.104 10.525V6.398c0-.116.012-.23.035-.34l.016-.07.016-.059.016-.052.016-.047.016-.043.016-.04.016-.037.016-.035.016-.033.016-.031.016-.029.016-.028.016-.027.016-.026.016-.025.016-.024.016-.023.016-.022.016-.022.016-.021.016-.02.016-.02.016-.019.016-.018.016-.018.016-.017.016-.017.016-.016.016-.016.016-.016.016-.015.016-.015.016-.014.016-.014.016-.014.016-.013.016-.013.016-.013.016-.012.016-.012.016-.012.032-.023.032-.022.032-.021.032-.019.032-.019.032-.018.032-.017.016-.008.032-.015.032-.015.032-.014.016-.007.016-.006.016-.006.032-.012.032-.011.016-.005.032-.01.032-.009.016-.004.032-.008.032-.008.016-.003.032-.006.032-.006.016-.003.032-.005.032-.004.016-.002.032-.003.016-.001.032-.002.032-.002.016-.001.032-.001h.032.016.016.016.016.016.016.016.016.016.016.016.016.016.016.016.016.016.016.016.016.016.016.016.016.016.016.016.016.016.016.016.016.016.016.016.016.016.016.016.016.016.016.016.016.016.016.016.016.016.016.016.016.016.016.016.016.016.016.016.016.016.016.016.016.016.016.016.016.016.016.016.016.016.016.016.016.016.016.016.016.016.016.016.016.016.016.016.016.016.016.016.016.016.016.016.016.016.016.016.016.016.016.016.016.016.016.016.016.016.016.016.016.016.016.016.016.016.016.016.016.016.016.016.016.016.016.016.016.016.016.016.016.016.016.016.016.016.016.016.016.016.016.016.016.016.016.016.016.016.016.016.014v8.356a1.68 1.68 0 0 1-.014.215l-.016.1-.016.075-.016.062-.016.054-.016.048-.016.044-.016.04-.016.038-.016.035-.016.033-.016.031-.016.03-.016.029-.016.027-.016.026-.016.025-.016.024-.016.023-.016.022-.016.022-.016.021-.016.02-.016.02-.016.019-.016.019-.016.018-.016.017-.016.017-.016.017-.016.016-.016.016-.016.015-.016.015-.016.014-.016.014-.016.014-.016.014-.016.013-.016.013-.016.012-.016.012-.032.023-.032.022-.032.021-.032.02-.032.019-.032.018-.032.017-.032.016-.032.015-.032.015-.016.007-.016.007-.032.013-.032.012-.032.011-.016.005-.032.011-.032.01-.016.005-.032.009-.032.008-.016.004-.016.004-.032.007-.032.006-.032.005-.032.005-.032.004-.032.003-.016.002-.032.002-.016.001-.016.001-.032.001-.032.001h-.032-.016-.016-.016-.016-.016-.016-.016-.016-.016-.016-.016-.016-.016-.016-.016-.016-.016-.016-.016-.016-.016-.016-.016-.016-.016-.016-.016H5.1h-.016-.016-.016-.016-.016-.016-.016-.016-.016-.016-.016-.016-.016-.016-.016-.016-.016-.016-.016-.016-.016-.016-.016-.016-.016-.016-.016-.016-.016-.016-.016-.016-.016-.016-.016-.016H4.5h-.016-.016-.016-.016-.016-.016-.016-.016-.016-.016-.016-.016-.016-.016-.016-.016-.016-.016-.016-.016-.016-.016-.016-.016-.016-.016-.016-.016-.016-.016-.016-.016-.016-.016-.016-.016H3.9h-.016-.016-.016-.016-.016-.016-.016-.016-.016-.016-.016-.016-.016-.016-.016-.016-.016-.016-.016-.016-.016-.016-.016-.016-.016-.016-.016-.016-.016-.016-.016-.016-.016-.016-.016-.016H3.3h-.016-.016-.016-.016-.016-.016-.016-.016-.016-.016-.035v-3.522l.035.009.016.004.016.004.016.004.016.004.016.004.016.004.016.004.016.004.016.004.016.003.016.003.016.003.016.003.016.003.016.003.016.003.016.003.016.003.016.003.016.003.016.003.016.003.016.003.016.003.016.003.016.003.016.003.016.003.016.003.016.003.016.003.016.003.016.003.016.002.016.003.016.002.016.002.016.002.016.002.016.002.016.002.016.002.016.002.016.002.016.002.016.002.016.002.016.002.016.002.016.002.016.002.016.002.016.002.016.002.016.002.016.002.016.002.016.002.016.002.016.002.016.002.016.002.016.002.016.002.016.002.016.001.016.001.016.001.016.001.016.001.016.001.016.001.016.001.016.001.016.001.016.001.016.001.016.001.016.001.016.001.016.001.016.001.016.001.016.001h.016l.016.001.016.001h.016.016.016l.016.001h.016.016.016.016.016.016.016.016.016.016.016.016.016.016.016.016.016.016.016.016.016.016.016.016l.016-.001h.016l.016-.001h.016l.016-.001.016-.001h.016l.016-.001.016-.001.016-.001.016-.001.016-.001.016-.001.016-.001.016-.001.016-.001.016-.001.016-.001.016-.001.016-.002.016-.002.016-.002.016-.002.016-.002.016-.002.016-.002.016-.002.016-.002.016-.002.016-.002.016-.002.032-.005.016-.002.016-.003.032-.005.032-.006.016-.003.016-.003.016-.003.032-.007.016-.003.032-.007.032-.008.016-.004.032-.008.016-.004.032-.009.016-.005.032-.01.016-.005.032-.01.016-.006.032-.011.016-.006.032-.012.032-.013.016-.007.032-.014.016-.007.016-.008.032-.015.032-.017.032-.018.032-.019.032-.02.032-.021.032-.022.032-.024.016-.012.016-.013.016-.014.016-.014.016-.015.016-.015.016-.016.016-.016.016-.017.016-.018.016-.019.016-.019.016-.02.016-.022.016-.023.016-.024.016-.026.016-.027.016-.03.016-.032.016-.035.016-.039.016-.043.016-.05.016-.06.016-.076.016-.116a1.67 1.67 0 0 0 .008-.166V8.133h-.024-.016-.016-.016-.016-.016-.016-.016-.016-.016-.016-.016-.016-.016-.016-.016-.016-.016-.016-.016-.016-.016-.016-.016-.016-.016-.016-.016-.016-.016-.016-.016-.016-.016-.016-.016H6.3h-.016-.016-.016-.016-.016-.016-.016-.016-.016-.016-.016-.016-.016-.016-.016-.016-.016-.016-.016-.016-.016-.016-.016-.016-.016-.016-.016-.016-.016-.016-.016-.016-.016-.016-.016-.016H5.7h-.016-.016-.016-.016-.016-.016-.016-.016-.016-.016-.016-.016-.016-.016l-.012 1.939-.004.089c-.003.037-.009.074-.016.109l-.016.064-.016.05-.016.041-.016.035-.016.031-.016.028-.016.026-.016.023-.016.022-.016.02-.016.019-.016.017-.016.016-.016.015-.016.014-.016.014-.016.013-.016.012-.032.022-.032.02-.032.018-.032.016-.032.014-.032.013-.032.012-.032.01-.032.009-.032.008-.032.007-.032.006-.016.002-.032.004-.016.002-.032.003-.032.002-.032.001h-.016-.032-.016-.016H4.5h-.016-.016l-.016-.001-.016-.001-.016-.001-.016-.001-.016-.001-.016-.001-.016-.001-.016-.001-.016-.002-.016-.002-.016-.002-.016-.002-.016-.002-.016-.002-.016-.002-.016-.002-.016-.002-.016-.002-.016-.002-.016-.002-.016-.003-.016-.003-.016-.003-.016-.003-.016-.003-.016-.003-.016-.003-.016-.003-.016-.003-.016-.004-.016-.003-.016-.004-.016-.004-.016-.004-.016-.004-.016-.004-.016-.004-.016-.004-.016-.004-.016-.004-.016-.004-.016-.005-.016-.005-.016-.005-.016-.005-.016-.005-.016-.005-.016-.005-.016-.005-.016-.005-.016-.005-.016-.005-.016-.006-.016-.005-.016-.006-.016-.006-.016-.006-.016-.006-.016-.006-.016-.006-.016-.006-.016-.006-.016-.006-.016-.006-.016-.006-.016-.007-.016-.006-.016-.007-.016-.007-.016-.007-.016-.007-.016-.007-.016-.007-.016-.007-.016-.007-.016-.007-.016-.007-.016-.007-.016-.007-.016-.007-.016-.008-.016-.008-.035-.017z" fill="#006cb9"/><path d="M7.794 8.557l-.035.029V6.398a1.67 1.67 0 0 1 .035-.34l.016-.07.016-.059.016-.052.016-.047.016-.043.016-.04.016-.037.016-.035.016-.033.016-.031.016-.029.016-.028.016-.027.016-.026.016-.025.016-.024.016-.023.016-.022.016-.022.016-.021.016-.02.016-.02.016-.019.016-.018.016-.018.016-.017.016-.017.016-.016.016-.016.016-.016.016-.015.016-.015.016-.014.016-.014.016-.014.016-.013.016-.013.016-.013.016-.012.016-.012.016-.012.032-.023.032-.022.032-.021.032-.019.032-.019.032-.018.032-.017.016-.008.032-.015.032-.015.032-.014.016-.007.032-.013.032-.012.032-.011.016-.005.032-.01.032-.009.016-.004.032-.008.032-.008.016-.003.032-.006.032-.006.016-.003.032-.005.032-.004.016-.002.032-.003.016-.001.032-.002.032-.002.016-.001.032-.001h.023.009.016.016.016.016.016.016.016.016.016.016.016.016.016.016.016.016.016.016.016.016.016.016.016.016.016.016.016.016.016.016.016.016.016.016.016.016.016.016.016.016.016.016.016.016.016.016.016.016.016.016.016.016.016.016.016.016.016.016.016.016.016.016.016.016.016.016.016.016.016.016.016.016.016.016.016.016.016.016.016.016.016.016.016.016.016.016.016.016.016.016.016.016.016.016.016.016.016.016.016.016.016.016.016.016.016.016.016.016.016.016.016.016.016.016.016.016.016.016.016.016.016.016.016.016.016.016.016.016.016.016.016.016.016.016.016.016.016.016.016.016.016.016.016.016.016.016.016.016.016.016.016.014v8.356a1.67 1.67 0 0 1-.014.215l-.016.1-.016.075-.016.062-.016.054-.016.048-.016.044-.016.04-.016.038-.016.035-.016.033-.016.031-.016.03-.016.029-.016.027-.016.026-.016.025-.016.024-.016.023-.016.022-.016.022-.016.021-.016.02-.016.02-.016.019-.016.019-.016.018-.016.017-.016.017-.016.017-.016.016-.016.016-.016.015-.016.015-.016.014-.016.014-.016.014-.016.014-.016.013-.016.013-.016.012-.016.012-.016.012-.016.012-.032.022-.032.021-.032.02-.033.019-.032.018-.016.009-.016.009-.032.016-.032.015-.032.015-.016.007-.016.007-.016.007-.032.013-.032.012-.016.006-.016.005-.032.011-.032.01-.016.005-.033.009-.032.008-.016.004-.016.004-.033.007-.016.003-.016.003-.032.005-.032.005-.033.004-.032.003-.016.002-.032.002-.016.001-.016.001-.032.001-.032.001h-.016-.016-.016-.016-.016-.016-.016-.016-.016-.016-.016-.016-.016-.016-.016-.016-.016-.016-.016-.016-.016-.016-.016-.016-.016-.016-.016-.016-.016-.016-.016-.016-.016-.016-.016-.016-.016-.016-.016-.016-.016-.016-.016-.016-.016-.016-.016-.016-.016-.016-.016-.016-.016-.016-.016-.016-.016-.016-.016-.016-.016-.016-.016-.016-.016-.016-.016-.016-.016-.016-.016-.016-.016-.016-.016-.016-.016-.016-.016-.016-.016-.016-.016-.016-.016-.016-.016-.016-.016-.016-.016-.016-.016-.016-.016-.016-.016-.016-.016-.016-.016-.016-.016-.016-.016-.016-.016-.016-.016-.016-.016-.016-.016-.016-.016-.016-.016-.016-.016-.016-.016-.016-.016-.016-.016-.016-.016-.016-.016-.016-.016-.016-.016-.016-.016-.016-.016-.016-.016-.016-.016-.016-.016-.016-.016-.016-.016-.016-.016-.016-.016-.035v-3.859l.035.029.016.013.016.012.016.012.016.012.032.023.016.011.032.021.032.02.016.01.032.019.016.009.016.009.016.009.032.017.016.008.016.008.016.008.032.015.016.007.016.007.016.007.016.007.016.007.016.007.016.006.016.006.016.006.032.012.032.011.016.006.016.005.032.011.016.005.016.005.016.005.016.005.016.005.016.005.016.005.016.004.016.004.016.004.016.004.016.004.016.004.016.004.016.004.016.004.016.004.016.004.016.003.016.003.016.003.016.003.016.003.016.003.016.003.016.003.016.003.016.003.016.003.016.003.016.003.016.002.016.002.016.002.016.002.016.002.016.002.016.002.016.002.016.002.016.002.016.002.016.002.016.002.016.002.016.002.016.002.016.002.016.002.016.001.016.001.016.001.016.001.016.001.016.001.016.001.016.001.016.001.016.001.016.001.016.001.016.001.016.001h.016l.016.001.016.001h.016l.016.001h.016l.016.001h.016.016.016.016.016.016.016.016.016.016.016.016.016.016.016.016.016.016.016.016.016.016.016.016l.016-.001h.016l.016-.001h.016l.016-.001.016-.001h.016l.016-.001h.008.008l.016-.001h.016l.016-.001.016-.001.016-.001.016-.001.016-.001.016-.001.016-.001.016-.001.016-.001.016-.001.016-.001.016-.002.016-.002.016-.002.016-.002.016-.002.016-.002.016-.002.016-.002.016-.002.016-.002.016-.002.016-.002.016-.002.016-.002.016-.002.016-.002.016-.002.016-.002.016-.002.016-.002.016-.002.016-.002.016-.002.016-.002.016-.003.016-.002.016-.002.016-.002.016-.003.016-.003.016-.003.016-.003.016-.003.016-.003.016-.003.016-.003.016-.003.016-.003.016-.003.016-.003.016-.003.016-.003.016-.003.016-.003.016-.003.016-.003.016-.003.016-.003.016-.003.016-.003.016-.003.016-.003.016-.003.016-.003.016-.003.016-.003.016-.004.016-.004.016-.003.016-.004.016-.004.016-.004.016-.004.016-.004.016-.004.016-.004.016-.004.016-.004v-.707l-.016.008-.016.008-.016.008-.016.008-.016.008-.016.008-.016.008-.016.007-.016.008-.016.007-.016.007-.016.007-.016.007-.016.007-.016.007-.016.007-.016.007-.016.007-.016.007-.016.006-.016.006-.016.006-.016.006-.016.006-.016.006-.016.006-.016.006-.016.006-.016.006-.016.006-.016.005-.016.005-.016.005-.016.005-.016.005-.016.005-.016.005-.016.005-.016.005-.016.005-.016.005-.016.005-.016.004-.016.004-.016.004-.016.004-.016.004-.016.004-.016.004-.016.004-.016.004-.016.004-.016.004-.016.003-.016.003-.016.003-.016.003-.016.003-.016.003-.016.003-.016.003-.016.003-.016.003-.016.003-.016.002-.016.002-.016.002-.016.002-.016.002-.016.002-.016.002-.016.002-.016.002-.016.002-.016.002-.016.002-.016.001-.016.001-.01.001-.006.001-.016.001-.016.001-.016.001h-.016l-.016.001-.016.001h-.016-.016-.016-.016-.032-.016-.016-.016l-.032-.001H9.87l-.016-.001-.016-.001-.016-.001-.032-.003-.016-.002-.016-.002-.016-.002-.016-.002-.016-.002-.032-.005-.032-.006-.032-.006-.032-.007-.016-.004-.032-.008-.032-.009-.032-.01-.032-.011-.032-.012-.032-.013-.032-.014-.032-.015-.032-.016-.032-.018-.032-.019-.032-.021-.032-.022-.032-.024-.016-.013-.016-.013-.016-.014-.016-.015-.016-.015-.016-.016-.016-.017-.016-.018-.016-.019-.016-.02-.016-.021-.016-.022-.016-.024-.016-.025-.016-.027-.016-.029-.016-.032-.016-.034-.016-.038-.016-.043-.016-.049-.016-.059-.016-.076-.016-.118-.007-.145.007-.145.016-.118.016-.076.016-.059.016-.049.016-.043.016-.038.016-.034.016-.032.016-.029.016-.027.016-.025.016-.024.016-.022.016-.021.016-.02.016-.019.016-.018.016-.017.016-.016.016-.015.016-.015.016-.014.016-.013.016-.013.016-.012.016-.012.032-.022.032-.021.032-.019.032-.018.032-.016.032-.015.032-.014.032-.013.032-.012.032-.011.032-.01.016-.005.032-.009.032-.008.032-.007.032-.006.032-.006.032-.005.016-.002.016-.002.016-.002.016-.002.016-.002.032-.003.016-.001.016-.001.016-.001h.016l.032-.001h.016.016.016.016.032.016.016.016l.016.001.016.001.016.001h.016l.016.001.016.001h.006l.01.001.016.001.016.001.016.001.016.002.016.002.016.002.016.002.016.002.016.002.016.002.016.002.016.002.016.002.016.002.016.003.016.003.016.003.016.003.016.003.016.003.016.003.016.003.016.003.016.003.016.003.016.003.016.004.016.004.016.004.016.004.016.004.016.004.016.004.016.004.016.004.016.004.016.004.016.005.016.005.016.005.016.005.016.005.016.005.016.005.016.005.016.005.016.005.016.006.016.006.016.006.016.006.016.006.016.006.016.006.016.006.016.006.016.006.016.006.016.007.016.007.016.007.016.007.016.007.016.007.016.007.016.007.016.007.016.007.016.007.016.007.016.008.016.008.016.008.016.008.016.008.016.008.016.008.016.008v-.707l-.016-.004-.016-.004-.016-.004-.016-.004-.016-.004-.016-.004-.016-.004-.016-.004-.016-.004-.016-.004-.016-.003-.016-.003-.016-.003-.016-.003-.016-.003-.016-.003-.016-.003-.016-.003-.016-.003-.016-.003-.016-.003-.016-.003-.016-.003-.016-.003-.016-.003-.016-.003-.016-.003-.016-.003-.016-.003-.016-.003-.016-.003-.016-.003-.016-.003-.016-.003-.016-.003-.016-.003-.016-.003-.016-.003-.016-.003-.016-.003-.016-.003-.016-.002-.016-.002-.016-.002-.016-.002-.016-.002-.016-.002-.016-.002-.016-.002-.016-.002-.016-.002-.016-.002-.016-.002-.016-.002-.016-.002-.016-.002-.016-.002-.016-.002-.016-.002-.016-.002-.016-.002-.016-.002-.016-.002-.016-.002-.016-.002-.016-.002-.016-.002-.016-.001-.016-.001-.016-.001-.016-.001-.016-.001-.016-.001-.016-.001-.016-.001-.016-.001-.016-.001-.016-.001-.016-.001-.016-.001-.016-.001h-.008-.008-.016l-.016-.001-.016-.001h-.016l-.016-.001h-.016-.016-.016-.016-.016-.016-.016-.016-.016-.016-.016-.016-.016-.016-.016-.016-.016-.016-.016-.016-.016-.016-.016-.016-.016-.016-.016-.016l-.016.001h-.016l-.016.001-.016.001h-.016l-.016.001-.016.001-.016.001h-.016l-.016.001-.016.001-.016.001-.016.001-.016.001-.016.001-.016.001-.016.001-.016.001-.016.001-.016.001-.016.002-.016.002-.016.002-.016.002-.016.002-.016.002-.016.002-.016.002-.016.002-.016.002-.016.002-.016.002-.016.002-.016.002-.016.002-.016.002-.016.002-.016.002-.016.003-.016.003-.016.003-.016.003-.016.003-.016.003-.016.003-.016.003-.016.003-.016.003-.016.003-.016.003-.016.003-.016.004-.016.004-.016.004-.016.004-.016.004-.016.004-.016.004-.016.004-.016.004-.016.004-.016.004-.016.005-.016.005-.016.005-.016.005-.016.005-.016.005-.016.005-.032.011-.032.011-.016.006-.032.012-.016.006-.032.012-.016.006-.016.007-.016.007-.016.007-.016.007-.016.007-.016.007-.016.007-.032.015-.016.008-.016.008-.032.017-.016.009-.016.009-.032.018-.032.019-.032.02-.016.011-.032.022-.032.023-.016.012-.016.012-.016.013-.016.013h0z" fill="#e10238"/></g></svg>