<svg width="64" height="64" viewBox="0 0 64 64" fill="none" xmlns="http://www.w3.org/2000/svg">
<path fill-rule="evenodd" clip-rule="evenodd" d="M32 62C15.44 62 2 48.56 2 32C2 15.44 15.44 2 32 2C48.56 2 62 15.44 62 32C62 48.56 48.56 62 32 62Z" fill="#D90007"/>
<path fill-rule="evenodd" clip-rule="evenodd" d="M47 41.133C47 41.6205 46.6062 41.9997 46.1187 41.9997H42.3313C41.8438 41.9997 41.45 41.6205 41.45 41.133V29.8122C41.45 29.7038 41.3187 29.6677 41.2625 29.7219L33.2563 37.5219C32.5625 38.208 31.4375 38.208 30.7437 37.5219L22.7375 29.7219C22.6813 29.6677 22.55 29.7038 22.55 29.8122V41.133C22.55 41.6205 22.1562 41.9997 21.6687 41.9997H17.8813C17.3938 41.9997 17 41.6205 17 41.133V21.1997C17 20.7122 17.3938 20.333 17.8813 20.333H20.4875C20.9562 20.333 21.4062 20.5136 21.7438 20.8386L31.6812 30.5344C31.85 30.6969 32.15 30.6969 32.3188 30.5344L42.2563 20.8386C42.5938 20.5136 43.0438 20.333 43.5125 20.333H46.1187C46.6062 20.333 47 20.7122 47 21.1997V41.133Z" fill="white"/>
</svg>
