<?xml version="1.0" encoding="utf-8"?>
<!-- Generator: Adobe Illustrator 19.0.0, SVG Export Plug-In . SVG Version: 6.00 Build 0)  -->
<svg version="1.1" id="Layer_1" xmlns:sketch="http://www.bohemiancoding.com/sketch/ns"
	 xmlns="http://www.w3.org/2000/svg" xmlns:xlink="http://www.w3.org/1999/xlink" x="0px" y="0px" width="237px" height="3880px"
	 viewBox="-179 -1520.1 237 3880" style="enable-background:new -179 -1520.1 237 3880;" xml:space="preserve">
<style type="text/css">
	.st0{fill:#FFFFFF;}
	.st1{opacity:0.6;fill:#333333;enable-background:new    ;}
	.st2{opacity:0.6;fill:#31B500;enable-background:new    ;}
	.st3{opacity:0.6;}
	.st4{fill:#333333;}
	.st5{fill:#999999;}
	.st6{fill:#2BA6DE;}
	.st7{opacity:0.5;}
	.st8{opacity:0.7;enable-background:new    ;}
	.st9{fill:#D90007;}
	.st10{fill:#111111;}
	.st11{fill:#777777;}
	.st12{fill:#E44C51;}
	.st13{fill:none;stroke:#FFFFFF;}
	.st14{opacity:0.3;enable-background:new    ;}
	.st15{fill:#FFA500;}
	.st16{opacity:0.7;fill:#D90007;enable-background:new    ;}
	.st17{opacity:0.7;fill:#FFFFFF;enable-background:new    ;}
	.st18{opacity:0.7;fill:#333333;enable-background:new    ;}
	.st19{fill:#FF333A;}
	.st20{opacity:0.7;fill:#61D2FF;enable-background:new    ;}
	.st21{fill:#61D2FF;}
	.st22{fill:none;stroke:#FF333A;stroke-width:1.5;}
	.st23{opacity:0.5;fill:none;stroke:#61D2FF;enable-background:new    ;}
	.st24{fill:none;stroke:#61D2FF;stroke-width:1.5;}
	.st25{opacity:0.5;fill:none;stroke:#FFFFFF;enable-background:new    ;}
	.st26{fill:none;stroke:#FFFFFF;stroke-width:1.5;}
	.st27{fill:#31B500;}
	.st28{opacity:0.2;fill:#FFFFFF;enable-background:new    ;}
	.st29{opacity:3.000000e-02;enable-background:new    ;}
</style>
<title>Untitled 2</title>
<desc>Created with Sketch.</desc>
<path id="Rectangle-144-Copy-3" sketch:type="MSShapeGroup" class="st0" d="M-166-64.2v-7h-2v7h-7v2h7v7h2v-7h7v-2H-166z"/>
<path id="Rectangle-144-Copy-2" sketch:type="MSShapeGroup" class="st1" d="M-166-37.2v-7h-2v7h-7v2h7v7h2v-7h7v-2H-166z"/>
<path id="Rectangle-144-Copy-4" sketch:type="MSShapeGroup" class="st2" d="M-166-7.2v-7h-2v7h-7v2h7v7h2v-7h7v-2
	C-159-7.2-166-7.2-166-7.2z"/>
<g id="Imported-Layers-Copy" transform="translate(3.000000, 1546.000000)" sketch:type="MSLayerGroup" class="st3">
	<g id="Imported-Layers" sketch:type="MSShapeGroup">
		<path id="Fill-1" class="st4" d="M-169-1518.2c4.4,0,8,3.6,8,8s-3.6,8-8,8s-8-3.6-8-8S-173.4-1518.2-169-1518.2 M-169-1520.2
			c-5.5,0-10,4.5-10,10s4.5,10,10,10s10-4.5,10-10S-163.5-1520.2-169-1520.2"/>
		<path id="Fill-2" class="st5" d="M-164.2-1508.2c-0.5,2.3-2.5,4-4.9,4s-4.4-1.7-4.9-4H-164.2 M-163-1509.2h-12.2l0.2,1.2
			c0.6,2.8,3,4.8,5.9,4.8c2.8,0,5.3-2,5.9-4.8L-163-1509.2"/>
		<path id="Fill-3" class="st4" d="M-164-1508.2c-0.5,2.3-2.5,4-5,4s-4.5-1.7-5-4H-164 M-175-1509.2v1.2c0.6,2.8,3.1,4.8,6,4.8
			s5.4-2,6-4.8v-1.2H-175"/>
		<path id="Fill-4" class="st4" d="M-163-1511.7c0,0.8-0.7,1.5-1.5,1.5s-1.5-0.7-1.5-1.5s0.7-1.5,1.5-1.5S-163-1512.5-163-1511.7"/>
		<path id="Fill-5" class="st4" d="M-172-1511.7c0,0.8-0.7,1.5-1.5,1.5s-1.5-0.7-1.5-1.5s0.7-1.5,1.5-1.5S-172-1512.5-172-1511.7"/>
		<path id="Fill-6" class="st4" d="M-165-1505.2h-8l-1-2h10L-165-1505.2"/>
	</g>
</g>
<path id="Imported-Layers_1_" sketch:type="MSShapeGroup" class="st6" d="M-173.2,146.5c-0.3,0-0.6,0-1,0c-0.6,0-1-0.5-0.9-1.1
	c0-0.5,0.4-0.9,0.9-0.9c-0.1-0.3,0-0.7,0.2-0.9c0.1-0.1,0.1-0.2,0.2-0.4c-0.6-0.3-1.1-0.8-1.6-1.2c-0.4-0.4-0.4-1-0.1-1.4
	c0.4-0.4,1-0.4,1.4-0.1c0.4,0.4,0.9,0.7,1.5,1.1c0.5,0.4,0.8,0.8,0.8,1.4v0.1c0,0.5-0.1,1-0.4,1.4c0.7-0.1,1.2-0.2,1.8-0.3
	c0.5-0.2,1.1,0.1,1.2,0.7c0.2,0.5-0.1,1.1-0.7,1.2C-170.9,146.4-171.9,146.5-173.2,146.5L-173.2,146.5z M-164.8,145.4
	c-0.9,0-1.8-0.1-2.8-0.2c-0.5-0.1-0.9-0.6-0.9-1.1c0.1-0.5,0.6-1,1.1-0.9c1.4,0.2,2.6,0.2,3.7,0.1l0.2,1l0.1,1
	C-163.9,145.4-164.4,145.4-164.8,145.4L-164.8,145.4z M-160.5,144.7c-0.4,0-0.8-0.3-1-0.7c-0.2-0.5,0.1-1.1,0.6-1.3
	c1.2-0.4,2.3-1,3.1-1.7c0.4-0.4,1.1-0.3,1.4,0.1c0.4,0.4,0.3,1.1-0.1,1.4c-1.1,0.9-2.4,1.6-3.8,2.1
	C-160.3,144.7-160.4,144.7-160.5,144.7L-160.5,144.7z M-155.1,140.5c-0.2,0-0.3,0-0.5-0.1c-0.5-0.3-0.6-0.9-0.4-1.4
	c0.6-1,0.9-2.1,1-3.4c0-0.6,0.5-0.9,1.1-0.9s1,0.5,0.9,1.1c-0.1,1.5-0.5,2.9-1.2,4.2C-154.5,140.3-154.8,140.5-155.1,140.5
	L-155.1,140.5z M-176.6,139.8c-0.4,0-0.8-0.2-0.9-0.6c-0.3-0.8-0.5-1.6-0.5-2.5v-0.2c0-0.6,0.1-1.2,0.2-1.8c0.1-0.5,0.6-0.9,1.2-0.8
	c0.5,0.1,0.9,0.6,0.8,1.2c-0.1,0.5-0.1,0.9-0.1,1.4v0.2c0,0.6,0.1,1.2,0.4,1.7c0.2,0.5,0,1.1-0.5,1.3
	C-176.3,139.8-176.4,139.8-176.6,139.8L-176.6,139.8z M-154.3,133.7c-0.5,0-0.8-0.3-0.9-0.7v-0.1c-0.3-1.2-0.7-2.2-1.4-3.1
	c-0.3-0.4-0.3-1.1,0.2-1.4c0.4-0.3,1.1-0.3,1.4,0.2c0.9,1.1,1.5,2.4,1.8,3.9c0.1,0.5-0.2,1.1-0.8,1.2
	C-154.1,133.7-154.2,133.7-154.3,133.7L-154.3,133.7z M-175.8,133.1c-0.2,0-0.3,0-0.5-0.1c-0.5-0.3-0.6-0.9-0.4-1.4
	c0.7-1.2,1.7-2.3,2.9-3.3c0.4-0.4,1.1-0.3,1.4,0.1c0.4,0.4,0.3,1.1-0.1,1.4c-1,0.8-1.8,1.7-2.4,2.7
	C-175.1,132.9-175.4,133.1-175.8,133.1L-175.8,133.1z M-170.6,128.5c-0.4,0-0.7-0.2-0.9-0.5c-0.3-0.5-0.1-1.1,0.4-1.3
	c1.3-0.7,2.6-1.1,4-1.5c0.7-0.2,1.4-0.3,2.2-0.3c0.6-0.1,1,0.4,1.1,0.9c0,0.6-0.4,1-0.9,1.1c-0.6,0.1-1.3,0.1-1.9,0.3
	c-1.2,0.3-2.4,0.7-3.5,1.3C-170.3,128.4-170.5,128.5-170.6,128.5L-170.6,128.5z M-158.1,128.2c-0.2,0-0.3,0-0.5-0.1
	c-1-0.6-2.1-1-3.4-1.1c-0.5-0.1-0.9-0.6-0.8-1.1c0.1-0.6,0.6-0.9,1.1-0.9c1.5,0.2,2.9,0.7,4.1,1.4c0.5,0.3,0.6,0.9,0.3,1.4
	C-157.4,128-157.8,128.2-158.1,128.2L-158.1,128.2z"/>
<g id="ic_chat" transform="translate(4.000000, 1744.000000)" sketch:type="MSLayerGroup" class="st7">
	<path id="Fill-80" sketch:type="MSShapeGroup" class="st8" d="M-161.1-196.4c-0.5-0.1-0.8-0.5-0.8-0.9c0-0.1,0.1-0.2,0.1-0.2
		c1-0.6,1.8-1.5,1.8-2.6c0.1-2.3-2.1-4.1-4.3-4.7c0.1,1.7-0.4,3.3-1.4,4.6c-0.9,1.1-2.2,1.9-3.7,2.4c0.8,0.7,1.9,1.2,3.1,1.2
		c0.7,0.1,1.5,0,2.2-0.1c0.8,0.6,2,0.7,2.9,0.6C-160.8-196.2-160.9-196.4-161.1-196.4"/>
	<path id="Fill-81" sketch:type="MSShapeGroup" d="M-165.9-206c-0.8-3.6-4.4-4.7-7.8-4c-3.2,0.7-6.4,3.1-6.3,6.4
		c0,1.5,1,2.7,2.4,3.5c0.1,0.1,0.2,0.2,0.2,0.3c0,0.6-0.5,1.1-1.1,1.2c-0.3,0.1-0.4,0.2,0,0.3c1.3,0.1,2.8,0,3.9-0.8
		c1,0.1,2,0.2,2.9,0.1C-167.7-199.2-165-202.1-165.9-206"/>
</g>
<path id="Fill-57-Copy" sketch:type="MSShapeGroup" class="st4" d="M-173-1400.2c0,4.4,3.6,8,8,8s8-3.6,8-8s-3.6-8-8-8
	S-173-1404.6-173-1400.2L-173-1400.2z M-166-1405.2h2v4h4v2h-4v4h-2v-4h-4v-2h4V-1405.2L-166-1405.2z"/>
<path id="Fill-9-Copy-9" sketch:type="MSShapeGroup" class="st9" d="M-173-1292.2c0,4.4,3.6,8,8,8s8-3.6,8-8s-3.6-8-8-8
	S-173-1296.6-173-1292.2L-173-1292.2z M-170-1293.2h10v2h-10V-1293.2z"/>
<path id="ic_cloud-copy" sketch:type="MSShapeGroup" class="st4" d="M-175-1245.6c0,2.4,1.8,4.4,4.1,4.4h11.8c2.3,0,4.1-2,4.1-4.4
	s-1.7-4.3-3.9-4.4l0,0c0-2.8-2.1-5.2-4.8-5.2c-1.7,0-3.2,1-4.1,2.4c-0.3-0.1-0.6-0.2-0.9-0.2c-1.3,0-2.4,1.1-2.4,2.5
	c0,0.2,0,0.3,0,0.4C-173.2-1249.9-175-1248-175-1245.6"/>
<path id="Fill-1_1_" sketch:type="MSShapeGroup" class="st4" d="M-172-1211.2h14v9h-14V-1211.2z M-158-1213.2h-14c-1.1,0-2,0.9-2,2
	v9c0,1.1,0.9,2,2,2h4v1l-4,1v1h14v-1l-4-1v-1h4c1.1,0,2-0.9,2-2v-9C-156-1212.3-156.9-1213.2-158-1213.2L-158-1213.2z M-157-1202.2
	c0,0.5-0.4,1-1,1h-14c-0.6,0-1-0.5-1-1v-9c0-0.5,0.4-1,1-1h14c0.6,0,1,0.5,1,1V-1202.2L-157-1202.2z"/>
<g id="Fill-1-_x2B_-Fill-2" transform="translate(11.000000, 181.000000)" sketch:type="MSLayerGroup">
	<path id="Fill-1_2_" sketch:type="MSShapeGroup" class="st4" d="M-168.9-1502.2h-14.2c-0.5,0-0.9-0.4-0.9-0.9v-10.1h16v10.1
		C-168-1502.6-168.4-1502.2-168.9-1502.2z M-170.1-1506.1c-0.1-0.1-1.2-0.6-1.5-0.7c0,0,0-0.2-0.1-0.2s-0.2-0.1-0.2-0.1v-0.1v-0.1
		c0,0,0.1-0.2,0.1-0.3c0-0.1,0.1-0.3,0.1-0.3l0.1-0.1c0.1,0,0.2-0.5,0.2-0.5c0-0.2,0-0.1,0-0.2v-0.4c0-0.5-0.5-0.9-1.1-0.9l0,0
		c-0.5,0-1.1,0.3-1.1,0.9v0.4c0,0.1,0,0,0,0.2c0,0,0.1,0.5,0.2,0.5c0,0,0.1,0,0.1,0.1c0,0,0,0.2,0.1,0.3c0,0.1,0.1,0.2,0.1,0.3
		c0,0,0,0,0,0.1v0.1l-0.2,0.1c-0.1,0-0.1,0.2-0.1,0.2h-0.1c0.5,0.2,1.2,0.6,1.3,0.7c0,0,0.2,0.2,0.2,0.9h1.6c0.1,0,0.3-0.1,0.3-0.2
		v-0.1C-170-1505.5-170-1506-170.1-1506.1z M-178.6-1506.8c0,0,0-0.2-0.1-0.2s-0.2-0.1-0.2-0.1v-0.1v-0.1c0,0,0.1-0.2,0.1-0.3
		c0-0.1,0.1-0.3,0.1-0.3l0.1-0.1c0.1,0,0.2-0.5,0.2-0.5c0-0.2,0-0.1,0-0.2v-0.4c0-0.5-0.5-0.9-1.1-0.9l0,0c-0.5,0-1.1,0.3-1.1,0.9
		v0.4c0,0.1,0,0,0,0.2c0,0,0.1,0.5,0.2,0.5c0,0,0.1,0,0.1,0.1c0,0,0,0.2,0.1,0.3c0,0.1,0.1,0.2,0.1,0.3c0,0,0,0,0,0.1v0.1l-0.2,0.1
		c-0.1,0-0.1,0.2-0.1,0.2c-0.2,0.1-1.3,0.6-1.5,0.7c-0.1,0.1-0.1,0.6-0.1,0.6v0.1c0,0.1,0.2,0.2,0.3,0.2h1.6c0-0.7,0.1-0.8,0.2-0.9
		C-179.8-1506.2-179.1-1506.5-178.6-1506.8L-178.6-1506.8z M-174.8-1506.9c0-0.1,0-0.3-0.1-0.3s-0.3-0.1-0.3-0.1v-0.1
		c0-0.1,0-0.1,0-0.1c0-0.1,0.2-0.2,0.2-0.3c0-0.1,0.1-0.4,0.1-0.4c0-0.1,0.1-0.1,0.2-0.1c0.1-0.1,0.2-0.7,0.2-0.7
		c0-0.2-0.1-0.1-0.1-0.3v-0.6c0-0.7-0.6-1.1-1.3-1.1l0,0c-0.7,0-1.3,0.4-1.3,1.1v0.6c0,0.2-0.1,0.1-0.1,0.3c0,0,0.1,0.7,0.2,0.7
		c0.1,0,0.2,0.1,0.2,0.1s0,0.3,0.1,0.4c0,0.1,0.2,0.3,0.2,0.3v0.1c0,0.1,0,0.1,0,0.1s-0.2,0.1-0.3,0.1s-0.1,0.2-0.1,0.3
		c-0.3,0.1-1.8,0.8-1.9,0.9c-0.1,0.1-0.1,0.9-0.1,0.9v0.1c0,0.2,0.2,0.9,0.3,0.9h5.8c0.2,0,0.3-0.7,0.3-0.9v-0.1c0,0,0-0.7-0.1-0.9
		C-173-1506.2-174.5-1506.9-174.8-1506.9z"/>
	<path id="Fill-2_1_" sketch:type="MSShapeGroup" class="st10" d="M-177.9-1516.2c0.3,0,0.5,0.1,0.7,0.3l0.9,0.9
		c0.6,0.7,1,0.8,1.3,0.8h6c0.6,0,1,0.4,1,1h-16v-2c0-0.6,0.4-1,1-1L-177.9-1516.2z"/>
</g>
<path id="Fill-53-Copy" sketch:type="MSShapeGroup" class="st4" d="M-168.3-1468.9c-1.7-1.7-3-3.8-4.1-6c-1.1-2-0.5-3.9,1.5-5.1
	c0.7-0.4,1.3-0.4,1.8,0.2c0.2,0.3,1.2,1.4,1.4,1.8c0.8,1,0.8,1.6-0.6,2.9c-0.6,0.6-0.4,1.3,0,1.7l4.3,4.3c0.4,0.4,1.2,0.6,1.7,0
	c1.4-1.4,2-1.4,2.9-0.6c0.3,0.2,1.4,1.2,1.8,1.4c0.6,0.5,0.7,1.1,0.2,1.8c-1.2,2-3,2.6-5.1,1.5
	C-164.5-1465.9-166.6-1467.1-168.3-1468.9L-168.3-1468.9z"/>
<path class="st4" d="M-165-1372.2c-4.4,0-8,3.6-8,8s3.6,8,8,8s8-3.6,8-8S-160.6-1372.2-165-1372.2z M-161-1363.2l-3-3v7h-2v-7l-3,3
	l-1-1l5-5l5,5L-161-1363.2z"/>
<path id="Fill-2-Copy" sketch:type="MSShapeGroup" class="st4" d="M-160-1435.2l5,4v-10l-5,4V-1435.2z M-173-1440.2c0-1.1,0.9-2,2-2
	h8c1.1,0,2,0.9,2,2v8c0,1.1-0.9,2-2,2h-8c-1.1,0-2-0.9-2-2V-1440.2z"/>
<path id="Fill-37" sketch:type="MSShapeGroup" class="st0" d="M-170-161.2l1.4-1.3l1.7,1.7l3.5-3.3l1.4,1.3l-4.9,4.7L-170-161.2"/>
<path id="ic_search-copy" sketch:type="MSShapeGroup" class="st11" d="M-156.2-217.3l-3-3c-0.2-0.2-0.5-0.2-0.8-0.1l-1.2-1.2
	c0.7-1,1.2-2.2,1.2-3.5c0-3.3-2.7-6-6-6s-6,2.7-6,6s2.7,6,6,6c1.3,0,2.5-0.4,3.5-1.2l1.2,1.2c-0.1,0.3-0.1,0.5,0.1,0.7l3,3
	c0.3,0.2,0.7,0.2,0.9,0l1-1C-155.9-216.7-155.9-217.1-156.2-217.3L-156.2-217.3z M-170-225.2c0-2.2,1.8-4,4-4s4,1.8,4,4s-1.8,4-4,4
	S-170-223-170-225.2L-170-225.2z"/>
<path id="Rectangle-144-Copy-3_1_" sketch:type="MSShapeGroup" class="st12" d="M-164.6-1048.2l4.9-4.9l-1.4-1.4l-4.9,5l-4.9-5
	l-1.4,1.4l5,4.9l-5,4.9l1.4,1.4l4.9-5l4.9,5l1.4-1.4L-164.6-1048.2z"/>
<path id="Rectangle-138-Copy-4" sketch:type="MSShapeGroup" class="st11" d="M-165-1122.2h2v-4h-4v3v3h2V-1122.2z M-171-1122.2h2v-4
	h-4v3v3h2V-1122.2L-171-1122.2z"/>
<path id="Rectangle-144-Copy-7" sketch:type="MSShapeGroup" class="st11" d="M-164.6-1082.2l4.9-4.9l-1.4-1.4l-4.9,4.9l-4.9-4.9
	l-1.4,1.4l5,4.9l-5,5l1.4,1.4l4.9-5l4.9,5l1.4-1.4L-164.6-1082.2z"/>
<path id="Fill-5-Copy" sketch:type="MSShapeGroup" class="st11" d="M-163.1-1011.6c0-0.1-0.1-0.7-0.3-0.8s-0.8-0.4-0.8-0.4
	s-0.1-0.2-0.1-0.3s0.1-0.3,0.1-0.3c0.1-0.2,0.4-0.5,0.4-0.8c0.1-0.3,0.2-1,0.2-1c0-0.2,0.2-0.2,0.4-0.3c0.3-0.1,0.5-1.7,0.5-1.7
	c0-0.5-0.2-0.3-0.2-0.7v-1.4c0-1.7-1.4-2.8-3.1-2.8h-0.1c-1.7,0-3.1,1.1-3.1,2.8v1.4c0,0.4-0.2,0.1-0.2,0.7c0,0,0.2,1.6,0.5,1.7
	c0.1,0.1,0.4,0.1,0.4,0.3c0,0,0.1,0.8,0.2,1c0.1,0.3,0.4,0.7,0.4,0.8c0,0,0.1,0.1,0.1,0.3c0,0.1-0.1,0.3-0.1,0.3s-0.6,0.3-0.8,0.4
	s-0.3,0.6-0.3,0.8c-0.7,0.2-4.3,1.9-4.8,2.3c-0.3,0.3-0.3,2.1-0.3,2.1v0.2c0,0.4,0.3,0.8,0.8,0.8h14.5c0.4,0,0.8-0.3,0.8-0.8v-0.2
	c0,0,0-1.8-0.3-2.1C-158.7-1009.7-162.4-1011.4-163.1-1011.6z"/>
<path id="Imported-Layers-Copy-2" sketch:type="MSShapeGroup" class="st11" d="M-164.7-985.2c-0.7,0-1.4,0.1-2.2,0.2
	c-0.3,0.1-0.4,0.3-0.4,0.6c0,0.2,0.3,0.4,0.5,0.4h0.1c0.4-0.1,0.8-0.1,1.1-0.2l0,0l0,0c0,0,0,0,0.1,0l0,0l0,0l0,0l0,0l0,0l0,0l0,0
	l0,0l0,0l0,0l0,0l0,0l0,0l0,0l0,0l0,0l0,0l0,0l0,0l0,0l0,0l0,0l0,0l0,0l0,0l0,0l0,0l0,0l0,0l0,0l0,0l0,0l0,0l0,0l0,0l0,0l0,0l0,0
	l0,0l0,0l0,0l0,0l0,0l0,0l0,0l0,0l0,0l0,0l0,0l0,0l0,0l0,0l0,0l0,0l0,0l0,0l0,0l0,0l0,0l0,0l0,0l0,0l0,0l0,0l0,0l0,0l0,0l0,0l0,0
	l0,0l0,0l0,0l0,0l0,0l0,0l0,0l0,0l0,0l0,0l0,0l0,0l0,0l0,0l0,0l0,0l0,0l0,0l0,0l0,0l0,0l0,0l0,0l0,0l0,0l0,0l0,0l0,0l0,0l0,0l0,0
	l0,0l0,0l0,0l0,0l0,0l0,0l0,0l0,0l0,0l0,0l0,0l0,0l0,0l0,0l0,0l0,0l0,0l0,0l0,0l0,0l0,0l0,0l0,0l0,0l0,0l0,0l0,0l0,0l0,0l0,0l0,0
	l0,0l0,0l0,0l0,0l0,0l0,0l0,0l0,0l0,0l0,0l0,0l0,0l0,0l0,0l0,0l0,0l0,0l0,0l0,0l0,0l0,0l0,0l0,0l0,0l0,0l0,0c0,0,0,0,0.1,0
	c0,0,0,0,0.1,0c0.2,0,0.4,0,0.6,0l0,0l0,0l0,0l0,0l0,0l0,0l0,0l0,0l0,0l0,0l0,0l0,0l0,0l0,0l0,0l0,0l0,0l0,0l0,0l0,0l0,0l0,0l0,0
	l0,0l0,0l0,0l0,0l0,0l0,0l0,0l0,0l0,0l0,0l0,0l0,0l0,0l0,0l0,0l0,0l0,0l0,0l0,0l0,0l0,0l0,0l0,0l0,0l0,0l0,0l0,0l0,0l0,0l0,0l0,0
	l0,0l0,0l0,0l0,0l0,0l0,0l0,0l0,0l0,0l0,0l0,0l0,0l0,0l0,0l0,0l0,0l0,0l0,0l0,0l0,0l0,0l0,0l0,0l0,0l0,0l0,0l0,0l0,0l0,0l0,0l0,0
	l0,0l0,0l0,0l0,0l0,0l0,0c0.3,0,0.6,0.1,0.9,0.2h0.1c0.2,0,0.4-0.1,0.5-0.4c0.1-0.3-0.1-0.5-0.4-0.6c-0.7-0.2-1.4-0.3-2.2-0.3l0,0
	C-164.6-985.2-164.7-985.2-164.7-985.2L-164.7-985.2L-164.7-985.2z M-168.8-984.4c-0.1,0-0.1,0-0.2,0c-0.7,0.3-1.3,0.6-1.9,1
	c-0.2,0.1-0.3,0.5-0.2,0.7c0.1,0.1,0.3,0.2,0.4,0.2c0.1,0,0.2,0,0.3-0.1c0.3-0.2,0.7-0.4,1.1-0.6l0,0l0,0l0,0l0,0l0,0l0,0l0,0l0,0
	l0,0l0,0l0,0l0,0l0,0l0,0l0,0l0,0l0,0l0,0l0,0l0,0l0,0l0,0l0,0l0,0l0,0l0,0l0,0l0,0l0,0l0,0l0,0l0,0l0,0l0,0l0,0l0,0l0,0l0,0l0,0
	c0.2-0.1,0.4-0.2,0.5-0.2c0.3-0.1,0.4-0.4,0.3-0.6C-168.4-984.3-168.6-984.4-168.8-984.4L-168.8-984.4z M-172.3-982.1
	c-0.1,0-0.3,0-0.4,0.1c-0.6,0.6-1,1.2-1.4,1.8c-0.1,0.2-0.1,0.5,0.2,0.7c0.1,0,0.2,0.1,0.2,0.1c0.2,0,0.3-0.1,0.4-0.3
	c0-0.1,0.1-0.1,0.1-0.2l0,0l0,0l0,0l0,0l0,0l0,0l0,0l0,0l0,0l0,0l0,0l0,0l0,0l0,0l0,0l0,0l0,0l0,0l0,0l0,0l0,0l0,0l0,0l0,0l0,0l0,0
	l0,0l0,0l0,0l0,0l0,0l0,0l0,0l0,0l0,0l0,0l0,0l0,0l0,0l0,0c0.3-0.4,0.6-0.9,1-1.2c0.2-0.2,0.2-0.5,0-0.7
	C-172.1-982.1-172.2-982.1-172.3-982.1L-172.3-982.1z M-174.4-978.4c-0.2,0-0.4,0.2-0.5,0.4c-0.1,0.5-0.1,1-0.1,1.5
	c0,0.3,0,0.6,0.1,0.9c0,0.2,0.3,0.4,0.5,0.4h0.1c0.3-0.1,0.4-0.3,0.4-0.6v-0.1l0,0l0,0l0,0l0,0l0,0l0,0l0,0l0,0l0,0l0,0l0,0l0,0l0,0
	l0,0l0,0l0,0l0,0l0,0l0,0l0,0l0,0l0,0c0-0.1,0-0.3,0-0.4l0,0l0,0l0,0l0,0l0,0l0,0l0,0l0,0l0,0l0,0l0,0l0,0l0,0l0,0l0,0l0,0l0,0l0,0
	l0,0l0,0l0,0l0,0l0,0l0,0l0,0l0,0l0,0l0,0l0,0l0,0l0,0l0,0l0,0c0-0.4,0-0.8,0.1-1.2C-173.8-978.1-174-978.4-174.4-978.4
	C-174.3-978.4-174.4-978.4-174.4-978.4L-174.4-978.4z M-173.5-974.2c-0.1,0-0.2,0-0.3,0.1c-0.2,0.2-0.3,0.5-0.1,0.7
	c0.4,0.5,1,1,1.6,1.5l0,0c-0.1,0.1-0.2,0.1-0.3,0.1c-0.8,0.2-1.1,0.8-1,1.2c0,0.2,0.1,1,1.2,1.1c0.2,0,0.4,0,0.6,0l0,0
	c0.3,0,0.5-0.2,0.5-0.5s-0.2-0.5-0.5-0.5c-0.2,0-0.4,0-0.5,0l0,0l0,0l0,0l0,0l0,0l0,0l0,0l0,0l0,0l0,0l0,0c-0.1,0-0.1,0-0.2,0l0,0
	l0,0l0,0l0,0l0,0l0,0l0,0l0,0l0,0l0,0l0,0c-0.1,0-0.1-0.1-0.1-0.1l0,0l0,0l0,0l0,0c0-0.1,0.1-0.1,0.3-0.2l0,0l0,0l0,0l0,0l0,0l0,0
	l0,0l0,0l0,0l0,0l0,0l0,0l0,0l0,0l0,0l0,0l0,0c0.2-0.1,0.4-0.2,0.6-0.3c0.2-0.2,0.3-0.5,0.1-0.7l0,0c0.1,0,0.1-0.1,0.2-0.2
	c0.1-0.2,0.1-0.5-0.2-0.7c-0.4-0.3-0.8-0.5-1.1-0.9l0,0l0,0l0,0l0,0l0,0l0,0l0,0l0,0l0,0l0,0l0,0l0,0l0,0l0,0l0,0l0,0l0,0l0,0l0,0
	l0,0l0,0l0,0l0,0l0,0l0,0l0,0l0,0l0,0l0,0l0,0l0,0l0,0l0,0l0,0l0,0l0,0l0,0l0,0l0,0l0,0l0,0l0,0l0,0l0,0l0,0l0,0l0,0l0,0l0,0l0,0
	l0,0l0,0l0,0l0,0l0,0l0,0l0,0l0,0l0,0l0,0l0,0l0,0l0,0l0,0l0,0l0,0l0,0l0,0l0,0l0,0l0,0l0,0l0,0l0,0l0,0l0,0l0,0l0,0l0,0
	c-0.1-0.1-0.1-0.1-0.2-0.2C-173.2-974.2-173.3-974.2-173.5-974.2L-173.5-974.2z M-167.9-971.4L-167.9-971.4c-0.5,0.4-1,0.6-1.6,0.8
	l0,0l0,0l0,0l0,0l0,0l0,0l0,0l0,0l0,0l0,0l0,0l0,0l0,0l0,0l0,0l0,0l0,0l0,0l0,0l0,0l0,0l0,0l0,0l0,0l0,0l0,0l0,0l0,0l0,0l0,0h-0.1
	c-0.3,0.1-0.4,0.3-0.4,0.6c0,0.2,0.3,0.4,0.5,0.4h0.1c0.9-0.2,1.6-0.5,2.2-1c0.2-0.2,0.2-0.5,0.1-0.7
	C-167.5-971.4-167.7-971.4-167.9-971.4L-167.9-971.4z M-163.9-971.4L-163.9-971.4c-0.1,0-0.2,0-0.3,0l0,0l0,0l0,0l0,0l0,0l0,0l0,0
	l0,0l0,0l0,0l0,0l0,0l0,0l0,0l0,0l0,0l0,0l0,0l0,0l0,0l0,0l0,0l0,0l0,0l0,0l0,0c-0.1,0-0.2,0-0.3,0l0,0l0,0l0,0l0,0l0,0l0,0l0,0
	c-0.3,0-0.6,0-0.9,0l0,0l0,0l0,0l0,0l0,0l0,0l0,0l0,0l0,0l0,0l0,0l0,0l0,0l0,0l0,0l0,0l0,0l0,0l0,0l0,0l0,0l0,0l0,0l0,0l0,0l0,0l0,0
	l0,0l0,0l0,0l0,0l0,0l0,0l0,0l0,0l0,0l0,0l0,0l0,0l0,0l0,0l0,0l0,0l0,0l0,0l0,0l0,0l0,0l0,0l0,0l0,0l0,0l0,0l0,0l0,0l0,0l0,0l0,0
	l0,0l0,0c0,0,0,0-0.1,0l0,0c-0.3,0-0.5,0.2-0.5,0.5s0.2,0.5,0.5,0.5c0.2,0,0.3,0,0.5,0c0.3,0,0.7,0,1,0c0.2,0,0.5,0,0.8-0.1
	c0.3,0,0.5-0.3,0.4-0.6C-163.4-971.2-163.6-971.4-163.9-971.4L-163.9-971.4z M-160-973c-0.1,0-0.2,0-0.3,0.1s-0.2,0.2-0.3,0.3l0,0
	l0,0l0,0l0,0l0,0l0,0l0,0l0,0l0,0l0,0l0,0l0,0l0,0l0,0l0,0l0,0l0,0l0,0l0,0l0,0l0,0l0,0l0,0l0,0l0,0l0,0l0,0l0,0l0,0l0,0l0,0l0,0
	l0,0l0,0l0,0l0,0l0,0l0,0l0,0c-0.4,0.2-0.8,0.5-1.2,0.6c-0.3,0.1-0.4,0.4-0.3,0.6c0.1,0.2,0.3,0.3,0.5,0.3c0.1,0,0.1,0,0.2,0
	c0.7-0.3,1.4-0.7,2-1.1c0.2-0.2,0.3-0.5,0.1-0.7C-159.7-972.9-159.8-973-160-973L-160-973z M-157.7-976.6c-0.2,0-0.4,0.2-0.5,0.4
	l0,0l0,0l0,0l0,0l0,0l0,0l0,0l0,0l0,0l0,0l0,0l0,0l0,0l0,0l0,0l0,0l0,0l0,0l0,0l0,0l0,0l0,0l0,0l0,0l0,0l0,0l0,0l0,0l0,0l0,0l0,0
	l0,0l0,0l0,0l0,0l0,0l0,0l0,0l0,0l0,0l0,0l0,0l0,0l0,0l0,0l0,0l0,0l0,0l0,0l0,0l0,0l0,0l0,0l0,0l0,0l0,0l0,0l0,0l0,0l0,0l0,0l0,0
	l0,0l0,0l0,0l0,0l0,0l0,0l0,0l0,0l0,0l0,0l0,0l0,0l0,0l0,0l0,0l0,0l0,0l0,0l0,0l0,0l0,0l0,0l0,0l0,0l0,0l0,0l0,0l0,0l0,0l0,0l0,0
	l0,0l0,0l0,0l0,0l0,0l0,0l0,0l0,0l0,0l0,0l0,0l0,0l0,0l0,0l0,0l0,0l0,0l0,0l0,0l0,0l0,0l0,0l0,0l0,0l0,0l0,0l0,0l0,0l0,0l0,0l0,0
	l0,0l0,0l0,0l0,0l0,0l0,0l0,0l0,0l0,0l0,0l0,0l0,0l0,0l0,0l0,0l0,0l0,0l0,0l0,0l0,0l0,0l0,0l0,0l0,0l0,0l0,0l0,0l0,0l0,0l0,0l0,0
	l0,0l0,0l0,0l0,0l0,0l0,0l0,0l0,0l0,0l0,0l0,0l0,0l0,0l0,0l0,0l0,0l0,0l0,0l0,0l0,0l0,0l0,0l0,0l0,0l0,0l0,0l0,0l0,0l0,0l0,0l0,0
	l0,0l0,0l0,0l0,0l0,0l0,0l0,0l0,0l0,0l0,0l0,0l0,0l0,0l0,0c-0.1,0.3-0.3,0.6-0.4,0.8c-0.1,0.2-0.1,0.5,0.1,0.7
	c0.1,0.1,0.2,0.1,0.3,0.1c0.2,0,0.3-0.1,0.4-0.2c0.4-0.7,0.7-1.4,0.9-2.1c0.1-0.3-0.1-0.5-0.4-0.6
	C-157.6-976.6-157.7-976.6-157.7-976.6L-157.7-976.6z M-157.9-980.8c-0.1,0-0.1,0-0.2,0c-0.3,0.1-0.4,0.4-0.3,0.6l0,0l0,0l0,0l0,0
	l0,0l0,0l0,0l0,0l0,0l0,0l0,0l0,0l0,0l0,0l0,0l0,0l0,0l0,0l0,0l0,0l0,0l0,0c0.1,0.2,0.1,0.4,0.2,0.6l0,0l0,0l0,0l0,0l0,0l0,0l0,0
	l0,0l0,0l0,0l0,0l0,0l0,0l0,0l0,0l0,0l0,0l0,0l0,0c0,0.2,0.1,0.3,0.1,0.5l0,0l0,0l0,0l0,0l0,0l0,0l0,0l0,0l0,0l0,0l0,0l0,0l0,0l0,0
	l0,0l0,0l0,0l0,0l0,0l0,0l0,0l0,0l0,0l0,0l0,0l0,0l0,0l0,0l0,0l0,0l0,0l0,0l0,0l0,0l0,0l0,0l0,0l0,0l0,0l0,0l0,0
	c0,0.2,0,0.4,0.1,0.5c0,0.3,0.2,0.5,0.5,0.5l0,0c0.3,0,0.5-0.3,0.5-0.5c0-0.5-0.1-0.9-0.2-1.4c-0.1-0.3-0.1-0.6-0.2-0.8
	C-157.5-980.7-157.7-980.8-157.9-980.8L-157.9-980.8z M-160.6-984.1c-0.2,0-0.3,0.1-0.4,0.2c-0.1,0.2-0.1,0.5,0.2,0.7l0,0l0,0l0,0
	l0,0l0,0l0,0l0,0l0,0l0,0l0,0l0,0l0,0l0,0l0,0l0,0l0,0l0,0l0,0l0,0l0,0l0,0l0,0l0,0l0,0l0,0l0,0l0,0l0,0l0,0l0,0l0,0l0,0l0,0l0,0
	l0,0l0,0l0,0l0,0l0,0l0,0l0,0l0,0l0,0l0,0l0,0l0,0l0,0l0,0l0,0l0,0l0,0l0,0l0,0l0,0l0,0l0,0l0,0l0,0l0,0l0,0l0,0l0,0l0,0l0,0l0,0
	l0,0l0,0l0,0l0,0l0,0l0,0l0,0l0,0l0,0l0,0l0,0l0,0l0,0l0,0l0,0l0,0l0,0l0,0l0,0l0,0l0,0l0,0l0,0l0,0l0,0l0,0l0,0l0,0l0,0l0,0l0,0
	l0,0l0,0l0,0l0,0l0,0l0,0l0,0l0,0l0,0l0,0l0,0l0,0l0,0l0,0l0,0l0,0l0,0l0,0l0,0l0,0l0,0l0,0l0,0l0,0l0,0l0,0l0,0l0,0l0,0l0,0l0,0
	l0,0l0,0l0,0l0,0l0,0l0,0l0,0l0,0l0,0l0,0l0,0l0,0l0,0l0,0l0,0l0,0l0,0l0,0l0,0l0,0l0,0l0,0l0,0l0,0l0,0l0,0l0,0l0,0l0,0l0,0l0,0
	l0,0l0,0l0,0l0,0l0,0l0,0l0,0l0,0l0,0l0,0l0,0l0,0l0,0l0,0l0,0l0,0l0,0l0,0l0,0l0,0l0,0l0,0l0,0l0,0l0,0l0,0l0,0l0,0l0,0l0,0l0,0
	l0,0l0,0l0,0l0,0l0,0l0,0l0,0l0,0l0,0l0,0l0,0l0,0l0,0l0,0l0,0l0,0l0,0l0,0l0,0l0,0l0,0l0,0l0,0l0,0l0,0l0,0l0,0l0,0l0,0l0,0l0,0
	l0,0l0,0l0,0l0,0c0.2,0.2,0.4,0.4,0.6,0.7c0.1,0.1,0.2,0.2,0.4,0.2c0.1,0,0.2,0,0.3-0.1c0.2-0.2,0.3-0.5,0.1-0.7
	c-0.5-0.6-1.1-1.1-1.8-1.5C-160.4-984.1-160.5-984.1-160.6-984.1L-160.6-984.1z"/>
<path id="ic_cloud-copy-2" sketch:type="MSShapeGroup" class="st0" d="M-175-735.6c0,2.4,1.8,4.4,4.1,4.4h11.8c2.3,0,4.1-2,4.1-4.4
	s-1.7-4.3-3.9-4.4l0,0c0-2.8-2.1-5.2-4.8-5.2c-1.7,0-3.2,1-4.1,2.4c-0.3-0.1-0.6-0.2-0.9-0.2c-1.3,0-2.4,1.1-2.4,2.5
	c0,0.2,0,0.3,0,0.4C-173.2-739.9-175-738-175-735.6"/>
<path id="Fill-1-Copy" sketch:type="MSShapeGroup" class="st0" d="M-172-701.2h14v9h-14V-701.2z M-158-703.2h-14c-1.1,0-2,0.9-2,2v9
	c0,1.1,0.9,2,2,2h4v1l-4,1v1h14v-1l-4-1v-1h4c1.1,0,2-0.9,2-2v-9C-156-702.3-156.9-703.2-158-703.2L-158-703.2z M-157-692.2
	c0,0.5-0.4,1-1,1h-14c-0.6,0-1-0.5-1-1v-9c0-0.5,0.4-1,1-1h14c0.6,0,1,0.5,1,1V-692.2L-157-692.2z"/>
<g id="Group-Copy-3" transform="translate(7.000000, 858.000000)" sketch:type="MSLayerGroup">
	<g sketch:type="MSShapeGroup">
		<path id="Rectangle-67_1_" class="st13" d="M-180-1509.2l9.6-9.6c0.8-0.8,2.1-0.8,2.8,0l0.2,0.2c0.8,0.8,0.8,2.1,0,2.8l-9.6,9.6
			l-5,2L-180-1509.2z"/>
		<path id="Path-280_1_" class="st13" d="M-172-1517.2l3.1,3"/>
		<path id="Path-280-Copy_1_" class="st13" d="M-179-1510.2l3.1,3"/>
		<rect id="Rectangle-68-Copy_1_" x="-173" y="-1505.2" class="st0" width="4" height="1"/>
		<rect id="Rectangle-68-Copy-2_1_" x="-167" y="-1505.2" class="st0" width="2" height="1"/>
		<rect id="Rectangle-68-Copy-3_1_" x="-177" y="-1505.2" class="st0" width="2" height="1"/>
	</g>
</g>
<path id="Rectangle-138-Copy-5" sketch:type="MSShapeGroup" class="st0" d="M-165-612.2h2v-4h-4v3v3h2V-612.2z M-171-612.2h2v-4h-4
	v3v3h2V-612.2L-171-612.2z"/>
<path id="Rectangle-144-Copy-8" sketch:type="MSShapeGroup" class="st0" d="M-164.6-584.2l4.9-4.9l-1.4-1.4l-4.9,4.9l-4.9-4.9
	l-1.4,1.4l5,4.9l-5,5l1.4,1.4l4.9-5l4.9,5l1.4-1.4L-164.6-584.2z"/>
<path id="Fill-5-Copy-2" sketch:type="MSShapeGroup" class="st0" d="M-163.1-521.6c0-0.1-0.1-0.7-0.3-0.8s-0.8-0.4-0.8-0.4
	s-0.1-0.2-0.1-0.3s0.1-0.3,0.1-0.3c0.1-0.2,0.4-0.5,0.4-0.8s0.2-1,0.2-1c0-0.2,0.2-0.2,0.4-0.3c0.3-0.1,0.5-1.7,0.5-1.7
	c0-0.5-0.2-0.3-0.2-0.7v-1.4c0-1.7-1.4-2.8-3.1-2.8h-0.1c-1.7,0-3.1,1.1-3.1,2.8v1.4c0,0.4-0.2,0.1-0.2,0.7c0,0,0.2,1.6,0.5,1.7
	c0.1,0.1,0.4,0.2,0.4,0.3c0,0,0.1,0.8,0.2,1s0.4,0.7,0.4,0.8c0,0,0.1,0.2,0.1,0.3s-0.1,0.3-0.1,0.3s-0.6,0.3-0.8,0.4
	c-0.2,0.1-0.3,0.6-0.3,0.8c-0.7,0.2-4.3,1.9-4.8,2.3c-0.3,0.3-0.3,2.1-0.3,2.1v0.2c0,0.4,0.3,0.8,0.8,0.8h14.5
	c0.4,0,0.8-0.3,0.8-0.8v-0.2c0,0,0-1.8-0.3-2.1C-158.7-519.7-162.4-521.4-163.1-521.6z"/>
<path id="Imported-Layers-Copy-3" sketch:type="MSShapeGroup" class="st0" d="M-164.7-495.2c-0.7,0-1.4,0.1-2.2,0.2
	c-0.3,0.1-0.4,0.3-0.4,0.6c0,0.2,0.3,0.4,0.5,0.4h0.1c0.4-0.1,0.8-0.1,1.1-0.2l0,0l0,0c0,0,0,0,0.1,0l0,0l0,0l0,0l0,0l0,0l0,0l0,0
	l0,0l0,0l0,0l0,0l0,0l0,0l0,0l0,0l0,0l0,0l0,0l0,0l0,0l0,0l0,0l0,0l0,0l0,0l0,0l0,0l0,0l0,0l0,0l0,0l0,0l0,0l0,0l0,0l0,0l0,0l0,0
	l0,0l0,0l0,0l0,0l0,0l0,0l0,0l0,0l0,0l0,0l0,0l0,0l0,0l0,0l0,0l0,0l0,0l0,0l0,0l0,0l0,0l0,0l0,0l0,0l0,0l0,0l0,0l0,0l0,0l0,0l0,0
	l0,0l0,0l0,0l0,0l0,0l0,0l0,0l0,0l0,0l0,0l0,0l0,0l0,0l0,0l0,0l0,0l0,0l0,0l0,0l0,0l0,0l0,0l0,0l0,0l0,0l0,0l0,0l0,0l0,0l0,0l0,0
	l0,0l0,0l0,0l0,0l0,0l0,0l0,0l0,0l0,0l0,0l0,0l0,0l0,0l0,0l0,0l0,0l0,0l0,0l0,0l0,0l0,0l0,0l0,0l0,0l0,0l0,0l0,0l0,0l0,0l0,0l0,0
	l0,0l0,0l0,0l0,0l0,0l0,0l0,0l0,0l0,0l0,0l0,0l0,0l0,0l0,0l0,0l0,0l0,0l0,0l0,0l0,0l0,0l0,0l0,0l0,0l0,0l0,0c0,0,0,0,0.1,0
	c0,0,0,0,0.1,0c0.2,0,0.4,0,0.6,0l0,0l0,0l0,0l0,0l0,0l0,0l0,0l0,0l0,0l0,0l0,0l0,0l0,0l0,0l0,0l0,0l0,0l0,0l0,0l0,0l0,0l0,0l0,0
	l0,0l0,0l0,0l0,0l0,0l0,0l0,0l0,0l0,0l0,0l0,0l0,0l0,0l0,0l0,0l0,0l0,0l0,0l0,0l0,0l0,0l0,0l0,0l0,0l0,0l0,0l0,0l0,0l0,0l0,0l0,0
	l0,0l0,0l0,0l0,0l0,0l0,0l0,0l0,0l0,0l0,0l0,0l0,0l0,0l0,0l0,0l0,0l0,0l0,0l0,0l0,0l0,0l0,0l0,0l0,0l0,0l0,0l0,0l0,0l0,0l0,0l0,0
	l0,0l0,0l0,0l0,0l0,0l0,0c0.3,0,0.6,0.1,0.9,0.2h0.1c0.2,0,0.4-0.1,0.5-0.4s-0.1-0.5-0.4-0.6c-0.7-0.2-1.4-0.3-2.2-0.3l0,0
	C-164.6-495.2-164.7-495.2-164.7-495.2L-164.7-495.2L-164.7-495.2z M-168.8-494.4c-0.1,0-0.1,0-0.2,0c-0.7,0.3-1.3,0.6-1.9,1
	c-0.2,0.1-0.3,0.5-0.2,0.7c0.1,0.1,0.3,0.2,0.4,0.2c0.1,0,0.2,0,0.3-0.1c0.3-0.2,0.7-0.4,1.1-0.6l0,0l0,0l0,0l0,0l0,0l0,0l0,0l0,0
	l0,0l0,0l0,0l0,0l0,0l0,0l0,0l0,0l0,0l0,0l0,0l0,0l0,0l0,0l0,0l0,0l0,0l0,0l0,0l0,0l0,0l0,0l0,0l0,0l0,0l0,0l0,0l0,0l0,0l0,0l0,0
	c0.2-0.1,0.4-0.2,0.5-0.2c0.3-0.1,0.4-0.4,0.3-0.7C-168.4-494.3-168.6-494.4-168.8-494.4L-168.8-494.4z M-172.3-492.1
	c-0.1,0-0.3,0-0.4,0.1c-0.6,0.6-1,1.2-1.4,1.8c-0.1,0.2-0.1,0.5,0.2,0.7c0.1,0,0.2,0.1,0.2,0.1c0.2,0,0.3-0.1,0.4-0.3
	c0-0.1,0.1-0.1,0.1-0.2l0,0l0,0l0,0l0,0l0,0l0,0l0,0l0,0l0,0l0,0l0,0l0,0l0,0l0,0l0,0l0,0l0,0l0,0l0,0l0,0l0,0l0,0l0,0l0,0l0,0l0,0
	l0,0l0,0l0,0l0,0l0,0l0,0l0,0l0,0l0,0l0,0l0,0l0,0l0,0l0,0c0.3-0.4,0.6-0.9,1-1.2c0.2-0.2,0.2-0.5,0-0.7
	C-172.1-492.1-172.2-492.1-172.3-492.1L-172.3-492.1z M-174.4-488.4c-0.2,0-0.4,0.2-0.5,0.4c-0.1,0.5-0.1,1-0.1,1.5
	c0,0.3,0,0.6,0.1,0.9c0,0.2,0.3,0.4,0.5,0.4h0.1c0.3-0.1,0.4-0.3,0.4-0.6v-0.1l0,0l0,0l0,0l0,0l0,0l0,0l0,0l0,0l0,0l0,0l0,0l0,0l0,0
	l0,0l0,0l0,0l0,0l0,0l0,0l0,0l0,0l0,0c0-0.1,0-0.3,0-0.4l0,0l0,0l0,0l0,0l0,0l0,0l0,0l0,0l0,0l0,0l0,0l0,0l0,0l0,0l0,0l0,0l0,0l0,0
	l0,0l0,0l0,0l0,0l0,0l0,0l0,0l0,0l0,0l0,0l0,0l0,0l0,0l0,0l0,0c0-0.4,0-0.8,0.1-1.2C-173.8-488.1-174-488.4-174.4-488.4
	C-174.3-488.4-174.4-488.4-174.4-488.4L-174.4-488.4z M-173.5-484.2c-0.1,0-0.2,0-0.3,0.1c-0.2,0.2-0.3,0.5-0.1,0.7
	c0.4,0.6,1,1,1.6,1.5l0,0c-0.1,0.1-0.2,0.1-0.3,0.1c-0.8,0.2-1.1,0.8-1,1.2c0,0.2,0.1,0.9,1.2,1.1c0.2,0,0.4,0,0.6,0l0,0
	c0.3,0,0.5-0.2,0.5-0.5s-0.2-0.5-0.5-0.5c-0.2,0-0.4,0-0.5,0l0,0l0,0l0,0l0,0l0,0l0,0l0,0l0,0l0,0l0,0l0,0c-0.1,0-0.1,0-0.2,0l0,0
	l0,0l0,0l0,0l0,0l0,0l0,0l0,0l0,0l0,0l0,0c-0.1,0-0.1-0.1-0.1-0.1l0,0l0,0l0,0l0,0c0-0.1,0.1-0.1,0.3-0.2l0,0l0,0l0,0l0,0l0,0l0,0
	l0,0l0,0l0,0l0,0l0,0l0,0l0,0l0,0l0,0l0,0l0,0c0.2-0.1,0.4-0.2,0.6-0.3c0.2-0.2,0.3-0.5,0.1-0.7l0,0c0.1,0,0.1-0.1,0.2-0.2
	c0.1-0.2,0.1-0.5-0.2-0.7c-0.4-0.3-0.8-0.5-1.1-0.9l0,0l0,0l0,0l0,0l0,0l0,0l0,0l0,0l0,0l0,0l0,0l0,0l0,0l0,0l0,0l0,0l0,0l0,0l0,0
	l0,0l0,0l0,0l0,0l0,0l0,0l0,0l0,0l0,0l0,0l0,0l0,0l0,0l0,0l0,0l0,0l0,0l0,0l0,0l0,0l0,0l0,0l0,0l0,0l0,0l0,0l0,0l0,0l0,0l0,0l0,0
	l0,0l0,0l0,0l0,0l0,0l0,0l0,0l0,0l0,0l0,0l0,0l0,0l0,0l0,0l0,0l0,0l0,0l0,0l0,0l0,0l0,0l0,0l0,0l0,0l0,0l0,0l0,0l0,0l0,0
	c-0.1-0.1-0.1-0.1-0.2-0.2C-173.2-484.2-173.3-484.2-173.5-484.2L-173.5-484.2z M-167.9-481.4L-167.9-481.4c-0.5,0.4-1,0.6-1.6,0.8
	l0,0l0,0l0,0l0,0l0,0l0,0l0,0l0,0l0,0l0,0l0,0l0,0l0,0l0,0l0,0l0,0l0,0l0,0l0,0l0,0l0,0l0,0l0,0l0,0l0,0l0,0l0,0l0,0l0,0l0,0h-0.1
	c-0.3,0.1-0.4,0.3-0.4,0.6c0,0.2,0.3,0.4,0.5,0.4h0.1c0.9-0.2,1.6-0.5,2.2-1c0.2-0.2,0.2-0.5,0.1-0.7
	C-167.5-481.4-167.7-481.4-167.9-481.4L-167.9-481.4z M-163.9-481.4L-163.9-481.4c-0.1,0-0.2,0-0.3,0l0,0l0,0l0,0l0,0l0,0l0,0l0,0
	l0,0l0,0l0,0l0,0l0,0l0,0l0,0l0,0l0,0l0,0l0,0l0,0l0,0l0,0l0,0l0,0l0,0l0,0l0,0c-0.1,0-0.2,0-0.3,0l0,0l0,0l0,0l0,0l0,0l0,0l0,0
	c-0.3,0-0.6,0-0.9,0l0,0l0,0l0,0l0,0l0,0l0,0l0,0l0,0l0,0l0,0l0,0l0,0l0,0l0,0l0,0l0,0l0,0l0,0l0,0l0,0l0,0l0,0l0,0l0,0l0,0l0,0l0,0
	l0,0l0,0l0,0l0,0l0,0l0,0l0,0l0,0l0,0l0,0l0,0l0,0l0,0l0,0l0,0l0,0l0,0l0,0l0,0l0,0l0,0l0,0l0,0l0,0l0,0l0,0l0,0l0,0l0,0l0,0l0,0
	l0,0l0,0c0,0,0,0-0.1,0l0,0c-0.3,0-0.5,0.2-0.5,0.5s0.2,0.5,0.5,0.5c0.2,0,0.3,0,0.5,0c0.3,0,0.7,0,1,0c0.2,0,0.5,0,0.8-0.1
	c0.3,0,0.5-0.3,0.4-0.6C-163.4-481.2-163.6-481.4-163.9-481.4L-163.9-481.4z M-160-483c-0.1,0-0.2,0-0.3,0.1s-0.2,0.2-0.3,0.3l0,0
	l0,0l0,0l0,0l0,0l0,0l0,0l0,0l0,0l0,0l0,0l0,0l0,0l0,0l0,0l0,0l0,0l0,0l0,0l0,0l0,0l0,0l0,0l0,0l0,0l0,0l0,0l0,0l0,0l0,0l0,0l0,0
	l0,0l0,0l0,0l0,0l0,0l0,0l0,0c-0.4,0.2-0.8,0.5-1.2,0.6c-0.3,0.1-0.4,0.4-0.3,0.6c0.1,0.2,0.3,0.3,0.5,0.3c0.1,0,0.1,0,0.2,0
	c0.7-0.3,1.4-0.7,2-1.1c0.2-0.2,0.3-0.5,0.1-0.7C-159.7-482.9-159.8-483-160-483L-160-483z M-157.7-486.6c-0.2,0-0.4,0.2-0.5,0.4
	l0,0l0,0l0,0l0,0l0,0l0,0l0,0l0,0l0,0l0,0l0,0l0,0l0,0l0,0l0,0l0,0l0,0l0,0l0,0l0,0l0,0l0,0l0,0l0,0l0,0l0,0l0,0l0,0l0,0l0,0l0,0
	l0,0l0,0l0,0l0,0l0,0l0,0l0,0l0,0l0,0l0,0l0,0l0,0l0,0l0,0l0,0l0,0l0,0l0,0l0,0l0,0l0,0l0,0l0,0l0,0l0,0l0,0l0,0l0,0l0,0l0,0l0,0
	l0,0l0,0l0,0l0,0l0,0l0,0l0,0l0,0l0,0l0,0l0,0l0,0l0,0l0,0l0,0l0,0l0,0l0,0l0,0l0,0l0,0l0,0l0,0l0,0l0,0l0,0l0,0l0,0l0,0l0,0l0,0
	l0,0l0,0l0,0l0,0l0,0l0,0l0,0l0,0l0,0l0,0l0,0l0,0l0,0l0,0l0,0l0,0l0,0l0,0l0,0l0,0l0,0l0,0l0,0l0,0l0,0l0,0l0,0l0,0l0,0l0,0l0,0
	l0,0l0,0l0,0l0,0l0,0l0,0l0,0l0,0l0,0l0,0l0,0l0,0l0,0l0,0l0,0l0,0l0,0l0,0l0,0l0,0l0,0l0,0l0,0l0,0l0,0l0,0l0,0l0,0l0,0l0,0l0,0
	l0,0l0,0l0,0l0,0l0,0l0,0l0,0l0,0l0,0l0,0l0,0l0,0l0,0l0,0l0,0l0,0l0,0l0,0l0,0l0,0l0,0l0,0l0,0l0,0l0,0l0,0l0,0l0,0l0,0l0,0l0,0
	l0,0l0,0l0,0l0,0l0,0l0,0l0,0l0,0l0,0l0,0l0,0l0,0l0,0l0,0c-0.1,0.3-0.3,0.6-0.4,0.8c-0.1,0.2-0.1,0.5,0.1,0.7
	c0.1,0.1,0.2,0.1,0.3,0.1c0.2,0,0.3-0.1,0.4-0.2c0.4-0.7,0.7-1.4,0.9-2.1c0.1-0.3-0.1-0.5-0.4-0.6
	C-157.6-486.6-157.7-486.6-157.7-486.6L-157.7-486.6z M-157.9-490.8c-0.1,0-0.1,0-0.2,0c-0.3,0.1-0.4,0.4-0.3,0.6l0,0l0,0l0,0l0,0
	l0,0l0,0l0,0l0,0l0,0l0,0l0,0l0,0l0,0l0,0l0,0l0,0l0,0l0,0l0,0l0,0l0,0l0,0c0.1,0.2,0.1,0.4,0.2,0.6l0,0l0,0l0,0l0,0l0,0l0,0l0,0
	l0,0l0,0l0,0l0,0l0,0l0,0l0,0l0,0l0,0l0,0l0,0l0,0c0,0.2,0.1,0.3,0.1,0.5l0,0l0,0l0,0l0,0l0,0l0,0l0,0l0,0l0,0l0,0l0,0l0,0l0,0l0,0
	l0,0l0,0l0,0l0,0l0,0l0,0l0,0l0,0l0,0l0,0l0,0l0,0l0,0l0,0l0,0l0,0l0,0l0,0l0,0l0,0l0,0l0,0l0,0l0,0l0,0l0,0l0,0
	c0,0.2,0,0.4,0.1,0.5c0,0.3,0.2,0.5,0.5,0.5l0,0c0.3,0,0.5-0.3,0.5-0.5c0-0.5-0.1-0.9-0.2-1.4c-0.1-0.3-0.1-0.6-0.2-0.8
	C-157.5-490.7-157.7-490.8-157.9-490.8L-157.9-490.8z M-160.6-494.1c-0.2,0-0.3,0.1-0.4,0.2c-0.1,0.2-0.1,0.5,0.2,0.7l0,0l0,0l0,0
	l0,0l0,0l0,0l0,0l0,0l0,0l0,0l0,0l0,0l0,0l0,0l0,0l0,0l0,0l0,0l0,0l0,0l0,0l0,0l0,0l0,0l0,0l0,0l0,0l0,0l0,0l0,0l0,0l0,0l0,0l0,0
	l0,0l0,0l0,0l0,0l0,0l0,0l0,0l0,0l0,0l0,0l0,0l0,0l0,0l0,0l0,0l0,0l0,0l0,0l0,0l0,0l0,0l0,0l0,0l0,0l0,0l0,0l0,0l0,0l0,0l0,0l0,0
	l0,0l0,0l0,0l0,0l0,0l0,0l0,0l0,0l0,0l0,0l0,0l0,0l0,0l0,0l0,0l0,0l0,0l0,0l0,0l0,0l0,0l0,0l0,0l0,0l0,0l0,0l0,0l0,0l0,0l0,0l0,0
	l0,0l0,0l0,0l0,0l0,0l0,0l0,0l0,0l0,0l0,0l0,0l0,0l0,0l0,0l0,0l0,0l0,0l0,0l0,0l0,0l0,0l0,0l0,0l0,0l0,0l0,0l0,0l0,0l0,0l0,0l0,0
	l0,0l0,0l0,0l0,0l0,0l0,0l0,0l0,0l0,0l0,0l0,0l0,0l0,0l0,0l0,0l0,0l0,0l0,0l0,0l0,0l0,0l0,0l0,0l0,0l0,0l0,0l0,0l0,0l0,0l0,0l0,0
	l0,0l0,0l0,0l0,0l0,0l0,0l0,0l0,0l0,0l0,0l0,0l0,0l0,0l0,0l0,0l0,0l0,0l0,0l0,0l0,0l0,0l0,0l0,0l0,0l0,0l0,0l0,0l0,0l0,0l0,0l0,0
	l0,0l0,0l0,0l0,0l0,0l0,0l0,0l0,0l0,0l0,0l0,0l0,0l0,0l0,0l0,0l0,0l0,0l0,0l0,0l0,0l0,0l0,0l0,0l0,0l0,0l0,0l0,0l0,0l0,0l0,0l0,0
	l0,0l0,0l0,0l0,0c0.2,0.2,0.4,0.4,0.6,0.7c0.1,0.1,0.2,0.2,0.4,0.2c0.1,0,0.2,0,0.3-0.1c0.2-0.2,0.3-0.5,0.1-0.7
	c-0.5-0.6-1.1-1.1-1.8-1.5C-160.4-494.1-160.5-494.1-160.6-494.1L-160.6-494.1z"/>
<path id="Rectangle-93" sketch:type="MSShapeGroup" class="st14" d="M-169-1517.2h8l-4,4L-169-1517.2z"/>
<g id="Imported-Layers_2_" transform="translate(3.000000, 1586.000000)" sketch:type="MSLayerGroup">
	<path id="Fill-1_3_" sketch:type="MSShapeGroup" class="st15" d="M-169-1518.2c4.4,0,8,3.6,8,8s-3.6,8-8,8s-8-3.6-8-8
		S-173.4-1518.2-169-1518.2 M-169-1520.2c-5.5,0-10,4.5-10,10s4.5,10,10,10s10-4.5,10-10S-163.5-1520.2-169-1520.2"/>
	<path id="Fill-2_2_" sketch:type="MSShapeGroup" class="st5" d="M-164.2-1508.2c-0.5,2.3-2.5,4-4.9,4s-4.4-1.7-4.9-4H-164.2
		 M-163-1509.2h-12.2l0.2,1.2c0.6,2.8,3,4.8,5.9,4.8c2.8,0,5.3-2,5.9-4.8L-163-1509.2"/>
	<path id="Fill-3_1_" sketch:type="MSShapeGroup" class="st15" d="M-164-1508.2c-0.5,2.3-2.5,4-5,4s-4.5-1.7-5-4H-164 M-175-1509.2
		v1.2c0.6,2.8,3.1,4.8,6,4.8s5.4-2,6-4.8v-1.2H-175"/>
	<path id="Fill-4_1_" sketch:type="MSShapeGroup" class="st15" d="M-163-1511.7c0,0.8-0.7,1.5-1.5,1.5s-1.5-0.7-1.5-1.5
		s0.7-1.5,1.5-1.5S-163-1512.5-163-1511.7"/>
	<path id="Fill-5_1_" sketch:type="MSShapeGroup" class="st15" d="M-172-1511.7c0,0.8-0.7,1.5-1.5,1.5s-1.5-0.7-1.5-1.5
		s0.7-1.5,1.5-1.5S-172-1512.5-172-1511.7"/>
	<path id="Fill-6_1_" sketch:type="MSShapeGroup" class="st15" d="M-165-1505.2h-8l-1-2h10L-165-1505.2"/>
</g>
<path id="Rectangle-53-Copy-3" sketch:type="MSShapeGroup" class="st11" d="M-175-852.2c0-1.1,0.9-2,2-2h14c1.1,0,2,0.9,2,2v10
	c0,1.1-0.9,2-2,2h-14c-1.1,0-2-0.9-2-2V-852.2z M-161.2-844.1c-0.3-0.3-2.5-1.3-3-1.5c0-0.1-0.1-0.4-0.2-0.5c-0.1,0-0.5-0.2-0.5-0.2
	s0-0.1-0.1-0.2c0-0.1,0.1-0.2,0.1-0.2c0.1-0.1,0.2-0.3,0.3-0.5s0.1-0.7,0.1-0.7c0-0.1,0.1-0.1,0.2-0.2c0.2-0.1,0.3-1.1,0.3-1.1
	c0-0.3-0.1-0.2-0.1-0.4v-0.9c0-1.1-0.9-1.8-1.9-1.8l0,0c-1.1,0-2,0.7-2,1.8v0.9c0,0.2-0.1,0.1-0.1,0.4c0,0,0.1,1,0.3,1.1
	c0.1,0,0.2,0.1,0.2,0.2c0,0,0.1,0.5,0.1,0.7c0.1,0.2,0.2,0.4,0.3,0.5c0,0,0,0.1,0,0.2c0,0.1,0,0.2,0,0.2s-0.4,0.2-0.5,0.2
	c-0.1,0.1-0.2,0.4-0.2,0.5c-0.4,0.1-2.7,1.2-3,1.5c-0.2,0.2-0.2,1.3-0.2,1.3v0.1c0,0.3,0.2,0.5,0.5,0.5h9c0.3,0,0.5-0.2,0.5-0.5
	v-0.1C-161-842.8-161-843.9-161.2-844.1z"/>
<path id="ic_cloud-copy-6" sketch:type="MSShapeGroup" class="st11" d="M-176-929.6c0,2.4,1.8,4.4,4.1,4.4h11.8c2.3,0,4.1-2,4.1-4.4
	s-1.7-4.3-3.9-4.4l0,0c0-2.8-2.1-5.2-4.8-5.2c-1.7,0-3.2,1-4.1,2.4c-0.3-0.1-0.6-0.2-0.9-0.2c-1.3,0-2.4,1.1-2.4,2.5
	c0,0.2,0,0.3,0,0.4C-174.2-933.9-176-932-176-929.6"/>
<path class="st11" d="M-166-899.2c-5,0-9,4-9,9s4,9,9,9s9-4,9-9S-161-899.2-166-899.2z M-162-889.2l-3-3v7h-2v-7l-3,3l-1-1l5-5l5,5
	L-162-889.2z"/>
<path id="Rectangle-53-Copy-4" sketch:type="MSShapeGroup" class="st0" d="M-175-362.2c0-1.1,0.9-2,2-2h14c1.1,0,2,0.9,2,2v10
	c0,1.1-0.9,2-2,2h-14c-1.1,0-2-0.9-2-2V-362.2z M-161.2-354.1c-0.3-0.3-2.5-1.3-3-1.5c0-0.1-0.1-0.4-0.2-0.5c-0.1,0-0.5-0.2-0.5-0.2
	s0-0.1-0.1-0.2c0-0.1,0.1-0.2,0.1-0.2c0.1-0.1,0.2-0.3,0.3-0.5s0.1-0.7,0.1-0.7c0-0.1,0.1-0.1,0.2-0.2c0.2-0.1,0.3-1.1,0.3-1.1
	c0-0.3-0.1-0.2-0.1-0.4v-0.9c0-1.1-0.9-1.8-1.9-1.8l0,0c-1.1,0-2,0.7-2,1.8v0.9c0,0.2-0.1,0.1-0.1,0.4c0,0,0.1,1,0.3,1.1
	c0.1,0.1,0.2,0.1,0.2,0.2c0,0,0.1,0.5,0.1,0.7c0.1,0.2,0.2,0.4,0.3,0.5c0,0,0,0.1,0,0.2s0,0.2,0,0.2s-0.4,0.2-0.5,0.2
	c-0.1,0.1-0.2,0.4-0.2,0.5c-0.4,0.1-2.7,1.2-3,1.5c-0.2,0.2-0.2,1.3-0.2,1.3v0.1c0,0.3,0.2,0.5,0.5,0.5h9c0.3,0,0.5-0.2,0.5-0.5
	v-0.1C-161-352.8-161-353.9-161.2-354.1z"/>
<path id="ic_cloud-copy-7" sketch:type="MSShapeGroup" class="st0" d="M-176-439.6c0,2.4,1.8,4.4,4.1,4.4h11.8c2.3,0,4.1-2,4.1-4.4
	s-1.7-4.3-3.9-4.4l0,0c0-2.8-2.1-5.2-4.8-5.2c-1.7,0-3.2,1-4.1,2.4c-0.3-0.1-0.6-0.2-0.9-0.2c-1.3,0-2.4,1.1-2.4,2.5
	c0,0.2,0,0.3,0,0.4C-174.2-443.9-176-442-176-439.6"/>
<path id="Imported-Layers_3_" sketch:type="MSShapeGroup" class="st11" d="M-172-799.2l12-8l-12-8V-799.2z"/>
<g id="Oval-55-_x2B_-Fill-5-_x2B_-Shape" transform="translate(8.000000, 737.000000)" sketch:type="MSLayerGroup">
	<g id="Oval-55-_x2B_-Fill-5" transform="translate(0.000000, 3.000000)" sketch:type="MSShapeGroup">
		<path id="Oval-55" class="st11" d="M-168.7-1516.5c0.5,1,0.8,2.1,0.8,3.3c0,3.9-3.1,7-7,7s-7-3.1-7-7s3.1-7,7-7
			c1.1,0,2.2,0.3,3.2,0.8l-1.5,1.5c-0.6-0.2-1.2-0.3-1.8-0.3c-2.8,0-5,2.2-5,5s2.2,5,5,5s5-2.2,5-5c0-0.6-0.1-1.1-0.3-1.6
			L-168.7-1516.5z"/>
	</g>
	<path id="Shape" sketch:type="MSShapeGroup" class="st11" d="M-167-1516.8l-7.3,7.3l-1.4-1.4l7.3-7.3h-4.6v-2h8v1v7h-2V-1516.8z"/>
</g>
<path id="Imported-Layers-Copy-4" sketch:type="MSShapeGroup" class="st0" d="M-172-309.2l12-8l-12-8V-309.2z"/>
<g id="Oval-55-_x2B_-Fill-5-_x2B_-Shape-Copy" transform="translate(8.000000, 1227.000000)" sketch:type="MSLayerGroup">
	<g id="Oval-55-_x2B_-Fill-5_1_" transform="translate(0.000000, 3.000000)" sketch:type="MSShapeGroup">
		<path id="Oval-55_1_" class="st0" d="M-168.7-1516.5c0.5,1,0.8,2.1,0.8,3.3c0,3.9-3.1,7-7,7s-7-3.1-7-7s3.1-7,7-7
			c1.1,0,2.2,0.3,3.2,0.8l-1.5,1.5c-0.6-0.2-1.2-0.3-1.8-0.3c-2.8,0-5,2.2-5,5s2.2,5,5,5s5-2.2,5-5c0-0.6-0.1-1.1-0.3-1.6
			L-168.7-1516.5z"/>
	</g>
	<path id="Shape_1_" sketch:type="MSShapeGroup" class="st0" d="M-167-1516.8l-7.3,7.3l-1.4-1.4l7.3-7.3h-4.6v-2h8v1v7h-2V-1516.8z"
		/>
</g>
<path id="Imported-Layers-Copy-4_1_" sketch:type="MSShapeGroup" class="st0" d="M-173.2,196.5c-0.3,0-0.6,0-1,0
	c-0.6,0-1-0.5-0.9-1.1c0-0.5,0.4-0.9,0.9-0.9c-0.1-0.3,0-0.7,0.2-0.9c0.1-0.1,0.1-0.2,0.2-0.4c-0.6-0.3-1.1-0.8-1.6-1.2
	c-0.4-0.4-0.4-1-0.1-1.4c0.4-0.4,1-0.4,1.4-0.1c0.4,0.4,0.9,0.7,1.5,1.1c0.5,0.4,0.8,0.8,0.8,1.4v0.1c0,0.5-0.1,1-0.4,1.4
	c0.7-0.1,1.2-0.2,1.8-0.3c0.5-0.2,1.1,0.1,1.2,0.7c0.2,0.5-0.1,1.1-0.7,1.2C-170.9,196.4-171.9,196.5-173.2,196.5L-173.2,196.5z
	 M-164.8,195.4c-0.9,0-1.8-0.1-2.8-0.2c-0.5-0.1-0.9-0.6-0.9-1.1c0.1-0.5,0.6-1,1.1-0.9c1.4,0.2,2.6,0.2,3.7,0.1l0.2,1l0.1,1
	C-163.9,195.4-164.4,195.4-164.8,195.4L-164.8,195.4z M-160.5,194.7c-0.4,0-0.8-0.3-1-0.7c-0.2-0.5,0.1-1.1,0.6-1.3
	c1.2-0.4,2.3-1,3.1-1.7c0.4-0.4,1.1-0.3,1.4,0.1c0.4,0.4,0.3,1.1-0.1,1.4c-1.1,0.9-2.4,1.6-3.8,2.1
	C-160.3,194.7-160.4,194.7-160.5,194.7L-160.5,194.7z M-155.1,190.5c-0.2,0-0.3,0-0.5-0.1c-0.5-0.3-0.6-0.9-0.4-1.4
	c0.6-1,0.9-2.1,1-3.4c0-0.6,0.5-0.9,1.1-0.9s1,0.5,0.9,1.1c-0.1,1.5-0.5,2.9-1.2,4.2C-154.5,190.3-154.8,190.5-155.1,190.5
	L-155.1,190.5z M-176.6,189.8c-0.4,0-0.8-0.2-0.9-0.6c-0.3-0.8-0.5-1.6-0.5-2.5v-0.2c0-0.6,0.1-1.2,0.2-1.8c0.1-0.5,0.6-0.9,1.2-0.8
	c0.5,0.1,0.9,0.6,0.8,1.2c-0.1,0.5-0.1,0.9-0.1,1.4v0.2c0,0.6,0.1,1.2,0.4,1.7c0.2,0.5,0,1.1-0.5,1.3
	C-176.3,189.8-176.4,189.8-176.6,189.8L-176.6,189.8z M-154.3,183.7c-0.5,0-0.8-0.3-0.9-0.7v-0.1c-0.3-1.2-0.7-2.2-1.4-3.1
	c-0.3-0.4-0.3-1.1,0.2-1.4c0.4-0.3,1.1-0.3,1.4,0.2c0.9,1.1,1.5,2.4,1.8,3.9c0.1,0.5-0.2,1.1-0.8,1.2
	C-154.1,183.7-154.2,183.7-154.3,183.7L-154.3,183.7z M-175.8,183.1c-0.2,0-0.3,0-0.5-0.1c-0.5-0.3-0.6-0.9-0.4-1.4
	c0.7-1.2,1.7-2.3,2.9-3.3c0.4-0.4,1.1-0.3,1.4,0.1c0.4,0.4,0.3,1.1-0.1,1.4c-1,0.8-1.8,1.7-2.4,2.7
	C-175.1,182.9-175.4,183.1-175.8,183.1L-175.8,183.1z M-170.6,178.5c-0.4,0-0.7-0.2-0.9-0.5c-0.3-0.5-0.1-1.1,0.4-1.3
	c1.3-0.7,2.6-1.1,4-1.5c0.7-0.2,1.4-0.3,2.2-0.3c0.6-0.1,1,0.4,1.1,0.9c0,0.6-0.4,1-0.9,1.1c-0.6,0.1-1.3,0.1-1.9,0.3
	c-1.2,0.3-2.4,0.7-3.5,1.3C-170.3,178.4-170.5,178.5-170.6,178.5L-170.6,178.5z M-158.1,178.2c-0.2,0-0.3,0-0.5-0.1
	c-1-0.6-2.1-1-3.4-1.1c-0.5-0.1-0.9-0.6-0.8-1.1c0.1-0.6,0.6-0.9,1.1-0.9c1.5,0.2,2.9,0.7,4.1,1.4c0.5,0.3,0.6,0.9,0.3,1.4
	C-157.4,178-157.8,178.2-158.1,178.2L-158.1,178.2z"/>
<path id="Fill-1_4_" sketch:type="MSShapeGroup" class="st0" d="M-168.9,282.7c-0.1-0.3-0.1-0.6-0.1-0.9c0-2.2,1.8-4,4-4
	c0.3,0,0.6,0,0.9,0.1l1.7-1.7c-0.8-0.3-1.7-0.4-2.6-0.4c-5,0-8.2,4.3-10,6c0.9,0.8,2,2.2,3.6,3.4L-168.9,282.7z M-158.6,278.4
	l-2.5,2.6c0.1,0.3,0.1,0.6,0.1,0.9c0,2.2-1.8,4-4,4c-0.3,0-0.6,0-0.9-0.1l-1.7,1.7c0.8,0.3,1.7,0.4,2.6,0.4c5,0,8.2-4.3,10-6
	C-155.9,281-157,279.6-158.6,278.4z M-158,273.8l-15,15l1,1l15-15L-158,273.8z"/>
<path id="Path-Copy-3" sketch:type="MSShapeGroup" class="st0" d="M-165-188.2v-2h2v-2h-2v-2l-4,3L-165-188.2z"/>
<path id="Imported-Layers-Copy-3_1_" sketch:type="MSShapeGroup" class="st11" d="M-173,635.8c-1.1,0-2,0.9-2,2v12c0,1.1,0.9,2,2,2
	h16c1.1,0,2-0.9,2-2v-12c0-1.1-0.9-2-2-2H-173z M-156.7,636.8l-7.9,8.9c-0.2,0.2-0.5,0.2-0.7,0l-7.9-8.9c0.1,0,0.2,0,0.3,0h16
	C-156.9,636.8-156.8,636.8-156.7,636.8z M-157,650.8h-16c-0.6,0-1-0.4-1-1v-12c0-0.1,0-0.2,0-0.3l7.9,8.9c0.3,0.3,0.7,0.4,1.1,0.4
	s0.8-0.1,1.1-0.4l7.9-8.9c0,0.1,0,0.2,0,0.3v12C-156,650.4-156.4,650.8-157,650.8z"/>
<path id="Fill-9-Copy-10" sketch:type="MSShapeGroup" class="st16" d="M-173,603.8c0,4.4,3.6,8,8,8s8-3.6,8-8s-3.6-8-8-8
	S-173,599.4-173,603.8L-173,603.8z M-170,602.8h10v2h-10V602.8z"/>
<path id="Imported-Layers-Copy-2_1_" sketch:type="MSShapeGroup" class="st11" d="M48.2,494L-56.7,321.7c-1.6-2.6-5.3-2.6-6.8,0
	L-168.4,494c-1.6,2.7,0.3,6.1,3.4,6.1H44.8C47.9,500.1,49.8,496.7,48.2,494L48.2,494z M-165,496.1l104.9-172.3L44.8,496.1H-165
	L-165,496.1z"/>
<g id="Fill-1-_x2B_-Fill-2-_x2B_-Fill-3-Copy" transform="translate(0.000000, 589.000000)" sketch:type="MSLayerGroup">
	<path id="Fill-1_6_" sketch:type="MSShapeGroup" class="st0" d="M-168.7,329.4v-0.2c0-0.8,0.6-1.2,1.2-1.2h0.2l3.1-3.2
		c-0.1,0-0.3,0-0.4,0c-2.4,0-4.6,0.6-6.9,1.3c-2.1,0.6-3,2.4-2.4,4.6c0.2,0.8,0.6,1.2,1.4,1.1l1.5-0.2L-168.7,329.4z"/>
	<path id="Fill-2_4_" sketch:type="MSShapeGroup" class="st0" d="M-158.9,325.7l-2.3,2.3c0.4,0.1,0.8,0.5,0.8,1.2
		c0,1.9,0.4,2.2,1.6,2.4c0.4,0.1,1.8,0.2,2.2,0.2c0.8,0.1,1.2-0.3,1.4-1.1c0.5-2.2-0.3-4-2.4-4.6
		C-158,325.9-158.4,325.8-158.9,325.7z"/>
	<path id="Fill-3_2_" sketch:type="MSShapeGroup" class="st0" d="M-156.3,320.1c-0.5-0.4-1.2-0.4-1.7,0l-14.7,14.7
		c-0.4,0.4-0.4,1.2,0,1.6c0.2,0.2,0.5,0.3,0.8,0.3s0.6-0.1,0.8-0.3l14.7-14.7C-155.9,321.3-155.9,320.6-156.3,320.1z"/>
</g>
<g id="Fill-1-_x2B_-Fill-2-Copy-2" transform="translate(1.000000, 530.000000)" sketch:type="MSLayerGroup">
	<path id="Fill-1_5_" sketch:type="MSShapeGroup" class="st0" d="M-169.3,331.1c-1.7-1.7-3-3.8-4.1-6c-1.1-2-0.5-3.9,1.5-5.1
		c0.7-0.4,1.3-0.4,1.8,0.2c0.2,0.3,1.2,1.4,1.4,1.8c0.8,1,0.8,1.6-0.6,2.9c-0.6,0.6-0.4,1.3,0,1.7l4.3,4.3c0.4,0.4,1.2,0.6,1.7,0
		c1.4-1.4,2-1.4,3-0.6c0.3,0.2,1.4,1.2,1.8,1.4c0.6,0.5,0.7,1.1,0.2,1.8c-1.2,2-3,2.6-5.1,1.5C-165.5,334.1-167.6,332.9-169.3,331.1
		"/>
	<path id="Fill-2_3_" sketch:type="MSShapeGroup" class="st0" d="M-160.8,325l-3.4,3.4l-2.5-2.5l3.4-3.4l-1.8-1.8h6v6L-160.8,325z"
		/>
</g>
<path id="Imported-Layers-5-Copy" sketch:type="MSShapeGroup" class="st0" d="M-164.5,805.8c2.4,0,4.6,0.6,6.9,1.3
	c2.1,0.6,3,2.4,2.4,4.6c-0.2,0.8-0.6,1.2-1.4,1.1c-0.4,0-1.8-0.2-2.2-0.2c-1.2-0.2-1.6-0.4-1.6-2.4c0-0.8-0.6-1.2-1.2-1.2h-5.9
	c-0.6,0-1.2,0.4-1.2,1.2c0,1.9-0.4,2.2-1.6,2.4c-0.4,0.1-1.8,0.2-2.2,0.2c-0.8,0.1-1.2-0.3-1.4-1.1c-0.5-2.2,0.3-4,2.4-4.6
	C-169.1,806.4-166.9,805.8-164.5,805.8"/>
<g id="reload-copy-7" transform="translate(1.000000, 235.000000)" sketch:type="MSLayerGroup">
	<path id="Fill-13" sketch:type="MSShapeGroup" class="st11" d="M-173.3,327.9c0.5,0.1,1-0.2,1.1-0.6c0.7-2.8,3.2-4.7,6-4.7
		c2.4,0,4.7,1.4,5.7,3.7l-1.7,0.9l3.8,1.4l1.4-3.8l-1.8,0.8c-1.3-2.9-4.2-4.7-7.3-4.7c-3.7,0-6.8,2.5-7.8,6
		C-174.1,327.3-173.8,327.7-173.3,327.9"/>
	<path id="Fill-14" sketch:type="MSShapeGroup" class="st11" d="M-159.9,330.4c-0.7,2.7-3.2,4.7-6,4.7c-2.4,0-4.7-1.4-5.7-3.7
		l1.7-0.9l-3.8-1.4l-1.4,3.8l1.8-0.8c1.3,2.9,4.2,4.7,7.3,4.7c3.7,0,6.8-2.5,7.7-6c0.1-0.5-0.2-1-0.6-1.1S-159.8,329.9-159.9,330.4z
		"/>
</g>
<path id="Imported-Layers-3-Copy" sketch:type="MSShapeGroup" class="st0" d="M-168.3,763.1c-1.7-1.7-3-3.8-4.1-6
	c-1.1-2-0.5-3.9,1.5-5.1c0.7-0.4,1.3-0.4,1.8,0.2c0.2,0.3,1.2,1.4,1.4,1.8c0.8,1,0.8,1.6-0.6,3c-0.6,0.6-0.4,1.3,0,1.7l4.3,4.3
	c0.4,0.4,1.2,0.6,1.7,0c1.4-1.4,2-1.4,2.9-0.6c0.3,0.2,1.4,1.2,1.8,1.4c0.6,0.5,0.7,1.1,0.2,1.8c-1.2,2-3,2.6-5.1,1.5
	C-164.5,766.1-166.6,764.9-168.3,763.1"/>
<path id="Fill-53-Copy-3" sketch:type="MSShapeGroup" class="st6" d="M-169.7,706.5c-0.9-0.9-1.5-1.9-2.1-3c-0.6-1-0.3-1.9,0.8-2.5
	c0.4-0.2,0.6-0.2,0.9,0.1c0.1,0.2,0.6,0.7,0.7,0.9c0.4,0.5,0.4,0.8-0.3,1.5c-0.3,0.3-0.2,0.6,0,0.9l2.2,2.2c0.2,0.2,0.6,0.3,0.9,0
	c0.7-0.7,1-0.7,1.5-0.3c0.2,0.1,0.7,0.6,0.9,0.7c0.3,0.3,0.3,0.6,0.1,0.9c-0.6,1-1.5,1.3-2.5,0.8
	C-167.8,707.9-168.8,707.3-169.7,706.5L-169.7,706.5z"/>
<path id="Fill-1_7_" sketch:type="MSShapeGroup" class="st11" d="M-173,984.8h14v9h-14V984.8z M-159,982.8h-14c-1.1,0-2,0.9-2,2v9
	c0,1.1,0.9,2,2,2h4v1l-4,1v1h14v-1l-4-1v-1h4c1.1,0,2-0.9,2-2v-9C-157,983.7-157.9,982.8-159,982.8L-159,982.8z M-158,993.8
	c0,0.6-0.4,1-1,1h-14c-0.6,0-1-0.4-1-1v-9c0-0.6,0.4-1,1-1h14c0.6,0,1,0.4,1,1V993.8L-158,993.8z"/>
<path class="st17" d="M-28.6,1124.2l-17.9-17.9c-0.3-0.3-0.4-0.9-0.1-1.3c2.9-4.1,4.6-9.2,4.5-14.6c-0.2-13.4-11-24.3-24.4-24.6
	c-14.2-0.3-25.7,11.3-25.4,25.4c0.3,13.4,11.2,24.3,24.6,24.4c5.4,0.1,10.5-1.6,14.6-4.5c0.4-0.3,0.9-0.2,1.3,0.1l17.9,17.9
	c0.8,0.8,2,0.8,2.8,0l2.2-2.2C-27.8,1126.3-27.8,1125-28.6,1124.2z M-67.1,1111.2c-11.3,0-20.4-9.2-20.4-20.4s9.2-20.4,20.4-20.4
	c11.3,0,20.4,9.2,20.4,20.4S-55.8,1111.2-67.1,1111.2z"/>
<path id="Fill-2-Copy-2" sketch:type="MSShapeGroup" class="st11" d="M-160.7,1173.9c-0.2-0.2-0.6-0.3-0.9-0.1l-0.9-0.9
	c0.8-1.1,1.3-2.5,1.3-4.1c0-3.8-3.1-6.9-6.9-6.9c-3.8,0-6.9,3.1-6.9,6.9s3.1,6.9,6.9,6.9c1.5,0,2.9-0.5,4.1-1.3l0.9,0.9
	c-0.1,0.3-0.1,0.6,0.1,0.9l3.5,3.5c0.3,0.3,0.8,0.3,1.1,0l1.2-1.2c0.3-0.3,0.3-0.8,0-1.1L-160.7,1173.9z M-173,1168.8
	c0-2.8,2.2-5,5-5s5,2.2,5,5s-2.2,5-5,5S-173,1171.6-173,1168.8L-173,1168.8z"/>
<path class="st11" d="M-166,1201.8c-5,0-9,4-9,9s4,9,9,9s9-4,9-9S-161,1201.8-166,1201.8z M-166,1215.8l-5-5l1-1l3,3v-7h2v7l3-3l1,1
	L-166,1215.8z"/>
<g id="Imported-Layers-5-Copy_1_" transform="translate(2.000000, 179.000000)" sketch:type="MSLayerGroup">
	<path id="Fill-1_9_" sketch:type="MSShapeGroup" class="st11" d="M-169.9,1073.7c1.4,1.4,4.4,1.5,5.9,0.1l2.9-2.9
		c1.6-1.6,1.5-4.2-0.1-5.9c-1.6-1.7-4.3-1.7-5.9-0.1l-2.3,2.3c0.8,0,1.7,0.1,2.5,0.5l1.2-1.2c0.8-0.8,2.1-0.8,2.9,0.1
		c0.8,0.8,0.8,2.1,0.1,2.9l-2.9,2.9c-0.8,0.8-2.4,0.5-3.4,0.5L-169.9,1073.7"/>
	<path id="Fill-2_6_" sketch:type="MSShapeGroup" class="st11" d="M-166.1,1069.9c-1.4-1.4-4.5-1.5-5.9-0.1l-2.9,2.9
		c-1.6,1.6-1.5,4.2,0.1,5.9c1.6,1.7,4.3,1.7,5.9,0.1l2.3-2.3c-0.8,0-1.7-0.1-2.5-0.5l-1.2,1.2c-0.8,0.8-2.1,0.8-2.9-0.1
		c-0.8-0.8-0.8-2.1-0.1-2.9l2.9-2.9c0.6-0.6,1.5-0.5,3.4-0.5l0,0L-166.1,1069.9"/>
</g>
<path id="Fill-2-Copy-3" sketch:type="MSShapeGroup" class="st0" d="M-160.7,1293.9c-0.2-0.2-0.6-0.3-0.9-0.1l-0.9-0.9
	c0.8-1.1,1.3-2.5,1.3-4.1c0-3.8-3.1-6.9-6.9-6.9c-3.8,0-6.9,3.1-6.9,6.9s3.1,6.9,6.9,6.9c1.5,0,2.9-0.5,4.1-1.3l0.9,0.9
	c-0.1,0.3-0.1,0.6,0.1,0.9l3.5,3.5c0.3,0.3,0.8,0.3,1.1,0l1.2-1.2c0.3-0.3,0.3-0.8,0-1.1L-160.7,1293.9z M-173,1288.8
	c0-2.8,2.2-5,5-5s5,2.2,5,5s-2.2,5-5,5S-173,1291.6-173,1288.8L-173,1288.8z"/>
<path class="st0" d="M-166,1321.8c-5,0-9,4-9,9s4,9,9,9s9-4,9-9S-161,1321.8-166,1321.8z M-166,1335.8l-5-5l1-1l3,3v-7h2v7l3-3l1,1
	L-166,1335.8z"/>
<g id="Imported-Layers-5-Copy-2" transform="translate(2.000000, 299.000000)" sketch:type="MSLayerGroup">
	<path id="Fill-1_8_" sketch:type="MSShapeGroup" class="st0" d="M-169.9,1073.7c1.4,1.4,4.4,1.5,5.9,0.1l2.9-2.9
		c1.6-1.6,1.5-4.2-0.1-5.9c-1.6-1.7-4.3-1.7-5.9-0.1l-2.3,2.3c0.8,0,1.7,0.1,2.5,0.5l1.2-1.2c0.8-0.8,2.1-0.8,2.9,0.1
		c0.8,0.8,0.8,2.1,0.1,2.9l-2.9,2.9c-0.8,0.8-2.4,0.5-3.4,0.5L-169.9,1073.7"/>
	<path id="Fill-2_5_" sketch:type="MSShapeGroup" class="st0" d="M-166.1,1069.9c-1.4-1.4-4.5-1.5-5.9-0.1l-2.9,2.9
		c-1.6,1.6-1.5,4.2,0.1,5.9c1.6,1.7,4.3,1.7,5.9,0.1l2.3-2.3c-0.8,0-1.7-0.1-2.5-0.5l-1.2,1.2c-0.8,0.8-2.1,0.8-2.9-0.1
		c-0.8-0.8-0.8-2.1-0.1-2.9l2.9-2.9c0.6-0.6,1.5-0.5,3.4-0.5l0,0L-166.1,1069.9"/>
</g>
<path class="st0" d="M-166-409.2c-5,0-9,4-9,9s4,9,9,9s9-4,9-9S-161-409.2-166-409.2z M-162-399.2l-3-3v7h-2v-7l-3,3l-1-1l5-5l5,5
	L-162-399.2z"/>
<path class="st4" d="M-166,1411.8c-5,0-9,4-9,9s4,9,9,9s9-4,9-9S-161,1411.8-166,1411.8z M-166,1425.8l-5-5l1-1l3,3v-7h2v7l3-3l1,1
	L-166,1425.8z"/>
<g id="Imported-Layers-5-Copy_2_" transform="translate(2.000000, 179.000000)" sketch:type="MSLayerGroup">
	<path id="Fill-1_10_" sketch:type="MSShapeGroup" class="st4" d="M-169.9,1283.7c1.4,1.4,4.4,1.5,5.9,0.1l2.9-2.9
		c1.6-1.6,1.5-4.2-0.1-5.9c-1.6-1.7-4.3-1.7-5.9-0.1l-2.3,2.3c0.8,0,1.7,0.1,2.5,0.5l1.2-1.2c0.8-0.8,2.1-0.8,2.9,0.1
		c0.8,0.8,0.8,2.1,0.1,2.9l-2.9,2.9c-0.8,0.8-2.4,0.5-3.4,0.5L-169.9,1283.7"/>
	<path id="Fill-2_7_" sketch:type="MSShapeGroup" class="st4" d="M-166.1,1279.9c-1.4-1.4-4.5-1.5-5.9-0.1l-2.9,2.9
		c-1.6,1.6-1.5,4.2,0.1,5.9c1.6,1.7,4.3,1.7,5.9,0.1l2.3-2.3c-0.8,0-1.7-0.1-2.5-0.5l-1.2,1.2c-0.8,0.8-2.1,0.8-2.9-0.1
		c-0.8-0.8-0.8-2.1-0.1-2.9l2.9-2.9c0.6-0.6,1.5-0.5,3.4-0.5l0,0L-166.1,1279.9"/>
</g>
<g id="ic_chat_1_" transform="translate(4.000000, 1744.000000)" sketch:type="MSLayerGroup">
	<path id="Fill-80_1_" sketch:type="MSShapeGroup" class="st17" d="M-161.1-156.4c-0.5-0.1-0.8-0.5-0.8-0.9c0-0.1,0.1-0.2,0.1-0.2
		c1-0.6,1.8-1.5,1.8-2.6c0.1-2.3-2.1-4.1-4.3-4.7c0.1,1.7-0.4,3.3-1.4,4.6c-0.9,1.1-2.2,1.9-3.7,2.4c0.8,0.7,1.9,1.2,3.1,1.2
		c0.7,0.1,1.5,0,2.2-0.1c0.8,0.6,2,0.7,2.9,0.6C-160.8-156.2-160.9-156.4-161.1-156.4"/>
	<path id="Fill-81_1_" sketch:type="MSShapeGroup" class="st0" d="M-165.9-166c-0.8-3.6-4.4-4.7-7.8-4c-3.2,0.7-6.4,3.1-6.3,6.4
		c0,1.5,1,2.7,2.4,3.5c0.1,0.1,0.2,0.2,0.2,0.3c0,0.6-0.5,1.1-1.1,1.2c-0.3,0.1-0.4,0.2,0,0.3c1.3,0.1,2.8,0,3.9-0.8
		c1,0.1,2,0.2,2.9,0.1C-167.7-159.2-165-162.1-165.9-166"/>
</g>
<path id="Fill-57-Copy-2" sketch:type="MSShapeGroup" class="st11" d="M-175,1620.8c0,5,4,9,9,9s9-4,9-9s-4-9-9-9
	S-175,1615.8-175,1620.8L-175,1620.8z M-167,1615.8h2v4h4v2h-4v4h-2v-4h-4v-2h4V1615.8L-167,1615.8z"/>
<path id="Fill-57-Copy-2_1_" sketch:type="MSShapeGroup" class="st0" d="M-175,1660.8c0,5,4,9,9,9s9-4,9-9s-4-9-9-9
	S-175,1655.8-175,1660.8L-175,1660.8z M-167,1655.8h2v4h4v2h-4v4h-2v-4h-4v-2h4V1655.8L-167,1655.8z"/>
<g id="ic_chat_2_" transform="translate(4.000000, 1744.000000)" sketch:type="MSLayerGroup">
	<path id="Fill-80_2_" sketch:type="MSShapeGroup" class="st18" d="M-161.1-236.4c-0.5-0.1-0.8-0.5-0.8-0.9c0-0.1,0.1-0.2,0.1-0.2
		c1-0.6,1.8-1.5,1.8-2.6c0.1-2.3-2.1-4.1-4.3-4.7c0.1,1.7-0.4,3.3-1.4,4.6c-0.9,1.1-2.2,1.9-3.7,2.4c0.8,0.7,1.9,1.2,3.1,1.2
		c0.7,0.1,1.5,0,2.2-0.1c0.8,0.6,2,0.7,2.9,0.6C-160.8-236.2-160.9-236.4-161.1-236.4"/>
	<path id="Fill-81_2_" sketch:type="MSShapeGroup" class="st4" d="M-165.9-246c-0.8-3.6-4.4-4.7-7.8-4c-3.2,0.7-6.4,3.1-6.3,6.4
		c0,1.5,1,2.7,2.4,3.5c0.1,0.1,0.2,0.2,0.2,0.3c0,0.6-0.5,1.1-1.1,1.2c-0.3,0.1-0.4,0.2,0,0.3c1.3,0.1,2.8,0,3.9-0.8
		c1,0.1,2,0.2,2.9,0.1C-167.7-239.2-165-242.1-165.9-246"/>
</g>
<g transform="translate(9.000000, 307.000000)" sketch:type="MSLayerGroup">
	<path id="Fill-1_25_" sketch:type="MSShapeGroup" class="st0" d="M-152,1722.8l-0.9,6.6l-7.6-6.6l-0.5,0.5l6.6,7.6l-6.6,0.9v1h10
		v-10H-152z"/>
	<path id="Fill-2_10_" sketch:type="MSShapeGroup" class="st0" d="M-149,1734.8v10h1l0.9-6.6l7.6,6.6l0.5-0.5l-6.6-7.6l6.6-0.9v-1
		H-149z"/>
</g>
<path id="Fill-1_24_" sketch:type="MSShapeGroup" class="st0" d="M-130,1943.8c0,2.2-1.8,4-4,4h-16c-2.2,0-4-1.8-4-4v-12
	c0-2.2,1.8-4,4-4h16c2.2,0,4,1.8,4,4V1943.8z M-134,1925.8h-16c-3.3,0-6,2.7-6,6v12c0,3.3,2.7,6,6,6h16c3.3,0,6-2.7,6-6v-12
	C-128,1928.5-130.7,1925.8-134,1925.8z M-118,1945.1l-6-6.1v-2.3c1.2-1.2,3.8-3.8,6-6.1V1945.1z M-118.6,1928.3
	c-2.3,2.4-5.5,5.6-6.8,6.9c-0.4,0.4-0.6,0.9-0.6,1.5v2.3c0,0.5,0.2,1.1,0.6,1.4l6.9,6.9c0.9,1,2.6,0.3,2.6-1.1v-17
	C-116,1928-117.6,1927.3-118.6,1928.3L-118.6,1928.3z"/>
<path id="Fill-1_23_" sketch:type="MSShapeGroup" class="st0" d="M-133,1806.8c0,2.8-2.2,5-5,5s-5-2.2-5-5v-8c0-2.8,2.2-5,5-5
	s5,2.2,5,5V1806.8z M-138,1791.8c-3.9,0-7,3.1-7,7v8c0,3.9,3.1,7,7,7s7-3.1,7-7v-8C-131,1794.9-134.1,1791.8-138,1791.8z
	 M-129,1803.8v3c0,5-4,9-9,9s-9-4-9-9v-3c-1.1,0-2,0.9-2,2v1c0,5.7,4.4,10.4,10,10.9v4.1h-4c-1.1,0-2,0.9-2,2h14c0-1.1-0.9-2-2-2h-4
	v-4.1c5.6-0.5,10-5.2,10-10.9v-1C-127,1804.7-127.9,1803.8-129,1803.8z"/>
<g transform="translate(104.000000, 211.000000)" sketch:type="MSLayerGroup">
	<g id="Clip-2">
	</g>
	<path id="Fill-1_22_" sketch:type="MSShapeGroup" class="st19" d="M-246.2,1774.9h12.5c1.7,0,3.5,1.2,3.5,3.4c0,3.7,0.7,3.8,2.5,4
		c0.5,0.1,2.1,0.2,3.2,0.3l1.3,0.1c1.1,0.1,1.6-0.3,1.9-1.5c1-4-0.5-6.9-4.4-8c-4.5-1.3-9.3-2.5-14.3-2.5c-4.9,0-9.8,1.2-14.3,2.5
		c-3.9,1.1-5.5,3.9-4.4,8c0.3,1.2,0.8,1.6,1.9,1.5c0.3,0,0.7-0.1,1.3-0.1c1.2-0.1,2.7-0.2,3.2-0.3c1.7-0.2,2.5-0.3,2.5-4
		C-249.8,1776.1-247.9,1774.9-246.2,1774.9 M-222.9,1784.8c-0.2,0-0.3,0-0.5,0l-1.3-0.1c-1.2-0.1-2.8-0.3-3.3-0.3
		c-3.2-0.4-4.3-1.9-4.2-6c0-1.1-1-1.4-1.5-1.4h-12.5c-0.6,0-1.5,0.3-1.5,1.4c0,4.1-1,5.6-4.2,6c-0.6,0.1-2.1,0.2-3.3,0.3l-1.3,0.1
		c-1.5,0.1-3.4-0.3-4.1-3c-1.3-5.1,0.9-9,5.8-10.4c4.6-1.3,9.6-2.6,14.8-2.6s10.2,1.3,14.8,2.6c5,1.4,7.1,5.3,5.8,10.4
		C-220,1784.2-221.6,1784.8-222.9,1784.8"/>
</g>
<g id="Fill-1-_x2B_-Fill-3" transform="translate(10.000000, 146.000000)" sketch:type="MSLayerGroup">
	<path id="Fill-1_21_" sketch:type="MSShapeGroup" class="st17" d="M-141.8,1726.1l0.2,2c0.2,2.3-0.3,4.4-1.6,6.1s-3.3,2.9-5.7,3.4
		l-2.4,0.5l1.5,1.9c1.6,2,4.1,3.2,7,3.4c0.3,0,0.7,0,1.1,0c0.7,0,1.5,0,2.3-0.1c1.1,0.7,2.5,1,4.2,1c0.4,0,0.7,0,1.2,0
		c1.2-0.1,1.7-0.9,1.7-1.5c0.1-0.6-0.2-1.4-1.2-1.7c1.4-1.2,2.7-2.7,2.8-4.9c0.1-5-4.5-8.6-9.1-9.6h-0.2L-141.8,1726.1z
		 M-140.1,1727.9h0.2c4,0.9,8,3.9,7.9,8.1c-0.1,1.9-1.4,3.2-3,4.4c-0.1,0.1-0.2,0.2-0.3,0.4c0,0.8,0.6,1.3,1.3,1.5
		c0.4,0.1,0.5,0.3,0,0.4c-0.3,0-0.7,0-1.1,0c-1.4,0-2.8-0.2-3.8-1.1c-0.9,0.1-1.8,0.2-2.7,0.2c-0.3,0-0.7,0-1,0
		c-2.6-0.2-4.7-1.2-6-2.8c2.7-0.6,5-1.9,6.5-4C-140.5,1733.1-139.8,1730.6-140.1,1727.9L-140.1,1727.9z"/>
	<path id="Fill-3_7_" sketch:type="MSShapeGroup" class="st0" d="M-153.7,1721.1c-4.7,1.1-9.4,4.7-9.3,9.6c0.1,2.5,1.8,4,3.3,4.9
		c0.5,0.3,0.8,0.8,0.8,1.4s-0.1,1.1-0.4,1.5c1.2-0.1,2.4-0.4,3.3-1.1l0.3-0.3l0.4,0.1c1.8,0.2,3.2,0.3,4.5,0.2
		c3-0.2,5.6-1.5,7.1-3.5c1.4-1.9,1.9-4.3,1.3-6.9c-0.4-2.1-1.5-3.6-3.2-4.7C-147.5,1720.8-150.6,1720.4-153.7,1721.1 M-160.2,1740.5
		c-0.5,0-1,0-1.4-0.1c-1.2-0.1-1.4-0.9-1.4-1.1c0-0.5,0.2-1.1,1.2-1.3c0.2-0.1,0.9-0.3,1-0.8c-2.6-1.5-4.1-3.8-4.1-6.4
		c-0.1-6,5.4-10.4,10.9-11.6l0,0c3.6-0.8,7.2-0.3,9.8,1.3c2.1,1.3,3.5,3.4,4,6c0.7,3.2,0.1,6.2-1.6,8.6c-1.9,2.5-4.9,4.1-8.5,4.3
		c-1.3,0.1-2.8,0-4.5-0.2C-156.6,1740.3-158.5,1740.5-160.2,1740.5"/>
</g>
<g id="Fill-1-_x2B_-Fill-3_1_" transform="translate(90.000000, 146.000000)" sketch:type="MSLayerGroup">
	<path id="Fill-1_20_" sketch:type="MSShapeGroup" class="st20" d="M-151.8,1726.1l0.2,2c0.2,2.3-0.3,4.4-1.6,6.1s-3.3,2.9-5.7,3.4
		l-2.4,0.5l1.5,1.9c1.6,2,4.1,3.2,7,3.4c0.3,0,0.7,0,1.1,0c0.7,0,1.5,0,2.3-0.1c1.1,0.7,2.5,1,4.2,1c0.4,0,0.7,0,1.2,0
		c1.2-0.1,1.7-0.9,1.7-1.5c0.1-0.6-0.2-1.4-1.2-1.7c1.4-1.2,2.7-2.7,2.8-4.9c0.1-5-4.5-8.6-9.1-9.6h-0.2L-151.8,1726.1z
		 M-150.1,1727.9h0.2c4,0.9,8,3.9,7.9,8.1c-0.1,1.9-1.4,3.2-3,4.4c-0.1,0.1-0.2,0.2-0.3,0.4c0,0.8,0.6,1.3,1.3,1.5
		c0.4,0.1,0.5,0.3,0,0.4c-0.3,0-0.7,0-1.1,0c-1.4,0-2.8-0.2-3.8-1.1c-0.9,0.1-1.8,0.2-2.7,0.2c-0.3,0-0.7,0-1,0
		c-2.6-0.2-4.7-1.2-6-2.8c2.7-0.6,5-1.9,6.5-4C-150.5,1733.1-149.8,1730.6-150.1,1727.9L-150.1,1727.9z"/>
	<path id="Fill-3_6_" sketch:type="MSShapeGroup" class="st21" d="M-163.7,1721.1c-4.7,1.1-9.4,4.7-9.3,9.6c0.1,2.5,1.8,4,3.3,4.9
		c0.5,0.3,0.8,0.8,0.8,1.4s-0.1,1.1-0.4,1.5c1.2-0.1,2.4-0.4,3.3-1.1l0.3-0.3l0.4,0.1c1.8,0.2,3.2,0.3,4.5,0.2
		c3-0.2,5.6-1.5,7.1-3.5c1.4-1.9,1.9-4.3,1.3-6.9c-0.4-2.1-1.5-3.6-3.2-4.7C-157.5,1720.8-160.6,1720.4-163.7,1721.1 M-170.2,1740.5
		c-0.5,0-1,0-1.4-0.1c-1.2-0.1-1.4-0.9-1.4-1.1c0-0.5,0.2-1.1,1.2-1.3c0.2-0.1,0.9-0.3,1-0.8c-2.6-1.5-4.1-3.8-4.1-6.4
		c-0.1-6,5.4-10.4,10.9-11.6l0,0c3.6-0.8,7.2-0.3,9.8,1.3c2.1,1.3,3.5,3.4,4,6c0.7,3.2,0.1,6.2-1.6,8.6c-1.9,2.5-4.9,4.1-8.5,4.3
		c-1.3,0.1-2.8,0-4.5-0.2C-166.6,1740.3-168.5,1740.5-170.2,1740.5"/>
</g>
<path id="Fill-1_18_" sketch:type="MSShapeGroup" class="st0" d="M-48,1945.1l-6-6.1v-2.3c1.2-1.2,3.8-3.8,6-6.1V1945.1z
	 M-48.6,1928.3c-2.3,2.4-5.5,5.6-6.8,6.9c-0.4,0.4-0.6,0.9-0.6,1.5v2.3c0,0.5,0.2,1.1,0.6,1.4l6.9,6.9c0.9,1,2.6,0.3,2.6-1.1v-17
	C-46,1928-47.6,1927.3-48.6,1928.3z M-83.4,1945.9c-0.4-0.6-0.6-1.3-0.6-2.1v-12c0-2.2,1.8-4,4-4h14.8l2-2c-0.2,0-0.5,0-0.7,0h-16
	c-3.3,0-6,2.7-6,6v12c0,1.3,0.4,2.6,1.2,3.6L-83.4,1945.9z M-60.1,1931.1c0,0.2,0.1,0.5,0.1,0.7v12c0,2.2-1.8,4-4,4h-12.8l-2,2H-64
	c3.3,0,6-2.7,6-6v-12c0-0.8-0.2-1.6-0.5-2.3L-60.1,1931.1z"/>
<path id="Fill-7" sketch:type="MSShapeGroup" class="st19" d="M-84,1951.8c-0.3,0-0.5-0.1-0.7-0.3c-0.4-0.4-0.4-1,0-1.4l26-26
	c0.4-0.4,1-0.4,1.4,0s0.4,1,0,1.4l-26,26C-83.5,1951.7-83.7,1951.8-84,1951.8"/>
<path id="Fill-2-Copy_1_" sketch:type="MSShapeGroup" class="st0" d="M-63,1757.8l5,4v-10l-5,4V1757.8z M-76,1752.8c0-1.1,0.9-2,2-2
	h8c1.1,0,2,0.9,2,2v8c0,1.1-0.9,2-2,2h-8c-1.1,0-2-0.9-2-2V1752.8z"/>
<g id="Group" transform="translate(60.000000, 1.000000)" sketch:type="MSLayerGroup">
	<path id="Fill-1_17_" sketch:type="MSShapeGroup" class="st0" d="M-197,1756.3v-1.4l-4.7,4.7c0.4,0.1,0.8,0.2,1.2,0.2
		C-198.6,1759.8-197,1758.2-197,1756.3"/>
	<path id="Fill-3_5_" sketch:type="MSShapeGroup" class="st0" d="M-197.3,1750.9c-0.5-1.3-1.8-2.2-3.2-2.2c-1.9,0-3.5,1.6-3.5,3.5v4
		c0,0.4,0.1,0.8,0.2,1.2L-197.3,1750.9z"/>
	<path id="Fill-6_4_" sketch:type="MSShapeGroup" class="st0" d="M-196,1756.3c0,2.5-2,4.5-4.5,4.5c-0.7,0-1.3-0.2-1.9-0.4l-0.6,0.6
		c0.7,0.4,1.4,0.7,2,0.8v2h-3v1h7v-1h-3v-2c3-0.3,5-2.6,5-5.5v-1.5h-1V1756.3z"/>
	<path id="Fill-8" sketch:type="MSShapeGroup" class="st0" d="M-204.5,1758.2c-0.3-0.6-0.4-1.2-0.4-1.9v-1.5h-1v1.5
		c0,0.9,0.3,1.8,0.8,2.6L-204.5,1758.2z"/>
	<path id="Fill-10_2_" sketch:type="MSShapeGroup" class="st0" d="M-207.5,1763.8c-0.1,0-0.3,0-0.4-0.1c-0.2-0.2-0.2-0.5,0-0.7
		l13-13c0.2-0.2,0.5-0.2,0.7,0s0.2,0.5,0,0.7l-13,13C-207.2,1763.8-207.4,1763.8-207.5,1763.8"/>
</g>
<path id="Fill-10_4_" sketch:type="MSShapeGroup" class="st19" d="M-81,1822.8c-0.3,0-0.5-0.1-0.7-0.3c-0.4-0.4-0.4-1,0-1.4l26-26
	c0.4-0.4,1-0.4,1.4,0s0.4,1,0,1.4l-26,26C-80.5,1822.7-80.7,1822.8-81,1822.8"/>
<path id="Fill-1_27_" sketch:type="MSShapeGroup" class="st0" d="M-61,1807.8v-1.8l-2,2c-0.1,2.5-2.2,4.6-4.7,4.7l-1.8,1.8
	c0.5,0.1,1,0.2,1.6,0.2C-64.1,1814.8-61,1811.7-61,1807.8z M-72.7,1809.3c-0.2-0.5-0.3-1-0.3-1.5v-8c0-2.8,2.2-5,5-5
	c2.7,0,4.9,2.1,5,4.8l1.7-1.7c-0.8-2.9-3.5-5-6.7-5c-3.9,0-7,3.1-7,7v8c0,1.1,0.3,2.1,0.7,3.1L-72.7,1809.3z M-59,1807.8
	c0,5-4,9-9,9c-1.1,0-2.2-0.2-3.2-0.6l-1.5,1.5c1.1,0.5,2.4,0.9,3.7,1v4.1h-4c-1.1,0-2,0.9-2,2h14c0-1.1-0.9-2-2-2h-4v-4.1
	c5.6-0.5,10-5.2,10-10.9v-3h-2V1807.8z M-75.8,1812.3c-0.8-1.3-1.2-2.9-1.2-4.5v-3h-2v3c0,2.2,0.7,4.3,1.8,6L-75.8,1812.3z"/>
<g>
	<path id="Fill-10_3_" class="st19" d="M29.7,1821c-0.2,0-0.3-0.1-0.5-0.2c-0.3-0.3-0.3-0.7,0-0.9l17.1-17.1c0.3-0.3,0.7-0.3,0.9,0
		s0.3,0.7,0,0.9l-17.1,17.1C30,1820.9,29.8,1821,29.7,1821"/>
	<path id="Fill-1_30_" class="st0" d="M42.8,1811.1v-1.2l-1.3,1.3c-0.1,1.7-1.4,3-3.1,3.1l-1.2,1.2c0.3,0.1,0.7,0.1,1,0.1
		C40.7,1815.7,42.8,1813.7,42.8,1811.1z M35.1,1812.1c-0.1-0.3-0.2-0.6-0.2-1v-5.2c0-1.8,1.5-3.3,3.3-3.3s3.2,1.4,3.3,3.1l1.1-1.1
		c-0.6-1.9-2.3-3.3-4.4-3.3c-2.5,0-4.6,2.1-4.6,4.6v5.2c0,0.7,0.2,1.4,0.5,2L35.1,1812.1z M44.1,1811.1c0,3.3-2.6,5.9-5.9,5.9
		c-0.7,0-1.4-0.1-2.1-0.4l-1,1c0.7,0.4,1.6,0.6,2.4,0.7v2.7h-2.6c-0.7,0-1.3,0.6-1.3,1.3h9.2c0-0.7-0.6-1.3-1.3-1.3h-2.6v-2.7
		c3.7-0.3,6.6-3.4,6.6-7.2v-2h-1.3v2H44.1z M33.1,1814.1c-0.5-0.9-0.8-1.9-0.8-3v-2H31v2c0,1.4,0.4,2.8,1.2,3.9L33.1,1814.1z"/>
</g>
<path id="Fill-22" sketch:type="MSShapeGroup" class="st22" d="M-1.7,1984.8c3.3,0,6.5,0.8,9.7,1.7c3,0.9,4.2,3.1,3.4,6.1
	c-0.3,1.1-0.9,1.6-2,1.5c-0.5-0.1-2.5-0.2-3-0.3c-1.7-0.2-2.3-0.8-2.2-3.3c0-1.1-0.8-1.6-1.7-1.6h-8.3c-0.8,0-1.7,0.6-1.7,1.6
	c0,2.6-0.6,3.1-2.2,3.3c-0.5,0.1-2.5,0.2-3,0.3c-1.1,0.1-1.7-0.4-2-1.5c-0.8-3,0.4-5.3,3.4-6.1C-8.2,1985.6-5,1984.8-1.7,1984.8"/>
<path id="Fill-1-Copy-2" sketch:type="MSShapeGroup" class="st0" d="M28,2034.8v7.9h1.1l0.7-4.9l4.9,4.9l1.1-1.1l-4.9-4.9l4.9-0.7
	v-1.1L28,2034.8L28,2034.8z M44.9,2044.9l-0.7,4.9l-4.9-4.9l-1.1,1.1l4.9,4.9l-4.9,0.7v1.1H46v-7.9L44.9,2044.9L44.9,2044.9z"/>
<g id="Page-1" transform="translate(300.311475, 0.906328)" sketch:type="MSShapeGroup">
	<path id="Fill-1_29_" class="st0" d="M-304.8,2034.8l-0.7,5.1l-6-5.1l-0.4,0.4l5.2,5.9l-5.2,0.7v0.8h8v-7.8H-304.8L-304.8,2034.8z"
		/>
	<path id="Fill-2_12_" class="st0" d="M-302.5,2044.2v7.8h0.8l0.7-5.1l6,5.1l0.4-0.4l-5.2-5.9l5.2-0.7v-0.8L-302.5,2044.2
		L-302.5,2044.2z"/>
</g>
<g id="Fill-80-_x2B_-Fill-81_1_" transform="translate(61.000000, 2.000000)" sketch:type="MSLayerGroup">
	<path id="Fill-80_3_" sketch:type="MSShapeGroup" class="st23" d="M-12.2,1886.9c0-0.1,0.1-0.3,0.2-0.3c1.4-0.8,2.3-1.9,2.4-3.5
		c0.1-3.1-2.7-5.5-5.7-6.3c0.1,2.3-0.5,4.4-1.9,6.1c-1.2,1.5-2.9,2.6-4.9,3.2c1.1,0.9,2.5,1.5,4.2,1.7c1,0.1,1.9,0,2.9-0.1
		c1.1,0.9,2.6,0.9,3.9,0.8c0.4,0,0.3-0.2,0-0.3C-11.8,1888-12.3,1887.5-12.2,1886.9z"/>
	<path id="Fill-81_3_" sketch:type="MSShapeGroup" class="st24" d="M-17.5,1875.4c-1.1-4.7-5.8-6.3-10.5-5.3
		c-4.2,0.9-8.5,4.2-8.4,8.6c0.1,2,1.3,3.6,3.2,4.6c0.1,0.1,0.3,0.2,0.3,0.4c0,0.9-0.6,1.4-1.4,1.7c-0.4,0.1-0.5,0.3,0,0.4
		c1.7,0.1,3.8,0.1,5.2-1.1c1.3,0.2,2.6,0.3,3.9,0.2C-19.9,1884.5-16.3,1880.6-17.5,1875.4"/>
</g>
<g id="Fill-80-_x2B_-Fill-81_2_" transform="translate(1.000000, 2.000000)" sketch:type="MSLayerGroup">
	<path id="Fill-80_5_" sketch:type="MSShapeGroup" class="st25" d="M7.8,1886.9c0-0.1,0.1-0.3,0.2-0.3c1.4-0.8,2.3-1.9,2.4-3.5
		c0.1-3.1-2.7-5.5-5.7-6.3c0.1,2.3-0.5,4.4-1.9,6.1c-1.2,1.5-2.9,2.6-4.9,3.2c1.1,0.9,2.5,1.5,4.2,1.7c1,0.1,1.9,0,2.9-0.1
		c1.1,0.9,2.6,0.9,3.9,0.8c0.4,0,0.3-0.2,0-0.3C8.2,1888,7.7,1887.5,7.8,1886.9z"/>
	<path id="Fill-81_5_" sketch:type="MSShapeGroup" class="st26" d="M2.5,1875.4c-1.1-4.7-5.8-6.3-10.5-5.3c-4.2,0.9-8.5,4.2-8.4,8.6
		c0.1,2,1.3,3.6,3.2,4.6c0.1,0.1,0.3,0.2,0.3,0.4c0,0.9-0.6,1.4-1.4,1.7c-0.4,0.1-0.5,0.3,0,0.4c1.7,0.1,3.8,0.1,5.2-1.1
		c1.3,0.2,2.6,0.3,3.9,0.2C0.1,1884.5,3.7,1880.6,2.5,1875.4"/>
</g>
<path id="Fill-1_32_" class="st0" d="M1.5,1811.1c0,1.8-1.5,3.3-3.3,3.3s-3.3-1.5-3.3-3.3v-5.2c0-1.8,1.5-3.3,3.3-3.3
	s3.3,1.5,3.3,3.3V1811.1z M-1.8,1801.3c-2.5,0-4.6,2.1-4.6,4.6v5.2c0,2.5,2.1,4.6,4.6,4.6s4.6-2.1,4.6-4.6v-5.2
	C2.8,1803.4,0.7,1801.3-1.8,1801.3z M4.1,1809.2v2c0,3.3-2.6,5.9-5.9,5.9s-5.9-2.6-5.9-5.9v-2c-0.7,0-1.3,0.9-1.3,2
	c0,3.8,2.9,6.9,6.6,7.2v2.7H-5c-0.7,0-1.3,0.6-1.3,1.3h9.2c0-0.7-0.6-1.3-1.3-1.3H-1v-2.7c3.7-0.3,6.6-3.4,6.6-7.2
	C5.4,1810.1,4.5,1809.2,4.1,1809.2z"/>
<path id="Fill-1_33_" class="st0" d="M2.1,1945.7c0,1.4-1.2,2.6-2.6,2.6H-11c-1.5,0-2.6-1.2-2.6-2.6v-7.7c0-1.4,1.2-2.6,2.6-2.6
	h10.5c1.5,0,2.6,1.2,2.6,2.6V1945.7z M-0.5,1934.1H-11c-2.2,0-4,1.7-4,3.9v7.7c0,2.1,1.8,3.9,4,3.9h10.5c2.2,0,3.9-1.7,3.9-3.9v-7.7
	C3.4,1935.8,1.7,1934.1-0.5,1934.1z M10,1946.5l-3.9-3.9v-1.5c0.8-0.7,2.5-2.4,3.9-3.9V1946.5z M9.6,1935.7
	c-1.5,1.5-3.6,3.6-4.5,4.5c-0.3,0.2-0.4,0.6-0.4,0.9v1.5c0,0.3,0.1,0.7,0.4,0.9l4.5,4.5c0.6,0.6,1.7,0.2,1.7-0.7v-10.9
	C11.3,1935.5,10.3,1935.1,9.6,1935.7L9.6,1935.7z"/>
<g>
	<path id="Fill-1_34_" class="st0" d="M50.1,1946.5l-3.9-3.9v-1.5c0.8-0.7,2.5-2.4,4-3.9L50.1,1946.5L50.1,1946.5z M49.7,1935.7
		c-1.5,1.5-3.6,3.6-4.5,4.5c-0.3,0.2-0.4,0.6-0.4,0.9v1.5c0,0.3,0.1,0.7,0.4,0.9l4.5,4.5c0.6,0.6,1.7,0.2,1.7-0.7v-10.9
		C51.4,1935.5,50.3,1935.1,49.7,1935.7z M26.8,1947c-0.3-0.4-0.4-0.9-0.4-1.4v-7.7c0-1.4,1.2-2.6,2.6-2.6h9.7l1.3-1.3
		c-0.2,0-0.3,0-0.5,0H29c-2.2,0-4,1.7-4,3.9v7.7c0,0.9,0.3,1.7,0.8,2.3L26.8,1947z M42.1,1937.5c0,0.1,0,0.3,0,0.4v7.7
		c0,1.4-1.2,2.6-2.6,2.6h-8.4l-1.3,1.3h9.7c2.2,0,4-1.7,4-3.9v-7.7c0-0.5-0.1-1-0.3-1.5L42.1,1937.5z"/>
	<path id="Fill-7_2_" class="st19" d="M26.4,1950.8c-0.2,0-0.3-0.1-0.5-0.2c-0.3-0.3-0.3-0.7,0-0.9L43,1933c0.3-0.3,0.7-0.3,0.9,0
		c0.3,0.3,0.3,0.7,0,0.9l-17.1,16.7C26.7,1950.7,26.5,1950.8,26.4,1950.8"/>
</g>
<g id="Page-1_1_" sketch:type="MSPage">
	<rect id="Rectangle-49" x="-167" y="2095.8" sketch:type="MSShapeGroup" class="st8" width="10" height="2">
	</rect>
</g>
<g id="Page-1_2_" sketch:type="MSPage">
	<rect id="Rectangle-49_1_" x="-127" y="2095.8" sketch:type="MSShapeGroup" class="st8" width="10" height="2">
	</rect>
</g>
<g id="Page-1_3_" sketch:type="MSPage">
	<rect id="Rectangle-49_2_" x="-123" y="2091.8" sketch:type="MSShapeGroup" class="st8" width="2" height="10">
	</rect>
</g>
<path id="Fill-1_19_" sketch:type="MSShapeGroup" class="st0" d="M-82,2029.8v10h1l0.9-6.6l7.6,6.6l0.5-0.5l-6.6-7.6l6.6-0.9v-1H-82
	z"/>
<path id="Fill-2_13_" sketch:type="MSShapeGroup" class="st0" d="M-61,2041.8l-0.9,6.6l-7.6-6.6l-0.5,0.5l6.6,7.6l-6.6,0.9v1h10v-10
	L-61,2041.8L-61,2041.8z"/>
<path id="Fill-2-Copy_2_" sketch:type="MSShapeGroup" class="st6" d="M7,1757.8l5,4v-10l-5,4V1757.8z M-6,1752.8c0-1.1,0.9-2,2-2h8
	c1.1,0,2,0.9,2,2v8c0,1.1-0.9,2-2,2h-8c-1.1,0-2-0.9-2-2V1752.8z"/>
<path id="Fill-2-Copy_3_" sketch:type="MSShapeGroup" class="st11" d="M47,1757.8l5,4v-10l-5,4V1757.8z M34,1752.8c0-1.1,0.9-2,2-2
	h8c1.1,0,2,0.9,2,2v8c0,1.1-0.9,2-2,2h-8c-1.1,0-2-0.9-2-2V1752.8z"/>
<g id="Group_1_" transform="translate(60.000000, 1.000000)" sketch:type="MSLayerGroup">
	<path id="Fill-1_26_" sketch:type="MSShapeGroup" class="st11" d="M-160,1756.3v-1.4l-4.7,4.7c0.4,0.1,0.8,0.2,1.2,0.2
		C-161.6,1759.8-160,1758.2-160,1756.3"/>
	<path id="Fill-3_8_" sketch:type="MSShapeGroup" class="st11" d="M-160.3,1750.9c-0.5-1.3-1.8-2.2-3.2-2.2c-1.9,0-3.5,1.6-3.5,3.5
		v4c0,0.4,0.1,0.8,0.2,1.2L-160.3,1750.9z"/>
	<path id="Fill-6_5_" sketch:type="MSShapeGroup" class="st11" d="M-159,1756.3c0,2.5-2,4.5-4.5,4.5c-0.7,0-1.3-0.2-1.9-0.4
		l-0.6,0.6c0.7,0.4,1.4,0.7,2,0.8v2h-3v1h7v-1h-3v-2c3-0.3,5-2.6,5-5.5v-1.5h-1V1756.3z"/>
	<path id="Fill-8_1_" sketch:type="MSShapeGroup" class="st11" d="M-167.5,1758.2c-0.3-0.6-0.4-1.2-0.4-1.9v-1.5h-1v1.5
		c0,0.9,0.3,1.8,0.8,2.6L-167.5,1758.2z"/>
	<path id="Fill-10_5_" sketch:type="MSShapeGroup" class="st11" d="M-170.5,1763.8c-0.1,0-0.3,0-0.4-0.1c-0.2-0.2-0.2-0.5,0-0.7
		l13-13c0.2-0.2,0.5-0.2,0.7,0s0.2,0.5,0,0.7l-13,13C-170.2,1763.8-170.4,1763.8-170.5,1763.8"/>
</g>
<g id="Page-1_4_" sketch:type="MSPage">
	<g id="Group_2_" transform="translate(1.000000, 1.000000)" sketch:type="MSLayerGroup">
		<path id="Fill-1_28_" sketch:type="MSShapeGroup" class="st6" d="M6,2134.8v2l5,4v-10L6,2134.8z"/>
		<path id="Fill-2_11_" sketch:type="MSShapeGroup" class="st6" d="M-4.8,2141.7c0.2,0.1,0.5,0.1,0.8,0.1h6c1.7,0,3-1.3,3-3v-6
			c0-0.3,0-0.5-0.1-0.8L-4.8,2141.7z"/>
		<path id="Fill-4_4_" sketch:type="MSShapeGroup" class="st6" d="M2.8,2129.9c-0.2-0.1-0.5-0.1-0.8-0.1h-6c-1.7,0-3,1.3-3,3v6
			c0,0.3,0,0.5,0.1,0.8L2.8,2129.9z"/>
		<path id="Fill-6_6_" sketch:type="MSShapeGroup" class="st6" d="M-7.5,2142.8c-0.1,0-0.3,0-0.4-0.1c-0.2-0.2-0.2-0.5,0-0.7l13-13
			c0.2-0.2,0.5-0.2,0.7,0s0.2,0.5,0,0.7l-13,13C-7.2,2142.8-7.4,2142.8-7.5,2142.8"/>
	</g>
</g>
<g id="Page-1_5_" sketch:type="MSPage">
	<g id="Group_3_" transform="translate(1.000000, 1.000000)" sketch:type="MSLayerGroup">
		<path id="Fill-1_31_" sketch:type="MSShapeGroup" class="st0" d="M-64,2134.8v2l5,4v-10L-64,2134.8z"/>
		<path id="Fill-2_14_" sketch:type="MSShapeGroup" class="st0" d="M-74.8,2141.7c0.2,0.1,0.5,0.1,0.8,0.1h6c1.6,0,3-1.3,3-3v-6
			c0-0.3,0-0.5-0.1-0.8L-74.8,2141.7z"/>
		<path id="Fill-4_5_" sketch:type="MSShapeGroup" class="st0" d="M-67.2,2129.9c-0.2-0.1-0.5-0.1-0.8-0.1h-6c-1.6,0-3,1.3-3,3v6
			c0,0.3,0,0.5,0.1,0.8L-67.2,2129.9z"/>
		<path id="Fill-6_7_" sketch:type="MSShapeGroup" class="st0" d="M-77.5,2142.8c-0.1,0-0.3,0-0.4-0.1c-0.2-0.2-0.2-0.5,0-0.7l13-13
			c0.2-0.2,0.5-0.2,0.7,0s0.2,0.5,0,0.7l-13,13C-77.2,2142.8-77.4,2142.8-77.5,2142.8"/>
	</g>
</g>
<g id="Page-1_6_" sketch:type="MSPage">
	<g id="Group_4_" transform="translate(1.000000, 1.000000)" sketch:type="MSLayerGroup">
		<path id="Fill-1_35_" sketch:type="MSShapeGroup" class="st11" d="M46,2134.8v2l5,4v-10L46,2134.8z"/>
		<path id="Fill-2_15_" sketch:type="MSShapeGroup" class="st11" d="M35.2,2141.7c0.2,0.1,0.5,0.1,0.8,0.1h6c1.7,0,3-1.3,3-3v-6
			c0-0.3,0-0.5-0.1-0.8L35.2,2141.7z"/>
		<path id="Fill-4_6_" sketch:type="MSShapeGroup" class="st11" d="M42.8,2129.9c-0.2-0.1-0.5-0.1-0.8-0.1h-6c-1.6,0-3,1.3-3,3v6
			c0,0.3,0,0.5,0.1,0.8L42.8,2129.9z"/>
		<path id="Fill-6_8_" sketch:type="MSShapeGroup" class="st11" d="M32.5,2142.8c-0.1,0-0.3,0-0.4-0.1c-0.2-0.2-0.2-0.5,0-0.7l13-13
			c0.2-0.2,0.5-0.2,0.7,0s0.2,0.5,0,0.7l-13,13C32.8,2142.8,32.6,2142.8,32.5,2142.8"/>
	</g>
</g>
<g>
	<path class="st11" d="M-160.4-1170.6l-0.2-0.2c-0.7-0.8-2-0.8-2.8,0l-1.2,1.2h-0.1l-0.7,0.7h0.1l-6.3,6.3h-0.1l-0.7,0.7h0.1
		l-0.7,0.7l-1.5,3.7l0,0l-0.1,0.2l-0.4,1.1l0.4-0.1l0,0l0.9-0.4l0,0l3.7-1.5l0.7-0.7l0,0l0.7-0.7l0,0l6.3-6.3l0,0l0.7-0.7l0,0
		l1.2-1.2C-159.6-1168.5-159.6-1169.8-160.4-1170.6z M-170.6-1159l-2.6,1l1-2.6l0.5-0.5l1.6,1.6L-170.6-1159z M-169.3-1160.3
		l-1.6-1.6l6.3-6.3l1.6,1.6L-169.3-1160.3z M-161.1-1168.5l-1.2,1.2l-1.6-1.6l1.2-1.2c0.4-0.4,1-0.4,1.4,0l0.2,0.2
		C-160.7-1169.5-160.7-1168.9-161.1-1168.5z"/>
	<rect x="-166" y="-1157.2" class="st11" width="4" height="1"/>
	<rect x="-160" y="-1157.2" class="st11" width="2" height="1"/>
	<rect x="-170" y="-1157.2" class="st11" width="2" height="1"/>
</g>
<path sketch:type="MSShapeGroup" class="st11" d="M-146,2217.8c0,1.1-0.9,2-2,2h-24c-1.1,0-2-0.9-2-2v-12c0-1.1,0.9-2,2-2h24
	c1.1,0,2,0.9,2,2V2217.8z M-170,2201.8c0-5.5,4.5-10,10-10s10,4.5,10,10H-170z M-148,2201.8L-148,2201.8c0-6.6-5.4-12-12-12
	s-12,5.4-12,12c-2.2,0-4,1.8-4,4v12c0,2.2,1.8,4,4,4h24c2.2,0,4-1.8,4-4v-12C-144,2203.6-145.8,2201.8-148,2201.8L-148,2201.8z"/>
<g>
	<path class="st11" d="M-153.8,2260c-0.3-0.3-0.8-0.3-1.1,0l-7.7,7.8l-2.8-2.8c-0.1-0.1-0.5,0-0.8,0.3l-0.5,0.5
		c-0.3,0.3-0.4,0.6-0.3,0.8l4.4,4.3c0,0.1,9.4-9.3,9.4-9.3c0.3-0.3,0.3-0.8,0-1.1L-153.8,2260z"/>
	<path class="st11" d="M-160,2249.8c-8.8,0-16,7.2-16,16s7.2,16,16,16s16-7.2,16-16S-151.2,2249.8-160,2249.8z M-160,2279.8
		c-7.7,0-14-6.3-14-14s6.3-14,14-14s14,6.3,14,14S-152.3,2279.8-160,2279.8z"/>
</g>
<path id="Fill-22_1_" class="st9" d="M-115-1475.2c2.2,0,4.4,0.5,6.5,1.2c2,0.6,2.8,2.1,2.3,4.1c-0.2,0.7-0.6,1.1-1.3,1
	c-0.4,0-1.7-0.2-2.1-0.2c-1.1-0.1-1.5-0.5-1.5-2.3c0-0.7-0.6-1.1-1.1-1.1h-5.6c-0.6,0-1.1,0.4-1.1,1.1c0,1.7-0.4,2.1-1.5,2.3
	c-0.4,0-1.7,0.2-2.1,0.2c-0.8,0.1-1.2-0.3-1.3-1c-0.5-2,0.3-3.6,2.3-4.1C-119.4-1474.7-117.2-1475.2-115-1475.2"/>
<path id="Fill-1_36_" class="st15" d="M-121.3-1396.2h8.8l-4.3-7.1L-121.3-1396.2z M-110.7-1394.2h-12.4c-0.4,0-0.7-0.2-0.9-0.5
	s-0.2-0.7,0-1l6.2-10c0.4-0.6,1.5-0.6,1.8,0l6.2,10c0.2,0.3,0.2,0.7,0,1C-110-1394.4-110.3-1394.2-110.7-1394.2L-110.7-1394.2z"/>
<path id="Fill-1_37_" class="st5" d="M-121.3-1361.2h8.8l-4.3-7.1L-121.3-1361.2z M-110.7-1359.2h-12.4c-0.4,0-0.7-0.2-0.9-0.5
	s-0.2-0.7,0-1l6.2-10c0.4-0.6,1.5-0.6,1.8,0l6.2,10c0.2,0.3,0.2,0.7,0,1C-110-1359.4-110.3-1359.2-110.7-1359.2L-110.7-1359.2z"/>
<g id="ic_chat-copy" transform="translate(0.000000, 34.000000)" class="st7">
	<path id="Fill-80_4_" class="st8" d="M-105.1-1463.4c-0.5-0.1-0.8-0.5-0.8-0.9c0-0.1,0.1-0.2,0.2-0.2c1-0.6,1.8-1.5,1.8-2.6
		c0.1-2.3-2.1-4.1-4.3-4.7c0.1,1.7-0.4,3.3-1.4,4.5c-0.9,1.1-2.2,2-3.7,2.4c0.8,0.7,1.9,1.2,3.1,1.2c0.7,0.1,1.5,0,2.2-0.1
		c0.8,0.6,1.9,0.7,2.9,0.6C-104.8-1463.2-104.9-1463.4-105.1-1463.4"/>
	<path id="Fill-81_4_" d="M-109.9-1473c-0.8-3.6-4.4-4.7-7.8-4c-3.2,0.7-6.4,3.1-6.3,6.4c0,1.5,1,2.7,2.4,3.5
		c0.1,0.1,0.2,0.2,0.2,0.3c0,0.6-0.5,1.1-1.1,1.2c-0.3,0.1-0.4,0.2,0,0.3c1.3,0.1,2.8,0,3.9-0.8c1,0.1,2,0.2,2.9,0.1
		C-111.7-1466.2-109-1469.1-109.9-1473"/>
</g>
<polygon id="Rectangle-17-Copy-8" class="st8" points="-86,-847.2 -82,-851.2 -90,-851.2 "/>
<polygon id="Rectangle-17-Copy-8_1_" class="st8" points="-90,-807.2 -82,-807.2 -86,-811.2 "/>
<polygon id="check" class="st0" points="-89,-890.2 -86,-888.2 -80,-893.2 -79,-892.2 -86.1,-885.3 -90,-889.2 "/>
<polygon id="check_1_" class="st27" points="-129,-890.2 -126,-888.2 -120,-893.2 -119,-892.2 -126.1,-885.3 -130,-889.2 "/>
<g class="st7">
	<path d="M-125-935.4c-1.2,0-2.2,1-2.2,2.2s1,2.2,2.2,2.2s2.2-1,2.2-2.2S-123.8-935.4-125-935.4z M-125-932c-0.7,0-1.2-0.6-1.2-1.2
		s0.6-1.2,1.2-1.2s1.2,0.6,1.2,1.2S-124.3-932-125-932z"/>
	<path d="M-117-935h-1.6c-0.1-0.5-0.3-1-0.6-1.4l1.2-1.2c0.4-0.4,0.4-1,0-1.4l-1.1-1.1c-0.4-0.4-1-0.4-1.4,0l-1.2,1.2
		c-0.4-0.2-0.9-0.4-1.4-0.6v-1.6c0-0.6-0.4-1-1-1h-1.6c-0.6,0-1,0.4-1,1v1.6c-0.5,0.1-1,0.3-1.4,0.6l-1.2-1.2c-0.4-0.4-1-0.4-1.4,0
		l-1.1,1.1c-0.4,0.4-0.4,1,0,1.4l1.2,1.2c-0.2,0.4-0.4,0.9-0.6,1.4h-1.6c-0.6,0-1,0.4-1,1v1.6c0,0.6,0.4,1,1,1h1.6
		c0.1,0.5,0.3,1,0.6,1.4l-1.2,1.2c-0.4,0.4-0.4,1,0,1.4l1.1,1.1c0.4,0.4,1,0.4,1.4,0l1.2-1.2c0.4,0.2,0.9,0.4,1.4,0.6v1.6
		c0,0.6,0.4,1,1,1h1.6c0.6,0,1-0.4,1-1v-1.6c0.5-0.1,1-0.3,1.4-0.6l1.2,1.2c0.4,0.4,1,0.4,1.4,0l1.1-1.1c0.4-0.4,0.4-1,0-1.4
		l-1.2-1.2c0.2-0.4,0.4-0.9,0.6-1.4h1.6c0.6,0,1-0.4,1-1v-1.6C-116-934.6-116.4-935-117-935z M-117-932.4L-117-932.4h-1.7h-0.8
		l-0.2,0.7c-0.1,0.4-0.3,0.8-0.5,1.2l-0.4,0.7l0.5,0.5l1.2,1.2l0,0l-1.1,1.1l0,0l-1.2-1.2l-0.5-0.5l-0.7,0.4
		c-0.4,0.2-0.8,0.4-1.2,0.5l-0.7,0.2v0.8v1.6l0,0h-1.6l0,0v-1.6v-0.8l-0.7-0.2c-0.4-0.1-0.8-0.3-1.2-0.5l-0.7-0.4l-0.5,0.5l-1.2,1.2
		l0,0l-1.1-1.1l0,0l1.2-1.2l0.5-0.5l-0.4-0.7c-0.2-0.4-0.4-0.8-0.5-1.2l-0.2-0.7h-0.8h-1.6l0,0v-1.6l0,0h1.6h0.8l0.2-0.7
		c0.1-0.4,0.3-0.8,0.5-1.2l0.4-0.7l-0.5-0.5l-1.2-1.2l0,0l1.1-1.1l0,0l1.2,1.2l0.5,0.5l0.7-0.4c0.4-0.2,0.8-0.4,1.2-0.5l0.7-0.2
		v-0.8v-1.6l0,0h1.6l0,0v1.6v0.8l0.7,0.2c0.4,0.1,0.8,0.3,1.2,0.5l0.7,0.4l0.5-0.5l1.2-1.2l0,0l1.1,1.1l0,0l-1.2,1.2l-0.5,0.5
		l0.4,0.7c0.2,0.4,0.4,0.8,0.5,1.2l0.2,0.7h0.8h1.6l0,0v1.6H-117z"/>
</g>
<g class="st7">
	<path d="M-125-1015.2c-1.1,0-2,0.9-2,2s0.9,2,2,2s2-0.9,2-2S-123.9-1015.2-125-1015.2z"/>
	<path d="M-120-1013.2c0-2.8-2.2-5-5-5s-5,2.2-5,5s2.2,5,5,5S-120-1010.4-120-1013.2z M-125-1009.2c-2.2,0-4-1.8-4-4s1.8-4,4-4
		s4,1.8,4,4S-122.8-1009.2-125-1009.2z"/>
	<path d="M-116.1-1014.3c-1.9-2-4.8-4.9-8.9-4.9c-5,0-8.2,4.3-10,6c1.8,1.7,5,6,10,6c3.3,0,5.9-1.9,7.7-3.7c0.9-0.9,1.7-1.7,2.3-2.3
		C-115.3-1013.5-115.7-1013.9-116.1-1014.3z M-116.7-1012.9c-0.4,0.4-0.8,0.8-1.3,1.3c-1.7,1.6-3.9,3.4-7,3.4
		c-3.8,0-6.5-2.8-8.3-4.7c-0.1-0.1-0.2-0.2-0.3-0.3c0.1-0.1,0.2-0.2,0.3-0.3c1.8-1.9,4.5-4.7,8.3-4.7s6.4,2.8,8.2,4.6l0.1,0.1
		c0.1,0.1,0.2,0.2,0.3,0.3C-116.5-1013.1-116.6-1013-116.7-1012.9z"/>
</g>
<g class="st7">
	<path d="M-115.7-980L-115.7-980L-115.7-980z"/>
	<path d="M-115.7-980c-1-4.5-5.4-6.5-10.5-5.4c-4.7,1-8.4,4.5-8.3,8.6c0.1,2,1.3,3.7,3.2,4.8l0,0c0,0.5-0.3,0.9-1,1
		c-0.4,0.1-0.7,0.3-0.7,0.6c-0.1,0.5,0.3,0.7,0.8,0.7c2.2,0.1,3.8-0.1,5-1c1.4,0.2,2.5,0.2,3.7,0.1
		C-118-970.9-114.6-974.9-115.7-980z M-123.5-971.5c-1.1,0.1-2.2,0-3.6-0.2h-0.2c-1,0.8-2.1,1.1-3.5,1.1c0.4-0.4,0.6-0.9,0.6-1.5
		c0-0.3-0.2-0.6-0.5-0.8c-1.8-1-2.8-2.4-2.8-4c-0.1-3.6,3.2-6.7,7.5-7.6c4.5-1,8.4,0.8,9.3,4.6l0,0
		C-115.7-975.3-118.6-971.8-123.5-971.5z"/>
</g>
<g>
	<path class="st0" d="M-85-1015.2c-1.1,0-2,0.9-2,2s0.9,2,2,2s2-0.9,2-2S-83.9-1015.2-85-1015.2z"/>
	<path class="st0" d="M-80-1013.2c0-2.8-2.2-5-5-5s-5,2.2-5,5s2.2,5,5,5S-80-1010.4-80-1013.2z M-85-1009.2c-2.2,0-4-1.8-4-4
		s1.8-4,4-4s4,1.8,4,4S-82.8-1009.2-85-1009.2z"/>
	<path class="st0" d="M-76.1-1014.3c-1.9-2-4.8-4.9-8.9-4.9c-5,0-8.2,4.3-10,6c1.8,1.7,5,6,10,6c3.3,0,5.9-1.9,7.7-3.7
		c0.9-0.9,1.7-1.7,2.3-2.3C-75.3-1013.5-75.7-1013.9-76.1-1014.3z M-76.7-1012.9c-0.4,0.4-0.8,0.8-1.3,1.3c-1.7,1.6-3.9,3.4-7,3.4
		c-3.8,0-6.5-2.8-8.3-4.7c-0.1-0.1-0.2-0.2-0.3-0.3c0.1-0.1,0.2-0.2,0.3-0.3c1.8-1.9,4.5-4.7,8.3-4.7s6.4,2.8,8.2,4.6l0.1,0.1
		c0.1,0.1,0.2,0.2,0.3,0.3C-76.5-1013.1-76.6-1013-76.7-1012.9z"/>
</g>
<g>
	<path class="st0" d="M-75.7-980L-75.7-980L-75.7-980z"/>
	<path class="st0" d="M-75.7-980c-1-4.5-5.4-6.5-10.5-5.4c-4.7,1-8.4,4.5-8.3,8.6c0.1,2,1.3,3.7,3.2,4.8l0,0c0,0.5-0.3,0.9-1,1
		c-0.4,0.1-0.7,0.3-0.7,0.6c-0.1,0.5,0.3,0.7,0.8,0.7c2.2,0.1,3.8-0.1,5-1c1.4,0.2,2.5,0.2,3.7,0.1C-78-970.9-74.6-974.9-75.7-980z
		 M-83.5-971.5c-1.1,0.1-2.2,0-3.6-0.2h-0.2c-1,0.8-2.1,1.1-3.5,1.1c0.4-0.4,0.6-0.9,0.6-1.5c0-0.3-0.2-0.6-0.5-0.8
		c-1.8-1-2.8-2.4-2.8-4c-0.1-3.6,3.2-6.7,7.5-7.6c4.5-1,8.4,0.8,9.3,4.6l0,0C-75.7-975.3-78.6-971.8-83.5-971.5z"/>
</g>
<path class="st28" d="M-91.3-972C-91.3-972-91.2-972-91.3-972c0,0.5-0.3,0.9-1,1c-0.4,0.1-0.7,0.3-0.7,0.6c-0.1,0.5,0.3,0.7,0.8,0.7
	c2.2,0.1,3.8-0.1,5-1c1.4,0.2,2.5,0.2,3.7,0.1c5.4-0.4,8.8-4.4,7.7-9.5c-1-4.5-5.4-6.5-10.5-5.4c-4.7,1-8.4,4.5-8.3,8.6
	C-94.4-974.8-93.2-973.1-91.3-972"/>
<g>
	<path class="st0" d="M-85-935.4c-1.2,0-2.2,1-2.2,2.2s1,2.2,2.2,2.2s2.2-1,2.2-2.2S-83.8-935.4-85-935.4z M-85-932
		c-0.7,0-1.2-0.6-1.2-1.2s0.6-1.2,1.2-1.2s1.2,0.6,1.2,1.2S-84.3-932-85-932z"/>
	<path class="st0" d="M-77-935h-1.6c-0.1-0.5-0.3-1-0.6-1.4l1.2-1.2c0.4-0.4,0.4-1,0-1.4l-1.1-1.1c-0.4-0.4-1-0.4-1.4,0l-1.2,1.2
		c-0.4-0.2-0.9-0.4-1.4-0.6v-1.6c0-0.6-0.4-1-1-1h-1.6c-0.6,0-1,0.4-1,1v1.6c-0.5,0.1-1,0.3-1.4,0.6l-1.2-1.2c-0.4-0.4-1-0.4-1.4,0
		l-1.1,1.1c-0.4,0.4-0.4,1,0,1.4l1.2,1.2c-0.2,0.4-0.4,0.9-0.6,1.4h-1.6c-0.6,0-1,0.4-1,1v1.6c0,0.6,0.4,1,1,1h1.6
		c0.1,0.5,0.3,1,0.6,1.4l-1.2,1.2c-0.4,0.4-0.4,1,0,1.4l1.1,1.1c0.4,0.4,1,0.4,1.4,0l1.2-1.2c0.4,0.2,0.9,0.4,1.4,0.6v1.6
		c0,0.6,0.4,1,1,1h1.6c0.6,0,1-0.4,1-1v-1.6c0.5-0.1,1-0.3,1.4-0.6l1.2,1.2c0.4,0.4,1,0.4,1.4,0l1.1-1.1c0.4-0.4,0.4-1,0-1.4
		l-1.2-1.2c0.2-0.4,0.4-0.9,0.6-1.4h1.6c0.6,0,1-0.4,1-1v-1.6C-76-934.6-76.4-935-77-935z M-77-932.4L-77-932.4h-1.7h-0.8l-0.2,0.7
		c-0.1,0.4-0.3,0.8-0.5,1.2l-0.4,0.7l0.5,0.5l1.2,1.2l0,0L-80-927l0,0l-1.2-1.2l-0.5-0.5l-0.7,0.4c-0.4,0.2-0.8,0.4-1.2,0.5
		l-0.7,0.2v0.8v1.6l0,0h-1.6l0,0v-1.6v-0.8l-0.7-0.2c-0.4-0.1-0.8-0.3-1.2-0.5l-0.7-0.4l-0.5,0.5l-1.2,1.2l0,0l-1.1-1.1l0,0l1.2-1.2
		l0.5-0.5l-0.4-0.7c-0.2-0.4-0.4-0.8-0.5-1.2l-0.2-0.7h-0.8h-1.6l0,0v-1.6l0,0h1.6h0.8l0.2-0.7c0.1-0.4,0.3-0.8,0.5-1.2l0.4-0.7
		l-0.5-0.5l-1.2-1.2l0,0l1.1-1.1l0,0l1.2,1.2l0.5,0.5l0.7-0.4c0.4-0.2,0.8-0.4,1.2-0.5l0.7-0.2v-0.8v-1.6l0,0h1.6l0,0v1.6v0.8
		l0.7,0.2c0.4,0.1,0.8,0.3,1.2,0.5l0.7,0.4l0.5-0.5l1.2-1.2l0,0l1.1,1.1l0,0l-1.2,1.2l-0.5,0.5l0.4,0.7c0.2,0.4,0.4,0.8,0.5,1.2
		l0.2,0.7h0.8h1.6l0,0L-77-932.4L-77-932.4z"/>
</g>
<path class="st28" d="M-77-935h-1.6c-0.1-0.5-0.3-1-0.6-1.4l1.2-1.2c0.4-0.4,0.4-1,0-1.4l-1.1-1.1c-0.4-0.4-1-0.4-1.4,0l-1.2,1.2
	c-0.4-0.2-0.9-0.4-1.4-0.6v-1.6c0-0.6-0.4-1-1-1h-1.6c-0.6,0-1,0.4-1,1v1.6c-0.5,0.1-1,0.3-1.4,0.6l-1.2-1.2c-0.4-0.4-1-0.4-1.4,0
	l-1.1,1.1c-0.4,0.4-0.4,1,0,1.4l1.2,1.2c-0.2,0.4-0.4,0.9-0.6,1.4h-1.6c-0.6,0-1,0.4-1,1v1.6c0,0.6,0.4,1,1,1h1.6
	c0.1,0.5,0.3,1,0.6,1.4l-1.2,1.2c-0.4,0.4-0.4,1,0,1.4l1.1,1.1c0.4,0.4,1,0.4,1.4,0l1.2-1.2c0.4,0.2,0.9,0.4,1.4,0.6v1.6
	c0,0.6,0.4,1,1,1h1.6c0.6,0,1-0.4,1-1v-1.6c0.5-0.1,1-0.3,1.4-0.6l1.2,1.2c0.4,0.4,1,0.4,1.4,0l1.1-1.1c0.4-0.4,0.4-1,0-1.4
	l-1.2-1.2c0.2-0.4,0.4-0.9,0.6-1.4h1.6c0.6,0,1-0.4,1-1v-1.6C-76-934.6-76.4-935-77-935z"/>
<path class="st29" d="M-131.3-972C-131.3-972-131.2-972-131.3-972c0,0.5-0.3,0.9-1,1c-0.4,0.1-0.7,0.3-0.7,0.6
	c-0.1,0.5,0.3,0.7,0.8,0.7c2.2,0.1,3.8-0.1,5-1c1.4,0.2,2.5,0.2,3.7,0.1c5.4-0.4,8.8-4.4,7.7-9.5c-1-4.5-5.4-6.5-10.5-5.4
	c-4.7,1-8.4,4.5-8.3,8.6C-134.4-974.8-133.2-973.1-131.3-972"/>
<path class="st29" d="M-117-935h-1.6c-0.1-0.5-0.3-1-0.6-1.4l1.2-1.2c0.4-0.4,0.4-1,0-1.4l-1.1-1.1c-0.4-0.4-1-0.4-1.4,0l-1.2,1.2
	c-0.4-0.2-0.9-0.4-1.4-0.6v-1.6c0-0.6-0.4-1-1-1h-1.6c-0.6,0-1,0.4-1,1v1.6c-0.5,0.1-1,0.3-1.4,0.6l-1.2-1.2c-0.4-0.4-1-0.4-1.4,0
	l-1.1,1.1c-0.4,0.4-0.4,1,0,1.4l1.2,1.2c-0.2,0.4-0.4,0.9-0.6,1.4h-1.6c-0.6,0-1,0.4-1,1v1.6c0,0.6,0.4,1,1,1h1.6
	c0.1,0.5,0.3,1,0.6,1.4l-1.2,1.2c-0.4,0.4-0.4,1,0,1.4l1.1,1.1c0.4,0.4,1,0.4,1.4,0l1.2-1.2c0.4,0.2,0.9,0.4,1.4,0.6v1.6
	c0,0.6,0.4,1,1,1h1.6c0.6,0,1-0.4,1-1v-1.6c0.5-0.1,1-0.3,1.4-0.6l1.2,1.2c0.4,0.4,1,0.4,1.4,0l1.1-1.1c0.4-0.4,0.4-1,0-1.4
	l-1.2-1.2c0.2-0.4,0.4-0.9,0.6-1.4h1.6c0.6,0,1-0.4,1-1v-1.6C-116-934.6-116.4-935-117-935z M-125-932c-0.7,0-1.2-0.6-1.2-1.2
	s0.6-1.2,1.2-1.2s1.2,0.6,1.2,1.2S-124.3-932-125-932z"/>
<path id="Fill-53-Copy_1_" sketch:type="MSShapeGroup" class="st11" d="M-68.3-1468.9c-1.7-1.7-3-3.8-4.1-6c-1.1-2-0.5-3.9,1.5-5.1
	c0.7-0.4,1.3-0.4,1.8,0.2c0.2,0.3,1.2,1.4,1.4,1.8c0.8,1,0.8,1.6-0.6,2.9c-0.6,0.6-0.4,1.3,0,1.7l4.3,4.3c0.4,0.4,1.2,0.6,1.7,0
	c1.4-1.4,2-1.4,2.9-0.6c0.3,0.2,1.4,1.2,1.8,1.4c0.6,0.5,0.7,1.1,0.2,1.8c-1.2,2-3,2.6-5.1,1.5
	C-64.5-1465.9-66.6-1467.1-68.3-1468.9L-68.3-1468.9z"/>
<path id="Fill-2-Copy_4_" sketch:type="MSShapeGroup" class="st11" d="M-60-1435.2l5,4v-10l-5,4V-1435.2z M-73-1440.2
	c0-1.1,0.9-2,2-2h8c1.1,0,2,0.9,2,2v8c0,1.1-0.9,2-2,2h-8c-1.1,0-2-0.9-2-2V-1440.2z"/>
<path id="Fill-53-Copy_2_" sketch:type="MSShapeGroup" class="st0" d="M-18.3-1468.9c-1.7-1.7-3-3.8-4.1-6c-1.1-2-0.5-3.9,1.5-5.1
	c0.7-0.4,1.3-0.4,1.8,0.2c0.2,0.3,1.2,1.4,1.4,1.8c0.8,1,0.8,1.6-0.6,2.9c-0.6,0.6-0.4,1.3,0,1.7l4.3,4.3c0.4,0.4,1.2,0.6,1.7,0
	c1.4-1.4,2-1.4,2.9-0.6c0.3,0.2,1.4,1.2,1.8,1.4c0.6,0.5,0.7,1.1,0.2,1.8c-1.2,2-3,2.6-5.1,1.5
	C-14.5-1465.9-16.6-1467.1-18.3-1468.9L-18.3-1468.9z"/>
<path id="Fill-2-Copy_5_" sketch:type="MSShapeGroup" class="st0" d="M-10-1435.2l5,4v-10l-5,4V-1435.2z M-23-1440.2
	c0-1.1,0.9-2,2-2h8c1.1,0,2,0.9,2,2v8c0,1.1-0.9,2-2,2h-8c-1.1,0-2-0.9-2-2V-1440.2z"/>
<g>
	<path class="st4" d="M-110.4-1170.6l-0.2-0.2c-0.7-0.8-2-0.8-2.8,0l-1.2,1.2h-0.1l-0.7,0.7h0.1l-6.3,6.3h-0.1l-0.7,0.7h0.1
		l-0.7,0.7l-1.5,3.7l0,0l-0.1,0.2l-0.4,1.1l0.4-0.1l0,0l0.9-0.4l0,0l3.7-1.5l0.7-0.7l0,0l0.7-0.7l0,0l6.3-6.3l0,0l0.7-0.7l0,0
		l1.2-1.2C-109.6-1168.5-109.6-1169.8-110.4-1170.6z M-120.6-1159l-2.6,1l1-2.6l0.5-0.5l1.6,1.6L-120.6-1159z M-119.3-1160.3
		l-1.6-1.6l6.3-6.3l1.6,1.6L-119.3-1160.3z M-111.1-1168.5l-1.2,1.2l-1.6-1.6l1.2-1.2c0.4-0.4,1-0.4,1.4,0l0.2,0.2
		C-110.7-1169.5-110.7-1168.9-111.1-1168.5z"/>
	<rect x="-116" y="-1157.2" class="st4" width="4" height="1"/>
	<rect x="-110" y="-1157.2" class="st4" width="2" height="1"/>
	<rect x="-120" y="-1157.2" class="st4" width="2" height="1"/>
</g>
<path class="st4" d="M-118-111.5v-6.7l-2.4,2.4c-1.4-1.5-3.4-2.4-5.6-2.4c-4.4,0-8,3.6-8,8c0,4.4,3.6,8,8,8c4.4,0,8-3.6,8-8h-2.7
	c0,2.9-2.4,5.3-5.3,5.3c-2.9,0-5.3-2.4-5.3-5.3c0-2.9,2.4-5.3,5.3-5.3c1.5,0,2.8,0.6,3.8,1.6l-2.4,2.4H-118z"/>
<path class="st4" d="M-159.6-110.2L-159.6-110.2c0,1-0.3,2.2-0.9,3.2c-1.8,3.1-5.7,4.1-8.7,2.3c-3.1-1.8-4.1-5.7-2.3-8.7
	c1.8-3.1,5.7-4.1,8.7-2.3c0.5,0.3,1,0.7,1.4,1.1l-0.2,0.2l-1.8,1.8h4.8v-4.8l-1.7,1.7l0,0c-0.5-0.5-1.1-1-1.7-1.4
	c-3.8-2.2-8.7-0.9-10.9,2.9c-2.2,3.8-0.9,8.7,2.9,10.9c3.8,2.2,8.7,0.9,10.9-2.9c0.7-1.3,1.1-2.6,1.1-4L-159.6-110.2z"/>
<path class="st4" d="M-80-110.2c0,3.3-2.7,6-6,6s-6-2.7-6-6c0-3.3,2.7-6,6-6c1.7,0,3.2,0.7,4.2,1.8l-0.3,0.3l-2.2,2.2h6v-6l-2.1,2.1
	c-1.4-1.4-3.4-2.4-5.6-2.4c-4.4,0-8,3.6-8,8c0,4.4,3.6,8,8,8s8-3.6,8-8H-80z"/>
<path id="Combined-Shape" d="M-140,1691.8h12l0,1.2c-0.6,2.8-3.1,4.8-6,4.8s-5.4-2-6-4.8L-140,1691.8z M-137,1689.3
	c0,0.8-0.7,1.5-1.5,1.5s-1.5-0.7-1.5-1.5s0.7-1.5,1.5-1.5S-137,1688.5-137,1689.3z M-128,1689.3c0,0.8-0.7,1.5-1.5,1.5
	s-1.5-0.7-1.5-1.5s0.7-1.5,1.5-1.5S-128,1688.5-128,1689.3z M-134,1680.8c5.5,0,10,4.5,10,10s-4.5,10-10,10s-10-4.5-10-10
	S-139.5,1680.8-134,1680.8z M-134,1682.8c-4.4,0-8,3.6-8,8s3.6,8,8,8s8-3.6,8-8S-129.6,1682.8-134,1682.8z"/>
<path d="M-77.8,1711.8c-0.7,0-1.2,0.6-1.2,1.2v17.7c0,0.6,0.4,1,1,1h1c0.6,0,1-0.4,1-1v-7.6c0.4-0.1,0.9-0.1,1.3-0.1
	c1.9,0,4,0.4,5.7,1.1c1.6,0.6,3.2,1.3,5,1.3c1,0,2-0.2,2.9-0.6c0,0,0,0,0.1,0c0.2-0.1,0.3-0.1,0.4-0.2c0.4-0.3,0.7-0.8,0.6-1.3
	c-0.1-0.5-0.5-0.9-1-1c-0.9-0.2-2-1.3-3-2.5c1.4-0.7,3.2-2,4-4.4c0.1-0.1,0.1-0.3,0.1-0.4c0-0.7-0.7-1.2-1.4-1.2c0,0,0,0-0.1,0
	c-0.2,0-0.4,0.1-0.5,0.1c-0.7,0.3-1.4,0.5-2.1,0.5c-1.3,0-2.6-0.5-4.1-1.1c-1.8-0.7-3.8-1.5-6.1-1.5c-0.6,0-2.3,0-2.6,0H-77.8z
	 M-61.4,1714.9L-61.4,1714.9L-61.4,1714.9z M-74.9,1713c4.2,0,7.3,2.5,10.7,2.5c0.9,0,1.9-0.2,2.8-0.7c-1.2,3.7-5.1,4.3-5.1,4.3
	c1.8,1.9,3.4,3.9,5.2,4.3c-0.1,0.1-0.3,0.1-0.4,0.2c-0.9,0.4-1.7,0.5-2.5,0.5c-3.4,0-6.5-2.6-10.8-2.6c-0.7,0-1.3,0.1-2.1,0.2v-8.5
	C-76.3,1713.1-75.6,1713-74.9,1713L-74.9,1713z"/>
<path id="Fill-1_38_" d="M-165,1689.8v-3h-2v3c0,1.1,0.9,2,2,2h5v-2H-165 M-166,1680.8c-5.5,0-10,4.5-10,10c0,5.5,4.5,10,10,10
	s10-4.5,10-10C-156,1685.3-160.5,1680.8-166,1680.8L-166,1680.8z M-166,1698.8c-4.4,0-8-3.6-8-8s3.6-8,8-8s8,3.6,8,8
	S-161.6,1698.8-166,1698.8L-166,1698.8z"/>
<path id="leaf" d="M-92.8,1681.8c-6.2,0.4-17.4,2.1-17.4,12.2c0,0.5,0.2,1.2-0.3,2c-0.3,0.5-1,1.7-1.5,2.4c-0.2,0.4-0.1,0.9,0.3,1.1
	c0.4,0.2,0.8,0,1-0.4l0.9-1.7c0.3-0.5,0.8-0.8,1.4-0.6c1.3,0.4,3.8,0.8,6.2-0.1c3.4-1.4,5.9-3.8,6.9-8.2c0.6-2,2-4,3.2-5.2
	C-91.5,1682.7-92,1681.7-92.8,1681.8L-92.8,1681.8z M-98.3,1685.3c0.1,0.2,0,0.4-0.1,0.5c-1.2,0.7-5.8,3.6-9.7,9.3
	c-0.2,0.3-0.7,0.2-0.8-0.1c-0.1-0.4-0.1-0.8,0.2-1.1c0.9-1.3,3.8-5,10-8.7C-98.7,1685.1-98.4,1685.1-98.3,1685.3L-98.3,1685.3z"/>
<path id="knifefork" d="M-74,1679.2c0,4.2,0,19.2,0,19.9c0,2.1-3.3,2.1-3.3,0c0-0.5,0.3-3.7,0.5-5.5c0-0.5-0.1-1.1-0.3-1.6
	c-0.3-0.6-0.8-1.6-0.8-2.5c0-1.3-0.2-7.4,3.2-10.7C-74.5,1678.6-74,1678.8-74,1679.2z M-65.9,1679.3l-0.3,5.8c0,0.3-0.3,0.6-0.6,0.6
	s-0.6-0.3-0.6-0.6c0-2.1,0.1-3.8,0.2-5.7c0-0.3-0.2-0.5-0.5-0.5c-0.2,0-0.5,0.1-0.6,0.4c-0.2,1-0.7,3.8-0.7,6.8c0,1.3,0.8,2.5,2,3.1
	c0.3,0.1,0.5,0.4,0.4,0.8l-0.6,9.3c0,0.9,0.8,1.6,1.7,1.6s1.7-0.7,1.7-1.6l-0.5-9.4c0-0.3,0.1-0.6,0.4-0.8c1.2-0.6,2-1.8,2-3.1
	c0-3-0.5-5.8-0.7-6.8c0-0.2-0.4-0.4-0.6-0.4c-0.3,0-0.5,0.2-0.5,0.5c0.1,1.9,0.2,3.6,0.2,5.7c0,0.3-0.3,0.6-0.6,0.6
	s-0.6-0.3-0.6-0.6l-0.3-5.8c0-0.2-0.2-0.4-0.5-0.4C-65.7,1678.9-65.9,1679.1-65.9,1679.3z"/>
<path d="M-101.4,1727.4c5.9-5.4,7.4-7.1,7.4-9.6c0-2.2-1.7-3.9-4-3.9c-1.2,0-2.5,0.6-3.3,1.5l-0.8,0.9l-0.8-0.9
	c-0.8-0.9-2-1.5-3.3-1.5c-2.2,0-4,1.7-4,3.9c0,2.5,1.5,4.3,7.4,9.6l0.6,0.6L-101.4,1727.4z M-98,1711.8c3.3,0,6,2.6,6,5.9
	c0,3.3-1.6,5.3-8,11.1l-2,1.8l-0.7-0.6l-1.3-1.2c-6.4-5.8-8-7.8-8-11.1c0-3.3,2.6-5.9,6-5.9c1.5,0,2.9,0.5,4,1.5
	C-100.9,1712.3-99.4,1711.8-98,1711.8z"/>
<g>
	<path d="M-134,1709.8c-4.4,0-8,3.1-8,7.2c0,4.5,4,5,4,9.8h8c0-4.8,4-5.3,4-9.8C-126,1712.9-129.6,1709.8-134,1709.8z
		 M-129.5,1720.5c-0.8,1.1-1.8,2.4-2.3,4.3h-4.4c-0.4-1.9-1.4-3.2-2.3-4.3c-0.9-1.2-1.5-2-1.5-3.5c0-2.9,2.6-5.2,6-5.2s6,2.3,6,5.2
		C-128,1718.5-128.6,1719.3-129.5,1720.5z"/>
	<path d="M-134,1731.8c1.5,0,2.8-0.8,3.4-2h-6.9C-136.8,1731-135.5,1731.8-134,1731.8z"/>
	<rect x="-138" y="1727.8" width="8" height="1"/>
</g>
<path id="Fill-1-Copy_1_" d="M-31.3,1693L-31.3,1693l-2.8-1.1l-1.2-3.8l1.7-2.5l2.5,0.8l0.3,0.1l0.1,0.3l1,3.3l0.1,0.3l-0.2,0.2
	L-31.3,1693z M-31.5,1696.6l-0.3,0.2l-3,2l-0.3,0.2l-0.3-0.1l-2.4-0.8l0-3.3l3.3-2.3l2.9,1.1v2.7V1696.6z M-41.2,1698.9l-0.2-0.2
	l-2.9-2.4l-0.2-0.2v-0.3v-2.4c0,0,0.1,0,0.1,0l3-0.9l3.3,2.4l0,3.3l-2.7,0.7L-41.2,1698.9z M-46.2,1690.8l-0.2-0.3l0.1-0.3l1.3-3.7
	l0.1-0.3l0.3-0.1l2.3-0.7l1.9,2.7l-1.2,3.7l-3.1,0.9c0,0-0.1,0-0.1,0L-46.2,1690.8z M-40,1682.7h0.3h3.7h0.3l0.2,0.3l1.4,2.2
	l-1.8,2.6h-4.1l-1.9-2.7l1.7-2.1L-40,1682.7z M-38,1680.8c-5.5,0-10,4.5-10,10c0,5.5,4.5,10,10,10s10-4.5,10-10
	C-28,1685.3-32.5,1680.8-38,1680.8L-38,1680.8z"/>
<path id="Combined-Shape_2_" d="M-169.1,1710.8h6.2c4.4,0,5,2.5,5,5v3.1c1,0.7,1.9,2,1.9,4.4v2.5c0,0.5-0.4,1-1,1v2c0,1.1-0.9,2-2,2
	h-1c-1.1,0-2-0.9-2-2v-2h-8v2c0,1.1-0.9,2-2,2h-1c-1.1,0-2-0.9-2-2v-2h0c-0.5,0-1-0.4-1-1v-2.5c0-2.4,0.9-3.7,1.9-4.4v-3.1
	C-174.1,1713.3-173.5,1710.8-169.1,1710.8z M-163.1,1712.8h-5.7c-2.9,0-3.4,1.1-3.4,3.3v3.3c-1.1,0.5-1.7,1.6-1.7,3.3v2.2h16v-2.2
	c0-1.6-0.6-2.7-1.7-3.3v-3.3C-159.7,1713.9-160.3,1712.8-163.1,1712.8z M-160.5,1723.9c-0.8,0-1.5-0.7-1.5-1.6
	c0-0.9,0.7-1.6,1.5-1.6c0.8,0,1.5,0.7,1.5,1.6C-159,1723.2-159.7,1723.9-160.5,1723.9z M-171.5,1723.9c-0.8,0-1.5-0.7-1.5-1.6
	c0-0.9,0.7-1.6,1.5-1.6c0.8,0,1.5,0.7,1.5,1.6C-170,1723.2-170.7,1723.9-171.5,1723.9z M-171,1715.8c0-1.3,0.6-2,2.5-2h5
	c1.9,0,2.5,0.7,2.5,2v4h-10V1715.8z"/>
</svg>
