<?xml version="1.0" encoding="utf-8"?>
<!-- Generator: Adobe Illustrator 19.0.0, SVG Export Plug-In . SVG Version: 6.00 Build 0)  -->
<svg version="1.1" id="Layer_1" xmlns:sketch="http://www.bohemiancoding.com/sketch/ns"
	 xmlns="http://www.w3.org/2000/svg" xmlns:xlink="http://www.w3.org/1999/xlink" x="0px" y="0px" width="237px" height="3671px"
	 viewBox="-187 -1439 237 3671" style="enable-background:new -187 -1439 237 3671;" xml:space="preserve">
<style type="text/css">
	.st0{fill:#FFFFFF;}
	.st1{opacity:0.6;fill:#333333;enable-background:new    ;}
	.st2{opacity:0.6;fill:#31B500;enable-background:new    ;}
	.st3{opacity:0.6;}
	.st4{fill:#333333;}
	.st5{fill:#999999;}
	.st6{fill:#2BA6DE;}
	.st7{opacity:0.5;}
	.st8{opacity:0.7;enable-background:new    ;}
	.st9{opacity:0.7;fill:#D90007;enable-background:new    ;}
	.st10{fill:#111111;}
	.st11{fill:#777777;}
	.st12{fill:#E44C51;}
	.st13{fill:none;stroke:#777777;}
	.st14{fill:none;stroke:#FFFFFF;}
	.st15{opacity:0.3;enable-background:new    ;}
	.st16{fill:#FFA500;}
	.st17{opacity:0.7;fill:#FFFFFF;enable-background:new    ;}
	.st18{opacity:0.7;fill:#333333;enable-background:new    ;}
	.st19{fill:#858585;}
	.st20{fill:#FF333A;}
	.st21{opacity:0.7;fill:#61D2FF;enable-background:new    ;}
	.st22{fill:#61D2FF;}
	.st23{fill:none;stroke:#FF333A;stroke-width:1.5;}
	.st24{opacity:0.5;fill:none;stroke:#61D2FF;enable-background:new    ;}
	.st25{fill:none;stroke:#61D2FF;stroke-width:1.5;}
	.st26{opacity:0.5;fill:none;stroke:#FFFFFF;enable-background:new    ;}
	.st27{fill:none;stroke:#FFFFFF;stroke-width:1.5;}
</style>
<title>Untitled 2</title>
<desc>Created with Sketch.</desc>
<path id="Rectangle-144-Copy-3" sketch:type="MSShapeGroup" class="st0" d="M-174,17v-7h-2v7h-7v2h7v7h2v-7h7v-2H-174z"/>
<path id="Rectangle-144-Copy-2" sketch:type="MSShapeGroup" class="st1" d="M-174,44v-7h-2v7h-7v2h7v7h2v-7h7v-2H-174z"/>
<path id="Rectangle-144-Copy-4" sketch:type="MSShapeGroup" class="st2" d="M-174,74v-7h-2v7h-7v2h7v7h2v-7h7v-2H-174z"/>
<g id="Imported-Layers-Copy" transform="translate(3.000000, 1546.000000)" sketch:type="MSLayerGroup" class="st3">
	<g id="Imported-Layers" sketch:type="MSShapeGroup">
		<path id="Fill-1" class="st4" d="M-177-1437c4.4,0,8,3.6,8,8s-3.6,8-8,8s-8-3.6-8-8S-181.4-1437-177-1437 M-177-1439
			c-5.5,0-10,4.5-10,10s4.5,10,10,10s10-4.5,10-10S-171.5-1439-177-1439"/>
		<path id="Fill-2" class="st5" d="M-172.2-1427c-0.5,2.3-2.5,4-4.9,4s-4.4-1.7-4.9-4H-172.2 M-171-1428h-12.2l0.2,1.2
			c0.6,2.8,3,4.8,5.9,4.8c2.8,0,5.3-2,5.9-4.8L-171-1428"/>
		<path id="Fill-3" class="st4" d="M-172-1427c-0.5,2.3-2.5,4-5,4s-4.5-1.7-5-4H-172 M-183-1428v1.2c0.6,2.8,3.1,4.8,6,4.8
			s5.4-2,6-4.8v-1.2H-183"/>
		<path id="Fill-4" class="st4" d="M-171-1430.5c0,0.8-0.7,1.5-1.5,1.5s-1.5-0.7-1.5-1.5s0.7-1.5,1.5-1.5S-171-1431.3-171-1430.5"/>
		<path id="Fill-5" class="st4" d="M-180-1430.5c0,0.8-0.7,1.5-1.5,1.5s-1.5-0.7-1.5-1.5s0.7-1.5,1.5-1.5S-180-1431.3-180-1430.5"/>
		<path id="Fill-6" class="st4" d="M-173-1424h-8l-1-2h10L-173-1424"/>
	</g>
</g>
<path id="Imported-Layers_1_" sketch:type="MSShapeGroup" class="st6" d="M-181.2,227.7c-0.3,0-0.6,0-1,0c-0.6,0-1-0.5-0.9-1.1
	c0-0.5,0.4-0.9,0.9-0.9c-0.1-0.3,0-0.7,0.2-0.9c0.1-0.1,0.1-0.2,0.2-0.4c-0.6-0.3-1.1-0.8-1.6-1.2c-0.4-0.4-0.4-1-0.1-1.4
	c0.4-0.4,1-0.4,1.4-0.1c0.4,0.4,0.9,0.7,1.5,1.1c0.5,0.4,0.8,0.8,0.8,1.4v0.1c0,0.5-0.1,1-0.4,1.4c0.7-0.1,1.2-0.2,1.8-0.3
	c0.5-0.2,1.1,0.1,1.2,0.7c0.2,0.5-0.1,1.1-0.7,1.2C-178.9,227.6-179.9,227.7-181.2,227.7L-181.2,227.7z M-172.8,226.6
	c-0.9,0-1.8-0.1-2.8-0.2c-0.5-0.1-0.9-0.6-0.9-1.1c0.1-0.5,0.6-1,1.1-0.9c1.4,0.2,2.6,0.2,3.7,0.1l0.2,1l0.1,1
	C-171.9,226.6-172.4,226.6-172.8,226.6L-172.8,226.6z M-168.5,225.9c-0.4,0-0.8-0.3-1-0.7c-0.2-0.5,0.1-1.1,0.6-1.3
	c1.2-0.4,2.3-1,3.1-1.7c0.4-0.4,1.1-0.3,1.4,0.1c0.4,0.4,0.3,1.1-0.1,1.4c-1.1,0.9-2.4,1.6-3.8,2.1
	C-168.3,225.9-168.4,225.9-168.5,225.9L-168.5,225.9z M-163.1,221.7c-0.2,0-0.3,0-0.5-0.1c-0.5-0.3-0.6-0.9-0.4-1.4
	c0.6-1,0.9-2.1,1-3.4c0-0.6,0.5-0.9,1.1-0.9s1,0.5,0.9,1.1c-0.1,1.5-0.5,2.9-1.2,4.2C-162.5,221.5-162.8,221.7-163.1,221.7
	L-163.1,221.7z M-184.6,221c-0.4,0-0.8-0.2-0.9-0.6c-0.3-0.8-0.5-1.6-0.5-2.5v-0.2c0-0.6,0.1-1.2,0.2-1.8c0.1-0.5,0.6-0.9,1.2-0.8
	c0.5,0.1,0.9,0.6,0.8,1.2c-0.1,0.5-0.1,0.9-0.1,1.4v0.2c0,0.6,0.1,1.2,0.4,1.7c0.2,0.5,0,1.1-0.5,1.3
	C-184.3,221-184.4,221-184.6,221L-184.6,221z M-162.3,214.9c-0.5,0-0.8-0.3-0.9-0.7v-0.1c-0.3-1.2-0.7-2.2-1.4-3.1
	c-0.3-0.4-0.3-1.1,0.2-1.4c0.4-0.3,1.1-0.3,1.4,0.2c0.9,1.1,1.5,2.4,1.8,3.9c0.1,0.5-0.2,1.1-0.8,1.2
	C-162.1,214.9-162.2,214.9-162.3,214.9L-162.3,214.9z M-183.8,214.3c-0.2,0-0.3,0-0.5-0.1c-0.5-0.3-0.6-0.9-0.4-1.4
	c0.7-1.2,1.7-2.3,2.9-3.3c0.4-0.4,1.1-0.3,1.4,0.1c0.4,0.4,0.3,1.1-0.1,1.4c-1,0.8-1.8,1.7-2.4,2.7
	C-183.1,214.1-183.4,214.3-183.8,214.3L-183.8,214.3z M-178.6,209.7c-0.4,0-0.7-0.2-0.9-0.5c-0.3-0.5-0.1-1.1,0.4-1.3
	c1.3-0.7,2.6-1.1,4-1.5c0.7-0.2,1.4-0.3,2.2-0.3c0.6-0.1,1,0.4,1.1,0.9c0,0.6-0.4,1-0.9,1.1c-0.6,0.1-1.3,0.1-1.9,0.3
	c-1.2,0.3-2.4,0.7-3.5,1.3C-178.3,209.6-178.5,209.7-178.6,209.7L-178.6,209.7z M-166.1,209.4c-0.2,0-0.3,0-0.5-0.1
	c-1-0.6-2.1-1-3.4-1.1c-0.5-0.1-0.9-0.6-0.8-1.1c0.1-0.6,0.6-0.9,1.1-0.9c1.5,0.2,2.9,0.7,4.1,1.4c0.5,0.3,0.6,0.9,0.3,1.4
	C-165.4,209.2-165.8,209.4-166.1,209.4L-166.1,209.4z"/>
<g id="ic_chat" transform="translate(4.000000, 1744.000000)" sketch:type="MSLayerGroup" class="st7">
	<path id="Fill-80" sketch:type="MSShapeGroup" class="st8" d="M-169.1-115.2c-0.5-0.1-0.8-0.5-0.8-0.9c0-0.1,0.1-0.2,0.1-0.2
		c1-0.6,1.8-1.5,1.8-2.6c0.1-2.3-2.1-4.1-4.3-4.7c0.1,1.7-0.4,3.3-1.4,4.6c-0.9,1.1-2.2,1.9-3.7,2.4c0.8,0.7,1.9,1.2,3.1,1.2
		c0.7,0.1,1.5,0,2.2-0.1c0.8,0.6,2,0.7,2.9,0.6C-168.8-115-168.9-115.2-169.1-115.2"/>
	<path id="Fill-81" sketch:type="MSShapeGroup" d="M-173.9-124.8c-0.8-3.6-4.4-4.7-7.8-4c-3.2,0.7-6.4,3.1-6.3,6.4
		c0,1.5,1,2.7,2.4,3.5c0.1,0.1,0.2,0.2,0.2,0.3c0,0.6-0.5,1.1-1.1,1.2c-0.3,0.1-0.4,0.2,0,0.3c1.3,0.1,2.8,0,3.9-0.8
		c1,0.1,2,0.2,2.9,0.1C-175.7-118-173-120.9-173.9-124.8"/>
</g>
<path id="Fill-57-Copy" sketch:type="MSShapeGroup" class="st4" d="M-181-1319c0,4.4,3.6,8,8,8s8-3.6,8-8s-3.6-8-8-8
	S-181-1323.4-181-1319L-181-1319z M-174-1324h2v4h4v2h-4v4h-2v-4h-4v-2h4V-1324L-174-1324z"/>
<path id="Fill-9-Copy-9" sketch:type="MSShapeGroup" class="st9" d="M-181-1211c0,4.4,3.6,8,8,8s8-3.6,8-8s-3.6-8-8-8
	S-181-1215.4-181-1211L-181-1211z M-178-1212h10v2h-10V-1212z"/>
<path id="ic_cloud-copy" sketch:type="MSShapeGroup" class="st4" d="M-183-1164.4c0,2.4,1.8,4.4,4.1,4.4h11.8c2.3,0,4.1-2,4.1-4.4
	s-1.7-4.3-3.9-4.4l0,0c0-2.8-2.1-5.2-4.8-5.2c-1.7,0-3.2,1-4.1,2.4c-0.3-0.1-0.6-0.2-0.9-0.2c-1.3,0-2.4,1.1-2.4,2.5
	c0,0.2,0,0.3,0,0.4C-181.2-1168.7-183-1166.8-183-1164.4"/>
<path id="Fill-1_1_" sketch:type="MSShapeGroup" class="st4" d="M-180-1130h14v9h-14V-1130z M-166-1132h-14c-1.1,0-2,0.9-2,2v9
	c0,1.1,0.9,2,2,2h4v1l-4,1v1h14v-1l-4-1v-1h4c1.1,0,2-0.9,2-2v-9C-164-1131.1-164.9-1132-166-1132L-166-1132z M-165-1121
	c0,0.5-0.4,1-1,1h-14c-0.6,0-1-0.5-1-1v-9c0-0.5,0.4-1,1-1h14c0.6,0,1,0.5,1,1V-1121L-165-1121z"/>
<g id="Fill-1-_x2B_-Fill-2" transform="translate(11.000000, 181.000000)" sketch:type="MSLayerGroup">
	<path id="Fill-1_2_" sketch:type="MSShapeGroup" class="st4" d="M-176.9-1421h-14.2c-0.5,0-0.9-0.4-0.9-0.9v-10.1h16v10.1
		C-176-1421.4-176.4-1421-176.9-1421z M-178.1-1424.9c-0.1-0.1-1.2-0.6-1.5-0.7c0,0,0-0.2-0.1-0.2s-0.2-0.1-0.2-0.1v-0.1v-0.1
		c0,0,0.1-0.2,0.1-0.3c0-0.1,0.1-0.3,0.1-0.3l0.1-0.1c0.1,0,0.2-0.5,0.2-0.5c0-0.2,0-0.1,0-0.2v-0.4c0-0.5-0.5-0.9-1.1-0.9l0,0
		c-0.5,0-1.1,0.3-1.1,0.9v0.4c0,0.1,0,0,0,0.2c0,0,0.1,0.5,0.2,0.5c0,0,0.1,0,0.1,0.1c0,0,0,0.2,0.1,0.3c0,0.1,0.1,0.2,0.1,0.3
		c0,0,0,0,0,0.1v0.1l-0.2,0.1c-0.1,0-0.1,0.2-0.1,0.2h-0.1c0.5,0.2,1.2,0.6,1.3,0.7c0,0,0.2,0.2,0.2,0.9h1.6c0.1,0,0.3-0.1,0.3-0.2
		v-0.1C-178-1424.3-178-1424.8-178.1-1424.9z M-186.6-1425.6c0,0,0-0.2-0.1-0.2s-0.2-0.1-0.2-0.1v-0.1v-0.1c0,0,0.1-0.2,0.1-0.3
		c0-0.1,0.1-0.3,0.1-0.3l0.1-0.1c0.1,0,0.2-0.5,0.2-0.5c0-0.2,0-0.1,0-0.2v-0.4c0-0.5-0.5-0.9-1.1-0.9l0,0c-0.5,0-1.1,0.3-1.1,0.9
		v0.4c0,0.1,0,0,0,0.2c0,0,0.1,0.5,0.2,0.5c0,0,0.1,0,0.1,0.1c0,0,0,0.2,0.1,0.3c0,0.1,0.1,0.2,0.1,0.3c0,0,0,0,0,0.1v0.1l-0.2,0.1
		c-0.1,0-0.1,0.2-0.1,0.2c-0.2,0.1-1.3,0.6-1.5,0.7c-0.1,0.1-0.1,0.6-0.1,0.6v0.1c0,0.1,0.2,0.2,0.3,0.2h1.6c0-0.7,0.1-0.8,0.2-0.9
		C-187.8-1425-187.1-1425.3-186.6-1425.6L-186.6-1425.6z M-182.8-1425.7c0-0.1,0-0.3-0.1-0.3s-0.3-0.1-0.3-0.1v-0.1
		c0-0.1,0-0.1,0-0.1c0-0.1,0.2-0.2,0.2-0.3c0-0.1,0.1-0.4,0.1-0.4c0-0.1,0.1-0.1,0.2-0.1c0.1-0.1,0.2-0.7,0.2-0.7
		c0-0.2-0.1-0.1-0.1-0.3v-0.6c0-0.7-0.6-1.1-1.3-1.1l0,0c-0.7,0-1.3,0.4-1.3,1.1v0.6c0,0.2-0.1,0.1-0.1,0.3c0,0,0.1,0.7,0.2,0.7
		c0.1,0,0.2,0.1,0.2,0.1s0,0.3,0.1,0.4c0,0.1,0.2,0.3,0.2,0.3v0.1c0,0.1,0,0.1,0,0.1s-0.2,0.1-0.3,0.1s-0.1,0.2-0.1,0.3
		c-0.3,0.1-1.8,0.8-1.9,0.9c-0.1,0.1-0.1,0.9-0.1,0.9v0.1c0,0.2,0.2,0.9,0.3,0.9h5.8c0.2,0,0.3-0.7,0.3-0.9v-0.1c0,0,0-0.7-0.1-0.9
		C-181-1425-182.5-1425.7-182.8-1425.7z"/>
	<path id="Fill-2_1_" sketch:type="MSShapeGroup" class="st10" d="M-185.9-1435c0.3,0,0.5,0.1,0.7,0.3l0.9,0.9
		c0.6,0.7,1,0.8,1.3,0.8h6c0.6,0,1,0.4,1,1h-16v-2c0-0.6,0.4-1,1-1L-185.9-1435z"/>
</g>
<path id="Fill-53-Copy" sketch:type="MSShapeGroup" class="st4" d="M-176.3-1387.7c-1.7-1.7-3-3.8-4.1-6c-1.1-2-0.5-3.9,1.5-5.1
	c0.7-0.4,1.3-0.4,1.8,0.2c0.2,0.3,1.2,1.4,1.4,1.8c0.8,1,0.8,1.6-0.6,2.9c-0.6,0.6-0.4,1.3,0,1.7l4.3,4.3c0.4,0.4,1.2,0.6,1.7,0
	c1.4-1.4,2-1.4,2.9-0.6c0.3,0.2,1.4,1.2,1.8,1.4c0.6,0.5,0.7,1.1,0.2,1.8c-1.2,2-3,2.6-5.1,1.5
	C-172.5-1384.7-174.6-1385.9-176.3-1387.7L-176.3-1387.7z"/>
<path class="st4" d="M-173-1291c-4.4,0-8,3.6-8,8s3.6,8,8,8s8-3.6,8-8S-168.6-1291-173-1291z M-169-1282l-3-3v7h-2v-7l-3,3l-1-1l5-5
	l5,5L-169-1282z"/>
<path id="Fill-2-Copy" sketch:type="MSShapeGroup" class="st4" d="M-168-1354l5,4v-10l-5,4V-1354z M-181-1359c0-1.1,0.9-2,2-2h8
	c1.1,0,2,0.9,2,2v8c0,1.1-0.9,2-2,2h-8c-1.1,0-2-0.9-2-2V-1359z"/>
<path id="Fill-37" sketch:type="MSShapeGroup" class="st0" d="M-178-80l1.4-1.3l1.7,1.7l3.5-3.3l1.4,1.3l-4.9,4.7L-178-80"/>
<path id="ic_search-copy" sketch:type="MSShapeGroup" class="st11" d="M-164.2-136.1l-3-3c-0.2-0.2-0.5-0.2-0.8-0.1l-1.2-1.2
	c0.7-1,1.2-2.2,1.2-3.5c0-3.3-2.7-6-6-6s-6,2.7-6,6s2.7,6,6,6c1.3,0,2.5-0.4,3.5-1.2l1.2,1.2c-0.1,0.3-0.1,0.5,0.1,0.7l3,3
	c0.3,0.2,0.7,0.2,0.9,0l1-1C-163.9-135.5-163.9-135.9-164.2-136.1L-164.2-136.1z M-178-144c0-2.2,1.8-4,4-4s4,1.8,4,4s-1.8,4-4,4
	S-178-141.8-178-144L-178-144z"/>
<path id="Rectangle-144-Copy-3_1_" sketch:type="MSShapeGroup" class="st12" d="M-172.6-967l4.9-4.9l-1.4-1.4l-4.9,5l-4.9-5
	l-1.4,1.4l5,4.9l-5,4.9l1.4,1.4l4.9-5l4.9,5l1.4-1.4L-172.6-967z"/>
<g id="Group-Copy-2" transform="translate(7.000000, 348.000000)" sketch:type="MSLayerGroup">
	<path id="Rectangle-67" sketch:type="MSShapeGroup" class="st13" d="M-188-1428l9.6-9.6c0.8-0.8,2.1-0.8,2.8,0l0.2,0.2
		c0.8,0.8,0.8,2.1,0,2.8l-9.6,9.6l-5,2L-188-1428z"/>
	<path id="Path-280" sketch:type="MSShapeGroup" class="st13" d="M-180-1436l3.1,3"/>
	<path id="Path-280-Copy" sketch:type="MSShapeGroup" class="st13" d="M-187-1429l3.1,3"/>
	<rect id="Rectangle-68-Copy" x="-181" y="-1424" sketch:type="MSShapeGroup" class="st11" width="4" height="1">
	</rect>
	<rect id="Rectangle-68-Copy-2" x="-175" y="-1424" sketch:type="MSShapeGroup" class="st11" width="2" height="1">
	</rect>
	<rect id="Rectangle-68-Copy-3" x="-185" y="-1424" sketch:type="MSShapeGroup" class="st11" width="2" height="1">
	</rect>
</g>
<path id="Rectangle-138-Copy-4" sketch:type="MSShapeGroup" class="st11" d="M-173-1041h2v-4h-4v3v3h2V-1041z M-179-1041h2v-4h-4v3
	v3h2V-1041L-179-1041z"/>
<path id="Rectangle-144-Copy-7" sketch:type="MSShapeGroup" class="st11" d="M-172.6-1001l4.9-4.9l-1.4-1.4l-4.9,4.9l-4.9-4.9
	l-1.4,1.4l5,4.9l-5,5l1.4,1.4l4.9-5l4.9,5l1.4-1.4L-172.6-1001z"/>
<path id="Fill-5-Copy" sketch:type="MSShapeGroup" class="st11" d="M-171.1-930.4c0-0.1-0.1-0.7-0.3-0.8s-0.8-0.4-0.8-0.4
	s-0.1-0.2-0.1-0.3s0.1-0.3,0.1-0.3c0.1-0.2,0.4-0.5,0.4-0.8c0.1-0.3,0.2-1,0.2-1c0-0.2,0.2-0.2,0.4-0.3c0.3-0.1,0.5-1.7,0.5-1.7
	c0-0.5-0.2-0.3-0.2-0.7v-1.4c0-1.7-1.4-2.8-3.1-2.8h-0.1c-1.7,0-3.1,1.1-3.1,2.8v1.4c0,0.4-0.2,0.1-0.2,0.7c0,0,0.2,1.6,0.5,1.7
	c0.1,0.1,0.4,0.1,0.4,0.3c0,0,0.1,0.8,0.2,1c0.1,0.3,0.4,0.7,0.4,0.8c0,0,0.1,0.1,0.1,0.3c0,0.1-0.1,0.3-0.1,0.3s-0.6,0.3-0.8,0.4
	c-0.2,0.1-0.3,0.6-0.3,0.8c-0.7,0.2-4.3,1.9-4.8,2.3c-0.3,0.3-0.3,2.1-0.3,2.1v0.2c0,0.4,0.3,0.8,0.8,0.8h14.5
	c0.4,0,0.8-0.3,0.8-0.8v-0.2c0,0,0-1.8-0.3-2.1C-166.7-928.5-170.4-930.2-171.1-930.4z"/>
<path id="Imported-Layers-Copy-2" sketch:type="MSShapeGroup" class="st11" d="M-172.7-904c-0.7,0-1.4,0.1-2.2,0.2
	c-0.3,0.1-0.4,0.3-0.4,0.6c0,0.2,0.3,0.4,0.5,0.4h0.1c0.4-0.1,0.8-0.1,1.1-0.2l0,0l0,0c0,0,0,0,0.1,0l0,0l0,0l0,0l0,0l0,0l0,0l0,0
	l0,0l0,0l0,0l0,0l0,0l0,0l0,0l0,0l0,0l0,0l0,0l0,0l0,0l0,0l0,0l0,0l0,0l0,0l0,0l0,0l0,0l0,0l0,0l0,0l0,0l0,0l0,0l0,0l0,0l0,0l0,0
	l0,0l0,0l0,0l0,0l0,0l0,0l0,0l0,0l0,0l0,0l0,0l0,0l0,0l0,0l0,0l0,0l0,0l0,0l0,0l0,0l0,0l0,0l0,0l0,0l0,0l0,0l0,0l0,0l0,0l0,0l0,0
	l0,0l0,0l0,0l0,0l0,0l0,0l0,0l0,0l0,0l0,0l0,0l0,0l0,0l0,0l0,0l0,0l0,0l0,0l0,0l0,0l0,0l0,0l0,0l0,0l0,0l0,0l0,0l0,0l0,0l0,0l0,0
	l0,0l0,0l0,0l0,0l0,0l0,0l0,0l0,0l0,0l0,0l0,0l0,0l0,0l0,0l0,0l0,0l0,0l0,0l0,0l0,0l0,0l0,0l0,0l0,0l0,0l0,0l0,0l0,0l0,0l0,0l0,0
	l0,0l0,0l0,0l0,0l0,0l0,0l0,0l0,0l0,0l0,0l0,0l0,0l0,0l0,0l0,0l0,0l0,0l0,0l0,0l0,0l0,0l0,0l0,0l0,0l0,0l0,0c0,0,0,0,0.1,0
	c0,0,0,0,0.1,0c0.2,0,0.4,0,0.6,0l0,0l0,0l0,0l0,0l0,0l0,0l0,0l0,0l0,0l0,0l0,0l0,0l0,0l0,0l0,0l0,0l0,0l0,0l0,0l0,0l0,0l0,0l0,0
	l0,0l0,0l0,0l0,0l0,0l0,0l0,0l0,0l0,0l0,0l0,0l0,0l0,0l0,0l0,0l0,0l0,0l0,0l0,0l0,0l0,0l0,0l0,0l0,0l0,0l0,0l0,0l0,0l0,0l0,0l0,0
	l0,0l0,0l0,0l0,0l0,0l0,0l0,0l0,0l0,0l0,0l0,0l0,0l0,0l0,0l0,0l0,0l0,0l0,0l0,0l0,0l0,0l0,0l0,0l0,0l0,0l0,0l0,0l0,0l0,0l0,0l0,0
	l0,0l0,0l0,0l0,0l0,0l0,0c0.3,0,0.6,0.1,0.9,0.2h0.1c0.2,0,0.4-0.1,0.5-0.4c0.1-0.3-0.1-0.5-0.4-0.6c-0.7-0.2-1.4-0.3-2.2-0.3l0,0
	C-172.6-904-172.7-904-172.7-904L-172.7-904L-172.7-904z M-176.8-903.2c-0.1,0-0.1,0-0.2,0c-0.7,0.3-1.3,0.6-1.9,1
	c-0.2,0.1-0.3,0.5-0.2,0.7c0.1,0.1,0.3,0.2,0.4,0.2c0.1,0,0.2,0,0.3-0.1c0.3-0.2,0.7-0.4,1.1-0.6l0,0l0,0l0,0l0,0l0,0l0,0l0,0l0,0
	l0,0l0,0l0,0l0,0l0,0l0,0l0,0l0,0l0,0l0,0l0,0l0,0l0,0l0,0l0,0l0,0l0,0l0,0l0,0l0,0l0,0l0,0l0,0l0,0l0,0l0,0l0,0l0,0l0,0l0,0l0,0
	c0.2-0.1,0.4-0.2,0.5-0.2c0.3-0.1,0.4-0.4,0.3-0.6C-176.4-903.1-176.6-903.2-176.8-903.2L-176.8-903.2z M-180.3-900.9
	c-0.1,0-0.3,0-0.4,0.1c-0.6,0.6-1,1.2-1.4,1.8c-0.1,0.2-0.1,0.5,0.2,0.7c0.1,0,0.2,0.1,0.2,0.1c0.2,0,0.3-0.1,0.4-0.3
	c0-0.1,0.1-0.1,0.1-0.2l0,0l0,0l0,0l0,0l0,0l0,0l0,0l0,0l0,0l0,0l0,0l0,0l0,0l0,0l0,0l0,0l0,0l0,0l0,0l0,0l0,0l0,0l0,0l0,0l0,0l0,0
	l0,0l0,0l0,0l0,0l0,0l0,0l0,0l0,0l0,0l0,0l0,0l0,0l0,0l0,0c0.3-0.4,0.6-0.9,1-1.2c0.2-0.2,0.2-0.5,0-0.7
	C-180.1-900.9-180.2-900.9-180.3-900.9L-180.3-900.9z M-182.4-897.2c-0.2,0-0.4,0.2-0.5,0.4c-0.1,0.5-0.1,1-0.1,1.5
	c0,0.3,0,0.6,0.1,0.9c0,0.2,0.3,0.4,0.5,0.4h0.1c0.3-0.1,0.4-0.3,0.4-0.6v-0.1l0,0l0,0l0,0l0,0l0,0l0,0l0,0l0,0l0,0l0,0l0,0l0,0l0,0
	l0,0l0,0l0,0l0,0l0,0l0,0l0,0l0,0l0,0c0-0.1,0-0.3,0-0.4l0,0l0,0l0,0l0,0l0,0l0,0l0,0l0,0l0,0l0,0l0,0l0,0l0,0l0,0l0,0l0,0l0,0l0,0
	l0,0l0,0l0,0l0,0l0,0l0,0l0,0l0,0l0,0l0,0l0,0l0,0l0,0l0,0l0,0c0-0.4,0-0.8,0.1-1.2C-181.8-896.9-182-897.2-182.4-897.2
	C-182.3-897.2-182.4-897.2-182.4-897.2L-182.4-897.2z M-181.5-893c-0.1,0-0.2,0-0.3,0.1c-0.2,0.2-0.3,0.5-0.1,0.7
	c0.4,0.5,1,1,1.6,1.5l0,0c-0.1,0.1-0.2,0.1-0.3,0.1c-0.8,0.2-1.1,0.8-1,1.2c0,0.2,0.1,1,1.2,1.1c0.2,0,0.4,0,0.6,0l0,0
	c0.3,0,0.5-0.2,0.5-0.5s-0.2-0.5-0.5-0.5c-0.2,0-0.4,0-0.5,0l0,0l0,0l0,0l0,0l0,0l0,0l0,0l0,0l0,0l0,0l0,0c-0.1,0-0.1,0-0.2,0l0,0
	l0,0l0,0l0,0l0,0l0,0l0,0l0,0l0,0l0,0l0,0c-0.1,0-0.1-0.1-0.1-0.1l0,0l0,0l0,0l0,0c0-0.1,0.1-0.1,0.3-0.2l0,0l0,0l0,0l0,0l0,0l0,0
	l0,0l0,0l0,0l0,0l0,0l0,0l0,0l0,0l0,0l0,0l0,0c0.2-0.1,0.4-0.2,0.6-0.3c0.2-0.2,0.3-0.5,0.1-0.7l0,0c0.1,0,0.1-0.1,0.2-0.2
	c0.1-0.2,0.1-0.5-0.2-0.7c-0.4-0.3-0.8-0.5-1.1-0.9l0,0l0,0l0,0l0,0l0,0l0,0l0,0l0,0l0,0l0,0l0,0l0,0l0,0l0,0l0,0l0,0l0,0l0,0l0,0
	l0,0l0,0l0,0l0,0l0,0l0,0l0,0l0,0l0,0l0,0l0,0l0,0l0,0l0,0l0,0l0,0l0,0l0,0l0,0l0,0l0,0l0,0l0,0l0,0l0,0l0,0l0,0l0,0l0,0l0,0l0,0
	l0,0l0,0l0,0l0,0l0,0l0,0l0,0l0,0l0,0l0,0l0,0l0,0l0,0l0,0l0,0l0,0l0,0l0,0l0,0l0,0l0,0l0,0l0,0l0,0l0,0l0,0l0,0l0,0l0,0
	c-0.1-0.1-0.1-0.1-0.2-0.2C-181.2-893-181.3-893-181.5-893L-181.5-893z M-175.9-890.2L-175.9-890.2c-0.5,0.4-1,0.6-1.6,0.8l0,0l0,0
	l0,0l0,0l0,0l0,0l0,0l0,0l0,0l0,0l0,0l0,0l0,0l0,0l0,0l0,0l0,0l0,0l0,0l0,0l0,0l0,0l0,0l0,0l0,0l0,0l0,0l0,0l0,0l0,0h-0.1
	c-0.3,0.1-0.4,0.3-0.4,0.6c0,0.2,0.3,0.4,0.5,0.4h0.1c0.9-0.2,1.6-0.5,2.2-1c0.2-0.2,0.2-0.5,0.1-0.7
	C-175.5-890.2-175.7-890.2-175.9-890.2L-175.9-890.2z M-171.9-890.2L-171.9-890.2c-0.1,0-0.2,0-0.3,0l0,0l0,0l0,0l0,0l0,0l0,0l0,0
	l0,0l0,0l0,0l0,0l0,0l0,0l0,0l0,0l0,0l0,0l0,0l0,0l0,0l0,0l0,0l0,0l0,0l0,0l0,0c-0.1,0-0.2,0-0.3,0l0,0l0,0l0,0l0,0l0,0l0,0l0,0
	c-0.3,0-0.6,0-0.9,0l0,0l0,0l0,0l0,0l0,0l0,0l0,0l0,0l0,0l0,0l0,0l0,0l0,0l0,0l0,0l0,0l0,0l0,0l0,0l0,0l0,0l0,0l0,0l0,0l0,0l0,0l0,0
	l0,0l0,0l0,0l0,0l0,0l0,0l0,0l0,0l0,0l0,0l0,0l0,0l0,0l0,0l0,0l0,0l0,0l0,0l0,0l0,0l0,0l0,0l0,0l0,0l0,0l0,0l0,0l0,0l0,0l0,0l0,0
	l0,0l0,0c0,0,0,0-0.1,0l0,0c-0.3,0-0.5,0.2-0.5,0.5s0.2,0.5,0.5,0.5c0.2,0,0.3,0,0.5,0c0.3,0,0.7,0,1,0c0.2,0,0.5,0,0.8-0.1
	c0.3,0,0.5-0.3,0.4-0.6C-171.4-890-171.6-890.2-171.9-890.2L-171.9-890.2z M-168-891.8c-0.1,0-0.2,0-0.3,0.1s-0.2,0.2-0.3,0.3l0,0
	l0,0l0,0l0,0l0,0l0,0l0,0l0,0l0,0l0,0l0,0l0,0l0,0l0,0l0,0l0,0l0,0l0,0l0,0l0,0l0,0l0,0l0,0l0,0l0,0l0,0l0,0l0,0l0,0l0,0l0,0l0,0
	l0,0l0,0l0,0l0,0l0,0l0,0l0,0c-0.4,0.2-0.8,0.5-1.2,0.6c-0.3,0.1-0.4,0.4-0.3,0.6c0.1,0.2,0.3,0.3,0.5,0.3c0.1,0,0.1,0,0.2,0
	c0.7-0.3,1.4-0.7,2-1.1c0.2-0.2,0.3-0.5,0.1-0.7C-167.7-891.7-167.8-891.8-168-891.8L-168-891.8z M-165.7-895.4
	c-0.2,0-0.4,0.2-0.5,0.4l0,0l0,0l0,0l0,0l0,0l0,0l0,0l0,0l0,0l0,0l0,0l0,0l0,0l0,0l0,0l0,0l0,0l0,0l0,0l0,0l0,0l0,0l0,0l0,0l0,0l0,0
	l0,0l0,0l0,0l0,0l0,0l0,0l0,0l0,0l0,0l0,0l0,0l0,0l0,0l0,0l0,0l0,0l0,0l0,0l0,0l0,0l0,0l0,0l0,0l0,0l0,0l0,0l0,0l0,0l0,0l0,0l0,0
	l0,0l0,0l0,0l0,0l0,0l0,0l0,0l0,0l0,0l0,0l0,0l0,0l0,0l0,0l0,0l0,0l0,0l0,0l0,0l0,0l0,0l0,0l0,0l0,0l0,0l0,0l0,0l0,0l0,0l0,0l0,0
	l0,0l0,0l0,0l0,0l0,0l0,0l0,0l0,0l0,0l0,0l0,0l0,0l0,0l0,0l0,0l0,0l0,0l0,0l0,0l0,0l0,0l0,0l0,0l0,0l0,0l0,0l0,0l0,0l0,0l0,0l0,0
	l0,0l0,0l0,0l0,0l0,0l0,0l0,0l0,0l0,0l0,0l0,0l0,0l0,0l0,0l0,0l0,0l0,0l0,0l0,0l0,0l0,0l0,0l0,0l0,0l0,0l0,0l0,0l0,0l0,0l0,0l0,0
	l0,0l0,0l0,0l0,0l0,0l0,0l0,0l0,0l0,0l0,0l0,0l0,0l0,0l0,0l0,0l0,0l0,0l0,0l0,0l0,0l0,0l0,0l0,0l0,0l0,0l0,0l0,0l0,0l0,0l0,0l0,0
	l0,0l0,0l0,0l0,0l0,0l0,0l0,0l0,0l0,0l0,0l0,0l0,0l0,0l0,0l0,0l0,0l0,0l0,0l0,0c-0.1,0.3-0.3,0.6-0.4,0.8c-0.1,0.2-0.1,0.5,0.1,0.7
	c0.1,0.1,0.2,0.1,0.3,0.1c0.2,0,0.3-0.1,0.4-0.2c0.4-0.7,0.7-1.4,0.9-2.1c0.1-0.3-0.1-0.5-0.4-0.6
	C-165.6-895.4-165.7-895.4-165.7-895.4L-165.7-895.4z M-165.9-899.6c-0.1,0-0.1,0-0.2,0c-0.3,0.1-0.4,0.4-0.3,0.6l0,0l0,0l0,0l0,0
	l0,0l0,0l0,0l0,0l0,0l0,0l0,0l0,0l0,0l0,0l0,0l0,0l0,0l0,0l0,0l0,0l0,0l0,0c0.1,0.2,0.1,0.4,0.2,0.6l0,0l0,0l0,0l0,0l0,0l0,0l0,0
	l0,0l0,0l0,0l0,0l0,0l0,0l0,0l0,0l0,0l0,0l0,0l0,0c0,0.2,0.1,0.3,0.1,0.5l0,0l0,0l0,0l0,0l0,0l0,0l0,0l0,0l0,0l0,0l0,0l0,0l0,0l0,0
	l0,0l0,0l0,0l0,0l0,0l0,0l0,0l0,0l0,0l0,0l0,0l0,0l0,0l0,0l0,0l0,0l0,0l0,0l0,0l0,0l0,0l0,0l0,0l0,0l0,0l0,0l0,0
	c0,0.2,0,0.4,0.1,0.5c0,0.3,0.2,0.5,0.5,0.5l0,0c0.3,0,0.5-0.3,0.5-0.5c0-0.5-0.1-0.9-0.2-1.4c-0.1-0.3-0.1-0.6-0.2-0.8
	C-165.5-899.5-165.7-899.6-165.9-899.6L-165.9-899.6z M-168.6-902.9c-0.2,0-0.3,0.1-0.4,0.2c-0.1,0.2-0.1,0.5,0.2,0.7l0,0l0,0l0,0
	l0,0l0,0l0,0l0,0l0,0l0,0l0,0l0,0l0,0l0,0l0,0l0,0l0,0l0,0l0,0l0,0l0,0l0,0l0,0l0,0l0,0l0,0l0,0l0,0l0,0l0,0l0,0l0,0l0,0l0,0l0,0
	l0,0l0,0l0,0l0,0l0,0l0,0l0,0l0,0l0,0l0,0l0,0l0,0l0,0l0,0l0,0l0,0l0,0l0,0l0,0l0,0l0,0l0,0l0,0l0,0l0,0l0,0l0,0l0,0l0,0l0,0l0,0
	l0,0l0,0l0,0l0,0l0,0l0,0l0,0l0,0l0,0l0,0l0,0l0,0l0,0l0,0l0,0l0,0l0,0l0,0l0,0l0,0l0,0l0,0l0,0l0,0l0,0l0,0l0,0l0,0l0,0l0,0l0,0
	l0,0l0,0l0,0l0,0l0,0l0,0l0,0l0,0l0,0l0,0l0,0l0,0l0,0l0,0l0,0l0,0l0,0l0,0l0,0l0,0l0,0l0,0l0,0l0,0l0,0l0,0l0,0l0,0l0,0l0,0l0,0
	l0,0l0,0l0,0l0,0l0,0l0,0l0,0l0,0l0,0l0,0l0,0l0,0l0,0l0,0l0,0l0,0l0,0l0,0l0,0l0,0l0,0l0,0l0,0l0,0l0,0l0,0l0,0l0,0l0,0l0,0l0,0
	l0,0l0,0l0,0l0,0l0,0l0,0l0,0l0,0l0,0l0,0l0,0l0,0l0,0l0,0l0,0l0,0l0,0l0,0l0,0l0,0l0,0l0,0l0,0l0,0l0,0l0,0l0,0l0,0l0,0l0,0l0,0
	l0,0l0,0l0,0l0,0l0,0l0,0l0,0l0,0l0,0l0,0l0,0l0,0l0,0l0,0l0,0l0,0l0,0l0,0l0,0l0,0l0,0l0,0l0,0l0,0l0,0l0,0l0,0l0,0l0,0l0,0l0,0
	l0,0l0,0l0,0l0,0c0.2,0.2,0.4,0.4,0.6,0.7c0.1,0.1,0.2,0.2,0.4,0.2c0.1,0,0.2,0,0.3-0.1c0.2-0.2,0.3-0.5,0.1-0.7
	c-0.5-0.6-1.1-1.1-1.8-1.5C-168.4-902.9-168.5-902.9-168.6-902.9L-168.6-902.9z"/>
<path id="ic_cloud-copy-2" sketch:type="MSShapeGroup" class="st0" d="M-183-654.4c0,2.4,1.8,4.4,4.1,4.4h11.8c2.3,0,4.1-2,4.1-4.4
	s-1.7-4.3-3.9-4.4l0,0c0-2.8-2.1-5.2-4.8-5.2c-1.7,0-3.2,1-4.1,2.4c-0.3-0.1-0.6-0.2-0.9-0.2c-1.3,0-2.4,1.1-2.4,2.5
	c0,0.2,0,0.3,0,0.4C-181.2-658.7-183-656.8-183-654.4"/>
<path id="Fill-1-Copy" sketch:type="MSShapeGroup" class="st0" d="M-180-620h14v9h-14V-620z M-166-622h-14c-1.1,0-2,0.9-2,2v9
	c0,1.1,0.9,2,2,2h4v1l-4,1v1h14v-1l-4-1v-1h4c1.1,0,2-0.9,2-2v-9C-164-621.1-164.9-622-166-622L-166-622z M-165-611c0,0.5-0.4,1-1,1
	h-14c-0.6,0-1-0.5-1-1v-9c0-0.5,0.4-1,1-1h14c0.6,0,1,0.5,1,1V-611L-165-611z"/>
<g id="Group-Copy-3" transform="translate(7.000000, 858.000000)" sketch:type="MSLayerGroup">
	<g sketch:type="MSShapeGroup">
		<path id="Rectangle-67_1_" class="st14" d="M-188-1428l9.6-9.6c0.8-0.8,2.1-0.8,2.8,0l0.2,0.2c0.8,0.8,0.8,2.1,0,2.8l-9.6,9.6
			l-5,2L-188-1428z"/>
		<path id="Path-280_1_" class="st14" d="M-180-1436l3.1,3"/>
		<path id="Path-280-Copy_1_" class="st14" d="M-187-1429l3.1,3"/>
		<rect id="Rectangle-68-Copy_1_" x="-181" y="-1424" class="st0" width="4" height="1"/>
		<rect id="Rectangle-68-Copy-2_1_" x="-175" y="-1424" class="st0" width="2" height="1"/>
		<rect id="Rectangle-68-Copy-3_1_" x="-185" y="-1424" class="st0" width="2" height="1"/>
	</g>
</g>
<path id="Rectangle-138-Copy-5" sketch:type="MSShapeGroup" class="st0" d="M-173-531h2v-4h-4v3v3h2V-531z M-179-531h2v-4h-4v3v3h2
	V-531L-179-531z"/>
<path id="Rectangle-144-Copy-8" sketch:type="MSShapeGroup" class="st0" d="M-172.6-503l4.9-4.9l-1.4-1.4l-4.9,4.9l-4.9-4.9
	l-1.4,1.4l5,4.9l-5,5l1.4,1.4l4.9-5l4.9,5l1.4-1.4L-172.6-503z"/>
<path id="Fill-5-Copy-2" sketch:type="MSShapeGroup" class="st0" d="M-171.1-440.4c0-0.1-0.1-0.7-0.3-0.8c-0.2-0.1-0.8-0.4-0.8-0.4
	s-0.1-0.2-0.1-0.3s0.1-0.3,0.1-0.3c0.1-0.2,0.4-0.5,0.4-0.8s0.2-1,0.2-1c0-0.2,0.2-0.2,0.4-0.3c0.3-0.1,0.5-1.7,0.5-1.7
	c0-0.5-0.2-0.3-0.2-0.7v-1.4c0-1.7-1.4-2.8-3.1-2.8h-0.1c-1.7,0-3.1,1.1-3.1,2.8v1.4c0,0.4-0.2,0.1-0.2,0.7c0,0,0.2,1.6,0.5,1.7
	c0.1,0.1,0.4,0.2,0.4,0.3c0,0,0.1,0.8,0.2,1s0.4,0.7,0.4,0.8c0,0,0.1,0.2,0.1,0.3s-0.1,0.3-0.1,0.3s-0.6,0.3-0.8,0.4
	s-0.3,0.6-0.3,0.8c-0.7,0.2-4.3,1.9-4.8,2.3c-0.3,0.3-0.3,2.1-0.3,2.1v0.2c0,0.4,0.3,0.8,0.8,0.8h14.5c0.4,0,0.8-0.3,0.8-0.8v-0.2
	c0,0,0-1.8-0.3-2.1C-166.7-438.5-170.4-440.2-171.1-440.4z"/>
<path id="Imported-Layers-Copy-3" sketch:type="MSShapeGroup" class="st0" d="M-172.7-414c-0.7,0-1.4,0.1-2.2,0.2
	c-0.3,0.1-0.4,0.3-0.4,0.6c0,0.2,0.3,0.4,0.5,0.4h0.1c0.4-0.1,0.8-0.1,1.1-0.2l0,0l0,0c0,0,0,0,0.1,0l0,0l0,0l0,0l0,0l0,0l0,0l0,0
	l0,0l0,0l0,0l0,0l0,0l0,0l0,0l0,0l0,0l0,0l0,0l0,0l0,0l0,0l0,0l0,0l0,0l0,0l0,0l0,0l0,0l0,0l0,0l0,0l0,0l0,0l0,0l0,0l0,0l0,0l0,0
	l0,0l0,0l0,0l0,0l0,0l0,0l0,0l0,0l0,0l0,0l0,0l0,0l0,0l0,0l0,0l0,0l0,0l0,0l0,0l0,0l0,0l0,0l0,0l0,0l0,0l0,0l0,0l0,0l0,0l0,0l0,0
	l0,0l0,0l0,0l0,0l0,0l0,0l0,0l0,0l0,0l0,0l0,0l0,0l0,0l0,0l0,0l0,0l0,0l0,0l0,0l0,0l0,0l0,0l0,0l0,0l0,0l0,0l0,0l0,0l0,0l0,0l0,0
	l0,0l0,0l0,0l0,0l0,0l0,0l0,0l0,0l0,0l0,0l0,0l0,0l0,0l0,0l0,0l0,0l0,0l0,0l0,0l0,0l0,0l0,0l0,0l0,0l0,0l0,0l0,0l0,0l0,0l0,0l0,0
	l0,0l0,0l0,0l0,0l0,0l0,0l0,0l0,0l0,0l0,0l0,0l0,0l0,0l0,0l0,0l0,0l0,0l0,0l0,0l0,0l0,0l0,0l0,0l0,0l0,0l0,0c0,0,0,0,0.1,0
	c0,0,0,0,0.1,0c0.2,0,0.4,0,0.6,0l0,0l0,0l0,0l0,0l0,0l0,0l0,0l0,0l0,0l0,0l0,0l0,0l0,0l0,0l0,0l0,0l0,0l0,0l0,0l0,0l0,0l0,0l0,0
	l0,0l0,0l0,0l0,0l0,0l0,0l0,0l0,0l0,0l0,0l0,0l0,0l0,0l0,0l0,0l0,0l0,0l0,0l0,0l0,0l0,0l0,0l0,0l0,0l0,0l0,0l0,0l0,0l0,0l0,0l0,0
	l0,0l0,0l0,0l0,0l0,0l0,0l0,0l0,0l0,0l0,0l0,0l0,0l0,0l0,0l0,0l0,0l0,0l0,0l0,0l0,0l0,0l0,0l0,0l0,0l0,0l0,0l0,0l0,0l0,0l0,0l0,0
	l0,0l0,0l0,0l0,0l0,0l0,0c0.3,0,0.6,0.1,0.9,0.2h0.1c0.2,0,0.4-0.1,0.5-0.4s-0.1-0.5-0.4-0.6c-0.7-0.2-1.4-0.3-2.2-0.3l0,0
	C-172.6-414-172.7-414-172.7-414L-172.7-414L-172.7-414z M-176.8-413.2c-0.1,0-0.1,0-0.2,0c-0.7,0.3-1.3,0.6-1.9,1
	c-0.2,0.1-0.3,0.5-0.2,0.7c0.1,0.1,0.3,0.2,0.4,0.2c0.1,0,0.2,0,0.3-0.1c0.3-0.2,0.7-0.4,1.1-0.6l0,0l0,0l0,0l0,0l0,0l0,0l0,0l0,0
	l0,0l0,0l0,0l0,0l0,0l0,0l0,0l0,0l0,0l0,0l0,0l0,0l0,0l0,0l0,0l0,0l0,0l0,0l0,0l0,0l0,0l0,0l0,0l0,0l0,0l0,0l0,0l0,0l0,0l0,0l0,0
	c0.2-0.1,0.4-0.2,0.5-0.2c0.3-0.1,0.4-0.4,0.3-0.7C-176.4-413.1-176.6-413.2-176.8-413.2L-176.8-413.2z M-180.3-410.9
	c-0.1,0-0.3,0-0.4,0.1c-0.6,0.6-1,1.2-1.4,1.8c-0.1,0.2-0.1,0.5,0.2,0.7c0.1,0,0.2,0.1,0.2,0.1c0.2,0,0.3-0.1,0.4-0.3
	c0-0.1,0.1-0.1,0.1-0.2l0,0l0,0l0,0l0,0l0,0l0,0l0,0l0,0l0,0l0,0l0,0l0,0l0,0l0,0l0,0l0,0l0,0l0,0l0,0l0,0l0,0l0,0l0,0l0,0l0,0l0,0
	l0,0l0,0l0,0l0,0l0,0l0,0l0,0l0,0l0,0l0,0l0,0l0,0l0,0l0,0c0.3-0.4,0.6-0.9,1-1.2c0.2-0.2,0.2-0.5,0-0.7
	C-180.1-410.9-180.2-410.9-180.3-410.9L-180.3-410.9z M-182.4-407.2c-0.2,0-0.4,0.2-0.5,0.4c-0.1,0.5-0.1,1-0.1,1.5
	c0,0.3,0,0.6,0.1,0.9c0,0.2,0.3,0.4,0.5,0.4h0.1c0.3-0.1,0.4-0.3,0.4-0.6v-0.1l0,0l0,0l0,0l0,0l0,0l0,0l0,0l0,0l0,0l0,0l0,0l0,0l0,0
	l0,0l0,0l0,0l0,0l0,0l0,0l0,0l0,0l0,0c0-0.1,0-0.3,0-0.4l0,0l0,0l0,0l0,0l0,0l0,0l0,0l0,0l0,0l0,0l0,0l0,0l0,0l0,0l0,0l0,0l0,0l0,0
	l0,0l0,0l0,0l0,0l0,0l0,0l0,0l0,0l0,0l0,0l0,0l0,0l0,0l0,0l0,0c0-0.4,0-0.8,0.1-1.2C-181.8-406.9-182-407.2-182.4-407.2
	C-182.3-407.2-182.4-407.2-182.4-407.2L-182.4-407.2z M-181.5-403c-0.1,0-0.2,0-0.3,0.1c-0.2,0.2-0.3,0.5-0.1,0.7
	c0.4,0.6,1,1,1.6,1.5l0,0c-0.1,0.1-0.2,0.1-0.3,0.1c-0.8,0.2-1.1,0.8-1,1.2c0,0.2,0.1,0.9,1.2,1.1c0.2,0,0.4,0,0.6,0l0,0
	c0.3,0,0.5-0.2,0.5-0.5s-0.2-0.5-0.5-0.5c-0.2,0-0.4,0-0.5,0l0,0l0,0l0,0l0,0l0,0l0,0l0,0l0,0l0,0l0,0l0,0c-0.1,0-0.1,0-0.2,0l0,0
	l0,0l0,0l0,0l0,0l0,0l0,0l0,0l0,0l0,0l0,0c-0.1,0-0.1-0.1-0.1-0.1l0,0l0,0l0,0l0,0c0-0.1,0.1-0.1,0.3-0.2l0,0l0,0l0,0l0,0l0,0l0,0
	l0,0l0,0l0,0l0,0l0,0l0,0l0,0l0,0l0,0l0,0l0,0c0.2-0.1,0.4-0.2,0.6-0.3c0.2-0.2,0.3-0.5,0.1-0.7l0,0c0.1,0,0.1-0.1,0.2-0.2
	c0.1-0.2,0.1-0.5-0.2-0.7c-0.4-0.3-0.8-0.5-1.1-0.9l0,0l0,0l0,0l0,0l0,0l0,0l0,0l0,0l0,0l0,0l0,0l0,0l0,0l0,0l0,0l0,0l0,0l0,0l0,0
	l0,0l0,0l0,0l0,0l0,0l0,0l0,0l0,0l0,0l0,0l0,0l0,0l0,0l0,0l0,0l0,0l0,0l0,0l0,0l0,0l0,0l0,0l0,0l0,0l0,0l0,0l0,0l0,0l0,0l0,0l0,0
	l0,0l0,0l0,0l0,0l0,0l0,0l0,0l0,0l0,0l0,0l0,0l0,0l0,0l0,0l0,0l0,0l0,0l0,0l0,0l0,0l0,0l0,0l0,0l0,0l0,0l0,0l0,0l0,0l0,0
	c-0.1-0.1-0.1-0.1-0.2-0.2C-181.2-403-181.3-403-181.5-403L-181.5-403z M-175.9-400.2L-175.9-400.2c-0.5,0.4-1,0.6-1.6,0.8l0,0l0,0
	l0,0l0,0l0,0l0,0l0,0l0,0l0,0l0,0l0,0l0,0l0,0l0,0l0,0l0,0l0,0l0,0l0,0l0,0l0,0l0,0l0,0l0,0l0,0l0,0l0,0l0,0l0,0l0,0h-0.1
	c-0.3,0.1-0.4,0.3-0.4,0.6c0,0.2,0.3,0.4,0.5,0.4h0.1c0.9-0.2,1.6-0.5,2.2-1c0.2-0.2,0.2-0.5,0.1-0.7
	C-175.5-400.2-175.7-400.2-175.9-400.2L-175.9-400.2z M-171.9-400.2L-171.9-400.2c-0.1,0-0.2,0-0.3,0l0,0l0,0l0,0l0,0l0,0l0,0l0,0
	l0,0l0,0l0,0l0,0l0,0l0,0l0,0l0,0l0,0l0,0l0,0l0,0l0,0l0,0l0,0l0,0l0,0l0,0l0,0c-0.1,0-0.2,0-0.3,0l0,0l0,0l0,0l0,0l0,0l0,0l0,0
	c-0.3,0-0.6,0-0.9,0l0,0l0,0l0,0l0,0l0,0l0,0l0,0l0,0l0,0l0,0l0,0l0,0l0,0l0,0l0,0l0,0l0,0l0,0l0,0l0,0l0,0l0,0l0,0l0,0l0,0l0,0l0,0
	l0,0l0,0l0,0l0,0l0,0l0,0l0,0l0,0l0,0l0,0l0,0l0,0l0,0l0,0l0,0l0,0l0,0l0,0l0,0l0,0l0,0l0,0l0,0l0,0l0,0l0,0l0,0l0,0l0,0l0,0l0,0
	l0,0l0,0c0,0,0,0-0.1,0l0,0c-0.3,0-0.5,0.2-0.5,0.5s0.2,0.5,0.5,0.5c0.2,0,0.3,0,0.5,0c0.3,0,0.7,0,1,0c0.2,0,0.5,0,0.8-0.1
	c0.3,0,0.5-0.3,0.4-0.6C-171.4-400-171.6-400.2-171.9-400.2L-171.9-400.2z M-168-401.8c-0.1,0-0.2,0-0.3,0.1s-0.2,0.2-0.3,0.3l0,0
	l0,0l0,0l0,0l0,0l0,0l0,0l0,0l0,0l0,0l0,0l0,0l0,0l0,0l0,0l0,0l0,0l0,0l0,0l0,0l0,0l0,0l0,0l0,0l0,0l0,0l0,0l0,0l0,0l0,0l0,0l0,0
	l0,0l0,0l0,0l0,0l0,0l0,0l0,0c-0.4,0.2-0.8,0.5-1.2,0.6c-0.3,0.1-0.4,0.4-0.3,0.6c0.1,0.2,0.3,0.3,0.5,0.3c0.1,0,0.1,0,0.2,0
	c0.7-0.3,1.4-0.7,2-1.1c0.2-0.2,0.3-0.5,0.1-0.7C-167.7-401.7-167.8-401.8-168-401.8L-168-401.8z M-165.7-405.4
	c-0.2,0-0.4,0.2-0.5,0.4l0,0l0,0l0,0l0,0l0,0l0,0l0,0l0,0l0,0l0,0l0,0l0,0l0,0l0,0l0,0l0,0l0,0l0,0l0,0l0,0l0,0l0,0l0,0l0,0l0,0l0,0
	l0,0l0,0l0,0l0,0l0,0l0,0l0,0l0,0l0,0l0,0l0,0l0,0l0,0l0,0l0,0l0,0l0,0l0,0l0,0l0,0l0,0l0,0l0,0l0,0l0,0l0,0l0,0l0,0l0,0l0,0l0,0
	l0,0l0,0l0,0l0,0l0,0l0,0l0,0l0,0l0,0l0,0l0,0l0,0l0,0l0,0l0,0l0,0l0,0l0,0l0,0l0,0l0,0l0,0l0,0l0,0l0,0l0,0l0,0l0,0l0,0l0,0l0,0
	l0,0l0,0l0,0l0,0l0,0l0,0l0,0l0,0l0,0l0,0l0,0l0,0l0,0l0,0l0,0l0,0l0,0l0,0l0,0l0,0l0,0l0,0l0,0l0,0l0,0l0,0l0,0l0,0l0,0l0,0l0,0
	l0,0l0,0l0,0l0,0l0,0l0,0l0,0l0,0l0,0l0,0l0,0l0,0l0,0l0,0l0,0l0,0l0,0l0,0l0,0l0,0l0,0l0,0l0,0l0,0l0,0l0,0l0,0l0,0l0,0l0,0l0,0
	l0,0l0,0l0,0l0,0l0,0l0,0l0,0l0,0l0,0l0,0l0,0l0,0l0,0l0,0l0,0l0,0l0,0l0,0l0,0l0,0l0,0l0,0l0,0l0,0l0,0l0,0l0,0l0,0l0,0l0,0l0,0
	l0,0l0,0l0,0l0,0l0,0l0,0l0,0l0,0l0,0l0,0l0,0l0,0l0,0l0,0l0,0l0,0l0,0l0,0l0,0c-0.1,0.3-0.3,0.6-0.4,0.8c-0.1,0.2-0.1,0.5,0.1,0.7
	c0.1,0.1,0.2,0.1,0.3,0.1c0.2,0,0.3-0.1,0.4-0.2c0.4-0.7,0.7-1.4,0.9-2.1c0.1-0.3-0.1-0.5-0.4-0.6
	C-165.6-405.4-165.7-405.4-165.7-405.4L-165.7-405.4z M-165.9-409.6c-0.1,0-0.1,0-0.2,0c-0.3,0.1-0.4,0.4-0.3,0.6l0,0l0,0l0,0l0,0
	l0,0l0,0l0,0l0,0l0,0l0,0l0,0l0,0l0,0l0,0l0,0l0,0l0,0l0,0l0,0l0,0l0,0l0,0c0.1,0.2,0.1,0.4,0.2,0.6l0,0l0,0l0,0l0,0l0,0l0,0l0,0
	l0,0l0,0l0,0l0,0l0,0l0,0l0,0l0,0l0,0l0,0l0,0l0,0c0,0.2,0.1,0.3,0.1,0.5l0,0l0,0l0,0l0,0l0,0l0,0l0,0l0,0l0,0l0,0l0,0l0,0l0,0l0,0
	l0,0l0,0l0,0l0,0l0,0l0,0l0,0l0,0l0,0l0,0l0,0l0,0l0,0l0,0l0,0l0,0l0,0l0,0l0,0l0,0l0,0l0,0l0,0l0,0l0,0l0,0l0,0
	c0,0.2,0,0.4,0.1,0.5c0,0.3,0.2,0.5,0.5,0.5l0,0c0.3,0,0.5-0.3,0.5-0.5c0-0.5-0.1-0.9-0.2-1.4c-0.1-0.3-0.1-0.6-0.2-0.8
	C-165.5-409.5-165.7-409.6-165.9-409.6L-165.9-409.6z M-168.6-412.9c-0.2,0-0.3,0.1-0.4,0.2c-0.1,0.2-0.1,0.5,0.2,0.7l0,0l0,0l0,0
	l0,0l0,0l0,0l0,0l0,0l0,0l0,0l0,0l0,0l0,0l0,0l0,0l0,0l0,0l0,0l0,0l0,0l0,0l0,0l0,0l0,0l0,0l0,0l0,0l0,0l0,0l0,0l0,0l0,0l0,0l0,0
	l0,0l0,0l0,0l0,0l0,0l0,0l0,0l0,0l0,0l0,0l0,0l0,0l0,0l0,0l0,0l0,0l0,0l0,0l0,0l0,0l0,0l0,0l0,0l0,0l0,0l0,0l0,0l0,0l0,0l0,0l0,0
	l0,0l0,0l0,0l0,0l0,0l0,0l0,0l0,0l0,0l0,0l0,0l0,0l0,0l0,0l0,0l0,0l0,0l0,0l0,0l0,0l0,0l0,0l0,0l0,0l0,0l0,0l0,0l0,0l0,0l0,0l0,0
	l0,0l0,0l0,0l0,0l0,0l0,0l0,0l0,0l0,0l0,0l0,0l0,0l0,0l0,0l0,0l0,0l0,0l0,0l0,0l0,0l0,0l0,0l0,0l0,0l0,0l0,0l0,0l0,0l0,0l0,0l0,0
	l0,0l0,0l0,0l0,0l0,0l0,0l0,0l0,0l0,0l0,0l0,0l0,0l0,0l0,0l0,0l0,0l0,0l0,0l0,0l0,0l0,0l0,0l0,0l0,0l0,0l0,0l0,0l0,0l0,0l0,0l0,0
	l0,0l0,0l0,0l0,0l0,0l0,0l0,0l0,0l0,0l0,0l0,0l0,0l0,0l0,0l0,0l0,0l0,0l0,0l0,0l0,0l0,0l0,0l0,0l0,0l0,0l0,0l0,0l0,0l0,0l0,0l0,0
	l0,0l0,0l0,0l0,0l0,0l0,0l0,0l0,0l0,0l0,0l0,0l0,0l0,0l0,0l0,0l0,0l0,0l0,0l0,0l0,0l0,0l0,0l0,0l0,0l0,0l0,0l0,0l0,0l0,0l0,0l0,0
	l0,0l0,0l0,0l0,0c0.2,0.2,0.4,0.4,0.6,0.7c0.1,0.1,0.2,0.2,0.4,0.2c0.1,0,0.2,0,0.3-0.1c0.2-0.2,0.3-0.5,0.1-0.7
	c-0.5-0.6-1.1-1.1-1.8-1.5C-168.4-412.9-168.5-412.9-168.6-412.9L-168.6-412.9z"/>
<path id="Rectangle-93" sketch:type="MSShapeGroup" class="st15" d="M-177-1436h8l-4,4L-177-1436z"/>
<g id="Imported-Layers_2_" transform="translate(3.000000, 1586.000000)" sketch:type="MSLayerGroup">
	<path id="Fill-1_3_" sketch:type="MSShapeGroup" class="st16" d="M-177-1437c4.4,0,8,3.6,8,8s-3.6,8-8,8s-8-3.6-8-8
		S-181.4-1437-177-1437 M-177-1439c-5.5,0-10,4.5-10,10s4.5,10,10,10s10-4.5,10-10S-171.5-1439-177-1439"/>
	<path id="Fill-2_2_" sketch:type="MSShapeGroup" class="st5" d="M-172.2-1427c-0.5,2.3-2.5,4-4.9,4s-4.4-1.7-4.9-4H-172.2
		 M-171-1428h-12.2l0.2,1.2c0.6,2.8,3,4.8,5.9,4.8c2.8,0,5.3-2,5.9-4.8L-171-1428"/>
	<path id="Fill-3_1_" sketch:type="MSShapeGroup" class="st16" d="M-172-1427c-0.5,2.3-2.5,4-5,4s-4.5-1.7-5-4H-172 M-183-1428v1.2
		c0.6,2.8,3.1,4.8,6,4.8s5.4-2,6-4.8v-1.2H-183"/>
	<path id="Fill-4_1_" sketch:type="MSShapeGroup" class="st16" d="M-171-1430.5c0,0.8-0.7,1.5-1.5,1.5s-1.5-0.7-1.5-1.5
		s0.7-1.5,1.5-1.5S-171-1431.3-171-1430.5"/>
	<path id="Fill-5_1_" sketch:type="MSShapeGroup" class="st16" d="M-180-1430.5c0,0.8-0.7,1.5-1.5,1.5s-1.5-0.7-1.5-1.5
		s0.7-1.5,1.5-1.5S-180-1431.3-180-1430.5"/>
	<path id="Fill-6_1_" sketch:type="MSShapeGroup" class="st16" d="M-173-1424h-8l-1-2h10L-173-1424"/>
</g>
<path id="Rectangle-53-Copy-3" sketch:type="MSShapeGroup" class="st11" d="M-183-771c0-1.1,0.9-2,2-2h14c1.1,0,2,0.9,2,2v10
	c0,1.1-0.9,2-2,2h-14c-1.1,0-2-0.9-2-2V-771z M-169.2-762.9c-0.3-0.3-2.5-1.3-3-1.5c0-0.1-0.1-0.4-0.2-0.5c-0.1,0-0.5-0.2-0.5-0.2
	s0-0.1-0.1-0.2c0-0.1,0.1-0.2,0.1-0.2c0.1-0.1,0.2-0.3,0.3-0.5s0.1-0.7,0.1-0.7c0-0.1,0.1-0.1,0.2-0.2c0.2-0.1,0.3-1.1,0.3-1.1
	c0-0.3-0.1-0.2-0.1-0.4v-0.9c0-1.1-0.9-1.8-1.9-1.8l0,0c-1.1,0-2,0.7-2,1.8v0.9c0,0.2-0.1,0.1-0.1,0.4c0,0,0.1,1,0.3,1.1
	c0.1,0,0.2,0.1,0.2,0.2c0,0,0.1,0.5,0.1,0.7c0.1,0.2,0.2,0.4,0.3,0.5c0,0,0,0.1,0,0.2c0,0.1,0,0.2,0,0.2s-0.4,0.2-0.5,0.2
	c-0.1,0.1-0.2,0.4-0.2,0.5c-0.4,0.1-2.7,1.2-3,1.5c-0.2,0.2-0.2,1.3-0.2,1.3v0.1c0,0.3,0.2,0.5,0.5,0.5h9c0.3,0,0.5-0.2,0.5-0.5
	v-0.1C-169-761.6-169-762.7-169.2-762.9z"/>
<path id="ic_cloud-copy-6" sketch:type="MSShapeGroup" class="st11" d="M-184-848.4c0,2.4,1.8,4.4,4.1,4.4h11.8c2.3,0,4.1-2,4.1-4.4
	s-1.7-4.3-3.9-4.4l0,0c0-2.8-2.1-5.2-4.8-5.2c-1.7,0-3.2,1-4.1,2.4c-0.3-0.1-0.6-0.2-0.9-0.2c-1.3,0-2.4,1.1-2.4,2.5
	c0,0.2,0,0.3,0,0.4C-182.2-852.7-184-850.8-184-848.4"/>
<path class="st11" d="M-174-818c-5,0-9,4-9,9s4,9,9,9s9-4,9-9S-169-818-174-818z M-170-808l-3-3v7h-2v-7l-3,3l-1-1l5-5l5,5L-170-808
	z"/>
<path id="Rectangle-53-Copy-4" sketch:type="MSShapeGroup" class="st0" d="M-183-281c0-1.1,0.9-2,2-2h14c1.1,0,2,0.9,2,2v10
	c0,1.1-0.9,2-2,2h-14c-1.1,0-2-0.9-2-2V-281z M-169.2-272.9c-0.3-0.3-2.5-1.3-3-1.5c0-0.1-0.1-0.4-0.2-0.5c-0.1,0-0.5-0.2-0.5-0.2
	s0-0.1-0.1-0.2c0-0.1,0.1-0.2,0.1-0.2c0.1-0.1,0.2-0.3,0.3-0.5s0.1-0.7,0.1-0.7c0-0.1,0.1-0.1,0.2-0.2c0.2-0.1,0.3-1.1,0.3-1.1
	c0-0.3-0.1-0.2-0.1-0.4v-0.9c0-1.1-0.9-1.8-1.9-1.8l0,0c-1.1,0-2,0.7-2,1.8v0.9c0,0.2-0.1,0.1-0.1,0.4c0,0,0.1,1,0.3,1.1
	c0.1,0.1,0.2,0.1,0.2,0.2c0,0,0.1,0.5,0.1,0.7c0.1,0.2,0.2,0.4,0.3,0.5c0,0,0,0.1,0,0.2s0,0.2,0,0.2s-0.4,0.2-0.5,0.2
	c-0.1,0.1-0.2,0.4-0.2,0.5c-0.4,0.1-2.7,1.2-3,1.5c-0.2,0.2-0.2,1.3-0.2,1.3v0.1c0,0.3,0.2,0.5,0.5,0.5h9c0.3,0,0.5-0.2,0.5-0.5
	v-0.1C-169-271.6-169-272.7-169.2-272.9z"/>
<path id="ic_cloud-copy-7" sketch:type="MSShapeGroup" class="st0" d="M-184-358.4c0,2.4,1.8,4.4,4.1,4.4h11.8c2.3,0,4.1-2,4.1-4.4
	s-1.7-4.3-3.9-4.4l0,0c0-2.8-2.1-5.2-4.8-5.2c-1.7,0-3.2,1-4.1,2.4c-0.3-0.1-0.6-0.2-0.9-0.2c-1.3,0-2.4,1.1-2.4,2.5
	c0,0.2,0,0.3,0,0.4C-182.2-362.7-184-360.8-184-358.4"/>
<path id="Imported-Layers_3_" sketch:type="MSShapeGroup" class="st11" d="M-180-718l12-8l-12-8V-718z"/>
<g id="Oval-55-_x2B_-Fill-5-_x2B_-Shape" transform="translate(8.000000, 737.000000)" sketch:type="MSLayerGroup">
	<g id="Oval-55-_x2B_-Fill-5" transform="translate(0.000000, 3.000000)" sketch:type="MSShapeGroup">
		<path id="Oval-55" class="st11" d="M-176.7-1435.3c0.5,1,0.8,2.1,0.8,3.3c0,3.9-3.1,7-7,7s-7-3.1-7-7s3.1-7,7-7
			c1.1,0,2.2,0.3,3.2,0.8l-1.5,1.5c-0.6-0.2-1.2-0.3-1.8-0.3c-2.8,0-5,2.2-5,5s2.2,5,5,5s5-2.2,5-5c0-0.6-0.1-1.1-0.3-1.6
			L-176.7-1435.3z"/>
	</g>
	<path id="Shape" sketch:type="MSShapeGroup" class="st11" d="M-175-1435.6l-7.3,7.3l-1.4-1.4l7.3-7.3h-4.6v-2h8v1v7h-2V-1435.6z"/>
</g>
<path id="Imported-Layers-Copy-4" sketch:type="MSShapeGroup" class="st0" d="M-180-228l12-8l-12-8V-228z"/>
<g id="Oval-55-_x2B_-Fill-5-_x2B_-Shape-Copy" transform="translate(8.000000, 1227.000000)" sketch:type="MSLayerGroup">
	<g id="Oval-55-_x2B_-Fill-5_1_" transform="translate(0.000000, 3.000000)" sketch:type="MSShapeGroup">
		<path id="Oval-55_1_" class="st0" d="M-176.7-1435.3c0.5,1,0.8,2.1,0.8,3.3c0,3.9-3.1,7-7,7s-7-3.1-7-7s3.1-7,7-7
			c1.1,0,2.2,0.3,3.2,0.8l-1.5,1.5c-0.6-0.2-1.2-0.3-1.8-0.3c-2.8,0-5,2.2-5,5s2.2,5,5,5s5-2.2,5-5c0-0.6-0.1-1.1-0.3-1.6
			L-176.7-1435.3z"/>
	</g>
	<path id="Shape_1_" sketch:type="MSShapeGroup" class="st0" d="M-175-1435.6l-7.3,7.3l-1.4-1.4l7.3-7.3h-4.6v-2h8v1v7h-2V-1435.6z"
		/>
</g>
<path id="Imported-Layers-Copy-4_1_" sketch:type="MSShapeGroup" class="st0" d="M-181.2,277.7c-0.3,0-0.6,0-1,0
	c-0.6,0-1-0.5-0.9-1.1c0-0.5,0.4-0.9,0.9-0.9c-0.1-0.3,0-0.7,0.2-0.9c0.1-0.1,0.1-0.2,0.2-0.4c-0.6-0.3-1.1-0.8-1.6-1.2
	c-0.4-0.4-0.4-1-0.1-1.4c0.4-0.4,1-0.4,1.4-0.1c0.4,0.4,0.9,0.7,1.5,1.1c0.5,0.4,0.8,0.8,0.8,1.4v0.1c0,0.5-0.1,1-0.4,1.4
	c0.7-0.1,1.2-0.2,1.8-0.3c0.5-0.2,1.1,0.1,1.2,0.7c0.2,0.5-0.1,1.1-0.7,1.2C-178.9,277.6-179.9,277.7-181.2,277.7L-181.2,277.7z
	 M-172.8,276.6c-0.9,0-1.8-0.1-2.8-0.2c-0.5-0.1-0.9-0.6-0.9-1.1c0.1-0.5,0.6-1,1.1-0.9c1.4,0.2,2.6,0.2,3.7,0.1l0.2,1l0.1,1
	C-171.9,276.6-172.4,276.6-172.8,276.6L-172.8,276.6z M-168.5,275.9c-0.4,0-0.8-0.3-1-0.7c-0.2-0.5,0.1-1.1,0.6-1.3
	c1.2-0.4,2.3-1,3.1-1.7c0.4-0.4,1.1-0.3,1.4,0.1c0.4,0.4,0.3,1.1-0.1,1.4c-1.1,0.9-2.4,1.6-3.8,2.1
	C-168.3,275.9-168.4,275.9-168.5,275.9L-168.5,275.9z M-163.1,271.7c-0.2,0-0.3,0-0.5-0.1c-0.5-0.3-0.6-0.9-0.4-1.4
	c0.6-1,0.9-2.1,1-3.4c0-0.6,0.5-0.9,1.1-0.9s1,0.5,0.9,1.1c-0.1,1.5-0.5,2.9-1.2,4.2C-162.5,271.5-162.8,271.7-163.1,271.7
	L-163.1,271.7z M-184.6,271c-0.4,0-0.8-0.2-0.9-0.6c-0.3-0.8-0.5-1.6-0.5-2.5v-0.2c0-0.6,0.1-1.2,0.2-1.8c0.1-0.5,0.6-0.9,1.2-0.8
	c0.5,0.1,0.9,0.6,0.8,1.2c-0.1,0.5-0.1,0.9-0.1,1.4v0.2c0,0.6,0.1,1.2,0.4,1.7c0.2,0.5,0,1.1-0.5,1.3
	C-184.3,271-184.4,271-184.6,271L-184.6,271z M-162.3,264.9c-0.5,0-0.8-0.3-0.9-0.7v-0.1c-0.3-1.2-0.7-2.2-1.4-3.1
	c-0.3-0.4-0.3-1.1,0.2-1.4c0.4-0.3,1.1-0.3,1.4,0.2c0.9,1.1,1.5,2.4,1.8,3.9c0.1,0.5-0.2,1.1-0.8,1.2
	C-162.1,264.9-162.2,264.9-162.3,264.9L-162.3,264.9z M-183.8,264.3c-0.2,0-0.3,0-0.5-0.1c-0.5-0.3-0.6-0.9-0.4-1.4
	c0.7-1.2,1.7-2.3,2.9-3.3c0.4-0.4,1.1-0.3,1.4,0.1c0.4,0.4,0.3,1.1-0.1,1.4c-1,0.8-1.8,1.7-2.4,2.7
	C-183.1,264.1-183.4,264.3-183.8,264.3L-183.8,264.3z M-178.6,259.7c-0.4,0-0.7-0.2-0.9-0.5c-0.3-0.5-0.1-1.1,0.4-1.3
	c1.3-0.7,2.6-1.1,4-1.5c0.7-0.2,1.4-0.3,2.2-0.3c0.6-0.1,1,0.4,1.1,0.9c0,0.6-0.4,1-0.9,1.1c-0.6,0.1-1.3,0.1-1.9,0.3
	c-1.2,0.3-2.4,0.7-3.5,1.3C-178.3,259.6-178.5,259.7-178.6,259.7L-178.6,259.7z M-166.1,259.4c-0.2,0-0.3,0-0.5-0.1
	c-1-0.6-2.1-1-3.4-1.1c-0.5-0.1-0.9-0.6-0.8-1.1c0.1-0.6,0.6-0.9,1.1-0.9c1.5,0.2,2.9,0.7,4.1,1.4c0.5,0.3,0.6,0.9,0.3,1.4
	C-165.4,259.2-165.8,259.4-166.1,259.4L-166.1,259.4z"/>
<path id="Fill-1_4_" sketch:type="MSShapeGroup" class="st0" d="M-176.9,363.9c-0.1-0.3-0.1-0.6-0.1-0.9c0-2.2,1.8-4,4-4
	c0.3,0,0.6,0,0.9,0.1l1.7-1.7c-0.8-0.3-1.7-0.4-2.6-0.4c-5,0-8.2,4.3-10,6c0.9,0.8,2,2.2,3.6,3.4L-176.9,363.9z M-166.6,359.6
	l-2.5,2.6c0.1,0.3,0.1,0.6,0.1,0.9c0,2.2-1.8,4-4,4c-0.3,0-0.6,0-0.9-0.1l-1.7,1.7c0.8,0.3,1.7,0.4,2.6,0.4c5,0,8.2-4.3,10-6
	C-163.9,362.2-165,360.8-166.6,359.6z M-166,355l-15,15l1,1l15-15L-166,355z"/>
<path id="Path-Copy-3" sketch:type="MSShapeGroup" class="st0" d="M-173-107v-2h2v-2h-2v-2l-4,3L-173-107z"/>
<path id="Imported-Layers-Copy-3_1_" sketch:type="MSShapeGroup" class="st11" d="M-181,717c-1.1,0-2,0.9-2,2v12c0,1.1,0.9,2,2,2h16
	c1.1,0,2-0.9,2-2v-12c0-1.1-0.9-2-2-2H-181z M-164.7,718l-7.9,8.9c-0.2,0.2-0.5,0.2-0.7,0l-7.9-8.9c0.1,0,0.2,0,0.3,0h16
	C-164.9,718-164.8,718-164.7,718z M-165,732h-16c-0.6,0-1-0.4-1-1v-12c0-0.1,0-0.2,0-0.3l7.9,8.9c0.3,0.3,0.7,0.4,1.1,0.4
	s0.8-0.1,1.1-0.4l7.9-8.9c0,0.1,0,0.2,0,0.3v12C-164,731.6-164.4,732-165,732z"/>
<path id="Fill-9-Copy-10" sketch:type="MSShapeGroup" class="st9" d="M-181,685c0,4.4,3.6,8,8,8s8-3.6,8-8s-3.6-8-8-8
	S-181,680.6-181,685L-181,685z M-178,684h10v2h-10V684z"/>
<path id="Imported-Layers-Copy-2_1_" sketch:type="MSShapeGroup" class="st11" d="M40.2,575.2L-64.7,402.9c-1.6-2.6-5.3-2.6-6.8,0
	l-104.9,172.3c-1.6,2.7,0.3,6.1,3.4,6.1H36.8C39.9,581.3,41.8,577.9,40.2,575.2L40.2,575.2z M-173,577.3L-68.1,405L36.8,577.3H-173
	L-173,577.3z"/>
<g id="Fill-1-_x2B_-Fill-2-_x2B_-Fill-3-Copy" transform="translate(0.000000, 589.000000)" sketch:type="MSLayerGroup">
	<path id="Fill-1_6_" sketch:type="MSShapeGroup" class="st0" d="M-176.7,410.6v-0.2c0-0.8,0.6-1.2,1.2-1.2h0.2l3.1-3.2
		c-0.1,0-0.3,0-0.4,0c-2.4,0-4.6,0.6-6.9,1.3c-2.1,0.6-3,2.4-2.4,4.6c0.2,0.8,0.6,1.2,1.4,1.1l1.5-0.2L-176.7,410.6z"/>
	<path id="Fill-2_4_" sketch:type="MSShapeGroup" class="st0" d="M-166.9,406.9l-2.3,2.3c0.4,0.1,0.8,0.5,0.8,1.2
		c0,1.9,0.4,2.2,1.6,2.4c0.4,0.1,1.8,0.2,2.2,0.2c0.8,0.1,1.2-0.3,1.4-1.1c0.5-2.2-0.3-4-2.4-4.6C-166,407.1-166.4,407-166.9,406.9z
		"/>
	<path id="Fill-3_2_" sketch:type="MSShapeGroup" class="st0" d="M-164.3,401.3c-0.5-0.4-1.2-0.4-1.7,0l-14.7,14.7
		c-0.4,0.4-0.4,1.2,0,1.6c0.2,0.2,0.5,0.3,0.8,0.3s0.6-0.1,0.8-0.3l14.7-14.7C-163.9,402.5-163.9,401.8-164.3,401.3z"/>
</g>
<g id="Fill-1-_x2B_-Fill-2-Copy-2" transform="translate(1.000000, 530.000000)" sketch:type="MSLayerGroup">
	<path id="Fill-1_5_" sketch:type="MSShapeGroup" class="st0" d="M-177.3,412.3c-1.7-1.7-3-3.8-4.1-6c-1.1-2-0.5-3.9,1.5-5.1
		c0.7-0.4,1.3-0.4,1.8,0.2c0.2,0.3,1.2,1.4,1.4,1.8c0.8,1,0.8,1.6-0.6,2.9c-0.6,0.6-0.4,1.3,0,1.7l4.3,4.3c0.4,0.4,1.2,0.6,1.7,0
		c1.4-1.4,2-1.4,3-0.6c0.3,0.2,1.4,1.2,1.8,1.4c0.6,0.5,0.7,1.1,0.2,1.8c-1.2,2-3,2.6-5.1,1.5C-173.5,415.3-175.6,414.1-177.3,412.3
		"/>
	<path id="Fill-2_3_" sketch:type="MSShapeGroup" class="st0" d="M-168.8,406.2l-3.4,3.4l-2.5-2.5l3.4-3.4l-1.8-1.8h6v6
		L-168.8,406.2z"/>
</g>
<path id="Imported-Layers-5-Copy" sketch:type="MSShapeGroup" class="st0" d="M-172.5,887c2.4,0,4.6,0.6,6.9,1.3
	c2.1,0.6,3,2.4,2.4,4.6c-0.2,0.8-0.6,1.2-1.4,1.1c-0.4,0-1.8-0.2-2.2-0.2c-1.2-0.2-1.6-0.4-1.6-2.4c0-0.8-0.6-1.2-1.2-1.2h-5.9
	c-0.6,0-1.2,0.4-1.2,1.2c0,1.9-0.4,2.2-1.6,2.4c-0.4,0.1-1.8,0.2-2.2,0.2c-0.8,0.1-1.2-0.3-1.4-1.1c-0.5-2.2,0.3-4,2.4-4.6
	C-177.1,887.6-174.9,887-172.5,887"/>
<g id="reload-copy-7" transform="translate(1.000000, 235.000000)" sketch:type="MSLayerGroup">
	<path id="Fill-13" sketch:type="MSShapeGroup" class="st11" d="M-181.3,409.1c0.5,0.1,1-0.2,1.1-0.6c0.7-2.8,3.2-4.7,6-4.7
		c2.4,0,4.7,1.4,5.7,3.7l-1.7,0.9l3.8,1.4l1.4-3.8l-1.8,0.8c-1.3-2.9-4.2-4.7-7.3-4.7c-3.7,0-6.8,2.5-7.8,6
		C-182.1,408.5-181.8,408.9-181.3,409.1"/>
	<path id="Fill-14" sketch:type="MSShapeGroup" class="st11" d="M-167.9,411.6c-0.7,2.7-3.2,4.7-6,4.7c-2.4,0-4.7-1.4-5.7-3.7
		l1.7-0.9l-3.8-1.4l-1.4,3.8l1.8-0.8c1.3,2.9,4.2,4.7,7.3,4.7c3.7,0,6.8-2.5,7.7-6c0.1-0.5-0.2-1-0.6-1.1S-167.8,411.1-167.9,411.6z
		"/>
</g>
<path id="Imported-Layers-3-Copy" sketch:type="MSShapeGroup" class="st0" d="M-176.3,844.3c-1.7-1.7-3-3.8-4.1-6
	c-1.1-2-0.5-3.9,1.5-5.1c0.7-0.4,1.3-0.4,1.8,0.2c0.2,0.3,1.2,1.4,1.4,1.8c0.8,1,0.8,1.6-0.6,3c-0.6,0.6-0.4,1.3,0,1.7l4.3,4.3
	c0.4,0.4,1.2,0.6,1.7,0c1.4-1.4,2-1.4,2.9-0.6c0.3,0.2,1.4,1.2,1.8,1.4c0.6,0.5,0.7,1.1,0.2,1.8c-1.2,2-3,2.6-5.1,1.5
	C-172.5,847.3-174.6,846.1-176.3,844.3"/>
<path id="Fill-53-Copy-3" sketch:type="MSShapeGroup" class="st6" d="M-177.7,787.7c-0.9-0.9-1.5-1.9-2.1-3c-0.6-1-0.3-1.9,0.8-2.5
	c0.4-0.2,0.6-0.2,0.9,0.1c0.1,0.2,0.6,0.7,0.7,0.9c0.4,0.5,0.4,0.8-0.3,1.5c-0.3,0.3-0.2,0.6,0,0.9l2.2,2.2c0.2,0.2,0.6,0.3,0.9,0
	c0.7-0.7,1-0.7,1.5-0.3c0.2,0.1,0.7,0.6,0.9,0.7c0.3,0.3,0.3,0.6,0.1,0.9c-0.6,1-1.5,1.3-2.5,0.8
	C-175.8,789.1-176.8,788.5-177.7,787.7L-177.7,787.7z"/>
<path id="Fill-1_7_" sketch:type="MSShapeGroup" class="st11" d="M-181,1066h14v9h-14V1066z M-167,1064h-14c-1.1,0-2,0.9-2,2v9
	c0,1.1,0.9,2,2,2h4v1l-4,1v1h14v-1l-4-1v-1h4c1.1,0,2-0.9,2-2v-9C-165,1064.9-165.9,1064-167,1064L-167,1064z M-166,1075
	c0,0.6-0.4,1-1,1h-14c-0.6,0-1-0.4-1-1v-9c0-0.6,0.4-1,1-1h14c0.6,0,1,0.4,1,1V1075L-166,1075z"/>
<path class="st17" d="M-36.6,1205.4l-17.9-17.9c-0.3-0.3-0.4-0.9-0.1-1.3c2.9-4.1,4.6-9.2,4.5-14.6c-0.2-13.4-11-24.3-24.4-24.6
	c-14.2-0.3-25.7,11.3-25.4,25.4c0.3,13.4,11.2,24.3,24.6,24.4c5.4,0.1,10.5-1.6,14.6-4.5c0.4-0.3,0.9-0.2,1.3,0.1l17.9,17.9
	c0.8,0.8,2,0.8,2.8,0l2.2-2.2C-35.8,1207.5-35.8,1206.2-36.6,1205.4z M-75.1,1192.4c-11.3,0-20.4-9.2-20.4-20.4s9.2-20.4,20.4-20.4
	c11.3,0,20.4,9.2,20.4,20.4S-63.8,1192.4-75.1,1192.4z"/>
<path id="Fill-2-Copy-2" sketch:type="MSShapeGroup" class="st11" d="M-168.7,1255.1c-0.2-0.2-0.6-0.3-0.9-0.1l-0.9-0.9
	c0.8-1.1,1.3-2.5,1.3-4.1c0-3.8-3.1-6.9-6.9-6.9c-3.8,0-6.9,3.1-6.9,6.9s3.1,6.9,6.9,6.9c1.5,0,2.9-0.5,4.1-1.3l0.9,0.9
	c-0.1,0.3-0.1,0.6,0.1,0.9l3.5,3.5c0.3,0.3,0.8,0.3,1.1,0l1.2-1.2c0.3-0.3,0.3-0.8,0-1.1L-168.7,1255.1z M-181,1250c0-2.8,2.2-5,5-5
	s5,2.2,5,5s-2.2,5-5,5S-181,1252.8-181,1250L-181,1250z"/>
<path class="st11" d="M-174,1283c-5,0-9,4-9,9s4,9,9,9s9-4,9-9S-169,1283-174,1283z M-174,1297l-5-5l1-1l3,3v-7h2v7l3-3l1,1
	L-174,1297z"/>
<g id="Imported-Layers-5-Copy_1_" transform="translate(2.000000, 179.000000)" sketch:type="MSLayerGroup">
	<path id="Fill-1_9_" sketch:type="MSShapeGroup" class="st11" d="M-177.9,1154.9c1.4,1.4,4.4,1.5,5.9,0.1l2.9-2.9
		c1.6-1.6,1.5-4.2-0.1-5.9c-1.6-1.7-4.3-1.7-5.9-0.1l-2.3,2.3c0.8,0,1.7,0.1,2.5,0.5l1.2-1.2c0.8-0.8,2.1-0.8,2.9,0.1
		c0.8,0.8,0.8,2.1,0.1,2.9l-2.9,2.9c-0.8,0.8-2.4,0.5-3.4,0.5L-177.9,1154.9"/>
	<path id="Fill-2_6_" sketch:type="MSShapeGroup" class="st11" d="M-174.1,1151.1c-1.4-1.4-4.5-1.5-5.9-0.1l-2.9,2.9
		c-1.6,1.6-1.5,4.2,0.1,5.9c1.6,1.7,4.3,1.7,5.9,0.1l2.3-2.3c-0.8,0-1.7-0.1-2.5-0.5l-1.2,1.2c-0.8,0.8-2.1,0.8-2.9-0.1
		c-0.8-0.8-0.8-2.1-0.1-2.9l2.9-2.9c0.6-0.6,1.5-0.5,3.4-0.5l0,0L-174.1,1151.1"/>
</g>
<path id="Fill-2-Copy-3" sketch:type="MSShapeGroup" class="st0" d="M-168.7,1375.1c-0.2-0.2-0.6-0.3-0.9-0.1l-0.9-0.9
	c0.8-1.1,1.3-2.5,1.3-4.1c0-3.8-3.1-6.9-6.9-6.9c-3.8,0-6.9,3.1-6.9,6.9s3.1,6.9,6.9,6.9c1.5,0,2.9-0.5,4.1-1.3l0.9,0.9
	c-0.1,0.3-0.1,0.6,0.1,0.9l3.5,3.5c0.3,0.3,0.8,0.3,1.1,0l1.2-1.2c0.3-0.3,0.3-0.8,0-1.1L-168.7,1375.1z M-181,1370c0-2.8,2.2-5,5-5
	s5,2.2,5,5s-2.2,5-5,5S-181,1372.8-181,1370L-181,1370z"/>
<path class="st0" d="M-174,1403c-5,0-9,4-9,9s4,9,9,9s9-4,9-9S-169,1403-174,1403z M-174,1417l-5-5l1-1l3,3v-7h2v7l3-3l1,1
	L-174,1417z"/>
<g id="Imported-Layers-5-Copy-2" transform="translate(2.000000, 299.000000)" sketch:type="MSLayerGroup">
	<path id="Fill-1_8_" sketch:type="MSShapeGroup" class="st0" d="M-177.9,1154.9c1.4,1.4,4.4,1.5,5.9,0.1l2.9-2.9
		c1.6-1.6,1.5-4.2-0.1-5.9c-1.6-1.7-4.3-1.7-5.9-0.1l-2.3,2.3c0.8,0,1.7,0.1,2.5,0.5l1.2-1.2c0.8-0.8,2.1-0.8,2.9,0.1
		c0.8,0.8,0.8,2.1,0.1,2.9l-2.9,2.9c-0.8,0.8-2.4,0.5-3.4,0.5L-177.9,1154.9"/>
	<path id="Fill-2_5_" sketch:type="MSShapeGroup" class="st0" d="M-174.1,1151.1c-1.4-1.4-4.5-1.5-5.9-0.1l-2.9,2.9
		c-1.6,1.6-1.5,4.2,0.1,5.9c1.6,1.7,4.3,1.7,5.9,0.1l2.3-2.3c-0.8,0-1.7-0.1-2.5-0.5l-1.2,1.2c-0.8,0.8-2.1,0.8-2.9-0.1
		c-0.8-0.8-0.8-2.1-0.1-2.9l2.9-2.9c0.6-0.6,1.5-0.5,3.4-0.5l0,0L-174.1,1151.1"/>
</g>
<path class="st0" d="M-174-328c-5,0-9,4-9,9s4,9,9,9s9-4,9-9S-169-328-174-328z M-170-318l-3-3v7h-2v-7l-3,3l-1-1l5-5l5,5L-170-318z
	"/>
<path class="st4" d="M-174,1493c-5,0-9,4-9,9s4,9,9,9s9-4,9-9S-169,1493-174,1493z M-174,1507l-5-5l1-1l3,3v-7h2v7l3-3l1,1
	L-174,1507z"/>
<g id="Imported-Layers-5-Copy_2_" transform="translate(2.000000, 179.000000)" sketch:type="MSLayerGroup">
	<path id="Fill-1_10_" sketch:type="MSShapeGroup" class="st4" d="M-177.9,1364.9c1.4,1.4,4.4,1.5,5.9,0.1l2.9-2.9
		c1.6-1.6,1.5-4.2-0.1-5.9c-1.6-1.7-4.3-1.7-5.9-0.1l-2.3,2.3c0.8,0,1.7,0.1,2.5,0.5l1.2-1.2c0.8-0.8,2.1-0.8,2.9,0.1
		c0.8,0.8,0.8,2.1,0.1,2.9l-2.9,2.9c-0.8,0.8-2.4,0.5-3.4,0.5L-177.9,1364.9"/>
	<path id="Fill-2_7_" sketch:type="MSShapeGroup" class="st4" d="M-174.1,1361.1c-1.4-1.4-4.5-1.5-5.9-0.1l-2.9,2.9
		c-1.6,1.6-1.5,4.2,0.1,5.9c1.6,1.7,4.3,1.7,5.9,0.1l2.3-2.3c-0.8,0-1.7-0.1-2.5-0.5l-1.2,1.2c-0.8,0.8-2.1,0.8-2.9-0.1
		c-0.8-0.8-0.8-2.1-0.1-2.9l2.9-2.9c0.6-0.6,1.5-0.5,3.4-0.5l0,0L-174.1,1361.1"/>
</g>
<g id="ic_chat_1_" transform="translate(4.000000, 1744.000000)" sketch:type="MSLayerGroup">
	<path id="Fill-80_1_" sketch:type="MSShapeGroup" class="st17" d="M-169.1-75.2c-0.5-0.1-0.8-0.5-0.8-0.9c0-0.1,0.1-0.2,0.1-0.2
		c1-0.6,1.8-1.5,1.8-2.6c0.1-2.3-2.1-4.1-4.3-4.7c0.1,1.7-0.4,3.3-1.4,4.6c-0.9,1.1-2.2,1.9-3.7,2.4c0.8,0.7,1.9,1.2,3.1,1.2
		c0.7,0.1,1.5,0,2.2-0.1c0.8,0.6,2,0.7,2.9,0.6C-168.8-75-168.9-75.2-169.1-75.2"/>
	<path id="Fill-81_1_" sketch:type="MSShapeGroup" class="st0" d="M-173.9-84.8c-0.8-3.6-4.4-4.7-7.8-4c-3.2,0.7-6.4,3.1-6.3,6.4
		c0,1.5,1,2.7,2.4,3.5c0.1,0.1,0.2,0.2,0.2,0.3c0,0.6-0.5,1.1-1.1,1.2c-0.3,0.1-0.4,0.2,0,0.3c1.3,0.1,2.8,0,3.9-0.8
		c1,0.1,2,0.2,2.9,0.1C-175.7-78-173-80.9-173.9-84.8"/>
</g>
<path id="Fill-57-Copy-2" sketch:type="MSShapeGroup" class="st11" d="M-183,1702c0,5,4,9,9,9s9-4,9-9s-4-9-9-9S-183,1697-183,1702
	L-183,1702z M-175,1697h2v4h4v2h-4v4h-2v-4h-4v-2h4V1697L-175,1697z"/>
<path id="Fill-57-Copy-2_1_" sketch:type="MSShapeGroup" class="st0" d="M-183,1742c0,5,4,9,9,9s9-4,9-9s-4-9-9-9
	S-183,1737-183,1742L-183,1742z M-175,1737h2v4h4v2h-4v4h-2v-4h-4v-2h4V1737L-175,1737z"/>
<g id="ic_chat_2_" transform="translate(4.000000, 1744.000000)" sketch:type="MSLayerGroup">
	<path id="Fill-80_2_" sketch:type="MSShapeGroup" class="st18" d="M-169.1-155.2c-0.5-0.1-0.8-0.5-0.8-0.9c0-0.1,0.1-0.2,0.1-0.2
		c1-0.6,1.8-1.5,1.8-2.6c0.1-2.3-2.1-4.1-4.3-4.7c0.1,1.7-0.4,3.3-1.4,4.6c-0.9,1.1-2.2,1.9-3.7,2.4c0.8,0.7,1.9,1.2,3.1,1.2
		c0.7,0.1,1.5,0,2.2-0.1c0.8,0.6,2,0.7,2.9,0.6C-168.8-155-168.9-155.2-169.1-155.2"/>
	<path id="Fill-81_2_" sketch:type="MSShapeGroup" class="st4" d="M-173.9-164.8c-0.8-3.6-4.4-4.7-7.8-4c-3.2,0.7-6.4,3.1-6.3,6.4
		c0,1.5,1,2.7,2.4,3.5c0.1,0.1,0.2,0.2,0.2,0.3c0,0.6-0.5,1.1-1.1,1.2c-0.3,0.1-0.4,0.2,0,0.3c1.3,0.1,2.8,0,3.9-0.8
		c1,0.1,2,0.2,2.9,0.1C-175.7-158-173-160.9-173.9-164.8"/>
</g>
<g id="Imported-Layers-Copy_2_" transform="translate(42.000000, 4230.000000)" sketch:type="MSLayerGroup" class="st3">
	<g id="Imported-Layers_5_" sketch:type="MSShapeGroup">
		<path id="Fill-1_16_" class="st4" d="M-186-2466c4.4,0,8,3.6,8,8s-3.6,8-8,8s-8-3.6-8-8S-190.4-2466-186-2466 M-186-2468
			c-5.5,0-10,4.5-10,10s4.5,10,10,10s10-4.5,10-10S-180.5-2468-186-2468"/>
		<path id="Fill-2_9_" class="st5" d="M-181.2-2456c-0.5,2.3-2.5,4-4.9,4s-4.4-1.7-4.9-4H-181.2 M-180-2457h-12.2l0.2,1.2
			c0.6,2.8,3,4.8,5.9,4.8c2.8,0,5.3-2,5.9-4.8L-180-2457"/>
		<path id="Fill-3_4_" class="st4" d="M-181-2456c-0.5,2.3-2.5,4-5,4s-4.5-1.7-5-4H-181 M-192-2457v1.2c0.6,2.8,3.1,4.8,6,4.8
			s5.4-2,6-4.8v-1.2H-192"/>
		<path id="Fill-4_3_" class="st4" d="M-180-2459.5c0,0.8-0.7,1.5-1.5,1.5s-1.5-0.7-1.5-1.5s0.7-1.5,1.5-1.5S-180-2460.3-180-2459.5
			"/>
		<path id="Fill-5_3_" class="st4" d="M-189-2459.5c0,0.8-0.7,1.5-1.5,1.5s-1.5-0.7-1.5-1.5s0.7-1.5,1.5-1.5S-189-2460.3-189-2459.5
			"/>
		<path id="Fill-6_3_" class="st4" d="M-182-2453h-8l-1-2h10L-182-2453"/>
	</g>
</g>
<g id="Imported-Layers-Copy_1_" transform="translate(42.000000, 4280.000000)" sketch:type="MSLayerGroup">
	<g id="Imported-Layers_4_" sketch:type="MSShapeGroup">
		<path id="Fill-1_15_" class="st0" d="M-186-2486c4.4,0,8,3.6,8,8s-3.6,8-8,8s-8-3.6-8-8S-190.4-2486-186-2486 M-186-2488
			c-5.5,0-10,4.5-10,10s4.5,10,10,10s10-4.5,10-10S-180.5-2488-186-2488"/>
		<path id="Fill-2_8_" class="st5" d="M-181.2-2476c-0.5,2.3-2.5,4-4.9,4s-4.4-1.7-4.9-4H-181.2 M-180-2477h-12.2l0.2,1.2
			c0.6,2.8,3,4.8,5.9,4.8c2.8,0,5.3-2,5.9-4.8L-180-2477"/>
		<path id="Fill-3_3_" class="st0" d="M-181-2476c-0.5,2.3-2.5,4-5,4s-4.5-1.7-5-4H-181 M-192-2477v1.2c0.6,2.8,3.1,4.8,6,4.8
			s5.4-2,6-4.8v-1.2H-192"/>
		<path id="Fill-4_2_" class="st0" d="M-180-2479.5c0,0.8-0.7,1.5-1.5,1.5s-1.5-0.7-1.5-1.5s0.7-1.5,1.5-1.5S-180-2480.3-180-2479.5
			"/>
		<path id="Fill-5_2_" class="st0" d="M-189-2479.5c0,0.8-0.7,1.5-1.5,1.5s-1.5-0.7-1.5-1.5s0.7-1.5,1.5-1.5S-189-2480.3-189-2479.5
			"/>
		<path id="Fill-6_2_" class="st0" d="M-182-2473h-8l-1-2h10L-182-2473"/>
	</g>
</g>
<path id="Fill-1_14_" sketch:type="MSShapeGroup" class="st0" d="M-173,1801v-3h-2v3c0,1.1,0.9,2,2,2h5v-2H-173 M-174,1792
	c-5.5,0-10,4.5-10,10s4.5,10,10,10s10-4.5,10-10S-168.5,1792-174,1792L-174,1792z M-174,1810c-4.4,0-8-3.6-8-8s3.6-8,8-8s8,3.6,8,8
	S-169.6,1810-174,1810L-174,1810z"/>
<path id="Fill-1_13_" sketch:type="MSShapeGroup" class="st0" d="M-114,1797c-2.8,0-5,2.2-5,5s2.2,5,5,5s5-2.2,5-5
	S-111.2,1797-114,1797L-114,1797z M-114,1805c-1.7,0-3-1.3-3-3s1.3-3,3-3s3,1.3,3,3S-112.3,1805-114,1805z M-121,1802
	c0-0.3,0-0.7,0.1-1h-4.1v2h4.1C-121,1802.7-121,1802.3-121,1802z M-113,1795.1v-4.1h-2v4.1c0.3,0,0.7-0.1,1-0.1
	S-113.3,1795-113,1795.1z M-107.1,1801c0,0.3,0.1,0.7,0.1,1s0,0.7-0.1,1h4.1v-2H-107.1z M-115,1808.9v4.1h2v-4.1
	c-0.3,0-0.7,0.1-1,0.1S-114.7,1809-115,1808.9z M-119.6,1806.2l-2.9,2.9l1.4,1.4l2.9-2.9c-0.3-0.2-0.5-0.4-0.8-0.7
	C-119.2,1806.7-119.4,1806.5-119.6,1806.2z M-118.9,1797c0.2-0.2,0.5-0.5,0.8-0.7l-2.9-2.9l-1.4,1.4l2.9,2.9
	C-119.4,1797.5-119.2,1797.3-118.9,1797z M-108.4,1797.8l2.9-2.9l-1.4-1.4l-2.9,2.9c0.3,0.2,0.5,0.4,0.8,0.7
	C-108.8,1797.3-108.6,1797.5-108.4,1797.8z M-109.1,1806.9c-0.2,0.2-0.5,0.5-0.8,0.7l2.9,2.9l1.4-1.4l-2.9-2.9
	C-108.6,1806.5-108.8,1806.7-109.1,1806.9z"/>
<path id="Fill-10" sketch:type="MSShapeGroup" class="st0" d="M-88,1796l4,4l4-4H-88 M-73,1793h-22l10,10v6c0,0.6-0.4,1-1,1h-3v1h10
	v-1h-3c-0.6,0-1-0.4-1-1v-6L-73,1793L-73,1793z M-92,1794h16l-7,7h-2L-92,1794L-92,1794z"/>
<path id="Fill-12" sketch:type="MSShapeGroup" class="st0" d="M-63,1804h8v8h-8V1804z M-64,1799h9v4h-9V1799z M-53,1799h9v4h-9V1799
	z M-53,1804h8v8h-8V1804z M-58,1792c-1.7,0-3,1.3-3,3s1.3,3,3,3h3v-3C-55,1793.3-56.3,1792-58,1792z M-56,1797h-1.5
	c-0.8,0-1.5-0.7-1.5-1.5s0.7-1.5,1.5-1.5s1.5,0.7,1.5,1.5V1797z M-47,1795c0-1.7-1.3-3-3-3s-3,1.3-3,3v3h3
	C-48.3,1798-47,1796.7-47,1795z M-52,1797v-1.5c0-0.8,0.7-1.5,1.5-1.5s1.5,0.7,1.5,1.5s-0.7,1.5-1.5,1.5H-52L-52,1797z"/>
<path id="Fill-18" sketch:type="MSShapeGroup" class="st0" d="M-26.6,1801c0-1,0.6-1.7,1.5-2.1l0,0c-0.9-0.4-1.2-1.1-1.2-1.8
	c0-1.2,1-2.1,2.4-2.1c1.5,0,2.3,0.9,2.3,1.9c0,0.7-0.3,1.4-1.3,1.8l0,0c1,0.4,1.6,1.1,1.6,2c0,1.4-1.2,2.3-2.7,2.3
	C-25.6,1803.1-26.6,1802.2-26.6,1801L-26.6,1801z M-25.3,1797.1c0,0.8,0.6,1.2,1.5,1.4c0.7-0.2,1.2-0.7,1.2-1.4
	c0-0.6-0.4-1.3-1.3-1.3C-24.8,1795.8-25.3,1796.4-25.3,1797.1L-25.3,1797.1z M-22.4,1801c0-0.9-0.7-1.4-1.7-1.7
	c-0.9,0.3-1.4,0.9-1.4,1.6c0,0.8,0.6,1.5,1.6,1.5C-23,1802.4-22.4,1801.8-22.4,1801L-22.4,1801z M-24,1792c-5.5,0-10,4.5-10,10
	s4.5,10,10,10s10-4.5,10-10S-18.5,1792-24,1792L-24,1792z M-24,1804c-2.8,0-5-2.2-5-5s2.2-5,5-5s5,2.2,5,5S-21.2,1804-24,1804
	L-24,1804z"/>
<path id="Fill-20" sketch:type="MSShapeGroup" class="st0" d="M6,1792c-5.5,0-10,4.5-10,10s4.5,10,10,10s10-4.5,10-10
	S11.5,1792,6,1792z M7.6,1796.9h0.2l-0.1,0.2H8l-0.1,0.2l0.5,0.5h0.2v0.3l-0.5,0.1l-0.3,0.1L8,1798h0.1v-0.1H7.8v-0.2H8v-0.2H7.8
	l-0.2-0.3L7.6,1796.9L7.6,1796.9z M7.2,1797.6h0.2v-0.1h0.3l0.1,0.1l-0.1,0.1l0.1,0.1l-0.4,0.2l-0.1-0.1l0.1-0.2L7.2,1797.6
	L7.2,1797.6L7.2,1797.6z M3.9,1793.9l0.2-0.1l0.5,0.1l-0.2,0.1l-0.1,0.1l-0.4,0.1H3.7H3.5v0.1l-0.2,0.2l-0.4-0.1v-0.1h0.2l0.2-0.2
	l0.4-0.1H3.5v-0.1H3.9L3.9,1793.9z M3,1794l0.4-0.1l-0.3,0.2l-0.3,0.1L3,1794L3,1794z M2.7,1794.3v0.2l0.2,0.1l-0.2,0.1l-0.3-0.1
	L2.7,1794.3L2.7,1794.3z M2.3,1794.5l-0.1,0.2h0.4l-0.2,0.3l-0.5-0.2L2.3,1794.5L2.3,1794.5z M1.5,1795.1l0.4-0.2l0.2,0.1l-0.1,0.3
	l0.2-0.1l0.2,0.2l0.2,0.4l-0.2,0.2l0.2,0.2l0.1,0.2l-0.4,0.3l-0.1-0.3l-0.2,0.1l0.1,0.4l-0.1,0.2l-0.1-0.2H1.7l0.1,0.2v0.2l-0.3-0.2
	l-0.1-0.3H1.1l0.2-0.1h0.6v-0.2l0.1-0.2l-0.2-0.6l-0.3,0.2l-0.3-0.2L1.5,1795.1L1.5,1795.1z M0.4,1795.2c0.3-0.2,0.5-0.4,0.8-0.6
	l-0.2,0.2h0.2l-0.4,0.3l-0.1,0.2l-0.2,0.1L0.4,1795.2L0.4,1795.2L0.4,1795.2z M4.2,1807.9l-0.1,0.2H4l0.1,0.5L4,1809H3.7l-0.4,0.2
	l0.1,0.2l-0.1,0.5H3l0.2,0.1v0.1H3v0.2l0.2,0.1l0.2,0.2l0.5,0.2c-0.3-0.1-0.5-0.1-0.8-0.2l-0.3-0.2l-0.6-0.5l-0.9-1l-0.5-0.7
	l-0.5-0.3l-1.1-1.2v-0.2l-0.1-0.1l0.1-0.5l-0.2-0.6v-0.4v-0.1v-0.1v-0.1v0.1l-0.1-0.1h-0.1l-0.2-0.3l-0.1-0.2l-0.3-0.3l-0.5-0.5
	h-0.1l-0.3-0.4l-0.1-1.1l0,0c0-2.6,1.2-5,3-6.6l-0.1,0.1l0.1,0.1l0.1-0.1l0.2,0.2l0.3-0.1l0.2-0.2v-0.2l0.4-0.2l-0.2,0.3l-0.1,0.1
	l-0.1,0.2v0.2l0.4-0.3v-0.1l0.2,0.2l-0.4,0.3H0.9l-0.2,0.2l-0.3,0.2l-0.2,0.1l-0.2,0.2l-0.5,0.4l0.1,0.2l-0.2,0.2l0.2,0.1l0.1,0.3
	l0.2,0.1l-0.2,0.5l0.1,0.2l0.2-0.1l0.1-0.4l0.3-0.1l0.2-0.2v-0.2l0.2-0.2l0.2-0.4h0.1h0.1l0.2,0.1l0.1,0.2h0.1l-0.1,0.4l0.1,0.1
	l0.2-0.1l0.2-0.2l0.2,0.5l-0.1,0.1l0.2,0.2l0.3,0.1l-0.4,0.2h0.3l0.2,0.1v0.2l-0.3,0.1l-0.2,0.2l-0.9-0.1l-0.6,0.5l0.5-0.2h0.2
	l-0.2,0.1l0.1,0.3l0.4,0.2l-0.6,0.3l0.2-0.3c-0.1,0-0.6,0.2-0.6,0.2l-0.2,0.2l-0.1,0.2l-0.4,0.1v0.2l0,0l0.1,0.2v0.3l-0.4,0.2
	l-0.5,0.3L-1,1802v0.6l-0.3-0.4v-0.3l-0.2-0.1l-0.4-0.2v0.2l-0.3-0.1l-0.2,0.2l-0.1,0.8l0.2,0.6l0.1,0.2l0.2-0.1v-0.3h0.3l-0.1,0.7
	l0.4,0.1l0.1,0.7l0.3,0.3h0.2l0.2,0.2l0.1,0.4h0.1v-0.2h0.1l0.5,0.2h0.3l0.3,0.2l-0.1,0.1H1l0.3,0.3l0.5,0.1l0.5,0.6l-0.2,0.3
	l0.4,0.1l0.2-0.2l0.4,0.2v0.1l0.2-0.1l0.2,0.1h0.3l0.3,0.3l0.2,0.1l0.2,0.3L4.2,1807.9L4.2,1807.9z M0.9,1796.3v0.3H0.7l-0.2-0.1
	l0.2-0.2L0.9,1796.3L0.9,1796.3z M2.6,1799.2l-0.2,0.2l-0.6-0.1l0.5-0.5L2.6,1799.2L2.6,1799.2z M0.6,1803.8H0.4v-0.1L0.6,1803.8
	L0.6,1803.8L0.6,1803.8z M0.2,1803.7h-0.4l-0.1-0.2H0L0.2,1803.7L0.2,1803.7z M-0.4,1803.3h-0.4l-0.5-0.4l-0.2,0.1v-0.1h0.2
	L-0.4,1803.3L-0.4,1803.3z M5.8,1795h0.3l-0.1,0.2l-0.3,0.3H5.6l-0.1,0.3l-0.3,0.2l-0.1-0.1l-0.3,0.3l0.1,0.1l-0.3,0.3v0.2l-0.1,0.3
	l-0.3,0.1l-0.1-0.2l-0.3,0.1l-0.3-0.3l-0.1-0.4h0.2l-0.1-0.1l-0.1,0.1v-0.3l0.2-0.1l0.3-0.5v-0.3l-0.2,0.1l0.2-0.2l0.2-0.5l-0.2-0.1
	l0.1-0.1l0.2-0.1l0.4-0.2l0.3-0.2l0.4,0.1l0.3,0.1h0.3l-0.1,0.1l0.2,0.2v0.2H5.8l0.2,0.1h0.2l0.1,0.1H5.9L5.8,1795L5.8,1795z
	 M3.5,1795.4l0.2-0.1v0.2L3.5,1795.4L3.5,1795.4L3.5,1795.4z M14.6,1802.2l-0.4,0.7l-0.1-0.1l-0.2-0.8l-0.6-1v-0.2l-0.1,0.1
	l-0.2-0.2l0.4,0.8l0.4,1.1l0.2,0.2l0.1,0.4l0.4-0.3l-0.2,0.8l-0.4,0.8l-0.6,1l-0.1,0.6l-0.2,0.6l-0.7,0.5v0.1l-0.1,0.4l-0.3,0.2v0.2
	l-1.2,0.8l-0.6,0.1l-0.1-0.1l0.2-0.3l-0.1-0.5l0.1-0.4l-0.1-0.5l0.6-0.5l0.3-0.5v-0.3l-0.7-0.6l0.1-0.2v-0.4l-0.2-0.2l-0.5,0.1v-0.2
	l-0.2-0.1l-0.6,0.3H8.5l-0.7,0.2l-0.8-0.5v-0.2l-0.3-0.3H6.6l-0.2-0.4l0.1-0.2l0.1-0.6l-0.1-0.2l0.5-1l0.1-0.2v-0.2l0.8-0.6h0.6
	l0.6-0.2l1.2-0.2l0.2,0.2l-0.1,0.4h0.5l0.8,0.4l0.1-0.4l1,0.1l0.5-0.1l-0.1-0.8l-0.3,0.1l-0.2-0.1v0.2l-0.4-0.3l-0.1-0.4H12
	l-0.2,0.1l0.1,0.2l0.2,0.2L12,1800h-0.2l-0.1-0.3l-0.2-0.2v-0.2l-0.5-0.2l-0.3-0.2v-0.1l-0.2,0.1v0.1l0.4,0.4h0.2l0.1,0.2l0.3,0.1
	v0.1l-0.1-0.1h-0.1l0.1,0.2l-0.2,0.2v0.2l-0.3-0.2h0.3l0.1-0.1l-0.1-0.2l-0.6-0.2l-0.3-0.3h-0.2l-0.1,0.2H9.8l-0.1-0.1H9.6v0.2
	l-0.2,0.1l-0.2,0.3l0,0l-0.2,0.3H8.3l-0.3,0.2l-0.2-0.1H7.6v-0.2H7.5l-0.1-0.1l0.1-0.2v-0.2l-0.1-0.1h0.1l0.1-0.1h0.8l0.1-0.3
	l-0.2-0.3H8v-0.2l0.3-0.1v-0.3h0.2l0.3-0.1l0.2-0.3l0.4-0.2l-0.2-0.2l0.2-0.1v0.1l0.1,0.3h0.2H10l0.2-0.2h0.3l0.1-0.1l-0.1-0.2h0.1
	h0.1v-0.2l-0.2-0.4l0.2-0.4h0.1l0.1,0.1l-0.3,0.1l-0.2,0.3l-0.4-0.4l0.1-0.4l-0.3-0.1v0.1l0.2,0.2l-0.2,0.3l0.1,0.2l0.2,0.1v0.2H10
	l0.1,0.2l-0.1,0.2l-0.2,0.1l-0.1-0.2l-0.3-0.3l-0.2,0.2l-0.3-0.1l-0.2-0.5l0.3-0.3l0.1-0.3l0.1-0.6l0.4-0.3l0.6,0.2l0.5,0.1l0.3,0.2
	l-0.1,0.1l-0.3-0.1l0.2,0.3l0.4,0.3h-0.1h0.2l-0.1-0.4l0.1-0.2l-0.1-0.4l0.1-0.1l-0.1-0.2l0.1-0.1v-0.1c2.2,1.4,3.7,3.7,4.1,6.4
	h-0.2l-0.1-0.2L15,1801l-0.3-0.4l-0.1,0.1l0.5,0.8l0.4-0.1v-0.3v0.3L14.6,1802.2L14.6,1802.2z"/>
<path id="Fill-23" sketch:type="MSShapeGroup" class="st0" d="M30.5,1792c-2.5,0-4.5,2-4.5,4.5s2,4.5,4.5,4.5s4.5-2,4.5-4.5
	S33,1792,30.5,1792L30.5,1792z M30.5,1799c-1.4,0-2.5-1.1-2.5-2.5s1.1-2.5,2.5-2.5s2.5,1.1,2.5,2.5S31.9,1799,30.5,1799z M41.5,1803
	c-2.5,0-4.5,2-4.5,4.5s2,4.5,4.5,4.5s4.5-2,4.5-4.5S44,1803,41.5,1803z M41.5,1810c-1.4,0-2.5-1.1-2.5-2.5s1.1-2.5,2.5-2.5
	s2.5,1.1,2.5,2.5S42.9,1810,41.5,1810z M27.7,1811.7l18-18c0.4-0.4,0.4-1,0-1.4s-1-0.4-1.4,0l-18,18c-0.4,0.4-0.4,1,0,1.4
	C26.7,1812.1,27.3,1812.1,27.7,1811.7z"/>
<path id="Fill-1_12_" sketch:type="MSShapeGroup" class="st19" d="M-173,1771v-3h-2v3c0,1.1,0.9,2,2,2h5v-2H-173 M-174,1762
	c-5.5,0-10,4.5-10,10s4.5,10,10,10s10-4.5,10-10S-168.5,1762-174,1762L-174,1762z M-174,1780c-4.4,0-8-3.6-8-8s3.6-8,8-8s8,3.6,8,8
	S-169.6,1780-174,1780L-174,1780z"/>
<path id="Fill-1_11_" sketch:type="MSShapeGroup" class="st19" d="M-114,1767c-2.8,0-5,2.2-5,5s2.2,5,5,5s5-2.2,5-5
	S-111.2,1767-114,1767L-114,1767z M-114,1775c-1.7,0-3-1.3-3-3s1.3-3,3-3s3,1.3,3,3S-112.3,1775-114,1775z M-121,1772
	c0-0.3,0-0.7,0.1-1h-4.1v2h4.1C-121,1772.7-121,1772.3-121,1772z M-113,1765.1v-4.1h-2v4.1c0.3,0,0.7-0.1,1-0.1
	S-113.3,1765-113,1765.1z M-107.1,1771c0,0.3,0.1,0.7,0.1,1s0,0.7-0.1,1h4.1v-2H-107.1z M-115,1778.9v4.1h2v-4.1
	c-0.3,0-0.7,0.1-1,0.1S-114.7,1779-115,1778.9z M-119.6,1776.2l-2.9,2.9l1.4,1.4l2.9-2.9c-0.3-0.2-0.5-0.4-0.8-0.7
	C-119.2,1776.7-119.4,1776.5-119.6,1776.2z M-118.9,1767c0.2-0.2,0.5-0.5,0.8-0.7l-2.9-2.9l-1.4,1.4l2.9,2.9
	C-119.4,1767.5-119.2,1767.3-118.9,1767z M-108.4,1767.8l2.9-2.9l-1.4-1.4l-2.9,2.9c0.3,0.2,0.5,0.4,0.8,0.7
	C-108.8,1767.3-108.6,1767.5-108.4,1767.8z M-109.1,1776.9c-0.2,0.2-0.5,0.5-0.8,0.7l2.9,2.9l1.4-1.4l-2.9-2.9
	C-108.6,1776.5-108.8,1776.7-109.1,1776.9z"/>
<path id="Fill-10_1_" sketch:type="MSShapeGroup" class="st19" d="M-88,1766l4,4l4-4H-88 M-73,1763h-22l10,10v6c0,0.6-0.4,1-1,1h-3
	v1h10v-1h-3c-0.6,0-1-0.4-1-1v-6L-73,1763L-73,1763z M-92,1764h16l-7,7h-2L-92,1764L-92,1764z"/>
<path id="Fill-12_1_" sketch:type="MSShapeGroup" class="st19" d="M-63,1774h8v8h-8V1774z M-64,1769h9v4h-9V1769z M-53,1769h9v4h-9
	V1769z M-53,1774h8v8h-8V1774z M-58,1762c-1.7,0-3,1.3-3,3s1.3,3,3,3h3v-3C-55,1763.3-56.3,1762-58,1762z M-56,1767h-1.5
	c-0.8,0-1.5-0.7-1.5-1.5s0.7-1.5,1.5-1.5s1.5,0.7,1.5,1.5V1767z M-47,1765c0-1.7-1.3-3-3-3s-3,1.3-3,3v3h3
	C-48.3,1768-47,1766.7-47,1765z M-52,1767v-1.5c0-0.8,0.7-1.5,1.5-1.5s1.5,0.7,1.5,1.5s-0.7,1.5-1.5,1.5H-52L-52,1767z"/>
<path id="Fill-18_1_" sketch:type="MSShapeGroup" class="st19" d="M-26.6,1771c0-1,0.6-1.7,1.5-2.1l0,0c-0.9-0.4-1.2-1.1-1.2-1.8
	c0-1.2,1-2.1,2.4-2.1c1.5,0,2.3,0.9,2.3,1.9c0,0.7-0.3,1.4-1.3,1.8l0,0c1,0.4,1.6,1.1,1.6,2c0,1.4-1.2,2.3-2.7,2.3
	C-25.6,1773.1-26.6,1772.2-26.6,1771L-26.6,1771z M-25.3,1767.1c0,0.8,0.6,1.2,1.5,1.4c0.7-0.2,1.2-0.7,1.2-1.4
	c0-0.6-0.4-1.3-1.3-1.3C-24.8,1765.8-25.3,1766.4-25.3,1767.1L-25.3,1767.1z M-22.4,1771c0-0.9-0.7-1.4-1.7-1.7
	c-0.9,0.3-1.4,0.9-1.4,1.6c0,0.8,0.6,1.5,1.6,1.5C-23,1772.4-22.4,1771.8-22.4,1771L-22.4,1771z M-24,1762c-5.5,0-10,4.5-10,10
	s4.5,10,10,10s10-4.5,10-10S-18.5,1762-24,1762L-24,1762z M-24,1774c-2.8,0-5-2.2-5-5s2.2-5,5-5s5,2.2,5,5S-21.2,1774-24,1774
	L-24,1774z"/>
<path id="Fill-20_1_" sketch:type="MSShapeGroup" class="st19" d="M6,1762c-5.5,0-10,4.5-10,10s4.5,10,10,10s10-4.5,10-10
	S11.5,1762,6,1762z M7.6,1766.9h0.2l-0.1,0.2H8l-0.1,0.2l0.5,0.5h0.2v0.3l-0.5,0.1l-0.3,0.1L8,1768h0.1v-0.1H7.8v-0.2H8v-0.2H7.8
	l-0.2-0.3L7.6,1766.9L7.6,1766.9z M7.2,1767.6h0.2v-0.1h0.3l0.1,0.1l-0.1,0.1l0.1,0.1l-0.4,0.2l-0.1-0.1l0.1-0.2L7.2,1767.6
	L7.2,1767.6L7.2,1767.6z M3.9,1763.9l0.2-0.1l0.5,0.1l-0.2,0.1l-0.1,0.1l-0.4,0.1H3.7H3.5v0.1l-0.2,0.2l-0.4-0.1v-0.1h0.2l0.2-0.2
	l0.4-0.1H3.5v-0.1H3.9L3.9,1763.9z M3,1764l0.4-0.1l-0.3,0.2l-0.3,0.1L3,1764L3,1764z M2.7,1764.3v0.2l0.2,0.1l-0.2,0.1l-0.3-0.1
	L2.7,1764.3L2.7,1764.3z M2.3,1764.5l-0.1,0.2h0.4l-0.2,0.3l-0.5-0.2L2.3,1764.5L2.3,1764.5z M1.5,1765.1l0.4-0.2l0.2,0.1l-0.1,0.3
	l0.2-0.1l0.2,0.2l0.2,0.4l-0.2,0.2l0.2,0.2l0.1,0.2l-0.4,0.3l-0.1-0.3l-0.2,0.1l0.1,0.4l-0.1,0.2l-0.1-0.2H1.7l0.1,0.2v0.2l-0.3-0.2
	l-0.1-0.3H1.1l0.2-0.1h0.6v-0.2l0.1-0.2l-0.2-0.6l-0.3,0.2l-0.3-0.2L1.5,1765.1L1.5,1765.1z M0.4,1765.2c0.3-0.2,0.5-0.4,0.8-0.6
	l-0.2,0.2h0.2l-0.4,0.3l-0.1,0.2l-0.2,0.1L0.4,1765.2L0.4,1765.2L0.4,1765.2z M4.2,1777.9l-0.1,0.2H4l0.1,0.5L4,1779H3.7l-0.4,0.2
	l0.1,0.2l-0.1,0.5H3l0.2,0.1v0.1H3v0.2l0.2,0.1l0.2,0.2l0.5,0.2c-0.3-0.1-0.5-0.1-0.8-0.2l-0.3-0.2l-0.6-0.5l-0.9-1l-0.5-0.7
	l-0.5-0.3l-1.1-1.2v-0.2l-0.1-0.1l0.1-0.5l-0.2-0.6v-0.4v-0.1v-0.1v-0.1v0.1l-0.1-0.1h-0.1l-0.2-0.3l-0.1-0.2l-0.3-0.3l-0.5-0.5
	h-0.1l-0.3-0.4l-0.1-1.1l0,0c0-2.6,1.2-5,3-6.6l-0.1,0.1l0.1,0.1l0.1-0.1l0.2,0.2l0.3-0.1l0.2-0.2v-0.2l0.4-0.2l-0.2,0.3l-0.1,0.1
	l-0.1,0.2v0.2l0.4-0.3v-0.1l0.2,0.2l-0.4,0.3H0.9l-0.2,0.2l-0.3,0.2l-0.2,0.1l-0.2,0.2l-0.5,0.4l0.1,0.2l-0.2,0.2l0.2,0.1l0.1,0.3
	l0.2,0.1l-0.2,0.5l0.1,0.2l0.2-0.1l0.1-0.4l0.3-0.1l0.2-0.2v-0.2l0.2-0.2l0.2-0.4h0.1h0.1l0.2,0.1l0.1,0.2h0.1l-0.1,0.4l0.1,0.1
	l0.2-0.1l0.2-0.2l0.2,0.5l-0.1,0.1l0.2,0.2l0.3,0.1l-0.4,0.2h0.3l0.2,0.1v0.2l-0.3,0.1l-0.2,0.2l-0.9-0.1l-0.6,0.5l0.5-0.2h0.2
	l-0.2,0.1l0.1,0.3l0.4,0.2l-0.6,0.3l0.2-0.3c-0.1,0-0.6,0.2-0.6,0.2l-0.2,0.2l-0.1,0.2l-0.4,0.1v0.2l0,0l0.1,0.2v0.3l-0.4,0.2
	l-0.5,0.3L-1,1772v0.6l-0.3-0.4v-0.3l-0.2-0.1l-0.4-0.2v0.2l-0.3-0.1l-0.2,0.2l-0.1,0.8l0.2,0.6l0.1,0.2l0.2-0.1v-0.3h0.3l-0.1,0.7
	l0.4,0.1l0.1,0.7l0.3,0.3h0.2l0.2,0.2l0.1,0.4h0.1v-0.2h0.1l0.5,0.2h0.3l0.3,0.2l-0.1,0.1H1l0.3,0.3l0.5,0.1l0.5,0.6l-0.2,0.3
	l0.4,0.1l0.2-0.2l0.4,0.2v0.1l0.2-0.1l0.2,0.1h0.3l0.3,0.3l0.2,0.1l0.2,0.3L4.2,1777.9L4.2,1777.9z M0.9,1766.3v0.3H0.7l-0.2-0.1
	l0.2-0.2L0.9,1766.3L0.9,1766.3z M2.6,1769.2l-0.2,0.2l-0.6-0.1l0.5-0.5L2.6,1769.2L2.6,1769.2z M0.6,1773.8H0.4v-0.1L0.6,1773.8
	L0.6,1773.8L0.6,1773.8z M0.2,1773.7h-0.4l-0.1-0.2H0L0.2,1773.7L0.2,1773.7z M-0.4,1773.3h-0.4l-0.5-0.4l-0.2,0.1v-0.1h0.2
	L-0.4,1773.3L-0.4,1773.3z M5.8,1765h0.3l-0.1,0.2l-0.3,0.3H5.6l-0.1,0.3l-0.3,0.2l-0.1-0.1l-0.3,0.3l0.1,0.1l-0.3,0.3v0.2l-0.1,0.3
	l-0.3,0.1l-0.1-0.2l-0.3,0.1l-0.3-0.3l-0.1-0.4h0.2l-0.1-0.1l-0.1,0.1v-0.3l0.2-0.1l0.3-0.5v-0.3l-0.2,0.1l0.2-0.2l0.2-0.5l-0.2-0.1
	l0.1-0.1l0.2-0.1l0.4-0.2l0.3-0.2l0.4,0.1l0.3,0.1h0.3l-0.1,0.1l0.2,0.2v0.2H5.8l0.2,0.1h0.2l0.1,0.1H5.9L5.8,1765L5.8,1765z
	 M3.5,1765.4l0.2-0.1v0.2L3.5,1765.4L3.5,1765.4L3.5,1765.4z M14.6,1772.2l-0.4,0.7l-0.1-0.1l-0.2-0.8l-0.6-1v-0.2l-0.1,0.1
	l-0.2-0.2l0.4,0.8l0.4,1.1l0.2,0.2l0.1,0.4l0.4-0.3l-0.2,0.8l-0.4,0.8l-0.6,1l-0.1,0.6l-0.2,0.6l-0.7,0.5v0.1l-0.1,0.4l-0.3,0.2v0.2
	l-1.2,0.8l-0.6,0.1l-0.1-0.1l0.2-0.3l-0.1-0.5l0.1-0.4l-0.1-0.5l0.6-0.5l0.3-0.5v-0.3l-0.7-0.6l0.1-0.2v-0.4l-0.2-0.2l-0.5,0.1v-0.2
	l-0.2-0.1l-0.6,0.3H8.5l-0.7,0.2l-0.8-0.5v-0.2l-0.3-0.3H6.6l-0.2-0.4l0.1-0.2l0.1-0.6l-0.1-0.2l0.5-1l0.1-0.2v-0.2l0.8-0.6h0.6
	l0.6-0.2l1.2-0.2l0.2,0.2l-0.1,0.4h0.5l0.8,0.4l0.1-0.4l1,0.1l0.5-0.1l-0.1-0.8l-0.3,0.1l-0.2-0.1v0.2l-0.4-0.3l-0.1-0.4H12
	l-0.2,0.1l0.1,0.2l0.2,0.2L12,1770h-0.2l-0.1-0.3l-0.2-0.2v-0.2l-0.5-0.2l-0.3-0.2v-0.1l-0.2,0.1v0.1l0.4,0.4h0.2l0.1,0.2l0.3,0.1
	v0.1l-0.1-0.1h-0.1l0.1,0.2l-0.2,0.2v0.2l-0.3-0.2h0.3l0.1-0.1l-0.1-0.2l-0.6-0.2l-0.3-0.3h-0.2l-0.1,0.2H9.8l-0.1-0.1H9.6v0.2
	l-0.2,0.1l-0.2,0.3l0,0l-0.2,0.3H8.3l-0.3,0.2l-0.2-0.1H7.6v-0.2H7.5l-0.1-0.1l0.1-0.2v-0.2l-0.1-0.1h0.1l0.1-0.1h0.8l0.1-0.3
	l-0.2-0.3H8v-0.2l0.3-0.1v-0.3h0.2l0.3-0.1l0.2-0.3l0.4-0.2l-0.2-0.2l0.2-0.1v0.1l0.1,0.3h0.2H10l0.2-0.2h0.3l0.1-0.1l-0.1-0.2h0.1
	h0.1v-0.2l-0.2-0.4l0.2-0.4h0.1l0.1,0.1l-0.3,0.1l-0.2,0.3l-0.4-0.4l0.1-0.4l-0.3-0.1v0.1l0.2,0.2l-0.2,0.3l0.1,0.2l0.2,0.1v0.2H10
	l0.1,0.2l-0.1,0.2l-0.2,0.1l-0.1-0.2l-0.3-0.3l-0.2,0.2l-0.3-0.1l-0.2-0.5l0.3-0.3l0.1-0.3l0.1-0.6l0.4-0.3l0.6,0.2l0.5,0.1l0.3,0.2
	l-0.1,0.1l-0.3-0.1l0.2,0.3l0.4,0.3h-0.1h0.2l-0.1-0.4l0.1-0.2l-0.1-0.4l0.1-0.1l-0.1-0.2l0.1-0.1v-0.1c2.2,1.4,3.7,3.7,4.1,6.4
	h-0.2l-0.1-0.2L15,1771l-0.3-0.4l-0.1,0.1l0.5,0.8l0.4-0.1v-0.3v0.3L14.6,1772.2L14.6,1772.2z"/>
<path id="Fill-23_1_" sketch:type="MSShapeGroup" class="st19" d="M30.5,1762c-2.5,0-4.5,2-4.5,4.5s2,4.5,4.5,4.5s4.5-2,4.5-4.5
	S33,1762,30.5,1762L30.5,1762z M30.5,1769c-1.4,0-2.5-1.1-2.5-2.5s1.1-2.5,2.5-2.5s2.5,1.1,2.5,2.5S31.9,1769,30.5,1769z M41.5,1773
	c-2.5,0-4.5,2-4.5,4.5s2,4.5,4.5,4.5s4.5-2,4.5-4.5S44,1773,41.5,1773z M41.5,1780c-1.4,0-2.5-1.1-2.5-2.5s1.1-2.5,2.5-2.5
	s2.5,1.1,2.5,2.5S42.9,1780,41.5,1780z M27.7,1781.7l18-18c0.4-0.4,0.4-1,0-1.4s-1-0.4-1.4,0l-18,18c-0.4,0.4-0.4,1,0,1.4
	C26.7,1782.1,27.3,1782.1,27.7,1781.7z"/>
<g transform="translate(9.000000, 307.000000)" sketch:type="MSLayerGroup">
	<path id="Fill-1_25_" sketch:type="MSShapeGroup" class="st0" d="M-160,1804l-0.9,6.6l-7.6-6.6l-0.5,0.5l6.6,7.6l-6.6,0.9v1h10v-10
		H-160z"/>
	<path id="Fill-2_10_" sketch:type="MSShapeGroup" class="st0" d="M-157,1816v10h1l0.9-6.6l7.6,6.6l0.5-0.5l-6.6-7.6l6.6-0.9v-1
		H-157z"/>
</g>
<path id="Fill-1_24_" sketch:type="MSShapeGroup" class="st0" d="M-138,2025c0,2.2-1.8,4-4,4h-16c-2.2,0-4-1.8-4-4v-12
	c0-2.2,1.8-4,4-4h16c2.2,0,4,1.8,4,4V2025z M-142,2007h-16c-3.3,0-6,2.7-6,6v12c0,3.3,2.7,6,6,6h16c3.3,0,6-2.7,6-6v-12
	C-136,2009.7-138.7,2007-142,2007z M-126,2026.3l-6-6.1v-2.3c1.2-1.2,3.8-3.8,6-6.1V2026.3z M-126.6,2009.5
	c-2.3,2.4-5.5,5.6-6.8,6.9c-0.4,0.4-0.6,0.9-0.6,1.5v2.3c0,0.5,0.2,1.1,0.6,1.4l6.9,6.9c0.9,1,2.6,0.3,2.6-1.1v-17
	C-124,2009.2-125.6,2008.5-126.6,2009.5L-126.6,2009.5z"/>
<path id="Fill-1_23_" sketch:type="MSShapeGroup" class="st0" d="M-141,1888c0,2.8-2.2,5-5,5s-5-2.2-5-5v-8c0-2.8,2.2-5,5-5
	s5,2.2,5,5V1888z M-146,1873c-3.9,0-7,3.1-7,7v8c0,3.9,3.1,7,7,7s7-3.1,7-7v-8C-139,1876.1-142.1,1873-146,1873z M-137,1885v3
	c0,5-4,9-9,9s-9-4-9-9v-3c-1.1,0-2,0.9-2,2v1c0,5.7,4.4,10.4,10,10.9v4.1h-4c-1.1,0-2,0.9-2,2h14c0-1.1-0.9-2-2-2h-4v-4.1
	c5.6-0.5,10-5.2,10-10.9v-1C-135,1885.9-135.9,1885-137,1885z"/>
<g transform="translate(104.000000, 211.000000)" sketch:type="MSLayerGroup">
	<g id="Clip-2">
	</g>
	<path id="Fill-1_22_" sketch:type="MSShapeGroup" class="st20" d="M-254.2,1856.1h12.5c1.7,0,3.5,1.2,3.5,3.4c0,3.7,0.7,3.8,2.5,4
		c0.5,0.1,2.1,0.2,3.2,0.3l1.3,0.1c1.1,0.1,1.6-0.3,1.9-1.5c1-4-0.5-6.9-4.4-8c-4.5-1.3-9.3-2.5-14.3-2.5c-4.9,0-9.8,1.2-14.3,2.5
		c-3.9,1.1-5.5,3.9-4.4,8c0.3,1.2,0.8,1.6,1.9,1.5c0.3,0,0.7-0.1,1.3-0.1c1.2-0.1,2.7-0.2,3.2-0.3c1.7-0.2,2.5-0.3,2.5-4
		C-257.8,1857.3-255.9,1856.1-254.2,1856.1 M-230.9,1866c-0.2,0-0.3,0-0.5,0l-1.3-0.1c-1.2-0.1-2.8-0.3-3.3-0.3
		c-3.2-0.4-4.3-1.9-4.2-6c0-1.1-1-1.4-1.5-1.4h-12.5c-0.6,0-1.5,0.3-1.5,1.4c0,4.1-1,5.6-4.2,6c-0.6,0.1-2.1,0.2-3.3,0.3l-1.3,0.1
		c-1.5,0.1-3.4-0.3-4.1-3c-1.3-5.1,0.9-9,5.8-10.4c4.6-1.3,9.6-2.6,14.8-2.6s10.2,1.3,14.8,2.6c5,1.4,7.1,5.3,5.8,10.4
		C-228,1865.4-229.6,1866-230.9,1866"/>
</g>
<g id="Fill-1-_x2B_-Fill-3" transform="translate(10.000000, 146.000000)" sketch:type="MSLayerGroup">
	<path id="Fill-1_21_" sketch:type="MSShapeGroup" class="st17" d="M-149.8,1807.3l0.2,2c0.2,2.3-0.3,4.4-1.6,6.1s-3.3,2.9-5.7,3.4
		l-2.4,0.5l1.5,1.9c1.6,2,4.1,3.2,7,3.4c0.3,0,0.7,0,1.1,0c0.7,0,1.5,0,2.3-0.1c1.1,0.7,2.5,1,4.2,1c0.4,0,0.7,0,1.2,0
		c1.2-0.1,1.7-0.9,1.7-1.5c0.1-0.6-0.2-1.4-1.2-1.7c1.4-1.2,2.7-2.7,2.8-4.9c0.1-5-4.5-8.6-9.1-9.6h-0.2L-149.8,1807.3z
		 M-148.1,1809.1h0.2c4,0.9,8,3.9,7.9,8.1c-0.1,1.9-1.4,3.2-3,4.4c-0.1,0.1-0.2,0.2-0.3,0.4c0,0.8,0.6,1.3,1.3,1.5
		c0.4,0.1,0.5,0.3,0,0.4c-0.3,0-0.7,0-1.1,0c-1.4,0-2.8-0.2-3.8-1.1c-0.9,0.1-1.8,0.2-2.7,0.2c-0.3,0-0.7,0-1,0
		c-2.6-0.2-4.7-1.2-6-2.8c2.7-0.6,5-1.9,6.5-4C-148.5,1814.3-147.8,1811.8-148.1,1809.1L-148.1,1809.1z"/>
	<path id="Fill-3_7_" sketch:type="MSShapeGroup" class="st0" d="M-161.7,1802.3c-4.7,1.1-9.4,4.7-9.3,9.6c0.1,2.5,1.8,4,3.3,4.9
		c0.5,0.3,0.8,0.8,0.8,1.4s-0.1,1.1-0.4,1.5c1.2-0.1,2.4-0.4,3.3-1.1l0.3-0.3l0.4,0.1c1.8,0.2,3.2,0.3,4.5,0.2
		c3-0.2,5.6-1.5,7.1-3.5c1.4-1.9,1.9-4.3,1.3-6.9c-0.4-2.1-1.5-3.6-3.2-4.7C-155.5,1802-158.6,1801.6-161.7,1802.3 M-168.2,1821.7
		c-0.5,0-1,0-1.4-0.1c-1.2-0.1-1.4-0.9-1.4-1.1c0-0.5,0.2-1.1,1.2-1.3c0.2-0.1,0.9-0.3,1-0.8c-2.6-1.5-4.1-3.8-4.1-6.4
		c-0.1-6,5.4-10.4,10.9-11.6l0,0c3.6-0.8,7.2-0.3,9.8,1.3c2.1,1.3,3.5,3.4,4,6c0.7,3.2,0.1,6.2-1.6,8.6c-1.9,2.5-4.9,4.1-8.5,4.3
		c-1.3,0.1-2.8,0-4.5-0.2C-164.6,1821.5-166.5,1821.7-168.2,1821.7"/>
</g>
<g id="Fill-1-_x2B_-Fill-3_1_" transform="translate(90.000000, 146.000000)" sketch:type="MSLayerGroup">
	<path id="Fill-1_20_" sketch:type="MSShapeGroup" class="st21" d="M-159.8,1807.3l0.2,2c0.2,2.3-0.3,4.4-1.6,6.1s-3.3,2.9-5.7,3.4
		l-2.4,0.5l1.5,1.9c1.6,2,4.1,3.2,7,3.4c0.3,0,0.7,0,1.1,0c0.7,0,1.5,0,2.3-0.1c1.1,0.7,2.5,1,4.2,1c0.4,0,0.7,0,1.2,0
		c1.2-0.1,1.7-0.9,1.7-1.5c0.1-0.6-0.2-1.4-1.2-1.7c1.4-1.2,2.7-2.7,2.8-4.9c0.1-5-4.5-8.6-9.1-9.6h-0.2L-159.8,1807.3z
		 M-158.1,1809.1h0.2c4,0.9,8,3.9,7.9,8.1c-0.1,1.9-1.4,3.2-3,4.4c-0.1,0.1-0.2,0.2-0.3,0.4c0,0.8,0.6,1.3,1.3,1.5
		c0.4,0.1,0.5,0.3,0,0.4c-0.3,0-0.7,0-1.1,0c-1.4,0-2.8-0.2-3.8-1.1c-0.9,0.1-1.8,0.2-2.7,0.2c-0.3,0-0.7,0-1,0
		c-2.6-0.2-4.7-1.2-6-2.8c2.7-0.6,5-1.9,6.5-4C-158.5,1814.3-157.8,1811.8-158.1,1809.1L-158.1,1809.1z"/>
	<path id="Fill-3_6_" sketch:type="MSShapeGroup" class="st22" d="M-171.7,1802.3c-4.7,1.1-9.4,4.7-9.3,9.6c0.1,2.5,1.8,4,3.3,4.9
		c0.5,0.3,0.8,0.8,0.8,1.4s-0.1,1.1-0.4,1.5c1.2-0.1,2.4-0.4,3.3-1.1l0.3-0.3l0.4,0.1c1.8,0.2,3.2,0.3,4.5,0.2
		c3-0.2,5.6-1.5,7.1-3.5c1.4-1.9,1.9-4.3,1.3-6.9c-0.4-2.1-1.5-3.6-3.2-4.7C-165.5,1802-168.6,1801.6-171.7,1802.3 M-178.2,1821.7
		c-0.5,0-1,0-1.4-0.1c-1.2-0.1-1.4-0.9-1.4-1.1c0-0.5,0.2-1.1,1.2-1.3c0.2-0.1,0.9-0.3,1-0.8c-2.6-1.5-4.1-3.8-4.1-6.4
		c-0.1-6,5.4-10.4,10.9-11.6l0,0c3.6-0.8,7.2-0.3,9.8,1.3c2.1,1.3,3.5,3.4,4,6c0.7,3.2,0.1,6.2-1.6,8.6c-1.9,2.5-4.9,4.1-8.5,4.3
		c-1.3,0.1-2.8,0-4.5-0.2C-174.6,1821.5-176.5,1821.7-178.2,1821.7"/>
</g>
<path id="Fill-1_18_" sketch:type="MSShapeGroup" class="st0" d="M-56,2026.3l-6-6.1v-2.3c1.2-1.2,3.8-3.8,6-6.1V2026.3z
	 M-56.6,2009.5c-2.3,2.4-5.5,5.6-6.8,6.9c-0.4,0.4-0.6,0.9-0.6,1.5v2.3c0,0.5,0.2,1.1,0.6,1.4l6.9,6.9c0.9,1,2.6,0.3,2.6-1.1v-17
	C-54,2009.2-55.6,2008.5-56.6,2009.5z M-91.4,2027.1c-0.4-0.6-0.6-1.3-0.6-2.1v-12c0-2.2,1.8-4,4-4h14.8l2-2c-0.2,0-0.5,0-0.7,0h-16
	c-3.3,0-6,2.7-6,6v12c0,1.3,0.4,2.6,1.2,3.6L-91.4,2027.1z M-68.1,2012.3c0,0.2,0.1,0.5,0.1,0.7v12c0,2.2-1.8,4-4,4h-12.8l-2,2H-72
	c3.3,0,6-2.7,6-6v-12c0-0.8-0.2-1.6-0.5-2.3L-68.1,2012.3z"/>
<path id="Fill-7" sketch:type="MSShapeGroup" class="st20" d="M-92,2033c-0.3,0-0.5-0.1-0.7-0.3c-0.4-0.4-0.4-1,0-1.4l26-26
	c0.4-0.4,1-0.4,1.4,0s0.4,1,0,1.4l-26,26C-91.5,2032.9-91.7,2033-92,2033"/>
<path id="Fill-2-Copy_1_" sketch:type="MSShapeGroup" class="st0" d="M-71,1839l5,4v-10l-5,4V1839z M-84,1834c0-1.1,0.9-2,2-2h8
	c1.1,0,2,0.9,2,2v8c0,1.1-0.9,2-2,2h-8c-1.1,0-2-0.9-2-2V1834z"/>
<g id="Group" transform="translate(60.000000, 1.000000)" sketch:type="MSLayerGroup">
	<path id="Fill-1_17_" sketch:type="MSShapeGroup" class="st0" d="M-205,1837.5v-1.4l-4.7,4.7c0.4,0.1,0.8,0.2,1.2,0.2
		C-206.6,1841-205,1839.4-205,1837.5"/>
	<path id="Fill-3_5_" sketch:type="MSShapeGroup" class="st0" d="M-205.3,1832.1c-0.5-1.3-1.8-2.2-3.2-2.2c-1.9,0-3.5,1.6-3.5,3.5v4
		c0,0.4,0.1,0.8,0.2,1.2L-205.3,1832.1z"/>
	<path id="Fill-6_4_" sketch:type="MSShapeGroup" class="st0" d="M-204,1837.5c0,2.5-2,4.5-4.5,4.5c-0.7,0-1.3-0.2-1.9-0.4l-0.6,0.6
		c0.7,0.4,1.4,0.7,2,0.8v2h-3v1h7v-1h-3v-2c3-0.3,5-2.6,5-5.5v-1.5h-1V1837.5z"/>
	<path id="Fill-8" sketch:type="MSShapeGroup" class="st0" d="M-212.5,1839.4c-0.3-0.6-0.4-1.2-0.4-1.9v-1.5h-1v1.5
		c0,0.9,0.3,1.8,0.8,2.6L-212.5,1839.4z"/>
	<path id="Fill-10_2_" sketch:type="MSShapeGroup" class="st0" d="M-215.5,1845c-0.1,0-0.3,0-0.4-0.1c-0.2-0.2-0.2-0.5,0-0.7l13-13
		c0.2-0.2,0.5-0.2,0.7,0s0.2,0.5,0,0.7l-13,13C-215.2,1845-215.4,1845-215.5,1845"/>
</g>
<path id="Fill-10_4_" sketch:type="MSShapeGroup" class="st20" d="M-89,1904c-0.3,0-0.5-0.1-0.7-0.3c-0.4-0.4-0.4-1,0-1.4l26-26
	c0.4-0.4,1-0.4,1.4,0s0.4,1,0,1.4l-26,26C-88.5,1903.9-88.7,1904-89,1904"/>
<path id="Fill-1_27_" sketch:type="MSShapeGroup" class="st0" d="M-69,1889v-1.8l-2,2c-0.1,2.5-2.2,4.6-4.7,4.7l-1.8,1.8
	c0.5,0.1,1,0.2,1.6,0.2C-72.1,1896-69,1892.9-69,1889z M-80.7,1890.5c-0.2-0.5-0.3-1-0.3-1.5v-8c0-2.8,2.2-5,5-5
	c2.7,0,4.9,2.1,5,4.8l1.7-1.7c-0.8-2.9-3.5-5-6.7-5c-3.9,0-7,3.1-7,7v8c0,1.1,0.3,2.1,0.7,3.1L-80.7,1890.5z M-67,1889c0,5-4,9-9,9
	c-1.1,0-2.2-0.2-3.2-0.6l-1.5,1.5c1.1,0.5,2.4,0.9,3.7,1v4.1h-4c-1.1,0-2,0.9-2,2h14c0-1.1-0.9-2-2-2h-4v-4.1
	c5.6-0.5,10-5.2,10-10.9v-3h-2V1889z M-83.8,1893.5c-0.8-1.3-1.2-2.9-1.2-4.5v-3h-2v3c0,2.2,0.7,4.3,1.8,6L-83.8,1893.5z"/>
<g>
	<path id="Fill-10_3_" class="st20" d="M21.7,1902.2c-0.2,0-0.3-0.1-0.5-0.2c-0.3-0.3-0.3-0.7,0-0.9l17.1-17.1
		c0.3-0.3,0.7-0.3,0.9,0s0.3,0.7,0,0.9L22.1,1902C22,1902.1,21.8,1902.2,21.7,1902.2"/>
	<path id="Fill-1_30_" class="st0" d="M34.8,1892.3v-1.2l-1.3,1.3c-0.1,1.7-1.4,3-3.1,3.1l-1.2,1.2c0.3,0.1,0.7,0.1,1,0.1
		C32.7,1896.9,34.8,1894.9,34.8,1892.3z M27.1,1893.3c-0.1-0.3-0.2-0.6-0.2-1v-5.2c0-1.8,1.5-3.3,3.3-3.3s3.2,1.4,3.3,3.1l1.1-1.1
		c-0.6-1.9-2.3-3.3-4.4-3.3c-2.5,0-4.6,2.1-4.6,4.6v5.2c0,0.7,0.2,1.4,0.5,2L27.1,1893.3z M36.1,1892.3c0,3.3-2.6,5.9-5.9,5.9
		c-0.7,0-1.4-0.1-2.1-0.4l-1,1c0.7,0.4,1.6,0.6,2.4,0.7v2.7h-2.6c-0.7,0-1.3,0.6-1.3,1.3h9.2c0-0.7-0.6-1.3-1.3-1.3h-2.6v-2.7
		c3.7-0.3,6.6-3.4,6.6-7.2v-2h-1.3v2H36.1z M25.1,1895.3c-0.5-0.9-0.8-1.9-0.8-3v-2H23v2c0,1.4,0.4,2.8,1.2,3.9L25.1,1895.3z"/>
</g>
<path id="Fill-22" sketch:type="MSShapeGroup" class="st23" d="M-9.7,2066c3.3,0,6.5,0.8,9.7,1.7c3,0.9,4.2,3.1,3.4,6.1
	c-0.3,1.1-0.9,1.6-2,1.5c-0.5-0.1-2.5-0.2-3-0.3c-1.7-0.2-2.3-0.8-2.2-3.3c0-1.1-0.8-1.6-1.7-1.6h-8.3c-0.8,0-1.7,0.6-1.7,1.6
	c0,2.6-0.6,3.1-2.2,3.3c-0.5,0.1-2.5,0.2-3,0.3c-1.1,0.1-1.7-0.4-2-1.5c-0.8-3,0.4-5.3,3.4-6.1C-16.2,2066.8-13,2066-9.7,2066"/>
<path id="Fill-1-Copy-2" sketch:type="MSShapeGroup" class="st0" d="M20,2116v7.9h1.1l0.7-4.9l4.9,4.9l1.1-1.1l-4.9-4.9l4.9-0.7
	v-1.1L20,2116L20,2116z M36.9,2126.1l-0.7,4.9l-4.9-4.9l-1.1,1.1l4.9,4.9l-4.9,0.7v1.1H38v-7.9L36.9,2126.1L36.9,2126.1z"/>
<g id="Page-1" transform="translate(300.311475, 0.906328)" sketch:type="MSShapeGroup">
	<path id="Fill-1_29_" class="st0" d="M-312.8,2116l-0.7,5.1l-6-5.1l-0.4,0.4l5.2,5.9l-5.2,0.7v0.8h8v-7.8L-312.8,2116L-312.8,2116z
		"/>
	<path id="Fill-2_12_" class="st0" d="M-310.5,2125.4v7.8h0.8l0.7-5.1l6,5.1l0.4-0.4l-5.2-5.9l5.2-0.7v-0.8L-310.5,2125.4
		L-310.5,2125.4z"/>
</g>
<g id="Fill-80-_x2B_-Fill-81_1_" transform="translate(61.000000, 2.000000)" sketch:type="MSLayerGroup">
	<path id="Fill-80_3_" sketch:type="MSShapeGroup" class="st24" d="M-20.2,1968.1c0-0.1,0.1-0.3,0.2-0.3c1.4-0.8,2.3-1.9,2.4-3.5
		c0.1-3.1-2.7-5.5-5.7-6.3c0.1,2.3-0.5,4.4-1.9,6.1c-1.2,1.5-2.9,2.6-4.9,3.2c1.1,0.9,2.5,1.5,4.2,1.7c1,0.1,1.9,0,2.9-0.1
		c1.1,0.9,2.6,0.9,3.9,0.8c0.4,0,0.3-0.2,0-0.3C-19.8,1969.2-20.3,1968.7-20.2,1968.1z"/>
	<path id="Fill-81_3_" sketch:type="MSShapeGroup" class="st25" d="M-25.5,1956.6c-1.1-4.7-5.8-6.3-10.5-5.3
		c-4.2,0.9-8.5,4.2-8.4,8.6c0.1,2,1.3,3.6,3.2,4.6c0.1,0.1,0.3,0.2,0.3,0.4c0,0.9-0.6,1.4-1.4,1.7c-0.4,0.1-0.5,0.3,0,0.4
		c1.7,0.1,3.8,0.1,5.2-1.1c1.3,0.2,2.6,0.3,3.9,0.2C-27.9,1965.7-24.3,1961.8-25.5,1956.6"/>
</g>
<g id="Fill-80-_x2B_-Fill-81_2_" transform="translate(1.000000, 2.000000)" sketch:type="MSLayerGroup">
	<path id="Fill-80_5_" sketch:type="MSShapeGroup" class="st26" d="M-0.2,1968.1c0-0.1,0.1-0.3,0.2-0.3c1.4-0.8,2.3-1.9,2.4-3.5
		c0.1-3.1-2.7-5.5-5.7-6.3c0.1,2.3-0.5,4.4-1.9,6.1c-1.2,1.5-2.9,2.6-4.9,3.2c1.1,0.9,2.5,1.5,4.2,1.7c1,0.1,1.9,0,2.9-0.1
		c1.1,0.9,2.6,0.9,3.9,0.8c0.4,0,0.3-0.2,0-0.3C0.2,1969.2-0.3,1968.7-0.2,1968.1z"/>
	<path id="Fill-81_5_" sketch:type="MSShapeGroup" class="st27" d="M-5.5,1956.6c-1.1-4.7-5.8-6.3-10.5-5.3
		c-4.2,0.9-8.5,4.2-8.4,8.6c0.1,2,1.3,3.6,3.2,4.6c0.1,0.1,0.3,0.2,0.3,0.4c0,0.9-0.6,1.4-1.4,1.7c-0.4,0.1-0.5,0.3,0,0.4
		c1.7,0.1,3.8,0.1,5.2-1.1c1.3,0.2,2.6,0.3,3.9,0.2C-7.9,1965.7-4.3,1961.8-5.5,1956.6"/>
</g>
<path id="Fill-1_32_" class="st0" d="M-6.5,1892.3c0,1.8-1.5,3.3-3.3,3.3s-3.3-1.5-3.3-3.3v-5.2c0-1.8,1.5-3.3,3.3-3.3
	s3.3,1.5,3.3,3.3V1892.3z M-9.8,1882.5c-2.5,0-4.6,2.1-4.6,4.6v5.2c0,2.5,2.1,4.6,4.6,4.6s4.6-2.1,4.6-4.6v-5.2
	C-5.2,1884.6-7.3,1882.5-9.8,1882.5z M-3.9,1890.4v2c0,3.3-2.6,5.9-5.9,5.9s-5.9-2.6-5.9-5.9v-2c-0.7,0-1.3,0.9-1.3,2
	c0,3.8,2.9,6.9,6.6,7.2v2.7H-13c-0.7,0-1.3,0.6-1.3,1.3h9.2c0-0.7-0.6-1.3-1.3-1.3H-9v-2.7c3.7-0.3,6.6-3.4,6.6-7.2
	C-2.6,1891.3-3.5,1890.4-3.9,1890.4z"/>
<path id="Fill-1_33_" class="st0" d="M-5.9,2026.9c0,1.4-1.2,2.6-2.6,2.6H-19c-1.5,0-2.6-1.2-2.6-2.6v-7.7c0-1.4,1.2-2.6,2.6-2.6
	h10.5c1.5,0,2.6,1.2,2.6,2.6V2026.9z M-8.5,2015.3H-19c-2.2,0-4,1.7-4,3.9v7.7c0,2.1,1.8,3.9,4,3.9h10.5c2.2,0,3.9-1.7,3.9-3.9v-7.7
	C-4.6,2017-6.3,2015.3-8.5,2015.3z M2,2027.7l-3.9-3.9v-1.5c0.8-0.7,2.5-2.4,3.9-3.9V2027.7z M1.6,2016.9c-1.5,1.5-3.6,3.6-4.5,4.5
	c-0.3,0.2-0.4,0.6-0.4,0.9v1.5c0,0.3,0.1,0.7,0.4,0.9l4.5,4.5c0.6,0.6,1.7,0.2,1.7-0.7v-10.9C3.3,2016.7,2.3,2016.3,1.6,2016.9
	L1.6,2016.9z"/>
<g>
	<path id="Fill-1_34_" class="st0" d="M42.1,2027.7l-3.9-3.9v-1.5c0.8-0.7,2.5-2.4,4-3.9L42.1,2027.7L42.1,2027.7z M41.7,2016.9
		c-1.5,1.5-3.6,3.6-4.5,4.5c-0.3,0.2-0.4,0.6-0.4,0.9v1.5c0,0.3,0.1,0.7,0.4,0.9l4.5,4.5c0.6,0.6,1.7,0.2,1.7-0.7v-10.9
		C43.4,2016.7,42.3,2016.3,41.7,2016.9z M18.8,2028.2c-0.3-0.4-0.4-0.9-0.4-1.4v-7.7c0-1.4,1.2-2.6,2.6-2.6h9.7l1.3-1.3
		c-0.2,0-0.3,0-0.5,0H21c-2.2,0-4,1.7-4,3.9v7.7c0,0.9,0.3,1.7,0.8,2.3L18.8,2028.2z M34.1,2018.7c0,0.1,0,0.3,0,0.4v7.7
		c0,1.4-1.2,2.6-2.6,2.6h-8.4l-1.3,1.3h9.7c2.2,0,4-1.7,4-3.9v-7.7c0-0.5-0.1-1-0.3-1.5L34.1,2018.7z"/>
	<path id="Fill-7_2_" class="st20" d="M18.4,2032c-0.2,0-0.3-0.1-0.5-0.2c-0.3-0.3-0.3-0.7,0-0.9l17.1-16.7c0.3-0.3,0.7-0.3,0.9,0
		c0.3,0.3,0.3,0.7,0,0.9l-17.1,16.7C18.7,2031.9,18.5,2032,18.4,2032"/>
</g>
<g id="Page-1_1_" sketch:type="MSPage">
	<rect id="Rectangle-49" x="-175" y="2177" sketch:type="MSShapeGroup" class="st8" width="10" height="2">
	</rect>
</g>
<g id="Page-1_2_" sketch:type="MSPage">
	<rect id="Rectangle-49_1_" x="-135" y="2177" sketch:type="MSShapeGroup" class="st8" width="10" height="2">
	</rect>
</g>
<g id="Page-1_3_" sketch:type="MSPage">
	<rect id="Rectangle-49_2_" x="-131" y="2173" sketch:type="MSShapeGroup" class="st8" width="2" height="10">
	</rect>
</g>
<path id="Fill-1_19_" sketch:type="MSShapeGroup" class="st0" d="M-90,2111v10h1l0.9-6.6l7.6,6.6l0.5-0.5l-6.6-7.6l6.6-0.9v-1H-90z"
	/>
<path id="Fill-2_13_" sketch:type="MSShapeGroup" class="st0" d="M-69,2123l-0.9,6.6l-7.6-6.6l-0.5,0.5l6.6,7.6l-6.6,0.9v1h10v-10
	H-69z"/>
<path id="Fill-2-Copy_2_" sketch:type="MSShapeGroup" class="st6" d="M-1,1839l5,4v-10l-5,4V1839z M-14,1834c0-1.1,0.9-2,2-2h8
	c1.1,0,2,0.9,2,2v8c0,1.1-0.9,2-2,2h-8c-1.1,0-2-0.9-2-2V1834z"/>
<path id="Fill-2-Copy_3_" sketch:type="MSShapeGroup" class="st11" d="M39,1839l5,4v-10l-5,4V1839z M26,1834c0-1.1,0.9-2,2-2h8
	c1.1,0,2,0.9,2,2v8c0,1.1-0.9,2-2,2h-8c-1.1,0-2-0.9-2-2V1834z"/>
<g id="Group_1_" transform="translate(60.000000, 1.000000)" sketch:type="MSLayerGroup">
	<path id="Fill-1_26_" sketch:type="MSShapeGroup" class="st11" d="M-168,1837.5v-1.4l-4.7,4.7c0.4,0.1,0.8,0.2,1.2,0.2
		C-169.6,1841-168,1839.4-168,1837.5"/>
	<path id="Fill-3_8_" sketch:type="MSShapeGroup" class="st11" d="M-168.3,1832.1c-0.5-1.3-1.8-2.2-3.2-2.2c-1.9,0-3.5,1.6-3.5,3.5
		v4c0,0.4,0.1,0.8,0.2,1.2L-168.3,1832.1z"/>
	<path id="Fill-6_5_" sketch:type="MSShapeGroup" class="st11" d="M-167,1837.5c0,2.5-2,4.5-4.5,4.5c-0.7,0-1.3-0.2-1.9-0.4
		l-0.6,0.6c0.7,0.4,1.4,0.7,2,0.8v2h-3v1h7v-1h-3v-2c3-0.3,5-2.6,5-5.5v-1.5h-1V1837.5z"/>
	<path id="Fill-8_1_" sketch:type="MSShapeGroup" class="st11" d="M-175.5,1839.4c-0.3-0.6-0.4-1.2-0.4-1.9v-1.5h-1v1.5
		c0,0.9,0.3,1.8,0.8,2.6L-175.5,1839.4z"/>
	<path id="Fill-10_5_" sketch:type="MSShapeGroup" class="st11" d="M-178.5,1845c-0.1,0-0.3,0-0.4-0.1c-0.2-0.2-0.2-0.5,0-0.7l13-13
		c0.2-0.2,0.5-0.2,0.7,0s0.2,0.5,0,0.7l-13,13C-178.2,1845-178.4,1845-178.5,1845"/>
</g>
<g id="Page-1_4_" sketch:type="MSPage">
	<g id="Group_2_" transform="translate(1.000000, 1.000000)" sketch:type="MSLayerGroup">
		<path id="Fill-1_28_" sketch:type="MSShapeGroup" class="st6" d="M-2,2216v2l5,4v-10L-2,2216z"/>
		<path id="Fill-2_11_" sketch:type="MSShapeGroup" class="st6" d="M-12.8,2222.9c0.2,0.1,0.5,0.1,0.8,0.1h6c1.7,0,3-1.3,3-3v-6
			c0-0.3,0-0.5-0.1-0.8L-12.8,2222.9z"/>
		<path id="Fill-4_4_" sketch:type="MSShapeGroup" class="st6" d="M-5.2,2211.1c-0.2-0.1-0.5-0.1-0.8-0.1h-6c-1.7,0-3,1.3-3,3v6
			c0,0.3,0,0.5,0.1,0.8L-5.2,2211.1z"/>
		<path id="Fill-6_6_" sketch:type="MSShapeGroup" class="st6" d="M-15.5,2224c-0.1,0-0.3,0-0.4-0.1c-0.2-0.2-0.2-0.5,0-0.7l13-13
			c0.2-0.2,0.5-0.2,0.7,0s0.2,0.5,0,0.7l-13,13C-15.2,2224-15.4,2224-15.5,2224"/>
	</g>
</g>
<g id="Page-1_5_" sketch:type="MSPage">
	<g id="Group_3_" transform="translate(1.000000, 1.000000)" sketch:type="MSLayerGroup">
		<path id="Fill-1_31_" sketch:type="MSShapeGroup" class="st0" d="M-72,2216v2l5,4v-10L-72,2216z"/>
		<path id="Fill-2_14_" sketch:type="MSShapeGroup" class="st0" d="M-82.8,2222.9c0.2,0.1,0.5,0.1,0.8,0.1h6c1.6,0,3-1.3,3-3v-6
			c0-0.3,0-0.5-0.1-0.8L-82.8,2222.9z"/>
		<path id="Fill-4_5_" sketch:type="MSShapeGroup" class="st0" d="M-75.2,2211.1c-0.2-0.1-0.5-0.1-0.8-0.1h-6c-1.6,0-3,1.3-3,3v6
			c0,0.3,0,0.5,0.1,0.8L-75.2,2211.1z"/>
		<path id="Fill-6_7_" sketch:type="MSShapeGroup" class="st0" d="M-85.5,2224c-0.1,0-0.3,0-0.4-0.1c-0.2-0.2-0.2-0.5,0-0.7l13-13
			c0.2-0.2,0.5-0.2,0.7,0s0.2,0.5,0,0.7l-13,13C-85.2,2224-85.4,2224-85.5,2224"/>
	</g>
</g>
<g id="Page-1_6_" sketch:type="MSPage">
	<g id="Group_4_" transform="translate(1.000000, 1.000000)" sketch:type="MSLayerGroup">
		<path id="Fill-1_35_" sketch:type="MSShapeGroup" class="st11" d="M38,2216v2l5,4v-10L38,2216z"/>
		<path id="Fill-2_15_" sketch:type="MSShapeGroup" class="st11" d="M27.2,2222.9c0.2,0.1,0.5,0.1,0.8,0.1h6c1.7,0,3-1.3,3-3v-6
			c0-0.3,0-0.5-0.1-0.8L27.2,2222.9z"/>
		<path id="Fill-4_6_" sketch:type="MSShapeGroup" class="st11" d="M34.8,2211.1c-0.2-0.1-0.5-0.1-0.8-0.1h-6c-1.6,0-3,1.3-3,3v6
			c0,0.3,0,0.5,0.1,0.8L34.8,2211.1z"/>
		<path id="Fill-6_8_" sketch:type="MSShapeGroup" class="st11" d="M24.5,2224c-0.1,0-0.3,0-0.4-0.1c-0.2-0.2-0.2-0.5,0-0.7l13-13
			c0.2-0.2,0.5-0.2,0.7,0s0.2,0.5,0,0.7l-13,13C24.8,2224,24.6,2224,24.5,2224"/>
	</g>
</g>
<path id="Shape_4_" sketch:type="MSShapeGroup" class="st11" d="M-142.5-1076.3l4.1-1.6l-0.3,0.2l9.6-9.6c0.4-0.4,0.4-1,0-1.4
	l-0.2-0.2c-0.4-0.4-1-0.4-1.4,0l-9.6,9.6l0.2-0.3l-1.6,4.1l-0.9,0.4l-0.2-0.2L-142.5-1076.3L-142.5-1076.3z M-141-1080l9.6-9.6
	c0.8-0.8,2.1-0.8,2.8,0l0.2,0.2c0.8,0.8,0.8,2.1,0,2.8l-9.6,9.6l-5,2L-141-1080L-141-1080z"/>
<path id="Shape_3_" sketch:type="MSShapeGroup" class="st11" d="M-133.4-1087.7l3.1,3l0.7-0.7l-3.1-3L-133.4-1087.7L-133.4-1087.7z"
	/>
<path id="Shape_2_" sketch:type="MSShapeGroup" class="st11" d="M-140.4-1080.7l3.1,3l0.7-0.7l-3.1-3L-140.4-1080.7L-140.4-1080.7z"
	/>
<rect id="Rectangle-68-Copy_2_" x="-134" y="-1076" sketch:type="MSShapeGroup" class="st11" width="4" height="1">
</rect>
<rect id="Rectangle-68-Copy-2_2_" x="-128" y="-1076" sketch:type="MSShapeGroup" class="st11" width="2" height="1">
</rect>
<rect id="Rectangle-68-Copy-3_2_" x="-138" y="-1076" sketch:type="MSShapeGroup" class="st11" width="2" height="1">
</rect>
</svg>
