<?xml version="1.0" encoding="utf-8"?>
<!-- Generator: Adobe Illustrator 19.0.0, SVG Export Plug-In . SVG Version: 6.00 Build 0)  -->
<svg version="1.1" id="Layer_1" xmlns:sketch="http://www.bohemiancoding.com/sketch/ns"
	 xmlns="http://www.w3.org/2000/svg" xmlns:xlink="http://www.w3.org/1999/xlink" x="0px" y="0px" width="237px" height="3880px"
	 viewBox="-187 -1544 237 3880" style="enable-background:new -187 -1544 237 3880;" xml:space="preserve">
<style type="text/css">
	.st0{fill:#FFFFFF;}
	.st1{fill:#333333;enable-background:new    ;}
	.st2{opacity:0.6;fill:#31B500;enable-background:new    ;}
	.st3{fill:#333333;}
	.st4{fill:#2BA6DE;}
	.st5{opacity:0.5;}
	.st6{opacity:0.7;enable-background:new    ;}
	.st7{fill:#D90007;}
	.st8{fill:#111111;}
	.st9{fill:#666666;}
	.st10{fill:#E44C51;}
	.st11{fill:#777777;}
	.st12{opacity:0.3;enable-background:new    ;}
	.st13{fill:#FFA500;}
	.st14{fill:#999999;}
	.st15{opacity:0.7;fill:#D90007;enable-background:new    ;}
	.st16{opacity:0.7;fill:#FFFFFF;enable-background:new    ;}
	.st17{opacity:0.7;fill:#333333;enable-background:new    ;}
	.st18{fill:#FF333A;}
	.st19{opacity:0.7;fill:#61D2FF;enable-background:new    ;}
	.st20{fill:#61D2FF;}
	.st21{fill:none;stroke:#FF333A;stroke-width:1.5;}
	.st22{opacity:0.5;fill:none;stroke:#61D2FF;enable-background:new    ;}
	.st23{fill:none;stroke:#61D2FF;stroke-width:1.5;}
	.st24{opacity:0.5;fill:none;stroke:#FFFFFF;enable-background:new    ;}
	.st25{fill:none;stroke:#FFFFFF;stroke-width:1.5;}
	.st26{fill:#31B500;}
	.st27{opacity:0.2;fill:#FFFFFF;enable-background:new    ;}
	.st28{opacity:5.000000e-02;fill:#333333;enable-background:new    ;}
	.st29{opacity:5.000000e-02;enable-background:new    ;}
	.st30{fill:none;}
	.st31{fill:#2D2D2D;}
</style>
<title>Untitled 2</title>
<desc>Created with Sketch.</desc>
<path id="Rectangle-144-Copy-3" sketch:type="MSShapeGroup" class="st0" d="M-174-88v-7h-2v7h-7v2h7v7h2v-7h7v-2H-174z"/>
<path id="Rectangle-144-Copy-2" sketch:type="MSShapeGroup" class="st1" d="M-174-61v-7h-2v7h-7v2h7v7h2v-7h7v-2H-174z"/>
<path id="Rectangle-144-Copy-4" sketch:type="MSShapeGroup" class="st2" d="M-174-31v-7h-2v7h-7v2h7v7h2v-7h7v-2H-174z"/>
<g id="Imported-Layers-Copy" transform="translate(3.000000, 1546.000000)" sketch:type="MSLayerGroup">
	<g id="Imported-Layers" sketch:type="MSShapeGroup">
		<path id="Fill-1" class="st3" d="M-177-1542c4.4,0,8,3.6,8,8s-3.6,8-8,8s-8-3.6-8-8S-181.4-1542-177-1542 M-177-1544
			c-5.5,0-10,4.5-10,10s4.5,10,10,10s10-4.5,10-10S-171.5-1544-177-1544"/>
		<path id="Fill-2" class="st3" d="M-172.2-1532c-0.5,2.3-2.5,4-4.9,4s-4.4-1.7-4.9-4H-172.2 M-171-1533h-12.2l0.2,1.2
			c0.6,2.8,3,4.8,5.9,4.8c2.8,0,5.3-2,5.9-4.8L-171-1533"/>
		<path id="Fill-3" class="st3" d="M-172-1532c-0.5,2.3-2.5,4-5,4s-4.5-1.7-5-4H-172 M-183-1533v1.2c0.6,2.8,3.1,4.8,6,4.8
			s5.4-2,6-4.8v-1.2H-183"/>
		<path id="Fill-4" class="st3" d="M-171-1535.5c0,0.8-0.7,1.5-1.5,1.5s-1.5-0.7-1.5-1.5s0.7-1.5,1.5-1.5S-171-1536.3-171-1535.5"/>
		<path id="Fill-5" class="st3" d="M-180-1535.5c0,0.8-0.7,1.5-1.5,1.5s-1.5-0.7-1.5-1.5s0.7-1.5,1.5-1.5S-180-1536.3-180-1535.5"/>
		<path id="Fill-6" class="st3" d="M-173-1529h-8l-1-2h10L-173-1529"/>
	</g>
</g>
<path id="Imported-Layers_1_" sketch:type="MSShapeGroup" class="st4" d="M-181.2,122.7c-0.3,0-0.6,0-1,0c-0.6,0-1-0.5-0.9-1.1
	c0-0.5,0.4-0.9,0.9-0.9c-0.1-0.3,0-0.7,0.2-0.9c0.1-0.1,0.1-0.2,0.2-0.4c-0.6-0.3-1.1-0.8-1.6-1.2c-0.4-0.4-0.4-1-0.1-1.4
	c0.4-0.4,1-0.4,1.4-0.1c0.4,0.4,0.9,0.7,1.5,1.1c0.5,0.4,0.8,0.8,0.8,1.4v0.1c0,0.5-0.1,1-0.4,1.4c0.7-0.1,1.2-0.2,1.8-0.3
	c0.5-0.2,1.1,0.1,1.2,0.7c0.2,0.5-0.1,1.1-0.7,1.2C-178.9,122.6-179.9,122.7-181.2,122.7L-181.2,122.7z M-172.8,121.6
	c-0.9,0-1.8-0.1-2.8-0.2c-0.5-0.1-0.9-0.6-0.9-1.1c0.1-0.5,0.6-1,1.1-0.9c1.4,0.2,2.6,0.2,3.7,0.1l0.2,1l0.1,1
	C-171.9,121.6-172.4,121.6-172.8,121.6L-172.8,121.6z M-168.5,120.9c-0.4,0-0.8-0.3-1-0.7c-0.2-0.5,0.1-1.1,0.6-1.3
	c1.2-0.4,2.3-1,3.1-1.7c0.4-0.4,1.1-0.3,1.4,0.1c0.4,0.4,0.3,1.1-0.1,1.4c-1.1,0.9-2.4,1.6-3.8,2.1
	C-168.3,120.9-168.4,120.9-168.5,120.9L-168.5,120.9z M-163.1,116.7c-0.2,0-0.3,0-0.5-0.1c-0.5-0.3-0.6-0.9-0.4-1.4
	c0.6-1,0.9-2.1,1-3.4c0-0.6,0.5-0.9,1.1-0.9s1,0.5,0.9,1.1c-0.1,1.5-0.5,2.9-1.2,4.2C-162.5,116.5-162.8,116.7-163.1,116.7
	L-163.1,116.7z M-184.6,116c-0.4,0-0.8-0.2-0.9-0.6c-0.3-0.8-0.5-1.6-0.5-2.5v-0.2c0-0.6,0.1-1.2,0.2-1.8c0.1-0.5,0.6-0.9,1.2-0.8
	c0.5,0.1,0.9,0.6,0.8,1.2c-0.1,0.5-0.1,0.9-0.1,1.4v0.2c0,0.6,0.1,1.2,0.4,1.7c0.2,0.5,0,1.1-0.5,1.3
	C-184.3,116-184.4,116-184.6,116L-184.6,116z M-162.3,109.9c-0.5,0-0.8-0.3-0.9-0.7v-0.1c-0.3-1.2-0.7-2.2-1.4-3.1
	c-0.3-0.4-0.3-1.1,0.2-1.4c0.4-0.3,1.1-0.3,1.4,0.2c0.9,1.1,1.5,2.4,1.8,3.9c0.1,0.5-0.2,1.1-0.8,1.2
	C-162.1,109.9-162.2,109.9-162.3,109.9L-162.3,109.9z M-183.8,109.3c-0.2,0-0.3,0-0.5-0.1c-0.5-0.3-0.6-0.9-0.4-1.4
	c0.7-1.2,1.7-2.3,2.9-3.3c0.4-0.4,1.1-0.3,1.4,0.1c0.4,0.4,0.3,1.1-0.1,1.4c-1,0.8-1.8,1.7-2.4,2.7
	C-183.1,109.1-183.4,109.3-183.8,109.3L-183.8,109.3z M-178.6,104.7c-0.4,0-0.7-0.2-0.9-0.5c-0.3-0.5-0.1-1.1,0.4-1.3
	c1.3-0.7,2.6-1.1,4-1.5c0.7-0.2,1.4-0.3,2.2-0.3c0.6-0.1,1,0.4,1.1,0.9c0,0.6-0.4,1-0.9,1.1c-0.6,0.1-1.3,0.1-1.9,0.3
	c-1.2,0.3-2.4,0.7-3.5,1.3C-178.3,104.6-178.5,104.7-178.6,104.7L-178.6,104.7z M-166.1,104.4c-0.2,0-0.3,0-0.5-0.1
	c-1-0.6-2.1-1-3.4-1.1c-0.5-0.1-0.9-0.6-0.8-1.1c0.1-0.6,0.6-0.9,1.1-0.9c1.5,0.2,2.9,0.7,4.1,1.4c0.5,0.3,0.6,0.9,0.3,1.4
	C-165.4,104.2-165.8,104.4-166.1,104.4L-166.1,104.4z"/>
<g id="ic_chat" transform="translate(4.000000, 1744.000000)" sketch:type="MSLayerGroup" class="st5">
	<path id="Fill-80" sketch:type="MSShapeGroup" class="st6" d="M-169.1-220.2c-0.5-0.1-0.8-0.5-0.8-0.9c0-0.1,0.1-0.2,0.1-0.2
		c1-0.6,1.8-1.5,1.8-2.6c0.1-2.3-2.1-4.1-4.3-4.7c0.1,1.7-0.4,3.3-1.4,4.6c-0.9,1.1-2.2,1.9-3.7,2.4c0.8,0.7,1.9,1.2,3.1,1.2
		c0.7,0.1,1.5,0,2.2-0.1c0.8,0.6,2,0.7,2.9,0.6C-168.8-220-168.9-220.2-169.1-220.2"/>
	<path id="Fill-81" sketch:type="MSShapeGroup" d="M-173.9-229.8c-0.8-3.6-4.4-4.7-7.8-4c-3.2,0.7-6.4,3.1-6.3,6.4
		c0,1.5,1,2.7,2.4,3.5c0.1,0.1,0.2,0.2,0.2,0.3c0,0.6-0.5,1.1-1.1,1.2c-0.3,0.1-0.4,0.2,0,0.3c1.3,0.1,2.8,0,3.9-0.8
		c1,0.1,2,0.2,2.9,0.1C-175.7-223-173-225.9-173.9-229.8"/>
</g>
<path id="Fill-57-Copy" sketch:type="MSShapeGroup" class="st3" d="M-181-1424c0,4.4,3.6,8,8,8s8-3.6,8-8s-3.6-8-8-8
	S-181-1428.4-181-1424L-181-1424z M-174-1429h2v4h4v2h-4v4h-2v-4h-4v-2h4V-1429L-174-1429z"/>
<path id="Fill-9-Copy-9" sketch:type="MSShapeGroup" class="st7" d="M-181-1316c0,4.4,3.6,8,8,8s8-3.6,8-8s-3.6-8-8-8
	S-181-1320.4-181-1316L-181-1316z M-178-1317h10v2h-10V-1317z"/>
<path id="ic_cloud-copy" sketch:type="MSShapeGroup" class="st3" d="M-183-1269.4c0,2.4,1.8,4.4,4.1,4.4h11.8c2.3,0,4.1-2,4.1-4.4
	s-1.7-4.3-3.9-4.4l0,0c0-2.8-2.1-5.2-4.8-5.2c-1.7,0-3.2,1-4.1,2.4c-0.3-0.1-0.6-0.2-0.9-0.2c-1.3,0-2.4,1.1-2.4,2.5
	c0,0.2,0,0.3,0,0.4C-181.2-1273.7-183-1271.8-183-1269.4"/>
<path id="Fill-1_1_" sketch:type="MSShapeGroup" class="st3" d="M-180-1235h14v9h-14V-1235z M-166-1237h-14c-1.1,0-2,0.9-2,2v9
	c0,1.1,0.9,2,2,2h4v1l-4,1v1h14v-1l-4-1v-1h4c1.1,0,2-0.9,2-2v-9C-164-1236.1-164.9-1237-166-1237L-166-1237z M-165-1226
	c0,0.5-0.4,1-1,1h-14c-0.6,0-1-0.5-1-1v-9c0-0.5,0.4-1,1-1h14c0.6,0,1,0.5,1,1V-1226L-165-1226z"/>
<g id="Fill-1-_x2B_-Fill-2" transform="translate(11.000000, 181.000000)" sketch:type="MSLayerGroup">
	<path id="Fill-1_2_" sketch:type="MSShapeGroup" class="st3" d="M-176.9-1526h-14.2c-0.5,0-0.9-0.4-0.9-0.9v-10.1h16v10.1
		C-176-1526.4-176.4-1526-176.9-1526z M-178.1-1529.9c-0.1-0.1-1.2-0.6-1.5-0.7c0,0,0-0.2-0.1-0.2s-0.2-0.1-0.2-0.1v-0.1v-0.1
		c0,0,0.1-0.2,0.1-0.3c0-0.1,0.1-0.3,0.1-0.3l0.1-0.1c0.1,0,0.2-0.5,0.2-0.5c0-0.2,0-0.1,0-0.2v-0.4c0-0.5-0.5-0.9-1.1-0.9l0,0
		c-0.5,0-1.1,0.3-1.1,0.9v0.4c0,0.1,0,0,0,0.2c0,0,0.1,0.5,0.2,0.5c0,0,0.1,0,0.1,0.1c0,0,0,0.2,0.1,0.3c0,0.1,0.1,0.2,0.1,0.3
		c0,0,0,0,0,0.1v0.1l-0.2,0.1c-0.1,0-0.1,0.2-0.1,0.2h-0.1c0.5,0.2,1.2,0.6,1.3,0.7c0,0,0.2,0.2,0.2,0.9h1.6c0.1,0,0.3-0.1,0.3-0.2
		v-0.1C-178-1529.3-178-1529.8-178.1-1529.9z M-186.6-1530.6c0,0,0-0.2-0.1-0.2s-0.2-0.1-0.2-0.1v-0.1v-0.1c0,0,0.1-0.2,0.1-0.3
		c0-0.1,0.1-0.3,0.1-0.3l0.1-0.1c0.1,0,0.2-0.5,0.2-0.5c0-0.2,0-0.1,0-0.2v-0.4c0-0.5-0.5-0.9-1.1-0.9l0,0c-0.5,0-1.1,0.3-1.1,0.9
		v0.4c0,0.1,0,0,0,0.2c0,0,0.1,0.5,0.2,0.5c0,0,0.1,0,0.1,0.1c0,0,0,0.2,0.1,0.3c0,0.1,0.1,0.2,0.1,0.3c0,0,0,0,0,0.1v0.1l-0.2,0.1
		c-0.1,0-0.1,0.2-0.1,0.2c-0.2,0.1-1.3,0.6-1.5,0.7c-0.1,0.1-0.1,0.6-0.1,0.6v0.1c0,0.1,0.2,0.2,0.3,0.2h1.6c0-0.7,0.1-0.8,0.2-0.9
		C-187.8-1530-187.1-1530.3-186.6-1530.6L-186.6-1530.6z M-182.8-1530.7c0-0.1,0-0.3-0.1-0.3s-0.3-0.1-0.3-0.1v-0.1
		c0-0.1,0-0.1,0-0.1c0-0.1,0.2-0.2,0.2-0.3c0-0.1,0.1-0.4,0.1-0.4c0-0.1,0.1-0.1,0.2-0.1c0.1-0.1,0.2-0.7,0.2-0.7
		c0-0.2-0.1-0.1-0.1-0.3v-0.6c0-0.7-0.6-1.1-1.3-1.1l0,0c-0.7,0-1.3,0.4-1.3,1.1v0.6c0,0.2-0.1,0.1-0.1,0.3c0,0,0.1,0.7,0.2,0.7
		c0.1,0,0.2,0.1,0.2,0.1s0,0.3,0.1,0.4c0,0.1,0.2,0.3,0.2,0.3v0.1c0,0.1,0,0.1,0,0.1s-0.2,0.1-0.3,0.1s-0.1,0.2-0.1,0.3
		c-0.3,0.1-1.8,0.8-1.9,0.9c-0.1,0.1-0.1,0.9-0.1,0.9v0.1c0,0.2,0.2,0.9,0.3,0.9h5.8c0.2,0,0.3-0.7,0.3-0.9v-0.1c0,0,0-0.7-0.1-0.9
		C-181-1530-182.5-1530.7-182.8-1530.7z"/>
	<path id="Fill-2_1_" sketch:type="MSShapeGroup" class="st8" d="M-185.9-1540c0.3,0,0.5,0.1,0.7,0.3l0.9,0.9c0.6,0.7,1,0.8,1.3,0.8
		h6c0.6,0,1,0.4,1,1h-16v-2c0-0.6,0.4-1,1-1L-185.9-1540z"/>
</g>
<path id="Fill-53-Copy" sketch:type="MSShapeGroup" class="st3" d="M-176.3-1492.7c-1.7-1.7-3-3.8-4.1-6c-1.1-2-0.5-3.9,1.5-5.1
	c0.7-0.4,1.3-0.4,1.8,0.2c0.2,0.3,1.2,1.4,1.4,1.8c0.8,1,0.8,1.6-0.6,2.9c-0.6,0.6-0.4,1.3,0,1.7l4.3,4.3c0.4,0.4,1.2,0.6,1.7,0
	c1.4-1.4,2-1.4,2.9-0.6c0.3,0.2,1.4,1.2,1.8,1.4c0.6,0.5,0.7,1.1,0.2,1.8c-1.2,2-3,2.6-5.1,1.5
	C-172.5-1489.7-174.6-1490.9-176.3-1492.7L-176.3-1492.7z"/>
<path class="st3" d="M-173-1396c-4.4,0-8,3.6-8,8s3.6,8,8,8s8-3.6,8-8S-168.6-1396-173-1396z M-169-1387l-3-3v7h-2v-7l-3,3l-1-1l5-5
	l5,5L-169-1387z"/>
<path id="Fill-2-Copy" sketch:type="MSShapeGroup" class="st3" d="M-168-1459l5,4v-10l-5,4V-1459z M-181-1464c0-1.1,0.9-2,2-2h8
	c1.1,0,2,0.9,2,2v8c0,1.1-0.9,2-2,2h-8c-1.1,0-2-0.9-2-2V-1464z"/>
<path id="Fill-37" sketch:type="MSShapeGroup" class="st0" d="M-178-185l1.4-1.3l1.7,1.7l3.5-3.3l1.4,1.3l-4.9,4.7L-178-185"/>
<path id="ic_search-copy" sketch:type="MSShapeGroup" class="st9" d="M-164.2-241.1l-3-3c-0.2-0.2-0.5-0.2-0.8-0.1l-1.2-1.2
	c0.7-1,1.2-2.2,1.2-3.5c0-3.3-2.7-6-6-6s-6,2.7-6,6s2.7,6,6,6c1.3,0,2.5-0.4,3.5-1.2l1.2,1.2c-0.1,0.3-0.1,0.5,0.1,0.7l3,3
	c0.3,0.2,0.7,0.2,0.9,0l1-1C-163.9-240.5-163.9-240.9-164.2-241.1L-164.2-241.1z M-178-249c0-2.2,1.8-4,4-4s4,1.8,4,4s-1.8,4-4,4
	S-178-246.8-178-249L-178-249z"/>
<path id="Rectangle-144-Copy-3_1_" sketch:type="MSShapeGroup" class="st10" d="M-172.6-1072l4.9-4.9l-1.4-1.4l-4.9,5l-4.9-5
	l-1.4,1.4l5,4.9l-5,4.9l1.4,1.4l4.9-5l4.9,5l1.4-1.4L-172.6-1072z"/>
<path id="Rectangle-138-Copy-4" sketch:type="MSShapeGroup" class="st11" d="M-173-1146h2v-4h-4v3v3h2V-1146z M-179-1146h2v-4h-4v3
	v3h2V-1146L-179-1146z"/>
<path id="Rectangle-144-Copy-7" sketch:type="MSShapeGroup" class="st3" d="M-172.6-1106l4.9-4.9l-1.4-1.4l-4.9,4.9l-4.9-4.9
	l-1.4,1.4l5,4.9l-5,5l1.4,1.4l4.9-5l4.9,5l1.4-1.4L-172.6-1106z"/>
<path id="Fill-5-Copy" sketch:type="MSShapeGroup" class="st3" d="M-171.1-1035.4c0-0.1-0.1-0.7-0.3-0.8c-0.2-0.1-0.8-0.4-0.8-0.4
	s-0.1-0.2-0.1-0.3s0.1-0.3,0.1-0.3c0.1-0.2,0.4-0.5,0.4-0.8c0.1-0.3,0.2-1,0.2-1c0-0.2,0.2-0.2,0.4-0.3c0.3-0.1,0.5-1.7,0.5-1.7
	c0-0.5-0.2-0.3-0.2-0.7v-1.4c0-1.7-1.4-2.8-3.1-2.8h-0.1c-1.7,0-3.1,1.1-3.1,2.8v1.4c0,0.4-0.2,0.1-0.2,0.7c0,0,0.2,1.6,0.5,1.7
	c0.1,0.1,0.4,0.1,0.4,0.3c0,0,0.1,0.8,0.2,1c0.1,0.3,0.4,0.7,0.4,0.8c0,0,0.1,0.1,0.1,0.3c0,0.1-0.1,0.3-0.1,0.3s-0.6,0.3-0.8,0.4
	c-0.2,0.1-0.3,0.6-0.3,0.8c-0.7,0.2-4.3,1.9-4.8,2.3c-0.3,0.3-0.3,2.1-0.3,2.1v0.2c0,0.4,0.3,0.8,0.8,0.8h14.5
	c0.4,0,0.8-0.3,0.8-0.8v-0.2c0,0,0-1.8-0.3-2.1C-166.7-1033.5-170.4-1035.2-171.1-1035.4z"/>
<path id="Imported-Layers-Copy-2" sketch:type="MSShapeGroup" class="st3" d="M-172.7-1009c-0.7,0-1.4,0.1-2.2,0.2
	c-0.3,0.1-0.4,0.3-0.4,0.6c0,0.2,0.3,0.4,0.5,0.4h0.1c0.4-0.1,0.8-0.1,1.1-0.2l0,0l0,0c0,0,0,0,0.1,0l0,0l0,0l0,0l0,0l0,0l0,0l0,0
	l0,0l0,0l0,0l0,0l0,0l0,0l0,0l0,0l0,0l0,0l0,0l0,0l0,0l0,0l0,0l0,0l0,0l0,0l0,0l0,0l0,0l0,0l0,0l0,0l0,0l0,0l0,0l0,0l0,0l0,0l0,0
	l0,0l0,0l0,0l0,0l0,0l0,0l0,0l0,0l0,0l0,0l0,0l0,0l0,0l0,0l0,0l0,0l0,0l0,0l0,0l0,0l0,0l0,0l0,0l0,0l0,0l0,0l0,0l0,0l0,0l0,0l0,0
	l0,0l0,0l0,0l0,0l0,0l0,0l0,0l0,0l0,0l0,0l0,0l0,0l0,0l0,0l0,0l0,0l0,0l0,0l0,0l0,0l0,0l0,0l0,0l0,0l0,0l0,0l0,0l0,0l0,0l0,0l0,0
	l0,0l0,0l0,0l0,0l0,0l0,0l0,0l0,0l0,0l0,0l0,0l0,0l0,0l0,0l0,0l0,0l0,0l0,0l0,0l0,0l0,0l0,0l0,0l0,0l0,0l0,0l0,0l0,0l0,0l0,0l0,0
	l0,0l0,0l0,0l0,0l0,0l0,0l0,0l0,0l0,0l0,0l0,0l0,0l0,0l0,0l0,0l0,0l0,0l0,0l0,0l0,0l0,0l0,0l0,0l0,0l0,0l0,0c0,0,0,0,0.1,0
	c0,0,0,0,0.1,0c0.2,0,0.4,0,0.6,0l0,0l0,0l0,0l0,0l0,0l0,0l0,0l0,0l0,0l0,0l0,0l0,0l0,0l0,0l0,0l0,0l0,0l0,0l0,0l0,0l0,0l0,0l0,0
	l0,0l0,0l0,0l0,0l0,0l0,0l0,0l0,0l0,0l0,0l0,0l0,0l0,0l0,0l0,0l0,0l0,0l0,0l0,0l0,0l0,0l0,0l0,0l0,0l0,0l0,0l0,0l0,0l0,0l0,0l0,0
	l0,0l0,0l0,0l0,0l0,0l0,0l0,0l0,0l0,0l0,0l0,0l0,0l0,0l0,0l0,0l0,0l0,0l0,0l0,0l0,0l0,0l0,0l0,0l0,0l0,0l0,0l0,0l0,0l0,0l0,0l0,0
	l0,0l0,0l0,0l0,0l0,0l0,0c0.3,0,0.6,0.1,0.9,0.2h0.1c0.2,0,0.4-0.1,0.5-0.4c0.1-0.3-0.1-0.5-0.4-0.6c-0.7-0.2-1.4-0.3-2.2-0.3l0,0
	C-172.6-1009-172.7-1009-172.7-1009L-172.7-1009L-172.7-1009z M-176.8-1008.2c-0.1,0-0.1,0-0.2,0c-0.7,0.3-1.3,0.6-1.9,1
	c-0.2,0.1-0.3,0.5-0.2,0.7c0.1,0.1,0.3,0.2,0.4,0.2c0.1,0,0.2,0,0.3-0.1c0.3-0.2,0.7-0.4,1.1-0.6l0,0l0,0l0,0l0,0l0,0l0,0l0,0l0,0
	l0,0l0,0l0,0l0,0l0,0l0,0l0,0l0,0l0,0l0,0l0,0l0,0l0,0l0,0l0,0l0,0l0,0l0,0l0,0l0,0l0,0l0,0l0,0l0,0l0,0l0,0l0,0l0,0l0,0l0,0l0,0
	c0.2-0.1,0.4-0.2,0.5-0.2c0.3-0.1,0.4-0.4,0.3-0.6C-176.4-1008.1-176.6-1008.2-176.8-1008.2L-176.8-1008.2z M-180.3-1005.9
	c-0.1,0-0.3,0-0.4,0.1c-0.6,0.6-1,1.2-1.4,1.8c-0.1,0.2-0.1,0.5,0.2,0.7c0.1,0,0.2,0.1,0.2,0.1c0.2,0,0.3-0.1,0.4-0.3
	c0-0.1,0.1-0.1,0.1-0.2l0,0l0,0l0,0l0,0l0,0l0,0l0,0l0,0l0,0l0,0l0,0l0,0l0,0l0,0l0,0l0,0l0,0l0,0l0,0l0,0l0,0l0,0l0,0l0,0l0,0l0,0
	l0,0l0,0l0,0l0,0l0,0l0,0l0,0l0,0l0,0l0,0l0,0l0,0l0,0l0,0c0.3-0.4,0.6-0.9,1-1.2c0.2-0.2,0.2-0.5,0-0.7
	C-180.1-1005.9-180.2-1005.9-180.3-1005.9L-180.3-1005.9z M-182.4-1002.2c-0.2,0-0.4,0.2-0.5,0.4c-0.1,0.5-0.1,1-0.1,1.5
	c0,0.3,0,0.6,0.1,0.9c0,0.2,0.3,0.4,0.5,0.4h0.1c0.3-0.1,0.4-0.3,0.4-0.6v-0.1l0,0l0,0l0,0l0,0l0,0l0,0l0,0l0,0l0,0l0,0l0,0l0,0l0,0
	l0,0l0,0l0,0l0,0l0,0l0,0l0,0l0,0l0,0c0-0.1,0-0.3,0-0.4l0,0l0,0l0,0l0,0l0,0l0,0l0,0l0,0l0,0l0,0l0,0l0,0l0,0l0,0l0,0l0,0l0,0l0,0
	l0,0l0,0l0,0l0,0l0,0l0,0l0,0l0,0l0,0l0,0l0,0l0,0l0,0l0,0l0,0c0-0.4,0-0.8,0.1-1.2C-181.8-1001.9-182-1002.2-182.4-1002.2
	C-182.3-1002.2-182.4-1002.2-182.4-1002.2L-182.4-1002.2z M-181.5-998c-0.1,0-0.2,0-0.3,0.1c-0.2,0.2-0.3,0.5-0.1,0.7
	c0.4,0.5,1,1,1.6,1.5l0,0c-0.1,0.1-0.2,0.1-0.3,0.1c-0.8,0.2-1.1,0.8-1,1.2c0,0.2,0.1,1,1.2,1.1c0.2,0,0.4,0,0.6,0l0,0
	c0.3,0,0.5-0.2,0.5-0.5s-0.2-0.5-0.5-0.5c-0.2,0-0.4,0-0.5,0l0,0l0,0l0,0l0,0l0,0l0,0l0,0l0,0l0,0l0,0l0,0c-0.1,0-0.1,0-0.2,0l0,0
	l0,0l0,0l0,0l0,0l0,0l0,0l0,0l0,0l0,0l0,0c-0.1,0-0.1-0.1-0.1-0.1l0,0l0,0l0,0l0,0c0-0.1,0.1-0.1,0.3-0.2l0,0l0,0l0,0l0,0l0,0l0,0
	l0,0l0,0l0,0l0,0l0,0l0,0l0,0l0,0l0,0l0,0l0,0c0.2-0.1,0.4-0.2,0.6-0.3c0.2-0.2,0.3-0.5,0.1-0.7l0,0c0.1,0,0.1-0.1,0.2-0.2
	c0.1-0.2,0.1-0.5-0.2-0.7c-0.4-0.3-0.8-0.5-1.1-0.9l0,0l0,0l0,0l0,0l0,0l0,0l0,0l0,0l0,0l0,0l0,0l0,0l0,0l0,0l0,0l0,0l0,0l0,0l0,0
	l0,0l0,0l0,0l0,0l0,0l0,0l0,0l0,0l0,0l0,0l0,0l0,0l0,0l0,0l0,0l0,0l0,0l0,0l0,0l0,0l0,0l0,0l0,0l0,0l0,0l0,0l0,0l0,0l0,0l0,0l0,0
	l0,0l0,0l0,0l0,0l0,0l0,0l0,0l0,0l0,0l0,0l0,0l0,0l0,0l0,0l0,0l0,0l0,0l0,0l0,0l0,0l0,0l0,0l0,0l0,0l0,0l0,0l0,0l0,0l0,0
	c-0.1-0.1-0.1-0.1-0.2-0.2C-181.2-998-181.3-998-181.5-998L-181.5-998z M-175.9-995.2L-175.9-995.2c-0.5,0.4-1,0.6-1.6,0.8l0,0l0,0
	l0,0l0,0l0,0l0,0l0,0l0,0l0,0l0,0l0,0l0,0l0,0l0,0l0,0l0,0l0,0l0,0l0,0l0,0l0,0l0,0l0,0l0,0l0,0l0,0l0,0l0,0l0,0l0,0h-0.1
	c-0.3,0.1-0.4,0.3-0.4,0.6c0,0.2,0.3,0.4,0.5,0.4h0.1c0.9-0.2,1.6-0.5,2.2-1c0.2-0.2,0.2-0.5,0.1-0.7
	C-175.5-995.2-175.7-995.2-175.9-995.2L-175.9-995.2z M-171.9-995.2L-171.9-995.2c-0.1,0-0.2,0-0.3,0l0,0l0,0l0,0l0,0l0,0l0,0l0,0
	l0,0l0,0l0,0l0,0l0,0l0,0l0,0l0,0l0,0l0,0l0,0l0,0l0,0l0,0l0,0l0,0l0,0l0,0l0,0c-0.1,0-0.2,0-0.3,0l0,0l0,0l0,0l0,0l0,0l0,0l0,0
	c-0.3,0-0.6,0-0.9,0l0,0l0,0l0,0l0,0l0,0l0,0l0,0l0,0l0,0l0,0l0,0l0,0l0,0l0,0l0,0l0,0l0,0l0,0l0,0l0,0l0,0l0,0l0,0l0,0l0,0l0,0l0,0
	l0,0l0,0l0,0l0,0l0,0l0,0l0,0l0,0l0,0l0,0l0,0l0,0l0,0l0,0l0,0l0,0l0,0l0,0l0,0l0,0l0,0l0,0l0,0l0,0l0,0l0,0l0,0l0,0l0,0l0,0l0,0
	l0,0l0,0c0,0,0,0-0.1,0l0,0c-0.3,0-0.5,0.2-0.5,0.5s0.2,0.5,0.5,0.5c0.2,0,0.3,0,0.5,0c0.3,0,0.7,0,1,0c0.2,0,0.5,0,0.8-0.1
	c0.3,0,0.5-0.3,0.4-0.6C-171.4-995-171.6-995.2-171.9-995.2L-171.9-995.2z M-168-996.8c-0.1,0-0.2,0-0.3,0.1s-0.2,0.2-0.3,0.3l0,0
	l0,0l0,0l0,0l0,0l0,0l0,0l0,0l0,0l0,0l0,0l0,0l0,0l0,0l0,0l0,0l0,0l0,0l0,0l0,0l0,0l0,0l0,0l0,0l0,0l0,0l0,0l0,0l0,0l0,0l0,0l0,0
	l0,0l0,0l0,0l0,0l0,0l0,0l0,0c-0.4,0.2-0.8,0.5-1.2,0.6c-0.3,0.1-0.4,0.4-0.3,0.6c0.1,0.2,0.3,0.3,0.5,0.3c0.1,0,0.1,0,0.2,0
	c0.7-0.3,1.4-0.7,2-1.1c0.2-0.2,0.3-0.5,0.1-0.7C-167.7-996.7-167.8-996.8-168-996.8L-168-996.8z M-165.7-1000.4
	c-0.2,0-0.4,0.2-0.5,0.4l0,0l0,0l0,0l0,0l0,0l0,0l0,0l0,0l0,0l0,0l0,0l0,0l0,0l0,0l0,0l0,0l0,0l0,0l0,0l0,0l0,0l0,0l0,0l0,0l0,0l0,0
	l0,0l0,0l0,0l0,0l0,0l0,0l0,0l0,0l0,0l0,0l0,0l0,0l0,0l0,0l0,0l0,0l0,0l0,0l0,0l0,0l0,0l0,0l0,0l0,0l0,0l0,0l0,0l0,0l0,0l0,0l0,0
	l0,0l0,0l0,0l0,0l0,0l0,0l0,0l0,0l0,0l0,0l0,0l0,0l0,0l0,0l0,0l0,0l0,0l0,0l0,0l0,0l0,0l0,0l0,0l0,0l0,0l0,0l0,0l0,0l0,0l0,0l0,0
	l0,0l0,0l0,0l0,0l0,0l0,0l0,0l0,0l0,0l0,0l0,0l0,0l0,0l0,0l0,0l0,0l0,0l0,0l0,0l0,0l0,0l0,0l0,0l0,0l0,0l0,0l0,0l0,0l0,0l0,0l0,0
	l0,0l0,0l0,0l0,0l0,0l0,0l0,0l0,0l0,0l0,0l0,0l0,0l0,0l0,0l0,0l0,0l0,0l0,0l0,0l0,0l0,0l0,0l0,0l0,0l0,0l0,0l0,0l0,0l0,0l0,0l0,0
	l0,0l0,0l0,0l0,0l0,0l0,0l0,0l0,0l0,0l0,0l0,0l0,0l0,0l0,0l0,0l0,0l0,0l0,0l0,0l0,0l0,0l0,0l0,0l0,0l0,0l0,0l0,0l0,0l0,0l0,0l0,0
	l0,0l0,0l0,0l0,0l0,0l0,0l0,0l0,0l0,0l0,0l0,0l0,0l0,0l0,0l0,0l0,0l0,0l0,0l0,0c-0.1,0.3-0.3,0.6-0.4,0.8c-0.1,0.2-0.1,0.5,0.1,0.7
	c0.1,0.1,0.2,0.1,0.3,0.1c0.2,0,0.3-0.1,0.4-0.2c0.4-0.7,0.7-1.4,0.9-2.1c0.1-0.3-0.1-0.5-0.4-0.6
	C-165.6-1000.4-165.7-1000.4-165.7-1000.4L-165.7-1000.4z M-165.9-1004.6c-0.1,0-0.1,0-0.2,0c-0.3,0.1-0.4,0.4-0.3,0.6l0,0l0,0l0,0
	l0,0l0,0l0,0l0,0l0,0l0,0l0,0l0,0l0,0l0,0l0,0l0,0l0,0l0,0l0,0l0,0l0,0l0,0l0,0c0.1,0.2,0.1,0.4,0.2,0.6l0,0l0,0l0,0l0,0l0,0l0,0
	l0,0l0,0l0,0l0,0l0,0l0,0l0,0l0,0l0,0l0,0l0,0l0,0l0,0c0,0.2,0.1,0.3,0.1,0.5l0,0l0,0l0,0l0,0l0,0l0,0l0,0l0,0l0,0l0,0l0,0l0,0l0,0
	l0,0l0,0l0,0l0,0l0,0l0,0l0,0l0,0l0,0l0,0l0,0l0,0l0,0l0,0l0,0l0,0l0,0l0,0l0,0l0,0l0,0l0,0l0,0l0,0l0,0l0,0l0,0l0,0
	c0,0.2,0,0.4,0.1,0.5c0,0.3,0.2,0.5,0.5,0.5l0,0c0.3,0,0.5-0.3,0.5-0.5c0-0.5-0.1-0.9-0.2-1.4c-0.1-0.3-0.1-0.6-0.2-0.8
	C-165.5-1004.5-165.7-1004.6-165.9-1004.6L-165.9-1004.6z M-168.6-1007.9c-0.2,0-0.3,0.1-0.4,0.2c-0.1,0.2-0.1,0.5,0.2,0.7l0,0l0,0
	l0,0l0,0l0,0l0,0l0,0l0,0l0,0l0,0l0,0l0,0l0,0l0,0l0,0l0,0l0,0l0,0l0,0l0,0l0,0l0,0l0,0l0,0l0,0l0,0l0,0l0,0l0,0l0,0l0,0l0,0l0,0
	l0,0l0,0l0,0l0,0l0,0l0,0l0,0l0,0l0,0l0,0l0,0l0,0l0,0l0,0l0,0l0,0l0,0l0,0l0,0l0,0l0,0l0,0l0,0l0,0l0,0l0,0l0,0l0,0l0,0l0,0l0,0
	l0,0l0,0l0,0l0,0l0,0l0,0l0,0l0,0l0,0l0,0l0,0l0,0l0,0l0,0l0,0l0,0l0,0l0,0l0,0l0,0l0,0l0,0l0,0l0,0l0,0l0,0l0,0l0,0l0,0l0,0l0,0
	l0,0l0,0l0,0l0,0l0,0l0,0l0,0l0,0l0,0l0,0l0,0l0,0l0,0l0,0l0,0l0,0l0,0l0,0l0,0l0,0l0,0l0,0l0,0l0,0l0,0l0,0l0,0l0,0l0,0l0,0l0,0
	l0,0l0,0l0,0l0,0l0,0l0,0l0,0l0,0l0,0l0,0l0,0l0,0l0,0l0,0l0,0l0,0l0,0l0,0l0,0l0,0l0,0l0,0l0,0l0,0l0,0l0,0l0,0l0,0l0,0l0,0l0,0
	l0,0l0,0l0,0l0,0l0,0l0,0l0,0l0,0l0,0l0,0l0,0l0,0l0,0l0,0l0,0l0,0l0,0l0,0l0,0l0,0l0,0l0,0l0,0l0,0l0,0l0,0l0,0l0,0l0,0l0,0l0,0
	l0,0l0,0l0,0l0,0l0,0l0,0l0,0l0,0l0,0l0,0l0,0l0,0l0,0l0,0l0,0l0,0l0,0l0,0l0,0l0,0l0,0l0,0l0,0l0,0l0,0l0,0l0,0l0,0l0,0l0,0l0,0
	l0,0l0,0l0,0l0,0l0,0c0.2,0.2,0.4,0.4,0.6,0.7c0.1,0.1,0.2,0.2,0.4,0.2c0.1,0,0.2,0,0.3-0.1c0.2-0.2,0.3-0.5,0.1-0.7
	c-0.5-0.6-1.1-1.1-1.8-1.5C-168.4-1007.9-168.5-1007.9-168.6-1007.9L-168.6-1007.9z"/>
<path id="ic_cloud-copy-2" sketch:type="MSShapeGroup" class="st0" d="M-183-759.4c0,2.4,1.8,4.4,4.1,4.4h11.8c2.3,0,4.1-2,4.1-4.4
	s-1.7-4.3-3.9-4.4l0,0c0-2.8-2.1-5.2-4.8-5.2c-1.7,0-3.2,1-4.1,2.4c-0.3-0.1-0.6-0.2-0.9-0.2c-1.3,0-2.4,1.1-2.4,2.5
	c0,0.2,0,0.3,0,0.4C-181.2-763.7-183-761.8-183-759.4"/>
<path id="Fill-1-Copy" sketch:type="MSShapeGroup" class="st0" d="M-180-725h14v9h-14V-725z M-166-727h-14c-1.1,0-2,0.9-2,2v9
	c0,1.1,0.9,2,2,2h4v1l-4,1v1h14v-1l-4-1v-1h4c1.1,0,2-0.9,2-2v-9C-164-726.1-164.9-727-166-727L-166-727z M-165-716c0,0.5-0.4,1-1,1
	h-14c-0.6,0-1-0.5-1-1v-9c0-0.5,0.4-1,1-1h14c0.6,0,1,0.5,1,1V-716L-165-716z"/>
<path id="Rectangle-138-Copy-5" sketch:type="MSShapeGroup" class="st0" d="M-173-636h2v-4h-4v3v3h2V-636z M-179-636h2v-4h-4v3v3h2
	V-636L-179-636z"/>
<path id="Rectangle-144-Copy-8" sketch:type="MSShapeGroup" class="st0" d="M-172.6-608l4.9-4.9l-1.4-1.4l-4.9,4.9l-4.9-4.9
	l-1.4,1.4l5,4.9l-5,5l1.4,1.4l4.9-5l4.9,5l1.4-1.4L-172.6-608z"/>
<path id="Fill-5-Copy-2" sketch:type="MSShapeGroup" class="st0" d="M-171.1-545.4c0-0.1-0.1-0.7-0.3-0.8s-0.8-0.4-0.8-0.4
	s-0.1-0.2-0.1-0.3s0.1-0.3,0.1-0.3c0.1-0.2,0.4-0.5,0.4-0.8s0.2-1,0.2-1c0-0.2,0.2-0.2,0.4-0.3c0.3-0.1,0.5-1.7,0.5-1.7
	c0-0.5-0.2-0.3-0.2-0.7v-1.4c0-1.7-1.4-2.8-3.1-2.8h-0.1c-1.7,0-3.1,1.1-3.1,2.8v1.4c0,0.4-0.2,0.1-0.2,0.7c0,0,0.2,1.6,0.5,1.7
	c0.1,0.1,0.4,0.2,0.4,0.3c0,0,0.1,0.8,0.2,1s0.4,0.7,0.4,0.8c0,0,0.1,0.2,0.1,0.3s-0.1,0.3-0.1,0.3s-0.6,0.3-0.8,0.4
	c-0.2,0.1-0.3,0.6-0.3,0.8c-0.7,0.2-4.3,1.9-4.8,2.3c-0.3,0.3-0.3,2.1-0.3,2.1v0.2c0,0.4,0.3,0.8,0.8,0.8h14.5
	c0.4,0,0.8-0.3,0.8-0.8v-0.2c0,0,0-1.8-0.3-2.1C-166.7-543.5-170.4-545.2-171.1-545.4z"/>
<path id="Imported-Layers-Copy-3" sketch:type="MSShapeGroup" class="st0" d="M-172.7-519c-0.7,0-1.4,0.1-2.2,0.2
	c-0.3,0.1-0.4,0.3-0.4,0.6c0,0.2,0.3,0.4,0.5,0.4h0.1c0.4-0.1,0.8-0.1,1.1-0.2l0,0l0,0c0,0,0,0,0.1,0l0,0l0,0l0,0l0,0l0,0l0,0l0,0
	l0,0l0,0l0,0l0,0l0,0l0,0l0,0l0,0l0,0l0,0l0,0l0,0l0,0l0,0l0,0l0,0l0,0l0,0l0,0l0,0l0,0l0,0l0,0l0,0l0,0l0,0l0,0l0,0l0,0l0,0l0,0
	l0,0l0,0l0,0l0,0l0,0l0,0l0,0l0,0l0,0l0,0l0,0l0,0l0,0l0,0l0,0l0,0l0,0l0,0l0,0l0,0l0,0l0,0l0,0l0,0l0,0l0,0l0,0l0,0l0,0l0,0l0,0
	l0,0l0,0l0,0l0,0l0,0l0,0l0,0l0,0l0,0l0,0l0,0l0,0l0,0l0,0l0,0l0,0l0,0l0,0l0,0l0,0l0,0l0,0l0,0l0,0l0,0l0,0l0,0l0,0l0,0l0,0l0,0
	l0,0l0,0l0,0l0,0l0,0l0,0l0,0l0,0l0,0l0,0l0,0l0,0l0,0l0,0l0,0l0,0l0,0l0,0l0,0l0,0l0,0l0,0l0,0l0,0l0,0l0,0l0,0l0,0l0,0l0,0l0,0
	l0,0l0,0l0,0l0,0l0,0l0,0l0,0l0,0l0,0l0,0l0,0l0,0l0,0l0,0l0,0l0,0l0,0l0,0l0,0l0,0l0,0l0,0l0,0l0,0l0,0l0,0c0,0,0,0,0.1,0
	c0,0,0,0,0.1,0c0.2,0,0.4,0,0.6,0l0,0l0,0l0,0l0,0l0,0l0,0l0,0l0,0l0,0l0,0l0,0l0,0l0,0l0,0l0,0l0,0l0,0l0,0l0,0l0,0l0,0l0,0l0,0
	l0,0l0,0l0,0l0,0l0,0l0,0l0,0l0,0l0,0l0,0l0,0l0,0l0,0l0,0l0,0l0,0l0,0l0,0l0,0l0,0l0,0l0,0l0,0l0,0l0,0l0,0l0,0l0,0l0,0l0,0l0,0
	l0,0l0,0l0,0l0,0l0,0l0,0l0,0l0,0l0,0l0,0l0,0l0,0l0,0l0,0l0,0l0,0l0,0l0,0l0,0l0,0l0,0l0,0l0,0l0,0l0,0l0,0l0,0l0,0l0,0l0,0l0,0
	l0,0l0,0l0,0l0,0l0,0l0,0c0.3,0,0.6,0.1,0.9,0.2h0.1c0.2,0,0.4-0.1,0.5-0.4c0.1-0.3-0.1-0.5-0.4-0.6c-0.7-0.2-1.4-0.3-2.2-0.3l0,0
	C-172.6-519-172.7-519-172.7-519L-172.7-519L-172.7-519z M-176.8-518.2c-0.1,0-0.1,0-0.2,0c-0.7,0.3-1.3,0.6-1.9,1
	c-0.2,0.1-0.3,0.5-0.2,0.7c0.1,0.1,0.3,0.2,0.4,0.2c0.1,0,0.2,0,0.3-0.1c0.3-0.2,0.7-0.4,1.1-0.6l0,0l0,0l0,0l0,0l0,0l0,0l0,0l0,0
	l0,0l0,0l0,0l0,0l0,0l0,0l0,0l0,0l0,0l0,0l0,0l0,0l0,0l0,0l0,0l0,0l0,0l0,0l0,0l0,0l0,0l0,0l0,0l0,0l0,0l0,0l0,0l0,0l0,0l0,0l0,0
	c0.2-0.1,0.4-0.2,0.5-0.2c0.3-0.1,0.4-0.4,0.3-0.7C-176.4-518.1-176.6-518.2-176.8-518.2L-176.8-518.2z M-180.3-515.9
	c-0.1,0-0.3,0-0.4,0.1c-0.6,0.6-1,1.2-1.4,1.8c-0.1,0.2-0.1,0.5,0.2,0.7c0.1,0,0.2,0.1,0.2,0.1c0.2,0,0.3-0.1,0.4-0.3
	c0-0.1,0.1-0.1,0.1-0.2l0,0l0,0l0,0l0,0l0,0l0,0l0,0l0,0l0,0l0,0l0,0l0,0l0,0l0,0l0,0l0,0l0,0l0,0l0,0l0,0l0,0l0,0l0,0l0,0l0,0l0,0
	l0,0l0,0l0,0l0,0l0,0l0,0l0,0l0,0l0,0l0,0l0,0l0,0l0,0l0,0c0.3-0.4,0.6-0.9,1-1.2c0.2-0.2,0.2-0.5,0-0.7
	C-180.1-515.9-180.2-515.9-180.3-515.9L-180.3-515.9z M-182.4-512.2c-0.2,0-0.4,0.2-0.5,0.4c-0.1,0.5-0.1,1-0.1,1.5
	c0,0.3,0,0.6,0.1,0.9c0,0.2,0.3,0.4,0.5,0.4h0.1c0.3-0.1,0.4-0.3,0.4-0.6v-0.1l0,0l0,0l0,0l0,0l0,0l0,0l0,0l0,0l0,0l0,0l0,0l0,0l0,0
	l0,0l0,0l0,0l0,0l0,0l0,0l0,0l0,0l0,0c0-0.1,0-0.3,0-0.4l0,0l0,0l0,0l0,0l0,0l0,0l0,0l0,0l0,0l0,0l0,0l0,0l0,0l0,0l0,0l0,0l0,0l0,0
	l0,0l0,0l0,0l0,0l0,0l0,0l0,0l0,0l0,0l0,0l0,0l0,0l0,0l0,0l0,0c0-0.4,0-0.8,0.1-1.2C-181.8-511.9-182-512.2-182.4-512.2
	C-182.3-512.2-182.4-512.2-182.4-512.2L-182.4-512.2z M-181.5-508c-0.1,0-0.2,0-0.3,0.1c-0.2,0.2-0.3,0.5-0.1,0.7
	c0.4,0.6,1,1,1.6,1.5l0,0c-0.1,0.1-0.2,0.1-0.3,0.1c-0.8,0.2-1.1,0.8-1,1.2c0,0.2,0.1,0.9,1.2,1.1c0.2,0,0.4,0,0.6,0l0,0
	c0.3,0,0.5-0.2,0.5-0.5s-0.2-0.5-0.5-0.5c-0.2,0-0.4,0-0.5,0l0,0l0,0l0,0l0,0l0,0l0,0l0,0l0,0l0,0l0,0l0,0c-0.1,0-0.1,0-0.2,0l0,0
	l0,0l0,0l0,0l0,0l0,0l0,0l0,0l0,0l0,0l0,0c-0.1,0-0.1-0.1-0.1-0.1l0,0l0,0l0,0l0,0c0-0.1,0.1-0.1,0.3-0.2l0,0l0,0l0,0l0,0l0,0l0,0
	l0,0l0,0l0,0l0,0l0,0l0,0l0,0l0,0l0,0l0,0l0,0c0.2-0.1,0.4-0.2,0.6-0.3c0.2-0.2,0.3-0.5,0.1-0.7l0,0c0.1,0,0.1-0.1,0.2-0.2
	c0.1-0.2,0.1-0.5-0.2-0.7c-0.4-0.3-0.8-0.5-1.1-0.9l0,0l0,0l0,0l0,0l0,0l0,0l0,0l0,0l0,0l0,0l0,0l0,0l0,0l0,0l0,0l0,0l0,0l0,0l0,0
	l0,0l0,0l0,0l0,0l0,0l0,0l0,0l0,0l0,0l0,0l0,0l0,0l0,0l0,0l0,0l0,0l0,0l0,0l0,0l0,0l0,0l0,0l0,0l0,0l0,0l0,0l0,0l0,0l0,0l0,0l0,0
	l0,0l0,0l0,0l0,0l0,0l0,0l0,0l0,0l0,0l0,0l0,0l0,0l0,0l0,0l0,0l0,0l0,0l0,0l0,0l0,0l0,0l0,0l0,0l0,0l0,0l0,0l0,0l0,0l0,0
	c-0.1-0.1-0.1-0.1-0.2-0.2C-181.2-508-181.3-508-181.5-508L-181.5-508z M-175.9-505.2L-175.9-505.2c-0.5,0.4-1,0.6-1.6,0.8l0,0l0,0
	l0,0l0,0l0,0l0,0l0,0l0,0l0,0l0,0l0,0l0,0l0,0l0,0l0,0l0,0l0,0l0,0l0,0l0,0l0,0l0,0l0,0l0,0l0,0l0,0l0,0l0,0l0,0l0,0h-0.1
	c-0.3,0.1-0.4,0.3-0.4,0.6c0,0.2,0.3,0.4,0.5,0.4h0.1c0.9-0.2,1.6-0.5,2.2-1c0.2-0.2,0.2-0.5,0.1-0.7
	C-175.5-505.2-175.7-505.2-175.9-505.2L-175.9-505.2z M-171.9-505.2L-171.9-505.2c-0.1,0-0.2,0-0.3,0l0,0l0,0l0,0l0,0l0,0l0,0l0,0
	l0,0l0,0l0,0l0,0l0,0l0,0l0,0l0,0l0,0l0,0l0,0l0,0l0,0l0,0l0,0l0,0l0,0l0,0l0,0c-0.1,0-0.2,0-0.3,0l0,0l0,0l0,0l0,0l0,0l0,0l0,0
	c-0.3,0-0.6,0-0.9,0l0,0l0,0l0,0l0,0l0,0l0,0l0,0l0,0l0,0l0,0l0,0l0,0l0,0l0,0l0,0l0,0l0,0l0,0l0,0l0,0l0,0l0,0l0,0l0,0l0,0l0,0l0,0
	l0,0l0,0l0,0l0,0l0,0l0,0l0,0l0,0l0,0l0,0l0,0l0,0l0,0l0,0l0,0l0,0l0,0l0,0l0,0l0,0l0,0l0,0l0,0l0,0l0,0l0,0l0,0l0,0l0,0l0,0l0,0
	l0,0l0,0c0,0,0,0-0.1,0l0,0c-0.3,0-0.5,0.2-0.5,0.5s0.2,0.5,0.5,0.5c0.2,0,0.3,0,0.5,0c0.3,0,0.7,0,1,0c0.2,0,0.5,0,0.8-0.1
	c0.3,0,0.5-0.3,0.4-0.6C-171.4-505-171.6-505.2-171.9-505.2L-171.9-505.2z M-168-506.8c-0.1,0-0.2,0-0.3,0.1s-0.2,0.2-0.3,0.3l0,0
	l0,0l0,0l0,0l0,0l0,0l0,0l0,0l0,0l0,0l0,0l0,0l0,0l0,0l0,0l0,0l0,0l0,0l0,0l0,0l0,0l0,0l0,0l0,0l0,0l0,0l0,0l0,0l0,0l0,0l0,0l0,0
	l0,0l0,0l0,0l0,0l0,0l0,0l0,0c-0.4,0.2-0.8,0.5-1.2,0.6c-0.3,0.1-0.4,0.4-0.3,0.6c0.1,0.2,0.3,0.3,0.5,0.3c0.1,0,0.1,0,0.2,0
	c0.7-0.3,1.4-0.7,2-1.1c0.2-0.2,0.3-0.5,0.1-0.7C-167.7-506.7-167.8-506.8-168-506.8L-168-506.8z M-165.7-510.4
	c-0.2,0-0.4,0.2-0.5,0.4l0,0l0,0l0,0l0,0l0,0l0,0l0,0l0,0l0,0l0,0l0,0l0,0l0,0l0,0l0,0l0,0l0,0l0,0l0,0l0,0l0,0l0,0l0,0l0,0l0,0l0,0
	l0,0l0,0l0,0l0,0l0,0l0,0l0,0l0,0l0,0l0,0l0,0l0,0l0,0l0,0l0,0l0,0l0,0l0,0l0,0l0,0l0,0l0,0l0,0l0,0l0,0l0,0l0,0l0,0l0,0l0,0l0,0
	l0,0l0,0l0,0l0,0l0,0l0,0l0,0l0,0l0,0l0,0l0,0l0,0l0,0l0,0l0,0l0,0l0,0l0,0l0,0l0,0l0,0l0,0l0,0l0,0l0,0l0,0l0,0l0,0l0,0l0,0l0,0
	l0,0l0,0l0,0l0,0l0,0l0,0l0,0l0,0l0,0l0,0l0,0l0,0l0,0l0,0l0,0l0,0l0,0l0,0l0,0l0,0l0,0l0,0l0,0l0,0l0,0l0,0l0,0l0,0l0,0l0,0l0,0
	l0,0l0,0l0,0l0,0l0,0l0,0l0,0l0,0l0,0l0,0l0,0l0,0l0,0l0,0l0,0l0,0l0,0l0,0l0,0l0,0l0,0l0,0l0,0l0,0l0,0l0,0l0,0l0,0l0,0l0,0l0,0
	l0,0l0,0l0,0l0,0l0,0l0,0l0,0l0,0l0,0l0,0l0,0l0,0l0,0l0,0l0,0l0,0l0,0l0,0l0,0l0,0l0,0l0,0l0,0l0,0l0,0l0,0l0,0l0,0l0,0l0,0l0,0
	l0,0l0,0l0,0l0,0l0,0l0,0l0,0l0,0l0,0l0,0l0,0l0,0l0,0l0,0l0,0l0,0l0,0l0,0l0,0c-0.1,0.3-0.3,0.6-0.4,0.8c-0.1,0.2-0.1,0.5,0.1,0.7
	c0.1,0.1,0.2,0.1,0.3,0.1c0.2,0,0.3-0.1,0.4-0.2c0.4-0.7,0.7-1.4,0.9-2.1c0.1-0.3-0.1-0.5-0.4-0.6
	C-165.6-510.4-165.7-510.4-165.7-510.4L-165.7-510.4z M-165.9-514.6c-0.1,0-0.1,0-0.2,0c-0.3,0.1-0.4,0.4-0.3,0.6l0,0l0,0l0,0l0,0
	l0,0l0,0l0,0l0,0l0,0l0,0l0,0l0,0l0,0l0,0l0,0l0,0l0,0l0,0l0,0l0,0l0,0l0,0c0.1,0.2,0.1,0.4,0.2,0.6l0,0l0,0l0,0l0,0l0,0l0,0l0,0
	l0,0l0,0l0,0l0,0l0,0l0,0l0,0l0,0l0,0l0,0l0,0l0,0c0,0.2,0.1,0.3,0.1,0.5l0,0l0,0l0,0l0,0l0,0l0,0l0,0l0,0l0,0l0,0l0,0l0,0l0,0l0,0
	l0,0l0,0l0,0l0,0l0,0l0,0l0,0l0,0l0,0l0,0l0,0l0,0l0,0l0,0l0,0l0,0l0,0l0,0l0,0l0,0l0,0l0,0l0,0l0,0l0,0l0,0l0,0
	c0,0.2,0,0.4,0.1,0.5c0,0.3,0.2,0.5,0.5,0.5l0,0c0.3,0,0.5-0.3,0.5-0.5c0-0.5-0.1-0.9-0.2-1.4c-0.1-0.3-0.1-0.6-0.2-0.8
	C-165.5-514.5-165.7-514.6-165.9-514.6L-165.9-514.6z M-168.6-517.9c-0.2,0-0.3,0.1-0.4,0.2c-0.1,0.2-0.1,0.5,0.2,0.7l0,0l0,0l0,0
	l0,0l0,0l0,0l0,0l0,0l0,0l0,0l0,0l0,0l0,0l0,0l0,0l0,0l0,0l0,0l0,0l0,0l0,0l0,0l0,0l0,0l0,0l0,0l0,0l0,0l0,0l0,0l0,0l0,0l0,0l0,0
	l0,0l0,0l0,0l0,0l0,0l0,0l0,0l0,0l0,0l0,0l0,0l0,0l0,0l0,0l0,0l0,0l0,0l0,0l0,0l0,0l0,0l0,0l0,0l0,0l0,0l0,0l0,0l0,0l0,0l0,0l0,0
	l0,0l0,0l0,0l0,0l0,0l0,0l0,0l0,0l0,0l0,0l0,0l0,0l0,0l0,0l0,0l0,0l0,0l0,0l0,0l0,0l0,0l0,0l0,0l0,0l0,0l0,0l0,0l0,0l0,0l0,0l0,0
	l0,0l0,0l0,0l0,0l0,0l0,0l0,0l0,0l0,0l0,0l0,0l0,0l0,0l0,0l0,0l0,0l0,0l0,0l0,0l0,0l0,0l0,0l0,0l0,0l0,0l0,0l0,0l0,0l0,0l0,0l0,0
	l0,0l0,0l0,0l0,0l0,0l0,0l0,0l0,0l0,0l0,0l0,0l0,0l0,0l0,0l0,0l0,0l0,0l0,0l0,0l0,0l0,0l0,0l0,0l0,0l0,0l0,0l0,0l0,0l0,0l0,0l0,0
	l0,0l0,0l0,0l0,0l0,0l0,0l0,0l0,0l0,0l0,0l0,0l0,0l0,0l0,0l0,0l0,0l0,0l0,0l0,0l0,0l0,0l0,0l0,0l0,0l0,0l0,0l0,0l0,0l0,0l0,0l0,0
	l0,0l0,0l0,0l0,0l0,0l0,0l0,0l0,0l0,0l0,0l0,0l0,0l0,0l0,0l0,0l0,0l0,0l0,0l0,0l0,0l0,0l0,0l0,0l0,0l0,0l0,0l0,0l0,0l0,0l0,0l0,0
	l0,0l0,0l0,0l0,0c0.2,0.2,0.4,0.4,0.6,0.7c0.1,0.1,0.2,0.2,0.4,0.2c0.1,0,0.2,0,0.3-0.1c0.2-0.2,0.3-0.5,0.1-0.7
	c-0.5-0.6-1.1-1.1-1.8-1.5C-168.4-517.9-168.5-517.9-168.6-517.9L-168.6-517.9z"/>
<path id="Rectangle-93" sketch:type="MSShapeGroup" class="st12" d="M-177-1541h8l-4,4L-177-1541z"/>
<g id="Imported-Layers_2_" transform="translate(3.000000, 1586.000000)" sketch:type="MSLayerGroup">
	<path id="Fill-1_3_" sketch:type="MSShapeGroup" class="st13" d="M-177-1542c4.4,0,8,3.6,8,8s-3.6,8-8,8s-8-3.6-8-8
		S-181.4-1542-177-1542 M-177-1544c-5.5,0-10,4.5-10,10s4.5,10,10,10s10-4.5,10-10S-171.5-1544-177-1544"/>
	<path id="Fill-2_2_" sketch:type="MSShapeGroup" class="st14" d="M-172.2-1532c-0.5,2.3-2.5,4-4.9,4s-4.4-1.7-4.9-4H-172.2
		 M-171-1533h-12.2l0.2,1.2c0.6,2.8,3,4.8,5.9,4.8c2.8,0,5.3-2,5.9-4.8L-171-1533"/>
	<path id="Fill-3_1_" sketch:type="MSShapeGroup" class="st13" d="M-172-1532c-0.5,2.3-2.5,4-5,4s-4.5-1.7-5-4H-172 M-183-1533v1.2
		c0.6,2.8,3.1,4.8,6,4.8s5.4-2,6-4.8v-1.2H-183"/>
	<path id="Fill-4_1_" sketch:type="MSShapeGroup" class="st13" d="M-171-1535.5c0,0.8-0.7,1.5-1.5,1.5s-1.5-0.7-1.5-1.5
		s0.7-1.5,1.5-1.5S-171-1536.3-171-1535.5"/>
	<path id="Fill-5_1_" sketch:type="MSShapeGroup" class="st13" d="M-180-1535.5c0,0.8-0.7,1.5-1.5,1.5s-1.5-0.7-1.5-1.5
		s0.7-1.5,1.5-1.5S-180-1536.3-180-1535.5"/>
	<path id="Fill-6_1_" sketch:type="MSShapeGroup" class="st13" d="M-173-1529h-8l-1-2h10L-173-1529"/>
</g>
<path id="Rectangle-53-Copy-3" sketch:type="MSShapeGroup" class="st3" d="M-183-876c0-1.1,0.9-2,2-2h14c1.1,0,2,0.9,2,2v10
	c0,1.1-0.9,2-2,2h-14c-1.1,0-2-0.9-2-2V-876z M-169.2-867.9c-0.3-0.3-2.5-1.3-3-1.5c0-0.1-0.1-0.4-0.2-0.5c-0.1,0-0.5-0.2-0.5-0.2
	s0-0.1-0.1-0.2c0-0.1,0.1-0.2,0.1-0.2c0.1-0.1,0.2-0.3,0.3-0.5s0.1-0.7,0.1-0.7c0-0.1,0.1-0.1,0.2-0.2c0.2-0.1,0.3-1.1,0.3-1.1
	c0-0.3-0.1-0.2-0.1-0.4v-0.9c0-1.1-0.9-1.8-1.9-1.8l0,0c-1.1,0-2,0.7-2,1.8v0.9c0,0.2-0.1,0.1-0.1,0.4c0,0,0.1,1,0.3,1.1
	c0.1,0,0.2,0.1,0.2,0.2c0,0,0.1,0.5,0.1,0.7c0.1,0.2,0.2,0.4,0.3,0.5c0,0,0,0.1,0,0.2c0,0.1,0,0.2,0,0.2s-0.4,0.2-0.5,0.2
	c-0.1,0.1-0.2,0.4-0.2,0.5c-0.4,0.1-2.7,1.2-3,1.5c-0.2,0.2-0.2,1.3-0.2,1.3v0.1c0,0.3,0.2,0.5,0.5,0.5h9c0.3,0,0.5-0.2,0.5-0.5
	v-0.1C-169-866.6-169-867.7-169.2-867.9z"/>
<path id="ic_cloud-copy-6" sketch:type="MSShapeGroup" class="st3" d="M-184-953.4c0,2.4,1.8,4.4,4.1,4.4h11.8c2.3,0,4.1-2,4.1-4.4
	s-1.7-4.3-3.9-4.4l0,0c0-2.8-2.1-5.2-4.8-5.2c-1.7,0-3.2,1-4.1,2.4c-0.3-0.1-0.6-0.2-0.9-0.2c-1.3,0-2.4,1.1-2.4,2.5
	c0,0.2,0,0.3,0,0.4C-182.2-957.7-184-955.8-184-953.4"/>
<path class="st3" d="M-174-923c-5,0-9,4-9,9s4,9,9,9s9-4,9-9S-169-923-174-923z M-170-913l-3-3v7h-2v-7l-3,3l-1-1l5-5l5,5L-170-913z
	"/>
<path id="Rectangle-53-Copy-4" sketch:type="MSShapeGroup" class="st0" d="M-183-386c0-1.1,0.9-2,2-2h14c1.1,0,2,0.9,2,2v10
	c0,1.1-0.9,2-2,2h-14c-1.1,0-2-0.9-2-2V-386z M-169.2-377.9c-0.3-0.3-2.5-1.3-3-1.5c0-0.1-0.1-0.4-0.2-0.5c-0.1,0-0.5-0.2-0.5-0.2
	s0-0.1-0.1-0.2c0-0.1,0.1-0.2,0.1-0.2c0.1-0.1,0.2-0.3,0.3-0.5s0.1-0.7,0.1-0.7c0-0.1,0.1-0.1,0.2-0.2c0.2-0.1,0.3-1.1,0.3-1.1
	c0-0.3-0.1-0.2-0.1-0.4v-0.9c0-1.1-0.9-1.8-1.9-1.8l0,0c-1.1,0-2,0.7-2,1.8v0.9c0,0.2-0.1,0.1-0.1,0.4c0,0,0.1,1,0.3,1.1
	c0.1,0.1,0.2,0.1,0.2,0.2c0,0,0.1,0.5,0.1,0.7c0.1,0.2,0.2,0.4,0.3,0.5c0,0,0,0.1,0,0.2s0,0.2,0,0.2s-0.4,0.2-0.5,0.2
	c-0.1,0.1-0.2,0.4-0.2,0.5c-0.4,0.1-2.7,1.2-3,1.5c-0.2,0.2-0.2,1.3-0.2,1.3v0.1c0,0.3,0.2,0.5,0.5,0.5h9c0.3,0,0.5-0.2,0.5-0.5
	v-0.1C-169-376.6-169-377.7-169.2-377.9z"/>
<path id="ic_cloud-copy-7" sketch:type="MSShapeGroup" class="st0" d="M-184-463.4c0,2.4,1.8,4.4,4.1,4.4h11.8c2.3,0,4.1-2,4.1-4.4
	s-1.7-4.3-3.9-4.4l0,0c0-2.8-2.1-5.2-4.8-5.2c-1.7,0-3.2,1-4.1,2.4c-0.3-0.1-0.6-0.2-0.9-0.2c-1.3,0-2.4,1.1-2.4,2.5
	c0,0.2,0,0.3,0,0.4C-182.2-467.7-184-465.8-184-463.4"/>
<path id="Imported-Layers_3_" sketch:type="MSShapeGroup" class="st3" d="M-180-823l12-8l-12-8V-823z"/>
<g id="Oval-55-_x2B_-Fill-5-_x2B_-Shape" transform="translate(8.000000, 737.000000)" sketch:type="MSLayerGroup">
	<g id="Oval-55-_x2B_-Fill-5" transform="translate(0.000000, 3.000000)" sketch:type="MSShapeGroup">
		<path id="Oval-55" class="st3" d="M-176.7-1540.3c0.5,1,0.8,2.1,0.8,3.3c0,3.9-3.1,7-7,7s-7-3.1-7-7s3.1-7,7-7
			c1.1,0,2.2,0.3,3.2,0.8l-1.5,1.5c-0.6-0.2-1.2-0.3-1.8-0.3c-2.8,0-5,2.2-5,5s2.2,5,5,5s5-2.2,5-5c0-0.6-0.1-1.1-0.3-1.6
			L-176.7-1540.3z"/>
	</g>
	<path id="Shape" sketch:type="MSShapeGroup" class="st3" d="M-175-1540.6l-7.3,7.3l-1.4-1.4l7.3-7.3h-4.6v-2h8v1v7h-2V-1540.6z"/>
</g>
<path id="Imported-Layers-Copy-4" sketch:type="MSShapeGroup" class="st0" d="M-180-333l12-8l-12-8V-333z"/>
<g id="Oval-55-_x2B_-Fill-5-_x2B_-Shape-Copy" transform="translate(8.000000, 1227.000000)" sketch:type="MSLayerGroup">
	<g id="Oval-55-_x2B_-Fill-5_1_" transform="translate(0.000000, 3.000000)" sketch:type="MSShapeGroup">
		<path id="Oval-55_1_" class="st0" d="M-176.7-1540.3c0.5,1,0.8,2.1,0.8,3.3c0,3.9-3.1,7-7,7s-7-3.1-7-7s3.1-7,7-7
			c1.1,0,2.2,0.3,3.2,0.8l-1.5,1.5c-0.6-0.2-1.2-0.3-1.8-0.3c-2.8,0-5,2.2-5,5s2.2,5,5,5s5-2.2,5-5c0-0.6-0.1-1.1-0.3-1.6
			L-176.7-1540.3z"/>
	</g>
	<path id="Shape_1_" sketch:type="MSShapeGroup" class="st0" d="M-175-1540.6l-7.3,7.3l-1.4-1.4l7.3-7.3h-4.6v-2h8v1v7h-2V-1540.6z"
		/>
</g>
<path id="Imported-Layers-Copy-4_1_" sketch:type="MSShapeGroup" class="st0" d="M-181.2,172.7c-0.3,0-0.6,0-1,0
	c-0.6,0-1-0.5-0.9-1.1c0-0.5,0.4-0.9,0.9-0.9c-0.1-0.3,0-0.7,0.2-0.9c0.1-0.1,0.1-0.2,0.2-0.4c-0.6-0.3-1.1-0.8-1.6-1.2
	c-0.4-0.4-0.4-1-0.1-1.4c0.4-0.4,1-0.4,1.4-0.1c0.4,0.4,0.9,0.7,1.5,1.1c0.5,0.4,0.8,0.8,0.8,1.4v0.1c0,0.5-0.1,1-0.4,1.4
	c0.7-0.1,1.2-0.2,1.8-0.3c0.5-0.2,1.1,0.1,1.2,0.7c0.2,0.5-0.1,1.1-0.7,1.2C-178.9,172.6-179.9,172.7-181.2,172.7L-181.2,172.7z
	 M-172.8,171.6c-0.9,0-1.8-0.1-2.8-0.2c-0.5-0.1-0.9-0.6-0.9-1.1c0.1-0.5,0.6-1,1.1-0.9c1.4,0.2,2.6,0.2,3.7,0.1l0.2,1l0.1,1
	C-171.9,171.6-172.4,171.6-172.8,171.6L-172.8,171.6z M-168.5,170.9c-0.4,0-0.8-0.3-1-0.7c-0.2-0.5,0.1-1.1,0.6-1.3
	c1.2-0.4,2.3-1,3.1-1.7c0.4-0.4,1.1-0.3,1.4,0.1c0.4,0.4,0.3,1.1-0.1,1.4c-1.1,0.9-2.4,1.6-3.8,2.1
	C-168.3,170.9-168.4,170.9-168.5,170.9L-168.5,170.9z M-163.1,166.7c-0.2,0-0.3,0-0.5-0.1c-0.5-0.3-0.6-0.9-0.4-1.4
	c0.6-1,0.9-2.1,1-3.4c0-0.6,0.5-0.9,1.1-0.9s1,0.5,0.9,1.1c-0.1,1.5-0.5,2.9-1.2,4.2C-162.5,166.5-162.8,166.7-163.1,166.7
	L-163.1,166.7z M-184.6,166c-0.4,0-0.8-0.2-0.9-0.6c-0.3-0.8-0.5-1.6-0.5-2.5v-0.2c0-0.6,0.1-1.2,0.2-1.8c0.1-0.5,0.6-0.9,1.2-0.8
	c0.5,0.1,0.9,0.6,0.8,1.2c-0.1,0.5-0.1,0.9-0.1,1.4v0.2c0,0.6,0.1,1.2,0.4,1.7c0.2,0.5,0,1.1-0.5,1.3
	C-184.3,166-184.4,166-184.6,166L-184.6,166z M-162.3,159.9c-0.5,0-0.8-0.3-0.9-0.7v-0.1c-0.3-1.2-0.7-2.2-1.4-3.1
	c-0.3-0.4-0.3-1.1,0.2-1.4c0.4-0.3,1.1-0.3,1.4,0.2c0.9,1.1,1.5,2.4,1.8,3.9c0.1,0.5-0.2,1.1-0.8,1.2
	C-162.1,159.9-162.2,159.9-162.3,159.9L-162.3,159.9z M-183.8,159.3c-0.2,0-0.3,0-0.5-0.1c-0.5-0.3-0.6-0.9-0.4-1.4
	c0.7-1.2,1.7-2.3,2.9-3.3c0.4-0.4,1.1-0.3,1.4,0.1c0.4,0.4,0.3,1.1-0.1,1.4c-1,0.8-1.8,1.7-2.4,2.7
	C-183.1,159.1-183.4,159.3-183.8,159.3L-183.8,159.3z M-178.6,154.7c-0.4,0-0.7-0.2-0.9-0.5c-0.3-0.5-0.1-1.1,0.4-1.3
	c1.3-0.7,2.6-1.1,4-1.5c0.7-0.2,1.4-0.3,2.2-0.3c0.6-0.1,1,0.4,1.1,0.9c0,0.6-0.4,1-0.9,1.1c-0.6,0.1-1.3,0.1-1.9,0.3
	c-1.2,0.3-2.4,0.7-3.5,1.3C-178.3,154.6-178.5,154.7-178.6,154.7L-178.6,154.7z M-166.1,154.4c-0.2,0-0.3,0-0.5-0.1
	c-1-0.6-2.1-1-3.4-1.1c-0.5-0.1-0.9-0.6-0.8-1.1c0.1-0.6,0.6-0.9,1.1-0.9c1.5,0.2,2.9,0.7,4.1,1.4c0.5,0.3,0.6,0.9,0.3,1.4
	C-165.4,154.2-165.8,154.4-166.1,154.4L-166.1,154.4z"/>
<path id="Fill-1_4_" sketch:type="MSShapeGroup" class="st0" d="M-176.9,258.9c-0.1-0.3-0.1-0.6-0.1-0.9c0-2.2,1.8-4,4-4
	c0.3,0,0.6,0,0.9,0.1l1.7-1.7c-0.8-0.3-1.7-0.4-2.6-0.4c-5,0-8.2,4.3-10,6c0.9,0.8,2,2.2,3.6,3.4L-176.9,258.9z M-166.6,254.6
	l-2.5,2.6c0.1,0.3,0.1,0.6,0.1,0.9c0,2.2-1.8,4-4,4c-0.3,0-0.6,0-0.9-0.1l-1.7,1.7c0.8,0.3,1.7,0.4,2.6,0.4c5,0,8.2-4.3,10-6
	C-163.9,257.2-165,255.8-166.6,254.6z M-166,250l-15,15l1,1l15-15L-166,250z"/>
<path id="Path-Copy-3" sketch:type="MSShapeGroup" class="st0" d="M-173-212v-2h2v-2h-2v-2l-4,3L-173-212z"/>
<path id="Imported-Layers-Copy-3_1_" sketch:type="MSShapeGroup" class="st3" d="M-181,612c-1.1,0-2,0.9-2,2v12c0,1.1,0.9,2,2,2h16
	c1.1,0,2-0.9,2-2v-12c0-1.1-0.9-2-2-2H-181z M-164.7,613l-7.9,8.9c-0.2,0.2-0.5,0.2-0.7,0l-7.9-8.9c0.1,0,0.2,0,0.3,0h16
	C-164.9,613-164.8,613-164.7,613z M-165,627h-16c-0.6,0-1-0.4-1-1v-12c0-0.1,0-0.2,0-0.3l7.9,8.9c0.3,0.3,0.7,0.4,1.1,0.4
	s0.8-0.1,1.1-0.4l7.9-8.9c0,0.1,0,0.2,0,0.3v12C-164,626.6-164.4,627-165,627z"/>
<path id="Fill-9-Copy-10" sketch:type="MSShapeGroup" class="st15" d="M-181,580c0,4.4,3.6,8,8,8s8-3.6,8-8s-3.6-8-8-8
	S-181,575.6-181,580L-181,580z M-178,579h10v2h-10V579z"/>
<path id="Imported-Layers-Copy-2_1_" sketch:type="MSShapeGroup" class="st11" d="M40.2,470.2L-64.7,297.9c-1.6-2.6-5.3-2.6-6.8,0
	l-104.9,172.3c-1.6,2.7,0.3,6.1,3.4,6.1H36.8C39.9,476.3,41.8,472.9,40.2,470.2L40.2,470.2z M-173,472.3L-68.1,300L36.8,472.3H-173
	L-173,472.3z"/>
<g id="Fill-1-_x2B_-Fill-2-_x2B_-Fill-3-Copy" transform="translate(0.000000, 589.000000)" sketch:type="MSLayerGroup">
	<path id="Fill-1_6_" sketch:type="MSShapeGroup" class="st0" d="M-176.7,305.6v-0.2c0-0.8,0.6-1.2,1.2-1.2h0.2l3.1-3.2
		c-0.1,0-0.3,0-0.4,0c-2.4,0-4.6,0.6-6.9,1.3c-2.1,0.6-3,2.4-2.4,4.6c0.2,0.8,0.6,1.2,1.4,1.1l1.5-0.2L-176.7,305.6z"/>
	<path id="Fill-2_4_" sketch:type="MSShapeGroup" class="st0" d="M-166.9,301.9l-2.3,2.3c0.4,0.1,0.8,0.5,0.8,1.2
		c0,1.9,0.4,2.2,1.6,2.4c0.4,0.1,1.8,0.2,2.2,0.2c0.8,0.1,1.2-0.3,1.4-1.1c0.5-2.2-0.3-4-2.4-4.6C-166,302.1-166.4,302-166.9,301.9z
		"/>
	<path id="Fill-3_2_" sketch:type="MSShapeGroup" class="st0" d="M-164.3,296.3c-0.5-0.4-1.2-0.4-1.7,0l-14.7,14.7
		c-0.4,0.4-0.4,1.2,0,1.6c0.2,0.2,0.5,0.3,0.8,0.3s0.6-0.1,0.8-0.3l14.7-14.7C-163.9,297.5-163.9,296.8-164.3,296.3z"/>
</g>
<g id="Fill-1-_x2B_-Fill-2-Copy-2" transform="translate(1.000000, 530.000000)" sketch:type="MSLayerGroup">
	<path id="Fill-1_5_" sketch:type="MSShapeGroup" class="st0" d="M-177.3,307.3c-1.7-1.7-3-3.8-4.1-6c-1.1-2-0.5-3.9,1.5-5.1
		c0.7-0.4,1.3-0.4,1.8,0.2c0.2,0.3,1.2,1.4,1.4,1.8c0.8,1,0.8,1.6-0.6,2.9c-0.6,0.6-0.4,1.3,0,1.7l4.3,4.3c0.4,0.4,1.2,0.6,1.7,0
		c1.4-1.4,2-1.4,3-0.6c0.3,0.2,1.4,1.2,1.8,1.4c0.6,0.5,0.7,1.1,0.2,1.8c-1.2,2-3,2.6-5.1,1.5C-173.5,310.3-175.6,309.1-177.3,307.3
		"/>
	<path id="Fill-2_3_" sketch:type="MSShapeGroup" class="st0" d="M-168.8,301.2l-3.4,3.4l-2.5-2.5l3.4-3.4l-1.8-1.8h6v6
		L-168.8,301.2z"/>
</g>
<path id="Imported-Layers-5-Copy" sketch:type="MSShapeGroup" class="st0" d="M-172.5,782c2.4,0,4.6,0.6,6.9,1.3
	c2.1,0.6,3,2.4,2.4,4.6c-0.2,0.8-0.6,1.2-1.4,1.1c-0.4,0-1.8-0.2-2.2-0.2c-1.2-0.2-1.6-0.4-1.6-2.4c0-0.8-0.6-1.2-1.2-1.2h-5.9
	c-0.6,0-1.2,0.4-1.2,1.2c0,1.9-0.4,2.2-1.6,2.4c-0.4,0.1-1.8,0.2-2.2,0.2c-0.8,0.1-1.2-0.3-1.4-1.1c-0.5-2.2,0.3-4,2.4-4.6
	C-177.1,782.6-174.9,782-172.5,782"/>
<g id="reload-copy-7" transform="translate(1.000000, 235.000000)" sketch:type="MSLayerGroup">
	<path id="Fill-13" sketch:type="MSShapeGroup" class="st3" d="M-181.3,304.1c0.5,0.1,1-0.2,1.1-0.6c0.7-2.8,3.2-4.7,6-4.7
		c2.4,0,4.7,1.4,5.7,3.7l-1.7,0.9l3.8,1.4l1.4-3.8l-1.8,0.8c-1.3-2.9-4.2-4.7-7.3-4.7c-3.7,0-6.8,2.5-7.8,6
		C-182.1,303.5-181.8,303.9-181.3,304.1"/>
	<path id="Fill-14" sketch:type="MSShapeGroup" class="st3" d="M-167.9,306.6c-0.7,2.7-3.2,4.7-6,4.7c-2.4,0-4.7-1.4-5.7-3.7
		l1.7-0.9l-3.8-1.4l-1.4,3.8l1.8-0.8c1.3,2.9,4.2,4.7,7.3,4.7c3.7,0,6.8-2.5,7.7-6c0.1-0.5-0.2-1-0.6-1.1S-167.8,306.1-167.9,306.6z
		"/>
</g>
<path id="Imported-Layers-3-Copy" sketch:type="MSShapeGroup" class="st0" d="M-176.3,739.3c-1.7-1.7-3-3.8-4.1-6
	c-1.1-2-0.5-3.9,1.5-5.1c0.7-0.4,1.3-0.4,1.8,0.2c0.2,0.3,1.2,1.4,1.4,1.8c0.8,1,0.8,1.6-0.6,3c-0.6,0.6-0.4,1.3,0,1.7l4.3,4.3
	c0.4,0.4,1.2,0.6,1.7,0c1.4-1.4,2-1.4,2.9-0.6c0.3,0.2,1.4,1.2,1.8,1.4c0.6,0.5,0.7,1.1,0.2,1.8c-1.2,2-3,2.6-5.1,1.5
	C-172.5,742.3-174.6,741.1-176.3,739.3"/>
<path id="Fill-53-Copy-3" sketch:type="MSShapeGroup" class="st4" d="M-177.7,682.7c-0.9-0.9-1.5-1.9-2.1-3c-0.6-1-0.3-1.9,0.8-2.5
	c0.4-0.2,0.6-0.2,0.9,0.1c0.1,0.2,0.6,0.7,0.7,0.9c0.4,0.5,0.4,0.8-0.3,1.5c-0.3,0.3-0.2,0.6,0,0.9l2.2,2.2c0.2,0.2,0.6,0.3,0.9,0
	c0.7-0.7,1-0.7,1.5-0.3c0.2,0.1,0.7,0.6,0.9,0.7c0.3,0.3,0.3,0.6,0.1,0.9c-0.6,1-1.5,1.3-2.5,0.8
	C-175.8,684.1-176.8,683.5-177.7,682.7L-177.7,682.7z"/>
<path id="Fill-1_7_" sketch:type="MSShapeGroup" class="st3" d="M-181,961h14v9h-14V961z M-167,959h-14c-1.1,0-2,0.9-2,2v9
	c0,1.1,0.9,2,2,2h4v1l-4,1v1h14v-1l-4-1v-1h4c1.1,0,2-0.9,2-2v-9C-165,959.9-165.9,959-167,959L-167,959z M-166,970c0,0.6-0.4,1-1,1
	h-14c-0.6,0-1-0.4-1-1v-9c0-0.6,0.4-1,1-1h14c0.6,0,1,0.4,1,1V970L-166,970z"/>
<path class="st16" d="M-36.6,1100.4l-17.9-17.9c-0.3-0.3-0.4-0.9-0.1-1.3c2.9-4.1,4.6-9.2,4.5-14.6c-0.2-13.4-11-24.3-24.4-24.6
	c-14.2-0.3-25.7,11.3-25.4,25.4c0.3,13.4,11.2,24.3,24.6,24.4c5.4,0.1,10.5-1.6,14.6-4.5c0.4-0.3,0.9-0.2,1.3,0.1l17.9,17.9
	c0.8,0.8,2,0.8,2.8,0l2.2-2.2C-35.8,1102.5-35.8,1101.2-36.6,1100.4z M-75.1,1087.4c-11.3,0-20.4-9.2-20.4-20.4s9.2-20.4,20.4-20.4
	c11.3,0,20.4,9.2,20.4,20.4S-63.8,1087.4-75.1,1087.4z"/>
<path id="Fill-2-Copy-2" sketch:type="MSShapeGroup" class="st3" d="M-168.7,1150.1c-0.2-0.2-0.6-0.3-0.9-0.1l-0.9-0.9
	c0.8-1.1,1.3-2.5,1.3-4.1c0-3.8-3.1-6.9-6.9-6.9c-3.8,0-6.9,3.1-6.9,6.9s3.1,6.9,6.9,6.9c1.5,0,2.9-0.5,4.1-1.3l0.9,0.9
	c-0.1,0.3-0.1,0.6,0.1,0.9l3.5,3.5c0.3,0.3,0.8,0.3,1.1,0l1.2-1.2c0.3-0.3,0.3-0.8,0-1.1L-168.7,1150.1z M-181,1145c0-2.8,2.2-5,5-5
	s5,2.2,5,5s-2.2,5-5,5S-181,1147.8-181,1145L-181,1145z"/>
<path class="st3" d="M-174,1178c-5,0-9,4-9,9s4,9,9,9s9-4,9-9S-169,1178-174,1178z M-174,1192l-5-5l1-1l3,3v-7h2v7l3-3l1,1
	L-174,1192z"/>
<g id="Imported-Layers-5-Copy_1_" transform="translate(2.000000, 179.000000)" sketch:type="MSLayerGroup">
	<path id="Fill-1_9_" sketch:type="MSShapeGroup" class="st3" d="M-177.9,1049.9c1.4,1.4,4.4,1.5,5.9,0.1l2.9-2.9
		c1.6-1.6,1.5-4.2-0.1-5.9c-1.6-1.7-4.3-1.7-5.9-0.1l-2.3,2.3c0.8,0,1.7,0.1,2.5,0.5l1.2-1.2c0.8-0.8,2.1-0.8,2.9,0.1
		c0.8,0.8,0.8,2.1,0.1,2.9l-2.9,2.9c-0.8,0.8-2.4,0.5-3.4,0.5L-177.9,1049.9"/>
	<path id="Fill-2_6_" sketch:type="MSShapeGroup" class="st3" d="M-174.1,1046.1c-1.4-1.4-4.5-1.5-5.9-0.1l-2.9,2.9
		c-1.6,1.6-1.5,4.2,0.1,5.9c1.6,1.7,4.3,1.7,5.9,0.1l2.3-2.3c-0.8,0-1.7-0.1-2.5-0.5l-1.2,1.2c-0.8,0.8-2.1,0.8-2.9-0.1
		c-0.8-0.8-0.8-2.1-0.1-2.9l2.9-2.9c0.6-0.6,1.5-0.5,3.4-0.5l0,0L-174.1,1046.1"/>
</g>
<path id="Fill-2-Copy-3" sketch:type="MSShapeGroup" class="st0" d="M-168.7,1270.1c-0.2-0.2-0.6-0.3-0.9-0.1l-0.9-0.9
	c0.8-1.1,1.3-2.5,1.3-4.1c0-3.8-3.1-6.9-6.9-6.9c-3.8,0-6.9,3.1-6.9,6.9s3.1,6.9,6.9,6.9c1.5,0,2.9-0.5,4.1-1.3l0.9,0.9
	c-0.1,0.3-0.1,0.6,0.1,0.9l3.5,3.5c0.3,0.3,0.8,0.3,1.1,0l1.2-1.2c0.3-0.3,0.3-0.8,0-1.1L-168.7,1270.1z M-181,1265c0-2.8,2.2-5,5-5
	s5,2.2,5,5s-2.2,5-5,5S-181,1267.8-181,1265L-181,1265z"/>
<path class="st0" d="M-174,1298c-5,0-9,4-9,9s4,9,9,9s9-4,9-9S-169,1298-174,1298z M-174,1312l-5-5l1-1l3,3v-7h2v7l3-3l1,1
	L-174,1312z"/>
<g id="Imported-Layers-5-Copy-2" transform="translate(2.000000, 299.000000)" sketch:type="MSLayerGroup">
	<path id="Fill-1_8_" sketch:type="MSShapeGroup" class="st0" d="M-177.9,1049.9c1.4,1.4,4.4,1.5,5.9,0.1l2.9-2.9
		c1.6-1.6,1.5-4.2-0.1-5.9c-1.6-1.7-4.3-1.7-5.9-0.1l-2.3,2.3c0.8,0,1.7,0.1,2.5,0.5l1.2-1.2c0.8-0.8,2.1-0.8,2.9,0.1
		c0.8,0.8,0.8,2.1,0.1,2.9l-2.9,2.9c-0.8,0.8-2.4,0.5-3.4,0.5L-177.9,1049.9"/>
	<path id="Fill-2_5_" sketch:type="MSShapeGroup" class="st0" d="M-174.1,1046.1c-1.4-1.4-4.5-1.5-5.9-0.1l-2.9,2.9
		c-1.6,1.6-1.5,4.2,0.1,5.9c1.6,1.7,4.3,1.7,5.9,0.1l2.3-2.3c-0.8,0-1.7-0.1-2.5-0.5l-1.2,1.2c-0.8,0.8-2.1,0.8-2.9-0.1
		c-0.8-0.8-0.8-2.1-0.1-2.9l2.9-2.9c0.6-0.6,1.5-0.5,3.4-0.5l0,0L-174.1,1046.1"/>
</g>
<path class="st0" d="M-174-433c-5,0-9,4-9,9s4,9,9,9s9-4,9-9S-169-433-174-433z M-170-423l-3-3v7h-2v-7l-3,3l-1-1l5-5l5,5L-170-423z
	"/>
<path class="st3" d="M-174,1388c-5,0-9,4-9,9s4,9,9,9s9-4,9-9S-169,1388-174,1388z M-174,1402l-5-5l1-1l3,3v-7h2v7l3-3l1,1
	L-174,1402z"/>
<g id="Imported-Layers-5-Copy_2_" transform="translate(2.000000, 179.000000)" sketch:type="MSLayerGroup">
	<path id="Fill-1_10_" sketch:type="MSShapeGroup" class="st3" d="M-177.9,1259.9c1.4,1.4,4.4,1.5,5.9,0.1l2.9-2.9
		c1.6-1.6,1.5-4.2-0.1-5.9c-1.6-1.7-4.3-1.7-5.9-0.1l-2.3,2.3c0.8,0,1.7,0.1,2.5,0.5l1.2-1.2c0.8-0.8,2.1-0.8,2.9,0.1
		c0.8,0.8,0.8,2.1,0.1,2.9l-2.9,2.9c-0.8,0.8-2.4,0.5-3.4,0.5L-177.9,1259.9"/>
	<path id="Fill-2_7_" sketch:type="MSShapeGroup" class="st3" d="M-174.1,1256.1c-1.4-1.4-4.5-1.5-5.9-0.1l-2.9,2.9
		c-1.6,1.6-1.5,4.2,0.1,5.9c1.6,1.7,4.3,1.7,5.9,0.1l2.3-2.3c-0.8,0-1.7-0.1-2.5-0.5l-1.2,1.2c-0.8,0.8-2.1,0.8-2.9-0.1
		c-0.8-0.8-0.8-2.1-0.1-2.9l2.9-2.9c0.6-0.6,1.5-0.5,3.4-0.5l0,0L-174.1,1256.1"/>
</g>
<g id="ic_chat_1_" transform="translate(4.000000, 1744.000000)" sketch:type="MSLayerGroup">
	<path id="Fill-80_1_" sketch:type="MSShapeGroup" class="st16" d="M-169.1-180.2c-0.5-0.1-0.8-0.5-0.8-0.9c0-0.1,0.1-0.2,0.1-0.2
		c1-0.6,1.8-1.5,1.8-2.6c0.1-2.3-2.1-4.1-4.3-4.7c0.1,1.7-0.4,3.3-1.4,4.6c-0.9,1.1-2.2,1.9-3.7,2.4c0.8,0.7,1.9,1.2,3.1,1.2
		c0.7,0.1,1.5,0,2.2-0.1c0.8,0.6,2,0.7,2.9,0.6C-168.8-180-168.9-180.2-169.1-180.2"/>
	<path id="Fill-81_1_" sketch:type="MSShapeGroup" class="st0" d="M-173.9-189.8c-0.8-3.6-4.4-4.7-7.8-4c-3.2,0.7-6.4,3.1-6.3,6.4
		c0,1.5,1,2.7,2.4,3.5c0.1,0.1,0.2,0.2,0.2,0.3c0,0.6-0.5,1.1-1.1,1.2c-0.3,0.1-0.4,0.2,0,0.3c1.3,0.1,2.8,0,3.9-0.8
		c1,0.1,2,0.2,2.9,0.1C-175.7-183-173-185.9-173.9-189.8"/>
</g>
<path id="Fill-57-Copy-2" sketch:type="MSShapeGroup" class="st3" d="M-183,1597c0,5,4,9,9,9s9-4,9-9s-4-9-9-9S-183,1592-183,1597
	L-183,1597z M-175,1592h2v4h4v2h-4v4h-2v-4h-4v-2h4V1592L-175,1592z"/>
<path id="Fill-57-Copy-2_1_" sketch:type="MSShapeGroup" class="st0" d="M-183,1637c0,5,4,9,9,9s9-4,9-9s-4-9-9-9
	S-183,1632-183,1637L-183,1637z M-175,1632h2v4h4v2h-4v4h-2v-4h-4v-2h4V1632L-175,1632z"/>
<g id="ic_chat_2_" transform="translate(4.000000, 1744.000000)" sketch:type="MSLayerGroup">
	<path id="Fill-80_2_" sketch:type="MSShapeGroup" class="st17" d="M-169.1-260.2c-0.5-0.1-0.8-0.5-0.8-0.9c0-0.1,0.1-0.2,0.1-0.2
		c1-0.6,1.8-1.5,1.8-2.6c0.1-2.3-2.1-4.1-4.3-4.7c0.1,1.7-0.4,3.3-1.4,4.6c-0.9,1.1-2.2,1.9-3.7,2.4c0.8,0.7,1.9,1.2,3.1,1.2
		c0.7,0.1,1.5,0,2.2-0.1c0.8,0.6,2,0.7,2.9,0.6C-168.8-260-168.9-260.2-169.1-260.2"/>
	<path id="Fill-81_2_" sketch:type="MSShapeGroup" class="st3" d="M-173.9-269.8c-0.8-3.6-4.4-4.7-7.8-4c-3.2,0.7-6.4,3.1-6.3,6.4
		c0,1.5,1,2.7,2.4,3.5c0.1,0.1,0.2,0.2,0.2,0.3c0,0.6-0.5,1.1-1.1,1.2c-0.3,0.1-0.4,0.2,0,0.3c1.3,0.1,2.8,0,3.9-0.8
		c1,0.1,2,0.2,2.9,0.1C-175.7-263-173-265.9-173.9-269.8"/>
</g>
<g transform="translate(9.000000, 307.000000)" sketch:type="MSLayerGroup">
	<path id="Fill-1_25_" sketch:type="MSShapeGroup" class="st0" d="M-160,1699l-0.9,6.6l-7.6-6.6l-0.5,0.5l6.6,7.6l-6.6,0.9v1h10v-10
		H-160z"/>
	<path id="Fill-2_10_" sketch:type="MSShapeGroup" class="st0" d="M-157,1711v10h1l0.9-6.6l7.6,6.6l0.5-0.5l-6.6-7.6l6.6-0.9v-1
		H-157z"/>
</g>
<path id="Fill-1_24_" sketch:type="MSShapeGroup" class="st0" d="M-138,1920c0,2.2-1.8,4-4,4h-16c-2.2,0-4-1.8-4-4v-12
	c0-2.2,1.8-4,4-4h16c2.2,0,4,1.8,4,4V1920z M-142,1902h-16c-3.3,0-6,2.7-6,6v12c0,3.3,2.7,6,6,6h16c3.3,0,6-2.7,6-6v-12
	C-136,1904.7-138.7,1902-142,1902z M-126,1921.3l-6-6.1v-2.3c1.2-1.2,3.8-3.8,6-6.1V1921.3z M-126.6,1904.5
	c-2.3,2.4-5.5,5.6-6.8,6.9c-0.4,0.4-0.6,0.9-0.6,1.5v2.3c0,0.5,0.2,1.1,0.6,1.4l6.9,6.9c0.9,1,2.6,0.3,2.6-1.1v-17
	C-124,1904.2-125.6,1903.5-126.6,1904.5L-126.6,1904.5z"/>
<path id="Fill-1_23_" sketch:type="MSShapeGroup" class="st0" d="M-141,1783c0,2.8-2.2,5-5,5s-5-2.2-5-5v-8c0-2.8,2.2-5,5-5
	s5,2.2,5,5V1783z M-146,1768c-3.9,0-7,3.1-7,7v8c0,3.9,3.1,7,7,7s7-3.1,7-7v-8C-139,1771.1-142.1,1768-146,1768z M-137,1780v3
	c0,5-4,9-9,9s-9-4-9-9v-3c-1.1,0-2,0.9-2,2v1c0,5.7,4.4,10.4,10,10.9v4.1h-4c-1.1,0-2,0.9-2,2h14c0-1.1-0.9-2-2-2h-4v-4.1
	c5.6-0.5,10-5.2,10-10.9v-1C-135,1780.9-135.9,1780-137,1780z"/>
<g transform="translate(104.000000, 211.000000)" sketch:type="MSLayerGroup">
	<g id="Clip-2">
	</g>
	<path id="Fill-1_22_" sketch:type="MSShapeGroup" class="st18" d="M-254.2,1751.1h12.5c1.7,0,3.5,1.2,3.5,3.4c0,3.7,0.7,3.8,2.5,4
		c0.5,0.1,2.1,0.2,3.2,0.3l1.3,0.1c1.1,0.1,1.6-0.3,1.9-1.5c1-4-0.5-6.9-4.4-8c-4.5-1.3-9.3-2.5-14.3-2.5c-4.9,0-9.8,1.2-14.3,2.5
		c-3.9,1.1-5.5,3.9-4.4,8c0.3,1.2,0.8,1.6,1.9,1.5c0.3,0,0.7-0.1,1.3-0.1c1.2-0.1,2.7-0.2,3.2-0.3c1.7-0.2,2.5-0.3,2.5-4
		C-257.8,1752.3-255.9,1751.1-254.2,1751.1 M-230.9,1761c-0.2,0-0.3,0-0.5,0l-1.3-0.1c-1.2-0.1-2.8-0.3-3.3-0.3
		c-3.2-0.4-4.3-1.9-4.2-6c0-1.1-1-1.4-1.5-1.4h-12.5c-0.6,0-1.5,0.3-1.5,1.4c0,4.1-1,5.6-4.2,6c-0.6,0.1-2.1,0.2-3.3,0.3l-1.3,0.1
		c-1.5,0.1-3.4-0.3-4.1-3c-1.3-5.1,0.9-9,5.8-10.4c4.6-1.3,9.6-2.6,14.8-2.6s10.2,1.3,14.8,2.6c5,1.4,7.1,5.3,5.8,10.4
		C-228,1760.4-229.6,1761-230.9,1761"/>
</g>
<g id="Fill-1-_x2B_-Fill-3" transform="translate(10.000000, 146.000000)" sketch:type="MSLayerGroup">
	<path id="Fill-1_21_" sketch:type="MSShapeGroup" class="st16" d="M-149.8,1702.3l0.2,2c0.2,2.3-0.3,4.4-1.6,6.1s-3.3,2.9-5.7,3.4
		l-2.4,0.5l1.5,1.9c1.6,2,4.1,3.2,7,3.4c0.3,0,0.7,0,1.1,0c0.7,0,1.5,0,2.3-0.1c1.1,0.7,2.5,1,4.2,1c0.4,0,0.7,0,1.2,0
		c1.2-0.1,1.7-0.9,1.7-1.5c0.1-0.6-0.2-1.4-1.2-1.7c1.4-1.2,2.7-2.7,2.8-4.9c0.1-5-4.5-8.6-9.1-9.6h-0.2L-149.8,1702.3z
		 M-148.1,1704.1h0.2c4,0.9,8,3.9,7.9,8.1c-0.1,1.9-1.4,3.2-3,4.4c-0.1,0.1-0.2,0.2-0.3,0.4c0,0.8,0.6,1.3,1.3,1.5
		c0.4,0.1,0.5,0.3,0,0.4c-0.3,0-0.7,0-1.1,0c-1.4,0-2.8-0.2-3.8-1.1c-0.9,0.1-1.8,0.2-2.7,0.2c-0.3,0-0.7,0-1,0
		c-2.6-0.2-4.7-1.2-6-2.8c2.7-0.6,5-1.9,6.5-4C-148.5,1709.3-147.8,1706.8-148.1,1704.1L-148.1,1704.1z"/>
	<path id="Fill-3_7_" sketch:type="MSShapeGroup" class="st0" d="M-161.7,1697.3c-4.7,1.1-9.4,4.7-9.3,9.6c0.1,2.5,1.8,4,3.3,4.9
		c0.5,0.3,0.8,0.8,0.8,1.4s-0.1,1.1-0.4,1.5c1.2-0.1,2.4-0.4,3.3-1.1l0.3-0.3l0.4,0.1c1.8,0.2,3.2,0.3,4.5,0.2
		c3-0.2,5.6-1.5,7.1-3.5c1.4-1.9,1.9-4.3,1.3-6.9c-0.4-2.1-1.5-3.6-3.2-4.7C-155.5,1697-158.6,1696.6-161.7,1697.3 M-168.2,1716.7
		c-0.5,0-1,0-1.4-0.1c-1.2-0.1-1.4-0.9-1.4-1.1c0-0.5,0.2-1.1,1.2-1.3c0.2-0.1,0.9-0.3,1-0.8c-2.6-1.5-4.1-3.8-4.1-6.4
		c-0.1-6,5.4-10.4,10.9-11.6l0,0c3.6-0.8,7.2-0.3,9.8,1.3c2.1,1.3,3.5,3.4,4,6c0.7,3.2,0.1,6.2-1.6,8.6c-1.9,2.5-4.9,4.1-8.5,4.3
		c-1.3,0.1-2.8,0-4.5-0.2C-164.6,1716.5-166.5,1716.7-168.2,1716.7"/>
</g>
<g id="Fill-1-_x2B_-Fill-3_1_" transform="translate(90.000000, 146.000000)" sketch:type="MSLayerGroup">
	<path id="Fill-1_20_" sketch:type="MSShapeGroup" class="st19" d="M-159.8,1702.3l0.2,2c0.2,2.3-0.3,4.4-1.6,6.1s-3.3,2.9-5.7,3.4
		l-2.4,0.5l1.5,1.9c1.6,2,4.1,3.2,7,3.4c0.3,0,0.7,0,1.1,0c0.7,0,1.5,0,2.3-0.1c1.1,0.7,2.5,1,4.2,1c0.4,0,0.7,0,1.2,0
		c1.2-0.1,1.7-0.9,1.7-1.5c0.1-0.6-0.2-1.4-1.2-1.7c1.4-1.2,2.7-2.7,2.8-4.9c0.1-5-4.5-8.6-9.1-9.6h-0.2L-159.8,1702.3z
		 M-158.1,1704.1h0.2c4,0.9,8,3.9,7.9,8.1c-0.1,1.9-1.4,3.2-3,4.4c-0.1,0.1-0.2,0.2-0.3,0.4c0,0.8,0.6,1.3,1.3,1.5
		c0.4,0.1,0.5,0.3,0,0.4c-0.3,0-0.7,0-1.1,0c-1.4,0-2.8-0.2-3.8-1.1c-0.9,0.1-1.8,0.2-2.7,0.2c-0.3,0-0.7,0-1,0
		c-2.6-0.2-4.7-1.2-6-2.8c2.7-0.6,5-1.9,6.5-4C-158.5,1709.3-157.8,1706.8-158.1,1704.1L-158.1,1704.1z"/>
	<path id="Fill-3_6_" sketch:type="MSShapeGroup" class="st20" d="M-171.7,1697.3c-4.7,1.1-9.4,4.7-9.3,9.6c0.1,2.5,1.8,4,3.3,4.9
		c0.5,0.3,0.8,0.8,0.8,1.4s-0.1,1.1-0.4,1.5c1.2-0.1,2.4-0.4,3.3-1.1l0.3-0.3l0.4,0.1c1.8,0.2,3.2,0.3,4.5,0.2
		c3-0.2,5.6-1.5,7.1-3.5c1.4-1.9,1.9-4.3,1.3-6.9c-0.4-2.1-1.5-3.6-3.2-4.7C-165.5,1697-168.6,1696.6-171.7,1697.3 M-178.2,1716.7
		c-0.5,0-1,0-1.4-0.1c-1.2-0.1-1.4-0.9-1.4-1.1c0-0.5,0.2-1.1,1.2-1.3c0.2-0.1,0.9-0.3,1-0.8c-2.6-1.5-4.1-3.8-4.1-6.4
		c-0.1-6,5.4-10.4,10.9-11.6l0,0c3.6-0.8,7.2-0.3,9.8,1.3c2.1,1.3,3.5,3.4,4,6c0.7,3.2,0.1,6.2-1.6,8.6c-1.9,2.5-4.9,4.1-8.5,4.3
		c-1.3,0.1-2.8,0-4.5-0.2C-174.6,1716.5-176.5,1716.7-178.2,1716.7"/>
</g>
<path id="Fill-1_18_" sketch:type="MSShapeGroup" class="st0" d="M-56,1921.3l-6-6.1v-2.3c1.2-1.2,3.8-3.8,6-6.1V1921.3z
	 M-56.6,1904.5c-2.3,2.4-5.5,5.6-6.8,6.9c-0.4,0.4-0.6,0.9-0.6,1.5v2.3c0,0.5,0.2,1.1,0.6,1.4l6.9,6.9c0.9,1,2.6,0.3,2.6-1.1v-17
	C-54,1904.2-55.6,1903.5-56.6,1904.5z M-91.4,1922.1c-0.4-0.6-0.6-1.3-0.6-2.1v-12c0-2.2,1.8-4,4-4h14.8l2-2c-0.2,0-0.5,0-0.7,0h-16
	c-3.3,0-6,2.7-6,6v12c0,1.3,0.4,2.6,1.2,3.6L-91.4,1922.1z M-68.1,1907.3c0,0.2,0.1,0.5,0.1,0.7v12c0,2.2-1.8,4-4,4h-12.8l-2,2H-72
	c3.3,0,6-2.7,6-6v-12c0-0.8-0.2-1.6-0.5-2.3L-68.1,1907.3z"/>
<path id="Fill-7" sketch:type="MSShapeGroup" class="st18" d="M-92,1928c-0.3,0-0.5-0.1-0.7-0.3c-0.4-0.4-0.4-1,0-1.4l26-26
	c0.4-0.4,1-0.4,1.4,0s0.4,1,0,1.4l-26,26C-91.5,1927.9-91.7,1928-92,1928"/>
<path id="Fill-2-Copy_1_" sketch:type="MSShapeGroup" class="st0" d="M-71,1734l5,4v-10l-5,4V1734z M-84,1729c0-1.1,0.9-2,2-2h8
	c1.1,0,2,0.9,2,2v8c0,1.1-0.9,2-2,2h-8c-1.1,0-2-0.9-2-2V1729z"/>
<g id="Group" transform="translate(60.000000, 1.000000)" sketch:type="MSLayerGroup">
	<path id="Fill-1_17_" sketch:type="MSShapeGroup" class="st0" d="M-205,1732.5v-1.4l-4.7,4.7c0.4,0.1,0.8,0.2,1.2,0.2
		C-206.6,1736-205,1734.4-205,1732.5"/>
	<path id="Fill-3_5_" sketch:type="MSShapeGroup" class="st0" d="M-205.3,1727.1c-0.5-1.3-1.8-2.2-3.2-2.2c-1.9,0-3.5,1.6-3.5,3.5v4
		c0,0.4,0.1,0.8,0.2,1.2L-205.3,1727.1z"/>
	<path id="Fill-6_4_" sketch:type="MSShapeGroup" class="st0" d="M-204,1732.5c0,2.5-2,4.5-4.5,4.5c-0.7,0-1.3-0.2-1.9-0.4l-0.6,0.6
		c0.7,0.4,1.4,0.7,2,0.8v2h-3v1h7v-1h-3v-2c3-0.3,5-2.6,5-5.5v-1.5h-1V1732.5z"/>
	<path id="Fill-8" sketch:type="MSShapeGroup" class="st0" d="M-212.5,1734.4c-0.3-0.6-0.4-1.2-0.4-1.9v-1.5h-1v1.5
		c0,0.9,0.3,1.8,0.8,2.6L-212.5,1734.4z"/>
	<path id="Fill-10_2_" sketch:type="MSShapeGroup" class="st0" d="M-215.5,1740c-0.1,0-0.3,0-0.4-0.1c-0.2-0.2-0.2-0.5,0-0.7l13-13
		c0.2-0.2,0.5-0.2,0.7,0s0.2,0.5,0,0.7l-13,13C-215.2,1740-215.4,1740-215.5,1740"/>
</g>
<path id="Fill-10_4_" sketch:type="MSShapeGroup" class="st18" d="M-89,1799c-0.3,0-0.5-0.1-0.7-0.3c-0.4-0.4-0.4-1,0-1.4l26-26
	c0.4-0.4,1-0.4,1.4,0s0.4,1,0,1.4l-26,26C-88.5,1798.9-88.7,1799-89,1799"/>
<path id="Fill-1_27_" sketch:type="MSShapeGroup" class="st0" d="M-69,1784v-1.8l-2,2c-0.1,2.5-2.2,4.6-4.7,4.7l-1.8,1.8
	c0.5,0.1,1,0.2,1.6,0.2C-72.1,1791-69,1787.9-69,1784z M-80.7,1785.5c-0.2-0.5-0.3-1-0.3-1.5v-8c0-2.8,2.2-5,5-5
	c2.7,0,4.9,2.1,5,4.8l1.7-1.7c-0.8-2.9-3.5-5-6.7-5c-3.9,0-7,3.1-7,7v8c0,1.1,0.3,2.1,0.7,3.1L-80.7,1785.5z M-67,1784c0,5-4,9-9,9
	c-1.1,0-2.2-0.2-3.2-0.6l-1.5,1.5c1.1,0.5,2.4,0.9,3.7,1v4.1h-4c-1.1,0-2,0.9-2,2h14c0-1.1-0.9-2-2-2h-4v-4.1
	c5.6-0.5,10-5.2,10-10.9v-3h-2V1784z M-83.8,1788.5c-0.8-1.3-1.2-2.9-1.2-4.5v-3h-2v3c0,2.2,0.7,4.3,1.8,6L-83.8,1788.5z"/>
<g>
	<path id="Fill-10_3_" class="st18" d="M21.7,1797.2c-0.2,0-0.3-0.1-0.5-0.2c-0.3-0.3-0.3-0.7,0-0.9l17.1-17.1
		c0.3-0.3,0.7-0.3,0.9,0s0.3,0.7,0,0.9L22.1,1797C22,1797.1,21.8,1797.2,21.7,1797.2"/>
	<path id="Fill-1_30_" class="st0" d="M34.8,1787.3v-1.2l-1.3,1.3c-0.1,1.7-1.4,3-3.1,3.1l-1.2,1.2c0.3,0.1,0.7,0.1,1,0.1
		C32.7,1791.9,34.8,1789.9,34.8,1787.3z M27.1,1788.3c-0.1-0.3-0.2-0.6-0.2-1v-5.2c0-1.8,1.5-3.3,3.3-3.3s3.2,1.4,3.3,3.1l1.1-1.1
		c-0.6-1.9-2.3-3.3-4.4-3.3c-2.5,0-4.6,2.1-4.6,4.6v5.2c0,0.7,0.2,1.4,0.5,2L27.1,1788.3z M36.1,1787.3c0,3.3-2.6,5.9-5.9,5.9
		c-0.7,0-1.4-0.1-2.1-0.4l-1,1c0.7,0.4,1.6,0.6,2.4,0.7v2.7h-2.6c-0.7,0-1.3,0.6-1.3,1.3h9.2c0-0.7-0.6-1.3-1.3-1.3h-2.6v-2.7
		c3.7-0.3,6.6-3.4,6.6-7.2v-2h-1.3v2H36.1z M25.1,1790.3c-0.5-0.9-0.8-1.9-0.8-3v-2H23v2c0,1.4,0.4,2.8,1.2,3.9L25.1,1790.3z"/>
</g>
<path id="Fill-22" sketch:type="MSShapeGroup" class="st21" d="M-9.7,1961c3.3,0,6.5,0.8,9.7,1.7c3,0.9,4.2,3.1,3.4,6.1
	c-0.3,1.1-0.9,1.6-2,1.5c-0.5-0.1-2.5-0.2-3-0.3c-1.7-0.2-2.3-0.8-2.2-3.3c0-1.1-0.8-1.6-1.7-1.6h-8.3c-0.8,0-1.7,0.6-1.7,1.6
	c0,2.6-0.6,3.1-2.2,3.3c-0.5,0.1-2.5,0.2-3,0.3c-1.1,0.1-1.7-0.4-2-1.5c-0.8-3,0.4-5.3,3.4-6.1C-16.2,1961.8-13,1961-9.7,1961"/>
<path id="Fill-1-Copy-2" sketch:type="MSShapeGroup" class="st0" d="M20,2011v7.9h1.1l0.7-4.9l4.9,4.9l1.1-1.1l-4.9-4.9l4.9-0.7
	v-1.1L20,2011L20,2011z M36.9,2021.1l-0.7,4.9l-4.9-4.9l-1.1,1.1l4.9,4.9l-4.9,0.7v1.1H38v-7.9L36.9,2021.1L36.9,2021.1z"/>
<g id="Page-1" transform="translate(300.311475, 0.906328)" sketch:type="MSShapeGroup">
	<path id="Fill-1_29_" class="st0" d="M-312.8,2011l-0.7,5.1l-6-5.1l-0.4,0.4l5.2,5.9l-5.2,0.7v0.8h8v-7.8H-312.8L-312.8,2011z"/>
	<path id="Fill-2_12_" class="st0" d="M-310.5,2020.4v7.8h0.8l0.7-5.1l6,5.1l0.4-0.4l-5.2-5.9l5.2-0.7v-0.8L-310.5,2020.4
		L-310.5,2020.4z"/>
</g>
<g id="Fill-80-_x2B_-Fill-81_1_" transform="translate(61.000000, 2.000000)" sketch:type="MSLayerGroup">
	<path id="Fill-80_3_" sketch:type="MSShapeGroup" class="st22" d="M-20.2,1863.1c0-0.1,0.1-0.3,0.2-0.3c1.4-0.8,2.3-1.9,2.4-3.5
		c0.1-3.1-2.7-5.5-5.7-6.3c0.1,2.3-0.5,4.4-1.9,6.1c-1.2,1.5-2.9,2.6-4.9,3.2c1.1,0.9,2.5,1.5,4.2,1.7c1,0.1,1.9,0,2.9-0.1
		c1.1,0.9,2.6,0.9,3.9,0.8c0.4,0,0.3-0.2,0-0.3C-19.8,1864.2-20.3,1863.7-20.2,1863.1z"/>
	<path id="Fill-81_3_" sketch:type="MSShapeGroup" class="st23" d="M-25.5,1851.6c-1.1-4.7-5.8-6.3-10.5-5.3
		c-4.2,0.9-8.5,4.2-8.4,8.6c0.1,2,1.3,3.6,3.2,4.6c0.1,0.1,0.3,0.2,0.3,0.4c0,0.9-0.6,1.4-1.4,1.7c-0.4,0.1-0.5,0.3,0,0.4
		c1.7,0.1,3.8,0.1,5.2-1.1c1.3,0.2,2.6,0.3,3.9,0.2C-27.9,1860.7-24.3,1856.8-25.5,1851.6"/>
</g>
<g id="Fill-80-_x2B_-Fill-81_2_" transform="translate(1.000000, 2.000000)" sketch:type="MSLayerGroup">
	<path id="Fill-80_5_" sketch:type="MSShapeGroup" class="st24" d="M-0.2,1863.1c0-0.1,0.1-0.3,0.2-0.3c1.4-0.8,2.3-1.9,2.4-3.5
		c0.1-3.1-2.7-5.5-5.7-6.3c0.1,2.3-0.5,4.4-1.9,6.1c-1.2,1.5-2.9,2.6-4.9,3.2c1.1,0.9,2.5,1.5,4.2,1.7c1,0.1,1.9,0,2.9-0.1
		c1.1,0.9,2.6,0.9,3.9,0.8c0.4,0,0.3-0.2,0-0.3C0.2,1864.2-0.3,1863.7-0.2,1863.1z"/>
	<path id="Fill-81_5_" sketch:type="MSShapeGroup" class="st25" d="M-5.5,1851.6c-1.1-4.7-5.8-6.3-10.5-5.3
		c-4.2,0.9-8.5,4.2-8.4,8.6c0.1,2,1.3,3.6,3.2,4.6c0.1,0.1,0.3,0.2,0.3,0.4c0,0.9-0.6,1.4-1.4,1.7c-0.4,0.1-0.5,0.3,0,0.4
		c1.7,0.1,3.8,0.1,5.2-1.1c1.3,0.2,2.6,0.3,3.9,0.2C-7.9,1860.7-4.3,1856.8-5.5,1851.6"/>
</g>
<path id="Fill-1_32_" class="st0" d="M-6.5,1787.3c0,1.8-1.5,3.3-3.3,3.3s-3.3-1.5-3.3-3.3v-5.2c0-1.8,1.5-3.3,3.3-3.3
	s3.3,1.5,3.3,3.3V1787.3z M-9.8,1777.5c-2.5,0-4.6,2.1-4.6,4.6v5.2c0,2.5,2.1,4.6,4.6,4.6s4.6-2.1,4.6-4.6v-5.2
	C-5.2,1779.6-7.3,1777.5-9.8,1777.5z M-3.9,1785.4v2c0,3.3-2.6,5.9-5.9,5.9s-5.9-2.6-5.9-5.9v-2c-0.7,0-1.3,0.9-1.3,2
	c0,3.8,2.9,6.9,6.6,7.2v2.7H-13c-0.7,0-1.3,0.6-1.3,1.3h9.2c0-0.7-0.6-1.3-1.3-1.3H-9v-2.7c3.7-0.3,6.6-3.4,6.6-7.2
	C-2.6,1786.3-3.5,1785.4-3.9,1785.4z"/>
<path id="Fill-1_33_" class="st0" d="M-5.9,1921.9c0,1.4-1.2,2.6-2.6,2.6H-19c-1.5,0-2.6-1.2-2.6-2.6v-7.7c0-1.4,1.2-2.6,2.6-2.6
	h10.5c1.5,0,2.6,1.2,2.6,2.6V1921.9z M-8.5,1910.3H-19c-2.2,0-4,1.7-4,3.9v7.7c0,2.1,1.8,3.9,4,3.9h10.5c2.2,0,3.9-1.7,3.9-3.9v-7.7
	C-4.6,1912-6.3,1910.3-8.5,1910.3z M2,1922.7l-3.9-3.9v-1.5c0.8-0.7,2.5-2.4,3.9-3.9V1922.7z M1.6,1911.9c-1.5,1.5-3.6,3.6-4.5,4.5
	c-0.3,0.2-0.4,0.6-0.4,0.9v1.5c0,0.3,0.1,0.7,0.4,0.9l4.5,4.5c0.6,0.6,1.7,0.2,1.7-0.7v-10.9C3.3,1911.7,2.3,1911.3,1.6,1911.9
	L1.6,1911.9z"/>
<g>
	<path id="Fill-1_34_" class="st0" d="M42.1,1922.7l-3.9-3.9v-1.5c0.8-0.7,2.5-2.4,4-3.9L42.1,1922.7L42.1,1922.7z M41.7,1911.9
		c-1.5,1.5-3.6,3.6-4.5,4.5c-0.3,0.2-0.4,0.6-0.4,0.9v1.5c0,0.3,0.1,0.7,0.4,0.9l4.5,4.5c0.6,0.6,1.7,0.2,1.7-0.7v-10.9
		C43.4,1911.7,42.3,1911.3,41.7,1911.9z M18.8,1923.2c-0.3-0.4-0.4-0.9-0.4-1.4v-7.7c0-1.4,1.2-2.6,2.6-2.6h9.7l1.3-1.3
		c-0.2,0-0.3,0-0.5,0H21c-2.2,0-4,1.7-4,3.9v7.7c0,0.9,0.3,1.7,0.8,2.3L18.8,1923.2z M34.1,1913.7c0,0.1,0,0.3,0,0.4v7.7
		c0,1.4-1.2,2.6-2.6,2.6h-8.4l-1.3,1.3h9.7c2.2,0,4-1.7,4-3.9v-7.7c0-0.5-0.1-1-0.3-1.5L34.1,1913.7z"/>
	<path id="Fill-7_2_" class="st18" d="M18.4,1927c-0.2,0-0.3-0.1-0.5-0.2c-0.3-0.3-0.3-0.7,0-0.9l17.1-16.7c0.3-0.3,0.7-0.3,0.9,0
		c0.3,0.3,0.3,0.7,0,0.9l-17.1,16.7C18.7,1926.9,18.5,1927,18.4,1927"/>
</g>
<g id="Page-1_1_" sketch:type="MSPage">
	<rect id="Rectangle-49" x="-175" y="2072" sketch:type="MSShapeGroup" class="st6" width="10" height="2">
	</rect>
</g>
<g id="Page-1_2_" sketch:type="MSPage">
	<rect id="Rectangle-49_1_" x="-135" y="2072" sketch:type="MSShapeGroup" class="st6" width="10" height="2">
	</rect>
</g>
<g id="Page-1_3_" sketch:type="MSPage">
	<rect id="Rectangle-49_2_" x="-131" y="2068" sketch:type="MSShapeGroup" class="st6" width="2" height="10">
	</rect>
</g>
<path id="Fill-1_19_" sketch:type="MSShapeGroup" class="st0" d="M-90,2006v10h1l0.9-6.6l7.6,6.6l0.5-0.5l-6.6-7.6l6.6-0.9v-1H-90z"
	/>
<path id="Fill-2_13_" sketch:type="MSShapeGroup" class="st0" d="M-69,2018l-0.9,6.6l-7.6-6.6l-0.5,0.5l6.6,7.6l-6.6,0.9v1h10v-10
	H-69L-69,2018z"/>
<path id="Fill-2-Copy_2_" sketch:type="MSShapeGroup" class="st4" d="M-1,1734l5,4v-10l-5,4V1734z M-14,1729c0-1.1,0.9-2,2-2h8
	c1.1,0,2,0.9,2,2v8c0,1.1-0.9,2-2,2h-8c-1.1,0-2-0.9-2-2V1729z"/>
<path id="Fill-2-Copy_3_" sketch:type="MSShapeGroup" class="st3" d="M39,1734l5,4v-10l-5,4V1734z M26,1729c0-1.1,0.9-2,2-2h8
	c1.1,0,2,0.9,2,2v8c0,1.1-0.9,2-2,2h-8c-1.1,0-2-0.9-2-2V1729z"/>
<g id="Group_1_" transform="translate(60.000000, 1.000000)" sketch:type="MSLayerGroup">
	<path id="Fill-1_26_" sketch:type="MSShapeGroup" class="st3" d="M-168,1732.5v-1.4l-4.7,4.7c0.4,0.1,0.8,0.2,1.2,0.2
		C-169.6,1736-168,1734.4-168,1732.5"/>
	<path id="Fill-3_8_" sketch:type="MSShapeGroup" class="st3" d="M-168.3,1727.1c-0.5-1.3-1.8-2.2-3.2-2.2c-1.9,0-3.5,1.6-3.5,3.5v4
		c0,0.4,0.1,0.8,0.2,1.2L-168.3,1727.1z"/>
	<path id="Fill-6_5_" sketch:type="MSShapeGroup" class="st3" d="M-167,1732.5c0,2.5-2,4.5-4.5,4.5c-0.7,0-1.3-0.2-1.9-0.4l-0.6,0.6
		c0.7,0.4,1.4,0.7,2,0.8v2h-3v1h7v-1h-3v-2c3-0.3,5-2.6,5-5.5v-1.5h-1V1732.5z"/>
	<path id="Fill-8_1_" sketch:type="MSShapeGroup" class="st3" d="M-175.5,1734.4c-0.3-0.6-0.4-1.2-0.4-1.9v-1.5h-1v1.5
		c0,0.9,0.3,1.8,0.8,2.6L-175.5,1734.4z"/>
	<path id="Fill-10_5_" sketch:type="MSShapeGroup" class="st3" d="M-178.5,1740c-0.1,0-0.3,0-0.4-0.1c-0.2-0.2-0.2-0.5,0-0.7l13-13
		c0.2-0.2,0.5-0.2,0.7,0s0.2,0.5,0,0.7l-13,13C-178.2,1740-178.4,1740-178.5,1740"/>
</g>
<g id="Page-1_4_" sketch:type="MSPage">
	<g id="Group_2_" transform="translate(1.000000, 1.000000)" sketch:type="MSLayerGroup">
		<path id="Fill-1_28_" sketch:type="MSShapeGroup" class="st4" d="M-2,2111v2l5,4v-10L-2,2111z"/>
		<path id="Fill-2_11_" sketch:type="MSShapeGroup" class="st4" d="M-12.8,2117.9c0.2,0.1,0.5,0.1,0.8,0.1h6c1.7,0,3-1.3,3-3v-6
			c0-0.3,0-0.5-0.1-0.8L-12.8,2117.9z"/>
		<path id="Fill-4_4_" sketch:type="MSShapeGroup" class="st4" d="M-5.2,2106.1c-0.2-0.1-0.5-0.1-0.8-0.1h-6c-1.7,0-3,1.3-3,3v6
			c0,0.3,0,0.5,0.1,0.8L-5.2,2106.1z"/>
		<path id="Fill-6_6_" sketch:type="MSShapeGroup" class="st4" d="M-15.5,2119c-0.1,0-0.3,0-0.4-0.1c-0.2-0.2-0.2-0.5,0-0.7l13-13
			c0.2-0.2,0.5-0.2,0.7,0s0.2,0.5,0,0.7l-13,13C-15.2,2119-15.4,2119-15.5,2119"/>
	</g>
</g>
<g id="Page-1_5_" sketch:type="MSPage">
	<g id="Group_3_" transform="translate(1.000000, 1.000000)" sketch:type="MSLayerGroup">
		<path id="Fill-1_31_" sketch:type="MSShapeGroup" class="st0" d="M-72,2111v2l5,4v-10L-72,2111z"/>
		<path id="Fill-2_14_" sketch:type="MSShapeGroup" class="st0" d="M-82.8,2117.9c0.2,0.1,0.5,0.1,0.8,0.1h6c1.6,0,3-1.3,3-3v-6
			c0-0.3,0-0.5-0.1-0.8L-82.8,2117.9z"/>
		<path id="Fill-4_5_" sketch:type="MSShapeGroup" class="st0" d="M-75.2,2106.1c-0.2-0.1-0.5-0.1-0.8-0.1h-6c-1.6,0-3,1.3-3,3v6
			c0,0.3,0,0.5,0.1,0.8L-75.2,2106.1z"/>
		<path id="Fill-6_7_" sketch:type="MSShapeGroup" class="st0" d="M-85.5,2119c-0.1,0-0.3,0-0.4-0.1c-0.2-0.2-0.2-0.5,0-0.7l13-13
			c0.2-0.2,0.5-0.2,0.7,0s0.2,0.5,0,0.7l-13,13C-85.2,2119-85.4,2119-85.5,2119"/>
	</g>
</g>
<g id="Page-1_6_" sketch:type="MSPage">
	<g id="Group_4_" transform="translate(1.000000, 1.000000)" sketch:type="MSLayerGroup">
		<path id="Fill-1_35_" sketch:type="MSShapeGroup" class="st3" d="M38,2111v2l5,4v-10L38,2111z"/>
		<path id="Fill-2_15_" sketch:type="MSShapeGroup" class="st3" d="M27.2,2117.9c0.2,0.1,0.5,0.1,0.8,0.1h6c1.7,0,3-1.3,3-3v-6
			c0-0.3,0-0.5-0.1-0.8L27.2,2117.9z"/>
		<path id="Fill-4_6_" sketch:type="MSShapeGroup" class="st3" d="M34.8,2106.1c-0.2-0.1-0.5-0.1-0.8-0.1h-6c-1.6,0-3,1.3-3,3v6
			c0,0.3,0,0.5,0.1,0.8L34.8,2106.1z"/>
		<path id="Fill-6_8_" sketch:type="MSShapeGroup" class="st3" d="M24.5,2119c-0.1,0-0.3,0-0.4-0.1c-0.2-0.2-0.2-0.5,0-0.7l13-13
			c0.2-0.2,0.5-0.2,0.7,0s0.2,0.5,0,0.7l-13,13C24.8,2119,24.6,2119,24.5,2119"/>
	</g>
</g>
<g>
	<path class="st3" d="M-168.4-1194.4l-0.2-0.2c-0.7-0.8-2-0.8-2.8,0l-1.2,1.2h-0.1l-0.7,0.7h0.1l-6.3,6.3h-0.1l-0.7,0.7h0.1
		l-0.7,0.7l-1.5,3.7l0,0l-0.1,0.2l-0.4,1.1l0.4-0.1l0,0l0.9-0.4l0,0l3.7-1.5l0.7-0.7l0,0l0.7-0.7l0,0l6.3-6.3l0,0l0.7-0.7l0,0
		l1.2-1.2C-167.6-1192.3-167.6-1193.6-168.4-1194.4z M-178.6-1182.8l-2.6,1l1-2.6l0.5-0.5l1.6,1.6L-178.6-1182.8z M-177.3-1184.1
		l-1.6-1.6l6.3-6.3l1.6,1.6L-177.3-1184.1z M-169.1-1192.3l-1.2,1.2l-1.6-1.6l1.2-1.2c0.4-0.4,1-0.4,1.4,0l0.2,0.2
		C-168.7-1193.3-168.7-1192.7-169.1-1192.3z"/>
	<rect x="-174" y="-1181" class="st3" width="4" height="1"/>
	<rect x="-168" y="-1181" class="st3" width="2" height="1"/>
	<rect x="-178" y="-1181" class="st3" width="2" height="1"/>
</g>
<path sketch:type="MSShapeGroup" class="st11" d="M-154,2194c0,1.1-0.9,2-2,2h-24c-1.1,0-2-0.9-2-2v-12c0-1.1,0.9-2,2-2h24
	c1.1,0,2,0.9,2,2V2194z M-178,2178c0-5.5,4.5-10,10-10s10,4.5,10,10H-178z M-156,2178L-156,2178c0-6.6-5.4-12-12-12s-12,5.4-12,12
	c-2.2,0-4,1.8-4,4v12c0,2.2,1.8,4,4,4h24c2.2,0,4-1.8,4-4v-12C-152,2179.8-153.8,2178-156,2178L-156,2178z"/>
<g>
	<path class="st11" d="M-161.8,2236.2c-0.3-0.3-0.8-0.3-1.1,0l-7.7,7.8l-2.8-2.8c-0.1-0.1-0.5,0-0.8,0.3l-0.5,0.5
		c-0.3,0.3-0.4,0.6-0.3,0.8l4.4,4.3c0,0.1,9.4-9.3,9.4-9.3c0.3-0.3,0.3-0.8,0-1.1L-161.8,2236.2z"/>
	<path class="st11" d="M-168,2226c-8.8,0-16,7.2-16,16s7.2,16,16,16s16-7.2,16-16S-159.2,2226-168,2226z M-168,2256
		c-7.7,0-14-6.3-14-14s6.3-14,14-14s14,6.3,14,14S-160.3,2256-168,2256z"/>
</g>
<path id="Fill-22_1_" class="st7" d="M-123-1499c2.2,0,4.4,0.5,6.5,1.2c2,0.6,2.8,2.1,2.3,4.1c-0.2,0.7-0.6,1.1-1.3,1
	c-0.4,0-1.7-0.2-2.1-0.2c-1.1-0.1-1.5-0.5-1.5-2.3c0-0.7-0.6-1.1-1.1-1.1h-5.6c-0.6,0-1.1,0.4-1.1,1.1c0,1.7-0.4,2.1-1.5,2.3
	c-0.4,0-1.7,0.2-2.1,0.2c-0.8,0.1-1.2-0.3-1.3-1c-0.5-2,0.3-3.6,2.3-4.1C-127.4-1498.5-125.2-1499-123-1499"/>
<path id="Fill-1_36_" class="st13" d="M-129.3-1420h8.8l-4.3-7.1L-129.3-1420z M-118.7-1418h-12.4c-0.4,0-0.7-0.2-0.9-0.5
	s-0.2-0.7,0-1l6.2-10c0.4-0.6,1.5-0.6,1.8,0l6.2,10c0.2,0.3,0.2,0.7,0,1C-118-1418.2-118.3-1418-118.7-1418L-118.7-1418z"/>
<path id="Fill-1_37_" class="st14" d="M-129.3-1385h8.8l-4.3-7.1L-129.3-1385z M-118.7-1383h-12.4c-0.4,0-0.7-0.2-0.9-0.5
	s-0.2-0.7,0-1l6.2-10c0.4-0.6,1.5-0.6,1.8,0l6.2,10c0.2,0.3,0.2,0.7,0,1C-118-1383.2-118.3-1383-118.7-1383L-118.7-1383z"/>
<polygon id="Rectangle-17-Copy-8" class="st6" points="-94,-871 -90,-875 -98,-875 "/>
<polygon id="Rectangle-17-Copy-8_1_" class="st6" points="-98,-831 -90,-831 -94,-835 "/>
<polygon id="check" class="st0" points="-97,-914 -94,-912 -88,-917 -87,-916 -94.1,-909.1 -98,-913 "/>
<polygon id="check_1_" class="st26" points="-137,-914 -134,-912 -128,-917 -127,-916 -134.1,-909.1 -138,-913 "/>
<g>
	<path class="st3" d="M-133-959.2c-1.2,0-2.2,1-2.2,2.2s1,2.2,2.2,2.2s2.2-1,2.2-2.2S-131.8-959.2-133-959.2z M-133-955.8
		c-0.7,0-1.2-0.6-1.2-1.2s0.6-1.2,1.2-1.2s1.2,0.6,1.2,1.2S-132.3-955.8-133-955.8z"/>
	<path class="st3" d="M-125-958.8h-1.6c-0.1-0.5-0.3-1-0.6-1.4l1.2-1.2c0.4-0.4,0.4-1,0-1.4l-1.1-1.1c-0.4-0.4-1-0.4-1.4,0l-1.2,1.2
		c-0.4-0.2-0.9-0.4-1.4-0.6v-1.6c0-0.6-0.4-1-1-1h-1.6c-0.6,0-1,0.4-1,1v1.6c-0.5,0.1-1,0.3-1.4,0.6l-1.2-1.2c-0.4-0.4-1-0.4-1.4,0
		l-1.1,1.1c-0.4,0.4-0.4,1,0,1.4l1.2,1.2c-0.2,0.4-0.4,0.9-0.6,1.4h-1.6c-0.6,0-1,0.4-1,1v1.6c0,0.6,0.4,1,1,1h1.6
		c0.1,0.5,0.3,1,0.6,1.4l-1.2,1.2c-0.4,0.4-0.4,1,0,1.4l1.1,1.1c0.4,0.4,1,0.4,1.4,0l1.2-1.2c0.4,0.2,0.9,0.4,1.4,0.6v1.6
		c0,0.6,0.4,1,1,1h1.6c0.6,0,1-0.4,1-1v-1.6c0.5-0.1,1-0.3,1.4-0.6l1.2,1.2c0.4,0.4,1,0.4,1.4,0l1.1-1.1c0.4-0.4,0.4-1,0-1.4
		l-1.2-1.2c0.2-0.4,0.4-0.9,0.6-1.4h1.6c0.6,0,1-0.4,1-1v-1.6C-124-958.4-124.4-958.8-125-958.8z M-125-956.2L-125-956.2h-1.7h-0.8
		l-0.2,0.7c-0.1,0.4-0.3,0.8-0.5,1.2l-0.4,0.7l0.5,0.5l1.2,1.2l0,0l-1.1,1.1l0,0l-1.2-1.2l-0.5-0.5l-0.7,0.4
		c-0.4,0.2-0.8,0.4-1.2,0.5l-0.7,0.2v0.8v1.6l0,0h-1.6l0,0v-1.6v-0.8l-0.7-0.2c-0.4-0.1-0.8-0.3-1.2-0.5l-0.7-0.4l-0.5,0.5l-1.2,1.2
		l0,0l-1.1-1.1l0,0l1.2-1.2l0.5-0.5l-0.4-0.7c-0.2-0.4-0.4-0.8-0.5-1.2l-0.2-0.7h-0.8h-1.6l0,0v-1.6l0,0h1.6h0.8l0.2-0.7
		c0.1-0.4,0.3-0.8,0.5-1.2l0.4-0.7l-0.5-0.5l-1.2-1.2l0,0l1.1-1.1l0,0l1.2,1.2l0.5,0.5l0.7-0.4c0.4-0.2,0.8-0.4,1.2-0.5l0.7-0.2
		v-0.8v-1.6l0,0h1.6l0,0v1.6v0.8l0.7,0.2c0.4,0.1,0.8,0.3,1.2,0.5l0.7,0.4l0.5-0.5l1.2-1.2l0,0l1.1,1.1l0,0l-1.2,1.2l-0.5,0.5
		l0.4,0.7c0.2,0.4,0.4,0.8,0.5,1.2l0.2,0.7h0.8h1.6l0,0v1.6H-125z"/>
</g>
<g>
	<path class="st3" d="M-133-1039c-1.1,0-2,0.9-2,2c0,1.1,0.9,2,2,2s2-0.9,2-2C-131-1038.1-131.9-1039-133-1039z"/>
	<path class="st3" d="M-128-1037c0-2.8-2.2-5-5-5s-5,2.2-5,5c0,2.8,2.2,5,5,5S-128-1034.2-128-1037z M-133-1033c-2.2,0-4-1.8-4-4
		c0-2.2,1.8-4,4-4s4,1.8,4,4C-129-1034.8-130.8-1033-133-1033z"/>
	<path class="st3" d="M-124.1-1038.1c-1.9-2-4.8-4.9-8.9-4.9c-5,0-8.2,4.3-10,6c1.8,1.7,5,6,10,6c3.3,0,5.9-1.9,7.7-3.7
		c0.9-0.9,1.7-1.7,2.3-2.3C-123.3-1037.3-123.7-1037.7-124.1-1038.1z M-124.7-1036.7c-0.4,0.4-0.8,0.8-1.3,1.3
		c-1.7,1.6-3.9,3.4-7,3.4c-3.8,0-6.5-2.8-8.3-4.7c-0.1-0.1-0.2-0.2-0.3-0.3c0.1-0.1,0.2-0.2,0.3-0.3c1.8-1.9,4.5-4.7,8.3-4.7
		s6.4,2.8,8.2,4.6l0.1,0.1c0.1,0.1,0.2,0.2,0.3,0.3C-124.5-1036.9-124.6-1036.8-124.7-1036.7z"/>
</g>
<g>
	<path class="st3" d="M-123.7-1003.8L-123.7-1003.8L-123.7-1003.8z"/>
	<path class="st3" d="M-123.7-1003.8c-1-4.5-5.4-6.5-10.5-5.4c-4.7,1-8.4,4.5-8.3,8.6c0.1,2,1.3,3.7,3.2,4.8l0,0c0,0.5-0.3,0.9-1,1
		c-0.4,0.1-0.7,0.3-0.7,0.6c-0.1,0.5,0.3,0.7,0.8,0.7c2.2,0.1,3.8-0.1,5-1c1.4,0.2,2.5,0.2,3.7,0.1
		C-126-994.7-122.6-998.7-123.7-1003.8z M-131.5-995.3c-1.1,0.1-2.2,0-3.6-0.2h-0.2c-1,0.8-2.1,1.1-3.5,1.1c0.4-0.4,0.6-0.9,0.6-1.5
		c0-0.3-0.2-0.6-0.5-0.8c-1.8-1-2.8-2.4-2.8-4c-0.1-3.6,3.2-6.7,7.5-7.6c4.5-1,8.4,0.8,9.3,4.6l0,0
		C-123.7-999.1-126.6-995.6-131.5-995.3z"/>
</g>
<g>
	<path class="st0" d="M-93-1039c-1.1,0-2,0.9-2,2c0,1.1,0.9,2,2,2s2-0.9,2-2C-91-1038.1-91.9-1039-93-1039z"/>
	<path class="st0" d="M-88-1037c0-2.8-2.2-5-5-5s-5,2.2-5,5c0,2.8,2.2,5,5,5S-88-1034.2-88-1037z M-93-1033c-2.2,0-4-1.8-4-4
		c0-2.2,1.8-4,4-4s4,1.8,4,4C-89-1034.8-90.8-1033-93-1033z"/>
	<path class="st0" d="M-84.1-1038.1c-1.9-2-4.8-4.9-8.9-4.9c-5,0-8.2,4.3-10,6c1.8,1.7,5,6,10,6c3.3,0,5.9-1.9,7.7-3.7
		c0.9-0.9,1.7-1.7,2.3-2.3C-83.3-1037.3-83.7-1037.7-84.1-1038.1z M-84.7-1036.7c-0.4,0.4-0.8,0.8-1.3,1.3c-1.7,1.6-3.9,3.4-7,3.4
		c-3.8,0-6.5-2.8-8.3-4.7c-0.1-0.1-0.2-0.2-0.3-0.3c0.1-0.1,0.2-0.2,0.3-0.3c1.8-1.9,4.5-4.7,8.3-4.7s6.4,2.8,8.2,4.6l0.1,0.1
		c0.1,0.1,0.2,0.2,0.3,0.3C-84.5-1036.9-84.6-1036.8-84.7-1036.7z"/>
</g>
<g>
	<path class="st0" d="M-83.7-1003.8L-83.7-1003.8L-83.7-1003.8z"/>
	<path class="st0" d="M-83.7-1003.8c-1-4.5-5.4-6.5-10.5-5.4c-4.7,1-8.4,4.5-8.3,8.6c0.1,2,1.3,3.7,3.2,4.8l0,0c0,0.5-0.3,0.9-1,1
		c-0.4,0.1-0.7,0.3-0.7,0.6c-0.1,0.5,0.3,0.7,0.8,0.7c2.2,0.1,3.8-0.1,5-1c1.4,0.2,2.5,0.2,3.7,0.1
		C-86-994.7-82.6-998.7-83.7-1003.8z M-91.5-995.3c-1.1,0.1-2.2,0-3.6-0.2h-0.2c-1,0.8-2.1,1.1-3.5,1.1c0.4-0.4,0.6-0.9,0.6-1.5
		c0-0.3-0.2-0.6-0.5-0.8c-1.8-1-2.8-2.4-2.8-4c-0.1-3.6,3.2-6.7,7.5-7.6c4.5-1,8.4,0.8,9.3,4.6l0,0
		C-83.7-999.1-86.6-995.6-91.5-995.3z"/>
</g>
<path class="st27" d="M-99.3-995.8C-99.3-995.8-99.2-995.8-99.3-995.8c0,0.5-0.3,0.9-1,1c-0.4,0.1-0.7,0.3-0.7,0.6
	c-0.1,0.5,0.3,0.7,0.8,0.7c2.2,0.1,3.8-0.1,5-1c1.4,0.2,2.5,0.2,3.7,0.1c5.4-0.4,8.8-4.4,7.7-9.5c-1-4.5-5.4-6.5-10.5-5.4
	c-4.7,1-8.4,4.5-8.3,8.6C-102.4-998.6-101.2-996.9-99.3-995.8"/>
<g>
	<path class="st0" d="M-93-959.2c-1.2,0-2.2,1-2.2,2.2s1,2.2,2.2,2.2s2.2-1,2.2-2.2S-91.8-959.2-93-959.2z M-93-955.8
		c-0.7,0-1.2-0.6-1.2-1.2s0.6-1.2,1.2-1.2s1.2,0.6,1.2,1.2S-92.3-955.8-93-955.8z"/>
	<path class="st0" d="M-85-958.8h-1.6c-0.1-0.5-0.3-1-0.6-1.4l1.2-1.2c0.4-0.4,0.4-1,0-1.4l-1.1-1.1c-0.4-0.4-1-0.4-1.4,0l-1.2,1.2
		c-0.4-0.2-0.9-0.4-1.4-0.6v-1.6c0-0.6-0.4-1-1-1h-1.6c-0.6,0-1,0.4-1,1v1.6c-0.5,0.1-1,0.3-1.4,0.6l-1.2-1.2c-0.4-0.4-1-0.4-1.4,0
		l-1.1,1.1c-0.4,0.4-0.4,1,0,1.4l1.2,1.2c-0.2,0.4-0.4,0.9-0.6,1.4h-1.6c-0.6,0-1,0.4-1,1v1.6c0,0.6,0.4,1,1,1h1.6
		c0.1,0.5,0.3,1,0.6,1.4l-1.2,1.2c-0.4,0.4-0.4,1,0,1.4l1.1,1.1c0.4,0.4,1,0.4,1.4,0l1.2-1.2c0.4,0.2,0.9,0.4,1.4,0.6v1.6
		c0,0.6,0.4,1,1,1h1.6c0.6,0,1-0.4,1-1v-1.6c0.5-0.1,1-0.3,1.4-0.6l1.2,1.2c0.4,0.4,1,0.4,1.4,0l1.1-1.1c0.4-0.4,0.4-1,0-1.4
		l-1.2-1.2c0.2-0.4,0.4-0.9,0.6-1.4h1.6c0.6,0,1-0.4,1-1v-1.6C-84-958.4-84.4-958.8-85-958.8z M-85-956.2L-85-956.2h-1.7h-0.8
		l-0.2,0.7c-0.1,0.4-0.3,0.8-0.5,1.2l-0.4,0.7l0.5,0.5l1.2,1.2l0,0l-1.1,1.1l0,0l-1.2-1.2l-0.5-0.5l-0.7,0.4
		c-0.4,0.2-0.8,0.4-1.2,0.5l-0.7,0.2v0.8v1.6l0,0h-1.6l0,0v-1.6v-0.8l-0.7-0.2c-0.4-0.1-0.8-0.3-1.2-0.5l-0.7-0.4L-97-952l-1.2,1.2
		l0,0l-1.1-1.1l0,0l1.2-1.2l0.5-0.5l-0.4-0.7c-0.2-0.4-0.4-0.8-0.5-1.2l-0.2-0.7h-0.8h-1.6l0,0v-1.6l0,0h1.6h0.8l0.2-0.7
		c0.1-0.4,0.3-0.8,0.5-1.2l0.4-0.7l-0.5-0.5l-1.2-1.2l0,0l1.1-1.1l0,0l1.2,1.2l0.5,0.5l0.7-0.4c0.4-0.2,0.8-0.4,1.2-0.5l0.7-0.2
		v-0.8v-1.6l0,0h1.6l0,0v1.6v0.8l0.7,0.2c0.4,0.1,0.8,0.3,1.2,0.5l0.7,0.4l0.5-0.5l1.2-1.2l0,0l1.1,1.1l0,0l-1.2,1.2l-0.5,0.5
		l0.4,0.7c0.2,0.4,0.4,0.8,0.5,1.2l0.2,0.7h0.8h1.6l0,0L-85-956.2L-85-956.2z"/>
</g>
<path class="st27" d="M-85-958.8h-1.6c-0.1-0.5-0.3-1-0.6-1.4l1.2-1.2c0.4-0.4,0.4-1,0-1.4l-1.1-1.1c-0.4-0.4-1-0.4-1.4,0l-1.2,1.2
	c-0.4-0.2-0.9-0.4-1.4-0.6v-1.6c0-0.6-0.4-1-1-1h-1.6c-0.6,0-1,0.4-1,1v1.6c-0.5,0.1-1,0.3-1.4,0.6l-1.2-1.2c-0.4-0.4-1-0.4-1.4,0
	l-1.1,1.1c-0.4,0.4-0.4,1,0,1.4l1.2,1.2c-0.2,0.4-0.4,0.9-0.6,1.4h-1.6c-0.6,0-1,0.4-1,1v1.6c0,0.6,0.4,1,1,1h1.6
	c0.1,0.5,0.3,1,0.6,1.4l-1.2,1.2c-0.4,0.4-0.4,1,0,1.4l1.1,1.1c0.4,0.4,1,0.4,1.4,0l1.2-1.2c0.4,0.2,0.9,0.4,1.4,0.6v1.6
	c0,0.6,0.4,1,1,1h1.6c0.6,0,1-0.4,1-1v-1.6c0.5-0.1,1-0.3,1.4-0.6l1.2,1.2c0.4,0.4,1,0.4,1.4,0l1.1-1.1c0.4-0.4,0.4-1,0-1.4
	l-1.2-1.2c0.2-0.4,0.4-0.9,0.6-1.4h1.6c0.6,0,1-0.4,1-1v-1.6C-84-958.4-84.4-958.8-85-958.8z"/>
<path class="st28" d="M-139.3-995.8C-139.3-995.8-139.2-995.8-139.3-995.8c0,0.5-0.3,0.9-1,1c-0.4,0.1-0.7,0.3-0.7,0.6
	c-0.1,0.5,0.3,0.7,0.8,0.7c2.2,0.1,3.8-0.1,5-1c1.4,0.2,2.5,0.2,3.7,0.1c5.4-0.4,8.8-4.4,7.7-9.5c-1-4.5-5.4-6.5-10.5-5.4
	c-4.7,1-8.4,4.5-8.3,8.6C-142.4-998.6-141.2-996.9-139.3-995.8"/>
<path class="st29" d="M-125-958.8h-1.6c-0.1-0.5-0.3-1-0.6-1.4l1.2-1.2c0.4-0.4,0.4-1,0-1.4l-1.1-1.1c-0.4-0.4-1-0.4-1.4,0l-1.2,1.2
	c-0.4-0.2-0.9-0.4-1.4-0.6v-1.6c0-0.6-0.4-1-1-1h-1.6c-0.6,0-1,0.4-1,1v1.6c-0.5,0.1-1,0.3-1.4,0.6l-1.2-1.2c-0.4-0.4-1-0.4-1.4,0
	l-1.1,1.1c-0.4,0.4-0.4,1,0,1.4l1.2,1.2c-0.2,0.4-0.4,0.9-0.6,1.4h-1.6c-0.6,0-1,0.4-1,1v1.6c0,0.6,0.4,1,1,1h1.6
	c0.1,0.5,0.3,1,0.6,1.4l-1.2,1.2c-0.4,0.4-0.4,1,0,1.4l1.1,1.1c0.4,0.4,1,0.4,1.4,0l1.2-1.2c0.4,0.2,0.9,0.4,1.4,0.6v1.6
	c0,0.6,0.4,1,1,1h1.6c0.6,0,1-0.4,1-1v-1.6c0.5-0.1,1-0.3,1.4-0.6l1.2,1.2c0.4,0.4,1,0.4,1.4,0l1.1-1.1c0.4-0.4,0.4-1,0-1.4
	l-1.2-1.2c0.2-0.4,0.4-0.9,0.6-1.4h1.6c0.6,0,1-0.4,1-1v-1.6C-124-958.4-124.4-958.8-125-958.8z M-133-955.8c-0.7,0-1.2-0.6-1.2-1.2
	s0.6-1.2,1.2-1.2s1.2,0.6,1.2,1.2S-132.3-955.8-133-955.8z"/>
<path id="Fill-53-Copy_1_" sketch:type="MSShapeGroup" class="st3" d="M-76.3-1492.7c-1.7-1.7-3-3.8-4.1-6c-1.1-2-0.5-3.9,1.5-5.1
	c0.7-0.4,1.3-0.4,1.8,0.2c0.2,0.3,1.2,1.4,1.4,1.8c0.8,1,0.8,1.6-0.6,2.9c-0.6,0.6-0.4,1.3,0,1.7l4.3,4.3c0.4,0.4,1.2,0.6,1.7,0
	c1.4-1.4,2-1.4,2.9-0.6c0.3,0.2,1.4,1.2,1.8,1.4c0.6,0.5,0.7,1.1,0.2,1.8c-1.2,2-3,2.6-5.1,1.5
	C-72.5-1489.7-74.6-1490.9-76.3-1492.7L-76.3-1492.7z"/>
<path id="Fill-2-Copy_4_" sketch:type="MSShapeGroup" class="st3" d="M-68-1459l5,4v-10l-5,4V-1459z M-81-1464c0-1.1,0.9-2,2-2h8
	c1.1,0,2,0.9,2,2v8c0,1.1-0.9,2-2,2h-8c-1.1,0-2-0.9-2-2V-1464z"/>
<path id="Fill-53-Copy_2_" sketch:type="MSShapeGroup" class="st0" d="M-26.3-1492.7c-1.7-1.7-3-3.8-4.1-6c-1.1-2-0.5-3.9,1.5-5.1
	c0.7-0.4,1.3-0.4,1.8,0.2c0.2,0.3,1.2,1.4,1.4,1.8c0.8,1,0.8,1.6-0.6,2.9c-0.6,0.6-0.4,1.3,0,1.7l4.3,4.3c0.4,0.4,1.2,0.6,1.7,0
	c1.4-1.4,2-1.4,2.9-0.6c0.3,0.2,1.4,1.2,1.8,1.4c0.6,0.5,0.7,1.1,0.2,1.8c-1.2,2-3,2.6-5.1,1.5
	C-22.5-1489.7-24.6-1490.9-26.3-1492.7L-26.3-1492.7z"/>
<path id="Fill-2-Copy_5_" sketch:type="MSShapeGroup" class="st0" d="M-18-1459l5,4v-10l-5,4V-1459z M-31-1464c0-1.1,0.9-2,2-2h8
	c1.1,0,2,0.9,2,2v8c0,1.1-0.9,2-2,2h-8c-1.1,0-2-0.9-2-2V-1464z"/>
<g>
	<path class="st3" d="M-118.4-1194.4l-0.2-0.2c-0.7-0.8-2-0.8-2.8,0l-1.2,1.2h-0.1l-0.7,0.7h0.1l-6.3,6.3h-0.1l-0.7,0.7h0.1
		l-0.7,0.7l-1.5,3.7l0,0l-0.1,0.2l-0.4,1.1l0.4-0.1l0,0l0.9-0.4l0,0l3.7-1.5l0.7-0.7l0,0l0.7-0.7l0,0l6.3-6.3l0,0l0.7-0.7l0,0
		l1.2-1.2C-117.6-1192.3-117.6-1193.6-118.4-1194.4z M-128.6-1182.8l-2.6,1l1-2.6l0.5-0.5l1.6,1.6L-128.6-1182.8z M-127.3-1184.1
		l-1.6-1.6l6.3-6.3l1.6,1.6L-127.3-1184.1z M-119.1-1192.3l-1.2,1.2l-1.6-1.6l1.2-1.2c0.4-0.4,1-0.4,1.4,0l0.2,0.2
		C-118.7-1193.3-118.7-1192.7-119.1-1192.3z"/>
	<rect x="-124" y="-1181" class="st3" width="4" height="1"/>
	<rect x="-118" y="-1181" class="st3" width="2" height="1"/>
	<rect x="-128" y="-1181" class="st3" width="2" height="1"/>
</g>
<path class="st3" d="M-126-135.3v-6.7l-2.4,2.4c-1.4-1.5-3.4-2.4-5.6-2.4c-4.4,0-8,3.6-8,8s3.6,8,8,8s8-3.6,8-8h-2.7
	c0,2.9-2.4,5.3-5.3,5.3s-5.3-2.4-5.3-5.3s2.4-5.3,5.3-5.3c1.5,0,2.8,0.6,3.8,1.6l-2.4,2.4H-126z"/>
<path class="st3" d="M-167.6-134L-167.6-134c0,1-0.3,2.2-0.9,3.2c-1.8,3.1-5.7,4.1-8.7,2.3c-3.1-1.8-4.1-5.7-2.3-8.7
	c1.8-3.1,5.7-4.1,8.7-2.3c0.5,0.3,1,0.7,1.4,1.1l-0.2,0.2l-1.8,1.8h4.8v-4.8l-1.7,1.7l0,0c-0.5-0.5-1.1-1-1.7-1.4
	c-3.8-2.2-8.7-0.9-10.9,2.9c-2.2,3.8-0.9,8.7,2.9,10.9c3.8,2.2,8.7,0.9,10.9-2.9c0.7-1.3,1.1-2.6,1.1-4L-167.6-134z"/>
<path class="st3" d="M-88-134c0,3.3-2.7,6-6,6s-6-2.7-6-6s2.7-6,6-6c1.7,0,3.2,0.7,4.2,1.8l-0.3,0.3l-2.2,2.2h6v-6l-2.1,2.1
	c-1.4-1.4-3.4-2.4-5.6-2.4c-4.4,0-8,3.6-8,8s3.6,8,8,8s8-3.6,8-8H-88z"/>
<g id="ic_chat_3_" transform="translate(4.000000, 1744.000000)" sketch:type="MSLayerGroup">
	<path id="Fill-80_6_" sketch:type="MSShapeGroup" class="st17" d="M-117.1-3197.3c-0.5-0.1-0.8-0.5-0.8-0.9c0-0.1,0.1-0.2,0.1-0.2
		c1-0.6,1.8-1.5,1.8-2.6c0.1-2.3-2.1-4.1-4.3-4.7c0.1,1.7-0.4,3.3-1.4,4.6c-0.9,1.1-2.2,1.9-3.7,2.4c0.8,0.7,1.9,1.2,3.1,1.2
		c0.7,0.1,1.5,0,2.2-0.1c0.8,0.6,2,0.7,2.9,0.6C-116.8-3197.1-116.9-3197.3-117.1-3197.3"/>
	<path id="Fill-81_6_" sketch:type="MSShapeGroup" class="st3" d="M-121.9-3206.9c-0.8-3.6-4.4-4.7-7.8-4c-3.2,0.7-6.4,3.1-6.3,6.4
		c0,1.5,1,2.7,2.4,3.5c0.1,0.1,0.2,0.2,0.2,0.3c0,0.6-0.5,1.1-1.1,1.2c-0.3,0.1-0.4,0.2,0,0.3c1.3,0.1,2.8,0,3.9-0.8
		c1,0.1,2,0.2,2.9,0.1C-123.7-3200.1-121-3203-121.9-3206.9"/>
</g>
<g>
	<path class="st0" d="M-168.4-684.2l-0.2-0.2c-0.7-0.8-2-0.8-2.8,0l-1.2,1.2h-0.1l-0.7,0.7h0.1l-6.3,6.3h-0.1l-0.7,0.7h0.1l-0.7,0.7
		l-1.5,3.7l0,0l-0.1,0.2l-0.4,1.1l0.4-0.1l0,0l0.9-0.4l0,0l3.7-1.5l0.7-0.7l0,0l0.7-0.7l0,0l6.3-6.3l0,0l0.7-0.7l0,0l1.2-1.2
		C-167.6-682.1-167.6-683.4-168.4-684.2z M-178.6-672.6l-2.6,1l1-2.6l0.5-0.5l1.6,1.6L-178.6-672.6z M-177.3-673.9l-1.6-1.6l6.3-6.3
		l1.6,1.6L-177.3-673.9z M-169.1-682.1l-1.2,1.2l-1.6-1.6l1.2-1.2c0.4-0.4,1-0.4,1.4,0l0.2,0.2
		C-168.7-683.1-168.7-682.5-169.1-682.1z"/>
	<rect x="-174" y="-670.8" class="st0" width="4" height="1"/>
	<rect x="-168" y="-670.8" class="st0" width="2" height="1"/>
	<rect x="-178" y="-670.8" class="st0" width="2" height="1"/>
</g>
<g id="Group-5">
	<rect id="Rectangle-2" x="-136" y="528" class="st30" width="24" height="24"/>
	<path id="Combined-Shape" class="st31" d="M-122.8,545h8v2h-12h-2l-2.6-2.6c-0.8-0.8-0.8-2,0-2.8l9.2-9.2c0.8-0.8,2-0.8,2.8,0
		l3.2,3.2c0.8,0.8,0.8,2,0,2.8L-122.8,545z M-130.8,543l2,2h4l2-2l-4-4L-130.8,543z"/>
</g>
</svg>
