<?xml version="1.0" encoding="utf-8"?>
<!-- Generator: Adobe Illustrator 16.0.0, SVG Export Plug-In . SVG Version: 6.00 Build 0)  -->
<!DOCTYPE svg PUBLIC "-//W3C//DTD SVG 1.1//EN" "http://www.w3.org/Graphics/SVG/1.1/DTD/svg11.dtd">
<svg version="1.1" id="Layer_1" xmlns:sketch="http://www.bohemiancoding.com/sketch/ns"
	 xmlns="http://www.w3.org/2000/svg" xmlns:xlink="http://www.w3.org/1999/xlink" x="0px" y="0px" width="237px" height="2588px"
	 viewBox="0 0 237 2588" enable-background="new 0 0 237 2588" xml:space="preserve">
<filter  id="filter-2" filterUnits="objectBoundingBox" y="-50%" x="-50%" height="200%" width="200%">
	<feOffset  result="shadowOffsetOuter1" in="SourceAlpha" dy="1" dx="0"></feOffset>
	<feGaussianBlur  stdDeviation="1" result="shadowBlurOuter1" in="shadowOffsetOuter1"></feGaussianBlur>
	
		<feColorMatrix  values="0 0 0 0 0   0 0 0 0 0   0 0 0 0 0  0 0 0 0.105 0" result="shadowMatrixOuter1" in="shadowBlurOuter1" type="matrix">
		</feColorMatrix>
	<feMerge>
		<feMergeNode  in="shadowMatrixOuter1"></feMergeNode>
		<feMergeNode  in="SourceGraphic"></feMergeNode>
	</feMerge>
</filter>
<filter  id="filter-1" filterUnits="objectBoundingBox" y="-50%" x="-50%" height="200%" width="200%">
	<feOffset  result="shadowOffsetOuter1" in="SourceAlpha" dy="1" dx="0"></feOffset>
	<feGaussianBlur  stdDeviation="1" result="shadowBlurOuter1" in="shadowOffsetOuter1"></feGaussianBlur>
	
		<feColorMatrix  values="0 0 0 0 0   0 0 0 0 0   0 0 0 0 0  0 0 0 0.105 0" result="shadowMatrixOuter1" in="shadowBlurOuter1" type="matrix">
		</feColorMatrix>
	<feMerge>
		<feMergeNode  in="shadowMatrixOuter1"></feMergeNode>
		<feMergeNode  in="SourceGraphic"></feMergeNode>
	</feMerge>
</filter>
<title>Untitled 2</title>
<desc>Created with Sketch.</desc>
<path id="Rectangle-144-Copy-3" sketch:type="MSShapeGroup" fill="#FFFFFF" d="M13,1456v-7h-2v7H4v2h7v7h2v-7h7v-2H13z"/>
<path id="Rectangle-144-Copy-2" sketch:type="MSShapeGroup" opacity="0.6" fill="#333333" enable-background="new    " d="M13,1483
	v-7h-2v7H4v2h7v7h2v-7h7v-2H13z"/>
<path id="Rectangle-144-Copy-4" sketch:type="MSShapeGroup" opacity="0.6" fill="#31B500" enable-background="new    " d="M13,1513
	v-7h-2v7H4v2h7v7h2v-7h7v-2H13z"/>
<g id="Imported-Layers-Copy" transform="translate(3.000000, 1546.000000)" sketch:type="MSLayerGroup" opacity="0.6">
	<g id="Imported-Layers" sketch:type="MSShapeGroup">
		<path id="Fill-1" fill="#333333" d="M10,2c4.42,0,8,3.58,8,8s-3.58,8-8,8s-8-3.58-8-8S5.58,2,10,2 M10,0C4.485,0,0,4.485,0,10
			s4.485,10,10,10c5.516,0,10-4.485,10-10S15.516,0,10,0"/>
		<path id="Fill-2" fill="#999999" d="M14.8,12c-0.46,2.28-2.479,4-4.9,4c-2.42,0-4.44-1.72-4.9-4H14.8 M16.021,11H3.778
			l0.242,1.198C4.581,14.98,7.054,17,9.9,17s5.319-2.02,5.88-4.802L16.021,11"/>
		<path id="Fill-3" fill="#333333" d="M15,12c-0.469,2.28-2.531,4-5,4s-4.531-1.72-5-4H15 M4,11l0.021,1.202
			C4.593,14.982,7.108,17,10,17c2.893,0,5.407-2.018,5.979-4.798L16,11H4"/>
		<path id="Fill-4" fill="#333333" d="M16,8.5c0,0.83-0.67,1.5-1.5,1.5S13,9.33,13,8.5S13.67,7,14.5,7S16,7.67,16,8.5"/>
		<path id="Fill-5" fill="#333333" d="M7,8.5C7,9.33,6.33,10,5.5,10S4,9.33,4,8.5S4.67,7,5.5,7S7,7.67,7,8.5"/>
		<path id="Fill-6" fill="#333333" d="M14,15H6l-1-2h10L14,15"/>
	</g>
</g>
<path id="Imported-Layers_1_" sketch:type="MSShapeGroup" fill="#2BA6DE" d="M5.759,1666.691c-0.324,0-0.646-0.012-0.962-0.026
	c-0.551-0.03-0.975-0.501-0.945-1.052c0.027-0.516,0.437-0.916,0.938-0.946c-0.093-0.308-0.036-0.656,0.184-0.924
	c0.089-0.111,0.146-0.23,0.169-0.363c-0.574-0.338-1.138-0.753-1.634-1.206c-0.408-0.372-0.438-1.003-0.066-1.413
	c0.371-0.405,1.004-0.438,1.412-0.063c0.426,0.388,0.919,0.744,1.466,1.058c0.528,0.351,0.81,0.829,0.83,1.349l0.003,0.135
	c0,0.509-0.132,0.992-0.385,1.421c0.655-0.05,1.234-0.153,1.751-0.313c0.524-0.164,1.087,0.136,1.25,0.662
	c0.162,0.528-0.134,1.087-0.662,1.25C8.146,1666.552,7.05,1666.742,5.759,1666.691L5.759,1666.691z M14.187,1665.569
	c-0.853,0-1.753-0.058-2.751-0.171c-0.549-0.063-0.943-0.561-0.88-1.107c0.063-0.549,0.559-0.951,1.108-0.879
	c1.398,0.16,2.551,0.204,3.72,0.111l0.158,0.99l0.073,0.997C15.091,1665.553,14.639,1665.569,14.187,1665.569L14.187,1665.569z
	 M18.479,1664.942c-0.422,0-0.812-0.27-0.951-0.689c-0.172-0.524,0.115-1.089,0.641-1.261c1.201-0.395,2.256-0.978,3.137-1.731
	c0.42-0.358,1.051-0.311,1.41,0.108c0.36,0.42,0.312,1.05-0.107,1.41c-1.08,0.928-2.365,1.639-3.816,2.112
	C18.686,1664.926,18.581,1664.942,18.479,1664.942L18.479,1664.942z M23.857,1660.722c-0.168,0-0.336-0.042-0.493-0.131
	c-0.48-0.271-0.647-0.883-0.374-1.364c0.576-1.014,0.91-2.146,0.994-3.373c0.037-0.551,0.523-0.946,1.062-0.931
	c0.553,0.038,0.969,0.515,0.932,1.066c-0.103,1.525-0.522,2.95-1.25,4.228C24.543,1660.541,24.206,1660.722,23.857,1660.722
	L23.857,1660.722z M2.447,1660.018c-0.396,0-0.767-0.231-0.925-0.619c-0.321-0.777-0.496-1.605-0.519-2.461L1,1656.707
	c0-0.609,0.059-1.218,0.175-1.811c0.107-0.543,0.634-0.896,1.174-0.789c0.542,0.104,0.895,0.632,0.789,1.174
	c-0.092,0.467-0.138,0.944-0.138,1.426l0.003,0.182c0.016,0.604,0.14,1.195,0.368,1.749c0.21,0.513-0.034,1.097-0.544,1.307
	C2.702,1659.994,2.573,1660.018,2.447,1660.018L2.447,1660.018z M24.723,1653.898c-0.451,0-0.848-0.286-0.947-0.747l-0.02-0.089
	c-0.258-1.198-0.734-2.248-1.416-3.12c-0.339-0.437-0.262-1.063,0.173-1.403c0.436-0.339,1.063-0.263,1.404,0.173
	c0.868,1.111,1.472,2.433,1.794,3.928c0.116,0.54-0.217,1.116-0.757,1.233C24.876,1653.889,24.798,1653.898,24.723,1653.898
	L24.723,1653.898z M3.229,1653.304c-0.173,0-0.348-0.045-0.507-0.138c-0.476-0.282-0.634-0.895-0.353-1.37
	c0.705-1.194,1.665-2.291,2.851-3.259c0.43-0.353,1.058-0.284,1.407,0.142c0.35,0.429,0.286,1.06-0.142,1.407
	c-1.004,0.819-1.809,1.736-2.394,2.727C3.905,1653.129,3.571,1653.304,3.229,1653.304L3.229,1653.304z M8.362,1648.674
	c-0.362,0-0.712-0.197-0.889-0.541c-0.254-0.491-0.061-1.093,0.429-1.347c1.271-0.656,2.615-1.146,3.992-1.452
	c0.718-0.159,1.444-0.27,2.155-0.328c0.55-0.062,1.034,0.363,1.079,0.913c0.046,0.551-0.363,1.035-0.914,1.08
	c-0.622,0.051-1.256,0.148-1.886,0.289c-1.209,0.268-2.39,0.697-3.508,1.273C8.673,1648.638,8.517,1648.674,8.362,1648.674
	L8.362,1648.674z M20.885,1648.361c-0.174,0-0.35-0.045-0.511-0.143c-0.978-0.582-2.118-0.97-3.392-1.149
	c-0.545-0.078-0.926-0.585-0.849-1.132c0.078-0.55,0.591-0.928,1.134-0.851c1.533,0.22,2.924,0.696,4.129,1.414
	c0.476,0.283,0.631,0.896,0.349,1.371C21.559,1648.188,21.227,1648.361,20.885,1648.361L20.885,1648.361z"/>
<g id="ic_chat" transform="translate(4.000000, 1744.000000)" sketch:type="MSLayerGroup" opacity="0.5">
	<path id="Fill-80" sketch:type="MSShapeGroup" opacity="0.7" enable-background="new    " d="M19.87,14.77
		c-0.46-0.118-0.82-0.459-0.8-0.93c0-0.109,0.08-0.188,0.148-0.24C20.24,13.03,20.97,12.14,21,11c0.061-2.35-2.061-4.1-4.311-4.73
		c0.091,1.69-0.391,3.28-1.42,4.552c-0.91,1.13-2.181,1.948-3.681,2.398c0.79,0.71,1.87,1.16,3.142,1.25
		c0.72,0.05,1.459,0,2.209-0.1c0.801,0.64,1.951,0.67,2.92,0.61C20.16,14.96,20.109,14.83,19.87,14.77"/>
	<path id="Fill-81" sketch:type="MSShapeGroup" d="M15.12,5.2c-0.79-3.562-4.36-4.74-7.84-3.98C4.1,1.91,0.92,4.34,1,7.66
		c0.04,1.529,1.01,2.71,2.37,3.47c0.09,0.07,0.2,0.181,0.21,0.32c0.03,0.64-0.46,1.08-1.07,1.239c-0.32,0.08-0.39,0.25,0.01,0.279
		c1.3,0.092,2.83,0.04,3.9-0.81c0.99,0.13,1.97,0.2,2.94,0.13C13.34,12.01,15.99,9.1,15.12,5.2"/>
</g>
<path id="Fill-57-Copy" sketch:type="MSShapeGroup" fill="#333333" d="M6,120c0,4.42,3.58,8,8,8s8-3.58,8-8s-3.58-8-8-8
	S6,115.58,6,120L6,120z M13,115h2v4h4v2h-4v4h-2v-4H9v-2h4V115L13,115z"/>
<path id="Fill-9-Copy-9" sketch:type="MSShapeGroup" opacity="0.7" fill="#D90007" enable-background="new    " d="M6,228
	c0,4.42,3.58,8,8,8s8-3.58,8-8s-3.58-8-8-8S6,223.58,6,228L6,228z M9,227h10v2H9V227z"/>
<path id="ic_cloud-copy" sketch:type="MSShapeGroup" d="M4,274.58c0,2.44,1.846,4.42,4.113,4.42h11.772
	c2.269,0,4.113-1.98,4.113-4.42c0-2.367-1.739-4.307-3.92-4.413v-0.014c0-2.84-2.146-5.153-4.8-5.153
	c-1.72,0-3.229,0.967-4.074,2.42c-0.287-0.133-0.6-0.213-0.926-0.213c-1.3,0-2.36,1.14-2.36,2.527c0,0.153,0.014,0.293,0.033,0.434
	C5.753,270.253,4,272.193,4,274.58"/>
<path id="Fill-1_1_" sketch:type="MSShapeGroup" d="M7,309h14v9H7V309z M21,307H7c-1.1,0-2,0.9-2,2v9c0,1.1,0.9,2,2,2h4v1l-4,1v1h14
	v-1l-4-1v-1h4c1.1,0,2-0.9,2-2v-9C23,307.9,22.1,307,21,307L21,307z M22,318c0,0.55-0.45,1-1,1H7c-0.55,0-1-0.45-1-1v-9
	c0-0.55,0.45-1,1-1h14c0.55,0,1,0.45,1,1V318L22,318z"/>
<g id="Fill-1-_x2B_-Fill-2" transform="translate(11.000000, 181.000000)" sketch:type="MSLayerGroup">
	<path id="Fill-1_2_" sketch:type="MSShapeGroup" fill="#333333" d="M10.111,18H-4.111C-4.6,18-5,17.587-5,17.083V7h16v10.083
		C11,17.587,10.6,18,10.111,18z M8.909,14.08c-0.126-0.127-1.245-0.639-1.455-0.708c0-0.045-0.025-0.2-0.085-0.228
		c-0.057-0.021-0.24-0.11-0.24-0.11c0-0.014-0.021-0.053-0.025-0.094c0-0.045,0.025-0.089,0.025-0.089
		c0.023-0.049,0.115-0.163,0.139-0.253c0.025-0.09,0.055-0.316,0.055-0.316c0-0.048,0.072-0.069,0.117-0.093
		c0.08-0.038,0.207-0.525,0.207-0.525c0-0.159-0.008-0.09-0.008-0.204v-0.425c0-0.522-0.546-0.854-1.078-0.854h-0.02
		c-0.532,0-1.078,0.331-1.078,0.854v0.425c0,0.114-0.007,0.045-0.007,0.204c0,0,0.096,0.487,0.177,0.525
		c0.045,0.024,0.135,0.045,0.135,0.093c0,0,0.034,0.228,0.061,0.316c0.023,0.09,0.118,0.204,0.143,0.253
		c0,0,0.026,0.044,0.026,0.089c-0.003,0.041-0.022,0.08-0.022,0.094c0,0-0.186,0.089-0.24,0.11
		c-0.061,0.028-0.084,0.183-0.084,0.228c-0.021,0.007-0.056,0.02-0.092,0.035c0.536,0.244,1.195,0.563,1.34,0.711
		C6.945,14.167,7.07,14.288,7.086,15h1.613C8.824,15,9,14.913,9,14.789V14.72C9,14.72,9,14.174,8.909,14.08z M0.352,13.372
		c0-0.045-0.025-0.2-0.084-0.228c-0.057-0.021-0.242-0.11-0.242-0.11c0-0.014-0.021-0.053-0.023-0.094
		c0-0.045,0.023-0.089,0.023-0.089c0.025-0.049,0.117-0.163,0.141-0.253c0.023-0.09,0.052-0.316,0.052-0.316
		c0-0.048,0.074-0.069,0.119-0.093c0.081-0.038,0.207-0.525,0.207-0.525c0-0.159-0.007-0.09-0.007-0.204v-0.425
		c0-0.522-0.546-0.854-1.078-0.854h-0.02c-0.533,0-1.08,0.331-1.08,0.854v0.425c0,0.114-0.006,0.045-0.006,0.204
		c0,0,0.096,0.487,0.176,0.525c0.046,0.024,0.134,0.045,0.134,0.093c0,0,0.036,0.228,0.06,0.316c0.024,0.09,0.119,0.204,0.144,0.253
		c-0.001,0,0.026,0.044,0.026,0.089c-0.003,0.041-0.023,0.08-0.023,0.094c0,0-0.185,0.089-0.241,0.11
		c-0.06,0.028-0.084,0.183-0.084,0.228c-0.21,0.069-1.329,0.581-1.455,0.708C-3,14.174-3,14.72-3,14.72v0.069
		C-3,14.913-2.824,15-2.698,15h1.613c0.015-0.712,0.142-0.833,0.187-0.88c0.145-0.147,0.805-0.469,1.342-0.713
		C0.405,13.392,0.373,13.379,0.352,13.372z M4.237,13.257c0-0.06-0.033-0.267-0.112-0.304c-0.075-0.028-0.322-0.148-0.322-0.148
		c0-0.018-0.027-0.067-0.031-0.124c0-0.06,0.031-0.12,0.031-0.12c0.033-0.065,0.154-0.217,0.188-0.336
		c0.032-0.12,0.069-0.424,0.069-0.424c0-0.063,0.099-0.092,0.158-0.124c0.107-0.051,0.23-0.701,0.23-0.701
		c0-0.211-0.055-0.12-0.055-0.272v-0.566C4.395,9.442,3.757,9,3.047,9H3.02c-0.709,0-1.347,0.442-1.347,1.138v0.566
		c0,0.152-0.054,0.061-0.054,0.272c0,0,0.105,0.65,0.213,0.701c0.061,0.032,0.167,0.061,0.167,0.124c0,0,0.041,0.304,0.074,0.424
		c0.032,0.119,0.155,0.271,0.188,0.336c0,0,0.033,0.06,0.033,0.12c-0.004,0.057-0.032,0.106-0.032,0.124
		c0,0.001-0.245,0.12-0.321,0.148C1.863,12.99,1.83,13.197,1.83,13.257c-0.28,0.092-1.771,0.774-1.939,0.944
		c-0.123,0.125-0.123,0.853-0.123,0.853v0.092c0,0.165,0.176,0.854,0.344,0.854h5.845C6.125,16,6.3,15.311,6.3,15.146v-0.092
		c0,0,0-0.728-0.121-0.853C6.009,14.031,4.518,13.349,4.237,13.257z"/>
	<path id="Fill-2_1_" sketch:type="MSShapeGroup" fill="#111111" d="M1.092,4.018c0.262,0,0.512,0.104,0.699,0.287l0.917,0.904
		C3.344,5.875,3.737,6,4,6h6c0.55,0,1,0.45,1,1H-5V4.999c0-0.553,0.447-1,1-0.999L1.092,4.018z"/>
</g>
<path id="Fill-53-Copy" sketch:type="MSShapeGroup" fill="#333333" d="M10.691,51.311c-1.741-1.74-2.961-3.81-4.141-5.96
	c-1.11-2.03-0.51-3.86,1.51-5.07c0.71-0.43,1.3-0.38,1.83,0.25c0.25,0.311,1.18,1.43,1.42,1.75c0.76,0.979,0.77,1.58-0.619,2.95
	c-0.58,0.57-0.44,1.3,0,1.74l4.34,4.34c0.438,0.44,1.17,0.58,1.738,0c1.371-1.39,1.971-1.38,2.95-0.62
	c0.32,0.24,1.439,1.17,1.75,1.42c0.63,0.53,0.681,1.12,0.25,1.83c-1.21,2.02-3.04,2.62-5.069,1.51
	C14.501,54.271,12.431,53.051,10.691,51.311L10.691,51.311z"/>
<path fill="#333333" d="M14,148c-4.418,0-8,3.582-8,8s3.582,8,8,8s8-3.582,8-8S18.418,148,14,148z M18,157l-3-3v7h-2v-7l-3,3l-1-1
	l5-5l5,5L18,157z"/>
<path id="Fill-2-Copy" sketch:type="MSShapeGroup" fill="#333333" d="M19,85l5,4V79l-5,4V85z M6,80.009C6,78.899,6.902,78,8.009,78
	h7.982C17.102,78,18,78.902,18,80.009v7.982C18,89.101,17.098,90,15.991,90H8.009C6.899,90,6,89.098,6,87.991V80.009z"/>
<path id="Fill-37" sketch:type="MSShapeGroup" fill="#FFFFFF" d="M9,1359l1.39-1.33l1.74,1.66l3.479-3.33l1.391,1.33l-4.87,4.67
	L9,1359"/>
<path id="ic_search-copy" sketch:type="MSShapeGroup" fill="#777777" d="M22.82,1302.859l-2.988-3.002
	c-0.213-0.199-0.507-0.239-0.76-0.119l-1.229-1.229c0.721-0.986,1.16-2.188,1.16-3.509c0-3.32-2.681-6.002-6.002-6.002
	c-3.321,0-6.002,2.682-6.002,6.002c0,3.322,2.681,6.003,6.002,6.003c1.321,0,2.521-0.439,3.508-1.16l1.229,1.228
	c-0.107,0.254-0.08,0.547,0.133,0.747l2.988,3.002c0.253,0.239,0.666,0.239,0.92,0l1.041-1.041
	C23.073,1303.526,23.073,1303.1,22.82,1302.859L22.82,1302.859z M9,1295c0-2.208,1.792-4,4-4s4,1.792,4,4s-1.792,4-4,4
	S9,1297.208,9,1295L9,1295z"/>
<g id="Rectangle-16-Copy-11" sketch:type="MSShapeGroup" filter="url(#filter-1)">
	<path fill="#FFFFFF" d="M8.553,1394.672c-1.41,1.426-4.18,3.582-6.184,3.582H2h24h-0.369c-2.006,0-4.777-2.159-6.184-3.582
		l-4.035-4.079c-0.78-0.788-2.04-0.793-2.824,0L8.553,1394.672z"/>
</g>
<path id="Rectangle-16-Copy-10" sketch:type="MSShapeGroup" opacity="0.05" fill="none" stroke="#000000" enable-background="new    " d="
	M8.553,1394.672c-1.41,1.426-4.18,3.582-6.184,3.582l-0.369,3h24l-0.369-3c-2.006,0-4.777-2.159-6.184-3.582l-4.035-4.079
	c-0.78-0.788-2.04-0.793-2.824,0L8.553,1394.672z"/>
<path id="Rectangle-144-Copy-3_1_" sketch:type="MSShapeGroup" fill="#E44C51" d="M14.414,472l4.95-4.949l-1.415-1.415L13,470.586
	l-4.95-4.95l-1.415,1.415l4.95,4.949l-4.95,4.949l1.415,1.415l4.95-4.95l4.949,4.95l1.414-1.415L14.414,472z"/>
<g id="Group-Copy-2" transform="translate(7.000000, 348.000000)" sketch:type="MSLayerGroup">
	<path id="Rectangle-67" sketch:type="MSShapeGroup" fill="none" stroke="#777777" d="M-1,11l9.584-9.584
		c0.782-0.782,2.053-0.779,2.828-0.003l0.176,0.176c0.779,0.78,0.773,2.051-0.004,2.828L2,14l-5,2L-1,11z"/>
	<path id="Path-280" sketch:type="MSShapeGroup" fill="none" stroke="#777777" d="M6.97,2.969l3.062,3"/>
	<path id="Path-280-Copy" sketch:type="MSShapeGroup" fill="none" stroke="#777777" d="M-0.03,9.969l3.062,3"/>
	<rect id="Rectangle-68-Copy" x="6" y="15" sketch:type="MSShapeGroup" fill="#777777" width="4" height="1">
	</rect>
	<rect id="Rectangle-68-Copy-2" x="12" y="15" sketch:type="MSShapeGroup" fill="#777777" width="2" height="1">
	</rect>
	<rect id="Rectangle-68-Copy-3" x="2" y="15" sketch:type="MSShapeGroup" fill="#777777" width="2" height="1">
	</rect>
</g>
<path id="Rectangle-138-Copy-4" sketch:type="MSShapeGroup" fill="#777777" d="M14,398h2v-4h-4v3v3h2V398z M8,398h2v-4H6v3v3h2V398
	L8,398z"/>
<path id="Rectangle-144-Copy-7" sketch:type="MSShapeGroup" fill="#777777" d="M14.414,438l4.95-4.949l-1.415-1.414L13,436.586
	l-4.95-4.949l-1.415,1.414l4.95,4.949l-4.95,4.95l1.415,1.414l4.95-4.95l4.949,4.95l1.415-1.415L14.414,438z"/>
<path id="Fill-5-Copy" sketch:type="MSShapeGroup" fill="#777777" d="M15.95,508.561c0-0.149-0.08-0.66-0.28-0.75
	c-0.18-0.069-0.779-0.371-0.779-0.371c0-0.049-0.07-0.17-0.08-0.31c0-0.149,0.08-0.3,0.08-0.3c0.079-0.16,0.369-0.53,0.449-0.83
	s0.17-1.05,0.17-1.05c0-0.16,0.24-0.23,0.391-0.31c0.271-0.121,0.479-1.74,0.479-1.74c0-0.521-0.21-0.291-0.21-0.67v-1.41
	c0-1.721-1.4-2.82-3.14-2.82H12.97c-1.74,0-3.14,1.1-3.14,2.82v1.41c0,0.379-0.21,0.148-0.21,0.67c0,0,0.21,1.619,0.48,1.74
	c0.15,0.078,0.39,0.148,0.39,0.31c0,0,0.09,0.75,0.17,1.05s0.37,0.67,0.45,0.83c0,0,0.08,0.15,0.08,0.3
	c-0.01,0.14-0.08,0.261-0.08,0.31c0,0-0.6,0.302-0.78,0.371c-0.2,0.09-0.28,0.601-0.28,0.75c-0.68,0.229-4.34,1.92-4.75,2.34
	C5,511.21,5,513.02,5,513.02v0.23c0,0.41,0.34,0.75,0.75,0.75h14.5c0.41,0,0.75-0.34,0.75-0.75v-0.23c0,0,0-1.81-0.3-2.118
	C20.29,510.48,16.63,508.79,15.95,508.561z"/>
<path id="Imported-Layers-Copy-2" sketch:type="MSShapeGroup" fill="#777777" d="M14.258,535c-0.716,0-1.449,0.073-2.181,0.218
	c-0.271,0.054-0.447,0.317-0.394,0.589c0.048,0.237,0.257,0.402,0.49,0.402c0.032,0,0.065-0.003,0.097-0.01
	c0.384-0.075,0.767-0.131,1.147-0.163h0.008c0.003-0.001,0.005-0.001,0.009-0.001c0.018-0.001,0.035-0.003,0.053-0.004h0.001
	c0.003-0.001,0.005-0.001,0.007-0.001h0.001h0.007l0.001-0.001h0.007h0.001c0.003,0,0.005-0.001,0.007-0.001
	c0.014-0.001,0.025-0.003,0.039-0.003l0,0h0.008l0,0c0.002,0,0.006-0.002,0.008-0.002h0.001h0.006h0.002c0.002,0,0.005,0,0.007,0
	c0.012-0.002,0.021-0.002,0.031-0.002h0.006h0.002c0.002,0,0.004-0.002,0.006-0.002h0.002h0.006h0.002c0.002,0,0.004,0,0.006,0
	h0.002h0.007h0.002c0.002-0.002,0.004-0.002,0.006-0.002h0.001c0.01,0,0.02,0,0.029-0.003H13.7h0.005h0.003h0.005
	c0.001,0,0.002,0,0.003,0h0.005h0.003h0.006h0.002c0.002-0.002,0.004-0.002,0.006-0.002h0.003h0.006
	c0.007-0.001,0.014-0.001,0.021-0.001h0.002c0.002,0,0.004-0.001,0.006-0.001h0.002h0.006h0.004h0.004
	c0.001-0.001,0.002-0.001,0.004-0.001H13.8h0.004h0.006h0.002c0.002-0.001,0.004-0.001,0.006-0.001h0.002
	c0.006,0,0.013,0,0.019-0.001h0.003h0.005h0.003h0.004h0.004c0.002-0.001,0.004-0.001,0.004-0.001h0.004h0.006h0.003h0.005h0.004
	c0.001-0.001,0.002-0.001,0.004-0.001h0.004h0.004h0.006H13.9h0.005c0.001-0.001,0.003-0.001,0.004-0.001h0.004h0.004h0.004h0.004
	h0.005c0.002,0,0.002-0.001,0.004-0.001h0.004h0.004h0.005h0.004h0.004h0.004h0.004c0.003-0.001,0.006-0.001,0.011-0.001h0.002
	h0.004h0.004h0.004h0.004h0.004h0.005c0.001,0,0.002-0.001,0.003-0.001h0.005h0.004h0.005h0.004h0.004h0.004h0.005h0.003
	c0.003-0.001,0.006-0.001,0.008-0.001h0.002h0.006h0.004h0.006h0.002h0.006h0.003h0.005h0.004h0.004c0.001,0,0.003,0,0.004-0.001
	h0.004H14.1h0.006h0.002h0.006h0.003h0.008h0.003h0.006h0.003h0.005h0.004h0.004h0.004h0.005c0.001,0,0.002-0.001,0.004-0.001h0.005
	h0.003h0.005h0.003h0.007h0.002h0.008h0.002h0.006H14.2h0.005h0.004h0.005h0.003h0.006h0.002h0.006h0.002h0.006h0.004h0.005h0.003
	h0.008c0.018,0,0.034-0.001,0.051-0.003c0.017,0.002,0.033,0.003,0.051,0.003c0.214,0.003,0.426,0.013,0.636,0.029
	c0.01,0.001,0.021,0.002,0.03,0.003h0.002c0.002,0,0.005,0,0.007,0.001c0.008,0,0.016,0.001,0.022,0.002h0.002h0.006h0.002
	c0.002,0.001,0.005,0.001,0.007,0.001h0.001c0.005,0.001,0.01,0.001,0.015,0.001c0.003,0.001,0.005,0.001,0.009,0.001
	c0.002,0,0.004,0.001,0.006,0.001h0.002c0.002,0,0.004,0,0.008,0.001h0.001h0.007h0.001c0.002,0.001,0.004,0.001,0.006,0.001h0.002
	c0.002,0,0.004,0.001,0.006,0.001h0.003c0.002,0,0.004,0,0.008,0.001l0,0h0.006h0.002c0.002,0.001,0.005,0.001,0.007,0.001h0.001
	c0.002,0,0.004,0.001,0.006,0.001h0.002c0.002,0,0.004,0,0.007,0.001h0.001h0.006c0.002,0,0.002,0.001,0.002,0.001h0.006h0.003
	c0.002,0.001,0.004,0.001,0.006,0.001H15.2c0.002,0,0.004,0.001,0.005,0.001h0.003c0.002,0,0.004,0,0.005,0.001h0.003h0.005
	c0,0.001,0.002,0.001,0.004,0.001h0.004l0.002,0.001h0.007h0.003c0.002,0.001,0.004,0.001,0.005,0.001h0.003
	c0.002,0,0.003,0.001,0.004,0.001h0.004c0.001,0,0.003,0,0.004,0.001h0.006c0,0,0.002,0,0.004,0.002h0.002h0.006
	c0,0,0.002,0,0.004,0h0.003c0.002,0,0.003,0.002,0.005,0.002h0.003c0.001,0,0.003,0,0.005,0H15.3c0.001,0,0.002,0,0.004,0.002h0.005
	h0.004h0.002h0.007c0.001,0,0.001,0.002,0.001,0.002h0.007c0.001,0,0.002,0,0.003,0h0.005c0.001,0.003,0.002,0.003,0.003,0.003
	c0.004,0,0.01,0,0.014,0h0.002c0.002,0.002,0.004,0.002,0.006,0.002l0,0c0.004,0,0.007,0,0.009,0h0.001
	c0.004,0.002,0.009,0.002,0.013,0.002h0.001c0.002,0,0.006,0.002,0.008,0.002h0.002c0.002,0,0.004,0,0.006,0h0.002
	c0.003,0.002,0.006,0.002,0.008,0.002h0.001c0.005,0,0.009,0,0.013,0.002h0.001c0.002,0,0.005,0,0.009,0
	c0.01,0.002,0.021,0.004,0.029,0.005h0.001c0.3,0.041,0.595,0.097,0.881,0.17c0.041,0.01,0.082,0.015,0.123,0.015
	c0.224,0,0.429-0.15,0.484-0.378c0.065-0.268-0.097-0.539-0.363-0.606c-0.698-0.176-1.442-0.271-2.213-0.277H14.37
	c-0.018,0-0.034,0.001-0.051,0.002C14.296,535.001,14.277,535,14.258,535L14.258,535z M10.171,535.807
	c-0.063,0-0.126,0.013-0.187,0.036c-0.683,0.275-1.336,0.611-1.942,0.999c-0.232,0.149-0.3,0.459-0.151,0.691
	c0.095,0.148,0.257,0.229,0.421,0.229c0.092,0,0.184-0.023,0.268-0.076c0.341-0.221,0.697-0.418,1.063-0.599h0.001
	c0.004-0.002,0.009-0.005,0.014-0.007c0.003-0.001,0.005-0.002,0.007-0.003s0.004-0.002,0.006-0.003
	c0.001-0.001,0.001-0.001,0.002-0.001c0.002-0.001,0.003-0.002,0.005-0.003H9.68c0.001-0.001,0.004-0.004,0.006-0.004
	c0-0.002,0.001-0.002,0.001-0.002c0.002,0,0.004-0.002,0.005-0.002s0.001,0,0.002,0c0.002-0.002,0.004-0.002,0.006-0.004h0.001
	c0.002-0.002,0.004-0.002,0.005-0.002c0.001-0.002,0.002-0.002,0.002-0.002c0.002,0,0.003-0.002,0.005-0.002
	c0.001-0.001,0.001-0.001,0.002-0.001c0.001-0.001,0.004-0.002,0.005-0.003c0.001,0,0.002-0.001,0.003-0.001
	c0.001-0.001,0.002-0.001,0.004-0.002c0,0,0.001-0.001,0.002-0.001c0.002-0.001,0.004-0.002,0.006-0.003
	c0.001,0,0.002-0.001,0.002-0.001c0.001-0.001,0.003-0.001,0.004-0.002c0.001,0,0.002-0.001,0.003-0.001
	c0.001-0.001,0.002-0.001,0.003-0.001c0.002-0.002,0.004-0.002,0.005-0.003s0.002-0.001,0.003-0.002
	c0.001,0,0.002-0.001,0.004-0.001c0,0,0.001-0.001,0.002-0.001c0.004-0.002,0.008-0.004,0.013-0.007h0.001
	c0.005-0.002,0.009-0.004,0.014-0.008c0.002,0,0.004,0,0.005-0.002h0.001c0.003-0.003,0.006-0.004,0.009-0.006
	c0.002,0,0.003-0.001,0.005-0.002H9.81c0.004-0.002,0.009-0.005,0.014-0.007c0.176-0.082,0.354-0.159,0.534-0.229
	c0.256-0.104,0.38-0.396,0.277-0.651C10.556,535.925,10.369,535.807,10.171,535.807L10.171,535.807z M6.668,538.076
	c-0.127,0-0.255,0.049-0.353,0.146c-0.554,0.554-1.018,1.157-1.38,1.792c-0.137,0.24-0.053,0.545,0.187,0.684
	c0.078,0.044,0.163,0.063,0.247,0.063c0.174,0,0.342-0.09,0.435-0.252c0.033-0.06,0.068-0.118,0.104-0.177
	c0.003-0.004,0.005-0.009,0.008-0.014c0.003-0.004,0.005-0.008,0.008-0.013l0.001-0.002c0.002-0.004,0.005-0.008,0.007-0.012
	c0-0.001,0.001-0.001,0.001-0.001c0.001-0.002,0.001-0.003,0.002-0.004c0-0.001,0.001-0.001,0.001-0.002
	c0.001-0.002,0.003-0.004,0.004-0.006l0.001-0.002c0.001-0.002,0.002-0.004,0.002-0.004c0.001-0.002,0.001-0.002,0.002-0.004
	c0.001,0,0.002-0.002,0.003-0.004c0,0,0.001-0.002,0.002-0.002c0-0.002,0.001-0.003,0.001-0.004
	c0.001-0.001,0.002-0.003,0.002-0.004c0.001-0.001,0.002-0.002,0.003-0.003s0.001-0.003,0.002-0.004s0.001-0.001,0.002-0.002
	c0-0.003,0.001-0.003,0.002-0.005c0,0,0.001,0,0.001-0.002c0.001-0.002,0.002-0.002,0.003-0.004s0.001-0.002,0.002-0.003
	c0.001-0.002,0.002-0.004,0.003-0.006l0,0c0.002-0.002,0.003-0.004,0.004-0.006l0.001-0.002c0.001-0.002,0.002-0.003,0.003-0.005
	l0.001-0.001c0.001-0.002,0.002-0.004,0.003-0.006c0.001,0,0.001-0.001,0.001-0.001c0.001-0.002,0.002-0.003,0.003-0.006h0.001
	c0.001-0.002,0.003-0.004,0.004-0.006v-0.002c0.002-0.002,0.003-0.004,0.004-0.006l0,0c0.002-0.002,0.003-0.004,0.004-0.006h0.001
	c0.001-0.004,0.002-0.006,0.004-0.008c0.003-0.004,0.005-0.009,0.008-0.013c0.288-0.442,0.629-0.856,1.01-1.236
	c0.194-0.196,0.194-0.511-0.001-0.706C6.925,538.125,6.796,538.076,6.668,538.076L6.668,538.076z M4.614,541.778
	c-0.235,0-0.444,0.167-0.49,0.405c-0.093,0.479-0.134,0.971-0.122,1.463c0.009,0.312,0.044,0.621,0.106,0.918
	c0.049,0.234,0.257,0.397,0.489,0.397c0.034,0,0.068-0.004,0.103-0.011c0.27-0.057,0.443-0.321,0.387-0.591
	c-0.009-0.045-0.017-0.089-0.025-0.134c0,0,0-0.002-0.001-0.004c-0.001-0.007-0.002-0.013-0.003-0.019v-0.001
	c0-0.001,0-0.002-0.001-0.004v-0.002v-0.003c0,0-0.001-0.001-0.001-0.003v-0.002v-0.002c-0.001-0.002-0.001-0.002-0.001-0.004
	c0,0,0-0.002-0.001-0.002v-0.003c0-0.003,0-0.005-0.001-0.006v-0.002c0-0.001,0-0.002-0.001-0.004v-0.001v-0.004
	c-0.001-0.001-0.001-0.001-0.001-0.002v-0.004l-0.001-0.001v-0.005c-0.001-0.01-0.003-0.018-0.004-0.023
	c-0.02-0.135-0.034-0.271-0.041-0.413v-0.005v-0.001v-0.005v-0.001c-0.001-0.007-0.001-0.017-0.001-0.023l0,0v-0.006
	c0,0,0,0,0-0.001c-0.001-0.001-0.001-0.003-0.001-0.004v-0.002v-0.005v-0.013c0,0,0,0,0-0.002c0,0,0-0.002-0.001-0.004v-0.002
	v-0.004v-0.002v-0.004v-0.002v-0.004v-0.001v-0.007v-0.004v-0.002c0-0.002,0-0.002-0.001-0.004v-0.003v-0.004l0,0V543.6l0,0v-0.005
	v-0.001v-0.005c-0.008-0.418,0.029-0.823,0.105-1.215c0.052-0.272-0.125-0.534-0.396-0.586
	C4.677,541.781,4.646,541.778,4.614,541.778L4.614,541.778z M5.547,545.961c-0.109,0-0.219,0.035-0.31,0.107
	c-0.217,0.172-0.254,0.485-0.082,0.703c0.435,0.55,0.984,1.041,1.633,1.461c-0.014,0.01-0.028,0.019-0.041,0.027
	c-0.082,0.061-0.188,0.108-0.309,0.141c-0.818,0.209-1.07,0.798-1.035,1.237c0.012,0.158,0.129,0.951,1.218,1.052
	c0.217,0.016,0.414,0.024,0.613,0.031H7.25c0.269,0,0.491-0.214,0.5-0.482c0.009-0.276-0.208-0.508-0.484-0.518
	c-0.183-0.006-0.363-0.015-0.539-0.025H6.72c-0.002,0-0.005-0.002-0.007-0.002H6.711c0,0,0,0-0.001,0H6.709H6.708H6.707
	c0,0,0,0-0.001,0H6.705c-0.001,0-0.002,0-0.003,0H6.7c-0.075-0.008-0.134-0.021-0.18-0.034H6.519l-0.001-0.001c0,0,0,0-0.001,0
	H6.516c-0.001,0-0.001-0.001-0.001-0.001s0,0-0.001,0c-0.001,0-0.002-0.001-0.003-0.001l-0.001-0.001H6.509c0,0,0,0-0.001,0H6.507
	c-0.087-0.032-0.118-0.074-0.104-0.119h0.001v-0.001v-0.002h0.001c0.021-0.061,0.123-0.123,0.282-0.164h0.001h0.001v-0.001H6.69
	c0.001,0,0.002,0,0.003-0.001h0.002h0.001c0.001-0.001,0.001-0.001,0.002-0.001h0.001c0.001,0,0.001-0.001,0.002-0.001h0.001h0.001
	c0.001,0,0.001,0,0.002-0.001h0.001c0.001,0,0.001,0,0.002-0.001h0.001H6.71c0.233-0.064,0.447-0.163,0.628-0.297
	c0.222-0.162,0.27-0.475,0.108-0.697c-0.012-0.016-0.024-0.03-0.037-0.044c0.074-0.04,0.139-0.099,0.187-0.175
	c0.146-0.235,0.075-0.543-0.159-0.689c-0.41-0.256-0.783-0.547-1.108-0.873c-0.005-0.005-0.009-0.009-0.014-0.014
	c-0.005-0.006-0.009-0.01-0.014-0.014c-0.003-0.004-0.006-0.008-0.01-0.012c-0.001,0-0.002-0.002-0.003-0.002v-0.002
	c-0.004-0.003-0.007-0.007-0.01-0.01H6.277c-0.001-0.001-0.001-0.002-0.002-0.003c-0.001,0-0.001-0.001-0.001-0.001
	c-0.002-0.002-0.004-0.004-0.006-0.007H6.267c-0.001-0.002-0.002-0.002-0.003-0.004c-0.001,0-0.002-0.002-0.003-0.002v-0.003
	c-0.002-0.002-0.005-0.004-0.007-0.006l0,0c-0.001-0.002-0.002-0.002-0.003-0.004c0,0,0,0-0.001,0c0,0-0.001-0.002-0.002-0.002
	l-0.001-0.002c-0.002-0.002-0.004-0.004-0.006-0.006c0-0.001-0.001-0.001-0.001-0.001c-0.001-0.001-0.002-0.002-0.002-0.003H6.237
	c-0.001-0.001-0.002-0.002-0.003-0.003c0,0,0,0,0-0.001c-0.001-0.001-0.002-0.002-0.003-0.003H6.23
	c-0.001-0.001-0.002-0.003-0.002-0.003l-0.001-0.002c-0.001,0-0.002-0.002-0.003-0.002c0,0,0,0,0-0.002
	c-0.001,0-0.002,0-0.003-0.002c0,0,0,0-0.001,0c0-0.002-0.001-0.002-0.002-0.004l-0.001-0.002c-0.001,0-0.002,0-0.002-0.002
	c-0.001,0-0.001,0-0.002-0.002H6.212c-0.001-0.002-0.001-0.002-0.002-0.002c0,0-0.001-0.002-0.002-0.002
	c0,0-0.001-0.002-0.001-0.003c-0.001,0-0.002-0.001-0.002-0.002c0,0-0.001-0.001-0.002-0.002l-0.001-0.001L6.2,546.454
	c-0.001,0-0.001-0.001-0.002-0.002c0,0,0,0-0.001-0.001s-0.001-0.002-0.002-0.002c-0.001-0.001-0.001-0.001-0.002-0.002
	c0-0.001-0.001-0.001-0.002-0.002c0-0.002-0.001-0.002-0.001-0.002c-0.001,0-0.001-0.002-0.001-0.002c-0.001,0-0.002,0-0.002-0.002
	c-0.001,0-0.001,0-0.001,0c-0.001-0.002-0.002-0.002-0.002-0.002l-0.001-0.003c-0.001,0-0.002-0.002-0.003-0.004
	c-0.001,0-0.001,0-0.002,0c0-0.002-0.001-0.002-0.001-0.003c-0.001,0-0.001-0.001-0.002-0.001c0-0.001-0.001-0.002-0.001-0.002
	l-0.001-0.001c-0.002-0.003-0.005-0.005-0.007-0.007v-0.001c-0.001-0.001-0.002-0.002-0.002-0.002l-0.001-0.001
	c-0.003-0.004-0.006-0.007-0.01-0.011c-0.001-0.002-0.002-0.004-0.002-0.004H6.15c-0.003-0.004-0.006-0.008-0.01-0.012v-0.001
	c-0.001,0-0.002-0.001-0.002-0.002H6.137c-0.003-0.004-0.006-0.008-0.009-0.011c-0.001,0-0.001-0.001-0.001-0.001
	c0-0.001-0.001-0.001-0.002-0.002v-0.001c-0.004-0.003-0.007-0.008-0.01-0.012c-0.062-0.068-0.12-0.14-0.177-0.209
	C5.84,546.025,5.694,545.961,5.547,545.961L5.547,545.961z M11.075,548.762c-0.003,0.004-0.006,0.006-0.01,0.008
	c-0.457,0.371-0.991,0.606-1.556,0.752c-0.002,0-0.003,0-0.004,0.002c-0.001,0-0.003,0-0.004,0
	c-0.006,0.003-0.013,0.005-0.019,0.006v0.001H9.478v0.001H9.475H9.474c-0.001,0.001-0.002,0.001-0.003,0.001H9.47
	c-0.001,0.001-0.002,0.001-0.003,0.001c-0.001,0.001-0.002,0.001-0.003,0.001H9.463c-0.004,0.001-0.008,0.002-0.011,0.003H9.451
	c-0.001,0.001-0.002,0.001-0.003,0.001H9.447c-0.001,0-0.002,0.001-0.002,0.001H9.443c-0.001,0-0.001,0-0.002,0.001H9.439H9.438
	c-0.001,0.001-0.002,0.001-0.003,0.001H9.434c-0.001,0-0.002,0.001-0.002,0.001H9.43c0,0-0.001,0.001-0.002,0.001c0,0,0,0-0.001,0
	c-0.007,0.002-0.015,0.004-0.021,0.005v0.001c-0.049,0.011-0.099,0.021-0.148,0.032c-0.27,0.057-0.444,0.319-0.387,0.592
	c0.049,0.235,0.257,0.397,0.489,0.397c0.033,0,0.068-0.004,0.102-0.012c0.877-0.182,1.628-0.521,2.232-1.01
	c0.214-0.173,0.248-0.486,0.078-0.699C11.538,548.823,11.307,548.795,11.075,548.762L11.075,548.762z M15.12,548.836
	c-0.024,0-0.048,0.002-0.073,0.005c-0.072,0.011-0.145,0.021-0.218,0.029l-0.001,0.001h-0.005h-0.001
	c-0.004,0.001-0.008,0.001-0.012,0.002h-0.002c-0.002,0-0.004,0-0.004,0.001h-0.003h-0.004c-0.001,0-0.002,0.001-0.002,0.001h-0.004
	h-0.003c-0.001,0-0.002,0-0.003,0.001h-0.002H14.78c-0.002,0.001-0.006,0.001-0.008,0.001H14.77c0,0-0.002,0.001-0.004,0.001l0,0
	h-0.004h-0.003c-0.001,0.001-0.002,0.001-0.004,0.001c0,0,0,0-0.001,0c-0.005,0.001-0.01,0.001-0.015,0.002h-0.005h-0.002
	c0,0.001-0.002,0.001-0.004,0.001c-0.114,0.013-0.229,0.022-0.345,0.032c0,0,0,0-0.001,0h-0.004h-0.002h-0.004
	c0,0.001-0.001,0.001-0.002,0.001l0,0h-0.006c-0.295,0.021-0.591,0.032-0.888,0.032h-0.008h-0.002H13.46h-0.002H13.45h-0.002h-0.007
	h-0.002h-0.008H13.43h-0.008H13.42h-0.006h-0.003h-0.007H13.4h-0.006h-0.002h-0.007H13.38h-0.005h-0.003h-0.005h-0.005h-0.006
	h-0.004H13.35h-0.004h-0.004h-0.009h-0.002c-0.002,0-0.004,0-0.006,0h-0.002H13.31h-0.004h-0.002h-0.02h-0.007
	c-0.007,0-0.013,0-0.02-0.002h-0.001h-0.019h-0.001H13.21h-0.001c-0.006,0-0.012,0-0.018,0h-0.002h-0.006h-0.002H13.17h-0.002
	h-0.004H13.16c-0.001,0-0.003-0.002-0.004-0.002H13.15h-0.002h-0.006H13.14h-0.009h-0.009h-0.001c-0.022,0-0.047-0.002-0.07-0.002
	h-0.016c-0.269,0-0.491,0.213-0.499,0.482c-0.009,0.275,0.208,0.507,0.484,0.518c0.151,0.004,0.304,0.006,0.455,0.006
	c0.33,0,0.653-0.013,0.965-0.035c0.25-0.019,0.503-0.045,0.75-0.081c0.273-0.04,0.463-0.294,0.424-0.567
	C15.578,549.016,15.364,548.836,15.12,548.836L15.12,548.836z M19.01,547.217c-0.109,0-0.219,0.035-0.311,0.108
	c-0.112,0.09-0.227,0.175-0.346,0.258c0,0,0,0-0.002,0c-0.004,0.003-0.009,0.006-0.013,0.009c0,0-0.001,0-0.001,0.001
	c-0.001,0.001-0.003,0.001-0.004,0.002s-0.001,0.001-0.002,0.001c-0.004,0.004-0.008,0.006-0.011,0.008
	c-0.001,0.002-0.003,0.002-0.003,0.002s-0.002,0.002-0.004,0.002l-0.002,0.002c-0.002,0.002-0.004,0.004-0.006,0.006
	c0,0-0.002,0-0.002,0.001c-0.002,0.001-0.002,0.001-0.004,0.002c-0.001,0.001-0.001,0.001-0.002,0.002
	c-0.001,0-0.002,0.001-0.003,0.002c-0.001,0-0.002,0.001-0.003,0.002c-0.002,0.001-0.003,0.002-0.004,0.002
	c-0.001,0.001-0.003,0.002-0.004,0.003c-0.001,0-0.001,0.001-0.002,0.001c-0.001,0.001-0.002,0.002-0.003,0.003
	c-0.001,0-0.003,0.001-0.003,0.001c-0.002,0.001-0.004,0.003-0.006,0.004c0,0,0,0.001-0.002,0.001c0,0.001-0.002,0.003-0.004,0.003
	c0,0,0,0.003-0.003,0.003c0,0-0.002,0.002-0.004,0.002c-0.001,0-0.001,0.002-0.002,0.002s-0.003,0.002-0.005,0.004
	c-0.001,0-0.001,0-0.002,0c-0.001,0.002-0.003,0.003-0.004,0.004c-0.001,0-0.001,0-0.002,0.001
	c-0.004,0.002-0.008,0.005-0.012,0.007c-0.002,0.001-0.002,0.001-0.002,0.001c-0.002,0.001-0.004,0.002-0.006,0.003v0.001
	c-0.004,0.003-0.008,0.006-0.013,0.008c0,0,0,0.001-0.001,0.001c-0.004,0.002-0.008,0.006-0.012,0.008
	c-0.003,0.002-0.004,0.004-0.006,0.004h-0.002c-0.377,0.248-0.785,0.461-1.224,0.639c-0.255,0.104-0.377,0.396-0.272,0.65
	c0.078,0.193,0.266,0.312,0.464,0.312c0.062,0,0.126-0.014,0.188-0.037c0.724-0.294,1.387-0.679,1.971-1.145
	c0.216-0.172,0.252-0.485,0.08-0.701C19.303,547.281,19.157,547.217,19.01,547.217L19.01,547.217z M21.305,543.638
	c-0.226,0-0.43,0.154-0.484,0.384v0.002c-0.004,0.008-0.004,0.013-0.006,0.018v0.001c-0.002,0.005-0.002,0.011-0.004,0.017l0,0
	c0,0.002,0,0.004-0.002,0.006l0,0c0,0.006-0.002,0.011-0.004,0.016v0.002c0,0.005-0.003,0.01-0.004,0.015v0.001
	c-0.001,0.002-0.001,0.004-0.001,0.006h-0.001c0,0.004-0.001,0.006-0.002,0.011v0.001c-0.001,0.002-0.001,0.003-0.001,0.005
	l-0.001,0.001c-0.001,0.003-0.002,0.007-0.002,0.01c-0.001,0.002-0.001,0.003-0.002,0.005v0.001
	c-0.001,0.005-0.003,0.012-0.004,0.016v0.002c-0.001,0.002-0.001,0.003-0.002,0.005v0.002c-0.001,0.002-0.001,0.005-0.002,0.007
	c0,0.001,0,0.002-0.001,0.003c0,0.001,0,0.002-0.001,0.004v0.002c-0.002,0.005-0.004,0.009-0.004,0.013c0,0,0,0.002-0.002,0.005
	c0,0,0,0.002,0,0.004l0,0c-0.002,0.005-0.002,0.007-0.002,0.009c-0.002,0.001-0.002,0.002-0.002,0.003s0,0.002,0,0.004
	c0,0.001-0.002,0.002-0.002,0.002c0,0.002,0,0.005,0,0.007c0,0-0.002,0.002-0.002,0.004c0,0,0,0.002,0,0.004
	c-0.002,0-0.002,0.002-0.002,0.002c0,0.002,0,0.004,0,0.004c-0.003,0.002-0.003,0.002-0.003,0.004s0,0.004-0.002,0.006
	c0,0.001,0,0.002-0.001,0.003c0,0.001,0,0.003-0.001,0.004c0,0.001,0,0.002-0.001,0.003c0,0.002-0.001,0.004-0.001,0.006
	s-0.001,0.002-0.001,0.004c-0.001,0-0.001,0.002-0.001,0.002c-0.001,0.002-0.001,0.002-0.001,0.005c0,0.002-0.001,0.004-0.001,0.006
	c-0.001,0-0.001,0.002-0.002,0.002c0,0.002,0,0.004-0.001,0.005c0,0.001,0,0.002-0.001,0.003v0.004
	c-0.001,0.001-0.001,0.002-0.002,0.004c0,0.001-0.001,0.003-0.001,0.005s-0.001,0.002-0.001,0.004l-0.001,0.002
	c0,0.003-0.001,0.003-0.001,0.005c0,0.001-0.001,0.003-0.001,0.005c-0.001,0.002-0.001,0.002-0.002,0.004
	c0,0.002,0,0.002-0.001,0.004c0,0,0,0.002-0.001,0.002c0,0.002,0,0.003-0.001,0.004c0,0.002-0.001,0.004-0.001,0.006
	c-0.002,0.002-0.002,0.002-0.002,0.004c-0.002,0-0.002,0.002-0.002,0.004c0,0.001,0,0.002,0,0.003
	c-0.002,0.001-0.002,0.003-0.002,0.005c0,0.001,0,0.002-0.002,0.003c0,0.001,0,0.004,0,0.004c0,0.002-0.002,0.002-0.002,0.004
	s0,0.002,0,0.004l-0.002,0.002c0,0.003,0,0.005-0.002,0.007c0,0.002,0,0.002,0,0.004c0,0,0,0.002-0.002,0.004
	c0,0.001,0,0.002,0,0.002c0,0.003-0.002,0.004-0.002,0.006c0,0.001,0,0.002,0,0.003c-0.002,0.001-0.002,0.003-0.002,0.004
	c-0.001,0.001-0.001,0.003-0.001,0.003c-0.001,0.002-0.001,0.004-0.002,0.004c0,0.002,0,0.002-0.001,0.004
	c0,0.002-0.001,0.004-0.001,0.006c-0.001,0.002-0.001,0.002-0.001,0.002c-0.001,0.002-0.001,0.004-0.002,0.006v0.002
	c-0.001,0.002-0.001,0.004-0.002,0.006c0,0.001-0.001,0.002-0.001,0.003s-0.001,0.002-0.001,0.004c0,0.001-0.001,0.002-0.001,0.002
	c-0.001,0.002-0.001,0.004-0.002,0.006c0,0.002,0,0.002-0.001,0.002c0,0.003-0.001,0.005-0.001,0.007l-0.001,0.002
	c0,0.002-0.001,0.004-0.001,0.004c-0.001,0.002-0.001,0.003-0.001,0.004c-0.001,0.002-0.001,0.004-0.002,0.006
	c0,0-0.002,0.001-0.002,0.002s0,0.003,0,0.004s-0.002,0.002-0.002,0.003c0,0.002,0,0.004-0.002,0.006c0,0.001,0,0.001,0,0.003
	c0,0-0.002,0.002-0.002,0.004s0,0.002,0,0.002c-0.002,0.002-0.002,0.004-0.002,0.008l0,0c-0.002,0.003-0.002,0.005-0.002,0.007
	c0,0.001-0.002,0.002-0.002,0.002c0,0.002,0,0.004-0.003,0.005v0.002c0,0.002-0.002,0.004-0.002,0.006c0,0.001,0,0.002,0,0.003
	c-0.002,0.001-0.002,0.004-0.003,0.004v0.003c-0.001,0.004-0.002,0.006-0.002,0.008c-0.001,0-0.001,0-0.001,0
	c-0.001,0.002-0.001,0.005-0.002,0.006v0.003c-0.001,0.001-0.002,0.003-0.002,0.005l-0.001,0.001c0,0.003-0.001,0.005-0.002,0.007
	v0.002c-0.001,0.001-0.002,0.003-0.002,0.005l-0.001,0.001c0,0.004-0.001,0.006-0.002,0.008l0,0
	c-0.001,0.002-0.002,0.004-0.002,0.006c-0.001,0-0.001,0.002-0.001,0.004c-0.001,0.004-0.004,0.009-0.006,0.013v0.002
	c0,0.002-0.002,0.003-0.002,0.005c0,0.001,0,0.001-0.002,0.001c0,0.003,0,0.005-0.002,0.008l0,0c0,0.003-0.002,0.005-0.002,0.007
	s0,0.002,0,0.002c-0.002,0.002-0.002,0.004-0.002,0.007v0.001c-0.002,0.002-0.002,0.004-0.004,0.006v0.002
	c0,0.002,0,0.003-0.002,0.006l0,0c0,0.003-0.002,0.005-0.003,0.007v0.001c-0.001,0.002-0.002,0.004-0.002,0.006l-0.001,0.002
	c-0.001,0.002-0.002,0.004-0.002,0.006l-0.001,0.002c0,0.002-0.001,0.005-0.002,0.007v0.001c-0.002,0.005-0.004,0.009-0.005,0.014
	l-0.001,0.001c0,0.002-0.001,0.005-0.002,0.008c-0.001,0.002-0.002,0.004-0.003,0.006v0.003c-0.002,0.002-0.002,0.004-0.002,0.006
	h-0.002c0,0.002,0,0.006-0.002,0.008c0,0.002-0.002,0.005-0.002,0.007v0.001c-0.002,0.004-0.004,0.009-0.006,0.014c0,0,0,0,0,0.002
	s-0.003,0.004-0.003,0.006l0,0c-0.002,0.002-0.002,0.006-0.004,0.008l0,0c0,0.002-0.002,0.005-0.002,0.007c0,0.001,0,0.001,0,0.002
	c-0.003,0.004-0.005,0.009-0.006,0.013v0.001c-0.002,0.006-0.004,0.01-0.006,0.015v0.002c-0.001,0.002-0.002,0.004-0.003,0.006l0,0
	c-0.002,0.006-0.003,0.01-0.006,0.015c0,0,0,0,0,0.001c-0.002,0.004-0.004,0.01-0.006,0.014l0,0c0,0.002-0.002,0.006-0.004,0.008
	c0,0.002-0.002,0.006-0.002,0.008c-0.002,0.002-0.002,0.005-0.004,0.007v0.001c-0.002,0.004-0.004,0.009-0.004,0.015h-0.002
	c-0.002,0.004-0.003,0.011-0.005,0.015c0,0,0,0-0.001,0c-0.001,0.002-0.001,0.004-0.002,0.008c-0.002,0.005-0.004,0.009-0.006,0.014
	c-0.002,0.006-0.004,0.01-0.006,0.016c-0.004,0.008-0.006,0.014-0.01,0.021c0,0,0,0,0,0.001c-0.002,0.004-0.004,0.01-0.007,0.014
	c-0.002,0.006-0.004,0.011-0.006,0.015c-0.003,0.008-0.006,0.015-0.009,0.021c-0.002,0.005-0.004,0.009-0.006,0.016
	c-0.006,0.012-0.012,0.022-0.018,0.034c-0.002,0.006-0.004,0.011-0.006,0.015c-0.125,0.285-0.271,0.558-0.438,0.815
	c-0.149,0.232-0.082,0.543,0.148,0.691c0.084,0.054,0.178,0.079,0.271,0.079c0.164,0,0.324-0.08,0.421-0.229
	c0.42-0.651,0.728-1.371,0.912-2.137c0.063-0.269-0.101-0.538-0.368-0.604C21.384,543.643,21.344,543.638,21.305,543.638
	L21.305,543.638z M21.089,539.417c-0.052,0-0.106,0.008-0.159,0.026c-0.262,0.087-0.402,0.371-0.313,0.633
	c0.002,0.005,0.004,0.01,0.005,0.016h0.001c0,0.002,0.001,0.003,0.001,0.005c0,0,0,0,0,0.001c0.001,0.002,0.001,0.002,0.002,0.004
	v0.002c0.001,0,0.001,0.002,0.002,0.004c0,0.003,0.001,0.005,0.002,0.007v0.002c0,0.001,0.001,0.002,0.001,0.003
	s0.001,0.001,0.001,0.002s0,0.002,0.001,0.003c0,0.001,0,0.002,0.001,0.002v0.003c0.001,0.001,0.001,0.001,0.001,0.002
	s0.001,0.002,0.001,0.003c0.001,0.002,0.001,0.005,0.002,0.007v0.002c0.001,0,0.001,0.002,0.001,0.002l0.003,0.002
	c0,0.002,0,0.002,0,0.004l0,0c0.062,0.195,0.117,0.399,0.166,0.609v0.001c0,0.007,0.002,0.013,0.004,0.02v0.001
	c0,0.001,0,0.002,0,0.004c0,0,0,0.001,0.002,0.002v0.003c0,0,0,0.002,0,0.003v0.002c0.002,0.002,0.002,0.003,0.002,0.005
	s0,0.005,0.002,0.007v0.002c0,0,0,0.002,0,0.004v0.002c0.002,0.005,0.002,0.009,0.004,0.013v0.001
	c0.001,0.002,0.001,0.004,0.001,0.006h0.001c0.001,0.007,0.002,0.014,0.004,0.02v0.002c0.033,0.152,0.061,0.308,0.084,0.459l0,0
	c0.001,0.002,0.001,0.004,0.001,0.006c0.001,0.005,0.002,0.009,0.002,0.014c0.001,0.002,0.001,0.004,0.001,0.006
	c0.001,0.005,0.002,0.009,0.002,0.014c0.001,0.002,0.001,0.004,0.001,0.006l0,0c0.001,0.002,0.001,0.005,0.001,0.008
	c0.001,0.002,0.001,0.004,0.001,0.006v0.001c0.001,0.002,0.001,0.003,0.001,0.005v0.001c0.001,0.002,0.001,0.003,0.001,0.005v0.001
	c0,0.002,0.001,0.004,0.001,0.006v0.002c0,0.003,0.001,0.003,0.001,0.005v0.002c0,0.002,0,0.002,0.001,0.004v0.002
	c0,0.002,0,0.004,0.001,0.006v0.002v0.004c0.001,0.001,0.001,0.001,0.001,0.002v0.003c0,0.001,0.001,0.002,0.001,0.003v0.005
	c0.001,0.001,0.001,0.003,0.001,0.003v0.004l0.001,0.002v0.002v0.005l0,0c0.001,0.004,0.001,0.007,0.003,0.01c0,0,0,0,0,0.001v0.004
	c0,0,0,0,0,0.001v0.004c0.002,0.005,0.002,0.011,0.002,0.015v0.002c0.002,0.006,0.002,0.012,0.004,0.019
	c0.023,0.185,0.041,0.364,0.053,0.544c0.017,0.266,0.236,0.469,0.496,0.469c0.013,0,0.021,0,0.031,0
	c0.276-0.018,0.486-0.255,0.469-0.528c-0.025-0.457-0.092-0.927-0.194-1.394c-0.062-0.279-0.136-0.559-0.228-0.826
	C21.493,539.549,21.298,539.417,21.089,539.417L21.089,539.417z M18.441,536.08c-0.168,0-0.332,0.086-0.429,0.24
	c-0.143,0.236-0.066,0.544,0.169,0.687c0.006,0.004,0.012,0.007,0.018,0.011c0.002,0.002,0.005,0.002,0.007,0.004
	c0.003,0.002,0.005,0.005,0.007,0.005c0.006,0.005,0.012,0.009,0.018,0.012c0,0,0,0.001,0.002,0.001
	c0.002,0.001,0.002,0.002,0.006,0.004h0.002c0.001,0.001,0.003,0.002,0.005,0.004c0.001,0,0.001,0,0.002,0.001
	c0.002,0.001,0.003,0.002,0.005,0.003c0,0,0.001,0.001,0.002,0.001c0.001,0.001,0.003,0.003,0.004,0.003s0.002,0.002,0.003,0.002
	c0.001,0.002,0.005,0.002,0.005,0.004c0.002,0,0.002,0,0.002,0.002c0.002,0,0.004,0,0.004,0.002c0.002,0,0.002,0,0.004,0.002
	c0,0,0.002,0,0.002,0.002c0.002,0,0.004,0,0.005,0.002c0.001,0,0.002,0,0.003,0.002c0.001,0.001,0.003,0.002,0.004,0.003
	c0.001,0,0.002,0.001,0.002,0.001c0.002,0.001,0.003,0.002,0.005,0.003c0,0,0.001,0.001,0.002,0.001
	c0.001,0.001,0.003,0.002,0.004,0.003c0.001,0,0.002,0.001,0.003,0.002c0.002,0,0.002,0.001,0.004,0.002
	c0,0.001,0.002,0.001,0.002,0.002c0.002,0.001,0.004,0.001,0.004,0.002c0.002,0.001,0.002,0.001,0.002,0.003
	c0.002,0,0.005,0.002,0.007,0.002c0,0,0.001,0,0.001,0.002c0.002,0,0.004,0.002,0.005,0.002s0.001,0.002,0.002,0.002
	c0.002,0,0.003,0.002,0.005,0.002c0,0,0.001,0.003,0.002,0.003s0.003,0.002,0.004,0.002c0.001,0.002,0.002,0.002,0.002,0.002
	c0.002,0.002,0.006,0.002,0.006,0.004c0.002,0,0.002,0,0.002,0.001c0.002,0.001,0.004,0.002,0.006,0.003v0.001
	c0.002,0.001,0.004,0.002,0.006,0.004h0.002c0.002,0.002,0.003,0.003,0.005,0.004c0,0,0.001,0,0.001,0.001
	c0.002,0.001,0.004,0.002,0.005,0.003l0.001,0.001c0.002,0.001,0.004,0.003,0.006,0.003c0,0,0,0.002,0.001,0.002
	c0.002,0,0.003,0.002,0.005,0.004h0.002c0.002,0,0.004,0.004,0.006,0.004c0,0,0,0,0,0.002c0.002,0,0.004,0.002,0.006,0.002v0.002
	c0.003,0,0.006,0.002,0.008,0.004h0.001c0.002,0.002,0.004,0.003,0.005,0.004c0.001,0,0.001,0,0.001,0.001
	c0.002,0.001,0.004,0.002,0.006,0.003c0,0.001,0,0.001,0.001,0.001c0.002,0.001,0.004,0.003,0.006,0.004
	c0.006,0.003,0.01,0.007,0.014,0.009l0,0c0.002,0.002,0.004,0.002,0.007,0.004c0.002,0.002,0.004,0.004,0.006,0.005l0.001,0.002
	c0.002,0,0.004,0.002,0.006,0.004c0.002,0,0.004,0.002,0.006,0.004c0,0,0,0,0.001,0c0.003,0.002,0.005,0.002,0.005,0.004h0.002
	c0.002,0.002,0.004,0.004,0.006,0.005c0.007,0.006,0.014,0.01,0.02,0.014c0.002,0.002,0.004,0.002,0.006,0.005h0.001
	c0.002,0.001,0.004,0.003,0.007,0.004c0.002,0.002,0.004,0.003,0.006,0.005h0.002c0.002,0.002,0.002,0.004,0.004,0.004h0.002
	c0.002,0.002,0.004,0.004,0.006,0.006c0.002,0,0.004,0.003,0.006,0.004c0.007,0.006,0.013,0.01,0.02,0.014
	c0.002,0.002,0.004,0.004,0.006,0.005l0,0c0.002,0.002,0.005,0.003,0.007,0.005c0.002,0.001,0.005,0.003,0.007,0.005
	c0,0,0,0,0.001,0c0.001,0.002,0.003,0.002,0.005,0.004h0.001c0.002,0.002,0.004,0.004,0.006,0.004v0.002
	c0.002,0,0.005,0.003,0.007,0.005s0.004,0.002,0.006,0.004c0.006,0.004,0.01,0.007,0.014,0.01c0.002,0.001,0.004,0.003,0.006,0.004
	c0.002,0.002,0.004,0.003,0.006,0.005h0.001c0.002,0.002,0.004,0.003,0.007,0.005c0.002,0.002,0.004,0.004,0.006,0.004
	c0.002,0.002,0.004,0.004,0.006,0.006s0.005,0.002,0.007,0.006l0,0c0.007,0.004,0.013,0.009,0.019,0.014
	c0.002,0.001,0.004,0.003,0.006,0.004l0.002,0.001c0,0.001,0.002,0.002,0.004,0.004h0.002c0.002,0.002,0.004,0.003,0.006,0.004
	v0.002c0.002,0,0.004,0.002,0.006,0.005l0,0c0.002,0.002,0.005,0.004,0.007,0.004c0.002,0.002,0.004,0.004,0.006,0.006h0.001
	c0.002,0.002,0.003,0.003,0.005,0.005c0.005,0.003,0.009,0.006,0.013,0.009c0.002,0.002,0.005,0.003,0.007,0.005
	s0.004,0.003,0.006,0.004v0.001c0.002,0.001,0.005,0.004,0.007,0.004c0,0,0,0.002,0.001,0.002s0.003,0.002,0.005,0.004
	c0,0,0,0,0.001,0c0.002,0.002,0.003,0.002,0.005,0.004h0.002c0.002,0.004,0.002,0.005,0.004,0.007h0.002
	c0.002,0.002,0.004,0.003,0.006,0.004v0.001c0.002,0.001,0.004,0.003,0.006,0.004l0,0c0.002,0.002,0.004,0.003,0.006,0.005l0,0
	c0.003,0.002,0.004,0.003,0.006,0.005h0.001c0.002,0.002,0.004,0.003,0.005,0.004l0.001,0.002c0.002,0.002,0.005,0.004,0.005,0.004
	c0.002,0,0.002,0.002,0.002,0.002c0.002,0.002,0.004,0.002,0.006,0.004l0,0c0.002,0.002,0.004,0.004,0.007,0.004v0.002
	c0.002,0.002,0.004,0.003,0.006,0.004v0.001c0.002,0.001,0.004,0.003,0.006,0.004l0.001,0.001c0.002,0.001,0.003,0.002,0.005,0.004
	h0.001c0.001,0.002,0.003,0.003,0.004,0.004c0.001,0.002,0.001,0.002,0.002,0.002c0.002,0.002,0.004,0.002,0.006,0.004l0,0
	c0.002,0.002,0.004,0.004,0.006,0.004c0,0.003,0,0.003,0,0.003c0.004,0.002,0.004,0.002,0.006,0.004h0.002
	c0.002,0.002,0.002,0.004,0.004,0.004c0,0.002,0.002,0.002,0.002,0.002c0.002,0.002,0.002,0.003,0.004,0.004
	c0,0.001,0.002,0.001,0.002,0.001c0.002,0.002,0.003,0.003,0.005,0.004c0,0.001,0.001,0.001,0.002,0.002
	c0.001,0.002,0.002,0.002,0.004,0.004l0.001,0.002c0.002,0,0.004,0,0.004,0.002c0.002,0,0.002,0.002,0.004,0.002
	c0,0.002,0.002,0.002,0.002,0.002c0.002,0.002,0.002,0.003,0.002,0.003c0.002,0.001,0.005,0.002,0.005,0.004
	c0.002,0,0.002,0.001,0.002,0.001c0.002,0.002,0.004,0.002,0.004,0.004c0.002,0,0.002,0.002,0.002,0.002
	c0.002,0.002,0.004,0.002,0.004,0.004c0.002,0,0.003,0,0.003,0c0.002,0.002,0.003,0.004,0.004,0.005
	c0.001,0,0.002,0.001,0.002,0.002c0.002,0.001,0.003,0.003,0.004,0.003c0.002,0,0.002,0.002,0.004,0.002
	c0,0.002,0.002,0.002,0.002,0.004c0.002,0,0.002,0,0.002,0.002c0.002,0,0.004,0.002,0.004,0.002c0.002,0,0.002,0.002,0.002,0.003
	c0.002,0.001,0.004,0.002,0.004,0.002c0.002,0.001,0.004,0.002,0.004,0.003s0.002,0.002,0.002,0.002
	c0.002,0.001,0.002,0.002,0.004,0.003c0,0.002,0.002,0.002,0.002,0.002c0.002,0.002,0.003,0.002,0.004,0.004
	c0.001,0,0.002,0.002,0.003,0.002s0.002,0.002,0.003,0.002c0.001,0.002,0.002,0.002,0.004,0.005c0,0,0.002,0,0.002,0.002
	l0.004,0.002c0,0.002,0.002,0.002,0.002,0.002c0.002,0.002,0.002,0.002,0.004,0.004c0,0,0.002,0.002,0.003,0.003
	c0.002,0,0.002,0.001,0.002,0.001c0.002,0.001,0.004,0.003,0.004,0.004c0.002,0,0.002,0.001,0.002,0.001
	c0.002,0.002,0.004,0.003,0.004,0.004c0.002,0.001,0.002,0.001,0.002,0.001c0.002,0.002,0.004,0.003,0.005,0.005
	c0.001,0,0.001,0,0.002,0.001c0.001,0.002,0.003,0.002,0.004,0.004c0.002,0,0.002,0.002,0.002,0.002l0.004,0.004
	c0.002,0,0.002,0,0.002,0c0.002,0.002,0.004,0.006,0.006,0.006c0,0,0,0,0,0.002c0.004,0.002,0.008,0.004,0.01,0.008
	c0.002,0.002,0.004,0.003,0.006,0.005l0.002,0.001c0,0.001,0.002,0.003,0.005,0.005h0.001c0.001,0.002,0.003,0.003,0.005,0.005
	c0,0,0,0,0.001,0.001c0.002,0.002,0.004,0.004,0.006,0.004v0.002c0.002,0.002,0.004,0.002,0.006,0.005c0,0,0,0,0,0.002
	c0.228,0.202,0.438,0.427,0.63,0.67c0.1,0.125,0.245,0.189,0.394,0.189c0.107,0,0.219-0.034,0.311-0.107
	c0.217-0.17,0.252-0.484,0.082-0.701c-0.482-0.612-1.075-1.133-1.76-1.549C18.62,536.104,18.531,536.08,18.441,536.08L18.441,536.08
	z"/>
<path id="ic_cloud-copy-2" sketch:type="MSShapeGroup" fill="#FFFFFF" d="M4,784.58C4,787.02,5.846,789,8.113,789h11.772
	c2.269,0,4.113-1.98,4.113-4.42c0-2.367-1.739-4.307-3.92-4.413v-0.014c0-2.841-2.146-5.153-4.8-5.153
	c-1.72,0-3.229,0.967-4.074,2.42c-0.287-0.133-0.6-0.213-0.926-0.213c-1.3,0-2.36,1.14-2.36,2.525c0,0.153,0.014,0.293,0.033,0.435
	C5.753,780.254,4,782.193,4,784.58"/>
<path id="Fill-1-Copy" sketch:type="MSShapeGroup" fill="#FFFFFF" d="M7,819h14v9H7V819z M21,817H7c-1.1,0-2,0.9-2,2v9
	c0,1.1,0.9,2,2,2h4v1l-4,1v1h14v-1l-4-1v-1h4c1.1,0,2-0.9,2-2v-9C23,817.9,22.1,817,21,817L21,817z M22,828c0,0.55-0.45,1-1,1H7
	c-0.55,0-1-0.45-1-1v-9c0-0.55,0.45-1,1-1h14c0.55,0,1,0.45,1,1V828L22,828z"/>
<g id="Group-Copy-3" transform="translate(7.000000, 858.000000)" sketch:type="MSLayerGroup">
	<g sketch:type="MSShapeGroup">
		<path id="Rectangle-67_1_" fill="none" stroke="#FFFFFF" d="M-1,11l9.584-9.584c0.782-0.782,2.053-0.779,2.828-0.004l0.176,0.176
			c0.779,0.78,0.773,2.051-0.004,2.828L2,14l-5,2L-1,11z"/>
		<path id="Path-280_1_" fill="none" stroke="#FFFFFF" d="M6.97,2.969l3.062,3"/>
		<path id="Path-280-Copy_1_" fill="none" stroke="#FFFFFF" d="M-0.03,9.969l3.062,3"/>
		<rect id="Rectangle-68-Copy_1_" x="6" y="15" fill="#FFFFFF" width="4" height="1"/>
		<rect id="Rectangle-68-Copy-2_1_" x="12" y="15" fill="#FFFFFF" width="2" height="1"/>
		<rect id="Rectangle-68-Copy-3_1_" x="2" y="15" fill="#FFFFFF" width="2" height="1"/>
	</g>
</g>
<path id="Rectangle-138-Copy-5" sketch:type="MSShapeGroup" fill="#FFFFFF" d="M14,908h2v-4h-4v3v3h2V908z M8,908h2v-4H6v3v3h2V908
	L8,908z"/>
<path id="Rectangle-144-Copy-8" sketch:type="MSShapeGroup" fill="#FFFFFF" d="M14.414,936l4.95-4.949l-1.415-1.414L13,934.586
	l-4.95-4.949l-1.415,1.414l4.95,4.949l-4.95,4.95l1.415,1.414l4.95-4.95l4.949,4.95l1.415-1.414L14.414,936z"/>
<path id="Fill-5-Copy-2" sketch:type="MSShapeGroup" fill="#FFFFFF" d="M15.95,998.561c0-0.149-0.08-0.659-0.28-0.75
	c-0.18-0.069-0.779-0.371-0.779-0.371c0-0.05-0.07-0.17-0.08-0.31c0-0.149,0.08-0.3,0.08-0.3c0.079-0.16,0.369-0.53,0.449-0.83
	s0.17-1.05,0.17-1.05c0-0.16,0.24-0.23,0.391-0.312c0.271-0.119,0.479-1.738,0.479-1.738c0-0.521-0.21-0.29-0.21-0.67v-1.41
	c0-1.721-1.4-2.82-3.14-2.82H12.97c-1.74,0-3.14,1.1-3.14,2.82v1.41c0,0.38-0.21,0.148-0.21,0.67c0,0,0.21,1.619,0.48,1.738
	c0.15,0.08,0.39,0.15,0.39,0.312c0,0,0.09,0.75,0.17,1.05s0.37,0.67,0.45,0.83c0,0,0.08,0.15,0.08,0.3
	c-0.01,0.14-0.08,0.26-0.08,0.31c0,0-0.6,0.302-0.78,0.371c-0.2,0.091-0.28,0.601-0.28,0.75c-0.68,0.229-4.34,1.92-4.75,2.341
	c-0.3,0.31-0.3,2.118-0.3,2.118v0.23c0,0.41,0.34,0.75,0.75,0.75h14.5c0.41,0,0.75-0.34,0.75-0.75v-0.23c0,0,0-1.81-0.3-2.118
	C20.29,1000.48,16.63,998.79,15.95,998.561z"/>
<path id="Imported-Layers-Copy-3" sketch:type="MSShapeGroup" fill="#FFFFFF" d="M14.258,1025c-0.716,0-1.449,0.073-2.181,0.218
	c-0.271,0.054-0.447,0.317-0.394,0.588c0.048,0.238,0.257,0.403,0.49,0.403c0.032,0,0.065-0.003,0.097-0.01
	c0.384-0.075,0.767-0.13,1.147-0.163h0.008c0.003-0.001,0.005-0.001,0.009-0.001c0.018-0.001,0.035-0.003,0.053-0.004h0.001
	c0.003-0.001,0.005-0.001,0.007-0.001h0.001h0.007l0.001-0.001h0.007h0.001c0.003,0,0.005-0.001,0.007-0.001
	c0.014-0.001,0.025-0.002,0.039-0.002v-0.001h0.008l0,0c0.002,0,0.006-0.001,0.008-0.001h0.001h0.006h0.002
	c0.002-0.001,0.005-0.001,0.007-0.001c0.012-0.002,0.021-0.002,0.031-0.002h0.006h0.002c0.002,0,0.004-0.002,0.006-0.002h0.002
	h0.006h0.002c0.002,0,0.004,0,0.006,0h0.002h0.007h0.002c0.002-0.002,0.004-0.002,0.006-0.002h0.001c0.01,0,0.02-0.001,0.029-0.002
	H13.7h0.005h0.003h0.005c0.001-0.001,0.002-0.001,0.003-0.001h0.005h0.003h0.006h0.002c0.002-0.001,0.004-0.001,0.006-0.001h0.003
	h0.006c0.007-0.001,0.014-0.001,0.021-0.001h0.002c0.002,0,0.004-0.001,0.006-0.001h0.002h0.006h0.004h0.004
	c0.001-0.001,0.002-0.001,0.004-0.001H13.8h0.004h0.006h0.002c0.002-0.001,0.004-0.001,0.006-0.001h0.002
	c0.006,0,0.013,0,0.019-0.001h0.003h0.005h0.003h0.004h0.004c0.002-0.001,0.004-0.001,0.004-0.001h0.004h0.006h0.003h0.005h0.004
	c0.001-0.001,0.002-0.001,0.004-0.001h0.004h0.004h0.006H13.9h0.005c0.001-0.001,0.003-0.001,0.004-0.001h0.004h0.004h0.004h0.004
	h0.005c0.002,0,0.002-0.001,0.004-0.001h0.004h0.004h0.005h0.004h0.004h0.004h0.004c0.003-0.001,0.006-0.001,0.011-0.001h0.002
	h0.004h0.004h0.004h0.004h0.004h0.005c0.001,0,0.002-0.001,0.003-0.001h0.005h0.004h0.005h0.004h0.004h0.004h0.005h0.003
	c0.003-0.001,0.006-0.001,0.008-0.001h0.002h0.006h0.004h0.006h0.002h0.006h0.003h0.005h0.004h0.004c0.001,0,0.003,0,0.004-0.001
	h0.004H14.1h0.006h0.002h0.006h0.003h0.008h0.003h0.006h0.003h0.005h0.004h0.004h0.004h0.005c0.001,0,0.002-0.001,0.004-0.001h0.005
	h0.003h0.005h0.003h0.007h0.002h0.008h0.002h0.006H14.2h0.005h0.004h0.005h0.003h0.006h0.002h0.006h0.002h0.006h0.004h0.005h0.003
	h0.008c0.018,0,0.034-0.001,0.051-0.003c0.017,0.002,0.033,0.003,0.051,0.003c0.214,0.003,0.426,0.012,0.636,0.029
	c0.01,0,0.021,0.002,0.03,0.003h0.002c0.002,0,0.005,0,0.007,0.001c0.008,0,0.016,0.001,0.022,0.002h0.002h0.006h0.002
	c0.002,0.001,0.005,0.001,0.007,0.001h0.001c0.005,0.001,0.01,0.001,0.015,0.001c0.003,0.001,0.005,0.001,0.009,0.001
	c0.002,0,0.004,0.001,0.006,0.001h0.002c0.002,0,0.004,0,0.008,0.001h0.001h0.007h0.001c0.002,0.001,0.004,0.001,0.006,0.001h0.002
	c0.002,0,0.004,0.001,0.006,0.001h0.003c0.002,0,0.004,0,0.008,0.001l0,0h0.006h0.002c0.002,0.001,0.005,0.001,0.007,0.001h0.001
	c0.002,0,0.004,0.001,0.006,0.001h0.002c0.002,0,0.004,0,0.007,0.001h0.001h0.006c0.002,0,0.002,0.001,0.002,0.001h0.006h0.003
	c0.002,0.001,0.004,0.001,0.006,0.001H15.2c0.002,0,0.004,0.001,0.005,0.001h0.003c0.002,0,0.004,0,0.005,0.001h0.003h0.005
	c0,0.001,0.002,0.001,0.004,0.001h0.004l0.002,0.001h0.007h0.003c0.002,0.001,0.004,0.001,0.005,0.001h0.003
	c0.002,0,0.003,0.001,0.004,0.001h0.004c0.001,0,0.003,0,0.004,0.001h0.006c0,0,0.002,0,0.004,0.001h0.002h0.006
	c0,0.001,0.002,0.001,0.004,0.001h0.003c0.002,0,0.003,0.001,0.005,0.001h0.003c0.001,0,0.003,0.001,0.005,0.001H15.3
	c0.001,0,0.002,0,0.004,0.002h0.005h0.004h0.002h0.007c0.001,0,0.001,0.002,0.001,0.002h0.007c0.001,0,0.002,0,0.003,0h0.005
	c0.001,0.002,0.002,0.002,0.003,0.002c0.004,0,0.01,0,0.014,0h0.002c0.002,0.002,0.004,0.002,0.006,0.002l0,0
	c0.004,0.001,0.007,0.001,0.009,0.001h0.001c0.004,0.001,0.009,0.001,0.013,0.002h0.001c0.002,0,0.006,0.001,0.008,0.001h0.002
	c0.002,0,0.004,0.001,0.006,0.001h0.002c0.003,0.001,0.006,0.001,0.008,0.001h0.001c0.005,0.001,0.009,0.001,0.013,0.002h0.001
	c0.002,0,0.005,0.001,0.009,0.001c0.01,0.001,0.021,0.003,0.029,0.004h0.001c0.3,0.041,0.595,0.097,0.881,0.17
	c0.041,0.01,0.082,0.015,0.123,0.015c0.224,0,0.429-0.149,0.484-0.378c0.065-0.268-0.097-0.539-0.363-0.605
	c-0.698-0.177-1.442-0.271-2.213-0.278H14.37c-0.018,0-0.034,0.001-0.051,0.002C14.296,1025.001,14.277,1025,14.258,1025
	L14.258,1025z M10.171,1025.807c-0.063,0-0.126,0.013-0.187,0.036c-0.683,0.275-1.336,0.611-1.942,0.999
	c-0.232,0.149-0.3,0.459-0.151,0.691c0.095,0.147,0.257,0.229,0.421,0.229c0.092,0,0.184-0.023,0.268-0.076
	c0.341-0.221,0.697-0.42,1.063-0.599h0.001c0.004-0.002,0.009-0.005,0.014-0.007c0.003-0.001,0.005-0.002,0.007-0.003
	s0.004-0.002,0.006-0.003c0.001-0.001,0.001-0.001,0.002-0.001c0.002-0.001,0.003-0.002,0.005-0.003H9.68
	c0.001-0.001,0.004-0.002,0.006-0.004h0.001c0.002-0.002,0.004-0.004,0.005-0.004s0.001,0,0.002,0
	c0.002-0.002,0.004-0.002,0.006-0.004h0.001c0.002-0.002,0.004-0.002,0.005-0.003s0.002-0.001,0.002-0.001
	c0.002-0.001,0.003-0.002,0.005-0.002c0.001-0.001,0.001-0.001,0.002-0.001c0.001-0.001,0.004-0.002,0.005-0.003
	c0.001,0,0.002-0.001,0.003-0.001c0.001-0.001,0.002-0.001,0.004-0.002c0,0,0.001-0.001,0.002-0.001
	c0.002-0.001,0.004-0.002,0.006-0.003c0.001,0,0.002-0.001,0.002-0.001c0.001-0.001,0.003-0.001,0.004-0.002
	c0.001,0,0.002-0.001,0.003-0.001c0.001-0.001,0.002-0.001,0.003-0.001c0.002-0.002,0.004-0.002,0.005-0.003
	s0.002-0.001,0.003-0.002c0.001,0,0.002-0.001,0.004-0.001c0,0,0.001-0.001,0.002-0.001c0.004-0.002,0.008-0.004,0.013-0.006
	l0.001-0.001c0.005-0.002,0.009-0.004,0.014-0.009c0.002-0.001,0.004-0.001,0.005-0.002h0.001c0.003-0.002,0.006-0.003,0.009-0.005
	c0.002,0,0.003-0.001,0.005-0.002H9.81c0.004-0.002,0.009-0.005,0.014-0.007c0.176-0.082,0.354-0.159,0.534-0.229
	c0.256-0.104,0.38-0.396,0.277-0.651C10.556,1025.925,10.369,1025.807,10.171,1025.807L10.171,1025.807z M6.668,1028.076
	c-0.127,0-0.255,0.049-0.353,0.146c-0.554,0.556-1.018,1.157-1.38,1.792c-0.137,0.24-0.053,0.545,0.187,0.684
	c0.078,0.044,0.163,0.063,0.247,0.063c0.174,0,0.342-0.09,0.435-0.252c0.033-0.06,0.068-0.119,0.104-0.177
	c0.003-0.004,0.005-0.009,0.008-0.013c0.003-0.005,0.005-0.009,0.008-0.015l0.001-0.001c0.002-0.004,0.005-0.008,0.007-0.012
	c0-0.001,0.001-0.001,0.001-0.001c0.001-0.002,0.001-0.003,0.002-0.004c0-0.001,0.001-0.001,0.001-0.002
	c0.001-0.002,0.003-0.004,0.004-0.006c0,0,0.001-0.001,0.001-0.002c0.001-0.001,0.002-0.002,0.002-0.003
	c0.001-0.001,0.001-0.002,0.002-0.004c0.001,0,0.002-0.002,0.003-0.005c0,0,0.001-0.002,0.002-0.002
	c0-0.002,0.001-0.002,0.001-0.004c0.001-0.001,0.002-0.003,0.002-0.004c0.001-0.001,0.002-0.002,0.003-0.003
	s0.001-0.003,0.002-0.004s0.001-0.001,0.002-0.002c0-0.002,0.001-0.003,0.002-0.004c0-0.001,0.001-0.001,0.001-0.002
	c0.001-0.002,0.002-0.003,0.003-0.005c0.001-0.001,0.001-0.001,0.002-0.002c0.001-0.002,0.002-0.003,0.003-0.006l0,0
	c0.002-0.002,0.003-0.006,0.004-0.008h0.001c0.001-0.002,0.002-0.004,0.003-0.006l0.001-0.001c0.001-0.002,0.002-0.004,0.003-0.006
	c0.001,0,0.001-0.001,0.001-0.001c0.001-0.002,0.002-0.003,0.003-0.005l0.001-0.001c0.001-0.002,0.003-0.004,0.004-0.006v-0.001
	c0.002-0.002,0.003-0.004,0.004-0.005v-0.001c0.002-0.002,0.003-0.004,0.004-0.006h0.001c0.001-0.004,0.002-0.006,0.004-0.009
	c0.003-0.004,0.005-0.009,0.008-0.013c0.288-0.441,0.629-0.855,1.01-1.235c0.194-0.195,0.194-0.512-0.001-0.706
	C6.925,1028.125,6.796,1028.076,6.668,1028.076L6.668,1028.076z M4.614,1031.778c-0.235,0-0.444,0.167-0.49,0.404
	c-0.093,0.479-0.134,0.972-0.122,1.464c0.009,0.312,0.044,0.619,0.106,0.918c0.049,0.234,0.257,0.397,0.489,0.397
	c0.034,0,0.068-0.004,0.103-0.011c0.27-0.057,0.443-0.321,0.387-0.591c-0.009-0.044-0.017-0.089-0.025-0.134
	c0,0,0-0.003-0.001-0.005c-0.001-0.006-0.002-0.012-0.003-0.018v-0.001c0-0.001,0-0.002-0.001-0.004v-0.002v-0.003
	c0,0-0.001-0.001-0.001-0.002v-0.003v-0.002c-0.001-0.002-0.001-0.002-0.001-0.005c0,0,0-0.002-0.001-0.003v-0.002
	c0-0.002,0-0.004-0.001-0.005v-0.002c0-0.001,0-0.002-0.001-0.004v-0.001v-0.004c-0.001-0.001-0.001-0.001-0.001-0.002v-0.004
	l-0.001-0.001v-0.005c-0.001-0.01-0.003-0.018-0.004-0.023c-0.02-0.135-0.034-0.271-0.041-0.413v-0.005v-0.001v-0.005v-0.001
	c-0.001-0.007-0.001-0.016-0.001-0.022v-0.002v-0.005c0,0,0,0,0-0.001c-0.001-0.001-0.001-0.003-0.001-0.004v-0.002v-0.005v-0.012
	c0,0,0,0,0-0.001s0-0.003-0.001-0.005v-0.002v-0.004v-0.002v-0.005v-0.002v-0.004v-0.001v-0.006v-0.005v-0.001
	c0-0.002,0-0.003-0.001-0.005v-0.001v-0.005l0,0v-0.006c0,0,0,0,0-0.001v-0.004v-0.001v-0.006c-0.008-0.418,0.029-0.823,0.105-1.215
	c0.052-0.271-0.125-0.533-0.396-0.586C4.677,1031.781,4.646,1031.778,4.614,1031.778L4.614,1031.778z M5.547,1035.961
	c-0.109,0-0.219,0.035-0.31,0.108c-0.217,0.171-0.254,0.484-0.082,0.702c0.435,0.55,0.984,1.041,1.633,1.462
	c-0.014,0.009-0.028,0.018-0.041,0.026c-0.082,0.061-0.188,0.108-0.309,0.141c-0.818,0.209-1.07,0.798-1.035,1.238
	c0.012,0.157,0.129,0.95,1.218,1.051c0.217,0.016,0.414,0.024,0.613,0.031H7.25c0.269,0,0.491-0.214,0.5-0.482
	c0.009-0.276-0.208-0.508-0.484-0.518c-0.183-0.006-0.363-0.015-0.539-0.025H6.72c-0.002,0-0.005-0.001-0.007-0.001H6.711
	c0,0,0,0-0.001,0H6.709H6.708H6.707c0,0,0,0-0.001,0H6.705c-0.001,0-0.002,0-0.003-0.001H6.7c-0.075-0.008-0.134-0.021-0.18-0.034
	H6.519l-0.001-0.001c0,0,0,0-0.001,0H6.516c-0.001,0-0.001-0.001-0.001-0.001s0,0-0.001,0c-0.001,0-0.002-0.001-0.003-0.001
	l-0.001-0.001H6.509c0,0,0,0-0.001,0H6.507c-0.087-0.032-0.118-0.074-0.104-0.119h0.001v-0.001v-0.002h0.001
	c0.021-0.061,0.123-0.123,0.282-0.164h0.001h0.001v-0.001H6.69c0.001,0,0.002,0,0.003-0.001h0.002h0.001
	c0.001-0.001,0.001-0.001,0.002-0.001h0.001c0.001,0,0.001-0.001,0.002-0.001h0.001h0.001c0.001,0,0.001,0,0.002-0.001h0.001
	c0.001,0,0.001,0,0.002-0.001h0.001H6.71c0.233-0.063,0.447-0.163,0.628-0.296c0.222-0.163,0.27-0.476,0.108-0.698
	c-0.012-0.016-0.024-0.029-0.037-0.044c0.074-0.04,0.139-0.1,0.187-0.175c0.146-0.234,0.075-0.543-0.159-0.688
	c-0.41-0.257-0.783-0.548-1.108-0.873c-0.005-0.005-0.009-0.01-0.014-0.015s-0.009-0.01-0.014-0.014
	c-0.003-0.004-0.006-0.008-0.01-0.011c-0.001-0.001-0.002-0.002-0.003-0.003v-0.002c-0.004-0.003-0.007-0.007-0.01-0.01H6.277
	c-0.001-0.001-0.001-0.002-0.002-0.003c-0.001,0-0.001-0.001-0.001-0.001c-0.002-0.002-0.004-0.004-0.006-0.006l-0.001-0.001
	c-0.001-0.001-0.002-0.002-0.003-0.004c-0.001,0-0.002-0.002-0.003-0.002v-0.002c-0.002-0.002-0.005-0.004-0.007-0.006v-0.001
	c-0.001-0.001-0.002-0.002-0.003-0.003c0,0,0,0-0.001,0c0-0.001-0.001-0.002-0.002-0.003l-0.001-0.002
	c-0.002-0.002-0.004-0.004-0.006-0.006c0-0.001-0.001-0.001-0.001-0.001c-0.001-0.001-0.002-0.002-0.002-0.003H6.237
	c-0.001-0.001-0.002-0.002-0.003-0.003c0,0,0,0,0-0.001c-0.001-0.001-0.002-0.002-0.003-0.003H6.23
	c-0.001-0.001-0.002-0.002-0.002-0.003l-0.001-0.001c-0.001-0.001-0.002-0.003-0.003-0.003c0,0,0,0,0-0.002
	c-0.001,0-0.002,0-0.003-0.002c0,0,0-0.001-0.001-0.001c0-0.001-0.001-0.002-0.002-0.003l-0.001-0.001
	c-0.001-0.001-0.002-0.001-0.002-0.002c-0.001-0.001-0.001-0.001-0.002-0.002l-0.001-0.001c-0.001-0.001-0.001-0.001-0.002-0.002
	c0,0-0.001-0.001-0.002-0.002c0,0-0.001-0.001-0.001-0.002c-0.001,0-0.002-0.001-0.002-0.002c0,0-0.001-0.001-0.002-0.002
	l-0.001-0.001l-0.002-0.002c-0.001,0-0.001-0.001-0.002-0.002c0,0,0,0-0.001-0.001s-0.001-0.002-0.002-0.002
	c-0.001-0.001-0.001-0.001-0.002-0.002c0-0.001-0.001-0.001-0.002-0.002c0-0.001-0.001-0.001-0.001-0.002
	c-0.001,0-0.001-0.001-0.001-0.001c-0.001-0.001-0.002-0.001-0.002-0.003c-0.001,0-0.001,0-0.001,0
	c-0.001-0.002-0.002-0.002-0.002-0.002l-0.001-0.002c-0.001,0-0.002-0.004-0.003-0.005c-0.001,0-0.001-0.001-0.002-0.001
	c0-0.001-0.001-0.001-0.001-0.002c-0.001,0-0.001-0.001-0.002-0.001c0-0.001-0.001-0.002-0.001-0.002l-0.001-0.001
	c-0.002-0.003-0.005-0.005-0.007-0.007v-0.001c-0.001-0.001-0.002-0.002-0.002-0.002l-0.001-0.001
	c-0.003-0.004-0.006-0.007-0.01-0.011c-0.001-0.001-0.002-0.002-0.002-0.002L6.15,1036.4c-0.003-0.004-0.006-0.009-0.01-0.013
	v-0.001c-0.001,0-0.002-0.001-0.002-0.002H6.137c-0.003-0.004-0.006-0.008-0.009-0.011c-0.001,0-0.001-0.001-0.001-0.001
	c0-0.001-0.001-0.001-0.002-0.002v-0.001c-0.004-0.003-0.007-0.007-0.01-0.011c-0.062-0.069-0.12-0.141-0.177-0.21
	C5.84,1036.026,5.694,1035.961,5.547,1035.961L5.547,1035.961z M11.075,1038.762c-0.003,0.003-0.006,0.005-0.01,0.008
	c-0.457,0.37-0.991,0.606-1.556,0.752c-0.002,0-0.003,0-0.004,0.002c-0.001,0-0.003,0-0.004,0.002c-0.006,0-0.013,0.003-0.019,0.004
	v0.001H9.478v0.001H9.475H9.474c-0.001,0.001-0.002,0.001-0.003,0.001H9.47c-0.001,0.001-0.002,0.001-0.003,0.001
	c-0.001,0.001-0.002,0.001-0.003,0.001H9.463c-0.004,0.001-0.008,0.002-0.011,0.003H9.451c-0.001,0.001-0.002,0.001-0.003,0.001
	H9.447c-0.001,0-0.002,0.001-0.002,0.001H9.443c-0.001,0-0.001,0-0.002,0.001H9.439H9.438c-0.001,0.001-0.002,0.001-0.003,0.001
	H9.434c-0.001,0-0.002,0.001-0.002,0.001H9.43c0,0-0.001,0.001-0.002,0.001c0,0,0,0-0.001,0c-0.007,0.002-0.015,0.004-0.021,0.005
	v0.001c-0.049,0.011-0.099,0.021-0.148,0.032c-0.27,0.057-0.444,0.32-0.387,0.592c0.049,0.235,0.257,0.397,0.489,0.397
	c0.033,0,0.068-0.004,0.102-0.012c0.877-0.182,1.628-0.521,2.232-1.01c0.214-0.173,0.248-0.486,0.078-0.7
	C11.538,1038.823,11.307,1038.795,11.075,1038.762L11.075,1038.762z M15.12,1038.836c-0.024,0-0.048,0.002-0.073,0.005
	c-0.072,0.011-0.145,0.021-0.218,0.029l-0.001,0.001h-0.005h-0.001c-0.004,0.001-0.008,0.001-0.012,0.002h-0.002
	c-0.002,0-0.004,0-0.004,0.001h-0.003h-0.004c-0.001,0-0.002,0.001-0.002,0.001h-0.004h-0.003c-0.001,0-0.002,0-0.003,0.001h-0.002
	H14.78c-0.002,0.001-0.006,0.001-0.008,0.001H14.77c0,0-0.002,0.001-0.004,0.001l0,0h-0.004h-0.003
	c-0.001,0.001-0.002,0.001-0.004,0.001c0,0,0,0-0.001,0c-0.005,0.001-0.01,0.001-0.015,0.002h-0.005h-0.002
	c0,0.001-0.002,0.001-0.004,0.001c-0.114,0.013-0.229,0.022-0.345,0.032c0,0,0,0-0.001,0h-0.004h-0.002h-0.004
	c0,0.001-0.001,0.001-0.002,0.001l0,0h-0.006c-0.295,0.021-0.591,0.032-0.888,0.032h-0.008h-0.002H13.46h-0.002H13.45h-0.002h-0.007
	h-0.002h-0.008H13.43h-0.008H13.42h-0.006h-0.003h-0.007H13.4h-0.006h-0.002h-0.007H13.38h-0.005h-0.003h-0.005h-0.005h-0.006
	h-0.004H13.35h-0.004h-0.004h-0.009h-0.002c-0.002,0-0.004,0-0.006,0h-0.002H13.31h-0.004h-0.002h-0.02h-0.007
	c-0.007,0-0.013,0-0.02-0.002h-0.001h-0.019h-0.001H13.21h-0.001c-0.006,0-0.012,0-0.018,0h-0.002h-0.006h-0.002H13.17h-0.002
	h-0.004H13.16c-0.001,0-0.003-0.002-0.004-0.002H13.15h-0.002h-0.006H13.14h-0.009h-0.009h-0.001c-0.022,0-0.047-0.002-0.07-0.003
	h-0.016c-0.269,0-0.491,0.214-0.499,0.483c-0.009,0.276,0.208,0.507,0.484,0.517c0.151,0.005,0.304,0.007,0.455,0.007
	c0.33,0,0.653-0.013,0.965-0.035c0.25-0.019,0.503-0.045,0.75-0.081c0.273-0.04,0.463-0.294,0.424-0.567
	C15.578,1039.015,15.364,1038.836,15.12,1038.836L15.12,1038.836z M19.01,1037.217c-0.109,0-0.219,0.035-0.311,0.108
	c-0.112,0.09-0.227,0.175-0.346,0.258c0,0,0,0-0.002,0c-0.004,0.003-0.009,0.006-0.013,0.009c0,0-0.001,0-0.001,0.001
	c-0.001,0.001-0.003,0.001-0.004,0.002s-0.001,0.001-0.002,0.001c-0.004,0.004-0.008,0.006-0.011,0.009
	c-0.001,0.002-0.003,0.002-0.003,0.002s-0.002,0.002-0.004,0.003l-0.002,0.001c-0.002,0.002-0.004,0.003-0.006,0.005
	c0,0-0.002,0-0.002,0.001c-0.002,0.001-0.002,0.001-0.004,0.002c-0.001,0.001-0.001,0.001-0.002,0.002
	c-0.001,0-0.002,0.001-0.003,0.002c-0.001,0-0.002,0.001-0.003,0.002c-0.002,0.001-0.003,0.002-0.004,0.002
	c-0.001,0.001-0.003,0.002-0.004,0.003c-0.001,0-0.001,0.001-0.002,0.001c-0.001,0.001-0.002,0.002-0.003,0.003
	c-0.001,0-0.003,0.001-0.003,0.001c-0.002,0.001-0.004,0.003-0.006,0.004c0,0,0,0.001-0.002,0.001c0,0.001-0.002,0.002-0.004,0.003
	c0,0,0,0.001-0.003,0.001c0,0.001-0.002,0.004-0.004,0.004c-0.001,0-0.001,0.002-0.002,0.002s-0.003,0.002-0.005,0.004
	c-0.001,0-0.001,0-0.002,0.001s-0.003,0.002-0.004,0.003c-0.001,0-0.001,0-0.002,0.001c-0.004,0.002-0.008,0.005-0.012,0.007
	c-0.002,0.001-0.002,0.001-0.002,0.001c-0.002,0.001-0.004,0.002-0.006,0.003v0.001c-0.004,0.003-0.008,0.006-0.013,0.008
	c0,0,0,0.001-0.001,0.001c-0.004,0.002-0.008,0.005-0.012,0.008c-0.003,0.002-0.004,0.005-0.006,0.005h-0.002
	c-0.377,0.248-0.785,0.461-1.224,0.638c-0.255,0.104-0.377,0.396-0.272,0.65c0.078,0.193,0.266,0.312,0.464,0.312
	c0.062,0,0.126-0.012,0.188-0.037c0.724-0.294,1.387-0.679,1.971-1.143c0.216-0.173,0.252-0.487,0.08-0.703
	C19.303,1037.281,19.157,1037.217,19.01,1037.217L19.01,1037.217z M21.305,1033.638c-0.226,0-0.43,0.154-0.484,0.384v0.004
	c-0.004,0.006-0.004,0.011-0.006,0.016v0.001c-0.002,0.005-0.002,0.011-0.004,0.016l0,0c0,0.002,0,0.005-0.002,0.007l0,0
	c0,0.006-0.002,0.011-0.004,0.016v0.002c0,0.005-0.003,0.01-0.004,0.015v0.001c-0.001,0.002-0.001,0.003-0.001,0.005h-0.001
	c0,0.005-0.001,0.009-0.002,0.012v0.001c-0.001,0.002-0.001,0.003-0.001,0.005l-0.001,0.001c-0.001,0.003-0.002,0.007-0.002,0.01
	c-0.001,0.002-0.001,0.003-0.002,0.005v0.001c-0.001,0.005-0.003,0.011-0.004,0.016v0.002c-0.001,0.002-0.001,0.002-0.002,0.005
	v0.002c-0.001,0.002-0.001,0.005-0.002,0.007c0,0.001,0,0.002-0.001,0.003c0,0.001,0,0.002-0.001,0.004v0.002
	c-0.002,0.005-0.004,0.009-0.004,0.013c0,0,0,0.002-0.002,0.004v0.004v0.002c-0.002,0.004-0.002,0.006-0.002,0.008
	c-0.002,0.001-0.002,0.002-0.002,0.003s0,0.002,0,0.004c0,0.001-0.002,0.002-0.002,0.002c0,0.002,0,0.005,0,0.007
	c0,0-0.002,0.002-0.002,0.003s0,0.002,0,0.003c-0.002,0.001-0.002,0.002-0.002,0.004s0,0.004,0,0.004
	c-0.003,0.002-0.003,0.003-0.003,0.004c0,0.002,0,0.004-0.002,0.006c0,0.001,0,0.002-0.001,0.003c0,0.001,0,0.003-0.001,0.004
	c0,0.001,0,0.002-0.001,0.003c0,0.002-0.001,0.004-0.001,0.006c0,0.001-0.001,0.002-0.001,0.004c-0.001,0-0.001,0.002-0.001,0.003
	c-0.001,0.001-0.001,0.002-0.001,0.003c0,0.002-0.001,0.005-0.001,0.007c-0.001,0-0.001,0.002-0.002,0.003
	c0,0.002,0,0.003-0.001,0.004c0,0.001,0,0.002-0.001,0.003v0.004c-0.001,0.001-0.001,0.002-0.002,0.005c0,0-0.001,0.003-0.001,0.004
	c0,0.002-0.001,0.003-0.001,0.004s-0.001,0.002-0.001,0.003c0,0.002-0.001,0.002-0.001,0.004c0,0.001-0.001,0.003-0.001,0.004
	c-0.001,0.003-0.001,0.003-0.002,0.005c0,0.002,0,0.002-0.001,0.004c0,0.001,0,0.002-0.001,0.004c0,0,0,0.002-0.001,0.003
	c0,0.002-0.001,0.004-0.001,0.006c-0.002,0.001-0.002,0.002-0.002,0.003c-0.002,0.001-0.002,0.003-0.002,0.004s0,0.002,0,0.003
	c-0.002,0.001-0.002,0.003-0.002,0.005c0,0.001,0,0.002-0.002,0.003c0,0.001,0,0.003,0,0.005c0,0-0.002,0.002-0.002,0.004
	s0,0.002,0,0.004c0,0.001-0.002,0.002-0.002,0.003c0,0.002,0,0.004-0.002,0.006c0,0.001,0,0.002,0,0.003s0,0.002-0.002,0.004
	c0,0.001,0,0.002,0,0.002c0,0.003-0.002,0.004-0.002,0.006c0,0.001,0,0.002,0,0.004c-0.002,0-0.002,0.003-0.002,0.004
	c-0.001,0.001-0.001,0.002-0.001,0.003c-0.001,0.002-0.001,0.004-0.002,0.004c0,0.002,0,0.002-0.001,0.004
	c0,0.002-0.001,0.004-0.001,0.006c-0.001,0.001-0.001,0.001-0.001,0.002c-0.001,0.002-0.001,0.003-0.002,0.005v0.002
	c-0.001,0.002-0.001,0.004-0.002,0.006c0,0.001-0.001,0.002-0.001,0.004c0,0.001-0.001,0.002-0.001,0.004
	c0,0.001-0.001,0.002-0.001,0.002c-0.001,0.002-0.001,0.004-0.002,0.006c0,0.002,0,0.002-0.001,0.002
	c0,0.002-0.001,0.004-0.001,0.006c0,0.001-0.001,0.002-0.001,0.003s-0.001,0.003-0.001,0.004c-0.001,0.001-0.001,0.002-0.001,0.003
	c-0.001,0.002-0.001,0.004-0.002,0.006c0,0-0.002,0.001-0.002,0.002s0,0.004,0,0.004c0,0.002-0.002,0.002-0.002,0.004
	s0,0.004-0.002,0.006c0,0.001,0,0.001,0,0.002s-0.002,0.003-0.002,0.005s0,0.002,0,0.002c-0.002,0.003-0.002,0.005-0.002,0.007
	c0,0,0,0,0,0.001c-0.002,0.002-0.002,0.004-0.002,0.006c0,0.001-0.002,0.002-0.002,0.002c0,0.002,0,0.004-0.003,0.005v0.002
	c0,0.002-0.002,0.004-0.002,0.006c0,0.001,0,0.002,0,0.004c-0.002,0-0.002,0.003-0.003,0.004v0.002
	c-0.001,0.004-0.002,0.006-0.002,0.008c-0.001,0-0.001,0.001-0.001,0.001c-0.001,0.002-0.001,0.004-0.002,0.005v0.003
	c-0.001,0.001-0.002,0.003-0.002,0.005l-0.001,0.001c0,0.003-0.001,0.005-0.002,0.007v0.002c-0.001,0.001-0.002,0.004-0.002,0.006
	h-0.001c0,0.004-0.001,0.007-0.002,0.009l0,0c-0.001,0.002-0.002,0.005-0.002,0.007c-0.001,0-0.001,0.001-0.001,0.002
	c-0.001,0.004-0.004,0.009-0.006,0.013v0.002c0,0.002-0.002,0.003-0.002,0.005c0,0.001,0,0.001-0.002,0.001
	c0,0.003,0,0.005-0.002,0.007v0.001c0,0.002-0.002,0.005-0.002,0.007s0,0.002,0,0.002c-0.002,0.003-0.002,0.005-0.002,0.007v0.001
	c-0.002,0.002-0.002,0.004-0.004,0.006v0.002c0,0.002,0,0.003-0.002,0.006l0,0c0,0.003-0.002,0.005-0.003,0.007v0.001
	c-0.001,0.002-0.002,0.004-0.002,0.006l-0.001,0.002c-0.001,0.002-0.002,0.005-0.002,0.007l-0.001,0.001
	c0,0.002-0.001,0.004-0.002,0.006v0.001c-0.002,0.005-0.004,0.01-0.005,0.015l-0.001,0.001c0,0.002-0.001,0.005-0.002,0.007
	s-0.002,0.005-0.003,0.007v0.002c-0.002,0.002-0.002,0.004-0.002,0.006l-0.002,0.001c0,0.002,0,0.005-0.002,0.007
	c0,0.002-0.002,0.005-0.002,0.007v0.001c-0.002,0.005-0.004,0.01-0.006,0.015c0,0,0,0,0,0.001c0,0.003-0.003,0.005-0.003,0.007
	c0,0,0,0,0,0.001c-0.002,0.002-0.002,0.004-0.004,0.006v0.001c0,0.002-0.002,0.004-0.002,0.006c0,0.001,0,0.001,0,0.002
	c-0.003,0.004-0.005,0.009-0.006,0.013v0.001c-0.002,0.006-0.004,0.011-0.006,0.016v0.001c-0.001,0.002-0.002,0.004-0.003,0.006
	v0.001c-0.002,0.005-0.003,0.009-0.006,0.014c0,0,0,0,0,0.001c-0.002,0.004-0.004,0.009-0.006,0.015l0,0
	c0,0.002-0.002,0.006-0.004,0.008c0,0.002-0.002,0.005-0.002,0.007c-0.002,0.002-0.002,0.005-0.004,0.007v0.001
	c-0.002,0.004-0.004,0.009-0.004,0.015h-0.002c-0.002,0.005-0.003,0.011-0.005,0.015c0,0.001,0,0.001-0.001,0.001
	c-0.001,0.002-0.001,0.004-0.002,0.007c-0.002,0.005-0.004,0.009-0.006,0.014s-0.004,0.011-0.006,0.017
	c-0.004,0.007-0.006,0.014-0.01,0.021c0,0,0,0,0,0.001c-0.002,0.004-0.004,0.01-0.007,0.015c-0.002,0.006-0.004,0.01-0.006,0.015
	c-0.003,0.007-0.006,0.014-0.009,0.021c-0.002,0.004-0.004,0.009-0.006,0.015c-0.006,0.012-0.012,0.022-0.018,0.035
	c-0.002,0.006-0.004,0.01-0.006,0.015c-0.125,0.285-0.271,0.557-0.438,0.815c-0.149,0.231-0.082,0.543,0.148,0.69
	c0.084,0.055,0.178,0.08,0.271,0.08c0.164,0,0.324-0.081,0.421-0.229c0.42-0.652,0.728-1.371,0.912-2.138
	c0.063-0.268-0.101-0.537-0.368-0.603C21.384,1033.643,21.344,1033.638,21.305,1033.638L21.305,1033.638z M21.089,1029.417
	c-0.052,0-0.106,0.008-0.159,0.026c-0.262,0.087-0.402,0.371-0.313,0.633c0.002,0.005,0.004,0.01,0.005,0.016h0.001
	c0,0.002,0.001,0.003,0.001,0.005c0,0,0,0,0,0.001c0.001,0.001,0.001,0.002,0.002,0.004v0.002c0.001,0,0.001,0.002,0.002,0.006
	c0,0.002,0.001,0.003,0.002,0.005v0.002c0,0.001,0.001,0.002,0.001,0.003s0.001,0.001,0.001,0.002s0,0.002,0.001,0.003
	c0,0.001,0,0.002,0.001,0.002v0.003c0.001,0.001,0.001,0.001,0.001,0.002s0.001,0.002,0.001,0.003
	c0.001,0.002,0.001,0.004,0.002,0.006v0.001c0.001,0.001,0.001,0.002,0.001,0.004l0.003,0.002c0,0.002,0,0.002,0,0.004v0.001
	c0.062,0.194,0.117,0.398,0.166,0.608v0.001c0,0.006,0.002,0.013,0.004,0.02v0.001c0,0.001,0,0.002,0,0.004c0,0,0,0.001,0.002,0.002
	v0.003c0,0,0,0.002,0,0.003v0.002c0.002,0.002,0.002,0.003,0.002,0.005s0,0.004,0.002,0.006v0.002c0,0.001,0,0.003,0,0.005v0.002
	c0.002,0.005,0.002,0.009,0.004,0.013v0.001c0.001,0.002,0.001,0.004,0.001,0.006h0.001c0.001,0.007,0.002,0.013,0.004,0.019v0.001
	c0.033,0.154,0.061,0.31,0.084,0.46l0,0c0.001,0.002,0.001,0.005,0.001,0.007c0.001,0.005,0.002,0.009,0.002,0.014
	c0.001,0.002,0.001,0.004,0.001,0.006c0.001,0.005,0.002,0.009,0.002,0.013c0.001,0.002,0.001,0.005,0.001,0.007l0,0
	c0.001,0.003,0.001,0.005,0.001,0.007c0.001,0.002,0.001,0.005,0.001,0.007l0,0c0.001,0.002,0.001,0.004,0.001,0.006v0.001
	c0.001,0.002,0.001,0.003,0.001,0.005v0.001c0,0.002,0.001,0.004,0.001,0.006v0.002c0,0.001,0.001,0.002,0.001,0.004v0.002
	c0,0.002,0,0.002,0.001,0.005v0.002c0,0.001,0,0.003,0.001,0.005v0.002v0.004c0.001,0.001,0.001,0.001,0.001,0.002v0.003
	c0,0.002,0.001,0.002,0.001,0.004v0.005c0.001,0.001,0.001,0.002,0.001,0.003v0.003c0,0.001,0.001,0.002,0.001,0.003v0.002v0.004
	l0,0c0.001,0.004,0.001,0.007,0.003,0.01c0,0,0,0,0,0.002v0.004c0,0,0,0,0,0.001v0.004c0.002,0.005,0.002,0.01,0.002,0.014v0.001
	c0.002,0.007,0.002,0.013,0.004,0.021c0.023,0.184,0.041,0.364,0.053,0.544c0.017,0.265,0.236,0.469,0.496,0.469
	c0.013,0,0.021-0.001,0.031-0.001c0.276-0.017,0.486-0.254,0.469-0.529c-0.025-0.456-0.092-0.925-0.194-1.392
	c-0.062-0.28-0.136-0.56-0.228-0.826C21.493,1029.549,21.298,1029.417,21.089,1029.417L21.089,1029.417z M18.441,1026.08
	c-0.168,0-0.332,0.086-0.429,0.24c-0.143,0.234-0.066,0.544,0.169,0.687c0.006,0.004,0.012,0.007,0.018,0.011
	c0.002,0.002,0.005,0.002,0.007,0.004c0.003,0.004,0.005,0.005,0.007,0.006c0.006,0.004,0.012,0.008,0.018,0.011
	c0,0,0,0.001,0.002,0.001c0.002,0.001,0.002,0.002,0.006,0.004h0.002c0.001,0.001,0.003,0.002,0.005,0.004
	c0.001,0,0.001,0,0.002,0.001c0.002,0.001,0.003,0.002,0.005,0.003c0,0,0.001,0.001,0.002,0.001
	c0.001,0.001,0.003,0.002,0.004,0.003c0.001,0,0.002,0.001,0.003,0.001c0.001,0.001,0.005,0.002,0.005,0.003
	c0.002,0.002,0.002,0.002,0.002,0.004c0.002,0,0.004,0,0.004,0.002c0.002,0,0.002,0,0.004,0.002c0,0,0.002,0,0.002,0.002
	c0.002,0,0.004,0.001,0.005,0.002s0.002,0.001,0.003,0.002s0.003,0.002,0.004,0.003c0.001,0,0.002,0.001,0.002,0.001
	c0.002,0.001,0.003,0.002,0.005,0.003c0,0,0.001,0.001,0.002,0.001c0.001,0.001,0.003,0.002,0.004,0.003
	c0.001,0,0.002,0.001,0.003,0.002c0.002,0,0.002,0.001,0.004,0.002c0,0.001,0.002,0.001,0.002,0.002
	c0.002,0.001,0.004,0.001,0.004,0.002c0.002,0.001,0.002,0.001,0.002,0.002c0.002,0.001,0.005,0.002,0.007,0.003
	c0,0,0.001,0,0.001,0.001c0.002,0.001,0.004,0.002,0.005,0.003c0.001,0,0.001,0.001,0.002,0.001
	c0.002,0.001,0.003,0.002,0.005,0.003c0,0,0.001,0.002,0.002,0.002s0.003,0.002,0.004,0.002c0.001,0.002,0.002,0.002,0.002,0.004
	c0.002,0,0.006,0.002,0.006,0.003c0.002,0,0.002,0,0.002,0.001c0.002,0.001,0.004,0.002,0.006,0.003v0.001
	c0.002,0.001,0.004,0.002,0.006,0.004h0.002c0.002,0.002,0.003,0.003,0.005,0.004c0,0,0.001,0,0.001,0.001
	c0.002,0.001,0.004,0.002,0.005,0.003l0.001,0.001c0.002,0.001,0.004,0.002,0.006,0.003c0,0,0,0.001,0.001,0.001
	c0.002,0.001,0.003,0.002,0.005,0.004h0.002c0.002,0.001,0.004,0.003,0.006,0.005l0,0c0.002,0.002,0.004,0.004,0.006,0.004v0.002
	c0.003,0,0.006,0.002,0.008,0.004h0.001c0.002,0.002,0.004,0.003,0.005,0.004c0.001,0,0.001,0,0.001,0.001
	c0.002,0.001,0.004,0.002,0.006,0.003c0,0.001,0,0.001,0.001,0.001c0.002,0.001,0.004,0.003,0.006,0.004
	c0.006,0.003,0.01,0.006,0.014,0.008v0.001c0.002,0.001,0.004,0.002,0.007,0.004c0.002,0.002,0.004,0.004,0.006,0.005l0.001,0.001
	c0.002,0.001,0.004,0.002,0.006,0.005c0.002,0,0.004,0.002,0.006,0.004c0,0,0,0,0.001,0c0.003,0.002,0.005,0.003,0.005,0.004
	l0.002,0.001c0.002,0.001,0.004,0.003,0.006,0.004c0.007,0.005,0.014,0.009,0.02,0.013c0.002,0.002,0.004,0.003,0.006,0.005h0.001
	c0.002,0.002,0.004,0.004,0.007,0.005c0.002,0.002,0.004,0.003,0.006,0.005h0.002c0.002,0.001,0.002,0.004,0.004,0.004h0.002
	c0.002,0.002,0.004,0.004,0.006,0.006c0.002,0.001,0.004,0.003,0.006,0.004c0.007,0.005,0.013,0.009,0.02,0.014
	c0.002,0.002,0.004,0.004,0.006,0.005l0,0c0.002,0.002,0.005,0.003,0.007,0.005c0.002,0.001,0.005,0.003,0.007,0.004
	c0,0,0,0.001,0.001,0.001c0.001,0.001,0.003,0.002,0.005,0.004h0.001c0.002,0.002,0.004,0.004,0.006,0.005v0.001
	c0.002,0.001,0.005,0.003,0.007,0.004c0.002,0.002,0.004,0.003,0.006,0.005c0.006,0.004,0.01,0.006,0.014,0.01
	c0.002,0.001,0.004,0.003,0.006,0.004c0.002,0.002,0.004,0.003,0.006,0.005h0.001c0.002,0.002,0.004,0.003,0.007,0.005
	c0.002,0.001,0.004,0.004,0.006,0.004c0.002,0.002,0.004,0.004,0.006,0.006s0.005,0.003,0.007,0.005l0,0
	c0.007,0.005,0.013,0.01,0.019,0.015c0.002,0.001,0.004,0.003,0.006,0.004l0.002,0.001c0,0.001,0.002,0.002,0.004,0.004h0.002
	c0.002,0.002,0.004,0.003,0.006,0.004v0.001c0.002,0.001,0.004,0.003,0.006,0.005l0,0c0.002,0.002,0.005,0.004,0.007,0.005
	c0.002,0.002,0.004,0.004,0.006,0.006h0.001c0.002,0.002,0.003,0.003,0.005,0.005c0.005,0.003,0.009,0.006,0.013,0.009
	c0.002,0.002,0.005,0.003,0.007,0.005s0.004,0.003,0.006,0.004v0.001c0.002,0.001,0.005,0.003,0.007,0.004c0,0,0,0.001,0.001,0.001
	c0.001,0.001,0.003,0.003,0.005,0.005c0,0,0,0,0.001,0c0.002,0.002,0.003,0.004,0.005,0.006h0.002
	c0.002,0.002,0.002,0.003,0.004,0.005h0.002c0.002,0.002,0.004,0.003,0.006,0.004v0.001c0.002,0.001,0.004,0.003,0.006,0.004l0,0
	c0.002,0.002,0.004,0.003,0.006,0.005l0,0c0.003,0.002,0.004,0.003,0.006,0.005h0.001c0.002,0.002,0.004,0.003,0.005,0.004
	l0.001,0.001c0.002,0.002,0.005,0.003,0.005,0.004c0.002,0,0.002,0.002,0.002,0.002c0.002,0.002,0.004,0.002,0.006,0.005l0,0
	c0.002,0.002,0.004,0.004,0.007,0.005v0.001c0.002,0.002,0.004,0.003,0.006,0.004v0.001c0.002,0.001,0.004,0.003,0.006,0.004
	l0.001,0.001c0.002,0.001,0.003,0.002,0.005,0.004h0.001c0.001,0.002,0.003,0.003,0.004,0.004s0.001,0.001,0.002,0.001
	c0.002,0.002,0.004,0.003,0.006,0.004c0,0.001,0,0.001,0,0.001c0.002,0.002,0.004,0.003,0.006,0.004c0,0.001,0,0.001,0,0.001
	c0.004,0.002,0.004,0.003,0.006,0.005h0.002c0.002,0.002,0.002,0.005,0.004,0.006c0,0.001,0.002,0.001,0.002,0.001
	c0.002,0.002,0.002,0.003,0.004,0.004c0,0.001,0.002,0.001,0.002,0.001c0.002,0.002,0.003,0.003,0.005,0.004
	c0,0.001,0.001,0.001,0.002,0.002s0.002,0.002,0.004,0.003l0.001,0.002c0.002,0.001,0.004,0.001,0.004,0.003
	c0.002,0,0.002,0.001,0.004,0.002c0,0.001,0.002,0.002,0.002,0.002c0.002,0.001,0.002,0.002,0.002,0.002
	c0.002,0.001,0.005,0.002,0.005,0.004c0.002,0,0.002,0.001,0.002,0.001c0.002,0.001,0.004,0.002,0.004,0.003
	c0.002,0.001,0.002,0.004,0.002,0.004c0.002,0.002,0.004,0.002,0.004,0.004c0.002,0,0.003,0.001,0.003,0.001
	c0.002,0.002,0.003,0.003,0.004,0.004c0.001,0,0.002,0.001,0.002,0.002c0.002,0.001,0.003,0.002,0.004,0.003
	c0.002,0,0.002,0.001,0.004,0.002c0,0.001,0.002,0.002,0.002,0.003c0.002,0,0.002,0.001,0.002,0.002
	c0.002,0.001,0.004,0.002,0.004,0.003c0.002,0,0.002,0.001,0.002,0.002c0.002,0.001,0.004,0.002,0.004,0.002
	c0.002,0.001,0.004,0.002,0.004,0.003s0.002,0.002,0.002,0.002c0.002,0.001,0.002,0.002,0.004,0.003
	c0,0.001,0.002,0.002,0.002,0.002c0.002,0.001,0.003,0.002,0.004,0.004c0.001,0,0.002,0.002,0.003,0.002s0.002,0.002,0.003,0.002
	c0.001,0.002,0.002,0.004,0.004,0.005c0,0.001,0.002,0.001,0.002,0.002l0.004,0.003c0,0.001,0.002,0.002,0.002,0.002
	c0.002,0.001,0.002,0.002,0.004,0.003c0,0.001,0.002,0.002,0.003,0.003c0.002,0,0.002,0.001,0.002,0.001
	c0.002,0.001,0.004,0.003,0.004,0.004c0.002,0,0.002,0.001,0.002,0.001c0.002,0.002,0.004,0.003,0.004,0.004
	c0.002,0.001,0.002,0.001,0.002,0.001c0.002,0.002,0.004,0.003,0.005,0.005c0.001,0,0.001,0,0.002,0.001s0.003,0.002,0.004,0.005
	c0.002,0,0.002,0.002,0.002,0.002l0.004,0.004c0.002,0.001,0.002,0.001,0.002,0.001c0.002,0.002,0.004,0.004,0.006,0.005
	c0,0,0,0,0,0.001c0.004,0.002,0.008,0.005,0.01,0.008c0.002,0.002,0.004,0.003,0.006,0.005l0.002,0.001
	c0,0.001,0.002,0.003,0.005,0.005h0.001c0.001,0.002,0.003,0.003,0.005,0.005c0,0,0,0,0.001,0.001
	c0.002,0.001,0.004,0.004,0.006,0.004v0.002c0.002,0.002,0.004,0.002,0.006,0.006c0,0,0,0,0,0.001
	c0.228,0.202,0.438,0.427,0.63,0.671c0.1,0.125,0.245,0.188,0.394,0.188c0.107,0,0.219-0.035,0.311-0.106
	c0.217-0.172,0.252-0.485,0.082-0.702c-0.482-0.612-1.075-1.132-1.76-1.548C18.62,1026.104,18.531,1026.08,18.441,1026.08
	L18.441,1026.08z"/>
<path id="Rectangle-93" sketch:type="MSShapeGroup" opacity="0.3" enable-background="new    " d="M10,3h8l-4,4L10,3z"/>
<g id="Rectangle-16-Copy-9" sketch:type="MSShapeGroup" filter="url(#filter-2)">
	<path fill="#FFFFFF" d="M19.447,1420.581c1.41-1.426,4.18-2.581,6.184-2.581H26H2h0.369c2.005,0,4.777,1.159,6.184,2.581
		l4.035,4.079c0.78,0.789,2.04,0.793,2.824,0L19.447,1420.581z"/>
</g>
<path id="Rectangle-16-Copy-10_1_" sketch:type="MSShapeGroup" opacity="0.05" fill="none" stroke="#000000" enable-background="new    " d="
	M19.447,1420.581c1.41-1.426,4.18-2.581,6.184-2.581l0.369-3H2l0.369,3c2.005,0,4.777,1.159,6.184,2.581l4.035,4.079
	c0.78,0.789,2.04,0.793,2.824,0L19.447,1420.581z"/>
<g id="Imported-Layers_2_" transform="translate(3.000000, 1586.000000)" sketch:type="MSLayerGroup">
	<path id="Fill-1_3_" sketch:type="MSShapeGroup" fill="#FFA500" d="M10,2c4.42,0,8,3.58,8,8s-3.58,8-8,8s-8-3.58-8-8S5.58,2,10,2
		 M10,0C4.485,0,0,4.485,0,10s4.485,10,10,10c5.516,0,10-4.485,10-10S15.516,0,10,0"/>
	<path id="Fill-2_2_" sketch:type="MSShapeGroup" fill="#999999" d="M14.8,12c-0.46,2.28-2.479,4-4.9,4c-2.42,0-4.44-1.72-4.9-4
		H14.8 M16.021,11H3.778l0.242,1.198C4.581,14.98,7.054,17,9.9,17s5.319-2.02,5.88-4.802L16.021,11"/>
	<path id="Fill-3_1_" sketch:type="MSShapeGroup" fill="#FFA500" d="M15,12c-0.469,2.28-2.531,4-5,4s-4.531-1.72-5-4H15 M4,11
		l0.021,1.202C4.593,14.982,7.108,17,10,17c2.893,0,5.407-2.018,5.979-4.798L16,11H4"/>
	<path id="Fill-4_1_" sketch:type="MSShapeGroup" fill="#FFA500" d="M16,8.5c0,0.83-0.67,1.5-1.5,1.5S13,9.33,13,8.5S13.67,7,14.5,7
		S16,7.67,16,8.5"/>
	<path id="Fill-5_1_" sketch:type="MSShapeGroup" fill="#FFA500" d="M7,8.5C7,9.33,6.33,10,5.5,10S4,9.33,4,8.5S4.67,7,5.5,7
		S7,7.67,7,8.5"/>
	<path id="Fill-6_1_" sketch:type="MSShapeGroup" fill="#FFA500" d="M14,15H6l-1-2h10L14,15"/>
</g>
<path id="Rectangle-53-Copy-3" sketch:type="MSShapeGroup" fill="#777777" d="M4,668.006C4,666.898,4.893,666,5.995,666h14.01
	c1.103,0,1.995,0.896,1.995,2.006v9.988c0,1.107-0.893,2.006-1.995,2.006H5.995C4.893,680,4,679.104,4,677.994V668.006z
	 M17.816,676.066c-0.258-0.269-2.541-1.324-2.976-1.467c0-0.093-0.051-0.416-0.167-0.476c-0.116-0.042-0.5-0.226-0.5-0.226
	c0-0.024-0.042-0.107-0.05-0.191c0-0.091,0.05-0.184,0.05-0.184c0.051-0.101,0.241-0.342,0.292-0.524
	c0.05-0.185,0.109-0.658,0.109-0.658c0-0.1,0.148-0.142,0.24-0.19c0.158-0.075,0.301-1.084,0.301-1.084
	c0-0.334-0.143-0.191-0.143-0.426v-0.875c0-1.082-0.866-1.767-1.95-1.767h-0.049c-1.084,0-1.951,0.685-1.951,1.767v0.875
	c0,0.233-0.142,0.092-0.142,0.426c0,0,0.142,1.009,0.3,1.084c0.091,0.05,0.241,0.092,0.241,0.19c0,0,0.059,0.476,0.109,0.658
	c0.05,0.185,0.241,0.425,0.292,0.524c0,0,0.05,0.093,0.05,0.184c-0.007,0.084-0.05,0.167-0.05,0.191c0,0-0.384,0.184-0.5,0.226
	c-0.117,0.06-0.167,0.383-0.167,0.476c-0.434,0.143-2.717,1.198-2.974,1.467C8,676.258,8,677.383,8,677.383v0.143
	C8,677.783,8.217,678,8.475,678h9.05c0.258,0,0.475-0.217,0.475-0.475v-0.144C18,677.383,18,676.258,17.816,676.066z"/>
<path id="ic_cloud-copy-6" sketch:type="MSShapeGroup" fill="#777777" d="M3,590.58C3,593.02,4.846,595,7.113,595h11.772
	c2.269,0,4.113-1.98,4.113-4.42c0-2.367-1.739-4.307-3.92-4.413v-0.014c0-2.841-2.146-5.153-4.8-5.153
	c-1.72,0-3.228,0.967-4.074,2.42c-0.287-0.133-0.6-0.213-0.926-0.213c-1.3,0-2.36,1.14-2.36,2.525c0,0.153,0.014,0.293,0.033,0.435
	C4.753,586.254,3,588.193,3,590.58"/>
<path fill="#777777" d="M13,621c-4.971,0-9,4.029-9,9s4.029,9,9,9s9-4.029,9-9S17.971,621,13,621z M17,631l-3-3v7h-2v-7l-3,3l-1-1
	l5-5l5,5L17,631z"/>
<path id="Rectangle-53-Copy-4" sketch:type="MSShapeGroup" fill="#FFFFFF" d="M4,1158.006c0-1.107,0.893-2.006,1.995-2.006h14.01
	c1.103,0,1.995,0.896,1.995,2.006v9.988c0,1.107-0.893,2.006-1.995,2.006H5.995c-1.102,0-1.995-0.896-1.995-2.006V1158.006z
	 M17.816,1166.066c-0.258-0.269-2.541-1.324-2.976-1.468c0-0.092-0.051-0.416-0.167-0.475c-0.116-0.042-0.5-0.225-0.5-0.225
	c0-0.025-0.042-0.108-0.05-0.192c0-0.091,0.05-0.183,0.05-0.183c0.051-0.102,0.241-0.343,0.292-0.525
	c0.05-0.184,0.109-0.658,0.109-0.658c0-0.1,0.148-0.142,0.24-0.19c0.158-0.075,0.301-1.084,0.301-1.084
	c0-0.333-0.143-0.191-0.143-0.426v-0.875c0-1.083-0.866-1.767-1.95-1.767h-0.049c-1.084,0-1.951,0.684-1.951,1.767v0.875
	c0,0.233-0.142,0.093-0.142,0.426c0,0,0.142,1.009,0.3,1.084c0.091,0.05,0.241,0.092,0.241,0.19c0,0,0.059,0.476,0.109,0.658
	c0.05,0.184,0.241,0.425,0.292,0.525c0,0,0.05,0.092,0.05,0.183c-0.007,0.084-0.05,0.167-0.05,0.192c0,0-0.384,0.183-0.5,0.225
	c-0.117,0.059-0.167,0.383-0.167,0.475c-0.434,0.144-2.717,1.199-2.974,1.468C8,1166.258,8,1167.383,8,1167.383v0.144
	c0,0.258,0.217,0.475,0.475,0.475h9.05c0.258,0,0.475-0.217,0.475-0.475v-0.144C18,1167.383,18,1166.258,17.816,1166.066z"/>
<path id="ic_cloud-copy-7" sketch:type="MSShapeGroup" fill="#FFFFFF" d="M3,1080.58c0,2.438,1.846,4.42,4.113,4.42h11.772
	c2.269,0,4.113-1.98,4.113-4.42c0-2.367-1.739-4.307-3.92-4.413v-0.014c0-2.841-2.146-5.153-4.8-5.153
	c-1.72,0-3.228,0.967-4.074,2.42c-0.287-0.133-0.6-0.213-0.926-0.213c-1.3,0-2.36,1.14-2.36,2.526c0,0.152,0.014,0.293,0.033,0.434
	C4.753,1076.253,3,1078.193,3,1080.58"/>
<path fill="#FFFFFF" d="M11,1111c-4.971,0-9,4.029-9,9s4.029,9,9,9s9-4.029,9-9S15.971,1111,11,1111z M15,1121l-3-3v7h-2v-7l-3,3
	l-1-1l5-5l5,5L15,1121z"/>
<path id="Imported-Layers_3_" sketch:type="MSShapeGroup" fill="#777777" d="M7,721l12-8l-12-8V721z"/>
<g id="Oval-55-_x2B_-Fill-5-_x2B_-Shape" transform="translate(8.000000, 737.000000)" sketch:type="MSLayerGroup">
	<g id="Oval-55-_x2B_-Fill-5" transform="translate(0.000000, 3.000000)" sketch:type="MSShapeGroup">
		<path id="Oval-55" fill="#777777" d="M10.277,3.722c0.52,0.978,0.814,2.093,0.814,3.278c0,3.866-3.135,7-7,7c-3.866,0-7-3.134-7-7
			s3.134-7,7-7c1.136,0,2.209,0.271,3.157,0.751L5.797,2.203c-0.56-0.216-1.168-0.335-1.804-0.335c-2.761,0-5,2.239-5,5
			c0,2.762,2.239,5,5,5c2.762,0,5-2.238,5-5c0-0.56-0.093-1.099-0.261-1.601L10.277,3.722z"/>
	</g>
	<path id="Shape" sketch:type="MSShapeGroup" fill="#777777" d="M12,3.414l-7.293,7.293L3.293,9.293L10.586,2H6V0h8v1v7h-2V3.414z"
		/>
</g>
<path id="Imported-Layers-Copy-4" sketch:type="MSShapeGroup" fill="#FFFFFF" d="M7,1211l12-8l-12-8V1211z"/>
<g id="Oval-55-_x2B_-Fill-5-_x2B_-Shape-Copy" transform="translate(8.000000, 1227.000000)" sketch:type="MSLayerGroup">
	<g id="Oval-55-_x2B_-Fill-5_1_" transform="translate(0.000000, 3.000000)" sketch:type="MSShapeGroup">
		<path id="Oval-55_1_" fill="#FFFFFF" d="M10.277,3.722C10.797,4.7,11.092,5.814,11.092,7c0,3.866-3.135,7-7,7
			c-3.866,0-7-3.134-7-7s3.134-7,7-7c1.136,0,2.209,0.271,3.157,0.751L5.797,2.203c-0.56-0.216-1.168-0.335-1.804-0.335
			c-2.761,0-5,2.239-5,5c0,2.762,2.239,5,5,5c2.762,0,5-2.238,5-5c0-0.561-0.093-1.099-0.261-1.601L10.277,3.722z"/>
	</g>
	<path id="Shape_1_" sketch:type="MSShapeGroup" fill="#FFFFFF" d="M12,3.414l-7.293,7.293L3.293,9.293L10.586,2H6V0h8v1v7h-2V3.414
		z"/>
</g>
<path id="Imported-Layers-Copy-4_1_" sketch:type="MSShapeGroup" fill="#FFFFFF" d="M5.759,1716.691
	c-0.324,0-0.646-0.012-0.962-0.026c-0.551-0.03-0.975-0.501-0.945-1.052c0.027-0.516,0.437-0.916,0.938-0.946
	c-0.093-0.308-0.036-0.656,0.184-0.924c0.089-0.111,0.146-0.23,0.169-0.363c-0.574-0.338-1.138-0.753-1.634-1.206
	c-0.408-0.372-0.438-1.003-0.066-1.413c0.371-0.405,1.004-0.438,1.412-0.063c0.426,0.388,0.919,0.744,1.466,1.058
	c0.528,0.351,0.81,0.829,0.83,1.349l0.003,0.135c0,0.509-0.132,0.992-0.385,1.421c0.655-0.05,1.234-0.153,1.751-0.313
	c0.524-0.164,1.087,0.136,1.25,0.662c0.162,0.528-0.134,1.087-0.662,1.25C8.146,1716.552,7.05,1716.742,5.759,1716.691
	L5.759,1716.691z M14.187,1715.569c-0.853,0-1.753-0.058-2.751-0.171c-0.549-0.063-0.943-0.561-0.88-1.107
	c0.063-0.549,0.559-0.951,1.108-0.879c1.398,0.16,2.551,0.204,3.72,0.111l0.158,0.99l0.073,0.997
	C15.091,1715.553,14.639,1715.569,14.187,1715.569L14.187,1715.569z M18.479,1714.942c-0.422,0-0.812-0.27-0.951-0.689
	c-0.172-0.524,0.115-1.089,0.641-1.261c1.201-0.395,2.256-0.978,3.137-1.731c0.42-0.358,1.051-0.311,1.41,0.108
	c0.36,0.42,0.312,1.05-0.107,1.41c-1.08,0.928-2.365,1.639-3.816,2.112C18.686,1714.926,18.581,1714.942,18.479,1714.942
	L18.479,1714.942z M23.857,1710.722c-0.168,0-0.336-0.042-0.493-0.131c-0.48-0.271-0.647-0.883-0.374-1.364
	c0.576-1.014,0.91-2.146,0.994-3.373c0.037-0.551,0.523-0.946,1.062-0.931c0.553,0.038,0.969,0.515,0.932,1.066
	c-0.103,1.525-0.522,2.95-1.25,4.228C24.543,1710.541,24.206,1710.722,23.857,1710.722L23.857,1710.722z M2.447,1710.018
	c-0.396,0-0.767-0.231-0.925-0.619c-0.321-0.777-0.496-1.605-0.519-2.461L1,1706.707c0-0.609,0.059-1.218,0.175-1.811
	c0.107-0.543,0.634-0.896,1.174-0.789c0.542,0.104,0.895,0.632,0.789,1.174c-0.092,0.467-0.138,0.944-0.138,1.426l0.003,0.182
	c0.016,0.604,0.14,1.195,0.368,1.749c0.21,0.513-0.034,1.097-0.544,1.307C2.702,1709.994,2.573,1710.018,2.447,1710.018
	L2.447,1710.018z M24.723,1703.898c-0.451,0-0.848-0.286-0.947-0.747l-0.02-0.089c-0.258-1.198-0.734-2.248-1.416-3.12
	c-0.339-0.437-0.262-1.063,0.173-1.403c0.436-0.339,1.063-0.263,1.404,0.173c0.868,1.111,1.472,2.433,1.794,3.928
	c0.116,0.54-0.217,1.116-0.757,1.233C24.876,1703.889,24.798,1703.898,24.723,1703.898L24.723,1703.898z M3.229,1703.304
	c-0.173,0-0.348-0.045-0.507-0.138c-0.476-0.282-0.634-0.895-0.353-1.37c0.705-1.194,1.665-2.291,2.851-3.259
	c0.43-0.353,1.058-0.284,1.407,0.142c0.35,0.429,0.286,1.06-0.142,1.407c-1.004,0.819-1.809,1.736-2.394,2.727
	C3.905,1703.129,3.571,1703.304,3.229,1703.304L3.229,1703.304z M8.362,1698.674c-0.362,0-0.712-0.197-0.889-0.541
	c-0.254-0.491-0.061-1.093,0.429-1.347c1.271-0.656,2.615-1.146,3.992-1.452c0.718-0.159,1.444-0.27,2.155-0.328
	c0.55-0.062,1.034,0.363,1.079,0.913c0.046,0.551-0.363,1.035-0.914,1.08c-0.622,0.051-1.256,0.148-1.886,0.289
	c-1.209,0.268-2.39,0.697-3.508,1.273C8.673,1698.638,8.517,1698.674,8.362,1698.674L8.362,1698.674z M20.885,1698.361
	c-0.174,0-0.35-0.045-0.511-0.143c-0.978-0.582-2.118-0.97-3.392-1.149c-0.545-0.078-0.926-0.585-0.849-1.132
	c0.078-0.55,0.591-0.928,1.134-0.851c1.533,0.22,2.924,0.696,4.129,1.414c0.476,0.283,0.631,0.896,0.349,1.371
	C21.559,1698.188,21.227,1698.361,20.885,1698.361L20.885,1698.361z"/>
<path id="Fill-1_4_" sketch:type="MSShapeGroup" fill="#FFFFFF" d="M10.108,1802.892C10.042,1802.604,10,1802.308,10,1802
	c0-2.21,1.791-4,4-4c0.309,0,0.604,0.042,0.893,0.108l1.707-1.708c-0.806-0.251-1.671-0.4-2.6-0.4c-5,0-8.182,4.286-10,6
	c0.862,0.812,2.035,2.202,3.559,3.441L10.108,1802.892z M20.441,1798.559l-2.549,2.551c0.064,0.287,0.106,0.584,0.106,0.892
	c0,2.21-1.791,4-4,4c-0.309,0-0.604-0.042-0.893-0.108l-1.707,1.707c0.805,0.252,1.671,0.401,2.599,0.401c5.001,0,8.182-4.286,10-6
	C23.138,1801.188,21.965,1799.798,20.441,1798.559z M21,1794l-15,15l1,1l15-15L21,1794z"/>
<path id="Path-Copy-3" sketch:type="MSShapeGroup" fill="#FFFFFF" d="M14,1332v-2h2v-2h-2v-2l-4,3L14,1332z"/>
<path id="Imported-Layers-Copy-3_1_" sketch:type="MSShapeGroup" fill="#777777" d="M6,2156c-1.104,0-2,0.896-2,2v12
	c0,1.104,0.896,2,2,2h16c1.104,0,2-0.896,2-2v-12c0-1.104-0.896-2-2-2H6z M22.256,2157.037l-7.902,8.902
	c-0.189,0.188-0.518,0.188-0.707,0l-7.902-8.902C5.827,2157.016,5.911,2157,6,2157h16C22.089,2157,22.174,2157.016,22.256,2157.037z
	 M22,2171H6c-0.552,0-1-0.448-1-1v-12c0-0.089,0.016-0.174,0.037-0.256l7.902,8.902c0.293,0.293,0.677,0.438,1.061,0.438
	s0.768-0.146,1.061-0.438l7.902-8.902c0.021,0.082,0.037,0.167,0.037,0.256v12C23,2170.552,22.552,2171,22,2171z"/>
<path id="Fill-9-Copy-10" sketch:type="MSShapeGroup" opacity="0.7" fill="#D90007" enable-background="new    " d="M6,2124
	c0,4.42,3.58,8,8,8s8-3.58,8-8s-3.58-8-8-8S6,2119.58,6,2124L6,2124z M9,2123h10v2H9V2123z"/>
<path id="Imported-Layers-Copy-2_1_" sketch:type="MSShapeGroup" fill="#777777" d="M227.188,2014.227L122.306,1841.92
	c-1.56-2.56-5.274-2.56-6.834,0L10.59,2014.227c-1.623,2.666,0.296,6.08,3.417,6.08h209.764
	C226.892,2020.307,228.811,2016.893,227.188,2014.227L227.188,2014.227z M14.007,2016.307L118.889,1844l104.882,172.307H14.007
	L14.007,2016.307z"/>
<g id="Fill-1-_x2B_-Fill-2-_x2B_-Fill-3-Copy" transform="translate(0.000000, 589.000000)" sketch:type="MSLayerGroup">
	<path id="Fill-1_6_" sketch:type="MSShapeGroup" fill="#FFFFFF" d="M10.34,1849.6v-0.209c0-0.801,0.6-1.221,1.19-1.221h0.239
		l3.141-3.15c-0.141,0-0.27-0.02-0.41-0.02c-2.37,0-4.62,0.6-6.9,1.279c-2.149,0.641-2.979,2.351-2.439,4.601
		c0.2,0.81,0.63,1.19,1.43,1.11l1.51-0.15L10.34,1849.6z"/>
	<path id="Fill-2_4_" sketch:type="MSShapeGroup" fill="#FFFFFF" d="M20.141,1845.9l-2.311,2.311c0.449,0.139,0.83,0.529,0.83,1.16
		c-0.02,1.929,0.4,2.218,1.59,2.378c0.38,0.051,1.79,0.181,2.16,0.221c0.8,0.08,1.23-0.301,1.43-1.109
		c0.54-2.25-0.29-3.96-2.439-4.602C20.98,1846.13,20.561,1846.02,20.141,1845.9z"/>
	<path id="Fill-3_2_" sketch:type="MSShapeGroup" fill="#FFFFFF" d="M22.66,1840.337c-0.45-0.449-1.2-0.449-1.65,0l-14.67,14.67
		c-0.45,0.45-0.45,1.2,0,1.649c0.23,0.221,0.52,0.341,0.83,0.341c0.3,0,0.59-0.12,0.82-0.341l14.67-14.67
		C23.109,1841.537,23.109,1840.787,22.66,1840.337z"/>
</g>
<g id="Fill-1-_x2B_-Fill-2-Copy-2" transform="translate(1.000000, 530.000000)" sketch:type="MSLayerGroup">
	<path id="Fill-1_5_" sketch:type="MSShapeGroup" fill="#FFFFFF" d="M9.689,1851.311c-1.739-1.74-2.959-3.811-4.14-5.96
		c-1.11-2.03-0.51-3.86,1.511-5.07c0.709-0.43,1.299-0.38,1.83,0.25c0.25,0.311,1.18,1.431,1.42,1.75
		c0.76,0.98,0.77,1.58-0.621,2.95c-0.58,0.57-0.439,1.3,0,1.74l4.341,4.34c0.439,0.439,1.17,0.58,1.739,0
		c1.371-1.391,1.971-1.38,2.951-0.62c0.319,0.24,1.439,1.17,1.75,1.42c0.629,0.53,0.68,1.12,0.25,1.83
		c-1.211,2.021-3.041,2.62-5.07,1.51C13.5,1854.271,11.43,1853.051,9.689,1851.311"/>
	<path id="Fill-2_3_" sketch:type="MSShapeGroup" fill="#FFFFFF" d="M18.23,1845.23l-3.381,3.39l-2.47-2.47l3.39-3.381L14,1841h6v6
		L18.23,1845.23z"/>
</g>
<path id="Imported-Layers-5-Copy" sketch:type="MSShapeGroup" fill="#FFFFFF" d="M14.5,2326c2.37,0,4.62,0.6,6.9,1.28
	c2.149,0.64,2.979,2.35,2.439,4.6c-0.199,0.81-0.63,1.19-1.43,1.11c-0.37-0.04-1.78-0.17-2.16-0.221
	c-1.189-0.16-1.609-0.449-1.59-2.379c0-0.801-0.6-1.221-1.189-1.221h-5.94c-0.591,0-1.19,0.42-1.19,1.221
	c0.02,1.93-0.4,2.219-1.59,2.379c-0.38,0.051-1.79,0.181-2.16,0.221c-0.8,0.08-1.23-0.301-1.43-1.11c-0.54-2.25,0.29-3.96,2.439-4.6
	C9.88,2326.6,12.13,2326,14.5,2326"/>
<g id="reload-copy-7" transform="translate(1.000000, 235.000000)" sketch:type="MSLayerGroup">
	<path id="Fill-13" sketch:type="MSShapeGroup" fill="#777777" d="M5.67,1848.07c0.471,0.119,0.96-0.16,1.08-0.641
		c0.71-2.75,3.189-4.67,6.03-4.67c2.439,0,4.659,1.44,5.67,3.66c0.01,0.03-1.72,0.88-1.72,0.88l3.8,1.4l1.35-3.771
		c0,0-1.8,0.78-1.81,0.76c-1.29-2.859-4.16-4.699-7.29-4.699c-3.66,0-6.84,2.47-7.75,6C4.91,1847.46,5.19,1847.95,5.67,1848.07"/>
	<path id="Fill-14" sketch:type="MSShapeGroup" fill="#777777" d="M19.13,1850.561c-0.71,2.739-3.18,4.66-6.021,4.66
		c-2.439,0-4.67-1.431-5.68-3.66c-0.01-0.021,1.721-0.871,1.721-0.871l-3.8-1.41L4,1853.061c0,0,1.8-0.791,1.81-0.771
		c1.299,2.86,4.16,4.71,7.299,4.71c3.65,0,6.83-2.471,7.74-6c0.12-0.48-0.16-0.96-0.64-1.08
		C19.74,1849.79,19.25,1850.08,19.13,1850.561z"/>
</g>
<path id="Imported-Layers-3-Copy" sketch:type="MSShapeGroup" fill="#FFFFFF" d="M10.691,2283.311c-1.74-1.74-2.961-3.81-4.141-5.96
	c-1.11-2.03-0.51-3.86,1.51-5.071c0.71-0.429,1.301-0.379,1.83,0.25c0.25,0.312,1.18,1.432,1.42,1.75
	c0.76,0.981,0.77,1.58-0.619,2.952c-0.58,0.569-0.44,1.298,0,1.74l4.34,4.339c0.439,0.44,1.17,0.581,1.739,0
	c1.37-1.39,1.97-1.38,2.95-0.62c0.32,0.24,1.439,1.169,1.75,1.419c0.63,0.532,0.68,1.122,0.25,1.831
	c-1.21,2.021-3.04,2.62-5.07,1.511C14.501,2286.27,12.431,2285.051,10.691,2283.311"/>
<path id="Fill-53-Copy-3" sketch:type="MSShapeGroup" fill="#2BA6DE" d="M9.346,2226.654c-0.871-0.869-1.48-1.904-2.07-2.979
	c-0.555-1.015-0.255-1.93,0.755-2.534c0.354-0.215,0.649-0.19,0.915,0.125c0.125,0.154,0.59,0.715,0.71,0.875
	c0.38,0.489,0.385,0.789-0.31,1.475c-0.291,0.285-0.221,0.649,0,0.869l2.17,2.17c0.219,0.221,0.584,0.291,0.869,0
	c0.686-0.694,0.985-0.689,1.475-0.31c0.16,0.12,0.721,0.585,0.875,0.71c0.315,0.266,0.34,0.561,0.125,0.915
	c-0.604,1.01-1.52,1.31-2.534,0.755C11.25,2228.135,10.215,2227.524,9.346,2226.654L9.346,2226.654z"/>
</svg>
