<?xml version="1.0" encoding="utf-8"?>
<!-- Generator: Adobe Illustrator 19.0.0, SVG Export Plug-In . SVG Version: 6.00 Build 0)  -->
<svg version="1.1" id="Layer_1" xmlns:sketch="http://www.bohemiancoding.com/sketch/ns"
	 xmlns="http://www.w3.org/2000/svg" xmlns:xlink="http://www.w3.org/1999/xlink" x="0px" y="0px" width="237px" height="3880px"
	 viewBox="-179 -1520.1 237 3880" style="enable-background:new -179 -1520.1 237 3880;" xml:space="preserve">
<style type="text/css">
	.st0{fill:#FFFFFF;}
	.st1{opacity:0.6;fill:#333333;enable-background:new    ;}
	.st2{opacity:0.6;fill:#31B500;enable-background:new    ;}
	.st3{opacity:0.6;}
	.st4{fill:#333333;}
	.st5{fill:#999999;}
	.st6{fill:#2BA6DE;}
	.st7{opacity:0.5;}
	.st8{opacity:0.7;enable-background:new    ;}
	.st9{fill:#D90007;}
	.st10{fill:#111111;}
	.st11{fill:#777777;}
	.st12{fill:#E44C51;}
	.st13{fill:none;stroke:#FFFFFF;}
	.st14{opacity:0.3;enable-background:new    ;}
	.st15{fill:#FFA500;}
	.st16{opacity:0.7;fill:#D90007;enable-background:new    ;}
	.st17{opacity:0.7;fill:#FFFFFF;enable-background:new    ;}
	.st18{opacity:0.7;fill:#333333;enable-background:new    ;}
	.st19{fill:#858585;}
	.st20{fill:#FF333A;}
	.st21{opacity:0.7;fill:#61D2FF;enable-background:new    ;}
	.st22{fill:#61D2FF;}
	.st23{fill:none;stroke:#FF333A;stroke-width:1.5;}
	.st24{opacity:0.5;fill:none;stroke:#61D2FF;enable-background:new    ;}
	.st25{fill:none;stroke:#61D2FF;stroke-width:1.5;}
	.st26{opacity:0.5;fill:none;stroke:#FFFFFF;enable-background:new    ;}
	.st27{fill:none;stroke:#FFFFFF;stroke-width:1.5;}
	.st28{fill:#31B500;}
	.st29{opacity:0.2;fill:#FFFFFF;enable-background:new    ;}
	.st30{opacity:3.000000e-02;enable-background:new    ;}
</style>
<title>Untitled 2</title>
<desc>Created with Sketch.</desc>
<path id="Rectangle-144-Copy-3" sketch:type="MSShapeGroup" class="st0" d="M-166-64.1v-7h-2v7h-7v2h7v7h2v-7h7v-2H-166z"/>
<path id="Rectangle-144-Copy-2" sketch:type="MSShapeGroup" class="st1" d="M-166-37.1v-7h-2v7h-7v2h7v7h2v-7h7v-2H-166z"/>
<path id="Rectangle-144-Copy-4" sketch:type="MSShapeGroup" class="st2" d="M-166-7.1v-7h-2v7h-7v2h7v7h2v-7h7v-2H-166z"/>
<g id="Imported-Layers-Copy" transform="translate(3.000000, 1546.000000)" sketch:type="MSLayerGroup" class="st3">
	<g id="Imported-Layers" sketch:type="MSShapeGroup">
		<path id="Fill-1" class="st4" d="M-169-1518.1c4.4,0,8,3.6,8,8s-3.6,8-8,8s-8-3.6-8-8S-173.4-1518.1-169-1518.1 M-169-1520.1
			c-5.5,0-10,4.5-10,10s4.5,10,10,10s10-4.5,10-10S-163.5-1520.1-169-1520.1"/>
		<path id="Fill-2" class="st5" d="M-164.2-1508.1c-0.5,2.3-2.5,4-4.9,4s-4.4-1.7-4.9-4H-164.2 M-163-1509.1h-12.2l0.2,1.2
			c0.6,2.8,3,4.8,5.9,4.8c2.8,0,5.3-2,5.9-4.8L-163-1509.1"/>
		<path id="Fill-3" class="st4" d="M-164-1508.1c-0.5,2.3-2.5,4-5,4s-4.5-1.7-5-4H-164 M-175-1509.1v1.2c0.6,2.8,3.1,4.8,6,4.8
			s5.4-2,6-4.8v-1.2H-175"/>
		<path id="Fill-4" class="st4" d="M-163-1511.6c0,0.8-0.7,1.5-1.5,1.5s-1.5-0.7-1.5-1.5s0.7-1.5,1.5-1.5S-163-1512.4-163-1511.6"/>
		<path id="Fill-5" class="st4" d="M-172-1511.6c0,0.8-0.7,1.5-1.5,1.5s-1.5-0.7-1.5-1.5s0.7-1.5,1.5-1.5S-172-1512.4-172-1511.6"/>
		<path id="Fill-6" class="st4" d="M-165-1505.1h-8l-1-2h10L-165-1505.1"/>
	</g>
</g>
<path id="Imported-Layers_1_" sketch:type="MSShapeGroup" class="st6" d="M-173.2,146.6c-0.3,0-0.6,0-1,0c-0.6,0-1-0.5-0.9-1.1
	c0-0.5,0.4-0.9,0.9-0.9c-0.1-0.3,0-0.7,0.2-0.9c0.1-0.1,0.1-0.2,0.2-0.4c-0.6-0.3-1.1-0.8-1.6-1.2c-0.4-0.4-0.4-1-0.1-1.4
	c0.4-0.4,1-0.4,1.4-0.1c0.4,0.4,0.9,0.7,1.5,1.1c0.5,0.4,0.8,0.8,0.8,1.4v0.1c0,0.5-0.1,1-0.4,1.4c0.7-0.1,1.2-0.2,1.8-0.3
	c0.5-0.2,1.1,0.1,1.2,0.7c0.2,0.5-0.1,1.1-0.7,1.2C-170.9,146.5-171.9,146.6-173.2,146.6L-173.2,146.6z M-164.8,145.5
	c-0.9,0-1.8-0.1-2.8-0.2c-0.5-0.1-0.9-0.6-0.9-1.1c0.1-0.5,0.6-1,1.1-0.9c1.4,0.2,2.6,0.2,3.7,0.1l0.2,1l0.1,1
	C-163.9,145.5-164.4,145.5-164.8,145.5L-164.8,145.5z M-160.5,144.8c-0.4,0-0.8-0.3-1-0.7c-0.2-0.5,0.1-1.1,0.6-1.3
	c1.2-0.4,2.3-1,3.1-1.7c0.4-0.4,1.1-0.3,1.4,0.1c0.4,0.4,0.3,1.1-0.1,1.4c-1.1,0.9-2.4,1.6-3.8,2.1
	C-160.3,144.8-160.4,144.8-160.5,144.8L-160.5,144.8z M-155.1,140.6c-0.2,0-0.3,0-0.5-0.1c-0.5-0.3-0.6-0.9-0.4-1.4
	c0.6-1,0.9-2.1,1-3.4c0-0.6,0.5-0.9,1.1-0.9s1,0.5,0.9,1.1c-0.1,1.5-0.5,2.9-1.2,4.2C-154.5,140.4-154.8,140.6-155.1,140.6
	L-155.1,140.6z M-176.6,139.9c-0.4,0-0.8-0.2-0.9-0.6c-0.3-0.8-0.5-1.6-0.5-2.5v-0.2c0-0.6,0.1-1.2,0.2-1.8c0.1-0.5,0.6-0.9,1.2-0.8
	c0.5,0.1,0.9,0.6,0.8,1.2c-0.1,0.5-0.1,0.9-0.1,1.4v0.2c0,0.6,0.1,1.2,0.4,1.7c0.2,0.5,0,1.1-0.5,1.3
	C-176.3,139.9-176.4,139.9-176.6,139.9L-176.6,139.9z M-154.3,133.8c-0.5,0-0.8-0.3-0.9-0.7V133c-0.3-1.2-0.7-2.2-1.4-3.1
	c-0.3-0.4-0.3-1.1,0.2-1.4c0.4-0.3,1.1-0.3,1.4,0.2c0.9,1.1,1.5,2.4,1.8,3.9c0.1,0.5-0.2,1.1-0.8,1.2
	C-154.1,133.8-154.2,133.8-154.3,133.8L-154.3,133.8z M-175.8,133.2c-0.2,0-0.3,0-0.5-0.1c-0.5-0.3-0.6-0.9-0.4-1.4
	c0.7-1.2,1.7-2.3,2.9-3.3c0.4-0.4,1.1-0.3,1.4,0.1c0.4,0.4,0.3,1.1-0.1,1.4c-1,0.8-1.8,1.7-2.4,2.7
	C-175.1,133-175.4,133.2-175.8,133.2L-175.8,133.2z M-170.6,128.6c-0.4,0-0.7-0.2-0.9-0.5c-0.3-0.5-0.1-1.1,0.4-1.3
	c1.3-0.7,2.6-1.1,4-1.5c0.7-0.2,1.4-0.3,2.2-0.3c0.6-0.1,1,0.4,1.1,0.9c0,0.6-0.4,1-0.9,1.1c-0.6,0.1-1.3,0.1-1.9,0.3
	c-1.2,0.3-2.4,0.7-3.5,1.3C-170.3,128.5-170.5,128.6-170.6,128.6L-170.6,128.6z M-158.1,128.3c-0.2,0-0.3,0-0.5-0.1
	c-1-0.6-2.1-1-3.4-1.1c-0.5-0.1-0.9-0.6-0.8-1.1c0.1-0.6,0.6-0.9,1.1-0.9c1.5,0.2,2.9,0.7,4.1,1.4c0.5,0.3,0.6,0.9,0.3,1.4
	C-157.4,128.1-157.8,128.3-158.1,128.3L-158.1,128.3z"/>
<g id="ic_chat" transform="translate(4.000000, 1744.000000)" sketch:type="MSLayerGroup" class="st7">
	<path id="Fill-80" sketch:type="MSShapeGroup" class="st8" d="M-161.1-196.3c-0.5-0.1-0.8-0.5-0.8-0.9c0-0.1,0.1-0.2,0.1-0.2
		c1-0.6,1.8-1.5,1.8-2.6c0.1-2.3-2.1-4.1-4.3-4.7c0.1,1.7-0.4,3.3-1.4,4.6c-0.9,1.1-2.2,1.9-3.7,2.4c0.8,0.7,1.9,1.2,3.1,1.2
		c0.7,0.1,1.5,0,2.2-0.1c0.8,0.6,2,0.7,2.9,0.6C-160.8-196.1-160.9-196.3-161.1-196.3"/>
	<path id="Fill-81" sketch:type="MSShapeGroup" d="M-165.9-205.9c-0.8-3.6-4.4-4.7-7.8-4c-3.2,0.7-6.4,3.1-6.3,6.4
		c0,1.5,1,2.7,2.4,3.5c0.1,0.1,0.2,0.2,0.2,0.3c0,0.6-0.5,1.1-1.1,1.2c-0.3,0.1-0.4,0.2,0,0.3c1.3,0.1,2.8,0,3.9-0.8
		c1,0.1,2,0.2,2.9,0.1C-167.7-199.1-165-202-165.9-205.9"/>
</g>
<path id="Fill-57-Copy" sketch:type="MSShapeGroup" class="st4" d="M-173-1400.1c0,4.4,3.6,8,8,8s8-3.6,8-8s-3.6-8-8-8
	S-173-1404.5-173-1400.1L-173-1400.1z M-166-1405.1h2v4h4v2h-4v4h-2v-4h-4v-2h4V-1405.1L-166-1405.1z"/>
<path id="Fill-9-Copy-9" sketch:type="MSShapeGroup" class="st9" d="M-173-1292.1c0,4.4,3.6,8,8,8s8-3.6,8-8s-3.6-8-8-8
	S-173-1296.5-173-1292.1L-173-1292.1z M-170-1293.1h10v2h-10V-1293.1z"/>
<path id="ic_cloud-copy" sketch:type="MSShapeGroup" class="st4" d="M-175-1245.5c0,2.4,1.8,4.4,4.1,4.4h11.8c2.3,0,4.1-2,4.1-4.4
	s-1.7-4.3-3.9-4.4l0,0c0-2.8-2.1-5.2-4.8-5.2c-1.7,0-3.2,1-4.1,2.4c-0.3-0.1-0.6-0.2-0.9-0.2c-1.3,0-2.4,1.1-2.4,2.5
	c0,0.2,0,0.3,0,0.4C-173.2-1249.8-175-1247.9-175-1245.5"/>
<path id="Fill-1_1_" sketch:type="MSShapeGroup" class="st4" d="M-172-1211.1h14v9h-14V-1211.1z M-158-1213.1h-14c-1.1,0-2,0.9-2,2
	v9c0,1.1,0.9,2,2,2h4v1l-4,1v1h14v-1l-4-1v-1h4c1.1,0,2-0.9,2-2v-9C-156-1212.2-156.9-1213.1-158-1213.1L-158-1213.1z M-157-1202.1
	c0,0.5-0.4,1-1,1h-14c-0.6,0-1-0.5-1-1v-9c0-0.5,0.4-1,1-1h14c0.6,0,1,0.5,1,1V-1202.1L-157-1202.1z"/>
<g id="Fill-1-_x2B_-Fill-2" transform="translate(11.000000, 181.000000)" sketch:type="MSLayerGroup">
	<path id="Fill-1_2_" sketch:type="MSShapeGroup" class="st4" d="M-168.9-1502.1h-14.2c-0.5,0-0.9-0.4-0.9-0.9v-10.1h16v10.1
		C-168-1502.5-168.4-1502.1-168.9-1502.1z M-170.1-1506c-0.1-0.1-1.2-0.6-1.5-0.7c0,0,0-0.2-0.1-0.2s-0.2-0.1-0.2-0.1v-0.1v-0.1
		c0,0,0.1-0.2,0.1-0.3c0-0.1,0.1-0.3,0.1-0.3l0.1-0.1c0.1,0,0.2-0.5,0.2-0.5c0-0.2,0-0.1,0-0.2v-0.4c0-0.5-0.5-0.9-1.1-0.9l0,0
		c-0.5,0-1.1,0.3-1.1,0.9v0.4c0,0.1,0,0,0,0.2c0,0,0.1,0.5,0.2,0.5c0,0,0.1,0,0.1,0.1c0,0,0,0.2,0.1,0.3c0,0.1,0.1,0.2,0.1,0.3
		c0,0,0,0,0,0.1v0.1l-0.2,0.1c-0.1,0-0.1,0.2-0.1,0.2h-0.1c0.5,0.2,1.2,0.6,1.3,0.7c0,0,0.2,0.2,0.2,0.9h1.6c0.1,0,0.3-0.1,0.3-0.2
		v-0.1C-170-1505.4-170-1505.9-170.1-1506z M-178.6-1506.7c0,0,0-0.2-0.1-0.2s-0.2-0.1-0.2-0.1v-0.1v-0.1c0,0,0.1-0.2,0.1-0.3
		c0-0.1,0.1-0.3,0.1-0.3l0.1-0.1c0.1,0,0.2-0.5,0.2-0.5c0-0.2,0-0.1,0-0.2v-0.4c0-0.5-0.5-0.9-1.1-0.9l0,0c-0.5,0-1.1,0.3-1.1,0.9
		v0.4c0,0.1,0,0,0,0.2c0,0,0.1,0.5,0.2,0.5c0,0,0.1,0,0.1,0.1c0,0,0,0.2,0.1,0.3c0,0.1,0.1,0.2,0.1,0.3c0,0,0,0,0,0.1v0.1l-0.2,0.1
		c-0.1,0-0.1,0.2-0.1,0.2c-0.2,0.1-1.3,0.6-1.5,0.7c-0.1,0.1-0.1,0.6-0.1,0.6v0.1c0,0.1,0.2,0.2,0.3,0.2h1.6c0-0.7,0.1-0.8,0.2-0.9
		C-179.8-1506.1-179.1-1506.4-178.6-1506.7L-178.6-1506.7z M-174.8-1506.8c0-0.1,0-0.3-0.1-0.3s-0.3-0.1-0.3-0.1v-0.1
		c0-0.1,0-0.1,0-0.1c0-0.1,0.2-0.2,0.2-0.3c0-0.1,0.1-0.4,0.1-0.4c0-0.1,0.1-0.1,0.2-0.1c0.1-0.1,0.2-0.7,0.2-0.7
		c0-0.2-0.1-0.1-0.1-0.3v-0.6c0-0.7-0.6-1.1-1.3-1.1l0,0c-0.7,0-1.3,0.4-1.3,1.1v0.6c0,0.2-0.1,0.1-0.1,0.3c0,0,0.1,0.7,0.2,0.7
		c0.1,0,0.2,0.1,0.2,0.1s0,0.3,0.1,0.4c0,0.1,0.2,0.3,0.2,0.3v0.1c0,0.1,0,0.1,0,0.1s-0.2,0.1-0.3,0.1s-0.1,0.2-0.1,0.3
		c-0.3,0.1-1.8,0.8-1.9,0.9c-0.1,0.1-0.1,0.9-0.1,0.9v0.1c0,0.2,0.2,0.9,0.3,0.9h5.8c0.2,0,0.3-0.7,0.3-0.9v-0.1c0,0,0-0.7-0.1-0.9
		C-173-1506.1-174.5-1506.8-174.8-1506.8z"/>
	<path id="Fill-2_1_" sketch:type="MSShapeGroup" class="st10" d="M-177.9-1516.1c0.3,0,0.5,0.1,0.7,0.3l0.9,0.9
		c0.6,0.7,1,0.8,1.3,0.8h6c0.6,0,1,0.4,1,1h-16v-2c0-0.6,0.4-1,1-1L-177.9-1516.1z"/>
</g>
<path id="Fill-53-Copy" sketch:type="MSShapeGroup" class="st4" d="M-168.3-1468.8c-1.7-1.7-3-3.8-4.1-6c-1.1-2-0.5-3.9,1.5-5.1
	c0.7-0.4,1.3-0.4,1.8,0.2c0.2,0.3,1.2,1.4,1.4,1.8c0.8,1,0.8,1.6-0.6,2.9c-0.6,0.6-0.4,1.3,0,1.7l4.3,4.3c0.4,0.4,1.2,0.6,1.7,0
	c1.4-1.4,2-1.4,2.9-0.6c0.3,0.2,1.4,1.2,1.8,1.4c0.6,0.5,0.7,1.1,0.2,1.8c-1.2,2-3,2.6-5.1,1.5
	C-164.5-1465.8-166.6-1467-168.3-1468.8L-168.3-1468.8z"/>
<path class="st4" d="M-165-1372.1c-4.4,0-8,3.6-8,8s3.6,8,8,8s8-3.6,8-8S-160.6-1372.1-165-1372.1z M-161-1363.1l-3-3v7h-2v-7l-3,3
	l-1-1l5-5l5,5L-161-1363.1z"/>
<path id="Fill-2-Copy" sketch:type="MSShapeGroup" class="st4" d="M-160-1435.1l5,4v-10l-5,4V-1435.1z M-173-1440.1c0-1.1,0.9-2,2-2
	h8c1.1,0,2,0.9,2,2v8c0,1.1-0.9,2-2,2h-8c-1.1,0-2-0.9-2-2V-1440.1z"/>
<path id="Fill-37" sketch:type="MSShapeGroup" class="st0" d="M-170-161.1l1.4-1.3l1.7,1.7l3.5-3.3l1.4,1.3l-4.9,4.7L-170-161.1"/>
<path id="ic_search-copy" sketch:type="MSShapeGroup" class="st11" d="M-156.2-217.2l-3-3c-0.2-0.2-0.5-0.2-0.8-0.1l-1.2-1.2
	c0.7-1,1.2-2.2,1.2-3.5c0-3.3-2.7-6-6-6s-6,2.7-6,6s2.7,6,6,6c1.3,0,2.5-0.4,3.5-1.2l1.2,1.2c-0.1,0.3-0.1,0.5,0.1,0.7l3,3
	c0.3,0.2,0.7,0.2,0.9,0l1-1C-155.9-216.6-155.9-217-156.2-217.2L-156.2-217.2z M-170-225.1c0-2.2,1.8-4,4-4s4,1.8,4,4s-1.8,4-4,4
	S-170-222.9-170-225.1L-170-225.1z"/>
<path id="Rectangle-144-Copy-3_1_" sketch:type="MSShapeGroup" class="st12" d="M-164.6-1048.1l4.9-4.9l-1.4-1.4l-4.9,5l-4.9-5
	l-1.4,1.4l5,4.9l-5,4.9l1.4,1.4l4.9-5l4.9,5l1.4-1.4L-164.6-1048.1z"/>
<path id="Rectangle-138-Copy-4" sketch:type="MSShapeGroup" class="st11" d="M-165-1122.1h2v-4h-4v3v3h2V-1122.1z M-171-1122.1h2v-4
	h-4v3v3h2V-1122.1L-171-1122.1z"/>
<path id="Rectangle-144-Copy-7" sketch:type="MSShapeGroup" class="st11" d="M-164.6-1082.1l4.9-4.9l-1.4-1.4l-4.9,4.9l-4.9-4.9
	l-1.4,1.4l5,4.9l-5,5l1.4,1.4l4.9-5l4.9,5l1.4-1.4L-164.6-1082.1z"/>
<path id="Fill-5-Copy" sketch:type="MSShapeGroup" class="st11" d="M-163.1-1011.5c0-0.1-0.1-0.7-0.3-0.8c-0.2-0.1-0.8-0.4-0.8-0.4
	s-0.1-0.2-0.1-0.3s0.1-0.3,0.1-0.3c0.1-0.2,0.4-0.5,0.4-0.8c0.1-0.3,0.2-1,0.2-1c0-0.2,0.2-0.2,0.4-0.3c0.3-0.1,0.5-1.7,0.5-1.7
	c0-0.5-0.2-0.3-0.2-0.7v-1.4c0-1.7-1.4-2.8-3.1-2.8h-0.1c-1.7,0-3.1,1.1-3.1,2.8v1.4c0,0.4-0.2,0.1-0.2,0.7c0,0,0.2,1.6,0.5,1.7
	c0.1,0.1,0.4,0.1,0.4,0.3c0,0,0.1,0.8,0.2,1c0.1,0.3,0.4,0.7,0.4,0.8c0,0,0.1,0.1,0.1,0.3c0,0.1-0.1,0.3-0.1,0.3s-0.6,0.3-0.8,0.4
	s-0.3,0.6-0.3,0.8c-0.7,0.2-4.3,1.9-4.8,2.3c-0.3,0.3-0.3,2.1-0.3,2.1v0.2c0,0.4,0.3,0.8,0.8,0.8h14.5c0.4,0,0.8-0.3,0.8-0.8v-0.2
	c0,0,0-1.8-0.3-2.1C-158.7-1009.6-162.4-1011.3-163.1-1011.5z"/>
<path id="Imported-Layers-Copy-2" sketch:type="MSShapeGroup" class="st11" d="M-164.7-985.1c-0.7,0-1.4,0.1-2.2,0.2
	c-0.3,0.1-0.4,0.3-0.4,0.6c0,0.2,0.3,0.4,0.5,0.4h0.1c0.4-0.1,0.8-0.1,1.1-0.2l0,0l0,0c0,0,0,0,0.1,0l0,0l0,0l0,0l0,0l0,0l0,0l0,0
	l0,0l0,0l0,0l0,0l0,0l0,0l0,0l0,0l0,0l0,0l0,0l0,0l0,0l0,0l0,0l0,0l0,0l0,0l0,0l0,0l0,0l0,0l0,0l0,0l0,0l0,0l0,0l0,0l0,0l0,0l0,0
	l0,0l0,0l0,0l0,0l0,0l0,0l0,0l0,0l0,0l0,0l0,0l0,0l0,0l0,0l0,0l0,0l0,0l0,0l0,0l0,0l0,0l0,0l0,0l0,0l0,0l0,0l0,0l0,0l0,0l0,0l0,0
	l0,0l0,0l0,0l0,0l0,0l0,0l0,0l0,0l0,0l0,0l0,0l0,0l0,0l0,0l0,0l0,0l0,0l0,0l0,0l0,0l0,0l0,0l0,0l0,0l0,0l0,0l0,0l0,0l0,0l0,0l0,0
	l0,0l0,0l0,0l0,0l0,0l0,0l0,0l0,0l0,0l0,0l0,0l0,0l0,0l0,0l0,0l0,0l0,0l0,0l0,0l0,0l0,0l0,0l0,0l0,0l0,0l0,0l0,0l0,0l0,0l0,0l0,0
	l0,0l0,0l0,0l0,0l0,0l0,0l0,0l0,0l0,0l0,0l0,0l0,0l0,0l0,0l0,0l0,0l0,0l0,0l0,0l0,0l0,0l0,0l0,0l0,0l0,0l0,0c0,0,0,0,0.1,0
	c0,0,0,0,0.1,0c0.2,0,0.4,0,0.6,0l0,0l0,0l0,0l0,0l0,0l0,0l0,0l0,0l0,0l0,0l0,0l0,0l0,0l0,0l0,0l0,0l0,0l0,0l0,0l0,0l0,0l0,0l0,0
	l0,0l0,0l0,0l0,0l0,0l0,0l0,0l0,0l0,0l0,0l0,0l0,0l0,0l0,0l0,0l0,0l0,0l0,0l0,0l0,0l0,0l0,0l0,0l0,0l0,0l0,0l0,0l0,0l0,0l0,0l0,0
	l0,0l0,0l0,0l0,0l0,0l0,0l0,0l0,0l0,0l0,0l0,0l0,0l0,0l0,0l0,0l0,0l0,0l0,0l0,0l0,0l0,0l0,0l0,0l0,0l0,0l0,0l0,0l0,0l0,0l0,0l0,0
	l0,0l0,0l0,0l0,0l0,0l0,0c0.3,0,0.6,0.1,0.9,0.2h0.1c0.2,0,0.4-0.1,0.5-0.4c0.1-0.3-0.1-0.5-0.4-0.6c-0.7-0.2-1.4-0.3-2.2-0.3l0,0
	C-164.6-985.1-164.7-985.1-164.7-985.1L-164.7-985.1L-164.7-985.1z M-168.8-984.3c-0.1,0-0.1,0-0.2,0c-0.7,0.3-1.3,0.6-1.9,1
	c-0.2,0.1-0.3,0.5-0.2,0.7c0.1,0.1,0.3,0.2,0.4,0.2c0.1,0,0.2,0,0.3-0.1c0.3-0.2,0.7-0.4,1.1-0.6l0,0l0,0l0,0l0,0l0,0l0,0l0,0l0,0
	l0,0l0,0l0,0l0,0l0,0l0,0l0,0l0,0l0,0l0,0l0,0l0,0l0,0l0,0l0,0l0,0l0,0l0,0l0,0l0,0l0,0l0,0l0,0l0,0l0,0l0,0l0,0l0,0l0,0l0,0l0,0
	c0.2-0.1,0.4-0.2,0.5-0.2c0.3-0.1,0.4-0.4,0.3-0.6C-168.4-984.2-168.6-984.3-168.8-984.3L-168.8-984.3z M-172.3-982
	c-0.1,0-0.3,0-0.4,0.1c-0.6,0.6-1,1.2-1.4,1.8c-0.1,0.2-0.1,0.5,0.2,0.7c0.1,0,0.2,0.1,0.2,0.1c0.2,0,0.3-0.1,0.4-0.3
	c0-0.1,0.1-0.1,0.1-0.2l0,0l0,0l0,0l0,0l0,0l0,0l0,0l0,0l0,0l0,0l0,0l0,0l0,0l0,0l0,0l0,0l0,0l0,0l0,0l0,0l0,0l0,0l0,0l0,0l0,0l0,0
	l0,0l0,0l0,0l0,0l0,0l0,0l0,0l0,0l0,0l0,0l0,0l0,0l0,0l0,0c0.3-0.4,0.6-0.9,1-1.2c0.2-0.2,0.2-0.5,0-0.7
	C-172.1-982-172.2-982-172.3-982L-172.3-982z M-174.4-978.3c-0.2,0-0.4,0.2-0.5,0.4c-0.1,0.5-0.1,1-0.1,1.5c0,0.3,0,0.6,0.1,0.9
	c0,0.2,0.3,0.4,0.5,0.4h0.1c0.3-0.1,0.4-0.3,0.4-0.6v-0.1l0,0l0,0l0,0l0,0l0,0l0,0l0,0l0,0l0,0l0,0l0,0l0,0l0,0l0,0l0,0l0,0l0,0l0,0
	l0,0l0,0l0,0l0,0c0-0.1,0-0.3,0-0.4l0,0l0,0l0,0l0,0l0,0l0,0l0,0l0,0l0,0l0,0l0,0l0,0l0,0l0,0l0,0l0,0l0,0l0,0l0,0l0,0l0,0l0,0l0,0
	l0,0l0,0l0,0l0,0l0,0l0,0l0,0l0,0l0,0l0,0c0-0.4,0-0.8,0.1-1.2C-173.8-978-174-978.3-174.4-978.3
	C-174.3-978.3-174.4-978.3-174.4-978.3L-174.4-978.3z M-173.5-974.1c-0.1,0-0.2,0-0.3,0.1c-0.2,0.2-0.3,0.5-0.1,0.7
	c0.4,0.5,1,1,1.6,1.5l0,0c-0.1,0.1-0.2,0.1-0.3,0.1c-0.8,0.2-1.1,0.8-1,1.2c0,0.2,0.1,1,1.2,1.1c0.2,0,0.4,0,0.6,0l0,0
	c0.3,0,0.5-0.2,0.5-0.5s-0.2-0.5-0.5-0.5c-0.2,0-0.4,0-0.5,0l0,0l0,0l0,0l0,0l0,0l0,0l0,0l0,0l0,0l0,0l0,0c-0.1,0-0.1,0-0.2,0l0,0
	l0,0l0,0l0,0l0,0l0,0l0,0l0,0l0,0l0,0l0,0c-0.1,0-0.1-0.1-0.1-0.1l0,0l0,0l0,0l0,0c0-0.1,0.1-0.1,0.3-0.2l0,0l0,0l0,0l0,0l0,0l0,0
	l0,0l0,0l0,0l0,0l0,0l0,0l0,0l0,0l0,0l0,0l0,0c0.2-0.1,0.4-0.2,0.6-0.3c0.2-0.2,0.3-0.5,0.1-0.7l0,0c0.1,0,0.1-0.1,0.2-0.2
	c0.1-0.2,0.1-0.5-0.2-0.7c-0.4-0.3-0.8-0.5-1.1-0.9l0,0l0,0l0,0l0,0l0,0l0,0l0,0l0,0l0,0l0,0l0,0l0,0l0,0l0,0l0,0l0,0l0,0l0,0l0,0
	l0,0l0,0l0,0l0,0l0,0l0,0l0,0l0,0l0,0l0,0l0,0l0,0l0,0l0,0l0,0l0,0l0,0l0,0l0,0l0,0l0,0l0,0l0,0l0,0l0,0l0,0l0,0l0,0l0,0l0,0l0,0
	l0,0l0,0l0,0l0,0l0,0l0,0l0,0l0,0l0,0l0,0l0,0l0,0l0,0l0,0l0,0l0,0l0,0l0,0l0,0l0,0l0,0l0,0l0,0l0,0l0,0l0,0l0,0l0,0l0,0
	c-0.1-0.1-0.1-0.1-0.2-0.2C-173.2-974.1-173.3-974.1-173.5-974.1L-173.5-974.1z M-167.9-971.3L-167.9-971.3c-0.5,0.4-1,0.6-1.6,0.8
	l0,0l0,0l0,0l0,0l0,0l0,0l0,0l0,0l0,0l0,0l0,0l0,0l0,0l0,0l0,0l0,0l0,0l0,0l0,0l0,0l0,0l0,0l0,0l0,0l0,0l0,0l0,0l0,0l0,0l0,0h-0.1
	c-0.3,0.1-0.4,0.3-0.4,0.6c0,0.2,0.3,0.4,0.5,0.4h0.1c0.9-0.2,1.6-0.5,2.2-1c0.2-0.2,0.2-0.5,0.1-0.7
	C-167.5-971.3-167.7-971.3-167.9-971.3L-167.9-971.3z M-163.9-971.3L-163.9-971.3c-0.1,0-0.2,0-0.3,0l0,0l0,0l0,0l0,0l0,0l0,0l0,0
	l0,0l0,0l0,0l0,0l0,0l0,0l0,0l0,0l0,0l0,0l0,0l0,0l0,0l0,0l0,0l0,0l0,0l0,0l0,0c-0.1,0-0.2,0-0.3,0l0,0l0,0l0,0l0,0l0,0l0,0l0,0
	c-0.3,0-0.6,0-0.9,0l0,0l0,0l0,0l0,0l0,0l0,0l0,0l0,0l0,0l0,0l0,0l0,0l0,0l0,0l0,0l0,0l0,0l0,0l0,0l0,0l0,0l0,0l0,0l0,0l0,0l0,0l0,0
	l0,0l0,0l0,0l0,0l0,0l0,0l0,0l0,0l0,0l0,0l0,0l0,0l0,0l0,0l0,0l0,0l0,0l0,0l0,0l0,0l0,0l0,0l0,0l0,0l0,0l0,0l0,0l0,0l0,0l0,0l0,0
	l0,0l0,0c0,0,0,0-0.1,0l0,0c-0.3,0-0.5,0.2-0.5,0.5s0.2,0.5,0.5,0.5c0.2,0,0.3,0,0.5,0c0.3,0,0.7,0,1,0c0.2,0,0.5,0,0.8-0.1
	c0.3,0,0.5-0.3,0.4-0.6C-163.4-971.1-163.6-971.3-163.9-971.3L-163.9-971.3z M-160-972.9c-0.1,0-0.2,0-0.3,0.1s-0.2,0.2-0.3,0.3l0,0
	l0,0l0,0l0,0l0,0l0,0l0,0l0,0l0,0l0,0l0,0l0,0l0,0l0,0l0,0l0,0l0,0l0,0l0,0l0,0l0,0l0,0l0,0l0,0l0,0l0,0l0,0l0,0l0,0l0,0l0,0l0,0
	l0,0l0,0l0,0l0,0l0,0l0,0l0,0c-0.4,0.2-0.8,0.5-1.2,0.6c-0.3,0.1-0.4,0.4-0.3,0.6c0.1,0.2,0.3,0.3,0.5,0.3c0.1,0,0.1,0,0.2,0
	c0.7-0.3,1.4-0.7,2-1.1c0.2-0.2,0.3-0.5,0.1-0.7C-159.7-972.8-159.8-972.9-160-972.9L-160-972.9z M-157.7-976.5
	c-0.2,0-0.4,0.2-0.5,0.4l0,0l0,0l0,0l0,0l0,0l0,0l0,0l0,0l0,0l0,0l0,0l0,0l0,0l0,0l0,0l0,0l0,0l0,0l0,0l0,0l0,0l0,0l0,0l0,0l0,0l0,0
	l0,0l0,0l0,0l0,0l0,0l0,0l0,0l0,0l0,0l0,0l0,0l0,0l0,0l0,0l0,0l0,0l0,0l0,0l0,0l0,0l0,0l0,0l0,0l0,0l0,0l0,0l0,0l0,0l0,0l0,0l0,0
	l0,0l0,0l0,0l0,0l0,0l0,0l0,0l0,0l0,0l0,0l0,0l0,0l0,0l0,0l0,0l0,0l0,0l0,0l0,0l0,0l0,0l0,0l0,0l0,0l0,0l0,0l0,0l0,0l0,0l0,0l0,0
	l0,0l0,0l0,0l0,0l0,0l0,0l0,0l0,0l0,0l0,0l0,0l0,0l0,0l0,0l0,0l0,0l0,0l0,0l0,0l0,0l0,0l0,0l0,0l0,0l0,0l0,0l0,0l0,0l0,0l0,0l0,0
	l0,0l0,0l0,0l0,0l0,0l0,0l0,0l0,0l0,0l0,0l0,0l0,0l0,0l0,0l0,0l0,0l0,0l0,0l0,0l0,0l0,0l0,0l0,0l0,0l0,0l0,0l0,0l0,0l0,0l0,0l0,0
	l0,0l0,0l0,0l0,0l0,0l0,0l0,0l0,0l0,0l0,0l0,0l0,0l0,0l0,0l0,0l0,0l0,0l0,0l0,0l0,0l0,0l0,0l0,0l0,0l0,0l0,0l0,0l0,0l0,0l0,0l0,0
	l0,0l0,0l0,0l0,0l0,0l0,0l0,0l0,0l0,0l0,0l0,0l0,0l0,0l0,0l0,0l0,0l0,0l0,0l0,0c-0.1,0.3-0.3,0.6-0.4,0.8c-0.1,0.2-0.1,0.5,0.1,0.7
	c0.1,0.1,0.2,0.1,0.3,0.1c0.2,0,0.3-0.1,0.4-0.2c0.4-0.7,0.7-1.4,0.9-2.1c0.1-0.3-0.1-0.5-0.4-0.6
	C-157.6-976.5-157.7-976.5-157.7-976.5L-157.7-976.5z M-157.9-980.7c-0.1,0-0.1,0-0.2,0c-0.3,0.1-0.4,0.4-0.3,0.6l0,0l0,0l0,0l0,0
	l0,0l0,0l0,0l0,0l0,0l0,0l0,0l0,0l0,0l0,0l0,0l0,0l0,0l0,0l0,0l0,0l0,0l0,0c0.1,0.2,0.1,0.4,0.2,0.6l0,0l0,0l0,0l0,0l0,0l0,0l0,0
	l0,0l0,0l0,0l0,0l0,0l0,0l0,0l0,0l0,0l0,0l0,0l0,0c0,0.2,0.1,0.3,0.1,0.5l0,0l0,0l0,0l0,0l0,0l0,0l0,0l0,0l0,0l0,0l0,0l0,0l0,0l0,0
	l0,0l0,0l0,0l0,0l0,0l0,0l0,0l0,0l0,0l0,0l0,0l0,0l0,0l0,0l0,0l0,0l0,0l0,0l0,0l0,0l0,0l0,0l0,0l0,0l0,0l0,0l0,0
	c0,0.2,0,0.4,0.1,0.5c0,0.3,0.2,0.5,0.5,0.5l0,0c0.3,0,0.5-0.3,0.5-0.5c0-0.5-0.1-0.9-0.2-1.4c-0.1-0.3-0.1-0.6-0.2-0.8
	C-157.5-980.6-157.7-980.7-157.9-980.7L-157.9-980.7z M-160.6-984c-0.2,0-0.3,0.1-0.4,0.2c-0.1,0.2-0.1,0.5,0.2,0.7l0,0l0,0l0,0l0,0
	l0,0l0,0l0,0l0,0l0,0l0,0l0,0l0,0l0,0l0,0l0,0l0,0l0,0l0,0l0,0l0,0l0,0l0,0l0,0l0,0l0,0l0,0l0,0l0,0l0,0l0,0l0,0l0,0l0,0l0,0l0,0
	l0,0l0,0l0,0l0,0l0,0l0,0l0,0l0,0l0,0l0,0l0,0l0,0l0,0l0,0l0,0l0,0l0,0l0,0l0,0l0,0l0,0l0,0l0,0l0,0l0,0l0,0l0,0l0,0l0,0l0,0l0,0
	l0,0l0,0l0,0l0,0l0,0l0,0l0,0l0,0l0,0l0,0l0,0l0,0l0,0l0,0l0,0l0,0l0,0l0,0l0,0l0,0l0,0l0,0l0,0l0,0l0,0l0,0l0,0l0,0l0,0l0,0l0,0
	l0,0l0,0l0,0l0,0l0,0l0,0l0,0l0,0l0,0l0,0l0,0l0,0l0,0l0,0l0,0l0,0l0,0l0,0l0,0l0,0l0,0l0,0l0,0l0,0l0,0l0,0l0,0l0,0l0,0l0,0l0,0
	l0,0l0,0l0,0l0,0l0,0l0,0l0,0l0,0l0,0l0,0l0,0l0,0l0,0l0,0l0,0l0,0l0,0l0,0l0,0l0,0l0,0l0,0l0,0l0,0l0,0l0,0l0,0l0,0l0,0l0,0l0,0
	l0,0l0,0l0,0l0,0l0,0l0,0l0,0l0,0l0,0l0,0l0,0l0,0l0,0l0,0l0,0l0,0l0,0l0,0l0,0l0,0l0,0l0,0l0,0l0,0l0,0l0,0l0,0l0,0l0,0l0,0l0,0
	l0,0l0,0l0,0l0,0l0,0l0,0l0,0l0,0l0,0l0,0l0,0l0,0l0,0l0,0l0,0l0,0l0,0l0,0l0,0l0,0l0,0l0,0l0,0l0,0l0,0l0,0l0,0l0,0l0,0l0,0l0,0
	l0,0l0,0l0,0c0.2,0.2,0.4,0.4,0.6,0.7c0.1,0.1,0.2,0.2,0.4,0.2c0.1,0,0.2,0,0.3-0.1c0.2-0.2,0.3-0.5,0.1-0.7
	c-0.5-0.6-1.1-1.1-1.8-1.5C-160.4-984-160.5-984-160.6-984L-160.6-984z"/>
<path id="ic_cloud-copy-2" sketch:type="MSShapeGroup" class="st0" d="M-175-735.5c0,2.4,1.8,4.4,4.1,4.4h11.8c2.3,0,4.1-2,4.1-4.4
	s-1.7-4.3-3.9-4.4l0,0c0-2.8-2.1-5.2-4.8-5.2c-1.7,0-3.2,1-4.1,2.4c-0.3-0.1-0.6-0.2-0.9-0.2c-1.3,0-2.4,1.1-2.4,2.5
	c0,0.2,0,0.3,0,0.4C-173.2-739.8-175-737.9-175-735.5"/>
<path id="Fill-1-Copy" sketch:type="MSShapeGroup" class="st0" d="M-172-701.1h14v9h-14V-701.1z M-158-703.1h-14c-1.1,0-2,0.9-2,2v9
	c0,1.1,0.9,2,2,2h4v1l-4,1v1h14v-1l-4-1v-1h4c1.1,0,2-0.9,2-2v-9C-156-702.2-156.9-703.1-158-703.1L-158-703.1z M-157-692.1
	c0,0.5-0.4,1-1,1h-14c-0.6,0-1-0.5-1-1v-9c0-0.5,0.4-1,1-1h14c0.6,0,1,0.5,1,1V-692.1L-157-692.1z"/>
<g id="Group-Copy-3" transform="translate(7.000000, 858.000000)" sketch:type="MSLayerGroup">
	<g sketch:type="MSShapeGroup">
		<path id="Rectangle-67_1_" class="st13" d="M-180-1509.1l9.6-9.6c0.8-0.8,2.1-0.8,2.8,0l0.2,0.2c0.8,0.8,0.8,2.1,0,2.8l-9.6,9.6
			l-5,2L-180-1509.1z"/>
		<path id="Path-280_1_" class="st13" d="M-172-1517.1l3.1,3"/>
		<path id="Path-280-Copy_1_" class="st13" d="M-179-1510.1l3.1,3"/>
		<rect id="Rectangle-68-Copy_1_" x="-173" y="-1505.1" class="st0" width="4" height="1"/>
		<rect id="Rectangle-68-Copy-2_1_" x="-167" y="-1505.1" class="st0" width="2" height="1"/>
		<rect id="Rectangle-68-Copy-3_1_" x="-177" y="-1505.1" class="st0" width="2" height="1"/>
	</g>
</g>
<path id="Rectangle-138-Copy-5" sketch:type="MSShapeGroup" class="st0" d="M-165-612.1h2v-4h-4v3v3h2V-612.1z M-171-612.1h2v-4h-4
	v3v3h2V-612.1L-171-612.1z"/>
<path id="Rectangle-144-Copy-8" sketch:type="MSShapeGroup" class="st0" d="M-164.6-584.1l4.9-4.9l-1.4-1.4l-4.9,4.9l-4.9-4.9
	l-1.4,1.4l5,4.9l-5,5l1.4,1.4l4.9-5l4.9,5l1.4-1.4L-164.6-584.1z"/>
<path id="Fill-5-Copy-2" sketch:type="MSShapeGroup" class="st0" d="M-163.1-521.5c0-0.1-0.1-0.7-0.3-0.8s-0.8-0.4-0.8-0.4
	s-0.1-0.2-0.1-0.3s0.1-0.3,0.1-0.3c0.1-0.2,0.4-0.5,0.4-0.8s0.2-1,0.2-1c0-0.2,0.2-0.2,0.4-0.3c0.3-0.1,0.5-1.7,0.5-1.7
	c0-0.5-0.2-0.3-0.2-0.7v-1.4c0-1.7-1.4-2.8-3.1-2.8h-0.1c-1.7,0-3.1,1.1-3.1,2.8v1.4c0,0.4-0.2,0.1-0.2,0.7c0,0,0.2,1.6,0.5,1.7
	c0.1,0.1,0.4,0.2,0.4,0.3c0,0,0.1,0.8,0.2,1s0.4,0.7,0.4,0.8c0,0,0.1,0.2,0.1,0.3s-0.1,0.3-0.1,0.3s-0.6,0.3-0.8,0.4
	c-0.2,0.1-0.3,0.6-0.3,0.8c-0.7,0.2-4.3,1.9-4.8,2.3c-0.3,0.3-0.3,2.1-0.3,2.1v0.2c0,0.4,0.3,0.8,0.8,0.8h14.5
	c0.4,0,0.8-0.3,0.8-0.8v-0.2c0,0,0-1.8-0.3-2.1C-158.7-519.6-162.4-521.3-163.1-521.5z"/>
<path id="Imported-Layers-Copy-3" sketch:type="MSShapeGroup" class="st0" d="M-164.7-495.1c-0.7,0-1.4,0.1-2.2,0.2
	c-0.3,0.1-0.4,0.3-0.4,0.6c0,0.2,0.3,0.4,0.5,0.4h0.1c0.4-0.1,0.8-0.1,1.1-0.2l0,0l0,0c0,0,0,0,0.1,0l0,0l0,0l0,0l0,0l0,0l0,0l0,0
	l0,0l0,0l0,0l0,0l0,0l0,0l0,0l0,0l0,0l0,0l0,0l0,0l0,0l0,0l0,0l0,0l0,0l0,0l0,0l0,0l0,0l0,0l0,0l0,0l0,0l0,0l0,0l0,0l0,0l0,0l0,0
	l0,0l0,0l0,0l0,0l0,0l0,0l0,0l0,0l0,0l0,0l0,0l0,0l0,0l0,0l0,0l0,0l0,0l0,0l0,0l0,0l0,0l0,0l0,0l0,0l0,0l0,0l0,0l0,0l0,0l0,0l0,0
	l0,0l0,0l0,0l0,0l0,0l0,0l0,0l0,0l0,0l0,0l0,0l0,0l0,0l0,0l0,0l0,0l0,0l0,0l0,0l0,0l0,0l0,0l0,0l0,0l0,0l0,0l0,0l0,0l0,0l0,0l0,0
	l0,0l0,0l0,0l0,0l0,0l0,0l0,0l0,0l0,0l0,0l0,0l0,0l0,0l0,0l0,0l0,0l0,0l0,0l0,0l0,0l0,0l0,0l0,0l0,0l0,0l0,0l0,0l0,0l0,0l0,0l0,0
	l0,0l0,0l0,0l0,0l0,0l0,0l0,0l0,0l0,0l0,0l0,0l0,0l0,0l0,0l0,0l0,0l0,0l0,0l0,0l0,0l0,0l0,0l0,0l0,0l0,0l0,0c0,0,0,0,0.1,0
	c0,0,0,0,0.1,0c0.2,0,0.4,0,0.6,0l0,0l0,0l0,0l0,0l0,0l0,0l0,0l0,0l0,0l0,0l0,0l0,0l0,0l0,0l0,0l0,0l0,0l0,0l0,0l0,0l0,0l0,0l0,0
	l0,0l0,0l0,0l0,0l0,0l0,0l0,0l0,0l0,0l0,0l0,0l0,0l0,0l0,0l0,0l0,0l0,0l0,0l0,0l0,0l0,0l0,0l0,0l0,0l0,0l0,0l0,0l0,0l0,0l0,0l0,0
	l0,0l0,0l0,0l0,0l0,0l0,0l0,0l0,0l0,0l0,0l0,0l0,0l0,0l0,0l0,0l0,0l0,0l0,0l0,0l0,0l0,0l0,0l0,0l0,0l0,0l0,0l0,0l0,0l0,0l0,0l0,0
	l0,0l0,0l0,0l0,0l0,0l0,0c0.3,0,0.6,0.1,0.9,0.2h0.1c0.2,0,0.4-0.1,0.5-0.4c0.1-0.3-0.1-0.5-0.4-0.6c-0.7-0.2-1.4-0.3-2.2-0.3l0,0
	C-164.6-495.1-164.7-495.1-164.7-495.1L-164.7-495.1L-164.7-495.1z M-168.8-494.3c-0.1,0-0.1,0-0.2,0c-0.7,0.3-1.3,0.6-1.9,1
	c-0.2,0.1-0.3,0.5-0.2,0.7c0.1,0.1,0.3,0.2,0.4,0.2c0.1,0,0.2,0,0.3-0.1c0.3-0.2,0.7-0.4,1.1-0.6l0,0l0,0l0,0l0,0l0,0l0,0l0,0l0,0
	l0,0l0,0l0,0l0,0l0,0l0,0l0,0l0,0l0,0l0,0l0,0l0,0l0,0l0,0l0,0l0,0l0,0l0,0l0,0l0,0l0,0l0,0l0,0l0,0l0,0l0,0l0,0l0,0l0,0l0,0l0,0
	c0.2-0.1,0.4-0.2,0.5-0.2c0.3-0.1,0.4-0.4,0.3-0.7C-168.4-494.2-168.6-494.3-168.8-494.3L-168.8-494.3z M-172.3-492
	c-0.1,0-0.3,0-0.4,0.1c-0.6,0.6-1,1.2-1.4,1.8c-0.1,0.2-0.1,0.5,0.2,0.7c0.1,0,0.2,0.1,0.2,0.1c0.2,0,0.3-0.1,0.4-0.3
	c0-0.1,0.1-0.1,0.1-0.2l0,0l0,0l0,0l0,0l0,0l0,0l0,0l0,0l0,0l0,0l0,0l0,0l0,0l0,0l0,0l0,0l0,0l0,0l0,0l0,0l0,0l0,0l0,0l0,0l0,0l0,0
	l0,0l0,0l0,0l0,0l0,0l0,0l0,0l0,0l0,0l0,0l0,0l0,0l0,0l0,0c0.3-0.4,0.6-0.9,1-1.2c0.2-0.2,0.2-0.5,0-0.7
	C-172.1-492-172.2-492-172.3-492L-172.3-492z M-174.4-488.3c-0.2,0-0.4,0.2-0.5,0.4c-0.1,0.5-0.1,1-0.1,1.5c0,0.3,0,0.6,0.1,0.9
	c0,0.2,0.3,0.4,0.5,0.4h0.1c0.3-0.1,0.4-0.3,0.4-0.6v-0.1l0,0l0,0l0,0l0,0l0,0l0,0l0,0l0,0l0,0l0,0l0,0l0,0l0,0l0,0l0,0l0,0l0,0l0,0
	l0,0l0,0l0,0l0,0c0-0.1,0-0.3,0-0.4l0,0l0,0l0,0l0,0l0,0l0,0l0,0l0,0l0,0l0,0l0,0l0,0l0,0l0,0l0,0l0,0l0,0l0,0l0,0l0,0l0,0l0,0l0,0
	l0,0l0,0l0,0l0,0l0,0l0,0l0,0l0,0l0,0l0,0c0-0.4,0-0.8,0.1-1.2C-173.8-488-174-488.3-174.4-488.3
	C-174.3-488.3-174.4-488.3-174.4-488.3L-174.4-488.3z M-173.5-484.1c-0.1,0-0.2,0-0.3,0.1c-0.2,0.2-0.3,0.5-0.1,0.7
	c0.4,0.6,1,1,1.6,1.5l0,0c-0.1,0.1-0.2,0.1-0.3,0.1c-0.8,0.2-1.1,0.8-1,1.2c0,0.2,0.1,0.9,1.2,1.1c0.2,0,0.4,0,0.6,0l0,0
	c0.3,0,0.5-0.2,0.5-0.5s-0.2-0.5-0.5-0.5c-0.2,0-0.4,0-0.5,0l0,0l0,0l0,0l0,0l0,0l0,0l0,0l0,0l0,0l0,0l0,0c-0.1,0-0.1,0-0.2,0l0,0
	l0,0l0,0l0,0l0,0l0,0l0,0l0,0l0,0l0,0l0,0c-0.1,0-0.1-0.1-0.1-0.1l0,0l0,0l0,0l0,0c0-0.1,0.1-0.1,0.3-0.2l0,0l0,0l0,0l0,0l0,0l0,0
	l0,0l0,0l0,0l0,0l0,0l0,0l0,0l0,0l0,0l0,0l0,0c0.2-0.1,0.4-0.2,0.6-0.3c0.2-0.2,0.3-0.5,0.1-0.7l0,0c0.1,0,0.1-0.1,0.2-0.2
	c0.1-0.2,0.1-0.5-0.2-0.7c-0.4-0.3-0.8-0.5-1.1-0.9l0,0l0,0l0,0l0,0l0,0l0,0l0,0l0,0l0,0l0,0l0,0l0,0l0,0l0,0l0,0l0,0l0,0l0,0l0,0
	l0,0l0,0l0,0l0,0l0,0l0,0l0,0l0,0l0,0l0,0l0,0l0,0l0,0l0,0l0,0l0,0l0,0l0,0l0,0l0,0l0,0l0,0l0,0l0,0l0,0l0,0l0,0l0,0l0,0l0,0l0,0
	l0,0l0,0l0,0l0,0l0,0l0,0l0,0l0,0l0,0l0,0l0,0l0,0l0,0l0,0l0,0l0,0l0,0l0,0l0,0l0,0l0,0l0,0l0,0l0,0l0,0l0,0l0,0l0,0l0,0
	c-0.1-0.1-0.1-0.1-0.2-0.2C-173.2-484.1-173.3-484.1-173.5-484.1L-173.5-484.1z M-167.9-481.3L-167.9-481.3c-0.5,0.4-1,0.6-1.6,0.8
	l0,0l0,0l0,0l0,0l0,0l0,0l0,0l0,0l0,0l0,0l0,0l0,0l0,0l0,0l0,0l0,0l0,0l0,0l0,0l0,0l0,0l0,0l0,0l0,0l0,0l0,0l0,0l0,0l0,0l0,0h-0.1
	c-0.3,0.1-0.4,0.3-0.4,0.6c0,0.2,0.3,0.4,0.5,0.4h0.1c0.9-0.2,1.6-0.5,2.2-1c0.2-0.2,0.2-0.5,0.1-0.7
	C-167.5-481.3-167.7-481.3-167.9-481.3L-167.9-481.3z M-163.9-481.3L-163.9-481.3c-0.1,0-0.2,0-0.3,0l0,0l0,0l0,0l0,0l0,0l0,0l0,0
	l0,0l0,0l0,0l0,0l0,0l0,0l0,0l0,0l0,0l0,0l0,0l0,0l0,0l0,0l0,0l0,0l0,0l0,0l0,0c-0.1,0-0.2,0-0.3,0l0,0l0,0l0,0l0,0l0,0l0,0l0,0
	c-0.3,0-0.6,0-0.9,0l0,0l0,0l0,0l0,0l0,0l0,0l0,0l0,0l0,0l0,0l0,0l0,0l0,0l0,0l0,0l0,0l0,0l0,0l0,0l0,0l0,0l0,0l0,0l0,0l0,0l0,0l0,0
	l0,0l0,0l0,0l0,0l0,0l0,0l0,0l0,0l0,0l0,0l0,0l0,0l0,0l0,0l0,0l0,0l0,0l0,0l0,0l0,0l0,0l0,0l0,0l0,0l0,0l0,0l0,0l0,0l0,0l0,0l0,0
	l0,0l0,0c0,0,0,0-0.1,0l0,0c-0.3,0-0.5,0.2-0.5,0.5s0.2,0.5,0.5,0.5c0.2,0,0.3,0,0.5,0c0.3,0,0.7,0,1,0c0.2,0,0.5,0,0.8-0.1
	c0.3,0,0.5-0.3,0.4-0.6C-163.4-481.1-163.6-481.3-163.9-481.3L-163.9-481.3z M-160-482.9c-0.1,0-0.2,0-0.3,0.1s-0.2,0.2-0.3,0.3l0,0
	l0,0l0,0l0,0l0,0l0,0l0,0l0,0l0,0l0,0l0,0l0,0l0,0l0,0l0,0l0,0l0,0l0,0l0,0l0,0l0,0l0,0l0,0l0,0l0,0l0,0l0,0l0,0l0,0l0,0l0,0l0,0
	l0,0l0,0l0,0l0,0l0,0l0,0l0,0c-0.4,0.2-0.8,0.5-1.2,0.6c-0.3,0.1-0.4,0.4-0.3,0.6c0.1,0.2,0.3,0.3,0.5,0.3c0.1,0,0.1,0,0.2,0
	c0.7-0.3,1.4-0.7,2-1.1c0.2-0.2,0.3-0.5,0.1-0.7C-159.7-482.8-159.8-482.9-160-482.9L-160-482.9z M-157.7-486.5
	c-0.2,0-0.4,0.2-0.5,0.4l0,0l0,0l0,0l0,0l0,0l0,0l0,0l0,0l0,0l0,0l0,0l0,0l0,0l0,0l0,0l0,0l0,0l0,0l0,0l0,0l0,0l0,0l0,0l0,0l0,0l0,0
	l0,0l0,0l0,0l0,0l0,0l0,0l0,0l0,0l0,0l0,0l0,0l0,0l0,0l0,0l0,0l0,0l0,0l0,0l0,0l0,0l0,0l0,0l0,0l0,0l0,0l0,0l0,0l0,0l0,0l0,0l0,0
	l0,0l0,0l0,0l0,0l0,0l0,0l0,0l0,0l0,0l0,0l0,0l0,0l0,0l0,0l0,0l0,0l0,0l0,0l0,0l0,0l0,0l0,0l0,0l0,0l0,0l0,0l0,0l0,0l0,0l0,0l0,0
	l0,0l0,0l0,0l0,0l0,0l0,0l0,0l0,0l0,0l0,0l0,0l0,0l0,0l0,0l0,0l0,0l0,0l0,0l0,0l0,0l0,0l0,0l0,0l0,0l0,0l0,0l0,0l0,0l0,0l0,0l0,0
	l0,0l0,0l0,0l0,0l0,0l0,0l0,0l0,0l0,0l0,0l0,0l0,0l0,0l0,0l0,0l0,0l0,0l0,0l0,0l0,0l0,0l0,0l0,0l0,0l0,0l0,0l0,0l0,0l0,0l0,0l0,0
	l0,0l0,0l0,0l0,0l0,0l0,0l0,0l0,0l0,0l0,0l0,0l0,0l0,0l0,0l0,0l0,0l0,0l0,0l0,0l0,0l0,0l0,0l0,0l0,0l0,0l0,0l0,0l0,0l0,0l0,0l0,0
	l0,0l0,0l0,0l0,0l0,0l0,0l0,0l0,0l0,0l0,0l0,0l0,0l0,0l0,0l0,0l0,0l0,0l0,0l0,0c-0.1,0.3-0.3,0.6-0.4,0.8c-0.1,0.2-0.1,0.5,0.1,0.7
	c0.1,0.1,0.2,0.1,0.3,0.1c0.2,0,0.3-0.1,0.4-0.2c0.4-0.7,0.7-1.4,0.9-2.1c0.1-0.3-0.1-0.5-0.4-0.6
	C-157.6-486.5-157.7-486.5-157.7-486.5L-157.7-486.5z M-157.9-490.7c-0.1,0-0.1,0-0.2,0c-0.3,0.1-0.4,0.4-0.3,0.6l0,0l0,0l0,0l0,0
	l0,0l0,0l0,0l0,0l0,0l0,0l0,0l0,0l0,0l0,0l0,0l0,0l0,0l0,0l0,0l0,0l0,0l0,0c0.1,0.2,0.1,0.4,0.2,0.6l0,0l0,0l0,0l0,0l0,0l0,0l0,0
	l0,0l0,0l0,0l0,0l0,0l0,0l0,0l0,0l0,0l0,0l0,0l0,0c0,0.2,0.1,0.3,0.1,0.5l0,0l0,0l0,0l0,0l0,0l0,0l0,0l0,0l0,0l0,0l0,0l0,0l0,0l0,0
	l0,0l0,0l0,0l0,0l0,0l0,0l0,0l0,0l0,0l0,0l0,0l0,0l0,0l0,0l0,0l0,0l0,0l0,0l0,0l0,0l0,0l0,0l0,0l0,0l0,0l0,0l0,0
	c0,0.2,0,0.4,0.1,0.5c0,0.3,0.2,0.5,0.5,0.5l0,0c0.3,0,0.5-0.3,0.5-0.5c0-0.5-0.1-0.9-0.2-1.4c-0.1-0.3-0.1-0.6-0.2-0.8
	C-157.5-490.6-157.7-490.7-157.9-490.7L-157.9-490.7z M-160.6-494c-0.2,0-0.3,0.1-0.4,0.2c-0.1,0.2-0.1,0.5,0.2,0.7l0,0l0,0l0,0l0,0
	l0,0l0,0l0,0l0,0l0,0l0,0l0,0l0,0l0,0l0,0l0,0l0,0l0,0l0,0l0,0l0,0l0,0l0,0l0,0l0,0l0,0l0,0l0,0l0,0l0,0l0,0l0,0l0,0l0,0l0,0l0,0
	l0,0l0,0l0,0l0,0l0,0l0,0l0,0l0,0l0,0l0,0l0,0l0,0l0,0l0,0l0,0l0,0l0,0l0,0l0,0l0,0l0,0l0,0l0,0l0,0l0,0l0,0l0,0l0,0l0,0l0,0l0,0
	l0,0l0,0l0,0l0,0l0,0l0,0l0,0l0,0l0,0l0,0l0,0l0,0l0,0l0,0l0,0l0,0l0,0l0,0l0,0l0,0l0,0l0,0l0,0l0,0l0,0l0,0l0,0l0,0l0,0l0,0l0,0
	l0,0l0,0l0,0l0,0l0,0l0,0l0,0l0,0l0,0l0,0l0,0l0,0l0,0l0,0l0,0l0,0l0,0l0,0l0,0l0,0l0,0l0,0l0,0l0,0l0,0l0,0l0,0l0,0l0,0l0,0l0,0
	l0,0l0,0l0,0l0,0l0,0l0,0l0,0l0,0l0,0l0,0l0,0l0,0l0,0l0,0l0,0l0,0l0,0l0,0l0,0l0,0l0,0l0,0l0,0l0,0l0,0l0,0l0,0l0,0l0,0l0,0l0,0
	l0,0l0,0l0,0l0,0l0,0l0,0l0,0l0,0l0,0l0,0l0,0l0,0l0,0l0,0l0,0l0,0l0,0l0,0l0,0l0,0l0,0l0,0l0,0l0,0l0,0l0,0l0,0l0,0l0,0l0,0l0,0
	l0,0l0,0l0,0l0,0l0,0l0,0l0,0l0,0l0,0l0,0l0,0l0,0l0,0l0,0l0,0l0,0l0,0l0,0l0,0l0,0l0,0l0,0l0,0l0,0l0,0l0,0l0,0l0,0l0,0l0,0l0,0
	l0,0l0,0l0,0c0.2,0.2,0.4,0.4,0.6,0.7c0.1,0.1,0.2,0.2,0.4,0.2c0.1,0,0.2,0,0.3-0.1c0.2-0.2,0.3-0.5,0.1-0.7
	c-0.5-0.6-1.1-1.1-1.8-1.5C-160.4-494-160.5-494-160.6-494L-160.6-494z"/>
<path id="Rectangle-93" sketch:type="MSShapeGroup" class="st14" d="M-169-1517.1h8l-4,4L-169-1517.1z"/>
<g id="Imported-Layers_2_" transform="translate(3.000000, 1586.000000)" sketch:type="MSLayerGroup">
	<path id="Fill-1_3_" sketch:type="MSShapeGroup" class="st15" d="M-169-1518.1c4.4,0,8,3.6,8,8s-3.6,8-8,8s-8-3.6-8-8
		S-173.4-1518.1-169-1518.1 M-169-1520.1c-5.5,0-10,4.5-10,10s4.5,10,10,10s10-4.5,10-10S-163.5-1520.1-169-1520.1"/>
	<path id="Fill-2_2_" sketch:type="MSShapeGroup" class="st5" d="M-164.2-1508.1c-0.5,2.3-2.5,4-4.9,4s-4.4-1.7-4.9-4H-164.2
		 M-163-1509.1h-12.2l0.2,1.2c0.6,2.8,3,4.8,5.9,4.8c2.8,0,5.3-2,5.9-4.8L-163-1509.1"/>
	<path id="Fill-3_1_" sketch:type="MSShapeGroup" class="st15" d="M-164-1508.1c-0.5,2.3-2.5,4-5,4s-4.5-1.7-5-4H-164 M-175-1509.1
		v1.2c0.6,2.8,3.1,4.8,6,4.8s5.4-2,6-4.8v-1.2H-175"/>
	<path id="Fill-4_1_" sketch:type="MSShapeGroup" class="st15" d="M-163-1511.6c0,0.8-0.7,1.5-1.5,1.5s-1.5-0.7-1.5-1.5
		s0.7-1.5,1.5-1.5S-163-1512.4-163-1511.6"/>
	<path id="Fill-5_1_" sketch:type="MSShapeGroup" class="st15" d="M-172-1511.6c0,0.8-0.7,1.5-1.5,1.5s-1.5-0.7-1.5-1.5
		s0.7-1.5,1.5-1.5S-172-1512.4-172-1511.6"/>
	<path id="Fill-6_1_" sketch:type="MSShapeGroup" class="st15" d="M-165-1505.1h-8l-1-2h10L-165-1505.1"/>
</g>
<path id="Rectangle-53-Copy-3" sketch:type="MSShapeGroup" class="st11" d="M-175-852.1c0-1.1,0.9-2,2-2h14c1.1,0,2,0.9,2,2v10
	c0,1.1-0.9,2-2,2h-14c-1.1,0-2-0.9-2-2V-852.1z M-161.2-844c-0.3-0.3-2.5-1.3-3-1.5c0-0.1-0.1-0.4-0.2-0.5c-0.1,0-0.5-0.2-0.5-0.2
	s0-0.1-0.1-0.2c0-0.1,0.1-0.2,0.1-0.2c0.1-0.1,0.2-0.3,0.3-0.5s0.1-0.7,0.1-0.7c0-0.1,0.1-0.1,0.2-0.2c0.2-0.1,0.3-1.1,0.3-1.1
	c0-0.3-0.1-0.2-0.1-0.4v-0.9c0-1.1-0.9-1.8-1.9-1.8l0,0c-1.1,0-2,0.7-2,1.8v0.9c0,0.2-0.1,0.1-0.1,0.4c0,0,0.1,1,0.3,1.1
	c0.1,0,0.2,0.1,0.2,0.2c0,0,0.1,0.5,0.1,0.7c0.1,0.2,0.2,0.4,0.3,0.5c0,0,0,0.1,0,0.2c0,0.1,0,0.2,0,0.2s-0.4,0.2-0.5,0.2
	c-0.1,0.1-0.2,0.4-0.2,0.5c-0.4,0.1-2.7,1.2-3,1.5c-0.2,0.2-0.2,1.3-0.2,1.3v0.1c0,0.3,0.2,0.5,0.5,0.5h9c0.3,0,0.5-0.2,0.5-0.5
	v-0.1C-161-842.7-161-843.8-161.2-844z"/>
<path id="ic_cloud-copy-6" sketch:type="MSShapeGroup" class="st11" d="M-176-929.5c0,2.4,1.8,4.4,4.1,4.4h11.8c2.3,0,4.1-2,4.1-4.4
	s-1.7-4.3-3.9-4.4l0,0c0-2.8-2.1-5.2-4.8-5.2c-1.7,0-3.2,1-4.1,2.4c-0.3-0.1-0.6-0.2-0.9-0.2c-1.3,0-2.4,1.1-2.4,2.5
	c0,0.2,0,0.3,0,0.4C-174.2-933.8-176-931.9-176-929.5"/>
<path class="st11" d="M-166-899.1c-5,0-9,4-9,9s4,9,9,9s9-4,9-9S-161-899.1-166-899.1z M-162-889.1l-3-3v7h-2v-7l-3,3l-1-1l5-5l5,5
	L-162-889.1z"/>
<path id="Rectangle-53-Copy-4" sketch:type="MSShapeGroup" class="st0" d="M-175-362.1c0-1.1,0.9-2,2-2h14c1.1,0,2,0.9,2,2v10
	c0,1.1-0.9,2-2,2h-14c-1.1,0-2-0.9-2-2V-362.1z M-161.2-354c-0.3-0.3-2.5-1.3-3-1.5c0-0.1-0.1-0.4-0.2-0.5c-0.1,0-0.5-0.2-0.5-0.2
	s0-0.1-0.1-0.2c0-0.1,0.1-0.2,0.1-0.2c0.1-0.1,0.2-0.3,0.3-0.5s0.1-0.7,0.1-0.7c0-0.1,0.1-0.1,0.2-0.2c0.2-0.1,0.3-1.1,0.3-1.1
	c0-0.3-0.1-0.2-0.1-0.4v-0.9c0-1.1-0.9-1.8-1.9-1.8l0,0c-1.1,0-2,0.7-2,1.8v0.9c0,0.2-0.1,0.1-0.1,0.4c0,0,0.1,1,0.3,1.1
	c0.1,0.1,0.2,0.1,0.2,0.2c0,0,0.1,0.5,0.1,0.7c0.1,0.2,0.2,0.4,0.3,0.5c0,0,0,0.1,0,0.2s0,0.2,0,0.2s-0.4,0.2-0.5,0.2
	c-0.1,0.1-0.2,0.4-0.2,0.5c-0.4,0.1-2.7,1.2-3,1.5c-0.2,0.2-0.2,1.3-0.2,1.3v0.1c0,0.3,0.2,0.5,0.5,0.5h9c0.3,0,0.5-0.2,0.5-0.5
	v-0.1C-161-352.7-161-353.8-161.2-354z"/>
<path id="ic_cloud-copy-7" sketch:type="MSShapeGroup" class="st0" d="M-176-439.5c0,2.4,1.8,4.4,4.1,4.4h11.8c2.3,0,4.1-2,4.1-4.4
	s-1.7-4.3-3.9-4.4l0,0c0-2.8-2.1-5.2-4.8-5.2c-1.7,0-3.2,1-4.1,2.4c-0.3-0.1-0.6-0.2-0.9-0.2c-1.3,0-2.4,1.1-2.4,2.5
	c0,0.2,0,0.3,0,0.4C-174.2-443.8-176-441.9-176-439.5"/>
<path id="Imported-Layers_3_" sketch:type="MSShapeGroup" class="st11" d="M-172-799.1l12-8l-12-8V-799.1z"/>
<g id="Oval-55-_x2B_-Fill-5-_x2B_-Shape" transform="translate(8.000000, 737.000000)" sketch:type="MSLayerGroup">
	<g id="Oval-55-_x2B_-Fill-5" transform="translate(0.000000, 3.000000)" sketch:type="MSShapeGroup">
		<path id="Oval-55" class="st11" d="M-168.7-1516.4c0.5,1,0.8,2.1,0.8,3.3c0,3.9-3.1,7-7,7s-7-3.1-7-7s3.1-7,7-7
			c1.1,0,2.2,0.3,3.2,0.8l-1.5,1.5c-0.6-0.2-1.2-0.3-1.8-0.3c-2.8,0-5,2.2-5,5s2.2,5,5,5s5-2.2,5-5c0-0.6-0.1-1.1-0.3-1.6
			L-168.7-1516.4z"/>
	</g>
	<path id="Shape" sketch:type="MSShapeGroup" class="st11" d="M-167-1516.7l-7.3,7.3l-1.4-1.4l7.3-7.3h-4.6v-2h8v1v7h-2V-1516.7z"/>
</g>
<path id="Imported-Layers-Copy-4" sketch:type="MSShapeGroup" class="st0" d="M-172-309.1l12-8l-12-8V-309.1z"/>
<g id="Oval-55-_x2B_-Fill-5-_x2B_-Shape-Copy" transform="translate(8.000000, 1227.000000)" sketch:type="MSLayerGroup">
	<g id="Oval-55-_x2B_-Fill-5_1_" transform="translate(0.000000, 3.000000)" sketch:type="MSShapeGroup">
		<path id="Oval-55_1_" class="st0" d="M-168.7-1516.4c0.5,1,0.8,2.1,0.8,3.3c0,3.9-3.1,7-7,7s-7-3.1-7-7s3.1-7,7-7
			c1.1,0,2.2,0.3,3.2,0.8l-1.5,1.5c-0.6-0.2-1.2-0.3-1.8-0.3c-2.8,0-5,2.2-5,5s2.2,5,5,5s5-2.2,5-5c0-0.6-0.1-1.1-0.3-1.6
			L-168.7-1516.4z"/>
	</g>
	<path id="Shape_1_" sketch:type="MSShapeGroup" class="st0" d="M-167-1516.7l-7.3,7.3l-1.4-1.4l7.3-7.3h-4.6v-2h8v1v7h-2V-1516.7z"
		/>
</g>
<path id="Imported-Layers-Copy-4_1_" sketch:type="MSShapeGroup" class="st0" d="M-173.2,196.6c-0.3,0-0.6,0-1,0
	c-0.6,0-1-0.5-0.9-1.1c0-0.5,0.4-0.9,0.9-0.9c-0.1-0.3,0-0.7,0.2-0.9c0.1-0.1,0.1-0.2,0.2-0.4c-0.6-0.3-1.1-0.8-1.6-1.2
	c-0.4-0.4-0.4-1-0.1-1.4c0.4-0.4,1-0.4,1.4-0.1c0.4,0.4,0.9,0.7,1.5,1.1c0.5,0.4,0.8,0.8,0.8,1.4v0.1c0,0.5-0.1,1-0.4,1.4
	c0.7-0.1,1.2-0.2,1.8-0.3c0.5-0.2,1.1,0.1,1.2,0.7c0.2,0.5-0.1,1.1-0.7,1.2C-170.9,196.5-171.9,196.6-173.2,196.6L-173.2,196.6z
	 M-164.8,195.5c-0.9,0-1.8-0.1-2.8-0.2c-0.5-0.1-0.9-0.6-0.9-1.1c0.1-0.5,0.6-1,1.1-0.9c1.4,0.2,2.6,0.2,3.7,0.1l0.2,1l0.1,1
	C-163.9,195.5-164.4,195.5-164.8,195.5L-164.8,195.5z M-160.5,194.8c-0.4,0-0.8-0.3-1-0.7c-0.2-0.5,0.1-1.1,0.6-1.3
	c1.2-0.4,2.3-1,3.1-1.7c0.4-0.4,1.1-0.3,1.4,0.1c0.4,0.4,0.3,1.1-0.1,1.4c-1.1,0.9-2.4,1.6-3.8,2.1
	C-160.3,194.8-160.4,194.8-160.5,194.8L-160.5,194.8z M-155.1,190.6c-0.2,0-0.3,0-0.5-0.1c-0.5-0.3-0.6-0.9-0.4-1.4
	c0.6-1,0.9-2.1,1-3.4c0-0.6,0.5-0.9,1.1-0.9s1,0.5,0.9,1.1c-0.1,1.5-0.5,2.9-1.2,4.2C-154.5,190.4-154.8,190.6-155.1,190.6
	L-155.1,190.6z M-176.6,189.9c-0.4,0-0.8-0.2-0.9-0.6c-0.3-0.8-0.5-1.6-0.5-2.5v-0.2c0-0.6,0.1-1.2,0.2-1.8c0.1-0.5,0.6-0.9,1.2-0.8
	c0.5,0.1,0.9,0.6,0.8,1.2c-0.1,0.5-0.1,0.9-0.1,1.4v0.2c0,0.6,0.1,1.2,0.4,1.7c0.2,0.5,0,1.1-0.5,1.3
	C-176.3,189.9-176.4,189.9-176.6,189.9L-176.6,189.9z M-154.3,183.8c-0.5,0-0.8-0.3-0.9-0.7V183c-0.3-1.2-0.7-2.2-1.4-3.1
	c-0.3-0.4-0.3-1.1,0.2-1.4c0.4-0.3,1.1-0.3,1.4,0.2c0.9,1.1,1.5,2.4,1.8,3.9c0.1,0.5-0.2,1.1-0.8,1.2
	C-154.1,183.8-154.2,183.8-154.3,183.8L-154.3,183.8z M-175.8,183.2c-0.2,0-0.3,0-0.5-0.1c-0.5-0.3-0.6-0.9-0.4-1.4
	c0.7-1.2,1.7-2.3,2.9-3.3c0.4-0.4,1.1-0.3,1.4,0.1c0.4,0.4,0.3,1.1-0.1,1.4c-1,0.8-1.8,1.7-2.4,2.7
	C-175.1,183-175.4,183.2-175.8,183.2L-175.8,183.2z M-170.6,178.6c-0.4,0-0.7-0.2-0.9-0.5c-0.3-0.5-0.1-1.1,0.4-1.3
	c1.3-0.7,2.6-1.1,4-1.5c0.7-0.2,1.4-0.3,2.2-0.3c0.6-0.1,1,0.4,1.1,0.9c0,0.6-0.4,1-0.9,1.1c-0.6,0.1-1.3,0.1-1.9,0.3
	c-1.2,0.3-2.4,0.7-3.5,1.3C-170.3,178.5-170.5,178.6-170.6,178.6L-170.6,178.6z M-158.1,178.3c-0.2,0-0.3,0-0.5-0.1
	c-1-0.6-2.1-1-3.4-1.1c-0.5-0.1-0.9-0.6-0.8-1.1c0.1-0.6,0.6-0.9,1.1-0.9c1.5,0.2,2.9,0.7,4.1,1.4c0.5,0.3,0.6,0.9,0.3,1.4
	C-157.4,178.1-157.8,178.3-158.1,178.3L-158.1,178.3z"/>
<path id="Fill-1_4_" sketch:type="MSShapeGroup" class="st0" d="M-168.9,282.8c-0.1-0.3-0.1-0.6-0.1-0.9c0-2.2,1.8-4,4-4
	c0.3,0,0.6,0,0.9,0.1l1.7-1.7c-0.8-0.3-1.7-0.4-2.6-0.4c-5,0-8.2,4.3-10,6c0.9,0.8,2,2.2,3.6,3.4L-168.9,282.8z M-158.6,278.5
	l-2.5,2.6c0.1,0.3,0.1,0.6,0.1,0.9c0,2.2-1.8,4-4,4c-0.3,0-0.6,0-0.9-0.1l-1.7,1.7c0.8,0.3,1.7,0.4,2.6,0.4c5,0,8.2-4.3,10-6
	C-155.9,281.1-157,279.7-158.6,278.5z M-158,273.9l-15,15l1,1l15-15L-158,273.9z"/>
<path id="Path-Copy-3" sketch:type="MSShapeGroup" class="st0" d="M-165-188.1v-2h2v-2h-2v-2l-4,3L-165-188.1z"/>
<path id="Imported-Layers-Copy-3_1_" sketch:type="MSShapeGroup" class="st11" d="M-173,635.9c-1.1,0-2,0.9-2,2v12c0,1.1,0.9,2,2,2
	h16c1.1,0,2-0.9,2-2v-12c0-1.1-0.9-2-2-2H-173z M-156.7,636.9l-7.9,8.9c-0.2,0.2-0.5,0.2-0.7,0l-7.9-8.9c0.1,0,0.2,0,0.3,0h16
	C-156.9,636.9-156.8,636.9-156.7,636.9z M-157,650.9h-16c-0.6,0-1-0.4-1-1v-12c0-0.1,0-0.2,0-0.3l7.9,8.9c0.3,0.3,0.7,0.4,1.1,0.4
	s0.8-0.1,1.1-0.4l7.9-8.9c0,0.1,0,0.2,0,0.3v12C-156,650.5-156.4,650.9-157,650.9z"/>
<path id="Fill-9-Copy-10" sketch:type="MSShapeGroup" class="st16" d="M-173,603.9c0,4.4,3.6,8,8,8s8-3.6,8-8s-3.6-8-8-8
	S-173,599.5-173,603.9L-173,603.9z M-170,602.9h10v2h-10V602.9z"/>
<path id="Imported-Layers-Copy-2_1_" sketch:type="MSShapeGroup" class="st11" d="M48.2,494.1L-56.7,321.8c-1.6-2.6-5.3-2.6-6.8,0
	l-104.9,172.3c-1.6,2.7,0.3,6.1,3.4,6.1H44.8C47.9,500.2,49.8,496.8,48.2,494.1L48.2,494.1z M-165,496.2l104.9-172.3L44.8,496.2
	H-165L-165,496.2z"/>
<g id="Fill-1-_x2B_-Fill-2-_x2B_-Fill-3-Copy" transform="translate(0.000000, 589.000000)" sketch:type="MSLayerGroup">
	<path id="Fill-1_6_" sketch:type="MSShapeGroup" class="st0" d="M-168.7,329.5v-0.2c0-0.8,0.6-1.2,1.2-1.2h0.2l3.1-3.2
		c-0.1,0-0.3,0-0.4,0c-2.4,0-4.6,0.6-6.9,1.3c-2.1,0.6-3,2.4-2.4,4.6c0.2,0.8,0.6,1.2,1.4,1.1l1.5-0.2L-168.7,329.5z"/>
	<path id="Fill-2_4_" sketch:type="MSShapeGroup" class="st0" d="M-158.9,325.8l-2.3,2.3c0.4,0.1,0.8,0.5,0.8,1.2
		c0,1.9,0.4,2.2,1.6,2.4c0.4,0.1,1.8,0.2,2.2,0.2c0.8,0.1,1.2-0.3,1.4-1.1c0.5-2.2-0.3-4-2.4-4.6C-158,326-158.4,325.9-158.9,325.8z
		"/>
	<path id="Fill-3_2_" sketch:type="MSShapeGroup" class="st0" d="M-156.3,320.2c-0.5-0.4-1.2-0.4-1.7,0l-14.7,14.7
		c-0.4,0.4-0.4,1.2,0,1.6c0.2,0.2,0.5,0.3,0.8,0.3s0.6-0.1,0.8-0.3l14.7-14.7C-155.9,321.4-155.9,320.7-156.3,320.2z"/>
</g>
<g id="Fill-1-_x2B_-Fill-2-Copy-2" transform="translate(1.000000, 530.000000)" sketch:type="MSLayerGroup">
	<path id="Fill-1_5_" sketch:type="MSShapeGroup" class="st0" d="M-169.3,331.2c-1.7-1.7-3-3.8-4.1-6c-1.1-2-0.5-3.9,1.5-5.1
		c0.7-0.4,1.3-0.4,1.8,0.2c0.2,0.3,1.2,1.4,1.4,1.8c0.8,1,0.8,1.6-0.6,2.9c-0.6,0.6-0.4,1.3,0,1.7l4.3,4.3c0.4,0.4,1.2,0.6,1.7,0
		c1.4-1.4,2-1.4,3-0.6c0.3,0.2,1.4,1.2,1.8,1.4c0.6,0.5,0.7,1.1,0.2,1.8c-1.2,2-3,2.6-5.1,1.5C-165.5,334.2-167.6,333-169.3,331.2"
		/>
	<path id="Fill-2_3_" sketch:type="MSShapeGroup" class="st0" d="M-160.8,325.1l-3.4,3.4l-2.5-2.5l3.4-3.4l-1.8-1.8h6v6
		L-160.8,325.1z"/>
</g>
<path id="Imported-Layers-5-Copy" sketch:type="MSShapeGroup" class="st0" d="M-164.5,805.9c2.4,0,4.6,0.6,6.9,1.3
	c2.1,0.6,3,2.4,2.4,4.6c-0.2,0.8-0.6,1.2-1.4,1.1c-0.4,0-1.8-0.2-2.2-0.2c-1.2-0.2-1.6-0.4-1.6-2.4c0-0.8-0.6-1.2-1.2-1.2h-5.9
	c-0.6,0-1.2,0.4-1.2,1.2c0,1.9-0.4,2.2-1.6,2.4c-0.4,0.1-1.8,0.2-2.2,0.2c-0.8,0.1-1.2-0.3-1.4-1.1c-0.5-2.2,0.3-4,2.4-4.6
	C-169.1,806.5-166.9,805.9-164.5,805.9"/>
<g id="reload-copy-7" transform="translate(1.000000, 235.000000)" sketch:type="MSLayerGroup">
	<path id="Fill-13" sketch:type="MSShapeGroup" class="st11" d="M-173.3,328c0.5,0.1,1-0.2,1.1-0.6c0.7-2.8,3.2-4.7,6-4.7
		c2.4,0,4.7,1.4,5.7,3.7l-1.7,0.9l3.8,1.4l1.4-3.8l-1.8,0.8c-1.3-2.9-4.2-4.7-7.3-4.7c-3.7,0-6.8,2.5-7.8,6
		C-174.1,327.4-173.8,327.8-173.3,328"/>
	<path id="Fill-14" sketch:type="MSShapeGroup" class="st11" d="M-159.9,330.5c-0.7,2.7-3.2,4.7-6,4.7c-2.4,0-4.7-1.4-5.7-3.7
		l1.7-0.9l-3.8-1.4l-1.4,3.8l1.8-0.8c1.3,2.9,4.2,4.7,7.3,4.7c3.7,0,6.8-2.5,7.7-6c0.1-0.5-0.2-1-0.6-1.1S-159.8,330-159.9,330.5z"
		/>
</g>
<path id="Imported-Layers-3-Copy" sketch:type="MSShapeGroup" class="st0" d="M-168.3,763.2c-1.7-1.7-3-3.8-4.1-6
	c-1.1-2-0.5-3.9,1.5-5.1c0.7-0.4,1.3-0.4,1.8,0.2c0.2,0.3,1.2,1.4,1.4,1.8c0.8,1,0.8,1.6-0.6,3c-0.6,0.6-0.4,1.3,0,1.7l4.3,4.3
	c0.4,0.4,1.2,0.6,1.7,0c1.4-1.4,2-1.4,2.9-0.6c0.3,0.2,1.4,1.2,1.8,1.4c0.6,0.5,0.7,1.1,0.2,1.8c-1.2,2-3,2.6-5.1,1.5
	C-164.5,766.2-166.6,765-168.3,763.2"/>
<path id="Fill-53-Copy-3" sketch:type="MSShapeGroup" class="st6" d="M-169.7,706.6c-0.9-0.9-1.5-1.9-2.1-3c-0.6-1-0.3-1.9,0.8-2.5
	c0.4-0.2,0.6-0.2,0.9,0.1c0.1,0.2,0.6,0.7,0.7,0.9c0.4,0.5,0.4,0.8-0.3,1.5c-0.3,0.3-0.2,0.6,0,0.9l2.2,2.2c0.2,0.2,0.6,0.3,0.9,0
	c0.7-0.7,1-0.7,1.5-0.3c0.2,0.1,0.7,0.6,0.9,0.7c0.3,0.3,0.3,0.6,0.1,0.9c-0.6,1-1.5,1.3-2.5,0.8
	C-167.8,708-168.8,707.4-169.7,706.6L-169.7,706.6z"/>
<path id="Fill-1_7_" sketch:type="MSShapeGroup" class="st11" d="M-173,984.9h14v9h-14V984.9z M-159,982.9h-14c-1.1,0-2,0.9-2,2v9
	c0,1.1,0.9,2,2,2h4v1l-4,1v1h14v-1l-4-1v-1h4c1.1,0,2-0.9,2-2v-9C-157,983.8-157.9,982.9-159,982.9L-159,982.9z M-158,993.9
	c0,0.6-0.4,1-1,1h-14c-0.6,0-1-0.4-1-1v-9c0-0.6,0.4-1,1-1h14c0.6,0,1,0.4,1,1V993.9L-158,993.9z"/>
<path class="st17" d="M-28.6,1124.3l-17.9-17.9c-0.3-0.3-0.4-0.9-0.1-1.3c2.9-4.1,4.6-9.2,4.5-14.6c-0.2-13.4-11-24.3-24.4-24.6
	c-14.2-0.3-25.7,11.3-25.4,25.4c0.3,13.4,11.2,24.3,24.6,24.4c5.4,0.1,10.5-1.6,14.6-4.5c0.4-0.3,0.9-0.2,1.3,0.1l17.9,17.9
	c0.8,0.8,2,0.8,2.8,0l2.2-2.2C-27.8,1126.4-27.8,1125.1-28.6,1124.3z M-67.1,1111.3c-11.3,0-20.4-9.2-20.4-20.4s9.2-20.4,20.4-20.4
	c11.3,0,20.4,9.2,20.4,20.4S-55.8,1111.3-67.1,1111.3z"/>
<path id="Fill-2-Copy-2" sketch:type="MSShapeGroup" class="st11" d="M-160.7,1174c-0.2-0.2-0.6-0.3-0.9-0.1l-0.9-0.9
	c0.8-1.1,1.3-2.5,1.3-4.1c0-3.8-3.1-6.9-6.9-6.9c-3.8,0-6.9,3.1-6.9,6.9s3.1,6.9,6.9,6.9c1.5,0,2.9-0.5,4.1-1.3l0.9,0.9
	c-0.1,0.3-0.1,0.6,0.1,0.9l3.5,3.5c0.3,0.3,0.8,0.3,1.1,0l1.2-1.2c0.3-0.3,0.3-0.8,0-1.1L-160.7,1174z M-173,1168.9c0-2.8,2.2-5,5-5
	s5,2.2,5,5s-2.2,5-5,5S-173,1171.7-173,1168.9L-173,1168.9z"/>
<path class="st11" d="M-166,1201.9c-5,0-9,4-9,9s4,9,9,9s9-4,9-9S-161,1201.9-166,1201.9z M-166,1215.9l-5-5l1-1l3,3v-7h2v7l3-3l1,1
	L-166,1215.9z"/>
<g id="Imported-Layers-5-Copy_1_" transform="translate(2.000000, 179.000000)" sketch:type="MSLayerGroup">
	<path id="Fill-1_9_" sketch:type="MSShapeGroup" class="st11" d="M-169.9,1073.8c1.4,1.4,4.4,1.5,5.9,0.1l2.9-2.9
		c1.6-1.6,1.5-4.2-0.1-5.9c-1.6-1.7-4.3-1.7-5.9-0.1l-2.3,2.3c0.8,0,1.7,0.1,2.5,0.5l1.2-1.2c0.8-0.8,2.1-0.8,2.9,0.1
		c0.8,0.8,0.8,2.1,0.1,2.9l-2.9,2.9c-0.8,0.8-2.4,0.5-3.4,0.5L-169.9,1073.8"/>
	<path id="Fill-2_6_" sketch:type="MSShapeGroup" class="st11" d="M-166.1,1070c-1.4-1.4-4.5-1.5-5.9-0.1l-2.9,2.9
		c-1.6,1.6-1.5,4.2,0.1,5.9c1.6,1.7,4.3,1.7,5.9,0.1l2.3-2.3c-0.8,0-1.7-0.1-2.5-0.5l-1.2,1.2c-0.8,0.8-2.1,0.8-2.9-0.1
		c-0.8-0.8-0.8-2.1-0.1-2.9l2.9-2.9c0.6-0.6,1.5-0.5,3.4-0.5l0,0L-166.1,1070"/>
</g>
<path id="Fill-2-Copy-3" sketch:type="MSShapeGroup" class="st0" d="M-160.7,1294c-0.2-0.2-0.6-0.3-0.9-0.1l-0.9-0.9
	c0.8-1.1,1.3-2.5,1.3-4.1c0-3.8-3.1-6.9-6.9-6.9c-3.8,0-6.9,3.1-6.9,6.9s3.1,6.9,6.9,6.9c1.5,0,2.9-0.5,4.1-1.3l0.9,0.9
	c-0.1,0.3-0.1,0.6,0.1,0.9l3.5,3.5c0.3,0.3,0.8,0.3,1.1,0l1.2-1.2c0.3-0.3,0.3-0.8,0-1.1L-160.7,1294z M-173,1288.9c0-2.8,2.2-5,5-5
	s5,2.2,5,5s-2.2,5-5,5S-173,1291.7-173,1288.9L-173,1288.9z"/>
<path class="st0" d="M-166,1321.9c-5,0-9,4-9,9s4,9,9,9s9-4,9-9S-161,1321.9-166,1321.9z M-166,1335.9l-5-5l1-1l3,3v-7h2v7l3-3l1,1
	L-166,1335.9z"/>
<g id="Imported-Layers-5-Copy-2" transform="translate(2.000000, 299.000000)" sketch:type="MSLayerGroup">
	<path id="Fill-1_8_" sketch:type="MSShapeGroup" class="st0" d="M-169.9,1073.8c1.4,1.4,4.4,1.5,5.9,0.1l2.9-2.9
		c1.6-1.6,1.5-4.2-0.1-5.9c-1.6-1.7-4.3-1.7-5.9-0.1l-2.3,2.3c0.8,0,1.7,0.1,2.5,0.5l1.2-1.2c0.8-0.8,2.1-0.8,2.9,0.1
		c0.8,0.8,0.8,2.1,0.1,2.9l-2.9,2.9c-0.8,0.8-2.4,0.5-3.4,0.5L-169.9,1073.8"/>
	<path id="Fill-2_5_" sketch:type="MSShapeGroup" class="st0" d="M-166.1,1070c-1.4-1.4-4.5-1.5-5.9-0.1l-2.9,2.9
		c-1.6,1.6-1.5,4.2,0.1,5.9c1.6,1.7,4.3,1.7,5.9,0.1l2.3-2.3c-0.8,0-1.7-0.1-2.5-0.5l-1.2,1.2c-0.8,0.8-2.1,0.8-2.9-0.1
		c-0.8-0.8-0.8-2.1-0.1-2.9l2.9-2.9c0.6-0.6,1.5-0.5,3.4-0.5l0,0L-166.1,1070"/>
</g>
<path class="st0" d="M-166-409.1c-5,0-9,4-9,9s4,9,9,9s9-4,9-9S-161-409.1-166-409.1z M-162-399.1l-3-3v7h-2v-7l-3,3l-1-1l5-5l5,5
	L-162-399.1z"/>
<path class="st4" d="M-166,1411.9c-5,0-9,4-9,9s4,9,9,9s9-4,9-9S-161,1411.9-166,1411.9z M-166,1425.9l-5-5l1-1l3,3v-7h2v7l3-3l1,1
	L-166,1425.9z"/>
<g id="Imported-Layers-5-Copy_2_" transform="translate(2.000000, 179.000000)" sketch:type="MSLayerGroup">
	<path id="Fill-1_10_" sketch:type="MSShapeGroup" class="st4" d="M-169.9,1283.8c1.4,1.4,4.4,1.5,5.9,0.1l2.9-2.9
		c1.6-1.6,1.5-4.2-0.1-5.9c-1.6-1.7-4.3-1.7-5.9-0.1l-2.3,2.3c0.8,0,1.7,0.1,2.5,0.5l1.2-1.2c0.8-0.8,2.1-0.8,2.9,0.1
		c0.8,0.8,0.8,2.1,0.1,2.9l-2.9,2.9c-0.8,0.8-2.4,0.5-3.4,0.5L-169.9,1283.8"/>
	<path id="Fill-2_7_" sketch:type="MSShapeGroup" class="st4" d="M-166.1,1280c-1.4-1.4-4.5-1.5-5.9-0.1l-2.9,2.9
		c-1.6,1.6-1.5,4.2,0.1,5.9c1.6,1.7,4.3,1.7,5.9,0.1l2.3-2.3c-0.8,0-1.7-0.1-2.5-0.5l-1.2,1.2c-0.8,0.8-2.1,0.8-2.9-0.1
		c-0.8-0.8-0.8-2.1-0.1-2.9l2.9-2.9c0.6-0.6,1.5-0.5,3.4-0.5l0,0L-166.1,1280"/>
</g>
<g id="ic_chat_1_" transform="translate(4.000000, 1744.000000)" sketch:type="MSLayerGroup">
	<path id="Fill-80_1_" sketch:type="MSShapeGroup" class="st17" d="M-161.1-156.3c-0.5-0.1-0.8-0.5-0.8-0.9c0-0.1,0.1-0.2,0.1-0.2
		c1-0.6,1.8-1.5,1.8-2.6c0.1-2.3-2.1-4.1-4.3-4.7c0.1,1.7-0.4,3.3-1.4,4.6c-0.9,1.1-2.2,1.9-3.7,2.4c0.8,0.7,1.9,1.2,3.1,1.2
		c0.7,0.1,1.5,0,2.2-0.1c0.8,0.6,2,0.7,2.9,0.6C-160.8-156.1-160.9-156.3-161.1-156.3"/>
	<path id="Fill-81_1_" sketch:type="MSShapeGroup" class="st0" d="M-165.9-165.9c-0.8-3.6-4.4-4.7-7.8-4c-3.2,0.7-6.4,3.1-6.3,6.4
		c0,1.5,1,2.7,2.4,3.5c0.1,0.1,0.2,0.2,0.2,0.3c0,0.6-0.5,1.1-1.1,1.2c-0.3,0.1-0.4,0.2,0,0.3c1.3,0.1,2.8,0,3.9-0.8
		c1,0.1,2,0.2,2.9,0.1C-167.7-159.1-165-162-165.9-165.9"/>
</g>
<path id="Fill-57-Copy-2" sketch:type="MSShapeGroup" class="st11" d="M-175,1620.9c0,5,4,9,9,9s9-4,9-9s-4-9-9-9
	S-175,1615.9-175,1620.9L-175,1620.9z M-167,1615.9h2v4h4v2h-4v4h-2v-4h-4v-2h4V1615.9L-167,1615.9z"/>
<path id="Fill-57-Copy-2_1_" sketch:type="MSShapeGroup" class="st0" d="M-175,1660.9c0,5,4,9,9,9s9-4,9-9s-4-9-9-9
	S-175,1655.9-175,1660.9L-175,1660.9z M-167,1655.9h2v4h4v2h-4v4h-2v-4h-4v-2h4V1655.9L-167,1655.9z"/>
<g id="ic_chat_2_" transform="translate(4.000000, 1744.000000)" sketch:type="MSLayerGroup">
	<path id="Fill-80_2_" sketch:type="MSShapeGroup" class="st18" d="M-161.1-236.3c-0.5-0.1-0.8-0.5-0.8-0.9c0-0.1,0.1-0.2,0.1-0.2
		c1-0.6,1.8-1.5,1.8-2.6c0.1-2.3-2.1-4.1-4.3-4.7c0.1,1.7-0.4,3.3-1.4,4.6c-0.9,1.1-2.2,1.9-3.7,2.4c0.8,0.7,1.9,1.2,3.1,1.2
		c0.7,0.1,1.5,0,2.2-0.1c0.8,0.6,2,0.7,2.9,0.6C-160.8-236.1-160.9-236.3-161.1-236.3"/>
	<path id="Fill-81_2_" sketch:type="MSShapeGroup" class="st4" d="M-165.9-245.9c-0.8-3.6-4.4-4.7-7.8-4c-3.2,0.7-6.4,3.1-6.3,6.4
		c0,1.5,1,2.7,2.4,3.5c0.1,0.1,0.2,0.2,0.2,0.3c0,0.6-0.5,1.1-1.1,1.2c-0.3,0.1-0.4,0.2,0,0.3c1.3,0.1,2.8,0,3.9-0.8
		c1,0.1,2,0.2,2.9,0.1C-167.7-239.1-165-242-165.9-245.9"/>
</g>
<g id="Imported-Layers-Copy_2_" transform="translate(42.000000, 4230.000000)" sketch:type="MSLayerGroup" class="st3">
	<g id="Imported-Layers_5_" sketch:type="MSShapeGroup">
		<path id="Fill-1_16_" class="st4" d="M-178-2547.1c4.4,0,8,3.6,8,8s-3.6,8-8,8s-8-3.6-8-8S-182.4-2547.1-178-2547.1 M-178-2549.1
			c-5.5,0-10,4.5-10,10s4.5,10,10,10s10-4.5,10-10S-172.5-2549.1-178-2549.1"/>
		<path id="Fill-2_9_" class="st5" d="M-173.2-2537.1c-0.5,2.3-2.5,4-4.9,4s-4.4-1.7-4.9-4H-173.2 M-172-2538.1h-12.2l0.2,1.2
			c0.6,2.8,3,4.8,5.9,4.8c2.8,0,5.3-2,5.9-4.8L-172-2538.1"/>
		<path id="Fill-3_4_" class="st4" d="M-173-2537.1c-0.5,2.3-2.5,4-5,4s-4.5-1.7-5-4H-173 M-184-2538.1v1.2c0.6,2.8,3.1,4.8,6,4.8
			s5.4-2,6-4.8v-1.2H-184"/>
		<path id="Fill-4_3_" class="st4" d="M-172-2540.6c0,0.8-0.7,1.5-1.5,1.5s-1.5-0.7-1.5-1.5s0.7-1.5,1.5-1.5S-172-2541.4-172-2540.6
			"/>
		<path id="Fill-5_3_" class="st4" d="M-181-2540.6c0,0.8-0.7,1.5-1.5,1.5s-1.5-0.7-1.5-1.5s0.7-1.5,1.5-1.5S-181-2541.4-181-2540.6
			"/>
		<path id="Fill-6_3_" class="st4" d="M-174-2534.1h-8l-1-2h10L-174-2534.1"/>
	</g>
</g>
<g id="Imported-Layers-Copy_1_" transform="translate(42.000000, 4280.000000)" sketch:type="MSLayerGroup">
	<g id="Imported-Layers_4_" sketch:type="MSShapeGroup">
		<path id="Fill-1_15_" class="st0" d="M-178-2567.1c4.4,0,8,3.6,8,8s-3.6,8-8,8s-8-3.6-8-8S-182.4-2567.1-178-2567.1 M-178-2569.1
			c-5.5,0-10,4.5-10,10s4.5,10,10,10s10-4.5,10-10S-172.5-2569.1-178-2569.1"/>
		<path id="Fill-2_8_" class="st5" d="M-173.2-2557.1c-0.5,2.3-2.5,4-4.9,4s-4.4-1.7-4.9-4H-173.2 M-172-2558.1h-12.2l0.2,1.2
			c0.6,2.8,3,4.8,5.9,4.8c2.8,0,5.3-2,5.9-4.8L-172-2558.1"/>
		<path id="Fill-3_3_" class="st0" d="M-173-2557.1c-0.5,2.3-2.5,4-5,4s-4.5-1.7-5-4H-173 M-184-2558.1v1.2c0.6,2.8,3.1,4.8,6,4.8
			s5.4-2,6-4.8v-1.2H-184"/>
		<path id="Fill-4_2_" class="st0" d="M-172-2560.6c0,0.8-0.7,1.5-1.5,1.5s-1.5-0.7-1.5-1.5s0.7-1.5,1.5-1.5S-172-2561.4-172-2560.6
			"/>
		<path id="Fill-5_2_" class="st0" d="M-181-2560.6c0,0.8-0.7,1.5-1.5,1.5s-1.5-0.7-1.5-1.5s0.7-1.5,1.5-1.5S-181-2561.4-181-2560.6
			"/>
		<path id="Fill-6_2_" class="st0" d="M-174-2554.1h-8l-1-2h10L-174-2554.1"/>
	</g>
</g>
<path id="Fill-1_14_" sketch:type="MSShapeGroup" class="st0" d="M-165,1719.9v-3h-2v3c0,1.1,0.9,2,2,2h5v-2H-165 M-166,1710.9
	c-5.5,0-10,4.5-10,10s4.5,10,10,10s10-4.5,10-10S-160.5,1710.9-166,1710.9L-166,1710.9z M-166,1728.9c-4.4,0-8-3.6-8-8s3.6-8,8-8
	s8,3.6,8,8S-161.6,1728.9-166,1728.9L-166,1728.9z"/>
<path id="Fill-1_13_" sketch:type="MSShapeGroup" class="st0" d="M-106,1715.9c-2.8,0-5,2.2-5,5s2.2,5,5,5s5-2.2,5-5
	S-103.2,1715.9-106,1715.9L-106,1715.9z M-106,1723.9c-1.7,0-3-1.3-3-3s1.3-3,3-3s3,1.3,3,3S-104.3,1723.9-106,1723.9z M-113,1720.9
	c0-0.3,0-0.7,0.1-1h-4.1v2h4.1C-113,1721.6-113,1721.2-113,1720.9z M-105,1714v-4.1h-2v4.1c0.3,0,0.7-0.1,1-0.1
	S-105.3,1713.9-105,1714z M-99.1,1719.9c0,0.3,0.1,0.7,0.1,1s0,0.7-0.1,1h4.1v-2H-99.1z M-107,1727.8v4.1h2v-4.1
	c-0.3,0-0.7,0.1-1,0.1S-106.7,1727.9-107,1727.8z M-111.6,1725.1l-2.9,2.9l1.4,1.4l2.9-2.9c-0.3-0.2-0.5-0.4-0.8-0.7
	C-111.2,1725.6-111.4,1725.4-111.6,1725.1z M-110.9,1715.9c0.2-0.2,0.5-0.5,0.8-0.7l-2.9-2.9l-1.4,1.4l2.9,2.9
	C-111.4,1716.4-111.2,1716.2-110.9,1715.9z M-100.4,1716.7l2.9-2.9l-1.4-1.4l-2.9,2.9c0.3,0.2,0.5,0.4,0.8,0.7
	C-100.8,1716.2-100.6,1716.4-100.4,1716.7z M-101.1,1725.8c-0.2,0.2-0.5,0.5-0.8,0.7l2.9,2.9l1.4-1.4l-2.9-2.9
	C-100.6,1725.4-100.8,1725.6-101.1,1725.8z"/>
<path id="Fill-10" sketch:type="MSShapeGroup" class="st0" d="M-80,1714.9l4,4l4-4H-80 M-65,1711.9h-22l10,10v6c0,0.6-0.4,1-1,1h-3
	v1h10v-1h-3c-0.6,0-1-0.4-1-1v-6L-65,1711.9L-65,1711.9z M-84,1712.9h16l-7,7h-2L-84,1712.9L-84,1712.9z"/>
<path id="Fill-12" sketch:type="MSShapeGroup" class="st0" d="M-55,1722.9h8v8h-8V1722.9z M-56,1717.9h9v4h-9V1717.9z M-45,1717.9h9
	v4h-9V1717.9z M-45,1722.9h8v8h-8V1722.9z M-50,1710.9c-1.7,0-3,1.3-3,3s1.3,3,3,3h3v-3C-47,1712.2-48.3,1710.9-50,1710.9z
	 M-48,1715.9h-1.5c-0.8,0-1.5-0.7-1.5-1.5s0.7-1.5,1.5-1.5s1.5,0.7,1.5,1.5V1715.9z M-39,1713.9c0-1.7-1.3-3-3-3s-3,1.3-3,3v3h3
	C-40.3,1716.9-39,1715.6-39,1713.9z M-44,1715.9v-1.5c0-0.8,0.7-1.5,1.5-1.5s1.5,0.7,1.5,1.5s-0.7,1.5-1.5,1.5H-44L-44,1715.9z"/>
<path id="Fill-18" sketch:type="MSShapeGroup" class="st0" d="M-18.6,1719.9c0-1,0.6-1.7,1.5-2.1l0,0c-0.9-0.4-1.2-1.1-1.2-1.8
	c0-1.2,1-2.1,2.4-2.1c1.5,0,2.3,0.9,2.3,1.9c0,0.7-0.3,1.4-1.3,1.8l0,0c1,0.4,1.6,1.1,1.6,2c0,1.4-1.2,2.3-2.7,2.3
	C-17.6,1722-18.6,1721.1-18.6,1719.9L-18.6,1719.9z M-17.3,1716c0,0.8,0.6,1.2,1.5,1.4c0.7-0.2,1.2-0.7,1.2-1.4
	c0-0.6-0.4-1.3-1.3-1.3C-16.8,1714.7-17.3,1715.3-17.3,1716L-17.3,1716z M-14.4,1719.9c0-0.9-0.7-1.4-1.7-1.7
	c-0.9,0.3-1.4,0.9-1.4,1.6c0,0.8,0.6,1.5,1.6,1.5C-15,1721.3-14.4,1720.7-14.4,1719.9L-14.4,1719.9z M-16,1710.9
	c-5.5,0-10,4.5-10,10s4.5,10,10,10s10-4.5,10-10S-10.5,1710.9-16,1710.9L-16,1710.9z M-16,1722.9c-2.8,0-5-2.2-5-5s2.2-5,5-5
	s5,2.2,5,5S-13.2,1722.9-16,1722.9L-16,1722.9z"/>
<path id="Fill-20" sketch:type="MSShapeGroup" class="st0" d="M14,1710.9c-5.5,0-10,4.5-10,10s4.5,10,10,10s10-4.5,10-10
	S19.5,1710.9,14,1710.9z M15.6,1715.8h0.2l-0.1,0.2H16l-0.1,0.2l0.5,0.5h0.2v0.3l-0.5,0.1l-0.3,0.1l0.2-0.3h0.1v-0.1h-0.3v-0.2H16
	v-0.2h-0.2l-0.2-0.3V1715.8L15.6,1715.8z M15.2,1716.5h0.2v-0.1h0.3l0.1,0.1l-0.1,0.1l0.1,0.1l-0.4,0.2l-0.1-0.1l0.1-0.2
	L15.2,1716.5L15.2,1716.5L15.2,1716.5z M11.9,1712.8l0.2-0.1l0.5,0.1l-0.2,0.1l-0.1,0.1l-0.4,0.1h-0.2h-0.2v0.1l-0.2,0.2l-0.4-0.1
	v-0.1h0.2l0.2-0.2l0.4-0.1h-0.2v-0.1H11.9L11.9,1712.8z M11,1712.9l0.4-0.1l-0.3,0.2l-0.3,0.1L11,1712.9L11,1712.9z M10.7,1713.2
	v0.2l0.2,0.1l-0.2,0.1l-0.3-0.1L10.7,1713.2L10.7,1713.2z M10.3,1713.4l-0.1,0.2h0.4l-0.2,0.3l-0.5-0.2L10.3,1713.4L10.3,1713.4z
	 M9.5,1714l0.4-0.2l0.2,0.1l-0.1,0.3l0.2-0.1l0.2,0.2l0.2,0.4l-0.2,0.2l0.2,0.2l0.1,0.2l-0.4,0.3l-0.1-0.3l-0.2,0.1l0.1,0.4L10,1716
	l-0.1-0.2H9.7l0.1,0.2v0.2l-0.3-0.2l-0.1-0.3H9.1l0.2-0.1h0.6v-0.2l0.1-0.2l-0.2-0.6l-0.3,0.2l-0.3-0.2L9.5,1714L9.5,1714z
	 M8.4,1714.1c0.3-0.2,0.5-0.4,0.8-0.6l-0.2,0.2h0.2l-0.4,0.3l-0.1,0.2l-0.2,0.1L8.4,1714.1L8.4,1714.1L8.4,1714.1z M12.2,1726.8
	l-0.1,0.2H12l0.1,0.5l-0.1,0.4h-0.3l-0.4,0.2l0.1,0.2l-0.1,0.5H11l0.2,0.1v0.1H11v0.2l0.2,0.1l0.2,0.2l0.5,0.2
	c-0.3-0.1-0.5-0.1-0.8-0.2l-0.3-0.2l-0.6-0.5l-0.9-1l-0.5-0.7l-0.5-0.3l-1.1-1.2v-0.2l-0.1-0.1l0.1-0.5l-0.2-0.6v-0.4v-0.1v-0.1
	v-0.1v0.1l-0.1-0.1H6.8l-0.2-0.3l-0.1-0.2l-0.3-0.3l-0.5-0.5H5.6l-0.3-0.4l-0.1-1.1l0,0c0-2.6,1.2-5,3-6.6l-0.1,0.1l0.1,0.1l0.1-0.1
	l0.2,0.2l0.3-0.1l0.2-0.2v-0.2l0.4-0.2l-0.2,0.3l-0.1,0.1l-0.1,0.2v0.2l0.4-0.3v-0.1l0.2,0.2l-0.4,0.3H8.9l-0.2,0.2l-0.3,0.2
	l-0.2,0.1l-0.2,0.2l-0.5,0.4l0.1,0.2l-0.2,0.2l0.2,0.1l0.1,0.3l0.2,0.1l-0.2,0.5l0.1,0.2l0.2-0.1l0.1-0.4l0.3-0.1l0.2-0.2v-0.2
	l0.2-0.2l0.2-0.4h0.1h0.1l0.2,0.1l0.1,0.2h0.1l-0.1,0.4l0.1,0.1l0.2-0.1l0.2-0.2l0.2,0.5l-0.1,0.1l0.2,0.2l0.3,0.1l-0.4,0.2h0.3
	l0.2,0.1v0.2l-0.3,0.1l-0.2,0.2l-0.9-0.1l-0.6,0.5l0.5-0.2h0.2l-0.2,0.1l0.1,0.3l0.4,0.2l-0.6,0.3l0.2-0.3c-0.1,0-0.6,0.2-0.6,0.2
	l-0.2,0.2l-0.1,0.2l-0.4,0.1v0.2l0,0l0.1,0.2v0.3l-0.4,0.2l-0.5,0.3l-0.2,0.3v0.6l-0.3-0.4v-0.3l-0.2-0.1l-0.4-0.2v0.2l-0.3-0.1
	l-0.2,0.2l-0.1,0.8l0.2,0.6l0.1,0.2l0.2-0.1v-0.3h0.3l-0.1,0.7l0.4,0.1l0.1,0.7l0.3,0.3h0.2l0.2,0.2l0.1,0.4h0.1v-0.2h0.1l0.5,0.2
	h0.3l0.3,0.2l-0.1,0.1H9l0.3,0.3l0.5,0.1l0.5,0.6l-0.2,0.3l0.4,0.1l0.2-0.2l0.4,0.2v0.1l0.2-0.1l0.2,0.1h0.3l0.3,0.3l0.2,0.1
	l0.2,0.3L12.2,1726.8L12.2,1726.8z M8.9,1715.2v0.3H8.7l-0.2-0.1l0.2-0.2L8.9,1715.2L8.9,1715.2z M10.6,1718.1l-0.2,0.2l-0.6-0.1
	l0.5-0.5L10.6,1718.1L10.6,1718.1z M8.6,1722.7H8.4v-0.1L8.6,1722.7L8.6,1722.7L8.6,1722.7z M8.2,1722.6H7.8l-0.1-0.2H8L8.2,1722.6
	L8.2,1722.6z M7.6,1722.2H7.2l-0.5-0.4l-0.2,0.1v-0.1h0.2L7.6,1722.2L7.6,1722.2z M13.8,1713.9h0.3l-0.1,0.2l-0.3,0.3h-0.1l-0.1,0.3
	l-0.3,0.2l-0.1-0.1l-0.3,0.3l0.1,0.1l-0.3,0.3v0.2l-0.1,0.3l-0.3,0.1l-0.1-0.2l-0.3,0.1l-0.3-0.3l-0.1-0.4h0.2l-0.1-0.1l-0.1,0.1
	v-0.3l0.2-0.1l0.3-0.5v-0.3l-0.2,0.1l0.2-0.2l0.2-0.5l-0.2-0.1l0.1-0.1l0.2-0.1l0.4-0.2l0.3-0.2l0.4,0.1l0.3,0.1h0.3l-0.1,0.1
	l0.2,0.2v0.2h-0.2l0.2,0.1h0.2l0.1,0.1h-0.4L13.8,1713.9L13.8,1713.9z M11.5,1714.3l0.2-0.1v0.2L11.5,1714.3L11.5,1714.3
	L11.5,1714.3z M22.6,1721.1l-0.4,0.7l-0.1-0.1l-0.2-0.8l-0.6-1v-0.2l-0.1,0.1l-0.2-0.2l0.4,0.8l0.4,1.1l0.2,0.2l0.1,0.4l0.4-0.3
	l-0.2,0.8l-0.4,0.8l-0.6,1l-0.1,0.6l-0.2,0.6l-0.7,0.5v0.1l-0.1,0.4l-0.3,0.2v0.2l-1.2,0.8l-0.6,0.1l-0.1-0.1l0.2-0.3l-0.1-0.5
	l0.1-0.4l-0.1-0.5l0.6-0.5l0.3-0.5v-0.3l-0.7-0.6l0.1-0.2v-0.4l-0.2-0.2l-0.5,0.1v-0.2l-0.2-0.1l-0.6,0.3h-0.4l-0.7,0.2l-0.8-0.5
	v-0.2l-0.3-0.3h-0.1l-0.2-0.4l0.1-0.2l0.1-0.6l-0.1-0.2l0.5-1l0.1-0.2v-0.2l0.8-0.6h0.6l0.6-0.2l1.2-0.2l0.2,0.2l-0.1,0.4h0.5
	l0.8,0.4l0.1-0.4l1,0.1l0.5-0.1l-0.1-0.8l-0.3,0.1l-0.2-0.1v0.2l-0.4-0.3l-0.1-0.4H20l-0.2,0.1l0.1,0.2l0.2,0.2l-0.1,0.2h-0.2
	l-0.1-0.3l-0.2-0.2v-0.2L19,1718l-0.3-0.2v-0.1l-0.2,0.1v0.1l0.4,0.4h0.2l0.1,0.2l0.3,0.1v0.1l-0.1-0.1h-0.1l0.1,0.2l-0.2,0.2v0.2
	l-0.3-0.2h0.3l0.1-0.1l-0.1-0.2l-0.6-0.2l-0.3-0.3h-0.2l-0.1,0.2h-0.2l-0.1-0.1h-0.1v0.2l-0.2,0.1l-0.2,0.3l0,0l-0.2,0.3h-0.7
	l-0.3,0.2l-0.2-0.1h-0.2v-0.2h-0.1l-0.1-0.1l0.1-0.2v-0.2l-0.1-0.1h0.1l0.1-0.1h0.8l0.1-0.3l-0.2-0.3H16v-0.2l0.3-0.1v-0.3h0.2
	l0.3-0.1l0.2-0.3l0.4-0.2l-0.2-0.2l0.2-0.1v0.1l0.1,0.3h0.2H18l0.2-0.2h0.3l0.1-0.1l-0.1-0.2h0.1h0.1v-0.2l-0.2-0.4l0.2-0.4h0.1
	l0.1,0.1l-0.3,0.1l-0.2,0.3l-0.4-0.4l0.1-0.4l-0.3-0.1v0.1l0.2,0.2l-0.2,0.3l0.1,0.2l0.2,0.1v0.2H18l0.1,0.2l-0.1,0.2l-0.2,0.1
	l-0.1-0.2l-0.3-0.3l-0.2,0.2l-0.3-0.1l-0.2-0.5l0.3-0.3l0.1-0.3l0.1-0.6l0.4-0.3l0.6,0.2l0.5,0.1l0.3,0.2l-0.1,0.1l-0.3-0.1l0.2,0.3
	l0.4,0.3h-0.1h0.2l-0.1-0.4l0.1-0.2l-0.1-0.4l0.1-0.1l-0.1-0.2l0.1-0.1v-0.1c2.2,1.4,3.7,3.7,4.1,6.4h-0.2l-0.1-0.2l-0.1,0.1
	l-0.3-0.4l-0.1,0.1l0.5,0.8l0.4-0.1v-0.3v0.3L22.6,1721.1L22.6,1721.1z"/>
<path id="Fill-23" sketch:type="MSShapeGroup" class="st0" d="M38.5,1710.9c-2.5,0-4.5,2-4.5,4.5s2,4.5,4.5,4.5s4.5-2,4.5-4.5
	S41,1710.9,38.5,1710.9L38.5,1710.9z M38.5,1717.9c-1.4,0-2.5-1.1-2.5-2.5s1.1-2.5,2.5-2.5s2.5,1.1,2.5,2.5S39.9,1717.9,38.5,1717.9
	z M49.5,1721.9c-2.5,0-4.5,2-4.5,4.5s2,4.5,4.5,4.5s4.5-2,4.5-4.5S52,1721.9,49.5,1721.9z M49.5,1728.9c-1.4,0-2.5-1.1-2.5-2.5
	s1.1-2.5,2.5-2.5s2.5,1.1,2.5,2.5S50.9,1728.9,49.5,1728.9z M35.7,1730.6l18-18c0.4-0.4,0.4-1,0-1.4s-1-0.4-1.4,0l-18,18
	c-0.4,0.4-0.4,1,0,1.4S35.3,1731,35.7,1730.6z"/>
<path id="Fill-1_12_" sketch:type="MSShapeGroup" class="st19" d="M-165,1689.9v-3h-2v3c0,1.1,0.9,2,2,2h5v-2H-165 M-166,1680.9
	c-5.5,0-10,4.5-10,10s4.5,10,10,10s10-4.5,10-10S-160.5,1680.9-166,1680.9L-166,1680.9z M-166,1698.9c-4.4,0-8-3.6-8-8s3.6-8,8-8
	s8,3.6,8,8S-161.6,1698.9-166,1698.9L-166,1698.9z"/>
<path id="Fill-1_11_" sketch:type="MSShapeGroup" class="st19" d="M-106,1685.9c-2.8,0-5,2.2-5,5s2.2,5,5,5s5-2.2,5-5
	S-103.2,1685.9-106,1685.9L-106,1685.9z M-106,1693.9c-1.7,0-3-1.3-3-3s1.3-3,3-3s3,1.3,3,3S-104.3,1693.9-106,1693.9z M-113,1690.9
	c0-0.3,0-0.7,0.1-1h-4.1v2h4.1C-113,1691.6-113,1691.2-113,1690.9z M-105,1684v-4.1h-2v4.1c0.3,0,0.7-0.1,1-0.1
	S-105.3,1683.9-105,1684z M-99.1,1689.9c0,0.3,0.1,0.7,0.1,1s0,0.7-0.1,1h4.1v-2H-99.1z M-107,1697.8v4.1h2v-4.1
	c-0.3,0-0.7,0.1-1,0.1S-106.7,1697.9-107,1697.8z M-111.6,1695.1l-2.9,2.9l1.4,1.4l2.9-2.9c-0.3-0.2-0.5-0.4-0.8-0.7
	C-111.2,1695.6-111.4,1695.4-111.6,1695.1z M-110.9,1685.9c0.2-0.2,0.5-0.5,0.8-0.7l-2.9-2.9l-1.4,1.4l2.9,2.9
	C-111.4,1686.4-111.2,1686.2-110.9,1685.9z M-100.4,1686.7l2.9-2.9l-1.4-1.4l-2.9,2.9c0.3,0.2,0.5,0.4,0.8,0.7
	C-100.8,1686.2-100.6,1686.4-100.4,1686.7z M-101.1,1695.8c-0.2,0.2-0.5,0.5-0.8,0.7l2.9,2.9l1.4-1.4l-2.9-2.9
	C-100.6,1695.4-100.8,1695.6-101.1,1695.8z"/>
<path id="Fill-10_1_" sketch:type="MSShapeGroup" class="st19" d="M-80,1684.9l4,4l4-4H-80 M-65,1681.9h-22l10,10v6c0,0.6-0.4,1-1,1
	h-3v1h10v-1h-3c-0.6,0-1-0.4-1-1v-6L-65,1681.9L-65,1681.9z M-84,1682.9h16l-7,7h-2L-84,1682.9L-84,1682.9z"/>
<path id="Fill-12_1_" sketch:type="MSShapeGroup" class="st19" d="M-55,1692.9h8v8h-8V1692.9z M-56,1687.9h9v4h-9V1687.9z
	 M-45,1687.9h9v4h-9V1687.9z M-45,1692.9h8v8h-8V1692.9z M-50,1680.9c-1.7,0-3,1.3-3,3s1.3,3,3,3h3v-3
	C-47,1682.2-48.3,1680.9-50,1680.9z M-48,1685.9h-1.5c-0.8,0-1.5-0.7-1.5-1.5s0.7-1.5,1.5-1.5s1.5,0.7,1.5,1.5V1685.9z M-39,1683.9
	c0-1.7-1.3-3-3-3s-3,1.3-3,3v3h3C-40.3,1686.9-39,1685.6-39,1683.9z M-44,1685.9v-1.5c0-0.8,0.7-1.5,1.5-1.5s1.5,0.7,1.5,1.5
	s-0.7,1.5-1.5,1.5H-44L-44,1685.9z"/>
<path id="Fill-18_1_" sketch:type="MSShapeGroup" class="st19" d="M-18.6,1689.9c0-1,0.6-1.7,1.5-2.1l0,0c-0.9-0.4-1.2-1.1-1.2-1.8
	c0-1.2,1-2.1,2.4-2.1c1.5,0,2.3,0.9,2.3,1.9c0,0.7-0.3,1.4-1.3,1.8l0,0c1,0.4,1.6,1.1,1.6,2c0,1.4-1.2,2.3-2.7,2.3
	C-17.6,1692-18.6,1691.1-18.6,1689.9L-18.6,1689.9z M-17.3,1686c0,0.8,0.6,1.2,1.5,1.4c0.7-0.2,1.2-0.7,1.2-1.4
	c0-0.6-0.4-1.3-1.3-1.3C-16.8,1684.7-17.3,1685.3-17.3,1686L-17.3,1686z M-14.4,1689.9c0-0.9-0.7-1.4-1.7-1.7
	c-0.9,0.3-1.4,0.9-1.4,1.6c0,0.8,0.6,1.5,1.6,1.5C-15,1691.3-14.4,1690.7-14.4,1689.9L-14.4,1689.9z M-16,1680.9
	c-5.5,0-10,4.5-10,10s4.5,10,10,10s10-4.5,10-10S-10.5,1680.9-16,1680.9L-16,1680.9z M-16,1692.9c-2.8,0-5-2.2-5-5s2.2-5,5-5
	s5,2.2,5,5S-13.2,1692.9-16,1692.9L-16,1692.9z"/>
<path id="Fill-20_1_" sketch:type="MSShapeGroup" class="st19" d="M14,1680.9c-5.5,0-10,4.5-10,10s4.5,10,10,10s10-4.5,10-10
	S19.5,1680.9,14,1680.9z M15.6,1685.8h0.2l-0.1,0.2H16l-0.1,0.2l0.5,0.5h0.2v0.3l-0.5,0.1l-0.3,0.1l0.2-0.3h0.1v-0.1h-0.3v-0.2H16
	v-0.2h-0.2l-0.2-0.3V1685.8L15.6,1685.8z M15.2,1686.5h0.2v-0.1h0.3l0.1,0.1l-0.1,0.1l0.1,0.1l-0.4,0.2l-0.1-0.1l0.1-0.2
	L15.2,1686.5L15.2,1686.5L15.2,1686.5z M11.9,1682.8l0.2-0.1l0.5,0.1l-0.2,0.1l-0.1,0.1l-0.4,0.1h-0.2h-0.2v0.1l-0.2,0.2l-0.4-0.1
	v-0.1h0.2l0.2-0.2l0.4-0.1h-0.2v-0.1H11.9L11.9,1682.8z M11,1682.9l0.4-0.1l-0.3,0.2l-0.3,0.1L11,1682.9L11,1682.9z M10.7,1683.2
	v0.2l0.2,0.1l-0.2,0.1l-0.3-0.1L10.7,1683.2L10.7,1683.2z M10.3,1683.4l-0.1,0.2h0.4l-0.2,0.3l-0.5-0.2L10.3,1683.4L10.3,1683.4z
	 M9.5,1684l0.4-0.2l0.2,0.1l-0.1,0.3l0.2-0.1l0.2,0.2l0.2,0.4l-0.2,0.2l0.2,0.2l0.1,0.2l-0.4,0.3l-0.1-0.3l-0.2,0.1l0.1,0.4L10,1686
	l-0.1-0.2H9.7l0.1,0.2v0.2l-0.3-0.2l-0.1-0.3H9.1l0.2-0.1h0.6v-0.2l0.1-0.2l-0.2-0.6l-0.3,0.2l-0.3-0.2L9.5,1684L9.5,1684z
	 M8.4,1684.1c0.3-0.2,0.5-0.4,0.8-0.6l-0.2,0.2h0.2l-0.4,0.3l-0.1,0.2l-0.2,0.1L8.4,1684.1L8.4,1684.1L8.4,1684.1z M12.2,1696.8
	l-0.1,0.2H12l0.1,0.5l-0.1,0.4h-0.3l-0.4,0.2l0.1,0.2l-0.1,0.5H11l0.2,0.1v0.1H11v0.2l0.2,0.1l0.2,0.2l0.5,0.2
	c-0.3-0.1-0.5-0.1-0.8-0.2l-0.3-0.2l-0.6-0.5l-0.9-1l-0.5-0.7l-0.5-0.3l-1.1-1.2v-0.2l-0.1-0.1l0.1-0.5l-0.2-0.6v-0.4v-0.1v-0.1
	v-0.1v0.1l-0.1-0.1H6.8l-0.2-0.3l-0.1-0.2l-0.3-0.3l-0.5-0.5H5.6l-0.3-0.4l-0.1-1.1l0,0c0-2.6,1.2-5,3-6.6l-0.1,0.1l0.1,0.1l0.1-0.1
	l0.2,0.2l0.3-0.1l0.2-0.2v-0.2l0.4-0.2l-0.2,0.3l-0.1,0.1l-0.1,0.2v0.2l0.4-0.3v-0.1l0.2,0.2l-0.4,0.3H8.9l-0.2,0.2l-0.3,0.2
	l-0.2,0.1l-0.2,0.2l-0.5,0.4l0.1,0.2l-0.2,0.2l0.2,0.1l0.1,0.3l0.2,0.1l-0.2,0.5l0.1,0.2l0.2-0.1l0.1-0.4l0.3-0.1l0.2-0.2v-0.2
	l0.2-0.2l0.2-0.4h0.1h0.1l0.2,0.1l0.1,0.2h0.1l-0.1,0.4l0.1,0.1l0.2-0.1l0.2-0.2l0.2,0.5l-0.1,0.1l0.2,0.2l0.3,0.1l-0.4,0.2h0.3
	l0.2,0.1v0.2l-0.3,0.1l-0.2,0.2l-0.9-0.1l-0.6,0.5l0.5-0.2h0.2l-0.2,0.1l0.1,0.3l0.4,0.2l-0.6,0.3l0.2-0.3c-0.1,0-0.6,0.2-0.6,0.2
	l-0.2,0.2l-0.1,0.2l-0.4,0.1v0.2l0,0l0.1,0.2v0.3l-0.4,0.2l-0.5,0.3l-0.2,0.3v0.6l-0.3-0.4v-0.3l-0.2-0.1l-0.4-0.2v0.2l-0.3-0.1
	l-0.2,0.2l-0.1,0.8l0.2,0.6l0.1,0.2l0.2-0.1v-0.3h0.3l-0.1,0.7l0.4,0.1l0.1,0.7l0.3,0.3h0.2l0.2,0.2l0.1,0.4h0.1v-0.2h0.1l0.5,0.2
	h0.3l0.3,0.2l-0.1,0.1H9l0.3,0.3l0.5,0.1l0.5,0.6l-0.2,0.3l0.4,0.1l0.2-0.2l0.4,0.2v0.1l0.2-0.1l0.2,0.1h0.3l0.3,0.3l0.2,0.1
	l0.2,0.3L12.2,1696.8L12.2,1696.8z M8.9,1685.2v0.3H8.7l-0.2-0.1l0.2-0.2L8.9,1685.2L8.9,1685.2z M10.6,1688.1l-0.2,0.2l-0.6-0.1
	l0.5-0.5L10.6,1688.1L10.6,1688.1z M8.6,1692.7H8.4v-0.1L8.6,1692.7L8.6,1692.7L8.6,1692.7z M8.2,1692.6H7.8l-0.1-0.2H8L8.2,1692.6
	L8.2,1692.6z M7.6,1692.2H7.2l-0.5-0.4l-0.2,0.1v-0.1h0.2L7.6,1692.2L7.6,1692.2z M13.8,1683.9h0.3l-0.1,0.2l-0.3,0.3h-0.1l-0.1,0.3
	l-0.3,0.2l-0.1-0.1l-0.3,0.3l0.1,0.1l-0.3,0.3v0.2l-0.1,0.3l-0.3,0.1l-0.1-0.2l-0.3,0.1l-0.3-0.3l-0.1-0.4h0.2l-0.1-0.1l-0.1,0.1
	v-0.3l0.2-0.1l0.3-0.5v-0.3l-0.2,0.1l0.2-0.2l0.2-0.5l-0.2-0.1l0.1-0.1l0.2-0.1l0.4-0.2l0.3-0.2l0.4,0.1l0.3,0.1h0.3l-0.1,0.1
	l0.2,0.2v0.2h-0.2l0.2,0.1h0.2l0.1,0.1h-0.4L13.8,1683.9L13.8,1683.9z M11.5,1684.3l0.2-0.1v0.2L11.5,1684.3L11.5,1684.3
	L11.5,1684.3z M22.6,1691.1l-0.4,0.7l-0.1-0.1l-0.2-0.8l-0.6-1v-0.2l-0.1,0.1l-0.2-0.2l0.4,0.8l0.4,1.1l0.2,0.2l0.1,0.4l0.4-0.3
	l-0.2,0.8l-0.4,0.8l-0.6,1l-0.1,0.6l-0.2,0.6l-0.7,0.5v0.1l-0.1,0.4l-0.3,0.2v0.2l-1.2,0.8l-0.6,0.1l-0.1-0.1l0.2-0.3l-0.1-0.5
	l0.1-0.4l-0.1-0.5l0.6-0.5l0.3-0.5v-0.3l-0.7-0.6l0.1-0.2v-0.4l-0.2-0.2l-0.5,0.1v-0.2l-0.2-0.1l-0.6,0.3h-0.4l-0.7,0.2l-0.8-0.5
	v-0.2l-0.3-0.3h-0.1l-0.2-0.4l0.1-0.2l0.1-0.6l-0.1-0.2l0.5-1l0.1-0.2v-0.2l0.8-0.6h0.6l0.6-0.2l1.2-0.2l0.2,0.2l-0.1,0.4h0.5
	l0.8,0.4l0.1-0.4l1,0.1l0.5-0.1l-0.1-0.8l-0.3,0.1l-0.2-0.1v0.2l-0.4-0.3l-0.1-0.4H20l-0.2,0.1l0.1,0.2l0.2,0.2l-0.1,0.2h-0.2
	l-0.1-0.3l-0.2-0.2v-0.2L19,1688l-0.3-0.2v-0.1l-0.2,0.1v0.1l0.4,0.4h0.2l0.1,0.2l0.3,0.1v0.1l-0.1-0.1h-0.1l0.1,0.2l-0.2,0.2v0.2
	l-0.3-0.2h0.3l0.1-0.1l-0.1-0.2l-0.6-0.2l-0.3-0.3h-0.2l-0.1,0.2h-0.2l-0.1-0.1h-0.1v0.2l-0.2,0.1l-0.2,0.3l0,0l-0.2,0.3h-0.7
	l-0.3,0.2l-0.2-0.1h-0.2v-0.2h-0.1l-0.1-0.1l0.1-0.2v-0.2l-0.1-0.1h0.1l0.1-0.1h0.8l0.1-0.3l-0.2-0.3H16v-0.2l0.3-0.1v-0.3h0.2
	l0.3-0.1l0.2-0.3l0.4-0.2l-0.2-0.2l0.2-0.1v0.1l0.1,0.3h0.2H18l0.2-0.2h0.3l0.1-0.1l-0.1-0.2h0.1h0.1v-0.2l-0.2-0.4l0.2-0.4h0.1
	l0.1,0.1l-0.3,0.1l-0.2,0.3l-0.4-0.4l0.1-0.4l-0.3-0.1v0.1l0.2,0.2l-0.2,0.3l0.1,0.2l0.2,0.1v0.2H18l0.1,0.2l-0.1,0.2l-0.2,0.1
	l-0.1-0.2l-0.3-0.3l-0.2,0.2l-0.3-0.1l-0.2-0.5l0.3-0.3l0.1-0.3l0.1-0.6l0.4-0.3l0.6,0.2l0.5,0.1l0.3,0.2l-0.1,0.1l-0.3-0.1l0.2,0.3
	l0.4,0.3h-0.1h0.2l-0.1-0.4l0.1-0.2l-0.1-0.4l0.1-0.1l-0.1-0.2l0.1-0.1v-0.1c2.2,1.4,3.7,3.7,4.1,6.4h-0.2l-0.1-0.2l-0.1,0.1
	l-0.3-0.4l-0.1,0.1l0.5,0.8l0.4-0.1v-0.3v0.3L22.6,1691.1L22.6,1691.1z"/>
<path id="Fill-23_1_" sketch:type="MSShapeGroup" class="st19" d="M38.5,1680.9c-2.5,0-4.5,2-4.5,4.5s2,4.5,4.5,4.5s4.5-2,4.5-4.5
	S41,1680.9,38.5,1680.9L38.5,1680.9z M38.5,1687.9c-1.4,0-2.5-1.1-2.5-2.5s1.1-2.5,2.5-2.5s2.5,1.1,2.5,2.5S39.9,1687.9,38.5,1687.9
	z M49.5,1691.9c-2.5,0-4.5,2-4.5,4.5s2,4.5,4.5,4.5s4.5-2,4.5-4.5S52,1691.9,49.5,1691.9z M49.5,1698.9c-1.4,0-2.5-1.1-2.5-2.5
	s1.1-2.5,2.5-2.5s2.5,1.1,2.5,2.5S50.9,1698.9,49.5,1698.9z M35.7,1700.6l18-18c0.4-0.4,0.4-1,0-1.4s-1-0.4-1.4,0l-18,18
	c-0.4,0.4-0.4,1,0,1.4S35.3,1701,35.7,1700.6z"/>
<g transform="translate(9.000000, 307.000000)" sketch:type="MSLayerGroup">
	<path id="Fill-1_25_" sketch:type="MSShapeGroup" class="st0" d="M-152,1722.9l-0.9,6.6l-7.6-6.6l-0.5,0.5l6.6,7.6l-6.6,0.9v1h10
		v-10H-152z"/>
	<path id="Fill-2_10_" sketch:type="MSShapeGroup" class="st0" d="M-149,1734.9v10h1l0.9-6.6l7.6,6.6l0.5-0.5l-6.6-7.6l6.6-0.9v-1
		H-149z"/>
</g>
<path id="Fill-1_24_" sketch:type="MSShapeGroup" class="st0" d="M-130,1943.9c0,2.2-1.8,4-4,4h-16c-2.2,0-4-1.8-4-4v-12
	c0-2.2,1.8-4,4-4h16c2.2,0,4,1.8,4,4V1943.9z M-134,1925.9h-16c-3.3,0-6,2.7-6,6v12c0,3.3,2.7,6,6,6h16c3.3,0,6-2.7,6-6v-12
	C-128,1928.6-130.7,1925.9-134,1925.9z M-118,1945.2l-6-6.1v-2.3c1.2-1.2,3.8-3.8,6-6.1V1945.2z M-118.6,1928.4
	c-2.3,2.4-5.5,5.6-6.8,6.9c-0.4,0.4-0.6,0.9-0.6,1.5v2.3c0,0.5,0.2,1.1,0.6,1.4l6.9,6.9c0.9,1,2.6,0.3,2.6-1.1v-17
	C-116,1928.1-117.6,1927.4-118.6,1928.4L-118.6,1928.4z"/>
<path id="Fill-1_23_" sketch:type="MSShapeGroup" class="st0" d="M-133,1806.9c0,2.8-2.2,5-5,5s-5-2.2-5-5v-8c0-2.8,2.2-5,5-5
	s5,2.2,5,5V1806.9z M-138,1791.9c-3.9,0-7,3.1-7,7v8c0,3.9,3.1,7,7,7s7-3.1,7-7v-8C-131,1795-134.1,1791.9-138,1791.9z M-129,1803.9
	v3c0,5-4,9-9,9s-9-4-9-9v-3c-1.1,0-2,0.9-2,2v1c0,5.7,4.4,10.4,10,10.9v4.1h-4c-1.1,0-2,0.9-2,2h14c0-1.1-0.9-2-2-2h-4v-4.1
	c5.6-0.5,10-5.2,10-10.9v-1C-127,1804.8-127.9,1803.9-129,1803.9z"/>
<g transform="translate(104.000000, 211.000000)" sketch:type="MSLayerGroup">
	<g id="Clip-2">
	</g>
	<path id="Fill-1_22_" sketch:type="MSShapeGroup" class="st20" d="M-246.2,1775h12.5c1.7,0,3.5,1.2,3.5,3.4c0,3.7,0.7,3.8,2.5,4
		c0.5,0.1,2.1,0.2,3.2,0.3l1.3,0.1c1.1,0.1,1.6-0.3,1.9-1.5c1-4-0.5-6.9-4.4-8c-4.5-1.3-9.3-2.5-14.3-2.5c-4.9,0-9.8,1.2-14.3,2.5
		c-3.9,1.1-5.5,3.9-4.4,8c0.3,1.2,0.8,1.6,1.9,1.5c0.3,0,0.7-0.1,1.3-0.1c1.2-0.1,2.7-0.2,3.2-0.3c1.7-0.2,2.5-0.3,2.5-4
		C-249.8,1776.2-247.9,1775-246.2,1775 M-222.9,1784.9c-0.2,0-0.3,0-0.5,0l-1.3-0.1c-1.2-0.1-2.8-0.3-3.3-0.3
		c-3.2-0.4-4.3-1.9-4.2-6c0-1.1-1-1.4-1.5-1.4h-12.5c-0.6,0-1.5,0.3-1.5,1.4c0,4.1-1,5.6-4.2,6c-0.6,0.1-2.1,0.2-3.3,0.3l-1.3,0.1
		c-1.5,0.1-3.4-0.3-4.1-3c-1.3-5.1,0.9-9,5.8-10.4c4.6-1.3,9.6-2.6,14.8-2.6s10.2,1.3,14.8,2.6c5,1.4,7.1,5.3,5.8,10.4
		C-220,1784.3-221.6,1784.9-222.9,1784.9"/>
</g>
<g id="Fill-1-_x2B_-Fill-3" transform="translate(10.000000, 146.000000)" sketch:type="MSLayerGroup">
	<path id="Fill-1_21_" sketch:type="MSShapeGroup" class="st17" d="M-141.8,1726.2l0.2,2c0.2,2.3-0.3,4.4-1.6,6.1s-3.3,2.9-5.7,3.4
		l-2.4,0.5l1.5,1.9c1.6,2,4.1,3.2,7,3.4c0.3,0,0.7,0,1.1,0c0.7,0,1.5,0,2.3-0.1c1.1,0.7,2.5,1,4.2,1c0.4,0,0.7,0,1.2,0
		c1.2-0.1,1.7-0.9,1.7-1.5c0.1-0.6-0.2-1.4-1.2-1.7c1.4-1.2,2.7-2.7,2.8-4.9c0.1-5-4.5-8.6-9.1-9.6h-0.2L-141.8,1726.2z
		 M-140.1,1728h0.2c4,0.9,8,3.9,7.9,8.1c-0.1,1.9-1.4,3.2-3,4.4c-0.1,0.1-0.2,0.2-0.3,0.4c0,0.8,0.6,1.3,1.3,1.5
		c0.4,0.1,0.5,0.3,0,0.4c-0.3,0-0.7,0-1.1,0c-1.4,0-2.8-0.2-3.8-1.1c-0.9,0.1-1.8,0.2-2.7,0.2c-0.3,0-0.7,0-1,0
		c-2.6-0.2-4.7-1.2-6-2.8c2.7-0.6,5-1.9,6.5-4C-140.5,1733.2-139.8,1730.7-140.1,1728L-140.1,1728z"/>
	<path id="Fill-3_7_" sketch:type="MSShapeGroup" class="st0" d="M-153.7,1721.2c-4.7,1.1-9.4,4.7-9.3,9.6c0.1,2.5,1.8,4,3.3,4.9
		c0.5,0.3,0.8,0.8,0.8,1.4s-0.1,1.1-0.4,1.5c1.2-0.1,2.4-0.4,3.3-1.1l0.3-0.3l0.4,0.1c1.8,0.2,3.2,0.3,4.5,0.2
		c3-0.2,5.6-1.5,7.1-3.5c1.4-1.9,1.9-4.3,1.3-6.9c-0.4-2.1-1.5-3.6-3.2-4.7C-147.5,1720.9-150.6,1720.5-153.7,1721.2 M-160.2,1740.6
		c-0.5,0-1,0-1.4-0.1c-1.2-0.1-1.4-0.9-1.4-1.1c0-0.5,0.2-1.1,1.2-1.3c0.2-0.1,0.9-0.3,1-0.8c-2.6-1.5-4.1-3.8-4.1-6.4
		c-0.1-6,5.4-10.4,10.9-11.6l0,0c3.6-0.8,7.2-0.3,9.8,1.3c2.1,1.3,3.5,3.4,4,6c0.7,3.2,0.1,6.2-1.6,8.6c-1.9,2.5-4.9,4.1-8.5,4.3
		c-1.3,0.1-2.8,0-4.5-0.2C-156.6,1740.4-158.5,1740.6-160.2,1740.6"/>
</g>
<g id="Fill-1-_x2B_-Fill-3_1_" transform="translate(90.000000, 146.000000)" sketch:type="MSLayerGroup">
	<path id="Fill-1_20_" sketch:type="MSShapeGroup" class="st21" d="M-151.8,1726.2l0.2,2c0.2,2.3-0.3,4.4-1.6,6.1s-3.3,2.9-5.7,3.4
		l-2.4,0.5l1.5,1.9c1.6,2,4.1,3.2,7,3.4c0.3,0,0.7,0,1.1,0c0.7,0,1.5,0,2.3-0.1c1.1,0.7,2.5,1,4.2,1c0.4,0,0.7,0,1.2,0
		c1.2-0.1,1.7-0.9,1.7-1.5c0.1-0.6-0.2-1.4-1.2-1.7c1.4-1.2,2.7-2.7,2.8-4.9c0.1-5-4.5-8.6-9.1-9.6h-0.2L-151.8,1726.2z
		 M-150.1,1728h0.2c4,0.9,8,3.9,7.9,8.1c-0.1,1.9-1.4,3.2-3,4.4c-0.1,0.1-0.2,0.2-0.3,0.4c0,0.8,0.6,1.3,1.3,1.5
		c0.4,0.1,0.5,0.3,0,0.4c-0.3,0-0.7,0-1.1,0c-1.4,0-2.8-0.2-3.8-1.1c-0.9,0.1-1.8,0.2-2.7,0.2c-0.3,0-0.7,0-1,0
		c-2.6-0.2-4.7-1.2-6-2.8c2.7-0.6,5-1.9,6.5-4C-150.5,1733.2-149.8,1730.7-150.1,1728L-150.1,1728z"/>
	<path id="Fill-3_6_" sketch:type="MSShapeGroup" class="st22" d="M-163.7,1721.2c-4.7,1.1-9.4,4.7-9.3,9.6c0.1,2.5,1.8,4,3.3,4.9
		c0.5,0.3,0.8,0.8,0.8,1.4s-0.1,1.1-0.4,1.5c1.2-0.1,2.4-0.4,3.3-1.1l0.3-0.3l0.4,0.1c1.8,0.2,3.2,0.3,4.5,0.2
		c3-0.2,5.6-1.5,7.1-3.5c1.4-1.9,1.9-4.3,1.3-6.9c-0.4-2.1-1.5-3.6-3.2-4.7C-157.5,1720.9-160.6,1720.5-163.7,1721.2 M-170.2,1740.6
		c-0.5,0-1,0-1.4-0.1c-1.2-0.1-1.4-0.9-1.4-1.1c0-0.5,0.2-1.1,1.2-1.3c0.2-0.1,0.9-0.3,1-0.8c-2.6-1.5-4.1-3.8-4.1-6.4
		c-0.1-6,5.4-10.4,10.9-11.6l0,0c3.6-0.8,7.2-0.3,9.8,1.3c2.1,1.3,3.5,3.4,4,6c0.7,3.2,0.1,6.2-1.6,8.6c-1.9,2.5-4.9,4.1-8.5,4.3
		c-1.3,0.1-2.8,0-4.5-0.2C-166.6,1740.4-168.5,1740.6-170.2,1740.6"/>
</g>
<path id="Fill-1_18_" sketch:type="MSShapeGroup" class="st0" d="M-48,1945.2l-6-6.1v-2.3c1.2-1.2,3.8-3.8,6-6.1V1945.2z
	 M-48.6,1928.4c-2.3,2.4-5.5,5.6-6.8,6.9c-0.4,0.4-0.6,0.9-0.6,1.5v2.3c0,0.5,0.2,1.1,0.6,1.4l6.9,6.9c0.9,1,2.6,0.3,2.6-1.1v-17
	C-46,1928.1-47.6,1927.4-48.6,1928.4z M-83.4,1946c-0.4-0.6-0.6-1.3-0.6-2.1v-12c0-2.2,1.8-4,4-4h14.8l2-2c-0.2,0-0.5,0-0.7,0h-16
	c-3.3,0-6,2.7-6,6v12c0,1.3,0.4,2.6,1.2,3.6L-83.4,1946z M-60.1,1931.2c0,0.2,0.1,0.5,0.1,0.7v12c0,2.2-1.8,4-4,4h-12.8l-2,2H-64
	c3.3,0,6-2.7,6-6v-12c0-0.8-0.2-1.6-0.5-2.3L-60.1,1931.2z"/>
<path id="Fill-7" sketch:type="MSShapeGroup" class="st20" d="M-84,1951.9c-0.3,0-0.5-0.1-0.7-0.3c-0.4-0.4-0.4-1,0-1.4l26-26
	c0.4-0.4,1-0.4,1.4,0s0.4,1,0,1.4l-26,26C-83.5,1951.8-83.7,1951.9-84,1951.9"/>
<path id="Fill-2-Copy_1_" sketch:type="MSShapeGroup" class="st0" d="M-63,1757.9l5,4v-10l-5,4V1757.9z M-76,1752.9c0-1.1,0.9-2,2-2
	h8c1.1,0,2,0.9,2,2v8c0,1.1-0.9,2-2,2h-8c-1.1,0-2-0.9-2-2V1752.9z"/>
<g id="Group" transform="translate(60.000000, 1.000000)" sketch:type="MSLayerGroup">
	<path id="Fill-1_17_" sketch:type="MSShapeGroup" class="st0" d="M-197,1756.4v-1.4l-4.7,4.7c0.4,0.1,0.8,0.2,1.2,0.2
		C-198.6,1759.9-197,1758.3-197,1756.4"/>
	<path id="Fill-3_5_" sketch:type="MSShapeGroup" class="st0" d="M-197.3,1751c-0.5-1.3-1.8-2.2-3.2-2.2c-1.9,0-3.5,1.6-3.5,3.5v4
		c0,0.4,0.1,0.8,0.2,1.2L-197.3,1751z"/>
	<path id="Fill-6_4_" sketch:type="MSShapeGroup" class="st0" d="M-196,1756.4c0,2.5-2,4.5-4.5,4.5c-0.7,0-1.3-0.2-1.9-0.4l-0.6,0.6
		c0.7,0.4,1.4,0.7,2,0.8v2h-3v1h7v-1h-3v-2c3-0.3,5-2.6,5-5.5v-1.5h-1V1756.4z"/>
	<path id="Fill-8" sketch:type="MSShapeGroup" class="st0" d="M-204.5,1758.3c-0.3-0.6-0.4-1.2-0.4-1.9v-1.5h-1v1.5
		c0,0.9,0.3,1.8,0.8,2.6L-204.5,1758.3z"/>
	<path id="Fill-10_2_" sketch:type="MSShapeGroup" class="st0" d="M-207.5,1763.9c-0.1,0-0.3,0-0.4-0.1c-0.2-0.2-0.2-0.5,0-0.7
		l13-13c0.2-0.2,0.5-0.2,0.7,0s0.2,0.5,0,0.7l-13,13C-207.2,1763.9-207.4,1763.9-207.5,1763.9"/>
</g>
<path id="Fill-10_4_" sketch:type="MSShapeGroup" class="st20" d="M-81,1822.9c-0.3,0-0.5-0.1-0.7-0.3c-0.4-0.4-0.4-1,0-1.4l26-26
	c0.4-0.4,1-0.4,1.4,0s0.4,1,0,1.4l-26,26C-80.5,1822.8-80.7,1822.9-81,1822.9"/>
<path id="Fill-1_27_" sketch:type="MSShapeGroup" class="st0" d="M-61,1807.9v-1.8l-2,2c-0.1,2.5-2.2,4.6-4.7,4.7l-1.8,1.8
	c0.5,0.1,1,0.2,1.6,0.2C-64.1,1814.9-61,1811.8-61,1807.9z M-72.7,1809.4c-0.2-0.5-0.3-1-0.3-1.5v-8c0-2.8,2.2-5,5-5
	c2.7,0,4.9,2.1,5,4.8l1.7-1.7c-0.8-2.9-3.5-5-6.7-5c-3.9,0-7,3.1-7,7v8c0,1.1,0.3,2.1,0.7,3.1L-72.7,1809.4z M-59,1807.9
	c0,5-4,9-9,9c-1.1,0-2.2-0.2-3.2-0.6l-1.5,1.5c1.1,0.5,2.4,0.9,3.7,1v4.1h-4c-1.1,0-2,0.9-2,2h14c0-1.1-0.9-2-2-2h-4v-4.1
	c5.6-0.5,10-5.2,10-10.9v-3h-2V1807.9z M-75.8,1812.4c-0.8-1.3-1.2-2.9-1.2-4.5v-3h-2v3c0,2.2,0.7,4.3,1.8,6L-75.8,1812.4z"/>
<g>
	<path id="Fill-10_3_" class="st20" d="M29.7,1821.1c-0.2,0-0.3-0.1-0.5-0.2c-0.3-0.3-0.3-0.7,0-0.9l17.1-17.1
		c0.3-0.3,0.7-0.3,0.9,0s0.3,0.7,0,0.9l-17.1,17.1C30,1821,29.8,1821.1,29.7,1821.1"/>
	<path id="Fill-1_30_" class="st0" d="M42.8,1811.2v-1.2l-1.3,1.3c-0.1,1.7-1.4,3-3.1,3.1l-1.2,1.2c0.3,0.1,0.7,0.1,1,0.1
		C40.7,1815.8,42.8,1813.8,42.8,1811.2z M35.1,1812.2c-0.1-0.3-0.2-0.6-0.2-1v-5.2c0-1.8,1.5-3.3,3.3-3.3c1.8,0,3.2,1.4,3.3,3.1
		l1.1-1.1c-0.6-1.9-2.3-3.3-4.4-3.3c-2.5,0-4.6,2.1-4.6,4.6v5.2c0,0.7,0.2,1.4,0.5,2L35.1,1812.2z M44.1,1811.2
		c0,3.3-2.6,5.9-5.9,5.9c-0.7,0-1.4-0.1-2.1-0.4l-1,1c0.7,0.4,1.6,0.6,2.4,0.7v2.7h-2.6c-0.7,0-1.3,0.6-1.3,1.3h9.2
		c0-0.7-0.6-1.3-1.3-1.3h-2.6v-2.7c3.7-0.3,6.6-3.4,6.6-7.2v-2h-1.3v2H44.1z M33.1,1814.2c-0.5-0.9-0.8-1.9-0.8-3v-2H31v2
		c0,1.4,0.4,2.8,1.2,3.9L33.1,1814.2z"/>
</g>
<path id="Fill-22" sketch:type="MSShapeGroup" class="st23" d="M-1.7,1984.9c3.3,0,6.5,0.8,9.7,1.7c3,0.9,4.2,3.1,3.4,6.1
	c-0.3,1.1-0.9,1.6-2,1.5c-0.5-0.1-2.5-0.2-3-0.3c-1.7-0.2-2.3-0.8-2.2-3.3c0-1.1-0.8-1.6-1.7-1.6h-8.3c-0.8,0-1.7,0.6-1.7,1.6
	c0,2.6-0.6,3.1-2.2,3.3c-0.5,0.1-2.5,0.2-3,0.3c-1.1,0.1-1.7-0.4-2-1.5c-0.8-3,0.4-5.3,3.4-6.1C-8.2,1985.7-5,1984.9-1.7,1984.9"/>
<path id="Fill-1-Copy-2" sketch:type="MSShapeGroup" class="st0" d="M28,2034.9v7.9h1.1l0.7-4.9l4.9,4.9l1.1-1.1l-4.9-4.9l4.9-0.7
	v-1.1L28,2034.9L28,2034.9z M44.9,2045l-0.7,4.9l-4.9-4.9l-1.1,1.1l4.9,4.9l-4.9,0.7v1.1H46v-7.9L44.9,2045L44.9,2045z"/>
<g id="Page-1" transform="translate(300.311475, 0.906328)" sketch:type="MSShapeGroup">
	<path id="Fill-1_29_" class="st0" d="M-304.8,2034.9l-0.7,5.1l-6-5.1l-0.4,0.4l5.2,5.9l-5.2,0.7v0.8h8v-7.8H-304.8L-304.8,2034.9z"
		/>
	<path id="Fill-2_12_" class="st0" d="M-302.5,2044.3v7.8h0.8l0.7-5.1l6,5.1l0.4-0.4l-5.2-5.9l5.2-0.7v-0.8H-302.5L-302.5,2044.3z"
		/>
</g>
<g id="Fill-80-_x2B_-Fill-81_1_" transform="translate(61.000000, 2.000000)" sketch:type="MSLayerGroup">
	<path id="Fill-80_3_" sketch:type="MSShapeGroup" class="st24" d="M-12.2,1887c0-0.1,0.1-0.3,0.2-0.3c1.4-0.8,2.3-1.9,2.4-3.5
		c0.1-3.1-2.7-5.5-5.7-6.3c0.1,2.3-0.5,4.4-1.9,6.1c-1.2,1.5-2.9,2.6-4.9,3.2c1.1,0.9,2.5,1.5,4.2,1.7c1,0.1,1.9,0,2.9-0.1
		c1.1,0.9,2.6,0.9,3.9,0.8c0.4,0,0.3-0.2,0-0.3C-11.8,1888.1-12.3,1887.6-12.2,1887z"/>
	<path id="Fill-81_3_" sketch:type="MSShapeGroup" class="st25" d="M-17.5,1875.5c-1.1-4.7-5.8-6.3-10.5-5.3
		c-4.2,0.9-8.5,4.2-8.4,8.6c0.1,2,1.3,3.6,3.2,4.6c0.1,0.1,0.3,0.2,0.3,0.4c0,0.9-0.6,1.4-1.4,1.7c-0.4,0.1-0.5,0.3,0,0.4
		c1.7,0.1,3.8,0.1,5.2-1.1c1.3,0.2,2.6,0.3,3.9,0.2C-19.9,1884.6-16.3,1880.7-17.5,1875.5"/>
</g>
<g id="Fill-80-_x2B_-Fill-81_2_" transform="translate(1.000000, 2.000000)" sketch:type="MSLayerGroup">
	<path id="Fill-80_5_" sketch:type="MSShapeGroup" class="st26" d="M7.8,1887c0-0.1,0.1-0.3,0.2-0.3c1.4-0.8,2.3-1.9,2.4-3.5
		c0.1-3.1-2.7-5.5-5.7-6.3c0.1,2.3-0.5,4.4-1.9,6.1c-1.2,1.5-2.9,2.6-4.9,3.2c1.1,0.9,2.5,1.5,4.2,1.7c1,0.1,1.9,0,2.9-0.1
		c1.1,0.9,2.6,0.9,3.9,0.8c0.4,0,0.3-0.2,0-0.3C8.2,1888.1,7.7,1887.6,7.8,1887z"/>
	<path id="Fill-81_5_" sketch:type="MSShapeGroup" class="st27" d="M2.5,1875.5c-1.1-4.7-5.8-6.3-10.5-5.3c-4.2,0.9-8.5,4.2-8.4,8.6
		c0.1,2,1.3,3.6,3.2,4.6c0.1,0.1,0.3,0.2,0.3,0.4c0,0.9-0.6,1.4-1.4,1.7c-0.4,0.1-0.5,0.3,0,0.4c1.7,0.1,3.8,0.1,5.2-1.1
		c1.3,0.2,2.6,0.3,3.9,0.2C0.1,1884.6,3.7,1880.7,2.5,1875.5"/>
</g>
<path id="Fill-1_32_" class="st0" d="M1.5,1811.2c0,1.8-1.5,3.3-3.3,3.3s-3.3-1.5-3.3-3.3v-5.2c0-1.8,1.5-3.3,3.3-3.3
	s3.3,1.5,3.3,3.3V1811.2z M-1.8,1801.4c-2.5,0-4.6,2.1-4.6,4.6v5.2c0,2.5,2.1,4.6,4.6,4.6s4.6-2.1,4.6-4.6v-5.2
	C2.8,1803.5,0.7,1801.4-1.8,1801.4z M4.1,1809.3v2c0,3.3-2.6,5.9-5.9,5.9s-5.9-2.6-5.9-5.9v-2c-0.7,0-1.3,0.9-1.3,2
	c0,3.8,2.9,6.9,6.6,7.2v2.7H-5c-0.7,0-1.3,0.6-1.3,1.3h9.2c0-0.7-0.6-1.3-1.3-1.3H-1v-2.7c3.7-0.3,6.6-3.4,6.6-7.2
	C5.4,1810.2,4.5,1809.3,4.1,1809.3z"/>
<path id="Fill-1_33_" class="st0" d="M2.1,1945.8c0,1.4-1.2,2.6-2.6,2.6H-11c-1.5,0-2.6-1.2-2.6-2.6v-7.7c0-1.4,1.2-2.6,2.6-2.6
	h10.5c1.5,0,2.6,1.2,2.6,2.6V1945.8z M-0.5,1934.2H-11c-2.2,0-4,1.7-4,3.9v7.7c0,2.1,1.8,3.9,4,3.9h10.5c2.2,0,3.9-1.7,3.9-3.9v-7.7
	C3.4,1935.9,1.7,1934.2-0.5,1934.2z M10,1946.6l-3.9-3.9v-1.5c0.8-0.7,2.5-2.4,3.9-3.9V1946.6z M9.6,1935.8
	c-1.5,1.5-3.6,3.6-4.5,4.5c-0.3,0.2-0.4,0.6-0.4,0.9v1.5c0,0.3,0.1,0.7,0.4,0.9l4.5,4.5c0.6,0.6,1.7,0.2,1.7-0.7v-10.9
	C11.3,1935.6,10.3,1935.2,9.6,1935.8L9.6,1935.8z"/>
<g>
	<path id="Fill-1_34_" class="st0" d="M50.1,1946.6l-3.9-3.9v-1.5c0.8-0.7,2.5-2.4,4-3.9L50.1,1946.6L50.1,1946.6z M49.7,1935.8
		c-1.5,1.5-3.6,3.6-4.5,4.5c-0.3,0.2-0.4,0.6-0.4,0.9v1.5c0,0.3,0.1,0.7,0.4,0.9l4.5,4.5c0.6,0.6,1.7,0.2,1.7-0.7v-10.9
		C51.4,1935.6,50.3,1935.2,49.7,1935.8z M26.8,1947.1c-0.3-0.4-0.4-0.9-0.4-1.4v-7.7c0-1.4,1.2-2.6,2.6-2.6h9.7l1.3-1.3
		c-0.2,0-0.3,0-0.5,0H29c-2.2,0-4,1.7-4,3.9v7.7c0,0.9,0.3,1.7,0.8,2.3L26.8,1947.1z M42.1,1937.6c0,0.1,0,0.3,0,0.4v7.7
		c0,1.4-1.2,2.6-2.6,2.6h-8.4l-1.3,1.3h9.7c2.2,0,4-1.7,4-3.9v-7.7c0-0.5-0.1-1-0.3-1.5L42.1,1937.6z"/>
	<path id="Fill-7_2_" class="st20" d="M26.4,1950.9c-0.2,0-0.3-0.1-0.5-0.2c-0.3-0.3-0.3-0.7,0-0.9l17.1-16.7c0.3-0.3,0.7-0.3,0.9,0
		c0.3,0.3,0.3,0.7,0,0.9l-17.1,16.7C26.7,1950.8,26.5,1950.9,26.4,1950.9"/>
</g>
<g id="Page-1_1_" sketch:type="MSPage">
	<rect id="Rectangle-49" x="-167" y="2095.9" sketch:type="MSShapeGroup" class="st8" width="10" height="2">
	</rect>
</g>
<g id="Page-1_2_" sketch:type="MSPage">
	<rect id="Rectangle-49_1_" x="-127" y="2095.9" sketch:type="MSShapeGroup" class="st8" width="10" height="2">
	</rect>
</g>
<g id="Page-1_3_" sketch:type="MSPage">
	<rect id="Rectangle-49_2_" x="-123" y="2091.9" sketch:type="MSShapeGroup" class="st8" width="2" height="10">
	</rect>
</g>
<path id="Fill-1_19_" sketch:type="MSShapeGroup" class="st0" d="M-82,2029.9v10h1l0.9-6.6l7.6,6.6l0.5-0.5l-6.6-7.6l6.6-0.9v-1H-82
	z"/>
<path id="Fill-2_13_" sketch:type="MSShapeGroup" class="st0" d="M-61,2041.9l-0.9,6.6l-7.6-6.6l-0.5,0.5l6.6,7.6l-6.6,0.9v1h10v-10
	H-61z"/>
<path id="Fill-2-Copy_2_" sketch:type="MSShapeGroup" class="st6" d="M7,1757.9l5,4v-10l-5,4V1757.9z M-6,1752.9c0-1.1,0.9-2,2-2h8
	c1.1,0,2,0.9,2,2v8c0,1.1-0.9,2-2,2h-8c-1.1,0-2-0.9-2-2V1752.9z"/>
<path id="Fill-2-Copy_3_" sketch:type="MSShapeGroup" class="st11" d="M47,1757.9l5,4v-10l-5,4V1757.9z M34,1752.9c0-1.1,0.9-2,2-2
	h8c1.1,0,2,0.9,2,2v8c0,1.1-0.9,2-2,2h-8c-1.1,0-2-0.9-2-2V1752.9z"/>
<g id="Group_1_" transform="translate(60.000000, 1.000000)" sketch:type="MSLayerGroup">
	<path id="Fill-1_26_" sketch:type="MSShapeGroup" class="st11" d="M-160,1756.4v-1.4l-4.7,4.7c0.4,0.1,0.8,0.2,1.2,0.2
		C-161.6,1759.9-160,1758.3-160,1756.4"/>
	<path id="Fill-3_8_" sketch:type="MSShapeGroup" class="st11" d="M-160.3,1751c-0.5-1.3-1.8-2.2-3.2-2.2c-1.9,0-3.5,1.6-3.5,3.5v4
		c0,0.4,0.1,0.8,0.2,1.2L-160.3,1751z"/>
	<path id="Fill-6_5_" sketch:type="MSShapeGroup" class="st11" d="M-159,1756.4c0,2.5-2,4.5-4.5,4.5c-0.7,0-1.3-0.2-1.9-0.4
		l-0.6,0.6c0.7,0.4,1.4,0.7,2,0.8v2h-3v1h7v-1h-3v-2c3-0.3,5-2.6,5-5.5v-1.5h-1V1756.4z"/>
	<path id="Fill-8_1_" sketch:type="MSShapeGroup" class="st11" d="M-167.5,1758.3c-0.3-0.6-0.4-1.2-0.4-1.9v-1.5h-1v1.5
		c0,0.9,0.3,1.8,0.8,2.6L-167.5,1758.3z"/>
	<path id="Fill-10_5_" sketch:type="MSShapeGroup" class="st11" d="M-170.5,1763.9c-0.1,0-0.3,0-0.4-0.1c-0.2-0.2-0.2-0.5,0-0.7
		l13-13c0.2-0.2,0.5-0.2,0.7,0s0.2,0.5,0,0.7l-13,13C-170.2,1763.9-170.4,1763.9-170.5,1763.9"/>
</g>
<g id="Page-1_4_" sketch:type="MSPage">
	<g id="Group_2_" transform="translate(1.000000, 1.000000)" sketch:type="MSLayerGroup">
		<path id="Fill-1_28_" sketch:type="MSShapeGroup" class="st6" d="M6,2134.9v2l5,4v-10L6,2134.9z"/>
		<path id="Fill-2_11_" sketch:type="MSShapeGroup" class="st6" d="M-4.8,2141.8c0.2,0.1,0.5,0.1,0.8,0.1h6c1.7,0,3-1.3,3-3v-6
			c0-0.3,0-0.5-0.1-0.8L-4.8,2141.8z"/>
		<path id="Fill-4_4_" sketch:type="MSShapeGroup" class="st6" d="M2.8,2130c-0.2-0.1-0.5-0.1-0.8-0.1h-6c-1.7,0-3,1.3-3,3v6
			c0,0.3,0,0.5,0.1,0.8L2.8,2130z"/>
		<path id="Fill-6_6_" sketch:type="MSShapeGroup" class="st6" d="M-7.5,2142.9c-0.1,0-0.3,0-0.4-0.1c-0.2-0.2-0.2-0.5,0-0.7l13-13
			c0.2-0.2,0.5-0.2,0.7,0c0.2,0.2,0.2,0.5,0,0.7l-13,13C-7.2,2142.9-7.4,2142.9-7.5,2142.9"/>
	</g>
</g>
<g id="Page-1_5_" sketch:type="MSPage">
	<g id="Group_3_" transform="translate(1.000000, 1.000000)" sketch:type="MSLayerGroup">
		<path id="Fill-1_31_" sketch:type="MSShapeGroup" class="st0" d="M-64,2134.9v2l5,4v-10L-64,2134.9z"/>
		<path id="Fill-2_14_" sketch:type="MSShapeGroup" class="st0" d="M-74.8,2141.8c0.2,0.1,0.5,0.1,0.8,0.1h6c1.6,0,3-1.3,3-3v-6
			c0-0.3,0-0.5-0.1-0.8L-74.8,2141.8z"/>
		<path id="Fill-4_5_" sketch:type="MSShapeGroup" class="st0" d="M-67.2,2130c-0.2-0.1-0.5-0.1-0.8-0.1h-6c-1.6,0-3,1.3-3,3v6
			c0,0.3,0,0.5,0.1,0.8L-67.2,2130z"/>
		<path id="Fill-6_7_" sketch:type="MSShapeGroup" class="st0" d="M-77.5,2142.9c-0.1,0-0.3,0-0.4-0.1c-0.2-0.2-0.2-0.5,0-0.7l13-13
			c0.2-0.2,0.5-0.2,0.7,0s0.2,0.5,0,0.7l-13,13C-77.2,2142.9-77.4,2142.9-77.5,2142.9"/>
	</g>
</g>
<g id="Page-1_6_" sketch:type="MSPage">
	<g id="Group_4_" transform="translate(1.000000, 1.000000)" sketch:type="MSLayerGroup">
		<path id="Fill-1_35_" sketch:type="MSShapeGroup" class="st11" d="M46,2134.9v2l5,4v-10L46,2134.9z"/>
		<path id="Fill-2_15_" sketch:type="MSShapeGroup" class="st11" d="M35.2,2141.8c0.2,0.1,0.5,0.1,0.8,0.1h6c1.7,0,3-1.3,3-3v-6
			c0-0.3,0-0.5-0.1-0.8L35.2,2141.8z"/>
		<path id="Fill-4_6_" sketch:type="MSShapeGroup" class="st11" d="M42.8,2130c-0.2-0.1-0.5-0.1-0.8-0.1h-6c-1.6,0-3,1.3-3,3v6
			c0,0.3,0,0.5,0.1,0.8L42.8,2130z"/>
		<path id="Fill-6_8_" sketch:type="MSShapeGroup" class="st11" d="M32.5,2142.9c-0.1,0-0.3,0-0.4-0.1c-0.2-0.2-0.2-0.5,0-0.7l13-13
			c0.2-0.2,0.5-0.2,0.7,0s0.2,0.5,0,0.7l-13,13C32.8,2142.9,32.6,2142.9,32.5,2142.9"/>
	</g>
</g>
<g>
	<path class="st11" d="M-160.4-1170.5l-0.2-0.2c-0.7-0.8-2-0.8-2.8,0l-1.2,1.2h-0.1l-0.7,0.7h0.1l-6.3,6.3h-0.1l-0.7,0.7h0.1
		l-0.7,0.7l-1.5,3.7l0,0l-0.1,0.2l-0.4,1.1l0.4-0.1l0,0l0.9-0.4l0,0l3.7-1.5l0.7-0.7l0,0l0.7-0.7l0,0l6.3-6.3l0,0l0.7-0.7l0,0
		l1.2-1.2C-159.6-1168.4-159.6-1169.7-160.4-1170.5z M-170.6-1158.9l-2.6,1l1-2.6l0.5-0.5l1.6,1.6L-170.6-1158.9z M-169.3-1160.2
		l-1.6-1.6l6.3-6.3l1.6,1.6L-169.3-1160.2z M-161.1-1168.4l-1.2,1.2l-1.6-1.6l1.2-1.2c0.4-0.4,1-0.4,1.4,0l0.2,0.2
		C-160.7-1169.4-160.7-1168.8-161.1-1168.4z"/>
	<rect x="-166" y="-1157.1" class="st11" width="4" height="1"/>
	<rect x="-160" y="-1157.1" class="st11" width="2" height="1"/>
	<rect x="-170" y="-1157.1" class="st11" width="2" height="1"/>
</g>
<path sketch:type="MSShapeGroup" class="st11" d="M-146,2217.9c0,1.1-0.9,2-2,2h-24c-1.1,0-2-0.9-2-2v-12c0-1.1,0.9-2,2-2h24
	c1.1,0,2,0.9,2,2V2217.9z M-170,2201.9c0-5.5,4.5-10,10-10s10,4.5,10,10H-170z M-148,2201.9L-148,2201.9c0-6.6-5.4-12-12-12
	s-12,5.4-12,12c-2.2,0-4,1.8-4,4v12c0,2.2,1.8,4,4,4h24c2.2,0,4-1.8,4-4v-12C-144,2203.7-145.8,2201.9-148,2201.9L-148,2201.9z"/>
<g>
	<path class="st11" d="M-153.8,2260.1c-0.3-0.3-0.8-0.3-1.1,0l-7.7,7.8l-2.8-2.8c-0.1-0.1-0.5,0-0.8,0.3l-0.5,0.5
		c-0.3,0.3-0.4,0.6-0.3,0.8l4.4,4.3c0,0.1,9.4-9.3,9.4-9.3c0.3-0.3,0.3-0.8,0-1.1L-153.8,2260.1z"/>
	<path class="st11" d="M-160,2249.9c-8.8,0-16,7.2-16,16s7.2,16,16,16s16-7.2,16-16S-151.2,2249.9-160,2249.9z M-160,2279.9
		c-7.7,0-14-6.3-14-14s6.3-14,14-14s14,6.3,14,14S-152.3,2279.9-160,2279.9z"/>
</g>
<path id="Fill-22_1_" class="st9" d="M-115-1475.1c2.2,0,4.4,0.5,6.5,1.2c2,0.6,2.8,2.1,2.3,4.1c-0.2,0.7-0.6,1.1-1.3,1
	c-0.4,0-1.7-0.2-2.1-0.2c-1.1-0.1-1.5-0.5-1.5-2.3c0-0.7-0.6-1.1-1.1-1.1h-5.6c-0.6,0-1.1,0.4-1.1,1.1c0,1.7-0.4,2.1-1.5,2.3
	c-0.4,0-1.7,0.2-2.1,0.2c-0.8,0.1-1.2-0.3-1.3-1c-0.5-2,0.3-3.6,2.3-4.1C-119.4-1474.6-117.2-1475.1-115-1475.1"/>
<path id="Fill-1_36_" class="st15" d="M-121.3-1396.1h8.8l-4.3-7.1L-121.3-1396.1z M-110.7-1394.1h-12.4c-0.4,0-0.7-0.2-0.9-0.5
	s-0.2-0.7,0-1l6.2-10c0.4-0.6,1.5-0.6,1.8,0l6.2,10c0.2,0.3,0.2,0.7,0,1C-110-1394.3-110.3-1394.1-110.7-1394.1L-110.7-1394.1z"/>
<path id="Fill-1_37_" class="st5" d="M-121.3-1361.1h8.8l-4.3-7.1L-121.3-1361.1z M-110.7-1359.1h-12.4c-0.4,0-0.7-0.2-0.9-0.5
	s-0.2-0.7,0-1l6.2-10c0.4-0.6,1.5-0.6,1.8,0l6.2,10c0.2,0.3,0.2,0.7,0,1C-110-1359.3-110.3-1359.1-110.7-1359.1L-110.7-1359.1z"/>
<g id="ic_chat-copy" transform="translate(0.000000, 34.000000)" class="st7">
	<path id="Fill-80_4_" class="st8" d="M-105.1-1463.3c-0.5-0.1-0.8-0.5-0.8-0.9c0-0.1,0.1-0.2,0.2-0.2c1-0.6,1.8-1.5,1.8-2.6
		c0.1-2.3-2.1-4.1-4.3-4.7c0.1,1.7-0.4,3.3-1.4,4.5c-0.9,1.1-2.2,2-3.7,2.4c0.8,0.7,1.9,1.2,3.1,1.2c0.7,0.1,1.5,0,2.2-0.1
		c0.8,0.6,1.9,0.7,2.9,0.6C-104.8-1463.1-104.9-1463.3-105.1-1463.3"/>
	<path id="Fill-81_4_" d="M-109.9-1472.9c-0.8-3.6-4.4-4.7-7.8-4c-3.2,0.7-6.4,3.1-6.3,6.4c0,1.5,1,2.7,2.4,3.5
		c0.1,0.1,0.2,0.2,0.2,0.3c0,0.6-0.5,1.1-1.1,1.2c-0.3,0.1-0.4,0.2,0,0.3c1.3,0.1,2.8,0,3.9-0.8c1,0.1,2,0.2,2.9,0.1
		C-111.7-1466.1-109-1469-109.9-1472.9"/>
</g>
<polygon id="Rectangle-17-Copy-8" class="st8" points="-86,-847.1 -82,-851.1 -90,-851.1 "/>
<polygon id="Rectangle-17-Copy-8_1_" class="st8" points="-90,-807.1 -82,-807.1 -86,-811.1 "/>
<polygon id="check" class="st0" points="-89,-890.1 -86,-888.1 -80,-893.1 -79,-892.1 -86.1,-885.2 -90,-889.1 "/>
<polygon id="check_1_" class="st28" points="-129,-890.1 -126,-888.1 -120,-893.1 -119,-892.1 -126.1,-885.2 -130,-889.1 "/>
<g class="st7">
	<path d="M-125-935.3c-1.2,0-2.2,1-2.2,2.2s1,2.2,2.2,2.2s2.2-1,2.2-2.2S-123.8-935.3-125-935.3z M-125-931.9
		c-0.7,0-1.2-0.6-1.2-1.2s0.6-1.2,1.2-1.2s1.2,0.6,1.2,1.2S-124.3-931.9-125-931.9z"/>
	<path d="M-117-934.9h-1.6c-0.1-0.5-0.3-1-0.6-1.4l1.2-1.2c0.4-0.4,0.4-1,0-1.4l-1.1-1.1c-0.4-0.4-1-0.4-1.4,0l-1.2,1.2
		c-0.4-0.2-0.9-0.4-1.4-0.6v-1.6c0-0.6-0.4-1-1-1h-1.6c-0.6,0-1,0.4-1,1v1.6c-0.5,0.1-1,0.3-1.4,0.6l-1.2-1.2c-0.4-0.4-1-0.4-1.4,0
		l-1.1,1.1c-0.4,0.4-0.4,1,0,1.4l1.2,1.2c-0.2,0.4-0.4,0.9-0.6,1.4h-1.6c-0.6,0-1,0.4-1,1v1.6c0,0.6,0.4,1,1,1h1.6
		c0.1,0.5,0.3,1,0.6,1.4l-1.2,1.2c-0.4,0.4-0.4,1,0,1.4l1.1,1.1c0.4,0.4,1,0.4,1.4,0l1.2-1.2c0.4,0.2,0.9,0.4,1.4,0.6v1.6
		c0,0.6,0.4,1,1,1h1.6c0.6,0,1-0.4,1-1v-1.6c0.5-0.1,1-0.3,1.4-0.6l1.2,1.2c0.4,0.4,1,0.4,1.4,0l1.1-1.1c0.4-0.4,0.4-1,0-1.4
		l-1.2-1.2c0.2-0.4,0.4-0.9,0.6-1.4h1.6c0.6,0,1-0.4,1-1v-1.6C-116-934.5-116.4-934.9-117-934.9z M-117-932.3L-117-932.3h-1.7h-0.8
		l-0.2,0.7c-0.1,0.4-0.3,0.8-0.5,1.2l-0.4,0.7l0.5,0.5l1.2,1.2l0,0l-1.1,1.1l0,0l-1.2-1.2l-0.5-0.5l-0.7,0.4
		c-0.4,0.2-0.8,0.4-1.2,0.5l-0.7,0.2v0.8v1.6l0,0h-1.6l0,0v-1.6v-0.8l-0.7-0.2c-0.4-0.1-0.8-0.3-1.2-0.5l-0.7-0.4l-0.5,0.5l-1.2,1.2
		l0,0l-1.1-1.1l0,0l1.2-1.2l0.5-0.5l-0.4-0.7c-0.2-0.4-0.4-0.8-0.5-1.2l-0.2-0.7h-0.8h-1.6l0,0v-1.6l0,0h1.6h0.8l0.2-0.7
		c0.1-0.4,0.3-0.8,0.5-1.2l0.4-0.7l-0.5-0.5l-1.2-1.2l0,0l1.1-1.1l0,0l1.2,1.2l0.5,0.5l0.7-0.4c0.4-0.2,0.8-0.4,1.2-0.5l0.7-0.2
		v-0.8v-1.6l0,0h1.6l0,0v1.6v0.8l0.7,0.2c0.4,0.1,0.8,0.3,1.2,0.5l0.7,0.4l0.5-0.5l1.2-1.2l0,0l1.1,1.1l0,0l-1.2,1.2l-0.5,0.5
		l0.4,0.7c0.2,0.4,0.4,0.8,0.5,1.2l0.2,0.7h0.8h1.6l0,0v1.6H-117z"/>
</g>
<g class="st7">
	<path d="M-125-1015.1c-1.1,0-2,0.9-2,2s0.9,2,2,2s2-0.9,2-2S-123.9-1015.1-125-1015.1z"/>
	<path d="M-120-1013.1c0-2.8-2.2-5-5-5s-5,2.2-5,5s2.2,5,5,5S-120-1010.3-120-1013.1z M-125-1009.1c-2.2,0-4-1.8-4-4s1.8-4,4-4
		s4,1.8,4,4S-122.8-1009.1-125-1009.1z"/>
	<path d="M-116.1-1014.2c-1.9-2-4.8-4.9-8.9-4.9c-5,0-8.2,4.3-10,6c1.8,1.7,5,6,10,6c3.3,0,5.9-1.9,7.7-3.7c0.9-0.9,1.7-1.7,2.3-2.3
		C-115.3-1013.4-115.7-1013.8-116.1-1014.2z M-116.7-1012.8c-0.4,0.4-0.8,0.8-1.3,1.3c-1.7,1.6-3.9,3.4-7,3.4
		c-3.8,0-6.5-2.8-8.3-4.7c-0.1-0.1-0.2-0.2-0.3-0.3c0.1-0.1,0.2-0.2,0.3-0.3c1.8-1.9,4.5-4.7,8.3-4.7s6.4,2.8,8.2,4.6l0.1,0.1
		c0.1,0.1,0.2,0.2,0.3,0.3C-116.5-1013-116.6-1012.9-116.7-1012.8z"/>
</g>
<g class="st7">
	<path d="M-115.7-979.9L-115.7-979.9L-115.7-979.9z"/>
	<path d="M-115.7-979.9c-1-4.5-5.4-6.5-10.5-5.4c-4.7,1-8.4,4.5-8.3,8.6c0.1,2,1.3,3.7,3.2,4.8l0,0c0,0.5-0.3,0.9-1,1
		c-0.4,0.1-0.7,0.3-0.7,0.6c-0.1,0.5,0.3,0.7,0.8,0.7c2.2,0.1,3.8-0.1,5-1c1.4,0.2,2.5,0.2,3.7,0.1
		C-118-970.8-114.6-974.8-115.7-979.9z M-123.5-971.4c-1.1,0.1-2.2,0-3.6-0.2h-0.2c-1,0.8-2.1,1.1-3.5,1.1c0.4-0.4,0.6-0.9,0.6-1.5
		c0-0.3-0.2-0.6-0.5-0.8c-1.8-1-2.8-2.4-2.8-4c-0.1-3.6,3.2-6.7,7.5-7.6c4.5-1,8.4,0.8,9.3,4.6l0,0
		C-115.7-975.2-118.6-971.7-123.5-971.4z"/>
</g>
<g>
	<path class="st0" d="M-85-1015.1c-1.1,0-2,0.9-2,2s0.9,2,2,2s2-0.9,2-2S-83.9-1015.1-85-1015.1z"/>
	<path class="st0" d="M-80-1013.1c0-2.8-2.2-5-5-5s-5,2.2-5,5s2.2,5,5,5S-80-1010.3-80-1013.1z M-85-1009.1c-2.2,0-4-1.8-4-4
		s1.8-4,4-4s4,1.8,4,4S-82.8-1009.1-85-1009.1z"/>
	<path class="st0" d="M-76.1-1014.2c-1.9-2-4.8-4.9-8.9-4.9c-5,0-8.2,4.3-10,6c1.8,1.7,5,6,10,6c3.3,0,5.9-1.9,7.7-3.7
		c0.9-0.9,1.7-1.7,2.3-2.3C-75.3-1013.4-75.7-1013.8-76.1-1014.2z M-76.7-1012.8c-0.4,0.4-0.8,0.8-1.3,1.3c-1.7,1.6-3.9,3.4-7,3.4
		c-3.8,0-6.5-2.8-8.3-4.7c-0.1-0.1-0.2-0.2-0.3-0.3c0.1-0.1,0.2-0.2,0.3-0.3c1.8-1.9,4.5-4.7,8.3-4.7s6.4,2.8,8.2,4.6l0.1,0.1
		c0.1,0.1,0.2,0.2,0.3,0.3C-76.5-1013-76.6-1012.9-76.7-1012.8z"/>
</g>
<g>
	<path class="st0" d="M-75.7-979.9L-75.7-979.9L-75.7-979.9z"/>
	<path class="st0" d="M-75.7-979.9c-1-4.5-5.4-6.5-10.5-5.4c-4.7,1-8.4,4.5-8.3,8.6c0.1,2,1.3,3.7,3.2,4.8l0,0c0,0.5-0.3,0.9-1,1
		c-0.4,0.1-0.7,0.3-0.7,0.6c-0.1,0.5,0.3,0.7,0.8,0.7c2.2,0.1,3.8-0.1,5-1c1.4,0.2,2.5,0.2,3.7,0.1C-78-970.8-74.6-974.8-75.7-979.9
		z M-83.5-971.4c-1.1,0.1-2.2,0-3.6-0.2h-0.2c-1,0.8-2.1,1.1-3.5,1.1c0.4-0.4,0.6-0.9,0.6-1.5c0-0.3-0.2-0.6-0.5-0.8
		c-1.8-1-2.8-2.4-2.8-4c-0.1-3.6,3.2-6.7,7.5-7.6c4.5-1,8.4,0.8,9.3,4.6l0,0C-75.7-975.2-78.6-971.7-83.5-971.4z"/>
</g>
<path class="st29" d="M-91.3-971.9C-91.3-971.9-91.2-971.9-91.3-971.9c0,0.5-0.3,0.9-1,1c-0.4,0.1-0.7,0.3-0.7,0.6
	c-0.1,0.5,0.3,0.7,0.8,0.7c2.2,0.1,3.8-0.1,5-1c1.4,0.2,2.5,0.2,3.7,0.1c5.4-0.4,8.8-4.4,7.7-9.5c-1-4.5-5.4-6.5-10.5-5.4
	c-4.7,1-8.4,4.5-8.3,8.6C-94.4-974.7-93.2-973-91.3-971.9"/>
<g>
	<path class="st0" d="M-85-935.3c-1.2,0-2.2,1-2.2,2.2s1,2.2,2.2,2.2s2.2-1,2.2-2.2S-83.8-935.3-85-935.3z M-85-931.9
		c-0.7,0-1.2-0.6-1.2-1.2s0.6-1.2,1.2-1.2s1.2,0.6,1.2,1.2S-84.3-931.9-85-931.9z"/>
	<path class="st0" d="M-77-934.9h-1.6c-0.1-0.5-0.3-1-0.6-1.4l1.2-1.2c0.4-0.4,0.4-1,0-1.4l-1.1-1.1c-0.4-0.4-1-0.4-1.4,0l-1.2,1.2
		c-0.4-0.2-0.9-0.4-1.4-0.6v-1.6c0-0.6-0.4-1-1-1h-1.6c-0.6,0-1,0.4-1,1v1.6c-0.5,0.1-1,0.3-1.4,0.6l-1.2-1.2c-0.4-0.4-1-0.4-1.4,0
		l-1.1,1.1c-0.4,0.4-0.4,1,0,1.4l1.2,1.2c-0.2,0.4-0.4,0.9-0.6,1.4h-1.6c-0.6,0-1,0.4-1,1v1.6c0,0.6,0.4,1,1,1h1.6
		c0.1,0.5,0.3,1,0.6,1.4l-1.2,1.2c-0.4,0.4-0.4,1,0,1.4l1.1,1.1c0.4,0.4,1,0.4,1.4,0l1.2-1.2c0.4,0.2,0.9,0.4,1.4,0.6v1.6
		c0,0.6,0.4,1,1,1h1.6c0.6,0,1-0.4,1-1v-1.6c0.5-0.1,1-0.3,1.4-0.6l1.2,1.2c0.4,0.4,1,0.4,1.4,0l1.1-1.1c0.4-0.4,0.4-1,0-1.4
		l-1.2-1.2c0.2-0.4,0.4-0.9,0.6-1.4h1.6c0.6,0,1-0.4,1-1v-1.6C-76-934.5-76.4-934.9-77-934.9z M-77-932.3L-77-932.3h-1.7h-0.8
		l-0.2,0.7c-0.1,0.4-0.3,0.8-0.5,1.2l-0.4,0.7l0.5,0.5l1.2,1.2l0,0l-1.1,1.1l0,0l-1.2-1.2l-0.5-0.5l-0.7,0.4
		c-0.4,0.2-0.8,0.4-1.2,0.5l-0.7,0.2v0.8v1.6l0,0h-1.6l0,0v-1.6v-0.8l-0.7-0.2c-0.4-0.1-0.8-0.3-1.2-0.5l-0.7-0.4l-0.5,0.5l-1.2,1.2
		l0,0l-1.1-1.1l0,0l1.2-1.2l0.5-0.5l-0.4-0.7c-0.2-0.4-0.4-0.8-0.5-1.2l-0.2-0.7h-0.8h-1.6l0,0v-1.6l0,0h1.6h0.8l0.2-0.7
		c0.1-0.4,0.3-0.8,0.5-1.2l0.4-0.7l-0.5-0.5l-1.2-1.2l0,0l1.1-1.1l0,0l1.2,1.2l0.5,0.5l0.7-0.4c0.4-0.2,0.8-0.4,1.2-0.5l0.7-0.2
		v-0.8v-1.6l0,0h1.6l0,0v1.6v0.8l0.7,0.2c0.4,0.1,0.8,0.3,1.2,0.5l0.7,0.4l0.5-0.5l1.2-1.2l0,0l1.1,1.1l0,0l-1.2,1.2l-0.5,0.5
		l0.4,0.7c0.2,0.4,0.4,0.8,0.5,1.2l0.2,0.7h0.8h1.6l0,0L-77-932.3L-77-932.3z"/>
</g>
<path class="st29" d="M-77-934.9h-1.6c-0.1-0.5-0.3-1-0.6-1.4l1.2-1.2c0.4-0.4,0.4-1,0-1.4l-1.1-1.1c-0.4-0.4-1-0.4-1.4,0l-1.2,1.2
	c-0.4-0.2-0.9-0.4-1.4-0.6v-1.6c0-0.6-0.4-1-1-1h-1.6c-0.6,0-1,0.4-1,1v1.6c-0.5,0.1-1,0.3-1.4,0.6l-1.2-1.2c-0.4-0.4-1-0.4-1.4,0
	l-1.1,1.1c-0.4,0.4-0.4,1,0,1.4l1.2,1.2c-0.2,0.4-0.4,0.9-0.6,1.4h-1.6c-0.6,0-1,0.4-1,1v1.6c0,0.6,0.4,1,1,1h1.6
	c0.1,0.5,0.3,1,0.6,1.4l-1.2,1.2c-0.4,0.4-0.4,1,0,1.4l1.1,1.1c0.4,0.4,1,0.4,1.4,0l1.2-1.2c0.4,0.2,0.9,0.4,1.4,0.6v1.6
	c0,0.6,0.4,1,1,1h1.6c0.6,0,1-0.4,1-1v-1.6c0.5-0.1,1-0.3,1.4-0.6l1.2,1.2c0.4,0.4,1,0.4,1.4,0l1.1-1.1c0.4-0.4,0.4-1,0-1.4
	l-1.2-1.2c0.2-0.4,0.4-0.9,0.6-1.4h1.6c0.6,0,1-0.4,1-1v-1.6C-76-934.5-76.4-934.9-77-934.9z"/>
<path class="st30" d="M-131.3-971.9C-131.3-971.9-131.2-971.9-131.3-971.9c0,0.5-0.3,0.9-1,1c-0.4,0.1-0.7,0.3-0.7,0.6
	c-0.1,0.5,0.3,0.7,0.8,0.7c2.2,0.1,3.8-0.1,5-1c1.4,0.2,2.5,0.2,3.7,0.1c5.4-0.4,8.8-4.4,7.7-9.5c-1-4.5-5.4-6.5-10.5-5.4
	c-4.7,1-8.4,4.5-8.3,8.6C-134.4-974.7-133.2-973-131.3-971.9"/>
<path class="st30" d="M-117-934.9h-1.6c-0.1-0.5-0.3-1-0.6-1.4l1.2-1.2c0.4-0.4,0.4-1,0-1.4l-1.1-1.1c-0.4-0.4-1-0.4-1.4,0l-1.2,1.2
	c-0.4-0.2-0.9-0.4-1.4-0.6v-1.6c0-0.6-0.4-1-1-1h-1.6c-0.6,0-1,0.4-1,1v1.6c-0.5,0.1-1,0.3-1.4,0.6l-1.2-1.2c-0.4-0.4-1-0.4-1.4,0
	l-1.1,1.1c-0.4,0.4-0.4,1,0,1.4l1.2,1.2c-0.2,0.4-0.4,0.9-0.6,1.4h-1.6c-0.6,0-1,0.4-1,1v1.6c0,0.6,0.4,1,1,1h1.6
	c0.1,0.5,0.3,1,0.6,1.4l-1.2,1.2c-0.4,0.4-0.4,1,0,1.4l1.1,1.1c0.4,0.4,1,0.4,1.4,0l1.2-1.2c0.4,0.2,0.9,0.4,1.4,0.6v1.6
	c0,0.6,0.4,1,1,1h1.6c0.6,0,1-0.4,1-1v-1.6c0.5-0.1,1-0.3,1.4-0.6l1.2,1.2c0.4,0.4,1,0.4,1.4,0l1.1-1.1c0.4-0.4,0.4-1,0-1.4
	l-1.2-1.2c0.2-0.4,0.4-0.9,0.6-1.4h1.6c0.6,0,1-0.4,1-1v-1.6C-116-934.5-116.4-934.9-117-934.9z M-125-931.9c-0.7,0-1.2-0.6-1.2-1.2
	s0.6-1.2,1.2-1.2s1.2,0.6,1.2,1.2S-124.3-931.9-125-931.9z"/>
<path id="Fill-53-Copy_1_" sketch:type="MSShapeGroup" class="st11" d="M-68.3-1468.8c-1.7-1.7-3-3.8-4.1-6c-1.1-2-0.5-3.9,1.5-5.1
	c0.7-0.4,1.3-0.4,1.8,0.2c0.2,0.3,1.2,1.4,1.4,1.8c0.8,1,0.8,1.6-0.6,2.9c-0.6,0.6-0.4,1.3,0,1.7l4.3,4.3c0.4,0.4,1.2,0.6,1.7,0
	c1.4-1.4,2-1.4,2.9-0.6c0.3,0.2,1.4,1.2,1.8,1.4c0.6,0.5,0.7,1.1,0.2,1.8c-1.2,2-3,2.6-5.1,1.5C-64.5-1465.8-66.6-1467-68.3-1468.8
	L-68.3-1468.8z"/>
<path id="Fill-2-Copy_4_" sketch:type="MSShapeGroup" class="st11" d="M-60-1435.1l5,4v-10l-5,4V-1435.1z M-73-1440.1
	c0-1.1,0.9-2,2-2h8c1.1,0,2,0.9,2,2v8c0,1.1-0.9,2-2,2h-8c-1.1,0-2-0.9-2-2V-1440.1z"/>
<path id="Fill-53-Copy_2_" sketch:type="MSShapeGroup" class="st0" d="M-18.3-1468.8c-1.7-1.7-3-3.8-4.1-6c-1.1-2-0.5-3.9,1.5-5.1
	c0.7-0.4,1.3-0.4,1.8,0.2c0.2,0.3,1.2,1.4,1.4,1.8c0.8,1,0.8,1.6-0.6,2.9c-0.6,0.6-0.4,1.3,0,1.7l4.3,4.3c0.4,0.4,1.2,0.6,1.7,0
	c1.4-1.4,2-1.4,2.9-0.6c0.3,0.2,1.4,1.2,1.8,1.4c0.6,0.5,0.7,1.1,0.2,1.8c-1.2,2-3,2.6-5.1,1.5C-14.5-1465.8-16.6-1467-18.3-1468.8
	L-18.3-1468.8z"/>
<path id="Fill-2-Copy_5_" sketch:type="MSShapeGroup" class="st0" d="M-10-1435.1l5,4v-10l-5,4V-1435.1z M-23-1440.1
	c0-1.1,0.9-2,2-2h8c1.1,0,2,0.9,2,2v8c0,1.1-0.9,2-2,2h-8c-1.1,0-2-0.9-2-2V-1440.1z"/>
</svg>
