<?xml version="1.0" encoding="utf-8"?>
<!-- Generator: Adobe Illustrator 19.0.0, SVG Export Plug-In . SVG Version: 6.00 Build 0)  -->
<svg version="1.1" id="Layer_1" xmlns:sketch="http://www.bohemiancoding.com/sketch/ns"
	 xmlns="http://www.w3.org/2000/svg" xmlns:xlink="http://www.w3.org/1999/xlink" x="0px" y="0px" width="237px" height="3671px"
	 viewBox="-187 -1239.5 237 3671" style="enable-background:new -187 -1239.5 237 3671;" xml:space="preserve">
<style type="text/css">
	.st0{filter:url(#filter-1);}
	.st1{fill:#FFFFFF;}
	.st2{opacity:0.6;filter:url(#filter-1);}
	.st3{opacity:0.6;fill:#333333;enable-background:new    ;}
	.st4{opacity:0.6;fill:#31B500;enable-background:new    ;}
	.st5{opacity:0.6;}
	.st6{fill:#333333;}
	.st7{fill:#999999;}
	.st8{fill:#2BA6DE;}
	.st9{opacity:0.5;}
	.st10{opacity:0.7;enable-background:new    ;}
	.st11{opacity:0.7;fill:#D90007;enable-background:new    ;}
	.st12{fill:#111111;}
	.st13{fill:#777777;}
	.st14{fill:#E44C51;}
	.st15{fill:none;stroke:#777777;}
	.st16{fill:none;stroke:#FFFFFF;}
	.st17{opacity:0.3;enable-background:new    ;}
	.st18{fill:#FFA500;}
	.st19{opacity:0.7;fill:#FFFFFF;enable-background:new    ;}
	.st20{opacity:5.000000e-02;enable-background:new    ;}
	.st21{fill:none;}
	.st22{enable-background:new    ;}
	.st23{opacity:7.000000e-02;enable-background:new    ;}
	.st24{opacity:0.7;fill:#333333;enable-background:new    ;}
	.st25{fill:#858585;}
	.st26{filter:url(#Adobe_OpacityMaskFilter);}
	.st27{mask:url(#mask-2_1_);fill:#FF333A;}
	.st28{opacity:0.7;fill:#61D2FF;enable-background:new    ;}
	.st29{fill:#61D2FF;}
	.st30{fill:#FF333A;}
	.st31{fill:none;stroke:#FF333A;stroke-width:1.5;}
	.st32{opacity:0.5;fill:none;stroke:#61D2FF;enable-background:new    ;}
	.st33{fill:none;stroke:#61D2FF;stroke-width:1.5;}
	.st34{opacity:0.5;fill:none;stroke:#FFFFFF;enable-background:new    ;}
	.st35{fill:none;stroke:#FFFFFF;stroke-width:1.5;}
	.st36{fill:#FFFFFF;enable-background:new    ;}
</style>
<filter  y="-50%" x="-50%" width="200%" height="200%" filterUnits="objectBoundingBox" id="filter-1">
	<feOffset  result="shadowOffsetOuter1" in="SourceAlpha" dy="1" dx="0"></feOffset>
	<feGaussianBlur  result="shadowBlurOuter1" stdDeviation="1" in="shadowOffsetOuter1"></feGaussianBlur>
	
		<feColorMatrix  type="matrix" result="shadowMatrixOuter1" values="0 0 0 0 0   0 0 0 0 0   0 0 0 0 0  0 0 0 0.105 0" in="shadowBlurOuter1">
		</feColorMatrix>
	<feMerge>
		<feMergeNode  in="shadowMatrixOuter1"></feMergeNode>
		<feMergeNode  in="SourceGraphic"></feMergeNode>
	</feMerge>
</filter>
<g id="Rectangle-16-Copy-14_1_" sketch:type="MSShapeGroup" class="st0">
	<path class="st1" d="M-168,180.2c1.4-1.4,4.6-3.5,8-3.5h-1h-25l0,0c2,0,5.7,2.1,7.1,3.5l4,4.1c0.8,0.8,2,0.8,2.8,0L-168,180.2z"/>
</g>
<g id="Rectangle-16-Copy-14_2_" sketch:type="MSShapeGroup" class="st2">
	<path class="st1" d="M-168,180.2c1.4-1.4,4.6-3.5,8-3.5h-1h-25l0,0c2,0,5.7,2.1,7.1,3.5l4,4.1c0.8,0.8,2,0.8,2.8,0L-168,180.2z"/>
</g>
<title>Untitled 2</title>
<desc>Created with Sketch.</desc>
<path id="Rectangle-144-Copy-3" sketch:type="MSShapeGroup" class="st1" d="M-174,216.5v-7h-2v7h-7v2h7v7h2v-7h7v-2H-174z"/>
<path id="Rectangle-144-Copy-2" sketch:type="MSShapeGroup" class="st3" d="M-174,243.5v-7h-2v7h-7v2h7v7h2v-7h7v-2H-174z"/>
<path id="Rectangle-144-Copy-4" sketch:type="MSShapeGroup" class="st4" d="M-174,273.5v-7h-2v7h-7v2h7v7h2v-7h7v-2H-174z"/>
<g id="Imported-Layers-Copy" transform="translate(3.000000, 1546.000000)" sketch:type="MSLayerGroup" class="st5">
	<g id="Imported-Layers" sketch:type="MSShapeGroup">
		<path id="Fill-1" class="st6" d="M-177-1237.5c4.4,0,8,3.6,8,8s-3.6,8-8,8s-8-3.6-8-8S-181.4-1237.5-177-1237.5 M-177-1239.5
			c-5.5,0-10,4.5-10,10s4.5,10,10,10s10-4.5,10-10S-171.5-1239.5-177-1239.5"/>
		<path id="Fill-2" class="st7" d="M-172.2-1227.5c-0.5,2.3-2.5,4-4.9,4s-4.4-1.7-4.9-4H-172.2 M-171-1228.5h-12.2l0.2,1.2
			c0.6,2.8,3,4.8,5.9,4.8c2.8,0,5.3-2,5.9-4.8L-171-1228.5"/>
		<path id="Fill-3" class="st6" d="M-172-1227.5c-0.5,2.3-2.5,4-5,4s-4.5-1.7-5-4H-172 M-183-1228.5v1.2c0.6,2.8,3.1,4.8,6,4.8
			s5.4-2,6-4.8v-1.2H-183"/>
		<path id="Fill-4" class="st6" d="M-171-1231c0,0.8-0.7,1.5-1.5,1.5s-1.5-0.7-1.5-1.5s0.7-1.5,1.5-1.5S-171-1231.8-171-1231"/>
		<path id="Fill-5" class="st6" d="M-180-1231c0,0.8-0.7,1.5-1.5,1.5s-1.5-0.7-1.5-1.5s0.7-1.5,1.5-1.5S-180-1231.8-180-1231"/>
		<path id="Fill-6" class="st6" d="M-173-1224.5h-8l-1-2h10L-173-1224.5"/>
	</g>
</g>
<path id="Imported-Layers_1_" sketch:type="MSShapeGroup" class="st8" d="M-181.2,427.2c-0.3,0-0.6,0-1,0c-0.6,0-1-0.5-0.9-1.1
	c0-0.5,0.4-0.9,0.9-0.9c-0.1-0.3,0-0.7,0.2-0.9c0.1-0.1,0.1-0.2,0.2-0.4c-0.6-0.3-1.1-0.8-1.6-1.2c-0.4-0.4-0.4-1-0.1-1.4
	c0.4-0.4,1-0.4,1.4-0.1c0.4,0.4,0.9,0.7,1.5,1.1c0.5,0.4,0.8,0.8,0.8,1.4v0.1c0,0.5-0.1,1-0.4,1.4c0.7-0.1,1.2-0.2,1.8-0.3
	c0.5-0.2,1.1,0.1,1.2,0.7c0.2,0.5-0.1,1.1-0.7,1.2C-178.9,427.1-179.9,427.2-181.2,427.2L-181.2,427.2z M-172.8,426.1
	c-0.9,0-1.8-0.1-2.8-0.2c-0.5-0.1-0.9-0.6-0.9-1.1c0.1-0.5,0.6-1,1.1-0.9c1.4,0.2,2.6,0.2,3.7,0.1l0.2,1l0.1,1
	C-171.9,426.1-172.4,426.1-172.8,426.1L-172.8,426.1z M-168.5,425.4c-0.4,0-0.8-0.3-1-0.7c-0.2-0.5,0.1-1.1,0.6-1.3
	c1.2-0.4,2.3-1,3.1-1.7c0.4-0.4,1.1-0.3,1.4,0.1c0.4,0.4,0.3,1.1-0.1,1.4c-1.1,0.9-2.4,1.6-3.8,2.1
	C-168.3,425.4-168.4,425.4-168.5,425.4L-168.5,425.4z M-163.1,421.2c-0.2,0-0.3,0-0.5-0.1c-0.5-0.3-0.6-0.9-0.4-1.4
	c0.6-1,0.9-2.1,1-3.4c0-0.6,0.5-0.9,1.1-0.9s1,0.5,0.9,1.1c-0.1,1.5-0.5,2.9-1.2,4.2C-162.5,421-162.8,421.2-163.1,421.2
	L-163.1,421.2z M-184.6,420.5c-0.4,0-0.8-0.2-0.9-0.6c-0.3-0.8-0.5-1.6-0.5-2.5v-0.2c0-0.6,0.1-1.2,0.2-1.8c0.1-0.5,0.6-0.9,1.2-0.8
	c0.5,0.1,0.9,0.6,0.8,1.2c-0.1,0.5-0.1,0.9-0.1,1.4v0.2c0,0.6,0.1,1.2,0.4,1.7c0.2,0.5,0,1.1-0.5,1.3
	C-184.3,420.5-184.4,420.5-184.6,420.5L-184.6,420.5z M-162.3,414.4c-0.5,0-0.8-0.3-0.9-0.7v-0.1c-0.3-1.2-0.7-2.2-1.4-3.1
	c-0.3-0.4-0.3-1.1,0.2-1.4c0.4-0.3,1.1-0.3,1.4,0.2c0.9,1.1,1.5,2.4,1.8,3.9c0.1,0.5-0.2,1.1-0.8,1.2
	C-162.1,414.4-162.2,414.4-162.3,414.4L-162.3,414.4z M-183.8,413.8c-0.2,0-0.3,0-0.5-0.1c-0.5-0.3-0.6-0.9-0.4-1.4
	c0.7-1.2,1.7-2.3,2.9-3.3c0.4-0.4,1.1-0.3,1.4,0.1c0.4,0.4,0.3,1.1-0.1,1.4c-1,0.8-1.8,1.7-2.4,2.7
	C-183.1,413.6-183.4,413.8-183.8,413.8L-183.8,413.8z M-178.6,409.2c-0.4,0-0.7-0.2-0.9-0.5c-0.3-0.5-0.1-1.1,0.4-1.3
	c1.3-0.7,2.6-1.1,4-1.5c0.7-0.2,1.4-0.3,2.2-0.3c0.6-0.1,1,0.4,1.1,0.9c0,0.6-0.4,1-0.9,1.1c-0.6,0.1-1.3,0.1-1.9,0.3
	c-1.2,0.3-2.4,0.7-3.5,1.3C-178.3,409.1-178.5,409.2-178.6,409.2L-178.6,409.2z M-166.1,408.9c-0.2,0-0.3,0-0.5-0.1
	c-1-0.6-2.1-1-3.4-1.1c-0.5-0.1-0.9-0.6-0.8-1.1c0.1-0.6,0.6-0.9,1.1-0.9c1.5,0.2,2.9,0.7,4.1,1.4c0.5,0.3,0.6,0.9,0.3,1.4
	C-165.4,408.7-165.8,408.9-166.1,408.9L-166.1,408.9z"/>
<g id="ic_chat" transform="translate(4.000000, 1744.000000)" sketch:type="MSLayerGroup" class="st9">
	<path id="Fill-80" sketch:type="MSShapeGroup" class="st10" d="M-169.1,84.3c-0.5-0.1-0.8-0.5-0.8-0.9c0-0.1,0.1-0.2,0.1-0.2
		c1-0.6,1.8-1.5,1.8-2.6c0.1-2.3-2.1-4.1-4.3-4.7c0.1,1.7-0.4,3.3-1.4,4.6c-0.9,1.1-2.2,1.9-3.7,2.4c0.8,0.7,1.9,1.2,3.1,1.2
		c0.7,0.1,1.5,0,2.2-0.1c0.8,0.6,2,0.7,2.9,0.6C-168.8,84.5-168.9,84.3-169.1,84.3"/>
	<path id="Fill-81" sketch:type="MSShapeGroup" d="M-173.9,74.7c-0.8-3.6-4.4-4.7-7.8-4c-3.2,0.7-6.4,3.1-6.3,6.4
		c0,1.5,1,2.7,2.4,3.5c0.1,0.1,0.2,0.2,0.2,0.3c0,0.6-0.5,1.1-1.1,1.2c-0.3,0.1-0.4,0.2,0,0.3c1.3,0.1,2.8,0,3.9-0.8
		c1,0.1,2,0.2,2.9,0.1C-175.7,81.5-173,78.6-173.9,74.7"/>
</g>
<path id="Fill-57-Copy" sketch:type="MSShapeGroup" class="st6" d="M-181-1119.5c0,4.4,3.6,8,8,8s8-3.6,8-8s-3.6-8-8-8
	S-181-1123.9-181-1119.5L-181-1119.5z M-174-1124.5h2v4h4v2h-4v4h-2v-4h-4v-2h4V-1124.5L-174-1124.5z"/>
<path id="Fill-9-Copy-9" sketch:type="MSShapeGroup" class="st11" d="M-181-1011.5c0,4.4,3.6,8,8,8s8-3.6,8-8s-3.6-8-8-8
	S-181-1015.9-181-1011.5L-181-1011.5z M-178-1012.5h10v2h-10V-1012.5z"/>
<path id="ic_cloud-copy" sketch:type="MSShapeGroup" class="st6" d="M-183-964.9c0,2.4,1.8,4.4,4.1,4.4h11.8c2.3,0,4.1-2,4.1-4.4
	s-1.7-4.3-3.9-4.4l0,0c0-2.8-2.1-5.2-4.8-5.2c-1.7,0-3.2,1-4.1,2.4c-0.3-0.1-0.6-0.2-0.9-0.2c-1.3,0-2.4,1.1-2.4,2.5
	c0,0.2,0,0.3,0,0.4C-181.2-969.2-183-967.3-183-964.9"/>
<path id="Fill-1_1_" sketch:type="MSShapeGroup" class="st6" d="M-180-930.5h14v9h-14V-930.5z M-166-932.5h-14c-1.1,0-2,0.9-2,2v9
	c0,1.1,0.9,2,2,2h4v1l-4,1v1h14v-1l-4-1v-1h4c1.1,0,2-0.9,2-2v-9C-164-931.6-164.9-932.5-166-932.5L-166-932.5z M-165-921.5
	c0,0.5-0.4,1-1,1h-14c-0.6,0-1-0.5-1-1v-9c0-0.5,0.4-1,1-1h14c0.6,0,1,0.5,1,1V-921.5L-165-921.5z"/>
<g id="Fill-1-_x2B_-Fill-2" transform="translate(11.000000, 181.000000)" sketch:type="MSLayerGroup">
	<path id="Fill-1_2_" sketch:type="MSShapeGroup" class="st6" d="M-176.9-1221.5h-14.2c-0.5,0-0.9-0.4-0.9-0.9v-10.1h16v10.1
		C-176-1221.9-176.4-1221.5-176.9-1221.5z M-178.1-1225.4c-0.1-0.1-1.2-0.6-1.5-0.7c0,0,0-0.2-0.1-0.2s-0.2-0.1-0.2-0.1v-0.1v-0.1
		c0,0,0.1-0.2,0.1-0.3c0-0.1,0.1-0.3,0.1-0.3l0.1-0.1c0.1,0,0.2-0.5,0.2-0.5c0-0.2,0-0.1,0-0.2v-0.4c0-0.5-0.5-0.9-1.1-0.9l0,0
		c-0.5,0-1.1,0.3-1.1,0.9v0.4c0,0.1,0,0,0,0.2c0,0,0.1,0.5,0.2,0.5c0,0,0.1,0,0.1,0.1c0,0,0,0.2,0.1,0.3c0,0.1,0.1,0.2,0.1,0.3
		c0,0,0,0,0,0.1v0.1l-0.2,0.1c-0.1,0-0.1,0.2-0.1,0.2h-0.1c0.5,0.2,1.2,0.6,1.3,0.7c0,0,0.2,0.2,0.2,0.9h1.6c0.1,0,0.3-0.1,0.3-0.2
		v-0.1C-178-1224.8-178-1225.3-178.1-1225.4z M-186.6-1226.1c0,0,0-0.2-0.1-0.2s-0.2-0.1-0.2-0.1v-0.1v-0.1c0,0,0.1-0.2,0.1-0.3
		c0-0.1,0.1-0.3,0.1-0.3l0.1-0.1c0.1,0,0.2-0.5,0.2-0.5c0-0.2,0-0.1,0-0.2v-0.4c0-0.5-0.5-0.9-1.1-0.9l0,0c-0.5,0-1.1,0.3-1.1,0.9
		v0.4c0,0.1,0,0,0,0.2c0,0,0.1,0.5,0.2,0.5c0,0,0.1,0,0.1,0.1c0,0,0,0.2,0.1,0.3c0,0.1,0.1,0.2,0.1,0.3c0,0,0,0,0,0.1v0.1l-0.2,0.1
		c-0.1,0-0.1,0.2-0.1,0.2c-0.2,0.1-1.3,0.6-1.5,0.7c-0.1,0.1-0.1,0.6-0.1,0.6v0.1c0,0.1,0.2,0.2,0.3,0.2h1.6c0-0.7,0.1-0.8,0.2-0.9
		C-187.8-1225.5-187.1-1225.8-186.6-1226.1L-186.6-1226.1z M-182.8-1226.2c0-0.1,0-0.3-0.1-0.3s-0.3-0.1-0.3-0.1v-0.1
		c0-0.1,0-0.1,0-0.1c0-0.1,0.2-0.2,0.2-0.3c0-0.1,0.1-0.4,0.1-0.4c0-0.1,0.1-0.1,0.2-0.1c0.1-0.1,0.2-0.7,0.2-0.7
		c0-0.2-0.1-0.1-0.1-0.3v-0.6c0-0.7-0.6-1.1-1.3-1.1l0,0c-0.7,0-1.3,0.4-1.3,1.1v0.6c0,0.2-0.1,0.1-0.1,0.3c0,0,0.1,0.7,0.2,0.7
		c0.1,0,0.2,0.1,0.2,0.1s0,0.3,0.1,0.4c0,0.1,0.2,0.3,0.2,0.3v0.1c0,0.1,0,0.1,0,0.1s-0.2,0.1-0.3,0.1s-0.1,0.2-0.1,0.3
		c-0.3,0.1-1.8,0.8-1.9,0.9c-0.1,0.1-0.1,0.9-0.1,0.9v0.1c0,0.2,0.2,0.9,0.3,0.9h5.8c0.2,0,0.3-0.7,0.3-0.9v-0.1c0,0,0-0.7-0.1-0.9
		C-181-1225.5-182.5-1226.2-182.8-1226.2z"/>
	<path id="Fill-2_1_" sketch:type="MSShapeGroup" class="st12" d="M-185.9-1235.5c0.3,0,0.5,0.1,0.7,0.3l0.9,0.9
		c0.6,0.7,1,0.8,1.3,0.8h6c0.6,0,1,0.4,1,1h-16v-2c0-0.6,0.4-1,1-1L-185.9-1235.5z"/>
</g>
<path id="Fill-53-Copy" sketch:type="MSShapeGroup" class="st6" d="M-176.3-1188.2c-1.7-1.7-3-3.8-4.1-6c-1.1-2-0.5-3.9,1.5-5.1
	c0.7-0.4,1.3-0.4,1.8,0.2c0.2,0.3,1.2,1.4,1.4,1.8c0.8,1,0.8,1.6-0.6,2.9c-0.6,0.6-0.4,1.3,0,1.7l4.3,4.3c0.4,0.4,1.2,0.6,1.7,0
	c1.4-1.4,2-1.4,2.9-0.6c0.3,0.2,1.4,1.2,1.8,1.4c0.6,0.5,0.7,1.1,0.2,1.8c-1.2,2-3,2.6-5.1,1.5
	C-172.5-1185.2-174.6-1186.4-176.3-1188.2L-176.3-1188.2z"/>
<path class="st6" d="M-173-1091.5c-4.4,0-8,3.6-8,8s3.6,8,8,8s8-3.6,8-8S-168.6-1091.5-173-1091.5z M-169-1082.5l-3-3v7h-2v-7l-3,3
	l-1-1l5-5l5,5L-169-1082.5z"/>
<path id="Fill-2-Copy" sketch:type="MSShapeGroup" class="st6" d="M-168-1154.5l5,4v-10l-5,4V-1154.5z M-181-1159.5c0-1.1,0.9-2,2-2
	h8c1.1,0,2,0.9,2,2v8c0,1.1-0.9,2-2,2h-8c-1.1,0-2-0.9-2-2V-1159.5z"/>
<path id="Fill-37" sketch:type="MSShapeGroup" class="st1" d="M-178,119.5l1.4-1.3l1.7,1.7l3.5-3.3l1.4,1.3l-4.9,4.7L-178,119.5"/>
<path id="ic_search-copy" sketch:type="MSShapeGroup" class="st13" d="M-164.2,63.4l-3-3c-0.2-0.2-0.5-0.2-0.8-0.1l-1.2-1.2
	c0.7-1,1.2-2.2,1.2-3.5c0-3.3-2.7-6-6-6s-6,2.7-6,6s2.7,6,6,6c1.3,0,2.5-0.4,3.5-1.2l1.2,1.2c-0.1,0.3-0.1,0.5,0.1,0.7l3,3
	c0.3,0.2,0.7,0.2,0.9,0l1-1C-163.9,64-163.9,63.6-164.2,63.4L-164.2,63.4z M-178,55.5c0-2.2,1.8-4,4-4s4,1.8,4,4s-1.8,4-4,4
	S-178,57.7-178,55.5L-178,55.5z"/>
<path id="Rectangle-144-Copy-3_1_" sketch:type="MSShapeGroup" class="st14" d="M-172.6-767.5l4.9-4.9l-1.4-1.4l-4.9,5l-4.9-5
	l-1.4,1.4l5,4.9l-5,4.9l1.4,1.4l4.9-5l4.9,5l1.4-1.4L-172.6-767.5z"/>
<g id="Group-Copy-2" transform="translate(7.000000, 348.000000)" sketch:type="MSLayerGroup">
	<path id="Rectangle-67" sketch:type="MSShapeGroup" class="st15" d="M-188-1228.5l9.6-9.6c0.8-0.8,2.1-0.8,2.8,0l0.2,0.2
		c0.8,0.8,0.8,2.1,0,2.8l-9.6,9.6l-5,2L-188-1228.5z"/>
	<path id="Path-280" sketch:type="MSShapeGroup" class="st15" d="M-180-1236.5l3.1,3"/>
	<path id="Path-280-Copy" sketch:type="MSShapeGroup" class="st15" d="M-187-1229.5l3.1,3"/>
	<rect id="Rectangle-68-Copy" x="-181" y="-1224.5" sketch:type="MSShapeGroup" class="st13" width="4" height="1">
	</rect>
	<rect id="Rectangle-68-Copy-2" x="-175" y="-1224.5" sketch:type="MSShapeGroup" class="st13" width="2" height="1">
	</rect>
	<rect id="Rectangle-68-Copy-3" x="-185" y="-1224.5" sketch:type="MSShapeGroup" class="st13" width="2" height="1">
	</rect>
</g>
<path id="Rectangle-138-Copy-4" sketch:type="MSShapeGroup" class="st13" d="M-173-841.5h2v-4h-4v3v3h2V-841.5z M-179-841.5h2v-4h-4
	v3v3h2V-841.5L-179-841.5z"/>
<path id="Rectangle-144-Copy-7" sketch:type="MSShapeGroup" class="st13" d="M-172.6-801.5l4.9-4.9l-1.4-1.4l-4.9,4.9l-4.9-4.9
	l-1.4,1.4l5,4.9l-5,5l1.4,1.4l4.9-5l4.9,5l1.4-1.4L-172.6-801.5z"/>
<path id="Fill-5-Copy" sketch:type="MSShapeGroup" class="st13" d="M-171.1-730.9c0-0.1-0.1-0.7-0.3-0.8s-0.8-0.4-0.8-0.4
	s-0.1-0.2-0.1-0.3s0.1-0.3,0.1-0.3c0.1-0.2,0.4-0.5,0.4-0.8c0.1-0.3,0.2-1,0.2-1c0-0.2,0.2-0.2,0.4-0.3c0.3-0.1,0.5-1.7,0.5-1.7
	c0-0.5-0.2-0.3-0.2-0.7v-1.4c0-1.7-1.4-2.8-3.1-2.8h-0.1c-1.7,0-3.1,1.1-3.1,2.8v1.4c0,0.4-0.2,0.1-0.2,0.7c0,0,0.2,1.6,0.5,1.7
	c0.1,0.1,0.4,0.1,0.4,0.3c0,0,0.1,0.8,0.2,1c0.1,0.3,0.4,0.7,0.4,0.8c0,0,0.1,0.1,0.1,0.3c0,0.1-0.1,0.3-0.1,0.3s-0.6,0.3-0.8,0.4
	c-0.2,0.1-0.3,0.6-0.3,0.8c-0.7,0.2-4.3,1.9-4.8,2.3c-0.3,0.3-0.3,2.1-0.3,2.1v0.2c0,0.4,0.3,0.8,0.8,0.8h14.5
	c0.4,0,0.8-0.3,0.8-0.8v-0.2c0,0,0-1.8-0.3-2.1C-166.7-729-170.4-730.7-171.1-730.9z"/>
<path id="Imported-Layers-Copy-2" sketch:type="MSShapeGroup" class="st13" d="M-172.7-704.5c-0.7,0-1.4,0.1-2.2,0.2
	c-0.3,0.1-0.4,0.3-0.4,0.6c0,0.2,0.3,0.4,0.5,0.4h0.1c0.4-0.1,0.8-0.1,1.1-0.2l0,0l0,0c0,0,0,0,0.1,0l0,0l0,0l0,0l0,0l0,0l0,0l0,0
	l0,0l0,0l0,0l0,0l0,0l0,0l0,0l0,0l0,0l0,0l0,0l0,0l0,0l0,0l0,0l0,0l0,0l0,0l0,0l0,0l0,0l0,0l0,0l0,0l0,0l0,0l0,0l0,0l0,0l0,0l0,0
	l0,0l0,0l0,0l0,0l0,0l0,0l0,0l0,0l0,0l0,0l0,0l0,0l0,0l0,0l0,0l0,0l0,0l0,0l0,0l0,0l0,0l0,0l0,0l0,0l0,0l0,0l0,0l0,0l0,0l0,0l0,0
	l0,0l0,0l0,0l0,0l0,0l0,0l0,0l0,0l0,0l0,0l0,0l0,0l0,0l0,0l0,0l0,0l0,0l0,0l0,0l0,0l0,0l0,0l0,0l0,0l0,0l0,0l0,0l0,0l0,0l0,0l0,0
	l0,0l0,0l0,0l0,0l0,0l0,0l0,0l0,0l0,0l0,0l0,0l0,0l0,0l0,0l0,0l0,0l0,0l0,0l0,0l0,0l0,0l0,0l0,0l0,0l0,0l0,0l0,0l0,0l0,0l0,0l0,0
	l0,0l0,0l0,0l0,0l0,0l0,0l0,0l0,0l0,0l0,0l0,0l0,0l0,0l0,0l0,0l0,0l0,0l0,0l0,0l0,0l0,0l0,0l0,0l0,0l0,0l0,0c0,0,0,0,0.1,0
	c0,0,0,0,0.1,0c0.2,0,0.4,0,0.6,0l0,0l0,0l0,0l0,0l0,0l0,0l0,0l0,0l0,0l0,0l0,0l0,0l0,0l0,0l0,0l0,0l0,0l0,0l0,0l0,0l0,0l0,0l0,0
	l0,0l0,0l0,0l0,0l0,0l0,0l0,0l0,0l0,0l0,0l0,0l0,0l0,0l0,0l0,0l0,0l0,0l0,0l0,0l0,0l0,0l0,0l0,0l0,0l0,0l0,0l0,0l0,0l0,0l0,0l0,0
	l0,0l0,0l0,0l0,0l0,0l0,0l0,0l0,0l0,0l0,0l0,0l0,0l0,0l0,0l0,0l0,0l0,0l0,0l0,0l0,0l0,0l0,0l0,0l0,0l0,0l0,0l0,0l0,0l0,0l0,0l0,0
	l0,0l0,0l0,0l0,0l0,0l0,0c0.3,0,0.6,0.1,0.9,0.2h0.1c0.2,0,0.4-0.1,0.5-0.4c0.1-0.3-0.1-0.5-0.4-0.6c-0.7-0.2-1.4-0.3-2.2-0.3l0,0
	C-172.6-704.5-172.7-704.5-172.7-704.5L-172.7-704.5L-172.7-704.5z M-176.8-703.7c-0.1,0-0.1,0-0.2,0c-0.7,0.3-1.3,0.6-1.9,1
	c-0.2,0.1-0.3,0.5-0.2,0.7c0.1,0.1,0.3,0.2,0.4,0.2c0.1,0,0.2,0,0.3-0.1c0.3-0.2,0.7-0.4,1.1-0.6l0,0l0,0l0,0l0,0l0,0l0,0l0,0l0,0
	l0,0l0,0l0,0l0,0l0,0l0,0l0,0l0,0l0,0l0,0l0,0l0,0l0,0l0,0l0,0l0,0l0,0l0,0l0,0l0,0l0,0l0,0l0,0l0,0l0,0l0,0l0,0l0,0l0,0l0,0l0,0
	c0.2-0.1,0.4-0.2,0.5-0.2c0.3-0.1,0.4-0.4,0.3-0.6C-176.4-703.6-176.6-703.7-176.8-703.7L-176.8-703.7z M-180.3-701.4
	c-0.1,0-0.3,0-0.4,0.1c-0.6,0.6-1,1.2-1.4,1.8c-0.1,0.2-0.1,0.5,0.2,0.7c0.1,0,0.2,0.1,0.2,0.1c0.2,0,0.3-0.1,0.4-0.3
	c0-0.1,0.1-0.1,0.1-0.2l0,0l0,0l0,0l0,0l0,0l0,0l0,0l0,0l0,0l0,0l0,0l0,0l0,0l0,0l0,0l0,0l0,0l0,0l0,0l0,0l0,0l0,0l0,0l0,0l0,0l0,0
	l0,0l0,0l0,0l0,0l0,0l0,0l0,0l0,0l0,0l0,0l0,0l0,0l0,0l0,0c0.3-0.4,0.6-0.9,1-1.2c0.2-0.2,0.2-0.5,0-0.7
	C-180.1-701.4-180.2-701.4-180.3-701.4L-180.3-701.4z M-182.4-697.7c-0.2,0-0.4,0.2-0.5,0.4c-0.1,0.5-0.1,1-0.1,1.5
	c0,0.3,0,0.6,0.1,0.9c0,0.2,0.3,0.4,0.5,0.4h0.1c0.3-0.1,0.4-0.3,0.4-0.6v-0.1l0,0l0,0l0,0l0,0l0,0l0,0l0,0l0,0l0,0l0,0l0,0l0,0l0,0
	l0,0l0,0l0,0l0,0l0,0l0,0l0,0l0,0l0,0c0-0.1,0-0.3,0-0.4l0,0l0,0l0,0l0,0l0,0l0,0l0,0l0,0l0,0l0,0l0,0l0,0l0,0l0,0l0,0l0,0l0,0l0,0
	l0,0l0,0l0,0l0,0l0,0l0,0l0,0l0,0l0,0l0,0l0,0l0,0l0,0l0,0l0,0c0-0.4,0-0.8,0.1-1.2C-181.8-697.4-182-697.7-182.4-697.7
	C-182.3-697.7-182.4-697.7-182.4-697.7L-182.4-697.7z M-181.5-693.5c-0.1,0-0.2,0-0.3,0.1c-0.2,0.2-0.3,0.5-0.1,0.7
	c0.4,0.5,1,1,1.6,1.5l0,0c-0.1,0.1-0.2,0.1-0.3,0.1c-0.8,0.2-1.1,0.8-1,1.2c0,0.2,0.1,1,1.2,1.1c0.2,0,0.4,0,0.6,0l0,0
	c0.3,0,0.5-0.2,0.5-0.5s-0.2-0.5-0.5-0.5c-0.2,0-0.4,0-0.5,0l0,0l0,0l0,0l0,0l0,0l0,0l0,0l0,0l0,0l0,0l0,0c-0.1,0-0.1,0-0.2,0l0,0
	l0,0l0,0l0,0l0,0l0,0l0,0l0,0l0,0l0,0l0,0c-0.1,0-0.1-0.1-0.1-0.1l0,0l0,0l0,0l0,0c0-0.1,0.1-0.1,0.3-0.2l0,0l0,0l0,0l0,0l0,0l0,0
	l0,0l0,0l0,0l0,0l0,0l0,0l0,0l0,0l0,0l0,0l0,0c0.2-0.1,0.4-0.2,0.6-0.3c0.2-0.2,0.3-0.5,0.1-0.7l0,0c0.1,0,0.1-0.1,0.2-0.2
	c0.1-0.2,0.1-0.5-0.2-0.7c-0.4-0.3-0.8-0.5-1.1-0.9l0,0l0,0l0,0l0,0l0,0l0,0l0,0l0,0l0,0l0,0l0,0l0,0l0,0l0,0l0,0l0,0l0,0l0,0l0,0
	l0,0l0,0l0,0l0,0l0,0l0,0l0,0l0,0l0,0l0,0l0,0l0,0l0,0l0,0l0,0l0,0l0,0l0,0l0,0l0,0l0,0l0,0l0,0l0,0l0,0l0,0l0,0l0,0l0,0l0,0l0,0
	l0,0l0,0l0,0l0,0l0,0l0,0l0,0l0,0l0,0l0,0l0,0l0,0l0,0l0,0l0,0l0,0l0,0l0,0l0,0l0,0l0,0l0,0l0,0l0,0l0,0l0,0l0,0l0,0l0,0
	c-0.1-0.1-0.1-0.1-0.2-0.2C-181.2-693.5-181.3-693.5-181.5-693.5L-181.5-693.5z M-175.9-690.7L-175.9-690.7c-0.5,0.4-1,0.6-1.6,0.8
	l0,0l0,0l0,0l0,0l0,0l0,0l0,0l0,0l0,0l0,0l0,0l0,0l0,0l0,0l0,0l0,0l0,0l0,0l0,0l0,0l0,0l0,0l0,0l0,0l0,0l0,0l0,0l0,0l0,0l0,0h-0.1
	c-0.3,0.1-0.4,0.3-0.4,0.6c0,0.2,0.3,0.4,0.5,0.4h0.1c0.9-0.2,1.6-0.5,2.2-1c0.2-0.2,0.2-0.5,0.1-0.7
	C-175.5-690.7-175.7-690.7-175.9-690.7L-175.9-690.7z M-171.9-690.7L-171.9-690.7c-0.1,0-0.2,0-0.3,0l0,0l0,0l0,0l0,0l0,0l0,0l0,0
	l0,0l0,0l0,0l0,0l0,0l0,0l0,0l0,0l0,0l0,0l0,0l0,0l0,0l0,0l0,0l0,0l0,0l0,0l0,0c-0.1,0-0.2,0-0.3,0l0,0l0,0l0,0l0,0l0,0l0,0l0,0
	c-0.3,0-0.6,0-0.9,0l0,0l0,0l0,0l0,0l0,0l0,0l0,0l0,0l0,0l0,0l0,0l0,0l0,0l0,0l0,0l0,0l0,0l0,0l0,0l0,0l0,0l0,0l0,0l0,0l0,0l0,0l0,0
	l0,0l0,0l0,0l0,0l0,0l0,0l0,0l0,0l0,0l0,0l0,0l0,0l0,0l0,0l0,0l0,0l0,0l0,0l0,0l0,0l0,0l0,0l0,0l0,0l0,0l0,0l0,0l0,0l0,0l0,0l0,0
	l0,0l0,0c0,0,0,0-0.1,0l0,0c-0.3,0-0.5,0.2-0.5,0.5s0.2,0.5,0.5,0.5c0.2,0,0.3,0,0.5,0c0.3,0,0.7,0,1,0c0.2,0,0.5,0,0.8-0.1
	c0.3,0,0.5-0.3,0.4-0.6C-171.4-690.5-171.6-690.7-171.9-690.7L-171.9-690.7z M-168-692.3c-0.1,0-0.2,0-0.3,0.1s-0.2,0.2-0.3,0.3l0,0
	l0,0l0,0l0,0l0,0l0,0l0,0l0,0l0,0l0,0l0,0l0,0l0,0l0,0l0,0l0,0l0,0l0,0l0,0l0,0l0,0l0,0l0,0l0,0l0,0l0,0l0,0l0,0l0,0l0,0l0,0l0,0
	l0,0l0,0l0,0l0,0l0,0l0,0l0,0c-0.4,0.2-0.8,0.5-1.2,0.6c-0.3,0.1-0.4,0.4-0.3,0.6c0.1,0.2,0.3,0.3,0.5,0.3c0.1,0,0.1,0,0.2,0
	c0.7-0.3,1.4-0.7,2-1.1c0.2-0.2,0.3-0.5,0.1-0.7C-167.7-692.2-167.8-692.3-168-692.3L-168-692.3z M-165.7-695.9
	c-0.2,0-0.4,0.2-0.5,0.4l0,0l0,0l0,0l0,0l0,0l0,0l0,0l0,0l0,0l0,0l0,0l0,0l0,0l0,0l0,0l0,0l0,0l0,0l0,0l0,0l0,0l0,0l0,0l0,0l0,0l0,0
	l0,0l0,0l0,0l0,0l0,0l0,0l0,0l0,0l0,0l0,0l0,0l0,0l0,0l0,0l0,0l0,0l0,0l0,0l0,0l0,0l0,0l0,0l0,0l0,0l0,0l0,0l0,0l0,0l0,0l0,0l0,0
	l0,0l0,0l0,0l0,0l0,0l0,0l0,0l0,0l0,0l0,0l0,0l0,0l0,0l0,0l0,0l0,0l0,0l0,0l0,0l0,0l0,0l0,0l0,0l0,0l0,0l0,0l0,0l0,0l0,0l0,0l0,0
	l0,0l0,0l0,0l0,0l0,0l0,0l0,0l0,0l0,0l0,0l0,0l0,0l0,0l0,0l0,0l0,0l0,0l0,0l0,0l0,0l0,0l0,0l0,0l0,0l0,0l0,0l0,0l0,0l0,0l0,0l0,0
	l0,0l0,0l0,0l0,0l0,0l0,0l0,0l0,0l0,0l0,0l0,0l0,0l0,0l0,0l0,0l0,0l0,0l0,0l0,0l0,0l0,0l0,0l0,0l0,0l0,0l0,0l0,0l0,0l0,0l0,0l0,0
	l0,0l0,0l0,0l0,0l0,0l0,0l0,0l0,0l0,0l0,0l0,0l0,0l0,0l0,0l0,0l0,0l0,0l0,0l0,0l0,0l0,0l0,0l0,0l0,0l0,0l0,0l0,0l0,0l0,0l0,0l0,0
	l0,0l0,0l0,0l0,0l0,0l0,0l0,0l0,0l0,0l0,0l0,0l0,0l0,0l0,0l0,0l0,0l0,0l0,0l0,0c-0.1,0.3-0.3,0.6-0.4,0.8c-0.1,0.2-0.1,0.5,0.1,0.7
	c0.1,0.1,0.2,0.1,0.3,0.1c0.2,0,0.3-0.1,0.4-0.2c0.4-0.7,0.7-1.4,0.9-2.1c0.1-0.3-0.1-0.5-0.4-0.6
	C-165.6-695.9-165.7-695.9-165.7-695.9L-165.7-695.9z M-165.9-700.1c-0.1,0-0.1,0-0.2,0c-0.3,0.1-0.4,0.4-0.3,0.6l0,0l0,0l0,0l0,0
	l0,0l0,0l0,0l0,0l0,0l0,0l0,0l0,0l0,0l0,0l0,0l0,0l0,0l0,0l0,0l0,0l0,0l0,0c0.1,0.2,0.1,0.4,0.2,0.6l0,0l0,0l0,0l0,0l0,0l0,0l0,0
	l0,0l0,0l0,0l0,0l0,0l0,0l0,0l0,0l0,0l0,0l0,0l0,0c0,0.2,0.1,0.3,0.1,0.5l0,0l0,0l0,0l0,0l0,0l0,0l0,0l0,0l0,0l0,0l0,0l0,0l0,0l0,0
	l0,0l0,0l0,0l0,0l0,0l0,0l0,0l0,0l0,0l0,0l0,0l0,0l0,0l0,0l0,0l0,0l0,0l0,0l0,0l0,0l0,0l0,0l0,0l0,0l0,0l0,0l0,0
	c0,0.2,0,0.4,0.1,0.5c0,0.3,0.2,0.5,0.5,0.5l0,0c0.3,0,0.5-0.3,0.5-0.5c0-0.5-0.1-0.9-0.2-1.4c-0.1-0.3-0.1-0.6-0.2-0.8
	C-165.5-700-165.7-700.1-165.9-700.1L-165.9-700.1z M-168.6-703.4c-0.2,0-0.3,0.1-0.4,0.2c-0.1,0.2-0.1,0.5,0.2,0.7l0,0l0,0l0,0l0,0
	l0,0l0,0l0,0l0,0l0,0l0,0l0,0l0,0l0,0l0,0l0,0l0,0l0,0l0,0l0,0l0,0l0,0l0,0l0,0l0,0l0,0l0,0l0,0l0,0l0,0l0,0l0,0l0,0l0,0l0,0l0,0
	l0,0l0,0l0,0l0,0l0,0l0,0l0,0l0,0l0,0l0,0l0,0l0,0l0,0l0,0l0,0l0,0l0,0l0,0l0,0l0,0l0,0l0,0l0,0l0,0l0,0l0,0l0,0l0,0l0,0l0,0l0,0
	l0,0l0,0l0,0l0,0l0,0l0,0l0,0l0,0l0,0l0,0l0,0l0,0l0,0l0,0l0,0l0,0l0,0l0,0l0,0l0,0l0,0l0,0l0,0l0,0l0,0l0,0l0,0l0,0l0,0l0,0l0,0
	l0,0l0,0l0,0l0,0l0,0l0,0l0,0l0,0l0,0l0,0l0,0l0,0l0,0l0,0l0,0l0,0l0,0l0,0l0,0l0,0l0,0l0,0l0,0l0,0l0,0l0,0l0,0l0,0l0,0l0,0l0,0
	l0,0l0,0l0,0l0,0l0,0l0,0l0,0l0,0l0,0l0,0l0,0l0,0l0,0l0,0l0,0l0,0l0,0l0,0l0,0l0,0l0,0l0,0l0,0l0,0l0,0l0,0l0,0l0,0l0,0l0,0l0,0
	l0,0l0,0l0,0l0,0l0,0l0,0l0,0l0,0l0,0l0,0l0,0l0,0l0,0l0,0l0,0l0,0l0,0l0,0l0,0l0,0l0,0l0,0l0,0l0,0l0,0l0,0l0,0l0,0l0,0l0,0l0,0
	l0,0l0,0l0,0l0,0l0,0l0,0l0,0l0,0l0,0l0,0l0,0l0,0l0,0l0,0l0,0l0,0l0,0l0,0l0,0l0,0l0,0l0,0l0,0l0,0l0,0l0,0l0,0l0,0l0,0l0,0l0,0
	l0,0l0,0l0,0c0.2,0.2,0.4,0.4,0.6,0.7c0.1,0.1,0.2,0.2,0.4,0.2c0.1,0,0.2,0,0.3-0.1c0.2-0.2,0.3-0.5,0.1-0.7
	c-0.5-0.6-1.1-1.1-1.8-1.5C-168.4-703.4-168.5-703.4-168.6-703.4L-168.6-703.4z"/>
<path id="ic_cloud-copy-2" sketch:type="MSShapeGroup" class="st1" d="M-183-454.9c0,2.4,1.8,4.4,4.1,4.4h11.8c2.3,0,4.1-2,4.1-4.4
	s-1.7-4.3-3.9-4.4l0,0c0-2.8-2.1-5.2-4.8-5.2c-1.7,0-3.2,1-4.1,2.4c-0.3-0.1-0.6-0.2-0.9-0.2c-1.3,0-2.4,1.1-2.4,2.5
	c0,0.2,0,0.3,0,0.4C-181.2-459.2-183-457.3-183-454.9"/>
<path id="Fill-1-Copy" sketch:type="MSShapeGroup" class="st1" d="M-180-420.5h14v9h-14V-420.5z M-166-422.5h-14c-1.1,0-2,0.9-2,2v9
	c0,1.1,0.9,2,2,2h4v1l-4,1v1h14v-1l-4-1v-1h4c1.1,0,2-0.9,2-2v-9C-164-421.6-164.9-422.5-166-422.5L-166-422.5z M-165-411.5
	c0,0.5-0.4,1-1,1h-14c-0.6,0-1-0.5-1-1v-9c0-0.5,0.4-1,1-1h14c0.6,0,1,0.5,1,1V-411.5L-165-411.5z"/>
<g id="Group-Copy-3" transform="translate(7.000000, 858.000000)" sketch:type="MSLayerGroup">
	<g sketch:type="MSShapeGroup">
		<path id="Rectangle-67_1_" class="st16" d="M-188-1228.5l9.6-9.6c0.8-0.8,2.1-0.8,2.8,0l0.2,0.2c0.8,0.8,0.8,2.1,0,2.8l-9.6,9.6
			l-5,2L-188-1228.5z"/>
		<path id="Path-280_1_" class="st16" d="M-180-1236.5l3.1,3"/>
		<path id="Path-280-Copy_1_" class="st16" d="M-187-1229.5l3.1,3"/>
		<rect id="Rectangle-68-Copy_1_" x="-181" y="-1224.5" class="st1" width="4" height="1"/>
		<rect id="Rectangle-68-Copy-2_1_" x="-175" y="-1224.5" class="st1" width="2" height="1"/>
		<rect id="Rectangle-68-Copy-3_1_" x="-185" y="-1224.5" class="st1" width="2" height="1"/>
	</g>
</g>
<path id="Rectangle-138-Copy-5" sketch:type="MSShapeGroup" class="st1" d="M-173-331.5h2v-4h-4v3v3h2V-331.5z M-179-331.5h2v-4h-4
	v3v3h2V-331.5L-179-331.5z"/>
<path id="Rectangle-144-Copy-8" sketch:type="MSShapeGroup" class="st1" d="M-172.6-303.5l4.9-4.9l-1.4-1.4l-4.9,4.9l-4.9-4.9
	l-1.4,1.4l5,4.9l-5,5l1.4,1.4l4.9-5l4.9,5l1.4-1.4L-172.6-303.5z"/>
<path id="Fill-5-Copy-2" sketch:type="MSShapeGroup" class="st1" d="M-171.1-240.9c0-0.1-0.1-0.7-0.3-0.8s-0.8-0.4-0.8-0.4
	s-0.1-0.2-0.1-0.3s0.1-0.3,0.1-0.3c0.1-0.2,0.4-0.5,0.4-0.8s0.2-1,0.2-1c0-0.2,0.2-0.2,0.4-0.3c0.3-0.1,0.5-1.7,0.5-1.7
	c0-0.5-0.2-0.3-0.2-0.7v-1.4c0-1.7-1.4-2.8-3.1-2.8h-0.1c-1.7,0-3.1,1.1-3.1,2.8v1.4c0,0.4-0.2,0.1-0.2,0.7c0,0,0.2,1.6,0.5,1.7
	c0.1,0.1,0.4,0.2,0.4,0.3c0,0,0.1,0.8,0.2,1s0.4,0.7,0.4,0.8c0,0,0.1,0.2,0.1,0.3s-0.1,0.3-0.1,0.3s-0.6,0.3-0.8,0.4
	c-0.2,0.1-0.3,0.6-0.3,0.8c-0.7,0.2-4.3,1.9-4.8,2.3c-0.3,0.3-0.3,2.1-0.3,2.1v0.2c0,0.4,0.3,0.8,0.8,0.8h14.5
	c0.4,0,0.8-0.3,0.8-0.8v-0.2c0,0,0-1.8-0.3-2.1C-166.7-239-170.4-240.7-171.1-240.9z"/>
<path id="Imported-Layers-Copy-3" sketch:type="MSShapeGroup" class="st1" d="M-172.7-214.5c-0.7,0-1.4,0.1-2.2,0.2
	c-0.3,0.1-0.4,0.3-0.4,0.6c0,0.2,0.3,0.4,0.5,0.4h0.1c0.4-0.1,0.8-0.1,1.1-0.2l0,0l0,0c0,0,0,0,0.1,0l0,0l0,0l0,0l0,0l0,0l0,0l0,0
	l0,0l0,0l0,0l0,0l0,0l0,0l0,0l0,0l0,0l0,0l0,0l0,0l0,0l0,0l0,0l0,0l0,0l0,0l0,0l0,0l0,0l0,0l0,0l0,0l0,0l0,0l0,0l0,0l0,0l0,0l0,0
	l0,0l0,0l0,0l0,0l0,0l0,0l0,0l0,0l0,0l0,0l0,0l0,0l0,0l0,0l0,0l0,0l0,0l0,0l0,0l0,0l0,0l0,0l0,0l0,0l0,0l0,0l0,0l0,0l0,0l0,0l0,0
	l0,0l0,0l0,0l0,0l0,0l0,0l0,0l0,0l0,0l0,0l0,0l0,0l0,0l0,0l0,0l0,0l0,0l0,0l0,0l0,0l0,0l0,0l0,0l0,0l0,0l0,0l0,0l0,0l0,0l0,0l0,0
	l0,0l0,0l0,0l0,0l0,0l0,0l0,0l0,0l0,0l0,0l0,0l0,0l0,0l0,0l0,0l0,0l0,0l0,0l0,0l0,0l0,0l0,0l0,0l0,0l0,0l0,0l0,0l0,0l0,0l0,0l0,0
	l0,0l0,0l0,0l0,0l0,0l0,0l0,0l0,0l0,0l0,0l0,0l0,0l0,0l0,0l0,0l0,0l0,0l0,0l0,0l0,0l0,0l0,0l0,0l0,0l0,0l0,0c0,0,0,0,0.1,0
	c0,0,0,0,0.1,0c0.2,0,0.4,0,0.6,0l0,0l0,0l0,0l0,0l0,0l0,0l0,0l0,0l0,0l0,0l0,0l0,0l0,0l0,0l0,0l0,0l0,0l0,0l0,0l0,0l0,0l0,0l0,0
	l0,0l0,0l0,0l0,0l0,0l0,0l0,0l0,0l0,0l0,0l0,0l0,0l0,0l0,0l0,0l0,0l0,0l0,0l0,0l0,0l0,0l0,0l0,0l0,0l0,0l0,0l0,0l0,0l0,0l0,0l0,0
	l0,0l0,0l0,0l0,0l0,0l0,0l0,0l0,0l0,0l0,0l0,0l0,0l0,0l0,0l0,0l0,0l0,0l0,0l0,0l0,0l0,0l0,0l0,0l0,0l0,0l0,0l0,0l0,0l0,0l0,0l0,0
	l0,0l0,0l0,0l0,0l0,0l0,0c0.3,0,0.6,0.1,0.9,0.2h0.1c0.2,0,0.4-0.1,0.5-0.4c0.1-0.3-0.1-0.5-0.4-0.6c-0.7-0.2-1.4-0.3-2.2-0.3l0,0
	C-172.6-214.5-172.7-214.5-172.7-214.5L-172.7-214.5L-172.7-214.5z M-176.8-213.7c-0.1,0-0.1,0-0.2,0c-0.7,0.3-1.3,0.6-1.9,1
	c-0.2,0.1-0.3,0.5-0.2,0.7c0.1,0.1,0.3,0.2,0.4,0.2c0.1,0,0.2,0,0.3-0.1c0.3-0.2,0.7-0.4,1.1-0.6l0,0l0,0l0,0l0,0l0,0l0,0l0,0l0,0
	l0,0l0,0l0,0l0,0l0,0l0,0l0,0l0,0l0,0l0,0l0,0l0,0l0,0l0,0l0,0l0,0l0,0l0,0l0,0l0,0l0,0l0,0l0,0l0,0l0,0l0,0l0,0l0,0l0,0l0,0l0,0
	c0.2-0.1,0.4-0.2,0.5-0.2c0.3-0.1,0.4-0.4,0.3-0.7C-176.4-213.6-176.6-213.7-176.8-213.7L-176.8-213.7z M-180.3-211.4
	c-0.1,0-0.3,0-0.4,0.1c-0.6,0.6-1,1.2-1.4,1.8c-0.1,0.2-0.1,0.5,0.2,0.7c0.1,0,0.2,0.1,0.2,0.1c0.2,0,0.3-0.1,0.4-0.3
	c0-0.1,0.1-0.1,0.1-0.2l0,0l0,0l0,0l0,0l0,0l0,0l0,0l0,0l0,0l0,0l0,0l0,0l0,0l0,0l0,0l0,0l0,0l0,0l0,0l0,0l0,0l0,0l0,0l0,0l0,0l0,0
	l0,0l0,0l0,0l0,0l0,0l0,0l0,0l0,0l0,0l0,0l0,0l0,0l0,0l0,0c0.3-0.4,0.6-0.9,1-1.2c0.2-0.2,0.2-0.5,0-0.7
	C-180.1-211.4-180.2-211.4-180.3-211.4L-180.3-211.4z M-182.4-207.7c-0.2,0-0.4,0.2-0.5,0.4c-0.1,0.5-0.1,1-0.1,1.5
	c0,0.3,0,0.6,0.1,0.9c0,0.2,0.3,0.4,0.5,0.4h0.1c0.3-0.1,0.4-0.3,0.4-0.6v-0.1l0,0l0,0l0,0l0,0l0,0l0,0l0,0l0,0l0,0l0,0l0,0l0,0l0,0
	l0,0l0,0l0,0l0,0l0,0l0,0l0,0l0,0l0,0c0-0.1,0-0.3,0-0.4l0,0l0,0l0,0l0,0l0,0l0,0l0,0l0,0l0,0l0,0l0,0l0,0l0,0l0,0l0,0l0,0l0,0l0,0
	l0,0l0,0l0,0l0,0l0,0l0,0l0,0l0,0l0,0l0,0l0,0l0,0l0,0l0,0l0,0c0-0.4,0-0.8,0.1-1.2C-181.8-207.4-182-207.7-182.4-207.7
	C-182.3-207.7-182.4-207.7-182.4-207.7L-182.4-207.7z M-181.5-203.5c-0.1,0-0.2,0-0.3,0.1c-0.2,0.2-0.3,0.5-0.1,0.7
	c0.4,0.6,1,1,1.6,1.5l0,0c-0.1,0.1-0.2,0.1-0.3,0.1c-0.8,0.2-1.1,0.8-1,1.2c0,0.2,0.1,0.9,1.2,1.1c0.2,0,0.4,0,0.6,0l0,0
	c0.3,0,0.5-0.2,0.5-0.5s-0.2-0.5-0.5-0.5c-0.2,0-0.4,0-0.5,0l0,0l0,0l0,0l0,0l0,0l0,0l0,0l0,0l0,0l0,0l0,0c-0.1,0-0.1,0-0.2,0l0,0
	l0,0l0,0l0,0l0,0l0,0l0,0l0,0l0,0l0,0l0,0c-0.1,0-0.1-0.1-0.1-0.1l0,0l0,0l0,0l0,0c0-0.1,0.1-0.1,0.3-0.2l0,0l0,0l0,0l0,0l0,0l0,0
	l0,0l0,0l0,0l0,0l0,0l0,0l0,0l0,0l0,0l0,0l0,0c0.2-0.1,0.4-0.2,0.6-0.3c0.2-0.2,0.3-0.5,0.1-0.7l0,0c0.1,0,0.1-0.1,0.2-0.2
	c0.1-0.2,0.1-0.5-0.2-0.7c-0.4-0.3-0.8-0.5-1.1-0.9l0,0l0,0l0,0l0,0l0,0l0,0l0,0l0,0l0,0l0,0l0,0l0,0l0,0l0,0l0,0l0,0l0,0l0,0l0,0
	l0,0l0,0l0,0l0,0l0,0l0,0l0,0l0,0l0,0l0,0l0,0l0,0l0,0l0,0l0,0l0,0l0,0l0,0l0,0l0,0l0,0l0,0l0,0l0,0l0,0l0,0l0,0l0,0l0,0l0,0l0,0
	l0,0l0,0l0,0l0,0l0,0l0,0l0,0l0,0l0,0l0,0l0,0l0,0l0,0l0,0l0,0l0,0l0,0l0,0l0,0l0,0l0,0l0,0l0,0l0,0l0,0l0,0l0,0l0,0l0,0
	c-0.1-0.1-0.1-0.1-0.2-0.2C-181.2-203.5-181.3-203.5-181.5-203.5L-181.5-203.5z M-175.9-200.7L-175.9-200.7c-0.5,0.4-1,0.6-1.6,0.8
	l0,0l0,0l0,0l0,0l0,0l0,0l0,0l0,0l0,0l0,0l0,0l0,0l0,0l0,0l0,0l0,0l0,0l0,0l0,0l0,0l0,0l0,0l0,0l0,0l0,0l0,0l0,0l0,0l0,0l0,0h-0.1
	c-0.3,0.1-0.4,0.3-0.4,0.6c0,0.2,0.3,0.4,0.5,0.4h0.1c0.9-0.2,1.6-0.5,2.2-1c0.2-0.2,0.2-0.5,0.1-0.7
	C-175.5-200.7-175.7-200.7-175.9-200.7L-175.9-200.7z M-171.9-200.7L-171.9-200.7c-0.1,0-0.2,0-0.3,0l0,0l0,0l0,0l0,0l0,0l0,0l0,0
	l0,0l0,0l0,0l0,0l0,0l0,0l0,0l0,0l0,0l0,0l0,0l0,0l0,0l0,0l0,0l0,0l0,0l0,0l0,0c-0.1,0-0.2,0-0.3,0l0,0l0,0l0,0l0,0l0,0l0,0l0,0
	c-0.3,0-0.6,0-0.9,0l0,0l0,0l0,0l0,0l0,0l0,0l0,0l0,0l0,0l0,0l0,0l0,0l0,0l0,0l0,0l0,0l0,0l0,0l0,0l0,0l0,0l0,0l0,0l0,0l0,0l0,0l0,0
	l0,0l0,0l0,0l0,0l0,0l0,0l0,0l0,0l0,0l0,0l0,0l0,0l0,0l0,0l0,0l0,0l0,0l0,0l0,0l0,0l0,0l0,0l0,0l0,0l0,0l0,0l0,0l0,0l0,0l0,0l0,0
	l0,0l0,0c0,0,0,0-0.1,0l0,0c-0.3,0-0.5,0.2-0.5,0.5s0.2,0.5,0.5,0.5c0.2,0,0.3,0,0.5,0c0.3,0,0.7,0,1,0c0.2,0,0.5,0,0.8-0.1
	c0.3,0,0.5-0.3,0.4-0.6C-171.4-200.5-171.6-200.7-171.9-200.7L-171.9-200.7z M-168-202.3c-0.1,0-0.2,0-0.3,0.1s-0.2,0.2-0.3,0.3l0,0
	l0,0l0,0l0,0l0,0l0,0l0,0l0,0l0,0l0,0l0,0l0,0l0,0l0,0l0,0l0,0l0,0l0,0l0,0l0,0l0,0l0,0l0,0l0,0l0,0l0,0l0,0l0,0l0,0l0,0l0,0l0,0
	l0,0l0,0l0,0l0,0l0,0l0,0l0,0c-0.4,0.2-0.8,0.5-1.2,0.6c-0.3,0.1-0.4,0.4-0.3,0.6c0.1,0.2,0.3,0.3,0.5,0.3c0.1,0,0.1,0,0.2,0
	c0.7-0.3,1.4-0.7,2-1.1c0.2-0.2,0.3-0.5,0.1-0.7C-167.7-202.2-167.8-202.3-168-202.3L-168-202.3z M-165.7-205.9
	c-0.2,0-0.4,0.2-0.5,0.4l0,0l0,0l0,0l0,0l0,0l0,0l0,0l0,0l0,0l0,0l0,0l0,0l0,0l0,0l0,0l0,0l0,0l0,0l0,0l0,0l0,0l0,0l0,0l0,0l0,0l0,0
	l0,0l0,0l0,0l0,0l0,0l0,0l0,0l0,0l0,0l0,0l0,0l0,0l0,0l0,0l0,0l0,0l0,0l0,0l0,0l0,0l0,0l0,0l0,0l0,0l0,0l0,0l0,0l0,0l0,0l0,0l0,0
	l0,0l0,0l0,0l0,0l0,0l0,0l0,0l0,0l0,0l0,0l0,0l0,0l0,0l0,0l0,0l0,0l0,0l0,0l0,0l0,0l0,0l0,0l0,0l0,0l0,0l0,0l0,0l0,0l0,0l0,0l0,0
	l0,0l0,0l0,0l0,0l0,0l0,0l0,0l0,0l0,0l0,0l0,0l0,0l0,0l0,0l0,0l0,0l0,0l0,0l0,0l0,0l0,0l0,0l0,0l0,0l0,0l0,0l0,0l0,0l0,0l0,0l0,0
	l0,0l0,0l0,0l0,0l0,0l0,0l0,0l0,0l0,0l0,0l0,0l0,0l0,0l0,0l0,0l0,0l0,0l0,0l0,0l0,0l0,0l0,0l0,0l0,0l0,0l0,0l0,0l0,0l0,0l0,0l0,0
	l0,0l0,0l0,0l0,0l0,0l0,0l0,0l0,0l0,0l0,0l0,0l0,0l0,0l0,0l0,0l0,0l0,0l0,0l0,0l0,0l0,0l0,0l0,0l0,0l0,0l0,0l0,0l0,0l0,0l0,0l0,0
	l0,0l0,0l0,0l0,0l0,0l0,0l0,0l0,0l0,0l0,0l0,0l0,0l0,0l0,0l0,0l0,0l0,0l0,0l0,0c-0.1,0.3-0.3,0.6-0.4,0.8c-0.1,0.2-0.1,0.5,0.1,0.7
	c0.1,0.1,0.2,0.1,0.3,0.1c0.2,0,0.3-0.1,0.4-0.2c0.4-0.7,0.7-1.4,0.9-2.1c0.1-0.3-0.1-0.5-0.4-0.6
	C-165.6-205.9-165.7-205.9-165.7-205.9L-165.7-205.9z M-165.9-210.1c-0.1,0-0.1,0-0.2,0c-0.3,0.1-0.4,0.4-0.3,0.6l0,0l0,0l0,0l0,0
	l0,0l0,0l0,0l0,0l0,0l0,0l0,0l0,0l0,0l0,0l0,0l0,0l0,0l0,0l0,0l0,0l0,0l0,0c0.1,0.2,0.1,0.4,0.2,0.6l0,0l0,0l0,0l0,0l0,0l0,0l0,0
	l0,0l0,0l0,0l0,0l0,0l0,0l0,0l0,0l0,0l0,0l0,0l0,0c0,0.2,0.1,0.3,0.1,0.5l0,0l0,0l0,0l0,0l0,0l0,0l0,0l0,0l0,0l0,0l0,0l0,0l0,0l0,0
	l0,0l0,0l0,0l0,0l0,0l0,0l0,0l0,0l0,0l0,0l0,0l0,0l0,0l0,0l0,0l0,0l0,0l0,0l0,0l0,0l0,0l0,0l0,0l0,0l0,0l0,0l0,0
	c0,0.2,0,0.4,0.1,0.5c0,0.3,0.2,0.5,0.5,0.5l0,0c0.3,0,0.5-0.3,0.5-0.5c0-0.5-0.1-0.9-0.2-1.4c-0.1-0.3-0.1-0.6-0.2-0.8
	C-165.5-210-165.7-210.1-165.9-210.1L-165.9-210.1z M-168.6-213.4c-0.2,0-0.3,0.1-0.4,0.2c-0.1,0.2-0.1,0.5,0.2,0.7l0,0l0,0l0,0l0,0
	l0,0l0,0l0,0l0,0l0,0l0,0l0,0l0,0l0,0l0,0l0,0l0,0l0,0l0,0l0,0l0,0l0,0l0,0l0,0l0,0l0,0l0,0l0,0l0,0l0,0l0,0l0,0l0,0l0,0l0,0l0,0
	l0,0l0,0l0,0l0,0l0,0l0,0l0,0l0,0l0,0l0,0l0,0l0,0l0,0l0,0l0,0l0,0l0,0l0,0l0,0l0,0l0,0l0,0l0,0l0,0l0,0l0,0l0,0l0,0l0,0l0,0l0,0
	l0,0l0,0l0,0l0,0l0,0l0,0l0,0l0,0l0,0l0,0l0,0l0,0l0,0l0,0l0,0l0,0l0,0l0,0l0,0l0,0l0,0l0,0l0,0l0,0l0,0l0,0l0,0l0,0l0,0l0,0l0,0
	l0,0l0,0l0,0l0,0l0,0l0,0l0,0l0,0l0,0l0,0l0,0l0,0l0,0l0,0l0,0l0,0l0,0l0,0l0,0l0,0l0,0l0,0l0,0l0,0l0,0l0,0l0,0l0,0l0,0l0,0l0,0
	l0,0l0,0l0,0l0,0l0,0l0,0l0,0l0,0l0,0l0,0l0,0l0,0l0,0l0,0l0,0l0,0l0,0l0,0l0,0l0,0l0,0l0,0l0,0l0,0l0,0l0,0l0,0l0,0l0,0l0,0l0,0
	l0,0l0,0l0,0l0,0l0,0l0,0l0,0l0,0l0,0l0,0l0,0l0,0l0,0l0,0l0,0l0,0l0,0l0,0l0,0l0,0l0,0l0,0l0,0l0,0l0,0l0,0l0,0l0,0l0,0l0,0l0,0
	l0,0l0,0l0,0l0,0l0,0l0,0l0,0l0,0l0,0l0,0l0,0l0,0l0,0l0,0l0,0l0,0l0,0l0,0l0,0l0,0l0,0l0,0l0,0l0,0l0,0l0,0l0,0l0,0l0,0l0,0l0,0
	l0,0l0,0l0,0c0.2,0.2,0.4,0.4,0.6,0.7c0.1,0.1,0.2,0.2,0.4,0.2c0.1,0,0.2,0,0.3-0.1c0.2-0.2,0.3-0.5,0.1-0.7
	c-0.5-0.6-1.1-1.1-1.8-1.5C-168.4-213.4-168.5-213.4-168.6-213.4L-168.6-213.4z"/>
<path id="Rectangle-93" sketch:type="MSShapeGroup" class="st17" d="M-177-1236.5h8l-4,4L-177-1236.5z"/>
<g id="Imported-Layers_2_" transform="translate(3.000000, 1586.000000)" sketch:type="MSLayerGroup">
	<path id="Fill-1_3_" sketch:type="MSShapeGroup" class="st18" d="M-177-1237.5c4.4,0,8,3.6,8,8s-3.6,8-8,8s-8-3.6-8-8
		S-181.4-1237.5-177-1237.5 M-177-1239.5c-5.5,0-10,4.5-10,10s4.5,10,10,10s10-4.5,10-10S-171.5-1239.5-177-1239.5"/>
	<path id="Fill-2_2_" sketch:type="MSShapeGroup" class="st7" d="M-172.2-1227.5c-0.5,2.3-2.5,4-4.9,4s-4.4-1.7-4.9-4H-172.2
		 M-171-1228.5h-12.2l0.2,1.2c0.6,2.8,3,4.8,5.9,4.8c2.8,0,5.3-2,5.9-4.8L-171-1228.5"/>
	<path id="Fill-3_1_" sketch:type="MSShapeGroup" class="st18" d="M-172-1227.5c-0.5,2.3-2.5,4-5,4s-4.5-1.7-5-4H-172 M-183-1228.5
		v1.2c0.6,2.8,3.1,4.8,6,4.8s5.4-2,6-4.8v-1.2H-183"/>
	<path id="Fill-4_1_" sketch:type="MSShapeGroup" class="st18" d="M-171-1231c0,0.8-0.7,1.5-1.5,1.5s-1.5-0.7-1.5-1.5
		s0.7-1.5,1.5-1.5S-171-1231.8-171-1231"/>
	<path id="Fill-5_1_" sketch:type="MSShapeGroup" class="st18" d="M-180-1231c0,0.8-0.7,1.5-1.5,1.5s-1.5-0.7-1.5-1.5
		s0.7-1.5,1.5-1.5S-180-1231.8-180-1231"/>
	<path id="Fill-6_1_" sketch:type="MSShapeGroup" class="st18" d="M-173-1224.5h-8l-1-2h10L-173-1224.5"/>
</g>
<path id="Rectangle-53-Copy-3" sketch:type="MSShapeGroup" class="st13" d="M-183-571.5c0-1.1,0.9-2,2-2h14c1.1,0,2,0.9,2,2v10
	c0,1.1-0.9,2-2,2h-14c-1.1,0-2-0.9-2-2V-571.5z M-169.2-563.4c-0.3-0.3-2.5-1.3-3-1.5c0-0.1-0.1-0.4-0.2-0.5c-0.1,0-0.5-0.2-0.5-0.2
	s0-0.1-0.1-0.2c0-0.1,0.1-0.2,0.1-0.2c0.1-0.1,0.2-0.3,0.3-0.5s0.1-0.7,0.1-0.7c0-0.1,0.1-0.1,0.2-0.2c0.2-0.1,0.3-1.1,0.3-1.1
	c0-0.3-0.1-0.2-0.1-0.4v-0.9c0-1.1-0.9-1.8-1.9-1.8l0,0c-1.1,0-2,0.7-2,1.8v0.9c0,0.2-0.1,0.1-0.1,0.4c0,0,0.1,1,0.3,1.1
	c0.1,0,0.2,0.1,0.2,0.2c0,0,0.1,0.5,0.1,0.7c0.1,0.2,0.2,0.4,0.3,0.5c0,0,0,0.1,0,0.2c0,0.1,0,0.2,0,0.2s-0.4,0.2-0.5,0.2
	c-0.1,0.1-0.2,0.4-0.2,0.5c-0.4,0.1-2.7,1.2-3,1.5c-0.2,0.2-0.2,1.3-0.2,1.3v0.1c0,0.3,0.2,0.5,0.5,0.5h9c0.3,0,0.5-0.2,0.5-0.5
	v-0.1C-169-562.1-169-563.2-169.2-563.4z"/>
<path id="ic_cloud-copy-6" sketch:type="MSShapeGroup" class="st13" d="M-184-648.9c0,2.4,1.8,4.4,4.1,4.4h11.8c2.3,0,4.1-2,4.1-4.4
	s-1.7-4.3-3.9-4.4l0,0c0-2.8-2.1-5.2-4.8-5.2c-1.7,0-3.2,1-4.1,2.4c-0.3-0.1-0.6-0.2-0.9-0.2c-1.3,0-2.4,1.1-2.4,2.5
	c0,0.2,0,0.3,0,0.4C-182.2-653.2-184-651.3-184-648.9"/>
<path class="st13" d="M-174-618.5c-5,0-9,4-9,9s4,9,9,9s9-4,9-9S-169-618.5-174-618.5z M-170-608.5l-3-3v7h-2v-7l-3,3l-1-1l5-5l5,5
	L-170-608.5z"/>
<path id="Rectangle-53-Copy-4" sketch:type="MSShapeGroup" class="st1" d="M-183-81.5c0-1.1,0.9-2,2-2h14c1.1,0,2,0.9,2,2v10
	c0,1.1-0.9,2-2,2h-14c-1.1,0-2-0.9-2-2V-81.5z M-169.2-73.4c-0.3-0.3-2.5-1.3-3-1.5c0-0.1-0.1-0.4-0.2-0.5c-0.1,0-0.5-0.2-0.5-0.2
	s0-0.1-0.1-0.2c0-0.1,0.1-0.2,0.1-0.2c0.1-0.1,0.2-0.3,0.3-0.5c0.1-0.2,0.1-0.7,0.1-0.7c0-0.1,0.1-0.1,0.2-0.2
	c0.2-0.1,0.3-1.1,0.3-1.1c0-0.3-0.1-0.2-0.1-0.4v-0.9c0-1.1-0.9-1.8-1.9-1.8l0,0c-1.1,0-2,0.7-2,1.8v0.9c0,0.2-0.1,0.1-0.1,0.4
	c0,0,0.1,1,0.3,1.1c0.1,0.1,0.2,0.1,0.2,0.2c0,0,0.1,0.5,0.1,0.7c0.1,0.2,0.2,0.4,0.3,0.5c0,0,0,0.1,0,0.2c0,0.1,0,0.2,0,0.2
	s-0.4,0.2-0.5,0.2c-0.1,0.1-0.2,0.4-0.2,0.5c-0.4,0.1-2.7,1.2-3,1.5c-0.2,0.2-0.2,1.3-0.2,1.3v0.1c0,0.3,0.2,0.5,0.5,0.5h9
	c0.3,0,0.5-0.2,0.5-0.5v-0.1C-169-72.1-169-73.2-169.2-73.4z"/>
<path id="ic_cloud-copy-7" sketch:type="MSShapeGroup" class="st1" d="M-184-158.9c0,2.4,1.8,4.4,4.1,4.4h11.8c2.3,0,4.1-2,4.1-4.4
	s-1.7-4.3-3.9-4.4l0,0c0-2.8-2.1-5.2-4.8-5.2c-1.7,0-3.2,1-4.1,2.4c-0.3-0.1-0.6-0.2-0.9-0.2c-1.3,0-2.4,1.1-2.4,2.5
	c0,0.2,0,0.3,0,0.4C-182.2-163.2-184-161.3-184-158.9"/>
<path id="Imported-Layers_3_" sketch:type="MSShapeGroup" class="st13" d="M-180-518.5l12-8l-12-8V-518.5z"/>
<g id="Oval-55-_x2B_-Fill-5-_x2B_-Shape" transform="translate(8.000000, 737.000000)" sketch:type="MSLayerGroup">
	<g id="Oval-55-_x2B_-Fill-5" transform="translate(0.000000, 3.000000)" sketch:type="MSShapeGroup">
		<path id="Oval-55" class="st13" d="M-176.7-1235.8c0.5,1,0.8,2.1,0.8,3.3c0,3.9-3.1,7-7,7s-7-3.1-7-7s3.1-7,7-7
			c1.1,0,2.2,0.3,3.2,0.8l-1.5,1.5c-0.6-0.2-1.2-0.3-1.8-0.3c-2.8,0-5,2.2-5,5s2.2,5,5,5s5-2.2,5-5c0-0.6-0.1-1.1-0.3-1.6
			L-176.7-1235.8z"/>
	</g>
	<path id="Shape" sketch:type="MSShapeGroup" class="st13" d="M-175-1236.1l-7.3,7.3l-1.4-1.4l7.3-7.3h-4.6v-2h8v1v7h-2V-1236.1z"/>
</g>
<path id="Imported-Layers-Copy-4" sketch:type="MSShapeGroup" class="st1" d="M-180-28.5l12-8l-12-8V-28.5z"/>
<g id="Oval-55-_x2B_-Fill-5-_x2B_-Shape-Copy" transform="translate(8.000000, 1227.000000)" sketch:type="MSLayerGroup">
	<g id="Oval-55-_x2B_-Fill-5_1_" transform="translate(0.000000, 3.000000)" sketch:type="MSShapeGroup">
		<path id="Oval-55_1_" class="st1" d="M-176.7-1235.8c0.5,1,0.8,2.1,0.8,3.3c0,3.9-3.1,7-7,7s-7-3.1-7-7s3.1-7,7-7
			c1.1,0,2.2,0.3,3.2,0.8l-1.5,1.5c-0.6-0.2-1.2-0.3-1.8-0.3c-2.8,0-5,2.2-5,5s2.2,5,5,5s5-2.2,5-5c0-0.6-0.1-1.1-0.3-1.6
			L-176.7-1235.8z"/>
	</g>
	<path id="Shape_1_" sketch:type="MSShapeGroup" class="st1" d="M-175-1236.1l-7.3,7.3l-1.4-1.4l7.3-7.3h-4.6v-2h8v1v7h-2V-1236.1z"
		/>
</g>
<path id="Imported-Layers-Copy-4_1_" sketch:type="MSShapeGroup" class="st1" d="M-181.2,477.2c-0.3,0-0.6,0-1,0
	c-0.6,0-1-0.5-0.9-1.1c0-0.5,0.4-0.9,0.9-0.9c-0.1-0.3,0-0.7,0.2-0.9c0.1-0.1,0.1-0.2,0.2-0.4c-0.6-0.3-1.1-0.8-1.6-1.2
	c-0.4-0.4-0.4-1-0.1-1.4c0.4-0.4,1-0.4,1.4-0.1c0.4,0.4,0.9,0.7,1.5,1.1c0.5,0.4,0.8,0.8,0.8,1.4v0.1c0,0.5-0.1,1-0.4,1.4
	c0.7-0.1,1.2-0.2,1.8-0.3c0.5-0.2,1.1,0.1,1.2,0.7c0.2,0.5-0.1,1.1-0.7,1.2C-178.9,477.1-179.9,477.2-181.2,477.2L-181.2,477.2z
	 M-172.8,476.1c-0.9,0-1.8-0.1-2.8-0.2c-0.5-0.1-0.9-0.6-0.9-1.1c0.1-0.5,0.6-1,1.1-0.9c1.4,0.2,2.6,0.2,3.7,0.1l0.2,1l0.1,1
	C-171.9,476.1-172.4,476.1-172.8,476.1L-172.8,476.1z M-168.5,475.4c-0.4,0-0.8-0.3-1-0.7c-0.2-0.5,0.1-1.1,0.6-1.3
	c1.2-0.4,2.3-1,3.1-1.7c0.4-0.4,1.1-0.3,1.4,0.1c0.4,0.4,0.3,1.1-0.1,1.4c-1.1,0.9-2.4,1.6-3.8,2.1
	C-168.3,475.4-168.4,475.4-168.5,475.4L-168.5,475.4z M-163.1,471.2c-0.2,0-0.3,0-0.5-0.1c-0.5-0.3-0.6-0.9-0.4-1.4
	c0.6-1,0.9-2.1,1-3.4c0-0.6,0.5-0.9,1.1-0.9s1,0.5,0.9,1.1c-0.1,1.5-0.5,2.9-1.2,4.2C-162.5,471-162.8,471.2-163.1,471.2
	L-163.1,471.2z M-184.6,470.5c-0.4,0-0.8-0.2-0.9-0.6c-0.3-0.8-0.5-1.6-0.5-2.5v-0.2c0-0.6,0.1-1.2,0.2-1.8c0.1-0.5,0.6-0.9,1.2-0.8
	c0.5,0.1,0.9,0.6,0.8,1.2c-0.1,0.5-0.1,0.9-0.1,1.4v0.2c0,0.6,0.1,1.2,0.4,1.7c0.2,0.5,0,1.1-0.5,1.3
	C-184.3,470.5-184.4,470.5-184.6,470.5L-184.6,470.5z M-162.3,464.4c-0.5,0-0.8-0.3-0.9-0.7v-0.1c-0.3-1.2-0.7-2.2-1.4-3.1
	c-0.3-0.4-0.3-1.1,0.2-1.4c0.4-0.3,1.1-0.3,1.4,0.2c0.9,1.1,1.5,2.4,1.8,3.9c0.1,0.5-0.2,1.1-0.8,1.2
	C-162.1,464.4-162.2,464.4-162.3,464.4L-162.3,464.4z M-183.8,463.8c-0.2,0-0.3,0-0.5-0.1c-0.5-0.3-0.6-0.9-0.4-1.4
	c0.7-1.2,1.7-2.3,2.9-3.3c0.4-0.4,1.1-0.3,1.4,0.1c0.4,0.4,0.3,1.1-0.1,1.4c-1,0.8-1.8,1.7-2.4,2.7
	C-183.1,463.6-183.4,463.8-183.8,463.8L-183.8,463.8z M-178.6,459.2c-0.4,0-0.7-0.2-0.9-0.5c-0.3-0.5-0.1-1.1,0.4-1.3
	c1.3-0.7,2.6-1.1,4-1.5c0.7-0.2,1.4-0.3,2.2-0.3c0.6-0.1,1,0.4,1.1,0.9c0,0.6-0.4,1-0.9,1.1c-0.6,0.1-1.3,0.1-1.9,0.3
	c-1.2,0.3-2.4,0.7-3.5,1.3C-178.3,459.1-178.5,459.2-178.6,459.2L-178.6,459.2z M-166.1,458.9c-0.2,0-0.3,0-0.5-0.1
	c-1-0.6-2.1-1-3.4-1.1c-0.5-0.1-0.9-0.6-0.8-1.1c0.1-0.6,0.6-0.9,1.1-0.9c1.5,0.2,2.9,0.7,4.1,1.4c0.5,0.3,0.6,0.9,0.3,1.4
	C-165.4,458.7-165.8,458.9-166.1,458.9L-166.1,458.9z"/>
<path id="Fill-1_4_" sketch:type="MSShapeGroup" class="st1" d="M-176.9,563.4c-0.1-0.3-0.1-0.6-0.1-0.9c0-2.2,1.8-4,4-4
	c0.3,0,0.6,0,0.9,0.1l1.7-1.7c-0.8-0.3-1.7-0.4-2.6-0.4c-5,0-8.2,4.3-10,6c0.9,0.8,2,2.2,3.6,3.4L-176.9,563.4z M-166.6,559.1
	l-2.5,2.6c0.1,0.3,0.1,0.6,0.1,0.9c0,2.2-1.8,4-4,4c-0.3,0-0.6,0-0.9-0.1l-1.7,1.7c0.8,0.3,1.7,0.4,2.6,0.4c5,0,8.2-4.3,10-6
	C-163.9,561.7-165,560.3-166.6,559.1z M-166,554.5l-15,15l1,1l15-15L-166,554.5z"/>
<path id="Path-Copy-3" sketch:type="MSShapeGroup" class="st1" d="M-173,92.5v-2h2v-2h-2v-2l-4,3L-173,92.5z"/>
<path id="Imported-Layers-Copy-3_1_" sketch:type="MSShapeGroup" class="st13" d="M-181,916.5c-1.1,0-2,0.9-2,2v12c0,1.1,0.9,2,2,2
	h16c1.1,0,2-0.9,2-2v-12c0-1.1-0.9-2-2-2H-181z M-164.7,917.5l-7.9,8.9c-0.2,0.2-0.5,0.2-0.7,0l-7.9-8.9c0.1,0,0.2,0,0.3,0h16
	C-164.9,917.5-164.8,917.5-164.7,917.5z M-165,931.5h-16c-0.6,0-1-0.4-1-1v-12c0-0.1,0-0.2,0-0.3l7.9,8.9c0.3,0.3,0.7,0.4,1.1,0.4
	s0.8-0.1,1.1-0.4l7.9-8.9c0,0.1,0,0.2,0,0.3v12C-164,931.1-164.4,931.5-165,931.5z"/>
<path id="Fill-9-Copy-10" sketch:type="MSShapeGroup" class="st11" d="M-181,884.5c0,4.4,3.6,8,8,8s8-3.6,8-8s-3.6-8-8-8
	S-181,880.1-181,884.5L-181,884.5z M-178,883.5h10v2h-10V883.5z"/>
<path id="Imported-Layers-Copy-2_1_" sketch:type="MSShapeGroup" class="st13" d="M40.2,774.7L-64.7,602.4c-1.6-2.6-5.3-2.6-6.8,0
	l-104.9,172.3c-1.6,2.7,0.3,6.1,3.4,6.1H36.8C39.9,780.8,41.8,777.4,40.2,774.7L40.2,774.7z M-173,776.8l104.9-172.3L36.8,776.8
	H-173L-173,776.8z"/>
<g id="Fill-1-_x2B_-Fill-2-_x2B_-Fill-3-Copy" transform="translate(0.000000, 589.000000)" sketch:type="MSLayerGroup">
	<path id="Fill-1_6_" sketch:type="MSShapeGroup" class="st1" d="M-176.7,610.1v-0.2c0-0.8,0.6-1.2,1.2-1.2h0.2l3.1-3.2
		c-0.1,0-0.3,0-0.4,0c-2.4,0-4.6,0.6-6.9,1.3c-2.1,0.6-3,2.4-2.4,4.6c0.2,0.8,0.6,1.2,1.4,1.1l1.5-0.2L-176.7,610.1z"/>
	<path id="Fill-2_4_" sketch:type="MSShapeGroup" class="st1" d="M-166.9,606.4l-2.3,2.3c0.4,0.1,0.8,0.5,0.8,1.2
		c0,1.9,0.4,2.2,1.6,2.4c0.4,0.1,1.8,0.2,2.2,0.2c0.8,0.1,1.2-0.3,1.4-1.1c0.5-2.2-0.3-4-2.4-4.6
		C-166,606.6-166.4,606.5-166.9,606.4z"/>
	<path id="Fill-3_2_" sketch:type="MSShapeGroup" class="st1" d="M-164.3,600.8c-0.5-0.4-1.2-0.4-1.7,0l-14.7,14.7
		c-0.4,0.4-0.4,1.2,0,1.6c0.2,0.2,0.5,0.3,0.8,0.3s0.6-0.1,0.8-0.3l14.7-14.7C-163.9,602-163.9,601.3-164.3,600.8z"/>
</g>
<g id="Fill-1-_x2B_-Fill-2-Copy-2" transform="translate(1.000000, 530.000000)" sketch:type="MSLayerGroup">
	<path id="Fill-1_5_" sketch:type="MSShapeGroup" class="st1" d="M-177.3,611.8c-1.7-1.7-3-3.8-4.1-6c-1.1-2-0.5-3.9,1.5-5.1
		c0.7-0.4,1.3-0.4,1.8,0.2c0.2,0.3,1.2,1.4,1.4,1.8c0.8,1,0.8,1.6-0.6,2.9c-0.6,0.6-0.4,1.3,0,1.7l4.3,4.3c0.4,0.4,1.2,0.6,1.7,0
		c1.4-1.4,2-1.4,3-0.6c0.3,0.2,1.4,1.2,1.8,1.4c0.6,0.5,0.7,1.1,0.2,1.8c-1.2,2-3,2.6-5.1,1.5C-173.5,614.8-175.6,613.6-177.3,611.8
		"/>
	<path id="Fill-2_3_" sketch:type="MSShapeGroup" class="st1" d="M-168.8,605.7l-3.4,3.4l-2.5-2.5l3.4-3.4l-1.8-1.8h6v6
		L-168.8,605.7z"/>
</g>
<path id="Imported-Layers-5-Copy" sketch:type="MSShapeGroup" class="st1" d="M-172.5,1086.5c2.4,0,4.6,0.6,6.9,1.3
	c2.1,0.6,3,2.4,2.4,4.6c-0.2,0.8-0.6,1.2-1.4,1.1c-0.4,0-1.8-0.2-2.2-0.2c-1.2-0.2-1.6-0.4-1.6-2.4c0-0.8-0.6-1.2-1.2-1.2h-5.9
	c-0.6,0-1.2,0.4-1.2,1.2c0,1.9-0.4,2.2-1.6,2.4c-0.4,0.1-1.8,0.2-2.2,0.2c-0.8,0.1-1.2-0.3-1.4-1.1c-0.5-2.2,0.3-4,2.4-4.6
	C-177.1,1087.1-174.9,1086.5-172.5,1086.5"/>
<g id="reload-copy-7" transform="translate(1.000000, 235.000000)" sketch:type="MSLayerGroup">
	<path id="Fill-13" sketch:type="MSShapeGroup" class="st13" d="M-181.3,608.6c0.5,0.1,1-0.2,1.1-0.6c0.7-2.8,3.2-4.7,6-4.7
		c2.4,0,4.7,1.4,5.7,3.7l-1.7,0.9l3.8,1.4l1.4-3.8l-1.8,0.8c-1.3-2.9-4.2-4.7-7.3-4.7c-3.7,0-6.8,2.5-7.8,6
		C-182.1,608-181.8,608.4-181.3,608.6"/>
	<path id="Fill-14" sketch:type="MSShapeGroup" class="st13" d="M-167.9,611.1c-0.7,2.7-3.2,4.7-6,4.7c-2.4,0-4.7-1.4-5.7-3.7
		l1.7-0.9l-3.8-1.4l-1.4,3.8l1.8-0.8c1.3,2.9,4.2,4.7,7.3,4.7c3.7,0,6.8-2.5,7.7-6c0.1-0.5-0.2-1-0.6-1.1S-167.8,610.6-167.9,611.1z
		"/>
</g>
<path id="Imported-Layers-3-Copy" sketch:type="MSShapeGroup" class="st1" d="M-176.3,1043.8c-1.7-1.7-3-3.8-4.1-6
	c-1.1-2-0.5-3.9,1.5-5.1c0.7-0.4,1.3-0.4,1.8,0.2c0.2,0.3,1.2,1.4,1.4,1.8c0.8,1,0.8,1.6-0.6,3c-0.6,0.6-0.4,1.3,0,1.7l4.3,4.3
	c0.4,0.4,1.2,0.6,1.7,0c1.4-1.4,2-1.4,2.9-0.6c0.3,0.2,1.4,1.2,1.8,1.4c0.6,0.5,0.7,1.1,0.2,1.8c-1.2,2-3,2.6-5.1,1.5
	C-172.5,1046.8-174.6,1045.6-176.3,1043.8"/>
<path id="Fill-53-Copy-3" sketch:type="MSShapeGroup" class="st8" d="M-177.7,987.2c-0.9-0.9-1.5-1.9-2.1-3c-0.6-1-0.3-1.9,0.8-2.5
	c0.4-0.2,0.6-0.2,0.9,0.1c0.1,0.2,0.6,0.7,0.7,0.9c0.4,0.5,0.4,0.8-0.3,1.5c-0.3,0.3-0.2,0.6,0,0.9l2.2,2.2c0.2,0.2,0.6,0.3,0.9,0
	c0.7-0.7,1-0.7,1.5-0.3c0.2,0.1,0.7,0.6,0.9,0.7c0.3,0.3,0.3,0.6,0.1,0.9c-0.6,1-1.5,1.3-2.5,0.8
	C-175.8,988.6-176.8,988-177.7,987.2L-177.7,987.2z"/>
<path id="Fill-1_7_" sketch:type="MSShapeGroup" class="st13" d="M-181,1265.5h14v9h-14V1265.5z M-167,1263.5h-14c-1.1,0-2,0.9-2,2
	v9c0,1.1,0.9,2,2,2h4v1l-4,1v1h14v-1l-4-1v-1h4c1.1,0,2-0.9,2-2v-9C-165,1264.4-165.9,1263.5-167,1263.5L-167,1263.5z M-166,1274.5
	c0,0.6-0.4,1-1,1h-14c-0.6,0-1-0.4-1-1v-9c0-0.6,0.4-1,1-1h14c0.6,0,1,0.4,1,1V1274.5L-166,1274.5z"/>
<path class="st19" d="M-36.6,1404.9l-17.9-17.9c-0.3-0.3-0.4-0.9-0.1-1.3c2.9-4.1,4.6-9.2,4.5-14.6c-0.2-13.4-11-24.3-24.4-24.6
	c-14.2-0.3-25.7,11.3-25.4,25.4c0.3,13.4,11.2,24.3,24.6,24.4c5.4,0.1,10.5-1.6,14.6-4.5c0.4-0.3,0.9-0.2,1.3,0.1l17.9,17.9
	c0.8,0.8,2,0.8,2.8,0l2.2-2.2C-35.8,1407-35.8,1405.7-36.6,1404.9z M-75.1,1391.9c-11.3,0-20.4-9.2-20.4-20.4s9.2-20.4,20.4-20.4
	c11.3,0,20.4,9.2,20.4,20.4S-63.8,1391.9-75.1,1391.9z"/>
<path id="Fill-2-Copy-2" sketch:type="MSShapeGroup" class="st13" d="M-168.7,1454.6c-0.2-0.2-0.6-0.3-0.9-0.1l-0.9-0.9
	c0.8-1.1,1.3-2.5,1.3-4.1c0-3.8-3.1-6.9-6.9-6.9c-3.8,0-6.9,3.1-6.9,6.9s3.1,6.9,6.9,6.9c1.5,0,2.9-0.5,4.1-1.3l0.9,0.9
	c-0.1,0.3-0.1,0.6,0.1,0.9l3.5,3.5c0.3,0.3,0.8,0.3,1.1,0l1.2-1.2c0.3-0.3,0.3-0.8,0-1.1L-168.7,1454.6z M-181,1449.5
	c0-2.8,2.2-5,5-5s5,2.2,5,5s-2.2,5-5,5S-181,1452.3-181,1449.5L-181,1449.5z"/>
<path class="st13" d="M-174,1482.5c-5,0-9,4-9,9s4,9,9,9s9-4,9-9S-169,1482.5-174,1482.5z M-174,1496.5l-5-5l1-1l3,3v-7h2v7l3-3l1,1
	L-174,1496.5z"/>
<g id="Imported-Layers-5-Copy_1_" transform="translate(2.000000, 179.000000)" sketch:type="MSLayerGroup">
	<path id="Fill-1_9_" sketch:type="MSShapeGroup" class="st13" d="M-177.9,1354.4c1.4,1.4,4.4,1.5,5.9,0.1l2.9-2.9
		c1.6-1.6,1.5-4.2-0.1-5.9c-1.6-1.7-4.3-1.7-5.9-0.1l-2.3,2.3c0.8,0,1.7,0.1,2.5,0.5l1.2-1.2c0.8-0.8,2.1-0.8,2.9,0.1
		c0.8,0.8,0.8,2.1,0.1,2.9l-2.9,2.9c-0.8,0.8-2.4,0.5-3.4,0.5L-177.9,1354.4"/>
	<path id="Fill-2_6_" sketch:type="MSShapeGroup" class="st13" d="M-174.1,1350.6c-1.4-1.4-4.5-1.5-5.9-0.1l-2.9,2.9
		c-1.6,1.6-1.5,4.2,0.1,5.9c1.6,1.7,4.3,1.7,5.9,0.1l2.3-2.3c-0.8,0-1.7-0.1-2.5-0.5l-1.2,1.2c-0.8,0.8-2.1,0.8-2.9-0.1
		c-0.8-0.8-0.8-2.1-0.1-2.9l2.9-2.9c0.6-0.6,1.5-0.5,3.4-0.5l0,0L-174.1,1350.6"/>
</g>
<path id="Fill-2-Copy-3" sketch:type="MSShapeGroup" class="st1" d="M-168.7,1574.6c-0.2-0.2-0.6-0.3-0.9-0.1l-0.9-0.9
	c0.8-1.1,1.3-2.5,1.3-4.1c0-3.8-3.1-6.9-6.9-6.9c-3.8,0-6.9,3.1-6.9,6.9s3.1,6.9,6.9,6.9c1.5,0,2.9-0.5,4.1-1.3l0.9,0.9
	c-0.1,0.3-0.1,0.6,0.1,0.9l3.5,3.5c0.3,0.3,0.8,0.3,1.1,0l1.2-1.2c0.3-0.3,0.3-0.8,0-1.1L-168.7,1574.6z M-181,1569.5
	c0-2.8,2.2-5,5-5s5,2.2,5,5s-2.2,5-5,5S-181,1572.3-181,1569.5L-181,1569.5z"/>
<path class="st1" d="M-174,1602.5c-5,0-9,4-9,9s4,9,9,9s9-4,9-9S-169,1602.5-174,1602.5z M-174,1616.5l-5-5l1-1l3,3v-7h2v7l3-3l1,1
	L-174,1616.5z"/>
<g id="Imported-Layers-5-Copy-2" transform="translate(2.000000, 299.000000)" sketch:type="MSLayerGroup">
	<path id="Fill-1_8_" sketch:type="MSShapeGroup" class="st1" d="M-177.9,1354.4c1.4,1.4,4.4,1.5,5.9,0.1l2.9-2.9
		c1.6-1.6,1.5-4.2-0.1-5.9c-1.6-1.7-4.3-1.7-5.9-0.1l-2.3,2.3c0.8,0,1.7,0.1,2.5,0.5l1.2-1.2c0.8-0.8,2.1-0.8,2.9,0.1
		c0.8,0.8,0.8,2.1,0.1,2.9l-2.9,2.9c-0.8,0.8-2.4,0.5-3.4,0.5L-177.9,1354.4"/>
	<path id="Fill-2_5_" sketch:type="MSShapeGroup" class="st1" d="M-174.1,1350.6c-1.4-1.4-4.5-1.5-5.9-0.1l-2.9,2.9
		c-1.6,1.6-1.5,4.2,0.1,5.9c1.6,1.7,4.3,1.7,5.9,0.1l2.3-2.3c-0.8,0-1.7-0.1-2.5-0.5l-1.2,1.2c-0.8,0.8-2.1,0.8-2.9-0.1
		c-0.8-0.8-0.8-2.1-0.1-2.9l2.9-2.9c0.6-0.6,1.5-0.5,3.4-0.5l0,0L-174.1,1350.6"/>
</g>
<path class="st20" d="M-174.5,151.4c0.6-0.6,1.5-0.6,2.1,0l4,4.1c1.2,1.2,3.6,3.1,5.6,3.6l0.3-0.9h0.6c-1.8,0-4.5-2.1-5.8-3.4
	l-4-4.1c-0.9-1-2.6-1-3.5,0l-4,4.1c-1.4,1.4-4,3.4-5.8,3.4h0.6l0.6,0.8c2-0.6,4.1-2.4,5.3-3.5L-174.5,151.4z"/>
<path class="st1" d="M-162,160.5h6l-6.2-1.3c-0.1,0-0.3-0.1-0.5-0.1c-2.1-0.5-4.4-2.4-5.6-3.6l-4-4.1c-0.6-0.6-1.5-0.6-2.1,0l-4,4.1
	c-1.1,1.1-3.3,2.9-5.3,3.5c-0.3,0.1-0.6,0.1-0.8,0.2l-1.6,0.5v0.7h1.3h22.8V160.5z"/>
<line class="st21" x1="-185" y1="177.4" x2="-184.6" y2="177.4"/>
<line class="st21" x1="-161.4" y1="177.2" x2="-161.8" y2="177.2"/>
<path class="st1" d="M-184.6,177.4c0.3,0,0.7,0.1,1.1,0.2l0.2-0.2H-184.6z"/>
<path class="st1" d="M-161.8,177.2h-0.9v0.1C-162.4,177.2-162.1,177.2-161.8,177.2z"/>
<path class="st20" d="M-162.7,177.2v-0.1c-0.1,0-0.3,0.1-0.4,0.1H-162.7z"/>
<path class="st20" d="M-183.4,177.4L-183.4,177.4L-183.4,177.4C-183.3,177.4-183.3,177.4-183.4,177.4z"/>
<path class="st1" d="M-174-128.5c-5,0-9,4-9,9s4,9,9,9s9-4,9-9S-169-128.5-174-128.5z M-170-118.5l-3-3v7h-2v-7l-3,3l-1-1l5-5l5,5
	L-170-118.5z"/>
<g class="st22">
	<path class="st23" d="M-173.4,186c-0.5,0-1-0.2-1.4-0.6l-4-4.1c-1.2-1.2-3.3-2.8-5.1-3.4c-0.3-0.1-0.5-0.1-0.7-0.2l-2-0.6v-0.6
		h35.6l-11.1,1.3c-0.1,0-0.2,0-0.3,0.1h-0.1c-2,0.5-4.3,2.4-5.4,3.5l-4,4.1C-172.4,185.8-172.9,186-173.4,186z M-186,176.6
		L-186,176.6c0.3,0,2.1,0.4,2.4,0.5c2,0.6,4.2,2.3,5.5,3.6l4,4.1c0.4,0.4,1,0.4,1.4,0l4-4.1c1.4-1.4,3.8-3.3,5.9-3.7h0.1
		c0.1,0,1.6-0.3,1.8-0.4l0,0"/>
</g>
<path class="st1" d="M-162,175.4h6l-6.2,1.3c-0.1,0-0.3,0.1-0.5,0.1c-2.1,0.5-4.4,2.4-5.6,3.6l-4,4.1c-0.6,0.6-1.5,0.6-2.1,0l-4-4.1
	c-1.1-1.1-3.3-2.9-5.3-3.5c-0.3-0.1-0.6-0.1-0.8-0.2l-1.6-0.5v-0.7h1.3L-162,175.4L-162,175.4z"/>
<path class="st6" d="M-174,1692.5c-5,0-9,4-9,9s4,9,9,9s9-4,9-9S-169,1692.5-174,1692.5z M-174,1706.5l-5-5l1-1l3,3v-7h2v7l3-3l1,1
	L-174,1706.5z"/>
<g id="Imported-Layers-5-Copy_2_" transform="translate(2.000000, 179.000000)" sketch:type="MSLayerGroup">
	<path id="Fill-1_10_" sketch:type="MSShapeGroup" class="st6" d="M-177.9,1564.4c1.4,1.4,4.4,1.5,5.9,0.1l2.9-2.9
		c1.6-1.6,1.5-4.2-0.1-5.9c-1.6-1.7-4.3-1.7-5.9-0.1l-2.3,2.3c0.8,0,1.7,0.1,2.5,0.5l1.2-1.2c0.8-0.8,2.1-0.8,2.9,0.1
		c0.8,0.8,0.8,2.1,0.1,2.9l-2.9,2.9c-0.8,0.8-2.4,0.5-3.4,0.5L-177.9,1564.4"/>
	<path id="Fill-2_7_" sketch:type="MSShapeGroup" class="st6" d="M-174.1,1560.6c-1.4-1.4-4.5-1.5-5.9-0.1l-2.9,2.9
		c-1.6,1.6-1.5,4.2,0.1,5.9c1.6,1.7,4.3,1.7,5.9,0.1l2.3-2.3c-0.8,0-1.7-0.1-2.5-0.5l-1.2,1.2c-0.8,0.8-2.1,0.8-2.9-0.1
		c-0.8-0.8-0.8-2.1-0.1-2.9l2.9-2.9c0.6-0.6,1.5-0.5,3.4-0.5l0,0L-174.1,1560.6"/>
</g>
<g id="ic_chat_1_" transform="translate(4.000000, 1744.000000)" sketch:type="MSLayerGroup">
	<path id="Fill-80_1_" sketch:type="MSShapeGroup" class="st19" d="M-169.1,124.3c-0.5-0.1-0.8-0.5-0.8-0.9c0-0.1,0.1-0.2,0.1-0.2
		c1-0.6,1.8-1.5,1.8-2.6c0.1-2.3-2.1-4.1-4.3-4.7c0.1,1.7-0.4,3.3-1.4,4.6c-0.9,1.1-2.2,1.9-3.7,2.4c0.8,0.7,1.9,1.2,3.1,1.2
		c0.7,0.1,1.5,0,2.2-0.1c0.8,0.6,2,0.7,2.9,0.6C-168.8,124.5-168.9,124.3-169.1,124.3"/>
	<path id="Fill-81_1_" sketch:type="MSShapeGroup" class="st1" d="M-173.9,114.7c-0.8-3.6-4.4-4.7-7.8-4c-3.2,0.7-6.4,3.1-6.3,6.4
		c0,1.5,1,2.7,2.4,3.5c0.1,0.1,0.2,0.2,0.2,0.3c0,0.6-0.5,1.1-1.1,1.2c-0.3,0.1-0.4,0.2,0,0.3c1.3,0.1,2.8,0,3.9-0.8
		c1,0.1,2,0.2,2.9,0.1C-175.7,121.5-173,118.6-173.9,114.7"/>
</g>
<path id="Fill-57-Copy-2" sketch:type="MSShapeGroup" class="st13" d="M-183,1901.5c0,5,4,9,9,9s9-4,9-9s-4-9-9-9
	S-183,1896.5-183,1901.5L-183,1901.5z M-175,1896.5h2v4h4v2h-4v4h-2v-4h-4v-2h4V1896.5L-175,1896.5z"/>
<path id="Fill-57-Copy-2_1_" sketch:type="MSShapeGroup" class="st1" d="M-183,1941.5c0,5,4,9,9,9s9-4,9-9s-4-9-9-9
	S-183,1936.5-183,1941.5L-183,1941.5z M-175,1936.5h2v4h4v2h-4v4h-2v-4h-4v-2h4V1936.5L-175,1936.5z"/>
<g id="ic_chat_2_" transform="translate(4.000000, 1744.000000)" sketch:type="MSLayerGroup">
	<path id="Fill-80_2_" sketch:type="MSShapeGroup" class="st24" d="M-169.1,44.3c-0.5-0.1-0.8-0.5-0.8-0.9c0-0.1,0.1-0.2,0.1-0.2
		c1-0.6,1.8-1.5,1.8-2.6c0.1-2.3-2.1-4.1-4.3-4.7c0.1,1.7-0.4,3.3-1.4,4.6c-0.9,1.1-2.2,1.9-3.7,2.4c0.8,0.7,1.9,1.2,3.1,1.2
		c0.7,0.1,1.5,0,2.2-0.1c0.8,0.6,2,0.7,2.9,0.6C-168.8,44.5-168.9,44.3-169.1,44.3"/>
	<path id="Fill-81_2_" sketch:type="MSShapeGroup" class="st6" d="M-173.9,34.7c-0.8-3.6-4.4-4.7-7.8-4c-3.2,0.7-6.4,3.1-6.3,6.4
		c0,1.5,1,2.7,2.4,3.5c0.1,0.1,0.2,0.2,0.2,0.3c0,0.6-0.5,1.1-1.1,1.2c-0.3,0.1-0.4,0.2,0,0.3c1.3,0.1,2.8,0,3.9-0.8
		c1,0.1,2,0.2,2.9,0.1C-175.7,41.5-173,38.6-173.9,34.7"/>
</g>
<g id="Imported-Layers-Copy_2_" transform="translate(42.000000, 4230.000000)" sketch:type="MSLayerGroup" class="st5">
	<g id="Imported-Layers_5_" sketch:type="MSShapeGroup">
		<path id="Fill-1_16_" class="st6" d="M-186-2266.5c4.4,0,8,3.6,8,8s-3.6,8-8,8s-8-3.6-8-8S-190.4-2266.5-186-2266.5 M-186-2268.5
			c-5.5,0-10,4.5-10,10s4.5,10,10,10s10-4.5,10-10S-180.5-2268.5-186-2268.5"/>
		<path id="Fill-2_9_" class="st7" d="M-181.2-2256.5c-0.5,2.3-2.5,4-4.9,4s-4.4-1.7-4.9-4H-181.2 M-180-2257.5h-12.2l0.2,1.2
			c0.6,2.8,3,4.8,5.9,4.8c2.8,0,5.3-2,5.9-4.8L-180-2257.5"/>
		<path id="Fill-3_4_" class="st6" d="M-181-2256.5c-0.5,2.3-2.5,4-5,4s-4.5-1.7-5-4H-181 M-192-2257.5v1.2c0.6,2.8,3.1,4.8,6,4.8
			s5.4-2,6-4.8v-1.2H-192"/>
		<path id="Fill-4_3_" class="st6" d="M-180-2260c0,0.8-0.7,1.5-1.5,1.5s-1.5-0.7-1.5-1.5s0.7-1.5,1.5-1.5S-180-2260.8-180-2260"/>
		<path id="Fill-5_3_" class="st6" d="M-189-2260c0,0.8-0.7,1.5-1.5,1.5s-1.5-0.7-1.5-1.5s0.7-1.5,1.5-1.5S-189-2260.8-189-2260"/>
		<path id="Fill-6_3_" class="st6" d="M-182-2253.5h-8l-1-2h10L-182-2253.5"/>
	</g>
</g>
<g id="Imported-Layers-Copy_1_" transform="translate(42.000000, 4280.000000)" sketch:type="MSLayerGroup">
	<g id="Imported-Layers_4_" sketch:type="MSShapeGroup">
		<path id="Fill-1_15_" class="st1" d="M-186-2286.5c4.4,0,8,3.6,8,8s-3.6,8-8,8s-8-3.6-8-8S-190.4-2286.5-186-2286.5 M-186-2288.5
			c-5.5,0-10,4.5-10,10s4.5,10,10,10s10-4.5,10-10S-180.5-2288.5-186-2288.5"/>
		<path id="Fill-2_8_" class="st7" d="M-181.2-2276.5c-0.5,2.3-2.5,4-4.9,4s-4.4-1.7-4.9-4H-181.2 M-180-2277.5h-12.2l0.2,1.2
			c0.6,2.8,3,4.8,5.9,4.8c2.8,0,5.3-2,5.9-4.8L-180-2277.5"/>
		<path id="Fill-3_3_" class="st1" d="M-181-2276.5c-0.5,2.3-2.5,4-5,4s-4.5-1.7-5-4H-181 M-192-2277.5v1.2c0.6,2.8,3.1,4.8,6,4.8
			s5.4-2,6-4.8v-1.2H-192"/>
		<path id="Fill-4_2_" class="st1" d="M-180-2280c0,0.8-0.7,1.5-1.5,1.5s-1.5-0.7-1.5-1.5s0.7-1.5,1.5-1.5S-180-2280.8-180-2280"/>
		<path id="Fill-5_2_" class="st1" d="M-189-2280c0,0.8-0.7,1.5-1.5,1.5s-1.5-0.7-1.5-1.5s0.7-1.5,1.5-1.5S-189-2280.8-189-2280"/>
		<path id="Fill-6_2_" class="st1" d="M-182-2273.5h-8l-1-2h10L-182-2273.5"/>
	</g>
</g>
<path id="Fill-1_14_" sketch:type="MSShapeGroup" class="st1" d="M-173,2000.5v-3h-2v3c0,1.1,0.9,2,2,2h5v-2H-173 M-174,1991.5
	c-5.5,0-10,4.5-10,10s4.5,10,10,10s10-4.5,10-10S-168.5,1991.5-174,1991.5L-174,1991.5z M-174,2009.5c-4.4,0-8-3.6-8-8s3.6-8,8-8
	s8,3.6,8,8S-169.6,2009.5-174,2009.5L-174,2009.5z"/>
<path id="Fill-1_13_" sketch:type="MSShapeGroup" class="st1" d="M-114,1996.5c-2.8,0-5,2.2-5,5s2.2,5,5,5s5-2.2,5-5
	S-111.2,1996.5-114,1996.5L-114,1996.5z M-114,2004.5c-1.7,0-3-1.3-3-3s1.3-3,3-3s3,1.3,3,3S-112.3,2004.5-114,2004.5z M-121,2001.5
	c0-0.3,0-0.7,0.1-1h-4.1v2h4.1C-121,2002.2-121,2001.8-121,2001.5z M-113,1994.6v-4.1h-2v4.1c0.3,0,0.7-0.1,1-0.1
	S-113.3,1994.5-113,1994.6z M-107.1,2000.5c0,0.3,0.1,0.7,0.1,1s0,0.7-0.1,1h4.1v-2H-107.1z M-115,2008.4v4.1h2v-4.1
	c-0.3,0-0.7,0.1-1,0.1S-114.7,2008.5-115,2008.4z M-119.6,2005.7l-2.9,2.9l1.4,1.4l2.9-2.9c-0.3-0.2-0.5-0.4-0.8-0.7
	C-119.2,2006.2-119.4,2006-119.6,2005.7z M-118.9,1996.5c0.2-0.2,0.5-0.5,0.8-0.7l-2.9-2.9l-1.4,1.4l2.9,2.9
	C-119.4,1997-119.2,1996.8-118.9,1996.5z M-108.4,1997.3l2.9-2.9l-1.4-1.4l-2.9,2.9c0.3,0.2,0.5,0.4,0.8,0.7
	C-108.8,1996.8-108.6,1997-108.4,1997.3z M-109.1,2006.4c-0.2,0.2-0.5,0.5-0.8,0.7l2.9,2.9l1.4-1.4l-2.9-2.9
	C-108.6,2006-108.8,2006.2-109.1,2006.4z"/>
<path id="Fill-10" sketch:type="MSShapeGroup" class="st1" d="M-88,1995.5l4,4l4-4H-88 M-73,1992.5h-22l10,10v6c0,0.6-0.4,1-1,1h-3
	v1h10v-1h-3c-0.6,0-1-0.4-1-1v-6L-73,1992.5L-73,1992.5z M-92,1993.5h16l-7,7h-2L-92,1993.5L-92,1993.5z"/>
<path id="Fill-12" sketch:type="MSShapeGroup" class="st1" d="M-63,2003.5h8v8h-8V2003.5z M-64,1998.5h9v4h-9V1998.5z M-53,1998.5h9
	v4h-9V1998.5z M-53,2003.5h8v8h-8V2003.5z M-58,1991.5c-1.7,0-3,1.3-3,3s1.3,3,3,3h3v-3C-55,1992.8-56.3,1991.5-58,1991.5z
	 M-56,1996.5h-1.5c-0.8,0-1.5-0.7-1.5-1.5s0.7-1.5,1.5-1.5s1.5,0.7,1.5,1.5V1996.5z M-47,1994.5c0-1.7-1.3-3-3-3s-3,1.3-3,3v3h3
	C-48.3,1997.5-47,1996.2-47,1994.5z M-52,1996.5v-1.5c0-0.8,0.7-1.5,1.5-1.5s1.5,0.7,1.5,1.5s-0.7,1.5-1.5,1.5H-52L-52,1996.5z"/>
<path id="Fill-18" sketch:type="MSShapeGroup" class="st1" d="M-26.6,2000.5c0-1,0.6-1.7,1.5-2.1l0,0c-0.9-0.4-1.2-1.1-1.2-1.8
	c0-1.2,1-2.1,2.4-2.1c1.5,0,2.3,0.9,2.3,1.9c0,0.7-0.3,1.4-1.3,1.8l0,0c1,0.4,1.6,1.1,1.6,2c0,1.4-1.2,2.3-2.7,2.3
	C-25.6,2002.6-26.6,2001.7-26.6,2000.5L-26.6,2000.5z M-25.3,1996.6c0,0.8,0.6,1.2,1.5,1.4c0.7-0.2,1.2-0.7,1.2-1.4
	c0-0.6-0.4-1.3-1.3-1.3C-24.8,1995.3-25.3,1995.9-25.3,1996.6L-25.3,1996.6z M-22.4,2000.5c0-0.9-0.7-1.4-1.7-1.7
	c-0.9,0.3-1.4,0.9-1.4,1.6c0,0.8,0.6,1.5,1.6,1.5C-23,2001.9-22.4,2001.3-22.4,2000.5L-22.4,2000.5z M-24,1991.5
	c-5.5,0-10,4.5-10,10s4.5,10,10,10s10-4.5,10-10S-18.5,1991.5-24,1991.5L-24,1991.5z M-24,2003.5c-2.8,0-5-2.2-5-5s2.2-5,5-5
	s5,2.2,5,5S-21.2,2003.5-24,2003.5L-24,2003.5z"/>
<path id="Fill-20" sketch:type="MSShapeGroup" class="st1" d="M6,1991.5c-5.5,0-10,4.5-10,10s4.5,10,10,10s10-4.5,10-10
	S11.5,1991.5,6,1991.5z M7.6,1996.4h0.2l-0.1,0.2H8l-0.1,0.2l0.5,0.5h0.2v0.3l-0.5,0.1l-0.3,0.1l0.2-0.3h0.1v-0.1H7.8v-0.2H8v-0.2
	H7.8l-0.2-0.3L7.6,1996.4L7.6,1996.4z M7.2,1997.1h0.2v-0.1h0.3l0.1,0.1l-0.1,0.1l0.1,0.1l-0.4,0.2l-0.1-0.1l0.1-0.2L7.2,1997.1
	L7.2,1997.1L7.2,1997.1z M3.9,1993.4l0.2-0.1l0.5,0.1l-0.2,0.1l-0.1,0.1l-0.4,0.1H3.7H3.5v0.1l-0.2,0.2l-0.4-0.1v-0.1h0.2l0.2-0.2
	l0.4-0.1H3.5v-0.1H3.9L3.9,1993.4z M3,1993.5l0.4-0.1l-0.3,0.2l-0.3,0.1L3,1993.5L3,1993.5z M2.7,1993.8v0.2l0.2,0.1l-0.2,0.1
	l-0.3-0.1L2.7,1993.8L2.7,1993.8z M2.3,1994l-0.1,0.2h0.4l-0.2,0.3l-0.5-0.2L2.3,1994L2.3,1994z M1.5,1994.6l0.4-0.2l0.2,0.1
	l-0.1,0.3l0.2-0.1l0.2,0.2l0.2,0.4l-0.2,0.2l0.2,0.2l0.1,0.2l-0.4,0.3l-0.1-0.3L2,1996l0.1,0.4l-0.1,0.2l-0.1-0.2H1.7l0.1,0.2v0.2
	l-0.3-0.2l-0.1-0.3H1.1l0.2-0.1h0.6v-0.2l0.1-0.2l-0.2-0.6l-0.3,0.2l-0.3-0.2L1.5,1994.6L1.5,1994.6z M0.4,1994.7
	c0.3-0.2,0.5-0.4,0.8-0.6l-0.2,0.2h0.2l-0.4,0.3l-0.1,0.2l-0.2,0.1L0.4,1994.7L0.4,1994.7L0.4,1994.7z M4.2,2007.4l-0.1,0.2H4
	l0.1,0.5l-0.1,0.4H3.7l-0.4,0.2l0.1,0.2l-0.1,0.5H3l0.2,0.1v0.1H3v0.2l0.2,0.1l0.2,0.2l0.5,0.2c-0.3-0.1-0.5-0.1-0.8-0.2l-0.3-0.2
	l-0.6-0.5l-0.9-1l-0.5-0.7l-0.5-0.3l-1.1-1.2v-0.2l-0.1-0.1l0.1-0.5l-0.2-0.6v-0.4v-0.1v-0.1v-0.1v0.1l-0.1-0.1h-0.1l-0.2-0.3
	l-0.1-0.2l-0.3-0.3l-0.5-0.5h-0.1l-0.3-0.4l-0.1-1.1l0,0c0-2.6,1.2-5,3-6.6l-0.1,0.1l0.1,0.1l0.1-0.1l0.2,0.2l0.3-0.1l0.2-0.2v-0.2
	l0.4-0.2l-0.2,0.3l-0.1,0.1l-0.1,0.2v0.2l0.4-0.3v-0.1l0.2,0.2l-0.4,0.3H0.9l-0.2,0.2l-0.3,0.2l-0.2,0.1l-0.2,0.2l-0.5,0.4l0.1,0.2
	l-0.2,0.2l0.2,0.1l0.1,0.3l0.2,0.1l-0.2,0.5l0.1,0.2l0.2-0.1l0.1-0.4l0.3-0.1l0.2-0.2v-0.2l0.2-0.2l0.2-0.4h0.1h0.1l0.2,0.1l0.1,0.2
	h0.1l-0.1,0.4l0.1,0.1l0.2-0.1l0.2-0.2l0.2,0.5l-0.1,0.1l0.2,0.2l0.3,0.1l-0.4,0.2h0.3l0.2,0.1v0.2l-0.3,0.1l-0.2,0.2l-0.9-0.1
	l-0.6,0.5l0.5-0.2h0.2l-0.2,0.1l0.1,0.3l0.4,0.2l-0.6,0.3l0.2-0.3c-0.1,0-0.6,0.2-0.6,0.2l-0.2,0.2l-0.1,0.2L0,2000v0.2l0,0l0.1,0.2
	v0.3l-0.4,0.2l-0.5,0.3l-0.2,0.3v0.6l-0.3-0.4v-0.3l-0.2-0.1l-0.4-0.2v0.2l-0.3-0.1l-0.2,0.2l-0.1,0.8l0.2,0.6l0.1,0.2l0.2-0.1v-0.3
	h0.3l-0.1,0.7l0.4,0.1l0.1,0.7l0.3,0.3h0.2l0.2,0.2l0.1,0.4h0.1v-0.2h0.1l0.5,0.2h0.3l0.3,0.2l-0.1,0.1H1l0.3,0.3l0.5,0.1l0.5,0.6
	l-0.2,0.3l0.4,0.1l0.2-0.2l0.4,0.2v0.1l0.2-0.1l0.2,0.1h0.3l0.3,0.3l0.2,0.1l0.2,0.3L4.2,2007.4L4.2,2007.4z M0.9,1995.8v0.3H0.7
	l-0.2-0.1l0.2-0.2L0.9,1995.8L0.9,1995.8z M2.6,1998.7l-0.2,0.2l-0.6-0.1l0.5-0.5L2.6,1998.7L2.6,1998.7z M0.6,2003.3H0.4v-0.1
	L0.6,2003.3L0.6,2003.3L0.6,2003.3z M0.2,2003.2h-0.4l-0.1-0.2H0L0.2,2003.2L0.2,2003.2z M-0.4,2002.8h-0.4l-0.5-0.4l-0.2,0.1v-0.1
	h0.2L-0.4,2002.8L-0.4,2002.8z M5.8,1994.5h0.3l-0.1,0.2l-0.3,0.3H5.6l-0.1,0.3l-0.3,0.2l-0.1-0.1l-0.3,0.3l0.1,0.1l-0.3,0.3v0.2
	l-0.1,0.3l-0.3,0.1l-0.1-0.2l-0.3,0.1l-0.3-0.3l-0.1-0.4h0.2l-0.1-0.1l-0.1,0.1v-0.3l0.2-0.1l0.3-0.5v-0.3l-0.2,0.1l0.2-0.2l0.2-0.5
	l-0.2-0.1l0.1-0.1l0.2-0.1l0.4-0.2l0.3-0.2l0.4,0.1l0.3,0.1h0.3l-0.1,0.1l0.2,0.2v0.2H5.8l0.2,0.1h0.2l0.1,0.1H5.9L5.8,1994.5
	L5.8,1994.5z M3.5,1994.9l0.2-0.1v0.2L3.5,1994.9L3.5,1994.9L3.5,1994.9z M14.6,2001.7l-0.4,0.7l-0.1-0.1l-0.2-0.8l-0.6-1v-0.2
	l-0.1,0.1l-0.2-0.2l0.4,0.8l0.4,1.1l0.2,0.2l0.1,0.4l0.4-0.3l-0.2,0.8l-0.4,0.8l-0.6,1l-0.1,0.6l-0.2,0.6l-0.7,0.5v0.1l-0.1,0.4
	l-0.3,0.2v0.2l-1.2,0.8l-0.6,0.1l-0.1-0.1l0.2-0.3l-0.1-0.5l0.1-0.4l-0.1-0.5l0.6-0.5l0.3-0.5v-0.3l-0.7-0.6l0.1-0.2v-0.4l-0.2-0.2
	l-0.5,0.1v-0.2l-0.2-0.1l-0.6,0.3H8.5l-0.7,0.2l-0.8-0.5v-0.2l-0.3-0.3H6.6l-0.2-0.4l0.1-0.2l0.1-0.6l-0.1-0.2l0.5-1l0.1-0.2v-0.2
	l0.8-0.6h0.6l0.6-0.2l1.2-0.2l0.2,0.2l-0.1,0.4h0.5l0.8,0.4l0.1-0.4l1,0.1l0.5-0.1l-0.1-0.8l-0.3,0.1l-0.2-0.1v0.2l-0.4-0.3
	l-0.1-0.4H12l-0.2,0.1l0.1,0.2l0.2,0.2l-0.1,0.2h-0.2l-0.1-0.3l-0.2-0.2v-0.2l-0.5-0.2l-0.3-0.2v-0.1l-0.2,0.1v0.1l0.4,0.4h0.2
	l0.1,0.2l0.3,0.1v0.1l-0.1-0.1h-0.1l0.1,0.2l-0.2,0.2v0.2l-0.3-0.2h0.3l0.1-0.1l-0.1-0.2l-0.6-0.2l-0.3-0.3h-0.2L10,1999H9.8
	l-0.1-0.1H9.6v0.2l-0.2,0.1l-0.2,0.3l0,0l-0.2,0.3H8.3L8,2000l-0.2-0.1H7.6v-0.2H7.5l-0.1-0.1l0.1-0.2v-0.2l-0.1-0.1h0.1l0.1-0.1
	h0.8l0.1-0.3l-0.2-0.3H8v-0.2l0.3-0.1v-0.3h0.2l0.3-0.1l0.2-0.3l0.4-0.2l-0.2-0.2l0.2-0.1v0.1l0.1,0.3h0.2H10l0.2-0.2h0.3l0.1-0.1
	l-0.1-0.2h0.1h0.1v-0.2l-0.2-0.4l0.2-0.4h0.1l0.1,0.1l-0.3,0.1l-0.2,0.3l-0.4-0.4l0.1-0.4l-0.3-0.1v0.1l0.2,0.2l-0.2,0.3l0.1,0.2
	l0.2,0.1v0.2H10l0.1,0.2l-0.1,0.2l-0.2,0.1l-0.1-0.2l-0.3-0.3l-0.2,0.2l-0.3-0.1l-0.2-0.5l0.3-0.3l0.1-0.3l0.1-0.6l0.4-0.3l0.6,0.2
	l0.5,0.1l0.3,0.2l-0.1,0.1l-0.3-0.1l0.2,0.3l0.4,0.3h-0.1h0.2l-0.1-0.4l0.1-0.2l-0.1-0.4l0.1-0.1l-0.1-0.2l0.1-0.1v-0.1
	c2.2,1.4,3.7,3.7,4.1,6.4h-0.2l-0.1-0.2l-0.1,0.1l-0.3-0.4l-0.1,0.1l0.5,0.8l0.4-0.1v-0.3v0.3L14.6,2001.7L14.6,2001.7z"/>
<path id="Fill-23" sketch:type="MSShapeGroup" class="st1" d="M30.5,1991.5c-2.5,0-4.5,2-4.5,4.5s2,4.5,4.5,4.5s4.5-2,4.5-4.5
	S33,1991.5,30.5,1991.5L30.5,1991.5z M30.5,1998.5c-1.4,0-2.5-1.1-2.5-2.5s1.1-2.5,2.5-2.5s2.5,1.1,2.5,2.5S31.9,1998.5,30.5,1998.5
	z M41.5,2002.5c-2.5,0-4.5,2-4.5,4.5s2,4.5,4.5,4.5s4.5-2,4.5-4.5S44,2002.5,41.5,2002.5z M41.5,2009.5c-1.4,0-2.5-1.1-2.5-2.5
	s1.1-2.5,2.5-2.5s2.5,1.1,2.5,2.5S42.9,2009.5,41.5,2009.5z M27.7,2011.2l18-18c0.4-0.4,0.4-1,0-1.4s-1-0.4-1.4,0l-18,18
	c-0.4,0.4-0.4,1,0,1.4C26.7,2011.6,27.3,2011.6,27.7,2011.2z"/>
<path id="Fill-1_12_" sketch:type="MSShapeGroup" class="st25" d="M-173,1970.5v-3h-2v3c0,1.1,0.9,2,2,2h5v-2H-173 M-174,1961.5
	c-5.5,0-10,4.5-10,10s4.5,10,10,10s10-4.5,10-10S-168.5,1961.5-174,1961.5L-174,1961.5z M-174,1979.5c-4.4,0-8-3.6-8-8s3.6-8,8-8
	s8,3.6,8,8S-169.6,1979.5-174,1979.5L-174,1979.5z"/>
<path id="Fill-1_11_" sketch:type="MSShapeGroup" class="st25" d="M-114,1966.5c-2.8,0-5,2.2-5,5s2.2,5,5,5s5-2.2,5-5
	S-111.2,1966.5-114,1966.5L-114,1966.5z M-114,1974.5c-1.7,0-3-1.3-3-3s1.3-3,3-3s3,1.3,3,3S-112.3,1974.5-114,1974.5z M-121,1971.5
	c0-0.3,0-0.7,0.1-1h-4.1v2h4.1C-121,1972.2-121,1971.8-121,1971.5z M-113,1964.6v-4.1h-2v4.1c0.3,0,0.7-0.1,1-0.1
	S-113.3,1964.5-113,1964.6z M-107.1,1970.5c0,0.3,0.1,0.7,0.1,1s0,0.7-0.1,1h4.1v-2H-107.1z M-115,1978.4v4.1h2v-4.1
	c-0.3,0-0.7,0.1-1,0.1S-114.7,1978.5-115,1978.4z M-119.6,1975.7l-2.9,2.9l1.4,1.4l2.9-2.9c-0.3-0.2-0.5-0.4-0.8-0.7
	C-119.2,1976.2-119.4,1976-119.6,1975.7z M-118.9,1966.5c0.2-0.2,0.5-0.5,0.8-0.7l-2.9-2.9l-1.4,1.4l2.9,2.9
	C-119.4,1967-119.2,1966.8-118.9,1966.5z M-108.4,1967.3l2.9-2.9l-1.4-1.4l-2.9,2.9c0.3,0.2,0.5,0.4,0.8,0.7
	C-108.8,1966.8-108.6,1967-108.4,1967.3z M-109.1,1976.4c-0.2,0.2-0.5,0.5-0.8,0.7l2.9,2.9l1.4-1.4l-2.9-2.9
	C-108.6,1976-108.8,1976.2-109.1,1976.4z"/>
<path id="Fill-10_1_" sketch:type="MSShapeGroup" class="st25" d="M-88,1965.5l4,4l4-4H-88 M-73,1962.5h-22l10,10v6c0,0.6-0.4,1-1,1
	h-3v1h10v-1h-3c-0.6,0-1-0.4-1-1v-6L-73,1962.5L-73,1962.5z M-92,1963.5h16l-7,7h-2L-92,1963.5L-92,1963.5z"/>
<path id="Fill-12_1_" sketch:type="MSShapeGroup" class="st25" d="M-63,1973.5h8v8h-8V1973.5z M-64,1968.5h9v4h-9V1968.5z
	 M-53,1968.5h9v4h-9V1968.5z M-53,1973.5h8v8h-8V1973.5z M-58,1961.5c-1.7,0-3,1.3-3,3s1.3,3,3,3h3v-3
	C-55,1962.8-56.3,1961.5-58,1961.5z M-56,1966.5h-1.5c-0.8,0-1.5-0.7-1.5-1.5s0.7-1.5,1.5-1.5s1.5,0.7,1.5,1.5V1966.5z M-47,1964.5
	c0-1.7-1.3-3-3-3s-3,1.3-3,3v3h3C-48.3,1967.5-47,1966.2-47,1964.5z M-52,1966.5v-1.5c0-0.8,0.7-1.5,1.5-1.5s1.5,0.7,1.5,1.5
	s-0.7,1.5-1.5,1.5H-52L-52,1966.5z"/>
<path id="Fill-18_1_" sketch:type="MSShapeGroup" class="st25" d="M-26.6,1970.5c0-1,0.6-1.7,1.5-2.1l0,0c-0.9-0.4-1.2-1.1-1.2-1.8
	c0-1.2,1-2.1,2.4-2.1c1.5,0,2.3,0.9,2.3,1.9c0,0.7-0.3,1.4-1.3,1.8l0,0c1,0.4,1.6,1.1,1.6,2c0,1.4-1.2,2.3-2.7,2.3
	C-25.6,1972.6-26.6,1971.7-26.6,1970.5L-26.6,1970.5z M-25.3,1966.6c0,0.8,0.6,1.2,1.5,1.4c0.7-0.2,1.2-0.7,1.2-1.4
	c0-0.6-0.4-1.3-1.3-1.3C-24.8,1965.3-25.3,1965.9-25.3,1966.6L-25.3,1966.6z M-22.4,1970.5c0-0.9-0.7-1.4-1.7-1.7
	c-0.9,0.3-1.4,0.9-1.4,1.6c0,0.8,0.6,1.5,1.6,1.5C-23,1971.9-22.4,1971.3-22.4,1970.5L-22.4,1970.5z M-24,1961.5
	c-5.5,0-10,4.5-10,10s4.5,10,10,10s10-4.5,10-10S-18.5,1961.5-24,1961.5L-24,1961.5z M-24,1973.5c-2.8,0-5-2.2-5-5s2.2-5,5-5
	s5,2.2,5,5S-21.2,1973.5-24,1973.5L-24,1973.5z"/>
<path id="Fill-20_1_" sketch:type="MSShapeGroup" class="st25" d="M6,1961.5c-5.5,0-10,4.5-10,10s4.5,10,10,10s10-4.5,10-10
	S11.5,1961.5,6,1961.5z M7.6,1966.4h0.2l-0.1,0.2H8l-0.1,0.2l0.5,0.5h0.2v0.3l-0.5,0.1l-0.3,0.1l0.2-0.3h0.1v-0.1H7.8v-0.2H8v-0.2
	H7.8l-0.2-0.3L7.6,1966.4L7.6,1966.4z M7.2,1967.1h0.2v-0.1h0.3l0.1,0.1l-0.1,0.1l0.1,0.1l-0.4,0.2l-0.1-0.1l0.1-0.2L7.2,1967.1
	L7.2,1967.1L7.2,1967.1z M3.9,1963.4l0.2-0.1l0.5,0.1l-0.2,0.1l-0.1,0.1l-0.4,0.1H3.7H3.5v0.1l-0.2,0.2l-0.4-0.1v-0.1h0.2l0.2-0.2
	l0.4-0.1H3.5v-0.1H3.9L3.9,1963.4z M3,1963.5l0.4-0.1l-0.3,0.2l-0.3,0.1L3,1963.5L3,1963.5z M2.7,1963.8v0.2l0.2,0.1l-0.2,0.1
	l-0.3-0.1L2.7,1963.8L2.7,1963.8z M2.3,1964l-0.1,0.2h0.4l-0.2,0.3l-0.5-0.2L2.3,1964L2.3,1964z M1.5,1964.6l0.4-0.2l0.2,0.1
	l-0.1,0.3l0.2-0.1l0.2,0.2l0.2,0.4l-0.2,0.2l0.2,0.2l0.1,0.2l-0.4,0.3l-0.1-0.3L2,1966l0.1,0.4l-0.1,0.2l-0.1-0.2H1.7l0.1,0.2v0.2
	l-0.3-0.2l-0.1-0.3H1.1l0.2-0.1h0.6v-0.2l0.1-0.2l-0.2-0.6l-0.3,0.2l-0.3-0.2L1.5,1964.6L1.5,1964.6z M0.4,1964.7
	c0.3-0.2,0.5-0.4,0.8-0.6l-0.2,0.2h0.2l-0.4,0.3l-0.1,0.2l-0.2,0.1L0.4,1964.7L0.4,1964.7L0.4,1964.7z M4.2,1977.4l-0.1,0.2H4
	l0.1,0.5l-0.1,0.4H3.7l-0.4,0.2l0.1,0.2l-0.1,0.5H3l0.2,0.1v0.1H3v0.2l0.2,0.1l0.2,0.2l0.5,0.2c-0.3-0.1-0.5-0.1-0.8-0.2l-0.3-0.2
	l-0.6-0.5l-0.9-1l-0.5-0.7l-0.5-0.3l-1.1-1.2v-0.2l-0.1-0.1l0.1-0.5l-0.2-0.6v-0.4v-0.1v-0.1v-0.1v0.1l-0.1-0.1h-0.1l-0.2-0.3
	l-0.1-0.2l-0.3-0.3l-0.5-0.5h-0.1l-0.3-0.4l-0.1-1.1l0,0c0-2.6,1.2-5,3-6.6l-0.1,0.1l0.1,0.1l0.1-0.1l0.2,0.2l0.3-0.1l0.2-0.2v-0.2
	l0.4-0.2l-0.2,0.3l-0.1,0.1l-0.1,0.2v0.2l0.4-0.3v-0.1l0.2,0.2l-0.4,0.3H0.9l-0.2,0.2l-0.3,0.2l-0.2,0.1l-0.2,0.2l-0.5,0.4l0.1,0.2
	l-0.2,0.2l0.2,0.1l0.1,0.3l0.2,0.1l-0.2,0.5l0.1,0.2l0.2-0.1l0.1-0.4l0.3-0.1l0.2-0.2v-0.2l0.2-0.2l0.2-0.4h0.1h0.1l0.2,0.1l0.1,0.2
	h0.1l-0.1,0.4l0.1,0.1l0.2-0.1l0.2-0.2l0.2,0.5l-0.1,0.1l0.2,0.2l0.3,0.1l-0.4,0.2h0.3l0.2,0.1v0.2l-0.3,0.1l-0.2,0.2l-0.9-0.1
	l-0.6,0.5l0.5-0.2h0.2l-0.2,0.1l0.1,0.3l0.4,0.2l-0.6,0.3l0.2-0.3c-0.1,0-0.6,0.2-0.6,0.2l-0.2,0.2l-0.1,0.2L0,1970v0.2l0,0l0.1,0.2
	v0.3l-0.4,0.2l-0.5,0.3l-0.2,0.3v0.6l-0.3-0.4v-0.3l-0.2-0.1l-0.4-0.2v0.2l-0.3-0.1l-0.2,0.2l-0.1,0.8l0.2,0.6l0.1,0.2l0.2-0.1v-0.3
	h0.3l-0.1,0.7l0.4,0.1l0.1,0.7l0.3,0.3h0.2l0.2,0.2l0.1,0.4h0.1v-0.2h0.1l0.5,0.2h0.3l0.3,0.2l-0.1,0.1H1l0.3,0.3l0.5,0.1l0.5,0.6
	l-0.2,0.3l0.4,0.1l0.2-0.2l0.4,0.2v0.1l0.2-0.1l0.2,0.1h0.3l0.3,0.3l0.2,0.1l0.2,0.3L4.2,1977.4L4.2,1977.4z M0.9,1965.8v0.3H0.7
	l-0.2-0.1l0.2-0.2L0.9,1965.8L0.9,1965.8z M2.6,1968.7l-0.2,0.2l-0.6-0.1l0.5-0.5L2.6,1968.7L2.6,1968.7z M0.6,1973.3H0.4v-0.1
	L0.6,1973.3L0.6,1973.3L0.6,1973.3z M0.2,1973.2h-0.4l-0.1-0.2H0L0.2,1973.2L0.2,1973.2z M-0.4,1972.8h-0.4l-0.5-0.4l-0.2,0.1v-0.1
	h0.2L-0.4,1972.8L-0.4,1972.8z M5.8,1964.5h0.3l-0.1,0.2l-0.3,0.3H5.6l-0.1,0.3l-0.3,0.2l-0.1-0.1l-0.3,0.3l0.1,0.1l-0.3,0.3v0.2
	l-0.1,0.3l-0.3,0.1l-0.1-0.2l-0.3,0.1l-0.3-0.3l-0.1-0.4h0.2l-0.1-0.1l-0.1,0.1v-0.3l0.2-0.1l0.3-0.5v-0.3l-0.2,0.1l0.2-0.2l0.2-0.5
	l-0.2-0.1l0.1-0.1l0.2-0.1l0.4-0.2l0.3-0.2l0.4,0.1l0.3,0.1h0.3l-0.1,0.1l0.2,0.2v0.2H5.8l0.2,0.1h0.2l0.1,0.1H5.9L5.8,1964.5
	L5.8,1964.5z M3.5,1964.9l0.2-0.1v0.2L3.5,1964.9L3.5,1964.9L3.5,1964.9z M14.6,1971.7l-0.4,0.7l-0.1-0.1l-0.2-0.8l-0.6-1v-0.2
	l-0.1,0.1l-0.2-0.2l0.4,0.8l0.4,1.1l0.2,0.2l0.1,0.4l0.4-0.3l-0.2,0.8l-0.4,0.8l-0.6,1l-0.1,0.6l-0.2,0.6l-0.7,0.5v0.1l-0.1,0.4
	l-0.3,0.2v0.2l-1.2,0.8l-0.6,0.1l-0.1-0.1l0.2-0.3l-0.1-0.5l0.1-0.4l-0.1-0.5l0.6-0.5l0.3-0.5v-0.3l-0.7-0.6l0.1-0.2v-0.4l-0.2-0.2
	l-0.5,0.1v-0.2l-0.2-0.1l-0.6,0.3H8.5l-0.7,0.2l-0.8-0.5v-0.2l-0.3-0.3H6.6l-0.2-0.4l0.1-0.2l0.1-0.6l-0.1-0.2l0.5-1l0.1-0.2v-0.2
	l0.8-0.6h0.6l0.6-0.2l1.2-0.2l0.2,0.2l-0.1,0.4h0.5l0.8,0.4l0.1-0.4l1,0.1l0.5-0.1l-0.1-0.8l-0.3,0.1l-0.2-0.1v0.2l-0.4-0.3
	l-0.1-0.4H12l-0.2,0.1l0.1,0.2l0.2,0.2l-0.1,0.2h-0.2l-0.1-0.3l-0.2-0.2v-0.2l-0.5-0.2l-0.3-0.2v-0.1l-0.2,0.1v0.1l0.4,0.4h0.2
	l0.1,0.2l0.3,0.1v0.1l-0.1-0.1h-0.1l0.1,0.2l-0.2,0.2v0.2l-0.3-0.2h0.3l0.1-0.1l-0.1-0.2l-0.6-0.2l-0.3-0.3h-0.2L10,1969H9.8
	l-0.1-0.1H9.6v0.2l-0.2,0.1l-0.2,0.3l0,0l-0.2,0.3H8.3L8,1970l-0.2-0.1H7.6v-0.2H7.5l-0.1-0.1l0.1-0.2v-0.2l-0.1-0.1h0.1l0.1-0.1
	h0.8l0.1-0.3l-0.2-0.3H8v-0.2l0.3-0.1v-0.3h0.2l0.3-0.1l0.2-0.3l0.4-0.2l-0.2-0.2l0.2-0.1v0.1l0.1,0.3h0.2H10l0.2-0.2h0.3l0.1-0.1
	l-0.1-0.2h0.1h0.1v-0.2l-0.2-0.4l0.2-0.4h0.1l0.1,0.1l-0.3,0.1l-0.2,0.3l-0.4-0.4l0.1-0.4l-0.3-0.1v0.1l0.2,0.2l-0.2,0.3l0.1,0.2
	l0.2,0.1v0.2H10l0.1,0.2l-0.1,0.2l-0.2,0.1l-0.1-0.2l-0.3-0.3l-0.2,0.2l-0.3-0.1l-0.2-0.5l0.3-0.3l0.1-0.3l0.1-0.6l0.4-0.3l0.6,0.2
	l0.5,0.1l0.3,0.2l-0.1,0.1l-0.3-0.1l0.2,0.3l0.4,0.3h-0.1h0.2l-0.1-0.4l0.1-0.2l-0.1-0.4l0.1-0.1l-0.1-0.2l0.1-0.1v-0.1
	c2.2,1.4,3.7,3.7,4.1,6.4h-0.2l-0.1-0.2l-0.1,0.1l-0.3-0.4l-0.1,0.1l0.5,0.8l0.4-0.1v-0.3v0.3L14.6,1971.7L14.6,1971.7z"/>
<path id="Fill-23_1_" sketch:type="MSShapeGroup" class="st25" d="M30.5,1961.5c-2.5,0-4.5,2-4.5,4.5s2,4.5,4.5,4.5s4.5-2,4.5-4.5
	S33,1961.5,30.5,1961.5L30.5,1961.5z M30.5,1968.5c-1.4,0-2.5-1.1-2.5-2.5s1.1-2.5,2.5-2.5s2.5,1.1,2.5,2.5S31.9,1968.5,30.5,1968.5
	z M41.5,1972.5c-2.5,0-4.5,2-4.5,4.5s2,4.5,4.5,4.5s4.5-2,4.5-4.5S44,1972.5,41.5,1972.5z M41.5,1979.5c-1.4,0-2.5-1.1-2.5-2.5
	s1.1-2.5,2.5-2.5s2.5,1.1,2.5,2.5S42.9,1979.5,41.5,1979.5z M27.7,1981.2l18-18c0.4-0.4,0.4-1,0-1.4s-1-0.4-1.4,0l-18,18
	c-0.4,0.4-0.4,1,0,1.4C26.7,1981.6,27.3,1981.6,27.7,1981.2z"/>
<g transform="translate(9.000000, 307.000000)" sketch:type="MSLayerGroup">
	<path id="Fill-1_25_" sketch:type="MSShapeGroup" class="st1" d="M-160,2003.5l-0.9,6.6l-7.6-6.6l-0.5,0.5l6.6,7.6l-6.6,0.9v1h10
		v-10H-160z"/>
	<path id="Fill-2_10_" sketch:type="MSShapeGroup" class="st1" d="M-157,2015.5v10h1l0.9-6.6l7.6,6.6l0.5-0.5l-6.6-7.6l6.6-0.9v-1
		H-157z"/>
</g>
<path id="Fill-1_24_" sketch:type="MSShapeGroup" class="st1" d="M-138,2224.5c0,2.2-1.8,4-4,4h-16c-2.2,0-4-1.8-4-4v-12
	c0-2.2,1.8-4,4-4h16c2.2,0,4,1.8,4,4V2224.5z M-142,2206.5h-16c-3.3,0-6,2.7-6,6v12c0,3.3,2.7,6,6,6h16c3.3,0,6-2.7,6-6v-12
	C-136,2209.2-138.7,2206.5-142,2206.5z M-126,2225.8l-6-6.1l0-2.3c1.2-1.2,3.8-3.8,6-6.1V2225.8z M-126.6,2209
	c-2.3,2.4-5.5,5.6-6.8,6.9c-0.4,0.4-0.6,0.9-0.6,1.5v2.3c0,0.5,0.2,1.1,0.6,1.4l6.9,6.9c0.9,1,2.6,0.3,2.6-1.1v-17
	C-124,2208.7-125.6,2208-126.6,2209L-126.6,2209z"/>
<path id="Fill-1_23_" sketch:type="MSShapeGroup" class="st1" d="M-141,2087.5c0,2.8-2.2,5-5,5s-5-2.2-5-5v-8c0-2.8,2.2-5,5-5
	s5,2.2,5,5V2087.5z M-146,2072.5c-3.9,0-7,3.1-7,7v8c0,3.9,3.1,7,7,7s7-3.1,7-7v-8C-139,2075.6-142.1,2072.5-146,2072.5z
	 M-137,2084.5v3c0,5-4,9-9,9c-5,0-9-4-9-9v-3c-1.1,0-2,0.9-2,2v1c0,5.7,4.4,10.4,10,10.9v4.1h-4c-1.1,0-2,0.9-2,2h14
	c0-1.1-0.9-2-2-2h-4v-4.1c5.6-0.5,10-5.2,10-10.9v-1C-135,2085.4-135.9,2084.5-137,2084.5z"/>
<g transform="translate(104.000000, 211.000000)" sketch:type="MSLayerGroup">
	<g id="Clip-2">
	</g>
	<defs>
		<filter id="Adobe_OpacityMaskFilter" filterUnits="userSpaceOnUse" x="-269" y="2049.5" width="42" height="16">
			<feColorMatrix  type="matrix" values="1 0 0 0 0  0 1 0 0 0  0 0 1 0 0  0 0 0 1 0"/>
		</filter>
	</defs>
	<mask maskUnits="userSpaceOnUse" x="-269" y="2049.5" width="42" height="16" id="mask-2_1_">
		<g class="st26">
			<path id="path-1_1_" class="st1" d="M-269,2049.5h42v16h-42"/>
		</g>
	</mask>
	<path id="Fill-1_22_" sketch:type="MSShapeGroup" class="st27" d="M-254.2,2055.6h12.5c1.7,0,3.5,1.2,3.5,3.4c0,3.7,0.7,3.8,2.5,4
		c0.5,0.1,2.1,0.2,3.2,0.3l1.3,0.1c1.1,0.1,1.6-0.3,1.9-1.5c1-4-0.5-6.9-4.4-8c-4.5-1.3-9.3-2.5-14.3-2.5c-4.9,0-9.8,1.2-14.3,2.5
		c-3.9,1.1-5.5,3.9-4.4,8c0.3,1.2,0.8,1.6,1.9,1.5c0.3,0,0.7-0.1,1.3-0.1c1.2-0.1,2.7-0.2,3.2-0.3c1.7-0.2,2.5-0.3,2.5-4
		C-257.8,2056.8-255.9,2055.6-254.2,2055.6 M-230.9,2065.5c-0.2,0-0.3,0-0.5,0l-1.3-0.1c-1.2-0.1-2.8-0.3-3.3-0.3
		c-3.2-0.4-4.3-1.9-4.2-6c0-1.1-1-1.4-1.5-1.4h-12.5c-0.6,0-1.5,0.3-1.5,1.4c0,4.1-1,5.6-4.2,6c-0.6,0.1-2.1,0.2-3.3,0.3l-1.3,0.1
		c-1.5,0.1-3.4-0.3-4.1-3c-1.3-5.1,0.9-9,5.8-10.4c4.6-1.3,9.6-2.6,14.8-2.6c5.2,0,10.2,1.3,14.8,2.6c5,1.4,7.1,5.3,5.8,10.4
		C-228,2064.9-229.6,2065.5-230.9,2065.5"/>
</g>
<g id="Fill-1-_x2B_-Fill-3" transform="translate(10.000000, 146.000000)" sketch:type="MSLayerGroup">
	<path id="Fill-1_21_" sketch:type="MSShapeGroup" class="st19" d="M-149.8,2006.8l0.2,2c0.2,2.3-0.3,4.4-1.6,6.1
		c-1.3,1.7-3.3,2.9-5.7,3.4l-2.4,0.5l1.5,1.9c1.6,2,4.1,3.2,7,3.4c0.3,0,0.7,0,1.1,0c0.7,0,1.5,0,2.3-0.1c1.1,0.7,2.5,1,4.2,1
		c0.4,0,0.7,0,1.2,0c1.2-0.1,1.7-0.9,1.7-1.5c0.1-0.6-0.2-1.4-1.2-1.7c1.4-1.2,2.7-2.7,2.8-4.9c0.1-5-4.5-8.6-9.1-9.6l-0.2,0
		L-149.8,2006.8z M-148.1,2008.6l0.2,0c4,0.9,8,3.9,7.9,8.1c-0.1,1.9-1.4,3.2-3,4.4c-0.1,0.1-0.2,0.2-0.3,0.4c0,0.8,0.6,1.3,1.3,1.5
		c0.4,0.1,0.5,0.3,0,0.4c-0.3,0-0.7,0-1.1,0c-1.4,0-2.8-0.2-3.8-1.1c-0.9,0.1-1.8,0.2-2.7,0.2c-0.3,0-0.7,0-1,0
		c-2.6-0.2-4.7-1.2-6-2.8c2.7-0.6,5-1.9,6.5-4C-148.5,2013.8-147.8,2011.3-148.1,2008.6L-148.1,2008.6z"/>
	<path id="Fill-3_7_" sketch:type="MSShapeGroup" class="st1" d="M-161.7,2001.8c-4.7,1.1-9.4,4.7-9.3,9.6c0.1,2.5,1.8,4,3.3,4.9
		c0.5,0.3,0.8,0.8,0.8,1.4c0,0.6-0.1,1.1-0.4,1.5c1.2-0.1,2.4-0.4,3.3-1.1l0.3-0.3l0.4,0.1c1.8,0.2,3.2,0.3,4.5,0.2
		c3-0.2,5.6-1.5,7.1-3.5c1.4-1.9,1.9-4.3,1.3-6.9c-0.4-2.1-1.5-3.6-3.2-4.7C-155.5,2001.5-158.6,2001.1-161.7,2001.8 M-168.2,2021.2
		c-0.5,0-1,0-1.4-0.1c-1.2-0.1-1.4-0.9-1.4-1.1c0-0.5,0.2-1.1,1.2-1.3c0.2-0.1,0.9-0.3,1-0.8c-2.6-1.5-4.1-3.8-4.1-6.4
		c-0.1-6,5.4-10.4,10.9-11.6h0c3.6-0.8,7.2-0.3,9.8,1.3c2.1,1.3,3.5,3.4,4,6c0.7,3.2,0.1,6.2-1.6,8.6c-1.9,2.5-4.9,4.1-8.5,4.3
		c-1.3,0.1-2.8,0-4.5-0.2C-164.6,2021-166.5,2021.2-168.2,2021.2"/>
</g>
<g id="Fill-1-_x2B_-Fill-3_1_" transform="translate(90.000000, 146.000000)" sketch:type="MSLayerGroup">
	<path id="Fill-1_20_" sketch:type="MSShapeGroup" class="st28" d="M-159.8,2006.8l0.2,2c0.2,2.3-0.3,4.4-1.6,6.1
		c-1.3,1.7-3.3,2.9-5.7,3.4l-2.4,0.5l1.5,1.9c1.6,2,4.1,3.2,7,3.4c0.3,0,0.7,0,1.1,0c0.7,0,1.5,0,2.3-0.1c1.1,0.7,2.5,1,4.2,1
		c0.4,0,0.7,0,1.2,0c1.2-0.1,1.7-0.9,1.7-1.5c0.1-0.6-0.2-1.4-1.2-1.7c1.4-1.2,2.7-2.7,2.8-4.9c0.1-5-4.5-8.6-9.1-9.6l-0.2,0
		L-159.8,2006.8z M-158.1,2008.6l0.2,0c4,0.9,8,3.9,7.9,8.1c-0.1,1.9-1.4,3.2-3,4.4c-0.1,0.1-0.2,0.2-0.3,0.4c0,0.8,0.6,1.3,1.3,1.5
		c0.4,0.1,0.5,0.3,0,0.4c-0.3,0-0.7,0-1.1,0c-1.4,0-2.8-0.2-3.8-1.1c-0.9,0.1-1.8,0.2-2.7,0.2c-0.3,0-0.7,0-1,0
		c-2.6-0.2-4.7-1.2-6-2.8c2.7-0.6,5-1.9,6.5-4C-158.5,2013.8-157.8,2011.3-158.1,2008.6L-158.1,2008.6z"/>
	<path id="Fill-3_6_" sketch:type="MSShapeGroup" class="st29" d="M-171.7,2001.8c-4.7,1.1-9.4,4.7-9.3,9.6c0.1,2.5,1.8,4,3.3,4.9
		c0.5,0.3,0.8,0.8,0.8,1.4c0,0.6-0.1,1.1-0.4,1.5c1.2-0.1,2.4-0.4,3.3-1.1l0.3-0.3l0.4,0.1c1.8,0.2,3.2,0.3,4.5,0.2
		c3-0.2,5.6-1.5,7.1-3.5c1.4-1.9,1.9-4.3,1.3-6.9c-0.4-2.1-1.5-3.6-3.2-4.7C-165.5,2001.5-168.6,2001.1-171.7,2001.8 M-178.2,2021.2
		c-0.5,0-1,0-1.4-0.1c-1.2-0.1-1.4-0.9-1.4-1.1c0-0.5,0.2-1.1,1.2-1.3c0.2-0.1,0.9-0.3,1-0.8c-2.6-1.5-4.1-3.8-4.1-6.4
		c-0.1-6,5.4-10.4,10.9-11.6h0c3.6-0.8,7.2-0.3,9.8,1.3c2.1,1.3,3.5,3.4,4,6c0.7,3.2,0.1,6.2-1.6,8.6c-1.9,2.5-4.9,4.1-8.5,4.3
		c-1.3,0.1-2.8,0-4.5-0.2C-174.6,2021-176.5,2021.2-178.2,2021.2"/>
</g>
<path id="Fill-1_18_" sketch:type="MSShapeGroup" class="st1" d="M-56,2225.8l-6-6.1l0-2.3c1.2-1.2,3.8-3.8,6-6.1V2225.8z
	 M-56.6,2209c-2.3,2.4-5.5,5.6-6.8,6.9c-0.4,0.4-0.6,0.9-0.6,1.5v2.3c0,0.5,0.2,1.1,0.6,1.4l6.9,6.9c0.9,1,2.6,0.3,2.6-1.1v-17
	C-54,2208.7-55.6,2208-56.6,2209z M-91.4,2226.6c-0.4-0.6-0.6-1.3-0.6-2.1v-12c0-2.2,1.8-4,4-4h14.8l2-2c-0.2,0-0.5,0-0.7,0h-16
	c-3.3,0-6,2.7-6,6v12c0,1.3,0.4,2.6,1.2,3.6L-91.4,2226.6z M-68.1,2211.8c0,0.2,0.1,0.5,0.1,0.7v12c0,2.2-1.8,4-4,4h-12.8l-2,2H-72
	c3.3,0,6-2.7,6-6v-12c0-0.8-0.2-1.6-0.5-2.3L-68.1,2211.8z"/>
<path id="Fill-7" sketch:type="MSShapeGroup" class="st30" d="M-92,2232.5c-0.3,0-0.5-0.1-0.7-0.3c-0.4-0.4-0.4-1,0-1.4l26-26
	c0.4-0.4,1-0.4,1.4,0c0.4,0.4,0.4,1,0,1.4l-26,26C-91.5,2232.4-91.7,2232.5-92,2232.5"/>
<path id="Fill-2-Copy_1_" sketch:type="MSShapeGroup" class="st1" d="M-71,2038.5l5,4v-10l-5,4V2038.5z M-84,2033.5c0-1.1,0.9-2,2-2
	h8c1.1,0,2,0.9,2,2v8c0,1.1-0.9,2-2,2h-8c-1.1,0-2-0.9-2-2V2033.5z"/>
<g id="Group" transform="translate(60.000000, 1.000000)" sketch:type="MSLayerGroup">
	<path id="Fill-1_17_" sketch:type="MSShapeGroup" class="st1" d="M-205,2037v-1.4l-4.7,4.7c0.4,0.1,0.8,0.2,1.2,0.2
		C-206.6,2040.5-205,2038.9-205,2037"/>
	<path id="Fill-3_5_" sketch:type="MSShapeGroup" class="st1" d="M-205.3,2031.6c-0.5-1.3-1.8-2.2-3.2-2.2c-1.9,0-3.5,1.6-3.5,3.5v4
		c0,0.4,0.1,0.8,0.2,1.2L-205.3,2031.6z"/>
	<path id="Fill-6_4_" sketch:type="MSShapeGroup" class="st1" d="M-204,2037c0,2.5-2,4.5-4.5,4.5c-0.7,0-1.3-0.2-1.9-0.4l-0.6,0.6
		c0.7,0.4,1.4,0.7,2,0.8v2h-3v1h7v-1h-3v-2c3-0.3,5-2.6,5-5.5v-1.5h-1V2037z"/>
	<path id="Fill-8" sketch:type="MSShapeGroup" class="st1" d="M-212.5,2038.9c-0.3-0.6-0.4-1.2-0.4-1.9v-1.5h-1v1.5
		c0,0.9,0.3,1.8,0.8,2.6L-212.5,2038.9z"/>
	<path id="Fill-10_2_" sketch:type="MSShapeGroup" class="st1" d="M-215.5,2044.5c-0.1,0-0.3,0-0.4-0.1c-0.2-0.2-0.2-0.5,0-0.7
		l13-13c0.2-0.2,0.5-0.2,0.7,0c0.2,0.2,0.2,0.5,0,0.7l-13,13C-215.2,2044.5-215.4,2044.5-215.5,2044.5"/>
</g>
<path id="Fill-10_4_" sketch:type="MSShapeGroup" class="st30" d="M-89,2103.5c-0.3,0-0.5-0.1-0.7-0.3c-0.4-0.4-0.4-1,0-1.4l26-26
	c0.4-0.4,1-0.4,1.4,0c0.4,0.4,0.4,1,0,1.4l-26,26C-88.5,2103.4-88.7,2103.5-89,2103.5"/>
<path id="Fill-1_27_" sketch:type="MSShapeGroup" class="st1" d="M-69,2088.5v-1.8l-2,2c-0.1,2.5-2.2,4.6-4.7,4.7l-1.8,1.8
	c0.5,0.1,1,0.2,1.6,0.2C-72.1,2095.5-69,2092.4-69,2088.5z M-80.7,2090c-0.2-0.5-0.3-1-0.3-1.5v-8c0-2.8,2.2-5,5-5
	c2.7,0,4.9,2.1,5,4.8l1.7-1.7c-0.8-2.9-3.5-5-6.7-5c-3.9,0-7,3.1-7,7v8c0,1.1,0.3,2.1,0.7,3.1L-80.7,2090z M-67,2088.5c0,5-4,9-9,9
	c-1.1,0-2.2-0.2-3.2-0.6l-1.5,1.5c1.1,0.5,2.4,0.9,3.7,1v4.1h-4c-1.1,0-2,0.9-2,2h14c0-1.1-0.9-2-2-2h-4v-4.1
	c5.6-0.5,10-5.2,10-10.9v-3h-2V2088.5z M-83.8,2093c-0.8-1.3-1.2-2.9-1.2-4.5v-3h-2v3c0,2.2,0.7,4.3,1.8,6L-83.8,2093z"/>
<g>
	<path id="Fill-10_3_" class="st30" d="M21.7,2101.7c-0.2,0-0.3-0.1-0.5-0.2c-0.3-0.3-0.3-0.7,0-0.9l17.1-17.1
		c0.3-0.3,0.7-0.3,0.9,0s0.3,0.7,0,0.9l-17.1,17.1C22,2101.6,21.8,2101.7,21.7,2101.7"/>
	<path id="Fill-1_30_" class="st1" d="M34.8,2091.8v-1.2l-1.3,1.3c-0.1,1.7-1.4,3-3.1,3.1l-1.2,1.2c0.3,0.1,0.7,0.1,1,0.1
		C32.7,2096.4,34.8,2094.4,34.8,2091.8z M27.1,2092.8c-0.1-0.3-0.2-0.6-0.2-1v-5.2c0-1.8,1.5-3.3,3.3-3.3c1.8,0,3.2,1.4,3.3,3.1
		l1.1-1.1c-0.6-1.9-2.3-3.3-4.4-3.3c-2.5,0-4.6,2.1-4.6,4.6v5.2c0,0.7,0.2,1.4,0.5,2L27.1,2092.8z M36.1,2091.8
		c0,3.3-2.6,5.9-5.9,5.9c-0.7,0-1.4-0.1-2.1-0.4l-1,1c0.7,0.4,1.6,0.6,2.4,0.7v2.7h-2.6c-0.7,0-1.3,0.6-1.3,1.3h9.2
		c0-0.7-0.6-1.3-1.3-1.3h-2.6v-2.7c3.7-0.3,6.6-3.4,6.6-7.2v-2h-1.3V2091.8z M25.1,2094.8c-0.5-0.9-0.8-1.9-0.8-3v-2H23v2
		c0,1.4,0.4,2.8,1.2,3.9L25.1,2094.8z"/>
</g>
<path id="Fill-22" sketch:type="MSShapeGroup" class="st31" d="M-9.7,2265.5c3.3,0,6.5,0.8,9.7,1.7c3,0.9,4.2,3.1,3.4,6.1
	c-0.3,1.1-0.9,1.6-2,1.5c-0.5-0.1-2.5-0.2-3-0.3c-1.7-0.2-2.3-0.8-2.2-3.3c0-1.1-0.8-1.6-1.7-1.6h-8.3c-0.8,0-1.7,0.6-1.7,1.6
	c0,2.6-0.6,3.1-2.2,3.3c-0.5,0.1-2.5,0.2-3,0.3c-1.1,0.1-1.7-0.4-2-1.5c-0.8-3,0.4-5.3,3.4-6.1C-16.2,2266.3-13,2265.5-9.7,2265.5"
	/>
<path id="Fill-1-Copy-2" sketch:type="MSShapeGroup" class="st1" d="M20,2315.5v7.9h1.1l0.7-4.9l4.9,4.9l1.1-1.1l-4.9-4.9l4.9-0.7
	v-1.1H20z M36.9,2325.6l-0.7,4.9l-4.9-4.9l-1.1,1.1l4.9,4.9l-4.9,0.7v1.1H38v-7.9H36.9z"/>
<g id="Page-1" transform="translate(300.311475, 0.906328)" sketch:type="MSShapeGroup">
	<path id="Fill-1_29_" class="st1" d="M-312.8,2315.5l-0.7,5.1l-6-5.1l-0.4,0.4l5.2,5.9l-5.2,0.7v0.8h8v-7.8H-312.8z"/>
	<path id="Fill-2_12_" class="st1" d="M-310.5,2324.9v7.8h0.8l0.7-5.1l6,5.1l0.4-0.4l-5.2-5.9l5.2-0.7v-0.8H-310.5z"/>
</g>
<g id="Fill-80-_x2B_-Fill-81_1_" transform="translate(61.000000, 2.000000)" sketch:type="MSLayerGroup">
	<path id="Fill-80_3_" sketch:type="MSShapeGroup" class="st32" d="M-20.2,2167.6c0-0.1,0.1-0.3,0.2-0.3c1.4-0.8,2.3-1.9,2.4-3.5
		c0.1-3.1-2.7-5.5-5.7-6.3c0.1,2.3-0.5,4.4-1.9,6.1c-1.2,1.5-2.9,2.6-4.9,3.2c1.1,0.9,2.5,1.5,4.2,1.7c1,0.1,1.9,0,2.9-0.1
		c1.1,0.9,2.6,0.9,3.9,0.8c0.4,0,0.3-0.2,0-0.3C-19.8,2168.7-20.3,2168.2-20.2,2167.6z"/>
	<path id="Fill-81_3_" sketch:type="MSShapeGroup" class="st33" d="M-25.5,2156.1c-1.1-4.7-5.8-6.3-10.5-5.3
		c-4.2,0.9-8.5,4.2-8.4,8.6c0.1,2,1.3,3.6,3.2,4.6c0.1,0.1,0.3,0.2,0.3,0.4c0,0.9-0.6,1.4-1.4,1.7c-0.4,0.1-0.5,0.3,0,0.4
		c1.7,0.1,3.8,0.1,5.2-1.1c1.3,0.2,2.6,0.3,3.9,0.2C-27.9,2165.2-24.3,2161.3-25.5,2156.1"/>
</g>
<g id="Fill-80-_x2B_-Fill-81_2_" transform="translate(1.000000, 2.000000)" sketch:type="MSLayerGroup">
	<path id="Fill-80_5_" sketch:type="MSShapeGroup" class="st34" d="M-0.2,2167.6c0-0.1,0.1-0.3,0.2-0.3c1.4-0.8,2.3-1.9,2.4-3.5
		c0.1-3.1-2.7-5.5-5.7-6.3c0.1,2.3-0.5,4.4-1.9,6.1c-1.2,1.5-2.9,2.6-4.9,3.2c1.1,0.9,2.5,1.5,4.2,1.7c1,0.1,1.9,0,2.9-0.1
		c1.1,0.9,2.6,0.9,3.9,0.8c0.4,0,0.3-0.2,0-0.3C0.2,2168.7-0.3,2168.2-0.2,2167.6z"/>
	<path id="Fill-81_5_" sketch:type="MSShapeGroup" class="st35" d="M-5.5,2156.1c-1.1-4.7-5.8-6.3-10.5-5.3
		c-4.2,0.9-8.5,4.2-8.4,8.6c0.1,2,1.3,3.6,3.2,4.6c0.1,0.1,0.3,0.2,0.3,0.4c0,0.9-0.6,1.4-1.4,1.7c-0.4,0.1-0.5,0.3,0,0.4
		c1.7,0.1,3.8,0.1,5.2-1.1c1.3,0.2,2.6,0.3,3.9,0.2C-7.9,2165.2-4.3,2161.3-5.5,2156.1"/>
</g>
<path id="Fill-1_32_" class="st1" d="M-6.5,2091.8c0,1.8-1.5,3.3-3.3,3.3c-1.8,0-3.3-1.5-3.3-3.3v-5.2c0-1.8,1.5-3.3,3.3-3.3
	c1.8,0,3.3,1.5,3.3,3.3V2091.8z M-9.8,2082c-2.5,0-4.6,2.1-4.6,4.6v5.2c0,2.5,2.1,4.6,4.6,4.6c2.5,0,4.6-2.1,4.6-4.6v-5.2
	C-5.2,2084.1-7.3,2082-9.8,2082z M-3.9,2089.9v2c0,3.3-2.6,5.9-5.9,5.9c-3.3,0-5.9-2.6-5.9-5.9v-2c-0.7,0-1.3,0.9-1.3,2
	c0,3.8,2.9,6.9,6.6,7.2v2.7h-2.6c-0.7,0-1.3,0.6-1.3,1.3h9.2c0-0.7-0.6-1.3-1.3-1.3h-2.6v-2.7c3.7-0.3,6.6-3.4,6.6-7.2
	C-2.6,2090.8-3.5,2089.9-3.9,2089.9z"/>
<path id="Fill-1_33_" class="st1" d="M-5.9,2226.4c0,1.4-1.2,2.6-2.6,2.6H-19c-1.5,0-2.6-1.2-2.6-2.6v-7.7c0-1.4,1.2-2.6,2.6-2.6
	h10.5c1.5,0,2.6,1.2,2.6,2.6V2226.4z M-8.5,2214.8H-19c-2.2,0-4,1.7-4,3.9v7.7c0,2.1,1.8,3.9,4,3.9h10.5c2.2,0,3.9-1.7,3.9-3.9v-7.7
	C-4.6,2216.5-6.3,2214.8-8.5,2214.8z M2,2227.2l-3.9-3.9l0-1.5c0.8-0.7,2.5-2.4,3.9-3.9V2227.2z M1.6,2216.4
	c-1.5,1.5-3.6,3.6-4.5,4.5c-0.3,0.2-0.4,0.6-0.4,0.9v1.5c0,0.3,0.1,0.7,0.4,0.9l4.5,4.5c0.6,0.6,1.7,0.2,1.7-0.7v-10.9
	C3.3,2216.2,2.3,2215.8,1.6,2216.4L1.6,2216.4z"/>
<g>
	<path id="Fill-1_34_" class="st1" d="M42.1,2227.2l-3.9-3.9l0-1.5c0.8-0.7,2.5-2.4,4-3.9V2227.2z M41.7,2216.4
		c-1.5,1.5-3.6,3.6-4.5,4.5c-0.3,0.2-0.4,0.6-0.4,0.9v1.5c0,0.3,0.1,0.7,0.4,0.9l4.5,4.5c0.6,0.6,1.7,0.2,1.7-0.7v-10.9
		C43.4,2216.2,42.3,2215.8,41.7,2216.4z M18.8,2227.7c-0.3-0.4-0.4-0.9-0.4-1.4v-7.7c0-1.4,1.2-2.6,2.6-2.6h9.7l1.3-1.3
		c-0.2,0-0.3,0-0.5,0H21c-2.2,0-4,1.7-4,3.9v7.7c0,0.9,0.3,1.7,0.8,2.3L18.8,2227.7z M34.1,2218.2c0,0.1,0,0.3,0,0.4v7.7
		c0,1.4-1.2,2.6-2.6,2.6h-8.4l-1.3,1.3h9.7c2.2,0,4-1.7,4-3.9v-7.7c0-0.5-0.1-1-0.3-1.5L34.1,2218.2z"/>
	<path id="Fill-7_2_" class="st30" d="M18.4,2231.5c-0.2,0-0.3-0.1-0.5-0.2c-0.3-0.3-0.3-0.7,0-0.9l17.1-16.7c0.3-0.3,0.7-0.3,0.9,0
		c0.3,0.3,0.3,0.7,0,0.9l-17.1,16.7C18.7,2231.4,18.5,2231.5,18.4,2231.5"/>
</g>
<g id="Page-1_1_" sketch:type="MSPage">
	<rect id="Rectangle-49" x="-175" y="2376.5" sketch:type="MSShapeGroup" class="st10" width="10" height="2">
	</rect>
</g>
<g id="Page-1_2_" sketch:type="MSPage">
	<rect id="Rectangle-49_1_" x="-135" y="2376.5" sketch:type="MSShapeGroup" class="st10" width="10" height="2">
	</rect>
</g>
<g id="Page-1_3_" sketch:type="MSPage">
	<rect id="Rectangle-49_2_" x="-131" y="2372.5" sketch:type="MSShapeGroup" class="st10" width="2" height="10">
	</rect>
</g>
<path id="Fill-1_19_" sketch:type="MSShapeGroup" class="st36" d="M-90,2310.5v10h1l0.9-6.6l7.6,6.6l0.5-0.5l-6.6-7.6l6.6-0.9v-1
	H-90z"/>
<path id="Fill-2_13_" sketch:type="MSShapeGroup" class="st36" d="M-69,2322.5l-0.9,6.6l-7.6-6.6l-0.5,0.5l6.6,7.6l-6.6,0.9v1h10
	v-10H-69z"/>
<path id="Fill-2-Copy_2_" sketch:type="MSShapeGroup" class="st8" d="M-1,2038.5l5,4v-10l-5,4V2038.5z M-14,2033.5c0-1.1,0.9-2,2-2
	h8c1.1,0,2,0.9,2,2v8c0,1.1-0.9,2-2,2h-8c-1.1,0-2-0.9-2-2V2033.5z"/>
</svg>
