<?xml version="1.0" encoding="utf-8"?>
<!-- Generator: Adobe Illustrator 19.0.0, SVG Export Plug-In . SVG Version: 6.00 Build 0)  -->
<svg version="1.1" id="Layer_1" xmlns:sketch="http://www.bohemiancoding.com/sketch/ns"
	 xmlns="http://www.w3.org/2000/svg" xmlns:xlink="http://www.w3.org/1999/xlink" x="0px" y="0px" width="237px" height="3271.5px"
	 viewBox="-187 -1223 237 3271.5" enable-background="new -187 -1223 237 3271.5" xml:space="preserve">
<filter  id="filter-1" filterUnits="objectBoundingBox" width="200%" x="-50%" height="200%" y="-50%">
	<feOffset  dx="0" dy="1" result="shadowOffsetOuter1" in="SourceAlpha"></feOffset>
	<feGaussianBlur  result="shadowBlurOuter1" stdDeviation="1" in="shadowOffsetOuter1"></feGaussianBlur>
	
		<feColorMatrix  type="matrix" values="0 0 0 0 0   0 0 0 0 0   0 0 0 0 0  0 0 0 0.105 0" result="shadowMatrixOuter1" in="shadowBlurOuter1">
		</feColorMatrix>
	<feMerge>
		<feMergeNode  in="shadowMatrixOuter1"></feMergeNode>
		<feMergeNode  in="SourceGraphic"></feMergeNode>
	</feMerge>
</filter>
<g id="Rectangle-16-Copy-14_1_" sketch:type="MSShapeGroup" filter="url(#filter-1)">
	<path fill="#FFFFFF" d="M-168,196.7c1.4-1.4,4.6-3.5,8-3.5h-1H-186l0,0c2,0,5.7,2.1,7.1,3.5l4,4.1c0.8,0.8,2,0.8,2.8,0L-168,196.7z
		"/>
</g>
<g id="Rectangle-16-Copy-14_2_" sketch:type="MSShapeGroup" opacity="0.6" filter="url(#filter-1)">
	<path fill="#FFFFFF" d="M-168,196.7c1.4-1.4,4.6-3.5,8-3.5h-1H-186l0,0c2,0,5.7,2.1,7.1,3.5l4,4.1c0.8,0.8,2,0.8,2.8,0L-168,196.7z
		"/>
</g>
<title>Untitled 2</title>
<desc>Created with Sketch.</desc>
<path id="Rectangle-144-Copy-3" sketch:type="MSShapeGroup" fill="#FFFFFF" d="M-174,233v-7h-2v7h-7v2h7v7h2v-7h7v-2H-174z"/>
<path id="Rectangle-144-Copy-2" sketch:type="MSShapeGroup" opacity="0.6" fill="#333333" enable-background="new    " d="M-174,260
	v-7h-2v7h-7v2h7v7h2v-7h7v-2H-174z"/>
<path id="Rectangle-144-Copy-4" sketch:type="MSShapeGroup" opacity="0.6" fill="#31B500" enable-background="new    " d="M-174,290
	v-7h-2v7h-7v2h7v7h2v-7h7v-2H-174z"/>
<g id="Imported-Layers-Copy" transform="translate(3.000000, 1546.000000)" sketch:type="MSLayerGroup" opacity="0.6">
	<g id="Imported-Layers" sketch:type="MSShapeGroup">
		<path id="Fill-1" fill="#333333" d="M-177-1221c4.4,0,8,3.6,8,8s-3.6,8-8,8s-8-3.6-8-8S-181.4-1221-177-1221 M-177-1223
			c-5.5,0-10,4.5-10,10s4.5,10,10,10c5.5,0,10-4.5,10-10S-171.5-1223-177-1223"/>
		<path id="Fill-2" fill="#999999" d="M-172.2-1211c-0.5,2.3-2.5,4-4.9,4c-2.4,0-4.4-1.7-4.9-4H-172.2 M-171-1212h-12.2l0.2,1.2
			c0.6,2.8,3,4.8,5.9,4.8c2.8,0,5.3-2,5.9-4.8L-171-1212"/>
		<path id="Fill-3" fill="#333333" d="M-172-1211c-0.5,2.3-2.5,4-5,4s-4.5-1.7-5-4H-172 M-183-1212l0,1.2c0.6,2.8,3.1,4.8,6,4.8
			c2.9,0,5.4-2,6-4.8l0-1.2H-183"/>
		<path id="Fill-4" fill="#333333" d="M-171-1214.5c0,0.8-0.7,1.5-1.5,1.5s-1.5-0.7-1.5-1.5s0.7-1.5,1.5-1.5S-171-1215.3-171-1214.5
			"/>
		<path id="Fill-5" fill="#333333" d="M-180-1214.5c0,0.8-0.7,1.5-1.5,1.5s-1.5-0.7-1.5-1.5s0.7-1.5,1.5-1.5S-180-1215.3-180-1214.5
			"/>
		<path id="Fill-6" fill="#333333" d="M-173-1208h-8l-1-2h10L-173-1208"/>
	</g>
</g>
<path id="Imported-Layers_1_" sketch:type="MSShapeGroup" fill="#2BA6DE" d="M-181.2,443.7c-0.3,0-0.6,0-1,0c-0.6,0-1-0.5-0.9-1.1
	c0-0.5,0.4-0.9,0.9-0.9c-0.1-0.3,0-0.7,0.2-0.9c0.1-0.1,0.1-0.2,0.2-0.4c-0.6-0.3-1.1-0.8-1.6-1.2c-0.4-0.4-0.4-1-0.1-1.4
	c0.4-0.4,1-0.4,1.4-0.1c0.4,0.4,0.9,0.7,1.5,1.1c0.5,0.4,0.8,0.8,0.8,1.4l0,0.1c0,0.5-0.1,1-0.4,1.4c0.7-0.1,1.2-0.2,1.8-0.3
	c0.5-0.2,1.1,0.1,1.2,0.7c0.2,0.5-0.1,1.1-0.7,1.2C-178.9,443.6-179.9,443.7-181.2,443.7L-181.2,443.7z M-172.8,442.6
	c-0.9,0-1.8-0.1-2.8-0.2c-0.5-0.1-0.9-0.6-0.9-1.1c0.1-0.5,0.6-1,1.1-0.9c1.4,0.2,2.6,0.2,3.7,0.1l0.2,1l0.1,1
	C-171.9,442.6-172.4,442.6-172.8,442.6L-172.8,442.6z M-168.5,441.9c-0.4,0-0.8-0.3-1-0.7c-0.2-0.5,0.1-1.1,0.6-1.3
	c1.2-0.4,2.3-1,3.1-1.7c0.4-0.4,1.1-0.3,1.4,0.1c0.4,0.4,0.3,1.1-0.1,1.4c-1.1,0.9-2.4,1.6-3.8,2.1
	C-168.3,441.9-168.4,441.9-168.5,441.9L-168.5,441.9z M-163.1,437.7c-0.2,0-0.3,0-0.5-0.1c-0.5-0.3-0.6-0.9-0.4-1.4
	c0.6-1,0.9-2.1,1-3.4c0-0.6,0.5-0.9,1.1-0.9c0.6,0,1,0.5,0.9,1.1c-0.1,1.5-0.5,2.9-1.2,4.2C-162.5,437.5-162.8,437.7-163.1,437.7
	L-163.1,437.7z M-184.6,437c-0.4,0-0.8-0.2-0.9-0.6c-0.3-0.8-0.5-1.6-0.5-2.5l0-0.2c0-0.6,0.1-1.2,0.2-1.8c0.1-0.5,0.6-0.9,1.2-0.8
	c0.5,0.1,0.9,0.6,0.8,1.2c-0.1,0.5-0.1,0.9-0.1,1.4l0,0.2c0,0.6,0.1,1.2,0.4,1.7c0.2,0.5,0,1.1-0.5,1.3
	C-184.3,437-184.4,437-184.6,437L-184.6,437z M-162.3,430.9c-0.5,0-0.8-0.3-0.9-0.7l0-0.1c-0.3-1.2-0.7-2.2-1.4-3.1
	c-0.3-0.4-0.3-1.1,0.2-1.4c0.4-0.3,1.1-0.3,1.4,0.2c0.9,1.1,1.5,2.4,1.8,3.9c0.1,0.5-0.2,1.1-0.8,1.2
	C-162.1,430.9-162.2,430.9-162.3,430.9L-162.3,430.9z M-183.8,430.3c-0.2,0-0.3,0-0.5-0.1c-0.5-0.3-0.6-0.9-0.4-1.4
	c0.7-1.2,1.7-2.3,2.9-3.3c0.4-0.4,1.1-0.3,1.4,0.1c0.4,0.4,0.3,1.1-0.1,1.4c-1,0.8-1.8,1.7-2.4,2.7
	C-183.1,430.1-183.4,430.3-183.8,430.3L-183.8,430.3z M-178.6,425.7c-0.4,0-0.7-0.2-0.9-0.5c-0.3-0.5-0.1-1.1,0.4-1.3
	c1.3-0.7,2.6-1.1,4-1.5c0.7-0.2,1.4-0.3,2.2-0.3c0.6-0.1,1,0.4,1.1,0.9c0,0.6-0.4,1-0.9,1.1c-0.6,0.1-1.3,0.1-1.9,0.3
	c-1.2,0.3-2.4,0.7-3.5,1.3C-178.3,425.6-178.5,425.7-178.6,425.7L-178.6,425.7z M-166.1,425.4c-0.2,0-0.3,0-0.5-0.1
	c-1-0.6-2.1-1-3.4-1.1c-0.5-0.1-0.9-0.6-0.8-1.1c0.1-0.6,0.6-0.9,1.1-0.9c1.5,0.2,2.9,0.7,4.1,1.4c0.5,0.3,0.6,0.9,0.3,1.4
	C-165.4,425.2-165.8,425.4-166.1,425.4L-166.1,425.4z"/>
<g id="ic_chat" transform="translate(4.000000, 1744.000000)" sketch:type="MSLayerGroup" opacity="0.5">
	<path id="Fill-80" sketch:type="MSShapeGroup" opacity="0.7" enable-background="new    " d="M-169.1,100.8
		c-0.5-0.1-0.8-0.5-0.8-0.9c0-0.1,0.1-0.2,0.1-0.2c1-0.6,1.8-1.5,1.8-2.6c0.1-2.3-2.1-4.1-4.3-4.7c0.1,1.7-0.4,3.3-1.4,4.6
		c-0.9,1.1-2.2,1.9-3.7,2.4c0.8,0.7,1.9,1.2,3.1,1.2c0.7,0.1,1.5,0,2.2-0.1c0.8,0.6,2,0.7,2.9,0.6
		C-168.8,101-168.9,100.8-169.1,100.8"/>
	<path id="Fill-81" sketch:type="MSShapeGroup" d="M-173.9,91.2c-0.8-3.6-4.4-4.7-7.8-4c-3.2,0.7-6.4,3.1-6.3,6.4
		c0,1.5,1,2.7,2.4,3.5c0.1,0.1,0.2,0.2,0.2,0.3c0,0.6-0.5,1.1-1.1,1.2c-0.3,0.1-0.4,0.2,0,0.3c1.3,0.1,2.8,0,3.9-0.8
		c1,0.1,2,0.2,2.9,0.1C-175.7,98-173,95.1-173.9,91.2"/>
</g>
<path id="Fill-57-Copy" sketch:type="MSShapeGroup" fill="#333333" d="M-181-1103c0,4.4,3.6,8,8,8s8-3.6,8-8s-3.6-8-8-8
	S-181-1107.4-181-1103L-181-1103z M-174-1108h2v4h4v2h-4v4h-2v-4h-4v-2h4V-1108L-174-1108z"/>
<path id="Fill-9-Copy-9" sketch:type="MSShapeGroup" opacity="0.7" fill="#D90007" enable-background="new    " d="M-181-995
	c0,4.4,3.6,8,8,8s8-3.6,8-8s-3.6-8-8-8S-181-999.4-181-995L-181-995z M-178-996h10v2h-10V-996z"/>
<path id="ic_cloud-copy" sketch:type="MSShapeGroup" fill="#333333" d="M-183-948.4c0,2.4,1.8,4.4,4.1,4.4h11.8c2.3,0,4.1-2,4.1-4.4
	c0-2.4-1.7-4.3-3.9-4.4v0c0-2.8-2.1-5.2-4.8-5.2c-1.7,0-3.2,1-4.1,2.4c-0.3-0.1-0.6-0.2-0.9-0.2c-1.3,0-2.4,1.1-2.4,2.5
	c0,0.2,0,0.3,0,0.4C-181.2-952.7-183-950.8-183-948.4"/>
<path id="Fill-1_1_" sketch:type="MSShapeGroup" fill="#333333" d="M-180-914h14v9h-14V-914z M-166-916h-14c-1.1,0-2,0.9-2,2v9
	c0,1.1,0.9,2,2,2h4v1l-4,1v1h14v-1l-4-1v-1h4c1.1,0,2-0.9,2-2v-9C-164-915.1-164.9-916-166-916L-166-916z M-165-905c0,0.5-0.4,1-1,1
	h-14c-0.6,0-1-0.5-1-1v-9c0-0.5,0.4-1,1-1h14c0.6,0,1,0.5,1,1V-905L-165-905z"/>
<g id="Fill-1-_x2B_-Fill-2" transform="translate(11.000000, 181.000000)" sketch:type="MSLayerGroup">
	<path id="Fill-1_2_" sketch:type="MSShapeGroup" fill="#333333" d="M-176.9-1205h-14.2c-0.5,0-0.9-0.4-0.9-0.9v-10.1h16v10.1
		C-176-1205.4-176.4-1205-176.9-1205z M-178.1-1208.9c-0.1-0.1-1.2-0.6-1.5-0.7c0,0,0-0.2-0.1-0.2c-0.1,0-0.2-0.1-0.2-0.1
		c0,0,0-0.1,0-0.1c0,0,0-0.1,0-0.1c0,0,0.1-0.2,0.1-0.3c0-0.1,0.1-0.3,0.1-0.3c0,0,0.1-0.1,0.1-0.1c0.1,0,0.2-0.5,0.2-0.5
		c0-0.2,0-0.1,0-0.2v-0.4c0-0.5-0.5-0.9-1.1-0.9h0c-0.5,0-1.1,0.3-1.1,0.9v0.4c0,0.1,0,0,0,0.2c0,0,0.1,0.5,0.2,0.5
		c0,0,0.1,0,0.1,0.1c0,0,0,0.2,0.1,0.3c0,0.1,0.1,0.2,0.1,0.3c0,0,0,0,0,0.1c0,0,0,0.1,0,0.1c0,0-0.2,0.1-0.2,0.1
		c-0.1,0-0.1,0.2-0.1,0.2c0,0-0.1,0-0.1,0c0.5,0.2,1.2,0.6,1.3,0.7c0,0,0.2,0.2,0.2,0.9h1.6c0.1,0,0.3-0.1,0.3-0.2v-0.1
		C-178-1208.3-178-1208.8-178.1-1208.9z M-186.6-1209.6c0,0,0-0.2-0.1-0.2c-0.1,0-0.2-0.1-0.2-0.1c0,0,0-0.1,0-0.1c0,0,0-0.1,0-0.1
		c0,0,0.1-0.2,0.1-0.3c0-0.1,0.1-0.3,0.1-0.3c0,0,0.1-0.1,0.1-0.1c0.1,0,0.2-0.5,0.2-0.5c0-0.2,0-0.1,0-0.2v-0.4
		c0-0.5-0.5-0.9-1.1-0.9h0c-0.5,0-1.1,0.3-1.1,0.9v0.4c0,0.1,0,0,0,0.2c0,0,0.1,0.5,0.2,0.5c0,0,0.1,0,0.1,0.1c0,0,0,0.2,0.1,0.3
		c0,0.1,0.1,0.2,0.1,0.3c0,0,0,0,0,0.1c0,0,0,0.1,0,0.1c0,0-0.2,0.1-0.2,0.1c-0.1,0-0.1,0.2-0.1,0.2c-0.2,0.1-1.3,0.6-1.5,0.7
		c-0.1,0.1-0.1,0.6-0.1,0.6v0.1c0,0.1,0.2,0.2,0.3,0.2h1.6c0-0.7,0.1-0.8,0.2-0.9C-187.8-1209-187.1-1209.3-186.6-1209.6
		C-186.6-1209.6-186.6-1209.6-186.6-1209.6z M-182.8-1209.7c0-0.1,0-0.3-0.1-0.3c-0.1,0-0.3-0.1-0.3-0.1c0,0,0-0.1,0-0.1
		c0-0.1,0-0.1,0-0.1c0-0.1,0.2-0.2,0.2-0.3c0-0.1,0.1-0.4,0.1-0.4c0-0.1,0.1-0.1,0.2-0.1c0.1-0.1,0.2-0.7,0.2-0.7
		c0-0.2-0.1-0.1-0.1-0.3v-0.6c0-0.7-0.6-1.1-1.3-1.1h0c-0.7,0-1.3,0.4-1.3,1.1v0.6c0,0.2-0.1,0.1-0.1,0.3c0,0,0.1,0.7,0.2,0.7
		c0.1,0,0.2,0.1,0.2,0.1c0,0,0,0.3,0.1,0.4c0,0.1,0.2,0.3,0.2,0.3c0,0,0,0.1,0,0.1c0,0.1,0,0.1,0,0.1c0,0-0.2,0.1-0.3,0.1
		c-0.1,0-0.1,0.2-0.1,0.3c-0.3,0.1-1.8,0.8-1.9,0.9c-0.1,0.1-0.1,0.9-0.1,0.9v0.1c0,0.2,0.2,0.9,0.3,0.9h5.8c0.2,0,0.3-0.7,0.3-0.9
		v-0.1c0,0,0-0.7-0.1-0.9C-181-1209-182.5-1209.7-182.8-1209.7z"/>
	<path id="Fill-2_1_" sketch:type="MSShapeGroup" fill="#111111" d="M-185.9-1219c0.3,0,0.5,0.1,0.7,0.3l0.9,0.9
		c0.6,0.7,1,0.8,1.3,0.8h6c0.6,0,1,0.4,1,1h-16v-2c0-0.6,0.4-1,1-1L-185.9-1219z"/>
</g>
<path id="Fill-53-Copy" sketch:type="MSShapeGroup" fill="#333333" d="M-176.3-1171.7c-1.7-1.7-3-3.8-4.1-6c-1.1-2-0.5-3.9,1.5-5.1
	c0.7-0.4,1.3-0.4,1.8,0.2c0.2,0.3,1.2,1.4,1.4,1.8c0.8,1,0.8,1.6-0.6,2.9c-0.6,0.6-0.4,1.3,0,1.7l4.3,4.3c0.4,0.4,1.2,0.6,1.7,0
	c1.4-1.4,2-1.4,2.9-0.6c0.3,0.2,1.4,1.2,1.8,1.4c0.6,0.5,0.7,1.1,0.2,1.8c-1.2,2-3,2.6-5.1,1.5
	C-172.5-1168.7-174.6-1169.9-176.3-1171.7L-176.3-1171.7z"/>
<path fill="#333333" d="M-173-1075c-4.4,0-8,3.6-8,8s3.6,8,8,8s8-3.6,8-8S-168.6-1075-173-1075z M-169-1066l-3-3v7h-2v-7l-3,3l-1-1
	l5-5l5,5L-169-1066z"/>
<path id="Fill-2-Copy" sketch:type="MSShapeGroup" fill="#333333" d="M-168-1138l5,4v-10l-5,4V-1138z M-181-1143c0-1.1,0.9-2,2-2h8
	c1.1,0,2,0.9,2,2v8c0,1.1-0.9,2-2,2h-8c-1.1,0-2-0.9-2-2V-1143z"/>
<path id="Fill-37" sketch:type="MSShapeGroup" fill="#FFFFFF" d="M-178,136l1.4-1.3l1.7,1.7l3.5-3.3l1.4,1.3l-4.9,4.7L-178,136"/>
<path id="ic_search-copy" sketch:type="MSShapeGroup" fill="#777777" d="M-164.2,79.9l-3-3c-0.2-0.2-0.5-0.2-0.8-0.1l-1.2-1.2
	c0.7-1,1.2-2.2,1.2-3.5c0-3.3-2.7-6-6-6c-3.3,0-6,2.7-6,6c0,3.3,2.7,6,6,6c1.3,0,2.5-0.4,3.5-1.2l1.2,1.2c-0.1,0.3-0.1,0.5,0.1,0.7
	l3,3c0.3,0.2,0.7,0.2,0.9,0l1-1C-163.9,80.5-163.9,80.1-164.2,79.9L-164.2,79.9z M-178,72c0-2.2,1.8-4,4-4s4,1.8,4,4s-1.8,4-4,4
	S-178,74.2-178,72L-178,72z"/>
<path id="Rectangle-144-Copy-3_1_" sketch:type="MSShapeGroup" fill="#E44C51" d="M-172.6-751l4.9-4.9l-1.4-1.4l-4.9,5l-4.9-5
	l-1.4,1.4l5,4.9l-5,4.9l1.4,1.4l4.9-5l4.9,5l1.4-1.4L-172.6-751z"/>
<g id="Group-Copy-2" transform="translate(7.000000, 348.000000)" sketch:type="MSLayerGroup">
	<path id="Rectangle-67" sketch:type="MSShapeGroup" fill="none" stroke="#777777" d="M-188-1212l9.6-9.6c0.8-0.8,2.1-0.8,2.8,0
		l0.2,0.2c0.8,0.8,0.8,2.1,0,2.8l-9.6,9.6l-5,2L-188-1212z"/>
	<path id="Path-280" sketch:type="MSShapeGroup" fill="none" stroke="#777777" d="M-180-1220l3.1,3"/>
	<path id="Path-280-Copy" sketch:type="MSShapeGroup" fill="none" stroke="#777777" d="M-187-1213l3.1,3"/>
	<rect id="Rectangle-68-Copy" x="-181" y="-1208" sketch:type="MSShapeGroup" fill="#777777" width="4" height="1">
	</rect>
	<rect id="Rectangle-68-Copy-2" x="-175" y="-1208" sketch:type="MSShapeGroup" fill="#777777" width="2" height="1">
	</rect>
	<rect id="Rectangle-68-Copy-3" x="-185" y="-1208" sketch:type="MSShapeGroup" fill="#777777" width="2" height="1">
	</rect>
</g>
<path id="Rectangle-138-Copy-4" sketch:type="MSShapeGroup" fill="#777777" d="M-173-825h2v-4h-4v3v3h2V-825z M-179-825h2v-4h-4v3v3
	h2V-825L-179-825z"/>
<path id="Rectangle-144-Copy-7" sketch:type="MSShapeGroup" fill="#777777" d="M-172.6-785l4.9-4.9l-1.4-1.4l-4.9,4.9l-4.9-4.9
	l-1.4,1.4l5,4.9l-5,5l1.4,1.4l4.9-5l4.9,5l1.4-1.4L-172.6-785z"/>
<path id="Fill-5-Copy" sketch:type="MSShapeGroup" fill="#777777" d="M-171.1-714.4c0-0.1-0.1-0.7-0.3-0.8c-0.2-0.1-0.8-0.4-0.8-0.4
	c0,0-0.1-0.2-0.1-0.3c0-0.1,0.1-0.3,0.1-0.3c0.1-0.2,0.4-0.5,0.4-0.8c0.1-0.3,0.2-1,0.2-1c0-0.2,0.2-0.2,0.4-0.3
	c0.3-0.1,0.5-1.7,0.5-1.7c0-0.5-0.2-0.3-0.2-0.7v-1.4c0-1.7-1.4-2.8-3.1-2.8h-0.1c-1.7,0-3.1,1.1-3.1,2.8v1.4c0,0.4-0.2,0.1-0.2,0.7
	c0,0,0.2,1.6,0.5,1.7c0.1,0.1,0.4,0.1,0.4,0.3c0,0,0.1,0.8,0.2,1c0.1,0.3,0.4,0.7,0.4,0.8c0,0,0.1,0.1,0.1,0.3
	c0,0.1-0.1,0.3-0.1,0.3c0,0-0.6,0.3-0.8,0.4c-0.2,0.1-0.3,0.6-0.3,0.8c-0.7,0.2-4.3,1.9-4.8,2.3c-0.3,0.3-0.3,2.1-0.3,2.1v0.2
	c0,0.4,0.3,0.8,0.8,0.8h14.5c0.4,0,0.8-0.3,0.8-0.8v-0.2c0,0,0-1.8-0.3-2.1C-166.7-712.5-170.4-714.2-171.1-714.4z"/>
<path id="Imported-Layers-Copy-2" sketch:type="MSShapeGroup" fill="#777777" d="M-172.7-688c-0.7,0-1.4,0.1-2.2,0.2
	c-0.3,0.1-0.4,0.3-0.4,0.6c0,0.2,0.3,0.4,0.5,0.4c0,0,0.1,0,0.1,0c0.4-0.1,0.8-0.1,1.1-0.2h0c0,0,0,0,0,0c0,0,0,0,0.1,0h0
	c0,0,0,0,0,0h0h0l0,0h0h0c0,0,0,0,0,0c0,0,0,0,0,0l0,0h0l0,0c0,0,0,0,0,0h0h0h0c0,0,0,0,0,0c0,0,0,0,0,0h0h0c0,0,0,0,0,0h0h0h0
	c0,0,0,0,0,0h0h0h0c0,0,0,0,0,0h0c0,0,0,0,0,0h0h0h0h0c0,0,0,0,0,0h0h0h0h0c0,0,0,0,0,0h0h0c0,0,0,0,0,0h0c0,0,0,0,0,0h0h0h0h0
	c0,0,0,0,0,0h0h0h0h0c0,0,0,0,0,0h0c0,0,0,0,0,0h0h0h0h0h0c0,0,0,0,0,0h0h0h0h0h0c0,0,0,0,0,0h0h0h0h0h0c0,0,0,0,0,0h0h0h0h0h0
	c0,0,0,0,0,0h0h0h0h0h0h0h0c0,0,0,0,0,0h0h0h0h0h0h0h0c0,0,0,0,0,0h0h0h0h0h0h0h0h0c0,0,0,0,0,0h0h0h0h0h0h0h0h0h0h0c0,0,0,0,0,0h0
	h0h0h0h0h0h0h0h0h0h0h0h0h0h0c0,0,0,0,0,0h0h0h0h0h0h0h0h0h0h0h0h0h0h0h0h0h0h0h0h0h0h0h0c0,0,0,0,0.1,0c0,0,0,0,0.1,0
	c0.2,0,0.4,0,0.6,0c0,0,0,0,0,0h0c0,0,0,0,0,0c0,0,0,0,0,0h0h0h0c0,0,0,0,0,0h0c0,0,0,0,0,0c0,0,0,0,0,0c0,0,0,0,0,0h0c0,0,0,0,0,0
	h0h0h0c0,0,0,0,0,0h0c0,0,0,0,0,0h0c0,0,0,0,0,0l0,0h0h0c0,0,0,0,0,0h0c0,0,0,0,0,0h0c0,0,0,0,0,0h0h0c0,0,0,0,0,0h0h0c0,0,0,0,0,0
	h0c0,0,0,0,0,0h0c0,0,0,0,0,0h0h0c0,0,0,0,0,0h0l0,0h0h0c0,0,0,0,0,0h0c0,0,0,0,0,0h0c0,0,0,0,0,0h0c0,0,0,0,0,0h0h0c0,0,0,0,0,0h0
	c0,0,0,0,0,0h0c0,0,0,0,0,0h0c0,0,0,0,0,0h0h0h0h0c0,0,0,0,0,0h0c0,0,0,0,0,0h0c0,0,0,0,0,0c0,0,0,0,0,0h0c0,0,0,0,0,0l0,0
	c0,0,0,0,0,0h0c0,0,0,0,0,0h0c0,0,0,0,0,0h0c0,0,0,0,0,0h0c0,0,0,0,0,0h0c0,0,0,0,0,0h0c0,0,0,0,0,0c0,0,0,0,0,0h0
	c0.3,0,0.6,0.1,0.9,0.2c0,0,0.1,0,0.1,0c0.2,0,0.4-0.1,0.5-0.4c0.1-0.3-0.1-0.5-0.4-0.6c-0.7-0.2-1.4-0.3-2.2-0.3h0
	C-172.6-688-172.7-688-172.7-688C-172.7-688-172.7-688-172.7-688L-172.7-688z M-176.8-687.2c-0.1,0-0.1,0-0.2,0
	c-0.7,0.3-1.3,0.6-1.9,1c-0.2,0.1-0.3,0.5-0.2,0.7c0.1,0.1,0.3,0.2,0.4,0.2c0.1,0,0.2,0,0.3-0.1c0.3-0.2,0.7-0.4,1.1-0.6h0
	c0,0,0,0,0,0c0,0,0,0,0,0s0,0,0,0c0,0,0,0,0,0c0,0,0,0,0,0h0c0,0,0,0,0,0c0,0,0,0,0,0c0,0,0,0,0,0c0,0,0,0,0,0c0,0,0,0,0,0h0
	c0,0,0,0,0,0c0,0,0,0,0,0c0,0,0,0,0,0c0,0,0,0,0,0c0,0,0,0,0,0c0,0,0,0,0,0c0,0,0,0,0,0c0,0,0,0,0,0c0,0,0,0,0,0c0,0,0,0,0,0
	c0,0,0,0,0,0c0,0,0,0,0,0c0,0,0,0,0,0c0,0,0,0,0,0c0,0,0,0,0,0c0,0,0,0,0,0c0,0,0,0,0,0c0,0,0,0,0,0h0c0,0,0,0,0,0c0,0,0,0,0,0h0
	c0,0,0,0,0,0c0,0,0,0,0,0h0c0,0,0,0,0,0c0.2-0.1,0.4-0.2,0.5-0.2c0.3-0.1,0.4-0.4,0.3-0.6C-176.4-687.1-176.6-687.2-176.8-687.2
	L-176.8-687.2z M-180.3-684.9c-0.1,0-0.3,0-0.4,0.1c-0.6,0.6-1,1.2-1.4,1.8c-0.1,0.2-0.1,0.5,0.2,0.7c0.1,0,0.2,0.1,0.2,0.1
	c0.2,0,0.3-0.1,0.4-0.3c0-0.1,0.1-0.1,0.1-0.2c0,0,0,0,0,0c0,0,0,0,0,0l0,0c0,0,0,0,0,0c0,0,0,0,0,0c0,0,0,0,0,0c0,0,0,0,0,0
	c0,0,0,0,0,0l0,0c0,0,0,0,0,0c0,0,0,0,0,0c0,0,0,0,0,0c0,0,0,0,0,0c0,0,0,0,0,0c0,0,0,0,0,0c0,0,0,0,0,0c0,0,0,0,0,0c0,0,0,0,0,0
	c0,0,0,0,0,0c0,0,0,0,0,0c0,0,0,0,0,0c0,0,0,0,0,0c0,0,0,0,0,0l0,0c0,0,0,0,0,0l0,0c0,0,0,0,0,0l0,0c0,0,0,0,0,0c0,0,0,0,0,0
	c0,0,0,0,0,0h0c0,0,0,0,0,0v0c0,0,0,0,0,0l0,0c0,0,0,0,0,0h0c0,0,0,0,0,0c0,0,0,0,0,0c0.3-0.4,0.6-0.9,1-1.2c0.2-0.2,0.2-0.5,0-0.7
	C-180.1-684.9-180.2-684.9-180.3-684.9L-180.3-684.9z M-182.4-681.2c-0.2,0-0.4,0.2-0.5,0.4c-0.1,0.5-0.1,1-0.1,1.5
	c0,0.3,0,0.6,0.1,0.9c0,0.2,0.3,0.4,0.5,0.4c0,0,0.1,0,0.1,0c0.3-0.1,0.4-0.3,0.4-0.6c0,0,0-0.1,0-0.1c0,0,0,0,0,0c0,0,0,0,0,0v0
	c0,0,0,0,0,0v0v0c0,0,0,0,0,0v0v0c0,0,0,0,0,0c0,0,0,0,0,0v0c0,0,0,0,0,0v0c0,0,0,0,0,0v0v0c0,0,0,0,0,0v0h0v0c0,0,0,0,0,0
	c0-0.1,0-0.3,0-0.4v0v0l0,0v0c0,0,0,0,0,0l0,0v0c0,0,0,0,0,0c0,0,0,0,0,0v0v0v0c0,0,0,0,0,0c0,0,0,0,0,0v0v0v0v0v0v0v0v0v0v0
	c0,0,0,0,0,0v0v0l0,0v0l0,0v0v0v0c0-0.4,0-0.8,0.1-1.2C-181.8-680.9-182-681.2-182.4-681.2C-182.3-681.2-182.4-681.2-182.4-681.2
	L-182.4-681.2z M-181.5-677c-0.1,0-0.2,0-0.3,0.1c-0.2,0.2-0.3,0.5-0.1,0.7c0.4,0.5,1,1,1.6,1.5c0,0,0,0,0,0
	c-0.1,0.1-0.2,0.1-0.3,0.1c-0.8,0.2-1.1,0.8-1,1.2c0,0.2,0.1,1,1.2,1.1c0.2,0,0.4,0,0.6,0h0c0.3,0,0.5-0.2,0.5-0.5
	c0-0.3-0.2-0.5-0.5-0.5c-0.2,0-0.4,0-0.5,0h0c0,0,0,0,0,0h0c0,0,0,0,0,0h0h0h0c0,0,0,0,0,0h0c0,0,0,0,0,0h0c-0.1,0-0.1,0-0.2,0h0
	l0,0c0,0,0,0,0,0h0c0,0,0,0,0,0s0,0,0,0c0,0,0,0,0,0l0,0h0c0,0,0,0,0,0h0c-0.1,0-0.1-0.1-0.1-0.1h0v0v0h0c0-0.1,0.1-0.1,0.3-0.2h0h0
	v0h0c0,0,0,0,0,0h0h0c0,0,0,0,0,0h0c0,0,0,0,0,0h0h0c0,0,0,0,0,0h0c0,0,0,0,0,0h0h0c0.2-0.1,0.4-0.2,0.6-0.3
	c0.2-0.2,0.3-0.5,0.1-0.7c0,0,0,0,0,0c0.1,0,0.1-0.1,0.2-0.2c0.1-0.2,0.1-0.5-0.2-0.7c-0.4-0.3-0.8-0.5-1.1-0.9c0,0,0,0,0,0
	c0,0,0,0,0,0c0,0,0,0,0,0c0,0,0,0,0,0v0c0,0,0,0,0,0h0c0,0,0,0,0,0c0,0,0,0,0,0c0,0,0,0,0,0h0c0,0,0,0,0,0c0,0,0,0,0,0v0
	c0,0,0,0,0,0l0,0c0,0,0,0,0,0c0,0,0,0,0,0c0,0,0,0,0,0h0c0,0,0,0,0,0c0,0,0,0,0,0c0,0,0,0,0,0h0c0,0,0,0,0,0c0,0,0,0,0,0
	c0,0,0,0,0,0h0c0,0,0,0,0,0l0,0c0,0,0,0,0,0c0,0,0,0,0,0c0,0,0,0,0,0c0,0,0,0,0,0c0,0,0,0,0,0l0,0c0,0,0,0,0,0c0,0,0,0,0,0h0
	c0,0,0,0,0,0c0,0,0,0,0,0c0,0,0,0,0,0c0,0,0,0,0,0c0,0,0,0,0,0l0,0l0,0c0,0,0,0,0,0c0,0,0,0,0,0c0,0,0,0,0,0c0,0,0,0,0,0
	c0,0,0,0,0,0c0,0,0,0,0,0c0,0,0,0,0,0c0,0,0,0,0,0c0,0,0,0,0,0c0,0,0,0,0,0l0,0c0,0,0,0,0,0c0,0,0,0,0,0c0,0,0,0,0,0c0,0,0,0,0,0
	c0,0,0,0,0,0l0,0c0,0,0,0,0,0v0c0,0,0,0,0,0l0,0c0,0,0,0,0,0c0,0,0,0,0,0h0c0,0,0,0,0,0v0c0,0,0,0,0,0h0c0,0,0,0,0,0c0,0,0,0,0,0
	c0,0,0,0,0,0l0,0c0,0,0,0,0,0c-0.1-0.1-0.1-0.1-0.2-0.2C-181.2-677-181.3-677-181.5-677L-181.5-677z M-175.9-674.2
	C-175.9-674.2-175.9-674.2-175.9-674.2c-0.5,0.4-1,0.6-1.6,0.8c0,0,0,0,0,0c0,0,0,0,0,0c0,0,0,0,0,0v0h0v0h0h0c0,0,0,0,0,0h0
	c0,0,0,0,0,0c0,0,0,0,0,0h0c0,0,0,0,0,0h0c0,0,0,0,0,0h0c0,0,0,0,0,0h0c0,0,0,0,0,0h0h0c0,0,0,0,0,0h0c0,0,0,0,0,0h0c0,0,0,0,0,0
	c0,0,0,0,0,0c0,0,0,0,0,0v0c0,0-0.1,0-0.1,0c-0.3,0.1-0.4,0.3-0.4,0.6c0,0.2,0.3,0.4,0.5,0.4c0,0,0.1,0,0.1,0c0.9-0.2,1.6-0.5,2.2-1
	c0.2-0.2,0.2-0.5,0.1-0.7C-175.5-674.2-175.7-674.2-175.9-674.2L-175.9-674.2z M-171.9-674.2C-171.9-674.2-171.9-674.2-171.9-674.2
	c-0.1,0-0.2,0-0.3,0l0,0h0h0c0,0,0,0,0,0h0c0,0,0,0,0,0h0h0c0,0,0,0,0,0h0h0c0,0,0,0,0,0h0h0c0,0,0,0,0,0h0c0,0,0,0,0,0l0,0h0h0
	c0,0,0,0,0,0c0,0,0,0,0,0c0,0,0,0,0,0h0h0c0,0,0,0,0,0c-0.1,0-0.2,0-0.3,0c0,0,0,0,0,0h0h0h0c0,0,0,0,0,0l0,0h0c-0.3,0-0.6,0-0.9,0
	h0h0h0h0h0h0h0h0h0h0h0h0h0h0h0h0h0h0h0h0h0h0h0h0h0h0h0h0h0h0h0c0,0,0,0,0,0h0h0h0h0h0h0c0,0,0,0,0,0h0h0h0h0h0c0,0,0,0,0,0h0h0h0
	h0h0h0h0c0,0,0,0,0,0h0h0h0h0h0h0h0c0,0,0,0-0.1,0h0c-0.3,0-0.5,0.2-0.5,0.5c0,0.3,0.2,0.5,0.5,0.5c0.2,0,0.3,0,0.5,0
	c0.3,0,0.7,0,1,0c0.2,0,0.5,0,0.8-0.1c0.3,0,0.5-0.3,0.4-0.6C-171.4-674-171.6-674.2-171.9-674.2L-171.9-674.2z M-168-675.8
	c-0.1,0-0.2,0-0.3,0.1c-0.1,0.1-0.2,0.2-0.3,0.3c0,0,0,0,0,0c0,0,0,0,0,0c0,0,0,0,0,0c0,0,0,0,0,0c0,0,0,0,0,0c0,0,0,0,0,0
	c0,0,0,0,0,0s0,0,0,0l0,0c0,0,0,0,0,0c0,0,0,0,0,0c0,0,0,0,0,0c0,0,0,0,0,0c0,0,0,0,0,0c0,0,0,0,0,0c0,0,0,0,0,0c0,0,0,0,0,0
	c0,0,0,0,0,0c0,0,0,0,0,0c0,0,0,0,0,0c0,0,0,0,0,0c0,0,0,0,0,0c0,0,0,0,0,0c0,0,0,0,0,0c0,0,0,0,0,0c0,0,0,0,0,0c0,0,0,0,0,0
	c0,0,0,0,0,0c0,0,0,0,0,0c0,0,0,0,0,0c0,0,0,0,0,0c0,0,0,0,0,0c0,0,0,0,0,0v0c0,0,0,0,0,0c0,0,0,0,0,0c0,0,0,0,0,0c0,0,0,0,0,0h0
	c-0.4,0.2-0.8,0.5-1.2,0.6c-0.3,0.1-0.4,0.4-0.3,0.6c0.1,0.2,0.3,0.3,0.5,0.3c0.1,0,0.1,0,0.2,0c0.7-0.3,1.4-0.7,2-1.1
	c0.2-0.2,0.3-0.5,0.1-0.7C-167.7-675.7-167.8-675.8-168-675.8L-168-675.8z M-165.7-679.4c-0.2,0-0.4,0.2-0.5,0.4v0c0,0,0,0,0,0v0
	c0,0,0,0,0,0l0,0c0,0,0,0,0,0l0,0c0,0,0,0,0,0v0c0,0,0,0,0,0l0,0c0,0,0,0,0,0h0c0,0,0,0,0,0v0c0,0,0,0,0,0l0,0c0,0,0,0,0,0
	c0,0,0,0,0,0v0c0,0,0,0,0,0v0c0,0,0,0,0,0v0c0,0,0,0,0,0c0,0,0,0,0,0c0,0,0,0,0,0v0c0,0,0,0,0,0c0,0,0,0,0,0c0,0,0,0,0,0l0,0
	c0,0,0,0,0,0c0,0,0,0,0,0s0,0,0,0l0,0c0,0,0,0,0,0c0,0,0,0,0,0c0,0,0,0,0,0c0,0,0,0,0,0c0,0,0,0,0,0c0,0,0,0,0,0s0,0,0,0
	c0,0,0,0,0,0c0,0,0,0,0,0c0,0,0,0,0,0c0,0,0,0,0,0s0,0,0,0c0,0,0,0,0,0c0,0,0,0,0,0c0,0,0,0,0,0c0,0,0,0,0,0c0,0,0,0,0,0
	c0,0,0,0,0,0v0c0,0,0,0,0,0c0,0,0,0,0,0s0,0,0,0l0,0c0,0,0,0,0,0c0,0,0,0,0,0c0,0,0,0,0,0c0,0,0,0,0,0c0,0,0,0,0,0c0,0,0,0,0,0
	c0,0,0,0,0,0c0,0,0,0,0,0c0,0,0,0,0,0c0,0,0,0,0,0c0,0,0,0,0,0c0,0,0,0,0,0c0,0,0,0,0,0c0,0,0,0,0,0s0,0,0,0l0,0c0,0,0,0,0,0
	c0,0,0,0,0,0c0,0,0,0,0,0c0,0,0,0,0,0c0,0,0,0,0,0c0,0,0,0,0,0c0,0,0,0,0,0c0,0,0,0,0,0c0,0,0,0,0,0c0,0,0,0,0,0c0,0,0,0,0,0
	c0,0,0,0,0,0c0,0,0,0,0,0v0c0,0,0,0,0,0c0,0,0,0,0,0c0,0,0,0,0,0s0,0,0,0c0,0,0,0,0,0c0,0,0,0,0,0c0,0,0,0,0,0l0,0c0,0,0,0,0,0
	c0,0,0,0,0,0c0,0,0,0,0,0l0,0c0,0,0,0,0,0c0,0,0,0,0,0c0,0,0,0,0,0c0,0,0,0,0,0c0,0,0,0,0,0s0,0,0,0c0,0,0,0,0,0l0,0c0,0,0,0,0,0
	l0,0c0,0,0,0,0,0v0c0,0,0,0,0,0c0,0,0,0,0,0c0,0,0,0,0,0v0c0,0,0,0,0,0c0,0,0,0,0,0c0,0,0,0,0,0v0c0,0,0,0,0,0l0,0c0,0,0,0,0,0v0
	c0,0,0,0,0,0l0,0c0,0,0,0,0,0l0,0c0,0,0,0,0,0c0,0,0,0,0,0c0,0,0,0,0,0v0c0,0,0,0,0,0c0,0,0,0,0,0c0,0,0,0,0,0l0,0c0,0,0,0,0,0
	s0,0,0,0c0,0,0,0,0,0l0,0c0,0,0,0,0,0v0c0,0,0,0,0,0l0,0c0,0,0,0,0,0v0c0,0,0,0,0,0l0,0c0,0,0,0,0,0l0,0c0,0,0,0,0,0v0c0,0,0,0,0,0
	l0,0c0,0,0,0,0,0c0,0,0,0,0,0v0c0,0,0,0,0,0h0c0,0,0,0,0,0c0,0,0,0,0,0l0,0c0,0,0,0,0,0c0,0,0,0,0,0s0,0,0,0l0,0c0,0,0,0,0,0l0,0
	c0,0,0,0,0,0s0,0,0,0c0,0,0,0,0,0v0c0,0,0,0,0,0v0c0,0,0,0,0,0l0,0c0,0,0,0,0,0c0,0,0,0,0,0c0,0,0,0,0,0l0,0c0,0,0,0,0,0
	c0,0,0,0,0,0c0,0,0,0,0,0v0c0,0,0,0,0,0h0c0,0,0,0,0,0c0,0,0,0,0,0c0,0,0,0,0,0c0,0,0,0,0,0c0,0,0,0,0,0c0,0,0,0,0,0c0,0,0,0,0,0
	c0,0,0,0,0,0c0,0,0,0,0,0c0,0,0,0,0,0c0,0,0,0,0,0c0,0,0,0,0,0c0,0,0,0,0,0c-0.1,0.3-0.3,0.6-0.4,0.8c-0.1,0.2-0.1,0.5,0.1,0.7
	c0.1,0.1,0.2,0.1,0.3,0.1c0.2,0,0.3-0.1,0.4-0.2c0.4-0.7,0.7-1.4,0.9-2.1c0.1-0.3-0.1-0.5-0.4-0.6
	C-165.6-679.4-165.7-679.4-165.7-679.4L-165.7-679.4z M-165.9-683.6c-0.1,0-0.1,0-0.2,0c-0.3,0.1-0.4,0.4-0.3,0.6c0,0,0,0,0,0h0
	c0,0,0,0,0,0c0,0,0,0,0,0c0,0,0,0,0,0v0c0,0,0,0,0,0c0,0,0,0,0,0v0c0,0,0,0,0,0s0,0,0,0s0,0,0,0c0,0,0,0,0,0v0c0,0,0,0,0,0s0,0,0,0
	c0,0,0,0,0,0v0c0,0,0,0,0,0l0,0c0,0,0,0,0,0l0,0c0.1,0.2,0.1,0.4,0.2,0.6l0,0c0,0,0,0,0,0v0c0,0,0,0,0,0c0,0,0,0,0,0v0c0,0,0,0,0,0
	v0c0,0,0,0,0,0s0,0,0,0v0c0,0,0,0,0,0v0c0,0,0,0,0,0v0c0,0,0,0,0,0h0c0,0,0,0,0,0v0c0,0.2,0.1,0.3,0.1,0.5l0,0c0,0,0,0,0,0
	c0,0,0,0,0,0c0,0,0,0,0,0c0,0,0,0,0,0c0,0,0,0,0,0l0,0c0,0,0,0,0,0c0,0,0,0,0,0v0c0,0,0,0,0,0v0c0,0,0,0,0,0l0,0c0,0,0,0,0,0v0
	c0,0,0,0,0,0v0c0,0,0,0,0,0v0c0,0,0,0,0,0v0v0c0,0,0,0,0,0v0l0,0v0c0,0,0,0,0,0v0l0,0v0v0l0,0c0,0,0,0,0,0l0,0v0l0,0v0c0,0,0,0,0,0
	v0c0,0,0,0,0,0c0,0.2,0,0.4,0.1,0.5c0,0.3,0.2,0.5,0.5,0.5c0,0,0,0,0,0c0.3,0,0.5-0.3,0.5-0.5c0-0.5-0.1-0.9-0.2-1.4
	c-0.1-0.3-0.1-0.6-0.2-0.8C-165.5-683.5-165.7-683.6-165.9-683.6L-165.9-683.6z M-168.6-686.9c-0.2,0-0.3,0.1-0.4,0.2
	c-0.1,0.2-0.1,0.5,0.2,0.7c0,0,0,0,0,0c0,0,0,0,0,0c0,0,0,0,0,0c0,0,0,0,0,0c0,0,0,0,0,0c0,0,0,0,0,0h0c0,0,0,0,0,0c0,0,0,0,0,0
	c0,0,0,0,0,0c0,0,0,0,0,0c0,0,0,0,0,0c0,0,0,0,0,0c0,0,0,0,0,0c0,0,0,0,0,0c0,0,0,0,0,0c0,0,0,0,0,0c0,0,0,0,0,0c0,0,0,0,0,0
	c0,0,0,0,0,0c0,0,0,0,0,0c0,0,0,0,0,0c0,0,0,0,0,0c0,0,0,0,0,0c0,0,0,0,0,0c0,0,0,0,0,0c0,0,0,0,0,0c0,0,0,0,0,0c0,0,0,0,0,0
	c0,0,0,0,0,0c0,0,0,0,0,0c0,0,0,0,0,0c0,0,0,0,0,0s0,0,0,0c0,0,0,0,0,0c0,0,0,0,0,0s0,0,0,0c0,0,0,0,0,0c0,0,0,0,0,0c0,0,0,0,0,0
	c0,0,0,0,0,0v0c0,0,0,0,0,0h0c0,0,0,0,0,0h0c0,0,0,0,0,0h0c0,0,0,0,0,0c0,0,0,0,0,0c0,0,0,0,0,0h0c0,0,0,0,0,0c0,0,0,0,0,0
	c0,0,0,0,0,0v0c0,0,0,0,0,0h0c0,0,0,0,0,0c0,0,0,0,0,0c0,0,0,0,0,0c0,0,0,0,0,0c0,0,0,0,0,0c0,0,0,0,0,0l0,0c0,0,0,0,0,0
	c0,0,0,0,0,0l0,0c0,0,0,0,0,0c0,0,0,0,0,0c0,0,0,0,0,0c0,0,0,0,0,0h0c0,0,0,0,0,0c0,0,0,0,0,0c0,0,0,0,0,0h0c0,0,0,0,0,0
	c0,0,0,0,0,0h0c0,0,0,0,0,0h0c0,0,0,0,0,0c0,0,0,0,0,0c0,0,0,0,0,0c0,0,0,0,0,0l0,0c0,0,0,0,0,0c0,0,0,0,0,0c0,0,0,0,0,0
	c0,0,0,0,0,0h0c0,0,0,0,0,0v0c0,0,0,0,0,0s0,0,0,0c0,0,0,0,0,0c0,0,0,0,0,0c0,0,0,0,0,0h0c0,0,0,0,0,0c0,0,0,0,0,0c0,0,0,0,0,0
	s0,0,0,0l0,0c0,0,0,0,0,0c0,0,0,0,0,0l0,0c0,0,0,0,0,0h0c0,0,0,0,0,0v0c0,0,0,0,0,0l0,0c0,0,0,0,0,0c0,0,0,0,0,0h0c0,0,0,0,0,0
	c0,0,0,0,0,0c0,0,0,0,0,0c0,0,0,0,0,0l0,0c0,0,0,0,0,0c0,0,0,0,0,0c0,0,0,0,0,0c0,0,0,0,0,0c0,0,0,0,0,0h0c0,0,0,0,0,0h0
	c0,0,0,0,0,0l0,0c0,0,0,0,0,0l0,0c0,0,0,0,0,0l0,0c0,0,0,0,0,0h0c0,0,0,0,0,0l0,0c0,0,0,0,0,0c0,0,0,0,0,0c0,0,0,0,0,0l0,0
	c0,0,0,0,0,0v0c0,0,0,0,0,0v0c0,0,0,0,0,0h0c0,0,0,0,0,0h0c0,0,0,0,0,0c0,0,0,0,0,0c0,0,0,0,0,0l0,0c0,0,0,0,0,0c0,0,0,0,0,0
	c0,0,0,0,0,0h0c0,0,0,0,0,0c0,0,0,0,0,0c0,0,0,0,0,0c0,0,0,0,0,0c0,0,0,0,0,0c0,0,0,0,0,0c0,0,0,0,0,0l0,0c0,0,0,0,0,0c0,0,0,0,0,0
	c0,0,0,0,0,0c0,0,0,0,0,0c0,0,0,0,0,0c0,0,0,0,0,0c0,0,0,0,0,0c0,0,0,0,0,0c0,0,0,0,0,0c0,0,0,0,0,0c0,0,0,0,0,0c0,0,0,0,0,0
	c0,0,0,0,0,0c0,0,0,0,0,0c0,0,0,0,0,0c0,0,0,0,0,0c0,0,0,0,0,0c0,0,0,0,0,0c0,0,0,0,0,0c0,0,0,0,0,0l0,0c0,0,0,0,0,0c0,0,0,0,0,0
	c0,0,0,0,0,0c0,0,0,0,0,0c0,0,0,0,0,0c0,0,0,0,0,0c0,0,0,0,0,0l0,0c0,0,0,0,0,0c0,0,0,0,0,0c0,0,0,0,0,0c0,0,0,0,0,0c0,0,0,0,0,0
	c0,0,0,0,0,0c0,0,0,0,0,0c0,0,0,0,0,0c0,0,0,0,0,0c0,0,0,0,0,0c0,0,0,0,0,0c0,0,0,0,0,0l0,0c0,0,0,0,0,0c0,0,0,0,0,0c0,0,0,0,0,0
	c0,0,0,0,0,0c0,0,0,0,0,0l0,0c0,0,0,0,0,0h0c0,0,0,0,0,0c0,0,0,0,0,0c0,0,0,0,0,0v0c0,0,0,0,0,0c0,0,0,0,0,0
	c0.2,0.2,0.4,0.4,0.6,0.7c0.1,0.1,0.2,0.2,0.4,0.2c0.1,0,0.2,0,0.3-0.1c0.2-0.2,0.3-0.5,0.1-0.7c-0.5-0.6-1.1-1.1-1.8-1.5
	C-168.4-686.9-168.5-686.9-168.6-686.9L-168.6-686.9z"/>
<path id="ic_cloud-copy-2" sketch:type="MSShapeGroup" fill="#FFFFFF" d="M-183-438.4c0,2.4,1.8,4.4,4.1,4.4h11.8
	c2.3,0,4.1-2,4.1-4.4c0-2.4-1.7-4.3-3.9-4.4v0c0-2.8-2.1-5.2-4.8-5.2c-1.7,0-3.2,1-4.1,2.4c-0.3-0.1-0.6-0.2-0.9-0.2
	c-1.3,0-2.4,1.1-2.4,2.5c0,0.2,0,0.3,0,0.4C-181.2-442.7-183-440.8-183-438.4"/>
<path id="Fill-1-Copy" sketch:type="MSShapeGroup" fill="#FFFFFF" d="M-180-404h14v9h-14V-404z M-166-406h-14c-1.1,0-2,0.9-2,2v9
	c0,1.1,0.9,2,2,2h4v1l-4,1v1h14v-1l-4-1v-1h4c1.1,0,2-0.9,2-2v-9C-164-405.1-164.9-406-166-406L-166-406z M-165-395c0,0.5-0.4,1-1,1
	h-14c-0.6,0-1-0.5-1-1v-9c0-0.5,0.4-1,1-1h14c0.6,0,1,0.5,1,1V-395L-165-395z"/>
<g id="Group-Copy-3" transform="translate(7.000000, 858.000000)" sketch:type="MSLayerGroup">
	<g sketch:type="MSShapeGroup">
		<path id="Rectangle-67_1_" fill="none" stroke="#FFFFFF" d="M-188-1212l9.6-9.6c0.8-0.8,2.1-0.8,2.8,0l0.2,0.2
			c0.8,0.8,0.8,2.1,0,2.8l-9.6,9.6l-5,2L-188-1212z"/>
		<path id="Path-280_1_" fill="none" stroke="#FFFFFF" d="M-180-1220l3.1,3"/>
		<path id="Path-280-Copy_1_" fill="none" stroke="#FFFFFF" d="M-187-1213l3.1,3"/>
		<rect id="Rectangle-68-Copy_1_" x="-181" y="-1208" fill="#FFFFFF" width="4" height="1"/>
		<rect id="Rectangle-68-Copy-2_1_" x="-175" y="-1208" fill="#FFFFFF" width="2" height="1"/>
		<rect id="Rectangle-68-Copy-3_1_" x="-185" y="-1208" fill="#FFFFFF" width="2" height="1"/>
	</g>
</g>
<path id="Rectangle-138-Copy-5" sketch:type="MSShapeGroup" fill="#FFFFFF" d="M-173-315h2v-4h-4v3v3h2V-315z M-179-315h2v-4h-4v3v3
	h2V-315L-179-315z"/>
<path id="Rectangle-144-Copy-8" sketch:type="MSShapeGroup" fill="#FFFFFF" d="M-172.6-287l4.9-4.9l-1.4-1.4l-4.9,4.9l-4.9-4.9
	l-1.4,1.4l5,4.9l-5,5l1.4,1.4l4.9-5l4.9,5l1.4-1.4L-172.6-287z"/>
<path id="Fill-5-Copy-2" sketch:type="MSShapeGroup" fill="#FFFFFF" d="M-171.1-224.4c0-0.1-0.1-0.7-0.3-0.8
	c-0.2-0.1-0.8-0.4-0.8-0.4c0,0-0.1-0.2-0.1-0.3c0-0.1,0.1-0.3,0.1-0.3c0.1-0.2,0.4-0.5,0.4-0.8s0.2-1,0.2-1c0-0.2,0.2-0.2,0.4-0.3
	c0.3-0.1,0.5-1.7,0.5-1.7c0-0.5-0.2-0.3-0.2-0.7v-1.4c0-1.7-1.4-2.8-3.1-2.8h-0.1c-1.7,0-3.1,1.1-3.1,2.8v1.4c0,0.4-0.2,0.1-0.2,0.7
	c0,0,0.2,1.6,0.5,1.7c0.1,0.1,0.4,0.2,0.4,0.3c0,0,0.1,0.8,0.2,1s0.4,0.7,0.4,0.8c0,0,0.1,0.2,0.1,0.3c0,0.1-0.1,0.3-0.1,0.3
	c0,0-0.6,0.3-0.8,0.4c-0.2,0.1-0.3,0.6-0.3,0.8c-0.7,0.2-4.3,1.9-4.8,2.3c-0.3,0.3-0.3,2.1-0.3,2.1v0.2c0,0.4,0.3,0.8,0.8,0.8h14.5
	c0.4,0,0.8-0.3,0.8-0.8v-0.2c0,0,0-1.8-0.3-2.1C-166.7-222.5-170.4-224.2-171.1-224.4z"/>
<path id="Imported-Layers-Copy-3" sketch:type="MSShapeGroup" fill="#FFFFFF" d="M-172.7-198c-0.7,0-1.4,0.1-2.2,0.2
	c-0.3,0.1-0.4,0.3-0.4,0.6c0,0.2,0.3,0.4,0.5,0.4c0,0,0.1,0,0.1,0c0.4-0.1,0.8-0.1,1.1-0.2h0c0,0,0,0,0,0c0,0,0,0,0.1,0h0
	c0,0,0,0,0,0h0h0l0,0h0h0c0,0,0,0,0,0c0,0,0,0,0,0v0h0l0,0c0,0,0,0,0,0h0h0h0c0,0,0,0,0,0c0,0,0,0,0,0h0h0c0,0,0,0,0,0h0h0h0
	c0,0,0,0,0,0h0h0h0c0,0,0,0,0,0h0c0,0,0,0,0,0h0h0h0h0c0,0,0,0,0,0h0h0h0h0c0,0,0,0,0,0h0h0c0,0,0,0,0,0h0c0,0,0,0,0,0h0h0h0h0
	c0,0,0,0,0,0h0h0h0h0c0,0,0,0,0,0h0c0,0,0,0,0,0h0h0h0h0h0c0,0,0,0,0,0h0h0h0h0h0c0,0,0,0,0,0h0h0h0h0h0c0,0,0,0,0,0h0h0h0h0h0
	c0,0,0,0,0,0h0h0h0h0h0h0h0c0,0,0,0,0,0h0h0h0h0h0h0h0c0,0,0,0,0,0h0h0h0h0h0h0h0h0c0,0,0,0,0,0h0h0h0h0h0h0h0h0h0h0c0,0,0,0,0,0h0
	h0h0h0h0h0h0h0h0h0h0h0h0h0h0c0,0,0,0,0,0h0h0h0h0h0h0h0h0h0h0h0h0h0h0h0h0h0h0h0h0h0h0h0c0,0,0,0,0.1,0c0,0,0,0,0.1,0
	c0.2,0,0.4,0,0.6,0c0,0,0,0,0,0h0c0,0,0,0,0,0c0,0,0,0,0,0h0h0h0c0,0,0,0,0,0h0c0,0,0,0,0,0c0,0,0,0,0,0c0,0,0,0,0,0h0c0,0,0,0,0,0
	h0h0h0c0,0,0,0,0,0h0c0,0,0,0,0,0h0c0,0,0,0,0,0l0,0h0h0c0,0,0,0,0,0h0c0,0,0,0,0,0h0c0,0,0,0,0,0h0h0c0,0,0,0,0,0h0h0c0,0,0,0,0,0
	h0c0,0,0,0,0,0h0c0,0,0,0,0,0h0h0c0,0,0,0,0,0h0l0,0h0h0c0,0,0,0,0,0h0c0,0,0,0,0,0h0c0,0,0,0,0,0h0c0,0,0,0,0,0h0h0c0,0,0,0,0,0h0
	c0,0,0,0,0,0h0c0,0,0,0,0,0h0c0,0,0,0,0,0h0h0h0h0c0,0,0,0,0,0h0c0,0,0,0,0,0h0c0,0,0,0,0,0c0,0,0,0,0,0h0c0,0,0,0,0,0l0,0
	c0,0,0,0,0,0h0c0,0,0,0,0,0h0c0,0,0,0,0,0h0c0,0,0,0,0,0h0c0,0,0,0,0,0h0c0,0,0,0,0,0h0c0,0,0,0,0,0c0,0,0,0,0,0h0
	c0.3,0,0.6,0.1,0.9,0.2c0,0,0.1,0,0.1,0c0.2,0,0.4-0.1,0.5-0.4c0.1-0.3-0.1-0.5-0.4-0.6c-0.7-0.2-1.4-0.3-2.2-0.3h0
	C-172.6-198-172.7-198-172.7-198C-172.7-198-172.7-198-172.7-198L-172.7-198z M-176.8-197.2c-0.1,0-0.1,0-0.2,0
	c-0.7,0.3-1.3,0.6-1.9,1c-0.2,0.1-0.3,0.5-0.2,0.7c0.1,0.1,0.3,0.2,0.4,0.2c0.1,0,0.2,0,0.3-0.1c0.3-0.2,0.7-0.4,1.1-0.6h0
	c0,0,0,0,0,0c0,0,0,0,0,0s0,0,0,0c0,0,0,0,0,0c0,0,0,0,0,0h0c0,0,0,0,0,0h0c0,0,0,0,0,0c0,0,0,0,0,0c0,0,0,0,0,0h0c0,0,0,0,0,0
	c0,0,0,0,0,0c0,0,0,0,0,0c0,0,0,0,0,0c0,0,0,0,0,0c0,0,0,0,0,0c0,0,0,0,0,0c0,0,0,0,0,0c0,0,0,0,0,0c0,0,0,0,0,0c0,0,0,0,0,0
	c0,0,0,0,0,0c0,0,0,0,0,0c0,0,0,0,0,0c0,0,0,0,0,0c0,0,0,0,0,0c0,0,0,0,0,0c0,0,0,0,0,0l0,0c0,0,0,0,0,0c0,0,0,0,0,0h0c0,0,0,0,0,0
	c0,0,0,0,0,0h0c0,0,0,0,0,0c0.2-0.1,0.4-0.2,0.5-0.2c0.3-0.1,0.4-0.4,0.3-0.7C-176.4-197.1-176.6-197.2-176.8-197.2L-176.8-197.2z
	 M-180.3-194.9c-0.1,0-0.3,0-0.4,0.1c-0.6,0.6-1,1.2-1.4,1.8c-0.1,0.2-0.1,0.5,0.2,0.7c0.1,0,0.2,0.1,0.2,0.1c0.2,0,0.3-0.1,0.4-0.3
	c0-0.1,0.1-0.1,0.1-0.2c0,0,0,0,0,0c0,0,0,0,0,0h0c0,0,0,0,0,0c0,0,0,0,0,0c0,0,0,0,0,0c0,0,0,0,0,0c0,0,0,0,0,0c0,0,0,0,0,0
	c0,0,0,0,0,0c0,0,0,0,0,0c0,0,0,0,0,0c0,0,0,0,0,0c0,0,0,0,0,0c0,0,0,0,0,0c0,0,0,0,0,0c0,0,0,0,0,0c0,0,0,0,0,0c0,0,0,0,0,0
	c0,0,0,0,0,0c0,0,0,0,0,0c0,0,0,0,0,0c0,0,0,0,0,0l0,0c0,0,0,0,0,0h0c0,0,0,0,0,0l0,0c0,0,0,0,0,0c0,0,0,0,0,0c0,0,0,0,0,0l0,0
	c0,0,0,0,0,0v0c0,0,0,0,0,0v0c0,0,0,0,0,0h0c0,0,0,0,0,0c0,0,0,0,0,0c0.3-0.4,0.6-0.9,1-1.2c0.2-0.2,0.2-0.5,0-0.7
	C-180.1-194.9-180.2-194.9-180.3-194.9L-180.3-194.9z M-182.4-191.2c-0.2,0-0.4,0.2-0.5,0.4c-0.1,0.5-0.1,1-0.1,1.5
	c0,0.3,0,0.6,0.1,0.9c0,0.2,0.3,0.4,0.5,0.4c0,0,0.1,0,0.1,0c0.3-0.1,0.4-0.3,0.4-0.6c0,0,0-0.1,0-0.1c0,0,0,0,0,0c0,0,0,0,0,0v0
	c0,0,0,0,0,0v0v0c0,0,0,0,0,0v0v0c0,0,0,0,0,0c0,0,0,0,0,0v0c0,0,0,0,0,0v0c0,0,0,0,0,0v0v0c0,0,0,0,0,0v0l0,0v0c0,0,0,0,0,0
	c0-0.1,0-0.3,0-0.4v0v0v0v0c0,0,0,0,0,0v0v0c0,0,0,0,0,0c0,0,0,0,0,0v0v0v0c0,0,0,0,0,0s0,0,0,0v0v0v0v0v0v0v0v0v0v0c0,0,0,0,0,0v0
	v0l0,0v0c0,0,0,0,0,0v0l0,0v0c0-0.4,0-0.8,0.1-1.2C-181.8-190.9-182-191.2-182.4-191.2C-182.3-191.2-182.4-191.2-182.4-191.2
	L-182.4-191.2z M-181.5-187c-0.1,0-0.2,0-0.3,0.1c-0.2,0.2-0.3,0.5-0.1,0.7c0.4,0.6,1,1,1.6,1.5c0,0,0,0,0,0
	c-0.1,0.1-0.2,0.1-0.3,0.1c-0.8,0.2-1.1,0.8-1,1.2c0,0.2,0.1,0.9,1.2,1.1c0.2,0,0.4,0,0.6,0h0c0.3,0,0.5-0.2,0.5-0.5
	c0-0.3-0.2-0.5-0.5-0.5c-0.2,0-0.4,0-0.5,0h0c0,0,0,0,0,0h0c0,0,0,0,0,0h0h0h0c0,0,0,0,0,0h0c0,0,0,0,0,0h0c-0.1,0-0.1,0-0.2,0h0
	l0,0c0,0,0,0,0,0h0c0,0,0,0,0,0s0,0,0,0c0,0,0,0,0,0l0,0h0c0,0,0,0,0,0h0c-0.1,0-0.1-0.1-0.1-0.1h0v0v0h0c0-0.1,0.1-0.1,0.3-0.2h0h0
	v0h0c0,0,0,0,0,0h0h0c0,0,0,0,0,0h0c0,0,0,0,0,0h0h0c0,0,0,0,0,0h0c0,0,0,0,0,0h0h0c0.2-0.1,0.4-0.2,0.6-0.3
	c0.2-0.2,0.3-0.5,0.1-0.7c0,0,0,0,0,0c0.1,0,0.1-0.1,0.2-0.2c0.1-0.2,0.1-0.5-0.2-0.7c-0.4-0.3-0.8-0.5-1.1-0.9c0,0,0,0,0,0s0,0,0,0
	c0,0,0,0,0,0c0,0,0,0,0,0v0c0,0,0,0,0,0h0c0,0,0,0,0,0c0,0,0,0,0,0c0,0,0,0,0,0l0,0c0,0,0,0,0,0c0,0,0,0,0,0v0c0,0,0,0,0,0v0
	c0,0,0,0,0,0c0,0,0,0,0,0c0,0,0,0,0,0l0,0c0,0,0,0,0,0c0,0,0,0,0,0c0,0,0,0,0,0h0c0,0,0,0,0,0c0,0,0,0,0,0c0,0,0,0,0,0h0
	c0,0,0,0,0,0l0,0c0,0,0,0,0,0c0,0,0,0,0,0c0,0,0,0,0,0c0,0,0,0,0,0c0,0,0,0,0,0l0,0c0,0,0,0,0,0c0,0,0,0,0,0l0,0c0,0,0,0,0,0
	c0,0,0,0,0,0c0,0,0,0,0,0c0,0,0,0,0,0c0,0,0,0,0,0l0,0l0,0c0,0,0,0,0,0c0,0,0,0,0,0c0,0,0,0,0,0c0,0,0,0,0,0c0,0,0,0,0,0
	c0,0,0,0,0,0c0,0,0,0,0,0c0,0,0,0,0,0c0,0,0,0,0,0c0,0,0,0,0,0l0,0c0,0,0,0,0,0c0,0,0,0,0,0c0,0,0,0,0,0c0,0,0,0,0,0c0,0,0,0,0,0
	l0,0c0,0,0,0,0,0v0c0,0,0,0,0,0l0,0c0,0,0,0,0,0c0,0,0,0,0,0l0,0c0,0,0,0,0,0v0c0,0,0,0,0,0h0c0,0,0,0,0,0c0,0,0,0,0,0c0,0,0,0,0,0
	v0c0,0,0,0,0,0c-0.1-0.1-0.1-0.1-0.2-0.2C-181.2-187-181.3-187-181.5-187L-181.5-187z M-175.9-184.2
	C-175.9-184.2-175.9-184.2-175.9-184.2c-0.5,0.4-1,0.6-1.6,0.8c0,0,0,0,0,0c0,0,0,0,0,0c0,0,0,0,0,0v0h0v0h0h0c0,0,0,0,0,0h0
	c0,0,0,0,0,0c0,0,0,0,0,0h0c0,0,0,0,0,0h0c0,0,0,0,0,0h0c0,0,0,0,0,0h0c0,0,0,0,0,0h0h0c0,0,0,0,0,0h0c0,0,0,0,0,0h0c0,0,0,0,0,0
	c0,0,0,0,0,0c0,0,0,0,0,0v0c0,0-0.1,0-0.1,0c-0.3,0.1-0.4,0.3-0.4,0.6c0,0.2,0.3,0.4,0.5,0.4c0,0,0.1,0,0.1,0c0.9-0.2,1.6-0.5,2.2-1
	c0.2-0.2,0.2-0.5,0.1-0.7C-175.5-184.2-175.7-184.2-175.9-184.2L-175.9-184.2z M-171.9-184.2C-171.9-184.2-171.9-184.2-171.9-184.2
	c-0.1,0-0.2,0-0.3,0l0,0h0h0c0,0,0,0,0,0h0c0,0,0,0,0,0h0h0c0,0,0,0,0,0h0h0c0,0,0,0,0,0h0h0c0,0,0,0,0,0h0c0,0,0,0,0,0l0,0h0h0
	c0,0,0,0,0,0c0,0,0,0,0,0c0,0,0,0,0,0h0h0c0,0,0,0,0,0c-0.1,0-0.2,0-0.3,0c0,0,0,0,0,0h0h0h0c0,0,0,0,0,0l0,0h0c-0.3,0-0.6,0-0.9,0
	h0h0h0h0h0h0h0h0h0h0h0h0h0h0h0h0h0h0h0h0h0h0h0h0h0h0h0h0h0h0h0c0,0,0,0,0,0h0h0h0h0h0h0c0,0,0,0,0,0h0h0h0h0h0c0,0,0,0,0,0h0h0h0
	h0h0h0h0c0,0,0,0,0,0h0h0h0h0h0h0h0c0,0,0,0-0.1,0h0c-0.3,0-0.5,0.2-0.5,0.5c0,0.3,0.2,0.5,0.5,0.5c0.2,0,0.3,0,0.5,0
	c0.3,0,0.7,0,1,0c0.2,0,0.5,0,0.8-0.1c0.3,0,0.5-0.3,0.4-0.6C-171.4-184-171.6-184.2-171.9-184.2L-171.9-184.2z M-168-185.8
	c-0.1,0-0.2,0-0.3,0.1c-0.1,0.1-0.2,0.2-0.3,0.3c0,0,0,0,0,0c0,0,0,0,0,0c0,0,0,0,0,0c0,0,0,0,0,0c0,0,0,0,0,0c0,0,0,0,0,0
	c0,0,0,0,0,0s0,0,0,0l0,0c0,0,0,0,0,0c0,0,0,0,0,0c0,0,0,0,0,0c0,0,0,0,0,0c0,0,0,0,0,0c0,0,0,0,0,0c0,0,0,0,0,0c0,0,0,0,0,0
	c0,0,0,0,0,0c0,0,0,0,0,0c0,0,0,0,0,0c0,0,0,0,0,0c0,0,0,0,0,0c0,0,0,0,0,0c0,0,0,0,0,0c0,0,0,0,0,0c0,0,0,0,0,0c0,0,0,0,0,0
	c0,0,0,0,0,0c0,0,0,0,0,0c0,0,0,0,0,0c0,0,0,0,0,0c0,0,0,0,0,0c0,0,0,0,0,0v0c0,0,0,0,0,0c0,0,0,0,0,0c0,0,0,0,0,0c0,0,0,0,0,0h0
	c-0.4,0.2-0.8,0.5-1.2,0.6c-0.3,0.1-0.4,0.4-0.3,0.6c0.1,0.2,0.3,0.3,0.5,0.3c0.1,0,0.1,0,0.2,0c0.7-0.3,1.4-0.7,2-1.1
	c0.2-0.2,0.3-0.5,0.1-0.7C-167.7-185.7-167.8-185.8-168-185.8L-168-185.8z M-165.7-189.4c-0.2,0-0.4,0.2-0.5,0.4v0c0,0,0,0,0,0v0
	c0,0,0,0,0,0l0,0c0,0,0,0,0,0l0,0c0,0,0,0,0,0v0c0,0,0,0,0,0v0c0,0,0,0,0,0h0c0,0,0,0,0,0v0c0,0,0,0,0,0l0,0c0,0,0,0,0,0
	c0,0,0,0,0,0v0c0,0,0,0,0,0v0c0,0,0,0,0,0v0c0,0,0,0,0,0c0,0,0,0,0,0c0,0,0,0,0,0v0c0,0,0,0,0,0c0,0,0,0,0,0v0v0c0,0,0,0,0,0
	c0,0,0,0,0,0s0,0,0,0c0,0,0,0,0,0c0,0,0,0,0,0c0,0,0,0,0,0s0,0,0,0c0,0,0,0,0,0c0,0,0,0,0,0c0,0,0,0,0,0c0,0,0,0,0,0c0,0,0,0,0,0
	c0,0,0,0,0,0c0,0,0,0,0,0c0,0,0,0,0,0s0,0,0,0c0,0,0,0,0,0c0,0,0,0,0,0c0,0,0,0,0,0c0,0,0,0,0,0c0,0,0,0,0,0c0,0,0,0,0,0v0
	c0,0,0,0,0,0c0,0,0,0,0,0c0,0,0,0,0,0s0,0,0,0c0,0,0,0,0,0c0,0,0,0,0,0c0,0,0,0,0,0c0,0,0,0,0,0c0,0,0,0,0,0c0,0,0,0,0,0
	c0,0,0,0,0,0c0,0,0,0,0,0c0,0,0,0,0,0s0,0,0,0c0,0,0,0,0,0c0,0,0,0,0,0c0,0,0,0,0,0c0,0,0,0,0,0s0,0,0,0c0,0,0,0,0,0c0,0,0,0,0,0
	c0,0,0,0,0,0s0,0,0,0c0,0,0,0,0,0c0,0,0,0,0,0s0,0,0,0c0,0,0,0,0,0c0,0,0,0,0,0c0,0,0,0,0,0c0,0,0,0,0,0c0,0,0,0,0,0c0,0,0,0,0,0
	c0,0,0,0,0,0v0c0,0,0,0,0,0c0,0,0,0,0,0c0,0,0,0,0,0c0,0,0,0,0,0c0,0,0,0,0,0c0,0,0,0,0,0c0,0,0,0,0,0c0,0,0,0,0,0s0,0,0,0
	c0,0,0,0,0,0c0,0,0,0,0,0l0,0c0,0,0,0,0,0c0,0,0,0,0,0c0,0,0,0,0,0c0,0,0,0,0,0s0,0,0,0s0,0,0,0c0,0,0,0,0,0c0,0,0,0,0,0
	c0,0,0,0,0,0c0,0,0,0,0,0c0,0,0,0,0,0v0c0,0,0,0,0,0s0,0,0,0c0,0,0,0,0,0v0c0,0,0,0,0,0c0,0,0,0,0,0c0,0,0,0,0,0v0c0,0,0,0,0,0l0,0
	c0,0,0,0,0,0v0c0,0,0,0,0,0h0c0,0,0,0,0,0l0,0c0,0,0,0,0,0c0,0,0,0,0,0c0,0,0,0,0,0v0c0,0,0,0,0,0c0,0,0,0,0,0c0,0,0,0,0,0v0
	c0,0,0,0,0,0s0,0,0,0c0,0,0,0,0,0v0c0,0,0,0,0,0v0c0,0,0,0,0,0l0,0c0,0,0,0,0,0v0c0,0,0,0,0,0l0,0c0,0,0,0,0,0h0c0,0,0,0,0,0v0
	c0,0,0,0,0,0l0,0c0,0,0,0,0,0c0,0,0,0,0,0v0c0,0,0,0,0,0l0,0c0,0,0,0,0,0c0,0,0,0,0,0v0c0,0,0,0,0,0c0,0,0,0,0,0c0,0,0,0,0,0
	c0,0,0,0,0,0c0,0,0,0,0,0v0c0,0,0,0,0,0c0,0,0,0,0,0c0,0,0,0,0,0v0c0,0,0,0,0,0v0c0,0,0,0,0,0v0c0,0,0,0,0,0c0,0,0,0,0,0
	c0,0,0,0,0,0l0,0c0,0,0,0,0,0c0,0,0,0,0,0c0,0,0,0,0,0v0c0,0,0,0,0,0h0c0,0,0,0,0,0c0,0,0,0,0,0c0,0,0,0,0,0c0,0,0,0,0,0s0,0,0,0
	c0,0,0,0,0,0l0,0c0,0,0,0,0,0c0,0,0,0,0,0c0,0,0,0,0,0c0,0,0,0,0,0c0,0,0,0,0,0c0,0,0,0,0,0c-0.1,0.3-0.3,0.6-0.4,0.8
	c-0.1,0.2-0.1,0.5,0.1,0.7c0.1,0.1,0.2,0.1,0.3,0.1c0.2,0,0.3-0.1,0.4-0.2c0.4-0.7,0.7-1.4,0.9-2.1c0.1-0.3-0.1-0.5-0.4-0.6
	C-165.6-189.4-165.7-189.4-165.7-189.4L-165.7-189.4z M-165.9-193.6c-0.1,0-0.1,0-0.2,0c-0.3,0.1-0.4,0.4-0.3,0.6c0,0,0,0,0,0h0
	c0,0,0,0,0,0c0,0,0,0,0,0c0,0,0,0,0,0v0c0,0,0,0,0,0c0,0,0,0,0,0v0c0,0,0,0,0,0s0,0,0,0s0,0,0,0c0,0,0,0,0,0v0c0,0,0,0,0,0s0,0,0,0
	c0,0,0,0,0,0v0c0,0,0,0,0,0l0,0c0,0,0,0,0,0v0c0.1,0.2,0.1,0.4,0.2,0.6v0c0,0,0,0,0,0v0c0,0,0,0,0,0c0,0,0,0,0,0v0c0,0,0,0,0,0v0
	c0,0,0,0,0,0s0,0,0,0v0c0,0,0,0,0,0v0c0,0,0,0,0,0v0c0,0,0,0,0,0h0c0,0,0,0,0,0l0,0c0,0.2,0.1,0.3,0.1,0.5l0,0c0,0,0,0,0,0
	c0,0,0,0,0,0c0,0,0,0,0,0c0,0,0,0,0,0c0,0,0,0,0,0l0,0c0,0,0,0,0,0c0,0,0,0,0,0l0,0c0,0,0,0,0,0v0c0,0,0,0,0,0v0c0,0,0,0,0,0v0
	c0,0,0,0,0,0v0c0,0,0,0,0,0v0c0,0,0,0,0,0v0v0c0,0,0,0,0,0v0c0,0,0,0,0,0v0c0,0,0,0,0,0v0c0,0,0,0,0,0v0v0l0,0c0,0,0,0,0,0
	c0,0,0,0,0,0v0c0,0,0,0,0,0v0c0,0,0,0,0,0v0c0,0,0,0,0,0c0,0.2,0,0.4,0.1,0.5c0,0.3,0.2,0.5,0.5,0.5c0,0,0,0,0,0
	c0.3,0,0.5-0.3,0.5-0.5c0-0.5-0.1-0.9-0.2-1.4c-0.1-0.3-0.1-0.6-0.2-0.8C-165.5-193.5-165.7-193.6-165.9-193.6L-165.9-193.6z
	 M-168.6-196.9c-0.2,0-0.3,0.1-0.4,0.2c-0.1,0.2-0.1,0.5,0.2,0.7c0,0,0,0,0,0c0,0,0,0,0,0c0,0,0,0,0,0c0,0,0,0,0,0c0,0,0,0,0,0
	c0,0,0,0,0,0h0c0,0,0,0,0,0c0,0,0,0,0,0c0,0,0,0,0,0c0,0,0,0,0,0c0,0,0,0,0,0c0,0,0,0,0,0c0,0,0,0,0,0c0,0,0,0,0,0c0,0,0,0,0,0
	c0,0,0,0,0,0c0,0,0,0,0,0c0,0,0,0,0,0c0,0,0,0,0,0c0,0,0,0,0,0c0,0,0,0,0,0c0,0,0,0,0,0c0,0,0,0,0,0c0,0,0,0,0,0c0,0,0,0,0,0
	c0,0,0,0,0,0c0,0,0,0,0,0c0,0,0,0,0,0c0,0,0,0,0,0c0,0,0,0,0,0c0,0,0,0,0,0c0,0,0,0,0,0c0,0,0,0,0,0c0,0,0,0,0,0c0,0,0,0,0,0
	s0,0,0,0c0,0,0,0,0,0c0,0,0,0,0,0c0,0,0,0,0,0c0,0,0,0,0,0v0c0,0,0,0,0,0h0c0,0,0,0,0,0c0,0,0,0,0,0c0,0,0,0,0,0l0,0c0,0,0,0,0,0
	c0,0,0,0,0,0c0,0,0,0,0,0h0c0,0,0,0,0,0l0,0c0,0,0,0,0,0v0c0,0,0,0,0,0h0c0,0,0,0,0,0c0,0,0,0,0,0c0,0,0,0,0,0c0,0,0,0,0,0
	c0,0,0,0,0,0c0,0,0,0,0,0v0c0,0,0,0,0,0c0,0,0,0,0,0l0,0c0,0,0,0,0,0c0,0,0,0,0,0c0,0,0,0,0,0c0,0,0,0,0,0l0,0c0,0,0,0,0,0
	c0,0,0,0,0,0c0,0,0,0,0,0h0c0,0,0,0,0,0c0,0,0,0,0,0h0c0,0,0,0,0,0h0c0,0,0,0,0,0c0,0,0,0,0,0c0,0,0,0,0,0c0,0,0,0,0,0l0,0
	c0,0,0,0,0,0c0,0,0,0,0,0c0,0,0,0,0,0c0,0,0,0,0,0h0c0,0,0,0,0,0v0c0,0,0,0,0,0c0,0,0,0,0,0c0,0,0,0,0,0c0,0,0,0,0,0c0,0,0,0,0,0h0
	c0,0,0,0,0,0c0,0,0,0,0,0c0,0,0,0,0,0s0,0,0,0l0,0c0,0,0,0,0,0c0,0,0,0,0,0l0,0c0,0,0,0,0,0h0c0,0,0,0,0,0v0c0,0,0,0,0,0l0,0
	c0,0,0,0,0,0c0,0,0,0,0,0h0c0,0,0,0,0,0c0,0,0,0,0,0c0,0,0,0,0,0c0,0,0,0,0,0v0c0,0,0,0,0,0c0,0,0,0,0,0c0,0,0,0,0,0c0,0,0,0,0,0
	c0,0,0,0,0,0h0c0,0,0,0,0,0h0c0,0,0,0,0,0v0c0,0,0,0,0,0l0,0c0,0,0,0,0,0l0,0c0,0,0,0,0,0h0c0,0,0,0,0,0l0,0c0,0,0,0,0,0
	c0,0,0,0,0,0c0,0,0,0,0,0l0,0c0,0,0,0,0,0v0c0,0,0,0,0,0v0c0,0,0,0,0,0l0,0c0,0,0,0,0,0h0c0,0,0,0,0,0c0,0,0,0,0,0c0,0,0,0,0,0
	c0,0,0,0,0,0c0,0,0,0,0,0c0,0,0,0,0,0c0,0,0,0,0,0h0c0,0,0,0,0,0c0,0,0,0,0,0c0,0,0,0,0,0c0,0,0,0,0,0c0,0,0,0,0,0c0,0,0,0,0,0
	c0,0,0,0,0,0l0,0c0,0,0,0,0,0c0,0,0,0,0,0c0,0,0,0,0,0c0,0,0,0,0,0c0,0,0,0,0,0c0,0,0,0,0,0c0,0,0,0,0,0c0,0,0,0,0,0c0,0,0,0,0,0
	c0,0,0,0,0,0c0,0,0,0,0,0c0,0,0,0,0,0c0,0,0,0,0,0c0,0,0,0,0,0c0,0,0,0,0,0c0,0,0,0,0,0c0,0,0,0,0,0c0,0,0,0,0,0c0,0,0,0,0,0
	c0,0,0,0,0,0s0,0,0,0c0,0,0,0,0,0c0,0,0,0,0,0c0,0,0,0,0,0c0,0,0,0,0,0c0,0,0,0,0,0c0,0,0,0,0,0c0,0,0,0,0,0l0,0c0,0,0,0,0,0
	c0,0,0,0,0,0c0,0,0,0,0,0c0,0,0,0,0,0c0,0,0,0,0,0c0,0,0,0,0,0c0,0,0,0,0,0c0,0,0,0,0,0c0,0,0,0,0,0c0,0,0,0,0,0c0,0,0,0,0,0
	c0,0,0,0,0,0l0,0c0,0,0,0,0,0c0,0,0,0,0,0c0,0,0,0,0,0c0,0,0,0,0,0c0,0,0,0,0,0l0,0c0,0,0,0,0,0h0c0,0,0,0,0,0c0,0,0,0,0,0
	c0,0,0,0,0,0v0c0,0,0,0,0,0c0,0,0,0,0,0c0.2,0.2,0.4,0.4,0.6,0.7c0.1,0.1,0.2,0.2,0.4,0.2c0.1,0,0.2,0,0.3-0.1
	c0.2-0.2,0.3-0.5,0.1-0.7c-0.5-0.6-1.1-1.1-1.8-1.5C-168.4-196.9-168.5-196.9-168.6-196.9L-168.6-196.9z"/>
<path id="Rectangle-93" sketch:type="MSShapeGroup" opacity="0.3" enable-background="new    " d="M-177-1220h8l-4,4L-177-1220z"/>
<g id="Imported-Layers_2_" transform="translate(3.000000, 1586.000000)" sketch:type="MSLayerGroup">
	<path id="Fill-1_3_" sketch:type="MSShapeGroup" fill="#FFA500" d="M-177-1221c4.4,0,8,3.6,8,8s-3.6,8-8,8s-8-3.6-8-8
		S-181.4-1221-177-1221 M-177-1223c-5.5,0-10,4.5-10,10s4.5,10,10,10c5.5,0,10-4.5,10-10S-171.5-1223-177-1223"/>
	<path id="Fill-2_2_" sketch:type="MSShapeGroup" fill="#999999" d="M-172.2-1211c-0.5,2.3-2.5,4-4.9,4c-2.4,0-4.4-1.7-4.9-4H-172.2
		 M-171-1212h-12.2l0.2,1.2c0.6,2.8,3,4.8,5.9,4.8c2.8,0,5.3-2,5.9-4.8L-171-1212"/>
	<path id="Fill-3_1_" sketch:type="MSShapeGroup" fill="#FFA500" d="M-172-1211c-0.5,2.3-2.5,4-5,4s-4.5-1.7-5-4H-172 M-183-1212
		l0,1.2c0.6,2.8,3.1,4.8,6,4.8c2.9,0,5.4-2,6-4.8l0-1.2H-183"/>
	<path id="Fill-4_1_" sketch:type="MSShapeGroup" fill="#FFA500" d="M-171-1214.5c0,0.8-0.7,1.5-1.5,1.5s-1.5-0.7-1.5-1.5
		s0.7-1.5,1.5-1.5S-171-1215.3-171-1214.5"/>
	<path id="Fill-5_1_" sketch:type="MSShapeGroup" fill="#FFA500" d="M-180-1214.5c0,0.8-0.7,1.5-1.5,1.5s-1.5-0.7-1.5-1.5
		s0.7-1.5,1.5-1.5S-180-1215.3-180-1214.5"/>
	<path id="Fill-6_1_" sketch:type="MSShapeGroup" fill="#FFA500" d="M-173-1208h-8l-1-2h10L-173-1208"/>
</g>
<path id="Rectangle-53-Copy-3" sketch:type="MSShapeGroup" fill="#777777" d="M-183-555c0-1.1,0.9-2,2-2h14c1.1,0,2,0.9,2,2v10
	c0,1.1-0.9,2-2,2h-14c-1.1,0-2-0.9-2-2V-555z M-169.2-546.9c-0.3-0.3-2.5-1.3-3-1.5c0-0.1-0.1-0.4-0.2-0.5c-0.1,0-0.5-0.2-0.5-0.2
	c0,0,0-0.1-0.1-0.2c0-0.1,0.1-0.2,0.1-0.2c0.1-0.1,0.2-0.3,0.3-0.5c0.1-0.2,0.1-0.7,0.1-0.7c0-0.1,0.1-0.1,0.2-0.2
	c0.2-0.1,0.3-1.1,0.3-1.1c0-0.3-0.1-0.2-0.1-0.4v-0.9c0-1.1-0.9-1.8-1.9-1.8h0c-1.1,0-2,0.7-2,1.8v0.9c0,0.2-0.1,0.1-0.1,0.4
	c0,0,0.1,1,0.3,1.1c0.1,0,0.2,0.1,0.2,0.2c0,0,0.1,0.5,0.1,0.7c0.1,0.2,0.2,0.4,0.3,0.5c0,0,0,0.1,0,0.2c0,0.1,0,0.2,0,0.2
	c0,0-0.4,0.2-0.5,0.2c-0.1,0.1-0.2,0.4-0.2,0.5c-0.4,0.1-2.7,1.2-3,1.5c-0.2,0.2-0.2,1.3-0.2,1.3v0.1c0,0.3,0.2,0.5,0.5,0.5h9
	c0.3,0,0.5-0.2,0.5-0.5v-0.1C-169-545.6-169-546.7-169.2-546.9z"/>
<path id="ic_cloud-copy-6" sketch:type="MSShapeGroup" fill="#777777" d="M-184-632.4c0,2.4,1.8,4.4,4.1,4.4h11.8
	c2.3,0,4.1-2,4.1-4.4c0-2.4-1.7-4.3-3.9-4.4v0c0-2.8-2.1-5.2-4.8-5.2c-1.7,0-3.2,1-4.1,2.4c-0.3-0.1-0.6-0.2-0.9-0.2
	c-1.3,0-2.4,1.1-2.4,2.5c0,0.2,0,0.3,0,0.4C-182.2-636.7-184-634.8-184-632.4"/>
<path fill="#777777" d="M-174-602c-5,0-9,4-9,9s4,9,9,9s9-4,9-9S-169-602-174-602z M-170-592l-3-3v7h-2v-7l-3,3l-1-1l5-5l5,5
	L-170-592z"/>
<path id="Rectangle-53-Copy-4" sketch:type="MSShapeGroup" fill="#FFFFFF" d="M-183-65c0-1.1,0.9-2,2-2h14c1.1,0,2,0.9,2,2v10
	c0,1.1-0.9,2-2,2h-14c-1.1,0-2-0.9-2-2V-65z M-169.2-56.9c-0.3-0.3-2.5-1.3-3-1.5c0-0.1-0.1-0.4-0.2-0.5c-0.1,0-0.5-0.2-0.5-0.2
	c0,0,0-0.1-0.1-0.2c0-0.1,0.1-0.2,0.1-0.2c0.1-0.1,0.2-0.3,0.3-0.5c0.1-0.2,0.1-0.7,0.1-0.7c0-0.1,0.1-0.1,0.2-0.2
	c0.2-0.1,0.3-1.1,0.3-1.1c0-0.3-0.1-0.2-0.1-0.4v-0.9c0-1.1-0.9-1.8-1.9-1.8h0c-1.1,0-2,0.7-2,1.8v0.9c0,0.2-0.1,0.1-0.1,0.4
	c0,0,0.1,1,0.3,1.1c0.1,0.1,0.2,0.1,0.2,0.2c0,0,0.1,0.5,0.1,0.7c0.1,0.2,0.2,0.4,0.3,0.5c0,0,0,0.1,0,0.2c0,0.1,0,0.2,0,0.2
	c0,0-0.4,0.2-0.5,0.2c-0.1,0.1-0.2,0.4-0.2,0.5c-0.4,0.1-2.7,1.2-3,1.5c-0.2,0.2-0.2,1.3-0.2,1.3v0.1c0,0.3,0.2,0.5,0.5,0.5h9
	c0.3,0,0.5-0.2,0.5-0.5v-0.1C-169-55.6-169-56.7-169.2-56.9z"/>
<path id="ic_cloud-copy-7" sketch:type="MSShapeGroup" fill="#FFFFFF" d="M-184-142.4c0,2.4,1.8,4.4,4.1,4.4h11.8
	c2.3,0,4.1-2,4.1-4.4c0-2.4-1.7-4.3-3.9-4.4v0c0-2.8-2.1-5.2-4.8-5.2c-1.7,0-3.2,1-4.1,2.4c-0.3-0.1-0.6-0.2-0.9-0.2
	c-1.3,0-2.4,1.1-2.4,2.5c0,0.2,0,0.3,0,0.4C-182.2-146.7-184-144.8-184-142.4"/>
<path id="Imported-Layers_3_" sketch:type="MSShapeGroup" fill="#777777" d="M-180-502l12-8l-12-8V-502z"/>
<g id="Oval-55-_x2B_-Fill-5-_x2B_-Shape" transform="translate(8.000000, 737.000000)" sketch:type="MSLayerGroup">
	<g id="Oval-55-_x2B_-Fill-5" transform="translate(0.000000, 3.000000)" sketch:type="MSShapeGroup">
		<path id="Oval-55" fill="#777777" d="M-176.7-1219.3c0.5,1,0.8,2.1,0.8,3.3c0,3.9-3.1,7-7,7c-3.9,0-7-3.1-7-7s3.1-7,7-7
			c1.1,0,2.2,0.3,3.2,0.8l-1.5,1.5c-0.6-0.2-1.2-0.3-1.8-0.3c-2.8,0-5,2.2-5,5c0,2.8,2.2,5,5,5c2.8,0,5-2.2,5-5
			c0-0.6-0.1-1.1-0.3-1.6L-176.7-1219.3z"/>
	</g>
	<path id="Shape" sketch:type="MSShapeGroup" fill="#777777" d="M-175-1219.6l-7.3,7.3l-1.4-1.4l7.3-7.3h-4.6v-2h8v1v7h-2V-1219.6z"
		/>
</g>
<path id="Imported-Layers-Copy-4" sketch:type="MSShapeGroup" fill="#FFFFFF" d="M-180-12l12-8l-12-8V-12z"/>
<g id="Oval-55-_x2B_-Fill-5-_x2B_-Shape-Copy" transform="translate(8.000000, 1227.000000)" sketch:type="MSLayerGroup">
	<g id="Oval-55-_x2B_-Fill-5_1_" transform="translate(0.000000, 3.000000)" sketch:type="MSShapeGroup">
		<path id="Oval-55_1_" fill="#FFFFFF" d="M-176.7-1219.3c0.5,1,0.8,2.1,0.8,3.3c0,3.9-3.1,7-7,7c-3.9,0-7-3.1-7-7s3.1-7,7-7
			c1.1,0,2.2,0.3,3.2,0.8l-1.5,1.5c-0.6-0.2-1.2-0.3-1.8-0.3c-2.8,0-5,2.2-5,5c0,2.8,2.2,5,5,5c2.8,0,5-2.2,5-5
			c0-0.6-0.1-1.1-0.3-1.6L-176.7-1219.3z"/>
	</g>
	<path id="Shape_1_" sketch:type="MSShapeGroup" fill="#FFFFFF" d="M-175-1219.6l-7.3,7.3l-1.4-1.4l7.3-7.3h-4.6v-2h8v1v7h-2
		V-1219.6z"/>
</g>
<path id="Imported-Layers-Copy-4_1_" sketch:type="MSShapeGroup" fill="#FFFFFF" d="M-181.2,493.7c-0.3,0-0.6,0-1,0
	c-0.6,0-1-0.5-0.9-1.1c0-0.5,0.4-0.9,0.9-0.9c-0.1-0.3,0-0.7,0.2-0.9c0.1-0.1,0.1-0.2,0.2-0.4c-0.6-0.3-1.1-0.8-1.6-1.2
	c-0.4-0.4-0.4-1-0.1-1.4c0.4-0.4,1-0.4,1.4-0.1c0.4,0.4,0.9,0.7,1.5,1.1c0.5,0.4,0.8,0.8,0.8,1.4l0,0.1c0,0.5-0.1,1-0.4,1.4
	c0.7-0.1,1.2-0.2,1.8-0.3c0.5-0.2,1.1,0.1,1.2,0.7c0.2,0.5-0.1,1.1-0.7,1.2C-178.9,493.6-179.9,493.7-181.2,493.7L-181.2,493.7z
	 M-172.8,492.6c-0.9,0-1.8-0.1-2.8-0.2c-0.5-0.1-0.9-0.6-0.9-1.1c0.1-0.5,0.6-1,1.1-0.9c1.4,0.2,2.6,0.2,3.7,0.1l0.2,1l0.1,1
	C-171.9,492.6-172.4,492.6-172.8,492.6L-172.8,492.6z M-168.5,491.9c-0.4,0-0.8-0.3-1-0.7c-0.2-0.5,0.1-1.1,0.6-1.3
	c1.2-0.4,2.3-1,3.1-1.7c0.4-0.4,1.1-0.3,1.4,0.1c0.4,0.4,0.3,1.1-0.1,1.4c-1.1,0.9-2.4,1.6-3.8,2.1
	C-168.3,491.9-168.4,491.9-168.5,491.9L-168.5,491.9z M-163.1,487.7c-0.2,0-0.3,0-0.5-0.1c-0.5-0.3-0.6-0.9-0.4-1.4
	c0.6-1,0.9-2.1,1-3.4c0-0.6,0.5-0.9,1.1-0.9c0.6,0,1,0.5,0.9,1.1c-0.1,1.5-0.5,2.9-1.2,4.2C-162.5,487.5-162.8,487.7-163.1,487.7
	L-163.1,487.7z M-184.6,487c-0.4,0-0.8-0.2-0.9-0.6c-0.3-0.8-0.5-1.6-0.5-2.5l0-0.2c0-0.6,0.1-1.2,0.2-1.8c0.1-0.5,0.6-0.9,1.2-0.8
	c0.5,0.1,0.9,0.6,0.8,1.2c-0.1,0.5-0.1,0.9-0.1,1.4l0,0.2c0,0.6,0.1,1.2,0.4,1.7c0.2,0.5,0,1.1-0.5,1.3
	C-184.3,487-184.4,487-184.6,487L-184.6,487z M-162.3,480.9c-0.5,0-0.8-0.3-0.9-0.7l0-0.1c-0.3-1.2-0.7-2.2-1.4-3.1
	c-0.3-0.4-0.3-1.1,0.2-1.4c0.4-0.3,1.1-0.3,1.4,0.2c0.9,1.1,1.5,2.4,1.8,3.9c0.1,0.5-0.2,1.1-0.8,1.2
	C-162.1,480.9-162.2,480.9-162.3,480.9L-162.3,480.9z M-183.8,480.3c-0.2,0-0.3,0-0.5-0.1c-0.5-0.3-0.6-0.9-0.4-1.4
	c0.7-1.2,1.7-2.3,2.9-3.3c0.4-0.4,1.1-0.3,1.4,0.1c0.4,0.4,0.3,1.1-0.1,1.4c-1,0.8-1.8,1.7-2.4,2.7
	C-183.1,480.1-183.4,480.3-183.8,480.3L-183.8,480.3z M-178.6,475.7c-0.4,0-0.7-0.2-0.9-0.5c-0.3-0.5-0.1-1.1,0.4-1.3
	c1.3-0.7,2.6-1.1,4-1.5c0.7-0.2,1.4-0.3,2.2-0.3c0.6-0.1,1,0.4,1.1,0.9c0,0.6-0.4,1-0.9,1.1c-0.6,0.1-1.3,0.1-1.9,0.3
	c-1.2,0.3-2.4,0.7-3.5,1.3C-178.3,475.6-178.5,475.7-178.6,475.7L-178.6,475.7z M-166.1,475.4c-0.2,0-0.3,0-0.5-0.1
	c-1-0.6-2.1-1-3.4-1.1c-0.5-0.1-0.9-0.6-0.8-1.1c0.1-0.6,0.6-0.9,1.1-0.9c1.5,0.2,2.9,0.7,4.1,1.4c0.5,0.3,0.6,0.9,0.3,1.4
	C-165.4,475.2-165.8,475.4-166.1,475.4L-166.1,475.4z"/>
<path id="Fill-1_4_" sketch:type="MSShapeGroup" fill="#FFFFFF" d="M-176.9,579.9c-0.1-0.3-0.1-0.6-0.1-0.9c0-2.2,1.8-4,4-4
	c0.3,0,0.6,0,0.9,0.1l1.7-1.7c-0.8-0.3-1.7-0.4-2.6-0.4c-5,0-8.2,4.3-10,6c0.9,0.8,2,2.2,3.6,3.4L-176.9,579.9z M-166.6,575.6
	l-2.5,2.6c0.1,0.3,0.1,0.6,0.1,0.9c0,2.2-1.8,4-4,4c-0.3,0-0.6,0-0.9-0.1l-1.7,1.7c0.8,0.3,1.7,0.4,2.6,0.4c5,0,8.2-4.3,10-6
	C-163.9,578.2-165,576.8-166.6,575.6z M-166,571l-15,15l1,1l15-15L-166,571z"/>
<path id="Path-Copy-3" sketch:type="MSShapeGroup" fill="#FFFFFF" d="M-173,109v-2h2v-2h-2v-2l-4,3L-173,109z"/>
<path id="Imported-Layers-Copy-3_1_" sketch:type="MSShapeGroup" fill="#777777" d="M-181,933c-1.1,0-2,0.9-2,2v12c0,1.1,0.9,2,2,2
	h16c1.1,0,2-0.9,2-2v-12c0-1.1-0.9-2-2-2H-181z M-164.7,934l-7.9,8.9c-0.2,0.2-0.5,0.2-0.7,0l-7.9-8.9c0.1,0,0.2,0,0.3,0h16
	C-164.9,934-164.8,934-164.7,934z M-165,948h-16c-0.6,0-1-0.4-1-1v-12c0-0.1,0-0.2,0-0.3l7.9,8.9c0.3,0.3,0.7,0.4,1.1,0.4
	s0.8-0.1,1.1-0.4l7.9-8.9c0,0.1,0,0.2,0,0.3v12C-164,947.6-164.4,948-165,948z"/>
<path id="Fill-9-Copy-10" sketch:type="MSShapeGroup" opacity="0.7" fill="#D90007" enable-background="new    " d="M-181,901
	c0,4.4,3.6,8,8,8s8-3.6,8-8s-3.6-8-8-8S-181,896.6-181,901L-181,901z M-178,900h10v2h-10V900z"/>
<path id="Imported-Layers-Copy-2_1_" sketch:type="MSShapeGroup" fill="#777777" d="M40.2,791.2L-64.7,618.9c-1.6-2.6-5.3-2.6-6.8,0
	l-104.9,172.3c-1.6,2.7,0.3,6.1,3.4,6.1H36.8C39.9,797.3,41.8,793.9,40.2,791.2L40.2,791.2z M-173,793.3L-68.1,621L36.8,793.3H-173
	L-173,793.3z"/>
<g id="Fill-1-_x2B_-Fill-2-_x2B_-Fill-3-Copy" transform="translate(0.000000, 589.000000)" sketch:type="MSLayerGroup">
	<path id="Fill-1_6_" sketch:type="MSShapeGroup" fill="#FFFFFF" d="M-176.7,626.6v-0.2c0-0.8,0.6-1.2,1.2-1.2h0.2l3.1-3.2
		c-0.1,0-0.3,0-0.4,0c-2.4,0-4.6,0.6-6.9,1.3c-2.1,0.6-3,2.4-2.4,4.6c0.2,0.8,0.6,1.2,1.4,1.1l1.5-0.2L-176.7,626.6z"/>
	<path id="Fill-2_4_" sketch:type="MSShapeGroup" fill="#FFFFFF" d="M-166.9,622.9l-2.3,2.3c0.4,0.1,0.8,0.5,0.8,1.2
		c0,1.9,0.4,2.2,1.6,2.4c0.4,0.1,1.8,0.2,2.2,0.2c0.8,0.1,1.2-0.3,1.4-1.1c0.5-2.2-0.3-4-2.4-4.6C-166,623.1-166.4,623-166.9,622.9z
		"/>
	<path id="Fill-3_2_" sketch:type="MSShapeGroup" fill="#FFFFFF" d="M-164.3,617.3c-0.5-0.4-1.2-0.4-1.7,0l-14.7,14.7
		c-0.4,0.4-0.4,1.2,0,1.6c0.2,0.2,0.5,0.3,0.8,0.3c0.3,0,0.6-0.1,0.8-0.3l14.7-14.7C-163.9,618.5-163.9,617.8-164.3,617.3z"/>
</g>
<g id="Fill-1-_x2B_-Fill-2-Copy-2" transform="translate(1.000000, 530.000000)" sketch:type="MSLayerGroup">
	<path id="Fill-1_5_" sketch:type="MSShapeGroup" fill="#FFFFFF" d="M-177.3,628.3c-1.7-1.7-3-3.8-4.1-6c-1.1-2-0.5-3.9,1.5-5.1
		c0.7-0.4,1.3-0.4,1.8,0.2c0.2,0.3,1.2,1.4,1.4,1.8c0.8,1,0.8,1.6-0.6,2.9c-0.6,0.6-0.4,1.3,0,1.7l4.3,4.3c0.4,0.4,1.2,0.6,1.7,0
		c1.4-1.4,2-1.4,3-0.6c0.3,0.2,1.4,1.2,1.8,1.4c0.6,0.5,0.7,1.1,0.2,1.8c-1.2,2-3,2.6-5.1,1.5C-173.5,631.3-175.6,630.1-177.3,628.3
		"/>
	<path id="Fill-2_3_" sketch:type="MSShapeGroup" fill="#FFFFFF" d="M-168.8,622.2l-3.4,3.4l-2.5-2.5l3.4-3.4l-1.8-1.8h6v6
		L-168.8,622.2z"/>
</g>
<path id="Imported-Layers-5-Copy" sketch:type="MSShapeGroup" fill="#FFFFFF" d="M-172.5,1103c2.4,0,4.6,0.6,6.9,1.3
	c2.1,0.6,3,2.4,2.4,4.6c-0.2,0.8-0.6,1.2-1.4,1.1c-0.4,0-1.8-0.2-2.2-0.2c-1.2-0.2-1.6-0.4-1.6-2.4c0-0.8-0.6-1.2-1.2-1.2h-5.9
	c-0.6,0-1.2,0.4-1.2,1.2c0,1.9-0.4,2.2-1.6,2.4c-0.4,0.1-1.8,0.2-2.2,0.2c-0.8,0.1-1.2-0.3-1.4-1.1c-0.5-2.2,0.3-4,2.4-4.6
	C-177.1,1103.6-174.9,1103-172.5,1103"/>
<g id="reload-copy-7" transform="translate(1.000000, 235.000000)" sketch:type="MSLayerGroup">
	<path id="Fill-13" sketch:type="MSShapeGroup" fill="#777777" d="M-181.3,625.1c0.5,0.1,1-0.2,1.1-0.6c0.7-2.8,3.2-4.7,6-4.7
		c2.4,0,4.7,1.4,5.7,3.7c0,0-1.7,0.9-1.7,0.9l3.8,1.4l1.4-3.8c0,0-1.8,0.8-1.8,0.8c-1.3-2.9-4.2-4.7-7.3-4.7c-3.7,0-6.8,2.5-7.8,6
		C-182.1,624.5-181.8,624.9-181.3,625.1"/>
	<path id="Fill-14" sketch:type="MSShapeGroup" fill="#777777" d="M-167.9,627.6c-0.7,2.7-3.2,4.7-6,4.7c-2.4,0-4.7-1.4-5.7-3.7
		c0,0,1.7-0.9,1.7-0.9l-3.8-1.4l-1.4,3.8c0,0,1.8-0.8,1.8-0.8c1.3,2.9,4.2,4.7,7.3,4.7c3.7,0,6.8-2.5,7.7-6c0.1-0.5-0.2-1-0.6-1.1
		C-167.3,626.8-167.8,627.1-167.9,627.6z"/>
</g>
<path id="Imported-Layers-3-Copy" sketch:type="MSShapeGroup" fill="#FFFFFF" d="M-176.3,1060.3c-1.7-1.7-3-3.8-4.1-6
	c-1.1-2-0.5-3.9,1.5-5.1c0.7-0.4,1.3-0.4,1.8,0.2c0.2,0.3,1.2,1.4,1.4,1.8c0.8,1,0.8,1.6-0.6,3c-0.6,0.6-0.4,1.3,0,1.7l4.3,4.3
	c0.4,0.4,1.2,0.6,1.7,0c1.4-1.4,2-1.4,2.9-0.6c0.3,0.2,1.4,1.2,1.8,1.4c0.6,0.5,0.7,1.1,0.2,1.8c-1.2,2-3,2.6-5.1,1.5
	C-172.5,1063.3-174.6,1062.1-176.3,1060.3"/>
<path id="Fill-53-Copy-3" sketch:type="MSShapeGroup" fill="#2BA6DE" d="M-177.7,1003.7c-0.9-0.9-1.5-1.9-2.1-3
	c-0.6-1-0.3-1.9,0.8-2.5c0.4-0.2,0.6-0.2,0.9,0.1c0.1,0.2,0.6,0.7,0.7,0.9c0.4,0.5,0.4,0.8-0.3,1.5c-0.3,0.3-0.2,0.6,0,0.9l2.2,2.2
	c0.2,0.2,0.6,0.3,0.9,0c0.7-0.7,1-0.7,1.5-0.3c0.2,0.1,0.7,0.6,0.9,0.7c0.3,0.3,0.3,0.6,0.1,0.9c-0.6,1-1.5,1.3-2.5,0.8
	C-175.8,1005.1-176.8,1004.5-177.7,1003.7L-177.7,1003.7z"/>
<path id="Fill-1_7_" sketch:type="MSShapeGroup" fill="#777777" d="M-181,1282h14v9h-14V1282z M-167,1280h-14c-1.1,0-2,0.9-2,2v9
	c0,1.1,0.9,2,2,2h4v1l-4,1v1h14v-1l-4-1v-1h4c1.1,0,2-0.9,2-2v-9C-165,1280.9-165.9,1280-167,1280L-167,1280z M-166,1291
	c0,0.6-0.4,1-1,1h-14c-0.6,0-1-0.4-1-1v-9c0-0.6,0.4-1,1-1h14c0.6,0,1,0.4,1,1V1291L-166,1291z"/>
<path opacity="0.7" fill="#FFFFFF" enable-background="new    " d="M-36.6,1421.4l-17.9-17.9c-0.3-0.3-0.4-0.9-0.1-1.3
	c2.9-4.1,4.6-9.2,4.5-14.6c-0.2-13.4-11-24.3-24.4-24.6c-14.2-0.3-25.7,11.3-25.4,25.4c0.3,13.4,11.2,24.3,24.6,24.4
	c5.4,0.1,10.5-1.6,14.6-4.5c0.4-0.3,0.9-0.2,1.3,0.1l17.9,17.9c0.8,0.8,2,0.8,2.8,0l2.2-2.2C-35.8,1423.5-35.8,1422.2-36.6,1421.4z
	 M-75.1,1408.4c-11.3,0-20.4-9.2-20.4-20.4s9.2-20.4,20.4-20.4c11.3,0,20.4,9.2,20.4,20.4S-63.8,1408.4-75.1,1408.4z"/>
<path id="Fill-2-Copy-2" sketch:type="MSShapeGroup" fill="#777777" d="M-168.7,1471.1c-0.2-0.2-0.6-0.3-0.9-0.1l-0.9-0.9
	c0.8-1.1,1.3-2.5,1.3-4.1c0-3.8-3.1-6.9-6.9-6.9c-3.8,0-6.9,3.1-6.9,6.9c0,3.8,3.1,6.9,6.9,6.9c1.5,0,2.9-0.5,4.1-1.3l0.9,0.9
	c-0.1,0.3-0.1,0.6,0.1,0.9l3.5,3.5c0.3,0.3,0.8,0.3,1.1,0l1.2-1.2c0.3-0.3,0.3-0.8,0-1.1L-168.7,1471.1z M-181,1466c0-2.8,2.2-5,5-5
	s5,2.2,5,5s-2.2,5-5,5S-181,1468.8-181,1466L-181,1466z"/>
<path fill="#777777" d="M-174,1499c-5,0-9,4-9,9s4,9,9,9s9-4,9-9S-169,1499-174,1499z M-174,1513l-5-5l1-1l3,3v-7h2v7l3-3l1,1
	L-174,1513z"/>
<g id="Imported-Layers-5-Copy_1_" transform="translate(2.000000, 179.000000)" sketch:type="MSLayerGroup">
	<path id="Fill-1_9_" sketch:type="MSShapeGroup" fill="#777777" d="M-177.9,1370.9c1.4,1.4,4.4,1.5,5.9,0.1l2.9-2.9
		c1.6-1.6,1.5-4.2-0.1-5.9c-1.6-1.7-4.3-1.7-5.9-0.1l-2.3,2.3c0.8,0,1.7,0.1,2.5,0.5l1.2-1.2c0.8-0.8,2.1-0.8,2.9,0.1
		c0.8,0.8,0.8,2.1,0.1,2.9l-2.9,2.9c-0.8,0.8-2.4,0.5-3.4,0.5L-177.9,1370.9"/>
	<path id="Fill-2_6_" sketch:type="MSShapeGroup" fill="#777777" d="M-174.1,1367.1c-1.4-1.4-4.5-1.5-5.9-0.1l-2.9,2.9
		c-1.6,1.6-1.5,4.2,0.1,5.9c1.6,1.7,4.3,1.7,5.9,0.1l2.3-2.3c-0.8,0-1.7-0.1-2.5-0.5l-1.2,1.2c-0.8,0.8-2.1,0.8-2.9-0.1
		c-0.8-0.8-0.8-2.1-0.1-2.9l2.9-2.9c0.6-0.6,1.5-0.5,3.4-0.5c0,0,0,0,0,0L-174.1,1367.1"/>
</g>
<path id="Fill-2-Copy-3" sketch:type="MSShapeGroup" fill="#FFFFFF" d="M-168.7,1591.1c-0.2-0.2-0.6-0.3-0.9-0.1l-0.9-0.9
	c0.8-1.1,1.3-2.5,1.3-4.1c0-3.8-3.1-6.9-6.9-6.9c-3.8,0-6.9,3.1-6.9,6.9c0,3.8,3.1,6.9,6.9,6.9c1.5,0,2.9-0.5,4.1-1.3l0.9,0.9
	c-0.1,0.3-0.1,0.6,0.1,0.9l3.5,3.5c0.3,0.3,0.8,0.3,1.1,0l1.2-1.2c0.3-0.3,0.3-0.8,0-1.1L-168.7,1591.1z M-181,1586c0-2.8,2.2-5,5-5
	s5,2.2,5,5s-2.2,5-5,5S-181,1588.8-181,1586L-181,1586z"/>
<path fill="#FFFFFF" d="M-174,1619c-5,0-9,4-9,9s4,9,9,9s9-4,9-9S-169,1619-174,1619z M-174,1633l-5-5l1-1l3,3v-7h2v7l3-3l1,1
	L-174,1633z"/>
<g id="Imported-Layers-5-Copy-2" transform="translate(2.000000, 299.000000)" sketch:type="MSLayerGroup">
	<path id="Fill-1_8_" sketch:type="MSShapeGroup" fill="#FFFFFF" d="M-177.9,1370.9c1.4,1.4,4.4,1.5,5.9,0.1l2.9-2.9
		c1.6-1.6,1.5-4.2-0.1-5.9c-1.6-1.7-4.3-1.7-5.9-0.1l-2.3,2.3c0.8,0,1.7,0.1,2.5,0.5l1.2-1.2c0.8-0.8,2.1-0.8,2.9,0.1
		c0.8,0.8,0.8,2.1,0.1,2.9l-2.9,2.9c-0.8,0.8-2.4,0.5-3.4,0.5L-177.9,1370.9"/>
	<path id="Fill-2_5_" sketch:type="MSShapeGroup" fill="#FFFFFF" d="M-174.1,1367.1c-1.4-1.4-4.5-1.5-5.9-0.1l-2.9,2.9
		c-1.6,1.6-1.5,4.2,0.1,5.9c1.6,1.7,4.3,1.7,5.9,0.1l2.3-2.3c-0.8,0-1.7-0.1-2.5-0.5l-1.2,1.2c-0.8,0.8-2.1,0.8-2.9-0.1
		c-0.8-0.8-0.8-2.1-0.1-2.9l2.9-2.9c0.6-0.6,1.5-0.5,3.4-0.5c0,0,0,0,0,0L-174.1,1367.1"/>
</g>
<path opacity="5.000000e-02" enable-background="new    " d="M-174.5,167.9c0.6-0.6,1.5-0.6,2.1,0l4,4.1c1.2,1.2,3.6,3.1,5.6,3.6
	l0.3-0.9h0.6c-1.8,0-4.5-2.1-5.8-3.4l-4-4.1c-0.9-1-2.6-1-3.5,0l-4,4.1c-1.4,1.4-4,3.4-5.8,3.4h0.6l0.6,0.8c2-0.6,4.1-2.4,5.3-3.5
	L-174.5,167.9z"/>
<path fill="#FFFFFF" d="M-162,177h6l-6.2-1.3c-0.1,0-0.3-0.1-0.5-0.1c-2.1-0.5-4.4-2.4-5.6-3.6l-4-4.1c-0.6-0.6-1.5-0.6-2.1,0
	l-4,4.1c-1.1,1.1-3.3,2.9-5.3,3.5c-0.3,0.1-0.6,0.1-0.8,0.2l-1.6,0.5v0.7l1.3,0H-162z"/>
<line fill="none" x1="-185" y1="193.9" x2="-184.6" y2="193.9"/>
<line fill="none" x1="-161.4" y1="193.7" x2="-161.8" y2="193.7"/>
<path fill="#FFFFFF" d="M-184.6,193.9c0.3,0,0.7,0.1,1.1,0.2l0.2-0.2H-184.6z"/>
<path fill="#FFFFFF" d="M-161.8,193.7h-0.9l0,0.1C-162.4,193.7-162.1,193.7-161.8,193.7z"/>
<path opacity="5.000000e-02" enable-background="new    " d="M-162.7,193.7l0-0.1c-0.1,0-0.3,0.1-0.4,0.1H-162.7z"/>
<path opacity="5.000000e-02" enable-background="new    " d="M-183.4,193.9L-183.4,193.9L-183.4,193.9
	C-183.3,193.9-183.3,193.9-183.4,193.9z"/>
<path fill="#FFFFFF" d="M-174-112c-5,0-9,4-9,9s4,9,9,9s9-4,9-9S-169-112-174-112z M-170-102l-3-3v7h-2v-7l-3,3l-1-1l5-5l5,5
	L-170-102z"/>
<g enable-background="new    ">
	<path opacity="7.000000e-02" enable-background="new    " d="M-173.4,202.5c-0.5,0-1-0.2-1.4-0.6l-4-4.1c-1.2-1.2-3.3-2.8-5.1-3.4
		c-0.3-0.1-0.5-0.1-0.7-0.2l-2-0.6V193l35.6,0l-11.1,1.3c-0.1,0-0.2,0-0.3,0.1l-0.1,0c-2,0.5-4.3,2.4-5.4,3.5l-4,4.1
		C-172.4,202.3-172.9,202.5-173.4,202.5z M-186,193.1L-186,193.1c0.3,0,2.1,0.4,2.4,0.5c2,0.6,4.2,2.3,5.5,3.6l4,4.1
		c0.4,0.4,1,0.4,1.4,0l4-4.1c1.4-1.4,3.8-3.3,5.9-3.7l0.1,0c0.1,0,1.6-0.3,1.8-0.4l0,0"/>
</g>
<path fill="#FFFFFF" d="M-162,191.9h6l-6.2,1.3c-0.1,0-0.3,0.1-0.5,0.1c-2.1,0.5-4.4,2.4-5.6,3.6l-4,4.1c-0.6,0.6-1.5,0.6-2.1,0
	l-4-4.1c-1.1-1.1-3.3-2.9-5.3-3.5c-0.3-0.1-0.6-0.1-0.8-0.2l-1.6-0.5v-0.7l1.3,0L-162,191.9L-162,191.9z"/>
<path fill="#333333" d="M-174,1709c-5,0-9,4-9,9s4,9,9,9s9-4,9-9S-169,1709-174,1709z M-174,1723l-5-5l1-1l3,3v-7h2v7l3-3l1,1
	L-174,1723z"/>
<g id="Imported-Layers-5-Copy_2_" transform="translate(2.000000, 179.000000)" sketch:type="MSLayerGroup">
	<path id="Fill-1_10_" sketch:type="MSShapeGroup" fill="#333333" d="M-177.9,1580.9c1.4,1.4,4.4,1.5,5.9,0.1l2.9-2.9
		c1.6-1.6,1.5-4.2-0.1-5.9c-1.6-1.7-4.3-1.7-5.9-0.1l-2.3,2.3c0.8,0,1.7,0.1,2.5,0.5l1.2-1.2c0.8-0.8,2.1-0.8,2.9,0.1
		c0.8,0.8,0.8,2.1,0.1,2.9l-2.9,2.9c-0.8,0.8-2.4,0.5-3.4,0.5L-177.9,1580.9"/>
	<path id="Fill-2_7_" sketch:type="MSShapeGroup" fill="#333333" d="M-174.1,1577.1c-1.4-1.4-4.5-1.5-5.9-0.1l-2.9,2.9
		c-1.6,1.6-1.5,4.2,0.1,5.9c1.6,1.7,4.3,1.7,5.9,0.1l2.3-2.3c-0.8,0-1.7-0.1-2.5-0.5l-1.2,1.2c-0.8,0.8-2.1,0.8-2.9-0.1
		c-0.8-0.8-0.8-2.1-0.1-2.9l2.9-2.9c0.6-0.6,1.5-0.5,3.4-0.5c0,0,0,0,0,0L-174.1,1577.1"/>
</g>
<g id="ic_chat_1_" transform="translate(4.000000, 1744.000000)" sketch:type="MSLayerGroup">
	<path id="Fill-80_1_" sketch:type="MSShapeGroup" opacity="0.7" fill="#FFFFFF" enable-background="new    " d="M-169.1,140.8
		c-0.5-0.1-0.8-0.5-0.8-0.9c0-0.1,0.1-0.2,0.1-0.2c1-0.6,1.8-1.5,1.8-2.6c0.1-2.3-2.1-4.1-4.3-4.7c0.1,1.7-0.4,3.3-1.4,4.6
		c-0.9,1.1-2.2,1.9-3.7,2.4c0.8,0.7,1.9,1.2,3.1,1.2c0.7,0.1,1.5,0,2.2-0.1c0.8,0.6,2,0.7,2.9,0.6
		C-168.8,141-168.9,140.8-169.1,140.8"/>
	<path id="Fill-81_1_" sketch:type="MSShapeGroup" fill="#FFFFFF" d="M-173.9,131.2c-0.8-3.6-4.4-4.7-7.8-4
		c-3.2,0.7-6.4,3.1-6.3,6.4c0,1.5,1,2.7,2.4,3.5c0.1,0.1,0.2,0.2,0.2,0.3c0,0.6-0.5,1.1-1.1,1.2c-0.3,0.1-0.4,0.2,0,0.3
		c1.3,0.1,2.8,0,3.9-0.8c1,0.1,2,0.2,2.9,0.1C-175.7,138-173,135.1-173.9,131.2"/>
</g>
<path id="Fill-57-Copy-2" sketch:type="MSShapeGroup" fill="#777777" d="M-183,1918c0,5,4,9,9,9s9-4,9-9s-4-9-9-9
	S-183,1913-183,1918L-183,1918z M-175,1913h2v4h4v2h-4v4h-2v-4h-4v-2h4V1913L-175,1913z"/>
<path id="Fill-57-Copy-2_1_" sketch:type="MSShapeGroup" fill="#FFFFFF" d="M-183,1958c0,5,4,9,9,9s9-4,9-9s-4-9-9-9
	S-183,1953-183,1958L-183,1958z M-175,1953h2v4h4v2h-4v4h-2v-4h-4v-2h4V1953L-175,1953z"/>
<g id="ic_chat_2_" transform="translate(4.000000, 1744.000000)" sketch:type="MSLayerGroup">
	<path id="Fill-80_2_" sketch:type="MSShapeGroup" opacity="0.7" fill="#333333" enable-background="new    " d="M-169.1,60.8
		c-0.5-0.1-0.8-0.5-0.8-0.9c0-0.1,0.1-0.2,0.1-0.2c1-0.6,1.8-1.5,1.8-2.6c0.1-2.3-2.1-4.1-4.3-4.7c0.1,1.7-0.4,3.3-1.4,4.6
		c-0.9,1.1-2.2,1.9-3.7,2.4c0.8,0.7,1.9,1.2,3.1,1.2c0.7,0.1,1.5,0,2.2-0.1c0.8,0.6,2,0.7,2.9,0.6C-168.8,61-168.9,60.8-169.1,60.8"
		/>
	<path id="Fill-81_2_" sketch:type="MSShapeGroup" fill="#333333" d="M-173.9,51.2c-0.8-3.6-4.4-4.7-7.8-4c-3.2,0.7-6.4,3.1-6.3,6.4
		c0,1.5,1,2.7,2.4,3.5c0.1,0.1,0.2,0.2,0.2,0.3c0,0.6-0.5,1.1-1.1,1.2c-0.3,0.1-0.4,0.2,0,0.3c1.3,0.1,2.8,0,3.9-0.8
		c1,0.1,2,0.2,2.9,0.1C-175.7,58-173,55.1-173.9,51.2"/>
</g>
<g id="Imported-Layers-Copy_2_" transform="translate(42.000000, 4230.000000)" sketch:type="MSLayerGroup" opacity="0.6">
	<g id="Imported-Layers_5_" sketch:type="MSShapeGroup">
		<path id="Fill-1_16_" fill="#333333" d="M-186-2250c4.4,0,8,3.6,8,8c0,4.4-3.6,8-8,8s-8-3.6-8-8C-194-2246.4-190.4-2250-186-2250
			 M-186-2252c-5.5,0-10,4.5-10,10c0,5.5,4.5,10,10,10s10-4.5,10-10C-176-2247.5-180.5-2252-186-2252"/>
		<path id="Fill-2_9_" fill="#999999" d="M-181.2-2240c-0.5,2.3-2.5,4-4.9,4c-2.4,0-4.4-1.7-4.9-4H-181.2 M-180-2241h-12.2l0.2,1.2
			c0.6,2.8,3,4.8,5.9,4.8c2.8,0,5.3-2,5.9-4.8L-180-2241"/>
		<path id="Fill-3_4_" fill="#333333" d="M-181-2240c-0.5,2.3-2.5,4-5,4s-4.5-1.7-5-4H-181 M-192-2241l0,1.2c0.6,2.8,3.1,4.8,6,4.8
			s5.4-2,6-4.8l0-1.2H-192"/>
		<path id="Fill-4_3_" fill="#333333" d="M-180-2243.5c0,0.8-0.7,1.5-1.5,1.5s-1.5-0.7-1.5-1.5c0-0.8,0.7-1.5,1.5-1.5
			S-180-2244.3-180-2243.5"/>
		<path id="Fill-5_3_" fill="#333333" d="M-189-2243.5c0,0.8-0.7,1.5-1.5,1.5s-1.5-0.7-1.5-1.5c0-0.8,0.7-1.5,1.5-1.5
			S-189-2244.3-189-2243.5"/>
		<path id="Fill-6_3_" fill="#333333" d="M-182-2237h-8l-1-2h10L-182-2237"/>
	</g>
</g>
<g id="Imported-Layers-Copy_1_" transform="translate(42.000000, 4280.000000)" sketch:type="MSLayerGroup">
	<g id="Imported-Layers_4_" sketch:type="MSShapeGroup">
		<path id="Fill-1_15_" fill="#FFFFFF" d="M-186-2270c4.4,0,8,3.6,8,8c0,4.4-3.6,8-8,8s-8-3.6-8-8C-194-2266.4-190.4-2270-186-2270
			 M-186-2272c-5.5,0-10,4.5-10,10c0,5.5,4.5,10,10,10s10-4.5,10-10C-176-2267.5-180.5-2272-186-2272"/>
		<path id="Fill-2_8_" fill="#999999" d="M-181.2-2260c-0.5,2.3-2.5,4-4.9,4c-2.4,0-4.4-1.7-4.9-4H-181.2 M-180-2261h-12.2l0.2,1.2
			c0.6,2.8,3,4.8,5.9,4.8c2.8,0,5.3-2,5.9-4.8L-180-2261"/>
		<path id="Fill-3_3_" fill="#FFFFFF" d="M-181-2260c-0.5,2.3-2.5,4-5,4s-4.5-1.7-5-4H-181 M-192-2261l0,1.2c0.6,2.8,3.1,4.8,6,4.8
			s5.4-2,6-4.8l0-1.2H-192"/>
		<path id="Fill-4_2_" fill="#FFFFFF" d="M-180-2263.5c0,0.8-0.7,1.5-1.5,1.5s-1.5-0.7-1.5-1.5c0-0.8,0.7-1.5,1.5-1.5
			S-180-2264.3-180-2263.5"/>
		<path id="Fill-5_2_" fill="#FFFFFF" d="M-189-2263.5c0,0.8-0.7,1.5-1.5,1.5s-1.5-0.7-1.5-1.5c0-0.8,0.7-1.5,1.5-1.5
			S-189-2264.3-189-2263.5"/>
		<path id="Fill-6_2_" fill="#FFFFFF" d="M-182-2257h-8l-1-2h10L-182-2257"/>
	</g>
</g>
<path id="Fill-1_14_" sketch:type="MSShapeGroup" fill="#FFFFFF" d="M-173,2017v-3h-2v3c0,1.1,0.9,2,2,2h5v-2H-173 M-174,2008
	c-5.5,0-10,4.5-10,10s4.5,10,10,10s10-4.5,10-10S-168.5,2008-174,2008L-174,2008z M-174,2026c-4.4,0-8-3.6-8-8s3.6-8,8-8s8,3.6,8,8
	S-169.6,2026-174,2026L-174,2026z"/>
<path id="Fill-1_13_" sketch:type="MSShapeGroup" fill="#FFFFFF" d="M-114,2013c-2.8,0-5,2.2-5,5s2.2,5,5,5s5-2.2,5-5
	S-111.2,2013-114,2013L-114,2013z M-114,2021c-1.7,0-3-1.3-3-3s1.3-3,3-3s3,1.3,3,3S-112.3,2021-114,2021z M-121,2018
	c0-0.3,0-0.7,0.1-1h-4.1v2h4.1C-121,2018.7-121,2018.3-121,2018z M-113,2011.1v-4.1h-2v4.1c0.3,0,0.7-0.1,1-0.1
	S-113.3,2011-113,2011.1z M-107.1,2017c0,0.3,0.1,0.7,0.1,1s0,0.7-0.1,1h4.1v-2H-107.1z M-115,2024.9v4.1h2v-4.1
	c-0.3,0-0.7,0.1-1,0.1S-114.7,2025-115,2024.9z M-119.6,2022.2l-2.9,2.9l1.4,1.4l2.9-2.9c-0.3-0.2-0.5-0.4-0.8-0.7
	C-119.2,2022.7-119.4,2022.5-119.6,2022.2z M-118.9,2013c0.2-0.2,0.5-0.5,0.8-0.7l-2.9-2.9l-1.4,1.4l2.9,2.9
	C-119.4,2013.5-119.2,2013.3-118.9,2013z M-108.4,2013.8l2.9-2.9l-1.4-1.4l-2.9,2.9c0.3,0.2,0.5,0.4,0.8,0.7
	C-108.8,2013.3-108.6,2013.5-108.4,2013.8z M-109.1,2022.9c-0.2,0.2-0.5,0.5-0.8,0.7l2.9,2.9l1.4-1.4l-2.9-2.9
	C-108.6,2022.5-108.8,2022.7-109.1,2022.9z"/>
<path id="Fill-10" sketch:type="MSShapeGroup" fill="#FFFFFF" d="M-88,2012l4,4l4-4H-88 M-73,2009h-22l10,10v6c0,0.6-0.4,1-1,1h-3v1
	h10v-1h-3c-0.6,0-1-0.4-1-1v-6L-73,2009L-73,2009z M-92,2010h16l-7,7h-2L-92,2010L-92,2010z"/>
<path id="Fill-12" sketch:type="MSShapeGroup" fill="#FFFFFF" d="M-63,2020h8v8h-8V2020z M-64,2015h9v4h-9V2015z M-53,2015h9v4h-9
	V2015z M-53,2020h8v8h-8V2020z M-58,2008c-1.7,0-3,1.3-3,3s1.3,3,3,3h3v-3C-55,2009.3-56.3,2008-58,2008z M-56,2013h-1.5
	c-0.8,0-1.5-0.7-1.5-1.5s0.7-1.5,1.5-1.5s1.5,0.7,1.5,1.5V2013z M-47,2011c0-1.7-1.3-3-3-3s-3,1.3-3,3v3h3
	C-48.3,2014-47,2012.7-47,2011z M-52,2013v-1.5c0-0.8,0.7-1.5,1.5-1.5s1.5,0.7,1.5,1.5s-0.7,1.5-1.5,1.5H-52L-52,2013z"/>
<path id="Fill-18" sketch:type="MSShapeGroup" fill="#FFFFFF" d="M-26.6,2017c0-1,0.6-1.7,1.5-2.1l0,0c-0.9-0.4-1.2-1.1-1.2-1.8
	c0-1.2,1-2.1,2.4-2.1c1.5,0,2.3,0.9,2.3,1.9c0,0.7-0.3,1.4-1.3,1.8v0c1,0.4,1.6,1.1,1.6,2c0,1.4-1.2,2.3-2.7,2.3
	C-25.6,2019.1-26.6,2018.2-26.6,2017L-26.6,2017z M-25.3,2013.1c0,0.8,0.6,1.2,1.5,1.4c0.7-0.2,1.2-0.7,1.2-1.4
	c0-0.6-0.4-1.3-1.3-1.3C-24.8,2011.8-25.3,2012.4-25.3,2013.1L-25.3,2013.1z M-22.4,2017c0-0.9-0.7-1.4-1.7-1.7
	c-0.9,0.3-1.4,0.9-1.4,1.6c0,0.8,0.6,1.5,1.6,1.5C-23,2018.4-22.4,2017.8-22.4,2017L-22.4,2017z M-24,2008c-5.5,0-10,4.5-10,10
	s4.5,10,10,10s10-4.5,10-10S-18.5,2008-24,2008L-24,2008z M-24,2020c-2.8,0-5-2.2-5-5s2.2-5,5-5c2.8,0,5,2.2,5,5S-21.2,2020-24,2020
	L-24,2020z"/>
<path id="Fill-20" sketch:type="MSShapeGroup" fill="#FFFFFF" d="M6,2008c-5.5,0-10,4.5-10,10c0,5.5,4.5,10,10,10s10-4.5,10-10
	C16,2012.5,11.5,2008,6,2008z M7.6,2012.9l0.2,0l-0.1,0.2H8l-0.1,0.2l0.5,0.5l0.2,0v0.3l-0.5,0.1l-0.3,0.1L8,2014h0.1l0-0.1l-0.3,0
	l0-0.2l0.2,0l0-0.2l-0.2,0l-0.2-0.3L7.6,2012.9L7.6,2012.9z M7.2,2013.6l0.2,0v-0.1l0.3,0l0.1,0.1l-0.1,0.1l0.1,0.1l-0.4,0.2
	l-0.1-0.1l0.1-0.2L7.2,2013.6L7.2,2013.6L7.2,2013.6z M3.9,2009.9l0.2-0.1l0.5,0.1l-0.2,0.1l-0.1,0.1l-0.4,0.1l-0.2,0l-0.2,0l0,0.1
	l-0.2,0.2l-0.4-0.1l0-0.1l0.2,0l0.2-0.2l0.4-0.1l-0.2,0l0-0.1H3.9L3.9,2009.9z M3,2010l0.4-0.1l-0.3,0.2l-0.3,0.1L3,2010L3,2010z
	 M2.7,2010.3l0,0.2l0.2,0.1l-0.2,0.1l-0.3-0.1L2.7,2010.3L2.7,2010.3z M2.3,2010.5l-0.1,0.2h0.4l-0.2,0.3l-0.5-0.2L2.3,2010.5
	L2.3,2010.5z M1.5,2011.1l0.4-0.2l0.2,0.1l-0.1,0.3l0.2-0.1l0.2,0.2l0.2,0.4l-0.2,0.2l0.2,0.2l0.1,0.2l-0.4,0.3l-0.1-0.3l-0.2,0.1
	l0.1,0.4l-0.1,0.2l-0.1-0.2l-0.2,0l0.1,0.2l0,0.2l-0.3-0.2l-0.1-0.3l-0.3,0l0.2-0.1l0.6,0v-0.2l0.1-0.2l-0.2-0.6l-0.3,0.2l-0.3-0.2
	L1.5,2011.1L1.5,2011.1z M0.4,2011.2c0.3-0.2,0.5-0.4,0.8-0.6l-0.2,0.2l0.2,0l-0.4,0.3l-0.1,0.2l-0.2,0.1l-0.2-0.1L0.4,2011.2
	L0.4,2011.2z M4.2,2023.9l-0.1,0.2l-0.1,0l0.1,0.5L4,2025l-0.3,0l-0.4,0.2l0.1,0.2l-0.1,0.5H3l0.2,0.1l0,0.1l-0.2,0l0,0.2l0.2,0.1
	l0.2,0.2l0.5,0.2c-0.3-0.1-0.5-0.1-0.8-0.2l-0.3-0.2l-0.6-0.5l-0.9-1l-0.5-0.7l-0.5-0.3l-1.1-1.2l0-0.2l-0.1-0.1l0.1-0.5l-0.2-0.6
	l0-0.4l0-0.1v-0.1l0-0.1l0,0.1l-0.1-0.1l-0.1,0l-0.2-0.3l-0.1-0.2l-0.3-0.3l-0.5-0.5l-0.1,0l-0.3-0.4l-0.1-1.1l0,0
	c0-2.6,1.2-5,3-6.6l-0.1,0.1l0.1,0.1l0.1-0.1l0.2,0.2l0.3-0.1l0.2-0.2l0-0.2l0.4-0.2l-0.2,0.3l-0.1,0.1l-0.1,0.2l0,0.2l0.4-0.3
	l0-0.1l0.2,0.2l-0.4,0.3l-0.3,0l-0.2,0.2l-0.3,0.2l-0.2,0.1l-0.2,0.2l-0.5,0.4l0.1,0.2l-0.2,0.2l0.2,0.1l0.1,0.3l0.2,0.1l-0.2,0.5
	l0.1,0.2l0.2-0.1l0.1-0.4l0.3-0.1l0.2-0.2l0-0.2l0.2-0.2l0.2-0.4l0.1,0l0.1,0l0.2,0.1l0.1,0.2l0.1,0l-0.1,0.4l0.1,0.1l0.2-0.1
	l0.2-0.2l0.2,0.5l-0.1,0.1l0.2,0.2l0.3,0.1l-0.4,0.2l0.3,0l0.2,0.1l0,0.2l-0.3,0.1l-0.2,0.2l-0.9-0.1l-0.6,0.5l0.5-0.2l0.2,0
	l-0.2,0.1l0.1,0.3l0.4,0.2l-0.6,0.3c0,0,0.2-0.3,0.2-0.3c-0.1,0-0.6,0.2-0.6,0.2l-0.2,0.2l-0.1,0.2l-0.4,0.1l0,0.2l0,0l0.1,0.2v0.3
	l-0.4,0.2l-0.5,0.3L-1,2018l0,0.6l-0.3-0.4l0-0.3l-0.2-0.1l-0.4-0.2l0,0.2l-0.3-0.1l-0.2,0.2l-0.1,0.8l0.2,0.6l0.1,0.2l0.2-0.1v-0.3
	l0.3,0l-0.1,0.7l0.4,0.1l0.1,0.7l0.3,0.3l0.2,0l0.2,0.2l0.1,0.4l0.1,0l0-0.2l0.1,0l0.5,0.2l0.3,0l0.3,0.2l-0.1,0.1l0.3,0l0.3,0.3
	l0.5,0.1l0.5,0.6l-0.2,0.3l0.4,0.1l0.2-0.2l0.4,0.2l0,0.1l0.2-0.1l0.2,0.1h0.3l0.3,0.3l0.2,0.1l0.2,0.3L4.2,2023.9L4.2,2023.9z
	 M0.9,2012.3l0,0.3l-0.2,0l-0.2-0.1l0.2-0.2H0.9L0.9,2012.3z M2.6,2015.2l-0.2,0.2l-0.6-0.1l0.5-0.5L2.6,2015.2L2.6,2015.2z
	 M0.6,2019.8H0.4l0-0.1h0.2L0.6,2019.8L0.6,2019.8z M0.2,2019.7h-0.4l-0.1-0.2l0.3,0L0.2,2019.7L0.2,2019.7z M-0.4,2019.3l-0.4,0
	l-0.5-0.4l-0.2,0.1v-0.1l0.2,0L-0.4,2019.3L-0.4,2019.3z M5.8,2011l0.3,0l-0.1,0.2l-0.3,0.3l-0.1,0l-0.1,0.3l-0.3,0.2l-0.1-0.1
	l-0.3,0.3l0.1,0.1l-0.3,0.3l0,0.2l-0.1,0.3l-0.3,0.1l-0.1-0.2l-0.3,0.1l-0.3-0.3l-0.1-0.4l0.2,0l-0.1-0.1l-0.1,0.1l0-0.3l0.2-0.1
	l0.3-0.5l0-0.3l-0.2,0.1l0.2-0.2l0.2-0.5l-0.2-0.1l0.1-0.1l0.2-0.1l0.4-0.2l0.3-0.2l0.4,0.1l0.3,0.1h0.3l-0.1,0.1l0.2,0.2l0,0.2
	l-0.2,0l0.2,0.1l0.2,0l0.1,0.1l-0.4,0L5.8,2011L5.8,2011z M3.5,2011.4l0.2-0.1l0,0.2l-0.2,0L3.5,2011.4L3.5,2011.4z M14.6,2018.2
	l-0.4,0.7l-0.1-0.1l-0.2-0.8l-0.6-1l0-0.2l-0.1,0.1l-0.2-0.2l0.4,0.8l0.4,1.1l0.2,0.2l0.1,0.4l0.4-0.3l-0.2,0.8l-0.4,0.8l-0.6,1
	l-0.1,0.6l-0.2,0.6l-0.7,0.5l0,0.1l-0.1,0.4l-0.3,0.2v0.2l-1.2,0.8l-0.6,0.1l-0.1-0.1l0.2-0.3l-0.1-0.5l0.1-0.4l-0.1-0.5l0.6-0.5
	l0.3-0.5v-0.3l-0.7-0.6l0.1-0.2l0-0.4l-0.2-0.2l-0.5,0.1l0-0.2l-0.2-0.1l-0.6,0.3l-0.4,0l-0.7,0.2l-0.8-0.5l0-0.2l-0.3-0.3l-0.1,0
	l-0.2-0.4l0.1-0.2l0.1-0.6l-0.1-0.2l0.5-1l0.1-0.2v-0.2l0.8-0.6l0.6,0l0.6-0.2l1.2-0.2l0.2,0.2l-0.1,0.4l0.5,0l0.8,0.4l0.1-0.4
	l1,0.1l0.5-0.1l-0.1-0.8l-0.3,0.1l-0.2-0.1l0,0.2l-0.4-0.3l-0.1-0.4l-0.2,0l-0.2,0.1l0.1,0.2l0.2,0.2l-0.1,0.2l-0.2,0l-0.1-0.3
	l-0.2-0.2l0-0.2l-0.5-0.2l-0.3-0.2l0-0.1l-0.2,0.1l0,0.1l0.4,0.4l0.2,0l0.1,0.2l0.3,0.1l0,0.1l-0.1-0.1l-0.1,0l0.1,0.2l-0.2,0.2
	l0,0.2l-0.3-0.2l0.3,0l0.1-0.1l-0.1-0.2l-0.6-0.2l-0.3-0.3l-0.2,0l-0.1,0.2l-0.2,0l-0.1-0.1l-0.1,0l0,0.2l-0.2,0.1l-0.2,0.3l0,0
	l-0.2,0.3H8.3l-0.3,0.2l-0.2-0.1l-0.2,0l0-0.2l-0.1,0l-0.1-0.1l0.1-0.2l0-0.2l-0.1-0.1l0.1,0l0.1-0.1l0.8,0l0.1-0.3l-0.2-0.3l-0.3,0
	v-0.2l0.3-0.1l0-0.3h0.2l0.3-0.1l0.2-0.3l0.4-0.2l-0.2-0.2l0.2-0.1l0,0.1l0.1,0.3l0.2,0l0.3,0l0.2-0.2l0.3,0l0.1-0.1l-0.1-0.2h0.1
	l0.1,0l0-0.2l-0.2-0.4l0.2-0.4h0.1l0.1,0.1l-0.3,0.1l-0.2,0.3l-0.4-0.4l0.1-0.4l-0.3-0.1l0,0.1l0.2,0.2l-0.2,0.3l0.1,0.2l0.2,0.1
	v0.2l-0.1,0l0.1,0.2l-0.1,0.2l-0.2,0.1l-0.1-0.2l-0.3-0.3l-0.2,0.2l-0.3-0.1l-0.2-0.5l0.3-0.3l0.1-0.3l0.1-0.6l0.4-0.3l0.6,0.2
	l0.5,0.1l0.3,0.2l-0.1,0.1l-0.3-0.1l0.2,0.3l0.4,0.3l-0.1,0h0.2l-0.1-0.4l0.1-0.2l-0.1-0.4l0.1-0.1l-0.1-0.2l0.1-0.1l0-0.1
	c2.2,1.4,3.7,3.7,4.1,6.4l-0.2,0l-0.1-0.2l-0.1,0.1l-0.3-0.4l-0.1,0.1l0.5,0.8l0.4-0.1v-0.3l0,0.3L14.6,2018.2L14.6,2018.2z"/>
<path id="Fill-23" sketch:type="MSShapeGroup" fill="#FFFFFF" d="M30.5,2008c-2.5,0-4.5,2-4.5,4.5s2,4.5,4.5,4.5s4.5-2,4.5-4.5
	S33,2008,30.5,2008L30.5,2008z M30.5,2015c-1.4,0-2.5-1.1-2.5-2.5s1.1-2.5,2.5-2.5s2.5,1.1,2.5,2.5S31.9,2015,30.5,2015z M41.5,2019
	c-2.5,0-4.5,2-4.5,4.5s2,4.5,4.5,4.5s4.5-2,4.5-4.5S44,2019,41.5,2019z M41.5,2026c-1.4,0-2.5-1.1-2.5-2.5s1.1-2.5,2.5-2.5
	s2.5,1.1,2.5,2.5S42.9,2026,41.5,2026z M27.7,2027.7l18-18c0.4-0.4,0.4-1,0-1.4c-0.4-0.4-1-0.4-1.4,0l-18,18c-0.4,0.4-0.4,1,0,1.4
	C26.7,2028.1,27.3,2028.1,27.7,2027.7z"/>
<path id="Fill-1_12_" sketch:type="MSShapeGroup" fill="#858585" d="M-173,1987v-3h-2v3c0,1.1,0.9,2,2,2h5v-2H-173 M-174,1978
	c-5.5,0-10,4.5-10,10s4.5,10,10,10s10-4.5,10-10S-168.5,1978-174,1978L-174,1978z M-174,1996c-4.4,0-8-3.6-8-8s3.6-8,8-8s8,3.6,8,8
	S-169.6,1996-174,1996L-174,1996z"/>
<path id="Fill-1_11_" sketch:type="MSShapeGroup" fill="#858585" d="M-114,1983c-2.8,0-5,2.2-5,5s2.2,5,5,5s5-2.2,5-5
	S-111.2,1983-114,1983L-114,1983z M-114,1991c-1.7,0-3-1.3-3-3s1.3-3,3-3s3,1.3,3,3S-112.3,1991-114,1991z M-121,1988
	c0-0.3,0-0.7,0.1-1h-4.1v2h4.1C-121,1988.7-121,1988.3-121,1988z M-113,1981.1v-4.1h-2v4.1c0.3,0,0.7-0.1,1-0.1
	S-113.3,1981-113,1981.1z M-107.1,1987c0,0.3,0.1,0.7,0.1,1s0,0.7-0.1,1h4.1v-2H-107.1z M-115,1994.9v4.1h2v-4.1
	c-0.3,0-0.7,0.1-1,0.1S-114.7,1995-115,1994.9z M-119.6,1992.2l-2.9,2.9l1.4,1.4l2.9-2.9c-0.3-0.2-0.5-0.4-0.8-0.7
	C-119.2,1992.7-119.4,1992.5-119.6,1992.2z M-118.9,1983c0.2-0.2,0.5-0.5,0.8-0.7l-2.9-2.9l-1.4,1.4l2.9,2.9
	C-119.4,1983.5-119.2,1983.3-118.9,1983z M-108.4,1983.8l2.9-2.9l-1.4-1.4l-2.9,2.9c0.3,0.2,0.5,0.4,0.8,0.7
	C-108.8,1983.3-108.6,1983.5-108.4,1983.8z M-109.1,1992.9c-0.2,0.2-0.5,0.5-0.8,0.7l2.9,2.9l1.4-1.4l-2.9-2.9
	C-108.6,1992.5-108.8,1992.7-109.1,1992.9z"/>
<path id="Fill-10_1_" sketch:type="MSShapeGroup" fill="#858585" d="M-88,1982l4,4l4-4H-88 M-73,1979h-22l10,10v6c0,0.6-0.4,1-1,1
	h-3v1h10v-1h-3c-0.6,0-1-0.4-1-1v-6L-73,1979L-73,1979z M-92,1980h16l-7,7h-2L-92,1980L-92,1980z"/>
<path id="Fill-12_1_" sketch:type="MSShapeGroup" fill="#858585" d="M-63,1990h8v8h-8V1990z M-64,1985h9v4h-9V1985z M-53,1985h9v4
	h-9V1985z M-53,1990h8v8h-8V1990z M-58,1978c-1.7,0-3,1.3-3,3s1.3,3,3,3h3v-3C-55,1979.3-56.3,1978-58,1978z M-56,1983h-1.5
	c-0.8,0-1.5-0.7-1.5-1.5s0.7-1.5,1.5-1.5s1.5,0.7,1.5,1.5V1983z M-47,1981c0-1.7-1.3-3-3-3s-3,1.3-3,3v3h3
	C-48.3,1984-47,1982.7-47,1981z M-52,1983v-1.5c0-0.8,0.7-1.5,1.5-1.5s1.5,0.7,1.5,1.5s-0.7,1.5-1.5,1.5H-52L-52,1983z"/>
<path id="Fill-18_1_" sketch:type="MSShapeGroup" fill="#858585" d="M-26.6,1987c0-1,0.6-1.7,1.5-2.1l0,0c-0.9-0.4-1.2-1.1-1.2-1.8
	c0-1.2,1-2.1,2.4-2.1c1.5,0,2.3,0.9,2.3,1.9c0,0.7-0.3,1.4-1.3,1.8v0c1,0.4,1.6,1.1,1.6,2c0,1.4-1.2,2.3-2.7,2.3
	C-25.6,1989.1-26.6,1988.2-26.6,1987L-26.6,1987z M-25.3,1983.1c0,0.8,0.6,1.2,1.5,1.4c0.7-0.2,1.2-0.7,1.2-1.4
	c0-0.6-0.4-1.3-1.3-1.3C-24.8,1981.8-25.3,1982.4-25.3,1983.1L-25.3,1983.1z M-22.4,1987c0-0.9-0.7-1.4-1.7-1.7
	c-0.9,0.3-1.4,0.9-1.4,1.6c0,0.8,0.6,1.5,1.6,1.5C-23,1988.4-22.4,1987.8-22.4,1987L-22.4,1987z M-24,1978c-5.5,0-10,4.5-10,10
	s4.5,10,10,10s10-4.5,10-10S-18.5,1978-24,1978L-24,1978z M-24,1990c-2.8,0-5-2.2-5-5s2.2-5,5-5c2.8,0,5,2.2,5,5S-21.2,1990-24,1990
	L-24,1990z"/>
<path id="Fill-20_1_" sketch:type="MSShapeGroup" fill="#858585" d="M6,1978c-5.5,0-10,4.5-10,10c0,5.5,4.5,10,10,10s10-4.5,10-10
	C16,1982.5,11.5,1978,6,1978z M7.6,1982.9l0.2,0l-0.1,0.2H8l-0.1,0.2l0.5,0.5l0.2,0v0.3l-0.5,0.1l-0.3,0.1L8,1984h0.1l0-0.1l-0.3,0
	l0-0.2l0.2,0l0-0.2l-0.2,0l-0.2-0.3L7.6,1982.9L7.6,1982.9z M7.2,1983.6l0.2,0v-0.1l0.3,0l0.1,0.1l-0.1,0.1l0.1,0.1l-0.4,0.2
	l-0.1-0.1l0.1-0.2L7.2,1983.6L7.2,1983.6L7.2,1983.6z M3.9,1979.9l0.2-0.1l0.5,0.1l-0.2,0.1l-0.1,0.1l-0.4,0.1l-0.2,0l-0.2,0l0,0.1
	l-0.2,0.2l-0.4-0.1l0-0.1l0.2,0l0.2-0.2l0.4-0.1l-0.2,0l0-0.1H3.9L3.9,1979.9z M3,1980l0.4-0.1l-0.3,0.2l-0.3,0.1L3,1980L3,1980z
	 M2.7,1980.3l0,0.2l0.2,0.1l-0.2,0.1l-0.3-0.1L2.7,1980.3L2.7,1980.3z M2.3,1980.5l-0.1,0.2h0.4l-0.2,0.3l-0.5-0.2L2.3,1980.5
	L2.3,1980.5z M1.5,1981.1l0.4-0.2l0.2,0.1l-0.1,0.3l0.2-0.1l0.2,0.2l0.2,0.4l-0.2,0.2l0.2,0.2l0.1,0.2l-0.4,0.3l-0.1-0.3l-0.2,0.1
	l0.1,0.4l-0.1,0.2l-0.1-0.2l-0.2,0l0.1,0.2l0,0.2l-0.3-0.2l-0.1-0.3l-0.3,0l0.2-0.1l0.6,0v-0.2l0.1-0.2l-0.2-0.6l-0.3,0.2l-0.3-0.2
	L1.5,1981.1L1.5,1981.1z M0.4,1981.2c0.3-0.2,0.5-0.4,0.8-0.6l-0.2,0.2l0.2,0l-0.4,0.3l-0.1,0.2l-0.2,0.1l-0.2-0.1L0.4,1981.2
	L0.4,1981.2z M4.2,1993.9l-0.1,0.2l-0.1,0l0.1,0.5L4,1995l-0.3,0l-0.4,0.2l0.1,0.2l-0.1,0.5H3l0.2,0.1l0,0.1l-0.2,0l0,0.2l0.2,0.1
	l0.2,0.2l0.5,0.2c-0.3-0.1-0.5-0.1-0.8-0.2l-0.3-0.2l-0.6-0.5l-0.9-1l-0.5-0.7l-0.5-0.3l-1.1-1.2l0-0.2l-0.1-0.1l0.1-0.5l-0.2-0.6
	l0-0.4l0-0.1v-0.1l0-0.1l0,0.1l-0.1-0.1l-0.1,0l-0.2-0.3l-0.1-0.2l-0.3-0.3l-0.5-0.5l-0.1,0l-0.3-0.4l-0.1-1.1l0,0
	c0-2.6,1.2-5,3-6.6l-0.1,0.1l0.1,0.1l0.1-0.1l0.2,0.2l0.3-0.1l0.2-0.2l0-0.2l0.4-0.2l-0.2,0.3l-0.1,0.1l-0.1,0.2l0,0.2l0.4-0.3
	l0-0.1l0.2,0.2l-0.4,0.3l-0.3,0l-0.2,0.2l-0.3,0.2l-0.2,0.1l-0.2,0.2l-0.5,0.4l0.1,0.2l-0.2,0.2l0.2,0.1l0.1,0.3l0.2,0.1l-0.2,0.5
	l0.1,0.2l0.2-0.1l0.1-0.4l0.3-0.1l0.2-0.2l0-0.2l0.2-0.2l0.2-0.4l0.1,0l0.1,0l0.2,0.1l0.1,0.2l0.1,0l-0.1,0.4l0.1,0.1l0.2-0.1
	l0.2-0.2l0.2,0.5l-0.1,0.1l0.2,0.2l0.3,0.1l-0.4,0.2l0.3,0l0.2,0.1l0,0.2l-0.3,0.1l-0.2,0.2l-0.9-0.1l-0.6,0.5l0.5-0.2l0.2,0
	l-0.2,0.1l0.1,0.3l0.4,0.2l-0.6,0.3c0,0,0.2-0.3,0.2-0.3c-0.1,0-0.6,0.2-0.6,0.2l-0.2,0.2l-0.1,0.2l-0.4,0.1l0,0.2l0,0l0.1,0.2v0.3
	l-0.4,0.2l-0.5,0.3L-1,1988l0,0.6l-0.3-0.4l0-0.3l-0.2-0.1l-0.4-0.2l0,0.2l-0.3-0.1l-0.2,0.2l-0.1,0.8l0.2,0.6l0.1,0.2l0.2-0.1v-0.3
	l0.3,0l-0.1,0.7l0.4,0.1l0.1,0.7l0.3,0.3l0.2,0l0.2,0.2l0.1,0.4l0.1,0l0-0.2l0.1,0l0.5,0.2l0.3,0l0.3,0.2l-0.1,0.1l0.3,0l0.3,0.3
	l0.5,0.1l0.5,0.6l-0.2,0.3l0.4,0.1l0.2-0.2l0.4,0.2l0,0.1l0.2-0.1l0.2,0.1h0.3l0.3,0.3l0.2,0.1l0.2,0.3L4.2,1993.9L4.2,1993.9z
	 M0.9,1982.3l0,0.3l-0.2,0l-0.2-0.1l0.2-0.2H0.9L0.9,1982.3z M2.6,1985.2l-0.2,0.2l-0.6-0.1l0.5-0.5L2.6,1985.2L2.6,1985.2z
	 M0.6,1989.8H0.4l0-0.1h0.2L0.6,1989.8L0.6,1989.8z M0.2,1989.7h-0.4l-0.1-0.2l0.3,0L0.2,1989.7L0.2,1989.7z M-0.4,1989.3l-0.4,0
	l-0.5-0.4l-0.2,0.1v-0.1l0.2,0L-0.4,1989.3L-0.4,1989.3z M5.8,1981l0.3,0l-0.1,0.2l-0.3,0.3l-0.1,0l-0.1,0.3l-0.3,0.2l-0.1-0.1
	l-0.3,0.3l0.1,0.1l-0.3,0.3l0,0.2l-0.1,0.3l-0.3,0.1l-0.1-0.2l-0.3,0.1l-0.3-0.3l-0.1-0.4l0.2,0l-0.1-0.1l-0.1,0.1l0-0.3l0.2-0.1
	l0.3-0.5l0-0.3l-0.2,0.1l0.2-0.2l0.2-0.5l-0.2-0.1l0.1-0.1l0.2-0.1l0.4-0.2l0.3-0.2l0.4,0.1l0.3,0.1h0.3l-0.1,0.1l0.2,0.2l0,0.2
	l-0.2,0l0.2,0.1l0.2,0l0.1,0.1l-0.4,0L5.8,1981L5.8,1981z M3.5,1981.4l0.2-0.1l0,0.2l-0.2,0L3.5,1981.4L3.5,1981.4z M14.6,1988.2
	l-0.4,0.7l-0.1-0.1l-0.2-0.8l-0.6-1l0-0.2l-0.1,0.1l-0.2-0.2l0.4,0.8l0.4,1.1l0.2,0.2l0.1,0.4l0.4-0.3l-0.2,0.8l-0.4,0.8l-0.6,1
	l-0.1,0.6l-0.2,0.6l-0.7,0.5l0,0.1l-0.1,0.4l-0.3,0.2v0.2l-1.2,0.8l-0.6,0.1l-0.1-0.1l0.2-0.3l-0.1-0.5l0.1-0.4l-0.1-0.5l0.6-0.5
	l0.3-0.5v-0.3l-0.7-0.6l0.1-0.2l0-0.4l-0.2-0.2l-0.5,0.1l0-0.2l-0.2-0.1l-0.6,0.3l-0.4,0l-0.7,0.2l-0.8-0.5l0-0.2l-0.3-0.3l-0.1,0
	l-0.2-0.4l0.1-0.2l0.1-0.6l-0.1-0.2l0.5-1l0.1-0.2v-0.2l0.8-0.6l0.6,0l0.6-0.2l1.2-0.2l0.2,0.2l-0.1,0.4l0.5,0l0.8,0.4l0.1-0.4
	l1,0.1l0.5-0.1l-0.1-0.8l-0.3,0.1l-0.2-0.1l0,0.2l-0.4-0.3l-0.1-0.4l-0.2,0l-0.2,0.1l0.1,0.2l0.2,0.2l-0.1,0.2l-0.2,0l-0.1-0.3
	l-0.2-0.2l0-0.2l-0.5-0.2l-0.3-0.2l0-0.1l-0.2,0.1l0,0.1l0.4,0.4l0.2,0l0.1,0.2l0.3,0.1l0,0.1l-0.1-0.1l-0.1,0l0.1,0.2l-0.2,0.2
	l0,0.2l-0.3-0.2l0.3,0l0.1-0.1l-0.1-0.2l-0.6-0.2l-0.3-0.3l-0.2,0l-0.1,0.2l-0.2,0l-0.1-0.1l-0.1,0l0,0.2l-0.2,0.1l-0.2,0.3l0,0
	l-0.2,0.3H8.3l-0.3,0.2l-0.2-0.1l-0.2,0l0-0.2l-0.1,0l-0.1-0.1l0.1-0.2l0-0.2l-0.1-0.1l0.1,0l0.1-0.1l0.8,0l0.1-0.3l-0.2-0.3l-0.3,0
	v-0.2l0.3-0.1l0-0.3h0.2l0.3-0.1l0.2-0.3l0.4-0.2l-0.2-0.2l0.2-0.1l0,0.1l0.1,0.3l0.2,0l0.3,0l0.2-0.2l0.3,0l0.1-0.1l-0.1-0.2h0.1
	l0.1,0l0-0.2l-0.2-0.4l0.2-0.4h0.1l0.1,0.1l-0.3,0.1l-0.2,0.3l-0.4-0.4l0.1-0.4l-0.3-0.1l0,0.1l0.2,0.2l-0.2,0.3l0.1,0.2l0.2,0.1
	v0.2l-0.1,0l0.1,0.2l-0.1,0.2l-0.2,0.1l-0.1-0.2l-0.3-0.3l-0.2,0.2l-0.3-0.1l-0.2-0.5l0.3-0.3l0.1-0.3l0.1-0.6l0.4-0.3l0.6,0.2
	l0.5,0.1l0.3,0.2l-0.1,0.1l-0.3-0.1l0.2,0.3l0.4,0.3l-0.1,0h0.2l-0.1-0.4l0.1-0.2l-0.1-0.4l0.1-0.1l-0.1-0.2l0.1-0.1l0-0.1
	c2.2,1.4,3.7,3.7,4.1,6.4l-0.2,0l-0.1-0.2l-0.1,0.1l-0.3-0.4l-0.1,0.1l0.5,0.8l0.4-0.1v-0.3l0,0.3L14.6,1988.2L14.6,1988.2z"/>
<path id="Fill-23_1_" sketch:type="MSShapeGroup" fill="#858585" d="M30.5,1978c-2.5,0-4.5,2-4.5,4.5s2,4.5,4.5,4.5s4.5-2,4.5-4.5
	S33,1978,30.5,1978L30.5,1978z M30.5,1985c-1.4,0-2.5-1.1-2.5-2.5s1.1-2.5,2.5-2.5s2.5,1.1,2.5,2.5S31.9,1985,30.5,1985z M41.5,1989
	c-2.5,0-4.5,2-4.5,4.5s2,4.5,4.5,4.5s4.5-2,4.5-4.5S44,1989,41.5,1989z M41.5,1996c-1.4,0-2.5-1.1-2.5-2.5s1.1-2.5,2.5-2.5
	s2.5,1.1,2.5,2.5S42.9,1996,41.5,1996z M27.7,1997.7l18-18c0.4-0.4,0.4-1,0-1.4c-0.4-0.4-1-0.4-1.4,0l-18,18c-0.4,0.4-0.4,1,0,1.4
	C26.7,1998.1,27.3,1998.1,27.7,1997.7z"/>
</svg>
