<?xml version="1.0" encoding="UTF-8"?>
<svg width="24px" height="24px" viewBox="0 0 24 24" version="1.1" xmlns="http://www.w3.org/2000/svg" xmlns:xlink="http://www.w3.org/1999/xlink">
    <!-- Generator: Sketch 61.2 (89653) - https://sketch.com -->
    <title>newFolder_ico_black</title>
    <desc>Created with Sketch.</desc>
    <g id="files" stroke="none" stroke-width="1" fill="none" fill-rule="evenodd">
        <g id="01-context-menu-components_cloud-drive" transform="translate(-1313.000000, -160.000000)" fill="#696969">
            <g id="Group-9" transform="translate(1313.000000, 160.000000)">
                <path d="M11.003,4 C11.2213333,4 11.4313333,4.08472222 11.6034861,4.21886574 L11.702,4.305 L12.619,5.209 C13.2095714,5.82742857 13.5906173,5.97938265 13.8526119,5.99793513 L13.911,6 L19,6 C19.5107143,6 19.9352041,6.3880102 19.9932398,6.88380102 L20,7 L20.0010919,14.2564447 C21.7483101,14.8745075 23,16.5410798 23,18.5 C23,20.9852814 20.9852814,23 18.5,23 C16.5410798,23 14.8745075,21.7483101 14.2564447,20.0010919 L5,20 C4.48928571,20 4.06479592,19.6119898 4.0067602,19.116199 L4,19 L4,4.999 C4,4.4855 4.38456122,4.0642602 4.88306195,4.00670299 L5,4 L11.003,4 Z M19,16 L18,16 L18,17.999 L16,18 L16,19 L18,18.999 L18,21 L19,21 L19,18.999 L21,19 L21,18 L19,17.999 L19,16 Z M11,6 L5.998,6 L6,18 L14.0274316,18.000297 C14.2578555,15.9145848 15.9137182,14.2584243 17.9992926,14.0275426 L18,10 L6,10 L6,9 L18,9 L18,8 L13.911,8 C13.3036154,8 12.711568,7.70177515 12.0601379,7.06599909 L11.896,6.9 L11,6 Z" id="Combined-Shape"></path>
            </g>
        </g>
    </g>
</svg>