<?xml version="1.0" encoding="UTF-8"?>
<svg width="24px" height="24px" viewBox="0 0 24 24" version="1.1" xmlns="http://www.w3.org/2000/svg" xmlns:xlink="http://www.w3.org/1999/xlink">
    <!-- Generator: Sketch 61.2 (89653) - https://sketch.com -->
    <title>newTextFile_ico_black</title>
    <desc>Created with Sketch.</desc>
    <g id="files" stroke="none" stroke-width="1" fill="none" fill-rule="evenodd">
        <g id="01-context-menu-components_cloud-drive" transform="translate(-1313.000000, -111.000000)" fill="#696969">
            <g id="Group-8" transform="translate(1313.000000, 111.000000)">
                <path d="M15.086,3 C15.484,3 15.865,3.158 16.147,3.439 L18.561,5.853 C18.842,6.135 19,6.516 19,6.914 L19.0007074,14.0275426 C21.2503421,14.2765864 23,16.1839659 23,18.5 C23,20.9852814 20.9852814,23 18.5,23 C16.5410798,23 14.8745075,21.7483101 14.2564447,20.0010919 L7.002,20 C5.896,20 5,19.104 5,17.998 L5,5.002 C5,3.896 5.896,3 7.002,3 L15.086,3 Z M19,16 L18,16 L18,17.999 L16,18 L16,19 L18,18.999 L18,21 L19,21 L19,18.999 L21,19 L21,18 L19,17.999 L19,16 Z M13.479,5 L8.021,5 C7.4946,5 7.06140889,5.39809778 7.00598963,5.90973037 L7,6.021 L7,16.979 C7,17.5054 7.39809778,17.9385911 7.90973037,17.9940104 L8.021,18 L14.0274316,18.000297 C14.2195714,16.2611183 15.4028357,14.8206121 16.9999135,14.2560892 L17,8.521 C17,8.265 16.8159012,8.05245679 16.5727188,8.00838546 L16.479,8 L14.521,8 C14.265,8 14.0524568,7.81590123 14.0083855,7.57271879 L14,7.479 L14,5.521 C14,5.233 13.767,5 13.479,5 Z" id="Combined-Shape"></path>
            </g>
        </g>
    </g>
</svg>