<?xml version="1.0" encoding="utf-8"?>
<!-- Generator: Adobe Illustrator 16.0.0, SVG Export Plug-In . SVG Version: 6.00 Build 0)  -->
<!DOCTYPE svg PUBLIC "-//W3C//DTD SVG 1.1//EN" "http://www.w3.org/Graphics/SVG/1.1/DTD/svg11.dtd">
<svg version="1.1" id="Layer_1" xmlns="http://www.w3.org/2000/svg" xmlns:xlink="http://www.w3.org/1999/xlink" x="0px" y="0px"
	 width="40px" height="500px" viewBox="0 0 40 500" enable-background="new 0 0 40 500" xml:space="preserve">
<g>
	<g>
		<path fill-rule="evenodd" clip-rule="evenodd" fill="#FFFFFF" d="M10,163c0-5.52,4.48-10,10-10s10,4.48,10,10s-4.48,10-10,10
			S10,168.52,10,163z"/>
	</g>
	<circle fill-rule="evenodd" clip-rule="evenodd" fill="#787878" cx="20" cy="163" r="8"/>
	<rect x="15" y="162" fill-rule="evenodd" clip-rule="evenodd" fill="#FFFFFF" width="10" height="2"/>
</g>
<g>
	<g>
		<path fill-rule="evenodd" clip-rule="evenodd" fill="#FFFFFF" d="M10,99c0-5.52,4.48-10,10-10s10,4.48,10,10s-4.48,10-10,10
			S10,104.52,10,99z"/>
	</g>
	<circle fill-rule="evenodd" clip-rule="evenodd" fill="#D22327" cx="20" cy="99" r="8"/>
	<polygon fill-rule="evenodd" clip-rule="evenodd" fill="#FFFFFF" points="15.8,96.2 18.6,99 15.8,101.8 17.2,103.2 20,100.4 
		22.8,103.2 24.2,101.8 21.4,99 24.2,96.2 22.8,94.8 20,97.6 17.2,94.8 	"/>
</g>
<g>
	<g>
		<path fill-rule="evenodd" clip-rule="evenodd" fill="#FFFFFF" d="M10,227c0-5.52,4.48-10,10-10s10,4.48,10,10s-4.48,10-10,10
			S10,232.52,10,227z"/>
	</g>
	<circle fill-rule="evenodd" clip-rule="evenodd" fill="#6CB144" cx="20" cy="227" r="8"/>
	<rect x="15" y="226" fill-rule="evenodd" clip-rule="evenodd" fill="#FFFFFF" width="10" height="2"/>
	<rect x="19" y="222" fill-rule="evenodd" clip-rule="evenodd" fill="#FFFFFF" width="2" height="10"/>
</g>
<g>
	<g>
		<path fill-rule="evenodd" clip-rule="evenodd" fill="#FFFFFF" d="M10,37c0-5.52,4.48-10,10-10s10,4.48,10,10s-4.48,10-10,10
			S10,42.52,10,37z"/>
	</g>
	<circle fill-rule="evenodd" clip-rule="evenodd" fill="#FCB316" cx="20" cy="37" r="8"/>
	<rect x="15" y="36" fill-rule="evenodd" clip-rule="evenodd" fill="#FFFFFF" width="10" height="2"/>
	<rect x="19" y="32" fill-rule="evenodd" clip-rule="evenodd" fill="#FFFFFF" width="2" height="10"/>
</g>
<g>
	<g>
		<path fill-rule="evenodd" clip-rule="evenodd" fill="#FFFFFF" d="M10,297c0-5.52,4.48-10,10-10s10,4.48,10,10s-4.48,10-10,10
			S10,302.52,10,297z"/>
	</g>
	<circle fill-rule="evenodd" clip-rule="evenodd" fill="#25A4DE" cx="20" cy="297" r="8"/>
	<path fill="#FFFFFF" d="M23.85,299.45c-0.199-0.21-2.029-1.06-2.38-1.171c0-0.069-0.04-0.329-0.13-0.379
		c-0.09-0.03-0.4-0.18-0.4-0.18c0-0.021-0.029-0.091-0.039-0.15c0-0.08,0.039-0.15,0.039-0.15c0.041-0.08,0.19-0.27,0.23-0.42
		s0.09-0.529,0.09-0.529c0-0.08,0.12-0.111,0.19-0.15c0.13-0.061,0.239-0.87,0.239-0.87c0-0.261-0.109-0.15-0.109-0.341v-0.699
		c0-0.86-0.69-1.41-1.561-1.41H19.98c-0.87,0-1.561,0.55-1.561,1.41v0.699c0,0.19-0.109,0.08-0.109,0.341c0,0,0.109,0.81,0.239,0.87
		c0.07,0.039,0.19,0.07,0.19,0.15c0,0,0.05,0.379,0.09,0.529s0.189,0.34,0.23,0.42c0,0,0.039,0.07,0.039,0.15
		c-0.01,0.06-0.039,0.13-0.039,0.15c0,0-0.311,0.149-0.4,0.18c-0.09,0.05-0.13,0.31-0.13,0.379c-0.351,0.111-2.181,0.961-2.38,1.171
		C16,299.609,16,300.51,16,300.51v0.11c0,0.21,0.17,0.38,0.38,0.38h7.24c0.21,0,0.38-0.17,0.38-0.38v-0.11
		C24,300.51,24,299.609,23.85,299.45z"/>
</g>
<g>
	<g>
		<path fill-rule="evenodd" clip-rule="evenodd" fill="#FFFFFF" d="M10,361c0-5.52,4.48-10,10-10s10,4.48,10,10s-4.48,10-10,10
			S10,366.52,10,361z"/>
	</g>
	<circle fill-rule="evenodd" clip-rule="evenodd" fill="#6CB144" cx="20" cy="361" r="8"/>
	<polygon fill-rule="evenodd" clip-rule="evenodd" fill="#FFFFFF" points="15,361.311 16.88,359.46 18.75,361.311 23.12,357 
		25,358.85 18.75,365 	"/>
</g>
</svg>
