<?xml version="1.0" encoding="utf-8"?>
<!-- Generator: Adobe Illustrator 16.0.0, SVG Export Plug-In . SVG Version: 6.00 Build 0)  -->
<!DOCTYPE svg PUBLIC "-//W3C//DTD SVG 1.1//EN" "http://www.w3.org/Graphics/SVG/1.1/DTD/svg11.dtd">
<svg version="1.1" id="Layer_1" xmlns="http://www.w3.org/2000/svg" xmlns:xlink="http://www.w3.org/1999/xlink" x="0px" y="0px"
	 width="48px" height="1106px" viewBox="0 0 48 1106" enable-background="new 0 0 48 1106" xml:space="preserve">
<g opacity="0.7">
	<path fill="#FFFFFF" d="M37.012,163.65c1.711-0.97,2.931-2.45,2.99-4.37c0.101-4.18-3.91-7.24-7.91-8.11l-0.159-0.03
		c0.26,2.67-0.39,5.17-1.9,7.16c-1.53,2.021-3.819,3.38-6.55,3.96c1.32,1.63,3.43,2.67,5.98,2.84c1.22,0.09,2.459,0,3.709-0.17
		c1.34,1.08,3.271,1.141,4.91,1.03c0.51-0.04,0.41-0.26,0.021-0.36c-0.78-0.2-1.39-0.75-1.351-1.55
		C36.762,163.87,36.902,163.73,37.012,163.65z"/>
	<path fill="#FFFFFF" d="M30.732,149.9c-1.26-5.85-7.02-7.78-12.62-6.54c-5.12,1.14-10.24,5.13-10.11,10.6
		c0.07,2.51,1.63,4.45,3.82,5.71c0.15,0.1,0.32,0.28,0.33,0.52c0.05,1.05-0.73,1.77-1.72,2.03c-0.51,0.13-0.62,0.41,0.03,0.47
		c2.08,0.14,4.55,0.06,6.27-1.34c1.59,0.22,3.17,0.34,4.73,0.22C27.873,161.11,32.143,156.33,30.732,149.9z"/>
</g>
<g opacity="0.7">
	<path fill-rule="evenodd" clip-rule="evenodd" fill="#FFFFFF" d="M36.002,66.48c0,0.28-0.24,0.52-0.52,0.52h-3.48
		c-0.02-1.86-0.369-2.23-0.539-2.41c-0.36-0.36-1.771-1.07-2.94-1.61c0.03-0.1,0.08-0.21,0.14-0.24
		c0.131-0.05,0.541-0.25,0.541-0.25c0-0.03,0.049-0.12,0.059-0.21c0-0.101-0.059-0.21-0.059-0.21c-0.051-0.11-0.25-0.37-0.311-0.57
		s-0.12-0.72-0.12-0.72c0-0.11-0.16-0.16-0.271-0.21c-0.18-0.09-0.49-1.2-0.49-1.2c0-0.36-0.01-0.2-0.01-0.46v-0.97
		c0-1.19,1.28-1.94,2.48-1.94h0.04c1.2,0,2.479,0.75,2.479,1.94v0.97c0,0.26-0.01,0.1-0.01,0.46c0,0-0.23,1.11-0.41,1.2
		c-0.109,0.05-0.31,0.1-0.31,0.21c0,0-0.08,0.52-0.14,0.72c-0.051,0.2-0.271,0.46-0.32,0.57c0,0-0.061,0.109-0.061,0.21
		c0,0.09,0.051,0.18,0.051,0.21c0,0,0.41,0.2,0.539,0.25c0.131,0.06,0.19,0.42,0.19,0.52c0.47,0.16,2.979,1.32,3.271,1.61
		c0.199,0.21,0.199,1.45,0.199,1.45V66.48z M31.002,67.34c0,0.36-0.299,0.66-0.66,0.66H17.663c-0.36,0-0.66-0.3-0.66-0.66v-0.2
		c0,0,0-1.58,0.26-1.85c0.36-0.37,3.56-1.85,4.16-2.05c0-0.13,0.07-0.58,0.24-0.66c0.16-0.06,0.69-0.32,0.69-0.32
		c0-0.04,0.06-0.149,0.07-0.27c0-0.13-0.07-0.26-0.07-0.26c-0.07-0.14-0.33-0.47-0.4-0.73c-0.07-0.26-0.15-0.92-0.15-0.92
		c0-0.14-0.21-0.2-0.34-0.27c-0.23-0.11-0.54-1.52-0.54-1.52c0-0.46,0.08-0.26,0.08-0.59v-1.23c0-1.51,1.45-2.47,2.97-2.47h0.06
		c1.521,0,2.97,0.96,2.97,2.47v1.23c0,0.33,0.08,0.13,0.08,0.59c0,0-0.25,1.41-0.479,1.52c-0.13,0.07-0.37,0.13-0.37,0.27
		c0,0-0.1,0.66-0.17,0.92s-0.33,0.59-0.4,0.73c0,0-0.08,0.13-0.08,0.26c0.01,0.12,0.07,0.229,0.07,0.27c0,0,0.53,0.26,0.689,0.32
		c0.17,0.08,0.24,0.53,0.24,0.66c0.601,0.2,3.801,1.68,4.16,2.05c0.26,0.27,0.26,1.85,0.26,1.85V67.34z M16.002,67h-3.48
		c-0.28,0-0.52-0.24-0.52-0.52v-0.16c0,0,0-1.24,0.2-1.45c0.29-0.29,2.8-1.45,3.27-1.61c0-0.1,0.06-0.46,0.19-0.52
		c0.13-0.05,0.54-0.25,0.54-0.25c0-0.03,0.05-0.12,0.06-0.21c0-0.101-0.06-0.21-0.06-0.21c-0.05-0.11-0.26-0.37-0.31-0.57
		c-0.06-0.2-0.12-0.72-0.12-0.72c0-0.11-0.16-0.16-0.27-0.21c-0.18-0.09-0.49-1.2-0.49-1.2c0-0.36-0.01-0.2-0.01-0.46v-0.97
		c0-1.19,1.28-1.94,2.48-1.94h0.04c1.2,0,2.48,0.75,2.48,1.94v0.97c0,0.26-0.01,0.1-0.01,0.46c0,0-0.23,1.11-0.41,1.2
		c-0.11,0.05-0.31,0.1-0.31,0.21c0,0-0.08,0.52-0.14,0.72s-0.27,0.46-0.32,0.57c0,0-0.06,0.109-0.06,0.21
		c0,0.09,0.05,0.18,0.05,0.21c0,0,0.41,0.2,0.54,0.25c0.06,0.03,0.11,0.14,0.14,0.24c-1.17,0.54-2.58,1.25-2.94,1.61
		C16.373,64.77,16.022,65.14,16.002,67z M9.002,52v18c0,0.55,0.45,1,1,1h28c0.551,0,1-0.45,1-1V52H9.002z"/>
	<path fill="#FFFFFF" d="M37.002,50c0-0.55-0.449-1-1-1h-10l-2-2h-14c-0.55,0-1,0.45-1,1v1v2h28V50z"/>
</g>
<g opacity="0.7">
	<g>
		<path fill-rule="evenodd" clip-rule="evenodd" fill="#FFFFFF" d="M9.002,14.37c0,3.66,2.77,6.63,6.17,6.63h0.15h17.51
			c3.4,0,6.17-2.97,6.17-6.63c0-3.55-2.609-6.46-5.879-6.62V7.73c0-4.26-3.221-7.73-7.201-7.73c-2.58,0-4.839,1.45-6.109,3.63
			c-0.43-0.2-0.9-0.32-1.39-0.32c-1.95,0-3.54,1.71-3.54,3.79c0,0.23,0.02,0.44,0.05,0.65C11.632,7.88,9.002,10.79,9.002,14.37z"/>
	</g>
</g>
<g opacity="0.7">
	<path fill-rule="evenodd" clip-rule="evenodd" fill="#FFFFFF" d="M28.412,109.65c-0.09,0.05-0.17,0.22-0.22,0.38
		c1.851,0.86,4.069,1.99,4.64,2.56c0.271,0.28,0.82,0.46,0.851,3.41h5.5c0.44,0,0.819-0.38,0.819-0.83v-0.25c0,0,0-1.55-0.319-1.89
		c-0.45-0.46-4.421-2.3-5.16-2.55c0-0.16-0.09-0.73-0.3-0.83c-0.2-0.08-0.85-0.4-0.85-0.4c0-0.04-0.08-0.19-0.101-0.33
		c0-0.16,0.101-0.33,0.101-0.33c0.08-0.18,0.409-0.59,0.489-0.91c0.091-0.31,0.19-1.14,0.19-1.14c0-0.17,0.25-0.25,0.42-0.33
		c0.289-0.15,0.52-1.91,0.52-1.91c0-0.57-0.23-0.32-0.23-0.729v-1.54c0-1.89-1.52-3.08-3.409-3.08h-0.07
		c-1.89,0-3.409,1.19-3.409,3.08v1.54c0,0.41-0.23,0.16-0.23,0.729c0,0,0.23,1.76,0.52,1.91c0.17,0.08,0.42,0.16,0.42,0.33
		c0,0,0.101,0.83,0.19,1.14c0.101,0.32,0.41,0.73,0.489,0.91c0,0,0.101,0.17,0.101,0.33c-0.021,0.14-0.101,0.29-0.101,0.33
		C29.262,109.25,28.623,109.57,28.412,109.65z"/>
	<path fill="#FFFFFF" d="M31.692,113.7c-0.56-0.59-5.62-2.94-6.56-3.26c0-0.2-0.11-0.92-0.38-1.04c-0.26-0.1-1.09-0.51-1.09-0.51
		c0-0.06-0.1-0.24-0.11-0.43c0-0.21,0.11-0.41,0.11-0.41c0.11-0.22,0.52-0.75,0.63-1.16c0.11-0.41,0.24-1.46,0.24-1.46
		c0-0.22,0.33-0.319,0.53-0.43c0.37-0.17,0.67-2.41,0.67-2.41c0-0.729-0.3-0.42-0.3-0.94V99.7c0-2.4-2.03-3.7-4.43-3.7h-0.09
		c-2.4,0-4.23,1.3-4.23,3.7v1.95c0,0.52-0.3,0.21-0.3,0.94c0,0,0.3,2.24,0.66,2.41c0.21,0.11,0.54,0.21,0.54,0.43
		c0,0,0.13,1.05,0.24,1.46c0.11,0.41,0.52,0.94,0.63,1.16c0,0,0.11,0.2,0.11,0.41c-0.02,0.19-0.11,0.37-0.11,0.43
		c0,0-0.84,0.41-1.09,0.51c-0.27,0.12-0.38,0.84-0.38,1.04c-0.95,0.32-6,2.67-6.57,3.26c-0.41,0.43-0.41,2.94-0.41,2.94v0.31
		c0,0.57,0.47,1.05,1.04,1.05h20.02c0.57,0,1.05-0.48,1.05-1.05v-0.31C32.112,116.64,32.112,114.13,31.692,113.7z"/>
</g>
<g>
	<path fill="#FFFFFF" d="M37.01,543.65c1.711-0.971,2.93-2.45,2.99-4.371c0.1-4.18-3.91-7.239-7.91-8.109l-0.16-0.029
		c0.26,2.67-0.39,5.17-1.9,7.159c-1.529,2.021-3.819,3.38-6.549,3.96c1.32,1.631,3.43,2.67,5.98,2.84c1.22,0.09,2.46,0,3.71-0.17
		c1.34,1.08,3.27,1.141,4.91,1.03c0.51-0.04,0.41-0.26,0.02-0.36c-0.779-0.199-1.39-0.75-1.35-1.55
		C36.76,543.87,36.9,543.73,37.01,543.65z"/>
	<path fill="#FFFFFF" d="M30.73,529.9c-1.26-5.851-7.021-7.78-12.621-6.541C12.99,524.5,7.87,528.49,8,533.96
		c0.07,2.511,1.63,4.45,3.82,5.71c0.15,0.1,0.32,0.28,0.33,0.52c0.05,1.051-0.73,1.771-1.72,2.031
		c-0.51,0.129-0.62,0.409,0.03,0.469c2.08,0.141,4.55,0.061,6.27-1.34c1.59,0.221,3.17,0.34,4.73,0.221
		C27.87,541.109,32.141,536.33,30.73,529.9z"/>
</g>
<g>
	<path fill-rule="evenodd" clip-rule="evenodd" fill="#FFFFFF" d="M28.41,489.65c-0.09,0.05-0.17,0.22-0.221,0.379
		c1.851,0.861,4.07,1.99,4.641,2.561c0.27,0.28,0.82,0.46,0.85,3.41h5.5c0.44,0,0.82-0.38,0.82-0.83v-0.25c0,0,0-1.55-0.32-1.891
		c-0.449-0.459-4.42-2.299-5.16-2.549c0-0.16-0.09-0.73-0.299-0.83c-0.201-0.08-0.851-0.4-0.851-0.4c0-0.04-0.08-0.189-0.101-0.33
		c0-0.16,0.101-0.33,0.101-0.33c0.08-0.18,0.409-0.59,0.489-0.91c0.091-0.31,0.19-1.14,0.19-1.14c0-0.17,0.25-0.25,0.421-0.33
		c0.289-0.149,0.52-1.91,0.52-1.91c0-0.569-0.23-0.319-0.23-0.729v-1.541c0-1.889-1.52-3.079-3.41-3.079h-0.07
		c-1.889,0-3.409,1.19-3.409,3.079v1.541c0,0.41-0.229,0.16-0.229,0.729c0,0,0.229,1.761,0.52,1.91c0.17,0.08,0.42,0.16,0.42,0.33
		c0,0,0.1,0.83,0.189,1.14c0.101,0.32,0.41,0.73,0.49,0.91c0,0,0.1,0.17,0.1,0.33c-0.02,0.141-0.1,0.29-0.1,0.33
		C29.26,489.25,28.62,489.57,28.41,489.65z"/>
	<path fill="#FFFFFF" d="M31.689,493.7c-0.56-0.591-5.619-2.94-6.56-3.261c0-0.199-0.11-0.92-0.38-1.039
		c-0.26-0.101-1.09-0.51-1.09-0.51c0-0.061-0.1-0.24-0.11-0.431c0-0.21,0.11-0.41,0.11-0.41c0.11-0.22,0.52-0.75,0.63-1.159
		c0.11-0.41,0.24-1.461,0.24-1.461c0-0.22,0.33-0.32,0.531-0.43c0.369-0.17,0.67-2.41,0.67-2.41c0-0.73-0.301-0.42-0.301-0.94v-1.95
		c0-2.4-2.03-3.7-4.43-3.7h-0.09c-2.4,0-4.23,1.3-4.23,3.7v1.95c0,0.52-0.3,0.21-0.3,0.94c0,0,0.3,2.24,0.66,2.41
		c0.21,0.109,0.54,0.21,0.54,0.43c0,0,0.13,1.051,0.24,1.461c0.11,0.409,0.52,0.939,0.63,1.159c0,0,0.11,0.2,0.11,0.41
		c-0.02,0.19-0.11,0.37-0.11,0.431c0,0-0.84,0.409-1.09,0.51c-0.27,0.119-0.38,0.84-0.38,1.039c-0.95,0.32-6,2.67-6.57,3.261
		c-0.41,0.43-0.41,2.94-0.41,2.94v0.31c0,0.569,0.47,1.05,1.04,1.05h20.021c0.569,0,1.049-0.48,1.049-1.05v-0.31
		C32.109,496.641,32.109,494.13,31.689,493.7z"/>
</g>
<g>
	<path fill-rule="evenodd" clip-rule="evenodd" fill="#FFFFFF" d="M36,446.48c0,0.28-0.24,0.52-0.52,0.52H32
		c-0.02-1.86-0.37-2.23-0.54-2.41c-0.36-0.36-1.771-1.07-2.94-1.61c0.03-0.1,0.08-0.21,0.141-0.24c0.13-0.05,0.54-0.25,0.54-0.25
		c0-0.03,0.05-0.12,0.06-0.21c0-0.1-0.06-0.21-0.06-0.21c-0.05-0.11-0.25-0.37-0.31-0.57c-0.061-0.2-0.121-0.72-0.121-0.72
		c0-0.11-0.16-0.16-0.27-0.21c-0.18-0.09-0.49-1.2-0.49-1.2c0-0.36-0.01-0.2-0.01-0.46v-0.97c0-1.19,1.279-1.94,2.48-1.94h0.039
		c1.201,0,2.48,0.75,2.48,1.94v0.97c0,0.26-0.01,0.1-0.01,0.46c0,0-0.23,1.11-0.41,1.2c-0.109,0.05-0.311,0.1-0.311,0.21
		c0,0-0.08,0.52-0.14,0.72c-0.05,0.2-0.271,0.46-0.319,0.57c0,0-0.061,0.11-0.061,0.21c0,0.09,0.05,0.18,0.05,0.21
		c0,0,0.41,0.2,0.54,0.25c0.131,0.06,0.189,0.42,0.189,0.52c0.471,0.16,2.98,1.32,3.271,1.61c0.2,0.21,0.2,1.45,0.2,1.45V446.48z
		 M31,447.34c0,0.36-0.3,0.66-0.66,0.66H17.66c-0.36,0-0.66-0.3-0.66-0.66v-0.2c0,0,0-1.58,0.26-1.85c0.36-0.37,3.56-1.85,4.16-2.05
		c0-0.13,0.07-0.58,0.24-0.66c0.16-0.06,0.69-0.32,0.69-0.32c0-0.04,0.06-0.15,0.07-0.27c0-0.13-0.07-0.26-0.07-0.26
		c-0.07-0.14-0.33-0.47-0.4-0.73c-0.07-0.26-0.15-0.92-0.15-0.92c0-0.14-0.21-0.2-0.34-0.27c-0.23-0.11-0.54-1.52-0.54-1.52
		c0-0.46,0.08-0.26,0.08-0.59v-1.23c0-1.51,1.45-2.47,2.97-2.47h0.06c1.52,0,2.97,0.96,2.97,2.47v1.23c0,0.33,0.08,0.13,0.08,0.59
		c0,0-0.25,1.41-0.48,1.52c-0.129,0.07-0.369,0.13-0.369,0.27c0,0-0.101,0.66-0.17,0.92c-0.07,0.26-0.33,0.59-0.4,0.73
		c0,0-0.08,0.13-0.08,0.26c0.01,0.12,0.07,0.23,0.07,0.27c0,0,0.529,0.26,0.689,0.32c0.17,0.08,0.24,0.53,0.24,0.66
		c0.6,0.2,3.8,1.68,4.16,2.05c0.26,0.27,0.26,1.85,0.26,1.85V447.34z M16,447h-3.48c-0.28,0-0.52-0.24-0.52-0.52v-0.16
		c0,0,0-1.24,0.2-1.45c0.29-0.29,2.8-1.45,3.27-1.61c0-0.1,0.06-0.46,0.19-0.52c0.13-0.05,0.54-0.25,0.54-0.25
		c0-0.03,0.05-0.12,0.06-0.21c0-0.1-0.06-0.21-0.06-0.21c-0.05-0.11-0.26-0.37-0.31-0.57c-0.06-0.2-0.12-0.72-0.12-0.72
		c0-0.11-0.16-0.16-0.27-0.21c-0.18-0.09-0.49-1.2-0.49-1.2c0-0.36-0.01-0.2-0.01-0.46v-0.97c0-1.19,1.28-1.94,2.48-1.94h0.04
		c1.2,0,2.48,0.75,2.48,1.94v0.97c0,0.26-0.01,0.1-0.01,0.46c0,0-0.23,1.11-0.41,1.2c-0.11,0.05-0.31,0.1-0.31,0.21
		c0,0-0.08,0.52-0.14,0.72s-0.27,0.46-0.32,0.57c0,0-0.06,0.11-0.06,0.21c0,0.09,0.05,0.18,0.05,0.21c0,0,0.41,0.2,0.54,0.25
		c0.06,0.03,0.11,0.14,0.14,0.24c-1.17,0.54-2.58,1.25-2.94,1.61C16.37,444.77,16.02,445.14,16,447z M9,432v18c0,0.55,0.45,1,1,1h28
		c0.55,0,1-0.45,1-1v-18H9z"/>
	<path fill="#FFFFFF" d="M37,430c0-0.55-0.45-1-1-1H26l-2-2H10c-0.55,0-1,0.45-1,1v1v2h28V430z"/>
</g>
<g>
	<g>
		<path fill-rule="evenodd" clip-rule="evenodd" fill="#FFFFFF" d="M9,394.37c0,3.66,2.77,6.63,6.17,6.63h0.15h17.51
			c3.4,0,6.17-2.97,6.17-6.63c0-3.55-2.609-6.46-5.88-6.62v-0.02c0-4.26-3.22-7.73-7.2-7.73c-2.58,0-4.84,1.45-6.11,3.63
			c-0.43-0.2-0.9-0.32-1.39-0.32c-1.95,0-3.54,1.71-3.54,3.79c0,0.23,0.02,0.44,0.05,0.65C11.63,387.88,9,390.79,9,394.37z"/>
	</g>
</g>
<g>
	<path fill="#2DA6DE" d="M37.012,353.65c1.711-0.97,2.931-2.45,2.99-4.37c0.101-4.18-3.91-7.24-7.91-8.11l-0.159-0.03
		c0.26,2.67-0.39,5.17-1.9,7.16c-1.53,2.02-3.819,3.38-6.55,3.96c1.32,1.63,3.43,2.67,5.98,2.84c1.22,0.09,2.459,0,3.709-0.17
		c1.34,1.08,3.271,1.14,4.91,1.03c0.51-0.04,0.41-0.26,0.021-0.36c-0.78-0.2-1.39-0.75-1.351-1.55
		C36.762,353.87,36.902,353.73,37.012,353.65z"/>
	<path fill="#2DA6DE" d="M30.732,339.9c-1.26-5.85-7.02-7.78-12.62-6.54c-5.12,1.14-10.24,5.13-10.11,10.6
		c0.07,2.51,1.63,4.45,3.82,5.71c0.15,0.1,0.32,0.28,0.33,0.52c0.05,1.05-0.73,1.77-1.72,2.03c-0.51,0.13-0.62,0.41,0.03,0.47
		c2.08,0.14,4.55,0.06,6.27-1.34c1.59,0.22,3.17,0.34,4.73,0.22C27.873,351.11,32.143,346.33,30.732,339.9z"/>
</g>
<path fill-rule="evenodd" clip-rule="evenodd" fill="#F8AC1A" d="M36.002,256.48c0,0.28-0.24,0.52-0.52,0.52h-3.48
	c-0.02-1.86-0.369-2.23-0.539-2.41c-0.36-0.36-1.771-1.07-2.94-1.61c0.03-0.1,0.08-0.21,0.14-0.24c0.131-0.05,0.541-0.25,0.541-0.25
	c0-0.03,0.049-0.12,0.059-0.21c0-0.1-0.059-0.21-0.059-0.21c-0.051-0.11-0.25-0.37-0.311-0.57s-0.12-0.72-0.12-0.72
	c0-0.11-0.16-0.16-0.271-0.21c-0.18-0.09-0.49-1.2-0.49-1.2c0-0.36-0.01-0.2-0.01-0.46v-0.97c0-1.19,1.28-1.94,2.48-1.94h0.04
	c1.2,0,2.479,0.75,2.479,1.94v0.97c0,0.26-0.01,0.1-0.01,0.46c0,0-0.23,1.11-0.41,1.2c-0.109,0.05-0.31,0.1-0.31,0.21
	c0,0-0.08,0.52-0.14,0.72c-0.051,0.2-0.271,0.46-0.32,0.57c0,0-0.061,0.11-0.061,0.21c0,0.09,0.051,0.18,0.051,0.21
	c0,0,0.41,0.2,0.539,0.25c0.131,0.06,0.19,0.42,0.19,0.52c0.47,0.16,2.979,1.32,3.271,1.61c0.199,0.21,0.199,1.45,0.199,1.45V256.48
	z M31.002,257.34c0,0.36-0.299,0.66-0.66,0.66H17.663c-0.36,0-0.66-0.3-0.66-0.66v-0.2c0,0,0-1.58,0.26-1.85
	c0.36-0.37,3.56-1.85,4.16-2.05c0-0.13,0.07-0.58,0.24-0.66c0.16-0.06,0.69-0.32,0.69-0.32c0-0.04,0.06-0.15,0.07-0.27
	c0-0.13-0.07-0.26-0.07-0.26c-0.07-0.14-0.33-0.47-0.4-0.73c-0.07-0.26-0.15-0.92-0.15-0.92c0-0.14-0.21-0.2-0.34-0.27
	c-0.23-0.11-0.54-1.52-0.54-1.52c0-0.46,0.08-0.26,0.08-0.59v-1.23c0-1.51,1.45-2.47,2.97-2.47h0.06c1.521,0,2.97,0.96,2.97,2.47
	v1.23c0,0.33,0.08,0.13,0.08,0.59c0,0-0.25,1.41-0.479,1.52c-0.13,0.07-0.37,0.13-0.37,0.27c0,0-0.1,0.66-0.17,0.92
	s-0.33,0.59-0.4,0.73c0,0-0.08,0.13-0.08,0.26c0.01,0.12,0.07,0.23,0.07,0.27c0,0,0.53,0.26,0.689,0.32
	c0.17,0.08,0.24,0.53,0.24,0.66c0.601,0.2,3.801,1.68,4.16,2.05c0.26,0.27,0.26,1.85,0.26,1.85V257.34z M16.002,257h-3.48
	c-0.28,0-0.52-0.24-0.52-0.52v-0.16c0,0,0-1.24,0.2-1.45c0.29-0.29,2.8-1.45,3.27-1.61c0-0.1,0.06-0.46,0.19-0.52
	c0.13-0.05,0.54-0.25,0.54-0.25c0-0.03,0.05-0.12,0.06-0.21c0-0.1-0.06-0.21-0.06-0.21c-0.05-0.11-0.26-0.37-0.31-0.57
	c-0.06-0.2-0.12-0.72-0.12-0.72c0-0.11-0.16-0.16-0.27-0.21c-0.18-0.09-0.49-1.2-0.49-1.2c0-0.36-0.01-0.2-0.01-0.46v-0.97
	c0-1.19,1.28-1.94,2.48-1.94h0.04c1.2,0,2.48,0.75,2.48,1.94v0.97c0,0.26-0.01,0.1-0.01,0.46c0,0-0.23,1.11-0.41,1.2
	c-0.11,0.05-0.31,0.1-0.31,0.21c0,0-0.08,0.52-0.14,0.72s-0.27,0.46-0.32,0.57c0,0-0.06,0.11-0.06,0.21c0,0.09,0.05,0.18,0.05,0.21
	c0,0,0.41,0.2,0.54,0.25c0.06,0.03,0.11,0.14,0.14,0.24c-1.17,0.54-2.58,1.25-2.94,1.61C16.373,254.77,16.022,255.14,16.002,257z
	 M9.002,242v18c0,0.55,0.45,1,1,1h28c0.551,0,1-0.45,1-1v-18H9.002z"/>
<path fill="#F8AC1A" d="M37.002,240c0-0.55-0.449-1-1-1h-10l-2-2h-14c-0.55,0-1,0.45-1,1v1v2h28V240z"/>
<g>
	<g>
		<path fill-rule="evenodd" clip-rule="evenodd" fill="#D22327" d="M9.002,204.37c0,3.66,2.77,6.63,6.17,6.63h0.15h17.51
			c3.4,0,6.17-2.97,6.17-6.63c0-3.55-2.609-6.46-5.879-6.62v-0.02c0-4.26-3.221-7.73-7.201-7.73c-2.58,0-4.839,1.45-6.109,3.63
			c-0.43-0.2-0.9-0.32-1.39-0.32c-1.95,0-3.54,1.71-3.54,3.79c0,0.23,0.02,0.44,0.05,0.65C11.632,197.88,9.002,200.79,9.002,204.37z
			"/>
	</g>
</g>
<g>
	<path fill-rule="evenodd" clip-rule="evenodd" fill="#73AC43" d="M28.412,299.65c-0.09,0.05-0.17,0.22-0.22,0.38
		c1.851,0.86,4.069,1.99,4.64,2.56c0.271,0.28,0.82,0.46,0.851,3.41h5.5c0.44,0,0.819-0.38,0.819-0.83v-0.25c0,0,0-1.55-0.319-1.89
		c-0.45-0.46-4.421-2.3-5.16-2.55c0-0.16-0.09-0.73-0.3-0.83c-0.2-0.08-0.85-0.4-0.85-0.4c0-0.04-0.08-0.19-0.101-0.33
		c0-0.16,0.101-0.33,0.101-0.33c0.08-0.18,0.409-0.59,0.489-0.91c0.091-0.31,0.19-1.14,0.19-1.14c0-0.17,0.25-0.25,0.42-0.33
		c0.289-0.15,0.52-1.91,0.52-1.91c0-0.57-0.23-0.32-0.23-0.73v-1.54c0-1.89-1.52-3.08-3.409-3.08h-0.07
		c-1.89,0-3.409,1.19-3.409,3.08v1.54c0,0.41-0.23,0.16-0.23,0.73c0,0,0.23,1.76,0.52,1.91c0.17,0.08,0.42,0.16,0.42,0.33
		c0,0,0.101,0.83,0.19,1.14c0.101,0.32,0.41,0.73,0.489,0.91c0,0,0.101,0.17,0.101,0.33c-0.021,0.14-0.101,0.29-0.101,0.33
		C29.262,299.25,28.623,299.57,28.412,299.65z"/>
	<path fill="#73AC43" d="M31.692,303.7c-0.56-0.59-5.62-2.94-6.56-3.26c0-0.2-0.11-0.92-0.38-1.04c-0.26-0.1-1.09-0.51-1.09-0.51
		c0-0.06-0.1-0.24-0.11-0.43c0-0.21,0.11-0.41,0.11-0.41c0.11-0.22,0.52-0.75,0.63-1.16c0.11-0.41,0.24-1.46,0.24-1.46
		c0-0.22,0.33-0.32,0.53-0.43c0.37-0.17,0.67-2.41,0.67-2.41c0-0.73-0.3-0.42-0.3-0.94v-1.95c0-2.4-2.03-3.7-4.43-3.7h-0.09
		c-2.4,0-4.23,1.3-4.23,3.7v1.95c0,0.52-0.3,0.21-0.3,0.94c0,0,0.3,2.24,0.66,2.41c0.21,0.11,0.54,0.21,0.54,0.43
		c0,0,0.13,1.05,0.24,1.46c0.11,0.41,0.52,0.94,0.63,1.16c0,0,0.11,0.2,0.11,0.41c-0.02,0.19-0.11,0.37-0.11,0.43
		c0,0-0.84,0.41-1.09,0.51c-0.27,0.12-0.38,0.84-0.38,1.04c-0.95,0.32-6,2.67-6.57,3.26c-0.41,0.43-0.41,2.94-0.41,2.94v0.31
		c0,0.57,0.47,1.05,1.04,1.05h20.02c0.57,0,1.05-0.48,1.05-1.05v-0.31C32.112,306.64,32.112,304.13,31.692,303.7z"/>
</g>
<g>
	<path opacity="0.1" fill-rule="evenodd" clip-rule="evenodd" fill="#FFFFFF" d="M5,605c0-10.49,8.51-19,19-19s19,8.51,19,19
		s-8.51,19-19,19S5,615.49,5,605z"/>
	<circle fill-rule="evenodd" clip-rule="evenodd" fill="#222222" cx="24" cy="605" r="17"/>
	<path opacity="0.1" fill-rule="evenodd" clip-rule="evenodd" fill="#FFFFFF" d="M9,605c0-8.279,6.72-15,15-15
		c8.279,0,15,6.721,15,15s-6.721,15-15,15C15.72,620,9,613.279,9,605z"/>
	<circle fill-rule="evenodd" clip-rule="evenodd" fill="#222222" cx="24" cy="605" r="13"/>
	<g opacity="0.7">
		<polygon fill-rule="evenodd" clip-rule="evenodd" fill="#FFFFFF" points="18,608 18,604 15,604 20,598 25,604 22,604 22,608 		"/>
		<polygon fill-rule="evenodd" clip-rule="evenodd" fill="#FFFFFF" points="30,601 30,605 33,605 28,611 23,605 26,605 26,601 		"/>
	</g>
</g>
<g>
	<path opacity="0.3" fill-rule="evenodd" clip-rule="evenodd" fill="#FFFFFF" d="M5,675c0-10.49,8.51-19,19-19s19,8.51,19,19
		s-8.51,19-19,19S5,685.49,5,675z"/>
	<circle fill-rule="evenodd" clip-rule="evenodd" fill="#222222" cx="24" cy="675" r="17"/>
	<path opacity="0.3" fill-rule="evenodd" clip-rule="evenodd" fill="#FFFFFF" d="M9,675c0-8.279,6.72-15,15-15
		c8.279,0,15,6.721,15,15s-6.721,15-15,15C15.72,690,9,683.279,9,675z"/>
	<circle fill-rule="evenodd" clip-rule="evenodd" fill="#222222" cx="24" cy="675" r="13"/>
	<g>
		<polygon fill-rule="evenodd" clip-rule="evenodd" fill="#2DA6DE" points="18,678 18,674 15,674 20,668 25,674 22,674 22,678 		"/>
		<polygon fill-rule="evenodd" clip-rule="evenodd" fill="#73AC43" points="30,671 30,675 33,675 28,681 23,675 26,675 26,671 		"/>
	</g>
</g>
<path fill-rule="evenodd" clip-rule="evenodd" fill="#FFFFFF" d="M24,733c-1.1,0-2-0.9-2-2s0.9-2,2-2c1.1,0,2,0.9,2,2
	S25.1,733,24,733z M30,732v-2h-2.141c-0.1-0.359-0.239-0.7-0.43-1.02l1.521-1.521l-1.41-1.41l-1.521,1.521
	c-0.319-0.19-0.66-0.33-1.02-0.43V725h-2v2.141c-0.36,0.1-0.7,0.239-1.02,0.43l-1.52-1.521l-1.41,1.41l1.52,1.521
	c-0.19,0.319-0.33,0.66-0.43,1.02H18v2h2.14c0.1,0.359,0.24,0.7,0.43,1.02l-1.52,1.521l1.41,1.41l1.52-1.521
	c0.32,0.19,0.66,0.33,1.02,0.43V737h2v-2.141c0.359-0.1,0.7-0.239,1.02-0.43l1.521,1.521l1.41-1.41l-1.521-1.521
	c0.19-0.319,0.33-0.66,0.43-1.02H30z"/>
<g opacity="0.3">
	<polygon fill-rule="evenodd" clip-rule="evenodd" fill="#010101" points="23,759 27,763 19,763 	"/>
	<polygon fill-rule="evenodd" clip-rule="evenodd" fill="#010101" points="23,769 19,765 27,765 	"/>
</g>
<g>
	<rect x="17" y="954" fill-rule="evenodd" clip-rule="evenodd" fill="#FFFFFF" width="15" height="9"/>
	<rect x="17" y="952" fill-rule="evenodd" clip-rule="evenodd" fill="#FFFFFF" width="14" height="1"/>
	<rect x="17" y="951" fill-rule="evenodd" clip-rule="evenodd" fill="#FFFFFF" width="7" height="1"/>
</g>
<g opacity="0.7">
	<polygon fill-rule="evenodd" clip-rule="evenodd" fill="#FFFFFF" points="24,829 20,824 28,824 	"/>
</g>
<g>
	<rect x="17" y="920" fill-rule="evenodd" clip-rule="evenodd" fill="#E5C973" width="15" height="9"/>
	<rect x="17" y="918" fill-rule="evenodd" clip-rule="evenodd" fill="#E5C973" width="14" height="1"/>
	<rect x="17" y="917" fill-rule="evenodd" clip-rule="evenodd" fill="#E5C973" width="7" height="1"/>
</g>
<g opacity="0.7">
	<polygon fill-rule="evenodd" clip-rule="evenodd" fill="#010101" points="24,799 20,794 28,794 	"/>
</g>
<g opacity="0.7">
	<polygon fill-rule="evenodd" clip-rule="evenodd" fill="#FFFFFF" points="26.5,886.5 21.5,890.5 21.5,882.5 	"/>
</g>
<g opacity="0.7">
	<polygon fill-rule="evenodd" clip-rule="evenodd" fill="#010101" points="26.5,856.5 21.5,860.5 21.5,852.5 	"/>
</g>
</svg>
