<?xml version="1.0" encoding="utf-8"?>
<!-- Generator: Adobe Illustrator 16.0.0, SVG Export Plug-In . SVG Version: 6.00 Build 0)  -->
<!DOCTYPE svg PUBLIC "-//W3C//DTD SVG 1.1//EN" "http://www.w3.org/Graphics/SVG/1.1/DTD/svg11.dtd">
<svg version="1.1" id="Layer_1" xmlns="http://www.w3.org/2000/svg" xmlns:xlink="http://www.w3.org/1999/xlink" x="0px" y="0px"
	 width="48px" height="7800px" viewBox="0 0 48 7800" enable-background="new 0 0 48 7800" xml:space="preserve">
<g opacity="0.7">
	<path opacity="0.3" fill="#FFFFFF" enable-background="new    " d="M36.012,163.65c1.711-0.971,2.932-2.45,2.99-4.371
		c0.102-4.18-3.91-7.239-7.91-8.109l-0.158-0.029c0.26,2.67-0.391,5.17-1.896,7.159c-1.53,2.021-3.819,3.38-6.55,3.96
		c1.32,1.631,3.43,2.67,5.979,2.84c1.225,0.09,2.459,0,3.709-0.17c1.344,1.08,3.271,1.145,4.91,1.03
		c0.512-0.04,0.41-0.26,0.021-0.36c-0.777-0.199-1.396-0.75-1.354-1.55C35.762,163.87,35.902,163.73,36.012,163.65z"/>
	<path opacity="0.5" fill="#FFFFFF" enable-background="new    " d="M29.732,149.9c-1.26-5.854-7.021-7.78-12.625-6.541
		c-5.12,1.141-10.24,5.131-10.11,10.601c0.07,2.511,1.63,4.45,3.82,5.71c0.15,0.1,0.32,0.28,0.33,0.52
		c0.05,1.056-0.73,1.771-1.72,2.031c-0.51,0.129-0.62,0.409,0.03,0.469c2.08,0.146,4.55,0.062,6.27-1.34
		c1.59,0.221,3.17,0.34,4.73,0.221C26.873,161.109,31.143,156.33,29.732,149.9z"/>
</g>
<g opacity="0.5">
	<path fill="#FFFFFF" d="M35.002,66.48c0,0.274-0.24,0.52-0.52,0.52h-3.48c-0.02-1.859-0.369-2.23-0.539-2.41
		c-0.359-0.359-1.771-1.07-2.939-1.609c0.029-0.101,0.08-0.211,0.146-0.235c0.131-0.056,0.541-0.25,0.541-0.25
		c0-0.03,0.049-0.12,0.062-0.216c0-0.104-0.062-0.209-0.062-0.209c-0.059-0.105-0.25-0.365-0.312-0.565
		c-0.062-0.198-0.119-0.726-0.119-0.726c0-0.104-0.153-0.154-0.271-0.209c-0.18-0.09-0.483-1.195-0.483-1.195
		c0-0.355-0.017-0.2-0.017-0.46v-0.976c0-1.188,1.28-1.938,2.479-1.938h0.039c1.201,0,2.479,0.75,2.479,1.938v0.976
		c0,0.26-0.01,0.104-0.01,0.46c0,0-0.229,1.105-0.41,1.195c-0.104,0.055-0.312,0.104-0.312,0.209c0,0-0.08,0.521-0.144,0.726
		c-0.051,0.2-0.271,0.46-0.317,0.565c0,0-0.062,0.106-0.062,0.209c0,0.096,0.051,0.186,0.051,0.216c0,0,0.41,0.194,0.539,0.25
		c0.136,0.062,0.188,0.42,0.188,0.521c0.474,0.157,2.979,1.317,3.271,1.607C35,65.08,35,66.32,35,66.32v0.16H35.002z M30.002,67.34
		c0,0.36-0.299,0.66-0.66,0.66H16.663c-0.36,0-0.66-0.3-0.66-0.66v-0.199c0,0,0-1.58,0.261-1.851c0.359-0.37,3.56-1.851,4.159-2.05
		c0-0.131,0.07-0.58,0.24-0.66c0.16-0.061,0.69-0.32,0.69-0.32c0-0.039,0.06-0.146,0.069-0.27c0-0.131-0.069-0.26-0.069-0.26
		c-0.07-0.146-0.33-0.476-0.4-0.73c-0.07-0.26-0.15-0.92-0.15-0.92c0-0.141-0.21-0.2-0.34-0.27c-0.23-0.11-0.54-1.521-0.54-1.521
		c0-0.46,0.08-0.262,0.08-0.59v-1.229c0-1.516,1.45-2.476,2.97-2.476h0.061c1.521,0,2.97,0.96,2.97,2.476V57.7
		c0,0.329,0.08,0.13,0.08,0.59c0,0-0.25,1.41-0.479,1.521c-0.129,0.069-0.369,0.129-0.369,0.271c0,0-0.104,0.66-0.17,0.92
		c-0.067,0.262-0.33,0.59-0.397,0.729c0,0-0.08,0.129-0.08,0.265c0.013,0.114,0.067,0.229,0.067,0.271c0,0,0.529,0.26,0.688,0.317
		c0.172,0.08,0.24,0.526,0.24,0.66c0.602,0.196,3.801,1.68,4.16,2.05c0.26,0.271,0.26,1.854,0.26,1.854L30.002,67.34L30.002,67.34z
		 M15.002,67h-3.48c-0.28,0-0.52-0.24-0.52-0.52v-0.16c0,0,0-1.24,0.2-1.45c0.29-0.29,2.8-1.45,3.271-1.61
		c0-0.1,0.06-0.46,0.189-0.52c0.13-0.051,0.54-0.25,0.54-0.25c0-0.03,0.05-0.12,0.06-0.211c0-0.104-0.06-0.209-0.06-0.209
		c-0.05-0.11-0.261-0.37-0.31-0.57c-0.061-0.2-0.121-0.721-0.121-0.721c0-0.109-0.16-0.159-0.27-0.209c-0.18-0.09-0.49-1.2-0.49-1.2
		c0-0.36-0.01-0.2-0.01-0.46v-0.971c0-1.189,1.28-1.939,2.48-1.939h0.039c1.201,0,2.48,0.75,2.48,1.939v0.971
		c0,0.26-0.01,0.1-0.01,0.46c0,0-0.23,1.11-0.41,1.2c-0.109,0.05-0.311,0.1-0.311,0.209c0,0-0.08,0.521-0.14,0.721
		s-0.271,0.46-0.319,0.57c0,0-0.061,0.104-0.061,0.209c0,0.091,0.05,0.181,0.05,0.211c0,0,0.41,0.199,0.54,0.25
		c0.061,0.029,0.11,0.14,0.141,0.24c-1.17,0.539-2.58,1.25-2.94,1.604C15.373,64.77,15.021,65.141,15.002,67z M8.002,52v18
		c0,0.55,0.45,1,1,1h28c0.551,0,1-0.45,1-1V52H8.002z"/>
	<path fill="#FFFFFF" d="M36.002,50c0-0.55-0.449-1-1-1h-10l-2-2h-14c-0.55,0-1,0.45-1,1v1v2h28V50z"/>
</g>
<g opacity="0.5">
	<g>
		<path fill="#FFFFFF" d="M8.002,14.37c0,3.659,2.77,6.63,6.17,6.63h0.15h17.51c3.4,0,6.17-2.971,6.17-6.63
			c0-3.55-2.609-6.46-5.879-6.62V7.73c0-4.26-3.221-7.73-7.201-7.73c-2.58,0-4.839,1.45-6.109,3.63
			c-0.43-0.2-0.899-0.319-1.39-0.319c-1.95,0-3.54,1.709-3.54,3.789c0,0.23,0.02,0.44,0.05,0.65
			C10.632,7.88,8.002,10.79,8.002,14.37z"/>
	</g>
</g>
<g opacity="0.7">
	<path opacity="0.3" fill="#FFFFFF" enable-background="new    " d="M27.412,109.65c-0.09,0.05-0.17,0.22-0.221,0.379
		c1.852,0.857,4.07,1.99,4.641,2.561c0.271,0.28,0.82,0.46,0.852,3.41h5.5c0.439,0,0.818-0.38,0.818-0.83v-0.25
		c0,0,0-1.55-0.318-1.891c-0.451-0.459-4.422-2.299-5.16-2.549c0-0.16-0.09-0.73-0.301-0.83c-0.199-0.08-0.85-0.4-0.85-0.4
		c0-0.04-0.08-0.189-0.102-0.33c0-0.16,0.102-0.33,0.102-0.33c0.08-0.18,0.409-0.59,0.488-0.91c0.092-0.31,0.188-1.14,0.188-1.14
		c0-0.17,0.25-0.25,0.424-0.33c0.289-0.149,0.521-1.91,0.521-1.91c0-0.569-0.229-0.319-0.229-0.729v-1.534
		c0-1.896-1.521-3.08-3.408-3.08H30.29c-1.894,0-3.409,1.188-3.409,3.08v1.534c0,0.41-0.229,0.16-0.229,0.729
		c0,0,0.229,1.761,0.521,1.91c0.17,0.08,0.42,0.16,0.42,0.33c0,0,0.103,0.83,0.188,1.14c0.103,0.32,0.41,0.73,0.49,0.91
		c0,0,0.102,0.17,0.102,0.33c-0.021,0.141-0.102,0.29-0.102,0.33C28.262,109.25,27.623,109.57,27.412,109.65z"/>
	<path opacity="0.5" fill="#FFFFFF" enable-background="new    " d="M30.691,113.7c-0.562-0.591-5.619-2.94-6.562-3.261
		c0-0.199-0.109-0.92-0.38-1.039c-0.26-0.104-1.09-0.51-1.09-0.51c0-0.062-0.101-0.24-0.11-0.436c0-0.21,0.11-0.41,0.11-0.41
		c0.11-0.22,0.521-0.75,0.63-1.154c0.109-0.41,0.24-1.461,0.24-1.461c0-0.225,0.328-0.318,0.53-0.435
		c0.366-0.17,0.667-2.41,0.667-2.41c0-0.729-0.306-0.42-0.306-0.938V99.7c0-2.4-2.03-3.7-4.43-3.7h-0.09c-2.4,0-4.23,1.3-4.23,3.7
		v1.95c0,0.52-0.3,0.209-0.3,0.938c0,0,0.3,2.24,0.66,2.41c0.21,0.107,0.54,0.21,0.54,0.432c0,0,0.13,1.051,0.239,1.461
		c0.11,0.407,0.521,0.938,0.631,1.157c0,0,0.109,0.2,0.109,0.41c-0.02,0.188-0.109,0.37-0.109,0.433c0,0-0.84,0.407-1.09,0.51
		c-0.271,0.119-0.381,0.843-0.381,1.039c-0.949,0.318-6,2.67-6.569,3.264C9,114.13,9,116.641,9,116.641v0.312
		c0,0.568,0.47,1.05,1.04,1.05h20.021c0.569,0,1.049-0.479,1.049-1.05v-0.312C31.111,116.641,31.111,114.13,30.691,113.7z"/>
</g>
<g>
	<path fill="#FFFFFF" d="M36.01,543.65c1.711-0.979,2.93-2.45,2.99-4.371c0.1-4.188-3.91-7.239-7.91-8.109l-0.16-0.029
		c0.26,2.67-0.39,5.17-1.9,7.159c-1.521,2.021-3.812,3.38-6.542,3.96c1.32,1.631,3.43,2.67,5.979,2.84c1.227,0.102,2.46,0,3.71-0.17
		c1.347,1.08,3.271,1.146,4.91,1.03c0.513-0.04,0.41-0.26,0.021-0.354c-0.772-0.194-1.395-0.75-1.354-1.555
		C35.76,543.87,35.9,543.73,36.01,543.65z"/>
	<path fill="#FFFFFF" d="M29.73,529.9c-1.26-5.854-7.021-7.78-12.625-6.541C11.99,524.5,6.87,528.49,7,533.96
		c0.07,2.511,1.63,4.45,3.82,5.71c0.15,0.1,0.32,0.28,0.33,0.521c0.05,1.051-0.73,1.771-1.72,2.021
		c-0.51,0.136-0.62,0.409,0.03,0.479c2.08,0.141,4.55,0.061,6.271-1.342c1.59,0.223,3.17,0.342,4.729,0.223
		C26.87,541.109,31.141,536.33,29.73,529.9z"/>
</g>
<g>
	<path fill="#FFFFFF" d="M27.41,489.65c-0.09,0.05-0.17,0.22-0.221,0.379c1.851,0.854,4.062,1.98,4.641,2.561
		c0.27,0.28,0.82,0.46,0.85,3.41h5.5c0.44,0,0.82-0.38,0.82-0.83v-0.25c0,0,0-1.55-0.32-1.891c-0.449-0.459-4.42-2.299-5.16-2.549
		c0-0.16-0.09-0.73-0.299-0.83c-0.201-0.08-0.851-0.4-0.851-0.4c0-0.04-0.08-0.189-0.101-0.33c0-0.16,0.101-0.33,0.101-0.33
		c0.08-0.18,0.409-0.59,0.489-0.91c0.091-0.31,0.188-1.14,0.188-1.14c0-0.17,0.25-0.25,0.424-0.33
		c0.286-0.147,0.521-1.91,0.521-1.91c0-0.562-0.23-0.312-0.23-0.729v-1.541c0-1.896-1.52-3.079-3.408-3.079H30.29
		c-1.896,0-3.406,1.188-3.406,3.079v1.541c0,0.409-0.229,0.159-0.229,0.729c0,0,0.229,1.761,0.521,1.91
		c0.172,0.08,0.422,0.16,0.422,0.33c0,0,0.104,0.83,0.188,1.14c0.104,0.32,0.408,0.73,0.486,0.91c0,0,0.104,0.17,0.104,0.33
		c-0.021,0.141-0.104,0.29-0.104,0.33C28.26,489.25,27.62,489.57,27.41,489.65z"/>
	<path fill="#FFFFFF" d="M30.689,493.7c-0.562-0.591-5.619-2.94-6.562-3.261c0-0.199-0.107-0.922-0.38-1.039
		c-0.261-0.104-1.09-0.521-1.09-0.521c0-0.062-0.101-0.229-0.11-0.431c0-0.21,0.11-0.41,0.11-0.41c0.11-0.222,0.521-0.75,0.63-1.159
		c0.107-0.398,0.238-1.461,0.238-1.461c0-0.22,0.33-0.312,0.532-0.43c0.367-0.172,0.669-2.41,0.669-2.41
		c0-0.729-0.308-0.42-0.308-0.938v-1.947c0-2.399-2.03-3.699-4.431-3.699H19.9c-2.4,0-4.23,1.3-4.23,3.699v1.947
		c0,0.521-0.3,0.211-0.3,0.938c0,0,0.3,2.238,0.66,2.41c0.21,0.104,0.54,0.21,0.54,0.43c0,0,0.13,1.062,0.24,1.461
		c0.109,0.409,0.52,0.938,0.629,1.159c0,0,0.111,0.2,0.111,0.41c-0.021,0.188-0.111,0.368-0.111,0.431c0,0-0.84,0.409-1.09,0.521
		c-0.27,0.117-0.379,0.84-0.379,1.039c-0.951,0.312-6,2.67-6.571,3.261c-0.41,0.43-0.41,2.938-0.41,2.938v0.312
		c0,0.562,0.47,1.05,1.04,1.05H30.05c0.566,0,1.052-0.48,1.052-1.05v-0.312C31.109,496.641,31.109,494.13,30.689,493.7z"/>
</g>
<g>
	<path fill="#FFFFFF" d="M35,446.48c0,0.271-0.24,0.52-0.52,0.52H31c-0.02-1.859-0.37-2.23-0.54-2.41
		c-0.36-0.359-1.771-1.07-2.94-1.609c0.03-0.101,0.08-0.211,0.146-0.229c0.13-0.052,0.54-0.25,0.54-0.25
		c0-0.028,0.05-0.12,0.062-0.21c0-0.104-0.062-0.21-0.062-0.21c-0.056-0.108-0.25-0.37-0.312-0.57
		c-0.062-0.194-0.121-0.72-0.121-0.72c0-0.107-0.16-0.16-0.271-0.21c-0.182-0.095-0.488-1.2-0.488-1.2
		c0-0.354-0.012-0.197-0.012-0.46v-0.972c0-1.188,1.277-1.938,2.479-1.938h0.039c1.201,0,2.479,0.75,2.479,1.938v0.972
		c0,0.263-0.015,0.104-0.015,0.46c0,0-0.229,1.104-0.405,1.2c-0.104,0.05-0.312,0.103-0.312,0.21c0,0-0.08,0.521-0.146,0.72
		c-0.051,0.2-0.271,0.462-0.312,0.57c0,0-0.062,0.104-0.062,0.21c0,0.09,0.05,0.182,0.05,0.21c0,0,0.41,0.198,0.54,0.25
		c0.131,0.062,0.188,0.42,0.188,0.521c0.478,0.156,2.979,1.316,3.271,1.606c0.2,0.21,0.2,1.45,0.2,1.45v0.152H35L35,446.48z
		 M30,447.34c0,0.36-0.3,0.66-0.66,0.66H16.66c-0.36,0-0.66-0.3-0.66-0.66v-0.199c0,0,0-1.58,0.26-1.851
		c0.36-0.37,3.561-1.851,4.16-2.05c0-0.131,0.07-0.58,0.24-0.66c0.16-0.062,0.689-0.32,0.689-0.32c0-0.04,0.061-0.146,0.07-0.27
		c0-0.131-0.07-0.26-0.07-0.26c-0.07-0.146-0.33-0.479-0.399-0.73c-0.07-0.26-0.15-0.92-0.15-0.92c0-0.141-0.21-0.2-0.34-0.271
		c-0.229-0.104-0.54-1.52-0.54-1.52c0-0.46,0.08-0.26,0.08-0.59v-1.23c0-1.51,1.45-2.47,2.971-2.47h0.059
		c1.521,0,2.971,0.96,2.971,2.47v1.23c0,0.33,0.08,0.13,0.08,0.59c0,0-0.25,1.41-0.479,1.52c-0.129,0.07-0.369,0.131-0.369,0.271
		c0,0-0.102,0.66-0.17,0.92c-0.062,0.26-0.33,0.59-0.396,0.73c0,0-0.08,0.129-0.08,0.26c0.011,0.119,0.065,0.229,0.065,0.27
		c0,0,0.529,0.26,0.688,0.32c0.172,0.08,0.24,0.529,0.24,0.66c0.602,0.199,3.8,1.68,4.16,2.05c0.26,0.271,0.26,1.851,0.26,1.851
		V447.34L30,447.34z M15,447h-3.48c-0.28,0-0.52-0.24-0.52-0.52v-0.16c0,0,0-1.24,0.2-1.45c0.29-0.29,2.8-1.45,3.271-1.61
		c0-0.1,0.059-0.46,0.189-0.52c0.13-0.051,0.54-0.25,0.54-0.25c0-0.03,0.05-0.12,0.06-0.21c0-0.104-0.06-0.21-0.06-0.21
		c-0.05-0.11-0.261-0.37-0.31-0.57c-0.061-0.2-0.121-0.72-0.121-0.72c0-0.11-0.16-0.16-0.27-0.21c-0.18-0.09-0.49-1.2-0.49-1.2
		c0-0.36-0.01-0.2-0.01-0.46v-0.971c0-1.189,1.279-1.939,2.48-1.939h0.039c1.201,0,2.48,0.75,2.48,1.939v0.971
		c0,0.26-0.01,0.1-0.01,0.46c0,0-0.23,1.11-0.41,1.2c-0.109,0.05-0.311,0.1-0.311,0.21c0,0-0.08,0.52-0.14,0.72
		s-0.271,0.46-0.319,0.57c0,0-0.061,0.104-0.061,0.21c0,0.09,0.05,0.18,0.05,0.21c0,0,0.41,0.199,0.54,0.25
		c0.061,0.029,0.11,0.14,0.141,0.24c-1.17,0.539-2.58,1.25-2.94,1.604C15.37,444.77,15.02,445.141,15,447z M8,432v18
		c0,0.55,0.45,1,1,1h28c0.55,0,1-0.45,1-1v-18H8z"/>
	<path fill="#FFFFFF" d="M36,430c0-0.55-0.45-1-1-1H25l-2-2H9c-0.55,0-1,0.45-1,1v1v2h28V430z"/>
</g>
<g>
	<g>
		<path fill="#FFFFFF" d="M8,394.37c0,3.659,2.77,6.63,6.17,6.63h0.15h17.51c3.4,0,6.17-2.971,6.17-6.63
			c0-3.55-2.609-6.46-5.88-6.62v-0.02c0-4.26-3.22-7.73-7.2-7.73c-2.58,0-4.84,1.45-6.109,3.63c-0.431-0.2-0.9-0.319-1.391-0.319
			c-1.949,0-3.54,1.709-3.54,3.789c0,0.23,0.02,0.44,0.05,0.65C10.63,387.88,8,390.79,8,394.37z"/>
	</g>
</g>
<g>
	<path fill="#3CA4DC" d="M36.012,353.65c1.711-0.971,2.932-2.45,2.99-4.371c0.102-4.18-3.91-7.239-7.91-8.109l-0.158-0.029
		c0.26,2.67-0.391,5.17-1.896,7.159c-1.53,2.021-3.819,3.38-6.55,3.96c1.32,1.631,3.43,2.67,5.979,2.84
		c1.225,0.09,2.459,0,3.709-0.17c1.344,1.08,3.271,1.146,4.91,1.03c0.512-0.04,0.41-0.26,0.021-0.36
		c-0.777-0.199-1.396-0.75-1.354-1.55C35.762,353.87,35.902,353.73,36.012,353.65z"/>
	<path fill="#3CA4DC" d="M29.732,339.9c-1.26-5.854-7.021-7.78-12.625-6.541c-5.12,1.141-10.24,5.131-10.11,10.601
		c0.07,2.511,1.63,4.45,3.82,5.71c0.15,0.1,0.32,0.28,0.33,0.52c0.05,1.056-0.73,1.771-1.72,2.031
		c-0.51,0.129-0.62,0.409,0.03,0.469c2.08,0.146,4.55,0.062,6.27-1.34c1.59,0.221,3.17,0.34,4.73,0.221
		C26.873,351.109,31.143,346.33,29.732,339.9z"/>
</g>
<path fill="#F1AC21" d="M35.002,256.48c0,0.274-0.24,0.52-0.52,0.52h-3.48c-0.02-1.859-0.369-2.23-0.539-2.41
	c-0.359-0.359-1.771-1.07-2.939-1.609c0.029-0.101,0.08-0.211,0.146-0.235c0.131-0.056,0.541-0.25,0.541-0.25
	c0-0.03,0.049-0.12,0.062-0.216c0-0.104-0.062-0.209-0.062-0.209c-0.059-0.105-0.25-0.365-0.312-0.565
	c-0.062-0.198-0.119-0.726-0.119-0.726c0-0.104-0.153-0.154-0.271-0.209c-0.18-0.09-0.483-1.195-0.483-1.195
	c0-0.355-0.017-0.2-0.017-0.46v-0.976c0-1.188,1.28-1.938,2.479-1.938h0.039c1.201,0,2.479,0.75,2.479,1.938v0.976
	c0,0.26-0.01,0.104-0.01,0.46c0,0-0.229,1.105-0.41,1.195c-0.104,0.055-0.312,0.104-0.312,0.209c0,0-0.08,0.521-0.144,0.726
	c-0.051,0.2-0.271,0.46-0.317,0.565c0,0-0.062,0.109-0.062,0.209c0,0.096,0.051,0.186,0.051,0.216c0,0,0.41,0.194,0.539,0.25
	c0.136,0.062,0.188,0.42,0.188,0.521c0.474,0.157,2.979,1.317,3.271,1.607c0.2,0.208,0.2,1.447,0.2,1.447v0.16H35.002L35.002,256.48
	z M30.002,257.34c0,0.36-0.299,0.66-0.66,0.66H16.663c-0.36,0-0.66-0.3-0.66-0.66v-0.199c0,0,0-1.58,0.261-1.851
	c0.359-0.37,3.56-1.851,4.159-2.05c0-0.131,0.07-0.58,0.24-0.66c0.16-0.061,0.69-0.32,0.69-0.32c0-0.039,0.06-0.15,0.069-0.27
	c0-0.131-0.069-0.26-0.069-0.26c-0.07-0.146-0.33-0.476-0.4-0.73c-0.07-0.26-0.15-0.92-0.15-0.92c0-0.141-0.21-0.2-0.34-0.27
	c-0.23-0.11-0.54-1.521-0.54-1.521c0-0.46,0.08-0.262,0.08-0.59v-1.23c0-1.51,1.45-2.47,2.97-2.47h0.061
	c1.521,0,2.97,0.96,2.97,2.47v1.23c0,0.328,0.08,0.13,0.08,0.59c0,0-0.25,1.41-0.479,1.521c-0.129,0.064-0.369,0.129-0.369,0.27
	c0,0-0.104,0.66-0.17,0.92c-0.067,0.26-0.33,0.59-0.397,0.73c0,0-0.08,0.129-0.08,0.26c0.013,0.119,0.067,0.229,0.067,0.27
	c0,0,0.529,0.26,0.688,0.32c0.172,0.08,0.24,0.529,0.24,0.66c0.602,0.199,3.801,1.68,4.16,2.05c0.26,0.271,0.26,1.851,0.26,1.851
	L30.002,257.34L30.002,257.34z M15.002,257h-3.48c-0.28,0-0.52-0.24-0.52-0.52v-0.16c0,0,0-1.24,0.2-1.45
	c0.29-0.29,2.8-1.45,3.271-1.61c0-0.1,0.06-0.46,0.189-0.52c0.13-0.051,0.54-0.25,0.54-0.25c0-0.03,0.05-0.12,0.06-0.211
	c0-0.104-0.06-0.209-0.06-0.209c-0.05-0.11-0.261-0.37-0.31-0.57c-0.061-0.2-0.121-0.721-0.121-0.721c0-0.109-0.16-0.159-0.27-0.209
	c-0.18-0.09-0.49-1.2-0.49-1.2c0-0.36-0.01-0.2-0.01-0.46v-0.971c0-1.189,1.28-1.939,2.48-1.939h0.039c1.201,0,2.48,0.75,2.48,1.939
	v0.971c0,0.26-0.01,0.1-0.01,0.46c0,0-0.23,1.11-0.41,1.2c-0.109,0.05-0.311,0.1-0.311,0.209c0,0-0.08,0.521-0.14,0.721
	s-0.271,0.46-0.319,0.57c0,0-0.061,0.105-0.061,0.209c0,0.091,0.05,0.181,0.05,0.211c0,0,0.41,0.199,0.54,0.25
	c0.061,0.029,0.11,0.14,0.141,0.24c-1.17,0.539-2.58,1.25-2.94,1.604C15.373,254.77,15.021,255.141,15.002,257z M8.002,242v18
	c0,0.55,0.45,1,1,1h28c0.551,0,1-0.45,1-1v-18H8.002z"/>
<path fill="#F1AC21" d="M36.002,240c0-0.55-0.449-1-1-1h-10l-2-2h-14c-0.55,0-1,0.45-1,1v1v2h28V240z"/>
<g>
	<g>
		<path fill="#D22B29" d="M8.002,204.37c0,3.659,2.77,6.63,6.17,6.63h0.15h17.51c3.4,0,6.17-2.971,6.17-6.63
			c0-3.55-2.609-6.46-5.879-6.62v-0.02c0-4.26-3.221-7.73-7.201-7.73c-2.58,0-4.839,1.45-6.109,3.63
			c-0.43-0.2-0.899-0.319-1.39-0.319c-1.95,0-3.54,1.709-3.54,3.789c0,0.23,0.02,0.44,0.05,0.65
			C10.632,197.88,8.002,200.79,8.002,204.37z"/>
	</g>
</g>
<g>
	<path opacity="0.1" fill="#FFFFFF" enable-background="new    " d="M4,605c0-10.49,8.51-19,19-19s19,8.51,19,19s-8.51,19-19,19
		S4,615.49,4,605z"/>
	<circle fill="#222222" cx="23" cy="605" r="17"/>
	<path opacity="0.1" fill="#FFFFFF" enable-background="new    " d="M8,605c0-8.279,6.721-15,15-15c8.279,0,15,6.721,15,15
		s-6.721,15-15,15C14.721,620,8,613.279,8,605z"/>
	<circle fill="#222222" cx="23" cy="605" r="13"/>
	<g opacity="0.7">
		<polygon fill="#FFFFFF" points="17,608 17,604 14,604 19,598 24,604 21,604 21,608 		"/>
		<polygon fill="#FFFFFF" points="29,601 29,605 32,605 27,611 22,605 25,605 25,601 		"/>
	</g>
</g>
<g>
	<path opacity="0.3" fill="#FFFFFF" enable-background="new    " d="M4,675c0-10.49,8.51-19,19-19s19,8.51,19,19s-8.51,19-19,19
		S4,685.49,4,675z"/>
	<circle fill="#222222" cx="23" cy="675" r="17"/>
	<path opacity="0.3" fill="#FFFFFF" enable-background="new    " d="M8,675c0-8.279,6.721-15,15-15c8.279,0,15,6.721,15,15
		s-6.721,15-15,15C14.721,690,8,683.279,8,675z"/>
	<circle fill="#222222" cx="23" cy="675" r="13"/>
	<g>
		<polygon fill="#3CA4DC" points="17,678 17,674 14,674 19,668 24,674 21,674 21,678 		"/>
		<polygon fill="#73AC43" points="29,671 29,675 32,675 27,681 22,675 25,675 25,671 		"/>
	</g>
</g>
<path fill="#FFFFFF" d="M23,733c-1.1,0-2-0.9-2-2s0.9-2,2-2s2,0.9,2,2S24.1,733,23,733z M29,732v-2h-2.141
	c-0.104-0.359-0.239-0.7-0.43-1.02l1.521-1.521l-1.41-1.41l-1.521,1.521c-0.319-0.19-0.667-0.33-1.021-0.438V725h-2v2.141
	c-0.359,0.104-0.7,0.239-1.02,0.438l-1.521-1.521l-1.41,1.405l1.521,1.521c-0.19,0.312-0.33,0.656-0.43,1.021H17v2h2.141
	c0.1,0.359,0.239,0.7,0.43,1.021l-1.521,1.521l1.41,1.41l1.521-1.521c0.319,0.188,0.66,0.33,1.02,0.437V737h2v-2.141
	c0.358-0.104,0.7-0.239,1.021-0.438l1.521,1.521l1.41-1.405l-1.521-1.521c0.189-0.312,0.33-0.656,0.43-1.021L29,732L29,732z"/>
<g opacity="0.3">
	<polygon fill="#090909" points="22,759 26,763 18,763 	"/>
	<polygon fill="#090909" points="22,769 18,765 26,765 	"/>
</g>
<g>
	<rect x="16" y="954" fill="#FFFFFF" width="15" height="9"/>
	<rect x="16" y="952" fill="#FFFFFF" width="14" height="1"/>
	<rect x="16" y="951" fill="#FFFFFF" width="7" height="1"/>
</g>
<g opacity="0.7">
	<polygon fill="#FFFFFF" points="23,829 19,824 27,824 	"/>
</g>
<g>
	<rect x="16" y="920" fill="#E5C973" width="15" height="9"/>
	<rect x="16" y="918" fill="#E5C973" width="14" height="1"/>
	<rect x="16" y="917" fill="#E5C973" width="7" height="1"/>
</g>
<g opacity="0.7">
	<polygon fill="#090909" points="23,799 19,794 27,794 	"/>
</g>
<g opacity="0.7">
	<polygon fill="#FFFFFF" points="25.5,886.5 20.5,890.5 20.5,882.5 	"/>
</g>
<g opacity="0.7">
	<polygon fill="#090909" points="25.5,856.5 20.5,860.5 20.5,852.5 	"/>
</g>
<path fill="#070707" d="M7,1013.53c0,1.909,1.48,3.47,3.29,3.47h0.08h9.34c1.81,0,3.29-1.561,3.29-3.47
	c0-1.86-1.391-3.396-3.141-3.47v-0.021c0-2.229-1.719-4.05-3.84-4.05c-1.369,0-2.58,0.76-3.25,1.896
	c-0.23-0.104-0.48-0.158-0.75-0.158c-1.04,0-1.88,0.894-1.88,1.979c0,0.12,0,0.229,0.02,0.349C8.4,1010.12,7,1011.65,7,1013.53z"/>
<g>
	<path fill="#FFFFFF" d="M7,1103.529c0,1.91,1.48,3.471,3.29,3.471h0.08h9.34c1.81,0,3.29-1.561,3.29-3.471
		c0-1.859-1.391-3.393-3.141-3.469v-0.021c0-2.229-1.719-4.05-3.84-4.05c-1.369,0-2.58,0.76-3.25,1.896
		c-0.23-0.104-0.48-0.158-0.75-0.158c-1.04,0-1.88,0.895-1.88,1.979c0,0.119,0,0.229,0.02,0.34C8.4,1100.12,7,1101.65,7,1103.529z"
		/>
	<rect x="12" y="1107" fill="#FFFFFF" width="6" height="2"/>
	<polygon fill="#6BB7E6" points="13,1108 13,1106 11,1106 15,1101 19,1106 17,1106 17,1108 	"/>
</g>
<g>
	<path fill="#FFFFFF" d="M7,1133.529c0,1.91,1.48,3.471,3.29,3.471h0.08h9.34c1.81,0,3.29-1.561,3.29-3.471
		c0-1.859-1.391-3.393-3.141-3.469v-0.021c0-2.229-1.719-4.05-3.84-4.05c-1.369,0-2.58,0.76-3.25,1.896
		c-0.23-0.104-0.48-0.158-0.75-0.158c-1.04,0-1.88,0.895-1.88,1.979c0,0.119,0,0.229,0.02,0.34C8.4,1130.12,7,1131.65,7,1133.529z"
		/>
	<rect x="12" y="1137" fill="#FFFFFF" width="6" height="2"/>
	<polygon fill="#419ED8" points="13,1138 13,1136 11,1136 15,1131 19,1136 17,1136 17,1138 	"/>
</g>
<g>
	<rect x="7" y="1336" fill="#070707" width="16" height="4"/>
	<rect x="7" y="1342" fill="#070707" width="16" height="4"/>
	<rect x="7" y="1348" fill="#070707" width="16" height="4"/>
</g>
<g>
	<rect x="25" y="1336" fill="#070707" width="7" height="7"/>
	<rect x="34" y="1336" fill="#070707" width="7" height="7"/>
	<rect x="34" y="1345" fill="#070707" width="7" height="7"/>
	<rect x="25" y="1345" fill="#070707" width="7" height="7"/>
</g>
<g>
	<polygon fill="#070707" points="19,1391 16,1391 16,1400 	"/>
	<polygon fill="#070707" points="20,1392 32,1392 29,1401 17,1401 	"/>
	<rect x="16" y="1390" fill="#070707" width="14" height="1"/>
	<rect x="16" y="1389" fill="#070707" width="7" height="1"/>
</g>
<rect x="46" y="1533" opacity="0.05" fill="#070707" enable-background="new    " width="2" height="16"/>
<path opacity="0.15" fill="#070707" enable-background="new    " d="M47,1444.59l-7.29-7.3c-0.39-0.39-1.03-0.39-1.42,0
	s-0.39,1.03,0,1.42l6.3,6.29l-6.3,6.29c-0.39,0.39-0.39,1.03,0,1.42c0.2,0.19,0.45,0.29,0.71,0.29s0.51-0.1,0.71-0.29l7.29-7.3
	V1444.59z"/>
<polygon opacity="0.3" fill="#070707" enable-background="new    " points="22,1483.42 25.71,1486 24.4,1481.68 28,1478.95 
	23.48,1478.85 22,1474.59 20.52,1478.85 16,1478.95 19.6,1481.68 18.29,1486 "/>
<g opacity="0.2">
	<path fill="#191819" d="M20,1506c0-1.1,0.9-2,2-2s2,0.9,2,2s-0.9,2-2,2S20,1507.1,20,1506z"/>
</g>
<path fill="#FFFFFF" d="M7,1067v9h15v-5.029c-0.16,0.021-0.33,0.029-0.5,0.029c-2.32,0-4.221-1.75-4.471-4H7z M7,1065v1h10.029
	c0.041-0.35,0.121-0.68,0.229-1H14v-1H7V1065z M18,1066.5c0,1.93,1.57,3.5,3.5,3.5s3.5-1.57,3.5-3.5s-1.57-3.5-3.5-3.5
	S18,1064.57,18,1066.5z M21,1064h1v2h2v1h-2v2h-1v-2h-2v-1h2V1064z"/>
<g opacity="0.4">
	<polygon fill="#070707" points="32,1240.5 28,1235.5 36,1235.5 	"/>
</g>
<g opacity="0.4">
	<polygon fill="#070707" points="32,1295.5 28,1300.5 36,1300.5 	"/>
</g>
<path opacity="0.15" fill="#070707" enable-background="new    " d="M4,1582h32c1.1,0,2,0.9,2,2v12c0,1.1-0.9,2-2,2H4
	c-1.1,0-2-0.9-2-2v-12C2,1582.9,2.9,1582,4,1582z"/>
<g>
	<path fill="#FFFFFF" d="M27,1590c0-1.66,1.34-3,3-3s3,1.34,3,3s-1.34,3-3,3S27,1591.66,27,1590z"/>
	<path fill="#FFFFFF" d="M17,1590c0-1.66,1.34-3,3-3s3,1.34,3,3s-1.34,3-3,3S17,1591.66,17,1590z"/>
	<path fill="#FFFFFF" d="M7,1590c0-1.66,1.34-3,3-3s3,1.34,3,3s-1.34,3-3,3S7,1591.66,7,1590z"/>
</g>
<path opacity="0.3" fill="#070707" enable-background="new    " d="M4,1562h32c1.1,0,2,0.9,2,2v12c0,1.1-0.9,2-2,2H4
	c-1.1,0-2-0.9-2-2v-12C2,1562.9,2.9,1562,4,1562z"/>
<g>
	<path fill="#FFFFFF" d="M27,1570c0-1.66,1.34-3,3-3s3,1.34,3,3s-1.34,3-3,3S27,1571.66,27,1570z"/>
	<path fill="#FFFFFF" d="M17,1570c0-1.66,1.34-3,3-3s3,1.34,3,3s-1.34,3-3,3S17,1571.66,17,1570z"/>
	<path fill="#FFFFFF" d="M7,1570c0-1.66,1.34-3,3-3s3,1.34,3,3s-1.34,3-3,3S7,1571.66,7,1570z"/>
</g>
<g>
	<rect x="7" y="1166" fill="#FFFFFF" width="16" height="9"/>
	<rect x="7" y="1164" fill="#FFFFFF" width="15" height="1"/>
	<rect x="7" y="1163" fill="#FFFFFF" width="7" height="1"/>
</g>
<g>
	<rect x="7" y="1196" fill="#FFFFFF" width="16" height="9"/>
	<rect x="7" y="1194" fill="#FFFFFF" width="15" height="1"/>
	<rect x="7" y="1193" fill="#FFFFFF" width="7" height="1"/>
</g>
<rect x="12" y="1175" fill="#FFFFFF" width="6" height="2"/>
<rect x="12" y="1205" fill="#FFFFFF" width="6" height="2"/>
<polygon fill="#6BB7E6" points="13,1176 13,1174 11,1174 15,1169 19,1174 17,1174 17,1176 "/>
<polygon fill="#419ED8" points="13,1206 13,1204 11,1204 15,1199 19,1204 17,1204 17,1206 "/>
<g opacity="0.7">
	<polygon fill="#FFFFFF" points="34,1626 29,1620 39,1620 	"/>
</g>
<g>
	<polygon fill="#FFFFFF" points="34,1656 29,1650 39,1650 	"/>
</g>
<g>
	<path fill="#FFFFFF" d="M21.689,1685.311c-1.739-1.73-2.959-3.811-4.14-5.961c-1.11-2.021-0.51-3.854,1.511-5.062
		c0.709-0.438,1.299-0.38,1.83,0.25c0.25,0.312,1.18,1.431,1.42,1.75c0.76,0.979,0.77,1.579-0.621,2.946
		c-0.58,0.564-0.439,1.304,0,1.735l4.34,4.341c0.441,0.438,1.171,0.579,1.74,0c1.371-1.392,1.971-1.382,2.951-0.617
		c0.312,0.235,1.438,1.175,1.75,1.425c0.629,0.522,0.68,1.116,0.25,1.825c-1.221,2.021-3.041,2.617-5.07,1.516
		C25.5,1688.27,23.43,1687.05,21.689,1685.311L21.689,1685.311z"/>
	<path fill="#FFFFFF" d="M16,1712c0,4.42,3.58,8,8,8s8-3.58,8-8s-3.58-8-8-8S16,1707.58,16,1712z M22,1717v-4h-3l5-6l5,6h-3v4H22z"
		/>
	<path fill="#FFFFFF" d="M16,1742c0,4.42,3.58,8,8,8s8-3.58,8-8s-3.58-8-8-8S16,1737.58,16,1742z M23,1737h2v4h4v2h-4v4h-2v-4h-4v-2
		h4V1737z"/>
	<g>
		<g opacity="0.7">
			<g>
				<path fill="#FFFFFF" d="M30,1813c0,1.65-1.35,3-3,3h-8c-1.65,0-3-1.35-3-3v-6c0-1.65,1.35-3,3-3h8c1.65,0,3,1.35,3,3V1813z"/>
			</g>
			<polygon fill="#FFFFFF" points="31,1811 36,1815 36,1805 31,1809 			"/>
		</g>
		<g opacity="0.7">
			<path fill="#FFFFFF" d="M20.689,1782.311c-1.739-1.73-2.959-3.811-4.14-5.961c-1.11-2.021-0.51-3.854,1.511-5.062
				c0.709-0.438,1.299-0.38,1.83,0.25c0.25,0.312,1.18,1.431,1.42,1.75c0.76,0.979,0.77,1.579-0.621,2.946
				c-0.58,0.564-0.439,1.304,0,1.735l4.34,4.341c0.441,0.438,1.171,0.579,1.74,0c1.371-1.392,1.971-1.382,2.951-0.617
				c0.312,0.235,1.438,1.175,1.75,1.425c0.629,0.522,0.68,1.116,0.25,1.825c-1.221,2.021-3.041,2.617-5.07,1.516
				C24.5,1785.27,22.43,1784.05,20.689,1782.311L20.689,1782.311z"/>
			<path fill="#FFFFFF" d="M24,1769c5.52,0,10,4.48,10,10h2c0-6.63-5.37-12-12-12"/>
			<path fill="#FFFFFF" d="M24,1773c3.311,0,6,2.689,6,6h2c0-4.42-3.58-8-8-8"/>
		</g>
		<g>
			<path opacity="0.7" fill="#FFFFFF" enable-background="new    " d="M36,1886c0,0.55-0.45,1-1,1H15c-0.55,0-1-0.45-1-1v-13
				c0-0.55,0.45-1,1-1h20c0.55,0,1,0.45,1,1V1886z M35,1871H15c-1.1,0-2,0.9-2,2v13c0,1.1,0.9,2,2,2h7v1l-4,1v1h14v-1l-4-1v-1h7
				c1.1,0,2-0.9,2-2v-13C37,1871.9,36.1,1871,35,1871z"/>
			<rect x="15" y="1873" opacity="0.5" fill="#FFFFFF" enable-background="new    " width="20" height="13"/>
		</g>
		<g>
			
				<path opacity="0.7" fill="none" stroke="#FFFFFF" stroke-width="2" stroke-linecap="round" stroke-linejoin="round" stroke-miterlimit="10" enable-background="new    " d="
				M14,1851.27c0,2.61,2.029,4.73,4.529,4.73h0.111h12.831c2.5,0,4.528-2.12,4.528-4.73c0-2.535-1.91-4.609-4.319-4.73v-0.02
				c0-3.035-2.359-5.52-5.279-5.52c-1.881,0-3.542,1.029-4.462,2.59c-0.31-0.14-0.66-0.22-1.029-0.22c-1.43,0-2.58,1.21-2.58,2.7
				c0,0.16,0,0.31,0.029,0.459C15.93,1846.62,14,1848.71,14,1851.27z"/>
		</g>
		<path opacity="0.7" fill="#FFFFFF" enable-background="new    " d="M18,1919c0,4.42,3.58,8,8,8s8-3.58,8-8s-3.58-8-8-8
			S18,1914.58,18,1919z M25,1914h2v4h4v2h-4v4h-2v-4h-4v-2h4V1914z"/>
		<path opacity="0.7" fill="#FFFFFF" enable-background="new    " d="M18,1951c0,4.42,3.58,8,8,8s8-3.58,8-8s-3.58-8-8-8
			S18,1946.58,18,1951z M21,1949h4v-3l6,5l-6,5v-3h-4V1949z"/>
	</g>
	<g>
		<g>
			<g>
				<path fill="#FFFFFF" d="M30,2023c0,1.65-1.35,3-3,3h-8c-1.65,0-3-1.35-3-3v-6c0-1.65,1.35-3,3-3h8c1.65,0,3,1.35,3,3V2023z"/>
			</g>
			<polygon fill="#FFFFFF" points="31,2021 36,2025 36,2015 31,2019 			"/>
		</g>
		<g>
			<path fill="#FFFFFF" d="M20.689,1992.311c-1.739-1.73-2.959-3.811-4.14-5.961c-1.11-2.021-0.51-3.854,1.511-5.062
				c0.709-0.438,1.299-0.38,1.83,0.25c0.25,0.312,1.18,1.431,1.42,1.75c0.76,0.979,0.77,1.579-0.621,2.946
				c-0.58,0.564-0.439,1.304,0,1.735l4.34,4.341c0.441,0.438,1.171,0.579,1.74,0c1.371-1.392,1.971-1.382,2.951-0.617
				c0.312,0.235,1.438,1.175,1.75,1.425c0.629,0.522,0.68,1.116,0.25,1.825c-1.221,2.021-3.041,2.617-5.07,1.516
				C24.5,1995.27,22.43,1994.05,20.689,1992.311L20.689,1992.311z"/>
			<path fill="#FFFFFF" d="M24,1979c5.52,0,10,4.48,10,10h2c0-6.63-5.37-12-12-12"/>
			<path fill="#FFFFFF" d="M24,1983c3.311,0,6,2.689,6,6h2c0-4.42-3.58-8-8-8"/>
		</g>
		<g>
			<path fill="#FFFFFF" d="M36,2096c0,0.55-0.45,1-1,1H15c-0.55,0-1-0.45-1-1v-13c0-0.55,0.45-1,1-1h20c0.55,0,1,0.45,1,1V2096z
				 M35,2081H15c-1.1,0-2,0.9-2,2v13c0,1.1,0.9,2,2,2h7v1l-4,1v1h14v-1l-4-1v-1h7c1.1,0,2-0.9,2-2v-13C37,2081.9,36.1,2081,35,2081z
				"/>
			<rect x="15" y="2083" opacity="0.5" fill="#FFFFFF" enable-background="new    " width="20" height="13"/>
		</g>
		<g>
			<path fill="none" stroke="#FFFFFF" stroke-width="2" stroke-linecap="round" stroke-linejoin="round" stroke-miterlimit="10" d="
				M14,2061.27c0,2.61,2.029,4.73,4.529,4.73h0.111h12.831c2.5,0,4.528-2.12,4.528-4.73c0-2.539-1.91-4.609-4.319-4.73v-0.02
				c0-3.039-2.359-5.52-5.279-5.52c-1.881,0-3.542,1.029-4.462,2.59c-0.31-0.14-0.66-0.22-1.029-0.22c-1.43,0-2.58,1.21-2.58,2.7
				c0,0.16,0,0.31,0.029,0.459C15.93,2056.62,14,2058.71,14,2061.27z"/>
		</g>
		<path fill="#FFFFFF" d="M18,2129c0,4.42,3.58,8,8,8s8-3.58,8-8s-3.58-8-8-8S18,2124.58,18,2129z M25,2124h2v4h4v2h-4v4h-2v-4h-4
			v-2h4V2124z"/>
		<path fill="#FFFFFF" d="M18,2161c0,4.42,3.58,8,8,8s8-3.58,8-8s-3.58-8-8-8S18,2156.58,18,2161z M21,2159h4v-3l6,5l-6,5v-3h-4
			V2159z"/>
	</g>
</g>
<polygon fill="#FBAB1F" points="17,2215.42 20.71,2218 19.4,2213.68 23,2210.95 18.48,2210.85 17,2206.59 15.52,2210.85 11,2210.95 
	14.6,2213.68 13.29,2218 "/>
<rect y="2296" opacity="0.5" fill="#F2F0EE" enable-background="new    " width="48" height="2"/>
<g>
	<g>
		<path fill="#3AA2DB" d="M11,2250c0-3.311,2.69-6,6-6c3.311,0,6,2.689,6,6s-2.689,6-6,6C13.69,2256,11,2253.311,11,2250z"/>
		<polygon fill="#FFFFFF" points="13,2250 14.391,2248.67 16.13,2250.33 19.609,2247 21,2248.33 16.13,2253 		"/>
	</g>
</g>
<rect x="14" y="2371" opacity="0.2" fill="#141A1A" enable-background="new    " width="2" height="16"/>
<g>
	<path fill="#7BB245" d="M15,2335c-3.87,0-7-3.13-7-7s3.13-7,7-7s7,3.13,7,7S18.87,2335,15,2335z M15,2319c-4.97,0-9,4.029-9,9
		s4.03,9,9,9c4.971,0,9-4.029,9-9S19.971,2319,15,2319z"/>
	<polygon fill="#7BB245" points="17,2324 17,2327 20,2327 15,2333 10,2327 13,2327 13,2324 	"/>
</g>
<g opacity="0.5">
	<path opacity="0.7" fill="#040404" enable-background="new    " d="M23.37,2480.27c-0.46-0.11-0.82-0.459-0.8-0.93
		c0-0.104,0.08-0.188,0.15-0.24c1.02-0.562,1.75-1.459,1.778-2.6c0.062-2.35-2.062-4.1-4.312-4.73c0.09,1.69-0.39,3.28-1.42,4.56
		c-0.91,1.13-2.18,1.94-3.68,2.396c0.79,0.709,1.87,1.158,3.141,1.25c0.721,0.052,1.459,0,2.209-0.102
		c0.802,0.64,1.951,0.67,2.92,0.607C23.66,2480.46,23.609,2480.33,23.37,2480.27z"/>
	<path fill="#040404" d="M18.62,2470.7c-0.79-3.562-4.36-4.74-7.84-3.979c-3.18,0.689-6.36,3.119-6.28,6.439
		c0.04,1.529,1.01,2.71,2.37,3.47c0.09,0.07,0.2,0.181,0.21,0.32c0.03,0.64-0.46,1.079-1.07,1.239c-0.32,0.08-0.39,0.25,0.01,0.272
		c1.3,0.095,2.83,0.039,3.9-0.812c0.99,0.129,1.97,0.192,2.94,0.129C16.84,2477.51,19.49,2474.6,18.62,2470.7z"/>
</g>
<g>
	<path fill="none" stroke="#040404" stroke-width="2" stroke-linecap="round" stroke-linejoin="round" stroke-miterlimit="10" d="
		M12.5,2439.5c-4.41,0-8-3.59-8-8s3.59-8,8-8s8,3.59,8,8S16.91,2439.5,12.5,2439.5z"/>
	<circle fill="#040404" cx="9" cy="2429" r="1.5"/>
	<circle fill="#040404" cx="16" cy="2429" r="1.5"/>
	<path fill="#040404" d="M7.6,2432.5c0.46,2.279,2.48,4,4.9,4s4.439-1.721,4.9-4H7.6z"/>
</g>
<g opacity="0.7">
	<polygon fill="#040404" points="34.5,2554 39.5,2560 29.5,2560 	"/>
</g>
<g opacity="0.7">
	<polygon fill="#040404" points="34.5,2600 29.5,2594 39.5,2594 	"/>
</g>
<g>
	<path fill="#333333" d="M16.221,2515.816c-0.85-0.848-1.346-1.312-2.221-1.312h20c-1.21,0-1.37,0.471-2.221,1.312l-6.17,6.039
		c-1.609,1.521-1.609,1.521-3.219,0L16.221,2515.816z"/>
</g>
<g>
	<path fill="#333333" d="M1.311,2736.532c-0.84,0.85-1.311,1.346-1.311,2.221v-20c0,1.21,0.471,1.37,1.311,2.221l6.039,6.17
		c1.525,1.609,1.525,1.609,0,3.22L1.311,2736.532z"/>
</g>
<path fill="none" stroke="#FFFFFF" stroke-width="2" stroke-linecap="round" stroke-linejoin="round" stroke-miterlimit="10" d="
	M8,2679.77c0,2.61,2.03,4.73,4.53,4.73h0.11h12.831c2.5,0,4.529-2.12,4.529-4.73c0-2.539-1.91-4.611-4.32-4.732v-0.018
	c0-3.039-2.36-5.52-5.28-5.52c-1.88,0-3.54,1.029-4.47,2.59c-0.31-0.14-0.66-0.22-1.03-0.22c-1.43,0-2.58,1.21-2.58,2.7
	c0,0.16,0,0.31,0.03,0.459C9.93,2675.12,8,2677.21,8,2679.77z"/>
<path opacity="0.7" fill="none" stroke="#FFFFFF" stroke-width="2" stroke-linecap="round" stroke-linejoin="round" stroke-miterlimit="10" enable-background="new    " d="
	M8,2649.77c0,2.61,2.03,4.73,4.53,4.73h0.11h12.831c2.5,0,4.529-2.12,4.529-4.73c0-2.539-1.91-4.611-4.32-4.732v-0.018
	c0-3.039-2.36-5.52-5.28-5.52c-1.88,0-3.54,1.029-4.47,2.59c-0.31-0.14-0.66-0.22-1.03-0.22c-1.43,0-2.58,1.21-2.58,2.7
	c0,0.16,0,0.31,0.03,0.459C9.93,2645.12,8,2647.21,8,2649.77z"/>
<g>
	<g>
		<g>
			<g>
				<g>
					<g>
						<g>
							<g>
								<g>
									<defs>
										<path id="SVGID_1_" d="M8,2679.77c0,2.61,2.03,4.73,4.53,4.73h0.11h12.831c2.5,0,4.529-2.12,4.529-4.73
											c0-2.539-1.91-4.611-4.32-4.732v-0.018c0-3.039-2.36-5.52-5.28-5.52c-1.88,0-3.54,1.029-4.47,2.59
											c-0.31-0.14-0.66-0.22-1.03-0.22c-1.43,0-2.58,1.21-2.58,2.7c0,0.16,0,0.31,0.03,0.459C9.93,2675.12,8,2677.21,8,2679.77z
											"/>
									</defs>
									<clipPath id="SVGID_3_">
										<use xlink:href="#SVGID_1_"  overflow="visible"/>
									</clipPath>
									<g clip-path="url(#SVGID_3_)">
										<rect x="17" y="2667.5" fill="#FFFFFF" width="4" height="10"/>
										<rect x="16" y="2675.5" fill="#FFFFFF" width="6" height="8"/>
									</g>
								</g>
							</g>
						</g>
					</g>
				</g>
			</g>
		</g>
	</g>
	<g>
		<g>
			<g>
				<g>
					<g>
						<g>
							<g>
								<g>
									<defs>
										<path id="SVGID_4_" d="M8,2679.77c0,2.61,2.03,4.73,4.53,4.73h0.11h12.831c2.5,0,4.529-2.12,4.529-4.73
											c0-2.539-1.91-4.611-4.32-4.732v-0.018c0-3.039-2.36-5.52-5.28-5.52c-1.88,0-3.54,1.029-4.47,2.59
											c-0.31-0.14-0.66-0.22-1.03-0.22c-1.43,0-2.58,1.21-2.58,2.7c0,0.16,0,0.31,0.03,0.459C9.93,2675.12,8,2677.21,8,2679.77z
											"/>
									</defs>
									<clipPath id="SVGID_5_">
										<use xlink:href="#SVGID_4_"  overflow="visible"/>
									</clipPath>
									<g clip-path="url(#SVGID_5_)">
										<rect x="19" y="2667.5" fill="#D42829" width="1" height="1"/>
										<rect x="18" y="2668.5" fill="#D42829" width="1" height="1"/>
										<rect x="19" y="2669.5" fill="#D42829" width="1" height="1"/>
										<rect x="18" y="2670.5" fill="#D42829" width="1" height="1"/>
										<rect x="19" y="2671.5" fill="#D42829" width="1" height="1"/>
										<rect x="18" y="2672.5" fill="#D42829" width="1" height="1"/>
										<rect x="19" y="2673.5" fill="#D42829" width="1" height="1"/>
										<rect x="18" y="2674.5" fill="#D42829" width="1" height="1"/>
										<rect x="18" y="2675.5" fill="#D42829" width="2" height="1"/>
										<path fill="#D42829" d="M21,2682.5v-6h-4v6H21z M20,2681.5h-2v-3h2V2681.5z"/>
									</g>
								</g>
							</g>
						</g>
					</g>
				</g>
			</g>
		</g>
	</g>
</g>
<g opacity="0.7" enable-background="new    ">
	<g>
		<g>
			<g>
				<g>
					<g>
						<g>
							<g>
								<g>
									<defs>
										<path id="SVGID_6_" d="M8,2649.77c0,2.61,2.03,4.73,4.53,4.73h0.11h12.831c2.5,0,4.529-2.12,4.529-4.73
											c0-2.539-1.91-4.611-4.32-4.732v-0.018c0-3.039-2.36-5.52-5.28-5.52c-1.88,0-3.54,1.029-4.47,2.59
											c-0.31-0.14-0.66-0.22-1.03-0.22c-1.43,0-2.58,1.21-2.58,2.7c0,0.16,0,0.31,0.03,0.459C9.93,2645.12,8,2647.21,8,2649.77z
											"/>
									</defs>
									<clipPath id="SVGID_7_">
										<use xlink:href="#SVGID_6_"  overflow="visible"/>
									</clipPath>
									<g clip-path="url(#SVGID_7_)">
										<rect x="17" y="2637.5" opacity="0.7" fill="#FFFFFF" enable-background="new    " width="4" height="10"/>
										<rect x="16" y="2645.5" fill="#FFFFFF" width="6" height="8"/>
									</g>
								</g>
							</g>
						</g>
					</g>
				</g>
			</g>
		</g>
	</g>
	<g>
		<g>
			<g>
				<g>
					<g>
						<g>
							<g>
								<g>
									<defs>
										<path id="SVGID_8_" d="M8,2649.77c0,2.61,2.03,4.73,4.53,4.73h0.11h12.831c2.5,0,4.529-2.12,4.529-4.73
											c0-2.539-1.91-4.611-4.32-4.732v-0.018c0-3.039-2.36-5.52-5.28-5.52c-1.88,0-3.54,1.029-4.47,2.59
											c-0.31-0.14-0.66-0.22-1.03-0.22c-1.43,0-2.58,1.21-2.58,2.7c0,0.16,0,0.31,0.03,0.459C9.93,2645.12,8,2647.21,8,2649.77z
											"/>
									</defs>
									<clipPath id="SVGID_9_">
										<use xlink:href="#SVGID_8_"  overflow="visible"/>
									</clipPath>
									<g clip-path="url(#SVGID_9_)">
										<rect x="19" y="2637.5" fill="#333333" width="1" height="1"/>
										<rect x="18" y="2638.5" fill="#333333" width="1" height="1"/>
										<rect x="19" y="2639.5" fill="#333333" width="1" height="1"/>
										<rect x="18" y="2640.5" fill="#333333" width="1" height="1"/>
										<rect x="19" y="2641.5" opacity="0.7" fill="#333333" enable-background="new    " width="1" height="1"/>
										<rect x="18" y="2642.5" fill="#333333" width="1" height="1"/>
										<rect x="19" y="2643.5" fill="#333333" width="1" height="1"/>
										<rect x="18" y="2644.5" fill="#333333" width="1" height="1"/>
										<rect x="18" y="2645.5" fill="#333333" width="2" height="1"/>
										<path fill="#333333" d="M21,2652.5v-6h-4v6H21z M20,2651.5h-2v-3h2V2651.5z"/>
									</g>
								</g>
							</g>
						</g>
					</g>
				</g>
			</g>
		</g>
	</g>
</g>
<path opacity="0.6" fill="#040404" enable-background="new    " d="M8.412,2784l3.3-3.29c0.39-0.39,0.39-1.03,0-1.42
	s-1.03-0.39-1.42,0l-3.29,3.3l-3.29-3.3c-0.39-0.39-1.03-0.39-1.42,0s-0.39,1.03,0,1.42l3.3,3.29l-3.3,3.29
	c-0.39,0.39-0.39,1.03,0,1.42c0.2,0.19,0.45,0.29,0.71,0.29c0.26,0,0.51-0.1,0.71-0.29l3.29-3.3l3.29,3.3
	c0.2,0.19,0.45,0.29,0.71,0.29c0.26,0,0.51-0.1,0.71-0.29c0.39-0.39,0.39-1.03,0-1.42L8.412,2784z"/>
<g>
	<circle fill="#FFFFFF" cx="24" cy="2832" r="5"/>
	<circle fill="#3AA2DB" cx="24" cy="2832" r="4"/>
	<g>
		<rect x="22" y="2832" fill="#FFFFFF" width="1" height="1"/>
		<rect x="23" y="2833" fill="#FFFFFF" width="1" height="1"/>
		<rect x="24" y="2832" fill="#FFFFFF" width="1" height="1"/>
		<rect x="25" y="2831" fill="#FFFFFF" width="1" height="1"/>
		<rect x="26" y="2830" fill="#FFFFFF" width="1" height="1"/>
	</g>
</g>
<polygon fill="#7BB245" points="18,2883 20.609,2880.33 23.87,2883.67 30.391,2877 33,2879.67 23.87,2889 "/>
<polygon opacity="0.1" fill="#040404" enable-background="new    " points="18,2931 20.609,2928.33 23.87,2931.67 30.391,2925 
	33,2927.67 23.87,2937 "/>
<g opacity="0.3">
	<path fill="#040404" d="M24,2984.5c-2.49,0-4.5-2.01-4.5-4.5s2.01-4.5,4.5-4.5s4.5,2.01,4.5,4.5S26.49,2984.5,24,2984.5z M24,2974
		c-3.311,0-6,2.689-6,6s2.689,6,6,6c3.311,0,6-2.689,6-6S27.311,2974,24,2974z"/>
	<path fill="#040404" d="M28.859,2985.891c-0.26,0.268-0.26,0.67,0,0.938l2.99,2.987c0.25,0.25,0.67,0.25,0.92,0l1.041-1.041
		c0.25-0.25,0.25-0.67,0-0.92l-2.99-2.987c-0.26-0.263-0.67-0.263-0.93,0L28.859,2985.891z"/>
	
		<rect x="26.759" y="2984.405" transform="matrix(-0.7072 -0.707 0.707 -0.7072 -2060.98 5116.2686)" fill="#040404" width="4.242" height="0.947"/>
</g>
<path fill="#FFFFFF" d="M2,3967.5c0,4.42,3.58,8,8,8s8-3.58,8-8s-3.58-8-8-8S2,3963.08,2,3967.5z M8,3963.5l6,4l-6,4V3963.5z"/>
<polygon fill="#F0F0E1" points="8,3930.5 8,3927.5 5,3927.5 10,3921.5 15,3927.5 12,3927.5 12,3930.5 "/>
<polygon fill="#F0F0E1" points="11,3872.917 11,3875.917 14,3875.917 9,3881.917 4,3875.917 7,3875.917 7,3872.917 "/>
<g>
	<path fill="#FFFFFF" d="M24,3834.5c0-1.66,1.34-3,3-3s3,1.34,3,3s-1.34,3-3,3S24,3836.16,24,3834.5z"/>
	<path fill="#FFFFFF" d="M14,3834.5c0-1.66,1.34-3,3-3s3,1.34,3,3s-1.34,3-3,3S14,3836.16,14,3834.5z"/>
	<path fill="#FFFFFF" d="M4,3834.5c0-1.66,1.34-3,3-3s3,1.34,3,3s-1.34,3-3,3S4,3836.16,4,3834.5z"/>
</g>
<g>
	<path fill="#FFFFFF" d="M21.54,3736c0.59,0.6,0.62,1.54,0.06,2.1c-0.56,0.562-1.5,0.53-2.1-0.06L8.46,3727
		c-0.59-0.6-0.62-1.54-0.06-2.1c0.56-0.562,1.5-0.53,2.1,0.06L21.54,3736z"/>
	<path fill="#FFFFFF" d="M19.5,3724.96c0.6-0.59,1.54-0.62,2.1-0.06c0.56,0.56,0.53,1.5-0.06,2.1l-11.04,11.04
		c-0.6,0.59-1.54,0.62-2.1,0.06c-0.56-0.56-0.53-1.5,0.06-2.1L19.5,3724.96z"/>
</g>
<g>
	<rect x="8" y="3693.5" fill="#FFFFFF" width="14" height="3"/>
	<polygon fill="#FFFFFF" points="17,3698.5 17,3701.5 20,3701.5 15,3707.5 10,3701.5 13,3701.5 13,3698.5 	"/>
</g>
<g>
	<rect x="8" y="3670.5" fill="#FFFFFF" width="14" height="3"/>
	<polygon fill="#FFFFFF" points="13,3668.5 13,3665.5 10,3665.5 15,3659.5 20,3665.5 17,3665.5 17,3668.5 	"/>
</g>
<g>
	<path fill="#FFFFFF" d="M18.17,3768.07c0.97,0.97,1.4,2.279,1.29,3.57l-1.88,0.022l3.44,3.437l3.52-3.521l-1.99,0.029
		c0.11-2.08-0.61-4.17-2.18-5.739c-2.97-2.97-7.83-2.91-10.87,0.13l2.15,2.148C13.47,3766.33,16.39,3766.29,18.17,3768.07z"/>
	<path fill="#FFFFFF" d="M18.35,3774.85c-1.82,1.82-4.74,1.86-6.52,0.08c-0.97-0.97-1.4-2.272-1.29-3.563l1.88-0.029l-3.44-3.43
		l-3.52,3.521l1.99-0.024c-0.11,2.08,0.61,4.17,2.18,5.736c2.97,2.973,7.83,2.909,10.87-0.13L18.35,3774.85z"/>
</g>
<path fill="#FFFFFF" d="M7,3627.5c0,4.42,3.58,8,8,8s8-3.58,8-8s-3.58-8-8-8S7,3623.08,7,3627.5z M12,3624.5h2v6h-2V3624.5z
	 M16,3624.5h2v6h-2V3624.5z"/>
<path fill="#FFFFFF" d="M8,5447.5c0,4.42,3.58,8,8,8s8-3.58,8-8s-3.58-8-8-8S8,5443.08,8,5447.5z M19,5447.5l-5,4v-8"/>
<g>
	<path fill="#FFCC2D" d="M9,3574.5c0-3.311,2.69-6,6-6s6,2.689,6,6s-2.69,6-6,6S9,3577.811,9,3574.5z"/>
	<path fill="#FFFFFF" d="M12,3574.5c0-1.66,1.34-3,3-3s3,1.34,3,3s-1.34,3-3,3S12,3576.16,12,3574.5z"/>
</g>
<g>
	<path fill="#C8C8C8" d="M9,4174.5c0-3.311,2.69-6,6-6s6,2.689,6,6s-2.69,6-6,6S9,4177.811,9,4174.5z"/>
	<path fill="#FFFFFF" d="M12,4174.5c0-1.66,1.34-3,3-3s3,1.34,3,3s-1.34,3-3,3S12,4176.16,12,4174.5z"/>
</g>
<g>
	<path fill="#7AB246" d="M7,3525.5c0,4.42,3.58,8,8,8s8-3.58,8-8s-3.58-8-8-8S7,3521.08,7,3525.5z M9,3525.5c0-3.311,2.69-6,6-6
		s6,2.689,6,6s-2.69,6-6,6S9,3528.811,9,3525.5z"/>
	<polygon fill="#7AB246" points="17,3522.5 17,3524.5 19,3524.5 15,3529.5 11,3524.5 13,3524.5 13,3522.5 	"/>
</g>
<g>
	<path fill="#D22B29" d="M7,4075.5c0,4.42,3.58,8,8,8s8-3.58,8-8s-3.58-8-8-8S7,4071.08,7,4075.5z M9,4075.5c0-3.311,2.69-6,6-6
		s6,2.689,6,6s-2.69,6-6,6S9,4078.811,9,4075.5z"/>
	<polygon fill="#D22B29" points="17,4072.5 17,4074.5 19,4074.5 15,4079.5 11,4074.5 13,4074.5 13,4072.5 	"/>
</g>
<g>
	<path fill="#79BBD8" d="M23,3549.5c0-4.42-3.58-8-8-8s-8,3.58-8,8s3.58,8,8,8S23,3553.92,23,3549.5z M21,3549.5c0,3.311-2.69,6-6,6
		s-6-2.689-6-6s2.69-6,6-6S21,3546.189,21,3549.5z"/>
	<polygon fill="#79BBD8" points="13,3552.5 13,3550.5 11,3550.5 15,3545.5 19,3550.5 17,3550.5 17,3552.5 	"/>
</g>
<g>
	<path fill="#FFFFFF" d="M19,3455.5c5.52,0,10-4.48,10-10s-4.48-10-10-10c-5.52,0-10,4.48-10,10S13.48,3455.5,19,3455.5z M19,3453.5
		c-4.42,0-8-3.58-8-8s3.58-8,8-8s8,3.58,8,8S23.42,3453.5,19,3453.5z"/>
	<path fill="#FFFFFF" d="M20.41,3445.5l2.3-2.29c0.39-0.39,0.39-1.03,0-1.42s-1.03-0.39-1.42,0l-2.29,2.3l-2.29-2.3
		c-0.39-0.39-1.03-0.39-1.42,0s-0.39,1.03,0,1.42l2.3,2.29l-2.3,2.29c-0.39,0.39-0.39,1.03,0,1.42c0.2,0.19,0.45,0.29,0.71,0.29
		s0.51-0.1,0.71-0.29l2.29-2.3l2.29,2.3c0.2,0.19,0.45,0.29,0.71,0.29s0.51-0.1,0.71-0.29c0.39-0.39,0.39-1.03,0-1.42L20.41,3445.5z
		"/>
</g>
<g>
	<path fill="#FFFFFF" d="M19,3385.5c-5.52,0-10,4.48-10,10s4.48,10,10,10c5.52,0,10-4.48,10-10S24.52,3385.5,19,3385.5z M19,3387.5
		c4.42,0,8,3.58,8,8s-3.58,8-8,8s-8-3.58-8-8S14.58,3387.5,19,3387.5z"/>
	<polygon fill="#FFFFFF" points="23,3396.5 15,3396.5 19,3400.5 	"/>
	<polygon fill="#FFFFFF" points="23,3391.5 15,3391.5 19,3395.5 	"/>
</g>
<g>
	<path fill="#FFFFFF" d="M9,3345.5c0,5.52,4.48,10,10,10c5.52,0,10-4.48,10-10s-4.48-10-10-10C13.48,3335.5,9,3339.98,9,3345.5z
		 M11,3345.5c0-4.42,3.58-8,8-8s8,3.58,8,8s-3.58,8-8,8S11,3349.92,11,3345.5z"/>
	<path fill="#FFFFFF" d="M19,3347.5c-1.1,0-2-0.9-2-2s0.9-2,2-2s2,0.9,2,2S20.1,3347.5,19,3347.5z M25,3346.5v-2h-2.14
		c-0.1-0.359-0.24-0.7-0.43-1.02l1.52-1.521l-1.41-1.41l-1.52,1.521c-0.32-0.19-0.66-0.33-1.02-0.43v-2.146h-2v2.146
		c-0.36,0.1-0.7,0.232-1.02,0.43l-1.52-1.521l-1.41,1.41l1.52,1.521c-0.19,0.312-0.33,0.653-0.43,1.02H13v2h2.14
		c0.1,0.359,0.24,0.7,0.43,1.02l-1.52,1.521l1.41,1.41l1.52-1.521c0.32,0.19,0.66,0.33,1.02,0.43v2.146h2v-2.146
		c0.36-0.1,0.7-0.232,1.02-0.43l1.52,1.521l1.41-1.41l-1.52-1.521c0.19-0.312,0.33-0.653,0.43-1.02H25z"/>
</g>
<g>
	<path fill="#FFFFFF" d="M9,3285.5c0,5.52,4.48,10,10,10c5.52,0,10-4.48,10-10s-4.48-10-10-10C13.48,3275.5,9,3279.98,9,3285.5z
		 M11,3285.5c0-4.42,3.58-8,8-8s8,3.58,8,8s-3.58,8-8,8S11,3289.92,11,3285.5z"/>
	<polygon fill="#FFFFFF" points="17,3281.5 17,3289.5 23,3285.5 	"/>
</g>
<path opacity="0.1" fill="#FFFFFF" enable-background="new    " d="M1,3195.5c0,10.49,8.51,19,19,19s19-8.51,19-19s-8.51-19-19-19
	S1,3185.01,1,3195.5z M3,3195.5c0-9.39,7.61-17,17-17c9.391,0,17,7.61,17,17c0,9.391-7.609,17-17,17
	C10.61,3212.5,3,3204.891,3,3195.5z"/>
<path opacity="0.1" fill="#FFFFFF" enable-background="new    " d="M5,3195.5c0,8.28,6.72,15,15,15c8.279,0,15-6.72,15-15
	s-6.721-15-15-15C11.72,3180.5,5,3187.22,5,3195.5z M7,3195.5c0-7.18,5.82-13,13-13c7.18,0,13,5.82,13,13s-5.82,13-13,13
	C12.82,3208.5,7,3202.68,7,3195.5z"/>
<g opacity="0.7">
	<polygon fill="#FFFFFF" points="14,3198.5 14,3194.5 11,3194.5 16,3188.5 21,3194.5 18,3194.5 18,3198.5 	"/>
	<polygon fill="#FFFFFF" points="26,3191.5 26,3195.5 29,3195.5 24,3201.5 19,3195.5 22,3195.5 22,3191.5 	"/>
</g>
<g>
	<path fill="#FFFFFF" d="M5.43,3115.77l4.32,7.961c0.86,1.104,2.49,1.312,4.19,1.271h4.8v-7.5H9.98
		C8.63,3117.58,6.77,3117.26,5.43,3115.77z M5.25,3112.57c-0.16,0.29-0.22,0.57-0.25,0.85l1.36,1.51c1.05,1.16,2.47,1.33,3.23,1.33
		l0.31-0.01h1.63l2.17-3.561l2.01,1.08l-3.48-6.439l-7.1,0.051l2.01,1.569L5.25,3112.57z M19.98,3107.5h7.51l3.789-6.42l-2.159,1.13
		l-1.5-2.76c-0.46-1.062-1.82-1.99-3.021-1.95l-8.287,0.061c1.77,0.529,2.88,1.859,3.82,3.597l2.53,4.653L19.98,3107.5z
		 M19.6,3102.79l-0.56-1.04c-0.95-1.74-1.86-2.63-3.08-2.99l-1.93-0.57c-0.16,0.098-0.32,0.211-0.47,0.354l-3.47,5.32l6.49,3.85
		L19.6,3102.79z M23.74,3115l-3.76,6.25l3.76,6.25v-2.5h3.75c1.13,0.1,2.42-0.63,2.96-1.72l3.97-7.42
		c-1.311,1.319-2.99,1.659-4.93,1.659l-5.75-0.021V3115z M29.49,3116.27c1.93,0,3.14-0.379,4.039-1.289L35,3113.5
		c-0.01-0.189-0.029-0.38-0.08-0.58l-2.88-5.67l-6.44,3.92l2.76,5.1H29.49z"/>
</g>
<path opacity="0.3" fill="#030303" enable-background="new    " d="M7,3502c0,4.42,3.58,8,8,8s8-3.58,8-8s-3.58-8-8-8
	S7,3497.58,7,3502z M12,3499h2v6h-2V3499z M16,3499h2v6h-2V3499z"/>
<g>
	<path fill="#FFFFFF" d="M9,3255.666c0,5.52,4.48,10,10,10c5.52,0,10-4.48,10-10s-4.48-10-10-10
		C13.481,3245.666,9,3250.146,9,3255.666z M11,3255.666c0-4.42,3.58-8,8-8s8,3.58,8,8s-3.58,8-8,8S11,3260.086,11,3255.666z"/>
	<rect x="16" y="3252.666" fill="#FFFFFF" width="2" height="6"/>
	<rect x="20" y="3252.666" fill="#FFFFFF" width="2" height="6"/>
</g>
<g>
	<path fill="#FFFFFF" d="M19,4024.75c5.52,0,10-4.48,10-10s-4.48-10-10-10c-5.52,0-10,4.48-10,10S13.48,4024.75,19,4024.75z
		 M19,4022.75c-4.42,0-8-3.58-8-8s3.58-8,8-8s8,3.58,8,8S23.42,4022.75,19,4022.75z"/>
	<polygon fill="#FFFFFF" points="15,4013.75 23,4013.75 19,4009.75 	"/>
	<polygon fill="#FFFFFF" points="15,4018.75 23,4018.75 19,4014.75 	"/>
</g>
<g>
	<path fill="#7AB246" d="M9,4104.5c0-3.311,2.689-6,6-6s6,2.689,6,6s-2.689,6-6,6S9,4107.811,9,4104.5z"/>
	<polygon fill="#FFFFFF" points="11.25,4104.5 12.55,4103.17 14.18,4104.83 17.45,4101.5 18.75,4102.83 14.18,4107.5 	"/>
</g>
<path fill="#FBB718" d="M15,4134.221l2.63,4.279h-5.26L15,4134.221z M15,4128.5l-8,13h16L15,4128.5z"/>
<g>
	<polygon fill="#FFFFFF" points="36,4222.5 36,4212.5 41,4217.5 	"/>
</g>
<g>
	<polygon fill="#FFFFFF" points="17,4400.5 15,4405.5 20,4403.5 	"/>
	
		<rect x="21.153" y="4391.062" transform="matrix(-0.707 -0.7072 0.7072 -0.707 -3069.7249 7521.6201)" fill="#FFFFFF" width="4.243" height="11.312"/>
	<polygon fill="#FFFFFF" points="22,4404.5 31,4405.5 19,4405.5 	"/>
</g>
<path fill="#FFFFFF" d="M23,4335.5c4.42,0,8-3.58,8-8s-3.58-8-8-8s-8,3.58-8,8S18.58,4335.5,23,4335.5z M21,4331.5v-3h-3l5-6l5,6h-3
	v3H21z"/>
<g>
	<path fill="#FFFFFF" d="M31,4359l-7.2-6.5v4.061c-5.71,0.629-8.8,6.146-8.8,8.939c1.141-2.95,5.37-4.061,8.8-4.061v4.061L31,4359z"
		/>
</g>
<g>
	<polygon fill="#FFFFFF" points="19,4436.5 21,4436.5 21,4434.5 24,4434.5 24,4436.5 26,4436.5 22.5,4440.5 	"/>
	<polygon fill="#FFFFFF" points="26,4427.5 24,4427.5 24,4429.5 21,4429.5 21,4427.5 19,4427.5 22.5,4423.5 	"/>
	<polygon fill="#FFFFFF" points="27,4435.5 27,4433.5 25,4433.5 25,4430.5 27,4430.5 27,4428.5 31,4432 	"/>
	<polygon fill="#FFFFFF" points="18,4428.5 18,4430.5 20,4430.5 20,4433.5 18,4433.5 18,4435.5 14,4432 	"/>
</g>
<path fill="#FFFFFF" d="M23,4257.5c1.1,0,2-0.9,2-2s-0.9-2-2-2s-2,0.9-2,2S21.9,4257.5,23,4257.5z M15,4255.5c0,4.42,3.58,8,8,8
	s8-3.58,8-8s-3.58-8-8-8S15,4251.08,15,4255.5z M29,4256.5h-2.141c-0.104,0.359-0.239,0.7-0.43,1.02l1.521,1.521l-1.41,1.41
	l-1.521-1.521c-0.319,0.19-0.665,0.33-1.021,0.437v2.146h-2v-2.146c-0.359-0.104-0.7-0.233-1.02-0.437l-1.521,1.521l-1.41-1.41
	l1.521-1.521c-0.19-0.312-0.33-0.66-0.43-1.02H17v-2h2.141c0.1-0.359,0.239-0.7,0.43-1.02l-1.521-1.521l1.41-1.41l1.521,1.521
	c0.319-0.19,0.66-0.33,1.02-0.437v-2.146h2v2.146c0.358,0.104,0.7,0.233,1.021,0.437l1.521-1.521l1.41,1.41l-1.521,1.521
	c0.189,0.312,0.33,0.66,0.43,1.02H29V4256.5z"/>
<path fill="#FFFFFF" d="M28.061,4497.51c1.029,0,1.687-0.199,2.16-0.689l0.779-0.791c0-0.1-0.02-0.199-0.04-0.309l-1.54-3.021
	l-3.43,2.09l1.47,2.727L28.061,4497.51L28.061,4497.51z M25,4496.83l-2.01,3.34l2.01,3.33v-1.33h2c0.6,0.051,1.279-0.34,1.57-0.92
	l2.119-3.96c-0.699,0.71-1.59,0.89-2.629,0.89L25,4498.17V4496.83z M22.79,4490.32l-0.3-0.551c-0.51-0.937-1-1.41-1.641-1.604
	l-1.029-0.312c-0.09,0.062-0.17,0.121-0.26,0.201l-1.84,2.84l3.459,2.039L22.79,4490.32z M22.99,4492.83H27l2.02-3.42l-1.146,0.6
	l-0.812-1.47c-0.24-0.56-0.961-1.06-1.607-1.04l-4.41,0.029c0.94,0.274,1.53,1,2.03,1.92l1.358,2.479L22.99,4492.83z
	 M15.141,4495.54c-0.091,0.149-0.131,0.3-0.141,0.45l0.73,0.811c0.549,0.609,1.31,0.709,1.72,0.709l0.159-0.01h0.871l1.16-1.896
	l1.069,0.58l-1.86-3.438l-3.779,0.026l1.07,0.84L15.141,4495.54z M15.23,4497.24l2.299,4.25c0.461,0.59,1.33,0.699,2.24,0.68h2.561
	v-4h-4.68C16.939,4498.21,15.939,4498.04,15.23,4497.24z"/>
<g>
	<path fill="#FFFFFF" d="M16,4471.5h12v-7c-2.76,0-5-2.24-5-5c0-0.71,0.15-1.391,0.41-2H19l-3,3V4471.5z"/>
	<path fill="#FFFFFF" d="M24,4459.5c0,2.21,1.79,4,4,4s4-1.79,4-4s-1.79-4-4-4S24,4457.29,24,4459.5z M26,4458.5h2v-2l3,3l-3,3v-2
		h-2V4458.5z"/>
</g>
<g>
	<path fill="#FFFFFF" d="M26.17,4532.07c0.971,0.97,1.4,2.272,1.29,3.563l-1.88,0.022l3.439,3.437l3.521-3.521l-1.99,0.026
		c0.11-2.08-0.61-4.17-2.18-5.735c-2.97-2.974-7.83-2.91-10.87,0.129l2.15,2.147C21.471,4530.33,24.391,4530.29,26.17,4532.07z"/>
	<path fill="#FFFFFF" d="M26.35,4538.85c-1.82,1.82-4.74,1.86-6.52,0.08c-0.971-0.97-1.4-2.272-1.29-3.563l1.88-0.022l-3.439-3.437
		l-3.521,3.521l1.99-0.026c-0.11,2.08,0.61,4.17,2.18,5.735c2.97,2.974,7.83,2.91,10.87-0.129L26.35,4538.85z"/>
</g>
<polygon fill="#FFFFFF" points="23,4289.561 27.33,4292.5 25.8,4287.58 30,4284.471 24.73,4284.359 23,4279.5 21.27,4284.359 
	16,4284.471 20.2,4287.58 18.67,4292.5 "/>
<g>
	<rect x="15.5" y="4568" fill="#FFFFFF" width="15" height="9"/>
	<rect x="15.5" y="4566" fill="#FFFFFF" width="14" height="1"/>
	<rect x="15.5" y="4565" fill="#FFFFFF" width="7" height="1"/>
</g>
<path fill="#FFFFFF" d="M21,4953.67c-1.471,0-2.67-1.199-2.67-2.67s1.199-2.67,2.67-2.67s2.67,1.199,2.67,2.67
	S22.471,4953.67,21,4953.67z M29,4952.6v-3.199h-2.359c-0.146-0.523-0.381-1.023-0.66-1.49l1.619-1.619l-1.89-1.891l-1.62,1.619
	c-0.46-0.279-0.96-0.51-1.49-0.66V4943h-3.2v2.359c-0.53,0.146-1.03,0.381-1.49,0.66l-1.62-1.619l-1.89,1.89l1.62,1.62
	c-0.279,0.46-0.51,0.96-0.66,1.49H13v3.199h2.359c0.15,0.529,0.381,1.029,0.66,1.49l-1.62,1.62l1.89,1.89l1.62-1.619
	c0.46,0.279,0.96,0.51,1.49,0.66V4959H22.6v-2.359c0.53-0.146,1.03-0.381,1.49-0.66l1.62,1.619l1.89-1.89l-1.619-1.62
	c0.279-0.46,0.517-0.96,0.66-1.49H29L29,4952.6z"/>
<path fill="#FFFFFF" d="M13,4711.58c0,2.439,1.85,4.42,4.12,4.42h0.101H28.88c2.271,0,4.12-1.98,4.12-4.42
	c0-2.37-1.74-4.311-3.92-4.42c0-2.84-2.15-5.16-4.801-5.16c-1.719,0-3.229,0.96-4.069,2.42c-0.29-0.13-0.601-0.21-0.931-0.21
	c-1.299,0-2.359,1.13-2.359,2.53c0,0.14,0.01,0.272,0.03,0.42C14.75,4707.25,13,4709.189,13,4711.58z M25,4707v3h3l-5,5l-5-5h3v-3
	H25z"/>
<path fill="#FFFFFF" d="M13,4743.58c0,2.439,1.85,4.42,4.12,4.42h0.101H28.88c2.271,0,4.12-1.98,4.12-4.42
	c0-2.37-1.74-4.311-3.92-4.42c0-2.58-1.77-4.721-4.08-5.1V4739h1v7h-6v-7h1v-3.62c-0.3,0.31-0.57,0.66-0.79,1.04
	c-0.29-0.13-0.601-0.21-0.931-0.21c-1.299,0-2.359,1.13-2.359,2.53c0,0.14,0.01,0.272,0.03,0.42
	C14.75,4739.25,13,4741.189,13,4743.58z M23,4734.18c-0.35,0.11-0.689,0.25-1,0.437v0.396h1v1h-1v1h1v1h-1v1v1h-1v5h4v-5h-1v-1h-1
	v-1h1v-1h-1v-1h1v-1h-1V4734.18z M24,4744h-2v-3h2V4744z"/>
<path fill="#FFFFFF" d="M18,4646l-4,9h14l4-9H18z M14,4653l3-8h11v-1h-7v-1h-7V4653z"/>
<g>
	<polygon fill="#FFFFFF" points="18,4894 20,4894 20,4892 23,4892 23,4894 25,4894 21.5,4898 	"/>
	<polygon fill="#FFFFFF" points="25,4885 23,4885 23,4887 20,4887 20,4885 18,4885 21.5,4881 	"/>
	<polygon fill="#FFFFFF" points="26,4893 26,4891 24,4891 24,4888 26,4888 26,4886 30,4889.5 	"/>
	<polygon fill="#FFFFFF" points="17,4886 17,4888 19,4888 19,4891 17,4891 17,4893 13,4889.5 	"/>
</g>
<g>
	<path fill="#FFFFFF" d="M26.811,4819.061c-0.25-0.261-2.541-1.313-2.971-1.461c0-0.09-0.05-0.41-0.17-0.47
		c-0.109-0.04-0.49-0.229-0.49-0.229c0-0.023-0.039-0.104-0.05-0.188c0-0.104,0.05-0.188,0.05-0.188
		c0.051-0.104,0.23-0.33,0.28-0.521s0.11-0.66,0.11-0.66c0-0.102,0.15-0.141,0.24-0.188c0.17-0.08,0.299-1.09,0.299-1.09
		c0-0.32-0.129-0.188-0.129-0.42v-0.881c0-1.07-0.871-1.76-1.961-1.76H21.98c-1.09,0-1.961,0.688-1.961,1.76v0.881
		c0,0.232-0.129,0.1-0.129,0.42c0,0,0.129,1.01,0.299,1.09c0.09,0.049,0.24,0.09,0.24,0.188c0,0,0.061,0.473,0.11,0.66
		s0.229,0.42,0.28,0.521c0,0,0.05,0.09,0.05,0.188c-0.011,0.08-0.05,0.16-0.05,0.188c0,0-0.381,0.189-0.49,0.229
		c-0.12,0.06-0.17,0.38-0.17,0.47c-0.43,0.146-2.721,1.201-2.971,1.461c-0.189,0.199-0.189,1.33-0.189,1.33v0.146
		c0,0.267,0.21,0.478,0.471,0.478h9.059c0.261,0,0.471-0.211,0.471-0.478v-0.146C27,4820.391,27,4819.26,26.811,4819.061z"/>
	<g>
		<path fill="#FFFFFF" d="M16.471,4818.37c0.26-0.271,1.18-0.74,2-1.12c-0.011-0.1-0.051-0.3-0.131-0.35
			c-0.09-0.03-0.4-0.187-0.4-0.187c0-0.021-0.029-0.091-0.039-0.146c0-0.08,0.039-0.149,0.039-0.149
			c0.041-0.08,0.19-0.271,0.23-0.42s0.09-0.528,0.09-0.528c0-0.08,0.12-0.105,0.19-0.146c0.13-0.062,0.239-0.87,0.239-0.87
			c0-0.268-0.109-0.146-0.109-0.341v-0.699c0-0.854-0.689-1.41-1.561-1.41H16.98c-0.871,0-1.561,0.55-1.561,1.41v0.699
			c0,0.188-0.109,0.08-0.109,0.341c0,0,0.109,0.812,0.239,0.87c0.07,0.039,0.19,0.063,0.19,0.146c0,0,0.05,0.379,0.09,0.528
			s0.189,0.34,0.23,0.42c0,0,0.039,0.069,0.039,0.149c-0.01,0.061-0.039,0.129-0.039,0.146c0,0-0.311,0.146-0.4,0.187
			c-0.09,0.049-0.131,0.31-0.131,0.379c-0.35,0.104-2.179,0.961-2.379,1.17c-0.15,0.16-0.15,1.061-0.15,1.061v0.109
			c0,0.211,0.17,0.381,0.38,0.381h2.63C16.061,4818.811,16.33,4818.51,16.471,4818.37z"/>
		<path fill="#FFFFFF" d="M30.85,4818.45c-0.199-0.21-2.029-1.06-2.379-1.171c0-0.068-0.041-0.329-0.131-0.379
			c-0.09-0.029-0.4-0.18-0.4-0.18c0-0.021-0.022-0.092-0.039-0.15c0-0.08,0.039-0.15,0.039-0.15c0.041-0.08,0.19-0.27,0.23-0.42
			c0.04-0.146,0.09-0.522,0.09-0.522c0-0.08,0.12-0.104,0.19-0.146c0.13-0.062,0.239-0.871,0.239-0.871
			c0-0.266-0.109-0.148-0.109-0.34v-0.699c0-0.859-0.689-1.41-1.561-1.41H26.98c-0.871,0-1.562,0.549-1.562,1.41v0.699
			c0,0.188-0.107,0.08-0.107,0.34c0,0,0.107,0.812,0.237,0.871c0.07,0.039,0.188,0.064,0.188,0.146c0,0,0.052,0.379,0.092,0.522
			c0.04,0.15,0.188,0.34,0.229,0.42c0,0,0.039,0.07,0.039,0.15c-0.01,0.061-0.039,0.13-0.039,0.15c0,0-0.311,0.146-0.396,0.18
			c-0.08,0.039-0.12,0.25-0.136,0.34c0.82,0.38,1.729,0.85,2,1.13c0.146,0.14,0.41,0.44,0.461,1.63h2.635
			c0.21,0,0.38-0.17,0.38-0.38v-0.11C31,4819.51,31,4818.609,30.85,4818.45z"/>
	</g>
</g>
<g>
	<path fill="#FFFFFF" d="M12,5071.689l7.2-6.5v4.061c5.71,0.629,8.8,6.141,8.8,8.939c-1.141-2.951-5.37-4.062-8.8-4.062v4.062
		L12,5071.689z"/>
</g>
<path fill="#FFFFFF" d="M22.474,5002.818l-1.289,1.17c-0.101,0.09-0.271,0.09-0.371,0l-1.289-1.17l-6.13,4.92l5.73-5.28l-5.73-5.199
	l7.41,5.97c0.101,0.09,0.28,0.09,0.391,0l7.412-5.97l-5.729,5.199l5.729,5.28L22.474,5002.818z M28.346,4996.999H13.645
	c-0.27,0-0.5,0.229-0.5,0.51v9.97c0,0.28,0.23,0.51,0.5,0.51h14.701c0.279,0,0.51-0.229,0.51-0.51v-9.97
	C28.855,4997.229,28.625,4996.999,28.346,4996.999z"/>
<path fill="#333333" d="M22.474,5002.818l-1.289,1.17c-0.101,0.09-0.271,0.09-0.371,0l-1.289-1.17l-6.13,4.92l5.73-5.28l-5.73-5.199
	l7.41,5.97c0.101,0.09,0.28,0.09,0.391,0l7.412-5.97l-5.729,5.199l5.729,5.28L22.474,5002.818z"/>
<g>
	<path fill="#FFFFFF" d="M23.15,5039.469c-0.28-0.309-2.791-1.549-3.271-1.719c0-0.109-0.05-0.49-0.18-0.551
		c-0.13-0.061-0.55-0.27-0.55-0.27c0-0.041-0.041-0.131-0.051-0.23c0-0.109,0.051-0.221,0.051-0.221
		c0.06-0.119,0.26-0.398,0.32-0.609c0.049-0.221,0.119-0.779,0.119-0.779c0-0.121,0.16-0.17,0.26-0.221
		c0.18-0.1,0.33-1.279,0.33-1.279c0-0.391-0.15-0.221-0.15-0.5v-1.023c0-1.273-0.949-2.08-2.149-2.08h-0.05
		c-1.189,0-2.15,0.8-2.15,2.08v1.023c0,0.279-0.15,0.109-0.15,0.5c0,0,0.15,1.187,0.33,1.279c0.101,0.051,0.271,0.1,0.271,0.221
		c0,0,0.06,0.562,0.12,0.779c0.05,0.211,0.26,0.49,0.311,0.609c0,0,0.06,0.104,0.06,0.221c-0.011,0.1-0.06,0.189-0.06,0.23
		c0,0-0.42,0.209-0.541,0.27c-0.129,0.061-0.189,0.439-0.189,0.551c-0.471,0.17-2.99,1.41-3.27,1.719c-0.2,0.23-0.2,1.562-0.2,1.562
		v0.17c0,0.301,0.23,0.551,0.52,0.551h9.96c0.28,0,0.52-0.25,0.52-0.551v-0.17C23.359,5041.029,23.359,5039.699,23.15,5039.469z"/>
</g>
<g>
	<g>
		<path fill="#FFFFFF" d="M13.141,5105.35l7.069-6.273v3.936c5.62,0.6,8.649,5.93,8.649,8.629c-1.129-2.854-5.279-3.92-8.649-3.92
			v3.92L13.141,5105.35z"/>
	</g>
	<polygon fill="#FFFFFF" points="10,5105.35 17.07,5111.629 17.07,5110.238 11.57,5105.35 17.07,5100.469 17.07,5099.068 	"/>
</g>
<g>
	<g>
		<polygon fill="#FFFFFF" points="27.29,5138.91 20.21,5132.629 20.21,5145.189 		"/>
	</g>
	<rect x="13.141" y="5136.549" fill="#FFFFFF" width="10.219" height="4.711"/>
</g>
<path fill="#FFFFFF" d="M21,5033.689c0,1.93,1.57,3.5,3.5,3.5c1.93,0,3.5-1.57,3.5-3.5c0-1.937-1.57-3.5-3.5-3.5
	C22.57,5030.189,21,5031.76,21,5033.689z M24,5031.189h1v2h2v1h-2v2h-1v-2h-2v-1h2V5031.189z"/>
<path fill="#FFFFFF" d="M22,5219.5c-4.42,0-8,3.58-8,8s3.58,8,8,8s8-3.58,8-8S26.42,5219.5,22,5219.5z M24,5223.5v3h3l-5,6l-5-6h3
	v-3H24z"/>
<polygon fill="#FFFFFF" points="12.5,5305 15.11,5302.33 18.37,5305.67 24.891,5299 27.5,5301.67 18.37,5311 "/>
<g opacity="0.3">
	<rect x="16" y="5350" fill="#030303" width="15" height="9"/>
	<rect x="16" y="5348" fill="#030303" width="14" height="1"/>
	<rect x="16" y="5347" fill="#030303" width="7" height="1"/>
</g>
<path fill="#FFFFFF" d="M12,5172.5v9h15v-5.029c-0.16,0.021-0.33,0.029-0.5,0.029c-2.32,0-4.221-1.75-4.471-4H12z M12,5170.5v1
	h10.029c0.041-0.35,0.121-0.68,0.23-1H19v-1h-7V5170.5z M23,5172c0,1.93,1.57,3.5,3.5,3.5s3.5-1.57,3.5-3.5s-1.57-3.5-3.5-3.5
	S23,5170.07,23,5172z M26,5169.5h1v2h2v1h-2v2h-1v-2h-2v-1h2V5169.5z"/>
<path fill="#FFFFFF" d="M12,5262v9h15v-5.029c-0.16,0.021-0.33,0.029-0.5,0.029c-2.32,0-4.221-1.75-4.471-4H12z M12,5260v1h10.029
	c0.041-0.35,0.121-0.68,0.23-1H19v-1h-7V5260z M23,5261.5c0,1.93,1.57,3.5,3.5,3.5s3.5-1.57,3.5-3.5s-1.57-3.5-3.5-3.5
	S23,5259.57,23,5261.5z M26.5,5259.061l0.061-0.061l2.319,3h-1.569v1.811h-1.621V5262h-1.375L26.5,5259.061z"/>
<g>
	<path fill="#FFFFFF" d="M25,5399c-2.21,0-4-1.79-4-4s1.79-4,4-4s4,1.79,4,4S27.21,5399,25,5399z M25,5389c-5,0-8.18,4.29-10,6
		c1.82,1.71,5,6,10,6s8.18-4.29,10-6C33.18,5393.29,30,5389,25,5389z"/>
	<path fill="#FFFFFF" d="M27,5395c0,1.1-0.9,2-2,2c-1.1,0-2-0.9-2-2s0.9-2,2-2C26.1,5393,27,5393.9,27,5395z"/>
</g>
<g>
	<polygon fill="#020202" points="30,5520.5 30,5513.5 23,5513.5 	"/>
	<polygon fill="#020202" points="18,5518.5 18,5525.5 25,5525.5 	"/>
	
		<rect x="22.775" y="5513.554" transform="matrix(0.7068 0.7075 -0.7075 0.7068 3911.6704 1601.333)" fill="#020202" width="2.828" height="11.314"/>
</g>
<g opacity="0.3">
	<polygon fill="#020202" points="19,5668.5 16,5668.5 16,5677.5 	"/>
	<polygon fill="#020202" points="20,5669.5 32,5669.5 29,5678.5 17,5678.5 	"/>
	<rect x="16" y="5667.5" fill="#020202" width="14" height="1"/>
	<rect x="16" y="5666.5" fill="#020202" width="7" height="1"/>
</g>
<g>
	<polygon fill="#E5C973" points="19,5718.5 16,5718.5 16,5727.5 	"/>
	<polygon fill="#E5C973" points="20,5719.5 32,5719.5 29,5728.5 17,5728.5 	"/>
	<rect x="16" y="5717.5" fill="#E5C973" width="14" height="1"/>
	<rect x="16" y="5716.5" fill="#E5C973" width="7" height="1"/>
</g>
<g>
	<polygon fill="#FFFFFF" points="19,5768.5 16,5768.5 16,5777.5 	"/>
	<polygon fill="#FFFFFF" points="20,5769.5 32,5769.5 29,5778.5 17,5778.5 	"/>
	<rect x="16" y="5767.5" fill="#FFFFFF" width="14" height="1"/>
	<rect x="16" y="5766.5" fill="#FFFFFF" width="7" height="1"/>
</g>
<g>
	<polygon fill="#020202" points="24,5562.5 24,5569.5 31,5569.5 	"/>
	
		<rect x="27.049" y="5562.917" transform="matrix(0.7071 0.7071 -0.7071 0.7071 3943.4128 1609.8362)" fill="#020202" width="2.827" height="4.243"/>
	<polygon fill="#020202" points="24,5576.5 24,5569.5 17,5569.5 	"/>
	
		<rect x="18.35" y="5571.512" transform="matrix(-0.7075 -0.7068 0.7068 -0.7075 -3905.4836 9530.6807)" fill="#020202" width="2.827" height="4.243"/>
</g>
<path fill="#020202" d="M25.41,5619.5l3.3-3.29c0.39-0.39,0.39-1.03,0-1.42s-1.03-0.39-1.42,0l-3.29,3.3l-3.29-3.3
	c-0.39-0.39-1.03-0.39-1.42,0s-0.39,1.03,0,1.42l3.3,3.29l-3.3,3.29c-0.39,0.39-0.39,1.03,0,1.42c0.2,0.19,0.45,0.29,0.71,0.29
	s0.51-0.1,0.71-0.29l3.29-3.3l3.29,3.3c0.2,0.19,0.45,0.29,0.71,0.29s0.51-0.1,0.71-0.29c0.39-0.39,0.39-1.03,0-1.42L25.41,5619.5z"
	/>
<g>
	<path fill="#FFFFFF" d="M25.54,5835.5c0.59,0.6,0.62,1.54,0.06,2.1c-0.56,0.562-1.5,0.53-2.1-0.06l-9.04-9.04
		c-0.59-0.6-0.62-1.54-0.06-2.1c0.56-0.562,1.5-0.53,2.1,0.06L25.54,5835.5z"/>
	<path fill="#FFFFFF" d="M23.5,5826.46c0.6-0.59,1.54-0.62,2.1-0.06c0.562,0.56,0.53,1.5-0.06,2.1l-9.04,9.04
		c-0.6,0.59-1.54,0.62-2.1,0.06c-0.56-0.56-0.53-1.5,0.06-2.1L23.5,5826.46z"/>
</g>
<path opacity="0.15" fill="#232020" enable-background="new    " d="M14,5901c0.68,0,1.34-0.27,1.81-0.73l6.18-6.049
	C22.8,5893.43,23.87,5892,25,5892s2.2,1.43,3.01,2.221l6.17,6.039c0.48,0.476,1.141,0.74,1.82,0.74H14L14,5901z"/>
<g>
	<path fill="#FFFFFF" d="M32.779,5901.689C33.63,5902.529,34.79,5903,36,5903H14c1.21,0,2.37-0.471,3.22-1.311l6.17-6.039
		c1.61-1.733,1.61-1.733,3.219,0L32.779,5901.689z"/>
</g>
<path opacity="0.15" fill="#232020" enable-background="new    " d="M14,6064h22c-0.68,0-1.34,0.27-1.82,0.74l-6.17,6.039
	C27.2,6071.57,26.13,6073,25,6073s-2.2-1.43-3.01-2.221l-6.18-6.049C15.34,6064.27,14.68,6064,14,6064L14,6064z"/>
<g>
	<path fill="#F6F6F6" d="M26.609,6069.35c-1.609,1.733-1.609,1.733-3.219,0l-6.17-6.039c-0.85-0.84-2.01-1.311-3.22-1.311h22
		c-1.21,0-2.37,0.471-3.221,1.311L26.609,6069.35z"/>
</g>
<path fill="#020202" d="M7.413,5976l3.3-3.29c0.39-0.39,0.39-1.03,0-1.42c-0.39-0.39-1.03-0.39-1.42,0l-3.29,3.3l-3.29-3.3
	c-0.39-0.39-1.03-0.39-1.42,0s-0.39,1.03,0,1.42l3.3,3.29l-3.3,3.29c-0.39,0.39-0.39,1.03,0,1.42c0.2,0.19,0.45,0.29,0.71,0.29
	c0.26,0,0.51-0.1,0.71-0.29l3.29-3.3l3.29,3.3c0.2,0.19,0.45,0.29,0.71,0.29c0.26,0,0.51-0.1,0.71-0.29c0.39-0.39,0.39-1.03,0-1.42
	L7.413,5976z"/>
<path fill="#010101" d="M22,6017h-7v-1H7v2h15V6017z M7,6028h16v-9H7V6028z"/>
<path fill="#FFFFFF" d="M20.909,6025.081c-0.126-0.128-1.246-0.64-1.455-0.708c0-0.046-0.024-0.201-0.085-0.229
	c-0.057-0.021-0.241-0.11-0.241-0.11c0-0.015-0.021-0.052-0.024-0.093c0-0.045,0.024-0.09,0.024-0.09
	c0.024-0.049,0.116-0.162,0.14-0.252c0.025-0.09,0.055-0.318,0.055-0.318c0-0.049,0.072-0.065,0.117-0.094
	c0.08-0.037,0.207-0.525,0.207-0.525c0-0.158-0.008-0.09-0.008-0.203v-0.424c0-0.521-0.546-0.854-1.078-0.854h-0.02
	c-0.532,0-1.078,0.332-1.078,0.854v0.424c0,0.113-0.007,0.045-0.007,0.203c0,0,0.096,0.488,0.177,0.525
	c0.045,0.023,0.133,0.045,0.133,0.094c0,0,0.036,0.229,0.062,0.318c0.024,0.09,0.118,0.203,0.144,0.252c0,0,0.026,0.045,0.026,0.09
	c-0.003,0.041-0.022,0.078-0.022,0.093c0,0-0.186,0.09-0.24,0.11c-0.061,0.023-0.084,0.183-0.084,0.229
	c-0.021,0.007-0.055,0.02-0.092,0.035c0.537,0.243,1.195,0.564,1.34,0.711c0.047,0.048,0.172,0.17,0.188,0.882h1.613
	c0.126,0,0.302-0.087,0.302-0.212v-0.068C21,6025.721,21,6025.175,20.909,6025.081"/>
<path fill="#FFFFFF" d="M12.352,6024.372c0-0.045-0.024-0.2-0.084-0.228c-0.057-0.021-0.24-0.11-0.24-0.11
	c0-0.015-0.022-0.054-0.024-0.095c0-0.045,0.024-0.09,0.024-0.09c0.023-0.049,0.115-0.162,0.14-0.252s0.054-0.317,0.054-0.317
	c0-0.05,0.071-0.069,0.118-0.093c0.08-0.039,0.205-0.525,0.205-0.525c0-0.158-0.006-0.09-0.006-0.203v-0.426
	c0-0.521-0.546-0.854-1.078-0.854H11.44c-0.532,0-1.078,0.332-1.078,0.854v0.426c0,0.113-0.008,0.045-0.008,0.203
	c0,0,0.097,0.486,0.178,0.525c0.045,0.023,0.134,0.043,0.134,0.093c0,0,0.035,0.228,0.062,0.317c0.022,0.09,0.117,0.203,0.143,0.252
	c0,0,0.025,0.045,0.025,0.09c-0.002,0.041-0.022,0.08-0.022,0.095c0,0-0.185,0.089-0.241,0.11c-0.059,0.023-0.084,0.183-0.084,0.228
	c-0.209,0.069-1.328,0.58-1.455,0.708c-0.09,0.094-0.09,0.639-0.09,0.639v0.07c0,0.124,0.178,0.211,0.303,0.211h1.611
	c0.018-0.712,0.143-0.834,0.188-0.881c0.146-0.146,0.806-0.469,1.342-0.712C12.404,6024.393,12.373,6024.379,12.352,6024.372"/>
<path fill="#FFFFFF" d="M16.236,6024.257c0-0.06-0.032-0.267-0.111-0.304c-0.074-0.028-0.322-0.148-0.322-0.148
	c0-0.018-0.027-0.068-0.031-0.123c0-0.061,0.031-0.121,0.031-0.121c0.033-0.064,0.154-0.215,0.188-0.336
	c0.033-0.119,0.07-0.424,0.07-0.424c0-0.064,0.099-0.092,0.158-0.124c0.106-0.051,0.229-0.7,0.229-0.7
	c0-0.212-0.054-0.121-0.054-0.271v-0.563c0-0.692-0.639-1.142-1.349-1.142H15.02c-0.709,0-1.348,0.441-1.348,1.142v0.563
	c0,0.15-0.054,0.062-0.054,0.271c0,0,0.104,0.648,0.212,0.7c0.062,0.032,0.168,0.06,0.168,0.124c0,0,0.041,0.305,0.074,0.424
	c0.031,0.12,0.156,0.271,0.188,0.336c0,0,0.033,0.061,0.033,0.121c-0.004,0.055-0.031,0.105-0.031,0.123c0,0-0.246,0.12-0.32,0.148
	c-0.08,0.037-0.112,0.244-0.112,0.304c-0.279,0.093-1.771,0.774-1.94,0.944c-0.121,0.125-0.121,0.853-0.121,0.853v0.093
	c0,0.164,0.176,0.854,0.344,0.854h5.845c0.168,0,0.343-0.688,0.343-0.854v-0.093c0,0,0-0.728-0.121-0.853
	C18.01,6025.031,16.518,6024.35,16.236,6024.257"/>
<path fill="#FFFFFF" d="M32.188,6119.877c-1.138,0-2.062-0.928-2.062-2.064c0-1.139,0.927-2.062,2.062-2.062
	c1.143,0,2.065,0.932,2.065,2.062C34.253,6118.949,33.326,6119.877,32.188,6119.877z M38.376,6119.049v-2.475h-1.825
	c-0.113-0.408-0.295-0.795-0.51-1.152l1.252-1.252l-1.462-1.463l-1.253,1.252c-0.355-0.216-0.742-0.395-1.152-0.51v-1.825H30.95
	v1.825c-0.409,0.113-0.796,0.294-1.152,0.51l-1.253-1.252l-1.462,1.461l1.253,1.254c-0.216,0.355-0.395,0.742-0.511,1.152H26v2.475
	h1.824c0.115,0.41,0.295,0.797,0.512,1.152l-1.254,1.254l1.462,1.461l1.253-1.252c0.355,0.217,0.742,0.395,1.152,0.511V6124h2.477
	v-1.825c0.41-0.114,0.797-0.294,1.152-0.511l1.253,1.252l1.462-1.461l-1.252-1.254c0.215-0.355,0.396-0.742,0.51-1.152H38.376
	L38.376,6119.049z"/>
<path fill="#FFFFFF" d="M26.215,6166.191l-1.943,1.765c-0.152,0.136-0.41,0.136-0.561,0l-1.944-1.765l-9.245,7.42l8.642-7.963
	l-8.642-7.842l11.176,9.004c0.152,0.136,0.421,0.136,0.589,0l11.177-9.004l-8.641,7.842l8.641,7.963L26.215,6166.191z
	 M35.068,6157.415H12.899c-0.407,0-0.754,0.347-0.754,0.771v15.035c0,0.422,0.347,0.771,0.754,0.771h22.169
	c0.423,0,0.771-0.348,0.771-0.771v-15.035C35.839,6157.762,35.491,6157.415,35.068,6157.415z"/>
<path fill="#D42328" d="M26.215,6166.191l-1.943,1.765c-0.152,0.136-0.41,0.136-0.561,0l-1.944-1.765l-9.245,7.42l8.642-7.963
	l-8.642-7.842l11.176,9.004c0.152,0.136,0.421,0.136,0.589,0l11.177-9.004l-8.641,7.842l8.641,7.963L26.215,6166.191z"/>
<g opacity="0.3">
	<path fill="#010101" d="M29.341,6216.96c-0.397-0.418-3.974-2.079-4.642-2.306c0-0.145-0.076-0.652-0.27-0.734
		c-0.185-0.074-0.77-0.367-0.77-0.367c0-0.042-0.072-0.164-0.078-0.305c0-0.147,0.078-0.289,0.078-0.289
		c0.077-0.156,0.367-0.53,0.445-0.82c0.076-0.285,0.168-1.032,0.168-1.032c0-0.155,0.233-0.222,0.375-0.306
		c0.265-0.119,0.479-1.705,0.479-1.705c0-0.518-0.216-0.295-0.216-0.66v-1.379c0-1.697-1.437-2.615-3.134-2.615H21.71
		c-1.697,0-2.991,0.918-2.991,2.615v1.379c0,0.367-0.212,0.146-0.212,0.66c0,0,0.212,1.586,0.467,1.705
		c0.148,0.076,0.382,0.146,0.382,0.306c0,0,0.092,0.747,0.169,1.032c0.077,0.29,0.368,0.664,0.445,0.82c0,0,0.079,0.142,0.079,0.289
		c-0.015,0.135-0.079,0.263-0.079,0.305c0,0-0.594,0.289-0.771,0.367c-0.191,0.082-0.268,0.594-0.268,0.734
		c-0.672,0.222-4.243,1.888-4.647,2.306c-0.29,0.304-0.29,2.079-0.29,2.079v0.219c0,0.4,0.332,0.742,0.735,0.742h14.158
		c0.4,0,0.745-0.338,0.745-0.742v-0.219C29.639,6219.039,29.639,6217.264,29.341,6216.96z"/>
</g>
<polygon fill="#FBAB1F" points="39,6275.42 42.71,6278 41.4,6273.68 45,6270.95 40.48,6270.85 39,6266.59 37.52,6270.85 33,6270.95 
	36.6,6273.68 35.29,6278 "/>
<path fill="#171717" d="M16,6325c0,4.42,3.58,8,8,8s8-3.58,8-8s-3.58-8-8-8S16,6320.58,16,6325z M23,6329l-4-4l4-4V6329z M28,6329
	l-4-4l4-4V6329z"/>
<path fill="#171717" d="M32,6365c0,4.42-3.58,8-8,8s-8-3.58-8-8s3.58-8,8-8S32,6360.58,32,6365z M25,6369l4-4l-4-4V6369z M20,6369
	l4-4l-4-4V6369z"/>
<g>
	<circle fill="#FFFFFF" cx="22" cy="6405" r="8"/>
	<defs>
		<filter id="Adobe_OpacityMaskFilter" filterUnits="userSpaceOnUse" x="16" y="6399" width="12" height="12.006">
			<feColorMatrix  type="matrix" values="1 0 0 0 0  0 1 0 0 0  0 0 1 0 0  0 0 0 1 0"/>
		</filter>
	</defs>
	<mask maskUnits="userSpaceOnUse" x="16" y="6399" width="12" height="12.006" id="SVGID_2_">
		<g filter="url(#Adobe_OpacityMaskFilter)">
		</g>
	</mask>
	<path mask="url(#SVGID_2_)" fill="#87C7EA" fill-opacity="0" d="M22,6407c1.1,0,2-0.9,2-2s-0.9-2-2-2s-2,0.9-2,2S20.9,6407,22,6407
		z M28,6406h-2.141c-0.104,0.359-0.239,0.7-0.43,1.02l1.521,1.521l-1.41,1.41l-1.521-1.521c-0.319,0.19-0.661,0.33-1.021,0.434
		v2.143h-2v-2.144c-0.36-0.103-0.7-0.237-1.02-0.433l-1.52,1.521l-1.41-1.41l1.52-1.521c-0.19-0.317-0.33-0.66-0.43-1.021H16v-2
		h2.14c0.1-0.356,0.24-0.699,0.43-1.021l-1.52-1.521l1.41-1.41l1.52,1.521c0.32-0.188,0.66-0.33,1.02-0.432V6399h2v2.141
		c0.359,0.104,0.7,0.239,1.02,0.434l1.521-1.521l1.41,1.41l-1.521,1.521c0.19,0.316,0.33,0.66,0.43,1.021H28V6406z"/>
</g>
<g>
	<g>
		<polygon fill="#FFFFFF" points="30,6716 14,6732 14,6716 		"/>
	</g>
	<g>
		<polygon fill="#020202" points="25,6736 14,6747 14,6746 24,6736 		"/>
		<polygon fill="#020202" points="20,6736 14,6742 14,6741 19,6736 		"/>
	</g>
</g>
<g>
	<g>
		<path fill="#020202" d="M27,6682c0,1.65-1.35,3-3,3h-8c-1.65,0-3-1.35-3-3v-6c0-1.65,1.35-3,3-3h8c1.65,0,3,1.35,3,3V6682z"/>
	</g>
	<polygon fill="#020202" points="28,6680 33,6684 33,6674 28,6678 	"/>
</g>
<g>
	<path fill="#020202" d="M28,6627v1.5c0,2.48-2.02,4.5-4.5,4.5c-2.48,0-4.5-2.02-4.5-4.5v-1.5h-1v1.5c0,3.029,2.47,5.5,5.5,5.5
		c3.029,0,5.5-2.471,5.5-5.5v-1.5H28z"/>
	<polygon fill="#020202" points="23,6636 20,6636 20,6637 27,6637 27,6636 24,6636 24,6634 23.5,6634 23,6634 	"/>
	<rect x="22" y="6625" fill="#020202" width="1" height="1"/>
	<rect x="23" y="6626" fill="#020202" width="1" height="1"/>
	<path fill="#020202" d="M21,6627h1v-1h-1v-1h1v-1h-1v-1h1v-1h1v1h1v-1h1v1h1v1h-1v1h1v1h-1v1h1v1h-1v1h-1v-1h-1v1h-1v-1h-1V6627z
		 M23.5,6632c1.92,0,3.5-1.58,3.5-3.5v-5c0-1.92-1.58-3.5-3.5-3.5s-3.5,1.58-3.5,3.5v5C20,6630.42,21.58,6632,23.5,6632z"/>
	<rect x="23" y="6624" fill="#020202" width="1" height="1"/>
	<rect x="24" y="6627" fill="#020202" width="1" height="1"/>
	<rect x="22" y="6623" fill="#020202" width="1" height="1"/>
	<rect x="22" y="6627" fill="#020202" width="1" height="1"/>
	<rect x="24" y="6623" fill="#020202" width="1" height="1"/>
	<rect x="24" y="6625" fill="#020202" width="1" height="1"/>
</g>
<path fill="#8FC462" d="M21.69,6594.311c-1.74-1.74-2.96-3.811-4.14-5.961c-1.11-2.025-0.51-3.855,1.51-5.066
	c0.71-0.434,1.3-0.379,1.83,0.25c0.25,0.312,1.18,1.434,1.42,1.75c0.76,0.979,0.77,1.58-0.62,2.951c-0.58,0.566-0.44,1.299,0,1.74
	l4.339,4.34c0.441,0.438,1.171,0.58,1.74,0c1.371-1.395,1.971-1.381,2.951-0.621c0.315,0.24,1.438,1.17,1.75,1.42
	c0.629,0.527,0.68,1.121,0.25,1.83c-1.215,2.021-3.041,2.621-5.07,1.514C25.5,6597.27,23.43,6596.05,21.69,6594.311L21.69,6594.311z
	"/>
<g>
	<path opacity="0.7" fill="#020202" enable-background="new    " d="M28,6496.5v-0.43l-3.891,3.89
		c0.131,0.011,0.261,0.04,0.391,0.04C26.42,6500,28,6498.42,28,6496.5z M20.2,6497.74c-0.12-0.4-0.2-0.811-0.2-1.24v-1.5h-1v1.5
		c0,0.721,0.14,1.41,0.4,2.04L20.2,6497.74z M25,6502h-0.5H24v2h-3v1h7v-1h-3V6502z M22.46,6501.6c0.64,0.26,1.32,0.4,2.04,0.4
		c3.029,0,5.5-2.471,5.5-5.5v-1.5h-0.93l-0.07,0.07v1.43c0,2.48-2.02,4.5-4.5,4.5c-0.43,0-0.84-0.08-1.24-0.189L22.46,6501.6z
		 M23,6492h1v-1h-1V6492z M23,6493v1h0.94l0.06-0.061V6493H23z M24,6491h1v-1h1v1h0.939l0.801-0.8c-0.52-1.28-1.78-2.2-3.24-2.2
		c-1.92,0-3.5,1.58-3.5,3.5v5c0,0.13,0.02,0.26,0.04,0.4l0.96-0.961V6495h0.94l0.06-0.061V6494h-1v-1h1v-1h-1v-1h1v-1h1V6491z
		 M25,6492.93V6492h-1v1h0.939L25,6492.93z M25,6491v1h0.939l0.061-0.07V6491H25z"/>
	<path fill="#D92328" d="M33.66,6488.99c0.449-0.45,0.449-1.2,0-1.65c-0.45-0.449-1.2-0.449-1.65,0l-17.67,17.67
		c-0.45,0.451-0.45,1.201,0,1.65c0.23,0.221,0.52,0.34,0.83,0.34c0.3,0,0.59-0.12,0.82-0.34L33.66,6488.99z"/>
</g>
<g>
	<g opacity="0.7">
		<path fill="#020202" d="M26.93,6541H20c-1.65,0-3,1.35-3,3v6c0,0.279,0.05,0.55,0.13,0.811L26.93,6541z"/>
		<path fill="#020202" d="M21.07,6553H28c1.65,0,3-1.35,3-3v-6c0-0.279-0.05-0.55-0.12-0.811L21.07,6553z"/>
		<polygon fill="#020202" points="32,6546 32,6548 37,6552 37,6542 		"/>
	</g>
	<path fill="#DA2228" d="M33.66,6538.99c0.449-0.45,0.449-1.2,0-1.65c-0.45-0.449-1.2-0.449-1.65,0l-17.67,17.67
		c-0.45,0.451-0.45,1.201,0,1.65c0.23,0.221,0.52,0.34,0.83,0.34c0.3,0,0.59-0.12,0.82-0.34L33.66,6538.99z"/>
</g>
<rect x="20" y="6768" fill="#020202" width="10" height="1"/>
<rect x="20" y="6770" fill="#020202" width="10" height="1"/>
<rect x="20" y="6772" fill="#020202" width="10" height="1"/>
<g>
	<path fill="#FFFFFF" d="M26.5,7152v-0.43l-3.89,3.89c0.13,0.011,0.26,0.04,0.39,0.04C24.92,7155.5,26.5,7153.92,26.5,7152z
		 M18.7,7153.24c-0.12-0.4-0.2-0.811-0.2-1.24v-1.5h-1v1.5c0,0.721,0.14,1.41,0.4,2.04L18.7,7153.24z M23.5,7157.5H23h-0.5v2h-3v1h7
		v-1h-3V7157.5z M20.96,7157.1c0.64,0.26,1.32,0.4,2.04,0.4c3.029,0,5.5-2.471,5.5-5.5v-1.5h-0.93l-0.07,0.07v1.43
		c0,2.48-2.02,4.5-4.5,4.5c-0.43,0-0.84-0.08-1.24-0.189L20.96,7157.1z M21.5,7147.5h1v-1h-1V7147.5z M21.5,7148.5v1h0.94
		l0.06-0.061v-0.939H21.5z M22.5,7146.5h1v-1h1v1h0.939l0.801-0.8c-0.52-1.28-1.78-2.2-3.24-2.2c-1.92,0-3.5,1.58-3.5,3.5v5
		c0,0.13,0.02,0.26,0.04,0.4l0.96-0.961v-0.939h0.94l0.06-0.061v-0.939h-1v-1h1v-1h-1v-1h1v-1h1V7146.5z M23.5,7148.43v-0.93h-1v1
		h0.94L23.5,7148.43z M23.5,7146.5v1h0.939l0.061-0.07v-0.93H23.5z"/>
	<path fill="#EE2754" d="M32.16,7144.49c0.449-0.45,0.449-1.2,0-1.65c-0.45-0.449-1.2-0.449-1.65,0l-16.67,16.67
		c-0.45,0.451-0.45,1.201,0,1.65c0.23,0.221,0.52,0.34,0.83,0.34c0.3,0,0.59-0.12,0.82-0.34L32.16,7144.49z"/>
</g>
<g>
	<g>
		<polygon fill="#FFFFFF" points="33.5,6821.5 33.5,6814.5 26.5,6814.5 		"/>
		
			<rect x="27.897" y="6815.486" transform="matrix(-0.7071 -0.7071 0.7071 -0.7071 -4771.2388 11660.3184)" fill="#FFFFFF" width="2.828" height="5.658"/>
	</g>
	<g>
		<polygon fill="#FFFFFF" points="15.5,6825.5 15.5,6832.5 22.5,6832.5 		"/>
		
			<rect x="18.181" y="6825.765" transform="matrix(0.707 0.7072 -0.7072 0.707 4834.8755 1986.7808)" fill="#FFFFFF" width="2.828" height="5.657"/>
	</g>
	<g>
		<polygon fill="#FFFFFF" points="22.5,6814.5 15.5,6814.5 15.5,6821.5 		"/>
		
			<rect x="18.178" y="6815.578" transform="matrix(-0.7069 0.7073 -0.7073 -0.7069 4855.96 11624.7129)" fill="#FFFFFF" width="2.828" height="5.657"/>
	</g>
	<g>
		<polygon fill="#FFFFFF" points="26.5,6832.5 33.5,6832.5 33.5,6825.5 		"/>
		
			<rect x="28.269" y="6825.482" transform="matrix(0.7071 -0.7071 0.7071 0.7071 -4819.6509 2020.9556)" fill="#FFFFFF" width="2.828" height="5.658"/>
	</g>
</g>
<g>
	<g>
		<path fill="#FFFFFF" d="M24.43,7097.5H17.5c-1.65,0-3,1.35-3,3v6c0,0.279,0.05,0.55,0.13,0.811L24.43,7097.5z"/>
		<path fill="#FFFFFF" d="M18.57,7109.5h6.93c1.65,0,3-1.35,3-3v-6c0-0.279-0.05-0.55-0.12-0.811L18.57,7109.5z"/>
		<polygon fill="#FFFFFF" points="29.5,7102.5 29.5,7104.5 34.5,7108.5 34.5,7098.5 		"/>
	</g>
</g>
<path fill="#EE2754" d="M32.16,7094.49c0.449-0.45,0.449-1.2,0-1.65c-0.45-0.449-1.2-0.449-1.65,0l-16.67,16.67
	c-0.45,0.451-0.45,1.201,0,1.65c0.23,0.221,0.52,0.34,0.83,0.34c0.3,0,0.59-0.12,0.82-0.34L32.16,7094.49z"/>
<g>
	<g>
		<path fill="#FFFFFF" d="M28.5,6941.5v1.5c0,2.48-2.02,4.5-4.5,4.5c-2.48,0-4.5-2.02-4.5-4.5v-1.5h-1v1.5c0,3.029,2.47,5.5,5.5,5.5
			c3.029,0,5.5-2.471,5.5-5.5v-1.5H28.5z"/>
		<polygon fill="#FFFFFF" points="23.5,6950.5 20.5,6950.5 20.5,6951.5 27.5,6951.5 27.5,6950.5 24.5,6950.5 24.5,6948.5 24,6948.5 
			23.5,6948.5 		"/>
		<rect x="22.5" y="6939.5" fill="#FFFFFF" width="1" height="1"/>
		<rect x="23.5" y="6940.5" fill="#FFFFFF" width="1" height="1"/>
		<path fill="#FFFFFF" d="M21.5,6941.5h1v-1h-1v-1h1v-1h-1v-1h1v-1h1v1h1v-1h1v1h1v1h-1v1h1v1h-1v1h1v1h-1v1h-1v-1h-1v1h-1v-1h-1
			V6941.5z M24,6946.5c1.92,0,3.5-1.58,3.5-3.5v-5c0-1.92-1.58-3.5-3.5-3.5s-3.5,1.58-3.5,3.5v5
			C20.5,6944.92,22.08,6946.5,24,6946.5z"/>
		<rect x="23.5" y="6938.5" fill="#FFFFFF" width="1" height="1"/>
		<rect x="24.5" y="6941.5" fill="#FFFFFF" width="1" height="1"/>
		<rect x="22.5" y="6937.5" fill="#FFFFFF" width="1" height="1"/>
		<rect x="22.5" y="6941.5" fill="#FFFFFF" width="1" height="1"/>
		<rect x="24.5" y="6937.5" fill="#FFFFFF" width="1" height="1"/>
		<rect x="24.5" y="6939.5" fill="#FFFFFF" width="1" height="1"/>
	</g>
</g>
<g>
	<g>
		<g>
			<path fill="#FFFFFF" d="M28.5,7006.5c0,1.65-1.35,3-3,3h-8c-1.65,0-3-1.35-3-3v-6c0-1.65,1.35-3,3-3h8c1.65,0,3,1.35,3,3V7006.5z
				"/>
		</g>
		<polygon fill="#FFFFFF" points="29.5,7004.5 34.5,7008.5 34.5,6998.5 29.5,7002.5 		"/>
	</g>
</g>
<path fill="#FFFFFF" d="M24.5,7059.5c2.5,0,4.87,0.6,7.27,1.279c2.26,0.641,3.145,2.351,2.562,4.601c-0.21,0.8-0.66,1.19-1.5,1.11
	c-0.398-0.041-1.88-0.17-2.28-0.225c-1.25-0.16-1.688-0.566-1.67-2.51c0-0.8-0.63-1.223-1.26-1.223h-6.24
	c-0.63,0-1.26,0.42-1.26,1.223c0.02,1.938-0.42,2.354-1.67,2.51c-0.4,0.051-1.88,0.184-2.28,0.225c-0.84,0.08-1.29-0.312-1.5-1.11
	c-0.58-2.25,0.3-3.96,2.56-4.601C19.63,7060.1,22,7059.5,24.5,7059.5L24.5,7059.5z"/>
<polygon fill="#FFFFFF" points="17,7241 33,7241 25,7249 "/>
<polygon fill="#FFFFFF" points="33,7319 17,7319 25,7311 "/>
<g>
	<circle fill="#FFFFFF" cx="22" cy="6447" r="8"/>
	<path fill="#87C7EA" d="M23.41,6447l2.3-2.29c0.39-0.39,0.39-1.03,0-1.42s-1.03-0.39-1.42,0l-2.29,2.3l-2.29-2.3
		c-0.39-0.39-1.03-0.39-1.42,0s-0.39,1.03,0,1.42l2.3,2.29l-2.3,2.29c-0.39,0.39-0.39,1.03,0,1.42c0.2,0.19,0.45,0.29,0.71,0.29
		s0.51-0.1,0.71-0.29l2.29-2.3l2.29,2.3c0.2,0.19,0.45,0.29,0.71,0.29s0.51-0.1,0.71-0.29c0.39-0.39,0.39-1.03,0-1.42L23.41,6447z"
		/>
</g>
<g>
	<g>
		<polygon fill="#FFFFFF" points="26.5,6874.404 26.5,6881.404 33.5,6881.404 		"/>
		
			<rect x="28.897" y="6874.388" transform="matrix(0.7075 0.7068 -0.7068 0.7075 4869.418 1990.4927)" fill="#FFFFFF" width="2.827" height="5.658"/>
	</g>
	<g>
		<polygon fill="#FFFFFF" points="22.5,6892.404 22.5,6885.404 15.5,6885.404 		"/>
		
			<rect x="16.992" y="6886.482" transform="matrix(-0.707 -0.7072 0.7072 -0.707 -4840.6543 11773.2109)" fill="#FFFFFF" width="2.828" height="5.657"/>
	</g>
	<g>
		<polygon fill="#FFFFFF" points="15.5,6881.404 22.5,6881.404 22.5,6874.404 		"/>
		
			<rect x="17.181" y="6874.482" transform="matrix(0.7072 -0.707 0.707 0.7072 -4856.9551 2026.8701)" fill="#FFFFFF" width="2.827" height="5.657"/>
	</g>
	<g>
		<polygon fill="#FFFFFF" points="33.5,6885.404 26.5,6885.404 26.5,6892.404 		"/>
		
			<rect x="29.086" y="6886.576" transform="matrix(-0.7071 0.7071 -0.7071 -0.7071 4923.6118 11739.3828)" fill="#FFFFFF" width="2.828" height="5.658"/>
	</g>
</g>
<g>
	<path opacity="0.5" fill="#FFFFFF" enable-background="new    " d="M38.68,302.68c-0.43-0.459-4.32-2.27-5.05-2.52
		c0-0.16-0.08-0.71-0.29-0.811c-0.199-0.07-0.84-0.39-0.84-0.39c0-0.05-0.07-0.19-0.08-0.33c0-0.159,0.08-0.319,0.08-0.319
		c0.09-0.17,0.4-0.58,0.49-0.891c0.08-0.32,0.18-1.13,0.18-1.13c0-0.17,0.26-0.25,0.41-0.34c0.279-0.13,0.52-1.86,0.52-1.86
		c0-0.561-0.24-0.32-0.24-0.72v-1.511c0-1.859-1.56-2.859-3.398-2.859h-0.068c-1.852,0-3.25,1-3.25,2.859v1.511
		c0,0.399-0.23,0.159-0.23,0.72c0,0,0.23,1.73,0.5,1.86c0.16,0.09,0.42,0.17,0.42,0.34c0,0,0.1,0.81,0.18,1.13
		c0.09,0.311,0.4,0.721,0.49,0.891c0,0,0.08,0.16,0.08,0.319c-0.01,0.14-0.08,0.28-0.08,0.33c0,0-0.65,0.319-0.84,0.39
		c-0.21,0.101-0.29,0.65-0.29,0.811c-0.149,0.05-0.42,0.16-0.75,0.311c1.84,0.85,4.19,2.02,4.69,2.539
		c0.148,0.16,0.6,0.65,0.68,2.99h6.199c0.439,0,0.811-0.37,0.811-0.811v-0.239C39,304.95,39,303.01,38.68,302.68z"/>
	<path opacity="0.78" fill="#FFFFFF" enable-background="new    " d="M30.58,303.7c-0.551-0.591-5.59-2.94-6.53-3.261
		c0-0.199-0.1-0.92-0.37-1.039c-0.26-0.101-1.09-0.51-1.09-0.51c0-0.061-0.1-0.24-0.109-0.431c0-0.21,0.109-0.41,0.109-0.41
		c0.11-0.22,0.52-0.75,0.631-1.159c0.109-0.41,0.239-1.461,0.239-1.461c0-0.22,0.33-0.32,0.53-0.43c0.359-0.17,0.66-2.41,0.66-2.41
		c0-0.73-0.301-0.42-0.301-0.939v-1.95c0-2.4-2.02-3.7-4.399-3.7h-0.091c-2.389,0-4.209,1.3-4.209,3.7v1.95
		c0,0.52-0.301,0.209-0.301,0.939c0,0,0.301,2.24,0.66,2.41c0.2,0.109,0.53,0.21,0.53,0.43c0,0,0.13,1.051,0.239,1.461
		c0.111,0.409,0.521,0.939,0.631,1.159c0,0,0.109,0.2,0.109,0.41c-0.02,0.19-0.109,0.37-0.109,0.431c0,0-0.84,0.409-1.09,0.51
		c-0.271,0.119-0.37,0.84-0.37,1.039c-0.95,0.32-5.97,2.67-6.54,3.261C9,304.13,9,306.641,9,306.641v0.31
		c0,0.569,0.47,1.05,1.03,1.05h19.93c0.56,0,1.04-0.48,1.04-1.05v-0.31C31,306.641,31,304.13,30.58,303.7z"/>
</g>
<g>
	<polygon fill="#FFFFFF" points="31,7443 31,7442 24,7442 24,7441 16,7441 16,7451 20,7443 	"/>
	<path fill="#FFFFFF" d="M30.9,7450.721l-0.021,0.069c-0.029,0.12-0.229,0.21-0.352,0.21h-1.6c0.18-0.71,0.08-0.83,0.051-0.88
		c-0.109-0.149-0.67-0.47-1.131-0.71l0.09-0.04c0.021-0.04,0.08-0.2,0.142-0.229l0.271-0.11l0.051-0.09c0.02-0.039,0-0.09,0-0.09
		c-0.01-0.05-0.08-0.16-0.07-0.25c-0.01-0.09,0.02-0.319,0.02-0.319c0.021-0.049-0.07-0.069-0.108-0.09
		c-0.07-0.039-0.03-0.529-0.03-0.529l0.051-0.2l0.119-0.431c0.141-0.521,0.771-0.851,1.29-0.851h0.021
		c0.531,0,0.979,0.33,0.851,0.851l-0.12,0.431c-0.029,0.11,0,0.04-0.04,0.2c0,0-0.26,0.49-0.351,0.529
		c-0.049,0.021-0.129,0.041-0.139,0.09c0,0-0.092,0.229-0.142,0.319s-0.17,0.2-0.2,0.25c0,0-0.05,0.051-0.06,0.09l0.01,0.09
		l0.21,0.11c0.051,0.029,0.03,0.189,0.021,0.229c0.188,0.069,1.16,0.58,1.25,0.71C31.05,7450.17,30.9,7450.721,30.9,7450.721z
		 M28.141,7451.05l-0.021,0.101c-0.05,0.16-0.41,0.851-0.57,0.851h-5.79c-0.17,0-0.15-0.688-0.109-0.851l0.029-0.101
		c0,0,0.19-0.72,0.34-0.851c0.221-0.17,1.871-0.851,2.17-0.939c0.021-0.061,0.101-0.27,0.19-0.311
		c0.091-0.029,0.36-0.149,0.36-0.149c0-0.01,0.05-0.06,0.07-0.12c0.02-0.061-0.012-0.119-0.012-0.119
		c-0.01-0.061-0.1-0.221-0.09-0.34c0-0.111,0.04-0.421,0.04-0.421c0.01-0.06-0.09-0.09-0.142-0.12c-0.09-0.05-0.02-0.699-0.02-0.699
		c0.061-0.221,0.08-0.121,0.12-0.271l0.149-0.568c0.189-0.701,0.939-1.141,1.641-1.141h0.029c0.701,0,1.211,0.438,1.021,1.141
		l-0.149,0.568c-0.041,0.149,0.051,0.051-0.01,0.271c0,0-0.291,0.648-0.41,0.699c-0.069,0.029-0.181,0.061-0.189,0.12
		c0,0-0.13,0.31-0.182,0.421c-0.068,0.119-0.229,0.279-0.278,0.34c0,0-0.052,0.061-0.062,0.119c-0.01,0.061,0,0.109-0.01,0.12
		l0.28,0.149c0.069,0.041,0.05,0.25,0.04,0.311c0.25,0.09,1.55,0.77,1.67,0.939C28.33,7450.33,28.141,7451.05,28.141,7451.05z
		 M20.84,7451h-1.59c-0.12,0-0.279-0.09-0.25-0.21l0.02-0.069c0,0,0.15-0.551,0.26-0.641c0.171-0.13,1.41-0.641,1.641-0.71
		c0.01-0.04,0.07-0.2,0.141-0.229l0.26-0.11c0.01-0.01,0.039-0.049,0.05-0.09c0.01-0.039,0-0.09,0-0.09
		c-0.021-0.05-0.08-0.16-0.08-0.25l0.021-0.319c0.02-0.049-0.061-0.069-0.101-0.09c-0.069-0.039-0.04-0.529-0.04-0.529
		c0.04-0.16,0.03-0.09,0.061-0.2l0.119-0.431c0.141-0.521,0.771-0.851,1.291-0.851h0.02c0.529,0,0.98,0.33,0.85,0.851l-0.119,0.431
		l-0.051,0.2c0,0-0.25,0.49-0.34,0.529c-0.05,0.021-0.13,0.041-0.141,0.09l-0.139,0.319c-0.051,0.09-0.171,0.2-0.201,0.25
		c0,0-0.039,0.051-0.06,0.09l0.011,0.09l0.209,0.11c0.051,0.029,0.03,0.189,0.021,0.229l0.079,0.04
		c-0.59,0.24-1.329,0.561-1.52,0.71C21.21,7450.17,21.05,7450.29,20.84,7451z M21,7444l-5,9h15l4-9H21z"/>
</g>
<g>
	<polygon fill="#EEC41A" points="31,7413 31,7412 24,7412 24,7411 16,7411 16,7421 20,7413 	"/>
	<path fill="#EEC41A" d="M30.9,7420.721l-0.021,0.069c-0.029,0.12-0.229,0.21-0.352,0.21h-1.6c0.18-0.71,0.08-0.83,0.051-0.88
		c-0.109-0.149-0.67-0.47-1.131-0.71l0.09-0.04c0.021-0.04,0.08-0.2,0.142-0.229l0.271-0.11l0.051-0.09c0.02-0.039,0-0.09,0-0.09
		c-0.01-0.05-0.08-0.16-0.07-0.25c-0.01-0.09,0.02-0.319,0.02-0.319c0.021-0.049-0.07-0.069-0.108-0.09
		c-0.07-0.039-0.03-0.529-0.03-0.529l0.051-0.2l0.119-0.431c0.141-0.521,0.771-0.851,1.29-0.851h0.021
		c0.531,0,0.979,0.33,0.851,0.851l-0.12,0.431c-0.029,0.11,0,0.04-0.04,0.2c0,0-0.26,0.49-0.351,0.529
		c-0.049,0.021-0.129,0.041-0.139,0.09c0,0-0.092,0.229-0.142,0.319s-0.17,0.2-0.2,0.25c0,0-0.05,0.051-0.06,0.09l0.01,0.09
		l0.21,0.11c0.051,0.029,0.03,0.189,0.021,0.229c0.188,0.069,1.16,0.58,1.25,0.71C31.05,7420.17,30.9,7420.721,30.9,7420.721z
		 M28.141,7421.05l-0.021,0.101c-0.05,0.16-0.41,0.851-0.57,0.851h-5.79c-0.17,0-0.15-0.688-0.109-0.851l0.029-0.101
		c0,0,0.19-0.72,0.34-0.851c0.221-0.17,1.871-0.851,2.17-0.939c0.021-0.061,0.101-0.27,0.19-0.311
		c0.091-0.029,0.36-0.149,0.36-0.149c0-0.01,0.05-0.06,0.07-0.12c0.02-0.061-0.012-0.119-0.012-0.119
		c-0.01-0.061-0.1-0.221-0.09-0.34c0-0.111,0.04-0.421,0.04-0.421c0.01-0.06-0.09-0.09-0.142-0.12c-0.09-0.05-0.02-0.699-0.02-0.699
		c0.061-0.221,0.08-0.121,0.12-0.271l0.149-0.568c0.189-0.701,0.939-1.141,1.641-1.141h0.029c0.701,0,1.211,0.438,1.021,1.141
		l-0.149,0.568c-0.041,0.149,0.051,0.051-0.01,0.271c0,0-0.291,0.648-0.41,0.699c-0.069,0.029-0.181,0.061-0.189,0.12
		c0,0-0.13,0.31-0.182,0.421c-0.068,0.119-0.229,0.279-0.278,0.34c0,0-0.052,0.061-0.062,0.119c-0.01,0.061,0,0.109-0.01,0.12
		l0.28,0.149c0.069,0.041,0.05,0.25,0.04,0.311c0.25,0.09,1.55,0.77,1.67,0.939C28.33,7420.33,28.141,7421.05,28.141,7421.05z
		 M20.84,7421h-1.59c-0.12,0-0.279-0.09-0.25-0.21l0.02-0.069c0,0,0.15-0.551,0.26-0.641c0.171-0.13,1.41-0.641,1.641-0.71
		c0.01-0.04,0.07-0.2,0.141-0.229l0.26-0.11c0.01-0.01,0.039-0.049,0.05-0.09c0.01-0.039,0-0.09,0-0.09
		c-0.021-0.05-0.08-0.16-0.08-0.25l0.021-0.319c0.02-0.049-0.061-0.069-0.101-0.09c-0.069-0.039-0.04-0.529-0.04-0.529
		c0.04-0.16,0.03-0.09,0.061-0.2l0.119-0.431c0.141-0.521,0.771-0.851,1.291-0.851h0.02c0.529,0,0.98,0.33,0.85,0.851l-0.119,0.431
		l-0.051,0.2c0,0-0.25,0.49-0.34,0.529c-0.05,0.021-0.13,0.041-0.141,0.09l-0.139,0.319c-0.051,0.09-0.171,0.2-0.201,0.25
		c0,0-0.039,0.051-0.06,0.09l0.011,0.09l0.209,0.11c0.051,0.029,0.03,0.189,0.021,0.229l0.079,0.04
		c-0.59,0.24-1.329,0.561-1.52,0.71C21.21,7420.17,21.05,7420.29,20.84,7421z M21,7414l-5,9h15l4-9H21z"/>
</g>
<path fill="#EEC323" d="M21,7354l-5,9h15l4-9H21z M16,7361l4-8h11v-1h-7v-1h-8V7361z"/>
<path fill="#FFFFFF" d="M21,7384l-5,9h15l4-9H21z M16,7391l4-8h11v-1h-7v-1h-8V7391z"/>
<path fill="#EEC323" d="M16,7541v2h15v-1h-7v-1H16z M29.91,7550.08c0.09,0.09,0.09,0.641,0.09,0.641v0.069
	c0,0.12-0.18,0.21-0.3,0.21h-1.62c-0.01-0.71-0.141-0.83-0.18-0.88c-0.15-0.149-0.812-0.47-1.34-0.71l0.09-0.04
	c0-0.04,0.02-0.2,0.08-0.229l0.24-0.11c0-0.01,0.02-0.049,0.028-0.09c0-0.039-0.028-0.09-0.028-0.09
	c-0.021-0.05-0.121-0.16-0.142-0.25c-0.03-0.09-0.062-0.319-0.062-0.319c0-0.049-0.09-0.069-0.14-0.09
	c-0.08-0.039-0.17-0.529-0.17-0.529c0-0.16,0-0.09,0-0.2v-0.431c0-0.521,0.55-0.851,1.08-0.851h0.021c0.529,0,1.08,0.33,1.08,0.851
	v0.431c0,0.11,0.01,0.04,0.01,0.2c0,0-0.131,0.49-0.211,0.529c-0.049,0.021-0.119,0.041-0.119,0.09c0,0-0.029,0.229-0.051,0.319
	c-0.029,0.09-0.119,0.2-0.14,0.25c0,0-0.03,0.051-0.03,0.09c0.01,0.041,0.03,0.08,0.03,0.09l0.24,0.11
	c0.06,0.029,0.08,0.189,0.08,0.229C28.66,7549.439,29.779,7549.95,29.91,7550.08z M16,7553h16v-9H16V7553z M25.24,7549.26
	c0.279,0.09,1.77,0.77,1.939,0.939c0.119,0.131,0.119,0.851,0.119,0.851v0.101c0,0.16-0.18,0.851-0.34,0.851h-5.85
	c-0.17,0-0.34-0.688-0.34-0.851v-0.101c0,0,0-0.72,0.12-0.851c0.17-0.17,1.66-0.851,1.94-0.939c0-0.061,0.03-0.27,0.11-0.311
	c0.08-0.029,0.32-0.149,0.32-0.149c0-0.01,0.03-0.06,0.04-0.12c0-0.061-0.04-0.119-0.04-0.119c-0.03-0.061-0.16-0.221-0.19-0.34
	c-0.03-0.111-0.07-0.421-0.07-0.421c0-0.06-0.11-0.09-0.17-0.12c-0.11-0.05-0.21-0.699-0.21-0.699c0-0.221,0.05-0.121,0.05-0.271
	v-0.568c0-0.701,0.64-1.141,1.35-1.141h0.03c0.71,0,1.342,0.438,1.342,1.141v0.568c0,0.149,0.06,0.051,0.06,0.271
	c0,0-0.12,0.648-0.229,0.699c-0.061,0.029-0.16,0.061-0.16,0.12c0,0-0.041,0.31-0.069,0.421c-0.03,0.119-0.15,0.279-0.19,0.34
	c0,0-0.029,0.061-0.029,0.119c0.01,0.061,0.029,0.109,0.029,0.12c0,0,0.25,0.12,0.32,0.149C25.2,7548.99,25.24,7549.2,25.24,7549.26
	z M21.35,7549.37l0.09,0.04c-0.53,0.24-1.19,0.561-1.34,0.71c-0.04,0.05-0.17,0.17-0.19,0.88H18.3c-0.12,0-0.3-0.09-0.3-0.21v-0.069
	c0,0,0-0.551,0.09-0.641c0.13-0.13,1.25-0.641,1.46-0.71c0-0.04,0.02-0.2,0.08-0.229l0.24-0.11c0-0.01,0.02-0.049,0.02-0.09
	c0-0.039-0.02-0.09-0.02-0.09c-0.03-0.05-0.12-0.16-0.15-0.25c-0.02-0.09-0.06-0.319-0.06-0.319c0-0.049-0.08-0.069-0.13-0.09
	c-0.08-0.039-0.18-0.529-0.18-0.529c0-0.16,0.01-0.09,0.01-0.2v-0.431c0-0.521,0.55-0.851,1.08-0.851h0.02
	c0.53,0,1.08,0.33,1.08,0.851v0.431c0,0.11,0,0.04,0,0.2c0,0-0.12,0.49-0.2,0.529c-0.05,0.021-0.12,0.041-0.12,0.09
	c0,0-0.03,0.229-0.05,0.319c-0.03,0.09-0.12,0.2-0.14,0.25c0,0-0.03,0.051-0.03,0.09c0.01,0.041,0.03,0.08,0.03,0.09l0.24,0.11
	C21.33,7549.17,21.35,7549.33,21.35,7549.37z"/>
<path fill="#FFFFFF" d="M16,7571v2h15v-1h-7v-1H16z M29.91,7580.08c0.09,0.09,0.09,0.641,0.09,0.641v0.069
	c0,0.12-0.18,0.21-0.3,0.21h-1.62c-0.01-0.71-0.141-0.83-0.18-0.88c-0.15-0.149-0.812-0.47-1.34-0.71l0.09-0.04
	c0-0.04,0.02-0.2,0.08-0.229l0.24-0.11c0-0.01,0.02-0.049,0.028-0.09c0-0.039-0.028-0.09-0.028-0.09
	c-0.021-0.05-0.121-0.16-0.142-0.25c-0.03-0.09-0.062-0.319-0.062-0.319c0-0.049-0.09-0.069-0.14-0.09
	c-0.08-0.039-0.17-0.529-0.17-0.529c0-0.16,0-0.09,0-0.2v-0.431c0-0.521,0.55-0.851,1.08-0.851h0.021c0.529,0,1.08,0.33,1.08,0.851
	v0.431c0,0.11,0.01,0.04,0.01,0.2c0,0-0.131,0.49-0.211,0.529c-0.049,0.021-0.119,0.041-0.119,0.09c0,0-0.029,0.229-0.051,0.319
	c-0.029,0.09-0.119,0.2-0.14,0.25c0,0-0.03,0.051-0.03,0.09c0.01,0.041,0.03,0.08,0.03,0.09l0.24,0.11
	c0.06,0.029,0.08,0.189,0.08,0.229C28.66,7579.439,29.779,7579.95,29.91,7580.08z M16,7583h16v-9H16V7583z M25.24,7579.26
	c0.279,0.09,1.77,0.77,1.939,0.939c0.119,0.131,0.119,0.851,0.119,0.851v0.101c0,0.16-0.18,0.851-0.34,0.851h-5.85
	c-0.17,0-0.34-0.688-0.34-0.851v-0.101c0,0,0-0.72,0.12-0.851c0.17-0.17,1.66-0.851,1.94-0.939c0-0.061,0.03-0.27,0.11-0.311
	c0.08-0.029,0.32-0.149,0.32-0.149c0-0.01,0.03-0.06,0.04-0.12c0-0.061-0.04-0.119-0.04-0.119c-0.03-0.061-0.16-0.221-0.19-0.34
	c-0.03-0.111-0.07-0.421-0.07-0.421c0-0.06-0.11-0.09-0.17-0.12c-0.11-0.05-0.21-0.699-0.21-0.699c0-0.221,0.05-0.121,0.05-0.271
	v-0.568c0-0.701,0.64-1.141,1.35-1.141h0.03c0.71,0,1.342,0.438,1.342,1.141v0.568c0,0.149,0.06,0.051,0.06,0.271
	c0,0-0.12,0.648-0.229,0.699c-0.061,0.029-0.16,0.061-0.16,0.12c0,0-0.041,0.31-0.069,0.421c-0.03,0.119-0.15,0.279-0.19,0.34
	c0,0-0.029,0.061-0.029,0.119c0.01,0.061,0.029,0.109,0.029,0.12c0,0,0.25,0.12,0.32,0.149C25.2,7578.99,25.24,7579.2,25.24,7579.26
	z M21.35,7579.37l0.09,0.04c-0.53,0.24-1.19,0.561-1.34,0.71c-0.04,0.05-0.17,0.17-0.19,0.88H18.3c-0.12,0-0.3-0.09-0.3-0.21v-0.069
	c0,0,0-0.551,0.09-0.641c0.13-0.13,1.25-0.641,1.46-0.71c0-0.04,0.02-0.2,0.08-0.229l0.24-0.11c0-0.01,0.02-0.049,0.02-0.09
	c0-0.039-0.02-0.09-0.02-0.09c-0.03-0.05-0.12-0.16-0.15-0.25c-0.02-0.09-0.06-0.319-0.06-0.319c0-0.049-0.08-0.069-0.13-0.09
	c-0.08-0.039-0.18-0.529-0.18-0.529c0-0.16,0.01-0.09,0.01-0.2v-0.431c0-0.521,0.55-0.851,1.08-0.851h0.02
	c0.53,0,1.08,0.33,1.08,0.851v0.431c0,0.11,0,0.04,0,0.2c0,0-0.12,0.49-0.2,0.529c-0.05,0.021-0.12,0.041-0.12,0.09
	c0,0-0.03,0.229-0.05,0.319c-0.03,0.09-0.12,0.2-0.14,0.25c0,0-0.03,0.051-0.03,0.09c0.01,0.041,0.03,0.08,0.03,0.09l0.24,0.11
	C21.33,7579.17,21.35,7579.33,21.35,7579.37z"/>
<g>
	<rect x="16" y="7474" fill="#EEC323" width="16" height="9"/>
	<rect x="16" y="7472" fill="#EEC323" width="15" height="1"/>
	<rect x="16" y="7471" fill="#EEC323" width="8" height="1"/>
</g>
<g>
	<rect x="16" y="7514" fill="#FFFFFF" width="16" height="9"/>
	<rect x="16" y="7512" fill="#FFFFFF" width="15" height="1"/>
	<rect x="16" y="7511" fill="#FFFFFF" width="7" height="1"/>
</g>
<path fill="#A6A6A6" d="M16,7631v2h15v-1h-7v-1H16z M29.91,7640.08c0.09,0.09,0.09,0.641,0.09,0.641v0.069
	c0,0.12-0.18,0.21-0.3,0.21h-1.62c-0.01-0.71-0.141-0.83-0.18-0.88c-0.15-0.149-0.812-0.47-1.34-0.71l0.09-0.04
	c0-0.04,0.02-0.2,0.08-0.229l0.24-0.11c0-0.01,0.02-0.049,0.028-0.09c0-0.039-0.028-0.09-0.028-0.09
	c-0.021-0.05-0.121-0.16-0.142-0.25c-0.03-0.09-0.062-0.319-0.062-0.319c0-0.049-0.09-0.069-0.14-0.09
	c-0.08-0.039-0.17-0.529-0.17-0.529c0-0.16,0-0.09,0-0.2v-0.431c0-0.521,0.55-0.851,1.08-0.851h0.021c0.529,0,1.08,0.33,1.08,0.851
	v0.431c0,0.11,0.01,0.04,0.01,0.2c0,0-0.131,0.49-0.211,0.529c-0.049,0.021-0.119,0.041-0.119,0.09c0,0-0.029,0.229-0.051,0.319
	c-0.029,0.09-0.119,0.2-0.14,0.25c0,0-0.03,0.051-0.03,0.09c0.01,0.041,0.03,0.08,0.03,0.09l0.24,0.11
	c0.06,0.029,0.08,0.189,0.08,0.229C28.66,7639.439,29.779,7639.95,29.91,7640.08z M16,7643h16v-9H16V7643z M25.24,7639.26
	c0.279,0.09,1.77,0.77,1.939,0.939c0.119,0.131,0.119,0.851,0.119,0.851v0.101c0,0.16-0.18,0.851-0.34,0.851h-5.85
	c-0.17,0-0.34-0.688-0.34-0.851v-0.101c0,0,0-0.72,0.12-0.851c0.17-0.17,1.66-0.851,1.94-0.939c0-0.061,0.03-0.27,0.11-0.311
	c0.08-0.029,0.32-0.149,0.32-0.149c0-0.01,0.03-0.06,0.04-0.12c0-0.061-0.04-0.119-0.04-0.119c-0.03-0.061-0.16-0.221-0.19-0.34
	c-0.03-0.111-0.07-0.421-0.07-0.421c0-0.06-0.11-0.09-0.17-0.12c-0.11-0.05-0.21-0.699-0.21-0.699c0-0.221,0.05-0.121,0.05-0.271
	v-0.568c0-0.701,0.64-1.141,1.35-1.141h0.03c0.71,0,1.342,0.438,1.342,1.141v0.568c0,0.149,0.06,0.051,0.06,0.271
	c0,0-0.12,0.648-0.229,0.699c-0.061,0.029-0.16,0.061-0.16,0.12c0,0-0.041,0.31-0.069,0.421c-0.03,0.119-0.15,0.279-0.19,0.34
	c0,0-0.029,0.061-0.029,0.119c0.01,0.061,0.029,0.109,0.029,0.12c0,0,0.25,0.12,0.32,0.149C25.2,7638.99,25.24,7639.2,25.24,7639.26
	z M21.35,7639.37l0.09,0.04c-0.53,0.24-1.19,0.561-1.34,0.71c-0.04,0.05-0.17,0.17-0.19,0.88H18.3c-0.12,0-0.3-0.09-0.3-0.21v-0.069
	c0,0,0-0.551,0.09-0.641c0.13-0.13,1.25-0.641,1.46-0.71c0-0.04,0.02-0.2,0.08-0.229l0.24-0.11c0-0.01,0.02-0.049,0.02-0.09
	c0-0.039-0.02-0.09-0.02-0.09c-0.03-0.05-0.12-0.16-0.15-0.25c-0.02-0.09-0.06-0.319-0.06-0.319c0-0.049-0.08-0.069-0.13-0.09
	c-0.08-0.039-0.18-0.529-0.18-0.529c0-0.16,0.01-0.09,0.01-0.2v-0.431c0-0.521,0.55-0.851,1.08-0.851h0.02
	c0.53,0,1.08,0.33,1.08,0.851v0.431c0,0.11,0,0.04,0,0.2c0,0-0.12,0.49-0.2,0.529c-0.05,0.021-0.12,0.041-0.12,0.09
	c0,0-0.03,0.229-0.05,0.319c-0.03,0.09-0.12,0.2-0.14,0.25c0,0-0.03,0.051-0.03,0.09c0.01,0.041,0.03,0.08,0.03,0.09l0.24,0.11
	C21.33,7639.17,21.35,7639.33,21.35,7639.37z"/>
<g>
	<rect x="16" y="7604" fill="#A6A6A6" width="16" height="9"/>
	<rect x="16" y="7602" fill="#A6A6A6" width="15" height="1"/>
	<rect x="16" y="7601" fill="#A6A6A6" width="8" height="1"/>
</g>
<g>
	<polygon fill="#A6A6A6" points="31,7693 31,7692 24,7692 24,7691 16,7691 16,7701 20,7693 	"/>
	<path fill="#A6A6A6" d="M30.9,7700.721l-0.021,0.069c-0.029,0.12-0.229,0.21-0.352,0.21h-1.6c0.18-0.71,0.08-0.83,0.051-0.88
		c-0.109-0.149-0.67-0.47-1.131-0.71l0.09-0.04c0.021-0.04,0.08-0.2,0.142-0.229l0.271-0.11l0.051-0.09c0.02-0.039,0-0.09,0-0.09
		c-0.01-0.05-0.08-0.16-0.07-0.25c-0.01-0.09,0.02-0.319,0.02-0.319c0.021-0.049-0.07-0.069-0.108-0.09
		c-0.07-0.039-0.03-0.529-0.03-0.529l0.051-0.2l0.119-0.431c0.141-0.521,0.771-0.851,1.29-0.851h0.021
		c0.531,0,0.979,0.33,0.851,0.851l-0.12,0.431c-0.029,0.11,0,0.04-0.04,0.2c0,0-0.26,0.49-0.351,0.529
		c-0.049,0.021-0.129,0.041-0.139,0.09c0,0-0.092,0.229-0.142,0.319s-0.17,0.2-0.2,0.25c0,0-0.05,0.051-0.06,0.09l0.01,0.09
		l0.21,0.11c0.051,0.029,0.03,0.189,0.021,0.229c0.188,0.069,1.16,0.58,1.25,0.71C31.05,7700.17,30.9,7700.721,30.9,7700.721z
		 M28.141,7701.05l-0.021,0.101c-0.05,0.16-0.41,0.851-0.57,0.851h-5.79c-0.17,0-0.15-0.688-0.109-0.851l0.029-0.101
		c0,0,0.19-0.72,0.34-0.851c0.221-0.17,1.871-0.851,2.17-0.939c0.021-0.061,0.101-0.27,0.19-0.311
		c0.091-0.029,0.36-0.149,0.36-0.149c0-0.01,0.05-0.06,0.07-0.12c0.02-0.061-0.012-0.119-0.012-0.119
		c-0.01-0.061-0.1-0.221-0.09-0.34c0-0.111,0.04-0.421,0.04-0.421c0.01-0.06-0.09-0.09-0.142-0.12c-0.09-0.05-0.02-0.699-0.02-0.699
		c0.061-0.221,0.08-0.121,0.12-0.271l0.149-0.568c0.189-0.701,0.939-1.141,1.641-1.141h0.029c0.701,0,1.211,0.438,1.021,1.141
		l-0.149,0.568c-0.041,0.149,0.051,0.051-0.01,0.271c0,0-0.291,0.648-0.41,0.699c-0.069,0.029-0.181,0.061-0.189,0.12
		c0,0-0.13,0.31-0.182,0.421c-0.068,0.119-0.229,0.279-0.278,0.34c0,0-0.052,0.061-0.062,0.119c-0.01,0.061,0,0.109-0.01,0.12
		l0.28,0.149c0.069,0.041,0.05,0.25,0.04,0.311c0.25,0.09,1.55,0.77,1.67,0.939C28.33,7700.33,28.141,7701.05,28.141,7701.05z
		 M20.84,7701h-1.59c-0.12,0-0.279-0.09-0.25-0.21l0.02-0.069c0,0,0.15-0.551,0.26-0.641c0.171-0.13,1.41-0.641,1.641-0.71
		c0.01-0.04,0.07-0.2,0.141-0.229l0.26-0.11c0.01-0.01,0.039-0.049,0.05-0.09c0.01-0.039,0-0.09,0-0.09
		c-0.021-0.05-0.08-0.16-0.08-0.25l0.021-0.319c0.02-0.049-0.061-0.069-0.101-0.09c-0.069-0.039-0.04-0.529-0.04-0.529
		c0.04-0.16,0.03-0.09,0.061-0.2l0.119-0.431c0.141-0.521,0.771-0.851,1.291-0.851h0.02c0.529,0,0.98,0.33,0.85,0.851l-0.119,0.431
		l-0.051,0.2c0,0-0.25,0.49-0.34,0.529c-0.05,0.021-0.13,0.041-0.141,0.09l-0.139,0.319c-0.051,0.09-0.171,0.2-0.201,0.25
		c0,0-0.039,0.051-0.06,0.09l0.011,0.09l0.209,0.11c0.051,0.029,0.03,0.189,0.021,0.229l0.079,0.04
		c-0.59,0.24-1.329,0.561-1.52,0.71C21.21,7700.17,21.05,7700.29,20.84,7701z M21,7694l-5,9h15l4-9H21z"/>
</g>
<path fill="#A6A6A6" d="M21,7664l-5,9h15l4-9H21z M16,7671l4-8h11v-1h-7v-1h-8V7671z"/>
<g>
	<path opacity="0.1" fill="#010101" enable-background="new    " d="M24,7753.13l-2.75,1.591c-1.529,0.898-3.38-0.512-2.94-2.23
		l0.719-2.779l-2.25-1.729c-1.42-1.09-0.8-3.352,0.97-3.57l3.2-0.391l1.21-2.819c0.699-1.61,2.979-1.61,3.67,0l1.22,2.819
		l3.189,0.391c1.779,0.221,2.4,2.48,0.98,3.57l-2.25,1.729l0.719,2.779c0.44,1.721-1.41,3.131-2.949,2.23L24,7753.13z"/>
	<polygon fill="#FFFFFF" points="24,7750.811 20.25,7752.99 21.3,7748.92 18,7746.391 22.33,7745.859 24,7741.99 25.67,7745.859 
		30,7746.391 26.7,7748.92 27.75,7752.99 	"/>
</g>
<polygon fill-rule="evenodd" clip-rule="evenodd" points="21,7794 29,7794 25,7798 "/>
</svg>
