<?xml version="1.0" encoding="utf-8"?>
<!-- Generator: Adobe Illustrator 16.0.0, SVG Export Plug-In . SVG Version: 6.00 Build 0)  -->
<!DOCTYPE svg PUBLIC "-//W3C//DTD SVG 1.1//EN" "http://www.w3.org/Graphics/SVG/1.1/DTD/svg11.dtd">
<svg version="1.1" id="Layer_1" xmlns="http://www.w3.org/2000/svg" xmlns:xlink="http://www.w3.org/1999/xlink" x="0px" y="0px"
	 width="48px" height="3600px" viewBox="0 0 48 3600" enable-background="new 0 0 48 3600" xml:space="preserve">
<g opacity="0.7">
	<path fill="#FFFFFF" d="M36.012,163.65c1.711-0.97,2.932-2.45,2.99-4.37c0.102-4.18-3.91-7.24-7.91-8.11l-0.158-0.03
		c0.26,2.67-0.391,5.17-1.897,7.16c-1.53,2.021-3.819,3.38-6.55,3.96c1.32,1.63,3.43,2.67,5.979,2.84c1.224,0.09,2.459,0,3.709-0.17
		c1.343,1.08,3.271,1.141,4.91,1.03c0.511-0.04,0.41-0.26,0.021-0.36c-0.778-0.2-1.392-0.75-1.353-1.55
		C35.762,163.87,35.902,163.73,36.012,163.65z"/>
	<path fill="#FFFFFF" d="M29.732,149.9c-1.26-5.85-7.021-7.78-12.623-6.54c-5.12,1.14-10.24,5.13-10.11,10.6
		c0.07,2.51,1.63,4.45,3.82,5.71c0.15,0.1,0.32,0.28,0.33,0.52c0.05,1.05-0.73,1.77-1.72,2.03c-0.51,0.13-0.62,0.41,0.03,0.47
		c2.08,0.14,4.55,0.06,6.27-1.34c1.59,0.22,3.17,0.34,4.73,0.22C26.873,161.11,31.143,156.33,29.732,149.9z"/>
</g>
<g opacity="0.7">
	<path fill="#FFFFFF" d="M35.002,66.48c0,0.28-0.24,0.52-0.52,0.52h-3.48c-0.02-1.86-0.369-2.23-0.539-2.41
		c-0.359-0.36-1.771-1.07-2.939-1.61c0.029-0.1,0.08-0.21,0.143-0.24c0.131-0.05,0.541-0.25,0.541-0.25
		c0-0.03,0.049-0.12,0.062-0.21c0-0.104-0.062-0.21-0.062-0.21c-0.055-0.11-0.25-0.37-0.312-0.57c-0.062-0.2-0.119-0.72-0.119-0.72
		c0-0.11-0.159-0.16-0.271-0.21c-0.18-0.09-0.487-1.2-0.487-1.2c0-0.36-0.013-0.2-0.013-0.46v-0.97c0-1.19,1.28-1.94,2.479-1.94
		h0.039c1.201,0,2.479,0.75,2.479,1.94v0.97c0,0.26-0.01,0.1-0.01,0.46c0,0-0.229,1.11-0.41,1.2c-0.107,0.05-0.311,0.1-0.311,0.21
		c0,0-0.08,0.52-0.143,0.72c-0.051,0.2-0.271,0.46-0.318,0.57c0,0-0.062,0.109-0.062,0.21c0,0.09,0.051,0.18,0.051,0.21
		c0,0,0.41,0.2,0.539,0.25c0.134,0.06,0.188,0.42,0.188,0.52c0.473,0.16,2.979,1.32,3.271,1.61C35,65.08,35,66.32,35,66.32v0.16
		H35.002z M30.002,67.34c0,0.36-0.299,0.66-0.66,0.66H16.663c-0.36,0-0.66-0.3-0.66-0.66v-0.2c0,0,0-1.58,0.261-1.85
		c0.359-0.37,3.56-1.85,4.159-2.05c0-0.13,0.07-0.58,0.24-0.66c0.16-0.06,0.69-0.32,0.69-0.32c0-0.04,0.06-0.149,0.069-0.27
		c0-0.13-0.069-0.26-0.069-0.26c-0.07-0.14-0.33-0.47-0.4-0.73s-0.15-0.92-0.15-0.92c0-0.14-0.21-0.2-0.34-0.27
		c-0.23-0.11-0.54-1.52-0.54-1.52c0-0.46,0.08-0.26,0.08-0.59v-1.23c0-1.51,1.45-2.47,2.97-2.47h0.061c1.521,0,2.97,0.96,2.97,2.47
		v1.23c0,0.33,0.08,0.13,0.08,0.59c0,0-0.25,1.41-0.479,1.52c-0.129,0.07-0.369,0.13-0.369,0.27c0,0-0.101,0.66-0.17,0.92
		c-0.067,0.26-0.33,0.59-0.397,0.73c0,0-0.08,0.13-0.08,0.26c0.013,0.12,0.067,0.229,0.067,0.27c0,0,0.529,0.26,0.688,0.32
		c0.171,0.08,0.24,0.53,0.24,0.66c0.601,0.2,3.801,1.68,4.16,2.05c0.26,0.27,0.26,1.85,0.26,1.85L30.002,67.34L30.002,67.34z
		 M15.002,67h-3.48c-0.28,0-0.52-0.24-0.52-0.52v-0.16c0,0,0-1.24,0.2-1.45c0.29-0.29,2.8-1.45,3.271-1.61
		c0-0.1,0.06-0.46,0.189-0.52c0.13-0.05,0.54-0.25,0.54-0.25c0-0.03,0.05-0.12,0.06-0.21c0-0.104-0.06-0.21-0.06-0.21
		c-0.05-0.11-0.261-0.37-0.31-0.57c-0.061-0.2-0.121-0.72-0.121-0.72c0-0.11-0.16-0.16-0.27-0.21c-0.18-0.09-0.49-1.2-0.49-1.2
		c0-0.36-0.01-0.2-0.01-0.46v-0.97c0-1.19,1.28-1.94,2.48-1.94h0.039c1.201,0,2.48,0.75,2.48,1.94v0.97c0,0.26-0.01,0.1-0.01,0.46
		c0,0-0.23,1.11-0.41,1.2c-0.109,0.05-0.311,0.1-0.311,0.21c0,0-0.08,0.52-0.14,0.72s-0.271,0.46-0.319,0.57
		c0,0-0.061,0.109-0.061,0.21c0,0.09,0.05,0.18,0.05,0.21c0,0,0.41,0.2,0.54,0.25c0.061,0.03,0.11,0.14,0.141,0.24
		c-1.17,0.54-2.58,1.25-2.94,1.61C15.373,64.77,15.021,65.14,15.002,67z M8.002,52v18c0,0.55,0.45,1,1,1h28c0.551,0,1-0.45,1-1V52
		H8.002z"/>
	<path fill="#FFFFFF" d="M36.002,50c0-0.55-0.449-1-1-1h-10l-2-2h-14c-0.55,0-1,0.45-1,1v1v2h28V50z"/>
</g>
<g opacity="0.7">
	<g>
		<path fill="#FFFFFF" d="M8.002,14.37c0,3.66,2.77,6.63,6.17,6.63h0.15h17.51c3.4,0,6.17-2.97,6.17-6.63
			c0-3.55-2.609-6.46-5.879-6.62V7.73c0-4.26-3.221-7.73-7.201-7.73c-2.58,0-4.839,1.45-6.109,3.63c-0.43-0.2-0.899-0.32-1.39-0.32
			c-1.95,0-3.54,1.71-3.54,3.79c0,0.23,0.02,0.44,0.05,0.65C10.632,7.88,8.002,10.79,8.002,14.37z"/>
	</g>
</g>
<g opacity="0.7">
	<path fill="#FFFFFF" d="M27.412,109.65c-0.09,0.05-0.17,0.22-0.221,0.38c1.852,0.86,4.07,1.99,4.641,2.56
		c0.271,0.28,0.82,0.46,0.852,3.41h5.5c0.439,0,0.818-0.38,0.818-0.83v-0.25c0,0,0-1.55-0.318-1.89c-0.451-0.46-4.422-2.3-5.16-2.55
		c0-0.16-0.09-0.73-0.301-0.83c-0.199-0.08-0.85-0.4-0.85-0.4c0-0.04-0.08-0.19-0.102-0.33c0-0.16,0.102-0.33,0.102-0.33
		c0.08-0.18,0.409-0.59,0.488-0.91c0.092-0.31,0.188-1.14,0.188-1.14c0-0.17,0.25-0.25,0.424-0.33c0.289-0.15,0.52-1.91,0.52-1.91
		c0-0.57-0.23-0.32-0.23-0.729v-1.54c0-1.89-1.52-3.08-3.408-3.08h-0.067c-1.894,0-3.409,1.19-3.409,3.08v1.54
		c0,0.41-0.229,0.16-0.229,0.729c0,0,0.229,1.76,0.521,1.91c0.17,0.08,0.42,0.16,0.42,0.33c0,0,0.103,0.83,0.188,1.14
		c0.103,0.32,0.41,0.73,0.49,0.91c0,0,0.102,0.17,0.102,0.33c-0.021,0.14-0.102,0.29-0.102,0.33
		C28.262,109.25,27.623,109.57,27.412,109.65z"/>
	<path fill="#FFFFFF" d="M30.691,113.7c-0.562-0.59-5.619-2.94-6.562-3.26c0-0.2-0.109-0.92-0.38-1.04
		c-0.26-0.1-1.09-0.51-1.09-0.51c0-0.06-0.101-0.24-0.11-0.43c0-0.21,0.11-0.41,0.11-0.41c0.11-0.22,0.521-0.75,0.63-1.16
		c0.109-0.41,0.24-1.46,0.24-1.46c0-0.22,0.328-0.319,0.529-0.43c0.368-0.17,0.668-2.41,0.668-2.41c0-0.729-0.3-0.42-0.3-0.94V99.7
		c0-2.4-2.03-3.7-4.43-3.7h-0.09c-2.4,0-4.23,1.3-4.23,3.7v1.95c0,0.52-0.3,0.21-0.3,0.94c0,0,0.3,2.24,0.66,2.41
		c0.21,0.11,0.54,0.21,0.54,0.43c0,0,0.13,1.05,0.239,1.46c0.11,0.41,0.521,0.94,0.631,1.16c0,0,0.109,0.2,0.109,0.41
		c-0.02,0.19-0.109,0.37-0.109,0.43c0,0-0.84,0.41-1.09,0.51c-0.271,0.12-0.381,0.84-0.381,1.04c-0.949,0.32-6,2.67-6.569,3.26
		C9,114.13,9,116.64,9,116.64v0.31c0,0.57,0.47,1.05,1.04,1.05h20.021c0.569,0,1.049-0.48,1.049-1.05v-0.31
		C31.111,116.64,31.111,114.13,30.691,113.7z"/>
</g>
<g>
	<path fill="#FFFFFF" d="M36.01,543.65c1.711-0.975,2.93-2.45,2.99-4.371c0.1-4.184-3.91-7.239-7.91-8.109l-0.16-0.029
		c0.26,2.67-0.39,5.17-1.9,7.159c-1.525,2.021-3.815,3.38-6.545,3.96c1.32,1.631,3.43,2.67,5.979,2.84c1.224,0.094,2.46,0,3.71-0.17
		c1.344,1.08,3.271,1.145,4.91,1.03c0.51-0.04,0.41-0.26,0.021-0.356c-0.778-0.199-1.393-0.75-1.353-1.554
		C35.76,543.87,35.9,543.73,36.01,543.65z"/>
	<path fill="#FFFFFF" d="M29.73,529.9c-1.26-5.854-7.021-7.78-12.625-6.541C11.99,524.5,6.87,528.49,7,533.96
		c0.07,2.511,1.63,4.45,3.82,5.71c0.15,0.1,0.32,0.28,0.33,0.521c0.05,1.051-0.73,1.771-1.72,2.027
		c-0.51,0.131-0.62,0.409,0.03,0.473c2.08,0.141,4.55,0.061,6.271-1.342c1.59,0.223,3.17,0.342,4.729,0.223
		C26.87,541.109,31.141,536.33,29.73,529.9z"/>
</g>
<g>
	<path fill="#FFFFFF" d="M27.41,489.65c-0.09,0.05-0.17,0.22-0.221,0.379c1.851,0.857,4.066,1.986,4.641,2.561
		c0.27,0.28,0.82,0.46,0.85,3.41h5.5c0.44,0,0.82-0.38,0.82-0.83v-0.25c0,0,0-1.55-0.32-1.891c-0.449-0.459-4.42-2.299-5.16-2.549
		c0-0.16-0.09-0.73-0.299-0.83c-0.201-0.08-0.851-0.4-0.851-0.4c0-0.04-0.08-0.189-0.101-0.33c0-0.16,0.101-0.33,0.101-0.33
		c0.08-0.18,0.409-0.59,0.489-0.91c0.091-0.31,0.188-1.14,0.188-1.14c0-0.17,0.25-0.25,0.424-0.33
		c0.286-0.147,0.521-1.91,0.521-1.91c0-0.565-0.23-0.315-0.23-0.729v-1.541c0-1.893-1.52-3.079-3.409-3.079h-0.07
		c-1.889,0-3.406,1.188-3.406,3.079v1.541c0,0.41-0.229,0.16-0.229,0.729c0,0,0.229,1.761,0.521,1.91c0.17,0.08,0.42,0.16,0.42,0.33
		c0,0,0.101,0.83,0.188,1.14c0.102,0.32,0.41,0.73,0.488,0.91c0,0,0.102,0.17,0.102,0.33c-0.021,0.141-0.102,0.29-0.102,0.33
		C28.26,489.25,27.62,489.57,27.41,489.65z"/>
	<path fill="#FFFFFF" d="M30.689,493.7c-0.562-0.591-5.619-2.94-6.562-3.261c0-0.199-0.107-0.922-0.38-1.039
		c-0.261-0.104-1.09-0.514-1.09-0.514c0-0.061-0.101-0.236-0.11-0.431c0-0.21,0.11-0.41,0.11-0.41c0.11-0.22,0.521-0.75,0.63-1.159
		c0.107-0.406,0.238-1.461,0.238-1.461c0-0.22,0.33-0.316,0.531-0.43c0.369-0.17,0.67-2.41,0.67-2.41
		c0-0.729-0.302-0.42-0.302-0.938v-1.95c0-2.4-2.03-3.7-4.431-3.7h-0.09c-2.4,0-4.23,1.3-4.23,3.7v1.95c0,0.52-0.3,0.21-0.3,0.938
		c0,0,0.3,2.24,0.66,2.41c0.21,0.109,0.54,0.21,0.54,0.43c0,0,0.13,1.055,0.24,1.461c0.109,0.409,0.52,0.939,0.629,1.159
		c0,0,0.111,0.2,0.111,0.41c-0.021,0.188-0.111,0.37-0.111,0.431c0,0-0.84,0.409-1.09,0.514c-0.27,0.117-0.379,0.84-0.379,1.039
		c-0.951,0.316-6,2.67-6.571,3.261c-0.41,0.43-0.41,2.938-0.41,2.938v0.312c0,0.565,0.47,1.05,1.04,1.05h20.021
		c0.566,0,1.049-0.48,1.049-1.05v-0.312C31.109,496.641,31.109,494.13,30.689,493.7z"/>
</g>
<g>
	<path fill="#FFFFFF" d="M35,446.48c0,0.276-0.24,0.52-0.52,0.52H31c-0.02-1.86-0.37-2.23-0.54-2.41
		c-0.36-0.359-1.771-1.07-2.94-1.609c0.03-0.101,0.08-0.211,0.145-0.237c0.13-0.05,0.54-0.25,0.54-0.25c0-0.03,0.05-0.12,0.062-0.21
		c0-0.104-0.062-0.21-0.062-0.21c-0.054-0.11-0.25-0.37-0.312-0.57s-0.121-0.72-0.121-0.72c0-0.11-0.16-0.16-0.271-0.21
		c-0.181-0.09-0.489-1.2-0.489-1.2c0-0.36-0.011-0.2-0.011-0.46v-0.97c0-1.19,1.278-1.94,2.479-1.94h0.039
		c1.201,0,2.479,0.75,2.479,1.94v0.97c0,0.26-0.013,0.1-0.013,0.46c0,0-0.229,1.107-0.407,1.2c-0.106,0.05-0.312,0.1-0.312,0.21
		c0,0-0.08,0.52-0.141,0.72c-0.05,0.2-0.271,0.46-0.318,0.57c0,0-0.062,0.106-0.062,0.21c0,0.09,0.05,0.18,0.05,0.21
		c0,0,0.41,0.2,0.54,0.25c0.131,0.06,0.188,0.42,0.188,0.52c0.472,0.16,2.979,1.32,3.271,1.61c0.2,0.21,0.2,1.45,0.2,1.45v0.157H35
		L35,446.48z M30,447.34c0,0.36-0.3,0.66-0.66,0.66H16.66c-0.36,0-0.66-0.3-0.66-0.66v-0.2c0,0,0-1.579,0.26-1.85
		c0.36-0.37,3.561-1.851,4.16-2.05c0-0.13,0.07-0.58,0.24-0.66c0.16-0.062,0.689-0.32,0.689-0.32c0-0.04,0.061-0.146,0.07-0.27
		c0-0.13-0.07-0.26-0.07-0.26c-0.07-0.144-0.33-0.474-0.399-0.73c-0.07-0.26-0.15-0.92-0.15-0.92c0-0.141-0.21-0.2-0.34-0.271
		c-0.229-0.106-0.54-1.52-0.54-1.52c0-0.46,0.08-0.26,0.08-0.59v-1.23c0-1.51,1.45-2.47,2.971-2.47h0.059
		c1.521,0,2.971,0.96,2.971,2.47v1.23c0,0.33,0.08,0.13,0.08,0.59c0,0-0.25,1.41-0.48,1.52c-0.129,0.07-0.369,0.131-0.369,0.271
		c0,0-0.101,0.66-0.17,0.92c-0.066,0.26-0.33,0.59-0.396,0.73c0,0-0.08,0.13-0.08,0.26c0.01,0.12,0.066,0.229,0.066,0.27
		c0,0,0.529,0.26,0.689,0.32c0.17,0.08,0.24,0.53,0.24,0.66c0.6,0.199,3.8,1.68,4.16,2.05c0.26,0.27,0.26,1.85,0.26,1.85V447.34z
		 M15,447h-3.48c-0.28,0-0.52-0.24-0.52-0.52v-0.16c0,0,0-1.24,0.2-1.45c0.29-0.29,2.8-1.45,3.271-1.61c0-0.1,0.059-0.46,0.189-0.52
		c0.13-0.05,0.54-0.25,0.54-0.25c0-0.03,0.05-0.12,0.06-0.21c0-0.104-0.06-0.21-0.06-0.21c-0.05-0.11-0.261-0.37-0.31-0.57
		c-0.061-0.2-0.121-0.72-0.121-0.72c0-0.11-0.16-0.16-0.27-0.21c-0.18-0.09-0.49-1.2-0.49-1.2c0-0.36-0.01-0.2-0.01-0.46v-0.97
		c0-1.19,1.279-1.94,2.48-1.94h0.039c1.201,0,2.48,0.75,2.48,1.94v0.97c0,0.26-0.01,0.1-0.01,0.46c0,0-0.23,1.11-0.41,1.2
		c-0.109,0.05-0.311,0.1-0.311,0.21c0,0-0.08,0.52-0.14,0.72s-0.271,0.46-0.319,0.57c0,0-0.061,0.106-0.061,0.21
		c0,0.09,0.05,0.18,0.05,0.21c0,0,0.41,0.2,0.54,0.25c0.061,0.029,0.11,0.14,0.141,0.24c-1.17,0.539-2.58,1.25-2.94,1.606
		C15.37,444.77,15.02,445.14,15,447z M8,432v18c0,0.55,0.45,1,1,1h28c0.55,0,1-0.45,1-1v-18H8z"/>
	<path fill="#FFFFFF" d="M36,430c0-0.55-0.45-1-1-1H25l-2-2H9c-0.55,0-1,0.45-1,1v1v2h28V430z"/>
</g>
<g>
	<g>
		<path fill="#FFFFFF" d="M8,394.37c0,3.66,2.77,6.63,6.17,6.63h0.15h17.51c3.4,0,6.17-2.97,6.17-6.63c0-3.55-2.609-6.46-5.88-6.62
			v-0.02c0-4.26-3.22-7.73-7.2-7.73c-2.58,0-4.84,1.45-6.109,3.63c-0.431-0.2-0.9-0.32-1.391-0.32c-1.949,0-3.54,1.71-3.54,3.79
			c0,0.23,0.02,0.44,0.05,0.65C10.63,387.88,8,390.79,8,394.37z"/>
	</g>
</g>
<g>
	<path fill="#35A4DD" d="M36.012,353.65c1.711-0.97,2.932-2.45,2.99-4.37c0.102-4.18-3.91-7.24-7.91-8.11l-0.158-0.03
		c0.26,2.67-0.391,5.17-1.897,7.16c-1.53,2.021-3.819,3.38-6.55,3.96c1.32,1.63,3.43,2.67,5.979,2.84c1.224,0.09,2.459,0,3.709-0.17
		c1.343,1.08,3.271,1.142,4.91,1.03c0.511-0.04,0.41-0.26,0.021-0.36c-0.778-0.2-1.392-0.75-1.353-1.55
		C35.762,353.87,35.902,353.73,36.012,353.65z"/>
	<path fill="#35A4DD" d="M29.732,339.9c-1.26-5.85-7.021-7.78-12.623-6.54c-5.12,1.14-10.24,5.13-10.11,10.6
		c0.07,2.51,1.63,4.45,3.82,5.71c0.15,0.1,0.32,0.28,0.33,0.52c0.05,1.05-0.73,1.77-1.72,2.03c-0.51,0.13-0.62,0.41,0.03,0.47
		c2.08,0.14,4.55,0.06,6.27-1.34c1.59,0.22,3.17,0.34,4.73,0.22C26.873,351.11,31.143,346.33,29.732,339.9z"/>
</g>
<path fill="#F4AC20" d="M35.002,256.48c0,0.28-0.24,0.52-0.52,0.52h-3.48c-0.02-1.86-0.369-2.23-0.539-2.41
	c-0.359-0.36-1.771-1.07-2.939-1.61c0.029-0.1,0.08-0.21,0.143-0.24c0.131-0.05,0.541-0.25,0.541-0.25c0-0.03,0.049-0.12,0.062-0.21
	c0-0.102-0.062-0.21-0.062-0.21c-0.055-0.11-0.25-0.37-0.312-0.57c-0.062-0.2-0.119-0.72-0.119-0.72c0-0.11-0.159-0.16-0.271-0.21
	c-0.18-0.09-0.487-1.2-0.487-1.2c0-0.36-0.013-0.2-0.013-0.46v-0.97c0-1.19,1.28-1.94,2.479-1.94h0.039
	c1.201,0,2.479,0.75,2.479,1.94v0.97c0,0.26-0.01,0.1-0.01,0.46c0,0-0.229,1.11-0.41,1.2c-0.107,0.05-0.311,0.1-0.311,0.21
	c0,0-0.08,0.52-0.143,0.72c-0.051,0.2-0.271,0.46-0.318,0.57c0,0-0.062,0.11-0.062,0.21c0,0.09,0.051,0.18,0.051,0.21
	c0,0,0.41,0.2,0.539,0.25c0.134,0.06,0.188,0.42,0.188,0.52c0.473,0.16,2.979,1.32,3.271,1.61C35,255.08,35,256.32,35,256.32v0.16
	H35.002z M30.002,257.34c0,0.36-0.299,0.66-0.66,0.66H16.663c-0.36,0-0.66-0.3-0.66-0.66v-0.2c0,0,0-1.58,0.261-1.85
	c0.359-0.37,3.56-1.85,4.159-2.05c0-0.13,0.07-0.58,0.24-0.66c0.16-0.06,0.69-0.32,0.69-0.32c0-0.04,0.06-0.15,0.069-0.27
	c0-0.13-0.069-0.26-0.069-0.26c-0.07-0.14-0.33-0.47-0.4-0.73s-0.15-0.92-0.15-0.92c0-0.14-0.21-0.2-0.34-0.27
	c-0.23-0.11-0.54-1.52-0.54-1.52c0-0.46,0.08-0.26,0.08-0.59v-1.23c0-1.51,1.45-2.47,2.97-2.47h0.061c1.521,0,2.97,0.96,2.97,2.47
	v1.23c0,0.33,0.08,0.13,0.08,0.59c0,0-0.25,1.41-0.479,1.52c-0.129,0.07-0.369,0.13-0.369,0.27c0,0-0.101,0.66-0.17,0.92
	c-0.067,0.26-0.33,0.59-0.397,0.73c0,0-0.08,0.13-0.08,0.26c0.013,0.12,0.067,0.229,0.067,0.27c0,0,0.529,0.26,0.688,0.32
	c0.171,0.08,0.24,0.53,0.24,0.66c0.601,0.2,3.801,1.68,4.16,2.05c0.26,0.27,0.26,1.85,0.26,1.85L30.002,257.34L30.002,257.34z
	 M15.002,257h-3.48c-0.28,0-0.52-0.24-0.52-0.52v-0.16c0,0,0-1.24,0.2-1.45c0.29-0.29,2.8-1.45,3.271-1.61
	c0-0.1,0.06-0.46,0.189-0.52c0.13-0.05,0.54-0.25,0.54-0.25c0-0.03,0.05-0.12,0.06-0.21c0-0.102-0.06-0.21-0.06-0.21
	c-0.05-0.11-0.261-0.37-0.31-0.57c-0.061-0.2-0.121-0.72-0.121-0.72c0-0.11-0.16-0.16-0.27-0.21c-0.18-0.09-0.49-1.2-0.49-1.2
	c0-0.36-0.01-0.2-0.01-0.46v-0.97c0-1.19,1.28-1.94,2.48-1.94h0.039c1.201,0,2.48,0.75,2.48,1.94v0.97c0,0.26-0.01,0.1-0.01,0.46
	c0,0-0.23,1.11-0.41,1.2c-0.109,0.05-0.311,0.1-0.311,0.21c0,0-0.08,0.52-0.14,0.72s-0.271,0.46-0.319,0.57
	c0,0-0.061,0.11-0.061,0.21c0,0.09,0.05,0.18,0.05,0.21c0,0,0.41,0.2,0.54,0.25c0.061,0.03,0.11,0.14,0.141,0.24
	c-1.17,0.54-2.58,1.25-2.94,1.61C15.373,254.77,15.021,255.14,15.002,257z M8.002,242v18c0,0.55,0.45,1,1,1h28c0.551,0,1-0.45,1-1
	v-18H8.002z"/>
<path fill="#F4AC20" d="M36.002,240c0-0.55-0.449-1-1-1h-10l-2-2h-14c-0.55,0-1,0.45-1,1v1v2h28V240z"/>
<g>
	<g>
		<path fill="#D22729" d="M8.002,204.37c0,3.66,2.77,6.63,6.17,6.63h0.15h17.51c3.4,0,6.17-2.97,6.17-6.63
			c0-3.55-2.609-6.46-5.879-6.62v-0.02c0-4.26-3.221-7.73-7.201-7.73c-2.58,0-4.839,1.45-6.109,3.63c-0.43-0.2-0.899-0.32-1.39-0.32
			c-1.95,0-3.54,1.71-3.54,3.79c0,0.23,0.02,0.44,0.05,0.65C10.632,197.88,8.002,200.79,8.002,204.37z"/>
	</g>
</g>
<g>
	<path fill="#73AC43" d="M27.412,299.65c-0.09,0.05-0.17,0.22-0.221,0.38c1.852,0.86,4.07,1.99,4.641,2.56
		c0.271,0.28,0.82,0.46,0.852,3.41h5.5c0.439,0,0.818-0.38,0.818-0.83v-0.25c0,0,0-1.55-0.318-1.89c-0.451-0.46-4.422-2.3-5.16-2.55
		c0-0.16-0.09-0.73-0.301-0.83c-0.199-0.08-0.85-0.4-0.85-0.4c0-0.04-0.08-0.19-0.102-0.33c0-0.16,0.102-0.33,0.102-0.33
		c0.08-0.18,0.409-0.59,0.488-0.91c0.092-0.31,0.188-1.14,0.188-1.14c0-0.17,0.25-0.25,0.424-0.33c0.289-0.15,0.52-1.91,0.52-1.91
		c0-0.57-0.23-0.32-0.23-0.729v-1.54c0-1.89-1.52-3.08-3.408-3.08h-0.067c-1.894,0-3.409,1.19-3.409,3.08v1.54
		c0,0.41-0.229,0.16-0.229,0.729c0,0,0.229,1.76,0.521,1.91c0.17,0.08,0.42,0.16,0.42,0.33c0,0,0.103,0.83,0.188,1.14
		c0.103,0.32,0.41,0.73,0.49,0.91c0,0,0.102,0.17,0.102,0.33c-0.021,0.14-0.102,0.29-0.102,0.33
		C28.262,299.25,27.623,299.57,27.412,299.65z"/>
	<path fill="#73AC43" d="M30.691,303.7c-0.562-0.59-5.619-2.94-6.562-3.26c0-0.2-0.109-0.92-0.38-1.04
		c-0.26-0.1-1.09-0.51-1.09-0.51c0-0.06-0.101-0.24-0.11-0.43c0-0.21,0.11-0.41,0.11-0.41c0.11-0.22,0.521-0.75,0.63-1.16
		c0.109-0.41,0.24-1.46,0.24-1.46c0-0.22,0.328-0.32,0.529-0.43c0.368-0.17,0.668-2.41,0.668-2.41c0-0.73-0.3-0.42-0.3-0.94v-1.95
		c0-2.4-2.03-3.7-4.43-3.7h-0.09c-2.4,0-4.23,1.3-4.23,3.7v1.95c0,0.52-0.3,0.21-0.3,0.94c0,0,0.3,2.24,0.66,2.41
		c0.21,0.11,0.54,0.21,0.54,0.43c0,0,0.13,1.05,0.239,1.46c0.11,0.41,0.521,0.94,0.631,1.16c0,0,0.109,0.2,0.109,0.41
		c-0.02,0.19-0.109,0.37-0.109,0.43c0,0-0.84,0.41-1.09,0.51c-0.271,0.12-0.381,0.84-0.381,1.04c-0.949,0.32-6,2.67-6.569,3.26
		C9,304.13,9,306.64,9,306.64v0.31c0,0.57,0.47,1.05,1.04,1.05h20.021c0.569,0,1.049-0.48,1.049-1.05v-0.31
		C31.111,306.64,31.111,304.13,30.691,303.7z"/>
</g>
<g>
	<path opacity="0.1" fill="#FFFFFF" enable-background="new    " d="M4,605c0-10.49,8.51-19,19-19s19,8.51,19,19s-8.51,19-19,19
		S4,615.49,4,605z"/>
	<circle fill="#222222" cx="23" cy="605" r="17"/>
	<path opacity="0.1" fill="#FFFFFF" enable-background="new    " d="M8,605c0-8.279,6.721-15,15-15s15,6.721,15,15s-6.721,15-15,15
		S8,613.279,8,605z"/>
	<circle fill="#222222" cx="23" cy="605" r="13"/>
	<g opacity="0.7">
		<polygon fill="#FFFFFF" points="17,608 17,604 14,604 19,598 24,604 21,604 21,608 		"/>
		<polygon fill="#FFFFFF" points="29,601 29,605 32,605 27,611 22,605 25,605 25,601 		"/>
	</g>
</g>
<g>
	<path opacity="0.3" fill="#FFFFFF" enable-background="new    " d="M4,675c0-10.49,8.51-19,19-19s19,8.51,19,19s-8.51,19-19,19
		S4,685.49,4,675z"/>
	<circle fill="#222222" cx="23" cy="675" r="17"/>
	<path opacity="0.3" fill="#FFFFFF" enable-background="new    " d="M8,675c0-8.279,6.721-15,15-15s15,6.721,15,15s-6.721,15-15,15
		S8,683.279,8,675z"/>
	<circle fill="#222222" cx="23" cy="675" r="13"/>
	<g>
		<polygon fill="#35A4DD" points="17,678 17,674 14,674 19,668 24,674 21,674 21,678 		"/>
		<polygon fill="#73AC43" points="29,671 29,675 32,675 27,681 22,675 25,675 25,671 		"/>
	</g>
</g>
<path fill="#FFFFFF" d="M23,733c-1.1,0-2-0.9-2-2s0.9-2,2-2s2,0.9,2,2S24.1,733,23,733z M29,732v-2h-2.141
	c-0.104-0.359-0.239-0.7-0.43-1.02l1.521-1.521l-1.41-1.41l-1.521,1.521c-0.319-0.19-0.662-0.33-1.021-0.434V725h-2v2.141
	c-0.359,0.104-0.7,0.239-1.02,0.434l-1.521-1.521l-1.41,1.41l1.521,1.521c-0.19,0.316-0.33,0.657-0.43,1.021H17v2h2.141
	c0.1,0.359,0.239,0.7,0.43,1.021l-1.521,1.521l1.41,1.41l1.521-1.521c0.319,0.19,0.66,0.33,1.02,0.434V737h2v-2.141
	c0.359-0.104,0.7-0.239,1.02-0.434l1.521,1.521l1.41-1.41l-1.521-1.521c0.19-0.316,0.33-0.657,0.43-1.021L29,732L29,732z"/>
<g opacity="0.3">
	<polygon fill="#040404" points="22,759 26,763 18,763 	"/>
	<polygon fill="#040404" points="22,769 18,765 26,765 	"/>
</g>
<g>
	<rect x="16" y="954" fill="#FFFFFF" width="15" height="9"/>
	<rect x="16" y="952" fill="#FFFFFF" width="14" height="1"/>
	<rect x="16" y="951" fill="#FFFFFF" width="7" height="1"/>
</g>
<g opacity="0.7">
	<polygon fill="#FFFFFF" points="23,829 19,824 27,824 	"/>
</g>
<g>
	<rect x="16" y="920" fill="#E5C973" width="15" height="9"/>
	<rect x="16" y="918" fill="#E5C973" width="14" height="1"/>
	<rect x="16" y="917" fill="#E5C973" width="7" height="1"/>
</g>
<g opacity="0.7">
	<polygon fill="#040404" points="23,799 19,794 27,794 	"/>
</g>
<g opacity="0.7">
	<polygon fill="#FFFFFF" points="25.5,886.5 20.5,890.5 20.5,882.5 	"/>
</g>
<g opacity="0.7">
	<polygon fill="#040404" points="25.5,856.5 20.5,860.5 20.5,852.5 	"/>
</g>
<path fill="#030303" d="M7,1013.53c0,1.909,1.48,3.47,3.29,3.47h0.08h9.34c1.81,0,3.29-1.561,3.29-3.47
	c0-1.86-1.391-3.393-3.141-3.47v-0.014c0-2.236-1.719-4.05-3.84-4.05c-1.369,0-2.58,0.76-3.25,1.9c-0.23-0.104-0.48-0.16-0.75-0.16
	c-1.04,0-1.88,0.89-1.88,1.979c0,0.12,0,0.23,0.02,0.343C8.4,1010.12,7,1011.65,7,1013.53z"/>
<g>
	<path fill="#FFFFFF" d="M7,1103.529c0,1.91,1.48,3.471,3.29,3.471h0.08h9.34c1.81,0,3.29-1.561,3.29-3.471
		c0-1.859-1.391-3.392-3.141-3.469v-0.014c0-2.236-1.719-4.05-3.84-4.05c-1.369,0-2.58,0.76-3.25,1.9
		c-0.23-0.104-0.48-0.16-0.75-0.16c-1.04,0-1.88,0.89-1.88,1.979c0,0.119,0,0.229,0.02,0.34C8.4,1100.12,7,1101.65,7,1103.529z"/>
	<rect x="12" y="1107" fill="#FFFFFF" width="6" height="2"/>
	<polygon fill="#64B7E7" points="13,1108 13,1106 11,1106 15,1101 19,1106 17,1106 17,1108 	"/>
</g>
<g>
	<path fill="#FFFFFF" d="M7,1133.529c0,1.91,1.48,3.471,3.29,3.471h0.08h9.34c1.81,0,3.29-1.561,3.29-3.471
		c0-1.859-1.391-3.392-3.141-3.469v-0.014c0-2.236-1.719-4.05-3.84-4.05c-1.369,0-2.58,0.76-3.25,1.9
		c-0.23-0.104-0.48-0.16-0.75-0.16c-1.04,0-1.88,0.89-1.88,1.979c0,0.119,0,0.229,0.02,0.34C8.4,1130.12,7,1131.65,7,1133.529z"/>
	<rect x="12" y="1137" fill="#FFFFFF" width="6" height="2"/>
	<polygon fill="#3B9ED8" points="13,1138 13,1136 11,1136 15,1131 19,1136 17,1136 17,1138 	"/>
</g>
<g>
	<rect x="7" y="1336" fill="#030303" width="16" height="4"/>
	<rect x="7" y="1342" fill="#030303" width="16" height="4"/>
	<rect x="7" y="1348" fill="#030303" width="16" height="4"/>
</g>
<g>
	<rect x="25" y="1336" fill="#030303" width="7" height="7"/>
	<rect x="34" y="1336" fill="#030303" width="7" height="7"/>
	<rect x="34" y="1345" fill="#030303" width="7" height="7"/>
	<rect x="25" y="1345" fill="#030303" width="7" height="7"/>
</g>
<g>
	<polygon fill="#030303" points="19,1391 16,1391 16,1400 	"/>
	<polygon fill="#030303" points="20,1392 32,1392 29,1401 17,1401 	"/>
	<rect x="16" y="1390" fill="#030303" width="14" height="1"/>
	<rect x="16" y="1389" fill="#030303" width="7" height="1"/>
</g>
<rect x="46" y="1533" opacity="0.05" fill="#030303" enable-background="new    " width="2" height="16"/>
<path opacity="0.15" fill="#030303" enable-background="new    " d="M47,1444.59l-7.29-7.3c-0.39-0.39-1.03-0.39-1.42,0
	s-0.39,1.03,0,1.42l6.3,6.29l-6.3,6.29c-0.39,0.39-0.39,1.03,0,1.42c0.2,0.19,0.45,0.29,0.71,0.29s0.51-0.1,0.71-0.29l7.29-7.3
	V1444.59z"/>
<polygon opacity="0.3" fill="#030303" enable-background="new    " points="22,1483.42 25.71,1486 24.4,1481.68 28,1478.95 
	23.48,1478.85 22,1474.59 20.52,1478.85 16,1478.95 19.6,1481.68 18.29,1486 "/>
<g opacity="0.2">
	<path fill="#191717" d="M20,1506c0-1.1,0.9-2,2-2s2,0.9,2,2s-0.9,2-2,2S20,1507.1,20,1506z"/>
</g>
<path fill="#FFFFFF" d="M7,1067v9h15v-5.029c-0.16,0.021-0.33,0.029-0.5,0.029c-2.32,0-4.221-1.75-4.471-4H7z M7,1065v1h10.029
	c0.041-0.35,0.121-0.68,0.229-1H14v-1H7V1065z M18,1066.5c0,1.93,1.57,3.5,3.5,3.5s3.5-1.57,3.5-3.5s-1.57-3.5-3.5-3.5
	S18,1064.57,18,1066.5z M21,1064h1v2h2v1h-2v2h-1v-2h-2v-1h2V1064z"/>
<g opacity="0.4">
	<polygon fill="#030303" points="32,1240.5 28,1235.5 36,1235.5 	"/>
</g>
<g opacity="0.4">
	<polygon fill="#030303" points="32,1295.5 28,1300.5 36,1300.5 	"/>
</g>
<path opacity="0.15" fill="#030303" enable-background="new    " d="M4,1582h32c1.1,0,2,0.9,2,2v12c0,1.1-0.9,2-2,2H4
	c-1.1,0-2-0.9-2-2v-12C2,1582.9,2.9,1582,4,1582z"/>
<g>
	<path fill="#FFFFFF" d="M27,1590c0-1.66,1.34-3,3-3s3,1.34,3,3s-1.34,3-3,3S27,1591.66,27,1590z"/>
	<path fill="#FFFFFF" d="M17,1590c0-1.66,1.34-3,3-3s3,1.34,3,3s-1.34,3-3,3S17,1591.66,17,1590z"/>
	<path fill="#FFFFFF" d="M7,1590c0-1.66,1.34-3,3-3s3,1.34,3,3s-1.34,3-3,3S7,1591.66,7,1590z"/>
</g>
<path opacity="0.3" fill="#030303" enable-background="new    " d="M4,1562h32c1.1,0,2,0.9,2,2v12c0,1.1-0.9,2-2,2H4
	c-1.1,0-2-0.9-2-2v-12C2,1562.9,2.9,1562,4,1562z"/>
<g>
	<path fill="#FFFFFF" d="M27,1570c0-1.66,1.34-3,3-3s3,1.34,3,3s-1.34,3-3,3S27,1571.66,27,1570z"/>
	<path fill="#FFFFFF" d="M17,1570c0-1.66,1.34-3,3-3s3,1.34,3,3s-1.34,3-3,3S17,1571.66,17,1570z"/>
	<path fill="#FFFFFF" d="M7,1570c0-1.66,1.34-3,3-3s3,1.34,3,3s-1.34,3-3,3S7,1571.66,7,1570z"/>
</g>
<g>
	<rect x="7" y="1166" fill="#FFFFFF" width="16" height="9"/>
	<rect x="7" y="1164" fill="#FFFFFF" width="15" height="1"/>
	<rect x="7" y="1163" fill="#FFFFFF" width="7" height="1"/>
</g>
<g>
	<rect x="7" y="1196" fill="#FFFFFF" width="16" height="9"/>
	<rect x="7" y="1194" fill="#FFFFFF" width="15" height="1"/>
	<rect x="7" y="1193" fill="#FFFFFF" width="7" height="1"/>
</g>
<rect x="12" y="1175" fill="#FFFFFF" width="6" height="2"/>
<rect x="12" y="1205" fill="#FFFFFF" width="6" height="2"/>
<polygon fill="#64B7E7" points="13,1176 13,1174 11,1174 15,1169 19,1174 17,1174 17,1176 "/>
<polygon fill="#3B9ED8" points="13,1206 13,1204 11,1204 15,1199 19,1204 17,1204 17,1206 "/>
<g opacity="0.7">
	<polygon fill="#FFFFFF" points="34,1626 29,1620 39,1620 	"/>
</g>
<g>
	<polygon fill="#FFFFFF" points="34,1656 29,1650 39,1650 	"/>
</g>
<g>
	<path fill="#FFFFFF" d="M21.689,1685.311c-1.739-1.738-2.959-3.811-4.14-5.961c-1.11-2.027-0.51-3.857,1.511-5.068
		c0.709-0.432,1.299-0.379,1.83,0.25c0.25,0.311,1.18,1.431,1.42,1.75c0.76,0.979,0.77,1.58-0.621,2.951
		c-0.58,0.567-0.439,1.299,0,1.738l4.34,4.34c0.441,0.439,1.171,0.58,1.74,0c1.371-1.391,1.971-1.381,2.951-0.619
		c0.317,0.238,1.438,1.17,1.75,1.42c0.629,0.529,0.68,1.121,0.25,1.83c-1.213,2.021-3.041,2.619-5.07,1.511
		C25.5,1688.27,23.43,1687.05,21.689,1685.311L21.689,1685.311z"/>
	<path fill="#FFFFFF" d="M16,1712c0,4.42,3.58,8,8,8s8-3.58,8-8s-3.58-8-8-8S16,1707.58,16,1712z M22,1717v-4h-3l5-6l5,6h-3v4H22z"
		/>
	<path fill="#FFFFFF" d="M16,1742c0,4.42,3.58,8,8,8s8-3.58,8-8s-3.58-8-8-8S16,1737.58,16,1742z M23,1737h2v4h4v2h-4v4h-2v-4h-4v-2
		h4V1737z"/>
	<g>
		<g opacity="0.7">
			<g>
				<path fill="#FFFFFF" d="M30,1813c0,1.65-1.35,3-3,3h-8c-1.65,0-3-1.35-3-3v-6c0-1.65,1.35-3,3-3h8c1.65,0,3,1.35,3,3V1813z"/>
			</g>
			<polygon fill="#FFFFFF" points="31,1811 36,1815 36,1805 31,1809 			"/>
		</g>
		<g opacity="0.7">
			<path fill="#FFFFFF" d="M20.689,1782.311c-1.739-1.738-2.959-3.811-4.14-5.961c-1.11-2.027-0.51-3.857,1.511-5.068
				c0.709-0.432,1.299-0.379,1.83,0.25c0.25,0.311,1.18,1.431,1.42,1.75c0.76,0.979,0.77,1.58-0.621,2.951
				c-0.58,0.567-0.439,1.299,0,1.738l4.34,4.34c0.441,0.439,1.171,0.58,1.74,0c1.371-1.391,1.971-1.381,2.951-0.619
				c0.317,0.238,1.438,1.17,1.75,1.42c0.629,0.529,0.68,1.121,0.25,1.83c-1.213,2.021-3.041,2.619-5.07,1.511
				C24.5,1785.27,22.43,1784.05,20.689,1782.311L20.689,1782.311z"/>
			<path fill="#FFFFFF" d="M24,1769c5.52,0,10,4.48,10,10h2c0-6.63-5.37-12-12-12"/>
			<path fill="#FFFFFF" d="M24,1773c3.311,0,6,2.689,6,6h2c0-4.42-3.58-8-8-8"/>
		</g>
		<g>
			<path opacity="0.7" fill="#FFFFFF" enable-background="new    " d="M36,1886c0,0.55-0.45,1-1,1H15c-0.55,0-1-0.45-1-1v-13
				c0-0.55,0.45-1,1-1h20c0.55,0,1,0.45,1,1V1886z M35,1871H15c-1.1,0-2,0.9-2,2v13c0,1.1,0.9,2,2,2h7v1l-4,1v1h14v-1l-4-1v-1h7
				c1.1,0,2-0.9,2-2v-13C37,1871.9,36.1,1871,35,1871z"/>
			<rect x="15" y="1873" opacity="0.5" fill="#FFFFFF" enable-background="new    " width="20" height="13"/>
		</g>
		<g>
			
				<path opacity="0.7" fill="none" stroke="#FFFFFF" stroke-width="2" stroke-linecap="round" stroke-linejoin="round" stroke-miterlimit="10" enable-background="new    " d="
				M14,1851.27c0,2.61,2.029,4.73,4.529,4.73h0.111h12.83c2.5,0,4.529-2.12,4.529-4.73c0-2.537-1.91-4.617-4.32-4.738v-0.012
				c0-3.037-2.359-5.52-5.279-5.52c-1.881,0-3.541,1.029-4.469,2.59c-0.31-0.14-0.66-0.22-1.029-0.22c-1.43,0-2.58,1.21-2.58,2.7
				c0,0.16,0,0.31,0.029,0.459C15.93,1846.62,14,1848.71,14,1851.27z"/>
		</g>
		<path opacity="0.7" fill="#FFFFFF" enable-background="new    " d="M18,1919c0,4.42,3.58,8,8,8s8-3.58,8-8s-3.58-8-8-8
			S18,1914.58,18,1919z M25,1914h2v4h4v2h-4v4h-2v-4h-4v-2h4V1914z"/>
		<path opacity="0.7" fill="#FFFFFF" enable-background="new    " d="M18,1951c0,4.42,3.58,8,8,8s8-3.58,8-8s-3.58-8-8-8
			S18,1946.58,18,1951z M21,1949h4v-3l6,5l-6,5v-3h-4V1949z"/>
	</g>
	<g>
		<g>
			<g>
				<path fill="#FFFFFF" d="M30,2023c0,1.65-1.35,3-3,3h-8c-1.65,0-3-1.35-3-3v-6c0-1.65,1.35-3,3-3h8c1.65,0,3,1.35,3,3V2023z"/>
			</g>
			<polygon fill="#FFFFFF" points="31,2021 36,2025 36,2015 31,2019 			"/>
		</g>
		<g>
			<path fill="#FFFFFF" d="M20.689,1992.311c-1.739-1.738-2.959-3.811-4.14-5.961c-1.11-2.027-0.51-3.857,1.511-5.068
				c0.709-0.432,1.299-0.379,1.83,0.25c0.25,0.311,1.18,1.431,1.42,1.75c0.76,0.979,0.77,1.58-0.621,2.951
				c-0.58,0.567-0.439,1.299,0,1.738l4.34,4.34c0.441,0.439,1.171,0.58,1.74,0c1.371-1.391,1.971-1.381,2.951-0.619
				c0.317,0.238,1.438,1.17,1.75,1.42c0.629,0.529,0.68,1.121,0.25,1.83c-1.213,2.021-3.041,2.619-5.07,1.511
				C24.5,1995.27,22.43,1994.05,20.689,1992.311L20.689,1992.311z"/>
			<path fill="#FFFFFF" d="M24,1979c5.52,0,10,4.48,10,10h2c0-6.63-5.37-12-12-12"/>
			<path fill="#FFFFFF" d="M24,1983c3.311,0,6,2.689,6,6h2c0-4.42-3.58-8-8-8"/>
		</g>
		<g>
			<path fill="#FFFFFF" d="M36,2096c0,0.55-0.45,1-1,1H15c-0.55,0-1-0.45-1-1v-13c0-0.55,0.45-1,1-1h20c0.55,0,1,0.45,1,1V2096z
				 M35,2081H15c-1.1,0-2,0.9-2,2v13c0,1.1,0.9,2,2,2h7v1l-4,1v1h14v-1l-4-1v-1h7c1.1,0,2-0.9,2-2v-13C37,2081.9,36.1,2081,35,2081z
				"/>
			<rect x="15" y="2083" opacity="0.5" fill="#FFFFFF" enable-background="new    " width="20" height="13"/>
		</g>
		<g>
			<path fill="none" stroke="#FFFFFF" stroke-width="2" stroke-linecap="round" stroke-linejoin="round" stroke-miterlimit="10" d="
				M14,2061.27c0,2.61,2.029,4.73,4.529,4.73h0.111h12.83c2.5,0,4.529-2.12,4.529-4.73c0-2.539-1.91-4.617-4.32-4.738v-0.012
				c0-3.039-2.359-5.52-5.279-5.52c-1.881,0-3.541,1.029-4.469,2.59c-0.31-0.14-0.66-0.22-1.029-0.22c-1.43,0-2.58,1.21-2.58,2.7
				c0,0.16,0,0.31,0.029,0.459C15.93,2056.62,14,2058.71,14,2061.27z"/>
		</g>
		<path fill="#FFFFFF" d="M18,2129c0,4.42,3.58,8,8,8s8-3.58,8-8s-3.58-8-8-8S18,2124.58,18,2129z M25,2124h2v4h4v2h-4v4h-2v-4h-4
			v-2h4V2124z"/>
		<path fill="#FFFFFF" d="M18,2161c0,4.42,3.58,8,8,8s8-3.58,8-8s-3.58-8-8-8S18,2156.58,18,2161z M21,2159h4v-3l6,5l-6,5v-3h-4
			V2159z"/>
	</g>
</g>
<polygon fill="#FBAA19" points="17,2215.42 20.71,2218 19.4,2213.68 23,2210.95 18.48,2210.85 17,2206.59 15.52,2210.85 11,2210.95 
	14.6,2213.68 13.29,2218 "/>
<rect y="2296" opacity="0.5" fill="#EFEEEE" enable-background="new    " width="48" height="2"/>
<g>
	<g>
		<path fill="#32A2DC" d="M11,2250c0-3.311,2.69-6,6-6c3.311,0,6,2.689,6,6s-2.689,6-6,6C13.69,2256,11,2253.311,11,2250z"/>
		<polygon fill="#FFFFFF" points="13,2250 14.391,2248.67 16.13,2250.33 19.609,2247 21,2248.33 16.13,2253 		"/>
	</g>
</g>
<rect x="14" y="2371" opacity="0.2" fill="#141A1A" enable-background="new    " width="2" height="16"/>
<g>
	<path fill="#7AB248" d="M15,2335c-3.87,0-7-3.13-7-7s3.13-7,7-7s7,3.13,7,7S18.87,2335,15,2335z M15,2319c-4.97,0-9,4.029-9,9
		s4.03,9,9,9c4.971,0,9-4.029,9-9S19.971,2319,15,2319z"/>
	<polygon fill="#7AB248" points="17,2324 17,2327 20,2327 15,2333 10,2327 13,2327 13,2324 	"/>
</g>
<g opacity="0.5">
	<path opacity="0.7" fill="#010101" enable-background="new    " d="M23.37,2480.27c-0.46-0.118-0.82-0.459-0.8-0.93
		c0-0.108,0.08-0.188,0.15-0.24c1.02-0.569,1.75-1.459,1.778-2.6c0.062-2.35-2.062-4.1-4.312-4.73c0.09,1.69-0.39,3.28-1.42,4.552
		c-0.91,1.13-2.18,1.948-3.68,2.399c0.79,0.709,1.87,1.159,3.141,1.25c0.721,0.049,1.459,0,2.209-0.101
		c0.802,0.64,1.951,0.67,2.92,0.61C23.66,2480.46,23.609,2480.33,23.37,2480.27z"/>
	<path fill="#010101" d="M18.62,2470.7c-0.79-3.561-4.36-4.74-7.84-3.979c-3.18,0.689-6.36,3.119-6.28,6.439
		c0.04,1.529,1.01,2.71,2.37,3.47c0.09,0.07,0.2,0.181,0.21,0.32c0.03,0.64-0.46,1.079-1.07,1.239c-0.32,0.08-0.39,0.25,0.01,0.28
		c1.3,0.091,2.83,0.039,3.9-0.811c0.99,0.13,1.97,0.198,2.94,0.13C16.84,2477.51,19.49,2474.6,18.62,2470.7z"/>
</g>
<g>
	<path fill="none" stroke="#010101" stroke-width="2" stroke-linecap="round" stroke-linejoin="round" stroke-miterlimit="10" d="
		M12.5,2439.5c-4.41,0-8-3.59-8-8s3.59-8,8-8s8,3.59,8,8S16.91,2439.5,12.5,2439.5z"/>
	<circle fill="#010101" cx="9" cy="2429" r="1.5"/>
	<circle fill="#010101" cx="16" cy="2429" r="1.5"/>
	<path fill="#010101" d="M7.6,2432.5c0.46,2.279,2.48,4,4.9,4s4.439-1.721,4.9-4H7.6z"/>
</g>
<g opacity="0.7">
	<polygon fill-rule="evenodd" clip-rule="evenodd" fill="#010101" points="34.5,2554 39.5,2560 29.5,2560 	"/>
</g>
<g opacity="0.7">
	<polygon fill-rule="evenodd" clip-rule="evenodd" fill="#010101" points="34.5,2600 29.5,2594 39.5,2594 	"/>
</g>
<g>
	<path fill="#333333" d="M16.221,2515.816c-0.85-0.84-1.346-1.311-2.221-1.311h20c-1.21,0-1.37,0.471-2.221,1.311l-6.17,6.039
		c-1.609,1.525-1.609,1.525-3.219,0L16.221,2515.816z"/>
</g>
<g>
	<path fill="#333333" d="M1.311,2736.532c-0.84,0.85-1.311,1.346-1.311,2.221v-20c0,1.21,0.471,1.37,1.311,2.221l6.039,6.17
		c1.525,1.609,1.525,1.609,0,3.219L1.311,2736.532z"/>
</g>
<path fill-rule="evenodd" clip-rule="evenodd" fill="none" stroke="#FFFFFF" stroke-width="2" stroke-linecap="round" stroke-linejoin="round" stroke-miterlimit="10" d="
	M8,2679.77c0,2.61,2.03,4.73,4.53,4.73h0.11h12.831c2.5,0,4.529-2.12,4.529-4.73c0-2.539-1.91-4.619-4.32-4.74v-0.01
	c0-3.039-2.36-5.52-5.28-5.52c-1.88,0-3.54,1.029-4.47,2.59c-0.31-0.14-0.66-0.22-1.03-0.22c-1.43,0-2.58,1.21-2.58,2.7
	c0,0.16,0,0.31,0.03,0.459C9.93,2675.12,8,2677.21,8,2679.77z"/>
<path opacity="0.7" fill-rule="evenodd" clip-rule="evenodd" fill="none" stroke="#FFFFFF" stroke-width="2" stroke-linecap="round" stroke-linejoin="round" stroke-miterlimit="10" d="
	M8,2649.77c0,2.61,2.03,4.73,4.53,4.73h0.11h12.831c2.5,0,4.529-2.12,4.529-4.73c0-2.539-1.91-4.619-4.32-4.74v-0.01
	c0-3.039-2.36-5.52-5.28-5.52c-1.88,0-3.54,1.029-4.47,2.59c-0.31-0.14-0.66-0.22-1.03-0.22c-1.43,0-2.58,1.21-2.58,2.7
	c0,0.16,0,0.31,0.03,0.459C9.93,2645.12,8,2647.21,8,2649.77z"/>
<g>
	<defs>
		<path id="SVGID_1_" d="M8,2679.77c0,2.61,2.03,4.73,4.53,4.73h0.11h12.831c2.5,0,4.529-2.12,4.529-4.73
			c0-2.539-1.91-4.619-4.32-4.74v-0.01c0-3.039-2.36-5.52-5.28-5.52c-1.88,0-3.54,1.029-4.47,2.59c-0.31-0.14-0.66-0.22-1.03-0.22
			c-1.43,0-2.58,1.21-2.58,2.7c0,0.16,0,0.31,0.03,0.459C9.93,2675.12,8,2677.21,8,2679.77z"/>
	</defs>
	<clipPath id="SVGID_2_">
		<use xlink:href="#SVGID_1_"  overflow="visible"/>
	</clipPath>
	<g clip-path="url(#SVGID_2_)">
		<rect x="17" y="2667.5" fill-rule="evenodd" clip-rule="evenodd" fill="#FFFFFF" width="4" height="10"/>
		<rect x="16" y="2675.5" fill-rule="evenodd" clip-rule="evenodd" fill="#FFFFFF" width="6" height="8"/>
	</g>
	<g clip-path="url(#SVGID_2_)">
		<rect x="19" y="2667.5" fill="#D42027" width="1" height="1"/>
		<rect x="18" y="2668.5" fill="#D42027" width="1" height="1"/>
		<rect x="19" y="2669.5" fill="#D42027" width="1" height="1"/>
		<rect x="18" y="2670.5" fill="#D42027" width="1" height="1"/>
		<rect x="19" y="2671.5" fill="#D42027" width="1" height="1"/>
		<rect x="18" y="2672.5" fill="#D42027" width="1" height="1"/>
		<rect x="19" y="2673.5" fill="#D42027" width="1" height="1"/>
		<rect x="18" y="2674.5" fill="#D42027" width="1" height="1"/>
		<rect x="18" y="2675.5" fill="#D42027" width="2" height="1"/>
		<path fill-rule="evenodd" clip-rule="evenodd" fill="#D42027" d="M21,2682.5v-6h-4v6H21z M20,2681.5h-2v-3h2V2681.5z"/>
	</g>
</g>
<g opacity="0.7">
	<defs>
		<path id="SVGID_3_" opacity="0.7" d="M8,2649.77c0,2.61,2.03,4.73,4.53,4.73h0.11h12.831c2.5,0,4.529-2.12,4.529-4.73
			c0-2.539-1.91-4.619-4.32-4.74v-0.01c0-3.039-2.36-5.52-5.28-5.52c-1.88,0-3.54,1.029-4.47,2.59c-0.31-0.14-0.66-0.22-1.03-0.22
			c-1.43,0-2.58,1.21-2.58,2.7c0,0.16,0,0.31,0.03,0.459C9.93,2645.12,8,2647.21,8,2649.77z"/>
	</defs>
	<clipPath id="SVGID_4_">
		<use xlink:href="#SVGID_3_"  overflow="visible" opacity="0.7"/>
	</clipPath>
	<g clip-path="url(#SVGID_4_)">
		<rect x="17" y="2637.5" opacity="0.7" fill-rule="evenodd" clip-rule="evenodd" fill="#FFFFFF" width="4" height="10"/>
		<rect x="16" y="2645.5" fill-rule="evenodd" clip-rule="evenodd" fill="#FFFFFF" width="6" height="8"/>
	</g>
	<g clip-path="url(#SVGID_4_)">
		<rect x="19" y="2637.5" fill="#333333" width="1" height="1"/>
		<rect x="18" y="2638.5" fill="#333333" width="1" height="1"/>
		<rect x="19" y="2639.5" fill="#333333" width="1" height="1"/>
		<rect x="18" y="2640.5" fill="#333333" width="1" height="1"/>
		<rect x="19" y="2641.5" opacity="0.7" fill="#333333" width="1" height="1"/>
		<rect x="18" y="2642.5" fill="#333333" width="1" height="1"/>
		<rect x="19" y="2643.5" fill="#333333" width="1" height="1"/>
		<rect x="18" y="2644.5" fill="#333333" width="1" height="1"/>
		<rect x="18" y="2645.5" fill="#333333" width="2" height="1"/>
		<path fill-rule="evenodd" clip-rule="evenodd" fill="#333333" d="M21,2652.5v-6h-4v6H21z M20,2651.5h-2v-3h2V2651.5z"/>
	</g>
</g>
<path opacity="0.6" fill="#010101" d="M8.412,2784l3.3-3.29c0.39-0.39,0.39-1.03,0-1.42s-1.03-0.39-1.42,0l-3.29,3.3l-3.29-3.3
	c-0.39-0.39-1.03-0.39-1.42,0s-0.39,1.03,0,1.42l3.3,3.29l-3.3,3.29c-0.39,0.39-0.39,1.03,0,1.42c0.2,0.19,0.45,0.29,0.71,0.29
	s0.51-0.1,0.71-0.29l3.29-3.3l3.29,3.3c0.2,0.19,0.45,0.29,0.71,0.29s0.51-0.1,0.71-0.29c0.39-0.39,0.39-1.03,0-1.42L8.412,2784z"/>
<g>
	<circle fill-rule="evenodd" clip-rule="evenodd" fill="#FFFFFF" cx="24" cy="2832" r="5"/>
	<circle fill-rule="evenodd" clip-rule="evenodd" fill="#32A2DC" cx="24" cy="2832" r="4"/>
	<g>
		<rect x="22" y="2832" fill-rule="evenodd" clip-rule="evenodd" fill="#FFFFFF" width="1" height="1"/>
		<rect x="23" y="2833" fill-rule="evenodd" clip-rule="evenodd" fill="#FFFFFF" width="1" height="1"/>
		<rect x="24" y="2832" fill-rule="evenodd" clip-rule="evenodd" fill="#FFFFFF" width="1" height="1"/>
		<rect x="25" y="2831" fill-rule="evenodd" clip-rule="evenodd" fill="#FFFFFF" width="1" height="1"/>
		<rect x="26" y="2830" fill-rule="evenodd" clip-rule="evenodd" fill="#FFFFFF" width="1" height="1"/>
	</g>
</g>
<polygon fill-rule="evenodd" clip-rule="evenodd" fill="#7AB248" points="18,2883 20.609,2880.33 23.87,2883.67 30.391,2877 
	33,2879.67 23.87,2889 "/>
<polygon opacity="0.1" fill-rule="evenodd" clip-rule="evenodd" fill="#010101" points="18,2931 20.609,2928.33 23.87,2931.67 
	30.391,2925 33,2927.67 23.87,2937 "/>
<g opacity="0.3">
	<path fill-rule="evenodd" clip-rule="evenodd" fill="#010101" d="M24,2984.5c-2.49,0-4.5-2.01-4.5-4.5s2.01-4.5,4.5-4.5
		s4.5,2.01,4.5,4.5S26.49,2984.5,24,2984.5z M24,2974c-3.311,0-6,2.689-6,6s2.689,6,6,6s6-2.689,6-6S27.311,2974,24,2974z"/>
	<path fill="#010101" d="M28.859,2985.891c-0.26,0.26-0.26,0.67,0,0.93l2.99,2.99c0.25,0.25,0.67,0.25,0.92,0l1.041-1.041
		c0.25-0.25,0.25-0.67,0-0.92l-2.99-2.99c-0.26-0.26-0.67-0.26-0.93,0L28.859,2985.891z"/>
	
		<rect x="26.714" y="2984.361" transform="matrix(-0.7071 -0.7071 0.7071 -0.7071 -2061.3726 5115.8213)" fill="#010101" width="4.243" height="0.947"/>
</g>
</svg>
