<?xml version="1.0" encoding="utf-8"?>
<!-- Generator: Adobe Illustrator 16.0.0, SVG Export Plug-In . SVG Version: 6.00 Build 0)  -->
<!DOCTYPE svg PUBLIC "-//W3C//DTD SVG 1.1//EN" "http://www.w3.org/Graphics/SVG/1.1/DTD/svg11.dtd">
<svg version="1.1" id="Layer_1" xmlns="http://www.w3.org/2000/svg" xmlns:xlink="http://www.w3.org/1999/xlink" x="0px" y="0px"
	 width="48px" height="1600px" viewBox="0 0 48 1600" enable-background="new 0 0 48 1600" xml:space="preserve">
<g opacity="0.7">
	<path fill="#FFFFFF" d="M36.012,163.65c1.711-0.97,2.932-2.45,2.99-4.37c0.102-4.18-3.91-7.24-7.91-8.11l-0.158-0.03
		c0.26,2.67-0.391,5.17-1.9,7.16c-1.53,2.021-3.819,3.38-6.55,3.96c1.32,1.63,3.43,2.67,5.98,2.84c1.221,0.09,2.459,0,3.709-0.17
		c1.34,1.08,3.271,1.141,4.91,1.03c0.51-0.04,0.41-0.26,0.021-0.36c-0.78-0.2-1.391-0.75-1.352-1.55
		C35.762,163.87,35.902,163.73,36.012,163.65z"/>
	<path fill="#FFFFFF" d="M29.732,149.9c-1.26-5.85-7.021-7.78-12.621-6.54c-5.12,1.14-10.24,5.13-10.11,10.6
		c0.07,2.51,1.63,4.45,3.82,5.71c0.15,0.1,0.32,0.28,0.33,0.52c0.05,1.05-0.73,1.77-1.72,2.03c-0.51,0.13-0.62,0.41,0.03,0.47
		c2.08,0.14,4.55,0.06,6.27-1.34c1.59,0.22,3.17,0.34,4.73,0.22C26.873,161.11,31.143,156.33,29.732,149.9z"/>
</g>
<g opacity="0.7">
	<path fill="#FFFFFF" d="M35.002,66.48c0,0.28-0.24,0.52-0.52,0.52h-3.48c-0.02-1.86-0.369-2.23-0.539-2.41
		c-0.359-0.36-1.771-1.07-2.939-1.61c0.029-0.1,0.08-0.21,0.14-0.24c0.131-0.05,0.541-0.25,0.541-0.25c0-0.03,0.049-0.12,0.06-0.21
		c0-0.101-0.06-0.21-0.06-0.21c-0.052-0.11-0.25-0.37-0.312-0.57c-0.061-0.2-0.119-0.72-0.119-0.72c0-0.11-0.16-0.16-0.271-0.21
		c-0.18-0.09-0.49-1.2-0.49-1.2c0-0.36-0.01-0.2-0.01-0.46v-0.97c0-1.19,1.28-1.94,2.48-1.94h0.039c1.201,0,2.479,0.75,2.479,1.94
		v0.97c0,0.26-0.01,0.1-0.01,0.46c0,0-0.229,1.11-0.41,1.2c-0.108,0.05-0.31,0.1-0.31,0.21c0,0-0.08,0.52-0.141,0.72
		c-0.051,0.2-0.271,0.46-0.32,0.57c0,0-0.061,0.109-0.061,0.21c0,0.09,0.051,0.18,0.051,0.21c0,0,0.41,0.2,0.539,0.25
		c0.131,0.06,0.189,0.42,0.189,0.52c0.471,0.16,2.979,1.32,3.271,1.61C35,65.08,35,66.32,35,66.32v0.16H35.002z M30.002,67.34
		c0,0.36-0.299,0.66-0.66,0.66H16.663c-0.36,0-0.66-0.3-0.66-0.66v-0.2c0,0,0-1.58,0.26-1.85c0.36-0.37,3.56-1.85,4.16-2.05
		c0-0.13,0.07-0.58,0.24-0.66c0.16-0.06,0.69-0.32,0.69-0.32c0-0.04,0.06-0.149,0.07-0.27c0-0.13-0.07-0.26-0.07-0.26
		c-0.07-0.14-0.33-0.47-0.4-0.73c-0.07-0.26-0.15-0.92-0.15-0.92c0-0.14-0.21-0.2-0.34-0.27c-0.23-0.11-0.54-1.52-0.54-1.52
		c0-0.46,0.08-0.26,0.08-0.59v-1.23c0-1.51,1.45-2.47,2.97-2.47h0.06c1.521,0,2.97,0.96,2.97,2.47v1.23c0,0.33,0.08,0.13,0.08,0.59
		c0,0-0.25,1.41-0.479,1.52c-0.129,0.07-0.369,0.13-0.369,0.27c0,0-0.101,0.66-0.17,0.92c-0.07,0.26-0.33,0.59-0.4,0.73
		c0,0-0.08,0.13-0.08,0.26c0.01,0.12,0.07,0.229,0.07,0.27c0,0,0.529,0.26,0.688,0.32c0.171,0.08,0.24,0.53,0.24,0.66
		c0.601,0.2,3.801,1.68,4.16,2.05c0.26,0.27,0.26,1.85,0.26,1.85L30.002,67.34L30.002,67.34z M15.002,67h-3.48
		c-0.28,0-0.52-0.24-0.52-0.52v-0.16c0,0,0-1.24,0.2-1.45c0.29-0.29,2.8-1.45,3.27-1.61c0-0.1,0.06-0.46,0.19-0.52
		c0.13-0.05,0.54-0.25,0.54-0.25c0-0.03,0.05-0.12,0.06-0.21c0-0.101-0.06-0.21-0.06-0.21c-0.05-0.11-0.26-0.37-0.31-0.57
		c-0.06-0.2-0.12-0.72-0.12-0.72c0-0.11-0.16-0.16-0.27-0.21c-0.18-0.09-0.49-1.2-0.49-1.2c0-0.36-0.01-0.2-0.01-0.46v-0.97
		c0-1.19,1.28-1.94,2.48-1.94h0.04c1.2,0,2.48,0.75,2.48,1.94v0.97c0,0.26-0.01,0.1-0.01,0.46c0,0-0.23,1.11-0.41,1.2
		c-0.11,0.05-0.31,0.1-0.31,0.21c0,0-0.08,0.52-0.14,0.72s-0.27,0.46-0.32,0.57c0,0-0.06,0.109-0.06,0.21
		c0,0.09,0.05,0.18,0.05,0.21c0,0,0.41,0.2,0.54,0.25c0.06,0.03,0.11,0.14,0.14,0.24c-1.17,0.54-2.58,1.25-2.94,1.61
		C15.373,64.77,15.022,65.14,15.002,67z M8.002,52v18c0,0.55,0.45,1,1,1h28c0.551,0,1-0.45,1-1V52H8.002z"/>
	<path fill="#FFFFFF" d="M36.002,50c0-0.55-0.449-1-1-1h-10l-2-2h-14c-0.55,0-1,0.45-1,1v1v2h28V50z"/>
</g>
<g opacity="0.7">
	<g>
		<path fill="#FFFFFF" d="M8.002,14.37c0,3.66,2.77,6.63,6.17,6.63h0.15h17.51c3.4,0,6.17-2.97,6.17-6.63
			c0-3.55-2.609-6.46-5.879-6.62V7.73c0-4.26-3.221-7.73-7.201-7.73c-2.58,0-4.839,1.45-6.109,3.63c-0.43-0.2-0.9-0.32-1.39-0.32
			c-1.95,0-3.54,1.71-3.54,3.79c0,0.23,0.02,0.44,0.05,0.65C10.632,7.88,8.002,10.79,8.002,14.37z"/>
	</g>
</g>
<g opacity="0.7">
	<path fill="#FFFFFF" d="M27.412,109.65c-0.09,0.05-0.17,0.22-0.221,0.38c1.852,0.86,4.07,1.99,4.641,2.56
		c0.271,0.28,0.82,0.46,0.852,3.41h5.5c0.439,0,0.818-0.38,0.818-0.83v-0.25c0,0,0-1.55-0.318-1.89c-0.451-0.46-4.422-2.3-5.16-2.55
		c0-0.16-0.09-0.73-0.301-0.83c-0.199-0.08-0.85-0.4-0.85-0.4c0-0.04-0.08-0.19-0.102-0.33c0-0.16,0.102-0.33,0.102-0.33
		c0.08-0.18,0.409-0.59,0.488-0.91c0.092-0.31,0.19-1.14,0.19-1.14c0-0.17,0.25-0.25,0.421-0.33c0.289-0.15,0.52-1.91,0.52-1.91
		c0-0.57-0.23-0.32-0.23-0.729v-1.54c0-1.89-1.52-3.08-3.408-3.08h-0.07c-1.891,0-3.409,1.19-3.409,3.08v1.54
		c0,0.41-0.229,0.16-0.229,0.729c0,0,0.229,1.76,0.52,1.91c0.17,0.08,0.42,0.16,0.42,0.33c0,0,0.102,0.83,0.189,1.14
		c0.102,0.32,0.41,0.73,0.49,0.91c0,0,0.101,0.17,0.101,0.33c-0.021,0.14-0.101,0.29-0.101,0.33
		C28.262,109.25,27.623,109.57,27.412,109.65z"/>
	<path fill="#FFFFFF" d="M30.691,113.7c-0.56-0.59-5.619-2.94-6.56-3.26c0-0.2-0.11-0.92-0.38-1.04c-0.26-0.1-1.09-0.51-1.09-0.51
		c0-0.06-0.1-0.24-0.11-0.43c0-0.21,0.11-0.41,0.11-0.41c0.11-0.22,0.52-0.75,0.63-1.16c0.11-0.41,0.24-1.46,0.24-1.46
		c0-0.22,0.329-0.319,0.53-0.43c0.369-0.17,0.67-2.41,0.67-2.41c0-0.729-0.301-0.42-0.301-0.94V99.7c0-2.4-2.03-3.7-4.43-3.7h-0.09
		c-2.4,0-4.23,1.3-4.23,3.7v1.95c0,0.52-0.3,0.21-0.3,0.94c0,0,0.3,2.24,0.66,2.41c0.21,0.11,0.54,0.21,0.54,0.43
		c0,0,0.13,1.05,0.24,1.46c0.11,0.41,0.52,0.94,0.63,1.16c0,0,0.11,0.2,0.11,0.41c-0.02,0.19-0.11,0.37-0.11,0.43
		c0,0-0.84,0.41-1.09,0.51c-0.27,0.12-0.38,0.84-0.38,1.04c-0.95,0.32-6,2.67-6.57,3.26c-0.41,0.43-0.41,2.94-0.41,2.94v0.31
		c0,0.57,0.47,1.05,1.04,1.05h20.021c0.569,0,1.049-0.48,1.049-1.05v-0.31C31.111,116.64,31.111,114.13,30.691,113.7z"/>
</g>
<g>
	<path fill="#FFFFFF" d="M36.01,543.65c1.711-0.972,2.93-2.45,2.99-4.371c0.1-4.181-3.91-7.239-7.91-8.109l-0.16-0.029
		c0.26,2.67-0.39,5.17-1.9,7.159c-1.528,2.021-3.818,3.38-6.548,3.96c1.32,1.631,3.43,2.67,5.98,2.84c1.221,0.091,2.46,0,3.71-0.17
		c1.341,1.08,3.271,1.142,4.91,1.03c0.51-0.04,0.41-0.26,0.021-0.359c-0.779-0.199-1.391-0.75-1.351-1.551
		C35.76,543.87,35.9,543.73,36.01,543.65z"/>
	<path fill="#FFFFFF" d="M29.73,529.9c-1.26-5.852-7.021-7.78-12.622-6.541C11.99,524.5,6.87,528.49,7,533.96
		c0.07,2.511,1.63,4.45,3.82,5.71c0.15,0.1,0.32,0.28,0.33,0.521c0.05,1.051-0.73,1.771-1.72,2.03c-0.51,0.129-0.62,0.409,0.03,0.47
		c2.08,0.141,4.55,0.061,6.27-1.341c1.59,0.222,3.17,0.341,4.73,0.222C26.87,541.109,31.141,536.33,29.73,529.9z"/>
</g>
<g>
	<path fill="#FFFFFF" d="M27.41,489.65c-0.09,0.05-0.17,0.22-0.221,0.379c1.851,0.86,4.069,1.989,4.641,2.561
		c0.27,0.28,0.82,0.46,0.85,3.41h5.5c0.44,0,0.82-0.38,0.82-0.83v-0.25c0,0,0-1.55-0.32-1.891c-0.449-0.459-4.42-2.299-5.16-2.549
		c0-0.16-0.09-0.73-0.299-0.83c-0.201-0.08-0.851-0.4-0.851-0.4c0-0.04-0.08-0.189-0.101-0.33c0-0.16,0.101-0.33,0.101-0.33
		c0.08-0.18,0.409-0.59,0.489-0.91c0.091-0.31,0.189-1.14,0.189-1.14c0-0.17,0.25-0.25,0.422-0.33c0.288-0.148,0.52-1.91,0.52-1.91
		c0-0.568-0.23-0.318-0.23-0.729v-1.541c0-1.89-1.52-3.079-3.41-3.079h-0.07c-1.889,0-3.408,1.189-3.408,3.079v1.541
		c0,0.41-0.229,0.16-0.229,0.729c0,0,0.229,1.761,0.52,1.91c0.17,0.08,0.42,0.16,0.42,0.33c0,0,0.1,0.83,0.189,1.14
		c0.101,0.32,0.41,0.73,0.489,0.91c0,0,0.101,0.17,0.101,0.33c-0.021,0.141-0.101,0.29-0.101,0.33
		C28.26,489.25,27.62,489.57,27.41,489.65z"/>
	<path fill="#FFFFFF" d="M30.689,493.7c-0.561-0.591-5.619-2.94-6.561-3.261c0-0.199-0.109-0.921-0.38-1.039
		c-0.26-0.102-1.09-0.511-1.09-0.511c0-0.061-0.1-0.239-0.11-0.431c0-0.21,0.11-0.41,0.11-0.41c0.11-0.22,0.521-0.75,0.63-1.159
		s0.24-1.461,0.24-1.461c0-0.22,0.33-0.319,0.531-0.43c0.369-0.17,0.67-2.41,0.67-2.41c0-0.729-0.301-0.42-0.301-0.939v-1.95
		c0-2.4-2.031-3.7-4.431-3.7h-0.09c-2.4,0-4.23,1.3-4.23,3.7v1.95c0,0.52-0.3,0.21-0.3,0.939c0,0,0.3,2.24,0.66,2.41
		c0.21,0.109,0.54,0.21,0.54,0.43c0,0,0.13,1.052,0.24,1.461c0.11,0.409,0.52,0.939,0.63,1.159c0,0,0.11,0.2,0.11,0.41
		c-0.02,0.19-0.11,0.37-0.11,0.431c0,0-0.84,0.409-1.09,0.511c-0.27,0.118-0.38,0.84-0.38,1.039c-0.95,0.319-6,2.67-6.57,3.261
		c-0.41,0.43-0.41,2.939-0.41,2.939v0.311c0,0.568,0.47,1.05,1.04,1.05h20.021c0.568,0,1.049-0.48,1.049-1.05v-0.311
		C31.109,496.641,31.109,494.13,30.689,493.7z"/>
</g>
<g>
	<path fill="#FFFFFF" d="M35,446.48c0,0.279-0.24,0.52-0.52,0.52H31c-0.02-1.86-0.37-2.23-0.54-2.41
		c-0.36-0.359-1.771-1.07-2.94-1.609c0.03-0.101,0.08-0.211,0.142-0.24c0.13-0.05,0.54-0.25,0.54-0.25c0-0.03,0.05-0.12,0.06-0.21
		c0-0.101-0.06-0.21-0.06-0.21c-0.051-0.11-0.25-0.37-0.311-0.57s-0.121-0.72-0.121-0.72c0-0.11-0.16-0.16-0.27-0.21
		c-0.18-0.09-0.49-1.2-0.49-1.2c0-0.36-0.01-0.2-0.01-0.46v-0.97c0-1.19,1.279-1.94,2.48-1.94h0.039c1.201,0,2.479,0.75,2.479,1.94
		v0.97c0,0.26-0.011,0.1-0.011,0.46c0,0-0.229,1.11-0.409,1.2c-0.108,0.05-0.312,0.1-0.312,0.21c0,0-0.08,0.52-0.14,0.72
		c-0.05,0.2-0.271,0.46-0.319,0.57c0,0-0.061,0.109-0.061,0.21c0,0.09,0.05,0.18,0.05,0.21c0,0,0.41,0.2,0.54,0.25
		c0.131,0.06,0.189,0.42,0.189,0.52c0.471,0.16,2.979,1.32,3.271,1.61c0.2,0.21,0.2,1.45,0.2,1.45v0.16H35z M30,447.34
		c0,0.36-0.3,0.66-0.66,0.66H16.66c-0.36,0-0.66-0.3-0.66-0.66v-0.2c0,0,0-1.58,0.26-1.85c0.36-0.37,3.56-1.85,4.16-2.05
		c0-0.13,0.07-0.58,0.24-0.66c0.16-0.061,0.69-0.32,0.69-0.32c0-0.04,0.06-0.149,0.07-0.27c0-0.13-0.07-0.26-0.07-0.26
		c-0.07-0.141-0.33-0.471-0.4-0.73c-0.07-0.26-0.15-0.92-0.15-0.92c0-0.141-0.21-0.2-0.34-0.271c-0.23-0.109-0.54-1.52-0.54-1.52
		c0-0.46,0.08-0.26,0.08-0.59v-1.23c0-1.51,1.45-2.47,2.97-2.47h0.059c1.521,0,2.971,0.96,2.971,2.47v1.23
		c0,0.33,0.08,0.13,0.08,0.59c0,0-0.25,1.41-0.48,1.52c-0.129,0.07-0.369,0.131-0.369,0.271c0,0-0.101,0.66-0.17,0.92
		s-0.33,0.59-0.399,0.73c0,0-0.08,0.13-0.08,0.26c0.01,0.12,0.069,0.229,0.069,0.27c0,0,0.529,0.26,0.689,0.32
		c0.17,0.08,0.24,0.53,0.24,0.66c0.6,0.2,3.8,1.68,4.16,2.05c0.26,0.27,0.26,1.85,0.26,1.85V447.34z M15,447h-3.48
		c-0.28,0-0.52-0.24-0.52-0.52v-0.16c0,0,0-1.24,0.2-1.45c0.29-0.29,2.8-1.45,3.27-1.61c0-0.1,0.06-0.46,0.19-0.52
		c0.13-0.05,0.54-0.25,0.54-0.25c0-0.03,0.05-0.12,0.06-0.21c0-0.101-0.06-0.21-0.06-0.21c-0.05-0.11-0.26-0.37-0.31-0.57
		c-0.06-0.2-0.12-0.72-0.12-0.72c0-0.11-0.16-0.16-0.27-0.21c-0.18-0.09-0.49-1.2-0.49-1.2c0-0.36-0.01-0.2-0.01-0.46v-0.97
		c0-1.19,1.28-1.94,2.48-1.94h0.04c1.2,0,2.48,0.75,2.48,1.94v0.97c0,0.26-0.01,0.1-0.01,0.46c0,0-0.23,1.11-0.41,1.2
		c-0.11,0.05-0.31,0.1-0.31,0.21c0,0-0.08,0.52-0.14,0.72s-0.27,0.46-0.32,0.57c0,0-0.06,0.109-0.06,0.21
		c0,0.09,0.05,0.18,0.05,0.21c0,0,0.41,0.2,0.54,0.25c0.06,0.029,0.11,0.14,0.14,0.24c-1.17,0.539-2.58,1.25-2.94,1.609
		C15.37,444.77,15.02,445.14,15,447z M8,432v18c0,0.55,0.45,1,1,1h28c0.55,0,1-0.45,1-1v-18H8z"/>
	<path fill="#FFFFFF" d="M36,430c0-0.55-0.45-1-1-1H25l-2-2H9c-0.55,0-1,0.45-1,1v1v2h28V430z"/>
</g>
<g>
	<g>
		<path fill="#FFFFFF" d="M8,394.37c0,3.66,2.77,6.63,6.17,6.63h0.15h17.51c3.4,0,6.17-2.97,6.17-6.63c0-3.55-2.609-6.46-5.88-6.62
			v-0.02c0-4.26-3.22-7.73-7.2-7.73c-2.58,0-4.84,1.45-6.11,3.63c-0.43-0.2-0.9-0.32-1.39-0.32c-1.95,0-3.54,1.71-3.54,3.79
			c0,0.23,0.02,0.44,0.05,0.65C10.63,387.88,8,390.79,8,394.37z"/>
	</g>
</g>
<g>
	<path fill="#30A5DE" d="M36.012,353.65c1.711-0.97,2.932-2.45,2.99-4.37c0.102-4.18-3.91-7.24-7.91-8.11l-0.158-0.03
		c0.26,2.67-0.391,5.17-1.9,7.16c-1.53,2.02-3.819,3.38-6.55,3.96c1.32,1.63,3.43,2.67,5.98,2.84c1.221,0.09,2.459,0,3.709-0.17
		c1.34,1.08,3.271,1.14,4.91,1.03c0.51-0.04,0.41-0.26,0.021-0.36c-0.78-0.2-1.391-0.75-1.352-1.55
		C35.762,353.87,35.902,353.73,36.012,353.65z"/>
	<path fill="#30A5DE" d="M29.732,339.9c-1.26-5.85-7.021-7.78-12.621-6.54c-5.12,1.14-10.24,5.13-10.11,10.6
		c0.07,2.51,1.63,4.45,3.82,5.71c0.15,0.1,0.32,0.28,0.33,0.52c0.05,1.05-0.73,1.77-1.72,2.03c-0.51,0.13-0.62,0.41,0.03,0.47
		c2.08,0.14,4.55,0.06,6.27-1.34c1.59,0.22,3.17,0.34,4.73,0.22C26.873,351.11,31.143,346.33,29.732,339.9z"/>
</g>
<path fill="#F6AC1D" d="M35.002,256.48c0,0.28-0.24,0.52-0.52,0.52h-3.48c-0.02-1.86-0.369-2.23-0.539-2.41
	c-0.359-0.36-1.771-1.07-2.939-1.61c0.029-0.1,0.08-0.21,0.14-0.24c0.131-0.05,0.541-0.25,0.541-0.25c0-0.03,0.049-0.12,0.06-0.21
	c0-0.1-0.06-0.21-0.06-0.21c-0.052-0.11-0.25-0.37-0.312-0.57c-0.061-0.2-0.119-0.72-0.119-0.72c0-0.11-0.16-0.16-0.271-0.21
	c-0.18-0.09-0.49-1.2-0.49-1.2c0-0.36-0.01-0.2-0.01-0.46v-0.97c0-1.19,1.28-1.94,2.48-1.94h0.039c1.201,0,2.479,0.75,2.479,1.94
	v0.97c0,0.26-0.01,0.1-0.01,0.46c0,0-0.229,1.11-0.41,1.2c-0.108,0.05-0.31,0.1-0.31,0.21c0,0-0.08,0.52-0.141,0.72
	c-0.051,0.2-0.271,0.46-0.32,0.57c0,0-0.061,0.11-0.061,0.21c0,0.09,0.051,0.18,0.051,0.21c0,0,0.41,0.2,0.539,0.25
	c0.131,0.06,0.189,0.42,0.189,0.52c0.471,0.16,2.979,1.32,3.271,1.61C35,255.08,35,256.32,35,256.32v0.16H35.002z M30.002,257.34
	c0,0.36-0.299,0.66-0.66,0.66H16.663c-0.36,0-0.66-0.3-0.66-0.66v-0.2c0,0,0-1.58,0.26-1.85c0.36-0.37,3.56-1.85,4.16-2.05
	c0-0.13,0.07-0.58,0.24-0.66c0.16-0.06,0.69-0.32,0.69-0.32c0-0.04,0.06-0.15,0.07-0.27c0-0.13-0.07-0.26-0.07-0.26
	c-0.07-0.14-0.33-0.47-0.4-0.73c-0.07-0.26-0.15-0.92-0.15-0.92c0-0.14-0.21-0.2-0.34-0.27c-0.23-0.11-0.54-1.52-0.54-1.52
	c0-0.46,0.08-0.26,0.08-0.59v-1.23c0-1.51,1.45-2.47,2.97-2.47h0.06c1.521,0,2.97,0.96,2.97,2.47v1.23c0,0.33,0.08,0.13,0.08,0.59
	c0,0-0.25,1.41-0.479,1.52c-0.129,0.07-0.369,0.13-0.369,0.27c0,0-0.101,0.66-0.17,0.92c-0.07,0.26-0.33,0.59-0.4,0.73
	c0,0-0.08,0.13-0.08,0.26c0.01,0.12,0.07,0.229,0.07,0.27c0,0,0.529,0.26,0.688,0.32c0.171,0.08,0.24,0.53,0.24,0.66
	c0.601,0.2,3.801,1.68,4.16,2.05c0.26,0.27,0.26,1.85,0.26,1.85L30.002,257.34L30.002,257.34z M15.002,257h-3.48
	c-0.28,0-0.52-0.24-0.52-0.52v-0.16c0,0,0-1.24,0.2-1.45c0.29-0.29,2.8-1.45,3.27-1.61c0-0.1,0.06-0.46,0.19-0.52
	c0.13-0.05,0.54-0.25,0.54-0.25c0-0.03,0.05-0.12,0.06-0.21c0-0.1-0.06-0.21-0.06-0.21c-0.05-0.11-0.26-0.37-0.31-0.57
	c-0.06-0.2-0.12-0.72-0.12-0.72c0-0.11-0.16-0.16-0.27-0.21c-0.18-0.09-0.49-1.2-0.49-1.2c0-0.36-0.01-0.2-0.01-0.46v-0.97
	c0-1.19,1.28-1.94,2.48-1.94h0.04c1.2,0,2.48,0.75,2.48,1.94v0.97c0,0.26-0.01,0.1-0.01,0.46c0,0-0.23,1.11-0.41,1.2
	c-0.11,0.05-0.31,0.1-0.31,0.21c0,0-0.08,0.52-0.14,0.72s-0.27,0.46-0.32,0.57c0,0-0.06,0.11-0.06,0.21c0,0.09,0.05,0.18,0.05,0.21
	c0,0,0.41,0.2,0.54,0.25c0.06,0.03,0.11,0.14,0.14,0.24c-1.17,0.54-2.58,1.25-2.94,1.61C15.373,254.77,15.022,255.14,15.002,257z
	 M8.002,242v18c0,0.55,0.45,1,1,1h28c0.551,0,1-0.45,1-1v-18H8.002z"/>
<path fill="#F6AC1D" d="M36.002,240c0-0.55-0.449-1-1-1h-10l-2-2h-14c-0.55,0-1,0.45-1,1v1v2h28V240z"/>
<g>
	<g>
		<path fill="#D22428" d="M8.002,204.37c0,3.66,2.77,6.63,6.17,6.63h0.15h17.51c3.4,0,6.17-2.97,6.17-6.63
			c0-3.55-2.609-6.46-5.879-6.62v-0.02c0-4.26-3.221-7.73-7.201-7.73c-2.58,0-4.839,1.45-6.109,3.63c-0.43-0.2-0.9-0.32-1.39-0.32
			c-1.95,0-3.54,1.71-3.54,3.79c0,0.23,0.02,0.44,0.05,0.65C10.632,197.88,8.002,200.79,8.002,204.37z"/>
	</g>
</g>
<g>
	<path fill="#73AC43" d="M27.412,299.65c-0.09,0.05-0.17,0.22-0.221,0.38c1.852,0.86,4.07,1.99,4.641,2.56
		c0.271,0.28,0.82,0.46,0.852,3.41h5.5c0.439,0,0.818-0.38,0.818-0.83v-0.25c0,0,0-1.55-0.318-1.89c-0.451-0.46-4.422-2.3-5.16-2.55
		c0-0.16-0.09-0.73-0.301-0.83c-0.199-0.08-0.85-0.4-0.85-0.4c0-0.04-0.08-0.19-0.102-0.33c0-0.16,0.102-0.33,0.102-0.33
		c0.08-0.18,0.409-0.59,0.488-0.91c0.092-0.31,0.19-1.14,0.19-1.14c0-0.17,0.25-0.25,0.421-0.33c0.289-0.15,0.52-1.91,0.52-1.91
		c0-0.57-0.23-0.32-0.23-0.729v-1.54c0-1.89-1.52-3.08-3.408-3.08h-0.07c-1.891,0-3.409,1.19-3.409,3.08v1.54
		c0,0.41-0.229,0.16-0.229,0.729c0,0,0.229,1.76,0.52,1.91c0.17,0.08,0.42,0.16,0.42,0.33c0,0,0.102,0.83,0.189,1.14
		c0.102,0.32,0.41,0.73,0.49,0.91c0,0,0.101,0.17,0.101,0.33c-0.021,0.14-0.101,0.29-0.101,0.33
		C28.262,299.25,27.623,299.57,27.412,299.65z"/>
	<path fill="#73AC43" d="M30.691,303.7c-0.56-0.59-5.619-2.94-6.56-3.26c0-0.2-0.11-0.92-0.38-1.04c-0.26-0.1-1.09-0.51-1.09-0.51
		c0-0.06-0.1-0.24-0.11-0.43c0-0.21,0.11-0.41,0.11-0.41c0.11-0.22,0.52-0.75,0.63-1.16c0.11-0.41,0.24-1.46,0.24-1.46
		c0-0.22,0.329-0.32,0.53-0.43c0.369-0.17,0.67-2.41,0.67-2.41c0-0.73-0.301-0.42-0.301-0.94v-1.95c0-2.4-2.03-3.7-4.43-3.7h-0.09
		c-2.4,0-4.23,1.3-4.23,3.7v1.95c0,0.52-0.3,0.21-0.3,0.94c0,0,0.3,2.24,0.66,2.41c0.21,0.11,0.54,0.21,0.54,0.43
		c0,0,0.13,1.05,0.24,1.46c0.11,0.41,0.52,0.94,0.63,1.16c0,0,0.11,0.2,0.11,0.41c-0.02,0.19-0.11,0.37-0.11,0.43
		c0,0-0.84,0.41-1.09,0.51c-0.27,0.12-0.38,0.84-0.38,1.04c-0.95,0.32-6,2.67-6.57,3.26c-0.41,0.43-0.41,2.94-0.41,2.94v0.31
		c0,0.57,0.47,1.05,1.04,1.05h20.021c0.569,0,1.049-0.48,1.049-1.05v-0.31C31.111,306.64,31.111,304.13,30.691,303.7z"/>
</g>
<g>
	<path opacity="0.1" fill="#FFFFFF" enable-background="new    " d="M4,605c0-10.49,8.51-19,19-19s19,8.51,19,19s-8.51,19-19,19
		S4,615.49,4,605z"/>
	<circle fill="#222222" cx="23" cy="605" r="17"/>
	<path opacity="0.1" fill="#FFFFFF" enable-background="new    " d="M8,605c0-8.279,6.72-15,15-15c8.279,0,15,6.721,15,15
		s-6.721,15-15,15C14.72,620,8,613.279,8,605z"/>
	<circle fill="#222222" cx="23" cy="605" r="13"/>
	<g opacity="0.7">
		<polygon fill="#FFFFFF" points="17,608 17,604 14,604 19,598 24,604 21,604 21,608 		"/>
		<polygon fill="#FFFFFF" points="29,601 29,605 32,605 27,611 22,605 25,605 25,601 		"/>
	</g>
</g>
<g>
	<path opacity="0.3" fill="#FFFFFF" enable-background="new    " d="M4,675c0-10.49,8.51-19,19-19s19,8.51,19,19s-8.51,19-19,19
		S4,685.49,4,675z"/>
	<circle fill="#222222" cx="23" cy="675" r="17"/>
	<path opacity="0.3" fill="#FFFFFF" enable-background="new    " d="M8,675c0-8.279,6.72-15,15-15c8.279,0,15,6.721,15,15
		s-6.721,15-15,15C14.72,690,8,683.279,8,675z"/>
	<circle fill="#222222" cx="23" cy="675" r="13"/>
	<g>
		<polygon fill="#30A5DE" points="17,678 17,674 14,674 19,668 24,674 21,674 21,678 		"/>
		<polygon fill="#73AC43" points="29,671 29,675 32,675 27,681 22,675 25,675 25,671 		"/>
	</g>
</g>
<path fill="#FFFFFF" d="M23,733c-1.1,0-2-0.9-2-2s0.9-2,2-2c1.1,0,2,0.9,2,2S24.1,733,23,733z M29,732v-2h-2.141
	c-0.101-0.359-0.239-0.7-0.43-1.02l1.521-1.521l-1.41-1.41l-1.521,1.521c-0.319-0.19-0.66-0.33-1.021-0.431V725h-2v2.141
	c-0.36,0.101-0.7,0.239-1.02,0.431l-1.52-1.521l-1.41,1.41l1.52,1.521c-0.19,0.319-0.33,0.66-0.43,1.021H17v2h2.14
	c0.1,0.359,0.24,0.7,0.43,1.021l-1.52,1.521l1.41,1.41l1.52-1.521c0.32,0.19,0.66,0.33,1.02,0.431V737h2v-2.141
	c0.359-0.101,0.7-0.239,1.02-0.431l1.521,1.521l1.41-1.41l-1.521-1.521c0.19-0.319,0.33-0.66,0.43-1.021L29,732L29,732z"/>
<g opacity="0.3">
	<polygon fill="#020202" points="22,759 26,763 18,763 	"/>
	<polygon fill="#020202" points="22,769 18,765 26,765 	"/>
</g>
<g>
	<rect x="16" y="954" fill="#FFFFFF" width="15" height="9"/>
	<rect x="16" y="952" fill="#FFFFFF" width="14" height="1"/>
	<rect x="16" y="951" fill="#FFFFFF" width="7" height="1"/>
</g>
<g opacity="0.7">
	<polygon fill="#FFFFFF" points="23,829 19,824 27,824 	"/>
</g>
<g>
	<rect x="16" y="920" fill="#E5C973" width="15" height="9"/>
	<rect x="16" y="918" fill="#E5C973" width="14" height="1"/>
	<rect x="16" y="917" fill="#E5C973" width="7" height="1"/>
</g>
<g opacity="0.7">
	<polygon fill="#020202" points="23,799 19,794 27,794 	"/>
</g>
<g opacity="0.7">
	<polygon fill="#FFFFFF" points="25.5,886.5 20.5,890.5 20.5,882.5 	"/>
</g>
<g opacity="0.7">
	<polygon fill="#020202" points="25.5,856.5 20.5,860.5 20.5,852.5 	"/>
</g>
<path fill-rule="evenodd" clip-rule="evenodd" fill="#010101" d="M7,1013.53c0,1.909,1.48,3.47,3.29,3.47h0.08h9.34
	c1.81,0,3.29-1.561,3.29-3.47c0-1.86-1.39-3.39-3.14-3.47v-0.011c0-2.239-1.72-4.05-3.84-4.05c-1.37,0-2.58,0.76-3.25,1.9
	c-0.23-0.101-0.48-0.16-0.75-0.16c-1.04,0-1.88,0.89-1.88,1.979c0,0.12,0,0.23,0.02,0.341C8.4,1010.12,7,1011.65,7,1013.53z"/>
<g>
	<path fill-rule="evenodd" clip-rule="evenodd" fill="#FFFFFF" d="M7,1103.529c0,1.91,1.48,3.471,3.29,3.471h0.08h9.34
		c1.81,0,3.29-1.561,3.29-3.471c0-1.859-1.39-3.389-3.14-3.469v-0.011c0-2.239-1.72-4.05-3.84-4.05c-1.37,0-2.58,0.76-3.25,1.9
		c-0.23-0.101-0.48-0.16-0.75-0.16c-1.04,0-1.88,0.89-1.88,1.98c0,0.119,0,0.229,0.02,0.34C8.4,1100.12,7,1101.65,7,1103.529z"/>
	<rect x="12" y="1107" fill-rule="evenodd" clip-rule="evenodd" fill="#FFFFFF" width="6" height="2"/>
	<polygon fill-rule="evenodd" clip-rule="evenodd" fill="#5EB7E7" points="13,1108 13,1106 11,1106 15,1101 19,1106 17,1106 
		17,1108 	"/>
</g>
<g>
	<path fill-rule="evenodd" clip-rule="evenodd" fill="#FFFFFF" d="M7,1143.529c0,1.91,1.48,3.471,3.29,3.471h0.08h9.34
		c1.81,0,3.29-1.561,3.29-3.471c0-1.859-1.39-3.389-3.14-3.469v-0.011c0-2.239-1.72-4.05-3.84-4.05c-1.37,0-2.58,0.76-3.25,1.9
		c-0.23-0.101-0.48-0.16-0.75-0.16c-1.04,0-1.88,0.89-1.88,1.98c0,0.119,0,0.229,0.02,0.34C8.4,1140.12,7,1141.65,7,1143.529z"/>
	<rect x="12" y="1147" fill-rule="evenodd" clip-rule="evenodd" fill="#FFFFFF" width="6" height="2"/>
	<polygon fill-rule="evenodd" clip-rule="evenodd" fill="#369ED8" points="13,1148 13,1146 11,1146 15,1141 19,1146 17,1146 
		17,1148 	"/>
</g>
<g>
	<rect x="7" y="1336" fill-rule="evenodd" clip-rule="evenodd" fill="#010101" width="16" height="4"/>
	<rect x="7" y="1342" fill-rule="evenodd" clip-rule="evenodd" fill="#010101" width="16" height="4"/>
	<rect x="7" y="1348" fill-rule="evenodd" clip-rule="evenodd" fill="#010101" width="16" height="4"/>
</g>
<g>
	<rect x="25" y="1336" fill-rule="evenodd" clip-rule="evenodd" fill="#010101" width="7" height="7"/>
	<rect x="34" y="1336" fill-rule="evenodd" clip-rule="evenodd" fill="#010101" width="7" height="7"/>
	<rect x="34" y="1345" fill-rule="evenodd" clip-rule="evenodd" fill="#010101" width="7" height="7"/>
	<rect x="25" y="1345" fill-rule="evenodd" clip-rule="evenodd" fill="#010101" width="7" height="7"/>
</g>
<g>
	<polygon fill-rule="evenodd" clip-rule="evenodd" fill="#010101" points="19,1391 16,1391 16,1400 	"/>
	<polygon fill-rule="evenodd" clip-rule="evenodd" fill="#010101" points="20,1392 32,1392 29,1401 17,1401 	"/>
	<rect x="16" y="1390" fill-rule="evenodd" clip-rule="evenodd" fill="#010101" width="14" height="1"/>
	<rect x="16" y="1389" fill-rule="evenodd" clip-rule="evenodd" fill="#010101" width="7" height="1"/>
</g>
<rect x="22" y="1533" opacity="0.05" fill-rule="evenodd" clip-rule="evenodd" fill="#010101" width="2" height="16"/>
<path opacity="0.15" fill="#010101" d="M47,1444.59l-7.29-7.3c-0.39-0.39-1.03-0.39-1.42,0s-0.39,1.03,0,1.42l6.3,6.29l-6.3,6.29
	c-0.39,0.39-0.39,1.03,0,1.42c0.2,0.19,0.45,0.29,0.71,0.29s0.51-0.1,0.71-0.29l7.29-7.3V1444.59z"/>
<polygon opacity="0.3" fill="#010101" points="22,1483.42 25.71,1486 24.4,1481.68 28,1478.95 23.48,1478.85 22,1474.59 
	20.52,1478.85 16,1478.95 19.6,1481.68 18.29,1486 "/>
<g opacity="0.2">
	<path fill-rule="evenodd" clip-rule="evenodd" fill="#171515" d="M20,1506c0-1.1,0.9-2,2-2c1.1,0,2,0.9,2,2s-0.9,2-2,2
		C20.9,1508,20,1507.1,20,1506z"/>
</g>
<path fill-rule="evenodd" clip-rule="evenodd" fill="#FFFFFF" d="M7,1067v9h15v-5.029c-0.16,0.02-0.33,0.029-0.5,0.029
	c-2.32,0-4.221-1.75-4.471-4H7z M7,1065v1h10.029c0.041-0.35,0.121-0.68,0.23-1H14v-1H7V1065z M18,1066.5c0,1.93,1.57,3.5,3.5,3.5
	s3.5-1.57,3.5-3.5s-1.57-3.5-3.5-3.5S18,1064.57,18,1066.5z M21,1064h1v2h2v1h-2v2h-1v-2h-2v-1h2V1064z"/>
<g>
	<path fill="#010101" d="M17,1183l-7.2-6.5v4.061c-5.71,0.629-8.8,6.14-8.8,8.939c1.14-2.95,5.37-4.061,8.8-4.061v4.061L17,1183z"/>
</g>
<g opacity="0.4">
	<polygon fill-rule="evenodd" clip-rule="evenodd" fill="#010101" points="39,1240.5 35,1235.5 43,1235.5 	"/>
</g>
<g opacity="0.4">
	<polygon fill-rule="evenodd" clip-rule="evenodd" fill="#010101" points="39,1295.5 35,1300.5 43,1300.5 	"/>
</g>
</svg>
