<?xml version="1.0" encoding="utf-8"?>
<!-- Generator: Adobe Illustrator 16.0.0, SVG Export Plug-In . SVG Version: 6.00 Build 0)  -->
<!DOCTYPE svg PUBLIC "-//W3C//DTD SVG 1.1//EN" "http://www.w3.org/Graphics/SVG/1.1/DTD/svg11.dtd">
<svg version="1.1" id="Layer_1" xmlns:sketch="http://www.bohemiancoding.com/sketch/ns"
	 xmlns="http://www.w3.org/2000/svg" xmlns:xlink="http://www.w3.org/1999/xlink" x="0px" y="0px" width="168px" height="11649px"
	 viewBox="0 0 168 11649" enable-background="new 0 0 168 11649" xml:space="preserve">
<title>Slice 1</title>
<desc>Created with Sketch.</desc>
<g>
	<path id="Fill-2" sketch:type="MSShapeGroup" fill="#F1D364" d="M167,11426.874c0,5.018-4.1,9.126-9.109,9.126H10.109
		c-5.011,0-9.109-4.108-9.109-9.126v-110.509h166V11426.874"/>
	<path id="Fill-3" sketch:type="MSShapeGroup" fill="#ECC01E" d="M10.131,11290h55.649c2.386,0.006,4.497,1.121,6.195,2.798
		l8.354,8.244c1.705,1.682,5.325,3.154,7.718,3.154h70.854c5.009,0,8.098,3.577,8.098,8.596v3.573H1v-17.24
		C1,11294.074,5.093,11289.988,10.131,11290"/>
	<path id="Fill-4" sketch:type="MSShapeGroup" fill="#FFFFFF" d="M111.329,11354.898H99.183l-3.138-3.145
		c-1.654-1.678-4.644-2.94-6.984-2.94H78.939c-2.34,0-5.275,1.263-6.928,2.94l-3.194,3.145H56.67c-4.678,0-7.086,3.372-7.086,8.11
		v28.396c0,4.74,3.419,6.083,8.1,6.083h52.633c4.679,0,8.099-1.343,8.099-6.083v-28.396
		C118.415,11358.271,116.006,11354.898,111.329,11354.898L111.329,11354.898z M84,11391.404c-9.503,0-17.208-7.721-17.208-17.239
		c0-9.52,7.705-17.238,17.208-17.238c9.504,0,17.208,7.719,17.208,17.238C101.208,11383.684,93.504,11391.404,84,11391.404
		L84,11391.404z M109.306,11365.037c-1.677,0-3.037-1.361-3.037-3.041c0-1.678,1.36-3.043,3.037-3.043
		c1.675,0,3.036,1.365,3.036,3.043C112.342,11363.676,110.98,11365.037,109.306,11365.037L109.306,11365.037z"/>
	<path id="Fill-5" sketch:type="MSShapeGroup" fill="#FFFFFF" d="M84,11360.981c-7.268,0-13.158,5.903-13.158,13.184
		c0,7.279,5.891,13.183,13.158,13.183s13.158-5.903,13.158-13.183C97.158,11366.885,91.268,11360.981,84,11360.981"/>
</g>
<g>
	<path id="Fill-6" sketch:type="MSShapeGroup" fill="#F1D364" d="M167,7826.874c0,5.019-4.1,9.126-9.109,9.126H10.109
		c-5.011,0-9.109-4.107-9.109-9.126v-110.509h166V7826.874"/>
	<path id="Fill-7" sketch:type="MSShapeGroup" fill="#ECC01E" d="M10.131,7690h55.649c2.386,0.006,4.497,1.121,6.195,2.798
		l8.354,8.247c1.705,1.678,5.325,3.152,7.718,3.152h70.854c5.009,0,8.098,3.576,8.098,8.596v3.572H1v-17.24
		C1,7694.076,5.093,7689.988,10.131,7690"/>
	<path id="Fill-8" sketch:type="MSShapeGroup" fill="#FFFFFF" d="M56.486,7785.662c1.136-1.223,6.312-3.902,10.532-5.928
		c-0.299-0.127-0.557-0.233-0.723-0.29c0-0.378-0.193-1.671-0.662-1.901c-0.441-0.174-1.891-0.918-1.891-0.918
		c0-0.113-0.167-0.438-0.194-0.777c0-0.376,0.194-0.748,0.194-0.748c0.193-0.405,0.905-1.354,1.094-2.099
		c0.193-0.746,0.414-2.646,0.414-2.646c0-0.405,0.576-0.58,0.935-0.775c0.629-0.318,1.622-4.373,1.622-4.373
		c0-1.316-0.055-0.75-0.055-1.698v-3.534c0-4.342-4.286-7.105-8.463-7.105h-0.159c-4.175,0-8.461,2.764-8.461,7.105v3.534
		c0,0.948-0.052,0.382-0.052,1.698c0,0,0.754,4.055,1.386,4.373c0.357,0.195,1.052,0.37,1.052,0.775c0,0,0.275,1.899,0.47,2.646
		c0.188,0.745,0.93,1.693,1.125,2.099c0,0,0.206,0.372,0.206,0.748c-0.023,0.34-0.184,0.664-0.184,0.777
		c0,0-1.448,0.744-1.888,0.918c-0.466,0.23-0.659,1.523-0.659,1.901c-1.649,0.569-10.429,4.828-11.421,5.892
		c-0.712,0.779-1.238,4.297-1.238,4.297v1.12c0,1.034,1.842,2.591,2.831,2.591h12.432
		C54.727,7787.752,56.125,7786.055,56.486,7785.662"/>
	<path id="Fill-9" sketch:type="MSShapeGroup" fill="#FFFFFF" d="M111.515,7785.662c-1.138-1.223-6.314-3.902-10.533-5.928
		c0.301-0.127,0.558-0.233,0.724-0.29c0-0.378,0.192-1.671,0.661-1.901c0.442-0.174,1.893-0.918,1.893-0.918
		c0-0.113,0.166-0.438,0.193-0.777c0-0.376-0.193-0.748-0.193-0.748c-0.193-0.405-0.907-1.354-1.095-2.099
		c-0.193-0.746-0.413-2.646-0.413-2.646c0-0.405-0.578-0.58-0.936-0.775c-0.63-0.318-1.621-4.373-1.621-4.373
		c0-1.316,0.056-0.75,0.056-1.698v-3.534c0-4.342,4.282-7.105,8.462-7.105h0.158c4.175,0,8.46,2.764,8.46,7.105v3.534
		c0,0.948,0.054,0.382,0.054,1.698c0,0-0.755,4.055-1.385,4.373c-0.357,0.195-1.052,0.37-1.052,0.775c0,0-0.275,1.899-0.471,2.646
		c-0.189,0.745-0.931,1.693-1.125,2.099c0,0-0.207,0.372-0.207,0.748c0.024,0.34,0.187,0.664,0.187,0.777
		c0,0,1.446,0.744,1.884,0.918c0.468,0.23,0.661,1.523,0.661,1.901c1.649,0.569,10.431,4.828,11.421,5.892
		c0.714,0.779,1.24,4.297,1.24,4.297v1.12c0,1.034-1.844,2.591-2.831,2.591h-12.434
		C113.272,7787.752,111.876,7786.055,111.515,7785.662"/>
	<path id="Fill-10" sketch:type="MSShapeGroup" fill="#FFFFFF" d="M84,7744.758c-5.778,0-11.081,3.822-11.081,9.615v4.711
		c0,1.265-0.442,0.504-0.442,2.262c0,0,0.859,5.407,1.734,5.832c0.493,0.265,1.364,0.494,1.364,1.034c0,0,0.336,2.529,0.605,3.526
		c0.261,0.996,1.265,2.26,1.532,2.801c0,0,0.274,0.494,0.274,0.995c-0.034,0.456-0.259,0.884-0.259,1.034
		c0,0-2.008,0.994-2.617,1.227c-0.646,0.307-0.912,2.031-0.912,2.532c-2.28,0.766-14.434,6.441-15.804,7.858
		c-0.988,1.036-0.66,6.896-0.66,6.896v1.119c0,1.379,2.664,3.376,4.029,3.376h44.16c1.369,0,4.342-1.997,4.342-3.376v-1.119
		c0,0,0.329-5.86-0.659-6.896c-1.37-1.417-13.527-7.093-15.806-7.858c0-0.501-0.269-2.226-0.913-2.532
		c-0.608-0.232-2.619-1.227-2.619-1.227c0-0.15-0.229-0.578-0.266-1.034c0-0.501,0.266-0.995,0.266-0.995
		c0.271-0.541,1.255-1.805,1.517-2.801c0.269-0.997,0.573-3.526,0.573-3.526c0-0.54,0.796-0.77,1.292-1.034
		c0.871-0.425,1.873-5.832,1.873-5.832c0-1.758-0.444-0.997-0.444-2.262v-4.711C95.079,7748.58,89.778,7744.758,84,7744.758"/>
</g>
<g>
	<path id="Fill-11" sketch:type="MSShapeGroup" fill="#ECC01E" d="M10.132,7450H65.78c2.386,0.006,4.497,1.12,6.195,2.796
		l8.354,8.247c1.704,1.68,5.325,3.154,7.718,3.154h70.854c5.009,0,8.098,3.574,8.098,8.598v3.568H1v-17.237
		C1,7454.076,5.093,7449.988,10.132,7450"/>
	<path id="Fill-12" sketch:type="MSShapeGroup" fill="#F1D364" d="M167,7586.875c0,5.02-4.101,9.125-9.109,9.125H10.109
		c-5.011,0-9.109-4.105-9.109-9.125v-110.512h166V7586.875"/>
</g>
<path id="Fill-15" sketch:type="MSShapeGroup" fill="#ECC01E" d="M10.131,11050h55.649c2.386,0.006,4.497,1.12,6.195,2.796
	l8.354,8.246c1.705,1.681,5.325,3.152,7.718,3.152h70.854c5.009,0,8.098,3.577,8.098,8.6v3.571H1v-17.239
	C1,11054.074,5.093,11049.988,10.131,11050"/>
<path id="Fill-16" sketch:type="MSShapeGroup" fill="#F1D364" d="M167,11186.872c0,5.021-4.1,9.128-9.109,9.128H10.109
	c-5.011,0-9.109-4.107-9.109-9.128v-110.507h166V11186.872"/>
<path id="Fill-17" sketch:type="MSShapeGroup" fill="#FFFFFF" d="M162.816,11624.269h-14.158v-2.023h-16.184v4.047h30.342V11624.269
	L162.816,11624.269z M132.475,11646.522h32.363v-18.207h-32.363V11646.522z"/>
<g>
	<path id="Fill-13" sketch:type="MSShapeGroup" fill="#ECC01E" d="M10.131,10810h55.649c2.386,0.008,4.497,1.122,6.195,2.798
		l8.354,8.247c1.705,1.678,5.325,3.154,7.718,3.154h70.854c5.009,0,8.098,3.574,8.098,8.595v3.571H1v-17.237
		C1,10814.076,5.093,10809.988,10.131,10810"/>
	<path id="Fill-14" sketch:type="MSShapeGroup" fill="#F1D364" d="M167,10946.872c0,5.021-4.1,9.128-9.109,9.128H10.109
		c-5.011,0-9.109-4.107-9.109-9.128v-110.507h166V10946.872"/>
	<path id="Fill-18" sketch:type="MSShapeGroup" fill="#FFFFFF" d="M118.415,10896.28v31.44l-36.439-5.455v-25.985H118.415
		L118.415,10896.28z M49.587,10896.28l0.022,21.144l26.293,3.957v-25.101H49.587L49.587,10896.28z M81.976,10862.996l36.439-4.323
		v31.522H81.976V10862.996L81.976,10862.996z M75.902,10863.83l-26.293,3.184l-0.025,23.182h26.318V10863.83L75.902,10863.83z"/>
</g>
<path id="Fill-19" sketch:type="MSShapeGroup" fill="#FFFFFF" d="M87.171,11102.755c4.606-6.079,11.012-6.11,11.012-6.11
	s0.951,5.719-3.626,11.227c-4.888,5.882-10.438,4.922-10.438,4.922S83.075,11108.165,87.171,11102.755"/>
<path id="Fill-20" sketch:type="MSShapeGroup" fill="#FFFFFF" d="M84.727,11118.16c2.37,0,6.768-3.264,12.491-3.264
	c9.856,0,13.732,7.024,13.732,7.024s-7.585,3.881-7.585,13.308c0,10.63,9.447,14.291,9.447,14.291s-6.599,18.617-15.521,18.617
	c-4.095,0-7.279-2.766-11.599-2.766c-4.399,0-8.761,2.868-11.605,2.868c-8.141,0-18.43-17.658-18.43-31.854
	c0-13.968,8.708-21.298,16.875-21.298C77.847,11115.088,81.966,11118.16,84.727,11118.16"/>
<g>
	<g id="Group-23" transform="translate(10.224490, 0.000000)">
		<g id="Clip-22">
		</g>
		<defs>
			<filter id="Adobe_OpacityMaskFilter" filterUnits="userSpaceOnUse" x="1.776" y="0" width="146" height="166">
				<feColorMatrix  type="matrix" values="1 0 0 0 0  0 1 0 0 0  0 0 1 0 0  0 0 0 1 0"/>
			</filter>
		</defs>
		<mask maskUnits="userSpaceOnUse" x="1.776" y="0" width="146" height="166" id="mask-2">
			<g filter="url(#Adobe_OpacityMaskFilter)">
				<path id="path-1" fill="#FFFFFF" d="M102.725,0H15.971C8.13,0,1.776,6.344,1.776,14.171v137.657
					C1.776,159.658,8.13,166,15.971,166h117.61c7.842,0,14.195-6.342,14.195-14.171V44.978c0-3.758-1.496-7.364-4.158-10.018
					L112.762,4.15C110.101,1.496,106.488,0,102.725,0L102.725,0z"/>
			</g>
		</mask>
		<path id="Fill-21" sketch:type="MSShapeGroup" mask="url(#mask-2)" fill="#E7E7E7" d="M1.776,0h146v166h-146V0z"/>
	</g>
	<path id="Fill-24" sketch:type="MSShapeGroup" fill="#FFFFFF" d="M143.806,161.951H26.195c-5.041,0-10.139-5.091-10.139-10.123
		V14.171c0-5.012,5.119-10.12,10.139-10.12h85.166c3.39,0,6.084,2.689,6.084,6.073v24.292c0,3.382,2.695,6.071,6.083,6.071h24.333
		c3.39,0,6.085,2.692,6.085,6.074v105.267C153.946,156.86,148.85,161.951,143.806,161.951"/>
	<path id="Fill-25" sketch:type="MSShapeGroup" fill="#CCCBCB" d="M68.714,111.342h7.889l7.633-26.355l7.925,26.355h7.513
		l12.702-44.536H94.854v8.832h4.82L95.1,93.556l-6.377-26.75h-8.759l-6.589,26.75l-6.55-26.75h-9.199L68.714,111.342"/>
</g>
<g>
	<path id="Fill-26" sketch:type="MSShapeGroup" fill="#E7E7E7" d="M111.948,240H25.195C17.355,240,11,246.343,11,254.172v137.66
		C11,399.655,17.355,406,25.195,406h117.609c7.842,0,14.195-6.345,14.195-14.168V284.974c0-3.754-1.496-7.36-4.157-10.018
		l-30.857-30.806C119.324,241.495,115.712,240,111.948,240"/>
	<path id="Fill-27" sketch:type="MSShapeGroup" fill="#FFFFFF" d="M142.805,401.951H25.195c-5.041,0-10.14-5.089-10.14-10.122
		V254.171c0-5.013,5.119-10.124,10.14-10.124h85.165c3.39,0,6.084,2.692,6.084,6.074v24.292c0,3.383,2.695,6.073,6.083,6.073h24.334
		c3.39,0,6.083,2.69,6.083,6.074v105.268C152.944,396.862,147.848,401.951,142.805,401.951"/>
	<path id="Fill-28" sketch:type="MSShapeGroup" fill="#CCCBCB" d="M74.886,349.306c-0.91,0-1.824-0.355-2.516-1.065l-16.759-17.15
		l16.759-17.146c1.389-1.422,3.643-1.422,5.033,0c1.39,1.423,1.39,3.729,0,5.152l-11.722,11.994l11.722,11.998
		c1.39,1.422,1.39,3.729,0,5.152C76.709,348.951,75.797,349.306,74.886,349.306"/>
	<path id="Fill-29" sketch:type="MSShapeGroup" fill="#CCCBCB" d="M93.114,349.306c0.911,0,1.825-0.355,2.517-1.065l16.758-17.15
		l-16.758-17.146c-1.391-1.422-3.643-1.422-5.034,0c-1.389,1.423-1.389,3.729,0,5.152l11.723,11.994l-11.723,11.998
		c-1.389,1.422-1.389,3.729,0,5.152C91.292,348.951,92.204,349.306,93.114,349.306"/>
</g>
<g>
	<path id="Fill-30" sketch:type="MSShapeGroup" fill="#E7E7E7" d="M111.948,480H25.195C17.355,480,11,486.344,11,494.171v137.658
		C11,639.658,17.355,646,25.195,646h117.609c7.842,0,14.195-6.342,14.195-14.171V524.976c0-3.758-1.496-7.362-4.157-10.019
		l-30.857-30.807C119.324,481.494,115.712,480,111.948,480"/>
	<path id="Fill-31" sketch:type="MSShapeGroup" fill="#FFFFFF" d="M142.805,641.952H25.195c-5.041,0-10.14-5.089-10.14-10.122
		V494.171c0-5.013,5.119-10.122,10.14-10.122h85.165c3.39,0,6.084,2.691,6.084,6.073v24.292c0,3.383,2.695,6.073,6.083,6.073h24.334
		c3.39,0,6.083,2.691,6.083,6.073V631.83C152.944,636.862,147.848,641.952,142.805,641.952"/>
	<path id="Fill-32" sketch:type="MSShapeGroup" fill="#CCCBCB" d="M68.413,587.26c-0.892,0-1.784-0.355-2.465-1.066l-16.386-17.003
		l16.22-17.094c1.248-1.3,3.27-1.635,4.688-0.541c1.759,1.359,1.898,3.964,0.41,5.514l-11.605,12.12l11.375,11.616
		c1.506,1.569,1.604,4.266-0.055,5.658C69.959,586.994,69.186,587.26,68.413,587.26"/>
	<path id="Fill-33" sketch:type="MSShapeGroup" fill="#CCCBCB" d="M99.688,587.26c0.891,0,1.783-0.355,2.465-1.066l16.387-17.003
		l-16.22-17.094c-1.25-1.3-3.272-1.635-4.688-0.541c-1.763,1.359-1.899,3.964-0.413,5.514l11.608,12.12l-11.378,11.616
		c-1.506,1.569-1.604,4.266,0.057,5.658C98.143,586.994,98.914,587.26,99.688,587.26"/>
	<path id="Fill-34" sketch:type="MSShapeGroup" fill="#CCCBCB" d="M78.695,587.26c-0.401,0-0.809-0.074-1.208-0.232
		c-1.778-0.706-2.681-2.804-2.013-4.687l10.324-29.123c0.663-1.884,2.645-2.841,4.429-2.129c1.777,0.705,2.681,2.802,2.015,4.686
		l-10.323,29.121C81.399,586.36,80.088,587.26,78.695,587.26"/>
</g>
<g>
	<path id="Fill-35" sketch:type="MSShapeGroup" fill="#E7E7E7" d="M111.948,720H25.195C17.355,720,11,726.345,11,734.173v137.659
		C11,879.658,17.355,886,25.195,886h117.609c7.842,0,14.195-6.342,14.195-14.168V764.979c0-3.76-1.496-7.365-4.157-10.021
		l-30.857-30.807C119.324,721.495,115.712,720,111.948,720"/>
	<path id="Fill-36" sketch:type="MSShapeGroup" fill="#FFFFFF" d="M142.805,881.955H25.195c-5.041,0-10.14-5.09-10.14-10.124
		V734.173c0-5.012,5.119-10.123,10.14-10.123h85.165c3.39,0,6.084,2.69,6.084,6.075v24.291c0,3.383,2.695,6.073,6.083,6.073h24.334
		c3.39,0,6.083,2.691,6.083,6.072v105.27C152.944,876.864,147.848,881.955,142.805,881.955"/>
	<path id="Fill-37" sketch:type="MSShapeGroup" fill="#CCCBCB" d="M67.779,780.733v56.684l42.582-28.341L67.779,780.733"/>
</g>
<g>
	<path id="Fill-38" sketch:type="MSShapeGroup" fill="#E7E7E7" d="M111.948,960H25.195C17.355,960,11,966.341,11,974.168v137.661
		c0,7.826,6.355,14.171,14.196,14.171h117.609c7.842,0,14.195-6.345,14.195-14.171v-106.855c0-3.756-1.496-7.363-4.157-10.019
		l-30.857-30.809C119.324,961.493,115.712,960,111.948,960"/>
	<path id="Fill-39" sketch:type="MSShapeGroup" fill="#FFFFFF" d="M142.805,1121.95H25.195c-5.041,0-10.14-5.088-10.14-10.121
		V974.168c0-5.012,5.119-10.121,10.14-10.121h85.165c3.39,0,6.084,2.691,6.084,6.074v24.292c0,3.383,2.695,6.074,6.083,6.074h24.334
		c3.39,0,6.083,2.689,6.083,6.072v105.27C152.944,1116.861,147.848,1121.95,142.805,1121.95"/>
	<path id="Fill-40" sketch:type="MSShapeGroup" fill="#CCCBCB" d="M92.578,1077.413H51.09c-4.222,0-7.645-3.415-7.645-7.632v-37.372
		c0-4.214,3.423-7.631,7.645-7.631h41.488c4.222,0,7.644,3.417,7.644,7.631v37.372C100.222,1073.998,96.8,1077.413,92.578,1077.413"
		/>
	<path id="Fill-41" sketch:type="MSShapeGroup" fill="#CCCBCB" d="M104.277,1055.146l22.307,18.218v-44.536l-22.307,18.219V1055.146
		"/>
</g>
<g>
	<path id="Fill-42" sketch:type="MSShapeGroup" fill="#E7E7E7" d="M111.948,1200H25.195c-7.84,0-14.196,6.347-14.196,14.172v137.658
		c0,7.826,6.355,14.17,14.196,14.17h117.609c7.842,0,14.195-6.344,14.195-14.17v-106.852c0-3.756-1.496-7.364-4.157-10.02
		l-30.857-30.808C119.324,1201.496,115.712,1200,111.948,1200"/>
	<path id="Fill-43" sketch:type="MSShapeGroup" fill="#FFFFFF" d="M142.805,1361.952H25.195c-5.041,0-10.14-5.087-10.14-10.122
		v-137.658c0-5.011,5.119-10.121,10.14-10.121h85.165c3.39,0,6.084,2.691,6.084,6.072v24.294c0,3.382,2.695,6.073,6.083,6.073
		h24.334c3.39,0,6.083,2.691,6.083,6.072v105.268C152.944,1356.864,147.848,1361.952,142.805,1361.952"/>
	<path id="Fill-44" sketch:type="MSShapeGroup" fill="#CCCBCB" d="M51.669,1323.482h62.753c5.599,0,10.131-4.528,10.131-10.115
		v-38.472c0-5.584-4.532-10.113-10.131-10.113H51.669c-5.595,0-10.13,4.529-10.13,10.113v38.472
		C41.539,1318.954,46.074,1323.482,51.669,1323.482"/>
	<path id="Fill-45" sketch:type="MSShapeGroup" fill="#FFFFFF" d="M65.75,1308.306c0,2.795-2.27,5.061-5.07,5.061
		c-2.8,0-5.069-2.266-5.069-5.061c0-2.795,2.269-5.061,5.069-5.061C63.481,1303.245,65.75,1305.511,65.75,1308.306"/>
	<path id="Fill-46" sketch:type="MSShapeGroup" fill="#FFFFFF" d="M88.055,1308.306c0,2.795-2.269,5.061-5.069,5.061
		c-2.8,0-5.067-2.266-5.067-5.061c0-2.795,2.268-5.061,5.067-5.061C85.786,1303.245,88.055,1305.511,88.055,1308.306"/>
	<path id="Fill-47" sketch:type="MSShapeGroup" fill="#FFFFFF" d="M110.36,1308.306c0,2.795-2.27,5.061-5.069,5.061
		s-5.069-2.266-5.069-5.061c0-2.795,2.27-5.061,5.069-5.061S110.36,1305.511,110.36,1308.306"/>
</g>
<g>
	<path id="Fill-1" sketch:type="MSShapeGroup" fill="#FFFFFF" d="M50.462,1508.894l0.032,0.027L50.462,1508.894 M75.373,1499.713
		c-7.91,0-17.885,3.685-24.193,9.894l49.7,49.619c6.314-6.384,10.493-14.488,10.495-24.079
		c0.008-19.365-16.075-35.087-35.504-35.429l-0.449-0.005H75.373"/>
	<path id="Fill-48" sketch:type="MSShapeGroup" fill="#E7E7E7" d="M50.494,1508.921l-0.032-0.027L50.494,1508.921 M100.88,1559.225
		l-49.7-49.619c6.309-6.209,16.283-9.894,24.193-9.894h0.049l0.449,0.005c19.429,0.342,35.512,16.063,35.504,35.429
		C111.373,1544.737,107.194,1552.841,100.88,1559.225 M111.948,1440H25.195c-7.84,0-14.196,6.344-14.196,14.17v137.658
		c0,7.825,6.355,14.172,14.196,14.172h117.609c7.842,0,14.195-6.347,14.195-14.172v-106.854c0-3.756-1.496-7.363-4.157-10.019
		l-30.857-30.806C119.324,1441.493,115.712,1440,111.948,1440"/>
	<path id="Fill-49" sketch:type="MSShapeGroup" fill="#E7E7E7" d="M50.462,1508.894l0.032,0.027L50.462,1508.894 M75.422,1499.713
		h-0.049c-7.91,0-17.885,3.685-24.193,9.894l49.7,49.619c6.314-6.384,10.493-14.488,10.495-24.079
		c0.008-19.365-16.075-35.087-35.504-35.429L75.422,1499.713"/>
	<path id="Fill-50" sketch:type="MSShapeGroup" fill="#FFFFFF" d="M142.805,1601.95H25.195c-5.041,0-10.14-5.088-10.14-10.122
		V1454.17c0-5.011,5.119-10.122,10.14-10.122h85.165c3.39,0,6.084,2.69,6.084,6.073v24.293c0,3.381,2.695,6.072,6.083,6.072h24.334
		c3.39,0,6.083,2.691,6.083,6.073v105.269C152.944,1596.861,147.848,1601.95,142.805,1601.95"/>
	<path id="Fill-51" sketch:type="MSShapeGroup" fill="#E0E0E0" d="M77.973,1486.015l-1.068,1.067l16.153,16.128
		c5.354,3.229,9.858,7.714,13.063,13.042l14.869,14.844l1.069-1.069L77.973,1486.015"/>
	<path id="Fill-52" sketch:type="MSShapeGroup" fill="#DEDEDE" d="M98.852,1559.225l-0.004,0.004l0.719,0.711L98.852,1559.225
		 M102.614,1512.755c4.65,6.021,7.409,13.565,7.409,21.798c0,9.898-3.994,18.865-10.457,25.387l0.722,0.712
		c6.608-6.664,11.089-15.304,11.087-25.507c-0.004-6.899-1.925-13.352-5.254-18.894L102.614,1512.755 M48.466,1508.921l0.68,0.691
		l0.004-0.006L48.466,1508.921 M73.395,1497.691c-8.516,0.013-18.863,3.819-25.672,10.478l0.712,0.724
		c6.532-6.455,15.513-10.186,25.427-10.186c8.373,0,16.079,2.795,22.212,7.513l-3.016-3.01c-5.631-3.393-12.2-5.392-19.179-5.516
		L73.395,1497.691"/>
	<path id="Fill-53" sketch:type="MSShapeGroup" fill="#D3D3D3" d="M93.058,1503.21l3.016,3.01c2.451,1.888,4.652,4.084,6.541,6.536
		l3.507,3.496C102.916,1510.924,98.411,1506.438,93.058,1503.21"/>
	<path id="Fill-54" sketch:type="MSShapeGroup" fill="#FFFFFF" d="M46.486,1507.816h4.056v4.049h-4.056V1507.816z"/>
	<path id="Fill-55" sketch:type="MSShapeGroup" fill="#CCCBCB" d="M47.5,1508.829h2.027v2.023H47.5V1508.829z M45.473,1512.877
		h6.083v-6.074h-6.083V1512.877z"/>
	<path id="Fill-56" sketch:type="MSShapeGroup" fill="#FFFFFF" d="M97.182,1507.816h4.055v4.049h-4.055V1507.816z"/>
	<path id="Fill-57" sketch:type="MSShapeGroup" fill="#CCCBCB" d="M98.193,1508.829h2.028v2.023h-2.028V1508.829z M96.167,1512.877
		h6.083v-6.074h-6.083V1512.877z"/>
	<path id="Fill-58" sketch:type="MSShapeGroup" fill="#FFFFFF" d="M97.182,1558.426h4.055v4.05h-4.055V1558.426z"/>
	<path id="Fill-59" sketch:type="MSShapeGroup" fill="#CCCBCB" d="M98.193,1559.438h2.028v2.023h-2.028V1559.438z M96.167,1563.487
		h6.083v-6.072h-6.083V1563.487z"/>
	<path id="Fill-60" sketch:type="MSShapeGroup" fill="#BBBDBF" d="M79.944,1486.56c0,1.118-0.908,2.025-2.026,2.025
		c-1.119,0-2.029-0.907-2.029-2.025c0-1.117,0.91-2.023,2.029-2.023C79.036,1484.536,79.944,1485.443,79.944,1486.56"/>
	<path id="Fill-61" sketch:type="MSShapeGroup" fill="#BBBDBF" d="M124.554,1531.096c0,1.117-0.906,2.026-2.026,2.026
		c-1.118,0-2.026-0.909-2.026-2.026c0-1.116,0.908-2.023,2.026-2.023C123.647,1529.072,124.554,1529.98,124.554,1531.096"/>
</g>
<g>
	<path id="Fill-65" sketch:type="MSShapeGroup" fill="#E7E7E7" d="M111.948,1680H25.195c-7.84,0-14.196,6.344-14.196,14.171v137.657
		c0,7.827,6.355,14.172,14.196,14.172h117.609c7.842,0,14.195-6.345,14.195-14.172v-106.854c0-3.753-1.496-7.36-4.157-10.019
		l-30.857-30.805C119.324,1681.493,115.712,1680,111.948,1680"/>
	<path id="Fill-66" sketch:type="MSShapeGroup" fill="#FFFFFF" d="M142.805,1841.949H25.195c-5.041,0-10.14-5.088-10.14-10.121
		V1694.17c0-5.013,5.119-10.122,10.14-10.122h85.165c3.39,0,6.084,2.689,6.084,6.072v24.293c0,3.383,2.695,6.073,6.083,6.073h24.334
		c3.39,0,6.083,2.69,6.083,6.073v105.269C152.944,1836.861,147.848,1841.949,142.805,1841.949"/>
	<path id="Fill-67" sketch:type="MSShapeGroup" fill="#CCCBCB" d="M118.521,1788.387c-1.776-1.827-17.104-8.939-20.878-10.317
		c-0.202-0.074-0.341-0.244-0.36-0.459c-0.084-0.894-0.45-2.668-1.206-3.027c-0.816-0.306-3.515-1.628-3.515-1.628
		c0-0.198-0.31-0.767-0.36-1.376c0-0.662,0.36-1.322,0.36-1.322c0.356-0.714,1.684-2.393,2.036-3.715
		c0.358-1.325,0.764-4.688,0.764-4.688c0-0.716,1.073-1.018,1.736-1.37c1.173-0.559,2.141-7.743,2.141-7.743
		c0-2.34-0.968-1.328-0.968-3.004v-6.26c0-7.695-6.514-12.869-14.271-12.869s-13.982,5.174-13.982,12.869v6.26
		c0,1.676-0.973,0.664-0.973,3.004c0,0,0.973,7.185,2.145,7.741c0.663,0.351,1.732,0.656,1.732,1.372c0,0,0.409,3.363,0.768,4.688
		c0.354,1.322,1.677,3.001,2.037,3.715c0,0,0.359,0.661,0.359,1.322c-0.051,0.609-0.359,1.178-0.359,1.376
		c0,0-2.699,1.322-3.519,1.628c-0.751,0.359-1.12,2.133-1.202,3.027c-0.021,0.216-0.161,0.385-0.363,0.459
		c-3.768,1.377-19.098,8.49-20.877,10.317c-1.276,1.325-2.194,6.855-2.261,7.266l-0.004,0.072v2.018
		c0,3.157,2.591,5.743,5.753,5.743h61.495c3.16,0,5.753-2.585,5.753-5.743v-2.033l-0.004-0.046
		C120.468,1795.367,119.812,1789.726,118.521,1788.387"/>
</g>
<g>
	<path id="Fill-68" sketch:type="MSShapeGroup" fill="#E7E7E7" d="M111.948,1920H25.195c-7.84,0-14.196,6.344-14.196,14.168v137.66
		c0,7.829,6.355,14.171,14.196,14.171h117.609c7.842,0,14.195-6.343,14.195-14.171v-106.853c0-3.758-1.496-7.361-4.157-10.021
		l-30.857-30.805C119.324,1921.493,115.712,1920,111.948,1920"/>
	<path id="Fill-69" sketch:type="MSShapeGroup" fill="#FFFFFF" d="M142.805,2081.951H25.195c-5.041,0-10.14-5.088-10.14-10.122
		v-137.66c0-5.01,5.119-10.123,10.14-10.123h85.165c3.39,0,6.084,2.691,6.084,6.075v24.292c0,3.383,2.695,6.073,6.083,6.073h24.334
		c3.39,0,6.083,2.692,6.083,6.074v105.269C152.944,2076.863,147.848,2081.951,142.805,2081.951"/>
	<path id="Fill-70" sketch:type="MSShapeGroup" fill="#CCCBCB" d="M55.611,1994.902l18.25-24.293l18.251,24.293H55.611"/>
	<path id="Fill-71" sketch:type="MSShapeGroup" fill="#CCCBCB" d="M112.389,2023.245l-18.25,24.293l-18.25-24.293H112.389"/>
	<path id="Fill-72" sketch:type="MSShapeGroup" fill="#CCCBCB" d="M67.779,1990.853h12.166v24.293H67.779V1990.853z"/>
	<path id="Fill-73" sketch:type="MSShapeGroup" fill="#CCCBCB" d="M88.055,2003h12.167v24.292H88.055V2003z"/>
</g>
<g>
	<path id="Fill-74" sketch:type="MSShapeGroup" fill="#E7E7E7" d="M111.948,2160H25.195c-7.84,0-14.196,6.344-14.196,14.172v137.656
		c0,7.828,6.355,14.172,14.196,14.172h117.609c7.842,0,14.195-6.344,14.195-14.172v-106.851c0-3.757-1.496-7.363-4.157-10.021
		l-30.857-30.805C119.324,2161.497,115.712,2160,111.948,2160"/>
	<path id="Fill-75" sketch:type="MSShapeGroup" fill="#FFFFFF" d="M142.805,2321.951H25.195c-5.041,0-10.14-5.089-10.14-10.123
		v-137.657c0-5.012,5.119-10.121,10.14-10.121h85.165c3.39,0,6.084,2.69,6.084,6.073v24.292c0,3.382,2.695,6.073,6.083,6.073h24.334
		c3.39,0,6.083,2.69,6.083,6.071v105.269C152.944,2316.861,147.848,2321.951,142.805,2321.951"/>
	<path id="Fill-76" sketch:type="MSShapeGroup" fill="#CCCBCB" d="M50.72,2245.821l0.836,1.228h-8.111l1.004-1.228
		c0.772-0.163,1.415-0.461,1.929-0.9c0.516-0.438,1.603-1.615,3.257-3.532l12.059-14.584h2.029v18.221
		c0.233,0.26,0.411,0.721,1.32,0.795l0.708,1.228H55.611l1.184-1.228c1.006-0.086,1.657-0.231,1.987-0.315
		c1.898-0.48,2.912-2.504,2.912-2.504v-2.026H52.19l-3.675,4.05C48.515,2246.036,50.72,2245.821,50.72,2245.821L50.72,2245.821z
		 M61.694,2238.951v-9.933l-8.111,9.933H61.694L61.694,2238.951z"/>
	<path id="Fill-77" sketch:type="MSShapeGroup" fill="#CCCBCB" d="M67.779,2226.805h56.777v4.05H67.779V2226.805z"/>
	<path id="Fill-78" sketch:type="MSShapeGroup" fill="#CCCBCB" d="M67.779,2243.001h56.777v4.047H67.779V2243.001z"/>
	<path id="Fill-79" sketch:type="MSShapeGroup" fill="#CCCBCB" d="M67.779,2234.903h56.777v4.048H67.779V2234.903z"/>
	<path id="Fill-80" sketch:type="MSShapeGroup" fill="#CCCBCB" d="M43.566,2251.097h80.987v4.05H43.566V2251.097z"/>
	<path id="Fill-81" sketch:type="MSShapeGroup" fill="#CCCBCB" d="M43.566,2259.194h80.987v4.05H43.566V2259.194z"/>
	<path id="Fill-82" sketch:type="MSShapeGroup" fill="#CCCBCB" d="M43.566,2267.293h80.987v4.051H43.566V2267.293z"/>
	<path id="Fill-83" sketch:type="MSShapeGroup" fill="#CCCBCB" d="M43.566,2275.39h80.987v4.05H43.566V2275.39z"/>
	<path id="Fill-84" sketch:type="MSShapeGroup" fill="#CCCBCB" d="M43.566,2283.488h26.24v3.928h-26.24V2283.488z"/>
</g>
<g>
	<path id="Fill-85" sketch:type="MSShapeGroup" fill="#E7E7E7" d="M111.948,2400H25.195c-7.84,0-14.196,6.343-14.196,14.17v137.661
		c0,7.826,6.355,14.169,14.196,14.169h117.609c7.842,0,14.195-6.343,14.195-14.169v-106.856c0-3.755-1.496-7.362-4.157-10.018
		l-30.857-30.807C119.324,2401.492,115.712,2400,111.948,2400"/>
	<path id="Fill-86" sketch:type="MSShapeGroup" fill="#FFFFFF" d="M142.805,2561.952H25.195c-5.041,0-10.14-5.089-10.14-10.122
		v-137.66c0-5.012,5.119-10.123,10.14-10.123h85.165c3.39,0,6.084,2.691,6.084,6.074v24.292c0,3.383,2.695,6.074,6.083,6.074h24.334
		c3.39,0,6.083,2.69,6.083,6.072v105.27C152.944,2556.863,147.848,2561.952,142.805,2561.952"/>
	<path id="Fill-87" sketch:type="MSShapeGroup" fill="#CCCBCB" d="M108.334,2466.805v-10.122c-30.295,0-24.334,48.586-46.64,48.586
		v10.122c16.224,0,22.815-10.606,27.375-22.27h13.179V2483h-9.124C96.198,2476.343,101.988,2466.805,108.334,2466.805"/>
</g>
<g>
	<path id="Fill-88" sketch:type="MSShapeGroup" fill="#E7E7E7" d="M111.948,2640H25.195c-7.84,0-14.196,6.343-14.196,14.17v137.661
		c0,7.824,6.355,14.169,14.196,14.169h117.609c7.842,0,14.195-6.345,14.195-14.169v-106.855c0-3.757-1.496-7.362-4.157-10.022
		l-30.857-30.805C119.324,2641.495,115.712,2640,111.948,2640"/>
	<path id="Fill-89" sketch:type="MSShapeGroup" fill="#FFFFFF" d="M142.805,2801.951H25.195c-5.041,0-10.14-5.089-10.14-10.121
		v-137.66c0-5.011,5.119-10.123,10.14-10.123h85.165c3.39,0,6.084,2.691,6.084,6.074v24.292c0,3.383,2.695,6.073,6.083,6.073h24.334
		c3.39,0,6.083,2.691,6.083,6.074v105.269C152.944,2796.862,147.848,2801.951,142.805,2801.951"/>
	<path id="Fill-90" sketch:type="MSShapeGroup" fill="#CCCBCB" d="M41.417,2698.708H65.75v14.17H41.417V2698.708z"/>
	<path id="Fill-91" sketch:type="MSShapeGroup" fill="#CCCBCB" d="M71.833,2698.708h24.332v14.17H71.833V2698.708z"/>
	<path id="Fill-92" sketch:type="MSShapeGroup" fill="#CCCBCB" d="M102.248,2698.708h24.254v14.17h-24.254V2698.708z"/>
	<path id="Fill-93" sketch:type="MSShapeGroup" fill="#CCCBCB" d="M41.417,2718.951H65.75v14.171H41.417V2718.951z"/>
	<path id="Fill-94" sketch:type="MSShapeGroup" fill="#CCCBCB" d="M71.833,2718.951h24.332v14.171H71.833V2718.951z"/>
	<path id="Fill-95" sketch:type="MSShapeGroup" fill="#CCCBCB" d="M102.248,2718.951h24.254v14.171h-24.254V2718.951z"/>
	<path id="Fill-96" sketch:type="MSShapeGroup" fill="#CCCBCB" d="M41.417,2739.194H65.75v14.171H41.417V2739.194z"/>
	<path id="Fill-97" sketch:type="MSShapeGroup" fill="#CCCBCB" d="M71.833,2739.194h24.332v14.171H71.833V2739.194z"/>
	<path id="Fill-98" sketch:type="MSShapeGroup" fill="#CCCBCB" d="M102.248,2739.194h24.254v14.171h-24.254V2739.194z"/>
	<path id="Fill-99" sketch:type="MSShapeGroup" fill="#CCCBCB" d="M41.417,2759.439H65.75v14.051H41.417V2759.439z"/>
	<path id="Fill-100" sketch:type="MSShapeGroup" fill="#CCCBCB" d="M71.833,2759.439h24.332v14.051H71.833V2759.439z"/>
	<path id="Fill-101" sketch:type="MSShapeGroup" fill="#CCCBCB" d="M102.248,2759.439h24.254v14.051h-24.254V2759.439z"/>
</g>
<g>
	<path id="Fill-102" sketch:type="MSShapeGroup" fill="#E7E7E7" d="M111.948,2880H25.195c-7.84,0-14.196,6.346-14.196,14.172
		v137.658c0,7.827,6.355,14.17,14.196,14.17h117.609c7.842,0,14.195-6.343,14.195-14.17v-106.855c0-3.754-1.496-7.361-4.157-10.017
		l-30.857-30.808C119.324,2881.496,115.712,2880,111.948,2880"/>
	<path id="Fill-103" sketch:type="MSShapeGroup" fill="#FFFFFF" d="M142.805,3041.952H25.195c-5.041,0-10.14-5.09-10.14-10.122
		v-137.658c0-5.012,5.119-10.122,10.14-10.122h85.165c3.39,0,6.084,2.69,6.084,6.072v24.292c0,3.383,2.695,6.074,6.083,6.074h24.334
		c3.39,0,6.083,2.69,6.083,6.071v105.27C152.944,3036.862,147.848,3041.952,142.805,3041.952"/>
	<path id="Fill-104" sketch:type="MSShapeGroup" fill="#CCCBCB" d="M118.473,2973.123v-12.146h-13.028
		c-0.479-1.68-1.136-3.282-1.976-4.776l9.21-9.194l-8.604-8.585l-9.208,9.191c-1.496-0.834-3.104-1.486-4.784-1.964v-13.014H77.917
		v13.014c-1.681,0.478-3.29,1.129-4.783,1.964l-9.206-9.191l-8.605,8.585l9.207,9.194c-0.837,1.494-1.497,3.096-1.974,4.776H49.527
		v12.146h13.029c0.477,1.681,1.137,3.284,1.974,4.777l-9.207,9.191l8.605,8.587l9.206-9.19c1.494,0.834,3.102,1.483,4.783,1.965
		v13.011h12.166v-13.011c1.681-0.482,3.288-1.131,4.784-1.965l9.208,9.19l8.604-8.587l-9.21-9.191
		c0.84-1.493,1.497-3.096,1.976-4.777H118.473L118.473,2973.123z M84,2978.502c-6.334,0-11.471-5.129-11.471-11.452
		c0-6.325,5.137-11.453,11.471-11.453s11.47,5.127,11.47,11.453C95.47,2973.373,90.334,2978.502,84,2978.502L84,2978.502z"/>
</g>
<g>
	<path id="Fill-105" sketch:type="MSShapeGroup" fill="#E7E7E7" d="M25.195,3120c-7.84,0-14.196,6.344-14.196,14.171v137.658
		c0,7.825,6.355,14.171,14.196,14.171h117.609c7.842,0,14.195-6.346,14.195-14.171v-106.853c0-3.757-1.496-7.363-4.157-10.02
		l-30.857-30.807c-2.661-2.655-6.273-4.15-10.037-4.15H25.195z"/>
	<path id="Fill-106" sketch:type="MSShapeGroup" fill="#FFFFFF" d="M142.805,3281.951H25.195c-5.041,0-10.14-5.089-10.14-10.122
		v-137.658c0-5.01,5.119-10.122,10.14-10.122h85.165c3.39,0,6.084,2.691,6.084,6.073v24.292c0,3.382,2.695,6.073,6.083,6.073h24.334
		c3.39,0,6.083,2.691,6.083,6.073v105.268C152.944,3276.861,147.848,3281.951,142.805,3281.951"/>
	<path id="Fill-107" sketch:type="MSShapeGroup" fill="#CCCBCB" d="M124.47,3199.792c0-13.014-15.756-23.882-37.175-23.882
		c-21.417,0-39.823,11.079-39.823,24.098c0,13.016,17.11,23.279,38.527,23.279c0.58,0,1.457,0.018,2.028,0l-9.156,16.055
		l31.811-21.171C117.575,3213.93,124.47,3206.233,124.47,3199.792"/>
	<path id="Fill-108" sketch:type="MSShapeGroup" fill="#FFFFFF" d="M116.444,3200.073c0-9.295-13.601-16.261-29.429-16.261
		c-15.833,0-31.404,6.966-31.404,16.261c0,9.297,13.544,17.141,29.374,17.141c2.713,0,7.109-0.514,10.14-2.025l-5.069,10.123
		l15.208-12.146C110.333,3210.095,116.444,3204.876,116.444,3200.073"/>
	<path id="Fill-109" sketch:type="MSShapeGroup" fill="#CCCBCB" d="M82.163,3190.965h6.372l-1.144,3.999h0.074
		c1.771-1.547,3.342-2.64,4.713-3.281c1.38-0.639,2.106-0.667,3.992-0.667c1.022,0,2.354-0.114,2.982,0l-1.494,5.94
		c-1.396-0.381-2.338-0.74-3.39-0.74c-2.318,0-4.198,0.501-5.656,1.506c-1.445,1.016-1.679,1.934-2.201,3.843L84,3210.196h-6.082
		L82.163,3190.965"/>
</g>
<g>
	<path id="Fill-110" sketch:type="MSShapeGroup" fill="#E7E7E7" d="M111.948,3360H25.195c-7.84,0-14.196,6.344-14.196,14.168
		v137.661c0,7.825,6.355,14.171,14.196,14.171h117.609c7.842,0,14.195-6.346,14.195-14.171v-106.855
		c0-3.757-1.496-7.362-4.157-10.019l-30.857-30.806C119.324,3361.493,115.712,3360,111.948,3360"/>
	<path id="Fill-111" sketch:type="MSShapeGroup" fill="#FFFFFF" d="M142.805,3521.949H25.195c-5.041,0-10.14-5.088-10.14-10.12
		V3374.17c0-5.012,5.119-10.123,10.14-10.123h85.165c3.39,0,6.084,2.692,6.084,6.074v24.292c0,3.383,2.695,6.072,6.083,6.072h24.334
		c3.39,0,6.083,2.691,6.083,6.074v105.269C152.944,3516.861,147.848,3521.949,142.805,3521.949"/>
	<path id="Fill-112" sketch:type="MSShapeGroup" fill="#CCCBCB" d="M69.123,3445.161l17.104-28.367
		c-0.736-0.05-1.475-0.113-2.227-0.113c-10.021,0-18.973,4.543-24.926,11.667L69.123,3445.161"/>
	<path id="Fill-113" sketch:type="MSShapeGroup" fill="#CCCBCB" d="M72.787,3459.194L56.5,3431.943
		c-3.115,4.974-4.944,10.831-4.944,17.128c0,3.54,0.588,6.935,1.639,10.123H72.787"/>
	<path id="Fill-114" sketch:type="MSShapeGroup" fill="#CCCBCB" d="M96.251,3438.95l15.773,26.39
		c2.794-4.784,4.42-10.331,4.42-16.268c0-3.54-0.588-6.933-1.64-10.122H96.251"/>
	<path id="Fill-115" sketch:type="MSShapeGroup" fill="#CCCBCB" d="M80.042,3434.901h33.099
		c-4.335-8.869-12.582-15.483-22.522-17.541L80.042,3434.901"/>
	<path id="Fill-116" sketch:type="MSShapeGroup" fill="#CCCBCB" d="M89.49,3463.243H54.858c4.539,9.28,13.366,16.052,23.922,17.762
		L89.49,3463.243"/>
	<path id="Fill-117" sketch:type="MSShapeGroup" fill="#CCCBCB" d="M100.161,3453.394l-16.898,28.034
		c0.245,0.003,0.488,0.036,0.737,0.036c10.365,0,19.572-4.873,25.513-12.424L100.161,3453.394"/>
</g>
<g>
	<path id="Fill-118" sketch:type="MSShapeGroup" fill="#E7E7E7" d="M111.948,3600H25.195c-7.84,0-14.196,6.344-14.196,14.169
		v137.659c0,7.829,6.355,14.172,14.196,14.172h117.609c7.842,0,14.195-6.344,14.195-14.172v-106.854c0-3.756-1.496-7.36-4.157-10.02
		l-30.857-30.807C119.324,3601.493,115.712,3600,111.948,3600"/>
	<path id="Fill-119" sketch:type="MSShapeGroup" fill="#FFFFFF" d="M142.805,3761.95H25.195c-5.041,0-10.14-5.089-10.14-10.123
		v-137.659c0-5.011,5.119-10.123,10.14-10.123h85.165c3.39,0,6.084,2.692,6.084,6.074v24.293c0,3.381,2.695,6.072,6.083,6.072
		h24.334c3.39,0,6.083,2.692,6.083,6.073v105.269C152.944,3756.861,147.848,3761.95,142.805,3761.95"/>
	<path id="Fill-120" sketch:type="MSShapeGroup" fill="#CCCBCB" d="M55.611,3663.767c3.301-0.59,7.659-1.012,14.195-1.012
		c6.61,0,10.925,1.15,14.083,3.793c3.025,2.5,5.066,6.614,5.066,11.457s-1.555,8.958-4.362,11.75c-3.652,3.6-8.464,5.39-14.788,5.39
		H65.75v18.22H55.611V3663.767L55.611,3663.767z M65.75,3686.037c0.915,0.22,1.838,0.339,3.381,0.339
		c5.692,0,9.207-3.013,9.207-8.078c0-4.551-3.021-7.266-8.36-7.266c-2.181,0-3.456,0.611-4.228,0.833V3686.037L65.75,3686.037z"/>
	<path id="Fill-121" sketch:type="MSShapeGroup" fill="#CCCBCB" d="M111.375,3689.074c-2.373-1.126-5.477-0.846-7.098,0v24.292
		h-8.11V3683c3.741-2.043,8.11-3.037,17.236-2.026L111.375,3689.074"/>
</g>
<path id="Fill-122" sketch:type="MSShapeGroup" fill="#E7E7E7" d="M111.948,3840H25.195c-7.84,0-14.196,6.344-14.196,14.169v137.659
	c0,7.828,6.355,14.172,14.196,14.172h117.609c7.842,0,14.195-6.344,14.195-14.172v-106.854c0-3.757-1.496-7.361-4.157-10.019
	l-30.857-30.806C119.324,3841.493,115.712,3840,111.948,3840"/>
<path id="Fill-123" sketch:type="MSShapeGroup" fill="#FFFFFF" d="M142.805,4001.95H25.195c-5.041,0-10.14-5.088-10.14-10.122
	v-137.659c0-5.011,5.119-10.121,10.14-10.121h85.165c3.39,0,6.084,2.69,6.084,6.074v24.293c0,3.382,2.695,6.072,6.083,6.072h24.334
	c3.39,0,6.083,2.69,6.083,6.074v105.268C152.944,3996.862,147.848,4001.95,142.805,4001.95"/>
<path id="Fill-124" sketch:type="MSShapeGroup" fill="#CCCBCB" d="M102.248,3918.95c0-9.636-9.302-16.195-20.751-16.195H65.75v8.099
	h6.083v40.487h8.111v-16.195h2.029C94.855,3935.146,102.248,3929.319,102.248,3918.95L102.248,3918.95z M79.944,3927.048v-16.194
	c11.449,0,14.194,2.382,14.194,8.097C94.139,3924.667,91.394,3927.048,79.944,3927.048L79.944,3927.048z"/>
<path id="Fill-125" sketch:type="MSShapeGroup" fill="#E7E7E7" d="M25.195,4241.952c-5.041,0-10.14-5.09-10.14-10.123v-137.657
	c0-5.013,5.119-10.125,10.14-10.125h85.165c3.39,0,6.086,2.693,6.086,6.074v24.292c0,3.384,2.693,6.074,6.079,6.074h24.336
	c3.39,0,6.083,2.691,6.083,6.073v105.269c0,5.032-5.097,10.123-10.14,10.123H25.195 M111.948,4080H25.195
	c-7.84,0-14.196,6.342-14.196,14.172v137.657c0,7.827,6.355,14.171,14.196,14.171h117.609c7.842,0,14.195-6.344,14.195-14.171
	v-106.854c0-3.754-1.496-7.362-4.157-10.021l-30.857-30.806C119.324,4081.492,115.712,4080,111.948,4080"/>
<path id="Fill-126" sketch:type="MSShapeGroup" fill="#FFFFFF" d="M142.805,4241.952H25.195c-5.041,0-10.14-5.09-10.14-10.123
	v-137.657c0-5.013,5.119-10.125,10.14-10.125h85.165c3.39,0,6.086,2.693,6.086,6.074v24.292c0,3.384,2.693,6.074,6.079,6.074h24.336
	c3.39,0,6.083,2.691,6.083,6.073v105.269C152.944,4236.861,147.848,4241.952,142.805,4241.952"/>
<g id="Group-129" transform="translate(52.258503, 4157.694927)">
	<g id="Clip-128">
	</g>
	<defs>
		<filter id="Adobe_OpacityMaskFilter_1_" filterUnits="userSpaceOnUse" x="1.324" y="-25.915" width="60.749" height="60.649">
			<feColorMatrix  type="matrix" values="1 0 0 0 0  0 1 0 0 0  0 0 1 0 0  0 0 0 1 0"/>
		</filter>
	</defs>
	<mask maskUnits="userSpaceOnUse" x="1.324" y="-25.915" width="60.749" height="60.649" id="mask-6">
		<g filter="url(#Adobe_OpacityMaskFilter_1_)">
			<path id="path-5" fill="#FFFFFF" d="M5.771,4.408L5.771,4.408c0-14.296,11.608-25.886,25.928-25.886
				c14.32,0,25.93,11.589,25.93,25.886s-11.609,25.888-25.93,25.888C17.379,30.295,5.771,18.704,5.771,4.408 M31.699-25.915
				L31.699-25.915c-16.775,0-30.375,13.578-30.375,30.322c0,16.747,13.6,30.327,30.375,30.327c16.776,0,30.374-13.58,30.374-30.327
				C62.073-12.336,48.475-25.915,31.699-25.915"/>
		</g>
	</mask>
	<path id="Fill-127" sketch:type="MSShapeGroup" mask="url(#mask-6)" fill="none" d="M5.771,4.408L5.771,4.408
		c0-14.296,11.608-25.886,25.928-25.886c14.32,0,25.93,11.589,25.93,25.886s-11.609,25.888-25.93,25.888
		C17.379,30.295,5.771,18.704,5.771,4.408 M31.699-25.915L31.699-25.915c-16.775,0-30.375,13.578-30.375,30.322
		c0,16.747,13.6,30.327,30.375,30.327c16.776,0,30.374-13.58,30.374-30.327C62.073-12.336,48.475-25.915,31.699-25.915"/>
</g>
<g id="Group-132" transform="translate(61.346939, 4166.785268)">
	<g id="Clip-131">
	</g>
	<defs>
		<filter id="Adobe_OpacityMaskFilter_2_" filterUnits="userSpaceOnUse" x="1.2" y="-26.057" width="42.822" height="42.752">
			<feColorMatrix  type="matrix" values="1 0 0 0 0  0 1 0 0 0  0 0 1 0 0  0 0 0 1 0"/>
		</filter>
	</defs>
	<mask maskUnits="userSpaceOnUse" x="1.2" y="-26.057" width="42.822" height="42.752" id="mask-8">
		<g filter="url(#Adobe_OpacityMaskFilter_2_)">
			<path id="path-7" fill="#FFFFFF" d="M5.63-4.683L5.63-4.683c0-9.363,7.602-16.952,16.98-16.952
				c9.379,0,16.979,7.589,16.979,16.952S31.989,12.271,22.61,12.271C13.232,12.271,5.63,4.681,5.63-4.683 M22.61-26.057
				L22.61-26.057c-11.823,0-21.41,9.57-21.41,21.374c0,11.808,9.587,21.378,21.41,21.378c11.826,0,21.412-9.57,21.412-21.378
				C44.022-16.487,34.436-26.057,22.61-26.057"/>
		</g>
	</mask>
	<path id="Fill-130" sketch:type="MSShapeGroup" mask="url(#mask-8)" fill="none" d="M5.63-4.683L5.63-4.683
		c0-9.363,7.602-16.952,16.98-16.952c9.379,0,16.979,7.589,16.979,16.952S31.989,12.271,22.61,12.271
		C13.232,12.271,5.63,4.681,5.63-4.683 M22.61-26.057L22.61-26.057c-11.823,0-21.41,9.57-21.41,21.374
		c0,11.808,9.587,21.378,21.41,21.378c11.826,0,21.412-9.57,21.412-21.378C44.022-16.487,34.436-26.057,22.61-26.057"/>
</g>
<path id="Fill-133" sketch:type="MSShapeGroup" fill="#CCCBCB" d="M92.067,4158.95c0,4.472-3.631,8.098-8.109,8.098
	c-4.48,0-8.111-3.626-8.111-8.098c0-4.471,3.63-8.097,8.111-8.097C88.437,4150.853,92.067,4154.479,92.067,4158.95"/>
<path id="Fill-134" sketch:type="MSShapeGroup" fill="#CCCBCB" d="M88.265,4203.488H79.65c-1.015,0-1.868-0.753-1.993-1.758
	l-3.274-26.131c-0.298-2.39,1.568-4.502,3.981-4.502h11.189c2.412,0,4.282,2.112,3.979,4.502l-3.27,26.131
	C90.135,4202.734,89.28,4203.488,88.265,4203.488"/>
<g>
	<path id="Fill-135" sketch:type="MSShapeGroup" fill="#E7E7E7" d="M111.948,4320H25.195c-7.84,0-14.196,6.342-14.196,14.17v137.661
		c0,7.825,6.355,14.168,14.196,14.168h117.609c7.842,0,14.195-6.344,14.195-14.168v-106.857c0-3.755-1.496-7.36-4.157-10.019
		l-30.857-30.807C119.324,4321.495,115.712,4320,111.948,4320"/>
	<path id="Fill-136" sketch:type="MSShapeGroup" fill="#FFFFFF" d="M142.805,4481.953H25.195c-5.041,0-10.14-5.089-10.14-10.122
		v-137.661c0-5.011,5.119-10.122,10.14-10.122h85.165c3.39,0,6.084,2.69,6.084,6.074v24.293c0,3.381,2.695,6.072,6.083,6.072h24.334
		c3.39,0,6.083,2.69,6.083,6.072v105.271C152.944,4476.863,147.848,4481.953,142.805,4481.953"/>
	<path id="Fill-137" sketch:type="MSShapeGroup" fill="#CCCBCB" d="M93.312,4400.975H60.491c-1.575,0-2.852-1.275-2.852-2.849v-2.4
		c0-1.573,1.276-2.849,2.852-2.849h32.821c1.578,0,2.854,1.276,2.854,2.849v2.4C96.167,4399.7,94.891,4400.975,93.312,4400.975"/>
	<path id="Fill-138" sketch:type="MSShapeGroup" fill="#CCCBCB" d="M93.312,4415.146H60.491c-1.575,0-2.852-1.274-2.852-2.848v-2.4
		c0-1.573,1.276-2.85,2.852-2.85h32.821c1.578,0,2.854,1.276,2.854,2.85v2.4C96.167,4413.871,94.891,4415.146,93.312,4415.146"/>
	<path id="Fill-139" sketch:type="MSShapeGroup" fill="#CCCBCB" d="M81.146,4429.317H60.491c-1.575,0-2.852-1.274-2.852-2.85v-2.399
		c0-1.573,1.276-2.849,2.852-2.849h20.655c1.578,0,2.854,1.275,2.854,2.849v2.399C84,4428.042,82.724,4429.317,81.146,4429.317"/>
	<path id="Fill-140" sketch:type="MSShapeGroup" fill="#CCCBCB" d="M104.277,4425.267c0,2.238-3.176,4.05-7.096,4.05
		c-3.922,0-7.099-1.812-7.099-4.05s3.177-4.047,7.099-4.047C101.102,4421.22,104.277,4423.029,104.277,4425.267"/>
	<path id="Fill-141" sketch:type="MSShapeGroup" fill="#CCCBCB" d="M104.277,4425.267v-20.243c0-1.667,2.028-4.049,4.988-1.048
		c1.829,1.856,2.571,4.315,1.586,6.829c-0.384,0.782,0.294,1.077,0.699,0.686c0.836-1.056,0.838-3.942,0.838-5.455
		c0-3.205-1.874-4.788-4.055-7.084c-2.097-2.208-6.086-6.074-6.086-6.074v30.367L104.277,4425.267"/>
</g>
<g>
	<path id="Fill-142" sketch:type="MSShapeGroup" fill="#E7E7E7" d="M111.948,4560H25.195c-7.84,0-14.196,6.343-14.196,14.17v137.66
		c0,7.827,6.355,14.17,14.196,14.17h117.609c7.842,0,14.195-6.343,14.195-14.17v-106.854c0-3.757-1.496-7.362-4.157-10.019
		l-30.857-30.808C119.324,4561.495,115.712,4560,111.948,4560"/>
	<path id="Fill-143" sketch:type="MSShapeGroup" fill="#FFFFFF" d="M142.805,4721.953H25.195c-5.041,0-10.14-5.088-10.14-10.123
		v-137.66c0-5.011,5.119-10.122,10.14-10.122h85.165c3.39,0,6.084,2.69,6.084,6.073v24.292c0,3.383,2.695,6.073,6.083,6.073h24.334
		c3.39,0,6.083,2.69,6.083,6.073v105.269C152.944,4716.864,147.848,4721.953,142.805,4721.953"/>
	<path id="Fill-144" sketch:type="MSShapeGroup" fill="#CCCBCB" d="M53.583,4621.743c3.301-0.59,7.659-1.01,14.196-1.01
		c6.61,0,10.925,1.151,14.083,3.793c3.026,2.501,5.064,6.613,5.064,11.457c0,4.843-1.548,8.957-4.36,11.749
		c-3.651,3.599-8.464,5.391-14.788,5.391h-4.056v18.221h-10.14V4621.743L53.583,4621.743z M63.723,4644.012
		c0.915,0.222,1.839,0.339,3.382,0.339c5.692,0,9.207-3.012,9.207-8.076c0-4.552-3.021-7.266-8.361-7.266
		c-2.181,0-3.455,0.612-4.228,0.833V4644.012L63.723,4644.012z"/>
	<path id="Fill-145" sketch:type="MSShapeGroup" fill="#CCCBCB" d="M90.312,4661.305c1.968,1.196,6.044,2.6,9.209,2.6
		c3.232,0,4.565-1.128,4.565-2.874c0-1.76-1.054-2.6-5.06-3.931c-7.102-2.388-9.843-6.25-9.769-10.318
		c0-6.382,5.484-11.22,13.986-11.22c4.008,0,7.587,0.909,9.694,1.958l-1.894,7.371c-1.543-0.838-4.496-1.966-7.452-1.966
		c-2.597,0-4.072,1.052-4.072,2.806c0,1.611,1.331,2.458,5.549,3.931c6.539,2.246,9.276,5.542,9.347,10.59
		c0,6.388-5.059,11.092-14.896,11.092c-4.5,0-8.504-0.984-11.11-2.391L90.312,4661.305"/>
</g>
<g>
	<path id="Fill-146" sketch:type="MSShapeGroup" fill="#E7E7E7" d="M111.948,4800H25.195c-7.84,0-14.196,6.345-14.196,14.172
		v137.659c0,7.824,6.355,14.169,14.196,14.169h117.609c7.842,0,14.195-6.345,14.195-14.169v-106.853
		c0-3.758-1.496-7.364-4.157-10.021l-30.857-30.808C119.324,4801.496,115.712,4800,111.948,4800"/>
	<path id="Fill-147" sketch:type="MSShapeGroup" fill="#FFFFFF" d="M142.805,4961.951H25.195c-5.041,0-10.14-5.087-10.14-10.122
		v-137.657c0-5.011,5.119-10.122,10.14-10.122h85.165c3.39,0,6.084,2.691,6.084,6.072v24.292c0,3.383,2.695,6.074,6.083,6.074
		h24.334c3.39,0,6.083,2.689,6.083,6.072v105.268C152.944,4956.863,147.848,4961.951,142.805,4961.951"/>
	<path id="Fill-148" sketch:type="MSShapeGroup" fill="#CCCBCB" d="M69.944,4893.362c2.108-4.047,4.502-8.611,6.423-13.186
		l0.757-1.812c-2.507-9.332-4.007-16.83-2.664-21.676c0.357-1.265,1.854-2.03,3.451-2.03l0.972,0.014h0.18
		c2.189-0.03,3.217,2.691,3.337,3.751c0.19,1.765-0.642,4.751-0.642,4.751c0-1.209,0.048-3.156-0.729-4.837
		c-0.903-1.947-1.769-3.108-2.544-3.291c-0.391,0.256-0.769,0.787-0.9,1.804c-0.271,1.43-0.35,3.232-0.35,4.162
		c0,3.284,0.659,7.621,1.957,12.09c0.247-0.69,0.462-1.356,0.632-1.978c0.268-0.983,1.958-7.491,1.958-7.491
		s-0.427,8.664-1.021,11.285c-0.128,0.553-0.269,1.101-0.415,1.661c2.138,5.859,5.589,11.081,9.703,14.847
		c1.622,1.483,3.67,2.681,5.608,3.771c4.234-0.591,8.133-0.871,11.386-0.837c4.317,0.057,7.485,0.679,8.766,1.919
		c0.629,0.602,0.883,1.329,0.961,2.14c0.021,0.318-0.139,1.062-0.186,1.25c0.047-0.229,0.047-1.338-3.415-2.423
		c-2.728-0.851-7.836-0.826-13.96-0.188c7.086,3.395,13.989,5.083,16.175,4.07c0.536-0.253,1.185-1.127,1.185-1.127
		s-0.384,1.721-0.662,2.148c-0.353,0.466-1.045,0.97-1.701,1.14c-3.458,0.905-12.451-1.184-20.297-5.574
		c-8.758,1.263-18.377,3.598-26.087,6.075c-7.581,13.007-13.279,18.979-17.914,16.708l-1.704-0.842
		c-0.691-0.385-0.798-1.33-0.636-2.099c0.538-2.59,3.856-6.49,10.514-10.386c0.715-0.422,3.91-2.076,3.91-2.076
		c-0.001,0-2.364,2.238-2.92,2.682c-5.313,4.264-9.236,9.633-9.138,11.712l0.021,0.18
		C54.467,4919.042,61.238,4910.041,69.944,4893.362 M72.701,4894.746c-1.456,2.678-2.873,5.166-4.189,7.45
		c7.259-2.977,15.07-4.882,22.505-6.236c-0.997-0.676-1.968-1.394-2.878-2.151c-4.096-3.396-7.222-7.629-9.482-12.085
		C77.223,4885.508,75.517,4889.533,72.701,4894.746"/>
</g>
<g>
	<path id="Fill-149" sketch:type="MSShapeGroup" fill="#E7E7E7" d="M111.948,5040H25.195c-7.84,0-14.196,6.342-14.196,14.171
		v137.658c0,7.825,6.355,14.171,14.196,14.171h117.609c7.842,0,14.195-6.346,14.195-14.171v-106.854
		c0-3.755-1.496-7.363-4.157-10.019l-30.857-30.808C119.324,5041.495,115.712,5040,111.948,5040"/>
	<path id="Fill-150" sketch:type="MSShapeGroup" fill="#FFFFFF" d="M142.805,5201.951H25.195c-5.041,0-10.14-5.089-10.14-10.122
		v-137.658c0-5.013,5.119-10.124,10.14-10.124h85.165c3.39,0,6.084,2.691,6.084,6.074v24.291c0,3.383,2.695,6.074,6.083,6.074
		h24.334c3.39,0,6.083,2.691,6.083,6.073v105.269C152.944,5196.861,147.848,5201.951,142.805,5201.951"/>
	<path id="Fill-151" sketch:type="MSShapeGroup" fill="#DBDADA" d="M108.334,5104.78h-6.086v6.074h-6.081v12.146h-6.084v-6.074H84
		v-6.071h-6.083v12.146h-6.084v-12.146H65.75v-6.074h-6.084v12.145h-6.084v6.074H47.5v6.073H15.056v6.074H47.5v6.072h6.083v6.072
		h6.084v12.147h6.084v-6.074h6.083v-12.146h6.084v12.146H84v-6.073h6.083v-6.072h6.084v12.146h6.081v6.074h6.086v-12.147h6.083
		v-6.072h6.084v-6.072h32.443v-6.074h-32.443v-6.073h-6.084v-6.074h-6.083V5104.78"/>
	<path id="Fill-152" sketch:type="MSShapeGroup" fill="#CCCBCB" d="M120.501,5129.072h-6.084v-6.073h-6.083v-12.146h-6.086v6.071
		h-6.081v12.147h-6.084v-6.073H84v-6.074h-6.083v12.147h-6.084v-12.147H65.75v-6.071h-6.084v12.146h-6.084v6.073H31.278v6.074
		h22.305v6.072h6.084v12.146h6.084v-6.073h6.083v-12.145h6.084v12.145H84v-6.072h6.083v-6.072h6.084v12.145h6.081v6.073h6.086
		v-12.146h6.083v-6.072h22.304v-6.074H120.501"/>
</g>
<g>
	<path id="Fill-153" sketch:type="MSShapeGroup" fill="#E7E7E7" d="M111.948,5280H25.195c-7.84,0-14.196,6.345-14.196,14.17v137.658
		c0,7.829,6.355,14.172,14.196,14.172h117.609c7.842,0,14.195-6.343,14.195-14.172v-106.852c0-3.756-1.496-7.364-4.157-10.02
		l-30.857-30.806C119.324,5281.495,115.712,5280,111.948,5280"/>
	<path id="Fill-154" sketch:type="MSShapeGroup" fill="#FFFFFF" d="M142.805,5441.95H25.195c-5.041,0-10.14-5.087-10.14-10.122
		v-137.656c0-5.013,5.119-10.122,10.14-10.122h85.165c3.39,0,6.084,2.691,6.084,6.072v24.293c0,3.381,2.695,6.073,6.083,6.073
		h24.334c3.39,0,6.083,2.689,6.083,6.072v105.267C152.944,5436.862,147.848,5441.95,142.805,5441.95"/>
	<path id="Fill-155" sketch:type="MSShapeGroup" fill="#CCCBCB" d="M76.095,5395.042h12.238c0.182,0,1.379-1.419,1.533-1.528
		c5.899-4.17,10.708-13.417,10.708-21.386c-0.002-1.288-1.937-3.055-3.059-3.055H65.88c-1.123,0-2.025,1.767-2.027,3.055
		c0,7.969,4.811,17.216,10.71,21.386C74.717,5393.623,75.912,5395.042,76.095,5395.042"/>
	<path id="Fill-156" sketch:type="MSShapeGroup" fill="#CCCBCB" d="M78.671,5362.209c0,0-5.266-3.157-5.266-8.414
		c0-5.26,7.373-6.311,7.373-11.568c0-5.259-5.266-6.31-5.266-6.31s9.479-1.05,9.479,6.31
		C84.991,5349.589,70.246,5350.64,78.671,5362.209"/>
	<path id="Fill-157" sketch:type="MSShapeGroup" fill="#CCCBCB" d="M88.535,5367.414c0,0-6.702-4.035-6.702-10.764
		c0-6.727,9.382-8.072,9.382-14.801c0-6.728-6.702-8.072-6.702-8.072s12.065-1.345,12.065,8.072
		C96.578,5351.268,77.808,5352.615,88.535,5367.414"/>
	<path id="Fill-158" sketch:type="MSShapeGroup" fill="#CCCBCB" d="M105.051,5372.12c3.918,0,5.787,4.85,2.851,7.435
		c-2.119,1.866-5.644,4.028-10.051,4.028c-11.879,0,0.458-11.463,0.458-11.463H105.051 M105.051,5369.072h-7.94l-0.879,0.815
		c-2.412,2.236-7.822,7.94-5.999,12.571c1.012,2.571,3.375,4.181,7.618,4.181c4.362,0,8.732-1.86,12.069-4.802
		c2.291-2.014,3.072-5.167,1.991-8.026C110.816,5370.933,108.128,5369.072,105.051,5369.072"/>
	<path id="Fill-159" sketch:type="MSShapeGroup" fill="#CCCBCB" d="M104.408,5397.414H59.797c-2.16,0-2.286,2.025,0,2.025h10.138
		c2.714,0,5.637,1.37,6.084,2.024h12.168c0.446-0.655,3.369-2.024,6.083-2.024h10.139
		C106.695,5399.439,106.646,5397.414,104.408,5397.414"/>
</g>
<g>
	<path id="Fill-160" sketch:type="MSShapeGroup" fill="#E7E7E7" d="M111.879,5520H25.341c-7.821,0-14.16,6.345-14.16,14.169v137.66
		c0,7.828,6.339,14.17,14.16,14.17h117.317c7.822,0,14.16-6.343,14.16-14.17v-106.854c0-3.757-1.492-7.365-4.146-10.021
		l-30.781-30.805C119.236,5521.494,115.633,5520,111.879,5520"/>
	<path id="Fill-161" sketch:type="MSShapeGroup" fill="#FFFFFF" d="M142.658,5681.952H25.341c-5.028,0-10.114-5.088-10.114-10.122
		V5534.17c0-5.011,5.106-10.123,10.114-10.123h84.954c3.381,0,6.068,2.692,6.068,6.075v24.291c0,3.385,2.689,6.074,6.068,6.074
		h24.273c3.381,0,6.068,2.69,6.068,6.073v105.269C152.773,5676.863,147.689,5681.952,142.658,5681.952"/>
	<path id="Fill-162" sketch:type="MSShapeGroup" fill="#CCCBCB" d="M61.871,5586.806h9.993v44.537h-9.993V5586.806z"/>
	<path id="Fill-163" sketch:type="MSShapeGroup" fill="#CCCBCB" d="M94.41,5631.343c-10.211,0-16.478-6.055-16.478-17.343
		c0-10.848,6.018-17.462,14.724-17.462c2.006,0,4.492,0.255,5.502,1.267v-17.073h8.092v48.453
		C103.18,5630.818,100.236,5631.343,94.41,5631.343L94.41,5631.343z M98.158,5602.867c-1.01-1.012-2.244-0.87-3.246-0.87
		c-5.391,0-7.453,4.638-7.453,11.599c0,7.337,2.188,11.537,7.143,11.537c1.312,0,2.547,0.002,3.557-1.011V5602.867L98.158,5602.867z
		"/>
</g>
<g>
	<path id="Fill-164" sketch:type="MSShapeGroup" fill="#E7E7E7" d="M111.948,5760H25.195c-7.84,0-14.196,6.344-14.196,14.172
		v137.657c0,7.827,6.355,14.171,14.196,14.171h117.609c7.842,0,14.195-6.344,14.195-14.171v-106.855
		c0-3.755-1.496-7.358-4.157-10.019l-30.857-30.805C119.324,5761.493,115.712,5760,111.948,5760"/>
	<path id="Fill-165" sketch:type="MSShapeGroup" fill="#FFFFFF" d="M142.805,5921.951H25.195c-5.041,0-10.14-5.088-10.14-10.122
		v-137.657c0-5.013,5.119-10.124,10.14-10.124h85.165c3.39,0,6.084,2.69,6.084,6.074v24.292c0,3.383,2.695,6.074,6.083,6.074h24.334
		c3.39,0,6.083,2.689,6.083,6.072v105.269C152.944,5916.863,147.848,5921.951,142.805,5921.951"/>
	<path id="Fill-166" sketch:type="MSShapeGroup" fill="#CCCBCB" d="M111.375,5832.878H99.208l-3.143-3.139
		c-1.657-1.675-4.65-2.936-6.996-2.936H78.931c-2.345,0-5.284,1.261-6.94,2.936l-3.199,3.139H56.625
		c-4.686,0-7.098,3.364-7.098,8.097v28.343c0,4.731,3.424,6.072,8.112,6.072h52.721c4.688,0,8.112-1.341,8.112-6.072v-28.343
		C118.473,5836.242,116.061,5832.878,111.375,5832.878L111.375,5832.878z M84,5869.317c-9.517,0-17.236-7.704-17.236-17.208
		c0-9.502,7.719-17.207,17.236-17.207c9.516,0,17.236,7.705,17.236,17.207C101.236,5861.613,93.516,5869.317,84,5869.317
		L84,5869.317z M109.348,5843c-1.68,0-3.042-1.36-3.042-3.037c0-1.678,1.362-3.037,3.042-3.037c1.679,0,3.041,1.359,3.041,3.037
		C112.389,5841.64,111.026,5843,109.348,5843L109.348,5843z"/>
	<path id="Fill-167" sketch:type="MSShapeGroup" fill="#CCCBCB" d="M84,5838.95c-7.28,0-13.18,5.893-13.18,13.159
		c0,7.268,5.9,13.158,13.18,13.158c7.28,0,13.182-5.891,13.182-13.158C97.182,5844.843,91.28,5838.95,84,5838.95"/>
</g>
<g>
	<path id="Fill-168" sketch:type="MSShapeGroup" fill="#E7E7E7" d="M111.948,6000H25.195c-7.84,0-14.196,6.344-14.196,14.17v137.659
		c0,7.829,6.355,14.171,14.196,14.171h117.609c7.842,0,14.195-6.342,14.195-14.171v-106.853c0-3.757-1.496-7.363-4.157-10.019
		l-30.857-30.809C119.324,6001.493,115.712,6000,111.948,6000"/>
	<path id="Fill-169" sketch:type="MSShapeGroup" fill="#FFFFFF" d="M142.805,6161.953H25.195c-5.041,0-10.14-5.09-10.14-10.122
		v-137.659c0-5.012,5.119-10.123,10.14-10.123h85.165c3.39,0,6.084,2.691,6.084,6.072v24.293c0,3.385,2.695,6.074,6.083,6.074
		h24.334c3.39,0,6.083,2.691,6.083,6.072v105.271C152.944,6156.863,147.848,6161.953,142.805,6161.953"/>
	<path id="Fill-170" sketch:type="MSShapeGroup" fill="#CCCBCB" d="M70.594,6100.017l-3.033,13.296H57.64l13.161-50.556h12.564
		l12.908,50.556H85.972l-3.25-13.296H70.594L70.594,6100.017z M81.326,6092.309l-2.644-10.465c-0.753-2.924-1.505-6.583-2.135-9.515
		h-0.121c-0.631,2.932-1.262,6.663-1.948,9.515l-2.511,10.465H81.326L81.326,6092.309z"/>
	<path id="Fill-171" sketch:type="MSShapeGroup" fill="#CCCBCB" d="M104.596,6078.953h7.793v34.291h-7.793V6078.953z"/>
	<path id="Fill-172" sketch:type="MSShapeGroup" fill="#CCCBCB" d="M112.389,6070.854c0,2.238-1.816,4.05-4.055,4.05
		c-2.242,0-4.057-1.812-4.057-4.05s1.814-4.047,4.057-4.047C110.572,6066.807,112.389,6068.615,112.389,6070.854"/>
</g>
<path id="Fill-173" sketch:type="MSShapeGroup" fill="#E7E7E7" d="M111.948,6240H25.195c-7.84,0-14.196,6.344-14.196,14.171v137.657
	c0,7.828,6.355,14.172,14.196,14.172h117.609c7.842,0,14.195-6.344,14.195-14.172v-106.852c0-3.757-1.496-7.362-4.157-10.021
	l-30.857-30.808C119.324,6241.495,115.712,6240,111.948,6240"/>
<path id="Fill-174" sketch:type="MSShapeGroup" fill="#FFFFFF" d="M142.805,6401.952H25.195c-5.041,0-10.14-5.087-10.14-10.122
	v-137.659c0-5.013,5.119-10.124,10.14-10.124h85.165c3.39,0,6.084,2.691,6.084,6.074v24.293c0,3.382,2.695,6.072,6.083,6.072h24.334
	c3.39,0,6.083,2.691,6.083,6.074v105.27C152.944,6396.865,147.848,6401.952,142.805,6401.952"/>
<path id="Fill-175" sketch:type="MSShapeGroup" fill="#CCCBCB" d="M120.501,6329.073c0-20.124-16.344-36.44-36.501-36.44
	s-36.5,16.316-36.5,36.44c0,20.126,16.343,36.439,36.5,36.439S120.501,6349.199,120.501,6329.073"/>
<path id="Fill-176" sketch:type="MSShapeGroup" fill="#FFFFFF" d="M97.445,6323.526l1.596-0.845l0.846-1.215l-2.913-1.315
	l-0.656-2.343l-0.939,1.404l1.315,2.064L97.445,6323.526"/>
<path id="Fill-177" sketch:type="MSShapeGroup" fill="#FFFFFF" d="M94.344,6322.121c0,0,0.848,1.5,1.13,1.5
	c0.28,0,1.032-1.033,1.032-1.033l-1.408-1.592L94.344,6322.121"/>
<path id="Fill-178" sketch:type="MSShapeGroup" fill="#FFFFFF" d="M116.32,6330.934c0.19,0.281,0.75,2.625,0.75,2.625l0.564,0.75
	c0,0,0.752-5.533,0.657-6.373c-0.094-0.846-0.657-4.97-0.752-5.254c-0.092-0.279-0.938-4.592-1.594-6
	c-0.657-1.404-3.663-7.871-6.763-10.873c-3.098-2.998-5.449-4.032-5.449-4.032c0.072,0.281,0.302,1.616,0.411,2.267
	c0.08,0.229,0.159,0.451,0.239,0.676l0.668,1.184c0,0-0.656,1.127-0.38,1.127c0.283,0,0.943,2.248,0.943,2.248l-0.563,1.029
	l-1.225-2.625l-1.499,0.188l-1.598-0.841l-0.858,1.228c-0.401,0.579-0.487,1.319-0.227,1.972l0.282,0.708
	c0.158,0.383,0.191,0.808,0.105,1.214l-0.621,2.863c-0.17,0.791,0.134,1.605,0.777,2.099l0.541,0.414l1.407-0.751l1.41,1.596v-2.688
	c-0.018-0.145-0.029-0.289-0.045-0.436l-0.894-4.19l1.876,3.469l1.788-0.467l-0.886,1.354c-0.219,0.338-0.336,0.734-0.336,1.137
	v0.88c0,0.753-0.405,1.448-1.069,1.821l-0.586,0.328l-0.316-1.021l-0.942-0.75l-0.282,1.033c0,0,0.469,0.65,0.777,1.169
	l-0.285,0.158c-0.198,0.113-0.366,0.271-0.492,0.464l-1.329,2.062c-0.111,0.179-0.267,0.325-0.444,0.435l-0.02,0.016
	c-1.116,0.687-1.334,2.216-0.452,3.184l0.18,0.197l-0.188,1.409l-2.195,0.168c-0.768,0.062-1.341,0.729-1.282,1.495
	c0.08,1.069,0.215,2.365,0.38,2.365c0.182,0,0.861,0.078,1.329,0.135c0.312,0.035,0.617-0.031,0.887-0.192
	c0.494-0.301,1.26-0.818,1.447-1.252c0.282-0.656,0.844-3.471,0.844-3.471l1.692-0.188c0,0,1.123-0.563,1.313-0.845
	c0.188-0.282,2.067,0.189,2.441,0.281c0.376,0.094,1.315,1.968,1.315,1.968l0.469-1.404l-1.688-1.312l1.5-0.562l1.506,2.062
	l1.22,0.562l-0.082-1.86c0.02-0.198,0.039-0.388,0.055-0.581l0.566-2.333l0.057-0.196l0.624-1.779l1.314,0.564l0.752,0.748
	l-1.514,1.328c-0.521,0.459-0.781,1.148-0.691,1.834l0.235,1.807l1.875-0.845l0.472,1.595l-0.848,1.313l-3.507,1.29l-0.111,0.049
	c-0.368,0.17-2.477,1.166-2.391,0.91c0.045-0.139-0.354-0.541-0.775-0.918c-0.538-0.482-1.288-0.662-1.983-0.463l-2.101,0.596
	l-0.235,0.084l-2.968,1.247c-0.317,0.133-0.6,0.342-0.815,0.61l-5.292,6.506c-0.312,0.379-0.474,0.857-0.47,1.346l0.061,4.229
	c0.016,0.887,0.587,1.672,1.432,1.949l3.373,1.125c0.374,0.125,0.773,0.143,1.153,0.051l4.114-0.988c0,0,1.501,0.939,1.501,1.221
	s-0.657,3.844-0.657,4.127c0,0.178,0.039,1.22,0.064,1.963c0.02,0.488-0.137,0.967-0.44,1.352l-0.533,0.677l-0.061,0.074
	l-1.754,1.933c0,0,6.011-3,10.8-10.312s5.069-10.406,5.163-10.877c0.085-0.42-0.509-2.654-0.634-3.107l-0.053-0.158l-1.283-3.107
	C115.194,6330.746,116.131,6330.654,116.32,6330.934"/>
<path id="Fill-179" sketch:type="MSShapeGroup" fill="#FFFFFF" d="M87.493,6314.433l0.844,2.249l2.16-1.029l-0.188-1.687
	C90.309,6313.966,87.775,6314.433,87.493,6314.433"/>
<path id="Fill-180" sketch:type="MSShapeGroup" fill="#FFFFFF" d="M96.317,6304.027l-1.501-0.281l0.749-0.373l-0.188-1.034
	l-0.938,0.096l-0.845,1.872l1.408,1.314L96.317,6304.027"/>
<path id="Fill-181" sketch:type="MSShapeGroup" fill="#FFFFFF" d="M64.234,6340.4c0.189-0.062,1.565-1.125,1.565-1.125l-1.002-1.5
	l-1.439-0.873l-1.002-0.25l0.437,0.938l1.631,1.439C64.424,6339.029,64.048,6340.463,64.234,6340.4"/>
<path id="Fill-182" sketch:type="MSShapeGroup" fill="#FFFFFF" d="M65.831,6342.934l-1.063-1.251l-0.939-0.061l-0.502,0.751
	l1.691,0.438L65.831,6342.934"/>
<path id="Fill-183" sketch:type="MSShapeGroup" fill="#FFFFFF" d="M79.944,6294.658c-0.938,0-7.76,3.275-8.323,3.461
	c-0.562,0.189-5.258,4.128-5.258,4.128l4.132,0.188c0,0-0.623,1.854-1.144,3.029c-0.32,0.269-0.707,0.452-1.129,0.466l-1.952,0.064
	v1.688l-2.162-0.781c-0.585-0.215-1.028-0.703-1.182-1.309l-0.326-1.307c-0.059-0.23-0.072-0.465-0.041-0.701
	c0.092-0.686,0.89-1.856,0.673-1.714c-0.281,0.188-5.76,5.376-6.512,6.502c-0.75,1.124-0.875,1.841-1.722,2.777
	c-0.842,0.942-3.284,7.034-3.284,7.315c0,0.195-0.413,1.123-0.664,1.665c-0.121,0.268-0.175,0.558-0.165,0.851l0.077,1.985
	c0,0-0.375,1.312-0.563,1.593s-0.282,1.125,0,1.405c0.238,0.24,0.208,2.644,0.191,3.359c-0.001,0.141,0.01,0.273,0.039,0.411
	c0.147,0.709,0.628,3.025,0.708,3.262c0.094,0.283,0.469,3.002,0.469,3.002s0.66,1.312,1.127,1.404
	c0.368,0.074,1.137,1.179,1.452,1.654c0.099,0.152,0.211,0.279,0.347,0.391c0.167,0.139,0.418,0.354,0.683,0.586
	c0.638,0.676,1.275,1.306,1.275,1.306c0,0.174,0.279,0.972,0.496,1.569c0.16,0.438,0.479,0.799,0.894,1.016l1.333,0.696l1.34,0.698
	l-0.12,0.146l0.147,0.25c0.487,0.826,0.474,1.853-0.05,2.688c-0.367,0.588-0.482,1.299-0.315,1.974
	c0.216,0.874,0.519,1.97,0.689,2.026c0.281,0.094,2.818,2.062,3.099,2.25c0.283,0.188,1.973,3,2.35,3.094
	c0.375,0.094,3.849,2.062,3.849,2.062s0.562,0.097,0.845,0.097c0.283,0,4.884,1.402,4.884,1.402l0.326-0.354l0.299,0.045
	c1.654,0.184,7.451,1.124,7.451,1.124l-2.003-0.626l-1.629-1.125c0,0-0.375-1.126-0.75-1.502c-0.377-0.373,1.503-1.623,1.503-1.623
	s1.94-1.844,2.033-2.125c0.095-0.281,0.376-2.156,0.376-2.156l-1.533-2.407c0,0-2.315-1.312-2.693-1.312
	c-0.375,0-2.91-1.688-3.38-1.876c-0.468-0.186-2.161-1.47-2.632-1.562c-0.468-0.096-3.943-0.656-4.319-0.75
	c-0.375-0.094-5.821-1.001-6.386-1.096l-1.313,0.47l-0.302,0.37l-1.73-1.131c-0.178-0.117-0.322-0.273-0.447-0.443l0.414-0.482
	c0,0-0.375-1.032-0.752-1.124c-0.376-0.094-0.938-1.409-0.938-1.409s0.845-1.217-0.187-1.496c-1.035-0.282-1.879-0.47-1.879-0.753
	c0-0.282-0.377-1.499-0.377-1.874c0-0.373-0.282-1.406-0.282-1.689c0-0.277-0.093-1.217-0.093-1.592c0-0.374,0.47-1.127,0.47-1.127
	l1.22-0.562c0,0,1.786-0.186,2.066-0.092c0.281,0.092,1.502,0.937,1.783,1.22c0.282,0.281,1.504,2.153,1.504,2.153l0.753,1.598
	l0.844-0.847c0,0-0.658-0.751-0.658-1.028c0-0.281,0.283-0.471,0.564-1.031c0.281-0.563,0.094-0.845,0.846-0.938
	c0.75-0.096,2.066-0.472,2.066-0.472s0.938-0.654,0.938-0.936s1.502-0.936,1.502-0.936l1.411-0.47l0.845-1.313
	c0,0,0.656-0.375,0.75-0.844l2.816,0.752l0.563-3.566l0.189-2.809l-2.255-3.002l0.564-2.812c0,0-1.213-1.708-1.864-2.887
	c0.511,0.076,1.488,0.354,1.488,0.354l-0.062-0.242c0.311,0.539,0.875,1.276,0.875,1.276s0.564-0.563,0.69-0.312
	c0.094,0.189,0.941,0.127,1.401,0.17l0.351,0.174c0.225,0.337,0.975,1.458,1.227,1.837l0.308,1.224l1.69-0.937l2.158-1.033
	l2.538-2.811l3.474-3l0.188-2.629c0,0-1.034-2.436-0.754-2.529c0.283-0.094,2.065-3.279,2.065-3.279l-1.693-0.449l1.282-1.851
	l2.103-0.888c0,0-2.346-3.275-3.098-3.275H79.944L79.944,6294.658z M73.092,6312.363l-0.387-1.489
	c-0.034-0.126-0.08-0.251-0.139-0.368l-0.85-1.695c0,0,0.562-1.598,0.844-1.781c0.185-0.125,0.247-0.727,0.27-1.129
	c0.302,0.062,0.608,0.125,0.608,0.221c0,0.188,0,2.498,0.123,2.875C73.681,6309.354,73.29,6311.959,73.092,6312.363L73.092,6312.363
	z"/>
<path id="Fill-184" sketch:type="MSShapeGroup" fill="#CCCBCB" d="M72.685,6304.933l-1.439,1.438c0,0-0.626,1.56-0.562,1.812
	c0.062,0.248-1.252,1.063-1.252,1.063l-0.752,1.311c0,0,0,1.877-0.249,1.752c-0.253-0.125-1.064,0.812-1.253,0.812
	c-0.188,0-1.626,1.126-1.626,1.126l0.5,3.501l1.815,1.686c0,0,2.503-2.188,2.567-2.437c0.062-0.253,0.938-2.814,0.938-2.814
	l0.877-0.499l1.313,0.251c0,0,0.877-1.626,0.815-1.813c-0.062-0.188-0.815-2.811-0.815-3.125v-3.812l0.127-0.878l-1.222,0.565"/>
<g>
	<path id="Fill-185" sketch:type="MSShapeGroup" fill="#E7E7E7" d="M111.948,6480H25.195c-7.84,0-14.196,6.344-14.196,14.172
		v137.657c0,7.827,6.355,14.171,14.196,14.171h117.609c7.842,0,14.195-6.344,14.195-14.171v-106.854
		c0-3.755-1.496-7.361-4.157-10.017l-30.857-30.809C119.324,6481.495,115.712,6480,111.948,6480"/>
	<path id="Fill-186" sketch:type="MSShapeGroup" fill="#FFFFFF" d="M142.805,6641.951H25.195c-5.041,0-10.14-5.09-10.14-10.122
		v-137.657c0-5.016,5.119-10.123,10.14-10.123h85.165c3.39,0,6.084,2.691,6.084,6.072v24.293c0,3.383,2.695,6.074,6.083,6.074
		h24.334c3.39,0,6.083,2.691,6.083,6.072v105.269C152.944,6636.861,147.848,6641.951,142.805,6641.951"/>
	<path id="Fill-187" sketch:type="MSShapeGroup" fill="#CCCBCB" d="M109.348,6565.025l-30.597,31.197l-11.987-11.965l-23.319,21.254
		v8.099h81.109v-38.464L109.348,6565.025"/>
	<path id="Fill-188" sketch:type="MSShapeGroup" fill="#CCCBCB" d="M79.944,6551.866c0,6.15-4.992,11.134-11.153,11.134
		c-6.162,0-11.152-4.983-11.152-11.134s4.99-11.134,11.152-11.134C74.953,6540.732,79.944,6545.716,79.944,6551.866"/>
</g>
<g>
	<path id="Fill-189" sketch:type="MSShapeGroup" fill="#E7E7E7" d="M111.948,6720H25.195c-7.84,0-14.196,6.344-14.196,14.171
		v137.659c0,7.826,6.355,14.17,14.196,14.17h117.609c7.842,0,14.195-6.344,14.195-14.17v-106.853c0-3.759-1.496-7.364-4.157-10.021
		l-30.857-30.809C119.324,6721.495,115.712,6720,111.948,6720"/>
	<path id="Fill-190" sketch:type="MSShapeGroup" fill="#FFFFFF" d="M142.805,6881.952H25.195c-5.041,0-10.14-5.089-10.14-10.122
		v-137.659c0-5.013,5.119-10.122,10.14-10.122h85.165c3.39,0,6.084,2.691,6.084,6.074v24.293c0,3.381,2.695,6.072,6.083,6.072
		h24.334c3.39,0,6.083,2.691,6.083,6.074v105.268C152.944,6876.863,147.848,6881.952,142.805,6881.952"/>
	<path id="Fill-191" sketch:type="MSShapeGroup" fill="#CCCBCB" d="M84,6778.707c-11.198,0-20.277,9.064-20.277,20.245
		S84,6839.439,84,6839.439s20.277-29.307,20.277-40.487S95.199,6778.707,84,6778.707L84,6778.707z M84,6809.994
		c-6.107,0-11.06-4.946-11.06-11.042c0-6.097,4.952-11.042,11.06-11.042c6.111,0,11.059,4.945,11.059,11.042
		C95.059,6805.048,90.111,6809.994,84,6809.994L84,6809.994z"/>
</g>
<path id="Fill-192" sketch:type="MSShapeGroup" fill="#E7E7E7" d="M111.948,6960H25.195c-7.84,0-14.196,6.348-14.196,14.172v137.659
	c0,7.827,6.355,14.169,14.196,14.169h117.609c7.842,0,14.195-6.342,14.195-14.169v-106.853c0-3.759-1.496-7.363-4.157-10.021
	l-30.857-30.807C119.324,6961.497,115.712,6960,111.948,6960"/>
<path id="Fill-193" sketch:type="MSShapeGroup" fill="#FFFFFF" d="M142.805,7121.953H25.195c-5.041,0-10.14-5.088-10.14-10.122
	v-137.659c0-5.014,5.119-10.121,10.14-10.121h85.165c3.39,0,6.084,2.689,6.084,6.072v24.293c0,3.383,2.695,6.072,6.083,6.072h24.334
	c3.39,0,6.083,2.691,6.083,6.074v105.269C152.944,7116.865,147.848,7121.953,142.805,7121.953"/>
<g>
	<path id="Fill-194" sketch:type="MSShapeGroup" fill="#E7E7E7" d="M111.948,7200H25.195c-7.84,0-14.196,6.348-14.196,14.173
		v137.658c0,7.827,6.355,14.169,14.196,14.169h117.609c7.842,0,14.195-6.342,14.195-14.169v-106.852
		c0-3.759-1.496-7.364-4.157-10.022l-30.857-30.807C119.324,7201.497,115.712,7200,111.948,7200"/>
	<path id="Fill-195" sketch:type="MSShapeGroup" fill="#FFFFFF" d="M142.805,7361.953H25.195c-5.041,0-10.14-5.09-10.14-10.122
		v-137.658c0-5.013,5.119-10.122,10.14-10.122h85.165c3.39,0,6.084,2.689,6.084,6.074v24.291c0,3.383,2.695,6.074,6.083,6.074
		h24.334c3.39,0,6.083,2.689,6.083,6.074v105.267C152.944,7356.863,147.848,7361.953,142.805,7361.953"/>
	<path id="Fill-196" sketch:type="MSShapeGroup" fill="#CCCBCB" d="M87.16,7309.986c-0.818-1.154-2.062-3.721-3.725-7.699
		l-14.815-35.48h-1.848l-14.75,36.965c-1.168,2.924-2.066,4.816-2.691,5.67c-0.974,1.364-2.259,2.102-3.859,2.211v1.715h13.551
		v-1.715c-1.513-0.02-2.648-0.152-3.404-0.397c-1.276-0.438-1.913-1.142-1.913-2.11c0-0.79,0.292-2.055,0.877-3.789
		c0.279-0.817,0.908-2.564,1.88-5.246h14.905l1.689,4.088c0.369,0.901,0.662,1.674,0.878,2.311c0.345,1.079,0.517,1.883,0.517,2.406
		c0,1.166-0.339,1.892-1.019,2.175c-0.682,0.287-2.103,0.478-4.264,0.563v1.715h21.492v-1.715
		C89.149,7311.697,87.98,7311.14,87.16,7309.986L87.16,7309.986z M57.461,7296.871l5.992-15.34h0.557l6.386,15.34H57.461
		L57.461,7296.871z"/>
	<path id="Fill-197" sketch:type="MSShapeGroup" fill="#CCCBCB" d="M121.84,7308.065c-0.433,0.431-0.752,0.696-0.955,0.794
		c-0.208,0.098-0.44,0.143-0.697,0.143c-0.306,0-0.577-0.166-0.828-0.5c-0.251-0.335-0.783-1.398-0.783-1.875v-15.182
		c0-3.93-0.844-6.834-3.353-8.3c-2.525-1.446-5.67-2.169-9.43-2.169c-3.504,0-6.451,0.744-8.852,2.228
		c-2.396,1.485-3.601,3.499-3.601,6.037c0,1.421,0.45,2.507,1.347,3.262c0.896,0.751,1.983,1.13,3.258,1.13
		c1.103,0,2.068-0.342,2.9-1.021c0.832-0.68,1.249-1.644,1.249-2.897c0-0.497-0.092-0.967-0.274-1.408
		c-0.184-0.439-0.429-0.846-0.728-1.213l-0.395-0.451c-0.168-0.195-0.299-0.38-0.387-0.554c-0.087-0.17-0.13-0.387-0.13-0.646
		c0-0.668,0.384-1.223,1.151-1.666c0.768-0.441,1.747-0.665,2.936-0.665c2.118,0,3.593,0.47,4.425,1.407
		c0.832,0.939,1.247,2.391,1.247,4.354v4.823c-6.141,1.771-10.644,3.531-13.518,5.281c-2.875,1.752-4.312,4.117-4.312,7.102
		c0,2.443,0.785,4.24,2.367,5.397c1.576,1.155,3.273,1.733,5.087,1.733c1.364,0,2.747-0.24,4.152-0.713
		c2.311-0.756,4.386-2.055,6.223-3.891c0.237,1.273,0.617,2.237,1.138,2.887c0.902,1.143,2.342,1.717,4.31,1.717
		c1.099,0,2.149-0.195,3.143-0.584c1.58-0.602,3.016-1.661,4.313-3.17L121.84,7308.065L121.84,7308.065z M109.846,7305.695
		c-0.713,0.824-1.33,1.428-1.849,1.814c-0.93,0.651-1.935,0.979-3.014,0.979c-0.826,0-1.564-0.374-2.222-1.121
		c-0.66-0.748-0.989-1.844-0.989-3.293c0-2.446,1.136-4.457,3.405-6.039c1.339-0.928,2.896-1.607,4.668-2.041V7305.695
		L109.846,7305.695z"/>
</g>
<g>
	<path id="Fill-198" sketch:type="MSShapeGroup" fill="#E7E7E7" d="M111.948,7920H25.195c-7.84,0-14.196,6.346-14.196,14.171
		v137.656c0,7.827,6.355,14.173,14.196,14.173h117.609c7.842,0,14.195-6.346,14.195-14.173v-106.853
		c0-3.756-1.496-7.361-4.157-10.02l-30.857-30.805C119.324,7921.495,115.712,7920,111.948,7920"/>
	<path id="Fill-199" sketch:type="MSShapeGroup" fill="#FFFFFF" d="M142.805,8081.949H25.195c-5.041,0-10.14-5.088-10.14-10.122
		v-137.656c0-5.013,5.119-10.122,10.14-10.122h85.165c3.39,0,6.084,2.691,6.084,6.074v24.293c0,3.381,2.695,6.072,6.083,6.072
		h24.334c3.39,0,6.083,2.691,6.083,6.072v105.267C152.944,8076.861,147.848,8081.949,142.805,8081.949"/>
	<path id="Fill-200" sketch:type="MSShapeGroup" fill="#CCCBCB" d="M61.694,7980.73h26.361v10.124H71.833v12.145h14.193v10.124
		H71.833v18.218h-10.14V7980.73"/>
	<path id="Fill-201" sketch:type="MSShapeGroup" fill="#CCCBCB" d="M96.167,8023.242v-42.512h8.11v42.512h4.057v8.099h-6.086
		C98.143,8031.341,96.167,8027.344,96.167,8023.242"/>
</g>
<g>
	<path id="Fill-202" sketch:type="MSShapeGroup" fill="#E7E7E7" d="M111.948,8160H25.195c-7.84,0-14.196,6.344-14.196,14.171
		v137.656c0,7.829,6.355,14.173,14.196,14.173h117.609c7.842,0,14.195-6.344,14.195-14.173v-106.854
		c0-3.754-1.496-7.36-4.157-10.018l-30.857-30.808C119.324,8161.497,115.712,8160,111.948,8160"/>
	<path id="Fill-203" sketch:type="MSShapeGroup" fill="#FFFFFF" d="M142.805,8321.95H25.195c-5.041,0-10.14-5.087-10.14-10.121
		v-137.658c0-5.013,5.119-10.122,10.14-10.122h85.165c3.39,0,6.084,2.689,6.084,6.074v24.291c0,3.383,2.695,6.074,6.083,6.074
		h24.334c3.39,0,6.083,2.689,6.083,6.072v105.269C152.944,8316.863,147.848,8321.95,142.805,8321.95"/>
	<path id="Fill-204" sketch:type="MSShapeGroup" fill="#CCCBCB" d="M67.779,8220.731v56.683l42.582-28.34L67.779,8220.731"/>
</g>
<g>
	<path id="Fill-205" sketch:type="MSShapeGroup" fill="#E7E7E7" d="M111.948,8400H25.195c-7.84,0-14.196,6.346-14.196,14.173
		v137.658c0,7.823,6.355,14.169,14.196,14.169h117.609c7.842,0,14.195-6.346,14.195-14.169v-106.855
		c0-3.754-1.496-7.362-4.157-10.018l-30.857-30.809C119.324,8401.497,115.712,8400,111.948,8400"/>
	<path id="Fill-206" sketch:type="MSShapeGroup" fill="#FFFFFF" d="M142.805,8561.952H25.195c-5.041,0-10.14-5.089-10.14-10.123
		v-137.658c0-5.013,5.119-10.121,10.14-10.121h85.165c3.39,0,6.084,2.69,6.084,6.072v24.294c0,3.382,2.695,6.072,6.083,6.072h24.334
		c3.39,0,6.083,2.691,6.083,6.072v105.269C152.944,8556.863,147.848,8561.952,142.805,8561.952"/>
	<path id="Fill-207" sketch:type="MSShapeGroup" fill="#CCCBCB" d="M74.886,8509.308c-0.91,0-1.824-0.355-2.516-1.065
		l-16.759-17.151l16.759-17.144c1.389-1.425,3.643-1.425,5.033,0c1.39,1.421,1.39,3.729,0,5.151l-11.722,11.992l11.722,12
		c1.39,1.421,1.39,3.728,0,5.151C76.709,8508.952,75.797,8509.308,74.886,8509.308"/>
	<path id="Fill-208" sketch:type="MSShapeGroup" fill="#CCCBCB" d="M93.114,8509.308c0.911,0,1.825-0.355,2.517-1.065l16.758-17.151
		l-16.758-17.144c-1.391-1.425-3.643-1.425-5.034,0c-1.389,1.421-1.389,3.729,0,5.151l11.723,11.992l-11.723,12
		c-1.389,1.421-1.389,3.728,0,5.151C91.292,8508.952,92.204,8509.308,93.114,8509.308"/>
</g>
<g>
	<path id="Fill-209" sketch:type="MSShapeGroup" fill="#E7E7E7" d="M142.739,8640H25.26c-7.875,0-14.26,6.373-14.26,14.237v137.526
		c0,7.862,6.385,14.236,14.26,14.236h117.479c7.876,0,14.261-6.374,14.261-14.236v-137.526C157,8646.373,150.615,8640,142.739,8640"
		/>
	<path id="Fill-210" sketch:type="MSShapeGroup" fill="#FFFFFF" d="M142.805,8644.047H25.195c-5.041,0-10.14,5.09-10.14,10.124
		v137.659c0,5.034,5.099,10.122,10.14,10.122h117.609c5.043,0,10.14-5.088,10.14-10.122v-137.659
		C152.944,8649.137,147.848,8644.047,142.805,8644.047"/>
	<path id="Fill-211" sketch:type="MSShapeGroup" fill="#CCCBCB" d="M98.072,8745.351v-8.099H87.593
		c-0.462-2.036-1.269-3.942-2.35-5.656l7.46-7.448l-5.734-5.729l-7.461,7.45c-1.712-1.078-3.611-1.88-5.646-2.341v-10.526H65.75
		v10.526c-2.034,0.461-3.935,1.263-5.648,2.341l-7.459-7.45l-5.736,5.729l7.46,7.448c-1.082,1.714-1.887,3.62-2.349,5.656H41.417
		v8.099h10.611c0.464,2.021,1.265,3.913,2.339,5.617l-7.46,7.446l5.736,5.727l7.459-7.448c1.713,1.077,3.614,1.88,5.648,2.339v10.53
		h8.111v-10.53c2.034-0.459,3.934-1.262,5.646-2.339l7.461,7.448l5.734-5.727l-7.46-7.446c1.073-1.704,1.876-3.596,2.338-5.617
		H98.072L98.072,8745.351z M69.806,8751.401c-5.599,0-10.14-4.532-10.14-10.119c0-5.594,4.541-10.124,10.14-10.124
		s10.138,4.53,10.138,10.124C79.944,8746.869,75.405,8751.401,69.806,8751.401L69.806,8751.401z"/>
	<path id="Fill-212" sketch:type="MSShapeGroup" fill="#CCCBCB" d="M124.554,8708.829v-6.072h-6.51
		c-0.241-0.84-0.57-1.642-0.991-2.388l4.604-4.598l-4.298-4.295l-4.605,4.597c-0.748-0.417-1.551-0.747-2.393-0.985v-6.504h-6.083
		v6.504c-0.843,0.238-1.644,0.568-2.393,0.985l-4.604-4.597l-4.298,4.295l4.602,4.598c-0.417,0.746-0.748,1.548-0.989,2.388h-6.513
		v6.072h6.513c0.241,0.841,0.572,1.64,0.989,2.391l-4.602,4.593l4.298,4.296l4.604-4.597c0.749,0.418,1.55,0.746,2.393,0.984v6.505
		h6.083v-6.505c0.842-0.238,1.645-0.566,2.393-0.984l4.605,4.597l4.298-4.296l-4.604-4.593c0.421-0.751,0.75-1.55,0.991-2.391
		H124.554L124.554,8708.829z M107.321,8710.852c-2.802,0-5.073-2.263-5.073-5.06c0-2.795,2.271-5.06,5.073-5.06
		c2.798,0,5.067,2.265,5.067,5.06C112.389,8708.589,110.119,8710.852,107.321,8710.852L107.321,8710.852z"/>
</g>
<g>
	<path id="Fill-213" sketch:type="MSShapeGroup" fill="#E7E7E7" d="M111.948,8880H25.195c-7.84,0-14.196,6.346-14.196,14.171
		v137.658c0,7.827,6.355,14.171,14.196,14.171h117.609c7.842,0,14.195-6.344,14.195-14.171v-106.854
		c0-3.756-1.496-7.362-4.157-10.02l-30.857-30.807C119.324,8881.495,115.712,8880,111.948,8880"/>
	<path id="Fill-214" sketch:type="MSShapeGroup" fill="#FFFFFF" d="M142.805,9041.95H25.195c-5.041,0-10.14-5.089-10.14-10.121
		v-137.658c0-5.015,5.119-10.121,10.14-10.121h85.165c3.39,0,6.084,2.688,6.084,6.072v24.292c0,3.384,2.695,6.072,6.083,6.072
		h24.334c3.39,0,6.083,2.691,6.083,6.074v105.269C152.944,9036.861,147.848,9041.95,142.805,9041.95"/>
	<path id="Fill-215" sketch:type="MSShapeGroup" fill="#CCCBCB" d="M86.23,8984.496h-8.921l6.691-8.867l11.152,15.52h11.153
		l-16.995-22.97l14.708-21.375h-11.15L84,8960.523l-8.978-13.72H63.926l14.763,21.375l-16.996,22.97H86.23V8984.496"/>
</g>
<g>
	<path id="Fill-216" sketch:type="MSShapeGroup" fill="#E7E7E7" d="M111.948,9120H25.195c-7.84,0-14.196,6.344-14.196,14.169
		v137.658c0,7.827,6.355,14.173,14.196,14.173h117.609c7.842,0,14.195-6.346,14.195-14.173v-106.853
		c0-3.757-1.496-7.362-4.157-10.019l-30.857-30.809C119.324,9121.493,115.712,9120,111.948,9120"/>
	<path id="Fill-217" sketch:type="MSShapeGroup" fill="#FFFFFF" d="M142.805,9281.951H25.195c-5.041,0-10.14-5.09-10.14-10.124
		v-137.658c0-5.013,5.119-10.121,10.14-10.121h85.165c3.39,0,6.084,2.691,6.084,6.072v24.295c0,3.381,2.695,6.072,6.083,6.072
		h24.334c3.39,0,6.083,2.688,6.083,6.074v105.266C152.944,9276.861,147.848,9281.951,142.805,9281.951"/>
	<path id="Fill-218" sketch:type="MSShapeGroup" fill="#CCCBCB" d="M43.445,9184.781c3.266-0.656,7.482-1.182,11.968-1.182
		c7.466,0,12.307,1.673,16.098,5.22c4.08,3.777,6.407,9.594,6.407,18.232c0,9.354-2.499,16.01-6.288,20.005
		c-4.139,4.276-10.442,6.309-18.136,6.309c-4.612,0-7.833-0.645-10.048-1.011V9184.781L43.445,9184.781z M53.583,9223.243
		c0,0,0.723,1.485,1.831,1.485c8.05,0.076,13.378-6.002,13.378-17.677c0.059-10.155-4.805-14.963-12.447-14.963
		c-1.98,0-2.001,0.571-2.762,0.79V9223.243L53.583,9223.243z"/>
	<path id="Fill-219" sketch:type="MSShapeGroup" fill="#CCCBCB" d="M91.061,9196.928l2.106,15.328
		c0.543,3.7,1.083,7.614,1.51,11.678h0.107c0.539-4.063,1.295-8.126,1.944-11.609l2.807-15.396h6.477l2.644,14.963
		c0.701,3.995,1.401,7.979,1.942,12.043h0.105c0.384-4.063,0.924-8.048,1.518-12.113l2.266-14.893h8.041l-8.097,36.293h-7.716
		l-2.485-12.477c-0.647-3.482-1.133-6.677-1.672-11.026h-0.109c-0.485,4.422-1.024,7.692-1.725,11.026l-2.646,12.477h-7.717
		l-7.664-36.293H91.061"/>
</g>
<g>
	<path id="Fill-220" sketch:type="MSShapeGroup" fill="#E7E7E7" d="M111.948,9360H25.195c-7.84,0-14.196,6.344-14.196,14.171v137.66
		c0,7.827,6.355,14.169,14.196,14.169h117.609c7.842,0,14.195-6.342,14.195-14.169v-106.854c0-3.758-1.496-7.364-4.157-10.02
		l-30.857-30.807C119.324,9361.497,115.712,9360,111.948,9360"/>
	<path id="Fill-221" sketch:type="MSShapeGroup" fill="#FFFFFF" d="M142.805,9521.952H25.195c-5.041,0-10.14-5.089-10.14-10.121
		v-137.658c0-5.015,5.119-10.123,10.14-10.123h85.165c3.39,0,6.084,2.69,6.084,6.074v24.292c0,3.384,2.695,6.074,6.083,6.074h24.334
		c3.39,0,6.083,2.689,6.083,6.072v105.269C152.944,9516.863,147.848,9521.952,142.805,9521.952"/>
	<path id="Fill-222" sketch:type="MSShapeGroup" fill="#CCCBCB" d="M69.806,9483.488l36.5-40.488H88.055l12.167-30.365
		l-36.499,40.489h18.25L69.806,9483.488"/>
</g>
<g>
	<path id="Fill-223" sketch:type="MSShapeGroup" fill="#E7E7E7" d="M142.739,9600H25.26c-7.875,0-14.26,6.374-14.26,14.236v137.528
		c0,7.86,6.385,14.235,14.26,14.235h117.479c7.876,0,14.261-6.375,14.261-14.235v-137.528C157,9606.374,150.615,9600,142.739,9600"
		/>
	<path id="Fill-224" sketch:type="MSShapeGroup" fill="#FFFFFF" d="M142.805,9604.048H25.195c-5.041,0-10.14,5.089-10.14,10.122
		v137.661c0,5.032,5.099,10.12,10.14,10.12h117.609c5.043,0,10.14-5.088,10.14-10.12V9614.17
		C152.944,9609.137,147.848,9604.048,142.805,9604.048"/>
	<path id="Fill-225" sketch:type="MSShapeGroup" fill="#CCCBCB" d="M128.611,9672.878v-68.83h-16.223v68.83h-4.055v34.414h24.332
		v-34.414H128.611"/>
	<path id="Fill-226" sketch:type="MSShapeGroup" fill="#FFFFFF" d="M126.584,9676.927h-2.03v-4.049h-4.053v-4.05h-4.057v8.099
		h-4.056v26.318h16.223v-26.318H126.584L126.584,9676.927z M116.444,9685.024h8.109v14.171h-8.109V9685.024z"/>
	<path id="Fill-227" sketch:type="MSShapeGroup" fill="#FFFFFF" d="M120.501,9664.778h4.055v4.05h-4.055V9664.778z"/>
	<path id="Fill-228" sketch:type="MSShapeGroup" fill="#FFFFFF" d="M116.444,9660.731h4.057v4.049h-4.057V9660.731z"/>
	<path id="Fill-229" sketch:type="MSShapeGroup" fill="#FFFFFF" d="M116.444,9652.634h4.057v4.05h-4.057V9652.634z"/>
	<path id="Fill-230" sketch:type="MSShapeGroup" fill="#FFFFFF" d="M116.444,9644.535h4.057v4.05h-4.057V9644.535z"/>
	<path id="Fill-231" sketch:type="MSShapeGroup" fill="#FFFFFF" d="M116.444,9636.439h4.057v4.048h-4.057V9636.439z"/>
	<path id="Fill-232" sketch:type="MSShapeGroup" fill="#FFFFFF" d="M116.444,9628.341h4.057v4.05h-4.057V9628.341z"/>
	<path id="Fill-233" sketch:type="MSShapeGroup" fill="#FFFFFF" d="M116.444,9620.242h4.057v4.049h-4.057V9620.242z"/>
	<path id="Fill-234" sketch:type="MSShapeGroup" fill="#FFFFFF" d="M116.444,9612.145h4.057v4.048h-4.057V9612.145z"/>
	<path id="Fill-235" sketch:type="MSShapeGroup" fill="#FFFFFF" d="M120.501,9656.684h4.055v4.048h-4.055V9656.684z"/>
	<path id="Fill-236" sketch:type="MSShapeGroup" fill="#FFFFFF" d="M120.501,9648.585h4.055v4.049h-4.055V9648.585z"/>
	<path id="Fill-237" sketch:type="MSShapeGroup" fill="#FFFFFF" d="M120.501,9640.485h4.055v4.05h-4.055V9640.485z"/>
	<path id="Fill-238" sketch:type="MSShapeGroup" fill="#FFFFFF" d="M120.501,9632.391h4.055v4.049h-4.055V9632.391z"/>
	<path id="Fill-239" sketch:type="MSShapeGroup" fill="#FFFFFF" d="M120.501,9624.291h4.055v4.05h-4.055V9624.291z"/>
	<path id="Fill-240" sketch:type="MSShapeGroup" fill="#FFFFFF" d="M120.501,9616.192h4.055v4.052h-4.055V9616.192z"/>
	<path id="Fill-241" sketch:type="MSShapeGroup" fill="#FFFFFF" d="M116.444,9604.048h4.057v4.048h-4.057V9604.048z"/>
	<path id="Fill-242" sketch:type="MSShapeGroup" fill="#FFFFFF" d="M120.501,9608.098h4.055v4.049h-4.055V9608.098z"/>
</g>
<g>
	<g id="Group-245" transform="translate(10.224490, 9932.334341)">
		<g id="Clip-244">
		</g>
		<defs>
			<filter id="Adobe_OpacityMaskFilter_3_" filterUnits="userSpaceOnUse" x="0.776" y="-92.334" width="146" height="166">
				<feColorMatrix  type="matrix" values="1 0 0 0 0  0 1 0 0 0  0 0 1 0 0  0 0 0 1 0"/>
			</filter>
		</defs>
		<mask maskUnits="userSpaceOnUse" x="0.776" y="-92.334" width="146" height="166" id="mask-10">
			<g filter="url(#Adobe_OpacityMaskFilter_3_)">
				<path id="path-9" fill="#FFFFFF" d="M101.725-92.334H14.971c-7.84,0-14.195,6.345-14.195,14.172V59.495
					c0,7.827,6.355,14.171,14.195,14.171h117.61c7.842,0,14.195-6.344,14.195-14.171V-47.359c0-3.755-1.496-7.36-4.158-10.019
					l-30.856-30.809C109.101-90.841,105.488-92.334,101.725-92.334L101.725-92.334z"/>
			</g>
		</mask>
		<path id="Fill-243" sketch:type="MSShapeGroup" mask="url(#mask-10)" fill="#E7E7E7" d="M0.776-92.334h146v166h-146V-92.334z"/>
	</g>
	<path id="Fill-246" sketch:type="MSShapeGroup" fill="#FFFFFF" d="M142.806,10001.951H25.195c-5.041,0-10.139-5.089-10.139-10.122
		V9854.17c0-5.014,5.119-10.12,10.139-10.12h85.166c3.39,0,6.084,2.689,6.084,6.072v24.293c0,3.383,2.695,6.072,6.083,6.072h24.333
		c3.39,0,6.085,2.689,6.085,6.072v105.27C152.946,9996.862,147.85,10001.951,142.806,10001.951"/>
	<path id="Fill-247" sketch:type="MSShapeGroup" fill="#CCCBCB" d="M124.555,9927.048h-26.36v-6.074c0-4.047-2.537-6.07-6.082-6.07
		h-6.085v-26.317h-4.054v26.317H75.89c-3.545,0-6.083,2.531-6.083,6.07v6.074H43.445v4.05h26.362v6.074
		c0,3.537,2.538,6.07,6.083,6.07h6.084v26.317h4.054v-26.317h6.085c3.545,0,6.082-2.025,6.082-6.07v-6.074h26.36V9927.048
		L124.555,9927.048z M94.14,9937.172c0,1.174-0.85,2.022-2.027,2.022H75.89c-1.178,0-2.027-0.849-2.027-2.022v-16.198
		c0-1.175,0.85-2.022,2.027-2.022h16.223c1.178,0,2.027,0.848,2.027,2.022V9937.172L94.14,9937.172z"/>
	<path id="Fill-248" sketch:type="MSShapeGroup" fill="#CCCBCB" d="M79.945,9925.023h8.11v8.099h-8.11V9925.023z"/>
</g>
<g>
	<path id="Fill-249" sketch:type="MSShapeGroup" fill="#E7E7E7" d="M111.948,10080H25.195c-7.84,0-14.196,6.344-14.196,14.171
		v137.657c0,7.828,6.355,14.172,14.196,14.172h117.609c7.842,0,14.195-6.344,14.195-14.172v-106.851
		c0-3.758-1.496-7.364-4.157-10.019l-30.857-30.809C119.324,10081.495,115.712,10080,111.948,10080"/>
	<path id="Fill-250" sketch:type="MSShapeGroup" fill="#FFFFFF" d="M142.805,10241.954H25.195c-5.041,0-10.14-5.089-10.14-10.124
		v-137.657c0-5.015,5.119-10.124,10.14-10.124h85.165c3.39,0,6.084,2.693,6.084,6.074v24.293c0,3.383,2.695,6.074,6.083,6.074
		h24.334c3.39,0,6.083,2.689,6.083,6.072v105.268C152.944,10236.865,147.848,10241.954,142.805,10241.954"/>
	<path id="Fill-251" sketch:type="MSShapeGroup" fill="#CCCBCB" d="M69.806,10148.832v31.392c-1.449-0.646-3.194-1.026-5.069-1.026
		c-5.04,0-9.126,2.719-9.126,6.072s4.086,6.074,9.126,6.074c5.039,0,9.125-2.721,9.125-6.074v-26.317
		c7.99-3.176,17.824-4.05,26.36-4.05v21.271c-1.448-0.646-3.193-1.027-5.069-1.027c-5.037,0-9.126,2.72-9.126,6.074
		c0,3.355,4.089,6.074,9.126,6.074c5.038,0,9.125-2.719,9.125-6.074v-38.464C92.004,10142.757,81.354,10143.661,69.806,10148.832"/>
</g>
<g>
	<path id="Fill-252" sketch:type="MSShapeGroup" fill="#E7E7E7" d="M111.948,10320H25.195c-7.84,0-14.196,6.345-14.196,14.174
		v137.657c0,7.825,6.355,14.169,14.196,14.169h117.609c7.842,0,14.195-6.344,14.195-14.169v-106.853
		c0-3.757-1.496-7.364-4.157-10.022l-30.857-30.805C119.324,10321.497,115.712,10320,111.948,10320"/>
	<path id="Fill-253" sketch:type="MSShapeGroup" fill="#FFFFFF" d="M142.805,10481.951H25.195c-5.041,0-10.14-5.085-10.14-10.12
		v-137.657c0-5.016,5.119-10.124,10.14-10.124h85.165c3.39,0,6.084,2.689,6.084,6.074v24.293c0,3.381,2.695,6.07,6.083,6.07h24.334
		c3.39,0,6.083,2.693,6.083,6.074v105.27C152.944,10476.866,147.848,10481.951,142.805,10481.951"/>
	<path id="Fill-254" sketch:type="MSShapeGroup" fill="#CCCBCB" d="M60.587,10418.184l-3.053,13.157H47.5l13.18-50.606h12.708
		l13.177,50.606H76.149l-3.301-13.157H60.587L60.587,10418.184z M71.45,10410.11l-2.67-10.575c-0.761-2.959-1.522-6.652-2.161-9.611
		h-0.121c-0.639,2.959-1.279,6.727-1.974,9.611l-2.54,10.575H71.45L71.45,10410.11z"/>
	<path id="Fill-255" sketch:type="MSShapeGroup" fill="#CCCBCB" d="M99.799,10417.172c0.633,3.709,4.2,6.066,8.711,6.066
		c3.304,0,5.973-0.505,8.58-1.438l1.267,7.387c-3.176,1.435-7.053,2.154-11.242,2.154c-10.546,0-16.584-6.882-16.584-17.859
		c0-8.895,4.895-18.723,15.697-18.723c10.03,0,13.845,8.826,13.845,17.503c0,1.865-0.337,4.122-0.46,4.91H99.799L99.799,10417.172z
		 M111.116,10409.109c0-2.659-1.017-7.104-5.465-7.104c-4.066,0-5.715,4.159-5.972,7.104H111.116L111.116,10409.109z"/>
</g>
<g>
	<path id="Fill-256" sketch:type="MSShapeGroup" fill="#E7E7E7" d="M111.948,10560H25.195c-7.84,0-14.196,6.344-14.196,14.171
		v137.657c0,7.828,6.355,14.172,14.196,14.172h117.609c7.842,0,14.195-6.344,14.195-14.172v-106.854
		c0-3.754-1.496-7.36-4.157-10.019l-30.857-30.809C119.324,10561.493,115.712,10560,111.948,10560"/>
	<path id="Fill-257" sketch:type="MSShapeGroup" fill="#FFFFFF" d="M142.805,10721.95H25.195c-5.041,0-10.14-5.089-10.14-10.124
		v-137.655c0-5.015,5.119-10.122,10.14-10.122h85.165c3.39,0,6.084,2.689,6.084,6.072v24.293c0,3.383,2.695,6.072,6.083,6.072
		h24.334c3.39,0,6.083,2.689,6.083,6.074v105.266C152.944,10716.861,147.848,10721.95,142.805,10721.95"/>
	<path id="Fill-258" sketch:type="MSShapeGroup" fill="#CCCBCB" d="M55.611,10629.728l29.403-8.998l29.402,8.998l-29.402,13.497
		L55.611,10629.728"/>
	<path id="Fill-259" sketch:type="MSShapeGroup" fill="#CCCBCB" d="M84,10645.593v35.838l-28.389-17.963v-31.488L84,10645.593"/>
	<path id="Fill-260" sketch:type="MSShapeGroup" fill="#CCCBCB" d="M86.193,10645.753v35.57l28.126-17.855v-31.488L86.193,10645.753
		"/>
</g>
</svg>
