<?xml version="1.0" encoding="utf-8"?>
<!-- Generator: Adobe Illustrator 16.0.0, SVG Export Plug-In . SVG Version: 6.00 Build 0)  -->
<!DOCTYPE svg PUBLIC "-//W3C//DTD SVG 1.1//EN" "http://www.w3.org/Graphics/SVG/1.1/DTD/svg11.dtd">
<svg version="1.1" id="Layer_1" xmlns="http://www.w3.org/2000/svg" xmlns:xlink="http://www.w3.org/1999/xlink" x="0px" y="0px"
	 width="146px" height="12100px" enable-background="new 0 0 146 12100" xml:space="preserve">
<g opacity="0.1">
	<g>
		<defs>
			<rect id="SVGID_1_" width="146" height="164.175"/>
		</defs>
		<clipPath id="SVGID_2_">
			<use xlink:href="#SVGID_1_"  overflow="visible"/>
		</clipPath>
		<path clip-path="url(#SVGID_2_)" fill="#231F20" d="M0,157.231c0,3.828,3.109,6.944,6.929,6.944h132.142
			c3.819,0,6.929-3.116,6.929-6.944V6.944C146,3.115,142.891,0,139.071,0H44.272c-4.235,0-9.689,2.272-12.683,5.284L5.242,31.792
			C2.254,34.797,0,40.268,0,44.515V157.231z"/>
	</g>
</g>
<path fill="#FFFFFF" d="M4.056,157.231c0,1.59,1.295,2.89,2.874,2.89h132.142c1.578,0,2.872-1.3,2.872-2.89V6.944
	c0-1.589-1.294-2.891-2.872-2.891H44.272c-3.157,0-7.57,1.839-9.805,4.086L8.118,34.649c-2.236,2.248-4.062,6.687-4.062,9.865
	V157.231z"/>
<polygon fill="#2E4A9D" points="38.528,60.805 54.045,119.584 64.496,119.584 74.885,84.999 85.278,119.584 95.726,119.584 
	109.5,60.805 87.195,60.805 87.195,72.967 95.305,72.967 89.47,96.406 80.909,60.805 69.146,60.805 60.3,96.406 50.694,60.805 "/>
<g opacity="0.1">
	<g>
		<defs>
			<rect id="SVGID_3_" y="223" width="146" height="164.175"/>
		</defs>
		<clipPath id="SVGID_4_">
			<use xlink:href="#SVGID_3_"  overflow="visible"/>
		</clipPath>
		<path clip-path="url(#SVGID_4_)" fill="#231F20" d="M0,380.231c0,3.828,3.109,6.944,6.929,6.944h132.142
			c3.819,0,6.929-3.116,6.929-6.944V229.943c0-3.829-3.109-6.943-6.929-6.943H44.272c-4.235,0-9.689,2.272-12.683,5.285
			L5.242,254.792C2.254,257.797,0,263.267,0,267.515V380.231z"/>
	</g>
</g>
<path fill="#FFFFFF" d="M4.056,380.231c0,1.589,1.295,2.89,2.874,2.89h132.142c1.578,0,2.872-1.301,2.872-2.89V229.943
	c0-1.587-1.294-2.89-2.872-2.89H44.272c-3.157,0-7.57,1.839-9.805,4.085L8.118,257.648c-2.236,2.249-4.062,6.688-4.062,9.867
	V380.231z"/>
<path fill="#F16C22" d="M63.24,287.602c-2.2-2.215-5.767-2.215-7.967,0l-26.515,26.66l26.515,26.664
	c1.097,1.104,2.543,1.659,3.982,1.659c1.442,0,2.885-0.554,3.985-1.659c2.2-2.211,2.2-5.799,0-8.01L44.69,314.262L63.24,295.61
	C65.44,293.399,65.44,289.812,63.24,287.602 M91.095,287.602c-2.197-2.215-5.766-2.215-7.968,0c-2.197,2.21-2.197,5.797,0,8.008
	l18.548,18.651l-18.548,18.653c-2.197,2.211-2.197,5.799,0,8.01c1.101,1.104,2.544,1.659,3.984,1.659
	c1.441,0,2.884-0.554,3.983-1.659l26.517-26.664L91.095,287.602z"/>
<g opacity="0.1">
	<g>
		<defs>
			<rect id="SVGID_5_" y="466" width="146" height="164.175"/>
		</defs>
		<clipPath id="SVGID_6_">
			<use xlink:href="#SVGID_5_"  overflow="visible"/>
		</clipPath>
		<path clip-path="url(#SVGID_6_)" fill="#231F20" d="M0,623.231c0,3.828,3.109,6.944,6.929,6.944h132.142
			c3.819,0,6.929-3.116,6.929-6.944V472.945c0-3.83-3.109-6.944-6.929-6.944H44.272c-4.235,0-9.689,2.272-12.683,5.284
			L5.242,497.791C2.254,500.797,0,506.267,0,510.515V623.231z"/>
	</g>
</g>
<path fill="#FFFFFF" d="M4.056,623.231c0,1.59,1.295,2.89,2.874,2.89h132.142c1.578,0,2.872-1.3,2.872-2.89V472.945
	c0-1.59-1.294-2.892-2.872-2.892H44.272c-3.157,0-7.57,1.839-9.805,4.087L8.118,500.65c-2.236,2.247-4.062,6.686-4.062,9.866
	V623.231z"/>
<path fill="#67B945" d="M53.048,538.494c2.285-2.411,2.075-6.46-0.63-8.57c-2.183-1.702-5.292-1.181-7.207,0.842l-24.905,26.282
	c-0.036,0.038-0.036,0.101,0,0.142l25.162,26.552c1.045,1.104,2.419,1.657,3.791,1.657c1.185,0,2.371-0.412,3.346-1.239
	c2.549-2.162,2.399-6.348,0.087-8.789l-17.225-18.182c-0.038-0.041-0.038-0.104,0-0.142L53.048,538.494z M100.493,530.496
	c-2.09-2.21-5.485-2.21-7.58,0c-2.092,2.207-2.092,5.789,0,7.998l17.648,18.625l-17.648,18.625c-2.092,2.207-2.092,5.792,0,7.998
	c1.048,1.104,2.42,1.657,3.79,1.657c1.372,0,2.744-0.552,3.79-1.657l25.229-26.623L100.493,530.496z M82.782,529.197
	c-2.743-1.103-5.786,0.384-6.81,3.31l-15.864,45.25c-1.028,2.926,0.36,6.184,3.093,7.28c0.613,0.245,1.24,0.362,1.856,0.362
	c2.142,0,4.158-1.399,4.951-3.672l15.866-45.247C86.904,533.555,85.519,530.293,82.782,529.197"/>
<g opacity="0.1">
	<g>
		<defs>
			<rect id="SVGID_7_" y="709" width="146" height="164.175"/>
		</defs>
		<clipPath id="SVGID_8_">
			<use xlink:href="#SVGID_7_"  overflow="visible"/>
		</clipPath>
		<path clip-path="url(#SVGID_8_)" fill="#231F20" d="M0,866.232c0,3.828,3.109,6.943,6.929,6.943h132.142
			c3.819,0,6.929-3.115,6.929-6.943V715.944c0-3.828-3.109-6.944-6.929-6.944H44.272c-4.235,0-9.691,2.273-12.683,5.285
			L5.24,740.793C2.252,743.798,0,749.268,0,753.516V866.232z"/>
	</g>
</g>
<path fill="#FFFFFF" d="M4.056,866.232c0,1.589,1.293,2.89,2.874,2.89h132.142c1.578,0,2.872-1.301,2.872-2.89V715.944
	c0-1.587-1.294-2.89-2.872-2.89H44.272c-3.159,0-7.572,1.839-9.805,4.085l-26.349,26.51c-2.234,2.248-4.062,6.688-4.062,9.867
	V866.232z"/>
<polygon fill-rule="evenodd" clip-rule="evenodd" fill="#79BAD6" points="52.721,763.725 52.721,834.666 103.416,799.195 "/>
<g opacity="0.1">
	<g>
		<defs>
			<rect id="SVGID_9_" y="953" width="146" height="164.175"/>
		</defs>
		<clipPath id="SVGID_10_">
			<use xlink:href="#SVGID_9_"  overflow="visible"/>
		</clipPath>
		<path clip-path="url(#SVGID_10_)" fill="#231F20" d="M0,1110.232c0,3.829,3.109,6.943,6.929,6.943h132.142
			c3.819,0,6.929-3.115,6.929-6.943V959.944c0-3.828-3.109-6.943-6.929-6.943H44.272c-4.235,0-9.689,2.273-12.683,5.285
			L5.242,984.792C2.254,987.797,0,993.268,0,997.516V1110.232z"/>
	</g>
</g>
<path fill="#FFFFFF" d="M4.056,1110.232c0,1.589,1.295,2.89,2.874,2.89h132.142c1.578,0,2.872-1.301,2.872-2.89V959.944
	c0-1.587-1.294-2.89-2.872-2.89H44.272c-3.157,0-7.57,1.839-9.805,4.086L8.118,987.649c-2.236,2.249-4.062,6.688-4.062,9.867
	V1110.232z"/>
<path fill="#989798" d="M91.249,1066.504c0,3.345-2.736,6.081-6.082,6.081H34.472c-3.346,0-6.083-2.735-6.083-6.081v-42.564
	c0-3.345,2.737-6.08,6.083-6.08h50.695c3.346,0,6.082,2.735,6.082,6.08V1066.504z"/>
<polygon fill="#989798" points="97.333,1048.262 119.64,1070.558 119.64,1019.887 97.333,1042.181 "/>
<g opacity="0.1">
	<g>
		<defs>
			<rect id="SVGID_11_" y="1196" width="146" height="164.176"/>
		</defs>
		<clipPath id="SVGID_12_">
			<use xlink:href="#SVGID_11_"  overflow="visible"/>
		</clipPath>
		<path clip-path="url(#SVGID_12_)" fill="#231F20" d="M0,1353.233c0,3.828,3.109,6.943,6.929,6.943h132.142
			c3.819,0,6.929-3.115,6.929-6.943v-150.288c0-3.828-3.109-6.945-6.929-6.945H44.272c-4.235,0-9.689,2.273-12.683,5.286
			l-26.347,26.507C2.254,1230.797,0,1236.269,0,1240.517V1353.233z"/>
	</g>
</g>
<path fill="#FFFFFF" d="M4.056,1353.233c0,1.589,1.295,2.889,2.874,2.889h132.142c1.578,0,2.872-1.3,2.872-2.889v-150.288
	c0-1.587-1.294-2.89-2.872-2.89H44.272c-3.157,0-7.57,1.839-9.805,4.085l-26.349,26.51c-2.236,2.248-4.062,6.688-4.062,9.867
	V1353.233z"/>
<path fill="#989798" d="M54.75,1250.472v57.005l42.421-28.502L54.75,1250.472z M54.75,1329.773h-36.5v4.054h36.5V1329.773z
	 M60.833,1333.827h64.889v-4.054H60.833V1333.827z M18.25,1341.934h64.889v-4.054H18.25V1341.934z M89.223,1341.934h36.499v-4.054
	H89.223V1341.934z"/>
<g opacity="0.1">
	<g>
		<defs>
			<rect id="SVGID_13_" y="1439" width="146" height="164.176"/>
		</defs>
		<clipPath id="SVGID_14_">
			<use xlink:href="#SVGID_13_"  overflow="visible"/>
		</clipPath>
		<path clip-path="url(#SVGID_14_)" fill="#231F20" d="M0,1596.231c0,3.828,3.109,6.944,6.929,6.944h132.143
			c3.82,0,6.929-3.116,6.929-6.944v-150.288c0-3.827-3.108-6.943-6.929-6.943H44.272c-4.235,0-9.688,2.272-12.683,5.285
			l-26.348,26.508C2.254,1473.797,0,1479.269,0,1483.515V1596.231z"/>
	</g>
</g>
<path fill="#FFFFFF" d="M4.056,1596.231c0,1.59,1.295,2.89,2.873,2.89h132.143c1.578,0,2.873-1.3,2.873-2.89v-150.288
	c0-1.587-1.295-2.889-2.873-2.889H44.272c-3.157,0-7.57,1.839-9.806,4.085l-26.349,26.509c-2.235,2.25-4.062,6.688-4.062,9.867
	V1596.231z"/>
<g opacity="0.27">
	<g>
		<defs>
			<rect id="SVGID_15_" x="26.361" y="1493.577" width="83.286" height="83.249"/>
		</defs>
		<clipPath id="SVGID_16_">
			<use xlink:href="#SVGID_15_"  overflow="visible"/>
		</clipPath>
		<g clip-path="url(#SVGID_16_)">
			<defs>
				<path id="SVGID_17_" d="M95.178,1508.037c-19.205-19.198-49.608-19.321-68.816-0.125l68.943,68.913
					C114.514,1557.629,114.387,1527.238,95.178,1508.037"/>
			</defs>
			<clipPath id="SVGID_18_">
				<use xlink:href="#SVGID_17_"  overflow="visible"/>
			</clipPath>
			
				<linearGradient id="SVGID_19_" gradientUnits="userSpaceOnUse" x1="-1402.0029" y1="7223.6523" x2="-1399.9764" y2="7223.6523" gradientTransform="matrix(-14.2428 83.8909 83.8909 14.2428 -625889.875 16221.9375)">
				<stop  offset="0" style="stop-color:#FFFFFF"/>
				<stop  offset="1" style="stop-color:#231F20"/>
			</linearGradient>
			<polygon clip-path="url(#SVGID_18_)" fill="url(#SVGID_19_)" points="129.059,1491.184 112.043,1591.366 11.815,1574.358 
				28.831,1474.175 			"/>
		</g>
	</g>
</g>
<g opacity="0.6">
	<g>
		<defs>
			<rect id="SVGID_20_" x="24.924" y="1491.55" width="85.705" height="86.71"/>
		</defs>
		<clipPath id="SVGID_21_">
			<use xlink:href="#SVGID_20_"  overflow="visible"/>
		</clipPath>
		<path clip-path="url(#SVGID_21_)" fill="#D1D2D3" d="M95.917,1578.26l-1.475-1.395c18.857-19.927,18.871-49.841,0.034-68.1
			c-21.14-20.479-46.614-20.479-68.154,0.006l-1.398-1.469c22.085-21.007,49.276-21.004,70.96,0.006
			C115.532,1526.351,115.548,1557.514,95.917,1578.26"/>
	</g>
</g>
<g opacity="0.6">
	<g>
		<defs>
			<rect id="SVGID_22_" x="25.645" y="1493.131" width="84.616" height="84.372"/>
		</defs>
		<clipPath id="SVGID_23_">
			<use xlink:href="#SVGID_22_"  overflow="visible"/>
		</clipPath>
		<path clip-path="url(#SVGID_23_)" fill="none" stroke="#BBBDBF" stroke-miterlimit="10" d="M95.305,1576.826
			c18.251-20.269,18.973-50.758-0.127-68.785c-19.743-18.644-50.566-18.369-68.816-0.128"/>
	</g>
</g>
<rect x="92.286" y="1575.834" fill="#FFFFFF" width="4.014" height="4.014"/>
<path fill="#BBBDBF" d="M95.305,1578.853h-2.027v-2.027h2.027V1578.853z M97.291,1574.841h-1.986h-2.027H91.29v1.985v2.027v1.983
	h1.987h2.027h1.986v-1.983v-2.027V1574.841z"/>
<rect x="23.341" y="1506.921" fill="#FFFFFF" width="4.014" height="4.014"/>
<path fill="#BBBDBF" d="M26.361,1509.94h-2.028v-2.027h2.028V1509.94z M28.348,1505.928h-1.987h-2.028h-1.986v1.984v2.027v1.983
	h1.986h2.028h1.987v-1.983v-2.027V1505.928z"/>
<g opacity="0.6">
	<g>
		<defs>
			<rect id="SVGID_24_" x="66.244" y="1476.537" width="60.451" height="60.424"/>
		</defs>
		<clipPath id="SVGID_25_">
			<use xlink:href="#SVGID_24_"  overflow="visible"/>
		</clipPath>
		
			<rect x="54.746" y="1505.737" transform="matrix(0.7073 0.7069 -0.7069 0.7073 1093.4347 372.8796)" clip-path="url(#SVGID_25_)" fill="#BBBDBF" width="83.446" height="2.025"/>
	</g>
</g>
<path fill="#BBBDBF" d="M68.988,1477.51c0-1.118-0.909-2.027-2.029-2.027c-1.12,0-2.026,0.909-2.026,2.027
	c0,1.119,0.906,2.027,2.026,2.027C68.08,1479.537,68.988,1478.629,68.988,1477.51"/>
<path fill="#BBBDBF" d="M68.988,1477.51c0-1.118-0.909-2.027-2.029-2.027c-1.12,0-2.026,0.909-2.026,2.027
	c0,1.119,0.906,2.027,2.026,2.027C68.08,1479.537,68.988,1478.629,68.988,1477.51"/>
<path fill="#BBBDBF" d="M127.749,1536.288c0-1.118-0.908-2.026-2.026-2.026c-1.12,0-2.029,0.908-2.029,2.026
	c0,1.12,0.909,2.027,2.029,2.027C126.841,1538.316,127.749,1537.408,127.749,1536.288"/>
<path fill="#BBBDBF" d="M127.749,1536.288c0-1.118-0.908-2.026-2.026-2.026c-1.12,0-2.029,0.908-2.029,2.026
	c0,1.12,0.909,2.027,2.029,2.027C126.841,1538.316,127.749,1537.408,127.749,1536.288"/>
<rect x="94.313" y="1504.894" fill="#FFFFFF" width="4.014" height="4.013"/>
<path fill="#BBBDBF" d="M97.333,1507.913h-2.028v-2.027h2.028V1507.913z M99.319,1503.901h-1.986h-2.028h-1.985v1.984v2.027v1.984
	h1.985h2.028h1.986v-1.984v-2.027V1503.901z"/>
<g opacity="0.1">
	<g>
		<defs>
			<rect id="SVGID_26_" y="1682" width="146" height="164.176"/>
		</defs>
		<clipPath id="SVGID_27_">
			<use xlink:href="#SVGID_26_"  overflow="visible"/>
		</clipPath>
		<path clip-path="url(#SVGID_27_)" fill="#231F20" d="M0,1839.231c0,3.828,3.109,6.945,6.929,6.945h132.142
			c3.819,0,6.929-3.117,6.929-6.945v-150.287c0-3.829-3.109-6.944-6.929-6.944H44.272c-4.235,0-9.691,2.272-12.683,5.285
			L5.24,1713.792c-2.986,3.005-5.24,8.476-5.24,12.724V1839.231z"/>
	</g>
</g>
<path fill="#FFFFFF" d="M4.056,1839.231c0,1.59,1.293,2.89,2.874,2.89h132.142c1.578,0,2.872-1.3,2.872-2.89v-150.287
	c0-1.588-1.294-2.89-2.872-2.89H44.272c-3.157,0-7.57,1.838-9.805,4.085l-26.349,26.51c-2.236,2.248-4.062,6.686-4.062,9.866
	V1839.231z"/>
<path fill="#989798" d="M115.956,1798.51c-2.298-2.36-22.688-11.792-26.516-13.059c0-0.832-0.446-3.695-1.528-4.207
	c-1.023-0.383-4.397-2.037-4.397-2.037c0-0.249-0.381-0.963-0.444-1.721c0-0.829,0.444-1.651,0.444-1.651
	c0.453-0.899,2.104-2.999,2.547-4.654c0.448-1.654,0.958-5.86,0.958-5.86c0-0.898,1.341-1.275,2.167-1.716
	c1.465-0.702,2.679-9.686,2.679-9.686c0-2.93-1.214-1.664-1.214-3.758v-7.833c0-9.626-7.773-15.737-17.466-15.737h-0.372
	c-9.693,0-17.465,6.111-17.465,15.737v7.833c0,2.094-1.211,0.828-1.211,3.758c0,0,1.211,8.984,2.676,9.683
	c0.826,0.441,2.167,0.821,2.167,1.719c0,0,0.508,4.204,0.958,5.86c0.439,1.653,2.096,3.755,2.546,4.654c0,0,0.446,0.822,0.446,1.651
	c-0.062,0.758-0.446,1.473-0.446,1.721c0,0-3.377,1.654-4.398,2.037c-1.082,0.511-1.525,3.375-1.525,4.207
	c-3.825,1.268-24.219,10.699-26.517,13.059c-1.655,1.723-1.655,11.786-1.655,11.786v1.272c0,2.292,1.909,4.204,4.208,4.204h80.806
	c2.295,0,4.208-1.908,4.208-4.204v-1.272C117.611,1810.296,117.611,1800.233,115.956,1798.51"/>
<g opacity="0.1">
	<g>
		<defs>
			<rect id="SVGID_28_" y="1926.001" width="146" height="164.174"/>
		</defs>
		<clipPath id="SVGID_29_">
			<use xlink:href="#SVGID_28_"  overflow="visible"/>
		</clipPath>
		<path clip-path="url(#SVGID_29_)" fill="#231F20" d="M0,2083.231c0,3.828,3.109,6.943,6.929,6.943h132.142
			c3.819,0,6.929-3.115,6.929-6.943v-150.286c0-3.83-3.109-6.944-6.929-6.944H44.272c-4.235,0-9.691,2.272-12.683,5.285
			L5.24,1957.791c-2.986,3.007-5.24,8.477-5.24,12.725V2083.231z"/>
	</g>
</g>
<path fill="#FFFFFF" d="M4.056,2083.231c0,1.59,1.293,2.891,2.874,2.891h132.142c1.578,0,2.872-1.301,2.872-2.891v-150.286
	c0-1.59-1.294-2.891-2.872-2.891H44.272c-3.157,0-7.57,1.839-9.805,4.086l-26.349,26.51c-2.236,2.247-4.062,6.686-4.062,9.865
	V2083.231z"/>
<polygon fill-rule="evenodd" clip-rule="evenodd" fill="#8ABB59" points="83.139,2007.075 103.416,2007.075 73,1970.591 
	42.583,2007.075 62.862,2007.075 62.862,2025.316 42.583,2025.316 73,2061.799 103.416,2025.316 83.139,2025.316 "/>
<g opacity="0.1">
	<g>
		<defs>
			<rect id="SVGID_30_" y="2169.001" width="146" height="164.174"/>
		</defs>
		<clipPath id="SVGID_31_">
			<use xlink:href="#SVGID_30_"  overflow="visible"/>
		</clipPath>
		<path clip-path="url(#SVGID_31_)" fill="#231F20" d="M0,2326.231c0,3.828,3.109,6.943,6.929,6.943h132.142
			c3.819,0,6.929-3.115,6.929-6.943v-150.286c0-3.83-3.109-6.944-6.929-6.944H44.272c-4.235,0-9.691,2.271-12.683,5.284
			L5.24,2200.791c-2.986,3.006-5.24,8.477-5.24,12.725V2326.231z"/>
	</g>
</g>
<path fill="#FFFFFF" d="M4.056,2326.231c0,1.59,1.293,2.891,2.874,2.891h132.142c1.58,0,2.872-1.301,2.872-2.891v-150.286
	c0-1.591-1.292-2.892-2.872-2.892H44.272c-3.157,0-7.572,1.838-9.805,4.087l-26.349,26.509c-2.236,2.247-4.062,6.687-4.062,9.866
	V2326.231z"/>
<path fill="#989798" d="M25.092,2248.041c-0.095,0.499,0.027,0.851,0.374,1.057c0.349,0.205,1.014,0.317,2,0.344l-0.121,0.634H18.25
	l0.822-0.634c1.032-0.216,1.894-0.621,2.583-1.208c0.689-0.588,2.145-2.167,4.363-4.734l16.566-19.774h2.028v22.296v2.027
	c0.313,0.35,0.808,1.291,2.027,1.394l-0.122,0.634H35.476l0.123-0.634c1.347-0.115,2.239-0.242,2.662-0.421
	c2.295-0.973,2.295-3,2.295-3v-4.055H30.417L25.092,2248.041z M40.556,2239.94l0.069-10.177l-8.18,10.177H40.556z"/>
<rect x="48.668" y="2223.725" fill="#989798" width="79.081" height="4.054"/>
<rect x="48.668" y="2233.859" fill="#989798" width="79.081" height="4.054"/>
<rect x="48.668" y="2243.993" fill="#989798" width="79.081" height="4.055"/>
<rect x="18.25" y="2254.127" fill="#989798" width="109.499" height="4.055"/>
<rect x="18.25" y="2264.262" fill="#989798" width="109.499" height="4.054"/>
<rect x="18.25" y="2274.396" fill="#989798" width="109.499" height="4.054"/>
<rect x="18.25" y="2284.53" fill="#989798" width="109.499" height="4.055"/>
<rect x="18.25" y="2294.664" fill="#989798" width="109.499" height="4.055"/>
<rect x="18.25" y="2304.799" fill="#989798" width="28.389" height="4.054"/>
<g opacity="0.1">
	<g>
		<defs>
			<rect id="SVGID_32_" y="2412" width="146" height="164.175"/>
		</defs>
		<clipPath id="SVGID_33_">
			<use xlink:href="#SVGID_32_"  overflow="visible"/>
		</clipPath>
		<path clip-path="url(#SVGID_33_)" fill="#231F20" d="M0,2569.232c0,3.828,3.109,6.942,6.929,6.942h132.142
			c3.819,0,6.929-3.114,6.929-6.942v-150.286c0-3.83-3.109-6.946-6.929-6.946H44.272c-4.235,0-9.691,2.273-12.683,5.285
			L5.24,2443.792c-2.986,3.006-5.24,8.477-5.24,12.725V2569.232z"/>
	</g>
</g>
<path fill="#FFFFFF" d="M4.056,2569.232c0,1.589,1.293,2.891,2.874,2.891h132.142c1.578,0,2.872-1.302,2.872-2.891v-150.286
	c0-1.591-1.294-2.893-2.872-2.893H44.272c-3.157,0-7.572,1.839-9.805,4.087l-26.349,26.51c-2.236,2.247-4.062,6.687-4.062,9.866
	V2569.232z"/>
<path fill-rule="evenodd" clip-rule="evenodd" fill="#CE342F" d="M101.389,2470.779v-14.188c-40.556,0-34.473,62.833-60.833,62.833
	v14.188c22.306,0,28.369-12.745,34.472-28.376h18.25v-14.187H81.11C85.223,2482.126,92.891,2470.779,101.389,2470.779"/>
<g opacity="0.1">
	<g>
		<defs>
			<rect id="SVGID_34_" y="2655" width="146" height="164.175"/>
		</defs>
		<clipPath id="SVGID_35_">
			<use xlink:href="#SVGID_34_"  overflow="visible"/>
		</clipPath>
		<path clip-path="url(#SVGID_35_)" fill="#231F20" d="M0,2812.231c0,3.829,3.109,6.943,6.929,6.943h132.142
			c3.819,0,6.929-3.114,6.929-6.943v-150.287c0-3.828-3.109-6.944-6.929-6.944H44.272c-4.235,0-9.691,2.272-12.683,5.285
			L5.24,2686.793c-2.987,3.003-5.24,8.476-5.24,12.724V2812.231z"/>
	</g>
</g>
<path fill="#FFFFFF" d="M4.056,2812.231c0,1.589,1.293,2.89,2.874,2.89h132.142c1.578,0,2.872-1.301,2.872-2.89v-150.287
	c0-1.588-1.294-2.891-2.872-2.891H44.272c-3.158,0-7.572,1.839-9.805,4.086L8.118,2689.65c-2.235,2.247-4.062,6.687-4.062,9.866
	V2812.231z"/>
<path fill-rule="evenodd" clip-rule="evenodd" fill="#53A546" d="M18.25,2727.84h28.389v-24.197H18.25V2727.84z M18.25,2764.449
	h28.389v-24.195H18.25V2764.449z M18.25,2800.807h28.389v-24.197H18.25V2800.807z"/>
<path fill-rule="evenodd" clip-rule="evenodd" fill="#53A546" d="M58.806,2727.84h28.389v-24.197H58.806V2727.84z M58.806,2764.449
	h28.389v-24.195H58.806V2764.449z M58.806,2800.807h28.389v-24.197H58.806V2800.807z"/>
<path fill-rule="evenodd" clip-rule="evenodd" fill="#53A546" d="M99.361,2727.84h28.388v-24.197H99.361V2727.84z M99.361,2764.449
	h28.388v-24.195H99.361V2764.449z M99.361,2800.807h28.388v-24.197H99.361V2800.807z"/>
<g opacity="0.1">
	<g>
		<defs>
			<rect id="SVGID_36_" y="2899" width="146" height="164.176"/>
		</defs>
		<clipPath id="SVGID_37_">
			<use xlink:href="#SVGID_36_"  overflow="visible"/>
		</clipPath>
		<path clip-path="url(#SVGID_37_)" fill="#231F20" d="M0,3056.232c0,3.827,3.109,6.943,6.929,6.943h132.142
			c3.819,0,6.929-3.116,6.929-6.943v-150.287c0-3.829-3.109-6.945-6.929-6.945H44.272c-4.235,0-9.691,2.272-12.683,5.285
			L5.24,2930.794c-2.986,3.003-5.24,8.475-5.24,12.723V3056.232z"/>
	</g>
</g>
<path fill="#FFFFFF" d="M4.056,3056.232c0,1.589,1.293,2.89,2.874,2.89h132.142c1.578,0,2.872-1.301,2.872-2.89v-150.287
	c0-1.588-1.294-2.891-2.872-2.891H44.272c-3.157,0-7.57,1.838-9.805,4.085l-26.349,26.512c-2.236,2.247-4.062,6.686-4.062,9.865
	V3056.232z"/>
<path fill-rule="evenodd" clip-rule="evenodd" fill="#989798" d="M119.64,2998.316v-16.215h-17.352
	c-0.67-2.423-1.62-4.727-2.836-6.867l12.261-12.257l-11.469-11.465L87.98,2963.77c-2.14-1.216-4.445-2.166-6.87-2.836v-17.342
	H64.889v17.342c-2.426,0.67-4.728,1.62-6.871,2.836l-12.262-12.257l-11.469,11.465l12.263,12.257
	c-1.217,2.141-2.168,4.444-2.836,6.867H26.362v16.215h17.351c0.668,2.425,1.62,4.727,2.836,6.868l-12.263,12.256l11.469,11.464
	l12.262-12.256c2.144,1.215,4.445,2.166,6.871,2.837v17.341H81.11v-17.341c2.425-0.671,4.73-1.622,6.87-2.837l12.264,12.256
	l11.469-11.464l-12.261-12.256c1.216-2.142,2.166-4.443,2.836-6.868H119.64z M73,3006.425c-8.958,0-16.222-7.261-16.222-16.216
	c0-8.954,7.264-16.215,16.222-16.215c8.959,0,16.223,7.261,16.223,16.215C89.223,2999.164,81.959,3006.425,73,3006.425"/>
<g opacity="0.1">
	<g>
		<defs>
			<rect id="SVGID_38_" y="3141.999" width="146" height="164.177"/>
		</defs>
		<clipPath id="SVGID_39_">
			<use xlink:href="#SVGID_38_"  overflow="visible"/>
		</clipPath>
		<path clip-path="url(#SVGID_39_)" fill="#231F20" d="M0,3299.229c0,3.829,3.109,6.946,6.929,6.946h132.142
			c3.819,0,6.929-3.117,6.929-6.946v-150.286c0-3.829-3.109-6.944-6.929-6.944H44.272c-4.235,0-9.691,2.272-12.683,5.284
			L5.24,3173.792c-2.986,3.004-5.24,8.475-5.24,12.723V3299.229z"/>
	</g>
</g>
<path fill="#FFFFFF" d="M4.056,3299.229c0,1.591,1.293,2.891,2.874,2.891h132.142c1.578,0,2.872-1.3,2.872-2.891v-150.286
	c0-1.589-1.294-2.89-2.872-2.89H44.272c-3.157,0-7.57,1.838-9.805,4.085l-26.349,26.509c-2.236,2.249-4.062,6.688-4.062,9.867
	V3299.229z"/>
<path fill="#046EAB" d="M125.722,3231.181c0-17.448-22.021-30.403-50.694-30.403c-28.673,0-52.722,12.955-52.722,30.403
	c0,17.447,22.931,31.946,51.604,31.946c0.773,0,1.545-0.054,2.312-0.08l-0.058,0.013l-11.275,20.82l42.584-28.377
	C116.706,3249.82,125.722,3239.815,125.722,3231.181"/>
<path fill="#FFFFFF" d="M113.555,3231.181c0-12.463-17.331-22.296-38.527-22.296c-21.194,0-40.555,9.833-40.555,22.296
	c0,12.453,17.333,22.296,38.528,22.296c3.632,0,8.11,0,12.167-2.027l-6.083,12.161l20.277-15.787v-0.023
	C105.444,3243.687,113.555,3237.618,113.555,3231.181"/>
<path fill="#010101" d="M68.225,3218.092h8.527l-1.53,5.356h0.101c2.371-2.071,4.476-3.533,6.309-4.395
	c1.85-0.854,2.818-0.896,5.348-0.896c1.368,0,3.148-0.152,3.985,0l-1.995,7.964c-1.868-0.514-3.132-0.993-4.539-0.993
	c-3.104,0-5.622,0.673-7.574,2.02c-1.93,1.364-2.244,2.589-2.945,5.151l-2.843,11.363h-8.528L68.225,3218.092z"/>
<g opacity="0.1">
	<g>
		<defs>
			<rect id="SVGID_40_" y="3385" width="146" height="164.176"/>
		</defs>
		<clipPath id="SVGID_41_">
			<use xlink:href="#SVGID_40_"  overflow="visible"/>
		</clipPath>
		<path clip-path="url(#SVGID_41_)" fill="#231F20" d="M0,3542.23c0,3.829,3.109,6.945,6.929,6.945h132.142
			c3.819,0,6.929-3.116,6.929-6.945v-150.286c0-3.829-3.109-6.944-6.929-6.944H44.272c-4.235,0-9.691,2.272-12.683,5.284
			L5.24,3416.792c-2.987,3.005-5.24,8.476-5.24,12.724V3542.23z"/>
	</g>
</g>
<path fill="#FFFFFF" d="M4.056,3542.23c0,1.591,1.293,2.891,2.874,2.891h132.142c1.578,0,2.872-1.3,2.872-2.891v-150.286
	c0-1.589-1.294-2.891-2.872-2.891H44.272c-3.158,0-7.572,1.839-9.805,4.084l-26.349,26.514c-2.235,2.246-4.062,6.686-4.062,9.864
	V3542.23z"/>
<path fill="#989798" d="M56.955,3492.423l-20.973-35.172c-3.524,6.194-5.564,13.346-5.564,20.985c0,4.982,0.899,9.745,2.475,14.187
	H56.955z"/>
<path fill="#989798" d="M52.011,3472.256l22.03-36.53c-0.347-0.01-0.689-0.054-1.041-0.054c-13.466,0-25.45,6.263-33.253,16.017
	L52.011,3472.256z"/>
<path fill="#989798" d="M67.733,3457.968H73h12.167h25.286c-6.028-11.108-16.868-19.201-29.719-21.561L67.733,3457.968z"/>
<path fill="#989798" d="M78.077,3498.504H60.833H35.547c6.009,11.068,16.792,19.149,29.582,21.539L78.077,3498.504z"/>
<path fill="#989798" d="M88.976,3464.048l21.01,35.229c3.545-6.208,5.599-13.381,5.599-21.041c0-4.983-0.904-9.744-2.476-14.188
	H88.976z"/>
<path fill="#989798" d="M93.845,3484.086l-22.038,36.654c0.4,0.011,0.789,0.059,1.193,0.059c13.442,0,25.411-6.239,33.215-15.965
	L93.845,3484.086z"/>
<g opacity="0.1">
	<g>
		<defs>
			<rect id="SVGID_42_" y="3628" width="146" height="164.175"/>
		</defs>
		<clipPath id="SVGID_43_">
			<use xlink:href="#SVGID_42_"  overflow="visible"/>
		</clipPath>
		<path clip-path="url(#SVGID_43_)" fill="#231F20" d="M0,3785.23c0,3.829,3.109,6.944,6.929,6.944h132.142
			c3.819,0,6.929-3.115,6.929-6.944v-150.287c0-3.828-3.109-6.943-6.929-6.943H44.272c-4.235,0-9.691,2.271-12.683,5.284
			L5.24,3659.792c-2.986,3.004-5.24,8.476-5.24,12.723V3785.23z"/>
	</g>
</g>
<path fill="#FFFFFF" d="M4.056,3785.23c0,1.591,1.293,2.89,2.874,2.89h132.142c1.578,0,2.872-1.299,2.872-2.89v-150.287
	c0-1.588-1.294-2.89-2.872-2.89H44.272c-3.157,0-7.572,1.839-9.805,4.084l-26.349,26.514c-2.236,2.244-4.062,6.686-4.062,9.863
	V3785.23z"/>
<g opacity="0.7">
	<g>
		<defs>
			<rect id="SVGID_44_" x="34.472" y="3676.726" width="45.747" height="66.805"/>
		</defs>
		<clipPath id="SVGID_45_">
			<use xlink:href="#SVGID_44_"  overflow="visible"/>
		</clipPath>
		<path clip-path="url(#SVGID_45_)" fill="#B781B7" d="M34.472,3678.097c4.439-0.791,10.676-1.377,19.464-1.377
			c8.889,0,15.223,1.77,19.472,5.312c4.071,3.346,6.811,8.859,6.811,15.348c0,6.492-2.087,12.003-5.864,15.743
			c-4.909,4.826-12.191,6.987-20.695,6.987c-1.892,0-3.593-0.095-4.916-0.295v23.715H34.472V3678.097z M48.743,3708.207
			c1.229,0.295,2.738,0.392,4.817,0.392c7.658,0,12.381-4.039,12.381-10.826c0-6.095-4.063-9.731-11.243-9.731
			c-2.931,0-4.919,0.288-5.956,0.583V3708.207z"/>
	</g>
</g>
<g opacity="0.7">
	<g>
		<defs>
			<rect id="SVGID_46_" x="87.377" y="3699.569" width="24.15" height="43.961"/>
		</defs>
		<clipPath id="SVGID_47_">
			<use xlink:href="#SVGID_46_"  overflow="visible"/>
		</clipPath>
		<path clip-path="url(#SVGID_47_)" fill="#B781B7" d="M109.5,3711.101c-3.181-1.508-7.968-1.133-10.139,0v32.43H87.377v-40.211
			c5.01-2.737,12.028-4.252,24.15-3.593L109.5,3711.101z"/>
	</g>
</g>
<g opacity="0.18">
	<g>
		<defs>
			<rect id="SVGID_48_" x="30.417" y="3632.054" width="85.167" height="156.066"/>
		</defs>
		<clipPath id="SVGID_49_">
			<use xlink:href="#SVGID_48_"  overflow="visible"/>
		</clipPath>
	</g>
</g>
<g opacity="0.27">
	<g>
		<defs>
			<rect id="SVGID_50_" x="4.056" y="3743.53" width="137.888" height="44.59"/>
		</defs>
		<clipPath id="SVGID_51_">
			<use xlink:href="#SVGID_50_"  overflow="visible"/>
		</clipPath>
	</g>
</g>
<g opacity="0.27">
	<g>
		<defs>
			<rect id="SVGID_52_" x="4.056" y="3632.054" width="137.888" height="44.592"/>
		</defs>
		<clipPath id="SVGID_53_">
			<use xlink:href="#SVGID_52_"  overflow="visible"/>
		</clipPath>
	</g>
</g>
<g opacity="0.1">
	<g>
		<defs>
			<rect id="SVGID_54_" y="3872.001" width="146" height="164.174"/>
		</defs>
		<clipPath id="SVGID_55_">
			<use xlink:href="#SVGID_54_"  overflow="visible"/>
		</clipPath>
		<path clip-path="url(#SVGID_55_)" fill="#231F20" d="M0,4029.233c0,3.828,3.109,6.941,6.929,6.941h132.142
			c3.819,0,6.929-3.113,6.929-6.941v-150.289c0-3.827-3.109-6.943-6.929-6.943H44.272c-4.235,0-9.689,2.273-12.683,5.285
			l-26.347,26.507C2.254,3906.799,0,3912.269,0,3916.517V4029.233z"/>
	</g>
</g>
<path fill="#FFFFFF" d="M4.056,4029.233c0,1.589,1.295,2.891,2.874,2.891h132.142c1.578,0,2.872-1.302,2.872-2.891v-150.289
	c0-1.587-1.294-2.89-2.872-2.89H44.272c-3.157,0-7.57,1.839-9.805,4.086l-26.349,26.51c-2.236,2.247-4.062,6.688-4.062,9.866
	V4029.233z"/>
<path fill="#E97324" d="M103.416,3951.567c0-13.669-14.193-22.814-30.416-22.814H50.694v12.162h8.112v56.75h12.166v-22.295H73
	C91.249,3975.37,103.416,3966.274,103.416,3951.567 M70.972,3963.209v-22.294c16.224,0,20.277,2.977,20.277,11.084
	S87.195,3963.209,70.972,3963.209"/>
<g opacity="0.1">
	<g>
		<defs>
			<rect id="SVGID_56_" y="4114.999" width="146" height="164.177"/>
		</defs>
		<clipPath id="SVGID_57_">
			<use xlink:href="#SVGID_56_"  overflow="visible"/>
		</clipPath>
		<path clip-path="url(#SVGID_57_)" fill="#231F20" d="M0,4272.231c0,3.827,3.109,6.944,6.929,6.944h132.142
			c3.819,0,6.929-3.117,6.929-6.944v-150.288c0-3.828-3.109-6.944-6.929-6.944H44.272c-4.235,0-9.691,2.274-12.683,5.286
			L5.24,4146.793c-2.987,3.004-5.24,8.475-5.24,12.723V4272.231z"/>
	</g>
</g>
<path fill="#FFFFFF" d="M4.056,4272.231c0,1.589,1.293,2.89,2.874,2.89h132.142c1.578,0,2.872-1.301,2.872-2.89v-150.288
	c0-1.587-1.294-2.89-2.872-2.89H44.272c-3.158,0-7.572,1.839-9.805,4.085l-26.349,26.51c-2.235,2.248-4.062,6.688-4.062,9.867
	V4272.231z"/>
<g>
	<defs>
		<path id="SVGID_58_" d="M38.528,4195.062c0-19.591,15.886-35.472,35.485-35.472c19.6,0,35.486,15.881,35.486,35.472
			c0,19.589-15.887,35.469-35.486,35.469C54.415,4230.53,38.528,4214.65,38.528,4195.062 M32.445,4195.062
			c0,22.948,18.61,41.55,41.568,41.55s41.57-18.602,41.57-41.55c0-22.95-18.612-41.551-41.57-41.551
			S32.445,4172.111,32.445,4195.062"/>
	</defs>
	<clipPath id="SVGID_59_">
		<use xlink:href="#SVGID_58_"  overflow="visible"/>
	</clipPath>
	
		<linearGradient id="SVGID_60_" gradientUnits="userSpaceOnUse" x1="-1250.2231" y1="7212.2852" x2="-1248.1964" y2="7212.2852" gradientTransform="matrix(0 -33.0802 -33.0802 0 238657.5938 -37133.0625)">
		<stop  offset="0" style="stop-color:#FFFFFF"/>
		<stop  offset="1" style="stop-color:#9F82B0"/>
	</linearGradient>
	<rect x="32.445" y="4153.511" clip-path="url(#SVGID_59_)" fill="url(#SVGID_60_)" width="83.139" height="83.101"/>
</g>
<g>
	<defs>
		<path id="SVGID_61_" d="M50.694,4195.062c0-12.872,10.439-23.31,23.32-23.31c12.879,0,23.319,10.438,23.319,23.31
			s-10.44,23.308-23.319,23.308C61.133,4218.369,50.694,4207.934,50.694,4195.062 M44.611,4195.062
			c0,16.23,13.165,29.39,29.402,29.39c16.238,0,29.402-13.159,29.402-29.39c0-16.231-13.164-29.392-29.402-29.392
			C57.776,4165.67,44.611,4178.83,44.611,4195.062"/>
	</defs>
	<clipPath id="SVGID_62_">
		<use xlink:href="#SVGID_61_"  overflow="visible"/>
	</clipPath>
	
		<linearGradient id="SVGID_63_" gradientUnits="userSpaceOnUse" x1="-1214.5435" y1="7207.4395" x2="-1212.5162" y2="7207.4395" gradientTransform="matrix(0 -23.3982 -23.3982 0 168714.8281 -24202.1562)">
		<stop  offset="0" style="stop-color:#FFFFFF"/>
		<stop  offset="1" style="stop-color:#9F82B0"/>
	</linearGradient>
	<rect x="44.611" y="4165.67" clip-path="url(#SVGID_62_)" fill="url(#SVGID_63_)" width="58.805" height="58.781"/>
</g>
<g opacity="0.8">
	<g>
		<defs>
			<rect id="SVGID_64_" x="58.806" y="4179.859" width="30.112" height="70.939"/>
		</defs>
		<clipPath id="SVGID_65_">
			<use xlink:href="#SVGID_64_"  overflow="visible"/>
		</clipPath>
		<path clip-path="url(#SVGID_65_)" fill="#241C27" d="M79.2,4208.667c5.617-2.136,9.616-7.551,9.616-13.913
			c0-8.227-6.672-14.896-14.902-14.896c-8.23,0-14.898,6.67-14.898,14.896c0,6.354,3.987,11.765,9.593,13.904
			c-5.073,1.576-9.803,5.223-9.803,9.896c0,6.388,4.302,32.243,15.054,32.243c10.751,0,15.055-27.942,15.055-32.243
			C88.915,4213.8,84.242,4210.223,79.2,4208.667"/>
	</g>
</g>
<g opacity="0.1">
	<g>
		<defs>
			<rect id="SVGID_66_" y="4358.001" width="146" height="164.174"/>
		</defs>
		<clipPath id="SVGID_67_">
			<use xlink:href="#SVGID_66_"  overflow="visible"/>
		</clipPath>
		<path clip-path="url(#SVGID_67_)" fill="#231F20" d="M0,4515.232c0,3.829,3.109,6.942,6.929,6.942h132.142
			c3.819,0,6.929-3.113,6.929-6.942v-150.288c0-3.828-3.109-6.943-6.929-6.943H44.272c-4.235,0-9.691,2.271-12.683,5.285
			L5.24,4389.793c-2.986,3.004-5.24,8.476-5.24,12.724V4515.232z"/>
	</g>
</g>
<path fill="#FFFFFF" d="M4.056,4515.232c0,1.589,1.293,2.89,2.874,2.89h132.142c1.578,0,2.872-1.301,2.872-2.89v-150.288
	c0-1.587-1.294-2.89-2.872-2.89H44.272c-3.157,0-7.572,1.839-9.805,4.085L8.118,4392.65c-2.236,2.247-4.062,6.687-4.062,9.866
	V4515.232z"/>
<path fill="#79BAD6" d="M110.175,4431.553c-2.807-2.962-7.966-8.692-8.786-8.692v40.537l4.056,6.08v-28.375
	c0-2.234,3.505-3.23,5.825-1.046c2.543,2.392,3.447,5.78,2.124,9.154c-0.513,1.044,0.396,1.442,0.937,0.917
	c1.118-1.414,1.254-4.973,1.254-6.999C115.584,4438.833,113.098,4434.629,110.175,4431.553 M77.057,4463.397H42.583
	c-1.468,0-2.027,0.555-2.027,2.027v8.106c0,1.473,0.559,2.026,2.027,2.026h34.474c1.466,0,2.027-0.554,2.027-2.026v-8.106
	C79.084,4463.952,78.522,4463.397,77.057,4463.397 M91.249,4443.129H42.583c-1.468,0-2.027,0.554-2.027,2.026v8.107
	c0,1.473,0.559,2.027,2.027,2.027h48.666c1.468,0,2.028-0.555,2.028-2.027v-8.107C93.277,4443.683,92.717,4443.129,91.249,4443.129
	 M91.249,4422.86H42.583c-1.468,0-2.027,0.555-2.027,2.027v8.107c0,1.473,0.559,2.026,2.027,2.026h48.666
	c1.468,0,2.028-0.554,2.028-2.026v-8.107C93.277,4423.415,92.717,4422.86,91.249,4422.86"/>
<path fill="#79BAD6" d="M105.444,4468.464c0,3.92-4.541,7.094-10.14,7.094c-5.6,0-10.138-3.174-10.138-7.094
	s4.538-7.094,10.138-7.094C100.903,4461.37,105.444,4464.544,105.444,4468.464"/>
<g opacity="0.1">
	<g>
		<defs>
			<rect id="SVGID_68_" y="4600.999" width="146" height="164.177"/>
		</defs>
		<clipPath id="SVGID_69_">
			<use xlink:href="#SVGID_68_"  overflow="visible"/>
		</clipPath>
		<path clip-path="url(#SVGID_69_)" fill="#231F20" d="M0,4758.229c0,3.829,3.109,6.946,6.929,6.946h132.142
			c3.819,0,6.929-3.117,6.929-6.946v-150.287c0-3.827-3.109-6.943-6.929-6.943H44.272c-4.235,0-9.691,2.272-12.683,5.284
			L5.24,4632.792c-2.986,3.004-5.24,8.476-5.24,12.723V4758.229z"/>
	</g>
</g>
<path fill="#FFFFFF" d="M4.056,4758.229c0,1.591,1.293,2.89,2.874,2.89h132.142c1.578,0,2.872-1.299,2.872-2.89v-150.287
	c0-1.589-1.294-2.889-2.872-2.889H44.272c-3.157,0-7.572,1.837-9.805,4.085l-26.349,26.511c-2.236,2.247-4.062,6.687-4.062,9.865
	V4758.229z"/>
<g opacity="0.7">
	<g>
		<defs>
			<rect id="SVGID_70_" x="32.445" y="4649.705" width="45.543" height="66.825"/>
		</defs>
		<clipPath id="SVGID_71_">
			<use xlink:href="#SVGID_70_"  overflow="visible"/>
		</clipPath>
		<path clip-path="url(#SVGID_71_)" fill="#44C2F1" d="M32.445,4651.078c4.421-0.796,10.625-1.382,19.374-1.382
			c8.847,0,15.152,1.772,19.381,5.315c4.054,3.352,6.779,8.863,6.779,15.355s-2.075,12.004-5.837,15.748
			c-4.887,4.826-12.132,6.988-20.599,6.988c-1.884,0-3.577-0.098-4.896-0.299v23.726H32.445V4651.078z M46.647,4681.193
			c1.225,0.298,2.728,0.395,4.797,0.395c7.62,0,12.327-4.039,12.327-10.828c0-6.099-4.046-9.736-11.194-9.736
			c-2.917,0-4.896,0.287-5.929,0.584V4681.193z"/>
	</g>
</g>
<g opacity="0.7">
	<g>
		<defs>
			<rect id="SVGID_72_" x="80.605" y="4668.574" width="34.795" height="47.956"/>
		</defs>
		<clipPath id="SVGID_73_">
			<use xlink:href="#SVGID_72_"  overflow="visible"/>
		</clipPath>
		<path clip-path="url(#SVGID_73_)" fill="#44C2F1" d="M83.142,4703.076c2.635,1.607,8.089,3.484,12.326,3.484
			c4.327,0,6.113-1.508,6.113-3.851c0-2.359-1.412-3.485-6.773-5.27c-9.508-3.202-13.176-8.378-13.077-13.831
			c0-8.553,7.339-15.038,18.724-15.038c5.362,0,10.158,1.218,12.977,2.628l-2.534,9.877c-2.069-1.127-6.022-2.635-9.976-2.635
			c-3.479,0-5.453,1.408-5.453,3.761c0,2.159,1.785,3.293,7.43,5.267c8.75,3.012,12.418,7.43,12.513,14.197
			c0,8.563-6.774,14.864-19.942,14.864c-6.023,0-11.385-1.315-14.872-3.201L83.142,4703.076z"/>
	</g>
</g>
<g opacity="0.18">
	<g>
		<defs>
			<rect id="SVGID_74_" x="30.417" y="4605.054" width="85.167" height="156.065"/>
		</defs>
		<clipPath id="SVGID_75_">
			<use xlink:href="#SVGID_74_"  overflow="visible"/>
		</clipPath>
	</g>
</g>
<g opacity="0.27">
	<g>
		<defs>
			<rect id="SVGID_76_" x="4.056" y="4716.53" width="137.888" height="44.589"/>
		</defs>
		<clipPath id="SVGID_77_">
			<use xlink:href="#SVGID_76_"  overflow="visible"/>
		</clipPath>
	</g>
</g>
<g opacity="0.27">
	<g>
		<defs>
			<rect id="SVGID_78_" x="4.056" y="4605.054" width="137.888" height="44.59"/>
		</defs>
		<clipPath id="SVGID_79_">
			<use xlink:href="#SVGID_78_"  overflow="visible"/>
		</clipPath>
	</g>
</g>
<g opacity="0.1">
	<g>
		<defs>
			<rect id="SVGID_80_" y="4844" width="146" height="164.175"/>
		</defs>
		<clipPath id="SVGID_81_">
			<use xlink:href="#SVGID_80_"  overflow="visible"/>
		</clipPath>
		<path clip-path="url(#SVGID_81_)" fill="#231F20" d="M0,5001.231c0,3.828,3.109,6.943,6.929,6.943h132.142
			c3.819,0,6.929-3.115,6.929-6.943v-150.289c0-3.828-3.109-6.942-6.929-6.942H44.272c-4.235,0-9.691,2.271-12.683,5.284
			L5.24,4875.792c-2.986,3.005-5.24,8.475-5.24,12.723V5001.231z"/>
	</g>
</g>
<path fill="#FFFFFF" d="M4.056,5001.231c0,1.59,1.293,2.891,2.874,2.891h132.142c1.578,0,2.872-1.301,2.872-2.891v-150.289
	c0-1.586-1.294-2.889-2.872-2.889H44.272c-3.157,0-7.572,1.84-9.805,4.085L8.118,4878.65c-2.236,2.247-4.062,6.686-4.062,9.864
	V5001.231z"/>
<path fill="#D62328" d="M58.516,4934.715c2.828-5.417,6.044-11.529,8.622-17.659l1.016-2.424c-3.364-12.5-5.378-22.539-3.578-29.029
	c0.483-1.691,2.492-2.717,4.634-2.717l1.308,0.02h0.241c2.935-0.043,4.316,3.602,4.476,5.022c0.257,2.36-0.863,6.363-0.863,6.363
	c0-1.619,0.067-4.228-0.977-6.478c-1.215-2.605-2.374-4.16-3.414-4.41c-0.523,0.346-1.035,1.055-1.208,2.418
	c-0.362,1.916-0.473,4.326-0.473,5.573c0,4.4,0.887,10.206,2.63,16.19c0.332-0.924,0.618-1.814,0.847-2.649
	c0.359-1.315,2.625-10.03,2.625-10.03s-0.569,11.602-1.366,15.109c-0.172,0.744-0.363,1.477-0.558,2.229
	c2.867,7.842,7.499,14.842,13.023,19.879c2.177,1.99,4.926,3.594,7.53,5.054c5.681-0.794,10.915-1.167,15.283-1.12
	c5.791,0.074,10.045,0.91,11.765,2.566c0.843,0.807,1.185,1.779,1.293,2.865c0.021,0.43-0.188,1.424-0.253,1.674
	c0.064-0.301,0.064-1.789-4.585-3.242c-3.661-1.143-10.517-1.105-18.738-0.25c9.511,4.546,18.778,6.806,21.711,5.45
	c0.723-0.341,1.592-1.507,1.592-1.507s-0.519,2.296-0.888,2.871c-0.474,0.624-1.405,1.299-2.285,1.527
	c-4.641,1.212-16.714-1.588-27.239-7.462c-11.761,1.689-24.675,4.815-35.024,8.135c-10.176,17.418-17.82,25.417-24.042,22.375
	l-2.29-1.127c-0.928-0.517-1.068-1.782-0.853-2.813c0.725-3.467,5.173-8.688,14.113-13.905c0.964-0.566,5.248-2.782,5.248-2.782
	s-3.172,2.999-3.917,3.589c-7.133,5.712-12.4,12.901-12.268,15.685l0.025,0.246C37.742,4969.106,46.829,4957.052,58.516,4934.715
	 M62.216,4936.568c-1.953,3.589-3.855,6.917-5.618,9.978c9.741-3.986,20.224-6.541,30.208-8.354
	c-1.342-0.906-2.646-1.863-3.866-2.878c-5.5-4.546-9.692-10.22-12.727-16.188C68.285,4924.198,65.996,4929.587,62.216,4936.568"/>
<g opacity="0.1">
	<g>
		<defs>
			<rect id="SVGID_82_" y="5088" width="146" height="164.175"/>
		</defs>
		<clipPath id="SVGID_83_">
			<use xlink:href="#SVGID_82_"  overflow="visible"/>
		</clipPath>
		<path clip-path="url(#SVGID_83_)" fill="#231F20" d="M0,5245.23c0,3.83,3.109,6.944,6.929,6.944h132.142
			c3.819,0,6.929-3.114,6.929-6.944v-150.286c0-3.829-3.109-6.944-6.929-6.944H44.272c-4.235,0-9.691,2.272-12.683,5.285
			L5.24,5119.793c-2.986,3.004-5.24,8.475-5.24,12.723V5245.23z"/>
	</g>
</g>
<path fill="#FFFFFF" d="M4.056,5245.23c0,1.592,1.293,2.891,2.874,2.891h132.142c1.58,0,2.872-1.299,2.872-2.891v-150.286
	c0-1.589-1.292-2.89-2.872-2.89H44.272c-3.157,0-7.572,1.838-9.805,4.084l-26.349,26.51c-2.236,2.248-4.062,6.689-4.062,9.867
	V5245.23z"/>
<g opacity="0.5">
	<g>
		<defs>
			<rect id="SVGID_84_" x="4.056" y="5140.699" width="137.888" height="79.047"/>
		</defs>
		<clipPath id="SVGID_85_">
			<use xlink:href="#SVGID_84_"  overflow="visible"/>
		</clipPath>
		<polygon clip-path="url(#SVGID_85_)" fill="#7BCAF1" points="127.749,5175.155 127.749,5167.049 119.64,5167.049 119.64,5158.941 
			111.527,5158.941 111.527,5148.807 103.416,5148.807 103.416,5140.699 95.305,5140.699 95.305,5148.807 87.195,5148.807 
			87.195,5167.049 79.084,5167.049 79.084,5158.941 70.972,5158.941 70.972,5148.807 62.862,5148.807 62.862,5167.049 
			54.75,5167.049 54.75,5148.807 46.639,5148.807 46.639,5140.699 38.528,5140.699 38.528,5158.941 30.417,5158.941 
			30.417,5167.049 22.306,5167.049 22.306,5175.155 4.056,5175.155 4.056,5185.289 22.306,5185.289 22.306,5193.396 
			30.417,5193.396 30.417,5201.504 38.528,5201.504 38.528,5219.746 46.639,5219.746 46.639,5211.637 54.75,5211.637 
			54.75,5193.396 62.862,5193.396 62.862,5211.637 70.972,5211.637 70.972,5201.504 79.084,5201.504 79.084,5193.396 
			87.195,5193.396 87.195,5211.637 95.305,5211.637 95.305,5219.746 103.416,5219.746 103.416,5211.637 111.527,5211.637 
			111.527,5201.504 119.64,5201.504 119.64,5193.396 127.749,5193.396 127.749,5185.289 141.943,5185.289 141.943,5175.155 		"/>
	</g>
</g>
<g opacity="0.5">
	<g>
		<defs>
			<rect id="SVGID_86_" x="14.195" y="5148.807" width="121.667" height="62.83"/>
		</defs>
		<clipPath id="SVGID_87_">
			<use xlink:href="#SVGID_86_"  overflow="visible"/>
		</clipPath>
		<polygon clip-path="url(#SVGID_87_)" fill="#79BAD6" points="127.749,5175.155 119.64,5175.155 119.64,5167.049 111.527,5167.049 
			111.527,5158.941 103.416,5158.941 103.416,5148.807 95.305,5148.807 95.305,5156.913 87.195,5156.913 87.195,5173.127 
			79.084,5173.127 79.084,5165.021 70.972,5165.021 70.972,5154.887 62.862,5154.887 62.862,5173.127 54.75,5173.127 
			54.75,5156.913 46.639,5156.913 46.639,5148.807 38.528,5148.807 38.528,5167.049 30.417,5167.049 30.417,5175.155 
			22.306,5175.155 14.195,5175.155 14.195,5185.289 22.306,5185.289 30.417,5185.289 30.417,5193.396 38.528,5193.396 
			38.528,5211.637 46.639,5211.637 46.639,5203.53 54.75,5203.53 54.75,5187.316 62.862,5187.316 62.862,5205.559 70.972,5205.559 
			70.972,5195.423 79.084,5195.423 79.084,5187.316 87.195,5187.316 87.195,5201.504 95.305,5201.504 95.305,5211.637 
			103.416,5211.637 103.416,5201.504 111.527,5201.504 111.527,5193.396 119.64,5193.396 119.64,5185.289 127.749,5185.289 
			135.861,5185.289 135.861,5175.155 		"/>
	</g>
</g>
<g opacity="0.1">
	<g>
		<defs>
			<rect id="SVGID_88_" y="5331.001" width="146" height="164.174"/>
		</defs>
		<clipPath id="SVGID_89_">
			<use xlink:href="#SVGID_88_"  overflow="visible"/>
		</clipPath>
		<path clip-path="url(#SVGID_89_)" fill="#231F20" d="M0,5488.231c0,3.828,3.109,6.943,6.929,6.943h132.142
			c3.819,0,6.929-3.115,6.929-6.943v-150.287c0-3.828-3.109-6.943-6.929-6.943H44.272c-4.235,0-9.691,2.271-12.683,5.283
			L5.24,5362.792c-2.986,3.006-5.24,8.476-5.24,12.725V5488.231z"/>
	</g>
</g>
<path fill="#FFFFFF" d="M4.056,5488.231c0,1.59,1.293,2.89,2.874,2.89h132.142c1.578,0,2.872-1.3,2.872-2.89v-150.287
	c0-1.588-1.294-2.891-2.872-2.891H44.272c-3.157,0-7.572,1.84-9.805,4.086L8.118,5365.65c-2.236,2.247-4.062,6.687-4.062,9.866
	V5488.231z"/>
<path fill-rule="evenodd" clip-rule="evenodd" fill="#989798" d="M56.778,5460.719h22.306c0.319,0,0.637-0.097,0.91-0.293
	c10.469-7.407,18.542-23.573,18.542-37.726v-0.044c-0.004-2.292-1.239-4.501-3.231-4.501H40.556c-1.994,0-3.366,2.209-3.368,4.501
	v0.044c0,14.152,8.211,30.318,18.679,37.726C56.138,5460.622,56.457,5460.719,56.778,5460.719"/>
<path fill="#F16D24" d="M62.255,5403.793c0,0-9.344-5.605-9.344-14.944c0-9.342,13.08-11.207,13.08-20.547
	c0-9.339-9.343-11.207-9.343-11.207s16.82-1.867,16.82,11.207S47.304,5383.247,62.255,5403.793"/>
<path fill="#F16D24" d="M79.752,5413.04c0,0-11.893-7.17-11.893-19.121c0-11.949,16.651-14.338,16.651-26.287
	s-11.894-14.341-11.894-14.341s21.408-2.389,21.408,14.341C94.024,5384.36,60.724,5386.75,79.752,5413.04"/>
<path fill-rule="evenodd" clip-rule="evenodd" fill="#989798" d="M107.473,5470.854h-18.25c-4.812,0-6.77,1.426-7.567,2.589
	c-0.63,0.918-1.663,1.465-2.777,1.465H56.985c-1.117,0-2.15-0.547-2.78-1.465c-0.797-1.163-2.753-2.589-7.566-2.589h-18.25
	c-4.056,0-4.056-6.081-0.224-6.081h79.391C111.527,5464.772,111.527,5470.854,107.473,5470.854"/>
<path fill="#989798" d="M107.265,5423.564c6.947,0,10.27,8.616,5.06,13.211c-3.76,3.313-9.484,6.628-17.3,6.628
	c-21.082,0,0.28-19.839,0.28-19.839H107.265 M107.265,5418.155h-11.96h-2.126l-1.557,1.445c-4.278,3.975-13.879,14.102-10.645,22.33
	c1.795,4.568,6.522,6.885,14.047,6.885c7.736,0,14.957-2.76,20.88-7.985c4.063-3.581,5.448-9.178,3.525-14.26
	C117.496,5421.458,112.719,5418.155,107.265,5418.155"/>
<g opacity="0.18">
	<g>
		<defs>
			<rect id="SVGID_90_" x="30.417" y="5335.054" width="85.167" height="156.067"/>
		</defs>
		<clipPath id="SVGID_91_">
			<use xlink:href="#SVGID_90_"  overflow="visible"/>
		</clipPath>
	</g>
</g>
<g opacity="0.27">
	<g>
		<defs>
			<rect id="SVGID_92_" x="4.056" y="5446.53" width="137.888" height="44.591"/>
		</defs>
		<clipPath id="SVGID_93_">
			<use xlink:href="#SVGID_92_"  overflow="visible"/>
		</clipPath>
	</g>
</g>
<g opacity="0.27">
	<g>
		<defs>
			<rect id="SVGID_94_" x="4.056" y="5335.054" width="137.888" height="44.592"/>
		</defs>
		<clipPath id="SVGID_95_">
			<use xlink:href="#SVGID_94_"  overflow="visible"/>
		</clipPath>
	</g>
</g>
<g opacity="0.1">
	<g>
		<defs>
			<rect id="SVGID_96_" y="5573.999" width="146" height="164.177"/>
		</defs>
		<clipPath id="SVGID_97_">
			<use xlink:href="#SVGID_96_"  overflow="visible"/>
		</clipPath>
		<path clip-path="url(#SVGID_97_)" fill="#231F20" d="M0,5731.231c0,3.828,3.109,6.944,6.929,6.944h132.142
			c3.819,0,6.929-3.116,6.929-6.944v-150.287c0-3.829-3.109-6.945-6.929-6.945H44.272c-4.235,0-9.691,2.274-12.683,5.287
			L5.24,5605.794c-2.986,3.004-5.24,8.475-5.24,12.723V5731.231z"/>
	</g>
</g>
<path fill="#FFFFFF" d="M4.056,5731.231c0,1.589,1.293,2.891,2.874,2.891h132.142c1.578,0,2.872-1.302,2.872-2.891v-150.287
	c0-1.588-1.294-2.891-2.872-2.891H44.272c-3.157,0-7.572,1.839-9.805,4.086l-26.349,26.51c-2.236,2.248-4.062,6.688-4.062,9.867
	V5731.231z"/>
<g opacity="0.7">
	<g>
		<defs>
			<rect id="SVGID_98_" x="42.583" y="5622.716" width="60.833" height="66.814"/>
		</defs>
		<clipPath id="SVGID_99_">
			<use xlink:href="#SVGID_98_"  overflow="visible"/>
		</clipPath>
		<rect x="42.583" y="5630.753" clip-path="url(#SVGID_99_)" fill="#EC4088" width="12.167" height="58.777"/>
		<path clip-path="url(#SVGID_99_)" fill="#EC4088" d="M87.349,5689.53c-13.707,0-22.284-8.068-22.284-23.195
			c0-14.542,8.242-23.453,19.928-23.453c2.69,0,4.964,0.344,6.642,0.76v-20.924h11.781v63.446
			C99.296,5688.355,95.167,5689.53,87.349,5689.53 M91.635,5650.704c-1.095-0.335-2.266-0.507-3.617-0.507
			c-7.227,0-10,6.221-10,15.548c0,9.834,2.937,15.465,9.584,15.465c1.768,0,3.108-0.172,4.033-0.677V5650.704z"/>
	</g>
</g>
<g opacity="0.18">
	<g>
		<defs>
			<rect id="SVGID_100_" x="30.417" y="5578.054" width="85.167" height="156.068"/>
		</defs>
		<clipPath id="SVGID_101_">
			<use xlink:href="#SVGID_100_"  overflow="visible"/>
		</clipPath>
	</g>
</g>
<g opacity="0.27">
	<g>
		<defs>
			<rect id="SVGID_102_" x="4.056" y="5689.53" width="137.888" height="44.592"/>
		</defs>
		<clipPath id="SVGID_103_">
			<use xlink:href="#SVGID_102_"  overflow="visible"/>
		</clipPath>
	</g>
</g>
<g opacity="0.27">
	<g>
		<defs>
			<rect id="SVGID_104_" x="4.056" y="5578.054" width="137.888" height="44.592"/>
		</defs>
		<clipPath id="SVGID_105_">
			<use xlink:href="#SVGID_104_"  overflow="visible"/>
		</clipPath>
	</g>
</g>
<g opacity="0.1">
	<g>
		<defs>
			<rect id="SVGID_106_" y="5817" width="146" height="164.175"/>
		</defs>
		<clipPath id="SVGID_107_">
			<use xlink:href="#SVGID_106_"  overflow="visible"/>
		</clipPath>
		<path clip-path="url(#SVGID_107_)" fill="#231F20" d="M0,5974.23c0,3.828,3.109,6.944,6.929,6.944h132.142
			c3.819,0,6.929-3.116,6.929-6.944v-150.287c0-3.828-3.109-6.943-6.929-6.943H44.272c-4.235,0-9.691,2.271-12.683,5.285
			L5.24,5848.791c-2.986,3.004-5.24,8.476-5.24,12.725V5974.23z"/>
	</g>
</g>
<path fill="#FFFFFF" d="M4.056,5974.23c0,1.589,1.293,2.89,2.874,2.89h132.142c1.58,0,2.872-1.301,2.872-2.89v-150.287
	c0-1.588-1.292-2.891-2.872-2.891H44.272c-3.157,0-7.572,1.839-9.805,4.086l-26.349,26.51c-2.236,2.248-4.062,6.688-4.062,9.867
	V5974.23z"/>
<path fill="#989798" d="M109.5,5883.887H93.277l-3.826-3.912c-2.219-2.245-6.598-4.078-9.736-4.078H68.312
	c-3.137,0-7.517,1.833-9.736,4.078l-3.825,3.912H38.528c-6.274,0-10.062,5.58-10.062,11.926v34.145
	c0,6.345,3.788,10.68,10.062,10.68H109.5c6.272,0,10.062-1.488,10.062-7.834v-36.99
	C119.562,5889.467,115.772,5883.887,109.5,5883.887"/>
<path fill="#FFFFFF" d="M113.555,5894.02c0,2.24-1.812,4.053-4.055,4.053c-2.241,0-4.056-1.812-4.056-4.053s1.814-4.055,4.056-4.055
	C111.742,5889.965,113.555,5891.779,113.555,5894.02"/>
<path fill="#FFFFFF" d="M74.014,5887.939c-12.88,0-23.32,10.434-23.32,23.308s10.439,23.31,23.32,23.31
	c12.877,0,23.319-10.436,23.319-23.31S86.891,5887.939,74.014,5887.939"/>
<path fill="#989798" d="M74.014,5894.02c-9.519,0-17.236,7.715-17.236,17.228c0,9.515,7.717,17.228,17.236,17.228
	c9.52,0,17.235-7.713,17.235-17.228C91.249,5901.734,83.533,5894.02,74.014,5894.02"/>
<g opacity="0.1">
	<g>
		<defs>
			<rect id="SVGID_108_" y="6061" width="146" height="164.176"/>
		</defs>
		<clipPath id="SVGID_109_">
			<use xlink:href="#SVGID_108_"  overflow="visible"/>
		</clipPath>
		<path clip-path="url(#SVGID_109_)" fill="#231F20" d="M0,6218.232c0,3.828,3.109,6.943,6.929,6.943h132.142
			c3.819,0,6.929-3.115,6.929-6.943v-150.287c0-3.828-3.109-6.945-6.929-6.945H44.272c-4.235,0-9.691,2.271-12.683,5.285
			L5.24,6092.793c-2.986,3.004-5.24,8.477-5.24,12.725V6218.232z"/>
	</g>
</g>
<path fill="#FFFFFF" d="M4.056,6218.232c0,1.59,1.293,2.891,2.874,2.891h132.142c1.578,0,2.872-1.301,2.872-2.891v-150.287
	c0-1.588-1.294-2.891-2.872-2.891H44.272c-3.157,0-7.572,1.84-9.805,4.086l-26.349,26.508c-2.236,2.25-4.062,6.689-4.062,9.869
	V6218.232z"/>
<g opacity="0.7">
	<g>
		<defs>
			<rect id="SVGID_110_" x="34.472" y="6110.346" width="51.727" height="66.111"/>
		</defs>
		<clipPath id="SVGID_111_">
			<use xlink:href="#SVGID_110_"  overflow="visible"/>
		</clipPath>
		<path clip-path="url(#SVGID_111_)" fill="#F07B22" d="M51.797,6159.486l-4.042,16.975H34.472l17.325-66.113H68.62l17.574,66.113
			H72.399l-4.367-16.975H51.797z M66.181,6148.305l-3.541-14.021c-1.005-3.922-2.011-8.824-2.854-12.756h-0.163
			c-0.845,3.932-1.689,8.93-2.61,12.756l-3.363,14.021H66.181z"/>
	</g>
</g>
<g opacity="0.7">
	<g>
		<defs>
			<rect id="SVGID_112_" x="97.333" y="6129.912" width="12.167" height="46.619"/>
		</defs>
		<clipPath id="SVGID_113_">
			<use xlink:href="#SVGID_112_"  overflow="visible"/>
		</clipPath>
		<rect x="97.333" y="6129.912" clip-path="url(#SVGID_113_)" fill="#F07B22" width="12.167" height="46.619"/>
	</g>
</g>
<g opacity="0.7">
	<g>
		<defs>
			<rect id="SVGID_114_" x="97.333" y="6113.699" width="12.167" height="12.162"/>
		</defs>
		<clipPath id="SVGID_115_">
			<use xlink:href="#SVGID_114_"  overflow="visible"/>
		</clipPath>
		<path clip-path="url(#SVGID_115_)" fill="#F07B22" d="M109.5,6119.779c0,3.359-2.722,6.082-6.084,6.082
			c-3.358,0-6.083-2.723-6.083-6.082s2.725-6.08,6.083-6.08C106.778,6113.699,109.5,6116.42,109.5,6119.779"/>
	</g>
</g>
<g opacity="0.18">
	<g>
		<defs>
			<rect id="SVGID_116_" x="30.417" y="6065.055" width="85.167" height="156.068"/>
		</defs>
		<clipPath id="SVGID_117_">
			<use xlink:href="#SVGID_116_"  overflow="visible"/>
		</clipPath>
	</g>
</g>
<g opacity="0.27">
	<g>
		<defs>
			<rect id="SVGID_118_" x="4.056" y="6176.531" width="137.888" height="44.592"/>
		</defs>
		<clipPath id="SVGID_119_">
			<use xlink:href="#SVGID_118_"  overflow="visible"/>
		</clipPath>
	</g>
</g>
<g opacity="0.27">
	<g>
		<defs>
			<rect id="SVGID_120_" x="4.056" y="6065.055" width="137.888" height="44.59"/>
		</defs>
		<clipPath id="SVGID_121_">
			<use xlink:href="#SVGID_120_"  overflow="visible"/>
		</clipPath>
	</g>
</g>
<g opacity="0.1">
	<g>
		<defs>
			<rect id="SVGID_122_" y="6304.002" width="146" height="164.174"/>
		</defs>
		<clipPath id="SVGID_123_">
			<use xlink:href="#SVGID_122_"  overflow="visible"/>
		</clipPath>
		<path clip-path="url(#SVGID_123_)" fill="#231F20" d="M0,6461.232c0,3.828,3.109,6.943,6.929,6.943h132.142
			c3.819,0,6.929-3.115,6.929-6.943v-150.287c0-3.828-3.109-6.943-6.929-6.943H44.272c-4.235,0-9.691,2.271-12.683,5.283
			L5.24,6335.793c-2.986,3.006-5.24,8.477-5.24,12.725V6461.232z"/>
	</g>
</g>
<path fill="#FFFFFF" d="M4.056,6461.232c0,1.59,1.293,2.891,2.874,2.891h132.142c1.58,0,2.872-1.301,2.872-2.891v-150.287
	c0-1.588-1.292-2.889-2.872-2.889H44.272c-3.157,0-7.572,1.838-9.805,4.086L8.118,6338.65c-2.236,2.25-4.062,6.689-4.062,9.867
	V6461.232z"/>
<path fill="#30A0DA" d="M119.64,6396.744c0,25.184-20.88,45.605-46.64,45.605c-25.759,0-46.638-20.422-46.638-45.605
	c0-25.186,20.879-45.605,46.638-45.605C98.76,6351.139,119.64,6371.559,119.64,6396.744"/>
<g>
	<defs>
		<path id="SVGID_124_" d="M26.362,6396.744c0,25.184,20.879,45.605,46.638,45.605c25.757,0,46.64-20.422,46.64-45.605
			c0-25.186-20.883-45.605-46.64-45.605C47.241,6351.139,26.362,6371.559,26.362,6396.744"/>
	</defs>
	<clipPath id="SVGID_125_">
		<use xlink:href="#SVGID_124_"  overflow="visible"/>
	</clipPath>
	<path clip-path="url(#SVGID_125_)" fill="#FFFFFF" d="M87.689,6340.484l-3.897,12.193l3.897,3.812v4.572l6.626,4.572v4.951
		l-5.263-1.525l-1.752,4.955l4.286,1.904h2.729v4.574l2.727,6.096l-3.508,9.145v11.051l3.508,2.287l12.859-3.812l2.728,8.004
		l-4.286,5.334l1.95,4.189l14.287-2.285c0,0,11.819-23.623,11.819-24.768c0-1.143-8.182-28.195-8.182-28.195l-18.121-22.607
		L87.689,6340.484z"/>
	<polygon clip-path="url(#SVGID_125_)" fill="#FFFFFF" points="73.663,6353.059 65.477,6355.346 62.359,6359.537 66.258,6359.537 
		68.011,6369.062 70.545,6370.969 81.062,6365.635 	"/>
	<polygon clip-path="url(#SVGID_125_)" fill="#FFFFFF" points="56.905,6340.484 54.956,6358.775 59.244,6358.775 59.244,6363.729 
		53.007,6367.539 53.007,6370.967 56.126,6370.967 59.244,6368.682 65.479,6373.254 65.479,6379.732 59.244,6378.207 
		62.359,6383.543 55.736,6383.543 47.164,6392.686 39.76,6387.73 35.475,6392.686 40.928,6395.734 42.489,6404.117 40.54,6406.023 
		35.475,6398.402 29.629,6394.721 31.577,6386.209 21.308,6377.826 31.966,6353.059 	"/>
	<path clip-path="url(#SVGID_125_)" fill="#FFFFFF" d="M43.393,6406.023c0,0,8.056-0.383,10.395,0
		c2.337,0.381,11.689,8.002,11.689,8.002l6.235,3.811l9.354,1.904l-2.73,5.717l-12.859,11.049l-7.013,1.902l-5.066-3.428v-7.619
		l-10.912-8.764l2.727-7.623L43.393,6406.023z"/>
</g>
<path fill="#30A0DA" d="M73,6353.168c24.599,0,44.611,19.547,44.611,43.576c0,24.027-20.013,43.576-44.611,43.576
	c-24.599,0-44.611-19.549-44.611-43.576C28.389,6372.715,48.401,6353.168,73,6353.168 M73,6351.139
	c-25.759,0-46.638,20.42-46.638,45.605c0,25.184,20.879,45.605,46.638,45.605c25.76,0,46.64-20.422,46.64-45.605
	C119.64,6371.559,98.76,6351.139,73,6351.139"/>
<g opacity="0.1">
	<g>
		<defs>
			<rect id="SVGID_126_" y="6547.002" width="146" height="164.174"/>
		</defs>
		<clipPath id="SVGID_127_">
			<use xlink:href="#SVGID_126_"  overflow="visible"/>
		</clipPath>
		<path clip-path="url(#SVGID_127_)" fill="#231F20" d="M0,6704.232c0,3.828,3.109,6.943,6.929,6.943h132.142
			c3.819,0,6.929-3.115,6.929-6.943v-150.287c0-3.828-3.109-6.943-6.929-6.943H44.272c-4.235,0-9.691,2.271-12.683,5.283
			L5.24,6578.793c-2.986,3.006-5.24,8.477-5.24,12.725V6704.232z"/>
	</g>
</g>
<path fill="#FFFFFF" d="M4.056,6704.232c0,1.59,1.293,2.891,2.874,2.891h132.142c1.58,0,2.872-1.301,2.872-2.891v-150.287
	c0-1.588-1.292-2.891-2.872-2.891H44.272c-3.157,0-7.572,1.838-9.805,4.086l-26.349,26.51c-2.236,2.248-4.062,6.688-4.062,9.867
	V6704.232z"/>
<g>
	<g opacity="0.7">
		<g>
			<defs>
				<rect id="SVGID_128_" x="50.694" y="6632.129" width="75.028" height="56.752"/>
			</defs>
			<clipPath id="SVGID_129_">
				<use xlink:href="#SVGID_128_"  overflow="visible"/>
			</clipPath>
			<polygon clip-path="url(#SVGID_129_)" fill="#52A446" points="50.694,6688.881 125.722,6688.881 125.722,6648.346 
				107.473,6632.129 			"/>
		</g>
	</g>
	<g opacity="0.7">
		<g>
			<defs>
				<rect id="SVGID_130_" x="22.306" y="6656.451" width="60.833" height="32.43"/>
			</defs>
			<clipPath id="SVGID_131_">
				<use xlink:href="#SVGID_130_"  overflow="visible"/>
			</clipPath>
			<polygon clip-path="url(#SVGID_131_)" fill="#52A446" points="83.139,6688.881 50.694,6656.451 22.306,6682.801 22.306,6688.881 
				56.934,6688.414 			"/>
		</g>
	</g>
	<path fill="#79BAD6" d="M66.916,6614.9c0,8.395-6.809,15.201-15.208,15.201c-8.399,0-15.208-6.807-15.208-15.201
		s6.809-15.201,15.208-15.201C60.107,6599.699,66.916,6606.506,66.916,6614.9"/>
</g>
<g opacity="0.1">
	<g>
		<defs>
			<rect id="SVGID_132_" y="6790" width="146" height="164.176"/>
		</defs>
		<clipPath id="SVGID_133_">
			<use xlink:href="#SVGID_132_"  overflow="visible"/>
		</clipPath>
		<path clip-path="url(#SVGID_133_)" fill="#231F20" d="M0,6947.232c0,3.828,3.109,6.943,6.929,6.943h132.142
			c3.819,0,6.929-3.115,6.929-6.943v-150.289c0-3.826-3.109-6.943-6.929-6.943H44.272c-4.235,0-9.691,2.273-12.683,5.285
			L5.24,6821.793c-2.986,3.006-5.24,8.477-5.24,12.723V6947.232z"/>
	</g>
</g>
<path fill="#FFFFFF" d="M4.056,6947.232c0,1.59,1.293,2.891,2.874,2.891h132.142c1.58,0,2.872-1.301,2.872-2.891v-150.289
	c0-1.586-1.292-2.889-2.872-2.889H44.272c-3.157,0-7.572,1.838-9.805,4.086l-26.349,26.508c-2.236,2.25-4.062,6.689-4.062,9.867
	V6947.232z"/>
<path fill-rule="evenodd" clip-rule="evenodd" fill="#CE3D39" d="M73,6838.645c-15.64,0-28.248,12.15-28.248,27.781
	c0,15.635,28.248,57.348,28.248,57.348s28.389-41.713,28.389-57.348C101.389,6850.795,88.64,6838.645,73,6838.645 M73.07,6883.41
	c-9.385,0-16.292-7.008-16.292-16.389c0-9.379,6.837-16.215,16.222-16.215c9.382,0,16.223,6.836,16.223,16.215
	C89.223,6876.402,82.453,6883.41,73.07,6883.41"/>
<g opacity="0.1">
	<g>
		<defs>
			<rect id="SVGID_134_" y="7033" width="146" height="164.176"/>
		</defs>
		<clipPath id="SVGID_135_">
			<use xlink:href="#SVGID_134_"  overflow="visible"/>
		</clipPath>
		<path clip-path="url(#SVGID_135_)" fill="#231F20" d="M0,7190.232c0,3.83,3.109,6.943,6.929,6.943h132.142
			c3.819,0,6.929-3.113,6.929-6.943v-150.287c0-3.828-3.109-6.945-6.929-6.945H44.272c-4.235,0-9.69,2.273-12.683,5.287
			l-26.347,26.506C2.253,7067.797,0,7073.27,0,7077.518V7190.232z"/>
	</g>
</g>
<path fill="#FFFFFF" d="M4.056,7190.232c0,1.59,1.294,2.889,2.874,2.889h132.142c1.578,0,2.872-1.299,2.872-2.889v-150.287
	c0-1.588-1.294-2.891-2.872-2.891H44.272c-3.158,0-7.572,1.84-9.805,4.086l-26.349,26.512c-2.235,2.246-4.062,6.686-4.062,9.865
	V7190.232z"/>
<g opacity="0.1">
	<g>
		<defs>
			<rect id="SVGID_136_" y="7277" width="146" height="164.176"/>
		</defs>
		<clipPath id="SVGID_137_">
			<use xlink:href="#SVGID_136_"  overflow="visible"/>
		</clipPath>
		<path clip-path="url(#SVGID_137_)" fill="#231F20" d="M0,7434.232c0,3.828,3.109,6.943,6.929,6.943h132.142
			c3.819,0,6.929-3.115,6.929-6.943v-150.287c0-3.828-3.109-6.945-6.929-6.945H44.272c-4.235,0-9.691,2.273-12.683,5.287
			L5.24,7308.793c-2.986,3.006-5.24,8.477-5.24,12.725V7434.232z"/>
	</g>
</g>
<path fill="#FFFFFF" d="M4.056,7434.232c0,1.59,1.293,2.891,2.874,2.891h132.142c1.58,0,2.872-1.301,2.872-2.891v-150.287
	c0-1.588-1.292-2.891-2.872-2.891H44.272c-3.157,0-7.572,1.84-9.805,4.086l-26.349,26.51c-2.236,2.248-4.062,6.688-4.062,9.867
	V7434.232z"/>
<path fill="#989798" d="M79.204,7392.057c-1.1-1.52-2.761-4.896-4.989-10.131l-19.833-46.674h-2.473l-19.747,48.625
	c-1.56,3.848-2.762,6.336-3.6,7.461c-1.303,1.793-3.024,2.764-5.167,2.908v2.254h18.142v-2.254
	c-2.027-0.029-3.545-0.201-4.557-0.521c-1.708-0.58-2.561-1.5-2.561-2.775c0-1.043,0.391-2.705,1.172-4.988
	c0.375-1.07,1.216-3.369,2.521-6.896h19.953l2.262,5.379c0.492,1.184,0.88,2.199,1.171,3.037c0.464,1.416,0.696,2.469,0.696,3.164
	c0,1.533-0.458,2.486-1.369,2.865c-0.909,0.373-2.815,0.619-5.706,0.736v2.254h28.771v-2.254
	C81.867,7394.303,80.304,7393.574,79.204,7392.057 M39.443,7375.549l8.022-20.562h0.747l8.55,20.562H39.443z M123.14,7390.861
	c-0.58,0.58-1.006,0.934-1.28,1.062c-0.276,0.133-0.587,0.195-0.934,0.195c-0.406,0-0.774-0.225-1.106-0.672
	c-0.333-0.447-0.5-0.99-0.5-1.627v-21.516c0-5.262-1.677-8.877-5.033-10.844c-3.386-1.938-7.596-2.904-12.628-2.904
	c-4.689,0-8.638,0.992-11.85,2.984c-3.213,1.99-4.815,4.688-4.815,8.092c0,1.902,0.602,3.361,1.801,4.369
	c1.2,1.01,2.653,1.512,4.36,1.512c1.476,0,2.771-0.455,3.884-1.365c1.115-0.91,1.671-2.205,1.671-3.883
	c0-0.664-0.123-1.293-0.367-1.887c-0.246-0.592-0.572-1.133-0.977-1.625l-0.521-0.609c-0.234-0.256-0.406-0.502-0.521-0.736
	c-0.115-0.23-0.175-0.52-0.175-0.867c0-0.896,0.513-1.641,1.539-2.234c1.026-0.592,2.339-0.889,3.931-0.889
	c2.833,0,4.807,0.629,5.923,1.887c1.112,1.256,1.669,3.203,1.669,5.834v6.463c-8.217,2.375-14.249,4.734-18.096,7.082
	c-3.848,2.348-5.772,5.518-5.772,9.518c0,3.273,1.055,5.684,3.171,7.232c2.11,1.549,4.379,2.326,6.811,2.326
	c1.824,0,3.674-0.32,5.557-0.957c3.095-1.014,5.87-2.754,8.33-5.215c0.318,1.709,0.826,2.998,1.521,3.867
	c1.216,1.535,3.139,2.305,5.771,2.305c1.474,0,2.878-0.262,4.211-0.781c2.11-0.811,4.033-2.225,5.77-4.254L123.14,7390.861z
	 M107.083,7387.686c-0.956,1.104-1.778,1.912-2.474,2.436c-1.244,0.871-2.592,1.305-4.035,1.305c-1.103,0-2.092-0.498-2.974-1.5
	c-0.886-1-1.324-2.471-1.324-4.414c0-3.277,1.519-5.973,4.556-8.09c1.795-1.248,3.878-2.16,6.251-2.74V7387.686z"/>
<path fill="#EDC137" d="M0,7564.605v91.207c0,3.346,2.737,6.08,6.084,6.08h133.833c3.346,0,6.083-2.734,6.083-6.08v-91.207H0z
	 M139.917,7556.496c0-3.352-2.729-6.08-6.085-6.08H77.057l-10.141-10.133H8.111c-3.368,0-6.083,2.713-6.083,6.08v14.188h137.889
	V7556.496z"/>
<path fill="#EDC137" d="M0,7807.604v91.209c0,3.346,2.737,6.08,6.084,6.08h133.833c3.346,0,6.083-2.734,6.083-6.08v-91.209H0z
	 M139.917,7799.496c0-3.352-2.729-6.08-6.085-6.08H77.057l-10.141-10.133H8.111c-3.368,0-6.083,2.713-6.083,6.08v14.188h137.889
	V7799.496z"/>
<path fill="#FFFFFF" d="M51.967,7864.201c0-0.455-0.248-2.014-0.845-2.295c-0.566-0.209-2.426-1.107-2.426-1.107
	c0-0.141-0.214-0.527-0.248-0.939c0-0.455,0.248-0.902,0.248-0.902c0.25-0.492,1.163-1.637,1.405-2.541
	c0.249-0.9,0.527-3.195,0.527-3.195c0-0.488,0.742-0.693,1.199-0.938c0.808-0.383,2.08-5.281,2.08-5.281
	c0-1.594-0.07-0.906-0.07-2.051v-4.27c0-5.252-5.493-8.586-10.85-8.586h-0.201c-5.356,0-10.849,3.334-10.849,8.586v4.27
	c0,1.145-0.069,0.457-0.069,2.051c0,0,0.968,4.898,1.78,5.281c0.455,0.244,1.347,0.449,1.347,0.938c0,0,0.356,2.295,0.601,3.195
	c0.244,0.904,1.195,2.049,1.445,2.541c0,0,0.263,0.447,0.263,0.902c-0.031,0.412-0.233,0.799-0.233,0.939
	c0,0-1.857,0.898-2.422,1.107c-0.598,0.281-0.846,1.84-0.846,2.295c-2.111,0.693-13.371,5.836-14.642,7.121
	c-0.914,0.941-0.911,6.43-0.911,6.43v0.695c0,1.25,1.774,2.123,3.042,2.123h16.222c0.158-7.16,1.417-8.377,1.882-8.852
	c1.457-1.479,8.093-4.719,13.502-7.164C52.514,7864.4,52.184,7864.275,51.967,7864.201 M126.835,7871.322
	c-1.27-1.285-12.531-6.428-14.64-7.121c0-0.455-0.249-2.014-0.849-2.295c-0.566-0.209-2.425-1.107-2.425-1.107
	c0-0.141-0.214-0.527-0.248-0.939c0-0.455,0.248-0.902,0.248-0.902c0.248-0.492,1.162-1.637,1.401-2.541
	c0.25-0.9,0.53-3.195,0.53-3.195c0-0.488,0.741-0.693,1.198-0.938c0.806-0.383,2.08-5.281,2.08-5.281
	c0-1.594-0.069-0.906-0.069-2.051v-4.27c0-5.252-5.493-8.586-10.848-8.586h-0.204c-5.355,0-10.85,3.334-10.85,8.586v4.27
	c0,1.145-0.065,0.457-0.065,2.051c0,0,0.966,4.898,1.778,5.281c0.456,0.244,1.346,0.449,1.346,0.938c0,0,0.356,2.295,0.603,3.195
	c0.244,0.904,1.193,2.049,1.443,2.541c0,0,0.264,0.447,0.264,0.902c-0.029,0.412-0.236,0.799-0.236,0.939
	c0,0-1.856,0.898-2.419,1.107c-0.598,0.281-0.845,1.84-0.845,2.295c-0.217,0.074-0.547,0.199-0.928,0.354
	c5.408,2.445,12.04,5.682,13.487,7.15c0.478,0.488,1.738,1.705,1.896,8.865h16.224c1.266,0,3.04-0.873,3.04-2.123v-0.695
	C127.749,7877.752,127.749,7872.264,126.835,7871.322 M85.108,7864.096c0-0.607-0.333-2.689-1.128-3.061
	c-0.751-0.283-3.236-1.48-3.236-1.48c0-0.184-0.282-0.701-0.33-1.25c0-0.607,0.33-1.205,0.33-1.205
	c0.332-0.652,1.551-2.18,1.873-3.385c0.332-1.203,0.706-4.258,0.706-4.258c0-0.654,0.986-0.932,1.599-1.252
	c1.077-0.512,2.312-7.043,2.312-7.043c0-2.131-0.548-1.209-0.548-2.736v-5.691c0-7-6.414-11.449-13.552-11.449h-0.271
	c-7.137,0-13.551,4.449-13.551,11.449v5.691c0,1.527-0.549,0.605-0.549,2.736c0,0,1.064,6.531,2.144,7.043
	c0.609,0.32,1.682,0.598,1.682,1.252c0,0,0.42,3.055,0.749,4.258c0.324,1.205,1.565,2.732,1.896,3.385c0,0,0.339,0.598,0.339,1.205
	c-0.047,0.549-0.322,1.066-0.322,1.25c0,0-2.48,1.197-3.233,1.48c-0.796,0.371-1.125,2.453-1.125,3.061
	c-2.818,0.922-17.831,7.779-19.525,9.496c-1.218,1.25-1.218,8.57-1.218,8.57v0.924c0,1.668,1.759,3.566,3.449,3.566h58.805
	c1.69,0,3.444-1.898,3.444-3.566v-0.924c0,0,0-7.32-1.217-8.57C102.938,7871.875,87.923,7865.018,85.108,7864.096"/>
<g opacity="0.1">
	<g>
		<defs>
			<rect id="SVGID_138_" y="8006.002" width="146" height="164.174"/>
		</defs>
		<clipPath id="SVGID_139_">
			<use xlink:href="#SVGID_138_"  overflow="visible"/>
		</clipPath>
		<path clip-path="url(#SVGID_139_)" fill="#231F20" d="M0,8163.232c0,3.828,3.109,6.943,6.929,6.943h132.143
			c3.82,0,6.929-3.115,6.929-6.943v-150.289c0-3.828-3.108-6.941-6.929-6.941H44.272c-4.235,0-9.691,2.271-12.683,5.283
			L5.24,8037.793c-2.986,3.006-5.24,8.475-5.24,12.723V8163.232z"/>
	</g>
</g>
<path fill="#FFFFFF" d="M4.056,8163.232c0,1.59,1.293,2.891,2.873,2.891h132.143c1.578,0,2.873-1.301,2.873-2.891v-150.289
	c0-1.588-1.295-2.891-2.873-2.891H44.272c-3.157,0-7.572,1.84-9.806,4.088l-26.349,26.51c-2.235,2.246-4.062,6.688-4.062,9.865
	V8163.232z"/>
<g opacity="0.7">
	<g>
		<defs>
			<rect id="SVGID_140_" x="44.611" y="8054.645" width="34.472" height="66.887"/>
		</defs>
		<clipPath id="SVGID_141_">
			<use xlink:href="#SVGID_140_"  overflow="visible"/>
		</clipPath>
		<polygon clip-path="url(#SVGID_141_)" fill="#ED4833" points="44.611,8054.645 79.083,8054.645 79.083,8066.807 56.777,8066.807 
			56.777,8083.021 77.056,8083.021 77.056,8095.182 56.777,8095.182 56.777,8121.531 44.611,8121.531 		"/>
	</g>
</g>
<g opacity="0.7">
	<g>
		<defs>
			<rect id="SVGID_142_" x="89.223" y="8054.645" width="16.223" height="66.57"/>
		</defs>
		<clipPath id="SVGID_143_">
			<use xlink:href="#SVGID_142_"  overflow="visible"/>
		</clipPath>
		<path clip-path="url(#SVGID_143_)" fill="#ED4833" d="M89.223,8111.396v-56.752h12.166v56.752h4.057v9.818h-7.05
			C92.896,8121.215,89.223,8116.893,89.223,8111.396"/>
	</g>
</g>
<g opacity="0.18">
	<g>
		<defs>
			<rect id="SVGID_144_" x="30.417" y="8010.053" width="85.167" height="156.07"/>
		</defs>
		<clipPath id="SVGID_145_">
			<use xlink:href="#SVGID_144_"  overflow="visible"/>
		</clipPath>
	</g>
</g>
<g opacity="0.27">
	<g>
		<defs>
			<rect id="SVGID_146_" x="4.056" y="8121.531" width="137.889" height="44.592"/>
		</defs>
		<clipPath id="SVGID_147_">
			<use xlink:href="#SVGID_146_"  overflow="visible"/>
		</clipPath>
	</g>
</g>
<g opacity="0.27">
	<g>
		<defs>
			<rect id="SVGID_148_" x="4.056" y="8010.053" width="137.889" height="44.592"/>
		</defs>
		<clipPath id="SVGID_149_">
			<use xlink:href="#SVGID_148_"  overflow="visible"/>
		</clipPath>
	</g>
</g>
<g opacity="0.1">
	<g>
		<defs>
			<rect id="SVGID_150_" y="8250.002" width="146" height="164.174"/>
		</defs>
		<clipPath id="SVGID_151_">
			<use xlink:href="#SVGID_150_"  overflow="visible"/>
		</clipPath>
		<path clip-path="url(#SVGID_151_)" fill="#231F20" d="M0,8407.232c0,3.828,3.109,6.943,6.929,6.943h132.142
			c3.819,0,6.929-3.115,6.929-6.943v-150.289c0-3.828-3.109-6.941-6.929-6.941H44.272c-4.235,0-9.691,2.271-12.683,5.283
			L5.24,8281.793c-2.986,3.006-5.24,8.475-5.24,12.723V8407.232z"/>
	</g>
</g>
<path fill="#FFFFFF" d="M4.056,8407.232c0,1.588,1.293,2.889,2.874,2.889h132.142c1.578,0,2.872-1.301,2.872-2.889v-150.289
	c0-1.588-1.294-2.891-2.872-2.891H44.272c-3.157,0-7.57,1.84-9.805,4.088l-26.349,26.508c-2.236,2.248-4.062,6.689-4.062,9.867
	V8407.232z"/>
<polygon fill-rule="evenodd" clip-rule="evenodd" fill="#CE342F" points="52.721,8304.287 52.721,8373.637 102.281,8338.963 "/>
<g opacity="0.1">
	<g>
		<defs>
			<rect id="SVGID_152_" y="8493" width="146" height="164.176"/>
		</defs>
		<clipPath id="SVGID_153_">
			<use xlink:href="#SVGID_152_"  overflow="visible"/>
		</clipPath>
		<path clip-path="url(#SVGID_153_)" fill="#231F20" d="M0,8650.232c0,3.828,3.109,6.943,6.929,6.943h132.142
			c3.819,0,6.929-3.115,6.929-6.943v-150.287c0-3.828-3.109-6.945-6.929-6.945H44.272c-4.235,0-9.692,2.273-12.683,5.285
			l-26.346,26.508C2.252,8527.797,0,8533.27,0,8537.518V8650.232z"/>
	</g>
</g>
<path fill="#FFFFFF" d="M4.056,8650.232c0,1.588,1.293,2.889,2.874,2.889h132.142c1.578,0,2.872-1.301,2.872-2.889v-150.287
	c0-1.588-1.294-2.891-2.872-2.891H44.272c-3.159,0-7.572,1.838-9.805,4.084l-26.35,26.51c-2.233,2.25-4.062,6.689-4.062,9.869
	V8650.232z"/>
<path fill="#CD342F" d="M63.24,8557.604c-2.2-2.215-5.771-2.215-7.968,0l-26.514,26.66l26.514,26.662
	c1.101,1.105,2.544,1.658,3.983,1.658c1.442,0,2.885-0.553,3.985-1.658c2.2-2.211,2.2-5.799,0-8.01l-18.547-18.652l18.547-18.652
	C65.44,8563.4,65.44,8559.812,63.24,8557.604 M91.095,8557.604c-2.197-2.215-5.766-2.215-7.968,0c-2.197,2.209-2.197,5.797,0,8.008
	l18.548,18.652l-18.548,18.652c-2.197,2.211-2.197,5.799,0,8.01c1.101,1.105,2.544,1.658,3.984,1.658
	c1.441,0,2.884-0.553,3.983-1.658l26.517-26.662L91.095,8557.604z"/>
<g opacity="0.1">
	<g>
		<defs>
			<rect id="SVGID_154_" y="8778.578" width="146" height="101.342"/>
		</defs>
		<clipPath id="SVGID_155_">
			<use xlink:href="#SVGID_154_"  overflow="visible"/>
		</clipPath>
		<path clip-path="url(#SVGID_155_)" fill="#231F20" d="M0,8778.578v94.398c0,3.828,3.109,6.943,6.929,6.943h132.142
			c3.819,0,6.929-3.115,6.929-6.943v-94.398H0z"/>
	</g>
</g>
<path fill="#FFFFFF" d="M4.056,8777.746v89.631v2.893v2.889c0,1.588,1.293,2.891,2.874,2.891h132.142
	c1.578,0,2.872-1.303,2.872-2.891v-95.412H4.056z"/>
<path fill="#FFFFFF" d="M4.056,8872.977c0,1.59,1.293,2.891,2.874,2.891h132.142c1.578,0,2.872-1.301,2.872-2.891v-94.398H4.056
	V8872.977z"/>
<path fill="#A4B8C4" d="M146,8778.578v-15.201c0-4.811-3.042-9.121-8.111-9.121H8.111c-5.069,0-8.111,3.297-8.111,8.107v16.215H146z
	"/>
<path fill-rule="evenodd" clip-rule="evenodd" fill="#989798" d="M107.473,8830.854v-11.314H96.153
	c-0.54-2.086-1.542-4.129-2.608-5.941l8.71-8.705l-8.132-8.125l-9.116,8.703c-1.807-1.066-3.666-2.031-6.346-2.389v-12.342h-11.32
	v12.342c0,0-2.745,0.344-5.542,2.389l-8.499-8.697l-8.024,8.119l8.753,8.699c-1.066,1.818-1.586,3.861-2.125,5.947H38.528v11.314
	h13.376c0.539,2.086,1.111,4.127,2.176,5.939l-8.702,8.705l8.125,8.119l8.297-8.697c1.819,1.064,4.599,2.344,5.542,2.389v12.344
	h11.32v-12.344c3.01-0.428,4.539-1.324,6.356-2.389l8.906,8.697l8.222-8.119l-8.649-8.699c1.064-1.818,2.117-3.859,2.657-5.945
	H107.473z M73.815,8836.68c-6.348,0-11.493-5.141-11.493-11.484c0-6.342,5.145-11.482,11.493-11.482
	c6.343,0,11.491,5.141,11.491,11.482C85.306,8831.539,80.158,8836.68,73.815,8836.68"/>
<g opacity="0.4">
	<g>
		<defs>
			<rect id="SVGID_156_" x="126.412" y="8760.682" width="11.477" height="11.471"/>
		</defs>
		<clipPath id="SVGID_157_">
			<use xlink:href="#SVGID_156_"  overflow="visible"/>
		</clipPath>
		<path clip-path="url(#SVGID_157_)" fill-rule="evenodd" clip-rule="evenodd" fill="#231F20" d="M137.889,8766.416
			c0-3.166-2.566-5.73-5.735-5.73c-3.168,0-5.736,2.564-5.736,5.73c0,3.168,2.568,5.734,5.736,5.734
			C135.322,8772.15,137.889,8769.584,137.889,8766.416"/>
	</g>
</g>
<g opacity="0.4">
	<g>
		<defs>
			<rect id="SVGID_158_" x="110.188" y="8760.682" width="11.478" height="11.471"/>
		</defs>
		<clipPath id="SVGID_159_">
			<use xlink:href="#SVGID_158_"  overflow="visible"/>
		</clipPath>
		<path clip-path="url(#SVGID_159_)" fill-rule="evenodd" clip-rule="evenodd" fill="#231F20" d="M121.666,8766.416
			c0-3.166-2.565-5.73-5.734-5.73s-5.736,2.564-5.736,5.73c0,3.168,2.567,5.734,5.736,5.734S121.666,8769.584,121.666,8766.416"/>
	</g>
</g>
<g opacity="0.4">
	<g>
		<defs>
			<rect id="SVGID_160_" x="93.968" y="8760.682" width="11.477" height="11.471"/>
		</defs>
		<clipPath id="SVGID_161_">
			<use xlink:href="#SVGID_160_"  overflow="visible"/>
		</clipPath>
		<path clip-path="url(#SVGID_161_)" fill-rule="evenodd" clip-rule="evenodd" fill="#231F20" d="M105.444,8766.416
			c0-3.166-2.566-5.73-5.735-5.73c-3.167,0-5.736,2.564-5.736,5.73c0,3.168,2.569,5.734,5.736,5.734
			C102.878,8772.15,105.444,8769.584,105.444,8766.416"/>
	</g>
</g>
<g opacity="0.1">
	<g>
		<defs>
			<rect id="SVGID_162_" y="8979" width="146" height="164.176"/>
		</defs>
		<clipPath id="SVGID_163_">
			<use xlink:href="#SVGID_162_"  overflow="visible"/>
		</clipPath>
		<path clip-path="url(#SVGID_163_)" fill="#231F20" d="M0,9136.232c0,3.828,3.109,6.943,6.929,6.943h132.142
			c3.819,0,6.929-3.115,6.929-6.943v-150.287c0-3.83-3.109-6.945-6.929-6.945H44.272c-4.235,0-9.69,2.273-12.683,5.285
			l-26.347,26.508C2.253,9013.797,0,9019.268,0,9023.516V9136.232z"/>
	</g>
</g>
<path fill="#FFFFFF" d="M4.056,9136.232c0,1.59,1.294,2.891,2.874,2.891h132.142c1.578,0,2.872-1.301,2.872-2.891v-150.287
	c0-1.588-1.294-2.891-2.872-2.891H44.272c-3.158,0-7.572,1.84-9.805,4.086l-26.349,26.51c-2.235,2.248-4.062,6.688-4.062,9.865
	V9136.232z"/>
<polygon fill="#53A546" points="89.223,9098.584 103.416,9098.584 81.889,9069.191 101.389,9041.834 87.195,9041.834 
	75.13,9059.395 62.862,9041.834 48.668,9041.834 68.371,9069.191 46.639,9098.584 57.748,9098.584 61.61,9098.584 77.057,9098.584 
	77.057,9088.451 68.945,9088.451 75.13,9078.99 "/>
<g opacity="0.1">
	<g>
		<defs>
			<rect id="SVGID_164_" y="9222" width="146" height="164.176"/>
		</defs>
		<clipPath id="SVGID_165_">
			<use xlink:href="#SVGID_164_"  overflow="visible"/>
		</clipPath>
		<path clip-path="url(#SVGID_165_)" fill="#231F20" d="M0,9379.232c0,3.828,3.109,6.943,6.929,6.943h132.142
			c3.819,0,6.929-3.115,6.929-6.943v-150.289c0-3.828-3.109-6.943-6.929-6.943H44.272c-4.235,0-9.691,2.273-12.683,5.285
			L5.24,9253.793c-2.986,3.004-5.24,8.475-5.24,12.723V9379.232z"/>
	</g>
</g>
<path fill="#FFFFFF" d="M4.056,9379.232c0,1.59,1.293,2.891,2.874,2.891h132.142c1.578,0,2.872-1.301,2.872-2.891v-150.289
	c0-1.588-1.294-2.891-2.872-2.891H44.272c-3.157,0-7.572,1.842-9.805,4.086l-26.349,26.51c-2.236,2.248-4.062,6.689-4.062,9.867
	V9379.232z"/>
<g opacity="0.7">
	<g>
		<defs>
			<rect id="SVGID_166_" x="20.379" y="9270.645" width="105.342" height="66.887"/>
		</defs>
		<clipPath id="SVGID_167_">
			<use xlink:href="#SVGID_166_"  overflow="visible"/>
		</clipPath>
		<path clip-path="url(#SVGID_167_)" fill="#81C341" d="M20.385,9272.006c4.375-0.877,10.072-1.361,16.082-1.361
			c9.992,0,16.468,2.24,21.548,7c5.461,5.059,8.901,13.127,8.901,24.703c0,12.541-3.67,21.193-8.744,26.545
			c-5.542,5.732-13.979,8.457-24.279,8.457c-6.173,0-10.537-0.486-13.508-0.975V9272.006z M32.33,9325.49
			c1.018,0.283,2.652,0.283,4.137,0.283c10.772,0.102,17.796-7.291,17.796-22.945c0.079-13.609-6.321-20.807-16.551-20.807
			c-2.651,0-4.365,0.295-5.383,0.586V9325.49z"/>
		<path clip-path="url(#SVGID_167_)" fill="#81C341" d="M83.602,9289.98l2.814,19.455c0.726,4.953,1.45,10.205,2.021,15.648h0.145
			c0.723-5.443,1.738-10.893,2.603-15.557l3.756-19.547h8.674l3.533,18.961c0.94,5.352,1.88,10.699,2.602,16.143h0.145
			c0.509-5.443,1.234-10.791,2.028-16.238l3.033-18.865h10.767l-10.84,47.551h-10.328l-3.327-16.723
			c-0.867-4.672-1.518-8.943-2.236-14.781h-0.149c-0.644,5.932-1.369,10.309-2.31,14.781l-3.542,16.723H82.66l-10.258-47.551H83.602
			z"/>
	</g>
</g>
<g opacity="0.18">
	<g>
		<defs>
			<rect id="SVGID_168_" x="30.417" y="9226.053" width="85.167" height="156.07"/>
		</defs>
		<clipPath id="SVGID_169_">
			<use xlink:href="#SVGID_168_"  overflow="visible"/>
		</clipPath>
	</g>
</g>
<g opacity="0.27">
	<g>
		<defs>
			<rect id="SVGID_170_" x="4.056" y="9337.531" width="137.888" height="44.592"/>
		</defs>
		<clipPath id="SVGID_171_">
			<use xlink:href="#SVGID_170_"  overflow="visible"/>
		</clipPath>
	</g>
</g>
<g opacity="0.27">
	<g>
		<defs>
			<rect id="SVGID_172_" x="4.056" y="9226.053" width="137.888" height="44.592"/>
		</defs>
		<clipPath id="SVGID_173_">
			<use xlink:href="#SVGID_172_"  overflow="visible"/>
		</clipPath>
	</g>
</g>
<g opacity="0.1">
	<g>
		<defs>
			<rect id="SVGID_174_" y="9466.002" width="146" height="164.174"/>
		</defs>
		<clipPath id="SVGID_175_">
			<use xlink:href="#SVGID_174_"  overflow="visible"/>
		</clipPath>
		<path clip-path="url(#SVGID_175_)" fill="#231F20" d="M0,9623.232c0,3.828,3.11,6.943,6.927,6.943H139.07
			c3.821,0,6.93-3.115,6.93-6.943v-150.289c0-3.826-3.108-6.941-6.93-6.941H44.271c-4.233,0-9.691,2.271-12.681,5.283
			l-26.349,26.508C2.254,9500.799,0,9506.27,0,9510.516V9623.232z"/>
	</g>
</g>
<path fill="#FFFFFF" d="M4.057,9623.232c0,1.59,1.291,2.891,2.871,2.891H139.07c1.579,0,2.875-1.301,2.875-2.891v-150.289
	c0-1.586-1.296-2.889-2.875-2.889H44.271c-3.156,0-7.573,1.84-9.806,4.086l-26.349,26.51c-2.234,2.246-4.06,6.688-4.06,9.865
	V9623.232z"/>
<polygon fill="#FAA333" points="54.75,9599.773 101.39,9545.049 77.057,9545.049 91.251,9506.539 44.612,9561.264 68.945,9561.264 
	"/>
<g opacity="0.1">
	<g>
		<defs>
			<rect id="SVGID_176_" x="0" y="9709.002" width="146" height="164.174"/>
		</defs>
		<clipPath id="SVGID_177_">
			<use xlink:href="#SVGID_176_"  overflow="visible"/>
		</clipPath>
		<path clip-path="url(#SVGID_177_)" fill="#231F20" d="M0,9866.232c0,3.828,3.109,6.943,6.929,6.943h132.141
			c3.819,0,6.931-3.115,6.931-6.943v-150.289c0-3.826-3.111-6.941-6.931-6.941H44.272c-4.236,0-9.692,2.271-12.684,5.283
			L5.24,9740.793c-2.986,3.006-5.24,8.477-5.24,12.723V9866.232z"/>
	</g>
</g>
<path fill="#FFFFFF" d="M4.055,9866.232c0,1.59,1.293,2.889,2.873,2.889h132.141c1.58,0,2.874-1.299,2.874-2.889v-150.289
	c0-1.586-1.294-2.889-2.874-2.889H44.272c-3.159,0-7.573,1.838-9.807,4.086l-26.349,26.51c-2.235,2.246-4.062,6.688-4.062,9.865
	V9866.232z"/>
<polygon fill-rule="evenodd" clip-rule="evenodd" fill="#989798" points="85.168,9804.264 85.168,9713.055 60.833,9713.055 
	60.833,9804.264 54.749,9804.264 54.749,9852.906 91.248,9852.906 91.248,9804.264 "/>
<path fill-rule="evenodd" clip-rule="evenodd" fill="#FFFFFF" d="M83.138,9810.344h-4.02h-0.035v-6.08H73v-6.08h-6.084v12.16h-4.054
	h-2.028v36.482h4.057h2.026h12.203h1.993h4.057v-36.482H83.138z M66.916,9822.504h12.203v18.242H66.916V9822.504z"/>
<rect x="73" y="9792.102" fill-rule="evenodd" clip-rule="evenodd" fill="#FFFFFF" width="6.083" height="6.082"/>
<rect x="66.916" y="9786.021" fill-rule="evenodd" clip-rule="evenodd" fill="#FFFFFF" width="6.084" height="6.08"/>
<rect x="73" y="9779.941" fill-rule="evenodd" clip-rule="evenodd" fill="#FFFFFF" width="6.083" height="6.08"/>
<rect x="66.916" y="9773.859" fill-rule="evenodd" clip-rule="evenodd" fill="#FFFFFF" width="6.084" height="6.082"/>
<rect x="73" y="9767.779" fill-rule="evenodd" clip-rule="evenodd" fill="#FFFFFF" width="6.083" height="6.08"/>
<rect x="66.916" y="9761.699" fill-rule="evenodd" clip-rule="evenodd" fill="#FFFFFF" width="6.084" height="6.08"/>
<rect x="73" y="9755.619" fill-rule="evenodd" clip-rule="evenodd" fill="#FFFFFF" width="6.083" height="6.08"/>
<rect x="66.916" y="9749.537" fill-rule="evenodd" clip-rule="evenodd" fill="#FFFFFF" width="6.084" height="6.082"/>
<rect x="73" y="9743.471" fill-rule="evenodd" clip-rule="evenodd" fill="#FFFFFF" width="6.083" height="6.066"/>
<rect x="66.916" y="9737.377" fill-rule="evenodd" clip-rule="evenodd" fill="#FFFFFF" width="6.084" height="6.08"/>
<rect x="73" y="9731.297" fill-rule="evenodd" clip-rule="evenodd" fill="#FFFFFF" width="6.083" height="6.08"/>
<rect x="66.916" y="9725.215" fill-rule="evenodd" clip-rule="evenodd" fill="#FFFFFF" width="6.084" height="6.082"/>
<rect x="73.023" y="9719.146" fill-rule="evenodd" clip-rule="evenodd" fill="#FFFFFF" width="6.06" height="6.068"/>
<rect x="66.927" y="9713.055" fill-rule="evenodd" clip-rule="evenodd" fill="#FFFFFF" width="6.072" height="6.08"/>
<g opacity="0.1">
	<g>
		<defs>
			<rect id="SVGID_178_" x="0" y="9952" width="146" height="164.176"/>
		</defs>
		<clipPath id="SVGID_179_">
			<use xlink:href="#SVGID_178_"  overflow="visible"/>
		</clipPath>
		<path clip-path="url(#SVGID_179_)" fill="#231F20" d="M0,10109.232c0,3.83,3.109,6.943,6.929,6.943h132.141
			c3.819,0,6.931-3.113,6.931-6.943v-150.287c0-3.828-3.111-6.945-6.931-6.945H44.272c-4.236,0-9.692,2.273-12.684,5.287
			L5.24,9983.795c-2.986,3.004-5.24,8.475-5.24,12.723V10109.232z"/>
	</g>
</g>
<path fill="#FFFFFF" d="M4.055,10109.232c0,1.59,1.293,2.891,2.873,2.891h132.141c1.58,0,2.874-1.301,2.874-2.891v-150.287
	c0-1.588-1.294-2.891-2.874-2.891H44.272c-3.159,0-7.573,1.838-9.807,4.086l-26.349,26.512c-2.235,2.246-4.062,6.686-4.062,9.865
	V10109.232z"/>
<path fill-rule="evenodd" clip-rule="evenodd" fill="#D42328" d="M66.916,10047.264h10.139v-10.135H66.916V10047.264z
	 M91.248,10039.156v-8.107c0-4.746-3.364-8.107-8.11-8.107h-8.109v-34.455h-6.085v34.455h-8.11c-4.748,0-8.111,3.361-8.111,8.107
	v8.107H18.25v6.08h34.472v8.107c0,4.744,3.364,8.107,8.111,8.107h8.11v34.457h6.085v-34.457h8.109c4.746,0,8.11-3.363,8.11-8.107
	v-8.107h34.473v-6.08H91.248z M85.168,10053.344c0,1.576-0.452,2.025-2.03,2.025H60.833c-1.578,0-2.028-0.449-2.028-2.025v-22.295
	c0-1.576,0.45-2.027,2.028-2.027h22.305c1.578,0,2.03,0.451,2.03,2.027V10053.344z"/>
<g opacity="0.1">
	<g>
		<defs>
			<rect id="SVGID_180_" y="10195" width="146" height="164.176"/>
		</defs>
		<clipPath id="SVGID_181_">
			<use xlink:href="#SVGID_180_"  overflow="visible"/>
		</clipPath>
		<path clip-path="url(#SVGID_181_)" fill="#231F20" d="M0,10352.232c0,3.828,3.109,6.943,6.929,6.943h132.142
			c3.819,0,6.929-3.115,6.929-6.943v-150.287c0-3.828-3.109-6.945-6.929-6.945H44.272c-4.235,0-9.691,2.273-12.683,5.287
			l-26.349,26.506c-2.986,3.004-5.24,8.477-5.24,12.725V10352.232z"/>
	</g>
</g>
<path fill="#FFFFFF" d="M4.056,10352.232c0,1.588,1.293,2.889,2.874,2.889h132.142c1.578,0,2.872-1.301,2.872-2.889v-150.287
	c0-1.588-1.294-2.891-2.872-2.891H44.272c-3.157,0-7.57,1.838-9.805,4.086l-26.349,26.51c-2.236,2.248-4.062,6.688-4.062,9.867
	V10352.232z"/>
<path fill="#79BAD6" d="M62.862,10298.369v-30.402c10.696-4.254,23.042-6.08,34.471-6.08v23.527
	c-1.791-0.779-3.866-1.232-6.084-1.232c-6.721,0-12.165,4.084-12.165,9.121s5.444,9.121,12.165,9.121
	c6.294,0,11.533-3.516,12.167-8.107v-2.025v-46.619c-16.432,0-31.178,1.178-46.638,8.107v37.715c-1.79-0.779-3.866-1.23-6.084-1.23
	c-6.72,0-12.166,4.082-12.166,9.119c0,5.039,5.446,9.123,12.166,9.123c6.721,0,12.168-4.084,12.168-9.123V10298.369z"/>
<g opacity="0.1">
	<g>
		<defs>
			<rect id="SVGID_182_" y="10439.002" width="146" height="164.174"/>
		</defs>
		<clipPath id="SVGID_183_">
			<use xlink:href="#SVGID_182_"  overflow="visible"/>
		</clipPath>
		<path clip-path="url(#SVGID_183_)" fill="#231F20" d="M0,10596.232c0,3.828,3.109,6.943,6.929,6.943h132.142
			c3.819,0,6.929-3.115,6.929-6.943v-150.287c0-3.828-3.109-6.943-6.929-6.943H44.272c-4.235,0-9.691,2.271-12.683,5.285
			l-26.349,26.508c-2.986,3.004-5.24,8.475-5.24,12.721V10596.232z"/>
	</g>
</g>
<path fill="#FFFFFF" d="M4.056,10596.232c0,1.59,1.293,2.891,2.874,2.891h132.142c1.578,0,2.872-1.301,2.872-2.891v-150.287
	c0-1.588-1.294-2.889-2.872-2.889H44.272c-3.157,0-7.572,1.838-9.805,4.084l-26.349,26.51c-2.236,2.248-4.062,6.688-4.062,9.865
	V10596.232z"/>
<g opacity="0.7">
	<g>
		<defs>
			<rect id="SVGID_184_" x="24.759" y="10487.707" width="96.907" height="67.215"/>
		</defs>
		<clipPath id="SVGID_185_">
			<use xlink:href="#SVGID_184_"  overflow="visible"/>
		</clipPath>
		<path clip-path="url(#SVGID_185_)" fill="#C3A3CD" d="M42.274,10537.377l-4.087,17.156h-13.43l17.517-66.828h17.012l17.77,66.828
			H63.108l-4.417-17.156H42.274z M56.819,10526.074l-3.579-14.174c-1.019-3.963-2.036-8.922-2.89-12.885h-0.165
			c-0.853,3.963-1.707,9.018-2.639,12.885l-3.398,14.174H56.819z"/>
		<path clip-path="url(#SVGID_185_)" fill="#C3A3CD" d="M94.452,10535.117c0.424,6.059,5.701,8.938,11.738,8.938
			c4.416,0,7.991-0.672,11.482-1.924l1.699,9.904c-4.253,1.924-9.444,2.887-15.053,2.887c-14.118,0-22.202-9.23-22.202-23.938
			c0-11.922,6.555-25.098,21.012-25.098c13.432,0,18.537,11.828,18.537,23.463c0,2.494-0.26,4.711-0.424,5.768H94.452z
			 M109.677,10525.121c0-3.561-1.364-9.52-7.313-9.52c-5.443,0-7.651,5.574-7.996,9.52H109.677z"/>
	</g>
</g>
<g opacity="0.18">
	<g>
		<defs>
			<rect id="SVGID_186_" x="30.417" y="10443.057" width="85.167" height="156.066"/>
		</defs>
		<clipPath id="SVGID_187_">
			<use xlink:href="#SVGID_186_"  overflow="visible"/>
		</clipPath>
	</g>
</g>
<g opacity="0.27">
	<g>
		<defs>
			<rect id="SVGID_188_" x="4.056" y="10554.533" width="137.888" height="44.59"/>
		</defs>
		<clipPath id="SVGID_189_">
			<use xlink:href="#SVGID_188_"  overflow="visible"/>
		</clipPath>
	</g>
</g>
<g opacity="0.27">
	<g>
		<defs>
			<rect id="SVGID_190_" x="4.056" y="10443.057" width="137.888" height="44.59"/>
		</defs>
		<clipPath id="SVGID_191_">
			<use xlink:href="#SVGID_190_"  overflow="visible"/>
		</clipPath>
	</g>
</g>
<g opacity="0.1">
	<g>
		<defs>
			<rect id="SVGID_192_" y="10682.002" width="146" height="164.174"/>
		</defs>
		<clipPath id="SVGID_193_">
			<use xlink:href="#SVGID_192_"  overflow="visible"/>
		</clipPath>
		<path clip-path="url(#SVGID_193_)" fill="#231F20" d="M0,10839.232c0,3.828,3.109,6.943,6.929,6.943h132.142
			c3.819,0,6.929-3.115,6.929-6.943v-150.289c0-3.828-3.109-6.941-6.929-6.941H44.272c-4.235,0-9.691,2.271-12.683,5.283
			l-26.349,26.508c-2.986,3.006-5.24,8.475-5.24,12.723V10839.232z"/>
	</g>
</g>
<path fill="#FFFFFF" d="M4.056,10839.232c0,1.59,1.293,2.891,2.874,2.891h132.142c1.578,0,2.872-1.301,2.872-2.891v-150.289
	c0-1.588-1.294-2.889-2.872-2.889H44.272c-3.157,0-7.572,1.84-9.805,4.086l-26.349,26.512c-2.236,2.246-4.062,6.686-4.062,9.863
	V10839.232z"/>
<polygon fill="#EAEAEA" points="73,10764.24 115.584,10742.6 115.584,10791.529 73,10819.488 "/>
<g opacity="0.6">
	<g>
		<defs>
			<rect id="SVGID_194_" x="30.417" y="10742.604" width="42.583" height="76.879"/>
		</defs>
		<clipPath id="SVGID_195_">
			<use xlink:href="#SVGID_194_"  overflow="visible"/>
		</clipPath>
		<polygon clip-path="url(#SVGID_195_)" fill="#C0BFBF" points="73,10819.49 30.417,10791.529 30.417,10742.6 73,10764.24 		"/>
	</g>
</g>
<g opacity="0.4">
	<g>
		<defs>
			<rect id="SVGID_196_" x="30.417" y="10728.617" width="85.167" height="35.613"/>
		</defs>
		<clipPath id="SVGID_197_">
			<use xlink:href="#SVGID_196_"  overflow="visible"/>
		</clipPath>
		<polygon clip-path="url(#SVGID_197_)" fill="#919191" points="30.417,10742.6 73,10728.617 115.584,10742.6 73,10764.24 		"/>
	</g>
</g>
<g opacity="0.1">
	<g>
		<defs>
			<rect id="SVGID_198_" x="30.417" y="10728.617" width="85.167" height="90.865"/>
		</defs>
		<clipPath id="SVGID_199_">
			<use xlink:href="#SVGID_198_"  overflow="visible"/>
		</clipPath>
		<path clip-path="url(#SVGID_199_)" fill="#010101" d="M73,10731.982l38.527,12.852v44.59L73,10814.422l-38.528-24.998v-44.59
			L73,10731.982z M73,10728.617l-42.583,13.98v48.932L73,10819.488l42.584-27.959v-48.932L73,10728.617z"/>
	</g>
</g>
<path fill="#EDC137" d="M0,10969.605v91.207c0,3.346,2.737,6.082,6.084,6.082h133.833c3.346,0,6.083-2.736,6.083-6.082v-91.207H0z
	 M139.917,10961.498c0-3.354-2.729-6.08-6.085-6.08H77.057l-10.141-10.135H8.111c-3.368,0-6.083,2.713-6.083,6.08v14.188h137.889
	V10961.498z"/>
<polygon fill="#FFFFFF" points="107.473,11014.195 107.473,10982.693 68.945,10987.256 68.945,11014.195 "/>
<polygon fill="#FFFFFF" points="64.889,10987.848 38.551,10991.029 38.528,11014.195 64.889,11014.195 "/>
<polygon fill="#FFFFFF" points="38.528,11018.25 38.551,11041.41 64.889,11045.363 64.889,11018.25 "/>
<polygon fill="#FFFFFF" points="68.945,11045.945 107.473,11051.697 107.473,11018.25 68.945,11018.25 "/>
<rect x="66.916" y="10983.793" fill="#EDC137" width="4.056" height="64.859"/>
<rect x="36.5" y="11014.195" fill="#EDC137" width="77.055" height="6.08"/>
<path fill="#EDC137" d="M0,11212.605v91.207c0,3.346,2.737,6.082,6.084,6.082h133.833c3.346,0,6.083-2.736,6.083-6.082v-91.207H0z
	 M139.917,11204.498c0-3.354-2.729-6.08-6.085-6.08H77.057l-10.141-10.135H8.111c-3.368,0-6.083,2.713-6.083,6.08v14.188h137.889
	V11204.498z"/>
<path fill-rule="evenodd" clip-rule="evenodd" fill="#FFFFFF" d="M75.962,11229.629c4.616-6.078,11.03-6.109,11.03-6.109
	s0.952,5.715-3.63,11.221c-4.895,5.877-10.457,4.918-10.457,4.918S71.859,11235.035,75.962,11229.629"/>
<path fill-rule="evenodd" clip-rule="evenodd" fill="#FFFFFF" d="M73.491,11243.66c2.373,0,6.777-3.262,12.513-3.262
	c9.872,0,13.754,7.021,13.754,7.021s-7.595,3.879-7.595,13.299c0,10.623,9.461,14.285,9.461,14.285s-6.613,18.605-15.547,18.605
	c-4.103,0-7.29-2.764-11.615-2.764c-4.405,0-8.778,2.865-11.625,2.865c-8.156,0-18.461-17.646-18.461-31.834
	c0-13.961,8.723-21.283,16.903-21.283C66.599,11240.594,70.724,11243.66,73.491,11243.66"/>
<path fill="#EDC137" d="M0,11455.605v91.209c0,3.344,2.737,6.08,6.084,6.08h133.833c3.346,0,6.083-2.736,6.083-6.08v-91.209H0z
	 M139.917,11447.498c0-3.354-2.729-6.08-6.085-6.08H77.057l-10.141-10.135H8.111c-3.368,0-6.083,2.713-6.083,6.08v14.188h137.889
	V11447.498z"/>
<path fill="#FFFFFF" d="M73,11488.002c-11.198,0-20.279,8.516-20.279,20.27c0,11.752,9.081,20.27,20.279,20.27
	c11.197,0,20.277-8.518,20.277-20.27C93.277,11496.518,84.197,11488.002,73,11488.002 M111.527,11477.869H95.305l-5.661-5.605
	c-2.444-2.473-7.274-4.498-10.734-4.498H66.331c-3.46,0-8.289,2.025-10.735,4.498l-4.902,5.637l-16.222-0.031
	c-6.918,0-12.167,5.162-12.167,12.16v38.168c0,6.996,5.248,12.504,12.167,12.504h77.055c6.92,0,12.166-5.164,12.166-12.16v-38.512
	C123.693,11483.031,118.447,11477.869,111.527,11477.869 M73,11534.621c-13.893,0-26.361-12.293-26.361-26.35
	c0-14.053,12.468-26.35,26.361-26.35c13.891,0,26.361,12.297,26.361,26.35C99.361,11522.328,86.891,11534.621,73,11534.621
	 M109.5,11498.42c-3.361,0-6.084-2.787-6.084-6.223c0-3.434,2.723-6.221,6.084-6.221c3.357,0,6.084,2.787,6.084,6.221
	C115.584,11495.633,112.857,11498.42,109.5,11498.42"/>
<path fill="#B3B4B4" d="M0,11699.605v91.209c0,3.346,2.737,6.08,6.084,6.08h133.833c3.346,0,6.083-2.734,6.083-6.08v-91.209H0z
	 M139.917,11691.498c0-3.352-2.729-6.082-6.085-6.082H77.057l-10.141-10.133H8.111c-3.368,0-6.083,2.713-6.083,6.082v14.188h137.889
	V11691.498z"/>
<path fill="#B3B4B4" d="M0,11942.605v91.211c0,3.344,2.737,6.078,6.084,6.078h133.833c3.346,0,6.083-2.734,6.083-6.078v-91.211H0z
	 M139.917,11934.5c0-3.355-2.729-6.082-6.085-6.082H77.057l-10.141-10.135H8.111c-3.368,0-6.083,2.717-6.083,6.082v14.189h137.889
	V11934.5z"/>
<path fill="#FFFFFF" d="M51.967,11999.203c0-0.453-0.248-2.012-0.845-2.293c-0.566-0.211-2.426-1.109-2.426-1.109
	c0-0.141-0.214-0.527-0.248-0.939c0-0.455,0.248-0.9,0.248-0.9c0.25-0.492,1.163-1.637,1.405-2.539
	c0.249-0.902,0.527-3.199,0.527-3.199c0-0.484,0.742-0.693,1.199-0.936c0.808-0.381,2.08-5.283,2.08-5.283
	c0-1.594-0.07-0.906-0.07-2.051v-4.27c0-5.25-5.493-8.586-10.85-8.586h-0.201c-5.356,0-10.849,3.336-10.849,8.586v4.27
	c0,1.145-0.069,0.457-0.069,2.051c0,0,0.968,4.902,1.78,5.283c0.455,0.242,1.347,0.451,1.347,0.936c0,0,0.356,2.297,0.601,3.199
	c0.244,0.902,1.195,2.047,1.445,2.539c0,0,0.263,0.445,0.263,0.9c-0.031,0.412-0.233,0.799-0.233,0.939c0,0-1.857,0.898-2.422,1.109
	c-0.598,0.281-0.846,1.84-0.846,2.293c-2.111,0.691-13.371,5.836-14.642,7.125c-0.914,0.938-0.911,6.426-0.911,6.426v0.695
	c0,1.254,1.774,2.125,3.042,2.125h16.222c0.158-7.16,1.417-8.381,1.882-8.852c1.457-1.477,8.093-4.719,13.502-7.164
	C52.514,11999.402,52.184,11999.277,51.967,11999.203 M126.835,12006.328c-1.27-1.289-12.531-6.434-14.64-7.125
	c0-0.453-0.249-2.012-0.849-2.293c-0.566-0.211-2.425-1.109-2.425-1.109c0-0.141-0.214-0.527-0.248-0.939
	c0-0.455,0.248-0.9,0.248-0.9c0.248-0.492,1.162-1.637,1.401-2.539c0.25-0.902,0.53-3.199,0.53-3.199
	c0-0.484,0.741-0.693,1.198-0.936c0.806-0.381,2.08-5.283,2.08-5.283c0-1.594-0.069-0.906-0.069-2.051v-4.27
	c0-5.25-5.493-8.586-10.848-8.586h-0.204c-5.355,0-10.85,3.336-10.85,8.586v4.27c0,1.145-0.065,0.457-0.065,2.051
	c0,0,0.966,4.902,1.778,5.283c0.456,0.242,1.346,0.451,1.346,0.936c0,0,0.356,2.297,0.603,3.199
	c0.244,0.902,1.193,2.047,1.443,2.539c0,0,0.264,0.445,0.264,0.9c-0.029,0.412-0.236,0.799-0.236,0.939c0,0-1.856,0.898-2.419,1.109
	c-0.598,0.281-0.845,1.84-0.845,2.293c-0.217,0.074-0.547,0.199-0.928,0.355c5.408,2.445,12.04,5.68,13.487,7.148
	c0.478,0.486,1.738,1.707,1.896,8.867h16.224c1.266,0,3.04-0.871,3.04-2.125v-0.695
	C127.749,12012.754,127.749,12007.266,126.835,12006.328 M85.108,11999.098c0-0.609-0.333-2.688-1.128-3.061
	c-0.751-0.279-3.236-1.48-3.236-1.48c0-0.186-0.282-0.701-0.33-1.252c0-0.605,0.33-1.203,0.33-1.203
	c0.332-0.652,1.551-2.18,1.873-3.383c0.332-1.205,0.706-4.262,0.706-4.262c0-0.652,0.986-0.93,1.599-1.252
	c1.077-0.508,2.312-7.041,2.312-7.041c0-2.127-0.548-1.207-0.548-2.734v-5.695c0-6.996-6.414-11.445-13.552-11.445h-0.271
	c-7.137,0-13.551,4.449-13.551,11.445v5.695c0,1.527-0.549,0.607-0.549,2.734c0,0,1.064,6.533,2.144,7.041
	c0.609,0.322,1.682,0.6,1.682,1.252c0,0,0.42,3.057,0.749,4.262c0.324,1.203,1.565,2.73,1.896,3.383c0,0,0.339,0.598,0.339,1.203
	c-0.047,0.551-0.322,1.066-0.322,1.252c0,0-2.48,1.201-3.233,1.48c-0.796,0.373-1.125,2.451-1.125,3.061
	c-2.818,0.922-17.831,7.781-19.525,9.496c-1.218,1.252-1.218,8.572-1.218,8.572v0.924c0,1.668,1.759,3.564,3.449,3.564h58.805
	c1.69,0,3.444-1.896,3.444-3.564v-0.924c0,0,0-7.32-1.217-8.572C102.938,12006.879,87.923,12000.02,85.108,11999.098"/>
</svg>
