<?xml version="1.0" encoding="utf-8"?>
<!-- Generator: Adobe Illustrator 16.0.0, SVG Export Plug-In . SVG Version: 6.00 Build 0)  -->
<!DOCTYPE svg PUBLIC "-//W3C//DTD SVG 1.1//EN" "http://www.w3.org/Graphics/SVG/1.1/DTD/svg11.dtd">
<svg version="1.1" id="Layer_1" xmlns:sketch="http://www.bohemiancoding.com/sketch/ns"
	 xmlns="http://www.w3.org/2000/svg" xmlns:xlink="http://www.w3.org/1999/xlink" x="0px" y="0px" width="168px" height="11649px"
	 viewBox="0 0 168 11649" enable-background="new 0 0 168 11649" xml:space="preserve">
<g>
	<path id="path-4" fill="#FFFFFF" d="M50.92,1509.062L50.92,1509.062l0.032,0.029L50.92,1509.062 M75.49,1499.994
		c-7.8,0-17.64,3.64-23.862,9.775l49.021,49.021c6.228-6.308,10.348-14.314,10.352-23.79c0.008-19.13-15.855-34.664-35.02-35
		l-0.44-0.006H75.49"/>
</g>
<title>Artboard 1</title>
<desc>Created with Sketch.</desc>
<g id="Imported-Layers" transform="translate(13.000000, 4780.000000)" sketch:type="MSLayerGroup">
	<path id="Fill-1" sketch:type="MSShapeGroup" opacity="0.1" fill="#111111" enable-background="new    " d="M0,170.171V35.829
		C0,28.191,6.181,22,13.806,22h84.378c3.66,0,7.172,1.458,9.76,4.05l30.014,30.065c2.588,2.592,4.043,6.11,4.043,9.777v104.278
		c0,7.638-6.182,13.829-13.806,13.829H13.806C6.181,184,0,177.809,0,170.171z"/>
	<path id="Fill-2" sketch:type="MSShapeGroup" fill="#FFFFFF" d="M13,181c-4.972,0-10-5.028-10-10V35c0-4.952,5.048-10,10-10h84
		c3.342,0,6,2.658,6,6v24c0,3.342,2.658,6,6,6h24c3.342,0,6,2.658,6,6v104c0,4.972-5.027,10-10,10H13z"/>
</g>
<g id="Imported-Layers_1_" transform="translate(13.000000, 0.000000)" sketch:type="MSLayerGroup">
	<path id="Fill-1_1_" sketch:type="MSShapeGroup" opacity="0.1" fill="#111111" enable-background="new    " d="M0,4710.171
		v-134.342C0,4568.191,6.181,4562,13.806,4562h84.378c3.66,0,7.172,1.458,9.76,4.05l30.014,30.065
		c2.588,2.592,4.043,6.11,4.043,9.777v104.278c0,7.638-6.182,13.829-13.806,13.829H13.806C6.181,4724,0,4717.809,0,4710.171z"/>
	<path id="Fill-1_2_" sketch:type="MSShapeGroup" opacity="0.1" fill="#111111" enable-background="new    " d="M0,4470.171
		v-134.342C0,4328.191,6.181,4322,13.806,4322h84.378c3.66,0,7.172,1.458,9.76,4.05l30.014,30.065
		c2.588,2.592,4.043,6.11,4.043,9.777v104.278c0,7.638-6.182,13.829-13.806,13.829H13.806C6.181,4484,0,4477.809,0,4470.171z"/>
	<path id="Fill-1_3_" sketch:type="MSShapeGroup" opacity="0.1" fill="#111111" enable-background="new    " d="M0,4230.171
		v-134.342C0,4088.191,6.181,4082,13.806,4082h84.378c3.66,0,7.172,1.458,9.76,4.05l30.014,30.065
		c2.588,2.592,4.043,6.11,4.043,9.777v104.278c0,7.638-6.182,13.829-13.806,13.829H13.806C6.181,4244,0,4237.809,0,4230.171z"/>
	<path id="Fill-1_4_" sketch:type="MSShapeGroup" opacity="0.1" fill="#111111" enable-background="new    " d="M0,3990.171
		v-134.342C0,3848.191,6.181,3842,13.806,3842h84.378c3.66,0,7.172,1.458,9.76,4.05l30.014,30.065
		c2.588,2.592,4.043,6.11,4.043,9.777v104.278c0,7.638-6.182,13.829-13.806,13.829H13.806C6.181,4004,0,3997.809,0,3990.171z"/>
	<path id="Fill-1_5_" sketch:type="MSShapeGroup" opacity="0.1" fill="#111111" enable-background="new    " d="M0,3750.171
		v-134.342C0,3608.191,6.181,3602,13.806,3602h84.378c3.66,0,7.172,1.458,9.76,4.05l30.014,30.065
		c2.588,2.592,4.043,6.11,4.043,9.777v104.278c0,7.638-6.182,13.829-13.806,13.829H13.806C6.181,3764,0,3757.809,0,3750.171z"/>
	<path id="Fill-1_6_" sketch:type="MSShapeGroup" opacity="0.1" fill="#111111" enable-background="new    " d="M0,3510.171
		v-134.342C0,3368.191,6.181,3362,13.806,3362h84.378c3.66,0,7.172,1.458,9.76,4.05l30.014,30.065
		c2.588,2.592,4.043,6.11,4.043,9.777v104.278c0,7.638-6.182,13.829-13.806,13.829H13.806C6.181,3524,0,3517.809,0,3510.171z"/>
	<path id="Fill-1_7_" sketch:type="MSShapeGroup" opacity="0.1" fill="#111111" enable-background="new    " d="M0,3270.171
		v-134.342C0,3128.191,6.181,3122,13.806,3122h84.378c3.66,0,7.172,1.458,9.76,4.05l30.014,30.065
		c2.588,2.592,4.043,6.11,4.043,9.777v104.278c0,7.638-6.182,13.829-13.806,13.829H13.806C6.181,3284,0,3277.809,0,3270.171z"/>
	<path id="Fill-1_8_" sketch:type="MSShapeGroup" opacity="0.1" fill="#111111" enable-background="new    " d="M0,3030.171
		v-134.342C0,2888.191,6.181,2882,13.806,2882h84.378c3.66,0,7.172,1.458,9.76,4.05l30.014,30.065
		c2.588,2.592,4.043,6.11,4.043,9.777v104.278c0,7.638-6.182,13.829-13.806,13.829H13.806C6.181,3044,0,3037.809,0,3030.171z"/>
	<path id="Fill-1_9_" sketch:type="MSShapeGroup" opacity="0.1" fill="#111111" enable-background="new    " d="M0,2790.171
		v-134.342C0,2648.191,6.181,2642,13.806,2642h84.378c3.66,0,7.172,1.458,9.76,4.05l30.014,30.065
		c2.588,2.592,4.043,6.11,4.043,9.777v104.278c0,7.638-6.182,13.829-13.806,13.829H13.806C6.181,2804,0,2797.809,0,2790.171z"/>
	<path id="Fill-1_10_" sketch:type="MSShapeGroup" opacity="0.1" fill="#111111" enable-background="new    " d="M0,2550.171
		v-134.342C0,2408.191,6.181,2402,13.806,2402h84.378c3.66,0,7.172,1.458,9.76,4.05l30.014,30.065
		c2.588,2.592,4.043,6.11,4.043,9.777v104.278c0,7.638-6.182,13.829-13.806,13.829H13.806C6.181,2564,0,2557.809,0,2550.171z"/>
	<path id="Fill-1_11_" sketch:type="MSShapeGroup" opacity="0.1" fill="#111111" enable-background="new    " d="M0,2310.171
		v-134.342C0,2168.191,6.181,2162,13.806,2162h84.378c3.66,0,7.172,1.458,9.76,4.05l30.014,30.065
		c2.588,2.592,4.043,6.11,4.043,9.777v104.278c0,7.638-6.182,13.829-13.806,13.829H13.806C6.181,2324,0,2317.809,0,2310.171z"/>
	<path id="Fill-1_12_" sketch:type="MSShapeGroup" opacity="0.1" fill="#111111" enable-background="new    " d="M0,2070.171
		v-134.342C0,1928.191,6.181,1922,13.806,1922h84.378c3.66,0,7.172,1.458,9.76,4.05l30.014,30.065
		c2.588,2.592,4.043,6.11,4.043,9.777v104.278c0,7.638-6.182,13.829-13.806,13.829H13.806C6.181,2084,0,2077.809,0,2070.171z"/>
	<path id="Fill-1_13_" sketch:type="MSShapeGroup" opacity="0.1" fill="#111111" enable-background="new    " d="M0,1830.171
		v-134.342C0,1688.191,6.181,1682,13.806,1682h84.378c3.66,0,7.172,1.458,9.76,4.05l30.014,30.065
		c2.588,2.592,4.043,6.11,4.043,9.777v104.278c0,7.638-6.182,13.829-13.806,13.829H13.806C6.181,1844,0,1837.809,0,1830.171z"/>
	<path id="Fill-1_14_" sketch:type="MSShapeGroup" opacity="0.1" fill="#111111" enable-background="new    " d="M0,1590.171
		v-134.342C0,1448.191,6.181,1442,13.806,1442h84.378c3.66,0,7.172,1.458,9.76,4.05l30.014,30.065
		c2.588,2.592,4.043,6.11,4.043,9.777v104.278c0,7.638-6.182,13.829-13.806,13.829H13.806C6.181,1604,0,1597.809,0,1590.171z"/>
	<path id="Fill-1_15_" sketch:type="MSShapeGroup" opacity="0.1" fill="#111111" enable-background="new    " d="M0,1350.171
		v-134.342C0,1208.191,6.181,1202,13.806,1202h84.378c3.66,0,7.172,1.458,9.76,4.05l30.014,30.065
		c2.588,2.592,4.043,6.11,4.043,9.777v104.278c0,7.638-6.182,13.829-13.806,13.829H13.806C6.181,1364,0,1357.809,0,1350.171z"/>
	<path id="Fill-1_16_" sketch:type="MSShapeGroup" opacity="0.1" fill="#111111" enable-background="new    " d="M0,1110.171
		V975.829C0,968.191,6.181,962,13.806,962h84.378c3.66,0,7.172,1.458,9.76,4.05l30.014,30.065c2.588,2.592,4.043,6.11,4.043,9.777
		v104.278c0,7.638-6.182,13.829-13.806,13.829H13.806C6.181,1124,0,1117.809,0,1110.171z"/>
	<path id="Fill-1_17_" sketch:type="MSShapeGroup" opacity="0.1" fill="#111111" enable-background="new    " d="M0,870.171V735.829
		C0,728.191,6.181,722,13.806,722h84.378c3.66,0,7.172,1.458,9.76,4.05l30.014,30.065c2.588,2.592,4.043,6.11,4.043,9.777v104.278
		c0,7.638-6.182,13.829-13.806,13.829H13.806C6.181,884,0,877.809,0,870.171z"/>
	<path id="Fill-1_18_" sketch:type="MSShapeGroup" opacity="0.1" fill="#111111" enable-background="new    " d="M0,630.171V495.829
		C0,488.191,6.181,482,13.806,482h84.378c3.66,0,7.172,1.458,9.76,4.05l30.014,30.065c2.588,2.592,4.043,6.11,4.043,9.777v104.278
		c0,7.638-6.182,13.829-13.806,13.829H13.806C6.181,644,0,637.809,0,630.171z"/>
	<path id="Fill-1_19_" sketch:type="MSShapeGroup" opacity="0.1" fill="#111111" enable-background="new    " d="M0,390.171V255.829
		C0,248.191,6.181,242,13.806,242h84.378c3.66,0,7.172,1.458,9.76,4.05l30.014,30.065c2.588,2.592,4.043,6.111,4.043,9.777v104.279
		c0,7.638-6.182,13.829-13.806,13.829H13.806C6.181,404,0,397.809,0,390.171z"/>
	<path id="Fill-1_20_" sketch:type="MSShapeGroup" opacity="0.1" fill="#111111" enable-background="new    " d="M0,170.171V35.829
		C0,28.191,6.181,22,13.806,22h84.378c3.66,0,7.172,1.458,9.76,4.05l30.014,30.065c2.588,2.592,4.043,6.111,4.043,9.777v104.279
		c0,7.638-6.182,13.829-13.806,13.829H13.806C6.181,184,0,177.809,0,170.171z"/>
	<path id="Fill-2_1_" sketch:type="MSShapeGroup" fill="#FFFFFF" d="M13,4721c-4.972,0-10-5.027-10-10v-136c0-4.952,5.048-10,10-10
		h84c3.342,0,6,2.658,6,6v24c0,3.342,2.658,6,6,6h24c3.342,0,6,2.658,6,6v104c0,4.973-5.027,10-10,10H13z"/>
</g>
<g id="Imported-Layers_2_" transform="translate(2.000000, 11265.000000)" sketch:type="MSLayerGroup">
	<path id="Fill-1_21_" sketch:type="MSShapeGroup" fill="#F1D364" d="M164,158.98c0,4.949-4.05,9-9,9H9c-4.95,0-9-4.051-9-9V50h164
		V158.98"/>
	<path id="Fill-2_2_" sketch:type="MSShapeGroup" fill="#ECC01E" d="M9.022,24H64c2.356,0.006,4.442,1.105,6.12,2.76l8.254,8.131
		C80.058,36.547,83.637,38,86,38h70c4.95,0,8,3.527,8,8.477V50H0V33C0,28.02,4.044,23.988,9.022,24"/>
	<path id="Fill-3" sketch:type="MSShapeGroup" fill="#FFFFFF" d="M109,88H97l-3.1-3.1C92.266,83.246,89.312,82,87,82H77
		c-2.312,0-5.212,1.246-6.846,2.9L67,88H55c-4.622,0-7,3.324-7,8v28c0,4.676,3.378,6,8,6h52c4.622,0,8-1.324,8-6V96
		C116,91.324,113.622,88,109,88L109,88z M82,124c-9.39,0-17-7.613-17-17s7.61-17,17-17c9.391,0,17,7.613,17,17S91.391,124,82,124
		L82,124z M107,98c-1.656,0-3-1.344-3-3s1.344-3,3-3s3,1.344,3,3S108.656,98,107,98L107,98z"/>
	<path id="Fill-4" sketch:type="MSShapeGroup" fill="#FFFFFF" d="M82,94c-7.18,0-13,5.82-13,13s5.82,13,13,13c7.18,0,13-5.82,13-13
		S89.18,94,82,94"/>
</g>
<g id="Group" transform="translate(2.000000, 7667.000000)" sketch:type="MSLayerGroup">
	<path id="Fill-1_22_" sketch:type="MSShapeGroup" fill="#F1D364" d="M164,156.98c0,4.949-4.05,9-9,9H9c-4.95,0-9-4.051-9-9V48h164
		V156.98"/>
	<path id="Fill-2_3_" sketch:type="MSShapeGroup" fill="#ECC01E" d="M9.022,22H64c2.356,0.006,4.442,1.105,6.12,2.76l8.254,8.131
		C80.058,34.548,83.637,36,86,36h70c4.95,0,8,3.527,8,8.479V48H0V31C0,26.02,4.044,21.988,9.022,22"/>
	<path id="Imported-Layers_3_" sketch:type="MSShapeGroup" fill="#FFFFFF" d="M54.817,116.34c1.124-1.206,6.236-3.85,10.406-5.848
		c-0.296-0.124-0.551-0.229-0.716-0.286c0-0.372-0.191-1.646-0.654-1.874c-0.434-0.172-1.868-0.904-1.868-0.904
		c0-0.113-0.165-0.432-0.191-0.768c0-0.37,0.191-0.736,0.191-0.736c0.191-0.4,0.896-1.336,1.081-2.072
		c0.191-0.735,0.408-2.607,0.408-2.607c0-0.4,0.57-0.57,0.924-0.766C65.021,100.166,66,96.166,66,96.166
		c0-1.3-0.054-0.738-0.054-1.674v-3.484c0-4.283-4.232-7.008-8.36-7.008H57.43c-4.125,0-8.36,2.725-8.36,7.008v3.484
		c0,0.936-0.051,0.374-0.051,1.674c0,0,0.746,4,1.37,4.312c0.352,0.195,1.039,0.365,1.039,0.766c0,0,0.274,1.872,0.465,2.607
		c0.186,0.736,0.918,1.672,1.11,2.072c0,0,0.205,0.366,0.205,0.736c-0.025,0.336-0.182,0.654-0.182,0.768
		c0,0-1.432,0.732-1.866,0.904c-0.461,0.229-0.651,1.502-0.651,1.874c-1.628,0.563-10.304,4.762-11.284,5.812
		c-0.704,0.767-1.225,4.238-1.225,4.238v1.104c0,1.021,1.822,2.555,2.797,2.555H53.08C53.08,118.4,54.462,116.727,54.817,116.34
		L54.817,116.34z"/>
	<path id="Imported-Layers-2" sketch:type="MSShapeGroup" fill="#FFFFFF" d="M109.183,116.34c-1.124-1.206-6.236-3.85-10.405-5.848
		c0.296-0.124,0.551-0.229,0.715-0.286c0-0.372,0.191-1.646,0.654-1.874c0.435-0.172,1.868-0.904,1.868-0.904
		c0-0.113,0.165-0.432,0.191-0.768c0-0.37-0.191-0.736-0.191-0.736c-0.191-0.4-0.896-1.336-1.081-2.072
		c-0.191-0.735-0.408-2.607-0.408-2.607c0-0.4-0.57-0.57-0.924-0.766C98.979,100.166,98,96.166,98,96.166
		c0-1.3,0.054-0.738,0.054-1.674v-3.484c0-4.283,4.232-7.008,8.36-7.008h0.156c4.125,0,8.36,2.725,8.36,7.008v3.484
		c0,0.936,0.052,0.374,0.052,1.674c0,0-0.746,4-1.37,4.312c-0.353,0.195-1.039,0.365-1.039,0.766c0,0-0.274,1.872-0.466,2.607
		c-0.186,0.736-0.918,1.672-1.109,2.072c0,0-0.205,0.366-0.205,0.736c0.025,0.336,0.182,0.654,0.182,0.768
		c0,0,1.432,0.732,1.866,0.904c0.462,0.229,0.651,1.502,0.651,1.874c1.628,0.563,10.304,4.762,11.283,5.812
		c0.704,0.767,1.225,4.238,1.225,4.238v1.104c0,1.021-1.822,2.555-2.797,2.555H110.92C110.92,118.4,109.538,116.727,109.183,116.34
		L109.183,116.34z"/>
	<path id="vv" sketch:type="MSShapeGroup" fill="#FFFFFF" d="M82,76c-5.709,0-10.948,3.77-10.948,9.482v4.646
		c0,1.248-0.437,0.496-0.437,2.231c0,0,0.85,5.332,1.714,5.75c0.486,0.263,1.346,0.488,1.346,1.021c0,0,0.334,2.494,0.598,3.478
		c0.258,0.982,1.251,2.229,1.515,2.763c0,0,0.27,0.487,0.27,0.981c-0.034,0.448-0.256,0.871-0.256,1.021c0,0-1.984,0.979-2.585,1.21
		c-0.637,0.302-0.901,2.002-0.901,2.496c-2.252,0.754-14.26,6.352-15.612,7.75c-0.975,1.021-0.651,6.8-0.651,6.8v1.104
		c0,1.359,2.631,3.33,3.982,3.33h43.625c1.353,0,4.289-1.971,4.289-3.33v-1.104c0,0.002,0.323-5.778-0.651-6.8
		c-1.352-1.398-13.362-6.996-15.614-7.75c0-0.494-0.265-2.194-0.901-2.496c-0.602-0.23-2.588-1.21-2.588-1.21
		c0-0.149-0.227-0.572-0.262-1.021c0-0.494,0.262-0.981,0.262-0.981c0.267-0.534,1.242-1.78,1.498-2.763
		c0.266-0.983,0.565-3.478,0.565-3.478c0-0.532,0.788-0.758,1.276-1.021c0.862-0.418,1.852-5.75,1.852-5.75
		c0-1.735-0.438-0.983-0.438-2.231v-4.646C92.947,79.77,87.709,76,82,76z"/>
</g>
<g id="Fill-2-_x2B_-Fill-1" transform="translate(2.000000, 7427.000000)" sketch:type="MSLayerGroup">
	<path id="Fill-2_4_" sketch:type="MSShapeGroup" fill="#ECC01E" d="M9.022,22H64c2.356,0.006,4.442,1.105,6.12,2.758l8.254,8.133
		C80.058,34.548,83.637,36,86,36h70c4.95,0,8,3.527,8,8.479V48H0V31C0,26.02,4.044,21.988,9.022,22"/>
	<path id="Fill-1_23_" sketch:type="MSShapeGroup" fill="#F1D364" d="M164,156.98c0,4.949-4.05,9-9,9H9c-4.95,0-9-4.051-9-9V48h164
		V156.98"/>
</g>
<g id="Fill-2-_x2B_-Fill-1_1_" transform="translate(2.000000, 10787.000000)" sketch:type="MSLayerGroup">
	<path id="Fill-2_5_" sketch:type="MSShapeGroup" fill="#ECC01E" d="M9.022,22H64c2.356,0.006,4.442,1.105,6.12,2.758l8.254,8.133
		C80.058,34.547,83.637,36,86,36h70c4.95,0,8,3.527,8,8.479V48H0V31C0,26.02,4.044,21.988,9.022,22"/>
	<path id="Fill-1_24_" sketch:type="MSShapeGroup" fill="#F1D364" d="M164,156.98c0,4.949-4.05,9-9,9H9c-4.95,0-9-4.051-9-9V48h164
		V156.98"/>
</g>
<g id="Fill-2-_x2B_-Fill-1_2_" transform="translate(2.000000, 11027.000000)" sketch:type="MSLayerGroup">
	<path id="Fill-2_6_" sketch:type="MSShapeGroup" fill="#ECC01E" d="M9.022,22H64c2.356,0.006,4.442,1.105,6.12,2.758l8.254,8.133
		C80.058,34.547,83.637,36,86,36h70c4.95,0,8,3.527,8,8.479V48H0V31C0,26.02,4.044,21.988,9.022,22"/>
	<path id="Fill-1_25_" sketch:type="MSShapeGroup" fill="#F1D364" d="M164,156.98c0,4.949-4.05,9-9,9H9c-4.95,0-9-4.051-9-9V48h164
		V156.98"/>
</g>
<path id="Shape" sketch:type="MSShapeGroup" fill="#FFFFFF" d="M118,10894.035V10925l-36-5.375l0,0v-25.59H118z M50.002,10894.035
	l0.022,20.824l25.976,3.895v-24.719H50.002z M82,10861.258l36-4.258v31.043H82V10861.258L82,10861.258z M76,10862.078l-25.976,3.137
	L50,10888.043h26V10862.078z"/>
<path id="Shape_1_" sketch:type="MSShapeGroup" fill="#FFFFFF" d="M87.113,11101.035c4.52-6.004,10.807-6.035,10.807-6.035
	s0.934,5.646-3.559,11.086c-4.797,5.801-10.245,4.857-10.245,4.857S83.093,11106.375,87.113,11101.035"/>
<path id="Shape_2_" sketch:type="MSShapeGroup" fill="#FFFFFF" d="M84.481,11116.242c2.323,0,6.63-3.242,12.24-3.242
	c9.656,0,13.453,6.977,13.453,6.977s-7.429,3.859-7.429,13.223c0,10.562,9.255,14.199,9.255,14.199s-6.469,18.5-15.207,18.5
	c-4.014,0-7.133-2.748-11.363-2.748c-4.311,0-8.585,2.85-11.372,2.85c-7.978,0-18.058-17.543-18.058-31.648
	c0-13.879,8.533-21.158,16.534-21.158C77.739,11113.193,81.775,11116.242,84.481,11116.242"/>
<g id="Imported-Layers-_x2B_-Imported-Layers" transform="translate(16.000000, 3.000000)" sketch:type="MSLayerGroup">
	<g id="Imported-Layers_4_" sketch:type="MSShapeGroup">
		<path id="Fill-2_7_" fill="#FFFFFF" d="M126,178H10c-4.972,0-10-5.028-10-10V32c0-4.952,5.048-10,10-10h84c3.342,0,6,2.658,6,6v24
			c0,3.342,2.658,6,6,6h24c3.342,0,6,2.658,6,6v104C136,172.972,130.973,178,126,178"/>
	</g>
	<path id="Imported-Layers_5_" sketch:type="MSShapeGroup" fill="#CCCBCB" d="M51.937,128h7.781l7.528-26.039L75.062,128h7.41L95,84
		H77.721v8.728h4.752l-4.511,17.701L71.672,84h-8.64l-6.5,26.429L50.072,84H41L51.937,128z"/>
</g>
<g id="Imported-Layers-_x2B_-Imported-Layers-_x2B_-Imported-Layers-2" transform="translate(16.000000, 223.000000)" sketch:type="MSLayerGroup">
	<g sketch:type="MSShapeGroup">
		<g id="Imported-Layers_6_">
			<path id="Fill-2_8_" fill="#FFFFFF" d="M126,178H10c-4.972,0-10-5.028-10-10V32c0-4.952,5.048-10,10-10h84c3.342,0,6,2.658,6,6
				v24c0,3.342,2.658,6,6,6h24c3.342,0,6,2.658,6,6v104C136,172.972,130.973,178,126,178"/>
		</g>
		<g id="Imported-Layers-_x2B_-Imported-Layers-2" transform="translate(40.000000, 68.000000)">
			<path id="Imported-Layers_7_" fill="#CCCBCB" d="M19.01,57.99c-0.898,0-1.798-0.352-2.482-1.054L0,39.995l16.528-16.94
				c1.37-1.406,3.594-1.406,4.966,0c1.37,1.404,1.37,3.684,0,5.09L9.932,39.995l11.562,11.852c1.37,1.406,1.37,3.684,0,5.09
				C20.808,57.639,19.908,57.99,19.01,57.99"/>
			<path id="Imported-Layers-2_1_" fill="#CCCBCB" d="M36.99,57.99c0.898,0,1.798-0.352,2.482-1.054L56,39.995l-16.527-16.94
				c-1.371-1.406-3.595-1.406-4.967,0c-1.369,1.404-1.369,3.684,0,5.09l11.562,11.85L34.506,51.847c-1.369,1.406-1.369,3.684,0,5.09
				C35.191,57.639,36.092,57.99,36.99,57.99"/>
		</g>
	</g>
</g>
<g id="Imported-Layers-_x2B_-Imported-Layers_1_" transform="translate(16.000000, 463.000000)" sketch:type="MSLayerGroup">
	<g id="Imported-Layers_8_" sketch:type="MSShapeGroup">
		<path id="Fill-2_9_" fill="#FFFFFF" d="M126,178H10c-4.972,0-10-5.028-10-10V32c0-4.952,5.048-10,10-10h84c3.342,0,6,2.658,6,6v24
			c0,3.342,2.658,6,6,6h24c3.342,0,6,2.658,6,6v104C136,172.972,130.973,178,126,178"/>
	</g>
	<g id="Imported-Layers_9_" transform="translate(34.000000, 66.000000)" sketch:type="MSShapeGroup">
		<path id="Fill-1_26_" fill="#CCCBCB" d="M18.626,57.968c-0.88,0-1.76-0.352-2.432-1.054L0.032,40.116L16.03,23.229
			c1.23-1.286,3.226-1.616,4.624-0.534c1.736,1.342,1.872,3.916,0.404,5.447L9.612,40.116l11.22,11.476
			c1.484,1.55,1.58,4.214-0.056,5.588C20.15,57.704,19.388,57.968,18.626,57.968"/>
		<path id="Fill-3_1_" fill="#CCCBCB" d="M49.473,57.968c0.879,0,1.76-0.352,2.432-1.054l16.162-16.798L52.068,23.229
			c-1.23-1.286-3.227-1.616-4.625-0.534c-1.735,1.342-1.871,3.916-0.403,5.447l11.446,11.975L47.266,51.592
			c-1.483,1.55-1.58,4.214,0.057,5.588C47.948,57.704,48.71,57.968,49.473,57.968"/>
		<path id="Fill-2_10_" fill="#CCCBCB" d="M28.768,57.968c-0.396,0-0.798-0.074-1.192-0.229c-1.754-0.698-2.644-2.771-1.986-4.63
			l10.182-28.772c0.656-1.86,2.61-2.806,4.369-2.104c1.756,0.695,2.646,2.77,1.987,4.63l-10.182,28.77
			C31.434,57.078,30.142,57.968,28.768,57.968"/>
	</g>
</g>
<g id="Imported-Layers-_x2B_-Imported-Layers_2_" transform="translate(16.000000, 703.000000)" sketch:type="MSLayerGroup">
	<g id="Imported-Layers_10_" sketch:type="MSShapeGroup">
		<path id="Fill-2_11_" fill="#FFFFFF" d="M126,178H10c-4.972,0-10-5.028-10-10V32c0-4.952,5.048-10,10-10h84c3.342,0,6,2.658,6,6
			v24c0,3.342,2.658,6,6,6h24c3.342,0,6,2.658,6,6v104C136,172.972,130.973,178,126,178"/>
	</g>
	<path id="Imported-Layers_11_" sketch:type="MSShapeGroup" fill="#CCCBCB" d="M52,78v56l42-28L52,78"/>
</g>
<g id="Imported-Layers-_x2B_-Imported-Layers_3_" transform="translate(16.000000, 943.000000)" sketch:type="MSLayerGroup">
	<g id="Imported-Layers_12_" sketch:type="MSShapeGroup">
		<path id="Fill-2_12_" fill="#FFFFFF" d="M126,178H10c-4.972,0-10-5.028-10-10V32c0-4.952,5.048-10,10-10h84c3.342,0,6,2.658,6,6
			v24c0,3.342,2.658,6,6,6h24c3.342,0,6,2.658,6,6v104C136,172.972,130.973,178,126,178"/>
	</g>
	<g id="Imported-Layers_13_" transform="translate(28.000000, 60.000000)" sketch:type="MSShapeGroup">
		<path id="Fill-1_27_" fill="#CCCBCB" d="M48.46,74H7.54C3.376,74,0,70.624,0,66.46V29.54C0,25.376,3.376,22,7.54,22h40.92
			c4.164,0,7.54,3.376,7.54,7.54v36.92C56,70.624,52.624,74,48.46,74"/>
		<path id="Fill-2_13_" fill="#CCCBCB" d="M60,52l22,18V26L60,44V52"/>
	</g>
</g>
<g id="Imported-Layers-_x2B_-Imported-Layers_4_" transform="translate(16.000000, 1183.000000)" sketch:type="MSLayerGroup">
	<g id="Imported-Layers_14_" sketch:type="MSShapeGroup">
		<path id="Fill-2_14_" fill="#FFFFFF" d="M126,178H10c-4.972,0-10-5.028-10-10V32c0-4.952,5.048-10,10-10h84c3.342,0,6,2.658,6,6
			v24c0,3.342,2.658,6,6,6h24c3.342,0,6,2.658,6,6v104C136,172.972,130.973,178,126,178"/>
	</g>
	<g id="Imported-Layers_15_" transform="translate(26.000000, 60.000000)" sketch:type="MSShapeGroup">
		<path id="Fill-1_28_" fill="#CCCBCB" d="M10.112,79.994h61.894C77.525,79.994,82,75.52,82,70V31.992
			C82,26.474,77.525,22,72.006,22H10.112c-5.518,0-9.992,4.474-9.992,9.992V70C0.12,75.52,4.594,79.994,10.112,79.994"/>
		<path id="Fill-2_15_" fill="#CCCBCB" d="M0,22"/>
		<path id="Fill-3_2_" fill="#FFFFFF" d="M24,65c0,2.762-2.238,5-5,5s-5-2.238-5-5s2.238-5,5-5S24,62.238,24,65"/>
		<path id="Fill-4_1_" fill="#FFFFFF" d="M46,65c0,2.762-2.238,5-5,5c-2.762,0-5-2.238-5-5s2.238-5,5-5C43.762,60,46,62.238,46,65"
			/>
		<path id="Fill-5" fill="#FFFFFF" d="M68,65c0,2.762-2.238,5-5,5s-5-2.238-5-5s2.238-5,5-5S68,62.238,68,65"/>
	</g>
</g>
<g id="Imported-Layers-_x2B_-Imported-Layers-_x2B_-Clip-2" transform="translate(16.000000, 1423.000000)" sketch:type="MSLayerGroup">
	<g>
		<g id="Imported-Layers_16_" sketch:type="MSShapeGroup">
			<path id="Fill-2_16_" fill="#FFFFFF" d="M126,178H10c-4.972,0-10-5.028-10-10V32c0-4.952,5.048-10,10-10h84c3.342,0,6,2.658,6,6
				v24c0,3.342,2.658,6,6,6h24c3.342,0,6,2.658,6,6v104C136,172.972,130.973,178,126,178"/>
		</g>
		<g id="Imported-Layers_17_" transform="translate(30.000000, 40.000000)">
			<g id="Group-3" transform="translate(2.000000, 14.000000)">
			</g>
			<path id="Fill-4_2_" sketch:type="MSShapeGroup" fill="#E0E0E0" d="M32.056,23.46L31,24.516L46.934,40.45
				c5.28,3.188,9.725,7.62,12.883,12.884L74.482,68l1.056-1.056L32.056,23.46"/>
			<path id="Fill-5_1_" sketch:type="MSShapeGroup" fill="#DEDEDE" d="M52.648,95.79c-0.002,0-0.004,0.002-0.004,0.002l0.709,0.704
				L52.648,95.79 M56.359,49.878c4.584,5.95,7.307,13.404,7.307,21.538c0,9.778-3.938,18.636-10.312,25.08l0.713,0.704
				C60.582,90.618,65.002,82.08,65,72c-0.004-6.816-1.898-13.192-5.184-18.666L56.359,49.878 M2.952,46.092l0.67,0.685
				c0.002-0.002,0.004-0.004,0.006-0.007L2.952,46.092 M27.54,34.996C19.14,35.01,8.936,38.77,2.22,45.348l0.7,0.715
				C9.364,39.688,18.222,36,28,36c8.258,0,15.859,2.762,21.906,7.424l-2.973-2.974C41.38,37.098,34.9,35.122,28.018,35L27.54,34.996
				"/>
			<path id="Fill-39" sketch:type="MSShapeGroup" fill="#DEDEDE" d="M52.648,95.79c-0.002,0-0.004,0.002-0.004,0.002l0.709,0.704
				L52.648,95.79 M56.359,49.878c4.584,5.95,7.307,13.404,7.307,21.538c0,9.778-3.938,18.636-10.312,25.08l0.713,0.704
				C60.582,90.618,65.002,82.08,65,72c-0.004-6.816-1.898-13.192-5.184-18.666L56.359,49.878 M2.952,46.092l0.67,0.685
				c0.002-0.002,0.004-0.004,0.006-0.007L2.952,46.092 M27.54,34.996C19.14,35.01,8.936,38.77,2.22,45.348l0.7,0.715
				C9.364,39.688,18.222,36,28,36c8.258,0,15.859,2.762,21.906,7.424l-2.973-2.974C41.38,37.098,34.9,35.122,28.018,35L27.54,34.996
				"/>
			<path id="Fill-9" sketch:type="MSShapeGroup" fill="#D3D3D3" d="M46.934,40.45l2.973,2.974c2.42,1.864,4.59,4.034,6.453,6.454
				l3.457,3.456C56.658,48.07,52.214,43.638,46.934,40.45"/>
			<g id="Group-12" transform="translate(48.000000, 20.000000)">
				<g id="Clip-11">
				</g>
				<defs>
					<filter id="Adobe_OpacityMaskFilter" filterUnits="userSpaceOnUse" x="1.906" y="23.424" width="6.453" height="6.454">
						<feColorMatrix  type="matrix" values="1 0 0 0 0  0 1 0 0 0  0 0 1 0 0  0 0 0 1 0"/>
					</filter>
				</defs>
				<mask maskUnits="userSpaceOnUse" x="1.906" y="23.424" width="6.453" height="6.454" id="mask-2">
					<g filter="url(#Adobe_OpacityMaskFilter)">
						<path id="path-1" fill="#FFFFFF" d="M1.906,23.424l6.453,6.454C6.496,27.458,4.326,25.288,1.906,23.424"/>
					</g>
				</mask>
				<path id="Fill-10" sketch:type="MSShapeGroup" mask="url(#mask-2)" fill="none" d="M1.906,23.424l6.453,6.454
					C6.496,27.458,4.326,25.288,1.906,23.424"/>
			</g>
			<path id="Fill-13" sketch:type="MSShapeGroup" fill="#FFFFFF" d="M1,45h4v4H1V45z"/>
			<path id="Fill-14" sketch:type="MSShapeGroup" fill="#CCCBCB" d="M2,46h2v2H2V46z M0,50h6v-6H0V50z"/>
			<path id="Fill-15" sketch:type="MSShapeGroup" fill="#FFFFFF" d="M51,45h4v4h-4V45z"/>
			<path id="Fill-16" sketch:type="MSShapeGroup" fill="#CCCBCB" d="M52,46h2v2h-2V46z M50,50h6v-6h-6V50z"/>
			<path id="Fill-17" sketch:type="MSShapeGroup" fill="#FFFFFF" d="M51,95h4v4h-4V95z"/>
			<path id="Fill-18" sketch:type="MSShapeGroup" fill="#CCCBCB" d="M52,96h2v2h-2V96z M50,100h6v-6h-6V100z"/>
			<path id="Fill-19" sketch:type="MSShapeGroup" fill="#BBBDBF" d="M34,24c0,1.104-0.896,2-2,2s-2-0.896-2-2s0.896-2,2-2
				S34,22.896,34,24"/>
			<path id="Fill-20" sketch:type="MSShapeGroup" fill="#BBBDBF" d="M78,68c0,1.104-0.896,2-2,2s-2-0.896-2-2s0.896-2,2-2
				S78,66.896,78,68"/>
		</g>
		<g id="Clip-2" sketch:type="MSShapeGroup">
			
				<linearGradient id="path-4_2_" gradientUnits="userSpaceOnUse" x1="22.2749" y1="5244.1152" x2="23.4579" y2="5242.9331" gradientTransform="matrix(60.08 0 0 -58.796 -1298.0737 308401)">
				<stop  offset="0" style="stop-color:#FFFFFF"/>
				<stop  offset="1" style="stop-color:#BBBDBF"/>
			</linearGradient>
			<path id="path-4_1_" fill="url(#path-4_2_)" d="M34.92,86.062L34.92,86.062l0.032,0.029L34.92,86.062 M59.49,76.994
				c-7.8,0-17.64,3.64-23.862,9.775l49.021,49.021C90.876,129.482,94.996,121.476,95,112c0.008-19.13-15.855-34.664-35.02-35
				l-0.44-0.006H59.49"/>
		</g>
	</g>
</g>
<g id="Imported-Layers-_x2B_-Imported-Layers_5_" transform="translate(16.000000, 1663.000000)" sketch:type="MSLayerGroup">
	<g id="Imported-Layers_18_" sketch:type="MSShapeGroup">
		<path id="Fill-2_17_" fill="#FFFFFF" d="M126,178H10c-4.972,0-10-5.028-10-10V32c0-4.952,5.048-10,10-10h84c3.342,0,6,2.658,6,6
			v24c0,3.342,2.658,6,6,6h24c3.342,0,6,2.658,6,6v104C136,172.972,130.973,178,126,178"/>
	</g>
	<path id="Imported-Layers_19_" sketch:type="MSShapeGroup" fill="#CCCBCB" d="M102.049,125.082
		c-1.752-1.802-16.871-8.832-20.59-10.194c-0.201-0.071-0.337-0.239-0.356-0.452c-0.082-0.884-0.446-2.638-1.19-2.989
		c-0.806-0.305-3.468-1.608-3.468-1.608c0-0.198-0.304-0.76-0.354-1.359c0-0.654,0.354-1.307,0.354-1.307
		c0.354-0.708,1.66-2.366,2.008-3.672c0.354-1.308,0.757-4.63,0.757-4.63c0-0.708,1.057-1.006,1.711-1.354
		c1.156-0.554,2.112-7.647,2.112-7.647c0-2.316-0.956-1.314-0.956-2.97v-6.187C82.076,73.112,75.65,68,68,68
		c-7.652,0-13.792,5.112-13.792,12.712v6.187c0,1.655-0.958,0.653-0.958,2.97c0,0,0.958,7.094,2.114,7.646
		c0.654,0.349,1.71,0.648,1.71,1.356c0,0,0.402,3.322,0.756,4.63c0.348,1.306,1.654,2.964,2.01,3.672c0,0,0.354,0.652,0.354,1.307
		c-0.05,0.6-0.354,1.161-0.354,1.359c0,0-2.664,1.304-3.47,1.608c-0.742,0.352-1.106,2.105-1.188,2.989
		c-0.02,0.213-0.158,0.381-0.356,0.452c-3.718,1.362-18.838,8.393-20.592,10.194c-1.258,1.308-2.164,6.774-2.23,7.18
		c-0.006,0.03-0.004,0.038-0.004,0.07v1.994c0,3.12,2.554,5.674,5.674,5.674h60.652c3.12,0,5.674-2.554,5.674-5.674v-2.008
		c0-0.022,0-0.024-0.002-0.044C103.967,131.979,103.322,126.404,102.049,125.082"/>
</g>
<g id="Imported-Layers-_x2B_-Imported-Layers_6_" transform="translate(16.000000, 1903.000000)" sketch:type="MSLayerGroup">
	<g id="Imported-Layers_20_" sketch:type="MSShapeGroup">
		<path id="Fill-2_18_" fill="#FFFFFF" d="M126,178H10c-4.972,0-10-5.028-10-10V32c0-4.952,5.048-10,10-10h84c3.342,0,6,2.658,6,6
			v24c0,3.342,2.658,6,6,6h24c3.342,0,6,2.658,6,6v104C136,172.972,130.973,178,126,178"/>
	</g>
	<g id="Imported-Layers_21_" transform="translate(40.000000, 46.000000)" sketch:type="MSShapeGroup">
		<path id="Fill-1_29_" fill="#CCCBCB" d="M0,46l18-24l18,24H0"/>
		<path id="Fill-2_19_" fill="#CCCBCB" d="M56,74L38,98L20,74H56"/>
		<path id="Fill-3_3_" fill="#CCCBCB" d="M12,42h12v24H12V42z"/>
		<path id="Fill-4_3_" fill="#CCCBCB" d="M32,54h12v24H32V54z"/>
	</g>
</g>
<g id="Imported-Layers_22_" transform="translate(16.000000, 2143.000000)" sketch:type="MSLayerGroup">
	<g sketch:type="MSShapeGroup">
		<path id="Fill-2_20_" fill="#FFFFFF" d="M126,178H10c-4.972,0-10-5.028-10-10V32c0-4.952,5.048-10,10-10h84c3.342,0,6,2.658,6,6
			v24c0,3.342,2.658,6,6,6h24c3.342,0,6,2.658,6,6v104C136,172.972,130.973,178,126,178"/>
		<g id="Imported-Layers-2_2_" transform="translate(28.000000, 62.000000)">
			<path id="Fill-1_30_" fill="#CCCBCB" d="M7.176,40.788L8,42H0l0.99-1.212c0.762-0.162,1.396-0.458,1.904-0.892
				c0.508-0.433,1.58-1.597,3.212-3.488L18,22h2v16v2c0.23,0.258,0.404,0.712,1.302,0.788L22,42H12l1.168-1.212
				c0.992-0.086,1.634-0.23,1.96-0.312C17,40,18,38,18,38v-2H8.626L5,40C5,41,7.176,40.788,7.176,40.788L7.176,40.788z M18,34
				v-9.812L10,34H18L18,34z"/>
			<path id="Fill-2_21_" fill="#CCCBCB" d="M24,22h56v4H24V22z"/>
			<path id="Fill-3_4_" fill="#CCCBCB" d="M24,38h56v4H24V38z"/>
			<path id="Fill-4_4_" fill="#CCCBCB" d="M24,30h56v4H24V30z"/>
			<path id="Fill-5_2_" fill="#CCCBCB" d="M0.12,46H80v4H0.12V46z"/>
			<path id="Fill-6" fill="#CCCBCB" d="M0.12,54H80v4H0.12V54z"/>
			<path id="Fill-7" fill="#CCCBCB" d="M0.12,62H80v4H0.12V62z"/>
			<path id="Fill-8" fill="#CCCBCB" d="M0.12,70H80v4H0.12V70z"/>
			<path id="Fill-9_1_" fill="#CCCBCB" d="M0.12,78H26v3.88H0.12V78z"/>
		</g>
	</g>
</g>
<g id="Imported-Layers-_x2B_-Imported-Layers_7_" transform="translate(16.000000, 2383.000000)" sketch:type="MSLayerGroup">
	<g id="Imported-Layers_23_" sketch:type="MSShapeGroup">
		<path id="Fill-2_22_" fill="#FFFFFF" d="M126,178H10c-4.972,0-10-5.028-10-10V32c0-4.952,5.048-10,10-10h84c3.342,0,6,2.658,6,6
			v24c0,3.342,2.658,6,6,6h24c3.342,0,6,2.658,6,6v104C136,172.972,130.973,178,126,178"/>
	</g>
	<path id="Imported-Layers_24_" sketch:type="MSShapeGroup" fill="#CCCBCB" d="M92,84V74c-29.88,0-24,48-46,48v10
		c16,0,22.502-10.479,27-22h13v-10h-9C80.029,93.424,85.742,84,92,84"/>
</g>
<g id="Imported-Layers-_x2B_-Imported-Layers_8_" transform="translate(16.000000, 2623.000000)" sketch:type="MSLayerGroup">
	<g id="Imported-Layers_25_" sketch:type="MSShapeGroup">
		<path id="Fill-2_23_" fill="#FFFFFF" d="M126,178H10c-4.972,0-10-5.028-10-10V32c0-4.952,5.048-10,10-10h84c3.342,0,6,2.658,6,6
			v24c0,3.342,2.658,6,6,6h24c3.342,0,6,2.658,6,6v104C136,172.972,130.973,178,126,178"/>
	</g>
	<g id="Imported-Layers_26_" transform="translate(26.000000, 54.000000)" sketch:type="MSShapeGroup">
		<path id="Fill-1_31_" fill="#CCCBCB" d="M0,22h24v14H0V22z"/>
		<path id="Fill-2_24_" fill="#CCCBCB" d="M30,22h24v14H30V22z"/>
		<path id="Fill-3_5_" fill="#CCCBCB" d="M60,22h23.92v14H60V22z"/>
		<path id="Fill-4_5_" fill="#CCCBCB" d="M0,42h24v14H0V42z"/>
		<path id="Fill-5_3_" fill="#CCCBCB" d="M30,42h24v14H30V42z"/>
		<path id="Fill-6_1_" fill="#CCCBCB" d="M60,42h23.92v14H60V42z"/>
		<path id="Fill-7_1_" fill="#CCCBCB" d="M0,62h24v14H0V62z"/>
		<path id="Fill-8_1_" fill="#CCCBCB" d="M30,62h24v14H30V62z"/>
		<path id="Fill-9_2_" fill="#CCCBCB" d="M60,62h23.92v14H60V62z"/>
		<path id="Fill-10_1_" fill="#CCCBCB" d="M0,82h24v13.88H0V82z"/>
		<path id="Fill-11" fill="#CCCBCB" d="M30,82h24v13.88H30V82z"/>
		<path id="Fill-12" fill="#CCCBCB" d="M60,82h23.92v13.88H60V82z"/>
	</g>
</g>
<g id="Imported-Layers-_x2B_-Imported-Layers_9_" transform="translate(16.000000, 2863.000000)" sketch:type="MSLayerGroup">
	<g id="Imported-Layers_27_" sketch:type="MSShapeGroup">
		<path id="Fill-2_25_" fill="#FFFFFF" d="M126,178H10c-4.972,0-10-5.028-10-10V32c0-4.952,5.048-10,10-10h84c3.342,0,6,2.658,6,6
			v24c0,3.342,2.658,6,6,6h24c3.342,0,6,2.658,6,6v104C136,172.972,130.973,178,126,178"/>
	</g>
	<path id="Imported-Layers_28_" sketch:type="MSShapeGroup" fill="#CCCBCB" d="M102,110V98H89.15
		c-0.471-1.66-1.121-3.242-1.946-4.718l9.08-9.082L87.8,75.716l-9.082,9.08c-1.474-0.824-3.06-1.468-4.718-1.94V70H62v12.855
		c-1.658,0.473-3.244,1.116-4.718,1.94l-9.08-9.08L39.716,84.2l9.08,9.082C47.97,94.758,47.32,96.34,46.85,98H34v12h12.85
		c0.47,1.66,1.12,3.242,1.946,4.718l-9.08,9.08l8.486,8.486l9.08-9.08c1.474,0.824,3.06,1.466,4.718,1.94V138h12v-12.855
		c1.658-0.475,3.244-1.116,4.718-1.94l9.082,9.08l8.484-8.486l-9.08-9.08c0.825-1.476,1.476-3.058,1.946-4.718H102L102,110z
		 M68,115.314c-6.248,0-11.314-5.066-11.314-11.314S61.752,92.686,68,92.686S79.314,97.752,79.314,104S74.248,115.314,68,115.314
		L68,115.314z"/>
</g>
<g id="Imported-Layers-_x2B_-Imported-Layers_10_" transform="translate(16.000000, 3103.000000)" sketch:type="MSLayerGroup">
	<g id="Imported-Layers_29_" sketch:type="MSShapeGroup">
		<path id="Fill-2_26_" fill="#FFFFFF" d="M126,178H10c-4.972,0-10-5.028-10-10V32c0-4.952,5.048-10,10-10h84c3.342,0,6,2.658,6,6
			v24c0,3.342,2.658,6,6,6h24c3.342,0,6,2.658,6,6v104C136,172.972,130.973,178,126,178"/>
	</g>
	<g id="Imported-Layers_30_" transform="translate(30.000000, 50.000000)" sketch:type="MSShapeGroup">
		<path id="Fill-1_32_" fill="#CCCBCB" d="M77.916,46.83c0-12.858-15.542-23.594-36.666-23.594S1.972,34.182,1.972,47.042
			s16.876,23,38,23c0.569,0,1.436,0.019,2,0L32.94,85.904l31.375-20.916C71.116,60.798,77.916,53.196,77.916,46.83"/>
		<path id="Fill-2_27_" fill="#FFFFFF" d="M70,47.11c0-9.185-13.414-16.068-29.027-16.068C25.358,31.042,10,37.926,10,47.11
			c0,9.182,13.358,16.932,28.973,16.932c2.676,0,7.012-0.506,10-2l-5,10l15-12C63.973,57.01,70,51.854,70,47.11"/>
		<path id="Fill-3_6_" fill="#CCCBCB" d="M36.188,38.11h6.285l-1.129,3.95h0.074c1.748-1.528,3.298-2.606,4.648-3.242
			c1.361-0.631,2.078-0.658,3.939-0.658c1.008,0,2.32-0.112,2.938,0l-1.471,5.87c-1.377-0.378-2.307-0.734-3.345-0.734
			c-2.286,0-4.14,0.496-5.578,1.49c-1.426,1.004-1.653,1.91-2.172,3.796L38,57.11h-6L36.188,38.11"/>
	</g>
</g>
<g id="Imported-Layers-_x2B_-Imported-Layers_11_" transform="translate(16.000000, 3343.000000)" sketch:type="MSLayerGroup">
	<g id="Imported-Layers_31_" sketch:type="MSShapeGroup">
		<path id="Fill-2_28_" fill="#FFFFFF" d="M126,178H10c-4.972,0-10-5.028-10-10V32c0-4.952,5.048-10,10-10h84c3.342,0,6,2.658,6,6
			v24c0,3.342,2.658,6,6,6h24c3.342,0,6,2.658,6,6v104C136,172.972,130.973,178,126,178"/>
	</g>
	<g id="Imported-Layers_32_" transform="translate(36.000000, 52.000000)" sketch:type="MSShapeGroup">
		<path id="Fill-1_33_" fill="#CCCBCB" d="M17.326,50.136l16.869-28.023C33.468,22.062,32.742,22,32,22
			c-9.884,0-18.714,4.486-24.584,11.525L17.326,50.136"/>
		<path id="Fill-2_29_" fill="#CCCBCB" d="M20.94,64L4.876,37.078C1.804,41.992,0,47.778,0,54c0,3.496,0.58,6.852,1.616,10H20.94"/>
		<path id="Fill-3_7_" fill="#CCCBCB" d="M44.084,44l15.557,26.072C62.396,65.344,64,59.866,64,54c0-3.496-0.58-6.85-1.616-10
			H44.084"/>
		<path id="Fill-4_6_" fill="#CCCBCB" d="M28.096,40h32.646c-4.278-8.762-12.41-15.296-22.215-17.33L28.096,40"/>
		<path id="Fill-5_4_" fill="#CCCBCB" d="M37.416,68H3.258c4.476,9.168,13.182,15.86,23.594,17.548L37.416,68"/>
		<path id="Fill-6_2_" fill="#CCCBCB" d="M47.941,58.27L31.272,85.964C31.516,85.968,31.754,86,32,86
			c10.225,0,19.305-4.812,25.164-12.273L47.941,58.27"/>
	</g>
</g>
<g id="Imported-Layers-_x2B_-Imported-Layers_12_" transform="translate(16.000000, 3583.000000)" sketch:type="MSLayerGroup">
	<g id="Imported-Layers_33_" sketch:type="MSShapeGroup">
		<path id="Fill-2_30_" fill="#FFFFFF" d="M126,178H10c-4.972,0-10-5.028-10-10V32c0-4.952,5.048-10,10-10h84c3.342,0,6,2.658,6,6
			v24c0,3.342,2.658,6,6,6h24c3.342,0,6,2.658,6,6v104C136,172.972,130.973,178,126,178"/>
	</g>
	<g id="Imported-Layers_34_" transform="translate(40.000000, 58.000000)" sketch:type="MSShapeGroup">
		<path id="Fill-1_34_" fill="#CCCBCB" d="M0,23c3.256-0.584,7.554-1,14-1c6.52,0,10.776,1.136,13.892,3.748
			c2.984,2.47,4.995,6.534,4.995,11.318c0,4.785-1.531,8.85-4.301,11.607C24.984,52.23,20.236,54,14,54h-4v18H0V23L0,23z M10,45
			c0.902,0.218,1.812,0.336,3.336,0.336c5.614,0,9.08-2.976,9.08-7.98c0-4.495-2.98-7.178-8.246-7.178
			c-2.15,0-3.408,0.604-4.17,0.822V45L10,45z"/>
		<path id="Fill-2_31_" fill="#CCCBCB" d="M55,48c-2.342-1.112-5.402-0.834-7,0v24h-8V42c3.691-2.018,8-3,17-2L55,48"/>
	</g>
</g>
<g id="Imported-Layers-_x2B_-Imported-Layers_13_" transform="translate(16.000000, 3823.000000)" sketch:type="MSLayerGroup">
	<g id="Imported-Layers_35_" sketch:type="MSShapeGroup">
		<path id="Fill-2_32_" fill="#FFFFFF" d="M126,178H10c-4.972,0-10-5.028-10-10V32c0-4.952,5.048-10,10-10h84c3.342,0,6,2.658,6,6
			v24c0,3.342,2.658,6,6,6h24c3.342,0,6,2.658,6,6v104C136,172.972,130.973,178,126,178"/>
	</g>
	<path id="Imported-Layers_36_" sketch:type="MSShapeGroup" fill="#CCCBCB" d="M86,96c0-9.52-9.176-16-20.47-16H50v8h6v40h8v-16h2
		C78.706,112,86,106.244,86,96L86,96z M64,104V88c11.294,0,14,2.354,14,8S75.294,104,64,104L64,104z"/>
</g>
<g id="Imported-Layers-_x2B_-Imported-Layers_14_" transform="translate(16.000000, 4063.000000)" sketch:type="MSLayerGroup">
	<g id="Imported-Layers_37_" sketch:type="MSShapeGroup">
		<path id="Fill-2_33_" fill="#FFFFFF" d="M126,178H10c-4.972,0-10-5.028-10-10V32c0-4.952,5.048-10,10-10h84c3.342,0,6,2.658,6,6
			v24c0,3.342,2.658,6,6,6h24c3.342,0,6,2.658,6,6v104C136,172.972,130.973,178,126,178"/>
	</g>
	<g id="Imported-Layers_38_" transform="translate(38.000000, 46.000000)">
		<g id="Group-3_1_">
			<g id="Clip-2_1_">
			</g>
			<defs>
				<filter id="Adobe_OpacityMaskFilter_1_" filterUnits="userSpaceOnUse" x="0" y="23.156" width="59.916" height="59.918">
					<feColorMatrix  type="matrix" values="1 0 0 0 0  0 1 0 0 0  0 0 1 0 0  0 0 0 1 0"/>
				</filter>
			</defs>
			<mask maskUnits="userSpaceOnUse" x="0" y="23.156" width="59.916" height="59.918" id="mask-7">
				<g filter="url(#Adobe_OpacityMaskFilter_1_)">
					<path id="path-6" fill="#FFFFFF" d="M29.958,23.156C13.412,23.156,0,36.57,0,53.114c0,16.546,13.412,29.96,29.958,29.96
						s29.958-13.414,29.958-29.96C59.916,36.57,46.504,23.156,29.958,23.156L29.958,23.156z M29.958,78.689
						c-14.124,0-25.574-11.451-25.574-25.575S15.834,27.54,29.958,27.54s25.574,11.45,25.574,25.574S44.082,78.689,29.958,78.689
						L29.958,78.689z"/>
				</g>
			</mask>
			
				<linearGradient id="Fill-1_73_" gradientUnits="userSpaceOnUse" x1="-15.3032" y1="2555.3369" x2="-15.3032" y2="2556.3633" gradientTransform="matrix(59.916 0 0 -59.918 946.8621 153187.9844)">
				<stop  offset="0" style="stop-color:#FFFFFF"/>
				<stop  offset="1" style="stop-color:#BBBDBF"/>
			</linearGradient>
			
				<path id="Fill-1_35_" sketch:type="MSShapeGroup" opacity="0.8288" mask="url(#mask-7)" fill="url(#Fill-1_73_)" enable-background="new    " d="
				M29.958,23.156C13.412,23.156,0,36.57,0,53.114c0,16.546,13.412,29.96,29.958,29.96s29.958-13.414,29.958-29.96
				C59.916,36.57,46.504,23.156,29.958,23.156L29.958,23.156z M29.958,78.689c-14.124,0-25.574-11.451-25.574-25.575
				S15.834,27.54,29.958,27.54s25.574,11.45,25.574,25.574S44.082,78.689,29.958,78.689L29.958,78.689z"/>
		</g>
		<g id="Group-6" transform="translate(8.000000, 8.000000)">
			<g id="Clip-5">
			</g>
			<defs>
				<filter id="Adobe_OpacityMaskFilter_2_" filterUnits="userSpaceOnUse" x="0.84" y="23.996" width="42.236" height="42.238">
					<feColorMatrix  type="matrix" values="1 0 0 0 0  0 1 0 0 0  0 0 1 0 0  0 0 0 1 0"/>
				</filter>
			</defs>
			<mask maskUnits="userSpaceOnUse" x="0.84" y="23.996" width="42.236" height="42.238" id="mask-10">
				<g filter="url(#Adobe_OpacityMaskFilter_2_)">
					<path id="path-9" fill="#FFFFFF" d="M21.958,23.996c-11.662,0-21.118,9.456-21.118,21.118c0,11.664,9.456,21.12,21.118,21.12
						c11.664,0,21.118-9.456,21.118-21.12C43.076,33.452,33.622,23.996,21.958,23.996L21.958,23.996z M21.958,61.864
						c-9.25,0-16.748-7.5-16.748-16.75s7.498-16.748,16.748-16.748s16.75,7.498,16.75,16.748S31.208,61.864,21.958,61.864
						L21.958,61.864z"/>
				</g>
			</mask>
			
				<linearGradient id="Fill-4_12_" gradientUnits="userSpaceOnUse" x1="-21.7549" y1="2585.1133" x2="-21.7549" y2="2586.1396" gradientTransform="matrix(42.236 0 0 -42.238 940.8337 109252.0078)">
				<stop  offset="0" style="stop-color:#FFFFFF"/>
				<stop  offset="1" style="stop-color:#BBBDBF"/>
			</linearGradient>
			
				<path id="Fill-4_7_" sketch:type="MSShapeGroup" opacity="0.8288" mask="url(#mask-10)" fill="url(#Fill-4_12_)" enable-background="new    " d="
				M21.958,23.996c-11.662,0-21.118,9.456-21.118,21.118c0,11.664,9.456,21.12,21.118,21.12c11.664,0,21.118-9.456,21.118-21.12
				C43.076,33.452,33.622,23.996,21.958,23.996L21.958,23.996z M21.958,61.864c-9.25,0-16.748-7.5-16.748-16.75
				s7.498-16.748,16.748-16.748s16.75,7.498,16.75,16.748S31.208,61.864,21.958,61.864L21.958,61.864z"/>
		</g>
		<path id="Fill-7_2_" sketch:type="MSShapeGroup" fill="#CCCBCB" d="M37.958,50c0,4.418-3.582,8-8,8s-8-3.582-8-8s3.582-8,8-8
			S37.958,45.582,37.958,50"/>
		<path id="Fill-8_2_" sketch:type="MSShapeGroup" fill="#CCCBCB" d="M34.208,94h-8.5c-1,0-1.842-0.744-1.966-1.736l-3.228-25.815
			C20.22,64.086,22.06,62,24.44,62h11.037c2.379,0,4.222,2.086,3.926,4.448l-3.227,25.815C36.052,93.256,35.208,94,34.208,94"/>
	</g>
</g>
<g id="Imported-Layers-_x2B_-Imported-Layers-2-_x2B_-Imported-Layers" transform="translate(16.000000, 4303.000000)" sketch:type="MSLayerGroup">
	<g id="Imported-Layers_39_" sketch:type="MSShapeGroup">
		<path id="Fill-2_34_" fill="#FFFFFF" d="M126,178H10c-4.972,0-10-5.028-10-10V32c0-4.952,5.048-10,10-10h84c3.342,0,6,2.658,6,6
			v24c0,3.342,2.658,6,6,6h24c3.342,0,6,2.658,6,6v104C136,172.972,130.973,178,126,178"/>
	</g>
	<g id="Imported-Layers-2_3_" transform="translate(42.000000, 68.000000)" sketch:type="MSShapeGroup">
		<path id="Fill-1_36_" fill="#CCCBCB" d="M35.186,30H2.814C1.26,30,0,28.74,0,27.186v-2.371C0,23.26,1.26,22,2.814,22h32.372
			C36.74,22,38,23.26,38,24.814v2.371C38,28.74,36.74,30,35.186,30"/>
		<path id="Fill-2_35_" fill="#CCCBCB" d="M35.186,44H2.814C1.26,44,0,42.74,0,41.186v-2.371C0,37.26,1.26,36,2.814,36h32.372
			C36.74,36,38,37.26,38,38.814v2.371C38,42.74,36.74,44,35.186,44"/>
		<path id="Fill-3_8_" fill="#CCCBCB" d="M23.186,58H2.814C1.26,58,0,56.74,0,55.186v-2.371C0,51.26,1.26,50,2.814,50h20.372
			C24.74,50,26,51.26,26,52.814v2.371C26,56.74,24.74,58,23.186,58"/>
		<path id="Fill-4_8_" fill="#CCCBCB" d="M46,54c0,2.21-3.134,4-7,4s-7-1.79-7-4s3.134-4,7-4S46,51.79,46,54"/>
	</g>
	<path id="Imported-Layers_40_" sketch:type="MSShapeGroup" fill="#CCCBCB" d="M88,122v-20c0-1.646,2-4,4.918-1.036
		c1.807,1.834,2.54,4.263,1.566,6.748c-0.379,0.771,0.289,1.063,0.689,0.676C95.998,107.346,96,104.494,96,103
		c0-3.166-1.848-4.73-4-7c-2.068-2.182-6-6-6-6v30L88,122"/>
</g>
<g id="Imported-Layers-_x2B_-Imported-Layers_15_" transform="translate(16.000000, 4543.000000)" sketch:type="MSLayerGroup">
	<g id="Imported-Layers_41_">
	</g>
	<g id="Imported-Layers_42_" transform="translate(38.000000, 56.000000)" sketch:type="MSShapeGroup">
		<path id="Fill-1_37_" fill="#CCCBCB" d="M0,23c3.256-0.584,7.554-1,14-1c6.52,0,10.776,1.136,13.892,3.748
			c2.986,2.47,4.995,6.534,4.995,11.318c0,4.785-1.529,8.85-4.301,11.607C24.984,52.23,20.236,54,14,54h-4v18H0V23L0,23z M10,45
			c0.902,0.218,1.812,0.336,3.336,0.336c5.614,0,9.08-2.976,9.08-7.98c0-4.495-2.98-7.178-8.246-7.178
			c-2.15,0-3.408,0.604-4.17,0.822V45L10,45z"/>
		<path id="Fill-2_36_" fill="#CCCBCB" d="M36.227,62.084c1.941,1.184,5.961,2.568,9.082,2.568c3.188,0,4.504-1.112,4.504-2.84
			c0-1.738-1.039-2.568-4.99-3.885c-7.004-2.357-9.709-6.174-9.635-10.191c0-6.305,5.408-11.086,13.795-11.086
			c3.951,0,7.483,0.897,9.562,1.936l-1.868,7.282c-1.523-0.83-4.436-1.942-7.35-1.942c-2.562,0-4.018,1.038-4.018,2.772
			c0,1.59,1.313,2.426,5.474,3.882c6.448,2.218,9.149,5.476,9.218,10.464C60,67.354,55.01,72,45.309,72
			c-4.437,0-8.387-0.97-10.957-2.36L36.227,62.084"/>
	</g>
</g>
<g id="Imported-Layers-_x2B_-Imported-Layers_16_" transform="translate(48.000000, 4833.000000)" sketch:type="MSLayerGroup">
	<path id="Imported-Layers_43_" sketch:type="MSShapeGroup" fill="#CCCBCB" d="M22.136,60.236c2.079-3.997,4.441-8.507,6.336-13.027
		l0.747-1.788c-2.473-9.222-3.954-16.629-2.628-21.416C26.944,22.756,28.42,22,29.995,22l0.958,0.014h0.178
		c2.158-0.031,3.173,2.658,3.29,3.705c0.189,1.743-0.632,4.695-0.632,4.695c0-1.195,0.047-3.119-0.72-4.778
		c-0.891-1.924-1.744-3.071-2.509-3.252c-0.385,0.251-0.758,0.776-0.887,1.782c-0.268,1.413-0.346,3.192-0.346,4.111
		c0,3.245,0.65,7.528,1.93,11.943c0.243-0.68,0.455-1.337,0.624-1.953c0.263-0.972,1.931-7.4,1.931-7.4s-0.421,8.559-1.006,11.148
		c-0.126,0.547-0.266,1.088-0.41,1.642c2.108,5.787,5.513,10.949,9.569,14.668c1.6,1.466,3.62,2.649,5.533,3.726
		c4.176-0.584,8.021-0.859,11.229-0.826c4.255,0.055,7.38,0.671,8.644,1.895c0.621,0.597,0.871,1.312,0.95,2.116
		c0.019,0.313-0.138,1.048-0.185,1.232c0.047-0.224,0.047-1.32-3.368-2.392c-2.69-0.842-7.729-0.816-13.771-0.185
		c6.989,3.354,13.8,5.02,15.955,4.02c0.529-0.251,1.168-1.113,1.168-1.113s-0.381,1.698-0.652,2.12
		c-0.347,0.461-1.031,0.96-1.679,1.127c-3.409,0.895-12.28-1.17-20.017-5.505c-8.639,1.246-18.127,3.554-25.732,6.001
		C12.564,83.39,6.946,89.293,2.374,87.048l-1.681-0.831c-0.682-0.381-0.787-1.314-0.627-2.075c0.531-2.558,3.802-6.41,10.37-10.258
		c0.707-0.418,3.856-2.053,3.856-2.053c-0.002,0-2.333,2.213-2.88,2.648c-5.24,4.214-9.11,9.516-9.014,11.57l0.021,0.181
		C6.872,85.607,13.55,76.715,22.136,60.236 M24.856,61.604c-1.436,2.646-2.835,5.103-4.131,7.358
		c7.16-2.939,14.864-4.823,22.199-6.16c-0.986-0.668-1.944-1.377-2.842-2.124c-4.039-3.354-7.122-7.538-9.352-11.94
		C29.315,52.477,27.632,56.453,24.856,61.604"/>
</g>
<path id="Fill-1_38_" sketch:type="MSShapeGroup" opacity="0.1" fill="#111111" enable-background="new    " d="M13,5190.171
	v-134.342c0-7.638,6.181-13.829,13.806-13.829h84.378c3.66,0,7.172,1.458,9.76,4.05l30.014,30.065
	c2.588,2.592,4.043,6.11,4.043,9.777v104.278c0,7.638-6.182,13.829-13.806,13.829H26.806C19.181,5204,13,5197.809,13,5190.171z"/>
<path id="Fill-1_39_" sketch:type="MSShapeGroup" opacity="0.1" fill="#111111" enable-background="new    " d="M13,5430.171
	v-134.342c0-7.638,6.181-13.829,13.806-13.829h84.378c3.66,0,7.172,1.458,9.76,4.05l30.014,30.065
	c2.588,2.592,4.043,6.11,4.043,9.777v104.278c0,7.638-6.182,13.829-13.806,13.829H26.806C19.181,5444,13,5437.809,13,5430.171z"/>
<path id="Fill-1_40_" sketch:type="MSShapeGroup" opacity="0.1" fill="#111111" enable-background="new    " d="M13,5670.171
	v-134.342c0-7.638,6.181-13.829,13.806-13.829h84.378c3.66,0,7.172,1.458,9.76,4.05l30.014,30.065
	c2.588,2.592,4.043,6.11,4.043,9.777v104.278c0,7.638-6.182,13.829-13.806,13.829H26.806C19.181,5684,13,5677.809,13,5670.171z"/>
<path id="Fill-1_41_" sketch:type="MSShapeGroup" opacity="0.1" fill="#111111" enable-background="new    " d="M13,5910.171
	v-134.342c0-7.638,6.181-13.829,13.806-13.829h84.378c3.66,0,7.172,1.458,9.76,4.05l30.014,30.065
	c2.588,2.592,4.043,6.11,4.043,9.777v104.278c0,7.638-6.182,13.829-13.806,13.829H26.806C19.181,5924,13,5917.809,13,5910.171z"/>
<path id="Fill-1_42_" sketch:type="MSShapeGroup" opacity="0.1" fill="#111111" enable-background="new    " d="M13,6150.171
	v-134.342c0-7.638,6.181-13.829,13.806-13.829h84.378c3.66,0,7.172,1.458,9.76,4.05l30.014,30.065
	c2.588,2.592,4.043,6.11,4.043,9.777v104.278c0,7.638-6.182,13.829-13.806,13.829H26.806C19.181,6164,13,6157.809,13,6150.171z"/>
<path id="Fill-1_43_" sketch:type="MSShapeGroup" opacity="0.1" fill="#111111" enable-background="new    " d="M13,6390.171
	v-134.342c0-7.638,6.181-13.829,13.806-13.829h84.378c3.66,0,7.172,1.458,9.76,4.05l30.014,30.065
	c2.588,2.592,4.043,6.11,4.043,9.777v104.278c0,7.638-6.182,13.829-13.806,13.829H26.806C19.181,6404,13,6397.809,13,6390.171z"/>
<path id="Fill-1_44_" sketch:type="MSShapeGroup" opacity="0.1" fill="#111111" enable-background="new    " d="M13,6630.171
	v-134.342c0-7.638,6.181-13.829,13.806-13.829h84.378c3.66,0,7.172,1.458,9.76,4.05l30.014,30.065
	c2.588,2.592,4.043,6.11,4.043,9.777v104.278c0,7.638-6.182,13.829-13.806,13.829H26.806C19.181,6644,13,6637.809,13,6630.171z"/>
<path id="Fill-2_37_" sketch:type="MSShapeGroup" fill="#FFFFFF" d="M26,5201c-4.972,0-10-5.028-10-10v-136c0-4.952,5.048-10,10-10
	h84c3.342,0,6,2.658,6,6v24c0,3.342,2.658,6,6,6h24c3.342,0,6,2.658,6,6v104c0,4.972-5.027,10-10,10H26z"/>
<g id="Imported-Layers_45_" transform="translate(13.000000, 5263.000000)" sketch:type="MSLayerGroup">
	<path id="Fill-1_45_" sketch:type="MSShapeGroup" opacity="0.1" fill="#111111" enable-background="new    " d="M0,1607.171
		v-134.342C0,1465.191,6.181,1459,13.806,1459h84.378c3.66,0,7.172,1.458,9.76,4.05l30.014,30.065
		c2.588,2.592,4.043,6.11,4.043,9.777v104.278c0,7.638-6.182,13.829-13.806,13.829H13.806C6.181,1621,0,1614.809,0,1607.171z"/>
	<path id="Fill-2_38_" sketch:type="MSShapeGroup" fill="#FFFFFF" d="M13,178c-4.972,0-10-5.027-10-10V32c0-4.952,5.048-10,10-10h84
		c3.342,0,6,2.658,6,6v24c0,3.342,2.658,6,6,6h24c3.342,0,6,2.658,6,6v104c0,4.973-5.027,10-10,10H13z"/>
</g>
<g id="Imported-Layers_46_" transform="translate(13.000000, 6940.000000)" sketch:type="MSLayerGroup" opacity="0.1">
	<path id="Fill-1_46_" sketch:type="MSShapeGroup" fill="#111111" d="M0,170.171V35.829C0,28.191,6.181,22,13.806,22h84.378
		c3.66,0,7.172,1.458,9.76,4.05l30.014,30.065c2.588,2.592,4.043,6.11,4.043,9.777v104.278c0,7.638-6.182,13.829-13.806,13.829
		H13.806C6.181,184,0,177.809,0,170.171z"/>
	<path id="Fill-1_47_" sketch:type="MSShapeGroup" fill="#111111" d="M0,410.171V275.829C0,268.191,6.181,262,13.806,262h84.378
		c3.66,0,7.172,1.458,9.76,4.05l30.014,30.065c2.588,2.592,4.043,6.11,4.043,9.777v104.278c0,7.638-6.182,13.829-13.806,13.829
		H13.806C6.181,424,0,417.809,0,410.171z"/>
	<path id="Fill-1_48_" sketch:type="MSShapeGroup" fill="#111111" d="M0,1130.171V995.829C0,988.191,6.181,982,13.806,982h84.378
		c3.66,0,7.172,1.458,9.76,4.05l30.014,30.065c2.588,2.592,4.043,6.11,4.043,9.777v104.278c0,7.638-6.182,13.829-13.806,13.829
		H13.806C6.181,1144,0,1137.809,0,1130.171z"/>
	<path id="Fill-1_49_" sketch:type="MSShapeGroup" fill="#111111" d="M0,1370.171v-134.342C0,1228.191,6.181,1222,13.806,1222
		h84.378c3.66,0,7.172,1.458,9.76,4.05l30.014,30.065c2.588,2.592,4.043,6.11,4.043,9.777v104.278
		c0,7.638-6.182,13.829-13.806,13.829H13.806C6.181,1384,0,1377.809,0,1370.171z"/>
	<path id="Fill-1_50_" sketch:type="MSShapeGroup" fill="#111111" d="M0,1610.171v-134.342C0,1468.191,6.181,1462,13.806,1462
		h84.378c3.66,0,7.172,1.458,9.76,4.05l30.014,30.065c2.588,2.592,4.043,6.11,4.043,9.777v104.278
		c0,7.638-6.182,13.829-13.806,13.829H13.806C6.181,1624,0,1617.809,0,1610.171z"/>
	<path id="Fill-1_51_" sketch:type="MSShapeGroup" fill="#111111" d="M0,2090.172v-134.344C0,1948.191,6.181,1942,13.806,1942
		h84.378c3.66,0,7.172,1.457,9.76,4.051l30.014,30.064c2.588,2.592,4.043,6.111,4.043,9.777v104.279
		c0,7.637-6.182,13.828-13.806,13.828H13.806C6.181,2104,0,2097.809,0,2090.172z"/>
	<path id="Fill-1_52_" sketch:type="MSShapeGroup" fill="#111111" d="M0,2330.172v-134.344C0,2188.191,6.181,2182,13.806,2182
		h84.378c3.66,0,7.172,1.457,9.76,4.051l30.014,30.064c2.588,2.592,4.043,6.111,4.043,9.777v104.279
		c0,7.637-6.182,13.828-13.806,13.828H13.806C6.181,2344,0,2337.809,0,2330.172z"/>
	<path id="Fill-1_53_" sketch:type="MSShapeGroup" fill="#111111" d="M0,2570.172v-134.344C0,2428.191,6.181,2422,13.806,2422
		h84.378c3.66,0,7.172,1.457,9.76,4.051l30.014,30.064c2.588,2.592,4.043,6.111,4.043,9.777v104.279
		c0,7.637-6.182,13.828-13.806,13.828H13.806C6.181,2584,0,2577.809,0,2570.172z"/>
	<path id="Fill-1_54_" sketch:type="MSShapeGroup" fill="#111111" d="M0,3050.172v-134.344C0,2908.191,6.181,2902,13.806,2902
		h84.378c3.66,0,7.172,1.457,9.76,4.051l30.014,30.064c2.588,2.592,4.043,6.111,4.043,9.777v104.279
		c0,7.637-6.182,13.828-13.806,13.828H13.806C6.181,3064,0,3057.809,0,3050.172z"/>
	<path id="Fill-1_55_" sketch:type="MSShapeGroup" fill="#111111" d="M0,3290.172v-134.344C0,3148.191,6.181,3142,13.806,3142
		h84.378c3.66,0,7.172,1.457,9.76,4.051l30.014,30.064c2.588,2.592,4.043,6.111,4.043,9.777v104.279
		c0,7.637-6.182,13.828-13.806,13.828H13.806C6.181,3304,0,3297.809,0,3290.172z"/>
	<path id="Fill-1_56_" sketch:type="MSShapeGroup" fill="#111111" d="M0,3530.172v-134.344C0,3388.191,6.181,3382,13.806,3382
		h84.378c3.66,0,7.172,1.457,9.76,4.051l30.014,30.064c2.588,2.592,4.043,6.111,4.043,9.777v104.279
		c0,7.637-6.182,13.828-13.806,13.828H13.806C6.181,3544,0,3537.809,0,3530.172z"/>
	<path id="Fill-1_57_" sketch:type="MSShapeGroup" fill="#111111" d="M0,3770.172v-134.344C0,3628.191,6.181,3622,13.806,3622
		h84.378c3.66,0,7.172,1.457,9.76,4.051l30.014,30.064c2.588,2.592,4.043,6.111,4.043,9.777v104.279
		c0,7.637-6.182,13.828-13.806,13.828H13.806C6.181,3784,0,3777.809,0,3770.172z"/>
</g>
<g id="Imported-Layers_47_" transform="translate(16.000000, 5083.000000)" sketch:type="MSLayerGroup">
	<path id="Fill-1_58_" sketch:type="MSShapeGroup" fill="#DBDADA" d="M92,22h-6v6h-6v12h-6v-6h-6v-6h-6v12h-6V28h-6v-6h-6v12h-6v6
		h-6v6H0v6h32v6h6v6h6v12h6v-6h6V58h6v12h6v-6h6v-6h6v12h6v6h6V64h6v-6h6v-6h32v-6h-32v-6h-6v-6h-6V22"/>
	<path id="Fill-2_39_" sketch:type="MSShapeGroup" fill="#CCCBCB" d="M104,46h-6v-6h-6V28h-6v6h-6v12h-6v-6h-6v-6h-6v12h-6V34h-6v-6
		h-6v12h-6v6H16v6h22v6h6v12h6v-6h6V52h6v12h6v-6h6v-6h6v12h6v6h6V58h6v-6h22v-6H104"/>
</g>
<g id="Imported-Layers-_x2B_-Imported-Layers_17_" transform="translate(16.000000, 5263.000000)" sketch:type="MSLayerGroup">
	<g id="Imported-Layers_48_" sketch:type="MSShapeGroup">
		<path id="Fill-2_40_" fill="#FFFFFF" d="M126,178H10c-4.972,0-10-5.027-10-10V32c0-4.952,5.048-10,10-10h84c3.342,0,6,2.658,6,6
			v24c0,3.342,2.658,6,6,6h24c3.342,0,6,2.658,6,6v104C136,172.973,130.973,178,126,178"/>
	</g>
	<g id="Imported-Layers_49_" transform="translate(42.000000, 48.000000)" sketch:type="MSShapeGroup">
		<path id="Fill-1_59_" fill="#CCCBCB" d="M18.202,83.656h12.071c0.181,0,1.358-1.402,1.511-1.51
			c5.819-4.121,10.563-13.256,10.563-21.129C42.346,59.744,40.438,58,39.33,58H8.128c-1.108,0-1.998,1.744-2,3.018
			c0,7.873,4.746,17.008,10.564,21.129C16.844,82.254,18.022,83.656,18.202,83.656"/>
		<path id="Fill-2_41_" fill="#CCCBCB" d="M20.744,51.218c0,0-5.194-3.118-5.194-8.312c0-5.194,7.272-6.234,7.272-11.428
			c0-5.196-5.194-6.234-5.194-6.234s9.351-1.038,9.351,6.234C26.979,38.75,12.434,39.79,20.744,51.218"/>
		<path id="Fill-3_9_" fill="#CCCBCB" d="M30.473,56.361c0,0-6.611-3.987-6.611-10.635c0-6.646,9.256-7.975,9.256-14.623
			c0-6.646-6.612-7.974-6.612-7.974s11.9-1.33,11.9,7.974C38.406,40.41,19.894,41.74,30.473,56.361"/>
		<path id="Fill-4_9_" fill="#CCCBCB" d="M46.762,61.01c3.862,0,5.709,4.79,2.812,7.346c-2.09,1.845-5.566,3.98-9.912,3.98
			c-11.719,0,0.451-11.326,0.451-11.326H46.762 M46.762,58h-7.83l-0.867,0.805c-2.379,2.209-7.715,7.844-5.918,12.42
			c1,2.539,3.332,4.131,7.516,4.131c4.302,0,8.609-1.838,11.902-4.744c2.26-1.991,3.029-5.105,1.961-7.93
			C52.45,59.838,49.796,58,46.762,58"/>
		<path id="Fill-5_5_" fill="#CCCBCB" d="M46.128,86h-44c-2.13,0-2.254,2,0,2h10c2.676,0,5.558,1.354,6,2h12
			c0.442-0.646,3.324-2,6-2h10C48.382,88,48.336,86,46.128,86"/>
	</g>
</g>
<g id="Imported-Layers_50_" sketch:type="MSShapeGroup">
	<path id="Fill-2_42_" fill="#FFFFFF" d="M142,5681H26c-4.972,0-10-5.027-10-10v-136c0-4.952,5.048-10,10-10h84c3.342,0,6,2.658,6,6
		v24c0,3.342,2.658,6,6,6h24c3.342,0,6,2.658,6,6v104C152,5675.973,146.973,5681,142,5681"/>
</g>
<g id="Imported-Layers_51_" transform="translate(46.000000, 56.000000)" sketch:type="MSShapeGroup">
	<path id="Fill-1_60_" fill="#CCCBCB" d="M16.12,5531H26v44h-9.88V5531z"/>
	<path id="Fill-2_43_" fill="#CCCBCB" d="M48.294,5575C38.196,5575,32,5569.02,32,5557.868c0-10.718,5.95-17.252,14.561-17.252
		c1.981,0,4.439,0.252,5.439,1.252V5525h8v47.868C56.964,5574.482,54.055,5575,48.294,5575L48.294,5575z M52,5546.868
		c-1-1-2.218-0.86-3.212-0.86c-5.326,0-7.368,4.584-7.368,11.46c0,7.248,2.164,11.398,7.062,11.398c1.3,0,2.518,0.002,3.518-0.998
		V5546.868L52,5546.868z"/>
</g>
<g id="Imported-Layers-_x2B_-Imported-Layers_19_" transform="translate(16.000000, 5743.000000)" sketch:type="MSLayerGroup">
	<g id="Imported-Layers_52_" sketch:type="MSShapeGroup">
		<path id="Fill-2_44_" fill="#FFFFFF" d="M126,178H10c-4.972,0-10-5.027-10-10V32c0-4.952,5.048-10,10-10h84c3.342,0,6,2.658,6,6
			v24c0,3.342,2.658,6,6,6h24c3.342,0,6,2.658,6,6v104C136,172.973,130.973,178,126,178"/>
	</g>
	<g id="Imported-Layers_53_" transform="translate(34.000000, 62.000000)" sketch:type="MSShapeGroup">
		<path id="Fill-1_61_" fill="#CCCBCB" d="M61,28H49l-3.1-3.1C44.266,23.246,41.312,22,39,22H29c-2.312,0-5.212,1.246-6.846,2.9
			L19,28H7c-4.622,0-7,3.324-7,8v28c0,4.676,3.378,6,8,6h52c4.622,0,8-1.324,8-6V36C68,31.324,65.622,28,61,28L61,28z M34,64
			c-9.388,0-17-7.611-17-17s7.612-17,17-17c9.389,0,17,7.611,17,17S43.389,64,34,64L34,64z M59,38c-1.656,0-3-1.344-3-3s1.344-3,3-3
			s3,1.344,3,3S60.656,38,59,38L59,38z"/>
		<path id="Fill-2_45_" fill="#CCCBCB" d="M34,34c-7.18,0-13,5.82-13,13s5.82,13,13,13c7.18,0,13-5.82,13-13S41.18,34,34,34"/>
	</g>
</g>
<g id="Imported-Layers-_x2B_-Imported-Layers_20_" transform="translate(16.000000, 5983.000000)" sketch:type="MSLayerGroup">
	<g id="Imported-Layers_54_" sketch:type="MSShapeGroup">
		<path id="Fill-2_46_" fill="#FFFFFF" d="M126,178H10c-4.972,0-10-5.027-10-10V32c0-4.952,5.048-10,10-10h84c3.342,0,6,2.658,6,6
			v24c0,3.342,2.658,6,6,6h24c3.342,0,6,2.658,6,6v104C136,172.973,130.973,178,126,178"/>
	</g>
	<g id="Imported-Layers_55_" transform="translate(42.000000, 58.000000)" sketch:type="MSShapeGroup">
		<path id="Fill-1_62_" fill="#CCCBCB" d="M12.778,58.812L9.786,71.945H0L12.98,22h12.394l12.731,49.945H27.943l-3.206-13.133
			H12.778L12.778,58.812z M23.362,51.195l-2.608-10.338c-0.742-2.89-1.484-6.504-2.106-9.399h-0.12
			c-0.622,2.896-1.244,6.58-1.922,9.399L14.13,51.195H23.362L23.362,51.195z"/>
		<path id="Fill-2_47_" fill="#CCCBCB" d="M46.312,38H54v33.88h-7.688V38z"/>
		<path id="Fill-3_10_" fill="#CCCBCB" d="M54,30c0,2.21-1.792,4-4,4c-2.21,0-4-1.79-4-4s1.79-4,4-4C52.208,26,54,27.79,54,30"/>
	</g>
</g>
<g id="Imported-Layers-_x2B_-Imported-Layers_21_" transform="translate(16.000000, 6223.000000)" sketch:type="MSLayerGroup">
	<g id="Imported-Layers_56_" sketch:type="MSShapeGroup">
		<path id="Fill-2_48_" fill="#FFFFFF" d="M126,178H10c-4.972,0-10-5.027-10-10V32c0-4.952,5.048-10,10-10h84c3.342,0,6,2.658,6,6
			v24c0,3.342,2.658,6,6,6h24c3.342,0,6,2.658,6,6v104C136,172.973,130.973,178,126,178"/>
	</g>
	<g id="Imported-Layers_57_" transform="translate(32.000000, 48.000000)" sketch:type="MSShapeGroup">
		<path id="Fill-1_63_" fill="#CCCBCB" d="M72,58c0-19.882-16.118-36-36-36S0,38.118,0,58s16.118,36,36,36S72,77.882,72,58"/>
		<path id="Fill-2_49_" fill="#FFFFFF" d="M49.262,52.52l1.574-0.834l0.834-1.201l-2.872-1.299L48.15,46.87l-0.926,1.39l1.295,2.038
			L49.262,52.52"/>
		<path id="Fill-3_11_" fill="#FFFFFF" d="M46.204,51.132c0,0,0.834,1.481,1.112,1.481c0.277,0,1.018-1.02,1.018-1.02l-1.389-1.574
			L46.204,51.132"/>
		<path id="Fill-4_10_" fill="#FFFFFF" d="M67.878,59.838c0.187,0.278,0.74,2.594,0.74,2.594l0.556,0.74
			c0,0,0.742-5.464,0.648-6.298c-0.092-0.834-0.648-4.91-0.74-5.188c-0.092-0.275-0.926-4.537-1.574-5.926
			c-0.65-1.39-3.611-7.779-6.67-10.744c-3.056-2.964-5.372-3.983-5.372-3.983c0.07,0.278,0.296,1.598,0.404,2.239
			c0.08,0.227,0.155,0.444,0.235,0.668l0.658,1.168c0,0-0.647,1.113-0.371,1.113c0.277,0,0.926,2.221,0.926,2.221l-0.555,1.021
			l-1.203-2.594l-1.482,0.184l-1.576-0.831l-0.846,1.215c-0.396,0.57-0.48,1.303-0.223,1.946l0.278,0.698
			c0.154,0.382,0.188,0.8,0.103,1.202l-0.61,2.827c-0.168,0.781,0.13,1.589,0.764,2.074l0.534,0.408l1.391-0.74l1.39,1.574v-2.654
			c-0.017-0.144-0.03-0.285-0.046-0.43l-0.881-4.14l1.853,3.428l1.76-0.464l-0.872,1.34c-0.216,0.334-0.332,0.725-0.332,1.124v0.868
			c0,0.744-0.402,1.432-1.052,1.798l-0.578,0.324l-0.315-1.009l-0.926-0.741l-0.279,1.021c0,0,0.461,0.646,0.765,1.155l-0.28,0.158
			c-0.195,0.11-0.361,0.267-0.484,0.456l-1.312,2.04c-0.112,0.174-0.262,0.321-0.438,0.43l-0.02,0.013
			c-1.102,0.678-1.316,2.189-0.445,3.146l0.178,0.196l-0.184,1.39l-2.164,0.17c-0.758,0.06-1.326,0.718-1.269,1.476
			c0.08,1.057,0.212,2.336,0.374,2.336c0.18,0,0.852,0.076,1.312,0.133c0.308,0.035,0.609-0.03,0.873-0.19
			c0.488-0.296,1.244-0.808,1.429-1.237c0.278-0.648,0.831-3.429,0.831-3.429l1.669-0.184c0,0,1.112-0.556,1.296-0.835
			c0.186-0.277,2.038,0.187,2.408,0.279c0.371,0.092,1.298,1.943,1.298,1.943l0.462-1.388l-1.666-1.298l1.482-0.555l1.481,2.036
			l1.204,0.556l-0.08-1.838c0.018-0.193,0.036-0.382,0.055-0.574l0.555-2.303c0.021-0.064,0.041-0.131,0.059-0.195l0.616-1.758
			l1.296,0.557l0.742,0.74l-1.494,1.313c-0.514,0.452-0.77,1.132-0.682,1.812l0.229,1.785l1.853-0.834l0.463,1.573l-0.834,1.298
			l-3.459,1.274c-0.039,0.014-0.076,0.03-0.112,0.048c-0.36,0.17-2.44,1.154-2.356,0.9c0.047-0.137-0.348-0.534-0.764-0.908
			c-0.532-0.477-1.27-0.654-1.958-0.458l-2.067,0.592c-0.078,0.026-0.156,0.054-0.234,0.082l-2.928,1.231
			c-0.312,0.133-0.588,0.338-0.803,0.603l-5.222,6.427c-0.306,0.375-0.468,0.848-0.462,1.332l0.061,4.176
			c0.014,0.877,0.579,1.651,1.411,1.928l3.328,1.109c0.368,0.123,0.761,0.141,1.136,0.051l4.057-0.975c0,0,1.481,0.926,1.481,1.204
			s-0.647,3.798-0.647,4.076c0,0.176,0.037,1.206,0.063,1.938c0.019,0.485-0.136,0.957-0.437,1.338L54.756,84.9
			c-0.02,0.023-0.04,0.05-0.062,0.074l-1.728,1.907c0,0,5.929-2.962,10.652-10.188c4.722-7.223,5-10.279,5.094-10.743
			c0.082-0.416-0.506-2.624-0.628-3.07c-0.014-0.056-0.032-0.104-0.055-0.157l-1.264-3.07
			C66.766,59.652,67.691,59.561,67.878,59.838"/>
		<path id="Fill-5_6_" fill="#FFFFFF" d="M39.443,43.536l0.832,2.224l2.133-1.02l-0.186-1.666
			C42.223,43.074,39.723,43.536,39.443,43.536"/>
		<path id="Fill-6_3_" fill="#FFFFFF" d="M48.15,33.256l-1.482-0.277l0.74-0.371l-0.184-1.02l-0.927,0.094l-0.834,1.853l1.39,1.296
			L48.15,33.256"/>
		<path id="Fill-7_3_" fill="#FFFFFF" d="M16.504,69.191c0.186-0.062,1.544-1.111,1.544-1.111l-0.988-1.482l-1.42-0.863
			l-0.988-0.246l0.432,0.926l1.606,1.42C16.69,67.834,16.32,69.254,16.504,69.191"/>
		<path id="Fill-8_3_" fill="#FFFFFF" d="M18.078,71.693l-1.048-1.235l-0.926-0.062l-0.496,0.742l1.668,0.432L18.078,71.693"/>
		<path id="Fill-9_3_" fill="#FFFFFF" d="M32,24c-0.926,0-7.654,3.236-8.21,3.42c-0.554,0.186-5.186,4.076-5.186,4.076l4.076,0.186
			c0,0-0.616,1.834-1.128,2.994c-0.316,0.266-0.698,0.444-1.114,0.458L18.512,35.2v1.668l-2.132-0.774
			c-0.578-0.212-1.014-0.695-1.164-1.294l-0.322-1.288c-0.058-0.228-0.07-0.46-0.04-0.693c0.09-0.678,0.876-1.834,0.662-1.692
			c-0.278,0.185-5.68,5.31-6.422,6.422c-0.74,1.11-0.864,1.82-1.698,2.746c-0.832,0.929-3.24,6.948-3.24,7.226
			c0,0.192-0.408,1.11-0.654,1.646c-0.12,0.262-0.174,0.548-0.164,0.838l0.076,1.96c0,0-0.37,1.298-0.556,1.576
			c-0.184,0.278-0.278,1.11,0,1.388c0.236,0.236,0.206,2.61,0.19,3.32c-0.002,0.139,0.01,0.27,0.038,0.404
			c0.144,0.701,0.62,2.988,0.698,3.224c0.094,0.278,0.464,2.964,0.464,2.964s0.648,1.297,1.11,1.389
			c0.364,0.073,1.122,1.164,1.434,1.635C6.89,68.012,7,68.137,7.134,68.248c0.164,0.139,0.412,0.35,0.674,0.58
			c0.628,0.668,1.256,1.29,1.256,1.29c0,0.17,0.276,0.96,0.49,1.55c0.158,0.432,0.472,0.79,0.882,1.004l1.314,0.688l1.322,0.688
			l-0.118,0.146l0.146,0.248c0.48,0.816,0.466,1.83-0.05,2.654c-0.362,0.582-0.476,1.284-0.312,1.95
			c0.214,0.862,0.512,1.946,0.68,2.002c0.276,0.093,2.778,2.038,3.056,2.222c0.278,0.187,1.944,2.965,2.316,3.059
			c0.37,0.092,3.796,2.035,3.796,2.035s0.556,0.095,0.834,0.095c0.278,0,4.816,1.388,4.816,1.388l0.322-0.352
			c0.098,0.014,0.204,0.033,0.296,0.044c1.63,0.183,7.348,1.112,7.348,1.112l-1.976-0.618L32.62,88.92c0,0-0.37-1.111-0.74-1.482
			c-0.372-0.369,1.482-1.605,1.482-1.605s1.914-1.82,2.006-2.098c0.092-0.278,0.37-2.131,0.37-2.131l-1.512-2.377
			c0,0-2.284-1.297-2.656-1.297c-0.37,0-2.87-1.668-3.334-1.854c-0.462-0.184-2.13-1.45-2.594-1.542
			c-0.462-0.095-3.89-0.65-4.26-0.742c-0.37-0.092-5.742-0.987-6.298-1.08l-1.296,0.464L13.49,73.54l-1.706-1.118
			c-0.176-0.115-0.318-0.27-0.442-0.438l0.408-0.477c0,0-0.37-1.02-0.742-1.111c-0.37-0.092-0.926-1.391-0.926-1.391
			s0.834-1.204-0.184-1.48c-1.02-0.277-1.852-0.463-1.852-0.741s-0.372-1.482-0.372-1.853c0-0.369-0.278-1.39-0.278-1.668
			c0-0.275-0.092-1.203-0.092-1.574c0-0.369,0.464-1.111,0.464-1.111l1.204-0.557c0,0,1.76-0.184,2.036-0.092
			c0.278,0.092,1.482,0.926,1.76,1.204s1.482,2.13,1.482,2.13l0.742,1.576l0.832-0.834c0,0-0.648-0.742-0.648-1.018
			c0-0.278,0.278-0.465,0.556-1.021s0.092-0.834,0.834-0.926c0.74-0.094,2.038-0.464,2.038-0.464s0.926-0.648,0.926-0.926
			c0-0.278,1.482-0.926,1.482-0.926l1.39-0.463l0.834-1.298c0,0,0.648-0.37,0.74-0.834l2.778,0.742l0.556-3.521l0.186-2.777
			l-2.224-2.965l0.556-2.777c0,0-1.196-1.688-1.838-2.852c0.504,0.074,1.468,0.35,1.468,0.35l-0.062-0.24
			c0.308,0.532,0.864,1.26,0.864,1.26s0.556-0.556,0.68-0.31c0.092,0.188,0.928,0.128,1.382,0.168l0.346,0.172
			c0.222,0.332,0.962,1.442,1.21,1.816l0.304,1.21l1.666-0.926l2.13-1.021l2.502-2.778l3.426-2.963l0.186-2.595
			c0,0-1.02-2.408-0.742-2.5c0.278-0.092,2.039-3.242,2.039-3.242l-1.675-0.442l1.267-1.828l2.076-0.877
			c0,0-2.316-3.236-3.057-3.236H32L32,24z M25.24,41.492l-0.382-1.473c-0.032-0.125-0.078-0.246-0.136-0.363l-0.838-1.676
			c0,0,0.554-1.576,0.832-1.76c0.182-0.123,0.244-0.717,0.266-1.115c0.298,0.062,0.6,0.125,0.6,0.219c0,0.186,0,2.47,0.122,2.84
			C25.822,38.518,25.436,41.092,25.24,41.492L25.24,41.492z"/>
		<path id="Fill-10_2_" fill="#CCCBCB" d="M24.84,34.15l-1.42,1.422c0,0-0.618,1.541-0.556,1.789
			c0.062,0.246-1.234,1.051-1.234,1.051l-0.742,1.296c0,0,0,1.853-0.246,1.729c-0.248-0.123-1.05,0.803-1.236,0.803
			c-0.184,0-1.604,1.111-1.604,1.111l0.494,3.459l1.79,1.666c0,0,2.47-2.162,2.532-2.408c0.062-0.248,0.926-2.778,0.926-2.778
			l0.864-0.494l1.296,0.246c0,0,0.864-1.604,0.804-1.79c-0.062-0.186-0.804-2.777-0.804-3.088v-3.766l0.124-0.864l-1.204,0.556"/>
		<path id="Fill-11_1_" fill="#CCCBCB" d="M0,22"/>
	</g>
</g>
<g id="Imported-Layers-_x2B_-Imported-Layers_22_" transform="translate(16.000000, 6463.000000)" sketch:type="MSLayerGroup">
	<g id="Imported-Layers_58_" sketch:type="MSShapeGroup">
		<path id="Fill-2_50_" fill="#FFFFFF" d="M126,178H10c-4.972,0-10-5.027-10-10V32c0-4.952,5.048-10,10-10h84c3.342,0,6,2.658,6,6
			v24c0,3.342,2.658,6,6,6h24c3.342,0,6,2.658,6,6v104C136,172.973,130.973,178,126,178"/>
	</g>
	<g id="Imported-Layers_59_" transform="translate(28.000000, 56.000000)" sketch:type="MSShapeGroup">
		<path id="Fill-1_64_" fill="#CCCBCB" d="M65,46L34.822,76.822L23,65L0,86v8h80V56L65,46"/>
		<path id="Fill-2_51_" fill="#CCCBCB" d="M36,33c0,6.076-4.924,11-11,11s-11-4.924-11-11s4.924-11,11-11S36,26.924,36,33"/>
	</g>
</g>
<g id="Imported-Layers-_x2B_-Imported-Layers_23_" transform="translate(16.000000, 6703.000000)" sketch:type="MSLayerGroup">
	<g id="Imported-Layers_60_" sketch:type="MSShapeGroup">
		<path id="Fill-2_52_" fill="#FFFFFF" d="M126,178H10c-4.972,0-10-5.027-10-10V32c0-4.952,5.048-10,10-10h84c3.342,0,6,2.658,6,6
			v24c0,3.342,2.658,6,6,6h24c3.342,0,6,2.658,6,6v104C136,172.973,130.973,178,126,178"/>
	</g>
	<path id="Imported-Layers_61_" sketch:type="MSShapeGroup" fill="#CCCBCB" d="M68,76c-11.046,0-20,8.954-20,20s20,40,20,40
		s20-28.954,20-40S79.046,76,68,76L68,76z M68,106.91c-6.024,0-10.908-4.887-10.908-10.91S61.976,85.092,68,85.092
		c6.025,0,10.908,4.885,10.908,10.908S74.025,106.91,68,106.91L68,106.91z"/>
</g>
<g id="Imported-Layers_62_" transform="translate(16.000000, 6943.000000)" sketch:type="MSLayerGroup">
	<g id="Fill-2_53_" sketch:type="MSShapeGroup">
		<path fill="#FFFFFF" d="M126,178H10c-4.972,0-10-5.027-10-10V32c0-4.952,5.048-10,10-10h84c3.342,0,6,2.658,6,6v24
			c0,3.342,2.658,6,6,6h24c3.342,0,6,2.658,6,6v104C136,172.973,130.973,178,126,178"/>
	</g>
</g>
<g id="Imported-Layers-_x2B_-Imported-Layers-_x2B_-Imported-Layers" transform="translate(16.000000, 7183.000000)" sketch:type="MSLayerGroup">
	<g id="Imported-Layers_63_" sketch:type="MSShapeGroup">
		<path id="Fill-2_54_" fill="#FFFFFF" d="M126,178H10c-4.972,0-10-5.027-10-10V32c0-4.952,5.048-10,10-10h84c3.342,0,6,2.658,6,6
			v24c0,3.342,2.658,6,6,6h24c3.342,0,6,2.658,6,6v104C136,172.973,130.973,178,126,178"/>
	</g>
	<g id="Imported-Layers-_x2B_-Imported-Layers_24_" transform="translate(30.000000, 62.000000)" sketch:type="MSShapeGroup">
		<path id="Imported-Layers_64_" fill="#CCCBCB" d="M41.118,64.66c-0.81-1.141-2.034-3.676-3.676-7.607L22.83,22h-1.822L6.46,58.519
			c-1.152,2.89-2.036,4.758-2.654,5.604C2.846,65.469,1.578,66.197,0,66.305V68h13.366v-1.695c-1.492-0.021-2.612-0.15-3.358-0.391
			c-1.258-0.435-1.886-1.129-1.886-2.086c0-0.781,0.288-2.029,0.864-3.744c0.276-0.806,0.896-2.531,1.856-5.181h14.7l1.666,4.039
			c0.364,0.89,0.652,1.65,0.866,2.28c0.34,1.065,0.51,1.858,0.51,2.378c0,1.151-0.334,1.868-1.006,2.149
			c-0.672,0.283-2.074,0.469-4.204,0.555V68h21.198v-1.695C43.08,66.35,41.928,65.801,41.118,64.66L41.118,64.66z M11.824,51.704
			l5.91-15.156h0.55l6.298,15.156H11.824L11.824,51.704z"/>
		<path id="Imported-Layers_65_" fill="#CCCBCB" d="M75.32,62.762c-0.426,0.426-0.74,0.688-0.942,0.784
			c-0.204,0.097-0.433,0.142-0.688,0.142c-0.297,0-0.569-0.164-0.815-0.494c-0.244-0.33-0.771-1.381-0.771-1.852v-15
			c0-3.88-0.834-6.75-3.306-8.199C66.305,36.714,63.202,36,59.494,36c-3.454,0-6.362,0.734-8.729,2.2
			c-2.365,1.468-3.55,3.456-3.55,5.964c0,1.404,0.442,2.479,1.326,3.223c0.886,0.743,1.956,1.115,3.214,1.115
			c1.088,0,2.042-0.336,2.862-1.008c0.819-0.67,1.229-1.624,1.229-2.862c0-0.489-0.09-0.954-0.27-1.39
			c-0.182-0.436-0.422-0.836-0.721-1.2l-0.383-0.446c-0.17-0.191-0.299-0.373-0.385-0.544c-0.086-0.17-0.128-0.384-0.128-0.64
			c0-0.66,0.378-1.21,1.136-1.646c0.756-0.436,1.721-0.656,2.895-0.656c2.088,0,3.542,0.465,4.363,1.391
			c0.82,0.928,1.23,2.361,1.23,4.302v4.765c-6.054,1.75-10.498,3.49-13.332,5.22C47.418,55.516,46,57.854,46,60.8
			c0,2.414,0.777,4.19,2.336,5.332c1.555,1.142,3.229,1.714,5.018,1.714c1.345,0,2.709-0.236,4.095-0.705
			c2.28-0.746,4.325-2.029,6.138-3.845c0.234,1.261,0.607,2.212,1.12,2.853c0.894,1.131,2.312,1.697,4.252,1.697
			c1.086,0,2.12-0.191,3.103-0.576c1.556-0.596,2.972-1.64,4.252-3.133L75.32,62.762L75.32,62.762z M63.49,60.42
			c-0.702,0.814-1.311,1.412-1.822,1.796c-0.916,0.642-1.908,0.962-2.975,0.962c-0.81,0-1.539-0.367-2.189-1.105
			s-0.975-1.822-0.975-3.254c0-2.416,1.119-4.402,3.357-5.965c1.321-0.918,2.855-1.59,4.604-2.018V60.42L63.49,60.42z"/>
	</g>
</g>
<g id="Imported-Layers_66_" transform="translate(16.000000, 7903.000000)" sketch:type="MSLayerGroup">
	<g sketch:type="MSShapeGroup">
		<path id="Fill-2_55_" fill="#FFFFFF" d="M126,178H10c-4.972,0-10-5.027-10-10V32c0-4.952,5.048-10,10-10h84c3.342,0,6,2.658,6,6
			v24c0,3.342,2.658,6,6,6h24c3.342,0,6,2.658,6,6v104C136,172.973,130.973,178,126,178"/>
		<g transform="translate(46.000000, 56.000000)">
			<path id="Fill-1_65_" fill="#CCCBCB" d="M0,22h26v10H10v12h14v10H10v18H0V22"/>
			<path id="Fill-2_56_" fill="#CCCBCB" d="M34,64V22h8v42h4v8h-6C35.948,72,34,68.052,34,64"/>
		</g>
	</g>
</g>
<g id="Imported-Layers-_x2B_-Imported-Layers_25_" transform="translate(16.000000, 8143.000000)" sketch:type="MSLayerGroup">
	<g id="Imported-Layers_67_" sketch:type="MSShapeGroup">
		<g>
			<path id="Fill-2_57_" fill="#FFFFFF" d="M126,178H10c-4.972,0-10-5.027-10-10V32c0-4.952,5.048-10,10-10h84c3.342,0,6,2.658,6,6
				v24c0,3.342,2.658,6,6,6h24c3.342,0,6,2.658,6,6v104C136,172.973,130.973,178,126,178"/>
		</g>
		<path fill="#CCCBCB" d="M52,78v56l42-28L52,78"/>
	</g>
</g>
<g id="Imported-Layers-_x2B_-Imported-Layers-_x2B_-Imported-Layers-2_1_" transform="translate(16.000000, 8383.000000)" sketch:type="MSLayerGroup">
	<g sketch:type="MSShapeGroup">
		<g>
			<g id="Imported-Layers_68_">
				<path id="Fill-2_58_" fill="#FFFFFF" d="M126,178H10c-4.972,0-10-5.027-10-10V32c0-4.952,5.048-10,10-10h84c3.342,0,6,2.658,6,6
					v24c0,3.342,2.658,6,6,6h24c3.342,0,6,2.658,6,6v104C136,172.973,130.973,178,126,178"/>
			</g>
			<g id="Imported-Layers-_x2B_-Imported-Layers-2_1_" transform="translate(40.000000, 68.000000)">
				<path id="Imported-Layers_69_" fill="#CCCBCB" d="M19.01,57.99c-0.898,0-1.798-0.352-2.482-1.054L0,39.994l16.528-16.939
					c1.37-1.406,3.594-1.406,4.966,0c1.37,1.404,1.37,3.684,0,5.09L9.932,39.994l11.562,11.853c1.37,1.405,1.37,3.684,0,5.09
					C20.808,57.639,19.908,57.99,19.01,57.99"/>
				<path id="Imported-Layers-2_4_" fill="#CCCBCB" d="M36.99,57.99c0.898,0,1.798-0.352,2.482-1.054L56,39.994L39.473,23.055
					c-1.371-1.406-3.595-1.406-4.967,0c-1.369,1.404-1.369,3.684,0,5.09l11.562,11.85L34.506,51.847
					c-1.369,1.405-1.369,3.684,0,5.09C35.191,57.639,36.092,57.99,36.99,57.99"/>
			</g>
		</g>
	</g>
</g>
<g id="Imported-Layers-_x2B_-Imported-Layers_26_" transform="translate(13.000000, 8620.000000)" sketch:type="MSLayerGroup">
	<g id="Imported-Layers_70_" sketch:type="MSShapeGroup">
		<path id="Fill-1_66_" opacity="0.1" fill="#111111" enable-background="new    " d="M128.131,22H13.869
			C6.208,22,0,28.219,0,35.893v134.215C0,177.781,6.208,184,13.869,184h114.262c7.66,0,13.869-6.219,13.869-13.893V35.893
			C142,28.219,135.791,22,128.131,22"/>
		<path id="Fill-1_67_" opacity="0.1" fill="#111111" enable-background="new    " d="M128.131,982H13.869
			C6.208,982,0,988.219,0,995.893v134.215C0,1137.781,6.208,1144,13.869,1144h114.262c7.66,0,13.869-6.219,13.869-13.893V995.893
			C142,988.219,135.791,982,128.131,982"/>
		<path id="Fill-2_59_" fill="#FFFFFF" d="M129,25H13C8.028,25,3,30.027,3,35v136c0,4.973,5.028,10,10,10h116
			c4.973,0,10-5.027,10-10V35C139,30.027,133.973,25,129,25"/>
	</g>
	<g id="Imported-Layers_71_" transform="translate(29.000000, 47.000000)" sketch:type="MSShapeGroup">
		<path id="Fill-1_68_" fill="#CCCBCB" d="M55.88,78.08v-8H45.544c-0.456-2.014-1.25-3.895-2.317-5.59l7.357-7.357l-5.656-5.658
			l-7.36,7.359C35.88,57.77,34.006,56.979,32,56.521v-10.4h-8v10.4c-2.006,0.457-3.88,1.248-5.57,2.312l-7.358-7.359l-5.658,5.658
			l7.36,7.357c-1.068,1.695-1.862,3.576-2.318,5.59H0v8h10.466c0.458,1.998,1.248,3.865,2.308,5.549l-7.36,7.359l5.658,5.656
			l7.358-7.359c1.69,1.064,3.564,1.857,5.57,2.312V102h8V91.598c2.006-0.455,3.88-1.248,5.568-2.312l7.36,7.359l5.656-5.656
			l-7.357-7.359c1.06-1.684,1.85-3.551,2.306-5.549H55.88L55.88,78.08z M28,84.061c-5.522,0-10-4.479-10-10c0-5.525,4.478-10,10-10
			s10,4.475,10,10C38,79.582,33.522,84.061,28,84.061L28,84.061z"/>
		<path id="Fill-2_60_" fill="#CCCBCB" d="M82,42v-6h-6.424c-0.236-0.83-0.562-1.621-0.975-2.359l4.541-4.541L74.9,24.857
			l-4.541,4.541C69.622,28.986,68.83,28.66,68,28.424V22h-6v6.424c-0.83,0.236-1.622,0.562-2.359,0.975L55.1,24.857L50.857,29.1
			l4.541,4.541C54.986,34.379,54.66,35.17,54.424,36H48v6h6.424c0.236,0.83,0.562,1.621,0.975,2.359L50.857,48.9l4.242,4.242
			l4.541-4.541c0.737,0.412,1.529,0.738,2.359,0.975V56h6v-6.424c0.83-0.236,1.622-0.562,2.359-0.975l4.541,4.541l4.242-4.242
			l-4.541-4.541c0.412-0.738,0.738-1.529,0.975-2.359H82L82,42z M65,44c-2.762,0-5-2.238-5-5s2.238-5,5-5s5,2.238,5,5
			S67.762,44,65,44L65,44z"/>
	</g>
</g>
<g id="Imported-Layers-_x2B_-Imported-EPS" transform="translate(16.000000, 8863.000000)" sketch:type="MSLayerGroup">
	<g id="Imported-Layers_72_" sketch:type="MSShapeGroup">
		<path id="Fill-2_61_" fill="#FFFFFF" d="M126,178H10c-4.972,0-10-5.027-10-10V32c0-4.953,5.048-10,10-10h84c3.342,0,6,2.658,6,6
			v24c0,3.342,2.658,6,6,6h24c3.342,0,6,2.658,6,6v104C136,172.973,130.973,178,126,178"/>
	</g>
	<g id="Imported-EPS" transform="translate(46.000000, 62.000000)" sketch:type="MSShapeGroup">
		<path id="Page-1" fill="#CCCBCB" d="M24.2,59.238h-8.8l6.6-8.762l11,15.332h11L27.238,43.117L41.745,22h-11L22,35.555L13.145,22
			H2.2l14.562,21.117L0,65.809h24.2V59.238z"/>
	</g>
</g>
<g id="Imported-Layers-_x2B_-Imported-Layers_27_" transform="translate(16.000000, 9103.000000)" sketch:type="MSLayerGroup">
	<g id="Imported-Layers_73_" sketch:type="MSShapeGroup">
		<path id="Fill-2_62_" fill="#FFFFFF" d="M126,178H10c-4.972,0-10-5.027-10-10V32c0-4.953,5.048-10,10-10h84c3.342,0,6,2.658,6,6
			v24c0,3.342,2.658,6,6,6h24c3.342,0,6,2.658,6,6v104C136,172.973,130.973,178,126,178"/>
	</g>
	<g id="Imported-Layers_74_" transform="translate(28.000000, 58.000000)" sketch:type="MSShapeGroup">
		<path id="Fill-1_69_" fill="#CCCBCB" d="M0,24.002c3.222-0.648,7.38-1.168,11.806-1.168c7.362,0,12.136,1.652,15.876,5.158
			C31.706,31.723,34,37.471,34,46.002c0,9.244-2.464,15.82-6.202,19.766C23.716,69.992,17.5,72,9.91,72
			C5.362,72,2.186,71.363,0,71.002V24.002L0,24.002z M10,62c0,0,0.712,1.469,1.806,1.469C19.744,63.543,25,57.539,25,46.002
			c0.058-10.031-4.74-14.781-12.276-14.781C10.77,31.221,10.75,31.785,10,32V62L10,62z"/>
		<path id="Fill-2_63_" fill="#CCCBCB" d="M46.966,36.002l2.076,15.145c0.534,3.654,1.065,7.521,1.49,11.537h0.104
			c0.533-4.016,1.277-8.029,1.918-11.469l2.768-15.213h6.39l2.604,14.783c0.691,3.945,1.384,7.883,1.916,11.898h0.105
			c0.376-4.016,0.91-7.953,1.496-11.969l2.234-14.713H78l-7.986,35.855h-7.609l-2.45-12.326c-0.64-3.441-1.12-6.594-1.647-10.893
			h-0.113c-0.473,4.369-1.008,7.598-1.699,10.893l-2.607,12.326h-7.613l-7.558-35.855H46.966"/>
	</g>
</g>
<g id="Imported-Layers-_x2B_-Imported-Layers_28_" transform="translate(16.000000, 9343.000000)" sketch:type="MSLayerGroup">
	<g id="Imported-Layers_75_" sketch:type="MSShapeGroup">
		<path id="Fill-2_64_" fill="#FFFFFF" d="M126,178H10c-4.972,0-10-5.027-10-10V32c0-4.953,5.048-10,10-10h84c3.342,0,6,2.658,6,6
			v24c0,3.342,2.658,6,6,6h24c3.342,0,6,2.658,6,6v104C136,172.973,130.973,178,126,178"/>
	</g>
	<path id="Imported-Layers_76_" sketch:type="MSShapeGroup" fill="#CCCBCB" d="M54,140l36-40H72l12-30l-36,40h18L54,140"/>
</g>
<g id="Imported-Layers-_x2B_-Imported-Layers_29_" transform="translate(16.000000, 9583.000000)" sketch:type="MSLayerGroup">
	<g id="Imported-Layers_77_" sketch:type="MSShapeGroup">
		<path id="Fill-2_65_" fill="#FFFFFF" d="M126,22H10C5.028,22,0,27.027,0,32v136c0,4.973,5.028,10,10,10h116
			c4.973,0,10-5.027,10-10V32C136,27.027,130.973,22,126,22"/>
	</g>
	<g id="Imported-Layers_78_" transform="translate(92.000000, 0.000000)" sketch:type="MSShapeGroup">
		<path id="Fill-1_70_" fill="#CCCBCB" d="M20,90V22H4v68H0v34h24V90H20"/>
		<path id="Fill-2_66_" fill="#FFFFFF" d="M18,94h-2v-4h-4v-4H8v8H4v26h16V94H18L18,94z M8,102h8v14H8V102z"/>
		<path id="Fill-3_12_" fill="#FFFFFF" d="M12,82h4v4h-4V82z"/>
		<path id="Fill-4_11_" fill="#FFFFFF" d="M8,78h4v4H8V78z"/>
		<path id="Fill-5_7_" fill="#FFFFFF" d="M8,70h4v4H8V70z"/>
		<path id="Fill-6_4_" fill="#FFFFFF" d="M8,62h4v4H8V62z"/>
		<path id="Fill-7_4_" fill="#FFFFFF" d="M8,54h4v4H8V54z"/>
		<path id="Fill-8_4_" fill="#FFFFFF" d="M8,46h4v4H8V46z"/>
		<path id="Fill-9_4_" fill="#FFFFFF" d="M8,38h4v4H8V38z"/>
		<path id="Fill-10_3_" fill="#FFFFFF" d="M8,30h4v4H8V30z"/>
		<path id="Fill-11_2_" fill="#FFFFFF" d="M12,74h4v4h-4V74z"/>
		<path id="Fill-12_1_" fill="#FFFFFF" d="M12,66h4v4h-4V66z"/>
		<path id="Fill-13_1_" fill="#FFFFFF" d="M12,58h4v4h-4V58z"/>
		<path id="Fill-14_1_" fill="#FFFFFF" d="M12,50h4v4h-4V50z"/>
		<path id="Fill-15_1_" fill="#FFFFFF" d="M12,42h4v4h-4V42z"/>
		<path id="Fill-16_1_" fill="#FFFFFF" d="M12,34h4v4h-4V34z"/>
		<path id="Fill-17_1_" fill="#FFFFFF" d="M8,22h4v4H8V22z"/>
		<path id="Fill-18_1_" fill="#FFFFFF" d="M12,26h4v4h-4V26z"/>
	</g>
</g>
<g id="Imported-Layers-_x2B_-Imported-Layers-_x2B_-Rectangle-1" transform="translate(16.000000, 9823.000000)" sketch:type="MSLayerGroup">
	<g id="Imported-Layers_79_" sketch:type="MSShapeGroup">
		<path id="Fill-2_67_" fill="#FFFFFF" d="M126,178H10c-4.972,0-10-5.027-10-10V32c0-4.953,5.048-10,10-10h84c3.342,0,6,2.658,6,6
			v24c0,3.342,2.658,6,6,6h24c3.342,0,6,2.658,6,6v104C136,172.973,130.973,178,126,178"/>
	</g>
	<path id="Imported-Layers_80_" sketch:type="MSShapeGroup" fill="#CCCBCB" d="M108,104H82v-6c0-4-2.502-6-6-6h-6V66h-4v26h-6
		c-3.498,0-6,2.502-6,6v6H28v4h26v6c0,3.498,2.502,6,6,6h6v26h4v-26h6c3.498,0,6-2,6-6v-6h26V104L108,104z M78,114
		c0,1.162-0.838,2-2,2H60c-1.162,0-2-0.838-2-2V98c0-1.162,0.838-2,2-2h16c1.162,0,2,0.838,2,2V114L78,114z"/>
	<rect id="Rectangle-1" x="64" y="102" sketch:type="MSShapeGroup" fill="#CCCBCB" width="8" height="8">
	</rect>
</g>
<g id="Imported-Layers-_x2B_-Imported-Layers_30_" transform="translate(16.000000, 10063.000000)" sketch:type="MSLayerGroup">
	<g id="Imported-Layers_81_" sketch:type="MSShapeGroup">
		<path id="Fill-2_68_" fill="#FFFFFF" d="M126,178H10c-4.972,0-10-5.027-10-10V32c0-4.953,5.048-10,10-10h84c3.342,0,6,2.658,6,6
			v24c0,3.342,2.658,6,6,6h24c3.342,0,6,2.658,6,6v104C136,172.973,130.973,178,126,178"/>
	</g>
	<path id="Imported-Layers_82_" sketch:type="MSShapeGroup" fill="#CCCBCB" d="M54,86v31.014c-1.43-0.639-3.15-1.014-5-1.014
		c-4.97,0-9,2.686-9,6s4.03,6,9,6s9-2.686,9-6V96c7.882-3.137,17.58-4,26-4v21.014c-1.43-0.639-3.148-1.014-5-1.014
		c-4.971,0-9,2.686-9,6s4.029,6,9,6s9-2.686,9-6V80C75.895,80,65.39,80.891,54,86"/>
</g>
<g id="Imported-Layers-_x2B_-Imported-Layers_31_" transform="translate(16.000000, 10303.000000)" sketch:type="MSLayerGroup">
	<g id="Imported-Layers_83_" sketch:type="MSShapeGroup">
		<path id="Fill-2_69_" fill="#FFFFFF" d="M126,178H10c-4.972,0-10-5.027-10-10V32c0-4.953,5.048-10,10-10h84c3.342,0,6,2.658,6,6
			v24c0,3.342,2.658,6,6,6h24c3.342,0,6,2.658,6,6v104C136,172.973,130.973,178,126,178"/>
	</g>
	<g id="Imported-Layers_84_" transform="translate(32.000000, 56.000000)" sketch:type="MSShapeGroup">
		<path id="Fill-1_71_" fill="#CCCBCB" d="M12.908,59L9.896,72H0l13-50h12.532l12.997,50H28.256L25,59H12.908L12.908,59z
			 M23.622,51.023l-2.636-10.447c-0.75-2.922-1.5-6.574-2.13-9.496h-0.12c-0.63,2.922-1.26,6.646-1.946,9.496l-2.504,10.447H23.622
			L23.622,51.023z"/>
		<path id="Fill-2_70_" fill="#CCCBCB" d="M51.584,58c0.624,3.666,4.145,5.992,8.592,5.992c3.256,0,5.887-0.496,8.461-1.42
			l1.252,7.299C66.754,71.289,62.93,72,58.798,72c-10.401,0-16.358-6.801-16.358-17.645c0-8.787,4.83-18.496,15.482-18.496
			c9.895,0,13.656,8.717,13.656,17.291c0,1.84-0.332,4.068-0.454,4.85H51.584L51.584,58z M62.744,50.035
			c0-2.627-1.002-7.018-5.389-7.018c-4.01,0-5.638,4.107-5.89,7.018H62.744L62.744,50.035z"/>
	</g>
</g>
<g id="Imported-Layers-_x2B_-Imported-Layers_32_" transform="translate(16.000000, 10543.000000)" sketch:type="MSLayerGroup">
	<g id="Imported-Layers_85_" sketch:type="MSShapeGroup">
		<path id="Fill-2_71_" fill="#FFFFFF" d="M126,178H10c-4.972,0-10-5.027-10-10V32c0-4.953,5.048-10,10-10h84c3.342,0,6,2.658,6,6
			v24c0,3.342,2.658,6,6,6h24c3.342,0,6,2.658,6,6v104C136,172.973,130.973,178,126,178"/>
	</g>
	<g id="Imported-Layers_86_" transform="translate(40.000000, 56.000000)" sketch:type="MSShapeGroup">
		<path id="Fill-1_72_" fill="#CCCBCB" d="M0,30.889L29,22l29,8.889L29,44.223L0,30.889"/>
		<path id="Fill-2_72_" fill="#CCCBCB" d="M28,46.562v35.406L0,64.223V33.111L28,46.562z"/>
		<path id="Fill-3_13_" fill="#CCCBCB" d="M30.162,46.723v35.141l27.742-17.641V33.111L30.162,46.723"/>
	</g>
</g>
<g id="Artboard-1" sketch:type="MSArtboardGroup">
</g>
</svg>
