<?xml version="1.0" encoding="utf-8"?>
<!-- Generator: Adobe Illustrator 19.0.0, SVG Export Plug-In . SVG Version: 6.00 Build 0)  -->
<svg version="1.1" id="Layer_1" xmlns:sketch="http://www.bohemiancoding.com/sketch/ns"
	 xmlns="http://www.w3.org/2000/svg" xmlns:xlink="http://www.w3.org/1999/xlink" x="0px" y="0px" width="168px" height="11649px"
	 viewBox="-213 -5404.1 168 11649" style="enable-background:new -213 -5404.1 168 11649;" xml:space="preserve">
<style type="text/css">
	.st0{fill:#FFFFFF;}
	.st1{opacity:0.1;fill:#111111;enable-background:new    ;}
	.st2{fill:#F1D364;}
	.st3{fill:#ECC01E;}
	.st4{fill:#CCCBCB;}
	.st5{fill:#E0E0E0;}
	.st6{fill:#DEDEDE;}
	.st7{fill:#D3D3D3;}
	.st8{filter:url(#Adobe_OpacityMaskFilter);}
	.st9{mask:url(#mask-2);fill:none;}
	.st10{fill:#BBBDBF;}
	.st11{fill:url(#path-4_2_);}
	.st12{filter:url(#Adobe_OpacityMaskFilter_1_);}
	.st13{opacity:0.8288;mask:url(#mask-7);fill:url(#Fill-1_74_);enable-background:new    ;}
	.st14{filter:url(#Adobe_OpacityMaskFilter_2_);}
	.st15{opacity:0.8288;mask:url(#mask-10);fill:url(#Fill-4_12_);enable-background:new    ;}
	.st16{opacity:0.1;}
	.st17{fill:#111111;}
	.st18{fill:#DBDADA;}
</style>
<g>
	<path id="path-4" class="st0" d="M-162.1-3895L-162.1-3895L-162.1-3895L-162.1-3895 M-137.5-3904.1c-7.8,0-17.6,3.6-23.9,9.8l49,49
		c6.2-6.3,10.3-14.3,10.4-23.8c0-19.1-15.9-34.7-35-35L-137.5-3904.1L-137.5-3904.1"/>
</g>
<title>Artboard 1</title>
<desc>Created with Sketch.</desc>
<g id="Imported-Layers" transform="translate(13.000000, 4780.000000)" sketch:type="MSLayerGroup">
	<path id="Fill-1" sketch:type="MSShapeGroup" class="st1" d="M-213-5233.9v-134.3c0-7.6,6.2-13.8,13.8-13.8h84.4
		c3.7,0,7.2,1.5,9.8,4l30,30.1c2.6,2.6,4,6.1,4,9.8v104.3c0,7.6-6.2,13.8-13.8,13.8h-114.4C-206.8-5220.1-213-5226.3-213-5233.9z"/>
	<path id="Fill-2" sketch:type="MSShapeGroup" class="st0" d="M-200-5223.1c-5,0-10-5-10-10v-136c0-5,5-10,10-10h84c3.3,0,6,2.7,6,6
		v24c0,3.3,2.7,6,6,6h24c3.3,0,6,2.7,6,6v104c0,5-5,10-10,10H-200z"/>
</g>
<g id="Imported-Layers_1_" transform="translate(13.000000, 0.000000)" sketch:type="MSLayerGroup">
	<path id="Fill-1_1_" sketch:type="MSShapeGroup" class="st1" d="M-213-693.9v-134.3c0-7.6,6.2-13.8,13.8-13.8h84.4
		c3.7,0,7.2,1.5,9.8,4l30,30.1c2.6,2.6,4,6.1,4,9.8v104.3c0,7.6-6.2,13.8-13.8,13.8h-114.4C-206.8-680.1-213-686.3-213-693.9z"/>
	<path id="Fill-1_2_" sketch:type="MSShapeGroup" class="st1" d="M-213-933.9v-134.3c0-7.6,6.2-13.8,13.8-13.8h84.4
		c3.7,0,7.2,1.5,9.8,4l30,30.1c2.6,2.6,4,6.1,4,9.8v104.3c0,7.6-6.2,13.8-13.8,13.8h-114.4C-206.8-920.1-213-926.3-213-933.9z"/>
	<path id="Fill-1_3_" sketch:type="MSShapeGroup" class="st1" d="M-213-1173.9v-134.3c0-7.6,6.2-13.8,13.8-13.8h84.4
		c3.7,0,7.2,1.5,9.8,4.1l30,30.1c2.6,2.6,4,6.1,4,9.8v104.3c0,7.6-6.2,13.8-13.8,13.8h-114.4C-206.8-1160.1-213-1166.3-213-1173.9z"
		/>
	<path id="Fill-1_4_" sketch:type="MSShapeGroup" class="st1" d="M-213-1413.9v-134.3c0-7.6,6.2-13.8,13.8-13.8h84.4
		c3.7,0,7.2,1.5,9.8,4.1l30,30.1c2.6,2.6,4,6.1,4,9.8v104.3c0,7.6-6.2,13.8-13.8,13.8h-114.4C-206.8-1400.1-213-1406.3-213-1413.9z"
		/>
	<path id="Fill-1_5_" sketch:type="MSShapeGroup" class="st1" d="M-213-1653.9v-134.3c0-7.6,6.2-13.8,13.8-13.8h84.4
		c3.7,0,7.2,1.5,9.8,4.1l30,30.1c2.6,2.6,4,6.1,4,9.8v104.3c0,7.6-6.2,13.8-13.8,13.8h-114.4C-206.8-1640.1-213-1646.3-213-1653.9z"
		/>
	<path id="Fill-1_6_" sketch:type="MSShapeGroup" class="st1" d="M-213-1893.9v-134.3c0-7.6,6.2-13.8,13.8-13.8h84.4
		c3.7,0,7.2,1.5,9.8,4.1l30,30.1c2.6,2.6,4,6.1,4,9.8v104.3c0,7.6-6.2,13.8-13.8,13.8h-114.4C-206.8-1880.1-213-1886.3-213-1893.9z"
		/>
	<path id="Fill-1_7_" sketch:type="MSShapeGroup" class="st1" d="M-213-2133.9v-134.3c0-7.6,6.2-13.8,13.8-13.8h84.4
		c3.7,0,7.2,1.5,9.8,4.1l30,30.1c2.6,2.6,4,6.1,4,9.8v104.3c0,7.6-6.2,13.8-13.8,13.8h-114.4C-206.8-2120.1-213-2126.3-213-2133.9z"
		/>
	<path id="Fill-1_8_" sketch:type="MSShapeGroup" class="st1" d="M-213-2373.9v-134.3c0-7.6,6.2-13.8,13.8-13.8h84.4
		c3.7,0,7.2,1.5,9.8,4.1l30,30.1c2.6,2.6,4,6.1,4,9.8v104.3c0,7.6-6.2,13.8-13.8,13.8h-114.4C-206.8-2360.1-213-2366.3-213-2373.9z"
		/>
	<path id="Fill-1_9_" sketch:type="MSShapeGroup" class="st1" d="M-213-2613.9v-134.3c0-7.6,6.2-13.8,13.8-13.8h84.4
		c3.7,0,7.2,1.5,9.8,4.1l30,30.1c2.6,2.6,4,6.1,4,9.8v104.3c0,7.6-6.2,13.8-13.8,13.8h-114.4C-206.8-2600.1-213-2606.3-213-2613.9z"
		/>
	<path id="Fill-1_10_" sketch:type="MSShapeGroup" class="st1" d="M-213-2853.9v-134.3c0-7.6,6.2-13.8,13.8-13.8h84.4
		c3.7,0,7.2,1.5,9.8,4.1l30,30.1c2.6,2.6,4,6.1,4,9.8v104.3c0,7.6-6.2,13.8-13.8,13.8h-114.4C-206.8-2840.1-213-2846.3-213-2853.9z"
		/>
	<path id="Fill-1_11_" sketch:type="MSShapeGroup" class="st1" d="M-213-3093.9v-134.3c0-7.6,6.2-13.8,13.8-13.8h84.4
		c3.7,0,7.2,1.5,9.8,4.1l30,30.1c2.6,2.6,4,6.1,4,9.8v104.3c0,7.6-6.2,13.8-13.8,13.8h-114.4C-206.8-3080.1-213-3086.3-213-3093.9z"
		/>
	<path id="Fill-1_12_" sketch:type="MSShapeGroup" class="st1" d="M-213-3333.9v-134.3c0-7.6,6.2-13.8,13.8-13.8h84.4
		c3.7,0,7.2,1.5,9.8,4.1l30,30.1c2.6,2.6,4,6.1,4,9.8v104.3c0,7.6-6.2,13.8-13.8,13.8h-114.4C-206.8-3320.1-213-3326.3-213-3333.9z"
		/>
	<path id="Fill-1_13_" sketch:type="MSShapeGroup" class="st1" d="M-213-3573.9v-134.3c0-7.6,6.2-13.8,13.8-13.8h84.4
		c3.7,0,7.2,1.5,9.8,4.1l30,30.1c2.6,2.6,4,6.1,4,9.8v104.3c0,7.6-6.2,13.8-13.8,13.8h-114.4C-206.8-3560.1-213-3566.3-213-3573.9z"
		/>
	<path id="Fill-1_14_" sketch:type="MSShapeGroup" class="st1" d="M-213-3813.9v-134.3c0-7.6,6.2-13.8,13.8-13.8h84.4
		c3.7,0,7.2,1.5,9.8,4.1l30,30.1c2.6,2.6,4,6.1,4,9.8v104.3c0,7.6-6.2,13.8-13.8,13.8h-114.4C-206.8-3800.1-213-3806.3-213-3813.9z"
		/>
	<path id="Fill-1_15_" sketch:type="MSShapeGroup" class="st1" d="M-213-4053.9v-134.3c0-7.6,6.2-13.8,13.8-13.8h84.4
		c3.7,0,7.2,1.5,9.8,4l30,30.1c2.6,2.6,4,6.1,4,9.8v104.3c0,7.6-6.2,13.8-13.8,13.8h-114.4C-206.8-4040.1-213-4046.3-213-4053.9z"/>
	<path id="Fill-1_16_" sketch:type="MSShapeGroup" class="st1" d="M-213-4293.9v-134.3c0-7.6,6.2-13.8,13.8-13.8h84.4
		c3.7,0,7.2,1.5,9.8,4l30,30.1c2.6,2.6,4,6.1,4,9.8v104.3c0,7.6-6.2,13.8-13.8,13.8h-114.4C-206.8-4280.1-213-4286.3-213-4293.9z"/>
	<path id="Fill-1_17_" sketch:type="MSShapeGroup" class="st1" d="M-213-4533.9v-134.3c0-7.6,6.2-13.8,13.8-13.8h84.4
		c3.7,0,7.2,1.5,9.8,4l30,30.1c2.6,2.6,4,6.1,4,9.8v104.3c0,7.6-6.2,13.8-13.8,13.8h-114.4C-206.8-4520.1-213-4526.3-213-4533.9z"/>
	<path id="Fill-1_18_" sketch:type="MSShapeGroup" class="st1" d="M-213-4773.9v-134.3c0-7.6,6.2-13.8,13.8-13.8h84.4
		c3.7,0,7.2,1.5,9.8,4l30,30.1c2.6,2.6,4,6.1,4,9.8v104.3c0,7.6-6.2,13.8-13.8,13.8h-114.4C-206.8-4760.1-213-4766.3-213-4773.9z"/>
	<path id="Fill-1_19_" sketch:type="MSShapeGroup" class="st1" d="M-213-5013.9v-134.3c0-7.6,6.2-13.8,13.8-13.8h84.4
		c3.7,0,7.2,1.5,9.8,4l30,30.1c2.6,2.6,4,6.1,4,9.8v104.3c0,7.6-6.2,13.8-13.8,13.8h-114.4C-206.8-5000.1-213-5006.3-213-5013.9z"/>
	<path id="Fill-1_20_" sketch:type="MSShapeGroup" class="st1" d="M-213-5233.9v-134.3c0-7.6,6.2-13.8,13.8-13.8h84.4
		c3.7,0,7.2,1.5,9.8,4l30,30.1c2.6,2.6,4,6.1,4,9.8v104.3c0,7.6-6.2,13.8-13.8,13.8h-114.4C-206.8-5220.1-213-5226.3-213-5233.9z"/>
	<path id="Fill-2_1_" sketch:type="MSShapeGroup" class="st0" d="M-200-683.1c-5,0-10-5-10-10v-136c0-5,5-10,10-10h84
		c3.3,0,6,2.7,6,6v24c0,3.3,2.7,6,6,6h24c3.3,0,6,2.7,6,6v104c0,5-5,10-10,10H-200z"/>
</g>
<g id="Imported-Layers_2_" transform="translate(2.000000, 11265.000000)" sketch:type="MSLayerGroup">
	<path id="Fill-1_21_" sketch:type="MSShapeGroup" class="st2" d="M-49-5245.1c0,4.9-4.1,9-9,9h-146c-4.9,0-9-4.1-9-9v-109h164
		V-5245.1"/>
	<path id="Fill-2_2_" sketch:type="MSShapeGroup" class="st3" d="M-204-5380.1h55c2.4,0,4.4,1.1,6.1,2.8l8.3,8.1
		c1.7,1.7,5.3,3.1,7.6,3.1h70c4.9,0,8,3.5,8,8.5v3.5h-164v-17C-213-5376.1-209-5380.1-204-5380.1"/>
	<path id="Fill-3" sketch:type="MSShapeGroup" class="st0" d="M-104-5316.1h-12l-3.1-3.1c-1.6-1.7-4.6-2.9-6.9-2.9h-10
		c-2.3,0-5.2,1.2-6.8,2.9l-3.2,3.1h-12c-4.6,0-7,3.3-7,8v28c0,4.7,3.4,6,8,6h52c4.6,0,8-1.3,8-6v-28
		C-97-5312.8-99.4-5316.1-104-5316.1L-104-5316.1z M-131-5280.1c-9.4,0-17-7.6-17-17s7.6-17,17-17c9.4,0,17,7.6,17,17
		S-121.6-5280.1-131-5280.1L-131-5280.1z M-106-5306.1c-1.7,0-3-1.3-3-3c0-1.7,1.3-3,3-3s3,1.3,3,3
		C-103-5307.5-104.3-5306.1-106-5306.1L-106-5306.1z"/>
	<path id="Fill-4" sketch:type="MSShapeGroup" class="st0" d="M-131-5310.1c-7.2,0-13,5.8-13,13s5.8,13,13,13c7.2,0,13-5.8,13-13
		S-123.8-5310.1-131-5310.1"/>
</g>
<g id="Group" transform="translate(2.000000, 7667.000000)" sketch:type="MSLayerGroup">
	<path id="Fill-1_22_" sketch:type="MSShapeGroup" class="st2" d="M-49-5247.1c0,4.9-4.1,9-9,9h-146c-4.9,0-9-4.1-9-9v-109h164
		V-5247.1"/>
	<path id="Combined-Shape_8_" class="st0" d="M-104.1-5319.5l-4.5,4.5l9,13.4h-53.7v9h53.7l-9,13.4l4.5,4.5l22.4-22.4L-104.1-5319.5
		z M-162.2-5292.6h-17.9v-9h17.9V-5292.6z"/>
	<path id="Fill-2_3_" sketch:type="MSShapeGroup" class="st3" d="M-204-5382.1h55c2.4,0,4.4,1.1,6.1,2.8l8.3,8.1
		c1.7,1.7,5.3,3.1,7.6,3.1h70c4.9,0,8,3.5,8,8.5v3.5h-164v-17C-213-5378.1-209-5382.1-204-5382.1"/>
</g>
<g id="Fill-2-_x2B_-Fill-1" transform="translate(2.000000, 7427.000000)" sketch:type="MSLayerGroup">
	<path id="Fill-2_4_" sketch:type="MSShapeGroup" class="st3" d="M-204-5382.1h55c2.4,0,4.4,1.1,6.1,2.8l8.3,8.1
		c1.7,1.7,5.3,3.1,7.6,3.1h70c4.9,0,8,3.5,8,8.5v3.5h-164v-17C-213-5378.1-209-5382.1-204-5382.1"/>
	<path id="Fill-1_23_" sketch:type="MSShapeGroup" class="st2" d="M-49-5247.1c0,4.9-4.1,9-9,9h-146c-4.9,0-9-4.1-9-9v-109h164
		V-5247.1"/>
</g>
<g id="Fill-2-_x2B_-Fill-1_1_" transform="translate(2.000000, 10787.000000)" sketch:type="MSLayerGroup">
	<path id="Fill-2_5_" sketch:type="MSShapeGroup" class="st3" d="M-204-5382.1h55c2.4,0,4.4,1.1,6.1,2.8l8.3,8.1
		c1.7,1.7,5.3,3.1,7.6,3.1h70c4.9,0,8,3.5,8,8.5v3.5h-164v-17C-213-5378.1-209-5382.1-204-5382.1"/>
	<path id="Fill-1_24_" sketch:type="MSShapeGroup" class="st2" d="M-49-5247.1c0,4.9-4.1,9-9,9h-146c-4.9,0-9-4.1-9-9v-109h164
		V-5247.1"/>
</g>
<g id="Fill-2-_x2B_-Fill-1_2_" transform="translate(2.000000, 11027.000000)" sketch:type="MSLayerGroup">
	<path id="Fill-2_6_" sketch:type="MSShapeGroup" class="st3" d="M-204-5382.1h55c2.4,0,4.4,1.1,6.1,2.8l8.3,8.1
		c1.7,1.7,5.3,3.1,7.6,3.1h70c4.9,0,8,3.5,8,8.5v3.5h-164v-17C-213-5378.1-209-5382.1-204-5382.1"/>
	<path id="Fill-1_25_" sketch:type="MSShapeGroup" class="st2" d="M-49-5247.1c0,4.9-4.1,9-9,9h-146c-4.9,0-9-4.1-9-9v-109h164
		V-5247.1"/>
</g>
<path id="Shape" sketch:type="MSShapeGroup" class="st0" d="M-95,5489.9v31l-36-5.4l0,0v-25.6H-95z M-163,5489.9l0,20.8l26,3.9
	v-24.7H-163z M-131,5457.1l36-4.3v31h-36V5457.1L-131,5457.1z M-137,5458l-26,3.1l0,22.8h26V5458z"/>
<path id="Shape_1_" sketch:type="MSShapeGroup" class="st0" d="M-125.9,5696.9c4.5-6,10.8-6,10.8-6s0.9,5.6-3.6,11.1
	c-4.8,5.8-10.2,4.9-10.2,4.9S-129.9,5702.3-125.9,5696.9"/>
<path id="Shape_2_" sketch:type="MSShapeGroup" class="st0" d="M-128.5,5712.1c2.3,0,6.6-3.2,12.2-3.2c9.7,0,13.5,7,13.5,7
	s-7.4,3.9-7.4,13.2c0,10.6,9.3,14.2,9.3,14.2s-6.5,18.5-15.2,18.5c-4,0-7.1-2.7-11.4-2.7c-4.3,0-8.6,2.8-11.4,2.8
	c-8,0-18.1-17.5-18.1-31.6c0-13.9,8.5-21.2,16.5-21.2C-135.3,5709.1-131.2,5712.1-128.5,5712.1"/>
<g id="Imported-Layers-_x2B_-Imported-Layers" transform="translate(16.000000, 3.000000)" sketch:type="MSLayerGroup">
	<g id="Imported-Layers_4_" sketch:type="MSShapeGroup">
		<path id="Fill-2_7_" class="st0" d="M-87-5226.1h-116c-5,0-10-5-10-10v-136c0-5,5-10,10-10h84c3.3,0,6,2.7,6,6v24c0,3.3,2.7,6,6,6
			h24c3.3,0,6,2.7,6,6v104C-77-5231.1-82-5226.1-87-5226.1"/>
	</g>
	<path id="Imported-Layers_5_" sketch:type="MSShapeGroup" class="st4" d="M-161.1-5276.1h7.8l7.5-26l7.8,26h7.4l12.5-44h-17.3v8.7
		h4.8l-4.5,17.7l-6.3-26.4h-8.6l-6.5,26.4l-6.5-26.4h-9.1L-161.1-5276.1z"/>
</g>
<g id="Imported-Layers-_x2B_-Imported-Layers-_x2B_-Imported-Layers-2" transform="translate(16.000000, 223.000000)" sketch:type="MSLayerGroup">
	<g sketch:type="MSShapeGroup">
		<g id="Imported-Layers_6_">
			<path id="Fill-2_8_" class="st0" d="M-87-5226.1h-116c-5,0-10-5-10-10v-136c0-5,5-10,10-10h84c3.3,0,6,2.7,6,6v24
				c0,3.3,2.7,6,6,6h24c3.3,0,6,2.7,6,6v104C-77-5231.1-82-5226.1-87-5226.1"/>
		</g>
		<g id="Imported-Layers-_x2B_-Imported-Layers-2" transform="translate(40.000000, 68.000000)">
			<path id="Imported-Layers_7_" class="st4" d="M-194-5346.1c-0.9,0-1.8-0.4-2.5-1.1l-16.5-16.9l16.5-16.9c1.4-1.4,3.6-1.4,5,0
				c1.4,1.4,1.4,3.7,0,5.1l-11.6,11.9l11.6,11.9c1.4,1.4,1.4,3.7,0,5.1C-192.2-5346.5-193.1-5346.1-194-5346.1"/>
			<path id="Imported-Layers-2_1_" class="st4" d="M-176-5346.1c0.9,0,1.8-0.4,2.5-1.1l16.5-16.9l-16.5-16.9c-1.4-1.4-3.6-1.4-5,0
				c-1.4,1.4-1.4,3.7,0,5.1l11.6,11.9l-11.6,11.9c-1.4,1.4-1.4,3.7,0,5.1C-177.8-5346.5-176.9-5346.1-176-5346.1"/>
		</g>
	</g>
</g>
<g id="Imported-Layers-_x2B_-Imported-Layers_1_" transform="translate(16.000000, 463.000000)" sketch:type="MSLayerGroup">
	<g id="Imported-Layers_8_" sketch:type="MSShapeGroup">
		<path id="Fill-2_9_" class="st0" d="M-87-5226.1h-116c-5,0-10-5-10-10v-136c0-5,5-10,10-10h84c3.3,0,6,2.7,6,6v24c0,3.3,2.7,6,6,6
			h24c3.3,0,6,2.7,6,6v104C-77-5231.1-82-5226.1-87-5226.1"/>
	</g>
	<g id="Imported-Layers_9_" transform="translate(34.000000, 66.000000)" sketch:type="MSShapeGroup">
		<path id="Fill-1_26_" class="st4" d="M-194.4-5346.1c-0.9,0-1.8-0.4-2.4-1.1L-213-5364l16-16.9c1.2-1.3,3.2-1.6,4.6-0.5
			c1.7,1.3,1.9,3.9,0.4,5.4l-11.4,12l11.2,11.5c1.5,1.6,1.6,4.2-0.1,5.6C-192.9-5346.4-193.6-5346.1-194.4-5346.1"/>
		<path id="Fill-3_1_" class="st4" d="M-163.5-5346.1c0.9,0,1.8-0.4,2.4-1.1l16.2-16.8l-16-16.9c-1.2-1.3-3.2-1.6-4.6-0.5
			c-1.7,1.3-1.9,3.9-0.4,5.4l11.4,12l-11.2,11.5c-1.5,1.6-1.6,4.2,0.1,5.6C-165.1-5346.4-164.3-5346.1-163.5-5346.1"/>
		<path id="Fill-2_10_" class="st4" d="M-184.2-5346.1c-0.4,0-0.8-0.1-1.2-0.2c-1.8-0.7-2.6-2.8-2-4.6l10.2-28.8
			c0.7-1.9,2.6-2.8,4.4-2.1c1.8,0.7,2.6,2.8,2,4.6l-10.2,28.8C-181.6-5347-182.9-5346.1-184.2-5346.1"/>
	</g>
</g>
<g id="Imported-Layers-_x2B_-Imported-Layers_2_" transform="translate(16.000000, 703.000000)" sketch:type="MSLayerGroup">
	<g id="Imported-Layers_10_" sketch:type="MSShapeGroup">
		<path id="Fill-2_11_" class="st0" d="M-87-5226.1h-116c-5,0-10-5-10-10v-136c0-5,5-10,10-10h84c3.3,0,6,2.7,6,6v24
			c0,3.3,2.7,6,6,6h24c3.3,0,6,2.7,6,6v104C-77-5231.1-82-5226.1-87-5226.1"/>
	</g>
	<path id="Imported-Layers_11_" sketch:type="MSShapeGroup" class="st4" d="M-161-5326.1v56l42-28L-161-5326.1"/>
</g>
<g id="Imported-Layers-_x2B_-Imported-Layers_3_" transform="translate(16.000000, 943.000000)" sketch:type="MSLayerGroup">
	<g id="Imported-Layers_12_" sketch:type="MSShapeGroup">
		<path id="Fill-2_12_" class="st0" d="M-87-5226.1h-116c-5,0-10-5-10-10v-136c0-5,5-10,10-10h84c3.3,0,6,2.7,6,6v24
			c0,3.3,2.7,6,6,6h24c3.3,0,6,2.7,6,6v104C-77-5231.1-82-5226.1-87-5226.1"/>
	</g>
	<g id="Imported-Layers_13_" transform="translate(28.000000, 60.000000)" sketch:type="MSShapeGroup">
		<path id="Fill-1_27_" class="st4" d="M-164.5-5330.1h-40.9c-4.2,0-7.5-3.4-7.5-7.5v-36.9c0-4.2,3.4-7.5,7.5-7.5h40.9
			c4.2,0,7.5,3.4,7.5,7.5v36.9C-157-5333.5-160.4-5330.1-164.5-5330.1"/>
		<path id="Fill-2_13_" class="st4" d="M-153-5352.1l22,18v-44l-22,18V-5352.1"/>
	</g>
</g>
<g id="Imported-Layers-_x2B_-Imported-Layers_4_" transform="translate(16.000000, 1183.000000)" sketch:type="MSLayerGroup">
	<g id="Imported-Layers_14_" sketch:type="MSShapeGroup">
		<path id="Fill-2_14_" class="st0" d="M-87-5226.1h-116c-5,0-10-5-10-10v-136c0-5,5-10,10-10h84c3.3,0,6,2.7,6,6v24
			c0,3.3,2.7,6,6,6h24c3.3,0,6,2.7,6,6v104C-77-5231.1-82-5226.1-87-5226.1"/>
	</g>
	<g id="Imported-Layers_15_" transform="translate(26.000000, 60.000000)" sketch:type="MSShapeGroup">
		<path id="Fill-1_28_" class="st4" d="M-202.9-5324.1h61.9c5.5,0,10-4.5,10-10v-38c0-5.5-4.5-10-10-10h-61.9c-5.5,0-10,4.5-10,10
			v38C-212.9-5328.6-208.4-5324.1-202.9-5324.1"/>
		<path id="Fill-2_15_" class="st4" d="M-213-5382.1"/>
		<path id="Fill-3_2_" class="st0" d="M-189-5339.1c0,2.8-2.2,5-5,5s-5-2.2-5-5s2.2-5,5-5S-189-5341.9-189-5339.1"/>
		<path id="Fill-4_1_" class="st0" d="M-167-5339.1c0,2.8-2.2,5-5,5s-5-2.2-5-5s2.2-5,5-5S-167-5341.9-167-5339.1"/>
		<path id="Fill-5" class="st0" d="M-145-5339.1c0,2.8-2.2,5-5,5s-5-2.2-5-5s2.2-5,5-5S-145-5341.9-145-5339.1"/>
	</g>
</g>
<g id="Imported-Layers-_x2B_-Imported-Layers-_x2B_-Clip-2" transform="translate(16.000000, 1423.000000)" sketch:type="MSLayerGroup">
	<g>
		<g id="Imported-Layers_16_" sketch:type="MSShapeGroup">
			<path id="Fill-2_16_" class="st0" d="M-87-5226.1h-116c-5,0-10-5-10-10v-136c0-5,5-10,10-10h84c3.3,0,6,2.7,6,6v24
				c0,3.3,2.7,6,6,6h24c3.3,0,6,2.7,6,6v104C-77-5231.1-82-5226.1-87-5226.1"/>
		</g>
		<g id="Imported-Layers_17_" transform="translate(30.000000, 40.000000)">
			<g id="Group-3" transform="translate(2.000000, 14.000000)">
			</g>
			<path id="Fill-4_2_" sketch:type="MSShapeGroup" class="st5" d="M-180.9-5380.6l-1.1,1.1l15.9,15.9c5.3,3.2,9.7,7.6,12.9,12.9
				l14.7,14.7l1.1-1.1L-180.9-5380.6"/>
			<path id="Fill-5_1_" sketch:type="MSShapeGroup" class="st6" d="M-160.4-5308.3C-160.4-5308.3-160.4-5308.3-160.4-5308.3l0.7,0.7
				L-160.4-5308.3 M-156.6-5354.2c4.6,6,7.3,13.4,7.3,21.5c0,9.8-3.9,18.6-10.3,25.1l0.7,0.7c6.5-6.6,10.9-15.1,10.9-25.2
				c0-6.8-1.9-13.2-5.2-18.7L-156.6-5354.2 M-210-5358l0.7,0.7c0,0,0,0,0,0L-210-5358 M-185.5-5369.1c-8.4,0-18.6,3.8-25.3,10.4
				l0.7,0.7c6.4-6.4,15.3-10.1,25.1-10.1c8.3,0,15.9,2.8,21.9,7.4l-3-3c-5.6-3.4-12-5.3-18.9-5.5L-185.5-5369.1"/>
			<path id="Fill-39" sketch:type="MSShapeGroup" class="st6" d="M-160.4-5308.3C-160.4-5308.3-160.4-5308.3-160.4-5308.3l0.7,0.7
				L-160.4-5308.3 M-156.6-5354.2c4.6,6,7.3,13.4,7.3,21.5c0,9.8-3.9,18.6-10.3,25.1l0.7,0.7c6.5-6.6,10.9-15.1,10.9-25.2
				c0-6.8-1.9-13.2-5.2-18.7L-156.6-5354.2 M-210-5358l0.7,0.7c0,0,0,0,0,0L-210-5358 M-185.5-5369.1c-8.4,0-18.6,3.8-25.3,10.4
				l0.7,0.7c6.4-6.4,15.3-10.1,25.1-10.1c8.3,0,15.9,2.8,21.9,7.4l-3-3c-5.6-3.4-12-5.3-18.9-5.5L-185.5-5369.1"/>
			<path id="Fill-9" sketch:type="MSShapeGroup" class="st7" d="M-166.1-5363.7l3,3c2.4,1.9,4.6,4,6.5,6.5l3.5,3.5
				C-156.3-5356-160.8-5360.5-166.1-5363.7"/>
			<g id="Group-12" transform="translate(48.000000, 20.000000)">
				<g id="Clip-11">
				</g>
				<defs>
					<filter id="Adobe_OpacityMaskFilter" filterUnits="userSpaceOnUse" x="-211.1" y="-5380.7" width="6.5" height="6.5">
						<feColorMatrix  type="matrix" values="1 0 0 0 0  0 1 0 0 0  0 0 1 0 0  0 0 0 1 0"/>
					</filter>
				</defs>
				<mask maskUnits="userSpaceOnUse" x="-211.1" y="-5380.7" width="6.5" height="6.5" id="mask-2">
					<g class="st8">
						<path id="path-1" class="st0" d="M-211.1-5380.7l6.5,6.5C-206.5-5376.7-208.7-5378.8-211.1-5380.7"/>
					</g>
				</mask>
				<path id="Fill-10" sketch:type="MSShapeGroup" class="st9" d="M-211.1-5380.7l6.5,6.5C-206.5-5376.7-208.7-5378.8-211.1-5380.7"
					/>
			</g>
			<path id="Fill-13" sketch:type="MSShapeGroup" class="st0" d="M-212-5359.1h4v4h-4V-5359.1z"/>
			<path id="Fill-14" sketch:type="MSShapeGroup" class="st4" d="M-211-5358.1h2v2h-2V-5358.1z M-213-5354.1h6v-6h-6V-5354.1z"/>
			<path id="Fill-15" sketch:type="MSShapeGroup" class="st0" d="M-162-5359.1h4v4h-4V-5359.1z"/>
			<path id="Fill-16" sketch:type="MSShapeGroup" class="st4" d="M-161-5358.1h2v2h-2V-5358.1z M-163-5354.1h6v-6h-6V-5354.1z"/>
			<path id="Fill-17" sketch:type="MSShapeGroup" class="st0" d="M-162-5309.1h4v4h-4V-5309.1z"/>
			<path id="Fill-18" sketch:type="MSShapeGroup" class="st4" d="M-161-5308.1h2v2h-2V-5308.1z M-163-5304.1h6v-6h-6V-5304.1z"/>
			<path id="Fill-19" sketch:type="MSShapeGroup" class="st10" d="M-179-5380.1c0,1.1-0.9,2-2,2s-2-0.9-2-2s0.9-2,2-2
				S-179-5381.2-179-5380.1"/>
			<path id="Fill-20" sketch:type="MSShapeGroup" class="st10" d="M-135-5336.1c0,1.1-0.9,2-2,2s-2-0.9-2-2s0.9-2,2-2
				S-135-5337.2-135-5336.1"/>
		</g>
		<g id="Clip-2" sketch:type="MSShapeGroup">
			
				<linearGradient id="path-4_2_" gradientUnits="userSpaceOnUse" x1="-416.1811" y1="-5918.228" x2="-414.9981" y2="-5917.0459" gradientTransform="matrix(60.08 0 0 58.796 24831.2871 342632.0938)">
				<stop  offset="0" style="stop-color:#FFFFFF"/>
				<stop  offset="1" style="stop-color:#BBBDBF"/>
			</linearGradient>
			<path id="path-4_1_" class="st11" d="M-178.1-5318L-178.1-5318L-178.1-5318L-178.1-5318 M-153.5-5327.1c-7.8,0-17.6,3.6-23.9,9.8
				l49,49c6.2-6.3,10.3-14.3,10.4-23.8c0-19.1-15.9-34.7-35-35L-153.5-5327.1L-153.5-5327.1"/>
		</g>
	</g>
</g>
<g id="Imported-Layers-_x2B_-Imported-Layers_5_" transform="translate(16.000000, 1663.000000)" sketch:type="MSLayerGroup">
	<g id="Imported-Layers_18_" sketch:type="MSShapeGroup">
		<path id="Fill-2_17_" class="st0" d="M-87-5226.1h-116c-5,0-10-5-10-10v-136c0-5,5-10,10-10h84c3.3,0,6,2.7,6,6v24
			c0,3.3,2.7,6,6,6h24c3.3,0,6,2.7,6,6v104C-77-5231.1-82-5226.1-87-5226.1"/>
	</g>
	<path id="Imported-Layers_19_" sketch:type="MSShapeGroup" class="st4" d="M-111-5279c-1.8-1.8-16.9-8.8-20.6-10.2
		c-0.2-0.1-0.3-0.2-0.4-0.5c-0.1-0.9-0.4-2.6-1.2-3c-0.8-0.3-3.5-1.6-3.5-1.6c0-0.2-0.3-0.8-0.4-1.4c0-0.7,0.4-1.3,0.4-1.3
		c0.4-0.7,1.7-2.4,2-3.7c0.4-1.3,0.8-4.6,0.8-4.6c0-0.7,1.1-1,1.7-1.4c1.2-0.6,2.1-7.6,2.1-7.6c0-2.3-1-1.3-1-3v-6.2
		c0-7.6-6.4-12.7-14.1-12.7c-7.7,0-13.8,5.1-13.8,12.7v6.2c0,1.7-1,0.7-1,3c0,0,1,7.1,2.1,7.6c0.7,0.3,1.7,0.6,1.7,1.4
		c0,0,0.4,3.3,0.8,4.6c0.3,1.3,1.7,3,2,3.7c0,0,0.4,0.7,0.4,1.3c-0.1,0.6-0.4,1.2-0.4,1.4c0,0-2.7,1.3-3.5,1.6
		c-0.7,0.4-1.1,2.1-1.2,3c0,0.2-0.2,0.4-0.4,0.5c-3.7,1.4-18.8,8.4-20.6,10.2c-1.3,1.3-2.2,6.8-2.2,7.2c0,0,0,0,0,0.1v2
		c0,3.1,2.6,5.7,5.7,5.7h60.7c3.1,0,5.7-2.6,5.7-5.7v-2c0,0,0,0,0,0C-109-5272.1-109.7-5277.7-111-5279"/>
</g>
<g id="Imported-Layers-_x2B_-Imported-Layers_6_" transform="translate(16.000000, 1903.000000)" sketch:type="MSLayerGroup">
	<g id="Imported-Layers_20_" sketch:type="MSShapeGroup">
		<path id="Fill-2_18_" class="st0" d="M-87-5226.1h-116c-5,0-10-5-10-10v-136c0-5,5-10,10-10h84c3.3,0,6,2.7,6,6v24
			c0,3.3,2.7,6,6,6h24c3.3,0,6,2.7,6,6v104C-77-5231.1-82-5226.1-87-5226.1"/>
	</g>
	<g id="Imported-Layers_21_" transform="translate(40.000000, 46.000000)" sketch:type="MSShapeGroup">
		<path id="Fill-1_29_" class="st4" d="M-213-5358.1l18-24l18,24H-213"/>
		<path id="Fill-2_19_" class="st4" d="M-157-5330.1l-18,24l-18-24H-157"/>
		<path id="Fill-3_3_" class="st4" d="M-201-5362.1h12v24h-12V-5362.1z"/>
		<path id="Fill-4_3_" class="st4" d="M-181-5350.1h12v24h-12V-5350.1z"/>
	</g>
</g>
<g id="Imported-Layers_22_" transform="translate(16.000000, 2143.000000)" sketch:type="MSLayerGroup">
	<g sketch:type="MSShapeGroup">
		<path id="Fill-2_20_" class="st0" d="M-87-5226.1h-116c-5,0-10-5-10-10v-136c0-5,5-10,10-10h84c3.3,0,6,2.7,6,6v24
			c0,3.3,2.7,6,6,6h24c3.3,0,6,2.7,6,6v104C-77-5231.1-82-5226.1-87-5226.1"/>
		<g id="Imported-Layers-2_2_" transform="translate(28.000000, 62.000000)">
			<path id="Fill-1_30_" class="st4" d="M-205.8-5363.3l0.8,1.2h-8l1-1.2c0.8-0.2,1.4-0.5,1.9-0.9c0.5-0.4,1.6-1.6,3.2-3.5
				l11.9-14.4h2v16v2c0.2,0.3,0.4,0.7,1.3,0.8l0.7,1.2h-10l1.2-1.2c1-0.1,1.6-0.2,2-0.3c1.9-0.5,2.9-2.5,2.9-2.5v-2h-9.4l-3.6,4
				C-208-5363.1-205.8-5363.3-205.8-5363.3L-205.8-5363.3z M-195-5370.1v-9.8l-8,9.8H-195L-195-5370.1z"/>
			<path id="Fill-2_21_" class="st4" d="M-189-5382.1h56v4h-56V-5382.1z"/>
			<path id="Fill-3_4_" class="st4" d="M-189-5366.1h56v4h-56V-5366.1z"/>
			<path id="Fill-4_4_" class="st4" d="M-189-5374.1h56v4h-56V-5374.1z"/>
			<path id="Fill-5_2_" class="st4" d="M-212.9-5358.1h79.9v4h-79.9V-5358.1z"/>
			<path id="Fill-6" class="st4" d="M-212.9-5350.1h79.9v4h-79.9V-5350.1z"/>
			<path id="Fill-7" class="st4" d="M-212.9-5342.1h79.9v4h-79.9V-5342.1z"/>
			<path id="Fill-8" class="st4" d="M-212.9-5334.1h79.9v4h-79.9V-5334.1z"/>
			<path id="Fill-9_1_" class="st4" d="M-212.9-5326.1h25.9v3.9h-25.9V-5326.1z"/>
		</g>
	</g>
</g>
<g id="Imported-Layers-_x2B_-Imported-Layers_7_" transform="translate(16.000000, 2383.000000)" sketch:type="MSLayerGroup">
	<g id="Imported-Layers_23_" sketch:type="MSShapeGroup">
		<path id="Fill-2_22_" class="st0" d="M-87-5226.1h-116c-5,0-10-5-10-10v-136c0-5,5-10,10-10h84c3.3,0,6,2.7,6,6v24
			c0,3.3,2.7,6,6,6h24c3.3,0,6,2.7,6,6v104C-77-5231.1-82-5226.1-87-5226.1"/>
	</g>
	<path id="Imported-Layers_24_" sketch:type="MSShapeGroup" class="st4" d="M-121-5320.1v-10c-29.9,0-24,48-46,48v10
		c16,0,22.5-10.5,27-22h13v-10h-9C-133-5310.7-127.3-5320.1-121-5320.1"/>
</g>
<g id="Imported-Layers-_x2B_-Imported-Layers_8_" transform="translate(16.000000, 2623.000000)" sketch:type="MSLayerGroup">
	<g id="Imported-Layers_25_" sketch:type="MSShapeGroup">
		<path id="Fill-2_23_" class="st0" d="M-87-5226.1h-116c-5,0-10-5-10-10v-136c0-5,5-10,10-10h84c3.3,0,6,2.7,6,6v24
			c0,3.3,2.7,6,6,6h24c3.3,0,6,2.7,6,6v104C-77-5231.1-82-5226.1-87-5226.1"/>
	</g>
	<g id="Imported-Layers_26_" transform="translate(26.000000, 54.000000)" sketch:type="MSShapeGroup">
		<path id="Fill-1_31_" class="st4" d="M-213-5382.1h24v14h-24V-5382.1z"/>
		<path id="Fill-2_24_" class="st4" d="M-183-5382.1h24v14h-24V-5382.1z"/>
		<path id="Fill-3_5_" class="st4" d="M-153-5382.1h23.9v14H-153V-5382.1z"/>
		<path id="Fill-4_5_" class="st4" d="M-213-5362.1h24v14h-24V-5362.1z"/>
		<path id="Fill-5_3_" class="st4" d="M-183-5362.1h24v14h-24V-5362.1z"/>
		<path id="Fill-6_1_" class="st4" d="M-153-5362.1h23.9v14H-153V-5362.1z"/>
		<path id="Fill-7_1_" class="st4" d="M-213-5342.1h24v14h-24V-5342.1z"/>
		<path id="Fill-8_1_" class="st4" d="M-183-5342.1h24v14h-24V-5342.1z"/>
		<path id="Fill-9_2_" class="st4" d="M-153-5342.1h23.9v14H-153V-5342.1z"/>
		<path id="Fill-10_1_" class="st4" d="M-213-5322.1h24v13.9h-24V-5322.1z"/>
		<path id="Fill-11" class="st4" d="M-183-5322.1h24v13.9h-24V-5322.1z"/>
		<path id="Fill-12" class="st4" d="M-153-5322.1h23.9v13.9H-153V-5322.1z"/>
	</g>
</g>
<g id="Imported-Layers-_x2B_-Imported-Layers_9_" transform="translate(16.000000, 2863.000000)" sketch:type="MSLayerGroup">
	<g id="Imported-Layers_27_" sketch:type="MSShapeGroup">
		<path id="Fill-2_25_" class="st0" d="M-87-5226.1h-116c-5,0-10-5-10-10v-136c0-5,5-10,10-10h84c3.3,0,6,2.7,6,6v24
			c0,3.3,2.7,6,6,6h24c3.3,0,6,2.7,6,6v104C-77-5231.1-82-5226.1-87-5226.1"/>
	</g>
	<path id="Imported-Layers_28_" sketch:type="MSShapeGroup" class="st4" d="M-111-5294.1v-12h-12.8c-0.5-1.7-1.1-3.2-1.9-4.7
		l9.1-9.1l-8.5-8.5l-9.1,9.1c-1.5-0.8-3.1-1.5-4.7-1.9v-12.9h-12v12.9c-1.7,0.5-3.2,1.1-4.7,1.9l-9.1-9.1l-8.5,8.5l9.1,9.1
		c-0.8,1.5-1.5,3.1-1.9,4.7H-179v12h12.9c0.5,1.7,1.1,3.2,1.9,4.7l-9.1,9.1l8.5,8.5l9.1-9.1c1.5,0.8,3.1,1.5,4.7,1.9v12.9h12v-12.9
		c1.7-0.5,3.2-1.1,4.7-1.9l9.1,9.1l8.5-8.5l-9.1-9.1c0.8-1.5,1.5-3.1,1.9-4.7L-111-5294.1L-111-5294.1z M-145-5288.8
		c-6.2,0-11.3-5.1-11.3-11.3s5.1-11.3,11.3-11.3s11.3,5.1,11.3,11.3S-138.8-5288.8-145-5288.8L-145-5288.8z"/>
</g>
<g id="Imported-Layers-_x2B_-Imported-Layers_10_" transform="translate(16.000000, 3103.000000)" sketch:type="MSLayerGroup">
	<g id="Imported-Layers_29_" sketch:type="MSShapeGroup">
		<path id="Fill-2_26_" class="st0" d="M-87-5226.1h-116c-5,0-10-5-10-10v-136c0-5,5-10,10-10h84c3.3,0,6,2.7,6,6v24
			c0,3.3,2.7,6,6,6h24c3.3,0,6,2.7,6,6v104C-77-5231.1-82-5226.1-87-5226.1"/>
	</g>
	<g id="Imported-Layers_30_" transform="translate(30.000000, 50.000000)" sketch:type="MSShapeGroup">
		<path id="Fill-1_32_" class="st4" d="M-135.1-5357.3c0-12.9-15.5-23.6-36.7-23.6s-39.3,10.9-39.3,23.8s16.9,23,38,23
			c0.6,0,1.4,0,2,0l-9,15.9l31.4-20.9C-141.9-5343.3-135.1-5350.9-135.1-5357.3"/>
		<path id="Fill-2_27_" class="st0" d="M-143-5357c0-9.2-13.4-16.1-29-16.1c-15.6,0-31,6.9-31,16.1c0,9.2,13.4,16.9,29,16.9
			c2.7,0,7-0.5,10-2l-5,10l15-12C-149-5347.1-143-5352.3-143-5357"/>
		<path id="Fill-3_6_" class="st4" d="M-176.8-5366h6.3l-1.1,4h0.1c1.7-1.5,3.3-2.6,4.6-3.2c1.4-0.6,2.1-0.7,3.9-0.7
			c1,0,2.3-0.1,2.9,0l-1.5,5.9c-1.4-0.4-2.3-0.7-3.3-0.7c-2.3,0-4.1,0.5-5.6,1.5c-1.4,1-1.7,1.9-2.2,3.8l-2.4,8.5h-6L-176.8-5366"/>
	</g>
</g>
<g id="Imported-Layers-_x2B_-Imported-Layers_11_" transform="translate(16.000000, 3343.000000)" sketch:type="MSLayerGroup">
	<g id="Imported-Layers_31_" sketch:type="MSShapeGroup">
		<path id="Fill-2_28_" class="st0" d="M-87-5226.1h-116c-5,0-10-5-10-10v-136c0-5,5-10,10-10h84c3.3,0,6,2.7,6,6v24
			c0,3.3,2.7,6,6,6h24c3.3,0,6,2.7,6,6v104C-77-5231.1-82-5226.1-87-5226.1"/>
	</g>
	<g id="Imported-Layers_32_" transform="translate(36.000000, 52.000000)" sketch:type="MSShapeGroup">
		<path id="Fill-1_33_" class="st4" d="M-195.7-5354l16.9-28c-0.7-0.1-1.5-0.1-2.2-0.1c-9.9,0-18.7,4.5-24.6,11.5L-195.7-5354"/>
		<path id="Fill-2_29_" class="st4" d="M-192.1-5340.1l-16.1-26.9c-3.1,4.9-4.9,10.7-4.9,16.9c0,3.5,0.6,6.9,1.6,10H-192.1"/>
		<path id="Fill-3_7_" class="st4" d="M-168.9-5360.1l15.6,26.1c2.8-4.7,4.4-10.2,4.4-16.1c0-3.5-0.6-6.9-1.6-10H-168.9"/>
		<path id="Fill-4_6_" class="st4" d="M-184.9-5364.1h32.6c-4.3-8.8-12.4-15.3-22.2-17.3L-184.9-5364.1"/>
		<path id="Fill-5_4_" class="st4" d="M-175.6-5336.1h-34.2c4.5,9.2,13.2,15.9,23.6,17.5L-175.6-5336.1"/>
		<path id="Fill-6_2_" class="st4" d="M-165.1-5345.8l-16.7,27.7c0.2,0,0.5,0,0.7,0c10.2,0,19.3-4.8,25.2-12.3L-165.1-5345.8"/>
	</g>
</g>
<g id="Imported-Layers-_x2B_-Imported-Layers_12_" transform="translate(16.000000, 3583.000000)" sketch:type="MSLayerGroup">
	<g id="Imported-Layers_33_" sketch:type="MSShapeGroup">
		<path id="Fill-2_30_" class="st0" d="M-87-5226.1h-116c-5,0-10-5-10-10v-136c0-5,5-10,10-10h84c3.3,0,6,2.7,6,6v24
			c0,3.3,2.7,6,6,6h24c3.3,0,6,2.7,6,6v104C-77-5231.1-82-5226.1-87-5226.1"/>
	</g>
	<g id="Imported-Layers_34_" transform="translate(40.000000, 58.000000)" sketch:type="MSShapeGroup">
		<path id="Fill-1_34_" class="st4" d="M-213-5381.1c3.3-0.6,7.6-1,14-1c6.5,0,10.8,1.1,13.9,3.7c3,2.5,5,6.5,5,11.3
			c0,4.8-1.5,8.9-4.3,11.6c-3.6,3.6-8.4,5.3-14.6,5.3h-4v18h-10V-5381.1L-213-5381.1z M-203-5359.1c0.9,0.2,1.8,0.3,3.3,0.3
			c5.6,0,9.1-3,9.1-8c0-4.5-3-7.2-8.2-7.2c-2.1,0-3.4,0.6-4.2,0.8V-5359.1L-203-5359.1z"/>
		<path id="Fill-2_31_" class="st4" d="M-158-5356.1c-2.3-1.1-5.4-0.8-7,0v24h-8v-30c3.7-2,8-3,17-2L-158-5356.1"/>
	</g>
</g>
<g id="Imported-Layers-_x2B_-Imported-Layers_13_" transform="translate(16.000000, 3823.000000)" sketch:type="MSLayerGroup">
	<g id="Imported-Layers_35_" sketch:type="MSShapeGroup">
		<path id="Fill-2_32_" class="st0" d="M-87-5226.1h-116c-5,0-10-5-10-10v-136c0-5,5-10,10-10h84c3.3,0,6,2.7,6,6v24
			c0,3.3,2.7,6,6,6h24c3.3,0,6,2.7,6,6v104C-77-5231.1-82-5226.1-87-5226.1"/>
	</g>
	<path id="Imported-Layers_36_" sketch:type="MSShapeGroup" class="st4" d="M-127-5308.1c0-9.5-9.2-16-20.5-16H-163v8h6v40h8v-16h2
		C-134.3-5292.1-127-5297.9-127-5308.1L-127-5308.1z M-149-5300.1v-16c11.3,0,14,2.4,14,8S-137.7-5300.1-149-5300.1L-149-5300.1z"/>
</g>
<g id="Imported-Layers-_x2B_-Imported-Layers_14_" transform="translate(16.000000, 4063.000000)" sketch:type="MSLayerGroup">
	<g id="Imported-Layers_37_" sketch:type="MSShapeGroup">
		<path id="Fill-2_33_" class="st0" d="M-87-5226.1h-116c-5,0-10-5-10-10v-136c0-5,5-10,10-10h84c3.3,0,6,2.7,6,6v24
			c0,3.3,2.7,6,6,6h24c3.3,0,6,2.7,6,6v104C-77-5231.1-82-5226.1-87-5226.1"/>
	</g>
	<g id="Imported-Layers_38_" transform="translate(38.000000, 46.000000)">
		<g id="Group-3_1_">
			<g id="Clip-2_1_">
			</g>
			<defs>
				<filter id="Adobe_OpacityMaskFilter_1_" filterUnits="userSpaceOnUse" x="-213" y="-5381" width="59.9" height="59.9">
					<feColorMatrix  type="matrix" values="1 0 0 0 0  0 1 0 0 0  0 0 1 0 0  0 0 0 1 0"/>
				</filter>
			</defs>
			<mask maskUnits="userSpaceOnUse" x="-213" y="-5381" width="59.9" height="59.9" id="mask-7">
				<g class="st12">
					<path id="path-6" class="st0" d="M-183-5381c-16.5,0-30,13.4-30,30c0,16.5,13.4,30,30,30s30-13.4,30-30
						C-153.1-5367.5-166.5-5381-183-5381L-183-5381z M-183-5325.4c-14.1,0-25.6-11.5-25.6-25.6s11.4-25.6,25.6-25.6
						c14.1,0,25.6,11.4,25.6,25.6S-168.9-5325.4-183-5325.4L-183-5325.4z"/>
				</g>
			</mask>
			
				<linearGradient id="Fill-1_74_" gradientUnits="userSpaceOnUse" x1="-491.7482" y1="-5913.73" x2="-491.7482" y2="-5914.7563" gradientTransform="matrix(59.916 0 0 59.918 29280.543 349012.0625)">
				<stop  offset="0" style="stop-color:#FFFFFF"/>
				<stop  offset="1" style="stop-color:#BBBDBF"/>
			</linearGradient>
			<path id="Fill-1_35_" sketch:type="MSShapeGroup" class="st13" d="M-183-5381c-16.5,0-30,13.4-30,30c0,16.5,13.4,30,30,30
				s30-13.4,30-30C-153.1-5367.5-166.5-5381-183-5381L-183-5381z M-183-5325.4c-14.1,0-25.6-11.5-25.6-25.6s11.4-25.6,25.6-25.6
				c14.1,0,25.6,11.4,25.6,25.6S-168.9-5325.4-183-5325.4L-183-5325.4z"/>
		</g>
		<g id="Group-6" transform="translate(8.000000, 8.000000)">
			<g id="Clip-5">
			</g>
			<defs>
				<filter id="Adobe_OpacityMaskFilter_2_" filterUnits="userSpaceOnUse" x="-212.2" y="-5380.1" width="42.2" height="42.2">
					<feColorMatrix  type="matrix" values="1 0 0 0 0  0 1 0 0 0  0 0 1 0 0  0 0 0 1 0"/>
				</filter>
			</defs>
			<mask maskUnits="userSpaceOnUse" x="-212.2" y="-5380.1" width="42.2" height="42.2" id="mask-10">
				<g class="st14">
					<path id="path-9" class="st0" d="M-191-5380.1c-11.7,0-21.1,9.5-21.1,21.1c0,11.7,9.5,21.1,21.1,21.1
						c11.7,0,21.1-9.5,21.1-21.1C-169.9-5370.7-179.4-5380.1-191-5380.1L-191-5380.1z M-191-5342.2c-9.2,0-16.7-7.5-16.7-16.8
						s7.5-16.7,16.7-16.7s16.8,7.5,16.8,16.7S-181.8-5342.2-191-5342.2L-191-5342.2z"/>
				</g>
			</mask>
			
				<linearGradient id="Fill-4_12_" gradientUnits="userSpaceOnUse" x1="-504.7126" y1="-5989.251" x2="-504.7126" y2="-5990.2773" gradientTransform="matrix(42.236 0 0 42.238 21126.002 247631.875)">
				<stop  offset="0" style="stop-color:#FFFFFF"/>
				<stop  offset="1" style="stop-color:#BBBDBF"/>
			</linearGradient>
			<path id="Fill-4_7_" sketch:type="MSShapeGroup" class="st15" d="M-191-5380.1c-11.7,0-21.1,9.5-21.1,21.1
				c0,11.7,9.5,21.1,21.1,21.1c11.7,0,21.1-9.5,21.1-21.1C-169.9-5370.7-179.4-5380.1-191-5380.1L-191-5380.1z M-191-5342.2
				c-9.2,0-16.7-7.5-16.7-16.8s7.5-16.7,16.7-16.7s16.8,7.5,16.8,16.7S-181.8-5342.2-191-5342.2L-191-5342.2z"/>
		</g>
		<path id="Fill-7_2_" sketch:type="MSShapeGroup" class="st4" d="M-175-5354.1c0,4.4-3.6,8-8,8s-8-3.6-8-8s3.6-8,8-8
			S-175-5358.5-175-5354.1"/>
		<path id="Fill-8_2_" sketch:type="MSShapeGroup" class="st4" d="M-178.8-5310.1h-8.5c-1,0-1.8-0.7-2-1.7l-3.2-25.8
			c-0.3-2.4,1.5-4.4,3.9-4.4h11c2.4,0,4.2,2.1,3.9,4.4l-3.2,25.8C-176.9-5310.9-177.8-5310.1-178.8-5310.1"/>
	</g>
</g>
<g id="Imported-Layers-_x2B_-Imported-Layers-2-_x2B_-Imported-Layers" transform="translate(16.000000, 4303.000000)" sketch:type="MSLayerGroup">
	<g id="Imported-Layers_39_" sketch:type="MSShapeGroup">
		<path id="Fill-2_34_" class="st0" d="M-87-5226.1h-116c-5,0-10-5-10-10v-136c0-5,5-10,10-10h84c3.3,0,6,2.7,6,6v24
			c0,3.3,2.7,6,6,6h24c3.3,0,6,2.7,6,6v104C-77-5231.1-82-5226.1-87-5226.1"/>
	</g>
	<g id="Imported-Layers-2_3_" transform="translate(42.000000, 68.000000)" sketch:type="MSShapeGroup">
		<path id="Fill-1_36_" class="st4" d="M-177.8-5374.1h-32.4c-1.6,0-2.8-1.3-2.8-2.8v-2.4c0-1.6,1.3-2.8,2.8-2.8h32.4
			c1.6,0,2.8,1.3,2.8,2.8v2.4C-175-5375.4-176.3-5374.1-177.8-5374.1"/>
		<path id="Fill-2_35_" class="st4" d="M-177.8-5360.1h-32.4c-1.6,0-2.8-1.3-2.8-2.8v-2.4c0-1.6,1.3-2.8,2.8-2.8h32.4
			c1.6,0,2.8,1.3,2.8,2.8v2.4C-175-5361.4-176.3-5360.1-177.8-5360.1"/>
		<path id="Fill-3_8_" class="st4" d="M-189.8-5346.1h-20.4c-1.6,0-2.8-1.3-2.8-2.8v-2.4c0-1.6,1.3-2.8,2.8-2.8h20.4
			c1.6,0,2.8,1.3,2.8,2.8v2.4C-187-5347.4-188.3-5346.1-189.8-5346.1"/>
		<path id="Fill-4_8_" class="st4" d="M-167-5350.1c0,2.2-3.1,4-7,4s-7-1.8-7-4s3.1-4,7-4S-167-5352.3-167-5350.1"/>
	</g>
	<path id="Imported-Layers_40_" sketch:type="MSShapeGroup" class="st4" d="M-125-5282.1v-20c0-1.6,2-4,4.9-1
		c1.8,1.8,2.5,4.3,1.6,6.7c-0.4,0.8,0.3,1.1,0.7,0.7c0.8-1,0.8-3.9,0.8-5.4c0-3.2-1.8-4.7-4-7c-2.1-2.2-6-6-6-6v30L-125-5282.1"/>
</g>
<g id="Imported-Layers-_x2B_-Imported-Layers_15_" transform="translate(16.000000, 4543.000000)" sketch:type="MSLayerGroup">
	<g id="Imported-Layers_41_">
	</g>
	<g id="Imported-Layers_42_" transform="translate(38.000000, 56.000000)" sketch:type="MSShapeGroup">
		<path id="Fill-1_37_" class="st4" d="M-213-5381.1c3.3-0.6,7.6-1,14-1c6.5,0,10.8,1.1,13.9,3.7c3,2.5,5,6.5,5,11.3
			c0,4.8-1.5,8.9-4.3,11.6c-3.6,3.6-8.4,5.3-14.6,5.3h-4v18h-10V-5381.1L-213-5381.1z M-203-5359.1c0.9,0.2,1.8,0.3,3.3,0.3
			c5.6,0,9.1-3,9.1-8c0-4.5-3-7.2-8.2-7.2c-2.1,0-3.4,0.6-4.2,0.8V-5359.1L-203-5359.1z"/>
		<path id="Fill-2_36_" class="st4" d="M-176.8-5342c1.9,1.2,6,2.6,9.1,2.6c3.2,0,4.5-1.1,4.5-2.8c0-1.7-1-2.6-5-3.9
			c-7-2.4-9.7-6.2-9.6-10.2c0-6.3,5.4-11.1,13.8-11.1c4,0,7.5,0.9,9.6,1.9l-1.9,7.3c-1.5-0.8-4.4-1.9-7.4-1.9c-2.6,0-4,1-4,2.8
			c0,1.6,1.3,2.4,5.5,3.9c6.4,2.2,9.1,5.5,9.2,10.5c0,6.3-5,11-14.7,11c-4.4,0-8.4-1-11-2.4L-176.8-5342"/>
	</g>
</g>
<g id="Imported-Layers-_x2B_-Imported-Layers_16_" transform="translate(48.000000, 4833.000000)" sketch:type="MSLayerGroup">
	<path id="Imported-Layers_43_" sketch:type="MSShapeGroup" class="st4" d="M-190.9-5343.9c2.1-4,4.4-8.5,6.3-13l0.7-1.8
		c-2.5-9.2-4-16.6-2.6-21.4c0.4-1.2,1.8-2,3.4-2l1,0h0.2c2.2,0,3.2,2.7,3.3,3.7c0.2,1.7-0.6,4.7-0.6,4.7c0-1.2,0-3.1-0.7-4.8
		c-0.9-1.9-1.7-3.1-2.5-3.3c-0.4,0.3-0.8,0.8-0.9,1.8c-0.3,1.4-0.3,3.2-0.3,4.1c0,3.2,0.7,7.5,1.9,11.9c0.2-0.7,0.5-1.3,0.6-2
		c0.3-1,1.9-7.4,1.9-7.4s-0.4,8.6-1,11.1c-0.1,0.5-0.3,1.1-0.4,1.6c2.1,5.8,5.5,10.9,9.6,14.7c1.6,1.5,3.6,2.6,5.5,3.7
		c4.2-0.6,8-0.9,11.2-0.8c4.3,0.1,7.4,0.7,8.6,1.9c0.6,0.6,0.9,1.3,0.9,2.1c0,0.3-0.1,1-0.2,1.2c0-0.2,0-1.3-3.4-2.4
		c-2.7-0.8-7.7-0.8-13.8-0.2c7,3.4,13.8,5,16,4c0.5-0.3,1.2-1.1,1.2-1.1s-0.4,1.7-0.7,2.1c-0.3,0.5-1,1-1.7,1.1
		c-3.4,0.9-12.3-1.2-20-5.5c-8.6,1.2-18.1,3.6-25.7,6c-7.5,12.8-13.1,18.8-17.7,16.5l-1.7-0.8c-0.7-0.4-0.8-1.3-0.6-2.1
		c0.5-2.6,3.8-6.4,10.4-10.3c0.7-0.4,3.9-2.1,3.9-2.1c0,0-2.3,2.2-2.9,2.6c-5.2,4.2-9.1,9.5-9,11.6l0,0.2
		C-206.1-5318.5-199.4-5327.4-190.9-5343.9 M-188.1-5342.5c-1.4,2.6-2.8,5.1-4.1,7.4c7.2-2.9,14.9-4.8,22.2-6.2
		c-1-0.7-1.9-1.4-2.8-2.1c-4-3.4-7.1-7.5-9.4-11.9C-183.7-5351.6-185.4-5347.7-188.1-5342.5"/>
</g>
<path id="Fill-1_38_" sketch:type="MSShapeGroup" class="st1" d="M-200-213.9v-134.3c0-7.6,6.2-13.8,13.8-13.8h84.4
	c3.7,0,7.2,1.5,9.8,4l30,30.1c2.6,2.6,4,6.1,4,9.8v104.3c0,7.6-6.2,13.8-13.8,13.8h-114.4C-193.8-200.1-200-206.3-200-213.9z"/>
<path id="Fill-1_39_" sketch:type="MSShapeGroup" class="st1" d="M-200,26.1v-134.3c0-7.6,6.2-13.8,13.8-13.8h84.4
	c3.7,0,7.2,1.5,9.8,4L-62-88c2.6,2.6,4,6.1,4,9.8V26.1c0,7.6-6.2,13.8-13.8,13.8h-114.4C-193.8,39.9-200,33.7-200,26.1z"/>
<path id="Fill-1_40_" sketch:type="MSShapeGroup" class="st1" d="M-200,266.1V131.7c0-7.6,6.2-13.8,13.8-13.8h84.4
	c3.7,0,7.2,1.5,9.8,4l30,30.1c2.6,2.6,4,6.1,4,9.8v104.3c0,7.6-6.2,13.8-13.8,13.8h-114.4C-193.8,279.9-200,273.7-200,266.1z"/>
<path id="Fill-1_41_" sketch:type="MSShapeGroup" class="st1" d="M-200,506.1V371.7c0-7.6,6.2-13.8,13.8-13.8h84.4
	c3.7,0,7.2,1.5,9.8,4l30,30.1c2.6,2.6,4,6.1,4,9.8v104.3c0,7.6-6.2,13.8-13.8,13.8h-114.4C-193.8,519.9-200,513.7-200,506.1z"/>
<path id="Fill-1_42_" sketch:type="MSShapeGroup" class="st1" d="M-200,746.1V611.7c0-7.6,6.2-13.8,13.8-13.8h84.4
	c3.7,0,7.2,1.5,9.8,4l30,30.1c2.6,2.6,4,6.1,4,9.8v104.3c0,7.6-6.2,13.8-13.8,13.8h-114.4C-193.8,759.9-200,753.7-200,746.1z"/>
<path id="Fill-1_43_" sketch:type="MSShapeGroup" class="st1" d="M-200,986.1V851.7c0-7.6,6.2-13.8,13.8-13.8h84.4
	c3.7,0,7.2,1.5,9.8,4l30,30.1c2.6,2.6,4,6.1,4,9.8v104.3c0,7.6-6.2,13.8-13.8,13.8h-114.4C-193.8,999.9-200,993.7-200,986.1z"/>
<path id="Fill-1_44_" sketch:type="MSShapeGroup" class="st1" d="M-200,1226.1v-134.3c0-7.6,6.2-13.8,13.8-13.8h84.4
	c3.7,0,7.2,1.5,9.8,4l30,30.1c2.6,2.6,4,6.1,4,9.8v104.3c0,7.6-6.2,13.8-13.8,13.8h-114.4C-193.8,1239.9-200,1233.7-200,1226.1z"/>
<path id="Fill-2_37_" sketch:type="MSShapeGroup" class="st0" d="M-187-203.1c-5,0-10-5-10-10v-136c0-5,5-10,10-10h84
	c3.3,0,6,2.7,6,6v24c0,3.3,2.7,6,6,6h24c3.3,0,6,2.7,6,6v104c0,5-5,10-10,10H-187z"/>
<g id="Imported-Layers_45_" transform="translate(13.000000, 5263.000000)" sketch:type="MSLayerGroup">
	<path id="Fill-1_45_" sketch:type="MSShapeGroup" class="st1" d="M-213-3796.9v-134.3c0-7.6,6.2-13.8,13.8-13.8h84.4
		c3.7,0,7.2,1.5,9.8,4.1l30,30.1c2.6,2.6,4,6.1,4,9.8v104.3c0,7.6-6.2,13.8-13.8,13.8h-114.4C-206.8-3783.1-213-3789.3-213-3796.9z"
		/>
	<path id="Fill-2_38_" sketch:type="MSShapeGroup" class="st0" d="M-200-5226.1c-5,0-10-5-10-10v-136c0-5,5-10,10-10h84
		c3.3,0,6,2.7,6,6v24c0,3.3,2.7,6,6,6h24c3.3,0,6,2.7,6,6v104c0,5-5,10-10,10H-200z"/>
</g>
<g id="Imported-Layers_46_" transform="translate(13.000000, 6940.000000)" sketch:type="MSLayerGroup" class="st16">
	<path id="Fill-1_46_" sketch:type="MSShapeGroup" class="st17" d="M-213-5233.9v-134.3c0-7.6,6.2-13.8,13.8-13.8h84.4
		c3.7,0,7.2,1.5,9.8,4l30,30.1c2.6,2.6,4,6.1,4,9.8v104.3c0,7.6-6.2,13.8-13.8,13.8h-114.4C-206.8-5220.1-213-5226.3-213-5233.9z"/>
	<path id="Fill-1_47_" sketch:type="MSShapeGroup" class="st17" d="M-213-4993.9v-134.3c0-7.6,6.2-13.8,13.8-13.8h84.4
		c3.7,0,7.2,1.5,9.8,4l30,30.1c2.6,2.6,4,6.1,4,9.8v104.3c0,7.6-6.2,13.8-13.8,13.8h-114.4C-206.8-4980.1-213-4986.3-213-4993.9z"/>
	<path id="Fill-1_48_" sketch:type="MSShapeGroup" class="st17" d="M-213-4273.9v-134.3c0-7.6,6.2-13.8,13.8-13.8h84.4
		c3.7,0,7.2,1.5,9.8,4l30,30.1c2.6,2.6,4,6.1,4,9.8v104.3c0,7.6-6.2,13.8-13.8,13.8h-114.4C-206.8-4260.1-213-4266.3-213-4273.9z"/>
	<path id="Fill-1_49_" sketch:type="MSShapeGroup" class="st17" d="M-213-4033.9v-134.3c0-7.6,6.2-13.8,13.8-13.8h84.4
		c3.7,0,7.2,1.5,9.8,4l30,30.1c2.6,2.6,4,6.1,4,9.8v104.3c0,7.6-6.2,13.8-13.8,13.8h-114.4C-206.8-4020.1-213-4026.3-213-4033.9z"/>
	<path id="Fill-1_50_" sketch:type="MSShapeGroup" class="st17" d="M-213-3793.9v-134.3c0-7.6,6.2-13.8,13.8-13.8h84.4
		c3.7,0,7.2,1.5,9.8,4.1l30,30.1c2.6,2.6,4,6.1,4,9.8v104.3c0,7.6-6.2,13.8-13.8,13.8h-114.4C-206.8-3780.1-213-3786.3-213-3793.9z"
		/>
	<path id="Fill-1_51_" sketch:type="MSShapeGroup" class="st17" d="M-213-3313.9v-134.3c0-7.6,6.2-13.8,13.8-13.8h84.4
		c3.7,0,7.2,1.5,9.8,4.1l30,30.1c2.6,2.6,4,6.1,4,9.8v104.3c0,7.6-6.2,13.8-13.8,13.8h-114.4C-206.8-3300.1-213-3306.3-213-3313.9z"
		/>
	<path id="Fill-1_52_" sketch:type="MSShapeGroup" class="st17" d="M-213-3073.9v-134.3c0-7.6,6.2-13.8,13.8-13.8h84.4
		c3.7,0,7.2,1.5,9.8,4.1l30,30.1c2.6,2.6,4,6.1,4,9.8v104.3c0,7.6-6.2,13.8-13.8,13.8h-114.4C-206.8-3060.1-213-3066.3-213-3073.9z"
		/>
	<path id="Fill-1_53_" sketch:type="MSShapeGroup" class="st17" d="M-213-2833.9v-134.3c0-7.6,6.2-13.8,13.8-13.8h84.4
		c3.7,0,7.2,1.5,9.8,4.1l30,30.1c2.6,2.6,4,6.1,4,9.8v104.3c0,7.6-6.2,13.8-13.8,13.8h-114.4C-206.8-2820.1-213-2826.3-213-2833.9z"
		/>
	<path id="Fill-1_54_" sketch:type="MSShapeGroup" class="st17" d="M-213-2353.9v-134.3c0-7.6,6.2-13.8,13.8-13.8h84.4
		c3.7,0,7.2,1.5,9.8,4.1l30,30.1c2.6,2.6,4,6.1,4,9.8v104.3c0,7.6-6.2,13.8-13.8,13.8h-114.4C-206.8-2340.1-213-2346.3-213-2353.9z"
		/>
	<path id="Fill-1_55_" sketch:type="MSShapeGroup" class="st17" d="M-213-2113.9v-134.3c0-7.6,6.2-13.8,13.8-13.8h84.4
		c3.7,0,7.2,1.5,9.8,4.1l30,30.1c2.6,2.6,4,6.1,4,9.8v104.3c0,7.6-6.2,13.8-13.8,13.8h-114.4C-206.8-2100.1-213-2106.3-213-2113.9z"
		/>
	<path id="Fill-1_56_" sketch:type="MSShapeGroup" class="st17" d="M-213-1873.9v-134.3c0-7.6,6.2-13.8,13.8-13.8h84.4
		c3.7,0,7.2,1.5,9.8,4.1l30,30.1c2.6,2.6,4,6.1,4,9.8v104.3c0,7.6-6.2,13.8-13.8,13.8h-114.4C-206.8-1860.1-213-1866.3-213-1873.9z"
		/>
	<path id="Fill-1_57_" sketch:type="MSShapeGroup" class="st17" d="M-213-1633.9v-134.3c0-7.6,6.2-13.8,13.8-13.8h84.4
		c3.7,0,7.2,1.5,9.8,4.1l30,30.1c2.6,2.6,4,6.1,4,9.8v104.3c0,7.6-6.2,13.8-13.8,13.8h-114.4C-206.8-1620.1-213-1626.3-213-1633.9z"
		/>
</g>
<g id="Imported-Layers_47_" transform="translate(16.000000, 5083.000000)" sketch:type="MSLayerGroup">
	<path id="Fill-1_58_" sketch:type="MSShapeGroup" class="st18" d="M-121-5382.1h-6v6h-6v12h-6v-6h-6v-6h-6v12h-6v-12h-6v-6h-6v12
		h-6v6h-6v6h-32v6h32v6h6v6h6v12h6v-6h6v-12h6v12h6v-6h6v-6h6v12h6v6h6v-12h6v-6h6v-6h32v-6h-32v-6h-6v-6h-6V-5382.1"/>
	<path id="Fill-2_39_" sketch:type="MSShapeGroup" class="st4" d="M-109-5358.1h-6v-6h-6v-12h-6v6h-6v12h-6v-6h-6v-6h-6v12h-6v-12
		h-6v-6h-6v12h-6v6h-22v6h22v6h6v12h6v-6h6v-12h6v12h6v-6h6v-6h6v12h6v6h6v-12h6v-6h22v-6H-109"/>
</g>
<g id="Imported-Layers-_x2B_-Imported-Layers_17_" transform="translate(16.000000, 5263.000000)" sketch:type="MSLayerGroup">
	<g id="Imported-Layers_48_" sketch:type="MSShapeGroup">
		<path id="Fill-2_40_" class="st0" d="M-87-5226.1h-116c-5,0-10-5-10-10v-136c0-5,5-10,10-10h84c3.3,0,6,2.7,6,6v24
			c0,3.3,2.7,6,6,6h24c3.3,0,6,2.7,6,6v104C-77-5231.1-82-5226.1-87-5226.1"/>
	</g>
	<g id="Imported-Layers_49_" transform="translate(42.000000, 48.000000)" sketch:type="MSShapeGroup">
		<path id="Fill-1_59_" class="st4" d="M-194.8-5320.5h12.1c0.2,0,1.4-1.4,1.5-1.5c5.8-4.1,10.6-13.3,10.6-21.1c0-1.3-1.9-3-3-3
			h-31.2c-1.1,0-2,1.7-2,3c0,7.9,4.7,17,10.6,21.1C-196.2-5321.9-195-5320.5-194.8-5320.5"/>
		<path id="Fill-2_41_" class="st4" d="M-192.3-5352.9c0,0-5.2-3.1-5.2-8.3c0-5.2,7.3-6.2,7.3-11.4c0-5.2-5.2-6.2-5.2-6.2
			s9.4-1,9.4,6.2S-200.6-5364.3-192.3-5352.9"/>
		<path id="Fill-3_9_" class="st4" d="M-182.5-5347.7c0,0-6.6-4-6.6-10.6c0-6.6,9.3-8,9.3-14.6c0-6.6-6.6-8-6.6-8s11.9-1.3,11.9,8
			C-174.6-5363.7-193.1-5362.4-182.5-5347.7"/>
		<path id="Fill-4_9_" class="st4" d="M-166.2-5343.1c3.9,0,5.7,4.8,2.8,7.3c-2.1,1.8-5.6,4-9.9,4c-11.7,0,0.5-11.3,0.5-11.3H-166.2
			 M-166.2-5346.1h-7.8l-0.9,0.8c-2.4,2.2-7.7,7.8-5.9,12.4c1,2.5,3.3,4.1,7.5,4.1c4.3,0,8.6-1.8,11.9-4.7c2.3-2,3-5.1,2-7.9
			C-160.6-5344.3-163.2-5346.1-166.2-5346.1"/>
		<path id="Fill-5_5_" class="st4" d="M-166.9-5318.1h-44c-2.1,0-2.3,2,0,2h10c2.7,0,5.6,1.4,6,2h12c0.4-0.6,3.3-2,6-2h10
			C-164.6-5316.1-164.7-5318.1-166.9-5318.1"/>
	</g>
</g>
<g id="Imported-Layers_50_" sketch:type="MSShapeGroup">
	<path id="Fill-2_42_" class="st0" d="M-71,276.9h-116c-5,0-10-5-10-10v-136c0-5,5-10,10-10h84c3.3,0,6,2.7,6,6v24c0,3.3,2.7,6,6,6
		h24c3.3,0,6,2.7,6,6v104C-61,271.9-66,276.9-71,276.9"/>
</g>
<g id="Imported-Layers_51_" transform="translate(46.000000, 56.000000)" sketch:type="MSShapeGroup">
	<path id="Fill-1_60_" class="st4" d="M-196.9,126.9h9.9v44h-9.9C-196.9,170.9-196.9,126.9-196.9,126.9z"/>
	<path id="Fill-2_43_" class="st4" d="M-164.7,170.9c-10.1,0-16.3-6-16.3-17.1c0-10.7,5.9-17.3,14.6-17.3c2,0,4.4,0.3,5.4,1.3v-16.9
		h8v47.9C-156,170.4-158.9,170.9-164.7,170.9L-164.7,170.9z M-161,142.8c-1-1-2.2-0.9-3.2-0.9c-5.3,0-7.4,4.6-7.4,11.5
		c0,7.2,2.2,11.4,7.1,11.4c1.3,0,2.5,0,3.5-1V142.8L-161,142.8z"/>
</g>
<g id="Imported-Layers-_x2B_-Imported-Layers_19_" transform="translate(16.000000, 5743.000000)" sketch:type="MSLayerGroup">
	<g id="Imported-Layers_52_" sketch:type="MSShapeGroup">
		<path id="Fill-2_44_" class="st0" d="M-87-5226.1h-116c-5,0-10-5-10-10v-136c0-5,5-10,10-10h84c3.3,0,6,2.7,6,6v24
			c0,3.3,2.7,6,6,6h24c3.3,0,6,2.7,6,6v104C-77-5231.1-82-5226.1-87-5226.1"/>
	</g>
	<g id="Imported-Layers_53_" transform="translate(34.000000, 62.000000)" sketch:type="MSShapeGroup">
		<path id="Fill-1_61_" class="st4" d="M-152-5376.1h-12l-3.1-3.1c-1.6-1.7-4.6-2.9-6.9-2.9h-10c-2.3,0-5.2,1.2-6.8,2.9l-3.2,3.1
			h-12c-4.6,0-7,3.3-7,8v28c0,4.7,3.4,6,8,6h52c4.6,0,8-1.3,8-6v-28C-145-5372.8-147.4-5376.1-152-5376.1L-152-5376.1z M-179-5340.1
			c-9.4,0-17-7.6-17-17s7.6-17,17-17c9.4,0,17,7.6,17,17S-169.6-5340.1-179-5340.1L-179-5340.1z M-154-5366.1c-1.7,0-3-1.3-3-3
			c0-1.7,1.3-3,3-3s3,1.3,3,3C-151-5367.5-152.3-5366.1-154-5366.1L-154-5366.1z"/>
		<path id="Fill-2_45_" class="st4" d="M-179-5370.1c-7.2,0-13,5.8-13,13s5.8,13,13,13s13-5.8,13-13S-171.8-5370.1-179-5370.1"/>
	</g>
</g>
<g id="Imported-Layers-_x2B_-Imported-Layers_20_" transform="translate(16.000000, 5983.000000)" sketch:type="MSLayerGroup">
	<g id="Imported-Layers_54_" sketch:type="MSShapeGroup">
		<path id="Fill-2_46_" class="st0" d="M-87-5226.1h-116c-5,0-10-5-10-10v-136c0-5,5-10,10-10h84c3.3,0,6,2.7,6,6v24
			c0,3.3,2.7,6,6,6h24c3.3,0,6,2.7,6,6v104C-77-5231.1-82-5226.1-87-5226.1"/>
	</g>
	<g id="Imported-Layers_55_" transform="translate(42.000000, 58.000000)" sketch:type="MSShapeGroup">
		<path id="Fill-1_62_" class="st4" d="M-200.2-5345.3l-3,13.1h-9.8l13-49.9h12.4l12.7,49.9h-10.2l-3.2-13.1H-200.2L-200.2-5345.3z
			 M-189.6-5352.9l-2.6-10.3c-0.7-2.9-1.5-6.5-2.1-9.4h-0.1c-0.6,2.9-1.2,6.6-1.9,9.4l-2.5,10.3H-189.6L-189.6-5352.9z"/>
		<path id="Fill-2_47_" class="st4" d="M-166.7-5366.1h7.7v33.9h-7.7V-5366.1z"/>
		<path id="Fill-3_10_" class="st4" d="M-159-5374.1c0,2.2-1.8,4-4,4c-2.2,0-4-1.8-4-4s1.8-4,4-4
			C-160.8-5378.1-159-5376.3-159-5374.1"/>
	</g>
</g>
<g id="Imported-Layers-_x2B_-Imported-Layers_21_" transform="translate(16.000000, 6223.000000)" sketch:type="MSLayerGroup">
	<g id="Imported-Layers_56_" sketch:type="MSShapeGroup">
		<path id="Fill-2_48_" class="st0" d="M-87-5226.1h-116c-5,0-10-5-10-10v-136c0-5,5-10,10-10h84c3.3,0,6,2.7,6,6v24
			c0,3.3,2.7,6,6,6h24c3.3,0,6,2.7,6,6v104C-77-5231.1-82-5226.1-87-5226.1"/>
	</g>
	<g id="Imported-Layers_57_" transform="translate(32.000000, 48.000000)" sketch:type="MSShapeGroup">
		<path id="Fill-1_63_" class="st4" d="M-141-5346.1c0-19.9-16.1-36-36-36s-36,16.1-36,36s16.1,36,36,36S-141-5326.2-141-5346.1"/>
		<path id="Fill-2_49_" class="st0" d="M-163.7-5351.6l1.6-0.8l0.8-1.2l-2.9-1.3l-0.6-2.3l-0.9,1.4l1.3,2L-163.7-5351.6"/>
		<path id="Fill-3_11_" class="st0" d="M-166.8-5353c0,0,0.8,1.5,1.1,1.5c0.3,0,1-1,1-1l-1.4-1.6L-166.8-5353"/>
		<path id="Fill-4_10_" class="st0" d="M-145.1-5344.3c0.2,0.3,0.7,2.6,0.7,2.6l0.6,0.7c0,0,0.7-5.5,0.6-6.3
			c-0.1-0.8-0.6-4.9-0.7-5.2c-0.1-0.3-0.9-4.5-1.6-5.9c-0.6-1.4-3.6-7.8-6.7-10.7c-3.1-3-5.4-4-5.4-4c0.1,0.3,0.3,1.6,0.4,2.2
			c0.1,0.2,0.2,0.4,0.2,0.7l0.7,1.2c0,0-0.6,1.1-0.4,1.1c0.3,0,0.9,2.2,0.9,2.2l-0.6,1l-1.2-2.6l-1.5,0.2l-1.6-0.8l-0.8,1.2
			c-0.4,0.6-0.5,1.3-0.2,1.9l0.3,0.7c0.2,0.4,0.2,0.8,0.1,1.2l-0.6,2.8c-0.2,0.8,0.1,1.6,0.8,2.1l0.5,0.4l1.4-0.7l1.4,1.6v-2.7
			c0-0.1,0-0.3,0-0.4l-0.9-4.1l1.9,3.4l1.8-0.5l-0.9,1.3c-0.2,0.3-0.3,0.7-0.3,1.1v0.9c0,0.7-0.4,1.4-1.1,1.8l-0.6,0.3l-0.3-1
			l-0.9-0.7l-0.3,1c0,0,0.5,0.6,0.8,1.2l-0.3,0.2c-0.2,0.1-0.4,0.3-0.5,0.5l-1.3,2c-0.1,0.2-0.3,0.3-0.4,0.4l0,0
			c-1.1,0.7-1.3,2.2-0.4,3.1l0.2,0.2l-0.2,1.4l-2.2,0.2c-0.8,0.1-1.3,0.7-1.3,1.5c0.1,1.1,0.2,2.3,0.4,2.3c0.2,0,0.9,0.1,1.3,0.1
			c0.3,0,0.6,0,0.9-0.2c0.5-0.3,1.2-0.8,1.4-1.2c0.3-0.6,0.8-3.4,0.8-3.4l1.7-0.2c0,0,1.1-0.6,1.3-0.8c0.2-0.3,2,0.2,2.4,0.3
			c0.4,0.1,1.3,1.9,1.3,1.9l0.5-1.4l-1.7-1.3l1.5-0.6l1.5,2l1.2,0.6l-0.1-1.8c0-0.2,0-0.4,0.1-0.6l0.6-2.3c0-0.1,0-0.1,0.1-0.2
			l0.6-1.8l1.3,0.6l0.7,0.7l-1.5,1.3c-0.5,0.5-0.8,1.1-0.7,1.8l0.2,1.8l1.9-0.8l0.5,1.6l-0.8,1.3l-3.5,1.3c0,0-0.1,0-0.1,0
			c-0.4,0.2-2.4,1.2-2.4,0.9c0-0.1-0.3-0.5-0.8-0.9c-0.5-0.5-1.3-0.7-2-0.5l-2.1,0.6c-0.1,0-0.2,0.1-0.2,0.1l-2.9,1.2
			c-0.3,0.1-0.6,0.3-0.8,0.6l-5.2,6.4c-0.3,0.4-0.5,0.8-0.5,1.3l0.1,4.2c0,0.9,0.6,1.7,1.4,1.9l3.3,1.1c0.4,0.1,0.8,0.1,1.1,0.1
			l4.1-1c0,0,1.5,0.9,1.5,1.2c0,0.3-0.6,3.8-0.6,4.1c0,0.2,0,1.2,0.1,1.9c0,0.5-0.1,1-0.4,1.3l-0.5,0.7c0,0,0,0.1-0.1,0.1l-1.7,1.9
			c0,0,5.9-3,10.7-10.2c4.7-7.2,5-10.3,5.1-10.7c0.1-0.4-0.5-2.6-0.6-3.1c0-0.1,0-0.1-0.1-0.2l-1.3-3.1
			C-146.2-5344.5-145.3-5344.5-145.1-5344.3"/>
		<path id="Fill-5_6_" class="st0" d="M-173.6-5360.6l0.8,2.2l2.1-1l-0.2-1.7C-170.8-5361-173.3-5360.6-173.6-5360.6"/>
		<path id="Fill-6_3_" class="st0" d="M-164.9-5370.9l-1.5-0.3l0.7-0.4l-0.2-1l-0.9,0.1l-0.8,1.9l1.4,1.3L-164.9-5370.9"/>
		<path id="Fill-7_3_" class="st0" d="M-196.5-5334.9c0.2-0.1,1.5-1.1,1.5-1.1l-1-1.5l-1.4-0.9l-1-0.2l0.4,0.9l1.6,1.4
			C-196.3-5336.3-196.7-5334.9-196.5-5334.9"/>
		<path id="Fill-8_3_" class="st0" d="M-194.9-5332.4l-1-1.2l-0.9-0.1l-0.5,0.7l1.7,0.4L-194.9-5332.4"/>
		<path id="Fill-9_3_" class="st0" d="M-181-5380.1c-0.9,0-7.7,3.2-8.2,3.4c-0.6,0.2-5.2,4.1-5.2,4.1l4.1,0.2c0,0-0.6,1.8-1.1,3
			c-0.3,0.3-0.7,0.4-1.1,0.5l-1.9,0.1v1.7l-2.1-0.8c-0.6-0.2-1-0.7-1.2-1.3l-0.3-1.3c-0.1-0.2-0.1-0.5,0-0.7
			c0.1-0.7,0.9-1.8,0.7-1.7c-0.3,0.2-5.7,5.3-6.4,6.4c-0.7,1.1-0.9,1.8-1.7,2.7c-0.8,0.9-3.2,6.9-3.2,7.2c0,0.2-0.4,1.1-0.7,1.6
			c-0.1,0.3-0.2,0.5-0.2,0.8l0.1,2c0,0-0.4,1.3-0.6,1.6c-0.2,0.3-0.3,1.1,0,1.4c0.2,0.2,0.2,2.6,0.2,3.3c0,0.1,0,0.3,0,0.4
			c0.1,0.7,0.6,3,0.7,3.2c0.1,0.3,0.5,3,0.5,3s0.6,1.3,1.1,1.4c0.4,0.1,1.1,1.2,1.4,1.6c0.1,0.1,0.2,0.3,0.3,0.4
			c0.2,0.1,0.4,0.4,0.7,0.6c0.6,0.7,1.3,1.3,1.3,1.3c0,0.2,0.3,1,0.5,1.5c0.2,0.4,0.5,0.8,0.9,1l1.3,0.7l1.3,0.7l-0.1,0.1l0.1,0.2
			c0.5,0.8,0.5,1.8-0.1,2.7c-0.4,0.6-0.5,1.3-0.3,1.9c0.2,0.9,0.5,1.9,0.7,2c0.3,0.1,2.8,2,3.1,2.2c0.3,0.2,1.9,3,2.3,3.1
			c0.4,0.1,3.8,2,3.8,2s0.6,0.1,0.8,0.1s4.8,1.4,4.8,1.4l0.3-0.4c0.1,0,0.2,0,0.3,0c1.6,0.2,7.3,1.1,7.3,1.1l-2-0.6l-1.6-1.1
			c0,0-0.4-1.1-0.7-1.5c-0.4-0.4,1.5-1.6,1.5-1.6s1.9-1.8,2-2.1c0.1-0.3,0.4-2.1,0.4-2.1l-1.5-2.4c0,0-2.3-1.3-2.7-1.3
			c-0.4,0-2.9-1.7-3.3-1.9c-0.5-0.2-2.1-1.5-2.6-1.5c-0.5-0.1-3.9-0.7-4.3-0.7c-0.4-0.1-5.7-1-6.3-1.1l-1.3,0.5l-0.3,0.4l-1.7-1.1
			c-0.2-0.1-0.3-0.3-0.4-0.4l0.4-0.5c0,0-0.4-1-0.7-1.1c-0.4-0.1-0.9-1.4-0.9-1.4s0.8-1.2-0.2-1.5c-1-0.3-1.9-0.5-1.9-0.7
			c0-0.3-0.4-1.5-0.4-1.9c0-0.4-0.3-1.4-0.3-1.7c0-0.3-0.1-1.2-0.1-1.6c0-0.4,0.5-1.1,0.5-1.1l1.2-0.6c0,0,1.8-0.2,2-0.1
			c0.3,0.1,1.5,0.9,1.8,1.2c0.3,0.3,1.5,2.1,1.5,2.1l0.7,1.6l0.8-0.8c0,0-0.6-0.7-0.6-1c0-0.3,0.3-0.5,0.6-1
			c0.3-0.6,0.1-0.8,0.8-0.9c0.7-0.1,2-0.5,2-0.5s0.9-0.6,0.9-0.9c0-0.3,1.5-0.9,1.5-0.9l1.4-0.5l0.8-1.3c0,0,0.6-0.4,0.7-0.8
			l2.8,0.7l0.6-3.5l0.2-2.8l-2.2-3l0.6-2.8c0,0-1.2-1.7-1.8-2.9c0.5,0.1,1.5,0.4,1.5,0.4l-0.1-0.2c0.3,0.5,0.9,1.3,0.9,1.3
			s0.6-0.6,0.7-0.3c0.1,0.2,0.9,0.1,1.4,0.2l0.3,0.2c0.2,0.3,1,1.4,1.2,1.8l0.3,1.2l1.7-0.9l2.1-1l2.5-2.8l3.4-3l0.2-2.6
			c0,0-1-2.4-0.7-2.5c0.3-0.1,2-3.2,2-3.2l-1.7-0.4l1.3-1.8l2.1-0.9c0,0-2.3-3.2-3.1-3.2L-181-5380.1L-181-5380.1z M-187.8-5362.6
			l-0.4-1.5c0-0.1-0.1-0.2-0.1-0.4l-0.8-1.7c0,0,0.6-1.6,0.8-1.8c0.2-0.1,0.2-0.7,0.3-1.1c0.3,0.1,0.6,0.1,0.6,0.2
			c0,0.2,0,2.5,0.1,2.8C-187.2-5365.6-187.6-5363-187.8-5362.6L-187.8-5362.6z"/>
		<path id="Fill-10_2_" class="st4" d="M-188.2-5370l-1.4,1.4c0,0-0.6,1.5-0.6,1.8c0.1,0.2-1.2,1.1-1.2,1.1l-0.7,1.3
			c0,0,0,1.9-0.2,1.7c-0.2-0.1-1.1,0.8-1.2,0.8c-0.2,0-1.6,1.1-1.6,1.1l0.5,3.5l1.8,1.7c0,0,2.5-2.2,2.5-2.4
			c0.1-0.2,0.9-2.8,0.9-2.8l0.9-0.5l1.3,0.2c0,0,0.9-1.6,0.8-1.8c-0.1-0.2-0.8-2.8-0.8-3.1v-3.8l0.1-0.9l-1.2,0.6"/>
		<path id="Fill-11_1_" class="st4" d="M-213-5382.1"/>
	</g>
</g>
<g id="Imported-Layers-_x2B_-Imported-Layers_22_" transform="translate(16.000000, 6463.000000)" sketch:type="MSLayerGroup">
	<g id="Imported-Layers_58_" sketch:type="MSShapeGroup">
		<path id="Fill-2_50_" class="st0" d="M-87-5226.1h-116c-5,0-10-5-10-10v-136c0-5,5-10,10-10h84c3.3,0,6,2.7,6,6v24
			c0,3.3,2.7,6,6,6h24c3.3,0,6,2.7,6,6v104C-77-5231.1-82-5226.1-87-5226.1"/>
	</g>
	<g id="Imported-Layers_59_" transform="translate(28.000000, 56.000000)" sketch:type="MSShapeGroup">
		<path id="Fill-1_64_" class="st4" d="M-148-5358.1l-30.2,30.8l-11.8-11.8l-23,21v8h80v-38L-148-5358.1"/>
		<path id="Fill-2_51_" class="st4" d="M-177-5371.1c0,6.1-4.9,11-11,11s-11-4.9-11-11s4.9-11,11-11S-177-5377.2-177-5371.1"/>
	</g>
</g>
<g id="Imported-Layers-_x2B_-Imported-Layers_23_" transform="translate(16.000000, 6703.000000)" sketch:type="MSLayerGroup">
	<g id="Imported-Layers_60_" sketch:type="MSShapeGroup">
		<path id="Fill-2_52_" class="st0" d="M-87-5226.1h-116c-5,0-10-5-10-10v-136c0-5,5-10,10-10h84c3.3,0,6,2.7,6,6v24
			c0,3.3,2.7,6,6,6h24c3.3,0,6,2.7,6,6v104C-77-5231.1-82-5226.1-87-5226.1"/>
	</g>
	<path id="Imported-Layers_61_" sketch:type="MSShapeGroup" class="st4" d="M-145-5328.1c-11,0-20,9-20,20s20,40,20,40s20-29,20-40
		S-134-5328.1-145-5328.1L-145-5328.1z M-145-5297.2c-6,0-10.9-4.9-10.9-10.9s4.9-10.9,10.9-10.9c6,0,10.9,4.9,10.9,10.9
		S-139-5297.2-145-5297.2L-145-5297.2z"/>
</g>
<g id="Imported-Layers_62_" transform="translate(16.000000, 6943.000000)" sketch:type="MSLayerGroup">
	<g id="Fill-2_53_" sketch:type="MSShapeGroup">
		<path class="st0" d="M-87-5226.1h-116c-5,0-10-5-10-10v-136c0-5,5-10,10-10h84c3.3,0,6,2.7,6,6v24c0,3.3,2.7,6,6,6h24
			c3.3,0,6,2.7,6,6v104C-77-5231.1-82-5226.1-87-5226.1"/>
	</g>
</g>
<g id="Imported-Layers-_x2B_-Imported-Layers-_x2B_-Imported-Layers" transform="translate(16.000000, 7183.000000)" sketch:type="MSLayerGroup">
	<g id="Imported-Layers_63_" sketch:type="MSShapeGroup">
		<path id="Fill-2_54_" class="st0" d="M-87-5226.1h-116c-5,0-10-5-10-10v-136c0-5,5-10,10-10h84c3.3,0,6,2.7,6,6v24
			c0,3.3,2.7,6,6,6h24c3.3,0,6,2.7,6,6v104C-77-5231.1-82-5226.1-87-5226.1"/>
	</g>
	<g id="Imported-Layers-_x2B_-Imported-Layers_24_" transform="translate(30.000000, 62.000000)" sketch:type="MSShapeGroup">
		<path id="Imported-Layers_64_" class="st4" d="M-171.9-5339.4c-0.8-1.1-2-3.7-3.7-7.6l-14.6-35.1h-1.8l-14.5,36.5
			c-1.2,2.9-2,4.8-2.7,5.6c-1,1.3-2.2,2.1-3.8,2.2v1.7h13.4v-1.7c-1.5,0-2.6-0.2-3.4-0.4c-1.3-0.4-1.9-1.1-1.9-2.1
			c0-0.8,0.3-2,0.9-3.7c0.3-0.8,0.9-2.5,1.9-5.2h14.7l1.7,4c0.4,0.9,0.7,1.6,0.9,2.3c0.3,1.1,0.5,1.9,0.5,2.4c0,1.2-0.3,1.9-1,2.1
			c-0.7,0.3-2.1,0.5-4.2,0.6v1.7h21.2v-1.7C-169.9-5337.8-171.1-5338.3-171.9-5339.4L-171.9-5339.4z M-201.2-5352.4l5.9-15.2h0.5
			l6.3,15.2H-201.2L-201.2-5352.4z"/>
		<path id="Imported-Layers_65_" class="st4" d="M-137.7-5341.3c-0.4,0.4-0.7,0.7-0.9,0.8c-0.2,0.1-0.4,0.1-0.7,0.1
			c-0.3,0-0.6-0.2-0.8-0.5c-0.2-0.3-0.8-1.4-0.8-1.9v-15c0-3.9-0.8-6.8-3.3-8.2c-2.5-1.4-5.6-2.1-9.3-2.1c-3.5,0-6.4,0.7-8.7,2.2
			c-2.4,1.5-3.6,3.5-3.6,6c0,1.4,0.4,2.5,1.3,3.2c0.9,0.7,2,1.1,3.2,1.1c1.1,0,2-0.3,2.9-1c0.8-0.7,1.2-1.6,1.2-2.9
			c0-0.5-0.1-1-0.3-1.4c-0.2-0.4-0.4-0.8-0.7-1.2l-0.4-0.4c-0.2-0.2-0.3-0.4-0.4-0.5c-0.1-0.2-0.1-0.4-0.1-0.6
			c0-0.7,0.4-1.2,1.1-1.6c0.8-0.4,1.7-0.7,2.9-0.7c2.1,0,3.5,0.5,4.4,1.4c0.8,0.9,1.2,2.4,1.2,4.3v4.8c-6.1,1.8-10.5,3.5-13.3,5.2
			c-2.8,1.7-4.3,4.1-4.3,7c0,2.4,0.8,4.2,2.3,5.3c1.6,1.1,3.2,1.7,5,1.7c1.3,0,2.7-0.2,4.1-0.7c2.3-0.7,4.3-2,6.1-3.8
			c0.2,1.3,0.6,2.2,1.1,2.9c0.9,1.1,2.3,1.7,4.3,1.7c1.1,0,2.1-0.2,3.1-0.6c1.6-0.6,3-1.6,4.3-3.1L-137.7-5341.3L-137.7-5341.3z
			 M-149.5-5343.7c-0.7,0.8-1.3,1.4-1.8,1.8c-0.9,0.6-1.9,1-3,1c-0.8,0-1.5-0.4-2.2-1.1c-0.6-0.7-1-1.8-1-3.3c0-2.4,1.1-4.4,3.4-6
			c1.3-0.9,2.9-1.6,4.6-2V-5343.7L-149.5-5343.7z"/>
	</g>
</g>
<g id="Imported-Layers_66_" transform="translate(16.000000, 7903.000000)" sketch:type="MSLayerGroup">
	<g sketch:type="MSShapeGroup">
		<path id="Fill-2_55_" class="st0" d="M-87-5226.1h-116c-5,0-10-5-10-10v-136c0-5,5-10,10-10h84c3.3,0,6,2.7,6,6v24
			c0,3.3,2.7,6,6,6h24c3.3,0,6,2.7,6,6v104C-77-5231.1-82-5226.1-87-5226.1"/>
		<g transform="translate(46.000000, 56.000000)">
			<path id="Fill-1_65_" class="st4" d="M-213-5382.1h26v10h-16v12h14v10h-14v18h-10V-5382.1"/>
			<path id="Fill-2_56_" class="st4" d="M-179-5340.1v-42h8v42h4v8h-6C-177.1-5332.1-179-5336.1-179-5340.1"/>
		</g>
	</g>
</g>
<g id="Imported-Layers-_x2B_-Imported-Layers_25_" transform="translate(16.000000, 8143.000000)" sketch:type="MSLayerGroup">
	<g id="Imported-Layers_67_" sketch:type="MSShapeGroup">
		<g>
			<path id="Fill-2_57_" class="st0" d="M-87-5226.1h-116c-5,0-10-5-10-10v-136c0-5,5-10,10-10h84c3.3,0,6,2.7,6,6v24
				c0,3.3,2.7,6,6,6h24c3.3,0,6,2.7,6,6v104C-77-5231.1-82-5226.1-87-5226.1"/>
		</g>
		<path class="st4" d="M-161-5326.1v56l42-28L-161-5326.1"/>
	</g>
</g>
<g id="Imported-Layers-_x2B_-Imported-Layers-_x2B_-Imported-Layers-2_1_" transform="translate(16.000000, 8383.000000)" sketch:type="MSLayerGroup">
	<g sketch:type="MSShapeGroup">
		<g>
			<g id="Imported-Layers_68_">
				<path id="Fill-2_58_" class="st0" d="M-87-5226.1h-116c-5,0-10-5-10-10v-136c0-5,5-10,10-10h84c3.3,0,6,2.7,6,6v24
					c0,3.3,2.7,6,6,6h24c3.3,0,6,2.7,6,6v104C-77-5231.1-82-5226.1-87-5226.1"/>
			</g>
			<g id="Imported-Layers-_x2B_-Imported-Layers-2_1_" transform="translate(40.000000, 68.000000)">
				<path id="Imported-Layers_69_" class="st4" d="M-194-5346.1c-0.9,0-1.8-0.4-2.5-1.1l-16.5-16.9l16.5-16.9c1.4-1.4,3.6-1.4,5,0
					c1.4,1.4,1.4,3.7,0,5.1l-11.6,11.8l11.6,11.9c1.4,1.4,1.4,3.7,0,5.1C-192.2-5346.5-193.1-5346.1-194-5346.1"/>
				<path id="Imported-Layers-2_4_" class="st4" d="M-176-5346.1c0.9,0,1.8-0.4,2.5-1.1l16.5-16.9l-16.5-16.9c-1.4-1.4-3.6-1.4-5,0
					c-1.4,1.4-1.4,3.7,0,5.1l11.6,11.9l-11.6,11.9c-1.4,1.4-1.4,3.7,0,5.1C-177.8-5346.5-176.9-5346.1-176-5346.1"/>
			</g>
		</g>
	</g>
</g>
<g id="Imported-Layers-_x2B_-Imported-Layers_26_" transform="translate(13.000000, 8620.000000)" sketch:type="MSLayerGroup">
	<g id="Imported-Layers_70_" sketch:type="MSShapeGroup">
		<path id="Fill-1_66_" class="st1" d="M-84.9-5382.1h-114.3c-7.7,0-13.9,6.2-13.9,13.9v134.2c0,7.7,6.2,13.9,13.9,13.9h114.3
			c7.7,0,13.9-6.2,13.9-13.9v-134.2C-71-5375.9-77.2-5382.1-84.9-5382.1"/>
		<path id="Fill-1_67_" class="st1" d="M-84.9-4422.1h-114.3c-7.7,0-13.9,6.2-13.9,13.9v134.2c0,7.7,6.2,13.9,13.9,13.9h114.3
			c7.7,0,13.9-6.2,13.9-13.9v-134.2C-71-4415.9-77.2-4422.1-84.9-4422.1"/>
		<path id="Fill-2_59_" class="st0" d="M-84-5379.1h-116c-5,0-10,5-10,10v136c0,5,5,10,10,10h116c5,0,10-5,10-10v-136
			C-74-5374.1-79-5379.1-84-5379.1"/>
	</g>
	<g id="Imported-Layers_71_" transform="translate(29.000000, 47.000000)" sketch:type="MSShapeGroup">
		<path id="Fill-1_68_" class="st4" d="M-157.1-5326v-8h-10.3c-0.5-2-1.2-3.9-2.3-5.6l7.4-7.4l-5.7-5.7l-7.4,7.4
			c-1.7-1.1-3.6-1.9-5.6-2.3v-10.4h-8v10.4c-2,0.5-3.9,1.2-5.6,2.3l-7.4-7.4l-5.7,5.7l7.4,7.4c-1.1,1.7-1.9,3.6-2.3,5.6H-213v8h10.5
			c0.5,2,1.2,3.9,2.3,5.5l-7.4,7.4l5.7,5.7l7.4-7.4c1.7,1.1,3.6,1.9,5.6,2.3v10.4h8v-10.4c2-0.5,3.9-1.2,5.6-2.3l7.4,7.4l5.7-5.7
			l-7.4-7.4c1.1-1.7,1.8-3.6,2.3-5.5L-157.1-5326L-157.1-5326z M-185-5320c-5.5,0-10-4.5-10-10c0-5.5,4.5-10,10-10s10,4.5,10,10
			C-175-5324.5-179.5-5320-185-5320L-185-5320z"/>
		<path id="Fill-2_60_" class="st4" d="M-131-5362.1v-6h-6.4c-0.2-0.8-0.6-1.6-1-2.4l4.5-4.5l-4.2-4.2l-4.5,4.5
			c-0.7-0.4-1.5-0.7-2.4-1v-6.4h-6v6.4c-0.8,0.2-1.6,0.6-2.4,1l-4.5-4.5l-4.2,4.2l4.5,4.5c-0.4,0.7-0.7,1.5-1,2.4h-6.4v6h6.4
			c0.2,0.8,0.6,1.6,1,2.4l-4.5,4.5l4.2,4.2l4.5-4.5c0.7,0.4,1.5,0.7,2.4,1v6.4h6v-6.4c0.8-0.2,1.6-0.6,2.4-1l4.5,4.5l4.2-4.2
			l-4.5-4.5c0.4-0.7,0.7-1.5,1-2.4H-131L-131-5362.1z M-148-5360.1c-2.8,0-5-2.2-5-5s2.2-5,5-5s5,2.2,5,5S-145.2-5360.1-148-5360.1
			L-148-5360.1z"/>
	</g>
</g>
<g id="Imported-Layers-_x2B_-Imported-EPS" transform="translate(16.000000, 8863.000000)" sketch:type="MSLayerGroup">
	<g id="Imported-Layers_72_" sketch:type="MSShapeGroup">
		<path id="Fill-2_61_" class="st0" d="M-87-5226.1h-116c-5,0-10-5-10-10v-136c0-5,5-10,10-10h84c3.3,0,6,2.7,6,6v24
			c0,3.3,2.7,6,6,6h24c3.3,0,6,2.7,6,6v104C-77-5231.1-82-5226.1-87-5226.1"/>
	</g>
	<g id="Imported-EPS" transform="translate(46.000000, 62.000000)" sketch:type="MSShapeGroup">
		<path id="Page-1" class="st4" d="M-188.8-5344.9h-8.8l6.6-8.8l11,15.3h11l-16.8-22.7l14.5-21.1h-11l-8.7,13.6l-8.9-13.6h-10.9
			l14.6,21.1l-16.8,22.7h24.2V-5344.9z"/>
	</g>
</g>
<g id="Imported-Layers-_x2B_-Imported-Layers_27_" transform="translate(16.000000, 9103.000000)" sketch:type="MSLayerGroup">
	<g id="Imported-Layers_73_" sketch:type="MSShapeGroup">
		<path id="Fill-2_62_" class="st0" d="M-87-5226.1h-116c-5,0-10-5-10-10v-136c0-5,5-10,10-10h84c3.3,0,6,2.7,6,6v24
			c0,3.3,2.7,6,6,6h24c3.3,0,6,2.7,6,6v104C-77-5231.1-82-5226.1-87-5226.1"/>
	</g>
	<g id="Imported-Layers_74_" transform="translate(28.000000, 58.000000)" sketch:type="MSShapeGroup">
		<path id="Fill-1_69_" class="st4" d="M-213-5380.1c3.2-0.6,7.4-1.2,11.8-1.2c7.4,0,12.1,1.7,15.9,5.2c4,3.7,6.3,9.5,6.3,18
			c0,9.2-2.5,15.8-6.2,19.8c-4.1,4.2-10.3,6.2-17.9,6.2c-4.5,0-7.7-0.6-9.9-1V-5380.1L-213-5380.1z M-203-5342.1
			c0,0,0.7,1.5,1.8,1.5c7.9,0.1,13.2-5.9,13.2-17.5c0.1-10-4.7-14.8-12.3-14.8c-2,0-2,0.6-2.7,0.8V-5342.1L-203-5342.1z"/>
		<path id="Fill-2_63_" class="st4" d="M-166-5368.1l2.1,15.1c0.5,3.7,1.1,7.5,1.5,11.5h0.1c0.5-4,1.3-8,1.9-11.5l2.8-15.2h6.4
			l2.6,14.8c0.7,3.9,1.4,7.9,1.9,11.9h0.1c0.4-4,0.9-8,1.5-12l2.2-14.7h7.9l-8,35.9h-7.6l-2.4-12.3c-0.6-3.4-1.1-6.6-1.6-10.9h-0.1
			c-0.5,4.4-1,7.6-1.7,10.9l-2.6,12.3h-7.6l-7.6-35.9L-166-5368.1"/>
	</g>
</g>
<g id="Imported-Layers-_x2B_-Imported-Layers_28_" transform="translate(16.000000, 9343.000000)" sketch:type="MSLayerGroup">
	<g id="Imported-Layers_75_" sketch:type="MSShapeGroup">
		<path id="Fill-2_64_" class="st0" d="M-87-5226.1h-116c-5,0-10-5-10-10v-136c0-5,5-10,10-10h84c3.3,0,6,2.7,6,6v24
			c0,3.3,2.7,6,6,6h24c3.3,0,6,2.7,6,6v104C-77-5231.1-82-5226.1-87-5226.1"/>
	</g>
	<path id="Imported-Layers_76_" sketch:type="MSShapeGroup" class="st4" d="M-159-5264.1l36-40h-18l12-30l-36,40h18L-159-5264.1"/>
</g>
<g id="Imported-Layers-_x2B_-Imported-Layers_29_" transform="translate(16.000000, 9583.000000)" sketch:type="MSLayerGroup">
	<g id="Imported-Layers_77_" sketch:type="MSShapeGroup">
		<path id="Fill-2_65_" class="st0" d="M-87-5382.1h-116c-5,0-10,5-10,10v136c0,5,5,10,10,10h116c5,0,10-5,10-10v-136
			C-77-5377.1-82-5382.1-87-5382.1"/>
	</g>
	<g id="Imported-Layers_78_" transform="translate(92.000000, 0.000000)" sketch:type="MSShapeGroup">
		<path id="Fill-1_70_" class="st4" d="M-193-5314.1v-68h-16v68h-4v34h24v-34H-193"/>
		<path id="Fill-2_66_" class="st0" d="M-195-5310.1h-2v-4h-4v-4h-4v8h-4v26h16v-26H-195L-195-5310.1z M-205-5302.1h8v14h-8V-5302.1
			z"/>
		<path id="Fill-3_12_" class="st0" d="M-201-5322.1h4v4h-4V-5322.1z"/>
		<path id="Fill-4_11_" class="st0" d="M-205-5326.1h4v4h-4V-5326.1z"/>
		<path id="Fill-5_7_" class="st0" d="M-205-5334.1h4v4h-4V-5334.1z"/>
		<path id="Fill-6_4_" class="st0" d="M-205-5342.1h4v4h-4V-5342.1z"/>
		<path id="Fill-7_4_" class="st0" d="M-205-5350.1h4v4h-4V-5350.1z"/>
		<path id="Fill-8_4_" class="st0" d="M-205-5358.1h4v4h-4V-5358.1z"/>
		<path id="Fill-9_4_" class="st0" d="M-205-5366.1h4v4h-4V-5366.1z"/>
		<path id="Fill-10_3_" class="st0" d="M-205-5374.1h4v4h-4V-5374.1z"/>
		<path id="Fill-11_2_" class="st0" d="M-201-5330.1h4v4h-4V-5330.1z"/>
		<path id="Fill-12_1_" class="st0" d="M-201-5338.1h4v4h-4V-5338.1z"/>
		<path id="Fill-13_1_" class="st0" d="M-201-5346.1h4v4h-4V-5346.1z"/>
		<path id="Fill-14_1_" class="st0" d="M-201-5354.1h4v4h-4V-5354.1z"/>
		<path id="Fill-15_1_" class="st0" d="M-201-5362.1h4v4h-4V-5362.1z"/>
		<path id="Fill-16_1_" class="st0" d="M-201-5370.1h4v4h-4V-5370.1z"/>
		<path id="Fill-17_1_" class="st0" d="M-205-5382.1h4v4h-4V-5382.1z"/>
		<path id="Fill-18_1_" class="st0" d="M-201-5378.1h4v4h-4V-5378.1z"/>
	</g>
</g>
<g id="Imported-Layers-_x2B_-Imported-Layers-_x2B_-Rectangle-1" transform="translate(16.000000, 9823.000000)" sketch:type="MSLayerGroup">
	<g id="Imported-Layers_79_" sketch:type="MSShapeGroup">
		<path id="Fill-2_67_" class="st0" d="M-87-5226.1h-116c-5,0-10-5-10-10v-136c0-5,5-10,10-10h84c3.3,0,6,2.7,6,6v24
			c0,3.3,2.7,6,6,6h24c3.3,0,6,2.7,6,6v104C-77-5231.1-82-5226.1-87-5226.1"/>
	</g>
	<path id="Imported-Layers_80_" sketch:type="MSShapeGroup" class="st4" d="M-105-5300.1h-26v-6c0-4-2.5-6-6-6h-6v-26h-4v26h-6
		c-3.5,0-6,2.5-6,6v6h-26v4h26v6c0,3.5,2.5,6,6,6h6v26h4v-26h6c3.5,0,6-2,6-6v-6h26V-5300.1L-105-5300.1z M-135-5290.1
		c0,1.2-0.8,2-2,2h-16c-1.2,0-2-0.8-2-2v-16c0-1.2,0.8-2,2-2h16c1.2,0,2,0.8,2,2V-5290.1L-135-5290.1z"/>
	<rect id="Rectangle-1" x="-149" y="-5302.1" sketch:type="MSShapeGroup" class="st4" width="8" height="8">
	</rect>
</g>
<g id="Imported-Layers-_x2B_-Imported-Layers_30_" transform="translate(16.000000, 10063.000000)" sketch:type="MSLayerGroup">
	<g id="Imported-Layers_81_" sketch:type="MSShapeGroup">
		<path id="Fill-2_68_" class="st0" d="M-87-5226.1h-116c-5,0-10-5-10-10v-136c0-5,5-10,10-10h84c3.3,0,6,2.7,6,6v24
			c0,3.3,2.7,6,6,6h24c3.3,0,6,2.7,6,6v104C-77-5231.1-82-5226.1-87-5226.1"/>
	</g>
	<path id="Imported-Layers_82_" sketch:type="MSShapeGroup" class="st4" d="M-159-5318.1v31c-1.4-0.6-3.1-1-5-1c-5,0-9,2.7-9,6
		s4,6,9,6s9-2.7,9-6v-26c7.9-3.1,17.6-4,26-4v21c-1.4-0.6-3.1-1-5-1c-5,0-9,2.7-9,6s4,6,9,6s9-2.7,9-6v-38
		C-137.1-5324.1-147.6-5323.2-159-5318.1"/>
</g>
<g id="Imported-Layers-_x2B_-Imported-Layers_31_" transform="translate(16.000000, 10303.000000)" sketch:type="MSLayerGroup">
	<g id="Imported-Layers_83_" sketch:type="MSShapeGroup">
		<path id="Fill-2_69_" class="st0" d="M-87-5226.1h-116c-5,0-10-5-10-10v-136c0-5,5-10,10-10h84c3.3,0,6,2.7,6,6v24
			c0,3.3,2.7,6,6,6h24c3.3,0,6,2.7,6,6v104C-77-5231.1-82-5226.1-87-5226.1"/>
	</g>
	<g id="Imported-Layers_84_" transform="translate(32.000000, 56.000000)" sketch:type="MSShapeGroup">
		<path id="Fill-1_71_" class="st4" d="M-200.1-5345.1l-3,13h-9.9l13-50h12.5l13,50h-10.3l-3.3-13H-200.1L-200.1-5345.1z
			 M-189.4-5353.1l-2.6-10.4c-0.8-2.9-1.5-6.6-2.1-9.5h-0.1c-0.6,2.9-1.3,6.6-1.9,9.5l-2.5,10.4H-189.4L-189.4-5353.1z"/>
		<path id="Fill-2_70_" class="st4" d="M-161.4-5346.1c0.6,3.7,4.1,6,8.6,6c3.3,0,5.9-0.5,8.5-1.4l1.3,7.3c-3.1,1.4-7,2.1-11.1,2.1
			c-10.4,0-16.4-6.8-16.4-17.6c0-8.8,4.8-18.5,15.5-18.5c9.9,0,13.7,8.7,13.7,17.3c0,1.8-0.3,4.1-0.5,4.9H-161.4L-161.4-5346.1z
			 M-150.3-5354.1c0-2.6-1-7-5.4-7c-4,0-5.6,4.1-5.9,7H-150.3L-150.3-5354.1z"/>
	</g>
</g>
<g id="Imported-Layers-_x2B_-Imported-Layers_32_" transform="translate(16.000000, 10543.000000)" sketch:type="MSLayerGroup">
	<g id="Imported-Layers_85_" sketch:type="MSShapeGroup">
		<path id="Fill-2_71_" class="st0" d="M-87-5226.1h-116c-5,0-10-5-10-10v-136c0-5,5-10,10-10h84c3.3,0,6,2.7,6,6v24
			c0,3.3,2.7,6,6,6h24c3.3,0,6,2.7,6,6v104C-77-5231.1-82-5226.1-87-5226.1"/>
	</g>
	<g id="Imported-Layers_86_" transform="translate(40.000000, 56.000000)" sketch:type="MSShapeGroup">
		<path id="Fill-1_72_" class="st4" d="M-213-5373.2l29-8.9l29,8.9l-29,13.3L-213-5373.2"/>
		<path id="Fill-2_72_" class="st4" d="M-185-5357.5v35.4l-28-17.7v-31.1L-185-5357.5z"/>
		<path id="Fill-3_13_" class="st4" d="M-182.8-5357.4v35.1l27.7-17.6v-31.1L-182.8-5357.4"/>
	</g>
</g>
<g id="Artboard-1" sketch:type="MSArtboardGroup">
</g>
<g id="Group_1_" transform="translate(2.000000, 7667.000000)" sketch:type="MSLayerGroup">
	<path id="Fill-1_73_" sketch:type="MSShapeGroup" class="st2" d="M-49-1435.1c0,4.9-4.1,9-9,9h-146c-4.9,0-9-4.1-9-9v-109h164
		V-1435.1"/>
	<path id="Combined-Shape_1_" class="st0" d="M-180.1-1485.1l22.4,22.4l4.5-4.5l-9-13.4h53.7v-9h-53.7l9-13.4l-4.5-4.5
		L-180.1-1485.1z M-99.6-1489.5h17.9v9h-17.9V-1489.5z"/>
	<path id="Fill-2_73_" sketch:type="MSShapeGroup" class="st3" d="M-204-1570.1h55c2.4,0,4.4,1.1,6.1,2.8l8.3,8.1
		c1.7,1.7,5.3,3.1,7.6,3.1h70c4.9,0,8,3.5,8,8.5v3.5h-164v-17C-213-1566.1-209-1570.1-204-1570.1"/>
</g>
</svg>
