<svg width="48" height="48" viewBox="0 0 48 48" fill="none" xmlns="http://www.w3.org/2000/svg">
<path fill-rule="evenodd" clip-rule="evenodd" d="M4.0084 28.4063C4.01131 28.3642 4.01422 28.3221 4.01572 28.2796L4.016 28.2801C4.34331 18.6749 12.2162 11.0005 21.9011 11V14.0842C18.1079 14.0842 14.9084 16.5957 13.8672 20.0472C18.0566 20.6447 21.2807 24.236 21.2807 28.5899C21.2807 33.3618 17.4121 37.2299 12.6406 37.2299C7.97023 37.2299 4.17449 33.5216 4.0152 28.8895L4 28.9C4 28.8634 4.00132 28.8271 4.00264 28.7908C4.00382 28.7585 4.00499 28.7261 4.00524 28.6936C4.00499 28.6773 4.00383 28.6612 4.00266 28.6451C4.00133 28.6268 4 28.6085 4 28.5898C4 28.5276 4.0042 28.4669 4.0084 28.4063ZM26.108 28.4063C26.1109 28.3642 26.1138 28.3221 26.1153 28.2796L26.1159 28.2801C26.4432 18.6749 34.3147 11.0005 43.9996 11V14.0842C40.2069 14.0842 37.0075 16.5957 35.9663 20.0472C40.1557 20.6447 43.3798 24.236 43.3798 28.5899C43.3798 33.3618 39.5122 37.2299 34.7397 37.2299C30.0704 37.2299 26.2746 33.5216 26.1153 28.8895L26.0996 28.9C26.0996 28.8634 26.1009 28.8271 26.1023 28.7908C26.1034 28.7585 26.1046 28.7261 26.1048 28.6936C26.1048 28.6763 26.1035 28.6592 26.1022 28.6421C26.1009 28.6248 26.0996 28.6074 26.0996 28.5898C26.0996 28.5276 26.1038 28.4669 26.108 28.4063Z" fill="#D7D8D9"/>
</svg>
