<?xml version="1.0" encoding="UTF-8"?>
<svg width="24px" height="24px" viewBox="0 0 24 24" version="1.1" xmlns="http://www.w3.org/2000/svg" xmlns:xlink="http://www.w3.org/1999/xlink">
    <!-- Generator: Sketch 60.1 (88133) - https://sketch.com -->
    <title>send_to_contact_ico</title>
    <desc>Created with Sketch.</desc>
    <defs>
        <linearGradient x1="50%" y1="0%" x2="50%" y2="97.5004516%" id="linearGradient-1">
            <stop stop-color="#A9DBF2" offset="0%"></stop>
            <stop stop-color="#93D0EC" offset="100%"></stop>
        </linearGradient>
        <linearGradient x1="50%" y1="0%" x2="50%" y2="97.5004516%" id="linearGradient-2">
            <stop stop-color="#A9DBF2" offset="0%"></stop>
            <stop stop-color="#93D0EC" offset="100%"></stop>
        </linearGradient>
    </defs>
    <g id="Plain-text---Plain" stroke="none" stroke-width="1" fill="none" fill-rule="evenodd">
        <g id="06-notepad_menu" transform="translate(-401.000000, -134.000000)">
            <g id="send_to_contact_ico" transform="translate(401.000000, 134.000000)">
                <rect id="Rectangle" x="0" y="0" width="24" height="24"></rect>
                <g id="Group-4" transform="translate(1.000000, 4.000000)">
                    <path d="M21.4965084,10.9555946 C21.5528503,8.55421611 19.4230397,6.42036884 16.6014418,5.62560115 C16.6415675,7.460266 16.1155401,9.16484914 15.0633742,10.5505599 C14.0351638,11.9089542 12.5654593,12.8942428 10.8060822,13.4301741 C11.6873765,14.1895576 12.8911145,14.6573398 14.2831073,14.7501494 C15.0687832,14.8081091 15.9100888,14.7639193 16.9068835,14.6283553 L17.1203173,14.5993283 L17.2880258,14.7344963 C17.8042206,15.150534 18.489292,15.3543337 19.3834927,15.3997715 C19.1918052,15.1337646 19.0892848,14.8109558 19.1073859,14.4490006 C19.1237356,14.1547059 19.2845017,13.9376718 19.5512029,13.7476541 C20.7636313,13.0603043 21.4602626,12.092606 21.4965082,10.9555947 Z M21.4965082,10.9555947 C21.4965277,10.954985 21.4965469,10.9543752 21.496566,10.9537653 L21.496465,10.9574244 C21.4964796,10.9568144 21.4964941,10.9562045 21.4965084,10.9555946 Z M20.0921112,14.5868546 C20.0920336,14.5868984 20.091956,14.5869422 20.0918784,14.586986 C20.0918084,14.587037 20.0920486,14.5866764 20.0925155,14.5857031 Z" id="Fill-1" stroke-opacity="0.5" stroke="#2BA6DE" fill-opacity="0.5" fill="url(#linearGradient-1)"></path>
                    <path d="M7.54325333,0.751612337 C3.53203713,1.64502508 0.42037306,4.62621406 0.501588279,8.04367917 C0.544797934,9.59305394 1.46924568,10.9075568 3.08668074,11.8392747 C3.34860092,12.0127318 3.54019711,12.2809665 3.55268726,12.6147177 C3.57905587,13.1684585 3.37376594,13.6491542 3.01059145,14.0106031 C4.34295925,13.9860768 5.35233154,13.716755 6.1061102,13.1035707 L6.27480259,12.9663427 L6.49020737,12.9961659 C7.77750308,13.1743944 8.85165574,13.2322818 9.86305203,13.1544887 C14.4141742,12.8278871 17.1703705,9.47982705 16.2269623,5.17760189 C15.4300419,1.47761446 11.8063717,-0.192077487 7.54325333,0.751612336 Z M2.55551633,12.6858044 C2.55650604,12.6872683 2.55821981,12.6879334 2.56125904,12.6895364 C2.55977336,12.6886816 2.55828814,12.6878265 2.55680339,12.686971 Z" id="Fill-2" stroke="#56B8E6" fill="url(#linearGradient-2)"></path>
                </g>
            </g>
        </g>
    </g>
</svg>