<?xml version="1.0" encoding="utf-8"?>
<!-- Generator: Adobe Illustrator 16.0.0, SVG Export Plug-In . SVG Version: 6.00 Build 0)  -->
<!DOCTYPE svg PUBLIC "-//W3C//DTD SVG 1.1//EN" "http://www.w3.org/Graphics/SVG/1.1/DTD/svg11.dtd">
<svg version="1.1" id="Layer_1" xmlns:sketch="http://www.bohemiancoding.com/sketch/ns"
	 xmlns="http://www.w3.org/2000/svg" xmlns:xlink="http://www.w3.org/1999/xlink" x="0px" y="0px" width="100px" height="1500px"
	 viewBox="0 0 100 1500" enable-background="new 0 0 100 1500" xml:space="preserve">
<title>Slice 1</title>
<desc>Created with Sketch.</desc>
<path id="Shape_2_" sketch:type="MSShapeGroup" fill="#777777" d="M56,390c0-4.42-3.58-8-8-8s-8,3.58-8,8s3.58,8,8,8
	S56,394.42,56,390L56,390L56,390z M50,385v4h3l-5,6l-5-6h3v-4H50L50,385z"/>
<g id="Group_1_" transform="translate(31.000000, 462.000000)" sketch:type="MSShapeGroup">
	<path id="Shape_3_" fill="#777777" d="M18.5,9V7h-8V4l-4,4l4,4V9H18.5L18.5,9z"/>
	<path id="Shape_4_" fill="#777777" d="M18.5,1c-3.17,0-5.85,2.109-6.71,5h2.13c0.77-1.76,2.53-3,4.58-3c2.76,0,5,2.24,5,5
		s-2.24,5-5,5c-2.05,0-3.811-1.24-4.58-3h-2.13c0.86,2.891,3.54,5,6.71,5c3.87,0,7-3.13,7-7S22.37,1,18.5,1L18.5,1L18.5,1z"/>
</g>
<g id="Group_2_" transform="translate(35.000000, 420.000000)" sketch:type="MSShapeGroup">
	<path id="Shape_5_" fill="#777777" d="M6,17h12v-7c-2.76,0-5-2.24-5-5c0-0.71,0.15-1.391,0.41-2H9L6,6V17L6,17z"/>
	<path id="Shape_6_" fill="#777777" d="M14,5c0,2.21,1.79,4,4,4s4-1.79,4-4s-1.79-4-4-4S14,2.79,14,5L14,5L14,5z M16,4h2V2l3,3l-3,3
		V6h-2V4L16,4z"/>
</g>
<path id="Shape_46_" sketch:type="MSShapeGroup" fill="#2BA6DE" d="M56,1430c0-4.42-3.58-8-8-8s-8,3.58-8,8s3.58,8,8,8
	S56,1434.42,56,1430L56,1430L56,1430z M50,1425v4h3l-5,6l-5-6h3v-4H50L50,1425z"/>
<g id="Group_14_" transform="translate(31.000000, 462.000000)" sketch:type="MSShapeGroup">
	<path id="Shape_45_" fill="#D90007" d="M18.5,1029v-2h-8v-3l-4,4l4,4v-3H18.5L18.5,1029z"/>
	<path id="Shape_44_" fill="#D90007" d="M18.5,1021c-3.17,0-5.85,2.109-6.71,5h2.13c0.77-1.76,2.53-3,4.58-3c2.76,0,5,2.24,5,5
		s-2.24,5-5,5c-2.05,0-3.811-1.24-4.58-3h-2.13c0.86,2.891,3.54,5,6.71,5c3.87,0,7-3.13,7-7S22.37,1021,18.5,1021L18.5,1021
		L18.5,1021z"/>
</g>
<g id="Group_13_" transform="translate(35.000000, 420.000000)" sketch:type="MSShapeGroup">
	<path id="Shape_43_" fill="#31B500" d="M6,1047h12v-7c-2.76,0-5-2.24-5-5c0-0.71,0.15-1.391,0.41-2H9l-3,3V1047L6,1047z"/>
	<path id="Shape_42_" fill="#31B500" d="M14,1035c0,2.21,1.79,4,4,4s4-1.79,4-4s-1.79-4-4-4S14,1032.79,14,1035L14,1035L14,1035z
		 M16,1034h2v-2l3,3l-3,3v-2h-2V1034L16,1034z"/>
</g>
<g id="Group_4_" transform="translate(40.000000, 347.000000)" sketch:type="MSShapeGroup" opacity="0.3">
	<path id="Shape_9_" fill="#191717" d="M6,3c0-1.1,0.9-2,2-2s2,0.9,2,2S9.1,5,8,5S6,4.1,6,3L6,3L6,3z"/>
</g>
<g id="Group_6_" transform="translate(32.000000, 292.000000)" sketch:type="MSShapeGroup" opacity="0.3">
	<path id="Shape_17_" fill="#030303" d="M8,11.001l-2,5l5-2L8,11.001L8,11.001z"/>
	
		<rect id="Rectangle-path" x="12.362" y="1.826" transform="matrix(-0.7072 -0.707 0.707 -0.7072 19.4355 23.0159)" fill="#030303" width="4.243" height="11.315"/>
	<path id="Shape_18_" fill="#030303" d="M13,15.001l9,1H10L13,15.001L13,15.001z"/>
</g>
<g id="Group_7_" transform="translate(32.000000, 246.000000)" sketch:type="MSShapeGroup" opacity="0.3">
	<path id="Shape_19_" fill="#030303" d="M16,11c-2.21,0-4-1.79-4-4s1.79-4,4-4s4,1.79,4,4S18.21,11,16,11L16,11L16,11z M16,1
		C11,1,7.82,5.29,6,7c1.82,1.71,5,6,10,6s8.18-4.29,10-6C24.18,5.29,21,1,16,1L16,1L16,1z"/>
	<path id="Shape_20_" fill="#030303" d="M18,7c0,1.1-0.9,2-2,2s-2-0.9-2-2s0.9-2,2-2S18,5.9,18,7L18,7L18,7z"/>
</g>
<path id="Shape_21_" sketch:type="MSShapeGroup" fill="#59AD46" d="M40,205.5l3-3l3,3l7-7l3,3l-10,10L40,205.5L40,205.5z"/>
<path id="Shape_23_" sketch:type="MSShapeGroup" fill="#FFFFFF" d="M8,1036.5c0,4.42,3.58,8,8,8s8-3.58,8-8s-3.58-8-8-8
	S8,1032.08,8,1036.5L8,1036.5L8,1036.5z M15,1031.5h2v4h4v2h-4v4h-2v-4h-4v-2h4V1031.5L15,1031.5z"/>
<g id="Group_8_" transform="translate(4.000000, 716.000000)" sketch:type="MSShapeGroup">
	<path id="Shape_24_" opacity="0.5" fill="#777777" enable-background="new    " d="M25.871,15.769
		c-0.46-0.112-0.82-0.459-0.801-0.93c0-0.104,0.08-0.188,0.15-0.24c1.021-0.562,1.75-1.459,1.779-2.6
		c0.061-2.35-2.061-4.1-4.311-4.729c0.09,1.689-0.391,3.28-1.42,4.558c-0.91,1.13-2.181,1.942-3.681,2.396
		c0.79,0.709,1.87,1.159,3.142,1.25c0.72,0.053,1.459,0,2.209-0.101c0.801,0.64,1.951,0.67,2.92,0.604
		C26.161,15.959,26.109,15.829,25.871,15.769L25.871,15.769L25.871,15.769z"/>
	<path id="Shape_25_" fill="#777777" d="M21.121,6.199c-0.79-3.562-4.36-4.74-7.84-3.979c-3.18,0.689-6.36,3.119-6.28,6.439
		c0.04,1.523,1.01,2.71,2.37,3.47c0.09,0.07,0.199,0.181,0.21,0.32c0.03,0.64-0.46,1.079-1.07,1.233
		c-0.319,0.08-0.39,0.25,0.011,0.28c1.299,0.091,2.83,0.038,3.899-0.812c0.99,0.13,1.97,0.192,2.94,0.13
		C19.34,13.009,21.991,10.099,21.121,6.199L21.121,6.199L21.121,6.199z"/>
</g>
<path id="Shape_26_" sketch:type="MSShapeGroup" fill="#777777" d="M10,855c0,4.42,3.58,8,8,8s8-3.58,8-8s-3.58-8-8-8
	S10,850.58,10,855L10,855L10,855z M16,860v-4h-3l5-6l5,6h-3v4H16L16,860z"/>
<path id="Shape_28_" sketch:type="MSShapeGroup" fill="#777777" d="M27,755c0-4.42-3.58-8-8-8s-8,3.58-8,8s3.58,8,8,8
	S27,759.42,27,755L27,755L27,755z M14,755l2-2l2,2l4-4l2,2l-6,6L14,755L14,755z"/>
<path id="Shape_22_" sketch:type="MSShapeGroup" fill="#31B500" d="M27,785c0-4.42-3.58-8-8-8s-8,3.58-8,8s3.58,8,8,8
	S27,789.42,27,785L27,785L27,785z M14,785l2-2l2,2l4-4l2,2l-6,6L14,785L14,785z"/>
<g id="Group_9_" transform="translate(1.000000, 1069.000000)" sketch:type="MSShapeGroup">
	<path id="Shape_29_" opacity="0.5" fill="#2EA0DA" enable-background="new    " d="M23.98,14.28c-0.41-0.109-0.74-0.42-0.722-0.859
		c0.011-0.1,0.08-0.18,0.142-0.22c0.92-0.53,1.57-1.354,1.6-2.421c0.05-2.187-1.859-3.812-3.88-4.396
		c0.08,1.579-0.351,3.056-1.28,4.229c-0.82,1.05-1.96,1.8-3.311,2.229c0.711,0.66,1.691,1.07,2.83,1.16c0.65,0.04,1.32,0,1.98-0.09
		c0.73,0.59,1.76,0.62,2.631,0.562C24.25,14.461,24.189,14.341,23.98,14.28L23.98,14.28L23.98,14.28z"/>
	<path id="Shape_30_" fill="#2EA0DA" d="M19.71,5.401c-0.71-3.312-3.931-4.4-7.06-3.7C9.79,2.349,6.92,4.61,7,7.69
		c0.04,1.404,0.91,2.511,2.141,3.221c0.08,0.061,0.17,0.16,0.18,0.3c0.029,0.58-0.42,0.99-0.971,1.141
		c-0.279,0.079-0.34,0.239,0.021,0.267c1.17,0.079,2.54,0.041,3.5-0.739c0.899,0.109,1.78,0.18,2.649,0.12
		C18.109,11.722,20.49,9.021,19.71,5.401L19.71,5.401L19.71,5.401z"/>
</g>
<g id="Group_10_" transform="translate(1.000000, 1153.000000)" sketch:type="MSShapeGroup" opacity="0.3">
	<path id="Shape_31_" opacity="0.5" fill="#151515" enable-background="new    " d="M23.98,14.28c-0.41-0.109-0.74-0.42-0.722-0.859
		c0.011-0.1,0.08-0.18,0.142-0.22c0.92-0.53,1.57-1.354,1.6-2.421c0.05-2.187-1.859-3.812-3.88-4.396
		c0.08,1.579-0.351,3.056-1.28,4.229c-0.82,1.05-1.96,1.8-3.311,2.229c0.711,0.66,1.691,1.07,2.83,1.16c0.65,0.04,1.32,0,1.98-0.09
		c0.73,0.59,1.76,0.62,2.631,0.562C24.25,14.461,24.189,14.341,23.98,14.28L23.98,14.28L23.98,14.28z"/>
	<path id="Shape_32_" fill="#151515" d="M19.71,5.401c-0.71-3.312-3.931-4.4-7.06-3.7C9.79,2.349,6.92,4.61,7,7.69
		c0.04,1.404,0.91,2.511,2.141,3.221c0.08,0.061,0.17,0.16,0.18,0.3c0.029,0.58-0.42,0.99-0.971,1.141
		c-0.279,0.079-0.34,0.239,0.021,0.267c1.17,0.079,2.54,0.041,3.5-0.739c0.899,0.109,1.78,0.18,2.649,0.12
		C18.109,11.722,20.49,9.021,19.71,5.401L19.71,5.401L19.71,5.401z"/>
</g>
<path id="Shape_33_" sketch:type="MSShapeGroup" opacity="0.3" fill="#151515" enable-background="new    " d="M8,1106.03
	c0,1.909,1.48,3.471,3.29,3.471h0.08h9.34c1.81,0,3.29-1.562,3.29-3.471c0-1.859-1.391-3.396-3.141-3.47v-0.018
	c0-2.232-1.719-4.05-3.84-4.05c-1.369,0-2.58,0.76-3.25,1.896c-0.229-0.104-0.479-0.155-0.75-0.155c-1.039,0-1.879,0.89-1.879,1.979
	c0,0.119,0,0.229,0.02,0.34C9.4,1102.621,8,1104.151,8,1106.03L8,1106.03L8,1106.03z"/>
<path id="Shape_34_" sketch:type="MSShapeGroup" opacity="0.3" fill="#151515" enable-background="new    " d="M8,1134.03
	c0,1.909,1.48,3.471,3.29,3.471h0.08h9.34c1.81,0,3.29-1.562,3.29-3.471c0-1.859-1.391-3.396-3.141-3.47v-0.018
	c0-2.232-1.719-4.05-3.84-4.05c-1.369,0-2.58,0.76-3.25,1.896c-0.229-0.104-0.479-0.155-0.75-0.155c-1.039,0-1.879,0.89-1.879,1.979
	c0,0.119,0,0.229,0.02,0.34C9.4,1130.621,8,1132.151,8,1134.03L8,1134.03L8,1134.03z"/>
<path id="Shape_35_" sketch:type="MSShapeGroup" opacity="0.3" fill="#020202" enable-background="new    " d="M12,1186h8
	c1.1,0,2,0.9,2,2s-0.9,2-2,2h-8c-1.1,0-2-0.9-2-2S10.9,1186,12,1186L12,1186L12,1186z"/>
<path id="Shape_36_" sketch:type="MSShapeGroup" fill="#777777" d="M16.67,821c0,1.1-0.9,2-2,2s-2-0.9-2-2s0.9-2,2-2
	S16.67,819.9,16.67,821L16.67,821L16.67,821z"/>
<path id="Shape_37_" sketch:type="MSShapeGroup" fill="#777777" d="M13.141,817c-0.101-0.52-0.08-0.98,0.049-1.391
	c0.141-0.42,0.32-0.789,0.551-1.119c0.24-0.32,0.51-0.62,0.81-0.896c0.31-0.261,0.591-0.521,0.86-0.771
	c0.26-0.25,0.49-0.5,0.68-0.75c0.18-0.25,0.28-0.521,0.28-0.82c0-0.5-0.17-0.868-0.49-1.104c-0.33-0.24-0.75-0.36-1.25-0.36
	c-0.479,0-0.909,0.101-1.28,0.3c-0.379,0.2-0.74,0.46-1.1,0.771l-1.92-1.75c0.561-0.633,1.22-1.133,1.99-1.521
	c0.76-0.39,1.609-0.59,2.55-0.59c0.67,0,1.3,0.08,1.88,0.229c0.59,0.157,1.1,0.396,1.529,0.724c0.431,0.314,0.771,0.721,1.011,1.188
	c0.26,0.479,0.38,1.039,0.38,1.688c0,0.51-0.09,0.959-0.279,1.33c-0.19,0.379-0.42,0.72-0.701,1.021
	c-0.278,0.32-0.58,0.604-0.89,0.87c-0.319,0.261-0.6,0.54-0.87,0.83s-0.479,0.604-0.63,0.939c-0.159,0.325-0.21,0.729-0.17,1.181
	L13.141,817L13.141,817z"/>
<g id="Imported-Layers-13_3_" transform="translate(3.000000, 978.000000)" sketch:type="MSShapeGroup" opacity="0.5">
	<path id="Fill-2_13_" d="M20.24,13.29c-0.36-0.37-3.561-1.851-4.16-2.05c0-0.131-0.07-0.58-0.24-0.66
		c-0.16-0.062-0.689-0.32-0.689-0.32c0-0.04-0.061-0.146-0.069-0.27c0-0.131,0.069-0.26,0.069-0.26
		c0.07-0.146,0.33-0.476,0.399-0.73c0.07-0.26,0.15-0.92,0.15-0.92c0-0.141,0.21-0.2,0.34-0.271c0.229-0.105,0.42-1.521,0.42-1.521
		c0-0.46-0.19-0.26-0.19-0.59v-1.23c0-1.51-1.22-2.47-2.74-2.47h-0.059c-1.521,0-2.74,0.96-2.74,2.47v1.23
		c0,0.33-0.189,0.13-0.189,0.59c0,0,0.189,1.41,0.42,1.521c0.13,0.069,0.34,0.134,0.34,0.271c0,0,0.08,0.66,0.15,0.92
		c0.068,0.26,0.328,0.59,0.398,0.73c0,0,0.07,0.129,0.07,0.26c-0.01,0.119-0.07,0.229-0.07,0.27c0,0-0.529,0.26-0.688,0.32
		c-0.17,0.08-0.24,0.529-0.24,0.66c-0.601,0.199-3.8,1.68-4.16,2.05c-0.26,0.271-0.26,1.851-0.26,1.851v0.199
		c0,0.36,0.3,0.66,0.66,0.66h12.68c0.36,0,0.66-0.3,0.66-0.66v-0.199C20.5,15.141,20.5,13.561,20.24,13.29"/>
</g>
<g id="Imported-Layers-13_2_" transform="translate(3.000000, 938.000000)" sketch:type="MSShapeGroup">
	<path id="Fill-1_10_" opacity="0.4" enable-background="new    " d="M18.02,10.98c1.17,0.534,2.58,1.25,2.94,1.604
		c0.17,0.18,0.521,0.551,0.54,2.41h3.48c0.278,0,0.52-0.24,0.52-0.521v-0.155c0,0,0-1.24-0.2-1.45c-0.29-0.29-2.8-1.45-3.271-1.61
		c0-0.1-0.059-0.46-0.189-0.52c-0.13-0.055-0.54-0.25-0.54-0.25c0-0.03-0.05-0.12-0.06-0.21c0-0.104,0.06-0.21,0.06-0.21
		c0.05-0.11,0.261-0.37,0.31-0.57c0.062-0.2,0.121-0.72,0.121-0.72c0-0.11,0.16-0.16,0.271-0.21c0.181-0.095,0.33-1.2,0.33-1.2
		c0-0.36-0.149-0.2-0.149-0.46v-0.97c0-1.189-0.959-1.939-2.16-1.939h-0.039c-1.201,0-2.16,0.75-2.16,1.939v0.971
		c0,0.26-0.15,0.1-0.15,0.46c0,0,0.15,1.105,0.33,1.2c0.109,0.05,0.27,0.1,0.27,0.21c0,0,0.062,0.52,0.121,0.72
		c0.061,0.2,0.26,0.46,0.311,0.57c0,0,0.061,0.104,0.061,0.21c-0.011,0.09-0.061,0.18-0.061,0.21c0,0-0.41,0.199-0.54,0.25
		C18.1,10.77,18.05,10.88,18.02,10.98L18.02,10.98L18.02,10.98z"/>
	<path id="Fill-2_12_" opacity="0.5" enable-background="new    " d="M20.24,13.29c-0.36-0.37-3.561-1.851-4.16-2.05
		c0-0.131-0.07-0.58-0.24-0.66c-0.16-0.062-0.689-0.32-0.689-0.32c0-0.04-0.061-0.146-0.069-0.27c0-0.131,0.069-0.26,0.069-0.26
		c0.07-0.146,0.33-0.476,0.399-0.73c0.07-0.26,0.15-0.92,0.15-0.92c0-0.141,0.21-0.2,0.34-0.271c0.229-0.105,0.42-1.521,0.42-1.521
		c0-0.46-0.19-0.26-0.19-0.59v-1.23c0-1.51-1.22-2.47-2.74-2.47h-0.059c-1.521,0-2.74,0.96-2.74,2.47v1.23
		c0,0.33-0.189,0.13-0.189,0.59c0,0,0.189,1.41,0.42,1.521c0.13,0.069,0.34,0.134,0.34,0.271c0,0,0.08,0.66,0.15,0.92
		c0.068,0.26,0.328,0.59,0.398,0.73c0,0,0.07,0.129,0.07,0.26c-0.01,0.119-0.07,0.229-0.07,0.27c0,0-0.529,0.26-0.688,0.32
		c-0.17,0.08-0.24,0.529-0.24,0.66c-0.601,0.199-3.8,1.68-4.16,2.05c-0.26,0.271-0.26,1.851-0.26,1.851v0.199
		c0,0.36,0.3,0.66,0.66,0.66h12.68c0.36,0,0.66-0.3,0.66-0.66v-0.199C20.5,15.141,20.5,13.561,20.24,13.29"/>
</g>
<g id="Imported-Layers_1_" transform="translate(4.000000, 94.000000)" sketch:type="MSShapeGroup">
	<g id="Group_12_">
		<path id="Fill-1_9_" fill="#AAAAAA" d="M24,15.998c0,0.55-0.45,1-1,1H7c-0.55,0-1-0.45-1-1V5.002h18V15.998"/>
		<path id="Fill-2_10_" fill="#999999" d="M7,1.002l6.092,0.018c0.262,0,0.512,0.104,0.699,0.287l0.917,0.904
			C15.344,2.877,15.736,3.002,16,3.002h7c0.55,0,1,0.45,1,1v1H6V2.001C6,1.447,6.447,1.001,7,1.002"/>
		<path id="Fill-3_1_" fill="#FFFFFF" d="M20.909,12.082c-0.126-0.127-1.245-0.639-1.455-0.708c0-0.045-0.024-0.2-0.085-0.228
			c-0.057-0.021-0.24-0.11-0.24-0.11c0-0.015-0.021-0.054-0.025-0.095c0-0.045,0.025-0.088,0.025-0.088
			c0.023-0.05,0.115-0.164,0.139-0.254c0.025-0.09,0.053-0.317,0.053-0.317c0-0.048,0.074-0.069,0.119-0.093
			c0.08-0.039,0.207-0.525,0.207-0.525c0-0.159-0.008-0.09-0.008-0.204V9.035c0-0.522-0.546-0.854-1.078-0.854h-0.02
			c-0.532,0-1.078,0.331-1.078,0.854V9.46c0,0.114-0.007,0.045-0.007,0.204c0,0,0.096,0.486,0.177,0.525
			c0.045,0.023,0.135,0.045,0.135,0.093c0,0,0.034,0.228,0.061,0.317c0.023,0.09,0.117,0.204,0.145,0.254
			c0,0,0.024,0.043,0.024,0.088c-0.003,0.041-0.022,0.08-0.022,0.095c0,0-0.186,0.089-0.24,0.11
			c-0.061,0.027-0.084,0.183-0.084,0.228c-0.021,0.007-0.055,0.021-0.092,0.035c0.537,0.243,1.195,0.565,1.34,0.711
			c0.047,0.049,0.172,0.17,0.188,0.882h1.613c0.126,0,0.302-0.087,0.302-0.211v-0.069C21,12.722,21,12.176,20.909,12.082"/>
		<path id="Fill-4_1_" fill="#FFFFFF" d="M12.352,11.374c0-0.045-0.024-0.2-0.084-0.228c-0.057-0.021-0.242-0.11-0.242-0.11
			c0-0.015-0.021-0.054-0.022-0.095c0-0.045,0.022-0.088,0.022-0.088c0.025-0.05,0.117-0.164,0.142-0.254
			c0.024-0.09,0.052-0.317,0.052-0.317c0-0.048,0.074-0.069,0.119-0.093c0.081-0.039,0.207-0.525,0.207-0.525
			c0-0.159-0.007-0.09-0.007-0.204V9.035c0-0.522-0.546-0.854-1.078-0.854H11.44c-0.532,0-1.08,0.331-1.08,0.854V9.46
			c0,0.114-0.006,0.045-0.006,0.204c0,0,0.098,0.486,0.176,0.525c0.048,0.023,0.136,0.045,0.136,0.093c0,0,0.036,0.228,0.062,0.317
			c0.022,0.09,0.117,0.204,0.144,0.254c-0.001,0,0.026,0.043,0.026,0.088c-0.004,0.041-0.023,0.08-0.023,0.095
			c0,0-0.186,0.089-0.241,0.11c-0.06,0.027-0.084,0.183-0.084,0.228c-0.21,0.069-1.329,0.581-1.455,0.708
			C9,12.176,9,12.722,9,12.722v0.069c0,0.124,0.176,0.211,0.302,0.211h1.613c0.015-0.712,0.142-0.833,0.187-0.88
			c0.146-0.147,0.806-0.47,1.342-0.713C12.404,11.395,12.373,11.381,12.352,11.374"/>
		<path id="Fill-5_1_" fill="#FFFFFF" d="M16.236,11.259c0-0.06-0.032-0.267-0.111-0.304c-0.075-0.028-0.322-0.148-0.322-0.148
			c0-0.018-0.027-0.068-0.031-0.123c0-0.061,0.031-0.121,0.031-0.121c0.033-0.064,0.154-0.217,0.188-0.336
			c0.034-0.119,0.069-0.424,0.069-0.424c0-0.062,0.099-0.092,0.158-0.124c0.107-0.051,0.23-0.7,0.23-0.7
			c0-0.211-0.055-0.121-0.055-0.272V8.142c0-0.697-0.639-1.139-1.349-1.139H15.02c-0.709,0-1.347,0.441-1.347,1.139v0.565
			c0,0.151-0.054,0.062-0.054,0.272c0,0,0.105,0.649,0.213,0.7c0.061,0.032,0.167,0.062,0.167,0.124c0,0,0.041,0.305,0.074,0.424
			c0.032,0.119,0.155,0.271,0.188,0.336c0,0,0.033,0.061,0.033,0.121c-0.004,0.055-0.03,0.105-0.03,0.123
			c0,0.002-0.246,0.12-0.322,0.148c-0.078,0.037-0.111,0.244-0.111,0.304c-0.28,0.093-1.771,0.774-1.939,0.944
			c-0.123,0.125-0.123,0.854-0.123,0.854v0.092c0,0.164,0.176,0.854,0.344,0.854h5.846c0.168,0,0.343-0.689,0.343-0.854v-0.092
			c0,0,0-0.729-0.12-0.854C18.009,12.033,16.518,11.352,16.236,11.259"/>
	</g>
</g>
<g id="Page-1_4_" transform="translate(4.000000, 623.000000)" sketch:type="MSShapeGroup">
	<g id="Imported-Layers-10_3_">
		<path id="Fill-1_8_" opacity="0.5" fill="#111111" enable-background="new    " d="M24,6V5c0-0.55-0.45-1-1-1h-7
			c-0.264,0-0.656-0.125-1.292-0.791l-0.917-0.904c-0.188-0.183-0.438-0.287-0.699-0.287L7,2C6.447,1.999,6,2.445,6,2.999V18l4-12
			H24L24,6z"/>
		<path id="Fill-2_9_" opacity="0.4" fill="#111111" enable-background="new    " d="M28,6l-3.771,11.316
			C24.092,17.725,23.71,18,23.279,18H6l4-12H28L28,6z"/>
	</g>
</g>
<g id="Imported-Layers-9-_x2B_-Path_3_" transform="translate(4.000000, 504.000000)" sketch:type="MSShapeGroup">
	<g id="Imported-Layers-9_3_">
		<path id="Fill-1_7_" opacity="0.4" enable-background="new    " d="M24,15.998c0,0.55-0.45,1-1,1H7c-0.55,0-1-0.45-1-1V5.002h18
			V15.998"/>
		<path id="Fill-2_7_" opacity="0.5" enable-background="new    " d="M7,1.002l6.092,0.018c0.262,0,0.512,0.104,0.699,0.287
			l0.917,0.904C15.344,2.877,15.736,3.002,16,3.002h7c0.55,0,1,0.45,1,1v1H6V2.001C6,1.447,6.447,1.001,7,1.002"/>
	</g>
	<path id="Path_5_" fill="#FFFFFF" d="M19,10.562l-4.061,3.43l0.035-1.999l-3-0.053l0.053-3l2.998,0.053l0.035-2L19,10.562
		L19,10.562z"/>
</g>
<g id="Page-1_3_" transform="translate(4.000000, 543.000000)" sketch:type="MSShapeGroup">
	<g id="Imported-Layers-10_2_">
		<path id="Fill-1_6_" opacity="0.5" fill="#111111" enable-background="new    " d="M24,6V5c0-0.55-0.45-1-1-1h-7
			c-0.264,0-0.656-0.125-1.292-0.791l-0.917-0.904c-0.188-0.183-0.438-0.287-0.699-0.287L7,2C6.447,1.999,6,2.445,6,2.999V18l4-12
			H24L24,6z"/>
		<path id="Fill-2_6_" opacity="0.4" fill="#111111" enable-background="new    " d="M28,6l-3.771,11.316
			C24.092,17.725,23.71,18,23.279,18H6l4-12H28L28,6z"/>
	</g>
</g>
<path id="Path_4_" sketch:type="MSShapeGroup" fill="#FFFFFF" d="M25.514,554.562l-4.062,3.43l0.034-1.999l-3-0.053l0.054-3
	l2.999,0.053l0.034-2L25.514,554.562L25.514,554.562z"/>
<g id="Imported-Layers-9-_x2B_-Path_2_" transform="translate(4.000000, 585.000000)" sketch:type="MSShapeGroup">
	<g id="Imported-Layers-9_2_">
		<path id="Fill-1_5_" opacity="0.4" enable-background="new    " d="M24,15.998c0,0.55-0.45,1-1,1H7c-0.55,0-1-0.45-1-1V5.002h18
			V15.998"/>
		<path id="Fill-2_5_" opacity="0.5" enable-background="new    " d="M7,1.002l6.092,0.018c0.262,0,0.512,0.104,0.699,0.287
			l0.917,0.904C15.344,2.877,15.736,3.002,16,3.002h7c0.55,0,1,0.45,1,1v1H6V2.001C6,1.447,6.447,1.001,7,1.002"/>
	</g>
	<path id="Path_3_" fill="#FFFFFF" d="M19,10.562l-4.061,3.43l0.035-1.999l-3-0.053l0.053-3l2.998,0.053l0.035-2L19,10.562
		L19,10.562z"/>
</g>
<g id="Imported-Layers-9-_x2B_-Path_1_" transform="translate(4.000000, 665.000000)" sketch:type="MSShapeGroup">
	<g id="Imported-Layers-9_1_">
		<path id="Fill-1_1_" opacity="0.4" enable-background="new    " d="M24,15.998c0,0.55-0.45,1-1,1H7c-0.55,0-1-0.45-1-1V5.002h18
			V15.998"/>
		<path id="Fill-2_1_" opacity="0.5" enable-background="new    " d="M7,1.002l6.092,0.018c0.262,0,0.512,0.104,0.699,0.287
			l0.917,0.904C15.344,2.877,15.736,3.002,16,3.002h7c0.55,0,1,0.45,1,1v1H6V2.001C6,1.447,6.447,1.001,7,1.002"/>
	</g>
</g>
<g id="Page-1" transform="translate(4.000000, 915.000000)" sketch:type="MSShapeGroup">
	<g id="Imported-Layers">
		<path id="Shape_27_" fill="#FFA500" d="M6,1v2h15V2h-7V1H6L6,1z M22,4H6v9h16V4L22,4z M18,8.561l-4.06,3.432l0.035-1.999l-3-0.053
			l0.053-2.999l2.999,0.052l0.034-1.999L18,8.561L18,8.561z"/>
	</g>
</g>
<g id="Page-1_1_" transform="translate(4.000000, 888.000000)" sketch:type="MSShapeGroup">
	<g id="Imported-Layers_2_">
		<path id="Shape_41_" fill="#777777" d="M6,1v2h15V2h-7V1H6L6,1z M22,4H6v9h16V4L22,4z M18,8.561l-4.06,3.432l0.035-1.999l-3-0.053
			l0.053-2.999l2.999,0.052l0.034-1.999L18,8.561L18,8.561z"/>
	</g>
</g>
<g id="Group_15_" transform="translate(0.000000, 120.000000)" sketch:type="MSLayerGroup">
	<path id="Fill-1" sketch:type="MSShapeGroup" fill="#F1D364" d="M91-49.505c0,2.475-2.025,4.5-4.5,4.5h-73
		c-2.475,0-4.5-2.025-4.5-4.5v-54.49h82V-49.505"/>
	<path id="Fill-2" sketch:type="MSShapeGroup" fill="#ECC01E" d="M13.511-116.995H41c1.178,0.003,2.221,0.553,3.061,1.38
		l4.127,4.065c0.842,0.828,2.631,1.555,3.812,1.555h35c2.475,0,4,1.764,4,4.239v1.761H9v-8.5
		C9-114.985,11.022-117.001,13.511-116.995"/>
	<path id="Imported-Layers_3_" sketch:type="MSShapeGroup" fill="#FFFFFF" d="M36.408-69.825c0.562-0.604,3.119-1.925,5.203-2.924
		c-0.148-0.062-0.275-0.114-0.357-0.143c0-0.187-0.096-0.823-0.327-0.938c-0.218-0.086-0.935-0.452-0.935-0.452
		c0-0.057-0.082-0.216-0.096-0.384c0-0.186,0.096-0.368,0.096-0.368c0.096-0.2,0.448-0.668,0.541-1.036
		c0.096-0.367,0.204-1.304,0.204-1.304c0-0.2,0.285-0.285,0.462-0.383C41.51-77.912,42-79.912,42-79.912
		c0-0.649-0.027-0.369-0.027-0.837v-1.742c0-2.143-2.115-3.504-4.18-3.504h-0.078c-2.062,0-4.18,1.361-4.18,3.504v1.742
		c0,0.468-0.026,0.188-0.026,0.837c0,0,0.373,2,0.685,2.156c0.177,0.098,0.52,0.183,0.52,0.383c0,0,0.137,0.937,0.232,1.304
		c0.094,0.368,0.46,0.836,0.556,1.036c0,0,0.103,0.183,0.103,0.368c-0.013,0.168-0.092,0.327-0.092,0.384
		c0,0-0.715,0.366-0.932,0.452c-0.23,0.114-0.326,0.751-0.326,0.938c-0.814,0.281-5.152,2.381-5.642,2.905
		C28.26-69.603,28-67.867,28-67.867v0.552c0,0.51,0.91,1.277,1.398,1.277h6.142C35.54-68.795,36.23-69.632,36.408-69.825
		L36.408-69.825z"/>
	<path id="Imported-Layers-2" sketch:type="MSShapeGroup" fill="#FFFFFF" d="M63.592-69.825c-0.562-0.604-3.119-1.925-5.203-2.924
		c0.148-0.062,0.275-0.114,0.357-0.143c0-0.187,0.096-0.823,0.327-0.938c0.218-0.086,0.935-0.452,0.935-0.452
		c0-0.057,0.082-0.216,0.096-0.384c0-0.186-0.096-0.368-0.096-0.368c-0.096-0.2-0.448-0.668-0.541-1.036
		c-0.096-0.367-0.204-1.304-0.204-1.304c0-0.2-0.285-0.285-0.462-0.383C58.49-77.912,58-79.912,58-79.912
		c0-0.649,0.027-0.369,0.027-0.837v-1.742c0-2.143,2.115-3.504,4.18-3.504h0.078c2.062,0,4.18,1.361,4.18,3.504v1.742
		c0,0.468,0.026,0.188,0.026,0.837c0,0-0.373,2-0.685,2.156c-0.177,0.098-0.52,0.183-0.52,0.383c0,0-0.137,0.937-0.232,1.304
		c-0.094,0.368-0.46,0.836-0.556,1.036c0,0-0.103,0.183-0.103,0.368c0.013,0.168,0.092,0.327,0.092,0.384
		c0,0,0.715,0.366,0.932,0.452c0.23,0.114,0.326,0.751,0.326,0.938c0.814,0.281,5.152,2.381,5.642,2.905
		C71.74-69.603,72-67.867,72-67.867v0.552c0,0.51-0.91,1.277-1.398,1.277H64.46C64.46-68.795,63.77-69.632,63.592-69.825
		L63.592-69.825z"/>
	<path id="vv" sketch:type="MSShapeGroup" fill="#FFFFFF" d="M50-89.995c-2.854,0-5.474,1.885-5.474,4.741v2.323
		c0,0.623-0.219,0.248-0.219,1.115c0,0,0.425,2.666,0.856,2.875c0.244,0.131,0.674,0.244,0.674,0.51c0,0,0.166,1.248,0.299,1.74
		c0.129,0.49,0.625,1.113,0.758,1.381c0,0,0.135,0.244,0.135,0.49c-0.018,0.225-0.128,0.436-0.128,0.51c0,0-0.992,0.49-1.293,0.605
		c-0.319,0.15-0.45,1.001-0.45,1.248c-1.127,0.377-7.131,3.176-7.807,3.875c-0.488,0.511-0.326,3.4-0.326,3.4v0.552
		c0,0.68,1.316,1.665,1.991,1.665H60.83c0.676,0,2.145-0.985,2.145-1.665v-0.552c0,0,0.162-2.89-0.326-3.4
		c-0.676-0.699-6.682-3.498-7.807-3.875c0-0.247-0.133-1.098-0.451-1.248c-0.301-0.115-1.294-0.605-1.294-0.605
		c0-0.074-0.112-0.285-0.131-0.51c0-0.246,0.131-0.49,0.131-0.49c0.134-0.268,0.62-0.891,0.749-1.381
		c0.133-0.492,0.283-1.74,0.283-1.74c0-0.266,0.394-0.379,0.639-0.51c0.43-0.209,0.925-2.875,0.925-2.875
		c0-0.867-0.219-0.492-0.219-1.115v-2.323C55.474-88.11,52.854-89.995,50-89.995z"/>
</g>
<g id="Group_3_" transform="translate(0.000000, 120.000000)" sketch:type="MSLayerGroup">
	<path id="Fill-1_3_" sketch:type="MSShapeGroup" fill="#AAAAAA" d="M90,1275.495c0,2.475-2.025,4.5-4.5,4.5h-73
		c-2.475,0-4.5-2.025-4.5-4.5v-54.49h82V1275.495"/>
	<path id="Fill-2_3_" sketch:type="MSShapeGroup" fill="#999999" d="M12.511,1208.005H40c1.178,0.003,2.221,0.553,3.061,1.38
		l4.127,4.065c0.842,0.828,2.631,1.555,3.812,1.555h35c2.475,0,4,1.764,4,4.239v1.761H8v-8.5
		C8,1210.015,10.022,1207.999,12.511,1208.005"/>
	<path id="Imported-Layers_4_" sketch:type="MSShapeGroup" fill="#FFFFFF" d="M35.408,1255.175c0.562-0.604,3.119-1.925,5.203-2.924
		c-0.148-0.062-0.275-0.114-0.357-0.143c0-0.187-0.096-0.823-0.327-0.938c-0.218-0.086-0.935-0.452-0.935-0.452
		c0-0.057-0.082-0.216-0.096-0.384c0-0.186,0.096-0.368,0.096-0.368c0.096-0.2,0.448-0.668,0.541-1.036
		c0.096-0.367,0.204-1.304,0.204-1.304c0-0.2,0.285-0.285,0.462-0.383c0.311-0.156,0.801-2.156,0.801-2.156
		c0-0.649-0.027-0.369-0.027-0.837v-1.742c0-2.143-2.115-3.504-4.18-3.504h-0.078c-2.062,0-4.18,1.361-4.18,3.504v1.742
		c0,0.468-0.026,0.188-0.026,0.837c0,0,0.373,2,0.685,2.156c0.177,0.098,0.52,0.183,0.52,0.383c0,0,0.137,0.937,0.232,1.304
		c0.094,0.368,0.46,0.836,0.556,1.036c0,0,0.103,0.183,0.103,0.368c-0.013,0.168-0.092,0.327-0.092,0.384
		c0,0-0.715,0.366-0.932,0.452c-0.23,0.114-0.326,0.751-0.326,0.938c-0.814,0.281-5.152,2.381-5.642,2.905
		c-0.353,0.384-0.612,2.119-0.612,2.119v0.552c0,0.51,0.91,1.277,1.398,1.277h6.142C34.54,1256.205,35.23,1255.368,35.408,1255.175
		L35.408,1255.175z"/>
	<path id="Imported-Layers-2_1_" sketch:type="MSShapeGroup" fill="#FFFFFF" d="M62.592,1255.175
		c-0.562-0.604-3.119-1.925-5.203-2.924c0.148-0.062,0.275-0.114,0.357-0.143c0-0.187,0.096-0.823,0.327-0.938
		c0.218-0.086,0.935-0.452,0.935-0.452c0-0.057,0.082-0.216,0.096-0.384c0-0.186-0.096-0.368-0.096-0.368
		c-0.096-0.2-0.448-0.668-0.541-1.036c-0.096-0.367-0.204-1.304-0.204-1.304c0-0.2-0.285-0.285-0.462-0.383
		c-0.311-0.156-0.801-2.156-0.801-2.156c0-0.649,0.027-0.369,0.027-0.837v-1.742c0-2.143,2.115-3.504,4.18-3.504h0.078
		c2.062,0,4.18,1.361,4.18,3.504v1.742c0,0.468,0.026,0.188,0.026,0.837c0,0-0.373,2-0.685,2.156
		c-0.177,0.098-0.52,0.183-0.52,0.383c0,0-0.137,0.937-0.232,1.304c-0.094,0.368-0.46,0.836-0.556,1.036
		c0,0-0.103,0.183-0.103,0.368c0.013,0.168,0.092,0.327,0.092,0.384c0,0,0.715,0.366,0.932,0.452
		c0.23,0.114,0.326,0.751,0.326,0.938c0.814,0.281,5.152,2.381,5.642,2.905c0.353,0.384,0.612,2.119,0.612,2.119v0.552
		c0,0.51-0.91,1.277-1.398,1.277H63.46C63.46,1256.205,62.77,1255.368,62.592,1255.175L62.592,1255.175z"/>
	<path id="vv_1_" sketch:type="MSShapeGroup" fill="#FFFFFF" d="M49,1235.005c-2.854,0-5.474,1.885-5.474,4.741v2.323
		c0,0.623-0.219,0.248-0.219,1.115c0,0,0.425,2.666,0.856,2.875c0.244,0.131,0.674,0.244,0.674,0.51c0,0,0.166,1.248,0.299,1.74
		c0.129,0.49,0.625,1.113,0.758,1.381c0,0,0.135,0.244,0.135,0.49c-0.018,0.225-0.128,0.436-0.128,0.51c0,0-0.992,0.49-1.293,0.605
		c-0.319,0.15-0.45,1.001-0.45,1.248c-1.127,0.377-7.131,3.176-7.807,3.875c-0.488,0.511-0.326,3.4-0.326,3.4v0.552
		c0,0.68,1.316,1.665,1.991,1.665H59.83c0.676,0,2.145-0.985,2.145-1.665v-0.552c0,0,0.162-2.89-0.326-3.4
		c-0.676-0.699-6.682-3.498-7.807-3.875c0-0.247-0.133-1.098-0.451-1.248c-0.301-0.115-1.294-0.605-1.294-0.605
		c0-0.074-0.112-0.285-0.131-0.51c0-0.246,0.131-0.49,0.131-0.49c0.134-0.268,0.62-0.891,0.749-1.381
		c0.133-0.492,0.283-1.74,0.283-1.74c0-0.266,0.394-0.379,0.639-0.51c0.43-0.209,0.925-2.875,0.925-2.875
		c0-0.867-0.219-0.492-0.219-1.115v-2.323C54.474,1236.89,51.854,1235.005,49,1235.005z"/>
</g>
<g id="Fill-2-_x2B_-Fill-1" sketch:type="MSLayerGroup">
	<path id="Fill-2_2_" sketch:type="MSShapeGroup" fill="#999999" d="M12.511,1228.005H40c1.178,0.003,2.221,0.553,3.061,1.379
		l4.127,4.066c0.842,0.828,2.631,1.555,3.812,1.555h35c2.475,0,4,1.764,4,4.239v1.761H8v-8.5
		C8,1230.015,10.022,1227.999,12.511,1228.005"/>
	<path id="Fill-1_2_" sketch:type="MSShapeGroup" fill="#AAAAAA" d="M90,1295.495c0,2.475-2.025,4.5-4.5,4.5h-73
		c-2.475,0-4.5-2.025-4.5-4.5v-54.49h82V1295.495"/>
</g>
<g id="Group_11_" transform="translate(0.000000, 120.000000)" sketch:type="MSLayerGroup">
	<path id="Fill-1_4_" sketch:type="MSShapeGroup" fill="#F1D364" d="M66.5,42.692c0,1.162-0.951,2.113-2.113,2.113H30.113
		c-1.162,0-2.113-0.951-2.113-2.113V17.108h38.5V42.692"/>
	<path id="Fill-2_4_" sketch:type="MSShapeGroup" fill="#ECC01E" d="M30.118,11.005h12.906c0.553,0.001,1.042,0.26,1.437,0.648
		l1.938,1.909c0.396,0.389,1.236,0.73,1.791,0.73h16.433c1.162,0,1.878,0.828,1.878,1.99v0.827H28v-3.991
		C28,11.948,28.949,11.002,30.118,11.005"/>
	<path id="Imported-Layers_5_" sketch:type="MSShapeGroup" fill="#FFFFFF" d="M40.869,33.152c0.264-0.284,1.464-0.904,2.442-1.373
		c-0.069-0.029-0.13-0.053-0.168-0.067c0-0.087-0.045-0.387-0.153-0.44c-0.103-0.041-0.439-0.212-0.439-0.212
		c0-0.026-0.038-0.102-0.045-0.18c0-0.087,0.045-0.173,0.045-0.173c0.045-0.094,0.211-0.314,0.254-0.487
		c0.045-0.172,0.096-0.612,0.096-0.612c0-0.094,0.135-0.134,0.218-0.18c0.146-0.074,0.376-1.012,0.376-1.012
		c0-0.305-0.014-0.174-0.014-0.393v-0.818c0-1.006-0.992-1.646-1.962-1.646h-0.036c-0.969,0-1.963,0.64-1.963,1.646v0.818
		c0,0.219-0.012,0.088-0.012,0.393c0,0,0.174,0.938,0.32,1.012c0.084,0.046,0.244,0.085,0.244,0.18c0,0,0.064,0.44,0.109,0.612
		c0.044,0.173,0.216,0.393,0.261,0.487c0,0,0.048,0.085,0.048,0.173c-0.006,0.079-0.043,0.154-0.043,0.18
		c0,0-0.336,0.172-0.438,0.212c-0.107,0.053-0.152,0.353-0.152,0.44c-0.383,0.132-2.42,1.118-2.649,1.364
		c-0.165,0.18-0.287,0.995-0.287,0.995v0.259c0,0.239,0.427,0.6,0.656,0.6h2.884C40.461,33.636,40.785,33.242,40.869,33.152
		L40.869,33.152z"/>
	<path id="Imported-Layers-2_2_" sketch:type="MSShapeGroup" fill="#FFFFFF" d="M53.632,33.152
		c-0.265-0.284-1.465-0.904-2.443-1.373c0.069-0.029,0.13-0.053,0.168-0.067c0-0.087,0.045-0.387,0.153-0.44
		c0.103-0.041,0.439-0.212,0.439-0.212c0-0.026,0.038-0.102,0.045-0.18c0-0.087-0.045-0.173-0.045-0.173
		c-0.045-0.094-0.211-0.314-0.255-0.487c-0.045-0.172-0.096-0.612-0.096-0.612c0-0.094-0.134-0.134-0.217-0.18
		c-0.146-0.074-0.376-1.012-0.376-1.012c0-0.305,0.013-0.174,0.013-0.393v-0.818c0-1.006,0.993-1.646,1.963-1.646h0.036
		c0.969,0,1.963,0.64,1.963,1.646v0.818c0,0.219,0.013,0.088,0.013,0.393c0,0-0.176,0.938-0.321,1.012
		c-0.083,0.046-0.244,0.085-0.244,0.18c0,0-0.064,0.44-0.109,0.612c-0.044,0.173-0.216,0.393-0.261,0.487
		c0,0-0.048,0.085-0.048,0.173c0.006,0.079,0.043,0.154,0.043,0.18c0,0,0.335,0.172,0.438,0.212c0.107,0.053,0.152,0.353,0.152,0.44
		c0.383,0.132,2.42,1.118,2.649,1.364c0.165,0.18,0.287,0.995,0.287,0.995v0.259c0,0.239-0.427,0.6-0.656,0.6h-2.884
		C54.039,33.636,53.715,33.242,53.632,33.152L53.632,33.152z"/>
	<path id="vv_2_" sketch:type="MSShapeGroup" fill="#FFFFFF" d="M47.25,23.682c-1.34,0-2.57,0.885-2.57,2.226v1.091
		c0,0.292-0.103,0.117-0.103,0.524c0,0,0.2,1.251,0.402,1.35c0.114,0.062,0.316,0.114,0.316,0.239c0,0,0.078,0.586,0.14,0.817
		c0.061,0.23,0.294,0.522,0.356,0.648c0,0,0.063,0.115,0.063,0.23c-0.008,0.105-0.061,0.205-0.061,0.24c0,0-0.466,0.23-0.607,0.284
		c-0.149,0.071-0.211,0.47-0.211,0.586c-0.529,0.177-3.348,1.491-3.665,1.819c-0.229,0.24-0.153,1.597-0.153,1.597v0.259
		c0,0.319,0.618,0.782,0.936,0.782h10.241c0.317,0,1.007-0.462,1.007-0.782v-0.259c0,0,0.076-1.357-0.153-1.597
		c-0.317-0.329-3.138-1.642-3.665-1.819c0-0.116-0.062-0.515-0.212-0.586c-0.142-0.054-0.607-0.284-0.607-0.284
		c0-0.035-0.053-0.134-0.062-0.24c0-0.115,0.062-0.23,0.062-0.23c0.062-0.125,0.291-0.418,0.352-0.648
		c0.062-0.231,0.133-0.817,0.133-0.817c0-0.125,0.185-0.178,0.3-0.239c0.201-0.098,0.435-1.35,0.435-1.35
		c0-0.407-0.103-0.231-0.103-0.524v-1.091C49.82,24.566,48.59,23.682,47.25,23.682z"/>
</g>
</svg>
