<?xml version="1.0" encoding="utf-8"?>
<!-- Generator: Adobe Illustrator 19.0.0, SVG Export Plug-In . SVG Version: 6.00 Build 0)  -->
<svg version="1.1" id="Layer_1" xmlns:sketch="http://www.bohemiancoding.com/sketch/ns"
	 xmlns="http://www.w3.org/2000/svg" xmlns:xlink="http://www.w3.org/1999/xlink" x="0px" y="0px" width="100px" height="1769.2px"
	 viewBox="-247 -368.3 100 1769.2" style="enable-background:new -247 -368.3 100 1769.2;" xml:space="preserve">
<style type="text/css">
	.st0{fill:#777777;}
	.st1{fill:#2BA6DE;}
	.st2{fill:#D90007;}
	.st3{fill:#31B500;}
	.st4{opacity:0.3;}
	.st5{fill:#191717;}
	.st6{fill:#030303;}
	.st7{fill:#59AD46;}
	.st8{fill:#FFFFFF;}
	.st9{opacity:0.5;fill:#777777;enable-background:new    ;}
	.st10{opacity:0.5;fill:#2EA0DA;enable-background:new    ;}
	.st11{fill:#2EA0DA;}
	.st12{opacity:0.5;fill:#151515;enable-background:new    ;}
	.st13{fill:#151515;}
	.st14{opacity:0.3;fill:#151515;enable-background:new    ;}
	.st15{opacity:0.3;fill:#020202;enable-background:new    ;}
	.st16{opacity:0.5;}
	.st17{opacity:0.4;enable-background:new    ;}
	.st18{opacity:0.5;enable-background:new    ;}
	.st19{opacity:0.5;fill:#111111;enable-background:new    ;}
	.st20{opacity:0.4;fill:#111111;enable-background:new    ;}
	.st21{fill:#F1D364;}
	.st22{fill:#ECC01E;}
	.st23{opacity:0.5;fill:none;stroke:#000000;stroke-width:2;stroke-miterlimit:10;enable-background:new    ;}
	.st24{opacity:0.4;}
	.st25{fill:#9F9F9F;}
	.st26{fill:#AAAAAA;}
	.st27{fill:#999999;}
	.st28{fill:#FFA500;}
</style>
<path id="Shape_2_" sketch:type="MSShapeGroup" class="st0" d="M-190.5,22c0-4.4-3.6-8-8-8s-8,3.6-8,8s3.6,8,8,8
	S-190.5,26.4-190.5,22L-190.5,22L-190.5,22z M-196.5,17v4h3l-5,6l-5-6h3v-4H-196.5L-196.5,17z"/>
<g id="Group_1_" transform="translate(31.000000, 462.000000)" sketch:type="MSShapeGroup">
	<path id="Shape_3_" class="st0" d="M-228-359v-2h-8v-3l-4,4l4,4v-3H-228L-228-359z"/>
	<path id="Shape_4_" class="st0" d="M-228-367c-3.2,0-5.9,2.1-6.7,5h2.1c0.8-1.8,2.5-3,4.6-3c2.8,0,5,2.2,5,5c0,2.8-2.2,5-5,5
		c-2,0-3.8-1.2-4.6-3h-2.1c0.9,2.9,3.5,5,6.7,5c3.9,0,7-3.1,7-7C-221-363.9-224.1-367-228-367L-228-367L-228-367z"/>
</g>
<g id="Group_2_" transform="translate(35.000000, 420.000000)" sketch:type="MSShapeGroup">
	<path id="Shape_5_" class="st0" d="M-240.5-351h12v-7c-2.8,0-5-2.2-5-5c0-0.7,0.1-1.4,0.4-2h-4.4l-3,3V-351L-240.5-351z"/>
	<path id="Shape_6_" class="st0" d="M-232.5-363c0,2.2,1.8,4,4,4s4-1.8,4-4c0-2.2-1.8-4-4-4S-232.5-365.3-232.5-363L-232.5-363
		L-232.5-363z M-230.5-364h2v-2l3,3l-3,3v-2h-2V-364L-230.5-364z"/>
</g>
<path id="Shape_46_" sketch:type="MSShapeGroup" class="st1" d="M-190.5,1062c0-4.4-3.6-8-8-8s-8,3.6-8,8s3.6,8,8,8
	S-190.5,1066.4-190.5,1062L-190.5,1062L-190.5,1062z M-196.5,1057v4h3l-5,6l-5-6h3v-4H-196.5L-196.5,1057z"/>
<g id="Group_14_" transform="translate(31.000000, 462.000000)" sketch:type="MSShapeGroup">
	<path id="Shape_45_" class="st2" d="M-228,660.9v-2h-8v-3l-4,4l4,4v-3H-228L-228,660.9z"/>
	<path id="Shape_44_" class="st2" d="M-228,652.9c-3.2,0-5.9,2.1-6.7,5h2.1c0.8-1.8,2.5-3,4.6-3c2.8,0,5,2.2,5,5s-2.2,5-5,5
		c-2,0-3.8-1.2-4.6-3h-2.1c0.9,2.9,3.5,5,6.7,5c3.9,0,7-3.1,7-7S-224.1,652.9-228,652.9L-228,652.9L-228,652.9z"/>
</g>
<g id="Group_13_" transform="translate(35.000000, 420.000000)" sketch:type="MSShapeGroup">
	<path id="Shape_43_" class="st3" d="M-240.5,678.9h12v-7c-2.8,0-5-2.2-5-5c0-0.7,0.1-1.4,0.4-2h-4.4l-3,3V678.9L-240.5,678.9z"/>
	<path id="Shape_42_" class="st3" d="M-232.5,666.9c0,2.2,1.8,4,4,4s4-1.8,4-4s-1.8-4-4-4S-232.5,664.7-232.5,666.9L-232.5,666.9
		L-232.5,666.9z M-230.5,665.9h2v-2l3,3l-3,3v-2h-2V665.9L-230.5,665.9z"/>
</g>
<g id="Group_4_" transform="translate(40.000000, 347.000000)" sketch:type="MSShapeGroup" class="st4">
	<path id="Shape_9_" class="st5" d="M-240.5-365c0-1.1,0.9-2,2-2s2,0.9,2,2s-0.9,2-2,2S-240.5-364-240.5-365L-240.5-365L-240.5-365z
		"/>
</g>
<g id="Group_6_" transform="translate(32.000000, 292.000000)" sketch:type="MSShapeGroup" class="st4">
	<path id="Shape_17_" class="st6" d="M-238.5-357l-2,5l5-2L-238.5-357L-238.5-357z"/>
	
		<rect id="Rectangle-path" x="-234.1" y="-366.2" transform="matrix(-0.7072 -0.707 0.707 -0.7072 -141.1749 -779.5904)" class="st6" width="4.2" height="11.3"/>
	<path id="Shape_18_" class="st6" d="M-233.5-353l9,1h-12L-233.5-353L-233.5-353z"/>
</g>
<g id="Group_7_" transform="translate(32.000000, 246.000000)" sketch:type="MSShapeGroup" class="st4">
	<path id="Shape_19_" class="st6" d="M-230.5-357c-2.2,0-4-1.8-4-4c0-2.2,1.8-4,4-4s4,1.8,4,4C-226.5-358.8-228.3-357-230.5-357
		L-230.5-357L-230.5-357z M-230.5-367c-5,0-8.2,4.3-10,6c1.8,1.7,5,6,10,6s8.2-4.3,10-6C-222.3-362.8-225.5-367-230.5-367
		L-230.5-367L-230.5-367z"/>
	<path id="Shape_20_" class="st6" d="M-228.5-361c0,1.1-0.9,2-2,2s-2-0.9-2-2s0.9-2,2-2S-228.5-362.2-228.5-361L-228.5-361
		L-228.5-361z"/>
</g>
<path id="Shape_21_" sketch:type="MSShapeGroup" class="st7" d="M-206.5-162.6l3-3l3,3l7-7l3,3l-10,10L-206.5-162.6L-206.5-162.6z"
	/>
<path id="Shape_23_" sketch:type="MSShapeGroup" class="st8" d="M-238.5,668.4c0,4.4,3.6,8,8,8s8-3.6,8-8s-3.6-8-8-8
	S-238.5,664-238.5,668.4L-238.5,668.4L-238.5,668.4z M-231.5,663.4h2v4h4v2h-4v4h-2v-4h-4v-2h4V663.4L-231.5,663.4z"/>
<g id="Group_8_" transform="translate(4.000000, 716.000000)" sketch:type="MSShapeGroup">
	<path id="Shape_24_" class="st9" d="M-220.6-352.3c-0.5-0.1-0.8-0.5-0.8-0.9c0-0.1,0.1-0.2,0.1-0.2c1-0.6,1.8-1.5,1.8-2.6
		c0.1-2.3-2.1-4.1-4.3-4.7c0.1,1.7-0.4,3.3-1.4,4.6c-0.9,1.1-2.2,1.9-3.7,2.4c0.8,0.7,1.9,1.2,3.1,1.2c0.7,0.1,1.5,0,2.2-0.1
		c0.8,0.6,2,0.7,2.9,0.6C-220.3-352.1-220.4-352.2-220.6-352.3L-220.6-352.3L-220.6-352.3z"/>
	<path id="Shape_25_" class="st0" d="M-225.4-361.9c-0.8-3.6-4.4-4.7-7.8-4c-3.2,0.7-6.4,3.1-6.3,6.4c0,1.5,1,2.7,2.4,3.5
		c0.1,0.1,0.2,0.2,0.2,0.3c0,0.6-0.5,1.1-1.1,1.2c-0.3,0.1-0.4,0.2,0,0.3c1.3,0.1,2.8,0,3.9-0.8c1,0.1,2,0.2,2.9,0.1
		C-227.2-355-224.5-358-225.4-361.9L-225.4-361.9L-225.4-361.9z"/>
</g>
<path id="Shape_26_" sketch:type="MSShapeGroup" class="st0" d="M-236.5,486.9c0,4.4,3.6,8,8,8s8-3.6,8-8s-3.6-8-8-8
	S-236.5,482.5-236.5,486.9L-236.5,486.9L-236.5,486.9z M-230.5,491.9v-4h-3l5-6l5,6h-3v4H-230.5L-230.5,491.9z"/>
<path id="Shape_28_" sketch:type="MSShapeGroup" class="st0" d="M-219.5,386.9c0-4.4-3.6-8-8-8s-8,3.6-8,8s3.6,8,8,8
	S-219.5,391.4-219.5,386.9L-219.5,386.9L-219.5,386.9z M-232.5,386.9l2-2l2,2l4-4l2,2l-6,6L-232.5,386.9L-232.5,386.9z"/>
<path id="Shape_22_" sketch:type="MSShapeGroup" class="st3" d="M-219.5,416.9c0-4.4-3.6-8-8-8s-8,3.6-8,8s3.6,8,8,8
	S-219.5,421.4-219.5,416.9L-219.5,416.9L-219.5,416.9z M-232.5,416.9l2-2l2,2l4-4l2,2l-6,6L-232.5,416.9L-232.5,416.9z"/>
<g id="Group_9_" transform="translate(1.000000, 1069.000000)" sketch:type="MSShapeGroup">
	<path id="Shape_29_" class="st10" d="M-222.5-353.8c-0.4-0.1-0.7-0.4-0.7-0.9c0-0.1,0.1-0.2,0.1-0.2c0.9-0.5,1.6-1.4,1.6-2.4
		c0-2.2-1.9-3.8-3.9-4.4c0.1,1.6-0.4,3.1-1.3,4.2c-0.8,1.1-2,1.8-3.3,2.2c0.7,0.7,1.7,1.1,2.8,1.2c0.6,0,1.3,0,2-0.1
		c0.7,0.6,1.8,0.6,2.6,0.6C-222.3-353.6-222.3-353.7-222.5-353.8L-222.5-353.8L-222.5-353.8z"/>
	<path id="Shape_30_" class="st11" d="M-226.8-362.6c-0.7-3.3-3.9-4.4-7.1-3.7c-2.9,0.6-5.7,2.9-5.6,6c0,1.4,0.9,2.5,2.1,3.2
		c0.1,0.1,0.2,0.2,0.2,0.3c0,0.6-0.4,1-1,1.1c-0.3,0.1-0.3,0.2,0,0.3c1.2,0.1,2.5,0,3.5-0.7c0.9,0.1,1.8,0.2,2.6,0.1
		C-228.4-356.3-226-359-226.8-362.6L-226.8-362.6L-226.8-362.6z"/>
</g>
<g id="Group_10_" transform="translate(1.000000, 1153.000000)" sketch:type="MSShapeGroup" class="st4">
	<path id="Shape_31_" class="st12" d="M-222.5-353.8c-0.4-0.1-0.7-0.4-0.7-0.9c0-0.1,0.1-0.2,0.1-0.2c0.9-0.5,1.6-1.4,1.6-2.4
		c0-2.2-1.9-3.8-3.9-4.4c0.1,1.6-0.4,3.1-1.3,4.2c-0.8,1.1-2,1.8-3.3,2.2c0.7,0.7,1.7,1.1,2.8,1.2c0.6,0,1.3,0,2-0.1
		c0.7,0.6,1.8,0.6,2.6,0.6C-222.3-353.6-222.3-353.7-222.5-353.8L-222.5-353.8L-222.5-353.8z"/>
	<path id="Shape_32_" class="st13" d="M-226.8-362.6c-0.7-3.3-3.9-4.4-7.1-3.7c-2.9,0.6-5.7,2.9-5.6,6c0,1.4,0.9,2.5,2.1,3.2
		c0.1,0.1,0.2,0.2,0.2,0.3c0,0.6-0.4,1-1,1.1c-0.3,0.1-0.3,0.2,0,0.3c1.2,0.1,2.5,0,3.5-0.7c0.9,0.1,1.8,0.2,2.6,0.1
		C-228.4-356.3-226-359-226.8-362.6L-226.8-362.6L-226.8-362.6z"/>
</g>
<path id="Shape_33_" sketch:type="MSShapeGroup" class="st14" d="M-238.5,738c0,1.9,1.5,3.5,3.3,3.5h0.1h9.3c1.8,0,3.3-1.6,3.3-3.5
	s-1.4-3.4-3.1-3.5l0,0c0-2.2-1.7-4.1-3.8-4.1c-1.4,0-2.6,0.8-3.2,1.9c-0.2-0.1-0.5-0.2-0.8-0.2c-1,0-1.9,0.9-1.9,2
	c0,0.1,0,0.2,0,0.3C-237.1,734.6-238.5,736.1-238.5,738L-238.5,738L-238.5,738z"/>
<path id="Shape_34_" sketch:type="MSShapeGroup" class="st14" d="M-238.5,766c0,1.9,1.5,3.5,3.3,3.5h0.1h9.3c1.8,0,3.3-1.6,3.3-3.5
	s-1.4-3.4-3.1-3.5l0,0c0-2.2-1.7-4.1-3.8-4.1c-1.4,0-2.6,0.8-3.2,1.9c-0.2-0.1-0.5-0.2-0.8-0.2c-1,0-1.9,0.9-1.9,2
	c0,0.1,0,0.2,0,0.3C-237.1,762.6-238.5,764.1-238.5,766L-238.5,766L-238.5,766z"/>
<path id="Shape_35_" sketch:type="MSShapeGroup" class="st15" d="M-234.5,818h8c1.1,0,2,0.9,2,2s-0.9,2-2,2h-8c-1.1,0-2-0.9-2-2
	S-235.6,818-234.5,818L-234.5,818L-234.5,818z"/>
<path id="Shape_36_" sketch:type="MSShapeGroup" class="st0" d="M-229.8,452.9c0,1.1-0.9,2-2,2s-2-0.9-2-2s0.9-2,2-2
	C-230.7,450.9-229.8,451.9-229.8,452.9L-229.8,452.9L-229.8,452.9z"/>
<path id="Shape_37_" sketch:type="MSShapeGroup" class="st0" d="M-233.4,448.9c-0.1-0.5-0.1-1,0-1.4s0.3-0.8,0.6-1.1
	c0.2-0.3,0.5-0.6,0.8-0.9c0.3-0.3,0.6-0.5,0.9-0.8c0.3-0.2,0.5-0.5,0.7-0.8c0.2-0.2,0.3-0.5,0.3-0.8c0-0.5-0.2-0.9-0.5-1.1
	c-0.3-0.2-0.8-0.4-1.2-0.4c-0.5,0-0.9,0.1-1.3,0.3s-0.7,0.5-1.1,0.8l-1.9-1.8c0.6-0.6,1.2-1.1,2-1.5s1.6-0.6,2.5-0.6
	c0.7,0,1.3,0.1,1.9,0.2c0.6,0.2,1.1,0.4,1.5,0.7s0.8,0.7,1,1.2c0.3,0.5,0.4,1,0.4,1.7c0,0.5-0.1,1-0.3,1.3c-0.2,0.4-0.4,0.7-0.7,1
	c-0.3,0.3-0.6,0.6-0.9,0.9c-0.3,0.3-0.6,0.5-0.9,0.8s-0.5,0.6-0.6,0.9c-0.2,0.3-0.2,0.7-0.2,1.2L-233.4,448.9L-233.4,448.9z"/>
<g id="Imported-Layers-13_3_" transform="translate(3.000000, 978.000000)" sketch:type="MSShapeGroup" class="st16">
	<path id="Fill-2_13_" d="M-226.3-354.8c-0.4-0.4-3.6-1.9-4.2-2.1c0-0.1-0.1-0.6-0.2-0.7c-0.2-0.1-0.7-0.3-0.7-0.3s-0.1-0.1-0.1-0.3
		c0-0.1,0.1-0.3,0.1-0.3c0.1-0.1,0.3-0.5,0.4-0.7c0.1-0.3,0.2-0.9,0.2-0.9c0-0.1,0.2-0.2,0.3-0.3c0.2-0.1,0.4-1.5,0.4-1.5
		c0-0.5-0.2-0.3-0.2-0.6v-1.2c0-1.5-1.2-2.5-2.7-2.5h-0.1c-1.5,0-2.7,1-2.7,2.5v1.2c0,0.3-0.2,0.1-0.2,0.6c0,0,0.2,1.4,0.4,1.5
		c0.1,0.1,0.3,0.1,0.3,0.3c0,0,0.1,0.7,0.1,0.9c0.1,0.3,0.3,0.6,0.4,0.7c0,0,0.1,0.1,0.1,0.3c0,0.1-0.1,0.2-0.1,0.3
		c0,0-0.5,0.3-0.7,0.3c-0.2,0.1-0.2,0.5-0.2,0.7c-0.6,0.2-3.8,1.7-4.2,2.1c-0.3,0.3-0.3,1.9-0.3,1.9v0.2c0,0.4,0.3,0.7,0.7,0.7h12.7
		c0.4,0,0.7-0.3,0.7-0.7v-0.2C-226-352.9-226-354.5-226.3-354.8"/>
</g>
<g id="Imported-Layers-13_2_" transform="translate(3.000000, 938.000000)" sketch:type="MSShapeGroup">
	<path id="Fill-1_10_" class="st17" d="M-228.5-357.1c1.2,0.5,2.6,1.2,2.9,1.6c0.2,0.2,0.5,0.6,0.5,2.4h3.5c0.3,0,0.5-0.2,0.5-0.5
		v-0.2c0,0,0-1.2-0.2-1.4c-0.3-0.3-2.8-1.4-3.3-1.6c0-0.1-0.1-0.5-0.2-0.5c-0.1-0.1-0.5-0.2-0.5-0.2s0-0.1-0.1-0.2
		c0-0.1,0.1-0.2,0.1-0.2c0.1-0.1,0.3-0.4,0.3-0.6c0.1-0.2,0.1-0.7,0.1-0.7c0-0.1,0.2-0.2,0.3-0.2c0.2-0.1,0.3-1.2,0.3-1.2
		c0-0.4-0.1-0.2-0.1-0.5v-1c0-1.2-1-1.9-2.2-1.9l0,0c-1.2,0-2.2,0.8-2.2,1.9v1c0,0.3-0.1,0.1-0.1,0.5c0,0,0.1,1.1,0.3,1.2
		c0.1,0.1,0.3,0.1,0.3,0.2c0,0,0.1,0.5,0.1,0.7c0.1,0.2,0.3,0.5,0.3,0.6c0,0,0.1,0.1,0.1,0.2c0,0.1-0.1,0.2-0.1,0.2
		s-0.4,0.2-0.5,0.2C-228.4-357.3-228.5-357.2-228.5-357.1L-228.5-357.1L-228.5-357.1z"/>
	<path id="Fill-2_12_" class="st18" d="M-226.3-354.8c-0.4-0.4-3.6-1.9-4.2-2.1c0-0.1-0.1-0.6-0.2-0.7c-0.2-0.1-0.7-0.3-0.7-0.3
		s-0.1-0.1-0.1-0.3c0-0.1,0.1-0.3,0.1-0.3c0.1-0.1,0.3-0.5,0.4-0.7c0.1-0.3,0.2-0.9,0.2-0.9c0-0.1,0.2-0.2,0.3-0.3
		c0.2-0.1,0.4-1.5,0.4-1.5c0-0.5-0.2-0.3-0.2-0.6v-1.2c0-1.5-1.2-2.5-2.7-2.5h-0.1c-1.5,0-2.7,1-2.7,2.5v1.2c0,0.3-0.2,0.1-0.2,0.6
		c0,0,0.2,1.4,0.4,1.5c0.1,0.1,0.3,0.1,0.3,0.3c0,0,0.1,0.7,0.1,0.9c0.1,0.3,0.3,0.6,0.4,0.7c0,0,0.1,0.1,0.1,0.3
		c0,0.1-0.1,0.2-0.1,0.3c0,0-0.5,0.3-0.7,0.3c-0.2,0.1-0.2,0.5-0.2,0.7c-0.6,0.2-3.8,1.7-4.2,2.1c-0.3,0.3-0.3,1.9-0.3,1.9v0.2
		c0,0.4,0.3,0.7,0.7,0.7h12.7c0.4,0,0.7-0.3,0.7-0.7v-0.2C-226-352.9-226-354.5-226.3-354.8"/>
</g>
<g id="Page-1_4_" transform="translate(4.000000, 623.000000)" sketch:type="MSShapeGroup">
	<g id="Imported-Layers-10_3_">
		<path id="Fill-1_8_" class="st19" d="M-222.5-362v-1c0-0.6-0.5-1-1-1h-7c-0.3,0-0.7-0.1-1.3-0.8l-0.9-0.9
			c-0.2-0.2-0.4-0.3-0.7-0.3h-6.1c-0.6,0-1,0.4-1,1v15l4-12H-222.5L-222.5-362z"/>
		<path id="Fill-2_9_" class="st20" d="M-218.5-362l-3.8,11.3c-0.1,0.4-0.5,0.7-1,0.7h-17.2l4-12H-218.5L-218.5-362z"/>
	</g>
</g>
<path id="Path_4_" sketch:type="MSShapeGroup" class="st8" d="M-221,186.5l-4.1,3.4v-2l-3-0.1l0.1-3l3,0.1v-2L-221,186.5L-221,186.5
	z"/>
<g id="Imported-Layers-9-_x2B_-Path_1_" transform="translate(4.000000, 665.000000)" sketch:type="MSShapeGroup">
	<g id="Imported-Layers-9_1_">
		<path id="Fill-1_1_" class="st17" d="M-222.5-352.1c0,0.6-0.5,1-1,1h-16c-0.5,0-1-0.4-1-1v-11h18V-352.1"/>
		<path id="Fill-2_1_" class="st18" d="M-239.5-367h6.1c0.3,0,0.5,0.1,0.7,0.3l0.9,0.9c0.6,0.7,1,0.8,1.3,0.8h7c0.5,0,1,0.4,1,1v1
			h-18v-3C-240.5-366.6-240.1-367-239.5-367"/>
	</g>
</g>
<path id="Fill-1_4_" sketch:type="MSShapeGroup" class="st21" d="M-180-205.4c0,1.2-1,2.1-2.1,2.1h-34.3c-1.2,0-2.1-1-2.1-2.1V-231
	h38.5V-205.4"/>
<path id="Fill-2_4_" sketch:type="MSShapeGroup" class="st22" d="M-216.4-237h12.9c0.6,0,1,0.3,1.4,0.6l1.9,1.9
	c0.4,0.4,1.2,0.7,1.8,0.7h16.4c1.2,0,1.9,0.8,1.9,2v0.8h-38.4v-4C-218.5-236.1-217.6-237-216.4-237"/>
<path class="st23" d="M-203.5,1154c0-3.3,2.7-6,6-6s6,2.7,6,6s-2.7,6-6,6"/>
<polygon class="st18" points="-206.5,1154 -200.5,1154 -203.5,1158 "/>
<g>
	<path id="Combined-Shape_9_" class="st24" d="M-218,152c0,0.5-0.4,1-1,1h-16c-0.6,0-1-0.5-1-1v-11h18V152"/>
	<path id="Combined-Shape_8_" class="st8" d="M-233,146.5l2.5,2.5l0.5-0.5l-1-1.5h6v-1h-6l1-1.5l-0.5-0.5L-233,146.5z M-224,146h2v1
		h-2V146z"/>
	<path id="Fill-2_34_" class="st16" d="M-235,137l6.1,0c0.3,0,0.5,0.1,0.7,0.3l0.9,0.9c0.6,0.7,1,0.8,1.3,0.8h7c0.6,0,1,0.4,1,1v1
		h-18v-3C-236,137.4-235.6,137-235,137"/>
</g>
<g id="Group_30_" transform="translate(0.000000, 31.000000)">
	<path id="Combined-Shape_7_" class="st25" d="M-219,202c0,0.5-0.4,1-1,1h-16c-0.6,0-1-0.5-1-1v-11h18V202"/>
	<path id="Combined-Shape_6_" class="st8" d="M-222,196.5l-2.5,2.5l-0.5-0.5l1-1.5h-6v-1h6l-1-1.5l0.5-0.5L-222,196.5z M-231,196h-2
		v1h2V196z"/>
	<path id="Fill-2_32_" class="st16" d="M-236,187l6.1,0c0.3,0,0.5,0.1,0.7,0.3l0.9,0.9c0.6,0.7,1,0.8,1.3,0.8h7c0.6,0,1,0.4,1,1v1
		h-18v-3C-237,187.4-236.6,187-236,187"/>
</g>
<g>
	<g id="Imported-Layers-11_3_" transform="translate(24.000000, 48.000000)" sketch:type="MSLayerGroup">
		<path id="Fill-1_13_" sketch:type="MSShapeGroup" class="st16" d="M-259.5,129h6.1c0.3,0,0.5,0.1,0.7,0.3l0.9,0.9
			c0.6,0.7,1,0.8,1.3,0.8h7c0.6,0,1,0.5,1,1v10l-18,3v-15C-260.5,129.4-260,129-259.5,129"/>
		<path id="Fill-2_5_" sketch:type="MSShapeGroup" class="st25" d="M-238.5,133l-3.8,11.3c-0.1,0.4-0.5,0.7-0.9,0.7h-17.3l4-12
			H-238.5z"/>
	</g>
	<path id="Combined-Shape_11_" class="st8" d="M-231.3,186.5l1.7,2.5l0.7-0.5l-0.5-1.5h6l0.3-1h-6l1.5-1.5l-0.3-0.5L-231.3,186.5z
		 M-222.2,186h2l-0.3,1h-2L-222.2,186z"/>
</g>
<path id="Combined-Shape_2_" class="st8" d="M-211.8-217.1l5.3,5.3l1.1-1.1l-2.1-3.2h12.7v-2.1h-12.7l2.1-3.2l-1.1-1.1L-211.8-217.1
	z M-192.7-218.2h4.2v2.1h-4.2V-218.2z"/>
<g>
	<g id="Page-1_3_">
		<g id="Fill-2-_x2B_-Fill-1_2_" transform="translate(0.000000, 1.000000)">
			<path id="Fill-2_7_" class="st22" d="M-233.5-366.3h27.5c1.2,0,2.2,0.6,3.1,1.4l4.1,4.1c0.8,0.8,2.6,1.6,3.8,1.6h35
				c2.5,0,4,1.8,4,4.2v1.8h-82v-8.5C-238-364.3-236-366.3-233.5-366.3"/>
			<path id="Fill-1_6_" class="st21" d="M-156-298.8c0,2.5-2,4.5-4.5,4.5h-73c-2.5,0-4.5-2-4.5-4.5v-54.5h82V-298.8"/>
		</g>
	</g>
	<path id="Combined-Shape_3_" class="st8" d="M-224.4-323l11.3,11.3l2.3-2.3l-4.5-6.8h27.2v-4.5h-27.2l4.5-6.8l-2.3-2.3L-224.4-323z
		 M-183.7-325.3h9.1v4.5h-9.1V-325.3z"/>
</g>
<g>
	<path class="st26" d="M-218.5-258c0,0.5-0.4,1-1,1h-16c-0.6,0-1-0.5-1-1v-11h18V-258z"/>
	<polygon class="st8" points="-223.5,-265.5 -222.5,-264 -225.5,-264 -225.5,-263 -222.5,-263 -223.5,-261.5 -223,-261 
		-220.5,-263.5 -223,-266 	"/>
	<polygon class="st8" points="-234.5,-263.5 -232,-261 -231.5,-261.5 -232.5,-263 -229.5,-263 -229.5,-264 -232.5,-264 
		-231.5,-265.5 -232,-266 	"/>
	<rect x="-228.5" y="-264" class="st8" width="2" height="1"/>
	<path id="Fill-2_6_" class="st27" d="M-235.5-273l6.1,0c0.3,0,0.5,0.1,0.7,0.3l0.9,0.9c0.6,0.7,1,0.8,1.3,0.8h7c0.6,0,1,0.5,1,1v1
		h-18v-3C-236.5-272.6-236.1-273-235.5-273"/>
</g>
<g>
	<g id="Page-1_1_" transform="translate(4.000000, 888.000000)" sketch:type="MSShapeGroup">
		<g id="Imported-Layers_2_">
			<path id="Shape_41_" class="st0" d="M-240.5-367v2h15v-1h-7v-1H-240.5L-240.5-367z M-224.5-364h-16v9h16V-364L-224.5-364z"/>
		</g>
	</g>
	<path id="Combined-Shape_1_" class="st8" d="M-223.6,528.5l-2.2,2.2l-0.4-0.4l0.9-1.3h-5.3V528h5.3l-0.9-1.3l0.4-0.4L-223.6,528.5z
		 M-231.6,528h-1.8v0.9h1.8V528z"/>
</g>
<g>
	<g id="Page-1_2_" transform="translate(4.000000, 888.000000)" sketch:type="MSShapeGroup">
		<g id="Imported-Layers_1_">
			<path id="Shape_1_" class="st28" d="M-240.5-340v2h15v-1h-7v-1H-240.5L-240.5-340z M-224.5-337h-16v9h16V-337L-224.5-337z"/>
		</g>
	</g>
	<path id="Combined-Shape_4_" class="st8" d="M-223.6,555.5l-2.2,2.2l-0.4-0.4l0.9-1.3h-5.3V555h5.3l-0.9-1.3l0.4-0.4L-223.6,555.5z
		 M-231.6,555h-1.8v0.9h1.8V555z"/>
</g>
<g>
	<g id="Page-1_5_">
		<g id="Fill-2-_x2B_-Fill-1_1_" transform="translate(0.000000, 1.000000)">
			<path id="Fill-2_8_" class="st27" d="M-233.5,859h27.5c1.2,0,2.2,0.6,3.1,1.4l4.1,4.1c0.8,0.8,2.6,1.6,3.8,1.6h35
				c2.5,0,4,1.8,4,4.2v1.8h-82v-8.5C-238,861-236,859-233.5,859"/>
			<path id="Fill-1_5_" class="st26" d="M-156,926.5c0,2.5-2,4.5-4.5,4.5h-73c-2.5,0-4.5-2-4.5-4.5V872h82V926.5"/>
		</g>
	</g>
</g>
<g>
	<g>
		<g id="Page-1_6_">
			<g id="Fill-2-_x2B_-Fill-1_3_" transform="translate(0.000000, 1.000000)">
				<path id="Fill-2_2_" class="st27" d="M-233.5,959h27.5c1.2,0,2.2,0.6,3.1,1.4l4.1,4.1c0.8,0.8,2.6,1.6,3.8,1.6h35
					c2.5,0,4,1.8,4,4.2v1.8h-82v-8.5C-238,961-236,959-233.5,959"/>
				<path id="Fill-1_2_" class="st26" d="M-156,1026.5c0,2.5-2,4.5-4.5,4.5h-73c-2.5,0-4.5-2-4.5-4.5V972h82V1026.5"/>
			</g>
		</g>
	</g>
	<polygon class="st8" points="-178.8,993.1 -174.2,1000 -187.9,1000 -187.9,1004.5 -174.2,1004.5 -178.8,1011.4 -176.5,1013.6 
		-165.1,1002.3 -176.5,990.9 	"/>
	<polygon class="st8" points="-228.9,1002.3 -217.5,1013.6 -215.2,1011.4 -219.8,1004.5 -206.1,1004.5 -206.1,1000 -219.8,1000 
		-215.2,993.1 -217.5,990.9 	"/>
	<rect x="-201.6" y="1000" class="st8" width="9.1" height="4.6"/>
</g>
<g>
	<g id="Page-1_7_">
		<g id="Fill-2-_x2B_-Fill-1_4_" transform="translate(0.000000, 1.000000)">
			<path id="Fill-2_3_" class="st22" d="M-233.5,1189h27.5c1.2,0,2.2,0.6,3.1,1.4l4.1,4.1c0.8,0.8,2.6,1.6,3.8,1.6h35
				c2.5,0,4,1.8,4,4.2v1.8h-82v-8.5C-238,1191-236,1189-233.5,1189"/>
			<path id="Fill-1_3_" class="st21" d="M-156,1256.5c0,2.5-2,4.5-4.5,4.5h-73c-2.5,0-4.5-2-4.5-4.5V1202h82V1256.5"/>
		</g>
	</g>
</g>
<g>
	<g id="Page-1_8_">
		<g id="Fill-2-_x2B_-Fill-1_5_" transform="translate(0.000000, 1.000000)">
			<path id="Fill-2_10_" class="st22" d="M-233.5,1299h27.5c1.2,0,2.2,0.6,3.1,1.4l4.1,4.1c0.8,0.8,2.6,1.6,3.8,1.6h35
				c2.5,0,4,1.8,4,4.2v1.8h-82v-8.5C-238,1301-236,1299-233.5,1299"/>
			<path id="Fill-1_7_" class="st21" d="M-156,1366.5c0,2.5-2,4.5-4.5,4.5h-73c-2.5,0-4.5-2-4.5-4.5V1312h82V1366.5"/>
		</g>
	</g>
</g>
<g id="Group_3_" transform="translate(0.000000, 31.000000)">
	<path id="Combined-Shape_12_" class="st8" d="M-169.7,1311.3l-11.4,11.4l-2.3-2.3l4.6-6.8h-27.3v-4.6h27.3l-4.6-6.8l2.3-2.3
		L-169.7,1311.3z M-210.7,1309h-9.1v4.6h9.1V1309z"/>
</g>
</svg>
