<?xml version="1.0" encoding="utf-8"?>
<!-- Generator: Adobe Illustrator 16.0.0, SVG Export Plug-In . SVG Version: 6.00 Build 0)  -->
<!DOCTYPE svg PUBLIC "-//W3C//DTD SVG 1.1//EN" "http://www.w3.org/Graphics/SVG/1.1/DTD/svg11.dtd">
<svg version="1.1" id="Layer_1" xmlns="http://www.w3.org/2000/svg" xmlns:xlink="http://www.w3.org/1999/xlink" x="0px" y="0px"
	 width="100px" height="1500px" viewBox="0 0 100 1500" enable-background="new 0 0 100 1500" xml:space="preserve">
<g opacity="0.3">
	<path fill="#010101" d="M83,1342c0-1.583-1-3-3-3H52l-5-5H18c-1.917,0-3,0.751-3,3v7h68V1342z"/>
	<path fill="#010101" d="M14,1346v45c0,1.835,1,3,3,3h66c2.333,0,3-0.999,3-3v-45H14z"/>
</g>
<path fill="#FFFFFF" d="M56,390c0-4.42-3.58-8-8-8s-8,3.58-8,8s3.58,8,8,8S56,394.42,56,390z M50,385v4h3l-5,6l-5-6h3v-4H50z"/>
<g>
	<polygon fill="#FFFFFF" points="49.5,471 49.5,469 41.5,469 41.5,466 37.5,470 41.5,474 41.5,471 	"/>
	<path fill="#FFFFFF" d="M49.5,463c-3.17,0-5.85,2.109-6.71,5h2.13c0.77-1.76,2.53-3,4.58-3c2.76,0,5,2.24,5,5s-2.24,5-5,5
		c-2.05,0-3.81-1.24-4.58-3h-2.13c0.86,2.891,3.54,5,6.71,5c3.87,0,7-3.13,7-7S53.37,463,49.5,463z"/>
</g>
<g>
	<g>
		<path fill="#FFFFFF" d="M41,437h12v-7c-2.76,0-5-2.24-5-5c0-0.71,0.15-1.391,0.41-2H44l-3,3V437z"/>
	</g>
	<path fill="#FFFFFF" d="M49,425c0,2.21,1.79,4,4,4s4-1.79,4-4s-1.79-4-4-4S49,422.79,49,425z M51,424h2v-2l3,3l-3,3v-2h-2V424z"/>
</g>
<g>
	<path fill="#EDC11E" d="M92.25,11.5c0-2.07-1.68-3.75-3.75-3.75h-35L47.25,1.5H11c-2.08,0-3.75,1.67-3.75,3.75V14h85V11.5z M6,16.5
		v56.25c0,2.06,1.69,3.75,3.75,3.75h82.5c2.061,0,3.75-1.69,3.75-3.75V16.5H6z"/>
	<path fill="#FFFFFF" d="M58.46,51.34c0-0.37-0.2-1.66-0.69-1.89c-0.47-0.17-2-0.91-2-0.91c0-0.11-0.17-0.43-0.199-0.77
		c0-0.38,0.199-0.75,0.199-0.75c0.211-0.4,0.961-1.34,1.16-2.08c0.2-0.74,0.43-2.63,0.43-2.63c0-0.4,0.611-0.57,0.99-0.77
		c0.66-0.32,1.43-4.35,1.43-4.35c0-1.31-0.34-0.74-0.34-1.68V32c0-4.32-3.959-7.06-8.356-7.06h-0.16c-4.399,0-8.36,2.74-8.36,7.06
		v3.51c0,0.94-0.34,0.37-0.34,1.68c0,0,0.66,4.03,1.33,4.35c0.37,0.2,1.03,0.37,1.03,0.77c0,0,0.26,1.89,0.46,2.63
		s0.97,1.68,1.17,2.08c0,0,0.21,0.37,0.21,0.75c-0.03,0.34-0.2,0.66-0.2,0.77c0,0-1.53,0.74-1.99,0.91
		c-0.49,0.229-0.69,1.52-0.69,1.89c-1.74,0.57-11,4.8-12.04,5.85c-0.75,0.78-0.75,5.29-0.75,5.29v0.57c0,1.03,1.08,2.2,2.13,2.2
		h36.24c1.05,0,2.13-1.17,2.13-2.2v-0.57c0,0,0-4.51-0.75-5.29C69.45,56.14,60.2,51.91,58.46,51.34z M84.189,55.8
		C83.4,55,76.46,51.83,75.16,51.4c0-0.28-0.15-1.24-0.52-1.41c-0.354-0.13-1.5-0.68-1.5-0.68c0-0.09-0.134-0.33-0.15-0.58
		c0-0.28,0.15-0.56,0.15-0.56c0.156-0.3,0.719-1.01,0.866-1.57c0.15-0.55,0.32-1.97,0.32-1.97c0-0.3,0.46-0.43,0.737-0.58
		c0.5-0.229,1.279-3.25,1.279-3.25c0-0.99-0.039-0.56-0.039-1.27V36.9c0-3.24-3.381-5.3-6.681-5.3H69.5c-3.3,0-6.689,2.06-6.689,5.3
		v2.63c0,0.71-0.041,0.28-0.041,1.27c0,0,0.604,3.021,1.104,3.25c0.277,0.15,0.83,0.28,0.83,0.58c0,0,0.22,1.42,0.367,1.97
		c0.15,0.56,0.729,1.27,0.893,1.57c0,0,0.16,0.28,0.16,0.56c-0.021,0.25-0.143,0.49-0.143,0.58c0,0-1.147,0.55-1.5,0.68
		c-0.371,0.17-0.521,1.13-0.521,1.41c-0.13,0.05-0.33,0.13-0.569,0.22c3.34,1.51,7.42,3.51,8.319,4.41
		c0.29,0.3,1.069,1.05,1.17,5.47h10c0.78,0,1.87-0.54,1.87-1.31v-0.43C84.75,59.76,84.75,56.38,84.189,55.8z M38.03,51.4
		c0-0.28-0.15-1.24-0.52-1.41c-0.34-0.13-1.49-0.68-1.49-0.68c0-0.09-0.13-0.33-0.15-0.58c0-0.28,0.15-0.56,0.15-0.56
		c0.15-0.3,0.71-1.01,0.86-1.57c0.16-0.55,0.33-1.97,0.33-1.97c0-0.3,0.46-0.43,0.74-0.58c0.5-0.229,1.28-3.25,1.28-3.25
		c0-0.99-0.04-0.56-0.04-1.27V36.9c0-3.24-3.39-5.3-6.69-5.3h-0.12c-3.31,0-6.69,2.06-6.69,5.3v2.63c0,0.71-0.05,0.28-0.05,1.27
		c0,0,0.6,3.021,1.1,3.25c0.28,0.15,0.83,0.28,0.83,0.58c0,0,0.22,1.42,0.37,1.97c0.15,0.56,0.74,1.27,0.89,1.57
		c0,0,0.17,0.28,0.17,0.56c-0.02,0.25-0.15,0.49-0.15,0.58c0,0-1.14,0.55-1.49,0.68c-0.37,0.17-0.52,1.13-0.52,1.41
		c-1.3,0.43-8.25,3.6-9.03,4.4c-0.56,0.58-0.56,3.96-0.56,3.96v0.43c0,0.77,1.09,1.31,1.87,1.31h10c0.1-4.42,0.88-5.17,1.16-5.46
		c0.9-0.91,4.99-2.91,8.33-4.42C38.37,51.53,38.17,51.45,38.03,51.4z"/>
</g>
<g opacity="0.2">
	<path fill="#191717" d="M46,350c0-1.1,0.9-2,2-2s2,0.9,2,2s-0.9,2-2,2S46,351.1,46,350z"/>
</g>
<path fill="#030303" d="M10,507v2h15v-1h-7v-1H10z M10,519h16v-9H10V519z M19.24,515.26c0.279,0.09,1.77,0.771,1.939,0.94
	c0.12,0.13,0.12,0.85,0.12,0.85v0.104c0,0.157-0.18,0.85-0.34,0.85h-5.851c-0.17,0-0.34-0.688-0.34-0.85v-0.104
	c0,0,0-0.72,0.121-0.85c0.17-0.171,1.659-0.854,1.939-0.94c0-0.06,0.029-0.27,0.109-0.31c0.08-0.03,0.32-0.15,0.32-0.15
	c0-0.01,0.03-0.06,0.04-0.12c0-0.06-0.04-0.119-0.04-0.119c-0.029-0.061-0.16-0.221-0.189-0.34C17.04,514.109,17,513.8,17,513.8
	c0-0.06-0.109-0.09-0.17-0.12c-0.109-0.05-0.21-0.697-0.21-0.697c0-0.223,0.05-0.12,0.05-0.271v-0.567
	c0-0.701,0.641-1.143,1.35-1.143h0.03c0.71,0,1.341,0.438,1.341,1.143v0.567c0,0.148,0.06,0.05,0.06,0.271
	c0,0-0.12,0.647-0.229,0.697c-0.061,0.03-0.16,0.062-0.16,0.12c0,0-0.041,0.312-0.07,0.421c-0.03,0.119-0.15,0.279-0.19,0.34
	c0,0-0.03,0.062-0.03,0.119c0.01,0.062,0.03,0.11,0.03,0.12c0,0,0.25,0.12,0.32,0.15C19.2,514.99,19.24,515.2,19.24,515.26z
	 M15.35,515.37l0.09,0.04c-0.529,0.24-1.189,0.561-1.34,0.71c-0.039,0.05-0.17,0.17-0.189,0.88H12.3c-0.12,0-0.3-0.09-0.3-0.21
	v-0.069c0,0,0-0.551,0.09-0.641c0.131-0.13,1.25-0.641,1.46-0.71c0-0.04,0.021-0.2,0.08-0.229l0.24-0.108
	c0-0.013,0.021-0.052,0.021-0.093c0-0.036-0.021-0.09-0.021-0.09c-0.03-0.05-0.12-0.16-0.149-0.25
	c-0.021-0.09-0.061-0.317-0.061-0.317c0-0.052-0.08-0.069-0.131-0.093c-0.079-0.038-0.18-0.526-0.18-0.526
	c0-0.16,0.01-0.09,0.01-0.2v-0.431c0-0.521,0.551-0.853,1.08-0.853h0.021c0.53,0,1.08,0.33,1.08,0.853v0.431c0,0.11,0,0.04,0,0.2
	c0,0-0.12,0.488-0.2,0.526c-0.05,0.021-0.119,0.041-0.119,0.093c0,0-0.031,0.229-0.051,0.317c-0.029,0.09-0.12,0.2-0.141,0.25
	c0,0-0.029,0.054-0.029,0.09c0.01,0.041,0.029,0.08,0.029,0.093l0.24,0.108C15.33,515.17,15.35,515.33,15.35,515.37z M23.91,516.08
	c0.09,0.09,0.09,0.641,0.09,0.641v0.069c0,0.12-0.18,0.21-0.3,0.21h-1.62c-0.01-0.71-0.141-0.83-0.18-0.88
	c-0.15-0.149-0.811-0.47-1.34-0.71l0.09-0.04c0-0.04,0.02-0.2,0.08-0.229l0.24-0.108c0-0.013,0.02-0.052,0.029-0.093
	c0-0.036-0.029-0.09-0.029-0.09c-0.021-0.05-0.121-0.16-0.141-0.25c-0.03-0.09-0.061-0.317-0.061-0.317
	c0-0.052-0.09-0.069-0.14-0.093c-0.08-0.038-0.17-0.526-0.17-0.526c0-0.16,0-0.09,0-0.2v-0.431c0-0.521,0.55-0.853,1.08-0.853h0.021
	c0.529,0,1.08,0.33,1.08,0.853v0.431c0,0.11,0.01,0.04,0.01,0.2c0,0-0.131,0.488-0.211,0.526c-0.049,0.021-0.119,0.041-0.119,0.093
	c0,0-0.03,0.229-0.051,0.317c-0.029,0.09-0.119,0.2-0.14,0.25c0,0-0.03,0.054-0.03,0.09c0.01,0.041,0.03,0.08,0.03,0.093l0.24,0.108
	c0.06,0.029,0.08,0.189,0.08,0.229C22.66,515.439,23.779,515.95,23.91,516.08z"/>
<path opacity="0.5" fill="#030303" enable-background="new    " d="M10,97v2h15v-1h-7v-1H10z M10,109h16v-9H10V109z M19.24,105.26
	c0.279,0.09,1.77,0.771,1.939,0.94c0.12,0.13,0.12,0.85,0.12,0.85v0.103c0,0.159-0.18,0.85-0.34,0.85h-5.851
	c-0.17,0-0.34-0.689-0.34-0.85v-0.103c0,0,0-0.72,0.121-0.85c0.17-0.171,1.659-0.853,1.939-0.94c0-0.06,0.029-0.27,0.109-0.31
	c0.08-0.03,0.32-0.15,0.32-0.15c0-0.01,0.03-0.06,0.04-0.12c0-0.06-0.04-0.119-0.04-0.119c-0.029-0.061-0.16-0.221-0.189-0.34
	C17.04,104.109,17,103.8,17,103.8c0-0.06-0.109-0.09-0.17-0.12c-0.109-0.05-0.21-0.698-0.21-0.698c0-0.222,0.05-0.121,0.05-0.271
	v-0.569c0-0.7,0.641-1.141,1.35-1.141h0.03c0.71,0,1.341,0.439,1.341,1.141v0.569c0,0.149,0.06,0.05,0.06,0.271
	c0,0-0.12,0.648-0.229,0.698c-0.061,0.03-0.16,0.062-0.16,0.12c0,0-0.041,0.312-0.07,0.421c-0.03,0.119-0.15,0.279-0.19,0.34
	c0,0-0.03,0.061-0.03,0.119c0.01,0.062,0.03,0.11,0.03,0.12c0,0,0.25,0.12,0.32,0.15C19.2,104.99,19.24,105.2,19.24,105.26z
	 M15.35,105.37l0.09,0.04c-0.529,0.24-1.189,0.561-1.34,0.71c-0.039,0.05-0.17,0.17-0.189,0.88H12.3c-0.12,0-0.3-0.09-0.3-0.21
	v-0.069c0,0,0-0.551,0.09-0.641c0.131-0.13,1.25-0.641,1.46-0.71c0-0.04,0.021-0.2,0.08-0.229l0.24-0.11
	c0-0.011,0.021-0.05,0.021-0.091c0-0.038-0.021-0.09-0.021-0.09c-0.03-0.05-0.12-0.16-0.149-0.25
	c-0.021-0.09-0.061-0.319-0.061-0.319c0-0.05-0.08-0.069-0.131-0.091c-0.079-0.039-0.18-0.528-0.18-0.528c0-0.16,0.01-0.09,0.01-0.2
	v-0.431c0-0.521,0.551-0.852,1.08-0.852h0.021c0.53,0,1.08,0.33,1.08,0.852v0.431c0,0.11,0,0.04,0,0.2c0,0-0.12,0.489-0.2,0.528
	c-0.05,0.021-0.119,0.041-0.119,0.091c0,0-0.031,0.229-0.051,0.319c-0.029,0.09-0.12,0.2-0.141,0.25c0,0-0.029,0.052-0.029,0.09
	c0.01,0.041,0.029,0.08,0.029,0.091l0.24,0.11C15.33,105.17,15.35,105.33,15.35,105.37z M23.91,106.08
	c0.09,0.09,0.09,0.641,0.09,0.641v0.069c0,0.12-0.18,0.21-0.3,0.21h-1.62c-0.01-0.71-0.141-0.83-0.18-0.88
	c-0.15-0.149-0.811-0.47-1.34-0.71l0.09-0.04c0-0.04,0.02-0.2,0.08-0.229l0.24-0.11c0-0.011,0.02-0.05,0.029-0.091
	c0-0.038-0.029-0.09-0.029-0.09c-0.021-0.05-0.121-0.16-0.141-0.25c-0.03-0.09-0.061-0.319-0.061-0.319
	c0-0.05-0.09-0.069-0.14-0.091c-0.08-0.039-0.17-0.528-0.17-0.528c0-0.16,0-0.09,0-0.2v-0.431c0-0.521,0.55-0.852,1.08-0.852h0.021
	c0.529,0,1.08,0.33,1.08,0.852v0.431c0,0.11,0.01,0.04,0.01,0.2c0,0-0.131,0.489-0.211,0.528c-0.049,0.021-0.119,0.041-0.119,0.091
	c0,0-0.03,0.229-0.051,0.319c-0.029,0.09-0.119,0.2-0.14,0.25c0,0-0.03,0.052-0.03,0.09c0.01,0.041,0.03,0.08,0.03,0.091l0.24,0.11
	c0.06,0.029,0.08,0.189,0.08,0.229C22.66,105.439,23.779,105.95,23.91,106.08z"/>
<g>
	<g>
		<path fill="#EBC21D" d="M64,137c0-0.55-0.45-1-1.01-1H47l-3-3H30.01c-0.56,0-1.01,0.45-1.01,1v4h35V137z"/>
		<path fill="#EBC21D" d="M28,139v23c0,0.55,0.45,1,1.01,1h35.98c0.56,0,1.01-0.45,1.01-1v-23H28z"/>
	</g>
	<g>
		<path fill="#FFFFFF" d="M50.08,153.79c0-0.17-0.09-0.74-0.311-0.84c-0.209-0.08-0.891-0.41-0.891-0.41c0-0.05-0.08-0.2-0.09-0.35
			c0-0.16,0.09-0.33,0.09-0.33c0.092-0.18,0.432-0.6,0.521-0.93c0.09-0.33,0.188-1.17,0.188-1.17c0-0.18,0.271-0.26,0.438-0.35
			c0.291-0.14,0.632-1.94,0.632-1.94c0-0.58-0.15-0.33-0.15-0.75v-1.57c0-1.92-1.76-3.15-3.71-3.15H46.72
			c-1.951,0-3.711,1.23-3.711,3.15v1.57c0,0.42-0.15,0.17-0.15,0.75c0,0,0.29,1.8,0.59,1.94c0.16,0.09,0.46,0.17,0.46,0.35
			c0,0,0.11,0.84,0.2,1.17c0.09,0.33,0.43,0.75,0.52,0.93c0,0,0.09,0.17,0.09,0.33c-0.01,0.15-0.08,0.3-0.08,0.35
			c0,0-0.68,0.33-0.89,0.41c-0.22,0.1-0.31,0.67-0.31,0.84c-0.77,0.25-4.88,2.14-5.35,2.61c-0.33,0.35-0.33,2.36-0.33,2.36v0.26
			c0,0.46,0.48,0.98,0.94,0.98h16.119c0.459,0,0.938-0.52,0.938-0.98v-0.26c0,0,0-2.01-0.329-2.36
			C54.96,155.93,50.85,154.04,50.08,153.79z"/>
	</g>
	<g>
		<path fill="#FFFFFF" d="M36.76,158.76c0-2.42,0.45-2.88,0.62-3.05c0.38-0.39,1.9-1.16,3.29-1.81c-0.15-0.05-0.64-0.29-0.64-0.29
			c0-0.04-0.05-0.141-0.06-0.25c0-0.12,0.06-0.24,0.06-0.24c0.07-0.13,0.31-0.43,0.37-0.67c0.07-0.24,0.14-0.85,0.14-0.85
			c0-0.13,0.2-0.18,0.32-0.25c0.21-0.1,0.46-1.4,0.46-1.4c0-0.42-0.11-0.24-0.11-0.54v-1.13c0-1.4-1.27-2.28-2.68-2.28h-0.06
			c-1.41,0-2.68,0.88-2.68,2.28v1.13c0,0.3-0.11,0.12-0.11,0.54c0,0,0.21,1.3,0.43,1.4c0.12,0.07,0.33,0.12,0.33,0.25
			c0,0,0.08,0.61,0.15,0.85c0.06,0.24,0.31,0.54,0.37,0.67c0,0,0.07,0.12,0.07,0.24c-0.01,0.109-0.06,0.21-0.06,0.25
			c0,0-0.49,0.24-0.64,0.3c-0.16,0.07-0.23,0.479-0.23,0.6c-0.55,0.19-3.52,1.55-3.86,1.89C32,156.65,32,158.11,32,158.11v0.18
			c0,0.33,0.35,0.71,0.68,0.71h4.08V158.76L36.76,158.76z"/>
		<path fill="#FFFFFF" d="M61.76,156.4c-0.34-0.34-3.31-1.7-3.859-1.89c0-0.12-0.067-0.53-0.229-0.6
			c-0.148-0.06-0.643-0.3-0.643-0.3c0-0.04-0.049-0.14-0.059-0.25c0-0.12,0.059-0.24,0.059-0.24c0.07-0.13,0.312-0.43,0.371-0.67
			c0.07-0.24,0.142-0.85,0.142-0.85c0-0.13,0.2-0.18,0.317-0.25c0.211-0.1,0.461-1.4,0.461-1.4c0-0.42-0.108-0.24-0.108-0.54v-1.13
			c0-1.4-1.271-2.28-2.683-2.28h-0.059c-1.41,0-2.682,0.88-2.682,2.28v1.13c0,0.3-0.109,0.12-0.109,0.54c0,0,0.211,1.3,0.43,1.4
			c0.121,0.07,0.33,0.12,0.33,0.25c0,0,0.08,0.61,0.149,0.85c0.062,0.24,0.312,0.54,0.37,0.67c0,0,0.068,0.12,0.068,0.24
			c-0.01,0.11-0.059,0.21-0.059,0.25c0,0-0.49,0.24-0.643,0.3c-0.053,0.02-0.092,0.08-0.131,0.16c1.289,0.6,2.591,1.28,2.938,1.63
			c0.171,0.18,0.619,0.64,0.619,3.06V159h4.562c0.33,0,0.682-0.38,0.682-0.71v-0.18C62,158.11,62,156.65,61.76,156.4z"/>
	</g>
</g>
<g opacity="0.3">
	<polygon fill="#030303" points="40,303.001 38,308.001 43,306.001 	"/>
	
		<rect x="44.38" y="293.842" transform="matrix(-0.7072 -0.707 0.707 -0.7072 -132.3748 544.1725)" fill="#030303" width="4.243" height="11.314"/>
	<polygon fill="#030303" points="45,307.001 54,308.001 42,308.001 	"/>
</g>
<g opacity="0.3">
	<path fill="#030303" d="M48,257c-2.21,0-4-1.79-4-4s1.79-4,4-4s4,1.79,4,4S50.21,257,48,257z M48,247c-5,0-8.18,4.29-10,6
		c1.82,1.71,5,6,10,6s8.18-4.29,10-6C56.18,251.29,53,247,48,247z"/>
	<path fill="#030303" d="M50,253c0,1.1-0.9,2-2,2s-2-0.9-2-2s0.9-2,2-2S50,251.9,50,253z"/>
</g>
<polygon fill="#59AD46" points="40,205.5 43,202.5 46,205.5 53,198.5 56,201.5 46,211.5 "/>
<g>
	<polygon fill="#030303" points="24,549 24,548 17,548 17,547 10,547 10,557 13,549 	"/>
	<path fill="#030303" d="M23.9,556.721l-0.021,0.069c-0.03,0.12-0.229,0.21-0.351,0.21h-1.6c0.18-0.71,0.08-0.83,0.051-0.88
		c-0.11-0.149-0.67-0.47-1.131-0.71l0.09-0.04c0.021-0.04,0.08-0.2,0.141-0.229l0.27-0.108l0.051-0.093c0.02-0.036,0-0.09,0-0.09
		c-0.01-0.05-0.08-0.16-0.07-0.25c-0.01-0.09,0.02-0.317,0.02-0.317c0.021-0.052-0.07-0.069-0.109-0.093
		c-0.07-0.038-0.03-0.526-0.03-0.526l0.05-0.2l0.12-0.431c0.14-0.521,0.771-0.853,1.29-0.853h0.02c0.531,0,0.98,0.33,0.851,0.853
		l-0.12,0.431c-0.029,0.11,0,0.04-0.04,0.2c0,0-0.26,0.488-0.351,0.526c-0.049,0.021-0.129,0.041-0.139,0.093
		c0,0-0.091,0.229-0.141,0.317c-0.05,0.09-0.17,0.2-0.2,0.25c0,0-0.05,0.054-0.06,0.09l0.01,0.093l0.21,0.108
		c0.05,0.029,0.03,0.189,0.021,0.229c0.189,0.069,1.16,0.58,1.25,0.71C24.05,556.17,23.9,556.721,23.9,556.721z M21.141,557.05
		l-0.021,0.104c-0.05,0.157-0.41,0.85-0.57,0.85h-5.79c-0.17,0-0.15-0.688-0.11-0.85l0.03-0.104c0,0,0.19-0.72,0.34-0.85
		c0.22-0.171,1.87-0.854,2.17-0.94c0.02-0.06,0.1-0.27,0.19-0.31c0.09-0.03,0.36-0.15,0.36-0.15c0-0.01,0.05-0.06,0.07-0.12
		c0.02-0.06-0.01-0.119-0.01-0.119c-0.01-0.061-0.1-0.221-0.09-0.34c0-0.108,0.04-0.421,0.04-0.421c0.01-0.06-0.09-0.09-0.14-0.12
		c-0.09-0.05-0.02-0.699-0.02-0.699c0.06-0.221,0.08-0.118,0.12-0.271l0.15-0.569C18.05,551.439,18.8,551,19.5,551h0.03
		c0.701,0,1.21,0.439,1.02,1.141l-0.15,0.569c-0.041,0.149,0.05,0.05-0.01,0.271c0,0-0.291,0.648-0.411,0.698
		c-0.07,0.03-0.18,0.062-0.19,0.12c0,0-0.13,0.311-0.18,0.421c-0.07,0.119-0.23,0.279-0.28,0.341c0,0-0.05,0.062-0.06,0.119
		c-0.01,0.062,0,0.109-0.01,0.119l0.28,0.15c0.07,0.04,0.05,0.25,0.04,0.31c0.25,0.091,1.55,0.771,1.67,0.94
		C21.33,556.33,21.141,557.05,21.141,557.05z M13.84,557h-1.59c-0.12,0-0.28-0.09-0.25-0.21l0.02-0.069c0,0,0.15-0.551,0.26-0.641
		c0.17-0.13,1.41-0.641,1.64-0.71c0.01-0.04,0.07-0.2,0.14-0.229l0.26-0.108c0.01-0.013,0.04-0.052,0.05-0.093
		c0.01-0.036,0-0.09,0-0.09c-0.02-0.05-0.08-0.16-0.08-0.25l0.02-0.317c0.02-0.052-0.06-0.069-0.1-0.093
		c-0.07-0.038-0.04-0.526-0.04-0.526c0.04-0.16,0.03-0.09,0.06-0.2l0.12-0.431c0.14-0.521,0.77-0.853,1.29-0.853h0.02
		c0.53,0,0.98,0.33,0.85,0.853l-0.12,0.431l-0.05,0.2c0,0-0.25,0.488-0.34,0.526c-0.05,0.021-0.13,0.041-0.14,0.093l-0.14,0.317
		c-0.05,0.09-0.17,0.2-0.2,0.25c0,0-0.04,0.054-0.06,0.09l0.01,0.093l0.21,0.108c0.05,0.029,0.03,0.189,0.02,0.229l0.08,0.04
		c-0.59,0.24-1.33,0.561-1.52,0.71C14.21,556.17,14.05,556.29,13.84,557z M14,550l-4,9h14l4-9H14z"/>
</g>
<path fill="#030303" d="M10,588v2h15v-1h-7v-1H10z M10,600h16v-9H10V600z M19.24,596.26c0.279,0.09,1.77,0.771,1.939,0.94
	c0.12,0.13,0.12,0.85,0.12,0.85v0.104c0,0.157-0.18,0.85-0.34,0.85h-5.851c-0.169,0-0.339-0.688-0.339-0.85v-0.104
	c0,0,0-0.72,0.12-0.85c0.17-0.171,1.66-0.854,1.94-0.94c0-0.06,0.029-0.27,0.109-0.31c0.08-0.03,0.32-0.15,0.32-0.15
	c0-0.01,0.03-0.06,0.04-0.12c0-0.06-0.04-0.119-0.04-0.119c-0.029-0.061-0.16-0.221-0.189-0.34C17.04,595.109,17,594.8,17,594.8
	c0-0.06-0.109-0.09-0.17-0.12c-0.109-0.05-0.21-0.697-0.21-0.697c0-0.223,0.05-0.12,0.05-0.271v-0.567
	c0-0.701,0.641-1.143,1.35-1.143h0.03c0.71,0,1.341,0.438,1.341,1.143v0.567c0,0.148,0.06,0.05,0.06,0.271
	c0,0-0.12,0.647-0.229,0.697c-0.061,0.03-0.16,0.062-0.16,0.12c0,0-0.041,0.312-0.07,0.421c-0.03,0.119-0.15,0.279-0.19,0.34
	c0,0-0.03,0.062-0.03,0.119c0.01,0.062,0.03,0.11,0.03,0.12c0,0,0.25,0.12,0.32,0.15C19.2,595.99,19.24,596.2,19.24,596.26z
	 M15.35,596.37l0.09,0.04c-0.529,0.24-1.189,0.561-1.339,0.71c-0.04,0.05-0.17,0.17-0.19,0.88H12.3c-0.12,0-0.3-0.09-0.3-0.21
	v-0.069c0,0,0-0.551,0.09-0.641c0.13-0.13,1.25-0.641,1.46-0.71c0-0.04,0.02-0.2,0.08-0.229l0.24-0.108
	c0-0.013,0.02-0.052,0.02-0.093c0-0.036-0.02-0.09-0.02-0.09c-0.03-0.05-0.12-0.16-0.15-0.25c-0.02-0.09-0.06-0.317-0.06-0.317
	c0-0.052-0.08-0.069-0.13-0.093c-0.08-0.038-0.18-0.526-0.18-0.526c0-0.16,0.01-0.09,0.01-0.2v-0.431c0-0.521,0.55-0.853,1.08-0.853
	h0.02c0.53,0,1.08,0.33,1.08,0.853v0.431c0,0.11,0,0.04,0,0.2c0,0-0.12,0.488-0.2,0.526c-0.05,0.021-0.119,0.041-0.119,0.093
	c0,0-0.031,0.229-0.051,0.317c-0.029,0.09-0.12,0.2-0.141,0.25c0,0-0.029,0.054-0.029,0.09c0.01,0.041,0.029,0.08,0.029,0.093
	l0.24,0.108C15.33,596.17,15.35,596.33,15.35,596.37z M23.91,597.08c0.09,0.09,0.09,0.641,0.09,0.641v0.069
	c0,0.12-0.18,0.21-0.3,0.21h-1.62c-0.01-0.71-0.141-0.83-0.18-0.88c-0.15-0.149-0.811-0.47-1.34-0.71l0.09-0.04
	c0-0.04,0.02-0.2,0.08-0.229l0.24-0.108c0-0.013,0.02-0.052,0.029-0.093c0-0.036-0.029-0.09-0.029-0.09
	c-0.021-0.05-0.121-0.16-0.141-0.25c-0.03-0.09-0.061-0.317-0.061-0.317c0-0.052-0.09-0.069-0.14-0.093
	c-0.08-0.038-0.17-0.526-0.17-0.526c0-0.16,0-0.09,0-0.2v-0.431c0-0.521,0.55-0.853,1.08-0.853h0.021c0.529,0,1.08,0.33,1.08,0.853
	v0.431c0,0.11,0.01,0.04,0.01,0.2c0,0-0.131,0.488-0.211,0.526c-0.049,0.021-0.119,0.041-0.119,0.093c0,0-0.03,0.229-0.051,0.317
	c-0.029,0.09-0.119,0.2-0.14,0.25c0,0-0.03,0.054-0.03,0.09c0.01,0.041,0.03,0.08,0.03,0.093l0.24,0.108
	c0.06,0.029,0.08,0.189,0.08,0.229C22.66,596.439,23.779,596.95,23.91,597.08z"/>
<g>
	<polygon fill="#030303" points="24,629 24,628 17,628 17,627 10,627 10,637 13,629 	"/>
	<path fill="#030303" d="M14,630l-4,9h14l4-9H14z"/>
</g>
<path fill="#030303" d="M10,668v2h15v-1h-7v-1H10z M10,680h16v-9H10V680z"/>
<path fill="#FFFFFF" d="M8,1036.5c0,4.42,3.58,8,8,8s8-3.58,8-8s-3.58-8-8-8S8,1032.08,8,1036.5z M15,1031.5h2v4h4v2h-4v4h-2v-4h-4
	v-2h4V1031.5z"/>
<g>
	<path fill="#020202" d="M22.779,990.68c-0.309-0.319-3.049-1.59-3.569-1.76c0-0.109-0.06-0.5-0.2-0.57
		c-0.14-0.05-0.6-0.27-0.6-0.27c0-0.03-0.05-0.13-0.06-0.23c0-0.107,0.06-0.22,0.06-0.22c0.06-0.12,0.29-0.409,0.35-0.63
		c0.06-0.221,0.13-0.79,0.13-0.79c0-0.12,0.18-0.17,0.29-0.229c0.19-0.09,0.36-1.301,0.36-1.301c0-0.398-0.17-0.229-0.17-0.51v-1.05
		c0-1.3-1.04-2.12-2.34-2.12h-0.06c-1.3,0-2.34,0.82-2.34,2.12v1.05c0,0.28-0.17,0.109-0.17,0.51c0,0,0.17,1.211,0.36,1.301
		c0.11,0.062,0.29,0.109,0.29,0.229c0,0,0.07,0.569,0.13,0.79c0.06,0.221,0.29,0.51,0.35,0.63c0,0,0.06,0.11,0.06,0.22
		c-0.01,0.103-0.06,0.2-0.06,0.23c0,0-0.46,0.22-0.6,0.27c-0.14,0.07-0.2,0.461-0.2,0.57c-0.52,0.17-3.26,1.439-3.57,1.76
		C11,990.91,11,992.26,11,992.26v0.17c0,0.312,0.26,0.57,0.57,0.57h10.86c0.311,0,0.57-0.26,0.57-0.57v-0.17
		C23,992.26,23,990.91,22.779,990.68z"/>
</g>
<path fill="#020202" d="M21.779,950.68c-0.309-0.319-3.049-1.59-3.569-1.76c0-0.109-0.06-0.5-0.2-0.57c-0.14-0.05-0.6-0.27-0.6-0.27
	c0-0.03-0.05-0.13-0.06-0.23c0-0.107,0.06-0.22,0.06-0.22c0.06-0.12,0.29-0.409,0.35-0.63c0.06-0.221,0.13-0.79,0.13-0.79
	c0-0.12,0.18-0.17,0.29-0.229c0.19-0.09,0.36-1.301,0.36-1.301c0-0.398-0.17-0.229-0.17-0.51v-1.05c0-1.3-1.04-2.12-2.34-2.12h-0.06
	c-1.3,0-2.34,0.82-2.34,2.12v1.05c0,0.28-0.17,0.109-0.17,0.51c0,0,0.17,1.211,0.36,1.301c0.11,0.062,0.29,0.109,0.29,0.229
	c0,0,0.07,0.569,0.13,0.79c0.06,0.221,0.29,0.51,0.35,0.63c0,0,0.06,0.11,0.06,0.22c-0.01,0.103-0.06,0.2-0.06,0.23
	c0,0-0.46,0.22-0.6,0.27c-0.14,0.07-0.2,0.461-0.2,0.57c-0.52,0.17-3.26,1.439-3.57,1.76C10,950.91,10,952.26,10,952.26v0.17
	c0,0.312,0.26,0.57,0.57,0.57h10.86c0.311,0,0.57-0.26,0.57-0.57v-0.17C22,952.26,22,950.91,21.779,950.68z"/>
<path opacity="0.5" fill="#020202" enable-background="new    " d="M25.83,950.26c-0.23-0.24-2.29-1.188-2.67-1.32
	c0-0.079-0.051-0.367-0.16-0.42c-0.1-0.039-0.439-0.209-0.439-0.209c0-0.029-0.041-0.101-0.041-0.17c0-0.091,0.041-0.17,0.041-0.17
	c0.049-0.091,0.209-0.301,0.26-0.471c0.039-0.17,0.09-0.59,0.09-0.59c0-0.09,0.14-0.131,0.22-0.18c0.149-0.07,0.13-0.973,0.13-0.973
	c0-0.3-0.26-0.17-0.26-0.38v-0.79c0-0.97-0.5-1.59-1.48-1.59H21.48c-0.91,0-1.65,0.55-1.74,1.41c0.15,0.09,0.26,0.17,0.26,0.27
	v0.062l-0.1,0.07c-0.01,0.09,0.1,0.17,0.1,0.25v0.317c0,0.21-0.26,0.08-0.26,0.38c0,0,0.05,0.9,0.199,0.973
	c0.08,0.049,0.181,0.09,0.181,0.18c0,0,0.03,0.42,0.08,0.59c0.04,0.17,0.2,0.38,0.25,0.471c0,0,0.04,0.079,0.04,0.17
	c-0.01,0.069-0.051,0.141-0.051,0.17c0,0-0.34,0.17-0.439,0.209c-0.02,0.012-0.04,0.03-0.061,0.053
	c1.011,0.459,2.23,1.068,2.561,1.408c0.16,0.16,0.46,0.5,0.49,2.021h2.59c0.23,0,0.42-0.188,0.42-0.42v-0.13
	C26,951.45,26,950.43,25.83,950.26z"/>
<g>
	<path fill="#FFFFFF" d="M29.871,731.769c-0.46-0.118-0.82-0.459-0.8-0.93c0-0.109,0.08-0.188,0.15-0.24
		c1.02-0.568,1.75-1.459,1.779-2.6c0.061-2.35-2.061-4.1-4.311-4.73c0.09,1.69-0.39,3.281-1.42,4.553
		c-0.91,1.13-2.18,1.947-3.68,2.398c0.79,0.709,1.87,1.159,3.141,1.25c0.72,0.049,1.459,0,2.209-0.101
		c0.801,0.64,1.951,0.67,2.92,0.61C30.161,731.959,30.109,731.829,29.871,731.769z"/>
	<path fill="#FFFFFF" d="M25.121,722.199c-0.79-3.561-4.36-4.74-7.84-3.979c-3.18,0.689-6.36,3.119-6.28,6.439
		c0.04,1.529,1.01,2.71,2.37,3.47c0.09,0.07,0.2,0.181,0.21,0.32c0.03,0.64-0.46,1.079-1.07,1.239c-0.32,0.08-0.39,0.25,0.01,0.28
		c1.3,0.091,2.83,0.038,3.9-0.812c0.99,0.13,1.97,0.197,2.94,0.13C23.34,729.009,25.991,726.099,25.121,722.199z"/>
</g>
<path fill="#FFFFFF" d="M10,855c0,4.42,3.58,8,8,8s8-3.58,8-8s-3.58-8-8-8S10,850.58,10,855z M16,860v-4h-3l5-6l5,6h-3v4H16z"/>
<path fill="#FFFFFF" d="M10,899v2h15v-1h-7v-1H10z M10,911h16v-9H10V911z M19.24,907.26c0.279,0.09,1.77,0.771,1.939,0.94
	c0.12,0.13,0.12,0.85,0.12,0.85v0.102c0,0.159-0.18,0.851-0.34,0.851h-5.85c-0.17,0-0.34-0.688-0.34-0.851v-0.102
	c0,0,0-0.72,0.12-0.85c0.17-0.171,1.66-0.852,1.94-0.94c0-0.06,0.03-0.27,0.11-0.31c0.08-0.03,0.32-0.15,0.32-0.15
	c0-0.01,0.03-0.06,0.04-0.12c0-0.06-0.04-0.119-0.04-0.119c-0.03-0.061-0.16-0.221-0.19-0.34C17.04,906.109,17,905.8,17,905.8
	c0-0.06-0.11-0.09-0.17-0.12c-0.11-0.05-0.21-0.699-0.21-0.699c0-0.221,0.05-0.119,0.05-0.271v-0.569c0-0.7,0.64-1.141,1.35-1.141
	h0.03c0.71,0,1.34,0.439,1.34,1.141v0.569c0,0.149,0.06,0.05,0.06,0.271c0,0-0.12,0.649-0.23,0.699c-0.06,0.03-0.16,0.062-0.16,0.12
	c0,0-0.04,0.311-0.07,0.421c-0.03,0.119-0.15,0.279-0.19,0.34c0,0-0.03,0.062-0.03,0.119c0.01,0.062,0.03,0.11,0.03,0.12
	c0,0,0.25,0.12,0.32,0.15C19.2,906.99,19.24,907.2,19.24,907.26z M15.35,907.37l0.09,0.04c-0.53,0.24-1.19,0.561-1.34,0.71
	c-0.04,0.05-0.17,0.17-0.19,0.88H12.3c-0.12,0-0.3-0.09-0.3-0.21v-0.069c0,0,0-0.551,0.09-0.641c0.13-0.13,1.25-0.641,1.46-0.71
	c0-0.04,0.02-0.2,0.08-0.229l0.24-0.109c0-0.012,0.02-0.051,0.02-0.092c0-0.038-0.02-0.09-0.02-0.09c-0.03-0.05-0.12-0.16-0.15-0.25
	c-0.02-0.09-0.06-0.319-0.06-0.319c0-0.05-0.08-0.068-0.13-0.091c-0.08-0.039-0.18-0.527-0.18-0.527c0-0.16,0.01-0.091,0.01-0.2
	v-0.432c0-0.521,0.55-0.851,1.08-0.851h0.02c0.53,0,1.08,0.33,1.08,0.851v0.432c0,0.109,0,0.04,0,0.2c0,0-0.12,0.488-0.2,0.527
	c-0.05,0.021-0.12,0.041-0.12,0.091c0,0-0.03,0.229-0.05,0.319c-0.03,0.09-0.12,0.2-0.14,0.25c0,0-0.03,0.052-0.03,0.09
	c0.01,0.041,0.03,0.08,0.03,0.092l0.24,0.109C15.33,907.17,15.35,907.33,15.35,907.37z M23.91,908.08
	c0.09,0.09,0.09,0.641,0.09,0.641v0.069c0,0.12-0.18,0.21-0.3,0.21h-1.62c-0.01-0.71-0.141-0.83-0.18-0.88
	c-0.15-0.149-0.811-0.47-1.34-0.71l0.09-0.04c0-0.04,0.02-0.2,0.08-0.229l0.24-0.109c0-0.012,0.02-0.051,0.029-0.092
	c0-0.038-0.029-0.09-0.029-0.09c-0.021-0.05-0.121-0.16-0.141-0.25c-0.03-0.09-0.061-0.319-0.061-0.319
	c0-0.05-0.09-0.068-0.14-0.091c-0.08-0.039-0.17-0.527-0.17-0.527c0-0.16,0-0.091,0-0.2v-0.432c0-0.521,0.55-0.851,1.08-0.851h0.021
	c0.529,0,1.08,0.33,1.08,0.851v0.432c0,0.109,0.01,0.04,0.01,0.2c0,0-0.131,0.488-0.211,0.527c-0.049,0.021-0.119,0.041-0.119,0.091
	c0,0-0.03,0.229-0.051,0.319c-0.029,0.09-0.119,0.2-0.14,0.25c0,0-0.03,0.052-0.03,0.09c0.01,0.041,0.03,0.08,0.03,0.092l0.24,0.109
	c0.06,0.029,0.08,0.189,0.08,0.229C22.66,907.439,23.779,907.95,23.91,908.08z"/>
<path fill="#FFFFFF" d="M27,765c0-4.42-3.58-8-8-8s-8,3.58-8,8s3.58,8,8,8S27,769.42,27,765z M14,765l2-2l2,2l4-4l2,2l-6,6L14,765z"
	/>
<g>
	<path opacity="0.5" fill="#2EA0DA" enable-background="new    " d="M24.98,1083.28c-0.41-0.109-0.74-0.42-0.721-0.859
		c0.01-0.1,0.08-0.18,0.141-0.22c0.92-0.53,1.57-1.351,1.6-2.421c0.05-2.181-1.859-3.81-3.88-4.39c0.08,1.579-0.351,3.05-1.28,4.229
		c-0.82,1.05-1.96,1.8-3.31,2.229c0.71,0.66,1.691,1.07,2.83,1.16c0.65,0.04,1.32,0,1.98-0.09c0.73,0.59,1.76,0.62,2.631,0.562
		C25.25,1083.461,25.189,1083.341,24.98,1083.28z"/>
	<path fill="#2EA0DA" d="M20.71,1074.401c-0.71-3.312-3.93-4.4-7.06-3.7c-2.86,0.649-5.73,2.909-5.65,5.989
		c0.04,1.41,0.91,2.511,2.14,3.221c0.08,0.061,0.17,0.16,0.18,0.3c0.03,0.58-0.42,0.99-0.97,1.14c-0.28,0.08-0.34,0.24,0.02,0.262
		c1.17,0.079,2.54,0.041,3.5-0.739c0.9,0.109,1.78,0.18,2.65,0.12C19.109,1080.722,21.49,1078.021,20.71,1074.401z"/>
</g>
<g opacity="0.3">
	<path opacity="0.5" fill="#151515" enable-background="new    " d="M24.98,1167.28c-0.41-0.109-0.74-0.42-0.721-0.859
		c0.01-0.1,0.08-0.18,0.141-0.22c0.92-0.53,1.57-1.351,1.6-2.421c0.05-2.181-1.859-3.81-3.88-4.39c0.08,1.579-0.351,3.05-1.28,4.229
		c-0.82,1.05-1.96,1.8-3.31,2.229c0.71,0.66,1.691,1.07,2.83,1.16c0.65,0.04,1.32,0,1.98-0.09c0.73,0.59,1.76,0.62,2.631,0.562
		C25.25,1167.461,25.189,1167.341,24.98,1167.28z"/>
	<path fill="#151515" d="M20.71,1158.401c-0.71-3.312-3.93-4.4-7.06-3.7c-2.86,0.649-5.73,2.909-5.65,5.989
		c0.04,1.41,0.91,2.511,2.14,3.221c0.08,0.061,0.17,0.16,0.18,0.3c0.03,0.58-0.42,0.99-0.97,1.14c-0.28,0.08-0.34,0.24,0.02,0.262
		c1.17,0.079,2.54,0.041,3.5-0.739c0.9,0.109,1.78,0.18,2.65,0.12C19.109,1164.722,21.49,1162.021,20.71,1158.401z"/>
</g>
<path opacity="0.3" fill="#151515" enable-background="new    " d="M8,1106.03c0,1.91,1.48,3.471,3.29,3.471h0.08h9.34
	c1.81,0,3.29-1.561,3.29-3.471c0-1.859-1.391-3.39-3.141-3.469v-0.013c0-2.237-1.719-4.05-3.839-4.05c-1.37,0-2.58,0.76-3.25,1.899
	c-0.23-0.102-0.48-0.159-0.75-0.159c-1.04,0-1.88,0.89-1.88,1.979c0,0.119,0,0.229,0.02,0.34C9.4,1102.621,8,1104.151,8,1106.03z"/>
<path opacity="0.3" fill="#151515" enable-background="new    " d="M8,1134.03c0,1.91,1.48,3.471,3.29,3.471h0.08h9.34
	c1.81,0,3.29-1.561,3.29-3.471c0-1.859-1.391-3.39-3.141-3.469v-0.013c0-2.237-1.719-4.05-3.839-4.05c-1.37,0-2.58,0.76-3.25,1.899
	c-0.23-0.102-0.48-0.159-0.75-0.159c-1.04,0-1.88,0.89-1.88,1.979c0,0.119,0,0.229,0.02,0.34C9.4,1130.621,8,1132.151,8,1134.03z"/>
<path opacity="0.3" fill="#020202" enable-background="new    " d="M12,1186h8c1.1,0,2,0.9,2,2s-0.9,2-2,2h-8c-1.1,0-2-0.9-2-2
	S10.9,1186,12,1186z"/>
<path fill="#FFFFFF" d="M16.67,811c0,1.1-0.9,2-2,2s-2-0.9-2-2s0.9-2,2-2S16.67,809.9,16.67,811z"/>
<g>
	<path fill="#FFFFFF" d="M13.14,807c-0.1-0.52-0.08-0.98,0.05-1.391c0.14-0.42,0.32-0.789,0.55-1.119
		c0.24-0.32,0.51-0.62,0.81-0.892c0.31-0.261,0.59-0.521,0.86-0.771c0.26-0.25,0.49-0.5,0.68-0.75c0.18-0.25,0.28-0.521,0.28-0.82
		c0-0.5-0.17-0.868-0.49-1.107c-0.33-0.24-0.75-0.36-1.25-0.36c-0.48,0-0.91,0.101-1.28,0.3c-0.38,0.2-0.74,0.46-1.1,0.771
		l-1.92-1.75c0.56-0.63,1.22-1.13,1.99-1.521c0.76-0.39,1.61-0.59,2.55-0.59c0.67,0,1.3,0.08,1.88,0.23
		c0.59,0.158,1.1,0.397,1.53,0.719c0.43,0.32,0.77,0.721,1.01,1.189c0.26,0.479,0.38,1.039,0.38,1.682c0,0.51-0.09,0.959-0.279,1.33
		c-0.191,0.379-0.421,0.72-0.701,1.027c-0.279,0.32-0.58,0.602-0.89,0.87c-0.32,0.261-0.6,0.54-0.87,0.83
		c-0.27,0.29-0.48,0.603-0.63,0.939c-0.16,0.33-0.21,0.729-0.17,1.181L13.14,807L13.14,807z"/>
</g>
<g opacity="0.3">
	<path fill="#010101" d="M83,1242c0-1.583-1-3-3-3H52l-5-5H18c-1.917,0-3,0.751-3,3v7h68V1242z"/>
	<path fill="#010101" d="M14,1246v45c0,1.835,1,3,3,3h66c2.333,0,3-0.999,3-3v-45H14z"/>
</g>
<path fill="#FFFFFF" d="M55.971,1373.96c0-0.3-0.16-1.319-0.551-1.5c-0.38-0.14-1.6-0.729-1.6-0.729c0-0.09-0.141-0.34-0.16-0.609
	c0-0.29,0.16-0.591,0.16-0.591c0.16-0.319,0.76-1.06,0.92-1.649c0.17-0.59,0.35-2.09,0.35-2.09c0-0.319,0.49-0.45,0.79-0.61
	c0.53-0.25,1.14-3.448,1.14-3.448c0-1.041-0.27-0.59-0.27-1.34v-2.791c0-3.421-3.16-5.601-6.68-5.601h-0.14
	c-3.52,0-6.68,2.181-6.68,5.601v2.791c0,0.75-0.27,0.299-0.27,1.34c0,0,0.52,3.198,1.06,3.448c0.3,0.16,0.83,0.291,0.83,0.61
	c0,0,0.2,1.5,0.36,2.09c0.17,0.591,0.78,1.33,0.94,1.649c0,0,0.17,0.301,0.17,0.591c-0.03,0.271-0.16,0.521-0.16,0.609
	c0,0-1.22,0.591-1.6,0.729c-0.39,0.181-0.55,1.2-0.55,1.5c-1.39,0.45-8.79,3.81-9.63,4.649c-0.6,0.61-0.6,4.189-0.6,4.189v0.45
	c0,0.819,0.87,1.75,1.7,1.75h29c0.83,0,1.7-0.931,1.7-1.75v-0.45c0,0,0-3.579-0.601-4.189
	C64.76,1377.77,57.359,1374.41,55.971,1373.96z M76.55,1377.5c-0.63-0.63-6.18-3.15-7.22-3.49c0-0.22-0.12-0.99-0.42-1.119
	c-0.28-0.11-1.2-0.551-1.2-0.551c0-0.061-0.101-0.25-0.12-0.46c0-0.22,0.12-0.439,0.12-0.439c0.13-0.239,0.58-0.8,0.7-1.239
	c0.119-0.44,0.26-1.57,0.26-1.57c0-0.238,0.359-0.34,0.59-0.449c0.4-0.189,1.02-2.591,1.02-2.591c0-0.778-0.028-0.438-0.028-1v-2.09
	c0-2.569-2.71-4.21-5.351-4.21H64.8c-2.64,0-5.35,1.641-5.35,4.21v2.09c0,0.562-0.03,0.222-0.03,1c0,0,0.471,2.4,0.87,2.591
	c0.229,0.109,0.67,0.211,0.67,0.449c0,0,0.17,1.13,0.29,1.57c0.13,0.439,0.59,1,0.721,1.239c0,0,0.129,0.221,0.129,0.439
	c-0.02,0.21-0.119,0.399-0.119,0.46c0,0-0.92,0.439-1.189,0.551c-0.3,0.129-0.42,0.899-0.42,1.119l-0.46,0.17
	c2.67,1.2,5.938,2.78,6.649,3.5c0.239,0.24,0.859,0.84,0.939,4.34h8c0.62,0,1.5-0.42,1.5-1.038v-0.341
	C77,1380.641,77,1377.96,76.55,1377.5z M39.63,1374.01c0-0.22-0.12-0.99-0.42-1.119c-0.28-0.11-1.19-0.551-1.19-0.551
	c0-0.061-0.11-0.25-0.13-0.46c0-0.22,0.13-0.439,0.13-0.439c0.12-0.239,0.57-0.8,0.69-1.239c0.12-0.44,0.26-1.57,0.26-1.57
	c0-0.238,0.36-0.34,0.59-0.449c0.4-0.189,1.02-2.591,1.02-2.591c0-0.778-0.03-0.438-0.03-1v-2.09c0-2.569-2.71-4.21-5.35-4.21h-0.1
	c-2.64,0-5.35,1.641-5.35,4.21v2.09c0,0.562-0.03,0.222-0.03,1c0,0,0.47,2.4,0.87,2.591c0.23,0.109,0.67,0.211,0.67,0.449
	c0,0,0.17,1.13,0.29,1.57c0.12,0.439,0.59,1,0.72,1.239c0,0,0.13,0.221,0.13,0.439c-0.02,0.21-0.12,0.399-0.12,0.46
	c0,0-0.92,0.439-1.19,0.551c-0.3,0.129-0.42,0.899-0.42,1.119c-1.04,0.34-6.59,2.86-7.22,3.49c-0.45,0.46-0.45,3.141-0.45,3.141
	v0.34c0,0.619,0.88,1.039,1.5,1.039h8c0.08-3.5,0.7-4.1,0.93-4.33c0.72-0.719,3.99-2.31,6.66-3.51L39.63,1374.01z"/>
</svg>
