<?xml version="1.0" encoding="utf-8"?>
<!-- Generator: Adobe Illustrator 16.0.0, SVG Export Plug-In . SVG Version: 6.00 Build 0)  -->
<!DOCTYPE svg PUBLIC "-//W3C//DTD SVG 1.1//EN" "http://www.w3.org/Graphics/SVG/1.1/DTD/svg11.dtd">
<svg version="1.1" id="Layer_1" xmlns="http://www.w3.org/2000/svg" xmlns:xlink="http://www.w3.org/1999/xlink" x="0px" y="0px"
	 width="100px" height="700px" viewBox="0 0 100 700" enable-background="new 0 0 100 700" xml:space="preserve">
<path fill-rule="evenodd" clip-rule="evenodd" fill="#FFFFFF" d="M56,390c0-4.42-3.58-8-8-8s-8,3.58-8,8s3.58,8,8,8
	S56,394.42,56,390z M50,385v4h3l-5,6l-5-6h3v-4H50z"/>
<g>
	<polygon fill-rule="evenodd" clip-rule="evenodd" fill="#FFFFFF" points="49,471 49,469 41,469 41,466 37,470 41,474 41,471 	"/>
	<path fill-rule="evenodd" clip-rule="evenodd" fill="#FFFFFF" d="M49,463c-3.17,0-5.85,2.109-6.71,5h2.13c0.77-1.76,2.53-3,4.58-3
		c2.76,0,5,2.24,5,5s-2.24,5-5,5c-2.05,0-3.81-1.24-4.58-3h-2.13c0.86,2.891,3.54,5,6.71,5c3.87,0,7-3.13,7-7S52.87,463,49,463z"/>
</g>
<g>
	<g>
		<path fill-rule="evenodd" clip-rule="evenodd" fill="#FFFFFF" d="M41,437h12v-7c-2.76,0-5-2.24-5-5c0-0.71,0.15-1.391,0.41-2H44
			l-3,3V437z"/>
	</g>
	<path fill-rule="evenodd" clip-rule="evenodd" fill="#FFFFFF" d="M49,425c0,2.21,1.79,4,4,4s4-1.79,4-4s-1.79-4-4-4
		S49,422.79,49,425z M51,424h2v-2l3,3l-3,3v-2h-2V424z"/>
</g>
<g>
	<path fill-rule="evenodd" clip-rule="evenodd" fill="#EDC120" d="M92.25,11c0-2.07-1.68-3.75-3.75-3.75h-35L47.25,1H11
		C8.92,1,7.25,2.67,7.25,4.75v8.75h85V11z M6,16v56.25C6,74.31,7.69,76,9.75,76h82.5c2.061,0,3.75-1.69,3.75-3.75V16H6z"/>
	<path fill-rule="evenodd" clip-rule="evenodd" fill="#FFFFFF" d="M58.46,50.84c0-0.37-0.2-1.66-0.69-1.89c-0.47-0.17-2-0.91-2-0.91
		c0-0.11-0.17-0.43-0.199-0.77c0-0.38,0.199-0.75,0.199-0.75c0.211-0.4,0.961-1.34,1.16-2.08c0.2-0.74,0.43-2.63,0.43-2.63
		c0-0.4,0.611-0.57,0.99-0.77c0.66-0.32,1.43-4.35,1.43-4.35c0-1.31-0.34-0.74-0.34-1.68V31.5c0-4.32-3.959-7.06-8.359-7.06h-0.16
		c-4.4,0-8.36,2.74-8.36,7.06v3.51c0,0.94-0.34,0.37-0.34,1.68c0,0,0.66,4.03,1.33,4.35c0.37,0.2,1.03,0.37,1.03,0.77
		c0,0,0.26,1.89,0.46,2.63c0.2,0.74,0.97,1.68,1.17,2.08c0,0,0.21,0.37,0.21,0.75c-0.03,0.34-0.2,0.66-0.2,0.77
		c0,0-1.53,0.74-1.99,0.91c-0.49,0.23-0.69,1.52-0.69,1.89c-1.74,0.57-11,4.8-12.04,5.85c-0.75,0.78-0.75,5.29-0.75,5.29v0.57
		c0,1.03,1.08,2.2,2.13,2.2h36.24c1.05,0,2.13-1.17,2.13-2.2v-0.57c0,0,0-4.51-0.75-5.29C69.45,55.64,60.2,51.41,58.46,50.84z
		 M84.189,55.3c-0.789-0.8-7.729-3.97-9.029-4.4c0-0.28-0.15-1.24-0.52-1.41c-0.351-0.13-1.5-0.68-1.5-0.68
		c0-0.09-0.131-0.33-0.15-0.58c0-0.28,0.15-0.56,0.15-0.56c0.159-0.3,0.719-1.01,0.869-1.57c0.15-0.55,0.32-1.97,0.32-1.97
		c0-0.3,0.46-0.43,0.74-0.58c0.5-0.229,1.279-3.25,1.279-3.25c0-0.99-0.039-0.56-0.039-1.27V36.4c0-3.24-3.381-5.3-6.681-5.3H69.5
		c-3.3,0-6.689,2.06-6.689,5.3v2.63c0,0.71-0.041,0.28-0.041,1.27c0,0,0.601,3.021,1.101,3.25c0.28,0.15,0.83,0.28,0.83,0.58
		c0,0,0.22,1.42,0.37,1.97c0.15,0.56,0.729,1.27,0.89,1.57c0,0,0.16,0.28,0.16,0.56c-0.021,0.25-0.14,0.49-0.14,0.58
		c0,0-1.15,0.55-1.5,0.68c-0.371,0.17-0.521,1.13-0.521,1.41c-0.13,0.05-0.33,0.13-0.569,0.22c3.34,1.51,7.42,3.51,8.319,4.41
		c0.29,0.3,1.069,1.05,1.17,5.47h10c0.78,0,1.87-0.54,1.87-1.31v-0.43C84.75,59.26,84.75,55.88,84.189,55.3z M38.03,50.9
		c0-0.28-0.15-1.24-0.52-1.41c-0.34-0.13-1.49-0.68-1.49-0.68c0-0.09-0.13-0.33-0.15-0.58c0-0.28,0.15-0.56,0.15-0.56
		c0.15-0.3,0.71-1.01,0.86-1.57c0.16-0.55,0.33-1.97,0.33-1.97c0-0.3,0.46-0.43,0.74-0.58c0.5-0.229,1.28-3.25,1.28-3.25
		c0-0.99-0.04-0.56-0.04-1.27V36.4c0-3.24-3.39-5.3-6.69-5.3h-0.12c-3.31,0-6.69,2.06-6.69,5.3v2.63c0,0.71-0.05,0.28-0.05,1.27
		c0,0,0.6,3.021,1.1,3.25c0.28,0.15,0.83,0.28,0.83,0.58c0,0,0.22,1.42,0.37,1.97c0.15,0.56,0.74,1.27,0.89,1.57
		c0,0,0.17,0.28,0.17,0.56c-0.02,0.25-0.15,0.49-0.15,0.58c0,0-1.14,0.55-1.49,0.68c-0.37,0.17-0.52,1.13-0.52,1.41
		c-1.3,0.43-8.25,3.6-9.03,4.4c-0.56,0.58-0.56,3.96-0.56,3.96v0.43c0,0.77,1.09,1.31,1.87,1.31h10c0.1-4.42,0.88-5.17,1.16-5.46
		c0.9-0.91,4.99-2.91,8.33-4.42C38.37,51.03,38.17,50.95,38.03,50.9z"/>
</g>
<g opacity="0.2">
	<path fill-rule="evenodd" clip-rule="evenodd" fill="#171515" d="M46,350c0-1.1,0.9-2,2-2s2,0.9,2,2s-0.9,2-2,2S46,351.1,46,350z"
		/>
</g>
<path fill-rule="evenodd" clip-rule="evenodd" fill="#010101" d="M10,507v2h15v-1h-7v-1H10z M10,519h16v-9H10V519z M19.24,515.26
	c0.279,0.09,1.77,0.77,1.939,0.94c0.12,0.13,0.12,0.85,0.12,0.85v0.101c0,0.16-0.18,0.85-0.34,0.85h-5.851
	c-0.17,0-0.34-0.689-0.34-0.85v-0.101c0,0,0-0.72,0.121-0.85c0.17-0.171,1.659-0.851,1.939-0.94c0-0.06,0.029-0.27,0.109-0.31
	c0.08-0.03,0.32-0.15,0.32-0.15c0-0.01,0.03-0.06,0.04-0.12c0-0.06-0.04-0.119-0.04-0.119c-0.029-0.061-0.16-0.221-0.189-0.34
	C17.04,514.109,17,513.8,17,513.8c0-0.06-0.109-0.09-0.17-0.12c-0.109-0.05-0.21-0.699-0.21-0.699c0-0.221,0.05-0.121,0.05-0.271
	v-0.569c0-0.701,0.641-1.141,1.35-1.141h0.03c0.71,0,1.341,0.439,1.341,1.141v0.569c0,0.149,0.06,0.05,0.06,0.271
	c0,0-0.12,0.649-0.229,0.699c-0.061,0.03-0.16,0.061-0.16,0.12c0,0-0.041,0.31-0.07,0.421c-0.03,0.119-0.15,0.279-0.19,0.34
	c0,0-0.03,0.06-0.03,0.119c0.01,0.061,0.03,0.11,0.03,0.12c0,0,0.25,0.12,0.32,0.15C19.2,514.99,19.24,515.2,19.24,515.26z
	 M15.35,515.37l0.09,0.04c-0.529,0.24-1.189,0.561-1.34,0.71c-0.039,0.05-0.17,0.17-0.189,0.88H12.3c-0.12,0-0.3-0.09-0.3-0.21
	v-0.069c0,0,0-0.551,0.09-0.641c0.131-0.13,1.25-0.641,1.46-0.71c0-0.04,0.021-0.2,0.08-0.229l0.24-0.111
	c0-0.01,0.021-0.049,0.021-0.09c0-0.039-0.021-0.09-0.021-0.09c-0.03-0.05-0.12-0.16-0.149-0.25c-0.021-0.09-0.061-0.32-0.061-0.32
	c0-0.049-0.08-0.069-0.131-0.09c-0.079-0.039-0.18-0.529-0.18-0.529c0-0.16,0.01-0.09,0.01-0.2v-0.431c0-0.52,0.551-0.85,1.08-0.85
	h0.021c0.53,0,1.08,0.33,1.08,0.85v0.431c0,0.11,0,0.04,0,0.2c0,0-0.12,0.49-0.2,0.529c-0.05,0.021-0.119,0.041-0.119,0.09
	c0,0-0.031,0.23-0.051,0.32c-0.029,0.09-0.12,0.2-0.141,0.25c0,0-0.029,0.051-0.029,0.09c0.01,0.041,0.029,0.08,0.029,0.09
	l0.24,0.111C15.33,515.17,15.35,515.33,15.35,515.37z M23.91,516.08c0.09,0.09,0.09,0.641,0.09,0.641v0.069
	c0,0.12-0.18,0.21-0.3,0.21h-1.62c-0.01-0.71-0.141-0.83-0.18-0.88c-0.15-0.149-0.811-0.47-1.34-0.71l0.09-0.04
	c0-0.04,0.02-0.2,0.08-0.229l0.24-0.111c0-0.01,0.02-0.049,0.029-0.09c0-0.039-0.029-0.09-0.029-0.09
	c-0.021-0.05-0.121-0.16-0.141-0.25c-0.03-0.09-0.061-0.32-0.061-0.32c0-0.049-0.09-0.069-0.14-0.09
	c-0.08-0.039-0.17-0.529-0.17-0.529c0-0.16,0-0.09,0-0.2v-0.431c0-0.52,0.55-0.85,1.08-0.85h0.021c0.529,0,1.08,0.33,1.08,0.85
	v0.431c0,0.11,0.01,0.04,0.01,0.2c0,0-0.131,0.49-0.211,0.529c-0.049,0.021-0.119,0.041-0.119,0.09c0,0-0.03,0.23-0.051,0.32
	c-0.029,0.09-0.119,0.2-0.14,0.25c0,0-0.03,0.051-0.03,0.09c0.01,0.041,0.03,0.08,0.03,0.09l0.24,0.111
	c0.06,0.029,0.08,0.189,0.08,0.229C22.66,515.439,23.779,515.95,23.91,516.08z"/>
<g>
	<g>
		<path fill="#ECC31C" d="M64,137c0-0.55-0.45-1-1.01-1H47l-3-3H30.01c-0.56,0-1.01,0.45-1.01,1v4h35V137z"/>
		<path fill="#ECC31C" d="M28,139v23c0,0.55,0.45,1,1.01,1h35.98c0.56,0,1.01-0.45,1.01-1v-23H28z"/>
	</g>
	<g>
		<path fill-rule="evenodd" clip-rule="evenodd" fill="#FFFFFF" d="M50.08,153.79c0-0.17-0.09-0.74-0.31-0.84
			c-0.21-0.08-0.89-0.41-0.89-0.41c0-0.05-0.08-0.2-0.09-0.35c0-0.16,0.09-0.33,0.09-0.33c0.09-0.18,0.43-0.6,0.52-0.93
			c0.09-0.33,0.19-1.17,0.19-1.17c0-0.18,0.27-0.26,0.44-0.35c0.29-0.14,0.63-1.94,0.63-1.94c0-0.58-0.15-0.33-0.15-0.75v-1.57
			c0-1.92-1.76-3.15-3.71-3.15h-0.08c-1.95,0-3.71,1.23-3.71,3.15v1.57c0,0.42-0.15,0.17-0.15,0.75c0,0,0.29,1.8,0.59,1.94
			c0.16,0.09,0.46,0.17,0.46,0.35c0,0,0.11,0.84,0.2,1.17c0.09,0.33,0.43,0.75,0.52,0.93c0,0,0.09,0.17,0.09,0.33
			c-0.01,0.15-0.08,0.3-0.08,0.35c0,0-0.68,0.33-0.89,0.41c-0.22,0.1-0.31,0.67-0.31,0.84c-0.77,0.25-4.88,2.14-5.35,2.61
			c-0.33,0.35-0.33,2.36-0.33,2.36v0.26c0,0.46,0.48,0.98,0.94,0.98h16.12c0.459,0,0.939-0.52,0.939-0.98v-0.26
			c0,0,0-2.01-0.33-2.36C54.96,155.93,50.85,154.04,50.08,153.79z"/>
	</g>
	<g>
		<path fill="#FFFFFF" d="M36.76,158.76c0-2.42,0.45-2.88,0.62-3.05c0.38-0.39,1.9-1.16,3.29-1.81c-0.15-0.05-0.64-0.29-0.64-0.29
			c0-0.04-0.05-0.14-0.06-0.25c0-0.12,0.06-0.24,0.06-0.24c0.07-0.13,0.31-0.43,0.37-0.67c0.07-0.24,0.14-0.85,0.14-0.85
			c0-0.13,0.2-0.18,0.32-0.25c0.21-0.1,0.46-1.4,0.46-1.4c0-0.42-0.11-0.24-0.11-0.54v-1.13c0-1.4-1.27-2.28-2.68-2.28h-0.06
			c-1.41,0-2.68,0.88-2.68,2.28v1.13c0,0.3-0.11,0.12-0.11,0.54c0,0,0.21,1.3,0.43,1.4c0.12,0.07,0.33,0.12,0.33,0.25
			c0,0,0.08,0.61,0.15,0.85c0.06,0.24,0.31,0.54,0.37,0.67c0,0,0.07,0.12,0.07,0.24c-0.01,0.11-0.06,0.21-0.06,0.25
			c0,0-0.49,0.24-0.64,0.3c-0.16,0.07-0.23,0.48-0.23,0.6c-0.55,0.19-3.52,1.55-3.86,1.89C32,156.65,32,158.11,32,158.11v0.18
			c0,0.33,0.35,0.71,0.68,0.71h4.08V158.76z"/>
		<path fill="#FFFFFF" d="M61.76,156.4c-0.34-0.34-3.31-1.7-3.859-1.89c0-0.12-0.07-0.53-0.23-0.6c-0.15-0.06-0.641-0.3-0.641-0.3
			c0-0.04-0.049-0.14-0.059-0.25c0-0.12,0.059-0.24,0.059-0.24c0.07-0.13,0.311-0.43,0.371-0.67c0.07-0.24,0.14-0.85,0.14-0.85
			c0-0.13,0.2-0.18,0.319-0.25c0.211-0.1,0.461-1.4,0.461-1.4c0-0.42-0.11-0.24-0.11-0.54v-1.13c0-1.4-1.271-2.28-2.681-2.28h-0.059
			c-1.41,0-2.681,0.88-2.681,2.28v1.13c0,0.3-0.11,0.12-0.11,0.54c0,0,0.211,1.3,0.43,1.4c0.121,0.07,0.33,0.12,0.33,0.25
			c0,0,0.08,0.61,0.15,0.85c0.061,0.24,0.311,0.54,0.37,0.67c0,0,0.069,0.12,0.069,0.24c-0.01,0.11-0.059,0.21-0.059,0.25
			c0,0-0.49,0.24-0.641,0.3c-0.051,0.02-0.09,0.08-0.13,0.16c1.29,0.6,2.59,1.28,2.94,1.63c0.17,0.18,0.619,0.64,0.619,3.06V159
			h4.561c0.33,0,0.68-0.38,0.68-0.71v-0.18C62,158.11,62,156.65,61.76,156.4z"/>
	</g>
</g>
<g opacity="0.3">
	<polygon fill="#010101" points="40,303 38,308 43,306 	"/>
	
		<rect x="44.379" y="293.843" transform="matrix(0.7071 0.7071 -0.7071 0.7071 225.398 54.8411)" fill="#010101" width="4.243" height="11.314"/>
	<polygon fill-rule="evenodd" clip-rule="evenodd" fill="#010101" points="45,307 54,308 42,308 	"/>
</g>
<g opacity="0.3">
	<path fill-rule="evenodd" clip-rule="evenodd" fill="#010101" d="M48,257c-2.21,0-4-1.79-4-4s1.79-4,4-4s4,1.79,4,4
		S50.21,257,48,257z M48,247c-5,0-8.18,4.29-10,6c1.82,1.71,5,6,10,6s8.18-4.29,10-6C56.18,251.29,53,247,48,247z"/>
	<path fill="#010101" d="M50,253c0,1.1-0.9,2-2,2s-2-0.9-2-2s0.9-2,2-2S50,251.9,50,253z"/>
</g>
<polygon fill-rule="evenodd" clip-rule="evenodd" fill="#59AD46" points="40,205 43,202 46,205 53,198 56,201 46,211 "/>
<g>
	<polygon fill="#010101" points="24,549 24,548 17,548 17,547 10,547 10,557 13,549 	"/>
	<path fill-rule="evenodd" clip-rule="evenodd" fill="#010101" d="M23.9,556.721l-0.021,0.069c-0.03,0.12-0.229,0.21-0.351,0.21
		h-1.6c0.18-0.71,0.08-0.83,0.051-0.88c-0.11-0.149-0.67-0.47-1.131-0.71l0.09-0.04c0.021-0.04,0.08-0.2,0.141-0.229l0.27-0.111
		l0.051-0.09c0.02-0.039,0-0.09,0-0.09c-0.01-0.05-0.08-0.16-0.07-0.25c-0.01-0.09,0.02-0.32,0.02-0.32
		c0.021-0.049-0.07-0.069-0.109-0.09c-0.07-0.039-0.03-0.529-0.03-0.529l0.05-0.2l0.12-0.431c0.14-0.52,0.771-0.85,1.29-0.85h0.02
		c0.531,0,0.98,0.33,0.851,0.85l-0.12,0.431c-0.029,0.11,0,0.04-0.04,0.2c0,0-0.26,0.49-0.351,0.529
		c-0.049,0.021-0.129,0.041-0.139,0.09c0,0-0.091,0.23-0.141,0.32s-0.17,0.2-0.2,0.25c0,0-0.05,0.051-0.06,0.09l0.01,0.09
		l0.21,0.111c0.05,0.029,0.03,0.189,0.021,0.229c0.189,0.069,1.16,0.58,1.25,0.71C24.05,556.17,23.9,556.721,23.9,556.721z
		 M21.141,557.05l-0.021,0.101c-0.05,0.16-0.41,0.85-0.57,0.85h-5.79c-0.17,0-0.15-0.689-0.11-0.85l0.03-0.101
		c0,0,0.19-0.72,0.34-0.85c0.22-0.171,1.87-0.851,2.17-0.94c0.02-0.06,0.1-0.27,0.19-0.31c0.09-0.03,0.36-0.15,0.36-0.15
		c0-0.01,0.05-0.06,0.07-0.12c0.02-0.06-0.01-0.119-0.01-0.119c-0.01-0.061-0.1-0.221-0.09-0.34c0-0.111,0.04-0.421,0.04-0.421
		c0.01-0.06-0.09-0.09-0.14-0.12c-0.09-0.05-0.02-0.699-0.02-0.699c0.06-0.221,0.08-0.121,0.12-0.271l0.15-0.569
		C18.05,551.439,18.8,551,19.5,551h0.03c0.701,0,1.21,0.439,1.02,1.141L20.4,552.71c-0.041,0.149,0.05,0.05-0.01,0.271
		c0,0-0.291,0.649-0.411,0.699c-0.07,0.03-0.18,0.061-0.19,0.12c0,0-0.13,0.31-0.18,0.421c-0.07,0.119-0.23,0.279-0.28,0.34
		c0,0-0.05,0.06-0.06,0.119c-0.01,0.061,0,0.11-0.01,0.12l0.28,0.15c0.07,0.04,0.05,0.25,0.04,0.31c0.25,0.09,1.55,0.77,1.67,0.94
		C21.33,556.33,21.141,557.05,21.141,557.05z M13.84,557h-1.59c-0.12,0-0.28-0.09-0.25-0.21l0.02-0.069c0,0,0.15-0.551,0.26-0.641
		c0.17-0.13,1.41-0.641,1.64-0.71c0.01-0.04,0.07-0.2,0.14-0.229l0.26-0.111c0.01-0.01,0.04-0.049,0.05-0.09
		c0.01-0.039,0-0.09,0-0.09c-0.02-0.05-0.08-0.16-0.08-0.25l0.02-0.32c0.02-0.049-0.06-0.069-0.1-0.09
		c-0.07-0.039-0.04-0.529-0.04-0.529c0.04-0.16,0.03-0.09,0.06-0.2l0.12-0.431c0.14-0.52,0.77-0.85,1.29-0.85h0.02
		c0.53,0,0.98,0.33,0.85,0.85l-0.12,0.431l-0.05,0.2c0,0-0.25,0.49-0.34,0.529c-0.05,0.021-0.13,0.041-0.14,0.09l-0.14,0.32
		c-0.05,0.09-0.17,0.2-0.2,0.25c0,0-0.04,0.051-0.06,0.09l0.01,0.09l0.21,0.111c0.05,0.029,0.03,0.189,0.02,0.229l0.08,0.04
		c-0.59,0.24-1.33,0.561-1.52,0.71C14.21,556.17,14.05,556.29,13.84,557z M14,550l-4,9h14l4-9H14z"/>
</g>
<path fill-rule="evenodd" clip-rule="evenodd" fill="#010101" d="M10,588v2h15v-1h-7v-1H10z M10,600h16v-9H10V600z M19.24,596.26
	c0.279,0.09,1.77,0.77,1.939,0.94c0.12,0.13,0.12,0.85,0.12,0.85v0.101c0,0.16-0.18,0.85-0.34,0.85h-5.851
	c-0.169,0-0.339-0.689-0.339-0.85v-0.101c0,0,0-0.72,0.12-0.85c0.17-0.171,1.66-0.851,1.94-0.94c0-0.06,0.029-0.27,0.109-0.31
	c0.08-0.03,0.32-0.15,0.32-0.15c0-0.01,0.03-0.06,0.04-0.12c0-0.06-0.04-0.119-0.04-0.119c-0.029-0.061-0.16-0.221-0.189-0.34
	C17.04,595.109,17,594.8,17,594.8c0-0.06-0.109-0.09-0.17-0.12c-0.109-0.05-0.21-0.699-0.21-0.699c0-0.221,0.05-0.121,0.05-0.271
	v-0.569c0-0.701,0.641-1.141,1.35-1.141h0.03c0.71,0,1.341,0.439,1.341,1.141v0.569c0,0.149,0.06,0.05,0.06,0.271
	c0,0-0.12,0.649-0.229,0.699c-0.061,0.03-0.16,0.061-0.16,0.12c0,0-0.041,0.31-0.07,0.421c-0.03,0.119-0.15,0.279-0.19,0.34
	c0,0-0.03,0.06-0.03,0.119c0.01,0.061,0.03,0.11,0.03,0.12c0,0,0.25,0.12,0.32,0.15C19.2,595.99,19.24,596.2,19.24,596.26z
	 M15.35,596.37l0.09,0.04c-0.529,0.24-1.189,0.561-1.339,0.71c-0.04,0.05-0.17,0.17-0.19,0.88H12.3c-0.12,0-0.3-0.09-0.3-0.21
	v-0.069c0,0,0-0.551,0.09-0.641c0.13-0.13,1.25-0.641,1.46-0.71c0-0.04,0.02-0.2,0.08-0.229l0.24-0.111c0-0.01,0.02-0.049,0.02-0.09
	c0-0.039-0.02-0.09-0.02-0.09c-0.03-0.05-0.12-0.16-0.15-0.25c-0.02-0.09-0.06-0.32-0.06-0.32c0-0.049-0.08-0.069-0.13-0.09
	c-0.08-0.039-0.18-0.529-0.18-0.529c0-0.16,0.01-0.09,0.01-0.2v-0.431c0-0.52,0.55-0.85,1.08-0.85h0.02c0.53,0,1.08,0.33,1.08,0.85
	v0.431c0,0.11,0,0.04,0,0.2c0,0-0.12,0.49-0.2,0.529c-0.05,0.021-0.119,0.041-0.119,0.09c0,0-0.031,0.23-0.051,0.32
	c-0.029,0.09-0.12,0.2-0.141,0.25c0,0-0.029,0.051-0.029,0.09c0.01,0.041,0.029,0.08,0.029,0.09l0.24,0.111
	C15.33,596.17,15.35,596.33,15.35,596.37z M23.91,597.08c0.09,0.09,0.09,0.641,0.09,0.641v0.069c0,0.12-0.18,0.21-0.3,0.21h-1.62
	c-0.01-0.71-0.141-0.83-0.18-0.88c-0.15-0.149-0.811-0.47-1.34-0.71l0.09-0.04c0-0.04,0.02-0.2,0.08-0.229l0.24-0.111
	c0-0.01,0.02-0.049,0.029-0.09c0-0.039-0.029-0.09-0.029-0.09c-0.021-0.05-0.121-0.16-0.141-0.25c-0.03-0.09-0.061-0.32-0.061-0.32
	c0-0.049-0.09-0.069-0.14-0.09c-0.08-0.039-0.17-0.529-0.17-0.529c0-0.16,0-0.09,0-0.2v-0.431c0-0.52,0.55-0.85,1.08-0.85h0.021
	c0.529,0,1.08,0.33,1.08,0.85v0.431c0,0.11,0.01,0.04,0.01,0.2c0,0-0.131,0.49-0.211,0.529c-0.049,0.021-0.119,0.041-0.119,0.09
	c0,0-0.03,0.23-0.051,0.32c-0.029,0.09-0.119,0.2-0.14,0.25c0,0-0.03,0.051-0.03,0.09c0.01,0.041,0.03,0.08,0.03,0.09l0.24,0.111
	c0.06,0.029,0.08,0.189,0.08,0.229C22.66,596.439,23.779,596.95,23.91,597.08z"/>
<g>
	<polygon fill="#010101" points="24,629 24,628 17,628 17,627 10,627 10,637 13,629 	"/>
	<path fill-rule="evenodd" clip-rule="evenodd" fill="#010101" d="M14,630l-4,9h14l4-9H14z"/>
</g>
<path fill-rule="evenodd" clip-rule="evenodd" fill="#010101" d="M10,668v2h15v-1h-7v-1H10z M10,680h16v-9H10V680z"/>
</svg>
