<?xml version="1.0" encoding="utf-8"?>
<!-- Generator: Adobe Illustrator 19.0.0, SVG Export Plug-In . SVG Version: 6.00 Build 0)  -->
<svg version="1.1" id="Layer_1" xmlns:sketch="http://www.bohemiancoding.com/sketch/ns"
	 xmlns="http://www.w3.org/2000/svg" xmlns:xlink="http://www.w3.org/1999/xlink" x="0px" y="0px" width="100px" height="1769.2px"
	 viewBox="-247 -464.3 100 1769.2" style="enable-background:new -247 -464.3 100 1769.2;" xml:space="preserve">
<style type="text/css">
	.st0{fill:#777777;}
	.st1{fill:#2BA6DE;}
	.st2{fill:#D90007;}
	.st3{fill:#31B500;}
	.st4{opacity:0.3;}
	.st5{fill:#191717;}
	.st6{fill:#FFFFFF;}
	.st7{opacity:0.5;fill:#777777;enable-background:new    ;}
	.st8{opacity:0.5;fill:#2EA0DA;enable-background:new    ;}
	.st9{fill:#2EA0DA;}
	.st10{opacity:0.5;fill:#151515;enable-background:new    ;}
	.st11{fill:#151515;}
	.st12{opacity:0.3;fill:#151515;enable-background:new    ;}
	.st13{opacity:0.3;fill:#020202;enable-background:new    ;}
	.st14{opacity:0.5;}
	.st15{opacity:0.4;enable-background:new    ;}
	.st16{opacity:0.5;enable-background:new    ;}
	.st17{opacity:0.5;fill:#111111;enable-background:new    ;}
	.st18{opacity:0.4;fill:#111111;enable-background:new    ;}
	.st19{opacity:0.5;fill:none;stroke:#000000;stroke-width:2;stroke-miterlimit:10;enable-background:new    ;}
	.st20{fill:#FFA500;}
	.st21{fill:#999999;}
	.st22{fill:#AAAAAA;}
	.st23{fill:#ECC01E;}
	.st24{fill:#F1D364;}
	.st25{fill:#EBC01E;}
	.st26{fill:#9F9F9F;}
	.st27{opacity:0.4;}
	.st28{fill:#030303;}
	.st29{fill:#59AD46;}
</style>
<path id="Shape_2_" sketch:type="MSShapeGroup" class="st0" d="M-190.5-74c0-4.4-3.6-8-8-8s-8,3.6-8,8s3.6,8,8,8
	S-190.5-69.6-190.5-74L-190.5-74L-190.5-74z M-196.5-79v4h3l-5,6l-5-6h3v-4H-196.5L-196.5-79z"/>
<g id="Group_1_" transform="translate(31.000000, 462.000000)" sketch:type="MSShapeGroup">
	<path id="Shape_3_" class="st0" d="M-228-455v-2h-8v-3l-4,4l4,4v-3H-228L-228-455z"/>
	<path id="Shape_4_" class="st0" d="M-228-463c-3.2,0-5.9,2.1-6.7,5h2.1c0.8-1.8,2.5-3,4.6-3c2.8,0,5,2.2,5,5s-2.2,5-5,5
		c-2,0-3.8-1.2-4.6-3h-2.1c0.9,2.9,3.5,5,6.7,5c3.9,0,7-3.1,7-7S-224.1-463-228-463L-228-463L-228-463z"/>
</g>
<g id="Group_2_" transform="translate(35.000000, 420.000000)" sketch:type="MSShapeGroup">
	<path id="Shape_5_" class="st0" d="M-240.5-447h12v-7c-2.8,0-5-2.2-5-5c0-0.7,0.1-1.4,0.4-2h-4.4l-3,3V-447L-240.5-447z"/>
	<path id="Shape_6_" class="st0" d="M-232.5-459c0,2.2,1.8,4,4,4s4-1.8,4-4s-1.8-4-4-4S-232.5-461.3-232.5-459L-232.5-459
		L-232.5-459z M-230.5-460h2v-2l3,3l-3,3v-2h-2V-460L-230.5-460z"/>
</g>
<path id="Shape_46_" sketch:type="MSShapeGroup" class="st1" d="M-190.5,966c0-4.4-3.6-8-8-8s-8,3.6-8,8s3.6,8,8,8
	S-190.5,970.4-190.5,966L-190.5,966L-190.5,966z M-196.5,961v4h3l-5,6l-5-6h3v-4H-196.5L-196.5,961z"/>
<g id="Group_14_" transform="translate(31.000000, 462.000000)" sketch:type="MSShapeGroup">
	<path id="Shape_45_" class="st2" d="M-228,564.9v-2h-8v-3l-4,4l4,4v-3H-228L-228,564.9z"/>
	<path id="Shape_44_" class="st2" d="M-228,556.9c-3.2,0-5.9,2.1-6.7,5h2.1c0.8-1.8,2.5-3,4.6-3c2.8,0,5,2.2,5,5s-2.2,5-5,5
		c-2,0-3.8-1.2-4.6-3h-2.1c0.9,2.9,3.5,5,6.7,5c3.9,0,7-3.1,7-7S-224.1,556.9-228,556.9L-228,556.9L-228,556.9z"/>
</g>
<g id="Group_13_" transform="translate(35.000000, 420.000000)" sketch:type="MSShapeGroup">
	<path id="Shape_43_" class="st3" d="M-240.5,582.9h12v-7c-2.8,0-5-2.2-5-5c0-0.7,0.1-1.4,0.4-2h-4.4l-3,3V582.9L-240.5,582.9z"/>
	<path id="Shape_42_" class="st3" d="M-232.5,570.9c0,2.2,1.8,4,4,4s4-1.8,4-4s-1.8-4-4-4S-232.5,568.7-232.5,570.9L-232.5,570.9
		L-232.5,570.9z M-230.5,569.9h2v-2l3,3l-3,3v-2h-2V569.9L-230.5,569.9z"/>
</g>
<g id="Group_4_" transform="translate(40.000000, 347.000000)" sketch:type="MSShapeGroup" class="st4">
	<path id="Shape_9_" class="st5" d="M-240.5-461c0-1.1,0.9-2,2-2s2,0.9,2,2s-0.9,2-2,2S-240.5-460-240.5-461L-240.5-461L-240.5-461z
		"/>
</g>
<path id="Shape_23_" sketch:type="MSShapeGroup" class="st6" d="M-238.5,572.4c0,4.4,3.6,8,8,8s8-3.6,8-8s-3.6-8-8-8
	S-238.5,568-238.5,572.4L-238.5,572.4L-238.5,572.4z M-231.5,567.4h2v4h4v2h-4v4h-2v-4h-4v-2h4V567.4L-231.5,567.4z"/>
<g id="Group_8_" transform="translate(4.000000, 716.000000)" sketch:type="MSShapeGroup">
	<path id="Shape_24_" class="st7" d="M-220.6-448.3c-0.5-0.1-0.8-0.5-0.8-0.9c0-0.1,0.1-0.2,0.1-0.2c1-0.6,1.8-1.5,1.8-2.6
		c0.1-2.3-2.1-4.1-4.3-4.7c0.1,1.7-0.4,3.3-1.4,4.6c-0.9,1.1-2.2,1.9-3.7,2.4c0.8,0.7,1.9,1.2,3.1,1.2c0.7,0.1,1.5,0,2.2-0.1
		c0.8,0.6,2,0.7,2.9,0.6C-220.3-448.1-220.4-448.2-220.6-448.3L-220.6-448.3L-220.6-448.3z"/>
	<path id="Shape_25_" class="st0" d="M-225.4-457.9c-0.8-3.6-4.4-4.7-7.8-4c-3.2,0.7-6.4,3.1-6.3,6.4c0,1.5,1,2.7,2.4,3.5
		c0.1,0.1,0.2,0.2,0.2,0.3c0,0.6-0.5,1.1-1.1,1.2c-0.3,0.1-0.4,0.2,0,0.3c1.3,0.1,2.8,0,3.9-0.8c1,0.1,2,0.2,2.9,0.1
		C-227.2-451-224.5-454-225.4-457.9L-225.4-457.9L-225.4-457.9z"/>
</g>
<path id="Shape_26_" sketch:type="MSShapeGroup" class="st0" d="M-236.5,390.9c0,4.4,3.6,8,8,8s8-3.6,8-8s-3.6-8-8-8
	S-236.5,386.5-236.5,390.9L-236.5,390.9L-236.5,390.9z M-230.5,395.9v-4h-3l5-6l5,6h-3v4H-230.5L-230.5,395.9z"/>
<path id="Shape_28_" sketch:type="MSShapeGroup" class="st0" d="M-219.5,290.9c0-4.4-3.6-8-8-8s-8,3.6-8,8s3.6,8,8,8
	S-219.5,295.4-219.5,290.9L-219.5,290.9L-219.5,290.9z M-232.5,290.9l2-2l2,2l4-4l2,2l-6,6L-232.5,290.9L-232.5,290.9z"/>
<path id="Shape_22_" sketch:type="MSShapeGroup" class="st3" d="M-219.5,320.9c0-4.4-3.6-8-8-8s-8,3.6-8,8s3.6,8,8,8
	S-219.5,325.4-219.5,320.9L-219.5,320.9L-219.5,320.9z M-232.5,320.9l2-2l2,2l4-4l2,2l-6,6L-232.5,320.9L-232.5,320.9z"/>
<g id="Group_9_" transform="translate(1.000000, 1069.000000)" sketch:type="MSShapeGroup">
	<path id="Shape_29_" class="st8" d="M-222.5-449.8c-0.4-0.1-0.7-0.4-0.7-0.9c0-0.1,0.1-0.2,0.1-0.2c0.9-0.5,1.6-1.4,1.6-2.4
		c0-2.2-1.9-3.8-3.9-4.4c0.1,1.6-0.4,3.1-1.3,4.2c-0.8,1.1-2,1.8-3.3,2.2c0.7,0.7,1.7,1.1,2.8,1.2c0.6,0,1.3,0,2-0.1
		c0.7,0.6,1.8,0.6,2.6,0.6C-222.3-449.6-222.3-449.7-222.5-449.8L-222.5-449.8L-222.5-449.8z"/>
	<path id="Shape_30_" class="st9" d="M-226.8-458.6c-0.7-3.3-3.9-4.4-7.1-3.7c-2.9,0.6-5.7,2.9-5.6,6c0,1.4,0.9,2.5,2.1,3.2
		c0.1,0.1,0.2,0.2,0.2,0.3c0,0.6-0.4,1-1,1.1c-0.3,0.1-0.3,0.2,0,0.3c1.2,0.1,2.5,0,3.5-0.7c0.9,0.1,1.8,0.2,2.6,0.1
		C-228.4-452.3-226-455-226.8-458.6L-226.8-458.6L-226.8-458.6z"/>
</g>
<g id="Group_10_" transform="translate(1.000000, 1153.000000)" sketch:type="MSShapeGroup" class="st4">
	<path id="Shape_31_" class="st10" d="M-222.5-449.8c-0.4-0.1-0.7-0.4-0.7-0.9c0-0.1,0.1-0.2,0.1-0.2c0.9-0.5,1.6-1.4,1.6-2.4
		c0-2.2-1.9-3.8-3.9-4.4c0.1,1.6-0.4,3.1-1.3,4.2c-0.8,1.1-2,1.8-3.3,2.2c0.7,0.7,1.7,1.1,2.8,1.2c0.6,0,1.3,0,2-0.1
		c0.7,0.6,1.8,0.6,2.6,0.6C-222.3-449.6-222.3-449.7-222.5-449.8L-222.5-449.8L-222.5-449.8z"/>
	<path id="Shape_32_" class="st11" d="M-226.8-458.6c-0.7-3.3-3.9-4.4-7.1-3.7c-2.9,0.6-5.7,2.9-5.6,6c0,1.4,0.9,2.5,2.1,3.2
		c0.1,0.1,0.2,0.2,0.2,0.3c0,0.6-0.4,1-1,1.1c-0.3,0.1-0.3,0.2,0,0.3c1.2,0.1,2.5,0,3.5-0.7c0.9,0.1,1.8,0.2,2.6,0.1
		C-228.4-452.3-226-455-226.8-458.6L-226.8-458.6L-226.8-458.6z"/>
</g>
<path id="Shape_33_" sketch:type="MSShapeGroup" class="st12" d="M-238.5,642c0,1.9,1.5,3.5,3.3,3.5h0.1h9.3c1.8,0,3.3-1.6,3.3-3.5
	s-1.4-3.4-3.1-3.5l0,0c0-2.2-1.7-4.1-3.8-4.1c-1.4,0-2.6,0.8-3.2,1.9c-0.2-0.1-0.5-0.2-0.8-0.2c-1,0-1.9,0.9-1.9,2
	c0,0.1,0,0.2,0,0.3C-237.1,638.6-238.5,640.1-238.5,642L-238.5,642L-238.5,642z"/>
<path id="Shape_34_" sketch:type="MSShapeGroup" class="st12" d="M-238.5,670c0,1.9,1.5,3.5,3.3,3.5h0.1h9.3c1.8,0,3.3-1.6,3.3-3.5
	s-1.4-3.4-3.1-3.5l0,0c0-2.2-1.7-4.1-3.8-4.1c-1.4,0-2.6,0.8-3.2,1.9c-0.2-0.1-0.5-0.2-0.8-0.2c-1,0-1.9,0.9-1.9,2
	c0,0.1,0,0.2,0,0.3C-237.1,666.6-238.5,668.1-238.5,670L-238.5,670L-238.5,670z"/>
<path id="Shape_35_" sketch:type="MSShapeGroup" class="st13" d="M-234.5,722h8c1.1,0,2,0.9,2,2s-0.9,2-2,2h-8c-1.1,0-2-0.9-2-2
	S-235.6,722-234.5,722L-234.5,722L-234.5,722z"/>
<path id="Shape_36_" sketch:type="MSShapeGroup" class="st0" d="M-229.8,356.9c0,1.1-0.9,2-2,2s-2-0.9-2-2s0.9-2,2-2
	S-229.8,355.9-229.8,356.9L-229.8,356.9L-229.8,356.9z"/>
<path id="Shape_37_" sketch:type="MSShapeGroup" class="st0" d="M-233.4,352.9c-0.1-0.5-0.1-1,0-1.4s0.3-0.8,0.6-1.1
	c0.2-0.3,0.5-0.6,0.8-0.9s0.6-0.5,0.9-0.8c0.3-0.2,0.5-0.5,0.7-0.8c0.2-0.2,0.3-0.5,0.3-0.8c0-0.5-0.2-0.9-0.5-1.1s-0.8-0.4-1.2-0.4
	c-0.5,0-0.9,0.1-1.3,0.3s-0.7,0.5-1.1,0.8l-1.9-1.8c0.6-0.6,1.2-1.1,2-1.5s1.6-0.6,2.5-0.6c0.7,0,1.3,0.1,1.9,0.2
	c0.6,0.2,1.1,0.4,1.5,0.7s0.8,0.7,1,1.2c0.3,0.5,0.4,1,0.4,1.7c0,0.5-0.1,1-0.3,1.3c-0.2,0.4-0.4,0.7-0.7,1s-0.6,0.6-0.9,0.9
	c-0.3,0.3-0.6,0.5-0.9,0.8s-0.5,0.6-0.6,0.9c-0.2,0.3-0.2,0.7-0.2,1.2L-233.4,352.9L-233.4,352.9z"/>
<g id="Imported-Layers-13_3_" transform="translate(3.000000, 978.000000)" sketch:type="MSShapeGroup" class="st14">
	<path id="Fill-2_13_" d="M-226.3-450.8c-0.4-0.4-3.6-1.9-4.2-2.1c0-0.1-0.1-0.6-0.2-0.7c-0.2-0.1-0.7-0.3-0.7-0.3s-0.1-0.1-0.1-0.3
		c0-0.1,0.1-0.3,0.1-0.3c0.1-0.1,0.3-0.5,0.4-0.7c0.1-0.3,0.2-0.9,0.2-0.9c0-0.1,0.2-0.2,0.3-0.3c0.2-0.1,0.4-1.5,0.4-1.5
		c0-0.5-0.2-0.3-0.2-0.6v-1.2c0-1.5-1.2-2.5-2.7-2.5h-0.1c-1.5,0-2.7,1-2.7,2.5v1.2c0,0.3-0.2,0.1-0.2,0.6c0,0,0.2,1.4,0.4,1.5
		c0.1,0.1,0.3,0.1,0.3,0.3c0,0,0.1,0.7,0.1,0.9c0.1,0.3,0.3,0.6,0.4,0.7c0,0,0.1,0.1,0.1,0.3c0,0.1-0.1,0.2-0.1,0.3
		c0,0-0.5,0.3-0.7,0.3c-0.2,0.1-0.2,0.5-0.2,0.7c-0.6,0.2-3.8,1.7-4.2,2.1c-0.3,0.3-0.3,1.9-0.3,1.9v0.2c0,0.4,0.3,0.7,0.7,0.7h12.7
		c0.4,0,0.7-0.3,0.7-0.7v-0.2C-226-448.9-226-450.5-226.3-450.8"/>
</g>
<g id="Imported-Layers-13_2_" transform="translate(3.000000, 938.000000)" sketch:type="MSShapeGroup">
	<path id="Fill-1_10_" class="st15" d="M-228.5-453.1c1.2,0.5,2.6,1.2,2.9,1.6c0.2,0.2,0.5,0.6,0.5,2.4h3.5c0.3,0,0.5-0.2,0.5-0.5
		v-0.2c0,0,0-1.2-0.2-1.4c-0.3-0.3-2.8-1.4-3.3-1.6c0-0.1-0.1-0.5-0.2-0.5c-0.1-0.1-0.5-0.2-0.5-0.2s0-0.1-0.1-0.2
		c0-0.1,0.1-0.2,0.1-0.2c0.1-0.1,0.3-0.4,0.3-0.6c0.1-0.2,0.1-0.7,0.1-0.7c0-0.1,0.2-0.2,0.3-0.2c0.2-0.1,0.3-1.2,0.3-1.2
		c0-0.4-0.1-0.2-0.1-0.5v-1c0-1.2-1-1.9-2.2-1.9l0,0c-1.2,0-2.2,0.8-2.2,1.9v1c0,0.3-0.1,0.1-0.1,0.5c0,0,0.1,1.1,0.3,1.2
		c0.1,0.1,0.3,0.1,0.3,0.2c0,0,0.1,0.5,0.1,0.7c0.1,0.2,0.3,0.5,0.3,0.6c0,0,0.1,0.1,0.1,0.2s-0.1,0.2-0.1,0.2s-0.4,0.2-0.5,0.2
		C-228.4-453.3-228.5-453.2-228.5-453.1L-228.5-453.1L-228.5-453.1z"/>
	<path id="Fill-2_12_" class="st16" d="M-226.3-450.8c-0.4-0.4-3.6-1.9-4.2-2.1c0-0.1-0.1-0.6-0.2-0.7c-0.2-0.1-0.7-0.3-0.7-0.3
		s-0.1-0.1-0.1-0.3c0-0.1,0.1-0.3,0.1-0.3c0.1-0.1,0.3-0.5,0.4-0.7c0.1-0.3,0.2-0.9,0.2-0.9c0-0.1,0.2-0.2,0.3-0.3
		c0.2-0.1,0.4-1.5,0.4-1.5c0-0.5-0.2-0.3-0.2-0.6v-1.2c0-1.5-1.2-2.5-2.7-2.5h-0.1c-1.5,0-2.7,1-2.7,2.5v1.2c0,0.3-0.2,0.1-0.2,0.6
		c0,0,0.2,1.4,0.4,1.5c0.1,0.1,0.3,0.1,0.3,0.3c0,0,0.1,0.7,0.1,0.9c0.1,0.3,0.3,0.6,0.4,0.7c0,0,0.1,0.1,0.1,0.3
		c0,0.1-0.1,0.2-0.1,0.3c0,0-0.5,0.3-0.7,0.3c-0.2,0.1-0.2,0.5-0.2,0.7c-0.6,0.2-3.8,1.7-4.2,2.1c-0.3,0.3-0.3,1.9-0.3,1.9v0.2
		c0,0.4,0.3,0.7,0.7,0.7h12.7c0.4,0,0.7-0.3,0.7-0.7v-0.2C-226-448.9-226-450.5-226.3-450.8"/>
</g>
<g id="Page-1_4_" transform="translate(4.000000, 623.000000)" sketch:type="MSShapeGroup">
	<g id="Imported-Layers-10_3_">
		<path id="Fill-1_8_" class="st17" d="M-222.5-458v-1c0-0.6-0.5-1-1-1h-7c-0.3,0-0.7-0.1-1.3-0.8l-0.9-0.9
			c-0.2-0.2-0.4-0.3-0.7-0.3h-6.1c-0.6,0-1,0.4-1,1v15l4-12L-222.5-458L-222.5-458z"/>
		<path id="Fill-2_9_" class="st18" d="M-218.5-458l-3.8,11.3c-0.1,0.4-0.5,0.7-1,0.7h-17.2l4-12H-218.5L-218.5-458z"/>
	</g>
</g>
<g id="Imported-Layers-9-_x2B_-Path_1_" transform="translate(4.000000, 665.000000)" sketch:type="MSShapeGroup">
	<g id="Imported-Layers-9_1_">
		<path id="Fill-1_1_" class="st15" d="M-222.5-448.1c0,0.6-0.5,1-1,1h-16c-0.5,0-1-0.4-1-1v-11h18V-448.1"/>
		<path id="Fill-2_1_" class="st16" d="M-239.5-463h6.1c0.3,0,0.5,0.1,0.7,0.3l0.9,0.9c0.6,0.7,1,0.8,1.3,0.8h7c0.5,0,1,0.4,1,1v1
			h-18v-3C-240.5-462.6-240.1-463-239.5-463"/>
	</g>
</g>
<path class="st19" d="M-203.5,1058c0-3.3,2.7-6,6-6s6,2.7,6,6s-2.7,6-6,6"/>
<polygon class="st16" points="-206.5,1058 -200.5,1058 -203.5,1062 "/>
<g>
	<g id="Page-1_1_" transform="translate(4.000000, 888.000000)" sketch:type="MSShapeGroup">
		<g id="Imported-Layers_2_">
			<path id="Shape_41_" class="st0" d="M-240.5-463v2h15v-1h-7v-1H-240.5L-240.5-463z M-224.5-460h-16v9h16V-460L-224.5-460z"/>
		</g>
	</g>
	<path id="Combined-Shape_1_" class="st6" d="M-223.6,432.5l-2.2,2.2l-0.4-0.4l0.9-1.3h-5.3v-1h5.3l-0.9-1.3l0.4-0.4L-223.6,432.5z
		 M-231.6,432h-1.8v0.9h1.8V432z"/>
</g>
<g>
	<g id="Page-1_2_" transform="translate(4.000000, 888.000000)" sketch:type="MSShapeGroup">
		<g id="Imported-Layers_1_">
			<path id="Shape_1_" class="st20" d="M-240.5-436v2h15v-1h-7v-1H-240.5L-240.5-436z M-224.5-433h-16v9h16V-433L-224.5-433z"/>
		</g>
	</g>
	<path id="Combined-Shape_4_" class="st6" d="M-223.6,459.5l-2.2,2.2l-0.4-0.4l0.9-1.3h-5.3v-1h5.3l-0.9-1.3l0.4-0.4L-223.6,459.5z
		 M-231.6,459h-1.8v0.9h1.8V459z"/>
</g>
<g>
	<g id="Page-1_5_">
		<g id="Fill-2-_x2B_-Fill-1_1_" transform="translate(0.000000, 1.000000)">
			<path id="Fill-2_8_" class="st21" d="M-233.5,763h27.5c1.2,0,2.2,0.6,3.1,1.4l4.1,4.1c0.8,0.8,2.6,1.6,3.8,1.6h35
				c2.5,0,4,1.8,4,4.2v1.8h-82v-8.5C-238,765-236,763-233.5,763"/>
			<path id="Fill-1_5_" class="st22" d="M-156,830.5c0,2.5-2,4.5-4.5,4.5h-73c-2.5,0-4.5-2-4.5-4.5V776h82V830.5"/>
		</g>
	</g>
</g>
<g>
	<g id="Page-1_7_">
		<g id="Fill-2-_x2B_-Fill-1_4_" transform="translate(0.000000, 1.000000)">
			<path id="Fill-2_3_" class="st23" d="M-233.5,1093h27.5c1.2,0,2.2,0.6,3.1,1.4l4.1,4.1c0.8,0.8,2.6,1.6,3.8,1.6h35
				c2.5,0,4,1.8,4,4.2v1.8h-82v-8.5C-238,1095-236,1093-233.5,1093"/>
			<path id="Fill-1_3_" class="st24" d="M-156,1160.5c0,2.5-2,4.5-4.5,4.5h-73c-2.5,0-4.5-2-4.5-4.5V1106h82V1160.5"/>
		</g>
	</g>
</g>
<g>
	<path id="Fill-1-Copy" class="st24" d="M-156-393.8c0,2.5-2,4.5-4.5,4.5h-73c-2.5,0-4.5-2-4.5-4.5v-54.5h82V-393.8"/>
	<path class="st6" d="M-217.5-423.3c-2.5,0-4.5,2-4.5,4.5s2,4.5,4.5,4.5s4.5-2,4.5-4.5S-215-423.3-217.5-423.3z M-217.5-417.3
		c-0.8,0-1.5-0.7-1.5-1.5s0.7-1.5,1.5-1.5s1.5,0.7,1.5,1.5S-216.7-417.3-217.5-417.3z"/>
	<path id="Fill-2_4_" class="st6" d="M-210-418.8l9.3,9.8c0.4,0.4,1.1,0.5,1.6,0.3l0.2-0.1c0.5-0.2,0.6-0.8,0.3-1.2l-5.4-7.2h31
		c0.5,0,1-0.4,1-1v-1c0-0.6-0.5-1-1-1h-31l5.4-7.2c0.3-0.4,0.2-1-0.3-1.2l-0.2-0.1c-0.5-0.2-1.2-0.1-1.6,0.3L-210-418.8z"/>
	<path id="Fill-2-Copy" class="st25" d="M-233.5-461.3h27.5c1.2,0,2.2,0.6,3.1,1.4l4.1,4.1c0.8,0.8,2.6,1.6,3.8,1.6h35
		c2.5,0,4,1.8,4,4.2v1.8h-82v-8.5C-238-459.3-236-461.3-233.5-461.3"/>
</g>
<g>
	<path id="Fill-1_4_" class="st24" d="M-183.5-300.3h-32c-1.1,0-2-0.9-2-2v-23h36v23C-181.5-301.2-182.4-300.3-183.5-300.3z"/>
	<polygon id="Combined-Shape_3_" class="st6" points="-203.5,-313.3 -198.5,-308.3 -197.5,-309.3 -199.5,-312.3 -187.5,-312.3 
		-187.5,-314.3 -199.5,-314.3 -197.5,-317.3 -198.5,-318.3 	"/>
	<path class="st6" d="M-208.5-316.3c-1.7,0-3,1.3-3,3s1.3,3,3,3c1.7,0,3-1.3,3-3S-206.9-316.3-208.5-316.3z M-208.5-312.3
		c-0.6,0-1-0.4-1-1s0.4-1,1-1c0.6,0,1,0.4,1,1S-208-312.3-208.5-312.3z"/>
	<path id="Fill-2_7_" class="st25" d="M-203.4-332.3c0.5,0,1,0.2,1.4,0.6l1.8,1.8c1.3,1.3,2.1,1.6,2.6,1.6h14c1.1,0,2,0.9,2,2v1h-36
		v-5c0-1.1,0.9-2,2-2L-203.4-332.3z"/>
</g>
<g>
	<path id="Combined-Shape_14_" class="st26" d="M-219,137c0,0.5-0.4,1-1,1h-16c-0.6,0-1-0.5-1-1v-11h18V137"/>
	<polygon id="Combined-Shape_5_" class="st6" points="-228.5,129 -229,129.5 -228,131 -234,131 -234,132 -228,132 -229,133.5 
		-228.5,134 -226,131.5 	"/>
	<path class="st6" d="M-225,131.5c0,0.8,0.7,1.5,1.5,1.5c0.8,0,1.5-0.7,1.5-1.5s-0.7-1.5-1.5-1.5C-224.3,130-225,130.7-225,131.5z
		 M-224,131h1v1h-1V131z"/>
	<path id="Fill-2_11_" class="st14" d="M-236,122l6.1,0c0.3,0,0.5,0.1,0.7,0.3l0.9,0.9c0.6,0.7,1,0.8,1.3,0.8h7c0.6,0,1,0.4,1,1v1
		h-18v-3C-237,122.4-236.6,122-236,122"/>
</g>
<path id="Combined-Shape_13_" class="st27" d="M-218,56c0,0.5-0.4,1-1,1h-16c-0.6,0-1-0.5-1-1V45h18V56"/>
<polygon id="Combined-Shape_6_" class="st6" points="-229,50.5 -226.5,53 -226,52.5 -227,51 -221,51 -221,50 -227,50 -226,48.5 
	-226.5,48 "/>
<path class="st6" d="M-231.5,49c-0.8,0-1.5,0.7-1.5,1.5s0.7,1.5,1.5,1.5c0.8,0,1.5-0.7,1.5-1.5S-230.7,49-231.5,49z M-231,51h-1v-1
	h1V51z"/>
<path id="Fill-2_16_" class="st14" d="M-235,41l6.1,0c0.3,0,0.5,0.1,0.7,0.3l0.9,0.9c0.6,0.7,1,0.8,1.3,0.8h7c0.6,0,1,0.4,1,1v1h-18
	v-3C-236,41.4-235.6,41-235,41"/>
<g>
	<g>
		<g id="Imported-Layers-11_1_" transform="translate(24.000000, 48.000000)" sketch:type="MSLayerGroup">
			<path id="Fill-1_6_" sketch:type="MSShapeGroup" class="st14" d="M-259.5,33h6.1c0.3,0,0.5,0.1,0.7,0.3l0.9,0.9
				c0.6,0.7,1,0.8,1.3,0.8h7c0.6,0,1,0.5,1,1v10l-18,3V34C-260.5,33.4-260,33-259.5,33"/>
			<path id="Fill-2_14_" sketch:type="MSShapeGroup" class="st26" d="M-238.5,37l-3.8,11.3c-0.1,0.4-0.5,0.7-0.9,0.7h-17.3l4-12
				H-238.5z"/>
		</g>
	</g>
	<polygon id="Combined-Shape_8_" class="st6" points="-227.5,90.5 -225.9,93 -225.2,92.5 -225.7,91 -219.7,91 -219.4,90 -225.4,90 
		-223.8,88.5 -224.2,88 	"/>
	<path class="st6" d="M-229.5,89c-0.8,0-1.7,0.7-2,1.5c-0.3,0.8,0.1,1.5,1,1.5c0.8,0,1.7-0.7,2-1.5C-228.2,89.7-228.7,89-229.5,89z
		 M-229.7,91h-1l0.4-1h1L-229.7,91z"/>
</g>
<g id="Group-3_2_" transform="translate(227.000000, 94.000000)">
	<path id="Fill-1-Copy_3_" class="st22" d="M-383,837.5c0,2.5-2,4.5-4.5,4.5h-73c-2.5,0-4.5-2-4.5-4.5V783h82V837.5"/>
	<path class="st6" d="M-408,812.5c0,2.5,2,4.5,4.5,4.5s4.5-2,4.5-4.5s-2-4.5-4.5-4.5S-408,810-408,812.5z M-405,812.5
		c0-0.8,0.7-1.5,1.5-1.5s1.5,0.7,1.5,1.5s-0.7,1.5-1.5,1.5S-405,813.3-405,812.5z"/>
	<path id="Fill-2_2_" class="st6" d="M-420.3,802.7c-0.4-0.4-1.1-0.5-1.6-0.3l-0.2,0.1c-0.5,0.2-0.6,0.8-0.3,1.2l5.4,7.2h-31
		c-0.5,0-1,0.4-1,1v1c0,0.6,0.4,1,1,1h31l-5.4,7.2c-0.3,0.4-0.2,1,0.3,1.2l0.2,0.1c0.5,0.2,1.2,0.1,1.6-0.3l9.3-9.8L-420.3,802.7z"
		/>
	<path id="Fill-2-Copy_3_" class="st21" d="M-460.5,770h27.5c1.2,0,2.2,0.6,3.1,1.4l4.1,4.1c0.8,0.8,2.6,1.6,3.8,1.6h35
		c2.5,0,4,1.8,4,4.2v1.8h-82v-8.5C-465,772-463,770-460.5,770"/>
</g>
<g>
	<path id="Fill-1-Copy_2_" class="st24" d="M-156,1271.5c0,2.5-2,4.5-4.5,4.5h-73c-2.5,0-4.5-2-4.5-4.5V1217h82V1271.5"/>
	<path class="st6" d="M-181,1246.5c0,2.5,2,4.5,4.5,4.5s4.5-2,4.5-4.5c0-2.5-2-4.5-4.5-4.5S-181,1244-181,1246.5z M-178,1246.5
		c0-0.8,0.7-1.5,1.5-1.5s1.5,0.7,1.5,1.5c0,0.8-0.7,1.5-1.5,1.5S-178,1247.3-178,1246.5z"/>
	<path id="Fill-2_5_" class="st6" d="M-193.3,1236.7c-0.4-0.4-1.1-0.5-1.6-0.3l-0.2,0.1c-0.5,0.2-0.6,0.8-0.3,1.2l5.4,7.2h-31
		c-0.5,0-1,0.4-1,1v1c0,0.6,0.4,1,1,1h31l-5.4,7.2c-0.3,0.4-0.2,1,0.3,1.2l0.2,0.1c0.5,0.2,1.2,0.1,1.6-0.3l9.3-9.8L-193.3,1236.7z"
		/>
	<path id="Fill-2-Copy_2_" class="st25" d="M-233.5,1204h27.5c1.2,0,2.2,0.6,3.1,1.4l4.1,4.1c0.8,0.8,2.6,1.6,3.8,1.6h35
		c2.5,0,4,1.8,4,4.2v1.8h-82v-8.5C-238,1206-236,1204-233.5,1204"/>
</g>
<g>
	<path id="Combined-Shape_7_" class="st26" d="M-218.5-354c0,0.5-0.4,1-1,1h-16c-0.6,0-1-0.5-1-1v-11h18V-354"/>
	<polygon id="Combined-Shape_2_" class="st6" points="-228,-362 -228.5,-361.5 -227.5,-360 -233.5,-360 -233.5,-359 -227.5,-359 
		-228.5,-357.5 -228,-357 -225.5,-359.5 	"/>
	<path class="st6" d="M-224.5-359.5c0,0.8,0.7,1.5,1.5,1.5c0.8,0,1.5-0.7,1.5-1.5s-0.7-1.5-1.5-1.5
		C-223.8-361-224.5-360.3-224.5-359.5z M-223.5-360h1v1h-1V-360z"/>
	<path id="Fill-2_10_" class="st14" d="M-235.5-369l6.1,0c0.3,0,0.5,0.1,0.7,0.3l0.9,0.9c0.6,0.7,1,0.8,1.3,0.8h7c0.6,0,1,0.4,1,1v1
		h-18v-3C-236.5-368.6-236.1-369-235.5-369"/>
</g>
<g id="Group_6_" transform="translate(32.000000, 292.000000)" sketch:type="MSShapeGroup" class="st4">
	<path id="Shape_17_" class="st28" d="M-238.5-453l-2,5l5-2L-238.5-453L-238.5-453z"/>
	
		<rect id="Rectangle-path" x="-234.1" y="-462.2" transform="matrix(0.7072 0.707 -0.707 0.7072 -390.7456 30.3485)" class="st28" width="4.2" height="11.3"/>
	<path id="Shape_18_" class="st28" d="M-233.5-449l9,1h-12L-233.5-449L-233.5-449z"/>
</g>
<g id="Group_7_" transform="translate(32.000000, 246.000000)" sketch:type="MSShapeGroup" class="st4">
	<path id="Shape_19_" class="st28" d="M-230.5-453c-2.2,0-4-1.8-4-4s1.8-4,4-4s4,1.8,4,4S-228.3-453-230.5-453L-230.5-453
		L-230.5-453z M-230.5-463c-5,0-8.2,4.3-10,6c1.8,1.7,5,6,10,6s8.2-4.3,10-6C-222.3-458.8-225.5-463-230.5-463L-230.5-463
		L-230.5-463z"/>
	<path id="Shape_20_" class="st28" d="M-228.5-457c0,1.1-0.9,2-2,2s-2-0.9-2-2s0.9-2,2-2S-228.5-458.2-228.5-457L-228.5-457
		L-228.5-457z"/>
</g>
<path id="Shape_21_" sketch:type="MSShapeGroup" class="st29" d="M-206.5-258.6l3-3l3,3l7-7l3,3l-10,10L-206.5-258.6L-206.5-258.6z"
	/>
</svg>
