<?xml version="1.0" encoding="utf-8"?>
<!-- Generator: Adobe Illustrator 18.1.1, SVG Export Plug-In . SVG Version: 6.00 Build 0)  -->
<!DOCTYPE svg PUBLIC "-//W3C//DTD SVG 1.1//EN" "http://www.w3.org/Graphics/SVG/1.1/DTD/svg11.dtd">
<svg version="1.1" id="Layer_1" xmlns:sketch="http://www.bohemiancoding.com/sketch/ns"
	 xmlns="http://www.w3.org/2000/svg" xmlns:xlink="http://www.w3.org/1999/xlink" x="0px" y="0px" width="100px" height="1576.2px"
	 viewBox="-370 -155.4 100 1576.2" enable-background="new -370 -155.4 100 1576.2" xml:space="preserve">
<path id="Shape_2_" sketch:type="MSShapeGroup" fill="#777777" d="M-314,234.6c0-4.4-3.6-8-8-8s-8,3.6-8,8s3.6,8,8,8
	S-314,239-314,234.6L-314,234.6L-314,234.6z M-320,229.6v4h3l-5,6l-5-6h3v-4H-320L-320,229.6z"/>
<g id="Group_1_" transform="translate(31.000000, 462.000000)" sketch:type="MSShapeGroup">
	<path id="Shape_3_" fill="#777777" d="M-351.5-146.4v-2h-8v-3l-4,4l4,4v-3H-351.5L-351.5-146.4z"/>
	<path id="Shape_4_" fill="#777777" d="M-351.5-154.4c-3.2,0-5.9,2.1-6.7,5h2.1c0.8-1.8,2.5-3,4.6-3c2.8,0,5,2.2,5,5
		c0,2.8-2.2,5-5,5c-2,0-3.8-1.2-4.6-3h-2.1c0.9,2.9,3.5,5,6.7,5c3.9,0,7-3.1,7-7C-344.5-151.3-347.6-154.4-351.5-154.4L-351.5-154.4
		L-351.5-154.4z"/>
</g>
<g id="Group_2_" transform="translate(35.000000, 420.000000)" sketch:type="MSShapeGroup">
	<path id="Shape_5_" fill="#777777" d="M-364-138.4h12v-7c-2.8,0-5-2.2-5-5c0-0.7,0.1-1.4,0.4-2h-4.4l-3,3V-138.4L-364-138.4z"/>
	<path id="Shape_6_" fill="#777777" d="M-356-150.4c0,2.2,1.8,4,4,4s4-1.8,4-4c0-2.2-1.8-4-4-4S-356-152.7-356-150.4L-356-150.4
		L-356-150.4z M-354-151.4h2v-2l3,3l-3,3v-2h-2V-151.4L-354-151.4z"/>
</g>
<path id="Shape_46_" sketch:type="MSShapeGroup" fill="#2BA6DE" d="M-314,1274.6c0-4.4-3.6-8-8-8s-8,3.6-8,8s3.6,8,8,8
	S-314,1279-314,1274.6L-314,1274.6L-314,1274.6z M-320,1269.6v4h3l-5,6l-5-6h3v-4H-320L-320,1269.6z"/>
<g id="Group_14_" transform="translate(31.000000, 462.000000)" sketch:type="MSShapeGroup">
	<path id="Shape_45_" fill="#D90007" d="M-351.5,873.5v-2h-8v-3l-4,4l4,4v-3H-351.5L-351.5,873.5z"/>
	<path id="Shape_44_" fill="#D90007" d="M-351.5,865.5c-3.2,0-5.9,2.1-6.7,5h2.1c0.8-1.8,2.5-3,4.6-3c2.8,0,5,2.2,5,5s-2.2,5-5,5
		c-2,0-3.8-1.2-4.6-3h-2.1c0.9,2.9,3.5,5,6.7,5c3.9,0,7-3.1,7-7S-347.6,865.5-351.5,865.5L-351.5,865.5L-351.5,865.5z"/>
</g>
<g id="Group_13_" transform="translate(35.000000, 420.000000)" sketch:type="MSShapeGroup">
	<path id="Shape_43_" fill="#31B500" d="M-364,891.5h12v-7c-2.8,0-5-2.2-5-5c0-0.7,0.1-1.4,0.4-2h-4.4l-3,3V891.5L-364,891.5z"/>
	<path id="Shape_42_" fill="#31B500" d="M-356,879.5c0,2.2,1.8,4,4,4s4-1.8,4-4s-1.8-4-4-4S-356,877.3-356,879.5L-356,879.5
		L-356,879.5z M-354,878.5h2v-2l3,3l-3,3v-2h-2V878.5L-354,878.5z"/>
</g>
<g id="Group_4_" transform="translate(40.000000, 347.000000)" sketch:type="MSShapeGroup" opacity="0.3">
	<path id="Shape_9_" fill="#191717" d="M-364-152.4c0-1.1,0.9-2,2-2s2,0.9,2,2c0,1.1-0.9,2-2,2S-364-151.4-364-152.4L-364-152.4
		L-364-152.4z"/>
</g>
<g id="Group_6_" transform="translate(32.000000, 292.000000)" sketch:type="MSShapeGroup" opacity="0.3">
	<path id="Shape_17_" fill="#030303" d="M-362-144.4l-2,5l5-2L-362-144.4L-362-144.4z"/>
	
		<rect id="Rectangle-path" x="-357.6" y="-153.6" transform="matrix(0.7072 0.707 -0.707 0.7072 -208.706 208.029)" fill="#030303" width="4.2" height="11.3"/>
	<path id="Shape_18_" fill="#030303" d="M-357-140.4l9,1h-12L-357-140.4L-357-140.4z"/>
</g>
<g id="Group_7_" transform="translate(32.000000, 246.000000)" sketch:type="MSShapeGroup" opacity="0.3">
	<path id="Shape_19_" fill="#030303" d="M-354-144.4c-2.2,0-4-1.8-4-4c0-2.2,1.8-4,4-4s4,1.8,4,4C-350-146.2-351.8-144.4-354-144.4
		L-354-144.4L-354-144.4z M-354-154.4c-5,0-8.2,4.3-10,6c1.8,1.7,5,6,10,6s8.2-4.3,10-6C-345.8-150.2-349-154.4-354-154.4
		L-354-154.4L-354-154.4z"/>
	<path id="Shape_20_" fill="#030303" d="M-352-148.4c0,1.1-0.9,2-2,2s-2-0.9-2-2c0-1.1,0.9-2,2-2S-352-149.6-352-148.4L-352-148.4
		L-352-148.4z"/>
</g>
<path id="Shape_21_" sketch:type="MSShapeGroup" fill="#59AD46" d="M-330,50l3-3l3,3l7-7l3,3l-10,10L-330,50L-330,50z"/>
<path id="Shape_23_" sketch:type="MSShapeGroup" fill="#FFFFFF" d="M-362,881c0,4.4,3.6,8,8,8s8-3.6,8-8s-3.6-8-8-8
	S-362,876.6-362,881L-362,881L-362,881z M-355,876h2v4h4v2h-4v4h-2v-4h-4v-2h4V876L-355,876z"/>
<g id="Group_8_" transform="translate(4.000000, 716.000000)" sketch:type="MSShapeGroup">
	<path id="Shape_24_" opacity="0.5" fill="#777777" enable-background="new    " d="M-344.1-139.7c-0.5-0.1-0.8-0.5-0.8-0.9
		c0-0.1,0.1-0.2,0.1-0.2c1-0.6,1.8-1.5,1.8-2.6c0.1-2.3-2.1-4.1-4.3-4.7c0.1,1.7-0.4,3.3-1.4,4.6c-0.9,1.1-2.2,1.9-3.7,2.4
		c0.8,0.7,1.9,1.2,3.1,1.2c0.7,0.1,1.5,0,2.2-0.1c0.8,0.6,2,0.7,2.9,0.6C-343.8-139.5-343.9-139.6-344.1-139.7L-344.1-139.7
		L-344.1-139.7z"/>
	<path id="Shape_25_" fill="#777777" d="M-348.9-149.3c-0.8-3.6-4.4-4.7-7.8-4c-3.2,0.7-6.4,3.1-6.3,6.4c0,1.5,1,2.7,2.4,3.5
		c0.1,0.1,0.2,0.2,0.2,0.3c0,0.6-0.5,1.1-1.1,1.2c-0.3,0.1-0.4,0.2,0,0.3c1.3,0.1,2.8,0,3.9-0.8c1,0.1,2,0.2,2.9,0.1
		C-350.7-142.4-348-145.4-348.9-149.3L-348.9-149.3L-348.9-149.3z"/>
</g>
<path id="Shape_26_" sketch:type="MSShapeGroup" fill="#777777" d="M-360,699.5c0,4.4,3.6,8,8,8s8-3.6,8-8s-3.6-8-8-8
	S-360,695.1-360,699.5L-360,699.5L-360,699.5z M-354,704.5v-4h-3l5-6l5,6h-3v4H-354L-354,704.5z"/>
<path id="Shape_28_" sketch:type="MSShapeGroup" fill="#777777" d="M-343,599.5c0-4.4-3.6-8-8-8s-8,3.6-8,8s3.6,8,8,8
	S-343,604-343,599.5L-343,599.5L-343,599.5z M-356,599.5l2-2l2,2l4-4l2,2l-6,6L-356,599.5L-356,599.5z"/>
<path id="Shape_22_" sketch:type="MSShapeGroup" fill="#31B500" d="M-343,629.5c0-4.4-3.6-8-8-8s-8,3.6-8,8s3.6,8,8,8
	S-343,634-343,629.5L-343,629.5L-343,629.5z M-356,629.5l2-2l2,2l4-4l2,2l-6,6L-356,629.5L-356,629.5z"/>
<g id="Group_9_" transform="translate(1.000000, 1069.000000)" sketch:type="MSShapeGroup">
	<path id="Shape_29_" opacity="0.5" fill="#2EA0DA" enable-background="new    " d="M-346-141.2c-0.4-0.1-0.7-0.4-0.7-0.9
		c0-0.1,0.1-0.2,0.1-0.2c0.9-0.5,1.6-1.4,1.6-2.4c0-2.2-1.9-3.8-3.9-4.4c0.1,1.6-0.4,3.1-1.3,4.2c-0.8,1.1-2,1.8-3.3,2.2
		c0.7,0.7,1.7,1.1,2.8,1.2c0.6,0,1.3,0,2-0.1c0.7,0.6,1.8,0.6,2.6,0.6C-345.8-141-345.8-141.1-346-141.2L-346-141.2L-346-141.2z"/>
	<path id="Shape_30_" fill="#2EA0DA" d="M-350.3-150c-0.7-3.3-3.9-4.4-7.1-3.7c-2.9,0.6-5.7,2.9-5.6,6c0,1.4,0.9,2.5,2.1,3.2
		c0.1,0.1,0.2,0.2,0.2,0.3c0,0.6-0.4,1-1,1.1c-0.3,0.1-0.3,0.2,0,0.3c1.2,0.1,2.5,0,3.5-0.7c0.9,0.1,1.8,0.2,2.6,0.1
		C-351.9-143.7-349.5-146.4-350.3-150L-350.3-150L-350.3-150z"/>
</g>
<g id="Group_10_" transform="translate(1.000000, 1153.000000)" sketch:type="MSShapeGroup" opacity="0.3">
	<path id="Shape_31_" opacity="0.5" fill="#151515" enable-background="new    " d="M-346-141.2c-0.4-0.1-0.7-0.4-0.7-0.9
		c0-0.1,0.1-0.2,0.1-0.2c0.9-0.5,1.6-1.4,1.6-2.4c0-2.2-1.9-3.8-3.9-4.4c0.1,1.6-0.4,3.1-1.3,4.2c-0.8,1.1-2,1.8-3.3,2.2
		c0.7,0.7,1.7,1.1,2.8,1.2c0.6,0,1.3,0,2-0.1c0.7,0.6,1.8,0.6,2.6,0.6C-345.8-141-345.8-141.1-346-141.2L-346-141.2L-346-141.2z"/>
	<path id="Shape_32_" fill="#151515" d="M-350.3-150c-0.7-3.3-3.9-4.4-7.1-3.7c-2.9,0.6-5.7,2.9-5.6,6c0,1.4,0.9,2.5,2.1,3.2
		c0.1,0.1,0.2,0.2,0.2,0.3c0,0.6-0.4,1-1,1.1c-0.3,0.1-0.3,0.2,0,0.3c1.2,0.1,2.5,0,3.5-0.7c0.9,0.1,1.8,0.2,2.6,0.1
		C-351.9-143.7-349.5-146.4-350.3-150L-350.3-150L-350.3-150z"/>
</g>
<path id="Shape_33_" sketch:type="MSShapeGroup" opacity="0.3" fill="#151515" enable-background="new    " d="M-362,950.6
	c0,1.9,1.5,3.5,3.3,3.5h0.1h9.3c1.8,0,3.3-1.6,3.3-3.5c0-1.9-1.4-3.4-3.1-3.5v0c0-2.2-1.7-4.1-3.8-4.1c-1.4,0-2.6,0.8-3.2,1.9
	c-0.2-0.1-0.5-0.2-0.8-0.2c-1,0-1.9,0.9-1.9,2c0,0.1,0,0.2,0,0.3C-360.6,947.2-362,948.7-362,950.6L-362,950.6L-362,950.6z"/>
<path id="Shape_34_" sketch:type="MSShapeGroup" opacity="0.3" fill="#151515" enable-background="new    " d="M-362,978.6
	c0,1.9,1.5,3.5,3.3,3.5h0.1h9.3c1.8,0,3.3-1.6,3.3-3.5c0-1.9-1.4-3.4-3.1-3.5v0c0-2.2-1.7-4.1-3.8-4.1c-1.4,0-2.6,0.8-3.2,1.9
	c-0.2-0.1-0.5-0.2-0.8-0.2c-1,0-1.9,0.9-1.9,2c0,0.1,0,0.2,0,0.3C-360.6,975.2-362,976.7-362,978.6L-362,978.6L-362,978.6z"/>
<path id="Shape_35_" sketch:type="MSShapeGroup" opacity="0.3" fill="#020202" enable-background="new    " d="M-358,1030.6h8
	c1.1,0,2,0.9,2,2s-0.9,2-2,2h-8c-1.1,0-2-0.9-2-2S-359.1,1030.6-358,1030.6L-358,1030.6L-358,1030.6z"/>
<path id="Shape_36_" sketch:type="MSShapeGroup" fill="#777777" d="M-353.3,665.5c0,1.1-0.9,2-2,2c-1.1,0-2-0.9-2-2s0.9-2,2-2
	C-354.2,663.5-353.3,664.5-353.3,665.5L-353.3,665.5L-353.3,665.5z"/>
<path id="Shape_37_" sketch:type="MSShapeGroup" fill="#777777" d="M-356.9,661.5c-0.1-0.5-0.1-1,0-1.4c0.1-0.4,0.3-0.8,0.6-1.1
	c0.2-0.3,0.5-0.6,0.8-0.9c0.3-0.3,0.6-0.5,0.9-0.8c0.3-0.2,0.5-0.5,0.7-0.8c0.2-0.2,0.3-0.5,0.3-0.8c0-0.5-0.2-0.9-0.5-1.1
	c-0.3-0.2-0.8-0.4-1.2-0.4c-0.5,0-0.9,0.1-1.3,0.3c-0.4,0.2-0.7,0.5-1.1,0.8l-1.9-1.8c0.6-0.6,1.2-1.1,2-1.5
	c0.8-0.4,1.6-0.6,2.5-0.6c0.7,0,1.3,0.1,1.9,0.2c0.6,0.2,1.1,0.4,1.5,0.7c0.4,0.3,0.8,0.7,1,1.2c0.3,0.5,0.4,1,0.4,1.7
	c0,0.5-0.1,1-0.3,1.3c-0.2,0.4-0.4,0.7-0.7,1c-0.3,0.3-0.6,0.6-0.9,0.9c-0.3,0.3-0.6,0.5-0.9,0.8s-0.5,0.6-0.6,0.9
	c-0.2,0.3-0.2,0.7-0.2,1.2L-356.9,661.5L-356.9,661.5z"/>
<g id="Imported-Layers-13_3_" transform="translate(3.000000, 978.000000)" sketch:type="MSShapeGroup" opacity="0.5">
	<path id="Fill-2_13_" d="M-349.8-142.2c-0.4-0.4-3.6-1.9-4.2-2.1c0-0.1-0.1-0.6-0.2-0.7c-0.2-0.1-0.7-0.3-0.7-0.3
		c0,0-0.1-0.1-0.1-0.3c0-0.1,0.1-0.3,0.1-0.3c0.1-0.1,0.3-0.5,0.4-0.7c0.1-0.3,0.2-0.9,0.2-0.9c0-0.1,0.2-0.2,0.3-0.3
		c0.2-0.1,0.4-1.5,0.4-1.5c0-0.5-0.2-0.3-0.2-0.6v-1.2c0-1.5-1.2-2.5-2.7-2.5h-0.1c-1.5,0-2.7,1-2.7,2.5v1.2c0,0.3-0.2,0.1-0.2,0.6
		c0,0,0.2,1.4,0.4,1.5c0.1,0.1,0.3,0.1,0.3,0.3c0,0,0.1,0.7,0.1,0.9c0.1,0.3,0.3,0.6,0.4,0.7c0,0,0.1,0.1,0.1,0.3
		c0,0.1-0.1,0.2-0.1,0.3c0,0-0.5,0.3-0.7,0.3c-0.2,0.1-0.2,0.5-0.2,0.7c-0.6,0.2-3.8,1.7-4.2,2.1c-0.3,0.3-0.3,1.9-0.3,1.9v0.2
		c0,0.4,0.3,0.7,0.7,0.7h12.7c0.4,0,0.7-0.3,0.7-0.7v-0.2C-349.5-140.3-349.5-141.9-349.8-142.2"/>
</g>
<g id="Imported-Layers-13_2_" transform="translate(3.000000, 938.000000)" sketch:type="MSShapeGroup">
	<path id="Fill-1_10_" opacity="0.4" enable-background="new    " d="M-352-144.5c1.2,0.5,2.6,1.2,2.9,1.6c0.2,0.2,0.5,0.6,0.5,2.4
		h3.5c0.3,0,0.5-0.2,0.5-0.5v-0.2c0,0,0-1.2-0.2-1.4c-0.3-0.3-2.8-1.4-3.3-1.6c0-0.1-0.1-0.5-0.2-0.5c-0.1-0.1-0.5-0.2-0.5-0.2
		c0,0,0-0.1-0.1-0.2c0-0.1,0.1-0.2,0.1-0.2c0.1-0.1,0.3-0.4,0.3-0.6c0.1-0.2,0.1-0.7,0.1-0.7c0-0.1,0.2-0.2,0.3-0.2
		c0.2-0.1,0.3-1.2,0.3-1.2c0-0.4-0.1-0.2-0.1-0.5v-1c0-1.2-1-1.9-2.2-1.9h0c-1.2,0-2.2,0.8-2.2,1.9v1c0,0.3-0.1,0.1-0.1,0.5
		c0,0,0.1,1.1,0.3,1.2c0.1,0.1,0.3,0.1,0.3,0.2c0,0,0.1,0.5,0.1,0.7c0.1,0.2,0.3,0.5,0.3,0.6c0,0,0.1,0.1,0.1,0.2
		c0,0.1-0.1,0.2-0.1,0.2c0,0-0.4,0.2-0.5,0.2C-351.9-144.7-352-144.6-352-144.5L-352-144.5L-352-144.5z"/>
	<path id="Fill-2_12_" opacity="0.5" enable-background="new    " d="M-349.8-142.2c-0.4-0.4-3.6-1.9-4.2-2.1c0-0.1-0.1-0.6-0.2-0.7
		c-0.2-0.1-0.7-0.3-0.7-0.3c0,0-0.1-0.1-0.1-0.3c0-0.1,0.1-0.3,0.1-0.3c0.1-0.1,0.3-0.5,0.4-0.7c0.1-0.3,0.2-0.9,0.2-0.9
		c0-0.1,0.2-0.2,0.3-0.3c0.2-0.1,0.4-1.5,0.4-1.5c0-0.5-0.2-0.3-0.2-0.6v-1.2c0-1.5-1.2-2.5-2.7-2.5h-0.1c-1.5,0-2.7,1-2.7,2.5v1.2
		c0,0.3-0.2,0.1-0.2,0.6c0,0,0.2,1.4,0.4,1.5c0.1,0.1,0.3,0.1,0.3,0.3c0,0,0.1,0.7,0.1,0.9c0.1,0.3,0.3,0.6,0.4,0.7
		c0,0,0.1,0.1,0.1,0.3c0,0.1-0.1,0.2-0.1,0.3c0,0-0.5,0.3-0.7,0.3c-0.2,0.1-0.2,0.5-0.2,0.7c-0.6,0.2-3.8,1.7-4.2,2.1
		c-0.3,0.3-0.3,1.9-0.3,1.9v0.2c0,0.4,0.3,0.7,0.7,0.7h12.7c0.4,0,0.7-0.3,0.7-0.7v-0.2C-349.5-140.3-349.5-141.9-349.8-142.2"/>
</g>
<g id="Imported-Layers_1_" transform="translate(4.000000, 94.000000)" sketch:type="MSShapeGroup">
	<g id="Group_12_">
		<path id="Fill-1_9_" fill="#AAAAAA" d="M-346-139.5c0,0.6-0.5,1-1,1h-16c-0.5,0-1-0.4-1-1v-11h18V-139.5"/>
		<path id="Fill-2_10_" fill="#999999" d="M-363-154.4l6.1,0c0.3,0,0.5,0.1,0.7,0.3l0.9,0.9c0.6,0.7,1,0.8,1.3,0.8h7
			c0.5,0,1,0.4,1,1v1h-18v-3C-364-154-363.6-154.4-363-154.4"/>
		<path id="Fill-3_1_" fill="#FFFFFF" d="M-349.1-143.4c-0.1-0.1-1.2-0.6-1.5-0.7c0,0,0-0.2-0.1-0.2c-0.1,0-0.2-0.1-0.2-0.1
			c0,0,0-0.1,0-0.1c0,0,0-0.1,0-0.1c0-0.1,0.1-0.2,0.1-0.3c0-0.1,0.1-0.3,0.1-0.3c0,0,0.1-0.1,0.1-0.1c0.1,0,0.2-0.5,0.2-0.5
			c0-0.2,0-0.1,0-0.2v-0.4c0-0.5-0.5-0.9-1.1-0.9h0c-0.5,0-1.1,0.3-1.1,0.9v0.4c0,0.1,0,0,0,0.2c0,0,0.1,0.5,0.2,0.5
			c0,0,0.1,0,0.1,0.1c0,0,0,0.2,0.1,0.3c0,0.1,0.1,0.2,0.1,0.3c0,0,0,0,0,0.1c0,0,0,0.1,0,0.1c0,0-0.2,0.1-0.2,0.1
			c-0.1,0-0.1,0.2-0.1,0.2c0,0-0.1,0-0.1,0c0.5,0.2,1.2,0.6,1.3,0.7c0,0,0.2,0.2,0.2,0.9h1.6c0.1,0,0.3-0.1,0.3-0.2v-0.1
			C-349-142.7-349-143.3-349.1-143.4"/>
		<path id="Fill-4_1_" fill="#FFFFFF" d="M-357.6-144.1c0,0,0-0.2-0.1-0.2c-0.1,0-0.2-0.1-0.2-0.1c0,0,0-0.1,0-0.1c0,0,0-0.1,0-0.1
			c0-0.1,0.1-0.2,0.1-0.3c0-0.1,0.1-0.3,0.1-0.3c0,0,0.1-0.1,0.1-0.1c0.1,0,0.2-0.5,0.2-0.5c0-0.2,0-0.1,0-0.2v-0.4
			c0-0.5-0.5-0.9-1.1-0.9h0c-0.5,0-1.1,0.3-1.1,0.9v0.4c0,0.1,0,0,0,0.2c0,0,0.1,0.5,0.2,0.5c0,0,0.1,0,0.1,0.1c0,0,0,0.2,0.1,0.3
			c0,0.1,0.1,0.2,0.1,0.3c0,0,0,0,0,0.1c0,0,0,0.1,0,0.1c0,0-0.2,0.1-0.2,0.1c-0.1,0-0.1,0.2-0.1,0.2c-0.2,0.1-1.3,0.6-1.5,0.7
			c-0.1,0.1-0.1,0.6-0.1,0.6v0.1c0,0.1,0.2,0.2,0.3,0.2h1.6c0-0.7,0.1-0.8,0.2-0.9C-358.8-143.5-358.1-143.8-357.6-144.1
			C-357.6-144.1-357.6-144.1-357.6-144.1"/>
		<path id="Fill-5_1_" fill="#FFFFFF" d="M-353.8-144.2c0-0.1,0-0.3-0.1-0.3c-0.1,0-0.3-0.1-0.3-0.1c0,0,0-0.1,0-0.1
			c0-0.1,0-0.1,0-0.1c0-0.1,0.2-0.2,0.2-0.3c0-0.1,0.1-0.4,0.1-0.4c0-0.1,0.1-0.1,0.2-0.1c0.1-0.1,0.2-0.7,0.2-0.7
			c0-0.2-0.1-0.1-0.1-0.3v-0.6c0-0.7-0.6-1.1-1.3-1.1h0c-0.7,0-1.3,0.4-1.3,1.1v0.6c0,0.2-0.1,0.1-0.1,0.3c0,0,0.1,0.6,0.2,0.7
			c0.1,0,0.2,0.1,0.2,0.1c0,0,0,0.3,0.1,0.4c0,0.1,0.2,0.3,0.2,0.3c0,0,0,0.1,0,0.1c0,0.1,0,0.1,0,0.1c0,0-0.2,0.1-0.3,0.1
			c-0.1,0-0.1,0.2-0.1,0.3c-0.3,0.1-1.8,0.8-1.9,0.9c-0.1,0.1-0.1,0.9-0.1,0.9v0.1c0,0.2,0.2,0.9,0.3,0.9h5.8c0.2,0,0.3-0.7,0.3-0.9
			v-0.1c0,0,0-0.7-0.1-0.9C-352-143.4-353.5-144.1-353.8-144.2"/>
	</g>
</g>
<g id="Page-1_4_" transform="translate(4.000000, 623.000000)" sketch:type="MSShapeGroup">
	<g id="Imported-Layers-10_3_">
		<path id="Fill-1_8_" opacity="0.5" fill="#111111" enable-background="new    " d="M-346-149.4v-1c0-0.6-0.5-1-1-1h-7
			c-0.3,0-0.7-0.1-1.3-0.8l-0.9-0.9c-0.2-0.2-0.4-0.3-0.7-0.3l-6.1,0c-0.6,0-1,0.4-1,1v15l4-12H-346L-346-149.4z"/>
		<path id="Fill-2_9_" opacity="0.4" fill="#111111" enable-background="new    " d="M-342-149.4l-3.8,11.3c-0.1,0.4-0.5,0.7-1,0.7
			H-364l4-12H-342L-342-149.4z"/>
	</g>
</g>
<g id="Imported-Layers-9-_x2B_-Path_3_" transform="translate(4.000000, 504.000000)" sketch:type="MSShapeGroup">
	<g id="Imported-Layers-9_3_">
		<path id="Fill-1_7_" opacity="0.4" enable-background="new    " d="M-346-139.5c0,0.6-0.5,1-1,1h-16c-0.5,0-1-0.4-1-1v-11h18
			V-139.5"/>
		<path id="Fill-2_7_" opacity="0.5" enable-background="new    " d="M-363-154.4l6.1,0c0.3,0,0.5,0.1,0.7,0.3l0.9,0.9
			c0.6,0.7,1,0.8,1.3,0.8h7c0.5,0,1,0.4,1,1v1h-18v-3C-364-154-363.6-154.4-363-154.4"/>
	</g>
	<path id="Path_5_" fill="#FFFFFF" d="M-351-144.9l-4.1,3.4l0-2l-3-0.1l0.1-3l3,0.1l0-2L-351-144.9L-351-144.9z"/>
</g>
<g id="Page-1_3_" transform="translate(4.000000, 543.000000)" sketch:type="MSShapeGroup">
	<g id="Imported-Layers-10_2_">
		<path id="Fill-1_6_" opacity="0.5" fill="#111111" enable-background="new    " d="M-346-149.4v-1c0-0.6-0.5-1-1-1h-7
			c-0.3,0-0.7-0.1-1.3-0.8l-0.9-0.9c-0.2-0.2-0.4-0.3-0.7-0.3l-6.1,0c-0.6,0-1,0.4-1,1v15l4-12H-346L-346-149.4z"/>
		<path id="Fill-2_6_" opacity="0.4" fill="#111111" enable-background="new    " d="M-342-149.4l-3.8,11.3c-0.1,0.4-0.5,0.7-1,0.7
			H-364l4-12H-342L-342-149.4z"/>
	</g>
</g>
<path id="Path_4_" sketch:type="MSShapeGroup" fill="#FFFFFF" d="M-344.5,399.1l-4.1,3.4l0-2l-3-0.1l0.1-3l3,0.1l0-2L-344.5,399.1
	L-344.5,399.1z"/>
<g id="Imported-Layers-9-_x2B_-Path_2_" transform="translate(4.000000, 585.000000)" sketch:type="MSShapeGroup">
	<g id="Imported-Layers-9_2_">
		<path id="Fill-1_5_" opacity="0.4" enable-background="new    " d="M-346-139.5c0,0.6-0.5,1-1,1h-16c-0.5,0-1-0.4-1-1v-11h18
			V-139.5"/>
		<path id="Fill-2_5_" opacity="0.5" enable-background="new    " d="M-363-154.4l6.1,0c0.3,0,0.5,0.1,0.7,0.3l0.9,0.9
			c0.6,0.7,1,0.8,1.3,0.8h7c0.5,0,1,0.4,1,1v1h-18v-3C-364-154-363.6-154.4-363-154.4"/>
	</g>
	<path id="Path_3_" fill="#FFFFFF" d="M-351-144.9l-4.1,3.4l0-2l-3-0.1l0.1-3l3,0.1l0-2L-351-144.9L-351-144.9z"/>
</g>
<g id="Imported-Layers-9-_x2B_-Path_1_" transform="translate(4.000000, 665.000000)" sketch:type="MSShapeGroup">
	<g id="Imported-Layers-9_1_">
		<path id="Fill-1_1_" opacity="0.4" enable-background="new    " d="M-346-139.5c0,0.6-0.5,1-1,1h-16c-0.5,0-1-0.4-1-1v-11h18
			V-139.5"/>
		<path id="Fill-2_1_" opacity="0.5" enable-background="new    " d="M-363-154.4l6.1,0c0.3,0,0.5,0.1,0.7,0.3l0.9,0.9
			c0.6,0.7,1,0.8,1.3,0.8h7c0.5,0,1,0.4,1,1v1h-18v-3C-364-154-363.6-154.4-363-154.4"/>
	</g>
</g>
<g id="Page-1" transform="translate(4.000000, 915.000000)" sketch:type="MSShapeGroup">
	<g id="Imported-Layers">
		<path id="Shape_27_" fill="#FFA500" d="M-364-154.4v2h15v-1h-7v-1H-364L-364-154.4z M-348-151.4h-16v9h16V-151.4L-348-151.4z
			 M-352-146.9l-4.1,3.4l0-2l-3-0.1l0.1-3l3,0.1l0-2L-352-146.9L-352-146.9z"/>
	</g>
</g>
<g id="Page-1_1_" transform="translate(4.000000, 888.000000)" sketch:type="MSShapeGroup">
	<g id="Imported-Layers_2_">
		<path id="Shape_41_" fill="#777777" d="M-364-154.4v2h15v-1h-7v-1H-364L-364-154.4z M-348-151.4h-16v9h16V-151.4L-348-151.4z
			 M-352-146.9l-4.1,3.4l0-2l-3-0.1l0.1-3l3,0.1l0-2L-352-146.9L-352-146.9z"/>
	</g>
</g>
<g id="Group_15_" transform="translate(0.000000, 120.000000)" sketch:type="MSLayerGroup">
	<path id="Fill-1" sketch:type="MSShapeGroup" fill="#F1D364" d="M-279-205c0,2.5-2,4.5-4.5,4.5h-73c-2.5,0-4.5-2-4.5-4.5v-54.5h82
		V-205"/>
	<path id="Fill-2" sketch:type="MSShapeGroup" fill="#ECC01E" d="M-356.5-272.4h27.5c1.2,0,2.2,0.6,3.1,1.4l4.1,4.1
		c0.8,0.8,2.6,1.6,3.8,1.6h35c2.5,0,4,1.8,4,4.2v1.8h-82v-8.5C-361-270.4-359-272.5-356.5-272.4"/>
	<path id="Imported-Layers_3_" sketch:type="MSShapeGroup" fill="#FFFFFF" d="M-333.6-225.3c0.6-0.6,3.1-1.9,5.2-2.9
		c-0.1-0.1-0.3-0.1-0.4-0.1c0-0.2-0.1-0.8-0.3-0.9c-0.2-0.1-0.9-0.5-0.9-0.5c0-0.1-0.1-0.2-0.1-0.4c0-0.2,0.1-0.4,0.1-0.4
		c0.1-0.2,0.4-0.7,0.5-1c0.1-0.4,0.2-1.3,0.2-1.3c0-0.2,0.3-0.3,0.5-0.4c0.3-0.2,0.8-2.2,0.8-2.2c0-0.6,0-0.4,0-0.8v-1.7
		c0-2.1-2.1-3.5-4.2-3.5h-0.1c-2.1,0-4.2,1.4-4.2,3.5v1.7c0,0.5,0,0.2,0,0.8c0,0,0.4,2,0.7,2.2c0.2,0.1,0.5,0.2,0.5,0.4
		c0,0,0.1,0.9,0.2,1.3c0.1,0.4,0.5,0.8,0.6,1c0,0,0.1,0.2,0.1,0.4c0,0.2-0.1,0.3-0.1,0.4c0,0-0.7,0.4-0.9,0.5
		c-0.2,0.1-0.3,0.8-0.3,0.9c-0.8,0.3-5.2,2.4-5.6,2.9c-0.4,0.4-0.6,2.1-0.6,2.1v0.6c0,0.5,0.9,1.3,1.4,1.3h6.1
		C-334.5-224.2-333.8-225.1-333.6-225.3L-333.6-225.3z"/>
	<path id="Imported-Layers-2" sketch:type="MSShapeGroup" fill="#FFFFFF" d="M-306.4-225.3c-0.6-0.6-3.1-1.9-5.2-2.9
		c0.1-0.1,0.3-0.1,0.4-0.1c0-0.2,0.1-0.8,0.3-0.9c0.2-0.1,0.9-0.5,0.9-0.5c0-0.1,0.1-0.2,0.1-0.4c0-0.2-0.1-0.4-0.1-0.4
		c-0.1-0.2-0.4-0.7-0.5-1c-0.1-0.4-0.2-1.3-0.2-1.3c0-0.2-0.3-0.3-0.5-0.4c-0.3-0.2-0.8-2.2-0.8-2.2c0-0.6,0-0.4,0-0.8v-1.7
		c0-2.1,2.1-3.5,4.2-3.5h0.1c2.1,0,4.2,1.4,4.2,3.5v1.7c0,0.5,0,0.2,0,0.8c0,0-0.4,2-0.7,2.2c-0.2,0.1-0.5,0.2-0.5,0.4
		c0,0-0.1,0.9-0.2,1.3c-0.1,0.4-0.5,0.8-0.6,1c0,0-0.1,0.2-0.1,0.4c0,0.2,0.1,0.3,0.1,0.4c0,0,0.7,0.4,0.9,0.5
		c0.2,0.1,0.3,0.8,0.3,0.9c0.8,0.3,5.2,2.4,5.6,2.9c0.4,0.4,0.6,2.1,0.6,2.1v0.6c0,0.5-0.9,1.3-1.4,1.3h-6.1
		C-305.5-224.2-306.2-225.1-306.4-225.3L-306.4-225.3z"/>
	<path id="vv" sketch:type="MSShapeGroup" fill="#FFFFFF" d="M-320-245.4c-2.9,0-5.5,1.9-5.5,4.7v2.3c0,0.6-0.2,0.2-0.2,1.1
		c0,0,0.4,2.7,0.9,2.9c0.2,0.1,0.7,0.2,0.7,0.5c0,0,0.2,1.2,0.3,1.7c0.1,0.5,0.6,1.1,0.8,1.4c0,0,0.1,0.2,0.1,0.5
		c0,0.2-0.1,0.4-0.1,0.5c0,0-1,0.5-1.3,0.6c-0.3,0.2-0.5,1-0.5,1.2c-1.1,0.4-7.1,3.2-7.8,3.9c-0.5,0.5-0.3,3.4-0.3,3.4v0.6
		c0,0.7,1.3,1.7,2,1.7h21.8c0.7,0,2.1-1,2.1-1.7v-0.6c0,0,0.2-2.9-0.3-3.4c-0.7-0.7-6.7-3.5-7.8-3.9c0-0.2-0.1-1.1-0.5-1.2
		c-0.3-0.1-1.3-0.6-1.3-0.6c0-0.1-0.1-0.3-0.1-0.5c0-0.2,0.1-0.5,0.1-0.5c0.1-0.3,0.6-0.9,0.7-1.4c0.1-0.5,0.3-1.7,0.3-1.7
		c0-0.3,0.4-0.4,0.6-0.5c0.4-0.2,0.9-2.9,0.9-2.9c0-0.9-0.2-0.5-0.2-1.1v-2.3C-314.5-243.6-317.1-245.4-320-245.4z"/>
</g>
<g id="Group_3_" transform="translate(0.000000, 120.000000)" sketch:type="MSLayerGroup">
	<path id="Fill-1_3_" sketch:type="MSShapeGroup" fill="#AAAAAA" d="M-280,1120c0,2.5-2,4.5-4.5,4.5h-73c-2.5,0-4.5-2-4.5-4.5v-54.5
		h82V1120"/>
	<path id="Fill-2_3_" sketch:type="MSShapeGroup" fill="#999999" d="M-357.5,1052.6h27.5c1.2,0,2.2,0.6,3.1,1.4l4.1,4.1
		c0.8,0.8,2.6,1.6,3.8,1.6h35c2.5,0,4,1.8,4,4.2v1.8h-82v-8.5C-362,1054.6-360,1052.5-357.5,1052.6"/>
	<path id="Imported-Layers_4_" sketch:type="MSShapeGroup" fill="#FFFFFF" d="M-334.6,1099.7c0.6-0.6,3.1-1.9,5.2-2.9
		c-0.1-0.1-0.3-0.1-0.4-0.1c0-0.2-0.1-0.8-0.3-0.9c-0.2-0.1-0.9-0.5-0.9-0.5c0-0.1-0.1-0.2-0.1-0.4c0-0.2,0.1-0.4,0.1-0.4
		c0.1-0.2,0.4-0.7,0.5-1c0.1-0.4,0.2-1.3,0.2-1.3c0-0.2,0.3-0.3,0.5-0.4c0.3-0.2,0.8-2.2,0.8-2.2c0-0.6,0-0.4,0-0.8v-1.7
		c0-2.1-2.1-3.5-4.2-3.5h-0.1c-2.1,0-4.2,1.4-4.2,3.5v1.7c0,0.5,0,0.2,0,0.8c0,0,0.4,2,0.7,2.2c0.2,0.1,0.5,0.2,0.5,0.4
		c0,0,0.1,0.9,0.2,1.3c0.1,0.4,0.5,0.8,0.6,1c0,0,0.1,0.2,0.1,0.4c0,0.2-0.1,0.3-0.1,0.4c0,0-0.7,0.4-0.9,0.5
		c-0.2,0.1-0.3,0.8-0.3,0.9c-0.8,0.3-5.2,2.4-5.6,2.9c-0.4,0.4-0.6,2.1-0.6,2.1v0.6c0,0.5,0.9,1.3,1.4,1.3h6.1
		C-335.5,1100.8-334.8,1099.9-334.6,1099.7L-334.6,1099.7z"/>
	<path id="Imported-Layers-2_1_" sketch:type="MSShapeGroup" fill="#FFFFFF" d="M-307.4,1099.7c-0.6-0.6-3.1-1.9-5.2-2.9
		c0.1-0.1,0.3-0.1,0.4-0.1c0-0.2,0.1-0.8,0.3-0.9c0.2-0.1,0.9-0.5,0.9-0.5c0-0.1,0.1-0.2,0.1-0.4c0-0.2-0.1-0.4-0.1-0.4
		c-0.1-0.2-0.4-0.7-0.5-1c-0.1-0.4-0.2-1.3-0.2-1.3c0-0.2-0.3-0.3-0.5-0.4c-0.3-0.2-0.8-2.2-0.8-2.2c0-0.6,0-0.4,0-0.8v-1.7
		c0-2.1,2.1-3.5,4.2-3.5h0.1c2.1,0,4.2,1.4,4.2,3.5v1.7c0,0.5,0,0.2,0,0.8c0,0-0.4,2-0.7,2.2c-0.2,0.1-0.5,0.2-0.5,0.4
		c0,0-0.1,0.9-0.2,1.3c-0.1,0.4-0.5,0.8-0.6,1c0,0-0.1,0.2-0.1,0.4c0,0.2,0.1,0.3,0.1,0.4c0,0,0.7,0.4,0.9,0.5
		c0.2,0.1,0.3,0.8,0.3,0.9c0.8,0.3,5.2,2.4,5.6,2.9c0.4,0.4,0.6,2.1,0.6,2.1v0.6c0,0.5-0.9,1.3-1.4,1.3h-6.1
		C-306.5,1100.8-307.2,1099.9-307.4,1099.7L-307.4,1099.7z"/>
	<path id="vv_1_" sketch:type="MSShapeGroup" fill="#FFFFFF" d="M-321,1079.6c-2.9,0-5.5,1.9-5.5,4.7v2.3c0,0.6-0.2,0.2-0.2,1.1
		c0,0,0.4,2.7,0.9,2.9c0.2,0.1,0.7,0.2,0.7,0.5c0,0,0.2,1.2,0.3,1.7c0.1,0.5,0.6,1.1,0.8,1.4c0,0,0.1,0.2,0.1,0.5
		c0,0.2-0.1,0.4-0.1,0.5c0,0-1,0.5-1.3,0.6c-0.3,0.2-0.5,1-0.5,1.2c-1.1,0.4-7.1,3.2-7.8,3.9c-0.5,0.5-0.3,3.4-0.3,3.4v0.6
		c0,0.7,1.3,1.7,2,1.7h21.8c0.7,0,2.1-1,2.1-1.7v-0.6c0,0,0.2-2.9-0.3-3.4c-0.7-0.7-6.7-3.5-7.8-3.9c0-0.2-0.1-1.1-0.5-1.2
		c-0.3-0.1-1.3-0.6-1.3-0.6c0-0.1-0.1-0.3-0.1-0.5c0-0.2,0.1-0.5,0.1-0.5c0.1-0.3,0.6-0.9,0.7-1.4c0.1-0.5,0.3-1.7,0.3-1.7
		c0-0.3,0.4-0.4,0.6-0.5c0.4-0.2,0.9-2.9,0.9-2.9c0-0.9-0.2-0.5-0.2-1.1v-2.3C-315.5,1081.4-318.1,1079.6-321,1079.6z"/>
</g>
<g id="Fill-2-_x2B_-Fill-1" sketch:type="MSLayerGroup">
	<path id="Fill-2_2_" sketch:type="MSShapeGroup" fill="#999999" d="M-357.5,1072.6h27.5c1.2,0,2.2,0.6,3.1,1.4l4.1,4.1
		c0.8,0.8,2.6,1.6,3.8,1.6h35c2.5,0,4,1.8,4,4.2v1.8h-82v-8.5C-362,1074.6-360,1072.5-357.5,1072.6"/>
	<path id="Fill-1_2_" sketch:type="MSShapeGroup" fill="#AAAAAA" d="M-280,1140c0,2.5-2,4.5-4.5,4.5h-73c-2.5,0-4.5-2-4.5-4.5v-54.5
		h82V1140"/>
</g>
<g id="Group_11_" transform="translate(0.000000, 120.000000)" sketch:type="MSLayerGroup">
	<path id="Fill-1_4_" sketch:type="MSShapeGroup" fill="#F1D364" d="M-303.5-112.8c0,1.2-1,2.1-2.1,2.1h-34.3c-1.2,0-2.1-1-2.1-2.1
		v-25.6h38.5V-112.8"/>
	<path id="Fill-2_4_" sketch:type="MSShapeGroup" fill="#ECC01E" d="M-339.9-144.4h12.9c0.6,0,1,0.3,1.4,0.6l1.9,1.9
		c0.4,0.4,1.2,0.7,1.8,0.7h16.4c1.2,0,1.9,0.8,1.9,2v0.8H-342v-4C-342-143.5-341.1-144.4-339.9-144.4"/>
	<path id="Imported-Layers_5_" sketch:type="MSShapeGroup" fill="#FFFFFF" d="M-329.1-122.3c0.3-0.3,1.5-0.9,2.4-1.4
		c-0.1,0-0.1-0.1-0.2-0.1c0-0.1,0-0.4-0.2-0.4c-0.1,0-0.4-0.2-0.4-0.2c0,0,0-0.1,0-0.2c0-0.1,0-0.2,0-0.2c0-0.1,0.2-0.3,0.3-0.5
		c0-0.2,0.1-0.6,0.1-0.6c0-0.1,0.1-0.1,0.2-0.2c0.1-0.1,0.4-1,0.4-1c0-0.3,0-0.2,0-0.4v-0.8c0-1-1-1.6-2-1.6h0c-1,0-2,0.6-2,1.6v0.8
		c0,0.2,0,0.1,0,0.4c0,0,0.2,0.9,0.3,1c0.1,0,0.2,0.1,0.2,0.2c0,0,0.1,0.4,0.1,0.6c0,0.2,0.2,0.4,0.3,0.5c0,0,0,0.1,0,0.2
		c0,0.1,0,0.2,0,0.2c0,0-0.3,0.2-0.4,0.2c-0.1,0.1-0.2,0.4-0.2,0.4c-0.4,0.1-2.4,1.1-2.6,1.4c-0.2,0.2-0.3,1-0.3,1v0.3
		c0,0.2,0.4,0.6,0.7,0.6h2.9C-329.5-121.8-329.2-122.2-329.1-122.3L-329.1-122.3z"/>
	<path id="Imported-Layers-2_2_" sketch:type="MSShapeGroup" fill="#FFFFFF" d="M-316.4-122.3c-0.3-0.3-1.5-0.9-2.4-1.4
		c0.1,0,0.1-0.1,0.2-0.1c0-0.1,0-0.4,0.2-0.4c0.1,0,0.4-0.2,0.4-0.2c0,0,0-0.1,0-0.2c0-0.1,0-0.2,0-0.2c0-0.1-0.2-0.3-0.3-0.5
		c0-0.2-0.1-0.6-0.1-0.6c0-0.1-0.1-0.1-0.2-0.2c-0.1-0.1-0.4-1-0.4-1c0-0.3,0-0.2,0-0.4v-0.8c0-1,1-1.6,2-1.6h0c1,0,2,0.6,2,1.6v0.8
		c0,0.2,0,0.1,0,0.4c0,0-0.2,0.9-0.3,1c-0.1,0-0.2,0.1-0.2,0.2c0,0-0.1,0.4-0.1,0.6c0,0.2-0.2,0.4-0.3,0.5c0,0,0,0.1,0,0.2
		c0,0.1,0,0.2,0,0.2c0,0,0.3,0.2,0.4,0.2c0.1,0.1,0.2,0.4,0.2,0.4c0.4,0.1,2.4,1.1,2.6,1.4c0.2,0.2,0.3,1,0.3,1v0.3
		c0,0.2-0.4,0.6-0.7,0.6h-2.9C-316-121.8-316.3-122.2-316.4-122.3L-316.4-122.3z"/>
	<path id="vv_2_" sketch:type="MSShapeGroup" fill="#FFFFFF" d="M-322.8-131.8c-1.3,0-2.6,0.9-2.6,2.2v1.1c0,0.3-0.1,0.1-0.1,0.5
		c0,0,0.2,1.3,0.4,1.3c0.1,0.1,0.3,0.1,0.3,0.2c0,0,0.1,0.6,0.1,0.8c0.1,0.2,0.3,0.5,0.4,0.6c0,0,0.1,0.1,0.1,0.2
		c0,0.1-0.1,0.2-0.1,0.2c0,0-0.5,0.2-0.6,0.3c-0.1,0.1-0.2,0.5-0.2,0.6c-0.5,0.2-3.3,1.5-3.7,1.8c-0.2,0.2-0.2,1.6-0.2,1.6v0.3
		c0,0.3,0.6,0.8,0.9,0.8h10.2c0.3,0,1-0.5,1-0.8v-0.3c0,0,0.1-1.4-0.2-1.6c-0.3-0.3-3.1-1.6-3.7-1.8c0-0.1-0.1-0.5-0.2-0.6
		c-0.1-0.1-0.6-0.3-0.6-0.3c0,0-0.1-0.1-0.1-0.2c0-0.1,0.1-0.2,0.1-0.2c0.1-0.1,0.3-0.4,0.4-0.6c0.1-0.2,0.1-0.8,0.1-0.8
		c0-0.1,0.2-0.2,0.3-0.2c0.2-0.1,0.4-1.3,0.4-1.3c0-0.4-0.1-0.2-0.1-0.5v-1.1C-320.2-130.9-321.4-131.8-322.8-131.8z"/>
</g>
<path opacity="0.5" fill="none" stroke="#000000" stroke-width="2" stroke-miterlimit="10" d="M-327,1366.6c0-3.3,2.7-6,6-6
	s6,2.7,6,6s-2.7,6-6,6"/>
<polygon opacity="0.5" points="-330,1366.6 -324,1366.6 -327,1370.6 "/>
</svg>
