<?xml version="1.0" encoding="utf-8"?>
<!-- Generator: Adobe Illustrator 16.0.0, SVG Export Plug-In . SVG Version: 6.00 Build 0)  -->
<!DOCTYPE svg PUBLIC "-//W3C//DTD SVG 1.1//EN" "http://www.w3.org/Graphics/SVG/1.1/DTD/svg11.dtd">
<svg version="1.1" id="Layer_1" xmlns:sketch="http://www.bohemiancoding.com/sketch/ns"
	 xmlns="http://www.w3.org/2000/svg" xmlns:xlink="http://www.w3.org/1999/xlink" x="0px" y="0px" width="100px" height="1500px"
	 viewBox="0 0 100 1500" enable-background="new 0 0 100 1500" xml:space="preserve">
<title>Slice 1</title>
<desc>Created with Sketch.</desc>
<g id="Group" transform="translate(8.000000, 1333.000000)" sketch:type="MSShapeGroup" opacity="0.3">
	<path id="Shape" fill="#010101" d="M75,9c0-1.583-1-3-3-3H44l-5-5H10C8.083,1,7,1.751,7,4v7h68V9L75,9z"/>
	<path id="Shape_1_" fill="#010101" d="M6,13v45c0,1.835,1,3,3,3h66c2.333,0,3-0.999,3-3V13H6L6,13z"/>
</g>
<path id="Shape_2_" sketch:type="MSShapeGroup" fill="#777777" d="M56,390c0-4.42-3.58-8-8-8s-8,3.58-8,8s3.58,8,8,8
	S56,394.42,56,390L56,390L56,390z M50,385v4h3l-5,6l-5-6h3v-4H50L50,385z"/>
<g id="Group_1_" transform="translate(31.000000, 462.000000)" sketch:type="MSShapeGroup">
	<path id="Shape_3_" fill="#777777" d="M18.5,9V7h-8V4l-4,4l4,4V9H18.5L18.5,9z"/>
	<path id="Shape_4_" fill="#777777" d="M18.5,1c-3.17,0-5.85,2.109-6.71,5h2.13c0.77-1.76,2.53-3,4.58-3c2.76,0,5,2.24,5,5
		s-2.24,5-5,5c-2.05,0-3.811-1.24-4.58-3h-2.13c0.86,2.891,3.54,5,6.71,5c3.87,0,7-3.13,7-7S22.37,1,18.5,1L18.5,1L18.5,1z"/>
</g>
<g id="Group_2_" transform="translate(35.000000, 420.000000)" sketch:type="MSShapeGroup">
	<path id="Shape_5_" fill="#777777" d="M6,17h12v-7c-2.76,0-5-2.24-5-5c0-0.71,0.15-1.391,0.41-2H9L6,6V17L6,17z"/>
	<path id="Shape_6_" fill="#777777" d="M14,5c0,2.21,1.79,4,4,4s4-1.79,4-4s-1.79-4-4-4S14,2.79,14,5L14,5L14,5z M16,4h2V2l3,3l-3,3
		V6h-2V4L16,4z"/>
</g>
<path id="Shape_46_" sketch:type="MSShapeGroup" fill="#2BA6DE" d="M56,1430c0-4.42-3.58-8-8-8s-8,3.58-8,8s3.58,8,8,8
	S56,1434.42,56,1430L56,1430L56,1430z M50,1425v4h3l-5,6l-5-6h3v-4H50L50,1425z"/>
<g id="Group_14_" transform="translate(31.000000, 462.000000)" sketch:type="MSShapeGroup">
	<path id="Shape_45_" fill="#D90007" d="M18.5,1029v-2h-8v-3l-4,4l4,4v-3H18.5L18.5,1029z"/>
	<path id="Shape_44_" fill="#D90007" d="M18.5,1021c-3.17,0-5.85,2.109-6.71,5h2.13c0.77-1.76,2.53-3,4.58-3c2.76,0,5,2.24,5,5
		s-2.24,5-5,5c-2.05,0-3.811-1.24-4.58-3h-2.13c0.86,2.891,3.54,5,6.71,5c3.87,0,7-3.13,7-7S22.37,1021,18.5,1021L18.5,1021
		L18.5,1021z"/>
</g>
<g id="Group_13_" transform="translate(35.000000, 420.000000)" sketch:type="MSShapeGroup">
	<path id="Shape_43_" fill="#31B500" d="M6,1047h12v-7c-2.76,0-5-2.24-5-5c0-0.71,0.15-1.391,0.41-2H9l-3,3V1047L6,1047z"/>
	<path id="Shape_42_" fill="#31B500" d="M14,1035c0,2.21,1.79,4,4,4s4-1.79,4-4s-1.79-4-4-4S14,1032.79,14,1035L14,1035L14,1035z
		 M16,1034h2v-2l3,3l-3,3v-2h-2V1034L16,1034z"/>
</g>
<g id="Group_3_" sketch:type="MSShapeGroup">
	<path id="Shape_7_" fill="#EDC11E" d="M92.25,11.5c0-2.07-1.68-3.75-3.75-3.75h-35L47.25,1.5H11c-2.08,0-3.75,1.67-3.75,3.75V14h85
		V11.5L92.25,11.5z M6,16.5v56.25c0,2.06,1.689,3.75,3.75,3.75h82.5c2.061,0,3.75-1.69,3.75-3.75V16.5H6L6,16.5z"/>
	<path id="Shape_8_" fill="#FFFFFF" d="M58.46,51.34c0-0.37-0.2-1.66-0.69-1.89c-0.47-0.17-2-0.91-2-0.91
		c0-0.11-0.17-0.43-0.199-0.77c0-0.38,0.199-0.75,0.199-0.75c0.211-0.4,0.961-1.34,1.16-2.08c0.2-0.74,0.43-2.63,0.43-2.63
		c0-0.4,0.611-0.57,0.99-0.77c0.66-0.32,1.43-4.35,1.43-4.35c0-1.31-0.34-0.74-0.34-1.68V32c0-4.32-3.959-7.06-8.354-7.06h-0.16
		c-4.399,0-8.36,2.74-8.36,7.06v3.51c0,0.94-0.34,0.37-0.34,1.68c0,0,0.66,4.03,1.33,4.35c0.37,0.2,1.03,0.37,1.03,0.77
		c0,0,0.261,1.89,0.46,2.63c0.2,0.74,0.971,1.68,1.17,2.08c0,0,0.21,0.37,0.21,0.75c-0.03,0.34-0.2,0.66-0.2,0.77
		c0,0-1.529,0.74-1.99,0.91c-0.489,0.229-0.689,1.52-0.689,1.89c-1.74,0.57-11,4.8-12.04,5.85c-0.75,0.78-0.75,5.29-0.75,5.29v0.57
		c0,1.03,1.08,2.2,2.13,2.2h36.24c1.05,0,2.13-1.17,2.13-2.2v-0.57c0,0,0-4.51-0.75-5.29C69.45,56.14,60.2,51.91,58.46,51.34
		L58.46,51.34L58.46,51.34z M84.189,55.8C83.4,55,76.46,51.83,75.16,51.4c0-0.28-0.15-1.24-0.52-1.41c-0.354-0.13-1.5-0.68-1.5-0.68
		c0-0.09-0.139-0.33-0.15-0.58c0-0.28,0.15-0.56,0.15-0.56c0.151-0.3,0.719-1.01,0.861-1.57c0.146-0.55,0.32-1.97,0.32-1.97
		c0-0.3,0.46-0.43,0.732-0.58c0.5-0.229,1.279-3.25,1.279-3.25c0-0.99-0.039-0.56-0.039-1.27V36.9c0-3.24-3.381-5.3-6.682-5.3H69.5
		c-3.3,0-6.689,2.06-6.689,5.3v2.63c0,0.71-0.041,0.28-0.041,1.27c0,0,0.604,3.021,1.104,3.25c0.276,0.15,0.83,0.28,0.83,0.58
		c0,0,0.22,1.42,0.366,1.97c0.15,0.56,0.729,1.27,0.894,1.57c0,0,0.16,0.28,0.16,0.56c-0.021,0.25-0.144,0.49-0.144,0.58
		c0,0-1.146,0.55-1.5,0.68c-0.371,0.17-0.521,1.13-0.521,1.41c-0.13,0.05-0.33,0.13-0.568,0.22c3.34,1.51,7.42,3.51,8.318,4.41
		c0.29,0.3,1.068,1.05,1.17,5.47h10c0.78,0,1.87-0.54,1.87-1.31v-0.43C84.75,59.76,84.75,56.38,84.189,55.8L84.189,55.8L84.189,55.8
		z M38.029,51.4c0-0.28-0.149-1.24-0.52-1.41c-0.34-0.13-1.49-0.68-1.49-0.68c0-0.09-0.129-0.33-0.149-0.58
		c0-0.28,0.149-0.56,0.149-0.56c0.15-0.3,0.711-1.01,0.86-1.57c0.16-0.55,0.33-1.97,0.33-1.97c0-0.3,0.46-0.43,0.74-0.58
		c0.5-0.229,1.28-3.25,1.28-3.25c0-0.99-0.041-0.56-0.041-1.27V36.9c0-3.24-3.39-5.3-6.689-5.3h-0.12c-3.31,0-6.69,2.06-6.69,5.3
		v2.63c0,0.71-0.049,0.28-0.049,1.27c0,0,0.6,3.021,1.1,3.25c0.279,0.15,0.83,0.28,0.83,0.58c0,0,0.22,1.42,0.369,1.97
		c0.15,0.56,0.74,1.27,0.891,1.57c0,0,0.17,0.28,0.17,0.56c-0.02,0.25-0.15,0.49-0.15,0.58c0,0-1.14,0.55-1.49,0.68
		c-0.369,0.17-0.52,1.13-0.52,1.41c-1.3,0.43-8.25,3.6-9.029,4.4c-0.561,0.58-0.561,3.96-0.561,3.96v0.43
		c0,0.77,1.09,1.31,1.87,1.31h10c0.101-4.42,0.88-5.17,1.159-5.46c0.9-0.91,4.99-2.91,8.33-4.42
		C38.37,51.53,38.17,51.45,38.029,51.4L38.029,51.4L38.029,51.4z"/>
</g>
<g id="Group_4_" transform="translate(40.000000, 347.000000)" sketch:type="MSShapeGroup" opacity="0.3">
	<path id="Shape_9_" fill="#191717" d="M6,3c0-1.1,0.9-2,2-2s2,0.9,2,2S9.1,5,8,5S6,4.1,6,3L6,3L6,3z"/>
</g>
<g id="Group_5_" transform="translate(22.000000, 132.000000)" sketch:type="MSShapeGroup">
	<g id="Shape_12_">
		<path id="Shape_10_" fill="#EBC21D" d="M42,5c0-0.55-0.45-1-1.01-1H25l-3-3H8.01C7.45,1,7,1.45,7,2v4h35V5L42,5z"/>
		<path id="Shape_11_" fill="#EBC21D" d="M6,7v23c0,0.55,0.45,1,1.01,1h35.98c0.56,0,1.01-0.45,1.01-1V7H6L6,7z"/>
	</g>
	<path id="Shape_13_" fill="#FFFFFF" d="M28.08,21.79c0-0.17-0.09-0.74-0.311-0.84c-0.209-0.08-0.892-0.41-0.892-0.41
		c0-0.05-0.08-0.2-0.09-0.35c0-0.16,0.09-0.33,0.09-0.33c0.093-0.18,0.433-0.6,0.521-0.93c0.09-0.33,0.188-1.17,0.188-1.17
		c0-0.18,0.271-0.26,0.438-0.35c0.291-0.14,0.632-1.94,0.632-1.94c0-0.58-0.15-0.33-0.15-0.75v-1.57c0-1.92-1.76-3.15-3.71-3.15
		H24.72c-1.951,0-3.712,1.23-3.712,3.15v1.57c0,0.42-0.149,0.17-0.149,0.75c0,0,0.289,1.8,0.59,1.94c0.16,0.09,0.46,0.17,0.46,0.35
		c0,0,0.11,0.84,0.2,1.17c0.09,0.33,0.43,0.75,0.52,0.93c0,0,0.09,0.17,0.09,0.33c-0.01,0.15-0.08,0.3-0.08,0.35
		c0,0-0.68,0.33-0.89,0.41c-0.22,0.1-0.31,0.67-0.31,0.84c-0.771,0.25-4.881,2.14-5.351,2.61c-0.33,0.35-0.33,2.36-0.33,2.36v0.26
		c0,0.46,0.479,0.98,0.94,0.98h16.118c0.459,0,0.938-0.52,0.938-0.98v-0.26c0,0,0-2.01-0.329-2.36
		C32.96,23.93,28.85,22.04,28.08,21.79L28.08,21.79L28.08,21.79z"/>
	<g id="Shape_16_" transform="translate(4.000000, 13.000000)">
		<path id="Shape_14_" fill="#FFFFFF" d="M10.76,13.76c0-2.42,0.45-2.88,0.62-3.05c0.38-0.39,1.899-1.16,3.29-1.81
			c-0.15-0.05-0.641-0.29-0.641-0.29c0-0.04-0.049-0.141-0.059-0.25c0-0.12,0.059-0.24,0.059-0.24C14.1,7.99,14.34,7.69,14.4,7.45
			c0.07-0.24,0.14-0.85,0.14-0.85c0-0.13,0.2-0.18,0.319-0.25c0.211-0.1,0.461-1.4,0.461-1.4c0-0.42-0.11-0.24-0.11-0.54V3.28
			c0-1.4-1.271-2.28-2.681-2.28H12.47c-1.409,0-2.68,0.88-2.68,2.28v1.13c0,0.3-0.11,0.12-0.11,0.54c0,0,0.211,1.3,0.43,1.4
			c0.121,0.07,0.33,0.12,0.33,0.25c0,0,0.08,0.61,0.15,0.85c0.061,0.24,0.311,0.54,0.37,0.67c0,0,0.069,0.12,0.069,0.24
			c-0.01,0.109-0.059,0.21-0.059,0.25c0,0-0.49,0.24-0.641,0.3c-0.16,0.07-0.23,0.479-0.23,0.6C9.55,9.7,6.58,11.06,6.24,11.4
			C6,11.65,6,13.11,6,13.11v0.18C6,13.62,6.35,14,6.68,14h4.08V13.76L10.76,13.76z"/>
		<path id="Shape_15_" fill="#FFFFFF" d="M35.76,11.4c-0.34-0.34-3.31-1.7-3.859-1.89c0-0.12-0.062-0.53-0.229-0.6
			c-0.148-0.06-0.643-0.3-0.643-0.3c0-0.04-0.049-0.14-0.059-0.25c0-0.12,0.059-0.24,0.059-0.24c0.07-0.13,0.312-0.43,0.371-0.67
			c0.07-0.24,0.142-0.85,0.142-0.85c0-0.13,0.2-0.18,0.317-0.25c0.211-0.1,0.461-1.4,0.461-1.4c0-0.42-0.108-0.24-0.108-0.54V3.28
			c0-1.4-1.271-2.28-2.683-2.28h-0.059c-1.41,0-2.687,0.88-2.687,2.28v1.13c0,0.3-0.104,0.12-0.104,0.54c0,0,0.211,1.3,0.43,1.4
			c0.121,0.07,0.33,0.12,0.33,0.25c0,0,0.08,0.61,0.146,0.85c0.062,0.24,0.312,0.54,0.37,0.67c0,0,0.064,0.12,0.064,0.24
			c-0.011,0.11-0.06,0.21-0.06,0.25c0,0-0.489,0.24-0.644,0.3c-0.053,0.02-0.092,0.08-0.131,0.16c1.289,0.6,2.59,1.28,2.938,1.63
			c0.171,0.18,0.619,0.64,0.619,3.06V14h4.562c0.33,0,0.682-0.38,0.682-0.71v-0.18C36,13.11,36,11.65,35.76,11.4L35.76,11.4
			L35.76,11.4z"/>
	</g>
</g>
<g id="Group_6_" transform="translate(32.000000, 292.000000)" sketch:type="MSShapeGroup" opacity="0.3">
	<path id="Shape_17_" fill="#030303" d="M8,11.001l-2,5l5-2L8,11.001L8,11.001z"/>
	
		<rect id="Rectangle-path" x="12.362" y="1.826" transform="matrix(0.7072 0.707 -0.707 0.7072 9.5313 -8.0486)" fill="#030303" width="4.243" height="11.315"/>
	<path id="Shape_18_" fill="#030303" d="M13,15.001l9,1H10L13,15.001L13,15.001z"/>
</g>
<g id="Group_7_" transform="translate(32.000000, 246.000000)" sketch:type="MSShapeGroup" opacity="0.3">
	<path id="Shape_19_" fill="#030303" d="M16,11c-2.21,0-4-1.79-4-4s1.79-4,4-4s4,1.79,4,4S18.21,11,16,11L16,11L16,11z M16,1
		C11,1,7.82,5.29,6,7c1.82,1.71,5,6,10,6s8.18-4.29,10-6C24.18,5.29,21,1,16,1L16,1L16,1z"/>
	<path id="Shape_20_" fill="#030303" d="M18,7c0,1.1-0.9,2-2,2s-2-0.9-2-2s0.9-2,2-2S18,5.9,18,7L18,7L18,7z"/>
</g>
<path id="Shape_21_" sketch:type="MSShapeGroup" fill="#59AD46" d="M40,205.5l3-3l3,3l7-7l3,3l-10,10L40,205.5L40,205.5z"/>
<path id="Shape_23_" sketch:type="MSShapeGroup" fill="#FFFFFF" d="M8,1036.5c0,4.42,3.58,8,8,8s8-3.58,8-8s-3.58-8-8-8
	S8,1032.08,8,1036.5L8,1036.5L8,1036.5z M15,1031.5h2v4h4v2h-4v4h-2v-4h-4v-2h4V1031.5L15,1031.5z"/>
<g id="Group_8_" transform="translate(4.000000, 716.000000)" sketch:type="MSShapeGroup">
	<path id="Shape_24_" opacity="0.5" fill="#777777" enable-background="new    " d="M25.871,15.769
		c-0.46-0.113-0.82-0.459-0.801-0.93c0-0.104,0.08-0.188,0.15-0.24c1.021-0.563,1.75-1.459,1.779-2.6
		c0.061-2.35-2.061-4.1-4.311-4.729c0.09,1.689-0.391,3.28-1.42,4.557c-0.91,1.13-2.181,1.943-3.681,2.396
		c0.79,0.709,1.87,1.159,3.142,1.25c0.72,0.052,1.459,0,2.209-0.101c0.801,0.64,1.951,0.67,2.92,0.605
		C26.161,15.959,26.109,15.829,25.871,15.769L25.871,15.769L25.871,15.769z"/>
	<path id="Shape_25_" fill="#777777" d="M21.121,6.199c-0.79-3.562-4.36-4.74-7.84-3.979c-3.18,0.689-6.36,3.119-6.28,6.439
		c0.04,1.524,1.01,2.71,2.37,3.47c0.09,0.07,0.199,0.181,0.21,0.32c0.03,0.64-0.46,1.079-1.07,1.234
		c-0.319,0.08-0.39,0.25,0.011,0.28c1.299,0.091,2.83,0.038,3.899-0.812c0.99,0.13,1.97,0.193,2.94,0.13
		C19.34,13.009,21.991,10.099,21.121,6.199L21.121,6.199L21.121,6.199z"/>
</g>
<path id="Shape_26_" sketch:type="MSShapeGroup" fill="#777777" d="M10,855c0,4.42,3.58,8,8,8s8-3.58,8-8s-3.58-8-8-8
	S10,850.58,10,855L10,855L10,855z M16,860v-4h-3l5-6l5,6h-3v4H16L16,860z"/>
<path id="Shape_28_" sketch:type="MSShapeGroup" fill="#777777" d="M27,755c0-4.42-3.58-8-8-8s-8,3.58-8,8s3.58,8,8,8
	S27,759.42,27,755L27,755L27,755z M14,755l2-2l2,2l4-4l2,2l-6,6L14,755L14,755z"/>
<path id="Shape_22_" sketch:type="MSShapeGroup" fill="#31B500" d="M27,785c0-4.42-3.58-8-8-8s-8,3.58-8,8s3.58,8,8,8
	S27,789.42,27,785L27,785L27,785z M14,785l2-2l2,2l4-4l2,2l-6,6L14,785L14,785z"/>
<g id="Group_9_" transform="translate(1.000000, 1069.000000)" sketch:type="MSShapeGroup">
	<path id="Shape_29_" opacity="0.5" fill="#2EA0DA" enable-background="new    " d="M23.98,14.28c-0.41-0.109-0.74-0.42-0.722-0.859
		c0.011-0.1,0.08-0.18,0.142-0.22c0.92-0.53,1.57-1.354,1.6-2.421c0.05-2.186-1.859-3.812-3.88-4.395
		c0.08,1.579-0.351,3.055-1.28,4.229c-0.82,1.05-1.96,1.8-3.311,2.229c0.711,0.66,1.691,1.07,2.83,1.16c0.65,0.04,1.32,0,1.98-0.09
		c0.73,0.59,1.76,0.62,2.631,0.562C24.25,14.461,24.189,14.341,23.98,14.28L23.98,14.28L23.98,14.28z"/>
	<path id="Shape_30_" fill="#2EA0DA" d="M19.71,5.401c-0.71-3.312-3.931-4.4-7.06-3.7C9.79,2.349,6.92,4.61,7,7.69
		c0.04,1.405,0.91,2.511,2.141,3.221c0.08,0.061,0.17,0.16,0.18,0.3c0.029,0.58-0.42,0.99-0.971,1.141
		c-0.279,0.079-0.34,0.239,0.021,0.266c1.17,0.079,2.54,0.041,3.5-0.739c0.899,0.109,1.78,0.18,2.649,0.12
		C18.109,11.722,20.49,9.021,19.71,5.401L19.71,5.401L19.71,5.401z"/>
</g>
<g id="Group_10_" transform="translate(1.000000, 1153.000000)" sketch:type="MSShapeGroup" opacity="0.3">
	<path id="Shape_31_" opacity="0.5" fill="#151515" enable-background="new    " d="M23.98,14.28c-0.41-0.109-0.74-0.42-0.722-0.859
		c0.011-0.1,0.08-0.18,0.142-0.22c0.92-0.53,1.57-1.354,1.6-2.421c0.05-2.186-1.859-3.812-3.88-4.395
		c0.08,1.579-0.351,3.055-1.28,4.229c-0.82,1.05-1.96,1.8-3.311,2.229c0.711,0.66,1.691,1.07,2.83,1.16c0.65,0.04,1.32,0,1.98-0.09
		c0.73,0.59,1.76,0.62,2.631,0.562C24.25,14.461,24.189,14.341,23.98,14.28L23.98,14.28L23.98,14.28z"/>
	<path id="Shape_32_" fill="#151515" d="M19.71,5.401c-0.71-3.312-3.931-4.4-7.06-3.7C9.79,2.349,6.92,4.61,7,7.69
		c0.04,1.405,0.91,2.511,2.141,3.221c0.08,0.061,0.17,0.16,0.18,0.3c0.029,0.58-0.42,0.99-0.971,1.141
		c-0.279,0.079-0.34,0.239,0.021,0.266c1.17,0.079,2.54,0.041,3.5-0.739c0.899,0.109,1.78,0.18,2.649,0.12
		C18.109,11.722,20.49,9.021,19.71,5.401L19.71,5.401L19.71,5.401z"/>
</g>
<path id="Shape_33_" sketch:type="MSShapeGroup" opacity="0.3" fill="#151515" enable-background="new    " d="M8,1106.03
	c0,1.909,1.48,3.471,3.29,3.471h0.08h9.34c1.81,0,3.29-1.562,3.29-3.471c0-1.859-1.391-3.395-3.141-3.47v-0.017
	c0-2.233-1.719-4.05-3.84-4.05c-1.369,0-2.58,0.76-3.25,1.896c-0.229-0.104-0.479-0.156-0.75-0.156c-1.039,0-1.879,0.89-1.879,1.979
	c0,0.119,0,0.229,0.02,0.34C9.4,1102.621,8,1104.151,8,1106.03L8,1106.03L8,1106.03z"/>
<path id="Shape_34_" sketch:type="MSShapeGroup" opacity="0.3" fill="#151515" enable-background="new    " d="M8,1134.03
	c0,1.909,1.48,3.471,3.29,3.471h0.08h9.34c1.81,0,3.29-1.562,3.29-3.471c0-1.859-1.391-3.395-3.141-3.47v-0.017
	c0-2.233-1.719-4.05-3.84-4.05c-1.369,0-2.58,0.76-3.25,1.896c-0.229-0.104-0.479-0.156-0.75-0.156c-1.039,0-1.879,0.89-1.879,1.979
	c0,0.119,0,0.229,0.02,0.34C9.4,1130.621,8,1132.151,8,1134.03L8,1134.03L8,1134.03z"/>
<path id="Shape_35_" sketch:type="MSShapeGroup" opacity="0.3" fill="#020202" enable-background="new    " d="M12,1186h8
	c1.1,0,2,0.9,2,2s-0.9,2-2,2h-8c-1.1,0-2-0.9-2-2S10.9,1186,12,1186L12,1186L12,1186z"/>
<path id="Shape_36_" sketch:type="MSShapeGroup" fill="#777777" d="M16.67,821c0,1.1-0.9,2-2,2s-2-0.9-2-2s0.9-2,2-2
	S16.67,819.9,16.67,821L16.67,821L16.67,821z"/>
<path id="Shape_37_" sketch:type="MSShapeGroup" fill="#777777" d="M13.141,817c-0.101-0.52-0.08-0.98,0.049-1.391
	c0.141-0.42,0.32-0.789,0.551-1.119c0.24-0.32,0.51-0.62,0.81-0.896c0.31-0.261,0.591-0.521,0.86-0.771
	c0.26-0.25,0.49-0.5,0.68-0.75c0.18-0.25,0.28-0.521,0.28-0.82c0-0.5-0.17-0.868-0.49-1.104c-0.33-0.24-0.75-0.36-1.25-0.36
	c-0.479,0-0.909,0.101-1.28,0.3c-0.379,0.2-0.74,0.46-1.1,0.771l-1.92-1.75c0.561-0.632,1.22-1.132,1.99-1.521
	c0.76-0.39,1.609-0.59,2.55-0.59c0.67,0,1.3,0.08,1.88,0.229c0.59,0.157,1.1,0.396,1.529,0.723c0.431,0.315,0.771,0.721,1.011,1.188
	c0.26,0.479,0.38,1.039,0.38,1.687c0,0.51-0.09,0.959-0.279,1.33c-0.19,0.379-0.42,0.72-0.701,1.022
	c-0.278,0.32-0.58,0.604-0.89,0.87c-0.319,0.261-0.6,0.54-0.87,0.83s-0.479,0.604-0.63,0.939c-0.159,0.326-0.21,0.729-0.17,1.181
	L13.141,817L13.141,817z"/>
<g id="Group_11_" transform="translate(8.000000, 1233.000000)" sketch:type="MSShapeGroup" opacity="0.3">
	<path id="Shape_38_" fill="#010101" d="M75,9c0-1.583-1-3-3-3H44l-5-5H10C8.083,1,7,1.751,7,4v7h68V9L75,9z"/>
	<path id="Shape_39_" fill="#010101" d="M6,13v45c0,1.835,1,3,3,3h66c2.333,0,3-0.999,3-3V13H6L6,13z"/>
</g>
<path id="Shape_40_" sketch:type="MSShapeGroup" fill="#FFFFFF" d="M55.971,1373.96c0-0.3-0.16-1.319-0.551-1.5
	c-0.38-0.14-1.6-0.729-1.6-0.729c0-0.09-0.141-0.34-0.16-0.604c0-0.29,0.16-0.591,0.16-0.591c0.16-0.319,0.76-1.062,0.92-1.649
	c0.17-0.59,0.35-2.09,0.35-2.09c0-0.317,0.49-0.45,0.79-0.608c0.53-0.25,1.14-3.445,1.14-3.445c0-1.041-0.27-0.59-0.27-1.34v-2.791
	c0-3.424-3.16-5.604-6.68-5.604h-0.14c-3.52,0-6.68,2.186-6.68,5.604v2.791c0,0.75-0.27,0.299-0.27,1.34c0,0,0.52,3.195,1.06,3.445
	c0.3,0.158,0.83,0.291,0.83,0.608c0,0,0.2,1.5,0.36,2.09c0.17,0.591,0.779,1.33,0.939,1.649c0,0,0.17,0.301,0.17,0.591
	c-0.029,0.271-0.16,0.521-0.16,0.604c0,0-1.22,0.596-1.6,0.729c-0.391,0.181-0.551,1.2-0.551,1.5
	c-1.389,0.45-8.789,3.81-9.629,4.649c-0.601,0.605-0.601,4.188-0.601,4.188v0.45c0,0.817,0.87,1.75,1.7,1.75h29
	c0.83,0,1.7-0.933,1.7-1.75v-0.45c0,0,0-3.579-0.601-4.188C64.76,1377.77,57.359,1374.41,55.971,1373.96L55.971,1373.96
	L55.971,1373.96z M76.55,1377.5c-0.63-0.63-6.18-3.15-7.22-3.49c0-0.22-0.12-0.99-0.42-1.119c-0.28-0.105-1.2-0.551-1.2-0.551
	c0-0.061-0.101-0.25-0.12-0.46c0-0.22,0.12-0.438,0.12-0.438c0.13-0.239,0.58-0.805,0.7-1.239c0.119-0.44,0.26-1.57,0.26-1.57
	c0-0.234,0.359-0.34,0.59-0.447c0.4-0.188,1.02-2.593,1.02-2.593c0-0.773-0.023-0.438-0.023-1v-2.09c0-2.567-2.71-4.21-5.354-4.21
	H64.8c-2.64,0-5.35,1.643-5.35,4.21v2.09c0,0.562-0.03,0.227-0.03,1c0,0,0.471,2.4,0.87,2.593c0.229,0.107,0.67,0.213,0.67,0.447
	c0,0,0.17,1.13,0.29,1.57c0.13,0.438,0.59,1,0.721,1.239c0,0,0.129,0.221,0.129,0.438c-0.02,0.21-0.119,0.399-0.119,0.46
	c0,0-0.92,0.439-1.188,0.551c-0.3,0.129-0.42,0.899-0.42,1.119l-0.46,0.17c2.67,1.2,5.938,2.78,6.647,3.5
	c0.236,0.24,0.856,0.84,0.938,4.34h8c0.62,0,1.5-0.42,1.5-1.033v-0.346C77,1380.641,77,1377.96,76.55,1377.5L76.55,1377.5
	L76.55,1377.5z M39.63,1374.01c0-0.22-0.12-0.99-0.42-1.119c-0.28-0.105-1.19-0.551-1.19-0.551c0-0.061-0.109-0.25-0.129-0.46
	c0-0.22,0.129-0.438,0.129-0.438c0.121-0.239,0.57-0.805,0.69-1.239c0.12-0.44,0.261-1.57,0.261-1.57c0-0.234,0.359-0.34,0.59-0.447
	c0.399-0.188,1.02-2.593,1.02-2.593c0-0.773-0.03-0.438-0.03-1v-2.09c0-2.567-2.71-4.21-5.35-4.21H35.1
	c-2.64,0-5.35,1.643-5.35,4.21v2.09c0,0.562-0.029,0.227-0.029,1c0,0,0.469,2.4,0.869,2.593c0.23,0.107,0.67,0.213,0.67,0.447
	c0,0,0.17,1.13,0.29,1.57c0.12,0.438,0.591,1,0.72,1.239c0,0,0.131,0.221,0.131,0.438c-0.021,0.21-0.121,0.399-0.121,0.46
	c0,0-0.92,0.439-1.189,0.551c-0.3,0.129-0.42,0.899-0.42,1.119c-1.04,0.34-6.59,2.86-7.22,3.49c-0.45,0.46-0.45,3.141-0.45,3.141
	v0.34c0,0.619,0.88,1.039,1.5,1.039h8c0.08-3.5,0.7-4.1,0.93-4.33c0.721-0.719,3.99-2.31,6.66-3.51L39.63,1374.01L39.63,1374.01z"/>
<g id="Imported-Layers-13_3_" transform="translate(3.000000, 978.000000)" sketch:type="MSShapeGroup" opacity="0.5">
	<path id="Fill-2_13_" d="M20.24,13.29c-0.36-0.37-3.561-1.851-4.16-2.05c0-0.131-0.07-0.58-0.24-0.66
		c-0.16-0.062-0.689-0.32-0.689-0.32c0-0.04-0.061-0.146-0.069-0.27c0-0.131,0.069-0.26,0.069-0.26
		c0.07-0.145,0.33-0.475,0.399-0.73c0.07-0.26,0.15-0.92,0.15-0.92c0-0.141,0.21-0.2,0.34-0.271c0.229-0.106,0.42-1.521,0.42-1.521
		c0-0.46-0.19-0.26-0.19-0.59v-1.23c0-1.51-1.22-2.47-2.74-2.47h-0.059c-1.521,0-2.74,0.96-2.74,2.47v1.23
		c0,0.33-0.189,0.13-0.189,0.59c0,0,0.189,1.41,0.42,1.521c0.13,0.069,0.34,0.133,0.34,0.271c0,0,0.08,0.66,0.15,0.92
		c0.068,0.26,0.328,0.59,0.398,0.73c0,0,0.07,0.129,0.07,0.26c-0.01,0.119-0.07,0.229-0.07,0.27c0,0-0.529,0.26-0.688,0.32
		c-0.17,0.08-0.24,0.529-0.24,0.66c-0.601,0.199-3.8,1.68-4.16,2.05c-0.26,0.271-0.26,1.851-0.26,1.851v0.199
		c0,0.36,0.3,0.66,0.66,0.66h12.68c0.36,0,0.66-0.3,0.66-0.66v-0.199C20.5,15.141,20.5,13.561,20.24,13.29"/>
</g>
<g id="Imported-Layers-13_2_" transform="translate(3.000000, 938.000000)" sketch:type="MSShapeGroup">
	<path id="Fill-1_10_" opacity="0.4" enable-background="new    " d="M18.02,10.98c1.17,0.535,2.58,1.25,2.94,1.605
		c0.17,0.18,0.521,0.551,0.54,2.41h3.48c0.278,0,0.52-0.24,0.52-0.521v-0.156c0,0,0-1.24-0.2-1.45c-0.29-0.29-2.8-1.45-3.271-1.61
		c0-0.1-0.059-0.46-0.189-0.52c-0.13-0.054-0.54-0.25-0.54-0.25c0-0.03-0.05-0.12-0.06-0.21c0-0.104,0.06-0.21,0.06-0.21
		c0.05-0.11,0.261-0.37,0.31-0.57c0.062-0.2,0.121-0.72,0.121-0.72c0-0.11,0.16-0.16,0.271-0.21c0.181-0.094,0.33-1.2,0.33-1.2
		c0-0.36-0.149-0.2-0.149-0.46v-0.97c0-1.189-0.959-1.939-2.16-1.939h-0.039c-1.201,0-2.16,0.75-2.16,1.939v0.971
		c0,0.26-0.15,0.1-0.15,0.46c0,0,0.15,1.106,0.33,1.2c0.109,0.05,0.27,0.1,0.27,0.21c0,0,0.062,0.52,0.121,0.72
		c0.061,0.2,0.26,0.46,0.311,0.57c0,0,0.061,0.105,0.061,0.21c-0.011,0.09-0.061,0.18-0.061,0.21c0,0-0.41,0.199-0.54,0.25
		C18.1,10.77,18.05,10.88,18.02,10.98L18.02,10.98L18.02,10.98z"/>
	<path id="Fill-2_12_" opacity="0.5" enable-background="new    " d="M20.24,13.29c-0.36-0.37-3.561-1.851-4.16-2.05
		c0-0.131-0.07-0.58-0.24-0.66c-0.16-0.062-0.689-0.32-0.689-0.32c0-0.04-0.061-0.146-0.069-0.27c0-0.131,0.069-0.26,0.069-0.26
		c0.07-0.145,0.33-0.475,0.399-0.73c0.07-0.26,0.15-0.92,0.15-0.92c0-0.141,0.21-0.2,0.34-0.271c0.229-0.106,0.42-1.521,0.42-1.521
		c0-0.46-0.19-0.26-0.19-0.59v-1.23c0-1.51-1.22-2.47-2.74-2.47h-0.059c-1.521,0-2.74,0.96-2.74,2.47v1.23
		c0,0.33-0.189,0.13-0.189,0.59c0,0,0.189,1.41,0.42,1.521c0.13,0.069,0.34,0.133,0.34,0.271c0,0,0.08,0.66,0.15,0.92
		c0.068,0.26,0.328,0.59,0.398,0.73c0,0,0.07,0.129,0.07,0.26c-0.01,0.119-0.07,0.229-0.07,0.27c0,0-0.529,0.26-0.688,0.32
		c-0.17,0.08-0.24,0.529-0.24,0.66c-0.601,0.199-3.8,1.68-4.16,2.05c-0.26,0.271-0.26,1.851-0.26,1.851v0.199
		c0,0.36,0.3,0.66,0.66,0.66h12.68c0.36,0,0.66-0.3,0.66-0.66v-0.199C20.5,15.141,20.5,13.561,20.24,13.29"/>
</g>
<g id="Imported-Layers_1_" transform="translate(4.000000, 94.000000)" sketch:type="MSShapeGroup">
	<g id="Group_12_">
		<path id="Fill-1_9_" fill="#AAAAAA" d="M24,15.998c0,0.55-0.45,1-1,1H7c-0.55,0-1-0.45-1-1V5.002h18V15.998"/>
		<path id="Fill-2_10_" fill="#999999" d="M7,1.002l6.092,0.018c0.262,0,0.512,0.104,0.699,0.287l0.917,0.904
			C15.344,2.877,15.736,3.002,16,3.002h7c0.55,0,1,0.45,1,1v1H6V2.001C6,1.447,6.447,1.001,7,1.002"/>
		<path id="Fill-3_1_" fill="#FFFFFF" d="M20.909,12.082c-0.126-0.127-1.245-0.639-1.455-0.708c0-0.045-0.024-0.2-0.085-0.228
			c-0.057-0.021-0.24-0.11-0.24-0.11c0-0.015-0.021-0.054-0.025-0.095c0-0.045,0.025-0.088,0.025-0.088
			c0.023-0.05,0.115-0.164,0.139-0.254c0.025-0.09,0.053-0.317,0.053-0.317c0-0.048,0.074-0.069,0.119-0.093
			c0.08-0.039,0.207-0.525,0.207-0.525c0-0.159-0.008-0.09-0.008-0.204V9.035c0-0.522-0.546-0.854-1.078-0.854h-0.02
			c-0.532,0-1.078,0.331-1.078,0.854V9.46c0,0.114-0.007,0.045-0.007,0.204c0,0,0.096,0.486,0.177,0.525
			c0.045,0.023,0.135,0.045,0.135,0.093c0,0,0.034,0.228,0.061,0.317c0.023,0.09,0.117,0.204,0.145,0.254
			c0,0,0.024,0.043,0.024,0.088c-0.003,0.041-0.022,0.08-0.022,0.095c0,0-0.186,0.089-0.24,0.11
			c-0.061,0.027-0.084,0.183-0.084,0.228c-0.021,0.007-0.055,0.021-0.092,0.035c0.537,0.243,1.195,0.565,1.34,0.711
			c0.047,0.049,0.172,0.17,0.188,0.882h1.613c0.126,0,0.302-0.087,0.302-0.211v-0.069C21,12.722,21,12.176,20.909,12.082"/>
		<path id="Fill-4_1_" fill="#FFFFFF" d="M12.352,11.374c0-0.045-0.024-0.2-0.084-0.228c-0.057-0.021-0.242-0.11-0.242-0.11
			c0-0.015-0.021-0.054-0.022-0.095c0-0.045,0.022-0.088,0.022-0.088c0.025-0.05,0.117-0.164,0.142-0.254
			c0.024-0.09,0.052-0.317,0.052-0.317c0-0.048,0.074-0.069,0.119-0.093c0.081-0.039,0.207-0.525,0.207-0.525
			c0-0.159-0.007-0.09-0.007-0.204V9.035c0-0.522-0.546-0.854-1.078-0.854H11.44c-0.532,0-1.08,0.331-1.08,0.854V9.46
			c0,0.114-0.006,0.045-0.006,0.204c0,0,0.098,0.486,0.176,0.525c0.048,0.023,0.136,0.045,0.136,0.093c0,0,0.036,0.228,0.062,0.317
			c0.022,0.09,0.117,0.204,0.144,0.254c-0.001,0,0.026,0.043,0.026,0.088c-0.004,0.041-0.023,0.08-0.023,0.095
			c0,0-0.186,0.089-0.241,0.11c-0.06,0.027-0.084,0.183-0.084,0.228c-0.21,0.069-1.329,0.581-1.455,0.708
			C9,12.176,9,12.722,9,12.722v0.069c0,0.124,0.176,0.211,0.302,0.211h1.613c0.015-0.712,0.142-0.833,0.187-0.88
			c0.146-0.147,0.806-0.47,1.342-0.713C12.404,11.395,12.373,11.381,12.352,11.374"/>
		<path id="Fill-5_1_" fill="#FFFFFF" d="M16.236,11.259c0-0.06-0.032-0.267-0.111-0.304c-0.075-0.028-0.322-0.148-0.322-0.148
			c0-0.018-0.027-0.068-0.031-0.123c0-0.061,0.031-0.121,0.031-0.121c0.033-0.064,0.154-0.217,0.188-0.336
			c0.034-0.119,0.069-0.424,0.069-0.424c0-0.062,0.099-0.092,0.158-0.124c0.107-0.051,0.23-0.7,0.23-0.7
			c0-0.211-0.055-0.121-0.055-0.272V8.142c0-0.697-0.639-1.139-1.349-1.139H15.02c-0.709,0-1.347,0.441-1.347,1.139v0.565
			c0,0.151-0.054,0.062-0.054,0.272c0,0,0.105,0.649,0.213,0.7c0.061,0.032,0.167,0.062,0.167,0.124c0,0,0.041,0.305,0.074,0.424
			c0.032,0.119,0.155,0.271,0.188,0.336c0,0,0.033,0.061,0.033,0.121c-0.004,0.055-0.03,0.105-0.03,0.123
			c0,0.002-0.246,0.12-0.322,0.148c-0.078,0.037-0.111,0.244-0.111,0.304c-0.28,0.093-1.771,0.774-1.939,0.944
			c-0.123,0.125-0.123,0.854-0.123,0.854v0.092c0,0.164,0.176,0.854,0.344,0.854h5.846c0.168,0,0.343-0.689,0.343-0.854v-0.092
			c0,0,0-0.729-0.12-0.854C18.009,12.033,16.518,11.352,16.236,11.259"/>
	</g>
</g>
<g id="Page-1_4_" transform="translate(4.000000, 623.000000)" sketch:type="MSShapeGroup">
	<g id="Imported-Layers-10_3_">
		<path id="Fill-1_8_" opacity="0.5" fill="#111111" enable-background="new    " d="M24,6V5c0-0.55-0.45-1-1-1h-7
			c-0.264,0-0.656-0.125-1.292-0.791l-0.917-0.904c-0.188-0.183-0.438-0.287-0.699-0.287L7,2C6.447,1.999,6,2.445,6,2.999V18l4-12
			H24L24,6z"/>
		<path id="Fill-2_9_" opacity="0.4" fill="#111111" enable-background="new    " d="M28,6l-3.771,11.316
			C24.092,17.725,23.71,18,23.279,18H6l4-12H28L28,6z"/>
	</g>
</g>
<g id="Imported-Layers-9-_x2B_-Path_3_" transform="translate(4.000000, 504.000000)" sketch:type="MSShapeGroup">
	<g id="Imported-Layers-9_3_">
		<path id="Fill-1_7_" opacity="0.4" enable-background="new    " d="M24,15.998c0,0.55-0.45,1-1,1H7c-0.55,0-1-0.45-1-1V5.002h18
			V15.998"/>
		<path id="Fill-2_7_" opacity="0.5" enable-background="new    " d="M7,1.002l6.092,0.018c0.262,0,0.512,0.104,0.699,0.287
			l0.917,0.904C15.344,2.877,15.736,3.002,16,3.002h7c0.55,0,1,0.45,1,1v1H6V2.001C6,1.447,6.447,1.001,7,1.002"/>
	</g>
	<path id="Path_5_" fill="#FFFFFF" d="M19,10.562l-4.061,3.43l0.035-1.999l-3-0.053l0.053-3l2.998,0.053l0.035-2L19,10.562
		L19,10.562z"/>
</g>
<g id="Page-1_3_" transform="translate(4.000000, 543.000000)" sketch:type="MSShapeGroup">
	<g id="Imported-Layers-10_2_">
		<path id="Fill-1_6_" opacity="0.5" fill="#111111" enable-background="new    " d="M24,6V5c0-0.55-0.45-1-1-1h-7
			c-0.264,0-0.656-0.125-1.292-0.791l-0.917-0.904c-0.188-0.183-0.438-0.287-0.699-0.287L7,2C6.447,1.999,6,2.445,6,2.999V18l4-12
			H24L24,6z"/>
		<path id="Fill-2_6_" opacity="0.4" fill="#111111" enable-background="new    " d="M28,6l-3.771,11.316
			C24.092,17.725,23.71,18,23.279,18H6l4-12H28L28,6z"/>
	</g>
</g>
<path id="Path_4_" sketch:type="MSShapeGroup" fill="#FFFFFF" d="M25.514,554.562l-4.062,3.43l0.034-1.999l-3-0.053l0.054-3
	l2.999,0.053l0.034-2L25.514,554.562L25.514,554.562z"/>
<g id="Imported-Layers-9-_x2B_-Path_2_" transform="translate(4.000000, 585.000000)" sketch:type="MSShapeGroup">
	<g id="Imported-Layers-9_2_">
		<path id="Fill-1_5_" opacity="0.4" enable-background="new    " d="M24,15.998c0,0.55-0.45,1-1,1H7c-0.55,0-1-0.45-1-1V5.002h18
			V15.998"/>
		<path id="Fill-2_5_" opacity="0.5" enable-background="new    " d="M7,1.002l6.092,0.018c0.262,0,0.512,0.104,0.699,0.287
			l0.917,0.904C15.344,2.877,15.736,3.002,16,3.002h7c0.55,0,1,0.45,1,1v1H6V2.001C6,1.447,6.447,1.001,7,1.002"/>
	</g>
	<path id="Path_3_" fill="#FFFFFF" d="M19,10.562l-4.061,3.43l0.035-1.999l-3-0.053l0.053-3l2.998,0.053l0.035-2L19,10.562
		L19,10.562z"/>
</g>
<g id="Imported-Layers-9-_x2B_-Path_1_" transform="translate(4.000000, 665.000000)" sketch:type="MSShapeGroup">
	<g id="Imported-Layers-9_1_">
		<path id="Fill-1_1_" opacity="0.4" enable-background="new    " d="M24,15.998c0,0.55-0.45,1-1,1H7c-0.55,0-1-0.45-1-1V5.002h18
			V15.998"/>
		<path id="Fill-2_1_" opacity="0.5" enable-background="new    " d="M7,1.002l6.092,0.018c0.262,0,0.512,0.104,0.699,0.287
			l0.917,0.904C15.344,2.877,15.736,3.002,16,3.002h7c0.55,0,1,0.45,1,1v1H6V2.001C6,1.447,6.447,1.001,7,1.002"/>
	</g>
</g>
<g id="Page-1" transform="translate(4.000000, 915.000000)" sketch:type="MSShapeGroup">
	<g id="Imported-Layers">
		<path id="Shape_27_" fill="#FFA500" d="M6,1v2h15V2h-7V1H6L6,1z M22,4H6v9h16V4L22,4z M18,8.561l-4.06,3.431l0.035-1.999l-3-0.053
			l0.053-2.999l2.999,0.052l0.034-1.999L18,8.561L18,8.561z"/>
	</g>
</g>
<g id="Page-1_1_" transform="translate(4.000000, 888.000000)" sketch:type="MSShapeGroup">
	<g id="Imported-Layers_2_">
		<path id="Shape_41_" fill="#777777" d="M6,1v2h15V2h-7V1H6L6,1z M22,4H6v9h16V4L22,4z M18,8.561l-4.06,3.431l0.035-1.999l-3-0.053
			l0.053-2.999l2.999,0.052l0.034-1.999L18,8.561L18,8.561z"/>
	</g>
</g>
</svg>
