<?xml version="1.0" encoding="utf-8"?>
<!-- Generator: Adobe Illustrator 19.0.0, SVG Export Plug-In . SVG Version: 6.00 Build 0)  -->
<svg version="1.1" id="Layer_1" xmlns:sketch="http://www.bohemiancoding.com/sketch/ns"
	 xmlns="http://www.w3.org/2000/svg" xmlns:xlink="http://www.w3.org/1999/xlink" x="0px" y="0px" width="100px" height="2327px"
	 viewBox="-255 -488.2 100 2327" style="enable-background:new -255 -488.2 100 2327;" xml:space="preserve">
<style type="text/css">
	.st0{fill:#777777;}
	.st1{fill:#2BA6DE;}
	.st2{fill:#D90007;}
	.st3{fill:#31B500;}
	.st4{fill:#FFFFFF;}
	.st5{opacity:0.5;fill:#777777;enable-background:new    ;}
	.st6{opacity:0.5;}
	.st7{opacity:0.4;enable-background:new    ;}
	.st8{opacity:0.5;enable-background:new    ;}
	.st9{opacity:0.5;fill:#111111;enable-background:new    ;}
	.st10{opacity:0.4;fill:#111111;enable-background:new    ;}
	.st11{opacity:0.5;fill:none;stroke:#000000;stroke-width:2;stroke-miterlimit:10;enable-background:new    ;}
	.st12{fill:#FFA500;}
	.st13{fill:#999999;}
	.st14{fill:#AAAAAA;}
	.st15{fill:#ECC01E;}
	.st16{fill:#F1D364;}
	.st17{fill:#EBC01E;}
	.st18{fill:#9F9F9F;}
	.st19{opacity:0.3;}
	.st20{opacity:0.7;enable-background:new    ;}
	.st21{opacity:0.3;enable-background:new    ;}
	.st22{opacity:0.7;fill:#2EA0DA;enable-background:new    ;}
	.st23{fill:#2EA0DA;}
	.st24{opacity:0.8;fill:#FFFFFF;enable-background:new    ;}
	.st25{fill:#FFFFFF;enable-background:new    ;}
	.st26{opacity:0.8;fill:#FFFFFF;}
	.st27{fill:#191717;}
	.st28{fill:none;}
</style>
<path id="Shape_2_" sketch:type="MSShapeGroup" class="st0" d="M-198-98.2c0-4.4-3.6-8-8-8s-8,3.6-8,8s3.6,8,8,8S-198-93.8-198-98.2
	L-198-98.2L-198-98.2z M-204-103.2v4h3l-5,6l-5-6h3v-4H-204L-204-103.2z"/>
<g id="Group_1_" transform="translate(31.000000, 462.000000)" sketch:type="MSShapeGroup">
	<path id="Shape_3_" class="st0" d="M-235.5-479.2v-2h-8v-3l-4,4l4,4v-3H-235.5L-235.5-479.2z"/>
	<path id="Shape_4_" class="st0" d="M-235.5-487.2c-3.2,0-5.9,2.1-6.7,5h2.1c0.8-1.8,2.5-3,4.6-3c2.8,0,5,2.2,5,5s-2.2,5-5,5
		c-2,0-3.8-1.2-4.6-3h-2.1c0.9,2.9,3.5,5,6.7,5c3.9,0,7-3.1,7-7S-231.6-487.2-235.5-487.2L-235.5-487.2L-235.5-487.2z"/>
</g>
<g id="Group_2_" transform="translate(35.000000, 420.000000)" sketch:type="MSShapeGroup">
	<path id="Shape_5_" class="st0" d="M-248-471.2h12v-7c-2.8,0-5-2.2-5-5c0-0.7,0.1-1.4,0.4-2h-4.4l-3,3V-471.2L-248-471.2z"/>
	<path id="Shape_6_" class="st0" d="M-240-483.2c0,2.2,1.8,4,4,4s4-1.8,4-4s-1.8-4-4-4S-240-485.5-240-483.2L-240-483.2L-240-483.2z
		 M-238-484.2h2v-2l3,3l-3,3v-2h-2V-484.2L-238-484.2z"/>
</g>
<path id="Shape_46_" sketch:type="MSShapeGroup" class="st1" d="M-199,941.8c0-4.4-3.6-8-8-8s-8,3.6-8,8s3.6,8,8,8
	S-199,946.2-199,941.8L-199,941.8L-199,941.8z M-205,936.8v4h3l-5,6l-5-6h3v-4H-205L-205,936.8z"/>
<g id="Group_14_" transform="translate(31.000000, 462.000000)" sketch:type="MSShapeGroup">
	<path id="Shape_45_" class="st2" d="M-236.5,540.8v-2h-8v-3l-4,4l4,4v-3H-236.5L-236.5,540.8z"/>
	<path id="Shape_44_" class="st2" d="M-236.5,532.8c-3.2,0-5.9,2.1-6.7,5h2.1c0.8-1.8,2.5-3,4.6-3c2.8,0,5,2.2,5,5s-2.2,5-5,5
		c-2,0-3.8-1.2-4.6-3h-2.1c0.9,2.9,3.5,5,6.7,5c3.9,0,7-3.1,7-7S-232.6,532.8-236.5,532.8L-236.5,532.8L-236.5,532.8z"/>
</g>
<g id="Group_13_" transform="translate(35.000000, 420.000000)" sketch:type="MSShapeGroup">
	<path id="Shape_43_" class="st3" d="M-249,558.8h12v-7c-2.8,0-5-2.2-5-5c0-0.7,0.1-1.4,0.4-2h-4.4l-3,3V558.8L-249,558.8z"/>
	<path id="Shape_42_" class="st3" d="M-241,546.8c0,2.2,1.8,4,4,4s4-1.8,4-4s-1.8-4-4-4S-241,544.6-241,546.8L-241,546.8L-241,546.8
		z M-239,545.8h2v-2l3,3l-3,3v-2h-2V545.8L-239,545.8z"/>
</g>
<path id="Shape_23_" sketch:type="MSShapeGroup" class="st4" d="M-246,547.8c0,4.4,3.6,8,8,8s8-3.6,8-8s-3.6-8-8-8
	S-246,543.4-246,547.8L-246,547.8L-246,547.8z M-239,542.8h2v4h4v2h-4v4h-2v-4h-4v-2h4V542.8L-239,542.8z"/>
<g id="Group_8_" transform="translate(4.000000, 716.000000)" sketch:type="MSShapeGroup">
	<path id="Shape_24_" class="st5" d="M-228.1-472.5c-0.5-0.1-0.8-0.5-0.8-0.9c0-0.1,0.1-0.2,0.1-0.2c1-0.6,1.8-1.5,1.8-2.6
		c0.1-2.3-2.1-4.1-4.3-4.7c0.1,1.7-0.4,3.3-1.4,4.6c-0.9,1.1-2.2,1.9-3.7,2.4c0.8,0.7,1.9,1.2,3.1,1.2c0.7,0.1,1.5,0,2.2-0.1
		c0.8,0.6,2,0.7,2.9,0.6C-227.8-472.3-227.9-472.4-228.1-472.5L-228.1-472.5L-228.1-472.5z"/>
	<path id="Shape_25_" class="st0" d="M-232.9-482c-0.8-3.6-4.4-4.7-7.8-4c-3.2,0.7-6.4,3.1-6.3,6.3c0,1.5,1,2.7,2.4,3.5
		c0.1,0.1,0.2,0.2,0.2,0.3c0,0.6-0.5,1.1-1.1,1.2c-0.3,0.1-0.4,0.2,0,0.3c1.3,0.1,2.8,0,3.9-0.8c1,0.1,2,0.2,2.9,0.1
		C-234.7-475.2-232-478.2-232.9-482L-232.9-482L-232.9-482z"/>
</g>
<path id="Shape_26_" sketch:type="MSShapeGroup" class="st0" d="M-244,366.8c0,4.4,3.6,8,8,8s8-3.6,8-8s-3.6-8-8-8
	S-244,362.4-244,366.8L-244,366.8L-244,366.8z M-238,371.8v-4h-3l5-6l5,6h-3v4H-238L-238,371.8z"/>
<path id="Shape_28_" sketch:type="MSShapeGroup" class="st0" d="M-227,266.8c0-4.4-3.6-8-8-8s-8,3.6-8,8s3.6,8,8,8
	S-227,271.3-227,266.8L-227,266.8L-227,266.8z M-240,266.8l2-2l2,2l4-4l2,2l-6,6L-240,266.8L-240,266.8z"/>
<path id="Shape_22_" sketch:type="MSShapeGroup" class="st3" d="M-227,296.8c0-4.4-3.6-8-8-8s-8,3.6-8,8s3.6,8,8,8
	S-227,301.3-227,296.8L-227,296.8L-227,296.8z M-240,296.8l2-2l2,2l4-4l2,2l-6,6L-240,296.8L-240,296.8z"/>
<path id="Shape_36_" sketch:type="MSShapeGroup" class="st0" d="M-237.3,332.9c0,1.1-0.9,2-2,2s-2-0.9-2-2s0.9-2,2-2
	S-237.3,331.9-237.3,332.9L-237.3,332.9L-237.3,332.9z"/>
<path id="Shape_37_" sketch:type="MSShapeGroup" class="st0" d="M-240.9,328.9c-0.1-0.5-0.1-1,0-1.4s0.3-0.8,0.6-1.1
	c0.2-0.3,0.5-0.6,0.8-0.9s0.6-0.5,0.9-0.8c0.3-0.2,0.5-0.5,0.7-0.8c0.2-0.2,0.3-0.5,0.3-0.8c0-0.5-0.2-0.9-0.5-1.1s-0.8-0.4-1.2-0.4
	c-0.5,0-0.9,0.1-1.3,0.3s-0.7,0.5-1.1,0.8l-1.9-1.8c0.6-0.6,1.2-1.1,2-1.5s1.6-0.6,2.5-0.6c0.7,0,1.3,0.1,1.9,0.2
	c0.6,0.2,1.1,0.4,1.5,0.7s0.8,0.7,1,1.2c0.3,0.5,0.4,1,0.4,1.7c0,0.5-0.1,1-0.3,1.3c-0.2,0.4-0.4,0.7-0.7,1s-0.6,0.6-0.9,0.9
	c-0.3,0.3-0.6,0.5-0.9,0.8s-0.5,0.6-0.6,0.9c-0.2,0.3-0.2,0.7-0.2,1.2L-240.9,328.9L-240.9,328.9z"/>
<g id="Imported-Layers-13_3_" transform="translate(3.000000, 978.000000)" sketch:type="MSShapeGroup" class="st6">
	<path id="Fill-2_13_" d="M-234.2-474.9c-0.4-0.4-3.6-1.9-4.2-2.1c0-0.1-0.1-0.6-0.2-0.7c-0.2-0.1-0.7-0.3-0.7-0.3s-0.1-0.1-0.1-0.3
		c0-0.1,0.1-0.3,0.1-0.3c0.1-0.1,0.3-0.5,0.4-0.7c0.1-0.3,0.2-0.9,0.2-0.9c0-0.1,0.2-0.2,0.3-0.3c0.2-0.1,0.4-1.5,0.4-1.5
		c0-0.5-0.2-0.3-0.2-0.6v-1.2c0-1.5-1.2-2.5-2.7-2.5h-0.1c-1.5,0-2.7,1-2.7,2.5v1.2c0,0.3-0.2,0.1-0.2,0.6c0,0,0.2,1.4,0.4,1.5
		c0.1,0.1,0.3,0.1,0.3,0.3c0,0,0.1,0.7,0.1,0.9c0.1,0.3,0.3,0.6,0.4,0.7c0,0,0.1,0.1,0.1,0.3c0,0.1-0.1,0.2-0.1,0.3
		c0,0-0.5,0.3-0.7,0.3c-0.2,0.1-0.2,0.5-0.2,0.7c-0.6,0.2-3.8,1.7-4.2,2.1c-0.3,0.3-0.3,1.9-0.3,1.9v0.2c0,0.4,0.3,0.7,0.7,0.7h12.7
		c0.4,0,0.7-0.3,0.7-0.7v-0.2C-233.9-473-233.9-474.6-234.2-474.9"/>
</g>
<g id="Imported-Layers-13_2_" transform="translate(3.000000, 938.000000)" sketch:type="MSShapeGroup">
	<path id="Fill-1_10_" class="st7" d="M-236.9-477.2c1.2,0.5,2.6,1.2,2.9,1.6c0.2,0.2,0.5,0.6,0.5,2.4h3.5c0.3,0,0.5-0.2,0.5-0.5
		v-0.2c0,0,0-1.2-0.2-1.4c-0.3-0.3-2.8-1.4-3.3-1.6c0-0.1-0.1-0.5-0.2-0.5c-0.1-0.1-0.5-0.2-0.5-0.2s0-0.1-0.1-0.2
		c0-0.1,0.1-0.2,0.1-0.2c0.1-0.1,0.3-0.4,0.3-0.6c0.1-0.2,0.1-0.7,0.1-0.7c0-0.1,0.2-0.2,0.3-0.2c0.2-0.1,0.3-1.2,0.3-1.2
		c0-0.4-0.1-0.2-0.1-0.5v-1c0-1.2-1-1.9-2.2-1.9l0,0c-1.2,0-2.2,0.8-2.2,1.9v1c0,0.3-0.1,0.1-0.1,0.5c0,0,0.1,1.1,0.3,1.2
		c0.1,0.1,0.3,0.1,0.3,0.2c0,0,0.1,0.5,0.1,0.7c0.1,0.2,0.3,0.5,0.3,0.6c0,0,0.1,0.1,0.1,0.2s-0.1,0.2-0.1,0.2s-0.4,0.2-0.5,0.2
		C-236.8-477.4-236.9-477.3-236.9-477.2L-236.9-477.2L-236.9-477.2z"/>
	<path id="Fill-2_12_" class="st8" d="M-234.6-474.9c-0.4-0.4-3.6-1.9-4.2-2.1c0-0.1-0.1-0.6-0.2-0.7c-0.2-0.1-0.7-0.3-0.7-0.3
		s-0.1-0.1-0.1-0.3c0-0.1,0.1-0.3,0.1-0.3c0.1-0.1,0.3-0.5,0.4-0.7c0.1-0.3,0.2-0.9,0.2-0.9c0-0.1,0.2-0.2,0.3-0.3
		c0.2-0.1,0.4-1.5,0.4-1.5c0-0.5-0.2-0.3-0.2-0.6v-1.2c0-1.5-1.2-2.5-2.7-2.5h-0.1c-1.5,0-2.7,1-2.7,2.5v1.2c0,0.3-0.2,0.1-0.2,0.6
		c0,0,0.2,1.4,0.4,1.5c0.1,0.1,0.3,0.1,0.3,0.3c0,0,0.1,0.7,0.1,0.9c0.1,0.3,0.3,0.6,0.4,0.7c0,0,0.1,0.1,0.1,0.3
		c0,0.1-0.1,0.2-0.1,0.3c0,0-0.5,0.3-0.7,0.3c-0.2,0.1-0.2,0.5-0.2,0.7c-0.6,0.2-3.8,1.7-4.2,2.1c-0.3,0.3-0.3,1.9-0.3,1.9v0.2
		c0,0.4,0.3,0.7,0.7,0.7h12.7c0.4,0,0.7-0.3,0.7-0.7v-0.2C-234.4-473-234.4-474.6-234.6-474.9"/>
</g>
<g id="Page-1_4_" transform="translate(4.000000, 623.000000)" sketch:type="MSShapeGroup">
	<g id="Imported-Layers-10_3_">
		<path id="Fill-1_8_" class="st9" d="M-230-482.2v-1c0-0.6-0.5-1-1-1h-7c-0.3,0-0.7-0.1-1.3-0.8l-0.9-0.9c-0.2-0.2-0.4-0.3-0.7-0.3
			h-6.1c-0.6,0-1,0.4-1,1v15l4-12L-230-482.2L-230-482.2z"/>
		<path id="Fill-2_9_" class="st10" d="M-226-482.2l-3.8,11.3c-0.1,0.4-0.5,0.7-1,0.7H-248l4-12H-226L-226-482.2z"/>
	</g>
</g>
<g id="Imported-Layers-9-_x2B_-Path_1_" transform="translate(4.000000, 665.000000)" sketch:type="MSShapeGroup">
	<g id="Imported-Layers-9_1_">
		<path id="Fill-1_1_" class="st7" d="M-230-472.2c0,0.6-0.5,1-1,1h-16c-0.5,0-1-0.4-1-1v-11.1h18V-472.2"/>
		<path id="Fill-2_1_" class="st8" d="M-247-487.2h6.1c0.3,0,0.5,0.1,0.7,0.3l0.9,0.9c0.6,0.7,1,0.8,1.3,0.8h7c0.5,0,1,0.4,1,1v1
			h-18v-3C-248-486.8-247.6-487.2-247-487.2"/>
	</g>
</g>
<path class="st11" d="M-211.5,1033.8c0-3.3,2.7-6,6-6s6,2.7,6,6s-2.7,6-6,6"/>
<polygon class="st8" points="-215.5,1033.8 -209.5,1033.8 -212.5,1037.8 "/>
<g>
	<g id="Page-1_1_" transform="translate(4.000000, 888.000000)" sketch:type="MSShapeGroup">
		<g id="Imported-Layers_2_">
			<path id="Shape_41_" class="st0" d="M-248-487.2v2h15v-1h-7v-1H-248L-248-487.2z M-232-484.2h-16v9h16V-484.2L-232-484.2z"/>
		</g>
	</g>
	<path id="Combined-Shape_1_" class="st4" d="M-231.1,408.3l-2.2,2.2l-0.4-0.4l0.9-1.3h-5.3v-1h5.3l-0.9-1.3l0.4-0.4L-231.1,408.3z
		 M-239.1,407.8h-1.8v0.9h1.8V407.8z"/>
</g>
<g>
	<g id="Page-1_2_" transform="translate(4.000000, 888.000000)" sketch:type="MSShapeGroup">
		<g id="Imported-Layers_1_">
			<path id="Shape_1_" class="st12" d="M-248-460.2v2h15v-1h-7v-1H-248L-248-460.2z M-232-457.2h-16v9h16V-457.2L-232-457.2z"/>
		</g>
	</g>
	<path id="Combined-Shape_4_" class="st4" d="M-231.1,435.3l-2.2,2.2l-0.4-0.4l0.9-1.3h-5.3v-1h5.3l-0.9-1.3l0.4-0.4L-231.1,435.3z
		 M-239.1,434.8h-1.8v0.9h1.8V434.8z"/>
</g>
<g>
	<g id="Page-1_5_">
		<g id="Fill-2-_x2B_-Fill-1_1_" transform="translate(0.000000, 1.000000)">
			<path id="Fill-2_8_" class="st13" d="M-241.5,738.8h27.5c1.2,0,2.2,0.6,3.1,1.4l4.1,4.1c0.8,0.8,2.6,1.6,3.8,1.6h35
				c2.5,0,4,1.8,4,4.2v1.8h-82v-8.5C-246,740.8-244,738.8-241.5,738.8"/>
			<path id="Fill-1_5_" class="st14" d="M-164,806.3c0,2.5-2,4.5-4.5,4.5h-73c-2.5,0-4.5-2-4.5-4.5v-54.5h82V806.3"/>
		</g>
	</g>
</g>
<g>
	<g id="Page-1_7_">
		<g id="Fill-2-_x2B_-Fill-1_4_" transform="translate(0.000000, 1.000000)">
			<path id="Fill-2_3_" class="st15" d="M-241.5,1068.8h27.5c1.2,0,2.2,0.6,3.1,1.4l4.1,4.1c0.8,0.8,2.6,1.6,3.8,1.6h35
				c2.5,0,4,1.8,4,4.2v1.8h-82v-8.5C-246,1070.8-244,1068.8-241.5,1068.8"/>
			<path id="Fill-1_3_" class="st16" d="M-164,1136.3c0,2.5-2,4.5-4.5,4.5h-73c-2.5,0-4.5-2-4.5-4.5v-54.5h82V1136.3"/>
		</g>
	</g>
</g>
<g>
	<path id="Fill-1-Copy" class="st16" d="M-164-417.7c0,2.5-2,4.5-4.5,4.5h-73c-2.5,0-4.5-2-4.5-4.5v-54.5h82V-417.7"/>
	<path class="st4" d="M-225.5-447.2c-2.5,0-4.5,2-4.5,4.5s2,4.5,4.5,4.5s4.5-2,4.5-4.5S-223-447.2-225.5-447.2z M-225.5-441.2
		c-0.8,0-1.5-0.7-1.5-1.5s0.7-1.5,1.5-1.5s1.5,0.7,1.5,1.5S-224.7-441.2-225.5-441.2z"/>
	<path id="Fill-2_4_" class="st4" d="M-218-442.7l9.3,9.8c0.4,0.4,1.1,0.5,1.6,0.3l0.2-0.1c0.5-0.2,0.6-0.8,0.3-1.2l-5.4-7.2h31
		c0.5,0,1-0.4,1-1v-1c0-0.6-0.5-1-1-1h-31l5.4-7.2c0.3-0.4,0.2-1-0.3-1.2l-0.2-0.1c-0.5-0.2-1.2-0.1-1.6,0.3L-218-442.7z"/>
	<path id="Fill-2-Copy" class="st17" d="M-241.5-485.2h27.5c1.2,0,2.2,0.6,3.1,1.4l4.1,4.1c0.8,0.8,2.6,1.6,3.8,1.6h35
		c2.5,0,4,1.8,4,4.2v1.8h-82v-8.5C-246-483.2-244-485.2-241.5-485.2"/>
</g>
<g>
	<path id="Fill-2_11_" class="st8" d="M-243,97.8h6.1c0.3,0,0.5,0.1,0.7,0.3l0.9,0.9c0.6,0.7,1,0.8,1.3,0.8h7c0.6,0,1,0.4,1,1v1h-18
		v-3C-244,98.2-243.6,97.8-243,97.8"/>
</g>
<path id="Combined-Shape_13_" class="st7" d="M-226,31.8c0,0.5-0.4,1-1,1h-16c-0.6,0-1-0.5-1-1v-11h18V31.8"/>
<polygon id="Combined-Shape_6_" class="st4" points="-237,26.3 -234.5,28.8 -234,28.3 -235,26.8 -229,26.8 -229,25.8 -235,25.8 
	-234,24.3 -234.5,23.8 "/>
<path class="st4" d="M-239.5,24.8c-0.8,0-1.5,0.7-1.5,1.5s0.7,1.5,1.5,1.5s1.5-0.7,1.5-1.5S-238.7,24.8-239.5,24.8z M-239,26.8h-1
	v-1h1V26.8z"/>
<path id="Fill-2_16_" class="st8" d="M-243,16.8h6.1c0.3,0,0.5,0.1,0.7,0.3l0.9,0.9c0.6,0.7,1,0.8,1.3,0.8h7c0.6,0,1,0.4,1,1v1h-18
	v-3C-244,17.2-243.6,16.8-243,16.8"/>
<g>
	<g>
		<g id="Imported-Layers-11_1_" transform="translate(24.000000, 48.000000)" sketch:type="MSLayerGroup">
			<path id="Fill-1_6_" sketch:type="MSShapeGroup" class="st8" d="M-267,8.8h6.1c0.3,0,0.5,0.1,0.7,0.3l0.9,0.9
				c0.6,0.7,1,0.8,1.3,0.8h7c0.6,0,1,0.5,1,1v10l-18,3v-15C-268,9.2-267.5,8.8-267,8.8"/>
			<path id="Fill-2_14_" sketch:type="MSShapeGroup" class="st18" d="M-246,12.8l-3.8,11.3c-0.1,0.4-0.5,0.7-0.9,0.7H-268l4-12H-246
				z"/>
		</g>
	</g>
	<polygon id="Combined-Shape_8_" class="st4" points="-235,66.3 -233.4,68.8 -232.7,68.3 -233.2,66.8 -227.2,66.8 -226.9,65.8 
		-232.9,65.8 -231.3,64.3 -231.7,63.8 	"/>
	<path class="st4" d="M-237,64.8c-0.8,0-1.7,0.7-2,1.5s0.1,1.5,1,1.5c0.8,0,1.7-0.7,2-1.5S-236.2,64.8-237,64.8z M-237.2,66.8h-1
		l0.4-1h1L-237.2,66.8z"/>
</g>
<g>
	<path id="Combined-Shape_7_" class="st18" d="M-227-378.2c0,0.5-0.4,1-1,1h-16c-0.6,0-1-0.5-1-1v-11h18V-378.2"/>
	<polygon id="Combined-Shape_2_" class="st4" points="-236.5,-386.2 -237,-385.7 -236,-384.2 -242,-384.2 -242,-383.2 -236,-383.2 
		-237,-381.7 -236.5,-381.2 -234,-383.7 	"/>
	<path class="st4" d="M-233-383.7c0,0.8,0.7,1.5,1.5,1.5s1.5-0.7,1.5-1.5s-0.7-1.5-1.5-1.5S-233-384.5-233-383.7z M-232-384.2h1v1
		h-1V-384.2z"/>
	<path id="Fill-2_10_" class="st8" d="M-244-393.2h6.1c0.3,0,0.5,0.1,0.7,0.3l0.9,0.9c0.6,0.7,1,0.8,1.3,0.8h7c0.6,0,1,0.4,1,1v1
		h-18v-3C-245-392.8-244.6-393.2-244-393.2"/>
</g>
<path id="Combined-Shape_10_" class="st7" d="M-226,112.8c0,0.5-0.4,1-1,1h-16c-0.6,0-1-0.5-1-1v-11h18V112.8"/>
<polygon id="Combined-Shape_9_" class="st4" points="-231.5,104.8 -232,105.3 -231,106.8 -237,106.8 -237,107.8 -231,107.8 
	-232,109.3 -231.5,109.8 -229,107.3 "/>
<path class="st4" d="M-239.5,105.8c-0.8,0-1.5,0.7-1.5,1.5s0.7,1.5,1.5,1.5s1.5-0.7,1.5-1.5S-238.7,105.8-239.5,105.8z M-239,107.8
	h-1v-1h1V107.8z"/>
<g>
	<path id="Fill-1-Copy_1_" class="st16" d="M-164,1247.3c0,2.5-2,4.5-4.5,4.5h-73c-2.5,0-4.5-2-4.5-4.5v-54.5h82V1247.3"/>
	<path class="st4" d="M-225.5,1217.8c-2.5,0-4.5,2-4.5,4.5s2,4.5,4.5,4.5s4.5-2,4.5-4.5S-223,1217.8-225.5,1217.8z M-225.5,1223.8
		c-0.8,0-1.5-0.7-1.5-1.5s0.7-1.5,1.5-1.5c0.8,0,1.5,0.7,1.5,1.5S-224.7,1223.8-225.5,1223.8z"/>
	<path id="Fill-2_6_" class="st4" d="M-189.3,1212.7c-0.4-0.4-1.1-0.5-1.6-0.3l-0.2,0.1c-0.5,0.2-0.6,0.8-0.3,1.2l5.4,7.2h-31
		c-0.5,0-1,0.4-1,1v1c0,0.6,0.5,1,1,1h31l-5.4,7.2c-0.3,0.4-0.2,1,0.3,1.2l0.2,0.1c0.5,0.2,1.2,0.1,1.6-0.3l9.3-9.8L-189.3,1212.7z"
		/>
	<path id="Fill-2-Copy_1_" class="st17" d="M-241.5,1179.8h27.5c1.2,0,2.2,0.6,3.1,1.4l4.1,4.1c0.8,0.8,2.6,1.6,3.8,1.6h35
		c2.5,0,4,1.8,4,4.2v1.8h-82v-8.5C-246,1181.8-244,1179.8-241.5,1179.8"/>
</g>
<g>
	<path id="Fill-1-Copy_2_" class="st14" d="M-164,907.3c0,2.5-2,4.5-4.5,4.5h-73c-2.5,0-4.5-2-4.5-4.5v-54.5h82V907.3"/>
	<path class="st4" d="M-225.5,877.8c-2.5,0-4.5,2-4.5,4.5s2,4.5,4.5,4.5s4.5-2,4.5-4.5S-223,877.8-225.5,877.8z M-225.5,883.8
		c-0.8,0-1.5-0.7-1.5-1.5s0.7-1.5,1.5-1.5s1.5,0.7,1.5,1.5S-224.7,883.8-225.5,883.8z"/>
	<path id="Fill-2_5_" class="st4" d="M-189.3,872.7c-0.4-0.4-1.1-0.5-1.6-0.3l-0.2,0.1c-0.5,0.2-0.6,0.8-0.3,1.2l5.4,7.2h-31
		c-0.5,0-1,0.4-1,1v1c0,0.6,0.5,1,1,1h31l-5.4,7.2c-0.3,0.4-0.2,1,0.3,1.2l0.2,0.1c0.5,0.2,1.2,0.1,1.6-0.3l9.3-9.8L-189.3,872.7z"
		/>
	<path id="Fill-2-Copy_2_" class="st13" d="M-241.5,839.8h27.5c1.2,0,2.2,0.6,3.1,1.4l4.1,4.1c0.8,0.8,2.6,1.6,3.8,1.6h35
		c2.5,0,4,1.8,4,4.2v1.8h-82v-8.5C-246,841.8-244,839.8-241.5,839.8"/>
</g>
<g id="Group-3" transform="translate(1.000000, 1.000000)" class="st19">
	<path class="st20" d="M-230.7,679.3c-0.7,0-1.6-0.1-2.3-0.6c-0.6,0.1-1.3,0.1-1.8,0.1c-1.3-0.1-2.4-0.6-3.3-1.4l-0.9-0.9l1.2-0.4
		c1.2-0.4,2.2-1.1,2.9-2c0.8-1,1.2-2.3,1.1-3.8l-0.1-1l1,0.3c2.2,0.6,4.5,2.5,4.4,5.2c0,1.1-0.6,2.1-1.5,2.8
		c0.6,0.2,0.7,0.6,0.7,0.9c0,0.1-0.1,0.7-0.9,0.7C-230.3,679.3-230.5,679.3-230.7,679.3z M-232.6,677.2l0.3,0.2
		c0.2,0.2,0.4,0.3,0.7,0.3c0-0.1,0-0.2,0-0.3c0-0.3,0.2-0.6,0.5-0.8c0.6-0.3,1.2-0.9,1.3-1.8c0-1.5-1.1-2.6-2.4-3.4
		c-0.1,1.3-0.6,2.6-1.4,3.7c-0.6,0.8-1.4,1.4-2.3,1.9c0.4,0.1,0.8,0.2,1.3,0.3c0.5,0,1.2,0,1.8-0.1L-232.6,677.2z"/>
	<path d="M-244.2,677.7c-0.3,0-0.6,0-0.9,0c-0.8,0-1.1-0.6-1.2-1c0-0.4,0.2-1,0.9-1.2c-1.3-0.9-2-2.2-2.1-3.8
		c-0.1-3.7,3.2-6.4,6.5-7.1c2.1-0.5,4.2-0.2,5.9,0.8c1.3,0.8,2.1,2.1,2.5,3.8c0.4,1.9,0.1,3.9-1,5.3c-1.1,1.5-2.9,2.4-5.2,2.6
		c-0.9,0.1-1.7,0-2.5-0.1C-242,677.5-243.2,677.7-244.2,677.7z M-238.8,666.3c-0.5,0-1,0.1-1.6,0.2c-2.5,0.6-5,2.5-5,5.1
		c0,1.2,0.9,2,1.6,2.4l0.1,0.1c0.3,0.3,0.5,0.6,0.6,1c0,0.1,0,0.3,0,0.4c0.4-0.1,0.7-0.2,0.9-0.4l0.3-0.3l0.4,0.1
		c0.7,0.1,1.6,0.2,2.5,0.1c1.6-0.1,2.8-0.8,3.6-1.8c0.7-1,1-2.2,0.7-3.7l0,0c-0.2-1.1-0.8-1.9-1.6-2.4
		C-236.8,666.6-237.8,666.3-238.8,666.3z"/>
</g>
<path class="st21" d="M-232.4,622.3h-9.3c-2.4,0-4.3-2-4.3-4.5c0-2.1,1.3-3.8,3.2-4.3c0.3-1.5,1.6-2.6,3.2-2.4
	c0.9-1.1,2.3-1.8,3.7-1.8c2.4,0,4.4,1.8,4.8,4.2c1.9,0.5,3.2,2.2,3.2,4.3C-228.1,620.3-230,622.3-232.4,622.3z M-239.9,613.1
	c-0.5,0-0.9,0.4-0.9,1c0,0.1,0,0.1,0,0.2c0,0.3,0,0.6-0.2,0.8c-0.2,0.2-0.5,0.4-0.7,0.4c-1.2,0-2.2,1.1-2.2,2.5s1,2.5,2.3,2.5h9.3
	c1.3,0,2.3-1.1,2.3-2.5c0-1.3-1-2.4-2.2-2.5c-0.5,0-1-0.5-1-1c0-1.7-1.3-3.1-2.8-3.1c-1,0-1.9,0.5-2.4,1.4c-0.3,0.4-0.8,0.6-1.3,0.4
	C-239.7,613.1-239.8,613.1-239.9,613.1z"/>
<path id="Rectangle-89" class="st21" d="M-243,698.8h10c0.6,0,1,0.4,1,1l0,0c0,0.6-0.4,1-1,1h-10c-0.6,0-1-0.4-1-1l0,0
	C-244,699.2-243.5,698.8-243,698.8z"/>
<path class="st21" d="M-232.4,650.3h-9.3c-2.4,0-4.3-2-4.3-4.5c0-2.1,1.3-3.8,3.2-4.3c0.3-1.5,1.6-2.6,3.2-2.4
	c0.9-1.1,2.3-1.8,3.7-1.8c2.4,0,4.4,1.8,4.8,4.2c1.9,0.5,3.2,2.2,3.2,4.3C-228.1,648.3-230,650.3-232.4,650.3z M-239.9,641.1
	c-0.5,0-0.9,0.4-0.9,1c0,0.1,0,0.1,0,0.2c0,0.3,0,0.6-0.2,0.8c-0.2,0.2-0.5,0.4-0.7,0.4c-1.2,0-2.2,1.1-2.2,2.5s1,2.5,2.3,2.5h9.3
	c1.3,0,2.3-1.1,2.3-2.5c0-1.3-1-2.4-2.2-2.5c-0.5,0-1-0.5-1-1c0-1.7-1.3-3.1-2.8-3.1c-1,0-1.9,0.5-2.4,1.4c-0.3,0.4-0.8,0.6-1.3,0.4
	C-239.7,641.1-239.8,641.1-239.9,641.1z"/>
<g id="Group-3_1_" transform="translate(1.000000, 1.000000)">
	<path class="st22" d="M-230.8,596.2c-0.7,0-1.6-0.1-2.3-0.6c-0.6,0.1-1.3,0.1-1.8,0.1c-1.3-0.1-2.4-0.6-3.3-1.4l-0.9-0.9l1.2-0.4
		c1.2-0.4,2.2-1.1,2.9-2c0.8-1,1.2-2.3,1.1-3.7l-0.1-1l1,0.3c2.2,0.6,4.5,2.5,4.4,5.1c0,1.1-0.6,2.1-1.5,2.8
		c0.6,0.2,0.7,0.6,0.7,0.9c0,0.1-0.1,0.7-0.9,0.7C-230.4,596.2-230.6,596.2-230.8,596.2z M-232.7,594.1l0.3,0.2
		c0.2,0.2,0.4,0.3,0.7,0.3c0-0.1,0-0.2,0-0.3c0-0.3,0.2-0.6,0.5-0.8c0.6-0.3,1.2-0.9,1.3-1.8c0-1.5-1.1-2.6-2.4-3.3
		c-0.1,1.3-0.6,2.6-1.4,3.6c-0.6,0.8-1.4,1.4-2.3,1.9c0.4,0.1,0.8,0.2,1.3,0.3c0.5,0,1.2,0,1.8-0.1L-232.7,594.1z"/>
	<path class="st23" d="M-244.1,594.6c-0.3,0-0.6,0-0.9,0c-0.8,0-1.1-0.6-1.2-1c0-0.4,0.2-1,0.9-1.2c-1.3-0.9-2-2.2-2.1-3.7
		c-0.1-3.6,3.2-6.3,6.4-7c2.1-0.5,4.2-0.2,5.8,0.8c1.3,0.8,2.1,2.1,2.5,3.7c0.4,1.9,0.1,3.8-1,5.2c-1.1,1.5-2.9,2.4-5.1,2.6
		c-0.9,0.1-1.7,0-2.5-0.1C-242,594.4-243.1,594.6-244.1,594.6z M-238.8,583.4c-0.5,0-1,0.1-1.6,0.2c-2.5,0.6-4.9,2.5-4.9,5
		c0,1.2,0.9,2,1.6,2.4l0.1,0.1c0.3,0.3,0.5,0.6,0.6,1c0,0.1,0,0.3,0,0.4c0.4-0.1,0.7-0.2,0.9-0.4l0.3-0.3l0.4,0.1
		c0.7,0.1,1.6,0.2,2.5,0.1c1.6-0.1,2.8-0.8,3.6-1.8c0.7-1,1-2.2,0.7-3.6l0,0c-0.2-1.1-0.8-1.9-1.6-2.4
		C-236.8,583.7-237.8,583.4-238.8,583.4z"/>
</g>
<g id="Group-2" transform="translate(1.000000, 1.000000)">
	<path id="Fill-1" class="st16" d="M-165,1356.3c0,2.5-2,4.5-4.5,4.5h-73c-2.5,0-4.5-2-4.5-4.5v-54.5h82V1356.3"/>
	<path id="Fill-2" class="st17" d="M-242.5,1288.8h27.5c1.2,0,2.2,0.6,3.1,1.4l4.1,4.1c0.8,0.8,2.6,1.6,3.8,1.6h35
		c2.5,0,4,1.8,4,4.2v1.8h-82v-8.5C-247,1290.8-245,1288.8-242.5,1288.8"/>
	<path id="Fill-1-Copy-10" class="st4" d="M-215.3,1328.1l7.3-5.5v24.2l0,0c0,0.6,0.4,1,1,1h2l0,0c0.6,0,1-0.4,1-1v-24.2l7.3,5.5
		l0,0c0.4,0.3,1,0.3,1.3-0.1l0.7-0.7l0,0c0.4-0.4,0.4-1,0-1.4c0,0,0,0,0,0l-10.6-10.4l0,0c-0.4-0.4-1-0.4-1.4,0l-10.6,10.4l0,0
		c-0.4,0.4-0.4,1,0,1.4c0,0,0,0,0,0l0.7,0.7l0,0C-216.3,1328.3-215.7,1328.4-215.3,1328.1z"/>
</g>
<path id="Fill-1_7_" class="st16" d="M-227,1521.8c0,0.6-0.4,1-1,1h-16c-0.6,0-1-0.4-1-1v-11h18V1521.8"/>
<polygon id="Fill-2_18_" class="st4" points="-235.5,1513.8 -238,1516.3 -237.5,1516.8 -236,1515.8 -236,1520.8 -235,1520.8 
	-235,1515.8 -233.5,1516.8 -233,1516.3 "/>
<path id="Fill-2_17_" class="st17" d="M-244,1506.8l6.1,0c0.3,0,0.5,0.1,0.7,0.3l0.9,0.9c0.6,0.7,1,0.8,1.3,0.8h7c0.6,0,1,0.4,1,1v1
	h-18v-3C-245,1507.2-244.6,1506.8-244,1506.8"/>
<g>
	<path id="Fill-1_2_" class="st17" d="M-244,1586.8l6.1,0c0.3,0,0.5,0.1,0.7,0.3l0.9,0.9c0.6,0.7,1,0.8,1.3,0.8h7c0.6,0,1,0.4,1,1
		v10l-18,3v-15C-245,1587.2-244.6,1586.8-244,1586.8"/>
	<path id="Fill-2_15_" class="st16" d="M-223,1590.8l-3.8,11.3c-0.1,0.4-0.5,0.7-0.9,0.7H-245l4-12H-223z"/>
	<polygon id="Fill-2_2_" class="st4" points="-232.6,1593.8 -236,1596.3 -235.7,1596.8 -233.8,1595.8 -235.5,1600.8 -234.5,1600.8 
		-232.8,1595.8 -231.7,1596.8 -231,1596.3 	"/>
</g>
<g>
	<g id="Imported-Layers-9-_x2B_-Path_2_" transform="translate(4.000000, 665.000000)" sketch:type="MSShapeGroup">
		<g id="Imported-Layers-9_2_">
			<path id="Fill-1_11_" class="st7" d="M-231,896.8c0,0.6-0.5,1-1,1h-16c-0.5,0-1-0.4-1-1v-11.1h18V896.8"/>
			<path id="Fill-2_21_" class="st8" d="M-248,881.8h6.1c0.3,0,0.5,0.1,0.7,0.3l0.9,0.9c0.6,0.7,1,0.8,1.3,0.8h7c0.5,0,1,0.4,1,1v1
				h-18v-3C-249,882.2-248.6,881.8-248,881.8"/>
		</g>
	</g>
	<polygon id="Fill-2_20_" class="st4" points="-235.5,1553.8 -238,1556.3 -237.5,1556.8 -236,1555.8 -236,1560.8 -235,1560.8 
		-235,1555.8 -233.5,1556.8 -233,1556.3 	"/>
</g>
<g>
	<g id="Page-1_3_" transform="translate(4.000000, 623.000000)" sketch:type="MSShapeGroup">
		<g id="Imported-Layers-10_1_">
			<path id="Fill-1_12_" class="st9" d="M-231,1007.8v-1c0-0.6-0.5-1-1-1h-7c-0.3,0-0.7-0.1-1.3-0.8l-0.9-0.9
				c-0.2-0.2-0.4-0.3-0.7-0.3h-6.1c-0.6,0-1,0.4-1,1v15l4-12H-231L-231,1007.8z"/>
			<path id="Fill-2_22_" class="st10" d="M-227,1007.8l-3.8,11.3c-0.1,0.4-0.5,0.7-1,0.7H-249l4-12H-227L-227,1007.8z"/>
		</g>
	</g>
	<polygon id="Fill-2_19_" class="st4" points="-232.6,1633.8 -236,1636.3 -235.7,1636.8 -233.8,1635.8 -235.5,1640.8 -234.5,1640.8 
		-232.8,1635.8 -231.7,1636.8 -231,1636.3 	"/>
</g>
<g>
	<path id="Fill-2_24_" class="st24" d="M-244,1666.8h6.1c0.3,0,0.5,0.1,0.7,0.3l0.9,0.9c0.6,0.7,1,0.8,1.3,0.8h7c0.5,0,1,0.4,1,1v1
		h-18v-3C-245,1667.2-244.6,1666.8-244,1666.8"/>
	<path class="st25" d="M-245,1670.7v11.1c0,0.6,0.5,1,1,1h16c0.5,0,1-0.4,1-1v-11.1H-245z M-236,1680.8v-5l-1.5,1l-0.5-0.5l2.5-2.5
		l2.5,2.5l-0.5,0.5l-1.5-1v5H-236z"/>
</g>
<path class="st26" d="M-228,1708.8h-7c-0.3,0-0.7-0.1-1.3-0.8l-0.9-0.9c-0.2-0.2-0.4-0.3-0.7-0.3l-6.1,0c-0.6,0-1,0.4-1,1v15l18-3
	v-10C-227,1709.3-227.5,1708.8-228,1708.8z M-231.7,1716.8l-1.2-1l-1.7,5h-1l1.7-5l-1.8,1l-0.3-0.5l3.4-2.5l1.6,2.5L-231.7,1716.8z"
	/>
<path class="st4" d="M-241,1710.8l-4,12h17.3c0.4,0,0.8-0.3,0.9-0.7l3.8-11.3H-241z M-231.7,1716.8l-1.2-1l-1.7,5h-1l1.7-5l-1.8,1
	l-0.3-0.5l3.4-2.5l1.6,2.5L-231.7,1716.8z"/>
<g>
	<g id="Page-1_6_">
		<g id="Fill-2-_x2B_-Fill-1_2_" transform="translate(0.000000, 1.000000)">
			<path id="Fill-2_25_" class="st13" d="M-241.5,1398.8h27.5c1.2,0,2.2,0.6,3.1,1.4l4.1,4.1c0.8,0.8,2.6,1.6,3.8,1.6h35
				c2.5,0,4,1.8,4,4.2v1.8h-82v-8.5C-246,1400.8-244,1398.8-241.5,1398.8"/>
			<path id="Fill-1_13_" class="st14" d="M-164,1466.3c0,2.5-2,4.5-4.5,4.5h-73c-2.5,0-4.5-2-4.5-4.5v-54.5h82V1466.3"/>
		</g>
	</g>
</g>
<path id="Fill-1-Copy-10_1_" class="st4" d="M-214.3,1439.1l7.3-5.5v24.2l0,0c0,0.6,0.4,1,1,1h2l0,0c0.6,0,1-0.4,1-1v-24.2l7.3,5.5
	l0,0c0.4,0.3,1,0.3,1.3-0.1l0.7-0.7l0,0c0.4-0.4,0.4-1,0-1.4c0,0,0,0,0,0l-10.6-10.4l0,0c-0.4-0.4-1-0.4-1.4,0l-10.6,10.4l0,0
	c-0.4,0.4-0.4,1,0,1.4c0,0,0,0,0,0l0.7,0.7l0,0C-215.3,1439.3-214.7,1439.4-214.3,1439.1z"/>
<g id="Group_5_" transform="translate(40.000000, 347.000000)" sketch:type="MSShapeGroup" class="st19">
	<path id="Shape_38_" class="st27" d="M-249-484.2c0-1.1,0.9-2,2-2s2,0.9,2,2s-0.9,2-2,2S-249-483.2-249-484.2L-249-484.2
		L-249-484.2z"/>
</g>
<g id="Group_3_" transform="translate(40.000000, 347.000000)" sketch:type="MSShapeGroup" class="st19">
	<path id="Shape_7_" class="st27" d="M-249-484.2c0-1.1,0.9-2,2-2s2,0.9,2,2s-0.9,2-2,2S-249-483.2-249-484.2L-249-484.2L-249-484.2
		z"/>
</g>
<g>
	<path id="Fill-1_4_" class="st16" d="M-192-325.2h-32c-1.1,0-2-0.9-2-2v-23h36v23C-190-326.1-190.9-325.2-192-325.2z"/>
	<polygon id="Combined-Shape_18_" class="st4" points="-212,-338.2 -207,-333.2 -206,-334.2 -208,-337.2 -196,-337.2 -196,-339.2 
		-208,-339.2 -206,-342.2 -207,-343.2 	"/>
	<path class="st4" d="M-217-341.2c-1.7,0-3,1.3-3,3s1.3,3,3,3s3-1.3,3-3S-215.4-341.2-217-341.2z M-217-337.2c-0.6,0-1-0.4-1-1
		s0.4-1,1-1s1,0.4,1,1S-216.5-337.2-217-337.2z"/>
	<path id="Fill-2_23_" class="st17" d="M-211.9-357.2c0.5,0,1,0.2,1.4,0.6l1.8,1.8c1.3,1.3,2.1,1.6,2.6,1.6h14c1.1,0,2,0.9,2,2v1
		h-36v-5c0-1.1,0.9-2,2-2H-211.9z"/>
</g>
<g id="Group-3-Copy-4" transform="translate(3.000000, 211.000000)">
	<rect id="Rectangle-4" x="-219" y="-406.2" class="st28" width="16" height="16"/>
	<path id="Combined-Shape" class="st13" d="M-209-404.2h-6c-1.7,0-3,1.3-3,3v7c0,1.7,1.3,3,3,3h7c1.7,0,3-1.3,3-3v-6l-2,2v4
		c0,0.6-0.4,1-1,1h-7c-0.6,0-1-0.4-1-1v-7c0-0.6,0.4-1,1-1h4L-209-404.2z"/>
	<path id="Path-3-Copy" class="st13" d="M-213-396.1v-2l7.3-7.3c0.4-0.4,1-0.4,1.4,0l0.6,0.6c0.4,0.4,0.4,1,0,1.4l-7.3,7.3H-213z"/>
</g>
<path id="Combined-Shape-Copy" class="st13" d="M-206-227.2c-4.4,0-8-3.6-8-8s3.6-8,8-8s8,3.6,8,8S-201.6-227.2-206-227.2z
	 M-206-229.2c3.3,0,6-2.7,6-6s-2.7-6-6-6s-6,2.7-6,6S-209.4-229.2-206-229.2z M-206-232.2c-1.7,0-3-1.3-3-3s1.3-3,3-3s3,1.3,3,3
	S-204.4-232.2-206-232.2z M-205-235.2c0.6,0,1-0.4,1-1s-0.4-1-1-1s-1,0.4-1,1S-205.6-235.2-205-235.2z"/>
<g id="Group-8-Copy-2" transform="translate(3.000000, 131.000000)">
	<rect id="Rectangle-4_1_" x="-217" y="-422.2" class="st28" width="16" height="16"/>
	<path class="st13" d="M-213.1-407.3c-0.5,0-0.8-0.2-0.9-0.3c-0.3-0.2-0.9-0.8-0.5-2.1l0.7-2.5c0-0.2-0.1-0.5-0.2-0.5l-2-1.6
		c-1-0.8-1-1.6-0.9-2s0.5-1.1,1.8-1.3l2.8-0.3c0.2,0,0.5-0.3,0.6-0.4l1-2.4c0.5-1.2,1.4-1.4,1.7-1.4s1.2,0.1,1.7,1.4l1,2.4
		c0.1,0.2,0.4,0.4,0.6,0.4l2.8,0.3c1.3,0.2,1.7,0.9,1.8,1.3s0.1,1.2-0.9,2l-2,1.6c-0.1,0.1-0.2,0.4-0.2,0.5l0.7,2.5
		c0.3,1.3-0.3,1.9-0.5,2.1c-0.3,0.2-1,0.6-2.2-0.1l-2.4-1.4c-0.2-0.1-0.6-0.1-0.7,0l-2.4,1.4C-212.3-407.4-212.7-407.3-213.1-407.3z
		 M-214.5-415.6l1.7,1.3c0.7,0.6,1.1,1.7,0.9,2.6l-0.6,2.1l2.1-1.2c0.8-0.5,2-0.5,2.7,0l2.1,1.2l-0.6-2.1c-0.2-0.9,0.1-2,0.9-2.6
		l1.7-1.3l-2.4-0.3c-0.9-0.1-1.8-0.8-2.2-1.6l-0.9-2.1l-0.9,2.1c-0.4,0.8-1.3,1.5-2.2,1.6L-214.5-415.6z"/>
</g>
</svg>
