<?xml version="1.0" encoding="utf-8"?>
<!-- Generator: Adobe Illustrator 19.0.0, SVG Export Plug-In . SVG Version: 6.00 Build 0)  -->
<svg version="1.1" id="Layer_1" xmlns:sketch="http://www.bohemiancoding.com/sketch/ns"
	 xmlns="http://www.w3.org/2000/svg" xmlns:xlink="http://www.w3.org/1999/xlink" x="0px" y="0px" width="100px" height="1769.2px"
	 viewBox="-247 -464.3 100 1769.2" style="enable-background:new -247 -464.3 100 1769.2;" xml:space="preserve">
<style type="text/css">
	.st0{fill:#777777;}
	.st1{fill:#2BA6DE;}
	.st2{fill:#D90007;}
	.st3{fill:#31B500;}
	.st4{opacity:0.3;}
	.st5{fill:#191717;}
	.st6{fill:#FFFFFF;}
	.st7{opacity:0.5;fill:#777777;enable-background:new    ;}
	.st8{opacity:0.5;}
	.st9{opacity:0.4;enable-background:new    ;}
	.st10{opacity:0.5;enable-background:new    ;}
	.st11{opacity:0.5;fill:#111111;enable-background:new    ;}
	.st12{opacity:0.4;fill:#111111;enable-background:new    ;}
	.st13{opacity:0.5;fill:none;stroke:#000000;stroke-width:2;stroke-miterlimit:10;enable-background:new    ;}
	.st14{fill:#FFA500;}
	.st15{fill:#999999;}
	.st16{fill:#AAAAAA;}
	.st17{fill:#ECC01E;}
	.st18{fill:#F1D364;}
	.st19{fill:#EBC01E;}
	.st20{fill:#9F9F9F;}
	.st21{fill:none;}
	.st22{opacity:0.7;enable-background:new    ;}
	.st23{opacity:0.3;enable-background:new    ;}
	.st24{opacity:0.7;fill:#2EA0DA;enable-background:new    ;}
	.st25{fill:#2EA0DA;}
</style>
<path id="Shape_2_" sketch:type="MSShapeGroup" class="st0" d="M-190.3-74c0-4.4-3.6-8-8-8s-8,3.6-8,8s3.6,8,8,8
	S-190.3-69.6-190.3-74L-190.3-74L-190.3-74z M-196.3-79v4h3l-5,6l-5-6h3v-4H-196.3L-196.3-79z"/>
<g id="Group_1_" transform="translate(31.000000, 462.000000)" sketch:type="MSShapeGroup">
	<path id="Shape_3_" class="st0" d="M-227.8-455v-2h-8v-3l-4,4l4,4v-3H-227.8L-227.8-455z"/>
	<path id="Shape_4_" class="st0" d="M-227.8-463c-3.2,0-5.9,2.1-6.7,5h2.1c0.8-1.8,2.5-3,4.6-3c2.8,0,5,2.2,5,5s-2.2,5-5,5
		c-2,0-3.8-1.2-4.6-3h-2.1c0.9,2.9,3.5,5,6.7,5c3.9,0,7-3.1,7-7S-223.9-463-227.8-463L-227.8-463L-227.8-463z"/>
</g>
<g id="Group_2_" transform="translate(35.000000, 420.000000)" sketch:type="MSShapeGroup">
	<path id="Shape_5_" class="st0" d="M-240.3-447h12v-7c-2.8,0-5-2.2-5-5c0-0.7,0.1-1.4,0.4-2h-4.4l-3,3V-447L-240.3-447z"/>
	<path id="Shape_6_" class="st0" d="M-232.3-459c0,2.2,1.8,4,4,4s4-1.8,4-4s-1.8-4-4-4S-232.3-461.3-232.3-459L-232.3-459
		L-232.3-459z M-230.3-460h2v-2l3,3l-3,3v-2h-2V-460L-230.3-460z"/>
</g>
<path id="Shape_46_" sketch:type="MSShapeGroup" class="st1" d="M-190.3,966c0-4.4-3.6-8-8-8s-8,3.6-8,8s3.6,8,8,8
	S-190.3,970.4-190.3,966L-190.3,966L-190.3,966z M-196.3,961v4h3l-5,6l-5-6h3v-4H-196.3L-196.3,961z"/>
<g id="Group_14_" transform="translate(31.000000, 462.000000)" sketch:type="MSShapeGroup">
	<path id="Shape_45_" class="st2" d="M-227.8,564.9v-2h-8v-3l-4,4l4,4v-3H-227.8L-227.8,564.9z"/>
	<path id="Shape_44_" class="st2" d="M-227.8,556.9c-3.2,0-5.9,2.1-6.7,5h2.1c0.8-1.8,2.5-3,4.6-3c2.8,0,5,2.2,5,5s-2.2,5-5,5
		c-2,0-3.8-1.2-4.6-3h-2.1c0.9,2.9,3.5,5,6.7,5c3.9,0,7-3.1,7-7S-223.9,556.9-227.8,556.9L-227.8,556.9L-227.8,556.9z"/>
</g>
<g id="Group_13_" transform="translate(35.000000, 420.000000)" sketch:type="MSShapeGroup">
	<path id="Shape_43_" class="st3" d="M-240.3,582.9h12v-7c-2.8,0-5-2.2-5-5c0-0.7,0.1-1.4,0.4-2h-4.4l-3,3V582.9L-240.3,582.9z"/>
	<path id="Shape_42_" class="st3" d="M-232.3,570.9c0,2.2,1.8,4,4,4s4-1.8,4-4s-1.8-4-4-4S-232.3,568.7-232.3,570.9L-232.3,570.9
		L-232.3,570.9z M-230.3,569.9h2v-2l3,3l-3,3v-2h-2V569.9L-230.3,569.9z"/>
</g>
<g id="Group_4_" transform="translate(40.000000, 347.000000)" sketch:type="MSShapeGroup" class="st4">
	<path id="Shape_9_" class="st5" d="M-240.3-461c0-1.1,0.9-2,2-2s2,0.9,2,2s-0.9,2-2,2S-240.3-460-240.3-461L-240.3-461L-240.3-461z
		"/>
</g>
<path id="Shape_23_" sketch:type="MSShapeGroup" class="st6" d="M-238.3,572.4c0,4.4,3.6,8,8,8s8-3.6,8-8s-3.6-8-8-8
	S-238.3,568-238.3,572.4L-238.3,572.4L-238.3,572.4z M-231.3,567.4h2v4h4v2h-4v4h-2v-4h-4v-2h4V567.4L-231.3,567.4z"/>
<g id="Group_8_" transform="translate(4.000000, 716.000000)" sketch:type="MSShapeGroup">
	<path id="Shape_24_" class="st7" d="M-220.4-448.3c-0.5-0.1-0.8-0.5-0.8-0.9c0-0.1,0.1-0.2,0.1-0.2c1-0.6,1.8-1.5,1.8-2.6
		c0.1-2.3-2.1-4.1-4.3-4.7c0.1,1.7-0.4,3.3-1.4,4.6c-0.9,1.1-2.2,1.9-3.7,2.4c0.8,0.7,1.9,1.2,3.1,1.2c0.7,0.1,1.5,0,2.2-0.1
		c0.8,0.6,2,0.7,2.9,0.6C-220.1-448.1-220.2-448.2-220.4-448.3L-220.4-448.3L-220.4-448.3z"/>
	<path id="Shape_25_" class="st0" d="M-225.2-457.9c-0.8-3.6-4.4-4.7-7.8-4c-3.2,0.7-6.4,3.1-6.3,6.4c0,1.5,1,2.7,2.4,3.5
		c0.1,0.1,0.2,0.2,0.2,0.3c0,0.6-0.5,1.1-1.1,1.2c-0.3,0.1-0.4,0.2,0,0.3c1.3,0.1,2.8,0,3.9-0.8c1,0.1,2,0.2,2.9,0.1
		C-227-451-224.3-454-225.2-457.9L-225.2-457.9L-225.2-457.9z"/>
</g>
<path id="Shape_26_" sketch:type="MSShapeGroup" class="st0" d="M-236.3,390.9c0,4.4,3.6,8,8,8s8-3.6,8-8s-3.6-8-8-8
	S-236.3,386.5-236.3,390.9L-236.3,390.9L-236.3,390.9z M-230.3,395.9v-4h-3l5-6l5,6h-3v4H-230.3L-230.3,395.9z"/>
<path id="Shape_28_" sketch:type="MSShapeGroup" class="st0" d="M-219.3,290.9c0-4.4-3.6-8-8-8s-8,3.6-8,8s3.6,8,8,8
	S-219.3,295.4-219.3,290.9L-219.3,290.9L-219.3,290.9z M-232.3,290.9l2-2l2,2l4-4l2,2l-6,6L-232.3,290.9L-232.3,290.9z"/>
<path id="Shape_22_" sketch:type="MSShapeGroup" class="st3" d="M-219.3,320.9c0-4.4-3.6-8-8-8s-8,3.6-8,8s3.6,8,8,8
	S-219.3,325.4-219.3,320.9L-219.3,320.9L-219.3,320.9z M-232.3,320.9l2-2l2,2l4-4l2,2l-6,6L-232.3,320.9L-232.3,320.9z"/>
<path id="Shape_36_" sketch:type="MSShapeGroup" class="st0" d="M-229.6,356.9c0,1.1-0.9,2-2,2s-2-0.9-2-2s0.9-2,2-2
	S-229.6,355.9-229.6,356.9L-229.6,356.9L-229.6,356.9z"/>
<path id="Shape_37_" sketch:type="MSShapeGroup" class="st0" d="M-233.2,352.9c-0.1-0.5-0.1-1,0-1.4s0.3-0.8,0.6-1.1
	c0.2-0.3,0.5-0.6,0.8-0.9s0.6-0.5,0.9-0.8c0.3-0.2,0.5-0.5,0.7-0.8c0.2-0.2,0.3-0.5,0.3-0.8c0-0.5-0.2-0.9-0.5-1.1s-0.8-0.4-1.2-0.4
	c-0.5,0-0.9,0.1-1.3,0.3s-0.7,0.5-1.1,0.8l-1.9-1.8c0.6-0.6,1.2-1.1,2-1.5s1.6-0.6,2.5-0.6c0.7,0,1.3,0.1,1.9,0.2
	c0.6,0.2,1.1,0.4,1.5,0.7s0.8,0.7,1,1.2c0.3,0.5,0.4,1,0.4,1.7c0,0.5-0.1,1-0.3,1.3c-0.2,0.4-0.4,0.7-0.7,1s-0.6,0.6-0.9,0.9
	c-0.3,0.3-0.6,0.5-0.9,0.8s-0.5,0.6-0.6,0.9c-0.2,0.3-0.2,0.7-0.2,1.2L-233.2,352.9L-233.2,352.9z"/>
<g id="Imported-Layers-13_3_" transform="translate(3.000000, 978.000000)" sketch:type="MSShapeGroup" class="st8">
	<path id="Fill-2_13_" d="M-226.1-450.8c-0.4-0.4-3.6-1.9-4.2-2.1c0-0.1-0.1-0.6-0.2-0.7c-0.2-0.1-0.7-0.3-0.7-0.3s-0.1-0.1-0.1-0.3
		c0-0.1,0.1-0.3,0.1-0.3c0.1-0.1,0.3-0.5,0.4-0.7c0.1-0.3,0.2-0.9,0.2-0.9c0-0.1,0.2-0.2,0.3-0.3c0.2-0.1,0.4-1.5,0.4-1.5
		c0-0.5-0.2-0.3-0.2-0.6v-1.2c0-1.5-1.2-2.5-2.7-2.5h-0.1c-1.5,0-2.7,1-2.7,2.5v1.2c0,0.3-0.2,0.1-0.2,0.6c0,0,0.2,1.4,0.4,1.5
		c0.1,0.1,0.3,0.1,0.3,0.3c0,0,0.1,0.7,0.1,0.9c0.1,0.3,0.3,0.6,0.4,0.7c0,0,0.1,0.1,0.1,0.3c0,0.1-0.1,0.2-0.1,0.3
		c0,0-0.5,0.3-0.7,0.3c-0.2,0.1-0.2,0.5-0.2,0.7c-0.6,0.2-3.8,1.7-4.2,2.1c-0.3,0.3-0.3,1.9-0.3,1.9v0.2c0,0.4,0.3,0.7,0.7,0.7h12.7
		c0.4,0,0.7-0.3,0.7-0.7v-0.2C-225.8-448.9-225.8-450.5-226.1-450.8"/>
</g>
<g id="Imported-Layers-13_2_" transform="translate(3.000000, 938.000000)" sketch:type="MSShapeGroup">
	<path id="Fill-1_10_" class="st9" d="M-228.3-453.1c1.2,0.5,2.6,1.2,2.9,1.6c0.2,0.2,0.5,0.6,0.5,2.4h3.5c0.3,0,0.5-0.2,0.5-0.5
		v-0.2c0,0,0-1.2-0.2-1.4c-0.3-0.3-2.8-1.4-3.3-1.6c0-0.1-0.1-0.5-0.2-0.5c-0.1-0.1-0.5-0.2-0.5-0.2s0-0.1-0.1-0.2
		c0-0.1,0.1-0.2,0.1-0.2c0.1-0.1,0.3-0.4,0.3-0.6c0.1-0.2,0.1-0.7,0.1-0.7c0-0.1,0.2-0.2,0.3-0.2c0.2-0.1,0.3-1.2,0.3-1.2
		c0-0.4-0.1-0.2-0.1-0.5v-1c0-1.2-1-1.9-2.2-1.9l0,0c-1.2,0-2.2,0.8-2.2,1.9v1c0,0.3-0.1,0.1-0.1,0.5c0,0,0.1,1.1,0.3,1.2
		c0.1,0.1,0.3,0.1,0.3,0.2c0,0,0.1,0.5,0.1,0.7c0.1,0.2,0.3,0.5,0.3,0.6c0,0,0.1,0.1,0.1,0.2s-0.1,0.2-0.1,0.2s-0.4,0.2-0.5,0.2
		C-228.2-453.3-228.3-453.2-228.3-453.1L-228.3-453.1L-228.3-453.1z"/>
	<path id="Fill-2_12_" class="st10" d="M-226.1-450.8c-0.4-0.4-3.6-1.9-4.2-2.1c0-0.1-0.1-0.6-0.2-0.7c-0.2-0.1-0.7-0.3-0.7-0.3
		s-0.1-0.1-0.1-0.3c0-0.1,0.1-0.3,0.1-0.3c0.1-0.1,0.3-0.5,0.4-0.7c0.1-0.3,0.2-0.9,0.2-0.9c0-0.1,0.2-0.2,0.3-0.3
		c0.2-0.1,0.4-1.5,0.4-1.5c0-0.5-0.2-0.3-0.2-0.6v-1.2c0-1.5-1.2-2.5-2.7-2.5h-0.1c-1.5,0-2.7,1-2.7,2.5v1.2c0,0.3-0.2,0.1-0.2,0.6
		c0,0,0.2,1.4,0.4,1.5c0.1,0.1,0.3,0.1,0.3,0.3c0,0,0.1,0.7,0.1,0.9c0.1,0.3,0.3,0.6,0.4,0.7c0,0,0.1,0.1,0.1,0.3
		c0,0.1-0.1,0.2-0.1,0.3c0,0-0.5,0.3-0.7,0.3c-0.2,0.1-0.2,0.5-0.2,0.7c-0.6,0.2-3.8,1.7-4.2,2.1c-0.3,0.3-0.3,1.9-0.3,1.9v0.2
		c0,0.4,0.3,0.7,0.7,0.7h12.7c0.4,0,0.7-0.3,0.7-0.7v-0.2C-225.8-448.9-225.8-450.5-226.1-450.8"/>
</g>
<g id="Page-1_4_" transform="translate(4.000000, 623.000000)" sketch:type="MSShapeGroup">
	<g id="Imported-Layers-10_3_">
		<path id="Fill-1_8_" class="st11" d="M-222.3-458v-1c0-0.6-0.5-1-1-1h-7c-0.3,0-0.7-0.1-1.3-0.8l-0.9-0.9
			c-0.2-0.2-0.4-0.3-0.7-0.3h-6.1c-0.6,0-1,0.4-1,1v15l4-12L-222.3-458L-222.3-458z"/>
		<path id="Fill-2_9_" class="st12" d="M-218.3-458l-3.8,11.3c-0.1,0.4-0.5,0.7-1,0.7h-17.2l4-12H-218.3L-218.3-458z"/>
	</g>
</g>
<g id="Imported-Layers-9-_x2B_-Path_1_" transform="translate(4.000000, 665.000000)" sketch:type="MSShapeGroup">
	<g id="Imported-Layers-9_1_">
		<path id="Fill-1_1_" class="st9" d="M-222.3-448.1c0,0.6-0.5,1-1,1h-16c-0.5,0-1-0.4-1-1v-11h18V-448.1"/>
		<path id="Fill-2_1_" class="st10" d="M-239.3-463h6.1c0.3,0,0.5,0.1,0.7,0.3l0.9,0.9c0.6,0.7,1,0.8,1.3,0.8h7c0.5,0,1,0.4,1,1v1
			h-18v-3C-240.3-462.6-239.9-463-239.3-463"/>
	</g>
</g>
<path class="st13" d="M-203.3,1058c0-3.3,2.7-6,6-6s6,2.7,6,6s-2.7,6-6,6"/>
<polygon class="st10" points="-206.3,1058 -200.3,1058 -203.3,1062 "/>
<g>
	<g id="Page-1_1_" transform="translate(4.000000, 888.000000)" sketch:type="MSShapeGroup">
		<g id="Imported-Layers_2_">
			<path id="Shape_41_" class="st0" d="M-240.3-463v2h15v-1h-7v-1H-240.3L-240.3-463z M-224.3-460h-16v9h16V-460L-224.3-460z"/>
		</g>
	</g>
	<path id="Combined-Shape_1_" class="st6" d="M-223.4,432.5l-2.2,2.2l-0.4-0.4l0.9-1.3h-5.3v-1h5.3l-0.9-1.3l0.4-0.4L-223.4,432.5z
		 M-231.4,432h-1.8v0.9h1.8V432z"/>
</g>
<g>
	<g id="Page-1_2_" transform="translate(4.000000, 888.000000)" sketch:type="MSShapeGroup">
		<g id="Imported-Layers_1_">
			<path id="Shape_1_" class="st14" d="M-240.3-436v2h15v-1h-7v-1H-240.3L-240.3-436z M-224.3-433h-16v9h16V-433L-224.3-433z"/>
		</g>
	</g>
	<path id="Combined-Shape_4_" class="st6" d="M-223.4,459.5l-2.2,2.2l-0.4-0.4l0.9-1.3h-5.3v-1h5.3l-0.9-1.3l0.4-0.4L-223.4,459.5z
		 M-231.4,459h-1.8v0.9h1.8V459z"/>
</g>
<g>
	<g id="Page-1_5_">
		<g id="Fill-2-_x2B_-Fill-1_1_" transform="translate(0.000000, 1.000000)">
			<path id="Fill-2_8_" class="st15" d="M-233.3,763h27.5c1.2,0,2.2,0.6,3.1,1.4l4.1,4.1c0.8,0.8,2.6,1.6,3.8,1.6h35
				c2.5,0,4,1.8,4,4.2v1.8h-82v-8.5C-237.8,765-235.8,763-233.3,763"/>
			<path id="Fill-1_5_" class="st16" d="M-155.8,830.5c0,2.5-2,4.5-4.5,4.5h-73c-2.5,0-4.5-2-4.5-4.5V776h82V830.5"/>
		</g>
	</g>
</g>
<g>
	<g id="Page-1_7_">
		<g id="Fill-2-_x2B_-Fill-1_4_" transform="translate(0.000000, 1.000000)">
			<path id="Fill-2_3_" class="st17" d="M-233.3,1093h27.5c1.2,0,2.2,0.6,3.1,1.4l4.1,4.1c0.8,0.8,2.6,1.6,3.8,1.6h35
				c2.5,0,4,1.8,4,4.2v1.8h-82v-8.5C-237.8,1095-235.8,1093-233.3,1093"/>
			<path id="Fill-1_3_" class="st18" d="M-155.8,1160.5c0,2.5-2,4.5-4.5,4.5h-73c-2.5,0-4.5-2-4.5-4.5V1106h82V1160.5"/>
		</g>
	</g>
</g>
<g>
	<path id="Fill-1-Copy" class="st18" d="M-155.8-393.8c0,2.5-2,4.5-4.5,4.5h-73c-2.5,0-4.5-2-4.5-4.5v-54.5h82V-393.8"/>
	<path class="st6" d="M-217.3-423.3c-2.5,0-4.5,2-4.5,4.5s2,4.5,4.5,4.5s4.5-2,4.5-4.5S-214.8-423.3-217.3-423.3z M-217.3-417.3
		c-0.8,0-1.5-0.7-1.5-1.5s0.7-1.5,1.5-1.5s1.5,0.7,1.5,1.5S-216.5-417.3-217.3-417.3z"/>
	<path id="Fill-2_4_" class="st6" d="M-209.8-418.8l9.3,9.8c0.4,0.4,1.1,0.5,1.6,0.3l0.2-0.1c0.5-0.2,0.6-0.8,0.3-1.2l-5.4-7.2h31
		c0.5,0,1-0.4,1-1v-1c0-0.6-0.5-1-1-1h-31l5.4-7.2c0.3-0.4,0.2-1-0.3-1.2l-0.2-0.1c-0.5-0.2-1.2-0.1-1.6,0.3L-209.8-418.8z"/>
	<path id="Fill-2-Copy" class="st19" d="M-233.3-461.3h27.5c1.2,0,2.2,0.6,3.1,1.4l4.1,4.1c0.8,0.8,2.6,1.6,3.8,1.6h35
		c2.5,0,4,1.8,4,4.2v1.8h-82v-8.5C-237.8-459.3-235.8-461.3-233.3-461.3"/>
</g>
<g>
	<path id="Fill-1_4_" class="st18" d="M-183.3-300.3h-32c-1.1,0-2-0.9-2-2v-23h36v23C-181.3-301.2-182.2-300.3-183.3-300.3z"/>
	<polygon id="Combined-Shape_3_" class="st6" points="-203.3,-313.3 -198.3,-308.3 -197.3,-309.3 -199.3,-312.3 -187.3,-312.3 
		-187.3,-314.3 -199.3,-314.3 -197.3,-317.3 -198.3,-318.3 	"/>
	<path class="st6" d="M-208.3-316.3c-1.7,0-3,1.3-3,3s1.3,3,3,3s3-1.3,3-3S-206.7-316.3-208.3-316.3z M-208.3-312.3
		c-0.6,0-1-0.4-1-1s0.4-1,1-1s1,0.4,1,1S-207.8-312.3-208.3-312.3z"/>
	<path id="Fill-2_7_" class="st19" d="M-203.2-332.3c0.5,0,1,0.2,1.4,0.6l1.8,1.8c1.3,1.3,2.1,1.6,2.6,1.6h14c1.1,0,2,0.9,2,2v1h-36
		v-5c0-1.1,0.9-2,2-2H-203.2z"/>
</g>
<g>
	<path id="Fill-2_11_" class="st10" d="M-235.8,122h6.1c0.3,0,0.5,0.1,0.7,0.3l0.9,0.9c0.6,0.7,1,0.8,1.3,0.8h7c0.6,0,1,0.4,1,1v1
		h-18v-3C-236.8,122.4-236.4,122-235.8,122"/>
</g>
<path id="Combined-Shape_13_" class="st9" d="M-217.8,56c0,0.5-0.4,1-1,1h-16c-0.6,0-1-0.5-1-1V45h18V56"/>
<polygon id="Combined-Shape_6_" class="st6" points="-228.8,50.5 -226.3,53 -225.8,52.5 -226.8,51 -220.8,51 -220.8,50 -226.8,50 
	-225.8,48.5 -226.3,48 "/>
<path class="st6" d="M-231.3,49c-0.8,0-1.5,0.7-1.5,1.5s0.7,1.5,1.5,1.5s1.5-0.7,1.5-1.5S-230.5,49-231.3,49z M-230.8,51h-1v-1h1V51
	z"/>
<path id="Fill-2_16_" class="st10" d="M-234.8,41h6.1c0.3,0,0.5,0.1,0.7,0.3l0.9,0.9c0.6,0.7,1,0.8,1.3,0.8h7c0.6,0,1,0.4,1,1v1h-18
	v-3C-235.8,41.4-235.4,41-234.8,41"/>
<g>
	<g>
		<g id="Imported-Layers-11_1_" transform="translate(24.000000, 48.000000)" sketch:type="MSLayerGroup">
			<path id="Fill-1_6_" sketch:type="MSShapeGroup" class="st10" d="M-259.3,33h6.1c0.3,0,0.5,0.1,0.7,0.3l0.9,0.9
				c0.6,0.7,1,0.8,1.3,0.8h7c0.6,0,1,0.5,1,1v10l-18,3V34C-260.3,33.4-259.8,33-259.3,33"/>
			<path id="Fill-2_14_" sketch:type="MSShapeGroup" class="st20" d="M-238.3,37l-3.8,11.3c-0.1,0.4-0.5,0.7-0.9,0.7h-17.3l4-12
				H-238.3z"/>
		</g>
	</g>
	<polygon id="Combined-Shape_8_" class="st6" points="-227.3,90.5 -225.7,93 -225,92.5 -225.5,91 -219.5,91 -219.2,90 -225.2,90 
		-223.6,88.5 -224,88 	"/>
	<path class="st6" d="M-229.3,89c-0.8,0-1.7,0.7-2,1.5s0.1,1.5,1,1.5c0.8,0,1.7-0.7,2-1.5S-228.5,89-229.3,89z M-229.5,91h-1l0.4-1
		h1L-229.5,91z"/>
</g>
<g>
	<path id="Combined-Shape_7_" class="st20" d="M-218.3-354c0,0.5-0.4,1-1,1h-16c-0.6,0-1-0.5-1-1v-11h18V-354"/>
	<polygon id="Combined-Shape_2_" class="st6" points="-227.8,-362 -228.3,-361.5 -227.3,-360 -233.3,-360 -233.3,-359 -227.3,-359 
		-228.3,-357.5 -227.8,-357 -225.3,-359.5 	"/>
	<path class="st6" d="M-224.3-359.5c0,0.8,0.7,1.5,1.5,1.5s1.5-0.7,1.5-1.5s-0.7-1.5-1.5-1.5S-224.3-360.3-224.3-359.5z M-223.3-360
		h1v1h-1V-360z"/>
	<path id="Fill-2_10_" class="st10" d="M-235.3-369h6.1c0.3,0,0.5,0.1,0.7,0.3l0.9,0.9c0.6,0.7,1,0.8,1.3,0.8h7c0.6,0,1,0.4,1,1v1
		h-18v-3C-236.3-368.6-235.9-369-235.3-369"/>
</g>
<path id="Combined-Shape_10_" class="st9" d="M-218.8,137c0,0.5-0.4,1-1,1h-16c-0.6,0-1-0.5-1-1v-11h18V137"/>
<polygon id="Combined-Shape_9_" class="st6" points="-224.3,129 -224.8,129.5 -223.8,131 -229.8,131 -229.8,132 -223.8,132 
	-224.8,133.5 -224.3,134 -221.8,131.5 "/>
<path class="st6" d="M-232.3,130c-0.8,0-1.5,0.7-1.5,1.5s0.7,1.5,1.5,1.5s1.5-0.7,1.5-1.5S-231.5,130-232.3,130z M-231.8,132h-1v-1
	h1V132z"/>
<g>
	<path id="Fill-1-Copy_1_" class="st18" d="M-155.6,1271.5c0,2.5-2,4.5-4.5,4.5h-73c-2.5,0-4.5-2-4.5-4.5V1217h82V1271.5"/>
	<path class="st6" d="M-217.1,1242c-2.5,0-4.5,2-4.5,4.5s2,4.5,4.5,4.5s4.5-2,4.5-4.5S-214.6,1242-217.1,1242z M-217.1,1248
		c-0.8,0-1.5-0.7-1.5-1.5s0.7-1.5,1.5-1.5s1.5,0.7,1.5,1.5S-216.3,1248-217.1,1248z"/>
	<path id="Fill-2_6_" class="st6" d="M-180.9,1236.9c-0.4-0.4-1.1-0.5-1.6-0.3l-0.2,0.1c-0.5,0.2-0.6,0.8-0.3,1.2l5.4,7.2h-31
		c-0.5,0-1,0.4-1,1v1c0,0.6,0.5,1,1,1h31l-5.4,7.2c-0.3,0.4-0.2,1,0.3,1.2l0.2,0.1c0.5,0.2,1.2,0.1,1.6-0.3l9.3-9.8L-180.9,1236.9z"
		/>
	<path id="Fill-2-Copy_1_" class="st19" d="M-233.1,1204h27.5c1.2,0,2.2,0.6,3.1,1.4l4.1,4.1c0.8,0.8,2.6,1.6,3.8,1.6h35
		c2.5,0,4,1.8,4,4.2v1.8h-82v-8.5C-237.6,1206-235.6,1204-233.1,1204"/>
</g>
<g>
	<path id="Fill-1-Copy_2_" class="st16" d="M-155.8,931.5c0,2.5-2,4.5-4.5,4.5h-73c-2.5,0-4.5-2-4.5-4.5V877h82V931.5"/>
	<path class="st6" d="M-217.3,902c-2.5,0-4.5,2-4.5,4.5s2,4.5,4.5,4.5s4.5-2,4.5-4.5S-214.8,902-217.3,902z M-217.3,908
		c-0.8,0-1.5-0.7-1.5-1.5s0.7-1.5,1.5-1.5s1.5,0.7,1.5,1.5S-216.5,908-217.3,908z"/>
	<path id="Fill-2_5_" class="st6" d="M-181.1,896.9c-0.4-0.4-1.1-0.5-1.6-0.3l-0.2,0.1c-0.5,0.2-0.6,0.8-0.3,1.2l5.4,7.2h-31
		c-0.5,0-1,0.4-1,1v1c0,0.6,0.5,1,1,1h31l-5.4,7.2c-0.3,0.4-0.2,1,0.3,1.2l0.2,0.1c0.5,0.2,1.2,0.1,1.6-0.3l9.3-9.8L-181.1,896.9z"
		/>
	<path id="Fill-2-Copy_2_" class="st15" d="M-233.3,864h27.5c1.2,0,2.2,0.6,3.1,1.4l4.1,4.1c0.8,0.8,2.6,1.6,3.8,1.6h35
		c2.5,0,4,1.8,4,4.2v1.8h-82v-8.5C-237.8,866-235.8,864-233.3,864"/>
</g>
<g id="Group-3-Copy-4" transform="translate(3.000000, 211.000000)">
	<rect id="Rectangle-4" x="-211.3" y="-382.6" class="st21" width="16" height="16"/>
	<path id="Combined-Shape" class="st15" d="M-201.3-380.6h-6c-1.7,0-3,1.3-3,3v7c0,1.7,1.3,3,3,3h7c1.7,0,3-1.3,3-3v-6l-2,2v4
		c0,0.6-0.4,1-1,1h-7c-0.6,0-1-0.4-1-1v-7c0-0.6,0.4-1,1-1h4L-201.3-380.6z"/>
	<path id="Path-3-Copy" class="st15" d="M-205.3-372.6v-2l7.3-7.3c0.4-0.4,1-0.4,1.4,0l0.6,0.6c0.4,0.4,0.4,1,0,1.4l-7.3,7.3
		L-205.3-372.6z"/>
</g>
<path id="Combined-Shape-Copy" class="st15" d="M-198.3-203c-4.4,0-8-3.6-8-8s3.6-8,8-8s8,3.6,8,8S-193.9-203-198.3-203z
	 M-198.3-205c3.3,0,6-2.7,6-6s-2.7-6-6-6s-6,2.7-6,6S-201.7-205-198.3-205z M-198.3-208c-1.7,0-3-1.3-3-3s1.3-3,3-3s3,1.3,3,3
	S-196.7-208-198.3-208z M-197.3-211c0.6,0,1-0.4,1-1s-0.4-1-1-1s-1,0.4-1,1S-197.9-211-197.3-211z"/>
<g id="Group-8-Copy-2" transform="translate(3.000000, 131.000000)">
	<rect id="Rectangle-4_1_" x="-209.3" y="-398.1" class="st21" width="16" height="16"/>
	<path class="st15" d="M-205.4-383.2c-0.5,0-0.8-0.2-0.9-0.3c-0.3-0.2-0.9-0.8-0.5-2.1l0.7-2.5c0-0.2-0.1-0.5-0.2-0.5l-2-1.6
		c-1-0.8-1-1.6-0.9-2s0.5-1.1,1.8-1.3l2.8-0.3c0.2,0,0.5-0.3,0.6-0.4l1-2.4c0.5-1.2,1.4-1.4,1.7-1.4c0.3,0,1.2,0.1,1.7,1.4l1,2.4
		c0.1,0.2,0.4,0.4,0.6,0.4l2.8,0.3c1.3,0.2,1.7,0.9,1.8,1.3c0.1,0.4,0.1,1.2-0.9,2l-2,1.6c-0.1,0.1-0.2,0.4-0.2,0.5l0.7,2.5
		c0.3,1.3-0.3,1.9-0.5,2.1c-0.3,0.2-1,0.6-2.2-0.1l-2.4-1.4c-0.2-0.1-0.6-0.1-0.7,0l-2.4,1.4C-204.6-383.3-205-383.2-205.4-383.2z
		 M-206.8-391.5l1.7,1.3c0.7,0.6,1.1,1.7,0.9,2.6l-0.6,2.1l2.1-1.2c0.8-0.5,2-0.5,2.7,0l2.1,1.2l-0.6-2.1c-0.2-0.9,0.1-2,0.9-2.6
		l1.7-1.3l-2.4-0.3c-0.9-0.1-1.8-0.8-2.2-1.6l-0.9-2.1l-0.9,2.1c-0.4,0.8-1.3,1.5-2.2,1.6L-206.8-391.5z"/>
</g>
<g id="Group-3" transform="translate(1.000000, 1.000000)" class="st4">
	<path class="st22" d="M-223.5,703.2c-0.7,0-1.6-0.1-2.3-0.6c-0.6,0.1-1.3,0.1-1.8,0.1c-1.3-0.1-2.4-0.6-3.3-1.4l-0.9-0.9l1.2-0.4
		c1.2-0.4,2.2-1.1,2.9-2c0.8-1,1.2-2.3,1.1-3.7l-0.1-1l1,0.3c2.2,0.6,4.5,2.5,4.4,5.1c0,1.1-0.6,2.1-1.5,2.8
		c0.6,0.2,0.7,0.6,0.7,0.9c0,0.1-0.1,0.7-0.9,0.7C-223.1,703.2-223.3,703.2-223.5,703.2z M-225.4,701.1l0.3,0.2
		c0.2,0.2,0.4,0.3,0.7,0.3c0-0.1,0-0.2,0-0.3c0-0.3,0.2-0.6,0.5-0.8c0.6-0.3,1.2-0.9,1.3-1.8c0-1.5-1.1-2.6-2.4-3.3
		c-0.1,1.3-0.6,2.6-1.4,3.6c-0.6,0.8-1.4,1.4-2.3,1.9c0.4,0.1,0.8,0.2,1.3,0.3c0.5,0,1.2,0,1.8-0.1L-225.4,701.1z"/>
	<path d="M-236.8,701.6c-0.3,0-0.6,0-0.9,0c-0.8,0-1.1-0.6-1.2-1c0-0.4,0.2-1,0.9-1.2c-1.3-0.9-2-2.2-2.1-3.7
		c-0.1-3.6,3.2-6.3,6.4-7c2.1-0.5,4.2-0.2,5.8,0.8c1.3,0.8,2.1,2.1,2.5,3.7c0.4,1.9,0.1,3.8-1,5.2c-1.1,1.5-2.9,2.4-5.1,2.6
		c-0.9,0.1-1.7,0-2.5-0.1C-234.7,701.4-235.8,701.6-236.8,701.6z M-231.5,690.4c-0.5,0-1,0.1-1.6,0.2c-2.5,0.6-4.9,2.5-4.9,5
		c0,1.2,0.9,2,1.6,2.4l0.1,0.1c0.3,0.3,0.5,0.6,0.6,1c0,0.1,0,0.3,0,0.4c0.4-0.1,0.7-0.2,0.9-0.4l0.3-0.3l0.4,0.1
		c0.7,0.1,1.6,0.2,2.5,0.1c1.6-0.1,2.8-0.8,3.6-1.8c0.7-1,1-2.2,0.7-3.6v0c-0.2-1.1-0.8-1.9-1.6-2.4
		C-229.5,690.7-230.5,690.4-231.5,690.4z"/>
</g>
<path class="st4" d="M-225.4,646.4h-9.4c-2.4,0-4.3-2-4.3-4.5c0-2.1,1.3-3.8,3.2-4.3c0.3-1.5,1.6-2.6,3.2-2.4
	c0.9-1.1,2.3-1.8,3.7-1.8c2.4,0,4.4,1.8,4.8,4.2c1.9,0.5,3.2,2.2,3.2,4.3C-221.1,644.4-223,646.4-225.4,646.4z M-233,637.2
	c-0.5,0-0.9,0.4-0.9,1c0,0.1,0,0.1,0,0.2c0,0.3,0,0.6-0.2,0.8c-0.2,0.2-0.5,0.4-0.7,0.4c-1.2,0-2.2,1.1-2.2,2.5c0,1.4,1,2.5,2.3,2.5
	h9.4c1.3,0,2.3-1.1,2.3-2.5c0-1.3-1-2.4-2.2-2.5c-0.5,0-1-0.5-1-1c0-1.7-1.3-3.1-2.8-3.1c-1,0-1.9,0.5-2.4,1.4
	c-0.3,0.4-0.8,0.6-1.3,0.4C-232.8,637.2-232.9,637.2-233,637.2z"/>
<path id="Rectangle-89" class="st23" d="M-235.1,723h10c0.6,0,1,0.4,1,1l0,0c0,0.6-0.4,1-1,1h-10c-0.6,0-1-0.4-1-1l0,0
	C-236.1,723.4-235.6,723-235.1,723z"/>
<path class="st4" d="M-225.4,674.4h-9.4c-2.4,0-4.3-2-4.3-4.5c0-2.1,1.3-3.8,3.2-4.3c0.3-1.5,1.6-2.6,3.2-2.4
	c0.9-1.1,2.3-1.8,3.7-1.8c2.4,0,4.4,1.8,4.8,4.2c1.9,0.5,3.2,2.2,3.2,4.3C-221.1,672.4-223,674.4-225.4,674.4z M-233,665.2
	c-0.5,0-0.9,0.4-0.9,1c0,0.1,0,0.1,0,0.2c0,0.3,0,0.6-0.2,0.8c-0.2,0.2-0.5,0.4-0.7,0.4c-1.2,0-2.2,1.1-2.2,2.5c0,1.4,1,2.5,2.3,2.5
	h9.4c1.3,0,2.3-1.1,2.3-2.5c0-1.3-1-2.4-2.2-2.5c-0.5,0-1-0.5-1-1c0-1.7-1.3-3.1-2.8-3.1c-1,0-1.9,0.5-2.4,1.4
	c-0.3,0.4-0.8,0.6-1.3,0.4C-232.8,665.2-232.9,665.2-233,665.2z"/>
<g id="Group-3_1_" transform="translate(1.000000, 1.000000)">
	<path class="st24" d="M-223.5,619.2c-0.7,0-1.6-0.1-2.3-0.6c-0.6,0.1-1.3,0.1-1.8,0.1c-1.3-0.1-2.4-0.6-3.3-1.4l-0.9-0.9l1.2-0.4
		c1.2-0.4,2.2-1.1,2.9-2c0.8-1,1.2-2.3,1.1-3.7l-0.1-1l1,0.3c2.2,0.6,4.5,2.5,4.4,5.1c0,1.1-0.6,2.1-1.5,2.8
		c0.6,0.2,0.7,0.6,0.7,0.9c0,0.1-0.1,0.7-0.9,0.7C-223.1,619.2-223.3,619.2-223.5,619.2z M-225.4,617.1l0.3,0.2
		c0.2,0.2,0.4,0.3,0.7,0.3c0-0.1,0-0.2,0-0.3c0-0.3,0.2-0.6,0.5-0.8c0.6-0.3,1.2-0.9,1.3-1.8c0-1.5-1.1-2.6-2.4-3.3
		c-0.1,1.3-0.6,2.6-1.4,3.6c-0.6,0.8-1.4,1.4-2.3,1.9c0.4,0.1,0.8,0.2,1.3,0.3c0.5,0,1.2,0,1.8-0.1L-225.4,617.1z"/>
	<path class="st25" d="M-236.8,617.6c-0.3,0-0.6,0-0.9,0c-0.8,0-1.1-0.6-1.2-1c0-0.4,0.2-1,0.9-1.2c-1.3-0.9-2-2.2-2.1-3.7
		c-0.1-3.6,3.2-6.3,6.4-7c2.1-0.5,4.2-0.2,5.8,0.8c1.3,0.8,2.1,2.1,2.5,3.7c0.4,1.9,0.1,3.8-1,5.2c-1.1,1.5-2.9,2.4-5.1,2.6
		c-0.9,0.1-1.7,0-2.5-0.1C-234.7,617.4-235.8,617.6-236.8,617.6z M-231.5,606.4c-0.5,0-1,0.1-1.6,0.2c-2.5,0.6-4.9,2.5-4.9,5
		c0,1.2,0.9,2,1.6,2.4l0.1,0.1c0.3,0.3,0.5,0.6,0.6,1c0,0.1,0,0.3,0,0.4c0.4-0.1,0.7-0.2,0.9-0.4l0.3-0.3l0.4,0.1
		c0.7,0.1,1.6,0.2,2.5,0.1c1.6-0.1,2.8-0.8,3.6-1.8c0.7-1,1-2.2,0.7-3.6v0c-0.2-1.1-0.8-1.9-1.6-2.4
		C-229.5,606.7-230.5,606.4-231.5,606.4z"/>
</g>
</svg>
