<?xml version="1.0" encoding="utf-8"?>
<!-- Generator: Adobe Illustrator 16.0.0, SVG Export Plug-In . SVG Version: 6.00 Build 0)  -->
<!DOCTYPE svg PUBLIC "-//W3C//DTD SVG 1.1//EN" "http://www.w3.org/Graphics/SVG/1.1/DTD/svg11.dtd">
<svg version="1.1" id="Layer_1" xmlns="http://www.w3.org/2000/svg" xmlns:xlink="http://www.w3.org/1999/xlink" x="0px" y="0px"
	 width="36px" height="1000px" viewBox="0 0 36 1000" enable-background="new 0 0 36 1000" xml:space="preserve">
<g>
	<path opacity="0.7" fill="#151515" enable-background="new    " d="M28.98,172.279c-0.41-0.109-0.74-0.42-0.729-0.859
		c0.018-0.1,0.08-0.18,0.146-0.22c0.92-0.53,1.569-1.35,1.601-2.42c0.049-2.18-1.858-3.812-3.881-4.39
		c0.08,1.58-0.351,3.05-1.279,4.23c-0.819,1.05-1.961,1.8-3.312,2.23c0.711,0.66,1.69,1.07,2.83,1.16c0.646,0.04,1.319,0,1.979-0.09
		c0.729,0.59,1.764,0.62,2.635,0.561C29.25,172.46,29.189,172.34,28.98,172.279z"/>
	<path fill="#151515" d="M24.709,163.4c-0.709-3.31-3.93-4.4-7.06-3.7c-2.86,0.65-5.73,2.91-5.65,5.99
		c0.04,1.41,0.91,2.51,2.14,3.22c0.08,0.06,0.17,0.16,0.18,0.3c0.03,0.58-0.42,0.99-0.97,1.14c-0.28,0.08-0.34,0.24,0.02,0.26
		c1.17,0.08,2.54,0.04,3.5-0.74c0.9,0.11,1.779,0.18,2.65,0.12C23.109,169.72,25.49,167.02,24.709,163.4z"/>
</g>
<g>
	<path d="M18,124c-1.1,0-2-0.9-2-2s0.9-2,2-2c1.1,0,2,0.9,2,2S19.1,124,18,124z M24,123v-2h-2.141c-0.104-0.36-0.24-0.7-0.43-1.02
		l1.52-1.52l-1.41-1.41l-1.52,1.52c-0.32-0.19-0.66-0.33-1.021-0.43V116h-2v2.14c-0.36,0.1-0.7,0.24-1.02,0.43l-1.52-1.52
		l-1.41,1.41l1.52,1.52c-0.19,0.32-0.33,0.66-0.43,1.02H12v2h2.14c0.1,0.36,0.24,0.7,0.43,1.02l-1.52,1.52l1.41,1.41l1.52-1.52
		c0.32,0.19,0.66,0.33,1.02,0.43V128h2v-2.14c0.359-0.1,0.7-0.24,1.02-0.43l1.521,1.52l1.41-1.41l-1.521-1.52
		c0.189-0.32,0.33-0.66,0.43-1.02H24z"/>
</g>
<g>
	<path fill="#151515" d="M15,487.5c-2.49,0-4.5-2.01-4.5-4.5s2.01-4.5,4.5-4.5s4.5,2.01,4.5,4.5S17.49,487.5,15,487.5z M15,477
		c-3.31,0-6,2.689-6,6s2.69,6,6,6c3.311,0,6-2.689,6-6S18.31,477,15,477z"/>
	<path fill="#151515" d="M19.859,488.891c-0.26,0.266-0.26,0.67,0,0.937l2.99,2.983c0.25,0.25,0.67,0.25,0.92,0l1.041-1.041
		c0.25-0.25,0.25-0.67,0-0.92l-2.99-2.984c-0.26-0.266-0.67-0.266-0.93,0L19.859,488.891z"/>
	
		<rect x="17.798" y="487.445" transform="matrix(0.7072 0.707 -0.707 0.7072 350.7858 128.7692)" fill="#151515" width="4.242" height="0.947"/>
</g>
<g>
	<path fill="#333333" d="M26.779,427.938c0.85,0.842,1.346,1.312,2.221,1.312H9c1.21,0,1.37-0.471,2.22-1.312l6.17-6.038
		c1.61-1.524,1.61-1.524,3.219,0L26.779,427.938z"/>
</g>
<g>
	<path fill="#F6F6F6" d="M26.779,457.938c0.85,0.842,1.346,1.312,2.221,1.312H9c1.21,0,1.37-0.471,2.22-1.312l6.17-6.038
		c1.61-1.524,1.61-1.524,3.219,0L26.779,457.938z"/>
</g>
<g>
	<path fill="#FFFFFF" d="M26.779,447.938c0.85,0.842,1.346,1.312,2.221,1.312H9c1.21,0,1.37-0.471,2.22-1.312l6.17-6.038
		c1.61-1.524,1.61-1.524,3.219,0L26.779,447.938z"/>
</g>
<g opacity="0.5">
	<polygon fill="#FFFFFF" points="18.5,358 18.5,368 13.5,363 	"/>
</g>
<path fill="#121212" d="M21,264.221l2.629,4.279H18.37L21,264.221z M21,258.5l-8,13h16L21,258.5z"/>
<polygon opacity="0.5" fill="#FFFFFF" enable-background="new    " points="12.5,564 15.109,561.33 18.37,564.67 24.891,558 
	27.5,560.67 18.37,570 "/>
<g>
	<path fill="#333333" d="M26.779,626.691c0.851,0.84,2.011,1.311,3.221,1.311H8c1.21,0,2.37-0.471,3.22-1.311l6.17-6.039
		c0.89-0.871,2.331-0.871,3.219,0L26.779,626.691z"/>
</g>
<g>
	<path fill="#111111" d="M23,20.52c0,0.27-0.21,0.48-0.471,0.48h-2.021c-0.26,0-0.47-0.21-0.47-0.48v-6.27
		c0-0.06-0.067-0.08-0.103-0.05l-4.271,4.32c-0.37,0.38-0.97,0.38-1.34,0l-4.27-4.32c-0.031-0.03-0.101-0.01-0.101,0.05v6.27
		c0,0.27-0.21,0.48-0.47,0.48h-2.02C7.21,21,7,20.79,7,20.52V9.48C7,9.21,7.21,9,7.471,9H8.86c0.25,0,0.49,0.1,0.67,0.28l5.301,5.37
		c0.09,0.09,0.25,0.09,0.34,0l5.302-5.37C20.65,9.1,20.891,9,21.141,9h1.389C22.79,9,23,9.21,23,9.48V20.52z"/>
</g>
<g>
	<path fill="#FFFFFF" d="M23,50.52c0,0.27-0.21,0.48-0.471,0.48h-2.021c-0.26,0-0.47-0.21-0.47-0.48v-6.27
		c0-0.06-0.067-0.08-0.103-0.05l-4.271,4.32c-0.37,0.38-0.97,0.38-1.34,0l-4.27-4.32c-0.031-0.03-0.101-0.01-0.101,0.05v6.27
		c0,0.27-0.21,0.48-0.47,0.48h-2.02C7.21,51,7,50.79,7,50.52V39.48C7,39.21,7.21,39,7.471,39H8.86c0.25,0,0.49,0.1,0.67,0.28
		l5.301,5.37c0.09,0.09,0.25,0.09,0.34,0l5.302-5.37c0.18-0.18,0.42-0.28,0.67-0.28h1.392C22.79,39,23,39.21,23,39.48V50.52z"/>
</g>
<polygon opacity="0.5" fill="#FFFFFF" enable-background="new    " points="9.5,679 12.109,676.33 15.37,679.67 21.891,673 
	24.5,675.67 15.37,685 "/>
<circle opacity="0.3" fill="#FFFFFF" enable-background="new    " cx="19" cy="747" r="8"/>
<g>
	<path fill="#333333" d="M22,749.57v-2.791c0-0.079-0.109-0.119-0.17-0.061l-2.18,2.17c-0.103,0.08-0.221,0.13-0.36,0.13h-0.58
		c-0.14,0-0.26-0.05-0.36-0.13l-2.18-2.17c-0.06-0.06-0.17-0.02-0.17,0.061v2.791c0,0.239-0.22,0.43-0.5,0.43h-1
		c-0.28,0-0.5-0.189-0.5-0.43v-5.143c0-0.238,0.22-0.43,0.5-0.43h1.29c0.14,0,0.26,0.05,0.36,0.13l2.67,2.29
		c0.1,0.08,0.26,0.08,0.359,0l2.67-2.29c0.101-0.08,0.221-0.13,0.358-0.13h1.29c0.279,0,0.5,0.188,0.5,0.43v5.143
		c0,0.239-0.221,0.43-0.5,0.43h-1C22.221,750,22,749.811,22,749.57z"/>
</g>
<circle fill="#FFFFFF" cx="19" cy="907" r="12"/>
<g>
	<g>
		<path fill="#333333" d="M18.35,907.91c-0.34-0.24-1.01-0.82-1.01-1.16c0-0.4,0.12-0.59,0.74-1.061
			c0.63-0.479,1.08-1.16,1.08-1.939c0-0.939-0.43-1.85-1.23-2.15h1.21L20,901h-3.83c-1.72,0-3.34,1.26-3.34,2.721
			c0,1.5,1.17,2.699,2.92,2.699l0.359-0.01c-0.119,0.21-0.199,0.449-0.199,0.699c0,0.408,0.23,0.75,0.52,1.021l-0.66,0.011
			c-2.129,0-3.77,1.319-3.77,2.682c0,1.34,1.8,2.18,3.93,2.18c2.42,0,3.759-1.33,3.759-2.68C19.689,909.25,19.37,908.6,18.35,907.91
			z M16.3,906.05c-0.979-0.03-1.92-1.079-2.09-2.329c-0.17-1.261,0.49-2.221,1.479-2.189c0.98,0.021,1.92,1.029,2.09,2.291
			C17.95,905.08,17.29,906.07,16.3,906.05z M15.92,912.41c-1.47,0-2.54-0.91-2.54-1.99c0-1.061,1.32-1.949,2.79-1.93
			c0.35,0,0.67,0.05,0.96,0.14c0.8,0.54,1.37,0.852,1.53,1.46c0.029,0.131,0.05,0.25,0.05,0.381
			C18.71,911.561,17.99,912.41,15.92,912.41z"/>
		<path fill="#333333" d="M18.35,907.91c-0.34-0.24-1.01-0.82-1.01-1.16c0-0.4,0.12-0.59,0.74-1.061
			c0.63-0.479,1.08-1.16,1.08-1.939c0-0.939-0.43-1.85-1.23-2.15h1.21L20,901h-3.83c-1.72,0-3.34,1.26-3.34,2.721
			c0,1.5,1.17,2.699,2.92,2.699l0.359-0.01c-0.119,0.21-0.199,0.449-0.199,0.699c0,0.408,0.23,0.75,0.52,1.021l-0.66,0.011
			c-2.129,0-3.77,1.319-3.77,2.682c0,1.34,1.8,2.18,3.93,2.18c2.42,0,3.759-1.33,3.759-2.68C19.689,909.25,19.37,908.6,18.35,907.91
			z M16.3,906.05c-0.979-0.03-1.92-1.079-2.09-2.329c-0.17-1.261,0.49-2.221,1.479-2.189c0.98,0.021,1.92,1.029,2.09,2.291
			C17.95,905.08,17.29,906.07,16.3,906.05z M15.92,912.41c-1.47,0-2.54-0.91-2.54-1.99c0-1.061,1.32-1.949,2.79-1.93
			c0.35,0,0.67,0.05,0.96,0.14c0.8,0.54,1.37,0.852,1.53,1.46c0.029,0.131,0.05,0.25,0.05,0.381
			C18.71,911.561,17.99,912.41,15.92,912.41z"/>
	</g>
	<rect x="22" y="906" fill="#333333" width="5" height="1"/>
	<rect x="24" y="904" fill="#333333" width="1" height="5"/>
</g>
<circle fill="#FFFFFF" cx="19" cy="827" r="12"/>
<g>
	<path fill="#333333" d="M26.5,822.42c-0.52,0.24-1.09,0.4-1.68,0.48c0.6-0.382,1.07-0.973,1.289-1.682
		c-0.569,0.352-1.189,0.602-1.859,0.739c-0.529-0.59-1.29-0.96-2.13-0.96c-1.62,0-2.931,1.357-2.931,3.029
		c0,0.238,0.028,0.471,0.08,0.689c-2.432-0.131-4.589-1.33-6.029-3.171c-0.25,0.45-0.39,0.97-0.39,1.53c0,1.05,0.51,1.979,1.3,2.52
		c-0.48-0.02-0.93-0.147-1.33-0.379v0.039c0,1.471,1.01,2.69,2.35,2.971c-0.25,0.069-0.51,0.102-0.77,0.102
		c-0.19,0-0.37-0.011-0.55-0.052c0.37,1.2,1.45,2.079,2.73,2.102c-1,0.82-2.26,1.3-3.63,1.3c-0.24,0-0.47-0.01-0.7-0.039
		c1.29,0.86,2.83,1.36,4.48,1.36c5.379,0,8.32-4.62,8.32-8.62l-0.01-0.39C25.609,823.561,26.109,823.029,26.5,822.42z"/>
</g>
<circle fill="#FFFFFF" cx="19" cy="867" r="12"/>
<g>
	<path fill="#333333" d="M19.779,873.75v-5.98H18.25v-2.158h1.529v-1.842c0-1.438,0.91-2.77,2.99-2.77
		c0.851,0,1.471,0.08,1.471,0.08l-0.051,2.02l-1.33-0.01c-0.75,0-0.869,0.36-0.869,0.95v1.569h2.26l-0.1,2.159h-2.16v5.979
		L19.779,873.75L19.779,873.75z"/>
</g>
<g>
	<rect x="12" y="67" fill="#111111" width="12" height="2"/>
	<rect x="12" y="71" fill="#111111" width="12" height="2"/>
	<rect x="12" y="75" fill="#111111" width="12" height="2"/>
</g>
<g>
	<path fill="#000101" d="M26.73,219.85l-0.74-0.41c-0.49-0.27-0.801-0.74-0.801-1.24c0-0.54,0-1.09,0-1.64
		c0-2.2-0.91-4.85-3.209-5.44c0-0.04,0.02-0.08,0.02-0.12c0-0.55-0.45-1-1-1s-1,0.45-1,1c0,0.04,0.02,0.08,0.02,0.12
		c-2.279,0.59-3.22,3.24-3.22,5.44c0,0.55,0.01,1.1,0.01,1.64c-0.01,0.5-0.31,0.97-0.8,1.24l-0.74,0.41
		c-0.17,0.09-0.27,0.25-0.27,0.42V221h12v-0.73C27,220.1,26.9,219.94,26.73,219.85z"/>
	<path fill="#000101" d="M21,224c1.1,0,2-0.89,2-2h-4C19,223.11,19.9,224,21,224z"/>
</g>
<g opacity="0.3">
	<path fill="#000101" d="M24.73,529.35l-0.74-0.41c-0.49-0.27-0.801-0.739-0.801-1.239c0-0.54,0-1.09,0-1.64
		c0-2.2-0.91-4.851-3.209-5.44c0-0.04,0.02-0.08,0.02-0.12c0-0.55-0.45-1-1-1s-1,0.45-1,1c0,0.04,0.02,0.08,0.02,0.12
		c-2.28,0.59-3.22,3.24-3.22,5.44c0,0.55,0.01,1.1,0.01,1.64c-0.01,0.5-0.31,0.97-0.8,1.239l-0.74,0.41
		c-0.17,0.09-0.27,0.25-0.27,0.42v0.73h12v-0.73C25,529.6,24.9,529.439,24.73,529.35z"/>
	<path fill="#000101" d="M19,533.5c1.1,0,2-0.891,2-2h-4C17,532.609,17.9,533.5,19,533.5z"/>
</g>
<g>
	<path fill="#FFFFFF" d="M26.73,955.85l-0.74-0.41c-0.49-0.27-0.801-0.739-0.801-1.239c0-0.54,0-1.09,0-1.64
		c0-2.2-0.91-4.851-3.209-5.44c0-0.04,0.02-0.08,0.02-0.12c0-0.55-0.45-1-1-1s-1,0.45-1,1c0,0.04,0.02,0.08,0.02,0.12
		c-2.279,0.59-3.22,3.24-3.22,5.44c0,0.55,0.01,1.1,0.01,1.64c-0.01,0.5-0.31,0.97-0.8,1.239l-0.74,0.41
		c-0.17,0.09-0.27,0.25-0.27,0.42V957h12v-0.73C27,956.1,26.9,955.939,26.73,955.85z"/>
	<path fill="#FFFFFF" d="M21,960c1.1,0,2-0.891,2-2h-4C19,959.109,19.9,960,21,960z"/>
</g>
</svg>
