<?xml version="1.0" encoding="utf-8"?>
<!-- Generator: Adobe Illustrator 16.0.0, SVG Export Plug-In . SVG Version: 6.00 Build 0)  -->
<!DOCTYPE svg PUBLIC "-//W3C//DTD SVG 1.1//EN" "http://www.w3.org/Graphics/SVG/1.1/DTD/svg11.dtd">
<svg version="1.1" id="Layer_1" xmlns="http://www.w3.org/2000/svg" xmlns:xlink="http://www.w3.org/1999/xlink" x="0px" y="0px"
	 width="36px" height="1000px" viewBox="0 0 36 1000" enable-background="new 0 0 36 1000" xml:space="preserve">
<g>
	<path opacity="0.7" fill="#151515" enable-background="new    " d="M28.98,172.279c-0.41-0.109-0.74-0.42-0.727-0.859
		c0.016-0.1,0.08-0.18,0.146-0.22c0.92-0.53,1.57-1.35,1.6-2.42c0.049-2.18-1.859-3.812-3.881-4.39c0.08,1.58-0.35,3.05-1.279,4.23
		c-0.82,1.05-1.961,1.8-3.311,2.23c0.711,0.66,1.691,1.07,2.83,1.16c0.646,0.04,1.32,0,1.979-0.09c0.73,0.59,1.762,0.62,2.633,0.561
		C29.25,172.46,29.189,172.34,28.98,172.279z"/>
	<path fill="#151515" d="M24.709,163.4c-0.709-3.31-3.93-4.4-7.06-3.7c-2.86,0.65-5.73,2.91-5.65,5.99
		c0.04,1.41,0.91,2.51,2.14,3.22c0.08,0.06,0.17,0.16,0.18,0.3c0.03,0.58-0.42,0.99-0.97,1.14c-0.28,0.08-0.34,0.24,0.02,0.26
		c1.17,0.08,2.54,0.04,3.5-0.74c0.9,0.11,1.779,0.18,2.65,0.12C23.109,169.72,25.49,167.02,24.709,163.4z"/>
</g>
<path fill="#151515" d="M13,218.029c0,1.91,1.48,3.471,3.29,3.471h0.08h9.339c1.811,0,3.291-1.561,3.291-3.471
	c0-1.859-1.391-3.389-3.141-3.469v-0.011c0-2.239-1.719-4.05-3.84-4.05c-1.369,0-2.58,0.76-3.25,1.9
	c-0.23-0.101-0.48-0.16-0.75-0.16c-1.041,0-1.88,0.89-1.88,1.979c0,0.119,0,0.229,0.02,0.34C14.399,214.62,13,216.15,13,218.029z"/>
<g>
	<path d="M18,74c-1.1,0-2-0.9-2-2s0.9-2,2-2c1.1,0,2,0.9,2,2S19.1,74,18,74z M24,73v-2h-2.141c-0.104-0.36-0.24-0.7-0.43-1.02
		l1.52-1.52l-1.41-1.41l-1.52,1.52c-0.32-0.19-0.66-0.33-1.021-0.43V66h-2v2.14c-0.36,0.1-0.7,0.24-1.02,0.43l-1.52-1.52l-1.41,1.41
		l1.52,1.52c-0.19,0.32-0.33,0.66-0.43,1.02H12v2h2.14c0.1,0.36,0.24,0.7,0.43,1.02l-1.52,1.52l1.41,1.41l1.52-1.52
		c0.32,0.19,0.66,0.33,1.02,0.43V78h2v-2.14c0.359-0.1,0.7-0.24,1.02-0.43l1.521,1.52l1.41-1.41l-1.521-1.52
		c0.189-0.32,0.33-0.66,0.43-1.02H24z"/>
	<path d="M18,124c-1.1,0-2-0.9-2-2s0.9-2,2-2c1.1,0,2,0.9,2,2S19.1,124,18,124z M24,123v-2h-2.141c-0.104-0.36-0.24-0.7-0.43-1.02
		l1.52-1.52l-1.41-1.41l-1.52,1.52c-0.32-0.19-0.66-0.33-1.021-0.43V116h-2v2.14c-0.36,0.1-0.7,0.24-1.02,0.43l-1.52-1.52
		l-1.41,1.41l1.52,1.52c-0.19,0.32-0.33,0.66-0.43,1.02H12v2h2.14c0.1,0.36,0.24,0.7,0.43,1.02l-1.52,1.52l1.41,1.41l1.52-1.52
		c0.32,0.19,0.66,0.33,1.02,0.43V128h2v-2.14c0.359-0.1,0.7-0.24,1.02-0.43l1.521,1.52l1.41-1.41l-1.521-1.52
		c0.189-0.32,0.33-0.66,0.43-1.02H24z"/>
</g>
<g>
	<path fill="#151515" d="M15,487.5c-2.49,0-4.5-2.01-4.5-4.5s2.01-4.5,4.5-4.5s4.5,2.01,4.5,4.5S17.49,487.5,15,487.5z M15,477
		c-3.31,0-6,2.689-6,6s2.69,6,6,6c3.311,0,6-2.689,6-6S18.31,477,15,477z"/>
	<path fill="#151515" d="M19.859,488.891c-0.26,0.264-0.26,0.67,0,0.935l2.99,2.985c0.25,0.25,0.67,0.25,0.92,0l1.041-1.041
		c0.25-0.25,0.25-0.67,0-0.92l-2.99-2.986c-0.26-0.264-0.67-0.264-0.93,0L19.859,488.891z"/>
	
		<rect x="17.769" y="487.418" transform="matrix(0.7072 0.707 -0.707 0.7072 350.7874 128.809)" fill="#151515" width="4.242" height="0.947"/>
</g>
<g>
	<path fill="#333333" d="M26.779,427.938c0.85,0.84,1.346,1.311,2.221,1.311H9c1.21,0,1.37-0.471,2.22-1.311l6.17-6.039
		c1.61-1.525,1.61-1.525,3.219,0L26.779,427.938z"/>
</g>
<g>
	<path fill="#F6F6F6" d="M26.779,457.938c0.85,0.84,1.346,1.311,2.221,1.311H9c1.21,0,1.37-0.471,2.22-1.311l6.17-6.039
		c1.61-1.525,1.61-1.525,3.219,0L26.779,457.938z"/>
</g>
<g>
	<path fill="#FFFFFF" d="M26.779,447.938c0.85,0.84,1.346,1.311,2.221,1.311H9c1.21,0,1.37-0.471,2.22-1.311l6.17-6.039
		c1.61-1.525,1.61-1.525,3.219,0L26.779,447.938z"/>
</g>
<g opacity="0.5">
	<polygon fill="#FFFFFF" points="18.5,358 18.5,368 13.5,363 	"/>
</g>
<path fill="#121212" d="M21,264.221l2.629,4.279H18.37L21,264.221z M21,258.5l-8,13h16L21,258.5z"/>
<polygon opacity="0.5" fill="#FFFFFF" enable-background="new    " points="12.5,564 15.109,561.33 18.37,564.67 24.891,558 
	27.5,560.67 18.37,570 "/>
<path opacity="0.3" fill="#010101" enable-background="new    " d="M11,529.031c0,1.91,1.48,3.471,3.29,3.471h0.08h9.339
	c1.811,0,3.291-1.561,3.291-3.471c0-1.859-1.391-3.394-3.141-3.474v-0.01c0-2.24-1.719-4.051-3.84-4.051
	c-1.371,0-2.583,0.76-3.25,1.899c-0.229-0.104-0.479-0.159-0.75-0.159c-1.039,0-1.879,0.891-1.879,1.979c0,0.119,0,0.23,0.02,0.342
	C12.4,525.621,11,527.152,11,529.031z"/>
<g>
	<path fill="#333333" d="M26.779,626.691c0.851,0.84,2.011,1.311,3.221,1.311H8c1.21,0,2.37-0.471,3.22-1.311l6.17-6.039
		c0.89-0.871,2.331-0.871,3.219,0L26.779,626.691z"/>
</g>
<g>
	<path fill="#111111" d="M23,20.52c0,0.27-0.21,0.48-0.471,0.48h-2.021c-0.26,0-0.47-0.21-0.47-0.48v-6.27
		c0-0.06-0.067-0.08-0.103-0.05l-4.27,4.32c-0.37,0.38-0.97,0.38-1.34,0l-4.27-4.32c-0.031-0.03-0.101-0.01-0.101,0.05v6.27
		c0,0.27-0.21,0.48-0.47,0.48h-2.02C7.21,21,7,20.79,7,20.52V9.48C7,9.21,7.21,9,7.471,9H8.86c0.25,0,0.49,0.1,0.67,0.28l5.301,5.37
		c0.09,0.09,0.25,0.09,0.34,0l5.302-5.37C20.65,9.1,20.891,9,21.141,9h1.389C22.79,9,23,9.21,23,9.48V20.52z"/>
</g>
<g>
	<path fill="#FFFFFF" d="M23,50.52c0,0.27-0.21,0.48-0.471,0.48h-2.021c-0.26,0-0.47-0.21-0.47-0.48v-6.27
		c0-0.06-0.067-0.08-0.103-0.05l-4.27,4.32c-0.37,0.38-0.97,0.38-1.34,0l-4.27-4.32c-0.031-0.03-0.101-0.01-0.101,0.05v6.27
		c0,0.27-0.21,0.48-0.47,0.48h-2.02C7.21,51,7,50.79,7,50.52V39.48C7,39.21,7.21,39,7.471,39H8.86c0.25,0,0.49,0.1,0.67,0.28
		l5.301,5.37c0.09,0.09,0.25,0.09,0.34,0l5.302-5.37c0.18-0.18,0.42-0.28,0.67-0.28h1.39C22.79,39,23,39.21,23,39.48V50.52z"/>
</g>
<polygon opacity="0.5" fill="#FFFFFF" enable-background="new    " points="9.5,679 12.109,676.33 15.37,679.67 21.891,673 
	24.5,675.67 15.37,685 "/>
<circle opacity="0.3" fill="#FFFFFF" cx="19" cy="747" r="8"/>
<g>
	<path fill="#333333" d="M22,749.57v-2.791c0-0.079-0.11-0.119-0.17-0.059l-2.18,2.17c-0.101,0.08-0.221,0.129-0.36,0.129h-0.58
		c-0.14,0-0.26-0.049-0.36-0.129l-2.18-2.17C16.11,746.66,16,746.7,16,746.779v2.791c0,0.24-0.22,0.43-0.5,0.43h-1
		c-0.28,0-0.5-0.189-0.5-0.43v-5.141c0-0.24,0.22-0.43,0.5-0.43h1.29c0.14,0,0.26,0.05,0.36,0.13l2.67,2.29
		c0.1,0.08,0.26,0.08,0.359,0l2.67-2.29c0.101-0.08,0.221-0.13,0.36-0.13h1.29c0.28,0,0.5,0.189,0.5,0.43v5.141
		c0,0.24-0.22,0.43-0.5,0.43h-1C22.22,750,22,749.811,22,749.57z"/>
</g>
<circle fill-rule="evenodd" clip-rule="evenodd" fill="#FFFFFF" cx="19" cy="907" r="12"/>
<g>
	<g>
		<path fill-rule="evenodd" clip-rule="evenodd" fill="#333333" d="M18.35,907.91c-0.34-0.24-1.01-0.82-1.01-1.16
			c0-0.4,0.12-0.59,0.74-1.061c0.63-0.479,1.08-1.16,1.08-1.939c0-0.939-0.43-1.85-1.23-2.15h1.211L20,901h-3.83
			c-1.72,0-3.34,1.26-3.34,2.721c0,1.5,1.17,2.699,2.92,2.699l0.359-0.01c-0.119,0.21-0.199,0.449-0.199,0.699
			c0,0.41,0.23,0.75,0.52,1.021l-0.66,0.011c-2.129,0-3.77,1.319-3.77,2.68c0,1.34,1.8,2.18,3.93,2.18c2.42,0,3.76-1.33,3.76-2.68
			C19.689,909.25,19.37,908.6,18.35,907.91z M16.3,906.05c-0.979-0.03-1.92-1.079-2.09-2.329c-0.17-1.261,0.49-2.221,1.479-2.191
			c0.98,0.021,1.92,1.031,2.09,2.291C17.95,905.08,17.29,906.07,16.3,906.05z M15.92,912.41c-1.47,0-2.54-0.91-2.54-1.99
			c0-1.061,1.32-1.949,2.79-1.93c0.35,0,0.67,0.05,0.96,0.14c0.8,0.54,1.37,0.851,1.53,1.46c0.029,0.131,0.05,0.25,0.05,0.381
			C18.71,911.561,17.99,912.41,15.92,912.41z"/>
		<path fill-rule="evenodd" clip-rule="evenodd" fill="#333333" d="M18.35,907.91c-0.34-0.24-1.01-0.82-1.01-1.16
			c0-0.4,0.12-0.59,0.74-1.061c0.63-0.479,1.08-1.16,1.08-1.939c0-0.939-0.43-1.85-1.23-2.15h1.211L20,901h-3.83
			c-1.72,0-3.34,1.26-3.34,2.721c0,1.5,1.17,2.699,2.92,2.699l0.359-0.01c-0.119,0.21-0.199,0.449-0.199,0.699
			c0,0.41,0.23,0.75,0.52,1.021l-0.66,0.011c-2.129,0-3.77,1.319-3.77,2.68c0,1.34,1.8,2.18,3.93,2.18c2.42,0,3.76-1.33,3.76-2.68
			C19.689,909.25,19.37,908.6,18.35,907.91z M16.3,906.05c-0.979-0.03-1.92-1.079-2.09-2.329c-0.17-1.261,0.49-2.221,1.479-2.191
			c0.98,0.021,1.92,1.031,2.09,2.291C17.95,905.08,17.29,906.07,16.3,906.05z M15.92,912.41c-1.47,0-2.54-0.91-2.54-1.99
			c0-1.061,1.32-1.949,2.79-1.93c0.35,0,0.67,0.05,0.96,0.14c0.8,0.54,1.37,0.851,1.53,1.46c0.029,0.131,0.05,0.25,0.05,0.381
			C18.71,911.561,17.99,912.41,15.92,912.41z"/>
	</g>
	<rect x="22" y="906" fill-rule="evenodd" clip-rule="evenodd" fill="#333333" width="5" height="1"/>
	<rect x="24" y="904" fill-rule="evenodd" clip-rule="evenodd" fill="#333333" width="1" height="5"/>
</g>
<circle fill-rule="evenodd" clip-rule="evenodd" fill="#FFFFFF" cx="19" cy="827" r="12"/>
<g>
	<path fill="#333333" d="M26.5,822.42c-0.52,0.24-1.09,0.4-1.68,0.48c0.6-0.381,1.07-0.971,1.289-1.68
		c-0.569,0.35-1.189,0.6-1.859,0.739c-0.53-0.59-1.29-0.96-2.13-0.96c-1.62,0-2.931,1.359-2.931,3.029c0,0.24,0.03,0.471,0.08,0.691
		c-2.43-0.131-4.589-1.33-6.029-3.171c-0.25,0.45-0.39,0.97-0.39,1.53c0,1.05,0.51,1.98,1.3,2.52c-0.48-0.02-0.93-0.149-1.33-0.379
		v0.039c0,1.471,1.01,2.69,2.35,2.971c-0.25,0.069-0.51,0.1-0.77,0.1c-0.19,0-0.37-0.01-0.55-0.051c0.37,1.201,1.45,2.08,2.73,2.101
		c-1,0.82-2.26,1.3-3.63,1.3c-0.24,0-0.47-0.01-0.7-0.039C13.54,832.5,15.08,833,16.73,833c5.379,0,8.32-4.62,8.32-8.62l-0.01-0.39
		C25.609,823.561,26.109,823.029,26.5,822.42z"/>
</g>
<circle fill-rule="evenodd" clip-rule="evenodd" fill="#FFFFFF" cx="19" cy="867" r="12"/>
<g>
	<path fill="#333333" d="M19.779,873.75v-5.98H18.25v-2.16h1.529v-1.84c0-1.439,0.91-2.77,2.99-2.77c0.851,0,1.471,0.08,1.471,0.08
		l-0.051,2.02l-1.33-0.01c-0.75,0-0.869,0.36-0.869,0.95v1.569h2.26l-0.1,2.16h-2.16v5.98H19.779z"/>
</g>
</svg>
