<?xml version="1.0" encoding="utf-8"?>
<!-- Generator: Adobe Illustrator 19.0.0, SVG Export Plug-In . SVG Version: 6.00 Build 0)  -->
<svg version="1.1" id="Layer_1" xmlns:sketch="http://www.bohemiancoding.com/sketch/ns"
	 xmlns="http://www.w3.org/2000/svg" xmlns:xlink="http://www.w3.org/1999/xlink" x="0px" y="0px" width="36px" height="1198px"
	 viewBox="-287 -104 36 1198" style="enable-background:new -287 -104 36 1198;" xml:space="preserve">
<style type="text/css">
	.st0{opacity:0.7;fill:#151515;enable-background:new    ;}
	.st1{fill:#151515;}
	.st2{fill:#333333;}
	.st3{fill:#F6F6F6;}
	.st4{fill:#FFFFFF;}
	.st5{opacity:0.5;}
	.st6{fill:#121212;}
	.st7{opacity:0.5;fill:#FFFFFF;enable-background:new    ;}
	.st8{opacity:0.3;fill:#FFFFFF;enable-background:new    ;}
	.st9{fill:#111111;}
	.st10{fill:#000101;}
	.st11{opacity:0.3;}
	.st12{opacity:0.7;}
	.st13{fill:#D90007;}
	.st14{fill:#848484;}
</style>
<g>
	<path class="st0" d="M-258,68.3c-0.4-0.1-0.7-0.4-0.7-0.9c0-0.1,0.1-0.2,0.1-0.2c0.9-0.5,1.6-1.4,1.6-2.4c0-2.2-1.9-3.8-3.9-4.4
		c0.1,1.6-0.4,3.1-1.3,4.2c-0.8,1.1-2,1.8-3.3,2.2c0.7,0.7,1.7,1.1,2.8,1.2c0.6,0,1.3,0,2-0.1c0.7,0.6,1.8,0.6,2.6,0.6
		C-257.8,68.5-257.8,68.3-258,68.3z"/>
	<path class="st1" d="M-262.3,59.4c-0.7-3.3-3.9-4.4-7.1-3.7c-2.9,0.6-5.7,2.9-5.6,6c0,1.4,0.9,2.5,2.1,3.2c0.1,0.1,0.2,0.2,0.2,0.3
		c0,0.6-0.4,1-1,1.1c-0.3,0.1-0.3,0.2,0,0.3c1.2,0.1,2.5,0,3.5-0.7c0.9,0.1,1.8,0.2,2.7,0.1C-263.9,65.7-261.5,63-262.3,59.4z"/>
</g>
<g>
	<path d="M-269,20c-1.1,0-2-0.9-2-2s0.9-2,2-2s2,0.9,2,2S-267.9,20-269,20z M-263,19v-2h-2.1c-0.1-0.4-0.2-0.7-0.4-1l1.5-1.5
		l-1.4-1.4l-1.5,1.5c-0.3-0.2-0.7-0.3-1-0.4V12h-2v2.1c-0.4,0.1-0.7,0.2-1,0.4l-1.5-1.5l-1.4,1.4l1.5,1.5c-0.2,0.3-0.3,0.7-0.4,1
		h-2.1v2h2.1c0.1,0.4,0.2,0.7,0.4,1l-1.5,1.5l1.4,1.4l1.5-1.5c0.3,0.2,0.7,0.3,1,0.4V24h2v-2.1c0.4-0.1,0.7-0.2,1-0.4l1.5,1.5
		l1.4-1.4l-1.5-1.5c0.2-0.3,0.3-0.7,0.4-1h2.1V19z"/>
</g>
<g>
	<path class="st1" d="M-272,383.5c-2.5,0-4.5-2-4.5-4.5s2-4.5,4.5-4.5s4.5,2,4.5,4.5S-269.5,383.5-272,383.5z M-272,373
		c-3.3,0-6,2.7-6,6s2.7,6,6,6s6-2.7,6-6S-268.7,373-272,373z"/>
	<path class="st1" d="M-267.1,384.9c-0.3,0.3-0.3,0.7,0,0.9l3,3c0.2,0.2,0.7,0.2,0.9,0l1-1c0.2-0.2,0.2-0.7,0-0.9l-3-3
		c-0.3-0.3-0.7-0.3-0.9,0L-267.1,384.9z"/>
	
		<rect x="-269.2" y="383.5" transform="matrix(0.7072 0.707 -0.707 0.7072 193.2715 301.2749)" class="st1" width="4.2" height="0.9"/>
</g>
<g>
	<path class="st2" d="M-260.2,323.9c0.9,0.8,1.3,1.3,2.2,1.3h-20c1.2,0,1.4-0.5,2.2-1.3l6.2-6c1.6-1.5,1.6-1.5,3.2,0L-260.2,323.9z"
		/>
</g>
<g>
	<path class="st3" d="M-260.2,353.9c0.9,0.8,1.3,1.3,2.2,1.3h-20c1.2,0,1.4-0.5,2.2-1.3l6.2-6c1.6-1.5,1.6-1.5,3.2,0L-260.2,353.9z"
		/>
</g>
<g>
	<path class="st4" d="M-260.2,343.9c0.9,0.8,1.3,1.3,2.2,1.3h-20c1.2,0,1.4-0.5,2.2-1.3l6.2-6c1.6-1.5,1.6-1.5,3.2,0L-260.2,343.9z"
		/>
</g>
<g class="st5">
	<polygon class="st4" points="-268.5,254 -268.5,264 -273.5,259 	"/>
</g>
<path class="st6" d="M-266,160.2l2.6,4.3h-5.3L-266,160.2z M-266,154.5l-8,13h16L-266,154.5z"/>
<polygon class="st7" points="-274.5,460 -271.9,457.3 -268.6,460.7 -262.1,454 -259.5,456.7 -268.6,466 "/>
<g>
	<path class="st2" d="M-260.2,522.7c0.9,0.8,2,1.3,3.2,1.3h-22c1.2,0,2.4-0.5,3.2-1.3l6.2-6c0.9-0.9,2.3-0.9,3.2,0L-260.2,522.7z"/>
</g>
<polygon class="st7" points="-277.5,575 -274.9,572.3 -271.6,575.7 -265.1,569 -262.5,571.7 -271.6,581 "/>
<circle class="st8" cx="-268" cy="643" r="8"/>
<g>
	<path class="st2" d="M-265,645.6v-2.8c0-0.1-0.1-0.1-0.2-0.1l-2.2,2.2c-0.1,0.1-0.2,0.1-0.4,0.1h-0.6c-0.1,0-0.3,0-0.4-0.1
		l-2.2-2.2c-0.1-0.1-0.2,0-0.2,0.1v2.8c0,0.2-0.2,0.4-0.5,0.4h-1c-0.3,0-0.5-0.2-0.5-0.4v-5.1c0-0.2,0.2-0.4,0.5-0.4h1.3
		c0.1,0,0.3,0,0.4,0.1l2.7,2.3c0.1,0.1,0.3,0.1,0.4,0l2.7-2.3c0.1-0.1,0.2-0.1,0.4-0.1h1.3c0.3,0,0.5,0.2,0.5,0.4v5.1
		c0,0.2-0.2,0.4-0.5,0.4h-1C-264.8,646-265,645.8-265,645.6z"/>
</g>
<circle class="st4" cx="-268" cy="803" r="12"/>
<g>
	<g>
		<path class="st2" d="M-268.6,803.9c-0.3-0.2-1-0.8-1-1.2s0.1-0.6,0.7-1.1s1.1-1.2,1.1-1.9c0-0.9-0.4-1.8-1.2-2.2h1.2l0.9-0.6h-3.8
			c-1.7,0-3.3,1.3-3.3,2.7c0,1.5,1.2,2.7,2.9,2.7h0.4c-0.1,0.2-0.2,0.4-0.2,0.7c0,0.4,0.2,0.8,0.5,1h-0.7c-2.1,0-3.8,1.3-3.8,2.7
			c0,1.3,1.8,2.2,3.9,2.2c2.4,0,3.8-1.3,3.8-2.7C-267.3,805.2-267.6,804.6-268.6,803.9z M-270.7,802c-1,0-1.9-1.1-2.1-2.3
			c-0.2-1.3,0.5-2.2,1.5-2.2s1.9,1,2.1,2.3S-269.7,802.1-270.7,802z M-271.1,808.4c-1.5,0-2.5-0.9-2.5-2s1.3-1.9,2.8-1.9
			c0.3,0,0.7,0,1,0.1c0.8,0.5,1.4,0.9,1.5,1.5c0,0.1,0,0.2,0,0.4C-268.3,807.6-269,808.4-271.1,808.4z"/>
		<path class="st2" d="M-268.6,803.9c-0.3-0.2-1-0.8-1-1.2s0.1-0.6,0.7-1.1s1.1-1.2,1.1-1.9c0-0.9-0.4-1.8-1.2-2.2h1.2l0.9-0.6h-3.8
			c-1.7,0-3.3,1.3-3.3,2.7c0,1.5,1.2,2.7,2.9,2.7h0.4c-0.1,0.2-0.2,0.4-0.2,0.7c0,0.4,0.2,0.8,0.5,1h-0.7c-2.1,0-3.8,1.3-3.8,2.7
			c0,1.3,1.8,2.2,3.9,2.2c2.4,0,3.8-1.3,3.8-2.7C-267.3,805.2-267.6,804.6-268.6,803.9z M-270.7,802c-1,0-1.9-1.1-2.1-2.3
			c-0.2-1.3,0.5-2.2,1.5-2.2s1.9,1,2.1,2.3S-269.7,802.1-270.7,802z M-271.1,808.4c-1.5,0-2.5-0.9-2.5-2s1.3-1.9,2.8-1.9
			c0.3,0,0.7,0,1,0.1c0.8,0.5,1.4,0.9,1.5,1.5c0,0.1,0,0.2,0,0.4C-268.3,807.6-269,808.4-271.1,808.4z"/>
	</g>
	<rect x="-265" y="802" class="st2" width="5" height="1"/>
	<rect x="-263" y="800" class="st2" width="1" height="5"/>
</g>
<circle class="st4" cx="-268" cy="723" r="12"/>
<g>
	<path class="st2" d="M-260.5,718.4c-0.5,0.2-1.1,0.4-1.7,0.5c0.6-0.4,1.1-1,1.3-1.7c-0.6,0.4-1.2,0.6-1.9,0.7c-0.5-0.6-1.3-1-2.1-1
		c-1.6,0-2.9,1.4-2.9,3c0,0.2,0,0.5,0.1,0.7c-2.4-0.1-4.6-1.3-6-3.2c-0.2,0.5-0.4,1-0.4,1.5c0,1,0.5,2,1.3,2.5
		c-0.5,0-0.9-0.1-1.3-0.4l0,0c0,1.5,1,2.7,2.4,3c-0.2,0.1-0.5,0.1-0.8,0.1c-0.2,0-0.4,0-0.5-0.1c0.4,1.2,1.4,2.1,2.7,2.1
		c-1,0.8-2.3,1.3-3.6,1.3c-0.2,0-0.5,0-0.7,0c1.3,0.9,2.8,1.4,4.5,1.4c5.4,0,8.3-4.6,8.3-8.6v-0.4
		C-261.4,719.6-260.9,719-260.5,718.4z"/>
</g>
<circle class="st4" cx="-268" cy="763" r="12"/>
<g>
	<path class="st2" d="M-267.2,769.8v-6h-1.5v-2.2h1.5v-1.8c0-1.4,0.9-2.8,3-2.8c0.9,0,1.5,0.1,1.5,0.1l-0.1,2h-1.3
		c-0.8,0-0.9,0.4-0.9,1v1.6h2.3l-0.1,2.2h-2.2v6L-267.2,769.8L-267.2,769.8z"/>
</g>
<g>
	<rect x="-275" y="-37" class="st9" width="12" height="2"/>
	<rect x="-275" y="-33" class="st9" width="12" height="2"/>
	<rect x="-275" y="-29" class="st9" width="12" height="2"/>
</g>
<g>
	<path class="st10" d="M-260.3,115.9l-0.7-0.4c-0.5-0.3-0.8-0.7-0.8-1.2s0-1.1,0-1.6c0-2.2-0.9-4.9-3.2-5.4v-0.1c0-0.6-0.5-1-1-1
		s-1,0.4-1,1v0.1c-2.3,0.6-3.2,3.2-3.2,5.4c0,0.6,0,1.1,0,1.6s-0.3,1-0.8,1.2l-0.7,0.4c-0.2,0.1-0.3,0.2-0.3,0.4v0.7h12v-0.7
		C-260,116.1-260.1,115.9-260.3,115.9z"/>
	<path class="st10" d="M-266,120c1.1,0,2-0.9,2-2h-4C-268,119.1-267.1,120-266,120z"/>
</g>
<g class="st11">
	<path class="st10" d="M-262.3,425.3l-0.7-0.4c-0.5-0.3-0.8-0.7-0.8-1.2s0-1.1,0-1.6c0-2.2-0.9-4.9-3.2-5.4v-0.1c0-0.5-0.5-1-1-1
		s-1,0.5-1,1v0.1c-2.3,0.6-3.2,3.2-3.2,5.4c0,0.5,0,1.1,0,1.6s-0.3,1-0.8,1.2l-0.7,0.4c-0.2,0.1-0.3,0.2-0.3,0.4v0.7h12v-0.7
		C-262,425.6-262.1,425.4-262.3,425.3z"/>
	<path class="st10" d="M-268,429.5c1.1,0,2-0.9,2-2h-4C-270,428.6-269.1,429.5-268,429.5z"/>
</g>
<g>
	<path class="st4" d="M-260.3,851.8l-0.7-0.4c-0.5-0.3-0.8-0.7-0.8-1.2s0-1.1,0-1.6c0-2.2-0.9-4.9-3.2-5.4v-0.1c0-0.5-0.5-1-1-1
		s-1,0.5-1,1v0.1c-2.3,0.6-3.2,3.2-3.2,5.4c0,0.5,0,1.1,0,1.6s-0.3,1-0.8,1.2l-0.7,0.4c-0.2,0.1-0.3,0.2-0.3,0.4v0.7h12v-0.7
		C-260,852.1-260.1,851.9-260.3,851.8z"/>
	<path class="st4" d="M-266,856c1.1,0,2-0.9,2-2h-4C-268,855.1-267.1,856-266,856z"/>
</g>
<path id="Fill-97" sketch:type="MSShapeGroup" class="st9" d="M-266-84.9c0,0.2-0.2,0.4-0.4,0.4h-1.5c-0.2,0-0.4-0.2-0.4-0.4v-4.6
	c0,0-0.1-0.1-0.1,0l-3.1,3.2c-0.3,0.3-0.7,0.3-1,0l-3.1-3.2h-0.1v4.6c0,0.2-0.2,0.4-0.4,0.4h-1.5c-0.2,0-0.4-0.2-0.4-0.4v-8.2
	c0-0.2,0.2-0.4,0.4-0.4h1c0.2,0,0.4,0.1,0.5,0.2l3.9,4c0.1,0.1,0.2,0.1,0.3,0l3.9-4c0.1-0.1,0.3-0.2,0.5-0.2h1
	c0.2,0,0.4,0.2,0.4,0.4L-266-84.9"/>
<path id="Fill-97_1_" sketch:type="MSShapeGroup" class="st4" d="M-266-54.9c0,0.2-0.2,0.4-0.4,0.4h-1.5c-0.2,0-0.4-0.2-0.4-0.4
	v-4.6c0,0-0.1-0.1-0.1,0l-3.1,3.2c-0.3,0.3-0.7,0.3-1,0l-3.1-3.2h-0.1v4.6c0,0.2-0.2,0.4-0.4,0.4h-1.5c-0.2,0-0.4-0.2-0.4-0.4v-8.2
	c0-0.2,0.2-0.4,0.4-0.4h1c0.2,0,0.4,0.1,0.5,0.2l3.9,4c0.1,0.1,0.2,0.1,0.3,0l3.9-4c0.1-0.1,0.3-0.2,0.5-0.2h1
	c0.2,0,0.4,0.2,0.4,0.4L-266-54.9"/>
<g class="st12">
	<path class="st4" d="M-263,887.6c-0.1-0.1-0.2-0.1-0.3-0.1h-1.7v-2.3l1.3-1.3c0.1-0.1,0.1-0.2,0.1-0.3s0-0.2-0.1-0.4
		c-0.1-0.1-0.2-0.1-0.3-0.1s-0.2,0.1-0.3,0.1l-1.3,1.3h-6.5l-1.3-1.3c-0.1-0.1-0.2-0.1-0.3-0.1s-0.2,0.1-0.3,0.1
		c-0.1,0.1-0.1,0.2-0.1,0.4c0,0.1,0,0.2,0.1,0.3l1.3,1.3v2.3h-1.7c-0.1,0-0.2,0.1-0.3,0.1c-0.1,0.1-0.1,0.2-0.1,0.3s0,0.2,0.1,0.4
		c0.1,0.1,0.2,0.1,0.3,0.1h1.7c0,0.8,0.1,1.5,0.4,2.1l-1.6,1.7c-0.1,0.1-0.1,0.2-0.1,0.4c0,0.1,0.1,0.2,0.2,0.3s0.2,0.1,0.3,0.1
		c0.1,0,0.3-0.1,0.4-0.2l1.4-1.6l0.1,0.1c0.1,0.1,0.2,0.1,0.3,0.2c0.2,0.1,0.3,0.2,0.5,0.3s0.4,0.2,0.7,0.3c0.3,0.1,0.5,0.1,0.8,0.1
		v-6.9h1v6.9c0.2,0,0.5,0,0.7-0.1c0.3-0.1,0.5-0.1,0.6-0.2c0.2-0.1,0.3-0.2,0.5-0.3s0.3-0.2,0.3-0.2c0.1,0,0.1-0.1,0.1-0.1l1.5,1.5
		c0.1,0.1,0.2,0.1,0.3,0.1s0.3,0,0.3-0.1c0.1-0.1,0.1-0.2,0.1-0.4c0-0.1,0-0.2-0.1-0.3l-1.6-1.6c0.3-0.6,0.5-1.4,0.5-2.2h1.7
		c0.1,0,0.2-0.1,0.3-0.1c0.1-0.1,0.1-0.2,0.1-0.3C-262.8,887.8-262.9,887.7-263,887.6L-263,887.6z"/>
	<path class="st4" d="M-267.2,881.7c-0.5-0.5-1.1-0.7-1.7-0.7s-1.3,0.2-1.7,0.7c-0.5,0.5-0.7,1.1-0.7,1.7h4.9
		C-266.5,882.8-266.8,882.2-267.2,881.7L-267.2,881.7z"/>
</g>
<g>
	<g>
		<polygon points="-265.3,916.6 -265.3,916.7 -265.5,916.7 -265.5,917 -265.3,917 -265,916.9 -264.9,916.8 -265,916.7 -265.1,916.6 
			-265.3,916.4 -265.3,916.1 -265.6,916.2 -265.6,916.3 -265.6,916.4 -265.5,916.5 		"/>
		<polygon points="-265.5,916.7 -265.5,916.5 -265.7,916.4 -265.9,916.5 -266,916.7 -266,916.9 -265.8,916.9 		"/>
		<path d="M-269.6,917.3l0,0.1h-0.2v0.1h0.1c0,0,0,0,0,0.1l0.1,0l0.1,0l0-0.1l0.1,0l0-0.1L-269.6,917.3L-269.6,917.3z"/>
		<polygon points="-270.2,917.5 -270.2,917.6 -270,917.6 -270,917.5 -270.1,917.4 		"/>
		<path d="M-261,920.9c0-0.2,0-0.5,0-0.7c-0.1-0.8-0.3-1.5-0.5-2.2c0-0.1,0-0.1-0.1-0.2c-0.4-0.9-0.9-1.6-1.5-2.3
			c0,0-0.1-0.1-0.1-0.1c-0.1-0.1-0.2-0.2-0.4-0.4c-1.4-1.3-3.3-2.1-5.4-2.1c-2.1,0-4,0.8-5.4,2.1c-0.3,0.3-0.6,0.6-0.9,1
			c-1,1.4-1.7,3-1.7,4.9c0,4.4,3.6,8,8,8c3.1,0,5.8-1.8,7.1-4.4c0.3-0.6,0.5-1.1,0.7-1.8c0-0.2,0.1-0.3,0.1-0.5
			C-261,921.9-261,921.5-261,920.9C-261,921-261,920.9-261,920.9z M-262.5,917.7L-262.5,917.7c0.1,0.1,0.2,0.2,0.2,0.3l-0.1,0
			l-0.1,0V917.7z M-263.7,916.3l0-0.4c0.1,0.1,0.2,0.3,0.4,0.4l-0.1,0.2l-0.5,0l0-0.1L-263.7,916.3z M-273.3,915.4L-273.3,915.4
			l0.2,0l0-0.1h0.3v0.1l-0.1,0.1h-0.4L-273.3,915.4L-273.3,915.4z M-273.1,915.8c0,0,0.2,0,0.2,0s0,0.2,0,0.2l-0.4,0l-0.1-0.1
			L-273.1,915.8z M-262,919h-0.6l-0.4-0.3l-0.4,0v0.2h-0.1l-0.1-0.1l-0.7-0.2v-0.4l-0.8,0.1l-0.3,0.1h-0.3l-0.2,0l-0.4,0.2v0.4
			l-0.8,0.6l0.1,0.3h0.2l0,0.2l-0.1,0l0,0.6l0.7,0.8h0.3l0,0h0.5l0.2-0.1h0.3l0.2,0.2l0.5,0l-0.1,0.6l0.5,0.9l-0.3,0.5l0,0.2
			l0.2,0.2v0.6l0.3,0.4v0.5h0.2c-1.3,1.7-3.4,2.7-5.7,2.7c-4,0-7.3-3.3-7.3-7.3c0-1,0.2-2,0.6-2.9v-0.2l0.3-0.3
			c0.1-0.2,0.2-0.3,0.3-0.5l0,0.1l-0.3,0.4c-0.1,0.2-0.2,0.4-0.3,0.5v0.4l0.3,0.1v0.6l0.3,0.5l0.2,0l0-0.2l-0.3-0.4l-0.1-0.4h0.2
			l0.1,0.4l0.4,0.6l-0.1,0.2l0.3,0.4l0.6,0.2v-0.1l0.3,0l0,0.2l0.2,0l0.3,0.1l0.4,0.5l0.6,0l0.1,0.5l-0.4,0.3l0,0.4l-0.1,0.3
			l0.6,0.7l0,0.2c0,0,0.2,0.1,0.2,0.1c0,0,0.5,0.3,0.5,0.3v1.3l0.2,0l-0.1,0.6l0.3,0.3l0,0.6l0.3,0.6l0.4,0.4l0.4,0l0-0.1l-0.3-0.3
			l0-0.1l0.1-0.2l0-0.2l-0.2,0l-0.1-0.1l0.2-0.2l0-0.1l-0.2-0.1l0-0.1l0.3,0l0.4-0.2l0.1-0.3l0.5-0.6l-0.1-0.5l0.1-0.2l0.4,0
			l0.3-0.2l0.1-0.9l0.3-0.4l0.1-0.3l-0.3-0.1l-0.2-0.3l-0.6,0l-0.5-0.2l0-0.4l-0.2-0.3l-0.5,0l-0.3-0.4l-0.2-0.1l0,0.1l-0.4,0
			l-0.2-0.2l-0.5-0.1l-0.4,0.4l-0.6-0.1l0-0.7l-0.4-0.1l0.2-0.3l0-0.2l-0.6,0.4l-0.4,0l-0.1-0.3l0.1-0.3l0.2-0.4l0.4-0.2l0.9,0
			l0,0.3l0.3,0.1l0-0.5l0.2-0.2l0.5-0.3l0-0.2l0.5-0.5l0.5-0.3l0,0l0.3-0.3l0.1,0l0.1,0.1l0.1-0.1l0,0l-0.1,0l-0.1,0v-0.1l0.1-0.1
			h0.2l0.1,0l0.1,0.1l0.1,0v0l0,0l0.2,0l0-0.1l0.1,0v0.1l-0.1,0.1h0l0,0.1l0.4,0.1c0,0,0,0,0,0l0.1,0l0-0.2l-0.3-0.1l0-0.1l0.3-0.1
			l0-0.3l-0.3-0.2l0-0.4l-0.4,0.2h-0.1l0-0.3l-0.5-0.1l-0.2,0.2v0.5l-0.4,0.1l-0.2,0.3l-0.2,0v-0.4l-0.4-0.1l-0.2-0.1l-0.1-0.3
			l0.7-0.4l0.3-0.1l0,0.2l0.2,0l0-0.1l0.2,0l0,0l-0.1,0l0-0.1l0.2,0l0.1-0.1l0,0l0,0l0,0l0.5-0.1l0.2,0.2l-0.6,0.3l0.7,0.2l0.1-0.2
			h0.3l0.1-0.2l-0.2-0.1V915l-0.7-0.3l-0.5,0.1l-0.3,0.1l0,0.3l-0.3,0l0-0.2l0.3-0.2l-0.5,0l-0.1,0l-0.1,0.2l0.2,0l0,0.2l-0.3,0
			l0,0.1l-0.5,0c0,0,0-0.3,0-0.3s0.4,0,0.4,0l0.3-0.3l-0.1-0.1l-0.2,0.2l-0.3,0l-0.2-0.3h-0.4l-0.4,0.3h0.4l0,0.1l-0.1,0.1l0.4,0
			l0.1,0.2l-0.5,0l0-0.1l-0.3-0.1l-0.2-0.1l-0.4,0c1.2-0.9,2.7-1.4,4.3-1.4c1.9,0,3.6,0.7,4.8,1.8l-0.1,0.2l-0.3,0.1l-0.1,0.2l0,0.2
			l0.2,0l0.1,0.3l0.3-0.1l0,0.4h-0.1l-0.2,0l-0.3,0l-0.3,0.4l-0.4,0.1l-0.1,0.3l0.2,0l0,0.2l-0.4-0.1l-0.3,0.1l-0.1,0.2l0.1,0.4
			l0.2,0.1l0.3,0l0.2,0l0.1-0.2l0.4-0.5l0.2,0l0.2-0.2l0,0.2l0.6,0.4l-0.1,0.1l-0.3,0l0.1,0.1l0.2,0l0.2-0.1l0-0.2l0.1,0l-0.1-0.1
			l-0.4-0.2l-0.1-0.3h0.3l0.1,0.1l0.3,0.2l0,0.3l0.3,0.3l0.1-0.4l0.2-0.1l0,0.3l0.2,0.2l0.4,0C-262.1,918.5-262,918.7-262,919
			L-262,919z M-272.6,916.6l0.2-0.1l0.2,0l-0.1,0.2l-0.2,0.1L-272.6,916.6z M-271.6,917.2v0.2h-0.4l-0.2,0l0-0.1l0.2-0.1
			L-271.6,917.2L-271.6,917.2L-271.6,917.2z M-271.4,917.4v0.1l-0.1,0.1l-0.1,0c0,0,0-0.2,0-0.2H-271.4z M-271.5,917.3v-0.2l0.2,0.1
			L-271.5,917.3z M-271.5,917.7v0.1l-0.1,0.1h-0.2l0-0.2l0.1,0l0-0.1L-271.5,917.7z M-272.1,917.4h0.2l-0.3,0.4l-0.1-0.1l0-0.2
			L-272.1,917.4z M-271.1,917.6v0.1h-0.2l-0.1-0.1v-0.1h0L-271.1,917.6z M-271.3,917.4L-271.3,917.4h0.2H-271.3L-271.3,917.4z
			 M-261.9,919.3L-261.9,919.3C-261.8,919.4-261.8,919.4-261.9,919.3L-261.9,919.3z"/>
		<path d="M-275.8,917.9v0.2c0.1-0.2,0.2-0.4,0.3-0.5L-275.8,917.9z"/>
	</g>
</g>
<g>
	<g>
		<polygon class="st13" points="-264.9,956 -264.9,956.1 -265.1,956.2 -265.1,956.5 -264.9,956.5 -264.5,956.4 -264.4,956.2 
			-264.5,956.2 -264.6,956.1 -264.8,955.8 -264.9,955.5 -265.1,955.6 -265.2,955.7 -265.2,955.8 -265.1,955.9 		"/>
		<polygon class="st13" points="-265.1,956.1 -265.1,955.9 -265.3,955.9 -265.5,955.9 -265.6,956.2 -265.6,956.4 -265.5,956.4 		"/>
		<path class="st13" d="M-269.7,956.9l0,0.1h-0.2v0.1h0.1c0,0,0,0,0,0.1l0.1,0l0.1-0.1l0-0.1l0.1,0l0-0.1L-269.7,956.9L-269.7,956.9
			z"/>
		<polygon class="st13" points="-270.3,957.1 -270.3,957.2 -270.1,957.2 -270.1,957.1 -270.2,957 		"/>
		<path class="st13" d="M-260,960.9c0-0.3,0-0.5,0-0.8c-0.1-0.9-0.3-1.7-0.6-2.5c0-0.1,0-0.1-0.1-0.2c-0.4-1-1-1.8-1.7-2.6
			c0,0-0.1-0.1-0.1-0.1c-0.1-0.1-0.3-0.3-0.4-0.4c-1.6-1.5-3.7-2.3-6.1-2.3c-2.3,0-4.5,0.9-6.1,2.4c-0.4,0.3-0.7,0.7-1,1.1
			c-1.2,1.5-1.9,3.4-1.9,5.5c0,5,4,9,9,9c3.5,0,6.5-2,8-4.9c0.3-0.6,0.6-1.3,0.7-2c0-0.2,0.1-0.4,0.1-0.5
			C-260,962.1-260,961.5-260,960.9C-260,961-260,960.9-260,960.9z M-261.7,957.3L-261.7,957.3c0.1,0.1,0.2,0.2,0.2,0.3l-0.1,0
			l-0.2,0V957.3z M-263,955.7l0-0.4c0.1,0.1,0.3,0.3,0.4,0.5l-0.2,0.2l-0.6,0l0-0.1L-263,955.7z M-273.9,954.7L-273.9,954.7l0.2,0
			l0-0.1h0.3v0.1l-0.1,0.1h-0.4L-273.9,954.7L-273.9,954.7z M-273.6,955.1c0,0,0.2,0,0.2,0c0,0,0,0.2,0,0.2l-0.4,0l-0.1-0.1
			L-273.6,955.1z M-261.1,958.7h-0.7l-0.4-0.3l-0.4,0v0.3h-0.1l-0.1-0.1l-0.7-0.2V958l-0.9,0.1l-0.3,0.2h-0.4l-0.2,0l-0.4,0.2v0.5
			l-0.9,0.7l0.1,0.3h0.2l0,0.3l-0.1,0l0,0.7l0.8,0.9h0.3l0-0.1h0.6l0.2-0.2h0.4l0.2,0.2l0.5,0.1l-0.1,0.7l0.6,1l-0.3,0.6l0,0.3
			l0.2,0.2v0.7l0.3,0.4v0.5h0.3c-1.5,1.9-3.8,3.1-6.4,3.1c-4.6,0-8.3-3.7-8.3-8.3c0-1.1,0.2-2.2,0.7-3.2v-0.3l0.3-0.4
			c0.1-0.2,0.2-0.4,0.3-0.6l0,0.1l-0.3,0.4c-0.1,0.2-0.2,0.4-0.3,0.6v0.5l0.3,0.2v0.7l0.3,0.6l0.3,0l0-0.2l-0.3-0.5l-0.1-0.5h0.2
			l0.1,0.5l0.5,0.7l-0.1,0.2l0.3,0.4l0.7,0.2v-0.1l0.3,0l0,0.2l0.2,0l0.3,0.1l0.5,0.6l0.6,0l0.1,0.5l-0.4,0.3l0,0.5l-0.1,0.3
			l0.6,0.8l0,0.3c0,0,0.2,0.1,0.3,0.1c0,0,0.5,0.4,0.5,0.4v1.4l0.2,0l-0.1,0.7l0.3,0.4l-0.1,0.6l0.4,0.7l0.5,0.4l0.5,0l0-0.2
			l-0.4-0.3l0-0.2l0.1-0.2l0-0.2l-0.2,0l-0.1-0.2l0.2-0.2l0-0.1l-0.2-0.1l0-0.1l0.3,0l0.5-0.2l0.2-0.3l0.5-0.7l-0.1-0.5l0.2-0.3
			l0.5,0l0.3-0.3l0.1-1l0.4-0.4l0.1-0.3l-0.3-0.1l-0.2-0.3l-0.7,0l-0.6-0.2l0-0.4l-0.2-0.3l-0.5,0l-0.3-0.5l-0.3-0.1l0,0.1l-0.5,0
			l-0.2-0.2l-0.5-0.1l-0.4,0.5l-0.7-0.1l0-0.7l-0.5-0.1l0.2-0.4l-0.1-0.2l-0.6,0.4l-0.4,0l-0.1-0.3l0.1-0.3l0.2-0.4l0.5-0.3l1,0
			l0,0.3l0.4,0.2l0-0.5l0.3-0.3l0.5-0.3l0-0.2l0.5-0.5l0.5-0.3l0,0l0.4-0.3l0.1,0l0.1,0.1l0.1-0.2l0,0l-0.2,0l-0.2-0.1v-0.1l0.1-0.1
			h0.2l0.1,0l0.1,0.1l0.1,0v0l0,0l0.3,0l0-0.1l0.1,0v0.1l-0.1,0.1h0l0,0.1l0.5,0.1c0,0,0,0,0,0l0.1,0l0-0.2l-0.4-0.2l0-0.1l0.3-0.1
			l0-0.3l-0.3-0.2l0-0.5l-0.4,0.2h-0.2l0-0.4l-0.6-0.1l-0.2,0.2v0.6l-0.4,0.1l-0.2,0.4l-0.2,0v-0.5l-0.4-0.1l-0.2-0.1l-0.1-0.3
			l0.7-0.4l0.4-0.1l0,0.2l0.2,0l0-0.1l0.2,0l0,0l-0.1,0l0-0.1l0.3,0l0.2-0.2l0,0l0,0l0,0l0.5-0.1l0.2,0.2l-0.6,0.3l0.8,0.2l0.1-0.3
			h0.3l0.1-0.2l-0.2-0.1v-0.3l-0.8-0.3l-0.5,0.1l-0.3,0.2l0,0.4l-0.3,0l0-0.2l0.3-0.3l-0.5,0l-0.2,0l-0.1,0.2l0.2,0l0,0.2l-0.3,0
			l-0.1,0.1l-0.5,0c0,0,0-0.3,0-0.3s0.4,0,0.4,0l0.3-0.3l-0.2-0.1l-0.2,0.2l-0.4,0l-0.2-0.3h-0.5l-0.5,0.4h0.4l0,0.1l-0.1,0.1l0.5,0
			l0.1,0.2l-0.6,0l0-0.1l-0.3-0.1l-0.2-0.1l-0.4,0c1.4-1,3-1.6,4.9-1.6c2.1,0,4,0.8,5.5,2.1l-0.1,0.2l-0.4,0.1l-0.2,0.2l0,0.2l0.2,0
			l0.1,0.3l0.3-0.1l0.1,0.4h-0.1l-0.3,0l-0.3,0.1l-0.3,0.4l-0.4,0.1l-0.1,0.4l0.2,0l-0.1,0.2l-0.4-0.1l-0.4,0.1l-0.1,0.2l0.1,0.5
			l0.2,0.1l0.4,0l0.3,0l0.1-0.2l0.4-0.5l0.3,0.1l0.3-0.2l0,0.2l0.6,0.4l-0.1,0.1l-0.3,0l0.1,0.2l0.2,0l0.2-0.1l0-0.3l0.1,0l-0.1-0.1
			l-0.4-0.2l-0.1-0.3h0.4l0.1,0.1l0.3,0.3l0,0.3l0.3,0.3l0.1-0.5l0.2-0.1l0,0.4l0.2,0.2l0.4,0C-261.2,958.2-261.1,958.5-261.1,958.7
			L-261.1,958.7z M-273.1,956.1l0.2-0.1l0.2,0l-0.1,0.3l-0.2,0.1L-273.1,956.1z M-271.9,956.7v0.2h-0.5l-0.2-0.1l0-0.1l0.2-0.1
			L-271.9,956.7L-271.9,956.7L-271.9,956.7z M-271.7,956.9v0.2l-0.1,0.1l-0.2,0c0,0,0-0.2,0-0.3H-271.7z M-271.9,956.9v-0.2l0.2,0.2
			L-271.9,956.9z M-271.8,957.3v0.2l-0.1,0.1h-0.3l0-0.2l0.1,0l0-0.1L-271.8,957.3z M-272.4,956.9h0.3l-0.3,0.5l-0.1-0.1l0-0.2
			L-272.4,956.9z M-271.3,957.2v0.2h-0.3l-0.1-0.1v-0.1h0L-271.3,957.2z M-271.6,957L-271.6,957h0.2H-271.6L-271.6,957z M-261,959.1
			L-261,959.1c0,0,0,0.1,0.1,0.1L-261,959.1z"/>
		<path class="st13" d="M-276.6,957.5v0.3c0.1-0.2,0.2-0.4,0.3-0.6L-276.6,957.5z"/>
	</g>
</g>
<path id="Imported-Layers-Copy-7_2_" sketch:type="MSShapeGroup" class="st14" d="M-267.6,1009.4l3.3-3.5c0.4-0.4,0.4-1.1,0-1.5
	c-0.4-0.4-1-0.4-1.4,0l-3.3,3.5l-3.3-3.5c-0.4-0.4-1-0.4-1.4,0c-0.4,0.4-0.4,1.1,0,1.5l3.3,3.5l0.4,0.3c0.6,0.5,1.4,0.5,2,0
	L-267.6,1009.4z"/>
</svg>
