<?xml version="1.0" encoding="utf-8"?>
<!-- Generator: Adobe Illustrator 19.0.0, SVG Export Plug-In . SVG Version: 6.00 Build 0)  -->
<svg version="1.1" id="Layer_1" xmlns:sketch="http://www.bohemiancoding.com/sketch/ns"
	 xmlns="http://www.w3.org/2000/svg" xmlns:xlink="http://www.w3.org/1999/xlink" x="0px" y="0px" width="36px" height="1297.6px"
	 viewBox="-279 -179.1 36 1297.6" style="enable-background:new -279 -179.1 36 1297.6;" xml:space="preserve">
<style type="text/css">
	.st0{opacity:0.7;fill:#151515;enable-background:new    ;}
	.st1{fill:#151515;}
	.st2{fill:#333333;}
	.st3{fill:#F6F6F6;}
	.st4{fill:#FFFFFF;}
	.st5{opacity:0.5;}
	.st6{fill:#121212;}
	.st7{opacity:0.5;fill:#FFFFFF;enable-background:new    ;}
	.st8{opacity:0.3;fill:#FFFFFF;enable-background:new    ;}
	.st9{opacity:0.3;}
	.st10{fill:#000101;}
	.st11{fill:#848484;}
	.st12{fill:#777777;}
	.st13{fill:#555555;}
	.st14{fill:#31B500;}
	.st15{fill:#FF333A;}
	.st16{fill:#FFAE19;}
	.st17{fill:#666666;}
	.st18{fill:#FFA500;}
</style>
<g>
	<path class="st0" d="M-250-6.6c-0.4-0.1-0.7-0.4-0.7-0.9c0-0.1,0.1-0.2,0.1-0.2c0.9-0.5,1.6-1.4,1.6-2.4c0-2.2-1.9-3.8-3.9-4.4
		c0.1,1.6-0.4,3.1-1.3,4.2c-0.8,1.1-2,1.8-3.3,2.2c0.7,0.7,1.7,1.1,2.8,1.2c0.6,0,1.3,0,2-0.1c0.7,0.6,1.8,0.6,2.6,0.6
		C-249.8-6.4-249.8-6.6-250-6.6z"/>
	<path class="st1" d="M-254.3-15.5c-0.7-3.3-3.9-4.4-7.1-3.7c-2.9,0.6-5.7,2.9-5.6,6c0,1.4,0.9,2.5,2.1,3.2c0.1,0.1,0.2,0.2,0.2,0.3
		c0,0.6-0.4,1-1,1.1c-0.3,0.1-0.3,0.2,0,0.3c1.2,0.1,2.5,0,3.5-0.7c0.9,0.1,1.8,0.2,2.7,0.1C-255.9-9.2-253.5-11.9-254.3-15.5z"/>
</g>
<g>
	<path d="M-261-54.9c-1.1,0-2-0.9-2-2c0-1.1,0.9-2,2-2s2,0.9,2,2C-259-55.8-259.9-54.9-261-54.9z M-255-55.9v-2h-2.1
		c-0.1-0.4-0.2-0.7-0.4-1l1.5-1.5l-1.4-1.4l-1.5,1.5c-0.3-0.2-0.7-0.3-1-0.4v-2.2h-2v2.1c-0.4,0.1-0.7,0.2-1,0.4l-1.5-1.5l-1.4,1.4
		l1.5,1.5c-0.2,0.3-0.3,0.7-0.4,1h-2.1v2h2.1c0.1,0.4,0.2,0.7,0.4,1l-1.5,1.5l1.4,1.4l1.5-1.5c0.3,0.2,0.7,0.3,1,0.4v2.3h2V-53
		c0.4-0.1,0.7-0.2,1-0.4l1.5,1.5l1.4-1.4l-1.5-1.5c0.2-0.3,0.3-0.7,0.4-1h2.1V-55.9z"/>
</g>
<g>
	<path class="st2" d="M-252.2,249c0.9,0.8,1.3,1.3,2.2,1.3h-20c1.2,0,1.4-0.5,2.2-1.3l6.2-6c1.6-1.5,1.6-1.5,3.2,0L-252.2,249z"/>
</g>
<g>
	<path class="st3" d="M-252.2,279c0.9,0.8,1.3,1.3,2.2,1.3h-20c1.2,0,1.4-0.5,2.2-1.3l6.2-6c1.6-1.5,1.6-1.5,3.2,0L-252.2,279z"/>
</g>
<g>
	<path class="st4" d="M-252.2,269c0.9,0.8,1.3,1.3,2.2,1.3h-20c1.2,0,1.4-0.5,2.2-1.3l6.2-6c1.6-1.5,1.6-1.5,3.2,0L-252.2,269z"/>
</g>
<g class="st5">
	<polygon class="st4" points="-260.5,179.1 -260.5,189.1 -265.5,184.1 	"/>
</g>
<path class="st6" d="M-258,85.3l2.6,4.3h-5.3L-258,85.3z M-258,79.6l-8,13h16L-258,79.6z"/>
<polygon class="st7" points="-266.5,385.1 -263.9,382.4 -260.6,385.8 -254.1,379.1 -251.5,381.8 -260.6,391.1 "/>
<g>
	<path class="st2" d="M-252.2,447.8c0.9,0.8,2,1.3,3.2,1.3h-22c1.2,0,2.4-0.5,3.2-1.3l6.2-6c0.9-0.9,2.3-0.9,3.2,0L-252.2,447.8z"/>
</g>
<polygon class="st7" points="-269.5,500.1 -266.9,497.4 -263.6,500.8 -257.1,494.1 -254.5,496.8 -263.6,506.1 "/>
<circle class="st8" cx="-260" cy="568.1" r="8"/>
<g>
	<path class="st2" d="M-257,570.7v-2.8c0-0.1-0.1-0.1-0.2-0.1l-2.2,2.2c-0.1,0.1-0.2,0.1-0.4,0.1h-0.6c-0.1,0-0.3,0-0.4-0.1
		l-2.2-2.2c-0.1-0.1-0.2,0-0.2,0.1v2.8c0,0.2-0.2,0.4-0.5,0.4h-1c-0.3,0-0.5-0.2-0.5-0.4v-5.1c0-0.2,0.2-0.4,0.5-0.4h1.3
		c0.1,0,0.3,0,0.4,0.1l2.7,2.3c0.1,0.1,0.3,0.1,0.4,0l2.7-2.3c0.1-0.1,0.2-0.1,0.4-0.1h1.3c0.3,0,0.5,0.2,0.5,0.4v5.1
		c0,0.2-0.2,0.4-0.5,0.4h-1C-256.8,571.1-257,570.9-257,570.7z"/>
</g>
<circle class="st4" cx="-260" cy="728.1" r="12"/>
<g>
	<g>
		<path class="st2" d="M-260.6,729c-0.3-0.2-1-0.8-1-1.2s0.1-0.6,0.7-1.1s1.1-1.2,1.1-1.9c0-0.9-0.4-1.8-1.2-2.2h1.2l0.9-0.6h-3.8
			c-1.7,0-3.3,1.3-3.3,2.7c0,1.5,1.2,2.7,2.9,2.7h0.4c-0.1,0.2-0.2,0.4-0.2,0.7c0,0.4,0.2,0.8,0.5,1h-0.7c-2.1,0-3.8,1.3-3.8,2.7
			c0,1.3,1.8,2.2,3.9,2.2c2.4,0,3.8-1.3,3.8-2.7C-259.3,730.3-259.6,729.7-260.6,729z M-262.7,727.1c-1,0-1.9-1.1-2.1-2.3
			c-0.2-1.3,0.5-2.2,1.5-2.2s1.9,1,2.1,2.3S-261.7,727.2-262.7,727.1z M-263.1,733.5c-1.5,0-2.5-0.9-2.5-2s1.3-1.9,2.8-1.9
			c0.3,0,0.7,0,1,0.1c0.8,0.5,1.4,0.9,1.5,1.5c0,0.1,0,0.2,0,0.4C-260.3,732.7-261,733.5-263.1,733.5z"/>
		<path class="st2" d="M-260.6,729c-0.3-0.2-1-0.8-1-1.2s0.1-0.6,0.7-1.1s1.1-1.2,1.1-1.9c0-0.9-0.4-1.8-1.2-2.2h1.2l0.9-0.6h-3.8
			c-1.7,0-3.3,1.3-3.3,2.7c0,1.5,1.2,2.7,2.9,2.7h0.4c-0.1,0.2-0.2,0.4-0.2,0.7c0,0.4,0.2,0.8,0.5,1h-0.7c-2.1,0-3.8,1.3-3.8,2.7
			c0,1.3,1.8,2.2,3.9,2.2c2.4,0,3.8-1.3,3.8-2.7C-259.3,730.3-259.6,729.7-260.6,729z M-262.7,727.1c-1,0-1.9-1.1-2.1-2.3
			c-0.2-1.3,0.5-2.2,1.5-2.2s1.9,1,2.1,2.3S-261.7,727.2-262.7,727.1z M-263.1,733.5c-1.5,0-2.5-0.9-2.5-2s1.3-1.9,2.8-1.9
			c0.3,0,0.7,0,1,0.1c0.8,0.5,1.4,0.9,1.5,1.5c0,0.1,0,0.2,0,0.4C-260.3,732.7-261,733.5-263.1,733.5z"/>
	</g>
	<rect x="-257" y="727.1" class="st2" width="5" height="1"/>
	<rect x="-255" y="725.1" class="st2" width="1" height="5"/>
</g>
<circle class="st4" cx="-260" cy="648.1" r="12"/>
<g>
	<path class="st2" d="M-252.5,643.5c-0.5,0.2-1.1,0.4-1.7,0.5c0.6-0.4,1.1-1,1.3-1.7c-0.6,0.4-1.2,0.6-1.9,0.7c-0.5-0.6-1.3-1-2.1-1
		c-1.6,0-2.9,1.4-2.9,3c0,0.2,0,0.5,0.1,0.7c-2.4-0.1-4.6-1.3-6-3.2c-0.2,0.5-0.4,1-0.4,1.5c0,1,0.5,2,1.3,2.5
		c-0.5,0-0.9-0.1-1.3-0.4l0,0c0,1.5,1,2.7,2.4,3c-0.2,0.1-0.5,0.1-0.8,0.1c-0.2,0-0.4,0-0.5-0.1c0.4,1.2,1.4,2.1,2.7,2.1
		c-1,0.8-2.3,1.3-3.6,1.3c-0.2,0-0.5,0-0.7,0c1.3,0.9,2.8,1.4,4.5,1.4c5.4,0,8.3-4.6,8.3-8.6v-0.4
		C-253.4,644.7-252.9,644.1-252.5,643.5z"/>
</g>
<circle class="st4" cx="-260" cy="688.1" r="12"/>
<g>
	<path class="st2" d="M-259.2,694.9v-6h-1.5v-2.2h1.5v-1.8c0-1.4,0.9-2.8,3-2.8c0.9,0,1.5,0.1,1.5,0.1l-0.1,2h-1.3
		c-0.8,0-0.9,0.4-0.9,1v1.6h2.3l-0.1,2.2h-2.2v6L-259.2,694.9L-259.2,694.9z"/>
</g>
<g class="st9">
	<path class="st10" d="M-254.3,350.4l-0.7-0.4c-0.5-0.3-0.8-0.7-0.8-1.2s0-1.1,0-1.6c0-2.2-0.9-4.9-3.2-5.4v-0.1c0-0.5-0.5-1-1-1
		s-1,0.5-1,1v0.1c-2.3,0.6-3.2,3.2-3.2,5.4c0,0.5,0,1.1,0,1.6s-0.3,1-0.8,1.2l-0.7,0.4c-0.2,0.1-0.3,0.2-0.3,0.4v0.7h12v-0.7
		C-254,350.7-254.1,350.5-254.3,350.4z"/>
	<path class="st10" d="M-260,354.6c1.1,0,2-0.9,2-2h-4C-262,353.7-261.1,354.6-260,354.6z"/>
</g>
<g>
	<path class="st4" d="M-252.3,776.9l-0.7-0.4c-0.5-0.3-0.8-0.7-0.8-1.2s0-1.1,0-1.6c0-2.2-0.9-4.9-3.2-5.4v-0.1c0-0.5-0.5-1-1-1
		s-1,0.5-1,1v0.1c-2.3,0.6-3.2,3.2-3.2,5.4c0,0.5,0,1.1,0,1.6s-0.3,1-0.8,1.2l-0.7,0.4c-0.2,0.1-0.3,0.2-0.3,0.4v0.7h12v-0.7
		C-252,777.2-252.1,777-252.3,776.9z"/>
	<path class="st4" d="M-258,781.1c1.1,0,2-0.9,2-2h-4C-260,780.2-259.1,781.1-258,781.1z"/>
</g>
<path id="Imported-Layers-Copy-7_2_" sketch:type="MSShapeGroup" class="st11" d="M-259.6,934.5l3.3-3.5c0.4-0.4,0.4-1.1,0-1.5
	s-1-0.4-1.4,0l-3.3,3.5l-3.3-3.5c-0.4-0.4-1-0.4-1.4,0s-0.4,1.1,0,1.5l3.3,3.5l0.4,0.3c0.6,0.5,1.4,0.5,2,0L-259.6,934.5z"/>
<path class="st12" d="M-260.2,147.8c-4.4,0-8,3.6-8,8s3.6,8,8,8c4.4,0,8-3.6,8-8S-255.8,147.8-260.2,147.8z M-256.2,158.6
	c0,0.1-0.1,0.2-0.2,0.2h-1c-0.1,0-0.2-0.1-0.2-0.2v-3.1c0,0,0,0,0,0l-2.1,2.2c-0.2,0.2-0.5,0.2-0.7,0l-2.1-2.2c0,0-0.1,0-0.1,0v3.1
	c0,0.1-0.1,0.2-0.2,0.2h-1c-0.1,0-0.2-0.1-0.2-0.2V153c0-0.1,0.1-0.2,0.2-0.2h0.7c0.1,0,0.2,0,0.3,0.1l2.6,2.7c0,0,0.1,0,0.2,0
	l2.6-2.7c0.1-0.1,0.2-0.1,0.3-0.1h0.7c0.1,0,0.2,0.1,0.2,0.2V158.6z"/>
<path class="st13" d="M-260.2,108.8c-5.5,0-10,4.5-10,10c0,5.5,4.5,10,10,10c5.5,0,10-4.5,10-10
	C-250.2,113.3-254.7,108.8-260.2,108.8z M-263,111.3c-1.2,1.4-2,3.8-2.2,6.5h-3C-267.8,114.8-265.8,112.3-263,111.3z M-268.2,119.8
	h3c0.2,2.7,1,5.1,2.2,6.5C-265.8,125.3-267.8,122.8-268.2,119.8z M-261.2,126.5c-1.6-0.8-2.8-3.5-3-6.7h3V126.5z M-261.2,117.8h-3
	c0.2-3.3,1.4-5.9,3-6.7V117.8z M-252.3,117.8h-3c-0.2-2.7-1-5.1-2.2-6.5C-254.7,112.3-252.7,114.8-252.3,117.8z M-259.2,111
	c1.6,0.8,2.8,3.5,3,6.7h-3V111z M-259.2,126.5v-6.7h3C-256.5,123.1-257.7,125.7-259.2,126.5z M-257.5,126.3c1.2-1.4,2-3.8,2.2-6.5h3
	C-252.7,122.8-254.7,125.3-257.5,126.3z"/>
<path id="Combined-Shape_2_" class="st13" d="M-259.3,310.9c-1.1,0.7-2.4,1.2-3.8,1.2c-3.9,0-7-3.1-7-7s3.1-7,7-7s7,3.1,7,7
	c0,1.4-0.4,2.7-1.2,3.8l4.4,4.4c0.4,0.4,0.4,1,0,1.4l-0.6,0.6c-0.4,0.4-1,0.4-1.4,0L-259.3,310.9z M-263.2,310c2.8,0,5-2.2,5-5
	c0-2.8-2.2-5-5-5s-5,2.2-5,5C-268.2,307.8-266,310-263.2,310z"/>
<path class="st13" d="M-255.1-155.4c-0.8-0.8-2-0.8-2.8,0s-0.8,2,0,2.8c0.8,0.8,2,0.8,2.8,0C-254.3-153.3-254.3-154.6-255.1-155.4z
	 M-255.5-152.9h-2v-2h2V-152.9z"/>
<path id="Fill-3" class="st13" d="M-260.2-146.1c-0.6,0.4-1.1,0.6-1.4,0.6c-0.3,0-0.6-0.2-1-0.4c0-0.1,0-0.1,0-0.2
	c0.3-0.3,0.6-0.5,0.9-0.9c1.9-1.9,2.6-3.3,2.2-3.7s-1.8,0.4-3.7,2.2c-0.3,0.3-0.5,0.6-0.8,0.8c-0.2-0.1-0.4-0.2-0.6-0.2
	c-0.6-0.8-0.6-1.3,0.1-2.3c0.1-0.1,1.2-2.1,4.3-5.2c2.1-2.1,4.3-3.4,6.1-4c0.3,0.7,0.7,1.3,1.3,1.9c0.5,0.5,1,0.9,1.6,1.1
	c-0.6,1.7-1.8,3.8-4,5.9C-258.2-147.3-260.1-146.2-260.2-146.1 M-264-144.3c-0.6,0.6-2.2,1.4-3.1,1.4c-0.2,0-0.3-0.1-0.4-0.1
	c-0.3-0.3,0.3-2.5,1.3-3.5c0.3-0.3,0.7-0.5,1.1-0.5c0,0,0,0,0.1,0c0.1,0.1,0.2,0.2,0.3,0.3c-0.6,0.8-0.7,1.4-0.4,1.6
	c0.2,0.2,0.8,0.1,1.6-0.4c0,0,0,0,0,0C-263.5-145-263.7-144.6-264-144.3 M-249.8-160.6c-0.8-0.8-6-0.5-10.9,4.5
	c-0.8,0.8-1.4,1.5-2,2.1l0,0c-1.8-0.3-3.5,0.2-4.9,1.5l-1.2,1.2c-1.7,1.7,0.6,1.5,3,2c-0.1,0.5,0,1,0.2,1.4
	c-0.4,0.1-0.9,0.3-1.2,0.7c-1,1-2.3,3.9-1.3,4.9c1,1,3.9-0.3,4.9-1.3c0.3-0.3,0.6-0.8,0.7-1.2c0.4,0.2,0.9,0.3,1.4,0.2
	c0.5,2.5,0.2,4.8,2,3l1.2-1.2c1.4-1.4,1.9-3.2,1.5-4.9c0.6-0.5,1.3-1.2,2.1-2C-249.4-154.6-249-159.8-249.8-160.6"/>
<path class="st14" d="M-261,802.9c-1.9,0-3.7,0.3-5.5,1v4.9c0,0.8,0.5,2.1,2.8,3.7c1,0.7,2.1,1.2,2.7,1.5c0.6-0.3,1.6-0.8,2.7-1.5
	c2.3-1.6,2.8-2.9,2.8-3.7v-4.9C-257.3,803.2-259.1,802.9-261,802.9z M-257.5,808.6c0,0.5-0.3,1.3-1.8,2.4c-0.7,0.4-1.3,0.8-1.7,0.9
	c-0.4-0.2-1.1-0.5-1.7-1c-1.5-1-1.8-1.8-1.8-2.3v-3.1c1.1-0.4,2.3-0.6,3.5-0.6s2.4,0.2,3.5,0.6V808.6z"/>
<g id="Group-5-Copy" transform="translate(49.000000, 95.000000)">
	<path id="Fill-2" class="st15" d="M-304.5,773.7c0,0.8-0.5,2.1-2.8,3.7c-1,0.7-2.1,1.2-2.7,1.5c-0.6-0.3-1.7-0.8-2.7-1.5
		c-2.3-1.6-2.8-2.9-2.8-3.7v-4.9c1.8-0.6,3.6-1,5.5-1s3.7,0.3,5.5,1V773.7"/>
	<polyline id="Fill-3_1_" class="st4" points="-311.5,769.9 -312.5,769.9 -312.5,774.9 -311.5,774.9 	"/>
	<polyline id="Fill-3_2_" class="st4" points="-307.5,769.9 -308.5,769.9 -308.5,774.9 -307.5,774.9 	"/>
</g>
<path id="Fill-2_1_" class="st16" d="M-255.5,828.7c0,0.8-0.5,2.1-2.8,3.7c-1,0.7-2.1,1.2-2.7,1.5c-0.6-0.3-1.7-0.8-2.7-1.5
	c-2.3-1.6-2.8-2.9-2.8-3.7v-4.9c1.8-0.6,3.6-1,5.5-1s3.7,0.3,5.5,1V828.7"/>
<polyline id="Fill-3_3_" class="st4" points="-261.5,824.9 -262.5,824.9 -262.5,829.9 -261.5,829.9 "/>
<polyline id="Fill-3_4_" class="st4" points="-259.5,828.9 -261.5,828.9 -261.5,829.9 -259.5,829.9 "/>
<g id="Group-5-Copy_1_" transform="translate(49.000000, 65.000000)">
	<path id="Fill-2_2_" class="st15" d="M-304.5,783.7c0,0.8-0.5,2.1-2.8,3.7c-1,0.7-2.1,1.2-2.7,1.5c-0.6-0.3-1.7-0.8-2.7-1.5
		c-2.3-1.6-2.8-2.9-2.8-3.7v-4.9c1.8-0.6,3.6-1,5.5-1s3.7,0.3,5.5,1V783.7"/>
	<polyline id="Fill-3_5_" class="st4" points="-309.5,779.9 -310.5,779.9 -310.5,785.9 -309.5,785.9 	"/>
</g>
<g id="Group-5-Copy_2_" transform="translate(49.000000, 125.000000)">
	<path id="Fill-2_3_" class="st15" d="M-304.5,763.7c0,0.8-0.5,2.1-2.8,3.7c-1,0.7-2.1,1.2-2.7,1.5c-0.6-0.3-1.7-0.8-2.7-1.5
		c-2.3-1.6-2.8-2.9-2.8-3.7v-4.9c1.8-0.6,3.6-1,5.5-1s3.7,0.3,5.5,1V763.7"/>
	<polyline id="Fill-3_6_" class="st4" points="-309.5,759.9 -310.5,759.9 -310.5,765.9 -309.5,765.9 	"/>
	<polyline id="Fill-3_7_" class="st4" points="-312.5,759.9 -313.5,759.9 -313.5,763.9 -312.5,763.9 	"/>
	<polyline id="Fill-3_8_" class="st4" points="-306.5,759.9 -307.5,759.9 -307.5,763.9 -306.5,763.9 	"/>
</g>
<path id="Combined-Shape-Copy_1_" class="st13" d="M-269-102.3h16v2h-16V-102.3z M-269-108.3h16v2h-16V-108.3z M-269-114.2h16v2h-16
	V-114.2z"/>
<path id="Fill-1-Copy_1_" class="st13" d="M-253.3,39.7h-13.9l-0.1-1.3v-0.1c0.1-0.1,0.2-0.2,0.2-0.3c0-0.1,0.1-0.1,0.1-0.1
	c0,0,0.1-0.1,0.1-0.1h13.1c0,0,0.1,0.1,0.1,0.1c0.1,0.2,0.2,0.4,0.4,0.6L-253.3,39.7z M-260.3,42.7c-0.7,0-1.4-0.4-1.7-1
	c-0.1-0.1-0.1-0.3-0.2-0.4c0,0,0,0,0-0.1c0-0.2-0.1-0.3-0.1-0.5h4c0,0.2,0,0.3-0.1,0.5c0,0,0,0,0,0.1c0,0.2-0.1,0.3-0.2,0.4
	C-258.9,42.3-259.5,42.7-260.3,42.7L-260.3,42.7z M-265.3,34.9v-2c0-2,1.6-3.7,3.2-4.2l0.7-0.3l0-0.4c0,0,0-0.1,0-0.1
	c0.1-0.1,0.5-0.2,1-0.2c0.5,0,1,0.1,1,0.2v0.2l0,0.3l0.7,0.2c1.9,0.6,3.3,2.4,3.3,4.3v2c0,0.6,0.3,1.2,0.7,1.8H-266
	C-265.6,36.1-265.3,35.5-265.3,34.9L-265.3,34.9z M-251.7,37c-0.1-0.1-0.2-0.4-0.4-0.7c-0.7-0.6-1.1-1.3-1.1-1.5v-2
	c0-2.5-1.7-4.9-4.1-6c-0.4-0.8-1.5-1.3-2.8-1.3c-1.3,0-2.4,0.5-2.8,1.2l-0.4,0.1l0,0.1c-2.3,1.1-3.8,3.4-3.8,5.8v2
	c0,0.2-0.4,0.9-1.1,1.5c-0.2,0.2-0.3,0.4-0.4,0.5c0,0,0,0.1-0.1,0.1c-0.3,0.3-0.5,0.8-0.5,1.3l0,0.5l0.1,0.1v0.9c0,1.1,0.9,2,2.1,2
	h3.1c0.4,1.7,2,3,3.9,3s3.4-1.3,3.9-3h3.2c1.1,0,2-0.9,2-2v-1.4C-251.3,37.8-251.4,37.4-251.7,37L-251.7,37z"/>
<path id="Page-1-Copy-4" class="st15" d="M-260,969.8c-0.6,0-1-0.4-1-1s0.4-1,1-1s1,0.4,1,1S-259.5,969.8-260,969.8L-260,969.8z
	 M-258.2,969.6c0.1-0.2,0.2-0.5,0.2-0.8c0-1.1-0.9-2-2-2c-1.1,0-2,0.9-2,2s0.9,2,2,2c0.1,0,0.2,0,0.3,0l4.2,4c0.1,0.1,0.3,0.1,0.4,0
	c0.1-0.1,0.1-0.3,0-0.4L-258.2,969.6z M-253.9,969.7h0.8c-0.1,1.4-0.7,2.6-1.5,3.6l-0.6-0.6C-254.4,971.9-254,970.8-253.9,969.7
	L-253.9,969.7z M-253.9,968.2c-0.1-1.1-0.6-2.2-1.3-3l0.6-0.6c0.8,1,1.3,2.2,1.5,3.6H-253.9z M-260.8,962.7c-1.1,0.1-2.2,0.6-3,1.3
	l-0.6-0.6c1-0.8,2.2-1.3,3.6-1.5V962.7z M-266.2,969.7c0.1,1.1,0.6,2.2,1.3,3l-0.6,0.6c-0.8-1-1.3-2.2-1.5-3.6H-266.2z M-256.2,964
	c-0.9-0.7-1.9-1.1-3-1.3V962c1.4,0.1,2.6,0.7,3.6,1.5L-256.2,964z M-265.5,964.6l0.6,0.6c-0.7,0.9-1.1,1.9-1.3,3h-0.8
	C-266.9,966.8-266.3,965.6-265.5,964.6L-265.5,964.6z M-260,976.8c-4.4,0-8-3.6-8-8c0-4.4,3.6-8,8-8c4.4,0,8,3.6,8,8
	C-252,973.2-255.6,976.8-260,976.8L-260,976.8z M-260,958.8c-5.5,0-10,4.5-10,10c0,5.5,4.5,10,10,10c5.5,0,10-4.5,10-10
	C-250,963.2-254.5,958.8-260,958.8L-260,958.8z"/>
<g>
	<path class="st15" d="M-259,997.8v-3c0-0.6-0.4-1-1-1c-0.6,0-1,0.4-1,1v4l4.3,4.3c0.4,0.4,1,0.4,1.4,0l0.1-0.1c0.4-0.4,0.4-1,0-1.4
		L-259,997.8z"/>
	<path class="st15" d="M-260,988.8c-5.5,0-10,4.5-10,10s4.5,10,10,10c5.5,0,10-4.5,10-10S-254.5,988.8-260,988.8z M-260,1006.8
		c-4.4,0-8-3.6-8-8s3.6-8,8-8s8,3.6,8,8S-255.6,1006.8-260,1006.8z"/>
</g>
<g id="Group-3" transform="translate(0.000000, 80.000000)">
	<path id="Fill-1" class="st15" d="M-270,948.8c0,5.5,4.5,10,10,10c5.5,0,10-4.5,10-10c0-5.5-4.5-10-10-10
		C-265.6,938.8-270,943.2-270,948.8z M-265.3,952.9c-1.1,0-1.6-0.8-1-1.7l5.2-9c0.6-1,1.5-1,2,0l5.2,9c0.6,1,0.1,1.7-1,1.7H-265.3z"
		/>
	<polygon id="Page-1" class="st15" points="-260,943.8 -264.2,951.3 -255.9,951.3 	"/>
</g>
<g id="Page-1_1_">
	<path id="Combined-Shape" class="st17" d="M-261.5,1065.1l-4.9,4.9l1.4,1.4l4.9-4.9l4.9,4.9l1.4-1.4l-4.9-4.9l4.9-4.9l-1.4-1.4
		l-4.9,4.9l-4.9-4.9l-1.4,1.4L-261.5,1065.1z"/>
	<path id="Fill-1_1_" class="st18" d="M-264.3,1099.7h8.5l-4.2-7.1L-264.3,1099.7z M-254,1101.7h-12c-0.4,0-0.7-0.2-0.9-0.5
		c-0.2-0.3-0.2-0.7,0-1l6-10c0.4-0.6,1.4-0.6,1.7,0l6,10c0.2,0.3,0.2,0.7,0,1C-253.3,1101.5-253.7,1101.7-254,1101.7L-254,1101.7z"
		/>
</g>
</svg>
