<?xml version="1.0" encoding="utf-8"?>
<!-- Generator: Adobe Illustrator 16.0.0, SVG Export Plug-In . SVG Version: 6.00 Build 0)  -->
<!DOCTYPE svg PUBLIC "-//W3C//DTD SVG 1.1//EN" "http://www.w3.org/Graphics/SVG/1.1/DTD/svg11.dtd">
<svg version="1.1" id="Layer_1" xmlns="http://www.w3.org/2000/svg" xmlns:xlink="http://www.w3.org/1999/xlink" x="0px" y="0px"
	 width="36px" height="1000px" viewBox="0 0 36 1000" enable-background="new 0 0 36 1000" xml:space="preserve">
<g>
	<path opacity="0.7" fill="#151515" enable-background="new    " d="M28.98,172.279c-0.41-0.109-0.74-0.42-0.726-0.859
		c0.015-0.1,0.08-0.18,0.146-0.22c0.92-0.53,1.57-1.35,1.6-2.42c0.049-2.18-1.859-3.812-3.881-4.39c0.08,1.58-0.35,3.05-1.279,4.23
		c-0.82,1.05-1.961,1.8-3.311,2.23c0.711,0.66,1.691,1.07,2.83,1.16c0.646,0.04,1.32,0,1.979-0.09c0.73,0.59,1.762,0.62,2.633,0.561
		C29.25,172.46,29.189,172.34,28.98,172.279z"/>
	<path fill="#151515" d="M24.709,163.4c-0.709-3.31-3.93-4.4-7.06-3.7c-2.86,0.65-5.73,2.91-5.65,5.99
		c0.04,1.41,0.91,2.51,2.14,3.22c0.08,0.06,0.17,0.16,0.18,0.3c0.03,0.58-0.42,0.99-0.97,1.14c-0.28,0.08-0.34,0.24,0.02,0.26
		c1.17,0.08,2.54,0.04,3.5-0.74c0.9,0.11,1.779,0.18,2.65,0.12C23.109,169.72,25.49,167.02,24.709,163.4z"/>
</g>
<path fill="#151515" d="M13,218.029c0,1.91,1.48,3.471,3.29,3.471h0.08h9.339c1.811,0,3.291-1.561,3.291-3.471
	c0-1.859-1.391-3.389-3.141-3.469v-0.011c0-2.239-1.719-4.05-3.84-4.05c-1.369,0-2.58,0.76-3.25,1.9
	c-0.23-0.101-0.48-0.16-0.75-0.16c-1.041,0-1.88,0.89-1.88,1.979c0,0.119,0,0.229,0.02,0.34C14.399,214.62,13,216.15,13,218.029z"/>
<g>
	<path d="M18,74c-1.1,0-2-0.9-2-2s0.9-2,2-2c1.1,0,2,0.9,2,2S19.1,74,18,74z M24,73v-2h-2.141c-0.104-0.36-0.24-0.7-0.43-1.02
		l1.52-1.52l-1.41-1.41l-1.52,1.52c-0.32-0.19-0.66-0.33-1.021-0.43V66h-2v2.14c-0.36,0.1-0.7,0.24-1.02,0.43l-1.52-1.52l-1.41,1.41
		l1.52,1.52c-0.19,0.32-0.33,0.66-0.43,1.02H12v2h2.14c0.1,0.36,0.24,0.7,0.43,1.02l-1.52,1.52l1.41,1.41l1.52-1.52
		c0.32,0.19,0.66,0.33,1.02,0.43V78h2v-2.14c0.359-0.1,0.7-0.24,1.02-0.43l1.521,1.52l1.41-1.41l-1.521-1.52
		c0.189-0.32,0.33-0.66,0.43-1.02H24z"/>
	<path d="M18,124c-1.1,0-2-0.9-2-2s0.9-2,2-2c1.1,0,2,0.9,2,2S19.1,124,18,124z M24,123v-2h-2.141c-0.104-0.36-0.24-0.7-0.43-1.02
		l1.52-1.52l-1.41-1.41l-1.52,1.52c-0.32-0.19-0.66-0.33-1.021-0.43V116h-2v2.14c-0.36,0.1-0.7,0.24-1.02,0.43l-1.52-1.52
		l-1.41,1.41l1.52,1.52c-0.19,0.32-0.33,0.66-0.43,1.02H12v2h2.14c0.1,0.36,0.24,0.7,0.43,1.02l-1.52,1.52l1.41,1.41l1.52-1.52
		c0.32,0.19,0.66,0.33,1.02,0.43V128h2v-2.14c0.359-0.1,0.7-0.24,1.02-0.43l1.521,1.52l1.41-1.41l-1.521-1.52
		c0.189-0.32,0.33-0.66,0.43-1.02H24z"/>
</g>
<g>
	<path fill="#151515" d="M15,487.5c-2.49,0-4.5-2.01-4.5-4.5s2.01-4.5,4.5-4.5s4.5,2.01,4.5,4.5S17.49,487.5,15,487.5z M15,477
		c-3.31,0-6,2.689-6,6s2.69,6,6,6c3.311,0,6-2.689,6-6S18.31,477,15,477z"/>
	<path fill="#151515" d="M19.859,488.891c-0.26,0.263-0.26,0.67,0,0.934l2.99,2.986c0.25,0.25,0.67,0.25,0.92,0l1.041-1.041
		c0.25-0.25,0.25-0.67,0-0.92l-2.99-2.987c-0.26-0.263-0.67-0.263-0.93,0L19.859,488.891z"/>
	
		<rect x="17.764" y="487.407" transform="matrix(-0.7072 -0.707 0.707 -0.7072 -310.9788 846.9788)" fill="#151515" width="4.242" height="0.947"/>
</g>
<g>
	<path fill="#333333" d="M26.779,427.937c0.85,0.84,1.346,1.311,2.221,1.311H9c1.21,0,1.37-0.471,2.22-1.311l6.17-6.039
		c1.61-1.525,1.61-1.525,3.219,0L26.779,427.937z"/>
</g>
<g>
	<path fill="#F6F6F6" d="M26.779,457.937c0.85,0.84,1.346,1.311,2.221,1.311H9c1.21,0,1.37-0.471,2.22-1.311l6.17-6.039
		c1.61-1.525,1.61-1.525,3.219,0L26.779,457.937z"/>
</g>
<g>
	<path fill="#FFFFFF" d="M26.779,447.937c0.85,0.84,1.346,1.311,2.221,1.311H9c1.21,0,1.37-0.471,2.22-1.311l6.17-6.039
		c1.61-1.525,1.61-1.525,3.219,0L26.779,447.937z"/>
</g>
<g opacity="0.5">
	<polygon fill="#FFFFFF" points="18.5,358 18.5,368 13.5,363 	"/>
</g>
<path fill="#121212" d="M21,264.221l2.629,4.279H18.37L21,264.221z M21,258.5l-8,13h16L21,258.5z"/>
<polygon opacity="0.5" fill="#FFFFFF" enable-background="new    " points="12.5,564 15.109,561.33 18.37,564.67 24.891,558 
	27.5,560.67 18.37,570 "/>
<path opacity="0.3" fill="#010101" enable-background="new    " d="M11,529.031c0,1.91,1.48,3.471,3.29,3.471h0.08h9.339
	c1.811,0,3.291-1.561,3.291-3.471c0-1.859-1.391-3.393-3.141-3.473v-0.01c0-2.24-1.719-4.051-3.84-4.051
	c-1.371,0-2.583,0.76-3.25,1.9c-0.229-0.104-0.479-0.16-0.75-0.16c-1.039,0-1.879,0.891-1.879,1.979c0,0.119,0,0.23,0.02,0.342
	C12.4,525.621,11,527.152,11,529.031z"/>
<g>
	<path fill="#333333" d="M26.779,626.691c0.851,0.84,2.011,1.311,3.221,1.311H8c1.21,0,2.37-0.471,3.22-1.311l6.17-6.039
		c0.89-0.871,2.331-0.871,3.219,0L26.779,626.691z"/>
</g>
<g>
	<path fill="#111111" d="M23,20.52c0,0.27-0.21,0.48-0.471,0.48h-2.021c-0.26,0-0.47-0.21-0.47-0.48v-6.27
		c0-0.06-0.068-0.08-0.102-0.05l-4.27,4.32c-0.37,0.38-0.97,0.38-1.34,0l-4.27-4.32c-0.031-0.03-0.101-0.01-0.101,0.05v6.27
		c0,0.27-0.21,0.48-0.47,0.48h-2.02C7.21,21,7,20.79,7,20.52V9.48C7,9.21,7.21,9,7.471,9H8.86c0.25,0,0.49,0.1,0.67,0.28l5.301,5.37
		c0.09,0.09,0.25,0.09,0.34,0l5.302-5.37C20.65,9.1,20.891,9,21.141,9h1.389C22.79,9,23,9.21,23,9.48V20.52z"/>
</g>
<g>
	<path fill="#FFFFFF" d="M23,50.52c0,0.27-0.21,0.48-0.471,0.48h-2.021c-0.26,0-0.47-0.21-0.47-0.48v-6.27
		c0-0.06-0.068-0.08-0.102-0.05l-4.27,4.32c-0.37,0.38-0.97,0.38-1.34,0l-4.27-4.32c-0.031-0.03-0.101-0.01-0.101,0.05v6.27
		c0,0.27-0.21,0.48-0.47,0.48h-2.02C7.21,51,7,50.79,7,50.52V39.48C7,39.21,7.21,39,7.471,39H8.86c0.25,0,0.49,0.1,0.67,0.28
		l5.301,5.37c0.09,0.09,0.25,0.09,0.34,0l5.302-5.37c0.18-0.18,0.42-0.28,0.67-0.28h1.389C22.79,39,23,39.21,23,39.48V50.52z"/>
</g>
<polygon opacity="0.5" fill="#FFFFFF" enable-background="new    " points="9.5,679 12.109,676.33 15.37,679.67 21.891,673 
	24.5,675.67 15.37,685 "/>
</svg>
