<?xml version="1.0" encoding="utf-8"?>
<!-- Generator: Adobe Illustrator 16.0.0, SVG Export Plug-In . SVG Version: 6.00 Build 0)  -->
<!DOCTYPE svg PUBLIC "-//W3C//DTD SVG 1.1//EN" "http://www.w3.org/Graphics/SVG/1.1/DTD/svg11.dtd">
<svg version="1.1" id="Layer_1" xmlns="http://www.w3.org/2000/svg" xmlns:xlink="http://www.w3.org/1999/xlink" x="0px" y="0px"
	 width="48px" height="6000px" enable-background="new 0 0 48 6000" xml:space="preserve">
<g>
	<defs>
		<polygon id="SVGID_1_" points="24.333,5.12 24.333,0 24.333,2.06 24.333,20.12 		"/>
	</defs>
	<clipPath id="SVGID_2_">
		<use xlink:href="#SVGID_1_"  overflow="visible"/>
	</clipPath>
	<path clip-path="url(#SVGID_2_)" fill-rule="evenodd" clip-rule="evenodd" fill="#71AD3A" d="M9.333,20.12c0,8.28,6.72,15,15,15
		s15-6.72,15-15c0-8.28-6.72-15-15-15S9.333,11.84,9.333,20.12z M11.333,20.12c0-7.18,5.82-13,13-13s13,5.82,13,13
		c0,7.18-5.82,13-13,13S11.333,27.3,11.333,20.12z"/>
</g>
<g>
	<defs>
		<polygon id="SVGID_3_" points="24.333,45.12 24.333,40 26.333,44.06 24.333,60.12 		"/>
	</defs>
	<clipPath id="SVGID_4_">
		<use xlink:href="#SVGID_3_"  overflow="visible"/>
	</clipPath>
	<path clip-path="url(#SVGID_4_)" fill-rule="evenodd" clip-rule="evenodd" fill="#71AD3A" d="M9.333,60.12c0,8.28,6.72,15,15,15
		s15-6.72,15-15c0-8.28-6.72-15-15-15S9.333,51.84,9.333,60.12z M11.333,60.12c0-7.18,5.82-13,13-13s13,5.82,13,13
		c0,7.18-5.82,13-13,13S11.333,67.3,11.333,60.12z"/>
</g>
<g>
	<defs>
		<polygon id="SVGID_5_" points="24.333,85.12 24.333,80 28.333,84.06 24.333,100.12 		"/>
	</defs>
	<clipPath id="SVGID_6_">
		<use xlink:href="#SVGID_5_"  overflow="visible"/>
	</clipPath>
	<path clip-path="url(#SVGID_6_)" fill-rule="evenodd" clip-rule="evenodd" fill="#71AD3A" d="M9.333,100.12c0,8.28,6.72,15,15,15
		s15-6.72,15-15c0-8.28-6.72-15-15-15S9.333,91.84,9.333,100.12z M11.333,100.12c0-7.18,5.82-13,13-13s13,5.82,13,13
		c0,7.18-5.82,13-13,13S11.333,107.3,11.333,100.12z"/>
</g>
<g>
	<defs>
		<polygon id="SVGID_7_" points="24.333,125.12 24.333,120 30.333,124.06 24.333,140.12 		"/>
	</defs>
	<clipPath id="SVGID_8_">
		<use xlink:href="#SVGID_7_"  overflow="visible"/>
	</clipPath>
	<path clip-path="url(#SVGID_8_)" fill-rule="evenodd" clip-rule="evenodd" fill="#71AD3A" d="M9.333,140.12c0,8.28,6.72,15,15,15
		s15-6.72,15-15c0-8.28-6.72-15-15-15S9.333,131.84,9.333,140.12z M11.333,140.12c0-7.18,5.82-13,13-13s13,5.82,13,13
		c0,7.18-5.82,13-13,13S11.333,147.3,11.333,140.12z"/>
</g>
<g>
	<defs>
		<polygon id="SVGID_9_" points="24.333,165.12 24.333,160 32.333,164.06 24.333,180.12 		"/>
	</defs>
	<clipPath id="SVGID_10_">
		<use xlink:href="#SVGID_9_"  overflow="visible"/>
	</clipPath>
	<path clip-path="url(#SVGID_10_)" fill-rule="evenodd" clip-rule="evenodd" fill="#71AD3A" d="M9.333,180.12c0,8.28,6.72,15,15,15
		s15-6.72,15-15c0-8.28-6.72-15-15-15S9.333,171.84,9.333,180.12z M11.333,180.12c0-7.18,5.82-13,13-13s13,5.82,13,13
		c0,7.18-5.82,13-13,13S11.333,187.3,11.333,180.12z"/>
</g>
<g>
	<defs>
		<polygon id="SVGID_11_" points="24.333,205.12 24.333,200 34.333,204.06 24.333,220.12 		"/>
	</defs>
	<clipPath id="SVGID_12_">
		<use xlink:href="#SVGID_11_"  overflow="visible"/>
	</clipPath>
	<path clip-path="url(#SVGID_12_)" fill-rule="evenodd" clip-rule="evenodd" fill="#71AD3A" d="M9.333,220.12c0,8.28,6.72,15,15,15
		s15-6.72,15-15c0-8.28-6.72-15-15-15S9.333,211.84,9.333,220.12z M11.333,220.12c0-7.18,5.82-13,13-13s13,5.82,13,13
		c0,7.18-5.82,13-13,13S11.333,227.3,11.333,220.12z"/>
</g>
<g>
	<defs>
		<polygon id="SVGID_13_" points="24.333,245.12 24.333,236 36.333,246.06 24.333,260.12 		"/>
	</defs>
	<clipPath id="SVGID_14_">
		<use xlink:href="#SVGID_13_"  overflow="visible"/>
	</clipPath>
	<path clip-path="url(#SVGID_14_)" fill-rule="evenodd" clip-rule="evenodd" fill="#71AD3A" d="M9.333,260.12c0,8.28,6.72,15,15,15
		s15-6.72,15-15c0-8.28-6.72-15-15-15S9.333,251.84,9.333,260.12z M11.333,260.12c0-7.18,5.82-13,13-13s13,5.82,13,13
		c0,7.18-5.82,13-13,13S11.333,267.3,11.333,260.12z"/>
</g>
<g>
	<defs>
		<polygon id="SVGID_15_" points="24.333,285.12 24.333,276 38.333,288.06 24.333,300.12 		"/>
	</defs>
	<clipPath id="SVGID_16_">
		<use xlink:href="#SVGID_15_"  overflow="visible"/>
	</clipPath>
	<path clip-path="url(#SVGID_16_)" fill-rule="evenodd" clip-rule="evenodd" fill="#71AD3A" d="M9.333,300.12c0,8.28,6.72,15,15,15
		s15-6.72,15-15c0-8.28-6.72-15-15-15S9.333,291.84,9.333,300.12z M11.333,300.12c0-7.18,5.82-13,13-13s13,5.82,13,13
		c0,7.18-5.82,13-13,13S11.333,307.3,11.333,300.12z"/>
</g>
<g>
	<defs>
		<polygon id="SVGID_17_" points="24.333,325.12 24.333,316 40.333,330.06 24.333,340.12 		"/>
	</defs>
	<clipPath id="SVGID_18_">
		<use xlink:href="#SVGID_17_"  overflow="visible"/>
	</clipPath>
	<path clip-path="url(#SVGID_18_)" fill-rule="evenodd" clip-rule="evenodd" fill="#71AD3A" d="M9.333,340.12c0,8.28,6.72,15,15,15
		s15-6.72,15-15c0-8.28-6.72-15-15-15S9.333,331.84,9.333,340.12z M11.333,340.12c0-7.18,5.82-13,13-13s13,5.82,13,13
		c0,7.18-5.82,13-13,13S11.333,347.3,11.333,340.12z"/>
</g>
<g>
	<defs>
		<polygon id="SVGID_19_" points="24.333,405.12 24.333,386 42.333,412.06 24.333,420.12 		"/>
	</defs>
	<clipPath id="SVGID_20_">
		<use xlink:href="#SVGID_19_"  overflow="visible"/>
	</clipPath>
	<path clip-path="url(#SVGID_20_)" fill-rule="evenodd" clip-rule="evenodd" fill="#71AD3A" d="M9.333,420.12c0,8.28,6.72,15,15,15
		s15-6.72,15-15c0-8.28-6.72-15-15-15S9.333,411.84,9.333,420.12z M11.333,420.12c0-7.18,5.82-13,13-13s13,5.82,13,13
		c0,7.18-5.82,13-13,13S11.333,427.3,11.333,420.12z"/>
</g>
<g>
	<defs>
		<polygon id="SVGID_21_" points="24.333,365.12 24.333,346 43.333,371.06 24.333,380.12 		"/>
	</defs>
	<clipPath id="SVGID_22_">
		<use xlink:href="#SVGID_21_"  overflow="visible"/>
	</clipPath>
	<path clip-path="url(#SVGID_22_)" fill-rule="evenodd" clip-rule="evenodd" fill="#71AD3A" d="M9.333,380.12c0,8.28,6.72,15,15,15
		s15-6.72,15-15c0-8.28-6.72-15-15-15S9.333,371.84,9.333,380.12z M11.333,380.12c0-7.18,5.82-13,13-13s13,5.82,13,13
		c0,7.18-5.82,13-13,13S11.333,387.3,11.333,380.12z"/>
</g>
<g>
	<defs>
		<polygon id="SVGID_23_" points="24.333,445.12 24.333,426 44.333,454.06 24.333,460.12 		"/>
	</defs>
	<clipPath id="SVGID_24_">
		<use xlink:href="#SVGID_23_"  overflow="visible"/>
	</clipPath>
	<path clip-path="url(#SVGID_24_)" fill-rule="evenodd" clip-rule="evenodd" fill="#71AD3A" d="M9.333,460.12c0,8.28,6.72,15,15,15
		s15-6.72,15-15c0-8.28-6.72-15-15-15S9.333,451.84,9.333,460.12z M11.333,460.12c0-7.18,5.82-13,13-13s13,5.82,13,13
		c0,7.18-5.82,13-13,13S11.333,467.3,11.333,460.12z"/>
</g>
<g>
	<defs>
		<polygon id="SVGID_25_" points="24.333,485.12 24.333,466 46.333,496.06 24.333,500.12 		"/>
	</defs>
	<clipPath id="SVGID_26_">
		<use xlink:href="#SVGID_25_"  overflow="visible"/>
	</clipPath>
	<path clip-path="url(#SVGID_26_)" fill-rule="evenodd" clip-rule="evenodd" fill="#71AD3A" d="M9.333,500.12c0,8.28,6.72,15,15,15
		s15-6.72,15-15c0-8.28-6.72-15-15-15S9.333,491.84,9.333,500.12z M11.333,500.12c0-7.18,5.82-13,13-13s13,5.82,13,13
		c0,7.18-5.82,13-13,13S11.333,507.3,11.333,500.12z"/>
</g>
<g>
	<defs>
		<polygon id="SVGID_27_" points="24.333,525.12 24.333,506 48.333,538.06 24.333,540.12 		"/>
	</defs>
	<clipPath id="SVGID_28_">
		<use xlink:href="#SVGID_27_"  overflow="visible"/>
	</clipPath>
	<path clip-path="url(#SVGID_28_)" fill-rule="evenodd" clip-rule="evenodd" fill="#71AD3A" d="M9.333,540.12c0,8.28,6.72,15,15,15
		s15-6.72,15-15c0-8.28-6.72-15-15-15S9.333,531.84,9.333,540.12z M11.333,540.12c0-7.18,5.82-13,13-13s13,5.82,13,13
		c0,7.18-5.82,13-13,13S11.333,547.3,11.333,540.12z"/>
</g>
<g>
	<defs>
		<polygon id="SVGID_29_" points="24.333,565.12 24.333,546 52.583,579.93 24.333,580.12 		"/>
	</defs>
	<clipPath id="SVGID_30_">
		<use xlink:href="#SVGID_29_"  overflow="visible"/>
	</clipPath>
	<path clip-path="url(#SVGID_30_)" fill-rule="evenodd" clip-rule="evenodd" fill="#71AD3A" d="M9.333,580.12c0,8.28,6.72,15,15,15
		s15-6.72,15-15c0-8.28-6.72-15-15-15S9.333,571.84,9.333,580.12z M11.333,580.12c0-7.18,5.82-13,13-13s13,5.82,13,13
		c0,7.18-5.82,13-13,13S11.333,587.3,11.333,580.12z"/>
</g>
<g>
	<defs>
		<polygon id="SVGID_31_" points="24.333,605.12 24.333,586 44.824,613.06 50.333,624.06 24.333,620.12 		"/>
	</defs>
	<clipPath id="SVGID_32_">
		<use xlink:href="#SVGID_31_"  overflow="visible"/>
	</clipPath>
	<path clip-path="url(#SVGID_32_)" fill-rule="evenodd" clip-rule="evenodd" fill="#71AD3A" d="M9.333,620.12c0,8.28,6.72,15,15,15
		s15-6.72,15-15c0-8.28-6.72-15-15-15S9.333,611.84,9.333,620.12z M11.333,620.12c0-7.18,5.82-13,13-13s13,5.82,13,13
		c0,7.18-5.82,13-13,13S11.333,627.3,11.333,620.12z"/>
</g>
<g>
	<defs>
		<polygon id="SVGID_33_" points="24.333,645.12 24.333,626 42.954,649.62 52.333,666.06 24.333,660.12 		"/>
	</defs>
	<clipPath id="SVGID_34_">
		<use xlink:href="#SVGID_33_"  overflow="visible"/>
	</clipPath>
	<path clip-path="url(#SVGID_34_)" fill-rule="evenodd" clip-rule="evenodd" fill="#71AD3A" d="M9.333,660.12c0,8.28,6.72,15,15,15
		s15-6.72,15-15c0-8.28-6.72-15-15-15S9.333,651.84,9.333,660.12z M11.333,660.12c0-7.18,5.82-13,13-13s13,5.82,13,13
		c0,7.18-5.82,13-13,13S11.333,667.3,11.333,660.12z"/>
</g>
<g>
	<defs>
		<polygon id="SVGID_35_" points="24.333,685.12 24.333,666 42.954,689.62 48.333,710.06 24.333,700.12 		"/>
	</defs>
	<clipPath id="SVGID_36_">
		<use xlink:href="#SVGID_35_"  overflow="visible"/>
	</clipPath>
	<path clip-path="url(#SVGID_36_)" fill-rule="evenodd" clip-rule="evenodd" fill="#71AD3A" d="M9.333,700.12c0,8.28,6.72,15,15,15
		s15-6.72,15-15c0-8.28-6.72-15-15-15S9.333,691.84,9.333,700.12z M11.333,700.12c0-7.18,5.82-13,13-13s13,5.82,13,13
		c0,7.18-5.82,13-13,13S11.333,707.3,11.333,700.12z"/>
</g>
<g>
	<defs>
		<polygon id="SVGID_37_" points="24.333,725.12 24.333,706 42.954,729.62 46.333,752.061 24.333,740.12 		"/>
	</defs>
	<clipPath id="SVGID_38_">
		<use xlink:href="#SVGID_37_"  overflow="visible"/>
	</clipPath>
	<path clip-path="url(#SVGID_38_)" fill-rule="evenodd" clip-rule="evenodd" fill="#71AD3A" d="M9.333,740.12c0,8.28,6.72,15,15,15
		s15-6.72,15-15c0-8.28-6.72-15-15-15S9.333,731.84,9.333,740.12z M11.333,740.12c0-7.18,5.82-13,13-13s13,5.82,13,13
		c0,7.18-5.82,13-13,13S11.333,747.3,11.333,740.12z"/>
</g>
<g>
	<defs>
		<polygon id="SVGID_39_" points="24.333,765.12 24.333,746 42.954,769.62 44.333,794.061 24.333,780.12 		"/>
	</defs>
	<clipPath id="SVGID_40_">
		<use xlink:href="#SVGID_39_"  overflow="visible"/>
	</clipPath>
	<path clip-path="url(#SVGID_40_)" fill-rule="evenodd" clip-rule="evenodd" fill="#71AD3A" d="M9.333,780.12c0,8.28,6.72,15,15,15
		s15-6.72,15-15s-6.72-15-15-15S9.333,771.84,9.333,780.12z M11.333,780.12c0-7.18,5.82-13,13-13s13,5.82,13,13
		c0,7.18-5.82,13-13,13S11.333,787.3,11.333,780.12z"/>
</g>
<g>
	<defs>
		<polygon id="SVGID_41_" points="24.333,805.12 24.333,786 42.954,809.62 43.664,822.12 42.333,836.061 24.333,820.12 		"/>
	</defs>
	<clipPath id="SVGID_42_">
		<use xlink:href="#SVGID_41_"  overflow="visible"/>
	</clipPath>
	<path clip-path="url(#SVGID_42_)" fill-rule="evenodd" clip-rule="evenodd" fill="#71AD3A" d="M9.333,820.12c0,8.28,6.72,15,15,15
		s15-6.72,15-15s-6.72-15-15-15S9.333,811.84,9.333,820.12z M11.333,820.12c0-7.18,5.82-13,13-13s13,5.82,13,13
		c0,7.18-5.82,13-13,13S11.333,827.3,11.333,820.12z"/>
</g>
<g>
	<defs>
		<polygon id="SVGID_43_" points="24.333,845.12 24.333,826 42.954,849.62 43.664,862.12 40.333,878.061 24.333,860.12 		"/>
	</defs>
	<clipPath id="SVGID_44_">
		<use xlink:href="#SVGID_43_"  overflow="visible"/>
	</clipPath>
	<path clip-path="url(#SVGID_44_)" fill-rule="evenodd" clip-rule="evenodd" fill="#71AD3A" d="M9.333,860.12c0,8.28,6.72,15,15,15
		s15-6.72,15-15s-6.72-15-15-15S9.333,851.84,9.333,860.12z M11.333,860.12c0-7.18,5.82-13,13-13s13,5.82,13,13
		c0,7.18-5.82,13-13,13S11.333,867.3,11.333,860.12z"/>
</g>
<g>
	<defs>
		<polygon id="SVGID_45_" points="24.333,885.12 24.333,866 42.954,889.62 43.664,902.12 38.333,920.061 24.333,900.12 		"/>
	</defs>
	<clipPath id="SVGID_46_">
		<use xlink:href="#SVGID_45_"  overflow="visible"/>
	</clipPath>
	<path clip-path="url(#SVGID_46_)" fill-rule="evenodd" clip-rule="evenodd" fill="#71AD3A" d="M9.333,900.12c0,8.28,6.72,15,15,15
		s15-6.72,15-15s-6.72-15-15-15S9.333,891.84,9.333,900.12z M11.333,900.12c0-7.18,5.82-13,13-13s13,5.82,13,13
		c0,7.18-5.82,13-13,13S11.333,907.3,11.333,900.12z"/>
</g>
<g>
	<defs>
		<polygon id="SVGID_47_" points="24.333,925.12 24.333,906 42.954,929.62 43.664,942.12 36.333,962.061 24.333,940.12 		"/>
	</defs>
	<clipPath id="SVGID_48_">
		<use xlink:href="#SVGID_47_"  overflow="visible"/>
	</clipPath>
	<path clip-path="url(#SVGID_48_)" fill-rule="evenodd" clip-rule="evenodd" fill="#71AD3A" d="M9.333,940.12c0,8.28,6.72,15,15,15
		s15-6.72,15-15s-6.72-15-15-15S9.333,931.84,9.333,940.12z M11.333,940.12c0-7.18,5.82-13,13-13s13,5.82,13,13
		c0,7.18-5.82,13-13,13S11.333,947.3,11.333,940.12z"/>
</g>
<g>
	<defs>
		<polygon id="SVGID_49_" points="24.333,965.12 24.333,946 42.954,969.62 43.664,982.12 34.333,1004.061 24.333,980.12 		"/>
	</defs>
	<clipPath id="SVGID_50_">
		<use xlink:href="#SVGID_49_"  overflow="visible"/>
	</clipPath>
	<path clip-path="url(#SVGID_50_)" fill-rule="evenodd" clip-rule="evenodd" fill="#71AD3A" d="M9.333,980.12c0,8.28,6.72,15,15,15
		s15-6.72,15-15s-6.72-15-15-15S9.333,971.84,9.333,980.12z M11.333,980.12c0-7.18,5.82-13,13-13s13,5.82,13,13
		c0,7.18-5.82,13-13,13S11.333,987.3,11.333,980.12z"/>
</g>
<g>
	<defs>
		<polygon id="SVGID_51_" points="24.333,1005.12 24.333,986 42.954,1009.62 43.664,1022.12 32.333,1046.061 24.333,1020.12 		"/>
	</defs>
	<clipPath id="SVGID_52_">
		<use xlink:href="#SVGID_51_"  overflow="visible"/>
	</clipPath>
	<path clip-path="url(#SVGID_52_)" fill-rule="evenodd" clip-rule="evenodd" fill="#71AD3A" d="M9.333,1020.12c0,8.28,6.72,15,15,15
		s15-6.72,15-15s-6.72-15-15-15S9.333,1011.84,9.333,1020.12z M11.333,1020.12c0-7.18,5.82-13,13-13s13,5.82,13,13
		c0,7.18-5.82,13-13,13S11.333,1027.3,11.333,1020.12z"/>
</g>
<g>
	<defs>
		<polygon id="SVGID_53_" points="24.333,1045.12 24.333,1026 42.954,1049.62 43.664,1062.12 30.333,1088.061 24.333,1060.12 		"/>
	</defs>
	<clipPath id="SVGID_54_">
		<use xlink:href="#SVGID_53_"  overflow="visible"/>
	</clipPath>
	<path clip-path="url(#SVGID_54_)" fill-rule="evenodd" clip-rule="evenodd" fill="#71AD3A" d="M9.333,1060.12c0,8.28,6.72,15,15,15
		s15-6.72,15-15s-6.72-15-15-15S9.333,1051.84,9.333,1060.12z M11.333,1060.12c0-7.18,5.82-13,13-13s13,5.82,13,13
		c0,7.18-5.82,13-13,13S11.333,1067.3,11.333,1060.12z"/>
</g>
<g>
	<defs>
		<polygon id="SVGID_55_" points="24.333,1085.12 24.333,1066 42.954,1089.62 43.664,1102.12 28.333,1130.061 24.333,1100.12 		"/>
	</defs>
	<clipPath id="SVGID_56_">
		<use xlink:href="#SVGID_55_"  overflow="visible"/>
	</clipPath>
	<path clip-path="url(#SVGID_56_)" fill-rule="evenodd" clip-rule="evenodd" fill="#71AD3A" d="M9.333,1100.12c0,8.28,6.72,15,15,15
		s15-6.72,15-15s-6.72-15-15-15S9.333,1091.84,9.333,1100.12z M11.333,1100.12c0-7.18,5.82-13,13-13s13,5.82,13,13
		c0,7.18-5.82,13-13,13S11.333,1107.3,11.333,1100.12z"/>
</g>
<g>
	<defs>
		<polygon id="SVGID_57_" points="24.333,1125.12 24.333,1106 42.954,1129.62 43.664,1142.12 26.333,1172.061 24.333,1140.12 		"/>
	</defs>
	<clipPath id="SVGID_58_">
		<use xlink:href="#SVGID_57_"  overflow="visible"/>
	</clipPath>
	<path clip-path="url(#SVGID_58_)" fill-rule="evenodd" clip-rule="evenodd" fill="#71AD3A" d="M9.333,1140.12c0,8.28,6.72,15,15,15
		s15-6.72,15-15s-6.72-15-15-15S9.333,1131.84,9.333,1140.12z M11.333,1140.12c0-7.18,5.82-13,13-13s13,5.82,13,13
		c0,7.18-5.82,13-13,13S11.333,1147.3,11.333,1140.12z"/>
</g>
<g>
	<defs>
		<polygon id="SVGID_59_" points="24.333,1165.12 24.333,1146 42.954,1169.62 43.664,1182.12 24.333,1214.061 24.333,1180.12 		"/>
	</defs>
	<clipPath id="SVGID_60_">
		<use xlink:href="#SVGID_59_"  overflow="visible"/>
	</clipPath>
	<path clip-path="url(#SVGID_60_)" fill-rule="evenodd" clip-rule="evenodd" fill="#71AD3A" d="M9.333,1180.12c0,8.28,6.72,15,15,15
		s15-6.72,15-15s-6.72-15-15-15S9.333,1171.84,9.333,1180.12z M11.333,1180.12c0-7.18,5.82-13,13-13s13,5.82,13,13
		c0,7.18-5.82,13-13,13S11.333,1187.3,11.333,1180.12z"/>
</g>
<g>
	<defs>
		<polygon id="SVGID_61_" points="24.333,1205.12 24.333,1186 42.954,1209.62 43.664,1222.12 30.343,1244.13 19.333,1250.061 
			24.333,1220.12 		"/>
	</defs>
	<clipPath id="SVGID_62_">
		<use xlink:href="#SVGID_61_"  overflow="visible"/>
	</clipPath>
	<path clip-path="url(#SVGID_62_)" fill-rule="evenodd" clip-rule="evenodd" fill="#71AD3A" d="M9.333,1220.12c0,8.28,6.72,15,15,15
		s15-6.72,15-15s-6.72-15-15-15S9.333,1211.84,9.333,1220.12z M11.333,1220.12c0-7.18,5.82-13,13-13s13,5.82,13,13
		c0,7.18-5.82,13-13,13S11.333,1227.3,11.333,1220.12z"/>
</g>
<g>
	<defs>
		<polygon id="SVGID_63_" points="24.333,1245.12 24.333,1226 42.954,1249.62 43.664,1262.12 30.343,1284.13 15.333,1286.061 
			24.333,1260.12 		"/>
	</defs>
	<clipPath id="SVGID_64_">
		<use xlink:href="#SVGID_63_"  overflow="visible"/>
	</clipPath>
	<path clip-path="url(#SVGID_64_)" fill-rule="evenodd" clip-rule="evenodd" fill="#71AD3A" d="M9.333,1260.12c0,8.28,6.72,15,15,15
		s15-6.72,15-15s-6.72-15-15-15S9.333,1251.84,9.333,1260.12z M11.333,1260.12c0-7.18,5.82-13,13-13s13,5.82,13,13
		c0,7.18-5.82,13-13,13S11.333,1267.3,11.333,1260.12z"/>
</g>
<g>
	<defs>
		<polygon id="SVGID_65_" points="24.333,1285.12 24.333,1266 42.954,1289.62 43.664,1302.12 30.343,1324.13 13.333,1324.061 
			24.333,1300.12 		"/>
	</defs>
	<clipPath id="SVGID_66_">
		<use xlink:href="#SVGID_65_"  overflow="visible"/>
	</clipPath>
	<path clip-path="url(#SVGID_66_)" fill-rule="evenodd" clip-rule="evenodd" fill="#71AD3A" d="M9.333,1300.12c0,8.28,6.72,15,15,15
		s15-6.72,15-15s-6.72-15-15-15S9.333,1291.84,9.333,1300.12z M11.333,1300.12c0-7.18,5.82-13,13-13s13,5.82,13,13
		c0,7.18-5.82,13-13,13S11.333,1307.3,11.333,1300.12z"/>
</g>
<g>
	<defs>
		<polygon id="SVGID_67_" points="24.333,1325.12 24.333,1306 42.954,1329.62 43.664,1342.12 30.343,1364.13 11.333,1362.06 
			24.333,1340.12 		"/>
	</defs>
	<clipPath id="SVGID_68_">
		<use xlink:href="#SVGID_67_"  overflow="visible"/>
	</clipPath>
	<path clip-path="url(#SVGID_68_)" fill-rule="evenodd" clip-rule="evenodd" fill="#71AD3A" d="M9.333,1340.12c0,8.28,6.72,15,15,15
		s15-6.72,15-15s-6.72-15-15-15S9.333,1331.84,9.333,1340.12z M11.333,1340.12c0-7.18,5.82-13,13-13s13,5.82,13,13
		c0,7.18-5.82,13-13,13S11.333,1347.3,11.333,1340.12z"/>
</g>
<g>
	<defs>
		<polygon id="SVGID_69_" points="24.333,1365.12 24.333,1346 42.954,1369.62 43.664,1382.12 30.343,1404.13 9.333,1400.06 
			24.333,1380.12 		"/>
	</defs>
	<clipPath id="SVGID_70_">
		<use xlink:href="#SVGID_69_"  overflow="visible"/>
	</clipPath>
	<path clip-path="url(#SVGID_70_)" fill-rule="evenodd" clip-rule="evenodd" fill="#71AD3A" d="M9.333,1380.12c0,8.28,6.72,15,15,15
		s15-6.72,15-15s-6.72-15-15-15S9.333,1371.84,9.333,1380.12z M11.333,1380.12c0-7.18,5.82-13,13-13s13,5.82,13,13
		c0,7.18-5.82,13-13,13S11.333,1387.3,11.333,1380.12z"/>
</g>
<g>
	<defs>
		<polygon id="SVGID_71_" points="24.333,1405.12 24.333,1386 42.954,1409.62 43.664,1422.12 30.343,1444.13 7.333,1438.06 
			24.333,1420.12 		"/>
	</defs>
	<clipPath id="SVGID_72_">
		<use xlink:href="#SVGID_71_"  overflow="visible"/>
	</clipPath>
	<path clip-path="url(#SVGID_72_)" fill-rule="evenodd" clip-rule="evenodd" fill="#71AD3A" d="M9.333,1420.12c0,8.28,6.72,15,15,15
		s15-6.72,15-15s-6.72-15-15-15S9.333,1411.84,9.333,1420.12z M11.333,1420.12c0-7.18,5.82-13,13-13s13,5.82,13,13
		c0,7.18-5.82,13-13,13S11.333,1427.3,11.333,1420.12z"/>
</g>
<g>
	<defs>
		<polygon id="SVGID_73_" points="24.333,1445.12 24.333,1426 42.954,1449.62 43.664,1462.12 30.343,1484.13 5.333,1476.06 
			24.333,1460.12 		"/>
	</defs>
	<clipPath id="SVGID_74_">
		<use xlink:href="#SVGID_73_"  overflow="visible"/>
	</clipPath>
	<path clip-path="url(#SVGID_74_)" fill-rule="evenodd" clip-rule="evenodd" fill="#71AD3A" d="M9.333,1460.12c0,8.28,6.72,15,15,15
		s15-6.72,15-15s-6.72-15-15-15S9.333,1451.84,9.333,1460.12z M11.333,1460.12c0-7.18,5.82-13,13-13s13,5.82,13,13
		c0,7.18-5.82,13-13,13S11.333,1467.3,11.333,1460.12z"/>
</g>
<g>
	<defs>
		<polygon id="SVGID_75_" points="24.333,1485.12 24.333,1466 42.954,1489.62 43.664,1502.12 30.343,1524.13 3.333,1514.06 
			24.333,1500.12 		"/>
	</defs>
	<clipPath id="SVGID_76_">
		<use xlink:href="#SVGID_75_"  overflow="visible"/>
	</clipPath>
	<path clip-path="url(#SVGID_76_)" fill-rule="evenodd" clip-rule="evenodd" fill="#71AD3A" d="M9.333,1500.12c0,8.28,6.72,15,15,15
		s15-6.72,15-15s-6.72-15-15-15S9.333,1491.84,9.333,1500.12z M11.333,1500.12c0-7.18,5.82-13,13-13s13,5.82,13,13
		c0,7.18-5.82,13-13,13S11.333,1507.3,11.333,1500.12z"/>
</g>
<g>
	<defs>
		<polygon id="SVGID_77_" points="24.333,1565.12 24.333,1546 42.954,1569.62 43.664,1582.12 30.343,1604.13 1.333,1592.06 
			24.333,1580.12 		"/>
	</defs>
	<clipPath id="SVGID_78_">
		<use xlink:href="#SVGID_77_"  overflow="visible"/>
	</clipPath>
	<path clip-path="url(#SVGID_78_)" fill-rule="evenodd" clip-rule="evenodd" fill="#71AD3A" d="M9.333,1580.12c0,8.28,6.72,15,15,15
		s15-6.72,15-15s-6.72-15-15-15S9.333,1571.84,9.333,1580.12z M11.333,1580.12c0-7.18,5.82-13,13-13s13,5.82,13,13
		c0,7.18-5.82,13-13,13S11.333,1587.3,11.333,1580.12z"/>
</g>
<g>
	<defs>
		<polygon id="SVGID_79_" points="24.333,1525.12 24.333,1506 42.954,1529.62 43.664,1542.12 30.343,1564.13 1.333,1551.06 
			24.333,1540.12 		"/>
	</defs>
	<clipPath id="SVGID_80_">
		<use xlink:href="#SVGID_79_"  overflow="visible"/>
	</clipPath>
	<path clip-path="url(#SVGID_80_)" fill-rule="evenodd" clip-rule="evenodd" fill="#71AD3A" d="M9.333,1540.12c0,8.28,6.72,15,15,15
		s15-6.72,15-15s-6.72-15-15-15S9.333,1531.84,9.333,1540.12z M11.333,1540.12c0-7.18,5.82-13,13-13s13,5.82,13,13
		c0,7.18-5.82,13-13,13S11.333,1547.3,11.333,1540.12z"/>
</g>
<g>
	<defs>
		<polygon id="SVGID_81_" points="24.333,1605.12 24.333,1586 42.954,1609.62 43.664,1622.12 30.343,1644.13 -0.667,1630.06 
			24.333,1620.12 		"/>
	</defs>
	<clipPath id="SVGID_82_">
		<use xlink:href="#SVGID_81_"  overflow="visible"/>
	</clipPath>
	<path clip-path="url(#SVGID_82_)" fill-rule="evenodd" clip-rule="evenodd" fill="#71AD3A" d="M9.333,1620.12c0,8.28,6.72,15,15,15
		s15-6.72,15-15s-6.72-15-15-15S9.333,1611.84,9.333,1620.12z M11.333,1620.12c0-7.18,5.82-13,13-13s13,5.82,13,13
		c0,7.18-5.82,13-13,13S11.333,1627.3,11.333,1620.12z"/>
</g>
<g>
	<defs>
		<polygon id="SVGID_83_" points="24.333,1645.12 24.333,1626 42.954,1649.62 43.664,1662.12 30.343,1684.13 12.854,1676.19 
			-2.667,1668.06 24.333,1660.12 		"/>
	</defs>
	<clipPath id="SVGID_84_">
		<use xlink:href="#SVGID_83_"  overflow="visible"/>
	</clipPath>
	<path clip-path="url(#SVGID_84_)" fill-rule="evenodd" clip-rule="evenodd" fill="#71AD3A" d="M9.333,1660.12c0,8.28,6.72,15,15,15
		s15-6.72,15-15s-6.72-15-15-15S9.333,1651.84,9.333,1660.12z M11.333,1660.12c0-7.18,5.82-13,13-13s13,5.82,13,13
		c0,7.18-5.82,13-13,13S11.333,1667.3,11.333,1660.12z"/>
</g>
<g>
	<defs>
		<polygon id="SVGID_85_" points="24.333,1685.12 24.333,1666 42.954,1689.62 43.664,1702.12 30.343,1724.13 12.854,1716.19 
			-4.667,1706.06 24.333,1700.12 		"/>
	</defs>
	<clipPath id="SVGID_86_">
		<use xlink:href="#SVGID_85_"  overflow="visible"/>
	</clipPath>
	<path clip-path="url(#SVGID_86_)" fill-rule="evenodd" clip-rule="evenodd" fill="#71AD3A" d="M9.333,1700.12c0,8.28,6.72,15,15,15
		s15-6.72,15-15s-6.72-15-15-15S9.333,1691.84,9.333,1700.12z M11.333,1700.12c0-7.18,5.82-13,13-13s13,5.82,13,13
		c0,7.18-5.82,13-13,13S11.333,1707.3,11.333,1700.12z"/>
</g>
<g>
	<defs>
		<polygon id="SVGID_87_" points="24.333,1725.12 24.333,1706 42.954,1729.62 43.664,1742.12 30.343,1764.13 12.854,1756.19 
			-6.667,1744.06 24.333,1740.12 		"/>
	</defs>
	<clipPath id="SVGID_88_">
		<use xlink:href="#SVGID_87_"  overflow="visible"/>
	</clipPath>
	<path clip-path="url(#SVGID_88_)" fill-rule="evenodd" clip-rule="evenodd" fill="#71AD3A" d="M9.333,1740.12c0,8.28,6.72,15,15,15
		s15-6.72,15-15s-6.72-15-15-15S9.333,1731.84,9.333,1740.12z M11.333,1740.12c0-7.18,5.82-13,13-13s13,5.82,13,13
		c0,7.18-5.82,13-13,13S11.333,1747.3,11.333,1740.12z"/>
</g>
<g>
	<defs>
		<polygon id="SVGID_89_" points="24.333,1765.12 24.333,1746 42.954,1769.62 43.664,1782.12 30.343,1804.13 12.854,1796.19 
			6.593,1791.79 -8.667,1777.06 24.333,1780.12 		"/>
	</defs>
	<clipPath id="SVGID_90_">
		<use xlink:href="#SVGID_89_"  overflow="visible"/>
	</clipPath>
	<path clip-path="url(#SVGID_90_)" fill-rule="evenodd" clip-rule="evenodd" fill="#71AD3A" d="M9.333,1780.12c0,8.28,6.72,15,15,15
		s15-6.72,15-15s-6.72-15-15-15S9.333,1771.84,9.333,1780.12z M11.333,1780.12c0-7.18,5.82-13,13-13s13,5.82,13,13
		c0,7.18-5.82,13-13,13S11.333,1787.3,11.333,1780.12z"/>
</g>
<g>
	<defs>
		<polygon id="SVGID_91_" points="24.333,1805.12 24.333,1786 42.954,1809.62 43.664,1822.12 30.343,1844.13 12.854,1836.19 
			6.593,1831.79 -8.667,1813.06 24.333,1820.12 		"/>
	</defs>
	<clipPath id="SVGID_92_">
		<use xlink:href="#SVGID_91_"  overflow="visible"/>
	</clipPath>
	<path clip-path="url(#SVGID_92_)" fill-rule="evenodd" clip-rule="evenodd" fill="#71AD3A" d="M9.333,1820.12c0,8.28,6.72,15,15,15
		s15-6.72,15-15s-6.72-15-15-15S9.333,1811.84,9.333,1820.12z M11.333,1820.12c0-7.18,5.82-13,13-13s13,5.82,13,13
		c0,7.18-5.82,13-13,13S11.333,1827.3,11.333,1820.12z"/>
</g>
<g>
	<defs>
		<polygon id="SVGID_93_" points="24.333,1845.12 24.333,1826 42.954,1849.62 43.664,1862.12 30.343,1884.13 12.854,1876.19 
			6.593,1871.79 -6.667,1851.06 24.333,1860.12 		"/>
	</defs>
	<clipPath id="SVGID_94_">
		<use xlink:href="#SVGID_93_"  overflow="visible"/>
	</clipPath>
	<path clip-path="url(#SVGID_94_)" fill-rule="evenodd" clip-rule="evenodd" fill="#71AD3A" d="M9.333,1860.12c0,8.28,6.72,15,15,15
		s15-6.72,15-15s-6.72-15-15-15S9.333,1851.84,9.333,1860.12z M11.333,1860.12c0-7.18,5.82-13,13-13s13,5.82,13,13
		c0,7.18-5.82,13-13,13S11.333,1867.3,11.333,1860.12z"/>
</g>
<g>
	<defs>
		<polygon id="SVGID_95_" points="24.333,1885.12 24.333,1866 42.954,1889.62 43.664,1902.12 30.343,1924.13 12.854,1916.19 
			6.593,1911.79 -4.667,1889.06 24.333,1900.12 		"/>
	</defs>
	<clipPath id="SVGID_96_">
		<use xlink:href="#SVGID_95_"  overflow="visible"/>
	</clipPath>
	<path clip-path="url(#SVGID_96_)" fill-rule="evenodd" clip-rule="evenodd" fill="#71AD3A" d="M9.333,1900.12c0,8.28,6.72,15,15,15
		s15-6.72,15-15s-6.72-15-15-15S9.333,1891.84,9.333,1900.12z M11.333,1900.12c0-7.18,5.82-13,13-13s13,5.82,13,13
		c0,7.18-5.82,13-13,13S11.333,1907.3,11.333,1900.12z"/>
</g>
<g>
	<defs>
		<polygon id="SVGID_97_" points="24.333,1925.12 24.333,1906 42.954,1929.62 43.664,1942.12 30.343,1964.13 12.854,1956.19 
			6.593,1951.79 -2.667,1927.06 24.333,1940.12 		"/>
	</defs>
	<clipPath id="SVGID_98_">
		<use xlink:href="#SVGID_97_"  overflow="visible"/>
	</clipPath>
	<path clip-path="url(#SVGID_98_)" fill-rule="evenodd" clip-rule="evenodd" fill="#71AD3A" d="M9.333,1940.12c0,8.28,6.72,15,15,15
		s15-6.72,15-15s-6.72-15-15-15S9.333,1931.84,9.333,1940.12z M11.333,1940.12c0-7.18,5.82-13,13-13s13,5.82,13,13
		c0,7.18-5.82,13-13,13S11.333,1947.3,11.333,1940.12z"/>
</g>
<g>
	<defs>
		<polygon id="SVGID_99_" points="24.333,1965.12 24.333,1946 42.954,1969.62 43.664,1982.12 30.343,2004.13 12.854,1996.19 
			6.593,1991.79 -0.667,1965.06 24.333,1980.12 		"/>
	</defs>
	<clipPath id="SVGID_100_">
		<use xlink:href="#SVGID_99_"  overflow="visible"/>
	</clipPath>
	<path clip-path="url(#SVGID_100_)" fill-rule="evenodd" clip-rule="evenodd" fill="#71AD3A" d="M9.333,1980.12
		c0,8.28,6.72,15,15,15s15-6.72,15-15s-6.72-15-15-15S9.333,1971.84,9.333,1980.12z M11.333,1980.12c0-7.18,5.82-13,13-13
		s13,5.82,13,13c0,7.18-5.82,13-13,13S11.333,1987.3,11.333,1980.12z"/>
</g>
<g>
	<defs>
		<polygon id="SVGID_101_" points="24.333,2005.12 24.333,1986 42.954,2009.62 43.664,2022.12 30.343,2044.13 12.854,2036.19 
			6.593,2031.79 2.583,2009.87 1.333,2003.06 24.333,2020.12 		"/>
	</defs>
	<clipPath id="SVGID_102_">
		<use xlink:href="#SVGID_101_"  overflow="visible"/>
	</clipPath>
	<path clip-path="url(#SVGID_102_)" fill-rule="evenodd" clip-rule="evenodd" fill="#71AD3A" d="M9.333,2020.12
		c0,8.28,6.72,15,15,15s15-6.72,15-15s-6.72-15-15-15S9.333,2011.84,9.333,2020.12z M11.333,2020.12c0-7.18,5.82-13,13-13
		s13,5.82,13,13c0,7.18-5.82,13-13,13S11.333,2027.3,11.333,2020.12z"/>
</g>
<g>
	<defs>
		<polygon id="SVGID_103_" points="24.333,2045.12 24.333,2026 42.954,2049.62 43.664,2062.12 30.343,2084.13 12.854,2076.19 
			6.593,2071.79 2.583,2049.87 3.333,2041.06 24.333,2060.12 		"/>
	</defs>
	<clipPath id="SVGID_104_">
		<use xlink:href="#SVGID_103_"  overflow="visible"/>
	</clipPath>
	<path clip-path="url(#SVGID_104_)" fill-rule="evenodd" clip-rule="evenodd" fill="#71AD3A" d="M9.333,2060.12
		c0,8.28,6.72,15,15,15s15-6.72,15-15s-6.72-15-15-15S9.333,2051.84,9.333,2060.12z M11.333,2060.12c0-7.18,5.82-13,13-13
		s13,5.82,13,13c0,7.18-5.82,13-13,13S11.333,2067.3,11.333,2060.12z"/>
</g>
<g>
	<defs>
		<polygon id="SVGID_105_" points="24.333,2085.12 24.333,2066 42.954,2089.62 43.664,2102.12 30.343,2124.13 12.854,2116.19 
			6.593,2111.79 2.583,2089.87 5.333,2079.06 24.333,2100.12 		"/>
	</defs>
	<clipPath id="SVGID_106_">
		<use xlink:href="#SVGID_105_"  overflow="visible"/>
	</clipPath>
	<path clip-path="url(#SVGID_106_)" fill-rule="evenodd" clip-rule="evenodd" fill="#71AD3A" d="M9.333,2100.12
		c0,8.28,6.72,15,15,15s15-6.72,15-15s-6.72-15-15-15S9.333,2091.84,9.333,2100.12z M11.333,2100.12c0-7.18,5.82-13,13-13
		s13,5.82,13,13c0,7.18-5.82,13-13,13S11.333,2107.3,11.333,2100.12z"/>
</g>
<g>
	<defs>
		<polygon id="SVGID_107_" points="24.333,2125.12 24.333,2106 42.954,2129.62 43.664,2142.12 30.343,2164.13 12.854,2156.19 
			6.593,2151.79 2.583,2129.87 5.333,2119.06 24.333,2140.12 		"/>
	</defs>
	<clipPath id="SVGID_108_">
		<use xlink:href="#SVGID_107_"  overflow="visible"/>
	</clipPath>
	<path clip-path="url(#SVGID_108_)" fill-rule="evenodd" clip-rule="evenodd" fill="#71AD3A" d="M9.333,2140.12
		c0,8.28,6.72,15,15,15s15-6.72,15-15s-6.72-15-15-15S9.333,2131.84,9.333,2140.12z M11.333,2140.12c0-7.18,5.82-13,13-13
		s13,5.82,13,13c0,7.18-5.82,13-13,13S11.333,2147.3,11.333,2140.12z"/>
</g>
<g>
	<defs>
		<polygon id="SVGID_109_" points="24.333,2165.12 24.333,2146 42.954,2169.62 43.664,2182.12 30.343,2204.13 12.854,2196.19 
			6.593,2191.79 2.583,2169.87 7.333,2157.06 24.333,2180.12 		"/>
	</defs>
	<clipPath id="SVGID_110_">
		<use xlink:href="#SVGID_109_"  overflow="visible"/>
	</clipPath>
	<path clip-path="url(#SVGID_110_)" fill-rule="evenodd" clip-rule="evenodd" fill="#71AD3A" d="M9.333,2180.12
		c0,8.28,6.72,15,15,15s15-6.72,15-15s-6.72-15-15-15S9.333,2171.84,9.333,2180.12z M11.333,2180.12c0-7.18,5.82-13,13-13
		s13,5.82,13,13c0,7.18-5.82,13-13,13S11.333,2187.3,11.333,2180.12z"/>
</g>
<g>
	<defs>
		<polygon id="SVGID_111_" points="24.333,2205.12 24.333,2186 42.954,2209.62 43.664,2222.12 30.343,2244.13 12.854,2236.19 
			6.593,2231.79 2.583,2209.87 9.333,2195.06 24.333,2220.12 		"/>
	</defs>
	<clipPath id="SVGID_112_">
		<use xlink:href="#SVGID_111_"  overflow="visible"/>
	</clipPath>
	<path clip-path="url(#SVGID_112_)" fill-rule="evenodd" clip-rule="evenodd" fill="#71AD3A" d="M9.333,2220.12
		c0,8.28,6.72,15,15,15s15-6.72,15-15s-6.72-15-15-15S9.333,2211.84,9.333,2220.12z M11.333,2220.12c0-7.18,5.82-13,13-13
		s13,5.82,13,13c0,7.18-5.82,13-13,13S11.333,2227.3,11.333,2220.12z"/>
</g>
<g>
	<defs>
		<polygon id="SVGID_113_" points="24.333,2245.12 24.333,2226 42.954,2249.62 43.664,2262.12 30.343,2284.13 12.854,2276.19 
			6.593,2271.79 2.583,2249.87 14.333,2232.06 24.333,2260.12 		"/>
	</defs>
	<clipPath id="SVGID_114_">
		<use xlink:href="#SVGID_113_"  overflow="visible"/>
	</clipPath>
	<path clip-path="url(#SVGID_114_)" fill-rule="evenodd" clip-rule="evenodd" fill="#71AD3A" d="M9.333,2260.12
		c0,8.28,6.72,15,15,15s15-6.72,15-15s-6.72-15-15-15S9.333,2251.84,9.333,2260.12z M11.333,2260.12c0-7.18,5.82-13,13-13
		s13,5.82,13,13c0,7.18-5.82,13-13,13S11.333,2267.3,11.333,2260.12z"/>
</g>
<g>
	<defs>
		<polygon id="SVGID_115_" points="24.333,2285.12 24.333,2266 42.954,2289.62 43.664,2302.12 30.343,2324.13 12.854,2316.19 
			6.593,2311.79 2.583,2289.87 16.333,2270.06 24.333,2300.12 		"/>
	</defs>
	<clipPath id="SVGID_116_">
		<use xlink:href="#SVGID_115_"  overflow="visible"/>
	</clipPath>
	<path clip-path="url(#SVGID_116_)" fill-rule="evenodd" clip-rule="evenodd" fill="#71AD3A" d="M9.333,2300.12
		c0,8.28,6.72,15,15,15s15-6.72,15-15s-6.72-15-15-15S9.333,2291.84,9.333,2300.12z M11.333,2300.12c0-7.18,5.82-13,13-13
		s13,5.82,13,13c0,7.18-5.82,13-13,13S11.333,2307.3,11.333,2300.12z"/>
</g>
<g>
	<defs>
		<polygon id="SVGID_117_" points="24.333,2325.12 24.333,2306 42.954,2329.62 43.664,2342.12 30.343,2364.13 12.854,2356.19 
			6.593,2351.79 2.583,2329.87 20.333,2306.06 24.333,2340.12 		"/>
	</defs>
	<clipPath id="SVGID_118_">
		<use xlink:href="#SVGID_117_"  overflow="visible"/>
	</clipPath>
	<path clip-path="url(#SVGID_118_)" fill-rule="evenodd" clip-rule="evenodd" fill="#71AD3A" d="M9.333,2340.12
		c0,8.28,6.72,15,15,15s15-6.72,15-15s-6.72-15-15-15S9.333,2331.84,9.333,2340.12z M11.333,2340.12c0-7.18,5.82-13,13-13
		s13,5.82,13,13c0,7.18-5.82,13-13,13S11.333,2347.3,11.333,2340.12z"/>
</g>
<g>
	<defs>
		<polygon id="SVGID_119_" points="24.333,2365.12 24.333,2346 42.954,2369.62 43.664,2382.12 30.343,2404.13 12.854,2396.19 
			6.593,2391.79 2.583,2369.87 24.333,2344.06 24.333,2380.12 		"/>
	</defs>
	<clipPath id="SVGID_120_">
		<use xlink:href="#SVGID_119_"  overflow="visible"/>
	</clipPath>
	<path clip-path="url(#SVGID_120_)" fill-rule="evenodd" clip-rule="evenodd" fill="#71AD3A" d="M9.333,2380.12
		c0,8.28,6.72,15,15,15s15-6.72,15-15s-6.72-15-15-15S9.333,2371.84,9.333,2380.12z M11.333,2380.12c0-7.18,5.82-13,13-13
		s13,5.82,13,13c0,7.18-5.82,13-13,13S11.333,2387.3,11.333,2380.12z"/>
</g>
<g>
	<defs>
		<polygon id="SVGID_121_" points="24.333,2401.12 24.333,2371.12 24.333,2390.12 24.333,2420.12 		"/>
	</defs>
	<clipPath id="SVGID_122_">
		<use xlink:href="#SVGID_121_"  overflow="visible"/>
	</clipPath>
	<path clip-path="url(#SVGID_122_)" fill-rule="evenodd" clip-rule="evenodd" fill="#06A0EC" d="M5.333,2420.12
		c0,10.49,8.51,19,19,19s19-8.51,19-19s-8.51-19-19-19S5.333,2409.63,5.333,2420.12z M7.333,2420.12c0-9.39,7.61-17,17-17
		s17,7.61,17,17c0,9.39-7.61,17-17,17S7.333,2429.51,7.333,2420.12z"/>
</g>
<g>
	<defs>
		<polygon id="SVGID_123_" points="24.333,2441.12 24.333,2411.12 27.333,2433.12 24.333,2460.12 		"/>
	</defs>
	<clipPath id="SVGID_124_">
		<use xlink:href="#SVGID_123_"  overflow="visible"/>
	</clipPath>
	<path clip-path="url(#SVGID_124_)" fill-rule="evenodd" clip-rule="evenodd" fill="#06A0EC" d="M5.333,2460.12
		c0,10.49,8.51,19,19,19s19-8.51,19-19s-8.51-19-19-19S5.333,2449.63,5.333,2460.12z M7.333,2460.12c0-9.39,7.61-17,17-17
		s17,7.61,17,17c0,9.39-7.61,17-17,17S7.333,2469.51,7.333,2460.12z"/>
</g>
<g>
	<defs>
		<polygon id="SVGID_125_" points="24.333,2481.12 24.333,2451.12 30.333,2476.12 24.333,2500.12 		"/>
	</defs>
	<clipPath id="SVGID_126_">
		<use xlink:href="#SVGID_125_"  overflow="visible"/>
	</clipPath>
	<path clip-path="url(#SVGID_126_)" fill-rule="evenodd" clip-rule="evenodd" fill="#06A0EC" d="M5.333,2500.12
		c0,10.49,8.51,19,19,19s19-8.51,19-19s-8.51-19-19-19S5.333,2489.63,5.333,2500.12z M7.333,2500.12c0-9.39,7.61-17,17-17
		s17,7.61,17,17c0,9.39-7.61,17-17,17S7.333,2509.51,7.333,2500.12z"/>
</g>
<g>
	<defs>
		<polygon id="SVGID_127_" points="24.333,2521.12 24.333,2491.12 33.333,2519.12 24.333,2540.12 		"/>
	</defs>
	<clipPath id="SVGID_128_">
		<use xlink:href="#SVGID_127_"  overflow="visible"/>
	</clipPath>
	<path clip-path="url(#SVGID_128_)" fill-rule="evenodd" clip-rule="evenodd" fill="#06A0EC" d="M5.333,2540.12
		c0,10.49,8.51,19,19,19s19-8.51,19-19s-8.51-19-19-19S5.333,2529.63,5.333,2540.12z M7.333,2540.12c0-9.39,7.61-17,17-17
		s17,7.61,17,17c0,9.39-7.61,17-17,17S7.333,2549.51,7.333,2540.12z"/>
</g>
<g>
	<defs>
		<polygon id="SVGID_129_" points="24.333,2601.12 24.333,2571.12 36.333,2602.12 24.333,2620.12 		"/>
	</defs>
	<clipPath id="SVGID_130_">
		<use xlink:href="#SVGID_129_"  overflow="visible"/>
	</clipPath>
	<path clip-path="url(#SVGID_130_)" fill-rule="evenodd" clip-rule="evenodd" fill="#06A0EC" d="M5.333,2620.12
		c0,10.49,8.51,19,19,19s19-8.51,19-19s-8.51-19-19-19S5.333,2609.63,5.333,2620.12z M7.333,2620.12c0-9.39,7.61-17,17-17
		s17,7.61,17,17c0,9.39-7.61,17-17,17S7.333,2629.51,7.333,2620.12z"/>
</g>
<g>
	<defs>
		<polygon id="SVGID_131_" points="24.333,2561.12 24.333,2531.12 37.333,2562.12 24.333,2580.12 		"/>
	</defs>
	<clipPath id="SVGID_132_">
		<use xlink:href="#SVGID_131_"  overflow="visible"/>
	</clipPath>
	<path clip-path="url(#SVGID_132_)" fill-rule="evenodd" clip-rule="evenodd" fill="#06A0EC" d="M5.333,2580.12
		c0,10.49,8.51,19,19,19s19-8.51,19-19s-8.51-19-19-19S5.333,2569.63,5.333,2580.12z M7.333,2580.12c0-9.39,7.61-17,17-17
		s17,7.61,17,17c0,9.39-7.61,17-17,17S7.333,2589.51,7.333,2580.12z"/>
</g>
<g>
	<defs>
		<polygon id="SVGID_133_" points="24.333,2641.12 24.333,2611.12 39.333,2645.12 24.333,2660.12 		"/>
	</defs>
	<clipPath id="SVGID_134_">
		<use xlink:href="#SVGID_133_"  overflow="visible"/>
	</clipPath>
	<path clip-path="url(#SVGID_134_)" fill-rule="evenodd" clip-rule="evenodd" fill="#06A0EC" d="M5.333,2660.12
		c0,10.49,8.51,19,19,19s19-8.51,19-19s-8.51-19-19-19S5.333,2649.63,5.333,2660.12z M7.333,2660.12c0-9.39,7.61-17,17-17
		s17,7.61,17,17c0,9.39-7.61,17-17,17S7.333,2669.51,7.333,2660.12z"/>
</g>
<g>
	<defs>
		<polygon id="SVGID_135_" points="24.333,2681.12 24.333,2651.12 42.333,2685.12 24.333,2700.12 		"/>
	</defs>
	<clipPath id="SVGID_136_">
		<use xlink:href="#SVGID_135_"  overflow="visible"/>
	</clipPath>
	<path clip-path="url(#SVGID_136_)" fill-rule="evenodd" clip-rule="evenodd" fill="#06A0EC" d="M5.333,2700.12
		c0,10.49,8.51,19,19,19s19-8.51,19-19s-8.51-19-19-19S5.333,2689.63,5.333,2700.12z M7.333,2700.12c0-9.39,7.61-17,17-17
		s17,7.61,17,17c0,9.39-7.61,17-17,17S7.333,2709.51,7.333,2700.12z"/>
</g>
<g>
	<defs>
		<polygon id="SVGID_137_" points="24.333,2721.12 24.333,2691.12 42.333,2728.12 24.333,2740.12 		"/>
	</defs>
	<clipPath id="SVGID_138_">
		<use xlink:href="#SVGID_137_"  overflow="visible"/>
	</clipPath>
	<path clip-path="url(#SVGID_138_)" fill-rule="evenodd" clip-rule="evenodd" fill="#06A0EC" d="M5.333,2740.12
		c0,10.49,8.51,19,19,19s19-8.51,19-19s-8.51-19-19-19S5.333,2729.63,5.333,2740.12z M7.333,2740.12c0-9.39,7.61-17,17-17
		s17,7.61,17,17c0,9.39-7.61,17-17,17S7.333,2749.51,7.333,2740.12z"/>
</g>
<g>
	<defs>
		<polygon id="SVGID_139_" points="24.333,2801.12 24.333,2771.12 41.003,2802.87 45.333,2811.12 24.333,2820.12 		"/>
	</defs>
	<clipPath id="SVGID_140_">
		<use xlink:href="#SVGID_139_"  overflow="visible"/>
	</clipPath>
	<path clip-path="url(#SVGID_140_)" fill-rule="evenodd" clip-rule="evenodd" fill="#06A0EC" d="M5.333,2820.12
		c0,10.49,8.51,19,19,19s19-8.51,19-19s-8.51-19-19-19S5.333,2809.63,5.333,2820.12z M7.333,2820.12c0-9.39,7.61-17,17-17
		s17,7.61,17,17s-7.61,17-17,17S7.333,2829.51,7.333,2820.12z"/>
</g>
<g>
	<defs>
		<polygon id="SVGID_141_" points="24.333,2761.12 24.333,2731.12 41.003,2762.87 48.333,2771.12 24.333,2780.12 		"/>
	</defs>
	<clipPath id="SVGID_142_">
		<use xlink:href="#SVGID_141_"  overflow="visible"/>
	</clipPath>
	<path clip-path="url(#SVGID_142_)" fill-rule="evenodd" clip-rule="evenodd" fill="#06A0EC" d="M5.333,2780.12
		c0,10.49,8.51,19,19,19s19-8.51,19-19s-8.51-19-19-19S5.333,2769.63,5.333,2780.12z M7.333,2780.12c0-9.39,7.61-17,17-17
		s17,7.61,17,17c0,9.39-7.61,17-17,17S7.333,2789.51,7.333,2780.12z"/>
</g>
<g>
	<defs>
		<polygon id="SVGID_143_" points="24.333,2881.12 24.333,2851.12 41.003,2882.87 48.333,2894.12 24.333,2900.12 		"/>
	</defs>
	<clipPath id="SVGID_144_">
		<use xlink:href="#SVGID_143_"  overflow="visible"/>
	</clipPath>
	<path clip-path="url(#SVGID_144_)" fill-rule="evenodd" clip-rule="evenodd" fill="#06A0EC" d="M5.333,2900.12
		c0,10.49,8.51,19,19,19s19-8.51,19-19s-8.51-19-19-19S5.333,2889.63,5.333,2900.12z M7.333,2900.12c0-9.39,7.61-17,17-17
		s17,7.61,17,17s-7.61,17-17,17S7.333,2909.51,7.333,2900.12z"/>
</g>
<g>
	<defs>
		<polygon id="SVGID_145_" points="24.333,2841.12 24.333,2811.12 41.003,2842.87 51.333,2854.12 24.333,2860.12 		"/>
	</defs>
	<clipPath id="SVGID_146_">
		<use xlink:href="#SVGID_145_"  overflow="visible"/>
	</clipPath>
	<path clip-path="url(#SVGID_146_)" fill-rule="evenodd" clip-rule="evenodd" fill="#06A0EC" d="M5.333,2860.12
		c0,10.49,8.51,19,19,19s19-8.51,19-19s-8.51-19-19-19S5.333,2849.63,5.333,2860.12z M7.333,2860.12c0-9.39,7.61-17,17-17
		s17,7.61,17,17s-7.61,17-17,17S7.333,2869.51,7.333,2860.12z"/>
</g>
<g>
	<defs>
		<polygon id="SVGID_147_" points="24.333,2921.12 24.333,2891.12 41.003,2922.87 51.333,2937.12 24.333,2940.12 		"/>
	</defs>
	<clipPath id="SVGID_148_">
		<use xlink:href="#SVGID_147_"  overflow="visible"/>
	</clipPath>
	<path clip-path="url(#SVGID_148_)" fill-rule="evenodd" clip-rule="evenodd" fill="#06A0EC" d="M5.333,2940.12
		c0,10.49,8.51,19,19,19s19-8.51,19-19s-8.51-19-19-19S5.333,2929.63,5.333,2940.12z M7.333,2940.12c0-9.39,7.61-17,17-17
		s17,7.61,17,17s-7.61,17-17,17S7.333,2949.51,7.333,2940.12z"/>
</g>
<g>
	<defs>
		<polygon id="SVGID_149_" points="24.333,2961.12 24.333,2931.12 41.003,2962.87 54.333,2980.12 24.333,2980.12 		"/>
	</defs>
	<clipPath id="SVGID_150_">
		<use xlink:href="#SVGID_149_"  overflow="visible"/>
	</clipPath>
	<path clip-path="url(#SVGID_150_)" fill-rule="evenodd" clip-rule="evenodd" fill="#06A0EC" d="M5.333,2980.12
		c0,10.49,8.51,19,19,19s19-8.51,19-19s-8.51-19-19-19S5.333,2969.63,5.333,2980.12z M7.333,2980.12c0-9.39,7.61-17,17-17
		s17,7.61,17,17s-7.61,17-17,17S7.333,2989.51,7.333,2980.12z"/>
</g>
<g>
	<defs>
		<polygon id="SVGID_151_" points="24.333,3001.12 24.333,2971.12 41.003,3002.87 51.333,3023.12 24.333,3020.12 		"/>
	</defs>
	<clipPath id="SVGID_152_">
		<use xlink:href="#SVGID_151_"  overflow="visible"/>
	</clipPath>
	<path clip-path="url(#SVGID_152_)" fill-rule="evenodd" clip-rule="evenodd" fill="#06A0EC" d="M5.333,3020.12
		c0,10.49,8.51,19,19,19s19-8.51,19-19s-8.51-19-19-19S5.333,3009.63,5.333,3020.12z M7.333,3020.12c0-9.39,7.61-17,17-17
		s17,7.61,17,17s-7.61,17-17,17S7.333,3029.51,7.333,3020.12z"/>
</g>
<g>
	<defs>
		<polygon id="SVGID_153_" points="24.333,3041.12 24.333,3011.12 41.003,3042.87 48.333,3066.12 24.333,3060.12 		"/>
	</defs>
	<clipPath id="SVGID_154_">
		<use xlink:href="#SVGID_153_"  overflow="visible"/>
	</clipPath>
	<path clip-path="url(#SVGID_154_)" fill-rule="evenodd" clip-rule="evenodd" fill="#06A0EC" d="M5.333,3060.12
		c0,10.49,8.51,19,19,19s19-8.51,19-19s-8.51-19-19-19S5.333,3049.63,5.333,3060.12z M7.333,3060.12c0-9.39,7.61-17,17-17
		s17,7.61,17,17s-7.61,17-17,17S7.333,3069.51,7.333,3060.12z"/>
</g>
<g>
	<defs>
		<polygon id="SVGID_155_" points="24.333,3081.12 24.333,3051.12 41.003,3082.87 46.193,3099.33 45.333,3109.12 24.333,3100.12 		
			"/>
	</defs>
	<clipPath id="SVGID_156_">
		<use xlink:href="#SVGID_155_"  overflow="visible"/>
	</clipPath>
	<path clip-path="url(#SVGID_156_)" fill-rule="evenodd" clip-rule="evenodd" fill="#06A0EC" d="M5.333,3100.12
		c0,10.49,8.51,19,19,19s19-8.51,19-19s-8.51-19-19-19S5.333,3089.63,5.333,3100.12z M7.333,3100.12c0-9.39,7.61-17,17-17
		s17,7.61,17,17s-7.61,17-17,17S7.333,3109.51,7.333,3100.12z"/>
</g>
<g>
	<defs>
		<polygon id="SVGID_157_" points="24.333,3161.12 24.333,3131.12 41.003,3162.87 46.193,3179.33 43.204,3189.25 42.333,3192.12 
			24.333,3180.12 		"/>
	</defs>
	<clipPath id="SVGID_158_">
		<use xlink:href="#SVGID_157_"  overflow="visible"/>
	</clipPath>
	<path clip-path="url(#SVGID_158_)" fill-rule="evenodd" clip-rule="evenodd" fill="#06A0EC" d="M5.333,3180.12
		c0,10.49,8.51,19,19,19s19-8.51,19-19s-8.51-19-19-19S5.333,3169.63,5.333,3180.12z M7.333,3180.12c0-9.39,7.61-17,17-17
		s17,7.61,17,17s-7.61,17-17,17S7.333,3189.51,7.333,3180.12z"/>
</g>
<g>
	<defs>
		<polygon id="SVGID_159_" points="24.333,3121.12 24.333,3091.12 41.003,3122.87 46.193,3139.33 43.204,3149.25 42.333,3153.12 
			24.333,3140.12 		"/>
	</defs>
	<clipPath id="SVGID_160_">
		<use xlink:href="#SVGID_159_"  overflow="visible"/>
	</clipPath>
	<path clip-path="url(#SVGID_160_)" fill-rule="evenodd" clip-rule="evenodd" fill="#06A0EC" d="M5.333,3140.12
		c0,10.49,8.51,19,19,19s19-8.51,19-19s-8.51-19-19-19S5.333,3129.63,5.333,3140.12z M7.333,3140.12c0-9.39,7.61-17,17-17
		s17,7.61,17,17s-7.61,17-17,17S7.333,3149.51,7.333,3140.12z"/>
</g>
<g>
	<defs>
		<polygon id="SVGID_161_" points="24.333,3241.12 24.333,3211.12 41.003,3242.87 46.193,3259.33 43.204,3269.25 39.333,3275.12 
			24.333,3260.12 		"/>
	</defs>
	<clipPath id="SVGID_162_">
		<use xlink:href="#SVGID_161_"  overflow="visible"/>
	</clipPath>
	<path clip-path="url(#SVGID_162_)" fill-rule="evenodd" clip-rule="evenodd" fill="#06A0EC" d="M5.333,3260.12
		c0,10.49,8.51,19,19,19s19-8.51,19-19s-8.51-19-19-19S5.333,3249.63,5.333,3260.12z M7.333,3260.12c0-9.39,7.61-17,17-17
		s17,7.61,17,17s-7.61,17-17,17S7.333,3269.51,7.333,3260.12z"/>
</g>
<g>
	<defs>
		<polygon id="SVGID_163_" points="24.333,3201.12 24.333,3171.12 41.003,3202.87 46.193,3219.33 43.204,3229.25 40.333,3237.12 
			24.333,3220.12 		"/>
	</defs>
	<clipPath id="SVGID_164_">
		<use xlink:href="#SVGID_163_"  overflow="visible"/>
	</clipPath>
	<path clip-path="url(#SVGID_164_)" fill-rule="evenodd" clip-rule="evenodd" fill="#06A0EC" d="M5.333,3220.12
		c0,10.49,8.51,19,19,19s19-8.51,19-19s-8.51-19-19-19S5.333,3209.63,5.333,3220.12z M7.333,3220.12c0-9.39,7.61-17,17-17
		s17,7.61,17,17s-7.61,17-17,17S7.333,3229.51,7.333,3220.12z"/>
</g>
<g>
	<defs>
		<polygon id="SVGID_165_" points="24.333,3321.12 24.333,3291.12 41.003,3322.87 46.193,3339.33 53.204,3349.25 36.333,3358.12 
			24.333,3340.12 		"/>
	</defs>
	<clipPath id="SVGID_166_">
		<use xlink:href="#SVGID_165_"  overflow="visible"/>
	</clipPath>
	<path clip-path="url(#SVGID_166_)" fill-rule="evenodd" clip-rule="evenodd" fill="#06A0EC" d="M5.333,3340.12
		c0,10.49,8.51,19,19,19s19-8.51,19-19s-8.51-19-19-19S5.333,3329.63,5.333,3340.12z M7.333,3340.12c0-9.39,7.61-17,17-17
		s17,7.61,17,17s-7.61,17-17,17S7.333,3349.51,7.333,3340.12z"/>
</g>
<g>
	<defs>
		<polygon id="SVGID_167_" points="24.333,3281.12 24.333,3251.12 41.003,3282.87 46.193,3299.33 53.204,3309.25 36.333,3320.12 
			24.333,3300.12 		"/>
	</defs>
	<clipPath id="SVGID_168_">
		<use xlink:href="#SVGID_167_"  overflow="visible"/>
	</clipPath>
	<path clip-path="url(#SVGID_168_)" fill-rule="evenodd" clip-rule="evenodd" fill="#06A0EC" d="M5.333,3300.12
		c0,10.49,8.51,19,19,19s19-8.51,19-19s-8.51-19-19-19S5.333,3289.63,5.333,3300.12z M7.333,3300.12c0-9.39,7.61-17,17-17
		s17,7.61,17,17s-7.61,17-17,17S7.333,3309.51,7.333,3300.12z"/>
</g>
<g>
	<defs>
		<polygon id="SVGID_169_" points="24.333,3401.12 24.333,3371.12 41.003,3402.87 46.193,3419.33 53.204,3429.25 33.333,3441.12 
			24.333,3420.12 		"/>
	</defs>
	<clipPath id="SVGID_170_">
		<use xlink:href="#SVGID_169_"  overflow="visible"/>
	</clipPath>
	<path clip-path="url(#SVGID_170_)" fill-rule="evenodd" clip-rule="evenodd" fill="#06A0EC" d="M5.333,3420.12
		c0,10.49,8.51,19,19,19s19-8.51,19-19s-8.51-19-19-19S5.333,3409.63,5.333,3420.12z M7.333,3420.12c0-9.39,7.61-17,17-17
		s17,7.61,17,17s-7.61,17-17,17S7.333,3429.51,7.333,3420.12z"/>
</g>
<g>
	<defs>
		<polygon id="SVGID_171_" points="24.333,3361.12 24.333,3331.12 41.003,3362.87 46.193,3379.33 53.204,3389.25 33.333,3402.12 
			24.333,3380.12 		"/>
	</defs>
	<clipPath id="SVGID_172_">
		<use xlink:href="#SVGID_171_"  overflow="visible"/>
	</clipPath>
	<path clip-path="url(#SVGID_172_)" fill-rule="evenodd" clip-rule="evenodd" fill="#06A0EC" d="M5.333,3380.12
		c0,10.49,8.51,19,19,19s19-8.51,19-19s-8.51-19-19-19S5.333,3369.63,5.333,3380.12z M7.333,3380.12c0-9.39,7.61-17,17-17
		s17,7.61,17,17s-7.61,17-17,17S7.333,3389.51,7.333,3380.12z"/>
</g>
<g>
	<defs>
		<polygon id="SVGID_173_" points="24.333,3481.12 24.333,3451.12 41.003,3482.87 46.193,3499.33 53.204,3509.25 30.333,3524.12 
			24.333,3500.12 		"/>
	</defs>
	<clipPath id="SVGID_174_">
		<use xlink:href="#SVGID_173_"  overflow="visible"/>
	</clipPath>
	<path clip-path="url(#SVGID_174_)" fill-rule="evenodd" clip-rule="evenodd" fill="#06A0EC" d="M5.333,3500.12
		c0,10.49,8.51,19,19,19s19-8.51,19-19s-8.51-19-19-19S5.333,3489.63,5.333,3500.12z M7.333,3500.12c0-9.39,7.61-17,17-17
		s17,7.61,17,17s-7.61,17-17,17S7.333,3509.51,7.333,3500.12z"/>
</g>
<g>
	<defs>
		<polygon id="SVGID_175_" points="24.333,3441.12 24.333,3411.12 41.003,3442.87 46.193,3459.33 53.204,3469.25 30.333,3485.12 
			24.333,3460.12 		"/>
	</defs>
	<clipPath id="SVGID_176_">
		<use xlink:href="#SVGID_175_"  overflow="visible"/>
	</clipPath>
	<path clip-path="url(#SVGID_176_)" fill-rule="evenodd" clip-rule="evenodd" fill="#06A0EC" d="M5.333,3460.12
		c0,10.49,8.51,19,19,19s19-8.51,19-19s-8.51-19-19-19S5.333,3449.63,5.333,3460.12z M7.333,3460.12c0-9.39,7.61-17,17-17
		s17,7.61,17,17s-7.61,17-17,17S7.333,3469.51,7.333,3460.12z"/>
</g>
<g>
	<defs>
		<polygon id="SVGID_177_" points="24.333,3521.12 24.333,3491.12 41.003,3522.87 46.193,3539.33 53.204,3549.25 27.333,3567.12 
			24.333,3540.12 		"/>
	</defs>
	<clipPath id="SVGID_178_">
		<use xlink:href="#SVGID_177_"  overflow="visible"/>
	</clipPath>
	<path clip-path="url(#SVGID_178_)" fill-rule="evenodd" clip-rule="evenodd" fill="#06A0EC" d="M5.333,3540.12
		c0,10.49,8.51,19,19,19s19-8.51,19-19s-8.51-19-19-19S5.333,3529.63,5.333,3540.12z M7.333,3540.12c0-9.39,7.61-17,17-17
		s17,7.61,17,17s-7.61,17-17,17S7.333,3549.51,7.333,3540.12z"/>
</g>
<g>
	<defs>
		<polygon id="SVGID_179_" points="24.333,3561.12 24.333,3531.12 41.003,3562.87 46.193,3579.33 53.204,3589.25 24.333,3610.12 
			24.333,3580.12 		"/>
	</defs>
	<clipPath id="SVGID_180_">
		<use xlink:href="#SVGID_179_"  overflow="visible"/>
	</clipPath>
	<path clip-path="url(#SVGID_180_)" fill-rule="evenodd" clip-rule="evenodd" fill="#06A0EC" d="M5.333,3580.12
		c0,10.49,8.51,19,19,19s19-8.51,19-19s-8.51-19-19-19S5.333,3569.63,5.333,3580.12z M7.333,3580.12c0-9.39,7.61-17,17-17
		s17,7.61,17,17s-7.61,17-17,17S7.333,3589.51,7.333,3580.12z"/>
</g>
<g>
	<defs>
		<polygon id="SVGID_181_" points="24.333,3601.12 24.333,3571.12 41.003,3602.87 46.193,3619.33 53.204,3629.25 22.333,3648.12 
			24.333,3620.12 		"/>
	</defs>
	<clipPath id="SVGID_182_">
		<use xlink:href="#SVGID_181_"  overflow="visible"/>
	</clipPath>
	<path clip-path="url(#SVGID_182_)" fill-rule="evenodd" clip-rule="evenodd" fill="#06A0EC" d="M5.333,3620.12
		c0,10.49,8.51,19,19,19s19-8.51,19-19s-8.51-19-19-19S5.333,3609.63,5.333,3620.12z M7.333,3620.12c0-9.39,7.61-17,17-17
		s17,7.61,17,17s-7.61,17-17,17S7.333,3629.51,7.333,3620.12z"/>
</g>
<g>
	<defs>
		<polygon id="SVGID_183_" points="24.333,3641.12 24.333,3611.12 41.003,3642.87 46.193,3659.33 53.204,3669.25 25.843,3683.29 
			20.333,3686.12 24.333,3660.12 		"/>
	</defs>
	<clipPath id="SVGID_184_">
		<use xlink:href="#SVGID_183_"  overflow="visible"/>
	</clipPath>
	<path clip-path="url(#SVGID_184_)" fill-rule="evenodd" clip-rule="evenodd" fill="#06A0EC" d="M5.333,3660.12
		c0,10.49,8.51,19,19,19s19-8.51,19-19s-8.51-19-19-19S5.333,3649.63,5.333,3660.12z M7.333,3660.12c0-9.39,7.61-17,17-17
		s17,7.61,17,17s-7.61,17-17,17S7.333,3669.51,7.333,3660.12z"/>
</g>
<g>
	<defs>
		<polygon id="SVGID_185_" points="24.333,3681.12 24.333,3651.12 41.003,3682.87 46.193,3699.33 53.204,3709.25 25.843,3723.29 
			18.333,3724.12 24.333,3700.12 		"/>
	</defs>
	<clipPath id="SVGID_186_">
		<use xlink:href="#SVGID_185_"  overflow="visible"/>
	</clipPath>
	<path clip-path="url(#SVGID_186_)" fill-rule="evenodd" clip-rule="evenodd" fill="#06A0EC" d="M5.333,3700.12
		c0,10.49,8.51,19,19,19s19-8.51,19-19s-8.51-19-19-19S5.333,3689.63,5.333,3700.12z M7.333,3700.12c0-9.39,7.61-17,17-17
		s17,7.61,17,17s-7.61,17-17,17S7.333,3709.51,7.333,3700.12z"/>
</g>
<g>
	<defs>
		<polygon id="SVGID_187_" points="24.333,3721.12 24.333,3691.12 41.003,3722.87 46.193,3739.33 53.204,3749.25 25.843,3763.29 
			16.333,3762.12 24.333,3740.12 		"/>
	</defs>
	<clipPath id="SVGID_188_">
		<use xlink:href="#SVGID_187_"  overflow="visible"/>
	</clipPath>
	<path clip-path="url(#SVGID_188_)" fill-rule="evenodd" clip-rule="evenodd" fill="#06A0EC" d="M5.333,3740.12
		c0,10.49,8.51,19,19,19s19-8.51,19-19s-8.51-19-19-19S5.333,3729.63,5.333,3740.12z M7.333,3740.12c0-9.39,7.61-17,17-17
		s17,7.61,17,17s-7.61,17-17,17S7.333,3749.51,7.333,3740.12z"/>
</g>
<g>
	<defs>
		<polygon id="SVGID_189_" points="24.333,3761.12 24.333,3731.12 41.003,3762.87 46.193,3779.33 53.204,3789.25 25.843,3803.29 
			16.144,3800.62 14.333,3800.12 24.333,3780.12 		"/>
	</defs>
	<clipPath id="SVGID_190_">
		<use xlink:href="#SVGID_189_"  overflow="visible"/>
	</clipPath>
	<path clip-path="url(#SVGID_190_)" fill-rule="evenodd" clip-rule="evenodd" fill="#06A0EC" d="M5.333,3780.12
		c0,10.49,8.51,19,19,19s19-8.51,19-19s-8.51-19-19-19S5.333,3769.63,5.333,3780.12z M7.333,3780.12c0-9.39,7.61-17,17-17
		s17,7.61,17,17s-7.61,17-17,17S7.333,3789.51,7.333,3780.12z"/>
</g>
<g>
	<defs>
		<polygon id="SVGID_191_" points="24.333,3801.12 24.333,3771.12 41.003,3802.87 46.193,3819.33 53.204,3829.25 25.843,3843.29 
			16.144,3840.62 12.333,3838.12 24.333,3820.12 		"/>
	</defs>
	<clipPath id="SVGID_192_">
		<use xlink:href="#SVGID_191_"  overflow="visible"/>
	</clipPath>
	<path clip-path="url(#SVGID_192_)" fill-rule="evenodd" clip-rule="evenodd" fill="#06A0EC" d="M5.333,3820.12
		c0,10.49,8.51,19,19,19s19-8.51,19-19s-8.51-19-19-19S5.333,3809.63,5.333,3820.12z M7.333,3820.12c0-9.39,7.61-17,17-17
		s17,7.61,17,17s-7.61,17-17,17S7.333,3829.51,7.333,3820.12z"/>
</g>
<g>
	<defs>
		<polygon id="SVGID_193_" points="24.333,3841.12 24.333,3811.12 41.003,3842.87 46.193,3859.33 53.204,3869.25 25.843,3883.29 
			16.144,3880.62 10.333,3876.12 24.333,3860.12 		"/>
	</defs>
	<clipPath id="SVGID_194_">
		<use xlink:href="#SVGID_193_"  overflow="visible"/>
	</clipPath>
	<path clip-path="url(#SVGID_194_)" fill-rule="evenodd" clip-rule="evenodd" fill="#06A0EC" d="M5.333,3860.12
		c0,10.49,8.51,19,19,19s19-8.51,19-19s-8.51-19-19-19S5.333,3849.63,5.333,3860.12z M7.333,3860.12c0-9.39,7.61-17,17-17
		s17,7.61,17,17s-7.61,17-17,17S7.333,3869.51,7.333,3860.12z"/>
</g>
<g>
	<defs>
		<polygon id="SVGID_195_" points="24.333,3881.12 24.333,3851.12 41.003,3882.87 46.193,3899.33 53.204,3909.25 25.843,3923.29 
			16.144,3920.62 8.333,3914.12 24.333,3900.12 		"/>
	</defs>
	<clipPath id="SVGID_196_">
		<use xlink:href="#SVGID_195_"  overflow="visible"/>
	</clipPath>
	<path clip-path="url(#SVGID_196_)" fill-rule="evenodd" clip-rule="evenodd" fill="#06A0EC" d="M5.333,3900.12
		c0,10.49,8.51,19,19,19s19-8.51,19-19s-8.51-19-19-19S5.333,3889.63,5.333,3900.12z M7.333,3900.12c0-9.39,7.61-17,17-17
		s17,7.61,17,17s-7.61,17-17,17S7.333,3909.51,7.333,3900.12z"/>
</g>
<g>
	<defs>
		<polygon id="SVGID_197_" points="24.333,3921.12 24.333,3891.12 41.003,3922.87 46.193,3939.33 53.204,3949.25 25.843,3963.29 
			16.144,3960.62 6.333,3952.12 24.333,3940.12 		"/>
	</defs>
	<clipPath id="SVGID_198_">
		<use xlink:href="#SVGID_197_"  overflow="visible"/>
	</clipPath>
	<path clip-path="url(#SVGID_198_)" fill-rule="evenodd" clip-rule="evenodd" fill="#06A0EC" d="M5.333,3940.12
		c0,10.49,8.51,19,19,19s19-8.51,19-19s-8.51-19-19-19S5.333,3929.63,5.333,3940.12z M7.333,3940.12c0-9.39,7.61-17,17-17
		s17,7.61,17,17s-7.61,17-17,17S7.333,3949.51,7.333,3940.12z"/>
</g>
<g>
	<defs>
		<polygon id="SVGID_199_" points="24.333,3961.12 24.333,3931.12 41.003,3962.87 46.193,3979.33 53.204,3989.25 25.843,4003.29 
			16.144,4000.62 6.184,3991.77 4.333,3990.12 24.333,3980.12 		"/>
	</defs>
	<clipPath id="SVGID_200_">
		<use xlink:href="#SVGID_199_"  overflow="visible"/>
	</clipPath>
	<path clip-path="url(#SVGID_200_)" fill-rule="evenodd" clip-rule="evenodd" fill="#06A0EC" d="M5.333,3980.12
		c0,10.49,8.51,19,19,19s19-8.51,19-19s-8.51-19-19-19S5.333,3969.63,5.333,3980.12z M7.333,3980.12c0-9.39,7.61-17,17-17
		s17,7.61,17,17s-7.61,17-17,17S7.333,3989.51,7.333,3980.12z"/>
</g>
<g>
	<defs>
		<polygon id="SVGID_201_" points="24.333,4001.12 24.333,3971.12 41.003,4002.87 46.193,4019.33 53.204,4029.25 25.843,4043.29 
			16.144,4040.62 6.184,4031.77 2.333,4028.12 24.333,4020.12 		"/>
	</defs>
	<clipPath id="SVGID_202_">
		<use xlink:href="#SVGID_201_"  overflow="visible"/>
	</clipPath>
	<path clip-path="url(#SVGID_202_)" fill-rule="evenodd" clip-rule="evenodd" fill="#06A0EC" d="M5.333,4020.12
		c0,10.49,8.51,19,19,19s19-8.51,19-19s-8.51-19-19-19S5.333,4009.63,5.333,4020.12z M7.333,4020.12c0-9.39,7.61-17,17-17
		s17,7.61,17,17s-7.61,17-17,17S7.333,4029.51,7.333,4020.12z"/>
</g>
<g>
	<defs>
		<polygon id="SVGID_203_" points="24.333,4041.12 24.333,4011.12 41.003,4042.87 46.193,4059.33 53.204,4069.25 25.843,4083.29 
			16.144,4080.62 6.184,4071.77 0.333,4066.12 24.333,4060.12 		"/>
	</defs>
	<clipPath id="SVGID_204_">
		<use xlink:href="#SVGID_203_"  overflow="visible"/>
	</clipPath>
	<path clip-path="url(#SVGID_204_)" fill-rule="evenodd" clip-rule="evenodd" fill="#06A0EC" d="M5.333,4060.12
		c0,10.49,8.51,19,19,19s19-8.51,19-19s-8.51-19-19-19S5.333,4049.63,5.333,4060.12z M7.333,4060.12c0-9.39,7.61-17,17-17
		s17,7.61,17,17s-7.61,17-17,17S7.333,4069.51,7.333,4060.12z"/>
</g>
<g>
	<defs>
		<polygon id="SVGID_205_" points="24.333,4081.12 24.333,4051.12 41.003,4082.87 46.193,4099.33 53.204,4109.25 25.843,4123.29 
			16.144,4120.62 6.184,4111.77 -1.667,4104.12 24.333,4100.12 		"/>
	</defs>
	<clipPath id="SVGID_206_">
		<use xlink:href="#SVGID_205_"  overflow="visible"/>
	</clipPath>
	<path clip-path="url(#SVGID_206_)" fill-rule="evenodd" clip-rule="evenodd" fill="#06A0EC" d="M5.333,4100.12
		c0,10.49,8.51,19,19,19s19-8.51,19-19s-8.51-19-19-19S5.333,4089.63,5.333,4100.12z M7.333,4100.12c0-9.39,7.61-17,17-17
		s17,7.61,17,17s-7.61,17-17,17S7.333,4109.51,7.333,4100.12z"/>
</g>
<g>
	<defs>
		<polygon id="SVGID_207_" points="24.333,4121.12 24.333,4091.12 41.003,4122.87 46.193,4139.33 53.204,4149.25 25.843,4163.29 
			16.144,4160.62 6.184,4151.77 -3.667,4142.12 24.333,4140.12 		"/>
	</defs>
	<clipPath id="SVGID_208_">
		<use xlink:href="#SVGID_207_"  overflow="visible"/>
	</clipPath>
	<path clip-path="url(#SVGID_208_)" fill-rule="evenodd" clip-rule="evenodd" fill="#06A0EC" d="M5.333,4140.12
		c0,10.49,8.51,19,19,19s19-8.51,19-19s-8.51-19-19-19S5.333,4129.63,5.333,4140.12z M7.333,4140.12c0-9.39,7.61-17,17-17
		s17,7.61,17,17s-7.61,17-17,17S7.333,4149.51,7.333,4140.12z"/>
</g>
<g>
	<defs>
		<polygon id="SVGID_209_" points="24.333,4161.12 24.333,4131.12 41.003,4162.87 46.193,4179.33 53.204,4189.25 25.843,4203.29 
			16.144,4200.62 6.184,4191.77 -5.667,4180.12 24.333,4180.12 		"/>
	</defs>
	<clipPath id="SVGID_210_">
		<use xlink:href="#SVGID_209_"  overflow="visible"/>
	</clipPath>
	<path clip-path="url(#SVGID_210_)" fill-rule="evenodd" clip-rule="evenodd" fill="#06A0EC" d="M5.333,4180.12
		c0,10.49,8.51,19,19,19s19-8.51,19-19s-8.51-19-19-19S5.333,4169.63,5.333,4180.12z M7.333,4180.12c0-9.39,7.61-17,17-17
		s17,7.61,17,17s-7.61,17-17,17S7.333,4189.51,7.333,4180.12z"/>
</g>
<g>
	<defs>
		<polygon id="SVGID_211_" points="24.333,4201.12 24.333,4171.12 41.003,4202.87 46.193,4219.33 53.204,4229.25 25.843,4243.29 
			16.144,4240.62 6.184,4231.77 -4.336,4221.42 -3.667,4218.12 24.333,4220.12 		"/>
	</defs>
	<clipPath id="SVGID_212_">
		<use xlink:href="#SVGID_211_"  overflow="visible"/>
	</clipPath>
	<path clip-path="url(#SVGID_212_)" fill-rule="evenodd" clip-rule="evenodd" fill="#06A0EC" d="M5.333,4220.12
		c0,10.49,8.51,19,19,19s19-8.51,19-19s-8.51-19-19-19S5.333,4209.63,5.333,4220.12z M7.333,4220.12c0-9.39,7.61-17,17-17
		s17,7.61,17,17s-7.61,17-17,17S7.333,4229.51,7.333,4220.12z"/>
</g>
<g>
	<defs>
		<polygon id="SVGID_213_" points="24.333,4241.12 24.333,4211.12 41.003,4242.87 46.193,4259.33 53.204,4269.25 25.843,4283.29 
			16.144,4280.62 6.184,4271.77 -4.336,4261.42 -1.667,4256.12 24.333,4260.12 		"/>
	</defs>
	<clipPath id="SVGID_214_">
		<use xlink:href="#SVGID_213_"  overflow="visible"/>
	</clipPath>
	<path clip-path="url(#SVGID_214_)" fill-rule="evenodd" clip-rule="evenodd" fill="#06A0EC" d="M5.333,4260.12
		c0,10.49,8.51,19,19,19s19-8.51,19-19s-8.51-19-19-19S5.333,4249.63,5.333,4260.12z M7.333,4260.12c0-9.39,7.61-17,17-17
		s17,7.61,17,17s-7.61,17-17,17S7.333,4269.51,7.333,4260.12z"/>
</g>
<g>
	<defs>
		<polygon id="SVGID_215_" points="24.333,4281.12 24.333,4251.12 41.003,4282.87 46.193,4299.33 53.204,4309.25 25.843,4323.29 
			16.144,4320.62 6.184,4311.77 -4.336,4301.42 -0.307,4295.11 0.333,4294.12 24.333,4300.12 		"/>
	</defs>
	<clipPath id="SVGID_216_">
		<use xlink:href="#SVGID_215_"  overflow="visible"/>
	</clipPath>
	<path clip-path="url(#SVGID_216_)" fill-rule="evenodd" clip-rule="evenodd" fill="#06A0EC" d="M5.333,4300.12
		c0,10.49,8.51,19,19,19s19-8.51,19-19s-8.51-19-19-19S5.333,4289.63,5.333,4300.12z M7.333,4300.12c0-9.39,7.61-17,17-17
		s17,7.61,17,17s-7.61,17-17,17S7.333,4309.51,7.333,4300.12z"/>
</g>
<g>
	<defs>
		<polygon id="SVGID_217_" points="24.333,4321.12 24.333,4291.12 41.003,4322.87 46.193,4339.33 53.204,4349.25 25.843,4363.29 
			16.144,4360.62 6.184,4351.77 -4.336,4341.42 -0.307,4335.11 2.333,4332.12 24.333,4340.12 		"/>
	</defs>
	<clipPath id="SVGID_218_">
		<use xlink:href="#SVGID_217_"  overflow="visible"/>
	</clipPath>
	<path clip-path="url(#SVGID_218_)" fill-rule="evenodd" clip-rule="evenodd" fill="#06A0EC" d="M5.333,4340.12
		c0,10.49,8.51,19,19,19s19-8.51,19-19s-8.51-19-19-19S5.333,4329.63,5.333,4340.12z M7.333,4340.12c0-9.39,7.61-17,17-17
		s17,7.61,17,17s-7.61,17-17,17S7.333,4349.51,7.333,4340.12z"/>
</g>
<g>
	<defs>
		<polygon id="SVGID_219_" points="24.333,4361.12 24.333,4331.12 41.003,4362.87 46.193,4379.33 53.204,4389.25 25.843,4403.29 
			16.144,4400.62 6.184,4391.77 -4.336,4381.42 -0.307,4375.11 4.333,4370.12 24.333,4380.12 		"/>
	</defs>
	<clipPath id="SVGID_220_">
		<use xlink:href="#SVGID_219_"  overflow="visible"/>
	</clipPath>
	<path clip-path="url(#SVGID_220_)" fill-rule="evenodd" clip-rule="evenodd" fill="#06A0EC" d="M5.333,4380.12
		c0,10.49,8.51,19,19,19s19-8.51,19-19s-8.51-19-19-19S5.333,4369.63,5.333,4380.12z M7.333,4380.12c0-9.39,7.61-17,17-17
		s17,7.61,17,17s-7.61,17-17,17S7.333,4389.51,7.333,4380.12z"/>
</g>
<g>
	<defs>
		<polygon id="SVGID_221_" points="24.333,4401.12 24.333,4371.12 41.003,4402.87 46.193,4419.33 53.204,4429.25 25.843,4443.29 
			16.144,4440.62 6.184,4431.77 -4.336,4421.42 -0.307,4415.11 6.333,4408.12 24.333,4420.12 		"/>
	</defs>
	<clipPath id="SVGID_222_">
		<use xlink:href="#SVGID_221_"  overflow="visible"/>
	</clipPath>
	<path clip-path="url(#SVGID_222_)" fill-rule="evenodd" clip-rule="evenodd" fill="#06A0EC" d="M5.333,4420.12
		c0,10.49,8.51,19,19,19s19-8.51,19-19s-8.51-19-19-19S5.333,4409.63,5.333,4420.12z M7.333,4420.12c0-9.39,7.61-17,17-17
		s17,7.61,17,17s-7.61,17-17,17S7.333,4429.51,7.333,4420.12z"/>
</g>
<g>
	<defs>
		<polygon id="SVGID_223_" points="24.333,4441.12 24.333,4411.12 41.003,4442.87 46.193,4459.33 53.204,4469.25 25.843,4483.29 
			16.144,4480.62 6.184,4471.77 -4.336,4461.42 -10.307,4451.11 8.333,4446.12 24.333,4460.12 		"/>
	</defs>
	<clipPath id="SVGID_224_">
		<use xlink:href="#SVGID_223_"  overflow="visible"/>
	</clipPath>
	<path clip-path="url(#SVGID_224_)" fill-rule="evenodd" clip-rule="evenodd" fill="#06A0EC" d="M5.333,4460.12
		c0,10.49,8.51,19,19,19s19-8.51,19-19s-8.51-19-19-19S5.333,4449.63,5.333,4460.12z M7.333,4460.12c0-9.39,7.61-17,17-17
		s17,7.61,17,17s-7.61,17-17,17S7.333,4469.51,7.333,4460.12z"/>
</g>
<g>
	<defs>
		<polygon id="SVGID_225_" points="24.333,4481.12 24.333,4451.12 41.003,4482.87 46.193,4499.33 53.204,4509.25 25.843,4523.29 
			16.144,4520.62 6.184,4511.77 -4.336,4501.42 -10.307,4491.11 10.333,4484.12 24.333,4500.12 		"/>
	</defs>
	<clipPath id="SVGID_226_">
		<use xlink:href="#SVGID_225_"  overflow="visible"/>
	</clipPath>
	<path clip-path="url(#SVGID_226_)" fill-rule="evenodd" clip-rule="evenodd" fill="#06A0EC" d="M5.333,4500.12
		c0,10.49,8.51,19,19,19s19-8.51,19-19s-8.51-19-19-19S5.333,4489.63,5.333,4500.12z M7.333,4500.12c0-9.39,7.61-17,17-17
		s17,7.61,17,17s-7.61,17-17,17S7.333,4509.51,7.333,4500.12z"/>
</g>
<g>
	<defs>
		<polygon id="SVGID_227_" points="24.333,4521.12 24.333,4491.12 41.003,4522.87 46.193,4539.33 53.204,4549.25 25.843,4563.29 
			16.144,4560.62 6.184,4551.77 -4.336,4541.42 -10.307,4531.11 12.333,4522.12 24.333,4540.12 		"/>
	</defs>
	<clipPath id="SVGID_228_">
		<use xlink:href="#SVGID_227_"  overflow="visible"/>
	</clipPath>
	<path clip-path="url(#SVGID_228_)" fill-rule="evenodd" clip-rule="evenodd" fill="#06A0EC" d="M5.333,4540.12
		c0,10.49,8.51,19,19,19s19-8.51,19-19s-8.51-19-19-19S5.333,4529.63,5.333,4540.12z M7.333,4540.12c0-9.39,7.61-17,17-17
		s17,7.61,17,17s-7.61,17-17,17S7.333,4549.51,7.333,4540.12z"/>
</g>
<g>
	<defs>
		<polygon id="SVGID_229_" points="24.333,4561.12 24.333,4531.12 41.003,4562.87 46.193,4579.33 53.204,4589.25 25.843,4603.29 
			16.144,4600.62 6.184,4591.77 -4.336,4581.42 -10.307,4571.11 14.333,4560.12 24.333,4580.12 		"/>
	</defs>
	<clipPath id="SVGID_230_">
		<use xlink:href="#SVGID_229_"  overflow="visible"/>
	</clipPath>
	<path clip-path="url(#SVGID_230_)" fill-rule="evenodd" clip-rule="evenodd" fill="#06A0EC" d="M5.333,4580.12
		c0,10.49,8.51,19,19,19s19-8.51,19-19s-8.51-19-19-19S5.333,4569.63,5.333,4580.12z M7.333,4580.12c0-9.39,7.61-17,17-17
		s17,7.61,17,17s-7.61,17-17,17S7.333,4589.51,7.333,4580.12z"/>
</g>
<g>
	<defs>
		<polygon id="SVGID_231_" points="24.333,4601.12 24.333,4571.12 41.003,4602.87 46.193,4619.33 53.204,4629.25 25.843,4643.29 
			16.144,4640.62 6.184,4631.77 -4.336,4621.42 -10.307,4611.11 16.333,4598.12 24.333,4620.12 		"/>
	</defs>
	<clipPath id="SVGID_232_">
		<use xlink:href="#SVGID_231_"  overflow="visible"/>
	</clipPath>
	<path clip-path="url(#SVGID_232_)" fill-rule="evenodd" clip-rule="evenodd" fill="#06A0EC" d="M5.333,4620.12
		c0,10.49,8.51,19,19,19s19-8.51,19-19s-8.51-19-19-19S5.333,4609.63,5.333,4620.12z M7.333,4620.12c0-9.39,7.61-17,17-17
		s17,7.61,17,17s-7.61,17-17,17S7.333,4629.51,7.333,4620.12z"/>
</g>
<g>
	<defs>
		<polygon id="SVGID_233_" points="24.333,4641.12 24.333,4611.12 41.003,4642.87 46.193,4659.33 53.204,4669.25 25.843,4683.29 
			16.144,4680.62 6.184,4671.77 -4.336,4661.42 -10.307,4651.11 18.333,4636.12 24.333,4660.12 		"/>
	</defs>
	<clipPath id="SVGID_234_">
		<use xlink:href="#SVGID_233_"  overflow="visible"/>
	</clipPath>
	<path clip-path="url(#SVGID_234_)" fill-rule="evenodd" clip-rule="evenodd" fill="#06A0EC" d="M5.333,4660.12
		c0,10.49,8.51,19,19,19s19-8.51,19-19s-8.51-19-19-19S5.333,4649.63,5.333,4660.12z M7.333,4660.12c0-9.39,7.61-17,17-17
		s17,7.61,17,17s-7.61,17-17,17S7.333,4669.51,7.333,4660.12z"/>
</g>
<g>
	<defs>
		<polygon id="SVGID_235_" points="24.333,4681.12 24.333,4651.12 41.003,4682.87 46.193,4699.33 53.204,4709.25 25.843,4723.29 
			16.144,4720.62 6.184,4711.77 -4.336,4701.42 -10.307,4691.11 20.333,4674.12 24.333,4700.12 		"/>
	</defs>
	<clipPath id="SVGID_236_">
		<use xlink:href="#SVGID_235_"  overflow="visible"/>
	</clipPath>
	<path clip-path="url(#SVGID_236_)" fill-rule="evenodd" clip-rule="evenodd" fill="#06A0EC" d="M5.333,4700.12
		c0,10.49,8.51,19,19,19s19-8.51,19-19s-8.51-19-19-19S5.333,4689.63,5.333,4700.12z M7.333,4700.12c0-9.39,7.61-17,17-17
		s17,7.61,17,17s-7.61,17-17,17S7.333,4709.51,7.333,4700.12z"/>
</g>
<g>
	<defs>
		<polygon id="SVGID_237_" points="24.333,4721.12 24.333,4691.12 41.003,4722.87 46.193,4739.33 53.204,4749.25 25.843,4763.29 
			16.144,4760.62 6.184,4751.77 -4.336,4741.42 -10.307,4731.11 22.333,4712.12 24.333,4740.12 		"/>
	</defs>
	<clipPath id="SVGID_238_">
		<use xlink:href="#SVGID_237_"  overflow="visible"/>
	</clipPath>
	<path clip-path="url(#SVGID_238_)" fill-rule="evenodd" clip-rule="evenodd" fill="#06A0EC" d="M5.333,4740.12
		c0,10.49,8.51,19,19,19s19-8.51,19-19s-8.51-19-19-19S5.333,4729.63,5.333,4740.12z M7.333,4740.12c0-9.39,7.61-17,17-17
		s17,7.61,17,17s-7.61,17-17,17S7.333,4749.51,7.333,4740.12z"/>
</g>
<g>
	<defs>
		<polygon id="SVGID_239_" points="24.333,4761.12 24.333,4731.12 41.003,4762.87 46.193,4779.33 53.204,4789.25 25.843,4803.29 
			16.144,4800.62 6.184,4791.77 -4.336,4781.42 -10.307,4771.11 24.333,4752.12 24.333,4780.12 		"/>
	</defs>
	<clipPath id="SVGID_240_">
		<use xlink:href="#SVGID_239_"  overflow="visible"/>
	</clipPath>
	<path clip-path="url(#SVGID_240_)" fill-rule="evenodd" clip-rule="evenodd" fill="#06A0EC" d="M5.333,4780.12
		c0,10.49,8.51,19,19,19s19-8.51,19-19s-8.51-19-19-19S5.333,4769.63,5.333,4780.12z M7.333,4780.12c0-9.39,7.61-17,17-17
		s17,7.61,17,17s-7.61,17-17,17S7.333,4789.51,7.333,4780.12z"/>
</g>
</svg>
