<svg xmlns="http://www.w3.org/2000/svg" width="20" height="20" fill="none" xmlns:v="https://vecta.io/nano"><rect x=".25" y="3.25" width="19.5" height="13.413" rx="2.25" fill="#fff" stroke="#d9d9d9" stroke-width=".5"/><path d="M6.187 5.9h3.152c.44 0 .714.364.611.812l-1.467 6.391c-.104.446-.544.81-.984.81H4.347c-.439 0-.714-.364-.611-.81l1.468-6.391c.103-.448.543-.812.983-.812z" fill="#e21836"/><path d="M9.077 5.899h3.625c.44 0 .242.364.138.812l-1.467 6.391c-.103.446-.071.81-.512.81H7.236c-.441 0-.714-.364-.61-.81L8.093 6.71c.104-.448.544-.812.984-.812z" fill="#00447c"/><path d="M12.558 5.899h3.152c.441 0 .714.364.611.812l-1.467 6.391c-.104.446-.544.81-.985.81h-3.15c-.441 0-.714-.364-.611-.81l1.467-6.391c.103-.448.543-.812.983-.812z" fill="#007b84"/><path d="M7.01 7.947c-.324.003-.42 0-.45-.007l-.231 1.081c-.047.207-.081.355-.198.45a.35.35 0 0 1-.233.082c-.144 0-.227-.072-.242-.21l-.003-.047.044-.279.271-1.056-.528-.021c-.003.01-.014.068-.014.068l-.234 1.051-.02.089-.039.292c0 .087.017.157.05.217.107.189.411.218.584.218a1.12 1.12 0 0 0 .571-.135c.244-.146.308-.375.365-.579l.026-.104.277-1.095zm.805.782c-.057 0-.161.014-.255.061l-.1.058.031-.112-.017-.019-.426.072-.015.01c-.021.179-.04.314-.119.666l-.092.39.008.016.408-.007.013-.015.069-.351.089-.412c.041-.019.081-.038.119-.038.091 0 .08.081.077.113-.004.054-.037.231-.071.383l-.023.098-.049.215.007.014.4-.007.019-.015.088-.459L8 9.278c.05-.22.074-.332.037-.423-.04-.102-.135-.127-.222-.127zm.899.231l-.224.04-.217.033-.008.007-.007.006-.03.207-.056.285-.045.16c-.012.033-.025.065-.049.158l.006.009.005.008.207-.008.217.001.008-.007.009-.008.024-.147.058-.266.053-.23.055-.23-.003-.009-.004-.008zm.002-.311c-.089-.054-.246-.037-.352.037s-.117.175-.028.23.245.037.35-.038.118-.176.03-.229zm.541 1.24c.181 0 .366-.051.506-.201.107-.122.157-.303.174-.377.056-.247.012-.363-.042-.433-.083-.107-.228-.142-.38-.142-.091 0-.308.009-.477.167-.122.114-.178.269-.212.418s-.074.424.173.525c.076.033.186.042.257.042zm-.014-.556c.042-.187.091-.344.217-.344.098 0 .106.117.062.305-.008.042-.044.197-.092.263-.034.049-.074.078-.119.078-.013 0-.092 0-.093-.118-.001-.058.011-.118.026-.183zm1.146.532l.014-.015.068-.351.09-.412c.041-.019.08-.038.12-.038.091 0 .08.081.076.113-.003.054-.037.231-.071.383l-.022.098-.05.215.007.014.399-.007.019-.015.088-.459.025-.113c.05-.22.075-.332.038-.423-.041-.102-.136-.127-.223-.127-.057 0-.162.014-.255.061l-.099.058.028-.112-.015-.019-.427.072-.014.01c-.022.179-.04.314-.119.666l-.092.39.008.016.407-.007zm1.365.007l.082-.401.063-.261s.019-.026.037-.037h.027c.258 0 .549 0 .778-.17.155-.117.262-.29.309-.499.012-.051.021-.113.021-.174 0-.08-.016-.16-.062-.222-.116-.165-.348-.168-.616-.17l-.132.001c-.343.004-.48.003-.537-.004l-.014.07-.123.578-.308 1.285.473.002zm.228-1.025l.13-.574.004-.03.002-.023.052.005.275.024c.106.042.15.149.12.289a.42.42 0 0 1-.215.288c-.087.044-.193.048-.303.048h-.071l.005-.029zm.813.497c-.034.149-.074.422.172.519.078.034.149.044.22.04s.145-.042.21-.098l-.018.068.011.015.423-.006.017-.013.127-.648.107-.456-.006-.017-.441.072-.014.012-.006.045c-.03-.048-.072-.09-.139-.116-.085-.034-.283.01-.454.167-.12.113-.178.267-.21.415zm.415.009c.042-.184.091-.339.217-.339.08 0 .122.075.113.202l-.023.103-.04.163a.4.4 0 0 1-.046.095c-.032.047-.11.076-.154.076-.013 0-.09 0-.093-.116-.001-.058.011-.118.026-.183zm2.169-.607l-.015-.018-.411.071-.013.013-.003.006-.239.492-.001-.03-.027-.535-.017-.018-.399.071-.015.013c-.002.006-.002.013-.003.021l.001.003.042.289.037.284.052.474-.281.483v.002l-.087.139c-.01.015-.019.025-.031.029s-.032.008-.057.008h-.048l-.071.241.245.004c.144-.001.234-.069.283-.161l.154-.268h-.002l.016-.019c.104-.226.891-1.597.891-1.597zm-2.584 3.163h-.104l.384-1.29h.127l.041-.133.004.148c-.005.091.066.172.252.159h.215l.074-.248h-.081c-.047 0-.068-.012-.066-.037l-.004-.15h-.399v.001l-.591.034c-.094.025-.194.097-.194.097l.039-.133h-.373l-.078.264-.389 1.31h-.076l-.074.247h.742l-.025.082h.366l.024-.082h.103l.08-.266zm-.305-1.028c-.06.017-.171.068-.171.068l.099-.33h.296l-.071.24s-.091.005-.153.022zm.006.471l-.154.026c-.06.018-.173.077-.173.077l.102-.343h.298l-.072.24zm-.166.56h-.297l.086-.289h.296l-.085.289zm.715-.8h.428l-.062.202h-.434l-.065.221h.38l-.287.411c-.02.03-.038.041-.058.049s-.046.023-.077.023h-.105l-.072.242h.276c.143 0 .228-.066.29-.153l.197-.274.042.278a.13.13 0 0 0 .071.094c.028.014.056.038.096.042l.095.003h.135l.081-.271h-.053c-.031 0-.083-.005-.092-.015s-.009-.03-.014-.058l-.043-.279h-.176l.077-.093h.433l.067-.221h-.401l.063-.202h.4l.074-.249h-1.192l-.073.249zm-3.617.856l.1-.337h.411l.075-.251h-.411l.063-.208h.402l.074-.243H9.136l-.073.243h.228l-.061.208h-.229l-.076.255h.228l-.133.446c-.018.059.008.082.025.109a.11.11 0 0 0 .074.054c.04.009.068.014.105.014h.463l.083-.278-.205.029c-.04 0-.149-.005-.137-.042zm.047-1.615l-.104.191c-.022.042-.042.068-.06.079s-.047.014-.093.014h-.054l-.073.244h.18c.087 0 .153-.032.185-.048s.043-.008.07-.034l.061-.054h.563l.075-.254h-.412l.072-.139h-.409zm.832 1.62c-.01-.014-.003-.039.012-.09l.154-.517h.548l.175-.005c.04-.004.084-.019.132-.045s.074-.056.096-.09.062-.106.095-.217l.194-.654-.568.003s-.175.026-.252.055-.189.122-.189.122l.051-.179h-.351l-.492 1.654-.032.139c-.001.03.037.06.062.083s.073.019.115.022l.192.005h.27l.083-.284-.242.023c-.026 0-.044-.014-.052-.026zm.265-.956h.575l-.037.116c-.005.003-.017-.006-.076.001h-.498l.035-.118zm.115-.39h.58l-.042.14s-.274-.003-.317.005c-.193.034-.305.138-.305.138l.084-.284zm.436.896c-.005.017-.012.028-.023.036s-.031.01-.059.01h-.082l.005-.142h-.341l-.014.692c-.001.05.004.079.04.102.036.029.147.033.296.033h.214l.077-.259-.186.01-.062.004c-.008-.004-.017-.007-.026-.016s-.021-.003-.019-.053l.001-.178.195-.008a.25.25 0 0 0 .189-.068c.037-.032.049-.068.062-.117l.033-.157h-.268l-.034.111z" fill="#fefefe"/></svg>