<?xml version="1.0" encoding="UTF-8"?>
<svg width="24px" height="24px" viewBox="0 0 24 24" version="1.1" xmlns="http://www.w3.org/2000/svg" xmlns:xlink="http://www.w3.org/1999/xlink">
    <title>icon/Arrowright 24</title>
    <g id="icon/Arrowright-24" stroke="none" stroke-width="1" fill="none" fill-rule="evenodd">
        <g id="Group">
            <rect id="Rectangle" x="0" y="0" width="24" height="24"></rect>
            <rect id="Rectangle-Copy" x="3" y="3" width="18" height="18"></rect>
            <path d="M15.6821394,5.26863253 L15.7684024,5.36003305 L20.7655257,11.3600331 L20.7774345,11.374551 C20.7830974,11.381607 20.7886667,11.3887415 20.7941403,11.3959525 C20.8034674,11.407969 20.8121499,11.4199636 20.8205381,11.432112 C20.8341646,11.452106 20.8473743,11.4727897 20.8598261,11.4939724 C20.8679759,11.5076537 20.8755688,11.5213427 20.882821,11.5351746 C20.8869753,11.5431909 20.891288,11.5516738 20.8954821,11.5602253 C20.90402,11.57794 20.9082559,11.5871499 20.9123427,11.596405 C20.9195863,11.6129386 20.9265443,11.6300049 20.9330168,11.6472241 C20.9373689,11.6584969 20.94134,11.6696401 20.9451051,11.6808319 L20.9544139,11.7104896 C20.9588248,11.7251238 20.9628969,11.7398458 20.9666287,11.7546429 C20.969008,11.7633792 20.9711541,11.7724076 20.9731769,11.7814825 C20.9742243,11.7861944 20.9753053,11.7912169 20.976347,11.7962451 L20.9821409,11.8274262 C20.9841746,11.8390679 20.9860025,11.8507424 20.9876241,11.8624436 C20.9893862,11.8743799 20.9908549,11.8867119 20.992097,11.8991106 C20.9926398,11.9042846 20.9930769,11.9089907 20.9934805,11.9136986 L20.995675,11.9461215 C20.9962528,11.9567845 20.9966609,11.9674579 20.9968989,11.9781373 C20.9970425,11.9851834 20.9971233,11.9925823 20.9971233,12 L20.9968989,12.0218627 C20.9966311,12.033877 20.9961481,12.0458838 20.9954504,12.0578767 L20.9934805,12.0863014 C20.9931345,12.0903367 20.992764,12.0943708 20.992369,12.0984034 L20.9971233,12 C20.9971233,12.0474783 20.9938145,12.0941839 20.9874149,12.1398986 C20.9868826,12.1428445 20.9864014,12.1461472 20.9859038,12.1494477 L20.9832849,12.1667695 C20.9803007,12.1845173 20.9768328,12.2022094 20.9728793,12.2198251 C20.9709226,12.2285854 20.9687639,12.2376254 20.9664833,12.2466168 C20.9647915,12.2526127 20.9631434,12.2588653 20.9614343,12.2651035 L20.9545442,12.2895889 C20.950112,12.304266 20.9453316,12.318869 20.9402019,12.3333855 C20.9376808,12.3405208 20.9350676,12.3476515 20.9323761,12.3547436 C20.9293859,12.3623798 20.9264093,12.3699661 20.9233379,12.3775204 L20.91278,12.4026032 C20.9077964,12.4139228 20.9025898,12.4251748 20.8971597,12.436353 C20.8922707,12.4463892 20.8874808,12.4558491 20.8825463,12.4652211 C20.8755688,12.4786573 20.8679759,12.4923463 20.8600432,12.5058793 C20.8473743,12.5272103 20.8341646,12.547894 20.8202343,12.5680412 C20.8121499,12.5800364 20.8034674,12.592031 20.7944916,12.6038614 C20.7886667,12.6112585 20.7830974,12.618393 20.7774345,12.625449 L20.766,12.6369748 L20.7655257,12.6399669 L15.7684024,18.6399669 L15.6821394,18.7313675 C15.3191709,19.0707588 14.7517656,19.0946584 14.3600331,18.7684024 C13.9356561,18.4149585 13.8781536,17.78441 14.2315976,17.3600331 L14.2315976,17.3600331 L17.862,12.9999748 L4,13 C3.44771525,13 3,12.5522847 3,12 C3,11.4871642 3.38604019,11.0644928 3.88337887,11.0067277 L4,11 L17.863,10.9999748 L14.2315976,6.63996695 C13.8781536,6.21559 13.9356561,5.58504155 14.3600331,5.23159756 C14.7517656,4.90534158 15.3191709,4.9292412 15.6821394,5.26863253 Z" id="Combined-Shape" fill="#1D1D1D" fill-rule="nonzero"></path>
        </g>
    </g>
</svg>