<?xml version="1.0" encoding="UTF-8"?>
<svg width="64px" height="64px" viewBox="0 0 64 64" version="1.1" xmlns="http://www.w3.org/2000/svg" xmlns:xlink="http://www.w3.org/1999/xlink">
    <title>icon/culture</title>
    <g id="icon/culture" stroke="none" stroke-width="1" fill="none" fill-rule="evenodd">
        <g id="Group">
            <path d="M42.4,8 C51.1350202,8 58,15.0113647 58,23.8897646 L57.9956547,24.3771072 L57.9599597,25.3315572 C57.7504396,28.9650016 56.6911292,32.0740253 54.1395642,35.7373202 L53.8498834,36.1466888 L53.1250983,37.1214698 C52.9563024,37.3413558 52.78229,37.5635236 52.6029382,37.7881795 L52.3298907,38.1270553 L51.4617727,39.1676225 L50.5182563,40.2473486 L49.4968537,41.3704109 L48.9561675,41.9494985 L47.8132705,43.1453973 L46.5862674,44.3950754 L44.5826213,46.3795662 L42.3757418,48.508557 L39.957232,50.7961462 L36.0708651,54.4180765 C33.8671036,56.4696284 30.3972028,56.5232216 28.1263315,54.5934933 L27.9291349,54.4180765 L24.9011001,51.5997775 L23.2158385,50.0181653 L20.8682506,47.7844935 L18.7295604,45.7047823 L16.791367,43.7649297 L15.6064765,42.5424298 L14.5044727,41.3716433 L13.9837754,40.8043368 L13.0014344,39.7032858 L12.3892849,38.9924361 L12.095757,38.6435023 L11.2642542,37.6208078 L10.8755403,37.1220631 L10.150632,36.1471676 C7.48720656,32.4409255 6.34020938,29.3292578 6.06685153,25.7331714 L6.040041,25.3315579 L6.00434528,24.3771072 L6,23.8897646 C6,15.0113647 12.8649798,8 21.6,8 C25.0076502,8 28.3503131,9.12345538 31.1146359,11.0913617 L31.4571269,11.341728 L32,11.764338 L32.5428731,11.341728 C35.055029,9.45634771 38.0805586,8.28387298 41.2128941,8.04527106 L41.6406546,8.01854365 L42.4,8 Z M42.4976532,11.9988078 L41.798,12.016 L41.4497122,12.0390185 C39.2648141,12.2180293 37.113659,13.0073772 35.3138893,14.2703186 L34.9999952,14.4980789 L32,16.8334829 L29.0560974,14.5409556 C26.8761837,12.9049241 24.2300669,12 21.6,12 C15.1979761,12 10.1571922,17.0382441 10.0034546,23.5478968 L9.99984101,23.8541009 L10.004,24.296 L10.0334069,25.1012775 C10.2044773,28.0678635 11.0633662,30.4653935 13.0997829,33.391757 L13.3605034,33.7603862 L14.0483969,34.686292 L14.367873,35.0974073 L15.1671081,36.080925 C15.3461529,36.2955173 15.531106,36.5136279 15.7141128,36.7263681 L15.9861816,37.0403394 L16.9428496,38.112891 L17.4171645,38.6300696 L18.4787402,39.7585294 L19.6210041,40.937713 L21.5181698,42.8370902 L23.6254947,44.8866314 L25.9531496,47.1014672 L27.6263049,48.6717648 L30.6546482,51.4903509 C31.3413763,52.129648 32.4720376,52.1677475 33.2101518,51.6045038 L33.3437438,51.4918486 L37.2085533,47.8901583 L39.598572,45.6297851 L41.7678118,43.5375867 L43.7320646,41.592661 L44.921488,40.3817776 L46.043515,39.207883 L46.5376665,38.6790895 L47.5062304,37.6152962 L48.3903088,36.6051804 L49.2262732,35.6036531 L49.7940194,34.8910991 L49.9151669,34.7347691 L50.6015798,33.8124814 C52.7734503,30.7900872 53.7123041,28.390344 53.9381936,25.5406946 L53.9627541,25.1820676 L53.9963077,24.3048378 L54,23.8897646 C54,17.2998861 49.0577087,12.1602593 42.7922995,12.0025386 L42.4976532,11.9988078 Z" id="Path" fill="#BF1515" fill-rule="nonzero"></path>
            <rect id="Rectangle" x="0" y="0" width="64" height="64"></rect>
        </g>
    </g>
</svg>