<?xml version="1.0" encoding="UTF-8"?>
<svg width="64px" height="64px" viewBox="0 0 64 64" version="1.1" xmlns="http://www.w3.org/2000/svg" xmlns:xlink="http://www.w3.org/1999/xlink">
    <title>icon/growth copy</title>
    <g id="icon/growth-copy" stroke="none" stroke-width="1" fill="none" fill-rule="evenodd">
        <g id="Group">
            <path d="M31.2977531,5.12734164 C31.7505234,4.95755279 32.2494766,4.95755279 32.7022469,5.12734164 L32.7022469,5.12734164 L56.7022469,14.1273416 C58.4325844,14.7762182 58.4325844,17.2237818 56.7022469,17.8726584 L56.7022469,17.8726584 L47.2245322,21.427615 C48.3608596,23.7078285 49,26.2792746 49,29 C49,35.1239085 45.7619448,40.4915286 40.9045767,43.4841182 C47.0775255,45.6279322 52.2712681,50.0048108 55.7321185,56.0001173 C56.2843385,56.95674 55.9565053,58.1798986 54.9998827,58.7321185 C54.04326,59.2843385 52.8201014,58.9565053 52.2678815,57.9998827 C47.9388744,50.5006494 40.5580913,46 32,46 C23.4248153,46 16.054194,50.4918735 11.7333167,57.9978042 C11.1822447,58.9550886 9.95948023,59.2843887 9.00219584,58.7333167 C8.04491145,58.1822447 7.71561126,56.9594802 8.26668328,56.0021958 C11.7228658,49.9983535 16.9129066,45.6223532 23.0902065,43.4800191 C18.2358266,40.4878336 15,35.1218007 15,29 C15,26.2792746 15.6391404,23.7078285 16.7754678,21.427615 L10,18.886 L10,36 C10,37.1045695 9.1045695,38 8,38 C6.8954305,38 6,37.1045695 6,36 L6,16 C6,15.8915092 6.00863836,15.785036 6.0252648,15.6812308 C6.11414418,15.1058935 6.44817598,14.565329 7.02669349,14.2508135 C7.11711029,14.2019657 7.21128872,14.1585552 7.30905445,14.1225632 Z M43.4515744,22.8415083 L32.7022469,26.8726584 C32.2494766,27.0424472 31.7505234,27.0424472 31.2977531,26.8726584 L31.2977531,26.8726584 L20.5484256,22.8415083 C19.5605897,24.6745104 19,26.7717889 19,29 C19,36.1797017 24.8202983,42 32,42 C39.1797017,42 45,36.1797017 45,29 C45,26.7717889 44.4394103,24.6745104 43.4515744,22.8415083 Z M13.695,15.999 L13.696,15.998 L13.695,15.999 L32,22.864 L50.304,15.999 L50.302,15.999 L50.304,15.999 L32,9.135 L13.695,15.999 Z" id="Combined-Shape" fill="#FFFFFF" fill-rule="nonzero"></path>
            <rect id="Rectangle" x="0" y="0" width="64" height="64"></rect>
        </g>
    </g>
</svg>