<?xml version="1.0" encoding="UTF-8"?>
<svg width="64px" height="64px" viewBox="0 0 64 64" version="1.1" xmlns="http://www.w3.org/2000/svg" xmlns:xlink="http://www.w3.org/1999/xlink">
    <title>icon/work life balance</title>
    <g id="icon/work-life-balance" stroke="none" stroke-width="1" fill="none" fill-rule="evenodd">
        <g id="Group">
            <path d="M37,22 C46.1045695,22 54,29.8954305 54,39 C54,42.1154921 51.1083928,45 48,45 L48,45 L44,45 L44,47 L51,47 C55.0159607,47 58,49.1595569 58,53 C58,56.7569552 55.1442913,58.9053119 51.2604274,58.9969432 L51,59 L12,59 C10.3080004,59 8.77957996,58.299634 7.6888254,57.1729885 C6.62573703,56.1647913 6,54.7586321 6,53 C6,51.2413679 6.62573703,49.8352087 7.6897604,48.8274862 C8.77957996,47.700366 10.3080004,47 12,47 L20,47 L20,44.999 L16,45 C12.9659889,45 10.1317185,42.2346844 10.0044552,39.2113196 L10,39 C10,29.8954305 17.8954305,22 27,22 L27,22 Z M32,42 C31.9978621,42 31.994549,42.0006556 31.9898276,42.0022642 L31.9898276,42.0022642 L31.942737,42.0257296 L31.8506663,42.0863372 L31.7842688,42.1350291 L31.5901599,42.2932807 L31.2499923,42.5623582 L31.1094004,42.6641006 C29.3935314,43.8080133 27.8399446,44.4546842 26.1639299,44.7572854 C26.0370607,44.7801914 25.9138603,44.8010036 25.7922363,44.8199046 L25.7922363,44.8199046 L25.4300002,44.8710563 L25.064666,44.9118353 L24.6836783,44.9433367 C24.6181784,44.9478746 24.5515031,44.9520716 24.4833908,44.9559504 L24.4833908,44.9559504 L24.055381,44.9755882 L24,44.976 L24,47 L28,47 C31.3137085,47 34,49.6862915 34,53 C34,53.7015272 33.8796036,54.3749342 33.6583461,55.0006859 L51,55 C53.0340193,55 54,54.3009173 54,53 C54,51.749118 53.1068966,51.0546659 51.2299605,51.0030969 L51,51 L36,51 C34.8954305,51 34,50.1045695 34,49 C34,47.8954305 34.8954305,47 36,47 L40,47 L40,44.975 L39.9708452,44.9744808 L39.5232179,44.9540446 C39.4520381,44.950012 39.3824076,44.9456507 39.3140815,44.9409373 L39.3140815,44.9409373 L38.9178188,44.9082464 C38.789643,44.8958171 38.6647262,44.8817934 38.5411099,44.8659891 L38.5411099,44.8659891 L38.1722036,44.8130483 C38.1107165,44.8032724 38.049065,44.7930049 37.987004,44.7822224 L37.987004,44.7822224 L37.6077677,44.7111614 C36.0148843,44.3925847 34.5265202,43.7547143 32.8905996,42.6641006 L32.8905996,42.6641006 L32.7499991,42.5623524 L32.1493314,42.086336 L32.0572633,42.0257279 L32.0101744,42.0022639 Z M28,51 L13,51 C11.6700643,51 10.7967309,51.2988682 10.3514717,51.8694209 L10.3222124,51.9109791 C10.118404,52.2243315 10,52.5983384 10,53 C10,53.4094155 10.1230196,53.7900982 10.3341108,54.1071002 C10.7476567,54.65899 11.5515207,54.9634242 12.7700395,54.9969031 L13,55 L28,55 C29.1045695,55 30,54.1045695 30,53 C30,51.9456382 29.1841222,51.0818349 28.1492623,51.0054857 L28,51 Z M37,26 L27,26 C20.1045695,26 14,32.1045695 14,39 C14,39.8954305 15.1045695,41 16,41 L16,41 L22.1044914,41 L22.9309482,40.9970916 L23.393904,40.9911559 L23.7986752,40.9811659 L24.1557426,40.9663873 L24.475587,40.9460853 C24.5263748,40.9422006 24.5760483,40.9380551 24.6248259,40.9336336 L24.6248259,40.9336336 L24.9084874,40.9036696 L25.1811279,40.8663462 L25.4532285,40.8209288 C26.5745526,40.6184759 27.6186064,40.1838949 28.8905996,39.3358994 L28.8905996,39.3358994 L29.1647119,39.1075133 L29.375967,38.9412723 C30.1555896,38.3533859 30.9811047,38 32,38 C33.0189205,38 33.8444339,38.3533923 34.6240658,38.941299 L34.6240658,38.941299 L34.7606611,39.0476653 L35.1051957,39.3311773 L35.4087268,39.5304532 C36.4914467,40.2155836 37.4174795,40.5938881 38.3922323,40.7888386 C38.4385744,40.7981071 38.484517,40.8069848 38.5302642,40.8154873 L38.5302642,40.8154873 L38.804032,40.862123 L39.0828969,40.9004947 L39.3766484,40.9313439 L39.6950762,40.9554123 L40.04797,40.9734416 L40.4451196,40.9861734 L40.8963147,40.9943493 L41.4113449,40.9987109 L48,41 C48.9014519,41 50,39.904149 50,39 C50,32.1045695 43.8954305,26 37,26 L37,26 Z M33.568635,28.7588541 L33.6641006,28.8905996 L35.2891683,31.3282012 C36.3535806,32.9248196 38.1138854,33.9115567 40.0206067,33.9943418 L40.2814701,34 L42,34 C43.1045695,34 44,34.8954305 44,36 C44,37.0543618 43.1841222,37.9181651 42.1492623,37.9945143 L42,38 L40.2814701,38 C37.0457941,38 34.0172947,36.435057 32.1443723,33.8127395 L31.999,33.604 L31.8556277,33.8127395 C30.0451361,36.3476464 27.1548219,37.8944956 24.0413718,37.9948023 L23.7185299,38 L22,38 C20.8954305,38 20,37.1045695 20,36 C20,34.9456382 20.8158778,34.0818349 21.8507377,34.0054857 L22,34 L23.7185299,34 C25.6374265,34 27.4348828,33.0826811 28.5614228,31.542114 L28.7108317,31.3282012 L30.3358994,28.8905996 C31.0970957,27.7488052 32.7396426,27.7048901 33.568635,28.7588541 Z M32,4 C36.418278,4 40,7.581722 40,12 C40,16.418278 36.418278,20 32,20 C27.581722,20 24,16.418278 24,12 C24,7.581722 27.581722,4 32,4 Z M32,8 C29.790861,8 28,9.790861 28,12 C28,14.209139 29.790861,16 32,16 C34.209139,16 36,14.209139 36,12 C36,9.790861 34.209139,8 32,8 Z" id="Combined-Shape" fill="#BF1515" fill-rule="nonzero"></path>
            <rect id="Rectangle" x="0" y="0" width="64" height="64"></rect>
        </g>
    </g>
</svg>