<?xml version="1.0" encoding="UTF-8"?>
<svg width="48px" height="48px" viewBox="0 0 48 48" version="1.1" xmlns="http://www.w3.org/2000/svg" xmlns:xlink="http://www.w3.org/1999/xlink">
    <title>icon/Map_gps</title>
    <g id="icon/Map_gps" stroke="none" stroke-width="1" fill="none" fill-rule="evenodd">
        <g id="Group">
            <rect id="Rectangle-Copy" x="6" y="6" width="36" height="36"></rect>
            <path d="M24,6 C16.661304,6 10,11.641527 10,20 C10,26.0608877 14.2471903,33.1395382 22.5912364,41.4196426 C23.3477437,42.1703527 24.5600353,42.1959576 25.3475654,41.4778591 C33.7225871,33.841211 38,26.7121895 38,20 C38,10.9511137 31.7759584,6 24,6 Z M24,10 C29.7419909,10 34,13.3871701 34,20 L33.996169,20.2989238 C33.8736131,25.0934185 30.8096779,30.5490931 24.6782455,36.6022627 L24.055,37.208 L23.8278893,36.9729847 C17.235841,30.0973333 14,24.3906473 14,20 C14,14.0116339 18.7367872,10 24,10 Z" id="Oval" fill="#BF1515" fill-rule="nonzero"></path>
            <path d="M24,14 C27.3137085,14 30,16.6862915 30,20 C30,23.3137085 27.3137085,26 24,26 C20.6862915,26 18,23.3137085 18,20 C18,16.6862915 20.6862915,14 24,14 Z M24,18 C22.8954305,18 22,18.8954305 22,20 C22,21.1045695 22.8954305,22 24,22 C25.1045695,22 26,21.1045695 26,20 C26,18.8954305 25.1045695,18 24,18 Z" id="Oval" fill="#BF1515" fill-rule="nonzero"></path>
            <rect id="Rectangle" x="0" y="0" width="48" height="48"></rect>
        </g>
    </g>
</svg>