<?xml version="1.0" encoding="UTF-8"?>
<svg width="266px" height="189px" viewBox="0 0 266 189" version="1.1" xmlns="http://www.w3.org/2000/svg" xmlns:xlink="http://www.w3.org/1999/xlink">
    <title>Group 7 Copy 6</title>
    <g id="Final-About-MEGA-web" stroke="none" stroke-width="1" fill="none" fill-rule="evenodd">
        <g id="about/_Desktop_1440px_instruction" transform="translate(-163.000000, -1279.000000)">
            <g id="Group-7-Copy-6" transform="translate(163.000000, 1279.000000)">
                <g id="Mission-graphics-1">
                    <rect id="Rectangle" x="0" y="0" width="266" height="189"></rect>
                    <path d="M147.071863,15.7219104 C151.211009,13.5908618 155.57352,11.7177337 158.724138,16.4828527 C158.81972,16.5971992 158.927568,16.7094946 159.081419,16.7351328 C159.692222,16.7894858 160.303536,16.6310416 160.916383,16.6130949 C165.358631,16.438755 166.638505,19.8322294 164.712049,23.4774711 C167.013676,25.3762375 168.054341,28.5451211 167.249308,31.4412141 C167.184752,31.729644 167.079346,32.0092596 166.962445,32.2862631 L166.722011,32.8386251 C166.523373,33.2990875 166.34716,33.7637802 166.32927,34.261418 C166.479032,37.1698173 164.218806,39.3152233 161.483228,39.7895303 C161.114191,39.8079898 160.465053,40.01207 160.009635,39.9377192 C159.664621,41.0514434 159.356919,42.1692696 159.476524,43.3332447 C159.594596,44.8751271 159.977945,46.3272757 160.662861,47.6896905 C160.772755,47.9860683 161.187794,48.6208706 161.385602,49.1577348 C162.870951,47.5491931 163.80939,47.0764244 167.285598,48.9372462 C171.604152,51.0206077 175.208144,54.5679114 177.158623,58.9581997 C178.57037,61.7102059 179.740351,64.7109028 179.624324,67.8515844 L179.624324,67.8515844 L179.628413,67.8213313 C179.628413,67.8433802 179.626368,67.863378 179.624324,67.8833758 C179.626368,67.9238842 179.62279,67.9638798 179.612568,68.0018244 C182.260231,67.0742337 185.031589,66.5737757 187.750811,65.9148735 C192.219126,64.8631938 196.621506,63.5510299 201.095955,62.5337054 C202.068639,62.4516631 206.025823,61.0933504 206.335058,62.1450301 C206.352947,62.2050235 206.361126,62.2732212 206.36317,62.347572 C206.415306,62.4055144 206.453129,62.4773014 206.471019,62.5695989 C206.497087,64.0320028 207.141624,65.2836606 207.75856,66.5635204 C208.207845,67.6254553 208.465456,68.7586645 208.687287,69.8585441 C209.268444,74.3354895 211.392709,78.5514379 211.310927,83.1283724 C211.426443,83.3324526 211.33444,83.5929369 211.141232,83.7093344 C210.791617,84.147748 210.320354,84.4743788 209.901225,84.8430564 C209.71364,85.0009878 209.527588,85.159432 209.340003,85.3173634 C209.375782,85.3435144 209.412072,85.3676143 209.447851,85.3917142 C208.751179,86.0347207 208.064217,86.6936229 207.377256,87.348423 C207.233628,87.4848183 207.052176,87.6632603 206.844145,87.6950517 C206.832389,87.7032559 206.818589,87.7109474 206.804277,87.7191516 C206.662693,87.7991428 206.488909,87.831447 206.335058,87.8811851 C204.072788,88.6005935 201.774738,89.217449 199.471067,89.7963599 C199.290793,89.8199917 199.091148,89.8638161 198.880279,89.9148272 L198.556575,89.9951081 C197.621333,90.22863 196.556926,90.4745019 195.988725,89.7343154 C194.940393,86.9602604 195.036486,83.8416276 194.08578,81.0414216 C191.911936,81.4239438 189.765182,81.906455 187.61485,82.3653791 C187.728557,82.7779572 187.846414,83.1901105 187.965193,83.6023805 L188.321069,84.840082 C188.849351,86.6987839 189.330956,88.5708137 189.471792,90.505513 C189.513705,91.1521089 189.645577,91.8874129 189.258139,92.4601707 C188.947955,92.8334631 188.493569,92.9612984 188.020586,93.0471797 L187.664324,93.1069041 C187.427108,93.1457157 187.193093,93.1867578 186.977979,93.2554682 C185.272843,93.5677417 183.56004,93.9923105 181.820658,94.0266657 C180.496826,94.080506 180.621031,92.4083815 180.379266,91.5228375 C180.039235,89.8568661 179.557749,88.2223336 179.058581,86.5976078 L178.558103,84.9753496 C178.19111,83.8693169 178.151241,83.77343 177.202581,83.9616145 C176.887212,86.8720649 175.467799,90.2388756 172.576325,91.1762088 C172.508345,92.5842597 172.35705,93.9923105 172.21291,95.3844657 C172.309003,95.2885788 172.460809,95.2603768 172.596259,95.3085766 C175.064004,95.7833964 177.493926,96.4464007 179.914136,97.1211985 C183.140401,97.942647 186.353376,98.9158737 189.198337,100.682347 C191.424316,101.998613 193.786257,103.536906 194.64087,106.122777 C196.927163,113.686051 194.565222,121.69184 192.313175,128.982836 C191.432494,131.971227 190.575837,135.007817 189.553573,137.934164 C189.258139,138.797146 188.940726,139.672435 188.575267,140.515932 C188.47764,140.786159 188.329923,141.114841 187.986443,141.070743 C187.998199,141.072794 188.010466,141.074845 188.024266,141.076896 L188.024266,141.076896 L188.002288,141.076896 C187.978265,141.076896 187.952197,141.072794 187.928685,141.068692 C187.766656,141.110739 187.570892,141.120994 187.369506,141.118943 C187.561181,142.474692 187.794768,143.873 188.78892,144.824178 C191.220886,146.963431 194.525354,148.397633 195.915122,151.486012 C196.288248,152.53 195.589531,154.053936 194.333679,153.797554 C191.729973,153.541172 189.180447,153.246845 186.614564,152.816123 C185.873934,152.700238 185.109281,152.572047 184.364562,152.38335 C184.316515,153.753456 184.290447,155.135869 184.28278,156.511616 C184.166754,157.996068 184.30067,159.40617 184.224511,160.852166 C184.138641,161.146492 183.83554,161.266992 183.551862,161.244943 C182.695205,161.322883 181.838547,161.355188 180.978312,161.378775 C176.659758,161.426975 172.362672,161.929996 168.042074,161.981786 C161.481184,162.027934 154.926427,162.078185 148.405406,162.149972 C147.267626,162.16433 146.125246,162.160228 144.985422,162.120232 C144.534092,162.049983 142.846846,162.11613 141.810781,161.905896 L141.810781,161.905896 C141.203557,163.800561 141.09213,166.099796 142.707307,167.494002 C144.170678,168.753864 145.542556,170.132175 146.314876,171.934541 C147.107642,173.494883 147.203735,176.175103 145.212876,176.175103 C144.989511,176.175103 144.739567,176.140747 144.460489,176.06896 C141.345651,175.507996 138.48229,174.184039 135.833093,172.493455 C133.297367,170.973108 130.675772,168.777964 132.143231,165.533191 C132.64823,164.121038 133.368926,162.803234 134.029819,161.46133 C134.071732,161.382877 134.111601,161.302886 134.15198,161.220843 C134.022152,161.21469 133.896414,161.204948 133.776298,161.204948 C133.598935,161.198794 133.423106,161.220843 133.251365,161.244943 C132.971776,161.282888 132.698321,161.320832 132.44071,161.236739 C127.998462,161.473123 123.565926,161.529015 119.125211,161.471072 C114.445287,161.444921 109.770985,161.360828 105.09515,161.34083 C100.334978,161.376724 95.5691839,161.455177 90.8233237,161.022404 C87.8643807,160.71013 84.8277458,160.383499 82.0563883,159.243624 C80.0634847,158.474477 79.6106218,156.279333 79.4189473,154.372363 C79.193027,152.724338 79.0355984,151.071699 78.8955482,149.412906 C78.3164357,142.376754 78.1227167,135.315989 78.1487844,128.253686 C78.1482733,128.251634 78.1482733,128.249583 78.1477622,128.248045 C77.7567462,127.344042 77.4086653,126.421579 77.0605845,125.501679 C75.691262,121.833876 74.1737112,118.224528 72.8360788,114.544931 C70.8314193,109.036816 68.3836083,103.69894 66.4269952,98.1708272 C64.2526398,91.5551416 61.5651079,85.13123 59.0390938,78.6457866 C56.5335249,72.0598414 54.1833402,65.4118517 51.6900385,58.8202661 C51.1206375,57.129682 50.4479878,55.4790936 49.8351406,53.8064564 C49.7911832,51.1985369 50.4065861,48.4639647 50.8625158,45.9016813 C50.9141401,45.6124822 50.9606531,45.3084129 50.9586086,44.9689629 C50.9575864,44.7997507 51.0306782,44.642332 51.161528,44.5351643 C51.3215123,44.4038966 51.5346543,44.2228908 51.6977054,44.0803423 C54.4629293,42.005185 57.6518816,40.5827768 60.8081215,39.2208747 C67.0935112,36.4827131 73.4407479,33.8747936 79.8181414,31.3530186 C87.7008185,28.0944012 95.8109493,25.2639421 104.04273,23.0626448 C107.263372,22.5037316 108.281547,27.381146 109.241964,29.6444878 C110.272406,32.6528762 111.318693,35.7094645 112.664503,38.571715 C112.666037,38.5737661 112.666037,38.5778682 112.668081,38.5799192 C112.670126,38.5860724 112.67217,38.5917128 112.67626,38.597866 C114.595049,42.9963585 116.278206,47.5194528 118.344713,51.8497476 C124.593812,47.7214819 132.692187,45.0217777 139.200942,44.8874334 C140.185382,44.8894845 141.199979,44.9335822 142.154262,45.1817601 C142.258022,45.203809 142.31578,45.3237959 142.289712,45.4222466 C142.260066,45.5263378 142.158351,45.5765887 142.060214,45.5601802 C139.347125,45.2520089 136.575768,45.480189 133.940371,46.0308979 C128.613354,47.2748642 123.324161,49.3177173 118.737773,52.3686651 C118.658037,52.4107118 118.544566,52.4932669 118.46534,52.534288 C118.426494,52.5542858 118.228175,52.669145 118.152527,52.7445214 C118.131571,52.7655447 117.917407,52.9393719 117.913318,52.9352697 C116.535817,53.9028561 115.229875,54.9663293 114.013892,56.1359448 C113.998047,56.1400469 113.902976,56.2277296 113.858508,56.2692635 C113.768549,56.3538696 113.74197,56.3810461 113.63361,56.4907777 C113.593741,56.5307733 113.522694,56.6194815 113.460847,56.6789622 C113.122989,57.0025165 112.808132,57.349658 112.492763,57.6962866 C111.629972,59.2007372 113.952045,62.1788725 114.656896,63.5874362 C116.872653,67.3583051 119.347554,71.0076489 122.194048,74.3247215 C122.344321,74.4477849 122.582508,74.6436609 122.732781,74.7667243 C122.899921,74.8390241 123.017992,75.0302852 122.984769,75.2143676 C123.17031,75.4128074 123.366073,75.5953515 123.589949,75.7394383 C123.70342,75.7732807 123.847049,75.7753318 123.952853,75.7671276 C125.342621,75.5692005 126.53458,74.86979 127.776631,74.2913918 C131.250795,72.5608121 134.371256,70.3354149 137.156414,67.6792956 C137.587809,67.2865181 137.995181,66.8701535 138.436288,66.4876313 C138.600361,66.351236 138.857972,66.3773869 139.005689,66.5255758 C139.175385,66.6958136 139.165162,66.9639893 139.005689,67.1362782 C136.743419,69.3796222 134.279763,71.4347816 131.592231,73.1315188 C134.007841,72.3059683 136.601835,71.9137035 139.113538,72.3905744 C142.753309,73.3699543 146.472816,74.747752 149.53143,76.9710982 C149.67148,77.0475001 149.786996,77.1654359 149.859065,77.2956781 C150.017005,77.2213272 150.198457,77.167487 150.322151,77.1013404 C153.181423,76.1081158 156.096408,75.3025631 158.963859,74.3370278 C161.630945,73.4617391 164.348634,72.7530988 167.043833,71.9777991 C166.420763,71.5609217 166.037414,70.7717773 166.195354,70.0226286 C166.840402,68.1561664 169.240167,68.9832553 170.206717,70.132873 C170.223074,68.6458564 171.957344,68.2387215 172.976541,69.114523 C172.981653,69.1124719 172.979097,69.1134975 172.983697,69.1114464 C172.983697,68.748922 173.28731,68.3540935 173.624657,68.1982131 C174.137833,67.8854269 174.846773,68.0300264 175.298103,68.3561445 C175.301681,68.3581956 175.30577,68.3622977 175.309859,68.3663998 C175.699341,66.9480937 177.354387,67.158327 178.112907,68.3402488 C178.169131,68.3981912 178.2228,68.4663889 178.274935,68.5407397 C178.400674,68.4366485 178.586215,68.3904997 178.729843,68.3264042 C178.777889,68.3084575 178.82798,68.2884596 178.876027,68.2720512 C178.726265,68.1582175 178.65624,67.943882 178.694064,67.7592868 C178.784023,64.7591027 177.629887,61.9106968 176.292255,59.2868816 C174.82275,56.1538915 172.66424,53.3798364 169.779411,51.4713275 C167.950581,50.3155567 166.039459,49.0192885 163.899349,48.6167685 C162.607207,48.5767728 161.954492,50.0068726 161.152015,50.800119 C160.339315,51.7077119 159.440745,52.5727453 158.354589,53.1398627 C156.298306,54.2351273 153.888318,53.4162427 151.889792,52.5665922 C148.860824,51.2887834 146.668579,48.7152192 144.018871,46.837989 C143.535852,46.465722 143.062543,46.0749956 142.563679,45.7247776 C142.427718,45.6283779 142.411872,45.4242977 142.507454,45.2961066 C142.637282,45.1315092 142.857068,45.1617623 142.996607,45.2858513 C143.799596,45.7909242 144.567827,46.3416331 145.320724,46.9164419 C145.466397,46.7379999 145.638137,46.5718643 145.741897,46.3836798 C146.378768,45.4119913 146.788184,44.3223671 147.179711,43.238896 C147.257403,42.9963585 147.525589,42.351843 147.595614,42.1031523 C146.889875,41.5093271 146.521647,41.0434722 146.030449,40.2661214 C145.593431,39.6313192 145.376949,38.7838132 145.112151,38.0599766 C142.401107,39.0670458 137.875576,38.0133146 137.318442,35.0008241 C137.220305,34.5721532 137.284197,34.1291248 137.242284,33.6984027 C137.027097,33.3640804 136.727574,32.9574582 136.573723,32.6210848 C135.064351,29.7726789 135.774824,26.3417727 138.777724,24.8993666 C138.77568,22.1914581 138.36473,19.0830807 140.301409,16.8776813 C141.521481,15.4455305 143.566008,14.7943197 145.376949,15.3250308 C145.947883,15.4055348 146.496839,15.9239396 147.071863,15.7219104 Z M136.369782,158.126311 C135.986433,158.833413 135.681287,159.600508 135.325539,160.329659 C134.503128,162.684786 131.74966,166.167994 132.682476,168.615931 C134.44537,171.80071 141.311405,174.84089 144.841794,175.351603 C145.937661,175.61824 146.173293,174.614761 146.019442,173.741523 C145.702029,172.055041 144.699699,170.590586 143.533807,169.39482 C140.399035,166.971495 140.025908,164.878391 141.000126,161.489019 C140.972014,161.424924 140.969969,161.353137 140.993992,161.274684 C141.018016,161.222894 141.053795,161.182899 141.097752,161.156748 C141.149888,160.982408 141.205601,160.803966 141.265915,160.623986 C141.307827,160.513741 141.341562,160.397344 141.373252,160.277357 C139.8281,159.762542 138.316683,159.155429 136.869157,158.404742 C136.703551,158.318597 136.533855,158.2263 136.369782,158.126311 Z M182.310012,116.119735 L182.247964,116.11963 C182.036355,116.145781 181.832925,116.19757 181.631028,116.271921 C181.505289,116.319608 181.381595,116.37191 181.255857,116.422161 C181.034026,116.510357 180.81475,116.598039 180.590874,116.684184 C179.746484,117.010815 178.895961,117.32719 178.049015,117.647668 C177.709623,117.774833 177.376365,117.90969 177.045152,118.054803 C175.737165,118.184532 174.447579,118.411687 173.193261,118.660377 C174.031007,125.993933 175.093139,133.303902 175.613471,140.670787 C175.851148,142.996686 176.189517,145.319508 176.222741,147.655663 C176.123581,148.780155 176.276409,150.285631 175.593537,151.21476 C174.986142,151.398785 174.333944,151.458576 173.677259,151.494364 L172.889662,151.532203 C172.628132,151.545252 172.368465,151.560876 172.11324,151.585489 C168.432578,151.691631 164.752939,151.811618 161.074323,151.985445 C157.434552,152.184397 153.79427,152.333612 150.153477,152.475647 C149.845265,152.998667 149.530918,153.51861 149.204305,154.031887 C147.880473,156.153193 146.496839,158.27655 144.711966,160.043024 C144.176811,160.611679 143.425958,161.028557 142.649549,160.681928 C142.501832,160.63783 142.353603,160.591681 142.207931,160.545533 C142.13995,160.766021 142.064303,160.984459 141.994278,161.206486 C144.985422,161.549012 148.020012,161.479277 151.041313,161.409028 C152.546597,161.373134 154.047792,161.338779 155.539275,161.355188 C159.656443,161.300835 163.747543,161.234688 167.826376,161.222894 C173.01181,161.070603 178.187021,160.679877 183.37041,160.469644 C183.246205,158.500628 183.415901,156.533664 183.398011,154.562598 C183.380121,153.749867 183.457813,152.93252 183.47417,152.123378 C182.413571,151.762905 181.431686,151.228092 180.668566,150.366648 C179.91618,149.457004 180.093543,148.203295 180.217748,147.115722 C180.349109,145.699467 180.606719,144.287314 180.742681,142.883365 C180.806572,142.578783 180.874553,141.607607 181.093828,141.072794 C178.852003,140.892301 179.311,139.874977 179.085591,137.571639 C178.903628,134.356607 178.786067,131.133883 178.873982,127.91321 C178.929695,124.686897 178.793223,121.460584 178.396585,118.265036 C178.663907,118.169662 178.932251,118.070698 179.197017,117.970197 C179.650392,117.799959 180.103766,117.631772 180.55714,117.461534 C180.824462,117.361545 181.092295,117.257454 181.357572,117.151312 C181.507334,117.090806 181.657096,117.032863 181.804813,116.966717 C182.0384,116.862626 182.252053,116.736486 182.443728,116.566248 C182.617513,116.411906 182.48564,116.089377 182.247964,116.11963 Z M115.659226,99.1240561 C114.093628,99.202509 112.530587,99.2563493 110.96499,99.3183937 C106.480829,99.5547781 101.996157,99.75732 97.5058629,99.8352602 C91.5700875,99.8450027 85.6164224,100.644402 79.7102926,100.019343 C79.0872227,104.490135 79.6121552,109.062967 79.2630521,113.565551 C79.188938,115.730955 79.1250465,117.89841 79.0790446,120.065352 C79.1250465,120.227898 79.1613368,120.391983 79.1751374,120.558118 C79.1613368,120.640161 79.1214685,120.71246 79.065244,120.770403 C79.0192421,123.083995 78.991641,125.399126 78.987552,127.71477 C78.9972635,127.740921 79.0074861,127.765021 79.0171976,127.791172 C78.9456391,127.855268 78.8914592,127.940899 78.8817477,128.043452 C78.8735695,128.107548 78.8756141,128.173694 78.8858367,128.235739 L78.8858367,128.235739 C78.8975927,128.361879 78.9435946,128.461868 79.0233312,128.539808 C79.0294648,128.576214 79.0391763,128.610057 79.0514435,128.642361 C79.053488,128.656206 79.057577,128.67005 79.061155,128.684408 L79.061155,128.684408 L79.065244,128.696201 C79.0391763,128.71825 79.0136197,128.738248 78.9855074,128.756195 C78.9895965,133.725907 79.0974453,138.697157 79.3550558,143.654563 C79.7179595,148.065361 79.7102926,152.667934 80.8501168,156.932595 C81.8703362,159.305668 86.8063376,159.524106 89.0522514,159.952777 C93.8681367,160.519894 98.7141789,160.491692 103.557665,160.465541 C104.584018,160.459388 105.612416,160.455799 106.638258,160.455799 C107.962089,160.455799 109.285921,160.46349 110.609753,160.495795 C111.805376,160.502119 113.001496,160.51357 114.197892,160.526306 L117.787693,160.564524 C122.574614,160.610369 127.362444,160.615269 132.137098,160.333248 C132.532714,160.327608 132.935997,160.271204 133.331102,160.311199 C133.375059,160.325557 133.414928,160.343504 133.450707,160.363501 C133.584624,160.359399 133.714451,160.353246 133.8361,160.335299 C134.075821,160.327608 134.321676,160.303508 134.560886,160.319404 C134.944235,159.43386 135.311738,158.530882 135.886762,157.773529 C135.756934,157.659182 135.641419,157.530991 135.543281,157.388955 C134.918678,156.347531 135.857116,155.207656 136.106549,154.180076 C136.231776,153.782684 136.344736,153.381702 136.452074,152.978669 L136.452074,152.978669 L134.550585,153.033656 C131.381744,153.129337 128.214501,153.249409 125.049742,153.457078 C115.661781,153.966253 106.277398,154.80411 96.8695036,154.732836 C94.4697391,154.708736 92.0643521,154.639 89.6799215,154.415948 C87.6778176,154.337495 87.3752274,153.723203 87.3174695,151.814181 C87.2530669,149.705694 86.9913673,147.636178 86.9121419,145.534869 C86.8906743,142.52443 86.993923,139.513478 86.9065194,136.503551 C86.9392319,136.204097 86.8916966,135.584165 86.9831892,135.125753 C86.4976139,134.971411 86.0723521,134.704774 85.8893668,134.19406 C85.6522016,133.459782 85.8372314,132.551163 86.4746129,132.078908 C86.5901288,132.000967 86.7097336,131.934821 86.8324053,131.876878 C86.8298496,131.835857 86.8267829,131.794836 86.8257606,131.756379 C86.773114,130.497542 86.73069,129.238193 86.6872438,127.978331 C85.6629354,127.382499 84.9248608,126.287747 85.1916717,125.08634 C85.3629009,124.262328 85.8689216,123.478311 86.5400378,122.900426 C86.4030545,117.096446 86.3723865,111.28939 86.5022141,105.489513 C86.4853467,105.257743 86.6862216,105.16442 86.8487615,105.213133 L86.8487615,105.213133 L86.8462059,105.17929 C86.8697179,104.99931 87.0516809,104.847019 87.2372218,104.880861 C88.0233428,104.954187 88.8201975,104.873683 89.6073407,104.856761 C99.3408267,104.563973 109.075846,104.050696 118.809843,103.844565 C117.762534,102.693921 116.854763,101.421753 116.134578,100.055749 C115.974594,99.7491158 115.815121,99.4388934 115.659226,99.1240561 Z M119.472781,104.532182 L119.398667,104.532182 C108.825391,104.836251 98.253649,105.30543 87.6803732,105.614114 C87.4927878,105.610525 87.2280214,105.616165 87.0465696,105.531559 C87.4564974,111.117101 87.1973535,116.738024 87.3558044,122.344589 C88.1863939,121.920533 89.139655,121.813365 90.0131795,122.238447 C92.6705546,123.65624 91.7101376,128.514683 88.7312605,128.514683 C88.516074,128.514683 88.2901537,128.489044 88.0545218,128.435204 C87.8955598,128.419821 87.7371089,128.387517 87.5796802,128.346496 C87.6052368,129.433556 87.636927,130.520617 87.7166636,131.6046 C88.334111,131.486152 88.984782,131.47282 89.5971181,131.400008 C90.2585228,131.347193 90.8938599,131.311299 91.5419752,131.325657 C91.6472684,131.31694 91.7469391,131.374369 91.7965189,131.464103 C95.3105511,131.381035 98.8179387,131.179006 102.324304,131.311812 C102.7833,131.351295 103.274498,131.433337 103.598556,131.795862 C104.132689,132.557317 104.084131,133.943831 103.262231,134.490438 C101.627631,135.060632 99.7967564,134.906803 98.0844643,135.08063 C97.7187778,135.095101 97.3529966,135.110959 96.9871425,135.127566 L94.7913168,135.231098 C92.5949638,135.333423 90.3975507,135.416832 88.2037724,135.343678 C88.0161869,135.325219 87.8153121,135.302144 87.6123927,135.270866 C87.6890625,138.608961 87.7268862,141.945519 87.7089966,145.28464 C87.8556915,147.819234 88.0182315,150.39485 88.2441518,152.909959 C88.2891314,153.145318 88.3289997,153.350936 88.562587,153.417083 C89.3584195,153.633982 90.2160989,153.641674 91.0313544,153.71705 C97.2635864,154.118032 103.513708,153.9119 109.74134,153.543223 C118.717328,153.090452 127.678494,152.378222 136.663171,152.13671 C137.620521,148.055106 137.729393,143.754039 137.633811,139.590392 C137.304642,134.652984 135.179866,130.114507 133.061736,125.736013 C131.326443,122.150764 129.240002,118.755239 127.407083,115.224344 C126.602561,113.631698 125.943712,112.073407 125.055364,110.565367 C124.35818,109.331656 123.577682,108.135377 122.63311,107.088312 C121.493286,106.353008 120.435243,105.489513 119.472781,104.532182 L119.472781,104.532182 Z M181.569181,141.098945 C181.227745,142.573143 181.2257,144.109384 180.972179,145.60358 C180.910332,146.949586 180.371088,148.455575 180.966045,149.727743 C182.593489,151.836743 185.514608,151.933143 187.92664,152.369505 C189.749337,152.689983 191.635925,152.840223 193.457088,153.064814 C193.940108,153.072505 194.50542,153.304787 194.946527,153.046354 C195.419835,152.60589 195.281829,151.844947 194.948571,151.376281 C194.826922,151.179892 194.690961,150.997348 194.583112,150.859414 C194.179829,150.356392 193.732588,149.891828 193.279214,149.449312 C190.016659,146.476817 186.744392,146.098397 186.371266,141.100996 C186.354909,141.102534 186.343153,141.104585 186.329353,141.106636 C185.640347,141.096894 184.953386,141.102534 184.266424,141.106636 C183.463947,141.110739 182.663514,141.116892 181.862571,141.102534 C181.760855,141.102534 181.663229,141.100996 181.569181,141.098945 Z M154.302143,107.519969 L154.240488,107.521598 C154.137751,107.545698 154.061081,107.653891 154.089704,107.754905 C154.089704,107.766186 154.094305,107.775416 154.094305,107.786697 C154.114239,107.937962 154.142862,108.084613 154.185286,108.235366 C154.187842,108.251261 154.189886,108.26767 154.201642,108.290231 L154.201642,108.290231 L154.201642,108.302025 C154.206754,108.310742 154.206754,108.310742 154.208798,108.315357 L154.208798,108.315357 C154.211354,108.331253 154.215954,108.340482 154.21851,108.356891 C154.22311,108.365608 154.22311,108.377401 154.22771,108.386631 L154.22771,108.386631 L154.237422,108.416371 L154.237422,108.416371 L154.249178,108.462007 C154.260422,108.484569 154.262978,108.500978 154.265534,108.516873 L154.265534,108.516873 L154.274734,108.53482 L154.274734,108.53482 L154.274734,108.546614 L154.27729,108.551228 L154.279334,108.555843 L154.28189,108.559945 L154.284446,108.56456 L154.28189,108.571739 C154.33607,108.733773 154.383094,108.894268 154.434718,109.051686 L154.431911,109.045899 L154.420918,109.02451 C154.638277,109.737893 154.837522,110.454161 155.020811,111.176991 L155.198861,111.902143 C155.206017,111.927269 155.213172,111.952394 155.220328,111.978033 L155.220328,111.978033 L155.213172,111.964188 C155.263263,112.186215 155.315399,112.401063 155.362934,112.618475 C155.630256,113.829112 155.876111,115.033595 156.106631,116.251411 C156.109187,116.256025 156.113787,116.264742 156.111742,116.271921 C156.245659,116.974921 156.370886,117.682023 156.492025,118.391689 C156.7159,119.676164 156.956132,120.958587 157.157518,122.243062 C157.159563,122.258958 157.162119,122.275366 157.164674,122.291262 C157.164674,122.314336 157.16723,122.330232 157.17183,122.350742 C157.285813,123.069638 157.381394,123.786995 157.495377,124.505891 C157.579713,125.075572 157.674273,125.645766 157.766788,126.21596 C157.795411,126.392351 157.814834,126.569767 157.824035,126.748209 C157.860325,127.481462 157.870548,128.216766 157.839368,128.954634 C157.611915,134.08638 156.166434,139.079679 154.263489,143.8248 C153.242248,146.588087 152.004286,149.242156 150.555227,151.785467 C154.227199,151.606512 157.894571,151.347053 161.56961,151.232707 C166.045081,150.946071 170.556843,151.069135 175.015447,150.572266 C175.541759,148.360509 175.328229,146.093726 175.061402,143.84227 L174.945786,142.878504 C174.869202,142.236892 174.796273,141.597352 174.743014,140.961524 C174.324908,135.1196 173.511697,129.326901 172.772089,123.521383 C172.598815,121.976424 172.424008,120.416595 172.249712,118.858817 C167.450183,119.936135 162.596985,121.179076 157.652294,121.082676 C157.580225,120.690411 157.507133,120.29866 157.431485,119.908446 C157.196364,118.715756 157.000601,117.520502 156.761391,116.330376 C156.756791,116.321147 156.756791,116.321147 156.758835,116.313968 L156.758835,116.313968 L156.739924,116.231926 L156.735323,116.222696 C156.730212,116.179111 156.723056,116.130911 156.710789,116.085275 C156.473624,114.864896 156.216013,113.649644 155.910356,112.441572 L155.910356,112.441572 C155.909845,112.430291 155.907801,112.425676 155.907801,112.425676 L155.907801,112.425676 C155.903201,112.405165 155.902689,112.393372 155.896045,112.38004 C155.886333,112.350299 155.883778,112.32261 155.876622,112.297485 C155.862821,112.247234 155.851065,112.201598 155.838798,112.144168 C155.836753,112.139553 155.832153,112.130324 155.831642,112.119043 C155.678303,111.515519 155.520874,110.914559 155.349134,110.308985 C155.193749,109.759301 155.025587,109.211669 154.838513,108.672241 L154.838513,108.672241 L154.662172,108.146145 C154.631504,108.052309 154.598792,107.954371 154.558924,107.86515 C154.533367,107.803618 154.505766,107.748752 154.479698,107.686708 L154.479698,107.686708 L154.475098,107.677991 L154.473053,107.673376 C154.442385,107.568259 154.345782,107.502625 154.240488,107.521598 Z M102.852814,132.221969 C101.809594,131.952767 100.728039,132.128133 99.6643732,132.080959 C96.1063836,132.12198 92.5029033,132.155309 88.9684258,132.395283 C88.6954813,132.423485 88.3438225,132.558342 88.1378363,132.311703 L88.1378363,132.311703 L88.0225695,132.33063 C87.4750867,132.423332 86.7769304,132.55424 86.629997,133.16443 C86.5635499,133.457218 86.5471937,133.755647 86.6882661,134.016644 C87.5162999,134.732463 88.8120194,134.497104 89.8066822,134.560687 C94.0986573,134.365836 98.4381676,134.418651 102.695897,133.825896 C102.970886,133.759749 103.051645,133.457218 103.07669,133.206989 C103.079246,132.894716 103.172272,132.397334 102.852814,132.221969 Z M88.6791251,123.27782 C88.5257855,123.27782 88.3724459,123.294742 88.2262622,123.323969 C87.9747852,123.375758 87.7273974,123.454211 87.5035216,123.585992 C87.4258295,123.631115 87.3522265,123.685468 87.2786235,123.738795 C87.241822,123.765972 87.2039982,123.791097 87.1687301,123.819812 C87.0925715,123.88237 87.0215241,123.950567 86.9545658,124.022867 C86.9433209,124.034661 86.9300315,124.044916 86.9192977,124.057222 C86.8916966,124.088501 86.8671623,124.123369 86.8410945,124.156186 C86.8032708,124.20336 86.7644248,124.250022 86.7291566,124.29976 C86.7000221,124.341294 86.6754878,124.385391 86.6489089,124.428464 C86.4950582,124.677154 86.3800535,124.949945 86.3437632,125.242733 C86.3258735,125.390922 86.3258735,125.547315 86.3458077,125.699606 C86.3437632,125.841642 86.3596082,125.985729 86.4015211,126.122124 C86.466946,126.334409 86.5799061,126.532336 86.7429572,126.686165 C86.7444906,126.687703 86.746024,126.689242 86.7475574,126.691293 C86.9172532,126.849224 87.1211949,126.973313 87.3404705,127.051766 C87.6297712,127.157395 87.9430951,127.21944 88.2543744,127.21944 C88.4179366,127.21944 88.58201,127.201493 88.7394387,127.1656 C89.2107023,127.055355 89.5761617,126.718982 89.821505,126.31236 C89.9354874,126.126226 90.0315802,125.925735 90.1031387,125.715502 C90.143007,125.617051 90.1772529,125.517062 90.2028095,125.417073 C90.2687455,125.168382 90.2886796,124.912 90.2370553,124.65972 C90.2212102,124.483329 90.1813419,124.309502 90.1092723,124.144905 C89.9712667,123.820325 89.7059892,123.5783 89.3941987,123.42806 C89.1749231,123.321405 88.9265129,123.27782 88.6791251,123.27782 Z M104.520127,23.8681975 C103.987016,23.8681975 103.38797,24.0481778 102.693341,24.2625133 C98.6221751,25.5505773 94.485073,26.7201928 90.4440637,28.1241416 C83.8351275,30.5700275 77.3043944,33.2440935 70.7854174,35.9181595 C67.3051199,37.3303125 63.8473121,38.8260461 60.4068829,40.3284456 C57.4780968,41.6226628 53.9870655,43.1542899 51.9675831,44.9053802 C51.595479,45.2279089 51.4303834,45.1268944 52.0493642,46.6600597 C52.1904366,47.009765 52.416357,47.5373995 52.5962754,47.973762 C56.1363754,57.4240088 59.2307683,67.0403912 62.7391781,76.5024316 C65.7180551,84.3179857 68.2277131,92.3058286 71.113053,100.151636 C73.317054,106.148415 76.0403651,111.945216 78.3246138,117.90405 C78.3982168,115.334588 78.488176,112.768715 78.5898913,110.202842 C78.6797653,109.498219 78.629788,107.597501 78.6245347,105.576367 L78.624485,104.96749 C78.6250387,104.764044 78.6262243,104.560469 78.6282262,104.357842 C78.615959,104.355791 78.6062475,104.35374 78.5939804,104.352201 C78.0787593,104.115817 78.0210014,103.394357 77.8134819,102.915948 C77.4541561,101.802224 77.050873,100.700294 76.6511678,99.5988758 C74.1435544,93.1831684 71.7816136,86.7156718 69.6292369,80.1717732 C66.1571175,69.6965105 63.2441764,58.9320487 58.1885702,49.0854351 C58.0311416,48.7890573 57.8900691,48.4962688 57.7275292,48.2383484 C57.6334809,48.089134 57.47503,47.7681435 57.6319475,47.6332865 C57.788865,47.4984294 58.1170117,47.3810064 58.350599,47.3292172 C60.5740231,46.6271403 62.7306524,45.7413911 64.8776765,44.8319031 L67.023617,43.9204255 C67.7392754,43.6179109 68.4559846,43.3186822 69.1758628,43.0286627 C80.4110545,38.3717369 91.6697582,33.7466026 103.160516,29.7608853 C103.669603,29.5121946 103.81732,30.4387598 103.859744,30.5469531 C106.245708,36.6514126 108.279502,42.7020318 110.837207,48.5526729 C111.837492,50.8462678 112.949715,53.1055075 113.764459,55.4729405 C114.896617,54.3833162 116.172402,53.3500961 117.551947,52.388663 C114.944152,46.9866906 112.887868,41.3319255 110.448235,35.8561151 C109.012466,32.3447049 108.193632,28.5389679 106.379114,25.1977955 C105.831691,24.1922646 105.234689,23.8681975 104.520127,23.8681975 Z M201.824829,67.7274955 C201.736915,67.7474933 201.649,67.7674911 201.56313,67.7956931 C191.907847,70.0005798 182.405904,72.7751476 172.917761,75.603043 C167.832509,76.9834046 162.699211,78.2027582 157.655872,79.7272066 C155.860777,80.3122707 154.171997,80.9588665 152.416769,81.6239219 C151.214587,82.0228525 150.06454,82.8519925 148.781088,82.8760924 C148.647171,82.8360968 148.549545,82.7458502 148.433518,82.6735505 C148.199931,82.5294637 147.840605,82.3412792 147.962254,82.0249036 C147.093841,81.6039241 146.448793,80.7209439 145.604403,80.2399709 C143.737238,79.082149 141.656931,78.2232688 139.530622,77.7105044 C134.928389,76.9869939 129.717399,77.9207378 126.145609,81.0532152 C126.05565,81.1291043 125.989714,81.2393486 125.927867,81.3536951 C126.089384,81.4618883 126.252947,81.5659795 126.41702,81.6700707 C128.199848,82.9201901 129.916741,84.2600433 131.66379,85.5537478 C131.766016,85.6198944 131.867731,85.686041 131.971491,85.7460344 C131.973536,85.65989 132.015448,85.5737456 132.115119,85.5178543 C135.052083,83.7775321 139.067536,84.2379945 142.028524,85.7342408 C143.67948,86.6413209 144.117009,88.608285 144.336284,90.3388646 C144.352641,90.7598441 144.488091,91.2182555 144.328617,91.6151351 C144.326573,91.6171861 144.326573,91.6192372 144.324528,91.6207755 C144.597984,91.8253684 144.839749,92.067906 145.033468,92.3699242 C145.548178,93.2595703 144.759502,94.1645994 143.935046,94.4753345 L143.935046,94.4753345 L143.930957,94.4850771 C143.981048,94.6814658 143.877288,94.911697 143.695325,95.0080967 C143.673346,95.0521944 143.649834,95.0962922 143.621722,95.1362878 C143.447937,96.0777231 141.547037,98.3369628 141.165733,98.4851517 C139.011312,100.081387 136.142328,100.76644 133.489042,100.468011 C130.246421,100.059338 128.012263,97.6560118 127.804743,94.3912412 C127.776631,94.2471544 127.766408,94.0343572 127.792476,93.8384812 C125.586431,93.4939036 123.386007,93.051388 121.303656,92.2360927 C120.523157,91.9832998 119.738059,91.7192262 118.953471,91.4387441 C118.897758,91.9033086 118.750041,92.3719752 118.66417,92.818593 C117.793713,96.4099944 119.063365,100.157789 121.070069,103.100031 C123.142709,106.355059 126.666452,108.558407 130.50812,108.814789 C136.961161,108.989129 144.178856,106.024326 148.061925,100.800795 C150.172389,97.9062408 150.286371,94.2527948 150.25417,90.8218886 C150.344129,90.575249 150.633941,90.4993598 150.851172,90.5855043 C151.200787,90.3891155 151.801878,90.2809222 152.047221,90.2029821 C156.665298,88.8190311 161.247596,87.3227848 165.933654,86.1788075 C167.740506,85.7342408 169.52589,85.2096829 171.314851,84.6928164 C171.446212,84.5446276 171.659866,84.4882235 171.843873,84.5405254 C173.450872,84.0759609 175.062471,83.6252411 176.691449,83.2483593 C178.612282,82.7299545 178.937874,83.4268013 179.446961,85.1373831 C180.065942,87.1725448 180.716613,89.2071937 181.148008,91.2926063 C181.331505,91.9094618 181.275791,92.6586105 181.619272,93.1811173 L181.619272,93.1811173 C183.879497,93.1590685 186.279262,92.6345106 188.451573,92.0238082 C188.742918,91.7689644 188.593156,91.2782489 188.607468,90.9439265 C188.489397,88.662638 187.816747,86.4751853 187.183965,84.2979879 C186.882398,82.6074039 185.740018,81.628024 188.180162,81.3275441 C189.503993,81.0291152 190.763423,80.7927309 192.075498,80.520453 C192.88002,80.4240533 193.750478,79.9476952 194.541199,80.270224 C195.204137,80.770682 195.213849,81.7500619 195.415746,82.4992106 C195.878831,84.7528099 196.084817,87.0822983 196.76769,89.2815445 C198.051142,89.3538443 199.321305,88.8610778 200.568978,88.5964914 C202.4617,88.1057759 204.336532,87.5330181 206.213408,86.9941028 C205.746234,85.5178543 205.628162,82.1889882 205.406842,81.4736819 C204.56603,76.7947073 203.240665,72.252128 201.824829,67.7274955 Z M103.188117,30.5197766 C93.6345494,33.8891511 84.1668521,37.5261885 74.8366493,41.4842165 C71.0031596,43.0384052 67.1834705,44.6166938 63.3581589,46.1934442 C62.6251956,46.3893202 58.695102,47.7660924 58.4017122,47.9332536 C58.2601287,48.0142704 58.5443181,48.482937 58.6639229,48.6511237 C61.4291468,53.9408006 63.695506,59.4832704 65.4384659,65.1954651 C66.7939879,68.7109775 67.9721471,72.2859704 69.0940817,75.8855761 C71.8812843,85.0153452 75.435696,93.8743747 78.6619609,102.843649 C78.7340305,100.966931 78.9313275,99.4465848 79.4286588,99.3122406 C80.1692891,99.1943048 80.92832,99.426587 81.6709948,99.4824783 C82.7949739,99.5886206 83.9291758,99.5568292 85.0592885,99.5706738 C91.3666569,99.4424827 97.6515355,99.2322493 103.958904,99.0861115 C107.732591,98.9440758 111.506278,98.7374317 115.284055,98.6512873 C115.329546,98.6492363 115.377592,98.6492363 115.423594,98.6492363 C113.974024,95.6869967 112.790242,92.4222261 113.700568,89.163096 C111.023259,87.7494047 108.585159,85.9465253 106.724128,83.5108946 C104.218559,80.3604705 103.030688,77.6161558 103.182494,74.3652298 C101.666988,75.2487228 99.9935422,75.9614652 98.4264116,76.6485695 C96.3358819,77.5761602 94.2535302,78.4852913 92.1272213,79.3205844 C91.6614994,79.4795954 91.1945315,79.6604236 90.7252016,79.8454192 L90.0192958,80.1238318 C88.4853905,80.7242704 86.9206428,81.275512 85.2867423,81.1716637 C83.4057766,80.7065865 82.992782,78.2873643 82.3359774,76.7306118 C81.633171,74.4616295 80.7064888,72.252128 80.1473104,69.9385353 C79.51044,66.808109 79.8881665,65.395956 81.6628167,64.2540298 C80.4509228,61.4738215 78.088982,56.1882467 79.3228545,53.4362405 C81.4670531,49.0033928 88.5232298,47.545091 91.7356942,51.5913144 C93.2113322,53.3239451 94.0720784,55.4488405 94.9742263,57.5081021 C95.0304508,57.7644843 95.2497264,58.0911152 95.4255558,58.4177461 C95.4557126,58.3833909 95.4955809,58.3572399 95.5415828,58.3392931 C100.181639,56.0759513 101.345486,63.3628454 102.343727,66.4276378 C102.896772,68.0659199 103.234119,69.758555 103.55971,71.4527284 C103.567888,71.5070814 103.577599,71.5650238 103.591911,71.6291193 C103.737584,71.0204681 103.923125,70.3892551 104.148534,69.732404 C105.66404,66.0246051 108.319882,62.6439498 111.680063,60.454446 C111.770023,60.4026568 111.911606,60.3083082 112.063412,60.230368 C111.678019,59.2268882 111.512412,58.3213464 111.753666,57.6583421 C112.178928,57.129682 112.638436,56.6107645 113.131678,56.1041534 C112.01741,52.9911611 110.535639,50.0289215 109.285921,46.9682311 C107.189769,41.5385695 105.46061,35.9658466 103.214185,30.5941274 C103.202429,30.5700275 103.192206,30.5459275 103.188117,30.5197766 Z M171.224892,85.5778477 C170.615623,85.7542386 170.006865,85.9285785 169.396062,86.0926631 C163.7777,87.5489138 158.191027,89.1072047 152.65649,90.8577821 C152.183182,90.9418755 151.612248,91.1982576 151.123094,91.2546617 C151.230943,92.8247461 151.156829,94.43739 150.901263,96.0013212 C151.364349,95.8633876 151.825901,95.8033942 152.282853,95.8033942 C154.659105,95.8033942 156.962777,97.4355231 159.117198,98.3328607 C162.407866,99.7711647 165.794115,101.916571 169.487555,101.647882 C169.896971,101.505846 170.088646,100.953086 170.216429,100.620302 C170.681559,99.2081494 170.871189,97.7560008 171.071042,96.2961607 C171.294406,94.6173703 171.462569,92.9370415 171.538216,91.2526107 C171.432412,91.1182664 171.426278,90.9177755 171.55815,90.7798419 C171.590352,89.9363446 171.595974,89.091309 171.572462,88.2457606 C171.514193,87.348423 171.322518,86.4695449 171.224892,85.5778477 Z M128.443658,93.9584681 C128.479437,94.2389502 128.523395,94.5173812 128.583197,94.7917101 C128.583197,94.7937612 128.583197,94.7958123 128.585242,94.7999144 L128.585242,94.7999144 C128.623066,95.1060347 128.677246,95.39267 128.748804,95.6649478 C128.768738,95.6608457 128.788672,95.6587946 128.807073,95.6587946 C128.890899,95.6587946 128.97268,95.6910988 129.030438,95.7551943 C129.268114,95.9074854 129.519591,96.0418296 129.771068,96.1700207 C130.363981,96.3582052 131.019252,96.6622745 131.286574,96.6884254 C132.193322,96.957114 133.09547,97.0591541 134.029819,97.1314538 C136.755175,97.4114232 139.396705,96.60023 141.691176,95.1783345 C141.824582,95.1342367 141.986611,95.0321966 142.158351,94.9101587 C140.782384,95.1224431 139.360926,95.0983432 137.959402,95.0742433 C137.44827,95.0660391 136.941227,95.0562965 136.439807,95.0598859 C133.740519,94.9901499 131.088766,94.4650793 128.443658,93.9584681 Z M112.277065,60.7528749 C112.063412,60.8969617 111.813469,61.0133592 111.643773,61.1615481 C108.976686,63.0505719 106.871845,65.6682339 105.368606,68.5427908 C103.855144,71.9034482 103.182494,76.0676075 104.981168,79.4205735 C107.147856,83.7113855 110.160468,86.1675267 114.000091,88.4724024 C114.175921,88.5780319 114.257702,88.6354615 114.668652,88.8267226 C115.032067,89.0149071 115.40366,89.2015533 115.784964,89.3835846 C118.332446,90.5814021 121.070069,91.3423444 123.717732,92.2560905 C126.157365,92.9026863 128.664978,93.1872705 131.129146,93.7123412 C134.960591,94.383037 138.909596,94.5953214 142.760976,94.0584571 C145.73423,93.3477658 144.12672,92.0838017 142.163973,91.4946354 C141.185667,91.1705684 140.235473,90.8316311 139.275056,90.4711578 C138.444466,90.2547713 138.059073,89.593818 138.821682,88.9790136 C139.482575,88.3739517 140.363256,87.9893784 140.944413,87.2945827 C139.704406,87.0940919 138.490468,87.6191625 137.25864,87.7109474 C135.133864,87.9355381 132.949798,87.3525251 131.174636,86.1670139 C129.233868,84.6446166 127.18934,83.2463082 125.194904,81.8023639 C125.148902,81.780315 125.113122,81.754164 125.082966,81.7223726 C124.549855,81.3357483 124.018789,80.9450219 123.495901,80.548655 C121.523443,78.8016669 119.920022,77.5238582 121.940526,75.2446207 C119.728347,72.680799 117.695575,69.9528927 115.910703,67.0721826 C115.176206,65.6523382 113.279395,63.026472 112.277065,60.7528749 Z M135.850587,85.2252864 L135.573438,85.2276297 C134.483194,85.3096719 133.412883,85.5722073 132.420776,85.9988272 C133.792143,86.7177228 135.365918,87.0761451 136.893181,86.9679518 C137.324576,86.9823092 137.933334,86.8459139 138.582472,86.7095186 C139.195319,86.5792765 139.843946,86.4495471 140.405168,86.4495471 C141.000126,86.4495471 141.499502,86.5956849 141.758646,87.0443537 C141.872628,88.2119181 139.959972,88.8646671 139.281189,89.6117648 C140.00393,89.9025022 140.780339,90.1686268 141.499502,90.4270601 L141.499502,90.4270601 L141.523014,90.4352643 C141.523014,90.4352643 141.525059,90.4352643 141.525059,90.4373154 C142.160396,90.6736997 142.868824,90.8639353 143.509784,91.156211 C143.355933,89.7681579 143.280286,88.2780647 142.395516,87.1581874 C140.666868,85.4676034 137.863309,85.1953255 135.573438,85.2276297 Z M176.601489,84.0918566 C175.134029,84.4323322 173.686504,84.85485 172.241023,85.2814699 C172.273224,85.6039987 172.256868,85.9485763 172.344782,86.2511073 C172.582459,87.6048051 172.642261,88.9749115 172.606482,90.3491199 C172.967852,90.2050331 173.319,90.0465889 173.618523,89.8184088 C175.509711,88.4903492 176.112336,86.2249563 176.601489,84.0918566 Z M122.483348,75.8496826 C121.982439,76.4506424 121.487152,77.2074826 121.990617,77.902791 C122.104089,78.0489289 122.22216,78.1889135 122.345854,78.329411 C122.657133,77.8504891 123.483634,77.3038823 123.70342,77.0813426 C123.969209,76.8772624 124.238576,76.6829247 124.51612,76.4983295 C124.262599,76.5465294 124.007033,76.5767825 123.745333,76.586525 C123.216312,76.5803718 122.828874,76.2322048 122.483348,75.8496826 Z M91.382502,64.3765805 C90.2682343,64.2822318 89.1140984,65.0052296 88.7905518,66.0810092 C88.6351677,66.9460426 89.0302727,67.8495334 89.4115772,68.5827864 C89.5613388,68.8171197 89.7509688,69.0735018 89.9906897,69.2257929 C90.0044903,69.2237418 90.018802,69.2237418 90.030558,69.2237418 C90.1286953,69.2237418 90.2222325,69.2616864 90.286124,69.3498818 L90.286124,69.3498818 C90.5079552,69.4319241 90.5539571,69.678051 90.4757539,69.8605951 C90.483932,69.8867461 90.4921101,69.910846 90.4997771,69.9364842 C91.0369768,71.875759 90.8754591,73.9488652 91.3564343,75.8917293 C91.5123295,76.0737606 91.8777889,75.8773719 92.0832639,75.8517337 C92.6322197,75.6871363 93.1694194,75.4748519 93.706619,75.2707717 C93.8503749,75.2061634 94.0013505,75.1505605 94.1546582,75.0974573 L94.6166895,74.9391413 C94.9228576,74.8299225 95.218803,74.7046798 95.4654241,74.5113677 C95.4516236,73.5940323 94.9624703,72.6849011 94.6547688,71.8896036 C94.3071991,71.0881529 93.8901154,70.3154171 93.4510531,69.5601152 C93.4311189,69.553962 93.4091402,69.5462706 93.3871616,69.5360153 C93.1433516,69.4037221 93.0993943,69.2293822 93.1453962,69.0370956 C93.0416364,68.8068644 93.0436809,68.5304844 93.2772682,68.372553 C93.3508712,68.3182 93.4290744,68.292049 93.5006329,68.2884596 C93.5287451,68.222313 93.5486793,68.1582175 93.5589019,68.0977113 C94.0296544,66.5276269 93.0733265,64.5627139 91.382502,64.3765805 Z M171.720179,69.4401284 C171.200869,69.4401284 170.841543,69.9005907 171.075131,70.8281814 C171.402255,70.892277 171.460524,71.2804396 171.626131,71.520926 C172.201154,72.3982658 172.842114,73.4740454 173.904246,73.6883809 C174.85444,73.459688 173.289354,70.5112931 172.870226,70.0831348 C172.504767,69.6544638 172.073371,69.4401284 171.720179,69.4401284 Z M175.589448,69.6621553 C175.204055,69.0094063 174.183835,68.2700001 173.628746,69.1093954 C174.128122,69.2796331 173.916002,69.7021509 173.56281,69.704202 C173.936447,70.1851749 174.311618,70.8440771 174.580985,71.518875 C174.600919,71.4932368 174.629031,71.4670858 174.660721,71.4429859 C174.71899,71.4086307 174.782882,71.392735 174.846773,71.392735 C174.928554,71.392735 175.010336,71.4188859 175.076272,71.4691369 C175.443775,71.9675438 176.15016,73.0474255 176.360235,71.7875635 C176.350012,71.0163659 175.978931,70.2913172 175.589448,69.6621553 Z M167.822798,69.6483107 C167.736928,69.6483107 167.651058,69.6560021 167.563143,69.6744617 C167.257486,69.7482997 166.882315,69.9344332 166.872092,70.2913172 C166.846025,70.866126 167.169571,71.4029903 167.63879,71.699368 C167.684792,71.7173148 167.720572,71.7434658 167.748684,71.7732061 C168.237837,71.6311704 168.724946,71.4850325 169.212055,71.3347926 C169.455865,71.3106927 169.759477,71.1486591 170.042644,71.0661041 C169.853014,70.8461282 169.66134,70.6317927 169.447686,70.4492486 C168.98869,70.061086 168.433601,69.6483107 167.822798,69.6483107 Z M177.9473,69.4421794 C177.621709,68.7268732 176.579511,67.4070177 175.917084,68.4745931 C175.888971,68.5284334 175.864948,68.6027842 175.85677,68.6607266 C175.85677,68.7248221 175.840925,68.7807134 175.812813,68.8227601 C176.066334,69.1011911 176.312189,69.4457688 176.519708,69.8185484 C176.527886,69.8026527 176.539642,69.7862443 176.55191,69.7703486 C176.623468,69.6985616 176.713427,69.6662574 176.805431,69.6662574 C176.869323,69.6662574 176.935259,69.6821531 176.995061,69.7124062 C177.706046,70.4036125 178.582126,70.9461172 177.9473,69.4421794 Z M86.5543495,50.1350637 C85.9057231,50.1350637 85.2070057,50.2350527 84.4479747,50.4534903 C82.2199505,51.1067521 79.7961627,52.819385 79.8078762,55.3447494 C79.9679031,58.0049708 81.1077273,60.4626503 81.9224717,62.9664785 C82.0461656,63.2925967 82.144303,63.607434 82.2736193,63.8976586 C82.8011075,63.6171765 83.4221329,63.3448986 84.1428289,63.0562123 C87.5730355,61.7025144 90.9229944,59.9078393 94.4569608,58.8202661 C94.0639003,58.0690663 93.7403538,56.9973888 93.5328342,56.672809 C92.0970645,53.2039583 90.1205172,50.1350637 86.5543495,50.1350637 Z M216.691562,49.4075536 C216.857169,49.3860175 216.906238,49.6495784 216.727342,49.6736783 C211.147314,50.5828095 205.613799,51.7216591 200.099708,52.9225532 C199.069266,53.1691928 198.047002,53.4435218 197.026783,53.730157 C196.584653,53.7768186 195.868558,54.3034276 195.629348,53.704006 C195.569545,53.4896705 195.699373,53.273284 195.906892,53.2112395 C196.910756,52.8574321 197.92893,52.5513118 198.963973,52.2939041 C204.763787,50.6874134 210.762943,50.259768 216.691562,49.4075536 Z M155.335844,27.9759527 C154.720952,28.0159483 154.197553,28.4307746 153.570905,28.486666 C153.237136,28.5969103 152.861965,28.5871678 152.486795,28.5789635 C151.903593,28.56717 151.32448,28.5548636 150.923242,28.9917388 C150.276149,29.7649875 149.821241,30.7443673 148.894559,31.2350828 C148.120194,31.6914431 147.485368,31.7519493 146.906256,31.6017093 C146.830097,31.4991565 146.756494,31.3971164 146.678291,31.2971273 L146.678291,31.2971273 L146.646601,31.2550806 C146.590887,31.1248385 146.528529,30.9966474 146.459015,30.8725584 C146.243318,30.4756788 145.977529,30.079312 145.582424,29.8429276 C145.392794,29.7285812 145.177096,29.6747409 144.955265,29.6906366 C144.741612,29.7065323 144.544315,29.8229298 144.410398,29.9870144 C144.300505,30.1213587 144.187545,30.2233988 144.074074,30.4772171 C143.960091,30.7310355 143.886999,31.1304789 144.196745,32.3006071 C144.228435,32.5210958 144.282615,32.7369696 144.342418,32.9513051 C144.450267,33.3379294 144.57805,33.7204516 144.729856,34.0932313 C144.847416,34.389609 144.995133,34.6741933 145.148984,34.9546754 C145.206742,35.0587665 145.267056,35.1628577 145.328903,35.2628467 C145.498598,36.2663265 145.842565,37.30676 146.154791,38.252207 C146.673122,39.8217553 147.210112,40.6861311 148.07144,41.4056736 C148.638653,41.8795158 149.159832,42.4945819 150.24338,42.6866489 C151.576971,42.9230377 152.259941,42.9230377 153.011927,42.8752399 C153.998974,42.8125011 154.729374,42.6873247 154.802977,42.8011584 C155.123457,43.2964887 152.758567,43.4286189 152.301104,43.4229784 L152.758547,43.4238589 C152.772394,43.4238941 152.784023,43.4239276 152.792812,43.4239586 L152.722055,43.424167 C151.569963,43.4421138 149.535836,43.4421138 148.198869,42.4279201 C147.797197,43.7446828 146.676246,46.4995645 145.911593,47.3769043 C147.259448,48.4367882 148.56539,49.5561527 149.925001,50.5939878 C152.660579,52.2743165 156.699544,54.1151405 159.330852,51.3769789 C159.938076,50.7780702 160.429274,50.2253102 160.860158,49.742799 C158.711871,46.3072779 157.92115,42.6958786 159.474991,38.8301482 C160.201309,36.0222507 160.583125,33.1215428 160.253445,30.2372434 C160.008101,29.2978591 158.713915,29.2758103 157.953351,29.0537833 C156.994978,28.9214901 156.170523,28.4266725 155.335844,27.9759527 Z M200.665787,31.6309882 C200.776702,31.51818 200.967354,31.6930327 200.845194,31.8109685 C196.879832,35.6869541 193.113301,39.7988114 189.574734,44.0655234 C189.346769,44.3644651 189.110626,44.6367429 188.933775,44.9449143 C188.843815,45.115152 188.612273,45.165403 188.452288,45.0710543 C187.76686,44.6603301 189.775098,42.6261939 190.083822,42.136504 C191.828443,39.9285728 193.861097,38.0089453 195.923063,36.1171626 L197.299211,34.8572411 C198.444888,33.8059803 199.581867,32.7454494 200.665787,31.6309882 Z M81.2414395,35.0764056 C81.7653497,34.957957 82.5320477,34.2534188 82.9552649,34.8487382 C83.0753809,34.9605209 83.1331389,35.1261437 83.0907149,35.2876645 C83.2026528,36.0265579 81.5792977,36.2075637 81.0666323,36.537784 C80.1026375,37.0069634 79.1238197,37.4499917 78.1245568,37.8427692 C77.9344157,37.9376306 77.6778274,37.9489114 77.5219322,37.7925183 C77.1718068,37.9012244 76.8385488,38.1263279 76.4695115,38.1411981 C76.2814149,38.1232513 76.1280753,38.015058 76.0580502,37.834565 C76.0524278,37.8196948 76.0473165,37.8048247 76.0432274,37.7899545 C75.7523933,37.8576394 75.3117976,38.1191492 75.1497688,37.7263717 C75.0899663,37.558185 75.1773699,37.3576942 75.3491102,37.2977007 C77.2919228,36.4998394 79.3134497,35.9127242 81.2414395,35.0764056 Z M186.926713,20.7634607 C186.972715,20.6875716 187.070852,20.6593696 187.148544,20.7055184 C187.224192,20.7496161 187.254348,20.8537072 187.206302,20.9301091 C186.629234,21.883338 186.042454,22.8345159 185.507299,23.8138958 C184.022972,26.7720333 182.312725,29.6009541 180.633656,32.4488473 C180.122013,33.3620806 179.585324,34.2594182 179.148307,35.2029046 C179.054258,35.4372379 178.77058,35.5449184 178.545171,35.4474932 C178.313628,35.3495552 178.205779,35.0767645 178.301361,34.8444823 C178.689821,33.9286852 179.181019,33.0672411 179.66915,32.2006694 C181.297105,29.3722612 183.039043,26.5761573 184.942498,23.9302933 C185.633038,22.8945093 186.278086,21.828985 186.926713,20.7634607 Z M88.0740854,126.207102 C88.0736382,126.208063 88.0695491,126.207038 88.06546,126.206525 L88.06546,126.206525 L88.050535,126.205961 C87.9784654,126.19827 87.9048624,126.18904 87.8322816,126.17417 C87.8287037,126.173657 87.8251258,126.172631 87.8210367,126.172119 L87.8210367,126.172119 L87.7796351,126.160325 C87.756123,126.154685 87.7320998,126.149044 87.7080766,126.141353 C87.6840534,126.132123 87.6625858,126.122381 87.640096,126.112638 C87.6247621,126.106485 87.608917,126.101357 87.593583,126.093666 C87.5675153,126.079821 87.542981,126.063925 87.5169132,126.048542 L87.5169132,126.048542 C87.4913566,126.036236 87.4658,126.02034 87.4407546,126.003932 C87.4300208,125.996753 87.4203093,125.988036 87.4100866,125.979832 C87.3927082,125.967526 87.3748185,125.954707 87.3584623,125.941375 C87.3354614,125.92189 87.3165495,125.902917 87.2976376,125.883432 C87.2996821,125.886509 87.3017267,125.889586 87.3037712,125.892662 C87.3053046,125.894713 87.3073491,125.896764 87.3088825,125.899328 L87.3088825,125.899328 L87.3065824,125.897085 L87.3078603,125.899841 L87.3032601,125.893175 L87.2909929,125.877792 L87.2909929,125.877792 L87.2904818,125.877279 L87.2901623,125.876574 L87.2894595,125.876254 L87.2878622,125.873946 L87.2858816,125.871639 L87.2796585,125.865191 L87.2749114,125.859899 L87.2796202,125.863819 C87.2802591,125.863435 87.2761701,125.857794 87.2725921,125.852666 C87.2649252,125.842411 87.2572582,125.832156 87.2495912,125.821388 L87.2495912,125.821388 C87.2398797,125.80703 87.2352795,125.798826 87.2306793,125.790109 C87.2281237,125.786007 87.225568,125.781905 87.2230123,125.777803 C87.2127897,125.755754 87.2051227,125.733705 87.1949001,125.713707 C87.1928556,125.70499 87.1902999,125.695761 87.1877442,125.687044 C87.1831441,125.671661 87.179055,125.656278 87.1749659,125.640895 C87.1667878,125.600899 87.1632099,125.560391 87.1591209,125.522446 L87.1591209,125.522446 L87.1591209,125.424508 C87.159632,125.419381 87.1601431,125.414253 87.1611654,125.409125 C87.1632099,125.391179 87.1662767,125.372719 87.1688324,125.354772 C87.171388,125.338364 87.1724103,125.320417 87.1754771,125.304009 L87.1739114,125.308899 L87.1724103,125.314777 L87.1759882,125.29683 L87.1759882,125.29683 L87.1759882,125.299907 L87.1780327,125.286575 L87.1780327,125.286575 L87.1923444,125.226581 C87.2015448,125.204532 87.2122786,125.183509 87.2225012,125.162998 C87.2225012,125.162486 87.2230123,125.161973 87.2230123,125.16146 L87.2230123,125.16146 L87.2258236,125.15582 L87.2280598,125.151141 L87.2279114,125.149899 L87.2306793,125.146077 L87.2754034,125.066855 L87.2754034,125.066855 L87.3303501,124.979429 C87.3421061,124.960969 87.3518176,124.940459 87.3640848,124.921999 C87.3697072,124.913795 87.3768631,124.905591 87.3829967,124.897387 C87.4049753,124.865595 87.426954,124.833804 87.4504661,124.803551 C87.4504661,124.805089 87.4509772,124.806627 87.4509772,124.807653 L87.4509772,124.807653 L87.5056683,124.735866 C87.5613817,124.673821 87.6196508,124.615879 87.6794532,124.559475 C87.7413002,124.505635 87.8072362,124.455384 87.8752167,124.407184 C87.9411528,124.363086 88.0127112,124.325142 88.0827363,124.287197 C88.0806918,124.289248 88.0786473,124.291299 88.0745582,124.29335 L88.0745582,124.29335 L88.0808835,124.290274 L88.0832474,124.288735 L88.2682133,124.203937 L88.2682133,124.203937 L88.4589294,124.130291 C88.5049313,124.124651 88.5524666,124.120549 88.5984685,124.114395 C88.6506039,124.112344 88.7022282,124.112344 88.7543637,124.114395 C88.7880984,124.116446 88.8223443,124.120549 88.856079,124.126702 C88.8903248,124.134393 88.9240595,124.142597 88.9557497,124.15234 C88.9603499,124.153878 88.9644389,124.155929 88.968528,124.157468 L88.9674418,124.156955 C88.9675057,124.156955 88.9690391,124.157468 88.9710837,124.15798 L88.9710837,124.157878 C88.9756838,124.159416 88.9813063,124.160954 88.9859065,124.162493 L88.9777923,124.159929 C88.9920401,124.166185 89.0109519,124.174389 89.0298638,124.183619 C89.030375,124.184131 89.0313972,124.184131 89.0319084,124.184644 C89.0559316,124.262584 89.0978444,124.334884 89.1535578,124.396929 L89.1535578,124.396929 L89.1760476,124.420003 C89.1929149,124.436411 89.2102934,124.45282 89.2266496,124.469741 C89.2363611,124.483073 89.2455615,124.495892 89.2547619,124.508711 C89.2598732,124.514864 89.2649845,124.521017 89.2695847,124.527171 C89.2736738,124.533324 89.2777628,124.53999 89.2818519,124.546656 L89.2818519,124.546656 C89.2838964,124.54922 89.2838964,124.54922 89.2838964,124.549732 L89.3045334,124.583575 L89.3045334,124.583575 L89.3232536,124.617417 C89.3452323,124.661515 89.3631219,124.707151 89.3810115,124.7533 C89.3851005,124.769195 89.3891896,124.783553 89.3953232,124.797397 L89.3953232,124.797397 C89.3958343,124.806627 89.3963454,124.809704 89.3963454,124.811755 L89.3963454,124.824061 C89.3978788,124.832778 89.3994122,124.840982 89.3994122,124.849699 C89.3978788,124.840982 89.3973677,124.833291 89.3963454,124.8256 C89.3978788,124.886106 89.3978788,124.945074 89.3963454,125.005067 L89.3963454,125.005067 L89.3963454,125.026603 C89.3953232,125.028654 89.3953232,125.031218 89.3953232,125.033269 C89.3953232,125.03532 89.3943009,125.036858 89.3943009,125.038397 L89.3953232,125.03532 L89.3852922,125.106018 L89.3852922,125.106018 L89.3733445,125.175818 C89.3697666,125.199405 89.3677221,125.222992 89.3631219,125.246066 L89.3631219,125.246066 L89.3569883,125.270166 C89.3539215,125.285549 89.3503436,125.300932 89.3467656,125.316828 C89.3283649,125.363489 89.3068974,125.408613 89.2859409,125.453736 C89.2828742,125.460915 89.2803185,125.468093 89.2767406,125.474759 L89.2807657,125.467837 L89.2844075,125.460915 L89.2777628,125.475785 L89.2777628,125.475785 C89.2731626,125.485527 89.2670291,125.497834 89.2614066,125.510653 L89.2659114,125.498899 L89.2665179,125.498346 L89.2689114,125.490899 L89.2258829,125.571287 L89.2258829,125.571287 L89.177581,125.652688 C89.1438463,125.698837 89.1075559,125.744986 89.0697321,125.791135 C89.0298638,125.835233 88.987951,125.877279 88.9460382,125.919326 C88.9419491,125.922402 88.9373489,125.925992 88.9332599,125.929581 L88.9439937,125.919326 C88.9368378,125.924966 88.929682,125.931632 88.9230373,125.938298 C88.9180282,125.943118 88.9205838,125.940554 88.9226283,125.938503 L88.891411,125.962783 L88.891411,125.962783 L88.8586346,125.986498 C88.8479009,125.994702 88.8381893,126.004445 88.8274556,126.011623 C88.7855428,126.039825 88.7415854,126.063925 88.6976281,126.088025 C88.6557152,126.108023 88.6138024,126.12597 88.5698451,126.141866 C88.5279322,126.156223 88.484486,126.168529 88.4395064,126.179297 C88.4441066,126.178272 88.4492179,126.178272 88.4538181,126.178272 C88.4441066,126.17981 88.4318394,126.181861 88.4221279,126.183912 C88.4236613,126.183399 88.4257059,126.182887 88.4272392,126.182374 L88.4272392,126.182374 L88.4236613,126.183143 C88.4180389,126.184425 88.4159943,126.184425 88.4134387,126.184938 C88.3577253,126.192629 88.2999674,126.200321 88.2422095,126.205961 L88.2422095,126.205961 L88.2115416,126.206474 L88.2115416,126.206474 L88.1471389,126.208525 L88.1471389,126.208525 L88.0832474,126.206474 L88.0832474,126.206474 L88.0710825,126.206525 C88.073127,126.207038 88.0751716,126.207038 88.076705,126.208063 Z M152.722643,39.6766631 C153.004385,39.3172537 153.623125,39.8206641 153.996204,39.7869649 C154.270089,39.8287809 154.539218,39.7323696 154.810568,39.7790055 C155.12595,39.8548365 155.200795,40.3176129 154.935856,40.4964465 C154.759353,40.6159881 154.530081,40.6163249 154.327488,40.6234231 C153.816192,40.6564773 152.527026,40.3681828 152.722643,39.6766631 Z M157.481784,33.7238947 C157.601856,33.3385099 158.20624,33.4563193 158.169534,33.860283 C158.187049,34.4921777 157.980496,35.1092317 157.860975,35.7246271 C157.842809,36.1135296 157.429403,36.4829634 157.081044,36.1781572 C156.874115,35.9949776 156.932926,35.6938826 156.999741,35.4585949 C157.162848,34.8833669 157.227443,34.2673408 157.481784,33.7238947 Z M152.009238,33.1015094 L152.111148,33.1142592 C152.2455,33.1739103 152.329316,33.3305302 152.304389,33.4750402 C152.289129,34.0378385 152.167736,34.593903 152.089847,35.151209 C152.072908,35.4863525 151.939187,35.9250085 151.521649,35.8590537 C151.093927,35.7922057 151.11307,35.3260012 151.202045,35.0002633 C151.359556,34.5065591 151.362993,32.9446763 152.111148,33.1142592 Z M89.3964477,125.026295 C89.3964477,125.026295 89.3964477,125.026295 89.3964477,125.026295 L89.3964477,125.026808 C89.3964477,125.026295 89.3964477,125.026295 89.3964477,125.026295" id="Combined-Shape" fill="#000000"></path>
                </g>
                <circle id="Oval" fill="#666666" opacity="0.16" cx="62" cy="127" r="54"></circle>
            </g>
        </g>
    </g>
</svg>