<?xml version="1.0" encoding="UTF-8"?>
<svg width="266px" height="189px" viewBox="0 0 266 189" version="1.1" xmlns="http://www.w3.org/2000/svg" xmlns:xlink="http://www.w3.org/1999/xlink">
    <title>Group 4 Copy</title>
    <g id="Final-About-MEGA-web" stroke="none" stroke-width="1" fill="none" fill-rule="evenodd">
        <g id="about/_Desktop_1440px_instruction" transform="translate(-1011.000000, -1279.000000)">
            <g id="Group-4-Copy" transform="translate(1011.000000, 1279.000000)">
                <g id="Mission-graphics-2">
                    <rect id="Rectangle-Copy-3" x="0" y="0" width="266" height="189"></rect>
                    <path d="M156.316835,118.602643 C160.249031,121.664135 164.253866,125.630567 164.810931,130.804442 C164.795074,134.661994 164.057947,138.626371 162.900847,142.29595 C161.240393,147.034303 158.189066,151.089072 155.333658,155.147436 C154.888146,155.754515 154.4553,156.383064 154.023196,157.018082 L153.504266,157.78225 C151.770602,160.333427 149.972527,162.892119 147.347008,164.498314 C146.725489,164.867583 146.020077,164.636983 145.394466,164.412032 C143.140627,163.527635 140.846889,162.7552 138.594585,161.862072 C138.029335,163.218455 137.499893,164.59076 136.993981,165.970768 C136.304939,167.575727 135.665516,169.393311 136.53462,171.054765 C138.459027,174.160426 142.127781,175.799282 145.416462,177.03908 C146.71935,177.496686 148.07237,177.899852 149.42897,178.204923 C149.800858,178.271176 150.206508,178.415494 150.571747,178.258849 C151.335474,177.811515 151.213216,176.722197 150.763574,176.104352 C148.76755,173.514333 145.830297,171.608412 144.32177,168.657341 C143.958066,167.459657 144.143754,166.167472 144.26192,164.945648 C144.293635,164.755108 144.331489,164.564567 144.4916,164.438224 C144.6911,164.279526 145.034854,164.353996 145.122839,164.604627 C145.210824,165.051961 145.014904,165.521379 145.027181,165.98104 C144.990862,166.839757 144.84712,167.79657 145.21287,168.582871 C146.851327,171.243252 149.464777,173.107059 151.375374,175.550705 C152.482343,177.016996 151.827062,179.105754 150.144612,179.105754 C149.882704,179.105754 149.596754,179.055423 149.28932,178.945002 C144.813358,177.863901 137.116239,175.187599 135.68342,170.328553 C135.233777,168.72154 135.905427,167.180779 136.516716,165.726301 C137.057924,164.380189 137.5756,163.017643 138.173077,161.69567 C138.06105,161.649447 137.951581,161.605279 137.839554,161.55957 C137.26612,161.272474 136.1392,160.99976 136.436916,160.143097 L136.436916,160.143097 L136.952384,158.312796 C137.721372,155.565573 138.451633,152.807254 138.876443,149.995646 C139.253447,147.704021 139.72355,145.420099 140.034054,143.121284 C140.288289,143.088415 140.542012,143.048355 140.792666,142.998023 C141.380424,142.877844 141.961531,142.717091 142.527293,142.516279 C142.635227,142.478273 142.693031,142.353985 142.666943,142.245619 C142.63932,142.129548 142.531385,142.063295 142.417312,142.068945 C142.031612,142.091029 141.650004,142.131089 141.26635,142.175257 C140.932827,142.213776 140.598793,142.253836 140.26527,142.300059 C139.907704,142.351417 139.549627,142.396613 139.19155,142.441809 C137.223662,141.52557 135.240427,140.639119 133.205527,139.878496 C132.828126,139.725561 132.445975,139.581833 132.062213,139.440977 L130.909232,139.020686 C129.949617,138.667065 128.999544,138.291798 128.108047,137.795901 C126.795439,142.861409 124.963108,147.790817 122.391604,152.350955 C120.197616,156.216724 117.068024,159.53501 113.163962,161.679749 C109.722843,163.639597 105.826454,165.463344 101.780185,165.128485 C95.3035966,163.999108 88.8878812,161.274529 84.1397812,156.628108 C80.5671966,153.017078 75.8293274,150.675635 73.0317235,146.33223 C72.2966428,145.214665 71.3257428,144.211629 70.8259697,142.960018 C70.7001312,142.506521 70.9477158,142.153173 71.2433851,141.822423 C70.8121582,141.784417 70.3763274,141.729977 69.9548197,141.79623 C67.5807697,141.882513 65.6287389,143.308744 63.6562466,144.474586 C61.8919505,145.523844 59.9296889,146.185858 57.8794428,146.119605 C54.4173505,145.653143 55.8416947,142.973385 57.6409293,140.528504 L57.8723077,140.217856 C58.8419729,138.930379 59.8633894,137.738831 60.2575851,137.011654 C64.2736735,130.870695 66.7817466,130.776195 72.3943466,135.219749 C73.2179235,135.80986 74.0491735,136.441572 74.8763312,137.017303 C75.1899043,136.628518 75.5694658,136.339369 76.1030005,136.491904 C80.5093928,137.757896 84.8973697,139.284276 89.5109351,139.47533 C91.2614197,139.607322 93.0021851,139.565208 94.7122582,139.431162 C94.7245351,139.653545 94.7383466,139.874388 94.7664812,140.09523 C94.7925697,140.327885 94.8304235,140.558485 94.8779966,140.789086 C94.9700735,141.222553 95.0462928,141.66167 95.1941274,142.081271 C95.2278889,142.179366 95.3158735,142.225589 95.4038582,142.225589 C95.5158851,142.225589 95.6274005,142.155227 95.6417235,142.02683 C95.6800889,141.685809 95.681112,141.344787 95.6790658,141.001711 C95.6790658,141.00582 95.6795774,141.009928 95.6795774,141.014037 L95.6792308,140.988565 L95.6782308,140.992565 L95.6761671,140.726942 C95.6739505,140.635352 95.6701992,140.543763 95.6640607,140.452173 L95.6376312,140.177404 C95.621262,140.056197 95.6074505,139.93345 95.5941505,139.812244 L95.5941505,139.812244 L95.5895466,139.759858 L95.5895466,139.759858 L95.5875005,139.750099 L95.5872447,139.735783 L95.5872447,139.735783 L95.5854543,139.73007 C95.5777812,139.649436 95.5716428,139.577534 95.5634582,139.507173 L95.5682308,139.555565 L95.5672308,139.545565 L95.5652308,139.521565 L95.5652308,139.520565 L95.5524601,139.389305 L95.5524601,139.389305 L95.5358351,139.234073 L95.5358351,139.234073 L95.5342308,139.222565 L95.5337889,139.216996 L95.5322308,139.209565 L95.5332308,139.209565 L95.5322308,139.207565 L95.5327658,139.206724 L95.5317428,139.198507 L95.5312308,139.206565 L95.5123683,139.026712 L95.5123683,139.026712 L95.4918428,138.843105 C95.7834197,136.540181 96.1829312,134.253178 96.9021543,132.033969 C96.9323351,131.929711 96.964562,131.825453 96.9962774,131.721195 C97.2540928,131.634912 97.509862,131.544521 97.7697235,131.462347 C97.9835466,131.398148 98.1994158,131.343708 98.4168197,131.287727 C98.4290966,131.283619 98.440862,131.27951 98.4551851,131.277969 C98.6889582,131.225583 98.9206851,131.169602 99.1565043,131.119271 C99.4260851,131.059181 99.697712,131.006795 99.9678043,130.94876 C99.9657582,130.94876 99.9657582,130.950814 99.9657582,130.950814 C99.9657582,130.950814 99.9678043,130.94876 99.9698505,130.94876 L99.9698505,130.94876 C99.9754774,130.946705 99.9775235,130.946705 99.9795697,130.946705 C99.9918466,130.944651 99.9995197,130.942597 100.007704,130.940542 L100.007704,130.940542 L100.008727,130.940029 L100.008983,130.939515 L100.010262,130.938937 L100.011285,130.938488 L100.017615,130.938295 L100.024585,130.936947 C100.033793,130.934893 100.035327,130.934893 100.035327,130.934893 C100.629224,130.826526 101.218516,130.700184 101.813947,130.579491 C102.225735,130.499371 102.635477,130.411034 103.0488,130.330915 C103.372604,130.266716 103.696408,130.208681 104.021747,130.150132 C105.202889,129.935453 106.39375,129.759292 107.576939,129.570292 L107.576939,129.570292 L107.575231,129.570565 L107.581287,129.570036 L107.588704,129.568752 C107.594843,129.566697 107.600981,129.564643 107.606608,129.564643 C107.612747,129.562589 107.620931,129.562589 107.626558,129.560534 L107.626558,129.560534 C107.626558,129.560534 107.628604,129.560534 107.63065,129.560534 C107.638835,129.560534 107.644462,129.55848 107.6506,129.55848 L107.6506,129.55848 L107.649231,129.558565 L107.656547,129.557966 L107.666458,129.556426 C107.666458,129.554371 107.668504,129.554371 107.672597,129.554371 C108.265981,129.461926 108.857831,129.365885 109.451216,129.26933 C111.123435,128.990966 112.790027,128.690004 114.444343,128.312518 C114.442808,128.314572 114.438716,128.314572 114.43667,128.316627 L114.43667,128.316627 L116.872616,127.754763 C118.423089,127.39782 119.9797,127.058852 121.543985,126.769703 C122.215635,126.645415 122.886774,126.523181 123.56047,126.41276 C124.199893,126.306447 124.843408,126.208352 125.482831,126.10358 C125.490504,126.10204 125.499712,126.100499 125.507897,126.098958 L125.500415,126.099857 L125.49255,126.099985 L125.506231,126.098565 L125.509431,126.098701 L125.524777,126.095877 C125.526824,126.095877 125.528358,126.095877 125.53245,126.093822 C125.740135,126.063521 125.948331,126.031678 126.15397,125.995214 C126.813343,125.88736 127.472716,125.781048 128.130043,125.662409 C129.097362,125.485735 130.058543,125.287491 131.019724,125.092841 L131.019724,125.092841 L131.006231,125.094565 L131.12542,125.071527 L131.12542,125.071527 L131.293397,125.038401 C132.416224,124.813964 133.539562,124.595176 134.662389,124.368684 C135.751454,124.149896 136.84052,123.924945 137.929585,123.696398 L137.929585,123.696398 C137.929585,123.696398 137.933166,123.694344 137.937258,123.694344 C137.939304,123.694344 137.94135,123.69229 137.945443,123.69229 L137.945443,123.69229 L137.943908,123.69229 L137.948448,123.691263 C137.965393,123.686127 137.977158,123.684072 137.991481,123.682532 L137.991481,123.682532 C138.015524,123.676369 138.039054,123.67226 138.065143,123.666097 C138.06105,123.668151 138.05747,123.668151 138.055424,123.670205 C138.069235,123.666097 138.085093,123.662502 138.101462,123.658393 C138.107089,123.658393 138.113227,123.656339 138.119366,123.656339 L138.119366,123.656339 C138.139316,123.650176 138.165404,123.644013 138.188935,123.640417 C138.17717,123.641958 138.163358,123.646067 138.151081,123.650176 C138.212977,123.636309 138.27692,123.623983 138.340862,123.610116 C138.342908,123.610116 138.344954,123.608061 138.349047,123.608061 L138.349047,123.608061 L138.404804,123.596249 L138.399177,123.596249 L138.496881,123.576219 C138.628858,123.547972 138.762886,123.519724 138.896393,123.491477 C138.896393,123.493018 138.895881,123.493532 138.89537,123.493532 L138.9189,123.488267 L138.9189,123.488267 L138.942431,123.482233 L138.942431,123.482233 L138.954708,123.480178 C139.074408,123.455526 139.196154,123.429333 139.316366,123.403654 L139.316366,123.403654 L139.345268,123.397491 L139.345268,123.397491 L139.37417,123.391328 L139.380308,123.391328 L139.383186,123.38953 L139.387981,123.389273 L139.409977,123.385165 L139.409977,123.385165 L139.745547,123.313263 L139.745547,123.313263 L139.789539,123.305045 C140.489324,123.156619 141.190643,122.999974 141.891962,122.837681 C143.233216,122.520798 144.570889,122.187994 145.904981,121.847485 L145.904981,121.847485 L146.608219,121.66452 L146.608219,121.66452 L147.309154,121.47154 C147.758285,121.349306 148.205881,121.224504 148.653477,121.096108 C149.263231,120.922002 149.870427,120.749436 150.480181,120.574817 C151.053104,120.410469 151.625516,120.25023 152.194347,120.073556 C152.193324,120.074583 152.1923,120.075097 152.1923,120.075097 L152.22862,120.063284 L152.22862,120.063284 L152.230346,120.061487 L152.238403,120.059946 C152.362131,120.02117 152.480297,119.984705 152.595904,119.948754 C153.105908,119.782352 153.611308,119.60157 154.11057,119.408974 C154.5464,119.238464 154.976093,119.060249 155.411412,118.891279 C155.709127,118.784966 156.010935,118.688926 156.316835,118.602643 Z M66.2722543,132.947127 C64.3519389,132.947127 62.9610658,134.568007 61.2545735,137.047605 C60.4253697,138.26532 59.5879812,139.483034 58.6590274,140.626792 C57.8175466,141.792121 54.9999928,145.146871 57.9612889,145.260888 C60.2075055,145.29879 61.9991843,144.386121 63.7435447,143.379891 L64.3238043,143.042192 C66.5755966,141.722273 68.8238082,140.403896 71.9569812,140.947784 L71.9569812,140.947784 L71.9810235,140.94573 C72.7759543,139.972483 73.5253582,138.959689 74.234862,137.924298 C74.3167082,137.817985 74.3985543,137.697806 74.4844928,137.573004 C73.2675428,137.057877 70.6423274,134.836613 70.098562,134.576224 C68.5659928,133.446333 67.3372774,132.947127 66.2722543,132.947127 Z M90.8632006,109.207326 L90.929022,109.217252 C91.0732758,109.257312 91.1771182,109.422173 91.1269874,109.568546 C90.7151989,111.033296 90.3658182,112.517562 89.9079912,113.967932 L89.9079912,113.967932 L90.7047162,113.778317 C91.2366783,113.656692 91.7703834,113.544958 92.3061347,113.444638 C92.7414539,113.382494 92.9312347,114.03629 92.5117732,114.198583 C92.2800462,114.281271 92.0380885,114.329035 91.798177,114.38142 C91.0651424,114.539605 90.3336424,114.718333 89.6062347,114.902711 L89.6064393,114.903122 L89.5453105,115.090581 L89.5453105,115.090581 L89.482647,115.278041 L89.8881052,115.708259 L89.8881052,115.708259 L90.2878085,116.142818 C90.7154547,116.495652 90.4673585,117.210052 89.9021085,116.897277 C89.6560585,116.656405 89.4146124,116.411424 89.176747,116.162848 L89.176747,116.162848 L88.7767879,117.259408 L88.7767879,117.259408 L88.3634008,118.35155 C88.1756662,118.744958 88.0380624,119.60573 87.4503047,119.449086 C86.8850547,119.097792 87.5321508,118.279648 87.6380393,117.806121 C87.9357547,117.031632 88.2334701,116.248925 88.5194201,115.466732 L88.5194201,115.466732 L88.8457816,115.816999 L88.8457816,115.816999 L88.5194201,115.466527 C88.5593201,115.362269 88.5971739,115.258011 88.6334932,115.153752 L88.5192155,115.466476 L88.4124958,115.352202 L88.4124958,115.352202 L88.3053924,115.237929 L88.3053924,115.237929 L87.5770767,115.429138 L87.5770767,115.429138 L86.8488378,115.617111 C86.4032878,115.661279 85.3883955,116.181029 85.2303301,115.554967 C85.2001493,115.360317 85.342357,115.183643 85.5341839,115.157964 C86.2472685,114.955097 86.9629108,114.750689 87.6800878,114.551931 C87.8877724,114.780477 88.0959685,115.009537 88.3056993,115.238083 L87.6802412,114.551777 C87.9738643,114.471658 88.2654412,114.391538 88.5590643,114.312959 L87.6800366,114.552034 C87.372602,114.213067 87.066702,113.871531 86.7587558,113.532564 C86.4354635,113.161754 86.1392828,112.772455 85.8159905,112.407295 C85.6840135,112.280952 85.690152,112.06011 85.8159905,111.933768 C86.1413289,111.636914 86.4354635,112.090412 86.661052,112.296874 C87.2764328,112.98508 87.917902,113.649148 88.5593712,114.313216 L88.5595758,114.312959 L88.767107,114.257941 L88.767107,114.257941 L88.9747916,114.202538 L88.9900355,114.160719 L88.9900355,114.160719 L89.0051258,114.118413 C89.5586105,112.559676 90.0077412,110.967043 90.5796412,109.418065 C90.6272143,109.269638 90.7735143,109.175138 90.929022,109.217252 Z M134.418897,97.5119892 C134.521716,97.1083098 135.156535,97.2767663 135.040416,97.6845544 C134.664947,99.2972174 134.09407,100.860063 133.523704,102.415204 L133.523704,102.415204 L133.579667,102.403237 C134.572563,102.194721 135.555228,101.946145 136.551194,101.761254 C136.768597,101.702191 137.022832,101.783851 137.084728,102.022156 C137.140486,102.226563 137.016694,102.425322 136.820774,102.487466 C135.839132,102.770966 134.822705,102.936341 133.827251,103.169509 L133.827251,103.169509 L133.791444,103.177213 L133.791444,103.177213 C134.509388,103.853864 135.215311,104.543097 135.884915,105.269309 C136.20258,105.675557 135.614311,106.199415 135.247538,105.83066 C134.542638,105.077741 133.802953,104.363342 133.051503,103.662809 L133.051503,103.662809 L132.567294,104.907872 L132.567294,104.907872 L132.078966,106.150624 C131.843659,106.55944 131.773066,107.519847 131.128016,107.350364 C130.659959,107.12079 131.007293,106.556872 131.134155,106.210714 C131.498882,105.316559 131.857982,104.416755 132.213501,103.514896 L132.213501,103.514896 L131.181311,103.729404 C130.148395,103.939742 129.112529,104.13513 128.070909,104.294983 C127.748128,104.310391 127.22022,104.536369 127.131724,104.070546 C127.105636,103.875897 127.241194,103.715144 127.40949,103.683301 C128.009524,103.536929 128.617232,103.427535 129.223405,103.314032 C130.170263,103.129655 131.106378,102.932951 132.042494,102.733166 C132.159636,102.839992 132.276267,102.947331 132.392897,103.054157 L132.392897,103.054157 L132.580824,103.2254 L132.580824,103.2254 L132.393358,103.054157 L132.393358,103.054157 L132.2179,102.893469 L132.2179,102.893469 L132.042442,102.733166 L132.042442,102.733166 L131.334373,102.090344 C130.390408,101.233451 129.449914,100.37498 128.551653,99.473121 C128.208922,99.2075965 128.621734,98.6616536 128.965487,98.9353954 C130.224895,100.012387 131.494022,101.084757 132.728364,102.194105 L132.728415,102.194207 L133.170679,101.027452 C133.607756,99.8592421 134.02757,98.6872045 134.418897,97.5119892 Z M152.466223,92.9779753 L152.528586,92.9883153 C153.184378,93.1244158 152.032905,95.5280028 151.949013,96.0297772 C151.757697,96.5823968 151.560755,97.132962 151.36637,97.6840408 L151.366729,97.6844517 L153.301494,97.2284568 C154.592087,96.9278753 155.884346,96.6342177 157.17888,96.3517449 C157.709857,96.2705981 157.880199,97.0846335 157.358941,97.2248427 C155.36343,97.7029922 153.353595,98.1267014 151.36013,98.6069052 C151.24401,98.6346389 151.128403,98.6623726 151.012284,98.6901063 L151.012284,98.6901063 L150.931102,98.9220935 C151.324987,99.3473435 151.720406,99.7715663 152.121452,100.190653 C152.534264,100.692428 153.132252,101.087376 153.380349,101.701113 C153.482145,102.011833 153.122022,102.321012 152.836583,102.178748 C152.052906,101.463322 151.301968,100.702699 150.567399,99.9215337 L150.567399,99.9215337 L150.182862,100.983002 L150.182862,100.983002 L149.793134,102.042597 C149.517926,102.529477 149.379299,103.89305 148.63808,103.719458 C148.15928,103.465232 148.528611,102.85201 148.648311,102.477605 C148.920449,101.776558 149.183892,101.067808 149.447334,100.365222 C149.595169,99.9738682 149.743003,99.582515 149.891349,99.1911617 L149.891231,99.1915652 L149.891196,99.1911617 L149.804337,99.0955832 L149.804337,99.0955832 L149.717631,99.000056 L149.717631,99.000056 L148.301411,99.3416299 L148.301411,99.3416299 L146.884322,99.6780935 C146.41166,99.7869739 145.937464,99.8886642 145.458152,99.9513218 C145.301622,99.9513218 145.147649,99.8542538 145.085752,99.7042864 C144.891879,98.9292837 146.189652,99.0330283 146.662314,98.8214305 C147.454175,98.6278082 148.246549,98.4346995 149.03841,98.242618 L149.03841,98.242618 L149.55633,98.118086 L149.55633,98.118086 L150.073815,97.9939905 L150.073815,97.9939905 L150.222417,97.9581422 L150.222417,97.9581422 L150.370763,97.9227047 L150.370763,97.9227047 L151.258436,95.5713367 L151.258436,95.5713367 L152.138282,93.2163479 C152.176136,93.0453234 152.364382,92.942606 152.528586,92.9883153 Z M170.112772,87.593187 C170.263675,87.2362441 170.821252,87.4714669 170.664722,87.8278962 C169.919922,89.5802549 169.16131,91.3269642 168.393491,93.0695647 L168.393491,93.0695647 L169.573044,92.7048761 C170.359714,92.4616261 171.146915,92.2194413 171.937071,91.9886696 C172.476744,91.8474332 172.706937,92.6578734 172.166752,92.8232484 C170.98919,93.1765962 169.797817,93.5366207 168.607467,93.9002403 C168.479071,93.7523272 168.349652,93.6054413 168.220233,93.4585555 C168.349703,93.6057495 168.478611,93.7526354 168.607519,93.9000348 C168.990456,94.3401788 169.371552,94.7808364 169.754183,95.2178989 C170.035529,95.6857767 171.144545,96.4104479 170.683137,96.9733392 C170.554741,97.1022495 170.326595,97.1459044 170.169552,97.0395919 C169.343929,96.1993636 168.570483,95.3046951 167.79806,94.4074587 L167.79806,94.4074587 L167.43841,95.2201074 L167.43841,95.2201074 L167.075921,96.031318 C166.721425,96.5736658 166.112183,98.833962 165.34334,98.5211875 C165.221594,98.4508261 165.161233,98.314212 165.175556,98.1760571 C165.245125,97.6239511 165.54949,97.1355299 165.775079,96.6352962 C166.120367,95.9121658 166.456448,95.1849267 166.795598,94.4597419 C167.071317,94.3739729 167.34499,94.2871767 167.621221,94.2019212 L167.621221,94.2019212 C167.469345,94.02535 167.316907,93.8497033 167.164469,93.6740566 L167.621221,94.2018185 C167.34499,94.2870739 167.071317,94.3738701 166.795598,94.4596392 L166.795598,94.4596392 L165.730084,94.7947579 C164.667195,95.1312697 163.614161,95.473126 162.583284,95.8224935 C161.776514,95.2480098 163.393028,94.5943918 165.091753,94.066962 L165.431901,93.9632193 C165.998328,93.7933219 166.556549,93.6389663 167.019857,93.5077571 L167.019857,93.5077571 L166.542569,92.9630796 C165.902565,92.2400807 165.245995,91.5323989 164.544573,90.8684337 C164.238673,90.5684989 163.949654,90.2408305 163.619712,89.9640071 C163.445789,89.8618033 163.383892,89.6286348 163.485689,89.4545288 C163.660123,89.1504854 164.019735,89.2927489 164.231,89.4648006 C165.448462,90.4539691 166.542642,91.5848875 167.595389,92.7553522 C167.595233,92.755686 167.595077,92.7560199 167.594921,92.7563537 C167.619192,92.7818594 167.642284,92.8075359 167.665359,92.8332275 L167.595491,92.7552495 C167.655341,92.6258256 167.716725,92.4974288 167.777087,92.3680049 C168.520864,90.7604778 169.275383,89.1539778 170.112772,87.593187 Z M146.062995,94.8461133 C145.689061,94.433703 146.331553,93.9257655 146.666099,94.3710454 C147.833942,95.546646 148.952165,96.7720644 150.073969,97.9938878 C149.72868,98.0765753 149.383392,98.1592628 149.038615,98.2429775 C148.037022,97.112059 147.05538,95.963165 146.062995,94.8461133 Z M184.003138,89.7893875 C184.24305,90.0158794 184.484496,90.2408305 184.722361,90.4596185 C184.524907,90.9470125 184.32285,91.4344066 184.121304,91.9197462 C183.765273,92.4954772 183.283915,94.7506375 182.44448,94.4317 C181.9488,94.0023413 182.638354,93.1615995 182.78005,92.6665017 C183.193884,91.7091756 183.599534,90.7503087 184.003138,89.7893875 Z M186.900543,83.0465557 C187.01257,82.8960748 187.234066,82.8719362 187.37832,82.9844117 C187.51797,83.0927786 187.546105,83.2915367 187.454028,83.437909 C187.264247,83.8811345 187.116412,84.34439 186.942489,84.7937786 C186.520982,85.9216155 186.087197,87.0448302 185.645739,88.1623954 L185.64579,88.1622927 L186.700107,87.8187677 C187.403908,87.5921427 188.109377,87.3706155 188.816664,87.1552514 C189.302625,87.0751318 190.131829,86.5112133 190.405502,87.1691182 C190.517529,87.9174144 189.260679,87.8696508 188.782902,88.1182269 C187.587949,88.4895503 186.392995,88.8747405 185.204179,89.2696889 L185.204333,89.2695862 L185.203975,89.269997 L185.139777,89.4303004 L185.139777,89.4303004 L185.074044,89.5909889 L185.23922,89.7340229 L185.23922,89.7340229 L185.405981,89.8755161 C186.290943,90.7142036 187.366197,91.4383612 188.187216,92.3032416 C188.415362,92.5841737 188.123274,93.0273992 187.775939,92.916978 C187.566208,92.9251954 186.20705,91.8194427 184.722566,90.4594644 L184.722566,90.4594644 L184.363581,90.1274305 L184.363581,90.1274305 L184.003394,89.7892335 L183.955207,89.7440378 L183.955207,89.7440378 L183.907122,89.6973014 L183.907276,89.6971473 L183.543572,89.3486786 L183.543572,89.3486786 L183.907071,89.6970446 C182.654314,90.1181859 181.417414,90.6019848 180.144706,90.9450609 C179.932929,90.9989875 179.701202,90.8808625 179.643398,90.6600201 C179.585083,90.4473951 179.712967,90.2085772 179.928837,90.1546506 C180.909967,89.8156832 181.919233,89.4284386 182.894225,89.0992294 L182.894225,89.0992294 L183.185802,88.9970256 L183.645624,88.8378521 L183.645624,88.8378521 L184.105037,88.6800911 L184.530637,88.5337188 L185.154407,87.0486821 L185.154407,87.0486821 L185.779762,85.5621047 C186.159324,84.7316345 186.444762,83.8410748 186.900543,83.0465557 Z M183.185751,88.9967688 C181.227582,87.0651682 179.683247,85.209065 181.083839,85.5603585 C182.128912,86.5572307 183.079862,87.6568204 184.104985,88.6798856 C183.799085,88.7841438 183.491651,88.8904563 183.185751,88.9967688 Z M207.524633,72.8952136 L207.605369,72.8970503 C214.77765,73.8882731 221.894173,75.3232351 228.988189,76.7710367 C231.46915,77.2414824 233.961877,77.6472161 236.451023,78.0652758 C236.62955,78.0909552 236.606019,78.388322 236.411123,78.3580204 C227.599362,76.8681047 218.719565,75.8553112 209.949239,74.1029525 C209.131289,73.9653112 208.315896,73.8035313 207.495389,73.6915693 C207.279519,73.6674307 207.125546,73.4527514 207.153681,73.2401264 C207.183862,73.019284 207.387454,72.8708574 207.605369,72.8970503 Z M120.812245,59.0199583 L120.890546,59.0310242 C121.607723,59.4454889 120.497684,60.1465351 120.188715,60.4408204 C119.704288,60.8147117 119.106811,60.9867633 118.526215,60.8773693 C118.276073,60.8162525 117.818246,60.8737742 117.850984,60.456228 C117.872469,60.2857172 118.014165,60.1711873 118.164557,60.19019 C118.6674,60.2528476 119.154896,60.2877715 119.60505,60.0058123 C119.946757,59.7901057 120.246007,59.5512878 120.482338,59.2138612 C120.567765,59.0572172 120.735038,58.991478 120.890546,59.0310242 Z M115.011997,54.1615522 C115.428901,53.9961772 115.599755,54.5046283 115.697459,54.815862 C115.855524,55.5266663 116.169609,56.239525 116.281124,56.9405712 C116.235597,57.3021364 115.77777,57.4592941 115.519443,57.1994191 C115.391559,57.0766718 115.37877,56.909756 115.315851,56.7638973 L115.315851,56.7638973 L115.331709,56.8039571 C115.126582,56.233362 114.983351,55.6422234 114.864162,55.0485169 C114.822728,54.7480685 114.650851,54.3243593 115.011997,54.1615522 Z M227.824694,42.5783174 C227.967414,42.5161734 228.08251,42.7462604 227.924956,42.8145674 C220.479002,46.1010104 213.162467,49.681225 205.894529,53.3451544 C205.258687,53.6928528 204.607498,54.0225756 204.017694,54.4365267 C203.861675,54.5772495 203.620229,54.580331 203.468814,54.4288229 C203.044237,53.8926381 203.912317,53.5803772 204.260164,53.3312875 C205.419821,52.6482169 206.645979,52.0082875 207.820983,51.4222848 C214.32724,48.1096489 221.20334,45.6362142 227.824694,42.5783174 Z M120.847679,51.7565272 C121.063037,51.6974647 121.295787,51.8232935 121.359729,52.0379729 C121.611406,52.6327066 121.870756,53.2217908 122.148521,53.804712 L122.132231,53.7695652 L122.164002,53.8211902 C122.329823,54.1568729 122.011372,54.5781291 121.644553,54.4883532 L121.565367,54.4610761 C121.27021,54.3213805 121.23389,53.9967935 121.09731,53.7384593 C120.927479,53.2320625 120.109529,52.0687881 120.847679,51.7565272 Z M211.42692,16.5490628 C211.507743,16.4098807 211.74305,16.5305737 211.65302,16.6815682 C206.811308,24.2261606 202.328185,31.9941633 197.747358,39.6984813 C197.002047,41.0040193 196.239343,42.3008264 195.485335,43.600715 C195.3774,43.8030682 195.101681,43.8657258 194.909854,43.7532503 C194.314935,43.3413536 195.290439,42.4014894 195.447481,41.9094731 C196.252643,40.4811878 197.056781,39.0518753 197.88752,37.638484 C202.092366,30.4082068 207.054289,23.6720003 211.42692,16.5490628 Z M156.651842,22.8203704 C158.134792,22.8326965 158.898007,24.1906204 159.543057,25.3585172 C160.490426,24.796653 161.411707,24.9250498 162.203057,25.9619818 C162.65628,26.5038161 162.995942,27.1396367 163.312072,27.7698079 C163.567842,28.3974112 164.15918,29.0897264 163.841515,29.7897454 C162.788257,31.3166394 160.922165,32.0587726 159.463257,33.1383324 C158.753753,33.6801666 158.024811,34.1254465 157.343442,33.286759 C156.457969,32.1835742 155.978657,30.8852264 155.526969,29.5971503 C155.470699,29.4651585 155.448703,29.3285443 155.428753,29.1903894 C155.430799,29.2001476 155.434892,29.2104193 155.438984,29.2201775 C155.384761,29.0619927 155.408803,28.8991856 155.564822,28.8031449 C155.590911,28.7867101 155.619045,28.7748976 155.646669,28.7687345 C155.780692,28.6444465 155.912669,28.5160498 156.044645,28.3897074 C154.373961,26.8088867 153.478769,23.0653514 156.651842,22.8203704 Z M158.544022,25.4242563 C158.052434,24.4715525 157.215557,23.1875851 155.996561,23.8013215 C154.446088,24.8346585 155.788876,26.748797 156.504007,27.9382644 C157.235507,27.2182155 157.962915,26.4997074 158.794165,25.892134 C158.715899,25.7313813 158.642238,25.5670335 158.544022,25.4242563 Z M162.32997,9.65179542 C162.180089,9.31488237 162.719762,9.05808889 162.873735,9.42119487 C164.807862,12.7009612 165.96087,16.3787574 167.653039,19.7848661 C168.997874,22.770347 170.410743,25.723472 171.811335,28.6822465 C171.973493,28.7870182 172.043062,28.9693416 172.02925,29.1439612 C172.886589,30.9594911 173.735743,32.7791297 174.560854,34.6105807 C176.644862,39.018184 178.303781,43.6204367 180.343797,48.0403661 C180.979127,47.1554557 181.798612,46.4492737 182.911208,46.4795753 C183.996693,46.5817791 185.013631,47.2499557 185.483224,48.2267981 C186.202447,49.9442329 185.91087,51.8722383 185.662774,53.6615753 C185.551258,54.5341595 185.379381,55.4894313 185.153281,56.5063335 C185.221316,56.5525563 185.275539,56.6270264 185.305208,56.7292302 C186.134631,59.1009014 187.050442,61.4285508 187.98385,63.752981 L189.107985,66.5433633 C189.449693,67.5042845 189.941281,68.4272003 190.219047,69.3983932 C190.234904,69.8318606 189.66147,70.070165 189.3658,69.7512275 C187.710974,65.903434 186.048474,61.9693579 184.805947,57.9551623 C183.23092,64.1218008 179.984185,71.9221595 176.34152,76.6368878 C177.326743,76.3616052 178.311454,76.0909449 179.298724,75.8243932 C183.567,74.8172492 187.728877,73.1378199 192.091277,72.6380998 C194.227462,72.7284911 194.488858,75.4730998 195.036716,77.0621378 C196.039843,80.3742601 197.23275,83.6242383 198.265547,86.9245481 C199.5403,91.1616405 200.707631,95.434684 201.808462,99.7179992 C202.0141,100.31376 201.738381,100.727198 201.272881,100.971665 C201.492843,101.437488 200.55775,102.081526 200.397639,102.484692 C199.742358,103.246855 199.282485,104.209831 198.495227,104.840002 C197.622031,105.25498 196.708935,105.588298 195.801977,105.921102 C194.707626,106.262124 193.605033,106.574214 192.499845,106.877021 L189.182139,107.777244 C188.077406,108.081135 186.975722,108.395393 185.882735,108.739668 C180.31157,110.509488 174.856524,112.613654 169.283824,114.355227 C165.500997,115.451222 161.656785,116.314048 157.843777,117.286782 C157.394135,117.379741 156.943981,117.473214 156.495874,117.58004 L156.499231,117.578565 L156.497472,117.579526 L156.495874,117.58004 L156.111253,117.677164 C155.723546,117.780371 155.338646,117.900261 154.96842,118.050486 L154.989231,118.041565 L155.008831,118.034564 C154.973791,118.047661 154.939774,118.060757 154.906268,118.074046 L154.806774,118.114684 C154.32337,118.307279 153.843547,118.508092 153.35605,118.68682 C152.884412,118.860926 152.409193,119.01757 151.92937,119.170105 L151.92937,119.170105 L151.760562,119.2214 L151.760562,119.2214 L151.531904,119.290285 C150.330812,119.647741 149.124093,119.984654 147.918908,120.325676 C147.265674,120.510054 146.610393,120.690836 145.953066,120.86751 C145.301366,121.04213 144.646085,121.206477 143.990804,121.364662 C142.480231,121.731877 140.961474,122.072899 139.44067,122.393891 C139.454481,122.390295 139.468804,122.386187 139.482616,122.384132 C139.454481,122.388241 139.428904,122.393891 139.402816,122.400054 C139.288231,122.423679 139.174158,122.447304 139.06162,122.472469 L139.06162,122.472469 L139.030505,122.479403 L139.030505,122.479403 L138.99911,122.486336 L138.99911,122.486336 L139.036964,122.476064 L139.036964,122.476064 L138.651877,122.55689 L138.651877,122.55689 L138.269758,122.638872 C138.279989,122.634763 138.2938,122.632708 138.305566,122.6286 L138.305566,122.6286 L138.170008,122.656847 C138.075885,122.678931 137.976135,122.698961 137.876385,122.718991 C137.879966,122.718991 137.884058,122.716937 137.890197,122.716937 C137.816024,122.732858 137.740316,122.749293 137.664097,122.765214 C135.40412,123.236687 133.140562,123.695833 130.874447,124.145222 L130.874447,124.145222 L130.938389,124.13341 C130.528647,124.211475 130.12095,124.294162 129.713254,124.376336 C128.898374,124.540684 128.080935,124.699382 127.261962,124.837537 C126.622539,124.945904 125.98107,125.043999 125.341647,125.150825 C125.361597,125.148771 125.381547,125.144662 125.403543,125.142608 C124.897631,125.216564 124.392231,125.300793 123.888877,125.381426 C122.52,125.600214 121.155216,125.850844 119.79657,126.127668 C118.970947,126.29407 118.149927,126.472798 117.328908,126.65923 C116.320666,126.887263 115.317027,127.129162 114.310831,127.359763 C114.299935,127.362331 114.288682,127.364899 114.277428,127.367467 L114.277428,127.367467 L114.297378,127.361304 L114.297378,127.361304 L113.511486,127.536855 C112.986799,127.65148 112.460597,127.760703 111.931666,127.861024 C110.454854,128.137847 108.968324,128.374611 107.483327,128.613429 L107.483327,128.613429 L107.48435,128.612915 L106.139324,128.825989 L106.139324,128.825989 L104.796216,129.044842 C103.7271,129.216893 102.662077,129.411543 101.602681,129.636494 L101.605231,129.634565 C101.604088,129.63598 101.603449,129.636237 101.602681,129.636494 L101.604231,129.634565 L100.725137,129.804373 L100.725137,129.804373 L99.8465697,129.97957 C99.3007582,130.079719 98.7575043,130.206062 98.2178312,130.338567 C97.5942658,130.477236 96.9891158,130.703727 96.3936851,130.930219 C96.1895812,131.009312 95.9921274,131.101244 95.7936505,131.194717 C90.5989774,132.613757 85.4012351,134.034339 80.040312,134.537654 C80.0065505,134.523787 79.9743235,134.509407 79.940562,134.499649 C79.8587158,134.473456 79.7845428,134.463184 79.6965582,134.47551 C79.6367082,134.483214 79.5809505,134.507352 79.5328658,134.539708 L79.5328658,134.539708 C79.5205889,134.523787 79.5129158,134.507352 79.5047312,134.491431 L79.5047312,134.491431 C79.5026851,134.487323 79.5026851,134.485268 79.5026851,134.483214 C79.4366966,134.338896 79.3809389,134.194578 79.3272274,134.046151 C79.1011274,133.410331 78.9195312,132.758075 78.7716966,132.10017 L78.7716966,132.10017 L78.7655582,132.071923 C78.7614658,132.051893 78.7573735,132.033918 78.7532812,132.015942 L78.7220774,131.872395 L78.7220774,131.872395 L78.6893389,131.728847 C78.6878043,131.704708 78.683712,131.68057 78.6775735,131.656431 C78.5379235,130.978497 78.377812,130.312374 78.1778005,129.654469 C77.9281697,128.835812 77.6427312,128.031535 77.3547351,127.226744 C77.3506428,127.221094 77.3485966,127.212877 77.3465505,127.206714 C77.3266005,127.146624 77.3066505,127.090643 77.2846543,127.034149 C77.2728889,127.000252 77.260612,126.964301 77.2468005,126.92835 C77.2447543,126.918078 77.2427082,126.911915 77.2386158,126.902157 L77.2386158,126.902157 L77.2370812,126.895994 L77.2248043,126.864151 C77.2248043,126.860043 77.2227582,126.855934 77.220712,126.851825 C77.2171312,126.843608 77.2130389,126.835904 77.2130389,126.827687 C77.2109928,126.819983 77.2069005,126.807657 77.2028082,126.799953 L77.2028082,126.799953 C77.1690466,126.709562 77.1388658,126.625333 77.1091966,126.54316 C76.6994543,125.379372 76.289712,124.211475 75.9362389,123.030225 C75.6062966,121.928581 75.3003966,120.821287 75.0047274,119.709885 C74.8630312,119.17216 74.726962,118.630325 74.5934505,118.089005 C74.4711928,117.591339 74.3653043,117.089564 74.2435582,116.592412 C73.9898351,115.574997 73.7141158,114.561689 73.4204928,113.554545 C73.3181851,113.203766 73.2225274,112.850418 73.1227774,112.497583 C73.1227774,112.493475 73.1227774,112.49142 73.1207312,112.487312 C73.1186851,112.477554 73.1166389,112.469336 73.1145928,112.459578 L73.1145928,112.459578 L73.1145928,112.471391 L73.1145928,112.471391 L73.1105005,112.453415 C72.8905389,111.638866 72.6772274,110.8161 72.5831043,109.977926 C72.5692928,109.839257 72.559062,109.700589 72.559062,109.564488 L72.559062,109.564488 L72.559062,109.552162 C72.5611082,109.496181 72.5652005,109.442255 72.5708274,109.38576 C72.5769658,109.3457 72.5851505,109.305641 72.5948697,109.267635 C72.6629043,109.006733 72.7749312,108.756102 72.8828658,108.511122 C73.0526966,108.127986 73.2245735,107.74485 73.4005428,107.363768 C73.5243351,107.094649 73.6522197,106.828097 73.7780582,106.563086 C73.9560735,106.191763 74.1274389,105.81479 74.3254043,105.455793 C74.3816735,105.359238 74.4374312,105.265252 74.4931889,105.172806 L74.4931889,105.172806 L74.4952351,105.170752 L74.4972812,105.170752 C74.4993274,105.164589 74.4993274,105.163048 74.5013735,105.160994 L74.5013735,105.160994 L74.527462,105.120934 L74.527462,105.120934 L74.5222308,105.125565 L74.596406,105.017684 C74.6218693,104.981942 74.6479009,104.946809 74.6748988,104.912437 L74.7591889,104.811755 C74.7689082,104.801483 74.7791389,104.78967 74.7888582,104.779399 C74.7949966,106.19998 75.2968158,107.539929 75.6165274,108.908638 C76.6774582,112.974706 78.2417428,116.883102 79.4530658,120.901407 C80.3318889,123.601847 80.9037889,126.390624 81.6250582,129.131124 C81.6849082,129.277497 81.7406658,129.445953 81.8286505,129.562024 C81.8465543,129.558429 81.8644582,129.558429 81.8849197,129.558429 C82.008712,129.556374 82.1125543,129.608247 82.1826351,129.68888 L82.1826351,129.68888 C87.2857428,128.948287 92.2154389,127.250882 97.2566505,126.149752 C104.210504,124.731225 111.152081,123.192518 118.112074,121.808401 C126.998008,119.904535 135.870131,117.938524 144.719747,115.863632 C150.606531,114.549877 156.509174,113.259747 162.298254,111.540771 C170.444504,109.261472 178.371304,106.286263 186.448497,103.788689 C189.72132,102.829823 193.060131,102.119532 196.365181,101.274681 C197.470104,100.997858 198.561216,100.67892 199.65642,100.359983 C199.81602,100.327627 199.978177,100.377958 200.068208,100.506355 C200.415543,100.371795 200.845235,100.287567 201.041154,100.123219 L201.041154,100.123219 C199.222635,92.3911677 196.743208,84.8398987 194.259177,77.3030101 C193.815674,76.1191922 193.575762,73.1840427 191.873362,73.3905047 C189.27577,73.6693824 186.793785,74.6025699 184.270366,75.2383905 C181.472762,75.9907954 178.681297,76.7550128 175.889831,77.5392601 C175.73995,77.5156351 175.578304,77.5813742 175.436097,77.6219476 C175.208462,77.6840916 174.982362,77.7503443 174.756774,77.8181378 C174.457012,77.9064748 174.159297,78.0050835 173.861581,78.1011242 C173.767458,78.1314258 173.6718,78.1612139 173.577677,78.1935699 C173.587908,78.1812438 173.597627,78.1694313 173.607858,78.1591595 C167.123597,79.942847 160.699697,81.950972 154.279377,83.9570427 C154.223108,83.9252003 154.161212,83.9092791 154.09727,83.9113335 C153.949435,83.9190373 153.793927,83.9955617 153.7218,84.1280672 C153.71157,84.1460427 153.703897,84.1640182 153.695712,84.1840481 C153.688039,84.1819938 153.6819,84.1819938 153.673716,84.1819938 C153.653766,84.1799394 153.63177,84.1799394 153.61182,84.1819938 C153.488027,84.1398797 153.369862,84.1758307 153.250162,84.2122954 C153.18622,84.2323253 153.124324,84.2523552 153.060381,84.2764938 C152.97035,84.3124449 152.88032,84.348396 152.792847,84.3905101 C152.746808,84.4125943 152.706908,84.4367329 152.672635,84.4670345 L152.672635,84.4670345 L152.678774,84.4567628 C150.558447,85.1187764 148.438631,85.7766813 146.31677,86.424828 L146.31677,86.424828 L146.32035,86.4407492 C146.246689,86.4469123 146.176608,86.4628335 146.104481,86.4813226 C146.014962,86.5034068 145.929024,86.5311405 145.841039,86.5593878 C145.816997,86.5573335 145.792954,86.5593878 145.768912,86.5634965 C145.689112,86.575309 145.603174,86.607665 145.529,86.6415617 C145.497285,86.6574829 145.463524,86.6754585 145.433343,86.6960019 C138.265666,88.8766922 131.070366,90.9207682 123.772758,92.5118606 C120.789466,93.1656568 117.84812,94.0105074 114.862781,94.6545454 C114.295485,96.4859965 113.550174,98.2594123 112.588993,99.9126487 C112.205339,100.630643 111.681524,101.142176 111.070235,101.503741 C111.070235,101.505282 111.070235,101.509391 111.068189,101.511445 C110.854366,102.103611 110.638497,102.721456 110.728527,103.32492 C110.758708,103.487727 110.830324,103.612016 110.952581,103.710111 C112.373124,104.436323 113.965543,104.693116 115.472535,105.188727 C115.628043,105.239059 115.784062,105.289391 115.940081,105.337154 C115.9498,105.307366 115.960031,105.279119 115.96975,105.250872 C116.565181,104.011073 117.276731,102.753298 118.039947,101.621866 C118.295716,101.27879 118.865058,101.607999 118.685508,102.000893 C118.132024,103.005983 117.52227,103.988988 116.97697,104.998187 C117.674197,104.845651 118.359658,104.633026 119.053304,104.466624 C119.528524,104.334119 119.732627,105.074711 119.256897,105.203108 C118.577574,105.379268 117.900297,105.570323 117.212789,105.712586 C120.41195,106.6052 123.704724,107.120842 127.020004,107.305219 C129.657497,107.494219 132.336935,107.574339 134.9688,107.383798 C136.429243,107.363768 137.969997,106.920029 139.411,107.271323 C140.154266,107.660622 139.982389,108.482874 139.594643,109.122804 C140.843308,108.787945 142.118062,108.502904 143.3212,109.037035 C144.250154,109.436092 144.639947,110.515138 144.326374,111.460138 C143.267489,114.533956 139.041158,115.15745 136.315681,116.058282 C129.899454,117.677622 123.187558,117.848132 116.603547,117.725385 C111.080466,117.534844 105.501116,116.471719 100.759666,113.540679 C95.4345505,110.593717 90.4849043,106.707404 90.0833466,100.185363 C89.8792428,100.229532 89.6956005,100.267537 89.6014774,100.315814 C86.5583351,101.160665 83.4712005,101.828328 80.4219197,102.642877 C78.6376735,103.174439 76.7853928,103.525733 75.0190505,104.089651 C74.9709658,104.107627 74.9290197,104.141524 74.8967928,104.181583 C74.8072735,104.203668 74.7213351,104.236024 74.6430697,104.282247 C74.4635197,104.388559 74.3156851,104.543149 74.1878005,104.705442 C74.0297351,104.906255 73.8936658,105.124529 73.7678274,105.345372 C73.5724197,105.692556 73.390312,106.047445 73.2102505,106.402847 C73.0787851,106.66529 72.9468082,106.928247 72.8168774,107.191203 C72.6112389,107.614399 72.4250389,108.043757 72.2214466,108.466953 C72.2014966,108.504958 72.1815466,108.543477 72.1595505,108.581483 C72.033712,108.769969 71.8976428,108.948698 71.8377928,109.171081 C71.747762,109.506453 71.7738505,109.857233 71.8117043,110.1962 C71.9078735,111.030779 72.113512,111.853545 72.3355197,112.661931 L72.3355197,112.661931 C72.4731235,113.175518 72.6168658,113.684997 72.7611197,114.196529 C73.0404197,115.185698 73.2961889,116.184624 73.5361005,117.186119 C73.6598928,117.699706 73.7719197,118.215347 73.8936658,118.728934 C74.0215505,119.270255 74.161712,119.805926 74.3034082,120.343651 C74.6093082,121.483301 74.9249274,122.618842 75.2768658,123.744111 C75.6385235,124.899681 76.0400812,126.043439 76.4395928,127.185143 C76.5976582,127.630423 76.7531658,128.075703 76.9030466,128.523037 C76.1157889,127.600122 75.1847889,126.841554 74.1136274,126.304342 C73.0347928,125.748641 71.9114543,125.509823 70.7604928,125.449733 C71.2065543,124.97826 71.6597774,124.514491 72.1216966,124.059453 C72.864962,123.322969 73.6399428,122.616787 74.3433082,121.842298 C74.4052043,121.773991 74.4133889,121.669733 74.3453543,121.601426 C74.2855043,121.541336 74.1913812,121.535687 74.1238582,121.585505 C73.5002928,122.041056 72.9186735,122.546426 72.3452389,123.064122 C72.2674851,123.134483 72.1892197,123.204844 72.1114658,123.274692 C71.3641082,123.952627 70.6249351,124.642888 69.9292428,125.377317 C69.9092928,125.397347 69.8913889,125.415323 69.8734851,125.435352 C68.6867158,125.457437 67.4759043,125.625893 66.2610005,125.796404 C62.969762,126.256064 59.6329966,126.713157 56.605712,124.241776 C54.677212,122.600866 54.0019812,120.066828 52.9425851,117.855836 C53.1748235,117.705355 53.4065505,117.553333 53.6362312,117.400798 C54.4495774,116.863073 55.2486005,116.305317 56.0399505,115.73729 C57.2231389,114.882681 58.3817735,114.000339 59.5470582,113.123646 C61.2653158,111.827352 63.0219389,110.587554 64.7903274,109.361622 C65.7131428,108.721692 66.6344235,108.079708 67.5557043,107.437725 C68.0053466,107.12495 68.462662,106.81988 68.9025851,106.49067 C69.333812,106.168138 69.7675966,105.845092 70.2111005,105.537967 C70.7026889,105.223138 71.1963235,104.918067 71.6920043,104.608888 C72.1835928,104.302276 72.6751812,103.995151 73.1683043,103.690081 C73.2266197,103.65413 73.2527082,103.578119 73.2163889,103.515975 C73.1826274,103.455372 73.1007812,103.431233 73.0424658,103.467698 C72.6209582,103.7286 72.1994505,103.988988 71.7799889,104.251945 C71.3124428,104.544689 70.8443851,104.835893 70.3768389,105.130692 C70.1573889,105.267306 69.9374274,105.397757 69.7118389,105.522045 C69.4616966,105.6602 69.2100197,105.792706 68.9562966,105.923157 C68.4805658,106.169679 68.0191582,106.432635 67.5597966,106.709458 C67.0779274,107.000662 66.5945235,107.293407 66.1187928,107.596423 C65.2036505,108.176263 64.2926005,108.761752 63.395362,109.371893 C62.4884043,109.987684 61.5891197,110.617855 60.7036466,111.263948 C58.9894812,112.513505 57.3187966,113.827774 55.5964466,115.071681 C54.6050851,115.783513 53.5922389,116.464016 52.5712082,117.135787 C51.5977505,115.382401 50.2191543,113.896081 48.5786505,112.768244 C48.1172428,112.435439 47.6353735,112.152453 47.136112,111.915689 C48.6968158,110.874649 50.2851428,109.867505 51.8898389,108.894257 C52.8269774,108.326744 53.7702543,107.766934 54.7073928,107.196852 C55.1769851,106.91438 55.6445312,106.627285 56.1100312,106.336594 C56.2179658,106.270342 56.3259005,106.202035 56.4338351,106.135782 C56.5514889,106.063366 56.6696543,105.987355 56.7914005,105.919048 C57.0471697,105.776785 57.3029389,105.634521 57.5587082,105.489689 C59.4887428,104.40448 61.4213351,103.32492 63.355462,102.249983 C63.4173582,102.215573 63.4332158,102.12929 63.3974082,102.073309 C63.3595543,102.011165 63.2812889,101.996785 63.2214389,102.031195 C62.9416274,102.185785 62.663862,102.339861 62.3860966,102.496505 C60.476012,103.55963 58.5695082,104.625323 56.665562,105.696665 C56.4317889,105.816844 56.1980158,105.939078 55.9621966,106.057717 C55.7141005,106.182005 55.4706082,106.306293 55.2245582,106.432635 C54.7933312,106.653477 54.3636389,106.886132 53.9380389,107.120842 C53.8960928,107.142926 53.8541466,107.167064 53.8122005,107.191203 C52.9686735,107.654458 52.1394697,108.141852 51.3164043,108.639518 C50.4590658,109.159268 49.6058197,109.688776 48.7622928,110.232665 C48.027212,110.704138 47.295712,111.183314 46.5723966,111.670708 C43.7891158,110.563415 40.5720505,110.778094 37.7284082,111.707173 C37.5544851,111.831461 37.380562,111.955749 37.2071505,112.082092 C35.3287812,113.376331 33.490312,114.726551 31.6380312,116.056227 C31.5046476,116.132495 31.3738856,116.228696 31.2426839,116.329785 L30.9787875,116.534019 C30.6681081,116.769493 30.3439242,116.97696 29.9673466,116.965276 C29.5299812,116.794766 29.6276851,116.333564 29.9156812,116.052632 C30.6190466,115.215999 31.3341774,114.38707 31.9495582,113.482643 C35.9579735,107.47573 36.9912812,99.81404 35.9902005,92.7707085 C35.7942812,91.4446269 35.5646005,90.2346161 35.212662,88.9706786 C35.112912,88.5957601 35.0208351,88.1941351 35.1246774,87.8089449 C35.6403082,86.6898389 36.9892351,86.1921731 37.9105158,85.45004 C44.7963351,80.6151324 52.6612389,77.4391106 60.6657928,74.9975182 L60.6657928,74.9975182 L62.6899407,74.3386132 C70.1179188,71.9231404 77.6186463,69.5540957 85.3777043,68.5776813 C85.0237197,68.1123715 85.5915274,67.6249775 85.8749197,67.2716297 C88.1967928,64.4309802 91.7478928,62.9462003 94.6989582,60.9380753 C97.0469197,59.3351704 99.3171274,57.3111242 99.8245735,54.391896 C99.8890274,53.9649951 99.9507683,53.5352644 100.012553,53.1040257 L100.136996,52.2399298 C100.620511,48.9228585 101.214588,45.5689673 103.161339,42.7740454 C106.584554,38.2981351 113.406431,35.858597 118.160158,39.7366922 C122.943554,42.8402981 124.258208,45.7831514 125.491527,51.1978987 C126.008693,53.6877682 126.570362,56.350203 125.743204,58.8298008 C125.511477,59.5837465 125.187674,60.3305019 124.786116,61.030521 C125.391266,63.2533253 126.512558,65.2552873 128.082981,66.8946568 C131.535866,65.7889041 135.216385,65.6825916 138.811477,65.5002682 C143.329385,65.3759802 147.907143,65.2193362 152.348831,66.1684449 C154.213389,66.5936949 156.213504,66.7518797 157.952224,67.580809 C158.109777,67.6912302 158.189577,67.8334938 158.215666,67.9921922 C158.227943,67.9778117 158.237662,67.9618905 158.247893,67.9480237 C158.269889,68.2166297 158.275516,68.5134829 158.26375,68.8385835 C158.437674,68.8545047 158.611597,68.8447465 158.757385,68.8406378 C164.252331,68.1524313 168.852085,64.1623742 171.925408,59.7542574 C172.990431,58.1657329 173.715793,56.500684 174.357262,54.7267547 C175.018681,52.9492302 176.703177,47.6731514 179.262916,49.9283117 C179.394381,49.6674095 179.536589,49.3864775 179.690562,49.1034911 C179.234781,48.2509367 178.893074,47.3459965 178.50942,46.4595454 C177.240804,43.3497764 175.945589,40.2523335 174.608939,37.1749204 C173.513735,34.7189476 172.392954,32.2758144 171.270127,29.8362764 L171.270127,29.8362764 C169.209562,31.2027303 167.31967,32.8331 165.459343,34.4814178 L164.840139,35.0311844 C164.737057,35.1228105 164.634019,35.2144076 164.531,35.3059336 L163.912935,35.8538987 C159.173323,40.0432465 154.374524,43.9035943 147.195593,43.3297465 C144.026612,43.1633443 141.141024,41.7268416 138.409408,40.2261405 C135.644031,38.8158307 132.722635,37.7064829 129.807377,36.6752003 C129.291747,36.5005807 128.86052,35.8406215 129.459531,35.4615943 C130.015062,35.2125047 130.64272,35.214559 131.236104,35.096434 C133.793797,34.6809422 136.269643,34.1093199 138.715308,33.2726867 C142.861839,31.8079367 146.84212,29.4808742 149.311827,25.749665 C150.696562,23.703021 151.665927,21.3220318 153.034293,19.2836052 C155.01855,16.4845563 157.340424,13.8909422 160.028047,11.7544204 C160.439835,11.4452411 161.906416,10.3656813 162.59597,10.3215128 C162.583693,10.2937791 162.571927,10.2634775 162.55965,10.2357438 C162.47985,10.0431487 162.422047,9.84028183 162.32997,9.65179542 Z M90.540662,96.0366079 C90.6230197,97.1839612 90.6767312,98.3616161 90.7887582,99.5274585 C90.8685582,99.5372166 90.9365928,99.5813851 90.9805851,99.6876976 C91.0102543,99.7981188 90.946312,99.8844014 90.8307043,99.9527085 C91.0762428,102.201706 91.5760158,104.392668 92.9505197,106.250312 C94.7132812,108.896312 97.436712,110.641994 100.102339,112.258766 C103.017597,114.084567 106.264843,115.484605 109.617466,116.112722 C114.419277,117.065426 119.353066,117.083401 124.224447,116.81685 C127.411331,116.640176 130.630443,116.439877 133.767708,115.803543 C136.057866,115.242192 144.927943,113.5566 143.34115,110.129948 C142.455431,109.391048 141.297161,109.592998 140.168182,109.906508 L139.771427,110.02044 C139.245353,110.174926 138.733629,110.33251 138.267712,110.406771 C137.364847,110.808396 136.94692,109.696994 137.921912,109.544458 C138.020127,109.526483 138.119877,109.504399 138.219627,109.482314 C138.26362,109.358026 138.351604,109.241442 138.455447,109.157214 C138.745489,108.832113 139.118912,108.47517 139.081058,108.017564 C137.879966,107.917415 136.6712,108.027836 135.458343,108.136203 C134.437312,108.230189 133.414235,108.322635 132.39525,108.290279 C127.633339,108.272304 122.819762,107.943608 118.195966,106.73976 C116.109912,106.153757 114.027439,105.546184 111.957754,104.907795 C110.057389,104.44454 109.681408,103.415312 110.243077,101.888931 C108.796447,102.410222 107.054147,102.348078 105.541527,102.241766 C100.206181,101.810352 94.2974005,100.510464 90.6905428,96.229203 L90.6905428,96.229203 Z M101.419039,68.7903063 C98.8194005,68.7903063 96.219762,68.8226623 93.6201235,68.8909693 C85.8472966,68.8909693 78.1798466,70.4214585 70.7748158,72.6786731 C69.7279464,73.0091843 68.6774606,73.3360822 67.625247,73.6627748 L66.0458671,74.1530856 C56.3012786,77.1809731 46.4896701,80.3370788 38.1059235,86.3185155 C37.4230197,86.882434 36.2597812,87.3477438 35.8884043,88.1263416 C35.960312,88.5482166 36.0500087,88.967618 36.1452772,89.3865223 L36.4355804,90.6437203 C36.5768724,91.2735501 36.703212,91.9067085 36.7733658,92.5498661 C37.8823812,100.165333 36.6633851,108.541423 32.0037812,114.80667 C36.8874389,111.321983 41.6851582,107.682706 46.8542543,104.627377 C53.8561928,100.516627 61.3190274,97.4628389 68.8166466,94.4357574 C75.5525851,91.68704 82.3222851,89.0251188 89.084312,86.3488172 C90.7365812,82.5107818 93.4743351,79.1262438 96.8151928,76.6548633 C99.7324966,74.4680101 102.9158,72.6463172 106.27047,71.22779 C107.945247,70.4538144 109.887558,69.9402275 111.402224,68.8745345 C109.59547,68.8765889 107.787181,68.8468008 105.980939,68.8226623 C104.460135,68.800578 102.939843,68.7903063 101.419039,68.7903063 Z M157.496443,68.2007085 C152.506897,66.6137248 147.209916,66.0379938 141.98455,66.2182628 C137.796074,66.3065998 133.538027,66.3810699 129.441627,67.3096351 C129.187904,67.368184 128.947993,67.4344367 128.71422,67.5104476 C128.828293,67.610597 128.944412,67.7071514 129.062066,67.8031922 C129.035977,67.8155182 129.009889,67.8273307 128.986358,67.8417112 C129.15005,67.9716487 129.328066,68.0800155 129.483574,68.2166297 C130.301012,68.8344748 130.039104,69.9479313 129.363874,70.5539639 C127.60725,72.5882818 124.987662,73.4711378 120.961343,73.0376704 C119.188862,72.8050155 117.440424,72.3314883 115.8301,71.5549449 C114.5134,70.959184 113.312308,70.0886541 112.183343,69.2057981 C109.793435,70.9550753 106.776381,71.5729204 104.198739,73.0032601 C99.5289043,75.370896 94.9746774,78.3841106 92.0312851,82.7855508 C91.3381505,83.8029666 90.706912,84.8999883 90.1713312,86.031934 C90.1252928,86.0678851 90.0874389,86.1141079 90.0613505,86.1659802 C90.0332158,86.2224748 90.0055928,86.2784557 89.9835966,86.3364911 C89.9334658,86.4648878 89.8812889,86.5891758 89.8976582,86.7298987 C89.8991928,86.7437655 89.9012389,86.7602003 89.9053312,86.7740672 C89.8833351,86.8403199 89.8613389,86.9086269 89.8516197,86.9805291 C89.8096735,86.9985047 89.7677274,87.0149394 89.7237351,87.032915 C89.5395812,87.4679231 89.3738428,87.9054992 89.223962,88.3430753 C88.9221543,89.2074422 88.6423428,90.1745264 88.8142197,91.0912791 C90.4531889,96.7345726 95.6524658,99.6938606 101.079377,100.711276 C103.723008,101.128309 109.369881,102.321885 111.266154,100.103189 C113.102577,97.5794231 113.991631,94.401347 114.677093,91.4425726 C115.090927,89.4180128 115.244389,87.4720318 115.306285,85.4556894 C115.43417,84.8840672 115.052562,83.5682574 115.85977,83.4958416 C116.61122,83.566203 116.269512,84.5332873 116.305831,85.0386568 C116.2557,86.4109612 116.201477,87.7873742 116.035739,89.1535155 C115.821916,90.8082927 115.496577,92.4635835 115.032612,94.0767601 C115.400408,93.9925318 115.766158,93.8980318 116.133954,93.8117492 C116.732727,93.6656851 117.331652,93.5202829 117.930657,93.3752589 L123.321874,92.0725901 C129.908948,90.4741873 136.479169,88.8185199 142.9355,86.7278443 C143.724804,86.486972 144.512062,86.2466133 145.301366,86.0016324 C144.490066,82.6812927 143.249074,79.4313144 141.477104,76.5264666 C141.189108,76.1571976 141.768681,75.6975373 142.052585,76.0791324 C143.504843,78.0769856 144.470116,80.4122655 145.295227,82.7275155 C145.629262,83.716684 145.93107,84.717665 146.166889,85.7345672 C148.540427,85.0047601 150.914477,84.2682764 153.28597,83.5317927 C153.945343,82.4948606 154.539239,81.4214639 154.926474,80.2417547 C155.79967,77.5633987 156.309674,74.7268579 156.9271,71.9863579 C157.058566,71.0095155 157.3926,69.8195345 157.414597,68.7122411 C157.430454,68.6983742 157.446312,68.6819394 157.46217,68.6680726 C157.496443,68.5217003 157.536343,68.3732737 157.502581,68.2546351 C157.504627,68.2525807 157.502581,68.2505264 157.502581,68.2489856 C157.500535,68.2325508 157.498489,68.2145753 157.496443,68.2007085 Z M183.342947,47.4805563 C182.315777,47.0871487 181.442581,47.9237818 180.793439,48.9673905 C180.618493,49.230347 180.526416,49.3607981 180.355562,49.7557465 C180.07217,50.3273688 179.854254,50.8871786 179.712558,51.2821269 C179.62662,51.7777383 178.943204,51.8177981 178.829131,51.3304041 C178.793324,50.6041922 178.399439,49.8939014 177.61832,50.4454938 C176.249443,51.5794938 175.857604,53.4088905 175.206416,54.9820074 C173.715793,59.4096405 170.844527,63.3072519 167.099554,66.0718905 C164.556185,67.8576324 161.432731,69.801559 158.229477,69.3963389 C158.22385,69.4908389 158.21362,69.5848253 158.2039,69.683434 C157.985985,71.7013172 157.474447,73.6734911 157.057031,75.6574775 C156.53117,78.2053824 155.921927,80.8036188 154.687074,83.0967845 C161.326843,81.038328 167.970704,78.9957927 174.661116,77.1063063 C174.774677,76.983559 174.88875,76.8613253 174.998731,76.7349829 C176.663277,74.8228987 177.8879,72.6684014 179.012774,70.439434 C181.340785,65.5583036 183.5271,60.5066623 184.489816,55.1643307 C184.74405,52.9435807 186.112416,48.4835916 183.342947,47.4805563 Z M124.174316,61.9734666 C122.723593,63.9713199 120.56797,65.4001188 117.991862,65.2475835 C116.903308,65.2496378 115.878185,64.964597 114.890916,64.5552682 C114.50317,66.027722 113.84175,67.4421405 112.822766,68.5735726 C112.826858,68.58179 112.826858,68.5920617 112.826858,68.6018199 C112.826858,68.6839938 112.784912,68.7641133 112.718924,68.8164992 C114.857154,70.1867492 117.091043,71.4707166 119.61037,71.9082927 C122.783954,72.5959856 125.992835,72.323271 128.14897,70.4553552 C128.434408,70.0321595 128.8641,69.7353063 128.988404,69.2319911 C128.828293,68.8786432 128.410877,68.7461378 128.184777,68.4354177 C128.124927,68.3650563 128.071216,68.2926405 128.021085,68.2207383 C126.176477,66.5895862 124.648,64.326722 124.174316,61.9734666 Z M119.486577,45.8314286 C118.281904,48.4173389 115.396316,50.0664666 113.044774,51.5471378 C112.021697,52.0689422 110.90245,52.4279394 109.88142,52.9292003 C109.400062,53.2024286 108.760639,53.4510047 108.620477,54.0426568 C108.538631,55.1222166 109.327935,56.137578 110.05125,56.8473552 C110.38682,57.1524258 110.794516,57.3773769 111.112181,57.6999095 C111.394039,58.0393905 110.988389,58.5627356 110.59297,58.3783579 C110.02107,58.0209014 109.37602,57.4893389 108.844531,56.86379 C108.558581,56.7410427 108.256774,56.6347302 107.949339,56.6347302 C107.899208,56.6347302 107.847031,56.6388389 107.795366,56.6450019 C107.083816,56.9177166 107.645485,58.1795998 107.849077,58.6510726 C108.712554,60.4306514 110.490662,61.3833552 112.161347,62.1840373 C112.378878,62.2923399 112.596322,62.4045667 112.814161,62.5183031 L113.469342,62.861627 C114.784004,63.5476748 116.130246,64.20115 117.6123,64.3005291 C121.443212,64.7540264 124.290435,61.2071949 124.997893,57.770271 C125.4194,55.1525182 124.665904,51.1116161 123.497039,47.8719095 C123.479135,47.8678008 123.463277,47.8657465 123.445374,47.8616378 C122.515908,47.7055074 121.68875,47.245847 120.841643,46.8488443 C120.367958,46.5776704 119.826239,46.2767085 119.486577,45.8314286 Z M162.779612,10.7729557 C162.777566,10.7750101 162.77552,10.7770644 162.773474,10.7770644 C159.119043,12.7250998 156.449324,16.1337764 154.001612,19.3940264 C152.500758,21.5968008 151.517581,24.2207166 150.029004,26.4055155 C146.720374,31.3770373 140.961474,33.9526758 135.346316,35.302896 C134.015804,35.6279965 132.698593,35.8868443 131.35427,36.103578 C131.308231,36.1112818 131.264239,36.1174449 131.322043,36.1616133 C131.941516,36.3762927 132.55485,36.6110019 133.168185,36.8436568 C139.618685,39.056703 144.19235,43.6830943 151.505816,42.0796758 C156.074496,41.1497119 159.572217,38.366537 162.946459,35.3675716 L163.694643,34.6982483 L163.694643,34.6982483 L164.441072,34.0258138 C166.431265,32.2320565 168.427388,30.4477071 170.626612,29.0135101 C170.694647,28.9734503 170.76217,28.9292818 170.828158,28.8851133 C168.060735,22.8843633 165.277454,16.8923443 162.779612,10.7729557 Z" id="Combined-Shape" fill="#000000"></path>
                </g>
                <path d="M219.951739,37.3436158 L261.567779,112.586436 C263.011211,115.196196 262.065715,118.481956 259.455956,119.925387 C258.655922,120.367878 257.756641,120.6 256.842392,120.6 L173.610311,120.6 C170.627973,120.6 168.210311,118.182338 168.210311,115.2 C168.210311,114.285751 168.442433,113.38647 168.884924,112.586436 L210.500964,37.3436158 C211.944396,34.7338565 215.230156,33.7883609 217.839915,35.2317923 C218.728393,35.7232003 219.460331,36.4551382 219.951739,37.3436158 Z" id="Triangle" fill="#666666" opacity="0.16"></path>
            </g>
        </g>
    </g>
</svg>