<?xml version="1.0" encoding="UTF-8"?>
<svg width="266px" height="189px" viewBox="0 0 266 189" version="1.1" xmlns="http://www.w3.org/2000/svg" xmlns:xlink="http://www.w3.org/1999/xlink">
    <title>Group 13</title>
    <g id="Final-About-MEGA-web" stroke="none" stroke-width="1" fill="none" fill-rule="evenodd">
        <g id="about/_Desktop_1440px_instruction" transform="translate(-587.000000, -1279.000000)">
            <g id="Group-13" transform="translate(587.000000, 1279.000000)">
                <g id="Mission-Graphics-3">
                    <rect id="Rectangle-Copy-3" x="0" y="0" width="266" height="189"></rect>
                    <path d="M194.971964,44.1312799 C195.116218,44.0850571 195.27991,44.1549049 195.355618,44.2833017 C195.60576,44.7568289 194.630768,45.1743751 194.268598,45.1240435 C194.038406,45.1861876 193.534029,45.4111386 193.174418,45.4111386 C192.988218,45.4111386 192.840383,45.351049 192.790252,45.1764294 C192.778487,44.7609376 193.429675,44.8533832 193.669587,44.7029022 C194.119229,44.5544756 194.548922,44.3397963 194.971964,44.1312799 Z M193.374173,35.2832039 C193.577766,35.1506984 193.847858,35.3977338 193.751689,35.6144674 C193.6059,35.9534348 193.394123,36.2621006 193.270331,36.6175028 C193.237593,36.7089213 193.188997,36.8075299 193.127612,36.8902174 C192.973127,36.6457501 192.858031,36.3745761 192.802273,36.0772093 C192.798693,36.0510164 192.799204,36.0232827 192.795623,35.9970897 C192.854962,35.8717745 192.91737,35.7495408 193.000239,35.6380924 L193.000239,35.6380924 C193.132216,35.537943 193.216108,35.3412392 193.374173,35.2832039 Z M157.166407,136.462402 C157.568476,135.914919 158.39103,136.512734 157.978218,137.05765 C157.185845,138.92762 156.36278,140.787318 155.475772,142.615174 C154.572395,144.634084 153.291503,146.401337 152.163049,148.286715 C151.837199,148.862446 151.519534,149.44434 151.201868,150.026234 C151.163503,150.096595 151.068868,150.118166 151.001857,150.07862 C150.931776,150.036505 150.911826,149.948169 150.94968,149.877807 C151.269392,149.282046 151.585522,148.684231 151.885284,148.104391 C153.638326,144.223215 155.396995,140.331766 157.166407,136.462402 Z M141.563256,122.915468 C142.098325,122.823022 142.326472,123.609837 141.836929,123.83222 C139.823514,125.933305 137.851533,128.076503 135.728648,130.069734 C133.785314,131.88475 131.760645,133.569829 129.937522,135.502457 C129.826006,135.620582 129.626506,135.442881 129.750298,135.31397 C133.098318,131.903753 136.228422,128.29221 139.559048,124.863503 C140.236325,124.256443 140.725868,123.281655 141.563256,122.915468 Z M132.555575,112.226285 C133.174025,112.103024 134.227795,111.259201 134.687668,111.962815 C134.720918,112.030095 134.742914,112.10097 134.743425,112.171331 C134.743084,112.168763 134.742914,112.168706 134.742838,112.170038 L134.742978,112.183336 L134.742978,112.183336 L134.743425,112.183657 C134.752633,112.429152 134.551598,112.639723 134.308106,112.673619 C132.473729,113.297628 130.662883,113.97094 128.814695,114.553348 C125.44161,115.720217 121.983098,116.633375 118.51231,117.430462 C117.807922,117.623057 117.109672,117.848522 116.407329,118.04163 C116.345433,118.04163 116.287118,117.997975 116.272283,117.937886 C116.250287,117.863929 116.296325,117.787405 116.368452,117.76532 C117.324006,117.478739 118.278025,117.190103 119.221814,116.863975 C122.993387,115.362247 126.934791,114.181511 130.765191,112.866214 C131.371364,112.654103 131.954006,112.448668 132.555575,112.226285 Z M102.159397,35.3385172 C102.591647,34.8901558 103.138993,35.3195145 102.99474,35.8926775 L102.99474,35.8926775 L102.996786,35.8444003 C102.993205,35.898327 102.990136,35.9527672 102.987067,36.0066938 C102.967799,36.0010443 102.947678,35.9966503 102.926667,35.9936829 L102.98676,36.0063857 L102.98676,36.0063857 L103.061403,36.0373631 C103.359226,36.1999356 103.334153,36.721871 102.939903,36.8000829 L102.939903,36.8000829 L102.780949,39.4743179 C102.56648,43.0405342 102.336492,46.6075395 102.03939,50.1508786 C101.67671,55.1845443 101.68029,60.2315634 101.597933,65.2749873 C101.569287,68.0483568 101.524783,70.8705172 101.631694,73.6351558 C101.635787,74.011615 101.807663,74.4836014 101.468002,74.758884 C99.7430942,75.2930145 97.8145942,74.956615 96.0206288,75.0855253 C92.1349827,75.1168541 88.2580327,75.4491449 84.3713635,75.4024085 C82.2572773,75.3789889 80.1431298,75.366293 78.02897,75.357747 L71.6865028,75.3379841 C65.344097,75.3175228 59.0020227,75.2752443 52.6616058,75.033653 C52.3141593,74.9791968 51.8613863,74.9874257 51.3883208,74.9873505 L51.0708708,74.9852911 C49.9558056,74.9683242 48.83314,74.8202577 48.7831212,73.6392645 C48.7084365,70.8982509 49.1258519,68.1772672 49.2511788,65.4598786 C49.6593865,59.0600715 49.7627173,52.6469112 49.6885442,46.2363188 C49.7197481,43.3124683 49.7033788,40.3809139 49.9085058,37.4632264 C49.951475,37.1509655 49.9269212,36.628134 50.2445865,36.5377427 L50.2445865,36.5377427 L50.3022206,36.4935516 C50.3849015,36.4431297 50.4892554,36.4293245 50.5788769,36.4736984 C51.0745577,36.6390734 51.6321346,36.6375327 52.1134923,36.6822147 C60.5129538,37.2420245 68.9180423,36.5440598 77.3185269,36.3678995 C85.5548077,35.9647338 93.8279192,36.6164756 102.041181,36.0463941 L102.041181,36.0463941 L102.095519,35.691223 L102.095519,35.691223 Z M101.9445,36.8712147 C100.117796,36.9800952 98.2890462,37.0910299 96.4531346,37.1141414 C90.2793769,37.1048968 84.1056192,36.8825136 77.9323731,37.1280082 C75.7832295,37.1530028 73.6348816,37.2199403 71.4868179,37.2964457 L67.1909179,37.4526212 C64.3270351,37.552453 61.4630513,37.630924 58.5977538,37.6112935 C56.6186115,37.5820191 54.6420269,37.490087 52.6664654,37.3827473 C52.2229615,37.3108452 51.2321115,37.3416604 50.6387269,37.1634457 L50.6387269,37.1634457 L50.6265163,37.24499 C50.6190895,37.2985933 50.6140878,37.3500661 50.6154519,37.3969737 C50.3167135,43.2631639 50.5770865,49.1421938 50.4619904,55.0114655 C50.4338558,58.7781123 50.2609558,62.5591395 50.0225788,66.3144873 C49.9473827,68.8279818 49.4440288,71.3651014 49.6701288,73.8595933 C49.685475,73.9145471 49.7202596,73.9546068 49.7765288,73.9720688 C50.1351173,74.0799221 50.5162135,74.0968704 50.8850327,74.1271721 C55.1568904,74.3356884 59.4394904,74.3665036 63.7159519,74.451759 C71.9573481,74.5590987 80.2059058,74.540096 88.4478135,74.5200661 C92.5723481,74.2494058 96.7285981,74.3998867 100.837787,74.1672318 C100.46999,67.3380661 100.711437,60.4724357 100.878198,53.6371068 C101.02194,49.5797699 101.50739,45.5604384 101.675687,41.5118324 C101.821475,39.9849384 101.800502,38.4030905 101.944244,36.8710607 Z M136.33429,34.6933715 C136.388537,34.4585366 136.666836,34.2799117 136.896133,34.4719933 C141.13474,34.7945259 145.866471,34.6270965 150.114798,34.5053764 C151.059098,34.5685476 152.320552,34.1237813 153.088371,34.8083927 C153.535967,35.8021835 153.296056,37.0178438 153.406037,38.0927813 C153.499137,41.9760123 153.27406,45.8854362 153.250017,49.7548003 C153.233648,50.0824688 152.96151,50.3505612 152.628498,50.2801998 C152.60599,50.2791726 152.585529,50.2714688 152.564044,50.2678737 L152.564044,50.2678737 L152.489855,50.2486681 C152.442098,50.2325099 152.398034,50.2094364 152.358574,50.1810837 L152.420871,50.2195 C152.464693,50.2422001 152.512669,50.2588174 152.563891,50.2677196 C147.841368,50.2189289 142.363302,50.7915783 137.659195,50.6796164 C137.156864,50.6262033 136.497491,50.6174723 136.245814,50.0941272 C136.019714,49.1090674 136.224329,48.0536463 136.134298,47.0423935 C136.005391,43.2490403 135.981348,39.4187088 136.234048,35.6330593 C136.279064,35.4106761 136.23456,35.0100783 136.325614,34.7589343 L136.325614,34.7589343 Z M136.902271,35.2336427 L136.899688,36.1194502 C136.882999,37.0057488 136.834083,37.8928419 136.847895,38.7787794 C136.822829,42.4165158 136.933322,46.0896897 137.000845,49.7197223 C138.919114,50.0843691 140.899791,49.7567006 142.834429,49.676581 C145.445322,49.5189098 148.056214,49.3432631 150.673245,49.3093664 C150.979656,49.3555892 151.760264,49.2764968 152.342395,49.3725376 L152.342395,49.3725376 L152.34945,48.2049804 C152.397428,43.9226923 152.670998,39.6334994 152.384494,35.35639 C148.973556,35.3122215 145.544713,35.5710693 142.12201,35.4863275 C140.534194,35.4616753 138.482925,35.4642433 136.902271,35.2336427 L136.902271,35.2336427 Z M207.060283,132.299369 C207.101206,132.383084 207.14264,132.466285 207.186121,132.551027 C209.307983,136.394711 211.690217,140.098187 214.078079,143.783687 C216.124233,146.883184 217.590813,150.227663 218.58371,153.776548 C218.621563,154.051317 218.466056,154.300407 218.263998,154.472459 C217.926383,154.793451 217.584675,155.114442 217.240921,155.433894 C217.427121,155.7025 217.61281,155.97316 217.794406,156.244334 C219.035398,158.124062 220.428317,159.88926 221.385406,161.931796 C221.914848,162.974891 222.624352,164.265021 221.940937,165.406725 C220.689713,168.159038 215.732394,172.62673 212.663163,172.688875 C210.94644,172.289817 212.493333,168.672625 212.85499,167.593065 C212.964498,167.300701 213.097371,167.004074 213.23487,166.704226 L213.483316,166.161244 C214.001266,165.008553 214.423633,163.818353 213.722048,162.647736 C213.186467,161.644701 212.531187,160.721785 211.801733,159.871285 C211.168448,160.316565 210.443087,160.930815 209.648156,160.605714 C206.266887,158.651516 203.181798,156.138021 200.32639,153.48175 C199.738121,152.92194 199.148829,152.364184 198.551352,151.814133 L198.551352,151.814133 L198.89971,151.114114 C198.971325,150.978013 199.035267,150.839345 199.101256,150.70119 L199.099026,150.704196 C199.108417,150.684755 199.119288,150.662286 199.13003,150.639816 L199.158026,150.579196 L199.173383,150.548654 C199.17236,150.551736 199.171337,150.554175 199.170313,150.556358 L199.179521,150.538383 L199.179521,150.538383 L199.181056,150.531192 L199.181567,150.530165 C199.186171,150.522461 199.187706,150.517326 199.18924,150.512703 C199.389252,150.093103 199.581079,149.671961 199.77086,149.248766 L199.77086,149.248766 L199.812026,149.157196 L199.794902,149.194326 C199.799762,149.182256 199.805261,149.170187 199.81076,149.158118 L199.826617,149.12191 C199.834802,149.108043 199.84094,149.092122 199.846567,149.077741 C199.858844,149.054116 199.868563,149.029978 199.878794,149.005839 L199.873026,149.016196 L199.868563,149.025869 C199.891583,148.976822 199.91409,148.927132 199.936342,148.877442 L200.002587,148.729016 L200.002587,148.729016 L200.008725,148.718744 C200.01026,148.715149 200.012306,148.710013 200.01384,148.705904 C200.014352,148.705904 200.014352,148.705391 200.014863,148.704877 L200.014863,148.704877 L200.05681,148.608323 L200.05681,148.608323 L200.088525,148.538475 C200.122287,148.461951 200.154513,148.38594 200.188275,148.309415 L200.179771,148.330472 L200.179771,148.330472 L200.172417,148.349989 C200.390333,147.864135 200.598017,147.372633 200.803656,146.88113 L200.793937,146.905269 L200.795983,146.903214 L200.796026,146.900196 L200.795983,146.90116 L200.80161,146.887036 L200.80161,146.887036 C200.799052,146.893456 200.79854,146.894997 200.798029,146.897051 L200.79886,146.895318 C200.803656,146.887293 200.805702,146.879076 200.809794,146.871372 L200.802026,146.886196 L200.803144,146.882671 L200.804026,146.881196 L200.804359,146.880103 C201.019525,146.383464 201.231302,145.890421 201.457402,145.396864 C201.854867,144.529929 202.24466,143.663508 202.63036,142.792464 L202.63036,142.792464 L202.624221,142.80479 C202.886129,142.218788 203.143944,141.634839 203.401248,141.04935 L203.388971,141.080871 L203.388971,141.080871 L203.38539,141.08941 L203.39511,141.067839 L203.397026,141.062196 L203.545822,140.727138 L203.545822,140.727138 L203.699475,140.387336 C204.110752,139.478288 204.526633,138.571807 204.916425,137.650432 L204.907026,137.671196 L204.89801,137.691005 L204.89801,137.691005 L204.938026,137.597196 C204.941235,137.590085 204.945327,137.579685 204.949419,137.569285 L204.961952,137.53847 L204.961952,137.53847 L204.961026,137.540196 L204.990214,137.474271 L204.990214,137.474271 L205.018733,137.404937 L205.018733,137.404937 C205.034079,137.370527 205.051471,137.33098 205.067329,137.290921 L205.067329,137.290921 C205.06651,137.291794 205.065999,137.292307 205.065999,137.293335 L205.067022,137.289932 L205.068812,137.287942 C205.069119,137.287614 205.069503,137.286555 205.069887,137.285785 L205.069887,137.285785 L205.071613,137.282126 C205.073467,137.278081 205.073979,137.277567 205.073979,137.277567 C205.075002,137.273459 205.076025,137.270891 205.077048,137.268323 C205.077048,137.267296 205.07756,137.266269 205.078071,137.265241 L205.078327,137.263957 L205.079094,137.261646 L205.079606,137.260362 C205.080629,137.258051 205.080629,137.257024 205.08114,137.255997 C205.345606,136.636611 205.598817,136.013116 205.841287,135.383459 C205.84231,135.381918 205.843333,135.379864 205.844356,135.377809 L205.844356,135.377809 L205.844356,135.376782 L205.846913,135.371133 L205.846402,135.371646 L205.84589,135.37216 L205.861237,135.331586 L205.861237,135.331586 C205.953313,135.096877 206.048971,134.853951 206.143094,134.613078 L206.142583,134.614619 L206.143026,134.613196 L206.143094,134.613078 L206.1461,134.606273 L206.149233,134.597157 C206.150767,134.591508 206.154348,134.585858 206.156394,134.578668 L206.156394,134.578668 C206.159463,134.569937 206.163556,134.558638 206.169183,134.54888 C206.171229,134.54323 206.173275,134.539122 206.17481,134.532959 L206.173026,134.536196 C206.171587,134.538505 206.172354,134.536194 206.173249,134.534012 L206.175487,134.530288 L206.193992,134.484938 L206.193992,134.484938 L206.203456,134.459516 L206.203456,134.459516 L206.206013,134.451298 L206.206269,134.451042 L206.207996,134.447382 C206.209083,134.442567 206.209594,134.44154 206.210106,134.44 C206.213175,134.433323 206.215221,134.427673 206.218802,134.420483 L206.218802,134.420483 L206.21696,134.423873 L206.217983,134.420599 L206.221053,134.412831 L206.22494,134.402508 C206.26484,134.306467 206.302694,134.206317 206.342594,134.107709 C206.336967,134.121576 206.330829,134.133902 206.325202,134.147769 L206.354935,134.074582 L206.354935,134.074582 L206.385052,134.001396 C206.378913,134.015263 206.372775,134.029644 206.366637,134.04351 L206.440554,133.862985 L206.440554,133.862985 L206.512937,133.682459 C206.664352,133.311135 206.802467,132.934163 206.952348,132.560785 C206.987644,132.473475 207.023963,132.386679 207.060283,132.299369 Z M216.509421,156.105665 C216.347775,156.256146 216.184083,156.402519 216.02039,156.54735 C214.848967,157.580173 213.61616,158.541095 212.361356,159.466065 C213.316398,160.284722 214.559437,162.451546 214.731313,163.079149 C215.220856,164.523869 214.495494,165.901823 213.90211,167.178086 C213.334813,168.680842 212.56904,170.261663 212.75524,171.882543 C215.141056,171.736171 219.041537,168.385529 220.360283,166.443657 C221.645267,164.630182 221.531194,164.251154 220.516302,162.354991 C219.427237,160.121915 217.84249,158.166176 216.509421,156.105665 Z M199.181312,150.530679 C199.181312,150.530679 199.181312,150.530679 199.181312,150.530679 C199.181312,150.531192 199.1808,150.531706 199.1808,150.53222 C199.1808,150.531706 199.1808,150.531706 199.181312,150.531192 C199.181312,150.531192 199.181312,150.530679 199.181312,150.530679 C199.181312,150.530679 199.181312,150.530679 199.181312,150.530679 M181.622549,162.54584 C181.124822,163.57096 180.385649,164.538044 179.27868,164.919126 C177.300561,165.615036 175.14238,165.4209 173.092134,165.767571 C171.927361,165.92627 170.712457,166.006389 169.795268,166.762903 C166.803792,169.308753 178.38758,170.811509 179.780499,171.32715 C180.929415,171.501256 182.259926,171.918802 183.322903,171.303011 C185.223268,169.655938 185.664726,166.937522 186.634092,164.716259 C186.713892,164.482063 186.773742,164.273033 186.823872,164.066571 C185.147561,163.633104 183.470738,163.183715 181.844557,162.62596 C181.774476,162.599767 181.700303,162.572033 181.622549,162.54584 Z M191.269909,109.93136 L191.269397,109.938101 L191.267607,109.941183 L191.267607,109.953509 L191.267607,109.953509 L191.264026,109.965321 C191.235892,110.131723 191.209803,110.296585 191.180134,110.460933 L191.180134,110.460933 L191.184226,110.428577 C191.008257,111.421854 190.79648,112.404859 190.558615,113.38581 L190.558615,113.38581 L190.568334,113.349859 L190.568334,113.349859 L190.55043,113.42587 L190.55043,113.42587 L190.552476,113.414058 C190.498253,113.630791 190.446588,113.847525 190.39083,114.063745 C190.078792,115.263484 189.747315,116.45552 189.403561,117.647041 L189.403561,117.647041 L189.403561,117.644987 L189.397422,117.665017 L189.397985,117.665325 L189.398497,117.665068 C189.396706,117.670718 189.397218,117.668663 189.397729,117.666609 L189.089668,118.699124 L189.089668,118.699124 L188.773857,119.729636 C188.38253,120.99152 188.010642,122.259566 187.601411,123.515286 C187.604992,123.499365 187.61113,123.484984 187.615222,123.469063 C187.603457,123.50296 187.593226,123.53737 187.581461,123.571267 L187.589198,123.548348 L187.589198,123.548348 L187.583026,123.567196 L187.582026,123.567196 L187.581461,123.571267 L187.242567,124.58252 L187.242567,124.58252 L186.887815,125.639995 C186.506207,126.78324 186.134318,127.930593 185.774707,129.082569 C185.432999,130.177536 185.087711,131.273017 184.743445,132.368498 C184.486142,133.18921 184.228326,134.007867 183.972557,134.828066 C183.878434,135.129028 183.784311,135.42999 183.694792,135.733006 C183.558722,136.198316 183.426745,136.661571 183.302953,137.131503 C183.159211,137.668715 183.003192,138.206441 182.843592,138.740058 C182.489607,138.354867 182.116184,137.984058 181.766292,137.596813 C179.790218,135.407905 177.834095,132.94012 177.03098,130.073278 C175.455953,123.872229 179.252592,115.881843 181.00103,109.890851 C181.48648,108.249941 181.995972,106.611085 182.389857,104.943982 C182.441522,104.727248 182.505465,104.514623 182.567872,104.299944 C181.566792,104.705164 180.479772,105.29887 179.418842,104.851536 C178.625445,104.492539 178.579407,103.477177 178.525184,102.741207 C178.463288,101.834213 178.431572,100.907188 178.373768,100.008411 C178.321592,99.226218 178.251511,98.4358077 178.193707,97.6572098 C172.690576,96.5761093 168.198757,92.9388865 164.338176,88.633487 C164.082407,91.4161011 163.738653,94.1904979 163.667038,96.9869789 C163.654761,97.9864191 163.783668,99.3818348 163.784692,100.000707 C163.785715,100.619066 163.61128,100.58671 163.414849,100.624715 C157.164872,101.110055 150.884203,101.041748 144.608138,100.973441 C142.100065,100.945707 139.592503,100.919514 137.089034,100.927218 C108.468457,101.378661 79.8407185,101.019664 51.2242338,101.725846 C48.0271185,101.587691 44.7241146,101.76796 41.59708,101.049965 C40.4179838,100.49221 41.1571569,98.4419707 41.0973069,97.3906582 C41.3034569,93.287612 41.0594531,89.1850794 41.0533146,85.0804924 C40.47988,64.5729653 43.1434608,44.0659517 41.5689454,23.5645876 C41.5868492,22.4870821 41.1131646,18.2900495 41.9965915,18.3141881 C42.0605338,18.2700196 42.1362415,18.2438267 42.22218,18.2438267 C47.2715762,18.059449 52.3332492,17.9829245 57.3887838,17.915131 C63.7630646,17.8165223 70.1194415,17.333237 76.4875838,17.1483457 C88.3107723,16.8535468 100.136007,17.0019734 111.955615,16.5828865 C126.222422,16.5649109 140.481557,16.2439191 154.74683,15.962987 C157.334703,15.8905713 159.922065,15.9249816 162.509938,15.9706908 C162.825557,15.9768539 163.147315,15.9871256 163.392853,16.2136174 C164.150442,17.2510631 163.872676,18.7132452 163.928434,19.9289055 C163.89058,22.0777533 164.020511,24.2224924 163.964242,26.3687723 C163.934572,27.0030522 163.822545,27.5484816 163.902345,28.1565685 C163.954522,28.2849653 164.01028,28.3994952 163.978565,28.5458674 C164.29623,28.7543838 164.609803,28.9711174 164.917749,29.1935006 C165.405245,28.8047153 165.89888,28.4231202 166.396095,28.0482017 C166.512215,27.9357261 166.679999,27.8453348 166.836018,27.9280223 C167.151638,27.7112886 167.395642,27.3461283 167.759345,27.225949 C167.960892,27.1977017 168.140953,27.3944055 168.080592,27.5967588 C167.343465,28.3712479 166.50403,29.0594544 165.647203,29.7312261 C168.150672,31.635093 170.402976,33.8681691 172.770376,35.9327886 C177.194672,39.8288593 182.206215,42.9822832 187.009561,46.3729843 C187.954884,47.0226718 188.905834,47.6626011 189.875199,48.2588756 C190.372415,47.8192452 190.888045,47.3960495 191.423626,47.0005876 C189.952953,45.1532153 189.811257,42.4327452 191.60778,40.0712723 C190.137107,39.2346392 190.874234,38.3440794 191.537699,37.2306229 C191.70753,36.9399327 191.901403,36.6569463 192.089138,36.3739598 C192.047192,36.209612 192.015476,36.0349924 191.99348,35.8542098 C191.835415,33.8157832 193.090218,31.7557859 194.930734,31.5108049 C194.518945,30.9612669 194.369065,30.1405549 194.353207,29.5026799 C193.427834,28.9490332 192.644668,27.8597153 192.886626,26.7400957 C193.975692,25.1089435 196.377365,24.4613104 198.231692,24.1942452 C200.527476,23.9153674 202.921476,24.5455386 204.765572,25.9255468 C209.24358,24.5938158 213.423872,27.0251365 214.570742,31.5672995 C216.307415,31.8682615 217.152476,33.7079299 217.502368,35.2563946 C217.989865,37.4273267 217.386249,39.9952615 215.489976,41.3172343 C217.600072,46.7900169 211.995145,51.4025414 206.831676,51.4025414 C206.533961,51.4025414 206.240338,51.3861066 205.946715,51.3563185 C205.662811,51.3018783 204.991672,51.3239626 204.46223,51.2299761 C204.544076,51.4225713 204.637688,51.6110577 204.74153,51.793381 C205.171222,52.5899544 205.357422,53.4825685 205.748749,54.291468 C205.752842,54.2991718 205.756934,54.3073892 205.761026,54.3171473 C205.768699,54.3315278 205.772792,54.3412859 205.77893,54.3556664 C205.77893,54.3556664 205.780465,54.3556664 205.780465,54.3577207 C205.780465,54.3592615 205.782511,54.3613158 205.784557,54.3633702 C205.839292,54.4799544 205.888911,54.5688049 206.008611,54.6535468 C206.489968,54.5451799 206.799961,54.4357859 207.263415,54.2390821 L207.263415,54.2390821 C207.277738,54.2252153 207.293595,54.2108348 207.309453,54.1990223 C207.455242,54.0767886 207.681342,54.0968185 207.818945,54.2169979 C208.921822,54.8307343 209.80883,55.7356745 210.674353,56.6467778 C212.098988,58.219381 213.555849,59.8181772 214.71653,61.5597506 C216.323272,63.9489571 217.522318,66.5774952 218.689138,69.2034653 C221.330722,75.3403158 223.222903,81.7801827 224.04648,88.420862 C224.613776,92.9327234 225.083368,97.6854571 223.886368,102.126957 C223.566657,103.112017 222.276045,103.711886 220.697438,104.069343 C219.983842,109.305362 217.639972,114.122294 214.79633,118.525789 C212.782403,121.689484 210.816049,124.905566 208.742272,128.025093 C208.162699,128.910003 207.570849,129.798509 207.023503,130.709612 C206.967745,130.749672 206.921707,130.801544 206.883853,130.862147 C206.837815,130.93405 206.797915,131.00852 206.764153,131.088639 C206.758015,131.100452 206.753922,131.110723 206.747784,131.120482 L206.747784,131.120482 L206.747784,131.122536 L206.727834,131.170813 C206.70993,131.214982 206.692026,131.25915 206.674122,131.303319 C206.659799,131.329511 206.643942,131.355704 206.63013,131.381384 C206.632176,131.387547 206.634222,131.39371 206.636268,131.397305 C206.595857,131.500022 206.553911,131.602226 206.511965,131.702376 C206.388172,131.987416 206.272565,132.276052 206.162584,132.567256 C206.002472,132.996615 205.854638,133.431623 205.695038,133.860982 C205.569199,134.192245 205.443361,134.522995 205.315476,134.852204 C205.025434,135.602555 204.727718,136.346742 204.418238,137.087335 C204.416192,137.089389 204.416192,137.089389 204.416192,137.09093 C204.405961,137.115069 204.394195,137.141261 204.386011,137.163346 C204.366061,137.209569 204.348157,137.253737 204.328207,137.29996 L204.328207,137.29996 L204.324115,137.309718 C204.322068,137.315881 204.320022,137.31999 204.317976,137.324098 C204.31593,137.327694 204.313884,137.331802 204.311838,137.333857 C204.313884,137.333857 204.313884,137.333857 204.31593,137.331802 L204.31593,137.331802 C204.309792,137.344128 204.306211,137.349778 204.304165,137.355941 C204.304165,137.357995 204.302118,137.357995 204.302118,137.357995 C204.300072,137.364158 204.298026,137.367753 204.298026,137.373916 L204.298026,137.373916 L204.292591,137.384188 L204.292591,137.384188 C204.290353,137.388297 204.290353,137.390351 204.290353,137.390351 C204.288307,137.398055 204.284215,137.406272 204.282168,137.411922 C204.278076,137.420139 204.273984,137.430411 204.270403,137.438115 C204.268357,137.442223 204.268357,137.444278 204.266311,137.448386 L204.266311,137.448386 L204.228457,137.538778 C204.21618,137.564457 204.206461,137.588596 204.19623,137.614789 L204.19623,137.614789 L204.160486,137.696128 L204.160486,137.696128 L204.142518,137.741131 C204.008495,138.052365 203.874472,138.36103 203.736357,138.67021 C203.259092,139.729226 202.775176,140.786702 202.310188,141.851881 C202.313768,141.838014 202.319907,141.825688 202.326045,141.811821 L202.165167,142.176019 L202.165167,142.176019 L202.004288,142.542142 C201.730615,143.155878 201.460522,143.771669 201.178665,144.38181 C200.839515,145.114185 200.503434,145.850155 200.193953,146.592289 L200.193953,146.592289 L200.189861,146.600506 C199.984222,147.080196 199.778072,147.553723 199.576526,148.026737 C199.480357,148.247579 199.384699,148.468422 199.286484,148.685155 L199.286484,148.685155 C199.282903,148.692859 199.280857,148.699022 199.278811,148.705185 C199.276765,148.70724 199.274718,148.709294 199.274718,148.710835 L199.274718,148.710835 L199.272672,148.716998 L199.254768,148.755003 C199.230726,148.815607 199.202592,148.873642 199.177015,148.931677 L199.177015,148.931677 L199.174968,148.935786 L199.166784,148.955816 L199.164738,148.95787 C199.158599,148.969683 199.156553,148.975846 199.155018,148.982009 L199.155018,148.982009 C199.152972,148.986117 199.152972,148.987658 199.150926,148.991767 C199.14888,148.995876 199.146834,148.999984 199.144788,149.006147 C199.142742,149.010256 199.140695,149.011797 199.140695,149.015905 C198.946822,149.447319 198.748857,149.880786 198.549357,150.310145 L198.558373,150.290885 L198.558373,150.290885 L198.569307,150.271626 C198.547311,150.317848 198.525315,150.362017 198.503318,150.40824 L198.503318,150.40824 L198.493088,150.42827 L198.493088,150.42827 L198.491042,150.434433 L198.485415,150.4483 L198.485415,150.450354 L198.475184,150.472438 C198.415334,150.600835 198.351392,150.727177 198.293588,150.855574 C198.145753,151.166808 197.993826,151.471365 197.863895,151.790816 C197.845992,151.834984 197.828088,151.876585 197.810184,151.920753 L197.810184,151.920753 L197.804045,151.935134 C197.801999,151.939242 197.801999,151.939242 197.801999,151.940783 L197.79714,151.94823 C197.722199,152.131838 197.656211,152.310052 197.599942,152.492889 C196.880718,153.877006 196.139499,155.253419 195.382422,156.61956 C194.305122,158.314911 191.004165,165.336672 188.914018,164.604297 C188.512461,164.500039 188.108857,164.395267 187.705253,164.293063 C187.393215,165.574976 186.805968,166.782933 186.372184,168.028895 C185.617153,169.856237 184.570034,172.386166 182.294199,172.388221 C182.224118,172.388221 182.154038,172.384112 182.083957,172.380003 C179.889968,172.297829 177.777826,171.545425 175.642153,171.136096 C173.661988,170.72728 171.629645,170.305626 169.857165,169.28256 C167.495392,168.014514 168.812092,166.00228 170.870011,165.454797 C172.638911,165.019275 174.495284,164.92118 176.297434,164.762482 C177.600322,164.672604 178.990684,164.624327 180.037803,163.791802 C180.473634,163.384528 180.837338,162.897134 181.126868,162.381492 C180.371838,162.124699 179.580488,161.765188 179.770268,160.872574 C180.57543,155.457827 181.756572,150.111386 182.96943,144.78703 C183.29528,143.240107 183.604761,141.689588 183.896338,140.134446 C183.878945,140.104145 183.858995,140.073843 183.838022,140.044569 C183.846718,140.015808 183.855415,139.987047 183.864622,139.958286 C183.94033,139.707142 184.020642,139.456511 184.092257,139.205881 C184.144434,139.031261 184.194053,138.856642 184.238045,138.679968 C184.254415,138.611661 184.268226,138.541813 184.278457,138.471452 C184.282038,138.439096 184.282038,138.405199 184.279992,138.371302 C184.314265,138.254718 184.348026,138.140188 184.382299,138.024117 C184.484095,137.67077 184.574126,137.313827 184.655972,136.956884 L184.655972,136.956884 L184.649834,136.978968 C184.721961,136.673897 184.785903,136.370881 184.843707,136.063756 C184.907649,135.722734 184.963407,135.381713 185.045765,135.042745 C185.127099,134.705832 185.213549,134.370973 185.299488,134.033547 C185.516892,133.16918 185.730715,132.3043 185.92868,131.435824 C186.136365,130.528829 186.410038,129.642378 186.669899,128.749251 C186.707242,128.619827 186.745095,128.489889 186.782438,128.360465 C186.996261,127.659419 187.214688,126.959914 187.439253,126.261435 L187.439253,126.261435 L187.423395,126.309713 C187.445392,126.241405 187.467388,126.173612 187.489384,126.107359 L187.489384,126.107359 L187.493284,126.095097 L187.493284,126.095097 L187.497057,126.083221 C187.663307,125.573742 187.831092,125.067859 187.994784,124.556327 L187.994784,124.556327 C188.006549,124.518321 188.018826,124.480316 188.032638,124.440256 L188.01678,124.486479 C188.029057,124.44796 188.040822,124.409954 188.052588,124.371949 L188.052588,124.371949 L188.062818,124.34781 C188.063842,124.344729 188.064865,124.341134 188.065376,124.338566 C188.065376,124.339079 188.064865,124.339593 188.064865,124.339593 C188.065376,124.338052 188.065888,124.336511 188.066399,124.334971 L188.066399,124.334971 L188.070108,124.322131 L188.070108,124.322131 L188.073305,124.312886 C188.07663,124.303642 188.07663,124.301588 188.07663,124.299533 C188.078676,124.297479 188.078676,124.293884 188.080722,124.289775 L188.080722,124.289775 C188.082768,124.279503 188.084815,124.279503 188.084815,124.279503 L188.084815,124.279503 L188.084815,124.277449 L188.094534,124.247661 C188.098626,124.23328 188.102718,124.217359 188.108857,124.203492 C188.110392,124.197329 188.112438,124.191166 188.113972,124.18603 C188.113461,124.186544 188.113461,124.186544 188.112949,124.187058 C188.400434,123.300607 188.666434,122.405938 188.920157,121.509215 C189.25368,120.333615 189.625568,119.167772 189.952953,117.992172 C189.950907,117.998335 189.950907,118.006039 189.948861,118.012202 C189.959092,117.978305 189.969322,117.943895 189.976995,117.907944 C189.990807,117.863775 190.003084,117.819607 190.016895,117.773384 C190.358603,116.575699 190.680361,115.371851 190.958126,114.158245 C190.95608,114.162354 190.95608,114.166463 190.954034,114.172112 L190.954034,114.172112 L190.958126,114.152082 C190.960172,114.146433 190.962218,114.14027 190.962218,114.134107 L190.962218,114.134107 L190.976861,114.072476 L190.976861,114.072476 L190.990353,114.013927 L190.990353,114.02009 L191.026161,113.861392 C191.028207,113.85112 191.030253,113.841362 191.032299,113.83109 C191.173995,113.221463 191.305972,112.609267 191.425672,111.991422 C191.535653,111.431612 191.633357,110.870261 191.715203,110.304289 L191.715203,110.304289 L191.797561,109.756805 C191.811372,109.656142 191.825184,109.555992 191.833368,109.455843 C191.837461,109.391645 191.837461,109.327446 191.839507,109.263248 L191.839507,109.263248 L191.839507,109.259139 L191.841042,109.252976 C191.863549,109.13896 191.80728,109.034702 191.703438,109.006454 C191.603688,108.978207 191.485522,109.040351 191.46148,109.144609 C191.457388,109.156935 191.455853,109.166694 191.451761,109.176965 C191.40163,109.319229 191.36173,109.463547 191.331549,109.614028 C191.326434,109.63303 191.32183,109.654601 191.317738,109.677199 L191.317738,109.677199 C191.317738,109.676685 191.315692,109.68028 191.315692,109.684389 C191.316203,109.683362 191.316715,109.682848 191.317226,109.681821 C191.316715,109.683876 191.316203,109.686444 191.315692,109.688498 L191.31486,109.692863 C191.312622,109.70031 191.312111,109.703905 191.312111,109.706473 L191.313901,109.698834 L191.312111,109.705446 L191.309233,109.721753 L191.309233,109.721753 L191.305972,109.738829 L191.305972,109.738829 L191.293695,109.803028 L191.289859,109.823122 L191.289859,109.823122 L191.286022,109.847196 C191.286022,109.8549 191.283976,109.856954 191.283976,109.859009 C191.28193,109.87493 191.277838,109.88931 191.275792,109.905232 L191.275792,109.905232 L191.271699,109.923207 C191.271802,109.929165 191.271802,109.928138 191.272313,109.92711 C191.272313,109.92711 191.271802,109.927624 191.271802,109.928138 L191.271865,109.928587 L191.269909,109.93136 Z M195.290345,54.2308647 C193.887195,54.0526501 193.048272,55.3787316 192.031334,56.1028892 C190.374461,57.5476093 188.977961,59.3210251 187.972788,61.2788185 C188.962103,60.5726365 190.02508,59.9748213 191.187807,59.5392995 C197.576411,57.306737 203.618703,61.104199 205.574826,67.3735549 C206.705838,71.5146066 206.148261,75.9139924 205.607053,80.1089707 C205.398857,81.5172261 205.081192,82.933699 204.797799,84.303949 C204.447907,86.1816229 204.569653,86.099449 202.649338,86.0855821 C202.150076,86.0753104 201.652349,86.0794191 201.15718,86.0958539 C201.155134,86.1015033 201.153088,86.1097207 201.146949,86.1174245 C201.146949,86.1235876 201.142857,86.1297506 201.140811,86.1359136 C200.559703,87.9992071 199.969899,89.853256 198.855257,91.462324 C194.966542,96.6623919 188.052588,97.974093 181.854276,97.974093 C181.412818,97.974093 180.972895,97.9684435 180.539622,97.9561174 C179.856207,97.9160577 179.188649,97.8379924 178.535415,97.7214082 C178.559457,97.8256664 178.585545,97.9299245 178.604984,98.0326419 C178.851034,99.4670903 178.936972,100.927218 179.027003,102.359612 C179.102711,103.148482 179.011145,104.42834 180.067984,104.460183 C180.759584,104.476617 181.352968,104.171547 181.968349,103.914753 C183.189392,103.366756 184.451868,102.905555 185.742992,102.560425 C189.331434,101.655484 193.038553,101.14806 196.732884,100.999634 C198.583118,100.951357 200.439492,101.007851 202.271822,101.272348 C205.035665,101.659593 207.659345,102.710905 210.376638,103.284582 C214.135422,104.02312 218.065572,104.141245 221.716422,103.015976 C222.144068,102.851628 222.613661,102.702688 222.951276,102.387859 C223.23518,102.014995 223.321118,101.529142 223.422915,101.085916 C224.195849,97.3321093 223.916549,93.470449 223.488903,89.6925033 C222.731315,83.3147805 221.123038,77.095756 218.661003,71.1735848 C216.868572,66.8722941 214.916542,62.6007914 211.803318,59.1243213 C210.476388,57.6415957 209.189868,56.0648838 207.531461,54.9611854 C206.863903,55.3165876 205.514976,55.511237 205.189126,55.5312669 C203.127537,55.9073465 201.130389,55.4762189 199.139074,55.0006133 L198.28584,54.7962828 C197.290418,54.5599089 196.294362,54.3396558 195.290345,54.2308647 Z M162.851645,16.8237588 C151.659695,16.6229463 140.457515,17.1483457 129.26403,17.3311827 C128.448638,17.327074 127.631199,17.3250196 126.817853,17.3250196 C114.408953,17.3250196 102.010284,17.7564327 89.6013838,17.7846799 C81.3753338,17.8067642 73.1482608,18.0152805 64.9339762,18.4949707 C57.4404492,18.7553593 49.9372031,18.8739979 42.4462338,18.9962316 C42.4140069,19.0224245 42.3802454,19.0383457 42.3439262,19.0486174 C42.4242377,24.6636636 43.0058569,30.241218 43.0697992,35.8562642 C43.0953762,52.9468973 41.5408108,70.0036338 41.92293,87.0947805 C41.9643646,90.4628838 42.1045262,93.8335549 41.9587377,97.2021718 C41.92293,98.2010984 41.7065492,99.232381 41.8446646,100.219495 C42.5219415,100.504022 43.3091992,100.4578 44.0330262,100.534324 C51.2001915,100.93749 58.3760531,100.726919 65.5514031,100.517889 C69.91943,100.389492 74.2874569,100.261096 78.6534377,100.273422 C98.7712223,100.239525 118.889007,100.176867 139.002699,99.9662968 C146.917734,100.020737 154.955026,100.217954 162.861876,99.8646066 C162.460318,96.1133674 163.115599,92.2635196 163.457307,88.5276881 C163.487488,88.2708946 163.477768,88.0895984 163.476745,87.7244381 C163.486976,87.7105713 163.497207,87.6987588 163.506926,87.6864327 C161.024942,84.797506 158.80333,81.6759245 156.733134,78.861468 C155.915695,77.7439028 155.020503,76.7727098 153.949342,75.9504571 C153.590242,75.586324 153.68948,75.6736338 152.998392,76.0665278 C152.618504,76.2580023 152.24383,76.4730849 151.869387,76.6931162 L151.119335,77.1342484 C150.36664,77.5709216 149.60159,77.9776315 148.784338,78.2051039 C147.36533,77.9683403 146.356065,74.2129924 145.816903,72.9629218 C145.219426,71.3420414 144.448026,69.8053892 143.600918,68.3067424 C142.851515,66.9441963 142.082161,65.6283865 141.596711,64.1538783 C141.301042,63.5180577 141.502588,62.8375549 142.038168,62.4046011 C143.446945,61.1000903 145.133488,60.1853919 146.763761,59.2023865 C148.708118,58.0550332 150.638665,56.8850821 152.654638,55.8681799 C154.502826,54.8107044 155.166292,55.0336011 156.065576,56.9754734 C158.003795,61.4693593 161.107299,65.3474544 163.051145,69.8233647 C163.225068,70.4109082 162.539607,70.7380631 162.118099,70.970718 C162.010165,71.0169408 161.906322,71.0934653 161.800434,71.1535549 C162.341642,71.7714001 162.839368,72.435468 163.383134,73.0430414 C163.606676,73.2900767 163.834311,73.5345441 164.066549,73.7774707 C164.018465,73.1734924 163.982657,72.5618104 163.948384,72.0020006 C163.508972,66.3427859 163.599003,60.6933294 163.369322,55.0294924 C163.003061,49.785256 163.662945,44.5353702 163.427126,39.2931881 C163.42508,38.9259734 163.295149,38.5546501 163.347326,38.1956528 C163.370857,38.1376174 163.416895,38.0970441 163.471118,38.0770142 C162.194318,37.0477859 160.867388,36.0771066 159.776276,34.8429571 C159.384438,35.2081174 158.976742,35.5635196 158.647311,35.9846609 C158.593088,36.0391011 158.525565,36.0832696 158.447299,36.0889191 C157.929622,36.5162234 157.386368,36.9414734 156.825211,37.3210142 C156.663053,37.4632778 156.495268,37.6117044 156.307534,37.6517642 C156.077853,37.792487 155.845615,37.9229381 155.610307,38.0410631 C155.200565,37.998949 155.288549,37.5356935 155.584218,37.3831582 C156.830838,36.4643511 157.97208,35.415093 159.202842,34.476256 C159.208468,34.4721473 159.214607,34.470093 159.220745,34.4680386 C159.224838,34.4639299 159.22893,34.4598213 159.232511,34.4562261 C159.262692,34.4320876 159.292872,34.4177071 159.322542,34.4120577 C159.338911,34.4017859 159.354768,34.3935685 159.36858,34.3858647 C158.747061,33.6796827 157.913765,32.5379789 158.88313,31.9160251 C159.442792,31.7804381 159.922246,32.0541192 160.38936,32.3674287 L160.643334,32.5400332 C160.663284,32.4840522 160.701138,32.4337207 160.755361,32.4034191 C160.835161,32.3577098 160.91138,32.305324 160.987088,32.2513973 C160.923145,32.1589517 160.859203,32.0685604 160.801399,31.9802234 C158.909218,29.5689327 160.327715,26.5536636 162.983622,27.9156963 C162.981065,27.6989626 162.99948,27.4842832 163.001526,27.3137723 C163.211257,25.2455577 163.057284,23.1629626 163.089511,21.0885848 C163.025568,19.6864924 163.333003,18.1354598 162.851645,16.8237588 Z M160.333853,70.7442261 C158.403307,68.994949 159.220745,72.4673104 159.738422,73.3162696 C159.981915,73.8878919 160.435649,74.3573104 160.695511,74.9047941 C160.729272,75.1698049 160.453553,75.394756 160.205968,75.2822805 C159.542503,74.6099952 159.038638,73.7456283 158.731203,72.8247669 C158.631453,72.8910196 158.531703,72.9588131 158.425303,73.0194164 C158.329645,73.0738566 158.286676,73.1098077 158.241661,73.1334327 C156.671749,73.9551718 155.587288,74.6079408 154.232222,75.3582914 C154.564722,75.5827289 155.004645,75.9843539 155.198518,76.1286718 C157.816061,78.6046745 159.552222,81.8484897 161.844426,84.611074 C165.822661,89.3396691 170.23468,94.3332751 176.225307,96.3491039 C179.568211,97.5611691 183.207295,97.2864001 186.656088,96.8909381 C192.221115,96.279256 198.291542,93.3620821 199.856338,87.5600903 C199.858384,87.5580359 199.858384,87.5580359 199.858384,87.5559816 C200.022076,87.0906718 200.169911,86.6053321 200.319792,86.1338593 C199.564249,86.1739191 198.812799,86.2319544 198.063907,86.2920441 C196.712934,86.3983566 195.364007,86.5046691 194.007407,86.5046691 C193.713784,86.5046691 193.422207,86.501074 193.128072,86.4887479 C188.620395,86.161593 183.772545,84.941824 180.327845,81.9044707 C179.700188,82.482256 179.15898,83.1642995 178.475565,83.6619653 C178.351261,83.760574 178.197799,83.784199 178.043826,83.784199 C177.991649,83.784199 177.939984,83.7826582 177.887807,83.7785495 L177.887807,83.7785495 L177.849953,83.7744408 C175.226272,83.5294598 173.004149,81.8423267 170.782026,80.5645223 C168.408488,79.0217071 166.320388,77.1240033 164.35608,75.1035522 C164.35608,75.1035522 164.354034,75.1035522 164.351988,75.1014979 C164.329992,75.0917397 164.307995,75.081468 164.285999,75.0696555 C164.250192,75.0311365 164.222057,74.9890223 164.198526,74.9433131 L164.198526,74.9433131 C162.873642,73.5730631 161.602468,72.1504272 160.333853,70.7442261 Z M101.354185,84.3517639 C117.441558,83.6835873 133.551438,84.6106117 149.634719,84.9316036 C150.287954,84.9737177 151.007688,85.0358617 151.500812,85.5212014 C152.216454,86.3280465 152.354058,87.647965 151.9525,88.6309704 C151.281362,89.4393563 149.872585,89.1106607 148.937492,89.1846172 L148.937492,89.1846172 C148.899638,89.2108101 148.857181,89.2287857 148.8137,89.2328943 C147.368604,89.2652503 145.926065,89.1527748 144.481481,89.1265818 C121.493965,88.4286172 98.5131,89.6340058 75.5337692,89.7988672 C75.2920366,89.7660798 75.0102616,89.7671645 74.717303,89.7695828 L74.4216853,89.7712404 C73.5795965,89.7703676 72.7249525,89.6931299 72.5141577,88.799427 C72.3745077,88.1435764 72.4144077,87.4574242 72.4461231,86.791302 C72.4803962,86.3480764 72.5121115,85.7944297 72.8916731,85.5011715 C73.0558769,85.4112938 73.1919462,85.5756416 73.1576731,85.7122558 C73.6993923,85.394859 74.4027577,85.4410818 75.0099538,85.3368237 C77.8131846,85.0261036 80.6307385,84.8371036 83.4503385,84.7472259 C89.4128308,84.5125166 95.3916923,84.6665927 101.354185,84.3517639 Z M52.606155,85.4572598 C53.1279242,85.1480805 53.7514896,85.5476511 54.1029165,85.9467082 C55.6615742,87.6841729 53.7872973,90.2521077 51.6572512,89.3250832 C49.5052088,88.5485397 50.5021973,85.3791946 52.606155,85.4572598 Z M62.5491838,89.0121547 C60.3132492,87.8868857 62.14558,84.2373367 64.3017146,85.1843911 C64.8112069,85.0200433 65.3386031,85.390853 65.6265992,85.8083992 C66.9192569,87.800603 64.6035223,90.2540079 62.5491838,89.0121547 Z M194.968588,59.7159734 C192.201165,59.7159734 189.357522,60.8638403 187.019792,63.0424761 C184.330122,65.6304408 181.85223,68.6236256 180.028084,71.8777126 C179.144657,73.7291935 178.583499,75.6551446 178.012111,77.5934218 C178.029503,77.6375903 178.049965,77.6776501 178.071961,77.7197642 L178.085772,77.7480115 C178.087818,77.7516066 178.089865,77.7536609 178.089865,77.7577696 C178.815226,79.3385903 179.947772,80.6066365 181.04093,81.8823865 C185.107661,84.941824 190.446588,86.1015033 195.451992,85.8529272 L195.451992,85.8529272 C198.243457,85.6022968 201.052826,85.3973756 203.85043,85.3994299 C205.129276,79.2625794 207.093584,70.0236636 203.378792,64.5467723 C201.290692,61.2649517 198.181561,59.7159734 194.968588,59.7159734 Z M163.768834,38.3199408 C164.607757,42.4224734 163.880861,46.7057886 163.968334,50.8709789 C164.040461,55.1239924 164.266049,59.3790604 164.329992,63.6341283 C164.347895,66.3643566 164.428207,69.1269408 164.653795,71.8397071 C164.70188,72.7199952 164.769915,73.5186229 164.815953,74.3655278 C164.831811,74.4317805 164.84153,74.5077914 164.843576,74.5838022 C165.722911,75.4707669 166.631915,76.3274299 167.559334,77.1579001 C169.253549,78.6745223 171.089972,80.0108756 173.080368,81.1022479 C173.188781,81.1621664 173.297249,81.2226738 173.405839,81.2834888 L174.059343,81.649822 C175.371304,82.380874 176.719146,83.0752435 178.213657,83.246987 C178.888888,82.7914354 179.360526,82.083199 179.999949,81.6076174 C179.496595,81.1340903 179.024957,80.6163946 178.591172,80.0570984 C178.08168,79.3709463 177.658126,78.6247044 177.282657,77.8558647 C177.172676,77.6134517 177.25043,77.3566582 177.318465,77.1137316 C177.550192,76.3315386 177.803915,75.5549952 178.047918,74.7763973 C178.879168,71.8756582 180.459311,69.325699 182.369907,67.0227751 C183.170976,65.9997098 183.904522,65.0870658 184.805853,64.1302533 C184.497395,63.8082343 184.042126,63.2628049 183.710649,62.8236881 C183.229292,62.0671745 182.725426,61.3912941 182.19803,60.6768946 C181.714626,59.8926473 180.927368,59.2383376 180.621468,58.3719164 C180.583615,57.9564245 180.851149,57.5994816 181.079295,57.2805441 C181.155003,57.1922071 181.144261,57.1793674 181.308976,57.0134789 C179.613226,55.4049245 178.143576,53.2863783 176.515349,51.4723892 C174.125442,48.4833131 171.427588,45.7669517 168.79828,42.9946093 C167.447307,41.5622153 165.972542,40.2458919 164.501868,38.9418946 C164.262468,38.7292696 164.016418,38.5228077 163.768834,38.3199408 Z M154.369315,55.9606256 C153.881818,55.9606256 153.389718,56.355574 152.970257,56.5204354 C149.497422,58.4499816 145.882892,60.2737289 142.737442,62.7173756 C142.519526,62.9320549 142.247899,63.1308131 142.157868,63.425612 C142.308261,64.2021555 142.699588,64.9622642 143.011626,65.6422533 C143.117357,65.8376534 143.223812,66.0327891 143.330669,66.2278004 L143.974088,67.3974962 C145.045969,69.348236 146.094078,71.3145447 146.798034,73.436449 C147.12593,74.4174001 147.489634,75.388593 147.951042,76.3053457 C148.218576,76.7146745 148.384826,77.452699 148.912222,77.5492533 C152.169188,76.0485522 155.336122,73.9983131 158.607411,72.4195468 C158.473388,71.9259897 158.39768,71.4201066 158.381822,70.9244952 C158.373638,69.6246066 159.422292,69.0427126 160.461738,69.8793457 C160.753315,70.0981338 161.024942,70.3410604 161.278665,70.5978539 C161.532388,70.3148674 162.042392,70.2224218 162.285884,69.9579245 C160.601388,66.1501908 158.047788,62.7933865 156.223642,59.0477968 C156.082201,58.795112 155.956778,58.5268591 155.834872,58.2539759 L155.592045,57.7052766 C155.305576,57.0654867 154.99288,56.4401874 154.495153,55.9683294 C154.453207,55.9626799 154.411261,55.9606256 154.369315,55.9606256 Z M129.159267,56.7926878 C129.518878,56.7967965 129.91839,56.7767666 130.24424,56.952927 C130.557813,57.1218971 130.643752,57.4968155 130.645798,57.8280791 C130.691836,59.2219541 130.691836,60.6225058 130.701555,62.0168943 C130.698329,62.2820237 130.695847,62.5474145 130.693764,62.8130072 L130.683291,64.4085122 C130.664604,67.0701433 130.616719,69.7400965 130.194109,72.3589949 C129.810455,73.9978509 127.728494,73.2896145 126.505405,73.4503672 C122.650963,73.4180112 118.794475,73.4883726 114.940032,73.4400954 C112.925594,73.3717884 111.796628,73.4400954 112.170563,71.0026117 C112.294355,69.258984 112.416102,67.5220329 112.50204,65.7763509 C112.634017,63.0538264 112.666244,60.2974052 113.135325,57.6092911 C113.117421,57.171715 113.710805,56.9873373 113.866825,57.4326172 C117.114071,57.3442802 120.357225,57.2199922 123.598332,57.0135302 C125.450613,56.9149215 127.302894,56.8009052 129.159267,56.7926878 Z M53.6995173,67.9804093 C57.8665096,67.9624338 62.0416865,67.9213468 66.210725,68.0245778 C68.7351673,68.1750588 71.2243135,68.2849664 73.7456865,68.3034555 C73.9052865,68.3034555 73.9155173,68.5638441 73.7456865,68.560249 C68.2880827,68.3902517 62.8299673,68.7215153 57.3708288,68.6506403 C56.1779212,68.6578305 54.9778519,68.6080126 53.7880135,68.6383142 C53.3711096,68.6984039 53.2693135,68.0312544 53.6995173,67.9804093 Z M191.821603,47.446381 C191.312111,47.8351664 190.81643,48.2424408 190.332515,48.6640957 C190.336607,48.6779626 190.196957,48.7945468 190.128922,48.8382017 C190.093115,48.8623403 190.056795,48.8885332 190.020988,48.9147261 C189.994899,48.934756 189.969322,48.9568403 189.943234,48.9789245 C189.915099,49.0051174 189.886965,49.0307968 189.860876,49.0590441 C189.833253,49.0872914 189.807165,49.1155386 189.783122,49.1453267 C187.021838,51.6269789 184.585892,54.4897126 181.968349,57.1120876 C181.736622,57.4690305 181.055253,57.9908348 181.280842,58.432006 C182.13818,59.5336501 182.975568,60.6568647 183.770499,61.8047316 L183.770499,61.8047316 C183.774592,61.810381 183.776638,61.8124354 183.78073,61.8185984 C184.204284,62.4585278 184.601749,63.1487886 185.13733,63.6844598 C185.151653,63.7024354 185.163418,63.7224653 185.169557,63.7445495 C185.782892,63.1066745 186.428453,62.5006419 187.107776,61.9428865 C187.177345,61.6439789 187.383495,61.2890903 187.439253,61.1062533 C188.416292,58.9979789 189.891057,57.150093 191.629776,55.623199 C193.367984,53.9540414 194.515876,53.5519028 196.088345,53.7121419 C196.084765,53.7018702 196.197815,53.4378865 196.251526,53.2077995 C196.302168,52.9884979 196.392199,52.7717642 196.533895,52.1205359 C196.676103,51.4693077 196.873045,50.3573919 197.032645,49.3661691 C197.058734,49.2875903 197.068453,49.1874408 197.078684,49.0831827 C196.723165,49.1355685 196.363553,49.1576528 196.011615,49.1576528 C195.899588,49.1576528 195.789607,49.1555984 195.67758,49.1514897 C194.071349,49.0189843 192.752603,48.3811093 191.821603,47.446381 Z M72.50495,61.5269324 C79.7631692,61.4036715 87.0403154,60.8007204 94.2934192,61.2259704 C94.4719462,61.265003 94.7665923,61.1360927 94.8172346,61.3625846 C94.7589192,61.6157829 94.35685,61.4314052 94.1655346,61.4909813 C83.5199077,61.607052 72.8727462,61.9655357 62.2245615,61.9742666 C59.6852846,61.9752938 57.1490769,61.958859 54.6133808,62.0204895 C54.3581231,62.0271661 54.0992846,62.0204895 53.8445385,62.0287068 C53.7591115,62.0287068 53.6900538,61.9475601 53.6900538,61.8638454 C53.6915885,61.7616416 53.7734346,61.698984 53.8701154,61.6974433 C55.7837808,61.5726416 57.7076769,61.6127014 59.6249231,61.613215 C63.9177538,61.6630329 68.2136538,61.6352992 72.50495,61.5269324 Z M165.013407,30.2206745 C164.283953,30.7825386 163.556545,31.3444028 162.875176,31.948381 C162.815326,32.2534517 162.441903,32.4260169 162.197899,32.5780386 C162.140095,32.6042316 162.082292,32.6401827 162.02193,32.680756 C162.045972,32.7485495 162.064388,32.8189109 162.076153,32.8913267 C162.196365,33.4932506 161.488907,33.8101338 161.024942,33.5173892 C160.42593,33.2282397 159.917972,32.7429001 159.310776,32.4819979 C159.252972,32.4640223 159.198749,32.4460468 159.147084,32.4460468 C159.116903,32.4460468 159.088768,32.4516963 159.063192,32.4696718 C159.035057,32.5138403 159.02278,32.5821473 159.030965,32.6463457 C159.138899,33.2400522 159.626395,33.7217968 159.981915,34.1752941 C161.460772,35.8603729 163.343234,37.1119843 165.001642,38.5926555 C167.363415,40.6228647 169.525176,42.8898376 171.635272,45.180949 C173.877345,47.5362588 176.051384,49.9516582 178.029503,52.5360278 C179.144657,53.984343 180.228607,55.4326582 181.568838,56.7186799 C183.123403,54.9632397 184.843707,53.3505767 186.428453,51.6208158 C187.361499,50.6763294 188.288407,49.716949 189.263911,48.8125223 C188.760045,48.5012886 188.264365,48.1705386 187.776868,47.8454381 C186.19468,46.7740957 184.647788,45.6986446 183.077365,44.5995685 C179.212692,41.8868022 175.232411,39.2546691 171.739626,36.0611854 C170.268953,34.7330495 168.814138,33.4208348 167.327607,32.1327588 C166.574111,31.4568783 165.846703,30.7784299 165.013407,30.2206745 Z M199.712084,36.5044109 C198.37748,39.7240876 193.567484,39.8910033 192.280965,36.9414734 C192.221115,37.0441908 192.159218,37.1443403 192.098857,37.2424354 C191.825184,37.8243294 191.28193,38.3800305 191.253795,39.0363946 C191.363776,39.3830658 191.763288,39.4693484 191.987342,39.7122751 C192.456934,40.2761935 191.70753,40.9161229 191.517749,41.4374136 C190.708495,42.8862424 190.622557,44.7901093 191.591411,46.1624136 C191.705484,46.3406283 191.82723,46.5070305 191.959207,46.6636745 L191.959207,46.6636745 C191.961253,46.6636745 192.115738,46.8403484 192.280965,47.0108593 C194.208953,48.8926419 197.542138,48.9547859 199.642003,47.2738158 C199.682415,47.2455685 199.732034,47.2332424 199.780118,47.2332424 C199.868103,47.2332424 199.958134,47.2758702 200.011845,47.345718 C200.285518,47.7909979 199.38828,48.1119897 199.152972,48.3549164 C198.675195,48.6640957 198.135522,48.8685033 197.576411,48.9927914 C197.650072,50.0641338 197.222426,51.7276419 197.15388,52.1205359 C197.078684,52.551949 196.933918,53.140006 196.884811,53.3064082 C196.835703,53.4728104 196.778411,53.6428077 196.725211,53.7938022 C197.26028,53.8883022 197.855711,54.0305658 198.545265,54.196968 C200.673265,54.7305848 202.947565,55.1378593 205.109326,54.8271392 C205.095515,54.8071093 205.085284,54.7850251 205.073518,54.7649952 C205.073518,54.7629408 205.071472,54.7629408 205.071472,54.7588321 L205.071472,54.7588321 C205.057661,54.7285305 205.045384,54.7085006 205.035665,54.6864164 L205.029526,54.6746039 L205.029526,54.6746039 L205.023388,54.6602234 L205.023388,54.6602234 C204.627968,53.8677588 204.454045,52.9992832 204.040211,52.2191446 C203.406926,51.0753865 203.07903,49.8396963 203.203334,48.5454571 C203.199242,47.5542343 203.844803,46.7098973 203.998265,45.7731147 C203.742495,45.6647479 203.46473,45.7027533 203.20538,45.6185251 C202.813542,45.4762615 202.911245,44.8599571 203.32508,44.8342778 C204.613645,44.8964218 206.240338,44.6894463 206.909942,43.4378348 C207.704872,41.4538484 206.551865,41.2288973 204.849465,41.5498892 C204.591649,41.5236963 204.439722,41.2129761 204.577838,40.9880251 C204.805472,40.7014435 205.229538,40.595131 205.479168,40.3383376 C205.483261,40.3362832 205.485307,40.3321745 205.488888,40.3301202 C205.129276,40.1796392 204.765572,40.0471338 204.410053,39.8930577 C204.290353,39.8524843 204.160422,39.7764734 204.080111,39.6742696 C203.972688,39.6681066 203.860661,39.6259924 203.776768,39.5417642 C202.385895,38.5849517 200.977118,37.6255713 199.712084,36.5044109 Z M129.000997,34.6823585 C129.464962,34.6664373 130.070112,34.6299726 130.327928,35.1055541 C130.573978,35.7377797 130.442001,36.4537199 130.463997,37.1198422 C130.380105,39.6215242 130.539705,42.1232063 130.523847,44.622834 C130.469624,46.54519 130.468089,48.4988748 130.066532,50.3827117 C129.852708,51.3379835 128.803543,51.2717308 128.034189,51.2352661 C123.222658,51.1731221 118.409082,51.2275623 113.599085,51.1392253 C113.017466,51.1474427 112.262435,50.930709 112.351955,50.2044971 C112.382135,49.1691058 112.392366,48.1337145 112.398505,47.0967824 L112.398505,47.0967824 L112.407294,46.9527373 C112.444886,46.1853857 112.478792,43.6045852 112.615946,41.0660126 L112.649478,40.4817824 C112.82679,37.5728259 113.152512,34.9101343 113.790912,35.3443721 C114.29222,35.1055541 114.92397,35.2904454 115.473362,35.2221384 C119.122166,35.1779699 122.786828,35.06344 126.427447,34.8467063 C127.295016,34.7927797 128.140078,34.7106058 129.000997,34.6823585 Z M65.9404792,41.7005242 C70.2164292,41.5264183 74.4887985,41.7220949 78.7667946,41.6322172 C78.9233254,41.63119 78.9376485,41.8900378 78.7667946,41.8890107 C74.9241177,41.8368618 71.0892864,42.0117245 67.2555615,42.2185918 L63.4219558,42.4289049 C60.2271758,42.6010184 57.0316041,42.750217 53.8313408,42.7636492 C53.5929638,42.7579998 53.2364215,42.803709 53.2256792,42.4744998 C53.2256792,42.3183693 53.35561,42.1940813 53.5095831,42.1899726 C54.3848254,42.1797009 55.2600677,42.1678884 56.1373562,42.1458041 C59.40711,42.071334 62.6717485,41.8099183 65.9404792,41.7005242 Z M201.173038,32.8651338 C200.327976,33.1301446 199.382653,33.2765169 198.537592,33.0577289 C199.182642,33.7315549 199.610288,34.5846229 199.602615,35.5532479 C199.778072,35.5532479 199.912095,35.6677778 200.027703,35.784362 C201.232888,36.9055223 202.645757,37.8022452 203.974222,38.7554626 C204.110292,38.8617751 204.293934,38.9377859 204.403915,39.0702914 C204.893457,39.2911338 205.407042,39.5155713 205.892492,39.7040577 C205.920626,39.5597397 205.900676,39.4133674 205.800926,39.2767533 C205.585057,39.0440984 205.277111,38.9942805 205.023388,38.8314734 C204.160422,38.2156827 204.370153,36.9738294 204.313884,36.0468049 C202.242153,35.7859028 201.176618,35.0920468 201.173038,32.8651338 Z M195.286253,32.1949028 C194.940453,32.1949028 194.596699,32.2652642 194.267268,32.4239626 C193.072826,33.0864897 192.634438,34.7176419 192.795572,35.996987 L192.795572,35.996987 L192.798821,36.037188 L192.798821,36.037188 L192.802529,36.0767984 C192.858287,36.3746789 192.972872,36.6458528 193.127356,36.8903202 C193.720945,37.8274109 194.937384,38.3538376 196.013661,38.2916935 C197.432157,38.2095196 198.601534,37.2326772 199.14888,35.9466555 C198.876742,35.3185386 198.805126,34.564593 198.409707,33.9965658 C197.718107,33.0495115 196.491438,32.1949028 195.286253,32.1949028 Z M99.2662381,21.1583299 C99.843765,21.1845229 100.501092,21.0561261 101.004446,21.4012566 C101.443857,21.7766886 101.406003,22.4304848 101.426465,22.9579386 C101.394238,24.8941615 101.362523,26.8262756 101.39833,28.7599305 C101.449996,29.7629658 101.326203,30.7901397 101.342061,31.7813626 C101.354338,32.2410229 100.702638,32.395099 100.501092,32.0063136 C100.484723,31.9539278 100.470911,31.9015419 100.461192,31.8476153 C84.3073188,31.6632376 68.1841381,32.9472049 52.0384496,33.1916723 C51.4430188,33.1557213 50.394365,33.3765636 50.4061304,32.4875446 C50.2705727,29.6689794 50.3421881,26.8401424 50.4982073,24.0236316 C50.5401535,23.8407946 50.5181573,23.5377783 50.5442458,23.2691723 C50.5222496,23.1669685 50.5120188,23.060656 50.494115,22.959993 C50.4583073,22.7894821 50.454215,22.567099 50.6296727,22.4746533 C50.593865,22.3139006 50.7498842,22.141849 50.9176688,22.2060473 C50.9759842,22.1978299 51.0455535,22.1855039 51.1197265,22.1736914 C51.1678112,22.1557158 51.2194765,22.1474984 51.2731881,22.1536615 C51.2752342,22.1516071 51.2752342,22.1516071 51.2772804,22.1536615 L51.2772804,22.1536615 L51.2875112,22.1536615 C51.3754958,22.1433897 51.4614342,22.1433897 51.5391881,22.1577702 L51.5391881,22.1577702 C51.8072342,22.1577702 52.0747688,22.1495528 52.3443496,22.1495528 C57.9436496,22.1577702 63.5183958,21.5979604 69.1130919,21.5055147 C75.2658765,21.3873897 81.4222419,21.4295039 87.5765612,21.4033109 C91.4729496,21.3694142 95.3693381,21.2004441 99.2662381,21.1583299 Z M117.973404,21.1923808 C124.32927,21.0460085 130.685647,20.9099079 137.042023,21.0804188 C140.898512,21.1225329 144.745281,21.1425628 148.599723,21.1625927 C149.738408,21.2329541 151.065339,20.9355873 152.060793,21.61609 C153.245516,22.9057068 152.9478,24.9199949 153.121723,26.5470384 C153.099727,27.6425193 153.381073,28.8443128 152.99742,29.8832992 C152.564147,30.4831688 151.7907,30.4092123 151.091427,30.4230791 C150.8996,30.9366661 149.752731,30.6177286 149.309227,30.7219867 C138.944435,30.8883889 128.617497,32.1045628 118.245031,31.9155628 C116.584577,31.7892204 114.726158,32.0701525 113.215585,31.2617666 C112.715812,30.894552 112.6621,30.2366471 112.644197,29.6665655 C112.618108,28.8119568 112.655962,27.9573482 112.684097,27.1047938 C112.730135,25.4417992 112.7818,23.7166607 112.72195,22.071128 C112.71172,21.9411905 112.691258,21.5190221 112.708139,21.3890846 C112.74497,21.111234 113.517393,21.2005982 113.822781,21.1687558 C115.207516,21.1985438 116.590204,21.2165193 117.973404,21.1923808 Z M161.700684,28.318862 C160.967138,28.318862 160.60548,28.9531419 160.641288,29.7897751 C160.697557,30.5139327 161.083257,31.1014761 161.460772,31.6772071 L161.460772,31.6772071 C161.490953,31.7275386 161.520622,31.7696528 161.550803,31.8138213 C161.676642,31.7213756 161.806572,31.6371473 161.946222,31.572949 C161.986122,31.5672995 162.026534,31.5708946 162.064388,31.5852751 C162.785657,30.9474001 163.520738,30.3233919 164.266049,29.7173593 C163.599003,29.2438321 162.955488,28.7281908 162.219895,28.4092533 C162.030115,28.3471093 161.856192,28.318862 161.700684,28.318862 Z" id="Combined-Shape" fill="#000000"></path>
                </g>
                <rect id="Rectangle" fill="#666666" opacity="0.16" x="13.4797297" y="62.9" width="81.777027" height="80.1" rx="7.2"></rect>
            </g>
        </g>
    </g>
</svg>