<?xml version="1.0" encoding="UTF-8"?>
<svg width="64px" height="64px" viewBox="0 0 64 64" version="1.1" xmlns="http://www.w3.org/2000/svg" xmlns:xlink="http://www.w3.org/1999/xlink">
    <title>icon/opportunity copy</title>
    <g id="icon/opportunity-copy" stroke="none" stroke-width="1" fill="none" fill-rule="evenodd">
        <g id="Group">
            <path d="M40,55 C40,57.209139 38.209139,59 36,59 L28,59 C25.790861,59 24,57.209139 24,55 L40,55 Z M39,49 C40.1045695,49 41,49.8954305 41,51 C41,52.1045695 40.1045695,53 39,53 L25,53 C23.8954305,53 23,52.1045695 23,51 C23,49.8954305 23.8954305,49 25,49 L39,49 Z M32,5 C42.4934102,5 51,13.5618182 51,24 C51,30.4210418 47.9202789,35.5843763 43,39 L43,44 C43,46 42,47 40,47 L24,47 C22,47 21,46 21,44 L21,39 C16.0781891,35.5845788 13,30.4222237 13,24 C13,13.5618182 21.5065898,5 32,5 Z M32,9 C23.7365629,9 17,15.7500888 17,24 C17,28.73177 19.1013071,32.6806788 22.9634564,35.4885773 L23.2804556,35.7137373 L25,36.9069909 L25,43 L39,43 L39,36.9074332 L40.7189739,35.7141333 C44.7825921,32.8931975 47,28.857867 47,24 C47,15.7500888 40.2634371,9 32,9 Z" id="Combined-Shape" fill="#FFFFFF"></path>
            <rect id="Rectangle" x="0" y="0" width="64" height="64"></rect>
        </g>
    </g>
</svg>