<?xml version="1.0" encoding="UTF-8"?>
<svg width="64px" height="64px" viewBox="0 0 64 64" version="1.1" xmlns="http://www.w3.org/2000/svg" xmlns:xlink="http://www.w3.org/1999/xlink">
    <title>icon/gear copy</title>
    <g id="icon/gear-copy" stroke="none" stroke-width="1" fill="none" fill-rule="evenodd">
        <g id="Group">
            <path d="M35,6 C37.209139,6 39,7.790861 39,10 L39.0010145,13.2595945 C39.4420981,13.4244457 39.8758026,13.6044233 40.3014966,13.798896 L43.1715729,10.9289322 C44.73367,9.36683502 47.26633,9.36683502 48.8284271,10.9289322 L53.0710678,15.1715729 C54.633165,16.73367 54.633165,19.26633 53.0710678,20.8284271 L50.2015588,23.6994991 C50.3960044,24.1251958 50.5759551,24.5589021 50.7407797,24.9999867 L54,25 C56.209139,25 58,26.790861 58,29 L58,35 C58,37.209139 56.209139,39 54,39 L50.7404055,39.0010145 C50.5756828,39.4417543 50.3958573,39.8751263 50.2015588,40.3005009 L53.0710678,43.1715729 C54.633165,44.73367 54.633165,47.26633 53.0710678,48.8284271 L48.8284271,53.0710678 C47.26633,54.633165 44.73367,54.633165 43.1715729,53.0710678 L40.3005009,50.2015588 C39.8751263,50.3958573 39.4417543,50.5756828 39.0010145,50.7404055 L39,54 C39,56.209139 37.209139,58 35,58 L29,58 C26.790861,58 25,56.209139 25,54 L24.9999867,50.7407797 C24.5589021,50.5759551 24.1251958,50.3960044 23.6994991,50.2015588 L20.8284271,53.0710678 C19.26633,54.633165 16.73367,54.633165 15.1715729,53.0710678 L10.9289322,48.8284271 C9.36683502,47.26633 9.36683502,44.73367 10.9289322,43.1715729 L13.798896,40.3014966 C13.6044233,39.8758026 13.4244457,39.4420981 13.2595945,39.0010145 L10,39 C7.790861,39 6,37.209139 6,35 L6,29 C6,26.790861 7.790861,25 10,25 L13.2592203,24.9999867 C13.4241734,24.5585582 13.6042762,24.1245195 13.798896,23.6985034 L10.9289322,20.8284271 C9.36683502,19.26633 9.36683502,16.73367 10.9289322,15.1715729 L15.1715729,10.9289322 C16.73367,9.36683502 19.26633,9.36683502 20.8284271,10.9289322 L23.6985034,13.798896 C24.1245195,13.6042762 24.5585582,13.4241734 24.9999867,13.2592203 L25,10 C25,7.790861 26.790861,6 29,6 L35,6 Z M33,10 L31,10 L30.8507377,10.0054857 C29.8158778,10.0818349 29,10.9456382 29,12 L29,12 L29.000191,16.2807553 C26.8120075,16.6958113 24.781551,17.5564582 23.0067691,18.7647486 L19.4142136,15.1715729 L19.2869988,15.0547401 C18.5012114,14.3926879 17.3257272,14.4316321 16.5857864,15.1715729 L16.5857864,15.1715729 L15.1715729,16.5857864 L15.0547401,16.7130012 C14.3926879,17.4987886 14.4316321,18.6742728 15.1715729,19.4142136 L15.1715729,19.4142136 L18.7647486,23.0067691 C17.5564582,24.781551 16.6958113,26.8120075 16.2807553,29.000191 L12,29 L11.8507377,29.0054857 C10.8158778,29.0818349 10,29.9456382 10,31 L10,31 L10,33 L10.0054857,33.1492623 C10.0818349,34.1841222 10.9456382,35 12,35 L12,35 L16.2809445,35.000806 C16.6960727,37.1886093 17.5566417,39.2187185 18.7647486,40.9932309 L15.1715729,44.5857864 L15.0547401,44.7130012 C14.3926879,45.4987886 14.4316321,46.6742728 15.1715729,47.4142136 L15.1715729,47.4142136 L16.5857864,48.8284271 L16.7130012,48.9452599 C17.4987886,49.6073121 18.6742728,49.5683679 19.4142136,48.8284271 L19.4142136,48.8284271 L23.0067691,45.2352514 C24.781551,46.4435418 26.8120075,47.3041887 29.000191,47.7192447 L29,52 L29.0054857,52.1492623 C29.0818349,53.1841222 29.9456382,54 31,54 L31,54 L33,54 L33.1492623,53.9945143 C34.1841222,53.9181651 35,53.0543618 35,52 L35,52 L35.000806,47.7190555 C37.1886093,47.3039273 39.2187185,46.4433583 40.9932309,45.2352514 L44.5857864,48.8284271 L44.7130012,48.9452599 C45.4987886,49.6073121 46.6742728,49.5683679 47.4142136,48.8284271 L47.4142136,48.8284271 L48.8284271,47.4142136 L48.9452599,47.2869988 C49.6073121,46.5012114 49.5683679,45.3257272 48.8284271,44.5857864 L48.8284271,44.5857864 L45.2352514,40.9932309 C46.4433583,39.2187185 47.3039273,37.1886093 47.7190555,35.000806 L52,35 L52.1492623,34.9945143 C53.1841222,34.9181651 54,34.0543618 54,33 L54,33 L54,31 L53.9945143,30.8507377 C53.9181651,29.8158778 53.0543618,29 52,29 L52,29 L47.7192447,29.000191 C47.3041887,26.8120075 46.4435418,24.781551 45.2352514,23.0067691 L48.8284271,19.4142136 L48.9452599,19.2869988 C49.6073121,18.5012114 49.5683679,17.3257272 48.8284271,16.5857864 L48.8284271,16.5857864 L47.4142136,15.1715729 L47.2869988,15.0547401 C46.5012114,14.3926879 45.3257272,14.4316321 44.5857864,15.1715729 L44.5857864,15.1715729 L40.9932309,18.7647486 C39.2187185,17.5566417 37.1886093,16.6960727 35.000806,16.2809445 L35,12 L34.9945143,11.8507377 C34.9181651,10.8158778 34.0543618,10 33,10 L33,10 Z M32,22 C37.5228475,22 42,26.4771525 42,32 C42,37.5228475 37.5228475,42 32,42 C26.4771525,42 22,37.5228475 22,32 C22,26.4771525 26.4771525,22 32,22 Z M32,26 C28.6862915,26 26,28.6862915 26,32 C26,35.3137085 28.6862915,38 32,38 C35.3137085,38 38,35.3137085 38,32 C38,28.6862915 35.3137085,26 32,26 Z" id="Oval-2" fill="#FFFFFF" fill-rule="nonzero"></path>
            <rect id="Rectangle" x="0" y="0" width="64" height="64"></rect>
        </g>
    </g>
</svg>