<?xml version="1.0" encoding="UTF-8"?>
<svg width="64px" height="64px" viewBox="0 0 64 64" version="1.1" xmlns="http://www.w3.org/2000/svg" xmlns:xlink="http://www.w3.org/1999/xlink">
    <title>icon/vision copy</title>
    <g id="icon/vision-copy" stroke="none" stroke-width="1" fill="none" fill-rule="evenodd">
        <g id="Group">
            <path d="M47,6 C48.5965878,6 49.5293659,7.76576945 48.6870892,9.07481823 L48.6,9.2 L46.5,12 L48.6,14.8 C49.5579527,16.0772702 48.705004,17.8829544 47.1523989,17.9945623 L47,18 L33.9993721,18 L33.9993721,21.076 L55.9915151,54.9100233 C56.5934927,55.8361425 56.3307239,57.0749097 55.4046046,57.6768872 C55.0801841,57.8877606 54.7015597,58 54.3146279,58 L9.68537209,58 C8.58080259,58 7.68537209,57.1045695 7.68537209,56 C7.68537209,55.6130682 7.79761152,55.2344438 8.00848486,54.9100233 L29.9993721,21.076 L30,8 C30,6.8954305 30.8954305,6 32,6 L47,6 Z M23.5333721,38.362 L13.37,54 L50.629,54 L40.4643721,38.363 L37.4142136,41.4142136 C36.6742728,42.1541543 35.4987886,42.1930986 34.7130012,41.5310463 L34.5857864,41.4142136 L32,38.829 L29.4142136,41.4142136 C28.6742728,42.1541543 27.4987886,42.1930986 26.7130012,41.5310463 L26.5857864,41.4142136 L23.5333721,38.362 Z M32,25.338 L25.7623721,34.934 L28,37.171 L30.5857864,34.5857864 C31.3257272,33.8458457 32.5012114,33.8069014 33.2869988,34.4689537 L33.4142136,34.5857864 L36,37.171 L38.2363721,34.934 L32,25.338 Z M33.9993721,14 L43,14 L42.4,13.2 C41.9022222,12.5362963 41.869037,11.6402963 42.3004444,10.9456198 L42.4,10.8 L43,10 L33.9993721,10 L33.9993721,14 Z" id="Combined-Shape" fill="#FFFFFF" fill-rule="nonzero"></path>
            <rect id="Rectangle" x="0" y="0" width="64" height="64"></rect>
        </g>
    </g>
</svg>