<?xml version="1.0" standalone="no"?>
<!DOCTYPE svg PUBLIC "-//W3C//DTD SVG 1.1//EN" "http://www.w3.org/Graphics/SVG/1.1/DTD/svg11.dtd" >
<svg xmlns="http://www.w3.org/2000/svg" xmlns:xlink="http://www.w3.org/1999/xlink" version="1.1">
<metadata></metadata>
<defs>
<font id="sfns_displayregular" horiz-adv-x="1239" >
<font-face units-per-em="2048" ascent="1638" descent="-410" />
<missing-glyph horiz-adv-x="490" />
<glyph horiz-adv-x="0" />
<glyph unicode="&#xd;" horiz-adv-x="0" />
<glyph unicode=" "  horiz-adv-x="490" />
<glyph unicode="&#x09;" horiz-adv-x="490" />
<glyph unicode="&#xa0;" horiz-adv-x="490" />
<glyph unicode="!" horiz-adv-x="546" d="M159 104q0 24 9 45t24 36.5t36 24t45 8.5q49 0 81.5 -32.5t32.5 -81.5q0 -24 -8.5 -45t-24 -36t-36.5 -24t-45 -9t-45 9t-36 24t-24 36t-9 45zM183 1443h180l-12 -964h-156z" />
<glyph unicode="&#x22;" horiz-adv-x="807" d="M135 934v509h160v-509h-160zM512 934v509h160v-509h-160z" />
<glyph unicode="#" horiz-adv-x="1206" d="M36 413l28 144h219l69 344h-205l29 143h205l83 399h142l-80 -399h306l83 399h143l-82 -399h231l-28 -143h-233l-71 -344h219l-28 -144h-220l-84 -413h-143l84 413h-308l-84 -413h-142l83 413h-216zM423 554h310l71 349h-310z" />
<glyph unicode="$" d="M105 395h171q8 -101 81 -164.5t197 -78.5v520l-80 22q-161 42 -247.5 137.5t-86.5 235.5q0 82 29 150t82.5 119t130 83t172.5 41v140h134v-139q94 -8 170.5 -40t131 -83t85.5 -119.5t34 -149.5h-170q-2 46 -20.5 86.5t-51 71.5t-78.5 51.5t-101 27.5v-489l85 -21 q184 -49 272.5 -142.5t88.5 -245.5q0 -89 -30 -161t-87.5 -124.5t-140.5 -84t-188 -40.5v-135h-134v134q-101 7 -184 39t-141.5 84t-91 121.5t-32.5 153.5zM312 1077q0 -90 61.5 -148t180.5 -83v460q-53 -3 -97 -21.5t-76.5 -49t-50.5 -71t-18 -87.5zM688 149q131 7 202 71 t71 174q0 99 -65.5 160t-207.5 91v-496z" />
<glyph unicode="%" horiz-adv-x="1508" d="M50 1102q0 81 21.5 147.5t61.5 113.5t95.5 72.5t124.5 25.5t124.5 -25.5t95 -72.5t61 -113.5t21.5 -147.5q0 -82 -21.5 -148.5t-61 -113.5t-95 -72.5t-124.5 -25.5t-124.5 25.5t-95.5 72.5t-61.5 113.5t-21.5 148.5zM137 0l1056 1443h172l-1054 -1443h-174zM210 1102 q0 -55 10 -99t28.5 -75t45 -47.5t59.5 -16.5t59.5 16.5t44.5 47.5t28 75t10 99q0 112 -37 174t-105 62q-66 0 -104.5 -63.5t-38.5 -172.5zM853 344q0 81 21.5 147.5t61.5 113.5t95.5 72.5t124.5 25.5t124.5 -25.5t95 -72.5t61 -113.5t21.5 -147.5q0 -82 -21.5 -148.5 t-61 -113.5t-95 -72.5t-124.5 -25.5t-124.5 25.5t-95.5 72.5t-61.5 113.5t-21.5 148.5zM1013 344q0 -55 10 -99t28.5 -75t45 -47.5t59.5 -16.5t59.5 16.5t44.5 47.5t28 75t10 99q0 112 -37 174t-105 62q-66 0 -104.5 -63.5t-38.5 -172.5z" />
<glyph unicode="&#x26;" horiz-adv-x="1370" d="M82 384q0 128 69.5 226t213.5 174q22 11 35.5 18.5t19.5 9.5q-48 51 -82 95t-55.5 84.5t-31.5 78.5t-10 77q0 69 27.5 127.5t76.5 101t115.5 67t144.5 24.5q79 0 146 -24t116 -67t76 -102t27 -129q0 -55 -17.5 -103.5t-54.5 -93t-96 -87.5t-141 -86l357 -385 q35 66 52 158t17 226v43h166v-44q0 -166 -29.5 -288t-89.5 -216l253 -269h-226l-134 145q-92 -81 -212 -125t-249 -44q-107 0 -196 30t-153 84t-99.5 129t-35.5 165zM260 396q0 -60 23.5 -110t65.5 -85.5t101.5 -55t131.5 -19.5q48 0 96.5 9.5t93 27t83 42t67.5 55.5 l-406 445q-10 -5 -25.5 -13t-22.5 -13q-56 -34 -95.5 -67t-64.5 -67t-36.5 -70.5t-11.5 -78.5zM411 1137q0 -30 8.5 -58.5t26.5 -59.5t47.5 -66t71.5 -77q65 33 110 63.5t73.5 62t41 65t12.5 72.5q0 41 -14 75.5t-40 59t-62 38.5t-80 14q-43 0 -78.5 -14t-61.5 -39 t-40.5 -60t-14.5 -76z" />
<glyph unicode="'" horiz-adv-x="430" d="M135 934v509h160v-509h-160z" />
<glyph unicode="(" horiz-adv-x="636" d="M175 599q0 174 25.5 304.5t66 229.5t90.5 173.5t98 135.5h146q-32 -37 -75 -108.5t-81.5 -177t-65.5 -244.5t-27 -311t25.5 -308t63 -243t80 -187t77.5 -140h-153q-42 52 -89.5 130.5t-87.5 186.5t-66.5 247t-26.5 312z" />
<glyph unicode=")" horiz-adv-x="636" d="M35 1442h146q48 -61 97.5 -135.5t90 -173.5t66.5 -229.5t26 -304.5q0 -173 -26.5 -312t-67 -247t-88 -186.5t-89.5 -130.5h-153q34 60 77 140t80.5 187t63 243t25.5 308t-26.5 311t-65 244.5t-81.5 177t-75 108.5z" />
<glyph unicode="*" horiz-adv-x="988" d="M133 1001l259 132l-259 131l65 118l245 -163l-16 294h134l-16 -294l245 163l65 -118l-258 -131l258 -132l-65 -116l-245 160l16 -291h-134l16 292l-245 -161z" />
<glyph unicode="+" horiz-adv-x="1238" d="M111 488v162h427v447h162v-447h427v-162h-427v-458h-162v458h-427z" />
<glyph unicode="," horiz-adv-x="538" d="M99 -257l100 459h185l-150 -459h-135z" />
<glyph unicode="-" horiz-adv-x="878" d="M111 488v162h656v-162h-656z" />
<glyph unicode="." horiz-adv-x="520" d="M146 104q0 24 9 45t24 36.5t36 24t45 8.5q49 0 81.5 -32.5t32.5 -81.5q0 -24 -8.5 -45t-24 -36t-36.5 -24t-45 -9t-45 9t-36 24t-24 36t-9 45z" />
<glyph unicode="/" horiz-adv-x="590" d="M0 -329l441 1773h149l-444 -1773h-146z" />
<glyph unicode="0" horiz-adv-x="1242" d="M90 722q0 169 36 307t104.5 235t167 150t224.5 53t224.5 -52.5t166.5 -149.5t103.5 -234.5t35.5 -307.5q0 -171 -35.5 -309t-103.5 -235.5t-166.5 -150t-224.5 -52.5t-225 52.5t-167.5 149.5t-104 235t-35.5 309zM271 723q0 -135 23 -244t67.5 -186t110 -118.5 t150.5 -41.5q84 0 149.5 41.5t109.5 118t67 185.5t23 244q0 133 -23 241.5t-67.5 185t-109.5 118.5t-149 42t-149 -42t-110 -119t-68.5 -185t-23.5 -240z" />
<glyph unicode="1" horiz-adv-x="908" d="M99 977v190l384 276h176v-1443h-174v1252h-4z" />
<glyph unicode="2" horiz-adv-x="1159" d="M108 1026v1q0 94 36 175t100 139.5t151 92t189 33.5q97 0 181 -31t146 -84.5t98 -125.5t36 -155q0 -60 -15 -115.5t-51.5 -116.5t-97 -133t-150.5 -165l-365 -377v-4h703v-160h-952v124l508 535q73 76 119.5 131.5t73.5 100.5t37 84.5t10 84.5q0 52 -22.5 97.5t-61 79.5 t-90.5 53.5t-112 19.5q-63 0 -117.5 -21.5t-94.5 -59.5t-62.5 -90t-22.5 -112v-1h-174z" />
<glyph unicode="3" horiz-adv-x="1212" d="M92 382h173q6 -56 31.5 -102t68 -79t101.5 -51t132 -18q72 0 132 19t103.5 53.5t68 82t24.5 104.5q0 64 -23 115t-66.5 86.5t-105.5 54.5t-139 19h-181v152h173q62 0 114 19t89.5 52.5t58 80t20.5 101.5q0 54 -18 98t-53.5 75.5t-87.5 49t-121 17.5q-62 0 -113.5 -17 t-89 -49t-60.5 -77.5t-29 -102.5h-173q7 92 44 166t98.5 126.5t145 81t185.5 28.5q97 0 179.5 -27.5t143.5 -77t95.5 -118t34.5 -149.5q0 -68 -21 -125.5t-59.5 -102t-93.5 -74t-122 -41.5v-4q82 -5 148 -32t112.5 -72.5t72 -108t25.5 -138.5q0 -93 -39.5 -170.5 t-108.5 -133t-162 -86.5t-199 -31q-113 0 -205 30t-157.5 83.5t-103 128t-42.5 164.5z" />
<glyph unicode="4" d="M78 300v163q46 85 103 180.5t132 212t172.5 260.5t225.5 327h266v-985h204v-158h-204v-300h-174v300h-725zM256 458h547v835h-3q-102 -146 -184 -266t-147.5 -220.5t-117.5 -185t-95 -159.5v-4z" />
<glyph unicode="5" horiz-adv-x="1198" d="M118 394h177q6 -58 32.5 -105.5t68.5 -82t98 -53.5t121 -19q73 0 134.5 24.5t105 68t68 104t24.5 133.5t-24.5 134t-68 105t-104 69t-132.5 25q-102 0 -183 -43t-126 -119h-169l79 808h826v-160h-678l-44 -470h4q49 66 134 102.5t189 36.5t191.5 -36t151 -100.5t99 -153 t35.5 -193.5q0 -109 -38 -199.5t-106 -156t-162.5 -101.5t-207.5 -36q-104 0 -192 30.5t-153.5 86t-104.5 132.5t-45 169z" />
<glyph unicode="6" horiz-adv-x="1226" d="M91 697q0 182 38 325.5t110 242.5t176 151t236 52q92 0 172 -26.5t142.5 -75.5t105 -118t59.5 -154h-183q-15 49 -43 89t-67 68t-86.5 43t-101.5 15q-90 0 -160.5 -39.5t-119.5 -115.5t-75.5 -187.5t-28.5 -255.5h3q24 53 65 96t93.5 74t115 47.5t129.5 16.5 q103 0 191 -36t152 -100t100 -151t36 -190q0 -107 -38 -197.5t-106.5 -156t-162 -102.5t-204.5 -37q-163 0 -286.5 84t-190.5 241q-71 164 -71 397zM308 467q0 -69 25.5 -129.5t69.5 -105.5t104.5 -71t129.5 -26t129 25.5t105 69.5t70.5 104t25.5 128q0 71 -24 130.5 t-67.5 103t-103.5 67.5t-132 24t-132.5 -24t-105 -67t-69.5 -101.5t-25 -127.5z" />
<glyph unicode="7" horiz-adv-x="1120" d="M76 1283v160h955v-167l-642 -1276h-189l653 1279v4h-777z" />
<glyph unicode="8" horiz-adv-x="1227" d="M90 390q0 67 22.5 127.5t63 109.5t97.5 83.5t127 50.5v4q-59 18 -105.5 49.5t-79.5 73t-50.5 92.5t-17.5 108q0 82 35 151.5t97.5 120t147.5 79t186 28.5t186.5 -28.5t147.5 -79t96.5 -120.5t34.5 -152q0 -56 -17.5 -106.5t-50 -92t-79 -73t-105.5 -50.5v-4 q70 -17 127.5 -51.5t98 -83.5t63 -109t22.5 -127q0 -91 -39 -167t-108.5 -131t-165.5 -85.5t-211 -30.5q-114 0 -210 31t-165.5 86t-108.5 131t-39 166zM273 403q0 -59 25.5 -108.5t70.5 -85.5t107.5 -56t136.5 -20q75 0 137.5 20t107.5 56t70 85.5t25 108.5q0 60 -25 109.5 t-70 85.5t-107.5 56t-137.5 20q-74 0 -136.5 -20t-107.5 -56t-70.5 -86t-25.5 -109zM326 1071q0 -53 21 -96.5t59 -75.5t91 -49.5t116 -17.5t115.5 17.5t91 49.5t59.5 75.5t21 96.5t-21 97.5t-59 76.5t-91 49.5t-116 17.5t-116 -18t-91 -50t-59 -76t-21 -97z" />
<glyph unicode="9" horiz-adv-x="1226" d="M76 975q0 107 38 197.5t106.5 156t162 102.5t204.5 37q81 0 153.5 -21.5t133.5 -63t109 -101.5t81 -138q71 -164 71 -398q0 -182 -37.5 -325t-109.5 -242t-176 -151t-236 -52q-92 0 -172.5 26.5t-143 75.5t-105 118t-58.5 154h183q14 -49 42.5 -89t67.5 -68.5t86.5 -44 t101.5 -15.5q90 0 160.5 40t119 117t75 188.5t28.5 255.5h-1h-2q-23 -54 -63 -97.5t-92.5 -74t-115.5 -47.5t-132 -17q-103 0 -191 36t-152 99.5t-100 151t-36 190.5zM258 981q0 -71 24.5 -130.5t68.5 -102.5t104 -67.5t131 -24.5q72 0 133 24t105.5 67t69.5 101.5t25 127.5 t-25.5 129.5t-70 105t-104.5 70t-130 25.5q-69 0 -129.5 -25.5t-105.5 -69.5t-70.5 -103t-25.5 -127z" />
<glyph unicode=":" horiz-adv-x="520" d="M146 104q0 24 9 45t24 36.5t36 24t45 8.5q49 0 81.5 -32.5t32.5 -81.5q0 -24 -8.5 -45t-24 -36t-36.5 -24t-45 -9t-45 9t-36 24t-24 36t-9 45zM146 840q0 24 9 45t24 36.5t36 24t45 8.5q49 0 81.5 -32.5t32.5 -81.5q0 -24 -8.5 -45t-24 -36t-36.5 -24t-45 -9t-45 9 t-36 24t-24 36t-9 45z" />
<glyph unicode=";" horiz-adv-x="520" d="M62 -257l98 459h187l-150 -459h-135zM146 840q0 24 9 45t24 36.5t36 24t45 8.5q49 0 81.5 -32.5t32.5 -81.5q0 -24 -8.5 -45t-24 -36t-36.5 -24t-45 -9t-45 9t-36 24t-24 36t-9 45z" />
<glyph unicode="&#x3c;" d="M180 498v142l879 526v-186l-707 -400v-9l707 -378v-186z" />
<glyph unicode="=" d="M131 301v154h977v-154h-977zM131 684v154h977v-154h-977z" />
<glyph unicode="&#x3e;" d="M180 8v186l707 378v9l-707 400v186l879 -526v-142z" />
<glyph unicode="?" horiz-adv-x="1002" d="M56 1066q4 81 33 151.5t83.5 123t134.5 83t185 30.5q94 0 172.5 -27.5t134 -76t86.5 -115t31 -143.5q0 -118 -56 -202.5t-153 -142.5q-48 -28 -79 -53.5t-50 -53t-26.5 -59t-7.5 -70.5v-65h-175v92q0 49 11.5 91.5t36.5 79.5t63 69.5t89 63.5q43 27 74 52.5t50 54 t28 61.5t9 73q0 46 -17.5 85.5t-49.5 68.5t-77 45t-101 16q-57 0 -102.5 -16t-79 -46t-53 -73t-23.5 -97h-171zM343 104q0 24 9 45t24 36.5t36 24t45 8.5q49 0 81.5 -32.5t32.5 -81.5q0 -24 -8.5 -45t-24 -36t-36.5 -24t-45 -9t-45 9t-36 24t-24 36t-9 45z" />
<glyph unicode="@" horiz-adv-x="1791" d="M98 601q0 187 60.5 341t170 263.5t261.5 169.5t334 60q174 0 321.5 -53t254 -149.5t166.5 -232.5t60 -301q0 -120 -26 -218.5t-74.5 -168t-118 -108t-157.5 -38.5q-43 0 -81.5 12t-68.5 34.5t-50 53t-24 68.5h-8q-32 -76 -98.5 -117.5t-155.5 -41.5q-78 0 -142 30.5 t-110 86.5t-71 134.5t-25 173.5q0 91 25.5 167t71.5 130.5t110 85t141 30.5q40 0 77.5 -10t69.5 -28.5t56.5 -44.5t38.5 -58h8v122h151v-587q0 -49 27.5 -80t85.5 -31q45 0 82.5 27t65.5 78.5t43.5 127t15.5 172.5q0 136 -49.5 248t-138.5 192t-213 124t-273 44 q-146 0 -269 -53t-212.5 -147.5t-140 -225.5t-50.5 -288q0 -170 53.5 -301t148 -220t223 -135t279.5 -46q50 0 99.5 3.5t94 9.5t81 15t60.5 20v-126q-66 -23 -153 -36t-184 -13q-183 0 -337.5 55t-267 161t-175.5 261.5t-63 357.5zM676 596q0 -131 56 -205.5t155 -74.5 q51 0 93 19.5t71 56t45 88.5t16 116t-15.5 115.5t-45 88t-70.5 56t-92 19.5q-101 0 -157 -73.5t-56 -205.5z" />
<glyph unicode="A" horiz-adv-x="1292" d="M25 0l532 1443h178l532 -1443h-189l-145 413h-574l-145 -413h-189zM412 566h468l-231 658h-6z" />
<glyph unicode="B" horiz-adv-x="1256" d="M140 0v1443h565q93 0 169 -26t130.5 -73t84.5 -113.5t30 -147.5q0 -56 -19.5 -109t-53 -95.5t-79 -72t-97.5 -38.5v-8q73 -9 132.5 -39t101.5 -76t65 -107t23 -133q0 -95 -33 -170.5t-96 -127.5t-154 -79.5t-206 -27.5h-563zM320 159h356q164 0 247.5 64.5t83.5 190.5 t-87 189t-261 63h-339v-507zM320 821h288q161 0 245 61.5t84 179.5q0 108 -70.5 165t-202.5 57h-344v-463z" />
<glyph unicode="C" horiz-adv-x="1405" d="M84 722q0 170 46 307.5t131 235t205 150t268 52.5q118 0 219.5 -34.5t180.5 -97t130.5 -151t68.5 -196.5h-182q-17 71 -55.5 128.5t-93 98.5t-123 63.5t-145.5 22.5q-106 0 -192 -41t-146.5 -117t-93.5 -182.5t-33 -238.5q0 -133 32.5 -240t93.5 -182.5t147 -116.5 t193 -41q79 0 147 18.5t121 54.5t90.5 87.5t57.5 117.5h182q-50 -215 -204 -329.5t-395 -114.5q-149 0 -269.5 52.5t-205 149.5t-130 235t-45.5 309z" />
<glyph unicode="D" horiz-adv-x="1399" d="M140 0v1443h495q160 0 286.5 -49t214.5 -141.5t134 -226.5t46 -304q0 -171 -46 -305t-133.5 -226.5t-214 -141.5t-287.5 -49h-495zM320 162h303q123 0 217.5 37t159.5 108t98.5 175t33.5 238q0 135 -33.5 240t-98 176t-159.5 108t-218 37h-303v-1119z" />
<glyph unicode="E" horiz-adv-x="1131" d="M140 0v1443h894v-162h-714v-463h677v-160h-677v-496h714v-162h-894z" />
<glyph unicode="F" horiz-adv-x="1081" d="M140 0v1443h876v-162h-696v-496h639v-160h-639v-625h-180z" />
<glyph unicode="G" horiz-adv-x="1447" d="M84 729q0 169 46.5 305.5t132.5 232.5t208 148t274 52q117 0 218 -33.5t180 -95t132 -148.5t73 -195h-189q-23 73 -61.5 130t-91.5 96t-119 59.5t-142 20.5q-111 0 -199.5 -39t-150 -112.5t-94 -179.5t-32.5 -240q0 -136 33 -245t94.5 -185t150 -117t198.5 -41 q96 0 175.5 29.5t136.5 83.5t88.5 129t31.5 166v26h-407v158h587v-137q0 -146 -41.5 -261.5t-120 -195.5t-192.5 -122t-258 -42q-151 0 -273 53t-208.5 151.5t-133 237.5t-46.5 311z" />
<glyph unicode="H" horiz-adv-x="1432" d="M140 0v1443h180v-624h792v624h180v-1443h-180v657h-792v-657h-180z" />
<glyph unicode="I" horiz-adv-x="460" d="M140 0v1443h180v-1443h-180z" />
<glyph unicode="J" horiz-adv-x="1014" d="M42 339h179q1 -46 18.5 -84t47.5 -65.5t71.5 -42.5t90.5 -15q120 0 182.5 69t62.5 202v1040h180v-1041q0 -103 -29 -184t-83.5 -137t-133 -85.5t-178.5 -29.5q-90 0 -165 27.5t-129 77t-84 118t-30 150.5z" />
<glyph unicode="K" horiz-adv-x="1260" d="M140 0v1443h180v-704h10l637 704h227l-593 -639l646 -804h-230l-541 676l-156 -172v-504h-180z" />
<glyph unicode="L" horiz-adv-x="1074" d="M140 0v1443h180v-1281h696v-162h-876z" />
<glyph unicode="M" horiz-adv-x="1702" d="M140 0v1443h209l498 -1204h8l498 1204h209v-1443h-168v1112h-7l-460 -1102h-152l-460 1102h-7v-1112h-168z" />
<glyph unicode="N" horiz-adv-x="1432" d="M140 0v1443h175l790 -1133h9v1133h178v-1443h-175l-790 1129h-9v-1129h-178z" />
<glyph unicode="O" horiz-adv-x="1498" d="M84 721q0 172 46.5 310t132.5 235t209.5 149t276.5 52t276.5 -52t209.5 -149t132.5 -235t46.5 -310t-46.5 -310t-132.5 -234.5t-209.5 -148.5t-276.5 -52t-276.5 52t-209.5 148.5t-132.5 234.5t-46.5 310zM269 721q0 -133 33.5 -240t96 -182.5t151 -116t199.5 -40.5 t199.5 40.5t151 116t96 182.5t33.5 240t-33.5 240.5t-96 183t-151 116t-199.5 40.5t-199.5 -40.5t-151 -116t-96 -183t-33.5 -240.5z" />
<glyph unicode="P" horiz-adv-x="1213" d="M140 0v1443h545q102 0 186.5 -34t146 -95t95.5 -146.5t34 -187.5q0 -103 -34.5 -188.5t-96 -147t-146.5 -95.5t-187 -34h-363v-515h-180zM320 675h318q77 0 137.5 20.5t102 60t63 96t21.5 128.5q0 144 -84 223.5t-240 79.5h-318v-608z" />
<glyph unicode="Q" horiz-adv-x="1498" d="M84 721q0 172 46.5 310t132.5 235t209.5 149t276.5 52t276.5 -52t209.5 -149t132.5 -235t46.5 -310q0 -211 -68 -368.5t-194 -252.5l191 -263h-202l-134 184q-116 -45 -258 -45q-153 0 -276.5 52t-209.5 148.5t-132.5 234.5t-46.5 310zM269 721q0 -133 33.5 -240 t96 -182.5t151 -116t199.5 -40.5q81 0 153 23l-180 248h202l123 -168q88 74 135 195t47 281q0 133 -33.5 240.5t-96 183t-151 116t-199.5 40.5t-199.5 -40.5t-151 -116t-96 -183t-33.5 -240.5z" />
<glyph unicode="R" horiz-adv-x="1237" d="M140 0v1443h551q104 0 189 -30.5t145 -87t93 -136t33 -176.5q0 -75 -20 -141.5t-57.5 -119.5t-91 -92.5t-121.5 -60.5l334 -599h-211l-309 571h-355v-571h-180zM320 730h355q140 0 215 71.5t75 205.5q0 65 -20.5 116t-59 86.5t-93.5 54.5t-125 19h-347v-553z" />
<glyph unicode="S" horiz-adv-x="1216" d="M71 397h181q6 -59 36 -106.5t78.5 -81.5t114 -52.5t142.5 -18.5q73 0 135 18.5t107 51t70 77.5t25 98q0 91 -67 150t-212 97l-185 48q-100 25 -172.5 60.5t-119.5 82t-69.5 105.5t-22.5 133q0 90 37.5 165t105 129t161 84t206.5 30q108 0 198.5 -30.5t157.5 -85 t105.5 -130t41.5 -166.5h-180q-6 58 -31.5 104.5t-68.5 78.5t-101 49.5t-128 17.5t-128.5 -17.5t-100.5 -49t-65 -75t-23 -96.5q0 -41 15.5 -74t49 -60t85.5 -49.5t126 -41.5l151 -40q112 -28 191.5 -64.5t130.5 -84.5t74.5 -109t23.5 -139q0 -99 -37.5 -178.5t-108 -135 t-170.5 -85.5t-224 -30q-115 0 -210.5 30t-165.5 85t-111.5 132.5t-47.5 173.5z" />
<glyph unicode="T" horiz-adv-x="1210" d="M50 1281v162h1110v-162h-465v-1281h-180v1281h-465z" />
<glyph unicode="U" horiz-adv-x="1426" d="M140 506v937h180v-925q0 -82 26 -151t76.5 -119t123.5 -78t167 -28t167 28t123 78t76.5 119t26.5 151v925h180v-937q0 -116 -39 -213t-113 -167.5t-180.5 -110t-240.5 -39.5t-240.5 39.5t-180.5 110t-113 167.5t-39 213z" />
<glyph unicode="V" horiz-adv-x="1292" d="M25 1443h189l429 -1224h6l429 1224h189l-532 -1443h-178z" />
<glyph unicode="W" horiz-adv-x="1892" d="M45 1443h188l289 -1178h8l325 1178h182l325 -1178h8l289 1178h188l-393 -1443h-170l-333 1145h-10l-333 -1145h-170z" />
<glyph unicode="X" horiz-adv-x="1300" d="M45 0l491 723v7l-485 713h217l385 -580h7l390 580h205l-498 -722v-6l487 -715h-216l-383 575h-7l-389 -575h-204z" />
<glyph unicode="Y" horiz-adv-x="1254" d="M25 1443h205l394 -648h6l394 648h205l-512 -822v-621h-180v621z" />
<glyph unicode="Z" horiz-adv-x="1263" d="M98 0v128l823 1146v7h-795v162h1022v-128l-819 -1146v-7h836v-162h-1067z" />
<glyph unicode="[" horiz-adv-x="664" d="M205 -240v1684h452v-136h-284v-1413h296v-135h-464z" />
<glyph unicode="\" horiz-adv-x="590" d="M0 1444h149l441 -1773h-146z" />
<glyph unicode="]" horiz-adv-x="664" d="M-5 -105h297v1413h-284v136h451v-1684h-464v135z" />
<glyph unicode="^" horiz-adv-x="896" d="M55 816l298 627h190l298 -627h-167l-218 475h-16l-218 -475h-167z" />
<glyph unicode="_" horiz-adv-x="828" d="M-54 -107h936v-128h-936v128z" />
<glyph unicode="`" horiz-adv-x="1005" d="M296 1550h198l211 -300h-148z" />
<glyph unicode="a" horiz-adv-x="1062" d="M69 307q0 140 103 219t301 91l302 18v90q0 101 -63.5 154.5t-183.5 53.5q-47 0 -87 -11.5t-71.5 -33t-52 -52.5t-28.5 -69h-167q2 68 34 127t87 102t128.5 67.5t158.5 24.5q96 0 173 -24.5t132 -70t84.5 -110t29.5 -143.5v-740h-165v187h-4q-23 -45 -59 -81.5t-81 -62 t-97.5 -39.5t-109.5 -14q-82 0 -149 22.5t-115 64t-74 100t-26 130.5zM247 306q0 -38 15.5 -68t45 -52t70.5 -33.5t92 -11.5q66 0 122 20t96.5 56t63.5 85.5t23 107.5v87l-282 -18q-122 -8 -184 -51.5t-62 -121.5z" />
<glyph unicode="b" horiz-adv-x="1173" d="M128 0v1506h174v-603h4q51 89 141 137t205 48q102 0 186 -39.5t144 -111.5t93 -173.5t33 -224.5q0 -124 -33 -225t-93.5 -173t-145.5 -111.5t-188 -39.5q-118 0 -208 49t-143 143h-4v-182h-165zM301 539q0 -88 23 -160.5t64.5 -124.5t99.5 -80.5t129 -28.5t128.5 28 t98.5 79t63.5 124t22.5 163t-22.5 162.5t-63.5 124t-98.5 79.5t-128.5 28t-129 -29t-99.5 -81t-64.5 -124.5t-23 -159.5z" />
<glyph unicode="c" horiz-adv-x="1060" d="M65 539q0 124 35.5 225.5t100 173.5t155 111t201.5 39q100 0 180 -30t138 -80t92 -115t42 -136h-171q-8 43 -30 80.5t-57.5 65.5t-83.5 44t-109 16q-71 0 -129 -28t-99.5 -79.5t-64.5 -124.5t-23 -162q0 -92 23 -165t65 -124t100.5 -78t129.5 -27q113 0 185 51t95 149 h171q-11 -79 -48.5 -144t-96.5 -112t-137 -73t-170 -26q-111 0 -202 38t-156 109.5t-100.5 173t-35.5 228.5z" />
<glyph unicode="d" horiz-adv-x="1173" d="M65 539q0 123 34 224.5t94.5 173.5t144.5 111.5t185 39.5q116 0 205 -48t139 -137h4v603h174v-1506h-166v182h-3q-53 -94 -142 -143t-207 -49q-102 0 -186.5 39.5t-146 111.5t-95.5 173.5t-34 224.5zM243 539q0 -90 22.5 -162.5t64 -124t99.5 -79.5t129 -28 q70 0 128 28.5t99 80.5t64 124.5t23 160.5t-23 160.5t-64 124.5t-99 80.5t-128 28.5q-71 0 -129 -28t-99.5 -79.5t-64 -124.5t-22.5 -162z" />
<glyph unicode="e" horiz-adv-x="1084" d="M65 535q0 125 34.5 227t98 174.5t153.5 112t200 39.5q108 0 194.5 -37t147.5 -105.5t93.5 -166.5t32.5 -220v-68h-774v-10q0 -77 22.5 -139.5t64.5 -106.5t100.5 -68t130.5 -24q51 0 95 11.5t79.5 33t60 52t36.5 68.5h172q-11 -69 -50 -127.5t-98.5 -101t-136 -66 t-162.5 -23.5q-114 0 -205 38t-155.5 109t-99 172t-34.5 226zM245 630h593q-2 69 -23.5 125t-59.5 96t-90.5 62t-116.5 22q-63 0 -117 -22t-93.5 -62t-64 -96.5t-28.5 -124.5z" />
<glyph unicode="f" horiz-adv-x="629" d="M25 934v144h150v100q0 149 68.5 218.5t218.5 69.5q26 0 49 -2t48 -7v-144q-17 4 -39 6t-42 2q-68 0 -98 -33.5t-31 -109.5v-100h210v-144h-210v-934h-174v934h-150z" />
<glyph unicode="g" horiz-adv-x="1163" d="M65 543q0 123 33 224t93 172t145 110t189 39q115 0 206 -48t145 -137h3v175h166v-1048q0 -97 -33.5 -174t-96.5 -130.5t-153.5 -82t-204.5 -28.5q-92 0 -169.5 21t-136 60t-95 94t-45.5 122h181q10 -34 34 -61t60 -46t82 -29t99 -10q70 0 126 17.5t95.5 50t61 79 t21.5 103.5v169h-4q-51 -88 -141.5 -136.5t-204.5 -48.5q-102 0 -186 39t-144 110t-93 171.5t-33 222.5zM243 543q0 -88 22 -159.5t63 -122.5t98 -78.5t128 -27.5t129.5 28t100 79t64.5 122.5t23 158.5t-23 159t-64.5 123t-100 79.5t-129.5 28.5t-128 -28t-98 -79t-63 -123 t-22 -160z" />
<glyph unicode="h" horiz-adv-x="1166" d="M128 0v1506h174v-603h4q102 185 352 185q88 0 161 -29t125 -81.5t80.5 -126t28.5 -163.5v-688h-174v657q0 64 -18.5 115.5t-54 87t-86 54.5t-114.5 19q-68 0 -124 -22.5t-96 -63.5t-62 -98.5t-22 -128.5v-620h-174z" />
<glyph unicode="i" horiz-adv-x="430" d="M105 1362q0 23 8.5 43t23.5 35t35 23.5t43 8.5t43 -8.5t35 -23.5t23.5 -35t8.5 -43t-8.5 -43t-23.5 -35t-35 -23.5t-43 -8.5t-43 8.5t-35 23.5t-23.5 35t-8.5 43zM128 0v1078h174v-1078h-174z" />
<glyph unicode="j" horiz-adv-x="430" d="M-60 -251h27q44 0 75 9t50 29t27.5 51.5t8.5 77.5v1162h174v-1159q0 -164 -79.5 -240.5t-251.5 -76.5h-31v147zM105 1362q0 23 8.5 43t23.5 35t35 23.5t43 8.5t43 -8.5t35 -23.5t23.5 -35t8.5 -43t-8.5 -43t-23.5 -35t-35 -23.5t-43 -8.5t-43 8.5t-35 23.5t-23.5 35 t-8.5 43z" />
<glyph unicode="k" horiz-adv-x="1026" d="M128 0v1506h174v-910l483 482h212l-471 -466l485 -612h-202l-405 505l-102 -96v-409h-174z" />
<glyph unicode="l" horiz-adv-x="430" d="M128 0v1506h174v-1506h-174z" />
<glyph unicode="m" horiz-adv-x="1701" d="M118 0v1078h164v-175h4q19 43 49.5 77.5t70 58.5t86.5 36.5t100 12.5q110 0 188.5 -53t113.5 -151h4q46 97 135.5 150.5t203.5 53.5q80 0 145 -25t110.5 -71t70.5 -111t25 -145v-736h-174v696q0 112 -59 174.5t-168 62.5q-54 0 -99.5 -19t-78 -53t-51 -81t-18.5 -102 v-678h-174v717q0 49 -16 88.5t-45.5 68t-70.5 44t-92 15.5q-54 0 -100 -20t-79 -55.5t-52 -83.5t-19 -105v-669h-174z" />
<glyph unicode="n" horiz-adv-x="1135" d="M118 0v1078h164v-175h4q103 185 352 185q89 0 160 -27.5t121 -79t76.5 -125t26.5 -165.5v-691h-174v661q0 133 -67 202.5t-195 69.5q-66 0 -120.5 -22t-93 -62t-59.5 -97t-21 -126v-626h-174z" />
<glyph unicode="o" horiz-adv-x="1124" d="M65 539q0 126 35 227.5t100 173t156.5 110t205.5 38.5t205.5 -38.5t156.5 -110t100 -173t35 -227.5q0 -125 -35 -226.5t-100 -173t-156.5 -110.5t-205.5 -39t-205.5 39t-156.5 110.5t-100 173t-35 226.5zM242 539q0 -93 22 -166t63 -123.5t100.5 -77.5t134.5 -27 t134.5 27t101 77.5t63 123.5t21.5 166t-21.5 166t-63 124t-101 77.5t-134.5 26.5t-134.5 -27t-101 -77.5t-63 -123.5t-21.5 -166z" />
<glyph unicode="p" horiz-adv-x="1163" d="M118 -360v1438h165v-175h4q24 42 60.5 76t82 58.5t98 37.5t108.5 13q103 0 188 -39.5t146 -111.5t94.5 -173.5t33.5 -224.5t-33.5 -224.5t-93.5 -173.5t-144.5 -111.5t-186.5 -39.5q-115 0 -204 48t-140 137h-4v-535h-174zM291 539q0 -88 22.5 -160.5t64 -124.5t99 -80.5 t127.5 -28.5q71 0 129.5 28t100 79.5t64 124t22.5 162.5q0 89 -22.5 162t-64 124.5t-100 79.5t-129.5 28q-70 0 -127.5 -28.5t-99 -80.5t-64 -124.5t-22.5 -160.5z" />
<glyph unicode="q" horiz-adv-x="1163" d="M65 539q0 124 33 225t93.5 173t145.5 111.5t188 39.5q118 0 208.5 -47.5t142.5 -137.5h3v175h166v-1438h-174v535h-4q-51 -89 -141 -137t-205 -48q-102 0 -186 39.5t-144 111.5t-93 173.5t-33 224.5zM243 539q0 -90 22 -163t63 -124t98 -79t128 -28q70 0 128.5 28.5 t100.5 80.5t65 124.5t23 160.5q0 87 -23 159.5t-65 124.5t-100.5 81t-128.5 29q-71 0 -128 -28t-98 -79.5t-63 -124t-22 -162.5z" />
<glyph unicode="r" horiz-adv-x="649" d="M118 0v1078h164v-175h4q12 42 36.5 76.5t58.5 58.5t76.5 37t89.5 13q16 0 36 -2t31 -5v-172q-11 5 -39 8.5t-51 3.5q-53 0 -95.5 -18.5t-73 -51.5t-47 -80t-16.5 -104v-667h-174z" />
<glyph unicode="s" horiz-adv-x="984" d="M70 303h175q14 -83 78.5 -126t175.5 -43q55 0 99.5 11t75.5 31.5t47.5 50t16.5 65.5q0 57 -38 90.5t-130 57.5l-189 49q-281 73 -281 288q0 68 29.5 125t82.5 98t126 64t161 23q82 0 152.5 -23t123 -64.5t83 -98t33.5 -122.5h-167q-8 76 -70 120t-161 44q-50 0 -91 -11.5 t-70 -32t-45 -49.5t-16 -64q0 -55 44 -92.5t138 -60.5l164 -41q82 -21 138.5 -46.5t91.5 -59.5t50.5 -78.5t15.5 -103.5q0 -69 -31.5 -126.5t-88 -99.5t-135 -65t-171.5 -23q-87 0 -160.5 22.5t-128.5 64t-88.5 99t-39.5 127.5z" />
<glyph unicode="t" horiz-adv-x="634" d="M25 934v144h150v243h174v-243h210v-144h-210v-647q0 -75 32.5 -109.5t101.5 -34.5q8 0 19 0.5l22 1t20 1.5t14 2v-147q-16 -4 -48.5 -6.5t-63.5 -2.5q-73 0 -124.5 16t-84 50.5t-47.5 89t-15 132.5v654h-150z" />
<glyph unicode="u" horiz-adv-x="1135" d="M113 387v691h174v-661q0 -134 67 -203t195 -69q66 0 120.5 22t93 62t59.5 97t21 126v626h174v-1078h-164v178h-4q-51 -94 -139.5 -141t-213.5 -47q-89 0 -159.5 27.5t-120.5 79t-76.5 125t-26.5 165.5z" />
<glyph unicode="v" horiz-adv-x="1022" d="M25 1078h182l302 -890h4l303 890h181l-398 -1078h-176z" />
<glyph unicode="w" horiz-adv-x="1512" d="M30 1078h172l219 -881h4l247 881h168l247 -881h4l219 881h172l-302 -1078h-176l-246 838h-4l-246 -838h-176z" />
<glyph unicode="x" horiz-adv-x="991" d="M35 0l369 539l-363 539h194l263 -407h4l260 407h194l-365 -532l360 -546h-194l-261 413h-4l-263 -413h-194z" />
<glyph unicode="y" horiz-adv-x="1026" d="M25 1078h185l302 -901h4l302 901h183l-422 -1144q-35 -94 -70 -156.5t-77.5 -100t-96 -53t-125.5 -15.5q-17 0 -38.5 2t-37.5 5v147q15 -3 34.5 -4.5t36.5 -1.5q37 0 66.5 9.5t53.5 30.5t42.5 55t35.5 83l21 64z" />
<glyph unicode="z" horiz-adv-x="990" d="M95 0v126l601 805v3h-600v144h796v-129l-597 -802v-3h600v-144h-800z" />
<glyph unicode="{" horiz-adv-x="734" d="M148 519v191q50 0 84 11t55 35.5t30 65.5t9 101v255q0 176 93.5 260t289.5 84h60v-141h-45q-63 0 -107 -12.5t-72.5 -40t-41.5 -70t-13 -102.5v-296q0 -216 -179 -234v-25q179 -17 179 -236v-334q0 -59 13.5 -101.5t42 -69.5t72.5 -40t106 -13h45v-141h-60 q-195 0 -289 86.5t-94 266.5v289q0 59 -9 99.5t-30 65t-55 35.5t-84 11z" />
<glyph unicode="|" horiz-adv-x="446" d="M150 -326v1769h146v-1769h-146z" />
<glyph unicode="}" horiz-adv-x="734" d="M-35 -193h45q62 0 106 13t72.5 40t42 69.5t13.5 101.5v334q0 219 179 236v25q-179 18 -179 234v296q0 60 -13 102.5t-41.5 70t-72.5 40t-107 12.5h-45v141h60q196 0 289.5 -84t93.5 -260v-255q0 -60 9 -101t30 -65.5t55 -35.5t84 -11v-191q-50 0 -84 -11t-55 -35.5 t-30 -65t-9 -99.5v-289q0 -180 -94 -266.5t-289 -86.5h-60v141z" />
<glyph unicode="~" d="M114 558q0 80 20.5 143.5t60 108t96.5 68.5t128 24q64 0 123 -30t124 -95q52 -55 88 -77.5t70 -22.5q131 0 142 179h159q0 -80 -20.5 -143.5t-60 -108t-96 -68.5t-127.5 -24q-64 0 -122.5 29.5t-123.5 94.5q-54 55 -90 78t-70 23q-130 0 -141 -179h-160z" />
<glyph unicode="&#xa1;" horiz-adv-x="546" d="M159 999q0 24 9 45t24 36.5t36 24t45 8.5q49 0 81.5 -32.5t32.5 -81.5q0 -24 -8.5 -45t-24 -36t-36.5 -24t-45 -9t-45 9t-36 24t-24 36t-9 45zM183 -342l12 964h156l12 -964h-180z" />
<glyph unicode="&#xa2;" d="M114 725q0 110 30.5 203.5t87 165t136.5 117.5t179 61v171h172v-169q83 -9 155 -42t126 -83t87 -114t38 -135h-174q-11 52 -38 93.5t-68 70.5t-94 44.5t-115 15.5q-76 0 -139.5 -29.5t-109 -82.5t-70.5 -126t-25 -161q0 -89 25.5 -163.5t71 -128.5t108.5 -84t139 -30 q129 0 211 51t104 168h174q-9 -74 -42 -137.5t-86.5 -112t-124 -79.5t-153.5 -40v-169h-172v171q-99 15 -179.5 62t-136.5 119t-86.5 167t-30.5 206z" />
<glyph unicode="&#xa3;" d="M98 0v152q66 15 122.5 49t98 80.5t64.5 103t23 116.5q0 38 -6.5 76t-17.5 76h-284v144h234q-23 66 -42 131t-19 132q0 98 35.5 175.5t102 131t162.5 82t217 28.5q92 0 171 -15t129 -38v-160q-19 11 -50 20.5t-70 17t-83 12t-88 4.5q-80 0 -143.5 -17.5t-107.5 -50 t-67.5 -79.5t-23.5 -107q0 -69 18.5 -135t41.5 -132h471v-144h-424q9 -36 15 -72t6 -73q0 -64 -17.5 -117.5t-47 -97t-67 -77.5t-77.5 -58v-4h786v-154h-1062z" />
<glyph unicode="&#xa4;" d="M127 268l170 170q-32 48 -49.5 103t-17.5 115t17.5 115t49.5 102l-170 170l106 106l169 -169q48 32 103 49.5t116 17.5q60 0 115 -17.5t102 -49.5l168 169l106 -106l-168 -169q32 -47 49.5 -102t17.5 -116t-18 -116.5t-50 -102.5l169 -169l-106 -106l-169 169 q-47 -32 -101.5 -49t-114.5 -17q-61 0 -116 17.5t-103 49.5l-169 -170zM357 656q0 -54 21 -102t57 -84t84 -57t102 -21t102 21t84 57t56.5 84t20.5 102t-20.5 102t-56.5 84t-84 57t-102 21t-102 -21t-84 -57t-57 -84t-21 -102z" />
<glyph unicode="&#xa5;" d="M18 1443h205l394 -647h6l393 647h205l-457 -736h223v-136h-277v-166h277v-136h-277v-269h-180v269h-277v136h277v166h-277v136h223z" />
<glyph unicode="&#xa6;" horiz-adv-x="448" d="M151 -326v669h146v-669h-146zM151 774v669h146v-669h-146z" />
<glyph unicode="&#xa7;" horiz-adv-x="988" d="M81 533q0 96 58.5 164.5t164.5 97.5v16q-219 85 -219 273q0 70 29 127.5t82 98.5t126.5 64t163.5 23q83 0 152.5 -20t121 -57.5t83.5 -91t41 -120.5h-173q-11 66 -72.5 104.5t-156.5 38.5q-50 0 -91.5 -11.5t-71 -32t-45.5 -49.5t-16 -64q0 -57 46 -95t149 -66l141 -38 q162 -44 237.5 -111.5t75.5 -168.5q0 -51 -18.5 -97.5t-52 -84t-80.5 -64t-103 -37.5v-16q254 -57 254 -257q0 -69 -30 -127t-84 -100t-129 -65.5t-165 -23.5q-86 0 -159 22t-127 61.5t-86 94.5t-37 121h176q5 -35 25 -63t52 -48t74 -31t91 -11q51 0 93 11.5t72.5 32.5 t47 50t16.5 64q0 57 -47 94.5t-151 65.5l-141 38q-164 44 -240.5 113.5t-76.5 174.5zM258 567q0 -62 44.5 -105.5t126.5 -61.5l83 -18q46 0 86 14.5t69 40.5t46 60.5t17 75.5q0 63 -43.5 106t-126.5 61l-83 18q-45 0 -85 -15t-70 -41t-47 -61t-17 -74z" />
<glyph unicode="&#xa8;" horiz-adv-x="1004" d="M193 1373q0 23 9 43.5t24 35.5t35.5 24t43.5 9t43.5 -9t35.5 -24t24 -35.5t9 -43.5t-9 -43.5t-24 -35.5t-35.5 -24t-43.5 -9t-43.5 9t-35.5 24t-24 35.5t-9 43.5zM587 1373q0 23 9 43.5t24 35.5t35.5 24t43.5 9t43.5 -9t35.5 -24t24 -35.5t9 -43.5t-9 -43.5t-24 -35.5 t-35.5 -24t-43.5 -9t-43.5 9t-35.5 24t-24 35.5t-9 43.5z" />
<glyph unicode="&#xa9;" horiz-adv-x="1706" d="M60 626q0 113 28 216t79 191.5t123 160t160 121.5t190 77.5t213 27.5q112 0 214 -27.5t190 -77.5t160 -121.5t123 -160t78.5 -191.5t27.5 -216q0 -170 -61 -315t-168 -251.5t-251.5 -167t-312.5 -60.5q-111 0 -213 27.5t-190 78t-160 122t-123 159.5t-79 191t-28 216z M201 626q0 -140 50.5 -260t138.5 -207.5t207 -137t256 -49.5q92 0 176 22.5t156.5 64t131.5 100.5t100.5 131.5t64.5 157t23 178.5t-23 179t-64.5 157.5t-100.5 131.5t-131.5 100t-156.5 63.5t-176 22.5q-137 0 -256 -49.5t-207 -136.5t-138.5 -207t-50.5 -261zM475 628 q0 96 28 174t79.5 132.5t124.5 84t163 29.5q78 0 140.5 -22t108.5 -60t74.5 -89t37.5 -109h-139q-8 32 -26.5 60.5t-47 49.5t-65.5 33.5t-83 12.5q-57 0 -104 -20.5t-80 -58.5t-51 -93t-18 -124q0 -70 18 -125.5t51.5 -94.5t80 -59.5t103.5 -20.5q86 0 144.5 38.5 t77.5 112.5h139q-9 -60 -37.5 -110t-74.5 -87t-108.5 -57.5t-139.5 -20.5q-90 0 -163 29.5t-125 84.5t-80 133.5t-28 176.5z" />
<glyph unicode="&#xaa;" horiz-adv-x="886" d="M107 860q0 111 78 174.5t227 73.5l218 14v69q0 66 -45.5 102t-127.5 36q-69 0 -112.5 -25.5t-54.5 -72.5h-152q5 52 30.5 94.5t67.5 72.5t99 46.5t126 16.5q74 0 133 -19t100 -54.5t63 -86.5t22 -115v-556h-143v107h-11q-42 -61 -108 -94.5t-145 -33.5q-59 0 -107.5 18.5 t-83.5 51.5t-54.5 79t-19.5 102zM262 866q0 -60 42.5 -95.5t114.5 -35.5q46 0 85 14.5t67.5 40.5t45 61t16.5 76v84l-202 -15q-169 -12 -169 -130z" />
<glyph unicode="&#xab;" horiz-adv-x="1303" d="M135 561v8l350 416h204l-351 -413v-14l351 -413h-204zM613 561v8l350 416h204l-351 -413v-14l351 -413h-204z" />
<glyph unicode="&#xac;" d="M146 506v148h947v-528h-148v380h-799z" />
<glyph unicode="&#xad;" horiz-adv-x="878" d="M111 488v162h656v-162h-656z" />
<glyph unicode="&#xae;" horiz-adv-x="1070" d="M100 1117q0 89 34 167t92.5 135.5t138 91t170.5 33.5t170.5 -33t138 -91t92.5 -135.5t34 -167.5q0 -89 -34 -167t-92.5 -136t-138 -91t-170.5 -33t-170 33t-138 91t-93 136t-34 167zM200 1117q0 -70 26 -131t71.5 -106.5t106.5 -71.5t131 -26t131.5 26t106.5 71.5 t71 106.5t26 131t-26 131.5t-71 106.5t-106.5 71t-131.5 26t-131 -26t-106.5 -71t-71.5 -106.5t-26 -131.5zM364 927v408h200q31 0 57.5 -9.5t46 -26t30 -39t10.5 -49.5q0 -49 -25.5 -81t-70.5 -39l116 -164h-108l-99 151h-71v-151h-86zM450 1145h97q32 0 50 16.5t18 45.5 q0 56 -65 56h-100v-118z" />
<glyph unicode="&#xaf;" horiz-adv-x="1000" d="M183 1320v106h634v-106h-634z" />
<glyph unicode="&#xb0;" horiz-adv-x="733" d="M82 1147q0 59 22 111t60.5 90.5t90 61t111.5 22.5q59 0 111 -22.5t90.5 -61t61 -90.5t22.5 -111t-22.5 -111t-61 -90.5t-90.5 -61t-111 -22.5q-60 0 -111.5 22.5t-90 61t-60.5 90.5t-22 111zM209 1147q0 -32 13 -60.5t34.5 -49.5t50 -33.5t59.5 -12.5q33 0 62 12.5 t50 33.5t33.5 49.5t12.5 60.5q0 33 -12.5 61.5t-33.5 49.5t-50 33.5t-62 12.5q-31 0 -59.5 -12.5t-50 -33.5t-34.5 -49.5t-13 -61.5z" />
<glyph unicode="&#xb1;" d="M111 112v148h1017v-148h-1017zM111 662v136h435v291h147v-291h435v-136h-435v-291h-147v291h-435z" />
<glyph unicode="&#xb2;" horiz-adv-x="617" d="M45 1598v3q0 50 19 91.5t53.5 71t82.5 46t106 16.5q56 0 102.5 -14.5t79.5 -41t51.5 -63.5t18.5 -82q0 -27 -6.5 -51t-21.5 -49.5t-39 -53.5t-60 -62l-165 -155v-3h301v-126h-513v108l264 247q46 46 64.5 75.5t18.5 59.5q0 39 -28.5 63.5t-73.5 24.5q-23 0 -42 -8 t-33 -21.5t-22 -32t-8 -40.5v-3h-149z" />
<glyph unicode="&#xb3;" horiz-adv-x="643" d="M45 1326h154q3 -42 34.5 -65.5t82.5 -23.5q50 0 81 25t31 65q0 43 -30 67.5t-84 24.5h-84v113h84q46 0 73.5 24t27.5 64q0 39 -27.5 61.5t-75.5 22.5q-47 0 -76 -25.5t-31 -67.5h-147q1 49 20 88.5t53.5 67.5t82 43.5t105.5 15.5q56 0 101.5 -13t78 -37t50.5 -58t18 -76 q0 -62 -38.5 -105t-103.5 -54v-4q78 -7 123 -51t45 -113q0 -47 -20 -85t-56.5 -65t-88 -41.5t-114.5 -14.5q-59 0 -107.5 15.5t-84 43.5t-55.5 68t-22 90z" />
<glyph unicode="&#xb4;" horiz-adv-x="1005" d="M299 1250l211 300h198l-261 -300h-148z" />
<glyph unicode="&#xb6;" horiz-adv-x="1201" d="M100 1002q0 96 36.5 177t100.5 139.5t151 91.5t187 33h199v-1663h-180v795h-20q-101 0 -187.5 32t-150 89t-100 135t-36.5 171zM921 -220v1663h180v-1663h-180z" />
<glyph unicode="&#xb7;" horiz-adv-x="520" d="M146 605q0 24 9 45t24 36.5t36 24t45 8.5q49 0 81.5 -32.5t32.5 -81.5q0 -24 -8.5 -45t-24 -36t-36.5 -24t-45 -9t-45 9t-36 24t-24 36t-9 45z" />
<glyph unicode="&#xb8;" horiz-adv-x="1005" d="M322 -354q7 -3 21 -5.5t31 -5t35.5 -3.5t34.5 -1q59 0 89.5 18.5t30.5 54.5q0 35 -35 50.5t-115 15.5h-55v74l63 164l109 -8l-52 -142q209 0 209 -150q0 -38 -16.5 -70.5t-45.5 -56t-69 -37t-88 -13.5q-42 -1 -77.5 3t-69.5 14v98z" />
<glyph unicode="&#xb9;" horiz-adv-x="497" d="M70 1548v142l176 120h158v-685h-153v545h-3z" />
<glyph unicode="&#xba;" horiz-adv-x="949" d="M93 1029q0 99 26.5 178t76 134.5t120 85t159.5 29.5q88 0 159 -29.5t120 -84.5t75.5 -134t26.5 -178t-26.5 -178t-75.5 -134t-120 -84.5t-159 -29.5q-89 0 -159.5 29.5t-120 84.5t-76 133.5t-26.5 177.5zM253 1029q0 -141 57.5 -217t164.5 -76t164.5 76t57.5 218 q0 141 -57.5 216.5t-164.5 75.5t-164.5 -76t-57.5 -217z" />
<glyph unicode="&#xbb;" horiz-adv-x="1302" d="M135 145l351 413v14l-351 413h204l350 -416v-8l-350 -416h-204zM613 145l351 413v14l-351 413h204l350 -416v-8l-350 -416h-204z" />
<glyph unicode="&#xbc;" horiz-adv-x="1462" d="M80 1181v142l176 120h158v-685h-153v545h-3zM91 0l1056 1443h172l-1054 -1443h-174zM850 115v137q22 43 47.5 87.5t57 96t71.5 112.5t91 137h226v-442h87v-128h-87v-115h-154v115h-339zM989 238h204v335h-3q-41 -63 -71 -111t-53.5 -86.5t-42 -71t-34.5 -63.5v-3z" />
<glyph unicode="&#xbd;" horiz-adv-x="1462" d="M80 1181v142l176 120h158v-685h-153v545h-3zM91 0l1056 1443h172l-1054 -1443h-174zM908 473v3q0 50 19 91.5t53.5 71t82.5 46t106 16.5q56 0 102.5 -14.5t79.5 -41t51.5 -63.5t18.5 -82q0 -27 -6.5 -51t-21.5 -49.5t-39 -53.5t-60 -62l-165 -155v-3h301v-126h-513v108 l264 247q46 46 64.5 75.5t18.5 59.5q0 39 -28.5 63.5t-73.5 24.5q-23 0 -42 -8t-33 -21.5t-22 -32t-8 -40.5v-3h-149z" />
<glyph unicode="&#xbe;" horiz-adv-x="1572" d="M45 959h154q3 -42 34.5 -65.5t82.5 -23.5q50 0 81 25t31 65q0 43 -30 67.5t-84 24.5h-84v113h84q46 0 73.5 24t27.5 64q0 39 -27.5 61.5t-75.5 22.5q-47 0 -76 -25.5t-31 -67.5h-147q1 49 20 88.5t53.5 67.5t82 43.5t105.5 15.5q56 0 101.5 -13t78 -37t50.5 -58t18 -76 q0 -62 -38.5 -105t-103.5 -54v-4q78 -7 123 -51t45 -113q0 -47 -20 -85t-56.5 -65t-88 -41.5t-114.5 -14.5q-59 0 -107.5 15.5t-84 43.5t-55.5 68t-22 90zM201 0l1056 1443h172l-1054 -1443h-174zM960 115v137q22 43 47.5 87.5t57 96t71.5 112.5t91 137h226v-442h87v-128 h-87v-115h-154v115h-339zM1099 238h204v335h-3q-41 -63 -71 -111t-53.5 -86.5t-42 -71t-34.5 -63.5v-3z" />
<glyph unicode="&#xbf;" horiz-adv-x="1002" d="M86 7q0 58 15 108t42 92.5t65.5 78t86.5 64.5q48 28 79 54t49.5 53t26 58.5t7.5 70.5v65h175v-92q1 -50 -10.5 -92t-36.5 -78.5t-62.5 -69.5t-89.5 -64q-43 -27 -73.5 -52.5t-50 -54t-28.5 -61t-9 -71.5q0 -47 17.5 -87t49.5 -69t77.5 -45t101.5 -16t102 16t79 46.5 t52.5 73.5t23.5 97h171q-4 -81 -33 -152t-83.5 -123.5t-134 -83t-184.5 -30.5q-95 0 -173 27.5t-134 76.5t-87 115.5t-31 144.5zM418 999q0 24 9 45t24 36.5t36 24t45 8.5q49 0 81.5 -32.5t32.5 -81.5q0 -24 -8.5 -45t-24 -36t-36.5 -24t-45 -9t-45 9t-36 24t-24 36t-9 45z " />
<glyph unicode="&#xc0;" horiz-adv-x="1292" d="M25 0l532 1443h178l532 -1443h-189l-145 413h-574l-145 -413h-189zM291 1849h198l231 -299h-148zM412 566h468l-231 658h-6z" />
<glyph unicode="&#xc1;" horiz-adv-x="1292" d="M25 0l532 1443h178l532 -1443h-189l-145 413h-574l-145 -413h-189zM412 566h468l-231 658h-6zM575 1550l231 299h198l-281 -299h-148z" />
<glyph unicode="&#xc2;" horiz-adv-x="1292" d="M25 0l532 1443h178l532 -1443h-189l-145 413h-574l-145 -413h-189zM283 1550l292 299h142l292 -299h-168l-194 201h-2l-194 -201h-168zM412 566h468l-231 658h-6z" />
<glyph unicode="&#xc3;" horiz-adv-x="1292" d="M25 0l532 1443h178l532 -1443h-189l-145 413h-574l-145 -413h-189zM342 1550q0 118 46.5 184t131.5 66q34 0 61.5 -11.5t49.5 -28t40 -36.5t35 -36.5t33 -28t35 -11.5q62 0 62 138h114q0 -57 -12.5 -103.5t-35.5 -79.5t-55.5 -50.5t-72.5 -17.5q-32 0 -57.5 11.5 t-46.5 28t-39 36.5t-35 36.5t-34 28t-37 11.5q-33 0 -51 -35.5t-18 -101.5h-114zM412 566h468l-231 658h-6z" />
<glyph unicode="&#xc4;" horiz-adv-x="1292" d="M25 0l532 1443h178l532 -1443h-189l-145 413h-574l-145 -413h-189zM337 1697q0 23 9 43.5t24 35.5t35.5 24t43.5 9t43.5 -9t35.5 -24t24 -35.5t9 -43.5t-9 -43.5t-24 -35.5t-35.5 -24t-43.5 -9t-43.5 9t-35.5 24t-24 35.5t-9 43.5zM412 566h468l-231 658h-6zM731 1697 q0 23 9 43.5t24 35.5t35.5 24t43.5 9t43.5 -9t35.5 -24t24 -35.5t9 -43.5t-9 -43.5t-24 -35.5t-35.5 -24t-43.5 -9t-43.5 9t-35.5 24t-24 35.5t-9 43.5z" />
<glyph unicode="&#xc5;" horiz-adv-x="1292" d="M25 0l532 1443h178l532 -1443h-189l-145 413h-574l-145 -413h-189zM412 566h468l-231 658h-6zM447 1706q0 41 16 77t43 63t63 43t77 16t77 -16t63 -43t43 -63t16 -77t-16 -77t-43 -63t-63 -43t-77 -16t-77 16t-63 43t-43 63t-16 77zM530 1706q0 -24 9 -45t25 -37t37 -25 t45 -9t45 9t37 25t25 37t9 45t-9 45t-25 37t-37 25t-45 9t-45 -9t-37 -25t-25 -37t-9 -45z" />
<glyph unicode="&#xc6;" horiz-adv-x="1973" d="M5 0l687 1443h1144v-162h-694v-473h657v-160h-657v-486h694v-162h-874v459h-555l-217 -459h-185zM480 612h482v680h-160z" />
<glyph unicode="&#xc7;" horiz-adv-x="1405" d="M84 722q0 170 46 307.5t131 235t205 150t268 52.5q118 0 219.5 -34.5t180.5 -97t130.5 -151t68.5 -196.5h-182q-17 71 -55.5 128.5t-93 98.5t-123 63.5t-145.5 22.5q-106 0 -192 -41t-146.5 -117t-93.5 -182.5t-33 -238.5q0 -133 32.5 -240t93.5 -182.5t147 -116.5 t193 -41q79 0 147 18.5t121 54.5t90.5 87.5t57.5 117.5h182q-47 -201 -185 -314.5t-354 -127.5l-44 -120q209 0 209 -150q0 -38 -16.5 -70.5t-45.5 -56t-69 -37t-88 -13.5q-42 -1 -77.5 3t-69.5 14v98q7 -3 21 -5.5t31 -5t35.5 -3.5t34.5 -1q59 0 89.5 18.5t30.5 54.5 q0 35 -35 50.5t-115 15.5h-55v74l51 134q-138 9 -248.5 65t-188 152t-119 229.5t-41.5 297.5z" />
<glyph unicode="&#xc8;" horiz-adv-x="1131" d="M140 0v1443h894v-162h-714v-463h677v-160h-677v-496h714v-162h-894zM232 1849h198l231 -299h-148z" />
<glyph unicode="&#xc9;" horiz-adv-x="1131" d="M140 0v1443h894v-162h-714v-463h677v-160h-677v-496h714v-162h-894zM516 1550l231 299h198l-281 -299h-148z" />
<glyph unicode="&#xca;" horiz-adv-x="1131" d="M140 0v1443h894v-162h-714v-463h677v-160h-677v-496h714v-162h-894zM224 1550l292 299h142l292 -299h-168l-194 201h-2l-194 -201h-168z" />
<glyph unicode="&#xcb;" horiz-adv-x="1131" d="M140 0v1443h894v-162h-714v-463h677v-160h-677v-496h714v-162h-894zM278 1697q0 23 9 43.5t24 35.5t35.5 24t43.5 9t43.5 -9t35.5 -24t24 -35.5t9 -43.5t-9 -43.5t-24 -35.5t-35.5 -24t-43.5 -9t-43.5 9t-35.5 24t-24 35.5t-9 43.5zM672 1697q0 23 9 43.5t24 35.5 t35.5 24t43.5 9t43.5 -9t35.5 -24t24 -35.5t9 -43.5t-9 -43.5t-24 -35.5t-35.5 -24t-43.5 -9t-43.5 9t-35.5 24t-24 35.5t-9 43.5z" />
<glyph unicode="&#xcc;" horiz-adv-x="460" d="M-125 1849h198l231 -299h-148zM140 0v1443h180v-1443h-180z" />
<glyph unicode="&#xcd;" horiz-adv-x="460" d="M140 0v1443h180v-1443h-180zM159 1550l231 299h198l-281 -299h-148z" />
<glyph unicode="&#xce;" horiz-adv-x="460" d="M-133 1550l292 299h142l292 -299h-168l-194 201h-2l-194 -201h-168zM140 0v1443h180v-1443h-180z" />
<glyph unicode="&#xcf;" horiz-adv-x="460" d="M-79 1697q0 23 9 43.5t24 35.5t35.5 24t43.5 9t43.5 -9t35.5 -24t24 -35.5t9 -43.5t-9 -43.5t-24 -35.5t-35.5 -24t-43.5 -9t-43.5 9t-35.5 24t-24 35.5t-9 43.5zM140 0v1443h180v-1443h-180zM315 1697q0 23 9 43.5t24 35.5t35.5 24t43.5 9t43.5 -9t35.5 -24t24 -35.5 t9 -43.5t-9 -43.5t-24 -35.5t-35.5 -24t-43.5 -9t-43.5 9t-35.5 24t-24 35.5t-9 43.5z" />
<glyph unicode="&#xd0;" horiz-adv-x="1452" d="M11 663v163h129v617h495q160 0 286.5 -49t214.5 -141.5t134 -226.5t46 -304q0 -171 -46 -305t-133.5 -226.5t-214 -141.5t-287.5 -49h-495v663h-129zM320 162h303q123 0 217.5 37t159.5 108t98.5 175t33.5 238q0 135 -33.5 240t-98 176t-159.5 108t-218 37h-303v-455h277 v-163h-277v-501z" />
<glyph unicode="&#xd1;" horiz-adv-x="1432" d="M140 0v1443h175l790 -1133h9v1133h178v-1443h-175l-790 1129h-9v-1129h-178zM412 1550q0 118 46.5 184t131.5 66q34 0 61.5 -11.5t49.5 -28t40 -36.5t35 -36.5t33 -28t35 -11.5q62 0 62 138h114q0 -57 -12.5 -103.5t-35.5 -79.5t-55.5 -50.5t-72.5 -17.5 q-32 0 -57.5 11.5t-46.5 28t-39 36.5t-35 36.5t-34 28t-37 11.5q-33 0 -51 -35.5t-18 -101.5h-114z" />
<glyph unicode="&#xd2;" horiz-adv-x="1498" d="M84 721q0 172 46.5 310t132.5 235t209.5 149t276.5 52t276.5 -52t209.5 -149t132.5 -235t46.5 -310t-46.5 -310t-132.5 -234.5t-209.5 -148.5t-276.5 -52t-276.5 52t-209.5 148.5t-132.5 234.5t-46.5 310zM269 721q0 -133 33.5 -240t96 -182.5t151 -116t199.5 -40.5 t199.5 40.5t151 116t96 182.5t33.5 240t-33.5 240.5t-96 183t-151 116t-199.5 40.5t-199.5 -40.5t-151 -116t-96 -183t-33.5 -240.5zM394 1849h198l231 -299h-148z" />
<glyph unicode="&#xd3;" horiz-adv-x="1498" d="M84 721q0 172 46.5 310t132.5 235t209.5 149t276.5 52t276.5 -52t209.5 -149t132.5 -235t46.5 -310t-46.5 -310t-132.5 -234.5t-209.5 -148.5t-276.5 -52t-276.5 52t-209.5 148.5t-132.5 234.5t-46.5 310zM269 721q0 -133 33.5 -240t96 -182.5t151 -116t199.5 -40.5 t199.5 40.5t151 116t96 182.5t33.5 240t-33.5 240.5t-96 183t-151 116t-199.5 40.5t-199.5 -40.5t-151 -116t-96 -183t-33.5 -240.5zM678 1550l231 299h198l-281 -299h-148z" />
<glyph unicode="&#xd4;" horiz-adv-x="1498" d="M84 721q0 172 46.5 310t132.5 235t209.5 149t276.5 52t276.5 -52t209.5 -149t132.5 -235t46.5 -310t-46.5 -310t-132.5 -234.5t-209.5 -148.5t-276.5 -52t-276.5 52t-209.5 148.5t-132.5 234.5t-46.5 310zM269 721q0 -133 33.5 -240t96 -182.5t151 -116t199.5 -40.5 t199.5 40.5t151 116t96 182.5t33.5 240t-33.5 240.5t-96 183t-151 116t-199.5 40.5t-199.5 -40.5t-151 -116t-96 -183t-33.5 -240.5zM386 1550l292 299h142l292 -299h-168l-194 201h-2l-194 -201h-168z" />
<glyph unicode="&#xd5;" horiz-adv-x="1498" d="M84 721q0 172 46.5 310t132.5 235t209.5 149t276.5 52t276.5 -52t209.5 -149t132.5 -235t46.5 -310t-46.5 -310t-132.5 -234.5t-209.5 -148.5t-276.5 -52t-276.5 52t-209.5 148.5t-132.5 234.5t-46.5 310zM269 721q0 -133 33.5 -240t96 -182.5t151 -116t199.5 -40.5 t199.5 40.5t151 116t96 182.5t33.5 240t-33.5 240.5t-96 183t-151 116t-199.5 40.5t-199.5 -40.5t-151 -116t-96 -183t-33.5 -240.5zM445 1550q0 118 46.5 184t131.5 66q34 0 61.5 -11.5t49.5 -28t40 -36.5t35 -36.5t33 -28t35 -11.5q62 0 62 138h114q0 -57 -12.5 -103.5 t-35.5 -79.5t-55.5 -50.5t-72.5 -17.5q-32 0 -57.5 11.5t-46.5 28t-39 36.5t-35 36.5t-34 28t-37 11.5q-33 0 -51 -35.5t-18 -101.5h-114z" />
<glyph unicode="&#xd6;" horiz-adv-x="1498" d="M84 721q0 172 46.5 310t132.5 235t209.5 149t276.5 52t276.5 -52t209.5 -149t132.5 -235t46.5 -310t-46.5 -310t-132.5 -234.5t-209.5 -148.5t-276.5 -52t-276.5 52t-209.5 148.5t-132.5 234.5t-46.5 310zM269 721q0 -133 33.5 -240t96 -182.5t151 -116t199.5 -40.5 t199.5 40.5t151 116t96 182.5t33.5 240t-33.5 240.5t-96 183t-151 116t-199.5 40.5t-199.5 -40.5t-151 -116t-96 -183t-33.5 -240.5zM440 1697q0 23 9 43.5t24 35.5t35.5 24t43.5 9t43.5 -9t35.5 -24t24 -35.5t9 -43.5t-9 -43.5t-24 -35.5t-35.5 -24t-43.5 -9t-43.5 9 t-35.5 24t-24 35.5t-9 43.5zM834 1697q0 23 9 43.5t24 35.5t35.5 24t43.5 9t43.5 -9t35.5 -24t24 -35.5t9 -43.5t-9 -43.5t-24 -35.5t-35.5 -24t-43.5 -9t-43.5 9t-35.5 24t-24 35.5t-9 43.5z" />
<glyph unicode="&#xd7;" d="M208 272l307 308l-307 308l104 104l308 -307l307 307l104 -104l-306 -308l306 -308l-104 -104l-307 307l-308 -307z" />
<glyph unicode="&#xd8;" horiz-adv-x="1498" d="M84 721q0 172 46.5 310t132.5 235t209.5 149t276.5 52q125 0 229.5 -34t185.5 -100l120 155l98 -69l-132 -172q80 -97 122 -229t42 -297q0 -172 -46.5 -310t-132.5 -234.5t-209.5 -148.5t-276.5 -52q-115 0 -212 29t-175 84l-104 -136l-100 76l110 142 q-89 98 -136.5 236.5t-47.5 313.5zM269 721q0 -125 29 -226t84 -176l673 872q-60 54 -136.5 82t-169.5 28q-111 0 -199.5 -40.5t-151 -116t-96 -183t-33.5 -240.5zM470 230q57 -43 127 -65.5t152 -22.5q111 0 199.5 40.5t151 116t96 182.5t33.5 240q0 114 -24 208.5 t-70 166.5z" />
<glyph unicode="&#xd9;" horiz-adv-x="1426" d="M140 506v937h180v-925q0 -82 26 -151t76.5 -119t123.5 -78t167 -28t167 28t123 78t76.5 119t26.5 151v925h180v-937q0 -116 -39 -213t-113 -167.5t-180.5 -110t-240.5 -39.5t-240.5 39.5t-180.5 110t-113 167.5t-39 213zM358 1849h198l231 -299h-148z" />
<glyph unicode="&#xda;" horiz-adv-x="1426" d="M140 506v937h180v-925q0 -82 26 -151t76.5 -119t123.5 -78t167 -28t167 28t123 78t76.5 119t26.5 151v925h180v-937q0 -116 -39 -213t-113 -167.5t-180.5 -110t-240.5 -39.5t-240.5 39.5t-180.5 110t-113 167.5t-39 213zM642 1550l231 299h198l-281 -299h-148z" />
<glyph unicode="&#xdb;" horiz-adv-x="1426" d="M140 506v937h180v-925q0 -82 26 -151t76.5 -119t123.5 -78t167 -28t167 28t123 78t76.5 119t26.5 151v925h180v-937q0 -116 -39 -213t-113 -167.5t-180.5 -110t-240.5 -39.5t-240.5 39.5t-180.5 110t-113 167.5t-39 213zM350 1550l292 299h142l292 -299h-168l-194 201h-2 l-194 -201h-168z" />
<glyph unicode="&#xdc;" horiz-adv-x="1426" d="M140 506v937h180v-925q0 -82 26 -151t76.5 -119t123.5 -78t167 -28t167 28t123 78t76.5 119t26.5 151v925h180v-937q0 -116 -39 -213t-113 -167.5t-180.5 -110t-240.5 -39.5t-240.5 39.5t-180.5 110t-113 167.5t-39 213zM404 1697q0 23 9 43.5t24 35.5t35.5 24t43.5 9 t43.5 -9t35.5 -24t24 -35.5t9 -43.5t-9 -43.5t-24 -35.5t-35.5 -24t-43.5 -9t-43.5 9t-35.5 24t-24 35.5t-9 43.5zM798 1697q0 23 9 43.5t24 35.5t35.5 24t43.5 9t43.5 -9t35.5 -24t24 -35.5t9 -43.5t-9 -43.5t-24 -35.5t-35.5 -24t-43.5 -9t-43.5 9t-35.5 24t-24 35.5 t-9 43.5z" />
<glyph unicode="&#xdd;" horiz-adv-x="1254" d="M25 1443h205l394 -648h6l394 648h205l-512 -822v-621h-180v621zM556 1550l231 299h198l-281 -299h-148z" />
<glyph unicode="&#xde;" horiz-adv-x="1232" d="M160 0v1443h180v-266h373q82 0 158.5 -27.5t135 -81t93.5 -130.5t35 -176t-35.5 -176.5t-94 -131t-135.5 -81.5t-159 -28h-371v-345h-180zM340 505h322q62 0 115 16t91.5 48t60 80t21.5 113q0 64 -21.5 112t-60 80t-91.5 47.5t-115 15.5h-322v-512z" />
<glyph unicode="&#xdf;" horiz-adv-x="1238" d="M182 0v1101q0 90 29.5 162.5t84.5 124.5t132.5 80t172.5 28q91 0 167.5 -27.5t131.5 -77.5t85.5 -119t30.5 -151q0 -64 -16 -119.5t-45.5 -100.5t-72 -77.5t-95.5 -48.5v-4q80 -11 142.5 -41.5t105.5 -78t65.5 -111t22.5 -139.5q0 -94 -32.5 -170.5t-92 -131t-143.5 -84 t-187 -29.5q-83 0 -144 13v153q26 -7 61.5 -10.5t70.5 -3.5q67 0 122 19t93.5 53.5t59.5 83.5t21 109q0 65 -23 116t-66.5 86.5t-107 54t-143.5 18.5h-61v170h51q116 0 180.5 69.5t64.5 194.5q0 51 -17.5 94t-50 73.5t-77 47.5t-98.5 17q-118 0 -184.5 -68.5t-66.5 -191.5 v-1084h-171z" />
<glyph unicode="&#xe0;" horiz-adv-x="1062" d="M69 307q0 140 103 219t301 91l302 18v90q0 101 -63.5 154.5t-183.5 53.5q-47 0 -87 -11.5t-71.5 -33t-52 -52.5t-28.5 -69h-167q2 68 34 127t87 102t128.5 67.5t158.5 24.5q96 0 173 -24.5t132 -70t84.5 -110t29.5 -143.5v-740h-165v187h-4q-23 -45 -59 -81.5t-81 -62 t-97.5 -39.5t-109.5 -14q-82 0 -149 22.5t-115 64t-74 100t-26 130.5zM182 1550h198l211 -300h-148zM247 306q0 -38 15.5 -68t45 -52t70.5 -33.5t92 -11.5q66 0 122 20t96.5 56t63.5 85.5t23 107.5v87l-282 -18q-122 -8 -184 -51.5t-62 -121.5z" />
<glyph unicode="&#xe1;" horiz-adv-x="1062" d="M69 307q0 140 103 219t301 91l302 18v90q0 101 -63.5 154.5t-183.5 53.5q-47 0 -87 -11.5t-71.5 -33t-52 -52.5t-28.5 -69h-167q2 68 34 127t87 102t128.5 67.5t158.5 24.5q96 0 173 -24.5t132 -70t84.5 -110t29.5 -143.5v-740h-165v187h-4q-23 -45 -59 -81.5t-81 -62 t-97.5 -39.5t-109.5 -14q-82 0 -149 22.5t-115 64t-74 100t-26 130.5zM247 306q0 -38 15.5 -68t45 -52t70.5 -33.5t92 -11.5q66 0 122 20t96.5 56t63.5 85.5t23 107.5v87l-282 -18q-122 -8 -184 -51.5t-62 -121.5zM452 1250l211 300h198l-261 -300h-148z" />
<glyph unicode="&#xe2;" horiz-adv-x="1062" d="M69 307q0 140 103 219t301 91l302 18v90q0 101 -63.5 154.5t-183.5 53.5q-47 0 -87 -11.5t-71.5 -33t-52 -52.5t-28.5 -69h-167q2 68 34 127t87 102t128.5 67.5t158.5 24.5q96 0 173 -24.5t132 -70t84.5 -110t29.5 -143.5v-740h-165v187h-4q-23 -45 -59 -81.5t-81 -62 t-97.5 -39.5t-109.5 -14q-82 0 -149 22.5t-115 64t-74 100t-26 130.5zM187 1250l277 300h124l277 -300h-163l-173 197h-6l-173 -197h-163zM247 306q0 -38 15.5 -68t45 -52t70.5 -33.5t92 -11.5q66 0 122 20t96.5 56t63.5 85.5t23 107.5v87l-282 -18q-122 -8 -184 -51.5 t-62 -121.5z" />
<glyph unicode="&#xe3;" horiz-adv-x="1062" d="M69 307q0 140 103 219t301 91l302 18v90q0 101 -63.5 154.5t-183.5 53.5q-47 0 -87 -11.5t-71.5 -33t-52 -52.5t-28.5 -69h-167q2 68 34 127t87 102t128.5 67.5t158.5 24.5q96 0 173 -24.5t132 -70t84.5 -110t29.5 -143.5v-740h-165v187h-4q-23 -45 -59 -81.5t-81 -62 t-97.5 -39.5t-109.5 -14q-82 0 -149 22.5t-115 64t-74 100t-26 130.5zM226 1273q0 118 46.5 184t131.5 66q34 0 61.5 -11.5t49.5 -28t40 -36.5t35 -36.5t33 -28t35 -11.5q62 0 62 138h114q0 -57 -12.5 -103.5t-35.5 -79.5t-55.5 -50.5t-72.5 -17.5q-32 0 -57.5 11.5 t-46.5 28t-39 36.5t-35 36.5t-34 28t-37 11.5q-33 0 -51 -35.5t-18 -101.5h-114zM247 306q0 -38 15.5 -68t45 -52t70.5 -33.5t92 -11.5q66 0 122 20t96.5 56t63.5 85.5t23 107.5v87l-282 -18q-122 -8 -184 -51.5t-62 -121.5z" />
<glyph unicode="&#xe4;" horiz-adv-x="1062" d="M69 307q0 140 103 219t301 91l302 18v90q0 101 -63.5 154.5t-183.5 53.5q-47 0 -87 -11.5t-71.5 -33t-52 -52.5t-28.5 -69h-167q2 68 34 127t87 102t128.5 67.5t158.5 24.5q96 0 173 -24.5t132 -70t84.5 -110t29.5 -143.5v-740h-165v187h-4q-23 -45 -59 -81.5t-81 -62 t-97.5 -39.5t-109.5 -14q-82 0 -149 22.5t-115 64t-74 100t-26 130.5zM217 1373q0 23 9 43.5t24 35.5t35.5 24t43.5 9t43.5 -9t35.5 -24t24 -35.5t9 -43.5t-9 -43.5t-24 -35.5t-35.5 -24t-43.5 -9t-43.5 9t-35.5 24t-24 35.5t-9 43.5zM247 306q0 -38 15.5 -68t45 -52 t70.5 -33.5t92 -11.5q66 0 122 20t96.5 56t63.5 85.5t23 107.5v87l-282 -18q-122 -8 -184 -51.5t-62 -121.5zM611 1373q0 23 9 43.5t24 35.5t35.5 24t43.5 9t43.5 -9t35.5 -24t24 -35.5t9 -43.5t-9 -43.5t-24 -35.5t-35.5 -24t-43.5 -9t-43.5 9t-35.5 24t-24 35.5t-9 43.5z " />
<glyph unicode="&#xe5;" horiz-adv-x="1062" d="M69 307q0 140 103 219t301 91l302 18v90q0 101 -63.5 154.5t-183.5 53.5q-47 0 -87 -11.5t-71.5 -33t-52 -52.5t-28.5 -69h-167q2 68 34 127t87 102t128.5 67.5t158.5 24.5q96 0 173 -24.5t132 -70t84.5 -110t29.5 -143.5v-740h-165v187h-4q-23 -45 -59 -81.5t-81 -62 t-97.5 -39.5t-109.5 -14q-82 0 -149 22.5t-115 64t-74 100t-26 130.5zM247 306q0 -38 15.5 -68t45 -52t70.5 -33.5t92 -11.5q66 0 122 20t96.5 56t63.5 85.5t23 107.5v87l-282 -18q-122 -8 -184 -51.5t-62 -121.5zM327 1383q0 41 16 77t43 63t63 43t77 16t77 -16t63 -43 t43 -63t16 -77t-16 -77t-43 -63t-63 -43t-77 -16t-77 16t-63 43t-43 63t-16 77zM410 1383q0 -24 9 -45t25 -37t37 -25t45 -9t45 9t37 25t25 37t9 45t-9 45t-25 37t-37 25t-45 9t-45 -9t-37 -25t-25 -37t-9 -45z" />
<glyph unicode="&#xe6;" horiz-adv-x="1769" d="M69 303q0 140 103.5 220.5t298.5 90.5l303 15v77q0 50 -18.5 92t-52 72t-80 46.5t-102.5 16.5q-106 0 -169 -44.5t-70 -121.5h-171q4 69 35 128t84 102t125.5 67t159.5 24q67 0 126.5 -14.5t107.5 -41.5t83 -66.5t55 -90.5h9q55 105 148 159t218 54q102 0 184 -37 t139 -105.5t88 -166.5t31 -220v-67h-756v-11q0 -77 22 -139.5t63.5 -106.5t99.5 -68t130 -24q98 0 165 43.5t91 121.5h172q-12 -71 -49 -129.5t-94 -100.5t-130.5 -65t-157.5 -23q-134 0 -233.5 57.5t-153.5 165.5h-10q-66 -110 -168.5 -166.5t-237.5 -56.5q-89 0 -160.5 22 t-122 63t-78 98.5t-27.5 129.5zM247 306q0 -38 15 -68.5t43 -52t67.5 -33t88.5 -11.5q66 0 123 20.5t99.5 57t66.5 85.5t24 106v81l-285 -15q-118 -6 -180 -49.5t-62 -120.5zM948 630h575q-2 70 -21.5 126.5t-55.5 96.5t-86 61t-112 21q-63 0 -116.5 -22t-92.5 -61.5 t-63 -96t-28 -125.5z" />
<glyph unicode="&#xe7;" horiz-adv-x="1060" d="M65 539q0 124 35.5 225.5t100 173.5t155 111t201.5 39q100 0 180 -30t138 -80t92 -115t42 -136h-171q-8 43 -30 80.5t-57.5 65.5t-83.5 44t-109 16q-71 0 -129 -28t-99.5 -79.5t-64.5 -124.5t-23 -162q0 -92 23 -165t65 -124t100.5 -78t129.5 -27q113 0 185 51t95 149 h171q-10 -72 -41.5 -132.5t-82 -106t-117 -74.5t-145.5 -38l-50 -136q209 0 209 -150q0 -38 -16.5 -70.5t-45.5 -56t-69 -37t-88 -13.5q-42 -1 -77.5 3t-69.5 14v98q7 -3 21 -5.5t31 -5t35.5 -3.5t34.5 -1q59 0 89.5 18.5t30.5 54.5q0 35 -35 50.5t-115 15.5h-55v74l57 148 q-101 8 -183.5 49t-141 111.5t-90.5 168.5t-32 218z" />
<glyph unicode="&#xe8;" horiz-adv-x="1084" d="M65 535q0 125 34.5 227t98 174.5t153.5 112t200 39.5q108 0 194.5 -37t147.5 -105.5t93.5 -166.5t32.5 -220v-68h-774v-10q0 -77 22.5 -139.5t64.5 -106.5t100.5 -68t130.5 -24q51 0 95 11.5t79.5 33t60 52t36.5 68.5h172q-11 -69 -50 -127.5t-98.5 -101t-136 -66 t-162.5 -23.5q-114 0 -205 38t-155.5 109t-99 172t-34.5 226zM207 1550h198l211 -300h-148zM245 630h593q-2 69 -23.5 125t-59.5 96t-90.5 62t-116.5 22q-63 0 -117 -22t-93.5 -62t-64 -96.5t-28.5 -124.5z" />
<glyph unicode="&#xe9;" horiz-adv-x="1084" d="M65 535q0 125 34.5 227t98 174.5t153.5 112t200 39.5q108 0 194.5 -37t147.5 -105.5t93.5 -166.5t32.5 -220v-68h-774v-10q0 -77 22.5 -139.5t64.5 -106.5t100.5 -68t130.5 -24q51 0 95 11.5t79.5 33t60 52t36.5 68.5h172q-11 -69 -50 -127.5t-98.5 -101t-136 -66 t-162.5 -23.5q-114 0 -205 38t-155.5 109t-99 172t-34.5 226zM245 630h593q-2 69 -23.5 125t-59.5 96t-90.5 62t-116.5 22q-63 0 -117 -22t-93.5 -62t-64 -96.5t-28.5 -124.5zM477 1250l211 300h198l-261 -300h-148z" />
<glyph unicode="&#xea;" horiz-adv-x="1084" d="M65 535q0 125 34.5 227t98 174.5t153.5 112t200 39.5q108 0 194.5 -37t147.5 -105.5t93.5 -166.5t32.5 -220v-68h-774v-10q0 -77 22.5 -139.5t64.5 -106.5t100.5 -68t130.5 -24q51 0 95 11.5t79.5 33t60 52t36.5 68.5h172q-11 -69 -50 -127.5t-98.5 -101t-136 -66 t-162.5 -23.5q-114 0 -205 38t-155.5 109t-99 172t-34.5 226zM212 1250l277 300h124l277 -300h-163l-173 197h-6l-173 -197h-163zM245 630h593q-2 69 -23.5 125t-59.5 96t-90.5 62t-116.5 22q-63 0 -117 -22t-93.5 -62t-64 -96.5t-28.5 -124.5z" />
<glyph unicode="&#xeb;" horiz-adv-x="1084" d="M65 535q0 125 34.5 227t98 174.5t153.5 112t200 39.5q108 0 194.5 -37t147.5 -105.5t93.5 -166.5t32.5 -220v-68h-774v-10q0 -77 22.5 -139.5t64.5 -106.5t100.5 -68t130.5 -24q51 0 95 11.5t79.5 33t60 52t36.5 68.5h172q-11 -69 -50 -127.5t-98.5 -101t-136 -66 t-162.5 -23.5q-114 0 -205 38t-155.5 109t-99 172t-34.5 226zM242 1373q0 23 9 43.5t24 35.5t35.5 24t43.5 9t43.5 -9t35.5 -24t24 -35.5t9 -43.5t-9 -43.5t-24 -35.5t-35.5 -24t-43.5 -9t-43.5 9t-35.5 24t-24 35.5t-9 43.5zM245 630h593q-2 69 -23.5 125t-59.5 96 t-90.5 62t-116.5 22q-63 0 -117 -22t-93.5 -62t-64 -96.5t-28.5 -124.5zM636 1373q0 23 9 43.5t24 35.5t35.5 24t43.5 9t43.5 -9t35.5 -24t24 -35.5t9 -43.5t-9 -43.5t-24 -35.5t-35.5 -24t-43.5 -9t-43.5 9t-35.5 24t-24 35.5t-9 43.5z" />
<glyph unicode="&#xec;" horiz-adv-x="430" d="M-129 1550h198l211 -300h-148zM128 0v1078h174v-1078h-174z" />
<glyph unicode="&#xed;" horiz-adv-x="430" d="M128 0v1078h174v-1078h-174zM141 1250l211 300h198l-261 -300h-148z" />
<glyph unicode="&#xee;" horiz-adv-x="430" d="M-124 1250l277 300h124l277 -300h-163l-173 197h-6l-173 -197h-163zM128 0v1078h174v-1078h-174z" />
<glyph unicode="&#xef;" horiz-adv-x="430" d="M-94 1373q0 23 9 43.5t24 35.5t35.5 24t43.5 9t43.5 -9t35.5 -24t24 -35.5t9 -43.5t-9 -43.5t-24 -35.5t-35.5 -24t-43.5 -9t-43.5 9t-35.5 24t-24 35.5t-9 43.5zM128 0v1078h174v-1078h-174zM300 1373q0 23 9 43.5t24 35.5t35.5 24t43.5 9t43.5 -9t35.5 -24t24 -35.5 t9 -43.5t-9 -43.5t-24 -35.5t-35.5 -24t-43.5 -9t-43.5 9t-35.5 24t-24 35.5t-9 43.5z" />
<glyph unicode="&#xf0;" horiz-adv-x="1140" d="M84 519q0 123 33.5 222t95 169.5t148.5 108.5t194 38q46 0 92 -13t86.5 -36t72.5 -53.5t49 -66.5h15q-11 43 -30.5 90.5t-43.5 93.5t-52 89t-56 78l-278 -90l-35 112l231 75q-35 42 -82 86t-118 104h206q37 -31 73.5 -66t71.5 -75l250 81l35 -112l-203 -64 q112 -156 166.5 -332t54.5 -387q0 -137 -33.5 -246t-96 -185.5t-152 -117.5t-201.5 -41q-114 0 -205.5 37t-155.5 107t-98 169.5t-34 224.5zM262 519q0 -87 22 -158t63.5 -121t99.5 -77t130 -27t131 27t100 77t63.5 121t22.5 158t-22.5 157.5t-64 120.5t-100 77.5 t-130.5 27.5t-130 -27t-99.5 -77t-63.5 -121t-22 -158z" />
<glyph unicode="&#xf1;" horiz-adv-x="1135" d="M118 0v1078h164v-175h4q103 185 352 185q89 0 160 -27.5t121 -79t76.5 -125t26.5 -165.5v-691h-174v661q0 133 -67 202.5t-195 69.5q-66 0 -120.5 -22t-93 -62t-59.5 -97t-21 -126v-626h-174zM270 1273q0 118 46.5 184t131.5 66q34 0 61.5 -11.5t49.5 -28t40 -36.5 t35 -36.5t33 -28t35 -11.5q62 0 62 138h114q0 -57 -12.5 -103.5t-35.5 -79.5t-55.5 -50.5t-72.5 -17.5q-32 0 -57.5 11.5t-46.5 28t-39 36.5t-35 36.5t-34 28t-37 11.5q-33 0 -51 -35.5t-18 -101.5h-114z" />
<glyph unicode="&#xf2;" horiz-adv-x="1124" d="M65 539q0 126 35 227.5t100 173t156.5 110t205.5 38.5t205.5 -38.5t156.5 -110t100 -173t35 -227.5q0 -125 -35 -226.5t-100 -173t-156.5 -110.5t-205.5 -39t-205.5 39t-156.5 110.5t-100 173t-35 226.5zM218 1550h198l211 -300h-148zM242 539q0 -93 22 -166t63 -123.5 t100.5 -77.5t134.5 -27t134.5 27t101 77.5t63 123.5t21.5 166t-21.5 166t-63 124t-101 77.5t-134.5 26.5t-134.5 -27t-101 -77.5t-63 -123.5t-21.5 -166z" />
<glyph unicode="&#xf3;" horiz-adv-x="1124" d="M65 539q0 126 35 227.5t100 173t156.5 110t205.5 38.5t205.5 -38.5t156.5 -110t100 -173t35 -227.5q0 -125 -35 -226.5t-100 -173t-156.5 -110.5t-205.5 -39t-205.5 39t-156.5 110.5t-100 173t-35 226.5zM242 539q0 -93 22 -166t63 -123.5t100.5 -77.5t134.5 -27 t134.5 27t101 77.5t63 123.5t21.5 166t-21.5 166t-63 124t-101 77.5t-134.5 26.5t-134.5 -27t-101 -77.5t-63 -123.5t-21.5 -166zM488 1250l211 300h198l-261 -300h-148z" />
<glyph unicode="&#xf4;" horiz-adv-x="1124" d="M65 539q0 126 35 227.5t100 173t156.5 110t205.5 38.5t205.5 -38.5t156.5 -110t100 -173t35 -227.5q0 -125 -35 -226.5t-100 -173t-156.5 -110.5t-205.5 -39t-205.5 39t-156.5 110.5t-100 173t-35 226.5zM223 1250l277 300h124l277 -300h-163l-173 197h-6l-173 -197h-163 zM242 539q0 -93 22 -166t63 -123.5t100.5 -77.5t134.5 -27t134.5 27t101 77.5t63 123.5t21.5 166t-21.5 166t-63 124t-101 77.5t-134.5 26.5t-134.5 -27t-101 -77.5t-63 -123.5t-21.5 -166z" />
<glyph unicode="&#xf5;" horiz-adv-x="1124" d="M65 539q0 126 35 227.5t100 173t156.5 110t205.5 38.5t205.5 -38.5t156.5 -110t100 -173t35 -227.5q0 -125 -35 -226.5t-100 -173t-156.5 -110.5t-205.5 -39t-205.5 39t-156.5 110.5t-100 173t-35 226.5zM242 539q0 -93 22 -166t63 -123.5t100.5 -77.5t134.5 -27 t134.5 27t101 77.5t63 123.5t21.5 166t-21.5 166t-63 124t-101 77.5t-134.5 26.5t-134.5 -27t-101 -77.5t-63 -123.5t-21.5 -166zM262 1273q0 118 46.5 184t131.5 66q34 0 61.5 -11.5t49.5 -28t40 -36.5t35 -36.5t33 -28t35 -11.5q62 0 62 138h114q0 -57 -12.5 -103.5 t-35.5 -79.5t-55.5 -50.5t-72.5 -17.5q-32 0 -57.5 11.5t-46.5 28t-39 36.5t-35 36.5t-34 28t-37 11.5q-33 0 -51 -35.5t-18 -101.5h-114z" />
<glyph unicode="&#xf6;" horiz-adv-x="1124" d="M65 539q0 126 35 227.5t100 173t156.5 110t205.5 38.5t205.5 -38.5t156.5 -110t100 -173t35 -227.5q0 -125 -35 -226.5t-100 -173t-156.5 -110.5t-205.5 -39t-205.5 39t-156.5 110.5t-100 173t-35 226.5zM242 539q0 -93 22 -166t63 -123.5t100.5 -77.5t134.5 -27 t134.5 27t101 77.5t63 123.5t21.5 166t-21.5 166t-63 124t-101 77.5t-134.5 26.5t-134.5 -27t-101 -77.5t-63 -123.5t-21.5 -166zM253 1373q0 23 9 43.5t24 35.5t35.5 24t43.5 9t43.5 -9t35.5 -24t24 -35.5t9 -43.5t-9 -43.5t-24 -35.5t-35.5 -24t-43.5 -9t-43.5 9t-35.5 24 t-24 35.5t-9 43.5zM647 1373q0 23 9 43.5t24 35.5t35.5 24t43.5 9t43.5 -9t35.5 -24t24 -35.5t9 -43.5t-9 -43.5t-24 -35.5t-35.5 -24t-43.5 -9t-43.5 9t-35.5 24t-24 35.5t-9 43.5z" />
<glyph unicode="&#xf7;" d="M111 496v148h1017v-148h-1017zM495 213q0 27 9.5 50t26 39.5t39.5 26t50 9.5t49.5 -9.5t39.5 -26t26.5 -39.5t9.5 -50t-9.5 -50t-26.5 -39.5t-39.5 -26t-49.5 -9.5t-50 9.5t-39.5 26t-26 39.5t-9.5 50zM495 927q0 27 9.5 50t26 39.5t39.5 26t50 9.5t49.5 -9.5t39.5 -26 t26.5 -39.5t9.5 -50t-9.5 -50t-26.5 -39.5t-39.5 -26t-49.5 -9.5t-50 9.5t-39.5 26t-26 39.5t-9.5 50z" />
<glyph unicode="&#xf8;" horiz-adv-x="1124" d="M65 539q0 126 35 227.5t100 173t156.5 110t205.5 38.5q75 0 140 -17t120 -49l66 96l100 -64l-72 -106q69 -72 106 -175t37 -234q0 -125 -35 -226.5t-100 -173t-156.5 -110.5t-205.5 -39q-72 0 -135.5 16t-117.5 46l-61 -89l-104 69l66 96q-70 72 -107.5 176t-37.5 235z M242 539q0 -83 17.5 -149t49.5 -117l422 615q-71 45 -169 45q-75 0 -134.5 -27t-101 -77.5t-63 -123.5t-21.5 -166zM400 186q68 -41 162 -41q75 0 134.5 27t101 77.5t63 123.5t21.5 166q0 81 -16.5 147t-48.5 116z" />
<glyph unicode="&#xf9;" horiz-adv-x="1135" d="M113 387v691h174v-661q0 -134 67 -203t195 -69q66 0 120.5 22t93 62t59.5 97t21 126v626h174v-1078h-164v178h-4q-51 -94 -139.5 -141t-213.5 -47q-89 0 -159.5 27.5t-120.5 79t-76.5 125t-26.5 165.5zM221 1550h198l211 -300h-148z" />
<glyph unicode="&#xfa;" horiz-adv-x="1135" d="M113 387v691h174v-661q0 -134 67 -203t195 -69q66 0 120.5 22t93 62t59.5 97t21 126v626h174v-1078h-164v178h-4q-51 -94 -139.5 -141t-213.5 -47q-89 0 -159.5 27.5t-120.5 79t-76.5 125t-26.5 165.5zM491 1250l211 300h198l-261 -300h-148z" />
<glyph unicode="&#xfb;" horiz-adv-x="1135" d="M113 387v691h174v-661q0 -134 67 -203t195 -69q66 0 120.5 22t93 62t59.5 97t21 126v626h174v-1078h-164v178h-4q-51 -94 -139.5 -141t-213.5 -47q-89 0 -159.5 27.5t-120.5 79t-76.5 125t-26.5 165.5zM226 1250l277 300h124l277 -300h-163l-173 197h-6l-173 -197h-163z " />
<glyph unicode="&#xfc;" horiz-adv-x="1135" d="M113 387v691h174v-661q0 -134 67 -203t195 -69q66 0 120.5 22t93 62t59.5 97t21 126v626h174v-1078h-164v178h-4q-51 -94 -139.5 -141t-213.5 -47q-89 0 -159.5 27.5t-120.5 79t-76.5 125t-26.5 165.5zM256 1373q0 23 9 43.5t24 35.5t35.5 24t43.5 9t43.5 -9t35.5 -24 t24 -35.5t9 -43.5t-9 -43.5t-24 -35.5t-35.5 -24t-43.5 -9t-43.5 9t-35.5 24t-24 35.5t-9 43.5zM650 1373q0 23 9 43.5t24 35.5t35.5 24t43.5 9t43.5 -9t35.5 -24t24 -35.5t9 -43.5t-9 -43.5t-24 -35.5t-35.5 -24t-43.5 -9t-43.5 9t-35.5 24t-24 35.5t-9 43.5z" />
<glyph unicode="&#xfd;" horiz-adv-x="1026" d="M25 1078h185l302 -901h4l302 901h183l-422 -1144q-35 -94 -70 -156.5t-77.5 -100t-96 -53t-125.5 -15.5q-17 0 -38.5 2t-37.5 5v147q15 -3 34.5 -4.5t36.5 -1.5q37 0 66.5 9.5t53.5 30.5t42.5 55t35.5 83l21 64zM440 1250l211 300h198l-261 -300h-148z" />
<glyph unicode="&#xfe;" horiz-adv-x="1171" d="M128 -360v1866h164v-608h16q52 94 143 146.5t202 52.5q103 0 186.5 -39.5t143 -112.5t91.5 -176t32 -230q0 -126 -32.5 -229t-91.5 -176t-142.5 -113t-186.5 -40q-116 0 -205 47.5t-133 133.5h-15v-522h-172zM295 539q0 -93 22 -167.5t63.5 -127t100 -80.5t131.5 -28 q74 0 133 27.5t99.5 79.5t62 126.5t21.5 169.5q0 94 -21.5 169t-62 127t-99 79.5t-132.5 27.5q-73 0 -132 -28t-100 -80.5t-63.5 -127t-22.5 -167.5z" />
<glyph unicode="&#xff;" horiz-adv-x="1026" d="M25 1078h185l302 -901h4l302 901h183l-422 -1144q-35 -94 -70 -156.5t-77.5 -100t-96 -53t-125.5 -15.5q-17 0 -38.5 2t-37.5 5v147q15 -3 34.5 -4.5t36.5 -1.5q37 0 66.5 9.5t53.5 30.5t42.5 55t35.5 83l21 64zM205 1373q0 23 9 43.5t24 35.5t35.5 24t43.5 9t43.5 -9 t35.5 -24t24 -35.5t9 -43.5t-9 -43.5t-24 -35.5t-35.5 -24t-43.5 -9t-43.5 9t-35.5 24t-24 35.5t-9 43.5zM599 1373q0 23 9 43.5t24 35.5t35.5 24t43.5 9t43.5 -9t35.5 -24t24 -35.5t9 -43.5t-9 -43.5t-24 -35.5t-35.5 -24t-43.5 -9t-43.5 9t-35.5 24t-24 35.5t-9 43.5z" />
<glyph unicode="&#x100;" horiz-adv-x="1292" d="M25 0l532 1443h178l532 -1443h-189l-145 413h-574l-145 -413h-189zM329 1642v106h634v-106h-634zM412 566h468l-231 658h-6z" />
<glyph unicode="&#x101;" horiz-adv-x="1062" d="M69 307q0 140 103 219t301 91l302 18v90q0 101 -63.5 154.5t-183.5 53.5q-47 0 -87 -11.5t-71.5 -33t-52 -52.5t-28.5 -69h-167q2 68 34 127t87 102t128.5 67.5t158.5 24.5q96 0 173 -24.5t132 -70t84.5 -110t29.5 -143.5v-740h-165v187h-4q-23 -45 -59 -81.5t-81 -62 t-97.5 -39.5t-109.5 -14q-82 0 -149 22.5t-115 64t-74 100t-26 130.5zM209 1320v106h634v-106h-634zM247 306q0 -38 15.5 -68t45 -52t70.5 -33.5t92 -11.5q66 0 122 20t96.5 56t63.5 85.5t23 107.5v87l-282 -18q-122 -8 -184 -51.5t-62 -121.5z" />
<glyph unicode="&#x102;" horiz-adv-x="1292" d="M25 0l532 1443h178l532 -1443h-189l-145 413h-574l-145 -413h-189zM336 1849h119q0 -41 14.5 -77t40.5 -62.5t60.5 -41.5t75.5 -15q40 0 75 15t61 41.5t40.5 62.5t14.5 77h119q0 -66 -22.5 -121t-63.5 -94.5t-98 -61.5t-126 -22t-126 22t-98 61.5t-63.5 94.5t-22.5 121z M412 566h468l-231 658h-6z" />
<glyph unicode="&#x103;" horiz-adv-x="1062" d="M69 307q0 140 103 219t301 91l302 18v90q0 101 -63.5 154.5t-183.5 53.5q-47 0 -87 -11.5t-71.5 -33t-52 -52.5t-28.5 -69h-167q2 68 34 127t87 102t128.5 67.5t158.5 24.5q96 0 173 -24.5t132 -70t84.5 -110t29.5 -143.5v-740h-165v187h-4q-23 -45 -59 -81.5t-81 -62 t-97.5 -39.5t-109.5 -14q-82 0 -149 22.5t-115 64t-74 100t-26 130.5zM203 1550h123q0 -43 15.5 -80t42 -64.5t63 -43t78.5 -15.5t78.5 15.5t63 43t42 64.5t15.5 80h123q0 -69 -23.5 -126t-66 -98t-101.5 -63.5t-131 -22.5t-131 22.5t-101.5 63.5t-66 98t-23.5 126zM247 306 q0 -38 15.5 -68t45 -52t70.5 -33.5t92 -11.5q66 0 122 20t96.5 56t63.5 85.5t23 107.5v87l-282 -18q-122 -8 -184 -51.5t-62 -121.5z" />
<glyph unicode="&#x104;" horiz-adv-x="1292" d="M25 0l532 1443h178l527 -1429q-80 -35 -122 -85t-42 -109q0 -53 33 -85.5t87 -32.5q29 0 49 3v-126q-21 -6 -43.5 -8.5t-51.5 -2.5q-52 0 -95.5 16.5t-74.5 46.5t-48.5 71t-17.5 91q0 67 34.5 125t100.5 104l-138 391h-574l-145 -413h-189zM412 566h468l-226 644h-16z " />
<glyph unicode="&#x105;" horiz-adv-x="1062" d="M69 307q0 140 103 219t301 91l302 18v90q0 101 -63.5 154.5t-183.5 53.5q-47 0 -87 -11.5t-71.5 -33t-52 -52.5t-28.5 -69h-167q2 68 34 127t87 102t128.5 67.5t158.5 24.5q96 0 173 -24.5t132 -70t84.5 -110t29.5 -143.5v-721q-78 -35 -120 -87t-42 -112q0 -54 32 -86 t86 -32q26 0 44 3v-126q-39 -11 -88 -11q-52 0 -94.5 15.5t-73 43.5t-47 68t-16.5 88q0 146 154 240v164h-4q-23 -45 -59 -81.5t-81 -62t-97.5 -39.5t-109.5 -14q-82 0 -149 22.5t-115 64t-74 100t-26 130.5zM247 306q0 -38 15.5 -68t45 -52t70.5 -33.5t92 -11.5 q66 0 122 20t96.5 56t63.5 85.5t23 107.5v87l-282 -18q-122 -8 -184 -51.5t-62 -121.5z" />
<glyph unicode="&#x106;" horiz-adv-x="1405" d="M84 722q0 170 46 307.5t131 235t205 150t268 52.5q118 0 219.5 -34.5t180.5 -97t130.5 -151t68.5 -196.5h-182q-17 71 -55.5 128.5t-93 98.5t-123 63.5t-145.5 22.5q-106 0 -192 -41t-146.5 -117t-93.5 -182.5t-33 -238.5q0 -133 32.5 -240t93.5 -182.5t147 -116.5 t193 -41q79 0 147 18.5t121 54.5t90.5 87.5t57.5 117.5h182q-50 -215 -204 -329.5t-395 -114.5q-149 0 -269.5 52.5t-205 149.5t-130 235t-45.5 309zM663 1552l231 299h198l-281 -299h-148z" />
<glyph unicode="&#x107;" horiz-adv-x="1060" d="M65 539q0 124 35.5 225.5t100 173.5t155 111t201.5 39q100 0 180 -30t138 -80t92 -115t42 -136h-171q-8 43 -30 80.5t-57.5 65.5t-83.5 44t-109 16q-71 0 -129 -28t-99.5 -79.5t-64.5 -124.5t-23 -162q0 -92 23 -165t65 -124t100.5 -78t129.5 -27q113 0 185 51t95 149 h171q-11 -79 -48.5 -144t-96.5 -112t-137 -73t-170 -26q-111 0 -202 38t-156 109.5t-100.5 173t-35.5 228.5zM483 1250l211 300h198l-261 -300h-148z" />
<glyph unicode="&#x10c;" horiz-adv-x="1405" d="M84 722q0 170 46 307.5t131 235t205 150t268 52.5q118 0 219.5 -34.5t180.5 -97t130.5 -151t68.5 -196.5h-182q-17 71 -55.5 128.5t-93 98.5t-123 63.5t-145.5 22.5q-106 0 -192 -41t-146.5 -117t-93.5 -182.5t-33 -238.5q0 -133 32.5 -240t93.5 -182.5t147 -116.5 t193 -41q79 0 147 18.5t121 54.5t90.5 87.5t57.5 117.5h182q-50 -215 -204 -329.5t-395 -114.5q-149 0 -269.5 52.5t-205 149.5t-130 235t-45.5 309zM371 1851h168l194 -201h2l194 201h168l-292 -299h-142z" />
<glyph unicode="&#x10d;" horiz-adv-x="1060" d="M65 539q0 124 35.5 225.5t100 173.5t155 111t201.5 39q100 0 180 -30t138 -80t92 -115t42 -136h-171q-8 43 -30 80.5t-57.5 65.5t-83.5 44t-109 16q-71 0 -129 -28t-99.5 -79.5t-64.5 -124.5t-23 -162q0 -92 23 -165t65 -124t100.5 -78t129.5 -27q113 0 185 51t95 149 h171q-11 -79 -48.5 -144t-96.5 -112t-137 -73t-170 -26q-111 0 -202 38t-156 109.5t-100.5 173t-35.5 228.5zM218 1550h163l173 -197h6l173 197h163l-277 -300h-124z" />
<glyph unicode="&#x10e;" horiz-adv-x="1399" d="M140 0v1443h495q160 0 286.5 -49t214.5 -141.5t134 -226.5t46 -304q0 -171 -46 -305t-133.5 -226.5t-214 -141.5t-287.5 -49h-495zM187 1849h168l194 -201h2l194 201h168l-292 -299h-142zM320 162h303q123 0 217.5 37t159.5 108t98.5 175t33.5 238q0 135 -33.5 240 t-98 176t-159.5 108t-218 37h-303v-1119z" />
<glyph unicode="&#x10f;" horiz-adv-x="1307" d="M65 539q0 123 34 224.5t94.5 173.5t144.5 111.5t185 39.5q116 0 205 -48t139 -137h4v603h174v-1506h-166v182h-3q-53 -94 -142 -143t-207 -49q-102 0 -186.5 39.5t-146 111.5t-95.5 173.5t-34 224.5zM243 539q0 -90 22.5 -162.5t64 -124t99.5 -79.5t129 -28 q70 0 128 28.5t99 80.5t64 124.5t23 160.5t-23 160.5t-64 124.5t-99 80.5t-128 28.5q-71 0 -129 -28t-99.5 -79.5t-64 -124.5t-22.5 -162zM1196 1018v488h140l-30 -488h-110z" />
<glyph unicode="&#x110;" horiz-adv-x="1531" d="M90 663v163h129v617h495q160 0 286.5 -49t214.5 -141.5t134 -226.5t46 -304q0 -171 -46 -305t-133.5 -226.5t-214 -141.5t-287.5 -49h-495v663h-129zM399 162h303q123 0 217.5 37t159.5 108t98.5 175t33.5 238q0 135 -33.5 240t-98 176t-159.5 108t-218 37h-303v-455h277 v-163h-277v-501z" />
<glyph unicode="&#x111;" horiz-adv-x="1210" d="M84 539q0 127 32 230t91.5 176t143 112.5t186.5 39.5q57 0 108.5 -13t95 -38t77.5 -60t57 -78h15v379h-260v124h260v153h172v-153h124v-124h-124v-1287h-164v172h-16q-51 -89 -140.5 -140t-204.5 -51q-104 0 -187.5 39.5t-142.5 112.5t-91 176t-32 230zM262 539 q0 -95 21.5 -170t62.5 -126.5t99 -79t132 -27.5q73 0 132 28t100 80t63 127t22 168t-22 167.5t-63.5 127t-100 80.5t-131.5 28q-74 0 -132 -27.5t-99 -79.5t-62.5 -127t-21.5 -169z" />
<glyph unicode="&#x112;" horiz-adv-x="1131" d="M140 0v1443h894v-162h-714v-463h677v-160h-677v-496h714v-162h-894zM270 1642v106h634v-106h-634z" />
<glyph unicode="&#x113;" horiz-adv-x="1084" d="M65 535q0 125 34.5 227t98 174.5t153.5 112t200 39.5q108 0 194.5 -37t147.5 -105.5t93.5 -166.5t32.5 -220v-68h-774v-10q0 -77 22.5 -139.5t64.5 -106.5t100.5 -68t130.5 -24q51 0 95 11.5t79.5 33t60 52t36.5 68.5h172q-11 -69 -50 -127.5t-98.5 -101t-136 -66 t-162.5 -23.5q-114 0 -205 38t-155.5 109t-99 172t-34.5 226zM234 1320v106h634v-106h-634zM245 630h593q-2 69 -23.5 125t-59.5 96t-90.5 62t-116.5 22q-63 0 -117 -22t-93.5 -62t-64 -96.5t-28.5 -124.5z" />
<glyph unicode="&#x116;" horiz-adv-x="1131" d="M140 0v1443h894v-162h-714v-463h677v-160h-677v-496h714v-162h-894zM466 1706q0 25 9.5 47t26 38.5t38.5 26t47 9.5t47 -9.5t38.5 -26t26 -38.5t9.5 -47t-9.5 -47t-26 -38.5t-38.5 -26t-47 -9.5t-47 9.5t-38.5 26t-26 38.5t-9.5 47z" />
<glyph unicode="&#x117;" horiz-adv-x="1084" d="M65 535q0 125 34.5 227t98 174.5t153.5 112t200 39.5q108 0 194.5 -37t147.5 -105.5t93.5 -166.5t32.5 -220v-68h-774v-10q0 -77 22.5 -139.5t64.5 -106.5t100.5 -68t130.5 -24q51 0 95 11.5t79.5 33t60 52t36.5 68.5h172q-11 -69 -50 -127.5t-98.5 -101t-136 -66 t-162.5 -23.5q-114 0 -205 38t-155.5 109t-99 172t-34.5 226zM245 630h593q-2 69 -23.5 125t-59.5 96t-90.5 62t-116.5 22q-63 0 -117 -22t-93.5 -62t-64 -96.5t-28.5 -124.5zM427 1385q0 25 10 48t26.5 39.5t39 26.5t48.5 10q25 0 48 -10t39.5 -26.5t26.5 -39.5t10 -48 q0 -26 -10 -48.5t-26.5 -39t-39.5 -26.5t-48 -10q-26 0 -48.5 10t-39 26.5t-26.5 39t-10 48.5z" />
<glyph unicode="&#x118;" horiz-adv-x="1131" d="M140 0v1443h894v-162h-714v-463h677v-160h-677v-496h714v-124q-197 -89 -197 -224q0 -51 33.5 -81.5t88.5 -30.5q51 0 75 9v-123q-15 -9 -48.5 -14.5t-72.5 -5.5q-55 0 -99.5 15.5t-76 43.5t-48.5 67.5t-17 87.5q0 123 122 218h-654z" />
<glyph unicode="&#x119;" horiz-adv-x="1084" d="M65 535q0 125 34.5 227t98 174.5t153.5 112t200 39.5q108 0 194.5 -37t147.5 -105.5t93.5 -166.5t32.5 -220v-68h-774v-10q0 -77 22.5 -139.5t64.5 -106.5t100.5 -68t130.5 -24q51 0 95 11.5t79.5 33t60 52t36.5 68.5h172q-10 -66 -53 -130t-127 -137 q-74 -65 -106.5 -117t-32.5 -106q0 -48 32 -78t83 -30q23 0 42 2t33 7v-131q-16 -10 -47 -15t-74 -5q-49 0 -90.5 16.5t-71.5 45.5t-47 68.5t-17 86.5q0 58 23.5 105.5t76.5 100.5v3q-14 -2 -31 -3t-40 -1q-114 0 -205 38t-155.5 109t-99 172t-34.5 226zM245 630h593 q-2 69 -23.5 125t-59.5 96t-90.5 62t-116.5 22q-63 0 -117 -22t-93.5 -62t-64 -96.5t-28.5 -124.5z" />
<glyph unicode="&#x11a;" horiz-adv-x="1131" d="M140 0v1443h894v-162h-714v-463h677v-160h-677v-496h714v-162h-894zM224 1849h168l194 -201h2l194 201h168l-292 -299h-142z" />
<glyph unicode="&#x11b;" horiz-adv-x="1084" d="M65 535q0 125 34.5 227t98 174.5t153.5 112t200 39.5q108 0 194.5 -37t147.5 -105.5t93.5 -166.5t32.5 -220v-68h-774v-10q0 -77 22.5 -139.5t64.5 -106.5t100.5 -68t130.5 -24q51 0 95 11.5t79.5 33t60 52t36.5 68.5h172q-11 -69 -50 -127.5t-98.5 -101t-136 -66 t-162.5 -23.5q-114 0 -205 38t-155.5 109t-99 172t-34.5 226zM212 1550h163l173 -197h6l173 197h163l-277 -300h-124zM245 630h593q-2 69 -23.5 125t-59.5 96t-90.5 62t-116.5 22q-63 0 -117 -22t-93.5 -62t-64 -96.5t-28.5 -124.5z" />
<glyph unicode="&#x11e;" horiz-adv-x="1447" d="M84 729q0 169 46.5 305.5t132.5 232.5t208 148t274 52q117 0 218 -33.5t180 -95t132 -148.5t73 -195h-189q-23 73 -61.5 130t-91.5 96t-119 59.5t-142 20.5q-111 0 -199.5 -39t-150 -112.5t-94 -179.5t-32.5 -240q0 -136 33 -245t94.5 -185t150 -117t198.5 -41 q96 0 175.5 29.5t136.5 83.5t88.5 129t31.5 166v26h-407v158h587v-137q0 -146 -41.5 -261.5t-120 -195.5t-192.5 -122t-258 -42q-151 0 -273 53t-208.5 151.5t-133 237.5t-46.5 311zM435 1849h119q0 -41 14.5 -77t40.5 -62.5t60.5 -41.5t75.5 -15q40 0 75 15t61 41.5 t40.5 62.5t14.5 77h119q0 -66 -22.5 -121t-63.5 -94.5t-98 -61.5t-126 -22t-126 22t-98 61.5t-63.5 94.5t-22.5 121z" />
<glyph unicode="&#x11f;" horiz-adv-x="1163" d="M65 543q0 123 33 224t93 172t145 110t189 39q115 0 206 -48t145 -137h3v175h166v-1048q0 -97 -33.5 -174t-96.5 -130.5t-153.5 -82t-204.5 -28.5q-92 0 -169.5 21t-136 60t-95 94t-45.5 122h181q10 -34 34 -61t60 -46t82 -29t99 -10q70 0 126 17.5t95.5 50t61 79 t21.5 103.5v169h-4q-51 -88 -141.5 -136.5t-204.5 -48.5q-102 0 -186 39t-144 110t-93 171.5t-33 222.5zM232 1550h123q0 -43 15.5 -80t42 -64.5t63 -43t78.5 -15.5t78.5 15.5t63 43t42 64.5t15.5 80h123q0 -69 -23.5 -126t-66 -98t-101.5 -63.5t-131 -22.5t-131 22.5 t-101.5 63.5t-66 98t-23.5 126zM243 543q0 -88 22 -159.5t63 -122.5t98 -78.5t128 -27.5t129.5 28t100 79t64.5 122.5t23 158.5t-23 159t-64.5 123t-100 79.5t-129.5 28.5t-128 -28t-98 -79t-63 -123t-22 -160z" />
<glyph unicode="&#x122;" horiz-adv-x="1447" d="M84 729q0 169 46.5 305.5t132.5 232.5t208 148t274 52q117 0 218 -33.5t180 -95t132 -148.5t73 -195h-189q-23 73 -61.5 130t-91.5 96t-119 59.5t-142 20.5q-111 0 -199.5 -39t-150 -112.5t-94 -179.5t-32.5 -240q0 -136 33 -245t94.5 -185t150 -117t198.5 -41 q96 0 175.5 29.5t136.5 83.5t88.5 129t31.5 166v26h-407v158h587v-137q0 -146 -41.5 -261.5t-120 -195.5t-192.5 -122t-258 -42q-151 0 -273 53t-208.5 151.5t-133 237.5t-46.5 311zM604 -541l91 369h153l-118 -369h-126z" />
<glyph unicode="&#x123;" horiz-adv-x="1163" d="M65 543q0 123 33 224t93 172t145 110t189 39q115 0 206 -48t145 -137h3v175h166v-1048q0 -97 -33.5 -174t-96.5 -130.5t-153.5 -82t-204.5 -28.5q-92 0 -169.5 21t-136 60t-95 94t-45.5 122h181q10 -34 34 -61t60 -46t82 -29t99 -10q70 0 126 17.5t95.5 50t61 79 t21.5 103.5v169h-4q-51 -88 -141.5 -136.5t-204.5 -48.5q-102 0 -186 39t-144 110t-93 171.5t-33 222.5zM243 543q0 -88 22 -159.5t63 -122.5t98 -78.5t128 -27.5t129.5 28t100 79t64.5 122.5t23 158.5t-23 159t-64.5 123t-100 79.5t-129.5 28.5t-128 -28t-98 -79t-63 -123 t-22 -160zM416 -908l91 369h153l-118 -369h-126z" />
<glyph unicode="&#x12a;" horiz-adv-x="460" d="M-87 1642v106h634v-106h-634zM140 0v1443h180v-1443h-180z" />
<glyph unicode="&#x12b;" horiz-adv-x="430" d="M-102 1320v106h634v-106h-634zM128 0v1078h174v-1078h-174z" />
<glyph unicode="&#x12e;" horiz-adv-x="460" d="M-3 -217q0 75 33.5 131.5t109.5 108.5v1420h180v-1430q-81 -36 -123.5 -86t-42.5 -107q0 -54 32 -86t86 -32q26 0 44 3v-126q-42 -11 -88 -11q-52 0 -94.5 15.5t-73 43.5t-47 68t-16.5 88z" />
<glyph unicode="&#x12f;" horiz-adv-x="430" d="M-18 -217q0 152 146 240v1055h174v-1059q-78 -35 -120.5 -87t-42.5 -112q0 -54 32 -86t86 -32q26 0 44 3v-126q-41 -11 -88 -11q-52 0 -94.5 15.5t-73 43.5t-47 68t-16.5 88zM105 1362q0 23 8.5 43t23.5 35t35 23.5t43 8.5t43 -8.5t35 -23.5t23.5 -35t8.5 -43t-8.5 -43 t-23.5 -35t-35 -23.5t-43 -8.5t-43 8.5t-35 23.5t-23.5 35t-8.5 43z" />
<glyph unicode="&#x130;" horiz-adv-x="460" d="M109 1706q0 25 9.5 47t26 38.5t38.5 26t47 9.5t47 -9.5t38.5 -26t26 -38.5t9.5 -47t-9.5 -47t-26 -38.5t-38.5 -26t-47 -9.5t-47 9.5t-38.5 26t-26 38.5t-9.5 47zM140 0v1443h180v-1443h-180z" />
<glyph unicode="&#x131;" horiz-adv-x="430" d="M128 0v1078h174v-1078h-174z" />
<glyph unicode="&#x136;" horiz-adv-x="1260" d="M140 0v1443h180v-704h10l637 704h227l-593 -639l646 -804h-230l-541 676l-156 -172v-504h-180zM468 -541l91 369h153l-118 -369h-126z" />
<glyph unicode="&#x137;" horiz-adv-x="1026" d="M128 0v1506h174v-910l483 482h212l-471 -466l485 -612h-202l-405 505l-102 -96v-409h-174zM415 -541l91 369h153l-118 -369h-126z" />
<glyph unicode="&#x139;" horiz-adv-x="1074" d="M140 0v1443h180v-1281h696v-162h-876zM159 1550l231 299h198l-281 -299h-148z" />
<glyph unicode="&#x13a;" horiz-adv-x="430" d="M128 0v1506h174v-1506h-174zM144 1613l231 299h198l-281 -299h-148z" />
<glyph unicode="&#x13b;" horiz-adv-x="1074" d="M140 0v1443h180v-1281h696v-162h-876zM437 -541l91 369h153l-118 -369h-126z" />
<glyph unicode="&#x13c;" horiz-adv-x="430" d="M74 -541l91 369h153l-118 -369h-126zM128 0v1506h174v-1506h-174z" />
<glyph unicode="&#x13d;" horiz-adv-x="1074" d="M140 0v1443h180v-1281h696v-162h-876zM589 955v488h170l-50 -488h-120z" />
<glyph unicode="&#x13e;" horiz-adv-x="565" d="M128 0v1506h174v-1506h-174zM453 1018v488h140l-30 -488h-110z" />
<glyph unicode="&#x141;" horiz-adv-x="1074" d="M18 643v143l122 56v601h180v-519l336 153v-143l-336 -153v-619h696v-162h-876v699z" />
<glyph unicode="&#x142;" horiz-adv-x="468" d="M16 646v143l112 54v663h174v-580l142 68v-143l-142 -68v-783h-174v700z" />
<glyph unicode="&#x143;" horiz-adv-x="1432" d="M140 0v1443h175l790 -1133h9v1133h178v-1443h-175l-790 1129h-9v-1129h-178zM645 1550l231 299h198l-281 -299h-148z" />
<glyph unicode="&#x144;" horiz-adv-x="1135" d="M118 0v1078h164v-175h4q103 185 352 185q89 0 160 -27.5t121 -79t76.5 -125t26.5 -165.5v-691h-174v661q0 133 -67 202.5t-195 69.5q-66 0 -120.5 -22t-93 -62t-59.5 -97t-21 -126v-626h-174zM496 1250l211 300h198l-261 -300h-148z" />
<glyph unicode="&#x145;" horiz-adv-x="1432" d="M140 0v1443h175l790 -1133h9v1133h178v-1443h-175l-790 1129h-9v-1129h-178zM575 -541l91 369h153l-118 -369h-126z" />
<glyph unicode="&#x146;" horiz-adv-x="1135" d="M118 0v1078h164v-175h4q103 185 352 185q89 0 160 -27.5t121 -79t76.5 -125t26.5 -165.5v-691h-174v661q0 133 -67 202.5t-195 69.5q-66 0 -120.5 -22t-93 -62t-59.5 -97t-21 -126v-626h-174zM429 -541l91 369h153l-118 -369h-126z" />
<glyph unicode="&#x147;" horiz-adv-x="1432" d="M140 0v1443h175l790 -1133h9v1133h178v-1443h-175l-790 1129h-9v-1129h-178zM353 1849h168l194 -201h2l194 201h168l-292 -299h-142z" />
<glyph unicode="&#x148;" horiz-adv-x="1135" d="M118 0v1078h164v-175h4q103 185 352 185q89 0 160 -27.5t121 -79t76.5 -125t26.5 -165.5v-691h-174v661q0 133 -67 202.5t-195 69.5q-66 0 -120.5 -22t-93 -62t-59.5 -97t-21 -126v-626h-174zM231 1550h163l173 -197h6l173 197h163l-277 -300h-124z" />
<glyph unicode="&#x150;" horiz-adv-x="1498" d="M84 721q0 172 46.5 310t132.5 235t209.5 149t276.5 52t276.5 -52t209.5 -149t132.5 -235t46.5 -310t-46.5 -310t-132.5 -234.5t-209.5 -148.5t-276.5 -52t-276.5 52t-209.5 148.5t-132.5 234.5t-46.5 310zM269 721q0 -133 33.5 -240t96 -182.5t151 -116t199.5 -40.5 t199.5 40.5t151 116t96 182.5t33.5 240t-33.5 240.5t-96 183t-151 116t-199.5 40.5t-199.5 -40.5t-151 -116t-96 -183t-33.5 -240.5zM525 1550l231 299h188l-281 -299h-138zM835 1550l231 299h188l-281 -299h-138z" />
<glyph unicode="&#x151;" horiz-adv-x="1124" d="M65 539q0 126 35 227.5t100 173t156.5 110t205.5 38.5t205.5 -38.5t156.5 -110t100 -173t35 -227.5q0 -125 -35 -226.5t-100 -173t-156.5 -110.5t-205.5 -39t-205.5 39t-156.5 110.5t-100 173t-35 226.5zM242 539q0 -93 22 -166t63 -123.5t100.5 -77.5t134.5 -27 t134.5 27t101 77.5t63 123.5t21.5 166t-21.5 166t-63 124t-101 77.5t-134.5 26.5t-134.5 -27t-101 -77.5t-63 -123.5t-21.5 -166zM336 1250l196 300h195l-255 -300h-136zM652 1250l196 300h195l-255 -300h-136z" />
<glyph unicode="&#x152;" horiz-adv-x="2216" d="M84 721q0 172 47 310t134 235t211.5 149t279.5 52q162 0 288 -64t201 -184v224h874v-162h-694v-463h656v-160h-656v-496h694v-162h-874v228q-38 -60 -89 -107t-113.5 -79t-135 -49t-151.5 -17q-155 0 -279.5 52t-211.5 148.5t-134 234.5t-47 310zM269 721q0 -133 34 -240 t97.5 -182.5t153.5 -116t202 -40.5t202 40.5t153 116t97 182.5t34 240t-34 240.5t-97.5 183t-153.5 116t-201 40.5q-112 0 -202 -40.5t-153.5 -116t-97.5 -183t-34 -240.5z" />
<glyph unicode="&#x153;" horiz-adv-x="1901" d="M65 539q0 126 35 227.5t100 173t156.5 110t205.5 38.5q136 0 233.5 -52t168.5 -164h8q30 51 71.5 91t92.5 68t109.5 42.5t122.5 14.5q108 0 194.5 -37t147.5 -105.5t93.5 -166.5t32.5 -220v-68h-774v-10q0 -77 22.5 -139.5t64.5 -106.5t100.5 -68t130.5 -24q51 0 95 11.5 t79.5 33t60 52t36.5 68.5h172q-11 -69 -50 -127.5t-98.5 -101t-136 -66t-162.5 -23.5q-66 0 -126 14.5t-111.5 41.5t-94 66.5t-72.5 90.5h-8q-71 -110 -168 -161.5t-234 -51.5q-114 0 -205.5 39t-156.5 110.5t-100 173t-35 226.5zM242 539q0 -93 22 -166t63 -123.5 t100.5 -77.5t134.5 -27t134.5 27t101 77.5t63 123.5t21.5 166t-21.5 166t-63 124t-101 77.5t-134.5 26.5t-134.5 -27t-101 -77.5t-63 -123.5t-21.5 -166zM1062 630h593q-2 69 -23.5 125t-59.5 96t-90.5 62t-116.5 22q-63 0 -117 -22t-93.5 -62t-64 -96.5t-28.5 -124.5z" />
<glyph unicode="&#x154;" horiz-adv-x="1237" d="M140 0v1443h551q104 0 189 -30.5t145 -87t93 -136t33 -176.5q0 -75 -20 -141.5t-57.5 -119.5t-91 -92.5t-121.5 -60.5l334 -599h-211l-309 571h-355v-571h-180zM320 730h355q140 0 215 71.5t75 205.5q0 65 -20.5 116t-59 86.5t-93.5 54.5t-125 19h-347v-553zM464 1550 l231 299h198l-281 -299h-148z" />
<glyph unicode="&#x155;" horiz-adv-x="649" d="M118 0v1078h164v-175h4q12 42 36.5 76.5t58.5 58.5t76.5 37t89.5 13q16 0 36 -2t31 -5v-172q-11 5 -39 8.5t-51 3.5q-53 0 -95.5 -18.5t-73 -51.5t-47 -80t-16.5 -104v-667h-174zM292 1250l211 300h198l-261 -300h-148z" />
<glyph unicode="&#x158;" horiz-adv-x="1237" d="M140 0v1443h551q104 0 189 -30.5t145 -87t93 -136t33 -176.5q0 -75 -20 -141.5t-57.5 -119.5t-91 -92.5t-121.5 -60.5l334 -599h-211l-309 571h-355v-571h-180zM172 1849h168l194 -201h2l194 201h168l-292 -299h-142zM320 730h355q140 0 215 71.5t75 205.5 q0 65 -20.5 116t-59 86.5t-93.5 54.5t-125 19h-347v-553z" />
<glyph unicode="&#x159;" horiz-adv-x="649" d="M27 1550h163l173 -197h6l173 197h163l-277 -300h-124zM118 0v1078h164v-175h4q12 42 36.5 76.5t58.5 58.5t76.5 37t89.5 13q16 0 36 -2t31 -5v-172q-11 5 -39 8.5t-51 3.5q-53 0 -95.5 -18.5t-73 -51.5t-47 -80t-16.5 -104v-667h-174z" />
<glyph unicode="&#x15a;" horiz-adv-x="1216" d="M71 397h181q6 -59 36 -106.5t78.5 -81.5t114 -52.5t142.5 -18.5q73 0 135 18.5t107 51t70 77.5t25 98q0 91 -67 150t-212 97l-185 48q-100 25 -172.5 60.5t-119.5 82t-69.5 105.5t-22.5 133q0 90 37.5 165t105 129t161 84t206.5 30q108 0 198.5 -30.5t157.5 -85 t105.5 -130t41.5 -166.5h-180q-6 58 -31.5 104.5t-68.5 78.5t-101 49.5t-128 17.5t-128.5 -17.5t-100.5 -49t-65 -75t-23 -96.5q0 -41 15.5 -74t49 -60t85.5 -49.5t126 -41.5l151 -40q112 -28 191.5 -64.5t130.5 -84.5t74.5 -109t23.5 -139q0 -99 -37.5 -178.5t-108 -135 t-170.5 -85.5t-224 -30q-115 0 -210.5 30t-165.5 85t-111.5 132.5t-47.5 173.5zM551 1550l231 299h198l-281 -299h-148z" />
<glyph unicode="&#x15b;" horiz-adv-x="984" d="M70 303h175q14 -83 78.5 -126t175.5 -43q55 0 99.5 11t75.5 31.5t47.5 50t16.5 65.5q0 57 -38 90.5t-130 57.5l-189 49q-281 73 -281 288q0 68 29.5 125t82.5 98t126 64t161 23q82 0 152.5 -23t123 -64.5t83 -98t33.5 -122.5h-167q-8 76 -70 120t-161 44q-50 0 -91 -11.5 t-70 -32t-45 -49.5t-16 -64q0 -55 44 -92.5t138 -60.5l164 -41q82 -21 138.5 -46.5t91.5 -59.5t50.5 -78.5t15.5 -103.5q0 -69 -31.5 -126.5t-88 -99.5t-135 -65t-171.5 -23q-87 0 -160.5 22.5t-128.5 64t-88.5 99t-39.5 127.5zM425 1250l211 300h198l-261 -300h-148z" />
<glyph unicode="&#x15e;" horiz-adv-x="1216" d="M71 397h181q6 -59 36 -106.5t78.5 -81.5t114 -52.5t142.5 -18.5q73 0 135 18.5t107 51t70 77.5t25 98q0 91 -67 150t-212 97l-185 48q-100 25 -172.5 60.5t-119.5 82t-69.5 105.5t-22.5 133q0 90 37.5 165t105 129t161 84t206.5 30q108 0 198.5 -30.5t157.5 -85 t105.5 -130t41.5 -166.5h-180q-6 58 -31.5 104.5t-68.5 78.5t-101 49.5t-128 17.5t-128.5 -17.5t-100.5 -49t-65 -75t-23 -96.5q0 -41 15.5 -74t49 -60t85.5 -49.5t126 -41.5l151 -40q112 -28 191.5 -64.5t130.5 -84.5t74.5 -109t23.5 -139q0 -93 -33 -168.5t-95.5 -130.5 t-151.5 -88t-200 -40l-44 -120q209 0 209 -150q0 -38 -16.5 -70.5t-45.5 -56t-69 -37t-88 -13.5q-42 -1 -77.5 3t-69.5 14v98q7 -3 21 -5.5t31 -5t35.5 -3.5t34.5 -1q59 0 89.5 18.5t30.5 54.5q0 35 -35 50.5t-115 15.5h-55v74l51 134q-104 7 -190 39.5t-149 87t-100 128.5 t-43 164z" />
<glyph unicode="&#x15f;" horiz-adv-x="984" d="M70 303h175q14 -83 78.5 -126t175.5 -43q55 0 99.5 11t75.5 31.5t47.5 50t16.5 65.5q0 57 -38 90.5t-130 57.5l-189 49q-281 73 -281 288q0 68 29.5 125t82.5 98t126 64t161 23q82 0 152.5 -23t123 -64.5t83 -98t33.5 -122.5h-167q-8 76 -70 120t-161 44q-50 0 -91 -11.5 t-70 -32t-45 -49.5t-16 -64q0 -55 44 -92.5t138 -60.5l164 -41q82 -21 138.5 -46.5t91.5 -59.5t50.5 -78.5t15.5 -103.5q0 -63 -26.5 -116.5t-74 -94t-114 -66.5t-146.5 -34l-49 -135q209 0 209 -150q0 -38 -16.5 -70.5t-45.5 -56t-69 -37t-88 -13.5q-42 -1 -77.5 3 t-69.5 14v98q7 -3 21 -5.5t31 -5t35.5 -3.5t34.5 -1q59 0 89.5 18.5t30.5 54.5q0 35 -35 50.5t-115 15.5h-55v74l57 148q-78 6 -143.5 31t-113.5 65.5t-77.5 95t-35.5 119.5z" />
<glyph unicode="&#x160;" horiz-adv-x="1216" d="M71 397h181q6 -59 36 -106.5t78.5 -81.5t114 -52.5t142.5 -18.5q73 0 135 18.5t107 51t70 77.5t25 98q0 91 -67 150t-212 97l-185 48q-100 25 -172.5 60.5t-119.5 82t-69.5 105.5t-22.5 133q0 90 37.5 165t105 129t161 84t206.5 30q108 0 198.5 -30.5t157.5 -85 t105.5 -130t41.5 -166.5h-180q-6 58 -31.5 104.5t-68.5 78.5t-101 49.5t-128 17.5t-128.5 -17.5t-100.5 -49t-65 -75t-23 -96.5q0 -41 15.5 -74t49 -60t85.5 -49.5t126 -41.5l151 -40q112 -28 191.5 -64.5t130.5 -84.5t74.5 -109t23.5 -139q0 -99 -37.5 -178.5t-108 -135 t-170.5 -85.5t-224 -30q-115 0 -210.5 30t-165.5 85t-111.5 132.5t-47.5 173.5zM259 1849h168l194 -201h2l194 201h168l-292 -299h-142z" />
<glyph unicode="&#x161;" horiz-adv-x="984" d="M70 303h175q14 -83 78.5 -126t175.5 -43q55 0 99.5 11t75.5 31.5t47.5 50t16.5 65.5q0 57 -38 90.5t-130 57.5l-189 49q-281 73 -281 288q0 68 29.5 125t82.5 98t126 64t161 23q82 0 152.5 -23t123 -64.5t83 -98t33.5 -122.5h-167q-8 76 -70 120t-161 44q-50 0 -91 -11.5 t-70 -32t-45 -49.5t-16 -64q0 -55 44 -92.5t138 -60.5l164 -41q82 -21 138.5 -46.5t91.5 -59.5t50.5 -78.5t15.5 -103.5q0 -69 -31.5 -126.5t-88 -99.5t-135 -65t-171.5 -23q-87 0 -160.5 22.5t-128.5 64t-88.5 99t-39.5 127.5zM160 1550h163l173 -197h6l173 197h163 l-277 -300h-124z" />
<glyph unicode="&#x162;" horiz-adv-x="1210" d="M50 1281v162h1110v-162h-465v-1281h-22l-52 -142q209 0 209 -150q0 -38 -16.5 -70.5t-45.5 -56t-69 -37t-88 -13.5q-42 -1 -77.5 3t-69.5 14v98q7 -3 21 -5.5t31 -5t35.5 -3.5t34.5 -1q59 0 89.5 18.5t30.5 54.5q0 35 -35 50.5t-115 15.5h-55v74l60 156h-46v1281h-465z " />
<glyph unicode="&#x163;" horiz-adv-x="634" d="M25 934v144h150v243h174v-243h210v-144h-210v-647q0 -75 32.5 -109.5t101.5 -34.5q8 0 19 0.5l22 1t20 1.5t14 2v-147q-16 -4 -48.5 -6.5t-63.5 -2.5h-14l-49 -134q209 0 209 -150q0 -38 -16.5 -70.5t-45.5 -56t-69 -37t-88 -13.5q-42 -1 -77.5 3t-69.5 14v98 q7 -3 21 -5.5t31 -5t35.5 -3.5t34.5 -1q59 0 89.5 18.5t30.5 54.5q0 35 -35 50.5t-115 15.5h-55v74l62 163q-80 23 -115 89t-35 184v654h-150z" />
<glyph unicode="&#x164;" horiz-adv-x="1210" d="M50 1281v162h1110v-162h-465v-1281h-180v1281h-465zM242 1849h168l194 -201h2l194 201h168l-292 -299h-142z" />
<glyph unicode="&#x165;" horiz-adv-x="723" d="M25 934v144h150v243h174v-243h210v-144h-210v-647q0 -75 32.5 -109.5t101.5 -34.5q8 0 19 0.5l22 1t20 1.5t14 2v-147q-16 -4 -48.5 -6.5t-63.5 -2.5q-73 0 -124.5 16t-84 50.5t-47.5 89t-15 132.5v654h-150zM500 1232v488h140l-30 -488h-110z" />
<glyph unicode="&#x16a;" horiz-adv-x="1426" d="M140 506v937h180v-925q0 -82 26 -151t76.5 -119t123.5 -78t167 -28t167 28t123 78t76.5 119t26.5 151v925h180v-937q0 -116 -39 -213t-113 -167.5t-180.5 -110t-240.5 -39.5t-240.5 39.5t-180.5 110t-113 167.5t-39 213zM396 1642v106h634v-106h-634z" />
<glyph unicode="&#x16b;" horiz-adv-x="1135" d="M113 387v691h174v-661q0 -134 67 -203t195 -69q66 0 120.5 22t93 62t59.5 97t21 126v626h174v-1078h-164v178h-4q-51 -94 -139.5 -141t-213.5 -47q-89 0 -159.5 27.5t-120.5 79t-76.5 125t-26.5 165.5zM248 1320v106h634v-106h-634z" />
<glyph unicode="&#x16e;" horiz-adv-x="1426" d="M140 506v937h180v-925q0 -82 26 -151t76.5 -119t123.5 -78t167 -28t167 28t123 78t76.5 119t26.5 151v925h180v-937q0 -116 -39 -213t-113 -167.5t-180.5 -110t-240.5 -39.5t-240.5 39.5t-180.5 110t-113 167.5t-39 213zM514 1706q0 41 16 77t43 63t63 43t77 16t77 -16 t63 -43t43 -63t16 -77t-16 -77t-43 -63t-63 -43t-77 -16t-77 16t-63 43t-43 63t-16 77zM597 1706q0 -24 9 -45t25 -37t37 -25t45 -9t45 9t37 25t25 37t9 45t-9 45t-25 37t-37 25t-45 9t-45 -9t-37 -25t-25 -37t-9 -45z" />
<glyph unicode="&#x16f;" horiz-adv-x="1135" d="M113 387v691h174v-661q0 -134 67 -203t195 -69q66 0 120.5 22t93 62t59.5 97t21 126v626h174v-1078h-164v178h-4q-51 -94 -139.5 -141t-213.5 -47q-89 0 -159.5 27.5t-120.5 79t-76.5 125t-26.5 165.5zM366 1383q0 41 16 77t43 63t63 43t77 16t77 -16t63 -43t43 -63 t16 -77t-16 -77t-43 -63t-63 -43t-77 -16t-77 16t-63 43t-43 63t-16 77zM449 1383q0 -24 9 -45t25 -37t37 -25t45 -9t45 9t37 25t25 37t9 45t-9 45t-25 37t-37 25t-45 9t-45 -9t-37 -25t-25 -37t-9 -45z" />
<glyph unicode="&#x170;" horiz-adv-x="1426" d="M140 506v937h180v-925q0 -82 26 -151t76.5 -119t123.5 -78t167 -28t167 28t123 78t76.5 119t26.5 151v925h180v-937q0 -116 -39 -213t-113 -167.5t-180.5 -110t-240.5 -39.5t-240.5 39.5t-180.5 110t-113 167.5t-39 213zM489 1550l231 299h188l-281 -299h-138zM799 1550 l231 299h188l-281 -299h-138z" />
<glyph unicode="&#x171;" horiz-adv-x="1135" d="M113 387v691h174v-661q0 -134 67 -203t195 -69q66 0 120.5 22t93 62t59.5 97t21 126v626h174v-1078h-164v178h-4q-51 -94 -139.5 -141t-213.5 -47q-89 0 -159.5 27.5t-120.5 79t-76.5 125t-26.5 165.5zM339 1250l196 300h195l-255 -300h-136zM655 1250l196 300h195 l-255 -300h-136z" />
<glyph unicode="&#x172;" horiz-adv-x="1426" d="M140 506v937h180v-925q0 -86 28 -155.5t79 -118.5t123.5 -75.5t162.5 -26.5t162.5 26.5t123.5 75.5t79 118.5t28 155.5v925h180v-937q0 -82 -17 -146t-44.5 -114.5t-62.5 -90.5t-72 -73q-37 -34 -72.5 -64t-63 -60.5t-44.5 -65t-17 -76.5q0 -24 9.5 -44.5t26 -35.5 t39.5 -24t49 -9q33 0 66 6v-124q-21 -8 -51.5 -12.5t-60.5 -4.5q-51 0 -94 16t-74.5 43.5t-49 66t-17.5 83.5q0 120 98 216v4q-27 -9 -61.5 -15t-59.5 -6q-129 0 -235 38t-181 107t-116 167t-41 218z" />
<glyph unicode="&#x173;" horiz-adv-x="1135" d="M113 387v691h174v-661q0 -134 67 -203t195 -69q66 0 120.5 22t93 62t59.5 97t21 126v626h174v-1059q-78 -35 -120 -87t-42 -112q0 -54 32 -86t86 -32q26 0 44 3v-126q-41 -11 -88 -11q-52 0 -94.5 15.5t-73 43.5t-47 68t-16.5 88q0 146 155 240v155h-4 q-51 -94 -139.5 -141t-213.5 -47q-89 0 -159.5 27.5t-120.5 79t-76.5 125t-26.5 165.5z" />
<glyph unicode="&#x178;" horiz-adv-x="1254" d="M25 1443h205l394 -648h6l394 648h205l-512 -822v-621h-180v621zM318 1697q0 23 9 43.5t24 35.5t35.5 24t43.5 9t43.5 -9t35.5 -24t24 -35.5t9 -43.5t-9 -43.5t-24 -35.5t-35.5 -24t-43.5 -9t-43.5 9t-35.5 24t-24 35.5t-9 43.5zM712 1697q0 23 9 43.5t24 35.5t35.5 24 t43.5 9t43.5 -9t35.5 -24t24 -35.5t9 -43.5t-9 -43.5t-24 -35.5t-35.5 -24t-43.5 -9t-43.5 9t-35.5 24t-24 35.5t-9 43.5z" />
<glyph unicode="&#x179;" horiz-adv-x="1263" d="M98 0v128l823 1146v7h-795v162h1022v-128l-819 -1146v-7h836v-162h-1067zM561 1550l231 299h198l-281 -299h-148z" />
<glyph unicode="&#x17a;" horiz-adv-x="990" d="M95 0v126l601 805v3h-600v144h796v-129l-597 -802v-3h600v-144h-800zM421 1250l211 300h198l-261 -300h-148z" />
<glyph unicode="&#x17b;" horiz-adv-x="1263" d="M98 0v128l823 1146v7h-795v162h1022v-128l-819 -1146v-7h836v-162h-1067zM511 1706q0 25 9.5 47t26 38.5t38.5 26t47 9.5t47 -9.5t38.5 -26t26 -38.5t9.5 -47t-9.5 -47t-26 -38.5t-38.5 -26t-47 -9.5t-47 9.5t-38.5 26t-26 38.5t-9.5 47z" />
<glyph unicode="&#x17c;" horiz-adv-x="990" d="M95 0v126l601 805v3h-600v144h796v-129l-597 -802v-3h600v-144h-800zM371 1385q0 25 10 48t26.5 39.5t39 26.5t48.5 10q25 0 48 -10t39.5 -26.5t26.5 -39.5t10 -48q0 -26 -10 -48.5t-26.5 -39t-39.5 -26.5t-48 -10q-26 0 -48.5 10t-39 26.5t-26.5 39t-10 48.5z" />
<glyph unicode="&#x17d;" horiz-adv-x="1263" d="M98 0v128l823 1146v7h-795v162h1022v-128l-819 -1146v-7h836v-162h-1067zM269 1849h168l194 -201h2l194 201h168l-292 -299h-142z" />
<glyph unicode="&#x17e;" horiz-adv-x="990" d="M95 0v126l601 805v3h-600v144h796v-129l-597 -802v-3h600v-144h-800zM156 1550h163l173 -197h6l173 197h163l-277 -300h-124z" />
<glyph unicode="&#x192;" d="M37 23v167q19 -12 43.5 -22t51.5 -17.5t54.5 -11.5t52.5 -4q110 0 166.5 53t73.5 174l53 368h-336v144h357l34 237q26 176 128 266t276 90q57 0 113.5 -10.5t98.5 -30.5v-157q-42 20 -91 31t-99 11q-116 0 -177 -50.5t-77 -160.5l-32 -226h368v-144h-389l-56 -388 q-26 -186 -123.5 -276t-271.5 -90q-57 0 -115 12.5t-103 34.5z" />
<glyph unicode="&#x218;" horiz-adv-x="1216" d="M71 397h181q6 -59 36 -106.5t78.5 -81.5t114 -52.5t142.5 -18.5q73 0 135 18.5t107 51t70 77.5t25 98q0 91 -67 150t-212 97l-185 48q-100 25 -172.5 60.5t-119.5 82t-69.5 105.5t-22.5 133q0 90 37.5 165t105 129t161 84t206.5 30q108 0 198.5 -30.5t157.5 -85 t105.5 -130t41.5 -166.5h-180q-6 58 -31.5 104.5t-68.5 78.5t-101 49.5t-128 17.5t-128.5 -17.5t-100.5 -49t-65 -75t-23 -96.5q0 -41 15.5 -74t49 -60t85.5 -49.5t126 -41.5l151 -40q112 -28 191.5 -64.5t130.5 -84.5t74.5 -109t23.5 -139q0 -99 -37.5 -178.5t-108 -135 t-170.5 -85.5t-224 -30q-115 0 -210.5 30t-165.5 85t-111.5 132.5t-47.5 173.5zM465 -541l91 369h153l-118 -369h-126z" />
<glyph unicode="&#x219;" horiz-adv-x="984" d="M70 303h175q14 -83 78.5 -126t175.5 -43q55 0 99.5 11t75.5 31.5t47.5 50t16.5 65.5q0 57 -38 90.5t-130 57.5l-189 49q-281 73 -281 288q0 68 29.5 125t82.5 98t126 64t161 23q82 0 152.5 -23t123 -64.5t83 -98t33.5 -122.5h-167q-8 76 -70 120t-161 44q-50 0 -91 -11.5 t-70 -32t-45 -49.5t-16 -64q0 -55 44 -92.5t138 -60.5l164 -41q82 -21 138.5 -46.5t91.5 -59.5t50.5 -78.5t15.5 -103.5q0 -69 -31.5 -126.5t-88 -99.5t-135 -65t-171.5 -23q-87 0 -160.5 22.5t-128.5 64t-88.5 99t-39.5 127.5zM346 -541l91 369h153l-118 -369h-126z" />
<glyph unicode="&#x21a;" horiz-adv-x="1210" d="M50 1281v162h1110v-162h-465v-1281h-180v1281h-465zM464 -541l91 369h153l-118 -369h-126z" />
<glyph unicode="&#x21b;" horiz-adv-x="634" d="M25 934v144h150v243h174v-243h210v-144h-210v-647q0 -75 32.5 -109.5t101.5 -34.5q8 0 19 0.5l22 1t20 1.5t14 2v-147q-16 -4 -48.5 -6.5t-63.5 -2.5q-73 0 -124.5 16t-84 50.5t-47.5 89t-15 132.5v654h-150zM226 -541l91 369h153l-118 -369h-126z" />
<glyph unicode="&#x2c6;" horiz-adv-x="1006" d="M164 1250l277 300h124l277 -300h-163l-173 197h-6l-173 -197h-163z" />
<glyph unicode="&#x2da;" horiz-adv-x="1048" d="M325 1385q0 41 16 77t43 63t63 43t77 16t77 -16t63 -43t43 -63t16 -77t-16 -77t-43 -63t-63 -43t-77 -16t-77 16t-63 43t-43 63t-16 77zM408 1385q0 -24 9 -45t25 -37t37 -25t45 -9t45 9t37 25t25 37t9 45t-9 45t-25 37t-37 25t-45 9t-45 -9t-37 -25t-25 -37t-9 -45z" />
<glyph unicode="&#x2dc;" horiz-adv-x="1006" d="M199 1273q0 118 46.5 184t131.5 66q34 0 61.5 -11.5t49.5 -28t40 -36.5t35 -36.5t33 -28t35 -11.5q62 0 62 138h114q0 -57 -12.5 -103.5t-35.5 -79.5t-55.5 -50.5t-72.5 -17.5q-32 0 -57.5 11.5t-46.5 28t-39 36.5t-35 36.5t-34 28t-37 11.5q-33 0 -51 -35.5t-18 -101.5 h-114z" />
<glyph unicode="&#x3a9;" horiz-adv-x="1530" d="M105 0v162h311v7q-74 51 -132 118t-97.5 147.5t-60.5 172t-21 190.5q0 148 47.5 271.5t134.5 212t208.5 137.5t269.5 49t269.5 -49t208.5 -137.5t134.5 -212t47.5 -271.5q0 -99 -21 -190.5t-60.5 -172t-97.5 -147.5t-132 -118v-7h311v-162h-526v193q87 58 151.5 123 t106.5 138.5t62.5 157.5t20.5 181q0 117 -32.5 211t-94 160t-149.5 101.5t-199 35.5t-199 -35.5t-149.5 -101.5t-94 -160t-32.5 -211q0 -97 20.5 -181t62.5 -157.5t106.5 -138.5t151.5 -123v-193h-526z" />
<glyph unicode="&#x3c0;" horiz-adv-x="1345" d="M65 929v149h1195v-149h-215v-654q0 -68 23.5 -97t71.5 -29q25 0 54 8l10 -149q-12 -3 -21.5 -4.5t-20 -3t-23 -2t-29.5 -0.5q-120 0 -176 61t-56 199v671h-454v-929h-167v929h-192z" />
<glyph unicode="&#x401;" horiz-adv-x="1151" d="M150 0v1443h894v-162h-714v-463h677v-160h-677v-496h714v-162h-894zM288 1697q0 23 9 43.5t24 35.5t35.5 24t43.5 9t43.5 -9t35.5 -24t24 -35.5t9 -43.5t-9 -43.5t-24 -35.5t-35.5 -24t-43.5 -9t-43.5 9t-35.5 24t-24 35.5t-9 43.5zM682 1697q0 23 9 43.5t24 35.5 t35.5 24t43.5 9t43.5 -9t35.5 -24t24 -35.5t9 -43.5t-9 -43.5t-24 -35.5t-35.5 -24t-43.5 -9t-43.5 9t-35.5 24t-24 35.5t-9 43.5z" />
<glyph unicode="&#x402;" horiz-adv-x="1677" d="M60 1281v162h1110v-162h-465v-520h8q66 72 160.5 109t205.5 37q107 0 195 -33.5t151 -94.5t97.5 -146.5t34.5 -190.5q0 -104 -31.5 -188.5t-89 -144.5t-139.5 -92.5t-182 -32.5q-38 0 -75 5t-55 13v161q19 -7 55 -11.5t73 -4.5q61 0 110 20t83.5 58t52.5 92.5t18 122.5 q0 69 -22 125.5t-62.5 96t-97.5 61.5t-127 22q-57 0 -113.5 -16t-105 -44t-86 -66.5t-58.5 -83.5v-535h-180v1281h-465z" />
<glyph unicode="&#x403;" horiz-adv-x="1071" d="M150 0v1443h856v-164h-675v-1279h-181zM512 1550l231 299h198l-281 -299h-148z" />
<glyph unicode="&#x404;" horiz-adv-x="1421" d="M94 722q0 170 46 307.5t131 235t205 150t268 52.5q115 0 215 -33t178 -93t130 -144.5t72 -188.5h-184q-20 67 -58.5 121t-92 92t-120 59t-140.5 21q-96 0 -176.5 -34t-141 -96.5t-97.5 -151.5t-45 -200h640v-162h-643q4 -119 40 -214t96.5 -162t144 -103t183.5 -36 q155 0 261 67.5t149 192.5h184q-27 -103 -79 -182.5t-128 -133.5t-173.5 -82t-214.5 -28q-149 0 -269.5 52.5t-205 149.5t-130 235t-45.5 309z" />
<glyph unicode="&#x405;" horiz-adv-x="1235" d="M80 397h181q6 -59 36 -106.5t78.5 -81.5t114 -52.5t142.5 -18.5q73 0 135 18.5t107 51t70 77.5t25 98q0 91 -67 150t-212 97l-185 48q-100 25 -172.5 60.5t-119.5 82t-69.5 105.5t-22.5 133q0 90 37.5 165t105 129t161 84t206.5 30q108 0 198.5 -30.5t157.5 -85 t105.5 -130t41.5 -166.5h-180q-6 58 -31.5 104.5t-68.5 78.5t-101 49.5t-128 17.5t-128.5 -17.5t-100.5 -49t-65 -75t-23 -96.5q0 -41 15.5 -74t49 -60t85.5 -49.5t126 -41.5l151 -40q112 -28 191.5 -64.5t130.5 -84.5t74.5 -109t23.5 -139q0 -99 -37.5 -178.5t-108 -135 t-170.5 -85.5t-224 -30q-115 0 -210.5 30t-165.5 85t-111.5 132.5t-47.5 173.5z" />
<glyph unicode="&#x406;" horiz-adv-x="480" d="M150 0v1443h180v-1443h-180z" />
<glyph unicode="&#x407;" horiz-adv-x="480" d="M-69 1697q0 23 9 43.5t24 35.5t35.5 24t43.5 9t43.5 -9t35.5 -24t24 -35.5t9 -43.5t-9 -43.5t-24 -35.5t-35.5 -24t-43.5 -9t-43.5 9t-35.5 24t-24 35.5t-9 43.5zM150 0v1443h180v-1443h-180zM325 1697q0 23 9 43.5t24 35.5t35.5 24t43.5 9t43.5 -9t35.5 -24t24 -35.5 t9 -43.5t-9 -43.5t-24 -35.5t-35.5 -24t-43.5 -9t-43.5 9t-35.5 24t-24 35.5t-9 43.5z" />
<glyph unicode="&#x408;" horiz-adv-x="1034" d="M52 339h179q1 -46 18.5 -84t47.5 -65.5t71.5 -42.5t90.5 -15q120 0 182.5 69t62.5 202v1040h180v-1041q0 -103 -29 -184t-83.5 -137t-133 -85.5t-178.5 -29.5q-90 0 -165 27.5t-129 77t-84 118t-30 150.5z" />
<glyph unicode="&#x409;" horiz-adv-x="2153" d="M50 1v161q8 -2 25 -4t29 -2q61 0 100.5 29.5t63 81.5t34.5 123.5t16 156.5l52 896h871v-535h353q102 0 187 -33.5t146.5 -93.5t96 -144t34.5 -184t-34 -183.5t-95.5 -143.5t-146 -93t-186.5 -33h-535v1281h-527l-46 -741q-8 -130 -31 -232t-66 -172.5t-109 -107.5 t-162 -37q-42 0 -70 10zM1241 162h308q156 0 240 75.5t84 215.5q0 141 -84.5 217t-239.5 76h-308v-584z" />
<glyph unicode="&#x40a;" horiz-adv-x="2154" d="M150 0v1443h180v-624h752v624h180v-624h353q102 0 187 -29.5t146.5 -82.5t96 -127t34.5 -162q0 -92 -34 -169t-95.5 -132.5t-146 -86t-186.5 -30.5h-535v657h-752v-657h-180zM1262 162h308q156 0 240 66.5t84 189.5q0 115 -84.5 177t-239.5 62h-308v-495z" />
<glyph unicode="&#x40b;" horiz-adv-x="1697" d="M60 1281v162h1110v-162h-465v-518h8q65 70 159.5 107t203.5 37q110 0 199 -35t151.5 -100.5t96.5 -158t34 -206.5v-407h-180v395q0 83 -21.5 148t-62 110t-100 68.5t-135.5 23.5q-56 0 -110.5 -16t-101.5 -44t-83.5 -66.5t-57.5 -83.5v-535h-180v1281h-465z" />
<glyph unicode="&#x40c;" horiz-adv-x="1267" d="M150 0v1443h180v-665h8l620 665h226l-656 -690l723 -753h-247l-666 701h-8v-701h-180zM532 1550l231 299h198l-281 -299h-148z" />
<glyph unicode="&#x40e;" horiz-adv-x="1220" d="M35 1443h192l391 -935h8l382 935h187l-442 -1030q-51 -120 -100 -201t-102.5 -130.5t-116.5 -70.5t-142 -21q-25 0 -46.5 3.5t-33.5 9.5v162q32 -8 80 -8q81 0 137 35.5t99 115.5zM312 1850h123q0 -42 14 -78.5t38.5 -63.5t59 -42.5t75.5 -15.5t75.5 15.5t59 42.5 t38.5 63.5t14 78.5h123q0 -66 -22.5 -121t-63.5 -94.5t-98 -61.5t-126 -22t-126 22t-98 61.5t-63.5 94.5t-22.5 121z" />
<glyph unicode="&#x40f;" horiz-adv-x="1431" d="M150 0v1443h180v-1281h771v1281h180v-1443h-482v-285h-167v285h-482z" />
<glyph unicode="&#x410;" horiz-adv-x="1312" d="M35 0l532 1443h178l532 -1443h-189l-145 413h-574l-145 -413h-189zM422 566h468l-231 658h-6z" />
<glyph unicode="&#x411;" horiz-adv-x="1257" d="M150 0v1443h843v-162h-663v-413h343q102 0 187 -32t146.5 -89.5t96 -137.5t34.5 -176t-34 -175.5t-95.5 -136.5t-146 -89t-186.5 -32h-525zM330 162h298q156 0 240 70t84 201q0 132 -84.5 202.5t-239.5 70.5h-298v-544z" />
<glyph unicode="&#x412;" horiz-adv-x="1276" d="M150 0v1443h565q93 0 169 -26t130.5 -73t84.5 -113.5t30 -147.5q0 -56 -19.5 -109t-53 -95.5t-79 -72t-97.5 -38.5v-8q73 -9 132.5 -39t101.5 -76t65 -107t23 -133q0 -95 -33 -170.5t-96 -127.5t-154 -79.5t-206 -27.5h-563zM330 159h356q164 0 247.5 64.5t83.5 190.5 t-87 189t-261 63h-339v-507zM330 821h288q161 0 245 61.5t84 179.5q0 108 -70.5 165t-202.5 57h-344v-463z" />
<glyph unicode="&#x413;" horiz-adv-x="1071" d="M150 0v1443h856v-164h-675v-1279h-181z" />
<glyph unicode="&#x414;" horiz-adv-x="1480" d="M30 162h107q39 21 67 55.5t46 81.5t28 106t14 130l55 908h893v-1281h180v-447h-167v285h-1056v-285h-167v447zM360 162h700v1119h-552l-47 -750q-4 -62 -10 -114t-17.5 -96t-29 -81.5t-44.5 -69.5v-8z" />
<glyph unicode="&#x415;" horiz-adv-x="1151" d="M150 0v1443h894v-162h-714v-463h677v-160h-677v-496h714v-162h-894z" />
<glyph unicode="&#x416;" horiz-adv-x="1967" d="M20 0l675 750l-618 693h228l578 -665h8v665h180v-665h8l580 665h223l-616 -691l681 -752h-242l-626 701h-8v-701h-180v701h-8l-631 -701h-232z" />
<glyph unicode="&#x417;" horiz-adv-x="1186" d="M75 376h174q6 -57 34 -103t74 -79t108 -50.5t136 -17.5q72 0 132 19.5t103 55t66.5 84.5t23.5 109q0 62 -22.5 111t-65.5 82.5t-104.5 51.5t-139.5 18h-203v160h195q66 0 121 19t95 53.5t62 81.5t22 104q0 56 -20 100.5t-57 76t-90.5 48.5t-119.5 17q-67 0 -122 -17 t-94.5 -48.5t-63.5 -76.5t-30 -102h-175q7 94 44 168.5t101 127t151.5 80.5t195.5 28q101 0 186 -28.5t146.5 -80t96 -122.5t34.5 -155q0 -60 -19.5 -114.5t-55 -98.5t-84.5 -75.5t-109 -46.5v-8q72 -9 129.5 -39t97.5 -76.5t61.5 -108.5t21.5 -135q0 -89 -39.5 -166.5 t-108 -134.5t-161 -89.5t-199.5 -32.5q-114 0 -209 29.5t-164 83.5t-109.5 129.5t-45.5 167.5z" />
<glyph unicode="&#x418;" horiz-adv-x="1452" d="M150 0v1443h178v-1152h16l780 1152h178v-1443h-178v1148h-16l-780 -1148h-178z" />
<glyph unicode="&#x419;" horiz-adv-x="1452" d="M150 0v1443h178v-1152h16l780 1152h178v-1443h-178v1148h-16l-780 -1148h-178zM415 1850h123q0 -42 14 -78.5t38.5 -63.5t59 -42.5t75.5 -15.5t75.5 15.5t59 42.5t38.5 63.5t14 78.5h123q0 -66 -22.5 -121t-63.5 -94.5t-98 -61.5t-126 -22t-126 22t-98 61.5t-63.5 94.5 t-22.5 121z" />
<glyph unicode="&#x41a;" horiz-adv-x="1278" d="M150 0v1443h180v-665h8l620 665h226l-656 -690l723 -753h-247l-666 701h-8v-701h-180z" />
<glyph unicode="&#x41b;" horiz-adv-x="1391" d="M50 1v161q8 -2 25 -4t29 -2q51 0 89 22t63.5 69t40.5 121t21 179l52 896h871v-1443h-180v1281h-527l-46 -741q-9 -144 -35 -248t-71 -170.5t-110 -98.5t-152 -32q-20 0 -38 2.5t-32 7.5z" />
<glyph unicode="&#x41c;" horiz-adv-x="1722" d="M150 0v1443h209l498 -1204h8l498 1204h209v-1443h-168v1112h-7l-460 -1102h-152l-460 1102h-7v-1112h-168z" />
<glyph unicode="&#x41d;" horiz-adv-x="1452" d="M150 0v1443h180v-624h792v624h180v-1443h-180v657h-792v-657h-180z" />
<glyph unicode="&#x41e;" horiz-adv-x="1518" d="M94 721q0 172 46.5 310t132.5 235t209.5 149t276.5 52t276.5 -52t209.5 -149t132.5 -235t46.5 -310t-46.5 -310t-132.5 -234.5t-209.5 -148.5t-276.5 -52t-276.5 52t-209.5 148.5t-132.5 234.5t-46.5 310zM279 721q0 -133 33.5 -240t96 -182.5t151 -116t199.5 -40.5 t199.5 40.5t151 116t96 182.5t33.5 240t-33.5 240.5t-96 183t-151 116t-199.5 40.5t-199.5 -40.5t-151 -116t-96 -183t-33.5 -240.5z" />
<glyph unicode="&#x41f;" horiz-adv-x="1431" d="M150 0v1443h1131v-1443h-178v1279h-772v-1279h-181z" />
<glyph unicode="&#x420;" horiz-adv-x="1232" d="M150 0v1443h545q102 0 186.5 -34t146 -95t95.5 -146.5t34 -187.5q0 -103 -34.5 -188.5t-96 -147t-146.5 -95.5t-187 -34h-363v-515h-180zM330 675h318q77 0 137.5 20.5t102 60t63 96t21.5 128.5q0 144 -84 223.5t-240 79.5h-318v-608z" />
<glyph unicode="&#x421;" horiz-adv-x="1421" d="M94 722q0 170 46 307.5t131 235t205 150t268 52.5q115 0 215 -33t178 -93t130 -144.5t72 -188.5h-184q-20 67 -58.5 121t-92 92t-120 59t-140.5 21q-106 0 -192 -41t-146.5 -117t-93.5 -182.5t-33 -238.5q0 -133 32.5 -240t93.5 -182.5t147 -116.5t193 -41 q155 0 261 67.5t149 192.5h184q-27 -103 -79 -182.5t-128 -133.5t-173.5 -82t-214.5 -28q-149 0 -269.5 52.5t-205 149.5t-130 235t-45.5 309z" />
<glyph unicode="&#x422;" horiz-adv-x="1230" d="M60 1281v162h1110v-162h-465v-1281h-180v1281h-465z" />
<glyph unicode="&#x423;" horiz-adv-x="1220" d="M35 1443h192l391 -935h8l382 935h187l-442 -1030q-51 -120 -100 -201t-102.5 -130.5t-116.5 -70.5t-142 -21q-25 0 -46.5 3.5t-33.5 9.5v162q32 -8 80 -8q81 0 137 35.5t99 115.5z" />
<glyph unicode="&#x424;" horiz-adv-x="1623" d="M85 727q0 133 44.5 241t127.5 185t201 121t265 48v141h178v-141q147 -3 264.5 -46.5t200.5 -121t127.5 -186.5t44.5 -242t-44.5 -241t-127.5 -185t-200.5 -121t-264.5 -48v-151h-178v151q-147 3 -265 46.5t-201 121t-127.5 186t-44.5 242.5zM267 727q0 -98 31.5 -176.5 t90.5 -135t143.5 -88.5t190.5 -35v869q-106 -4 -190.5 -36.5t-143.5 -88.5t-90.5 -134.5t-31.5 -174.5zM901 292q105 4 189.5 36t143.5 88.5t90.5 135t31.5 174.5q0 97 -31.5 176t-90.5 135.5t-143.5 88.5t-189.5 35v-869z" />
<glyph unicode="&#x425;" horiz-adv-x="1320" d="M55 0l491 723v7l-485 713h217l385 -580h7l390 580h205l-498 -722v-6l487 -715h-216l-383 575h-7l-389 -575h-204z" />
<glyph unicode="&#x426;" horiz-adv-x="1522" d="M150 0v1443h180v-1281h772v1281h180v-1281h180v-447h-167v285h-1145z" />
<glyph unicode="&#x427;" horiz-adv-x="1367" d="M125 1066v377h180v-365q0 -87 24.5 -156.5t69.5 -118t109 -75t144 -26.5q65 0 125 15.5t110 43.5t88.5 68t61.5 89v525h180v-1443h-180v684h-8q-70 -72 -165.5 -110t-210.5 -38q-119 0 -216.5 38t-166.5 107.5t-107 167t-38 217.5z" />
<glyph unicode="&#x428;" horiz-adv-x="1884" d="M150 0v1443h180v-1281h522v1281h180v-1281h522v1281h180v-1443h-1584z" />
<glyph unicode="&#x429;" horiz-adv-x="1974" d="M150 0v1443h180v-1281h522v1281h180v-1281h522v1281h180v-1281h180v-447h-167v285h-1597z" />
<glyph unicode="&#x42a;" horiz-adv-x="1502" d="M100 1281v162h510v-535h353q102 0 187 -33.5t146.5 -93.5t96 -144t34.5 -184t-34 -183.5t-95.5 -143.5t-146 -93t-186.5 -33h-535v1281h-330zM610 162h308q156 0 240 75.5t84 215.5q0 141 -84.5 217t-239.5 76h-308v-584z" />
<glyph unicode="&#x42b;" horiz-adv-x="1670" d="M150 0v1443h180v-535h353q102 0 187 -33.5t146.5 -94t96 -144t34.5 -183.5t-34 -183t-95 -143t-146 -93.5t-187 -33.5h-535zM330 162h308q156 0 240 75.5t84 215.5q0 141 -84.5 217t-239.5 76h-308v-584zM1340 0v1443h180v-1443h-180z" />
<glyph unicode="&#x42c;" horiz-adv-x="1222" d="M150 0v1443h180v-535h353q102 0 187 -33.5t146.5 -94t96 -144t34.5 -183.5t-34 -183t-95 -143t-146 -93.5t-187 -33.5h-535zM330 162h308q156 0 240 75.5t84 215.5q0 141 -84.5 217t-239.5 76h-308v-584z" />
<glyph unicode="&#x42d;" horiz-adv-x="1421" d="M82 402h184q21 -62 60 -110.5t92 -81.5t119.5 -50.5t143.5 -17.5q100 0 182.5 36t142.5 103t94.5 162t39.5 214h-643v162h640q-8 111 -44.5 200t-95.5 151.5t-139 96.5t-176 34q-74 0 -141 -21t-121.5 -59t-94.5 -92t-59 -121h-184q20 104 73 188.5t131.5 144.5t179.5 93 t216 33q148 0 267.5 -52.5t203.5 -150t129 -235t45 -307.5q0 -171 -45 -309t-128.5 -235t-203 -149.5t-268.5 -52.5q-117 0 -215.5 28t-175 82t-129.5 133.5t-80 182.5z" />
<glyph unicode="&#x42e;" horiz-adv-x="1991" d="M150 0v1443h180v-624h268q12 153 62.5 274.5t134.5 207t198 131t254 45.5q151 0 271.5 -53t204.5 -151t129 -237.5t45 -313.5q0 -173 -44.5 -312.5t-128.5 -238t-204.5 -152t-272.5 -53.5q-146 0 -263 48.5t-200.5 138t-131.5 217.5t-56 287h-266v-657h-180zM779 722 q0 -134 32 -243t92 -186t147 -119t197 -42q109 0 195 42t146 119t92 186t32 243q0 135 -32 244t-92 185.5t-146.5 118t-194.5 41.5t-194.5 -41.5t-147.5 -118t-93.5 -185.5t-32.5 -244z" />
<glyph unicode="&#x42f;" horiz-adv-x="1287" d="M55 0l414 577q-77 18 -139.5 56t-106.5 92.5t-68.5 124t-24.5 150.5q0 98 34 179.5t95.5 140t146 91t186.5 32.5h545v-1443h-180v555h-290l-398 -555h-214zM315 1000q0 -137 84.5 -210t239.5 -73h318v564h-318q-156 0 -240 -72.5t-84 -208.5z" />
<glyph unicode="&#x430;" horiz-adv-x="1076" d="M79 307q0 140 103 219t301 91l302 18v90q0 101 -63.5 154.5t-183.5 53.5q-47 0 -87 -11.5t-71.5 -33t-52 -52.5t-28.5 -69h-167q2 68 34 127t87 102t128.5 67.5t158.5 24.5q96 0 173 -24.5t132 -70t84.5 -110t29.5 -143.5v-740h-165v187h-4q-23 -45 -59 -81.5t-81 -62 t-97.5 -39.5t-109.5 -14q-82 0 -149 22.5t-115 64t-74 100t-26 130.5zM257 306q0 -38 15.5 -68t45 -52t70.5 -33.5t92 -11.5q66 0 122 20t96.5 56t63.5 85.5t23 107.5v87l-282 -18q-122 -8 -184 -51.5t-62 -121.5z" />
<glyph unicode="&#x431;" horiz-adv-x="1164" d="M85 632q0 226 30.5 387.5t99 266.5t178 157t267.5 58l77 3q38 2 78 6.5t77 12t69.5 17.5t56.5 22v-153q-13 -12 -40 -23t-63.5 -19.5t-80 -14t-89.5 -7.5l-78 -3q-113 -5 -188.5 -33.5t-124.5 -86t-76.5 -146.5t-44.5 -213h8q54 96 150.5 144.5t221.5 48.5q109 0 197 -37 t150 -105.5t95.5 -166t33.5 -218.5q0 -127 -34.5 -228.5t-99.5 -172.5t-158 -109t-210 -38q-249 0 -375.5 164t-126.5 487zM263 529q0 -188 84.5 -290.5t239.5 -102.5q77 0 137.5 26t102 76.5t63 123.5t21.5 167q0 89 -21.5 158.5t-63 117t-102 72.5t-137.5 25t-137.5 -25 t-102 -72.5t-63 -117t-21.5 -158.5z" />
<glyph unicode="&#x432;" horiz-adv-x="1041" d="M128 0v1078h462q75 0 135 -19t101.5 -55t64 -87t22.5 -115q0 -41 -13.5 -79.5t-37.5 -70t-56 -53t-69 -29.5v-8q51 -7 92 -28.5t70.5 -54.5t45.5 -76t16 -93q0 -72 -25.5 -129t-73.5 -97.5t-116.5 -62t-153.5 -21.5h-464zM300 144h288q99 0 150.5 43t51.5 126 q0 88 -57.5 130.5t-177.5 42.5h-255v-342zM300 630h240q203 0 203 154q0 73 -45 111.5t-130 38.5h-268v-304z" />
<glyph unicode="&#x433;" horiz-adv-x="888" d="M128 0v1078h690v-144h-518v-934h-172z" />
<glyph unicode="&#x434;" horiz-adv-x="1222" d="M20 144h90q30 19 52 53.5t38 78.5t25 95.5t13 105.5l42 601h735v-934h172v-429h-162v285h-843v-285h-162v429zM311 144h532v790h-409l-34 -461q-8 -101 -29 -185.5t-60 -135.5v-8z" />
<glyph unicode="&#x435;" horiz-adv-x="1104" d="M75 535q0 125 34.5 227t98 174.5t153.5 112t200 39.5q108 0 194.5 -37t147.5 -105.5t93.5 -166.5t32.5 -220v-68h-774v-10q0 -77 22.5 -139.5t64.5 -106.5t100.5 -68t130.5 -24q51 0 95 11.5t79.5 33t60 52t36.5 68.5h172q-11 -69 -50 -127.5t-98.5 -101t-136 -66 t-162.5 -23.5q-114 0 -205 38t-155.5 109t-99 172t-34.5 226zM255 630h593q-2 69 -23.5 125t-59.5 96t-90.5 62t-116.5 22q-63 0 -117 -22t-93.5 -62t-64 -96.5t-28.5 -124.5z" />
<glyph unicode="&#x436;" horiz-adv-x="1566" d="M25 0l489 565l-478 513h215l436 -479h8v479h172v-479h8l436 479h214l-476 -510l492 -568h-225l-441 521h-8v-521h-172v521h-8l-441 -521h-221z" />
<glyph unicode="&#x437;" horiz-adv-x="981" d="M60 276h177q16 -71 80 -110t166 -39q60 0 106 13.5t77.5 37.5t47.5 57.5t16 73.5q0 93 -61 136t-186 43h-163v144h163q211 0 211 161q0 34 -12.5 63t-38 50t-64 33t-91.5 12q-48 0 -89 -10t-71.5 -29t-49.5 -45t-24 -59h-170q9 66 41 119.5t84.5 91t123 58t155.5 20.5 q91 0 161 -21.5t118 -59.5t72.5 -92t24.5 -118q0 -41 -13 -79t-36.5 -69t-56.5 -53.5t-74 -31.5v-8q108 -23 162.5 -88t54.5 -159q0 -75 -30 -137t-85 -106t-132 -68.5t-171 -24.5q-88 0 -162.5 21t-130 59t-89.5 92.5t-41 121.5z" />
<glyph unicode="&#x438;" horiz-adv-x="1163" d="M128 0v1078h172v-809h8l555 809h172v-1078h-172v809h-8l-555 -809h-172z" />
<glyph unicode="&#x439;" horiz-adv-x="1163" d="M128 0v1078h172v-809h8l555 809h172v-1078h-172v809h-8l-555 -809h-172zM263 1550h128q0 -44 13.5 -81.5t39 -65.5t61 -44t80.5 -16t80.5 16t61 44t39 65.5t13.5 81.5h128q0 -69 -23.5 -126t-66 -98t-101.5 -63.5t-131 -22.5t-131 22.5t-101.5 63.5t-66 98t-23.5 126z " />
<glyph unicode="&#x43a;" horiz-adv-x="1029" d="M128 0v1078h172v-479h8l466 479h216l-507 -511l521 -567h-225l-471 521h-8v-521h-172z" />
<glyph unicode="&#x43b;" horiz-adv-x="1121" d="M30 2v158q7 -2 21 -5t33 -3q40 0 68.5 22.5t47.5 65t30 102.5t16 135l42 601h705v-1078h-172v934h-377l-34 -461q-8 -111 -27 -200t-55.5 -152t-93.5 -96.5t-141 -33.5q-23 0 -38.5 3.5t-24.5 7.5z" />
<glyph unicode="&#x43c;" horiz-adv-x="1455" d="M128 0v1078h209l390 -847h8l391 847h201v-1078h-173v767h-8l-352 -737h-134l-352 737h-8v-767h-172z" />
<glyph unicode="&#x43d;" horiz-adv-x="1148" d="M128 0v1078h172v-446h548v446h172v-1078h-172v488h-548v-488h-172z" />
<glyph unicode="&#x43e;" horiz-adv-x="1144" d="M75 539q0 126 35 227.5t100 173t156.5 110t205.5 38.5t205.5 -38.5t156.5 -110t100 -173t35 -227.5q0 -125 -35 -226.5t-100 -173t-156.5 -110.5t-205.5 -39t-205.5 39t-156.5 110.5t-100 173t-35 226.5zM252 539q0 -93 22 -166t63 -123.5t100.5 -77.5t134.5 -27 t134.5 27t101 77.5t63 123.5t21.5 166t-21.5 166t-63 124t-101 77.5t-134.5 26.5t-134.5 -27t-101 -77.5t-63 -123.5t-21.5 -166z" />
<glyph unicode="&#x43f;" horiz-adv-x="1138" d="M128 0v1078h882v-1078h-172v934h-538v-934h-172z" />
<glyph unicode="&#x440;" horiz-adv-x="1183" d="M128 -360v1438h165v-175h4q24 42 60.5 76t82 58.5t98 37.5t108.5 13q103 0 188 -39.5t146 -111.5t94.5 -173.5t33.5 -224.5t-33.5 -224.5t-93.5 -173.5t-144.5 -111.5t-186.5 -39.5q-115 0 -204 48t-140 137h-4v-535h-174zM301 539q0 -88 22.5 -160.5t64 -124.5t99 -80.5 t127.5 -28.5q71 0 129.5 28t100 79.5t64 124t22.5 162.5q0 89 -22.5 162t-64 124.5t-100 79.5t-129.5 28q-70 0 -127.5 -28.5t-99 -80.5t-64 -124.5t-22.5 -160.5z" />
<glyph unicode="&#x441;" horiz-adv-x="1078" d="M75 539q0 124 35.5 225.5t100 173.5t155 111t201.5 39q96 0 174 -27.5t135 -74.5t92.5 -108.5t47.5 -129.5h-173q-11 39 -34 73t-57.5 59t-80.5 39t-103 14q-71 0 -129 -28t-99.5 -79.5t-64.5 -124.5t-23 -162q0 -92 23 -165t65 -124t100.5 -78t129.5 -27 q108 0 178.5 46.5t96.5 135.5h173q-14 -75 -52 -137t-96.5 -106.5t-134.5 -69t-166 -24.5q-111 0 -202 38t-156 109.5t-100.5 173t-35.5 228.5z" />
<glyph unicode="&#x442;" horiz-adv-x="952" d="M40 934v144h872v-144h-350v-934h-172v934h-350z" />
<glyph unicode="&#x443;" horiz-adv-x="1046" d="M35 1078h185l302 -901h4l302 901h183l-422 -1144q-35 -94 -70 -156.5t-77.5 -100t-96 -53t-125.5 -15.5q-17 0 -38.5 2t-37.5 5v147q15 -3 34.5 -4.5t36.5 -1.5q37 0 66.5 9.5t53.5 30.5t42.5 55t35.5 83l21 64z" />
<glyph unicode="&#x444;" horiz-adv-x="1429" d="M75 539q0 125 40 226t113 173t175.5 111.5t227.5 41.5v352h168v-352q125 -2 227.5 -42t175 -112t112.5 -173t40 -225q0 -125 -40 -226t-112.5 -173t-175 -111.5t-227.5 -41.5v-347h-168v347q-125 2 -227.5 42t-175.5 112t-113 172.5t-40 225.5zM250 539q0 -92 27 -165.5 t76.5 -125.5t120 -81t157.5 -31v806q-87 -2 -157.5 -30.5t-120 -80.5t-76.5 -126t-27 -166zM799 136q87 2 157 30.5t119.5 80.5t76.5 126t27 166t-27 165.5t-76.5 125.5t-119.5 81t-157 31v-806z" />
<glyph unicode="&#x445;" horiz-adv-x="1011" d="M45 0l369 539l-363 539h194l263 -407h4l260 407h194l-365 -532l360 -546h-194l-261 413h-4l-263 -413h-194z" />
<glyph unicode="&#x446;" horiz-adv-x="1207" d="M128 0v1078h172v-934h528v934h172v-934h172v-429h-162v285h-882z" />
<glyph unicode="&#x447;" horiz-adv-x="1070" d="M100 770v308h172v-308q0 -107 55 -170t158 -63q65 0 114 16t83.5 38t56 45t31.5 37v405h172v-1078h-172v491h-8q-23 -20 -51 -39t-63.5 -34t-79 -24.5t-96.5 -9.5q-89 0 -158 28t-116.5 79t-72.5 122t-25 157z" />
<glyph unicode="&#x448;" horiz-adv-x="1588" d="M128 0v1078h172v-934h408v934h172v-934h408v934h172v-1078h-1332z" />
<glyph unicode="&#x449;" horiz-adv-x="1667" d="M128 0v1078h172v-934h408v934h172v-934h408v934h172v-934h172v-429h-162v285h-1342z" />
<glyph unicode="&#x44a;" horiz-adv-x="1180" d="M40 934v144h462v-346h203q93 0 167.5 -25.5t127.5 -73.5t81.5 -115.5t28.5 -151.5t-28.5 -151.5t-81.5 -115.5t-127.5 -73.5t-167.5 -25.5h-375v934h-290zM502 144h203q53 0 96 16t73.5 45t47 70t16.5 91q0 51 -16.5 92t-47 70t-73.5 44.5t-96 15.5h-203v-444z" />
<glyph unicode="&#x44b;" horiz-adv-x="1344" d="M128 0v1078h172v-346h203q93 0 167.5 -25.5t127.5 -73.5t81.5 -115.5t28.5 -151.5t-28.5 -151.5t-81.5 -115.5t-127.5 -73.5t-167.5 -25.5h-375zM300 144h203q53 0 96 16t73.5 45t47 70t16.5 91q0 51 -16.5 92t-47 70t-73.5 44.5t-96 15.5h-203v-444zM1044 0v1078h172 v-1078h-172z" />
<glyph unicode="&#x44c;" horiz-adv-x="978" d="M128 0v1078h172v-346h203q93 0 167.5 -25.5t127.5 -73.5t81.5 -115.5t28.5 -151.5t-28.5 -151.5t-81.5 -115.5t-127.5 -73.5t-167.5 -25.5h-375zM300 144h203q53 0 96 16t73.5 45t47 70t16.5 91q0 51 -16.5 92t-47 70t-73.5 44.5t-96 15.5h-203v-444z" />
<glyph unicode="&#x44d;" horiz-adv-x="1078" d="M60 326h173q26 -89 96.5 -135t178.5 -46q66 0 121.5 23.5t97.5 67.5t67 107.5t30 144.5h-494v144h489q-9 69 -35.5 125t-67 95t-93 60t-113.5 21q-57 0 -103 -14t-80.5 -39t-57.5 -59t-34 -73h-173q12 67 47.5 129t92.5 108.5t135 74.5t174 28q111 0 201.5 -39t155 -111 t100 -173.5t35.5 -225.5q0 -127 -35.5 -228.5t-100.5 -173t-156 -109.5t-202 -38q-90 0 -166 24.5t-134.5 68.5t-96.5 106t-52 137z" />
<glyph unicode="&#x44e;" horiz-adv-x="1544" d="M128 0v1078h172v-446h200q12 109 50 195.5t100 146.5t146 91.5t186 31.5q113 0 203 -38.5t153 -110.5t97 -175.5t34 -233.5t-34 -233.5t-97 -175.5t-153 -110.5t-203 -38.5q-107 0 -194 35t-149.5 100t-99 159t-43.5 213h-196v-488h-172zM673 539q0 -96 20.5 -170.5 t60 -126.5t97 -79t131.5 -27t131.5 27t97 79t60 126.5t20.5 170.5t-20.5 171t-60 126.5t-97 78.5t-131.5 27t-131.5 -27t-97 -78.5t-60 -126.5t-20.5 -171z" />
<glyph unicode="&#x44f;" horiz-adv-x="1020" d="M50 0l301 418q-57 16 -102.5 44.5t-77 67.5t-48 87t-16.5 104q0 83 28.5 149.5t81.5 112.5t127.5 70.5t167.5 24.5h380v-1078h-172v386h-195l-275 -386h-200zM279 725q0 -43 16.5 -78.5t47 -61.5t73.5 -40.5t96 -14.5h208v404h-208q-107 0 -170 -55t-63 -154z" />
<glyph unicode="&#x451;" horiz-adv-x="1104" d="M75 535q0 125 34.5 227t98 174.5t153.5 112t200 39.5q108 0 194.5 -37t147.5 -105.5t93.5 -166.5t32.5 -220v-68h-774v-10q0 -77 22.5 -139.5t64.5 -106.5t100.5 -68t130.5 -24q51 0 95 11.5t79.5 33t60 52t36.5 68.5h172q-11 -69 -50 -127.5t-98.5 -101t-136 -66 t-162.5 -23.5q-114 0 -205 38t-155.5 109t-99 172t-34.5 226zM252 1373q0 23 9 43.5t24 35.5t35.5 24t43.5 9t43.5 -9t35.5 -24t24 -35.5t9 -43.5t-9 -43.5t-24 -35.5t-35.5 -24t-43.5 -9t-43.5 9t-35.5 24t-24 35.5t-9 43.5zM255 630h593q-2 69 -23.5 125t-59.5 96 t-90.5 62t-116.5 22q-63 0 -117 -22t-93.5 -62t-64 -96.5t-28.5 -124.5zM646 1373q0 23 9 43.5t24 35.5t35.5 24t43.5 9t43.5 -9t35.5 -24t24 -35.5t9 -43.5t-9 -43.5t-24 -35.5t-35.5 -24t-43.5 -9t-43.5 9t-35.5 24t-24 35.5t-9 43.5z" />
<glyph unicode="&#x452;" horiz-adv-x="1204" d="M34 1247v124h122v185h174v-185h260v-124h-260v-344h4q102 185 352 185q88 0 161 -29t125 -81.5t80.5 -126t28.5 -163.5v-772q0 -165 -81.5 -239.5t-251.5 -74.5h-30v147h26q46 0 77.5 9.5t50.5 29.5t27 51.5t8 76.5v741q0 64 -18.5 115.5t-54 87t-86 54.5t-114.5 19 q-68 0 -124 -22.5t-96 -63.5t-62 -98.5t-22 -128.5v-620h-174v1247h-122z" />
<glyph unicode="&#x453;" horiz-adv-x="897" d="M128 0v1078h690v-144h-518v-934h-172zM378 1250l211 300h198l-261 -300h-148z" />
<glyph unicode="&#x454;" horiz-adv-x="1078" d="M75 539q0 124 35.5 225.5t100 173.5t155 111t201.5 39q96 0 174 -28t135 -74.5t92.5 -108.5t47.5 -129h-173q-11 39 -34 73t-57.5 59t-80.5 39t-103 14q-61 0 -113.5 -21t-93 -60t-67 -95t-35.5 -125h489v-144h-494q4 -81 29.5 -144.5t67.5 -107.5t97.5 -67.5 t121.5 -23.5q108 0 178.5 46t96.5 135h173q-14 -75 -52 -137t-96.5 -106t-134.5 -68.5t-166 -24.5q-111 0 -202 38t-156 109.5t-100.5 173t-35.5 228.5z" />
<glyph unicode="&#x455;" horiz-adv-x="1003" d="M80 303h175q14 -83 78.5 -126t175.5 -43q55 0 99.5 11t75.5 31.5t47.5 50t16.5 65.5q0 57 -38 90.5t-130 57.5l-189 49q-281 73 -281 288q0 68 29.5 125t82.5 98t126 64t161 23q82 0 152.5 -23t123 -64.5t83 -98t33.5 -122.5h-167q-8 76 -70 120t-161 44q-50 0 -91 -11.5 t-70 -32t-45 -49.5t-16 -64q0 -55 44 -92.5t138 -60.5l164 -41q82 -21 138.5 -46.5t91.5 -59.5t50.5 -78.5t15.5 -103.5q0 -69 -31.5 -126.5t-88 -99.5t-135 -65t-171.5 -23q-87 0 -160.5 22.5t-128.5 64t-88.5 99t-39.5 127.5z" />
<glyph unicode="&#x456;" horiz-adv-x="450" d="M115 1362q0 23 8.5 43t23.5 35t35 23.5t43 8.5t43 -8.5t35 -23.5t23.5 -35t8.5 -43t-8.5 -43t-23.5 -35t-35 -23.5t-43 -8.5t-43 8.5t-35 23.5t-23.5 35t-8.5 43zM138 0v1078h174v-1078h-174z" />
<glyph unicode="&#x457;" horiz-adv-x="450" d="M-84 1373q0 23 9 43.5t24 35.5t35.5 24t43.5 9t43.5 -9t35.5 -24t24 -35.5t9 -43.5t-9 -43.5t-24 -35.5t-35.5 -24t-43.5 -9t-43.5 9t-35.5 24t-24 35.5t-9 43.5zM138 0v1078h174v-1078h-174zM310 1373q0 23 9 43.5t24 35.5t35.5 24t43.5 9t43.5 -9t35.5 -24t24 -35.5 t9 -43.5t-9 -43.5t-24 -35.5t-35.5 -24t-43.5 -9t-43.5 9t-35.5 24t-24 35.5t-9 43.5z" />
<glyph unicode="&#x458;" horiz-adv-x="463" d="M-50 -251h27q44 0 75 9t50 29t27.5 51.5t8.5 77.5v1162h174v-1159q0 -164 -79.5 -240.5t-251.5 -76.5h-31v147zM115 1362q0 23 8.5 43t23.5 35t35 23.5t43 8.5t43 -8.5t35 -23.5t23.5 -35t8.5 -43t-8.5 -43t-23.5 -35t-35 -23.5t-43 -8.5t-43 8.5t-35 23.5t-23.5 35 t-8.5 43z" />
<glyph unicode="&#x459;" horiz-adv-x="1671" d="M30 2v158q7 -2 21 -5t33 -3q40 0 68.5 22.5t47.5 65t30 102.5t16 135l42 601h705v-346h203q93 0 167.5 -25.5t127.5 -73.5t81.5 -115.5t28.5 -151.5t-28.5 -151.5t-81.5 -115.5t-127.5 -73.5t-167.5 -25.5h-375v934h-377l-34 -461q-8 -111 -27 -200t-55.5 -152 t-93.5 -96.5t-141 -33.5q-23 0 -38.5 3.5t-24.5 7.5zM993 144h203q53 0 96 16t73.5 45t47 70t16.5 91q0 51 -16.5 92t-47 70t-73.5 44.5t-96 15.5h-203v-444z" />
<glyph unicode="&#x45a;" horiz-adv-x="1678" d="M128 0v1078h172v-416h528v416h172v-416h213q90 0 163 -23t124.5 -66t79.5 -104.5t28 -137.5t-28 -137.5t-79.5 -104.5t-124.5 -66t-163 -23h-385v518h-528v-518h-172zM1000 144h213q51 0 92 13.5t70.5 38t45 59t15.5 76.5q0 43 -16 77.5t-45 59t-70 37.5t-92 13h-213 v-374z" />
<glyph unicode="&#x45b;" horiz-adv-x="1204" d="M34 1247v124h122v185h174v-185h260v-124h-260v-344h4q102 185 352 185q88 0 161 -29t125 -81.5t80.5 -126t28.5 -163.5v-688h-174v657q0 64 -18.5 115.5t-54 87t-86 54.5t-114.5 19q-68 0 -124 -22.5t-96 -63.5t-62 -98.5t-22 -128.5v-620h-174v1247h-122z" />
<glyph unicode="&#x45c;" horiz-adv-x="1029" d="M128 0v1078h172v-479h8l466 479h216l-507 -511l521 -567h-225l-471 521h-8v-521h-172zM438 1250l211 300h198l-261 -300h-148z" />
<glyph unicode="&#x45e;" horiz-adv-x="1046" d="M35 1078h185l302 -901h4l302 901h183l-422 -1144q-35 -94 -70 -156.5t-77.5 -100t-96 -53t-125.5 -15.5q-17 0 -38.5 2t-37.5 5v147q15 -3 34.5 -4.5t36.5 -1.5q37 0 66.5 9.5t53.5 30.5t42.5 55t35.5 83l21 64zM201 1550h128q0 -44 13.5 -81.5t39 -65.5t61 -44t80.5 -16 t80.5 16t61 44t39 65.5t13.5 81.5h128q0 -69 -23.5 -126t-66 -98t-101.5 -63.5t-131 -22.5t-131 22.5t-101.5 63.5t-66 98t-23.5 126z" />
<glyph unicode="&#x45f;" horiz-adv-x="1138" d="M128 0v1078h172v-934h538v934h172v-1078h-360v-285h-162v285h-360z" />
<glyph unicode="&#x490;" horiz-adv-x="1071" d="M150 0v1443h689v285h167v-449h-675v-1279h-181z" />
<glyph unicode="&#x491;" horiz-adv-x="888" d="M128 0v1078h528v285h162v-429h-518v-934h-172z" />
<glyph unicode="&#x2000;" horiz-adv-x="956" />
<glyph unicode="&#x2001;" horiz-adv-x="1912" />
<glyph unicode="&#x2002;" horiz-adv-x="956" />
<glyph unicode="&#x2003;" horiz-adv-x="1912" />
<glyph unicode="&#x2004;" horiz-adv-x="637" />
<glyph unicode="&#x2005;" horiz-adv-x="478" />
<glyph unicode="&#x2006;" horiz-adv-x="318" />
<glyph unicode="&#x2007;" horiz-adv-x="318" />
<glyph unicode="&#x2008;" horiz-adv-x="239" />
<glyph unicode="&#x2009;" horiz-adv-x="382" />
<glyph unicode="&#x200a;" horiz-adv-x="106" />
<glyph unicode="&#x2010;" horiz-adv-x="878" d="M111 488v162h656v-162h-656z" />
<glyph unicode="&#x2011;" horiz-adv-x="878" d="M111 488v162h656v-162h-656z" />
<glyph unicode="&#x2012;" horiz-adv-x="878" d="M111 488v162h656v-162h-656z" />
<glyph unicode="&#x2013;" horiz-adv-x="1024" d="M0 504v162h1024v-162h-1024z" />
<glyph unicode="&#x2014;" horiz-adv-x="2048" d="M0 504v162h2048v-162h-2048z" />
<glyph unicode="&#x2018;" horiz-adv-x="538" d="M81 1443h175l127 -509h-155z" />
<glyph unicode="&#x2019;" horiz-adv-x="538" d="M155 934l127 509h175l-147 -509h-155z" />
<glyph unicode="&#x201a;" horiz-adv-x="538" d="M85 -387l127 509h175l-147 -509h-155z" />
<glyph unicode="&#x201c;" horiz-adv-x="926" d="M81 1443h175l127 -509h-155zM469 1443h175l127 -509h-155z" />
<glyph unicode="&#x201d;" horiz-adv-x="926" d="M155 934l127 509h175l-147 -509h-155zM543 934l127 509h175l-147 -509h-155z" />
<glyph unicode="&#x201e;" horiz-adv-x="926" d="M85 -387l127 509h175l-147 -509h-155zM473 -387l127 509h175l-147 -509h-155z" />
<glyph unicode="&#x2022;" horiz-adv-x="988" d="M190 606q0 63 24 118t65.5 96.5t96.5 65.5t118 24t118 -24t96.5 -65.5t65.5 -96.5t24 -118t-24 -118t-65.5 -96.5t-96.5 -65.5t-118 -24t-118 24t-96.5 65.5t-65.5 96.5t-24 118z" />
<glyph unicode="&#x2026;" horiz-adv-x="1514" d="M146 104q0 24 9 45t24 36.5t36 24t45 8.5q49 0 81.5 -32.5t32.5 -81.5q0 -24 -8.5 -45t-24 -36t-36.5 -24t-45 -9t-45 9t-36 24t-24 36t-9 45zM645 104q0 24 9 45t24 36.5t36 24t45 8.5q49 0 81.5 -32.5t32.5 -81.5q0 -24 -8.5 -45t-24 -36t-36.5 -24t-45 -9t-45 9 t-36 24t-24 36t-9 45zM1140 104q0 24 9 45t24 36.5t36 24t45 8.5q49 0 81.5 -32.5t32.5 -81.5q0 -24 -8.5 -45t-24 -36t-36.5 -24t-45 -9t-45 9t-36 24t-24 36t-9 45z" />
<glyph unicode="&#x202f;" horiz-adv-x="382" />
<glyph unicode="&#x2030;" horiz-adv-x="2182" d="M50 1102q0 81 21.5 147.5t61.5 113.5t95.5 72.5t124.5 25.5t124.5 -25.5t95 -72.5t61 -113.5t21.5 -147.5q0 -82 -21.5 -148.5t-61 -113.5t-95 -72.5t-124.5 -25.5t-124.5 25.5t-95.5 72.5t-61.5 113.5t-21.5 148.5zM137 0l1056 1443h172l-1054 -1443h-174zM210 1102 q0 -55 10 -99t28.5 -75t45 -47.5t59.5 -16.5t59.5 16.5t44.5 47.5t28 75t10 99q0 112 -37 174t-105 62q-66 0 -104.5 -63.5t-38.5 -172.5zM853 344q0 81 21.5 147.5t61.5 113.5t95.5 72.5t124.5 25.5t124.5 -25.5t95 -72.5t61 -113.5t21.5 -147.5q0 -82 -21.5 -148.5 t-61 -113.5t-95 -72.5t-124.5 -25.5t-124.5 25.5t-95.5 72.5t-61.5 113.5t-21.5 148.5zM1013 344q0 -55 10 -99t28.5 -75t45 -47.5t59.5 -16.5t59.5 16.5t44.5 47.5t28 75t10 99q0 112 -37 174t-105 62q-66 0 -104.5 -63.5t-38.5 -172.5zM1527 344q0 81 21.5 147.5 t61.5 113.5t95.5 72.5t124.5 25.5t124.5 -25.5t95 -72.5t61 -113.5t21.5 -147.5q0 -82 -21.5 -148.5t-61 -113.5t-95 -72.5t-124.5 -25.5t-124.5 25.5t-95.5 72.5t-61.5 113.5t-21.5 148.5zM1687 344q0 -55 10 -99t28.5 -75t45 -47.5t59.5 -16.5t59.5 16.5t44.5 47.5t28 75 t10 99q0 112 -37 174t-105 62q-66 0 -104.5 -63.5t-38.5 -172.5z" />
<glyph unicode="&#x2039;" horiz-adv-x="824" d="M135 561v8l350 416h204l-351 -413v-14l351 -413h-204z" />
<glyph unicode="&#x203a;" horiz-adv-x="824" d="M135 145l351 413v14l-351 413h204l350 -416v-8l-350 -416h-204z" />
<glyph unicode="&#x2044;" horiz-adv-x="138" d="M-545 0l1056 1443h172l-1054 -1443h-174z" />
<glyph unicode="&#x205f;" horiz-adv-x="478" />
<glyph unicode="&#x20ac;" d="M54 494v136h189q-2 22 -3 45t-1 46q0 26 1 50t3 48h-189v136h212q33 128 99.5 224t157.5 160t201.5 96t232.5 32q26 0 55.5 -1.5t57 -4.5t50.5 -7t38 -9v-163q-15 4 -38.5 7t-51 5.5t-56.5 4t-55 1.5q-88 0 -166 -22t-142 -65.5t-112.5 -108t-76.5 -149.5h540v-136h-570 q-2 -23 -3.5 -48t-1.5 -51q0 -23 1.5 -45.5t3.5 -44.5h570v-136h-543q28 -87 76 -153.5t112.5 -110.5t143.5 -66.5t168 -22.5q26 0 55 1t56.5 3.5t51 5.5t38.5 8v-162q-15 -5 -38 -9t-50.5 -6.5t-57 -4t-55.5 -1.5q-123 0 -234.5 32.5t-202.5 97t-157.5 161.5t-97.5 227 h-211z" />
<glyph unicode="&#x2122;" horiz-adv-x="2051" d="M147 1307v136h710v-136h-280v-677h-151v677h-279zM987 630v813h163l281 -594h14l280 594h165v-813h-136v557h-14l-256 -533h-94l-253 533h-15v-557h-135z" />
<glyph unicode="&#x2202;" horiz-adv-x="1123" d="M80 438q0 112 33.5 205t95.5 159.5t148.5 103.5t193.5 37q44 0 89.5 -9.5t87 -27t76 -41.5t57.5 -53h16q-14 116 -59.5 215.5t-118.5 177.5t-170 131t-214 77l45 151q155 -29 281 -103t215.5 -184t138 -251.5t48.5 -303.5q0 -176 -37 -316t-106.5 -238t-169.5 -150 t-225 -52q-94 0 -172 34.5t-134.5 97t-87.5 149.5t-31 191zM262 438q0 -71 18 -128.5t52 -98t81 -62.5t106 -22q78 0 143.5 38.5t112 108t72.5 166t26 213.5q-57 63 -135.5 96.5t-168.5 33.5q-67 0 -123.5 -25.5t-97 -71.5t-63.5 -109.5t-23 -138.5z" />
<glyph unicode="&#x220f;" horiz-adv-x="1346" d="M80 1281v162h1186v-162h-200v-1571h-180v1571h-424v-1571h-180v1571h-202z" />
<glyph unicode="&#x2211;" horiz-adv-x="1194" d="M160 -122l469 698v11l-469 698v158h894v-159h-697v-9l467 -688v-11l-467 -688v-9h697v-159h-894v158z" />
<glyph unicode="&#x221a;" horiz-adv-x="1381" d="M80 668h178l211 -730h16l406 1505h480v-162h-357l-422 -1513h-228z" />
<glyph unicode="&#x221e;" horiz-adv-x="1816" d="M60 604q0 85 31.5 158.5t87.5 127t131.5 84t164.5 30.5q59 0 111.5 -15t104.5 -48t105 -85.5t112 -127.5q54 72 106.5 123.5t105 85t108 49t115.5 15.5q88 0 163.5 -30.5t131 -84.5t87 -127.5t31.5 -158.5q0 -86 -31.5 -159t-87.5 -126.5t-132 -84t-164 -30.5 q-59 0 -111.5 15t-104.5 48t-105 85.5t-112 127.5q-54 -72 -106.5 -123.5t-105 -85t-108 -49t-115.5 -15.5q-88 0 -163.5 30.5t-131 84.5t-87 127t-31.5 159zM230 601q0 -52 18.5 -96t51 -76.5t77.5 -50.5t98 -18q43 0 83 13t80 42.5t82 75.5t90 112q-55 69 -98.5 115 t-82.5 73.5t-75.5 39.5t-77.5 12q-53 0 -98 -18t-78 -50.5t-51.5 -77t-18.5 -96.5zM1006 601q55 -69 98.5 -115t82.5 -73.5t75.5 -39.5t77.5 -12q53 0 98 18t78 50.5t51.5 76.5t18.5 97q0 52 -18.5 96t-51 76.5t-77.5 50.5t-98 18q-44 0 -83.5 -13t-79.5 -42.5t-82 -75.5 t-90 -112z" />
<glyph unicode="&#x222b;" horiz-adv-x="1006" d="M80 -154q15 -4 39 -7.5t57 -3.5q70 0 109 41t52 132l160 1148q11 81 35.5 139.5t63.5 96.5t94.5 56t129.5 18q30 0 56 -3.5t50 -8.5v-144q-15 4 -39 7.5t-57 3.5q-70 0 -109 -41t-52 -132l-160 -1148q-11 -81 -35.5 -139.5t-63.5 -96.5t-94.5 -56t-129.5 -18 q-30 0 -56 3.5t-50 8.5v144z" />
<glyph unicode="&#x2248;" d="M172 162q0 70 18 126.5t53 96t85 60.5t113 21q57 0 108.5 -26t109.5 -84q45 -48 77.5 -68t63.5 -20q117 0 126 158h141q0 -71 -18.5 -127.5t-53.5 -95.5t-84.5 -60t-112.5 -21q-57 0 -109 26t-110 83q-47 49 -78.5 69t-62.5 20q-116 0 -125 -158h-141zM172 600 q0 70 18 126.5t53 96t85 60.5t113 21q57 0 108.5 -26t109.5 -84q45 -48 77.5 -68t63.5 -20q117 0 126 158h141q0 -71 -18.5 -127.5t-53.5 -95.5t-84.5 -60t-112.5 -21q-57 0 -109 26t-110 83q-47 49 -78.5 69t-62.5 20q-116 0 -125 -158h-141z" />
<glyph unicode="&#x2260;" d="M131 301v149h381l95 239h-476v149h536l99 246h143l-99 -246h298v-149h-358l-95 -239h453v-149h-513l-121 -301h-143l121 301h-321z" />
<glyph unicode="&#x2264;" d="M116 112v148h1007v-148h-1007zM116 724v148l1007 306v-164l-773 -208v-16l773 -208v-164z" />
<glyph unicode="&#x2265;" d="M116 112v148h1007v-148h-1007zM116 418v164l773 208v16l-773 208v164l1007 -306v-148z" />
<glyph unicode="&#x25fc;" horiz-adv-x="1080" d="M0 0v1080h1080v-1080h-1080z" />
<glyph unicode="&#xfb01;" horiz-adv-x="1059" d="M25 934v144h150v100q0 149 68.5 218.5t218.5 69.5q26 0 49 -2t48 -7v-144q-17 4 -39 6t-42 2q-68 0 -98 -33.5t-31 -109.5v-100h210v-144h-210v-934h-174v934h-150zM734 1362q0 23 8.5 43t23.5 35t35 23.5t43 8.5t43 -8.5t35 -23.5t23.5 -35t8.5 -43t-8.5 -43t-23.5 -35 t-35 -23.5t-43 -8.5t-43 8.5t-35 23.5t-23.5 35t-8.5 43zM757 0v1078h174v-1078h-174z" />
<glyph unicode="&#xfb02;" horiz-adv-x="1059" d="M25 934v144h150v100q0 149 68.5 218.5t218.5 69.5q26 0 49 -2t48 -7v-144q-17 4 -39 6t-42 2q-68 0 -98 -33.5t-31 -109.5v-100h210v-144h-210v-934h-174v934h-150zM757 0v1506h174v-1506h-174z" />
</font>
</defs>
</svg>
