<?xml version="1.0" standalone="no"?>
<!DOCTYPE svg PUBLIC "-//W3C//DTD SVG 1.1//EN" "http://www.w3.org/Graphics/SVG/1.1/DTD/svg11.dtd" >
<svg>
<metadata>
Created by FontForge 20090622 at Thu May 12 20:07:27 2016
 By deploy user
Copyright &#194;&#169; 2015 by Connary Fagen. All rights reserved.
</metadata>
<defs>
<font id="VentiCF-Bold" horiz-adv-x="595" >
  <font-face 
    font-family="Venti CF Medium"
    font-weight="700"
    font-stretch="normal"
    units-per-em="1180"
    panose-1="0 0 8 0 0 0 0 0 0 0"
    ascent="944"
    descent="-236"
    x-height="495"
    cap-height="800"
    bbox="-246 -462.062 1359.73 1113"
    underline-thickness="50"
    underline-position="-50"
    unicode-range="U+0020-U+FB02"
  />
<missing-glyph horiz-adv-x="600" 
d="M492 800v-1200h-380v1200h380zM400 720h-198v-40h78v-44h-80v-40h200v40h-80v44h80v40zM320 565h-120v-125h200v41h-80v84zM280 524v-43h-40v43h40zM400 408h-200v-40h80v-44h-80v-40h120v84h80v40zM400 336h-40v-80h-160v-40h200v120zM400 189h-120v-67h40v28h40v-57
h-120v96h-40v-135h200v135zM400 -18h-200v-136h200v136zM360 -58v-56h-120v56h120zM400 -182h-200v-39h84l-84 -57v-39h200v39h-123l84 57h39v39z" />
    <glyph glyph-name="fi" unicode="fi" horiz-adv-x="660" 
d="M566 495q7 0 13 -6t6 -13v-456q0 -9 -5 -14.5t-13 -5.5h-71q-23 0 -36 14.5t-13 36.5v316h-198v-347q0 -9 -5.5 -14.5t-13.5 -5.5h-71q-23 0 -35.5 14.5t-12.5 36.5v316h-61q-15 0 -15 13v79q0 17 10 26.5t27 9.5h39v110q0 98 58 149t151 51q73 0 129 -32q14 -9 7 -25
l-35 -80q-8 -17 -26 -10q-3 1 -12 4.5t-16.5 6t-20 4.5t-23.5 2q-28 0 -51 -18t-23 -52v-110h317z" />
    <glyph glyph-name="fl" unicode="fl" horiz-adv-x="670" 
d="M581 800q7 0 13 -6t6 -13v-761q0 -9 -5 -14.5t-13 -5.5h-71q-23 0 -36 14.5t-13 36.5v584q-63 43 -129 43q-35 0 -59.5 -20t-24.5 -58v-105h97q6 0 10.5 -4t4.5 -11v-99q0 -6 -4.5 -10t-10.5 -4h-97v-347q0 -9 -5.5 -14.5t-13.5 -5.5h-71q-23 0 -35.5 14.5t-12.5 36.5
v316h-61q-15 0 -15 13v79q0 17 10 26.5t27 9.5h39v105q0 102 59 155t159 53q61 0 133 -36v9q0 8 5.5 13.5t13.5 5.5h100z" />
    <glyph glyph-name="f_f" unicode="ff" horiz-adv-x="779" 
d="M806 773q14 -9 7 -25l-35 -80q-8 -17 -26 -10q-2 0 -16 5.5t-27.5 8.5t-28.5 3q-28 0 -51 -18t-23 -52v-110h97q6 0 10.5 -4t4.5 -11v-99q0 -6 -4.5 -10t-10.5 -4h-97v-347q0 -9 -6 -14.5t-14 -5.5h-70q-23 0 -35.5 14.5t-12.5 36.5v316h-219v-347q0 -9 -5.5 -14.5
t-13.5 -5.5h-71q-23 0 -35.5 14.5t-12.5 36.5v316h-61q-15 0 -15 13v79q0 17 10 26.5t27 9.5h39v105q0 102 59 155t159 53q88 0 185 -67q55 64 162 64q74 0 130 -32zM468 495v110q0 17 1 25q-66 48 -136 48q-35 0 -59.5 -20t-24.5 -58v-105h219z" />
    <glyph glyph-name="f_f_i" unicode="ffi" horiz-adv-x="1017" 
d="M923 495q7 0 13 -6t6 -13v-456q0 -9 -5 -14.5t-13 -5.5h-71q-23 0 -36 14.5t-13 36.5v316h-198v-347v-1q0 -8 -5.5 -13.5t-13.5 -5.5h-71q-23 0 -35.5 14.5t-12.5 36.5v316h-219v-347q0 -9 -5.5 -14.5t-13.5 -5.5h-71q-23 0 -35.5 14.5t-12.5 36.5v316h-61q-15 0 -15 13
v79q0 17 10 26.5t27 9.5h39v105q0 102 59 155t159 53q88 0 185 -67q55 64 162 64h1q72 0 127 -31l0.5 -0.5t1.5 -0.5q14 -9 7 -25l-35 -80q-8 -17 -26 -10q-2 1 -16 6t-27.5 8t-28.5 3q-28 0 -51 -18t-23 -52v-110h317zM468 495v110v4v1v1q0 4 0.5 10t0.5 9q-66 48 -136 48
q-35 0 -59.5 -20t-24.5 -58v-105h219z" />
    <glyph glyph-name="f_f_l" unicode="ffl" horiz-adv-x="1027" 
d="M938 800q7 0 13 -6t6 -13v-761q0 -9 -5.5 -14.5t-13.5 -5.5h-70q-23 0 -36 14.5t-13 36.5v584q-63 43 -129 43q-35 0 -59.5 -20t-24.5 -58v-105h97q6 0 10.5 -4t4.5 -11v-99q0 -6 -4.5 -10t-10.5 -4h-97v-347q0 -9 -5.5 -14.5t-13.5 -5.5h-71q-23 0 -35.5 14.5
t-12.5 36.5v316h-6h-3h-210v-347q0 -9 -5.5 -14.5t-13.5 -5.5h-71q-23 0 -35.5 14.5t-12.5 36.5v316h-61q-15 0 -15 13v79q0 17 10 26.5t27 9.5h39v105q0 102 59 155t159 53q88 0 185 -67q58 67 172 67q61 0 133 -36v9q0 8 5.5 13.5t13.5 5.5h100zM468 495v105q0 20 1 30
q-66 48 -136 48q-35 0 -59.5 -20t-24.5 -58v-105h219z" />
    <glyph glyph-name="f_b.liga" unicode="fb" horiz-adv-x="1019" 
d="M741 500q91 0 159.5 -68.5t68.5 -176.5q0 -112 -65 -186.5t-169 -74.5q-68 0 -123 37q-10 -14 -27.5 -22.5t-33.5 -8.5h-51q-8 0 -13.5 5.5t-5.5 13.5v602q-72 57 -148 57q-35 0 -59.5 -20t-24.5 -58v-105h97q6 0 10.5 -4t4.5 -11v-99q0 -6 -4.5 -10t-10.5 -4h-97v-347
q0 -9 -5.5 -14.5t-13.5 -5.5h-71q-23 0 -35.5 14.5t-12.5 36.5v316h-61q-15 0 -15 13v79q0 17 10 26.5t27 9.5h39v105q0 102 59 155t159 53q68 0 143 -41q-2 6 -2 8q-2 10 1.5 17.5t10.5 7.5h87q22 0 36 -13t14 -33v-286q55 32 122 32zM713 121q52 0 86 35.5t34 98.5
q0 59 -34.5 88t-77.5 29q-50 0 -102 -30v-199q48 -22 94 -22z" />
    <glyph glyph-name="f_f_b.liga" unicode="ffb" horiz-adv-x="1385" 
d="M1107 500q91 0 159.5 -68.5t68.5 -176.5q0 -112 -65 -186.5t-169 -74.5q-68 0 -123 37q-10 -14 -27.5 -22.5t-33.5 -8.5h-51q-8 0 -13.5 5.5t-5.5 13.5v602q-72 57 -148 57q-35 0 -59.5 -20t-24.5 -58v-105h98q6 0 10 -4.5t4 -10.5v-99q0 -6 -4.5 -10t-9.5 -4h-98v-347
q0 -9 -5.5 -14.5t-13.5 -5.5h-70q-23 0 -36 14t-13 37v316h-15h-3h-210v-347q0 -9 -5.5 -14.5t-13.5 -5.5h-71q-23 0 -35.5 14.5t-12.5 36.5v316h-61q-15 0 -15 13v79q0 17 10 26.5t27 9.5h39v105q0 102 59 155t159 53q91 0 191 -71q56 71 175 71q69 0 142 -41q0 1 -0.5 3.5
t-0.5 4.5q-2 10 1.5 17.5t10.5 7.5h87q22 0 36 -13t14 -33v-286q55 32 122 32zM477 495v105q0 16 1 23q-72 55 -145 55q-35 0 -59.5 -20t-24.5 -58v-105h228zM1079 121q52 0 86 35.5t34 98.5q0 59 -34.5 88t-77.5 29q-50 0 -102 -30v-199q48 -22 94 -22z" />
    <glyph glyph-name="f_f_h.liga" unicode="ffh" horiz-adv-x="1410" 
d="M1359 25q2 -10 -1.5 -17.5t-10.5 -7.5h-84q-23 0 -36 14t-13 36v247q0 40 -26.5 61t-64.5 21q-61 0 -116 -52v-308q0 -8 -5.5 -13.5t-13.5 -5.5h-101q-7 0 -12.5 5.5t-5.5 13.5v585q-26 22 -46.5 35.5t-54 26t-68.5 12.5t-59.5 -20t-24.5 -58v-105h97q6 0 10.5 -4
t4.5 -11v-99q0 -6 -4.5 -10t-10.5 -4h-97v-347q0 -9 -5.5 -14.5t-13.5 -5.5h-71q-23 0 -35.5 14.5t-12.5 36.5v316h-16h-3h-210v-347q0 -9 -5.5 -14.5t-13.5 -5.5h-71q-23 0 -35.5 14.5t-12.5 36.5v316h-61q-15 0 -15 13v79q0 17 10 26.5t27 9.5h39v105q0 102 59 155t159 53
q93 0 191 -71q58 71 176 71q76 0 168 -55l-6 22q-2 10 1.5 17.5t11.5 7.5h87q22 0 35.5 -13t13.5 -33v-299q66 47 137 47q82 0 144.5 -52t62.5 -140v-220q1 -35 8 -65zM478 495v105q0 15 1 23q-72 55 -146 55q-35 0 -59.5 -20t-24.5 -58v-105h229z" />
    <glyph glyph-name="f_h.liga" unicode="fh" horiz-adv-x="1043" 
d="M991 25q2 -10 -1.5 -17.5t-10.5 -7.5h-84q-23 0 -36 14t-13 36v247q0 40 -26.5 61t-64.5 21q-61 0 -116 -52v-308q0 -8 -5.5 -13.5t-13.5 -5.5h-101q-7 0 -12.5 5.5t-5.5 13.5v457q0 4 1 6v121q-39 35 -78.5 55t-90.5 20q-35 0 -59.5 -20t-24.5 -58v-105h97q6 0 10.5 -4
t4.5 -11v-99q0 -6 -4.5 -10t-10.5 -4h-97v-347q0 -9 -5.5 -14.5t-13.5 -5.5h-71q-23 0 -35.5 14.5t-12.5 36.5v316h-61q-15 0 -15 13v79q0 17 10 26.5t27 9.5h39v105q0 102 59 155t159 53q80 0 167 -55l-6 22q-2 10 1.5 17.5t11.5 7.5h87q22 0 35.5 -13t13.5 -33v-299
q66 47 137 47q82 0 144.5 -52t62.5 -140v-220q1 -35 8 -65z" />
    <glyph glyph-name="f_j.liga" unicode="fj" horiz-adv-x="655" 
d="M566 495q8 0 13.5 -5.5t5.5 -13.5v-576q0 -71 -33 -127.5t-91 -87.5q-19 -7 -27 8l-49 94q-9 17 10 26q53 29 53 87v467h-199v-347q0 -9 -5.5 -14.5t-13.5 -5.5h-71q-23 0 -35.5 14.5t-12.5 36.5v316h-61q-15 0 -15 13v79q0 17 10 26.5t27 9.5h39v110q0 98 58 149t151 51
q73 0 129 -32q14 -9 7 -25l-35 -80q-8 -17 -26 -10q-3 1 -12 4.5t-16.5 6t-20 4.5t-23.5 2q-28 0 -51 -18t-23 -52v-110h317z" />
    <glyph glyph-name=".notdef" horiz-adv-x="600" 
d="M492 800v-1200h-380v1200h380zM400 720h-198v-40h78v-44h-80v-40h200v40h-80v44h80v40zM320 565h-120v-125h200v41h-80v84zM280 524v-43h-40v43h40zM400 408h-200v-40h80v-44h-80v-40h120v84h80v40zM400 336h-40v-80h-160v-40h200v120zM400 189h-120v-67h40v28h40v-57
h-120v96h-40v-135h200v135zM400 -18h-200v-136h200v136zM360 -58v-56h-120v56h120zM400 -182h-200v-39h84l-84 -57v-39h200v39h-123l84 57h39v39z" />
    <glyph glyph-name=".null" horiz-adv-x="0" 
 />
    <glyph glyph-name="nonmarkingreturn" horiz-adv-x="393" 
 />
    <glyph glyph-name="space" unicode=" " horiz-adv-x="283" 
 />
    <glyph glyph-name="exclam" unicode="!" horiz-adv-x="293" 
d="M204 800q8 0 13.5 -6t5.5 -13v-12l-22 -432q-1 -9 -6 -14.5t-13 -5.5h-69q-8 0 -13.5 5.5t-6.5 14.5l-22 432v12q0 8 5 13.5t14 5.5h114zM147 -7q-38 0 -65 27t-27 64t27 64t65 27q37 0 63.5 -27t26.5 -64t-26.5 -64t-63.5 -27z" />
    <glyph glyph-name="quotedbl" unicode="&#x22;" horiz-adv-x="389" 
d="M50 510q-8 0 -14 6t-6 13v231q0 8 5.5 14t13.5 6h87q9 0 15 -6t5 -14l-28 -231q-2 -19 -19 -19h-59zM252 510q-8 0 -14 6t-6 13v231q0 8 5.5 14t13.5 6h88q9 0 15 -6t5 -14l-29 -231q-2 -19 -19 -19h-59z" />
    <glyph glyph-name="numbersign" unicode="#" horiz-adv-x="662" 
d="M607 581q8 0 13.5 -5t5.5 -14v-50q0 -8 -5.5 -14t-13.5 -6h-107l-24 -168h93q8 0 13.5 -5t5.5 -14v-50q0 -8 -6 -14t-13 -6h-106l-30 -215q-4 -20 -19 -20h-50q-9 0 -15.5 6t-4.5 14l31 215h-132l-30 -215q-4 -20 -20 -20h-49q-9 0 -15.5 6t-4.5 14l30 215h-98
q-8 0 -14 5.5t-6 13.5v50q0 9 6 14.5t14 5.5h111l24 168h-97q-8 0 -14 5.5t-6 13.5v50q0 9 6 14.5t14 5.5h110l28 200q4 19 19 19h50q8 0 14.5 -6t5.5 -13l-29 -200h132l28 200q4 19 19 19h50q8 0 14.5 -6t5.5 -13l-28 -200h94zM387 324l24 168h-131l-24 -168h131z" />
    <glyph glyph-name="dollar" unicode="$" horiz-adv-x="640" 
d="M595 219q0 -77 -58.5 -139.5t-150.5 -81.5v-70q0 -19 -18 -19h-103q-19 0 -19 19v70q-16 3 -31 8l-27.5 9.5t-26 11.5t-22.5 12.5t-20.5 13.5t-17.5 12.5t-15 12.5t-12 11l-10.5 10l-7.5 7q-18 18 -6 33l58 66q9 11 20 12.5t18 -5.5q3 -2 22.5 -18.5t30.5 -23.5l31 -19
t41 -17t43 -5q56 0 91.5 23.5t35.5 68.5q0 20 -8 36t-18.5 27t-34.5 23t-43 19.5l-56 21.5q-46 17 -82.5 37t-69.5 48.5t-51 67.5t-18 86t18 90.5t61.5 80.5t106.5 50v71q0 19 19 19h103q18 0 18 -19v-70q58 -12 104 -39.5t69 -51.5q21 -21 8 -37l-50 -67q-20 -23 -40 -8
q-3 2 -22 16.5t-29.5 21t-29.5 17t-38 15t-39 4.5q-51 0 -81 -27.5t-30 -65.5q0 -40 32.5 -64.5t111.5 -54.5q38 -14 68 -28t64.5 -36.5t57.5 -47t38 -60.5t15 -77z" />
    <glyph glyph-name="percent" unicode="%" horiz-adv-x="715" 
d="M517 784q9 14 23 14h89q12 0 16.5 -6.5t-1.5 -16.5l-447 -760q-9 -15 -22 -15h-90q-11 0 -15.5 6.5t1.5 16.5zM151 552q-49 0 -83.5 34.5t-34.5 83.5t34.5 83.5t83.5 34.5q48 0 82.5 -34.5t34.5 -83.5t-34.5 -83.5t-82.5 -34.5zM565 -1q-49 0 -83.5 34t-34.5 83
t34.5 83.5t83.5 34.5t83.5 -34.5t34.5 -83.5t-34.5 -83t-83.5 -34z" />
    <glyph glyph-name="ampersand" unicode="&#x26;" horiz-adv-x="672" 
d="M608 320h-42q-22 -66 -45 -125q51 -61 104 -69q10 -2 17 -9t7 -15v-76q0 -22 -20 -24q-124 -8 -205 79q-25 -25 -47 -40t-56 -25q-50 -16 -101 -17t-101.5 18.5t-83.5 59.5q-41 49 -50 112t13 117q28 80 133 136q-29 33 -57 72q-35 50 -35 110.5t33 107.5q32 48 77 69
t107 21q65 0 111.5 -21.5t78.5 -74.5q30 -50 31.5 -103t-35 -110.5t-113.5 -100.5l91 -110q12 38 34 118q5 21 25 21h150q11 0 17 -6.5t3 -16.5q-1 -2 -5.5 -16.5t-8 -29.5t-6.5 -36q-2 -16 -21 -16zM176 633q-6 -46 70 -120q94 64 91 113q-1 40 -31.5 61t-72.5 11
q-23 -6 -38.5 -24t-18.5 -41zM249 135q62 6 98 47l-136 167q-56 -25 -76 -77.5t11 -95.5q32 -46 103 -41z" />
    <glyph glyph-name="quotesingle" unicode="'" horiz-adv-x="187" 
d="M50 510q-8 0 -14 6t-6 13v231q0 8 5.5 14t13.5 6h87q9 0 15 -6t5 -14l-28 -231q-2 -19 -19 -19h-59z" />
    <glyph glyph-name="parenleft" unicode="(" horiz-adv-x="432" 
d="M388 -96q0 -8 -4.5 -12.5t-13.5 -3.5q-160 24 -242.5 153t-82.5 340q0 218 82 344.5t244 150.5q8 1 12.5 -3.5t4.5 -12.5l4 -93q0 -17 -16 -18q-192 -26 -192 -368q0 -170 45.5 -260t146.5 -102q16 -1 16 -18z" />
    <glyph glyph-name="parenright" unicode=")" horiz-adv-x="432" 
d="M34 -96l-4 97q0 17 16 18q101 12 146.5 102t45.5 260q0 342 -192 368q-16 1 -16 18l4 93q0 8 4.5 12.5t12.5 3.5q162 -24 244 -150.5t82 -344.5q0 -211 -82.5 -340t-242.5 -153q-9 -1 -13.5 3.5t-4.5 12.5z" />
    <glyph glyph-name="asterisk" unicode="*" horiz-adv-x="404" 
d="M363 557q17 -10 7 -26l-20 -31q-10 -18 -26 -6l-87 58l3 -105q0 -19 -19 -19h-37q-19 0 -19 19l3 105l-87 -58q-17 -11 -27 6l-20 31q-9 16 7 26l97 57l-97 57q-16 10 -7 25l20 32q10 16 27 6l87 -58l-3 105q0 19 19 19h37q19 0 19 -19l-3 -105l86 58q18 11 27 -6l20 -32
q11 -15 -7 -25l-97 -57z" />
    <glyph glyph-name="plus" unicode="+" horiz-adv-x="635" 
d="M546 431q19 0 19 -20v-95q0 -19 -19 -19h-161v-162q0 -19 -20 -19h-95q-19 0 -19 19v162h-162q-19 0 -19 19v95q0 20 19 20h162v161q0 19 19 19h95q20 0 20 -19v-161h161z" />
    <glyph glyph-name="comma" unicode="," horiz-adv-x="264" 
d="M216 66q9 -62 -8 -127q-12 -39 -39.5 -72.5t-57.5 -52.5q-13 -6 -20 1l-18 23q-5 6 0 12q36 29 57 62.5t18 82.5v2q-12 -3 -24 -3q-32 0 -55.5 23t-23.5 55q0 33 23.5 56t55.5 23q39 0 64 -28q23 -23 28 -57z" />
    <glyph glyph-name="hyphen" unicode="-" horiz-adv-x="411" 
d="M371 205q0 -8 -5.5 -14t-13.5 -6h-292q-8 0 -14 5.5t-6 13.5v85q0 9 6 14.5t14 5.5h292q8 0 13.5 -5t5.5 -14v-85z" />
    <glyph glyph-name="period" unicode="." horiz-adv-x="272" 
d="M136 -7q-37 0 -64 27t-27 64t27 64t64 27t64 -27t27 -64q0 -38 -26.5 -64.5t-64.5 -26.5z" />
    <glyph glyph-name="slash" unicode="/" horiz-adv-x="413" 
d="M271 800h96q9 0 15 -6t4 -13l-224 -761q-5 -20 -21 -20h-96q-9 0 -15 6.5t-4 13.5l224 761q6 19 21 19z" />
    <glyph glyph-name="zero" unicode="0" horiz-adv-x="702" 
d="M351 -12q-78 0 -137.5 31t-94.5 86.5t-52 125t-17 151.5q0 66 10.5 124t33.5 108.5t57.5 87t85.5 57.5t114 21q78 0 137 -31.5t94 -87.5t52.5 -126t17.5 -153q0 -82 -17.5 -151.5t-52.5 -125t-94 -86.5t-137 -31zM352 126q38 0 66.5 14.5t45.5 37.5t28 57.5t14.5 69
t3.5 77.5t-3.5 78.5t-14.5 70t-28 58.5t-45.5 38.5t-66.5 14.5t-66.5 -14.5t-46 -38.5t-28 -58.5t-14.5 -70t-4 -78.5q0 -42 4 -77t14.5 -69.5t28 -57.5t46 -37.5t66.5 -14.5z" />
    <glyph glyph-name="one" unicode="1" horiz-adv-x="366" 
d="M291 770q8 0 14 -6t6 -13v-731q0 -8 -6 -14t-14 -6h-103q-8 0 -14 6t-6 14v542l-100 -21q-19 -5 -22 15l-11 73q-2 18 16 22q52 17 123 101l7 10q5 8 17 8h93z" />
    <glyph glyph-name="two" unicode="2" horiz-adv-x="601" 
d="M536 138q19 0 19 -19v-99q0 -7 -14 -13.5t-23 -6.5h-448q-7 0 -13 6t-7 13v31l279 348q38 45 59 82t21 74q0 41 -33.5 69t-82.5 28q-48 0 -82 -21t-73 -64q-5 -7 -13.5 -7t-14.5 7l-59 64q-6 6 -6 14.5t5 14.5q45 63 111 95.5t140 32.5q101 0 175.5 -65t74.5 -165
q0 -91 -68 -175l-195 -244h248z" />
    <glyph glyph-name="three" unicode="3" horiz-adv-x="620" 
d="M96 770h433q20 0 20 -19v-99q0 -21 -14 -36l-153 -164q50 -8 94 -39q45 -31 72 -82.5t27 -108.5q0 -62 -37.5 -116.5t-96 -85t-120.5 -30.5q-86 0 -149 34t-121 103q-12 14 1 27l71 66q12 13 27 -2q81 -90 162 -90q52 0 84 34.5t32 76.5q0 39 -26.5 67t-66.5 28
q-16 0 -39 -9.5t-30 -9.5q-9 0 -16 9l-55 74q-11 15 1 27l188 207h-288q-8 0 -14.5 6t-6.5 13v99q0 8 6.5 14t14.5 6z" />
    <glyph glyph-name="four" unicode="4" horiz-adv-x="612" 
d="M548 309q19 0 19 -19v-98q0 -8 -5.5 -14t-13.5 -6h-46v-153q0 -19 -19 -19h-97q-8 0 -14.5 6t-6.5 13v153h-299q-8 0 -14 5.5t-6 13.5l-1 98q0 12 9 16q139 114 206 285q29 77 31 171q0 8 5.5 13.5t13.5 5.5h109q9 0 14.5 -6t5.5 -14q-5 -160 -68 -290q-45 -86 -124 -161
h118v43q0 8 5.5 14t13.5 8l98 9q9 1 14.5 -5.5t5.5 -15.5v-53h46z" />
    <glyph glyph-name="five" unicode="5" horiz-adv-x="607" 
d="M220 461q55 22 113 22q69 0 122.5 -36.5t80 -92t26.5 -118.5q0 -100 -74.5 -173t-181.5 -73q-70 0 -137 33t-118 96q-11 14 1 27l68 72q14 14 27 -2q27 -37 68 -62.5t90 -25.5t78.5 31.5t29.5 77.5q0 45 -32.5 77t-77.5 32q-38 0 -83 -24l-123 24q-19 3 -19 21v383
q0 8 5.5 14t14.5 6q132 -4 201 -4q70 0 200 4q19 0 19 -19v-98q0 -8 -5.5 -13.5t-13.5 -6.5q-80 -5 -173 -5q-62 0 -106 2v-169z" />
    <glyph glyph-name="six" unicode="6" horiz-adv-x="615" 
d="M312 482q108 0 183 -70.5t75 -174.5q0 -106 -73 -176.5t-188 -70.5q-122 0 -193 89.5t-71 235.5q0 86 24 166.5t68.5 146.5t115.5 107t157 45q10 1 16 -4.5t6 -14.5l3 -94q0 -15 -20 -15q-61 0 -112 -33t-80 -79.5t-38 -98.5q57 41 127 41zM308 117q50 0 85.5 36
t35.5 85.5t-35.5 85t-84.5 35.5q-51 0 -88 -36t-37 -82q0 -52 35.5 -88t88.5 -36z" />
    <glyph glyph-name="seven" unicode="7" horiz-adv-x="590" 
d="M550 716q0 -12 -6 -24l-329 -683q-4 -9 -26 -9h-109q-9 0 -12 8.5t0 14.5l297 609h-309q-8 0 -14.5 5.5t-6.5 13.5v99q0 8 6 14t15 6h475q19 0 19 -19v-35z" />
    <glyph glyph-name="eight" unicode="8" horiz-adv-x="599" 
d="M173 401q-17 -6 -37 -21.5t-41.5 -38.5t-35.5 -57t-14 -71q0 -96 69.5 -159.5t184.5 -63.5q116 0 185.5 63.5t69.5 159.5q0 38 -12.5 71t-33.5 55.5t-41.5 37.5t-41.5 24l1 4q44 20 75.5 60.5t31.5 101.5q0 90 -67 151.5t-167 61.5q-99 0 -165.5 -61.5t-66.5 -151.5
q0 -60 31.5 -102t73.5 -61zM405 569q0 -37 -30.5 -66.5t-75.5 -29.5q-46 0 -76 29t-30 67t31.5 66.5t74.5 28.5t74.5 -28.5t31.5 -66.5zM299 107q-50 0 -85 31.5t-35 78.5q0 48 32.5 83t87.5 35t87.5 -35t32.5 -83q0 -47 -34.5 -78.5t-85.5 -31.5z" />
    <glyph glyph-name="nine" unicode="9" horiz-adv-x="615" 
d="M303 288q-108 0 -183 70.5t-75 174.5q0 106 72.5 176.5t188.5 70.5q122 0 193 -89.5t71 -235.5q0 -68 -15 -133.5t-45.5 -124.5t-73 -104t-102.5 -72.5t-129 -30.5q-10 -1 -16 4.5t-6 14.5l-3 94q0 15 20 15q61 0 112 33t80 80t38 98q-57 -41 -127 -41zM307 653
q-50 0 -85.5 -36t-35.5 -85.5t35.5 -85t84.5 -35.5q50 0 87.5 36t37.5 82q0 52 -35.5 88t-88.5 36z" />
    <glyph glyph-name="colon" unicode=":" horiz-adv-x="274" 
d="M137 324q-34 0 -59 24.5t-25 58.5t25 59t59 25t59 -25t25 -59t-25 -58.5t-59 -24.5zM137 3q-34 0 -59 24.5t-25 58.5t25 59t59 25t59 -25t25 -59t-25 -58.5t-59 -24.5z" />
    <glyph glyph-name="semicolon" unicode=";" horiz-adv-x="293" 
d="M137 324q-34 0 -59 24.5t-25 58.5t25 59t59 25t59 -25t25 -59t-25 -58.5t-59 -24.5zM235 80q10 -70 -9 -136q-13 -42 -41.5 -77t-61.5 -54q-12 -9 -21 1l-19 25q-6 6 0 12q38 31 60.5 66.5t19.5 86.5v3q-11 -4 -26 -4q-34 0 -58.5 24.5t-24.5 58.5q0 35 24.5 59.5
t58.5 24.5q44 0 70 -32q22 -23 28 -58z" />
    <glyph glyph-name="less" unicode="&#x3c;" horiz-adv-x="499" 
d="M40 366q0 -11 10 -17l361 -219q9 -6 18.5 -1t9.5 17v90q0 10 -10 16l-212 118l212 122q10 8 10 17v89q0 12 -9.5 17.5t-18.5 -1.5l-361 -225q-10 -6 -10 -17v-6z" />
    <glyph glyph-name="equal" unicode="=" horiz-adv-x="600" 
d="M544 464q0 -8 -5.5 -14t-13.5 -6h-449q-8 0 -14 5.5t-6 13.5v85q0 9 5.5 14.5t14.5 5.5h449q8 0 13.5 -5t5.5 -14v-85zM544 191q0 -8 -5.5 -14t-13.5 -6h-449q-8 0 -14 5.5t-6 13.5v86q0 8 5.5 14t14.5 6h449q8 0 13.5 -5.5t5.5 -14.5v-85z" />
    <glyph glyph-name="greater" unicode="&#x3e;" horiz-adv-x="499" 
d="M459 370v5q0 12 -10 18l-361 221q-10 6 -19 1t-9 -17v-89q0 -9 10 -17l212 -120l-212 -120q-10 -6 -10 -16v-90q0 -12 9 -17t19 1l361 222q10 6 10 18z" />
    <glyph glyph-name="question" unicode="?" horiz-adv-x="466" 
d="M21 686q-12 12 -1 24q91 105 219 105q52 -2 102 -22q41 -16 69 -53t37 -79.5t-2.5 -88t-45.5 -78.5q-24 -23 -47.5 -41.5t-34 -25.5t-19.5 -19t-11.5 -27t-2.5 -44q0 -8 -5.5 -14.5t-13.5 -6.5h-88q-9 0 -14.5 6t-5.5 15l-2 64q0 23 24.5 50t54.5 48t56 48.5t28 51.5
q4 47 -24.5 72t-77.5 25q-16 0 -30.5 -4t-28.5 -13t-21.5 -14.5t-22 -19.5l-17.5 -17q-13 -13 -23 0zM218 -7q-38 0 -65 27t-27 64t27 64.5t65 27.5q37 0 63.5 -27.5t26.5 -64.5t-26.5 -64t-63.5 -27z" />
    <glyph glyph-name="at" unicode="@" horiz-adv-x="1167" 
d="M600 815q90 0 171.5 -27.5t141.5 -73.5t104.5 -104.5t67 -122.5t22.5 -126q0 -51 -6.5 -98t-23.5 -95.5t-44.5 -84t-72.5 -58t-103 -22.5q-92 0 -125 90l-4 4q-10 -20 -21.5 -31t-32.5 -25q-55 -35 -121 -38q-28 -2 -55 2.5t-53.5 16t-46 34.5t-26.5 56q-5 22 -5 41
t5 34.5t12.5 28.5t22 24.5t28 20t35.5 16.5l40 14t46 12l49 10.5t53 10.5q1 47 -62 53q-75 9 -159 -31q-21 -11 -28 9l-24 73q-6 16 13 25q38 22 92 35.5t111 12.5q93 -2 145 -52t49 -134q-2 -60 -2 -82q3 -64 23.5 -84.5t55.5 -20.5q103 0 103 227q0 57 -26 115t-72.5 107
t-120.5 79.5t-161 30.5q-116 0 -209 -52.5t-145 -145t-52 -206.5q0 -97 46 -186t128 -149.5t181 -72.5q14 -2 14 -21v-93q0 -15 -28 -13q-108 11 -198 61t-148.5 124.5t-91 165t-32.5 184.5q0 108 41.5 206.5t112.5 170t171.5 113.5t214.5 42zM527 112q60 -14 130 39
q-2 34 0 75q-2 0 -22 -4t-26 -5t-24 -5t-26.5 -6.5l-21 -6.5t-20 -8t-11.5 -9q-17 -15 -11 -39t32 -31z" />
    <glyph glyph-name="A" unicode="A" horiz-adv-x="879" 
d="M836 22q5 -9 1.5 -15.5t-13.5 -6.5h-117q-13 0 -20 13l-54 114h-385l-54 -114q-6 -13 -20 -13h-118q-9 0 -13 6.5t0 15.5l377 773q6 10 14 10h12q8 0 14 -10zM309 257h263l-131 279z" />
    <glyph glyph-name="B" unicode="B" horiz-adv-x="692" 
d="M514 434q57 -34 90 -87.5t33 -117.5q0 -98 -72 -163.5t-162 -65.5h-328q-8 0 -14 6t-6 14v761q0 8 5.5 13.5t13.5 5.5h294q60 0 113 -34.5t82 -83.5t29 -96q0 -92 -78 -152zM343 474q47 0 73.5 29.5t26.5 64.5t-26.5 64.5t-73.5 29.5h-145v-188h145zM367 138
q33 0 58.5 11t39 29t20 39.5t0 43t-20 39.5t-39.5 29t-59 11h-168v-202h169z" />
    <glyph glyph-name="C" unicode="C" horiz-adv-x="803" 
d="M747 150q16 -12 1 -27q-56 -62 -133 -96t-166 -34q-109 0 -201.5 53t-147.5 146.5t-55 205.5q0 111 55 205.5t148 149t201 54.5q89 0 167 -34.5t135 -97.5q14 -14 -1 -27l-83 -67q-15 -12 -27 2q-36 37 -85 61.5t-105 24.5q-109 0 -185.5 -81t-76.5 -190
q0 -110 76 -188.5t186 -78.5q56 0 104 23.5t83 59.5q13 13 28 3z" />
    <glyph glyph-name="D" unicode="D" horiz-adv-x="810" 
d="M344 800q76 0 142.5 -23t115 -62.5t83.5 -90.5t52.5 -107.5t17.5 -113.5q0 -80 -28.5 -153t-79.5 -128.5t-130 -88.5t-173 -33h-264q-8 0 -14 6t-6 14v761q0 8 5.5 13.5t13.5 5.5h265zM344 138q79 0 140.5 38t92 98t30.5 130q0 69 -30 127t-91 94.5t-142 36.5h-142
l1 -524h141z" />
    <glyph glyph-name="E" unicode="E" horiz-adv-x="666" 
d="M582 662h-364v-201h196q8 0 14 -6t6 -14v-99q0 -19 -20 -19h-196v-185h364q8 0 14 -6t6 -14v-98q0 -8 -6 -14t-14 -6h-487q-8 0 -14 6t-6 14v761q0 8 5.5 13.5t13.5 5.5h488q8 0 14 -5.5t6 -13.5v-100q0 -8 -6 -13.5t-14 -5.5z" />
    <glyph glyph-name="F" unicode="F" horiz-adv-x="601" 
d="M551 800q8 0 14 -5.5t6 -13.5v-100q0 -8 -5.5 -13.5t-14.5 -5.5h-358v-201h190q8 0 14 -6t6 -14v-99q0 -19 -20 -19h-190v-303q0 -20 -18 -20h-76q-23 0 -36 14.5t-13 36.5v730q0 8 5.5 13.5t13.5 5.5h482z" />
    <glyph glyph-name="G" unicode="G" horiz-adv-x="803" 
d="M755 365v-227q0 -9 -7 -15q-56 -62 -133 -96t-166 -34q-109 0 -201.5 53t-147.5 146.5t-55 205.5q0 111 55 205.5t148 149t201 54.5q89 0 167 -34.5t135 -97.5q14 -14 -1 -27l-83 -67q-15 -12 -27 2q-36 37 -85 61.5t-105 24.5q-109 0 -185.5 -81t-76.5 -190
q0 -110 76 -188.5t186 -78.5q88 0 163 61v57h-158q-20 0 -20 19v96q0 21 18 21h282q20 0 20 -20z" />
    <glyph glyph-name="H" unicode="H" horiz-adv-x="821" 
d="M726 800q8 0 14 -5.5t6 -13.5v-761q0 -9 -5 -14.5t-13 -5.5h-76q-23 0 -36.5 14.5t-13.5 36.5v268h-384v-299q0 -8 -5.5 -14t-13.5 -6h-104q-8 0 -14 6t-6 14v761q0 8 5.5 13.5t13.5 5.5h104q8 0 14 -5.5t6 -13.5v-318h384v318q0 8 5.5 13.5t14.5 5.5h104z" />
    <glyph glyph-name="I" unicode="I" horiz-adv-x="298" 
d="M198 800h-99q-8 0 -13.5 -5.5t-5.5 -13.5v-761q0 -8 6 -14t14 -6h99q7 0 13 6t6 14v761q0 7 -6 13t-14 6z" />
    <glyph glyph-name="J" unicode="J" horiz-adv-x="314" 
d="M184 800q23 0 36.5 -14.5t13.5 -36.5v-834q-1 -72 -36 -130t-94 -90q-18 -9 -27 7l-49 94q-8 17 10 26q53 30 53 94v798q-1 17 -8 61q-2 10 1 17.5t11 7.5h89z" />
    <glyph glyph-name="K" unicode="K" horiz-adv-x="753" 
d="M708 47q14 -16 7.5 -31.5t-26.5 -15.5h-108q-14 0 -23 10l-351 391v-382q0 -7 -6 -13t-13 -6h-104q-8 0 -14 5.5t-6 13.5v694q-1 31 -8 62q-2 10 1.5 17.5t11.5 7.5h89q22 0 35.5 -13t13.5 -33v-316l300 351q8 11 24 11h108q18 0 24.5 -15t-4.5 -28l-289 -338z" />
    <glyph glyph-name="L" unicode="L" horiz-adv-x="627" 
d="M553 138q8 0 13.5 -5.5t5.5 -14.5v-99q0 -8 -5.5 -13.5t-13.5 -5.5h-473q-15 0 -15 18v763q0 8 5.5 13.5t13.5 5.5h104q8 0 14 -5.5t6 -13.5v-643h345z" />
    <glyph glyph-name="M" unicode="M" horiz-adv-x="1066" 
d="M971 800q8 0 14 -5.5t6 -13.5v-761q0 -8 -5.5 -14t-13.5 -6h-103q-9 0 -14.5 6t-5.5 14v485l-292 -462q-8 -14 -21 -14h-6q-13 0 -21 14l-291 463v-486q0 -8 -6 -14t-14 -6h-103q-8 0 -14 6t-6 14v761q0 8 5.5 13.5t14.5 5.5h86q14 0 23 -13l329 -520l330 520q7 13 23 13
h85z" />
    <glyph glyph-name="N" unicode="N" horiz-adv-x="845" 
d="M750 800q8 0 14 -6t6 -13v-762q0 -8 -5.5 -13.5t-13.5 -5.5h-33q-39 0 -92 59l-409 457v-496q0 -8 -6 -13.5t-14 -5.5l-102 -1q-8 0 -14 6t-6 14v761q0 7 5.5 13t13.5 6h59q15 0 27 -15l447 -512v508q0 8 5.5 13.5t13.5 5.5h104z" />
    <glyph glyph-name="O" unicode="O" horiz-adv-x="936" 
d="M469 -7q110 0 204 54t148.5 148t54.5 206q0 111 -54.5 204.5t-148.5 147.5t-204 54q-111 0 -205.5 -54t-149 -147.5t-54.5 -204.5q0 -112 55 -206t149 -148t205 -54zM469 131q-108 0 -187 80t-79 190q0 109 79 188.5t187 79.5t186.5 -79.5t78.5 -188.5q0 -110 -78.5 -190
t-186.5 -80z" />
    <glyph glyph-name="P" unicode="P" horiz-adv-x="695" 
d="M390 800q60 0 112.5 -25.5t87.5 -65t55 -87.5t20 -95q0 -50 -20 -99t-55 -88t-87.5 -63.5t-112.5 -24.5h-177v-232q0 -9 -5.5 -14.5t-13.5 -5.5h-106q-8 0 -13 5.5t-5 14.5v761q0 8 5.5 13.5t13.5 5.5h301zM375 390q67 0 107 41t40 96q0 54 -40 94.5t-107 40.5h-162v-272
h162z" />
    <glyph glyph-name="Q" unicode="Q" horiz-adv-x="921" 
d="M823 -43q9 -9 8 -17.5t-9 -13.5l-78 -48q-19 -12 -38.5 -8t-29.5 22l-74 123q-64 -22 -133 -22q-111 0 -205 54t-149 148t-55 206q0 111 54.5 204.5t149 147.5t205.5 54q110 0 204 -54t148.5 -147.5t54.5 -204.5q0 -94 -39 -175.5t-107 -138.5l38 -64q24 -37 55 -66z
M203 401q0 -78 42.5 -144t111.5 -100q-15 27 -15 60q0 51 39.5 88t99.5 37q42 0 75.5 -18.5t64.5 -60.5q14 -20 34 -52q79 79 79 190q0 109 -78.5 188.5t-186.5 79.5t-187 -79.5t-79 -188.5zM469 131q32 0 60 7l-12 19q-14 24 -29 34t-37 10q-20 0 -33 -14t-13 -33
q0 -8 3 -16q28 -7 61 -7z" />
    <glyph glyph-name="R" unicode="R" horiz-adv-x="721" 
d="M677 23q6 -9 2 -16t-16 -7h-93q-36 0 -61 41l-138 211h-168v-232q0 -9 -5.5 -14.5t-13.5 -5.5h-106q-8 0 -13 5.5t-5 14.5v761q0 8 5.5 13.5t13.5 5.5h319q78 0 140.5 -43.5t93.5 -105.5t31 -125q0 -75 -42.5 -146t-114.5 -104zM203 662v-272h175q67 0 104 41t37 98
q0 54 -37 93.5t-104 39.5h-175z" />
    <glyph glyph-name="S" unicode="S" horiz-adv-x="633" 
d="M51 139l57 66q18 21 38 6l31 -26t34.5 -24t49.5 -23.5t51 -7.5q58 0 96 22.5t38 66.5q0 12 -3.5 22.5t-7.5 18.5t-14.5 16l-16.5 12.5t-21.5 12t-22 10t-25.5 10.5t-25 10q-60 25 -100 46.5t-76 51t-53.5 67.5t-17.5 85q0 40 15 78.5t44.5 72t80.5 54t116 20.5
q56 0 110.5 -20t82 -39t45.5 -37q21 -21 7 -37l-50 -66q-18 -23 -40 -8q-1 1 -11 9t-13.5 10.5l-14 10t-16.5 10.5t-16.5 9t-19 9t-19.5 6.5t-22 5t-22 1.5q-52 0 -83.5 -26t-31.5 -63t29 -60.5t92 -48.5l56.5 -24.5t52 -25.5t50 -29.5t41 -33t34 -40t20.5 -47t8 -55.5
q0 -90 -79 -157t-195 -67q-40 0 -79.5 10.5t-64.5 22t-53.5 32.5t-36 28l-23.5 22q-20 17 -6 31z" />
    <glyph glyph-name="T" unicode="T" horiz-adv-x="723" 
d="M659 800q8 0 13.5 -5.5t5.5 -13.5v-100q0 -8 -6 -13.5t-13 -5.5h-226v-642q0 -9 -5.5 -14.5t-13.5 -5.5h-74q-23 0 -36.5 14.5t-13.5 36.5v611h-225q-8 0 -14 5.5t-6 13.5v99q0 8 6 14t14 6h594z" />
    <glyph glyph-name="U" unicode="U" horiz-adv-x="772" 
d="M683 801h-105q-19 0 -19 -20v-485q0 -77 -46.5 -121t-128.5 -44q-81 0 -126 44t-45 121v485q0 9 -5.5 14.5t-13.5 5.5h-103q-9 0 -15 -5.5t-6 -14.5v-490q0 -131 84.5 -214.5t229.5 -83.5q146 0 232 84t86 214v490q0 20 -19 20z" />
    <glyph glyph-name="V" unicode="V" horiz-adv-x="839" 
d="M795 800q9 0 15.5 -6.5t1.5 -16.5l-367 -767q-7 -15 -22 -15h-8q-13 0 -21 15l-367 768q-5 9 1.5 15.5t15.5 6.5h131q11 0 20 -20l224 -493l225 493q3 7 5 10.5t6 6.5t9 3h131z" />
    <glyph glyph-name="W" unicode="W" horiz-adv-x="1144" 
d="M1100 800q9 0 15 -6.5t2 -16.5l-377 -767q-7 -15 -21 -15h-8q-14 0 -22 15l-117 246l-118 -246q-7 -15 -21 -15h-8q-15 0 -21 15l-377 768q-5 9 1.5 15.5t15.5 6.5h131q11 0 20 -20l234 -497l63 140l-170 355q-4 9 2 15.5t15 6.5h131q12 0 20 -19l82 -181l81 180
q9 20 21 20h130q10 0 16 -6.5t1 -16.5l-169 -354l63 -140l233 498q10 19 21 19h131z" />
    <glyph glyph-name="X" unicode="X" horiz-adv-x="758" 
d="M724 20q4 -7 1 -13.5t-11 -6.5h-140q-3 0 -5.5 1t-5 3.5l-4 4t-4 5.5t-3.5 6l-174 255l-174 -255q-1 -2 -3.5 -6t-4 -5.5l-4 -4t-5 -3.5t-5.5 -1h-140q-8 0 -11 6.5t1 13.5l260 381l-259 380q-5 7 -2 13t11 6h141q9 0 19 -16q1 -2 2 -3l174 -255l174 255q1 1 2 3
q10 16 19 16h141q8 0 11 -6t-2 -13l-259 -380z" />
    <glyph glyph-name="Y" unicode="Y" horiz-adv-x="769" 
d="M740 800q8 0 12 -7.5t-1 -15.5l-296 -455v-302q0 -20 -18 -20h-75q-23 0 -36 14.5t-13 36.5v271l-295 455q-5 8 -1 15.5t12 7.5h128q11 0 22 -19l205 -316l204 316q1 1 2.5 3.5t2.5 3.5t2.5 3t2.5 3l2.5 2.5t3 2l3 1t3.5 0.5h130z" />
    <glyph glyph-name="Z" unicode="Z" horiz-adv-x="659" 
d="M604 143q20 0 20 -18v-76q0 -23 -14.5 -36t-36.5 -13h-519q-8 0 -13.5 5.5t-5.5 13.5v22l12 21l353 596h-340q-9 0 -15 5.5t-6 13.5v103q0 8 5.5 14t15.5 6h544q8 0 14 -5.5t6 -13.5v-18l-2 -4l-362 -616h344z" />
    <glyph glyph-name="bracketleft" unicode="[" horiz-adv-x="358" 
d="M301 759h-137v-833h137q17 0 17 -17v-89q0 -18 -17 -18h-244q-17 0 -17 18v1045q0 17 17 17h244q17 0 17 -17v-89q0 -17 -17 -17z" />
    <glyph glyph-name="backslash" unicode="\" horiz-adv-x="412" 
d="M141 800q15 0 21 -19l224 -761q2 -7 -4.5 -13.5t-14.5 -6.5h-97q-14 0 -21 20l-223 761q-2 7 4 13t15 6h96z" />
    <glyph glyph-name="bracketright" unicode="]" horiz-adv-x="358" 
d="M301 882q17 0 17 -17v-1045q0 -18 -17 -18h-244q-17 0 -17 18v89q0 17 17 17h137v833h-137q-17 0 -17 17v89q0 17 17 17h244z" />
    <glyph glyph-name="asciicircum" unicode="^" horiz-adv-x="604" 
d="M29 477q-8 -11 -1.5 -21.5t20.5 -10.5h78q10 0 19 11l157 215l156 -215q9 -11 18 -11h81q13 0 19.5 10.5t-1.5 21.5l-248 356q-6 12 -19 12h-7q-13 0 -19 -12z" />
    <glyph glyph-name="underscore" unicode="_" horiz-adv-x="539" 
d="M499 -75q0 -8 -6 -14t-14 -6h-419q-8 0 -14 5.5t-6 13.5v56q0 8 6 14t14 6h419q8 0 14 -5.5t6 -13.5v-56z" />
    <glyph glyph-name="grave" unicode="`" horiz-adv-x="352" 
d="M50 709l208 -109q21 -10 28 6l24 43q4 8 2 14t-7 9l-195 131q-7 6 -16 5.5t-14 -7.5l-36 -61q-6 -10 -4 -18.5t10 -12.5z" />
    <glyph glyph-name="a" unicode="a" horiz-adv-x="554" 
d="M499 25q-19 122 -12 281q4 90 -45 142.5t-140 52.5q-58 0 -117 -14.5t-98 -35.5q-20 -12 -13 -27l32 -76q8 -17 28 -9q95 41 158 41q32 0 47.5 -10t14.5 -37q-41 -7 -68.5 -12.5t-63 -15t-58.5 -19t-48 -24.5t-39 -32t-23 -41t-9 -53q0 -67 45 -104t123 -37q97 0 154 55
q12 -50 44 -50h75q8 0 11.5 7.5t1.5 17.5zM238 103q-52 0 -52 35q0 11 6.5 20.5t21 17t28 13.5t36.5 12t36.5 9l37.5 8q-2 -40 0 -75q-22 -18 -54 -29t-60 -11z" />
    <glyph glyph-name="b" unicode="b" horiz-adv-x="610" 
d="M332 500q91 0 159.5 -68.5t68.5 -176.5q0 -112 -65 -186.5t-168 -74.5q-69 0 -124 37q-9 -14 -27 -22.5t-33 -8.5h-52q-8 0 -13.5 5.5t-5.5 13.5v684q0 16 -1.5 28t-5.5 27.5t-4 16.5q-2 10 1.5 17.5t11.5 7.5h87q22 0 35.5 -13t13.5 -33v-286q55 32 122 32zM305 121
q51 0 85 36t34 98q0 59 -34.5 88t-77.5 29q-51 0 -102 -31v-197q46 -23 95 -23z" />
    <glyph glyph-name="c" unicode="c" horiz-adv-x="507" 
d="M462 82q11 -16 -2 -26q-72 -63 -162 -63q-105 0 -181.5 74t-76.5 179q0 106 77 181t181 75q92 0 161 -62q13 -11 2 -27l-48 -62q-11 -15 -29 -2q-31 24 -83 24q-54 0 -91 -36t-37 -90q0 -53 37.5 -89.5t90.5 -36.5q50 0 83 27q17 12 29 -4z" />
    <glyph glyph-name="d" unicode="d" horiz-adv-x="594" 
d="M485 800q22 0 35.5 -13t13.5 -33v-735q0 -7 -6 -13t-13 -6h-52q-15 0 -33 9t-27 23q-57 -39 -126 -39q-104 0 -170.5 74.5t-66.5 186.5q0 107 70 176t161 69q68 0 125 -34v238q0 16 -1.5 28t-5.5 27.5t-4 16.5q-2 10 1.5 17.5t10.5 7.5h88zM176 254q0 -62 35.5 -98
t87.5 -36q49 0 97 24v195q-54 32 -105 32q-44 0 -79.5 -29t-35.5 -88z" />
    <glyph glyph-name="e" unicode="e" horiz-adv-x="560" 
d="M451 201q34 0 53.5 18.5t19.5 53.5q0 92 -66.5 160.5t-173.5 68.5q-105 0 -177 -73t-72 -181q0 -112 74 -182.5t181 -70.5q138 0 201 89q9 11 -3 26l-23 32q-11 15 -31 5q-56 -31 -128 -31q-47 0 -82 22.5t-44 62.5h271zM181 307q4 26 32 47.5t68 21.5q41 0 68 -21
t31 -48h-199z" />
    <glyph glyph-name="f" unicode="f" horiz-adv-x="422" 
d="M449 773q14 -9 7 -25l-35 -80q-8 -17 -26 -10q-3 1 -12 4.5t-16.5 6t-20 4.5t-23.5 2q-28 0 -51 -18t-23 -52v-110h97q6 0 10.5 -4t4.5 -11v-99q0 -6 -4.5 -10t-10.5 -4h-97v-347q0 -9 -5.5 -14.5t-13.5 -5.5h-71q-23 0 -35.5 14.5t-12.5 36.5v316h-61q-15 0 -15 13v79
q0 17 10 26.5t27 9.5h39v110q0 98 58 149t151 51q73 0 129 -32z" />
    <glyph glyph-name="g" unicode="g" horiz-adv-x="610" 
d="M376 -2q51 -6 86 -15.5t63.5 -27t42 -47t12.5 -71.5q0 -87 -74.5 -139t-212.5 -52q-106 0 -170 42t-64 117q0 89 108 106q-53 10 -93.5 42t-41.5 79t33 73.5t96 19.5q-31 13 -58 56t-28 91q-1 97 64 162.5t161 65.5q28 0 95 -8.5t136 -6.5q9 0 14.5 -5t4.5 -14l-5 -62
q-1 -5 -8.5 -8t-21.5 -5t-17 -3q34 -50 34 -116q0 -97 -65.5 -158t-156.5 -57q-38 2 -91 14q-26 6 -39.5 0.5t-13.5 -20.5q1 -26 68 -34q35 -5 82 -11t60 -8zM304 370q-39 0 -66.5 -27.5t-27.5 -65.5q0 -36 27.5 -63.5t66.5 -27.5q40 0 66.5 27t26.5 64q0 39 -27 66t-66 27z
M307 -228q55 0 90 14t35 45q0 32 -56 43q-40 8 -120 18q-26 3 -42.5 -13.5t-16.5 -43.5q0 -35 28 -49t82 -14z" />
    <glyph glyph-name="h" unicode="h" horiz-adv-x="614" 
d="M562 25q2 -10 -1.5 -17.5t-10.5 -7.5h-84q-23 0 -36 14t-13 36v247q0 40 -26.5 61t-64.5 21q-61 0 -116 -52v-308v-4q-3 -12 -16 -15h-3h-101q-7 0 -12.5 5.5t-5.5 13.5v457v3v224q0 13 -1.5 24.5t-2.5 18t-3.5 16.5t-3.5 13q-2 10 1.5 17.5t11.5 7.5h87q22 0 35.5 -13
t13.5 -33v-299q66 47 137 47q82 0 144.5 -52t62.5 -140v-220q1 -35 8 -65z" />
    <glyph glyph-name="i" unicode="i" horiz-adv-x="289" 
d="M144 651q-31 0 -52.5 21.5t-21.5 52.5t21.5 53t52.5 22t53 -22t22 -53t-22 -52.5t-53 -21.5zM195 495h-100q-8 0 -13.5 -5.5t-5.5 -13.5v-425q0 -22 13 -36.5t36 -14.5h71q8 0 13 5.5t5 14.5v456q0 7 -6 13t-13 6z" />
    <glyph glyph-name="j" unicode="j" horiz-adv-x="280" 
d="M136 651q-31 0 -53 21.5t-22 52.5t22 53t53 22t52.5 -22t21.5 -53t-21.5 -52.5t-52.5 -21.5zM189 495h-99q-9 0 -14 -5.5t-5 -13.5v-576q0 -58 -53 -87q-19 -10 -10 -26l49 -94q8 -15 27 -8q59 31 92 88t33 127v576q0 8 -6 13.5t-14 5.5z" />
    <glyph glyph-name="k" unicode="k" horiz-adv-x="616" 
d="M567 43q12 -13 7 -27.5t-23 -14.5h-101q-13 0 -23 11l-217 235v-228q0 -7 -6 -13t-13 -6h-99q-8 0 -14 5.5t-6 13.5v684q0 13 -1.5 24.5t-2.5 18t-3.5 16.5t-3.5 13q-2 10 1.5 17.5t11.5 7.5h87q22 0 35.5 -13t13.5 -33v-470l177 201q9 10 22 10h100q15 0 21 -15t-5 -28
l-170 -187z" />
    <glyph glyph-name="l" unicode="l" horiz-adv-x="283" 
d="M194 800h-100q-8 0 -13.5 -5.5t-5.5 -13.5v-730q0 -22 13 -36.5t36 -14.5h70q8 0 13.5 5.5t5.5 14.5v761q0 7 -6 13t-13 6z" />
    <glyph glyph-name="m" unicode="m" horiz-adv-x="950" 
d="M899 25q2 -10 -1.5 -17.5t-10.5 -7.5h-84q-23 0 -36 14t-13 36v249q0 39 -26 59t-65 20q-56 0 -116 -58v-11v-219q1 -35 8 -65q2 -10 -1.5 -17.5t-10.5 -7.5h-84q-23 0 -36.5 14t-13.5 36v249q0 39 -26 59t-64 20q-58 0 -116 -58v-301q0 -7 -5.5 -13t-13.5 -6h-101
q-7 0 -12.5 5.5t-5.5 13.5v457q0 8 5.5 13.5t12.5 5.5h69q18 0 30.5 -12.5t17.5 -29.5q66 48 139 48q50 0 96 -20.5t75 -57.5v2q85 76 174 76q53 0 99 -21.5t77 -66.5t31 -104v-219q1 -35 8 -65z" />
    <glyph glyph-name="n" unicode="n" horiz-adv-x="601" 
d="M550 25q2 -10 -1.5 -17.5t-10.5 -7.5h-84q-23 0 -36.5 14t-13.5 36v247q0 40 -26 61t-64 21q-60 0 -116 -51v-309q0 -7 -5.5 -13t-13.5 -6h-101q-7 0 -12.5 5.5t-5.5 13.5v457q0 8 5.5 13.5t12.5 5.5h69q18 0 30.5 -12t17.5 -29q69 48 139 48q83 0 145.5 -52t62.5 -140
v-220q1 -35 8 -65z" />
    <glyph glyph-name="o" unicode="o" horiz-adv-x="592" 
d="M296 -7q106 0 181 73.5t75 180.5q0 108 -75 181.5t-181 73.5t-181 -73.5t-75 -181.5q0 -107 75 -180.5t181 -73.5zM296 121q-52 0 -87.5 37t-35.5 88q0 52 35 89.5t88 37.5t88 -37.5t35 -89.5q0 -51 -35.5 -88t-87.5 -37z" />
    <glyph glyph-name="p" unicode="p" horiz-adv-x="610" 
d="M332 500q91 0 159.5 -68.5t68.5 -176.5q0 -112 -65 -186.5t-168 -74.5q-63 0 -117 33v-265q0 -24 -22.5 -40t-44.5 -16h-52q-8 0 -13.5 6t-5.5 13v673q0 16 -1.5 28t-5.5 27.5t-4 16.5q-2 10 1.5 17.5t11.5 7.5h87q35 0 46 -29q57 34 125 34zM305 121q51 0 85 35.5
t34 98.5q0 59 -34.5 88t-77.5 29q-51 0 -102 -31v-197q46 -23 95 -23z" />
    <glyph glyph-name="q" unicode="q" horiz-adv-x="600" 
d="M549 -269q2 -10 -1.5 -17.5t-10.5 -7.5h-87q-22 0 -36 13t-14 33v274q-52 -33 -116 -33q-104 0 -169 74.5t-65 186.5q0 108 68.5 176.5t159.5 68.5q71 0 129 -36q9 14 27 23t34 9h51q7 0 13 -6t6 -13v-673q0 -16 2 -29t5 -25t4 -18zM306 120q48 0 94 23v197
q-51 31 -102 31q-43 0 -77.5 -29t-34.5 -88q0 -63 34 -98.5t86 -35.5z" />
    <glyph glyph-name="r" unicode="r" horiz-adv-x="461" 
d="M427 474q11 -7 13 -13t-5 -17l-52 -76q-9 -13 -26 -9q-34 12 -58 12q-18 0 -36.5 -5.5t-38 -24t-26.5 -48.5v-274q0 -8 -5.5 -13.5t-13.5 -5.5h-101q-7 0 -12.5 5.5t-5.5 13.5v457q0 8 5.5 13.5t12.5 5.5h69q19 0 32.5 -13.5t17.5 -31.5q57 49 126 49t104 -25z" />
    <glyph glyph-name="s" unicode="s" horiz-adv-x="488" 
d="M48 76l43 68q12 20 28 12q0 -1 16.5 -8.5t46 -15t55.5 -7.5q51 0 51 27q0 14 -17 22t-70 22q-70 19 -111 59t-41 95q0 61 51 106t139 45q50 0 85.5 -11.5t77.5 -34.5q9 -5 12.5 -13t-1.5 -16l-47 -72q-11 -16 -27 -11q-56 26 -100 26q-23 0 -34.5 -7t-11.5 -17
q0 -11 17 -19t56 -18q177 -48 177 -161q0 -64 -58 -109t-148 -45q-55 0 -106.5 20t-76.5 40q-6 4 -8 11t2 12z" />
    <glyph glyph-name="t" unicode="t" horiz-adv-x="419" 
d="M378 34q2 -9 -10 -20q-25 -19 -91 -19q-84 0 -122.5 42.5t-38.5 141.5v183h-57q-8 0 -13.5 5.5t-5.5 13.5v20q0 15 8 24q3 4 18 20.5t20 22.5l18.5 21.5l20 23.5l18.5 22.5l20 25l18.5 24t19 27l17.5 27.5q8 12 14 12h10q13 0 13 -15v-141h89q8 0 14.5 -6t6.5 -14v-93
q0 -8 -6.5 -14t-14.5 -6h-71q-13 0 -19 3v-176q0 -33 10.5 -48.5t38.5 -15.5q15 0 35 4q19 4 24 -18z" />
    <glyph glyph-name="u" unicode="u" 
d="M522 495q8 0 13 -5.5t5 -13.5v-457q0 -8 -5 -13.5t-13 -5.5h-78q-12 0 -23 12.5t-16 28.5q-66 -47 -139 -47q-53 0 -99.5 21.5t-77.5 66.5t-31 104v219q0 32 -7 65q-2 10 1.5 17.5t10.5 7.5h84q23 0 36 -14t13 -36v-249q0 -39 26 -59t65 -20q58 0 116 58v301
q0 8 5.5 13.5t13.5 5.5h100z" />
    <glyph glyph-name="v" unicode="v" horiz-adv-x="554" 
d="M511 495h-110q-13 0 -19 -19l-104 -245l-105 245q-6 19 -19 19h-114q-9 0 -12.5 -5t0.5 -14l224 -467q8 -14 21 -14h10q13 0 21 14l223 467q4 8 -1.5 13.5t-14.5 5.5z" />
    <glyph glyph-name="w" unicode="w" horiz-adv-x="825" 
d="M782 495q11 0 15 -6t0 -17l-193 -459q-4 -13 -18 -13h-14q-14 0 -21 13l-138 260l-139 -260q-7 -13 -21 -13h-14q-13 0 -19 13l-192 459q-4 10 0 16.5t15 6.5h104q16 0 23 -14l96 -252l115 248q7 13 23 13h17q17 0 22 -13l116 -248l96 252q7 14 22 14h105z" />
    <glyph glyph-name="x" unicode="x" horiz-adv-x="579" 
d="M525 31q6 -9 1 -20t-15 -11h-107q-11 0 -21 14l-94 142l-92 -142q-11 -14 -23 -14h-105q-11 0 -16 11t2 20l151 215l-152 218q-7 9 -2 20t16 11h106q14 0 23 -14l92 -145l94 145q10 14 22 14h107q10 0 15 -11t-1 -20l-154 -218z" />
    <glyph glyph-name="y" unicode="y" 
d="M552 495q11 0 15.5 -6.5t-0.5 -16.5l-192 -394q-73 -151 -134 -247.5t-96 -129.5q-17 -13 -38 8l-55 55q-17 17 1 40q104 117 179 285l-204 383q-5 10 -0.5 16.5t14.5 6.5h110q15 0 23 -14l127 -259l119 259q8 14 23 14h108z" />
    <glyph glyph-name="z" unicode="z" horiz-adv-x="510" 
d="M258 138h182q20 0 20 -19v-100q0 -9 -6 -14t-15 -5h-356q-20 0 -29.5 19t0.5 32l16 26l176 280h-173q-20 0 -20 19v100q0 19 20 19h356q16 0 24.5 -16t0.5 -29l-13 -22z" />
    <glyph glyph-name="braceleft" unicode="{" horiz-adv-x="461" 
d="M136 223v-130q0 -68 17 -121.5t43.5 -85t63.5 -53t71 -30t73 -11.5q6 0 11.5 6t5.5 13v64q0 13 -1.5 15.5t-8.5 2.5q-69 14 -109 63t-40 128v120q0 29 -10.5 54t-27 40t-30.5 24t-27 13v10q5 0 19.5 9t32 25t30.5 42.5t13 55.5v121q0 159 149 190q7 0 8.5 4.5t1.5 13.5
v62q0 13 -4.5 16t-12.5 3q-38 0 -73 -8t-71.5 -29t-63 -53t-43.5 -85.5t-17 -122.5v-130q0 -32 -32 -54.5t-47 -22.5q-6 0 -11.5 -5.5t-5.5 -12.5v-46q0 -8 5.5 -13.5t11.5 -5.5q22 -9 35 -15t28.5 -22.5t15.5 -38.5z" />
    <glyph glyph-name="bar" unicode="|" horiz-adv-x="337" 
d="M100 995q0 19 19 19h99q19 0 19 -19v-1176q0 -19 -19 -19h-99q-19 0 -19 19v1176z" />
    <glyph glyph-name="braceright" unicode="}" horiz-adv-x="461" 
d="M325 223q0 17 7.5 30t22.5 22t23.5 13.5t25.5 10.5q6 0 11.5 5.5t5.5 13.5v46q0 7 -5.5 12.5t-11.5 5.5q-15 0 -47 22.5t-32 54.5v130q0 68 -17 122t-43.5 86t-63 53t-71.5 29t-73 8q-5 0 -8 -0.5t-6 -5t-3 -13.5v-62q0 -6 0.5 -9t2.5 -6t7 -3q149 -31 149 -190v-121
q0 -29 13 -55.5t30.5 -42.5t32 -25t19.5 -9v-10q-13 -4 -27 -13t-30.5 -24t-27 -40t-10.5 -54v-120q0 -79 -40 -128t-109 -63q-7 0 -8.5 -2.5t-1.5 -15.5v-64q0 -7 5.5 -13t11.5 -6q39 3 73 11.5t71 30t63.5 53t43.5 85t17 121.5v130z" />
    <glyph glyph-name="asciitilde" unicode="~" horiz-adv-x="481" 
d="M25 254q7 -6 14.5 -13.5l16 -16.5l13.5 -14q5 -6 13 -5.5t11 8.5q1 1 5.5 8t6 9t6.5 8t7.5 8.5t8 6.5t9.5 6t10 3.5t12 1.5q9 0 19.5 -3.5t15 -6t17 -11t13.5 -8.5q2 -2 11 -8.5t12 -8.5l10.5 -7t12.5 -7t13 -4.5t16 -3.5t18 -1q21 0 43 9t39 22t30.5 26t21.5 22l7 9
q11 15 -1 23l-38 43q-7 7 -15 6.5t-12 -7.5q-36 -52 -75 -52q-13 0 -22.5 4.5t-22.5 16t-14 12.5q-19 13 -29 19t-29.5 12.5t-39.5 6.5t-41.5 -9.5t-37.5 -22.5t-29 -26t-20 -23l-7 -9q-9 -11 1 -23z" />
    <glyph glyph-name="exclamdown" unicode="&#xa1;" horiz-adv-x="293" 
d="M147 498q37 0 63.5 -27t26.5 -64t-26.5 -64t-63.5 -27t-64.5 27t-27.5 64t27 64t65 27zM204 -309h-114q-9 0 -14 6t-5 13v12l22 432q2 20 20 20h69q8 0 13 -5.5t6 -14.5l22 -432v-12q0 -7 -6 -13t-13 -6z" />
    <glyph glyph-name="cent" unicode="&#xa2;" horiz-adv-x="555" 
d="M506 119q13 -11 2 -25q-81 -107 -204 -107q-24 0 -52 5l-23 -67q-7 -18 -26 -12l-31 11q-7 3 -10 10t-1 14l23 68q-65 34 -104 96.5t-39 137.5q0 109 77 186t186 77q28 0 48 -4l15 44q3 8 10.5 11.5t15.5 0.5l31 -11q7 -3 10 -10t1 -14l-15 -45q36 -19 75 -61
q11 -14 -2 -27l-59 -57q-14 -13 -31 4q-16 14 -24 20l-85 -248q3 0 9.5 -0.5t9.5 -0.5q54 0 104 50q14 20 32 5zM176 250q0 -31 13.5 -59t38.5 -47l83 243q-59 -1 -97 -41.5t-38 -95.5z" />
    <glyph glyph-name="sterling" unicode="&#xa3;" horiz-adv-x="586" 
d="M545 710q11 -14 -2 -23l-78 -58q-8 -6 -13.5 -5t-13.5 9q-50 50 -113 50q-44 0 -77.5 -29.5t-32.5 -75.5q0 -21 5.5 -41t18 -50.5t16.5 -42.5l15 -44h100q19 0 19 -20v-82q0 -19 -19 -19h-79q0 -10 -1 -19.5t-3.5 -20t-3.5 -17t-5 -17.5t-5.5 -16t-7 -17.5t-7 -15.5
l-8.5 -17.5l-8 -16.5h261q8 0 14 -6t6 -15v-80q0 -9 -6 -15t-14 -6h-424q-19 0 -19 19v11q47 67 71.5 132t20.5 113v4h-78q-19 0 -19 19v82q0 20 19 20h51l-15 46q-2 6 -9 25l-9 24.5t-6 19.5l-6 21.5t-3.5 17t-1.5 18.5q-2 55 18.5 101.5t55 76.5t77.5 47t87 17
q151 0 232 -104z" />
    <glyph glyph-name="currency" unicode="&#xa4;" horiz-adv-x="705" 
d="M659 267q15 -13 0 -26l-90 -90q-13 -14 -27 0l-73 73q-56 -27 -117 -27q-60 0 -116 27l-73 -73q-13 -15 -26 0l-90 90q-15 13 0 26l72 72q-30 58 -30 121q0 61 29 119l-71 71q-14 13 0 27l90 90q13 13 26 -1l72 -71q54 28 117 28t119 -28l71 71q13 13 27 1l90 -90
q12 -14 0 -27l-72 -72q28 -54 28 -118q0 -65 -29 -120zM231 460q0 -51 35.5 -87.5t86.5 -36.5t87 36.5t36 87.5t-36 86.5t-87 35.5q-52 0 -87 -35.5t-35 -86.5z" />
    <glyph glyph-name="yen" unicode="&#xa5;" horiz-adv-x="740" 
d="M717 800q8 0 11.5 -7.5t-1.5 -15.5l-245 -390h92q8 0 13.5 -5.5t5.5 -12.5v-84q0 -8 -5.5 -14t-13.5 -6h-132v-63h132q7 0 13 -6t6 -13v-84q0 -8 -5.5 -13.5t-13.5 -5.5h-132v-60q0 -9 -5.5 -14.5t-13.5 -5.5h-75q-23 0 -36.5 14.5t-13.5 36.5v29h-133q-7 0 -12.5 5.5
t-5.5 12.5v85q0 7 5.5 13t12.5 6h133v63h-133q-7 0 -12.5 5.5t-5.5 14.5v83q0 7 5.5 13t12.5 6h92l-244 390q-5 8 -1 15.5t12 7.5h126q10 0 21 -19l199 -316l198 316q1 1 2.5 3.5t2.5 3.5t2.5 3t2.5 3l2.5 2.5t3 2l3 1t3.5 0.5h127z" />
    <glyph glyph-name="brokenbar" unicode="&#xa6;" horiz-adv-x="337" 
d="M100 995q0 19 19 19h99q19 0 19 -19v-456q0 -19 -19 -19h-99q-19 0 -19 19v456zM100 275q0 19 19 19h99q19 0 19 -19v-456q0 -19 -19 -19h-99q-19 0 -19 19v456z" />
    <glyph glyph-name="section" unicode="&#xa7;" horiz-adv-x="628" 
d="M578 214q0 -82 -59 -144q59 -64 59 -148q0 -91 -74 -158.5t-189 -67.5q-142 0 -254 112q-18 14 -5 32l43 63q8 10 20 11.5t17 -4.5q1 -1 18 -15.5t37 -30t51.5 -29t61.5 -13.5q50 0 89 27.5t39 71.5q0 50 -38 78.5t-122 58.5q-44 16 -80.5 37t-68 50.5t-49.5 69.5t-18 87
q0 86 58 145q-58 65 -58 147q0 40 15.5 78t45.5 70.5t81.5 52t116.5 19.5q24 0 47.5 -3.5t44 -11t36.5 -14t33 -17l25.5 -16t21 -15t13.5 -10.5q8 -5 10 -15.5t-4 -19.5l-45 -64q-21 -27 -40 -13q-1 0 -12.5 10t-25 19.5t-31.5 20.5t-39 18t-40 7q-50 0 -80.5 -29t-30.5 -66
q0 -41 33 -67.5t109 -54.5q45 -17 84 -38.5t75.5 -53t57.5 -74.5t21 -93zM188 303q0 -41 36.5 -67.5t115.5 -54.5q42 -16 72 -32q29 26 29 64q0 21 -9 39t-22 30.5t-37.5 25.5t-45 21.5t-55.5 21.5l-50 20q-34 -26 -34 -68z" />
    <glyph glyph-name="dieresis" unicode="&#xa8;" horiz-adv-x="458" 
d="M94 651q-30 0 -51 22t-21 52q0 31 21 53t51 22q32 0 54 -22t22 -53q0 -30 -22 -52t-54 -22zM363 651q-31 0 -53 22t-22 52q0 31 22 53t53 22q30 0 51.5 -22t21.5 -53q0 -30 -21.5 -52t-51.5 -22z" />
    <glyph glyph-name="copyright" unicode="&#xa9;" horiz-adv-x="907" 
d="M453 -10q-112 0 -207 55.5t-150.5 150.5t-55.5 207t55.5 207.5t150.5 150.5t207 55q113 0 208.5 -55t150.5 -150t55 -208q0 -112 -55 -207t-150.5 -150.5t-208.5 -55.5zM453 100q126 0 215 88.5t89 214.5t-89 214t-215 88q-127 0 -215 -88t-88 -214q0 -127 88 -215
t215 -88zM610 302q9 -7 3 -19q-63 -82 -156 -82q-83 0 -141.5 58.5t-58.5 141.5t58.5 142t141.5 59q85 0 145 -68q8 -12 -2 -22l-45 -41q-12 -10 -23 3q-35 33 -68 33q-46 0 -77 -31.5t-31 -74.5q0 -41 31.5 -72.5t76.5 -31.5q40 0 78 38q11 15 25 4z" />
    <glyph glyph-name="ordfeminine" unicode="&#xaa;" horiz-adv-x="554" 
d="M499 25q-19 122 -12 281q4 90 -45 142.5t-140 52.5q-58 0 -117 -14.5t-98 -35.5q-20 -12 -13 -27l32 -76q8 -17 28 -9q95 41 158 41q32 0 47.5 -10t14.5 -37q-41 -7 -68.5 -12.5t-63 -15t-58.5 -19t-48 -24.5t-39 -32t-23 -41t-9 -53q0 -67 45 -104t123 -37q97 0 154 55
q12 -50 44 -50h75q8 0 11.5 7.5t1.5 17.5zM238 103q-52 0 -52 35q0 11 6.5 20.5t21 17t28 13.5t36.5 12t36.5 9l37.5 8q-2 -40 0 -75q-22 -18 -54 -29t-60 -11z" />
    <glyph glyph-name="guillemotleft" unicode="&#xab;" horiz-adv-x="602" 
d="M49 215l131 -195q6 -11 17 -11h76q16 0 21 11.5t-4 24.5l-92 186l96 177q8 16 3 27t-20 11h-69q-13 0 -22 -14l-137 -188q-8 -15 0 -29zM302 211l135 -188q11 -14 24 -14h68q15 0 20.5 12t-1.5 26l-99 177l95 186q6 14 1 25t-19 11h-75q-13 0 -20 -10l-129 -196
q-12 -15 0 -29z" />
    <glyph glyph-name="logicalnot" unicode="&#xac;" horiz-adv-x="593" 
d="M535 441q7 0 12.5 -5.5t5.5 -12.5v-265q0 -7 -5.5 -13.5t-12.5 -6.5h-84q-8 0 -13.5 6t-5.5 14v162h-373q-8 0 -13.5 5.5t-5.5 13.5v83q0 8 5.5 13.5t13.5 5.5h476z" />
    <glyph glyph-name="uni00AD" unicode="&#xad;" horiz-adv-x="411" 
d="M371 205q0 -8 -5.5 -14t-13.5 -6h-292q-8 0 -14 5.5t-6 13.5v85q0 9 6 14.5t14 5.5h292q8 0 13.5 -5t5.5 -14v-85z" />
    <glyph glyph-name="registered" unicode="&#xae;" horiz-adv-x="599" 
d="M300 933q118 0 201 -83t83 -201q0 -119 -83 -202t-201.5 -83t-201.5 83t-83 202q0 118 83.5 201t201.5 83zM300 447q83 0 142.5 59.5t59.5 142.5q0 84 -59.5 143t-142.5 59q-84 0 -143 -59t-59 -143q0 -83 59 -142.5t143 -59.5zM359 623l61 -108q5 -8 -5 -8h-60
q-6 0 -7 3l-56 105h-28v-102q0 -6 -7 -6h-53q-7 0 -7 6v270q0 8 7 8h117q39 0 65 -27t26 -60q0 -26 -14.5 -48.5t-38.5 -32.5zM264 726v-49h50q14 0 20.5 12t0.5 24.5t-21 12.5h-50z" />
    <glyph glyph-name="macron" unicode="&#xaf;" horiz-adv-x="512" 
d="M40 748q0 5 4 9.5t11 4.5l401 1q6 0 11 -5t5 -10v-73q0 -7 -4.5 -11t-11.5 -4h-401q-15 0 -15 15v73z" />
    <glyph glyph-name="degree" unicode="&#xb0;" horiz-adv-x="394" 
d="M197 470q-64 0 -109.5 46t-45.5 110q0 63 45.5 108.5t109.5 45.5t109.5 -45.5t45.5 -108.5q0 -65 -45.5 -110.5t-109.5 -45.5zM197.5 564q25.5 0 44 18t18.5 44q0 25 -18.5 43t-43.5 18t-43.5 -18t-18.5 -43q0 -26 18 -44t43.5 -18z" />
    <glyph glyph-name="plusminus" unicode="&#xb1;" horiz-adv-x="597" 
d="M527 519q19 0 19 -19v-95q0 -20 -19 -20h-162v-161q0 -19 -19 -19h-95q-20 0 -20 19v161h-161q-19 0 -19 20v95q0 19 19 19h161v162q0 19 20 19h95q19 0 19 -19v-162h162zM527 125q8 0 13.5 -5.5t5.5 -14.5v-85q0 -8 -5.5 -14t-13.5 -6h-456q-8 0 -14 5.5t-6 13.5v85
q0 9 5.5 15t14.5 6h456z" />
    <glyph glyph-name="uni00B2" unicode="&#xb2;" horiz-adv-x="601" 
d="M536 138q19 0 19 -19v-99q0 -7 -14 -13.5t-23 -6.5h-448q-7 0 -13 6t-7 13v31l279 348q38 45 59 82t21 74q0 41 -33.5 69t-82.5 28q-48 0 -82 -21t-73 -64q-5 -7 -13.5 -7t-14.5 7l-59 64q-6 6 -6 14.5t5 14.5q45 63 111 95.5t140 32.5q101 0 175.5 -65t74.5 -165
q0 -91 -68 -175l-195 -244h248z" />
    <glyph glyph-name="uni00B3" unicode="&#xb3;" horiz-adv-x="620" 
d="M96 770h433q20 0 20 -19v-99q0 -21 -14 -36l-153 -164q50 -8 94 -39q45 -31 72 -82.5t27 -108.5q0 -62 -37.5 -116.5t-96 -85t-120.5 -30.5q-86 0 -149 34t-121 103q-12 14 1 27l71 66q12 13 27 -2q81 -90 162 -90q52 0 84 34.5t32 76.5q0 39 -26.5 67t-66.5 28
q-16 0 -39 -9.5t-30 -9.5q-9 0 -16 9l-55 74q-11 15 1 27l188 207h-288q-8 0 -14.5 6t-6.5 13v99q0 8 6.5 14t14.5 6z" />
    <glyph glyph-name="acute" unicode="&#xb4;" horiz-adv-x="355" 
d="M303 709q7 4 9 12.5t-3 18.5l-37 61q-4 7 -13.5 7.5t-15.5 -5.5l-195 -131q-5 -3 -7 -9t2 -14l24 -43q7 -15 27 -6z" />
    <glyph glyph-name="paragraph" unicode="&#xb6;" horiz-adv-x="902" 
d="M838 800q19 0 19 -19v-95q0 -19 -19 -19h-84v-647q0 -8 -5.5 -14t-14.5 -6h-100q-8 0 -13.5 6t-5.5 14l1 647h-102v-647q0 -8 -5.5 -14t-14.5 -6h-100q-8 0 -13.5 6t-5.5 14v268h-77q-73 0 -132 38.5t-90 97.5t-31 124q0 44 18.5 88.5t50.5 81t80.5 59.5t103.5 23h540z
M375 419l1 248h-66q-33 0 -59 -13.5t-39.5 -35.5t-20 -48.5t0 -53t20 -48.5t39.5 -35.5t59 -13.5h65z" />
    <glyph glyph-name="periodcentered" unicode="&#xb7;" horiz-adv-x="282" 
d="M141 209q-37 0 -64 26.5t-27 63.5t27 64t64 27t64 -27t27 -64t-27 -63.5t-64 -26.5z" />
    <glyph glyph-name="cedilla" unicode="&#xb8;" horiz-adv-x="327" 
d="M159 -64q52 -4 88.5 -41t36.5 -89q0 -53 -39.5 -92t-94.5 -39q-58 0 -97 46q-6 7 1 14l32 35q7 7 16 -2q23 -17 48 -17q27 0 41 15.5t14 39.5q0 23 -14.5 38.5t-40.5 15.5q-29 0 -52 -22q-10 -10 -18 -2l-31 33q-6 6 -2 13q0 1 1 2l58 116h84z" />
    <glyph glyph-name="uni00B9" unicode="&#xb9;" horiz-adv-x="366" 
d="M291 770q8 0 14 -6t6 -13v-731q0 -8 -6 -14t-14 -6h-103q-8 0 -14 6t-6 14v542l-100 -21q-19 -5 -22 15l-11 73q-2 18 16 22q52 17 123 101l7 10q5 8 17 8h93z" />
    <glyph glyph-name="ordmasculine" unicode="&#xba;" horiz-adv-x="592" 
d="M296 -7q106 0 181 73.5t75 180.5q0 108 -75 181.5t-181 73.5t-181 -73.5t-75 -181.5q0 -107 75 -180.5t181 -73.5zM296 121q-52 0 -87.5 37t-35.5 88q0 52 35 89.5t88 37.5t88 -37.5t35 -89.5q0 -51 -35.5 -88t-87.5 -37z" />
    <glyph glyph-name="guillemotright" unicode="&#xbb;" horiz-adv-x="601" 
d="M295 211q12 14 0 29l-129 196q-7 10 -20 10h-75q-15 0 -19.5 -11t1.5 -25l95 -186l-99 -177q-7 -14 -1.5 -26t20.5 -12h68q13 0 24 14zM548 215q8 14 0 29l-137 188q-9 14 -22 14h-69q-15 0 -20 -10.5t3 -27.5l96 -177l-92 -186q-9 -13 -4 -24.5t21 -11.5h75q12 0 18 11z
" />
    <glyph glyph-name="onequarter" unicode="&#xbc;" horiz-adv-x="710" 
d="M583 800q11 0 15 -6.5t-1 -16.5l-399 -763q-7 -14 -22 -14h-47q-12 0 -16 6.5t1 16.5l399 763q7 14 22 14h48zM126 462v213l-61 -5q-15 -2 -15 10v42q0 11 10 14q35 10 70 53l3 6q5 5 11 5h59q5 0 9 -3.5t4 -8.5v-326q0 -5 -4 -9t-9 -4h-64q-5 0 -9 3.5t-4 9.5zM651 152
q9 0 9 -10v-55q0 -4 -3 -6.5t-6 -2.5h-21v-69q0 -9 -8 -9h-56q-10 0 -10 9v69h-127q-9 0 -9 9l-1 54q0 4 4 8v1q66 50 95 124q14 38 14 75q0 10 9 10h59q8 0 8 -10q0 -60 -34 -132q-16 -31 -59 -65h41v9q0 4 2.5 7t6.5 3l56 5q9 0 9 -11v-13h21z" />
    <glyph glyph-name="onehalf" unicode="&#xbd;" horiz-adv-x="747" 
d="M583 800q11 0 15 -6.5t-1 -16.5l-399 -763q-7 -14 -22 -14h-47q-12 0 -16 6.5t1 16.5l399 763q7 14 22 14h48zM126 462v213l-61 -5q-15 -2 -15 10v42q0 11 10 14q35 10 70 53l3 6q5 5 11 5h59q5 0 9 -3.5t4 -8.5v-326q0 -5 -4 -9t-9 -4h-64q-5 0 -9 3.5t-4 9.5zM688 79
q8 0 8 -9v-59q0 -11 -8 -11h-219q-10 0 -10 11v12l45 56h1l73 92q2 3 11 15t13 18t8 16t4 18q0 20 -15 34t-36 14q-18 0 -32.5 -9t-33.5 -29q-7 -8 -13 0l-37 39q-6 6 -1 13q24 34 60 50.5t72.5 12.5t66.5 -26q38 -26 43 -78t-23 -90l-68 -90h91z" />
    <glyph glyph-name="threequarters" unicode="&#xbe;" horiz-adv-x="705" 
d="M266 482q-45 -50 -110 -45.5t-113 61.5q-6 7 0 13l35 37q6 6 13 -1q10 -11 22 -20t27 -16t30.5 -5.5t27.5 12.5q14 13 16 29.5t-7 28.5t-24.5 18t-34.5 -3q-6 -6 -12 2l-30 36q-5 6 0 13l71 84h-114q-9 0 -9 8v55q0 11 9 11h205q9 0 9 -10v-54q0 -3 -2 -5l-70 -77
q26 -5 46.5 -24.5t29.5 -45t5.5 -53.5t-20.5 -49zM590 800q12 0 16 -6.5t-1 -16.5l-399 -763q-7 -14 -22 -14h-48q-11 0 -15 6.5t1 16.5l399 763q7 14 22 14h47zM655 152q10 0 10 -10v-55q0 -4 -3 -6.5t-7 -2.5h-20v-69q0 -9 -9 -9h-55q-10 0 -10 9v69h-128q-8 0 -8 9l-1 54
q0 5 4 8v1q67 52 94 124q15 40 15 75q0 10 9 10h59q3 0 5.5 -3t2.5 -7q-1 -58 -34 -132q-16 -31 -59 -65h41v9q0 4 2.5 7t6.5 3l55 5q4 0 7 -3.5t3 -7.5v-13h20z" />
    <glyph glyph-name="questiondown" unicode="&#xbf;" horiz-adv-x="465" 
d="M248 504q38 0 65 -27t27 -64t-27.5 -64t-64.5 -27t-64 27t-27 64t26.5 64t64.5 27zM445 -188q11 -12 1 -24q-64 -75 -150 -97t-171 13q-41 17 -69 53.5t-37 79t2.5 88t45.5 78.5q24 23 47.5 41.5t34 25.5t19.5 19t11.5 27.5t2.5 44.5q0 8 5.5 14t13.5 6h88q9 0 14.5 -6
t5.5 -14l2 -65q0 -23 -24.5 -49.5t-54.5 -47.5t-56 -49t-28 -52q-5 -47 24 -71.5t80 -24.5q12 0 23 2t21.5 7l17 8t17 12t14 11.5t14.5 13.5l12 12q14 13 24 0z" />
    <glyph glyph-name="Agrave" unicode="&#xc0;" horiz-adv-x="879" 
d="M316 987q-8 4 -10 12.5t4 18.5l36 61q5 7 14 7.5t16 -5.5l195 -131q5 -3 7 -9t-2 -14l-24 -43q-7 -16 -28 -6zM836 22q5 -9 1.5 -15.5t-13.5 -6.5h-117q-13 0 -20 13l-54 114h-385l-54 -114q-6 -13 -20 -13h-118q-9 0 -13 6.5t0 15.5l377 773q6 10 14 10h12q8 0 14 -10z
M309 257h263l-131 279z" />
    <glyph glyph-name="Aacute" unicode="&#xc1;" horiz-adv-x="879" 
d="M334 884l-24 43q-9 16 5 23l195 131q6 6 15.5 5.5t13.5 -7.5l37 -61q11 -21 -6 -31l-209 -109q-20 -9 -27 6zM836 22q5 -9 1.5 -15.5t-13.5 -6.5h-117q-13 0 -20 13l-54 114h-385l-54 -114q-6 -13 -20 -13h-118q-9 0 -13 6.5t0 15.5l377 773q6 10 14 10h12q8 0 14 -10z
M309 257h263l-131 279z" />
    <glyph glyph-name="Acircumflex" unicode="&#xc2;" horiz-adv-x="879" 
d="M282 878q-14 -7 -23 -2.5t-9 16.5v59q0 11 11 18l168 112q13 7 25 0l169 -112q11 -7 11 -18v-59q0 -12 -9 -16.5t-23 2.5l-160 81zM836 22q5 -9 1.5 -15.5t-13.5 -6.5h-117q-13 0 -20 13l-54 114h-385l-54 -114q-6 -13 -20 -13h-118q-9 0 -13 6.5t0 15.5l377 773
q6 10 14 10h12q8 0 14 -10zM309 257h263l-131 279z" />
    <glyph glyph-name="Atilde" unicode="&#xc3;" horiz-adv-x="879" 
d="M265 911l-41 43q-12 12 -1 25q6 8 14 17t26.5 26.5t44.5 29t53 11.5q29 0 56 -14.5t51.5 -29t47.5 -14.5q45 0 84 39q14 12 26 0l37 -45q11 -13 1 -25l-7.5 -7.5l-16 -16t-22.5 -19t-29 -18.5t-34 -13.5t-38 -5.5q-25 0 -46 9t-33.5 19.5t-32.5 19.5t-43 9q-40 0 -72 -39
q-14 -14 -25 -1zM836 22q5 -9 1.5 -15.5t-13.5 -6.5h-117q-13 0 -20 13l-54 114h-385l-54 -114q-6 -13 -20 -13h-118q-9 0 -13 6.5t0 15.5l377 773q6 10 14 10h12q8 0 14 -10zM309 257h263l-131 279z" />
    <glyph glyph-name="Adieresis" unicode="&#xc4;" horiz-adv-x="879" 
d="M307 929q-30 0 -51 22t-21 52q0 31 21 53t51 22q32 0 54 -22t22 -53q0 -30 -22 -52t-54 -22zM576 929q-31 0 -53 22t-22 52q0 31 22 53t53 22q30 0 51.5 -22t21.5 -53q0 -30 -21.5 -52t-51.5 -22zM836 22q5 -9 1.5 -15.5t-13.5 -6.5h-117q-14 0 -20 13l-54 114h-385
l-54 -114q-7 -13 -20 -13h-118q-9 0 -13 6.5t0 15.5l377 773q6 10 14 10h12q8 0 14 -10zM309 257h263l-131 279z" />
    <glyph glyph-name="Aring" unicode="&#xc5;" horiz-adv-x="879" 
d="M441 836q-51 0 -88 36.5t-37 87.5t37 87.5t88 36.5t88 -36.5t37 -87.5t-37 -87.5t-88 -36.5zM441 1015q-22 0 -38 -16t-16 -39t16 -39t38 -16q23 0 39 16t16 39t-16 39t-39 16zM836 22q5 -9 1.5 -15.5t-13.5 -6.5h-117q-13 0 -20 13l-54 114h-385l-54 -114
q-6 -13 -20 -13h-118q-9 0 -13 6.5t0 15.5l377 773q6 10 14 10h12q8 0 14 -10zM309 257h263l-131 279z" />
    <glyph glyph-name="AE" unicode="&#xc6;" horiz-adv-x="1164" 
d="M1079 662h-364v-201h196q8 0 14.5 -6t6.5 -14v-99q0 -9 -6 -14t-15 -5h-195v-185h363q8 0 14 -6t6 -14v-98q0 -8 -5.5 -14t-14.5 -6h-486q-7 0 -11 3q-10 7 -10 17v83h-317l-56 -90q-9 -13 -21 -13h-121q-10 0 -14.5 6.5t1.5 15.5l467 759q13 19 27 19h158h383
q8 0 14 -5.5t6 -13.5v-100q0 -8 -5.5 -13.5t-14.5 -5.5zM336 231h236v378z" />
    <glyph glyph-name="Ccedilla" unicode="&#xc7;" horiz-adv-x="803" 
d="M747 150q16 -12 1 -27q-109 -119 -271 -129l-27 -58q52 -4 88 -41t36 -89q0 -53 -39.5 -92t-94.5 -39q-58 0 -97 46q-6 7 1 14l32 35q7 7 16 -2q23 -17 48 -17q27 0 41 15.5t14 39.5q0 23 -14.5 38.5t-40.5 15.5q-29 0 -52 -22q-10 -10 -18 -2l-31 33q-6 6 -2 13
q0 1 0.5 1.5l0.5 0.5l56 113q-148 20 -248.5 133t-100.5 268q0 111 55 205.5t148 149t201 54.5q89 0 167 -34.5t135 -97.5q14 -14 -1 -27l-83 -67q-15 -12 -27 2q-36 37 -85 61.5t-105 24.5q-109 0 -185.5 -81t-76.5 -190q0 -110 76 -188.5t186 -78.5q56 0 104 23.5t83 59.5
q13 13 28 3z" />
    <glyph glyph-name="Egrave" unicode="&#xc8;" horiz-adv-x="666" 
d="M215 968q-8 4 -10 12.5t4 18.5l36 61q5 7 14 7.5t16 -5.5l195 -131q5 -3 7 -9t-2 -14l-24 -43q-7 -16 -28 -6zM582 662h-364v-201h196q8 0 14 -6t6 -14v-99q0 -19 -20 -19h-196v-185h364q8 0 14 -6t6 -14v-98q0 -8 -6 -14t-14 -6h-487q-8 0 -14 6t-6 14v761q0 8 5.5 13.5
t13.5 5.5h488q8 0 14 -5.5t6 -13.5v-100q0 -8 -6 -13.5t-14 -5.5z" />
    <glyph glyph-name="Eacute" unicode="&#xc9;" horiz-adv-x="666" 
d="M234 865l-24 43q-4 8 -2 14t7 9l195 131q6 6 15.5 5.5t13.5 -7.5l37 -61q5 -10 3 -18.5t-9 -12.5l-209 -109q-20 -9 -27 6zM582 662h-364v-201h196q8 0 14 -6t6 -14v-99q0 -19 -20 -19h-196v-185h364q8 0 14 -6t6 -14v-98q0 -8 -6 -14t-14 -6h-487q-8 0 -14 6t-6 14v761
q0 8 5.5 13.5t13.5 5.5h488q8 0 14 -5.5t6 -13.5v-100q0 -8 -6 -13.5t-14 -5.5z" />
    <glyph glyph-name="Ecircumflex" unicode="&#xca;" horiz-adv-x="666" 
d="M181 859q-14 -7 -23 -2.5t-9 16.5v59q0 11 11 18l168 112q12 7 25 0l169 -112q11 -7 11 -18v-59q0 -12 -9 -16.5t-23 2.5l-160 81zM582 662h-364v-201h196q8 0 14 -6t6 -14v-99q0 -19 -20 -19h-196v-185h364q8 0 14 -6t6 -14v-98q0 -8 -6 -14t-14 -6h-487q-8 0 -14 6
t-6 14v761q0 8 5.5 13.5t13.5 5.5h488q8 0 14 -5.5t6 -13.5v-100q0 -8 -6 -13.5t-14 -5.5z" />
    <glyph glyph-name="Edieresis" unicode="&#xcb;" horiz-adv-x="666" 
d="M206 910q-30 0 -51 22t-21 52q0 31 21 53t51 22q32 0 54 -22t22 -53q0 -30 -22 -52t-54 -22zM475 910q-31 0 -53 22t-22 52q0 31 22 53t53 22q30 0 51.5 -22t21.5 -53q0 -30 -21.5 -52t-51.5 -22zM582 662h-364v-201h196q8 0 14 -6t6 -14v-99q0 -19 -20 -19h-196v-185
h364q8 0 14 -6t6 -14v-98q0 -8 -6 -14t-14 -6h-487q-8 0 -14 6t-6 14v761q0 8 5.5 13.5t13.5 5.5h488q8 0 14 -5.5t6 -13.5v-100q0 -8 -6 -13.5t-14 -5.5z" />
    <glyph glyph-name="Igrave" unicode="&#xcc;" horiz-adv-x="298" 
d="M25 967l208 -109q21 -10 28 6l24 43q4 8 2 14t-7 9l-195 131q-7 6 -16 5.5t-14 -7.5l-36 -61q-6 -10 -4 -18.5t10 -12.5zM198 800h-99q-8 0 -13.5 -5.5t-5.5 -13.5v-761q0 -8 6 -14t14 -6h99q7 0 13 6t6 14v761q0 7 -6 13t-14 6z" />
    <glyph glyph-name="Iacute" unicode="&#xcd;" horiz-adv-x="298" 
d="M279 967q7 4 9 12.5t-3 18.5l-37 61q-4 7 -13.5 7.5t-15.5 -5.5l-195 -131q-5 -3 -7 -9t2 -14l24 -43q7 -15 27 -6zM198 800h-99q-8 0 -13.5 -5.5t-5.5 -13.5v-761q0 -8 6 -14t14 -6h99q7 0 13 6t6 14v761q0 7 -6 13t-14 6z" />
    <glyph glyph-name="Icircumflex" unicode="&#xce;" horiz-adv-x="298" 
d="M138 1062l-168 -112q-11 -7 -11 -18v-59q0 -12 9 -16.5t23 2.5l160 81l160 -81q14 -7 23 -2.5t9 16.5v59q0 11 -11 18l-169 112q-12 7 -25 0zM198 800h-99q-8 0 -13.5 -5.5t-5.5 -13.5v-761q0 -8 6 -14t14 -6h99q7 0 13 6t6 14v761q0 7 -6 13t-14 6z" />
    <glyph glyph-name="Idieresis" unicode="&#xcf;" horiz-adv-x="298" 
d="M15 909q-30 0 -51 22t-21 52q0 31 21 53t51 22q32 0 54 -22t22 -53q0 -30 -22 -52t-54 -22zM284 909q-31 0 -53 22t-22 52q0 31 22 53t53 22q30 0 51.5 -22t21.5 -53q0 -30 -21.5 -52t-51.5 -22zM198 800h-99q-8 0 -13.5 -5.5t-5.5 -13.5v-761q0 -8 6 -14t14 -6h99
q7 0 13 6t6 14v761q0 7 -6 13t-14 6z" />
    <glyph glyph-name="Eth" unicode="&#xd0;" horiz-adv-x="820" 
d="M354 800q76 0 142.5 -23t115 -62.5t83.5 -90.5t52.5 -107.5t17.5 -113.5q0 -80 -28.5 -153t-79.5 -128.5t-130 -88.5t-173 -33h-264q-8 0 -14 6t-6 14v312h-30q-8 0 -14 5.5t-6 13.5v98q0 9 6 14.5t14 5.5h30v312q0 8 5.5 13.5t13.5 5.5h265zM354 138q80 0 141 38t92 98
t30 130q0 69 -30 127t-91 94.5t-142 36.5h-142v-193h119q8 0 13.5 -5t5.5 -14v-98q0 -8 -5.5 -14t-13.5 -6h-118v-194h141z" />
    <glyph glyph-name="Ntilde" unicode="&#xd1;" horiz-adv-x="845" 
d="M208 929l41 -43q11 -13 25 1q32 39 72 39q23 0 43 -9t32.5 -19.5t33.5 -19.5t46 -9q19 0 38 5.5t34 13.5t29 18.5t22.5 19l16 16l7.5 7.5q10 12 -1 25l-37 45q-12 12 -26 0q-39 -39 -84 -39q-23 0 -47.5 14.5t-51.5 29t-56 14.5q-27 0 -53 -11.5t-44.5 -29t-26.5 -26.5
t-14 -17q-11 -13 1 -25zM750 800q8 0 14 -6t6 -13v-762q0 -8 -5.5 -13.5t-13.5 -5.5h-33q-39 0 -92 59l-409 457v-496q0 -8 -6 -13.5t-14 -5.5l-102 -1q-8 0 -14 6t-6 14v761q0 7 5.5 13t13.5 6h59q15 0 27 -15l447 -512v508q0 8 5.5 13.5t13.5 5.5h104z" />
    <glyph glyph-name="Ograve" unicode="&#xd2;" horiz-adv-x="936" 
d="M343 976l208 -109q21 -10 28 6l24 43q4 8 2 14t-7 9l-195 131q-7 6 -16 5.5t-14 -7.5l-36 -61q-6 -10 -4 -18.5t10 -12.5zM469 -7q110 0 204 54t148.5 148t54.5 206q0 111 -54.5 204.5t-148.5 147.5t-204 54q-111 0 -205.5 -54t-149 -147.5t-54.5 -204.5q0 -112 55 -206
t149 -148t205 -54zM469 131q-108 0 -187 80t-79 190q0 109 79 188.5t187 79.5t186.5 -79.5t78.5 -188.5q0 -110 -78.5 -190t-186.5 -80z" />
    <glyph glyph-name="Oacute" unicode="&#xd3;" horiz-adv-x="936" 
d="M598 976q7 4 9 12.5t-3 18.5l-37 61q-4 7 -13.5 7.5t-15.5 -5.5l-195 -131q-5 -3 -7 -9t2 -14l24 -43q7 -15 27 -6zM469 -7q110 0 204 54t148.5 148t54.5 206q0 169 -119.5 287.5t-287.5 118.5q-170 0 -289.5 -118.5t-119.5 -287.5q0 -112 55 -206t149 -148t205 -54z
M469 131q-108 0 -187 80t-79 190q0 109 79 188.5t187 79.5t186.5 -79.5t78.5 -188.5q0 -110 -78.5 -190t-186.5 -80z" />
    <glyph glyph-name="Ocircumflex" unicode="&#xd4;" horiz-adv-x="936" 
d="M457 1070l-168 -112q-11 -7 -11 -18v-59q0 -12 9 -16.5t23 2.5l160 81l160 -81q14 -7 23 -2.5t9 16.5v59q0 11 -11 18l-169 112q-13 7 -25 0zM469 -7q110 0 204 54t148.5 148t54.5 206q0 111 -54.5 204.5t-148.5 147.5t-204 54q-111 0 -205.5 -54t-149 -147.5
t-54.5 -204.5q0 -112 55 -206t149 -148t205 -54zM469 131q-108 0 -187 80t-79 190q0 109 79 188.5t187 79.5t186.5 -79.5t78.5 -188.5q0 -110 -78.5 -190t-186.5 -80z" />
    <glyph glyph-name="Otilde" unicode="&#xd5;" horiz-adv-x="936" 
d="M252 943l41 -43q11 -13 25 1q32 39 72 39q23 0 43 -9t32.5 -19.5t33.5 -19.5t46 -9q19 0 38 5.5t34 13.5t29 18.5t22.5 19l16 16l7.5 7.5q10 12 -1 25l-37 45q-12 12 -26 0q-39 -39 -84 -39q-23 0 -47.5 14.5t-51.5 29t-56 14.5q-27 0 -53 -11.5t-44.5 -29t-26.5 -26.5
t-14 -17q-11 -13 1 -25zM469 -7q110 0 204 54t148.5 148t54.5 206q0 111 -54.5 204.5t-148.5 147.5t-204 54q-111 0 -205.5 -54t-149 -147.5t-54.5 -204.5q0 -112 55 -206t149 -148t205 -54zM469 131q-108 0 -187 80t-79 190q0 109 79 188.5t187 79.5t186.5 -79.5
t78.5 -188.5q0 -110 -78.5 -190t-186.5 -80z" />
    <glyph glyph-name="Odieresis" unicode="&#xd6;" horiz-adv-x="936" 
d="M334 918q-30 0 -51 22t-21 52q0 31 21 53t51 22q32 0 54 -22t22 -53q0 -30 -22 -52t-54 -22zM603 918q-31 0 -53 22t-22 52q0 31 22 53t53 22q30 0 51.5 -22t21.5 -53q0 -30 -21.5 -52t-51.5 -22zM469 -7q110 0 204 54t148.5 148t54.5 206q0 111 -54.5 204.5
t-148.5 147.5t-204 54q-111 0 -205.5 -54t-149 -147.5t-54.5 -204.5q0 -112 55 -206t149 -148t205 -54zM469 131q-108 0 -187 80t-79 190q0 109 79 188.5t187 79.5t186.5 -79.5t78.5 -188.5q0 -110 -78.5 -190t-186.5 -80z" />
    <glyph glyph-name="multiply" unicode="&#xd7;" horiz-adv-x="570" 
d="M374 388l130 -130q12 -14 0 -26l-63 -62q-13 -13 -26 0l-130 129l-130 -129q-12 -14 -26 0l-62 62q-14 12 0 26l129 130l-129 129q-14 12 0 26l62 64q13 10 26 0l130 -130l130 130q13 10 26 0l63 -64q12 -14 0 -26z" />
    <glyph glyph-name="Oslash" unicode="&#xd8;" horiz-adv-x="986" 
d="M919 755q14 -14 0 -27l-92 -93q74 -104 74 -234q0 -112 -54.5 -206t-148.5 -148t-205 -54q-129 0 -235 73l-89 -89q-13 -14 -27 0l-75 76q-14 13 0 27l89 89q-72 104 -72 232q0 111 54.5 204.5t149 147.5t205.5 54q127 0 230 -70l94 93q13 14 27 0zM227 401
q0 -68 33 -128l361 361q-60 35 -128 35q-108 0 -187 -79.5t-79 -188.5zM758 401q0 69 -35 131l-363 -364q64 -37 133 -37q108 0 186.5 80t78.5 190z" />
    <glyph glyph-name="Ugrave" unicode="&#xd9;" horiz-adv-x="772" 
d="M261 964l208 -109q21 -10 28 6l24 43q4 8 2 14t-7 9l-195 131q-7 6 -16 5.5t-14 -7.5l-36 -61q-6 -10 -4 -18.5t10 -12.5zM683 801h-105q-19 0 -19 -20v-485q0 -77 -46.5 -121t-128.5 -44q-81 0 -126 44t-45 121v485q0 9 -5.5 14.5t-13.5 5.5h-103q-9 0 -15 -5.5
t-6 -14.5v-490q0 -131 84.5 -214.5t229.5 -83.5q146 0 232 84t86 214v490q0 20 -19 20z" />
    <glyph glyph-name="Uacute" unicode="&#xda;" horiz-adv-x="772" 
d="M515 964q7 4 9 12.5t-3 18.5l-37 61q-4 7 -13.5 7.5t-15.5 -5.5l-195 -131q-5 -3 -7 -9t2 -14l24 -43q7 -15 27 -6zM683 801h-105q-19 0 -19 -20v-485q0 -77 -46.5 -121t-128.5 -44q-81 0 -126 44t-45 121v485q0 9 -5.5 14.5t-13.5 5.5h-103q-9 0 -15 -5.5t-6 -14.5v-490
q0 -131 84.5 -214.5t229.5 -83.5q146 0 232 83.5t86 214.5v490q0 20 -19 20z" />
    <glyph glyph-name="Ucircumflex" unicode="&#xdb;" horiz-adv-x="772" 
d="M374 1059l-168 -112q-11 -7 -11 -18v-59q0 -12 9 -16.5t23 2.5l160 81l160 -81q14 -7 23 -2.5t9 16.5v59q0 11 -11 18l-169 112q-12 7 -25 0zM683 801h-105q-19 0 -19 -20v-485q0 -77 -46.5 -121t-128.5 -44q-81 0 -126 44t-45 121v485q0 9 -5.5 14.5t-13.5 5.5h-103
q-9 0 -15 -5.5t-6 -14.5v-490q0 -131 84.5 -214.5t229.5 -83.5q146 0 232 83.5t86 214.5v490q0 20 -19 20z" />
    <glyph glyph-name="Udieresis" unicode="&#xdc;" horiz-adv-x="772" 
d="M252 906q-30 0 -51 22t-21 52q0 31 21 53t51 22q32 0 54 -22t22 -53q0 -30 -22 -52t-54 -22zM521 906q-31 0 -53 22t-22 52q0 31 22 53t53 22q30 0 51.5 -22t21.5 -53q0 -30 -21.5 -52t-51.5 -22zM683 801h-105q-19 0 -19 -20v-485q0 -77 -46.5 -121t-128.5 -44
q-81 0 -126 44t-45 121v485q0 9 -5.5 14.5t-13.5 5.5h-103q-9 0 -15 -5.5t-6 -14.5v-490q0 -131 84.5 -214.5t229.5 -83.5q146 0 232 83.5t86 214.5v490q0 20 -19 20z" />
    <glyph glyph-name="Yacute" unicode="&#xdd;" horiz-adv-x="769" 
d="M514 968q7 4 9 12.5t-3 18.5l-37 61q-4 7 -13.5 7.5t-15.5 -5.5l-195 -131q-5 -3 -7 -9t2 -14l24 -43q7 -15 27 -6zM740 800q8 0 12 -7.5t-1 -15.5l-296 -455v-302q0 -20 -18 -20h-75q-23 0 -36 14.5t-13 36.5v271l-295 455q-5 8 -1 15.5t12 7.5h128q11 0 22 -19
l205 -316l204 316q1 1 2.5 3.5t2.5 3.5t2.5 3t2.5 3l2.5 2.5t3 2l3 1t3.5 0.5h130z" />
    <glyph glyph-name="Thorn" unicode="&#xde;" horiz-adv-x="692" 
d="M409 657q55 0 103.5 -23t80.5 -59.5t50.5 -81t18.5 -88.5q0 -65 -31 -124t-90 -97.5t-132 -38.5h-199v-125q0 -8 -6 -14t-13 -6h-100q-9 0 -15 6t-6 14v761q0 8 5.5 13.5t14.5 5.5h100q8 0 14 -6t6 -13v-124h199zM397 276q38 0 66.5 18.5t41.5 46t13 59.5t-12.5 59.5
t-41 46t-67.5 18.5h-187v-248h187z" />
    <glyph glyph-name="germandbls" unicode="&#xdf;" horiz-adv-x="648" 
d="M469 423q61 -26 97.5 -81t36.5 -116q0 -88 -74.5 -157t-165.5 -69h-23q-19 0 -19 19v77q0 19 19 20q60 6 98 35.5t38 85.5q0 53 -49 92t-106 39v79q0 19 13 23l23 5q73 19 73 100q0 41 -32.5 68.5t-83.5 27.5q-56 0 -91 -40.5t-35 -110.5l-1 -500q0 -8 -5.5 -14t-13.5 -6
h-98q-8 0 -14 6t-6 14l1 511q0 119 74 195.5t189 76.5q106 0 179.5 -66.5t74.5 -161.5q0 -52 -20.5 -87t-78.5 -65z" />
    <glyph glyph-name="agrave" unicode="&#xe0;" horiz-adv-x="554" 
d="M161 709l208 -109q21 -10 28 6l24 43q4 8 2 14t-7 9l-195 131q-7 6 -16 5.5t-14 -7.5l-36 -61q-6 -10 -4 -18.5t10 -12.5zM499 25q-19 122 -12 281q4 90 -45 142.5t-140 52.5q-58 0 -117 -14.5t-98 -35.5q-20 -12 -13 -27l32 -76q8 -17 28 -9q95 41 158 41q32 0 47.5 -10
t14.5 -37q-41 -7 -68.5 -12.5t-63 -15t-58.5 -19t-47.5 -24.5t-39 -32t-23.5 -41t-9 -53q0 -67 45 -104t123 -37q58 0 92.5 14t61.5 41q12 -50 44 -50h75q8 0 11.5 7.5t1.5 17.5zM238 103q-52 0 -52 35q0 11 6.5 20.5t21 17t28 13.5t36.5 12t36.5 9l37.5 8q-2 -40 0 -75
q-22 -18 -54 -29t-60 -11z" />
    <glyph glyph-name="aacute" unicode="&#xe1;" horiz-adv-x="554" 
d="M415 709q7 4 9 12.5t-3 18.5l-37 61q-4 7 -13.5 7.5t-15.5 -5.5l-195 -131q-5 -3 -7 -9t2 -14l24 -43q7 -15 27 -6zM499 25q-19 122 -12 281q4 90 -45 142.5t-140 52.5q-58 0 -117 -14.5t-98 -35.5q-20 -12 -13 -27l32 -76q8 -17 28 -9q95 41 158 41q32 0 47.5 -10
t14.5 -37q-41 -7 -68.5 -12.5t-63 -15t-58.5 -19t-48 -24.5t-39 -32t-23 -41t-9 -53q0 -67 45 -104t123 -37q58 0 92.5 14t61.5 41q12 -50 44 -50h75q8 0 11.5 7.5t1.5 17.5zM238 103q-52 0 -52 35q0 11 6.5 20.5t21 17t28 13.5t36.5 12t36.5 9l37.5 8q-2 -40 0 -75
q-22 -18 -54 -29t-60 -11z" />
    <glyph glyph-name="acircumflex" unicode="&#xe2;" horiz-adv-x="554" 
d="M274 804l-168 -112q-11 -7 -11 -18v-59q0 -12 9 -16.5t23 2.5l160 81l160 -81q14 -7 23 -2.5t9 16.5v59q0 11 -11 18l-169 112q-12 7 -25 0zM499 25q-19 122 -12 281q4 90 -45 142.5t-140 52.5q-58 0 -117 -14.5t-98 -35.5q-20 -12 -13 -27l32 -76q8 -17 28 -9
q95 41 158 41q32 0 47.5 -10t14.5 -37q-41 -7 -68.5 -12.5t-63 -15t-58.5 -19t-48 -24.5t-39 -32t-23 -41t-9 -53q0 -67 45 -104t123 -37q97 0 154 55q12 -50 44 -50h75q8 0 11.5 7.5t1.5 17.5zM238 103q-52 0 -52 35q0 11 6.5 20.5t21 17t28 13.5t36.5 12t36.5 9l37.5 8
q-2 -40 0 -75q-22 -18 -54 -29t-60 -11z" />
    <glyph glyph-name="atilde" unicode="&#xe3;" horiz-adv-x="554" 
d="M69 676l41 -43q11 -13 25 1q32 39 72 39q23 0 43 -9t32.5 -19.5t33.5 -19.5t46 -9q19 0 38 5.5t34 13.5t29 18.5t22.5 19l16 16l7.5 7.5q10 12 -1 25l-37 45q-12 12 -26 0q-39 -39 -84 -39q-23 0 -47.5 14.5t-51.5 29t-56 14.5q-27 0 -53 -11.5t-44.5 -29t-26.5 -26.5
t-14 -17q-11 -13 1 -25zM499 25q-19 122 -12 281q4 90 -45 142.5t-140 52.5q-58 0 -117 -14.5t-98 -35.5q-20 -12 -13 -27l32 -76q8 -17 28 -9q95 41 158 41q32 0 47.5 -10t14.5 -37q-41 -7 -68.5 -12.5t-63 -15t-58.5 -19t-47.5 -24.5t-39 -32t-23.5 -41t-9 -53
q0 -67 45 -104t123 -37q58 0 92.5 14t61.5 41q12 -50 44 -50h75q8 0 11.5 7.5t1.5 17.5zM238 103q-52 0 -52 35q0 11 6.5 20.5t21 17t28 13.5t36.5 12t36.5 9l37.5 8q-2 -40 0 -75q-22 -18 -54 -29t-60 -11z" />
    <glyph glyph-name="adieresis" unicode="&#xe4;" horiz-adv-x="554" 
d="M151 651q-30 0 -51 22t-21 52q0 31 21 53t51 22q32 0 54 -22t22 -53q0 -30 -22 -52t-54 -22zM420 651q-31 0 -53 22t-22 52q0 31 22 53t53 22q30 0 51.5 -22t21.5 -53q0 -30 -21.5 -52t-51.5 -22zM499 25q-19 122 -12 281q4 90 -45 142.5t-140 52.5q-58 0 -117 -14.5
t-98 -35.5q-20 -12 -13 -27l32 -76q8 -17 28 -9q95 41 158 41q32 0 47.5 -10t14.5 -37q-41 -7 -68.5 -12.5t-63 -15t-58.5 -19t-48 -24.5t-39 -32t-23 -41t-9 -53q0 -67 45 -104t123 -37q58 0 92.5 14t61.5 41q12 -50 44 -50h75q8 0 11.5 7.5t1.5 17.5zM238 103
q-52 0 -52 35q0 11 6.5 20.5t21 17t28 13.5t36.5 12t36.5 9l37.5 8q-2 -40 0 -75q-22 -18 -54 -29t-60 -11z" />
    <glyph glyph-name="aring" unicode="&#xe5;" horiz-adv-x="554" 
d="M286 558q-51 0 -88 36.5t-37 87.5t37 87.5t88 36.5t88 -36.5t37 -87.5t-37 -87.5t-88 -36.5zM286 627q23 0 39 16t16 39t-16 39t-39 16q-22 0 -38 -16t-16 -39t16 -39t38 -16zM499 25q-19 122 -12 281q4 90 -45 142.5t-140 52.5q-58 0 -117 -14.5t-98 -35.5
q-20 -12 -13 -27l32 -76q8 -17 28 -9q95 41 158 41q32 0 47.5 -10t14.5 -37q-49 -8 -80 -15t-71 -18t-65 -25t-48 -33t-34 -46t-11 -60q0 -67 45 -104t123 -37q58 0 92.5 14t61.5 41q12 -50 44 -50h75q8 0 11.5 7.5t1.5 17.5zM238 103q-52 0 -52 35q0 11 6.5 20.5t21 17
t28 13.5t36.5 12t36.5 9l37.5 8q-2 -40 0 -75q-22 -18 -54 -29t-60 -11z" />
    <glyph glyph-name="ae" unicode="&#xe6;" horiz-adv-x="873" 
d="M837 273q0 -35 -19.5 -53.5t-54.5 -18.5h-271q9 -41 44 -63t82 -22q35 0 71 9.5t57 21.5q9 5 16.5 4.5t14.5 -9.5l24 -32q10 -15 3 -26q-64 -89 -202 -89q-55 0 -103 20q-2 -15 -13 -15h-75q-32 0 -44 50q-27 -27 -61.5 -41t-92.5 -14q-78 0 -123 37t-45 104q0 29 9 53
t23.5 41t39 32t47.5 24.5t58.5 19t63 15t68.5 12.5q1 27 -14.5 37t-47.5 10q-63 0 -158 -41q-20 -8 -28 9l-32 76q-7 15 13 27q39 21 98 35.5t117 14.5q90 0 139 -52q65 53 155 53q107 0 174 -68.5t67 -160.5zM493 307h199q-3 27 -30 48t-68 21t-68.5 -21.5t-32.5 -47.5z
M238 103q28 0 60 11t54 29q-2 25 0 59q-2 10 -2 16l-37.5 -9l-36 -9t-36 -11.5t-27 -13.5t-21 -17t-6.5 -20q0 -35 52 -35z" />
    <glyph glyph-name="ccedilla" unicode="&#xe7;" horiz-adv-x="507" 
d="M462 82q11 -16 -2 -26q-65 -56 -145 -62l-27 -58q52 -4 88 -41t36 -89q0 -53 -39.5 -92t-94.5 -39q-58 0 -97 46q-6 7 1 14l32 35q7 7 16 -2q23 -17 48 -17q27 0 41 15.5t14 39.5q0 23 -14.5 38.5t-40.5 15.5q-29 0 -52 -22q-10 -10 -18 -2l-31 33q-6 6 -2 13
q0 1 0.5 1.5l0.5 0.5l58 116h5q-85 21 -142 89.5t-57 156.5q0 106 77 181t181 75q92 0 161 -62q13 -11 2 -27l-48 -62q-11 -15 -29 -2q-31 24 -83 24q-54 0 -91 -36t-37 -90q0 -53 37.5 -89.5t90.5 -36.5q50 0 83 27q17 12 29 -4z" />
    <glyph glyph-name="egrave" unicode="&#xe8;" horiz-adv-x="560" 
d="M160 709l208 -109q21 -10 28 6l24 43q4 8 2 14t-7 9l-195 131q-7 6 -16 5.5t-14 -7.5l-36 -61q-6 -10 -4 -18.5t10 -12.5zM451 201q34 0 53.5 18.5t19.5 53.5q0 92 -66.5 160.5t-173.5 68.5q-105 0 -177 -73t-72 -181q0 -112 74 -182.5t181 -70.5q138 0 201 89
q9 11 -3 26l-23 32q-11 15 -31 5q-22 -12 -58 -21.5t-70 -9.5q-47 0 -82 22t-44 63h271zM181 307q4 26 32 47.5t68 21.5q41 0 68 -21t31 -48h-199z" />
    <glyph glyph-name="eacute" unicode="&#xe9;" horiz-adv-x="560" 
d="M415 709q7 4 9 12.5t-3 18.5l-37 61q-4 7 -13.5 7.5t-15.5 -5.5l-195 -131q-5 -3 -7 -9t2 -14l24 -43q7 -15 27 -6zM451 201q34 0 53.5 18.5t19.5 53.5q0 92 -66.5 160.5t-173.5 68.5q-105 0 -177 -73t-72 -181q0 -112 74 -182.5t181 -70.5q138 0 201 89q9 11 -3 26
l-23 32q-11 15 -31 5q-22 -12 -58 -21.5t-70 -9.5q-47 0 -82 22.5t-44 62.5h271zM181 307q4 26 32 47.5t68 21.5q41 0 68 -21t31 -48h-199z" />
    <glyph glyph-name="ecircumflex" unicode="&#xea;" horiz-adv-x="560" 
d="M273 804l-168 -112q-11 -7 -11 -18v-59q0 -12 9 -16.5t23 2.5l160 81l160 -81q14 -7 23 -2.5t9 16.5v59q0 11 -11 18l-169 112q-13 7 -25 0zM451 201q34 0 53.5 18.5t19.5 53.5q0 92 -66.5 160.5t-173.5 68.5q-105 0 -177 -73t-72 -181q0 -112 74 -182.5t181 -70.5
q138 0 201 89q9 11 -3 26l-23 32q-11 15 -31 5q-22 -12 -58 -21.5t-70 -9.5q-47 0 -82 22t-44 63h271zM181 307q4 26 32 47.5t68 21.5q41 0 68 -21t31 -48h-199z" />
    <glyph glyph-name="edieresis" unicode="&#xeb;" horiz-adv-x="560" 
d="M151 651q-30 0 -51 22t-21 52q0 31 21 53t51 22q32 0 54 -22t22 -53q0 -30 -22 -52t-54 -22zM420 651q-31 0 -53 22t-22 52q0 31 22 53t53 22q30 0 51.5 -22t21.5 -53q0 -30 -21.5 -52t-51.5 -22zM451 201q34 0 53.5 18.5t19.5 53.5q0 92 -66.5 160.5t-173.5 68.5
q-105 0 -177 -73t-72 -181q0 -112 74 -182.5t181 -70.5q138 0 201 89q9 11 -3 26l-23 32q-11 15 -31 5q-22 -12 -58 -21.5t-70 -9.5q-47 0 -82 22.5t-44 62.5h271zM181 307q4 26 32 47.5t68 21.5q41 0 68 -21t31 -48h-199z" />
    <glyph glyph-name="igrave" unicode="&#xec;" horiz-adv-x="288" 
d="M20 709l208 -109q21 -10 28 6l24 43q4 8 2 14t-7 9l-195 131q-7 6 -16 5.5t-14 -7.5l-36 -61q-6 -10 -4 -18.5t10 -12.5zM194 495h-100q-8 0 -13.5 -5.5t-5.5 -13.5v-425q0 -22 13 -36.5t36 -14.5h71q8 0 13 5.5t5 14.5v456q0 7 -5.5 13t-13.5 6z" />
    <glyph glyph-name="iacute" unicode="&#xed;" horiz-adv-x="288" 
d="M275 709q7 4 9 12.5t-3 18.5l-37 61q-4 7 -13.5 7.5t-15.5 -5.5l-195 -131q-5 -3 -7 -9t2 -14l24 -43q7 -15 27 -6zM194 495h-100q-8 0 -13.5 -5.5t-5.5 -13.5v-425q0 -22 13 -36.5t36 -14.5h71q8 0 13 5.5t5 14.5v456q0 8 -5.5 13.5t-13.5 5.5z" />
    <glyph glyph-name="icircumflex" unicode="&#xee;" horiz-adv-x="288" 
d="M134 804l-168 -112q-11 -7 -11 -18v-59q0 -12 9 -16.5t23 2.5l160 81l160 -81q14 -7 23 -2.5t9 16.5v59q0 11 -11 18l-169 112q-12 7 -25 0zM194 495h-100q-8 0 -13.5 -5.5t-5.5 -13.5v-425q0 -22 13 -36.5t36 -14.5h71q8 0 13 5.5t5 14.5v456q0 7 -6 13t-13 6z" />
    <glyph glyph-name="idieresis" unicode="&#xef;" horiz-adv-x="288" 
d="M11 651q-30 0 -51 22t-21 52q0 31 21 53t51 22q32 0 54 -22t22 -53q0 -30 -22 -52t-54 -22zM280 651q-31 0 -53 22t-22 52q0 31 22 53t53 22q30 0 51.5 -22t21.5 -53q0 -30 -21.5 -52t-51.5 -22zM194 495h-100q-8 0 -13.5 -5.5t-5.5 -13.5v-425q0 -22 13 -36.5t36 -14.5
h71q8 0 13 5.5t5 14.5v456q0 7 -5.5 13t-13.5 6z" />
    <glyph glyph-name="eth" unicode="&#xf0;" horiz-adv-x="599" 
d="M473 637q44 -59 65.5 -140t19.5 -165q0 -154 -74.5 -246.5t-192.5 -92.5q-104 0 -177.5 73t-73.5 176q0 102 73.5 171t177.5 69q68 0 130 -45q-14 95 -74 155l-79 -43q-17 -10 -27 7l-5 11q-8 17 8 27l59 32q-52 30 -116 30q-9 0 -14.5 5.5t-4.5 14.5l9 94q2 19 21 19
q126 -5 225 -97l54 29q16 10 26 -7l7 -12q4 -7 1.5 -15t-9.5 -12l-42 -22q7 -7 13 -16zM414 235q4 48 -32.5 86t-87.5 38q-46 0 -80.5 -35.5t-34.5 -83.5t34.5 -83.5t81.5 -35.5q48 0 82 33t37 81z" />
    <glyph glyph-name="ntilde" unicode="&#xf1;" horiz-adv-x="601" 
d="M129 633l-41 43q-12 12 -1 25q6 8 14 17t26.5 26.5t44.5 29t53 11.5q29 0 56 -14.5t51.5 -29t47.5 -14.5q45 0 84 39q14 12 26 0l37 -45q11 -13 1 -25l-7.5 -7.5l-16 -16t-22.5 -19t-29 -18.5t-34 -13.5t-38 -5.5q-25 0 -46 9t-33.5 19.5t-32.5 19.5t-43 9q-40 0 -72 -39
q-14 -14 -25 -1zM550 25q2 -10 -1.5 -17.5t-10.5 -7.5h-84q-23 0 -36.5 14t-13.5 36v247q0 40 -26 61t-64 21q-60 0 -116 -51v-309q0 -7 -5.5 -13t-13.5 -6h-101q-7 0 -12.5 5.5t-5.5 13.5v457q0 8 5.5 13.5t12.5 5.5h69q18 0 30.5 -12t17.5 -29q69 48 139 48
q83 0 145.5 -52t62.5 -140v-220q1 -35 8 -65z" />
    <glyph glyph-name="ograve" unicode="&#xf2;" horiz-adv-x="592" 
d="M170 709l208 -109q21 -10 28 6l24 43q4 8 2 14t-7 9l-195 131q-7 6 -16 5.5t-14 -7.5l-36 -61q-6 -10 -4 -18.5t10 -12.5zM296 -7q106 0 181 73.5t75 180.5q0 108 -75 181.5t-181 73.5t-181 -73.5t-75 -181.5q0 -107 75 -180.5t181 -73.5zM296 121q-52 0 -87.5 37
t-35.5 88q0 52 35 89.5t88 37.5t88 -37.5t35 -89.5q0 -51 -35.5 -88t-87.5 -37z" />
    <glyph glyph-name="oacute" unicode="&#xf3;" horiz-adv-x="592" 
d="M425 709q7 4 9 12.5t-3 18.5l-37 61q-4 7 -13.5 7.5t-15.5 -5.5l-195 -131q-5 -3 -7 -9t2 -14l24 -43q7 -15 27 -6zM296 -7q106 0 181 73.5t75 180.5q0 108 -75 181.5t-181 73.5t-181 -73.5t-75 -181.5q0 -107 75 -180.5t181 -73.5zM296 121q-52 0 -87.5 37t-35.5 88
q0 53 35 90t88 37t88 -37t35 -90q0 -51 -35.5 -88t-87.5 -37z" />
    <glyph glyph-name="ocircumflex" unicode="&#xf4;" horiz-adv-x="592" 
d="M283 804l-168 -112q-11 -7 -11 -18v-59q0 -12 9 -16.5t23 2.5l160 81l160 -81q14 -7 23 -2.5t9 16.5v59q0 11 -11 18l-169 112q-12 7 -25 0zM296 -7q106 0 181 73.5t75 180.5q0 108 -75 181.5t-181 73.5t-181 -73.5t-75 -181.5q0 -107 75 -180.5t181 -73.5zM296 121
q-52 0 -87.5 37t-35.5 88q0 52 35 89.5t88 37.5t88 -37.5t35 -89.5q0 -51 -35.5 -88t-87.5 -37z" />
    <glyph glyph-name="otilde" unicode="&#xf5;" horiz-adv-x="592" 
d="M79 676l41 -43q11 -13 25 1q32 39 72 39q23 0 43 -9t32.5 -19.5t33.5 -19.5t46 -9q19 0 38 5.5t34 13.5t29 18.5t22.5 19l16 16l7.5 7.5q10 12 -1 25l-37 45q-12 12 -26 0q-39 -39 -84 -39q-23 0 -47.5 14.5t-51.5 29t-56 14.5q-27 0 -53 -11.5t-44.5 -29t-26.5 -26.5
t-14 -17q-11 -13 1 -25zM296 -7q106 0 181 73.5t75 180.5q0 108 -75 181.5t-181 73.5t-181 -73.5t-75 -181.5q0 -107 75 -180.5t181 -73.5zM296 121q-52 0 -87.5 37t-35.5 88q0 53 35 90t88 37t88 -37t35 -90q0 -51 -35.5 -88t-87.5 -37z" />
    <glyph glyph-name="odieresis" unicode="&#xf6;" horiz-adv-x="592" 
d="M161 651q-30 0 -51 22t-21 52q0 31 21 53t51 22q32 0 54 -22t22 -53q0 -30 -22 -52t-54 -22zM430 651q-31 0 -53 22t-22 52q0 31 22 53t53 22q30 0 51.5 -22t21.5 -53q0 -30 -21.5 -52t-51.5 -22zM296 -7q106 0 181 73.5t75 180.5q0 108 -75 181.5t-181 73.5t-181 -73.5
t-75 -181.5q0 -107 75 -180.5t181 -73.5zM296 121q-52 0 -87.5 37t-35.5 88q0 52 35 89.5t88 37.5t88 -37.5t35 -89.5q0 -51 -35.5 -88t-87.5 -37z" />
    <glyph glyph-name="divide" unicode="&#xf7;" horiz-adv-x="620" 
d="M311 542q-33 0 -56 23t-23 56q0 32 23 54.5t56 22.5q31 0 54 -23t23 -54q0 -33 -22.5 -56t-54.5 -23zM570 335q0 -8 -6 -14t-13 -6h-481q-8 0 -14.5 6t-6.5 13v86q0 8 6 14t15 6h481q8 0 13.5 -5.5t5.5 -13.5v-86zM311 57q-33 0 -56 23t-23 56q0 32 23 54.5t56 22.5
q31 0 54 -22.5t23 -54.5q0 -33 -22.5 -56t-54.5 -23z" />
    <glyph glyph-name="oslash" unicode="&#xf8;" horiz-adv-x="646" 
d="M601 477q9 -9 0 -19l-66 -65q45 -66 45 -146q0 -107 -75 -180.5t-181 -73.5q-79 0 -145 44l-65 -66q-10 -10 -18 0l-51 51q-9 9 0 18l66 66q-43 64 -43 141q0 108 75 181.5t181 73.5q76 0 141 -41l66 67q10 9 19 0zM202 246q0 -22 7 -42l160 161q-22 8 -45 8
q-52 0 -87 -37.5t-35 -89.5zM447 246q0 26 -9 49l-164 -163q24 -11 50 -11q52 0 87.5 37t35.5 88z" />
    <glyph glyph-name="ugrave" unicode="&#xf9;" 
d="M170 709q-8 4 -10 12.5t4 18.5l36 61q5 7 14 7.5t16 -5.5l195 -131q5 -3 7 -9t-2 -14l-24 -43q-7 -16 -28 -6zM522 495q8 0 13 -5.5t5 -13.5v-457q0 -8 -5 -13.5t-13 -5.5h-78q-12 0 -23 12.5t-16 28.5q-66 -47 -139 -47q-53 0 -99.5 21.5t-77.5 66.5t-31 104v219
q0 32 -7 65q-2 10 1.5 17.5t10.5 7.5h84q23 0 36 -14t13 -36v-249q0 -39 26 -59t65 -20q58 0 116 58v301q0 8 5.5 13.5t13.5 5.5h100z" />
    <glyph glyph-name="uacute" unicode="&#xfa;" 
d="M188 606l-24 43q-4 8 -2 14t7 9l195 131q6 6 15.5 5.5t13.5 -7.5l37 -61q5 -10 3 -18.5t-9 -12.5l-209 -109q-20 -9 -27 6zM522 495q8 0 13 -5.5t5 -13.5v-457q0 -8 -5 -13.5t-13 -5.5h-78q-12 0 -23 12.5t-16 28.5q-66 -47 -139 -47q-53 0 -99.5 21.5t-77.5 66.5
t-31 104v219q0 32 -7 65q-2 10 1.5 17.5t10.5 7.5h84q23 0 36 -14t13 -36v-249q0 -39 26 -59t65 -20q58 0 116 58v301q0 8 5.5 13.5t13.5 5.5h100z" />
    <glyph glyph-name="ucircumflex" unicode="&#xfb;" 
d="M136 601q-14 -7 -23 -2.5t-9 16.5v59q0 11 11 18l168 112q13 7 25 0l169 -112q11 -7 11 -18v-59q0 -12 -9 -16.5t-23 2.5l-160 81zM522 495q8 0 13 -5.5t5 -13.5v-457q0 -8 -5 -13.5t-13 -5.5h-78q-12 0 -23 12.5t-16 28.5q-66 -47 -139 -47q-53 0 -99.5 21.5t-77.5 66.5
t-31 104v219q0 32 -7 65q-2 10 1.5 17.5t10.5 7.5h84q23 0 36 -14t13 -36v-249q0 -39 26 -59t65 -20q58 0 116 58v301q0 8 5.5 13.5t13.5 5.5h100z" />
    <glyph glyph-name="udieresis" unicode="&#xfc;" 
d="M161 651q-30 0 -51 22t-21 52q0 31 21 53t51 22q32 0 54 -22t22 -53q0 -30 -22 -52t-54 -22zM430 651q-31 0 -53 22t-22 52q0 31 22 53t53 22q30 0 51.5 -22t21.5 -53q0 -30 -21.5 -52t-51.5 -22zM522 495q8 0 13 -5.5t5 -13.5v-457q0 -8 -5 -13.5t-13 -5.5h-78
q-12 0 -23 12.5t-16 28.5q-66 -47 -139 -47q-53 0 -99.5 21.5t-77.5 66.5t-31 104v219q0 32 -7 65q-2 10 1.5 17.5t10.5 7.5h84q23 0 36 -14t13 -36v-249q0 -39 26 -59t65 -20q58 0 116 58v301q0 8 5.5 13.5t13.5 5.5h100z" />
    <glyph glyph-name="yacute" unicode="&#xfd;" 
d="M436 709q7 4 9 12.5t-3 18.5l-37 61q-4 7 -13.5 7.5t-15.5 -5.5l-195 -131q-5 -3 -7 -9t2 -14l24 -43q7 -15 27 -6zM552 495q11 0 15.5 -6.5t-0.5 -16.5l-192 -394q-73 -151 -134 -247.5t-96 -129.5q-17 -13 -38 8l-55 55q-17 17 1 40q104 117 179 285l-204 383
q-5 10 -0.5 16.5t14.5 6.5h110q15 0 23 -14l127 -259l119 259q8 14 23 14h108z" />
    <glyph glyph-name="thorn" unicode="&#xfe;" horiz-adv-x="592" 
d="M332 499q91 0 159.5 -68.5t68.5 -176.5q0 -112 -65 -186.5t-168 -74.5q-63 0 -117 33v-264q0 -24 -22.5 -40t-44.5 -16h-52q-8 0 -13.5 6t-5.5 13v978q0 16 -1.5 28t-5.5 27.5t-4 16.5q-2 10 1.5 17.5t11.5 7.5h87q22 0 35.5 -13t13.5 -33v-287q55 32 122 32zM305 120
q51 0 85 36t34 98q0 59 -34.5 88t-77.5 29q-51 0 -102 -31v-197q46 -23 95 -23z" />
    <glyph glyph-name="ydieresis" unicode="&#xff;" 
d="M173 651q-30 0 -51 22t-21 52q0 31 21 53t51 22q32 0 54 -22t22 -53q0 -30 -22 -52t-54 -22zM442 651q-31 0 -53 22t-22 52q0 31 22 53t53 22q30 0 51.5 -22t21.5 -53q0 -30 -21.5 -52t-51.5 -22zM552 495q11 0 15.5 -6.5t-0.5 -16.5l-192 -394q-73 -151 -134 -247.5
t-96 -129.5q-17 -13 -38 8l-55 55q-17 17 1 40q104 117 179 285l-204 383q-5 10 -0.5 16.5t14.5 6.5h110q15 0 23 -14l127 -259l119 259q8 14 23 14h108z" />
    <glyph glyph-name="Amacron" unicode="&#x100;" horiz-adv-x="879" 
d="M240 938q-15 0 -15 15v73q0 5 4 9.5t11 4.5l401 1q7 0 11.5 -5t4.5 -10v-73q0 -7 -4.5 -11t-11.5 -4h-401zM836 22q5 -9 1.5 -15.5t-13.5 -6.5h-117q-13 0 -20 13l-54 114h-385l-54 -114q-6 -13 -20 -13h-118q-9 0 -13 6.5t0 15.5l377 773q6 10 14 10h12q8 0 14 -10z
M309 257h263l-131 279z" />
    <glyph glyph-name="amacron" unicode="&#x101;" horiz-adv-x="554" 
d="M70 748q0 5 4 9.5t11 4.5l401 1q6 0 11 -5t5 -10v-73q0 -7 -4.5 -11t-11.5 -4h-401q-15 0 -15 15v73zM499 25q-19 122 -12 281q4 90 -45 142.5t-140 52.5q-58 0 -117 -14.5t-98 -35.5q-20 -12 -13 -27l32 -76q8 -17 28 -9q95 41 158 41q32 0 47.5 -10t14.5 -37
q-41 -7 -68.5 -12.5t-63 -15t-58.5 -19t-48 -24.5t-39 -32t-23 -41t-9 -53q0 -67 45 -104t123 -37q97 0 154 55q12 -50 44 -50h75q8 0 11.5 7.5t1.5 17.5zM238 103q-52 0 -52 35q0 11 6.5 20.5t21 17t28 13.5t36.5 12t36.5 9l37.5 8q-2 -40 0 -75q-22 -18 -54 -29t-60 -11z
" />
    <glyph glyph-name="Abreve" unicode="&#x102;" horiz-adv-x="879" 
d="M442 896q-72 0 -123 44t-61 111q-2 12 4 20t19 8h46q8 0 13.5 -5.5t7.5 -12.5q10 -34 35 -53.5t59 -19.5q30 0 55 21t35 52q2 8 8.5 13t13.5 5h49q11 0 17.5 -8t4.5 -20q-10 -67 -61 -111t-122 -44zM836 22q5 -9 1.5 -15.5t-13.5 -6.5h-117q-13 0 -20 13l-54 114h-385
l-54 -114q-6 -13 -20 -13h-118q-9 0 -13 6.5t0 15.5l377 773q6 10 14 10h12q8 0 14 -10zM309 257h263l-131 279z" />
    <glyph glyph-name="abreve" unicode="&#x103;" horiz-adv-x="554" 
d="M103 773q10 -67 61 -111t123 -44q71 0 122 44t61 111q1 12 -5 20t-17 8h-49q-7 0 -13.5 -5t-8.5 -13q-10 -31 -35 -52t-55 -21q-34 0 -59 19.5t-35 53.5q-2 7 -7.5 12.5t-13.5 5.5h-46q-13 0 -19 -8t-4 -20zM499 25q-19 122 -12 281q4 90 -45 142.5t-140 52.5
q-58 0 -117 -14.5t-98 -35.5q-20 -12 -13 -27l32 -76q8 -17 28 -9q95 41 158 41q32 0 47.5 -10t14.5 -37q-41 -7 -68.5 -12.5t-63 -15t-58.5 -19t-48 -24.5t-39 -32t-23 -41t-9 -53q0 -67 45 -104t123 -37q58 0 92.5 14t61.5 41q12 -50 44 -50h75q8 0 11.5 7.5t1.5 17.5z
M238 103q-52 0 -52 35q0 11 6.5 20.5t21 17t28 13.5t36.5 12t36.5 9l37.5 8q-2 -40 0 -75q-22 -18 -54 -29t-60 -11z" />
    <glyph glyph-name="Aogonek" unicode="&#x104;" horiz-adv-x="879" 
d="M806 -165q12 4 21 -1.5t9 -17.5v-37q0 -9 -10 -16q-36 -25 -81 -31.5t-81 5.5q-44 12 -67 39.5t-23 65.5q0 48 46 93.5t114 64.5h-27q-13 0 -20 13l-54 114h-385l-54 -114q-6 -13 -20 -13h-118q-9 0 -13 6.5t0 15.5l377 773q6 10 14 10h12q8 0 14 -10l376 -773
q5 -9 1.5 -15.5t-13.5 -6.5h-19q-136 -64 -136 -126q0 -23 17.5 -38.5t42.5 -15.5q42 0 77 15zM309 257h263l-131 279z" />
    <glyph glyph-name="aogonek" unicode="&#x105;" horiz-adv-x="554" 
d="M488 -165q12 4 21 -1.5t9 -17.5v-37q0 -9 -10 -16q-36 -25 -81 -31.5t-81 5.5q-44 12 -67 39.5t-23 65.5q0 48 46 93.5t114 64.5h-5q-32 0 -44 50q-27 -27 -61.5 -41t-92.5 -14q-78 0 -123 37t-45 104q0 29 9 53t23.5 41t39 32t47.5 24.5t58.5 19t63 15t68.5 12.5
q1 27 -14.5 37t-47.5 10q-63 0 -158 -41q-20 -8 -28 9l-32 76q-7 15 13 27q39 21 98 35.5t117 14.5q91 0 140 -52.5t45 -142.5q-7 -159 12 -281q2 -10 -1.5 -17.5t-11.5 -7.5h1q-136 -64 -136 -126q0 -23 17.5 -38.5t42.5 -15.5q42 0 77 15zM352 143q-2 35 0 75l-37.5 -8
t-36.5 -9t-36.5 -12t-28 -13.5t-21 -17t-6.5 -20.5q0 -35 52 -35q28 0 60 11t54 29z" />
    <glyph glyph-name="Cacute" unicode="&#x106;" horiz-adv-x="803" 
d="M582 972q7 4 9 12.5t-3 18.5l-37 61q-4 7 -13.5 7.5t-15.5 -5.5l-195 -131q-5 -3 -7 -9t2 -14l24 -43q7 -15 27 -6zM747 150q16 -12 1 -27q-56 -62 -133 -96t-166 -34q-109 0 -201.5 53t-147.5 146.5t-55 205.5q0 111 55 205.5t148 149t201 54.5q89 0 167 -34.5
t135 -97.5q14 -14 -1 -27l-83 -67q-15 -12 -27 2q-36 37 -85 61.5t-105 24.5q-109 0 -185.5 -81t-76.5 -190q0 -110 76 -188.5t186 -78.5q56 0 104 23.5t83 59.5q13 13 28 3z" />
    <glyph glyph-name="cacute" unicode="&#x107;" horiz-adv-x="507" 
d="M406 709q7 4 9 12.5t-3 18.5l-37 61q-4 7 -13.5 7.5t-15.5 -5.5l-195 -131q-5 -3 -7 -9t2 -14l24 -43q7 -15 27 -6zM462 82q11 -16 -2 -26q-72 -63 -162 -63q-105 0 -181.5 74t-76.5 179q0 106 77 181t181 75q92 0 161 -62q13 -11 2 -27l-48 -62q-11 -15 -29 -2
q-31 24 -83 24q-54 0 -91 -36t-37 -90q0 -53 37.5 -89.5t90.5 -36.5q50 0 83 27q17 12 29 -4z" />
    <glyph glyph-name="Cdotaccent" unicode="&#x10a;" horiz-adv-x="803" 
d="M453 927q-27 0 -47.5 19.5t-20.5 47.5t20.5 48.5t47.5 20.5q28 0 48 -20.5t20 -48.5t-19.5 -47.5t-48.5 -19.5zM747 150q16 -12 1 -27q-56 -62 -133 -96t-166 -34q-109 0 -201.5 53t-147.5 146.5t-55 205.5q0 111 55 205.5t148 149t201 54.5q89 0 167 -34.5t135 -97.5
q14 -14 -1 -27l-83 -67q-15 -12 -27 2q-36 37 -85 61.5t-105 24.5q-109 0 -185.5 -81t-76.5 -190q0 -110 76 -188.5t186 -78.5q56 0 104 23.5t83 59.5q13 13 28 3z" />
    <glyph glyph-name="cdotaccent" unicode="&#x10b;" horiz-adv-x="507" 
d="M277 664q-27 0 -47.5 19.5t-20.5 47.5t20.5 48.5t47.5 20.5q28 0 48 -20.5t20 -48.5t-19.5 -47.5t-48.5 -19.5zM462 82q11 -16 -2 -26q-72 -63 -162 -63q-105 0 -181.5 74t-76.5 179q0 106 77 181t181 75q92 0 161 -62q13 -11 2 -27l-48 -62q-11 -15 -29 -2
q-31 24 -83 24q-54 0 -91 -36t-37 -90q0 -53 37.5 -89.5t90.5 -36.5q50 0 83 27q17 12 29 -4z" />
    <glyph glyph-name="Ccaron" unicode="&#x10c;" horiz-adv-x="803" 
d="M464 869l168 113q12 8 12 17v60q0 12 -9.5 16.5t-23.5 -2.5l-159 -82l-161 82q-14 7 -23 2.5t-9 -16.5v-60q0 -8 11 -17l169 -113q13 -7 25 0zM747 150q16 -12 1 -27q-56 -62 -133 -96t-166 -34q-109 0 -201.5 53t-147.5 146.5t-55 205.5q0 111 55 205.5t148 149
t201 54.5q89 0 167 -34.5t135 -97.5q14 -14 -1 -27l-83 -67q-15 -12 -27 2q-36 37 -85 61.5t-105 24.5q-109 0 -185.5 -81t-76.5 -190q0 -110 76 -188.5t186 -78.5q56 0 104 23.5t83 59.5q13 13 28 3z" />
    <glyph glyph-name="ccaron" unicode="&#x10d;" horiz-adv-x="507" 
d="M288 606l168 113q12 8 12 17v60q0 12 -9.5 16.5t-23.5 -2.5l-159 -82l-161 82q-14 7 -23 2.5t-9 -16.5v-60q0 -8 11 -17l169 -113q13 -7 25 0zM462 82q11 -16 -2 -26q-72 -63 -162 -63q-105 0 -181.5 74t-76.5 179q0 106 77 181t181 75q92 0 161 -62q13 -11 2 -27
l-48 -62q-11 -15 -29 -2q-31 24 -83 24q-54 0 -91 -36t-37 -90q0 -53 37.5 -89.5t90.5 -36.5q50 0 83 27q17 12 29 -4z" />
    <glyph glyph-name="Dcaron" unicode="&#x10e;" horiz-adv-x="810" 
d="M379 866l168 113q12 8 12 17v60q0 12 -9.5 16.5t-23.5 -2.5l-159 -82l-161 82q-14 7 -23 2.5t-9 -16.5v-60q0 -8 11 -17l169 -113q13 -7 25 0zM344 800q75 0 142 -23t115.5 -62.5t83.5 -90.5t52.5 -107.5t17.5 -113.5q0 -80 -28.5 -153t-79.5 -128.5t-130 -88.5t-173 -33
h-264q-8 0 -14 6t-6 14v761q0 8 5.5 13.5t13.5 5.5h265zM344 138q79 0 140.5 38t92 98t30.5 130q0 69 -30 127t-91 94.5t-142 36.5h-142l1 -524h141z" />
    <glyph glyph-name="dcaron" unicode="&#x10f;" horiz-adv-x="796" 
d="M767 721q10 -62 -8 -128q-11 -39 -38.5 -72t-58.5 -52q-12 -8 -20 1l-18 23q-6 5 0 11q37 30 57.5 63.5t17.5 82.5v1q-11 -3 -24 -3q-32 0 -55.5 23.5t-23.5 55.5q0 33 23.5 56t55.5 23q40 0 64 -29q23 -22 28 -56zM485 800q22 0 35.5 -13t13.5 -33v-735q0 -7 -6 -13
t-13 -6h-52q-15 0 -33 9t-27 23q-57 -39 -126 -39q-104 0 -170.5 74.5t-66.5 186.5q0 107 70 176t161 69q68 0 125 -34v238q0 16 -1.5 28t-5.5 27.5t-4 16.5q-2 10 1.5 17.5t10.5 7.5h88zM176 254q0 -62 35.5 -98t87.5 -36q49 0 97 24v195q-54 32 -105 32q-44 0 -79.5 -29
t-35.5 -88z" />
    <glyph glyph-name="Dcroat" unicode="&#x110;" horiz-adv-x="820" 
d="M354 800q76 0 142.5 -23t115 -62.5t83.5 -90.5t52.5 -107.5t17.5 -113.5q0 -80 -28.5 -153t-79.5 -128.5t-130 -88.5t-173 -33h-264q-8 0 -14 6t-6 14v312h-30q-8 0 -14 5.5t-6 13.5v98q0 9 6 14.5t14 5.5h30v312q0 8 5.5 13.5t13.5 5.5h265zM354 138q80 0 141 38t92 98
t30 130q0 69 -30 127t-91 94.5t-142 36.5h-142v-193h119q8 0 13.5 -5t5.5 -14v-98q0 -8 -5.5 -14t-13.5 -6h-118v-194h141z" />
    <glyph glyph-name="dcroat" unicode="&#x111;" horiz-adv-x="635" 
d="M600 700q6 0 10.5 -4.5t4.5 -10.5v-73q0 -15 -15 -15h-66v-578q0 -7 -6 -13t-13 -6h-52q-15 0 -33 9t-27 23q-57 -39 -126 -39q-104 0 -170.5 74.5t-66.5 186.5q0 107 70 176t161 69q68 0 125 -34v132h-198q-15 0 -15 15v73q0 5 4 9.5t11 4.5l198 1v3q0 16 -1.5 28
t-5.5 27.5t-4 16.5q-2 10 1.5 17.5t10.5 7.5h88q22 0 35.5 -13t13.5 -33v-54h66zM176 254q0 -62 35.5 -98t87.5 -36q49 0 97 24v195q-54 32 -105 32q-44 0 -79.5 -29t-35.5 -88z" />
    <glyph glyph-name="Emacron" unicode="&#x112;" horiz-adv-x="666" 
d="M140 919q-15 0 -15 15v73q0 6 4 10t11 4l401 1q7 0 11.5 -4.5t4.5 -10.5v-73q0 -15 -16 -15h-401zM582 662h-364v-201h196q8 0 14 -6t6 -14v-99q0 -19 -20 -19h-196v-185h364q8 0 14 -6t6 -14v-98q0 -8 -6 -14t-14 -6h-487q-8 0 -14 6t-6 14v761q0 8 5.5 13.5t13.5 5.5
h488q8 0 14 -5.5t6 -13.5v-100q0 -8 -6 -13.5t-14 -5.5z" />
    <glyph glyph-name="emacron" unicode="&#x113;" horiz-adv-x="560" 
d="M70 748q0 5 4 9.5t11 4.5l401 1q6 0 11 -5t5 -10v-73q0 -7 -4.5 -11t-11.5 -4h-401q-15 0 -15 15v73zM451 201q34 0 53.5 18.5t19.5 53.5q0 92 -66.5 160.5t-173.5 68.5q-105 0 -177 -73t-72 -181q0 -112 74 -182.5t181 -70.5q138 0 201 89q9 11 -3 26l-23 32
q-11 15 -31 5q-56 -31 -128 -31q-47 0 -82 22.5t-44 62.5h271zM181 307q4 26 32 47.5t68 21.5q41 0 68 -21t31 -48h-199z" />
    <glyph glyph-name="Edotaccent" unicode="&#x116;" horiz-adv-x="666" 
d="M341 923q-27 0 -47.5 19.5t-20.5 47.5t20.5 48.5t47.5 20.5q28 0 48 -20.5t20 -48.5t-19.5 -47.5t-48.5 -19.5zM582 662h-364v-201h196q8 0 14 -6t6 -14v-99q0 -19 -20 -19h-196v-185h364q8 0 14 -6t6 -14v-98q0 -8 -6 -14t-14 -6h-487q-8 0 -14 6t-6 14v761
q0 8 5.5 13.5t13.5 5.5h488q8 0 14 -5.5t6 -13.5v-100q0 -8 -6 -13.5t-14 -5.5z" />
    <glyph glyph-name="edotaccent" unicode="&#x117;" horiz-adv-x="560" 
d="M286 664q-27 0 -47.5 19.5t-20.5 47.5t20.5 48.5t47.5 20.5q28 0 48 -20.5t20 -48.5t-19.5 -47.5t-48.5 -19.5zM451 201q34 0 53.5 18.5t19.5 53.5q0 92 -66.5 160.5t-173.5 68.5q-105 0 -177 -73t-72 -181q0 -112 74 -182.5t181 -70.5q138 0 201 89q9 11 -3 26l-23 32
q-11 15 -31 5q-56 -31 -128 -31q-47 0 -82 22.5t-44 62.5h271zM181 307q4 26 32 47.5t68 21.5q41 0 68 -21t31 -48h-199z" />
    <glyph glyph-name="Eogonek" unicode="&#x118;" horiz-adv-x="666" 
d="M582 662h-364v-201h196q8 0 14 -6t6 -14v-99q0 -19 -20 -19h-196v-185h364q8 0 14 -6t6 -14v-98q0 -8 -6 -14t-14 -6h-11q-136 -64 -136 -126q0 -23 17.5 -38.5t42.5 -15.5q42 0 77 15q12 4 21 -1.5t9 -17.5v-37q0 -9 -10 -16q-36 -25 -81 -31.5t-81 5.5q-44 12 -67 39.5
t-23 65.5q0 48 46 93.5t114 64.5h-405q-8 0 -14 6t-6 14v761q0 8 5.5 13.5t13.5 5.5h488q8 0 14 -5.5t6 -13.5v-100q0 -8 -6 -13.5t-14 -5.5z" />
    <glyph glyph-name="eogonek" unicode="&#x119;" horiz-adv-x="560" 
d="M524 273q0 -35 -19.5 -53.5t-53.5 -18.5h-271q9 -41 44 -63t82 -22q34 0 70 9.5t58 21.5q20 10 31 -5l23 -32q12 -15 3 -26q-49 -67 -142 -84q-136 -64 -136 -126q0 -23 17.5 -38.5t42.5 -15.5q42 0 77 15q12 4 21 -1.5t9 -17.5v-37q0 -9 -10 -16q-36 -25 -81 -31.5
t-81 5.5q-44 12 -67 39.5t-23 65.5q0 46 42 89.5t105 64.5q-98 8 -164 78t-66 174q0 108 72 181t177 73q107 0 173.5 -68.5t66.5 -160.5zM181 307h199q-4 27 -31 48t-68 21q-40 0 -68 -21.5t-32 -47.5z" />
    <glyph glyph-name="Ecaron" unicode="&#x11a;" horiz-adv-x="666" 
d="M158 977q-11 9 -11 17v60q0 12 9 16.5t23 -2.5l161 -82l159 82q14 7 23.5 2.5t9.5 -16.5v-60q0 -9 -12 -17l-168 -113q-12 -7 -25 0zM582 662h-364v-201h196q8 0 14 -6t6 -14v-99q0 -19 -20 -19h-196v-185h364q8 0 14 -6t6 -14v-98q0 -8 -6 -14t-14 -6h-487q-8 0 -14 6
t-6 14v761q0 8 5.5 13.5t13.5 5.5h488q8 0 14 -5.5t6 -13.5v-100q0 -8 -6 -13.5t-14 -5.5z" />
    <glyph glyph-name="ecaron" unicode="&#x11b;" horiz-adv-x="560" 
d="M297 605l168 113q12 8 12 17v60q0 12 -9.5 16.5t-23.5 -2.5l-159 -82l-161 82q-14 7 -23 2.5t-9 -16.5v-60q0 -8 11 -17l169 -113q13 -7 25 0zM451 201q34 0 53.5 18.5t19.5 53.5q0 92 -66.5 160.5t-173.5 68.5q-105 0 -177 -73t-72 -181q0 -112 74 -182.5t181 -70.5
q138 0 201 89q9 11 -3 26l-23 32q-11 15 -31 5q-22 -12 -58 -21.5t-70 -9.5q-47 0 -82 22.5t-44 62.5h271zM181 307q4 26 32 47.5t68 21.5q41 0 68 -21t31 -48h-199z" />
    <glyph glyph-name="Gbreve" unicode="&#x11e;" horiz-adv-x="803" 
d="M433 883q-72 0 -123 44t-61 111q-2 12 4 20t19 8h46q8 0 13.5 -5.5t7.5 -12.5q10 -34 35 -53.5t59 -19.5q30 0 55 21t35 52q2 8 8.5 13t13.5 5h49q11 0 17 -8t5 -20q-10 -67 -61 -111t-122 -44zM755 365v-227q0 -9 -7 -15q-56 -62 -133 -96t-166 -34q-109 0 -201.5 53
t-147.5 146.5t-55 205.5q0 111 55 205.5t148 149t201 54.5q89 0 167 -34.5t135 -97.5q14 -14 -1 -27l-83 -67q-15 -12 -27 2q-36 37 -85 61.5t-105 24.5q-109 0 -185.5 -81t-76.5 -190q0 -110 76 -188.5t186 -78.5q88 0 163 61v57h-158q-20 0 -20 19v96q0 21 18 21h282
q20 0 20 -20z" />
    <glyph glyph-name="gbreve" unicode="&#x11f;" horiz-adv-x="610" 
d="M119 773q10 -67 61 -111t123 -44q70 0 121.5 44t61.5 111q1 12 -5 20t-17 8h-49q-7 0 -13.5 -5t-8.5 -13q-10 -31 -35 -52t-55 -21q-34 0 -59 19.5t-35 53.5q-2 7 -7.5 12.5t-13.5 5.5h-46q-13 0 -19 -8t-4 -20zM376 -2q51 -6 86 -15.5t63.5 -27t42 -47t12.5 -71.5
q0 -87 -74.5 -139t-212.5 -52q-106 0 -170 42t-64 117q0 89 108 106q-54 10 -94 42t-41 79t33 73.5t96 19.5q-31 13 -58 56t-28 91q-2 97 63.5 162.5t161.5 65.5q28 0 95 -8.5t136 -6.5q9 0 14.5 -5t4.5 -14l-5 -62q-1 -5 -8.5 -8t-21.5 -5t-17 -3q34 -50 34 -116
q0 -97 -65.5 -158t-156.5 -57q-38 2 -91 14q-26 6 -39.5 0.5t-13.5 -20.5q1 -26 68 -34q35 -5 82 -11t60 -8zM304 370q-39 0 -66.5 -27.5t-27.5 -65.5q0 -36 27.5 -63.5t66.5 -27.5q40 0 66.5 27t26.5 64q0 39 -27 66t-66 27zM307 -228q55 0 90 14t35 45q0 32 -56 43
q-40 8 -120 18q-26 3 -42.5 -13.5t-16.5 -43.5q0 -35 28 -49t82 -14z" />
    <glyph glyph-name="Gdotaccent" unicode="&#x120;" horiz-adv-x="803" 
d="M433 929q-27 0 -47.5 19.5t-20.5 47.5t20.5 48.5t47.5 20.5q28 0 48 -20.5t20 -48.5t-19.5 -47.5t-48.5 -19.5zM755 365v-227q0 -9 -7 -15q-56 -62 -133 -96t-166 -34q-109 0 -201.5 53t-147.5 146.5t-55 205.5q0 111 55 205.5t148 149t201 54.5q181 0 302 -132
q14 -14 -1 -27l-83 -67q-15 -12 -27 2q-36 37 -85 61.5t-105 24.5q-109 0 -185.5 -81t-76.5 -190q0 -110 76 -188.5t186 -78.5q88 0 163 61v57h-158q-20 0 -20 19v96q0 21 18 21h282q20 0 20 -20z" />
    <glyph glyph-name="gdotaccent" unicode="&#x121;" horiz-adv-x="610" 
d="M302 664q-27 0 -47.5 19.5t-20.5 47.5t20.5 48.5t47.5 20.5q28 0 48 -20.5t20 -48.5t-19.5 -47.5t-48.5 -19.5zM376 -2q51 -6 86 -15.5t63.5 -27t42 -47t12.5 -71.5q0 -87 -74.5 -139t-212.5 -52q-106 0 -170 42t-64 117q0 89 108 106q-53 10 -93.5 42t-41.5 79t33 73.5
t96 19.5q-31 13 -58 56t-28 91q-1 97 64 162.5t161 65.5q28 0 95 -8.5t136 -6.5q9 0 14.5 -5t4.5 -14l-5 -62q-1 -5 -8.5 -8t-21.5 -5t-17 -3q34 -50 34 -116q0 -97 -65.5 -158t-156.5 -57q-38 2 -91 14q-26 6 -39.5 0.5t-13.5 -20.5q1 -26 68 -34q35 -5 82 -11t60 -8z
M304 370q-39 0 -66.5 -27.5t-27.5 -65.5q0 -36 27.5 -63.5t66.5 -27.5q40 0 66.5 27t26.5 64q0 39 -27 66t-66 27zM307 -228q55 0 90 14t35 45q0 32 -56 43q-40 8 -120 18q-26 3 -42.5 -13.5t-16.5 -43.5q0 -35 28 -49t82 -14z" />
    <glyph glyph-name="Gcommaaccent" unicode="&#x122;" horiz-adv-x="803" 
d="M755 365v-227q0 -9 -7 -15q-56 -62 -133 -96t-166 -34q-109 0 -201.5 53t-147.5 146.5t-55 205.5q0 111 55 205.5t148 149t201 54.5q89 0 167 -34.5t135 -97.5q14 -14 -1 -27l-83 -67q-15 -12 -27 2q-36 37 -85 61.5t-105 24.5q-109 0 -185.5 -81t-76.5 -190
q0 -110 76 -188.5t186 -78.5q88 0 163 61v57h-158q-20 0 -20 19v96q0 21 18 21h282q20 0 20 -20zM509 -145q26 -23 31 -59q10 -63 -8 -128q-11 -39 -38 -72.5t-58 -52.5q-14 -7 -21 2l-18 22q-5 7 0 12q36 29 57 62.5t18 82.5v2q-12 -3 -24 -3q-32 0 -55.5 23.5t-23.5 54.5
q0 33 23.5 56t55.5 23q38 0 61 -25z" />
    <glyph glyph-name="gcommaaccent" unicode="&#x123;" horiz-adv-x="610" 
d="M255 676q-22 22 -28 57q-9 62 8 128q12 39 39 72t58 52q14 7 20 -1l19 -23q6 -5 0 -11q-37 -30 -58 -63.5t-18 -82.5v-2q12 3 24 3q32 0 55.5 -23t23.5 -55q0 -33 -23.5 -56t-55.5 -23q-39 0 -64 28zM376 -2q51 -6 86 -15.5t63.5 -27t42 -47t12.5 -71.5q0 -87 -74.5 -139
t-212.5 -52q-106 0 -170 42t-64 117q0 89 108 106q-53 10 -93.5 42t-41.5 79t33 73.5t96 19.5q-31 13 -58 56t-28 91q-1 97 64 162.5t161 65.5q28 0 95 -8.5t136 -6.5q9 0 14.5 -5t4.5 -14l-5 -62q-1 -5 -8.5 -8t-21.5 -5t-17 -3q34 -50 34 -116q0 -97 -65.5 -158
t-156.5 -57q-38 2 -91 14q-26 6 -39.5 0.5t-13.5 -20.5q1 -26 68 -34q35 -5 82 -11t60 -8zM304 370q-39 0 -66.5 -27.5t-27.5 -65.5q0 -36 27.5 -63.5t66.5 -27.5q40 0 66.5 27t26.5 64q0 39 -27 66t-66 27zM432 -169q0 32 -56 43q-40 8 -120 18q-26 3 -42.5 -13.5
t-16.5 -43.5q0 -35 28 -49t82 -14q55 0 90 14t35 45z" />
    <glyph glyph-name="Hbar" unicode="&#x126;" horiz-adv-x="821" 
d="M726 800q8 0 14 -5.5t6 -13.5v-761q0 -9 -5 -14.5t-13 -5.5h-76q-23 0 -36.5 14.5t-13.5 36.5v268h-384v-299q0 -8 -5.5 -14t-13.5 -6h-104q-8 0 -14 6t-6 14v761q0 8 5.5 13.5t13.5 5.5h104q8 0 14 -5.5t6 -13.5v-99h384v99q0 8 5.5 13.5t14.5 5.5h104zM218 463h384v75
h-384v-75z" />
    <glyph glyph-name="hbar" unicode="&#x127;" horiz-adv-x="639" 
d="M587 25q2 -10 -1.5 -17.5t-10.5 -7.5h-84q-23 0 -36 14t-13 36v247q0 40 -26.5 61t-64.5 21q-61 0 -116 -52v-308q0 -7 -5.5 -13t-13.5 -6h-101q-7 0 -12.5 5.5t-5.5 13.5v554h-48q-19 0 -19 19v89q0 8 5.5 13.5t13.5 5.5h48v3q0 13 -1.5 24.5t-2.5 18t-3.5 16.5t-3.5 13
q-2 10 1.5 17.5t11.5 7.5h87q22 0 35.5 -13t13.5 -33v-54h86q8 0 13.5 -5.5t5.5 -13.5l1 -89q0 -19 -20 -19h-86v-118q66 47 137 47q82 0 144.5 -52t62.5 -140v-220q1 -35 8 -65z" />
    <glyph glyph-name="Imacron" unicode="&#x12a;" horiz-adv-x="298" 
d="M-66 1006q0 14 15 14l401 1q6 0 11 -4.5t5 -10.5v-73q0 -7 -4.5 -11t-11.5 -4h-401q-15 0 -15 15v73zM198 800h-99q-8 0 -13.5 -5.5t-5.5 -13.5v-761q0 -8 6 -14t14 -6h99q7 0 13 6t6 14v761q0 7 -6 13t-14 6z" />
    <glyph glyph-name="imacron" unicode="&#x12b;" horiz-adv-x="288" 
d="M-70 748q0 5 4 9.5t11 4.5l401 1q6 0 11 -5t5 -10v-73q0 -7 -4.5 -11t-11.5 -4h-401q-15 0 -15 15v73zM194 495h-100q-8 0 -13.5 -5.5t-5.5 -13.5v-425q0 -22 13 -36.5t36 -14.5h71q8 0 13 5.5t5 14.5v456q0 7 -6 13t-13 6z" />
    <glyph glyph-name="Iogonek" unicode="&#x12e;" horiz-adv-x="298" 
d="M198 -165q12 4 21 -1.5t9 -17.5v-37q0 -9 -10 -16q-36 -25 -81 -31.5t-81 5.5q-44 12 -67 39.5t-23 65.5q0 48 46 93.5t114 64.5h-26q-8 0 -14 6t-6 14v761q0 8 5.5 13.5t13.5 5.5h99q8 0 14 -6t6 -13v-761q0 -8 -6 -14t-13 -6h-2q-136 -64 -136 -126q0 -23 17.5 -38.5
t42.5 -15.5q42 0 77 15z" />
    <glyph glyph-name="iogonek" unicode="&#x12f;" horiz-adv-x="288" 
d="M146 664q-27 0 -47.5 19.5t-20.5 47.5t20.5 48.5t47.5 20.5q28 0 48 -20.5t20 -48.5t-19.5 -47.5t-48.5 -19.5zM196 -165q12 4 21 -1.5t9 -17.5v-37q0 -9 -10 -16q-36 -25 -81 -31.5t-81 5.5q-44 12 -67 39.5t-23 65.5q0 48 46 93.5t114 64.5q-23 0 -36 14.5t-13 36.5
v425q0 8 5.5 13.5t13.5 5.5h100q7 0 13 -5.5t6 -13.5v-456q0 -9 -5 -14.5t-13 -5.5q-136 -64 -136 -126q0 -23 17.5 -38.5t42.5 -15.5q42 0 77 15z" />
    <glyph glyph-name="Idotaccent" unicode="&#x130;" horiz-adv-x="298" 
d="M150 922q-27 0 -47.5 19.5t-20.5 47.5t20.5 48.5t47.5 20.5q28 0 48 -20.5t20 -48.5t-19.5 -47.5t-48.5 -19.5zM198 800h-99q-8 0 -13.5 -5.5t-5.5 -13.5v-761q0 -8 6 -14t14 -6h99q7 0 13 6t6 14v761q0 7 -6 13t-14 6z" />
    <glyph glyph-name="dotlessi" unicode="&#x131;" horiz-adv-x="288" 
d="M194 495h-100q-8 0 -13.5 -5.5t-5.5 -13.5v-425q0 -22 13 -36.5t36 -14.5h71q8 0 13 5.5t5 14.5v456q0 8 -6 13.5t-13 5.5z" />
    <glyph glyph-name="IJ" unicode="&#x132;" horiz-adv-x="597" 
d="M198 800h-99q-8 0 -13.5 -5.5t-5.5 -13.5v-761q0 -8 6 -14t14 -6h99q7 0 13 6t6 14v761q0 7 -6 13t-14 6zM467 800q23 0 36.5 -14.5t13.5 -36.5v-834q0 -71 -35 -129.5t-95 -90.5q-18 -9 -27 7l-49 94q-9 17 11 26q52 30 52 94v798q-1 17 -8 61q-2 10 1.5 17.5t10.5 7.5
h89z" />
    <glyph glyph-name="ij" unicode="&#x133;" horiz-adv-x="569" 
d="M425 651q-31 0 -53 21.5t-22 52.5t22 53t53 22t52.5 -22t21.5 -53t-21.5 -52.5t-52.5 -21.5zM144 651q-31 0 -52.5 21.5t-21.5 52.5t21.5 53t52.5 22t53 -22t22 -53t-22 -52.5t-53 -21.5zM195 495h-100q-8 0 -13.5 -5.5t-5.5 -13.5v-425q0 -22 13 -36.5t36 -14.5h71
q8 0 13 5.5t5 14.5v456q0 7 -6 13t-13 6zM478 495h-99q-9 0 -14 -5.5t-5 -13.5v-576q0 -58 -53 -87q-19 -10 -10 -26l49 -94q8 -15 27 -8q59 31 92 88t33 127v576q0 8 -6 13.5t-14 5.5z" />
    <glyph glyph-name="Kcommaaccent" unicode="&#x136;" horiz-adv-x="753" 
d="M708 47q14 -16 7.5 -31.5t-26.5 -15.5h-108q-14 0 -23 10l-351 391v-382q0 -7 -6 -13t-13 -6h-104q-8 0 -14 5.5t-6 13.5v694q-1 31 -8 62q-2 10 1.5 17.5t11.5 7.5h89q22 0 35.5 -13t13.5 -33v-316l300 351q8 11 24 11h108q18 0 24.5 -15t-4.5 -28l-289 -338zM411 -145
q26 -23 31 -59q10 -63 -8 -128q-11 -39 -38 -72.5t-58 -52.5q-14 -7 -21 2l-18 22q-5 7 0 12q36 29 57 62.5t18 82.5v2q-12 -3 -24 -3q-32 0 -55.5 23.5t-23.5 54.5q0 33 23.5 56t55.5 23q38 0 61 -25z" />
    <glyph glyph-name="kcommaaccent" unicode="&#x137;" horiz-adv-x="616" 
d="M567 43q12 -13 7 -27.5t-23 -14.5h-101q-13 0 -23 11l-217 235v-228q0 -7 -6 -13t-13 -6h-99q-8 0 -14 5.5t-6 13.5v684q0 13 -1.5 24.5t-2.5 18t-3.5 16.5t-3.5 13q-2 10 1.5 17.5t11.5 7.5h87q22 0 35.5 -13t13.5 -33v-470l177 201q9 10 22 10h100q15 0 21 -15t-5 -28
l-170 -187zM354 -145q26 -23 31 -59q10 -63 -8 -128q-11 -39 -38 -72.5t-58 -52.5q-13 -7 -21 2l-18 22q-5 7 0 12q36 29 57 62.5t18 82.5v2q-12 -3 -24 -3q-32 0 -55.5 23.5t-23.5 54.5q0 33 23.5 56t55.5 23q38 0 61 -25z" />
    <glyph glyph-name="Lacute" unicode="&#x139;" horiz-adv-x="627" 
d="M360 969q7 4 9 12.5t-3 18.5l-37 61q-4 7 -13.5 7.5t-15.5 -5.5l-195 -131q-5 -3 -7 -9t2 -14l24 -43q7 -15 27 -6zM553 138q8 0 13.5 -5.5t5.5 -14.5v-99q0 -8 -5.5 -13.5t-13.5 -5.5h-473q-15 0 -15 18v763q0 8 5.5 13.5t13.5 5.5h104q8 0 14 -5.5t6 -13.5v-643h345z
" />
    <glyph glyph-name="lacute" unicode="&#x13a;" horiz-adv-x="283" 
d="M276 979q7 4 9 12.5t-3 18.5l-37 61q-4 7 -13.5 7.5t-15.5 -5.5l-195 -131q-5 -3 -7 -9t2 -14l24 -43q7 -15 27 -6zM194 800h-100q-8 0 -13.5 -5.5t-5.5 -13.5v-730q0 -22 13 -36.5t36 -14.5h70q8 0 13.5 5.5t5.5 14.5v761q0 7 -6 13t-13 6z" />
    <glyph glyph-name="Lcommaaccent" unicode="&#x13b;" horiz-adv-x="627" 
d="M553 138q8 0 13.5 -5.5t5.5 -14.5v-99q0 -8 -5.5 -13.5t-13.5 -5.5h-473q-15 0 -15 18v763q0 8 5.5 13.5t13.5 5.5h104q8 0 14 -5.5t6 -13.5v-643h345zM360 -145q26 -23 31 -59q10 -63 -8 -128q-11 -39 -38 -72.5t-58 -52.5q-13 -7 -21 2l-18 22q-5 7 0 12q36 29 57 62.5
t18 82.5v2q-12 -3 -24 -3q-32 0 -55.5 23.5t-23.5 54.5q0 33 23.5 56t55.5 23q38 0 61 -25z" />
    <glyph glyph-name="lcommaaccent" unicode="&#x13c;" horiz-adv-x="283" 
d="M124 0q-23 0 -36 14.5t-13 36.5v730q0 8 5.5 13.5t13.5 5.5h100q7 0 13 -6t6 -13v-761q0 -9 -5.5 -14.5t-13.5 -5.5h-70zM237 -204q10 -63 -8 -128q-11 -39 -38 -72.5t-58 -52.5q-13 -7 -21 2l-18 22q-5 7 0 12q36 29 57 62.5t18 82.5v2q-12 -3 -24 -3q-32 0 -55.5 23.5
t-23.5 54.5q0 33 23.5 56t55.5 23q38 0 61 -25q26 -23 31 -59z" />
    <glyph glyph-name="Lcaron" unicode="&#x13d;" horiz-adv-x="627" 
d="M436 648q-32 0 -55.5 23.5t-23.5 55.5q0 33 23.5 56t55.5 23q40 0 64 -29q21 -20 28 -56q9 -62 -8 -128q-12 -39 -39 -72t-58 -52q-13 -8 -20 1l-18 23q-6 6 -1 11q37 29 58 63t18 83v1q-12 -3 -24 -3zM553 138q8 0 13.5 -5.5t5.5 -14.5v-99q0 -8 -5.5 -13.5t-13.5 -5.5
h-473q-15 0 -15 18v763q0 8 5.5 13.5t13.5 5.5h104q8 0 14 -5.5t6 -13.5v-643h345z" />
    <glyph glyph-name="lcaron" unicode="&#x13e;" horiz-adv-x="490" 
d="M461 721q9 -62 -8 -128q-12 -40 -39 -72.5t-58 -51.5q-12 -8 -20 1l-18 23q-6 6 0 11q37 30 57.5 63.5t17.5 82.5v1q-12 -3 -24 -3q-32 0 -55.5 23.5t-23.5 55.5q0 33 23.5 56t55.5 23q40 0 64 -29q23 -22 28 -56zM194 800q7 0 13 -6t6 -13v-761q0 -9 -5.5 -14.5
t-13.5 -5.5h-70q-23 0 -36 14.5t-13 36.5v730q0 8 5.5 13.5t13.5 5.5h100z" />
    <glyph glyph-name="Ldot" unicode="&#x13f;" horiz-adv-x="627" 
d="M553 138q8 0 13.5 -5.5t5.5 -14.5v-99q0 -8 -5.5 -13.5t-13.5 -5.5h-473q-15 0 -15 18v763q0 8 5.5 13.5t13.5 5.5h104q8 0 14 -5.5t6 -13.5v-643h345zM453 323q-33 0 -55.5 23t-22.5 55t22.5 55.5t55.5 23.5q32 0 55 -23.5t23 -55.5t-23 -55t-55 -23z" />
    <glyph glyph-name="ldot" unicode="&#x140;" horiz-adv-x="472" 
d="M194 800h-100q-8 0 -13.5 -5.5t-5.5 -13.5v-730q0 -22 13 -36.5t36 -14.5h70q8 0 13.5 5.5t5.5 14.5v761q0 7 -6 13t-13 6zM344 322q-33 0 -55.5 22.5t-22.5 54.5t22.5 55t55.5 23q31 0 54.5 -23.5t23.5 -54.5t-23 -54t-55 -23z" />
    <glyph glyph-name="Lslash" unicode="&#x141;" horiz-adv-x="676" 
d="M601 138q8 0 13.5 -5.5t5.5 -14.5v-99q0 -8 -5.5 -13.5t-13.5 -5.5h-473q-15 0 -15 18v315l-31 -17q-24 -13 -37 11l-17 26q-11 23 12 38l73 39v351q0 8 5.5 13.5t13.5 5.5h104q8 0 14 -5.5t6 -13.5v-273l106 58q24 12 37 -9l17 -28q13 -21 -10 -37l-150 -82v-272h345z
" />
    <glyph glyph-name="lslash" unicode="&#x142;" horiz-adv-x="387" 
d="M383 485q13 -21 -10 -37l-109 -59v-369q0 -9 -5.5 -14.5t-13.5 -5.5h-70q-23 0 -36 14.5t-13 36.5v263l-68 -37q-24 -13 -37 11l-17 27q-11 22 12 37l110 60v369q0 8 5.5 13.5t13.5 5.5h99q8 0 14 -5.5t6 -13.5v-294l65 36q25 11 37 -10z" />
    <glyph glyph-name="Nacute" unicode="&#x143;" horiz-adv-x="845" 
d="M554 962q7 4 9 12.5t-3 18.5l-37 61q-4 7 -13.5 7.5t-15.5 -5.5l-195 -131q-5 -3 -7 -9t2 -14l24 -43q7 -15 27 -6zM750 800q8 0 14 -6t6 -13v-762q0 -8 -5.5 -13.5t-13.5 -5.5h-33q-39 0 -92 59l-409 457v-496q0 -8 -6 -13.5t-14 -5.5l-102 -1q-8 0 -14 6t-6 14v761
q0 7 6 13t13 6h59q15 0 27 -15l447 -512v508q0 8 5.5 13.5t13.5 5.5h104z" />
    <glyph glyph-name="nacute" unicode="&#x144;" horiz-adv-x="601" 
d="M198 606l-24 43q-4 8 -2 14t7 9l195 131q6 6 15.5 5.5t13.5 -7.5l37 -61q5 -10 3 -18.5t-9 -12.5l-209 -109q-20 -9 -27 6zM550 25q2 -10 -1.5 -17.5t-10.5 -7.5h-84q-23 0 -36.5 14t-13.5 36v247q0 40 -26 61t-64 21q-60 0 -116 -51v-309q0 -8 -6 -13.5t-13 -5.5h-101
q-7 0 -12.5 5.5t-5.5 13.5v457q0 8 5.5 13.5t12.5 5.5h69q17 0 30 -12t18 -29q69 48 139 48q83 0 145.5 -52t62.5 -140v-220q1 -35 8 -65z" />
    <glyph glyph-name="Ncommaaccent" unicode="&#x145;" horiz-adv-x="845" 
d="M750 800q8 0 14 -6t6 -13v-762q0 -8 -5.5 -13.5t-13.5 -5.5h-33q-39 0 -92 59l-409 457v-496q0 -8 -6 -13.5t-14 -5.5l-102 -1q-8 0 -14 6t-6 14v761q0 7 5.5 13t13.5 6h59q15 0 27 -15l447 -512v508q0 8 5.5 13.5t13.5 5.5h104zM485 -145q26 -23 31 -59q10 -63 -8 -128
q-11 -39 -38 -72.5t-58 -52.5q-13 -7 -21 2l-18 22q-5 7 0 12q36 29 57 62.5t18 82.5v2q-12 -3 -24 -3q-32 0 -55.5 23.5t-23.5 54.5q0 33 23.5 56t55.5 23q38 0 61 -25z" />
    <glyph glyph-name="ncommaaccent" unicode="&#x146;" horiz-adv-x="601" 
d="M550 25q2 -10 -1.5 -17.5t-10.5 -7.5h-84q-23 0 -36.5 14t-13.5 36v247q0 40 -26 61t-64 21q-60 0 -116 -51v-309q0 -7 -5.5 -13t-13.5 -6h-101q-7 0 -12.5 5.5t-5.5 13.5v457q0 8 5.5 13.5t12.5 5.5h69q18 0 30.5 -12t17.5 -29q69 48 139 48q83 0 145.5 -52t62.5 -140
v-220q1 -35 8 -65zM375 -145q26 -23 31 -59q10 -63 -8 -128q-11 -39 -38 -72.5t-58 -52.5q-13 -7 -21 2l-18 22q-5 7 0 12q36 29 57 62.5t18 82.5v2q-12 -3 -24 -3q-32 0 -55.5 23.5t-23.5 54.5q0 33 23.5 56t55.5 23q38 0 61 -25z" />
    <glyph glyph-name="Ncaron" unicode="&#x147;" horiz-adv-x="845" 
d="M437 859l168 113q12 8 12 17v60q0 12 -9.5 16.5t-23.5 -2.5l-159 -82l-161 82q-14 7 -23 2.5t-9 -16.5v-60q0 -8 11 -17l169 -113q13 -7 25 0zM750 800q8 0 14 -6t6 -13v-762q0 -8 -5.5 -13.5t-13.5 -5.5h-33q-39 0 -92 59l-409 457v-496q0 -8 -6 -13.5t-14 -5.5l-102 -1
q-8 0 -14 6t-6 14v761q0 7 5.5 13t13.5 6h59q15 0 27 -15l447 -512v508q0 8 5.5 13.5t13.5 5.5h104z" />
    <glyph glyph-name="ncaron" unicode="&#x148;" horiz-adv-x="601" 
d="M123 719q-11 9 -11 17v60q0 12 9 16.5t23 -2.5l161 -82l159 82q14 7 23.5 2.5t9.5 -16.5v-60q0 -9 -12 -17l-168 -113q-12 -7 -25 0zM550 25q2 -10 -1.5 -17.5t-10.5 -7.5h-84q-23 0 -36.5 14t-13.5 36v247q0 40 -26 61t-64 21q-60 0 -116 -51v-309q0 -7 -5.5 -13
t-13.5 -6h-101q-7 0 -12.5 5.5t-5.5 13.5v457q0 8 5.5 13.5t12.5 5.5h69q17 0 30 -12t18 -29q69 48 139 48q83 0 145.5 -52t62.5 -140v-220q1 -35 8 -65z" />
    <glyph glyph-name="Eng" unicode="&#x14a;" horiz-adv-x="841" 
d="M745 800q8 0 14 -5.5t6 -13.5v-762v-1v-103q0 -71 -35 -129.5t-95 -90.5q-18 -9 -27 7l-49 94q-8 17 10 26q53 30 53 94v143l-408 451v-490q0 -8 -6 -13.5t-13 -5.5l-104 -1q-9 0 -14.5 6t-5.5 14v761q0 8 5.5 13.5t13.5 5.5h61q11 0 23 -13l448 -516v510q0 8 5.5 13.5
t13.5 5.5h104z" />
    <glyph glyph-name="eng" unicode="&#x14b;" horiz-adv-x="612" 
d="M542 -97q0 -69 -31 -123.5t-88 -84.5q-17 -8 -26 8l-50 91q-7 16 10 25q47 25 47 84v386q0 40 -25.5 59.5t-64.5 19.5q-61 0 -116 -50v-299q0 -7 -5.5 -13t-13.5 -6h-101q-7 0 -12.5 5.5t-5.5 13.5v457q0 8 5.5 13.5t12.5 5.5h69q18 0 30.5 -12.5t17.5 -29.5
q68 47 139 47q53 0 99.5 -21t77.5 -66t31 -104v-406z" />
    <glyph glyph-name="Omacron" unicode="&#x14c;" horiz-adv-x="936" 
d="M253 1015q0 5 4 9.5t11 4.5l401 1q6 0 11 -5t5 -10v-73q0 -7 -4.5 -11t-11.5 -4h-401q-15 0 -15 15v73zM469 -7q110 0 204 54t148.5 148t54.5 206q0 111 -54.5 204.5t-148.5 147.5t-204 54q-111 0 -205.5 -54t-149 -147.5t-54.5 -204.5q0 -112 55 -206t149 -148t205 -54z
M469 131q-108 0 -187 80t-79 190q0 109 79 188.5t187 79.5t186.5 -79.5t78.5 -188.5q0 -110 -78.5 -190t-186.5 -80z" />
    <glyph glyph-name="omacron" unicode="&#x14d;" horiz-adv-x="592" 
d="M80 748q0 5 4 9.5t11 4.5l401 1q6 0 11 -5t5 -10v-73q0 -7 -4.5 -11t-11.5 -4h-401q-15 0 -15 15v73zM296 -7q106 0 181 73.5t75 180.5q0 108 -75 181.5t-181 73.5t-181 -73.5t-75 -181.5q0 -107 75 -180.5t181 -73.5zM296 121q-52 0 -87.5 37t-35.5 88q0 52 35 89.5
t88 37.5t88 -37.5t35 -89.5q0 -51 -35.5 -88t-87.5 -37z" />
    <glyph glyph-name="Ohungarumlaut" unicode="&#x150;" horiz-adv-x="936" 
d="M323 927q-8 0 -14 6t-6 13l2 147q0 8 5.5 14t13.5 6h88q9 0 15 -6t5 -14l-31 -147q-4 -19 -19 -19h-59zM525 927q-8 0 -14 6t-6 13l3 147q0 8 5.5 14t13.5 6h87q9 0 15 -6t5 -14l-31 -147q-2 -19 -19 -19h-59zM469 -7q110 0 204 54t148.5 148t54.5 206
q0 169 -119.5 287.5t-287.5 118.5q-170 0 -289.5 -118.5t-119.5 -287.5q0 -112 55 -206t149 -148t205 -54zM469 131q-108 0 -187 80t-79 190q0 109 79 188.5t187 79.5t186.5 -79.5t78.5 -188.5q0 -110 -78.5 -190t-186.5 -80z" />
    <glyph glyph-name="ohungarumlaut" unicode="&#x151;" horiz-adv-x="592" 
d="M150 660q-8 0 -14 6t-6 13l2 147q0 8 5.5 14t13.5 6h88q9 0 15 -6t5 -14l-31 -147q-4 -19 -19 -19h-59zM352 660q-8 0 -14 6t-6 13l3 147q0 8 5.5 14t13.5 6h87q9 0 15 -6t5 -14l-31 -147q-2 -19 -19 -19h-59zM296 -7q106 0 181 73.5t75 180.5q0 108 -75 181.5t-181 73.5
t-181 -73.5t-75 -181.5q0 -107 75 -180.5t181 -73.5zM296 121q-52 0 -87.5 37t-35.5 88q0 53 35 90t88 37t88 -37t35 -90q0 -51 -35.5 -88t-87.5 -37z" />
    <glyph glyph-name="OE" unicode="&#x152;" horiz-adv-x="1366" 
d="M1281 662h-364v-201h196q8 0 14.5 -6t6.5 -14v-99q0 -9 -6 -14t-15 -5h-195v-185h363q8 0 14.5 -6t6.5 -14v-98q0 -8 -6 -14t-15 -6h-486q-9 0 -14.5 6t-5.5 14v111q-57 -65 -136.5 -101.5t-169.5 -36.5q-111 0 -205 54t-149 148t-55 206q0 111 54.5 204.5t149 147.5
t205.5 54q90 0 169.5 -36.5t136.5 -100.5v111q0 8 5 13.5t14 5.5h487q8 0 14.5 -6t6.5 -13v-100q0 -8 -6 -13.5t-15 -5.5zM469 131q108 0 186.5 80t78.5 190q0 109 -78.5 188.5t-186.5 79.5t-187 -79.5t-79 -188.5q0 -110 79 -190t187 -80z" />
    <glyph glyph-name="oe" unicode="&#x153;" horiz-adv-x="937" 
d="M901 273q0 -35 -19.5 -53.5t-53.5 -18.5h-271q9 -41 44 -63t82 -22q34 0 70 9.5t58 21.5q20 10 30 -5l24 -32q12 -15 3 -26q-63 -89 -201 -89q-112 0 -186 76q-75 -78 -185 -78q-106 0 -181 73.5t-75 180.5q0 108 75 181.5t181 73.5q108 0 184 -76q73 76 181 76
q107 0 173.5 -68.5t66.5 -160.5zM557 307h200q-4 27 -31 48t-68 21q-40 0 -68 -21.5t-33 -47.5zM296 121q43 0 75 25.5t43 65.5q-2 24 -2 36t2 34q-11 40 -43 65.5t-75 25.5q-53 0 -88 -37.5t-35 -89.5q0 -51 35.5 -88t87.5 -37z" />
    <glyph glyph-name="Racute" unicode="&#x154;" horiz-adv-x="721" 
d="M255 866l-24 43q-4 8 -2 14t7 9l195 131q6 6 15.5 5.5t13.5 -7.5l37 -61q5 -10 3 -18.5t-9 -12.5l-209 -109q-20 -9 -27 6zM677 23q6 -9 2 -16t-16 -7h-93q-19 0 -35.5 13t-25.5 28l-138 211h-168v-232q0 -9 -5.5 -14.5t-13.5 -5.5h-106q-8 0 -13 5.5t-5 14.5v761
q0 8 5.5 13.5t13.5 5.5h319q59 0 110 -25.5t84 -66t52 -88.5t19 -94q0 -75 -42.5 -146t-114.5 -104zM203 662v-272h175q67 0 104 41t37 98q0 54 -37 93.5t-104 39.5h-175z" />
    <glyph glyph-name="racute" unicode="&#x155;" horiz-adv-x="461" 
d="M133 606l-24 43q-4 8 -2 14t7 9l195 131q6 6 15.5 5.5t13.5 -7.5l37 -61q5 -10 3 -18.5t-9 -12.5l-209 -109q-20 -9 -27 6zM427 474q11 -7 13 -13t-5 -17l-52 -76q-9 -13 -26 -9q-34 12 -58 12q-18 0 -36.5 -5.5t-38 -24t-26.5 -48.5v-274q0 -8 -5.5 -13.5t-13.5 -5.5
h-101q-7 0 -12.5 5.5t-5.5 13.5v457q0 8 5.5 13.5t12.5 5.5h69q19 0 32.5 -13.5t17.5 -31.5q57 49 126 49t104 -25z" />
    <glyph glyph-name="Rcommaaccent" unicode="&#x156;" horiz-adv-x="721" 
d="M677 23q6 -9 2 -16t-16 -7h-93q-36 0 -61 41l-138 211h-168v-232q0 -9 -5.5 -14.5t-13.5 -5.5h-106q-8 0 -13 5.5t-5 14.5v761q0 8 5.5 13.5t13.5 5.5h319q78 0 140.5 -43.5t93.5 -105.5t31 -125q0 -75 -42.5 -146t-114.5 -104zM203 662v-272h175q67 0 104 41t37 98
q0 54 -37 93.5t-104 39.5h-175zM421 -145q26 -23 31 -59q10 -63 -8 -128q-11 -39 -38 -72.5t-58 -52.5q-13 -7 -21 2l-18 22q-5 7 0 12q36 29 57 62.5t18 82.5v2q-12 -3 -24 -3q-32 0 -55.5 23.5t-23.5 54.5q0 33 23.5 56t55.5 23q38 0 61 -25z" />
    <glyph glyph-name="rcommaaccent" unicode="&#x157;" horiz-adv-x="461" 
d="M427 474q11 -7 13 -13t-5 -17l-52 -76q-9 -13 -26 -9q-34 12 -58 12q-18 0 -36.5 -5.5t-38 -24t-26.5 -48.5v-274q0 -8 -5.5 -13.5t-13.5 -5.5h-101q-7 0 -12.5 5.5t-5.5 13.5v457q0 8 5.5 13.5t12.5 5.5h69q19 0 32.5 -13.5t17.5 -31.5q57 49 126 49t104 -25zM289 -145
q26 -23 31 -59q10 -63 -8 -128q-11 -39 -38 -72.5t-58 -52.5q-14 -7 -21 2l-18 22q-5 7 0 12q81 64 75 145v2q-12 -3 -24 -3q-32 0 -55.5 23.5t-23.5 54.5q0 33 23.5 56t55.5 23q38 0 61 -25z" />
    <glyph glyph-name="Rcaron" unicode="&#x158;" horiz-adv-x="721" 
d="M180 979q-11 9 -11 17v60q0 12 9 16.5t23 -2.5l161 -82l159 82q14 7 23.5 2.5t9.5 -16.5v-60q0 -9 -12 -17l-168 -113q-12 -7 -25 0zM677 23q6 -9 2 -16t-16 -7h-93q-36 0 -61 41l-138 211h-168v-232q0 -9 -5.5 -14.5t-13.5 -5.5h-106q-8 0 -13 5.5t-5 14.5v761
q0 8 5.5 13.5t13.5 5.5h319q78 0 140.5 -43.5t93.5 -105.5t31 -125q0 -75 -42.5 -146t-114.5 -104zM203 662v-272h175q67 0 104 41t37 98q0 54 -37 93.5t-104 39.5h-175z" />
    <glyph glyph-name="rcaron" unicode="&#x159;" horiz-adv-x="461" 
d="M251 606q-12 -7 -25 0l-169 113q-11 9 -11 17v60q0 12 9 16.5t23 -2.5l161 -82l159 82q14 7 23.5 2.5t9.5 -16.5v-60q0 -9 -12 -17zM427 474q11 -7 13 -13t-5 -17l-52 -76q-9 -13 -26 -9q-34 12 -58 12q-18 0 -36.5 -5.5t-38 -24t-26.5 -48.5v-274q0 -8 -5.5 -13.5
t-13.5 -5.5h-101q-7 0 -12.5 5.5t-5.5 13.5v457q0 8 5.5 13.5t12.5 5.5h69q19 0 32.5 -13.5t17.5 -31.5q57 49 126 49t104 -25z" />
    <glyph glyph-name="Sacute" unicode="&#x15a;" horiz-adv-x="633" 
d="M440 973q7 4 9 12.5t-3 18.5l-37 61q-4 7 -13.5 7.5t-15.5 -5.5l-195 -131q-5 -3 -7 -9t2 -14l24 -43q7 -15 27 -6zM51 139l57 66q18 21 38 6q21 -18 31 -25.5t34.5 -24t49.5 -24t51 -7.5q58 0 96 22.5t38 66.5q0 12 -3.5 22.5t-7.5 18.5t-14.5 16l-16.5 12.5t-21.5 12
t-22 10t-25.5 10.5t-25 10q-60 25 -100 46.5t-76 51t-53.5 67.5t-17.5 85q0 40 15 78.5t44.5 72t80.5 54t116 20.5q56 0 110.5 -20t82 -39t45.5 -37q21 -21 7 -37l-50 -66q-18 -23 -40 -8q-1 1 -11 9t-13.5 10.5l-14 10t-16.5 10.5t-16.5 9.5t-19 9l-19.5 6t-22 5t-22 1.5
q-52 0 -83.5 -26t-31.5 -63t29 -60.5t92 -48.5l56.5 -24.5t52 -25.5t50 -29.5t41 -33t34 -40t20.5 -47t8 -55.5q0 -90 -79 -157t-195 -67q-40 0 -79.5 10.5t-64.5 22t-53.5 32.5t-36 28l-23.5 22q-20 17 -6 31z" />
    <glyph glyph-name="sacute" unicode="&#x15b;" horiz-adv-x="488" 
d="M368 711q7 4 9 12.5t-3 18.5l-37 61q-4 7 -13.5 7.5t-15.5 -5.5l-195 -131q-5 -3 -7 -9t2 -14l24 -43q7 -15 27 -6zM48 76l43 68q12 20 28 12q0 -1 16.5 -8.5t46 -15t55.5 -7.5q51 0 51 27q0 14 -17 22t-70 22q-70 19 -111 59t-41 95q0 61 51 106t139 45q50 0 85.5 -11.5
t77.5 -34.5q22 -13 11 -29l-47 -72q-11 -16 -27 -11q-56 26 -100 26q-23 0 -34.5 -7t-11.5 -17q0 -11 17 -19t56 -18q177 -48 177 -161q0 -64 -58 -109t-148 -45q-55 0 -106.5 20t-76.5 40q-6 4 -8 11t2 12z" />
    <glyph glyph-name="Scedilla" unicode="&#x15e;" horiz-adv-x="633" 
d="M588 217q0 -81 -65 -144.5t-165 -76.5l-28 -60q52 -4 88 -41t36 -89q0 -53 -39.5 -92t-94.5 -39q-58 0 -97 46q-6 7 1 14l32 35q7 7 16 -2q23 -17 48 -17q27 0 41 15.5t14 39.5q0 23 -14.5 38.5t-40.5 15.5q-29 0 -52 -22q-10 -10 -18 -2l-31 33q-6 6 -2 13q0 1 0.5 1.5
l0.5 0.5l56 111q-119 15 -217 113q-20 17 -6 31l57 66q18 21 38 6l31 -26t34.5 -24t49.5 -23.5t51 -7.5q58 0 96 22.5t38 66.5q0 12 -3.5 22.5t-7.5 18.5t-14.5 16l-16.5 12.5t-21.5 12t-22 10t-25.5 10.5t-25 10q-60 25 -100 46.5t-76 51t-53.5 67.5t-17.5 85q0 40 15 78.5
t44.5 72t80.5 54t116 20.5q56 0 110.5 -20t82 -39t45.5 -37q21 -21 7 -37l-50 -66q-18 -23 -40 -8q-1 1 -11 9t-13.5 10.5l-14 10t-16.5 10.5t-16.5 9t-19 9t-19.5 6.5t-22 5t-22 1.5q-52 0 -83.5 -26t-31.5 -63t29 -60.5t92 -48.5l56.5 -24.5t52 -25.5t50 -29.5t41 -33
t34 -40t20.5 -47t8 -55.5z" />
    <glyph glyph-name="scedilla" unicode="&#x15f;" horiz-adv-x="488" 
d="M443 147q0 -54 -43 -96t-113 -54l-30 -63q52 -4 88 -41t36 -89q0 -53 -39.5 -92t-94.5 -39q-58 0 -97 46q-6 7 1 14l32 35q7 7 16 -2q23 -17 48 -17q27 0 41 15.5t14 39.5q0 23 -14.5 38.5t-40.5 15.5q-28 0 -52 -22q-10 -10 -18 -2l-31 33q-6 6 -2 13q0 1 0.5 1.5
l0.5 0.5l57 113q-46 6 -87 24t-61 34q-5 4 -7 11t1 12l43 68q12 20 28 12q0 -1 16.5 -8.5t46 -15t55.5 -7.5q51 0 51 27q0 14 -17 22t-70 22q-70 19 -111 59t-41 95q0 61 51 106t139 45q50 0 85.5 -11.5t77.5 -34.5q9 -5 12.5 -13t-1.5 -16l-47 -72q-11 -16 -27 -11
q-56 26 -100 26q-23 0 -34.5 -7t-11.5 -17q0 -11 17 -19t56 -18q177 -48 177 -161z" />
    <glyph glyph-name="Scaron" unicode="&#x160;" horiz-adv-x="633" 
d="M323 870l168 113q12 8 12 17v60q0 12 -9.5 16.5t-23.5 -2.5l-159 -82l-161 82q-14 7 -23 2.5t-9 -16.5v-60q0 -8 11 -17l169 -113q13 -7 25 0zM51 139l57 66q18 21 38 6l31 -26t34.5 -24t49.5 -23.5t51 -7.5q58 0 96 22.5t38 66.5q0 12 -3.5 22.5t-7.5 18.5t-14.5 16
l-16.5 12.5t-21.5 12t-22 10t-25.5 10.5t-25 10q-60 25 -100 46.5t-76 51t-53.5 67.5t-17.5 85q0 40 15 78.5t44.5 72t80.5 54t116 20.5q56 0 110.5 -20t82 -39t45.5 -37q21 -21 7 -37l-50 -66q-18 -23 -40 -8q-1 1 -11 9t-13.5 10.5l-14 10t-16.5 10.5t-16.5 9t-19 9
t-19.5 6.5t-22 5t-22 1.5q-52 0 -83.5 -26t-31.5 -63t29 -60.5t92 -48.5l56.5 -24.5t52 -25.5t50 -29.5t41 -33t34 -40t20.5 -47t8 -55.5q0 -90 -79 -157t-195 -67q-40 0 -79.5 10.5t-64.5 22t-53.5 32.5t-36 28l-23.5 22q-20 17 -6 31z" />
    <glyph glyph-name="scaron" unicode="&#x161;" horiz-adv-x="488" 
d="M251 607l168 113q12 8 12 17v60q0 12 -9.5 16.5t-23.5 -2.5l-159 -82l-161 82q-14 7 -23 2.5t-9 -16.5v-60q0 -8 11 -17l169 -113q13 -7 25 0zM48 76l43 68q12 20 28 12q0 -1 16.5 -8.5t46 -15t55.5 -7.5q51 0 51 27q0 14 -17 22t-70 22q-70 19 -111 59t-41 95
q0 61 51 106t139 45q50 0 85.5 -11.5t77.5 -34.5q9 -5 12.5 -13t-1.5 -16l-47 -72q-11 -16 -27 -11q-56 26 -100 26q-23 0 -34.5 -7t-11.5 -17q0 -11 17 -19t56 -18q177 -48 177 -161q0 -64 -58 -109t-148 -45q-55 0 -106.5 20t-76.5 40q-6 4 -8 11t2 12z" />
    <glyph glyph-name="uni0162" unicode="&#x162;" horiz-adv-x="723" 
d="M659 800q8 0 13.5 -5.5t5.5 -13.5v-100q0 -8 -6 -13.5t-13 -5.5h-226v-642q0 -9 -5.5 -14.5t-13.5 -5.5h-4l-30 -64q52 -4 88 -41t36 -89q0 -53 -39.5 -92t-94.5 -39q-58 0 -97 46q-6 7 1 14l32 35q7 7 16 -2q23 -17 48 -17q27 0 41 15.5t14 39.5q0 23 -14.5 38.5
t-40.5 15.5q-29 0 -52 -22q-10 -10 -18 -2l-31 33q-6 6 -2 13q0 1 0.5 1t0.5 1l58 116h14q-23 0 -36.5 14.5t-13.5 36.5v611h-225q-8 0 -14 5.5t-6 13.5v99q0 8 6 14t14 6h594z" />
    <glyph glyph-name="uni0163" unicode="&#x163;" horiz-adv-x="419" 
d="M277 -63q52 -4 88 -41t36 -89q0 -53 -39.5 -92t-94.5 -39q-58 0 -97 46q-6 7 1 14l32 35q7 7 16 -2q23 -17 48 -17q27 0 41 15.5t14 39.5q0 23 -14.5 38.5t-40.5 15.5q-29 0 -52 -22q-10 -10 -18 -2l-31 33q-6 6 -2 13l0.5 0.5t0.5 1.5l58 115q-55 12 -81 55t-26 124v183
h-57q-8 0 -13.5 5.5t-5.5 13.5v20q0 15 8 24q3 4 18 20.5t20 22.5l18.5 21.5l20 23.5l18.5 22.5l20 25l18.5 24t19 27l17.5 27.5q8 12 14 12h10q13 0 13 -15v-141h89q8 0 14.5 -6t6.5 -14v-93q0 -8 -6.5 -14t-14.5 -6h-71q-13 0 -19 3v-176q0 -33 10.5 -48.5t38.5 -15.5
q15 0 35 4q19 4 24 -18l16 -77q2 -9 -10 -20q-17 -13 -63 -18z" />
    <glyph glyph-name="Tcaron" unicode="&#x164;" horiz-adv-x="723" 
d="M179 974q-11 9 -11 17v60q0 12 9 16.5t23 -2.5l161 -82l159 82q14 7 23.5 2.5t9.5 -16.5v-60q0 -9 -12 -17l-168 -113q-12 -7 -25 0zM659 800q8 0 13.5 -5.5t5.5 -13.5v-100q0 -8 -6 -13.5t-13 -5.5h-226v-642q0 -9 -5.5 -14.5t-13.5 -5.5h-74q-23 0 -36.5 14.5
t-13.5 36.5v611h-225q-8 0 -14 5.5t-6 13.5v99q0 8 6 14t14 6h594z" />
    <glyph glyph-name="tcaron" unicode="&#x165;" horiz-adv-x="577" 
d="M568 721q9 -62 -8 -128q-12 -39 -39 -72t-58 -52q-12 -8 -20 1l-18 23q-6 6 -1 11q37 29 58 63t18 83v1q-12 -3 -24 -3q-32 0 -55.5 23.5t-23.5 55.5q0 33 23.5 56t55.5 23q40 0 64 -29q23 -22 28 -56zM362 111l16 -77q2 -9 -10 -20q-25 -19 -91 -19q-84 0 -122.5 42.5
t-38.5 141.5v183h-57q-8 0 -13.5 5.5t-5.5 13.5v20q0 15 8 24q3 4 18 20.5t20 22.5l18.5 21.5l20 23t18.5 22.5l20 25.5l18 24t19 27l18 27.5q7 12 14 12h10q13 0 13 -15v-141h89q8 0 14.5 -6t6.5 -14v-93q0 -8 -6.5 -14t-14.5 -6h-71q-13 0 -19 3v-176q0 -33 10.5 -48.5
t38.5 -15.5q15 0 35 4q19 4 24 -18z" />
    <glyph glyph-name="Tbar" unicode="&#x166;" horiz-adv-x="723" 
d="M658 662h-225v-167h229q7 0 11.5 -4.5t4.5 -9.5v-97q0 -14 -16 -14h-229v-350q0 -9 -5.5 -14.5t-13.5 -5.5h-75q-23 0 -36 14.5t-13 36.5v319h-229q-15 0 -15 14v97q0 5 4 9.5t11 4.5h229v167h-225q-8 0 -14 5.5t-6 13.5v99q0 8 6 14t14 6h593q8 0 14 -5.5t6 -13.5v-100
q0 -8 -6 -13.5t-14 -5.5z" />
    <glyph glyph-name="tbar" unicode="&#x167;" horiz-adv-x="419" 
d="M378 34q2 -9 -10 -20q-25 -19 -91 -19q-84 0 -122.5 42.5t-38.5 141.5v32h-57q-8 0 -13.5 4t-5.5 10v72q0 6 5.5 10.5t13.5 4.5h57v50h-57q-8 0 -13.5 5.5t-5.5 13.5v20q0 15 8 24q3 4 18 21l20 22.5l18.5 21l20 23.5l18.5 22.5l20 25l18 24t19 27l18 27.5q7 12 14 12h10
q13 0 13 -15v-141h89q8 0 14.5 -6t6.5 -14v-93q0 -8 -6.5 -14t-14.5 -6h-71q-13 0 -19 3v-53h88q7 0 13.5 -4.5t6.5 -9.5v-72q0 -7 -6 -11t-14 -4h-88v-22q0 -33 10.5 -48.5t38.5 -15.5q15 0 35 4q19 4 24 -18z" />
    <glyph glyph-name="Utilde" unicode="&#x168;" horiz-adv-x="772" 
d="M169 931l41 -43q11 -13 25 1q32 39 72 39q23 0 43 -9t32.5 -19.5t33.5 -19.5t46 -9q19 0 38 5.5t34 13.5t29 18.5t22.5 19l16.5 16.5l7 7q10 12 -1 25l-37 45q-12 12 -26 0q-39 -39 -84 -39q-23 0 -47.5 14.5t-51.5 29t-56 14.5q-27 0 -53 -11.5t-44.5 -29t-26.5 -26.5
t-14 -17q-11 -13 1 -25zM683 801h-105q-19 0 -19 -20v-485q0 -77 -46.5 -121t-128.5 -44q-81 0 -126 44t-45 121v485q0 9 -5.5 14.5t-13.5 5.5h-103q-9 0 -15 -5.5t-6 -14.5v-490q0 -131 84.5 -214.5t229.5 -83.5q146 0 232 84t86 214v490q0 20 -19 20z" />
    <glyph glyph-name="utilde" unicode="&#x169;" 
d="M119 633l-41 43q-12 12 -1 25q6 8 14 17t26.5 26.5t44.5 29t53 11.5q29 0 56 -14.5t51.5 -29t47.5 -14.5q45 0 84 39q14 12 26 0l37 -45q11 -13 1 -25l-7.5 -7.5l-16 -16t-22.5 -19t-29 -18.5t-34 -13.5t-38 -5.5q-25 0 -46 9t-33.5 19.5t-32.5 19.5t-43 9q-40 0 -72 -39
q-14 -14 -25 -1zM522 495q8 0 13 -5.5t5 -13.5v-457q0 -8 -5 -13.5t-13 -5.5h-78q-12 0 -23 12.5t-16 28.5q-66 -47 -139 -47q-53 0 -99.5 21.5t-77.5 66.5t-31 104v219q0 32 -7 65q-2 10 1.5 17.5t10.5 7.5h84q23 0 36 -14t13 -36v-249q0 -39 26 -59t65 -20q58 0 116 58
v301q0 8 5.5 13.5t13.5 5.5h100z" />
    <glyph glyph-name="Umacron" unicode="&#x16a;" horiz-adv-x="772" 
d="M171 1003q0 5 4 9.5t11 4.5l401 1q6 0 11 -5t5 -10v-73q0 -7 -4.5 -11t-11.5 -4h-401q-15 0 -15 15v73zM683 801h-105q-19 0 -19 -20v-485q0 -77 -46.5 -121t-128.5 -44q-81 0 -126 44t-45 121v485q0 9 -5.5 14.5t-13.5 5.5h-103q-9 0 -15 -5.5t-6 -14.5v-490
q0 -131 84.5 -214.5t229.5 -83.5q146 0 232 84t86 214v490q0 20 -19 20z" />
    <glyph glyph-name="umacron" unicode="&#x16b;" 
d="M94 660q-15 0 -15 15v73q0 5 4 9.5t11 4.5l401 1q6 0 11 -5t5 -10v-73q0 -15 -16 -15h-401zM522 495q8 0 13 -5.5t5 -13.5v-457q0 -8 -5 -13.5t-13 -5.5h-78q-12 0 -23 12.5t-16 28.5q-66 -47 -139 -47q-53 0 -99.5 21.5t-77.5 66.5t-31 104v219q0 32 -7 65
q-2 10 1.5 17.5t10.5 7.5h84q23 0 36 -14t13 -36v-249q0 -39 26 -59t65 -20q58 0 116 58v301q0 8 5.5 13.5t13.5 5.5h100z" />
    <glyph glyph-name="Ubreve" unicode="&#x16c;" horiz-adv-x="772" 
d="M204 1028q10 -67 61 -111t123 -44q71 0 122 44t61 111q1 12 -5 20t-17 8h-49q-7 0 -13.5 -5t-8.5 -13q-10 -31 -35 -52t-55 -21q-34 0 -59 19.5t-35 53.5q-2 7 -7.5 12.5t-13.5 5.5h-46q-13 0 -19 -8t-4 -20zM683 801h-105q-19 0 -19 -20v-485q0 -77 -46.5 -121
t-128.5 -44q-81 0 -126 44t-45 121v485q0 9 -5.5 14.5t-13.5 5.5h-103q-9 0 -15 -5.5t-6 -14.5v-490q0 -131 84.5 -214.5t229.5 -83.5q146 0 232 83.5t86 214.5v490q0 20 -19 20z" />
    <glyph glyph-name="ubreve" unicode="&#x16d;" 
d="M296 618q-72 0 -123 44t-61 111q-2 12 4 20t19 8h46q8 0 13.5 -5.5t7.5 -12.5q10 -34 35 -53.5t59 -19.5q30 0 55 21t35 52q2 8 8.5 13t13.5 5h49q11 0 17.5 -8t4.5 -20q-10 -67 -61 -111t-122 -44zM522 495q8 0 13 -5.5t5 -13.5v-457q0 -8 -5 -13.5t-13 -5.5h-78
q-12 0 -23 12.5t-16 28.5q-66 -47 -139 -47q-53 0 -99.5 21.5t-77.5 66.5t-31 104v219q0 32 -7 65q-2 10 1.5 17.5t10.5 7.5h84q23 0 36 -14t13 -36v-249q0 -39 26 -59t65 -20q58 0 116 58v301q0 8 5.5 13.5t13.5 5.5h100z" />
    <glyph glyph-name="Uring" unicode="&#x16e;" horiz-adv-x="772" 
d="M387 813q-51 0 -88 36.5t-37 87.5t37 87.5t88 36.5t88 -36.5t37 -87.5t-37 -87.5t-88 -36.5zM387 882q23 0 39 16t16 39t-16 39t-39 16q-22 0 -38 -16t-16 -39t16 -39t38 -16zM683 801h-105q-19 0 -19 -20v-485q0 -77 -46.5 -121t-128.5 -44q-81 0 -126 44t-45 121v485
q0 9 -5.5 14.5t-13.5 5.5h-103q-9 0 -15 -5.5t-6 -14.5v-490q0 -131 84.5 -214.5t229.5 -83.5q146 0 232 84t86 214v490q0 20 -19 20z" />
    <glyph glyph-name="uring" unicode="&#x16f;" 
d="M295 558q-51 0 -88 36.5t-37 87.5t37 87.5t88 36.5t88 -36.5t37 -87.5t-37 -87.5t-88 -36.5zM295 737q-22 0 -38 -16t-16 -39t16 -39t38 -16q23 0 39 16t16 39t-16 39t-39 16zM522 495q8 0 13 -5.5t5 -13.5v-457q0 -8 -5 -13.5t-13 -5.5h-78q-12 0 -23 12.5t-16 28.5
q-66 -47 -139 -47q-53 0 -99.5 21.5t-77.5 66.5t-31 104v219q0 32 -7 65q-2 10 1.5 17.5t10.5 7.5h84q23 0 36 -14t13 -36v-249q0 -39 26 -59t65 -20q58 0 116 58v301q0 8 5.5 13.5t13.5 5.5h100z" />
    <glyph glyph-name="Uhungarumlaut" unicode="&#x170;" horiz-adv-x="772" 
d="M241 915q-8 0 -14 6t-6 13l2 147q0 8 5.5 14t13.5 6h88q9 0 15 -6t5 -14l-31 -147q-4 -19 -19 -19h-59zM443 915q-8 0 -14 6t-6 13l3 147q0 8 5.5 14t13.5 6h87q9 0 15 -6t5 -14l-31 -147q-2 -19 -19 -19h-59zM683 801h-105q-19 0 -19 -20v-485q0 -77 -46.5 -121
t-128.5 -44q-81 0 -126 44t-45 121v485q0 20 -19 20h-103q-9 0 -15 -5.5t-6 -14.5v-490q0 -131 84.5 -214.5t229.5 -83.5q146 0 232 84t86 214v490q0 20 -19 20z" />
    <glyph glyph-name="uhungarumlaut" unicode="&#x171;" 
d="M149 660q-8 0 -14 6t-6 13l2 147q0 8 5.5 14t13.5 6h88q9 0 15 -6t5 -14l-31 -147q-4 -19 -19 -19h-59zM351 660q-8 0 -14 6t-6 13l3 147q0 8 5.5 14t13.5 6h87q9 0 15 -6t5 -14l-31 -147q-2 -19 -19 -19h-59zM522 495q8 0 13 -5.5t5 -13.5v-457q0 -8 -5 -13.5t-13 -5.5
h-78q-12 0 -23 12.5t-16 28.5q-66 -47 -139 -47q-53 0 -99.5 21.5t-77.5 66.5t-31 104v219q0 32 -7 65q-2 10 1.5 17.5t10.5 7.5h84q23 0 36 -14t13 -36v-249q0 -39 26 -59t65 -20q58 0 116 58v301q0 8 5.5 13.5t13.5 5.5h100z" />
    <glyph glyph-name="Uogonek" unicode="&#x172;" horiz-adv-x="772" 
d="M683 801q19 0 19 -20v-490q0 -113 -65 -192t-179 -100q-63 -30 -99 -60t-36 -65q0 -23 17.5 -38.5t42.5 -15.5q42 0 77 15q12 4 21 -1.5t9 -17.5v-37q0 -9 -10 -16q-36 -25 -81 -31.5t-81 5.5q-44 12 -67 39.5t-23 65.5q0 44 39.5 86.5t99.5 64.5q-138 5 -217.5 88
t-79.5 210v490q0 9 6 14.5t15 5.5h103q19 0 19 -20v-485q0 -77 45 -121t126 -44q82 0 128.5 44t46.5 121v485q0 20 19 20h105z" />
    <glyph glyph-name="uogonek" unicode="&#x173;" 
d="M524 -165q12 4 21 -1.5t9 -17.5v-37q0 -9 -10 -16q-36 -25 -81 -31.5t-81 5.5q-44 12 -67 39.5t-23 65.5q0 48 46 93.5t114 64.5h-8q-12 0 -23 12.5t-16 28.5q-66 -47 -139 -47q-53 0 -99.5 21.5t-77.5 66.5t-31 104v219q0 32 -7 65q-2 10 1.5 17.5t10.5 7.5h84
q23 0 36 -14t13 -36v-249q0 -39 26 -59t65 -20q58 0 116 58v301q0 8 5.5 13.5t13.5 5.5h100q8 0 13 -5.5t5 -13.5v-457q0 -8 -5 -13.5t-13 -5.5h1q-136 -64 -136 -126q0 -23 17.5 -38.5t42.5 -15.5q42 0 77 15z" />
    <glyph glyph-name="Wcircumflex" unicode="&#x174;" horiz-adv-x="1144" 
d="M413 859q-14 -7 -23 -2.5t-9 16.5v59q0 11 11 18l168 112q12 7 25 0l169 -112q11 -7 11 -18v-59q0 -12 -9 -16.5t-23 2.5l-160 81zM1100 800q9 0 15 -6.5t2 -16.5l-377 -767q-7 -15 -21 -15h-8q-14 0 -22 15l-117 246l-118 -246q-7 -15 -21 -15h-8q-15 0 -21 15l-377 768
q-5 9 1.5 15.5t15.5 6.5h131q11 0 20 -20l234 -497l63 140l-170 355q-4 9 2 15.5t15 6.5h131q12 0 20 -19l82 -181l81 180q9 20 21 20h130q10 0 16 -6.5t1 -16.5l-169 -354l63 -140l233 498q10 19 21 19h131z" />
    <glyph glyph-name="wcircumflex" unicode="&#x175;" horiz-adv-x="825" 
d="M254 601q-14 -7 -23 -2.5t-9 16.5v59q0 11 11 18l168 112q13 7 25 0l169 -112q11 -7 11 -18v-59q0 -12 -9 -16.5t-23 2.5l-160 81zM782 495q11 0 15 -6t0 -17l-193 -459q-4 -13 -18 -13h-14q-14 0 -21 13l-138 260l-139 -260q-7 -13 -21 -13h-14q-13 0 -19 13l-192 459
q-4 10 0 16.5t15 6.5h104q16 0 23 -14l96 -252l115 248q7 13 23 13h17q17 0 22 -13l116 -248l96 252q7 14 22 14h105z" />
    <glyph glyph-name="Ycircumflex" unicode="&#x176;" horiz-adv-x="769" 
d="M373 1062l-168 -112q-11 -7 -11 -18v-59q0 -12 9 -16.5t23 2.5l160 81l160 -81q14 -7 23 -2.5t9 16.5v59q0 11 -11 18l-169 112q-13 7 -25 0zM740 800q8 0 12 -7.5t-1 -15.5l-296 -455v-302q0 -20 -18 -20h-75q-23 0 -36 14.5t-13 36.5v271l-295 455q-5 8 -1 15.5t12 7.5
h128q11 0 22 -19l205 -316l204 316q1 1 2.5 3.5t2.5 3.5t2.5 3t2.5 3l2.5 2.5t3 2l3 1t3.5 0.5h130z" />
    <glyph glyph-name="ycircumflex" unicode="&#x177;" 
d="M295 804l-168 -112q-11 -7 -11 -18v-59q0 -12 9 -16.5t23 2.5l160 81l160 -81q14 -7 23 -2.5t9 16.5v59q0 11 -11 18l-169 112q-12 7 -25 0zM552 495q11 0 15.5 -6.5t-0.5 -16.5l-192 -394q-73 -151 -134 -247.5t-96 -129.5q-17 -13 -38 8l-55 55q-17 17 1 40
q104 117 179 285l-204 383q-5 10 -0.5 16.5t14.5 6.5h110q15 0 23 -14l127 -259l119 259q8 14 23 14h108z" />
    <glyph glyph-name="Ydieresis" unicode="&#x178;" horiz-adv-x="769" 
d="M251 910q-30 0 -51 22t-21 52q0 31 21 53t51 22q32 0 54 -22t22 -53q0 -30 -22 -52t-54 -22zM520 910q-31 0 -53 22t-22 52q0 31 22 53t53 22q30 0 51.5 -22t21.5 -53q0 -30 -21.5 -52t-51.5 -22zM740 800q8 0 12 -7.5t-1 -15.5l-296 -455v-302q0 -20 -18 -20h-75
q-23 0 -36 14.5t-13 36.5v271l-295 455q-5 8 -1 15.5t12 7.5h128q11 0 22 -19l205 -316l204 316q1 1 2.5 3.5t2.5 3.5t2.5 3t2.5 3l2.5 2.5t3 2l3 1t3.5 0.5h130z" />
    <glyph glyph-name="Zacute" unicode="&#x179;" horiz-adv-x="659" 
d="M223 864l-24 43q-4 8 -2 14t7 9l195 131q6 6 15.5 5.5t13.5 -7.5l37 -61q5 -10 3 -18.5t-9 -12.5l-209 -109q-20 -9 -27 6zM604 143q20 0 20 -18v-76q0 -23 -14.5 -36t-36.5 -13h-519q-8 0 -13.5 5.5t-5.5 13.5v22l12 21l353 596h-340q-21 0 -21 19v103q0 20 21 20h544
q8 0 14 -5.5t6 -13.5v-18l-2 -4l-362 -616h344z" />
    <glyph glyph-name="zacute" unicode="&#x17a;" horiz-adv-x="510" 
d="M387 709q7 4 9 12.5t-3 18.5l-37 61q-4 7 -13.5 7.5t-15.5 -5.5l-195 -131q-5 -3 -7 -9t2 -14l24 -43q7 -15 27 -6zM258 138h182q20 0 20 -19v-100q0 -9 -6 -14t-15 -5h-356q-20 0 -29.5 19t0.5 32l16 26l176 280h-173q-20 0 -20 19v100q0 19 20 19h356q16 0 24.5 -16
t0.5 -29l-13 -22z" />
    <glyph glyph-name="Zdotaccent" unicode="&#x17b;" horiz-adv-x="659" 
d="M330 922q-27 0 -47.5 19.5t-20.5 47.5t20.5 48.5t47.5 20.5q28 0 48 -20.5t20 -48.5t-19.5 -47.5t-48.5 -19.5zM604 143q20 0 20 -18v-76q0 -23 -14.5 -36t-36.5 -13h-519q-8 0 -13.5 5.5t-5.5 13.5v22l12 21l353 596h-340q-9 0 -15 5.5t-6 13.5v103q0 8 5.5 14t15.5 6
h544q8 0 14 -5.5t6 -13.5v-18l-2 -4l-362 -616h344z" />
    <glyph glyph-name="zdotaccent" unicode="&#x17c;" horiz-adv-x="510" 
d="M258 664q-27 0 -47.5 19.5t-20.5 47.5t20.5 48.5t47.5 20.5q28 0 48 -20.5t20 -48.5t-19.5 -47.5t-48.5 -19.5zM258 138h182q20 0 20 -19v-100q0 -9 -6 -14t-15 -5h-356q-20 0 -29.5 19t0.5 32l16 26l176 280h-173q-20 0 -20 19v100q0 19 20 19h356q16 0 24.5 -16
t0.5 -29l-13 -22z" />
    <glyph glyph-name="Zcaron" unicode="&#x17d;" horiz-adv-x="659" 
d="M147 977q-11 9 -11 17v60q0 12 9 16.5t23 -2.5l161 -82l159 82q14 7 23.5 2.5t9.5 -16.5v-60q0 -9 -12 -17l-168 -113q-12 -7 -25 0zM604 143q20 0 20 -18v-76q0 -23 -14.5 -36t-36.5 -13h-519q-8 0 -13.5 5.5t-5.5 13.5v22l12 21l353 596h-340q-9 0 -15 5.5t-6 13.5v103
q0 8 5.5 14t15.5 6h544q8 0 14 -5.5t6 -13.5v-18l-2 -4l-362 -616h344z" />
    <glyph glyph-name="zcaron" unicode="&#x17e;" horiz-adv-x="510" 
d="M269 606l168 113q12 8 12 17v60q0 12 -9.5 16.5t-23.5 -2.5l-159 -82l-161 82q-14 7 -23 2.5t-9 -16.5v-60q0 -8 11 -17l169 -113q13 -7 25 0zM258 138h182q20 0 20 -19v-100q0 -9 -6 -14t-15 -5h-356q-20 0 -29.5 19t0.5 32l16 26l176 280h-173q-20 0 -20 19v100
q0 19 20 19h356q16 0 24.5 -16t0.5 -29l-13 -22z" />
    <glyph glyph-name="florin" unicode="&#x192;" horiz-adv-x="606" 
d="M558 790q14 -8 7 -25l-33 -72q-6 -17 -26 -10q-22 9 -47 9q-87 0 -87 -73v-120h81q8 0 14 -6t6 -14v-73q0 -9 -6 -14.5t-14 -5.5h-81l1 -584v-4v-17h-1q-7 -87 -63.5 -133t-146.5 -46q-61 0 -113 30q-14 9 -7 24l32 73q6 17 26 10q23 -9 48 -9q83 0 85 68v588h-74
q-8 0 -14 5.5t-6 14.5v73q0 8 6 14t14 6h74v121q1 97 59 148.5t152 51.5q62 0 114 -30z" />
    <glyph glyph-name="uni01CD" unicode="&#x1cd;" horiz-adv-x="879" 
d="M259 996q-11 9 -11 17v60q0 12 9 16.5t23 -2.5l161 -82l159 82q14 7 23.5 2.5t9.5 -16.5v-60q0 -9 -12 -17l-168 -113q-12 -7 -25 0zM836 22q5 -9 1.5 -15.5t-13.5 -6.5h-117q-13 0 -20 13l-54 114h-385l-54 -114q-6 -13 -20 -13h-118q-9 0 -13 6.5t0 15.5l377 773
q6 10 14 10h12q8 0 14 -10zM309 257h263l-131 279z" />
    <glyph glyph-name="uni01CE" unicode="&#x1ce;" horiz-adv-x="554" 
d="M298 606l168 113q12 8 12 17v60q0 12 -9.5 16.5t-23.5 -2.5l-159 -82l-161 82q-14 7 -23 2.5t-9 -16.5v-60q0 -8 11 -17l169 -113q13 -7 25 0zM499 25q-19 122 -12 281q4 90 -45 142.5t-140 52.5q-58 0 -117 -14.5t-98 -35.5q-20 -12 -13 -27l32 -76q8 -17 28 -9
q95 41 158 41q32 0 47.5 -10t14.5 -37q-49 -8 -80 -15t-71 -18t-65 -25t-48 -33t-34 -46t-11 -60q0 -67 45 -104t123 -37q58 0 92.5 14t61.5 41q12 -50 44 -50h75q8 0 11.5 7.5t1.5 17.5zM238 103q-52 0 -52 35q0 11 6.5 20.5t21 17t28 13.5t36.5 12t36.5 9l37.5 8
q-2 -40 0 -75q-22 -18 -54 -29t-60 -11z" />
    <glyph glyph-name="uni01CF" unicode="&#x1cf;" horiz-adv-x="298" 
d="M162 864l168 113q12 8 12 17v60q0 12 -9.5 16.5t-23.5 -2.5l-159 -82l-161 82q-14 7 -23 2.5t-9 -16.5v-60q0 -8 11 -17l169 -113q13 -7 25 0zM198 800h-99q-8 0 -13.5 -5.5t-5.5 -13.5v-761q0 -8 6 -14t14 -6h99q7 0 13 6t6 14v761q0 7 -6 13t-14 6z" />
    <glyph glyph-name="uni01D0" unicode="&#x1d0;" horiz-adv-x="288" 
d="M158 606l168 113q12 8 12 17v60q0 12 -9.5 16.5t-23.5 -2.5l-159 -82l-161 82q-14 7 -23 2.5t-9 -16.5v-60q0 -8 11 -17l169 -113q13 -7 25 0zM194 495h-100q-8 0 -13.5 -5.5t-5.5 -13.5v-425q0 -22 13 -36.5t36 -14.5h71q8 0 13 5.5t5 14.5v456q0 8 -6 13.5t-13 5.5z
" />
    <glyph glyph-name="uni01D1" unicode="&#x1d1;" horiz-adv-x="936" 
d="M481 872l168 113q12 8 12 17v60q0 12 -9.5 16.5t-23.5 -2.5l-159 -82l-161 82q-14 7 -23 2.5t-9 -16.5v-60q0 -8 11 -17l169 -113q13 -7 25 0zM469 -7q110 0 204 54t148.5 148t54.5 206q0 169 -119.5 287.5t-287.5 118.5q-170 0 -289.5 -118.5t-119.5 -287.5
q0 -112 55 -206t149 -148t205 -54zM469 131q-108 0 -187 80t-79 190q0 109 79 188.5t187 79.5t186.5 -79.5t78.5 -188.5q0 -110 -78.5 -190t-186.5 -80z" />
    <glyph glyph-name="uni01D2" unicode="&#x1d2;" horiz-adv-x="592" 
d="M307 606l168 113q12 8 12 17v60q0 12 -9.5 16.5t-23.5 -2.5l-159 -82l-161 82q-14 7 -23 2.5t-9 -16.5v-60q0 -8 11 -17l169 -113q13 -7 25 0zM296 -7q106 0 181 73.5t75 180.5q0 108 -75 181.5t-181 73.5t-181 -73.5t-75 -181.5q0 -107 75 -180.5t181 -73.5zM296 121
q-52 0 -87.5 37t-35.5 88q0 53 35 90t88 37t88 -37t35 -90q0 -51 -35.5 -88t-87.5 -37z" />
    <glyph glyph-name="uni01D3" unicode="&#x1d3;" horiz-adv-x="772" 
d="M398 861l168 113q12 8 12 17v60q0 12 -9.5 16.5t-23.5 -2.5l-159 -82l-161 82q-14 7 -23 2.5t-9 -16.5v-60q0 -8 11 -17l169 -113q13 -7 25 0zM683 801h-105q-19 0 -19 -20v-485q0 -77 -46.5 -121t-128.5 -44q-81 0 -126 44t-45 121v485q0 9 -5.5 14.5t-13.5 5.5h-103
q-9 0 -15 -5.5t-6 -14.5v-490q0 -131 84.5 -214.5t229.5 -83.5q146 0 232 84t86 214v490q0 20 -19 20z" />
    <glyph glyph-name="uni01D4" unicode="&#x1d4;" 
d="M113 719q-11 9 -11 17v60q0 12 9 16.5t23 -2.5l161 -82l159 82q14 7 23.5 2.5t9.5 -16.5v-60q0 -9 -12 -17l-168 -113q-12 -7 -25 0zM522 495q8 0 13 -5.5t5 -13.5v-457q0 -8 -5 -13.5t-13 -5.5h-78q-12 0 -23 12.5t-16 28.5q-66 -47 -139 -47q-53 0 -99.5 21.5
t-77.5 66.5t-31 104v219q0 32 -7 65q-2 10 1.5 17.5t10.5 7.5h84q23 0 36 -14t13 -36v-249q0 -39 26 -59t65 -20q58 0 116 58v301q0 8 5.5 13.5t13.5 5.5h100z" />
    <glyph glyph-name="Gcaron" unicode="&#x1e6;" horiz-adv-x="803" 
d="M250 984q-11 9 -11 17v60q0 12 9 16.5t23 -2.5l161 -82l159 82q14 7 23.5 2.5t9.5 -16.5v-60q0 -9 -12 -17l-168 -113q-12 -7 -25 0zM755 365v-227q0 -9 -7 -15q-56 -62 -133 -96t-166 -34q-109 0 -201.5 53t-147.5 146.5t-55 205.5q0 111 55 205.5t148 149t201 54.5
q89 0 167 -34.5t135 -97.5q14 -14 -1 -27l-83 -67q-15 -12 -27 2q-36 37 -85 61.5t-105 24.5q-109 0 -185.5 -81t-76.5 -190q0 -110 76 -188.5t186 -78.5q88 0 163 61v57h-158q-20 0 -20 19v96q0 21 18 21h282q20 0 20 -20z" />
    <glyph glyph-name="gcaron" unicode="&#x1e7;" horiz-adv-x="610" 
d="M313 606l168 113q12 8 12 17v60q0 12 -9.5 16.5t-23.5 -2.5l-159 -82l-161 82q-14 7 -23 2.5t-9 -16.5v-60q0 -8 11 -17l169 -113q13 -7 25 0zM376 -2q51 -6 86 -15.5t63.5 -27t42 -47t12.5 -71.5q0 -87 -74.5 -139t-212.5 -52q-106 0 -170 42t-64 117q0 89 108 106
q-53 10 -93.5 42t-41.5 79t33 73.5t96 19.5q-31 13 -58 56t-28 91q-1 97 64 162.5t161 65.5q28 0 95 -8.5t136 -6.5q9 0 14.5 -5t4.5 -14l-5 -62q-1 -5 -8.5 -8t-21.5 -5t-17 -3q34 -50 34 -116q0 -97 -65.5 -158t-156.5 -57q-38 2 -91 14q-26 6 -39.5 0.5t-13.5 -20.5
q1 -26 68 -34q35 -5 82 -11t60 -8zM304 370q-39 0 -66.5 -27.5t-27.5 -65.5q0 -36 27.5 -63.5t66.5 -27.5q40 0 66.5 27t26.5 64q0 39 -27 66t-66 27zM307 -228q55 0 90 14t35 45q0 32 -56 43q-40 8 -120 18q-26 3 -42.5 -13.5t-16.5 -43.5q0 -35 28 -49t82 -14z" />
    <glyph glyph-name="Scommaaccent" unicode="&#x218;" horiz-adv-x="633" 
d="M326 472l56.5 -24.5t52.5 -25.5t50 -29.5t40.5 -33t34 -40t20.5 -47t8 -55.5q0 -90 -79 -157t-195 -67q-40 0 -79.5 10.5t-64.5 22t-53.5 32.5t-36 28l-23.5 22q-20 17 -6 31l57 66q18 21 38 6l31 -26t34.5 -24t49.5 -23.5t51 -7.5q58 0 96 22.5t38 66.5q0 12 -3.5 22.5
t-7.5 18.5t-14.5 16l-16.5 12.5t-21.5 12t-22 10t-25.5 10.5t-25 10q-60 25 -100 46.5t-76 51t-53.5 67.5t-17.5 85q0 40 15 78.5t44.5 72t80.5 54t116 20.5q56 0 110.5 -20t82 -39t45.5 -37q21 -21 7 -37l-50 -66q-18 -23 -40 -8q-1 1 -11 9t-13.5 10.5l-14 10t-16.5 10.5
t-16.5 9t-19 9t-19.5 6.5t-22 5t-22 1.5q-52 0 -83.5 -26t-31.5 -63t29 -60.5t92 -48.5zM371 -145q26 -23 31 -59q10 -63 -8 -128q-11 -39 -38 -72.5t-58 -52.5q-14 -7 -21 2l-18 22q-5 7 0 12q36 29 57 62.5t18 82.5v2q-12 -3 -24 -3q-32 0 -55.5 23.5t-23.5 54.5
q0 33 23.5 56t55.5 23q38 0 61 -25z" />
    <glyph glyph-name="scommaaccent" unicode="&#x219;" horiz-adv-x="488" 
d="M266 308q177 -48 177 -161q0 -64 -58 -109t-148 -45q-55 0 -106.5 20t-76.5 40q-5 4 -7 11t1 12l43 68q12 20 28 12q0 -1 16.5 -8.5t46 -15t55.5 -7.5q51 0 51 27q0 14 -17 22t-70 22q-70 19 -111 59t-41 95q0 61 51 106t139 45q50 0 85.5 -11.5t77.5 -34.5
q9 -5 12.5 -13t-1.5 -16l-47 -72q-11 -16 -27 -11q-56 26 -100 26q-23 0 -34.5 -7t-11.5 -17q0 -11 17 -19t56 -18zM299 -147q26 -23 31 -59q10 -63 -8 -128q-11 -39 -38 -72.5t-58 -52.5q-13 -7 -21 2l-18 22q-5 7 0 12q36 29 57 62.5t18 82.5v2q-12 -3 -24 -3
q-32 0 -55.5 23.5t-23.5 54.5q0 33 23.5 56t55.5 23q38 0 61 -25z" />
    <glyph glyph-name="uni021A" unicode="&#x21a;" horiz-adv-x="723" 
d="M659 800q8 0 13.5 -5.5t5.5 -13.5v-100q0 -8 -6 -13.5t-13 -5.5h-226v-642q0 -9 -5.5 -14.5t-13.5 -5.5h-74q-23 0 -36.5 14.5t-13.5 36.5v611h-225q-8 0 -14 5.5t-6 13.5v99q0 8 6 14t14 6h594zM421 -145q26 -23 31 -59q10 -63 -8 -128q-11 -39 -38 -72.5t-58 -52.5
q-13 -7 -21 2l-18 22q-5 7 0 12q36 29 57 62.5t18 82.5v2q-12 -3 -24 -3q-32 0 -55.5 23.5t-23.5 54.5q0 33 23.5 56t55.5 23q38 0 61 -25z" />
    <glyph glyph-name="uni021B" unicode="&#x21b;" horiz-adv-x="419" 
d="M378 34q2 -9 -10 -20q-25 -19 -91 -19q-84 0 -122.5 42.5t-38.5 141.5v183h-57q-8 0 -13.5 5.5t-5.5 13.5v20q0 15 8 24q3 4 18 20.5t20 22.5l18.5 21.5l20 23.5l18.5 22.5l20 25l18.5 24t19 27l17.5 27.5q8 12 14 12h10q13 0 13 -15v-141h89q8 0 14.5 -6t6.5 -14v-93
q0 -8 -6.5 -14t-14.5 -6h-71q-13 0 -19 3v-176q0 -33 10.5 -48.5t38.5 -15.5q15 0 35 4q19 4 24 -18zM318 -144q26 -23 31 -59q10 -63 -8 -128q-11 -39 -38 -72.5t-58 -52.5q-13 -7 -21 2l-18 22q-5 7 0 12q36 29 57 62.5t18 82.5v2q-12 -3 -24 -3q-32 0 -55.5 23.5
t-23.5 54.5q0 33 23.5 56t55.5 23q38 0 61 -25z" />
    <glyph glyph-name="uni0228" unicode="&#x228;" horiz-adv-x="666" 
d="M582 662h-364v-201h196q8 0 14 -6t6 -14v-99q0 -19 -20 -19h-196v-185h364q8 0 14 -6t6 -14v-98q0 -8 -6 -14t-14 -6h-203l-30 -64q52 -4 88 -41t36 -89q0 -53 -39.5 -92t-94.5 -39q-58 0 -97 46q-6 7 1 14l32 35q7 7 16 -2q23 -17 48 -17q27 0 41 15.5t14 39.5
q0 23 -14.5 38.5t-40.5 15.5q-29 0 -52 -22q-10 -10 -18 -2l-31 33q-6 6 -2 13q0 1 0.5 1.5l0.5 0.5l58 116h-200q-8 0 -14 6t-6 14v761q0 8 5.5 13.5t13.5 5.5h488q8 0 14 -5.5t6 -13.5v-100q0 -8 -6 -13.5t-14 -5.5z" />
    <glyph glyph-name="uni0229" unicode="&#x229;" horiz-adv-x="560" 
d="M524 273q0 -35 -19.5 -53.5t-53.5 -18.5h-271q9 -41 44 -63t82 -22q34 0 70 9.5t58 21.5q20 10 31 -5l23 -32q12 -15 3 -26q-53 -76 -165 -87l2 3h-84l-1 -1q-91 15 -149.5 83t-58.5 166q0 108 72 181t177 73q107 0 173.5 -68.5t66.5 -160.5zM181 307h199q-4 27 -31 48
t-68 21q-40 0 -68 -21.5t-32 -47.5zM243 -1q21 -4 47 -4q14 0 36 2l-28 -61q52 -4 88 -41t36 -89q0 -53 -39.5 -92t-94.5 -39q-58 0 -97 46q-6 7 1 14l32 35q7 7 16 -2q23 -17 48 -17q27 0 41 15.5t14 39.5q0 23 -14.5 38.5t-40.5 15.5q-29 0 -52 -22q-10 -10 -18 -2l-31 33
q-6 6 -2 13q0 1 0.5 1t0.5 1z" />
    <glyph glyph-name="uni0237" unicode="&#x237;" horiz-adv-x="274" 
d="M184 495h-99q-9 0 -14 -5.5t-5 -13.5v-576q0 -58 -53 -87q-19 -9 -10 -26l49 -94q8 -15 27 -8q59 31 92 88t33 127v576q0 8 -6 13.5t-14 5.5z" />
    <glyph glyph-name="circumflex" unicode="&#x2c6;" horiz-adv-x="466" 
d="M220 813l-168 -112q-11 -7 -11 -18v-59q0 -12 9 -16.5t23 2.5l160 81l160 -81q14 -7 23 -2.5t9 16.5v59q0 11 -11 18l-169 112q-13 7 -25 0z" />
    <glyph glyph-name="caron" unicode="&#x2c7;" horiz-adv-x="466" 
d="M245 606l168 113q12 8 12 17v60q0 12 -9.5 16.5t-23.5 -2.5l-159 -82l-161 82q-14 7 -23 2.5t-9 -16.5v-60q0 -8 11 -17l169 -113q13 -7 25 0z" />
    <glyph glyph-name="breve" unicode="&#x2d8;" horiz-adv-x="447" 
d="M40 773q10 -67 61 -111t123 -44q70 0 121.5 44t61.5 111q1 12 -5 20t-17 8h-49q-7 0 -13.5 -5t-8.5 -13q-10 -31 -35 -52t-55 -21q-34 0 -59 19.5t-35 53.5q-2 7 -7.5 12.5t-13.5 5.5h-46q-13 0 -19 -8t-4 -20z" />
    <glyph glyph-name="dotaccent" unicode="&#x2d9;" horiz-adv-x="222" 
d="M111 664q-27 0 -47.5 19.5t-20.5 47.5t20.5 48.5t47.5 20.5q28 0 48 -20.5t20 -48.5t-19.5 -47.5t-48.5 -19.5z" />
    <glyph glyph-name="ring" unicode="&#x2da;" horiz-adv-x="352" 
d="M176 558q-51 0 -88 36.5t-37 87.5t37 87.5t88 36.5t88 -36.5t37 -87.5t-37 -87.5t-88 -36.5zM176 627q23 0 39 16t16 39t-16 39t-39 16q-22 0 -38 -16t-16 -39t16 -39t38 -16z" />
    <glyph glyph-name="ogonek" unicode="&#x2db;" horiz-adv-x="342" 
d="M200 0q-68 -19 -114 -64.5t-46 -93.5q0 -38 23 -65.5t67 -39.5q36 -12 81 -5.5t81 31.5q10 7 10 16v37q0 12 -9 17.5t-21 1.5q-35 -15 -77 -15q-25 0 -42.5 15.5t-17.5 38.5q0 62 136 126h-71z" />
    <glyph glyph-name="tilde" unicode="&#x2dc;" horiz-adv-x="530" 
d="M45 676l41 -43q11 -13 25 1q32 39 72 39q23 0 43 -9t32.5 -19.5t33.5 -19.5t46 -9q19 0 38 5.5t34 13.5t29 18.5t22.5 19l16 16l7.5 7.5q10 12 -1 25l-37 45q-12 12 -26 0q-39 -39 -84 -39q-23 0 -47.5 14.5t-51.5 29t-56 14.5q-27 0 -53 -11.5t-44.5 -29t-26.5 -26.5
t-14 -17q-11 -13 1 -25z" />
    <glyph glyph-name="hungarumlaut" unicode="&#x2dd;" horiz-adv-x="411" 
d="M60 660q-8 0 -14 6t-6 13l2 147q0 8 5.5 14t13.5 6h88q9 0 15 -6t5 -14l-31 -147q-4 -19 -19 -19h-59zM262 660q-8 0 -14 6t-6 13l3 147q0 8 5.5 14t13.5 6h87q9 0 15 -6t5 -14l-31 -147q-2 -19 -19 -19h-59z" />
    <glyph glyph-name="uni0326" unicode="&#x326;" horiz-adv-x="0" 
d="M-75 -204q10 -63 -8 -128q-11 -39 -38 -72.5t-58 -52.5q-13 -7 -21 2l-18 22q-5 7 0 12q36 29 57 62.5t18 82.5v2q-11 -3 -24 -3q-32 0 -55.5 23.5t-23.5 54.5q0 33 23.5 56t55.5 23q39 0 63 -27q24 -23 29 -57z" />
    <glyph glyph-name="Delta" unicode="&#x394;" horiz-adv-x="854" 
d="M813 21q6 -21 -14 -21h-743q-10 0 -14 6t0 16l366 773q4 10 16 10h8q11 0 15 -10zM250 148h354l-176 397z" />
    <glyph glyph-name="Omega" unicode="&#x3a9;" horiz-adv-x="865" 
d="M24 115v-94q0 -9 6 -15t14 -6h309q9 0 14.5 6t5.5 15v57q0 14 -4 22.5t-7.5 10.5l-16.5 9q-82 39 -132 116.5t-50 162.5q0 111 79.5 191t190.5 80q109 0 189 -80.5t80 -190.5q0 -85 -50.5 -162.5t-133.5 -116.5q-1 -1 -5 -3t-5 -3t-4 -3t-4 -3t-3 -3.5t-2.5 -4.5
t-1.5 -5.5t-1 -7.5v-9v-57q0 -9 5 -15t13 -6h312q8 0 13.5 6t5.5 15v94q0 8 -6 14t-13 6h-114q58 36 97.5 114.5t39.5 159.5q0 112 -55 205t-149.5 145.5t-207.5 52.5q-114 0 -208.5 -53t-149.5 -145.5t-55 -204.5q0 -82 38.5 -160t95.5 -114h-110q-8 0 -14 -6t-6 -14z" />
    <glyph glyph-name="mu" unicode="&#x3bc;" horiz-adv-x="612" 
d="M553 500q8 0 13.5 -5.5t5.5 -13.5v-261q0 -103 -56 -168t-157 -65q-80 -3 -150 46v-214q0 -8 -6 -13.5t-14 -5.5h-100q-7 0 -13 6t-6 13v662q0 8 6 13.5t13 5.5h100q8 0 14 -5.5t6 -13.5v-286q18 -35 47 -56t59 -23.5t57 7t44 35.5t17 62v261q0 8 6 13.5t14 5.5h100z" />
    <glyph glyph-name="pi" unicode="&#x3c0;" horiz-adv-x="720" 
d="M660 501q8 0 14 -5.5t6 -13.5v-84q0 -9 -6 -15t-14 -6h-62v-176q0 -58 48 -85q17 -9 9 -25l-47 -91q-8 -15 -26 -8q-55 29 -88 81.5t-35 116.5h-1v10v1v1l1 175h-183v-357q0 -8 -6 -14t-14 -6h-100q-9 0 -14.5 6t-5.5 14v357h-77q-8 0 -13.5 5.5t-5.5 14.5v84q0 8 6 14
t13 6h601z" />
    <glyph glyph-name="uni0401" unicode="&#x401;" horiz-adv-x="666" 
d="M206 910q-30 0 -51 22t-21 52q0 31 21 53t51 22q32 0 54 -22t22 -53q0 -30 -22 -52t-54 -22zM475 910q-31 0 -53 22t-22 52q0 31 22 53t53 22q30 0 51.5 -22t21.5 -53q0 -30 -21.5 -52t-51.5 -22zM582 662h-364v-201h196q8 0 14 -6t6 -14v-99q0 -19 -20 -19h-196v-185
h364q8 0 14 -6t6 -14v-98q0 -8 -6 -14t-14 -6h-487q-8 0 -14 6t-6 14v761q0 8 5.5 13.5t13.5 5.5h488q8 0 14 -5.5t6 -13.5v-100q0 -8 -6 -13.5t-14 -5.5z" />
    <glyph glyph-name="uni0403" unicode="&#x403;" horiz-adv-x="655" 
d="M221 852l-24 43q-4 8 -2 14t7 9l195 131q6 6 15.5 5.5t13.5 -7.5l37 -61q5 -10 3 -18.5t-9 -12.5l-209 -109q-20 -9 -27 6zM554 800q20 0 33 -13.5t13 -35.5v-85q0 -7 -7.5 -10.5t-17.5 -1.5q-31 7 -62 8h-315l1 -642q0 -8 -6 -14t-14 -6h-104q-8 0 -14 6t-6 14v761
q0 8 5.5 13.5t13.5 5.5h480z" />
    <glyph glyph-name="uni0404" unicode="&#x404;" horiz-adv-x="803" 
d="M747 150q16 -12 1 -27q-56 -62 -133 -96t-166 -34q-109 0 -201.5 53t-147.5 146.5t-55 205.5q0 111 55 205.5t148 149t201 54.5q89 0 167 -34.5t135 -97.5q14 -14 -1 -27l-83 -67q-15 -12 -27 2q-36 37 -85 61.5t-105 24.5q-90 0 -159.5 -56.5t-93.5 -143.5h320
q9 0 14.5 -5.5t5.5 -14.5v-98q0 -8 -6 -13.5t-14 -5.5h-321q21 -87 91.5 -144t162.5 -57q56 0 104 23.5t83 59.5q13 13 28 3z" />
    <glyph glyph-name="uni0406" unicode="&#x406;" horiz-adv-x="298" 
d="M198 800h-99q-8 0 -13.5 -5.5t-5.5 -13.5v-761q0 -8 6 -14t14 -6h99q7 0 13 6t6 14v761q0 7 -6 13t-14 6z" />
    <glyph glyph-name="uni0407" unicode="&#x407;" horiz-adv-x="298" 
d="M15 909q-30 0 -51 22t-21 52q0 31 21 53t51 22q32 0 54 -22t22 -53q0 -30 -22 -52t-54 -22zM284 909q-31 0 -53 22t-22 52q0 31 22 53t53 22q30 0 51.5 -22t21.5 -53q0 -30 -21.5 -52t-51.5 -22zM198 800h-99q-8 0 -13.5 -5.5t-5.5 -13.5v-761q0 -8 6 -14t14 -6h99
q7 0 13 6t6 14v761q0 7 -6 13t-14 6z" />
    <glyph glyph-name="uni0408" unicode="&#x408;" horiz-adv-x="314" 
d="M184 800q23 0 36.5 -14.5t13.5 -36.5v-834q-1 -72 -36 -130t-94 -90q-18 -9 -27 7l-49 94q-8 17 10 26q53 30 53 94v798q-1 17 -8 61q-2 10 1 17.5t11 7.5h89z" />
    <glyph glyph-name="uni040C" unicode="&#x40c;" horiz-adv-x="705" 
d="M245 846l-24 43q-4 8 -2 14t7 9l195 131q6 6 15.5 5.5t13.5 -7.5l37 -61q5 -10 3 -18.5t-9 -12.5l-209 -109q-20 -9 -27 6zM684 47q13 -16 7 -31.5t-26 -15.5h-108q-15 0 -24 10l-341 392v-383q0 -7 -6 -13t-13 -6h-104q-8 0 -14 5.5t-6 13.5v694q-1 31 -8 62
q-2 10 1.5 17.5t11.5 7.5h88q22 0 36 -13t14 -33v-315l299 350q10 11 25 11h108q18 0 24.5 -15t-4.5 -28l-289 -337z" />
    <glyph glyph-name="uni040D" unicode="&#x40d;" horiz-adv-x="845" 
d="M296 949l208 -109q21 -10 28 6l24 43q4 8 2 14t-7 9l-195 131q-7 6 -16 5.5t-14 -7.5l-36 -61q-6 -10 -4 -18.5t10 -12.5zM95 800h103q9 0 14 -5.5t5 -13.5v-508l448 512q12 15 27 15h59q7 0 13 -6t6 -13v-761q0 -8 -6 -14t-14 -6l-103 1q-8 0 -14 6t-6 13v496l-408 -457
q-53 -59 -92 -59h-33q-8 0 -13.5 5.5t-5.5 13.5v762q0 8 6 13.5t14 5.5z" />
    <glyph glyph-name="uni040E" unicode="&#x40e;" horiz-adv-x="700" 
d="M167 1013q10 -67 61 -111t123 -44q71 0 122 44t61 111q1 12 -5 20t-17 8h-49q-7 0 -13.5 -5t-8.5 -13q-10 -31 -35 -52t-55 -21q-34 0 -59 19.5t-35 53.5q-2 7 -7.5 12.5t-13.5 5.5h-46q-13 0 -19 -8t-4 -20zM668 800q11 0 15.5 -7t-0.5 -17l-257 -493
q-32 -61 -65 -112.5t-65 -88.5t-50 -56t-42 -41q-7 -6 -16.5 -4.5t-16.5 9.5l-56 66q-15 19 3 37l13.5 13.5l15 15l14 14.5t15.5 16.5l14.5 16t16 19t15.5 20t17 23l16 24l18 27.5l-255 494q-5 10 -1 17t14 7h113q15 0 23 -15l183 -359l184 359q8 15 23 15h111z" />
    <glyph glyph-name="uni0410" unicode="&#x410;" horiz-adv-x="879" 
d="M836 22q5 -9 1.5 -15.5t-13.5 -6.5h-117q-13 0 -20 13l-54 114h-385l-54 -114q-6 -13 -20 -13h-118q-9 0 -13 6.5t0 15.5l377 773q6 10 14 10h12q8 0 14 -10zM309 257h263l-131 279z" />
    <glyph glyph-name="uni0411" unicode="&#x411;" horiz-adv-x="684" 
d="M367 479q112 0 187.5 -72.5t75.5 -175.5q0 -99 -70 -165t-160 -66h-325q-8 0 -14 6t-6 14v761q0 8 5.5 13.5t13.5 5.5h481q20 0 32.5 -13.5t12.5 -35.5v-85q0 -7 -7.5 -10.5t-17.5 -1.5q-31 7 -62 8h-315v-183h169zM364 138q56 0 88.5 31.5t32.5 70t-32 70t-89 31.5h-166
v-203h166z" />
    <glyph glyph-name="uni0412" unicode="&#x412;" horiz-adv-x="692" 
d="M514 434q57 -34 90 -87.5t33 -117.5q0 -98 -72 -163.5t-162 -65.5h-328q-8 0 -14 6t-6 14v761q0 8 5.5 13.5t13.5 5.5h294q60 0 113 -34.5t82 -83.5t29 -96q0 -92 -78 -152zM343 474q47 0 73.5 29.5t26.5 64.5t-26.5 64.5t-73.5 29.5h-145v-188h145zM367 138
q33 0 58.5 11t39 29t20 39.5t0 43t-20 39.5t-39.5 29t-59 11h-168v-202h169z" />
    <glyph glyph-name="uni0413" unicode="&#x413;" horiz-adv-x="655" 
d="M554 800q20 0 33 -13.5t13 -35.5v-85q0 -7 -7.5 -10.5t-17.5 -1.5q-31 7 -62 8h-315l1 -642q0 -8 -6 -14t-14 -6h-104q-8 0 -14 6t-6 14v761q0 8 5.5 13.5t13.5 5.5h480z" />
    <glyph glyph-name="uni0414" unicode="&#x414;" horiz-adv-x="805" 
d="M745 139q9 0 14.5 -6t5.5 -14v-194q0 -19 -20 -19h-101q-17 0 -17 19v75h-448v-75q0 -19 -18 -19h-101q-8 0 -14 5.5t-6 13.5v194q0 8 6 14t14 6h54q42 112 57.5 269t15.5 371v1q0 20 20 20h462q20 0 20 -20v-641h56zM325 661q0 -105 -3 -178t-18 -172t-43 -172h289v522
h-225z" />
    <glyph glyph-name="uni0415" unicode="&#x415;" horiz-adv-x="666" 
d="M582 662h-364v-201h196q8 0 14 -6t6 -14v-99q0 -19 -20 -19h-196v-185h364q8 0 14 -6t6 -14v-98q0 -8 -6 -14t-14 -6h-487q-8 0 -14 6t-6 14v761q0 8 5.5 13.5t13.5 5.5h488q8 0 14 -5.5t6 -13.5v-100q0 -8 -6 -13.5t-14 -5.5z" />
    <glyph glyph-name="uni0416" unicode="&#x416;" horiz-adv-x="1234" 
d="M1190 47q13 -16 7 -31.5t-26 -15.5h-108q-15 0 -24 10l-351 391v-382q0 -8 -5.5 -13.5t-13.5 -5.5h-104q-8 0 -13.5 5.5t-5.5 13.5v392l-351 -401q-9 -10 -23 -10h-108q-20 0 -26.5 15.5t7.5 31.5l338 382l-289 328q-12 13 -5 28t25 15h108q16 0 24 -11l300 -342v266
q-1 26 -9 62q-2 10 1.5 17.5t11.5 7.5h89q22 0 35.5 -13t13.5 -33v-316l300 351q10 11 24 11h109q18 0 24 -15t-5 -28l-289 -338z" />
    <glyph glyph-name="uni0417" unicode="&#x417;" horiz-adv-x="656" 
d="M485 411q126 -82 126 -191q0 -96 -84.5 -162t-205.5 -66q-88 0 -151.5 32.5t-117.5 99.5q-14 15 1 27l72 65q14 11 29 -2q68 -83 169 -83q60 0 101.5 27t41.5 72q0 52 -55 86.5t-134 34.5v120q77 0 127 31t50 76q0 41 -37.5 66t-93.5 25q-89 0 -160 -84q-14 -14 -28 -2
l-72 66q-14 10 -1 27q54 66 116 98.5t143 32.5q120 0 199.5 -65t79.5 -154q0 -101 -115 -177z" />
    <glyph glyph-name="uni0418" unicode="&#x418;" horiz-adv-x="845" 
d="M95 800h103q9 0 14 -5.5t5 -13.5v-508l448 512q12 15 27 15h59q7 0 13 -6t6 -13v-761q0 -8 -6 -14t-14 -6l-103 1q-8 0 -14 6t-6 13v496l-408 -457q-53 -59 -92 -59h-33q-8 0 -13.5 5.5t-5.5 13.5v762q0 8 6 13.5t14 5.5z" />
    <glyph glyph-name="uni0419" unicode="&#x419;" horiz-adv-x="845" 
d="M244 955q10 -67 61 -111t123 -44q71 0 122 44t61 111q1 12 -5 20t-17 8h-48q-17 0 -22 -18q-10 -31 -35.5 -52t-55.5 -21q-35 0 -60 19.5t-34 53.5q-2 7 -7.5 12.5t-13.5 5.5h-46q-13 0 -19 -8t-4 -20zM95 800h103q9 0 14 -5.5t5 -13.5v-508l448 512q12 15 27 15h59
q7 0 13 -5.5t6 -13.5v-761q0 -8 -6 -14t-14 -6l-103 1q-8 0 -14 6t-6 13v496l-408 -457q-53 -59 -92 -59h-33q-8 0 -13.5 5.5t-5.5 13.5v762q0 8 6 13.5t14 5.5z" />
    <glyph glyph-name="uni041A" unicode="&#x41a;" horiz-adv-x="705" 
d="M684 47q13 -16 7 -31.5t-26 -15.5h-108q-15 0 -24 10l-341 392v-383q0 -7 -5.5 -13t-13.5 -6h-104q-8 0 -14 5.5t-6 13.5v694q-1 31 -8 62q-2 10 1.5 17.5t11.5 7.5h88q22 0 36 -13t14 -33v-315l299 350q10 11 25 11h108q18 0 24.5 -15t-4.5 -28l-289 -337z" />
    <glyph glyph-name="uni041B" unicode="&#x41b;" horiz-adv-x="772" 
d="M692 800q20 0 20 -20v-761q0 -19 -19 -19h-100q-19 0 -19 19v642h-294v-442q0 -49 -13 -88.5t-34 -64.5t-47.5 -41.5t-52 -23.5t-50.5 -7q-34 0 -46 5t-12 17v91q0 11 7.5 18.5t22.5 7.5q38 0 62 20.5t24 65.5v561q0 20 20 20h531z" />
    <glyph glyph-name="uni041C" unicode="&#x41c;" horiz-adv-x="1066" 
d="M971 800q8 0 14 -5.5t6 -13.5v-761q0 -8 -5.5 -14t-13.5 -6h-103q-9 0 -14.5 6t-5.5 14v485l-292 -462q-8 -14 -21 -14h-6q-13 0 -21 14l-291 463v-486q0 -8 -6 -14t-14 -6h-103q-8 0 -14 6t-6 14v761q0 8 5.5 13.5t14.5 5.5h86q14 0 23 -13l329 -520l330 520q7 13 23 13
h85z" />
    <glyph glyph-name="uni041D" unicode="&#x41d;" horiz-adv-x="821" 
d="M726 800q8 0 14 -5.5t6 -13.5v-761q0 -9 -5 -14.5t-13 -5.5h-76q-23 0 -36.5 14.5t-13.5 36.5v268h-384v-299q0 -8 -5.5 -14t-13.5 -6h-104q-8 0 -14 6t-6 14v761q0 8 5.5 13.5t13.5 5.5h104q8 0 14 -5.5t6 -13.5v-318h384v318q0 8 5.5 13.5t14.5 5.5h104z" />
    <glyph glyph-name="uni041E" unicode="&#x41e;" horiz-adv-x="936" 
d="M469 -7q110 0 204 54t148.5 148t54.5 206q0 111 -54.5 204.5t-148.5 147.5t-204 54q-111 0 -205.5 -54t-149 -147.5t-54.5 -204.5q0 -112 55 -206t149 -148t205 -54zM469 131q-108 0 -187 80t-79 190q0 109 79 188.5t187 79.5t186.5 -79.5t78.5 -188.5q0 -110 -78.5 -190
t-186.5 -80z" />
    <glyph glyph-name="uni041F" unicode="&#x41f;" horiz-adv-x="785" 
d="M714 781l1 -761q0 -8 -6 -14t-14 -6h-100q-9 0 -14.5 6t-5.5 14v638h-366l1 -638q0 -8 -6 -14t-14 -6h-100q-8 0 -14 6t-6 14v761q0 8 5.5 13.5t13.5 5.5h605q8 0 14 -5.5t6 -13.5z" />
    <glyph glyph-name="uni0420" unicode="&#x420;" horiz-adv-x="695" 
d="M390 800q60 0 112.5 -25.5t87.5 -65t55 -87.5t20 -95q0 -50 -20 -99t-55 -88t-87.5 -63.5t-112.5 -24.5h-177v-232q0 -9 -5.5 -14.5t-13.5 -5.5h-106q-8 0 -13 5.5t-5 14.5v761q0 8 5.5 13.5t13.5 5.5h301zM375 390q67 0 107 41t40 96q0 54 -40 94.5t-107 40.5h-162v-272
h162z" />
    <glyph glyph-name="uni0421" unicode="&#x421;" horiz-adv-x="803" 
d="M747 150q16 -12 1 -27q-56 -62 -133 -96t-166 -34q-109 0 -201.5 53t-147.5 146.5t-55 205.5q0 111 55 205.5t148 149t201 54.5q89 0 167 -34.5t135 -97.5q14 -14 -1 -27l-83 -67q-15 -12 -27 2q-36 37 -85 61.5t-105 24.5q-109 0 -185.5 -81t-76.5 -190
q0 -110 76 -188.5t186 -78.5q56 0 104 23.5t83 59.5q13 13 28 3z" />
    <glyph glyph-name="uni0422" unicode="&#x422;" horiz-adv-x="723" 
d="M659 800q8 0 13.5 -5.5t5.5 -13.5v-100q0 -8 -6 -13.5t-13 -5.5h-226v-642q0 -9 -5.5 -14.5t-13.5 -5.5h-74q-23 0 -36.5 14.5t-13.5 36.5v611h-225q-8 0 -14 5.5t-6 13.5v99q0 8 6 14t14 6h594z" />
    <glyph glyph-name="uni0423" unicode="&#x423;" horiz-adv-x="700" 
d="M668 800q11 0 15.5 -7t-0.5 -17l-257 -493q-32 -61 -65 -112.5t-65 -88.5t-50 -56t-42 -41q-7 -6 -16.5 -4.5t-16.5 9.5l-56 66q-15 19 3 37l13.5 13.5l15 15l14 14.5l15.5 16t14.5 16t16 19.5t15.5 20t17 23l16 24l18 27.5l-255 494q-5 10 -1 17t14 7h113q15 0 23 -15
l183 -359l184 359q8 15 23 15h111z" />
    <glyph glyph-name="uni0424" unicode="&#x424;" horiz-adv-x="895" 
d="M529 700q71 0 131 -27t98.5 -70t60 -95.5t21.5 -105.5q0 -59 -21.5 -113t-60 -96t-98 -66.5t-131.5 -24.5h-12v-88q0 -6 -4.5 -10.5t-9.5 -4.5h-106q-14 0 -14 15v88h-12q-72 0 -131.5 24.5t-98.5 66.5t-60 96t-21 113q0 53 21 105.5t59.5 95.5t99 70t131.5 27h12v87
q0 14 14 14h106q5 0 9 -4.5t5 -9.5v-87h12zM371 234h12v333h-12q-79 0 -122.5 -48t-43.5 -115q0 -68 44.5 -119t121.5 -51zM528 234q77 0 121.5 51t44.5 119q0 67 -43.5 115t-122.5 48h-11v-333h11z" />
    <glyph glyph-name="uni0425" unicode="&#x425;" horiz-adv-x="758" 
d="M724 20q4 -7 1 -13.5t-11 -6.5h-140q-3 0 -5.5 1t-5 3.5l-4 4t-4 5.5t-3.5 6l-174 255l-174 -255q-1 -2 -3.5 -6t-4 -5.5l-4 -4t-5 -3.5t-5.5 -1h-140q-8 0 -11 6.5t1 13.5l260 381l-259 380q-5 7 -2 13t11 6h141q9 0 19 -16q1 -2 2 -3l174 -255l174 255q1 1 2 3
q10 16 19 16h141q8 0 11 -6t-2 -13l-259 -380z" />
    <glyph glyph-name="uni0426" unicode="&#x426;" horiz-adv-x="782" 
d="M751 -63q2 -10 -1.5 -17.5t-10.5 -7.5h-89q-22 0 -36 12.5t-14 32.5v43h-459h-81q-8 0 -13.5 5.5t-5.5 13.5l-1 762q0 8 6 14t13 6h101q8 0 14 -6t6 -14v-639h345v639q0 8 5.5 14t13.5 6h100q9 0 15 -6t6 -14v-639h58q20 0 20 -19v-124q1 -31 8 -62z" />
    <glyph glyph-name="uni0427" unicode="&#x427;" horiz-adv-x="664" 
d="M613 26q2 -10 -1 -17.5t-11 -7.5h-89q-22 0 -35 12.5t-15 33.5v312q-80 -46 -165 -46q-108 0 -180 53.5t-73 140.5v207q-1 31 -8 62q-2 10 1.5 17.5t11.5 7.5h88q23 0 36.5 -14.5t13.5 -36.5v-220q0 -43 33.5 -65.5t83.5 -22.5q40 0 82 16t77 43v281q0 8 5.5 13.5
t13.5 5.5h104q8 0 13.5 -5.5t5.5 -13.5v-694q1 -18 8 -62z" />
    <glyph glyph-name="uni0428" unicode="&#x428;" horiz-adv-x="1169" 
d="M1099 800q9 0 14.5 -6t5.5 -14v-761q0 -8 -5 -13.5t-14 -5.5h-1030q-8 0 -13.5 5.5t-5.5 13.5l-1 761q0 8 6 14t13 6h101q8 0 14 -6t6 -14v-638h326l-1 638q0 8 5.5 14t13.5 6h100q9 0 15 -6t6 -14v-638h325v638q0 8 5.5 14t13.5 6h100z" />
    <glyph glyph-name="uni0429" unicode="&#x429;" horiz-adv-x="1237" 
d="M1206 -63q2 -10 -1.5 -17.5t-11.5 -7.5h-88q-22 0 -36 12.5t-14 32.5v43h-985q-8 0 -13.5 5.5t-5.5 13.5l-1 761q0 8 6 14t13 6h101q8 0 14 -6t6 -14v-638h326l-1 638q0 8 5.5 14t13.5 6h100q9 0 15 -6t6 -14v-638h325v639q0 8 5.5 14t13.5 6h100q9 0 14.5 -6t5.5 -14
v-639h59q20 0 20 -19v-124q1 -31 8 -62z" />
    <glyph glyph-name="uni042A" unicode="&#x42a;" horiz-adv-x="802" 
d="M488 478q112 0 187.5 -72t75.5 -175q0 -99 -70 -165t-160 -66h-325q-8 0 -14 6t-6 14v638h-74q-26 -1 -62 -9q-10 -2 -17.5 1.5t-7.5 11.5v89q0 22 13 35.5t33 13.5h235q7 0 13 -6t6 -13v-303h173zM485 138q38 0 66 15t41 38t13 49t-12.5 49t-41 38t-66.5 15h-170l1 -204
h169z" />
    <glyph glyph-name="uni042B" unicode="&#x42b;" horiz-adv-x="936" 
d="M362 478q112 0 187.5 -72t75.5 -175q0 -99 -70.5 -165t-159.5 -66h-325q-8 0 -14 6t-6 14v761q0 8 5.5 13.5t13.5 5.5h100q8 0 14 -5.5t6 -13.5v-303h173zM855 781l1 -761q0 -8 -6 -14t-13 -6h-101q-8 0 -14 6t-6 14v761q0 8 5.5 13.5t13.5 5.5h101q8 0 13.5 -6t5.5 -13z
M358 138q38 0 66.5 15t41 38t13 49t-12.5 49t-41 38t-67 15h-169l1 -204h168z" />
    <glyph glyph-name="uni042C" unicode="&#x42c;" horiz-adv-x="685" 
d="M371 478q113 0 188 -72t75 -175q0 -99 -70 -165t-160 -66h-324q-9 0 -15 6t-6 14v761q0 8 5.5 13.5t14.5 5.5h100q8 0 13.5 -5.5t5.5 -13.5v-303h173zM368 138q38 0 66 15t41 38t13 49t-12.5 49t-41 38t-66.5 15h-169v-204h169z" />
    <glyph glyph-name="uni042D" unicode="&#x42d;" horiz-adv-x="803" 
d="M353 807q108 0 201 -54.5t148 -149t55 -205.5q0 -112 -55 -205.5t-147.5 -146.5t-201.5 -53q-89 0 -166 34t-133 96q-14 14 1 27l83 67q14 10 27 -3q35 -36 83.5 -59.5t103.5 -23.5q92 0 162.5 56.5t92.5 144.5h-322q-8 0 -14 5.5t-6 13.5v98q0 9 6 14.5t14 5.5h320
q-23 86 -93 143t-160 57q-55 0 -104.5 -24.5t-84.5 -61.5q-14 -14 -27 -2l-83 67q-16 13 -2 27q57 62 135 97t167 35z" />
    <glyph glyph-name="uni042E" unicode="&#x42e;" horiz-adv-x="1230" 
d="M763 807q110 0 204 -54t148.5 -147.5t54.5 -204.5q0 -112 -54.5 -206t-148.5 -148t-204 -54q-151 0 -264.5 96.5t-138.5 242.5h-142v-312q0 -8 -6 -14t-13 -6h-99q-8 0 -14 6t-6 14v761q0 8 5.5 13.5t13.5 5.5h99q8 0 14 -6t6 -13v-312h142q24 146 138 242t265 96z
M763 131q108 0 186.5 80t78.5 190q0 109 -78.5 188.5t-186.5 79.5t-187.5 -79.5t-79.5 -188.5t79.5 -189.5t187.5 -80.5z" />
    <glyph glyph-name="uni042F" unicode="&#x42f;" horiz-adv-x="726" 
d="M647 800q9 0 14 -5.5t5 -13.5v-761q0 -20 -18 -20h-107q-18 0 -18 20v232h-168l-137 -211q-27 -41 -62 -41h-93q-11 0 -15.5 7t2.5 16l170 253q-72 33 -114 103.5t-42 146.5q0 46 18.5 94t51.5 88.5t83.5 66t109.5 25.5h320zM348 391h175v270h-175q-66 0 -103 -39
t-38 -93q-1 -56 36.5 -97t104.5 -41z" />
    <glyph glyph-name="uni0430" unicode="&#x430;" horiz-adv-x="559" 
d="M499 25q-19 122 -12 281q4 90 -45 142.5t-140 52.5q-58 0 -117 -14.5t-98 -35.5q-20 -12 -13 -27l32 -76q8 -17 28 -9q95 41 158 41q32 0 47.5 -10t14.5 -37q-41 -7 -68.5 -12.5t-63 -15t-58.5 -19t-48 -24.5t-39 -32t-23 -41t-9 -53q0 -67 45 -104t123 -37q97 0 154 55
q12 -50 44 -50h75q8 0 11.5 7.5t1.5 17.5zM238 103q-52 0 -52 35q0 11 6.5 20.5t21 17t28 13.5t36.5 12t36.5 9l37.5 8q-2 -40 0 -75q-22 -18 -54 -29t-60 -11z" />
    <glyph glyph-name="uni0431" unicode="&#x431;" horiz-adv-x="624" 
d="M325 502q106 0 181 -73.5t75 -181.5q0 -107 -75 -180.5t-181 -73.5q-73 0 -133.5 36t-93.5 98q-29 45 -41 105.5t-12 155.5q0 59 10.5 115.5t35.5 110.5t61.5 95t93 66t125.5 25h69q11 0 62 8q8 2 16.5 -1t8.5 -11v-80q0 -22 -13 -35.5t-33 -13.5h-110q-163 0 -194 -211
q67 46 148 46zM325 121q52 0 87.5 37t35.5 88q0 52 -35 89.5t-88 37.5t-88 -37.5t-35 -89.5q0 -51 35.5 -88t87.5 -37z" />
    <glyph glyph-name="uni0432" unicode="&#x432;" horiz-adv-x="579" 
d="M415 270q50 -13 80 -50t30 -82q0 -58 -51 -98t-125 -40h-279q-6 0 -10.5 4.5t-4.5 9.5v467q0 14 15 14h253q81 0 127.5 -34t46.5 -88q0 -36 -23 -65t-59 -38zM299 301q29 0 45.5 13t16.5 30q0 16 -16.5 29t-45.5 13h-106v-85h106zM309 109q32 0 50.5 14.5t18.5 32.5
q0 19 -19 34.5t-51 15.5h-115v-97h116z" />
    <glyph glyph-name="uni0433" unicode="&#x433;" horiz-adv-x="514" 
d="M414 495q20 0 33 -13.5t13 -35.5v-80q0 -8 -7.5 -11.5t-17.5 -1.5q-39 8 -62 9h-180v-342q0 -8 -5.5 -14t-13.5 -6h-99q-9 0 -14.5 6t-5.5 14v456q0 8 5 13.5t14 5.5h340z" />
    <glyph glyph-name="uni0434" unicode="&#x434;" horiz-adv-x="707" 
d="M652 133q9 0 14.5 -5.5t5.5 -14.5v-178q0 -8 -5.5 -13.5t-14.5 -5.5h-100q-18 0 -18 19v65h-361v-65q0 -19 -17 -19h-101q-8 0 -14 5.5t-6 13.5v178q0 9 6 14.5t14 5.5h69q58 102 58 341v1q0 20 20 20h374q20 0 20 -20v-342h56zM318 362q0 -138 -54 -229h195v229h-141z
" />
    <glyph glyph-name="uni0435" unicode="&#x435;" horiz-adv-x="560" 
d="M451 201q34 0 53.5 18.5t19.5 53.5q0 92 -66.5 160.5t-173.5 68.5q-105 0 -177 -73t-72 -181q0 -112 74 -182.5t181 -70.5q138 0 201 89q9 11 -3 26l-23 32q-11 15 -31 5q-56 -31 -128 -31q-47 0 -82 22.5t-44 62.5h271zM181 307q4 26 32 47.5t68 21.5q41 0 68 -21
t31 -48h-199z" />
    <glyph glyph-name="uni0436" unicode="&#x436;" horiz-adv-x="949" 
d="M906 35q10 -10 5 -22.5t-19 -12.5h-118q-9 0 -16 8l-215 212v-201q0 -7 -5.5 -13t-13.5 -6h-100q-7 0 -13 6t-6 13v204l-219 -215q-5 -8 -16 -8h-113q-14 0 -19.5 12.5t5.5 22.5l239 218l-220 210q-10 9 -4.5 20.5t19.5 11.5h101q22 0 27 -8l200 -202v123q0 14 -8 62
q-2 10 1 17.5t11 7.5h84q22 0 36 -13t14 -33v-162l196 200q5 8 27 8h106q14 0 19.5 -11.5t-4.5 -20.5l-220 -210z" />
    <glyph glyph-name="uni0437" unicode="&#x437;" horiz-adv-x="503" 
d="M365 257q43 -15 67.5 -47t24.5 -71q0 -61 -62 -102.5t-144 -41.5q-128 0 -202 92q-9 9 1 19l55 60q4 5 11.5 4.5t12.5 -6.5q18 -21 50.5 -35.5t71.5 -14.5q28 0 49 12t21 35q0 47 -95 53v86q91 6 91 44q0 16 -21 28.5t-45 12.5q-36 0 -67.5 -14.5t-50.5 -35.5
q-5 -6 -12.5 -6.5t-11.5 4.5l-55 60q-10 10 -2 19q76 92 199 92q80 0 141 -39.5t61 -96.5q0 -36 -23 -66.5t-65 -44.5z" />
    <glyph glyph-name="uni0438" unicode="&#x438;" horiz-adv-x="629" 
d="M549 495q7 0 11 -4.5t4 -10.5v-466q0 -6 -4 -10t-11 -4l-108 1q-6 0 -10.5 4t-4.5 9v262l-278 -266q-8 -10 -20 -10h-48q-7 0 -11 4t-4 10v466q0 6 5 10.5t10 4.5h108q14 0 14 -15v-262l277 266q13 11 18 11h52z" />
    <glyph glyph-name="uni0439" unicode="&#x439;" horiz-adv-x="629" 
d="M127 768q10 -67 61 -111t123 -44q71 0 122 44t61 111q1 12 -5 20t-17 8h-49q-7 0 -13.5 -5t-8.5 -13q-10 -31 -35 -52t-55 -21q-34 0 -59 19.5t-35 53.5q-2 7 -7.5 12.5t-13.5 5.5h-46q-13 0 -19 -8t-4 -20zM549 495q7 0 11 -4.5t4 -10.5v-466q0 -6 -4.5 -10t-10.5 -4
l-108 1q-6 0 -10.5 4t-4.5 9v262l-278 -266q-8 -10 -20 -10h-48q-7 0 -11 4t-4 10v466q0 6 5 10.5t10 4.5h108q14 0 14 -15v-262l277 266q13 11 18 11h52z" />
    <glyph glyph-name="uni043A" unicode="&#x43a;" horiz-adv-x="598" 
d="M555 35q11 -10 5.5 -22.5t-19.5 -12.5h-117q-11 0 -16 8l-216 213v-202q0 -8 -5.5 -13.5t-13.5 -5.5h-99q-8 0 -14 5.5t-6 13.5v389q0 26 -8 62q-2 10 1.5 17.5t11.5 7.5h84q22 0 35.5 -13t13.5 -33v-162l196 200q7 8 28 8h106q13 0 18.5 -11.5t-3.5 -20.5l-220 -210z
" />
    <glyph glyph-name="uni043B" unicode="&#x43b;" horiz-adv-x="609" 
d="M539 495q20 0 20 -20v-456q0 -19 -19 -19h-100q-19 0 -19 19v343h-191v-175q0 -81 -48.5 -135.5t-136.5 -55.5q-20 0 -20 18v94q0 18 18 20q23 1 36 17t13 42v288q0 20 20 20h427z" />
    <glyph glyph-name="uni043C" unicode="&#x43c;" horiz-adv-x="801" 
d="M721 495q5 0 10 -4.5t5 -10.5v-464q0 -6 -4.5 -11t-9.5 -5h-107q-7 0 -12 5t-5 11v264l-181 -266q-6 -11 -16 -11h-2q-11 0 -17 11l-179 258v-256q0 -6 -4.5 -11t-10.5 -5h-107q-7 0 -11.5 5t-4.5 11v464q0 6 4.5 10.5t9.5 4.5h110q10 0 18 -11l193 -276l188 276
q7 11 18 11h115z" />
    <glyph glyph-name="uni043D" unicode="&#x43d;" horiz-adv-x="625" 
d="M545 495q6 0 10.5 -5t4.5 -11v-464q0 -15 -15 -15h-107q-15 0 -15 15v166h-221v-166q0 -15 -15 -15h-108q-14 0 -14 15v464q0 6 4 11t10 5h107q7 0 11.5 -5t4.5 -11v-164h221v164q0 16 15 16h107z" />
    <glyph glyph-name="uni043E" unicode="&#x43e;" horiz-adv-x="590" 
d="M296 -7q106 0 181 73.5t75 180.5q0 108 -75 181.5t-181 73.5t-181 -73.5t-75 -181.5q0 -107 75 -180.5t181 -73.5zM296 121q-52 0 -87.5 37t-35.5 88q0 52 35 89.5t88 37.5t88 -37.5t35 -89.5q0 -51 -35.5 -88t-87.5 -37z" />
    <glyph glyph-name="uni043F" unicode="&#x43f;" horiz-adv-x="600" 
d="M540 20q0 -8 -5.5 -14t-13.5 -6h-100q-8 0 -14 6t-6 14v342h-203l1 -342q0 -8 -6 -14t-13 -6h-100q-8 0 -14 6t-6 14v456q0 8 5.5 13.5t13.5 5.5h441q8 0 13.5 -5.5t5.5 -13.5z" />
    <glyph glyph-name="uni0440" unicode="&#x440;" horiz-adv-x="610" 
d="M332 500q91 0 159.5 -68.5t68.5 -176.5q0 -112 -65 -186.5t-168 -74.5q-63 0 -117 33v-265q0 -24 -22.5 -40t-44.5 -16h-52q-8 0 -13.5 6t-5.5 13v673q0 16 -1.5 28t-5.5 27.5t-4 16.5q-2 10 1.5 17.5t11.5 7.5h87q35 0 46 -29q57 34 125 34zM305 121q51 0 85 35.5
t34 98.5q0 59 -34.5 88t-77.5 29q-51 0 -102 -31v-197q46 -23 95 -23z" />
    <glyph glyph-name="uni0441" unicode="&#x441;" horiz-adv-x="507" 
d="M462 82q11 -16 -2 -26q-72 -63 -162 -63q-105 0 -181.5 74t-76.5 179q0 106 77 181t181 75q92 0 161 -62q13 -11 2 -27l-48 -62q-11 -15 -29 -2q-31 24 -83 24q-54 0 -91 -36t-37 -90q0 -53 37.5 -89.5t90.5 -36.5q50 0 83 27q17 12 29 -4z" />
    <glyph glyph-name="uni0442" unicode="&#x442;" horiz-adv-x="554" 
d="M493 495q16 0 16 -14v-104q0 -6 -4.5 -10.5t-11.5 -4.5h-147v-347q0 -6 -4.5 -10.5t-9.5 -4.5h-108q-7 0 -11.5 4.5t-4.5 10.5v347h-148q-6 0 -10.5 4t-4.5 10v105q0 6 4.5 10t10.5 4h433z" />
    <glyph glyph-name="uni0443" unicode="&#x443;" 
d="M552 495q11 0 15.5 -6.5t-0.5 -16.5l-192 -394q-73 -151 -134 -247.5t-96 -129.5q-17 -13 -38 8l-55 55q-17 17 1 40q104 117 179 285l-204 383q-5 10 -0.5 16.5t14.5 6.5h110q15 0 23 -14l127 -259l119 259q8 14 23 14h108z" />
    <glyph glyph-name="uni0444" unicode="&#x444;" horiz-adv-x="932" 
d="M654 499q91 0 159.5 -68.5t68.5 -176.5q0 -112 -65 -186.5t-168 -74.5q-63 0 -117 33v-264q0 -24 -22.5 -40t-44.5 -16h-52q-8 0 -13.5 6t-5.5 13v300q-51 -32 -115 -32q-104 0 -169 74.5t-65 186.5q0 108 68.5 176.5t159.5 68.5q64 0 121 -31v229q0 17 -1.5 29
t-5.5 26.5t-4 16.5q-2 10 1.5 17.5t11.5 7.5h87q22 0 35.5 -13t13.5 -33v-281q55 32 122 32zM301 120q45 0 93 22v199q-50 30 -101 30q-43 0 -77.5 -29t-34.5 -88q0 -63 34 -98.5t86 -35.5zM627 120q51 0 85 36t34 98q0 59 -34 88t-78 29q-51 0 -102 -31v-197q46 -23 95 -23
z" />
    <glyph glyph-name="uni0445" unicode="&#x445;" horiz-adv-x="579" 
d="M525 31q6 -9 1 -20t-15 -11h-107q-11 0 -21 14l-94 142l-92 -142q-11 -14 -23 -14h-105q-11 0 -16 11t2 20l151 215l-152 218q-7 9 -2 20t16 11h106q14 0 23 -14l92 -145l94 145q10 14 22 14h107q10 0 15 -11t-1 -20l-154 -218z" />
    <glyph glyph-name="uni0446" unicode="&#x446;" horiz-adv-x="638" 
d="M605 -63q2 -10 -1.5 -17.5t-10.5 -7.5h-89q-22 0 -36 12.5t-14 32.5v43h-315h-79q-8 0 -13.5 5.5t-5.5 13.5l-1 456q0 8 6 14t13 6h99q8 0 14 -6t6 -14v-342h203v342q0 8 5.5 14t13.5 6h98q9 0 15 -6t6 -14v-342h58q20 0 20 -19v-115q1 -31 8 -62z" />
    <glyph glyph-name="uni0447" unicode="&#x447;" horiz-adv-x="622" 
d="M555 26q2 -10 -1.5 -17.5t-11.5 -7.5h-88q-21 0 -34 12.5t-15 33.5v119q-70 -43 -146 -43q-49 0 -95.5 23t-78 68.5t-31.5 101.5v92q0 26 -8 62q-2 10 1.5 17.5t11.5 7.5h88q23 0 36 -14.5t13 -36.5v-104q0 -39 33.5 -61t69.5 -22q52 0 106 49v170q0 8 5.5 13.5t13.5 5.5
h103q8 0 13.5 -5.5t5.5 -13.5v-388q1 -26 9 -62z" />
    <glyph glyph-name="uni0448" unicode="&#x448;" horiz-adv-x="918" 
d="M848 495q9 0 14.5 -6t5.5 -14v-456q0 -8 -5 -13.5t-14 -5.5h-779q-8 0 -13.5 5.5t-5.5 13.5l-1 456q0 8 6 14t13 6h100q8 0 14 -6t6 -14v-342h202l-1 342q0 8 5.5 14t13.5 6h99q9 0 15 -6t6 -14v-342h202l-1 342q0 8 5.5 14t13.5 6h99z" />
    <glyph glyph-name="uni0449" unicode="&#x449;" horiz-adv-x="997" 
d="M966 -63q2 -10 -1.5 -17.5t-11.5 -7.5h-89q-22 0 -35.5 12.5t-13.5 32.5v43h-735q-8 0 -13.5 5.5t-5.5 13.5l-1 456q0 8 6 14t13 6h100q8 0 14 -6t6 -14v-342h202l-1 342q0 8 5.5 14t13.5 6h99q9 0 15 -6t6 -14v-342h202l-1 342q0 8 5.5 14t13.5 6h99q9 0 14.5 -6
t5.5 -14v-342h60q20 0 20 -19v-115q0 -26 8 -62z" />
    <glyph glyph-name="uni044A" unicode="&#x44a;" horiz-adv-x="704" 
d="M455 399q75 0 136.5 -56.5t61.5 -142.5q0 -87 -61.5 -143.5t-136.5 -56.5h-266q-8 0 -14 6t-6 14v342h-67q-22 0 -62 -9q-10 -2 -17.5 1.5t-7.5 11.5v80q0 22 13 35.5t33 13.5h227q7 0 13 -5.5t7 -13.5v-77h147zM443 133q29 0 46 21t17 45.5t-16.5 45.5t-46.5 21h-135
v-133h135z" />
    <glyph glyph-name="uni044B" unicode="&#x44b;" horiz-adv-x="869" 
d="M336 399q75 0 136.5 -56.5t61.5 -142.5q0 -87 -61.5 -143.5t-136.5 -56.5h-266q-8 0 -14 6t-6 14v456q0 8 5.5 13.5t13.5 5.5h100q7 0 13 -5.5t7 -13.5v-77h147zM769 495q8 0 14 -6t6 -13v-456q0 -8 -6 -14t-13 -6h-99q-8 0 -14 6t-6 14v456q0 8 5.5 13.5t13.5 5.5h99z
M324 133q29 0 46 21t17 45.5t-16.5 45.5t-46.5 21h-135v-133h135z" />
    <glyph glyph-name="uni044C" unicode="&#x44c;" horiz-adv-x="599" 
d="M346 399q74 0 135.5 -56.5t61.5 -142.5q0 -87 -61 -143.5t-136 -56.5h-266q-9 0 -15 6t-6 14v456q0 8 5.5 13.5t14.5 5.5h99q8 0 13.5 -5.5t6.5 -13.5v-77h148zM334 133q39 0 55 33.5t0.5 66.5t-55.5 33h-136v-133h136z" />
    <glyph glyph-name="uni044D" unicode="&#x44d;" horiz-adv-x="518" 
d="M215 502q104 0 181 -75t77 -181q0 -105 -76.5 -179t-181.5 -74q-90 0 -162 63q-13 10 -2 26l49 62q12 16 29 4q33 -27 83 -27q38 0 68.5 19t46.5 51h-153q-8 0 -14 5.5t-6 13.5v72q0 9 6 14.5t14 5.5h154q-15 32 -46.5 51.5t-69.5 19.5q-52 0 -83 -24q-18 -13 -29 2
l-48 62q-11 16 2 27q69 62 161 62z" />
    <glyph glyph-name="uni044E" unicode="&#x44e;" horiz-adv-x="870" 
d="M560 502q106 0 181 -73.5t75 -181.5q0 -107 -75 -180.5t-181 -73.5q-88 0 -156.5 52t-90.5 135h-95v-161q0 -9 -5 -14.5t-13 -5.5h-71q-23 0 -36 14.5t-13 36.5v425q0 8 5.5 13.5t13.5 5.5h100q7 0 13 -6t6 -13v-161h94q22 83 91 135.5t157 52.5zM560 121q52 0 87 37
t35 88q0 52 -35 89.5t-87 37.5q-53 0 -88 -37t-35 -90q0 -51 35.5 -88t87.5 -37z" />
    <glyph glyph-name="uni044F" unicode="&#x44f;" horiz-adv-x="564" 
d="M504 495q8 0 14 -6t6 -14v-456q0 -8 -5.5 -13.5t-14.5 -5.5h-99q-8 0 -13.5 5.5t-6.5 13.5v77h-113l-65 -78q-14 -18 -22 -18h-118q-8 0 -12 6.5t1 11.5l88 103q-46 26 -75 71.5t-29 102.5q0 87 61.5 143.5t136.5 56.5h266zM249 229h136v133h-136q-29 0 -46 -21
t-17 -45.5t16.5 -45.5t46.5 -21z" />
    <glyph glyph-name="uni0451" unicode="&#x451;" horiz-adv-x="560" 
d="M151 651q-30 0 -51 22t-21 52q0 31 21 53t51 22q32 0 54 -22t22 -53q0 -30 -22 -52t-54 -22zM420 651q-31 0 -53 22t-22 52q0 31 22 53t53 22q30 0 51.5 -22t21.5 -53q0 -30 -21.5 -52t-51.5 -22zM451 201q34 0 53.5 18.5t19.5 53.5q0 92 -66.5 160.5t-173.5 68.5
q-105 0 -177 -73t-72 -181q0 -112 74 -182.5t181 -70.5q138 0 201 89q9 11 -3 26l-23 32q-11 15 -31 5q-22 -12 -58 -21.5t-70 -9.5q-47 0 -82 22.5t-44 62.5h271zM181 307q4 26 32 47.5t68 21.5q41 0 68 -21t31 -48h-199z" />
    <glyph glyph-name="uni0453" unicode="&#x453;" horiz-adv-x="514" 
d="M151 601l-24 43q-4 8 -2 14t7 9l195 131q6 6 15.5 5.5t13.5 -7.5l37 -61q5 -10 3 -18.5t-9 -12.5l-209 -109q-20 -9 -27 6zM414 495q20 0 33 -13.5t13 -35.5v-80q0 -8 -7.5 -11.5t-17.5 -1.5q-39 8 -62 9h-180v-342q0 -8 -5.5 -14t-13.5 -6h-99q-9 0 -14.5 6t-5.5 14v456
q0 19 19 19h340z" />
    <glyph glyph-name="uni0454" unicode="&#x454;" horiz-adv-x="518" 
d="M467 82q11 -16 -2 -26q-72 -63 -162 -63q-105 0 -181.5 74t-76.5 179q0 106 77 181t181 75q92 0 161 -62q13 -11 2 -27l-48 -62q-11 -15 -29 -2q-31 24 -83 24q-38 0 -69 -19t-47 -52h154q8 0 14 -5.5t6 -14.5v-72q0 -8 -6 -13.5t-14 -5.5h-153q16 -32 46.5 -51t68.5 -19
q50 0 83 27q17 12 29 -4z" />
    <glyph glyph-name="uni0456" unicode="&#x456;" horiz-adv-x="289" 
d="M144 651q-31 0 -52.5 21.5t-21.5 52.5t21.5 53t52.5 22t53 -22t22 -53t-22 -52.5t-53 -21.5zM195 495h-100q-8 0 -13.5 -5.5t-5.5 -13.5v-425q0 -22 13 -36.5t36 -14.5h71q8 0 13 5.5t5 14.5v456q0 7 -6 13t-13 6z" />
    <glyph glyph-name="uni0457" unicode="&#x457;" horiz-adv-x="375" 
d="M53 651q-30 0 -51.5 22t-21.5 52q0 31 21.5 53t51.5 22q32 0 53.5 -22t21.5 -53q0 -30 -21.5 -52t-53.5 -22zM321 651q-30 0 -52.5 22t-22.5 52q0 31 22.5 53t52.5 22t52 -22t22 -53q0 -30 -22 -52t-52 -22zM237 495h-99q-9 0 -14 -5.5t-5 -13.5v-425q0 -22 13 -36.5
t36 -14.5h70q8 0 13.5 5.5t5.5 14.5v456q0 8 -6 13.5t-14 5.5z" />
    <glyph glyph-name="uni0458" unicode="&#x458;" horiz-adv-x="280" 
d="M136 651q-31 0 -53 21.5t-22 52.5t22 53t53 22t52.5 -22t21.5 -53t-21.5 -52.5t-52.5 -21.5zM189 495h-99q-9 0 -14 -5.5t-5 -13.5v-576q0 -58 -53 -87q-19 -10 -10 -26l49 -94q8 -15 27 -8q59 31 92 88t33 127v576q0 8 -6 13.5t-14 5.5z" />
    <glyph glyph-name="uni045C" unicode="&#x45c;" horiz-adv-x="598" 
d="M185 601l-24 43q-4 8 -2 14t7 9l195 131q6 6 15.5 5.5t13.5 -7.5l37 -61q5 -10 3 -18.5t-9 -12.5l-209 -109q-20 -9 -27 6zM555 35q11 -10 5.5 -22.5t-19.5 -12.5h-117q-11 0 -16 8l-216 213v-202q0 -8 -5.5 -13.5t-13.5 -5.5h-99q-8 0 -14 5.5t-6 13.5v389q0 26 -8 62
q-2 10 1.5 17.5t11.5 7.5h84q22 0 35.5 -13t13.5 -33v-162l196 200q7 8 28 8h106q13 0 18.5 -11.5t-3.5 -20.5l-220 -210z" />
    <glyph glyph-name="uni045D" unicode="&#x45d;" horiz-adv-x="629" 
d="M184 704l208 -109q21 -10 28 6l24 43q4 8 2 14t-7 9l-195 131q-7 6 -16 5.5t-14 -7.5l-36 -61q-13 -21 6 -31zM549 495q7 0 11 -4.5t4 -10.5v-466q0 -6 -4.5 -10t-10.5 -4l-108 1q-6 0 -10.5 4t-4.5 9v262l-278 -266q-8 -10 -20 -10h-48q-7 0 -11 4t-4 10v466q0 6 5 10.5
t10 4.5h108q14 0 14 -15v-262l277 266q13 11 18 11h52z" />
    <glyph glyph-name="uni045E" unicode="&#x45e;" 
d="M125 773q10 -67 61 -111t123 -44q71 0 122 44t61 111q1 12 -5 20t-17 8h-49q-7 0 -13.5 -5t-8.5 -13q-10 -31 -35 -52t-55 -21q-34 0 -59 19.5t-35 53.5q-2 7 -7.5 12.5t-13.5 5.5h-46q-13 0 -19 -8t-4 -20zM552 495q11 0 15.5 -6.5t-0.5 -16.5l-192 -394
q-73 -151 -134 -247.5t-96 -129.5q-17 -13 -38 8l-55 55q-17 17 1 40q104 117 179 285l-204 383q-5 10 -1 16.5t15 6.5h110q15 0 23 -14l127 -259l119 259q8 14 23 14h108z" />
    <glyph glyph-name="uni0490" unicode="&#x490;" horiz-adv-x="664" 
d="M596 888q7 0 10.5 -7.5t1.5 -17.5q-7 -44 -8 -62v-119q0 -20 -19 -20h-383v-642q0 -8 -5.5 -14t-13.5 -6h-104q-8 0 -14 6t-6 14v761q0 15 14 18v1h389v43q0 20 13.5 32.5t35.5 12.5h89z" />
    <glyph glyph-name="uni0491" unicode="&#x491;" horiz-adv-x="524" 
d="M455 583q8 0 11.5 -7.5t1.5 -17.5q-8 -36 -8 -62v-115q0 -19 -20 -19h-247v-342q0 -8 -5.5 -14t-13.5 -6h-99q-9 0 -14.5 6t-5.5 14v456q0 8 5 13.5t14 5.5h243v43q0 20 13.5 32.5t35.5 12.5h89z" />
    <glyph glyph-name="uni04C0" unicode="&#x4c0;" horiz-adv-x="298" 
d="M198 800h-99q-8 0 -13.5 -5.5t-5.5 -13.5v-761q0 -8 6 -14t14 -6h99q7 0 13 6t6 14v761q0 7 -6 13t-14 6z" />
    <glyph glyph-name="uni04E2" unicode="&#x4e2;" horiz-adv-x="845" 
d="M206 988q0 5 4 9.5t11 4.5l401 1q6 0 11 -5t5 -10v-73q0 -7 -4.5 -11t-11.5 -4h-401q-15 0 -15 15v73zM95 800h103q9 0 14 -5.5t5 -13.5v-508l448 512q12 15 27 15h59q7 0 13 -6t6 -13v-761q0 -8 -6 -14t-14 -6l-103 1q-8 0 -14 6t-6 13v496l-408 -457q-53 -59 -92 -59
h-33q-8 0 -13.5 5.5t-5.5 13.5v762q0 8 6 13.5t14 5.5z" />
    <glyph glyph-name="uni04E3" unicode="&#x4e3;" horiz-adv-x="629" 
d="M94 743q0 14 15 14l401 1q6 0 11 -5t5 -10v-73q0 -15 -16 -15h-401q-15 0 -15 15v73zM549 495q7 0 11 -4.5t4 -10.5v-466q0 -6 -4 -10t-11 -4l-108 1q-6 0 -10.5 4t-4.5 9v262l-278 -266q-8 -10 -20 -10h-48q-7 0 -11 4t-4 10v466q0 6 5 10.5t10 4.5h108q14 0 14 -15
v-262l277 266q13 11 18 11h52z" />
    <glyph glyph-name="uni04EC" unicode="&#x4ec;" horiz-adv-x="803" 
d="M227 921q-30 0 -51.5 22t-21.5 52q0 31 21.5 53t51.5 22q32 0 53.5 -22t21.5 -53q0 -30 -21.5 -52t-53.5 -22zM495 921q-30 0 -52.5 22t-22.5 52q0 31 22.5 53t52.5 22t52 -22t22 -53q0 -30 -22 -52t-52 -22zM353 807q108 0 201 -54.5t148 -149t55 -205.5
q0 -112 -55 -205.5t-147.5 -146.5t-201.5 -53q-89 0 -166 34t-133 96q-14 14 1 27l83 67q14 10 27 -3q35 -36 83.5 -59.5t103.5 -23.5q92 0 162.5 56.5t92.5 144.5h-322q-8 0 -14 5.5t-6 13.5v98q0 9 6 14.5t14 5.5h320q-23 86 -93 143t-160 57q-55 0 -104.5 -24.5
t-84.5 -61.5q-14 -14 -27 -2l-83 67q-16 13 -2 27q57 62 135 97t167 35z" />
    <glyph glyph-name="uni04ED" unicode="&#x4ed;" horiz-adv-x="518" 
d="M124 693q-30 0 -51 22t-21 52q0 31 21 53t51 22q32 0 54 -22t22 -53q0 -30 -22 -52t-54 -22zM392 693q-30 0 -52 22t-22 52q0 31 22 53t52 22q31 0 52.5 -22t21.5 -53q0 -30 -21.5 -52t-52.5 -22zM215 502q104 0 181 -75t77 -181q0 -105 -76.5 -179t-181.5 -74
q-90 0 -162 63q-13 10 -2 26l49 62q12 16 29 4q33 -27 83 -27q38 0 68.5 19t46.5 51h-153q-8 0 -14 5.5t-6 13.5v72q0 9 5.5 14.5t14.5 5.5h154q-15 32 -46.5 51.5t-69.5 19.5q-52 0 -83 -24q-18 -13 -29 2l-48 62q-11 16 2 27q69 62 161 62z" />
    <glyph glyph-name="uni04EE" unicode="&#x4ee;" horiz-adv-x="700" 
d="M134 988q0 5 4 9.5t11 4.5l401 1q6 0 11 -5t5 -10v-73q0 -7 -4.5 -11t-11.5 -4h-401q-15 0 -15 15v73zM668 800q11 0 15.5 -7t-0.5 -17l-257 -493q-32 -61 -65 -112.5t-65 -88.5t-50 -56t-42 -41q-7 -6 -16.5 -4.5t-16.5 9.5l-56 66q-15 19 3 37l13.5 13.5l15 15l14 14.5
l15.5 16t14.5 16t16 19.5t15.5 20t17 23l16 24l18 27.5l-255 494q-5 10 -1 17t14 7h113q15 0 23 -15l183 -359l184 359q8 15 23 15h111z" />
    <glyph glyph-name="uni04EF" unicode="&#x4ef;" 
d="M92 748q0 5 4 9.5t11 4.5l401 1q6 0 11 -5t5 -10v-73q0 -7 -4.5 -11t-11.5 -4h-401q-15 0 -15 15v73zM552 495q11 0 15.5 -6.5t-0.5 -16.5l-192 -394q-73 -151 -134 -247.5t-96 -129.5q-17 -13 -38 8l-55 55q-17 17 1 40q104 117 179 285l-204 383q-5 10 -0.5 16.5
t14.5 6.5h110q15 0 23 -14l127 -259l119 259q8 14 23 14h108z" />
    <glyph glyph-name="uni1E3E" unicode="&#x1e3e;" horiz-adv-x="1066" 
d="M661 966q7 4 9 12.5t-3 18.5l-37 61q-4 7 -13.5 7.5t-15.5 -5.5l-195 -131q-5 -3 -7 -9t2 -14l24 -43q7 -15 27 -6zM971 800q8 0 14 -5.5t6 -13.5v-761q0 -8 -5.5 -14t-13.5 -6h-103q-9 0 -14.5 6t-5.5 14v485l-292 -462q-8 -14 -21 -14h-6q-13 0 -21 14l-291 463v-486
q0 -8 -6 -14t-14 -6h-103q-8 0 -14 6t-6 14v761q0 8 5.5 13.5t14.5 5.5h86q14 0 23 -13l329 -520l330 520q7 13 23 13h85z" />
    <glyph glyph-name="uni1E3F" unicode="&#x1e3f;" horiz-adv-x="950" 
d="M402 606l-24 43q-4 8 -2 14t7 9l195 131q6 6 15.5 5.5t13.5 -7.5l37 -61q5 -10 3 -18.5t-9 -12.5l-209 -109q-20 -9 -27 6zM899 25q2 -10 -1.5 -17.5t-10.5 -7.5h-84q-23 0 -36 14t-13 36v249q0 39 -26 59t-65 20q-56 0 -116 -58v-11v-219q1 -35 8 -65q2 -10 -1.5 -17.5
t-10.5 -7.5h-84q-23 0 -36.5 14t-13.5 36v249q0 39 -26 59t-64 20q-58 0 -116 -58v-301q0 -8 -6 -13.5t-13 -5.5h-101q-7 0 -12.5 5.5t-5.5 13.5v457q0 8 5.5 13.5t12.5 5.5h69q18 0 30.5 -12.5t17.5 -29.5q66 48 139 48q50 0 96 -20.5t75 -57.5v2q85 76 174 76
q53 0 99 -21.5t77 -66.5t31 -104v-219q1 -35 8 -65z" />
    <glyph glyph-name="Wgrave" unicode="&#x1e80;" horiz-adv-x="1144" 
d="M446 967q-8 4 -10 12.5t4 18.5l36 61q5 7 14 7.5t16 -5.5l195 -131q5 -3 7 -9t-2 -14l-24 -43q-7 -16 -28 -6zM1100 800q9 0 15 -6.5t2 -16.5l-377 -767q-7 -15 -21 -15h-8q-14 0 -22 15l-117 246l-118 -246q-7 -15 -21 -15h-8q-15 0 -21 15l-377 768q-5 9 1.5 15.5
t15.5 6.5h131q11 0 20 -20l234 -497l63 140l-170 355q-4 9 2 15.5t15 6.5h131q12 0 20 -19l82 -181l81 180q9 20 21 20h130q10 0 16 -6.5t1 -16.5l-169 -354l63 -140l233 498q10 19 21 19h131z" />
    <glyph glyph-name="wgrave" unicode="&#x1e81;" horiz-adv-x="825" 
d="M288 709q-8 4 -10 12.5t4 18.5l36 61q5 7 14 7.5t16 -5.5l195 -131q5 -3 7 -9t-2 -14l-24 -43q-7 -16 -28 -6zM782 495q11 0 15 -6t0 -17l-193 -459q-4 -13 -18 -13h-14q-14 0 -21 13l-138 260l-139 -260q-7 -13 -21 -13h-14q-13 0 -19 13l-192 459q-4 10 0 16.5t15 6.5
h104q16 0 23 -14l96 -252l115 248q7 13 23 13h17q17 0 22 -13l116 -248l96 252q7 14 22 14h105z" />
    <glyph glyph-name="Wacute" unicode="&#x1e82;" horiz-adv-x="1144" 
d="M465 864l-24 43q-4 8 -2 14t7 9l195 131q6 6 15.5 5.5t13.5 -7.5l37 -61q5 -10 3 -18.5t-9 -12.5l-209 -109q-20 -9 -27 6zM1100 800q9 0 15 -6.5t2 -16.5l-377 -767q-7 -15 -21 -15h-8q-14 0 -22 15l-117 246l-118 -246q-7 -15 -21 -15h-8q-15 0 -21 15l-377 768
q-5 9 1.5 15.5t15.5 6.5h131q11 0 20 -20l234 -497l63 140l-170 355q-4 9 2 15.5t15 6.5h131q12 0 20 -19l82 -181l81 180q9 20 21 20h130q10 0 16 -6.5t1 -16.5l-169 -354l63 -140l233 498q9 19 21 19h131z" />
    <glyph glyph-name="wacute" unicode="&#x1e83;" horiz-adv-x="825" 
d="M306 606l-24 43q-4 8 -2 14t7 9l195 131q6 6 15.5 5.5t13.5 -7.5l37 -61q5 -10 3 -18.5t-9 -12.5l-209 -109q-20 -9 -27 6zM782 495q11 0 15 -6.5t0 -16.5l-193 -459q-4 -13 -18 -13h-14q-14 0 -21 13l-138 260l-139 -260q-7 -13 -21 -13h-14q-13 0 -19 13l-192 459
q-4 10 0 16.5t15 6.5h104q16 0 23 -14l96 -252l115 248q7 13 23 13h17q17 0 22 -13l116 -248l96 252q7 14 22 14h105z" />
    <glyph glyph-name="Wdieresis" unicode="&#x1e84;" horiz-adv-x="1144" 
d="M437 909q-30 0 -51 22t-21 52q0 31 21 53t51 22q32 0 54 -22t22 -53q0 -30 -22 -52t-54 -22zM706 909q-31 0 -53 22t-22 52q0 31 22 53t53 22q30 0 51.5 -22t21.5 -53q0 -30 -21.5 -52t-51.5 -22zM1100 800q9 0 15 -6.5t2 -16.5l-377 -767q-7 -15 -21 -15h-8
q-14 0 -22 15l-117 246l-118 -246q-7 -15 -21 -15h-8q-15 0 -21 15l-377 768q-5 9 1.5 15.5t15.5 6.5h131q11 0 20 -20l234 -497l63 140l-170 355q-4 9 2 15.5t15 6.5h131q12 0 20 -19l82 -181l81 180q9 20 21 20h130q10 0 16 -6.5t1 -16.5l-169 -354l63 -140l233 498
q9 19 21 19h131z" />
    <glyph glyph-name="wdieresis" unicode="&#x1e85;" horiz-adv-x="825" 
d="M278 651q-30 0 -51 22t-21 52q0 31 21 53t51 22q32 0 54 -22t22 -53q0 -30 -22 -52t-54 -22zM547 651q-31 0 -53 22t-22 52q0 31 22 53t53 22q30 0 51.5 -22t21.5 -53q0 -30 -21.5 -52t-51.5 -22zM782 495q11 0 15 -6.5t0 -16.5l-193 -459q-4 -13 -18 -13h-14
q-14 0 -21 13l-138 260l-139 -260q-7 -13 -21 -13h-14q-13 0 -19 13l-192 459q-4 10 0 16.5t15 6.5h104q16 0 23 -14l96 -252l115 248q7 13 23 13h17q17 0 22 -13l116 -248l96 252q7 14 22 14h105z" />
    <glyph glyph-name="Ygrave" unicode="&#x1ef2;" horiz-adv-x="769" 
d="M260 968l208 -109q21 -10 28 6l24 43q4 8 2 14t-7 9l-195 131q-7 6 -16 5.5t-14 -7.5l-36 -61q-6 -10 -4 -18.5t10 -12.5zM740 800q8 0 12 -7.5t-1 -15.5l-296 -455v-302q0 -20 -18 -20h-75q-23 0 -36 14.5t-13 36.5v271l-295 455q-5 8 -1 15.5t12 7.5h128q11 0 22 -19
l205 -316l204 316q1 1 2.5 3.5t2.5 3.5t2.5 3t2.5 3l2.5 2.5t3 2l3 1t3.5 0.5h130z" />
    <glyph glyph-name="ygrave" unicode="&#x1ef3;" 
d="M182 709l208 -109q21 -10 28 6l24 43q4 8 2 14t-7 9l-195 131q-7 6 -16 5.5t-14 -7.5l-36 -61q-6 -10 -4 -18.5t10 -12.5zM552 495q11 0 15.5 -6.5t-0.5 -16.5l-192 -394q-73 -151 -134 -247.5t-96 -129.5q-17 -13 -38 8l-55 55q-17 17 1 40q104 117 179 285l-204 383
q-5 10 -0.5 16.5t14.5 6.5h110q15 0 23 -14l127 -259l119 259q8 14 23 14h108z" />
    <glyph glyph-name="endash" unicode="&#x2013;" horiz-adv-x="702" 
d="M622 286q0 -8 -6 -14.5t-13 -6.5h-503q-8 0 -14 6t-6 14v49q0 9 6 14.5t14 5.5h503q8 0 13.5 -5t5.5 -14v-49z" />
    <glyph glyph-name="emdash" unicode="&#x2014;" horiz-adv-x="932" 
d="M872 286q0 -8 -6 -14.5t-13 -6.5h-773q-8 0 -14 6t-6 14v49q0 9 6 14.5t14 5.5h773q8 0 13.5 -5t5.5 -14v-49z" />
    <glyph glyph-name="quoteleft" unicode="&#x2018;" horiz-adv-x="227" 
d="M122 647q32 0 55 -23t23 -55q0 -33 -23 -56t-55 -23q-40 0 -65 28q-23 24 -27 57q-10 62 8 127q11 39 38 72.5t58 52.5q13 7 21 -1l18 -23q5 -6 0 -12q-36 -29 -57.5 -62.5t-18.5 -82.5v-2q12 3 25 3z" />
    <glyph glyph-name="quoteright" unicode="&#x2019;" horiz-adv-x="203" 
d="M173 731q9 -62 -8 -128q-12 -39 -39.5 -72.5t-57.5 -52.5q-14 -7 -20 2l-19 22q-5 7 0 12q36 29 57.5 62.5t18.5 82.5v2q-12 -3 -24 -3q-32 0 -55.5 23t-23.5 55q0 33 23.5 56t55.5 23q41 0 64 -28q22 -22 28 -56z" />
    <glyph glyph-name="quotesinglbase" unicode="&#x201a;" horiz-adv-x="538" 
d="M208 111q24 -24 28 -56q9 -62 -8 -128q-12 -39 -39.5 -72.5t-57.5 -52.5q-13 -6 -20 2l-18 22q-5 7 0 12q36 29 57 62.5t18 82.5v2q-12 -3 -24 -3q-32 0 -55.5 23t-23.5 55q0 33 23.5 56t55.5 23q41 0 64 -28zM474 55q9 -62 -8 -128q-12 -40 -39 -73t-58 -52
q-13 -6 -20 2l-18 22q-5 7 0 12q36 29 57 62.5t18 82.5v2q-12 -3 -24 -3q-32 0 -55.5 23t-23.5 55q0 33 23.5 56t55.5 23q41 0 64 -28q24 -24 28 -56z" />
    <glyph glyph-name="quotedblleft" unicode="&#x201c;" horiz-adv-x="474" 
d="M126 635q32 0 55.5 -23t23.5 -55q0 -33 -23 -56t-56 -23q-41 0 -64 28q-22 22 -27 56q-10 63 8 128q11 39 38 72.5t58 52.5q13 7 21 -2l18 -22q5 -7 0 -12q-36 -29 -57.5 -62.5t-18.5 -82.5v-2q12 3 24 3zM365 635q32 0 55 -23t23 -55q0 -33 -23 -56t-55 -23
q-42 0 -65 28q-23 24 -27 56q-10 63 8 128q11 39 38 72.5t58 52.5q14 7 21 -2l18 -22q5 -7 0 -12q-36 -29 -57.5 -62.5t-18.5 -82.5v-2q12 3 25 3z" />
    <glyph glyph-name="quotedblright" unicode="&#x201d;" horiz-adv-x="475" 
d="M174 787q24 -24 28 -56q10 -63 -8 -128q-11 -40 -38.5 -73t-58.5 -52q-12 -7 -20 2l-18 22q-5 7 0 12q36 29 57 62.5t18 82.5v2q-12 -3 -24 -3q-32 0 -55.5 23t-23.5 55q0 33 23.5 56t55.5 23q41 0 64 -28zM440 731q10 -63 -8 -128q-11 -39 -38.5 -72.5t-58.5 -52.5
q-12 -7 -20 2l-18 22q-5 7 0 12q36 29 57 62.5t18 82.5v2q-11 -3 -24 -3q-32 0 -55.5 23t-23.5 55q0 33 23.5 56t55.5 23q40 0 65 -28q23 -24 27 -56z" />
    <glyph glyph-name="quotedblbase" unicode="&#x201e;" horiz-adv-x="543" 
d="M208 111q24 -24 28 -56q9 -62 -8 -128q-12 -39 -39.5 -72.5t-57.5 -52.5q-13 -6 -20 2l-18 22q-5 7 0 12q36 29 57 62.5t18 82.5v2q-12 -3 -24 -3q-32 0 -55.5 23t-23.5 55q0 33 23.5 56t55.5 23q41 0 64 -28zM474 55q9 -62 -8 -128q-12 -40 -39 -73t-58 -52
q-13 -6 -20 2l-18 22q-5 7 0 12q36 29 57 62.5t18 82.5v2q-12 -3 -24 -3q-32 0 -55.5 23t-23.5 55q0 33 23.5 56t55.5 23q41 0 64 -28q24 -24 28 -56z" />
    <glyph glyph-name="dagger" unicode="&#x2020;" horiz-adv-x="514" 
d="M455 482q19 0 19 -19v-99q0 -19 -19 -19h-134l-5 -526q0 -19 -19 -19h-89q-19 0 -19 19v526h-130q-19 0 -19 19v99q0 19 19 19h130v299q0 19 19 19h98q19 0 19 -19l-3 -299h133z" />
    <glyph glyph-name="daggerdbl" unicode="&#x2021;" horiz-adv-x="514" 
d="M455 346h-134v-60h134q19 0 19 -19v-99q0 -19 -19 -19h-136l-3 -330q0 -19 -19 -19h-89q-19 0 -19 19v330h-130q-19 0 -19 19v99q0 19 19 19h130v60h-130q-19 0 -19 19v99q0 19 19 19h130v298q0 19 19 19h98q19 0 19 -19l-3 -298h133q19 0 19 -19v-99q0 -19 -19 -19z" />
    <glyph glyph-name="bullet" unicode="&#x2022;" horiz-adv-x="371" 
d="M187 114q-56 0 -96.5 40t-40.5 95t40.5 95.5t96.5 40.5q55 0 94.5 -40t39.5 -96t-39.5 -95.5t-94.5 -39.5z" />
    <glyph glyph-name="ellipsis" unicode="&#x2026;" horiz-adv-x="784" 
d="M130.5 -7q-33.5 0 -57 23.5t-23.5 56.5q0 34 23.5 58t57.5 24t57 -24t23 -58q0 -33 -23.5 -56.5t-57 -23.5zM393.5 -7q-33.5 0 -57 23.5t-23.5 56.5q0 34 23.5 58t57.5 24t57 -24t23 -58q0 -33 -23.5 -56.5t-57 -23.5zM653.5 -7q-33.5 0 -57 23.5t-23.5 56.5
q0 34 23.5 58t57.5 24t57 -24t23 -58q0 -33 -23.5 -56.5t-57 -23.5z" />
    <glyph glyph-name="perthousand" unicode="&#x2030;" horiz-adv-x="929" 
d="M455 775q7 15 22 15h81q11 0 15 -6.5t-1 -16.5l-404 -752q-7 -15 -22 -15h-81q-11 0 -15 6.5t1 16.5zM131 552q-49 0 -83.5 34.5t-34.5 83.5t34.5 83.5t83.5 34.5q48 0 82.5 -34.5t34.5 -83.5t-34.5 -83.5t-82.5 -34.5zM489 -1q-49 0 -83.5 34t-34.5 83t34.5 83.5
t83.5 34.5q48 0 82.5 -34.5t34.5 -83.5t-34.5 -83t-82.5 -34zM799 -1q-49 0 -83.5 34t-34.5 83t34.5 83.5t83.5 34.5q48 0 82.5 -34.5t34.5 -83.5t-34.5 -83t-82.5 -34z" />
    <glyph glyph-name="guilsinglleft" unicode="&#x2039;" horiz-adv-x="354" 
d="M54 215l131 -195q6 -11 17 -11h76q15 0 20 10.5t-3 25.5l-92 186l96 177q8 16 3 27t-20 11h-69q-13 0 -22 -14l-137 -188q-8 -15 0 -29z" />
    <glyph glyph-name="guilsinglright" unicode="&#x203a;" horiz-adv-x="354" 
d="M301 215q8 14 0 29l-137 188q-9 14 -22 14h-69q-15 0 -20.5 -11t3.5 -27l96 -177l-93 -186q-7 -15 -2.5 -25.5t19.5 -10.5h76q12 0 17 11z" />
    <glyph glyph-name="fraction" unicode="&#x2044;" horiz-adv-x="220" 
d="M267 786q7 14 22 14h47q12 0 16 -6.5t-1 -16.5l-399 -763q-7 -14 -22 -14h-48q-11 0 -15 6.5t1 16.5z" />
    <glyph glyph-name="Euro" unicode="&#x20ac;" horiz-adv-x="802" 
d="M685 201l69 -71q13 -13 0 -27q-119 -111 -281 -111q-126 0 -228.5 69t-150.5 181h-65q-8 0 -13.5 5t-5.5 14v87q0 8 5.5 14t13.5 6h33q-1 12 -1 35q0 22 1 33h-33q-8 0 -13.5 5.5t-5.5 13.5v87q0 8 5.5 14.5t13.5 6.5h64q47 113 150 182.5t230 69.5q80 0 152.5 -29.5
t129.5 -82.5q13 -13 0 -27l-70 -72q-14 -14 -27 0q-73 68 -174 68q-68 0 -125 -29t-95 -80h196q8 0 14 -6t6 -14v-87q0 -8 -6 -14t-14 -6h-245q-2 -10 -2 -32q0 -12 2 -36h245q8 0 14 -5.5t6 -13.5v-87q0 -9 -6 -14.5t-14 -5.5h-194q37 -50 94.5 -79t124.5 -29q97 0 172 67
q14 14 28 0z" />
    <glyph glyph-name="trademark" unicode="&#x2122;" horiz-adv-x="646" 
d="M237 800q15 0 15 -14v-36q0 -14 -15 -14h-64v-222q0 -6 -4.5 -10.5t-9.5 -4.5h-36q-7 0 -11 4.5t-4 10.5v222h-64q-14 0 -14 14v36q0 6 4 10t10 4h193zM603 800q5 0 9 -4t4 -10v-272q0 -6 -4 -10.5t-10 -4.5h-36q-6 0 -10 4.5t-4 10.5v142l-87 -147q-5 -9 -13 -9h-2
q-9 0 -15 9l-83 147v-142q0 -6 -4.5 -10.5t-10.5 -4.5h-36q-6 0 -10 4.5t-4 10.5v272q0 6 4 10t10 4h37q11 0 15 -8l98 -176l96 176q4 8 14 8h42z" />
    <glyph glyph-name="oneeighth" unicode="&#x215b;" horiz-adv-x="751" 
d="M586 800q11 0 15 -6.5t-1 -16.5l-399 -763q-7 -14 -22 -14h-47q-12 0 -16 6.5t1 16.5l399 763q7 14 22 14h48zM126 462v213l-61 -5q-15 -2 -15 10v42q0 11 10 14q35 10 70 53l3 6q5 5 11 5h59q5 0 9 -3.5t4 -8.5v-326q0 -5 -4 -9t-9 -4h-64q-5 0 -9 3.5t-4 9.5zM640 182
q61 -29 61 -89q0 -43 -32.5 -71.5t-89.5 -28.5q-55 0 -86.5 28.5t-31.5 71.5q0 35 20 57.5t40 31.5l-1 2q-52 27 -52 81q0 44 31.5 70.5t79.5 26.5q50 0 82.5 -26.5t32.5 -70.5q0 -23 -10 -40.5t-19.5 -25t-24.5 -15.5v-2zM580 299q-16 0 -28 -11t-12 -26t12 -27t28 -12
q17 0 29 12.5t12 26.5q0 16 -12 26.5t-29 10.5zM581 53q20 0 33.5 12t13.5 31q0 18 -12.5 32.5t-34.5 14.5t-34.5 -14.5t-12.5 -32.5q0 -19 14 -31t33 -12z" />
    <glyph glyph-name="threeeighths" unicode="&#x215c;" horiz-adv-x="745" 
d="M266 482q-45 -50 -110 -45.5t-113 61.5q-6 7 0 13l35 37q6 6 13 -1q10 -11 22 -20t27 -16t30.5 -5.5t27.5 12.5q14 13 16 29.5t-7 28.5t-24.5 18t-34.5 -3q-6 -6 -12 2l-30 36q-5 6 0 13l71 84h-114q-9 0 -9 8v55q0 11 9 11h205q9 0 9 -10v-54q0 -3 -2 -5l-70 -77
q26 -5 46.5 -24.5t29.5 -45t5.5 -53.5t-20.5 -49zM590 800q12 0 16 -6.5t-1 -16.5l-399 -763q-7 -14 -22 -14h-48q-11 0 -15 6.5t1 16.5l399 763q7 14 22 14h47zM645 182q60 -29 60 -89q0 -43 -32.5 -71.5t-88.5 -28.5q-55 0 -86.5 28.5t-31.5 71.5q0 34 20 57t39 32v2
q-52 26 -52 81q0 44 31.5 70.5t79.5 26.5q50 0 82 -26.5t32 -70.5q0 -23 -9.5 -40.5t-19.5 -25t-24 -15.5v-2zM585 299q-17 0 -29 -10.5t-12 -26.5q0 -15 12.5 -27t28.5 -12q17 0 28.5 12.5t11.5 26.5q0 16 -11.5 26.5t-28.5 10.5zM586 53q19 0 32.5 12t13.5 31
q0 18 -12.5 32.5t-33.5 14.5q-22 0 -35 -14.5t-13 -32.5q0 -19 14.5 -31t33.5 -12z" />
    <glyph glyph-name="fiveeighths" unicode="&#x215d;" horiz-adv-x="752" 
d="M257 481q-42 -47 -104.5 -44.5t-108.5 56.5q-4 6 -3.5 7.5t5.5 6.5l34 36q8 8 14 -3q15 -22 43 -32.5t52 6.5q15 13 17 31t-7.5 31t-26 19t-39.5 -7h-1l-5 1h-8l-50 5q-9 0 -9 12l-2 127v2v55q0 4 3 7t7 3h184q10 0 10 -9v-56q0 -8 -10 -8h-120v-70q39 10 69.5 3
t49.5 -29t27 -48t2.5 -54t-23.5 -48zM597 800q11 0 15 -6.5t-1 -16.5l-399 -763q-7 -14 -22 -14h-47q-12 0 -16 6.5t1 16.5l399 763q7 14 22 14h48zM651 182q61 -29 61 -89q0 -43 -32.5 -71.5t-89.5 -28.5q-55 0 -86.5 28.5t-31.5 71.5q0 35 20 57.5t40 31.5l-1 2
q-52 27 -52 81q0 44 31.5 70.5t79.5 26.5q50 0 82.5 -26.5t32.5 -70.5q0 -23 -10 -40.5t-19.5 -25t-24.5 -15.5v-2zM591 299q-16 0 -28 -10.5t-12 -26.5q0 -15 12 -27t28 -12q17 0 29 12.5t12 26.5q0 16 -12 26.5t-29 10.5zM592 53q20 0 33.5 12t13.5 31q0 18 -12.5 32.5
t-34.5 14.5t-34.5 -14.5t-12.5 -32.5q0 -19 14 -31t33 -12z" />
    <glyph glyph-name="seveneighths" unicode="&#x215e;" horiz-adv-x="703" 
d="M121 453q-2 -4 -11 -4h-61q-4 0 -5.5 4.5t0.5 6.5l126 265h-120q-10 0 -10 9v56q0 4 3 7t6 3h217q8 0 8 -10v-15v-1q0 -4 -1 -6zM548 800q12 0 16 -6.5t-1 -16.5l-399 -763q-7 -14 -23 -14h-47q-11 0 -15 6.5t1 16.5l399 763q7 14 22 14h47zM603 182q60 -29 60 -89
q0 -43 -32.5 -71.5t-88.5 -28.5q-55 0 -86.5 28t-31.5 72q0 34 20 57t39 32v2q-52 26 -52 81q0 44 31 70.5t80 26.5q50 0 82 -26.5t32 -70.5q0 -23 -9.5 -40.5t-19.5 -25t-24 -15.5v-2zM542 299q-16 0 -28 -11t-12 -26q0 -14 12.5 -26.5t27.5 -12.5q18 0 29.5 12t11.5 27
q0 16 -12 26.5t-29 10.5zM543 53q20 0 33.5 12t13.5 31q0 18 -12.5 32.5t-34.5 14.5t-34.5 -14.5t-12.5 -32.5q0 -19 14 -31t33 -12z" />
    <glyph glyph-name="partialdiff" unicode="&#x2202;" horiz-adv-x="599" 
d="M474 628q44 -59 65.5 -140t19.5 -165q0 -104 -30 -178q-28 -72 -92 -116.5t-142 -44.5q-106 0 -180.5 74.5t-74.5 178.5t74.5 174.5t180.5 70.5q63 0 124 -36q-17 87 -77.5 144t-153.5 57q-9 0 -14.5 5.5t-4.5 14.5l10 94q2 19 20 19q89 -4 160.5 -48.5t114.5 -103.5z
M420 230q4 49 -33 87.5t-89 38.5q-47 0 -82.5 -36t-35.5 -85t35.5 -85t83.5 -36q49 0 84 34t37 82z" />
    <glyph glyph-name="emptyset" unicode="&#x2205;" horiz-adv-x="946" 
d="M899 755q14 -14 0 -27l-88 -89q74 -108 74 -236q0 -112 -55 -207t-150 -150t-207 -55q-131 0 -236 74l-88 -88q-13 -14 -27 0l-75 76q-14 13 0 27l87 87q-73 106 -73 236q0 112 55 207t150 150t207 55q129 0 235 -73l89 88q13 14 27 0zM205 403q0 -71 34 -131l365 365
q-63 34 -130 34q-111 0 -190 -79t-79 -189zM741 403q0 73 -35 132l-365 -366q64 -35 133 -35q110 0 188.5 79t78.5 190z" />
    <glyph glyph-name="product" unicode="&#x220f;" horiz-adv-x="770" 
d="M728 781l1 -761q0 -8 -5.5 -14t-13.5 -6h-101q-8 0 -14 6t-6 14v641h-409l1 -641q0 -8 -5.5 -14t-13.5 -6h-101q-8 0 -14 6t-6 14v761q0 8 5.5 13.5t13.5 5.5h649q7 0 13 -6t6 -13z" />
    <glyph glyph-name="summation" unicode="&#x2211;" horiz-adv-x="678" 
d="M638 681q0 -9 -6 -15t-14 -6h-364l266 -240l8 -8t4 -6t2 -9v-2q0 -12 -14 -23l-267 -232h365q8 0 14 -6t6 -14v-100q0 -8 -6 -14t-14 -6h-559q-8 0 -13.5 5.5t-5.5 13.5v104q0 13 13 23l289 250l-289 249q-13 12 -13 23v112q0 8 6 14t13 6h559q8 0 14 -6t6 -13v-100z" />
    <glyph glyph-name="minus" unicode="&#x2212;" horiz-adv-x="559" 
d="M519 336q0 -8 -5.5 -14.5t-13.5 -6.5h-440q-8 0 -14 6t-6 14v85q0 9 6 14.5t14 5.5h440q8 0 13.5 -5.5t5.5 -13.5v-85z" />
    <glyph glyph-name="radical" unicode="&#x221a;" horiz-adv-x="750" 
d="M305 -13q-12 0 -19 13l-258 477q-6 10 -1.5 16.5t15.5 6.5h106q14 0 22 -14l139 -257l271 557q6 14 23 14h105q11 0 15 -6.5t-1 -16.5l-389 -777q-7 -13 -20 -13h-8z" />
    <glyph glyph-name="infinity" unicode="&#x221e;" horiz-adv-x="867" 
d="M434 331q7 -14 20 -30.5t35 -35t55 -30.5t71 -12q98 0 160 62t62 170q0 112 -61.5 172.5t-160.5 60.5q-68 0 -113.5 -31t-67.5 -75l-4 1q-62 105 -191 105q-91 0 -150 -64.5t-59 -168.5q0 -100 59 -165.5t150 -65.5q74 0 121 32t71 75h3zM720 458q0 -45 -28.5 -76.5
t-71.5 -31.5q-41 0 -73.5 29t-32.5 79q0 51 32.5 79.5t73.5 28.5q43 0 71.5 -32t28.5 -76zM251 564q44 0 75.5 -29.5t31.5 -76.5t-31.5 -76.5t-75.5 -29.5q-43 0 -73 29.5t-30 73.5q0 46 29.5 77.5t73.5 31.5z" />
    <glyph glyph-name="integral" unicode="&#x222b;" horiz-adv-x="606" 
d="M558 790q14 -8 7 -25l-33 -72q-6 -17 -26 -10q-22 9 -47 9q-87 0 -87 -73l1 -817v-4v-17h-1q-7 -87 -63.5 -133t-146.5 -46q-61 0 -113 30q-14 9 -7 24l32 73q6 17 26 10q23 -9 48 -9q83 0 85 68v822q1 97 59 148.5t152 51.5q62 0 114 -30z" />
    <glyph glyph-name="approxequal" unicode="&#x2248;" horiz-adv-x="614" 
d="M58 426l46 -48q7 -6 15.5 -5.5t14.5 7.5q39 55 83 54q9 0 17 -2t16.5 -6.5t12.5 -7.5l14 -10t12 -9l34.5 -23t34 -15.5t48.5 -8.5q24 -1 49 8.5t44.5 23.5t35.5 28.5t24 24.5l9 10q10 12 -1 25l-41 47q-6 6 -14.5 6t-15.5 -6q-41 -57 -86 -56q-8 0 -16 2.5t-13.5 5
t-14.5 8t-12 7.5t-12 9t-10 8q-29 21 -53.5 32t-56.5 12q-24 1 -49.5 -8.5t-45.5 -24t-36.5 -29t-25.5 -24.5l-9 -10q-11 -11 2 -25zM48 171l48 -47q5 -8 14 -7.5t15 8.5q38 55 84 53q7 0 14.5 -2t12 -3.5t13 -6.5t10.5 -6.5t12 -8.5l10 -7q21 -15 33.5 -22.5t35 -15.5
t47.5 -9q24 -1 49 8.5t44.5 23.5t35.5 28.5t24 24.5l9 10q4 5 4 12t-5 12l-41 48q-6 7 -14.5 6.5t-14.5 -7.5q-15 -21 -38 -38t-48 -16q-12 0 -25 5t-18.5 8.5t-20.5 14t-16 10.5q-18 14 -30.5 22t-34 15.5t-44.5 7.5q-23 1 -49 -8.5t-46 -24t-36.5 -29t-25.5 -24.5l-9 -10
q-11 -11 1 -25z" />
    <glyph glyph-name="notequal" unicode="&#x2260;" horiz-adv-x="600" 
d="M525 452h-135l-44 -148h179q8 0 13.5 -5t5.5 -14v-85q0 -8 -5.5 -14t-13.5 -6h-216l-46 -160q-7 -20 -21 -20h-96q-9 0 -15 6.5t-4 13.5l46 160h-97q-8 0 -14 5.5t-6 13.5v85q0 9 5.5 14.5t14.5 5.5h134l44 148h-178q-8 0 -14 5.5t-6 13.5v86q0 8 5.5 14t14.5 6h214
l47 161q6 19 21 19h96q9 0 15 -6t4 -14l-47 -160h99q8 0 13.5 -5.5t5.5 -13.5v-86q0 -8 -5.5 -14t-13.5 -6z" />
    <glyph glyph-name="lessequal" unicode="&#x2264;" horiz-adv-x="499" 
d="M40 462q0 -11 10 -17l361 -209q10 -6 19 -1t9 17v89q0 11 -10 17l-203 109l203 112q10 8 10 17v89q0 12 -9 17t-19 -1l-361 -216q-10 -6 -10 -17v-6zM54 20v83q0 9 5.5 14.5t13.5 5.5h345q9 0 15 -6t6 -14v-84q0 -8 -6.5 -13.5t-14.5 -5.5h-345q-8 0 -13.5 6t-5.5 14z
" />
    <glyph glyph-name="greaterequal" unicode="&#x2265;" horiz-adv-x="499" 
d="M459 462v6q0 11 -10 17l-361 216q-10 6 -19 1t-9 -17v-89q0 -9 10 -17l203 -112l-203 -109q-10 -6 -10 -17v-89q0 -12 9 -17t19 1l361 209q10 6 10 17zM444 20q0 -8 -5.5 -14t-13.5 -6h-345q-8 0 -14 5.5t-6 13.5v84q0 8 6 14t14 6h345q8 0 13.5 -5.5t5.5 -14.5v-83z" />
    <glyph glyph-name="lozenge" unicode="&#x25ca;" horiz-adv-x="869" 
d="M421 788q14 14 28 0l381 -382q14 -14 0 -28l-381 -382q-14 -14 -28 0l-382 382q-14 14 0 28zM436 611l-220 -218l220 -220l218 220z" />
    <glyph glyph-name="i.loclTRK" horiz-adv-x="288" 
d="M146 664q-27 0 -47.5 19.5t-20.5 47.5t20.5 48.5t47.5 20.5q28 0 48 -20.5t20 -48.5t-19.5 -47.5t-48.5 -19.5zM194 495h-100q-8 0 -13.5 -5.5t-5.5 -13.5v-425q0 -22 13 -36.5t36 -14.5h71q8 0 13 5.5t5 14.5v456q0 8 -6 13.5t-13 5.5z" />
    <glyph glyph-name="zero.osf" horiz-adv-x="617" 
d="M309 -13q-109 0 -186.5 77.5t-77.5 186.5q0 108 77.5 185t186.5 77t186.5 -77t77.5 -185q0 -109 -77.5 -186.5t-186.5 -77.5zM311 115q55 0 94.5 40.5t39.5 95.5q0 54 -39.5 94t-94.5 40q-56 0 -95.5 -40t-39.5 -94q0 -55 39.5 -95.5t95.5 -40.5z" />
    <glyph glyph-name="one.osf" horiz-adv-x="358" 
d="M276 500q8 0 14.5 -6t6.5 -13v-461q0 -8 -6 -14t-14 -6h-103q-8 0 -14 6t-6 14v286l-96 -7q-22 -2 -22 16l-1 63q0 10 3 15t13 8q56 17 109 82l6 9q7 8 18 8h92z" />
    <glyph glyph-name="two.osf" horiz-adv-x="593" 
d="M529 129q19 0 19 -19v-90q0 -8 -6 -14t-13 -6h-451q-7 0 -12.5 4.5t-5.5 11.5v19q0 13 10 18l239 139q83 48 83 108q0 33 -25.5 56t-70.5 23q-44 0 -73 -22t-41 -57q-7 -20 -24 -20h-94q-21 0 -19 20q9 98 81.5 152t180.5 54q98 0 163 -60t66 -139q-1 -61 -39 -104
q-21 -22 -94 -75z" />
    <glyph glyph-name="three.osf" horiz-adv-x="620" 
d="M96 495h433q20 0 20 -19v-99q0 -21 -14 -36l-153 -164q50 -8 94 -39q45 -31 72 -82.5t27 -108.5q0 -62 -37.5 -116.5t-96 -85t-120.5 -30.5q-86 0 -149 34t-121 103q-12 14 1 27l71 66q12 13 27 -2q81 -90 162 -90q52 0 84 34.5t32 76.5q0 39 -26.5 67t-66.5 28
q-16 0 -39 -9.5t-30 -9.5q-9 0 -16 9l-55 74q-11 15 1 27l188 207h-288q-8 0 -14.5 6t-6.5 13v99q0 8 6.5 14t14.5 6z" />
    <glyph glyph-name="four.osf" horiz-adv-x="622" 
d="M548 24q19 0 19 -19v-98q0 -8 -5.5 -14t-13.5 -6h-46v-153q0 -19 -19 -19h-97q-8 0 -14.5 6t-6.5 13v153h-299q-8 0 -14 5.5t-6 13.5l-1 98q0 11 11 18q137 113 204 283q29 77 31 171q0 8 5.5 13.5t13.5 5.5h109q9 0 14.5 -6t5.5 -14q-5 -160 -68 -290q-45 -87 -125 -161
h119v43q0 8 5.5 14t13.5 8l98 9q9 1 14.5 -5.5t5.5 -15.5v-53h46z" />
    <glyph glyph-name="five.osf" horiz-adv-x="607" 
d="M220 189q55 22 113 22q69 0 122.5 -36.5t80 -92t26.5 -118.5q0 -100 -74.5 -173t-181.5 -73q-70 0 -137 33t-118 96q-11 14 1 27l68 72q14 14 27 -2q27 -37 68 -62.5t90 -25.5t78.5 31.5t29.5 77.5q0 45 -32.5 77t-77.5 32q-38 0 -83 -24l-123 24q-19 3 -19 21v383
q0 8 5.5 14t14.5 6q132 -4 201 -4q70 0 200 4q19 0 19 -19v-98q0 -8 -5.5 -13.5t-13.5 -6.5q-80 -5 -173 -5q-62 0 -106 2v-169z" />
    <glyph glyph-name="six.osf" horiz-adv-x="615" 
d="M312 482q108 0 183 -70.5t75 -174.5q0 -106 -73 -176.5t-188 -70.5q-122 0 -193 89.5t-71 235.5q0 86 24 166.5t68.5 146.5t115.5 107t157 45q10 1 16 -4.5t6 -14.5l3 -94q0 -15 -20 -15q-61 0 -112 -33t-80 -79.5t-38 -98.5q57 41 127 41zM308 117q50 0 85.5 36
t35.5 85.5t-35.5 85t-84.5 35.5q-51 0 -88 -36t-37 -82q0 -52 35.5 -88t88.5 -36z" />
    <glyph glyph-name="seven.osf" horiz-adv-x="591" 
d="M550 441q0 -11 -6 -24l-329 -683q-5 -9 -26 -9h-109q-9 0 -12 8.5t0 14.5l297 609h-309q-8 0 -14.5 6t-6.5 13v99q0 8 6 14t15 6h475q19 0 19 -19v-35z" />
    <glyph glyph-name="eight.osf" horiz-adv-x="599" 
d="M173 401q-17 -6 -37 -21.5t-41.5 -38.5t-35.5 -57t-14 -71q0 -96 69.5 -159.5t184.5 -63.5q116 0 185.5 63.5t69.5 159.5q0 38 -12.5 71t-33.5 55.5t-41.5 37.5t-41.5 24l1 4q44 20 75.5 60.5t31.5 101.5q0 90 -67 151.5t-167 61.5q-99 0 -165.5 -61.5t-66.5 -151.5
q0 -60 31.5 -102t73.5 -61zM405 569q0 -37 -30.5 -66.5t-75.5 -29.5q-46 0 -76 29t-30 67t31.5 66.5t74.5 28.5t74.5 -28.5t31.5 -66.5zM299 107q-50 0 -85 31.5t-35 78.5q0 48 32.5 83t87.5 35t87.5 -35t32.5 -83q0 -47 -34.5 -78.5t-85.5 -31.5z" />
    <glyph glyph-name="nine.osf" horiz-adv-x="615" 
d="M303 8q-108 0 -183 70.5t-75 174.5q0 106 72.5 176.5t188.5 70.5q122 0 193 -89.5t71 -235.5q0 -68 -15 -133.5t-45.5 -124.5t-73 -104t-102.5 -72.5t-129 -30.5q-10 -1 -16 4.5t-6 14.5l-3 94q0 15 20 15q61 0 112 33t80 80t38 98q-57 -41 -127 -41zM307 373
q-50 0 -85.5 -36t-35.5 -85.5t35.5 -85t84.5 -35.5q50 0 87.5 36t37.5 82q0 52 -35.5 88t-88.5 36z" />
    <glyph glyph-name="zero.dnom" horiz-adv-x="355" 
d="M177 -8q-69 0 -103 49.5t-34 128.5q0 81 34 131.5t103 50.5q70 0 104 -50.5t34 -131.5q0 -79 -34 -128.5t-104 -49.5zM177 72q37 0 50.5 25.5t13.5 72.5q0 48 -13.5 74.5t-50.5 26.5t-50.5 -27t-13.5 -74q0 -46 13.5 -72t50.5 -26z" />
    <glyph glyph-name="one.dnom" horiz-adv-x="266" 
d="M203 351q5 0 9 -3.5t4 -8.5v-326q0 -5 -4 -9t-9 -4h-64q-13 0 -13 13v213l-61 -5q-15 -2 -15 10v42q0 11 10 14q35 10 70 53l3 6q5 5 11 5h59z" />
    <glyph glyph-name="two.dnom" horiz-adv-x="333" 
d="M284 79q9 0 9 -9v-59q0 -11 -9 -11h-218q-5 0 -8 3.5t-3 7.5v12l46 56l73 92q2 3 11 15t13 18t8 16t4 18q0 20 -15 34t-36 14q-30 0 -65 -38q-7 -9 -14 0l-37 39q-6 6 -1 13q25 34 61 50.5t72.5 12.5t66.5 -26q38 -26 43 -78t-23 -90l-68 -90h90z" />
    <glyph glyph-name="three.dnom" horiz-adv-x="325" 
d="M203 209q26 -5 46.5 -24.5t29.5 -44.5t5.5 -53.5t-20.5 -49.5q-45 -50 -110 -45.5t-113 61.5q-6 7 0 13l36 37q5 6 12 -1q10 -11 22 -20t27 -16t30.5 -5.5t27.5 12.5q14 13 16 30t-7 28.5t-24.5 17.5t-34.5 -3q-5 -5 -12 2l-30 36q-5 7 0 13l71 84h-114q-9 0 -9 8v55
q0 11 9 11h205q9 0 9 -10v-54q0 -3 -2 -5z" />
    <glyph glyph-name="four.dnom" horiz-adv-x="321" 
d="M272 152q9 0 9 -10v-55q0 -4 -3 -6.5t-6 -2.5h-21v-69q0 -9 -8 -9h-56q-10 0 -10 9v69h-127q-9 0 -9 9l-1 54q0 4 4 8v1q66 50 95 124q14 38 14 75q0 10 9 10h59q8 0 8 -10q0 -60 -34 -132q-16 -31 -59 -65h41v9q0 4 2.5 7t6.5 3l56 5q9 0 9 -11v-13h21z" />
    <glyph glyph-name="five.dnom" horiz-adv-x="323" 
d="M132 216q39 10 69.5 3t49.5 -29t27 -48t2.5 -54t-23.5 -48q-42 -47 -104.5 -44.5t-108.5 56.5q-5 7 2 14l34 36q8 8 14 -3q15 -22 43 -32.5t52 6.5q20 17 17 42t-23 35t-50 -3h-1l-5 1h-8l-50 5q-9 0 -9 12l-2 127v2v55q0 4 3 7t7 3h184q10 0 10 -9v-56q0 -8 -10 -8h-120
v-70z" />
    <glyph glyph-name="six.dnom" horiz-adv-x="310" 
d="M159 224q51 0 86 -32.5t35 -80.5q0 -49 -35.5 -83t-85.5 -34q-36 0 -65.5 19t-43.5 49q-19 35 -19 88q-2 85 42 142q22 27 56 48t76 22q7 0 9 -9l5 -52q1 -4 -2 -6.5t-8 -2.5q-35 0 -59.5 -22t-35.5 -55q21 9 45 9zM157 59q21 0 36.5 15t15.5 36t-15.5 36.5t-36.5 15.5
q-23 0 -38 -16.5t-13 -38t15.5 -35t35.5 -13.5z" />
    </font>
</defs>
</svg>
