<svg width="203" height="88" viewBox="0 0 203 88" xmlns="http://www.w3.org/2000/svg"><g fill="none" fill-rule="evenodd"><g><g><g><g fill="#FF1A53"><path d="M18.808 13.333c1.76 2.917 1.462 6.037-.662 6.97-2.124.934-4.622-.958-5.582-4.226-.96-3.27-.665-6.39.66-6.972 1.327-.583 3.827 1.31 5.584 4.228" id="Fill-84"/><path d="M3.147 13.333c-1.76 2.917-1.462 6.037.662 6.97 2.123.934 4.62-.958 5.58-4.226.962-3.27.666-6.39-.66-6.972-1.325-.583-3.825 1.31-5.583 4.228" id="Fill-85"/><path d="M19.936 28.655c0 .915-1.328 1.655-2.968 1.655-1.638 0-2.968-.74-2.968-1.655S15.33 27 16.968 27c1.64 0 2.968.74 2.968 1.655" id="Fill-86"/><path d="M.41 9.452c-.547.546-.547 1.432 0 1.978.546.546 1.432.547 1.98 0l4.04-4.042c.548-.547.547-1.433 0-1.98-.545-.544-1.43-.545-1.978 0L.41 9.453" id="Fill-87"/><path d="M18.388 5.41c-.546-.546-1.432-.546-1.978 0-.546.545-.547 1.43 0 1.978l4.042 4.043c.547.547 1.433.546 1.98 0 .545-.546.546-1.43 0-1.98l-4.044-4.04" id="Fill-88"/><path d="M34.228 12.566c-.418 2.824-2.948 4.412-5.092 3.636-2.157-.774-3.37-2.92-3.098-4.852C26.92 9.84 29.696.38 29.136.02c.42-.528 6.174 9.254 5.092 12.546" id="Fill-89"/></g><g fill="#B0DAEB"><path d="M68.894 12.947c0 2.732-2.215 4.946-4.946 4.946-2.733 0-4.948-2.214-4.948-4.946C59 10.214 61.215 8 63.948 8c2.73 0 4.946 2.214 4.946 4.947" id="Fill-103"/><path d="M80.754 12.377c0 1.865-1.512 3.376-3.377 3.376-1.865 0-3.377-1.51-3.377-3.376C74 10.512 75.512 9 77.377 9c1.865 0 3.377 1.512 3.377 3.377" id="Fill-104"/><path d="M75.312 27.062c0 1.14-.922 2.063-2.062 2.063h-6.188c-1.138 0-2.062-.924-2.062-2.063 0-1.14.924-2.062 2.062-2.062h6.188c1.14 0 2.062.923 2.062 2.062" id="Fill-105"/></g><g fill="#61D2FF"><path d="M122.754 13.377c0 1.865-1.51 3.377-3.377 3.377-1.865 0-3.377-1.512-3.377-3.377 0-1.866 1.512-3.377 3.377-3.377 1.866 0 3.377 1.51 3.377 3.377" id="Fill-94"/><path d="M138.754 13.377c0 1.865-1.512 3.377-3.377 3.377-1.866 0-3.377-1.512-3.377-3.377 0-1.866 1.51-3.377 3.377-3.377 1.865 0 3.377 1.51 3.377 3.377" id="Fill-95"/><path d="M134.616 24.908c.345.905.053 2.25-.686 2.85-4.133 3.365-8.967 3.365-13.1 0-.74-.602-1.03-1.945-.686-2.85.345-.908 1.094-1.148 1.7-.66 3.494 2.846 7.58 2.846 11.073 0 .604-.488 1.353-.25 1.7.66" id="Fill-96"/></g><g fill="#13E03C"><path d="M186.754 13.377c0 1.865-1.51 3.377-3.377 3.377-1.865 0-3.377-1.512-3.377-3.377 0-1.865 1.512-3.377 3.377-3.377 1.866 0 3.377 1.512 3.377 3.377" id="Fill-151"/><path d="M202.754 13.377c0 1.865-1.512 3.377-3.377 3.377-1.866 0-3.377-1.512-3.377-3.377 0-1.865 1.51-3.377 3.377-3.377 1.865 0 3.377 1.512 3.377 3.377" id="Fill-152"/><path d="M198.617 24.908c.345.906.053 2.25-.686 2.85-4.133 3.365-8.967 3.365-13.1 0-.74-.602-1.03-1.944-.685-2.85.346-.908 1.094-1.148 1.7-.66 3.493 2.846 7.58 2.846 11.073 0 .604-.488 1.353-.25 1.7.66" id="Fill-153"/><path d="M179.498 20.72c-2.232-2.293-5.853-2.293-8.086 0l-.338.352-.312-.323c-2.234-2.296-5.854-2.296-8.088-.002-2.232 2.296-2.232 6.018 0 8.313l8.414 8.19.572-.588 7.838-7.628c2.235-2.295 2.235-6.016 0-8.313" id="Fill-154"/></g></g><g fill="#fff"><g><path d="M18.808 63.333c1.76 2.917 1.462 6.037-.662 6.97-2.124.934-4.622-.958-5.582-4.226-.96-3.27-.665-6.39.66-6.972 1.327-.583 3.827 1.31 5.584 4.228"/><path d="M3.147 63.333c-1.76 2.917-1.462 6.037.662 6.97 2.123.934 4.62-.958 5.58-4.226.962-3.27.666-6.39-.66-6.972-1.325-.583-3.825 1.31-5.583 4.228"/><path d="M19.936 78.655c0 .915-1.328 1.655-2.968 1.655-1.638 0-2.968-.74-2.968-1.655S15.33 77 16.968 77c1.64 0 2.968.74 2.968 1.655"/><path d="M.41 59.452c-.547.546-.547 1.432 0 1.978.546.546 1.432.547 1.98 0l4.04-4.042c.548-.547.547-1.433 0-1.98-.545-.544-1.43-.545-1.978 0L.41 59.453"/><path d="M18.388 55.41c-.546-.546-1.432-.546-1.978 0s-.547 1.432 0 1.98l4.042 4.04c.547.548 1.433.547 1.98 0 .545-.545.546-1.43 0-1.978l-4.044-4.042"/><path d="M34.228 62.566c-.418 2.824-2.948 4.412-5.092 3.636-2.157-.774-3.37-2.92-3.098-4.852.882-1.51 3.658-10.97 3.098-11.33.42-.528 6.174 9.254 5.092 12.546"/></g><g><path d="M68.894 62.947c0 2.732-2.215 4.946-4.946 4.946-2.733 0-4.948-2.214-4.948-4.946C59 60.214 61.215 58 63.948 58c2.73 0 4.946 2.214 4.946 4.947"/><path d="M80.754 62.377c0 1.865-1.512 3.376-3.377 3.376-1.865 0-3.377-1.51-3.377-3.376C74 60.512 75.512 59 77.377 59c1.865 0 3.377 1.512 3.377 3.377"/><path d="M75.312 77.062c0 1.14-.922 2.063-2.062 2.063h-6.188c-1.138 0-2.062-.924-2.062-2.063 0-1.14.924-2.062 2.062-2.062h6.188c1.14 0 2.062.923 2.062 2.062"/></g><g><path d="M122.754 63.377c0 1.865-1.51 3.377-3.377 3.377-1.865 0-3.377-1.512-3.377-3.377 0-1.866 1.512-3.377 3.377-3.377 1.866 0 3.377 1.51 3.377 3.377"/><path d="M138.754 63.377c0 1.865-1.512 3.377-3.377 3.377-1.866 0-3.377-1.512-3.377-3.377 0-1.866 1.51-3.377 3.377-3.377 1.865 0 3.377 1.51 3.377 3.377"/><path d="M134.616 74.908c.345.905.053 2.25-.686 2.85-4.133 3.365-8.967 3.365-13.1 0-.74-.602-1.03-1.945-.686-2.85.345-.908 1.094-1.148 1.7-.66 3.494 2.846 7.58 2.846 11.073 0 .604-.488 1.353-.25 1.7.66"/></g><g><path d="M186.754 63.377c0 1.865-1.51 3.377-3.377 3.377-1.865 0-3.377-1.512-3.377-3.377 0-1.865 1.512-3.377 3.377-3.377 1.866 0 3.377 1.512 3.377 3.377"/><path d="M202.754 63.377c0 1.865-1.512 3.377-3.377 3.377-1.866 0-3.377-1.512-3.377-3.377 0-1.865 1.51-3.377 3.377-3.377 1.865 0 3.377 1.512 3.377 3.377"/><path d="M198.617 74.908c.345.906.053 2.25-.686 2.85-4.133 3.365-8.967 3.365-13.1 0-.74-.602-1.03-1.944-.685-2.85.346-.908 1.094-1.148 1.7-.66 3.493 2.846 7.58 2.846 11.073 0 .604-.488 1.353-.25 1.7.66"/><path d="M179.498 70.72c-2.232-2.293-5.853-2.293-8.086 0l-.338.352-.312-.324c-2.234-2.293-5.854-2.293-8.088 0-2.232 2.297-2.232 6.02 0 8.313l8.414 8.19.572-.588 7.838-7.63c2.235-2.293 2.235-6.014 0-8.31"/></g></g></g></g></g></svg>