<svg width="48" height="48" viewBox="0 0 48 48" fill="none" xmlns="http://www.w3.org/2000/svg">
<path d="M9.53474 9.21604L11.5299 11.196L13.1622 12.8435L14.5905 14.2794L16.0189 15.7153C16.5025 16.1838 16.17 17 15.4898 17H9.00574C8.58253 17 8.25001 16.6675 8.25001 16.2443V9.76016C8.24914 9.61096 8.29245 9.46484 8.37448 9.34021C8.45652 9.21558 8.57361 9.11803 8.711 9.05984C8.84839 9.00165 8.99993 8.98543 9.14652 9.01323C9.29311 9.04103 9.42819 9.1116 9.53474 9.21604Z" fill="#1DB07B"/>
<path d="M11.046 13.9388C14.0321 10.316 18.5965 8 23.7116 8C32.7074 8 40 15.1634 40 24C40 32.8366 32.7074 40 23.7116 40C16.2084 40 9.89013 35.0165 8 28.2353" stroke="#1DB07B" stroke-width="2" stroke-linecap="round"/>
</svg>
