<svg width="25" height="24" viewBox="0 0 25 24" fill="none" xmlns="http://www.w3.org/2000/svg">
<path d="M8.5 12L11.5 15L16.5 10" stroke="#04101E" stroke-width="2" stroke-linecap="round" stroke-linejoin="round"/>
<path d="M3.5 12C3.5 10.8181 3.73279 9.64778 4.18508 8.55585C4.63738 7.46392 5.30031 6.47177 6.13604 5.63604C6.97177 4.80031 7.96392 4.13738 9.05585 3.68508C10.1478 3.23279 11.3181 3 12.5 3C13.6819 3 14.8522 3.23279 15.9442 3.68508C17.0361 4.13738 18.0282 4.80031 18.864 5.63604C19.6997 6.47177 20.3626 7.46392 20.8149 8.55585C21.2672 9.64778 21.5 10.8181 21.5 12C21.5 14.3869 20.5518 16.6761 18.864 18.364C17.1761 20.0518 14.8869 21 12.5 21C10.1131 21 7.82387 20.0518 6.13604 18.364C4.44821 16.6761 3.5 14.3869 3.5 12V12Z" stroke="#04101E" stroke-width="2" stroke-linecap="round"/>
</svg>
