<svg width="25" height="24" viewBox="0 0 25 24" fill="none" xmlns="http://www.w3.org/2000/svg">
<path d="M16.84 9.3218C16.9361 9.23224 17.0136 9.12464 17.068 9.00513C17.1225 8.88563 17.1529 8.75656 17.1575 8.62531C17.1621 8.49405 17.1408 8.36318 17.0948 8.24015C17.0488 8.11713 16.9791 8.00437 16.8895 7.90831C16.7999 7.81224 16.6923 7.73476 16.5728 7.68029C16.4533 7.62581 16.3243 7.59541 16.193 7.59081C16.0618 7.58621 15.9309 7.60751 15.8079 7.6535C15.6848 7.69948 15.5721 7.76924 15.476 7.85881L12.55 10.5868L9.82201 7.65981C9.63948 7.47285 9.39102 7.36476 9.1298 7.35867C8.86859 7.35258 8.61536 7.44897 8.42431 7.62721C8.23327 7.80545 8.11957 8.05139 8.10755 8.3124C8.09553 8.57341 8.18615 8.82876 8.36001 9.02381L11.088 11.9498L8.16101 14.6778C8.06155 14.7665 7.98082 14.8741 7.92354 14.9944C7.86626 15.1147 7.8336 15.2452 7.82747 15.3783C7.82135 15.5114 7.84188 15.6444 7.88786 15.7694C7.93384 15.8944 8.00434 16.009 8.09523 16.1065C8.18612 16.2039 8.29555 16.2822 8.41711 16.3367C8.53867 16.3912 8.66991 16.4209 8.8031 16.424C8.9363 16.4271 9.06877 16.4036 9.19274 16.3548C9.31671 16.306 9.42968 16.2329 9.52501 16.1398L12.451 13.4128L15.179 16.3388C15.2671 16.4401 15.3747 16.5226 15.4953 16.5814C15.616 16.6403 15.7472 16.6742 15.8813 16.6812C16.0153 16.6883 16.1494 16.6682 16.2756 16.6223C16.4017 16.5764 16.5173 16.5056 16.6155 16.414C16.7137 16.3225 16.7924 16.2121 16.8471 16.0895C16.9017 15.9669 16.9311 15.8345 16.9334 15.7003C16.9358 15.5661 16.9112 15.4328 16.8609 15.3083C16.8107 15.1839 16.7359 15.0708 16.641 14.9758L13.914 12.0498L16.84 9.3218Z" fill="#333333" fill-opacity="0.4"/>
<path fill-rule="evenodd" clip-rule="evenodd" d="M1.5 12C1.5 5.925 6.425 1 12.5 1C18.575 1 23.5 5.925 23.5 12C23.5 18.075 18.575 23 12.5 23C6.425 23 1.5 18.075 1.5 12ZM12.5 21C11.3181 21 10.1478 20.7672 9.05585 20.3149C7.96392 19.8626 6.97177 19.1997 6.13604 18.364C5.30031 17.5282 4.63738 16.5361 4.18508 15.4442C3.73279 14.3522 3.5 13.1819 3.5 12C3.5 10.8181 3.73279 9.64778 4.18508 8.55585C4.63738 7.46392 5.30031 6.47177 6.13604 5.63604C6.97177 4.80031 7.96392 4.13738 9.05585 3.68508C10.1478 3.23279 11.3181 3 12.5 3C14.8869 3 17.1761 3.94821 18.864 5.63604C20.5518 7.32387 21.5 9.61305 21.5 12C21.5 14.3869 20.5518 16.6761 18.864 18.364C17.1761 20.0518 14.8869 21 12.5 21Z" fill="#333333" fill-opacity="0.4"/>
</svg>
