<svg width="65" height="14" viewBox="0 0 65 14" fill="none" xmlns="http://www.w3.org/2000/svg">
<path d="M32.8781 2.71347V0.843623C32.8781 0.546365 32.6356 0.306641 32.3349 0.306641H21.9561C21.6554 0.306641 21.4129 0.546365 21.4129 0.843623V13.1079C21.4129 13.4052 21.6554 13.6449 21.9561 13.6449H32.3349C32.6356 13.6449 32.8781 13.4052 32.8781 13.1079V11.2477C32.8781 10.9504 32.6356 10.7107 32.3349 10.7107H24.9145C24.8369 10.7107 24.7787 10.6531 24.7787 10.5764V8.44767C24.7787 8.37096 24.8369 8.31343 24.9145 8.31343H32.3349C32.6356 8.31343 32.8781 8.0737 32.8781 7.77644V6.17509C32.8781 5.87783 32.6356 5.63811 32.3349 5.63811H24.9145C24.8369 5.63811 24.7787 5.58057 24.7787 5.50386V3.37511C24.7787 3.2984 24.8369 3.24086 24.9145 3.24086H32.3349C32.6453 3.25045 32.8781 3.01073 32.8781 2.71347Z" fill="#D90007"/>
<path d="M61.7354 13.6449H64.0925C64.3932 13.6449 64.5872 13.338 64.4611 13.0696L58.4957 0.910747C58.3114 0.546367 57.9428 0.306641 57.5257 0.306641H56.1774C55.7603 0.306641 55.3917 0.536778 55.2074 0.910747L49.242 13.0696C49.1159 13.338 49.3099 13.6449 49.6106 13.6449H51.9677C52.2781 13.6449 52.5594 13.4723 52.6952 13.1942L53.8397 10.8641C53.8882 10.7682 53.9755 10.7107 54.0822 10.7107H59.6306C59.7373 10.7107 59.8246 10.7682 59.8731 10.8641L61.0176 13.1942C61.1437 13.4723 61.425 13.6449 61.7354 13.6449ZM55.1686 8.12165L56.7206 4.95729C56.7691 4.8614 56.9146 4.8614 56.9631 4.95729L58.5151 8.12165C58.5539 8.20795 58.4957 8.31343 58.389 8.31343H55.285C55.1977 8.31343 55.1298 8.20795 55.1686 8.12165Z" fill="#D90007"/>
<path d="M15.8353 0.623078L9.80198 6.58741C9.69528 6.69289 9.53038 6.69289 9.42368 6.58741L3.38067 0.623078C3.17698 0.42171 2.90538 0.306641 2.61439 0.306641H1.04301C0.742314 0.306641 0.499817 0.546365 0.499817 0.843623V13.1079C0.499817 13.4052 0.742314 13.6449 1.04301 13.6449H3.33217C3.63287 13.6449 3.87536 13.4052 3.87536 13.1079V6.13673C3.87536 6.0792 3.94326 6.05043 3.99176 6.08879L8.84169 10.8833C9.25878 11.2956 9.94747 11.2956 10.3646 10.8833L15.2145 6.08879C15.2533 6.05043 15.3309 6.0792 15.3309 6.13673V13.1079C15.3309 13.4052 15.5734 13.6449 15.8741 13.6449H18.1632C18.4639 13.6449 18.7064 13.4052 18.7064 13.1079V0.843623C18.7064 0.546365 18.4639 0.306641 18.1632 0.306641H16.5919C16.3106 0.31623 16.039 0.42171 15.8353 0.623078Z" fill="#D90007"/>
<path d="M47.9124 5.78225H42.5871C42.2865 5.78225 42.044 6.02198 42.044 6.31924V7.6521C42.044 7.94936 42.2865 8.18909 42.5871 8.18909H45.6426C45.7396 8.18909 45.7978 8.28497 45.7687 8.37127C45.1867 9.89592 43.6735 10.9795 41.9082 10.9219C39.8518 10.8548 38.164 9.21511 38.067 7.18224C37.9603 4.92884 39.7839 3.06858 42.044 3.06858C42.9654 3.06858 43.819 3.38501 44.498 3.90282C44.7114 4.06583 45.0218 4.05624 45.2158 3.86446L46.6514 2.4453C46.8745 2.22475 46.8551 1.86037 46.6126 1.659C45.3613 0.613802 43.7414 -0.00947991 41.9761 0.000109058C38.0864 0.028876 34.9243 3.21241 34.9631 7.06717C35.0019 10.9028 38.1543 14 42.044 14C45.953 14 49.1248 10.8644 49.1248 7.00005V6.99046C49.1248 6.30965 48.5817 5.78225 47.9124 5.78225Z" fill="#D90007"/>
</svg>
