<?xml version="1.0" encoding="UTF-8"?>
<svg width="64px" height="64px" viewBox="0 0 64 64" version="1.1" xmlns="http://www.w3.org/2000/svg" xmlns:xlink="http://www.w3.org/1999/xlink">
    <title>64/icon/Successful6</title>
    <g id="64/icon/Successful" stroke="none" stroke-width="1" fill="none" fill-rule="evenodd">
        <rect id="Rectangle" x="0" y="0" width="64" height="64"></rect>
        <polygon id="Star-Copy" stroke="#27A862" stroke-width="2" stroke-linejoin="round" points="32 53.6 25.7883429 55.1822198 21.2 50.7061487 15.0294373 48.9705627 13.2938513 42.8 8.81778017 38.2116571 10.4 32 8.81778017 25.7883429 13.2938513 21.2 15.0294373 15.0294373 21.2 13.2938513 25.7883429 8.81778017 32 10.4 38.2116571 8.81778017 42.8 13.2938513 48.9705627 15.0294373 50.7061487 21.2 55.1822198 25.7883429 53.6 32 55.1822198 38.2116571 50.7061487 42.8 48.9705627 48.9705627 42.8 50.7061487 38.2116571 55.1822198"></polygon>
        <polygon id="Star" stroke="#27A862" stroke-width="2" stroke-linejoin="round" points="32 48.2 27.3412572 49.3866649 23.9 46.0296115 19.2720779 44.7279221 17.9703885 40.1 14.6133351 36.6587428 15.8 32 14.6133351 27.3412572 17.9703885 23.9 19.2720779 19.2720779 23.9 17.9703885 27.3412572 14.6133351 32 15.8 36.6587428 14.6133351 40.1 17.9703885 44.7279221 19.2720779 46.0296115 23.9 49.3866649 27.3412572 48.2 32 49.3866649 36.6587428 46.0296115 40.1 44.7279221 44.7279221 40.1 46.0296115 36.6587428 49.3866649"></polygon>
        <polyline id="Path-14" stroke="#27A862" stroke-width="2" stroke-linecap="round" stroke-linejoin="round" points="27 32 31 36 38 28"></polyline>
    </g>
</svg>