<?xml version="1.0" encoding="UTF-8"?>
<svg width="64px" height="64px" viewBox="0 0 64 64" version="1.1" xmlns="http://www.w3.org/2000/svg" xmlns:xlink="http://www.w3.org/1999/xlink">
    <title>64/icon/Error</title>
    <g id="64/icon/Error" stroke="none" stroke-width="1" fill="none" fill-rule="evenodd">
        <rect id="Rectangle" x="0" y="0" width="64" height="64"></rect>
        <path d="M26.7905411,13.116553 L9.12961922,44.0231664 C7.4855594,46.900271 8.48513976,50.565399 11.3622444,52.2094589 C12.2688306,52.7275081 13.2949164,53 14.3390781,53 L49.6609219,53 C52.9746304,53 55.6609219,50.3137085 55.6609219,47 C55.6609219,45.9558384 55.38843,44.9297525 54.8703808,44.0231664 L37.2094589,13.116553 C35.565399,10.2394483 31.900271,9.23986795 29.0231664,10.8839278 C28.0929787,11.4154636 27.322077,12.1863653 26.7905411,13.116553 Z" id="Path-16-Copy" stroke="#E95C5C" stroke-width="2" stroke-linejoin="round"></path>
        <path d="M30.254113,17.1242188 L14.6628592,45.0243573 C14.1240266,45.988584 14.4688767,47.2070544 15.4331034,47.745887 C15.7312818,47.9125161 16.067168,48 16.4087461,48 L47.5912539,48 C48.6958234,48 49.5912539,47.1045695 49.5912539,46 C49.5912539,45.6584219 49.50377,45.3225357 49.3371408,45.0243573 L33.745887,17.1242188 C33.2070544,16.159992 31.988584,15.8151419 31.0243573,16.3539745 C30.7012895,16.5345124 30.4346509,16.8011509 30.254113,17.1242188 Z" id="Path-16" stroke="#E95C5C" stroke-width="2" stroke-linejoin="round"></path>
        <circle id="Oval" fill="#E95C5C" cx="32" cy="42" r="2"></circle>
        <polygon id="Path-17" stroke="#E95C5C" stroke-width="2" stroke-linecap="round" stroke-linejoin="round" points="32 37 31 28 33 28"></polygon>
    </g>
</svg>