<?xml version="1.0" encoding="UTF-8"?>
<svg width="232px" height="287px" viewBox="0 0 232 287" version="1.1" xmlns="http://www.w3.org/2000/svg" xmlns:xlink="http://www.w3.org/1999/xlink">
    <title>Hand illustration Copy 2</title>
    <defs>
        <polygon id="path-1" points="-1.93846517e-14 0 113.624048 0 113.624048 272.203583 -1.93846517e-14 272.203583"></polygon>
        <polygon id="path-3" points="-2.42308146e-15 0 27.651685 0 27.651685 30.5644447 -2.42308146e-15 30.5644447"></polygon>
        <polygon id="path-5" points="0 0 29.5556924 0 29.5556924 28.5149583 0 28.5149583"></polygon>
    </defs>
    <g id="OH_RYIP_Final" stroke="none" stroke-width="1" fill="none" fill-rule="evenodd">
        <g id="OH_RYIP_6.1" transform="translate(-152.000000, -1324.000000)">
            <g id="Hand-illustration-Copy-2" transform="translate(152.000000, 1324.000000)">
                <rect id="Rectangle" x="0" y="24" width="232" height="263"></rect>
                <g id="Hand_illustration-Copy-2" transform="translate(116.000000, 140.000000) rotate(-180.000000) translate(-116.000000, -140.000000) translate(0.000000, 0.000000)">
                    <g id="Group-3" transform="translate(72.336865, 7.796417)">
                        <mask id="mask-2" fill="white">
                            <use xlink:href="#path-1"></use>
                        </mask>
                        <g id="Clip-2"></g>
                        <path d="M84.7550339,124.363078 C83.6146683,126.737867 82.4688465,128.979579 81.8522852,131.576617 C81.1866173,134.372584 81.0106518,137.285163 80.9438122,140.156585 C80.8428708,144.46166 80.9083463,148.79143 80.9970111,153.111596 C58.3302001,149.223584 35.1163956,152.671211 12.2927162,152.672583 C12.1003818,146.295913 11.8903145,139.920616 11.6556938,133.54669 C10.8277012,111.062344 9.75281118,88.5889743 8.54014975,66.1252076 C7.96996699,55.5737951 7.33976499,45.030614 6.6672767,34.4874329 C6.37955755,29.9724545 6.19667131,25.4355254 6.67136893,20.9260347 C7.07786286,17.0709483 7.90449146,12.8481882 10.138844,9.66396919 C10.6612842,8.91764642 11.362418,7.94770119 12.232697,7.62804457 C12.9570201,7.36052078 12.9311027,7.41402554 13.3785188,7.79541842 C14.382477,8.65149454 15.5064736,10.3691345 16.2430734,11.8082752 C18.3273778,15.871893 18.7038621,20.4719302 19.4322774,25.1282161 C21.2383109,36.6564334 22.5764671,48.2628501 23.6922793,59.8871017 C24.0346617,63.4582013 29.9765663,62.4073129 29.988843,59.1462666 C30.0174885,50.8598887 30.7077098,42.5968335 31.0814659,34.3241748 C31.3679214,27.9955223 31.0419078,21.8589382 33.2544352,15.8485704 C34.1288064,13.4710385 35.4505937,10.6997664 37.0492879,9.2661133 C37.0165502,9.29629547 37.3384715,9.03700318 37.4926119,8.90255533 C37.6576648,8.80652115 37.9536687,8.62131237 37.9318436,8.63091579 C37.9864065,8.60484937 38.0246006,8.58701445 38.0627946,8.56780762 C38.4515556,8.49098027 38.3587986,8.46765769 38.7011811,8.54722886 C40.1784728,8.89020808 41.3815857,11.4776433 42.0199721,12.7507821 C43.5177249,15.740189 44.0019711,18.9765408 44.3116158,22.3020673 C44.6280808,25.707165 45.0495796,29.0985435 45.3701369,32.5036411 C46.1681199,40.9903188 46.6059876,49.5085506 47.3794173,57.9966002 C47.7108872,61.6280642 53.4604574,60.459191 53.675981,57.257137 C54.102936,50.9147654 54.787701,44.5943444 55.4560971,38.2780392 C56.1013039,32.1881002 56.5391715,26.0487723 57.3412468,19.980784 C57.7054544,17.2191153 58.1924287,14.451959 59.1718335,11.8521766 C59.9316225,9.84094646 61.1183666,7.26723043 63.1262829,6.33981463 C65.2024029,5.38084475 66.4396177,7.6307884 67.1557563,9.32373381 C68.4584466,12.4036872 69.1295708,15.8375951 69.5524336,19.1644935 C70.4936444,26.5632411 70.1267086,34.2569509 70.1758152,41.7119471 C70.2249219,48.9433209 70.2221937,56.1746946 70.208553,63.4060684 C70.2003686,67.1706083 70.1294367,70.9365201 70.1485338,74.7010599 C70.1649027,77.7467154 70.3776981,80.4123498 72.116892,82.9462803 C74.8068451,86.8685906 80.0012374,88.9045152 84.4958599,87.8838091 C89.53884,86.7382585 92.5357097,81.7732914 95.285682,77.6301024 C96.1286795,76.3597074 96.9839537,75.0989158 97.8842422,73.8737941 C98.3562117,73.231737 98.8390937,72.5992833 99.3356165,71.977805 C99.6629942,71.5662299 99.9985563,71.1615144 100.335482,70.7581709 C100.443244,70.6319545 100.55237,70.5057382 100.660132,70.3795218 C100.671045,70.3712903 100.69287,70.3507116 100.758345,70.2834876 C101.047529,70.0049885 101.354445,69.7402086 101.677731,69.5042389 C101.720017,69.5056108 102.292928,69.1790946 102.403418,69.1255898 C102.425243,69.1146145 102.453889,69.1036391 102.485262,69.0912919 C102.624398,69.0487625 102.763533,69.006233 102.905397,68.9705632 C102.992698,68.9486125 103.079999,68.9348934 103.167299,68.9170585 C103.205493,68.9211742 103.59289,68.8731571 103.673371,68.8704133 C104.633678,68.8402311 105.433026,69.1941857 106.267839,70.146296 C106.677061,70.6127477 106.318309,70.080444 106.614313,70.6552771 C106.803919,71.0256947 106.983977,71.4153191 107.106744,71.8186626 C107.08219,71.8104311 107.245879,72.6527881 107.256792,72.7351031 C107.320903,73.2523157 107.331816,73.6981887 107.301806,74.1618966 C107.125841,76.9043584 105.932276,79.3120725 104.772814,81.7197866 C103.494677,84.3744457 102.232909,87.0373364 100.979325,89.7043427 C95.5530404,101.247651 90.2754397,112.869159 84.7550339,124.363078 M12.7728701,170.728381 C12.6610161,165.899233 12.5314291,161.070086 12.3922936,156.240939 C35.2487108,155.987134 58.4870686,152.579293 81.0856759,157.352191 C81.0965885,157.844709 81.1075011,158.3386 81.1170496,158.831118 C81.181161,161.981039 81.2943791,165.126844 81.4280583,168.27265 C58.7053204,163.576578 35.6592969,171.257941 12.7728701,170.728381 M105.602171,93.9627727 C106.92805,91.1311363 108.259386,88.3022437 109.605727,85.4815826 C110.938427,82.6897318 112.354335,79.9843118 113.125037,76.9455159 C114.279043,72.3962396 113.560176,67.1390542 109.608455,64.3595506 C106.015485,61.8311079 101.317615,62.6405388 97.9224363,65.1017577 C95.5312153,66.8358606 93.69108,69.5783224 91.9805317,72.0038714 C90.3286386,74.3471054 88.8595313,76.8385064 87.1189734,79.1117727 C86.3973785,80.0542795 85.9376857,80.5893271 85.0428534,81.3191869 C84.8887131,81.4467752 84.7250242,81.5729915 84.5599713,81.6896044 C84.5108647,81.712927 84.4467532,81.7444811 84.3430836,81.796614 C84.2885207,81.8226804 84.2503266,81.8418872 84.2121326,81.861094 C83.9720556,81.9392933 83.7156098,81.9969138 83.4659843,82.0380713 C83.3786836,82.0449309 83.2340918,82.0586501 83.201354,82.060022 C82.9217189,82.0682535 82.6407198,82.0641377 82.3610847,82.0408152 C82.2246773,82.0284679 81.699509,81.9351776 81.272554,81.8144489 C80.4172798,81.5716196 79.5660979,81.168276 78.7653867,80.5358224 C77.1448673,79.254452 76.5610438,77.5765977 76.4832916,75.393878 C76.3468842,71.6375696 76.4955682,67.8606825 76.5023886,64.1030022 C76.5173934,56.4408465 76.5255778,48.7786908 76.4791993,41.1179071 C76.4328208,33.4639829 76.8106692,25.5631137 75.8885555,17.9626943 C75.4411393,14.2763537 74.6117826,10.5762939 73.3268253,7.10945999 C72.2819449,4.28879892 70.560484,1.67666922 67.7723176,0.587367231 C61.2506817,-1.96302622 55.6293344,4.27233592 53.3772489,10.0494778 C51.8481224,13.9759039 51.2192845,18.1533907 50.7773246,22.3500844 C50.7063928,21.6682417 50.6300047,20.986399 50.5645291,20.3045564 C50.1716759,16.2711208 49.3436833,12.225338 47.3303106,8.71460272 C45.0482155,4.73192807 41.6407597,1.24039966 36.8596817,2.80850063 C33.7673269,3.82371911 31.4129358,6.39057556 29.7569505,9.23318729 C28.0123004,12.2280818 26.8473815,15.4534583 25.9975637,18.8407211 C25.7724915,19.7379547 25.6074386,20.624213 25.4737594,21.5090994 C25.0290714,18.2919543 24.5120875,15.0487429 23.4958527,12.0511045 C22.3186572,8.5828987 20.2848234,4.71958082 17.3206915,2.62329185 C13.0797867,-0.374346489 7.933137,2.71383837 5.21726647,6.43036115 C2.50139594,10.1482558 1.15641937,14.9719155 0.535765885,19.551374 C-0.761468106,29.1273537 0.635343258,39.0147585 1.18370084,48.6044574 C2.53004148,72.191824 3.75770772,95.7860502 4.74256886,119.393996 C5.7219737,142.899047 6.46130159,166.417818 6.83232961,189.942076 C7.20335763,213.415574 7.20335763,236.894559 6.70683484,260.365313 C6.64408745,263.314934 6.57315563,266.265927 6.49540343,269.215548 C6.38491347,273.397151 12.6937539,272.984204 12.7906031,269.256706 C13.6104113,238.143003 13.5394795,207.01421 12.881996,175.897763 C15.9088753,175.922458 18.9412109,175.808589 21.9749106,175.601429 C21.6898192,187.541222 21.8357751,199.489246 22.2068031,211.424922 C22.5682826,223.07524 23.390819,234.710467 23.6704541,246.362157 C23.8150459,252.380757 23.8477837,258.400728 23.9814629,264.419327 C23.9896473,264.73624 30.3489584,264.024215 30.321677,262.829275 C30.0816,252.111861 29.9383723,241.420513 29.4036554,230.712702 C28.784366,218.30097 28.3287654,205.878263 28.1950862,193.45144 C28.1296107,187.318971 28.1664407,181.187875 28.3001199,175.056778 C31.2751644,174.754957 34.2529371,174.401002 37.2293457,174.040188 C36.9592591,196.287192 37.0260987,218.538311 37.4544178,240.782571 C37.5799126,247.356797 37.7381451,253.931023 37.9250232,260.503876 C38.0082317,263.44801 43.4154194,264.644321 43.3253906,261.434036 C42.6747275,238.547719 42.388272,215.650426 42.4783009,192.754506 C42.5028542,186.298265 42.5601453,179.842024 42.6433538,173.387156 C45.3060254,173.071615 47.967333,172.778024 50.6272765,172.533823 C49.8893127,195.831715 50.2998989,219.176253 51.8317535,242.430244 C52.28599,249.307663 52.842532,256.178222 53.5013796,263.037807 C53.6596121,264.689595 59.5346771,266.636345 59.4105464,265.348115 C57.0779806,241.063814 56.0180954,216.632719 56.1954249,192.226318 C56.2445316,185.510785 56.3932156,178.795252 56.6373848,172.083835 C60.0857628,171.891766 63.5273205,171.831402 66.9634219,171.974081 C66.6878791,194.793174 66.7710875,217.617755 67.2034989,240.435476 C67.3303577,247.098877 67.4872262,253.760905 67.6768324,260.421561 C67.7259391,262.168011 69.1486678,263.478192 70.7337213,263.74846 C72.060965,263.973454 74.0757017,263.268289 74.026595,261.514979 C73.359563,238.007184 73.0799279,214.487041 73.1658646,190.96827 C73.1876897,184.809735 73.2436168,178.651201 73.3186408,172.492666 C76.1190839,172.837017 78.9140707,173.35423 81.7036012,174.073114 C82.2546869,184.56279 83.0458496,195.041491 83.6569546,205.527052 C84.109827,213.298961 84.4644862,221.079101 84.5381462,228.866102 C84.6118061,236.448686 84.2312296,244.010692 83.9475023,251.583673 C83.8110949,255.220624 83.6528624,258.856204 83.4100573,262.487668 C83.1304222,266.667899 89.4569955,266.25358 89.7052569,262.528826 C90.763778,246.733947 91.1593594,230.841662 90.5100604,215.020717 C89.8484847,198.870511 88.3984744,182.768323 87.7123454,166.618118 C87.4122492,159.551374 87.3958803,152.48463 87.2581089,145.413771 C87.1571675,140.241644 86.7506735,134.128383 88.9822979,129.355484 C94.5027038,117.548767 100.077673,105.768117 105.602171,93.9627727" id="Fill-1" fill="#FAFAFA" mask="url(#mask-2)"></path>
                    </g>
                    <g id="Group-6" transform="translate(19.775909, 0.000000)">
                        <mask id="mask-4" fill="white">
                            <use xlink:href="#path-3"></use>
                        </mask>
                        <g id="Clip-5"></g>
                        <path d="M26.0794708,14.9115016 C22.5710735,13.5039149 18.9944726,12.2856527 15.3401194,11.3719561 C16.0221562,9.37170127 16.7642122,7.39065333 17.5635594,5.43155605 C17.705423,5.08446108 17.2061721,4.09119327 17.0956821,3.85796741 C16.7301104,3.07871863 16.2499565,2.31593285 15.7370648,1.63546209 C15.4697064,1.28150754 14.0265165,-0.659754819 13.663673,0.230619224 C12.3200605,3.52184778 11.1469572,6.87481259 10.1457271,10.2799102 C8.15145155,9.92869952 6.14762743,9.62962164 4.14380332,9.34700677 C2.81246749,9.15905416 0.736347474,9.31270885 0.121150282,10.8506277 C-0.465401365,12.3144629 1.20695287,13.435319 2.37050764,13.599949 C4.57621465,13.9127461 6.78055758,14.2433781 8.97262385,14.6439778 C8.13508267,18.0874891 7.47759919,21.5803894 7.04655194,25.1281664 C6.89650384,26.3738669 8.19373783,28.0215391 8.87441056,28.9242604 C9.04628383,29.1533705 10.8345843,31.257891 10.9478024,30.3291033 C11.550723,25.3559046 12.590147,20.4855998 13.9774099,15.7195606 C15.0904939,16.0049193 16.056258,16.2861623 17.0574881,16.6113066 C18.9794678,17.2355287 20.874166,17.9475536 22.7524953,18.7021079 C24.1247534,19.2522465 26.1708638,19.1850226 27.2184723,17.9544132 C28.2469838,16.7471263 27.2730352,15.3903005 26.0794708,14.9115016" id="Fill-4" fill="#FAFAFA" mask="url(#mask-4)"></path>
                    </g>
                    <g id="Group-9" transform="translate(0.000000, 66.605682)">
                        <mask id="mask-6" fill="white">
                            <use xlink:href="#path-5"></use>
                        </mask>
                        <g id="Clip-8"></g>
                        <path d="M24.3335725,7.80736295 C21.6122457,8.70048082 18.8431763,9.61280554 16.1300339,10.3577564 C15.6798896,8.38082419 15.2515705,6.40937966 14.7946058,4.4763488 C14.4467671,3.00565393 13.2150086,1.62138982 12.1073808,0.715924687 C11.646324,0.340019466 9.95487271,-0.709496933 10.3013474,0.757082192 C11.1184275,4.21294077 11.887765,7.72093218 12.8071506,11.1754188 C9.06549672,11.9930813 5.26655175,12.4952029 1.4771553,12.9904648 C0.0994409652,13.1715579 -0.416178855,14.4433248 0.36679939,15.6327767 C1.2288939,16.9415854 3.08266992,17.7880581 4.58315088,17.591874 C7.81873345,17.1679517 11.0611364,16.734426 14.2694375,16.1115757 C15.3252305,19.2711002 16.6088237,22.3345906 18.3125516,25.2018968 C19.0109573,26.3776296 20.1963373,28.070575 21.5399498,28.4588275 C22.8590089,28.8402204 22.1496907,27.1747133 21.7950315,26.5779294 C19.7611978,23.1563688 18.4339542,19.3465557 17.3781612,15.4352207 C21.1975673,14.5146645 24.9487697,13.3114934 28.6890595,12.0849997 C30.162259,11.602085 29.47613,9.81173348 28.6931517,9.0324847 C27.5787036,7.92123205 25.8245049,7.31758863 24.3335725,7.80736295" id="Fill-7" fill="#FAFAFA" mask="url(#mask-6)"></path>
                    </g>
                    <path d="M230.572907,84.9781767 C228.180322,83.7791214 225.703164,82.7776221 223.1769,81.9531 C223.674787,78.8758905 223.801645,75.732829 223.597034,72.6213215 C223.490637,70.9956001 222.170213,69.3177457 220.691558,68.8595255 C219.271557,68.4177683 218.187118,69.3767382 218.28806,70.9119131 C218.498127,74.1290582 218.240317,77.3297402 217.58829,80.4673141 C214.28996,79.7840995 210.934339,79.4095662 207.562349,79.4068223 C206.216009,79.4054504 204.259927,79.8677864 204.13034,81.6197242 C204.010302,83.2207512 205.861349,84.3663018 207.194049,84.3676737 C210.274128,84.3690456 213.276454,84.6790988 216.213304,85.2772546 C215.16706,88.0402952 213.848,90.6922105 213.082755,93.5732359 C212.347519,96.343136 217.380951,100.342274 218.346715,96.7012063 C218.878704,94.6982077 219.796725,92.844748 220.583796,90.9446432 C221.133517,89.6207434 221.594574,88.2556861 222.009253,86.8769097 C223.685699,87.4736935 225.341684,88.1733711 226.975845,88.9924055 C228.354923,89.6838516 230.36966,89.7387282 231.486836,88.4669613 C232.538537,87.2692779 231.844223,85.6161181 230.572907,84.9781767" id="Fill-10" fill="#FAFAFA"></path>
                    <path d="M208.776102,182.40842 C207.301538,181.80752 205.52415,182.191657 204.200999,182.9956 C201.748395,184.48413 199.174388,185.80803 196.529449,186.952208 C195.608699,185.037012 194.686586,183.123188 193.765836,181.207992 C193.36207,180.367007 192.95694,179.527394 192.553175,178.687781 C191.995269,177.528511 189.913692,178.07865 189.031137,178.405166 C188.448677,178.620557 185.826928,179.723578 186.365737,180.843063 C187.710713,183.636285 189.054326,186.43088 190.399302,189.224103 C188.003989,189.977285 185.586851,190.593276 183.175169,191.029545 C182.176667,191.210638 180.011882,191.729223 180.144197,193.208149 C180.269692,194.607504 182.703199,194.715886 183.583027,194.556743 C186.431212,194.040903 189.228927,193.348085 191.981628,192.513959 C192.997863,194.623967 194.012733,196.733976 195.027604,198.843984 C195.432734,199.684969 195.8365,200.524582 196.240266,201.365567 C196.798172,202.523465 198.879748,201.973326 199.762304,201.64681 C200.344763,201.431419 202.966512,200.32977 202.427703,199.210285 C201.004975,196.253805 199.58361,193.297324 198.160881,190.342215 C201.909355,188.834478 205.55416,187.033151 209.065286,184.902565 C210.249301,184.18368 209.924652,182.877615 208.776102,182.40842" id="Fill-12" fill="#FAFAFA"></path>
                </g>
            </g>
        </g>
    </g>
</svg>