<?xml version="1.0" encoding="UTF-8"?>
<svg width="48px" height="48px" viewBox="0 0 48 48" version="1.1" xmlns="http://www.w3.org/2000/svg" xmlns:xlink="http://www.w3.org/1999/xlink">
    <title>icon/cheap copy</title>
    <defs>
        <polygon id="path-1" points="8.45770512 0 0 0 0 40 27.8052709 40 27.8052709 36.7012044 22.1868907 29.999529 26.9666566 29.999529 26.9666566 17.0081013 35.2173197 17.0081013 35.2173197 29.999529 39 21.4488759 39 0"></polygon>
    </defs>
    <g id="icon/cheap-copy" stroke="none" stroke-width="1" fill="none" fill-rule="evenodd">
        <rect id="Rectangle" x="0" y="0" width="48" height="48"></rect>
        <g id="Star-Copy-+-Oval-Copy-Mask" transform="translate(3.055381, 3.000000)">
            <mask id="mask-2" fill="white">
                <use xlink:href="#path-1"></use>
            </mask>
            <g id="Mask"></g>
            <path d="M22.2544988,2.36010977 L25.2347809,3.81420544 L28.3703595,4.89338222 L30.5673228,7.37729603 L33.0512366,9.57425934 L34.1304134,12.7098379 L35.5845091,15.69012 L35.3816045,19 L35.5845091,22.30988 L34.1304134,25.2901621 L33.0512366,28.4257407 L30.5673228,30.622704 L28.3703595,33.1066178 L25.2347809,34.1857946 L22.2544988,35.6398902 L18.9446189,35.4369856 L15.6347389,35.6398902 L12.6544568,34.1857946 L9.51887821,33.1066178 L7.32191489,30.622704 L4.83800108,28.4257407 L3.7588243,25.2901621 L2.30472863,22.30988 L2.50763327,19 L2.30472863,15.69012 L3.7588243,12.7098379 L4.83800108,9.57425934 L7.32191489,7.37729603 L9.51887821,4.89338222 L12.6544568,3.81420544 L15.6347389,2.36010977 L18.9446189,2.56301441 L22.2544988,2.36010977 Z" id="Star-Copy" stroke="#3077F1" stroke-width="2" mask="url(#mask-2)"></path>
            <circle id="Oval-Copy" stroke="#3077F1" stroke-width="2" mask="url(#mask-2)" cx="18.9446189" cy="19" r="12"></circle>
        </g>
        <path d="M30,19 L29.8833789,19.0067277 C29.3860402,19.0644928 29,19.4871642 29,20 L29,32 L25,32 C24.134229,32 23.6775356,33.0254422 24.2567059,33.6689647 L33.2567059,43.6689647 C33.6539482,44.1103451 34.3460518,44.1103451 34.7432941,43.6689647 L43.7432941,33.6689647 L43.8130151,33.5829768 C44.2819787,32.9382118 43.8281288,32 43,32 L39,32 L39,20 C39,19.4477153 38.5522847,19 38,19 L30,19 Z M37,21 L37,33 L37.0067277,33.1166211 C37.0644928,33.6139598 37.4871642,34 38,34 L40.754,34 L33.999,41.505 L27.245,34 L30,34 L30.1166211,33.9932723 C30.6139598,33.9355072 31,33.5128358 31,33 L31,21 L37,21 Z" id="Path-Copy" fill="#3077F1" fill-rule="nonzero"></path>
        <path d="M23.2576419,29 L23.2576419,27.3427283 C24.9519651,26.8218715 26,25.5907554 26,24.1386697 C26,22.7497182 25.0218341,21.5659526 22.9956332,20.9503946 C21.7554585,20.5715896 21.0742358,20.145434 21.0742358,19.4825254 C21.0742358,18.9774521 21.4759825,18.5986471 22.0174672,18.5986471 C22.6462882,18.5986471 22.9781659,19.0879369 22.9781659,19.5930101 L25.6855895,19.5930101 C25.6855895,17.9830891 24.7598253,16.9098083 23.2576419,16.5941375 L23.2576419,15 L20.8995633,15 L20.8995633,16.5941375 C19.0480349,17.0834273 18.1048035,18.2198422 18.1048035,19.7508455 C18.1048035,21.0293123 18.5240175,22.1183766 21.1615721,22.9706877 C22.4716157,23.3968433 23.0131004,23.8072153 23.0131004,24.4543405 C23.0131004,24.9751973 22.558952,25.3855693 22.0174672,25.3855693 C21.3886463,25.3855693 21.0043668,24.9120631 20.9868996,24.264938 L18,24.264938 C18.0174672,25.7328072 18.8908297,27.0744081 20.8995633,27.4058625 L20.8995633,29 L23.2576419,29 Z" id="$" fill="#3077F1" fill-rule="nonzero"></path>
    </g>
</svg>