<?xml version="1.0" encoding="utf-8"?>
<!-- Generator: Adobe Illustrator 26.0.1, SVG Export Plug-In . SVG Version: 6.00 Build 0)  -->
<svg version="1.1" id="Layer_1" xmlns="http://www.w3.org/2000/svg" xmlns:xlink="http://www.w3.org/1999/xlink" x="0px" y="0px"
	 viewBox="0 0 48 48" style="enable-background:new 0 0 48 48;" xml:space="preserve">
<style type="text/css">
	.st0{fill:#3077F1;}
</style>
<g id="Mask">
</g>
<g>
	<path class="st0" d="M39.9,38.6l-3.8-8.9l1.2-0.8l0.6-3.1l1.8-2.6L39,20l0.7-3.1l-1.8-2.6l-0.6-3.1l-2.7-1.7l-1.7-2.7l-3.1-0.6
		l-2.6-1.8L24,5l-3.1-0.7l-2.6,1.8l-3.1,0.6l-1.7,2.7l-2.7,1.7l-0.6,3.1l-1.8,2.6L9,20l-0.7,3.1l1.8,2.6l0.6,3.1l1.2,0.8l-3.8,8.9
		c-0.1,0.3-0.1,0.7,0.1,1C8.4,39.9,8.8,40,9.1,40l6.4-0.9l3.6,4.6c0.2,0.2,0.5,0.4,0.8,0.4c0.1,0,0.1,0,0.2,0
		c0.4-0.1,0.7-0.3,0.8-0.7l3-8.3l0.1,0l0.1,0l3,8.3c0.1,0.4,0.4,0.6,0.8,0.7c0,0,0.1,0,0.1,0c0.3,0,0.6-0.2,0.8-0.4l3.6-5.4l6.3,1.8
		c0.4,0.1,0.8,0,1-0.3C40,39.4,40.1,39,39.9,38.6z M12.5,27.7L12,25l-1.6-2.3L11,20l-0.6-2.7L12,15l0.5-2.7l2.3-1.5l1.5-2.3L19,8
		l2.3-1.6L24,7l2.7-0.6L29,8l2.7,0.5l1.5,2.3l2.3,1.5L36,15l1.6,2.3L37,20l0.6,2.7L36,25l-0.5,2.7l-0.2,0.1l-1.7,1.1l-0.4,0.3
		l-1.5,2.3L29,32l-2.3,1.6l-1.1-0.2l-1-0.2L24,33l-0.6,0.1l-1,0.2l-1.1,0.2L19,32l-2.7-0.5l-1.5-2.3l-0.4-0.3l-1.7-1.1L12.5,27.7z
		 M19.7,41l-2.9-3.6C16.6,37.1,16.3,37,16,37c0,0-0.1,0-0.1,0l-5.2,0.7l2.9-6.8l1.6,2.4l3.1,0.6l2.6,1.8l0.7-0.2L19.7,41z M32.3,36
		c-0.4-0.1-0.9,0-1.1,0.4l-2.9,4.3l-1.9-5.2l0.7,0.2l2.6-1.8l3.1-0.6l1.6-2.4l2.8,6.5L32.3,36z"/>
	<path class="st0" d="M16.6,26.7c1.5,1.6,3.4,2.7,5.6,3.1c0.4,0.1,0.9,0.1,1.4,0.1c0.1,0,0.3,0,0.4,0s0.3,0,0.4,0
		c0.5,0,0.9-0.1,1.4-0.1c2.2-0.4,4.2-1.5,5.6-3.1c0.7-0.8,1.3-1.7,1.8-2.7c0.5-1.2,0.9-2.6,0.9-4c0-5.5-4.5-10-10-10
		c-5.5,0-10,4.5-10,10c0,1.4,0.3,2.8,0.9,4C15.3,25,15.9,25.9,16.6,26.7z M24,12c4.4,0,8,3.6,8,8c0,1.9-0.7,3.7-1.8,5
		c-1.3,1.6-3.1,2.6-5.2,2.9c-0.3,0-0.7,0.1-1,0.1s-0.7,0-1-0.1c-2.1-0.3-3.9-1.3-5.2-2.9c-1.1-1.4-1.8-3.1-1.8-5
		C16,15.6,19.6,12,24,12z"/>
	<path class="st0" d="M22.2,24.6c0.2,0.3,0.5,0.4,0.8,0.4c0,0,0,0,0,0c0.3,0,0.6-0.2,0.8-0.5l5-8c0.3-0.5,0.2-1.1-0.3-1.4
		c-0.5-0.3-1.1-0.1-1.4,0.3l-4.2,6.8l-2.1-2.8c-0.3-0.4-1-0.5-1.4-0.2c-0.4,0.3-0.5,1-0.2,1.4L22.2,24.6z"/>
</g>
</svg>
