<?xml version="1.0" encoding="UTF-8"?>
<svg width="48px" height="48px" viewBox="0 0 48 48" version="1.1" xmlns="http://www.w3.org/2000/svg" xmlns:xlink="http://www.w3.org/1999/xlink">
    <title>icon/compatible copy</title>
    <g id="icon/compatible-copy" stroke="none" stroke-width="1" fill="none" fill-rule="evenodd">
        <rect id="Rectangle" x="0" y="0" width="48" height="48"></rect>
        <path d="M43,8.65665649 L43,13.6566565 C40.3333333,13.6566565 39,14.9899898 39,17.6566565 C39,20.3233232 40.3333333,21.6566565 43,21.6566565 L43,24.6566565 C43,25.2089412 42.5522847,25.6566565 42,25.6566565 L26,25.6566565 C24.8954305,25.6566565 24,24.761226 24,23.6566565 L24,5 L24,5" id="Rectangle" stroke="#3077F1" stroke-width="2" stroke-linecap="round" stroke-linejoin="round" transform="translate(33.500000, 15.328328) scale(-1, -1) translate(-33.500000, -15.328328) "></path>
        <path d="M24,20.952945 L24,23 L24,31 C21.3333333,31 20,32.3333333 20,35 C20,37.6666667 21.3333333,39 24,39 L24,42 C24,42.5522847 23.5522847,43 23,43 L7,43 C5.8954305,43 5,42.1045695 5,41 L5,20.952945 L5,20.952945" id="Rectangle-Copy-2" stroke="#3077F1" stroke-width="2" stroke-linecap="round" transform="translate(14.500000, 31.976473) scale(-1, -1) rotate(-180.000000) translate(-14.500000, -31.976473) "></path>
        <path d="M41.3327418,25.2275974 L41.3327418,32.6672582 C38.6660752,32.6672582 37.3327418,34.0005915 37.3327418,36.6672582 C37.3327418,39.3339248 38.6660752,40.6672582 41.3327418,40.6672582 L41.3327418,43.6672582 C41.3327418,44.2195429 40.8850266,44.6672582 40.3327418,44.6672582 L24.3327418,44.6672582 C23.2281723,44.6672582 22.3327418,43.7718277 22.3327418,42.6672582 L22.3327418,22.3327418 L22.3327418,22.3327418" id="Rectangle-Copy-3" stroke="#3077F1" stroke-width="2" stroke-linecap="round" stroke-linejoin="round" transform="translate(31.832742, 33.500000) scale(-1, -1) rotate(90.000000) translate(-31.832742, -33.500000) "></path>
        <path d="M24.8979181,4.89791812 L24.8979181,12.8979181 C22.2312515,12.8979181 20.8979181,14.2312515 20.8979181,16.8979181 C20.8979181,19.5645848 22.2312515,20.8979181 24.8979181,20.8979181 L24.8979181,23.8979181 C24.8979181,24.4502029 24.4502029,24.8979181 23.8979181,24.8979181 L7.89791812,24.8979181 C6.79334862,24.8979181 5.89791812,24.0024876 5.89791812,22.8979181 L5.89791812,4.10208188 L5.89791812,4.10208188" id="Rectangle-Copy-4" stroke="#3077F1" stroke-width="2" stroke-linecap="round" stroke-linejoin="round" transform="translate(15.397918, 14.500000) scale(-1, -1) rotate(-90.000000) translate(-15.397918, -14.500000) "></path>
    </g>
</svg>