<?xml version="1.0" encoding="UTF-8"?>
<svg width="48px" height="48px" viewBox="0 0 48 48" version="1.1" xmlns="http://www.w3.org/2000/svg" xmlns:xlink="http://www.w3.org/1999/xlink">
    <title>icon/s3bucket copy 6</title>
    <g id="icon/s3bucket-copy-6" stroke="none" stroke-width="1" fill="none" fill-rule="evenodd">
        <rect id="Rectangle" x="0" y="0" width="48" height="48"></rect>
        <path d="M37.0061163,9.88956847 L38.9938837,10.1104315 L35.9906209,37.1366388 C35.7887705,38.6000392 34.8064699,40.0585958 33.5259785,40.8504978 C30.1013416,42.9684167 26.4710073,44 22,44 C17.528984,44 13.8986564,42.9684193 10.4740161,40.8504945 C9.26092258,40.1002632 8.3154523,38.7517148 8.04489085,37.3452805 L8.00611627,37.1104315 L5.00611627,10.1104315 L6.99388373,9.88956847 L9.99062113,36.8633626 C10.1093772,37.7243439 10.7431221,38.6653487 11.5259792,39.1495026 C14.6345074,41.0719319 17.9005547,42 22,42 C26.0994368,42 29.3654914,41.0719292 32.4740215,39.1495022 C33.2046885,38.6976313 33.8054589,37.8477884 33.9762165,37.0577746 L34.0061163,36.8895685 L37.0061163,9.88956847 Z" id="Path" fill="#3077F1" fill-rule="nonzero"></path>
        <path d="M22,5 C22.6903559,5 23.3711007,5.01210303 24.0399153,5.03562701 L24.8366178,5.0692942 L25.6209768,5.11366358 C25.7506252,5.12193578 25.8797222,5.13064299 26.0082492,5.13977975 L26.7724232,5.19971134 L27.5220274,5.26969034 L28.2561712,5.34945483 C28.3771907,5.36354982 28.4975288,5.37804162 28.6171672,5.39292479 L29.3264508,5.48687642 L30.0180478,5.58995875 L30.6910676,5.70190987 L31.3446198,5.82246785 C31.4518734,5.84326353 31.5582787,5.86440692 31.6638172,5.88589256 L32.2864982,6.01886975 L32.8874852,6.15979901 L33.4658877,6.30841843 C36.8667685,7.22268159 39,8.53806978 39,10 C39,11.4619302 36.8667685,12.7773184 33.4658877,13.6915816 L32.8874852,13.840201 L32.2864982,13.9811302 L31.6638172,14.1141074 C31.5582787,14.1355931 31.4518734,14.1567365 31.3446198,14.1775322 L30.6910676,14.2980901 L30.0180478,14.4100412 L29.3264508,14.5131236 L28.6171672,14.6070752 L27.8910875,14.6916342 C27.768724,14.7049301 27.6456978,14.7178238 27.5220274,14.7303097 L26.7724232,14.8002887 L26.0082492,14.8602202 C25.8797222,14.869357 25.7506252,14.8780642 25.6209768,14.8863364 L24.8366178,14.9307058 L24.0399153,14.964373 C23.6386265,14.9784874 23.2330429,14.9884902 22.8236653,14.9942342 L22,15 L21.1763347,14.9942342 C20.7669571,14.9884902 20.3613735,14.9784874 19.9600847,14.964373 L19.1633822,14.9307058 L18.3790232,14.8863364 C18.2493748,14.8780642 18.1202778,14.869357 17.9917508,14.8602202 L17.2275768,14.8002887 L16.4779726,14.7303097 L15.7438288,14.6505452 C15.6228093,14.6364502 15.5024712,14.6219584 15.3828328,14.6070752 L14.6735492,14.5131236 L13.9819522,14.4100412 L13.3089324,14.2980901 L12.6553802,14.1775322 C12.5481266,14.1567365 12.4417213,14.1355931 12.3361828,14.1141074 L11.7135018,13.9811302 L11.1125148,13.840201 L10.5341123,13.6915816 C7.13323149,12.7773184 5,11.4619302 5,10 C5,8.53806978 7.13323149,7.22268159 10.5341123,6.30841843 L11.1125148,6.15979901 L11.7135018,6.01886975 L12.3361828,5.88589256 C12.4417213,5.86440692 12.5481266,5.84326353 12.6553802,5.82246785 L13.3089324,5.70190987 L13.9819522,5.58995875 L14.6735492,5.48687642 L15.3828328,5.39292479 L16.1089125,5.30836577 C16.231276,5.29506987 16.3543022,5.28217624 16.4779726,5.26969034 L17.2275768,5.19971134 L17.9917508,5.13977975 C18.1202778,5.13064299 18.2493748,5.12193578 18.3790232,5.11366358 L19.1633822,5.0692942 L19.9600847,5.03562701 C20.4951364,5.01680783 21.0378234,5.00529805 21.5869583,5.00144691 L22,5 Z M22,7 C17.6099861,7 13.5138812,7.50956067 10.5435174,8.3831971 C9.18330737,8.78325886 8.13167414,9.2410889 7.47776345,9.69580023 C7.35202798,9.78323318 7.24854717,9.8653541 7.16691043,9.93940036 L7.103,10 L7.16691043,10.0605996 C7.22133492,10.1099638 7.28546789,10.1629167 7.35943099,10.2186398 L7.47776345,10.3041998 C8.13167414,10.7589111 9.18330737,11.2167411 10.5435174,11.6168029 C13.5138812,12.4904393 17.6099861,13 22,13 C26.3900139,13 30.4861188,12.4904393 33.4564826,11.6168029 C34.8166926,11.2167411 35.8683259,10.7589111 36.5222366,10.3041998 C36.647972,10.2167668 36.7514528,10.1346459 36.8330896,10.0605996 L36.896,10 L36.8330896,9.93940036 C36.7786651,9.89003619 36.7145321,9.83708328 36.640569,9.78136018 L36.5222366,9.69580023 C35.8683259,9.2410889 34.8166926,8.78325886 33.4564826,8.3831971 C30.4861188,7.50956067 26.3900139,7 22,7 Z" id="Oval" fill="#3077F1" fill-rule="nonzero"></path>
        <path d="M27,29 C24.790861,29 23,30.790861 23,33 C23,35.209139 24.790861,37 27,37 C29.209139,37 31,35.209139 31,33 C31,30.790861 29.209139,29 27,29 Z M27,31 C28.1045695,31 29,31.8954305 29,33 C29,34.1045695 28.1045695,35 27,35 C25.8954305,35 25,34.1045695 25,33 C25,31.8954305 25.8954305,31 27,31 Z" id="Oval" fill="#3077F1" fill-rule="nonzero"></path>
        <path d="M22,16 C20.8954305,16 20,16.8954305 20,18 C20,19.1045695 20.8954305,20 22,20 C23.1045695,20 24,19.1045695 24,18 C24,16.8954305 23.1045695,16 22,16 Z" id="Oval-Copy" fill="#3077F1" fill-rule="nonzero"></path>
        <path d="M19,22 L15,22 C13.8954305,22 13,22.8954305 13,24 L13,28 C13,29.1045695 13.8954305,30 15,30 L19,30 C20.1045695,30 21,29.1045695 21,28 L21,24 C21,22.8954305 20.1045695,22 19,22 Z M15,24 L19,24 L19,28 L15,28 L15,24 Z" id="Rectangle" fill="#3077F1" fill-rule="nonzero"></path>
        <path d="M38.4472136,13.1055728 C42.8311477,15.2975398 44.6147551,19.3106565 41.4472136,20.8944272 C40.0847433,21.5756624 38.1089734,21.8186994 35.5008274,21.6342495 L34.8356054,21.5792373 C34.4963961,21.5472844 34.1472811,21.5086659 33.7882231,21.4634028 L33.0568388,21.3640234 L32.2988737,21.2469622 C31.9132348,21.1840173 31.5176034,21.1144557 31.111942,21.0382983 L30.287235,20.8771953 C30.1475513,20.8488812 30.0067503,20.8198357 29.8648309,20.7900597 L28.99988,20.6026432 C28.8534807,20.5699481 28.7059601,20.536524 28.5573167,20.5023717 L27.651973,20.2887254 C27.4988333,20.2516633 27.3445681,20.2138746 27.189176,20.1753599 L26.2432904,19.9355675 C26.0833854,19.8941524 25.9223508,19.852013 25.7601852,19.8091499 L24.7736087,19.5432951 L23.759822,19.2601118 C23.5885864,19.2114726 23.4162142,19.1621129 23.2427042,19.1120336 L22.718759,18.9596372 L23.281241,17.0403628 L24.2682924,17.3252823 L25.6997833,17.72203 L26.6212896,17.9661616 L27.516462,18.1940433 L28.3852342,18.405712 L29.2275399,18.6012051 L30.043313,18.7805598 C30.1770604,18.8091094 30.3096996,18.8369882 30.441229,18.8641968 L31.2170789,19.0194135 C31.3441642,19.0439448 31.470137,19.0678075 31.5949961,19.0910024 L32.3307736,19.2221648 L33.0397536,19.3373375 L33.7218697,19.4365576 C33.8333133,19.451767 33.9436349,19.4663133 34.052833,19.4801971 L34.6945291,19.5555583 C34.9039266,19.5780333 35.1088191,19.5978651 35.3091957,19.6150599 L35.8967666,19.6587391 C38.0014369,19.7899342 39.5583414,19.6027953 40.5527864,19.1055728 C41.6288884,18.5675218 40.7871796,16.5958012 37.7997195,15.0211919 L37.5527864,14.8944272 L38.4472136,13.1055728 Z" id="Path-13" fill="#3077F1" fill-rule="nonzero"></path>
    </g>
</svg>