<?xml version="1.0" encoding="utf-8"?>
<!-- Generator: Adobe Illustrator 16.0.0, SVG Export Plug-In . SVG Version: 6.00 Build 0)  -->
<!DOCTYPE svg PUBLIC "-//W3C//DTD SVG 1.1//EN" "http://www.w3.org/Graphics/SVG/1.1/DTD/svg11.dtd">
<svg version="1.1" id="Layer_1" xmlns="http://www.w3.org/2000/svg" xmlns:xlink="http://www.w3.org/1999/xlink" x="0px" y="0px"
	 width="148px" height="12100px" viewBox="0 0 148 12100" enable-background="new 0 0 148 12100" xml:space="preserve">
<g opacity="0.1">
	<g>
		<defs>
			<rect id="SVGID_1_" width="148" height="166"/>
		</defs>
		<clipPath id="SVGID_2_">
			<use xlink:href="#SVGID_1_"  overflow="visible"/>
		</clipPath>
		<path clip-path="url(#SVGID_2_)" fill="#231F20" d="M0,158.979C0,162.849,3.152,166,7.024,166h133.953
			c3.871,0,7.023-3.151,7.023-7.021V7.022C148,3.15,144.848,0,140.977,0H44.878c-4.293,0-9.822,2.297-12.856,5.343L5.314,32.145
			C2.285,35.184,0,40.716,0,45.009V158.979z"/>
	</g>
</g>
<path fill="#FFFFFF" d="M4.111,158.979c0,1.607,1.312,2.922,2.913,2.922h133.953c1.6,0,2.911-1.315,2.911-2.922V7.022
	c0-1.607-1.312-2.923-2.911-2.923H44.878c-3.201,0-7.673,1.859-9.939,4.131L8.229,35.034c-2.267,2.273-4.118,6.761-4.118,9.975
	V158.979z"/>
<polygon fill="#2E4A9D" points="39.056,61.481 54.785,120.913 65.379,120.913 75.91,85.943 86.446,120.913 97.037,120.913 
	111,61.481 88.39,61.481 88.39,73.778 96.61,73.778 90.695,97.477 82.018,61.481 70.093,61.481 61.126,97.477 51.388,61.481 "/>
<g opacity="0.1">
	<g>
		<defs>
			<rect id="SVGID_3_" y="223" width="148" height="166"/>
		</defs>
		<clipPath id="SVGID_4_">
			<use xlink:href="#SVGID_3_"  overflow="visible"/>
		</clipPath>
		<path clip-path="url(#SVGID_4_)" fill="#231F20" d="M0,381.979C0,385.849,3.152,389,7.024,389h133.953
			c3.871,0,7.023-3.151,7.023-7.021V230.021c0-3.871-3.152-7.021-7.023-7.021H44.878c-4.293,0-9.822,2.297-12.856,5.344
			L5.314,255.145C2.285,258.184,0,263.715,0,268.01V381.979z"/>
	</g>
</g>
<path fill="#FFFFFF" d="M4.111,381.979c0,1.607,1.312,2.922,2.913,2.922h133.953c1.6,0,2.911-1.315,2.911-2.922V230.021
	c0-1.605-1.312-2.922-2.911-2.922H44.878c-3.201,0-7.673,1.86-9.939,4.131l-26.71,26.804c-2.267,2.274-4.118,6.762-4.118,9.976
	V381.979z"/>
<path fill="#F16C22" d="M64.106,288.32c-2.23-2.24-5.846-2.24-8.076,0l-26.878,26.956l26.878,26.96
	c1.112,1.117,2.578,1.677,4.036,1.677c1.462,0,2.925-0.56,4.04-1.677c2.23-2.235,2.23-5.864,0-8.099l-18.803-18.861l18.803-18.859
	C66.336,294.182,66.336,290.555,64.106,288.32 M92.343,288.32c-2.228-2.24-5.845-2.24-8.077,0c-2.228,2.235-2.228,5.862,0,8.097
	l18.802,18.859l-18.802,18.861c-2.228,2.236-2.228,5.864,0,8.099c1.115,1.117,2.579,1.677,4.039,1.677
	c1.461,0,2.923-0.56,4.038-1.677l26.88-26.96L92.343,288.32z"/>
<g opacity="0.1">
	<g>
		<defs>
			<rect id="SVGID_5_" y="465" width="148" height="168"/>
		</defs>
		<clipPath id="SVGID_6_">
			<use xlink:href="#SVGID_5_"  overflow="visible"/>
		</clipPath>
		<path clip-path="url(#SVGID_6_)" fill="#231F20" d="M0,625.894C0,629.812,3.152,633,7.024,633h133.953
			c3.871,0,7.023-3.188,7.023-7.106V472.106c0-3.919-3.152-7.106-7.023-7.106H44.878c-4.293,0-9.822,2.325-12.856,5.407
			L5.314,497.532C2.285,500.607,0,506.205,0,510.552V625.894z"/>
	</g>
</g>
<path fill="#FFFFFF" d="M4.111,625.894c0,1.627,1.312,2.958,2.913,2.958h133.953c1.6,0,2.911-1.331,2.911-2.958V472.106
	c0-1.628-1.312-2.959-2.911-2.959H44.878c-3.201,0-7.673,1.882-9.939,4.182l-26.71,27.128c-2.267,2.299-4.118,6.841-4.118,10.095
	V625.894z"/>
<path fill="#67B945" d="M53.774,539.183c2.316-2.467,2.103-6.61-0.639-8.77c-2.213-1.742-5.364-1.208-7.306,0.862l-25.246,26.895
	c-0.036,0.039-0.036,0.103,0,0.145l25.506,27.171c1.06,1.13,2.452,1.695,3.842,1.695c1.201,0,2.403-0.422,3.392-1.268
	c2.583-2.212,2.432-6.496,0.088-8.993l-17.46-18.605c-0.038-0.042-0.038-0.106,0-0.145L53.774,539.183z M101.87,530.999
	c-2.119-2.262-5.561-2.262-7.685,0c-2.12,2.258-2.12,5.924,0,8.184l17.891,19.059L94.186,577.3c-2.12,2.258-2.12,5.927,0,8.184
	c1.062,1.13,2.453,1.695,3.842,1.695c1.392,0,2.782-0.565,3.843-1.695l25.574-27.243L101.87,530.999z M83.916,529.669
	c-2.78-1.129-5.865,0.393-6.902,3.387l-16.082,46.304c-1.042,2.994,0.365,6.328,3.136,7.45c0.621,0.251,1.257,0.371,1.882,0.371
	c2.171,0,4.215-1.432,5.019-3.758l16.083-46.301C88.095,534.129,86.69,530.791,83.916,529.669"/>
<g opacity="0.1">
	<g>
		<defs>
			<rect id="SVGID_7_" y="709" width="148" height="166"/>
		</defs>
		<clipPath id="SVGID_8_">
			<use xlink:href="#SVGID_7_"  overflow="visible"/>
		</clipPath>
		<path clip-path="url(#SVGID_8_)" fill="#231F20" d="M0,867.979C0,871.85,3.152,875,7.024,875h133.953
			c3.871,0,7.023-3.15,7.023-7.021V716.021c0-3.871-3.152-7.021-7.023-7.021H44.878c-4.293,0-9.824,2.298-12.856,5.344
			l-26.71,26.802C2.283,744.185,0,749.716,0,754.01V867.979z"/>
	</g>
</g>
<path fill="#FFFFFF" d="M4.111,867.979c0,1.606,1.311,2.922,2.913,2.922h133.953c1.6,0,2.911-1.316,2.911-2.922V716.021
	c0-1.605-1.312-2.922-2.911-2.922H44.878c-3.203,0-7.675,1.86-9.939,4.131l-26.71,26.804c-2.265,2.273-4.118,6.762-4.118,9.977
	V867.979z"/>
<polygon fill-rule="evenodd" clip-rule="evenodd" fill="#79BAD6" points="53.443,764.333 53.443,836.062 104.833,800.198 "/>
<g opacity="0.1">
	<g>
		<defs>
			<rect id="SVGID_9_" y="953" width="148" height="166"/>
		</defs>
		<clipPath id="SVGID_10_">
			<use xlink:href="#SVGID_9_"  overflow="visible"/>
		</clipPath>
		<path clip-path="url(#SVGID_10_)" fill="#231F20" d="M0,1111.979c0,3.871,3.152,7.021,7.024,7.021h133.953
			c3.871,0,7.023-3.149,7.023-7.021V960.021c0-3.87-3.152-7.021-7.023-7.021H44.878c-4.293,0-9.822,2.298-12.856,5.344
			L5.314,985.146C2.285,988.184,0,993.716,0,998.01V1111.979z"/>
	</g>
</g>
<path fill="#FFFFFF" d="M4.111,1111.979c0,1.606,1.312,2.922,2.913,2.922h133.953c1.6,0,2.911-1.316,2.911-2.922V960.021
	c0-1.605-1.312-2.922-2.911-2.922H44.878c-3.201,0-7.673,1.859-9.939,4.131l-26.71,26.804c-2.267,2.273-4.118,6.763-4.118,9.977
	V1111.979z"/>
<path fill="#989798" d="M92.499,1067.765c0,3.383-2.773,6.148-6.165,6.148h-51.39c-3.392,0-6.167-2.766-6.167-6.148v-43.038
	c0-3.382,2.774-6.147,6.167-6.147h51.39c3.392,0,6.165,2.766,6.165,6.147V1067.765z"/>
<polygon fill="#989798" points="98.666,1049.321 121.278,1071.865 121.278,1020.63 98.666,1043.173 "/>
<g opacity="0.1">
	<g>
		<defs>
			<rect id="SVGID_11_" y="1196" width="148" height="166"/>
		</defs>
		<clipPath id="SVGID_12_">
			<use xlink:href="#SVGID_11_"  overflow="visible"/>
		</clipPath>
		<path clip-path="url(#SVGID_12_)" fill="#231F20" d="M0,1354.98c0,3.871,3.152,7.02,7.024,7.02h133.953
			c3.871,0,7.023-3.149,7.023-7.02v-151.958c0-3.87-3.152-7.022-7.023-7.022H44.878c-4.293,0-9.822,2.299-12.856,5.345
			l-26.708,26.802c-3.029,3.037-5.314,8.57-5.314,12.865V1354.98z"/>
	</g>
</g>
<path fill="#FFFFFF" d="M4.111,1354.98c0,1.606,1.312,2.921,2.913,2.921h133.953c1.6,0,2.911-1.315,2.911-2.921v-151.958
	c0-1.605-1.312-2.922-2.911-2.922H44.878c-3.201,0-7.673,1.859-9.939,4.131l-26.71,26.804c-2.267,2.273-4.118,6.762-4.118,9.977
	V1354.98z"/>
<path fill="#989798" d="M55.5,1251.078v57.638l43.002-28.819L55.5,1251.078z M55.5,1331.26h-37v4.099h37V1331.26z M61.666,1335.359
	h65.778v-4.099H61.666V1335.359z M18.5,1343.556h65.777v-4.099H18.5V1343.556z M90.445,1343.556h36.999v-4.099H90.445V1343.556z"/>
<g opacity="0.1">
	<g>
		<defs>
			<rect id="SVGID_13_" y="1439" width="148" height="166"/>
		</defs>
		<clipPath id="SVGID_14_">
			<use xlink:href="#SVGID_13_"  overflow="visible"/>
		</clipPath>
		<path clip-path="url(#SVGID_14_)" fill="#231F20" d="M0,1597.979c0,3.871,3.151,7.021,7.023,7.021h133.953
			c3.872,0,7.023-3.151,7.023-7.021v-151.958c0-3.869-3.151-7.021-7.023-7.021H44.878c-4.293,0-9.821,2.297-12.856,5.343
			l-26.708,26.803C2.285,1474.184,0,1479.717,0,1484.01V1597.979z"/>
	</g>
</g>
<path fill="#FFFFFF" d="M4.111,1597.979c0,1.607,1.312,2.922,2.912,2.922h133.953c1.6,0,2.912-1.315,2.912-2.922v-151.958
	c0-1.605-1.312-2.921-2.912-2.921H44.878c-3.201,0-7.673,1.859-9.94,4.13l-26.71,26.803c-2.266,2.275-4.117,6.763-4.117,9.977
	V1597.979z"/>
<g opacity="0.27">
	<g>
		<defs>
			<rect id="SVGID_15_" x="26.723" y="1494.184" width="84.427" height="84.174"/>
		</defs>
		<clipPath id="SVGID_16_">
			<use xlink:href="#SVGID_15_"  overflow="visible"/>
		</clipPath>
		<g clip-path="url(#SVGID_16_)">
			<defs>
				<path id="SVGID_17_" d="M96.481,1508.805c-19.468-19.411-50.288-19.536-69.759-0.126l69.888,69.679
					C116.082,1558.948,115.954,1528.218,96.481,1508.805"/>
			</defs>
			<clipPath id="SVGID_18_">
				<use xlink:href="#SVGID_17_"  overflow="visible"/>
			</clipPath>
			
				<linearGradient id="SVGID_19_" gradientUnits="userSpaceOnUse" x1="-1400.9966" y1="7223.6543" x2="-1398.9469" y2="7223.6543" gradientTransform="matrix(-14.2428 83.8909 83.8909 14.2428 -625874.625 16138.0625)">
				<stop  offset="0" style="stop-color:#FFFFFF"/>
				<stop  offset="1" style="stop-color:#231F20"/>
			</linearGradient>
			<polygon clip-path="url(#SVGID_18_)" fill="url(#SVGID_19_)" points="130.826,1491.764 113.578,1593.06 11.977,1575.862 
				29.226,1474.566 			"/>
		</g>
	</g>
</g>
<g opacity="0.6">
	<g>
		<defs>
			<rect id="SVGID_20_" x="25.265" y="1492.134" width="86.879" height="87.674"/>
		</defs>
		<clipPath id="SVGID_21_">
			<use xlink:href="#SVGID_20_"  overflow="visible"/>
		</clipPath>
		<path clip-path="url(#SVGID_21_)" fill="#D1D2D3" d="M97.23,1579.808l-1.494-1.41c19.115-20.148,19.129-50.395,0.034-68.856
			c-21.429-20.707-47.252-20.706-69.088,0.006l-1.417-1.485c22.388-21.24,49.952-21.238,71.932,0.006
			C117.115,1527.322,117.131,1558.831,97.23,1579.808"/>
	</g>
</g>
<g opacity="0.6">
	<g>
		<defs>
			<rect id="SVGID_22_" x="25.996" y="1493.733" width="85.776" height="85.309"/>
		</defs>
		<clipPath id="SVGID_23_">
			<use xlink:href="#SVGID_22_"  overflow="visible"/>
		</clipPath>
		<path clip-path="url(#SVGID_23_)" fill="none" stroke="#BBBDBF" stroke-miterlimit="10" d="M96.61,1578.358
			c18.501-20.494,19.232-51.322-0.129-69.55c-20.014-18.851-51.259-18.573-69.759-0.129"/>
	</g>
</g>
<rect x="93.551" y="1577.354" fill="#FFFFFF" width="4.068" height="4.058"/>
<path fill="#BBBDBF" d="M96.61,1580.407h-2.056v-2.049h2.056V1580.407z M98.624,1576.351H96.61h-2.056h-2.014v2.007v2.049v2.006
	h2.014h2.056h2.014v-2.006v-2.049V1576.351z"/>
<rect x="23.661" y="1507.676" fill="#FFFFFF" width="4.069" height="4.058"/>
<path fill="#BBBDBF" d="M26.723,1510.729h-2.056v-2.05h2.056V1510.729z M28.736,1506.672h-2.014h-2.056h-2.014v2.006v2.05v2.005
	h2.014h2.056h2.014v-2.005v-2.05V1506.672z"/>
<g opacity="0.6">
	<g>
		<defs>
			<rect id="SVGID_24_" x="67.151" y="1476.955" width="61.279" height="61.096"/>
		</defs>
		<clipPath id="SVGID_25_">
			<use xlink:href="#SVGID_24_"  overflow="visible"/>
		</clipPath>
		<polygon clip-path="url(#SVGID_25_)" fill="#BBBDBF" points="126.979,1538.05 67.151,1478.403 68.604,1476.955 128.431,1536.602 
					"/>
	</g>
</g>
<path fill="#BBBDBF" d="M69.933,1477.938c0-1.13-0.921-2.05-2.057-2.05c-1.135,0-2.054,0.919-2.054,2.05
	c0,1.132,0.918,2.05,2.054,2.05C69.012,1479.988,69.933,1479.07,69.933,1477.938"/>
<path fill="#BBBDBF" d="M69.933,1477.938c0-1.13-0.921-2.05-2.057-2.05c-1.135,0-2.054,0.919-2.054,2.05
	c0,1.132,0.918,2.05,2.054,2.05C69.012,1479.988,69.933,1479.07,69.933,1477.938"/>
<path fill="#BBBDBF" d="M129.499,1537.37c0-1.13-0.921-2.048-2.054-2.048c-1.136,0-2.058,0.918-2.058,2.048
	c0,1.132,0.922,2.05,2.058,2.05C128.578,1539.419,129.499,1538.502,129.499,1537.37"/>
<path fill="#BBBDBF" d="M129.499,1537.37c0-1.13-0.921-2.048-2.054-2.048c-1.136,0-2.058,0.918-2.058,2.048
	c0,1.132,0.922,2.05,2.058,2.05C128.578,1539.419,129.499,1538.502,129.499,1537.37"/>
<rect x="95.605" y="1505.627" fill="#FFFFFF" width="4.068" height="4.057"/>
<path fill="#BBBDBF" d="M98.666,1508.679H96.61v-2.05h2.056V1508.679z M100.68,1504.623h-2.014H96.61h-2.013v2.006v2.05v2.006h2.013
	h2.056h2.014v-2.006v-2.05V1504.623z"/>
<g opacity="0.1">
	<g>
		<defs>
			<rect id="SVGID_26_" y="1682" width="148" height="166"/>
		</defs>
		<clipPath id="SVGID_27_">
			<use xlink:href="#SVGID_26_"  overflow="visible"/>
		</clipPath>
		<path clip-path="url(#SVGID_27_)" fill="#231F20" d="M0,1840.978c0,3.871,3.152,7.022,7.024,7.022h133.953
			c3.871,0,7.023-3.151,7.023-7.022v-151.957c0-3.872-3.152-7.021-7.023-7.021H44.878c-4.293,0-9.824,2.297-12.856,5.343
			l-26.71,26.802C2.285,1717.184,0,1722.715,0,1727.01V1840.978z"/>
	</g>
</g>
<path fill="#FFFFFF" d="M4.111,1840.978c0,1.607,1.311,2.922,2.913,2.922h133.953c1.6,0,2.911-1.315,2.911-2.922v-151.957
	c0-1.606-1.312-2.922-2.911-2.922H44.878c-3.201,0-7.673,1.859-9.939,4.131l-26.71,26.804c-2.267,2.273-4.118,6.76-4.118,9.976
	V1840.978z"/>
<path fill="#989798" d="M117.545,1799.805c-2.33-2.386-23-11.922-26.879-13.204c0-0.841-0.453-3.736-1.55-4.253
	c-1.037-0.387-4.458-2.06-4.458-2.06c0-0.251-0.386-0.974-0.45-1.74c0-0.838,0.45-1.669,0.45-1.669
	c0.46-0.909,2.133-3.032,2.582-4.706c0.455-1.673,0.972-5.925,0.972-5.925c0-0.908,1.358-1.29,2.196-1.735
	c1.485-0.709,2.716-9.793,2.716-9.793c0-2.963-1.23-1.682-1.23-3.8v-7.919c0-9.733-7.88-15.912-17.706-15.912h-0.377
	c-9.826,0-17.704,6.179-17.704,15.912v7.919c0,2.118-1.228,0.837-1.228,3.8c0,0,1.228,9.084,2.712,9.791
	c0.837,0.446,2.197,0.83,2.197,1.738c0,0,0.515,4.251,0.972,5.925c0.445,1.671,2.124,3.797,2.581,4.706c0,0,0.452,0.831,0.452,1.669
	c-0.063,0.767-0.452,1.489-0.452,1.74c0,0-3.424,1.672-4.458,2.06c-1.097,0.517-1.546,3.412-1.546,4.253
	c-3.878,1.282-24.551,10.818-26.88,13.204c-1.678,1.742-1.678,11.917-1.678,11.917v1.287c0,2.318,1.936,4.251,4.267,4.251h81.913
	c2.326,0,4.266-1.929,4.266-4.251v-1.287C119.223,1811.721,119.223,1801.547,117.545,1799.805"/>
<g opacity="0.1">
	<g>
		<defs>
			<rect id="SVGID_28_" y="1926" width="148" height="166"/>
		</defs>
		<clipPath id="SVGID_29_">
			<use xlink:href="#SVGID_28_"  overflow="visible"/>
		</clipPath>
		<path clip-path="url(#SVGID_29_)" fill="#231F20" d="M0,2084.979c0,3.871,3.152,7.021,7.024,7.021h133.953
			c3.871,0,7.023-3.15,7.023-7.021v-151.958c0-3.872-3.152-7.021-7.023-7.021H44.878c-4.293,0-9.824,2.297-12.856,5.344l-26.71,26.8
			C2.285,1961.184,0,1966.714,0,1971.01V2084.979z"/>
	</g>
</g>
<path fill="#FFFFFF" d="M4.111,2084.979c0,1.607,1.311,2.923,2.913,2.923h133.953c1.6,0,2.911-1.315,2.911-2.923v-151.958
	c0-1.608-1.312-2.923-2.911-2.923H44.878c-3.201,0-7.673,1.86-9.939,4.132l-26.71,26.804c-2.267,2.272-4.118,6.76-4.118,9.975
	V2084.979z"/>
<polygon fill-rule="evenodd" clip-rule="evenodd" fill="#8ABB59" points="84.277,2007.976 104.833,2007.976 74,1971.086 
	43.167,2007.976 63.723,2007.976 63.723,2026.42 43.167,2026.42 74,2063.309 104.833,2026.42 84.277,2026.42 "/>
<g opacity="0.1">
	<g>
		<defs>
			<rect id="SVGID_30_" y="2169" width="148" height="166"/>
		</defs>
		<clipPath id="SVGID_31_">
			<use xlink:href="#SVGID_30_"  overflow="visible"/>
		</clipPath>
		<path clip-path="url(#SVGID_31_)" fill="#231F20" d="M0,2327.979c0,3.871,3.152,7.021,7.024,7.021h133.953
			c3.871,0,7.023-3.15,7.023-7.021v-151.958c0-3.873-3.152-7.021-7.023-7.021H44.878c-4.293,0-9.824,2.297-12.856,5.343
			l-26.71,26.801C2.285,2204.183,0,2209.715,0,2214.01V2327.979z"/>
	</g>
</g>
<path fill="#FFFFFF" d="M4.111,2327.979c0,1.607,1.311,2.923,2.913,2.923h133.953c1.602,0,2.911-1.315,2.911-2.923v-151.958
	c0-1.608-1.31-2.924-2.911-2.924H44.878c-3.201,0-7.675,1.858-9.939,4.133l-26.71,26.804c-2.267,2.271-4.118,6.761-4.118,9.976
	V2327.979z"/>
<path fill="#989798" d="M25.436,2248.919c-0.097,0.505,0.028,0.86,0.379,1.068c0.354,0.208,1.028,0.321,2.028,0.348l-0.123,0.641
	H18.5l0.833-0.641c1.046-0.218,1.919-0.628,2.618-1.221c0.698-0.594,2.174-2.191,4.422-4.787l16.793-19.995h2.056v22.544v2.05
	c0.317,0.354,0.818,1.306,2.055,1.409l-0.124,0.641H35.962l0.125-0.641c1.365-0.116,2.27-0.245,2.698-0.425
	c2.327-0.984,2.327-3.034,2.327-3.034v-4.1H30.834L25.436,2248.919z M41.111,2240.729l0.07-10.29l-8.292,10.29H41.111z"/>
<rect x="49.334" y="2224.332" fill="#989798" width="80.165" height="4.099"/>
<rect x="49.334" y="2234.58" fill="#989798" width="80.165" height="4.099"/>
<rect x="49.334" y="2244.826" fill="#989798" width="80.165" height="4.1"/>
<rect x="18.5" y="2255.073" fill="#989798" width="110.999" height="4.1"/>
<rect x="18.5" y="2265.32" fill="#989798" width="110.999" height="4.099"/>
<rect x="18.5" y="2275.568" fill="#989798" width="110.999" height="4.099"/>
<rect x="18.5" y="2285.814" fill="#989798" width="110.999" height="4.1"/>
<rect x="18.5" y="2296.061" fill="#989798" width="110.999" height="4.1"/>
<rect x="18.5" y="2306.309" fill="#989798" width="28.777" height="4.099"/>
<g opacity="0.1">
	<g>
		<defs>
			<rect id="SVGID_32_" y="2412" width="148" height="166"/>
		</defs>
		<clipPath id="SVGID_33_">
			<use xlink:href="#SVGID_32_"  overflow="visible"/>
		</clipPath>
		<path clip-path="url(#SVGID_33_)" fill="#231F20" d="M0,2570.98c0,3.871,3.152,7.02,7.024,7.02h133.953
			c3.871,0,7.023-3.148,7.023-7.02v-151.957c0-3.873-3.152-7.023-7.023-7.023H44.878c-4.293,0-9.824,2.299-12.856,5.344
			l-26.71,26.802C2.285,2447.185,0,2452.716,0,2457.012V2570.98z"/>
	</g>
</g>
<path fill="#FFFFFF" d="M4.111,2570.98c0,1.606,1.311,2.923,2.913,2.923h133.953c1.6,0,2.911-1.316,2.911-2.923v-151.957
	c0-1.608-1.312-2.925-2.911-2.925H44.878c-3.201,0-7.675,1.859-9.939,4.133l-26.71,26.804c-2.267,2.272-4.118,6.761-4.118,9.976
	V2570.98z"/>
<path fill-rule="evenodd" clip-rule="evenodd" fill="#CE342F" d="M102.777,2471.433v-14.346c-41.111,0-34.945,63.531-61.666,63.531
	v14.345c22.612,0,28.758-12.887,34.943-28.691h18.5v-14.344H82.222C86.39,2482.906,94.163,2471.433,102.777,2471.433"/>
<g opacity="0.1">
	<g>
		<defs>
			<rect id="SVGID_34_" y="2655" width="148" height="166"/>
		</defs>
		<clipPath id="SVGID_35_">
			<use xlink:href="#SVGID_34_"  overflow="visible"/>
		</clipPath>
		<path clip-path="url(#SVGID_35_)" fill="#231F20" d="M0,2813.979c0,3.872,3.152,7.021,7.024,7.021h133.953
			c3.871,0,7.023-3.149,7.023-7.021v-151.958c0-3.871-3.152-7.021-7.023-7.021H44.878c-4.293,0-9.824,2.298-12.856,5.344
			l-26.71,26.803C2.284,2690.183,0,2695.716,0,2700.012V2813.979z"/>
	</g>
</g>
<path fill="#FFFFFF" d="M4.111,2813.979c0,1.606,1.311,2.922,2.913,2.922h133.953c1.6,0,2.911-1.315,2.911-2.922v-151.958
	c0-1.605-1.312-2.923-2.911-2.923H44.878c-3.202,0-7.675,1.859-9.939,4.131l-26.71,26.806c-2.266,2.272-4.118,6.761-4.118,9.976
	V2813.979z"/>
<path fill-rule="evenodd" clip-rule="evenodd" fill="#53A546" d="M18.5,2728.649h28.777v-24.466H18.5V2728.649z M18.5,2765.666
	h28.777v-24.464H18.5V2765.666z M18.5,2802.428h28.777v-24.467H18.5V2802.428z"/>
<path fill-rule="evenodd" clip-rule="evenodd" fill="#53A546" d="M59.612,2728.649H88.39v-24.466H59.612V2728.649z M59.612,2765.666
	H88.39v-24.464H59.612V2765.666z M59.612,2802.428H88.39v-24.467H59.612V2802.428z"/>
<path fill-rule="evenodd" clip-rule="evenodd" fill="#53A546" d="M100.723,2728.649h28.776v-24.466h-28.776V2728.649z
	 M100.723,2765.666h28.776v-24.464h-28.776V2765.666z M100.723,2802.428h28.776v-24.467h-28.776V2802.428z"/>
<g opacity="0.1">
	<g>
		<defs>
			<rect id="SVGID_36_" y="2899" width="148" height="166"/>
		</defs>
		<clipPath id="SVGID_37_">
			<use xlink:href="#SVGID_36_"  overflow="visible"/>
		</clipPath>
		<path clip-path="url(#SVGID_37_)" fill="#231F20" d="M0,3057.979c0,3.87,3.152,7.021,7.024,7.021h133.953
			c3.871,0,7.023-3.151,7.023-7.021v-151.957c0-3.872-3.152-7.022-7.023-7.022H44.878c-4.293,0-9.824,2.298-12.856,5.344
			l-26.71,26.804C2.285,2934.184,0,2939.716,0,2944.011V3057.979z"/>
	</g>
</g>
<path fill="#FFFFFF" d="M4.111,3057.979c0,1.606,1.311,2.922,2.913,2.922h133.953c1.6,0,2.911-1.315,2.911-2.922v-151.957
	c0-1.605-1.312-2.923-2.911-2.923H44.878c-3.201,0-7.673,1.858-9.939,4.13l-26.71,26.806c-2.267,2.272-4.118,6.76-4.118,9.975
	V3057.979z"/>
<path fill-rule="evenodd" clip-rule="evenodd" fill="#989798" d="M121.278,2999.42v-16.395h-17.589
	c-0.68-2.45-1.643-4.779-2.875-6.944l12.429-12.393l-11.626-11.592l-12.432,12.393c-2.169-1.229-4.506-2.19-6.964-2.867v-17.535
	H65.777v17.535c-2.459,0.677-4.792,1.638-6.965,2.867l-12.43-12.393l-11.626,11.592l12.431,12.393
	c-1.233,2.165-2.198,4.494-2.875,6.944H26.723v16.395h17.588c0.678,2.452,1.642,4.779,2.875,6.944l-12.431,12.392l11.626,11.591
	l12.43-12.392c2.173,1.229,4.506,2.19,6.965,2.869v17.533h16.444v-17.533c2.458-0.679,4.795-1.64,6.964-2.869l12.432,12.392
	l11.626-11.591l-12.429-12.392c1.232-2.165,2.195-4.493,2.875-6.944H121.278z M74,3007.618c-9.081,0-16.444-7.341-16.444-16.396
	c0-9.054,7.364-16.396,16.444-16.396c9.082,0,16.445,7.342,16.445,16.396C90.445,3000.277,83.082,3007.618,74,3007.618"/>
<g opacity="0.1">
	<g>
		<defs>
			<rect id="SVGID_38_" y="3142" width="148" height="166"/>
		</defs>
		<clipPath id="SVGID_39_">
			<use xlink:href="#SVGID_38_"  overflow="visible"/>
		</clipPath>
		<path clip-path="url(#SVGID_39_)" fill="#231F20" d="M0,3300.977c0,3.872,3.152,7.023,7.024,7.023h133.953
			c3.871,0,7.023-3.152,7.023-7.023v-151.955c0-3.872-3.152-7.021-7.023-7.021H44.878c-4.293,0-9.824,2.298-12.856,5.343
			l-26.71,26.803C2.285,3177.183,0,3182.715,0,3187.01V3300.977z"/>
	</g>
</g>
<path fill="#FFFFFF" d="M4.111,3300.977c0,1.608,1.311,2.923,2.913,2.923h133.953c1.6,0,2.911-1.314,2.911-2.923v-151.955
	c0-1.606-1.312-2.922-2.911-2.922H44.878c-3.201,0-7.673,1.858-9.939,4.13l-26.71,26.803c-2.267,2.274-4.118,6.763-4.118,9.977
	V3300.977z"/>
<path fill="#046EAB" d="M127.444,3232.172c0-17.642-22.323-30.741-51.39-30.741c-29.066,0-53.443,13.1-53.443,30.741
	c0,17.641,23.245,32.301,52.311,32.301c0.784,0,1.566-0.054,2.343-0.081l-0.059,0.013l-11.43,21.051l43.168-28.691
	C118.305,3251.019,127.444,3240.902,127.444,3232.172"/>
<path fill="#FFFFFF" d="M115.11,3232.172c0-12.602-17.568-22.543-39.056-22.543c-21.484,0-41.11,9.942-41.11,22.543
	c0,12.592,17.571,22.543,39.056,22.543c3.682,0,8.222,0,12.334-2.05l-6.167,12.296l20.556-15.963v-0.023
	C106.889,3244.816,115.11,3238.681,115.11,3232.172"/>
<path fill="#010101" d="M69.159,3218.938h8.645l-1.552,5.416h0.103c2.403-2.094,4.536-3.572,6.395-4.443
	c1.875-0.864,2.857-0.905,5.421-0.905c1.387,0,3.191-0.154,4.04,0l-2.022,8.052c-1.894-0.519-3.175-1.004-4.602-1.004
	c-3.146,0-5.699,0.681-7.678,2.042c-1.956,1.38-2.274,2.618-2.985,5.209l-2.882,11.489h-8.645L69.159,3218.938z"/>
<g opacity="0.1">
	<g>
		<defs>
			<rect id="SVGID_40_" y="3385" width="148" height="166"/>
		</defs>
		<clipPath id="SVGID_41_">
			<use xlink:href="#SVGID_40_"  overflow="visible"/>
		</clipPath>
		<path clip-path="url(#SVGID_41_)" fill="#231F20" d="M0,3543.978c0,3.872,3.152,7.022,7.024,7.022h133.953
			c3.871,0,7.023-3.151,7.023-7.022v-151.956c0-3.872-3.152-7.021-7.023-7.021H44.878c-4.293,0-9.824,2.298-12.856,5.343
			l-26.71,26.803C2.284,3420.184,0,3425.715,0,3430.01V3543.978z"/>
	</g>
</g>
<path fill="#FFFFFF" d="M4.111,3543.978c0,1.608,1.311,2.923,2.913,2.923h133.953c1.6,0,2.911-1.314,2.911-2.923v-151.956
	c0-1.606-1.312-2.923-2.911-2.923H44.878c-3.202,0-7.675,1.859-9.939,4.129l-26.71,26.808c-2.266,2.271-4.118,6.76-4.118,9.974
	V3543.978z"/>
<path fill="#989798" d="M57.735,3493.616l-21.261-35.562c-3.572,6.263-5.64,13.494-5.64,21.219c0,5.038,0.912,9.854,2.509,14.344
	H57.735z"/>
<path fill="#989798" d="M52.724,3473.226l22.332-36.937c-0.353-0.01-0.699-0.054-1.056-0.054c-13.65,0-25.799,6.333-33.709,16.195
	L52.724,3473.226z"/>
<path fill="#989798" d="M68.661,3458.778H74h12.334h25.632c-6.11-11.231-17.099-19.414-30.126-21.8L68.661,3458.778z"/>
<path fill="#989798" d="M79.146,3499.765h-17.48H36.034c6.091,11.191,17.022,19.362,29.987,21.778L79.146,3499.765z"/>
<path fill="#989798" d="M90.194,3464.926l21.298,35.621c3.594-6.277,5.675-13.529,5.675-21.274c0-5.039-0.916-9.853-2.509-14.347
	H90.194z"/>
<path fill="#989798" d="M95.13,3485.187l-22.339,37.062c0.406,0.011,0.799,0.059,1.209,0.059c13.627,0,25.759-6.309,33.67-16.142
	L95.13,3485.187z"/>
<g opacity="0.1">
	<g>
		<defs>
			<rect id="SVGID_42_" y="3628" width="148" height="166"/>
		</defs>
		<clipPath id="SVGID_43_">
			<use xlink:href="#SVGID_42_"  overflow="visible"/>
		</clipPath>
		<path clip-path="url(#SVGID_43_)" fill="#231F20" d="M0,3786.979c0,3.872,3.152,7.021,7.024,7.021h133.953
			c3.871,0,7.023-3.15,7.023-7.021v-151.958c0-3.871-3.152-7.021-7.023-7.021H44.878c-4.293,0-9.824,2.297-12.856,5.343
			l-26.71,26.803C2.285,3663.183,0,3668.715,0,3673.01V3786.979z"/>
	</g>
</g>
<path fill="#FFFFFF" d="M4.111,3786.979c0,1.608,1.311,2.922,2.913,2.922h133.953c1.6,0,2.911-1.313,2.911-2.922v-151.958
	c0-1.605-1.312-2.922-2.911-2.922H44.878c-3.201,0-7.675,1.859-9.939,4.129l-26.71,26.809c-2.267,2.269-4.118,6.76-4.118,9.973
	V3786.979z"/>
<g opacity="0.7">
	<g>
		<defs>
			<rect id="SVGID_44_" x="34.944" y="3677.268" width="46.373" height="67.547"/>
		</defs>
		<clipPath id="SVGID_45_">
			<use xlink:href="#SVGID_44_"  overflow="visible"/>
		</clipPath>
		<path clip-path="url(#SVGID_45_)" fill="#B781B7" d="M34.944,3678.653c4.5-0.8,10.823-1.392,19.731-1.392
			c9.011,0,15.431,1.79,19.738,5.372c4.127,3.383,6.904,8.958,6.904,15.519c0,6.564-2.115,12.136-5.944,15.918
			c-4.976,4.88-12.358,7.065-20.979,7.065c-1.917,0-3.642-0.096-4.983-0.298v23.979H34.944V3678.653z M49.411,3709.099
			c1.246,0.298,2.776,0.396,4.884,0.396c7.762,0,12.551-4.084,12.551-10.947c0-6.162-4.119-9.839-11.397-9.839
			c-2.972,0-4.986,0.292-6.038,0.589V3709.099z"/>
	</g>
</g>
<g opacity="0.7">
	<g>
		<defs>
			<rect id="SVGID_46_" x="88.574" y="3700.365" width="24.48" height="44.449"/>
		</defs>
		<clipPath id="SVGID_47_">
			<use xlink:href="#SVGID_46_"  overflow="visible"/>
		</clipPath>
		<path clip-path="url(#SVGID_47_)" fill="#B781B7" d="M111,3712.024c-3.225-1.524-8.077-1.146-10.277,0v32.79H88.574v-40.658
			c5.078-2.768,12.192-4.299,24.48-3.633L111,3712.024z"/>
	</g>
</g>
<g opacity="0.18">
	<g>
		<defs>
			<rect id="SVGID_48_" x="30.834" y="3632.099" width="86.333" height="157.802"/>
		</defs>
		<clipPath id="SVGID_49_">
			<use xlink:href="#SVGID_48_"  overflow="visible"/>
		</clipPath>
	</g>
</g>
<g opacity="0.27">
	<g>
		<defs>
			<rect id="SVGID_50_" x="4.111" y="3744.814" width="139.776" height="45.086"/>
		</defs>
		<clipPath id="SVGID_51_">
			<use xlink:href="#SVGID_50_"  overflow="visible"/>
		</clipPath>
	</g>
</g>
<g opacity="0.27">
	<g>
		<defs>
			<rect id="SVGID_52_" x="4.111" y="3632.099" width="139.776" height="45.088"/>
		</defs>
		<clipPath id="SVGID_53_">
			<use xlink:href="#SVGID_52_"  overflow="visible"/>
		</clipPath>
	</g>
</g>
<g opacity="0.1">
	<g>
		<defs>
			<rect id="SVGID_54_" y="3872" width="148" height="166"/>
		</defs>
		<clipPath id="SVGID_55_">
			<use xlink:href="#SVGID_54_"  overflow="visible"/>
		</clipPath>
		<path clip-path="url(#SVGID_55_)" fill="#231F20" d="M0,4030.981c0,3.871,3.152,7.019,7.024,7.019h133.953
			c3.871,0,7.023-3.148,7.023-7.019v-151.961c0-3.87-3.152-7.021-7.023-7.021H44.878c-4.293,0-9.822,2.299-12.856,5.344
			l-26.708,26.802c-3.029,3.04-5.314,8.57-5.314,12.865V4030.981z"/>
	</g>
</g>
<path fill="#FFFFFF" d="M4.111,4030.981c0,1.606,1.312,2.923,2.913,2.923h133.953c1.6,0,2.911-1.316,2.911-2.923v-151.961
	c0-1.604-1.312-2.922-2.911-2.922H44.878c-3.201,0-7.673,1.859-9.939,4.132l-26.71,26.805c-2.267,2.271-4.118,6.762-4.118,9.976
	V4030.981z"/>
<path fill="#E97324" d="M104.833,3952.451c0-13.82-14.388-23.068-30.833-23.068H51.388v12.297h8.224v57.381h12.332v-22.543H74
	C92.499,3976.519,104.833,3967.322,104.833,3952.451 M71.944,3964.223v-22.542c16.446,0,20.555,3.01,20.555,11.207
	C92.499,3961.085,88.39,3964.223,71.944,3964.223"/>
<g opacity="0.1">
	<g>
		<defs>
			<rect id="SVGID_56_" y="4115" width="148" height="166"/>
		</defs>
		<clipPath id="SVGID_57_">
			<use xlink:href="#SVGID_56_"  overflow="visible"/>
		</clipPath>
		<path clip-path="url(#SVGID_57_)" fill="#231F20" d="M0,4273.979c0,3.87,3.152,7.021,7.024,7.021h133.953
			c3.871,0,7.023-3.152,7.023-7.021v-151.957c0-3.871-3.152-7.021-7.023-7.021H44.878c-4.293,0-9.824,2.3-12.856,5.345
			l-26.71,26.802C2.284,4150.185,0,4155.716,0,4160.011V4273.979z"/>
	</g>
</g>
<path fill="#FFFFFF" d="M4.111,4273.979c0,1.606,1.311,2.922,2.913,2.922h133.953c1.6,0,2.911-1.315,2.911-2.922v-151.957
	c0-1.604-1.312-2.922-2.911-2.922H44.878c-3.202,0-7.675,1.859-9.939,4.13l-26.71,26.804c-2.266,2.273-4.118,6.763-4.118,9.977
	V4273.979z"/>
<g>
	<defs>
		<path id="SVGID_58_" d="M39.056,4195.952c0-19.809,16.104-35.866,35.971-35.866c19.868,0,35.973,16.057,35.973,35.866
			c0,19.807-16.104,35.863-35.973,35.863C55.16,4231.814,39.056,4215.758,39.056,4195.952 M32.89,4195.952
			c0,23.203,18.865,42.011,42.138,42.011s42.14-18.808,42.14-42.011c0-23.205-18.867-42.012-42.14-42.012
			S32.89,4172.747,32.89,4195.952"/>
	</defs>
	<clipPath id="SVGID_59_">
		<use xlink:href="#SVGID_58_"  overflow="visible"/>
	</clipPath>
	
		<linearGradient id="SVGID_60_" gradientUnits="userSpaceOnUse" x1="-1249.2603" y1="7212.2852" x2="-1247.2106" y2="7212.2852" gradientTransform="matrix(0 -33.0802 -33.0802 0 238658.5938 -37100)">
		<stop  offset="0" style="stop-color:#FFFFFF"/>
		<stop  offset="1" style="stop-color:#9F82B0"/>
	</linearGradient>
	<rect x="32.89" y="4153.939" clip-path="url(#SVGID_59_)" fill="url(#SVGID_60_)" width="84.277" height="84.023"/>
</g>
<g>
	<defs>
		<path id="SVGID_61_" d="M51.388,4195.952c0-13.015,10.583-23.568,23.639-23.568c13.056,0,23.639,10.553,23.639,23.568
			s-10.583,23.566-23.639,23.566C61.971,4219.518,51.388,4208.967,51.388,4195.952 M45.223,4195.952
			c0,16.411,13.345,29.716,29.805,29.716c16.461,0,29.806-13.305,29.806-29.716c0-16.412-13.345-29.718-29.806-29.718
			C58.568,4166.234,45.223,4179.54,45.223,4195.952"/>
	</defs>
	<clipPath id="SVGID_62_">
		<use xlink:href="#SVGID_61_"  overflow="visible"/>
	</clipPath>
	
		<linearGradient id="SVGID_63_" gradientUnits="userSpaceOnUse" x1="-1213.5913" y1="7207.4395" x2="-1211.5416" y2="7207.4395" gradientTransform="matrix(0 -23.3982 -23.3982 0 168715.8281 -24178.7656)">
		<stop  offset="0" style="stop-color:#FFFFFF"/>
		<stop  offset="1" style="stop-color:#9F82B0"/>
	</linearGradient>
	<rect x="45.223" y="4166.234" clip-path="url(#SVGID_62_)" fill="url(#SVGID_63_)" width="59.61" height="59.434"/>
</g>
<g opacity="0.8">
	<g>
		<defs>
			<rect id="SVGID_64_" x="59.612" y="4180.581" width="30.524" height="71.728"/>
		</defs>
		<clipPath id="SVGID_65_">
			<use xlink:href="#SVGID_64_"  overflow="visible"/>
		</clipPath>
		<path clip-path="url(#SVGID_65_)" fill="#241C27" d="M80.285,4209.708c5.694-2.159,9.748-7.634,9.748-14.067
			c0-8.318-6.764-15.062-15.106-15.062c-8.343,0-15.103,6.744-15.103,15.062c0,6.424,4.042,11.896,9.725,14.059
			c-5.142,1.594-9.938,5.281-9.938,10.005c0,6.459,4.36,32.602,15.26,32.602c10.899,0,15.261-28.253,15.261-32.602
			C90.133,4214.898,85.396,4211.281,80.285,4209.708"/>
	</g>
</g>
<g opacity="0.1">
	<g>
		<defs>
			<rect id="SVGID_66_" y="4358" width="148" height="166"/>
		</defs>
		<clipPath id="SVGID_67_">
			<use xlink:href="#SVGID_66_"  overflow="visible"/>
		</clipPath>
		<path clip-path="url(#SVGID_67_)" fill="#231F20" d="M0,4516.98c0,3.872,3.152,7.02,7.024,7.02h133.953
			c3.871,0,7.023-3.148,7.023-7.02v-151.959c0-3.871-3.152-7.021-7.023-7.021H44.878c-4.293,0-9.824,2.296-12.856,5.344
			l-26.71,26.802c-3.027,3.037-5.312,8.57-5.312,12.865V4516.98z"/>
	</g>
</g>
<path fill="#FFFFFF" d="M4.111,4516.98c0,1.607,1.311,2.922,2.913,2.922h133.953c1.6,0,2.911-1.315,2.911-2.922v-151.959
	c0-1.604-1.312-2.922-2.911-2.922H44.878c-3.201,0-7.675,1.859-9.939,4.13l-26.71,26.806c-2.267,2.272-4.118,6.761-4.118,9.976
	V4516.98z"/>
<path fill="#79BAD6" d="M111.684,4432.37c-2.845-2.995-8.074-8.789-8.906-8.789v40.988l4.111,6.147v-28.69
	c0-2.259,3.553-3.267,5.905-1.058c2.577,2.418,3.494,5.845,2.153,9.256c-0.521,1.056,0.4,1.458,0.949,0.927
	c1.133-1.43,1.271-5.028,1.271-7.077C117.167,4439.731,114.646,4435.48,111.684,4432.37 M78.112,4464.569H43.167
	c-1.489,0-2.055,0.561-2.055,2.05v8.196c0,1.489,0.566,2.049,2.055,2.049h34.946c1.485,0,2.055-0.56,2.055-2.049v-8.196
	C80.167,4465.129,79.598,4464.569,78.112,4464.569 M92.499,4444.075H43.167c-1.489,0-2.055,0.56-2.055,2.049v8.198
	c0,1.489,0.566,2.05,2.055,2.05h49.333c1.488,0,2.056-0.561,2.056-2.05v-8.198C94.555,4444.634,93.987,4444.075,92.499,4444.075
	 M92.499,4423.581H43.167c-1.489,0-2.055,0.561-2.055,2.05v8.198c0,1.489,0.566,2.049,2.055,2.049h49.333
	c1.488,0,2.056-0.56,2.056-2.049v-8.198C94.555,4424.142,93.987,4423.581,92.499,4423.581"/>
<path fill="#79BAD6" d="M106.889,4469.691c0,3.963-4.604,7.173-10.278,7.173c-5.677,0-10.276-3.209-10.276-7.173
	s4.6-7.173,10.276-7.173C102.285,4462.519,106.889,4465.728,106.889,4469.691"/>
<g opacity="0.1">
	<g>
		<defs>
			<rect id="SVGID_68_" y="4601" width="148" height="166"/>
		</defs>
		<clipPath id="SVGID_69_">
			<use xlink:href="#SVGID_68_"  overflow="visible"/>
		</clipPath>
		<path clip-path="url(#SVGID_69_)" fill="#231F20" d="M0,4759.977c0,3.872,3.152,7.023,7.024,7.023h133.953
			c3.871,0,7.023-3.152,7.023-7.023v-151.956c0-3.87-3.152-7.021-7.023-7.021H44.878c-4.293,0-9.824,2.297-12.856,5.343
			l-26.71,26.803C2.285,4636.183,0,4641.716,0,4646.01V4759.977z"/>
	</g>
</g>
<path fill="#FFFFFF" d="M4.111,4759.977c0,1.608,1.311,2.921,2.913,2.921h133.953c1.6,0,2.911-1.313,2.911-2.921v-151.956
	c0-1.607-1.312-2.921-2.911-2.921H44.878c-3.201,0-7.675,1.857-9.939,4.13l-26.71,26.805c-2.267,2.272-4.118,6.761-4.118,9.975
	V4759.977z"/>
<g opacity="0.7">
	<g>
		<defs>
			<rect id="SVGID_70_" x="32.89" y="4650.247" width="46.167" height="67.567"/>
		</defs>
		<clipPath id="SVGID_71_">
			<use xlink:href="#SVGID_70_"  overflow="visible"/>
		</clipPath>
		<path clip-path="url(#SVGID_71_)" fill="#44C2F1" d="M32.89,4651.635c4.482-0.805,10.771-1.397,19.64-1.397
			c8.968,0,15.36,1.792,19.646,5.375c4.109,3.389,6.872,8.962,6.872,15.526c0,6.564-2.104,12.137-5.917,15.923
			c-4.954,4.879-12.298,7.065-20.881,7.065c-1.91,0-3.625-0.099-4.962-0.302v23.989H32.89V4651.635z M47.287,4682.085
			c1.242,0.301,2.765,0.399,4.862,0.399c7.724,0,12.496-4.084,12.496-10.949c0-6.166-4.102-9.844-11.348-9.844
			c-2.958,0-4.962,0.29-6.01,0.59V4682.085z"/>
	</g>
</g>
<g opacity="0.7">
	<g>
		<defs>
			<rect id="SVGID_72_" x="81.71" y="4669.326" width="35.271" height="48.488"/>
		</defs>
		<clipPath id="SVGID_73_">
			<use xlink:href="#SVGID_72_"  overflow="visible"/>
		</clipPath>
		<path clip-path="url(#SVGID_73_)" fill="#44C2F1" d="M84.28,4704.21c2.671,1.625,8.2,3.523,12.495,3.523
			c4.387,0,6.197-1.525,6.197-3.894c0-2.386-1.432-3.524-6.866-5.328c-9.638-3.238-13.356-8.471-13.257-13.984
			c0-8.648,7.439-15.205,18.98-15.205c5.436,0,10.298,1.231,13.154,2.657l-2.568,9.987c-2.098-1.14-6.105-2.664-10.112-2.664
			c-3.527,0-5.528,1.424-5.528,3.803c0,2.183,1.81,3.329,7.531,5.325c8.87,3.045,12.589,7.512,12.685,14.355
			c0,8.659-6.867,15.029-20.216,15.029c-6.105,0-11.541-1.33-15.075-3.237L84.28,4704.21z"/>
	</g>
</g>
<g opacity="0.18">
	<g>
		<defs>
			<rect id="SVGID_74_" x="30.834" y="4605.1" width="86.333" height="157.798"/>
		</defs>
		<clipPath id="SVGID_75_">
			<use xlink:href="#SVGID_74_"  overflow="visible"/>
		</clipPath>
	</g>
</g>
<g opacity="0.27">
	<g>
		<defs>
			<rect id="SVGID_76_" x="4.111" y="4717.814" width="139.776" height="45.084"/>
		</defs>
		<clipPath id="SVGID_77_">
			<use xlink:href="#SVGID_76_"  overflow="visible"/>
		</clipPath>
	</g>
</g>
<g opacity="0.27">
	<g>
		<defs>
			<rect id="SVGID_78_" x="4.111" y="4605.1" width="139.776" height="45.085"/>
		</defs>
		<clipPath id="SVGID_79_">
			<use xlink:href="#SVGID_78_"  overflow="visible"/>
		</clipPath>
	</g>
</g>
<g opacity="0.1">
	<g>
		<defs>
			<rect id="SVGID_80_" y="4844" width="148" height="166"/>
		</defs>
		<clipPath id="SVGID_81_">
			<use xlink:href="#SVGID_80_"  overflow="visible"/>
		</clipPath>
		<path clip-path="url(#SVGID_81_)" fill="#231F20" d="M0,5002.979c0,3.871,3.152,7.021,7.024,7.021h133.953
			c3.871,0,7.023-3.15,7.023-7.021v-151.96c0-3.871-3.152-7.02-7.023-7.02H44.878c-4.293,0-9.824,2.296-12.856,5.343l-26.71,26.803
			C2.285,4879.184,0,4884.714,0,4889.009V5002.979z"/>
	</g>
</g>
<path fill="#FFFFFF" d="M4.111,5002.979c0,1.607,1.311,2.922,2.913,2.922h133.953c1.6,0,2.911-1.315,2.911-2.922v-151.96
	c0-1.604-1.312-2.921-2.911-2.921H44.878c-3.201,0-7.675,1.86-9.939,4.13l-26.71,26.807c-2.267,2.272-4.118,6.76-4.118,9.974
	V5002.979z"/>
<path fill="#D62328" d="M59.318,4935.723c2.867-5.477,6.127-11.657,8.74-17.855l1.03-2.451c-3.41-12.639-5.452-22.79-3.627-29.352
	c0.489-1.71,2.526-2.747,4.697-2.747l1.325,0.02h0.245c2.975-0.043,4.375,3.642,4.537,5.078c0.261,2.387-0.875,6.434-0.875,6.434
	c0-1.637,0.068-4.275-0.99-6.55c-1.232-2.634-2.407-4.206-3.46-4.459c-0.53,0.35-1.049,1.066-1.225,2.445
	c-0.367,1.938-0.479,4.374-0.479,5.635c0,4.449,0.899,10.319,2.666,16.37c0.336-0.934,0.626-1.834,0.859-2.679
	c0.364-1.33,2.662-10.142,2.662-10.142s-0.577,11.73-1.385,15.277c-0.174,0.752-0.368,1.493-0.565,2.253
	c2.907,7.929,7.602,15.007,13.202,20.1c2.207,2.012,4.993,3.634,7.634,5.11c5.759-0.803,11.064-1.18,15.492-1.132
	c5.871,0.075,10.183,0.92,11.926,2.595c0.854,0.815,1.201,1.799,1.312,2.897c0.021,0.435-0.191,1.44-0.257,1.692
	c0.065-0.304,0.065-1.809-4.647-3.278c-3.712-1.155-10.661-1.118-18.995-0.253c9.641,4.596,19.035,6.881,22.008,5.511
	c0.733-0.345,1.614-1.523,1.614-1.523s-0.526,2.321-0.9,2.903c-0.479,0.631-1.424,1.313-2.316,1.544
	c-4.704,1.225-16.942-1.605-27.612-7.545c-11.922,1.708-25.013,4.869-35.504,8.225c-10.316,17.612-18.064,25.7-24.372,22.624
	l-2.321-1.14c-0.941-0.522-1.083-1.802-0.865-2.845c0.734-3.505,5.244-8.785,14.307-14.06c0.978-0.573,5.319-2.813,5.319-2.813
	s-3.216,3.032-3.971,3.629c-7.23,5.775-12.57,13.044-12.436,15.859l0.026,0.249C38.259,4970.497,47.471,4958.309,59.318,4935.723
	 M63.068,4937.597c-1.979,3.629-3.908,6.994-5.694,10.088c9.874-4.03,20.501-6.613,30.622-8.446c-1.36-0.916-2.682-1.884-3.92-2.91
	c-5.575-4.597-9.825-10.333-12.901-16.368C69.221,4925.09,66.9,4930.538,63.068,4937.597"/>
<g opacity="0.1">
	<g>
		<defs>
			<rect id="SVGID_82_" y="5088" width="148" height="166"/>
		</defs>
		<clipPath id="SVGID_83_">
			<use xlink:href="#SVGID_82_"  overflow="visible"/>
		</clipPath>
		<path clip-path="url(#SVGID_83_)" fill="#231F20" d="M0,5246.979c0,3.873,3.152,7.021,7.024,7.021h133.953
			c3.871,0,7.023-3.149,7.023-7.021v-151.957c0-3.872-3.152-7.021-7.023-7.021H44.878c-4.293,0-9.824,2.298-12.856,5.344
			l-26.71,26.802C2.285,5123.184,0,5128.715,0,5133.011V5246.979z"/>
	</g>
</g>
<path fill="#FFFFFF" d="M4.111,5246.979c0,1.609,1.311,2.923,2.913,2.923h133.953c1.602,0,2.911-1.313,2.911-2.923v-151.957
	c0-1.606-1.31-2.922-2.911-2.922H44.878c-3.201,0-7.675,1.858-9.939,4.129l-26.71,26.805c-2.267,2.273-4.118,6.764-4.118,9.977
	V5246.979z"/>
<g opacity="0.5">
	<g>
		<defs>
			<rect id="SVGID_84_" x="4.111" y="5141.285" width="139.776" height="79.926"/>
		</defs>
		<clipPath id="SVGID_85_">
			<use xlink:href="#SVGID_84_"  overflow="visible"/>
		</clipPath>
		<polygon clip-path="url(#SVGID_85_)" fill="#7BCAF1" points="129.499,5176.125 129.499,5167.928 121.278,5167.928 
			121.278,5159.73 113.055,5159.73 113.055,5149.483 104.833,5149.483 104.833,5141.285 96.61,5141.285 96.61,5149.483 
			88.39,5149.483 88.39,5167.928 80.167,5167.928 80.167,5159.73 71.944,5159.73 71.944,5149.483 63.723,5149.483 63.723,5167.928 
			55.5,5167.928 55.5,5149.483 47.277,5149.483 47.277,5141.285 39.056,5141.285 39.056,5159.73 30.834,5159.73 30.834,5167.928 
			22.611,5167.928 22.611,5176.125 4.111,5176.125 4.111,5186.371 22.611,5186.371 22.611,5194.568 30.834,5194.568 
			30.834,5202.766 39.056,5202.766 39.056,5221.211 47.277,5221.211 47.277,5213.011 55.5,5213.011 55.5,5194.568 63.723,5194.568 
			63.723,5213.011 71.944,5213.011 71.944,5202.766 80.167,5202.766 80.167,5194.568 88.39,5194.568 88.39,5213.011 96.61,5213.011 
			96.61,5221.211 104.833,5221.211 104.833,5213.011 113.055,5213.011 113.055,5202.766 121.278,5202.766 121.278,5194.568 
			129.499,5194.568 129.499,5186.371 143.888,5186.371 143.888,5176.125 		"/>
	</g>
</g>
<g opacity="0.5">
	<g>
		<defs>
			<rect id="SVGID_86_" x="14.389" y="5149.483" width="123.333" height="63.528"/>
		</defs>
		<clipPath id="SVGID_87_">
			<use xlink:href="#SVGID_86_"  overflow="visible"/>
		</clipPath>
		<polygon clip-path="url(#SVGID_87_)" fill="#79BAD6" points="129.499,5176.125 121.278,5176.125 121.278,5167.928 
			113.055,5167.928 113.055,5159.73 104.833,5159.73 104.833,5149.483 96.61,5149.483 96.61,5157.679 88.39,5157.679 
			88.39,5174.073 80.167,5174.073 80.167,5165.877 71.944,5165.877 71.944,5155.63 63.723,5155.63 63.723,5174.073 55.5,5174.073 
			55.5,5157.679 47.277,5157.679 47.277,5149.483 39.056,5149.483 39.056,5167.928 30.834,5167.928 30.834,5176.125 
			22.611,5176.125 14.389,5176.125 14.389,5186.371 22.611,5186.371 30.834,5186.371 30.834,5194.568 39.056,5194.568 
			39.056,5213.011 47.277,5213.011 47.277,5204.815 55.5,5204.815 55.5,5188.42 63.723,5188.42 63.723,5206.866 71.944,5206.866 
			71.944,5196.617 80.167,5196.617 80.167,5188.42 88.39,5188.42 88.39,5202.766 96.61,5202.766 96.61,5213.011 104.833,5213.011 
			104.833,5202.766 113.055,5202.766 113.055,5194.568 121.278,5194.568 121.278,5186.371 129.499,5186.371 137.723,5186.371 
			137.723,5176.125 		"/>
	</g>
</g>
<g opacity="0.1">
	<g>
		<defs>
			<rect id="SVGID_88_" y="5331" width="148" height="166"/>
		</defs>
		<clipPath id="SVGID_89_">
			<use xlink:href="#SVGID_88_"  overflow="visible"/>
		</clipPath>
		<path clip-path="url(#SVGID_89_)" fill="#231F20" d="M0,5489.979c0,3.871,3.152,7.021,7.024,7.021h133.953
			c3.871,0,7.023-3.15,7.023-7.021v-151.959c0-3.871-3.152-7.021-7.023-7.021H44.878c-4.293,0-9.824,2.297-12.856,5.342
			l-26.71,26.802c-3.027,3.04-5.312,8.57-5.312,12.866V5489.979z"/>
	</g>
</g>
<path fill="#FFFFFF" d="M4.111,5489.979c0,1.607,1.311,2.922,2.913,2.922h133.953c1.6,0,2.911-1.314,2.911-2.922v-151.959
	c0-1.605-1.312-2.922-2.911-2.922H44.878c-3.201,0-7.675,1.86-9.939,4.131l-26.71,26.806c-2.267,2.272-4.118,6.761-4.118,9.976
	V5489.979z"/>
<path fill-rule="evenodd" clip-rule="evenodd" fill="#989798" d="M57.556,5462.161h22.611c0.324,0,0.646-0.098,0.923-0.296
	c10.612-7.49,18.796-23.835,18.796-38.146v-0.044c-0.004-2.317-1.256-4.551-3.275-4.551H41.111c-2.021,0-3.412,2.233-3.414,4.551
	v0.044c0,14.31,8.324,30.656,18.935,38.146C56.907,5462.063,57.23,5462.161,57.556,5462.161"/>
<path fill="#F16D24" d="M63.108,5404.602c0,0-9.473-5.668-9.473-15.111c0-9.446,13.259-11.332,13.259-20.775
	c0-9.443-9.471-11.332-9.471-11.332s17.05-1.888,17.05,11.332S47.952,5383.827,63.108,5404.602"/>
<path fill="#F16D24" d="M80.845,5413.952c0,0-12.056-7.25-12.056-19.333c0-12.083,16.878-14.498,16.878-26.58
	s-12.056-14.5-12.056-14.5s21.702-2.415,21.702,14.5C95.312,5384.953,61.556,5387.369,80.845,5413.952"/>
<path fill-rule="evenodd" clip-rule="evenodd" fill="#989798" d="M108.945,5472.408h-18.5c-4.878,0-6.862,1.442-7.672,2.618
	c-0.638,0.928-1.686,1.481-2.815,1.481H57.766c-1.132,0-2.18-0.553-2.818-1.481c-0.809-1.176-2.792-2.618-7.67-2.618h-18.5
	c-4.111,0-4.111-6.148-0.227-6.148h80.479C113.055,5466.26,113.055,5472.408,108.945,5472.408"/>
<path fill="#989798" d="M108.734,5424.593c7.042,0,10.41,8.712,5.129,13.358c-3.812,3.35-9.614,6.702-17.537,6.702
	c-21.371,0,0.284-20.06,0.284-20.06H108.734 M108.734,5419.124H96.61h-2.155l-1.578,1.461c-4.337,4.019-14.068,14.258-10.79,22.578
	c1.819,4.619,6.611,6.961,14.239,6.961c7.842,0,15.162-2.791,21.166-8.074c4.119-3.621,5.522-9.28,3.573-14.418
	C119.105,5422.463,114.263,5419.124,108.734,5419.124"/>
<g opacity="0.18">
	<g>
		<defs>
			<rect id="SVGID_90_" x="30.834" y="5335.099" width="86.333" height="157.803"/>
		</defs>
		<clipPath id="SVGID_91_">
			<use xlink:href="#SVGID_90_"  overflow="visible"/>
		</clipPath>
	</g>
</g>
<g opacity="0.27">
	<g>
		<defs>
			<rect id="SVGID_92_" x="4.111" y="5447.814" width="139.776" height="45.087"/>
		</defs>
		<clipPath id="SVGID_93_">
			<use xlink:href="#SVGID_92_"  overflow="visible"/>
		</clipPath>
	</g>
</g>
<g opacity="0.27">
	<g>
		<defs>
			<rect id="SVGID_94_" x="4.111" y="5335.098" width="139.776" height="45.087"/>
		</defs>
		<clipPath id="SVGID_95_">
			<use xlink:href="#SVGID_94_"  overflow="visible"/>
		</clipPath>
	</g>
</g>
<g opacity="0.1">
	<g>
		<defs>
			<rect id="SVGID_96_" y="5574" width="148" height="166"/>
		</defs>
		<clipPath id="SVGID_97_">
			<use xlink:href="#SVGID_96_"  overflow="visible"/>
		</clipPath>
		<path clip-path="url(#SVGID_97_)" fill="#231F20" d="M0,5732.979c0,3.871,3.152,7.021,7.024,7.021h133.953
			c3.871,0,7.023-3.15,7.023-7.021v-151.957c0-3.872-3.152-7.022-7.023-7.022H44.878c-4.293,0-9.824,2.3-12.856,5.346l-26.71,26.802
			C2.285,5609.186,0,5614.717,0,5619.012V5732.979z"/>
	</g>
</g>
<path fill="#FFFFFF" d="M4.111,5732.979c0,1.606,1.311,2.922,2.913,2.922h133.953c1.6,0,2.911-1.316,2.911-2.922v-151.957
	c0-1.605-1.312-2.922-2.911-2.922H44.878c-3.201,0-7.675,1.859-9.939,4.131l-26.71,26.804c-2.267,2.273-4.118,6.762-4.118,9.977
	V5732.979z"/>
<g opacity="0.7">
	<g>
		<defs>
			<rect id="SVGID_98_" x="43.167" y="5623.258" width="61.667" height="67.557"/>
		</defs>
		<clipPath id="SVGID_99_">
			<use xlink:href="#SVGID_98_"  overflow="visible"/>
		</clipPath>
		<rect x="43.167" y="5631.385" clip-path="url(#SVGID_99_)" fill="#EC4088" width="12.334" height="59.43"/>
		<path clip-path="url(#SVGID_99_)" fill="#EC4088" d="M88.545,5690.814c-13.894,0-22.589-8.158-22.589-23.453
			c0-14.704,8.355-23.714,20.201-23.714c2.728,0,5.032,0.348,6.732,0.768v-21.156h11.943v64.151
			C100.656,5689.626,96.471,5690.814,88.545,5690.814 M92.89,5651.557c-1.109-0.339-2.296-0.512-3.666-0.512
			c-7.326,0-10.138,6.29-10.138,15.72c0,9.943,2.978,15.637,9.716,15.637c1.792,0,3.15-0.174,4.088-0.685V5651.557z"/>
	</g>
</g>
<g opacity="0.18">
	<g>
		<defs>
			<rect id="SVGID_100_" x="30.834" y="5578.101" width="86.333" height="157.801"/>
		</defs>
		<clipPath id="SVGID_101_">
			<use xlink:href="#SVGID_100_"  overflow="visible"/>
		</clipPath>
	</g>
</g>
<g opacity="0.27">
	<g>
		<defs>
			<rect id="SVGID_102_" x="4.111" y="5690.814" width="139.776" height="45.087"/>
		</defs>
		<clipPath id="SVGID_103_">
			<use xlink:href="#SVGID_102_"  overflow="visible"/>
		</clipPath>
	</g>
</g>
<g opacity="0.27">
	<g>
		<defs>
			<rect id="SVGID_104_" x="4.111" y="5578.1" width="139.776" height="45.087"/>
		</defs>
		<clipPath id="SVGID_105_">
			<use xlink:href="#SVGID_104_"  overflow="visible"/>
		</clipPath>
	</g>
</g>
<g opacity="0.1">
	<g>
		<defs>
			<rect id="SVGID_106_" y="5817" width="148" height="166"/>
		</defs>
		<clipPath id="SVGID_107_">
			<use xlink:href="#SVGID_106_"  overflow="visible"/>
		</clipPath>
		<path clip-path="url(#SVGID_107_)" fill="#231F20" d="M0,5975.979c0,3.871,3.152,7.021,7.024,7.021h133.953
			c3.871,0,7.023-3.151,7.023-7.021v-151.958c0-3.871-3.152-7.021-7.023-7.021H44.878c-4.293,0-9.824,2.297-12.856,5.344
			l-26.71,26.8c-3.027,3.037-5.312,8.57-5.312,12.866V5975.979z"/>
	</g>
</g>
<path fill="#FFFFFF" d="M4.111,5975.979c0,1.606,1.311,2.922,2.913,2.922h133.953c1.602,0,2.911-1.315,2.911-2.922v-151.958
	c0-1.605-1.31-2.922-2.911-2.922H44.878c-3.201,0-7.675,1.859-9.939,4.131l-26.71,26.804c-2.267,2.273-4.118,6.762-4.118,9.977
	V5975.979z"/>
<path fill="#989798" d="M111,5884.63H94.555l-3.878-3.956c-2.249-2.27-6.688-4.124-9.87-4.124h-11.56
	c-3.18,0-7.62,1.854-9.869,4.124l-3.877,3.956H39.056c-6.36,0-10.2,5.642-10.2,12.059v34.524c0,6.416,3.84,10.798,10.2,10.798H111
	c6.358,0,10.199-1.505,10.199-7.921v-37.401C121.199,5890.272,117.358,5884.63,111,5884.63"/>
<path fill="#FFFFFF" d="M115.11,5894.876c0,2.265-1.838,4.098-4.11,4.098c-2.271,0-4.111-1.833-4.111-4.098s1.84-4.1,4.111-4.1
	C113.272,5890.776,115.11,5892.611,115.11,5894.876"/>
<path fill="#FFFFFF" d="M75.027,5888.728c-13.057,0-23.639,10.55-23.639,23.567s10.583,23.569,23.639,23.569
	c13.054,0,23.639-10.552,23.639-23.569S88.081,5888.728,75.027,5888.728"/>
<path fill="#989798" d="M75.027,5894.876c-9.649,0-17.472,7.801-17.472,17.419c0,9.621,7.823,17.419,17.472,17.419
	c9.65,0,17.472-7.798,17.472-17.419C92.499,5902.677,84.678,5894.876,75.027,5894.876"/>
<g opacity="0.1">
	<g>
		<defs>
			<rect id="SVGID_108_" y="6061" width="148" height="166"/>
		</defs>
		<clipPath id="SVGID_109_">
			<use xlink:href="#SVGID_108_"  overflow="visible"/>
		</clipPath>
		<path clip-path="url(#SVGID_109_)" fill="#231F20" d="M0,6219.979c0,3.87,3.152,7.021,7.024,7.021h133.953
			c3.871,0,7.023-3.15,7.023-7.021v-151.957c0-3.87-3.152-7.022-7.023-7.022H44.878c-4.293,0-9.824,2.297-12.856,5.344
			l-26.71,26.803c-3.027,3.037-5.312,8.57-5.312,12.865V6219.979z"/>
	</g>
</g>
<path fill="#FFFFFF" d="M4.111,6219.979c0,1.607,1.311,2.923,2.913,2.923h133.953c1.6,0,2.911-1.315,2.911-2.923v-151.957
	c0-1.605-1.312-2.923-2.911-2.923H44.878c-3.201,0-7.675,1.86-9.939,4.131l-26.71,26.803c-2.267,2.275-4.118,6.764-4.118,9.979
	V6219.979z"/>
<g opacity="0.7">
	<g>
		<defs>
			<rect id="SVGID_110_" x="34.944" y="6110.895" width="52.436" height="66.846"/>
		</defs>
		<clipPath id="SVGID_111_">
			<use xlink:href="#SVGID_110_"  overflow="visible"/>
		</clipPath>
		<path clip-path="url(#SVGID_111_)" fill="#F07B22" d="M52.506,6160.58l-4.098,17.164H34.944l17.562-66.848H69.56l17.815,66.848
			H73.391l-4.427-17.164H52.506z M67.087,6149.274l-3.59-14.177c-1.019-3.966-2.039-8.922-2.894-12.898h-0.165
			c-0.857,3.977-1.713,9.029-2.646,12.898l-3.409,14.177H67.087z"/>
	</g>
</g>
<g opacity="0.7">
	<g>
		<defs>
			<rect id="SVGID_112_" x="98.666" y="6130.678" width="12.334" height="47.137"/>
		</defs>
		<clipPath id="SVGID_113_">
			<use xlink:href="#SVGID_112_"  overflow="visible"/>
		</clipPath>
		<rect x="98.666" y="6130.678" clip-path="url(#SVGID_113_)" fill="#F07B22" width="12.334" height="47.137"/>
	</g>
</g>
<g opacity="0.7">
	<g>
		<defs>
			<rect id="SVGID_114_" x="98.666" y="6114.285" width="12.334" height="12.297"/>
		</defs>
		<clipPath id="SVGID_115_">
			<use xlink:href="#SVGID_114_"  overflow="visible"/>
		</clipPath>
		<path clip-path="url(#SVGID_115_)" fill="#F07B22" d="M111,6120.432c0,3.397-2.759,6.15-6.167,6.15
			c-3.404,0-6.167-2.753-6.167-6.15c0-3.396,2.763-6.146,6.167-6.146C108.241,6114.285,111,6117.035,111,6120.432"/>
	</g>
</g>
<g opacity="0.18">
	<g>
		<defs>
			<rect id="SVGID_116_" x="30.834" y="6065.1" width="86.333" height="157.803"/>
		</defs>
		<clipPath id="SVGID_117_">
			<use xlink:href="#SVGID_116_"  overflow="visible"/>
		</clipPath>
	</g>
</g>
<g opacity="0.27">
	<g>
		<defs>
			<rect id="SVGID_118_" x="4.111" y="6177.814" width="139.776" height="45.088"/>
		</defs>
		<clipPath id="SVGID_119_">
			<use xlink:href="#SVGID_118_"  overflow="visible"/>
		</clipPath>
	</g>
</g>
<g opacity="0.27">
	<g>
		<defs>
			<rect id="SVGID_120_" x="4.111" y="6065.1" width="139.776" height="45.086"/>
		</defs>
		<clipPath id="SVGID_121_">
			<use xlink:href="#SVGID_120_"  overflow="visible"/>
		</clipPath>
	</g>
</g>
<g opacity="0.1">
	<g>
		<defs>
			<rect id="SVGID_122_" y="6304" width="148" height="166"/>
		</defs>
		<clipPath id="SVGID_123_">
			<use xlink:href="#SVGID_122_"  overflow="visible"/>
		</clipPath>
		<path clip-path="url(#SVGID_123_)" fill="#231F20" d="M0,6462.979c0,3.87,3.152,7.021,7.024,7.021h133.953
			c3.871,0,7.023-3.15,7.023-7.021v-151.959c0-3.87-3.152-7.021-7.023-7.021H44.878c-4.293,0-9.824,2.297-12.856,5.342
			l-26.71,26.803c-3.027,3.039-5.312,8.57-5.312,12.866V6462.979z"/>
	</g>
</g>
<path fill="#FFFFFF" d="M4.111,6462.979c0,1.607,1.311,2.923,2.913,2.923h133.953c1.602,0,2.911-1.315,2.911-2.923v-151.959
	c0-1.605-1.31-2.921-2.911-2.921H44.878c-3.201,0-7.675,1.858-9.939,4.131l-26.71,26.803c-2.267,2.275-4.118,6.765-4.118,9.978
	V6462.979z"/>
<path fill="#30A0DA" d="M121.278,6397.773c0,25.464-21.166,46.113-47.278,46.113c-26.112,0-47.277-20.649-47.277-46.113
	c0-25.465,21.165-46.112,47.277-46.112C100.112,6351.661,121.278,6372.309,121.278,6397.773"/>
<g>
	<defs>
		<path id="SVGID_124_" d="M26.723,6397.773c0,25.464,21.165,46.113,47.277,46.113c26.109,0,47.278-20.649,47.278-46.113
			c0-25.465-21.169-46.112-47.278-46.112C47.888,6351.661,26.723,6372.309,26.723,6397.773"/>
	</defs>
	<clipPath id="SVGID_125_">
		<use xlink:href="#SVGID_124_"  overflow="visible"/>
	</clipPath>
	<path clip-path="url(#SVGID_125_)" fill="#FFFFFF" d="M88.891,6340.889l-3.951,12.328l3.951,3.855v4.623l6.717,4.623v5.006
		l-5.335-1.542l-1.775,5.011l4.345,1.925h2.766v4.625l2.764,6.163l-3.556,9.247v11.173l3.556,2.313l13.036-3.854l2.765,8.092
		l-4.345,5.395l1.977,4.235l14.483-2.311c0,0,11.98-23.886,11.98-25.043c0-1.155-8.293-28.509-8.293-28.509l-18.37-22.859
		L88.891,6340.889z"/>
	<polygon clip-path="url(#SVGID_125_)" fill="#FFFFFF" points="74.672,6353.602 66.374,6355.915 63.213,6360.152 67.166,6360.152 
		68.943,6369.784 71.511,6371.711 82.173,6366.318 	"/>
	<polygon clip-path="url(#SVGID_125_)" fill="#FFFFFF" points="57.684,6340.889 55.708,6359.383 60.055,6359.383 60.055,6364.391 
		53.733,6368.244 53.733,6371.709 56.895,6371.709 60.055,6369.398 66.376,6374.022 66.376,6380.572 60.055,6379.03 
		63.213,6384.426 56.5,6384.426 47.81,6393.67 40.305,6388.66 35.96,6393.67 41.488,6396.753 43.071,6405.229 41.095,6407.156 
		35.96,6399.45 30.035,6395.729 32.01,6387.121 21.6,6378.646 32.404,6353.602 	"/>
	<path clip-path="url(#SVGID_125_)" fill="#FFFFFF" d="M43.987,6407.156c0,0,8.167-0.387,10.538,0
		c2.369,0.385,11.849,8.091,11.849,8.091l6.321,3.853l9.482,1.926l-2.768,5.781l-13.035,11.171l-7.109,1.924l-5.135-3.466v-7.704
		l-11.062-8.86l2.764-7.709L43.987,6407.156z"/>
</g>
<path fill="#30A0DA" d="M74,6353.713c24.936,0,45.223,19.764,45.223,44.061c0,24.295-20.287,44.061-45.223,44.061
	c-24.936,0-45.222-19.766-45.222-44.061C28.778,6373.477,49.064,6353.713,74,6353.713 M74,6351.661
	c-26.112,0-47.277,20.647-47.277,46.112c0,25.464,21.165,46.113,47.277,46.113c26.112,0,47.278-20.649,47.278-46.113
	C121.278,6372.309,100.112,6351.661,74,6351.661"/>
<g opacity="0.1">
	<g>
		<defs>
			<rect id="SVGID_126_" y="6547" width="148" height="166"/>
		</defs>
		<clipPath id="SVGID_127_">
			<use xlink:href="#SVGID_126_"  overflow="visible"/>
		</clipPath>
		<path clip-path="url(#SVGID_127_)" fill="#231F20" d="M0,6705.979c0,3.871,3.152,7.021,7.024,7.021h133.953
			c3.871,0,7.023-3.15,7.023-7.021v-151.958c0-3.87-3.152-7.021-7.023-7.021H44.878c-4.293,0-9.824,2.297-12.856,5.342
			l-26.71,26.803c-3.027,3.039-5.312,8.57-5.312,12.866V6705.979z"/>
	</g>
</g>
<path fill="#FFFFFF" d="M4.111,6705.979c0,1.608,1.311,2.924,2.913,2.924h133.953c1.602,0,2.911-1.315,2.911-2.924v-151.958
	c0-1.605-1.31-2.923-2.911-2.923H44.878c-3.201,0-7.675,1.858-9.939,4.131l-26.71,26.805c-2.267,2.273-4.118,6.762-4.118,9.978
	V6705.979z"/>
<g>
	<g opacity="0.7">
		<g>
			<defs>
				<rect id="SVGID_128_" x="51.388" y="6633.074" width="76.056" height="57.383"/>
			</defs>
			<clipPath id="SVGID_129_">
				<use xlink:href="#SVGID_128_"  overflow="visible"/>
			</clipPath>
			<polygon clip-path="url(#SVGID_129_)" fill="#52A446" points="51.388,6690.457 127.444,6690.457 127.444,6649.471 
				108.945,6633.074 			"/>
		</g>
	</g>
	<g opacity="0.7">
		<g>
			<defs>
				<rect id="SVGID_130_" x="22.611" y="6657.666" width="61.666" height="32.791"/>
			</defs>
			<clipPath id="SVGID_131_">
				<use xlink:href="#SVGID_130_"  overflow="visible"/>
			</clipPath>
			<polygon clip-path="url(#SVGID_131_)" fill="#52A446" points="84.277,6690.457 51.388,6657.666 22.611,6684.309 22.611,6690.457 
				57.714,6689.984 			"/>
		</g>
	</g>
	<path fill="#79BAD6" d="M67.833,6615.653c0,8.488-6.902,15.37-15.416,15.37S37,6624.142,37,6615.653
		c0-8.487,6.902-15.37,15.417-15.37S67.833,6607.166,67.833,6615.653"/>
</g>
<g opacity="0.1">
	<g>
		<defs>
			<rect id="SVGID_132_" y="6790" width="148" height="166"/>
		</defs>
		<clipPath id="SVGID_133_">
			<use xlink:href="#SVGID_132_"  overflow="visible"/>
		</clipPath>
		<path clip-path="url(#SVGID_133_)" fill="#231F20" d="M0,6948.979c0,3.87,3.152,7.021,7.024,7.021h133.953
			c3.871,0,7.023-3.15,7.023-7.021v-151.959c0-3.868-3.152-7.021-7.023-7.021H44.878c-4.293,0-9.824,2.299-12.856,5.344
			l-26.71,26.803C2.285,6825.186,0,6830.717,0,6835.01V6948.979z"/>
	</g>
</g>
<path fill="#FFFFFF" d="M4.111,6948.979c0,1.607,1.311,2.923,2.913,2.923h133.953c1.602,0,2.911-1.315,2.911-2.923v-151.959
	c0-1.604-1.31-2.921-2.911-2.921H44.878c-3.201,0-7.675,1.858-9.939,4.131l-26.71,26.803c-2.267,2.275-4.118,6.764-4.118,9.977
	V6948.979z"/>
<path fill-rule="evenodd" clip-rule="evenodd" fill="#CE3D39" d="M74,6839.186c-15.854,0-28.635,12.285-28.635,28.09
	c0,15.809,28.635,57.984,28.635,57.984s28.777-42.176,28.777-57.984C102.777,6851.471,89.854,6839.186,74,6839.186 M74.071,6884.448
	c-9.514,0-16.516-7.086-16.516-16.571c0-9.482,6.931-16.395,16.444-16.395c9.511,0,16.445,6.912,16.445,16.395
	C90.445,6877.362,83.583,6884.448,74.071,6884.448"/>
<g opacity="0.1">
	<g>
		<defs>
			<rect id="SVGID_134_" y="7033" width="148" height="166"/>
		</defs>
		<clipPath id="SVGID_135_">
			<use xlink:href="#SVGID_134_"  overflow="visible"/>
		</clipPath>
		<path clip-path="url(#SVGID_135_)" fill="#231F20" d="M0,7191.979c0,3.872,3.152,7.021,7.024,7.021h133.953
			c3.871,0,7.023-3.148,7.023-7.021v-151.957c0-3.87-3.152-7.022-7.023-7.022H44.878c-4.293,0-9.823,2.299-12.856,5.346
			l-26.708,26.801c-3.03,3.037-5.314,8.57-5.314,12.865V7191.979z"/>
	</g>
</g>
<path fill="#FFFFFF" d="M4.111,7191.979c0,1.607,1.312,2.921,2.913,2.921h133.953c1.6,0,2.911-1.313,2.911-2.921v-151.957
	c0-1.605-1.312-2.923-2.911-2.923H44.878c-3.202,0-7.675,1.86-9.939,4.131l-26.71,26.807c-2.266,2.271-4.118,6.76-4.118,9.975
	V7191.979z"/>
<g opacity="0.1">
	<g>
		<defs>
			<rect id="SVGID_136_" y="7277" width="148" height="166"/>
		</defs>
		<clipPath id="SVGID_137_">
			<use xlink:href="#SVGID_136_"  overflow="visible"/>
		</clipPath>
		<path clip-path="url(#SVGID_137_)" fill="#231F20" d="M0,7435.979c0,3.87,3.152,7.021,7.024,7.021h133.953
			c3.871,0,7.023-3.15,7.023-7.021v-151.957c0-3.87-3.152-7.022-7.023-7.022H44.878c-4.293,0-9.824,2.299-12.856,5.346
			l-26.71,26.801c-3.027,3.039-5.312,8.57-5.312,12.865V7435.979z"/>
	</g>
</g>
<path fill="#FFFFFF" d="M4.111,7435.979c0,1.607,1.311,2.923,2.913,2.923h133.953c1.602,0,2.911-1.315,2.911-2.923v-151.957
	c0-1.605-1.31-2.923-2.911-2.923H44.878c-3.201,0-7.675,1.86-9.939,4.131l-26.71,26.805c-2.267,2.273-4.118,6.762-4.118,9.977
	V7435.979z"/>
<path fill="#989798" d="M80.289,7393.335c-1.114-1.536-2.799-4.95-5.058-10.243l-20.105-47.192h-2.507l-20.017,49.165
	c-1.581,3.891-2.8,6.406-3.649,7.544c-1.32,1.813-3.065,2.794-5.237,2.94v2.279h18.39v-2.279c-2.055-0.029-3.594-0.203-4.619-0.527
	c-1.73-0.586-2.596-1.517-2.596-2.807c0-1.055,0.396-2.734,1.188-5.043c0.38-1.082,1.233-3.406,2.556-6.973h20.227l2.292,5.438
	c0.499,1.197,0.893,2.225,1.188,3.071c0.471,1.432,0.706,2.496,0.706,3.199c0,1.55-0.464,2.515-1.388,2.897
	c-0.921,0.377-2.854,0.626-5.784,0.744v2.279H85.04v-2.279C82.988,7395.606,81.403,7394.869,80.289,7393.335 M39.983,7376.645
	l8.132-20.791h0.757l8.667,20.791H39.983z M124.826,7392.127c-0.588,0.586-1.02,0.943-1.298,1.074
	c-0.28,0.134-0.595,0.197-0.946,0.197c-0.411,0-0.785-0.227-1.121-0.68c-0.338-0.452-0.507-1.001-0.507-1.645v-21.755
	c0-5.32-1.7-8.976-5.103-10.964c-3.432-1.959-7.699-2.938-12.801-2.938c-4.754,0-8.756,1.004-12.012,3.018
	c-3.257,2.013-4.882,4.74-4.882,8.182c0,1.924,0.61,3.399,1.825,4.418c1.217,1.021,2.69,1.529,4.421,1.529
	c1.495,0,2.809-0.461,3.937-1.381c1.131-0.92,1.694-2.229,1.694-3.926c0-0.672-0.125-1.308-0.373-1.908
	c-0.249-0.598-0.58-1.145-0.989-1.643l-0.528-0.616c-0.237-0.259-0.411-0.508-0.527-0.745c-0.116-0.232-0.177-0.525-0.177-0.877
	c0-0.906,0.52-1.658,1.56-2.259c1.041-0.599,2.371-0.898,3.984-0.898c2.872,0,4.873,0.636,6.004,1.907
	c1.128,1.271,1.692,3.239,1.692,5.899v6.534c-8.329,2.402-14.444,4.787-18.344,7.161c-3.9,2.374-5.852,5.579-5.852,9.624
	c0,3.309,1.069,5.746,3.215,7.312c2.139,1.565,4.438,2.352,6.903,2.352c1.85,0,3.725-0.324,5.633-0.968
	c3.137-1.024,5.95-2.784,8.444-5.272c0.322,1.729,0.837,3.031,1.542,3.91c1.232,1.553,3.182,2.33,5.851,2.33
	c1.494,0,2.918-0.265,4.269-0.79c2.14-0.819,4.089-2.249,5.849-4.301L124.826,7392.127z M108.55,7388.916
	c-0.969,1.115-1.803,1.933-2.508,2.462c-1.261,0.881-2.627,1.319-4.09,1.319c-1.118,0-2.121-0.504-3.015-1.517
	c-0.897-1.011-1.342-2.498-1.342-4.464c0-3.312,1.539-6.038,4.617-8.18c1.82-1.262,3.932-2.184,6.337-2.77V7388.916z"/>
<path fill="#EDC137" d="M0,7566v90c0,3.302,2.774,6,6.167,6h135.667c3.392,0,6.166-2.698,6.166-6v-90H0z M141.834,7557.998
	c0-3.307-2.767-6-6.169-6H78.112L67.833,7542H8.222c-3.414,0-6.166,2.677-6.166,6v13.999h139.778V7557.998z"/>
<path fill="#EDC137" d="M0,7808.998V7899c0,3.302,2.774,6,6.167,6h135.667c3.392,0,6.166-2.698,6.166-6v-90.002H0z
	 M141.834,7800.998c0-3.307-2.767-6-6.169-6H78.112L67.833,7785H8.222c-3.414,0-6.166,2.677-6.166,6v13.999h139.778V7800.998z"/>
<path fill="#FFFFFF" d="M52.679,7864.847c0-0.448-0.251-1.987-0.857-2.265c-0.574-0.206-2.459-1.092-2.459-1.092
	c0-0.14-0.217-0.521-0.251-0.928c0-0.449,0.251-0.891,0.251-0.891c0.253-0.485,1.179-1.615,1.424-2.508
	c0.252-0.888,0.534-3.152,0.534-3.152c0-0.482,0.752-0.684,1.215-0.926c0.819-0.377,2.108-5.211,2.108-5.211
	c0-1.572-0.071-0.895-0.071-2.023v-4.213c0-5.183-5.568-8.473-10.998-8.473h-0.204c-5.429,0-10.997,3.29-10.997,8.473v4.213
	c0,1.129-0.07,0.451-0.07,2.023c0,0,0.981,4.834,1.805,5.211c0.461,0.242,1.365,0.443,1.365,0.926c0,0,0.361,2.265,0.609,3.152
	c0.248,0.893,1.211,2.022,1.464,2.508c0,0,0.267,0.441,0.267,0.891c-0.032,0.406-0.237,0.788-0.237,0.928
	c0,0-1.883,0.886-2.455,1.092c-0.606,0.277-0.857,1.816-0.857,2.265c-2.14,0.685-13.554,5.759-14.842,7.026
	c-0.926,0.93-0.924,6.346-0.924,6.346v0.686c0,1.233,1.799,2.096,3.083,2.096h16.444c0.161-7.066,1.437-8.267,1.908-8.734
	c1.477-1.459,8.204-4.656,13.687-7.07C53.233,7865.043,52.899,7864.92,52.679,7864.847 M128.572,7871.873
	c-1.287-1.268-12.703-6.342-14.84-7.026c0-0.448-0.253-1.987-0.86-2.265c-0.574-0.206-2.458-1.092-2.458-1.092
	c0-0.14-0.217-0.521-0.252-0.928c0-0.449,0.252-0.891,0.252-0.891c0.251-0.485,1.178-1.615,1.421-2.508
	c0.253-0.888,0.537-3.152,0.537-3.152c0-0.482,0.751-0.684,1.215-0.926c0.816-0.377,2.108-5.211,2.108-5.211
	c0-1.572-0.07-0.895-0.07-2.023v-4.213c0-5.183-5.568-8.473-10.996-8.473h-0.207c-5.429,0-10.998,3.29-10.998,8.473v4.213
	c0,1.129-0.066,0.451-0.066,2.023c0,0,0.979,4.834,1.803,5.211c0.462,0.242,1.364,0.443,1.364,0.926c0,0,0.361,2.265,0.61,3.152
	c0.248,0.893,1.21,2.022,1.463,2.508c0,0,0.268,0.441,0.268,0.891c-0.029,0.406-0.239,0.788-0.239,0.928
	c0,0-1.882,0.886-2.452,1.092c-0.606,0.277-0.856,1.816-0.856,2.265c-0.22,0.073-0.555,0.196-0.94,0.349
	c5.482,2.414,12.205,5.607,13.672,7.057c0.484,0.481,1.763,1.682,1.923,8.748h16.445c1.283,0,3.082-0.862,3.082-2.096v-0.686
	C129.499,7878.219,129.499,7872.803,128.572,7871.873 M86.274,7864.742c0-0.599-0.338-2.653-1.144-3.02
	c-0.762-0.279-3.28-1.461-3.28-1.461c0-0.182-0.286-0.691-0.335-1.233c0-0.599,0.335-1.188,0.335-1.188
	c0.336-0.645,1.571-2.151,1.898-3.34c0.337-1.188,0.716-4.202,0.716-4.202c0-0.646,1-0.919,1.62-1.235
	c1.092-0.505,2.345-6.949,2.345-6.949c0-2.104-0.556-1.193-0.556-2.701v-5.615c0-6.908-6.502-11.298-13.737-11.298h-0.275
	c-7.235,0-13.737,4.39-13.737,11.298v5.615c0,1.508-0.556,0.598-0.556,2.701c0,0,1.078,6.444,2.173,6.949
	c0.618,0.316,1.705,0.59,1.705,1.235c0,0,0.426,3.015,0.759,4.202c0.329,1.188,1.587,2.695,1.922,3.34c0,0,0.344,0.59,0.344,1.188
	c-0.048,0.542-0.327,1.052-0.327,1.233c0,0-2.515,1.182-3.277,1.461c-0.807,0.366-1.14,2.421-1.14,3.02
	c-2.856,0.91-18.075,7.677-19.792,9.371c-1.235,1.233-1.235,8.457-1.235,8.457v0.912c0,1.645,1.784,3.519,3.496,3.519h59.61
	c1.714,0,3.492-1.874,3.492-3.519v-0.912c0,0,0-7.224-1.233-8.457C104.349,7872.419,89.127,7865.652,86.274,7864.742"/>
<g opacity="0.1">
	<g>
		<defs>
			<rect id="SVGID_138_" y="8006" width="148" height="166"/>
		</defs>
		<clipPath id="SVGID_139_">
			<use xlink:href="#SVGID_138_"  overflow="visible"/>
		</clipPath>
		<path clip-path="url(#SVGID_139_)" fill="#231F20" d="M0,8164.979c0,3.871,3.151,7.021,7.023,7.021h133.953
			c3.872,0,7.023-3.15,7.023-7.021v-151.96c0-3.87-3.151-7.019-7.023-7.019H44.878c-4.293,0-9.824,2.297-12.856,5.342l-26.71,26.803
			C2.285,8041.184,0,8046.713,0,8051.009V8164.979z"/>
	</g>
</g>
<path fill="#FFFFFF" d="M4.111,8164.979c0,1.607,1.311,2.924,2.912,2.924h133.953c1.6,0,2.912-1.316,2.912-2.924v-151.96
	c0-1.605-1.312-2.923-2.912-2.923H44.878c-3.201,0-7.675,1.86-9.94,4.133l-26.71,26.805c-2.266,2.271-4.117,6.762-4.117,9.976
	V8164.979z"/>
<g opacity="0.7">
	<g>
		<defs>
			<rect id="SVGID_140_" x="45.223" y="8055.184" width="34.943" height="67.631"/>
		</defs>
		<clipPath id="SVGID_141_">
			<use xlink:href="#SVGID_140_"  overflow="visible"/>
		</clipPath>
		<polygon clip-path="url(#SVGID_141_)" fill="#ED4833" points="45.223,8055.184 80.166,8055.184 80.166,8067.48 57.555,8067.48 
			57.555,8083.876 78.111,8083.876 78.111,8096.172 57.555,8096.172 57.555,8122.814 45.223,8122.814 		"/>
	</g>
</g>
<g opacity="0.7">
	<g>
		<defs>
			<rect id="SVGID_142_" x="90.445" y="8055.184" width="16.444" height="67.311"/>
		</defs>
		<clipPath id="SVGID_143_">
			<use xlink:href="#SVGID_142_"  overflow="visible"/>
		</clipPath>
		<path clip-path="url(#SVGID_143_)" fill="#ED4833" d="M90.445,8112.566v-57.383h12.332v57.383h4.112v9.928h-7.146
			C94.168,8122.494,90.445,8118.123,90.445,8112.566"/>
	</g>
</g>
<g opacity="0.18">
	<g>
		<defs>
			<rect id="SVGID_144_" x="30.833" y="8010.096" width="86.333" height="157.807"/>
		</defs>
		<clipPath id="SVGID_145_">
			<use xlink:href="#SVGID_144_"  overflow="visible"/>
		</clipPath>
	</g>
</g>
<g opacity="0.27">
	<g>
		<defs>
			<rect id="SVGID_146_" x="4.111" y="8122.814" width="139.777" height="45.088"/>
		</defs>
		<clipPath id="SVGID_147_">
			<use xlink:href="#SVGID_146_"  overflow="visible"/>
		</clipPath>
	</g>
</g>
<g opacity="0.27">
	<g>
		<defs>
			<rect id="SVGID_148_" x="4.111" y="8010.096" width="139.777" height="45.088"/>
		</defs>
		<clipPath id="SVGID_149_">
			<use xlink:href="#SVGID_148_"  overflow="visible"/>
		</clipPath>
	</g>
</g>
<g opacity="0.1">
	<g>
		<defs>
			<rect id="SVGID_150_" y="8250" width="148" height="166"/>
		</defs>
		<clipPath id="SVGID_151_">
			<use xlink:href="#SVGID_150_"  overflow="visible"/>
		</clipPath>
		<path clip-path="url(#SVGID_151_)" fill="#231F20" d="M0,8408.979c0,3.87,3.152,7.021,7.024,7.021h133.953
			c3.871,0,7.023-3.15,7.023-7.021v-151.961c0-3.871-3.152-7.019-7.023-7.019H44.878c-4.293,0-9.824,2.297-12.856,5.342
			l-26.71,26.803C2.285,8285.184,0,8290.713,0,8295.009V8408.979z"/>
	</g>
</g>
<path fill="#FFFFFF" d="M4.111,8408.979c0,1.605,1.311,2.92,2.913,2.92h133.953c1.6,0,2.911-1.314,2.911-2.92v-151.961
	c0-1.605-1.312-2.923-2.911-2.923H44.878c-3.201,0-7.673,1.86-9.939,4.133l-26.71,26.803c-2.267,2.273-4.118,6.764-4.118,9.978
	V8408.979z"/>
<polygon fill-rule="evenodd" clip-rule="evenodd" fill="#CE342F" points="53.443,8304.889 53.443,8375.01 103.683,8339.95 "/>
<g opacity="0.1">
	<g>
		<defs>
			<rect id="SVGID_152_" y="8493" width="148" height="166"/>
		</defs>
		<clipPath id="SVGID_153_">
			<use xlink:href="#SVGID_152_"  overflow="visible"/>
		</clipPath>
		<path clip-path="url(#SVGID_153_)" fill="#231F20" d="M0,8651.979c0,3.87,3.151,7.021,7.024,7.021h133.953
			c3.871,0,7.023-3.15,7.023-7.021v-151.957c0-3.871-3.152-7.022-7.023-7.022H44.878c-4.293,0-9.825,2.299-12.857,5.344
			l-26.707,26.803c-3.031,3.037-5.314,8.57-5.314,12.865V8651.979z"/>
	</g>
</g>
<path fill="#FFFFFF" d="M4.111,8651.979c0,1.605,1.311,2.921,2.913,2.921h133.953c1.6,0,2.911-1.315,2.911-2.921v-151.957
	c0-1.605-1.312-2.923-2.911-2.923H44.878c-3.203,0-7.675,1.858-9.939,4.129l-26.71,26.805c-2.264,2.275-4.117,6.764-4.117,9.979
	V8651.979z"/>
<path fill="#CD342F" d="M64.106,8558.321c-2.23-2.239-5.85-2.239-8.077,0l-26.877,26.956l26.877,26.959
	c1.116,1.117,2.579,1.676,4.037,1.676c1.462,0,2.925-0.559,4.04-1.676c2.23-2.236,2.23-5.863,0-8.1l-18.801-18.859l18.801-18.859
	C66.336,8564.183,66.336,8560.555,64.106,8558.321 M92.343,8558.321c-2.228-2.239-5.845-2.239-8.077,0
	c-2.228,2.233-2.228,5.861,0,8.097l18.802,18.859l-18.802,18.859c-2.228,2.236-2.228,5.863,0,8.1
	c1.115,1.117,2.579,1.676,4.039,1.676c1.461,0,2.923-0.559,4.038-1.676l26.88-26.959L92.343,8558.321z"/>
<g opacity="0.1">
	<g>
		<defs>
			<rect id="SVGID_154_" x="1" y="8779.387" width="146" height="101.613"/>
		</defs>
		<clipPath id="SVGID_155_">
			<use xlink:href="#SVGID_154_"  overflow="visible"/>
		</clipPath>
		<path clip-path="url(#SVGID_155_)" fill="#231F20" d="M1,8779.387v94.651c0,3.838,3.109,6.962,6.929,6.962h132.142
			c3.819,0,6.929-3.124,6.929-6.962v-94.651H1z"/>
	</g>
</g>
<path fill="#FFFFFF" d="M5.056,8778.553v89.871v2.899v2.896c0,1.593,1.293,2.898,2.874,2.898h132.142
	c1.578,0,2.872-1.306,2.872-2.898v-95.667H5.056z"/>
<path fill="#FFFFFF" d="M5.056,8874.038c0,1.594,1.293,2.898,2.874,2.898h132.142c1.578,0,2.872-1.305,2.872-2.898v-94.651H5.056
	V8874.038z"/>
<path fill="#A4B8C4" d="M147,8779.387v-15.241c0-4.823-3.042-9.146-8.111-9.146H9.111c-5.069,0-8.111,3.306-8.111,8.129v16.258H147z
	"/>
<path fill-rule="evenodd" clip-rule="evenodd" fill="#989798" d="M108.473,8831.803v-11.345H97.153
	c-0.54-2.092-1.542-4.141-2.608-5.958l8.71-8.728l-8.132-8.147l-9.116,8.727c-1.807-1.069-3.666-2.036-6.346-2.395v-12.375h-11.32
	v12.375c0,0-2.745,0.344-5.542,2.395l-8.499-8.721l-8.024,8.142l8.753,8.722c-1.066,1.823-1.586,3.872-2.125,5.964H39.528v11.345
	h13.376c0.539,2.091,1.111,4.138,2.176,5.955l-8.702,8.729l8.125,8.141l8.297-8.721c1.819,1.067,4.599,2.35,5.542,2.396v12.376
	h11.32v-12.376c3.01-0.43,4.539-1.328,6.356-2.396l8.906,8.721l8.222-8.141l-8.649-8.723c1.064-1.823,2.117-3.87,2.657-5.961
	H108.473z M74.815,8837.645c-6.348,0-11.493-5.155-11.493-11.516c0-6.358,5.145-11.513,11.493-11.513
	c6.343,0,11.491,5.154,11.491,11.513C86.306,8832.489,81.158,8837.645,74.815,8837.645"/>
<g opacity="0.4">
	<g>
		<defs>
			<rect id="SVGID_156_" x="127.412" y="8761.442" width="11.477" height="11.502"/>
		</defs>
		<clipPath id="SVGID_157_">
			<use xlink:href="#SVGID_156_"  overflow="visible"/>
		</clipPath>
		<path clip-path="url(#SVGID_157_)" fill-rule="evenodd" clip-rule="evenodd" fill="#231F20" d="M138.889,8767.192
			c0-3.174-2.566-5.746-5.735-5.746c-3.168,0-5.736,2.572-5.736,5.746c0,3.177,2.568,5.75,5.736,5.75
			C136.322,8772.942,138.889,8770.369,138.889,8767.192"/>
	</g>
</g>
<g opacity="0.4">
	<g>
		<defs>
			<rect id="SVGID_158_" x="111.188" y="8761.442" width="11.478" height="11.502"/>
		</defs>
		<clipPath id="SVGID_159_">
			<use xlink:href="#SVGID_158_"  overflow="visible"/>
		</clipPath>
		<path clip-path="url(#SVGID_159_)" fill-rule="evenodd" clip-rule="evenodd" fill="#231F20" d="M122.666,8767.192
			c0-3.174-2.565-5.746-5.734-5.746s-5.736,2.572-5.736,5.746c0,3.177,2.567,5.75,5.736,5.75S122.666,8770.369,122.666,8767.192"/>
	</g>
</g>
<g opacity="0.4">
	<g>
		<defs>
			<rect id="SVGID_160_" x="94.968" y="8761.442" width="11.477" height="11.502"/>
		</defs>
		<clipPath id="SVGID_161_">
			<use xlink:href="#SVGID_160_"  overflow="visible"/>
		</clipPath>
		<path clip-path="url(#SVGID_161_)" fill-rule="evenodd" clip-rule="evenodd" fill="#231F20" d="M106.444,8767.192
			c0-3.174-2.566-5.746-5.735-5.746c-3.167,0-5.736,2.572-5.736,5.746c0,3.177,2.569,5.75,5.736,5.75
			C103.878,8772.942,106.444,8770.369,106.444,8767.192"/>
	</g>
</g>
<g opacity="0.1">
	<g>
		<defs>
			<rect id="SVGID_162_" y="8979" width="148" height="166"/>
		</defs>
		<clipPath id="SVGID_163_">
			<use xlink:href="#SVGID_162_"  overflow="visible"/>
		</clipPath>
		<path clip-path="url(#SVGID_163_)" fill="#231F20" d="M0,9137.979c0,3.87,3.152,7.021,7.024,7.021h133.953
			c3.871,0,7.023-3.15,7.023-7.021v-151.957c0-3.873-3.152-7.022-7.023-7.022H44.878c-4.293,0-9.823,2.298-12.856,5.344
			l-26.708,26.802C2.284,9014.183,0,9019.715,0,9024.01V9137.979z"/>
	</g>
</g>
<path fill="#FFFFFF" d="M4.111,9137.979c0,1.607,1.312,2.922,2.913,2.922h133.953c1.6,0,2.911-1.314,2.911-2.922v-151.957
	c0-1.606-1.312-2.923-2.911-2.923H44.878c-3.202,0-7.675,1.86-9.939,4.131l-26.71,26.805c-2.266,2.272-4.118,6.762-4.118,9.975
	V9137.979z"/>
<polygon fill="#53A546" points="90.445,9099.912 104.833,9099.912 83.011,9070.193 102.777,9042.531 88.39,9042.531 
	76.159,9060.287 63.723,9042.531 49.334,9042.531 69.308,9070.193 47.277,9099.912 58.539,9099.912 62.454,9099.912 
	78.112,9099.912 78.112,9089.667 69.89,9089.667 76.159,9080.101 "/>
<g opacity="0.1">
	<g>
		<defs>
			<rect id="SVGID_164_" y="9222" width="148" height="166"/>
		</defs>
		<clipPath id="SVGID_165_">
			<use xlink:href="#SVGID_164_"  overflow="visible"/>
		</clipPath>
		<path clip-path="url(#SVGID_165_)" fill="#231F20" d="M0,9380.979c0,3.871,3.152,7.021,7.024,7.021h133.953
			c3.871,0,7.023-3.149,7.023-7.021v-151.959c0-3.87-3.152-7.021-7.023-7.021H44.878c-4.293,0-9.824,2.299-12.856,5.345
			l-26.71,26.802C2.285,9257.184,0,9262.716,0,9267.011V9380.979z"/>
	</g>
</g>
<path fill="#FFFFFF" d="M4.111,9380.979c0,1.607,1.311,2.923,2.913,2.923h133.953c1.6,0,2.911-1.315,2.911-2.923v-151.959
	c0-1.605-1.312-2.922-2.911-2.922H44.878c-3.201,0-7.675,1.861-9.939,4.131l-26.71,26.805c-2.267,2.272-4.118,6.764-4.118,9.977
	V9380.979z"/>
<g opacity="0.7">
	<g>
		<defs>
			<rect id="SVGID_166_" x="20.659" y="9271.186" width="106.786" height="67.63"/>
		</defs>
		<clipPath id="SVGID_167_">
			<use xlink:href="#SVGID_166_"  overflow="visible"/>
		</clipPath>
		<path clip-path="url(#SVGID_167_)" fill="#81C341" d="M20.664,9272.562c4.435-0.887,10.209-1.376,16.302-1.376
			c10.128,0,16.694,2.265,21.843,7.078c5.536,5.114,9.023,13.272,9.023,24.978c0,12.68-3.721,21.429-8.864,26.84
			c-5.618,5.796-14.17,8.551-24.612,8.551c-6.257,0-10.682-0.492-13.693-0.985V9272.562z M32.772,9326.641
			c1.032,0.286,2.688,0.286,4.194,0.286c10.92,0.103,18.04-7.372,18.04-23.2c0.081-13.761-6.408-21.038-16.777-21.038
			c-2.688,0-4.424,0.299-5.457,0.593V9326.641z"/>
		<path clip-path="url(#SVGID_167_)" fill="#81C341" d="M84.747,9290.736l2.853,19.671c0.735,5.009,1.471,10.318,2.05,15.822h0.146
			c0.732-5.504,1.762-11.014,2.638-15.729l3.808-19.764h8.792l3.582,19.172c0.953,5.411,1.905,10.817,2.637,16.321h0.147
			c0.516-5.504,1.251-10.91,2.056-16.418l3.075-19.075h10.914l-10.989,48.079h-10.469l-3.373-16.908
			c-0.879-4.725-1.538-9.043-2.267-14.946h-0.152c-0.652,5.998-1.388,10.424-2.341,14.946l-3.591,16.908h-10.47l-10.399-48.079
			H84.747z"/>
	</g>
</g>
<g opacity="0.18">
	<g>
		<defs>
			<rect id="SVGID_168_" x="30.834" y="9226.098" width="86.333" height="157.804"/>
		</defs>
		<clipPath id="SVGID_169_">
			<use xlink:href="#SVGID_168_"  overflow="visible"/>
		</clipPath>
	</g>
</g>
<g opacity="0.27">
	<g>
		<defs>
			<rect id="SVGID_170_" x="4.111" y="9338.816" width="139.776" height="45.087"/>
		</defs>
		<clipPath id="SVGID_171_">
			<use xlink:href="#SVGID_170_"  overflow="visible"/>
		</clipPath>
	</g>
</g>
<g opacity="0.27">
	<g>
		<defs>
			<rect id="SVGID_172_" x="4.111" y="9226.1" width="139.776" height="45.087"/>
		</defs>
		<clipPath id="SVGID_173_">
			<use xlink:href="#SVGID_172_"  overflow="visible"/>
		</clipPath>
	</g>
</g>
<g opacity="0.1">
	<g>
		<defs>
			<rect id="SVGID_174_" y="9466" width="148" height="166"/>
		</defs>
		<clipPath id="SVGID_175_">
			<use xlink:href="#SVGID_174_"  overflow="visible"/>
		</clipPath>
		<path clip-path="url(#SVGID_175_)" fill="#231F20" d="M0,9624.979c0,3.871,3.152,7.021,7.022,7.021h133.954
			c3.873,0,7.024-3.149,7.024-7.021v-151.961c0-3.868-3.151-7.019-7.024-7.019H44.877c-4.291,0-9.824,2.297-12.855,5.343
			l-26.71,26.802c-3.027,3.04-5.312,8.571-5.312,12.864V9624.979z"/>
	</g>
</g>
<path fill="#FFFFFF" d="M4.112,9624.979c0,1.607,1.308,2.923,2.91,2.923h133.954c1.601,0,2.914-1.315,2.914-2.923v-151.961
	c0-1.604-1.313-2.92-2.914-2.92H44.877c-3.2,0-7.676,1.859-9.94,4.131l-26.709,26.805c-2.265,2.271-4.115,6.762-4.115,9.975
	V9624.979z"/>
<polygon fill="#FAA333" points="55.5,9601.26 102.778,9545.927 78.112,9545.927 92.501,9506.988 45.224,9562.321 69.89,9562.321 "/>
<g opacity="0.1">
	<g>
		<defs>
			<rect id="SVGID_176_" y="9709" width="148" height="166"/>
		</defs>
		<clipPath id="SVGID_177_">
			<use xlink:href="#SVGID_176_"  overflow="visible"/>
		</clipPath>
		<path clip-path="url(#SVGID_177_)" fill="#231F20" d="M0,9867.979c0,3.871,3.151,7.021,7.023,7.021h133.951
			c3.871,0,7.025-3.149,7.025-7.021v-151.961c0-3.868-3.154-7.019-7.025-7.019H44.879c-4.294,0-9.825,2.297-12.857,5.342
			l-26.71,26.803c-3.027,3.04-5.312,8.571-5.312,12.864V9867.979z"/>
	</g>
</g>
<path fill="#FFFFFF" d="M4.111,9867.979c0,1.607,1.311,2.921,2.913,2.921h133.951c1.602,0,2.913-1.313,2.913-2.921v-151.961
	c0-1.604-1.312-2.921-2.913-2.921H44.879c-3.202,0-7.676,1.858-9.941,4.132l-26.71,26.805c-2.266,2.271-4.117,6.762-4.117,9.975
	V9867.979z"/>
<polygon fill-rule="evenodd" clip-rule="evenodd" fill="#989798" points="86.335,9805.321 86.335,9713.098 61.667,9713.098 
	61.667,9805.321 55.499,9805.321 55.499,9854.505 92.498,9854.505 92.498,9805.321 "/>
<path fill-rule="evenodd" clip-rule="evenodd" fill="#FFFFFF" d="M84.276,9811.47h-4.074h-0.036v-6.148H74v-6.147h-6.167v12.296
	h-4.109h-2.056v36.888h4.112h2.053h12.37h2.021h4.112v-36.888H84.276z M67.832,9823.765h12.37v18.445h-12.37V9823.765z"/>
<rect x="74" y="9793.025" fill-rule="evenodd" clip-rule="evenodd" fill="#FFFFFF" width="6.167" height="6.149"/>
<rect x="67.832" y="9786.876" fill-rule="evenodd" clip-rule="evenodd" fill="#FFFFFF" width="6.167" height="6.148"/>
<rect x="74" y="9780.729" fill-rule="evenodd" clip-rule="evenodd" fill="#FFFFFF" width="6.167" height="6.147"/>
<rect x="67.832" y="9774.58" fill-rule="evenodd" clip-rule="evenodd" fill="#FFFFFF" width="6.167" height="6.149"/>
<rect x="74" y="9768.432" fill-rule="evenodd" clip-rule="evenodd" fill="#FFFFFF" width="6.167" height="6.147"/>
<rect x="67.832" y="9762.283" fill-rule="evenodd" clip-rule="evenodd" fill="#FFFFFF" width="6.167" height="6.148"/>
<rect x="74" y="9756.135" fill-rule="evenodd" clip-rule="evenodd" fill="#FFFFFF" width="6.167" height="6.147"/>
<rect x="67.832" y="9749.986" fill-rule="evenodd" clip-rule="evenodd" fill="#FFFFFF" width="6.167" height="6.149"/>
<rect x="74" y="9743.854" fill-rule="evenodd" clip-rule="evenodd" fill="#FFFFFF" width="6.167" height="6.134"/>
<rect x="67.832" y="9737.69" fill-rule="evenodd" clip-rule="evenodd" fill="#FFFFFF" width="6.167" height="6.148"/>
<rect x="74" y="9731.543" fill-rule="evenodd" clip-rule="evenodd" fill="#FFFFFF" width="6.167" height="6.147"/>
<rect x="67.832" y="9725.395" fill-rule="evenodd" clip-rule="evenodd" fill="#FFFFFF" width="6.167" height="6.149"/>
<rect x="74.023" y="9719.258" fill-rule="evenodd" clip-rule="evenodd" fill="#FFFFFF" width="6.143" height="6.136"/>
<rect x="67.844" y="9713.098" fill-rule="evenodd" clip-rule="evenodd" fill="#FFFFFF" width="6.155" height="6.148"/>
<g opacity="0.1">
	<g>
		<defs>
			<rect id="SVGID_178_" y="9952" width="148" height="166"/>
		</defs>
		<clipPath id="SVGID_179_">
			<use xlink:href="#SVGID_178_"  overflow="visible"/>
		</clipPath>
		<path clip-path="url(#SVGID_179_)" fill="#231F20" d="M0,10110.979c0,3.873,3.151,7.021,7.023,7.021h133.951
			c3.871,0,7.025-3.147,7.025-7.021v-151.957c0-3.87-3.154-7.022-7.025-7.022H44.879c-4.294,0-9.825,2.299-12.857,5.347
			l-26.71,26.802C2.285,9987.186,0,9992.718,0,9997.013V10110.979z"/>
	</g>
</g>
<path fill="#FFFFFF" d="M4.111,10110.979c0,1.607,1.311,2.923,2.913,2.923h133.951c1.602,0,2.913-1.315,2.913-2.923v-151.957
	c0-1.605-1.312-2.922-2.913-2.922H44.879c-3.202,0-7.676,1.857-9.941,4.131l-26.71,26.807c-2.266,2.271-4.117,6.76-4.117,9.975
	V10110.979z"/>
<path fill-rule="evenodd" clip-rule="evenodd" fill="#D42328" d="M67.832,10048.322H78.11v-10.247H67.832V10048.322z
	 M92.498,10040.125v-8.197c0-4.799-3.41-8.197-8.222-8.197h-8.221v-34.838h-6.168v34.838h-8.221c-4.812,0-8.223,3.398-8.223,8.197
	v8.197H18.5v6.147h34.944v8.197c0,4.797,3.41,8.198,8.223,8.198h8.221v34.84h6.168v-34.84h8.221c4.812,0,8.222-3.401,8.222-8.198
	v-8.197h34.944v-6.147H92.498z M86.335,10054.47c0,1.594-0.459,2.049-2.059,2.049h-22.61c-1.6,0-2.056-0.455-2.056-2.049v-22.542
	c0-1.594,0.456-2.05,2.056-2.05h22.61c1.6,0,2.059,0.456,2.059,2.05V10054.47z"/>
<g opacity="0.1">
	<g>
		<defs>
			<rect id="SVGID_180_" y="10195" width="148" height="166"/>
		</defs>
		<clipPath id="SVGID_181_">
			<use xlink:href="#SVGID_180_"  overflow="visible"/>
		</clipPath>
		<path clip-path="url(#SVGID_181_)" fill="#231F20" d="M0,10353.979c0,3.871,3.152,7.021,7.024,7.021h133.953
			c3.871,0,7.023-3.149,7.023-7.021v-151.957c0-3.87-3.152-7.022-7.023-7.022H44.878c-4.293,0-9.824,2.299-12.856,5.346
			l-26.71,26.801c-3.027,3.037-5.312,8.57-5.312,12.866V10353.979z"/>
	</g>
</g>
<path fill="#FFFFFF" d="M4.111,10353.979c0,1.605,1.311,2.921,2.913,2.921h133.953c1.6,0,2.911-1.315,2.911-2.921v-151.957
	c0-1.605-1.312-2.923-2.911-2.923H44.878c-3.201,0-7.673,1.858-9.939,4.132l-26.71,26.804c-2.267,2.273-4.118,6.763-4.118,9.978
	V10353.979z"/>
<path fill="#79BAD6" d="M63.723,10299.518v-30.74c10.843-4.301,23.357-6.147,34.943-6.147v23.789
	c-1.815-0.788-3.919-1.246-6.167-1.246c-6.812,0-12.332,4.129-12.332,9.223c0,5.093,5.52,9.223,12.332,9.223
	c6.38,0,11.691-3.555,12.334-8.198v-2.048v-47.137c-16.657,0-31.605,1.19-47.277,8.197v38.134c-1.814-0.788-3.919-1.244-6.167-1.244
	c-6.812,0-12.332,4.128-12.332,9.221c0,5.095,5.521,9.225,12.332,9.225c6.813,0,12.335-4.13,12.335-9.225V10299.518z"/>
<g opacity="0.1">
	<g>
		<defs>
			<rect id="SVGID_182_" y="10439" width="148" height="166"/>
		</defs>
		<clipPath id="SVGID_183_">
			<use xlink:href="#SVGID_182_"  overflow="visible"/>
		</clipPath>
		<path clip-path="url(#SVGID_183_)" fill="#231F20" d="M0,10597.979c0,3.871,3.152,7.021,7.024,7.021h133.953
			c3.871,0,7.023-3.149,7.023-7.021v-151.959c0-3.87-3.152-7.021-7.023-7.021H44.878c-4.293,0-9.824,2.297-12.856,5.344
			l-26.71,26.803c-3.027,3.038-5.312,8.569-5.312,12.862V10597.979z"/>
	</g>
</g>
<path fill="#FFFFFF" d="M4.111,10597.979c0,1.607,1.311,2.923,2.913,2.923h133.953c1.6,0,2.911-1.315,2.911-2.923v-151.959
	c0-1.605-1.312-2.921-2.911-2.921H44.878c-3.201,0-7.675,1.858-9.939,4.13l-26.71,26.805c-2.267,2.272-4.118,6.762-4.118,9.975
	V10597.979z"/>
<g opacity="0.7">
	<g>
		<defs>
			<rect id="SVGID_184_" x="25.099" y="10488.247" width="98.234" height="67.963"/>
		</defs>
		<clipPath id="SVGID_185_">
			<use xlink:href="#SVGID_184_"  overflow="visible"/>
		</clipPath>
		<path clip-path="url(#SVGID_185_)" fill="#C3A3CD" d="M42.854,10538.47l-4.143,17.347H25.097l17.757-67.571h17.245l18.014,67.571
			h-14.14l-4.477-17.347H42.854z M57.597,10527.041l-3.627-14.331c-1.033-4.008-2.064-9.021-2.93-13.028h-0.167
			c-0.865,4.007-1.73,9.118-2.675,13.028l-3.444,14.331H57.597z"/>
		<path clip-path="url(#SVGID_185_)" fill="#C3A3CD" d="M95.746,10536.185c0.43,6.126,5.779,9.037,11.899,9.037
			c4.477,0,8.101-0.68,11.64-1.945l1.722,10.015c-4.311,1.945-9.573,2.919-15.259,2.919c-14.312,0-22.506-9.334-22.506-24.204
			c0-12.055,6.645-25.377,21.3-25.377c13.615,0,18.791,11.96,18.791,23.724c0,2.522-0.264,4.764-0.43,5.832H95.746z
			 M111.179,10526.077c0-3.6-1.383-9.625-7.413-9.625c-5.518,0-7.756,5.636-8.105,9.625H111.179z"/>
	</g>
</g>
<g opacity="0.18">
	<g>
		<defs>
			<rect id="SVGID_186_" x="30.834" y="10443.1" width="86.333" height="157.803"/>
		</defs>
		<clipPath id="SVGID_187_">
			<use xlink:href="#SVGID_186_"  overflow="visible"/>
		</clipPath>
	</g>
</g>
<g opacity="0.27">
	<g>
		<defs>
			<rect id="SVGID_188_" x="4.111" y="10555.816" width="139.776" height="45.086"/>
		</defs>
		<clipPath id="SVGID_189_">
			<use xlink:href="#SVGID_188_"  overflow="visible"/>
		</clipPath>
	</g>
</g>
<g opacity="0.27">
	<g>
		<defs>
			<rect id="SVGID_190_" x="4.111" y="10443.1" width="139.776" height="45.086"/>
		</defs>
		<clipPath id="SVGID_191_">
			<use xlink:href="#SVGID_190_"  overflow="visible"/>
		</clipPath>
	</g>
</g>
<g opacity="0.1">
	<g>
		<defs>
			<rect id="SVGID_192_" y="10682" width="148" height="166"/>
		</defs>
		<clipPath id="SVGID_193_">
			<use xlink:href="#SVGID_192_"  overflow="visible"/>
		</clipPath>
		<path clip-path="url(#SVGID_193_)" fill="#231F20" d="M0,10840.979c0,3.871,3.152,7.021,7.024,7.021h133.953
			c3.871,0,7.023-3.149,7.023-7.021v-151.961c0-3.87-3.152-7.019-7.023-7.019H44.878c-4.293,0-9.824,2.297-12.856,5.342
			l-26.71,26.803c-3.027,3.039-5.312,8.569-5.312,12.864V10840.979z"/>
	</g>
</g>
<path fill="#FFFFFF" d="M4.111,10840.979c0,1.607,1.311,2.923,2.913,2.923h133.953c1.6,0,2.911-1.315,2.911-2.923v-151.961
	c0-1.605-1.312-2.921-2.911-2.921H44.878c-3.201,0-7.675,1.86-9.939,4.132l-26.71,26.807c-2.267,2.271-4.118,6.76-4.118,9.973
	V10840.979z"/>
<polygon fill="#EAEAEA" points="74,10765.153 117.167,10743.271 117.167,10792.746 74,10821.016 "/>
<g opacity="0.6">
	<g>
		<defs>
			<rect id="SVGID_194_" x="30.834" y="10743.275" width="43.166" height="77.734"/>
		</defs>
		<clipPath id="SVGID_195_">
			<use xlink:href="#SVGID_194_"  overflow="visible"/>
		</clipPath>
		<polygon clip-path="url(#SVGID_195_)" fill="#C0BFBF" points="74,10821.018 30.834,10792.746 30.834,10743.271 74,10765.153 		"/>
	</g>
</g>
<g opacity="0.4">
	<g>
		<defs>
			<rect id="SVGID_196_" x="30.834" y="10729.134" width="86.333" height="36.01"/>
		</defs>
		<clipPath id="SVGID_197_">
			<use xlink:href="#SVGID_196_"  overflow="visible"/>
		</clipPath>
		<polygon clip-path="url(#SVGID_197_)" fill="#919191" points="30.834,10743.271 74,10729.134 117.167,10743.271 74,10765.153 		
			"/>
	</g>
</g>
<g opacity="0.1">
	<g>
		<defs>
			<rect id="SVGID_198_" x="30.834" y="10729.135" width="86.333" height="91.876"/>
		</defs>
		<clipPath id="SVGID_199_">
			<use xlink:href="#SVGID_198_"  overflow="visible"/>
		</clipPath>
		<path clip-path="url(#SVGID_199_)" fill="#010101" d="M74,10732.536l39.055,12.995v45.086L74,10815.893l-39.056-25.275v-45.086
			L74,10732.536z M74,10729.134l-43.166,14.136v49.477l43.166,28.27l43.167-28.27v-49.477L74,10729.134z"/>
	</g>
</g>
<path fill="#EDC137" d="M0,10971v89.999c0,3.302,2.774,6.001,6.167,6.001h135.667c3.392,0,6.166-2.699,6.166-6.001V10971H0z
	 M141.834,10963c0-3.309-2.767-5.999-6.169-5.999H78.112L67.833,10947H8.222c-3.414,0-6.166,2.678-6.166,6v13.999h139.778V10963z"/>
<polygon fill="#FFFFFF" points="108.945,11014.999 108.945,10983.915 69.89,10988.417 69.89,11014.999 "/>
<polygon fill="#FFFFFF" points="65.777,10989.001 39.079,10992.141 39.056,11014.999 65.777,11014.999 "/>
<polygon fill="#FFFFFF" points="39.056,11019 39.079,11041.854 65.777,11045.755 65.777,11019 "/>
<polygon fill="#FFFFFF" points="69.89,11046.329 108.945,11052.005 108.945,11019 69.89,11019 "/>
<rect x="67.833" y="10985" fill="#EDC137" width="4.111" height="64"/>
<rect x="37" y="11014.999" fill="#EDC137" width="78.11" height="6"/>
<path fill="#EDC137" d="M0,11214v89.999c0,3.302,2.774,6.001,6.167,6.001h135.667c3.392,0,6.166-2.699,6.166-6.001V11214H0z
	 M141.834,11206c0-3.309-2.767-5.999-6.169-5.999H78.112L67.833,11190H8.222c-3.414,0-6.166,2.678-6.166,6v14h139.778V11206z"/>
<path fill-rule="evenodd" clip-rule="evenodd" fill="#FFFFFF" d="M77.003,11230.799c4.679-5.998,11.181-6.029,11.181-6.029
	s0.966,5.64-3.68,11.072c-4.961,5.799-10.6,4.853-10.6,4.853S72.843,11236.133,77.003,11230.799"/>
<path fill-rule="evenodd" clip-rule="evenodd" fill="#FFFFFF" d="M74.498,11244.644c2.405,0,6.87-3.219,12.684-3.219
	c10.008,0,13.942,6.929,13.942,6.929s-7.698,3.828-7.698,13.123c0,10.482,9.591,14.096,9.591,14.096s-6.704,18.358-15.761,18.358
	c-4.158,0-7.39-2.727-11.773-2.727c-4.466,0-8.898,2.827-11.784,2.827c-8.268,0-18.714-17.413-18.714-31.412
	c0-13.776,8.842-21.001,17.134-21.001C67.511,11241.618,71.692,11244.644,74.498,11244.644"/>
<path fill="#EDC137" d="M0,11457v90c0,3.3,2.774,6,6.167,6h135.667c3.392,0,6.166-2.7,6.166-6v-90H0z M141.834,11449
	c0-3.31-2.767-6-6.169-6H78.112l-10.28-10H8.222c-3.414,0-6.166,2.677-6.166,5.999v14h139.778V11449z"/>
<path fill="#FFFFFF" d="M74,11488.967c-11.352,0-20.557,8.403-20.557,20.001c0,11.597,9.205,20.001,20.557,20.001
	c11.351,0,20.555-8.404,20.555-20.001C94.555,11497.37,85.351,11488.967,74,11488.967 M113.055,11478.969H96.61l-5.739-5.531
	c-2.478-2.44-7.374-4.438-10.881-4.438H67.24c-3.508,0-8.403,1.998-10.882,4.438l-4.969,5.562l-16.444-0.03
	c-7.013,0-12.333,5.094-12.333,11.999v37.662c0,6.903,5.32,12.338,12.333,12.338h78.11c7.016,0,12.333-5.096,12.333-11.999v-38.001
	C125.388,11484.062,120.07,11478.969,113.055,11478.969 M74,11534.969c-14.083,0-26.723-12.131-26.723-26.001
	c0-13.866,12.639-26,26.723-26c14.081,0,26.723,12.134,26.723,26C100.723,11522.838,88.081,11534.969,74,11534.969 M111,11499.247
	c-3.407,0-6.167-2.75-6.167-6.141c0-3.388,2.76-6.138,6.167-6.138c3.403,0,6.167,2.75,6.167,6.138
	C117.167,11496.497,114.403,11499.247,111,11499.247"/>
<path fill="#B3B4B4" d="M0,11701v90.001c0,3.301,2.774,5.999,6.167,5.999h135.667c3.392,0,6.166-2.698,6.166-5.999V11701H0z
	 M141.834,11693c0-3.307-2.767-6.001-6.169-6.001H78.112l-10.28-9.999H8.222c-3.414,0-6.166,2.677-6.166,6.002v13.999h139.778V11693
	z"/>
<path fill="#B3B4B4" d="M0,11944v90.002c0,3.3,2.774,5.998,6.167,5.998h135.667c3.392,0,6.166-2.698,6.166-5.998V11944H0z
	 M141.834,11936.002c0-3.312-2.767-6.002-6.169-6.002H78.112l-10.28-10H8.222c-3.414,0-6.166,2.681-6.166,6.001v14.002h139.778
	V11936.002z"/>
<path fill="#FFFFFF" d="M52.679,11999.848c0-0.447-0.251-1.985-0.857-2.263c-0.574-0.208-2.459-1.095-2.459-1.095
	c0-0.139-0.217-0.521-0.251-0.927c0-0.449,0.251-0.889,0.251-0.889c0.253-0.485,1.179-1.615,1.424-2.505
	c0.252-0.891,0.534-3.157,0.534-3.157c0-0.478,0.752-0.685,1.215-0.923c0.819-0.376,2.108-5.214,2.108-5.214
	c0-1.572-0.071-0.894-0.071-2.023v-4.213c0-5.181-5.568-8.472-10.998-8.472h-0.204c-5.429,0-10.997,3.291-10.997,8.472v4.213
	c0,1.13-0.07,0.451-0.07,2.023c0,0,0.981,4.838,1.805,5.214c0.461,0.238,1.365,0.445,1.365,0.923c0,0,0.361,2.267,0.609,3.157
	c0.248,0.89,1.211,2.02,1.464,2.505c0,0,0.267,0.439,0.267,0.889c-0.032,0.406-0.237,0.788-0.237,0.927c0,0-1.883,0.887-2.455,1.095
	c-0.606,0.277-0.857,1.815-0.857,2.263c-2.14,0.683-13.554,5.759-14.842,7.03c-0.926,0.926-0.924,6.341-0.924,6.341v0.687
	c0,1.237,1.799,2.097,3.083,2.097h16.444c0.161-7.065,1.437-8.27,1.908-8.734c1.477-1.457,8.204-4.656,13.687-7.069
	C53.233,12000.044,52.899,11999.921,52.679,11999.848 M128.572,12006.878c-1.287-1.271-12.703-6.348-14.84-7.03
	c0-0.447-0.253-1.985-0.86-2.263c-0.574-0.208-2.458-1.095-2.458-1.095c0-0.139-0.217-0.521-0.252-0.927
	c0-0.449,0.252-0.889,0.252-0.889c0.251-0.485,1.178-1.615,1.421-2.505c0.253-0.891,0.537-3.157,0.537-3.157
	c0-0.478,0.751-0.685,1.215-0.923c0.816-0.376,2.108-5.214,2.108-5.214c0-1.572-0.07-0.894-0.07-2.023v-4.213
	c0-5.181-5.568-8.472-10.996-8.472h-0.207c-5.429,0-10.998,3.291-10.998,8.472v4.213c0,1.13-0.066,0.451-0.066,2.023
	c0,0,0.979,4.838,1.803,5.214c0.462,0.238,1.364,0.445,1.364,0.923c0,0,0.361,2.267,0.61,3.157c0.248,0.89,1.21,2.02,1.463,2.505
	c0,0,0.268,0.439,0.268,0.889c-0.029,0.406-0.239,0.788-0.239,0.927c0,0-1.882,0.887-2.452,1.095
	c-0.606,0.277-0.856,1.815-0.856,2.263c-0.22,0.073-0.555,0.196-0.94,0.351c5.482,2.413,12.205,5.604,13.672,7.054
	c0.484,0.48,1.763,1.685,1.923,8.75h16.445c1.283,0,3.082-0.859,3.082-2.097v-0.687
	C129.499,12013.219,129.499,12007.804,128.572,12006.878 M86.274,11999.744c0-0.602-0.338-2.652-1.144-3.021
	c-0.762-0.275-3.28-1.461-3.28-1.461c0-0.183-0.286-0.691-0.335-1.235c0-0.598,0.335-1.188,0.335-1.188
	c0.336-0.644,1.571-2.15,1.898-3.338c0.337-1.188,0.716-4.205,0.716-4.205c0-0.644,1-0.917,1.62-1.235
	c1.092-0.501,2.345-6.947,2.345-6.947c0-2.099-0.556-1.191-0.556-2.698v-5.62c0-6.903-6.502-11.294-13.737-11.294h-0.275
	c-7.235,0-13.737,4.391-13.737,11.294v5.62c0,1.507-0.556,0.6-0.556,2.698c0,0,1.078,6.446,2.173,6.947
	c0.618,0.318,1.705,0.592,1.705,1.235c0,0,0.426,3.017,0.759,4.205c0.329,1.188,1.587,2.694,1.922,3.338c0,0,0.344,0.59,0.344,1.188
	c-0.048,0.544-0.327,1.053-0.327,1.235c0,0-2.515,1.186-3.277,1.461c-0.807,0.368-1.14,2.419-1.14,3.021
	c-2.856,0.909-18.075,7.678-19.792,9.37c-1.235,1.235-1.235,8.458-1.235,8.458v0.912c0,1.646,1.784,3.517,3.496,3.517h59.61
	c1.714,0,3.492-1.871,3.492-3.517v-0.912c0,0,0-7.223-1.233-8.458C104.349,12007.422,89.127,12000.653,86.274,11999.744"/>
</svg>
