<svg id="图层_1" data-name="图层 1" xmlns="http://www.w3.org/2000/svg" viewBox="0 0 850.39 255.12"><defs><style>.cls-1{fill:#b6b6b6;}.cls-2{fill:#fff;}.cls-3{fill:#c8102e;fill-rule:evenodd;}</style></defs><title>AR-Badge-Black</title><path class="cls-1" d="M790.4,0H60c-2.31,0-4.59,0-6.89,0-1.93,0-3.84,0-5.79.08A82.74,82.74,0,0,0,34.73,1.22a41.94,41.94,0,0,0-12,4,40.31,40.31,0,0,0-10.19,7.42,39.18,39.18,0,0,0-7.42,10.2,41.7,41.7,0,0,0-3.94,12A80.61,80.61,0,0,0,.1,47.38C0,49.31,0,51.25,0,53.18V202c0,1.95,0,3.84.1,5.8a80.61,80.61,0,0,0,1.12,12.6,41.5,41.5,0,0,0,3.94,12,39,39,0,0,0,7.42,10.17A39.83,39.83,0,0,0,22.77,250a42.29,42.29,0,0,0,12,4,84,84,0,0,0,12.62,1.11c1.95,0,3.86.07,5.79.07H797.22c1.92,0,3.89,0,5.81-.07a82.73,82.73,0,0,0,12.59-1.11,42.93,42.93,0,0,0,12-4,39.61,39.61,0,0,0,10.18-7.42,40.29,40.29,0,0,0,7.44-10.17,41.41,41.41,0,0,0,3.9-12,84.46,84.46,0,0,0,1.17-12.6c0-2,0-3.85,0-5.8,0-2.29,0-4.57,0-6.89v-135c0-2.3,0-4.59,0-6.87,0-1.93,0-3.87,0-5.8a84.46,84.46,0,0,0-1.17-12.6,41.61,41.61,0,0,0-3.9-12A40.75,40.75,0,0,0,827.63,5.17a42.56,42.56,0,0,0-12-3.95A81.48,81.48,0,0,0,803,.11c-1.92,0-3.89-.07-5.81-.08-2.26,0-4.56,0-6.82,0Z"/><path d="M53.17,249.62c-1.92,0-3.79,0-5.7-.06a80.14,80.14,0,0,1-11.76-1,37.19,37.19,0,0,1-10.43-3.45,34.09,34.09,0,0,1-8.8-6.4,33.42,33.42,0,0,1-6.42-8.79,35.78,35.78,0,0,1-3.42-10.44,77.48,77.48,0,0,1-1-11.8c0-1.33-.09-5.75-.09-5.75V53.18s0-4.36.09-5.63a77.77,77.77,0,0,1,1-11.79A36.21,36.21,0,0,1,10.05,25.3a33.83,33.83,0,0,1,6.39-8.81,35.27,35.27,0,0,1,8.83-6.43A36.51,36.51,0,0,1,35.68,6.63a78.76,78.76,0,0,1,11.81-1l5.68-.08h744l5.75.08a77.09,77.09,0,0,1,11.7,1,37.45,37.45,0,0,1,10.52,3.44,35.35,35.35,0,0,1,15.21,15.24,36.43,36.43,0,0,1,3.37,10.38,82.64,82.64,0,0,1,1.09,11.88c0,1.79,0,3.7,0,5.61,0,2.36,0,4.61,0,6.87V195.1c0,2.29,0,4.52,0,6.77,0,2,0,3.92,0,5.85a80.12,80.12,0,0,1-1.07,11.67,36.27,36.27,0,0,1-3.4,10.52,34.64,34.64,0,0,1-6.4,8.72,34.07,34.07,0,0,1-8.81,6.44,36.72,36.72,0,0,1-10.5,3.46,79.34,79.34,0,0,1-11.77,1c-1.84,0-3.77.06-5.65.06l-6.82,0Z"/><path class="cls-2" d="M315.4,172.44H285.89l-7.23,19.74h-13l28.9-73.73h12.26l29.56,73.73H322.77Zm-25.8-10h22l-7.89-21.11q-1.62-4.38-3.2-9.67-1.43,4.68-3.1,9.57Z"/><path class="cls-2" d="M342.27,150.71q0-6.11-.41-13.43h11.8a58.46,58.46,0,0,1,.92,7q7.32-8,16.79-8a18.94,18.94,0,0,1,17.73,11.52q2.88,6,2.88,15.19a37.62,37.62,0,0,1-3.29,16.44,23.49,23.49,0,0,1-9.18,10.33,26.16,26.16,0,0,1-13.64,3.51,33.7,33.7,0,0,1-11-1.88v22.69l-12.56,1.07Zm33,28.06q3.84-5.16,3.84-15.08c0-6.14-1-10.59-3.18-13.36a10.12,10.12,0,0,0-8.47-4.15,13.72,13.72,0,0,0-6.77,1.73,25.76,25.76,0,0,0-5.9,4.63V182a19.07,19.07,0,0,0,4.38,1.45,23.21,23.21,0,0,0,4.94.54Q371.47,183.94,375.31,178.77Z"/><path class="cls-2" d="M400,150.71q0-6.11-.4-13.43h11.8a60.58,60.58,0,0,1,.92,7q7.32-8,16.79-8a18.94,18.94,0,0,1,17.73,11.52q2.88,6,2.87,15.19a37.63,37.63,0,0,1-3.28,16.44,23.55,23.55,0,0,1-9.18,10.33,26.18,26.18,0,0,1-13.64,3.51,33.7,33.7,0,0,1-11-1.88v22.69L400,215.13Zm33.05,28.06q3.84-5.16,3.84-15.08,0-9.21-3.18-13.36a10.12,10.12,0,0,0-8.47-4.15,13.7,13.7,0,0,0-6.77,1.73,25.34,25.34,0,0,0-5.9,4.63V182A18.82,18.82,0,0,0,417,183.4a23.35,23.35,0,0,0,4.94.54Q429.24,183.94,433.07,178.77Z"/><path class="cls-2" d="M473.44,188.69a30.51,30.51,0,0,1-12.51-12.89q-4.38-8.4-4.38-19.85,0-12.4,5-21.09a32.44,32.44,0,0,1,13.71-13,42.67,42.67,0,0,1,19.46-4.36,51.56,51.56,0,0,1,12.14,1.4,53.51,53.51,0,0,1,10.76,3.84l-3.2,9.67a44.63,44.63,0,0,0-19.14-4.78,26.79,26.79,0,0,0-13.46,3.28,22.3,22.3,0,0,0-9,9.65,33.88,33.88,0,0,0-3.2,15.36,37,37,0,0,0,2.47,14,20.64,20.64,0,0,0,7.78,9.67q5.32,3.57,13.41,3.56a44.21,44.21,0,0,0,7.33-.61,37.63,37.63,0,0,0,6.86-1.78V165.82h-17v-9.77h29.26v31a65.22,65.22,0,0,1-13.26,4.53,62.27,62.27,0,0,1-13.81,1.58Q481.58,193.2,473.44,188.69Z"/><path class="cls-2" d="M565,192.18a47.58,47.58,0,0,1-.86-7.28,24.26,24.26,0,0,1-7.56,5.88,22.46,22.46,0,0,1-10.51,2.42,19.72,19.72,0,0,1-8.62-1.86,14.29,14.29,0,0,1-6.18-5.6,17.12,17.12,0,0,1-2.29-9.13,15.69,15.69,0,0,1,5.75-12.75q5.75-4.76,19.18-4.75a68.93,68.93,0,0,1,10,.71v-1.07q0-7.27-3.1-10.25t-8.9-3a35,35,0,0,0-8.61,1.17,45,45,0,0,0-8,2.8l-2-9.16a48.1,48.1,0,0,1,8.86-2.8,51.17,51.17,0,0,1,11.6-1.27,30.46,30.46,0,0,1,12.11,2.16,15.94,15.94,0,0,1,7.78,7.43q2.8,5.27,2.8,14.17v21.83c0,2.27.14,5.72.41,10.33ZM557.5,182a20,20,0,0,0,6.41-4.68V167.14a81,81,0,0,0-8.39-.55q-7.78,0-10.76,2.51a8.44,8.44,0,0,0-3,6.8q0,4.07,2.16,6a8.45,8.45,0,0,0,5.88,2A17.58,17.58,0,0,0,557.5,182Z"/><path class="cls-2" d="M587.43,179V114.13l12.51-1v63.65c0,2.34.4,4,1.2,5a4.61,4.61,0,0,0,3.79,1.45,13.81,13.81,0,0,0,3.31-.56l1.47,9a21.25,21.25,0,0,1-4.35,1.15,30.18,30.18,0,0,1-4.86.43Q587.42,193.2,587.43,179Z"/><path class="cls-2" d="M618.72,179V114.13l12.51-1v63.65c0,2.34.4,4,1.2,5a4.63,4.63,0,0,0,3.79,1.45,13.74,13.74,0,0,0,3.31-.56l1.48,9a21.36,21.36,0,0,1-4.36,1.15,30.18,30.18,0,0,1-4.86.43Q618.73,193.2,618.72,179Z"/><path class="cls-2" d="M693.11,166.33H657.19q.85,17.25,16.43,17.25a34.78,34.78,0,0,0,7.92-.94,47.87,47.87,0,0,0,7.76-2.52l2.74,8.6a46.81,46.81,0,0,1-20.71,4.48q-8.75,0-14.76-3.31a21.28,21.28,0,0,1-9-9.52,33.93,33.93,0,0,1-3-15,35.36,35.36,0,0,1,3.2-15.67,23.42,23.42,0,0,1,8.93-10,25,25,0,0,1,13.2-3.46q7.78,0,13,3.64a21.76,21.76,0,0,1,7.73,9.69A34.52,34.52,0,0,1,693.11,163Zm-12.26-8c-.24-4.37-1.34-7.66-3.31-9.84a10.09,10.09,0,0,0-7.89-3.28,10.59,10.59,0,0,0-8,3.3q-3.18,3.31-4.15,9.82Z"/><path class="cls-2" d="M703.24,151.07q0-4.53-.41-13.79h11.75c.21,1.52.4,3.35.59,5.47s.31,3.84.38,5.16a46.32,46.32,0,0,1,4.3-6.08,17.6,17.6,0,0,1,4.94-4,13.16,13.16,0,0,1,6.43-1.55,17.87,17.87,0,0,1,5,.61l-1.58,10.89a14,14,0,0,0-4.07-.56,13.46,13.46,0,0,0-7.74,2.26,31.31,31.31,0,0,0-7.07,7.46v35.26H703.24Z"/><path class="cls-2" d="M743.75,214.64a30,30,0,0,1-4.53-1.09l2.29-9.16a30.93,30.93,0,0,0,3.2.69,21.81,21.81,0,0,0,3.66.33q8.36,0,12.52-10.74l.81-2-20.24-55.36h13.48l10.18,30.93a101.24,101.24,0,0,1,3.2,12.16q1.42-6,3.36-11.9L782,137.28h12.67l-20.2,55.61a56.76,56.76,0,0,1-6.16,12.72,21.58,21.58,0,0,1-7.81,7.18,23.29,23.29,0,0,1-10.86,2.34A33.22,33.22,0,0,1,743.75,214.64Z"/><path class="cls-3" d="M172.35,46.43h-71C68,46.43,55.72,58.65,55.72,92.09v71c0,33.43,12.23,45.66,45.66,45.66h71c33.43,0,45.68-12.23,45.68-45.66v-71C218,58.65,205.78,46.43,172.35,46.43Z"/><path class="cls-2" d="M87.86,127.59h4.3v21.22h-4.3v-8.62H78.14v8.62H73.83V127.59h4.31v8.56h9.72Zm24.25,12.14c0,3.45-1.71,5.29-4.82,5.29s-4.85-1.89-4.85-5.44v-12H98.13v12.13c0,6,3.32,9.39,9.1,9.39s9.18-3.48,9.18-9.56v-12h-4.3Zm49.75,2.45-4.81-14.59h-3.52l-4.81,14.59L144,127.6h-4.58l7.39,21.2h3.57l4.82-13.93,4.82,13.93h3.6L171,127.6h-4.47Zm16.88-2.51h7.83v-3.86h-7.83v-4.34h11.37V127.6H174.5v21.19h16v-3.86H178.74Zm16.91,9.11h4.25V127.59h-4.25Zm-70.73-4.41L123,148.79H118.6l9.34-21.2h3.8l9.31,21.2h-4.51l-1.91-4.42Zm1.6-3.82H133L129.77,133Z"/><path class="cls-2" d="M136.87,100.57a27,27,0,0,1-27-27h3.82a23.2,23.2,0,0,0,46.39,0h3.82A27,27,0,0,1,136.87,100.57Z"/><path class="cls-2" d="M298.44,80.57V85.1h-2.05a22.87,22.87,0,0,1,.14,2.55,12.94,12.94,0,0,1-1.59,4.43,26.72,26.72,0,0,1-16.5,6.58c-4.53,0-7.68-1.56-9.73-3.82-2.2-2.45-3.09-5.88-3.09-9.88A25.52,25.52,0,0,1,269,73.28l1.35.6a23.94,23.94,0,0,0-2.16,8.88A11.08,11.08,0,0,0,271,90.48a11.72,11.72,0,0,0,8.57,3.33,26.22,26.22,0,0,0,11.29-3c1.6-.89,2.91-1.74,3.19-2.45-.82-1.7-4.67-3.22-10.3-3.22l-.22-.49,2.45-4Z"/><path class="cls-2" d="M298.85,80.57a9.09,9.09,0,0,0,4.11-1.1c1.06-.6,1.7-1.73,1.7-4.25,0-7.11-.39-13.49-.92-21.63l-.11-1.77,3.15-3.18.18.07c.67,8.32.71,17,.71,27.82,0,1.63,1.13,4,5.24,4h.46V85.1h-.74c-3.3,0-5.78-1.13-6.91-3.75h-.14a7.48,7.48,0,0,1-6.83,3.75h-.6a2.27,2.27,0,0,1-2.48-2.37,2.2,2.2,0,0,1,2.48-2.16Z"/><path class="cls-2" d="M315.31,80.57a20.18,20.18,0,0,0,5.24-.74v-.18c-2.48-1.63-4.15-3.86-4.15-6.94a9.08,9.08,0,0,1,1.53-4.64c1.66-2.76,4.21-4.74,7.33-4.74,3.29,0,6,2.16,7.85,5.77l-.67.71a8.89,8.89,0,0,0-6.33-2.27c-3.76,0-6.48,1.73-6.48,3,0,1.67,1,3.44,3,5A8.94,8.94,0,0,0,327,77.45c2.7,0,5.92-1.09,10.13-2.51l.18.18-1.88,4.39c-5.56,2-8.25,2.26-12.57,3.68-3,1-5.8,1.91-8.64,1.91h-1.09a2.27,2.27,0,0,1-2.48-2.37,2.2,2.2,0,0,1,2.48-2.16Z"/><path class="cls-2" d="M388.32,85.1h-.67c-3.19,0-5.84-1.34-7.22-5.77h-.18a5.06,5.06,0,0,1-2.55,3.4,14,14,0,0,1-7.12,2.37c-4,0-6.16-2.41-6.16-6.55,0-.88,0-1.73.11-2.62l1.38-.1c.14,2.93,1.59,4.74,5,4.74a12.54,12.54,0,0,0,5.77-1.77C378,78.06,379,77,379,76.14,379,73.74,377.7,69,376,63c.82-1.24,1.6-2.51,2.52-3.64l.21.14c1.31,5.1,2.41,10.55,3.36,15.75.64,3.51,2.94,5.35,5.6,5.35h.6Z"/><path class="cls-2" d="M388.63,80.57a23.13,23.13,0,0,0,7-.67c1.24-.46,2-1,2-1.56,0-1.67-1.7-5.14-3.54-8.75a28.61,28.61,0,0,1,2.65-4h.18c1.63,2.87,3.54,7.3,3.54,10.8A10.6,10.6,0,0,1,398,83c-1.59,1.59-4.11,2.12-9.52,2.12H388a2.27,2.27,0,0,1-2.47-2.37A2.2,2.2,0,0,1,388,80.57Zm3.47,18.66c-1.46-1.38-2.73-2.52-4.15-3.68a30.87,30.87,0,0,1,2.8-3.37,33.72,33.72,0,0,1,4,3.79A19.14,19.14,0,0,1,392.1,99.23Zm6.83-.46c-1.45-1.38-2.73-2.52-4.14-3.68a32.05,32.05,0,0,1,2.79-3.37,33,33,0,0,1,4,3.79A18.68,18.68,0,0,1,398.93,98.77Z"/><path class="cls-2" d="M418,72.92c2,4.85,3.85,7.65,8,7.65h.64V85.1h-.74A5,5,0,0,1,422.25,84h-.14c0,.42.07.85.07,1.24a11.75,11.75,0,0,1-1.42,5.48c-2.79,4.93-5.84,7-8.46,7s-5.91-1.2-8.85-2.76l.53-1.21a9.34,9.34,0,0,0,4.07.78c4.75,0,11-5.38,11.76-10.62a7.75,7.75,0,0,0-1-1.59,33.93,33.93,0,0,1-3.08-5.28c.71-1.62,1.35-2.93,2-4.1ZM414.89,60.6a32,32,0,0,1,4.24,3.79,14.36,14.36,0,0,1-2.94,3.47c-1.38-1.31-2.76-2.44-4.17-3.65C413,62.94,413.93,61.7,414.89,60.6Z"/><path class="cls-2" d="M427.3,80.57c3.72,0,4.92-1.84,6-5.2,1.38-4.43,4.18-6.73,6.55-6.73A4.75,4.75,0,0,1,444.08,71a43.55,43.55,0,0,1,3.54,6.66c.78,1.66,2.66,2.9,5.53,2.9h.6V85.1h-.68A6,6,0,0,1,447.62,82h-.14a5.6,5.6,0,0,1-1.13,2.69A3.25,3.25,0,0,1,444,85.88c-2.73,0-7.19-1.91-10-5h-.14c-1,2.27-3.22,4.18-7.05,4.18h-.53a2.28,2.28,0,0,1-2.48-2.37,2.21,2.21,0,0,1,2.48-2.16Zm11.93-.6a11.43,11.43,0,0,0,4.89,1.55c.67,0,1.31-.07,1.31-.88a10.09,10.09,0,0,0-1.77-4.71c-1.38-2.09-3-3.19-4.54-3.19a4.38,4.38,0,0,0-4.07,3.19C435.41,77.24,437.67,79.08,439.23,80Z"/><path class="cls-2" d="M454.23,80.57a7.9,7.9,0,0,0,4-1,4,4,0,0,0,1.88-3.82c-.07-5.66-.46-11.86-1-18.37-.14-1.63-.35-3.12-.35-4.43a3.57,3.57,0,0,1,1.06-2.37,17,17,0,0,1,1.95-1.95l.25.18c-.07,2.3,1,5.06,2.86,8.11a19.8,19.8,0,0,1-2.23,1.8c.15,4.07.46,8.36.46,12.29s-.38,6.76-1.41,8.88c-.75,1.81-1.6,3.3-3.22,4.11A10.14,10.14,0,0,1,454,85.1h-.53A2.27,2.27,0,0,1,451,82.73a2.21,2.21,0,0,1,2.48-2.16Z"/><path class="cls-2" d="M470.65,85.7a47.2,47.2,0,0,0,.39-7.08V75.15c0-6.48-.71-15.89-1.28-22a32.16,32.16,0,0,1,3.47-3.75l.32.1c.74,7.72.92,16.68.92,24.93a55.14,55.14,0,0,1-.25,5.84c-.1,2-1.06,3.44-3.11,5.7Z"/><path class="cls-2" d="M520.93,86.55c-4.85,0-9-.74-12.14-2.72a11,11,0,0,1-5.2-9.6,17.81,17.81,0,0,1,2.08-8.57l1.42.61a17.45,17.45,0,0,0-1,5.38,9.2,9.2,0,0,0,4.68,7.82c2.9,1.74,6.83,2.27,11.26,2.27a56.84,56.84,0,0,0,13-1.56l-.29-.46a9.75,9.75,0,0,1-1.24-5.38A11.9,11.9,0,0,1,536.69,66c1.84-2,4.07-3.29,5.35-3.29s2.86,1.45,4.14,3.93a10.75,10.75,0,0,1,1.34,5,15.72,15.72,0,0,1-2.37,8.25,20.14,20.14,0,0,0,5.52.64h1.14V85.1h-1a28.09,28.09,0,0,1-10.59-1.91A62.16,62.16,0,0,1,520.93,86.55Zm24.65-12.21a7.5,7.5,0,0,0-.85-3.19c-1-1.88-2.06-3.18-3.51-3.18-2.76,0-5.45,3.29-6.09,5.91a6.85,6.85,0,0,0,5.06,4.92C542.64,78.2,545.58,75.79,545.58,74.34Zm-6.41-23.83a32.05,32.05,0,0,1,4.25,3.79,14.58,14.58,0,0,1-2.94,3.47c-1.38-1.31-2.76-2.44-4.18-3.65C537.26,52.85,538.21,51.61,539.17,50.51Z"/><path class="cls-2" d="M587.76,85.1h-.89c-4.39,0-6.4-1.34-7.29-3.33h-.21c-2,2.34-4,3.33-6.06,3.33a3.53,3.53,0,0,1-3.86-2.94h-.14a8,8,0,0,1-6.12,2.94,3,3,0,0,1-3.4-3h-.14a9.46,9.46,0,0,1-7.54,3h-.61A2.27,2.27,0,0,1,549,82.73a2.2,2.2,0,0,1,2.47-2.16h1.21c3.22,0,5.7-.89,7.47-3.29L562,74.52l2.72-1,.15.18c-1.35,2.33-2.3,4-2.3,5.06a1.75,1.75,0,0,0,1.91,1.77,5.15,5.15,0,0,0,3.08-1.06,8,8,0,0,0,2.3-3.12l.85-2.09,2.69-1.24.14.14c-1.06,2.7-1.45,4-1.45,5.32a1.94,1.94,0,0,0,2,2,4.15,4.15,0,0,0,2.44-.78,5.6,5.6,0,0,0,2.06-3.4c.14-.56.35-1.24.71-2.8l2.69-1.8.14.11a19.84,19.84,0,0,0-.89,4.85c0,2.79,2.45,3.82,5.81,3.82h.78ZM568.92,67.86c-1.45-1.38-2.72-2.51-4.14-3.68a30.87,30.87,0,0,1,2.8-3.37,33.71,33.71,0,0,1,4,3.79A18.68,18.68,0,0,1,568.92,67.86Zm1.92-7.54c-1.46-1.38-2.73-2.52-4.15-3.68a30.87,30.87,0,0,1,2.8-3.37,33.78,33.78,0,0,1,4,3.79A19.14,19.14,0,0,1,570.84,60.32Zm4.92,7.08c-1.46-1.38-2.73-2.51-4.15-3.68a32.06,32.06,0,0,1,2.8-3.37,33.78,33.78,0,0,1,4,3.79A18.68,18.68,0,0,1,575.76,67.4Z"/><path class="cls-2" d="M588.24,80.57c2.72,0,5.56-1.1,6.09-3.12l1-3.82,2.45-1.77.21.25a18.73,18.73,0,0,0-.78,4.1,3.52,3.52,0,0,0,1.17,2.94,6.59,6.59,0,0,0,4.39,1.42h.64V85.1h-.82c-3.47,0-6.09-.95-7.29-3.61h-.14c-1.21,2.37-4,3.61-7,3.61h-.67A2.27,2.27,0,0,1,585,82.73a2.21,2.21,0,0,1,2.48-2.16Zm3.89-13.42c-1.45-1.38-2.72-2.51-4.14-3.68a30.7,30.7,0,0,1,2.8-3.36,33.6,33.6,0,0,1,4,3.78A18.68,18.68,0,0,1,592.13,67.15Zm6.84-.46c-1.46-1.38-2.73-2.51-4.15-3.68a31.86,31.86,0,0,1,2.8-3.37,34.61,34.61,0,0,1,4,3.79A19.14,19.14,0,0,1,599,66.69Z"/><path class="cls-2" d="M625.15,47c-.77,1.45-1.69,2.9-2.65,4.35-1.81.46-3.79,1.06-5.7,1.74-3.75,1.31-7.61,2.86-11.65,4.63v.11l5.77,2.23-.85,1.77c5.45,4.43,9.1,8.92,9.1,12.64,0,3.29-.88,5.91-2.26,7.33-2.24,2-5.78,3.29-12.36,3.29h-1.42a2.27,2.27,0,0,1-2.47-2.37,2.2,2.2,0,0,1,2.47-2.16h2.23c3.65,0,7-.35,9.46-1.84,1.27-.78,1.94-1.49,1.94-1.91,0-1.6-1.09-3.47-2.44-5.31-1.56-2.13-4.85-5.53-10.66-10a3.91,3.91,0,0,1-1.27-3.26A4.78,4.78,0,0,1,603.2,56a6.21,6.21,0,0,1,2.66-2.16c4.14-2.09,10.9-4.42,19-7.08Z"/><path class="cls-2" d="M629.43,85.7a47.2,47.2,0,0,0,.39-7.08V75.15c0-6.48-.71-15.89-1.28-22A32.16,32.16,0,0,1,632,49.38l.32.1c.74,7.72.92,16.68.92,24.93a55.14,55.14,0,0,1-.25,5.84c-.1,2-1.06,3.44-3.11,5.7Z"/></svg>