<?xml version="1.0" encoding="UTF-8" standalone="no"?>
<svg
   xmlns:dc="http://purl.org/dc/elements/1.1/"
   xmlns:cc="http://creativecommons.org/ns#"
   xmlns:rdf="http://www.w3.org/1999/02/22-rdf-syntax-ns#"
   xmlns:svg="http://www.w3.org/2000/svg"
   xmlns="http://www.w3.org/2000/svg"
   xmlns:sodipodi="http://sodipodi.sourceforge.net/DTD/sodipodi-0.dtd"
   xmlns:inkscape="http://www.inkscape.org/namespaces/inkscape"
   version="1.1"
   id="svg2"
   xml:space="preserve"
   width="1133.8533"
   height="340.15732"
   viewBox="0 0 1133.8533 340.15732"
   sodipodi:docname="Badge-Black.ai"><metadata
     id="metadata8"><rdf:RDF><cc:Work
         rdf:about=""><dc:format>image/svg+xml</dc:format><dc:type
           rdf:resource="http://purl.org/dc/dcmitype/StillImage" /></cc:Work></rdf:RDF></metadata><defs
     id="defs6"><clipPath
       clipPathUnits="userSpaceOnUse"
       id="clipPath18"><path
         d="M 0,255.118 H 850.39 V 0 H 0 Z"
         id="path16" /></clipPath></defs><sodipodi:namedview
     pagecolor="#ffffff"
     bordercolor="#666666"
     borderopacity="1"
     objecttolerance="10"
     gridtolerance="10"
     guidetolerance="10"
     inkscape:pageopacity="0"
     inkscape:pageshadow="2"
     inkscape:window-width="640"
     inkscape:window-height="480"
     id="namedview4" /><g
     id="g10"
     inkscape:groupmode="layer"
     inkscape:label="Badge-Black"
     transform="matrix(1.3333333,0,0,-1.3333333,0,340.15733)"><g
       id="g12"><g
         id="g14"
         clip-path="url(#clipPath18)"><g
           id="g20"
           transform="translate(790.3975,255.1183)"><path
             d="m 0,0 h -730.371 c -2.309,0 -4.589,0 -6.892,-0.013 -1.927,-0.012 -3.84,-0.049 -5.785,-0.079 -4.19,-0.105 -8.433,-0.363 -12.617,-1.113 -4.214,-0.738 -8.131,-1.999 -11.967,-3.947 -3.769,-1.931 -7.212,-4.439 -10.191,-7.421 -3.012,-2.982 -5.509,-6.438 -7.418,-10.206 -1.958,-3.831 -3.2,-7.766 -3.935,-11.983 -0.759,-4.169 -1.02,-8.386 -1.128,-12.604 -0.058,-1.931 -0.065,-3.867 -0.095,-5.798 v -6.874 -135.049 -6.886 c 0.03,-1.955 0.037,-3.848 0.095,-5.804 0.108,-4.217 0.369,-8.435 1.128,-12.604 0.735,-4.217 1.977,-8.171 3.935,-11.989 1.909,-3.75 4.406,-7.206 7.418,-10.163 2.979,-3.006 6.422,-5.509 10.191,-7.421 3.836,-1.967 7.753,-3.209 11.967,-3.971 4.184,-0.751 8.427,-0.997 12.617,-1.113 1.945,-0.043 3.858,-0.067 5.785,-0.067 2.303,-0.013 4.583,-0.013 6.892,-0.013 H 0 c 2.263,0 4.562,0 6.824,0.013 1.919,0 3.886,0.024 5.805,0.067 4.217,0.116 8.447,0.362 12.591,1.113 4.217,0.762 8.14,2.004 12.013,3.971 3.763,1.912 7.206,4.415 10.182,7.421 3,2.957 5.496,6.413 7.439,10.163 1.931,3.818 3.185,7.772 3.898,11.989 0.775,4.169 1.02,8.387 1.169,12.604 0.024,1.956 0.024,3.849 0.024,5.804 0.049,2.287 0.049,4.562 0.049,6.886 v 135.049 c 0,2.306 0,4.593 -0.049,6.874 0,1.931 0,3.867 -0.024,5.798 -0.149,4.218 -0.394,8.435 -1.169,12.604 -0.713,4.217 -1.967,8.152 -3.898,11.983 -1.943,3.768 -4.439,7.224 -7.439,10.206 -2.976,2.982 -6.419,5.49 -10.182,7.421 -3.873,1.948 -7.796,3.209 -12.013,3.947 -4.144,0.75 -8.374,1.008 -12.591,1.113 -1.919,0.03 -3.886,0.067 -5.805,0.079 C 4.562,0 2.263,0 0,0"
             style="fill:#c0c1c1;fill-opacity:1;fill-rule:nonzero;stroke:none"
             id="path22" /></g><g
           id="g24"
           transform="translate(53.165,5.5089)"><path
             d="m 0,0 c -1.918,0 -3.79,0.024 -5.693,0.067 -3.52,0.099 -7.695,0.295 -11.768,1.027 -3.843,0.695 -7.258,1.827 -10.431,3.45 -3.283,1.665 -6.233,3.817 -8.795,6.4 -2.606,2.557 -4.749,5.496 -6.424,8.792 -1.633,3.178 -2.749,6.59 -3.419,10.433 -0.768,4.236 -0.965,8.534 -1.048,11.805 -0.04,1.328 -0.092,5.749 -0.092,5.749 v 148.722 c 0,0 0.055,4.353 0.092,5.632 0.083,3.298 0.28,7.593 1.042,11.786 0.673,3.865 1.789,7.274 3.422,10.465 1.672,3.301 3.818,6.255 6.391,8.801 2.603,2.607 5.567,4.765 8.828,6.437 3.234,1.642 6.644,2.764 10.41,3.425 4.239,0.759 8.536,0.949 11.807,1.032 l 5.681,0.077 h 744.023 l 5.748,-0.079 c 3.229,-0.081 7.526,-0.271 11.701,-1.024 3.793,-0.664 7.224,-1.792 10.519,-3.45 3.229,-1.653 6.186,-3.811 8.762,-6.394 2.576,-2.557 4.733,-5.527 6.443,-8.841 1.623,-3.218 2.73,-6.627 3.369,-10.381 0.732,-3.972 0.959,-8.051 1.094,-11.882 0.019,-1.782 0.019,-3.698 0.019,-5.604 0.049,-2.361 0.049,-4.608 0.049,-6.874 V 54.522 c 0,-2.287 0,-4.518 -0.049,-6.768 0,-2.048 0,-3.923 -0.025,-5.854 -0.129,-3.708 -0.356,-7.784 -1.076,-11.669 -0.651,-3.861 -1.758,-7.273 -3.399,-10.514 -1.698,-3.271 -3.856,-6.228 -6.395,-8.724 -2.6,-2.632 -5.552,-4.777 -8.809,-6.437 -3.266,-1.66 -6.598,-2.76 -10.502,-3.462 C 757.441,0.362 753.267,0.166 749.707,0.067 747.862,0.024 745.932,0 744.057,0 l -6.825,-0.013 z"
             style="fill:#000000;fill-opacity:1;fill-rule:nonzero;stroke:none"
             id="path26" /></g><g
           id="g28"
           transform="translate(289.6001,92.7179)"><path
             d="m 0,0 h 22.031 l -7.889,21.117 c -1.084,2.917 -2.151,6.138 -3.205,9.665 -0.951,-3.12 -1.984,-6.308 -3.102,-9.565 z m 25.794,-10.023 h -29.51 l -7.224,-19.743 h -12.975 l 28.9,73.728 h 12.263 l 29.56,-73.728 H 33.173 Z"
             style="fill:#ffffff;fill-opacity:1;fill-rule:nonzero;stroke:none"
             id="path30" /></g><g
           id="g32"
           transform="translate(375.3105,76.3595)"><path
             d="m 0,0 c 2.561,3.442 3.842,8.472 3.842,15.086 0,6.14 -1.059,10.591 -3.181,13.357 -2.122,2.765 -4.943,4.146 -8.471,4.146 -2.444,0 -4.7,-0.575 -6.768,-1.729 -2.067,-1.153 -4.038,-2.697 -5.901,-4.631 v -29.41 c 1.252,-0.611 2.712,-1.094 4.374,-1.45 1.662,-0.355 3.306,-0.533 4.938,-0.533 4.885,0 8.605,1.722 11.167,5.164 m -33.047,28.061 c 0,4.072 -0.138,8.547 -0.406,13.434 h 11.803 c 0.439,-2.274 0.744,-4.598 0.916,-6.973 4.884,5.327 10.48,7.99 16.791,7.99 3.662,0 7.057,-0.925 10.175,-2.773 3.122,-1.849 5.642,-4.766 7.559,-8.751 1.916,-3.986 2.875,-9.051 2.875,-15.188 0,-6.412 -1.097,-11.891 -3.286,-16.436 -2.185,-4.545 -5.248,-7.987 -9.182,-10.329 -3.934,-2.34 -8.48,-3.512 -13.636,-3.512 -3.733,0 -7.412,0.63 -11.041,1.884 v -22.693 l -12.568,-1.069 z"
             style="fill:#ffffff;fill-opacity:1;fill-rule:nonzero;stroke:none"
             id="path34" /></g><g
           id="g36"
           transform="translate(433.0674,76.3595)"><path
             d="m 0,0 c 2.562,3.442 3.842,8.472 3.842,15.086 0,6.14 -1.059,10.591 -3.181,13.357 -2.122,2.765 -4.943,4.146 -8.471,4.146 -2.444,0 -4.7,-0.575 -6.768,-1.729 -2.067,-1.153 -4.038,-2.697 -5.901,-4.631 v -29.41 c 1.251,-0.611 2.712,-1.094 4.374,-1.45 1.661,-0.355 3.306,-0.533 4.938,-0.533 4.885,0 8.605,1.722 11.167,5.164 m -33.047,28.061 c 0,4.072 -0.138,8.547 -0.406,13.434 h 11.802 c 0.44,-2.274 0.745,-4.598 0.917,-6.973 4.884,5.327 10.48,7.99 16.792,7.99 3.662,0 7.055,-0.925 10.173,-2.773 3.123,-1.849 5.642,-4.766 7.559,-8.751 1.917,-3.986 2.875,-9.051 2.875,-15.188 0,-6.412 -1.096,-11.891 -3.285,-16.436 -2.185,-4.545 -5.248,-7.987 -9.183,-10.329 -3.933,-2.34 -8.479,-3.512 -13.635,-3.512 -3.733,0 -7.412,0.63 -11.041,1.884 v -22.693 l -12.568,-1.069 z"
             style="fill:#ffffff;fill-opacity:1;fill-rule:nonzero;stroke:none"
             id="path38" /></g><g
           id="g40"
           transform="translate(473.4424,66.4386)"><path
             d="m 0,0 c -5.429,3.001 -9.601,7.301 -12.519,12.896 -2.917,5.599 -4.373,12.213 -4.373,19.845 0,8.277 1.678,15.308 5.036,21.092 3.36,5.782 7.93,10.124 13.714,13.024 5.78,2.901 12.267,4.351 19.461,4.351 4.241,0 8.284,-0.466 12.134,-1.4 3.851,-0.933 7.437,-2.212 10.765,-3.84 L 41.012,56.3 c -6.685,3.187 -13.063,4.782 -19.131,4.782 -5.123,0 -9.61,-1.093 -13.46,-3.281 -3.851,-2.187 -6.843,-5.402 -8.982,-9.643 -2.134,-4.24 -3.206,-9.36 -3.206,-15.366 0,-5.257 0.825,-9.922 2.469,-13.992 1.646,-4.07 4.24,-7.295 7.785,-9.668 3.545,-2.375 8.015,-3.562 13.406,-3.562 2.444,0 4.888,0.203 7.328,0.612 2.444,0.406 4.733,1 6.868,1.781 V 22.87 H 17.047 v 9.769 H 46.302 V 1.601 C 42.096,-0.366 37.676,-1.875 33.047,-2.928 28.418,-3.979 23.814,-4.503 19.231,-4.503 11.836,-4.503 5.429,-3.003 0,0"
             style="fill:#ffffff;fill-opacity:1;fill-rule:nonzero;stroke:none"
             id="path42" /></g><g
           id="g44"
           transform="translate(557.499,73.1291)"><path
             d="m 0,0 c 2.612,1.253 4.751,2.814 6.412,4.681 v 10.176 c -3.428,0.372 -6.224,0.559 -8.395,0.559 -5.19,0 -8.777,-0.839 -10.761,-2.518 -1.984,-1.679 -2.976,-3.944 -2.976,-6.792 0,-2.714 0.72,-4.725 2.16,-6.031 1.444,-1.305 3.403,-1.959 5.876,-1.959 2.511,0 5.073,0.628 7.684,1.884 M 7.529,-10.177 C 7.09,-8.04 6.802,-5.615 6.667,-2.9 4.733,-5.209 2.214,-7.168 -0.892,-8.776 c -3.1,-1.612 -6.603,-2.417 -10.504,-2.417 -3.156,0 -6.031,0.619 -8.626,1.855 -2.595,1.239 -4.654,3.104 -6.182,5.598 -1.527,2.493 -2.289,5.537 -2.289,9.133 0,5.325 1.917,9.573 5.751,12.746 3.833,3.173 10.224,4.758 19.18,4.758 3.362,0 6.684,-0.238 9.974,-0.713 v 1.069 c 0,4.851 -1.034,8.268 -3.105,10.252 -2.068,1.983 -5.036,2.977 -8.903,2.977 -2.678,0 -5.545,-0.39 -8.6,-1.171 -3.051,-0.781 -5.734,-1.712 -8.04,-2.798 l -1.984,9.16 c 2.24,1.016 5.19,1.95 8.856,2.798 3.662,0.846 7.529,1.271 11.601,1.271 4.746,0 8.785,-0.721 12.109,-2.163 3.323,-1.442 5.918,-3.918 7.784,-7.427 1.867,-3.511 2.801,-8.237 2.801,-14.172 V 0.152 c 0,-2.272 0.133,-5.716 0.405,-10.329 z"
             style="fill:#ffffff;fill-opacity:1;fill-rule:nonzero;stroke:none"
             id="path46" /></g><g
           id="g48"
           transform="translate(587.4238,76.132)"><path
             d="m 0,0 v 64.874 l 12.514,1.017 V 2.236 c 0,-2.339 0.398,-3.992 1.197,-4.959 0.795,-0.966 2.06,-1.45 3.792,-1.45 0.778,0 1.884,0.187 3.307,0.559 l 1.477,-9.007 c -1.189,-0.475 -2.641,-0.856 -4.353,-1.145 -1.711,-0.287 -3.331,-0.43 -4.859,-0.43 C 4.357,-14.196 0,-9.465 0,0"
             style="fill:#ffffff;fill-opacity:1;fill-rule:nonzero;stroke:none"
             id="path50" /></g><g
           id="g52"
           transform="translate(618.7168,76.132)"><path
             d="m 0,0 v 64.874 l 12.515,1.017 V 2.236 c 0,-2.339 0.397,-3.992 1.196,-4.959 0.796,-0.966 2.06,-1.45 3.792,-1.45 0.778,0 1.884,0.187 3.307,0.559 l 1.477,-9.007 c -1.188,-0.475 -2.641,-0.856 -4.352,-1.145 -1.712,-0.287 -3.332,-0.43 -4.86,-0.43 C 4.357,-14.196 0,-9.465 0,0"
             style="fill:#ffffff;fill-opacity:1;fill-rule:nonzero;stroke:none"
             id="path54" /></g><g
           id="g56"
           transform="translate(680.8437,96.7882)"><path
             d="m 0,0 c -0.234,4.376 -1.34,7.659 -3.307,9.846 -1.966,2.188 -4.595,3.281 -7.884,3.281 -3.19,0 -5.843,-1.101 -7.965,-3.307 C -21.274,7.615 -22.659,4.342 -23.304,0 Z M 12.263,-7.987 H -23.66 c 0.578,-11.499 6.056,-17.25 16.435,-17.25 2.579,0 5.215,0.313 7.915,0.941 2.696,0.628 5.282,1.467 7.759,2.52 l 2.746,-8.601 c -6.139,-2.984 -13.041,-4.476 -20.709,-4.476 -5.834,0 -10.752,1.101 -14.757,3.306 -4,2.206 -7.01,5.376 -9.032,9.516 -2.017,4.136 -3.025,9.124 -3.025,14.96 0,6.071 1.066,11.294 3.205,15.67 2.139,4.378 5.115,7.717 8.932,10.023 3.812,2.309 8.215,3.461 13.2,3.461 5.19,0 9.526,-1.213 13.004,-3.639 3.473,-2.425 6.051,-5.656 7.734,-9.693 1.679,-4.036 2.516,-8.496 2.516,-13.38 z"
             style="fill:#ffffff;fill-opacity:1;fill-rule:nonzero;stroke:none"
             id="path58" /></g><g
           id="g60"
           transform="translate(703.2344,104.0646)"><path
             d="m 0,0 c 0,3.02 -0.138,7.614 -0.406,13.79 h 11.753 c 0.205,-1.527 0.397,-3.351 0.586,-5.47 0.183,-2.122 0.313,-3.842 0.38,-5.165 1.457,2.408 2.892,4.435 4.298,6.079 1.407,1.645 3.056,2.987 4.939,4.02 1.88,1.036 4.026,1.553 6.432,1.553 1.934,0 3.596,-0.203 4.99,-0.611 L 31.394,3.308 c -1.222,0.373 -2.579,0.559 -4.073,0.559 -2.95,0 -5.528,-0.756 -7.734,-2.264 -2.205,-1.509 -4.562,-3.996 -7.068,-7.455 v -35.26 l -12.519,0 z"
             style="fill:#ffffff;fill-opacity:1;fill-rule:nonzero;stroke:none"
             id="path62" /></g><g
           id="g64"
           transform="translate(743.7441,40.4875)"><path
             d="m 0,0 c -1.834,0.322 -3.34,0.687 -4.529,1.095 l 2.29,9.157 c 0.844,-0.236 1.917,-0.464 3.206,-0.687 1.289,-0.219 2.511,-0.33 3.662,-0.33 5.561,0 9.734,3.58 12.517,10.738 l 0.813,2.034 -20.249,55.36 H 11.191 L 21.369,46.43 c 1.662,-5.292 2.73,-9.346 3.206,-12.16 0.95,3.969 2.068,7.937 3.357,11.907 l 10.33,31.19 H 50.93 L 30.732,21.753 C 28.832,16.494 26.781,12.255 24.575,9.032 22.37,5.81 19.767,3.418 16.766,1.858 13.761,0.298 10.141,-0.483 5.9,-0.483 3.796,-0.483 1.833,-0.322 0,0"
             style="fill:#ffffff;fill-opacity:1;fill-rule:nonzero;stroke:none"
             id="path66" /></g><g
           id="g68"
           transform="translate(265.623,208.3966)"><path
             d="M 0,0 H 22.663 L 22.027,-5.472 H 6.642 v -10.602 h 14.506 v -5.129 H 6.642 v -11.743 h 16.21 l -0.561,-5.527 -22.291,0 z"
             style="fill:#ffffff;fill-opacity:1;fill-rule:nonzero;stroke:none"
             id="path70" /></g><g
           id="g72"
           transform="translate(303.9097,189.5587)"><path
             d="m 0,0 -11.957,18.838 h 7.546 l 8.102,-13.843 8.53,13.843 h 7.337 L 7.705,0.239 20.537,-19.635 h -7.65 L 3.721,-4.491 -5.608,-19.635 h -7.333 z"
             style="fill:#ffffff;fill-opacity:1;fill-rule:nonzero;stroke:none"
             id="path74" /></g><g
           id="g76"
           transform="translate(345.9966,191.2204)"><path
             d="m 0,0 c 1.419,1.283 2.126,3.095 2.126,5.433 0,2.373 -0.72,4.082 -2.164,5.129 -1.443,1.043 -3.566,1.567 -6.365,1.567 h -3.612 V -1.528 c 1.665,-0.265 2.938,-0.399 3.825,-0.399 2.712,0 4.775,0.642 6.19,1.927 m -16.657,17.176 h 10.363 c 4.871,0 8.596,-0.991 11.183,-2.975 2.586,-1.984 3.88,-4.853 3.88,-8.61 0,-2.55 -0.578,-4.777 -1.738,-6.681 -1.163,-1.905 -2.779,-3.365 -4.85,-4.385 -2.072,-1.019 -4.457,-1.527 -7.149,-1.527 -1.469,0 -3.151,0.178 -5.047,0.531 v -14.826 h -6.642 z"
             style="fill:#ffffff;fill-opacity:1;fill-rule:nonzero;stroke:none"
             id="path78" /></g><g
           id="g80"
           transform="translate(361.3276,208.3966)"><path
             d="m 0,0 h 6.642 v -32.788 h 15.917 l -0.561,-5.685 H 0 Z"
             style="fill:#ffffff;fill-opacity:1;fill-rule:nonzero;stroke:none"
             id="path82" /></g><g
           id="g84"
           transform="translate(411.1992,176.526)"><path
             d="m 0,0 c 1.862,1.249 3.252,2.967 4.172,5.154 0.921,2.189 1.382,4.69 1.382,7.506 0,2.765 -0.406,5.226 -1.222,7.387 -0.816,2.162 -2.118,3.884 -3.905,5.169 -1.792,1.283 -4.094,1.925 -6.91,1.925 -2.691,0 -4.976,-0.651 -6.855,-1.952 -1.875,-1.302 -3.286,-3.047 -4.224,-5.234 -0.941,-2.189 -1.41,-4.601 -1.41,-7.24 0,-2.781 0.444,-5.272 1.331,-7.467 0.883,-2.197 2.239,-3.932 4.064,-5.208 1.825,-1.275 4.085,-1.913 6.776,-1.913 2.674,0 4.943,0.623 6.801,1.873 m -17.218,-4.717 c -2.817,1.613 -4.968,3.876 -6.454,6.791 -1.49,2.912 -2.235,6.301 -2.235,10.161 0,4.056 0.795,7.605 2.382,10.641 1.582,3.039 3.867,5.385 6.855,7.042 2.984,1.655 6.504,2.484 10.559,2.484 3.88,0 7.22,-0.801 10.016,-2.404 2.8,-1.603 4.934,-3.857 6.403,-6.762 1.473,-2.906 2.206,-6.271 2.206,-10.096 0,-4.129 -0.8,-7.716 -2.403,-10.761 C 8.508,-0.668 6.223,-3.016 3.256,-4.663 0.289,-6.31 -3.198,-7.134 -7.199,-7.134 c -3.863,0 -7.203,0.806 -10.019,2.417"
             style="fill:#ffffff;fill-opacity:1;fill-rule:nonzero;stroke:none"
             id="path86" /></g><g
           id="g88"
           transform="translate(441.542,190.1969)"><path
             d="m 0,0 c 1.616,0 3.039,0.314 4.282,0.944 1.239,0.628 2.201,1.513 2.896,2.656 0.69,1.142 1.034,2.466 1.034,3.971 0,1.932 -0.611,3.344 -1.833,4.24 -1.223,0.894 -3.001,1.341 -5.341,1.341 H -3.771 L -3.771,0 Z M -10.413,18.2 H 1.624 c 4.391,0 7.718,-0.877 9.978,-2.631 2.255,-1.754 3.385,-4.26 3.385,-7.519 0,-2.036 -0.405,-3.831 -1.221,-5.38 C 12.949,1.12 11.94,-0.142 10.735,-1.115 9.53,-2.09 8.291,-2.816 7.015,-3.296 l 11.828,-16.977 h -7.71 L 1.118,-5.022 h -4.889 v -15.251 h -6.642 z"
             style="fill:#ffffff;fill-opacity:1;fill-rule:nonzero;stroke:none"
             id="path90" /></g><g
           id="g92"
           transform="translate(465.6455,208.3966)"><path
             d="M 0,0 H 22.663 L 22.026,-5.472 H 6.642 v -10.602 h 14.505 v -5.129 H 6.642 v -11.743 h 16.21 L 22.29,-38.473 H 0 Z"
             style="fill:#ffffff;fill-opacity:1;fill-rule:nonzero;stroke:none"
             id="path94" /></g><path
           d="m 512.964,208.397 h 6.642 v -38.473 h -6.642 z"
           style="fill:#ffffff;fill-opacity:1;fill-rule:nonzero;stroke:none"
           id="path96" /><g
           id="g98"
           transform="translate(537.1719,202.8449)"><path
             d="m 0,0 h -11.933 l 0.586,5.552 H 18.599 L 17.983,0 H 6.642 V -32.921 H 0 Z"
             style="fill:#ffffff;fill-opacity:1;fill-rule:nonzero;stroke:none"
             id="path100" /></g><g
           id="g102"
           transform="translate(601.8125,176.526)"><path
             d="m 0,0 c 1.863,1.249 3.252,2.967 4.173,5.154 0.921,2.189 1.382,4.69 1.382,7.506 0,2.765 -0.407,5.226 -1.223,7.387 -0.816,2.162 -2.117,3.884 -3.904,5.169 -1.792,1.283 -4.094,1.925 -6.91,1.925 -2.692,0 -4.977,-0.651 -6.856,-1.952 -1.875,-1.302 -3.285,-3.047 -4.223,-5.234 -0.942,-2.189 -1.411,-4.601 -1.411,-7.24 0,-2.781 0.445,-5.272 1.331,-7.467 0.883,-2.197 2.24,-3.932 4.065,-5.208 1.824,-1.275 4.084,-1.913 6.775,-1.913 2.675,0 4.944,0.623 6.801,1.873 m -17.218,-4.717 c -2.816,1.613 -4.968,3.876 -6.454,6.791 -1.489,2.912 -2.234,6.301 -2.234,10.161 0,4.056 0.795,7.605 2.381,10.641 1.582,3.039 3.867,5.385 6.855,7.042 2.984,1.655 6.504,2.484 10.56,2.484 3.88,0 7.219,-0.801 10.015,-2.404 2.8,-1.603 4.935,-3.857 6.404,-6.762 1.473,-2.906 2.206,-6.271 2.206,-10.096 0,-4.129 -0.8,-7.716 -2.403,-10.761 C 8.509,-0.668 6.224,-3.016 3.257,-4.663 0.289,-6.31 -3.197,-7.134 -7.198,-7.134 c -3.864,0 -7.203,0.806 -10.02,2.417"
             style="fill:#ffffff;fill-opacity:1;fill-rule:nonzero;stroke:none"
             id="path104" /></g><g
           id="g106"
           transform="translate(621.7432,208.3966)"><path
             d="m 0,0 h 7.626 l 19.021,-29.812 c -0.159,2.834 -0.238,5.447 -0.238,7.839 V 0 h 6.165 V -38.473 H 25.187 L 5.872,-8.182 c 0.192,-3.439 0.293,-6.483 0.293,-9.141 v -21.15 H 0 Z"
             style="fill:#ffffff;fill-opacity:1;fill-rule:nonzero;stroke:none"
             id="path108" /></g><g
           id="g110"
           transform="translate(172.3496,208.7062)"><path
             d="m 0,0 h -70.972 c -33.433,0 -45.662,-12.229 -45.662,-45.661 v -70.973 c 0,-33.431 12.229,-45.66 45.661,-45.66 h 70.951 c 33.433,0 45.684,12.229 45.684,45.66 v 70.973 C 45.662,-12.229 33.433,0 0,0"
             style="fill:#c8102e;fill-opacity:1;fill-rule:evenodd;stroke:none"
             id="path112" /></g><g
           id="g114"
           transform="translate(126.521,114.5822)"><path
             d="M 0,0 H 6.509 L 3.244,7.593 Z m -1.602,-3.825 -1.931,-4.418 h -4.395 l 9.347,21.206 h 3.799 l 9.31,-21.206 H 10.014 L 8.109,-3.825 Z M 69.13,-8.229 h 4.248 V 12.962 H 69.13 Z M 52.221,0.876 h 7.83 v 3.863 h -7.83 V 9.082 H 63.588 V 12.95 H 47.974 V -8.242 h 16.024 v 3.865 H 52.221 Z M 35.341,-1.628 30.524,12.964 H 27.01 L 22.193,-1.628 17.505,12.954 h -4.582 l 7.396,-21.209 h 3.564 l 4.825,13.931 4.823,-13.931 h 3.595 l 7.377,21.209 H 40.04 Z m -49.756,2.445 c 0,-3.449 -1.712,-5.293 -4.823,-5.293 -3.127,0 -4.85,1.896 -4.85,5.441 v 11.986 h -4.306 V 0.817 c 0,-5.967 3.317,-9.39 9.098,-9.39 5.838,0 9.185,3.487 9.185,9.567 v 11.969 h -4.304 z m -24.251,12.146 h 4.304 V -8.256 h -4.304 v 8.617 h -9.721 v -8.617 h -4.306 v 21.219 h 4.306 v -8.56 h 9.721 z"
             style="fill:#ffffff;fill-opacity:1;fill-rule:nonzero;stroke:none"
             id="path116" /></g><g
           id="g118"
           transform="translate(136.8633,154.5612)"><path
             d="m 0,0 c -14.896,0 -27.015,12.119 -27.015,27.015 h 3.817 C -23.198,14.224 -12.791,3.817 0,3.817 c 12.792,0 23.198,10.407 23.198,23.198 h 3.817 C 27.015,12.119 14.896,0 0,0"
             style="fill:#ffffff;fill-opacity:1;fill-rule:nonzero;stroke:none"
             id="path120" /></g></g></g></g></svg>
