<svg id="图层_1" data-name="图层 1" xmlns="http://www.w3.org/2000/svg" viewBox="0 0 850.39 255.12"><defs><style>.cls-1{fill:#b6b6b6;}.cls-2{fill:#c8102e;fill-rule:evenodd;}.cls-3{fill:#fff;}</style></defs><title>Badge-Black</title><path class="cls-1" d="M790.4,0H53.14c-1.93,0-3.84,0-5.79.08A82.76,82.76,0,0,0,34.73,1.21a41.61,41.61,0,0,0-12,3.94,40.56,40.56,0,0,0-10.19,7.42A39.4,39.4,0,0,0,5.16,22.78a41.63,41.63,0,0,0-3.94,12A80.84,80.84,0,0,0,.1,47.37C0,49.3,0,51.23,0,53.16V202c0,2,0,3.85.1,5.81a80.82,80.82,0,0,0,1.12,12.6,41.59,41.59,0,0,0,3.94,12,38.82,38.82,0,0,0,7.42,10.16A39.36,39.36,0,0,0,22.77,250a42.32,42.32,0,0,0,12,4A85.36,85.36,0,0,0,47.35,255c1.95,0,3.86.07,5.79.07H797.22c1.92,0,3.89,0,5.81-.07a84,84,0,0,0,12.59-1.11,43,43,0,0,0,12-4,39.15,39.15,0,0,0,10.18-7.42,40.06,40.06,0,0,0,7.44-10.16,41.51,41.51,0,0,0,3.9-12,84.71,84.71,0,0,0,1.17-12.6c0-2,0-3.85,0-5.81,0-2.28,0-4.56,0-6.88V60c0-2.31,0-4.6,0-6.88,0-1.93,0-3.86,0-5.79a84.72,84.72,0,0,0-1.17-12.61,41.55,41.55,0,0,0-3.9-12A40.7,40.7,0,0,0,827.63,5.15a42.23,42.23,0,0,0-12-3.94A81.48,81.48,0,0,0,803,.09c-1.92,0-3.89-.07-5.81-.08Z"/><path d="M53.17,249.61c-1.92,0-3.79,0-5.7-.07a80.05,80.05,0,0,1-11.76-1,37.19,37.19,0,0,1-10.43-3.45,34.09,34.09,0,0,1-8.8-6.4,33.31,33.31,0,0,1-6.42-8.8,35.72,35.72,0,0,1-3.42-10.43,77.58,77.58,0,0,1-1-11.8c0-1.33-.09-5.75-.09-5.75V53.16s0-4.35.09-5.63a77.64,77.64,0,0,1,1-11.78,36.18,36.18,0,0,1,3.42-10.47,33.94,33.94,0,0,1,6.39-8.8A35.31,35.31,0,0,1,25.27,10,36.8,36.8,0,0,1,35.68,6.62a78.76,78.76,0,0,1,11.81-1l5.68-.08h744l5.75.08a78.28,78.28,0,0,1,11.7,1,37.46,37.46,0,0,1,10.52,3.45A35.35,35.35,0,0,1,840.37,25.3a36.33,36.33,0,0,1,3.37,10.38,82.64,82.64,0,0,1,1.09,11.88c0,1.78,0,3.7,0,5.6,0,2.36,0,4.61,0,6.88V195.09c0,2.28,0,4.52,0,6.77,0,2,0,3.92,0,5.85a80.25,80.25,0,0,1-1.07,11.67,36.11,36.11,0,0,1-3.4,10.51,34.69,34.69,0,0,1-6.4,8.73,34,34,0,0,1-8.81,6.43,37,37,0,0,1-10.5,3.47,79.27,79.27,0,0,1-11.77,1c-1.84,0-3.77.07-5.65.07H53.17Z"/><path class="cls-2" d="M172.35,46.41h-71C68,46.41,55.72,58.64,55.72,92.07v71c0,33.43,12.23,45.66,45.66,45.66h71c33.43,0,45.68-12.23,45.68-45.66v-71C218,58.64,205.78,46.41,172.35,46.41Z"/><path class="cls-3" d="M87.86,127.57h4.3v21.22h-4.3v-8.62H78.14v8.62H73.83V127.57h4.31v8.56h9.72Zm24.25,12.15c0,3.45-1.71,5.29-4.82,5.29s-4.85-1.89-4.85-5.44v-12H98.13v12.14c0,6,3.32,9.39,9.1,9.39s9.18-3.49,9.18-9.57v-12h-4.3Zm49.75,2.44-4.81-14.59h-3.52l-4.81,14.59L144,127.58h-4.58l7.39,21.21h3.57l4.82-13.93,4.82,13.93h3.6L171,127.58h-4.47Zm16.88-2.5h7.83V135.8h-7.83v-4.35h11.37v-3.86H174.5v21.19h16v-3.87H178.74Zm16.91,9.1h4.25V127.57h-4.25Zm-70.73-4.4L123,148.78H118.6l9.34-21.21h3.8l9.31,21.21h-4.51l-1.91-4.42Zm1.6-3.82H133l-3.26-7.6Z"/><path class="cls-3" d="M136.87,100.56a27,27,0,0,1-27-27h3.82a23.2,23.2,0,1,0,46.39,0h3.82A27,27,0,0,1,136.87,100.56Z"/><path class="cls-3" d="M315.4,167.2H285.89l-7.23,19.19h-13l28.9-71.68h12.26l29.56,71.68H322.77Zm-25.8-9.75h22l-7.89-20.53q-1.62-4.24-3.2-9.4-1.43,4.56-3.1,9.3Z"/><path class="cls-3" d="M342.27,146.08q0-5.94-.41-13.07h11.8a55.58,55.58,0,0,1,.92,6.78Q361.9,132,371.37,132a20,20,0,0,1,10.17,2.7,19.22,19.22,0,0,1,7.56,8.51Q392,149,392,158a35.69,35.69,0,0,1-3.29,16,23.05,23.05,0,0,1-9.18,10,26.79,26.79,0,0,1-13.64,3.41,34.45,34.45,0,0,1-11-1.83v22.07l-12.56,1Zm33,27.28q3.84-5,3.84-14.67c0-6-1-10.3-3.18-13a10.26,10.26,0,0,0-8.47-4,14,14,0,0,0-6.77,1.68,25.67,25.67,0,0,0-5.9,4.51v28.59a20.12,20.12,0,0,0,4.38,1.41,23.84,23.84,0,0,0,4.94.52Q371.47,178.38,375.31,173.36Z"/><path class="cls-3" d="M400,146.08q0-5.94-.4-13.07h11.8a57.61,57.61,0,0,1,.92,6.78q7.32-7.77,16.79-7.77a20,20,0,0,1,10.17,2.7,19.34,19.34,0,0,1,7.56,8.51q2.88,5.81,2.87,14.77a35.69,35.69,0,0,1-3.28,16,23.11,23.11,0,0,1-9.18,10,26.82,26.82,0,0,1-13.64,3.41,34.45,34.45,0,0,1-11-1.83v22.07l-12.57,1Zm33.05,27.28q3.84-5,3.84-14.67,0-9-3.18-13a10.26,10.26,0,0,0-8.47-4,14,14,0,0,0-6.77,1.68,25.25,25.25,0,0,0-5.9,4.51v28.59a19.85,19.85,0,0,0,4.37,1.41,24,24,0,0,0,4.94.52Q429.24,178.38,433.07,173.36Z"/><path class="cls-3" d="M473.44,183a30,30,0,0,1-12.51-12.54q-4.38-8.16-4.38-19.29,0-12.07,5-20.51A32.08,32.08,0,0,1,475.3,118a43.81,43.81,0,0,1,19.46-4.23,52.65,52.65,0,0,1,12.14,1.36,54,54,0,0,1,10.76,3.73l-3.2,9.4a45.7,45.7,0,0,0-19.14-4.65,27.4,27.4,0,0,0-13.46,3.2,21.93,21.93,0,0,0-9,9.37,32.2,32.2,0,0,0-3.2,14.94,35.15,35.15,0,0,0,2.47,13.61,20.25,20.25,0,0,0,7.78,9.4q5.32,3.45,13.41,3.46a45.3,45.3,0,0,0,7.33-.6,38.45,38.45,0,0,0,6.86-1.73V160.77h-17v-9.5h29.26v30.18a66.78,66.78,0,0,1-13.26,4.4,64,64,0,0,1-13.81,1.53Q481.58,187.38,473.44,183Z"/><path class="cls-3" d="M565,186.39a44.83,44.83,0,0,1-.86-7.07,24.17,24.17,0,0,1-7.56,5.71,22.92,22.92,0,0,1-10.51,2.35,20.28,20.28,0,0,1-8.62-1.8,14.24,14.24,0,0,1-6.18-5.44,16.34,16.34,0,0,1-2.29-8.88,15.09,15.09,0,0,1,5.75-12.4q5.75-4.62,19.18-4.62a71.88,71.88,0,0,1,10,.69v-1q0-7.08-3.1-10t-8.9-2.89a35.81,35.81,0,0,0-8.61,1.14,46,46,0,0,0-8,2.72l-2-8.91a49.54,49.54,0,0,1,8.86-2.72,53,53,0,0,1,11.6-1.24,31.22,31.22,0,0,1,12.11,2.11,15.72,15.72,0,0,1,7.78,7.22q2.8,5.11,2.8,13.78v21.22q0,3.32.41,10Zm-7.53-9.89a20.14,20.14,0,0,0,6.41-4.55v-9.9a83.43,83.43,0,0,0-8.39-.54q-7.78,0-10.76,2.45a8.08,8.08,0,0,0-3,6.6q0,4,2.16,5.87a8.57,8.57,0,0,0,5.88,1.9A18.05,18.05,0,0,0,557.5,176.5Z"/><path class="cls-3" d="M587.43,173.58V110.5l12.51-1V171.4q0,3.42,1.2,4.83a4.69,4.69,0,0,0,3.79,1.41,14.07,14.07,0,0,0,3.3-.55l1.48,8.76a22.1,22.1,0,0,1-4.35,1.11,30.13,30.13,0,0,1-4.86.42Q587.42,187.38,587.43,173.58Z"/><path class="cls-3" d="M618.72,173.58V110.5l12.51-1V171.4q0,3.42,1.2,4.83a4.71,4.71,0,0,0,3.79,1.41,14.14,14.14,0,0,0,3.31-.55l1.48,8.76a22.21,22.21,0,0,1-4.36,1.11,30.13,30.13,0,0,1-4.86.42Q618.73,187.38,618.72,173.58Z"/><path class="cls-3" d="M693.11,161.26H657.19Q658,178,673.62,178a35.87,35.87,0,0,0,7.92-.91,48.68,48.68,0,0,0,7.76-2.45L692,183a47.89,47.89,0,0,1-20.71,4.35q-8.75,0-14.76-3.21a21,21,0,0,1-9-9.25,32.27,32.27,0,0,1-3-14.55,33.53,33.53,0,0,1,3.2-15.23,22.92,22.92,0,0,1,8.93-9.75,25.61,25.61,0,0,1,13.2-3.37q7.78,0,13,3.54a21.27,21.27,0,0,1,7.73,9.43,32.71,32.71,0,0,1,2.52,13Zm-12.26-7.76q-.36-6.39-3.31-9.58a10.23,10.23,0,0,0-7.89-3.19,10.71,10.71,0,0,0-8,3.22q-3.18,3.21-4.15,9.55Z"/><path class="cls-3" d="M703.24,146.42q0-4.39-.41-13.41h11.75c.21,1.49.4,3.26.59,5.32s.31,3.74.38,5a45,45,0,0,1,4.3-5.91,17.4,17.4,0,0,1,4.94-3.91,13.48,13.48,0,0,1,6.43-1.51,18.28,18.28,0,0,1,5,.6l-1.58,10.58a14.37,14.37,0,0,0-4.07-.54,13.72,13.72,0,0,0-7.74,2.2,30.93,30.93,0,0,0-7.07,7.25v34.28H703.24Z"/><path class="cls-3" d="M743.75,208.24a31.51,31.51,0,0,1-4.53-1.07l2.29-8.9c.84.23,1.91.45,3.2.67a22.85,22.85,0,0,0,3.66.32q8.36,0,12.52-10.44l.81-2L741.46,133h13.48l10.18,30.08a95.75,95.75,0,0,1,3.2,11.83q1.42-5.79,3.36-11.58L782,133h12.67l-20.2,54.08a54.56,54.56,0,0,1-6.16,12.36,21.31,21.31,0,0,1-7.81,7,23.8,23.8,0,0,1-10.86,2.28A35.28,35.28,0,0,1,743.75,208.24Z"/><path class="cls-3" d="M265.69,45h22.67l-.63,5.32h-15.4V60.6h14.52v5H272.33V77h16.22L288,82.39h-22.3Z"/><path class="cls-3" d="M304,63.29,292,45h7.55l8.11,13.47L316.22,45h7.34L311.7,63.05l12.84,19.34h-7.65l-9.17-14.74-9.34,14.74h-7.33Z"/><path class="cls-3" d="M329.43,45H339.8q7.32,0,11.19,2.9a9.8,9.8,0,0,1,3.88,8.37,12,12,0,0,1-1.74,6.5A11.4,11.4,0,0,1,348.28,67a16.41,16.41,0,0,1-7.15,1.48,28.17,28.17,0,0,1-5.05-.52V82.39h-6.65ZM346.1,61.67a6.67,6.67,0,0,0,2.13-5.29c0-2.3-.72-4-2.17-5s-3.56-1.53-6.36-1.53h-3.62V63.16a26.54,26.54,0,0,0,3.83.38Q344,63.54,346.1,61.67Z"/><path class="cls-3" d="M361.44,45h6.65v31.9H384l-.56,5.53h-22Z"/><path class="cls-3" d="M394.11,80.55a15.86,15.86,0,0,1-6.46-6.6,21,21,0,0,1-2.23-9.89,21.55,21.55,0,0,1,2.38-10.35,16.42,16.42,0,0,1,6.86-6.85,21.9,21.9,0,0,1,10.56-2.42,20.28,20.28,0,0,1,10,2.34,15.7,15.7,0,0,1,6.41,6.58,21,21,0,0,1,2.21,9.82,21.59,21.59,0,0,1-2.41,10.47,16.59,16.59,0,0,1-6.86,6.85,21.69,21.69,0,0,1-10.46,2.4A20.28,20.28,0,0,1,394.11,80.55ZM411.34,76a11,11,0,0,0,4.17-5,18.24,18.24,0,0,0,1.38-7.3,19.67,19.67,0,0,0-1.22-7.19,10.61,10.61,0,0,0-3.91-5,11.8,11.8,0,0,0-6.91-1.88,12,12,0,0,0-6.86,1.9,11.62,11.62,0,0,0-4.22,5.09,17.27,17.27,0,0,0-1.41,7.05,18.75,18.75,0,0,0,1.33,7.26,11.14,11.14,0,0,0,4.06,5.07,11.81,11.81,0,0,0,6.78,1.86A12.15,12.15,0,0,0,411.34,76Z"/><path class="cls-3" d="M431.27,45h12.05q6.58,0,10,2.56a8.6,8.6,0,0,1,3.39,7.31,10.79,10.79,0,0,1-1.23,5.24,11.51,11.51,0,0,1-3,3.68,13.21,13.21,0,0,1-3.72,2.12l11.83,16.52h-7.71l-10-14.84h-4.89V82.39h-6.65ZM441.7,62.67a9.54,9.54,0,0,0,4.27-.92,7,7,0,0,0,2.9-2.59,7.17,7.17,0,0,0,1-3.86,4.71,4.71,0,0,0-1.83-4.12,9.2,9.2,0,0,0-5.35-1.31h-4.81v12.8Z"/><path class="cls-3" d="M486.78,72.36H471.36l-3.77,10h-6.78l15.1-37.45h6.4l15.45,37.45h-7.13ZM473.3,67.27h11.51l-4.12-10.73q-.84-2.22-1.67-4.91-.75,2.37-1.62,4.86Z"/></svg>