<svg id="图层_1" data-name="图层 1" xmlns="http://www.w3.org/2000/svg" viewBox="0 0 850.39 255.12"><defs><style>.cls-1{fill:#b6b6b6;}.cls-2{fill:#c8102e;fill-rule:evenodd;}.cls-3{fill:#fff;}</style></defs><title>Japan-Badge-Black</title><path class="cls-1" d="M790.4,0H60c-2.31,0-4.59,0-6.89,0-1.93,0-3.84,0-5.79.08A82.74,82.74,0,0,0,34.73,1.22a41.94,41.94,0,0,0-12,4,40.31,40.31,0,0,0-10.19,7.42,39.18,39.18,0,0,0-7.42,10.2,41.7,41.7,0,0,0-3.94,12A80.61,80.61,0,0,0,.1,47.38C0,49.31,0,51.25,0,53.18V202c0,1.95,0,3.84.1,5.8a80.61,80.61,0,0,0,1.12,12.6,41.5,41.5,0,0,0,3.94,12,39,39,0,0,0,7.42,10.17A39.83,39.83,0,0,0,22.77,250a42.29,42.29,0,0,0,12,4,84,84,0,0,0,12.62,1.11c1.95,0,3.86.07,5.79.07H797.22c1.92,0,3.89,0,5.81-.07a82.73,82.73,0,0,0,12.59-1.11,42.93,42.93,0,0,0,12-4,39.61,39.61,0,0,0,10.18-7.42,40.29,40.29,0,0,0,7.44-10.17,41.41,41.41,0,0,0,3.9-12,84.46,84.46,0,0,0,1.17-12.6c0-2,0-3.85,0-5.8,0-2.29,0-4.57,0-6.89v-135c0-2.3,0-4.59,0-6.87,0-1.93,0-3.87,0-5.8a84.46,84.46,0,0,0-1.17-12.6,41.61,41.61,0,0,0-3.9-12A40.75,40.75,0,0,0,827.63,5.17a42.56,42.56,0,0,0-12-3.95A81.48,81.48,0,0,0,803,.11c-1.92,0-3.89-.07-5.81-.08-2.26,0-4.56,0-6.82,0Z"/><path d="M53.17,249.62c-1.92,0-3.79,0-5.7-.06a80.14,80.14,0,0,1-11.76-1,37.19,37.19,0,0,1-10.43-3.45,34.09,34.09,0,0,1-8.8-6.4,33.42,33.42,0,0,1-6.42-8.79,35.78,35.78,0,0,1-3.42-10.44,77.48,77.48,0,0,1-1-11.8c0-1.33-.09-5.75-.09-5.75V53.18s0-4.36.09-5.63a77.77,77.77,0,0,1,1-11.79A36.21,36.21,0,0,1,10.05,25.3a33.83,33.83,0,0,1,6.39-8.81,35.27,35.27,0,0,1,8.83-6.43A36.51,36.51,0,0,1,35.68,6.63a78.76,78.76,0,0,1,11.81-1l5.68-.08h744l5.75.08a77.09,77.09,0,0,1,11.7,1,37.45,37.45,0,0,1,10.52,3.44,35.35,35.35,0,0,1,15.21,15.24,36.43,36.43,0,0,1,3.37,10.38,82.64,82.64,0,0,1,1.09,11.88c0,1.79,0,3.7,0,5.61,0,2.36,0,4.61,0,6.87V195.1c0,2.29,0,4.52,0,6.77,0,2,0,3.92,0,5.85a80.12,80.12,0,0,1-1.07,11.67,36.27,36.27,0,0,1-3.4,10.52,34.64,34.64,0,0,1-6.4,8.72,34.07,34.07,0,0,1-8.81,6.44,36.72,36.72,0,0,1-10.5,3.46,79.34,79.34,0,0,1-11.77,1c-1.84,0-3.77.06-5.65.06l-6.82,0Z"/><path class="cls-2" d="M172.35,46.43h-71C68,46.43,55.72,58.65,55.72,92.09v71c0,33.43,12.23,45.66,45.66,45.66h71c33.43,0,45.68-12.23,45.68-45.66v-71C218,58.65,205.78,46.43,172.35,46.43Z"/><path class="cls-3" d="M87.86,127.59h4.3v21.22h-4.3v-8.62H78.14v8.62H73.83V127.59h4.31v8.56h9.72Zm24.25,12.14c0,3.45-1.71,5.29-4.82,5.29s-4.85-1.89-4.85-5.44v-12H98.13v12.13c0,6,3.32,9.39,9.1,9.39s9.18-3.48,9.18-9.56v-12h-4.3Zm49.75,2.45-4.81-14.59h-3.52l-4.81,14.59L144,127.6h-4.58l7.39,21.2h3.57l4.82-13.93,4.82,13.93h3.6L171,127.6h-4.47Zm16.88-2.51h7.83v-3.86h-7.83v-4.34h11.37V127.6H174.5v21.19h16v-3.86H178.74Zm16.91,9.11h4.25V127.59h-4.25Zm-70.73-4.41L123,148.79H118.6l9.34-21.2h3.8l9.31,21.2h-4.51l-1.91-4.42Zm1.6-3.82H133L129.77,133Z"/><path class="cls-3" d="M136.87,100.57a27,27,0,0,1-27-27h3.82a23.2,23.2,0,0,0,46.39,0h3.82A27,27,0,0,1,136.87,100.57Z"/><path class="cls-3" d="M315.39,90.06H285.88l-7.22,19.74h-13l28.9-73.72h12.27l29.56,73.72H322.77ZM289.6,80h22l-7.89-21.12q-1.62-4.38-3.21-9.66-1.42,4.68-3.1,9.56Z"/><path class="cls-3" d="M342.26,68.34c0-4.08-.14-8.55-.4-13.44h11.8a59,59,0,0,1,.91,7q7.33-8,16.8-8A18.94,18.94,0,0,1,389.1,65.41Q392,71.4,392,80.6A37.55,37.55,0,0,1,388.69,97a23.5,23.5,0,0,1-9.18,10.33,26.18,26.18,0,0,1-13.64,3.51,33.7,33.7,0,0,1-11-1.88v22.69l-12.57,1.07ZM375.31,96.4q3.84-5.18,3.84-15.09,0-9.21-3.18-13.36a10.14,10.14,0,0,0-8.47-4.14,13.59,13.59,0,0,0-6.77,1.73,25.08,25.08,0,0,0-5.9,4.63V99.58A19.31,19.31,0,0,0,359.2,101a24,24,0,0,0,4.94.53Q371.48,101.56,375.31,96.4Z"/><path class="cls-3" d="M400,68.34c0-4.08-.14-8.55-.41-13.44h11.8a59,59,0,0,1,.92,7q7.34-8,16.79-8a18.94,18.94,0,0,1,17.74,11.52q2.86,6,2.87,15.19A37.69,37.69,0,0,1,446.45,97a23.46,23.46,0,0,1-9.19,10.33,26.15,26.15,0,0,1-13.63,3.51,33.66,33.66,0,0,1-11-1.88v22.69L400,132.75ZM433.07,96.4q3.84-5.18,3.84-15.09,0-9.21-3.18-13.36a10.17,10.17,0,0,0-8.47-4.14,13.59,13.59,0,0,0-6.77,1.73,25.08,25.08,0,0,0-5.9,4.63V99.58A19.31,19.31,0,0,0,417,101a23.93,23.93,0,0,0,4.94.53Q429.22,101.56,433.07,96.4Z"/><path class="cls-3" d="M473.44,106.32a30.5,30.5,0,0,1-12.52-12.9q-4.37-8.4-4.37-19.84,0-12.42,5-21.09a32.37,32.37,0,0,1,13.72-13,42.8,42.8,0,0,1,19.46-4.35,51.48,51.48,0,0,1,12.13,1.4,52.4,52.4,0,0,1,10.77,3.84L514.45,50a44.41,44.41,0,0,0-19.13-4.78,26.76,26.76,0,0,0-13.46,3.28,22.28,22.28,0,0,0-9,9.64,33.92,33.92,0,0,0-3.21,15.37,37.22,37.22,0,0,0,2.47,14,20.71,20.71,0,0,0,7.79,9.67q5.31,3.56,13.4,3.56a45.22,45.22,0,0,0,7.33-.61,38.35,38.35,0,0,0,6.87-1.78V83.45h-17V73.68h29.25v31a66.16,66.16,0,0,1-13.25,4.53,62.34,62.34,0,0,1-13.82,1.57A39.16,39.16,0,0,1,473.44,106.32Z"/><path class="cls-3" d="M565,109.8a48.64,48.64,0,0,1-.87-7.27,24,24,0,0,1-7.55,5.87,22.39,22.39,0,0,1-10.51,2.42,19.86,19.86,0,0,1-8.62-1.85,14.43,14.43,0,0,1-6.19-5.6A17.23,17.23,0,0,1,529,94.24a15.71,15.71,0,0,1,5.75-12.75q5.76-4.76,19.19-4.76a70.38,70.38,0,0,1,10,.71V76.37q0-7.28-3.11-10.25c-2.06-2-5-3-8.9-3a34.91,34.91,0,0,0-8.6,1.18,45.87,45.87,0,0,0-8,2.79l-2-9.15a47.46,47.46,0,0,1,8.85-2.8,51.24,51.24,0,0,1,11.6-1.27,30.39,30.39,0,0,1,12.11,2.16,15.88,15.88,0,0,1,7.79,7.43q2.79,5.26,2.8,14.17V99.48q0,3.4.4,10.32ZM557.5,99.63A20.26,20.26,0,0,0,563.91,95V84.77a81.59,81.59,0,0,0-8.4-.56q-7.78,0-10.76,2.52a8.44,8.44,0,0,0-3,6.79q0,4.08,2.16,6a8.4,8.4,0,0,0,5.87,2A17.75,17.75,0,0,0,557.5,99.63Z"/><path class="cls-3" d="M587.42,96.62V31.75l12.52-1V94.39c0,2.34.39,4,1.19,5a4.66,4.66,0,0,0,3.79,1.45,14.26,14.26,0,0,0,3.31-.56l1.48,9a22,22,0,0,1-4.35,1.14,29.27,29.27,0,0,1-4.86.43Q587.42,110.82,587.42,96.62Z"/><path class="cls-3" d="M618.72,96.62V31.75l12.51-1V94.39q0,3.51,1.2,5a4.65,4.65,0,0,0,3.79,1.45,14.19,14.19,0,0,0,3.3-.56l1.48,9a22,22,0,0,1-4.35,1.14,29.09,29.09,0,0,1-4.86.43Q618.71,110.82,618.72,96.62Z"/><path class="cls-3" d="M693.1,84H657.18q.87,17.25,16.44,17.25a34.72,34.72,0,0,0,7.91-.95,45.71,45.71,0,0,0,7.76-2.52l2.75,8.61a46.81,46.81,0,0,1-20.71,4.47q-8.76,0-14.76-3.3a21.28,21.28,0,0,1-9-9.52,33.82,33.82,0,0,1-3-15,35.36,35.36,0,0,1,3.21-15.67,23.24,23.24,0,0,1,8.93-10,25,25,0,0,1,13.2-3.46q7.78,0,13,3.63a21.74,21.74,0,0,1,7.74,9.7A34.44,34.44,0,0,1,693.1,80.6Zm-12.26-8c-.23-4.38-1.34-7.66-3.3-9.85a10.09,10.09,0,0,0-7.89-3.28,10.56,10.56,0,0,0-8,3.31q-3.18,3.3-4.15,9.82Z"/><path class="cls-3" d="M703.23,68.69q0-4.53-.4-13.79h11.75c.2,1.53.4,3.35.58,5.47s.32,3.84.39,5.17a45.67,45.67,0,0,1,4.29-6.08,17.54,17.54,0,0,1,4.94-4,13.09,13.09,0,0,1,6.44-1.55,17.75,17.75,0,0,1,5,.61l-1.57,10.88a14.08,14.08,0,0,0-4.08-.55,13.35,13.35,0,0,0-7.73,2.26,31,31,0,0,0-7.07,7.45V109.8H703.23Z"/><path class="cls-3" d="M743.74,132.27a30.14,30.14,0,0,1-4.53-1.1L741.5,122c.85.23,1.92.46,3.21.68a21.81,21.81,0,0,0,3.66.33q8.34,0,12.52-10.73l.81-2L741.45,54.9h13.48l10.18,30.94A101.21,101.21,0,0,1,768.32,98q1.42-6,3.35-11.91L782,54.9h12.67l-20.2,55.62a57.65,57.65,0,0,1-6.15,12.72,21.62,21.62,0,0,1-7.81,7.17,23.36,23.36,0,0,1-10.87,2.34A34.38,34.38,0,0,1,743.74,132.27Z"/><path class="cls-3" d="M267,164.11c1.49.07,2.23.07,2.57.07,1.21,0,1.21,0,11.14-.68,3.79-.2,15-.81,33.72-1.69,5.53-.27,6.55-.33,7.77-.6l.47,8.58a10.2,10.2,0,0,0-1.42-.07,30.19,30.19,0,0,0-13.38,3.65c-8.58,4.46-13.64,11.21-13.64,18,0,5.27,3.31,9.32,9,11a41.08,41.08,0,0,0,10.07,1.75c.06,0,.67,0,1.35-.06l-1.22,9.18c-.81-.2-1.15-.2-2.29-.4-7.44-.95-11.69-2.16-15.81-4.46a18.06,18.06,0,0,1-9.66-16.28,23.54,23.54,0,0,1,6.41-15.88,29.92,29.92,0,0,1,9.39-6.82c-5.47.81-8.1,1.08-22.76,2.16A98.89,98.89,0,0,0,267.51,173ZM313.32,174a36.34,36.34,0,0,1,6,9.13l-5.13,2.7a42.84,42.84,0,0,0-6-9.26Zm8.37,8a44.7,44.7,0,0,0-5.81-9l4.94-2.44a35.54,35.54,0,0,1,5.94,8.72Z"/><path class="cls-3" d="M353.4,183.23c-2.1.07-2.84.14-4.53.27v-3A66.22,66.22,0,0,1,337,187.08a25.68,25.68,0,0,0-4-6.21,57.78,57.78,0,0,0,12.9-6.56,46.34,46.34,0,0,0-9.46-8.85l5.54-4.12,2.16,1.76v-7a37.67,37.67,0,0,0,5.61.34h12.5a39.21,39.21,0,0,0,5.81-.27c.68,2.7,1.62,4.26,4.19,7.36a36.09,36.09,0,0,0,4-4.32,11.69,11.69,0,0,0,1.41-2c.34-.54.34-.54.54-.88l6.22,3.45c-.2.27-1.08,1.28-2.64,3.11-1.21,1.41-3.31,3.51-5,5.06,1.82,1.56,2.56,2.17,4,3.25a39.69,39.69,0,0,0,7-8.18l6.21,3.51c-.4.41-.54.61-1.89,2.1a52,52,0,0,1-6.08,6.21A59.41,59.41,0,0,0,396.84,180c-1.55,2-2,2.77-3.78,6.69a68.19,68.19,0,0,1-11.15-6.08v2.9a55.09,55.09,0,0,0-6.49-.27v7.3h10.75a40,40,0,0,0,7.09-.41v7.23a51.39,51.39,0,0,0-7.09-.41H375.42V207c0,1.42.07,1.56,1.08,1.83a15.78,15.78,0,0,0,4.33.33c3.71,0,5.34-.33,6.08-1.28s1-3,1.22-6.75a23.2,23.2,0,0,0,7.29,2.36c-1.48,11.42-2.7,12.43-15.67,12.43-9.19,0-11.35-1.15-11.35-5.88V196.94h-8.72a23.69,23.69,0,0,1-4.19,9.73c-3.37,4.46-7.43,7.17-15.74,10.41a24.56,24.56,0,0,0-4.79-6.62c6.28-1.76,9.52-3.31,12.49-6a15.33,15.33,0,0,0,4.8-7.51H343.6a42.87,42.87,0,0,0-7.09.41v-7.23a40.44,40.44,0,0,0,7.09.41h9.66c.07-.88.07-1.35.07-2.1Zm-5.13-20.4a30.6,30.6,0,0,0-4.13.27,57.42,57.42,0,0,1,7.37,7,43.83,43.83,0,0,0,6.62-7.23Zm27,14h1.42a56.73,56.73,0,0,1-11.49-12.23,56.5,56.5,0,0,1-11.41,12.23h21.48ZM360.49,189v1.55h7.91v-7.3h-7.84Z"/><path class="cls-3" d="M417.82,196.94c-3.25,0-5.54.07-7.3.2a51.89,51.89,0,0,0,.34-7.15V165.33a82.68,82.68,0,0,0-.34-8.44,52,52,0,0,0,7.09.33h31.15a52.39,52.39,0,0,0,7.16-.33,80.81,80.81,0,0,0-.34,8.44V190a50.14,50.14,0,0,0,.34,7.15c-1.76-.13-4.39-.2-7.16-.2H443v10.41c0,1.89.61,2.1,5.88,2.1s6.55-.28,7.36-1.42c.68-.95,1-3.52,1.22-8.66a27.61,27.61,0,0,0,7,2.84c-.68,7.5-1.36,10-3,11.63-1.9,1.75-4.8,2.29-12.43,2.29-11.22,0-13.25-.94-13.25-6V196.94h-6.08a20.76,20.76,0,0,1-6.41,12.51c-4.26,4-9.4,6.35-17.17,8.1a20.92,20.92,0,0,0-3.91-6.62c6.35-1.15,9.93-2.36,13.17-4.46a13.52,13.52,0,0,0,6.42-9.53Zm.13-28.57h30.47V164H418Zm0,10.88h30.47v-4.53H418Zm0,11.15h30.47v-4.81H418Z"/><path class="cls-3" d="M485.86,157.42a62.58,62.58,0,0,0-.81,9.12c-.27,6.29-.67,20-.67,24.8,0,6.42.4,8.85,1.75,10.88,1.56,2.23,4.8,3.51,9.06,3.51,7.29,0,13.17-4.12,16.35-11.55a45.54,45.54,0,0,0,3.1-11.35,29.36,29.36,0,0,0,8.18,5.2c-2.7,9.12-4.73,13.51-8,17.23-5.07,5.74-11.76,8.58-20.27,8.58-4.66,0-9-1.08-11.82-3-4.66-3.1-6.62-8.31-6.62-17.36,0-3.51.13-10.27.54-27.23.06-2,.06-3.44.06-4.39a34.06,34.06,0,0,0-.26-4.59Z"/><path class="cls-3" d="M562.57,155.74a76.63,76.63,0,0,0-.47,10.47c0,.94,0,1.14.07,4.39,8.1-.07,15.53-.88,19.79-2.3l.68,8.17c-1.36.07-1.36.07-4.4.41a147.65,147.65,0,0,1-15.87,1.22c.13,5.27.27,8.31.74,14.93a50.36,50.36,0,0,1,10.54,4.59,91.44,91.44,0,0,1,8.72,5.74c.87.61,1.21.88,2,1.36l-5.27,7.63a26.23,26.23,0,0,0-4.79-4.46,42.78,42.78,0,0,0-8.92-5.54c-.88-.47-1.42-.74-2.16-1.21a17,17,0,0,1,.13,2.16c0,7.56-5.34,11.55-15.4,11.55-6.89,0-11.69-2-14.19-5.81a12.22,12.22,0,0,1-1.69-6c0-7,7-12.1,16.69-12.1a24.7,24.7,0,0,1,6.28.68,1.47,1.47,0,0,1-.07-.68c-.27-2.43-.87-20.87-.94-29.32a40.05,40.05,0,0,0-.34-5.94Zm-13.65,42.42c-5.06,0-8.44,2-8.44,5a3.68,3.68,0,0,0,2.3,3.51,12,12,0,0,0,4.93,1,9.64,9.64,0,0,0,6.14-1.83,4.72,4.72,0,0,0,1.42-3.78c0-1.22-.06-3.11-.06-3.17A21.9,21.9,0,0,0,548.92,198.16Z"/><path class="cls-3" d="M596.14,177.62c1.76-.06,1.76-.06,7.84-1.15,9.59-1.68,15.47-2.29,21.21-2.29,5.47,0,9.66.88,12.77,2.77,4.19,2.5,6.55,7,6.55,12.36,0,7.7-4.66,14.73-12.83,19.39-5.54,3.18-10.27,4.59-21.28,6.35a19.25,19.25,0,0,0-3.52-8.44c7.84-.34,15.14-2.23,20.34-5.14s8.24-7.23,8.24-11.89c0-5.07-3.58-7.63-10.61-7.63-7.63,0-21.14,2.36-26.75,4.66Zm10.54-21.55c7.5,2.5,17.5,3.92,28.17,3.92h1.89l-1.14,8.31A149.59,149.59,0,0,1,604.05,164Z"/></svg>