<svg id="图层_1" data-name="图层 1" xmlns="http://www.w3.org/2000/svg" viewBox="0 0 850.39 255.12"><defs><style>.cls-1{fill:#b6b6b6;}.cls-2{fill:#fff;}.cls-3{fill:#c8102e;fill-rule:evenodd;}</style></defs><title>Badge-Black</title><path class="cls-1" d="M790.4,0H53.13c-1.92,0-3.84,0-5.78.08A82.76,82.76,0,0,0,34.73,1.21a41.61,41.61,0,0,0-12,3.94,40.61,40.61,0,0,0-10.2,7.42A39.6,39.6,0,0,0,5.16,22.78a41.63,41.63,0,0,0-3.94,12A82.09,82.09,0,0,0,.09,47.37C0,49.3,0,51.23,0,53.16V202c0,2,0,3.85.09,5.81a82.07,82.07,0,0,0,1.13,12.6,41.59,41.59,0,0,0,3.94,12,39,39,0,0,0,7.41,10.16A39.41,39.41,0,0,0,22.77,250a42.32,42.32,0,0,0,12,4A85.36,85.36,0,0,0,47.35,255c1.94,0,3.86.07,5.78.07H797.22c1.92,0,3.89,0,5.81-.07a84.26,84.26,0,0,0,12.59-1.11,43,43,0,0,0,12-4,39.31,39.31,0,0,0,10.18-7.42,40.06,40.06,0,0,0,7.44-10.16,41.51,41.51,0,0,0,3.9-12,86.06,86.06,0,0,0,1.17-12.6c0-2,0-3.85,0-5.81,0-2.28,0-4.56,0-6.88V60c0-2.31,0-4.6,0-6.88,0-1.93,0-3.86,0-5.79a86.07,86.07,0,0,0-1.17-12.61,41.55,41.55,0,0,0-3.9-12A40.7,40.7,0,0,0,827.63,5.15a42.23,42.23,0,0,0-12-3.94A81.71,81.71,0,0,0,803,.09c-1.92,0-3.89-.07-5.81-.08Z"/><path d="M53.17,249.61c-1.92,0-3.8,0-5.7-.07a80.3,80.3,0,0,1-11.77-1,37.41,37.41,0,0,1-10.43-3.45,34.21,34.21,0,0,1-8.79-6.4,33.57,33.57,0,0,1-6.43-8.8,36,36,0,0,1-3.41-10.43,77.58,77.58,0,0,1-1-11.8c0-1.33-.1-5.75-.1-5.75V53.16s.06-4.35.1-5.63a77.64,77.64,0,0,1,1-11.78,36.18,36.18,0,0,1,3.42-10.47,33.94,33.94,0,0,1,6.39-8.8A35.31,35.31,0,0,1,25.27,10,36.6,36.6,0,0,1,35.68,6.62a78.76,78.76,0,0,1,11.81-1l5.68-.08h744l5.75.08a78.28,78.28,0,0,1,11.7,1,37.57,37.57,0,0,1,10.52,3.45,35.25,35.25,0,0,1,15.2,15.24,36,36,0,0,1,3.37,10.38,82.67,82.67,0,0,1,1.1,11.88c0,1.78,0,3.7,0,5.6,0,2.36,0,4.61,0,6.88V195.09c0,2.28,0,4.52,0,6.77,0,2,0,3.92,0,5.85a81.67,81.67,0,0,1-1.07,11.67,36.41,36.41,0,0,1-3.4,10.51,34.69,34.69,0,0,1-6.4,8.73,34,34,0,0,1-8.81,6.43,37.15,37.15,0,0,1-10.5,3.47,79.27,79.27,0,0,1-11.77,1c-1.84,0-3.77.07-5.65.07H53.17Z"/><path class="cls-2" d="M315.39,172.42H285.88l-7.22,19.75h-13l28.89-73.73h12.27l29.56,73.73H322.77Zm-25.79-10h22l-7.89-21.12q-1.62-4.36-3.2-9.66-1.43,4.68-3.1,9.56Z"/><path class="cls-2" d="M342.26,150.7q0-6.1-.4-13.44h11.8a61.05,61.05,0,0,1,.92,7q7.32-8,16.79-8a18.94,18.94,0,0,1,17.73,11.52q2.88,6,2.88,15.19a37.55,37.55,0,0,1-3.29,16.43,23.44,23.44,0,0,1-9.18,10.33,26.19,26.19,0,0,1-13.64,3.52,33.45,33.45,0,0,1-11-1.89V214l-12.57,1.07Zm33.05,28.06q3.84-5.16,3.84-15.09,0-9.21-3.18-13.35a10.12,10.12,0,0,0-8.47-4.15,13.72,13.72,0,0,0-6.77,1.73,25.55,25.55,0,0,0-5.9,4.63v29.41a19.23,19.23,0,0,0,4.38,1.45,23.17,23.17,0,0,0,4.93.53Q371.48,183.92,375.31,178.76Z"/><path class="cls-2" d="M400,150.7q0-6.1-.41-13.44h11.81a58.9,58.9,0,0,1,.91,7q7.34-8,16.79-8a18.94,18.94,0,0,1,17.74,11.52q2.86,6,2.87,15.19a37.55,37.55,0,0,1-3.28,16.43,23.46,23.46,0,0,1-9.19,10.33,26.13,26.13,0,0,1-13.63,3.52,33.45,33.45,0,0,1-11-1.89V214L400,215.11Zm33.05,28.06q3.84-5.16,3.84-15.09,0-9.21-3.18-13.35a10.12,10.12,0,0,0-8.47-4.15,13.7,13.7,0,0,0-6.77,1.73,25.34,25.34,0,0,0-5.9,4.63v29.41a19.31,19.31,0,0,0,4.37,1.45,23.26,23.26,0,0,0,4.94.53Q429.24,183.92,433.07,178.76Z"/><path class="cls-2" d="M473.44,188.68a30.5,30.5,0,0,1-12.52-12.9q-4.37-8.4-4.37-19.84,0-12.42,5-21.09a32.4,32.4,0,0,1,13.71-13,42.8,42.8,0,0,1,19.46-4.35,51.62,51.62,0,0,1,12.14,1.4,52.31,52.31,0,0,1,10.76,3.84l-3.21,9.67a44.41,44.41,0,0,0-19.13-4.78,26.76,26.76,0,0,0-13.46,3.28,22.33,22.33,0,0,0-9,9.64,33.92,33.92,0,0,0-3.2,15.37,37.23,37.23,0,0,0,2.46,14,20.71,20.71,0,0,0,7.79,9.67q5.31,3.55,13.4,3.56a44.12,44.12,0,0,0,7.33-.61,38.35,38.35,0,0,0,6.87-1.78V165.81h-17V156h29.25v31a65.54,65.54,0,0,1-13.25,4.53,62.27,62.27,0,0,1-13.82,1.57A39.16,39.16,0,0,1,473.44,188.68Z"/><path class="cls-2" d="M565,192.17a47.73,47.73,0,0,1-.86-7.28,24.38,24.38,0,0,1-7.56,5.88,22.48,22.48,0,0,1-10.51,2.41,19.86,19.86,0,0,1-8.62-1.85,14.35,14.35,0,0,1-6.18-5.6A17.14,17.14,0,0,1,529,176.6a15.68,15.68,0,0,1,5.75-12.75q5.75-4.75,19.18-4.76a68.93,68.93,0,0,1,10,.72v-1.07q0-7.28-3.1-10.26t-8.91-3a34.93,34.93,0,0,0-8.6,1.17,45,45,0,0,0-8,2.8l-2-9.16a48.1,48.1,0,0,1,8.86-2.8,51.11,51.11,0,0,1,11.6-1.27,30.37,30.37,0,0,1,12.1,2.16,15.88,15.88,0,0,1,7.79,7.43q2.8,5.26,2.8,14.17v21.83c0,2.27.13,5.71.41,10.33ZM557.5,182a20.11,20.11,0,0,0,6.41-4.68V167.13a81.59,81.59,0,0,0-8.39-.56q-7.78,0-10.76,2.52a8.42,8.42,0,0,0-3,6.79q0,4.08,2.16,6a8.41,8.41,0,0,0,5.88,2A17.71,17.71,0,0,0,557.5,182Z"/><path class="cls-2" d="M587.42,179V114.11l12.52-1v63.65q0,3.51,1.19,5a4.64,4.64,0,0,0,3.8,1.45,14.19,14.19,0,0,0,3.3-.56l1.48,9a22,22,0,0,1-4.35,1.14,29.09,29.09,0,0,1-4.86.43Q587.42,193.18,587.42,179Z"/><path class="cls-2" d="M618.72,179V114.11l12.51-1v63.65q0,3.51,1.2,5a4.61,4.61,0,0,0,3.79,1.45,14.34,14.34,0,0,0,3.31-.56l1.47,9a21.78,21.78,0,0,1-4.35,1.14,29.09,29.09,0,0,1-4.86.43Q618.71,193.18,618.72,179Z"/><path class="cls-2" d="M693.11,166.32H657.18q.87,17.25,16.44,17.25a35.26,35.26,0,0,0,7.91-.94,47.25,47.25,0,0,0,7.76-2.52l2.75,8.6a46.81,46.81,0,0,1-20.71,4.47q-8.75,0-14.76-3.3a21.28,21.28,0,0,1-9-9.52,33.82,33.82,0,0,1-3-15,35.36,35.36,0,0,1,3.2-15.67,23.31,23.31,0,0,1,8.93-10,25,25,0,0,1,13.2-3.46q7.78,0,13,3.64a21.71,21.71,0,0,1,7.73,9.69A34.48,34.48,0,0,1,693.11,163Zm-12.27-8c-.23-4.38-1.34-7.66-3.3-9.85a10.12,10.12,0,0,0-7.89-3.28,10.56,10.56,0,0,0-8,3.31q-3.18,3.3-4.15,9.82Z"/><path class="cls-2" d="M703.23,151.05q0-4.53-.4-13.79h11.75c.21,1.53.4,3.35.59,5.47s.31,3.85.38,5.17a44.76,44.76,0,0,1,4.3-6.08,17.35,17.35,0,0,1,4.93-4,13.09,13.09,0,0,1,6.44-1.55,17.87,17.87,0,0,1,5,.61l-1.58,10.89a13.67,13.67,0,0,0-4.07-.56,13.38,13.38,0,0,0-7.74,2.26,31.43,31.43,0,0,0-7.07,7.45v35.27H703.23Z"/><path class="cls-2" d="M743.74,214.63a31,31,0,0,1-4.52-1.09l2.28-9.16c.85.23,1.92.46,3.21.68a21.87,21.87,0,0,0,3.66.34q8.34,0,12.52-10.74l.81-2-20.25-55.36h13.49l10.17,30.94a99.32,99.32,0,0,1,3.21,12.16q1.42-6,3.36-11.91L782,137.26h12.66l-20.19,55.62a56.76,56.76,0,0,1-6.16,12.72,21.62,21.62,0,0,1-7.81,7.17,23.36,23.36,0,0,1-10.87,2.34A34.38,34.38,0,0,1,743.74,214.63Z"/><g id="形状_1_拷贝_25" data-name="形状 1 拷贝 25"><path class="cls-3" d="M172.35,46.41h-71c-33.44,0-45.66,12.23-45.66,45.66v71c0,33.43,12.22,45.66,45.66,45.66h71c33.43,0,45.68-12.23,45.68-45.66v-71C218,58.64,205.78,46.41,172.35,46.41Z"/></g><path class="cls-2" d="M87.85,127.57h4.31v21.22H87.85v-8.62H78.13v8.62h-4.3V127.57h4.3v8.56h9.72Zm24.26,12.15c0,3.45-1.72,5.29-4.83,5.29s-4.85-1.89-4.85-5.44v-12h-4.3v12.14c0,6,3.31,9.39,9.1,9.39s9.18-3.49,9.18-9.57v-12h-4.3Zm49.75,2.44-4.81-14.59h-3.52l-4.82,14.59L144,127.58h-4.59l7.4,21.21h3.56l4.83-13.93,4.82,13.93h3.6L171,127.58h-4.46Zm16.88-2.5h7.83V135.8h-7.83v-4.35h11.37v-3.86H174.49v21.19h16v-3.87H178.74Zm16.91,9.1h4.25V127.57h-4.25Zm-70.73-4.4L123,148.78h-4.4l9.35-21.21h3.8l9.31,21.21h-4.51l-1.91-4.42Zm1.6-3.82H133l-3.27-7.6Z"/><path class="cls-2" d="M136.86,100.56a27,27,0,0,1-27-27h3.82a23.2,23.2,0,1,0,46.39,0h3.82A27,27,0,0,1,136.86,100.56Z"/><path class="cls-2" d="M272.62,90.43a15.21,15.21,0,0,1-6.1-6.41,20.84,20.84,0,0,1-2.11-9.61,21.47,21.47,0,0,1,2.25-10.06,15.8,15.8,0,0,1,6.48-6.65,20.2,20.2,0,0,1,10-2.35,18.8,18.8,0,0,1,9.47,2.27A15.11,15.11,0,0,1,298.64,64a20.89,20.89,0,0,1,2.08,9.55,21.61,21.61,0,0,1-2.27,10.17A15.92,15.92,0,0,1,292,90.38a20,20,0,0,1-9.88,2.34A18.68,18.68,0,0,1,272.62,90.43ZM288.89,86a10.78,10.78,0,0,0,3.95-4.88,18.11,18.11,0,0,0,1.3-7.09A19.69,19.69,0,0,0,293,67a10.41,10.41,0,0,0-3.69-4.89,11,11,0,0,0-6.53-1.82,11.08,11.08,0,0,0-6.48,1.85,11.2,11.2,0,0,0-4,5A17.07,17.07,0,0,0,271,74,18.7,18.7,0,0,0,272.22,81a10.84,10.84,0,0,0,3.84,4.92,11,11,0,0,0,6.41,1.81A11.24,11.24,0,0,0,288.89,86Z"/><path class="cls-2" d="M313.45,61.1H302.18l.55-5.25H331l-.58,5.25H319.73V92.22h-6.28Z"/><path class="cls-2" d="M364.83,92.22h-7.08l-10.82-16h-4.3v16h-6.27V55.85h6.27v15h3.29L353.46,60a12.68,12.68,0,0,1,3.32-3.53A7.63,7.63,0,0,1,361,55.35a9.74,9.74,0,0,1,3.77.7L363.45,61a5.23,5.23,0,0,0-2-.43,3.2,3.2,0,0,0-1.89.56A7.07,7.07,0,0,0,358,62.86L351.3,72.4Z"/><path class="cls-2" d="M369.63,55.85h9.79q6.91,0,10.57,2.82t3.67,8.13A12,12,0,0,1,392,73.12a10.84,10.84,0,0,1-4.59,4.14,15.16,15.16,0,0,1-6.75,1.45,25.89,25.89,0,0,1-4.77-.51v14h-6.28Zm15.74,16.24a6.59,6.59,0,0,0,2-5.14c0-2.24-.68-3.86-2-4.84a10.2,10.2,0,0,0-6-1.49h-3.41V73.53a25.06,25.06,0,0,0,3.61.38A8.45,8.45,0,0,0,385.37,72.09Z"/><path class="cls-2" d="M405.74,90.43a15.15,15.15,0,0,1-6.1-6.41,20.84,20.84,0,0,1-2.11-9.61,21.59,21.59,0,0,1,2.24-10.06,15.8,15.8,0,0,1,6.48-6.65,20.22,20.22,0,0,1,10-2.35,18.77,18.77,0,0,1,9.46,2.27A15,15,0,0,1,431.75,64a20.89,20.89,0,0,1,2.09,9.55,21.61,21.61,0,0,1-2.27,10.17,15.92,15.92,0,0,1-6.48,6.65,20,20,0,0,1-9.88,2.34A18.68,18.68,0,0,1,405.74,90.43ZM422,86A10.76,10.76,0,0,0,426,81.1,18.11,18.11,0,0,0,427.26,74a19.68,19.68,0,0,0-1.16-7,10.41,10.41,0,0,0-3.69-4.89,10.94,10.94,0,0,0-6.53-1.82,11.07,11.07,0,0,0-6.47,1.85,11.29,11.29,0,0,0-4,5A17.24,17.24,0,0,0,404.08,74,18.7,18.7,0,0,0,405.34,81a10.71,10.71,0,0,0,3.84,4.92,10.93,10.93,0,0,0,6.4,1.81A11.27,11.27,0,0,0,422,86Z"/><path class="cls-2" d="M465.81,92.22v-20q0-3.77.27-8.64L447.83,92.22h-7V55.85h5.83V76.62c0,2.26-.07,4.73-.23,7.41l18-28.18h7.21V92.22ZM451.64,52.69a7.76,7.76,0,0,1-3-2.71,9,9,0,0,1-1.32-3.57h4.52c.48,2.68,2.06,4,4.72,4s4.24-1.34,4.75-4h4.54A9,9,0,0,1,464.51,50a7.76,7.76,0,0,1-3,2.71,12,12,0,0,1-9.83,0Z"/><path class="cls-2" d="M488.23,61.1H477l.55-5.25h28.3l-.58,5.25H494.51V92.22h-6.28Z"/><path class="cls-2" d="M511.13,55.85h21.42L532,61H517.41v10h13.71v4.84H517.41V87h15.32l-.53,5.23H511.13Z"/><path class="cls-2" d="M576.51,74.25a8.61,8.61,0,0,1,3.06,3.14,8.9,8.9,0,0,1,1.12,4.55,9.62,9.62,0,0,1-1.52,5.37,9.94,9.94,0,0,1-4.44,3.61,17.32,17.32,0,0,1-7,1.3H555.86V55.85h11.35c3.85,0,6.73.75,8.66,2.24a7.31,7.31,0,0,1,2.89,6.13,8.07,8.07,0,0,1-1.85,5.41,9.81,9.81,0,0,1-4.83,3.05A11.64,11.64,0,0,1,576.51,74.25ZM562,70.72h3.92a7.31,7.31,0,0,0,3.45-.78,5.65,5.65,0,0,0,2.3-2.1,5.39,5.39,0,0,0,.8-2.9,3.79,3.79,0,0,0-1.61-3.34,8.38,8.38,0,0,0-4.69-1.1H562ZM572.52,86a6.08,6.08,0,0,0-.2-9,10.1,10.1,0,0,0-6.12-1.58H562v12.2h4.72Q570.6,87.57,572.52,86Z"/></svg>